<?xml version="1.0" encoding="UTF-8" standalone="no"?>
<svg
   xmlns:dc="http://purl.org/dc/elements/1.1/"
   xmlns:cc="http://creativecommons.org/ns#"
   xmlns:rdf="http://www.w3.org/1999/02/22-rdf-syntax-ns#"
   xmlns:svg="http://www.w3.org/2000/svg"
   xmlns="http://www.w3.org/2000/svg"
   xmlns:xlink="http://www.w3.org/1999/xlink"
   xmlns:sodipodi="http://sodipodi.sourceforge.net/DTD/sodipodi-0.dtd"
   xmlns:inkscape="http://www.inkscape.org/namespaces/inkscape"
   height="24"
   viewBox="0 0 6.3499999 6.3500002"
   width="24"
   version="1.1"
   id="svg102"
   sodipodi:docname="lc_backcolor.svg"
   inkscape:export-filename="/home/rizmut/Dokumen/Rizmut/Github/libreoffice-style-karasa-jaga/build/next/cmd/bg/lc_backcolor.png"
   inkscape:export-xdpi="96"
   inkscape:export-ydpi="96"
   inkscape:version="0.92.3 (2405546, 2018-03-11)">
  <metadata
     id="metadata108">
    <rdf:RDF>
      <cc:Work
         rdf:about="">
        <dc:format>image/svg+xml</dc:format>
        <dc:type
           rdf:resource="http://purl.org/dc/dcmitype/StillImage" />
        <dc:title></dc:title>
      </cc:Work>
    </rdf:RDF>
  </metadata>
  <defs
     id="defs106" />
  <sodipodi:namedview
     pagecolor="#ffffff"
     bordercolor="#666666"
     borderopacity="1"
     objecttolerance="10"
     gridtolerance="10"
     guidetolerance="10"
     inkscape:pageopacity="0"
     inkscape:pageshadow="2"
     inkscape:window-width="1366"
     inkscape:window-height="714"
     id="namedview104"
     showgrid="true"
     inkscape:zoom="19.666667"
     inkscape:cx="8.4561523"
     inkscape:cy="17.143173"
     inkscape:window-x="0"
     inkscape:window-y="28"
     inkscape:window-maximized="1"
     inkscape:current-layer="g100">
    <inkscape:grid
       type="xygrid"
       id="grid915" />
  </sodipodi:namedview>
  <linearGradient
     id="a">
    <stop
       offset="0"
       stop-color="#07265b"
       id="stop2" />
    <stop
       offset=".34029821"
       stop-color="#254a7b"
       stop-opacity=".996078"
       id="stop4" />
    <stop
       offset=".68983138"
       stop-color="#3066af"
       stop-opacity=".996078"
       id="stop6" />
    <stop
       offset=".78474706"
       stop-color="#6897d9"
       stop-opacity=".996078"
       id="stop8" />
    <stop
       offset=".89468229"
       stop-color="#78a3e1"
       stop-opacity=".996078"
       id="stop10" />
    <stop
       offset="1"
       stop-color="#07265b"
       id="stop12" />
  </linearGradient>
  <linearGradient
     id="b"
     gradientUnits="userSpaceOnUse"
     x1="64.719795"
     x2="70.545692"
     y1="272.79059"
     y2="277.75809">
    <stop
       offset="0"
       stop-color="#262626"
       id="stop15" />
    <stop
       offset=".19744514"
       stop-color="#262626"
       id="stop17" />
    <stop
       offset=".42606577"
       stop-color="#1e1e1e"
       id="stop19" />
    <stop
       offset=".6397509"
       stop-color="#4e4e4e"
       id="stop21" />
    <stop
       offset=".85343605"
       stop-color="#a7a7a7"
       id="stop23" />
    <stop
       offset="1"
       stop-color="#262626"
       id="stop25" />
  </linearGradient>
  <linearGradient
     id="c"
     gradientUnits="userSpaceOnUse"
     x1="56.703594"
     x2="62.300526"
     xlink:href="#a"
     y1="281.46518"
     y2="286.82559" />
  <linearGradient
     id="d"
     gradientUnits="userSpaceOnUse"
     x1="56.045506"
     x2="58.09845"
     y1="285.7522"
     y2="288.1142">
    <stop
       offset="0"
       stop-color="#1f4375"
       stop-opacity=".996078"
       id="stop29" />
    <stop
       offset="1"
       stop-color="#2f63ab"
       stop-opacity=".996078"
       id="stop31" />
  </linearGradient>
  <linearGradient
     id="e"
     gradientUnits="userSpaceOnUse"
     x1="225.25"
     x2="224.72266"
     y1="94.132812"
     y2="92.070312">
    <stop
       offset="0"
       stop-color="#1a3b72"
       id="stop34" />
    <stop
       offset="1"
       stop-color="#1a3b72"
       stop-opacity="0"
       id="stop36" />
  </linearGradient>
  <filter
     id="f"
     color-interpolation-filters="sRGB"
     height="1.208843"
     width="1.109883"
     x="-.054941"
     y="-.104422">
    <feGaussianBlur
       stdDeviation=".48131835"
       id="feGaussianBlur39" />
  </filter>
  <linearGradient
     id="g"
     gradientUnits="userSpaceOnUse"
     x1="52.800537"
     x2="54.721642"
     y1="289.1893"
     y2="291.10693">
    <stop
       offset="0"
       stop-color="#af9a1c"
       id="stop42" />
    <stop
       offset=".375525"
       stop-color="#d8c722"
       id="stop44" />
    <stop
       offset=".89346695"
       stop-color="#e6ec84"
       id="stop46" />
    <stop
       offset="1"
       stop-color="#d8bb22"
       id="stop48" />
  </linearGradient>
  <linearGradient
     id="h"
     gradientUnits="userSpaceOnUse"
     x1="191.87305"
     x2="205.5957"
     y1="105.80078"
     y2="105.80078">
    <stop
       offset="0"
       stop-color="#aea722"
       id="stop51" />
    <stop
       offset="1"
       stop-color="#d1b229"
       id="stop53" />
  </linearGradient>
  <linearGradient
     id="i"
     gradientUnits="userSpaceOnUse"
     x1="244.61024"
     x2="266.62939"
     xlink:href="#a"
     y1="36.499935"
     y2="55.274738" />
  <linearGradient
     id="j"
     gradientUnits="userSpaceOnUse"
     x1="9.167345"
     x2="10.102788"
     y1="264.5401"
     y2="276.23315">
    <stop
       offset="0"
       stop-color="#e2b823"
       id="stop57" />
    <stop
       offset="1"
       stop-color="#e2db47"
       id="stop59" />
  </linearGradient>
  <g
     transform="matrix(.1875 0 0 .1875 0 -49.337498)"
     id="g100">
    <path
       d="m0 263.13333 19.755556-.00001v15.52221l-19.755556.00001z"
       fill="url(#j)"
       id="path62" />
    <path
       d="m-.00000007 288.49362 33.86666707.0397v8.46663l-33.866667-.0397z"
       fill="#f00"
       id="path64" />
    <g
       aria-label="аб"
       style="font-style:normal;font-weight:normal;font-size:15.28518677px;line-height:1.25;font-family:sans-serif;letter-spacing:0px;word-spacing:0px;fill:#000000;fill-opacity:1;stroke:none;stroke-width:0.38212967"
       id="text919">
      <path
         d="m 3.3198521,273.54773 q 0,-0.27513 0.061141,-0.50441 0.061141,-0.24456 0.2139926,-0.44327 0.1528518,-0.21399 0.2904185,-0.38213 0.1375667,-0.16814 0.4127001,-0.33627 0.2751333,-0.18343 0.4585556,-0.29042 0.1834222,-0.12228 0.5502667,-0.27513 0.3821297,-0.16814 0.5808371,-0.24457 0.1987074,-0.0917 0.6266926,-0.25985 0.4279853,-0.16813 0.6266927,-0.24456 v -0.9324 q 0,-1.26867 -1.1616742,-1.26867 -0.4585556,0 -0.7795445,0.22928 -0.3209889,0.21399 -0.3209889,0.5197 0,0.12228 0.03057,0.33627 0.045856,0.21399 0.045856,0.27514 0,0.25984 -0.2139926,0.45855 -0.1987074,0.18342 -0.4738408,0.18342 -0.2598482,0 -0.4585556,-0.1987 -0.1987074,-0.19871 -0.1987074,-0.45856 0,-0.7184 0.7336889,-1.20753 0.7489742,-0.50441 1.8342224,-0.50441 1.2533854,0 1.7272261,0.61141 0.4738408,0.59612 0.4738408,1.83422 v 2.98061 q 0,0.50441 0.091711,0.70312 0.1069963,0.18342 0.3668444,0.18342 0.320989,0 0.6725483,-0.29042 v 0.39742 q -0.3974149,0.44327 -0.7031186,0.61141 -0.2904186,0.15285 -0.6725483,0.15285 -0.4738407,0 -0.7031185,-0.25985 -0.2139927,-0.25985 -0.2751334,-0.85597 -1.3145261,1.11582 -2.2316373,1.11582 -0.7031186,0 -1.1616742,-0.45856 -0.4432704,-0.45855 -0.4432704,-1.17696 z m 3.8212967,-0.39741 v -2.21635 q -1.3756668,0.50441 -1.9259335,0.97825 -0.5502668,0.47384 -0.5502668,1.14639 0,0.62669 0.3057038,0.93239 0.3057037,0.30571 0.657263,0.30571 0.5196964,0 1.1158186,-0.35156 0.244563,-0.13757 0.320989,-0.29042 0.076426,-0.15285 0.076426,-0.50441 z"
         style="font-style:normal;font-variant:normal;font-weight:normal;font-stretch:normal;font-family:FreeSerif;-inkscape-font-specification:FreeSerif;stroke-width:0.38212967"
         id="path945" />
      <path
         d="m 15.418794,271.98864 q 0,-0.55026 -0.106996,-1.11582 -0.106997,-0.58083 -0.35156,-1.14638 -0.229277,-0.58084 -0.687833,-0.9324 -0.44327,-0.36685 -1.039393,-0.36685 -0.901826,0 -1.360381,0.71841 -0.443271,0.7184 -0.443271,1.66608 0,0.58084 0.09171,1.20753 0.106997,0.61141 0.336274,1.26867 0.229278,0.64198 0.672549,1.05468 0.458555,0.4127 1.085248,0.4127 0.672548,0 1.100533,-0.47384 0.427986,-0.47384 0.565552,-1.05468 0.137567,-0.58083 0.137567,-1.2381 z m -5.365101,-1.32981 q 0,-2.44563 1.146389,-3.94358 0.993538,-1.29924 3.546164,-1.86479 0.244563,-0.0611 0.4127,-0.107 0.168137,-0.0611 0.275133,-0.13756 0.106996,-0.0764 0.137567,-0.107 0.04586,-0.0458 0.106996,-0.13756 0.07643,-0.0917 0.09171,-0.12229 h 0.35156 q -0.38213,1.40624 -1.283956,1.77309 -0.198708,0.0764 -1.314526,0.35155 -1.115819,0.27514 -1.864793,0.76426 -1.131104,0.73369 -1.161674,3.02647 l 0.06114,-0.0153 q 0.703118,-2.13993 2.873615,-2.13993 1.467378,0 2.415059,0.97825 0.947682,0.97825 0.947682,2.4762 0,1.58966 -0.978252,2.65962 -0.978252,1.06997 -2.41506,1.06997 -1.528518,0 -2.44563,-1.11582 -0.901826,-1.13111 -0.901826,-3.4086 z"
         style="font-style:normal;font-variant:normal;font-weight:normal;font-stretch:normal;font-family:FreeSerif;-inkscape-font-specification:FreeSerif;stroke-width:0.38212967"
         id="path947" />
    </g>
    <g
       transform="matrix(.95538975 0 0 .95538975 -37.803953 9.919122)"
       id="g92">
      <g
         fill-rule="evenodd"
         id="g86">
        <path
           d="m54.127844 286.96549v.49082l-3.537291 4.16729 3.68813-.0118 2.313845-2.5242z"
           fill="url(#g)"
           id="path66" />
        <path
           d="m55.901417 281.99593 5.821878 5.46667 1.232041-1.22021-5.976866-5.28096z"
           fill="url(#c)"
           id="path68" />
        <path
           d="m70.949595 267.54307 4.263236 3.6543c-.89243 3.23727-8.098601 10.44672-12.257495 15.04502l-5.976866-5.28096c4.612944-4.35152 12.125923-14.2948 13.971125-13.41836z"
           fill="url(#b)"
           id="path70" />
        <path
           d="m55.901417 281.99593c-.76758 3.52722-1.005993 4.06235-1.773573 4.96956l2.464684 2.12204c1.544092-1.17015 3.027982-1.24691 5.130767-1.62493z"
           fill="url(#d)"
           id="path72" />
        <g
           transform="matrix(.26458333 0 0 .26458333 0 263.13332)"
           id="g84">
          <path
             d="m211.28125 71.291016c-2.90109 13.331225-3.80204 15.354378-6.70313 18.783203l1.7168 1.478515c1.34838-1.382434 2.8848-2.993314 3.36133-3.68164.7621-1.100779 5.17069-10.28923 6.24609-12.240235z"
             fill="#16386b"
             id="path74" />
          <path
             d="m231.38281 90.171875c-6.458 2.494116-13.25795 3.478263-18.00781 7.476563l.51758.445312c5.83594-4.422614 11.44504-4.711888 19.39258-6.140625l-.37891-.355469c-.13527-.08747-1.52344-1.425781-1.52344-1.425781z"
             fill="url(#e)"
             id="path76" />
          <g
             fill-opacity=".996078"
             id="g82">
            <path
               d="m227.57031 86.585938-.23633.136718c-.76502.458997-12.0202 7.493444-15.45312 9.638672l1.49414 1.28711c4.74986-3.9983 11.54981-4.982447 18.00781-7.476563 0 0 1.38817 1.338311 1.52344 1.425781z"
               fill="#73a0df"
               filter="url(#f)"
               id="path78" />
            <path
               d="m204.57812 90.074219v1.855469l-.11718.134765c2.43773 2.032389 5.50415 4.592589 8.43359 7.119141l.99805-1.087891z"
               fill="#997337"
               id="path80" />
          </g>
        </g>
      </g>
      <path
         d="m198.875 103.92383a7.3749994 5.4519225 0 0 0 -7.00195 3.7539l13.27539-.043.44726-.48829a7.3749994 5.4519225 0 0 0 -6.7207-3.22265z"
         fill="url(#h)"
         transform="matrix(.26458333 0 0 .26458333 0 263.13332)"
         id="path88" />
      <path
         d="m267.03711 16.464844c-2.00658.08668-5.03028 2.113143-8.68555 5.34375l20.79883 18.335937c2.54824-3.735286 4.39955-7.055726 5.11914-9.666015l-16.11328-13.8125c-.32691-.155275-.70143-.219216-1.11914-.201172z"
         fill="url(#i)"
         fill-rule="evenodd"
         transform="matrix(.26458333 0 0 .26458333 0 263.13332)"
         id="path90" />
    </g>
  </g>
</svg>
