<?xml version="1.0" encoding="UTF-8" standalone="no"?>
<svg
   xmlns:dc="http://purl.org/dc/elements/1.1/"
   xmlns:cc="http://creativecommons.org/ns#"
   xmlns:rdf="http://www.w3.org/1999/02/22-rdf-syntax-ns#"
   xmlns:svg="http://www.w3.org/2000/svg"
   xmlns="http://www.w3.org/2000/svg"
   xmlns:xlink="http://www.w3.org/1999/xlink"
   xmlns:sodipodi="http://sodipodi.sourceforge.net/DTD/sodipodi-0.dtd"
   xmlns:inkscape="http://www.inkscape.org/namespaces/inkscape"
   height="16"
   width="16"
   version="1.1"
   id="svg74"
   sodipodi:docname="sc_pickthrough.svg"
   inkscape:version="0.92.3 (2405546, 2018-03-11)"
   inkscape:export-filename="/home/rizmut/Dokumen/Rizmut/Github/libreoffice-style-karasa-jaga/build/next/cmd/bg/sc_pickthrough.png"
   inkscape:export-xdpi="96"
   inkscape:export-ydpi="96">
  <metadata
     id="metadata80">
    <rdf:RDF>
      <cc:Work
         rdf:about="">
        <dc:format>image/svg+xml</dc:format>
        <dc:type
           rdf:resource="http://purl.org/dc/dcmitype/StillImage" />
      </cc:Work>
    </rdf:RDF>
  </metadata>
  <defs
     id="defs78">
    <linearGradient
       inkscape:collect="always"
       xlink:href="#a"
       id="linearGradient889"
       gradientUnits="userSpaceOnUse"
       x1="12.319189"
       y1="-20.732288"
       x2="12.319189"
       y2="-2.100539" />
  </defs>
  <sodipodi:namedview
     pagecolor="#ffffff"
     bordercolor="#666666"
     borderopacity="1"
     objecttolerance="10"
     gridtolerance="10"
     guidetolerance="10"
     inkscape:pageopacity="0"
     inkscape:pageshadow="2"
     inkscape:window-width="1366"
     inkscape:window-height="714"
     id="namedview76"
     showgrid="true"
     inkscape:zoom="29.5"
     inkscape:cx="10.268986"
     inkscape:cy="6.7000318"
     inkscape:window-x="0"
     inkscape:window-y="28"
     inkscape:window-maximized="1"
     inkscape:current-layer="g72">
    <inkscape:grid
       type="xygrid"
       id="grid887" />
  </sodipodi:namedview>
  <linearGradient
     id="a"
     gradientUnits="userSpaceOnUse"
     x1="12.319189"
     x2="12.319189"
     y1="-20.732288"
     y2="-2.100539">
    <stop
       offset="0"
       stop-color="#06f"
       id="stop2" />
    <stop
       offset="1"
       stop-color="#80b3ff"
       id="stop4" />
  </linearGradient>
  <g
     transform="scale(0.125)"
     id="g72">
    <rect
       height="96"
       rx="0.167734"
       ry="0.18705"
       width="96"
       x="16"
       y="16"
       id="rect7"
       style="fill:#618fd2;fill-opacity:0.09195401" />
    <path
       d="M 56.129654,-111.83981 H 64 v 8 h -7.870346 z"
       transform="rotate(90)"
       id="path9"
       inkscape:connector-curvature="0"
       style="fill:#7193c6" />
    <use
       height="128"
       transform="translate(0,104)"
       width="128"
       xlink:href="#b"
       id="use11"
       x="0"
       y="0" />
    <use
       height="128"
       transform="translate(104,104)"
       width="128"
       xlink:href="#b"
       id="use13"
       x="0"
       y="0" />
    <rect
       id="b"
       height="24"
       rx="0.30958501"
       ry="0.373932"
       transform="scale(1,-1)"
       width="24"
       y="-24"
       style="fill:url(#linearGradient889)"
       x="0" />
    <g
       id="g60"
       style="fill:#7193c6">
      <g
         transform="rotate(90)"
         id="g36">
        <path
           d="M 72.129654,-111.83981 H 80 v 8 h -7.870346 z"
           id="path16"
           inkscape:connector-curvature="0" />
        <path
           d="M 88.129654,-112 H 96 v 8 h -7.870346 z"
           id="path18"
           inkscape:connector-curvature="0" />
        <path
           d="M 104.12965,-88 H 112 v 8 h -7.87035 z"
           id="path20"
           inkscape:connector-curvature="0" />
        <path
           d="M 104.12965,-72 H 112 v 8 h -7.87035 z"
           id="path22"
           inkscape:connector-curvature="0" />
        <path
           d="M 104.12965,-56 H 112 v 8 h -7.87035 z"
           id="path24"
           inkscape:connector-curvature="0" />
        <path
           d="M 104.12965,-40 H 112 v 8 h -7.87035 z"
           id="path26"
           inkscape:connector-curvature="0" />
        <path
           d="m 16,-88 h 7.870346 v 8 H 16 Z"
           id="path28"
           inkscape:connector-curvature="0" />
        <path
           d="m 16,-72 h 7.870346 v 8 H 16 Z"
           id="path30"
           inkscape:connector-curvature="0" />
        <path
           d="m 16,-56 h 7.870346 v 8 H 16 Z"
           id="path32"
           inkscape:connector-curvature="0" />
        <path
           d="m 16,-40 h 7.870346 v 8 H 16 Z"
           id="path34"
           inkscape:connector-curvature="0" />
      </g>
      <g
         transform="rotate(180,67.999995,8)"
         id="g46">
        <path
           d="M 112.12965,-80 H 120 v 8 h -7.87035 z"
           id="path38"
           inkscape:connector-curvature="0" />
        <path
           d="M 112.12965,-64 H 120 v 8 h -7.87035 z"
           id="path40"
           inkscape:connector-curvature="0" />
        <path
           d="M 112.12965,-48 H 120 v 8 h -7.87035 z"
           id="path42"
           inkscape:connector-curvature="0" />
        <path
           d="M 112.12965,-32 H 120 v 8 h -7.87035 z"
           id="path44"
           inkscape:connector-curvature="0" />
      </g>
      <g
         transform="rotate(90)"
         id="g58">
        <path
           d="M 24.129654,-24 H 32 v 8 h -7.870346 z"
           id="path48"
           inkscape:connector-curvature="0" />
        <path
           d="m 24,-112 h 7.870346 v 8 H 24 Z"
           id="path50"
           inkscape:connector-curvature="0" />
        <path
           d="m 40,-112 h 7.870346 v 8 H 40 Z"
           id="path52"
           inkscape:connector-curvature="0" />
        <path
           d="M 16.129654,-104 H 24 v 8 h -7.870346 z"
           id="path54"
           inkscape:connector-curvature="0" />
        <path
           d="M 104.12965,-104 H 112 v 8 h -7.87035 z"
           id="path56"
           inkscape:connector-curvature="0" />
      </g>
    </g>
    <use
       height="128"
       transform="translate(104)"
       width="128"
       xlink:href="#b"
       id="use62"
       x="0"
       y="0" />
    <path
       d="M 6.0351562,3.5 A 0.67286144,0.67286144 0 0 0 5.4160156,3.9101562 L 3.625,8.1347656 C 3.3676131,8.7446606 3.1338372,9.1580017 3.1367188,9.1542969 a 0.67286144,0.67286144 0 0 0 -0.00195,0.00195 c 0.00281,-0.00366 0.069129,-0.024904 0.00586,-0.021484 a 0.67286144,0.67286144 0 0 0 -0.6347656,0.671875 v 0.1640625 a 0.67286144,0.67286144 0 0 0 0.671875,0.6718746 h 1.703125 A 0.67286144,0.67286144 0 0 0 5.5527344,9.9707031 V 9.8066406 A 0.67286144,0.67286144 0 0 0 5.0722656,9.1621094 L 5.2207031,8.7832031 H 6.5703125 L 6.7324219,9.1640625 A 0.67286144,0.67286144 0 0 0 6.2578125,9.8066406 v 0.1640625 a 0.67286144,0.67286144 0 0 0 0.671875,0.6718749 h 1.4082031 0.7851563 1.4863281 c 0.221783,0 0.438586,-0.01299 0.648437,-0.03906 0.246611,-0.02989 0.494082,-0.09183 0.744141,-0.179688 0.263419,-0.09255 0.508274,-0.215556 0.724609,-0.380859 0.24579,-0.1832819 0.439086,-0.4270203 0.580079,-0.7011721 a 0.67286144,0.67286144 0 0 0 0.0039,-0.00781 C 13.46608,9.02291 13.53515,8.6768106 13.53515,8.3261764 c 0,-0.2056506 -0.02053,-0.409356 -0.06836,-0.609375 C 13.411913,7.4816189 13.309946,7.2640022 13.179688,7.0585938 13.03363,6.812373 12.833585,6.6007055 12.599609,6.4375 12.579754,6.4233173 12.55152,6.4215492 12.53125,6.4082031 h 0.07422 A 0.67286144,0.67286144 0 0 0 13.277344,5.7128906 L 13.226562,4.2519531 A 0.67286144,0.67286144 0 0 0 12.554688,3.6035156 H 8.3378906 a 0.67286144,0.67286144 0 0 0 -0.671875,0.671875 V 4.4375 a 0.67286144,0.67286144 0 0 0 0.6132813,0.6699219 c 0.055325,0.00485 0.061069,0.017735 0.097656,0.029297 0.00415,0.056158 0.011719,0.087985 0.011719,0.1699218 V 7.4746094 L 6.8222656,3.9023438 A 0.67286144,0.67286144 0 0 0 6.2070312,3.5 Z m 4.5742188,1.765625 h 0.421875 c 0.41533,0 0.603842,0.1236874 0.515625,0.044922 a 0.67286144,0.67286144 0 0 0 0.01758,0.015625 c -0.07623,-0.063088 0.08533,0.1286894 0.175781,0.5507812 a 0.67286144,0.67286144 0 0 0 0.09961,0.234375 C 11.789256,6.0964552 11.753816,6.0642702 11.701174,6.0507812 11.367599,5.9583802 11.00024,5.9235566 10.609377,5.9179688 Z m 0,2.3789062 c 0.19643,0.029706 0.39656,0.061773 0.464844,0.1269532 a 0.67286144,0.67286144 0 0 0 0.01172,0.011719 c 0.108338,0.098709 0.167968,0.2035976 0.167968,0.4921875 0,0.3207545 -0.06354,0.4185974 -0.175781,0.5097656 -0.06205,0.050402 -0.3049,0.069305 -0.46875,0.1074219 z"
       transform="matrix(8,0,0,8,0,-4)"
       id="path64"
       inkscape:connector-curvature="0"
       style="fill:#80b3ff;stroke-width:0.215104" />
    <g
       id="g70"
       style="stroke-width:1.72083294">
      <path
         d="m 72.984912,74.456106 v 1.307833 H 55.432415 v -1.307833 q 2.753333,-0.06883 3.785832,-0.550667 1.0325,-0.481833 1.0325,-1.789666 0,-1.652 -1.307833,-4.611833 l -2.822166,-6.607998 h -18.03433 l -3.166333,8.053498 q -0.550666,1.4455 -0.550666,2.6845 0,2.822166 4.680665,2.822166 v 1.307833 H 25.421087 v -1.307833 q 2.546833,-0.137667 3.923499,-1.927333 1.4455,-1.8585 4.611833,-9.361332 l 14.31733,-33.79716 h 1.376667 l 17.139497,39.097326 q 1.651999,3.785833 2.753332,4.818332 1.101334,1.0325 3.441667,1.170167 z M 39.256584,58.073776 H 55.157081 L 47.172416,39.144612 Z"
         id="path66"
         inkscape:connector-curvature="0" />
      <path
         d="m 88.246271,32.743114 h -7.227499 q -1.514333,0 -1.514333,2.340332 v 13.560165 h 4.749499 q 4.542999,0 7.984665,0.963666 3.5105,0.894833 5.437833,2.2715 1.996166,1.376666 3.166334,3.372832 1.239,1.927333 1.652,3.717 0.413,1.720833 0.413,3.648166 0,3.166332 -1.239,5.644332 -1.239,2.409166 -3.097501,3.785833 -1.789667,1.376666 -4.336499,2.271499 -2.546833,0.894833 -4.818333,1.170167 -2.202666,0.275333 -4.542999,0.275333 H 66.701441 v -1.307833 q 3.854666,-0.413 4.818333,-1.4455 0.963666,-1.0325 0.963666,-4.749499 V 38.456279 q 0,-4.336499 -0.963666,-5.437832 -0.894833,-1.170167 -4.818333,-1.514333 v -1.307833 h 33.728329 l 0.413,11.701664 h -1.652001 q -1.239,-5.781999 -3.235166,-7.433998 -1.927333,-1.720833 -7.709332,-1.720833 z m -8.741832,38.133659 q 0,1.376667 0.481833,1.8585 0.481833,0.481833 1.8585,0.481833 13.560164,0 13.560164,-11.013331 0,-5.093666 -3.097499,-7.915832 -3.028667,-2.891 -8.879499,-2.891 -1.514333,0 -3.923499,0.2065 z"
         id="path68"
         inkscape:connector-curvature="0" />
    </g>
  </g>
</svg>
