<?xml version="1.0" encoding="UTF-8" standalone="no"?>
<svg
   xmlns:dc="http://purl.org/dc/elements/1.1/"
   xmlns:cc="http://creativecommons.org/ns#"
   xmlns:rdf="http://www.w3.org/1999/02/22-rdf-syntax-ns#"
   xmlns:svg="http://www.w3.org/2000/svg"
   xmlns="http://www.w3.org/2000/svg"
   xmlns:xlink="http://www.w3.org/1999/xlink"
   xmlns:sodipodi="http://sodipodi.sourceforge.net/DTD/sodipodi-0.dtd"
   xmlns:inkscape="http://www.inkscape.org/namespaces/inkscape"
   height="32"
   viewBox="0 0 8.4666665 8.466667"
   width="32"
   version="1.1"
   id="svg20"
   sodipodi:docname="strikeout.svg"
   inkscape:version="0.92.3 (2405546, 2018-03-11)"
   inkscape:export-filename="/home/rizmut/Dokumen/Rizmut/Github/libreoffice-style-karasa-jaga/build/next/cmd/32/bg/strikeout.png"
   inkscape:export-xdpi="96"
   inkscape:export-ydpi="96">
  <metadata
     id="metadata26">
    <rdf:RDF>
      <cc:Work
         rdf:about="">
        <dc:format>image/svg+xml</dc:format>
        <dc:type
           rdf:resource="http://purl.org/dc/dcmitype/StillImage" />
        <dc:title></dc:title>
      </cc:Work>
    </rdf:RDF>
  </metadata>
  <defs
     id="defs24">
    <linearGradient
       id="a-3"
       gradientUnits="userSpaceOnUse"
       x1="74.327759"
       x2="78.138741"
       y1="108.93148"
       y2="21.278833">
      <stop
         offset="0"
         stop-color="#555"
         id="stop2-6" />
      <stop
         offset="1"
         id="stop4-7" />
    </linearGradient>
    <linearGradient
       gradientTransform="matrix(1.7260207,0,0,1.7260207,54.054332,57.924415)"
       inkscape:collect="always"
       xlink:href="#a-3"
       id="linearGradient968"
       x1="3"
       y1="17"
       x2="3"
       y2="-9"
       gradientUnits="userSpaceOnUse" />
    <linearGradient
       inkscape:collect="always"
       xlink:href="#a-3"
       id="linearGradient863"
       gradientUnits="userSpaceOnUse"
       gradientTransform="matrix(0.37236271,0,0,0.37236271,13.854373,14.531838)"
       x1="3"
       y1="17"
       x2="3"
       y2="-9" />
  </defs>
  <sodipodi:namedview
     pagecolor="#ffffff"
     bordercolor="#666666"
     borderopacity="1"
     objecttolerance="10"
     gridtolerance="10"
     guidetolerance="10"
     inkscape:pageopacity="0"
     inkscape:pageshadow="2"
     inkscape:window-width="1366"
     inkscape:window-height="714"
     id="namedview22"
     showgrid="true"
     inkscape:zoom="14.75"
     inkscape:cx="12.777873"
     inkscape:cy="11.189429"
     inkscape:window-x="0"
     inkscape:window-y="28"
     inkscape:window-maximized="1"
     inkscape:current-layer="g18">
    <inkscape:grid
       type="xygrid"
       id="grid833" />
  </sodipodi:namedview>
  <linearGradient
     id="a"
     gradientUnits="userSpaceOnUse"
     x1="15.875"
     x2="15.875"
     y1="2.116668"
     y2="12.700001">
    <stop
       offset="0"
       stop-color="#3b3e22"
       id="stop2" />
    <stop
       offset="1"
       stop-color="#454545"
       stop-opacity="0"
       id="stop4" />
  </linearGradient>
  <linearGradient
     id="b"
     gradientUnits="userSpaceOnUse"
     x1="47.886167"
     x2="47.886167"
     y1="58.765144"
     y2="-61.234852">
    <stop
       offset="0"
       stop-color="#555"
       id="stop7" />
    <stop
       offset="1"
       id="stop9" />
  </linearGradient>
  <g
     transform="matrix(.25 0 0 .25 0 -65.78333)"
     id="g18">
    <path
       d="m60.849609 17.005859c-6.091891 0-11.232398 2.014816-15.767578 6.201172a1.9336364 1.9336364 0 0 1 -.0078.0078c-4.377721 4.034381-6.511719 9.135684-6.511719 15.796875 0 4.946608 1.393366 9.135601 4.222656 12.822265 1.14632 1.49368 2.379586 2.879645 3.697266 4.166016h19.441394c-6.237292-3.629556-10.858003-6.987843-13.896484-10.205065-3.418239-3.619314-5.292969-7.683206-5.292969-11.964844 0-4.282507 1.619896-8.057957 4.703125-10.822266 3.085909-2.76665 7.137531-4.134765 11.794922-4.134765 6.051912 0 11.644869 2.176368 16.513672 6.349609 4.728472 3.978369 8.087088 10.053871 10.402344 17.730469h.05078l-2.671874-25.947266c-.000333.000983-.0075-.000982-.0078 0-.356644 1.05566-.602448 2.198078-1.320312 2.960938-1.104938 1.174148-2.714541 1.800781-4.34961 1.800781-1.017467 0-1.866553-.258054-3.298828-.671875-1.432274-.413783-3.290297-1.024357-5.595703-1.824219-4.410901-1.53033-8.445329-2.265625-12.105469-2.265625z"
       fill="url(#a)"
       transform="matrix(.26458333 0 0 .26458333 0 263.13332)"
       id="path14" />
    <rect
       fill="#0b0b0b"
       height="2.116656"
       rx=".149961"
       ry="0"
       width="29.633333"
       x="2.116667"
       y="279.00833"
       id="rect16" />
    <path
       style="font-style:normal;font-variant:normal;font-weight:normal;font-stretch:normal;font-size:medium;line-height:1.25;font-family:FreeSerif;-inkscape-font-specification:FreeSerif;letter-spacing:0px;word-spacing:0px;fill:url(#linearGradient863);fill-opacity:1;stroke:none;stroke-width:0.37236273"
       d="M 7.0332031 10.822266 L 5.6875 14 L 6.3496094 14 L 6.7949219 12.9375 L 7.2421875 14 L 8.7226562 14 L 7.3300781 10.822266 L 7.0332031 10.822266 z M 12.751953 11.001953 L 12.751953 11.285156 C 13.317944 11.334807 13.663883 11.444475 13.792969 11.613281 C 13.931984 11.772154 14.001953 12.163495 14.001953 12.789062 L 14.001953 14 L 15.521484 14 L 15.521484 12.058594 C 15.521484 11.720981 15.631156 11.552734 15.849609 11.552734 L 17.414062 11.552734 C 18.248155 11.552734 18.804 11.677536 19.082031 11.925781 C 19.369992 12.164093 19.602516 12.699112 19.78125 13.533203 L 20.138672 13.533203 L 20.048828 11.001953 L 12.751953 11.001953 z M 21.333984 11.001953 L 21.333984 11.285156 C 21.959554 11.324879 22.350891 11.423159 22.509766 11.582031 C 22.67857 11.730976 22.763672 12.078871 22.763672 12.625 L 22.763672 14 L 24.28125 14 L 24.28125 12 C 24.28125 11.70211 24.390922 11.552734 24.609375 11.552734 L 25.265625 11.552734 C 26.119577 11.552734 26.769962 11.726679 27.216797 12.074219 C 27.663632 12.421759 27.886719 12.928465 27.886719 13.59375 C 27.886719 13.737472 27.872842 13.872407 27.849609 14 L 29.361328 14 C 29.391611 13.852955 29.40625 13.697741 29.40625 13.533203 C 29.40625 11.845159 28.10548 11.001953 25.503906 11.001953 L 21.333984 11.001953 z M 3.9941406 18 L 3.9355469 18.136719 C 3.4787819 19.219049 3.1460231 19.894009 2.9375 20.162109 C 2.7389066 20.420301 2.4552885 20.558282 2.0878906 20.578125 L 2.0878906 20.861328 L 5.0371094 20.861328 L 5.0371094 20.578125 C 4.3618916 20.578125 4.0234375 20.375868 4.0234375 19.96875 C 4.0234375 19.790016 4.0631407 19.595242 4.1425781 19.386719 L 4.6875 18 L 3.9941406 18 z M 8.8828125 18 L 9.3417969 19.074219 C 9.5304605 19.501192 9.625 19.833954 9.625 20.072266 C 9.625 20.260933 9.5493356 20.389479 9.4003906 20.458984 C 9.2514456 20.528471 8.9792182 20.568172 8.5820312 20.578125 L 8.5820312 20.861328 L 12.378906 20.861328 L 12.378906 20.578125 C 12.041297 20.558264 11.793641 20.475117 11.634766 20.326172 C 11.475891 20.177227 11.277375 19.829339 11.039062 19.283203 L 10.476562 18 L 8.8828125 18 z M 14.001953 18 L 14.001953 19.238281 C 14.001953 19.774489 13.931984 20.11668 13.792969 20.265625 C 13.653953 20.414557 13.308015 20.518534 12.751953 20.578125 L 12.751953 20.861328 L 16.683594 20.861328 C 17.021203 20.861328 17.348266 20.842419 17.666016 20.802734 C 17.993694 20.763012 18.341586 20.677912 18.708984 20.548828 C 19.076382 20.419745 19.388313 20.257189 19.646484 20.058594 C 19.914586 19.859998 20.139626 19.585821 20.318359 19.238281 C 20.497094 18.880814 20.585938 18.47434 20.585938 18.017578 C 20.585937 18.011386 20.584014 18.006177 20.583984 18 L 18.957031 18 C 18.925875 19.537783 17.951863 20.310547 16.027344 20.310547 C 15.82875 20.310547 15.694507 20.276543 15.625 20.207031 C 15.555492 20.137526 15.521484 20.003282 15.521484 19.804688 L 15.521484 18 L 14.001953 18 z M 22.763672 18 L 22.763672 19.238281 C 22.763672 19.794344 22.67857 20.151668 22.509766 20.310547 C 22.340961 20.469438 21.949624 20.558282 21.333984 20.578125 L 21.333984 20.861328 L 26.308594 20.861328 C 26.993741 20.861328 27.583594 20.778181 28.080078 20.609375 C 28.576562 20.430641 28.949024 20.201856 29.197266 19.923828 C 29.455438 19.635866 29.63882 19.348509 29.748047 19.060547 C 29.857273 18.772591 29.912109 18.47953 29.912109 18.181641 C 29.912109 18.117637 29.89706 18.061659 29.892578 18 L 28.179688 18 C 28.18447 18.066744 28.199219 18.124663 28.199219 18.195312 C 28.199219 18.622286 28.119811 18.979616 27.960938 19.267578 C 27.811993 19.55554 27.594602 19.774883 27.306641 19.923828 C 27.01868 20.062833 26.710492 20.161113 26.382812 20.220703 C 26.055134 20.280294 25.667538 20.310547 25.220703 20.310547 C 24.853305 20.310547 24.605648 20.270846 24.476562 20.191406 C 24.347478 20.102039 24.28125 19.939484 24.28125 19.701172 L 24.28125 18 L 22.763672 18 z "
       transform="matrix(1.0583333,0,0,1.0583333,0,263.13332)"
       id="path856" />
  </g>
</svg>
