<?xml version="1.0" encoding="UTF-8" standalone="no"?>
<svg
   xmlns:dc="http://purl.org/dc/elements/1.1/"
   xmlns:cc="http://creativecommons.org/ns#"
   xmlns:rdf="http://www.w3.org/1999/02/22-rdf-syntax-ns#"
   xmlns:svg="http://www.w3.org/2000/svg"
   xmlns="http://www.w3.org/2000/svg"
   xmlns:xlink="http://www.w3.org/1999/xlink"
   xmlns:sodipodi="http://sodipodi.sourceforge.net/DTD/sodipodi-0.dtd"
   xmlns:inkscape="http://www.inkscape.org/namespaces/inkscape"
   height="128"
   viewBox="0 0 33.866666 33.866668"
   width="128"
   version="1.1"
   id="svg20"
   sodipodi:docname="bold.svg"
   inkscape:version="0.92.3 (unknown)"
   inkscape:export-filename="/home/rizmut/Dokumen/Rizmut/Github/libreoffice-style-karasa-jaga/build/images_karasa_jaga/cmd/32/nl/bold.png"
   inkscape:export-xdpi="24"
   inkscape:export-ydpi="24">
  <metadata
     id="metadata26">
    <rdf:RDF>
      <cc:Work
         rdf:about="">
        <dc:format>image/svg+xml</dc:format>
        <dc:type
           rdf:resource="http://purl.org/dc/dcmitype/StillImage" />
        <dc:title></dc:title>
      </cc:Work>
    </rdf:RDF>
  </metadata>
  <defs
     id="defs24">
    <linearGradient
       inkscape:collect="always"
       xlink:href="#b"
       id="linearGradient2229"
       x1="16.617188"
       y1="52.40332"
       x2="99.685547"
       y2="52.40332"
       gradientUnits="userSpaceOnUse"
       gradientTransform="matrix(0.26458334,0,0,0.26458334,1.5372293,-0.25929124)" />
  </defs>
  <sodipodi:namedview
     pagecolor="#ffffff"
     bordercolor="#666666"
     borderopacity="1"
     objecttolerance="10"
     gridtolerance="10"
     guidetolerance="10"
     inkscape:pageopacity="0"
     inkscape:pageshadow="2"
     inkscape:window-width="1366"
     inkscape:window-height="706"
     id="namedview22"
     showgrid="false"
     inkscape:zoom="2.6074563"
     inkscape:cx="51.985296"
     inkscape:cy="50.635479"
     inkscape:window-x="0"
     inkscape:window-y="0"
     inkscape:window-maximized="1"
     inkscape:current-layer="svg20" />
  <linearGradient
     id="a"
     gradientUnits="userSpaceOnUse"
     x1="18.708686"
     x2="19.767019"
     y1="292.76666"
     y2="268.42499"
     gradientTransform="translate(-2.5373543,-263.42964)">
    <stop
       offset="0"
       stop-color="#555"
       id="stop2" />
    <stop
       offset="1"
       id="stop4" />
  </linearGradient>
  <linearGradient
     id="b"
     gradientUnits="userSpaceOnUse"
     x1="44.923828"
     x2="44.566963"
     y1="7.581612"
     y2="97.581612"
     gradientTransform="scale(0.26458333)">
    <stop
       offset="0"
       stop-color="#3b3e22"
       id="stop7" />
    <stop
       offset="1"
       stop-color="#454545"
       stop-opacity="0"
       id="stop9" />
  </linearGradient>
  <text
     id="text14"
     y="29.120043"
     x="3.8761456"
     style="font-size:35.19966888px;font-family:sans-serif;letter-spacing:0;word-spacing:0;fill:url(#a);stroke-width:0.87999201">
    <tspan
       style="font-weight:bold;font-size:37.04166794px;font-family:FreeSerif;fill:url(#a);stroke-width:0.87999201"
       id="tspan12"
       y="29.120043"
       x="3.8761456"
       font-weight="bold"
       font-size="37.041668">V</tspan>
  </text>
  <path
     style="opacity:1;fill:url(#linearGradient2229);fill-opacity:1;stroke:none;stroke-width:0.30000001;stroke-linecap:round;stroke-linejoin:round;stroke-miterlimit:4;stroke-dasharray:none;stroke-dashoffset:0;stroke-opacity:1"
     d="m 5.9338604,4.7662421 c 0.2276424,0.1028348 0.4651938,0.1939512 0.646472,0.3493325 0.521878,0.4473239 0.9128306,1.1459338 1.3983643,2.1936647 a 0.68528596,0.68528596 0 0 1 0.00982,0.01912 L 14.423265,22.386356 a 23.034104,12.176619 0 0 0 2.233455,0.05891 23.034104,12.176619 0 0 0 3.355351,-0.141077 l 5.634282,-14.5050582 0.0021,-0.00362 c 0.459095,-1.1981273 0.86566,-2.0221734 1.42782,-2.5491983 a 0.68528596,0.68528596 0 0 1 0.0155,-0.013436 c 0.22898,-0.2020651 0.521904,-0.3361366 0.820591,-0.4666344 H 24.23817 c 0.09567,0.035626 0.304187,0.027037 0.390674,0.07028 0.639989,0.3199953 0.973067,1.0530843 0.973067,1.7988566 0,0.7208296 -0.283635,1.5914641 -0.787549,2.8768271 L 20.109739,21.697509 a 0.68528596,0.68528596 0 0 1 -1.271757,0.01602 l -5.109249,-12.3656544 -0.0021,-0.00362 v -0.00207 C 13.150017,7.9880263 12.822329,7.1471188 12.822329,6.4126532 c 0,-0.590786 0.302911,-1.1803584 0.791166,-1.5115358 0.130585,-0.088575 0.338928,-0.072617 0.486275,-0.1348753 z"
     id="path2214"
     inkscape:connector-curvature="0" />
</svg>
