<?xml version="1.0" encoding="UTF-8" standalone="no"?>
<svg
   xmlns:dc="http://purl.org/dc/elements/1.1/"
   xmlns:cc="http://creativecommons.org/ns#"
   xmlns:rdf="http://www.w3.org/1999/02/22-rdf-syntax-ns#"
   xmlns:svg="http://www.w3.org/2000/svg"
   xmlns="http://www.w3.org/2000/svg"
   xmlns:xlink="http://www.w3.org/1999/xlink"
   xmlns:sodipodi="http://sodipodi.sourceforge.net/DTD/sodipodi-0.dtd"
   xmlns:inkscape="http://www.inkscape.org/namespaces/inkscape"
   height="128"
   viewBox="0 0 33.866666 33.866668"
   width="128"
   version="1.1"
   id="svg20"
   sodipodi:docname="underline.svg"
   inkscape:version="0.92.3 (unknown)"
   inkscape:export-filename="/home/rizmut/Dokumen/Rizmut/Github/libreoffice-style-karasa-jaga/build/images_karasa_jaga/cmd/32/nl/underline.png"
   inkscape:export-xdpi="24"
   inkscape:export-ydpi="24">
  <metadata
     id="metadata26">
    <rdf:RDF>
      <cc:Work
         rdf:about="">
        <dc:format>image/svg+xml</dc:format>
        <dc:type
           rdf:resource="http://purl.org/dc/dcmitype/StillImage" />
        <dc:title></dc:title>
      </cc:Work>
    </rdf:RDF>
  </metadata>
  <defs
     id="defs24">
    <linearGradient
       inkscape:collect="always"
       xlink:href="#b"
       id="linearGradient2163"
       x1="31.240234"
       y1="37.225586"
       x2="120.28125"
       y2="37.225586"
       gradientUnits="userSpaceOnUse"
       gradientTransform="matrix(0.26458334,0,0,0.26458334,-3.1115,0)" />
  </defs>
  <sodipodi:namedview
     pagecolor="#ffffff"
     bordercolor="#666666"
     borderopacity="1"
     objecttolerance="10"
     gridtolerance="10"
     guidetolerance="10"
     inkscape:pageopacity="0"
     inkscape:pageshadow="2"
     inkscape:window-width="1366"
     inkscape:window-height="706"
     id="namedview22"
     showgrid="false"
     inkscape:zoom="1.84375"
     inkscape:cx="0.68367694"
     inkscape:cy="51.346233"
     inkscape:window-x="0"
     inkscape:window-y="0"
     inkscape:window-maximized="1"
     inkscape:current-layer="svg20" />
  <linearGradient
     id="a"
     gradientUnits="userSpaceOnUse"
     x1="18.708686"
     x2="19.767019"
     y1="292.76666"
     y2="268.42499"
     gradientTransform="matrix(0.96976693,0,0,0.96976693,-2.8018989,-256.77543)">
    <stop
       offset="0"
       stop-color="#555"
       id="stop2" />
    <stop
       offset="1"
       id="stop4" />
  </linearGradient>
  <linearGradient
     id="b"
     gradientUnits="userSpaceOnUse"
     x1="44.923828"
     x2="44.566963"
     y1="7.581612"
     y2="97.581612"
     gradientTransform="scale(0.26458333)">
    <stop
       offset="0"
       stop-color="#3b3e22"
       id="stop7" />
    <stop
       offset="1"
       stop-color="#454545"
       stop-opacity="0"
       id="stop9" />
  </linearGradient>
  <text
     id="text14"
     y="26.929594"
     x="3.4177012"
     style="font-size:34.13547516px;font-family:sans-serif;letter-spacing:0;word-spacing:0;fill:url(#a);stroke-width:0.85338718"
     transform="scale(1.0311756,0.96976693)">
    <tspan
       style="font-style:normal;font-variant:normal;font-weight:normal;font-stretch:normal;font-size:35.92178345px;font-family:FreeSerif;-inkscape-font-specification:FreeSerif;fill:url(#a);stroke-width:0.85338718"
       id="tspan12"
       y="26.929594"
       x="3.4177012"
       font-weight="bold"
       font-size="37.041668">O</tspan>
  </text>
  <rect
     style="fill:#0e0e0e;stroke-width:1"
     id="rect13"
     y="28.574993"
     x="3.175"
     width="27.516666"
     ry="0.92470002"
     rx="0.47207496"
     height="2.1166739" />
  <path
     style="opacity:1;fill:url(#linearGradient2163);fill-opacity:1;stroke:none;stroke-width:0.30000001;stroke-linecap:round;stroke-linejoin:round;stroke-miterlimit:4;stroke-dasharray:none;stroke-dashoffset:0;stroke-opacity:1"
     d="m 16.933789,2.878894 c -3.456162,0 -6.249804,1.0884353 -8.4625331,3.2824871 -2.2126427,2.193966 -3.3171104,4.9799309 -3.3171104,8.4232589 0,0.664841 0.04044,1.303972 0.120406,1.918746 a 30.350847,14.493785 0 0 0 3.5801433,0.316259 c -0.092281,-0.713671 -0.144177,-1.434695 -0.144177,-2.165242 0,-0.9649 0.062251,-1.906271 0.1875854,-2.825667 a 0.33238163,0.31258762 0 0 1 0.00207,-0.0057 C 9.051752,10.872684 9.3148532,9.888855 9.6913365,8.873877 10.070277,7.8522718 10.540696,6.9642306 11.105204,6.2161583 a 0.33238163,0.31258762 0 0 1 0.0021,0 c 0.599721,-0.7847044 1.407916,-1.4323947 2.409155,-1.9394168 1.0144,-0.513687 2.159942,-0.7689451 3.417363,-0.7689453 0.746615,0 1.471462,0.097497 2.169376,0.2919719 0.738485,0.1990686 1.477266,0.5685042 2.217436,1.0965739 0.750964,0.5357696 1.395456,1.2151754 1.933216,2.0339844 0.569518,0.8292838 1.022392,1.9025664 1.373558,3.2235756 0.353883,1.331236 0.527616,2.842349 0.527616,4.534607 0,0.301418 -0.0085,0.602298 -0.0248,0.902271 a 30.350847,14.493785 0 0 0 3.582728,-0.915706 c -0.01035,-3.537921 -1.114753,-6.3554808 -3.31401,-8.5136929 a 0.33238163,0.31258762 0 0 1 -0.0021,-0.00207 C 23.209488,3.9665916 20.415166,2.878894 16.933789,2.878894 Z"
     id="path2148"
     inkscape:connector-curvature="0" />
</svg>
