<?xml version="1.0" encoding="UTF-8" standalone="no"?>
<!-- Created with Inkscape (http://www.inkscape.org/) -->

<svg
   xmlns:dc="http://purl.org/dc/elements/1.1/"
   xmlns:cc="http://creativecommons.org/ns#"
   xmlns:rdf="http://www.w3.org/1999/02/22-rdf-syntax-ns#"
   xmlns:svg="http://www.w3.org/2000/svg"
   xmlns="http://www.w3.org/2000/svg"
   xmlns:xlink="http://www.w3.org/1999/xlink"
   xmlns:sodipodi="http://sodipodi.sourceforge.net/DTD/sodipodi-0.dtd"
   xmlns:inkscape="http://www.inkscape.org/namespaces/inkscape"
   width="108"
   height="43"
   viewBox="0 0 28.574999 11.377084"
   version="1.1"
   id="svg8"
   sodipodi:docname="collate.svg"
   inkscape:export-filename="/home/rizmut/Dokumen/Rizmut/Github/libreoffice-style-karasa-jaga/build/images_karasa_jaga/vcl/res/collate.png"
   inkscape:export-xdpi="96"
   inkscape:export-ydpi="96"
   inkscape:version="0.92.4 (unknown)">
  <defs
     id="defs2">
    <filter
       id="f">
      <feGaussianBlur
         stdDeviation="1.0394514"
         id="feGaussianBlur3155" />
    </filter>
    <filter
       id="filter2701">
      <feGaussianBlur
         stdDeviation="1.0394514"
         id="feGaussianBlur2699" />
    </filter>
    <filter
       id="g">
      <feGaussianBlur
         stdDeviation=".50063244"
         id="feGaussianBlur3158" />
    </filter>
    <filter
       id="filter2707">
      <feGaussianBlur
         stdDeviation="1.0394514"
         id="feGaussianBlur2705" />
    </filter>
    <radialGradient
       id="e"
       cx="100.80984"
       cy="112.93461"
       gradientUnits="userSpaceOnUse"
       r="135.18756">
      <stop
         offset="0"
         stop-color="#3e3e3e"
         id="stop3140" />
      <stop
         offset=".0151"
         stop-color="#505050"
         id="stop3142" />
      <stop
         offset=".0558"
         stop-color="#7e7e7e"
         id="stop3144" />
      <stop
         offset=".1357"
         stop-color="#c6c6c6"
         id="stop3146" />
      <stop
         offset=".20990001"
         stop-color="#f1f1f1"
         id="stop3148" />
      <stop
         offset=".24349999"
         stop-color="#fcfcfc"
         id="stop3150" />
      <stop
         offset=".2722"
         stop-color="#fff"
         id="stop3152" />
    </radialGradient>
    <radialGradient
       id="d"
       cx="102"
       cy="112.3047"
       gradientTransform="matrix(0.94807,0,0,0.9510679,3.32352,5.274458)"
       gradientUnits="userSpaceOnUse"
       r="139.55859">
      <stop
         offset="0"
         stop-color="#535557"
         id="stop3123" />
      <stop
         offset=".11366145"
         stop-color="#898a8c"
         id="stop3125" />
      <stop
         offset=".20296688"
         stop-color="#ececec"
         id="stop3127" />
      <stop
         offset=".2363"
         stop-color="#fafafa"
         id="stop3129" />
      <stop
         offset=".2722"
         stop-color="#fff"
         id="stop3131" />
      <stop
         offset=".5313"
         stop-color="#fafafa"
         id="stop3133" />
      <stop
         offset=".8449"
         stop-color="#ebecec"
         id="stop3135" />
      <stop
         offset="1"
         stop-color="#e1e2e3"
         id="stop3137" />
    </radialGradient>
    <linearGradient
       id="a"
       gradientUnits="userSpaceOnUse"
       x1="88.591797"
       x2="71.262016"
       y1="96.592697"
       y2="79.262917">
      <stop
         offset="0"
         stop-color="#fff"
         id="stop3094" />
      <stop
         offset="1"
         stop-color="#555753"
         id="stop3096" />
    </linearGradient>
    <filter
       id="h">
      <feGaussianBlur
         stdDeviation=".40750996"
         id="feGaussianBlur3161" />
    </filter>
    <filter
       id="j">
      <feGaussianBlur
         stdDeviation=".90565481"
         id="feGaussianBlur3167" />
    </filter>
    <linearGradient
       id="b"
       gradientUnits="userSpaceOnUse"
       x1="85.219681"
       x2="61.336319"
       y1="93.219681"
       y2="69.336319">
      <stop
         offset="0"
         id="stop3099" />
      <stop
         offset="1"
         stop-color="#393b38"
         id="stop3101" />
    </linearGradient>
    <filter
       id="i">
      <feGaussianBlur
         stdDeviation=".4901192"
         id="feGaussianBlur3164" />
    </filter>
    <linearGradient
       id="c"
       gradientUnits="userSpaceOnUse"
       x1="96"
       x2="88.000198"
       y1="104"
       y2="96.000198">
      <stop
         offset="0"
         stop-color="#888a85"
         id="stop3104" />
      <stop
         offset=".0072"
         stop-color="#8c8e89"
         id="stop3106" />
      <stop
         offset=".0673"
         stop-color="#abaca9"
         id="stop3108" />
      <stop
         offset=".1347"
         stop-color="#c5c6c4"
         id="stop3110" />
      <stop
         offset=".2115"
         stop-color="#dbdbda"
         id="stop3112" />
      <stop
         offset=".3012"
         stop-color="#ebebeb"
         id="stop3114" />
      <stop
         offset=".4122"
         stop-color="#f7f7f6"
         id="stop3116" />
      <stop
         offset=".5679"
         stop-color="#fdfdfd"
         id="stop3118" />
      <stop
         offset="1"
         stop-color="#fff"
         id="stop3120" />
    </linearGradient>
    <radialGradient
       inkscape:collect="always"
       xlink:href="#e"
       id="radialGradient993"
       gradientUnits="userSpaceOnUse"
       cx="100.80984"
       cy="112.93461"
       r="135.18756" />
    <radialGradient
       inkscape:collect="always"
       xlink:href="#d"
       id="radialGradient995"
       gradientUnits="userSpaceOnUse"
       gradientTransform="matrix(0.94807,0,0,0.9510679,3.32352,5.274458)"
       cx="102"
       cy="112.3047"
       r="139.55859" />
    <linearGradient
       inkscape:collect="always"
       xlink:href="#a"
       id="linearGradient997"
       gradientUnits="userSpaceOnUse"
       x1="88.591797"
       y1="96.592697"
       x2="71.262016"
       y2="79.262917" />
    <linearGradient
       inkscape:collect="always"
       xlink:href="#b"
       id="linearGradient999"
       gradientUnits="userSpaceOnUse"
       x1="85.219681"
       y1="93.219681"
       x2="61.336319"
       y2="69.336319" />
    <linearGradient
       inkscape:collect="always"
       xlink:href="#c"
       id="linearGradient1001"
       gradientUnits="userSpaceOnUse"
       x1="96"
       y1="104"
       x2="88.000198"
       y2="96.000198" />
    <radialGradient
       inkscape:collect="always"
       xlink:href="#e"
       id="radialGradient1035"
       gradientUnits="userSpaceOnUse"
       cx="100.80984"
       cy="112.93461"
       r="135.18756" />
    <radialGradient
       inkscape:collect="always"
       xlink:href="#d"
       id="radialGradient1037"
       gradientUnits="userSpaceOnUse"
       gradientTransform="matrix(0.94807,0,0,0.9510679,3.32352,5.274458)"
       cx="102"
       cy="112.3047"
       r="139.55859" />
    <linearGradient
       inkscape:collect="always"
       xlink:href="#a"
       id="linearGradient1039"
       gradientUnits="userSpaceOnUse"
       x1="88.591797"
       y1="96.592697"
       x2="71.262016"
       y2="79.262917" />
    <linearGradient
       inkscape:collect="always"
       xlink:href="#b"
       id="linearGradient1041"
       gradientUnits="userSpaceOnUse"
       x1="85.219681"
       y1="93.219681"
       x2="61.336319"
       y2="69.336319" />
    <linearGradient
       inkscape:collect="always"
       xlink:href="#c"
       id="linearGradient1043"
       gradientUnits="userSpaceOnUse"
       x1="96"
       y1="104"
       x2="88.000198"
       y2="96.000198" />
    <radialGradient
       inkscape:collect="always"
       xlink:href="#e"
       id="radialGradient1077"
       gradientUnits="userSpaceOnUse"
       cx="100.80984"
       cy="112.93461"
       r="135.18756" />
    <radialGradient
       inkscape:collect="always"
       xlink:href="#d"
       id="radialGradient1079"
       gradientUnits="userSpaceOnUse"
       gradientTransform="matrix(0.94807,0,0,0.9510679,3.32352,5.274458)"
       cx="102"
       cy="112.3047"
       r="139.55859" />
    <linearGradient
       inkscape:collect="always"
       xlink:href="#a"
       id="linearGradient1081"
       gradientUnits="userSpaceOnUse"
       x1="88.591797"
       y1="96.592697"
       x2="71.262016"
       y2="79.262917" />
    <linearGradient
       inkscape:collect="always"
       xlink:href="#b"
       id="linearGradient1083"
       gradientUnits="userSpaceOnUse"
       x1="85.219681"
       y1="93.219681"
       x2="61.336319"
       y2="69.336319" />
    <linearGradient
       inkscape:collect="always"
       xlink:href="#c"
       id="linearGradient1085"
       gradientUnits="userSpaceOnUse"
       x1="96"
       y1="104"
       x2="88.000198"
       y2="96.000198" />
    <radialGradient
       inkscape:collect="always"
       xlink:href="#e"
       id="radialGradient1185"
       gradientUnits="userSpaceOnUse"
       cx="100.80984"
       cy="112.93461"
       r="135.18756" />
    <radialGradient
       inkscape:collect="always"
       xlink:href="#d"
       id="radialGradient1187"
       gradientUnits="userSpaceOnUse"
       gradientTransform="matrix(0.94807,0,0,0.9510679,3.32352,5.274458)"
       cx="102"
       cy="112.3047"
       r="139.55859" />
    <linearGradient
       inkscape:collect="always"
       xlink:href="#a"
       id="linearGradient1189"
       gradientUnits="userSpaceOnUse"
       x1="88.591797"
       y1="96.592697"
       x2="71.262016"
       y2="79.262917" />
    <linearGradient
       inkscape:collect="always"
       xlink:href="#b"
       id="linearGradient1191"
       gradientUnits="userSpaceOnUse"
       x1="85.219681"
       y1="93.219681"
       x2="61.336319"
       y2="69.336319" />
    <linearGradient
       inkscape:collect="always"
       xlink:href="#c"
       id="linearGradient1193"
       gradientUnits="userSpaceOnUse"
       x1="96"
       y1="104"
       x2="88.000198"
       y2="96.000198" />
    <radialGradient
       inkscape:collect="always"
       xlink:href="#e"
       id="radialGradient1195"
       gradientUnits="userSpaceOnUse"
       cx="100.80984"
       cy="112.93461"
       r="135.18756" />
    <radialGradient
       inkscape:collect="always"
       xlink:href="#d"
       id="radialGradient1197"
       gradientUnits="userSpaceOnUse"
       gradientTransform="matrix(0.94807,0,0,0.9510679,3.32352,5.274458)"
       cx="102"
       cy="112.3047"
       r="139.55859" />
    <linearGradient
       inkscape:collect="always"
       xlink:href="#a"
       id="linearGradient1199"
       gradientUnits="userSpaceOnUse"
       x1="88.591797"
       y1="96.592697"
       x2="71.262016"
       y2="79.262917" />
    <linearGradient
       inkscape:collect="always"
       xlink:href="#b"
       id="linearGradient1201"
       gradientUnits="userSpaceOnUse"
       x1="85.219681"
       y1="93.219681"
       x2="61.336319"
       y2="69.336319" />
    <linearGradient
       inkscape:collect="always"
       xlink:href="#c"
       id="linearGradient1203"
       gradientUnits="userSpaceOnUse"
       x1="96"
       y1="104"
       x2="88.000198"
       y2="96.000198" />
    <radialGradient
       inkscape:collect="always"
       xlink:href="#e"
       id="radialGradient1205"
       gradientUnits="userSpaceOnUse"
       cx="100.80984"
       cy="112.93461"
       r="135.18756" />
    <radialGradient
       inkscape:collect="always"
       xlink:href="#d"
       id="radialGradient1207"
       gradientUnits="userSpaceOnUse"
       gradientTransform="matrix(0.94807,0,0,0.9510679,3.32352,5.274458)"
       cx="102"
       cy="112.3047"
       r="139.55859" />
    <linearGradient
       inkscape:collect="always"
       xlink:href="#a"
       id="linearGradient1209"
       gradientUnits="userSpaceOnUse"
       x1="88.591797"
       y1="96.592697"
       x2="71.262016"
       y2="79.262917" />
    <linearGradient
       inkscape:collect="always"
       xlink:href="#b"
       id="linearGradient1211"
       gradientUnits="userSpaceOnUse"
       x1="85.219681"
       y1="93.219681"
       x2="61.336319"
       y2="69.336319" />
    <linearGradient
       inkscape:collect="always"
       xlink:href="#c"
       id="linearGradient1213"
       gradientUnits="userSpaceOnUse"
       x1="96"
       y1="104"
       x2="88.000198"
       y2="96.000198" />
  </defs>
  <sodipodi:namedview
     id="base"
     pagecolor="#ffffff"
     bordercolor="#666666"
     borderopacity="1.0"
     inkscape:pageopacity="0.0"
     inkscape:pageshadow="2"
     inkscape:zoom="11.313708"
     inkscape:cx="59.530588"
     inkscape:cy="28.714048"
     inkscape:document-units="mm"
     inkscape:current-layer="layer1"
     showgrid="true"
     units="px"
     inkscape:snap-global="true"
     inkscape:window-width="1366"
     inkscape:window-height="714"
     inkscape:window-x="0"
     inkscape:window-y="28"
     inkscape:window-maximized="1">
    <inkscape:grid
       type="xygrid"
       id="grid837" />
  </sodipodi:namedview>
  <metadata
     id="metadata5">
    <rdf:RDF>
      <cc:Work
         rdf:about="">
        <dc:format>image/svg+xml</dc:format>
        <dc:type
           rdf:resource="http://purl.org/dc/dcmitype/StillImage" />
        <dc:title></dc:title>
      </cc:Work>
    </rdf:RDF>
  </metadata>
  <g
     inkscape:label="Layer 1"
     inkscape:groupmode="layer"
     id="layer1"
     transform="translate(0,-285.6229)">
    <g
       id="g1183"
       transform="translate(13.229166)">
      <g
         transform="translate(4.7364281,-3.3331951)"
         id="g1117">
        <g
           id="g1111"
           transform="matrix(0.04859785,0,0,0.04859785,1.8219797,289.71343)">
          <g
             id="g1099">
            <path
               sodipodi:nodetypes="ccsssscc"
               id="path1087"
               transform="matrix(1.0090419,0,0,1.003276,-7.641977,0.929762)"
               d="M 23,8.9687825 23.02654,121.33486 h 60.600209 c 0.53,0 1.039,-0.211 1.414,-0.586 L 117.86875,87.920859 c 0.375,-0.375 0.59066,-0.884021 0.586,-1.414 l 0.0143,-77.5380769 z"
               inkscape:connector-curvature="0"
               style="opacity:0.55342503;filter:url(#f)" />
            <path
               sodipodi:nodetypes="ccsssscc"
               id="path1089"
               transform="matrix(1.0090419,0,0,1.003276,-7.641977,0.929762)"
               d="m 23,9 0.02655,112.33486 h 60.600205 c 0.53,0 1.039,-0.211 1.414,-0.586 L 117.86875,87.920859 c 0.375,-0.375 0.58591,-0.884 0.586,-1.414 l 0.0143,-77.5068594 z"
               inkscape:connector-curvature="0"
               style="opacity:0.30684904;filter:url(#f)" />
            <path
               sodipodi:nodetypes="cccccccc"
               id="path1091"
               transform="matrix(1.0090419,0,0,1.003276,-7.641977,0.929762)"
               d="m 24.905735,10.673272 -1.1e-5,108.531308 58.145026,-1e-4 c 0.53,0 1.039,-0.211 1.414,-0.586 l 31.484,-31.765934 c 0.375,-0.375 0.586,-0.884 0.586,-1.414 l 0.0955,-74.765274 z"
               inkscape:connector-curvature="0"
               style="opacity:0.89589;filter:url(#g)" />
            <path
               sodipodi:nodetypes="ccsssscc"
               id="path1093"
               transform="matrix(1.0090419,0,0,1.003276,-7.641977,0.929762)"
               d="M 23,9.9655172 23.02654,121.33486 h 60.600209 c 0.53,0 1.039,-0.211 1.414,-0.586 L 117.86875,87.920859 c 0.375,-0.375 0.5859,-0.884 0.586,-1.414 l 0.0143,-76.5413422 z"
               inkscape:connector-curvature="0"
               style="opacity:0.30684904;filter:url(#f)" />
            <path
               sodipodi:nodetypes="ccsccccc"
               id="path1095"
               d="m 17.488953,11.638 v 108.88685 h 58.720329 c 0.513401,0 1.006458,-0.20439 1.369714,-0.56765 L 109.37882,88.157367 c 0.36326,-0.363255 0.56764,-0.856313 0.56764,-1.369714 L 110.04277,11.638 Z"
               inkscape:connector-curvature="0"
               style="fill:url(#radialGradient1185)" />
            <path
               sodipodi:nodetypes="cccsscccccc"
               id="path1097"
               d="m 24.066856,17.512144 c -0.522387,0 -0.94807,0.42703 -0.94807,0.951069 l 0.307523,95.073207 c 0,0.525 0.425684,0.95108 0.94807,0.95108 h 51.563422 c 0.249342,0 0.493944,-0.10082 0.670284,-0.27867 L 104.73132,86.987169 c 0.17729,-0.17785 0.27778,-0.422273 0.27778,-0.672405 l -0.6856,-67.829628 c 0,-0.524039 -0.42473,-0.951068 -0.94806,-0.951068 z"
               inkscape:connector-curvature="0"
               style="fill:url(#radialGradient1187)" />
          </g>
          <g
             transform="matrix(1.1080161,0,0,1.1080161,-12.744784,-10.01667)"
             id="g1109">
            <path
               d="M 111.414,86.586 C 111.664,86.336 85.035,85 80,85 c -1.654,0 -3,1.346 -3,3 0,5.035 1.336,31.664 1.586,31.414 z"
               id="path1101"
               inkscape:connector-curvature="0"
               style="opacity:0.75068497;fill:url(#linearGradient1189);filter:url(#h)" />
            <path
               d="M 111.414,86.586 C 111.789,86.211 89.444,86 80,86 c -1.103,0 -2,0.897 -2,2 0,9.444 0.211,31.789 0.586,31.414 z"
               id="path1103"
               inkscape:connector-curvature="0"
               style="opacity:0.2;filter:url(#j)" />
            <path
               d="M 111.414,86.586 C 111.653,86.347 89.807,87 80,87 c -0.553,0 -1,0.447 -1,1 0,9.807 -0.653,31.653 -0.414,31.414 z"
               id="path1105"
               inkscape:connector-curvature="0"
               style="opacity:0.1;fill:url(#linearGradient1191);filter:url(#i)" />
            <path
               d="M 79.721619,119.31106 111.22712,87.805556 H 79.721619 Z"
               id="path1107"
               inkscape:connector-curvature="0"
               style="fill:url(#linearGradient1193)" />
          </g>
        </g>
        <text
           id="text1115"
           y="292.83725"
           x="5.6200738"
           style="font-style:normal;font-weight:normal;font-size:2.75845456px;line-height:125%;font-family:sans-serif;letter-spacing:0px;word-spacing:0px;fill:#0066ff;fill-opacity:1;stroke:none;stroke-width:0.06896137px;stroke-linecap:butt;stroke-linejoin:miter;stroke-opacity:1"
           xml:space="preserve"><tspan
             style="font-style:normal;font-variant:normal;font-weight:normal;font-stretch:normal;font-size:1.97555566px;font-family:FreeSans;-inkscape-font-specification:FreeSans;fill:#0066ff;stroke-width:0.06896137px"
             y="292.83725"
             x="5.6200738"
             id="tspan1113"
             sodipodi:role="line">3</tspan></text>
      </g>
      <g
         id="g1149"
         transform="translate(2.3551781,-1.7456951)">
        <g
           transform="matrix(0.04859785,0,0,0.04859785,1.8219797,289.71343)"
           id="g1143">
          <g
             id="g1131">
            <path
               style="opacity:0.55342503;filter:url(#f)"
               inkscape:connector-curvature="0"
               d="M 23,8.9687825 23.02654,121.33486 h 60.600209 c 0.53,0 1.039,-0.211 1.414,-0.586 L 117.86875,87.920859 c 0.375,-0.375 0.59066,-0.884021 0.586,-1.414 l 0.0143,-77.5380769 z"
               transform="matrix(1.0090419,0,0,1.003276,-7.641977,0.929762)"
               id="path1119"
               sodipodi:nodetypes="ccsssscc" />
            <path
               style="opacity:0.30684904;filter:url(#f)"
               inkscape:connector-curvature="0"
               d="m 23,9 0.02655,112.33486 h 60.600205 c 0.53,0 1.039,-0.211 1.414,-0.586 L 117.86875,87.920859 c 0.375,-0.375 0.58591,-0.884 0.586,-1.414 l 0.0143,-77.5068594 z"
               transform="matrix(1.0090419,0,0,1.003276,-7.641977,0.929762)"
               id="path1121"
               sodipodi:nodetypes="ccsssscc" />
            <path
               style="opacity:0.89589;filter:url(#g)"
               inkscape:connector-curvature="0"
               d="m 24.905735,10.673272 -1.1e-5,108.531308 58.145026,-1e-4 c 0.53,0 1.039,-0.211 1.414,-0.586 l 31.484,-31.765934 c 0.375,-0.375 0.586,-0.884 0.586,-1.414 l 0.0955,-74.765274 z"
               transform="matrix(1.0090419,0,0,1.003276,-7.641977,0.929762)"
               id="path1123"
               sodipodi:nodetypes="cccccccc" />
            <path
               style="opacity:0.30684904;filter:url(#f)"
               inkscape:connector-curvature="0"
               d="M 23,9.9655172 23.02654,121.33486 h 60.600209 c 0.53,0 1.039,-0.211 1.414,-0.586 L 117.86875,87.920859 c 0.375,-0.375 0.5859,-0.884 0.586,-1.414 l 0.0143,-76.5413422 z"
               transform="matrix(1.0090419,0,0,1.003276,-7.641977,0.929762)"
               id="path1125"
               sodipodi:nodetypes="ccsssscc" />
            <path
               style="fill:url(#radialGradient1195)"
               inkscape:connector-curvature="0"
               d="m 17.488953,11.638 v 108.88685 h 58.720329 c 0.513401,0 1.006458,-0.20439 1.369714,-0.56765 L 109.37882,88.157367 c 0.36326,-0.363255 0.56764,-0.856313 0.56764,-1.369714 L 110.04277,11.638 Z"
               id="path1127"
               sodipodi:nodetypes="ccsccccc" />
            <path
               style="fill:url(#radialGradient1197)"
               inkscape:connector-curvature="0"
               d="m 24.066856,17.512144 c -0.522387,0 -0.94807,0.42703 -0.94807,0.951069 l 0.307523,95.073207 c 0,0.525 0.425684,0.95108 0.94807,0.95108 h 51.563422 c 0.249342,0 0.493944,-0.10082 0.670284,-0.27867 L 104.73132,86.987169 c 0.17729,-0.17785 0.27778,-0.422273 0.27778,-0.672405 l -0.6856,-67.829628 c 0,-0.524039 -0.42473,-0.951068 -0.94806,-0.951068 z"
               id="path1129"
               sodipodi:nodetypes="cccsscccccc" />
          </g>
          <g
             id="g1141"
             transform="matrix(1.1080161,0,0,1.1080161,-12.744784,-10.01667)">
            <path
               style="opacity:0.75068497;fill:url(#linearGradient1199);filter:url(#h)"
               inkscape:connector-curvature="0"
               id="path1133"
               d="M 111.414,86.586 C 111.664,86.336 85.035,85 80,85 c -1.654,0 -3,1.346 -3,3 0,5.035 1.336,31.664 1.586,31.414 z" />
            <path
               style="opacity:0.2;filter:url(#j)"
               inkscape:connector-curvature="0"
               id="path1135"
               d="M 111.414,86.586 C 111.789,86.211 89.444,86 80,86 c -1.103,0 -2,0.897 -2,2 0,9.444 0.211,31.789 0.586,31.414 z" />
            <path
               style="opacity:0.1;fill:url(#linearGradient1201);filter:url(#i)"
               inkscape:connector-curvature="0"
               id="path1137"
               d="M 111.414,86.586 C 111.653,86.347 89.807,87 80,87 c -0.553,0 -1,0.447 -1,1 0,9.807 -0.653,31.653 -0.414,31.414 z" />
            <path
               style="fill:url(#linearGradient1203)"
               inkscape:connector-curvature="0"
               id="path1139"
               d="M 79.721619,119.31106 111.22712,87.805556 H 79.721619 Z" />
          </g>
        </g>
        <text
           xml:space="preserve"
           style="font-style:normal;font-weight:normal;font-size:2.75845456px;line-height:125%;font-family:sans-serif;letter-spacing:0px;word-spacing:0px;fill:#0066ff;fill-opacity:1;stroke:none;stroke-width:0.06896137px;stroke-linecap:butt;stroke-linejoin:miter;stroke-opacity:1"
           x="5.6200738"
           y="292.83725"
           id="text1147"><tspan
             sodipodi:role="line"
             id="tspan1145"
             x="5.6200738"
             y="292.83725"
             style="font-style:normal;font-variant:normal;font-weight:normal;font-stretch:normal;font-size:1.97555566px;font-family:FreeSans;-inkscape-font-specification:FreeSans;fill:#0066ff;stroke-width:0.06896137px">2</tspan></text>
      </g>
      <g
         transform="translate(-0.02607189,0.10638824)"
         id="g1181">
        <g
           id="g1175"
           transform="matrix(0.04859785,0,0,0.04859785,1.8219797,289.71343)">
          <g
             id="g1163">
            <path
               sodipodi:nodetypes="ccsssscc"
               id="path1151"
               transform="matrix(1.0090419,0,0,1.003276,-7.641977,0.929762)"
               d="M 23,8.9687825 23.02654,121.33486 h 60.600209 c 0.53,0 1.039,-0.211 1.414,-0.586 L 117.86875,87.920859 c 0.375,-0.375 0.59066,-0.884021 0.586,-1.414 l 0.0143,-77.5380769 z"
               inkscape:connector-curvature="0"
               style="opacity:0.55342503;filter:url(#f)" />
            <path
               sodipodi:nodetypes="ccsssscc"
               id="path1153"
               transform="matrix(1.0090419,0,0,1.003276,-7.641977,0.929762)"
               d="m 23,9 0.02655,112.33486 h 60.600205 c 0.53,0 1.039,-0.211 1.414,-0.586 L 117.86875,87.920859 c 0.375,-0.375 0.58591,-0.884 0.586,-1.414 l 0.0143,-77.5068594 z"
               inkscape:connector-curvature="0"
               style="opacity:0.30684904;filter:url(#f)" />
            <path
               sodipodi:nodetypes="cccccccc"
               id="path1155"
               transform="matrix(1.0090419,0,0,1.003276,-7.641977,0.929762)"
               d="m 24.905735,10.673272 -1.1e-5,108.531308 58.145026,-1e-4 c 0.53,0 1.039,-0.211 1.414,-0.586 l 31.484,-31.765934 c 0.375,-0.375 0.586,-0.884 0.586,-1.414 l 0.0955,-74.765274 z"
               inkscape:connector-curvature="0"
               style="opacity:0.89589;filter:url(#g)" />
            <path
               sodipodi:nodetypes="ccsssscc"
               id="path1157"
               transform="matrix(1.0090419,0,0,1.003276,-7.641977,0.929762)"
               d="M 23,9.9655172 23.02654,121.33486 h 60.600209 c 0.53,0 1.039,-0.211 1.414,-0.586 L 117.86875,87.920859 c 0.375,-0.375 0.5859,-0.884 0.586,-1.414 l 0.0143,-76.5413422 z"
               inkscape:connector-curvature="0"
               style="opacity:0.30684904;filter:url(#f)" />
            <path
               sodipodi:nodetypes="ccsccccc"
               id="path1159"
               d="m 17.488953,11.638 v 108.88685 h 58.720329 c 0.513401,0 1.006458,-0.20439 1.369714,-0.56765 L 109.37882,88.157367 c 0.36326,-0.363255 0.56764,-0.856313 0.56764,-1.369714 L 110.04277,11.638 Z"
               inkscape:connector-curvature="0"
               style="fill:url(#radialGradient1205)" />
            <path
               sodipodi:nodetypes="cccsscccccc"
               id="path1161"
               d="m 24.066856,17.512144 c -0.522387,0 -0.94807,0.42703 -0.94807,0.951069 l 0.307523,95.073207 c 0,0.525 0.425684,0.95108 0.94807,0.95108 h 51.563422 c 0.249342,0 0.493944,-0.10082 0.670284,-0.27867 L 104.73132,86.987169 c 0.17729,-0.17785 0.27778,-0.422273 0.27778,-0.672405 l -0.6856,-67.829628 c 0,-0.524039 -0.42473,-0.951068 -0.94806,-0.951068 z"
               inkscape:connector-curvature="0"
               style="fill:url(#radialGradient1207)" />
          </g>
          <g
             transform="matrix(1.1080161,0,0,1.1080161,-12.744784,-10.01667)"
             id="g1173">
            <path
               d="M 111.414,86.586 C 111.664,86.336 85.035,85 80,85 c -1.654,0 -3,1.346 -3,3 0,5.035 1.336,31.664 1.586,31.414 z"
               id="path1165"
               inkscape:connector-curvature="0"
               style="opacity:0.75068497;fill:url(#linearGradient1209);filter:url(#h)" />
            <path
               d="M 111.414,86.586 C 111.789,86.211 89.444,86 80,86 c -1.103,0 -2,0.897 -2,2 0,9.444 0.211,31.789 0.586,31.414 z"
               id="path1167"
               inkscape:connector-curvature="0"
               style="opacity:0.2;filter:url(#j)" />
            <path
               d="M 111.414,86.586 C 111.653,86.347 89.807,87 80,87 c -0.553,0 -1,0.447 -1,1 0,9.807 -0.653,31.653 -0.414,31.414 z"
               id="path1169"
               inkscape:connector-curvature="0"
               style="opacity:0.1;fill:url(#linearGradient1211);filter:url(#i)" />
            <path
               d="M 79.721619,119.31106 111.22712,87.805556 H 79.721619 Z"
               id="path1171"
               inkscape:connector-curvature="0"
               style="fill:url(#linearGradient1213)" />
          </g>
        </g>
        <text
           id="text1179"
           y="292.83725"
           x="5.6200738"
           style="font-style:normal;font-weight:normal;font-size:2.75845456px;line-height:125%;font-family:sans-serif;letter-spacing:0px;word-spacing:0px;fill:#0066ff;fill-opacity:1;stroke:none;stroke-width:0.06896137px;stroke-linecap:butt;stroke-linejoin:miter;stroke-opacity:1"
           xml:space="preserve"><tspan
             style="font-style:normal;font-variant:normal;font-weight:normal;font-stretch:normal;font-size:1.97555566px;font-family:FreeSans;-inkscape-font-specification:FreeSans;fill:#0066ff;stroke-width:0.06896137px"
             y="292.83725"
             x="5.6200738"
             id="tspan1177"
             sodipodi:role="line">1</tspan></text>
      </g>
    </g>
    <g
       id="g3152">
      <g
         id="g1075"
         transform="translate(4.7364281,-3.3331951)">
        <g
           transform="matrix(0.04859785,0,0,0.04859785,1.8219797,289.71343)"
           id="g1069">
          <g
             id="g1057">
            <path
               style="opacity:0.55342503;filter:url(#f)"
               inkscape:connector-curvature="0"
               d="M 23,8.9687825 23.02654,121.33486 h 60.600209 c 0.53,0 1.039,-0.211 1.414,-0.586 L 117.86875,87.920859 c 0.375,-0.375 0.59066,-0.884021 0.586,-1.414 l 0.0143,-77.5380769 z"
               transform="matrix(1.0090419,0,0,1.003276,-7.641977,0.929762)"
               id="path1045"
               sodipodi:nodetypes="ccsssscc" />
            <path
               style="opacity:0.30684904;filter:url(#f)"
               inkscape:connector-curvature="0"
               d="m 23,9 0.02655,112.33486 h 60.600205 c 0.53,0 1.039,-0.211 1.414,-0.586 L 117.86875,87.920859 c 0.375,-0.375 0.58591,-0.884 0.586,-1.414 l 0.0143,-77.5068594 z"
               transform="matrix(1.0090419,0,0,1.003276,-7.641977,0.929762)"
               id="path1047"
               sodipodi:nodetypes="ccsssscc" />
            <path
               style="opacity:0.89589;filter:url(#g)"
               inkscape:connector-curvature="0"
               d="m 24.905735,10.673272 -1.1e-5,108.531308 58.145026,-1e-4 c 0.53,0 1.039,-0.211 1.414,-0.586 l 31.484,-31.765934 c 0.375,-0.375 0.586,-0.884 0.586,-1.414 l 0.0955,-74.765274 z"
               transform="matrix(1.0090419,0,0,1.003276,-7.641977,0.929762)"
               id="path1049"
               sodipodi:nodetypes="cccccccc" />
            <path
               style="opacity:0.30684904;filter:url(#f)"
               inkscape:connector-curvature="0"
               d="M 23,9.9655172 23.02654,121.33486 h 60.600209 c 0.53,0 1.039,-0.211 1.414,-0.586 L 117.86875,87.920859 c 0.375,-0.375 0.5859,-0.884 0.586,-1.414 l 0.0143,-76.5413422 z"
               transform="matrix(1.0090419,0,0,1.003276,-7.641977,0.929762)"
               id="path1051"
               sodipodi:nodetypes="ccsssscc" />
            <path
               style="fill:url(#radialGradient1077)"
               inkscape:connector-curvature="0"
               d="m 17.488953,11.638 v 108.88685 h 58.720329 c 0.513401,0 1.006458,-0.20439 1.369714,-0.56765 L 109.37882,88.157367 c 0.36326,-0.363255 0.56764,-0.856313 0.56764,-1.369714 L 110.04277,11.638 Z"
               id="path1053"
               sodipodi:nodetypes="ccsccccc" />
            <path
               style="fill:url(#radialGradient1079)"
               inkscape:connector-curvature="0"
               d="m 24.066856,17.512144 c -0.522387,0 -0.94807,0.42703 -0.94807,0.951069 l 0.307523,95.073207 c 0,0.525 0.425684,0.95108 0.94807,0.95108 h 51.563422 c 0.249342,0 0.493944,-0.10082 0.670284,-0.27867 L 104.73132,86.987169 c 0.17729,-0.17785 0.27778,-0.422273 0.27778,-0.672405 l -0.6856,-67.829628 c 0,-0.524039 -0.42473,-0.951068 -0.94806,-0.951068 z"
               id="path1055"
               sodipodi:nodetypes="cccsscccccc" />
          </g>
          <g
             id="g1067"
             transform="matrix(1.1080161,0,0,1.1080161,-12.744784,-10.01667)">
            <path
               style="opacity:0.75068497;fill:url(#linearGradient1081);filter:url(#h)"
               inkscape:connector-curvature="0"
               id="path1059"
               d="M 111.414,86.586 C 111.664,86.336 85.035,85 80,85 c -1.654,0 -3,1.346 -3,3 0,5.035 1.336,31.664 1.586,31.414 z" />
            <path
               style="opacity:0.2;filter:url(#j)"
               inkscape:connector-curvature="0"
               id="path1061"
               d="M 111.414,86.586 C 111.789,86.211 89.444,86 80,86 c -1.103,0 -2,0.897 -2,2 0,9.444 0.211,31.789 0.586,31.414 z" />
            <path
               style="opacity:0.1;fill:url(#linearGradient1083);filter:url(#i)"
               inkscape:connector-curvature="0"
               id="path1063"
               d="M 111.414,86.586 C 111.653,86.347 89.807,87 80,87 c -0.553,0 -1,0.447 -1,1 0,9.807 -0.653,31.653 -0.414,31.414 z" />
            <path
               style="fill:url(#linearGradient1085)"
               inkscape:connector-curvature="0"
               id="path1065"
               d="M 79.721619,119.31106 111.22712,87.805556 H 79.721619 Z" />
          </g>
        </g>
        <text
           xml:space="preserve"
           style="font-style:normal;font-weight:normal;font-size:2.75845456px;line-height:125%;font-family:sans-serif;letter-spacing:0px;word-spacing:0px;fill:#0066ff;fill-opacity:1;stroke:none;stroke-width:0.06896137px;stroke-linecap:butt;stroke-linejoin:miter;stroke-opacity:1"
           x="5.6200738"
           y="292.83725"
           id="text1073"><tspan
             sodipodi:role="line"
             id="tspan1071"
             x="5.6200738"
             y="292.83725"
             style="font-style:normal;font-variant:normal;font-weight:normal;font-stretch:normal;font-size:1.97555566px;font-family:FreeSans;-inkscape-font-specification:FreeSans;fill:#0066ff;stroke-width:0.06896137px">3</tspan></text>
      </g>
      <g
         transform="translate(2.3551781,-1.7456951)"
         id="g1033">
        <g
           id="g1027"
           transform="matrix(0.04859785,0,0,0.04859785,1.8219797,289.71343)">
          <g
             id="g1015">
            <path
               sodipodi:nodetypes="ccsssscc"
               id="path1003"
               transform="matrix(1.0090419,0,0,1.003276,-7.641977,0.929762)"
               d="M 23,8.9687825 23.02654,121.33486 h 60.600209 c 0.53,0 1.039,-0.211 1.414,-0.586 L 117.86875,87.920859 c 0.375,-0.375 0.59066,-0.884021 0.586,-1.414 l 0.0143,-77.5380769 z"
               inkscape:connector-curvature="0"
               style="opacity:0.55342503;filter:url(#f)" />
            <path
               sodipodi:nodetypes="ccsssscc"
               id="path1005"
               transform="matrix(1.0090419,0,0,1.003276,-7.641977,0.929762)"
               d="m 23,9 0.02655,112.33486 h 60.600205 c 0.53,0 1.039,-0.211 1.414,-0.586 L 117.86875,87.920859 c 0.375,-0.375 0.58591,-0.884 0.586,-1.414 l 0.0143,-77.5068594 z"
               inkscape:connector-curvature="0"
               style="opacity:0.30684904;filter:url(#f)" />
            <path
               sodipodi:nodetypes="cccccccc"
               id="path1007"
               transform="matrix(1.0090419,0,0,1.003276,-7.641977,0.929762)"
               d="m 24.905735,10.673272 -1.1e-5,108.531308 58.145026,-1e-4 c 0.53,0 1.039,-0.211 1.414,-0.586 l 31.484,-31.765934 c 0.375,-0.375 0.586,-0.884 0.586,-1.414 l 0.0955,-74.765274 z"
               inkscape:connector-curvature="0"
               style="opacity:0.89589;filter:url(#g)" />
            <path
               sodipodi:nodetypes="ccsssscc"
               id="path1009"
               transform="matrix(1.0090419,0,0,1.003276,-7.641977,0.929762)"
               d="M 23,9.9655172 23.02654,121.33486 h 60.600209 c 0.53,0 1.039,-0.211 1.414,-0.586 L 117.86875,87.920859 c 0.375,-0.375 0.5859,-0.884 0.586,-1.414 l 0.0143,-76.5413422 z"
               inkscape:connector-curvature="0"
               style="opacity:0.30684904;filter:url(#f)" />
            <path
               sodipodi:nodetypes="ccsccccc"
               id="path1011"
               d="m 17.488953,11.638 v 108.88685 h 58.720329 c 0.513401,0 1.006458,-0.20439 1.369714,-0.56765 L 109.37882,88.157367 c 0.36326,-0.363255 0.56764,-0.856313 0.56764,-1.369714 L 110.04277,11.638 Z"
               inkscape:connector-curvature="0"
               style="fill:url(#radialGradient1035)" />
            <path
               sodipodi:nodetypes="cccsscccccc"
               id="path1013"
               d="m 24.066856,17.512144 c -0.522387,0 -0.94807,0.42703 -0.94807,0.951069 l 0.307523,95.073207 c 0,0.525 0.425684,0.95108 0.94807,0.95108 h 51.563422 c 0.249342,0 0.493944,-0.10082 0.670284,-0.27867 L 104.73132,86.987169 c 0.17729,-0.17785 0.27778,-0.422273 0.27778,-0.672405 l -0.6856,-67.829628 c 0,-0.524039 -0.42473,-0.951068 -0.94806,-0.951068 z"
               inkscape:connector-curvature="0"
               style="fill:url(#radialGradient1037)" />
          </g>
          <g
             transform="matrix(1.1080161,0,0,1.1080161,-12.744784,-10.01667)"
             id="g1025">
            <path
               d="M 111.414,86.586 C 111.664,86.336 85.035,85 80,85 c -1.654,0 -3,1.346 -3,3 0,5.035 1.336,31.664 1.586,31.414 z"
               id="path1017"
               inkscape:connector-curvature="0"
               style="opacity:0.75068497;fill:url(#linearGradient1039);filter:url(#h)" />
            <path
               d="M 111.414,86.586 C 111.789,86.211 89.444,86 80,86 c -1.103,0 -2,0.897 -2,2 0,9.444 0.211,31.789 0.586,31.414 z"
               id="path1019"
               inkscape:connector-curvature="0"
               style="opacity:0.2;filter:url(#j)" />
            <path
               d="M 111.414,86.586 C 111.653,86.347 89.807,87 80,87 c -0.553,0 -1,0.447 -1,1 0,9.807 -0.653,31.653 -0.414,31.414 z"
               id="path1021"
               inkscape:connector-curvature="0"
               style="opacity:0.1;fill:url(#linearGradient1041);filter:url(#i)" />
            <path
               d="M 79.721619,119.31106 111.22712,87.805556 H 79.721619 Z"
               id="path1023"
               inkscape:connector-curvature="0"
               style="fill:url(#linearGradient1043)" />
          </g>
        </g>
        <text
           id="text1031"
           y="292.83725"
           x="5.6200738"
           style="font-style:normal;font-weight:normal;font-size:2.75845456px;line-height:125%;font-family:sans-serif;letter-spacing:0px;word-spacing:0px;fill:#0066ff;fill-opacity:1;stroke:none;stroke-width:0.06896137px;stroke-linecap:butt;stroke-linejoin:miter;stroke-opacity:1"
           xml:space="preserve"><tspan
             style="font-style:normal;font-variant:normal;font-weight:normal;font-stretch:normal;font-size:1.97555566px;font-family:FreeSans;-inkscape-font-specification:FreeSans;fill:#0066ff;stroke-width:0.06896137px"
             y="292.83725"
             x="5.6200738"
             id="tspan1029"
             sodipodi:role="line">2</tspan></text>
      </g>
      <g
         id="g2904"
         transform="translate(-0.02607189,0.10638824)">
        <g
           transform="matrix(0.04859785,0,0,0.04859785,1.8219797,289.71343)"
           id="g3766">
          <g
             id="g3752">
            <path
               style="opacity:0.55342503;filter:url(#f)"
               inkscape:connector-curvature="0"
               d="m 23,8.9687825 0.02654,112.3660775 60.600209,0 c 0.53,0 1.039,-0.211 1.414,-0.586 L 117.86875,87.920859 c 0.375,-0.375 0.59066,-0.884021 0.586,-1.414 l 0.0143,-77.5380769 z"
               transform="matrix(1.0090419,0,0,1.003276,-7.641977,0.929762)"
               id="path3170"
               sodipodi:nodetypes="ccsssscc" />
            <path
               style="opacity:0.30684904;filter:url(#f)"
               inkscape:connector-curvature="0"
               d="m 23,9 0.02655,112.33486 60.600205,0 c 0.53,0 1.039,-0.211 1.414,-0.586 L 117.86875,87.920859 c 0.375,-0.375 0.58591,-0.884 0.586,-1.414 l 0.0143,-77.5068594 z"
               transform="matrix(1.0090419,0,0,1.003276,-7.641977,0.929762)"
               id="path3172"
               sodipodi:nodetypes="ccsssscc" />
            <path
               style="opacity:0.89589;filter:url(#g)"
               inkscape:connector-curvature="0"
               d="m 24.905735,10.673272 -1.1e-5,108.531308 58.145026,-1e-4 c 0.53,0 1.039,-0.211 1.414,-0.586 l 31.484,-31.765934 c 0.375,-0.375 0.586,-0.884 0.586,-1.414 l 0.0955,-74.765274 z"
               transform="matrix(1.0090419,0,0,1.003276,-7.641977,0.929762)"
               id="path3174"
               sodipodi:nodetypes="cccccccc" />
            <path
               style="opacity:0.30684904;filter:url(#f)"
               inkscape:connector-curvature="0"
               d="m 23,9.9655172 0.02654,111.3693428 60.600209,0 c 0.53,0 1.039,-0.211 1.414,-0.586 L 117.86875,87.920859 c 0.375,-0.375 0.5859,-0.884 0.586,-1.414 l 0.0143,-76.5413422 z"
               transform="matrix(1.0090419,0,0,1.003276,-7.641977,0.929762)"
               id="path3176"
               sodipodi:nodetypes="ccsssscc" />
            <path
               style="fill:url(#radialGradient993)"
               inkscape:connector-curvature="0"
               d="m 17.488953,11.638 0,108.88685 58.720329,0 c 0.513401,0 1.006458,-0.20439 1.369714,-0.56765 L 109.37882,88.157367 c 0.36326,-0.363255 0.56764,-0.856313 0.56764,-1.369714 L 110.04277,11.638 Z"
               id="path3178"
               sodipodi:nodetypes="ccsccccc" />
            <path
               style="fill:url(#radialGradient995)"
               inkscape:connector-curvature="0"
               d="m 24.066856,17.512144 c -0.522387,0 -0.94807,0.42703 -0.94807,0.951069 l 0.307523,95.073207 c 0,0.525 0.425684,0.95108 0.94807,0.95108 l 51.563422,0 c 0.249342,0 0.493944,-0.10082 0.670284,-0.27867 L 104.73132,86.987169 c 0.17729,-0.17785 0.27778,-0.422273 0.27778,-0.672405 l -0.6856,-67.829628 c 0,-0.524039 -0.42473,-0.951068 -0.94806,-0.951068 z"
               id="path3180"
               sodipodi:nodetypes="cccsscccccc" />
          </g>
          <g
             id="g3190"
             transform="matrix(1.1080161,0,0,1.1080161,-12.744784,-10.01667)">
            <path
               style="opacity:0.75068497;fill:url(#linearGradient997);filter:url(#h)"
               inkscape:connector-curvature="0"
               id="path3182"
               d="M 111.414,86.586 C 111.664,86.336 85.035,85 80,85 c -1.654,0 -3,1.346 -3,3 0,5.035 1.336,31.664 1.586,31.414 z" />
            <path
               style="opacity:0.2;filter:url(#j)"
               inkscape:connector-curvature="0"
               id="path3184"
               d="M 111.414,86.586 C 111.789,86.211 89.444,86 80,86 c -1.103,0 -2,0.897 -2,2 0,9.444 0.211,31.789 0.586,31.414 z" />
            <path
               style="opacity:0.1;fill:url(#linearGradient999);filter:url(#i)"
               inkscape:connector-curvature="0"
               id="path3186"
               d="M 111.414,86.586 C 111.653,86.347 89.807,87 80,87 c -0.553,0 -1,0.447 -1,1 0,9.807 -0.653,31.653 -0.414,31.414 z" />
            <path
               style="fill:url(#linearGradient1001)"
               inkscape:connector-curvature="0"
               id="path3188"
               d="M 79.721619,119.31106 111.22712,87.805556 H 79.721619 Z" />
          </g>
        </g>
        <text
           xml:space="preserve"
           style="font-style:normal;font-weight:normal;font-size:2.75845456px;line-height:125%;font-family:sans-serif;letter-spacing:0px;word-spacing:0px;fill:#0066ff;fill-opacity:1;stroke:none;stroke-width:0.06896137px;stroke-linecap:butt;stroke-linejoin:miter;stroke-opacity:1"
           x="5.6200738"
           y="292.83725"
           id="text2887"><tspan
             sodipodi:role="line"
             id="tspan2885"
             x="5.6200738"
             y="292.83725"
             style="font-style:normal;font-variant:normal;font-weight:normal;font-stretch:normal;font-size:1.97555566px;font-family:FreeSans;-inkscape-font-specification:FreeSans;fill:#0066ff;stroke-width:0.06896137px">1</tspan></text>
      </g>
    </g>
  </g>
</svg>
