<?xml version="1.0" encoding="UTF-8" standalone="no"?>
<svg
   xmlns:dc="http://purl.org/dc/elements/1.1/"
   xmlns:cc="http://creativecommons.org/ns#"
   xmlns:rdf="http://www.w3.org/1999/02/22-rdf-syntax-ns#"
   xmlns:svg="http://www.w3.org/2000/svg"
   xmlns="http://www.w3.org/2000/svg"
   xmlns:xlink="http://www.w3.org/1999/xlink"
   xmlns:sodipodi="http://sodipodi.sourceforge.net/DTD/sodipodi-0.dtd"
   xmlns:inkscape="http://www.inkscape.org/namespaces/inkscape"
   height="32"
   viewBox="0 0 8.4666665 8.466667"
   width="32"
   version="1.1"
   id="svg18"
   sodipodi:docname="italic.svg"
   inkscape:version="0.92.4 (unknown)"
   inkscape:export-filename="/home/rizmut/Dokumen/Rizmut/Github/libreoffice-style-karasa-jaga/build/next/cmd/32/hu/italic.png"
   inkscape:export-xdpi="96"
   inkscape:export-ydpi="96">
  <metadata
     id="metadata24">
    <rdf:RDF>
      <cc:Work
         rdf:about="">
        <dc:format>image/svg+xml</dc:format>
        <dc:type
           rdf:resource="http://purl.org/dc/dcmitype/StillImage" />
        <dc:title></dc:title>
      </cc:Work>
    </rdf:RDF>
  </metadata>
  <defs
     id="defs22">
    <linearGradient
       inkscape:collect="always"
       xlink:href="#b"
       id="linearGradient39"
       gradientUnits="userSpaceOnUse"
       x1="16.115768"
       y1="29.244419"
       x2="17.174103"
       y2="4.90275" />
    <linearGradient
       inkscape:collect="always"
       xlink:href="#b"
       id="linearGradient41"
       gradientUnits="userSpaceOnUse"
       x1="16.115768"
       y1="29.244419"
       x2="17.174103"
       y2="4.90275" />
  </defs>
  <sodipodi:namedview
     pagecolor="#ffffff"
     bordercolor="#666666"
     borderopacity="1"
     objecttolerance="10"
     gridtolerance="10"
     guidetolerance="10"
     inkscape:pageopacity="0"
     inkscape:pageshadow="2"
     inkscape:window-width="1366"
     inkscape:window-height="714"
     id="namedview20"
     showgrid="true"
     inkscape:zoom="10.429825"
     inkscape:cx="12.26312"
     inkscape:cy="13.356475"
     inkscape:window-x="0"
     inkscape:window-y="28"
     inkscape:window-maximized="1"
     inkscape:current-layer="svg18">
    <inkscape:grid
       type="xygrid"
       id="grid26" />
  </sodipodi:namedview>
  <linearGradient
     id="a"
     gradientUnits="userSpaceOnUse"
     x1="8.1836243"
     x2="29.793158"
     y1="13.412256"
     y2="13.412256">
    <stop
       offset="0"
       stop-color="#3b3e22"
       id="stop2" />
    <stop
       offset="1"
       stop-color="#454545"
       stop-opacity="0"
       id="stop4" />
  </linearGradient>
  <linearGradient
     id="b"
     gradientUnits="userSpaceOnUse"
     x1="16.115768"
     x2="17.174103"
     y1="29.244419"
     y2="4.90275">
    <stop
       offset="0"
       stop-color="#555"
       id="stop7" />
    <stop
       offset="1"
       id="stop9" />
  </linearGradient>
  <g
     id="g34"
     transform="matrix(0.25,0,0,0.25,0,0.13229167)">
    <g
       aria-label="D"
       style="font-size:35.19966888px;font-family:sans-serif;letter-spacing:0;word-spacing:0;fill:url(#linearGradient41);stroke-width:0.87999201"
       id="text14">
      <path
         d="m 30.046084,14.803437 q 0,6.111875 -4.704292,10.186458 -4.66725,4.037542 -12.149667,4.037542 H 3.8205831 v -0.592666 q 1.5927917,-0.296334 2.0743334,-0.703792 0.4815417,-0.4445 0.9260417,-2.037292 L 11.377083,9.3212699 q 0.407459,-1.4446251 0.407459,-2.3706668 0,-0.7408333 -0.592667,-1.0371667 Q 10.63625,5.5800614 8.9323333,5.4318947 V 4.839228 H 19.229917 q 4.963583,0 7.889875,2.7040418 2.926292,2.7040422 2.926292,7.2601672 z m -4.111625,-0.889 q 0,-1.407584 -0.333375,-2.629959 -0.296333,-1.259416 -1.11125,-2.5188332 -0.777875,-1.2964583 -2.44475,-2.0372917 -1.666875,-0.777875 -4.074584,-0.777875 -1.11125,0 -1.629833,0.2592917 -0.481542,0.22225 -0.629708,0.8149167 L 11.228917,23.026687 Q 10.414,25.915937 10.414,26.545645 q 0,1.370542 2.407708,1.370542 5.889626,0 9.482667,-3.852333 3.630084,-3.852334 3.630084,-10.149417 z"
         style="font-style:italic;font-size:37.04166794px;font-family:FreeSerif;fill:url(#linearGradient39);stroke-width:0.87999201"
         id="path36"
         inkscape:connector-curvature="0" />
    </g>
    <path
       id="path16"
       d="m 9.1840803,5.0910584 v 0.12299 c 0.9972907,0.098384 1.7109887,0.23418 2.1290687,0.4826577 0.463501,0.2367057 0.722437,0.6972795 0.722437,1.2536704 0,0.6538656 -0.140493,1.4628617 -0.415995,2.4396444 L 8.1836245,21.733454 A 36.935742,13.089865 0 0 0 11.371027,21.585142 L 15.467418,6.9638123 c 0.112061,-0.4482433 0.376224,-0.8001055 0.763261,-0.9803019 0.409675,-0.2036992 0.982107,-0.2852539 1.740462,-0.2852539 1.63061,-2e-7 3.023318,0.2638002 4.175973,0.8009845 1.147634,0.5100598 2.010009,1.222669 2.5585,2.1368206 0.553836,0.8575487 0.936074,1.7227654 1.140499,2.5915724 0.227041,0.836134 0.340031,1.733306 0.340031,2.687692 0,2.081467 -0.297867,3.971783 -0.889868,5.667871 a 36.935742,13.089865 0 0 0 4.014743,-1.108459 c 0.320201,-1.152279 0.482139,-2.374723 0.482139,-3.671094 0,-2.983679 -0.944528,-5.3210742 -2.843752,-7.0760539 C 25.050449,5.9728594 22.494412,5.0910584 19.231013,5.0910584 Z"
       style="fill:url(#a)"
       inkscape:connector-curvature="0" />
  </g>
</svg>
