<svg height="128" viewBox="0 0 33.866666 33.866668" width="128" xmlns="http://www.w3.org/2000/svg" xmlns:xlink="http://www.w3.org/1999/xlink"><linearGradient id="a" gradientUnits="userSpaceOnUse" x1="5.294767" x2="23.980448" y1="11.314813" y2="11.314813"><stop offset="0" stop-color="#3b3e22"/><stop offset="1" stop-color="#454545" stop-opacity="0"/></linearGradient><linearGradient id="b" gradientUnits="userSpaceOnUse" x1="14.472697" x2="15.693854" y1="31.629957" y2="3.543321"><stop offset="0" stop-color="#555"/><stop offset="1"/></linearGradient><text style="font-size:40.615143;font-family:sans-serif;letter-spacing:0;word-spacing:0;stroke-width:1.015378;fill:url(#b)" x=".285896" y="31.379633"><tspan fill="url(#b)" font-family="FreeSerif" font-size="42.740532" font-weight="bold" stroke-width="1.015378" x=".285896" y="31.379633">K</tspan></text><path d="m84.751953 7.765625c.066285.0194959.116923.1117911.183594.1328125.093709.0337285.232126.0096551.326172.0449219zm-64.740234 2.716797c.062045.048258.066144.128761.126953.177734.071623.061224.157123.054194.228516.117188zm22.021484 1.261719-.148437.15625c.028562-.030242.067054-.030636.095703-.060547.028463-.028873.023934-.066906.052734-.095703zm-17.5625 5.072265c.93842 2.558353 1.314453 5.331713 1.314453 8.089844v51.941406a101.96611 46.64407 0 0 0 11.330078.916016v-6.335938a7.4224947 7.4224947 0 0 1 1.367188-4.28125 7.4224947 7.4224947 0 0 1 -1.367188-4.27539v-34.56836c0-4.318785.67568-8.034464 2.119141-11.486328zm66.164063 9.322266c-.057336.09556-.162843.166653-.220704.259766-.036007.053166-.023824.131135-.060546.183593zm-28.855469 29.927734-6.894531 6.929688 11.544922 14.398437a101.96611 46.64407 0 0 0 11.529296-1.277343z" fill="url(#a)" transform="scale(.26458334)"/></svg>