<svg height="111" viewBox="0 0 33.866666 29.368751" width="128" xmlns="http://www.w3.org/2000/svg" xmlns:xlink="http://www.w3.org/1999/xlink"><linearGradient id="a" gradientUnits="userSpaceOnUse" x1="4.515485" x2="40.639366" y1="274.42258" y2="308.2887"><stop offset="0" stop-color="#fff"/><stop offset="1" stop-color="#e6e9ef"/></linearGradient><g transform="translate(0 -267.63124)"><rect fill="#c4cfe0" height="27.65732" rx=".055424" ry=".057719" width="32.172832" x=".564436" y="268.21378"/><path d="m123.73047 2.2011719v2.1347656c-.0667.0000007-.13463-.000001-.20117 0 .11216.00256.20117.096133.20117.2128906v101.9707019c0 .11838-.0907.21289-.20508.21289h-119.0527338c-.1143416 0-.2070312-.0945-.2070312-.21289v-1.61328l-2.1328125 1.82813 2.1328125 4.04296.2148438.22266h123.3046912l.21289-.22266v-106.2206994l-.21289-.2207031h.21289z" fill="#b6c2d4" fill-opacity=".916667" transform="matrix(.26458333 0 0 .26458333 0 267.63124)"/><rect fill="url(#a)" height="27.092916" rx=".054608" ry=".056536" width="31.608395" x="1.128871" y="268.7782"/><path d="m7.9020987 271.60039v20.88411l20.8841183-1.6933v-17.49751z" fill="#87a1bf" fill-rule="evenodd"/><path d="m73.439453 23.822266a35.419519 30.096937 0 0 0 -35.419922 30.097656 35.419519 30.096937 0 0 0 35.419922 30.095703 35.419519 30.096937 0 0 0 31.091797-15.681641 32.605785 27.463109 0 0 1 -27.707031 13.048828 32.605785 27.463109 0 0 1 -32.605469-27.46289 32.605785 27.463109 0 0 1 32.605469-27.462891 32.605785 27.463109 0 0 1 27.154301 12.291016 35.419519 30.096937 0 0 0 -30.539067-14.925781zm-3.064453 11.02539a19.74975 19.74975 0 0 0 -19.75 19.75 19.74975 19.74975 0 0 0 19.75 19.75 19.74975 19.74975 0 0 0 4.291016-.488281v-1.480469-14.013672-2.457031-.152344c0-.051575-.03344-.095239-.080078-.132812-.035389-.051766-.077753-.087891-.126954-.087891h-10.253906c-.114342 0-.207031.165577-.207031.373047v2.457031c0 .207471.092689.373047.207031.373047h6.81836v11.835938a15.99975 15.99975 0 0 1 -.648438.023437 15.99975 15.99975 0 0 1 -16-16 15.99975 15.99975 0 0 1 16-16 15.99975 15.99975 0 0 1 4.291016.603516v-3.855469a19.74975 19.74975 0 0 0 -4.291016-.498047zm10.896484.015625c-.114341 0-.207031.092691-.207031.207031v39.140626c0 .11434.09269.207031.207031.207031h3.853516c.069471 0 .122788-.039482.160156-.091797.037407.05197.089001.091797.158203.091797h5.988282c.114341 0 .205078-.092691.205078-.207031v-2.666016c0-.114342-.090737-.207031-.205078-.207031h-5.988282c-.043568 0-.078091.024004-.111328.046875v-36.314454c0-.11434-.092689-.207031-.207031-.207031z" fill="#fff" transform="matrix(.26458333 0 0 .26458333 0 267.63124)"/><path d="m7.9020987 271.60039c0 .56443-3.3866138 2.25774-3.3866138 2.25774v16.36863c0 .56444 3.3866138 2.25774 3.3866138 2.25774z" fill="#6082aa" fill-rule="evenodd"/></g></svg>