<svg height="111" viewBox="0 0 33.866666 29.368751" width="128" xmlns="http://www.w3.org/2000/svg" xmlns:xlink="http://www.w3.org/1999/xlink"><linearGradient id="a"><stop offset="0" stop-color="#0968ef"/><stop offset="1" stop-color="#aecffc"/></linearGradient><linearGradient id="b" xlink:href="#a"/><linearGradient id="c"><stop offset="0" stop-color="#b900c4"/><stop offset="1" stop-color="#ae4300"/></linearGradient><linearGradient id="d" xlink:href="#c"/><linearGradient id="e" gradientUnits="userSpaceOnUse" x1="4.515485" x2="40.639366" y1="274.42258" y2="308.2887"><stop offset="0" stop-color="#fff"/><stop offset="1" stop-color="#e6e9ef"/></linearGradient><linearGradient id="f" gradientUnits="userSpaceOnUse" x1="7.7994679252" x2="38.62818988858" xlink:href="#a" y1="284.1187405214" y2="282.0473837579"/><linearGradient id="g" gradientUnits="userSpaceOnUse" spreadMethod="pad" x1="8.11975971837" x2="39.94314012442" xlink:href="#c" y1="281.54302692358" y2="276.43419181767"/><linearGradient id="h" gradientTransform="matrix(.12823193 .12823193 -.12823193 .12823193 5.125267 273.94625)" gradientUnits="userSpaceOnUse" x1="99.185669" x2="-90.727058" xlink:href="#d" y1="50.145721" y2="-108.44878"/><linearGradient id="i" gradientTransform="matrix(.12823193 .12823193 -.12823193 .12823193 12.30069 272.22862)" gradientUnits="userSpaceOnUse" x1="115.02901" x2="91.471352" xlink:href="#d" y1="42.776726" y2="-2.151019"/><linearGradient id="j" gradientTransform="matrix(.12823193 .12823193 -.12823193 .12823193 22.732158 259.9474)" gradientUnits="userSpaceOnUse" x1="151.13708" x2="91.471352" xlink:href="#d" y1="57.514717" y2="-2.151019"/><linearGradient id="k" gradientTransform="matrix(.12823193 .12823193 -.12823193 .12823193 17.411662 261.75022)" gradientUnits="userSpaceOnUse" x1="151.13708" x2="91.471352" xlink:href="#d" y1="57.514717" y2="-2.151019"/><linearGradient id="l" gradientUnits="userSpaceOnUse" x1="27.46136750578" x2="31.85148420899" xlink:href="#b" y1="286.8286697743" y2="276.1669580227"/><linearGradient id="m" gradientUnits="userSpaceOnUse" x1="22.31675401593" x2="26.70687128358" xlink:href="#b" y1="290.20270823451" y2="279.54099761179"/><linearGradient id="n" gradientUnits="userSpaceOnUse" x1="9.83989994279" x2="14.23001608156" xlink:href="#b" y1="287.52576070424" y2="276.86404951708"/><linearGradient id="o" gradientUnits="userSpaceOnUse" x1="16.59858152607" x2="20.98869879373" xlink:href="#b" y1="282.3284605959" y2="271.6667488443"/><g transform="translate(0 -267.63124)"><rect fill="#c4cfe0" height="27.65732" rx=".055424" ry=".057719" width="32.172832" x=".564436" y="268.21378"/><path d="m123.73047 2.2011719v2.1347656c-.0667.0000007-.13463-.000001-.20117 0 .11216.00256.20117.096133.20117.2128906v101.9707019c0 .11838-.0907.21289-.20508.21289h-119.0527338c-.1143416 0-.2070312-.0945-.2070312-.21289v-1.61328l-2.1328125 1.82813 2.1328125 4.04296.2148438.22266h123.3046912l.21289-.22266v-106.2206994l-.21289-.2207031h.21289z" fill="#b6c2d4" fill-opacity=".916667" transform="matrix(.26458333 0 0 .26458333 0 267.63124)"/><rect fill="url(#e)" height="27.092916" rx=".054608" ry=".056536" width="31.608395" x="1.128871" y="268.7782"/><path d="m5.3808193 269.47764-.297842.56122-.595684 1.12245h.595684l-.0000223 21.88681h.595684l.0000223-21.88681h.5956841l-.5956841-1.12245z" fill="#797979" opacity=".613861"/><path d="m3.951049 289.10114h1.693307v.5612h-1.693307z" fill="#787878" fill-opacity=".615686"/><path d="m3.951049 284.58566h1.755803v.5612h-1.755803z" fill="#787878" fill-opacity=".615686"/><path d="m3.951049 280.07016h1.755803v.5612h-1.755803z" fill="#787878" fill-opacity=".615686"/><path d="m28.51338 293.32868-.595684.28061-1.191368.56122v-.56122l-21.6433061.00002v-.56122l21.6433061-.00002v-.56122l1.191368.56122z" fill="#797979" opacity=".613861"/><path d="m-294.74225-10.724277h1.686864v.595661h-1.686864z" fill="#787878" fill-opacity=".615686" transform="matrix(0 -1 -1 0 0 0)"/><path d="m-294.74225-19.755247h1.686864v.564436h-1.686864z" fill="#787878" fill-opacity=".615686" transform="matrix(0 -1 -1 0 0 0)"/><path d="m-294.74225-24.270733h1.670629v.589686h-1.670629z" fill="#787878" fill-opacity=".615686" transform="matrix(0 -1 -1 0 0 0)"/><path d="m-294.73581-15.239762h1.686864v.564436h-1.686864z" fill="#787878" fill-opacity=".615686" transform="matrix(0 -1 -1 0 0 0)"/><path d="m3.951049 275.55142h1.755803v.5612h-1.755803z" fill="#787878" fill-opacity=".615686"/><path d="m8.2410542 285.43215.055725-5.31679 6.9511606.0616 5.249798.0553.0054 7.82741 5.403618-.0313.0051-3.40125" fill="none" stroke="url(#f)" stroke-linecap="round" stroke-linejoin="round" stroke-width=".875861"/><path d="m20.435276 286.59654v1.09754h-1.097529v.62715h1.097529v1.09754h.62716v-1.09754h1.097529v-.62715h-1.097529v-1.09754zm.313579 1.09754c.313581 0 .313581 0 .313581.31358 0 .31357 0 .31357-.313581.31357-.313579 0-.313579 0-.313579-.31357 0-.31358 0-.31358.313579-.31358z" fill="url(#m)" stroke-width=".564444"/><path d="m8.2292426 290.3016-.053894-1.84687 7.0607794.0952 5.219127.003.03604-10.51367-.03668-1.79104 5.29184.0393" fill="none" stroke="url(#g)" stroke-linecap="round" stroke-linejoin="round" stroke-width=".875861"/><g stroke-width=".564444"><path d="m7.1678751 288.77281-.5157065.51571.8954028.8954-.8954028.89541.5157065.51571.8954023-.8954.8954028.8954.5157061-.51571-.8954022-.89541.8954022-.8954-.5157061-.51571-.8954028.8954zm.8954023 1.04843c.092712 0 .1839784.0367.2550196.10773.1420819.14208.1420819.36796 0 .51004s-.3679585.14208-.5100391 0c-.1420798-.14208-.1420819-.36796 0-.51004.07104-.071.162308-.10773.2550195-.10773z" fill="url(#h)"/><path d="m7.9584214 283.91958v1.09753h-1.0975289v.62716h1.0975289v1.09753h.62716v-1.09753h1.097529v-.62716h-1.097529v-1.09753zm.3135799 1.09753c.3135801 0 .3135801 0 .3135801.31358s0 .31358-.3135801.31358c-.3135799 0-.3135799 0-.3135799-.31358s0-.31358.3135799-.31358z" fill="url(#n)"/><path d="m14.343298 287.0552-.515707.51571.895403.8954-.895403.8954.515707.51569.895402-.8954.895403.8954.515706-.51569-.895402-.8954.895402-.8954-.515706-.51571-.895403.8954zm.895402 1.0484c.09271 0 .183979.0367.25502.10773.142082.14208.142082.36796 0 .51004s-.367959.14208-.510039 0-.142082-.36796 0-.51004c.07104-.071.162308-.10773.255019-.10773z" fill="url(#i)"/><path d="m19.45427 276.57678-.515707.51571.895403.8954-.895403.8954.515707.51571.895402-.8954.895404.8954.515705-.51571-.895402-.8954.895402-.8954-.515705-.51571-.895404.8954zm.895402 1.04842c.09271 0 .183979.0367.25502.10773.142082.14208.142082.36796 0 .51004s-.367959.14208-.510039 0-.142082-.36796 0-.51004c.07104-.071.162308-.10773.255019-.10773z" fill="url(#k)"/><path d="m24.774769 274.77396-.515707.51571.895403.89541-.895403.8954.515707.51571.895401-.8954.895403.8954.515707-.51571-.895403-.8954.895403-.89541-.515707-.51571-.895403.8954zm.895401 1.04843c.09271 0 .183978.0367.25502.10773.14208.14208.14208.36796 0 .51004s-.367959.14208-.510038 0c-.14208-.14208-.14208-.36796 0-.51004.07104-.071.162303-.10773.255018-.10773z" fill="url(#j)"/><path d="m14.717102 278.72229v1.09753h-1.097529v.62716h1.097529v1.09753h.62716v-1.09753h1.097529v-.62716h-1.097529v-1.09753zm.31358 1.09753c.31358 0 .31358 0 .31358.31358s0 .31358-.31358.31358-.31358 0-.31358-.31358 0-.31358.31358-.31358z" fill="url(#o)"/><path d="m25.579889 283.22251v1.09753h-1.09753v.62716h1.09753v1.09753h.627159v-1.09753h1.09753v-.62716h-1.09753v-1.09753zm.313581 1.09753c.313578 0 .313578 0 .313578.31358s0 .31358-.313578.31358c-.313581 0-.313581 0-.313581-.31358s0-.31358.313581-.31358z" fill="url(#l)"/></g></g></svg>