<svg height="111" viewBox="0 0 33.866666 29.368751" width="128" xmlns="http://www.w3.org/2000/svg" xmlns:xlink="http://www.w3.org/1999/xlink"><linearGradient id="a"><stop offset="0" stop-color="#0968ef"/><stop offset="1" stop-color="#aecffc"/></linearGradient><linearGradient id="b" xlink:href="#a"/><linearGradient id="c"><stop offset="0" stop-color="#b900c4"/><stop offset="1" stop-color="#ae4300"/></linearGradient><linearGradient id="d" xlink:href="#c"/><linearGradient id="e" gradientUnits="userSpaceOnUse" x1="4.515485" x2="40.639366" y1="274.42258" y2="308.2887"><stop offset="0" stop-color="#fff"/><stop offset="1" stop-color="#e6e9ef"/></linearGradient><linearGradient id="f" gradientUnits="userSpaceOnUse" x1="28.67114334162" x2="30.84064989771" xlink:href="#b" y1="280.99393184356" y2="271.79687888138"/><linearGradient id="g" gradientUnits="userSpaceOnUse" x1="21.90258701593" x2="26.29270428358" xlink:href="#b" y1="280.19721823451" y2="269.53550761179"/><linearGradient id="h" gradientUnits="userSpaceOnUse" x1="16.11800552607" x2="20.50812279373" xlink:href="#b" y1="287.8195805959" y2="277.1578688443"/><linearGradient id="i" gradientTransform="matrix(.12823193 .12823193 -.12823193 .12823193 10.9298 265.88673)" gradientUnits="userSpaceOnUse" x1="151.13708" x2="91.471352" xlink:href="#d" y1="57.514717" y2="-2.151019"/><linearGradient id="j" gradientTransform="matrix(.12823193 .12823193 -.12823193 .12823193 5.404104 264.56395)" gradientUnits="userSpaceOnUse" x1="151.13708" x2="91.471352" xlink:href="#d" y1="57.514717" y2="-2.151019"/><linearGradient id="k" gradientTransform="matrix(.12823193 .12823193 -.12823193 .12823193 22.523749 270.69181)" gradientUnits="userSpaceOnUse" x1="88.08802" x2="81.050018" xlink:href="#d" y1="38.756317" y2="8.270314"/><linearGradient id="l" gradientUnits="userSpaceOnUse" x1="9.66475094279" x2="14.05486708156" xlink:href="#b" y1="292.51199070424" y2="281.85027951708"/><linearGradient id="m" gradientTransform="matrix(.12823193 .12823193 -.12823193 .12823193 9.251241 256.80758)" gradientUnits="userSpaceOnUse" x1="151.13708" x2="91.471352" xlink:href="#d" y1="57.514717" y2="-2.151019"/><linearGradient id="n" gradientTransform="matrix(.12823193 .12823193 -.12823193 .12823193 17.527615 274.01444)" gradientUnits="userSpaceOnUse" x1="91.461853" x2="60.924805" xlink:href="#d" y1="46.146072" y2="14.636454"/><linearGradient id="o" gradientUnits="userSpaceOnUse" x1="25.25164534162" x2="27.42115189771" xlink:href="#b" y1="289.96941184356" y2="280.77235888138"/><linearGradient id="p" gradientUnits="userSpaceOnUse" x1="1.26502158406" x2="3.26052493392" xlink:href="#c" y1="360.9178117714" y2="359.93166472133"/><linearGradient id="q" gradientUnits="userSpaceOnUse" x1=".97818547309" x2="3.96358819382" xlink:href="#a" y1="360.05751378224" y2="359.70946499496"/><g transform="translate(0 -267.63124)"><rect fill="#c4cfe0" height="27.65732" rx=".055424" ry=".057719" width="32.172832" x=".564436" y="268.21378"/><path d="m123.73047 2.2011719v2.1347656c-.0667.0000007-.13463-.000001-.20117 0 .11216.00256.20117.096133.20117.2128906v101.9707019c0 .11838-.0907.21289-.20508.21289h-119.0527338c-.1143416 0-.2070312-.0945-.2070312-.21289v-1.61328l-2.1328125 1.82813 2.1328125 4.04296.2148438.22266h123.3046912l.21289-.22266v-106.2206994l-.21289-.2207031h.21289z" fill="#b6c2d4" fill-opacity=".916667" transform="matrix(.26458333 0 0 .26458333 0 267.63124)"/><rect fill="url(#e)" height="27.092916" rx=".054608" ry=".056536" width="31.608395" x="1.128871" y="268.7782"/><path d="m5.3808193 269.47764-.297842.56122-.595684 1.12245h.595684l-.0000223 21.88681h.595684l.0000223-21.88681h.5956841l-.5956841-1.12245z" fill="#797979" opacity=".613861"/><path d="m3.951049 289.10114h1.693307v.5612h-1.693307z" fill="#787878" fill-opacity=".615686"/><path d="m3.951049 284.58566h1.755803v.5612h-1.755803z" fill="#787878" fill-opacity=".615686"/><path d="m3.951049 280.07016h1.755803v.5612h-1.755803z" fill="#787878" fill-opacity=".615686"/><path d="m28.51338 293.32868-.595684.28061-1.191368.56122v-.56122l-21.6433061.00002v-.56122l21.6433061-.00002v-.56122l1.191368.56122z" fill="#797979" opacity=".613861"/><path d="m-294.74225-10.724277h1.686864v.595661h-1.686864z" fill="#787878" fill-opacity=".615686" transform="matrix(0 -1 -1 0 0 0)"/><path d="m-294.74225-19.755247h1.686864v.564436h-1.686864z" fill="#787878" fill-opacity=".615686" transform="matrix(0 -1 -1 0 0 0)"/><path d="m-294.74225-24.270733h1.670629v.589686h-1.670629z" fill="#787878" fill-opacity=".615686" transform="matrix(0 -1 -1 0 0 0)"/><path d="m-294.73581-15.239762h1.686864v.564436h-1.686864z" fill="#787878" fill-opacity=".615686" transform="matrix(0 -1 -1 0 0 0)"/><path d="m3.951049 275.55142h1.755803v.5612h-1.755803z" fill="#787878" fill-opacity=".615686"/><g fill="none" stroke-linecap="round" stroke-linejoin="round" stroke-width=".41056" transform="matrix(2.13333 0 0 2.13333 -.217054 -336.65685)"><path d="m3.9048851 293.88887s2.0537093-1.20132 2.9055455-2.01623c1.1298478-1.08088 1.5407306-2.86515 2.8422991-3.73162 1.1089973-.73827 2.9861583-2.00635 3.8677213-1.00747.992516 1.1246-1.6667 4.17977-1.6667 4.17977" stroke="url(#q)"/><path d="m5.8287197 285.80717s-2.4022052 2.43426-1.8133499 3.66278c.3865861.80654 1.8628802.10225 2.6201667.57813 1.3784773.86624 1.4095336 3.58389 3.0171932 3.84079.9745003.15572 2.4633623-1.64225 2.4633623-1.64225" stroke="url(#p)"/></g><g stroke-width=".564444"><path d="m11.293848 271.63415-.515706.51571.895402.8954-.895402.89541.515706.51571.895402-.8954.895403.8954.515706-.51571-.895402-.89541.895402-.8954-.515706-.51571-.895403.8954zm.895402 1.04843c.09271 0 .183979.0367.25502.10773.142082.14208.142082.36796 0 .51004s-.367959.14208-.510039 0-.142082-.36796 0-.51004c.07104-.071.162308-.10773.255019-.10773z" fill="url(#m)"/><path d="m7.7832717 288.90582v1.09753h-1.0975289v.62716h1.0975289v1.09753h.62716v-1.09753h1.097529v-.62716h-1.097529v-1.09753zm.3135799 1.09753c.3135801 0 .3135801 0 .3135801.31358s0 .31358-.3135801.31358c-.3135799 0-.3135799 0-.3135799-.31358s0-.31358.3135799-.31358z" fill="url(#l)"/><path d="m24.566357 285.5184-.515707.51571.895403.8954-.895403.8954.515707.51569.895402-.8954.895403.8954.515706-.51569-.895402-.8954.895402-.8954-.515706-.51571-.895403.8954zm.895402 1.0484c.09271 0 .183979.0367.25502.10773.142082.14208.142082.36796 0 .51004s-.367959.14208-.510039 0-.142082-.36796 0-.51004c.07104-.071.162308-.10773.255019-.10773z" fill="url(#k)"/><path d="m7.4467127 279.39052-.515707.51571.895403.8954-.895403.8954.515707.51571.895402-.8954.895403.8954.515706-.51571-.895402-.8954.895402-.8954-.515706-.51571-.895403.8954zm.895402 1.04842c.09271 0 .183979.0367.255019.10773.142083.14208.142083.36796 0 .51004-.142082.14208-.367958.14208-.510038 0s-.142082-.36796 0-.51004c.07104-.071.162307-.10773.255019-.10773z" fill="url(#j)"/><path d="m12.972411 280.7133-.515706.51571.895403.89541-.895403.8954.515706.51571.895402-.8954.895403.8954.515707-.51571-.895403-.8954.895403-.89541-.515707-.51571-.895403.8954zm.895402 1.04843c.09271 0 .183978.0367.25502.10773.14208.14208.14208.36796 0 .51004s-.367959.14208-.510038 0c-.14208-.14208-.14208-.36796 0-.51004.07104-.071.162303-.10773.255018-.10773z" fill="url(#i)"/><path d="m14.236526 284.21342v1.09753h-1.097529v.62716h1.097529v1.09753h.62716v-1.09753h1.097529v-.62716h-1.097529v-1.09753zm.31358 1.09753c.31358 0 .31358 0 .31358.31358s0 .31358-.31358.31358-.31358 0-.31358-.31358 0-.31358.31358-.31358z" fill="url(#h)"/><path d="m20.02111 276.59106v1.09754h-1.097529v.62715h1.097529v1.09754h.627159v-1.09754h1.09753v-.62715h-1.09753v-1.09754zm.313578 1.09754c.313581 0 .313581 0 .313581.31358 0 .31357 0 .31357-.313581.31357-.313578 0-.313578 0-.313578-.31357 0-.31358 0-.31358.313578-.31358z" fill="url(#g)"/><path d="m28.15983 274.41122v1.09753h-1.09753v.62716h1.09753v1.09753h.627159v-1.09753h1.09753v-.62716h-1.09753v-1.09753zm.313581 1.09753c.313578 0 .313578 0 .313578.31358s0 .31358-.313578.31358c-.313581 0-.313581 0-.313581-.31358s0-.31358.313581-.31358z" fill="url(#f)"/><path d="m19.570223 288.84103-.515707.51571.895403.8954-.895403.8954.515707.51569.895402-.8954.895403.8954.515706-.51569-.895402-.8954.895402-.8954-.515706-.51571-.895403.8954zm.895402 1.0484c.09271 0 .183979.0367.25502.10773.142082.14208.142082.36796 0 .51004s-.367959.14208-.510039 0-.142082-.36796 0-.51004c.07104-.071.162308-.10773.255019-.10773z" fill="url(#n)"/><path d="m24.740331 283.3867v1.09753h-1.09753v.62716h1.09753v1.09753h.627159v-1.09753h1.09753v-.62716h-1.09753v-1.09753zm.313581 1.09753c.313578 0 .313578 0 .313578.31358s0 .31358-.313578.31358c-.313581 0-.313581 0-.313581-.31358s0-.31358.313581-.31358z" fill="url(#o)"/></g></g></svg>