<svg height="111" viewBox="0 0 33.866666 29.368751" width="128" xmlns="http://www.w3.org/2000/svg" xmlns:xlink="http://www.w3.org/1999/xlink"><linearGradient id="a"><stop offset="0" stop-color="#0968ef"/><stop offset="1" stop-color="#aecffc"/></linearGradient><linearGradient id="b"><stop offset="0" stop-color="#b900c4"/><stop offset="1" stop-color="#ae4300"/></linearGradient><linearGradient id="c" gradientUnits="userSpaceOnUse" x1="4.515485" x2="40.639366" y1="274.42258" y2="308.2887"><stop offset="0" stop-color="#fff"/><stop offset="1" stop-color="#e6e9ef"/></linearGradient><linearGradient id="d" gradientUnits="userSpaceOnUse" x1="26.98889634162" x2="29.15840289771" xlink:href="#a" y1="280.21407184356" y2="271.01701888138"/><linearGradient id="e" gradientUnits="userSpaceOnUse" x1="20.33237901593" x2="24.72249628358" xlink:href="#a" y1="281.93446823451" y2="271.27275761179"/><linearGradient id="f" gradientUnits="userSpaceOnUse" x1="15.98437052607" x2="20.37448779373" xlink:href="#a" y1="288.1870805959" y2="277.5253688443"/><linearGradient id="g" gradientTransform="matrix(.12823193 .12823193 -.12823193 .12823193 10.504577 265.62687)" gradientUnits="userSpaceOnUse" x1="151.13708" x2="91.471352" xlink:href="#b" y1="57.514717" y2="-2.151019"/><linearGradient id="h" gradientTransform="matrix(.12823193 .12823193 -.12823193 .12823193 5.451351 264.82381)" gradientUnits="userSpaceOnUse" x1="151.13708" x2="91.471352" xlink:href="#b" y1="57.514717" y2="-2.151019"/><linearGradient id="i" gradientTransform="matrix(.12823193 .12823193 -.12823193 .12823193 22.523749 270.69181)" gradientUnits="userSpaceOnUse" x1="88.08802" x2="81.050018" xlink:href="#b" y1="38.756317" y2="8.270314"/><linearGradient id="j" gradientUnits="userSpaceOnUse" x1="9.69815894279" x2="14.08827508156" xlink:href="#a" y1="292.34495070424" y2="281.68323951708"/><linearGradient id="k" gradientTransform="matrix(.12823193 .12823193 -.12823193 .12823193 9.13431 256.84099)" gradientUnits="userSpaceOnUse" x1="151.13708" x2="91.471352" xlink:href="#b" y1="57.514717" y2="-2.151019"/><linearGradient id="l" gradientTransform="matrix(.12823193 .12823193 -.12823193 .12823193 17.846532 274.29995)" gradientUnits="userSpaceOnUse" x1="91.461853" x2="60.924805" xlink:href="#b" y1="46.146072" y2="14.636454"/><linearGradient id="m" gradientUnits="userSpaceOnUse" x1="25.25164534162" x2="27.42115189771" xlink:href="#a" y1="289.96941184356" y2="280.77235888138"/><g transform="translate(0 -267.63124)"><rect fill="#c4cfe0" height="27.65732" rx=".055424" ry=".057719" width="32.172832" x=".564436" y="268.21378"/><path d="m123.73047 2.2011719v2.1347656c-.0667.0000007-.13463-.000001-.20117 0 .11216.00256.20117.096133.20117.2128906v101.9707019c0 .11838-.0907.21289-.20508.21289h-119.0527338c-.1143416 0-.2070312-.0945-.2070312-.21289v-1.61328l-2.1328125 1.82813 2.1328125 4.04296.2148438.22266h123.3046912l.21289-.22266v-106.2206994l-.21289-.2207031h.21289z" fill="#b6c2d4" fill-opacity=".916667" transform="matrix(.26458333 0 0 .26458333 0 267.63124)"/><rect fill="url(#c)" height="27.092916" rx=".054608" ry=".056536" width="31.608395" x="1.128871" y="268.7782"/><path d="m5.3808193 269.47764-.297842.56122-.595684 1.12245h.595684l-.0000223 21.88681h.595684l.0000223-21.88681h.5956841l-.5956841-1.12245z" fill="#797979" opacity=".613861"/><path d="m3.951049 289.10114h1.693307v.5612h-1.693307z" fill="#787878" fill-opacity=".615686"/><path d="m3.951049 284.58566h1.755803v.5612h-1.755803z" fill="#787878" fill-opacity=".615686"/><path d="m3.951049 280.07016h1.755803v.5612h-1.755803z" fill="#787878" fill-opacity=".615686"/><path d="m28.51338 293.32868-.595684.28061-1.191368.56122v-.56122l-21.6433061.00002v-.56122l21.6433061-.00002v-.56122l1.191368.56122z" fill="#797979" opacity=".613861"/><path d="m-294.74225-10.724277h1.686864v.595661h-1.686864z" fill="#787878" fill-opacity=".615686" transform="matrix(0 -1 -1 0 0 0)"/><path d="m-294.74225-19.755247h1.686864v.564436h-1.686864z" fill="#787878" fill-opacity=".615686" transform="matrix(0 -1 -1 0 0 0)"/><path d="m-294.74225-24.270733h1.670629v.589686h-1.670629z" fill="#787878" fill-opacity=".615686" transform="matrix(0 -1 -1 0 0 0)"/><path d="m-294.73581-15.239762h1.686864v.564436h-1.686864z" fill="#787878" fill-opacity=".615686" transform="matrix(0 -1 -1 0 0 0)"/><path d="m3.951049 275.55142h1.755803v.5612h-1.755803z" fill="#787878" fill-opacity=".615686"/><g stroke-width=".564444"><path d="m11.176918 271.66756-.515706.51571.895402.8954-.895402.89541.515706.51571.895402-.8954.895403.8954.515706-.51571-.895402-.89541.895402-.8954-.515706-.51571-.895403.8954zm.895402 1.04843c.09271 0 .183979.0367.25502.10773.142082.14208.142082.36796 0 .51004s-.367959.14208-.510039 0-.142082-.36796 0-.51004c.07104-.071.162308-.10773.255019-.10773z" fill="url(#k)"/><path d="m7.8166804 288.73878v1.09753h-1.0975289v.62716h1.0975289v1.09753h.62716v-1.09753h1.097529v-.62716h-1.097529v-1.09753zm.3135799 1.09753c.3135801 0 .3135801 0 .3135801.31358s0 .31358-.3135801.31358c-.3135799 0-.3135799 0-.3135799-.31358s0-.31358.3135799-.31358z" fill="url(#j)"/><path d="m24.566357 285.5184-.515707.51571.895403.8954-.895403.8954.515707.51569.895402-.8954.895403.8954.515706-.51569-.895402-.8954.895402-.8954-.515706-.51571-.895403.8954zm.895402 1.0484c.09271 0 .183979.0367.25502.10773.142082.14208.142082.36796 0 .51004s-.367959.14208-.510039 0-.142082-.36796 0-.51004c.07104-.071.162308-.10773.255019-.10773z" fill="url(#i)"/><path d="m7.4939597 279.65038-.515707.51571.895403.8954-.895403.8954.515707.51571.895402-.8954.895403.8954.515706-.51571-.895402-.8954.895402-.8954-.515706-.51571-.895403.8954zm.895402 1.04842c.09271 0 .183979.0367.255019.10773.142083.14208.142083.36796 0 .51004-.142082.14208-.367958.14208-.510038 0s-.142082-.36796 0-.51004c.07104-.071.162307-.10773.255019-.10773z" fill="url(#h)"/><path d="m12.547188 280.45344-.515706.51571.895403.89541-.895403.8954.515706.51571.895402-.8954.895403.8954.515707-.51571-.895403-.8954.895403-.89541-.515707-.51571-.895403.8954zm.895402 1.04843c.09271 0 .183978.0367.25502.10773.14208.14208.14208.36796 0 .51004s-.367959.14208-.510038 0c-.14208-.14208-.14208-.36796 0-.51004.07104-.071.162303-.10773.255018-.10773z" fill="url(#g)"/><path d="m14.102891 284.58092v1.09753h-1.097529v.62716h1.097529v1.09753h.62716v-1.09753h1.097529v-.62716h-1.097529v-1.09753zm.31358 1.09753c.31358 0 .31358 0 .31358.31358s0 .31358-.31358.31358-.31358 0-.31358-.31358 0-.31358.31358-.31358z" fill="url(#f)"/><path d="m18.450902 278.32831v1.09754h-1.097529v.62715h1.097529v1.09754h.627159v-1.09754h1.09753v-.62715h-1.09753v-1.09754zm.313578 1.09754c.313581 0 .313581 0 .313581.31358 0 .31357 0 .31357-.313581.31357-.313578 0-.313578 0-.313578-.31357 0-.31358 0-.31358.313578-.31358z" fill="url(#e)"/><path d="m26.477583 273.63136v1.09753h-1.09753v.62716h1.09753v1.09753h.627159v-1.09753h1.09753v-.62716h-1.09753v-1.09753zm.313581 1.09753c.313578 0 .313578 0 .313578.31358s0 .31358-.313578.31358c-.313581 0-.313581 0-.313581-.31358s0-.31358.313581-.31358z" fill="url(#d)"/><path d="m19.88914 289.12654-.515707.51571.895403.8954-.895403.8954.515707.51569.895402-.8954.895403.8954.515706-.51569-.895402-.8954.895402-.8954-.515706-.51571-.895403.8954zm.895402 1.0484c.09271 0 .183979.0367.25502.10773.142082.14208.142082.36796 0 .51004s-.367959.14208-.510039 0-.142082-.36796 0-.51004c.07104-.071.162308-.10773.255019-.10773z" fill="url(#l)"/><path d="m24.740331 283.3867v1.09753h-1.09753v.62716h1.09753v1.09753h.627159v-1.09753h1.09753v-.62716h-1.09753v-1.09753zm.313581 1.09753c.313578 0 .313578 0 .313578.31358s0 .31358-.313578.31358c-.313581 0-.313581 0-.313581-.31358s0-.31358.313581-.31358z" fill="url(#m)"/></g></g></svg>