<?xml version="1.0" encoding="UTF-8" standalone="no"?>
<svg
   xmlns:dc="http://purl.org/dc/elements/1.1/"
   xmlns:cc="http://creativecommons.org/ns#"
   xmlns:rdf="http://www.w3.org/1999/02/22-rdf-syntax-ns#"
   xmlns:svg="http://www.w3.org/2000/svg"
   xmlns="http://www.w3.org/2000/svg"
   xmlns:xlink="http://www.w3.org/1999/xlink"
   xmlns:sodipodi="http://sodipodi.sourceforge.net/DTD/sodipodi-0.dtd"
   xmlns:inkscape="http://www.inkscape.org/namespaces/inkscape"
   height="24"
   viewBox="0 0 6.3499999 6.3500002"
   width="24"
   version="1.1"
   id="svg20"
   sodipodi:docname="lc_bold.svg"
   inkscape:version="0.92.4 (unknown)"
   inkscape:export-filename="/home/rizmut/Dokumen/Rizmut/Github/libreoffice-style-karasa-jaga/build/next/cmd/ru/lc_bold.png"
   inkscape:export-xdpi="96"
   inkscape:export-ydpi="96">
  <metadata
     id="metadata26">
    <rdf:RDF>
      <cc:Work
         rdf:about="">
        <dc:format>image/svg+xml</dc:format>
        <dc:type
           rdf:resource="http://purl.org/dc/dcmitype/StillImage" />
        <dc:title></dc:title>
      </cc:Work>
    </rdf:RDF>
  </metadata>
  <defs
     id="defs24">
    <linearGradient
       inkscape:collect="always"
       xlink:href="#a"
       id="linearGradient22"
       gradientUnits="userSpaceOnUse"
       gradientTransform="matrix(1.0085453,0,0,1.0085453,-5.2883039,-270.51672)"
       x1="18.996088"
       y1="294.8226"
       x2="20.50679"
       y2="274.33044" />
    <linearGradient
       inkscape:collect="always"
       xlink:href="#b"
       id="linearGradient847"
       x1="75.6353"
       y1="11.638"
       x2="63.9991"
       y2="75.6371"
       gradientUnits="userSpaceOnUse" />
  </defs>
  <sodipodi:namedview
     pagecolor="#ffffff"
     bordercolor="#666666"
     borderopacity="1"
     objecttolerance="10"
     gridtolerance="10"
     guidetolerance="10"
     inkscape:pageopacity="0"
     inkscape:pageshadow="2"
     inkscape:window-width="1366"
     inkscape:window-height="706"
     id="namedview22"
     showgrid="true"
     inkscape:zoom="16"
     inkscape:cx="12.49217"
     inkscape:cy="9.2210544"
     inkscape:window-x="0"
     inkscape:window-y="0"
     inkscape:window-maximized="1"
     inkscape:current-layer="g837">
    <inkscape:grid
       type="xygrid"
       id="grid16"
       spacingx="0.13229167"
       spacingy="0.13229167" />
  </sodipodi:namedview>
  <linearGradient
     id="a"
     gradientUnits="userSpaceOnUse"
     x1="18.996088"
     x2="20.22575"
     y1="294.8226"
     y2="266.54037"
     gradientTransform="matrix(0.82,0,0,0.82,0.27763305,-213.00366)">
    <stop
       offset="0"
       stop-color="#555"
       id="stop2" />
    <stop
       offset="1"
       id="stop4" />
  </linearGradient>
  <linearGradient
     id="b"
     gradientUnits="userSpaceOnUse"
     x1="53.856667"
     x2="72.864624"
     y1="1.845663"
     y2="61.042988"
     gradientTransform="matrix(0.21695833,0,0,0.21695833,3.048,3.0518754)">
    <stop
       offset="0"
       stop-color="#3b3e22"
       id="stop7" />
    <stop
       offset="1"
       stop-color="#454545"
       stop-opacity="0"
       id="stop9" />
  </linearGradient>
  <g
     id="g837"
     transform="matrix(0.171875,0,0,0.171875,0.26462416,0.26454228)">
    <g
       aria-label="ж"
       style="font-size:41.24745941px;font-family:sans-serif;letter-spacing:0;word-spacing:0;fill:url(#linearGradient22);stroke-width:1.03118622"
       id="text20">
      <path
         d="m 13.91662,10.206967 q 0,-2.4307327 -2.083485,-2.6043564 V 6.560868 h 10.37402 v 1.0417426 q -1.519208,0.2170297 -1.909861,0.6510891 -0.347248,0.4340594 -0.347248,1.9532673 v 5.252119 h 0.911525 q 0.911525,0 1.60602,-0.824713 0.737901,-0.868119 1.041742,-1.692832 0.303842,-0.868119 0.651089,-1.996673 0.04341,-0.21703 0.08681,-0.347248 1.345585,-4.4274055 5.208713,-4.4274055 1.38899,0 2.257109,0.9115248 0.868119,0.9115247 0.868119,2.1268911 0,1.4758016 -0.824713,2.1702966 -0.824713,0.694495 -1.779643,0.694495 -1.345585,0 -1.996674,-1.215366 -0.04341,-0.130218 -0.217029,-0.564277 -0.130218,-0.4774655 -0.303842,-0.6944952 -0.130218,-0.2170297 -0.347248,-0.2170297 -0.607683,0 -0.998336,1.0851489 -0.390654,1.041742 -0.998337,2.691168 -0.607683,1.60602 -1.649426,2.517545 v 0.173623 q 1.866456,0.43406 3.125228,1.519208 1.302178,1.041743 1.866456,2.126891 0.564277,1.041743 1.302178,2.560951 0.737901,1.519208 1.38899,2.343921 0.868119,1.128554 2.126891,1.128554 v 1.041743 h -6.858139 l -3.429069,-7.552634 q -0.08681,-0.130218 -0.303842,-0.434059 -0.217029,-0.303842 -0.303841,-0.390654 -0.04341,-0.130218 -0.21703,-0.347247 -0.173624,-0.21703 -0.303841,-0.303842 -0.08681,-0.08681 -0.260436,-0.173624 -0.173624,-0.08681 -0.390654,-0.130218 -0.173623,-0.0434 -0.390653,-0.0434 h -0.868119 v 5.729584 q 0,1.519208 0.347248,1.953267 0.390653,0.434059 1.909861,0.651089 v 1.041743 H 11.833135 V 25.529264 Q 13.91662,25.35564 13.91662,22.924908 v -5.729584 h -0.868118 q -0.260436,0 -0.520872,0.08681 -0.217029,0.04341 -0.347247,0.130218 -0.130218,0.04341 -0.347248,0.303842 -0.217029,0.21703 -0.303841,0.303841 -0.04341,0.08681 -0.303842,0.477466 -0.260436,0.390653 -0.347247,0.520871 L 7.4491352,26.571007 H 0.59099651 v -1.041743 q 1.30217819,0 2.12689109,-1.128554 0.6510891,-0.824713 1.6494258,-3.038416 1.0417426,-2.257109 2.3439208,-3.602693 1.3021782,-1.38899 3.6895048,-1.909862 V 15.676116 Q 9.3589966,14.764591 8.7513134,13.158571 8.1436302,11.509145 7.7529768,10.467403 7.4057292,9.3822541 6.7980461,9.3822541 q -0.2170297,0 -0.3906535,0.2170297 -0.1736238,0.2170297 -0.3472475,0.6510892 -0.1302178,0.434059 -0.2170297,0.607683 -0.5642773,1.215366 -1.9532674,1.215366 -0.9549307,0 -1.7796436,-0.694495 -0.8247128,-0.694495 -0.8247128,-2.1702966 0,-1.2153664 0.8247128,-2.1268911 0.8681189,-0.9115248 2.257109,-0.9115248 3.9065347,0 5.2521188,4.4274055 0.9115248,3.081822 1.7362378,4.036753 0.694495,0.824713 1.649426,0.824713 h 0.911524 z"
         style="font-weight:bold;font-size:43.40594101px;font-family:FreeSerif;fill:url(#linearGradient22);stroke-width:1.03118622"
         id="path858" />
    </g>
    <path
       id="text26"
       transform="scale(0.26458334)"
       d="m 16.505859,26.005859 c -2.888922,0 -4.861454,0.833353 -6.5468746,2.583985 -1.6667142,1.849837 -2.4140625,3.767341 -2.4140625,6.214844 0,3.219263 0.7931756,5.004184 2.1542969,6.15039 1.6866412,1.420328 3.2529972,1.992188 5.0058592,1.992188 2.713861,0 3.877276,-0.740633 4.945313,-3.041016 a 2.6854929,2.6854929 0 0 1 0.03711,-0.07422 c 0.05805,-0.116107 0.340908,-0.835577 0.650391,-1.867187 a 2.6854929,2.6854929 0 0 1 0.07227,-0.220703 c 0.496138,-1.240392 1.007216,-2.25658 1.712891,-3.138672 0.779165,-0.973957 2.135178,-1.830078 3.574219,-1.830078 1.562186,0 3.090571,0.826731 4.066406,1.933593 0.975835,1.106863 1.58876,2.447053 2.095703,4.03125 l -0.03516,-0.125 c 0.985374,2.627664 2.236023,6.017672 3.763672,10.164063 1.160145,3.0661 2.798301,5.093815 4.517578,6.939453 -2.294268,-3.189275 -4.232584,-7.834455 -6.31836,-14.882812 l -0.0078,-0.02148 C 32.18954,35.595681 29.923251,31.919164 27.121094,29.556641 24.31447,27.190351 20.920156,26.005859 16.505859,26.005859 Z m 94.820311,0 c -4.35391,0 -7.7021,1.178288 -10.48242,3.542969 -2.780322,2.364681 -5.037487,6.050832 -6.628906,11.28711 a 2.6854929,2.6854929 0 0 1 -0.02148,0.06641 c -0.05828,0.174878 -0.150597,0.522529 -0.24414,0.990234 a 2.6854929,2.6854929 0 0 1 -0.06641,0.265625 c -0.882447,2.867955 -1.715572,5.410556 -2.496093,7.640625 a 2.6854929,2.6854929 0 0 1 -0.01367,0.04297 c -0.902959,2.450895 -2.39982,4.834331 -4.40625,7.197265 -2.122587,2.520567 -5.015966,4.076172 -8.121094,4.076172 h -3.447265 a 2.6854929,2.6854929 0 0 1 -2.6875,-2.6875 V 38.578125 c 0,-4.033235 0.07592,-6.773135 1.904296,-9.058594 a 2.6854929,2.6854929 0 0 1 0.103516,-0.117187 c 0.839985,-0.933315 1.914974,-1.456085 3.072266,-1.919922 H 49.695312 c 1.151075,0.610287 2.219846,1.346013 3.033204,2.363281 1.820364,2.276736 2.554687,5.287282 2.554687,8.732422 v 19.849609 a 2.6854929,2.6854929 0 0 1 -2.6875,2.6875 H 49.15625 c -2.976319,0 -5.739217,-1.389331 -7.839844,-3.652343 a 2.6854929,2.6854929 0 0 1 0.679688,1.783203 v 0.658203 a 2.6854929,2.6854929 0 0 1 -2.111328,2.621094 c -5.628654,1.22807 -9.728596,3.410628 -12.564454,6.435547 a 2.6854929,2.6854929 0 0 1 -0.0293,0.0293 c -0.869327,0.898305 -1.719233,1.907348 -2.552735,3.001954 a 75.635303,34.9086 0 0 0 12.365235,2.236328 l 1.570312,-3.458985 a 2.6854929,2.6854929 0 0 1 0.207031,-0.382812 L 40.1875,68.421875 c 0.643877,-0.965809 1.122659,-1.788286 0.988281,-1.519531 a 2.6854929,2.6854929 0 0 1 0.509766,-0.701172 l 1.0625,-1.054688 c 0.584762,-0.703444 1.086761,-1.306291 2.289062,-1.765625 0.530041,-0.278815 1.068345,-0.519943 1.63086,-0.642578 0.868622,-0.271181 1.761846,-0.435547 2.65039,-0.435547 h 3.277344 a 2.6854929,2.6854929 0 0 1 2.6875,2.6875 v 10.580078 a 75.635303,34.9086 0 0 0 2.898438,0.06641 75.635303,34.9086 0 0 0 14.529297,-0.681641 v -9.964844 a 2.6854929,2.6854929 0 0 1 2.6875,-2.6875 h 3.285156 c 0.700426,0 1.386405,0.07222 2.066406,0.236328 0.731618,0.151975 1.440067,0.384093 2.089844,0.708985 0.534425,0.267212 1.013604,0.597272 1.484375,1.025391 0.583241,0.432831 1.065683,0.905835 1.541015,1.5 0.308372,0.385477 0.497944,0.831572 0.732422,1.232421 0.46026,0.480613 0.794777,0.929098 1.328125,1.675782 0.556505,0.779111 0.944681,1.329124 1.195313,1.705078 a 2.6854929,2.6854929 0 0 1 0.207031,0.382812 l 0.714844,1.576172 a 75.635303,34.9086 0 0 0 10.820311,-2.8418 C 100.2401,68.91987 99.564413,68.333172 98.828125,67.744141 a 2.6854929,2.6854929 0 0 1 -0.08008,-0.06055 c -2.809194,-2.421687 -6.308915,-4.1541 -10.660156,-5.166016 a 2.6854929,2.6854929 0 0 1 -2.082032,-2.613281 v -0.658203 a 2.6854929,2.6854929 0 0 1 0.916016,-2.021485 c 2.230439,-1.951634 4.080727,-4.715021 5.492187,-8.445312 1.527648,-4.146395 2.7783,-7.536403 3.763672,-10.164063 l -0.0059,0.03711 c 0.567364,-1.576 1.231529,-2.903921 2.228516,-3.986328 0.996986,-1.082408 2.506182,-1.890625 4.068362,-1.890625 1.4004,0 2.82501,0.987155 3.51953,2.066406 0.69219,0.936198 1.13649,1.95613 1.48633,3.1875 0.32375,0.813833 0.52176,1.336031 0.67773,1.773437 1.26941,2.345439 2.58413,3.144532 5.14454,3.144532 1.75286,0 3.30901,-0.569842 4.99804,-1.992188 1.36352,-1.148224 2.16211,-2.932726 2.16211,-6.148437 0,-2.420746 -0.76169,-4.32126 -2.53906,-6.1875 -1.69399,-1.778682 -3.6805,-2.613282 -6.5918,-2.613282 z m -3.85156,12.023438 c -0.0224,-0.05644 -0.0229,-0.06321 -0.0469,-0.123047 l 0.0977,0.287109 c -0.0156,-0.05728 -0.0348,-0.107705 -0.0508,-0.164062 z M 42.748047,65.146484 c -0.02678,0.03221 -0.05288,0.06111 -0.08008,0.09375 l 0.169922,-0.183593 z m -1.431641,-7.683593 a 2.6854929,2.6854929 0 0 0 -0.136718,-0.142579 c 0.04433,0.04923 0.09177,0.09415 0.136718,0.142579 z m -0.136718,-0.142579 c -0.03906,-0.04337 -0.08252,-0.08101 -0.121094,-0.125 0.0083,0.0072 0.01317,0.02212 0.02148,0.0293 a 2.6854929,2.6854929 0 0 1 0.09961,0.0957 z"
       style="font-size:41.24745941px;font-family:sans-serif;letter-spacing:0;word-spacing:0;fill:url(#linearGradient847);fill-opacity:1;stroke-width:3.8973968"
       inkscape:connector-curvature="0" />
  </g>
</svg>
