<svg height="128" viewBox="0 0 33.866666 33.866668" width="128" xmlns="http://www.w3.org/2000/svg" xmlns:xlink="http://www.w3.org/1999/xlink"><linearGradient id="a" gradientUnits="userSpaceOnUse" x1="5.744856" x2="6.541121" xlink:href="#b" y1="288.61456" y2="276.18652"/><linearGradient id="b"><stop offset="0" stop-color="#06f"/><stop offset="1" stop-color="#80b3ff"/></linearGradient><linearGradient id="c" gradientUnits="userSpaceOnUse" x1="6.540745" x2="7.68603" xlink:href="#b" y1="271.0806" y2="261.5257"/><linearGradient id="d" gradientUnits="userSpaceOnUse" x1="4.8909636" x2="4.8909636" xlink:href="#b" y1="289.019339" y2="280.556658"/><linearGradient id="e" gradientUnits="userSpaceOnUse" x1="6.74257172322" x2="6.74257172322" xlink:href="#b" y1="281.54529393406" y2="270.07014160935"/><g font-family="Bitstream Vera Sans" font-size="19.985409" transform="translate(-9.634905 -265.097746)"><text stroke="url(#e)" stroke-linecap="round" stroke-linejoin="round" stroke-width="3.330902" transform="scale(1.0236447 .97690145)" x="2.548692" y="282.5004"><tspan style="font-weight:bold;font-size:9.911941;font-family:Liberation Sans;stroke-width:3.330902;stroke-linecap:round;stroke-linejoin:round;stroke:url(#e)" x="2.548692" y="282.5004">1</tspan></text><text fill="#bfd9ff" stroke-width="1.665451" x="2.802282" y="275.97507"><tspan fill="#bfd9ff" font-family="Liberation Sans" font-size="9.493093" font-weight="bold" stroke-width="1.665451" x="2.802282" y="275.97507">1</tspan></text></g><g font-family="Bitstream Vera Sans" font-size="15.140461" transform="matrix(1.32 0 0 1.32 -11.194737 -345.813363)"><text fill="none" stroke="url(#d)" stroke-linecap="round" stroke-linejoin="round" stroke-width="2.52341" transform="scale(1.0210954 .97934043)" x="3.260905" y="289.01932"><tspan style="font-weight:bold;font-size:7.380369;font-family:Liberation Sans;fill:none;stroke-width:2.52341;stroke-linecap:round;stroke-linejoin:round;stroke:url(#d)" x="3.260905" y="289.01932">2</tspan></text><text fill="#bfd9ff" stroke-width="1.261705" x="3.4144" y="283.04831"><tspan fill="#bfd9ff" font-family="Liberation Sans" font-size="7.227894" font-weight="bold" stroke-width="1.261705" x="3.4144" y="283.04831">2</tspan></text></g><g fill="#555"><path d="m12.323633 3.07923h18.498478v1.539354h-18.498478z"/><path d="m12.288969 7.69734h18.498478v1.539354h-18.498478z"/><path d="m12.288967 12.31547h13.880363v1.539354h-13.880363z"/><path d="m12.323629 20.01231h18.498478v1.539354h-18.498478z"/><path d="m12.288965 24.63041h18.498478v1.539354h-18.498478z"/><path d="m12.288965 29.24855h13.880363v1.539354h-13.880363z"/></g><g transform="matrix(1.2 0 0 1.2 -1.121999 -317.269257)"><path d="m4.8046875 265.98828a1.4134104 1.4134104 0 0 0 -1.328125.92969l-2.390625 6.55469a1.4134104 1.4134104 0 0 0 1.328125 1.89843h1.3710937a1.4134104 1.4134104 0 0 0 1.3359376-.95117l.2519531-.72461h.4863281l.25.72461a1.4134104 1.4134104 0 0 0 1.3359375.95117h1.359375a1.4134104 1.4134104 0 0 0 1.3281245-1.89648l-2.382812-6.55469a1.4134104 1.4134104 0 0 0 -1.328125-.93164z" fill="url(#c)"/><text style="font-size:10.583333;font-family:sans-serif;letter-spacing:0;word-spacing:0;fill:#bfd9ff;stroke-width:.264583" x="2.176407" y="273.95627"><tspan fill="#bfd9ff" font-family="Liberation Sans" font-size="9.525" font-weight="bold" stroke-width=".264583" x="2.176407" y="273.95627">A</tspan></text></g><g transform="matrix(1.2 0 0 1.2 -1.088199 -320.655279)"><path d="m2.5371094 282.82422a1.5125787 1.5125787 0 0 0 -1.5117188 1.51172v6.55273a1.5125787 1.5125787 0 0 0 1.5117188 1.51172h3.2792968c.4418691 0 .8786599-.0421 1.3046876-.13672a1.5125787 1.5125787 0 0 0 .013672-.004c.4515009-.10489.889414-.27651 1.2851563-.53321a1.5125787 1.5125787 0 0 0 .00586-.004c.4231267-.27645.7873616-.66209 1.0371094-1.10352a1.5125787 1.5125787 0 0 0 .00391-.006c.2796684-.50081.390625-1.06173.390625-1.59375 0-.66403-.3235038-1.34231-.7675781-1.88867.1580271-.3855.390625-.75402.390625-1.14844 0-.46812-.096949-.96679-.3339844-1.41992-.2271814-.44119-.5786607-.82206-.9804688-1.08594-.4005609-.263-.8345744-.41887-1.2734375-.51367-.4299337-.0966-.8794987-.13867-1.3554687-.13867zm6.4414062 4.0332.011719.0117c-.00221-.002-.0056-.002-.00781-.004-.00215-.002-.00174-.006-.00391-.008z" fill="url(#a)"/><text style="font-size:10.583333;font-family:sans-serif;letter-spacing:0;word-spacing:0;fill:#bfd9ff;stroke-width:.264583" x="1.899845" y="290.88937"><tspan fill="#bfd9ff" font-family="Liberation Sans" font-size="9.525" font-weight="bold" stroke-width=".264583" x="1.899845" y="290.88937">B</tspan></text></g></svg>