<svg height="128" viewBox="0 0 33.866666 33.866668" width="128" xmlns="http://www.w3.org/2000/svg" xmlns:xlink="http://www.w3.org/1999/xlink"><linearGradient id="a" gradientUnits="userSpaceOnUse" x1="98.9077" x2="98.9077" y1="46.5466" y2="162.9086"><stop offset="0" stop-color="#99999c"/><stop offset=".5" stop-color="#9c9ca1"/><stop offset="1" stop-color="#cdcdd1"/></linearGradient><linearGradient id="b" gradientUnits="userSpaceOnUse" x1="78.61085034347" x2="120.34349451992" y1="88.85241574791" y2="111.54715161013"><stop offset="0" stop-color="#fff"/><stop offset="1" stop-color="#ccc"/></linearGradient><linearGradient id="c" gradientUnits="userSpaceOnUse" x1="88.38102" x2="130.48599" y1="1008.9966" y2="1015.6953"><stop offset="0" stop-color="#7b7b7b"/><stop offset="1" stop-color="#797979" stop-opacity="0"/></linearGradient><clipPath id="d"><path d="m41.355614 933.74432h83.943993v117.52166h-83.943993z"/></clipPath><filter id="e" color-interpolation-filters="sRGB" height="1.073732" width="1.13754" x="-.06877" y="-.036866"><feGaussianBlur stdDeviation="1.0557314"/></filter><linearGradient id="f" gradientUnits="userSpaceOnUse" x1="100.83452" x2="116.42799" y1="37.992622" y2="80.92411"><stop offset="0" stop-color="#fff" stop-opacity=".683453"/><stop offset="1" stop-color="#fff" stop-opacity="0"/></linearGradient><linearGradient id="g" gradientTransform="matrix(.58291629 0 0 .66676377 62.177025 -566.68964)" gradientUnits="userSpaceOnUse" x1="63.011921" x2="63.011921" y1="945.89801" y2="1033.1569"><stop offset="0" stop-color="#545454" stop-opacity=".988"/><stop offset="1" stop-color="#ebebeb"/></linearGradient><linearGradient id="h" gradientTransform="matrix(.48045402 0 0 .66178602 128.73476 -578.51587)" gradientUnits="userSpaceOnUse" x1="-60.535713" x2="-60.357143" y1="979.50507" y2="1009.505"><stop offset="0" stop-color="#979797"/><stop offset=".148461" stop-color="#f6f6f6"/><stop offset=".28399727" stop-color="#e2e2e2"/><stop offset=".41198727" stop-color="#dedede"/><stop offset=".41198727" stop-color="#f6f6f6"/><stop offset="1" stop-color="#6b6b6b"/></linearGradient><linearGradient id="i" gradientTransform="matrix(.480454 0 0 .58309338 128.76683 499.76645)" gradientUnits="userSpaceOnUse" x1="-61.078979" x2="-60.6413" y1="-1056.658" y2="-1010.9131"><stop offset="0" stop-color="#777"/><stop offset=".18176934" stop-color="#a8a8a8"/><stop offset=".22864534" stop-color="#cdcdcd"/><stop offset=".34561315" stop-color="#f7f7f7"/><stop offset="1" stop-color="#fff"/></linearGradient><filter id="j"><feGaussianBlur stdDeviation="2.0786429"/></filter><radialGradient id="k" cx="109.42462" cy="127.15892" gradientTransform="matrix(.26458333 0 0 .26449477 -2.116667 264.08662)" gradientUnits="userSpaceOnUse" r="139.55859"><stop offset="0" stop-color="#b7b8b9"/><stop offset=".18851049" stop-color="#ececec"/><stop offset=".25718147" stop-color="#fafafa"/><stop offset=".30111277" stop-color="#fff"/><stop offset=".5313" stop-color="#fafafa"/><stop offset=".8449" stop-color="#ebecec"/><stop offset="1" stop-color="#e1e2e3"/></radialGradient><g transform="translate(0 -263.13332)"><path d="m11.6 11.8v118h116v-118z" filter="url(#j)" opacity=".553903" transform="matrix(.26458333 0 0 .26458333 -1.481668 261.75749)"/><path d="m2.1166656 265.14416-.010583 29.97729h29.2354654l.223242-.22324-.01058-29.75405z" fill="#fff" stroke-width=".264583"/><path d="m3.9687489 266.62582c-.1457854 0-.2645833.11885-.2645833.26459l-.058208 26.69116 26.0270614.005c.182918 0 .357188-.28218.357188-.48782l-.02646-26.15572c0-.14573-.118536-.26458-.264586-.26458z" fill="url(#k)" stroke-width=".264583"/><g fill="#404040" fill-opacity=".839216"><path d="m-28.496756 268.06335h23.126852v1.052596h-23.126852z" transform="scale(-1 1)"/><path d="m-28.496756 290.76083h23.126852v1.052596h-23.126852z" transform="scale(-1 1)"/><path d="m5.3696986 272.92032v1.05265h2.9651936c.081978-.35361.1901728-.70455.3224608-1.05265zm9.0940184 0c.02509.24942.04655.50128.06459.76275.01998.10177.04496.19213.06666.2899h3.931543a2.3979692 2.3979692 0 0 1 .674377-1.05265zm7.963338 0a2.3979692 2.3979692 0 0 1 .67231 1.05265h5.397605v-1.05265z"/><path d="m5.3696986 277.24822v1.05265h3.1129883c-.083385-.35277-.1553514-.70248-.2118733-1.05265zm10.7042554 0c.249396.31415.522734.60842.822172.89401.05644.0538.119099.10558.177767.15864h1.536857c-.112009-.31748-.213866-.66168-.294555-1.05265zm8.471834 0c.108654.298.236202.67799.362769 1.05265h3.588413v-1.05265z"/><path d="m5.3696986 282.10529v1.05265h5.0467204c-.20308-.33261-.395758-.68296-.57826-1.05265zm20.2034174 0c.01201.33768.02281.68861.03101 1.05265h2.892849v-1.05265z"/><path d="m5.3696986 286.43319v1.05214h10.2551874c-.70771-.30705-1.382409-.64485-2.021065-1.05214zm20.3031544 0c.0083.3701.0186.71971.02945 1.05214h2.794664v-1.05214zm-8.089947.5302c.000926.0159-.0283.0615-.0057.18759.000069-.001.00045-.005.000529-.006.0059-.1231.0034-.21238.0052-.18139z"/></g><path d="m23.329535 288.22803c-.113181-2.5186-.06915-6.62291-.32246-8.04699-1.638212-5.14498-1.658518-3.6062-2.192696-5.49063-.515054 1.66496-.07717 2.45878.51593 3.97871.270307 1.79563-.496046 3.89306-.773899 4.69491-3.996713-2.11319-7.382598-4.10731-8.383837-9.23065 0-.47745-.257965-2.22809-.257965-2.22809-1.7072 2.42841-1.627621 4.01046-.838383 6.84341 1.574952 4.88577 3.545719 5.89406 7.679891 7.40044.256437.0763 1.023139.1066 1.16084.39788.138324.22532.0074 1.11563.008 1.68101z" fill="#06f" fill-rule="evenodd"/></g><g transform="scale(.26458333)"><path d="m69.8172 46.546616h58.180996v81.453445h-58.180996z" fill="url(#a)"/><path d="m75.6353 52.3647h46.5448v69.817215h-46.5448z" fill="url(#b)"/><path clip-path="url(#d)" d="m92.81509 1029.6319c1.071428 1.4286 10.71429 15.3572 11.78571 13.5715 1.07143-1.7858 26.42857-25.3572 25-26.7858-1.42857-1.4285-33.928567-41.78567-33.928567-41.78567z" fill="url(#c)" fill-rule="evenodd" filter="url(#e)" opacity=".68" transform="matrix(.69309305 0 0 .69309305 41.153912 -600.6251)"/><path d="m75.6353 52.3647v47.28063c14.171661-16.500095 33.53848-23.157342 46.54439-25.022283v-22.257813z" fill="url(#f)" fill-rule="evenodd"/><path d="m87.2715 64.0009h23.2724v46.5448h-23.2724z" fill="url(#g)"/><path d="m89.925598 66.798828h17.686728v41.164684h-17.686728z" fill="#535353"/><path d="m93.0896 69.819h11.6362v17.4543h-11.6362z" fill="url(#h)"/><path d="m93.0896-116.3638h11.636201v29.0905h-11.636201z" fill="url(#i)" transform="scale(1 -1)"/></g></svg>