<svg height="128" viewBox="0 0 33.866666 33.866668" width="128" xmlns="http://www.w3.org/2000/svg" xmlns:xlink="http://www.w3.org/1999/xlink"><filter id="a"><feGaussianBlur stdDeviation="1.5999062"/></filter><linearGradient id="b" gradientTransform="matrix(.02142366 0 0 .03098456 -.332092 260.9232)" gradientUnits="userSpaceOnUse" x1="399.77466" x2="399.77466" y1="731.09662" y2="480.60214"><stop offset="0" stop-color="#cbcbcd"/><stop offset=".5" stop-color="#e0e0e2"/><stop offset="1" stop-color="#f2f2f2"/></linearGradient><linearGradient id="c" gradientTransform="matrix(.02142366 0 0 .03098456 20.736322 323.59667)" gradientUnits="userSpaceOnUse" x1="-333.0289" x2="-333.0289" y1="-1473.6504" y2="-776.61371"><stop offset="0" stop-color="#fff"/><stop offset=".49140647" stop-color="#fff"/><stop offset="1" stop-color="#dcdcdc"/></linearGradient><radialGradient id="d" cx="84.903702" cy="-130.14005" gradientTransform="matrix(.04899496 -.04899496 .04899496 .04899496 27.763383 298.48358)" gradientUnits="userSpaceOnUse" r="57.039597" xlink:href="#e"/><linearGradient id="e"><stop offset="0" stop-color="#3a0b02"/><stop offset="1" stop-color="#a21d07" stop-opacity=".382353"/></linearGradient><radialGradient id="f" cx="2.720703" cy="-66.273438" gradientTransform="matrix(.04899496 -.04899496 .04899496 .04899496 27.763383 298.48358)" gradientUnits="userSpaceOnUse" r="57.039597" xlink:href="#e"/><radialGradient id="g" cx="51.991096" cy="-78.028419" gradientTransform="matrix(.04899496 -.04899496 .04899496 .04899496 27.763383 298.48358)" gradientUnits="userSpaceOnUse" r="57.039597" xlink:href="#e"/><linearGradient id="h" gradientTransform="scale(1.0975951 .9110828)" gradientUnits="userSpaceOnUse" x1="26.091133" x2="31.500689" xlink:href="#i" y1="14.856744" y2="14.856744"/><linearGradient id="i"><stop offset="0" stop-color="#765c44"/><stop offset="1" stop-color="#765c44" stop-opacity="0"/></linearGradient><filter id="j" height="1.277481" width="1.279832" x="-.139916" y="-.138741"><feGaussianBlur stdDeviation=".28784801"/></filter><linearGradient id="k" gradientUnits="userSpaceOnUse" x1="304.88663" x2="345.62039" xlink:href="#i" y1="385.86127" y2="384.62384"/><linearGradient id="l" gradientUnits="userSpaceOnUse" spreadMethod="reflect" x1="88.60625" x2="91.575107" y1="13.510336" y2="13.510336"><stop offset="0" stop-color="#ff8787"/><stop offset="1" stop-color="#ff8787" stop-opacity="0"/></linearGradient><linearGradient id="m" gradientUnits="userSpaceOnUse" spreadMethod="reflect" x1="31.60625" x2="34.575107" y1="13.510336" y2="13.510336"><stop offset="0" stop-color="#fff"/><stop offset="1" stop-color="#790000" stop-opacity="0"/></linearGradient><radialGradient id="n" cx="50.424522" cy="-81.945961" gradientTransform="matrix(.04899496 -.04899496 .04899496 .04899496 27.763382 298.48358)" gradientUnits="userSpaceOnUse" r="50.15279"><stop offset="0" stop-color="#db3424"/><stop offset="1" stop-color="#b32016"/></radialGradient><linearGradient id="o" gradientTransform="matrix(.04899496 -.04899496 .04899496 .04899496 27.763383 298.48358)" gradientUnits="userSpaceOnUse" x1="50.06789" x2="59.441998" y1="-154.40843" y2="-71.617722"><stop offset="0" stop-color="#fff"/><stop offset="1" stop-color="#fcf3f3" stop-opacity="0"/></linearGradient><g transform="matrix(1.45455 0 0 1.45455 -.000053 -399.67401)"><path d="m9.3814603 6.4002109h77.2232807c.76597 0 1.38261.72808 1.38261 1.63246v60.7371801c0 .90439-.61664 1.63247-1.38261 1.63247h-77.2232807c-.765966 0-1.38261-.72808-1.38261-1.63247v-60.7371801c0-.90438.616644-1.63246 1.38261-1.63246z" style="opacity:.4;fill:none;stroke:#000;stroke-width:4;stroke-linecap:round;stroke-linejoin:round;stroke-dashoffset:4;filter:url(#a)" transform="matrix(.26458333 0 0 .26458333 -1.056508 276.25632)"/><path d="m1.4242005 277.94999h20.4349305c.20269 0 .365869.19263.365869.43191v16.06951h-21.1666674v-16.06951c0-.23928.163177-.43191.3658679-.43191z" fill="url(#b)"/><path d="m13.9017 281.90108v-.50836z" fill="#fff" fill-opacity=".756881"/><path d="m1.4221355 277.94999c-.202691 0-.3638021.19067-.3638021.42994v16.07344c0 .23928.1611111.42995.3638021.42995h20.4390625c.202692 0 .363802-.19067.363802-.42995v-16.07344c0-.23927-.16111-.42994-.363802-.42994zm.2480468.64492h19.9429687c.192556 0 .347266.18063.347266.40514v15.21354c0 .22451-.15471.40515-.347266.40515h-19.9429687c-.1925563 0-.3472656-.18064-.3472656-.40515v-15.21354c0-.22451.1547093-.40514.3472656-.40514z" fill="url(#c)"/><path d="m1.0583334 283.24165v2.91042.96997 2.91041.97049 3.88038h6.3499999 1.0583333 6.3500004 1.058333 6.35v-3.88038-.97049-2.91041-.96997-2.91042h-6.35-1.058333-6.3500004-1.0583333z" fill="#fff"/><g fill="#cfcfd1"><path d="m3.174999 285.35831h7.408333v1.058333h-7.408333z"/><path d="m12.7 285.35831h7.408334v1.058333h-7.408334z"/><path d="m3.174999 289.59164h7.408333v1.058333h-7.408333z"/><path d="m12.7 289.59164h7.408334v1.058333h-7.408334z"/><path d="m3.174999 291.70831h7.408333v1.058333h-7.408333z"/><path d="m12.7 291.70831h7.408334v1.058333h-7.408334z"/><path d="m3.174999 287.47498h7.408333v1.058333h-7.408333z"/><path d="m12.7 287.47498h7.408334v1.058333h-7.408334z"/></g></g><g transform="matrix(.96659213 .96659213 -.96659213 .96659213 283.93932 -299.125769)"><path d="m24.529657 285.13245c-.26354-.00001-.477184.21364-.477176.47718v4.22195h-4.222095c-.263541 0-.477184.21364-.477177.47718l.000001 1.68933c-.000008.26354.213636.47719.477176.47718h4.222095v4.22196c-.000008.26354.213636.47718.477176.47717h1.689334c.263541.00001.477184-.21363.477176-.47717v-4.22196h4.22196c.26354.00001.477184-.21364.477176-.47718v-1.68933c.000008-.26354-.213636-.47718-.477176-.47718h-4.22196v-4.22195c.000008-.26354-.213636-.47719-.477177-.47718z" fill="url(#d)"/><path d="m24.529657 285.13245c-.26354-.00001-.477184.21364-.477176.47718v4.22195h-4.222095c-.263541 0-.477184.21364-.477177.47718l.000001 1.68933c-.000008.26354.213636.47719.477176.47718h4.222095v4.22196c-.000008.26354.213636.47718.477176.47717h1.689334c.263541.00001.477184-.21363.477176-.47717v-4.22196h4.22196c.26354.00001.477184-.21364.477176-.47718v-1.68933c.000008-.26354-.213636-.47718-.477176-.47718h-4.22196v-4.22195c.000008-.26354-.213636-.47719-.477177-.47718z" fill="url(#f)"/><path d="m24.529657 285.13245c-.26354-.00001-.477184.21364-.477176.47718v4.22195h-4.222095c-.263541 0-.477184.21364-.477177.47718l.000001 1.68933c-.000008.26354.213636.47719.477176.47718h4.222095v4.22196c-.000008.26354.213636.47718.477176.47717h1.689334c.263541.00001.477184-.21363.477176-.47717v-4.22196h4.22196c.26354.00001.477184-.21364.477176-.47718v-1.68933c.000008-.26354-.213636-.47718-.477176-.47718h-4.22196v-4.22195c.000008-.26354-.213636-.47719-.477177-.47718z" fill="url(#g)"/><path d="m24.529657 285.13245c-.26354-.00001-.477184.21364-.477176.47718v4.22195h-4.222095c-.263541 0-.477184.21364-.477177.47718l.000001 1.68933c-.000008.26354.213636.47719.477176.47718h4.222095v4.22196c-.000008.26354.213636.47718.477176.47717h1.689334c.263541.00001.477184-.21363.477176-.47717v-4.22196h4.22196c.26354.00001.477184-.21364.477176-.47718v-1.68933c.000008-.26354-.213636-.47718-.477176-.47718h-4.22196v-4.22195c.000008-.26354-.213636-.47719-.477177-.47718z" fill="#56331f" fill-opacity=".905882"/><g fill-rule="evenodd"><path d="m31.7 16 2.875-3.375c-1.051205-1.695758-3.935136-2.288018-5.9375-.3125l2.8125 3.375z" fill="url(#h)" filter="url(#j)" opacity=".498127" transform="matrix(.10334550056 .10334550056 .10433788775 -.10433788775 19.83881399383 294.77188758131)"/><path d="m31.7 16 2.875-3.375c-1.051205-1.695758-3.935136-2.288018-5.9375-.3125l2.8125 3.375z" fill="url(#h)" filter="url(#j)" opacity=".790262" transform="matrix(-.10304201086 .10304201086 -.10206195015 -.10206195015 35.51902798643 290.10274702489)"/><path d="m31.7 16 2.875-3.375c-1.051205-1.695758-3.935136-2.288018-5.9375-.3125l2.8125 3.375z" fill="url(#k)" filter="url(#j)" opacity=".498127" transform="matrix(.09358445236 .09358445236 -.09448310814 .09448310814 29.19785816765 286.02786786491)"/><path d="m88.7 16 2.875-3.375c-1.051205-1.695758-3.935136-2.288018-5.9375-.3125l2.8125 3.375z" fill="url(#l)" filter="url(#j)" opacity=".790262" transform="matrix(-.09448310814 .09448310814 -.09358445236 -.09358445236 35.85402148491 289.60759368369)"/><path d="m31.7 16 2.875-3.375c-1.051205-1.695758-3.935136-2.288018-5.9375-.3125l2.8125 3.375z" fill="url(#m)" filter="url(#j)" opacity=".790262" transform="matrix(-.08592420543 .08592420543 .08510695611 .08510695611 26.05379987113 281.71607465181)"/><path d="m88.7 16 2.875-3.375c-1.051205-1.695758-3.935136-2.288018-5.9375-.3125l2.8125 3.375z" fill="url(#l)" filter="url(#j)" opacity=".790262" transform="matrix(-.08821460024 .08821460024 .08737556707 .08737556707 26.43193340575 281.29508109577)"/></g><path d="m24.529657 285.60963v4.69913h-4.699271v1.68933h4.699271v4.69914h1.689334v-4.69914h4.699136v-1.68933h-4.699136l-.000001-4.69913z" fill="url(#n)"/><path d="m19.8304 290.30869-.000001 1.68937h4.699316l-.000069 4.69922h1.68937v-4.69912h4.699124v-1.68937h-4.699124l-.000001-4.69912h-1.689368v4.69912zm.12.12 4.57922.0001c.06628.00001.120006-.0537.119999-.12v-4.57912h1.44937v4.57912c-.000006.0663.05372.12001.12.12h4.579124v1.44937h-4.579124c-.06628-.00001-.120006.0537-.12.12v4.57912h-1.44937l.000069-4.57921c.000006-.0663-.05372-.12001-.12-.12h-4.579315z" fill="#f4caca" fill-opacity=".779412"/><path d="m19.8304 290.30869-.000001 1.68937h4.699316v.96754c.63875-.89522 1.64386-2.06887 1.87767-2.65634l-.188396-.00047-.000001-4.69912h-1.689368v4.69912z" fill="url(#o)" fill-rule="evenodd"/></g></svg>