<svg height="128" viewBox="0 0 33.866666 33.866668" width="128" xmlns="http://www.w3.org/2000/svg" xmlns:xlink="http://www.w3.org/1999/xlink"><filter id="a"><feGaussianBlur stdDeviation="1.5999062"/></filter><linearGradient id="b" gradientTransform="matrix(.03116178 0 0 .04506859 -.483098 242.98515)" gradientUnits="userSpaceOnUse" x1="399.77466" x2="399.77466" y1="731.09662" y2="480.60214"><stop offset="0" stop-color="#cbcbcd"/><stop offset=".5" stop-color="#e0e0e2"/><stop offset="1" stop-color="#f2f2f2"/></linearGradient><linearGradient id="c" gradientTransform="matrix(.03116178 0 0 .04506859 30.161964 334.14685)" gradientUnits="userSpaceOnUse" x1="-333.0289" x2="-333.0289" y1="-1473.6504" y2="-776.61371"><stop offset="0" stop-color="#fff"/><stop offset=".49140647" stop-color="#fff"/><stop offset="1" stop-color="#dcdcdc"/></linearGradient><linearGradient id="d" gradientUnits="userSpaceOnUse" x1="20.01213011133" x2="20.01213011133" y1="281.60604336465" y2="275.44844848465"><stop offset="0" stop-color="#e8e8e8"/><stop offset=".234375" stop-color="#fff"/><stop offset=".69675177" stop-color="#ededed"/><stop offset=".90625" stop-color="#6c6c6c"/><stop offset="1" stop-color="#2b2b2b"/></linearGradient><linearGradient id="e" gradientUnits="userSpaceOnUse" x1="10.77573779133" x2="12.31513651133" xlink:href="#f" y1="278.52724592465" y2="278.52724592465"/><linearGradient id="f"><stop offset="0" stop-color="#aaa"/><stop offset="1" stop-color="#aaa" stop-opacity="0"/></linearGradient><linearGradient id="g" gradientUnits="userSpaceOnUse" x1="-30.78791720867" x2="-29.24851848867" xlink:href="#f" y1="278.52724592465" y2="278.52724592465"/><linearGradient id="h" gradientTransform="matrix(.26458333 0 0 .25823082 -.654811 -304.29908)" gradientUnits="userSpaceOnUse" x1="101.3308" x2="101.3308" y1="51.34185" y2="66.668198"><stop offset="0" stop-color="#cbcbcd"/><stop offset=".66545075" stop-color="#e0e0e2"/><stop offset="1" stop-color="#fff"/></linearGradient><filter id="i"><feGaussianBlur stdDeviation=".50622511"/></filter><filter id="j" color-interpolation-filters="sRGB" height="1.072142" width="1.071866" x="-.035933" y="-.036071"><feGaussianBlur stdDeviation=".66434216"/></filter><radialGradient id="k" cx="-55.685837" cy="-347.11612" gradientTransform="matrix(-.89528211 -.23989009 .26001404 -.9703857 -29.034684 -654.02683)" gradientUnits="userSpaceOnUse" r="22.14249"><stop offset="0" stop-color="#82c133"/><stop offset="1" stop-color="#72b028"/></radialGradient><linearGradient id="l" gradientUnits="userSpaceOnUse" x1="328.12448" x2="336.98077" y1="120.81158" y2="87.759453"><stop offset="0" stop-color="#96ff00"/><stop offset="1" stop-color="#609800"/></linearGradient><clipPath id="m"><circle cx="343.91208" cy="92.325096" r="36" transform="matrix(.86602539 .50000002 .49999965 -.86602561 0 0)"/></clipPath><filter id="n"><feGaussianBlur stdDeviation="2.8805897"/></filter><radialGradient id="o" cx="343.99899" cy="92" gradientTransform="matrix(.47032074 0 0 .4703204 -235.54627 -330.99181)" gradientUnits="userSpaceOnUse" r="36"><stop offset="0" stop-color="#e5ff00"/><stop offset="1" stop-color="#bff500" stop-opacity="0"/></radialGradient><linearGradient id="p" gradientUnits="userSpaceOnUse" x1="122.000035" x2="122.000035" y1="61.999997" y2="9.932843"><stop offset="0" stop-color="#004d00" stop-opacity="0"/><stop offset=".5" stop-color="#004d00"/><stop offset="1" stop-color="#004d00" stop-opacity="0"/></linearGradient><filter id="q"><feGaussianBlur stdDeviation="1.04"/></filter><linearGradient id="r" gradientTransform="matrix(0 .47393418 -.47393451 0 83.152635 278.87871)" gradientUnits="userSpaceOnUse" x1="-80.00296" x2="-45.096584" y1="-131.93112" y2="-131.93112"><stop offset="0" stop-color="#fff"/><stop offset="1" stop-color="#fff" stop-opacity="0"/></linearGradient><g transform="translate(0 -263.13332)"><path d="m9.3814603 6.4002109h77.2232807c.76597 0 1.38261.72808 1.38261 1.63246v60.7371801c0 .90439-.61664 1.63247-1.38261 1.63247h-77.2232807c-.765966 0-1.38261-.72808-1.38261-1.63247v-60.7371801c0-.90438.616644-1.63246 1.38261-1.63246z" style="opacity:.4;fill:none;stroke:#000;stroke-width:4;stroke-linecap:round;stroke-linejoin:round;stroke-dashoffset:4;filter:url(#a)" transform="matrix(.38484968 0 0 .38484968 -1.536797 265.28794)"/><path d="m2.0715174 267.75147h29.7236286c.294822 0 .532174.28019.532174.62823v23.37391h-30.7879758v-23.37391c0-.34804.2373492-.62823.5321732-.62823z" fill="url(#b)"/><path d="m2.0685138 267.75147c-.2948242 0-.5291684.27734-.5291684.62537v23.37962c0 .34804.2343442.62538.5291684.62538h29.7296382c.294826 0 .529168-.27734.529168-.62538v-23.37962c0-.34803-.234342-.62537-.529168-.62537zm.3607964.93807h29.0080448c.280083 0 .505116.26273.505116.58929v22.12886c0 .32656-.225033.58931-.505116.58931h-29.0080448c-.2800827 0-.5051152-.26275-.5051152-.58931v-22.12886c0-.32656.2250325-.58929.5051152-.58929z" fill="url(#c)"/><g transform="matrix(1.3845916 0 0 .99998322 -11.841249 -1.5344)"><rect fill="url(#d)" height="6.157596" rx="1.078735" ry="1.539399" width="20.012182" x="10.775736" y="275.44843"/><rect fill="url(#e)" height="6.157596" rx="1.040345" ry="1.539399" width="4.618197" x="10.775736" y="275.44843"/><rect fill="url(#g)" height="6.157596" rx=".963569" ry="1.539399" transform="scale(-1 1)" width="4.618195" x="-30.78792" y="275.44843"/></g><rect fill-opacity=".924855" filter="url(#i)" height="12.74204" rx="1.998241" ry="2.747028" transform="matrix(.35105194758 0 0 -.3193817523 -43.61829813976 179.80698063397)" width="47.998806" x="146.29366" y="-344.5433"/><rect fill="url(#h)" height="3.527703" rx=".766373" ry=".759892" transform="matrix(1.3347929 0 0 -1.2876134 -15.85599 -85.893963)" width="12.699682" x="17.638449" y="-291.35568"/><text font-family="sans-serif" font-size="4.636236" letter-spacing="0" stroke-width=".115906" word-spacing="0" x="12.727488" y="288.65277"><tspan font-family="FreeSans" font-weight="600" stroke-width=".115906" x="12.727488" y="288.65277">OK</tspan></text><g transform="matrix(.38484969 0 0 .38484969 -31.024447 172.08482)"><ellipse cx="-207.73613" cy="212.29665" fill="none" rx="20.523085" ry="20.523069" stroke-width=".570085" transform="matrix(-.96592587 -.2588189 -.25881915 .9659258 0 0)"/><ellipse cx="-59.830322" cy="-331.66757" fill="#292929" filter="url(#j)" rx="22.14249" ry="22.142477" transform="matrix(-.89809327 .23387197 -.24064319 -.8728227 12.164424 -15.390993)"/><ellipse cx="-73.756378" cy="-287.72238" fill="url(#k)" rx="20.523085" ry="20.523069" transform="matrix(-.96592587 .25881888 -.25881888 -.96592587 0 0)"/><circle cx="343.99899" cy="92" r="36" style="opacity:.8;fill:none;stroke-width:6.751382;clip-path:url(#m);stroke:url(#l);filter:url(#n)" transform="matrix(-.55066046 -.14754894 -.14754899 .55066008 348.7124 258.92482)"/><ellipse cx="-73.756401" cy="-287.72238" fill="url(#o)" rx="16.931545" ry="16.931536" stroke-width=".470321" transform="matrix(-.96592583 .25881905 -.25881905 -.96592583 0 0)"/><path d="m120.01465 24.819615v9.194998h-7.32125v3.970777h7.32125v9.194998h3.97076v-9.194998h7.32126v-3.970777h-7.32126v-9.194998z" style="fill:none;stroke-width:4;stroke-linecap:round;stroke-linejoin:round;stroke:url(#p);filter:url(#q)" transform="matrix(1.2017106 0 0 1.2017106 -.897549 217.33317)"/><path d="m141.84828 244.34507v10.13508h-10.13507v7.72576h10.13507v10.13508h7.7258v-10.13508h10.13506v-7.72576h-10.13506v-10.13508z" fill="#fff" fill-rule="evenodd"/><path d="m145.71127 240.96258c-7.27803 0-13.35947 5.13926-14.82526 11.98165 2.92172 2.72366 8.46549 4.56161 14.82526 4.56161s11.90353-1.83795 14.82523-4.56161c-1.46576-6.84239-7.54721-11.98165-14.82523-11.98165z" fill="url(#r)" opacity=".8" stroke-width=".789785"/></g></g></svg>