<svg height="128" width="128" xmlns="http://www.w3.org/2000/svg" xmlns:xlink="http://www.w3.org/1999/xlink"><linearGradient id="a" gradientTransform="matrix(.15944229 0 0 1.4229404 16.609562 -9.121993)" gradientUnits="userSpaceOnUse" x1="46.048" x2="46.048" y1="128.01709" y2="16.6203"><stop offset="0" stop-color="#c7cdd7"/><stop offset="1" stop-color="#fff"/></linearGradient><linearGradient id="b" gradientUnits="userSpaceOnUse" x1="132.69344" x2="132.69344" y1="-23.28325" y2="110.53305"><stop offset="0" stop-color="#fff"/><stop offset="1" stop-color="#555"/></linearGradient><linearGradient id="c" gradientTransform="matrix(.86194072 0 0 1.0908937 10.564374 -13.101573)" gradientUnits="userSpaceOnUse" x1="8" x2="80" y1="36" y2="112"><stop offset="0" stop-color="#c8ffa5"/><stop offset="1" stop-color="#dfffcb"/></linearGradient><linearGradient id="d" gradientUnits="userSpaceOnUse" x1="132.69344" x2="132.69344" y1="-23.28325" y2="110.53305"><stop offset="0" stop-color="#48940b" stop-opacity=".831373"/><stop offset="1" stop-color="#48940b" stop-opacity=".831373"/></linearGradient><linearGradient id="e" gradientTransform="matrix(-.72842389 0 0 .72842389 136.53692 76.133385)" gradientUnits="userSpaceOnUse" x1="113.15723" x2="-12.496982" y1="25.786163" y2="111.87242"><stop offset="0" stop-color="#bbd6ff"/><stop offset="1" stop-color="#0057ae"/></linearGradient><linearGradient id="f" gradientTransform="matrix(2.9353705 0 0 -2.9353705 -208.52627 276.26646)" gradientUnits="userSpaceOnUse" x1="104" x2="104" y1="120" y2="57.11084"><stop offset="0" stop-color="#d4e2f3"/><stop offset="1" stop-color="#fff" stop-opacity="0"/></linearGradient><linearGradient id="g" gradientUnits="userSpaceOnUse" x1="49.126709" x2="110.7258" y1="80.100243" y2="80.100243"><stop offset="0" stop-color="#fff"/><stop offset="1" stop-color="#fff" stop-opacity="0"/></linearGradient><filter id="h" color-interpolation-filters="sRGB" height="1.024067" width="1.023933" x="-.011966" y="-.012034"><feGaussianBlur stdDeviation=".30713451"/></filter><linearGradient id="i" gradientUnits="userSpaceOnUse" x1="58.181" x2="98.9077" y1="58.1828" y2="104.7276"><stop offset="0" stop-color="#2c72c7"/><stop offset="1" stop-color="#00438a"/></linearGradient><path d="m17.4599 17.443451h17.4543v87.2715h-17.4543z" fill="url(#a)"/><path d="m11.6418 11.6436v5.8125 17.4375 5.8125 17.46875 5.8125 17.4375.03125 5.78125.0625 17.40625 5.84375h5.8125 17.46875 5.808594v-69.833984h.0039v-.0098h34.90625 5.8125l23.271496.0168v.0098h5.8125v-.0098h.008v-5.8125h-.008v-17.437466h.008v-5.8125h-.008-5.8125l-23.27149-.0168h-5.8125-34.90625-5.8125-17.46875zm5.8125 5.8125h17.46875v17.4375h-17.46875zm23.28125 0h34.90625v17.4375h-34.90625zm40.71875 0 23.2715.0168v17.4375l-23.2715-.0168zm-64 23.25h17.46875v17.46875h-17.46875zm0 23.28125h17.46875v17.4375h-17.46875zm0 23.3125h17.46875v17.40625h-17.46875z" fill="url(#b)"/><path d="m17.4599 17.443451h93.0896v17.4543h-93.0896z" fill="url(#c)"/><path d="m11.642578 11.644531v5.8125 17.4375 5.8125.0098h5.8125v-.0098h17.46875v.0098h5.808594.0039v-.0098l17.445313.02148h5.8125l17.458984-.0078v.0078h5.818359v-.0098l17.454316.0042v.0098h5.8125v-.0098h.008v-5.8125h-.008v-17.437511h.008v-5.8125h-.008-5.8125l-40.731659.0056h-5.8125l-17.445313-.02149h-5.8125-17.46875zm5.8125 5.8125h17.46875v17.4375h-17.46875zm23.28125 0 17.445313.02148v17.4375l-17.445313-.02148zm63.989472.015869v17.4375l-17.454316-.0042v-17.4375zm-23.272675-.0022v17.4375l-17.458984.0078v-17.4375z" fill="url(#d)"/><path d="m96.191163 49.472884-14.555863 14.709916 11.6418-.01265c3.427017 28.243454-11.458223 31.008984-29.455078 29.445312l.358978-11.978362-15.05429 14.892425 15.05429 14.198075-.358978-11.284013c29.512283 4.675173 38.443358-9.702473 35.283203-35.273437l11.620575.01265z" fill="none" stroke="url(#i)" stroke-linecap="round" stroke-linejoin="round" stroke-width="8"/><path d="m96.191163 49.472884-14.555863 14.709916 11.6418-.01265c3.427017 28.243454-11.458223 31.008984-29.455078 29.445312l.358978-11.978362-15.05429 14.892425 15.05429 14.198075-.358978-11.284013c29.512283 4.675173 38.443358-9.702473 35.283203-35.273437l11.620575.01265z" fill="url(#e)" fill-rule="evenodd"/><path d="m96.191406 49.472656-11.179687 11.298828v3.408204l8.265625-.0098c1.868101 15.395785-1.713091 23.210506-8.265625 26.890625v7.65625c12.573615-4.224641 16.307631-16.632808 14.09375-34.546841l9.388671.01172v-2.257813z" fill="url(#f)" fill-rule="evenodd"/><path d="m96.191163 49.472884-14.555863 14.709916 11.6418-.01265c3.427017 28.243454-11.458223 31.008984-29.455078 29.445312l.358978-11.978362-15.05429 14.892425 15.05429 14.198075-.358978-11.284013c29.512283 4.675173 38.443358-9.702473 35.283203-35.273437l11.620575.01265z" fill="none" filter="url(#h)" stroke="url(#g)" stroke-width=".7"/></svg>