<?xml version="1.0" encoding="UTF-8" standalone="no"?>
<!-- Created with Inkscape (http://www.inkscape.org/) -->

<svg
   xmlns:i="http://ns.adobe.com/AdobeIllustrator/10.0/"
   xmlns:dc="http://purl.org/dc/elements/1.1/"
   xmlns:cc="http://creativecommons.org/ns#"
   xmlns:rdf="http://www.w3.org/1999/02/22-rdf-syntax-ns#"
   xmlns:svg="http://www.w3.org/2000/svg"
   xmlns="http://www.w3.org/2000/svg"
   xmlns:xlink="http://www.w3.org/1999/xlink"
   xmlns:sodipodi="http://sodipodi.sourceforge.net/DTD/sodipodi-0.dtd"
   xmlns:inkscape="http://www.inkscape.org/namespaces/inkscape"
   width="128"
   height="128"
   viewBox="0 0 33.866666 33.866668"
   version="1.1"
   id="svg2359"
   inkscape:version="0.92.3 (unknown)"
   sodipodi:docname="lc_dbaddrelation.svg"
   inkscape:export-filename="/home/rizmut/Dokumen/Rizmut/Github/libreoffice-style-karasa-jaga/build/images_karasa_jaga/cmd/lc_dbaddrelation.png"
   inkscape:export-xdpi="16.500002"
   inkscape:export-ydpi="16.500002">
  <defs
     id="defs2353">
    <filter
       inkscape:collect="always"
       id="filter8972">
      <feGaussianBlur
         inkscape:collect="always"
         stdDeviation="1.5999062"
         id="feGaussianBlur8974" />
    </filter>
    <linearGradient
       inkscape:collect="always"
       xlink:href="#linearGradient7422"
       id="linearGradient9443"
       gradientUnits="userSpaceOnUse"
       gradientTransform="matrix(0.06470556,0,0,0.11021838,95.499827,172.30263)"
       x1="399.77466"
       y1="731.09662"
       x2="399.77466"
       y2="480.60214" />
    <linearGradient
       id="linearGradient7422">
      <stop
         id="stop7424"
         offset="0"
         style="stop-color:#cbcbcd;stop-opacity:1;" />
      <stop
         style="stop-color:#e0e0e2;stop-opacity:1;"
         offset="0.5"
         id="stop7426" />
      <stop
         id="stop7428"
         offset="1"
         style="stop-color:#f2f2f2;stop-opacity:1;" />
    </linearGradient>
    <linearGradient
       inkscape:collect="always"
       xlink:href="#linearGradient4711"
       id="linearGradient9445"
       gradientUnits="userSpaceOnUse"
       gradientTransform="matrix(0.06470556,0,0,0.11021838,159.13243,395.2449)"
       x1="-333.0289"
       y1="-1473.6504"
       x2="-333.0289"
       y2="-776.61371" />
    <linearGradient
       id="linearGradient4711">
      <stop
         style="stop-color:#ffffff;stop-opacity:1;"
         offset="0"
         id="stop4713" />
      <stop
         id="stop4715"
         offset="0.49140647"
         style="stop-color:#ffffff;stop-opacity:1;" />
      <stop
         style="stop-color:#dcdcdc;stop-opacity:1;"
         offset="1"
         id="stop4717" />
    </linearGradient>
    <linearGradient
       inkscape:collect="always"
       xlink:href="#XMLID_2_"
       id="linearGradient4706"
       gradientUnits="userSpaceOnUse"
       x1="28"
       y1="57.5"
       x2="28"
       y2="0" />
    <linearGradient
       y2="0"
       x2="28"
       y1="57.5"
       x1="28"
       gradientUnits="userSpaceOnUse"
       id="XMLID_2_">
      <stop
         id="stop12"
         style="stop-color:#FFEA00"
         offset="0" />
      <stop
         id="stop14"
         style="stop-color:#FFCC00"
         offset="1" />
    </linearGradient>
    <linearGradient
       inkscape:collect="always"
       xlink:href="#linearGradient18668"
       id="linearGradient4711-3"
       gradientUnits="userSpaceOnUse"
       gradientTransform="matrix(0.923077,0,0,0.923077,68.49975,-37.40521)"
       x1="-39.53125"
       y1="78"
       x2="-39.53125"
       y2="51.1875" />
    <linearGradient
       id="linearGradient18668"
       gradientUnits="userSpaceOnUse"
       x1="28"
       y1="57.5"
       x2="28"
       y2="0">
      <stop
         offset="0"
         style="stop-color:#fff8a8;stop-opacity:1;"
         id="stop18670" />
      <stop
         offset="1"
         style="stop-color:white;stop-opacity:0;"
         id="stop18672" />
    </linearGradient>
    <linearGradient
       inkscape:collect="always"
       xlink:href="#linearGradient7422"
       id="linearGradient896"
       gradientUnits="userSpaceOnUse"
       gradientTransform="matrix(0.06470556,0,0,0.11021838,95.499827,172.30263)"
       x1="399.77466"
       y1="731.09662"
       x2="399.77466"
       y2="480.60214" />
    <linearGradient
       inkscape:collect="always"
       xlink:href="#linearGradient4711"
       id="linearGradient898"
       gradientUnits="userSpaceOnUse"
       gradientTransform="matrix(0.06470556,0,0,0.11021838,159.13243,395.2449)"
       x1="-333.0289"
       y1="-1473.6504"
       x2="-333.0289"
       y2="-776.61371" />
    <linearGradient
       inkscape:collect="always"
       xlink:href="#linearGradient7422"
       id="linearGradient912"
       gradientUnits="userSpaceOnUse"
       gradientTransform="matrix(0.06470556,0,0,0.11021838,95.499827,172.30263)"
       x1="399.77466"
       y1="731.09662"
       x2="399.77466"
       y2="480.60214" />
    <linearGradient
       inkscape:collect="always"
       xlink:href="#linearGradient4711"
       id="linearGradient914"
       gradientUnits="userSpaceOnUse"
       gradientTransform="matrix(0.06470556,0,0,0.11021838,159.13243,395.2449)"
       x1="-333.0289"
       y1="-1473.6504"
       x2="-333.0289"
       y2="-776.61371" />
  </defs>
  <sodipodi:namedview
     id="base"
     pagecolor="#ffffff"
     bordercolor="#666666"
     borderopacity="1.0"
     inkscape:pageopacity="0.0"
     inkscape:pageshadow="2"
     inkscape:zoom="3.959798"
     inkscape:cx="52.76707"
     inkscape:cy="57.666314"
     inkscape:document-units="mm"
     inkscape:current-layer="layer1"
     showgrid="true"
     units="px"
     inkscape:window-width="1366"
     inkscape:window-height="706"
     inkscape:window-x="0"
     inkscape:window-y="0"
     inkscape:window-maximized="1">
    <inkscape:grid
       type="xygrid"
       id="grid2904"
       spacingx="1.5393723"
       spacingy="1.5393723" />
  </sodipodi:namedview>
  <metadata
     id="metadata2356">
    <rdf:RDF>
      <cc:Work
         rdf:about="">
        <dc:format>image/svg+xml</dc:format>
        <dc:type
           rdf:resource="http://purl.org/dc/dcmitype/StillImage" />
        <dc:title />
      </cc:Work>
    </rdf:RDF>
  </metadata>
  <g
     inkscape:label="Layer 1"
     inkscape:groupmode="layer"
     id="layer1"
     transform="translate(0,-263.13332)">
    <path
       id="path3126"
       d="m 6.1573886,275.44859 v -6.15776 -1.53892 H 7.6968297 20.01184 v 1.53892 H 7.6968297 v 6.15776 z"
       style="fill:#0066ff;fill-opacity:1;stroke:none;stroke-width:0.26458332;stroke-linecap:round;stroke-linejoin:round;stroke-opacity:0.74509804"
       inkscape:connector-curvature="0" />
    <path
       style="fill:#0066ff;stroke:none;stroke-width:0.99999994;stroke-linecap:round;stroke-linejoin:round;stroke-opacity:0.74509804;fill-opacity:1"
       d="M 23.271484 81.455078 L 23.271484 104.72852 L 23.271484 110.54492 L 29.089844 110.54492 L 75.634766 110.54492 L 75.634766 104.72852 L 29.089844 104.72852 L 29.089844 81.455078 L 23.271484 81.455078 z "
       transform="matrix(0.26458333,0,0,0.26458333,0,263.13332)"
       id="rect3121" />
    <g
       id="g910"
       transform="matrix(0.38484969,0,0,0.38484969,-49.118085,184.28712)">
      <path
         inkscape:connector-curvature="0"
         sodipodi:nodetypes="ccccccccc"
         id="path900"
         d="m 124.97348,244.87477 37.26681,2.8e-4 c 0.76597,0 1.38261,0.72808 1.38261,1.63246 v 30.74291 c 0,0.90439 -0.61664,1.63247 -1.38261,1.63247 l -37.26681,-2.8e-4 c -0.76596,0 -1.38261,-0.72808 -1.38261,-1.63247 v -30.74291 c 0,-0.90438 0.61665,-1.63246 1.38261,-1.63246 z"
         style="opacity:0.6;fill:none;fill-opacity:1;fill-rule:nonzero;stroke:#000000;stroke-width:4.61231804;stroke-linecap:round;stroke-linejoin:round;stroke-miterlimit:4;stroke-dashoffset:4;stroke-opacity:1;filter:url(#filter8972)"
         transform="matrix(0.79911685,0,0,0.9411767,32.87024,2.3986928)" />
      <path
         inkscape:connector-curvature="0"
         sodipodi:nodetypes="ccccccc"
         id="path902"
         d="m 132.73422,232.87011 29.78941,2.6e-4 c 0.61218,0 1.10502,0.68523 1.10502,1.53639 v 28.93261 l -31.99945,-2.6e-4 V 234.4065 c 0,-0.85116 0.49283,-1.53639 1.10502,-1.53639 z"
         style="fill:url(#linearGradient912);fill-opacity:1;fill-rule:nonzero;stroke:none;stroke-width:1.88538897;stroke-linecap:round;stroke-linejoin:round;stroke-miterlimit:4;stroke-dashoffset:4;stroke-opacity:1" />
      <path
         inkscape:connector-curvature="0"
         style="fill:#ffffff;fill-opacity:0.75688076;fill-rule:nonzero;stroke:none;stroke-width:0.47134724;stroke-linecap:round;stroke-linejoin:round;stroke-miterlimit:4;stroke-dasharray:none;stroke-dashoffset:4;stroke-opacity:1"
         d="m 145.53241,262.21901 v -1.80834 z"
         id="path904"
         sodipodi:nodetypes="ccc" />
      <path
         inkscape:connector-curvature="0"
         sodipodi:nodetypes="cccccccccccccccccc"
         id="path906"
         d="m 132.72798,232.87011 c -0.61218,0 -1.09878,0.67825 -1.09878,1.52941 v 28.94657 c 0,0.85117 0.4866,1.52942 1.09878,1.52942 l 29.80189,2.6e-4 c 0.61219,0 1.09878,-0.67825 1.09878,-1.52942 v -28.94657 c 0,-0.85116 -0.48659,-1.52941 -1.09878,-1.52941 z m 0.74917,2.29411 28.30355,2.6e-4 c 0.58157,0 1.04884,0.64256 1.04884,1.44118 v 25.88775 c 0,0.79863 -0.46727,1.44118 -1.04884,1.44118 l -28.30355,-2.6e-4 c -0.58157,0 -1.04884,-0.64255 -1.04884,-1.44118 V 236.6054 c 0,-0.79862 0.46727,-1.44118 1.04884,-1.44118 z"
         style="fill:url(#linearGradient914);fill-opacity:1;fill-rule:nonzero;stroke:none;stroke-width:1.88538897;stroke-linecap:round;stroke-linejoin:round;stroke-miterlimit:4;stroke-dasharray:none;stroke-dashoffset:4;stroke-opacity:1" />
      <path
         inkscape:connector-curvature="0"
         sodipodi:nodetypes="ccccc"
         id="path908"
         d="m 131.6292,244.87584 31.99945,2.6e-4 v 19.99967 l -31.99945,-2.6e-4 z"
         style="fill:#ffffff;fill-opacity:1;fill-rule:nonzero;stroke:none;stroke-width:0.63987243;stroke-linecap:round;stroke-linejoin:round;stroke-miterlimit:4;stroke-dashoffset:4;stroke-opacity:1" />
    </g>
    <g
       id="g2351"
       transform="matrix(0.38484969,0,0,0.38484969,-30.645617,175.05079)">
      <path
         inkscape:connector-curvature="0"
         sodipodi:nodetypes="ccccccccc"
         id="path2786"
         d="m 124.97348,244.87477 37.26681,2.8e-4 c 0.76597,0 1.38261,0.72808 1.38261,1.63246 l 0,30.74291 c 0,0.90439 -0.61664,1.63247 -1.38261,1.63247 l -37.26681,-2.8e-4 c -0.76596,0 -1.38261,-0.72808 -1.38261,-1.63247 l 0,-30.74291 c 0,-0.90438 0.61665,-1.63246 1.38261,-1.63246 z"
         style="opacity:0.6;fill:none;fill-opacity:1;fill-rule:nonzero;stroke:#000000;stroke-width:4.61231804;stroke-linecap:round;stroke-linejoin:round;stroke-miterlimit:4;stroke-dashoffset:4;stroke-opacity:1;filter:url(#filter8972)"
         transform="matrix(0.79911685,0,0,0.9411767,32.87024,2.3986928)" />
      <path
         inkscape:connector-curvature="0"
         sodipodi:nodetypes="ccccccc"
         id="path2958"
         d="m 132.73422,232.87011 29.78941,2.6e-4 c 0.61218,0 1.10502,0.68523 1.10502,1.53639 l 0,28.93261 -31.99945,-2.6e-4 0,-28.93261 c 0,-0.85116 0.49283,-1.53639 1.10502,-1.53639 z"
         style="fill:url(#linearGradient9443);fill-opacity:1;fill-rule:nonzero;stroke:none;stroke-width:1.88538897;stroke-linecap:round;stroke-linejoin:round;stroke-miterlimit:4;stroke-dashoffset:4;stroke-opacity:1" />
      <path
         inkscape:connector-curvature="0"
         style="fill:#ffffff;fill-opacity:0.75688076;fill-rule:nonzero;stroke:none;stroke-width:0.47134724;stroke-linecap:round;stroke-linejoin:round;stroke-miterlimit:4;stroke-dasharray:none;stroke-dashoffset:4;stroke-opacity:1"
         d="m 145.53241,262.21901 v -1.80834 z"
         id="path3018"
         sodipodi:nodetypes="ccc" />
      <path
         inkscape:connector-curvature="0"
         sodipodi:nodetypes="cccccccccccccccccc"
         id="path3046"
         d="m 132.72798,232.87011 c -0.61218,0 -1.09878,0.67825 -1.09878,1.52941 l 0,28.94657 c 0,0.85117 0.4866,1.52942 1.09878,1.52942 l 29.80189,2.6e-4 c 0.61219,0 1.09878,-0.67825 1.09878,-1.52942 l 0,-28.94657 c 0,-0.85116 -0.48659,-1.52941 -1.09878,-1.52941 z m 0.74917,2.29411 28.30355,2.6e-4 c 0.58157,0 1.04884,0.64256 1.04884,1.44118 l 0,25.88775 c 0,0.79863 -0.46727,1.44118 -1.04884,1.44118 l -28.30355,-2.6e-4 c -0.58157,0 -1.04884,-0.64255 -1.04884,-1.44118 l 0,-25.88775 c 0,-0.79862 0.46727,-1.44118 1.04884,-1.44118 z"
         style="fill:url(#linearGradient9445);fill-opacity:1;fill-rule:nonzero;stroke:none;stroke-width:1.88538897;stroke-linecap:round;stroke-linejoin:round;stroke-miterlimit:4;stroke-dasharray:none;stroke-dashoffset:4;stroke-opacity:1" />
      <path
         inkscape:connector-curvature="0"
         sodipodi:nodetypes="ccccc"
         id="path3304"
         d="m 131.6292,244.87584 31.99945,2.6e-4 0,19.99967 -31.99945,-2.6e-4 z"
         style="fill:#ffffff;fill-opacity:1;fill-rule:nonzero;stroke:none;stroke-width:0.63987243;stroke-linecap:round;stroke-linejoin:round;stroke-miterlimit:4;stroke-dashoffset:4;stroke-opacity:1" />
    </g>
    <g
       id="g5643"
       transform="matrix(0.24052605,0,0,0.24052605,-6.0819062e-4,263.13271)">
      <g
         transform="matrix(0.857143,0,0,0.857143,7.999999,7.999999)"
         id="g5633"
         i:extraneous="self"
         style="opacity:0.1;fill:none;stroke:#bf5e00;stroke-width:18.66666412;stroke-linejoin:round;stroke-miterlimit:4;stroke-dasharray:none">
        <linearGradient
           y2="0"
           x2="28"
           y1="57.5"
           x1="28"
           gradientUnits="userSpaceOnUse"
           id="linearGradient5635">
          <stop
             id="stop5637"
             style="stop-color:#FFEA00"
             offset="0" />
          <stop
             id="stop5639"
             style="stop-color:#FFCC00"
             offset="1" />
        </linearGradient>
        <polygon
           style="fill:none;stroke:#bf5e00;stroke-width:18.66666412;stroke-linejoin:round;stroke-miterlimit:4;stroke-dasharray:none"
           id="polygon5641"
           points="41.438,31.601 52.249,42 37.837,37.837 42,52.249 31.601,41.438 28,56 24.399,41.438 14,52.249 18.163,37.837 3.751,42 14.562,31.601 0,28 14.562,24.399 3.751,14 18.163,18.163 14,3.751 24.399,14.562 28,0 31.601,14.562 42,3.751 37.837,18.163 52.249,14 41.438,24.399 56,28 " />
      </g>
      <g
         style="opacity:0.15;fill:none;stroke:#bf5e00;stroke-width:13.99999809;stroke-linejoin:round;stroke-miterlimit:4;stroke-dasharray:none"
         i:extraneous="self"
         id="g5623"
         transform="matrix(0.857143,0,0,0.857143,7.999999,7.999999)">
        <linearGradient
           id="linearGradient5625"
           gradientUnits="userSpaceOnUse"
           x1="28"
           y1="57.5"
           x2="28"
           y2="0">
          <stop
             offset="0"
             style="stop-color:#FFEA00"
             id="stop5627" />
          <stop
             offset="1"
             style="stop-color:#FFCC00"
             id="stop5629" />
        </linearGradient>
        <polygon
           points="41.438,31.601 52.249,42 37.837,37.837 42,52.249 31.601,41.438 28,56 24.399,41.438 14,52.249 18.163,37.837 3.751,42 14.562,31.601 0,28 14.562,24.399 3.751,14 18.163,18.163 14,3.751 24.399,14.562 28,0 31.601,14.562 42,3.751 37.837,18.163 52.249,14 41.438,24.399 56,28 "
           id="polygon5631"
           style="fill:none;stroke:#bf5e00;stroke-width:13.99999809;stroke-linejoin:round;stroke-miterlimit:4;stroke-dasharray:none" />
      </g>
      <g
         transform="matrix(0.857143,0,0,0.857143,7.999999,7.999999)"
         id="g5613"
         i:extraneous="self"
         style="opacity:0.2;fill:none;stroke:#bf5e00;stroke-width:9.33333206;stroke-linejoin:round;stroke-miterlimit:4;stroke-dasharray:none">
        <linearGradient
           y2="0"
           x2="28"
           y1="57.5"
           x1="28"
           gradientUnits="userSpaceOnUse"
           id="linearGradient5615">
          <stop
             id="stop5617"
             style="stop-color:#FFEA00"
             offset="0" />
          <stop
             id="stop5619"
             style="stop-color:#FFCC00"
             offset="1" />
        </linearGradient>
        <polygon
           style="fill:none;stroke:#bf5e00;stroke-width:9.33333206;stroke-linejoin:round;stroke-miterlimit:4;stroke-dasharray:none"
           id="polygon5621"
           points="41.438,31.601 52.249,42 37.837,37.837 42,52.249 31.601,41.438 28,56 24.399,41.438 14,52.249 18.163,37.837 3.751,42 14.562,31.601 0,28 14.562,24.399 3.751,14 18.163,18.163 14,3.751 24.399,14.562 28,0 31.601,14.562 42,3.751 37.837,18.163 52.249,14 41.438,24.399 56,28 " />
      </g>
      <g
         style="opacity:0.25;fill:none;stroke:#bf5e00;stroke-width:4.66666603;stroke-linejoin:round;stroke-miterlimit:4;stroke-dasharray:none"
         i:extraneous="self"
         id="g4718"
         transform="matrix(0.857143,0,0,0.857143,7.999999,7.999999)">
        <linearGradient
           id="linearGradient4720"
           gradientUnits="userSpaceOnUse"
           x1="28"
           y1="57.5"
           x2="28"
           y2="0">
          <stop
             offset="0"
             style="stop-color:#FFEA00"
             id="stop4722" />
          <stop
             offset="1"
             style="stop-color:#FFCC00"
             id="stop4724" />
        </linearGradient>
        <polygon
           points="41.438,31.601 52.249,42 37.837,37.837 42,52.249 31.601,41.438 28,56 24.399,41.438 14,52.249 18.163,37.837 3.751,42 14.562,31.601 0,28 14.562,24.399 3.751,14 18.163,18.163 14,3.751 24.399,14.562 28,0 31.601,14.562 42,3.751 37.837,18.163 52.249,14 41.438,24.399 56,28 "
           id="polygon4726"
           style="fill:none;stroke:#bf5e00;stroke-width:4.66666603;stroke-linejoin:round;stroke-miterlimit:4;stroke-dasharray:none" />
      </g>
      <g
         transform="matrix(0.857143,0,0,0.857143,7.999999,7.999999)"
         id="g9"
         i:extraneous="self">
        <linearGradient
           y2="0"
           x2="28"
           y1="57.5"
           x1="28"
           gradientUnits="userSpaceOnUse"
           id="linearGradient2309">
          <stop
             id="stop2311"
             style="stop-color:#FFEA00"
             offset="0" />
          <stop
             id="stop2313"
             style="stop-color:#FFCC00"
             offset="1" />
        </linearGradient>
        <polygon
           style="fill:url(#linearGradient4706)"
           id="polygon16"
           points="41.438,31.601 52.249,42 37.837,37.837 42,52.249 31.601,41.438 28,56 24.399,41.438 14,52.249 18.163,37.837 3.751,42 14.562,31.601 0,28 14.562,24.399 3.751,14 18.163,18.163 14,3.751 24.399,14.562 28,0 31.601,14.562 42,3.751 37.837,18.163 52.249,14 41.438,24.399 56,28 " />
      </g>
      <path
         inkscape:connector-curvature="0"
         id="polygon18655"
         d="M 32.009361,9.8447961 29.153592,21.354412 20.932437,12.81595 24.220899,24.210182 12.826667,20.92172 l 8.538462,8.221155 -6.605769,1.644231 c 4.587209,2.366121 10.631485,3.807692 17.250001,3.807692 6.618516,-10e-7 12.633945,-1.441571 17.221155,-3.807692 l -6.605769,-1.644231 8.567308,-8.221155 -11.423078,3.288462 3.317308,-11.394232 -8.250001,8.538462 z"
         style="fill:url(#linearGradient4711-3);fill-opacity:1" />
    </g>
    <g
       transform="matrix(0.38484969,0,0,0.38484969,-30.645617,193.52326)"
       id="g894">
      <path
         transform="matrix(0.79911685,0,0,0.9411767,32.87024,2.3986928)"
         style="opacity:0.6;fill:none;fill-opacity:1;fill-rule:nonzero;stroke:#000000;stroke-width:4.61231804;stroke-linecap:round;stroke-linejoin:round;stroke-miterlimit:4;stroke-dashoffset:4;stroke-opacity:1;filter:url(#filter8972)"
         d="m 124.97348,244.87477 37.26681,2.8e-4 c 0.76597,0 1.38261,0.72808 1.38261,1.63246 v 30.74291 c 0,0.90439 -0.61664,1.63247 -1.38261,1.63247 l -37.26681,-2.8e-4 c -0.76596,0 -1.38261,-0.72808 -1.38261,-1.63247 v -30.74291 c 0,-0.90438 0.61665,-1.63246 1.38261,-1.63246 z"
         id="path884"
         sodipodi:nodetypes="ccccccccc"
         inkscape:connector-curvature="0" />
      <path
         style="fill:url(#linearGradient896);fill-opacity:1;fill-rule:nonzero;stroke:none;stroke-width:1.88538897;stroke-linecap:round;stroke-linejoin:round;stroke-miterlimit:4;stroke-dashoffset:4;stroke-opacity:1"
         d="m 132.73422,232.87011 29.78941,2.6e-4 c 0.61218,0 1.10502,0.68523 1.10502,1.53639 v 28.93261 l -31.99945,-2.6e-4 V 234.4065 c 0,-0.85116 0.49283,-1.53639 1.10502,-1.53639 z"
         id="path886"
         sodipodi:nodetypes="ccccccc"
         inkscape:connector-curvature="0" />
      <path
         sodipodi:nodetypes="ccc"
         id="path888"
         d="m 145.53241,262.21901 v -1.80834 z"
         style="fill:#ffffff;fill-opacity:0.75688076;fill-rule:nonzero;stroke:none;stroke-width:0.47134724;stroke-linecap:round;stroke-linejoin:round;stroke-miterlimit:4;stroke-dasharray:none;stroke-dashoffset:4;stroke-opacity:1"
         inkscape:connector-curvature="0" />
      <path
         style="fill:url(#linearGradient898);fill-opacity:1;fill-rule:nonzero;stroke:none;stroke-width:1.88538897;stroke-linecap:round;stroke-linejoin:round;stroke-miterlimit:4;stroke-dasharray:none;stroke-dashoffset:4;stroke-opacity:1"
         d="m 132.72798,232.87011 c -0.61218,0 -1.09878,0.67825 -1.09878,1.52941 v 28.94657 c 0,0.85117 0.4866,1.52942 1.09878,1.52942 l 29.80189,2.6e-4 c 0.61219,0 1.09878,-0.67825 1.09878,-1.52942 v -28.94657 c 0,-0.85116 -0.48659,-1.52941 -1.09878,-1.52941 z m 0.74917,2.29411 28.30355,2.6e-4 c 0.58157,0 1.04884,0.64256 1.04884,1.44118 v 25.88775 c 0,0.79863 -0.46727,1.44118 -1.04884,1.44118 l -28.30355,-2.6e-4 c -0.58157,0 -1.04884,-0.64255 -1.04884,-1.44118 V 236.6054 c 0,-0.79862 0.46727,-1.44118 1.04884,-1.44118 z"
         id="path890"
         sodipodi:nodetypes="cccccccccccccccccc"
         inkscape:connector-curvature="0" />
      <path
         style="fill:#ffffff;fill-opacity:1;fill-rule:nonzero;stroke:none;stroke-width:0.63987243;stroke-linecap:round;stroke-linejoin:round;stroke-miterlimit:4;stroke-dashoffset:4;stroke-opacity:1"
         d="m 131.6292,244.87584 31.99945,2.6e-4 v 19.99967 l -31.99945,-2.6e-4 z"
         id="path892"
         sodipodi:nodetypes="ccccc"
         inkscape:connector-curvature="0" />
    </g>
  </g>
</svg>
