<svg height="88" width="88" xmlns="http://www.w3.org/2000/svg" xmlns:xlink="http://www.w3.org/1999/xlink"><linearGradient id="a"><stop offset="0" stop-color="#ceced0"/><stop offset="1" stop-color="#ceced0" stop-opacity="0"/></linearGradient><linearGradient id="b"><stop offset="0" stop-color="#fff"/><stop offset="1" stop-color="#fff" stop-opacity="0"/></linearGradient><linearGradient id="c" gradientTransform="matrix(8.0889801 0 0 7.9869061 48.218484 -.133794)" gradientUnits="userSpaceOnUse" x1="-1.147762" x2="-1.850474" y1="7.029993" y2="4.143643"><stop offset="0" stop-color="#b3b3b3"/><stop offset=".52879584" stop-color="#fff"/><stop offset="1" stop-color="#c5c5c5"/></linearGradient><linearGradient id="d" gradientTransform="matrix(7.5452306 0 0 7.4748734 9.591692 3.506601)" gradientUnits="userSpaceOnUse" x1="3.5" x2="3.5" y1="7.82534" y2="4.878163"><stop offset="0" stop-color="#0968ef"/><stop offset="1" stop-color="#aecffc"/></linearGradient><linearGradient id="e" gradientTransform="matrix(8.0000001 0 0 8.0000039 8 -.000003)" gradientUnits="userSpaceOnUse" x1="3.5" x2="3.5" y1="8" y2="5"><stop offset="0" stop-color="#0057ae"/><stop offset="1" stop-color="#0057ae"/></linearGradient><linearGradient id="f" gradientTransform="matrix(.08097133 0 0 .117107 158.00215 417.399)" gradientUnits="userSpaceOnUse" x1="-333.0289" x2="-333.0289" y1="-1473.6504" y2="-776.61371"><stop offset="0" stop-color="#fff"/><stop offset=".49140647" stop-color="#fff"/><stop offset="1" stop-color="#dcdcdc"/></linearGradient><linearGradient id="g" gradientTransform="matrix(.08097133 0 0 .117107 78.3735 180.5229)" gradientUnits="userSpaceOnUse" x1="399.77466" x2="399.77466" y1="731.09662" y2="480.60214"><stop offset="0" stop-color="#cbcbcd"/><stop offset=".5" stop-color="#e0e0e2"/><stop offset="1" stop-color="#f2f2f2"/></linearGradient><filter id="h"><feGaussianBlur stdDeviation="1.5999062"/></filter><linearGradient id="i" gradientUnits="userSpaceOnUse" x1="1055.3002" x2="1055.3002" y1="-468.66934" y2="-481.76657"><stop offset="0" stop-color="#6f6f6f"/><stop offset="1" stop-color="#fff"/></linearGradient><linearGradient id="j" gradientUnits="userSpaceOnUse" x1="60.43077577128" x2="60.43077577128" xlink:href="#b" y1="40.0000012" y2="58"/><mask id="k" maskUnits="userSpaceOnUse"><path d="m17.4375 32.125004h42.562496v25.874998h-42.562496z" style="fill-rule:evenodd;stroke:#ff4747;stroke-width:.4725;stroke-linecap:round;stroke-linejoin:round;fill:url(#j)"/></mask><linearGradient id="l" gradientUnits="userSpaceOnUse" x1="52" x2="52" xlink:href="#a" y1="40" y2="56"/><linearGradient id="m" gradientUnits="userSpaceOnUse" x1="131.62865" x2="131.62865" xlink:href="#a" y1="304.8761" y2="316.8761"/><linearGradient id="n" gradientUnits="userSpaceOnUse" x1="87.231171" x2="114.63911" y1="26.212187" y2="128.5"><stop offset="0" stop-color="#2c72c7"/><stop offset="1" stop-color="#00438a"/></linearGradient><linearGradient id="o" gradientUnits="userSpaceOnUse" x1="114.37838" x2="112.9539" y1="42.286964" y2="132.19691"><stop offset="0" stop-color="#bbd6ff"/><stop offset="1" stop-color="#0057ae"/></linearGradient><linearGradient id="p" gradientUnits="userSpaceOnUse" x1="124.5" x2="135.74562" xlink:href="#b" y1="125" y2="2.932803"/><filter id="q"><feGaussianBlur stdDeviation=".385"/></filter><linearGradient id="r" gradientUnits="userSpaceOnUse" x1="104" x2="104" y1="124.5" y2="61.61084"><stop offset="0" stop-color="#d4e2f3"/><stop offset="1" stop-color="#fff" stop-opacity="0"/></linearGradient><g transform="translate(-79.62865 -236.8761)"><rect height="72.002113" rx="1.38261" ry="1.632467" style="opacity:.4;fill:none;stroke:#000;stroke-width:4;stroke-linecap:round;stroke-linejoin:round;stroke-dashoffset:4;filter:url(#h)" width="79.988503" x="83.634399" y="244.87505"/><path d="m110.65476 61.09754v-1.921362z" fill="#fff" fill-opacity=".756881"/><path d="m19.224621 66.26601v-1.92136z" fill="#fff" fill-opacity=".756881"/><path d="m-88.718543 18.391902v-1.921361z" fill="#fff" fill-opacity=".756881"/><path d="m-170.87627-41.166364v-1.921369z" fill="#fff" fill-opacity=".756881"/><path d="m-1.3447525 4.040359v-1.921362z" fill="#fff" fill-opacity=".756881"/><path d="m-65.024036 54.842244v-1.04963z" fill="#fff" fill-opacity=".756881"/><path d="m-237.96388-53.331486v-1.921362z" fill="#fff" fill-opacity=".756881"/><path d="m115.76683 174.05816v-1.92136z" fill="#fff" fill-opacity=".756881"/><path d="m7.823668 126.18405v-1.92137z" fill="#fff" fill-opacity=".756881"/><path d="m-74.334061 66.62578v-1.92137z" fill="#fff" fill-opacity=".756881"/><path d="m95.197458 111.8325v-1.92136z" fill="#fff" fill-opacity=".756881"/><path d="m31.518174 162.63439v-1.04963z" fill="#fff" fill-opacity=".756881"/><path d="m-141.42167 54.460661v-1.921362z" fill="#fff" fill-opacity=".756881"/><path d="m81.735594 138.30817v-1.92136z" fill="#fff" fill-opacity=".756881"/><path d="m-26.207568 90.43406v-1.92136z" fill="#fff" fill-opacity=".756881"/><path d="m-108.3653 30.875791v-1.921363z" fill="#fff" fill-opacity=".756881"/><path d="m61.166222 76.08252v-1.92136z" fill="#fff" fill-opacity=".756881"/><path d="m-2.513062 126.8844v-1.04963z" fill="#fff" fill-opacity=".756881"/><path d="m-175.45291 18.710675v-1.921362z" fill="#fff" fill-opacity=".756881"/><path d="m-184.49867 223.38627v-1.92137z" fill="#fff" fill-opacity=".756881"/><path d="m-292.44184 175.51215v-1.92136z" fill="#fff" fill-opacity=".756881"/><path d="m-374.59957 115.95388v-1.92136z" fill="#fff" fill-opacity=".756881"/><path d="m-205.06805 161.16061v-1.92136z" fill="#fff" fill-opacity=".756881"/><path d="m-268.74733 211.9625v-1.04964z" fill="#fff" fill-opacity=".756881"/><path d="m-441.68718 103.78877v-1.92137z" fill="#fff" fill-opacity=".756881"/><path d="m-10.979141 344.65579v-1.92136z" fill="#fff" fill-opacity=".756881"/><path d="m-118.9223 296.78167v-1.92136z" fill="#fff" fill-opacity=".756881"/><path d="m-201.08003 237.2234v-1.92136z" fill="#fff" fill-opacity=".756881"/><path d="m-31.548513 282.43013v-1.92136z" fill="#fff" fill-opacity=".756881"/><path d="m-95.227797 333.23202v-1.04964z" fill="#fff" fill-opacity=".756881"/><path d="m-268.16764 225.05829v-1.92137z" fill="#fff" fill-opacity=".756881"/><path d="m-80.175705 184.08086v-1.92137z" fill="#fff" fill-opacity=".756881"/><path d="m-188.11887 136.20674v-1.92136z" fill="#fff" fill-opacity=".756881"/><path d="m-270.2766 76.64848v-1.92137z" fill="#fff" fill-opacity=".756881"/><path d="m-100.74508 121.8552v-1.92136z" fill="#fff" fill-opacity=".756881"/><path d="m-164.42436 172.65709v-1.04964z" fill="#fff" fill-opacity=".756881"/><path d="m-337.36421 64.48336v-1.92136z" fill="#fff" fill-opacity=".756881"/><rect fill="url(#g)" height="72" rx="1.382808" ry="1.632419" width="80" x="83.628647" y="244.8761"/><path d="m-78.795577 183.44508v-1.92137z" fill="#fff" fill-opacity=".756881"/><path d="m-186.73874 135.57096v-1.92136z" fill="#fff" fill-opacity=".756881"/><path d="m-268.89647 76.01269v-1.92136z" fill="#fff" fill-opacity=".756881"/><path d="m-99.36495 121.21942v-1.92136z" fill="#fff" fill-opacity=".756881"/><path d="m-163.04423 172.02131v-1.04964z" fill="#fff" fill-opacity=".756881"/><path d="m-335.98408 63.847576v-1.921362z" fill="#fff" fill-opacity=".756881"/><g id="s"><path d="m1060.3605-478.60516a5.0602889 5.0602889 0 0 1 -5.0603 5.06029 5.0602889 5.0602889 0 0 1 -5.0603-5.06029 5.0602889 5.0602889 0 0 1 5.0603-5.06029 5.0602889 5.0602889 0 0 1 5.0603 5.06029z" fill="url(#i)" transform="matrix(.7904687 0 0 .7904687 -678.5531 631.1985)"/></g><path d="m127.05843 146.84876v-1.92136z" fill="#fff" fill-opacity=".756881"/><path d="m35.628295 152.01724v-1.92137z" fill="#fff" fill-opacity=".756881"/><path d="m-72.314868 104.14312v-1.92136z" fill="#fff" fill-opacity=".756881"/><path d="m-154.4726 44.584858v-1.921369z" fill="#fff" fill-opacity=".756881"/><path d="m15.058922 89.79158v-1.92136z" fill="#fff" fill-opacity=".756881"/><path d="m-48.620362 140.59347v-1.04963z" fill="#fff" fill-opacity=".756881"/><path d="m-221.56021 32.419736v-1.921362z" fill="#fff" fill-opacity=".756881"/><path d="m24.227343 211.93526v-1.92135z" fill="#fff" fill-opacity=".756881"/><path d="m-57.930387 152.377v-1.92136z" fill="#fff" fill-opacity=".756881"/><path d="m111.60113 197.58372v-1.92135z" fill="#fff" fill-opacity=".756881"/><path d="m47.921849 248.38561v-1.04963z" fill="#fff" fill-opacity=".756881"/><path d="m-125.018 140.21188v-1.92136z" fill="#fff" fill-opacity=".756881"/><path d="m85.00365 244.8761c-.766076 0-1.375.72064-1.375 1.625v68.75c0 .90436.608924 1.625 1.375 1.625h77.25c.76608 0 1.375-.72064 1.375-1.625v-68.75c0-.90436-.60892-1.625-1.375-1.625zm.9375 2.4375h75.375c.72777 0 1.3125.68271 1.3125 1.53125v65.5c0 .84854-.58473 1.53125-1.3125 1.53125h-75.375c-.727772 0-1.3125-.68271-1.3125-1.53125v-65.5c0-.84854.584728-1.53125 1.3125-1.53125z" fill="url(#f)"/><g fill="#fff"><path d="m-123.08788-24.022769v-2.608395z" fill-opacity=".756881"/><path d="m-247.21126-17.00617v-2.608395z" fill-opacity=".756881"/><path d="m-393.75233-81.998929v-2.608395z" fill-opacity=".756881"/><path d="m-505.28772-162.85381v-2.60841z" fill-opacity=".756881"/><path d="m-275.13575-101.48224v-2.6084z" fill-opacity=".756881"/><path d="m-361.58524-32.51481v-1.424954z" fill-opacity=".756881"/><path d="m-596.36427-179.36889v-2.6084z" fill-opacity=".756881"/><path d="m-116.14784 129.32989v-2.60839z" fill-opacity=".756881"/><path d="m-262.68892 64.337127v-2.608395z" fill-opacity=".756881"/><path d="m-374.2243-16.517766v-2.608396z" fill-opacity=".756881"/><path d="m-144.07234 44.853813v-2.608395z" fill-opacity=".756881"/><path d="m-230.52182 113.82125v-1.42495z" fill-opacity=".756881"/><path d="m-465.30085-33.032838v-2.608396z" fill-opacity=".756881"/><path d="m-162.34784 80.79656v-2.6084z" fill-opacity=".756881"/><path d="m-308.88892 15.803795v-2.608395z" fill-opacity=".756881"/><path d="m-420.4243-65.051099v-2.608395z" fill-opacity=".756881"/><path d="m-190.27233-3.679519v-2.608395z" fill-opacity=".756881"/><path d="m-276.72182 65.287913v-1.424953z" fill-opacity=".756881"/><path d="m-511.50085-81.56617v-2.608396z" fill-opacity=".756881"/><path d="m-523.78117 196.29656v-2.6084z" fill-opacity=".756881"/><path d="m-670.32224 131.3038v-2.6084z" fill-opacity=".756881"/><path d="m-781.85763 50.448898v-2.608395z" fill-opacity=".756881"/><path d="m-551.70566 111.82049v-2.6084z" fill-opacity=".756881"/><path d="m-638.15514 180.78792v-1.42496z" fill-opacity=".756881"/><path d="m-872.93418 33.933827v-2.608396z" fill-opacity=".756881"/><path d="m-288.21517 360.92918v-2.60839z" fill-opacity=".756881"/><path d="m-434.75624 295.93641v-2.60838z" fill-opacity=".756881"/><path d="m-546.29163 215.08152v-2.60839z" fill-opacity=".756881"/><path d="m-316.13966 276.45311v-2.6084z" fill-opacity=".756881"/><path d="m-402.58914 345.42054v-1.42496z" fill-opacity=".756881"/><path d="m-637.36818 198.56645v-2.60839z" fill-opacity=".756881"/><path d="m-382.15478 142.93647v-2.6084z" fill-opacity=".756881"/><path d="m-528.69586 77.94371v-2.6084z" fill-opacity=".756881"/><path d="m-640.23124-2.911185v-2.608396z" fill-opacity=".756881"/><path d="m-410.07927 58.46039v-2.608395z" fill-opacity=".756881"/><path d="m-496.52876 127.42783v-1.42496z" fill-opacity=".756881"/><path d="m-731.30779-19.426257v-2.608396z" fill-opacity=".756881"/><path d="m-380.28115 142.07335v-2.6084z" fill-opacity=".756881"/><path d="m-526.82223 77.08058v-2.608395z" fill-opacity=".756881"/><path d="m-638.35761-3.774313v-2.608396z" fill-opacity=".756881"/><path d="m-408.20565 57.597266v-2.608395z" fill-opacity=".756881"/><path d="m-494.65513 126.56471v-1.42496z" fill-opacity=".756881"/><path d="m-729.43416-20.289385v-2.608396z" fill-opacity=".756881"/><path d="m-100.81864 92.39106v-8.514959 5.906559z" fill-opacity=".756881"/><path d="m-224.94202 99.40766v-2.6084z" fill-opacity=".756881"/><path d="m-371.4831 34.414895v-2.608395z" fill-opacity=".756881"/><path d="m-483.01848-46.439994v-2.608405z" fill-opacity=".756881"/><path d="m-252.86651 14.931581v-2.608396z" fill-opacity=".756881"/><path d="m-339.31599 83.89902v-1.42496z" fill-opacity=".756881"/><path d="m-574.09503-62.955075v-2.608395z" fill-opacity=".756881"/><path d="m-93.87861 245.74372v-2.6084z" fill-opacity=".756881"/><path d="m-240.41968 180.75095v-2.60839z" fill-opacity=".756881"/><path d="m-351.95507 99.89606v-2.60839z" fill-opacity=".756881"/><path d="m-121.8031 161.26764v-2.60839z" fill-opacity=".756881"/><path d="m-208.25258 230.23508v-1.42496z" fill-opacity=".756881"/><path d="m-443.03161 83.38099v-2.6084z" fill-opacity=".756881"/><path d="m83.62865 264.8761h80v52h-80z"/></g><use height="96" transform="translate(-12)" width="96" xlink:href="#s"/><use height="96" transform="translate(-24)" width="96" xlink:href="#s"/><use height="96" transform="translate(-64)" width="96" xlink:href="#s"/><g transform="matrix(.6666667 0 0 .6666667 91.628649 250.20943)"><rect fill="url(#e)" height="24" rx="1.985773" ry="2.276042" width="24" x="24" y="40"/><rect fill="url(#d)" height="20" rx=".881566" ry="1.001006" width="20" x="26" y="42"/><g fill-rule="evenodd"><path d="m26 41.967068 19.994108.088388.005892 5.944544h-6l-7.82985 4h-6.018445z" fill="url(#c)"/><path d="m25.911612 56h6.088388l8-4h6.082368l-.082368-4h-6l-8 4h-5.914433z" fill="#0057ae" opacity=".8"/></g></g><g transform="matrix(.6666667 0 0 .6666667 119.62865 250.20943)"><rect fill="url(#e)" height="24" rx="1.985773" ry="2.276042" width="24" x="24" y="40"/><rect fill="url(#d)" height="20" rx=".881566" ry="1.001006" width="20" x="26" y="42"/><g fill-rule="evenodd"><path d="m26 41.967068 19.994108.088388.005892 5.944544h-6l-7.82985 4h-6.018445z" fill="url(#c)"/><path d="m25.911612 56h6.088388l8-4h6.082368l-.082368-4h-6l-8 4h-5.914433z" fill="#0057ae" opacity=".8"/></g></g><g mask="url(#k)" transform="matrix(.6666667 0 0 .6666667 91.628649 278.20943)"><rect fill="url(#e)" height="24" rx="1.985773" ry="2.276042" width="24" x="24" y="40"/><rect fill="url(#d)" height="20" rx=".881566" ry="1.001006" width="20" x="26" y="42"/><g fill-rule="evenodd"><path d="m26 41.967068 19.994108.088388.005892 5.944544h-6l-7.82985 4h-6.018445z" fill="url(#c)"/><path d="m25.911612 56h6.088388l8-4h6.082368l-.082368-4h-6l-8 4h-5.914433z" fill="#0057ae" opacity=".8"/></g></g><path d="m16.125 32c-4.50125 0-8.125 3.62375-8.125 8.125v15.75c0 2.990781 1.6059872 5.589556 4 7v-22.875c0-2.216 1.784-4 4-4h56c2.216 0 4 1.784 4 4v22.875c2.394013-1.410444 4-4.009219 4-7v-15.75c0-4.50125-3.62375-8.125-8.125-8.125z" fill="url(#l)" fill-rule="evenodd" transform="translate(79.62865 236.8761)"/><path d="m95.75365 296.8761c-4.50125 0-8.125 3.62375-8.125 8.125v15.75c0 2.99078 1.605987 5.58956 4 7v-22.875c0-2.216 1.784-4 4-4h56c2.216 0 4 1.784 4 4v22.875c2.39401-1.41044 4-4.00922 4-7v-15.75c0-4.50125-3.62375-8.125-8.125-8.125z" fill="url(#m)" fill-rule="evenodd"/><g transform="matrix(.49140165 0 0 .49140165 98.488485 256.6304)"><path d="m95.5 124.5-20-20h16v-104h8v104h16z" fill="none" stroke="#fff" stroke-linecap="round" stroke-linejoin="round" stroke-width="16"/><path d="m104 126.5-20-22h16v-104h8v104h16z" fill="none" stroke="url(#n)" stroke-linecap="round" stroke-linejoin="round" stroke-width="16"/><path d="m104 124.5-20-20h16v-104h8v104h16z" fill="url(#o)" fill-rule="evenodd"/><path d="m104 124.5-20-20h16v-64h8v64h16z" fill="none" filter="url(#q)" opacity=".898396" stroke="url(#p)"/><path d="m104 124.5-20-20h16v-55.15625c2.72925.692534 5.40416 1.45519 8 2.28125v52.875h16z" fill="url(#r)" fill-rule="evenodd"/></g></g></svg>