<svg height="128" width="128" xmlns="http://www.w3.org/2000/svg" xmlns:xlink="http://www.w3.org/1999/xlink"><linearGradient id="a"><stop offset="0" stop-color="#828282"/><stop offset="1" stop-color="#828282" stop-opacity="0"/></linearGradient><linearGradient id="b" gradientTransform="matrix(1.0629486 0 0 1.1383523 .149183 -9.614354)" gradientUnits="userSpaceOnUse" x1="46.048" x2="46.048" y1="128.01709" y2="16.6203"><stop offset="0" stop-color="#c7cdd7"/><stop offset="1" stop-color="#fff"/></linearGradient><linearGradient id="c" gradientTransform="matrix(1.0629487 0 0 1.3091052 -5.519737 -51.201671)" gradientUnits="userSpaceOnUse" x1="114.6638" x2="114.6638" y1="101.334" y2="112.0004"><stop offset="0" stop-color="#c9d1dc"/><stop offset="1" stop-color="#c9d1dc" stop-opacity="0"/></linearGradient><linearGradient id="d" gradientTransform="matrix(1.5000376 0 0 1 11.999997 -13.334003)" gradientUnits="userSpaceOnUse" x1="53.332001" x2="53.332001" xlink:href="#a" y1="101.334" y2="117.3336"/><linearGradient id="e" gradientTransform="matrix(1.454525 0 0 .87271499 -5.8181 4.656281)" gradientUnits="userSpaceOnUse" x1="8" x2="8" xlink:href="#a" y1="88" y2="108"/><linearGradient id="f" gradientUnits="userSpaceOnUse" x1="121.05164" x2="121.05164" y1="-58.371246" y2="81.459755"><stop offset="0" stop-color="#fff"/><stop offset="1" stop-color="#555"/></linearGradient><linearGradient id="g"><stop offset="0" stop-color="#fff"/><stop offset="1" stop-color="#fff" stop-opacity="0"/></linearGradient><linearGradient id="h"><stop offset="0"/><stop offset="1" stop-opacity="0"/></linearGradient><linearGradient id="i" gradientUnits="userSpaceOnUse" x1="61.619519" x2="63.633191" xlink:href="#h" y1="70.125775" y2="75.544522"/><radialGradient id="j" cx="-416.22699" cy="413.23447" fx="-367.6416" fy="231.25175" gradientTransform="matrix(.172933 .140463 -.155164 .07210879 222.6436 105.1597)" gradientUnits="userSpaceOnUse" r="170.91994" xlink:href="#g"/><linearGradient id="k" gradientUnits="userSpaceOnUse" x1="12.044566" x2="47.834224" xlink:href="#h" y1="44.767387" y2="44.767387"/><radialGradient id="l" cx="-419.35272" cy="396.00266" fx="-309.60486" fy="160.80678" gradientTransform="matrix(.222535 .173739 -.141846 .146902 230.6761 67.803829)" gradientUnits="userSpaceOnUse" r="170.91994" xlink:href="#g"/><linearGradient id="m" gradientTransform="matrix(.356587 0 0 .264639 283.3482 -52.464211)" gradientUnits="userSpaceOnUse" x1="-742.43384" x2="-739.79175" xlink:href="#g" y1="195.60983" y2="217.92102"/><radialGradient id="n" cx="-633.63702" cy="565.84845" fx="-634.81256" fy="578.65271" gradientTransform="matrix(.218714 0 0 .22313375 158.918 -121.235)" gradientUnits="userSpaceOnUse" r="18.908777" xlink:href="#g"/><linearGradient id="o" gradientTransform="matrix(.3253 0 0 .30413 260.855 -64.016451)" gradientUnits="userSpaceOnUse" spreadMethod="reflect" x1="-744.58466" x2="-728.62476" xlink:href="#g" y1="296.54315" y2="296.41748"/><linearGradient id="p" gradientTransform="matrix(.3253 0 0 .30413 260.855 -57.677471)" gradientUnits="userSpaceOnUse" spreadMethod="reflect" x1="-744.58466" x2="-728.62476" xlink:href="#g" y1="296.54315" y2="296.41748"/><linearGradient id="q" gradientTransform="matrix(.3253 0 0 .30413 260.855 -70.355431)" gradientUnits="userSpaceOnUse" spreadMethod="reflect" x1="-744.58466" x2="-728.62476" xlink:href="#g" y1="296.54315" y2="296.41748"/><linearGradient id="r" gradientTransform="matrix(.3253 0 0 .30413 260.855 -51.338491)" gradientUnits="userSpaceOnUse" spreadMethod="reflect" x1="-744.58466" x2="-728.62476" xlink:href="#g" y1="296.54315" y2="296.41748"/><linearGradient id="s" gradientTransform="matrix(.3253 0 0 .30413 260.855 -44.999511)" gradientUnits="userSpaceOnUse" spreadMethod="reflect" x1="-744.58466" x2="-728.62476" xlink:href="#g" y1="296.54315" y2="296.41748"/><linearGradient id="t" gradientTransform="matrix(.3253 0 0 .30413 260.855 -38.660671)" gradientUnits="userSpaceOnUse" spreadMethod="reflect" x1="-744.58466" x2="-728.62476" xlink:href="#g" y1="296.54315" y2="296.41748"/><linearGradient id="u" gradientTransform="matrix(.3253 0 0 .30413 260.855 -32.321691)" gradientUnits="userSpaceOnUse" spreadMethod="reflect" x1="-744.58466" x2="-728.62476" xlink:href="#g" y1="296.54315" y2="296.41748"/><linearGradient id="v" gradientTransform="matrix(.3253 0 0 .30413 260.855 -25.982711)" gradientUnits="userSpaceOnUse" spreadMethod="reflect" x1="-744.58466" x2="-728.62476" xlink:href="#g" y1="296.54315" y2="296.41748"/><linearGradient id="w" gradientTransform="matrix(.3253 0 0 .30413 260.855 -19.643731)" gradientUnits="userSpaceOnUse" spreadMethod="reflect" x1="-744.58466" x2="-728.62476" xlink:href="#g" y1="296.54315" y2="296.41748"/><linearGradient id="x" gradientTransform="matrix(.3253 0 0 .30413 260.855 -13.304751)" gradientUnits="userSpaceOnUse" spreadMethod="reflect" x1="-744.58466" x2="-728.62476" xlink:href="#g" y1="296.54315" y2="296.41748"/><linearGradient id="y" gradientTransform="matrix(.3253 0 0 .30413 260.855 -6.965911)" gradientUnits="userSpaceOnUse" spreadMethod="reflect" x1="-744.58466" x2="-728.62476" xlink:href="#g" y1="296.54315" y2="296.41748"/><linearGradient id="z" gradientTransform="matrix(.3253 0 0 .30413 260.855 -.626931)" gradientUnits="userSpaceOnUse" spreadMethod="reflect" x1="-744.58466" x2="-728.62476" xlink:href="#g" y1="296.54315" y2="296.41748"/><linearGradient id="A" gradientTransform="matrix(.3253 0 0 .30413 260.855 12.051029)" gradientUnits="userSpaceOnUse" spreadMethod="reflect" x1="-744.58466" x2="-728.62476" xlink:href="#g" y1="296.54315" y2="296.41748"/><linearGradient id="B" gradientTransform="matrix(.3253 0 0 .30413 260.855 18.390009)" gradientUnits="userSpaceOnUse" spreadMethod="reflect" x1="-744.58466" x2="-728.62476" xlink:href="#g" y1="296.54315" y2="296.41748"/><linearGradient id="C" gradientTransform="matrix(.3253 0 0 .30413 260.855 5.71205)" gradientUnits="userSpaceOnUse" spreadMethod="reflect" x1="-744.58466" x2="-728.62476" xlink:href="#g" y1="296.54315" y2="296.41748"/><linearGradient id="D" gradientTransform="matrix(.3253 0 0 .30413 260.855 -60.319031)" gradientUnits="userSpaceOnUse" x1="-757.66064" x2="-714.74719" xlink:href="#h" y1="620.91235" y2="356.50623"/><linearGradient id="E" gradientTransform="matrix(.3253 0 0 .30413 260.855 -60.319031)" gradientUnits="userSpaceOnUse" x1="-751.59839" x2="-736.92932" xlink:href="#g" y1="238.11371" y2="242.4993"/><radialGradient id="F" cx="-742.3244" cy="254.21584" fx="-745.34979" fy="255.14407" gradientTransform="matrix(.3253 0 0 .03379223 260.5562 8.306441)" gradientUnits="userSpaceOnUse" r="5.105321" xlink:href="#g"/><radialGradient id="G" cx="-749.71906" cy="253.47478" gradientTransform="matrix(.831647 -.00776058 .00267005 .250101 639.5352 -52.241131)" gradientUnits="userSpaceOnUse" r="4.234355" xlink:href="#g"/><radialGradient id="H" cx="78.620689" cy="801.51721" gradientTransform="matrix(1.452362 0 0 .51870092 -93.826501 -293.49141)" gradientUnits="userSpaceOnUse" r="5.793103" xlink:href="#h"/><path d="m5.8181 81.4552h23.2724v23.2724h-23.2724z" fill="url(#c)" opacity=".764706"/><path d="m5.8181 11.638h23.2724v69.8172h-23.2724z" fill="url(#b)"/><text x="552.36987" y="202.81038"><tspan fill="#555" x="552.36987" y="219.61037"/></text><path d="m17.4543 128h116v4.000001h-116z" fill="#fff" opacity=".262911"/><path d="m88 88h4v15.9996h-4z" fill="url(#d)" transform="matrix(1.454525 0 0 1.090921 -98.9077 -14.545848)"/><path d="m0 81.4552h5.8181v17.4543h-5.8181z" fill="url(#e)"/><text x="284.18808" y="202.81038"><tspan fill="#555" x="284.18808" y="219.61037"/></text><text x="-10.252362" y="133.87732"><tspan fill="#555" x="-10.252362" y="150.67731"/></text><text x="161.66467" y="-39.856026"><tspan fill="#555" x="161.66467" y="-23.056038"/></text><path d="m0 75.6371h34.9086v5.8181h-34.9086z" fill="#fff" opacity=".650718"/><path d="m0 8.8269498v2.8125002 17.453125 5.8125 17.458984 5.8125 17.460938 5.84375h5.8125 23.28125 5.8125.002v-2.84375h-.002v-20.460938h.002v-2.8125h-.002v-20.458984h23.28125v.0059h5.8125v-.0059h23.28125v.0059h5.8125v-.0059h23.28125v.0059h5.8125v-26.0840252h-29.09375-5.8125-23.28125-5.8125-23.28125-5.8125-23.28125zm5.8125 2.8125002h23.28125v20.453125h-23.28125zm29.09375 0h23.28125v20.453125h-23.28125zm29.09375 0h23.28125v20.453125h-23.28125zm29.09375 0h23.28125v20.453125h-23.28125zm-87.28125 23.265625h23.28125v20.458984h-23.28125zm0 23.271484h23.28125v20.460938h-23.28125z" fill="url(#f)"/><path d="m5.8181 11.638h110.5439v23.2724h-110.5439z" fill="#67bff9"/><path d="m0 8.8269498v2.8125002 17.453125 5.8125.0059h5.8125v-.0059h23.28125v.0059h5.8125v-.0059h23.28125v.0059h5.8125v-.0059h23.28125v.0059h5.8125v-.0059h23.28125v.0059h5.8125v-26.0840252h-29.09375-5.8125-23.28125-5.8125-23.28125-5.8125-23.28125zm5.8125 2.8125002h23.28125v20.453125h-23.28125zm29.09375 0h23.28125v20.453125h-23.28125zm29.09375 0h23.28125v20.453125h-23.28125zm29.09375 0h23.28125v20.453125h-23.28125z" fill="#284cc6"/><g transform="matrix(.75030458 0 0 .75030458 34.145602 36.305443)"><g fill-rule="evenodd"><g transform="matrix(.997901 -.09396955 .09266342 .984031 -10.67666 -4.092606)"><path d="m39.441097 76.987802 4.383813-34.931695c20.42875 10.837353 44.038279 19.132738 75.64332 24.090101-24.587531 4.309348-43.417496 12.753528-80.027133 10.841594z" fill="#2c72c7"/><path d="m39.611073 77.004034 4.383813-34.931695c20.42875 10.837353 40.553777 18.799987 72.158824 23.75735-24.587537 4.309348-39.933 13.086279-76.542637 11.174345z" fill="url(#i)"/><path d="m39.916984 75.709564 3.916303-31.20643c18.250137 9.681621 40.493952 17.218728 68.728513 21.647417-21.965425 3.849777-39.939396 11.267049-72.644816 9.559013z" fill="url(#j)" opacity=".772093"/></g><path d="m21.280867 72.869164v-56.203554c8.333593 3.279606 17.019073 6.038271 26.242818 8.181415 19.466861 4.523138 41.331312 6.304566 67.345475 4.455126-28.607985 14.918929-49.748958 34.406321-93.588293 43.567013z" fill="#0057ae"/><path d="m21.668388 72.869164v-56.203554c8.333593 3.279606 17.019073 6.038271 26.242818 8.181415 19.466861 4.523138 41.331311 6.304566 67.345474 4.455126-28.607983 14.918929-49.748957 34.406321-93.588292 43.567013z" fill="url(#k)"/><path d="m21.656175 71.011752v-52.186699c24.069159 9.472175 52.743822 14.072565 88.343825 11.54163-26.563395 13.852671-47.637666 32.139098-88.343825 40.645069z" fill="url(#l)" opacity=".874419"/></g><path d="m16.922519 16.92466 3.586828-12.5008887 3.586834 12.5008887v105.28512h-7.173662z"/><ellipse cx="20.331997" cy="5.02442" rx="4.564144" ry="4.75487"/><ellipse cx="20.385529" cy="2.564743" fill="url(#m)" rx="2.617065" ry="1.748016"/><ellipse cx="20.332712" cy="5.02495" fill="url(#n)" opacity=".702326" rx="4.135614" ry="4.219189"/><path d="m17.210784 26.467407c2.380267-1.89497 4.653099-1.770386 6.622544-3.649569v2.981119c-2.207515 2.206458-4.415029 1.33096-6.622544 3.649569z" fill="url(#o)" opacity=".702326"/><path d="m17.210784 32.806359c2.380267-1.89497 4.653099-1.770387 6.622544-3.649569v2.981119c-2.207515 2.206458-4.415029 1.330959-6.622544 3.649568z" fill="url(#p)" opacity=".702326"/><path d="m17.210784 20.128455c2.380267-1.894969 4.653099-1.770386 6.622544-3.649568v2.981119c-2.207515 2.206458-4.415029 1.330959-6.622544 3.649568z" fill="url(#q)" opacity=".702326"/><path d="m17.210784 39.145296c2.380267-1.89497 4.653099-1.770372 6.622544-3.649569v2.981133c-2.207515 2.206458-4.415029 1.33096-6.622544 3.649569z" fill="url(#r)" opacity=".702326"/><path d="m17.210784 45.484247c2.380267-1.89497 4.653099-1.770371 6.622544-3.649568v2.981133c-2.207515 2.206458-4.415029 1.330945-6.622544 3.649569z" fill="url(#s)" opacity=".702326"/><path d="m17.210784 51.823199c2.380267-1.89497 4.653099-1.770372 6.622544-3.649569v2.981133c-2.207515 2.206458-4.415029 1.330945-6.622544 3.649569z" fill="url(#t)" opacity=".702326"/><path d="m17.210784 58.16215c2.380267-1.894969 4.653099-1.770371 6.622544-3.649568v2.981133c-2.207515 2.206443-4.415029 1.330945-6.622544 3.649554z" fill="url(#u)" opacity=".702326"/><path d="m17.210784 64.501102c2.380267-1.89497 4.653099-1.770372 6.622544-3.649569v2.981134c-2.207515 2.206443-4.415029 1.330944-6.622544 3.649554z" fill="url(#v)" opacity=".702326"/><path d="m17.210784 70.840053c2.380267-1.894969 4.653099-1.770386 6.622544-3.649568v2.981133c-2.207515 2.206444-4.415029 1.330945-6.622544 3.649554z" fill="url(#w)" opacity=".702326"/><path d="m17.210784 77.179005c2.380267-1.89497 4.653099-1.770386 6.622544-3.649569v2.981134c-2.207515 2.206443-4.415029 1.330945-6.622544 3.649554z" fill="url(#x)" opacity=".702326"/><path d="m17.210784 83.517956c2.380267-1.894969 4.653099-1.770386 6.622544-3.649568v2.981119c-2.207515 2.206458-4.415029 1.330959-6.622544 3.649568z" fill="url(#y)" opacity=".702326"/><path d="m17.210784 89.856912c2.380267-1.894969 4.653099-1.770386 6.622544-3.649573v2.981124c-2.207515 2.206458-4.415029 1.330959-6.622544 3.649568z" fill="url(#z)" opacity=".702326"/><path d="m17.210784 102.5348c2.380267-1.89497 4.653099-1.77037 6.622544-3.649553v2.981123c-2.207515 2.20645-4.415029 1.33096-6.622544 3.64957z" fill="url(#A)" opacity=".702326"/><path d="m17.210784 108.87375c2.380267-1.89497 4.653099-1.77037 6.622544-3.64955v2.98112c-2.207515 2.20646-4.415029 1.33096-6.622544 3.64957z" fill="url(#B)" opacity=".702326"/><path d="m17.210784 96.195864c2.380267-1.894984 4.653099-1.770386 6.622544-3.649569v2.981119c-2.207515 2.206458-4.415029 1.33096-6.622544 3.649569z" fill="url(#C)" opacity=".702326"/><path d="m16.922519 16.92466 3.586828-12.5008887 3.586834 12.5008887v105.28512h-7.173662z" fill="url(#D)"/><path d="m19.410057 9.9369532-1.721797 6.9909028 2.754871-.046.688719-6.852928z" fill="url(#E)" fill-rule="evenodd" opacity=".697674"/><ellipse cx="19.078074" cy="16.896965" fill="url(#F)" opacity=".697674" rx="1.660761" ry=".17252"/><path d="m17.70536 18.908006-.0171-1.98015 2.754871-.046-1.015977 2.118143z" fill="url(#G)" fill-rule="evenodd" opacity=".697674"/><ellipse cx="20.359201" cy="122.25613" fill="url(#H)" rx="8.413683" ry="3.004887"/></g></svg>