<svg enable-background="new 0 0 128 128" height="128" viewBox="0 0 128 128" width="128" xmlns="http://www.w3.org/2000/svg" xmlns:xlink="http://www.w3.org/1999/xlink"><linearGradient id="a" gradientUnits="userSpaceOnUse" x1="85.219681" x2="61.336319" y1="93.219681" y2="69.336319"><stop offset="0"/><stop offset="1" stop-color="#393b38"/></linearGradient><linearGradient id="b" gradientUnits="userSpaceOnUse" x1="96" x2="88.0002" y1="104" y2="96.0002"><stop offset="0" stop-color="#888a85"/><stop offset=".0072" stop-color="#8c8e89"/><stop offset=".0673" stop-color="#abaca9"/><stop offset=".1347" stop-color="#c5c6c4"/><stop offset=".2115" stop-color="#dbdbda"/><stop offset=".3012" stop-color="#ebebeb"/><stop offset=".4122" stop-color="#f7f7f6"/><stop offset=".5679" stop-color="#fdfdfd"/><stop offset="1" stop-color="#fff"/></linearGradient><radialGradient id="c" cx="102" cy="112.3047" gradientTransform="matrix(.94807 0 0 .9510679 3.32352 5.274458)" gradientUnits="userSpaceOnUse" r="139.55859"><stop offset="0" stop-color="#535557"/><stop offset=".11366145" stop-color="#898a8c"/><stop offset=".20296688" stop-color="#ececec"/><stop offset=".2363" stop-color="#fafafa"/><stop offset=".2722" stop-color="#fff"/><stop offset=".5313" stop-color="#fafafa"/><stop offset=".8449" stop-color="#ebecec"/><stop offset="1" stop-color="#e1e2e3"/></radialGradient><radialGradient id="d" cx="100.8098464" cy="112.93460525694" gradientUnits="userSpaceOnUse" r="135.1875556917"><stop offset="0" stop-color="#3e3e3e"/><stop offset=".0151" stop-color="#505050"/><stop offset=".0558" stop-color="#7e7e7e"/><stop offset=".1357" stop-color="#c6c6c6"/><stop offset=".20990001" stop-color="#f1f1f1"/><stop offset=".24349999" stop-color="#fcfcfc"/><stop offset=".2722" stop-color="#fff"/></radialGradient><filter id="e"><feGaussianBlur stdDeviation="1.0394514"/></filter><filter id="f"><feGaussianBlur stdDeviation=".50063244"/></filter><filter id="g"><feGaussianBlur stdDeviation=".40750996"/></filter><filter id="h"><feGaussianBlur stdDeviation=".4901192"/></filter><filter id="i"><feGaussianBlur stdDeviation=".90565481"/></filter><filter id="j" color-interpolation-filters="sRGB" height="1.306617" width="1.43589" x="-.217945" y="-.153309"><feGaussianBlur stdDeviation="3.1542391"/></filter><linearGradient id="k" gradientUnits="userSpaceOnUse" x1="32.81356" x2="28.745761" y1="44.474576" y2="19.254237"><stop offset="0" stop-color="#070707"/><stop offset="1" stop-color="#474747"/></linearGradient><path d="m23 8.9687825.040816 114.0246875h61.131184c.53 0 1.039-.211 1.414-.586l32.828-32.828001c.375-.375.586-.884.586-1.414v-79.1966865z" filter="url(#e)" opacity=".553425" transform="matrix(1.0090419 0 0 1.003276 -7.641977 .929762)"/><path d="m23 9 .04082 113.99347h61.13118c.53 0 1.039-.211 1.414-.586l32.828-32.828001c.375-.375.586-.884.586-1.414v-79.165469z" filter="url(#e)" opacity=".306849" transform="matrix(1.0090419 0 0 1.003276 -7.641977 .929762)"/><path d="m24.905735 10.673272.01426 110.189918 58.676001-.0001c.53 0 1.039-.211 1.414-.586l31.484-31.765934c.375-.375.586-.884.586-1.414l.0812-76.423884z" filter="url(#f)" opacity=".89589" transform="matrix(1.0090419 0 0 1.003276 -7.641977 .929762)"/><path d="m23 9.9655172.040816 113.0279528h61.131184c.53 0 1.039-.211 1.414-.586l32.828-32.828001c.375-.375.586-.884.586-1.414v-78.1999518z" filter="url(#e)" opacity=".306849" transform="matrix(1.0090419 0 0 1.003276 -7.641977 .929762)"/><path d="m17.488953 11.638.0144 110.55089h59.256106c.513401 0 1.006458-.20439 1.369714-.56765l31.799827-31.799829c.36326-.363255.56764-.856313.56764-1.369714l.08191-76.813697z" fill="url(#d)"/><path d="m24.066856 17.512144c-.522387 0-.94807.42703-.94807.951069l.321923 96.737247c0 .525.425684.95108.94807.95108h52.099199c.249342 0 .493944-.10082.670284-.27867l28.123238-27.221657c.17729-.17785.27778-.422273.27778-.672405l-.7-69.493672c0-.524039-.42473-.951068-.94806-.951068z" fill="url(#c)"/><g transform="matrix(1.5 0 0 1.5 10.937974 27.624774)"><path d="m22.720703 5.15625c-3.013405.030675-5.734347 2.7794073-5.734375 5.792969v43.93164c.000396 3.429673 3.617041 6.371437 6.97461 5.671875l10.515624-2.189453 2.808594 2.027344c1.551689 1.121614 3.676784 1.397262 5.464844.712891.01127-.0042 1.189475-.440287 2.488281-1.167969.591578-.331442 1.457617-.847678 2.304688-1.658203.390507-.37366 1.041481-1.084667 1.507812-2.017578.576268-1.152849.952286-2.610783.501953-4.41211-.02267-.09068-.161327-.768547-.236328-1.123047l6.808594-4.601562c2.812058-1.90024 3.258266-6.468596.869141-8.878906v-.002l-30.101563-30.3710472c-1.08703-1.096551-2.62791-1.7300375-4.171875-1.7148438z" filter="url(#j)" opacity=".76"/><path d="m17.042969 8.3867188c-2.126608.021647-4.046855 1.9611722-4.046875 4.0878902v43.931641c.00014 1.210187.570764 2.408443 1.509765 3.171875.939002.763432 2.227365 1.076924 3.41211.830078l11.251953-2.341797 3.419922 2.466797c1.095643.791969 2.595135.987874 3.857422.503906h.002c.0091-.0034 1.09236-.410391 2.259765-1.064453.555108-.311009 1.260816-.734296 1.958985-1.402344.33225-.317916.804398-.831261 1.162109-1.546874.413737-.827699.696141-1.943955.373047-3.236329-.07021-.280852-.292605-1.376547-.484375-2.308593l7.755859-5.242188c.992424-.670628 1.662582-1.798167 1.779297-2.990234.116715-1.192068-.322513-2.426961-1.166015-3.277344l-30.10161-30.3730469c-.767134-.7738533-1.853759-1.2197068-2.943359-1.2089843z" fill="#fff" transform="translate(5.694915 -3.525424)"/><path d="m23.737884 11.281217v40.419921l11.863281-2.470703a.95888433.95888433 0 0 1 .755859.16211l4.425782 3.197265c.285679-.118453.599894-.234307 1.154297-.544922.384975-.215689.749087-.464247.9375-.644531.06051-.0579.06738-.07382.08789-.101562-.320785-1.338154-1.054687-5.009766-1.054687-5.009766a.95888433.95888433 0 0 1 .402343-.982422l9.074219-6.130859z" fill="url(#k)"/></g><g transform="matrix(1.1080161 0 0 1.1080161 -12.744784 -10.01667)"><path d="m111.414 86.586c.25-.25-26.379-1.586-31.414-1.586-1.654 0-3 1.346-3 3 0 5.035 1.336 31.664 1.586 31.414z" fill="none" filter="url(#g)" opacity=".681"/><path d="m111.414 86.586c.375-.375-21.97-.586-31.414-.586-1.103 0-2 .897-2 2 0 9.444.211 31.789.586 31.414z" fill="#030303" filter="url(#i)" opacity=".818"/><path d="m111.414 86.586c.239-.239-21.607.414-31.414.414-.553 0-1 .447-1 1 0 9.807-.653 31.653-.414 31.414z" fill="url(#a)" filter="url(#h)" opacity=".1"/><path d="m79.721619 119.31106 31.505501-31.505504h-31.505501z" fill="url(#b)"/></g></svg>