<?xml version="1.0" encoding="UTF-8" standalone="no"?>
<!-- Created with Inkscape (http://www.inkscape.org/) -->

<svg
   xmlns:dc="http://purl.org/dc/elements/1.1/"
   xmlns:cc="http://creativecommons.org/ns#"
   xmlns:rdf="http://www.w3.org/1999/02/22-rdf-syntax-ns#"
   xmlns:svg="http://www.w3.org/2000/svg"
   xmlns="http://www.w3.org/2000/svg"
   xmlns:xlink="http://www.w3.org/1999/xlink"
   xmlns:sodipodi="http://sodipodi.sourceforge.net/DTD/sodipodi-0.dtd"
   xmlns:inkscape="http://www.inkscape.org/namespaces/inkscape"
   width="128"
   height="128"
   viewBox="0 0 33.866666 33.866668"
   version="1.1"
   id="svg8"
   inkscape:version="0.92.3 (unknown)"
   sodipodi:docname="lc_insertlayer.svg"
   inkscape:export-filename="/home/rizmut/Dokumen/Rizmut/Github/libreoffice-style-karasa-jaga/build/images_karasa_jaga/cmd/lc_insertlayer.png"
   inkscape:export-xdpi="16.5"
   inkscape:export-ydpi="16.5">
  <defs
     id="defs2">
    <linearGradient
       inkscape:collect="always"
       xlink:href="#linearGradient1414"
       id="linearGradient1416"
       x1="56"
       y1="52.000004"
       x2="88"
       y2="96"
       gradientUnits="userSpaceOnUse"
       gradientTransform="matrix(0.26458333,0,0,0.26458333,0,263.13332)" />
    <linearGradient
       inkscape:collect="always"
       id="linearGradient1414">
      <stop
         style="stop-color:#dfe2e8;stop-opacity:1"
         offset="0"
         id="stop1410" />
      <stop
         style="stop-color:#fefefe;stop-opacity:1"
         offset="1"
         id="stop1412" />
    </linearGradient>
    <linearGradient
       inkscape:collect="always"
       xlink:href="#linearGradient1427"
       id="linearGradient1429"
       x1="16"
       y1="16.000004"
       x2="88"
       y2="72"
       gradientUnits="userSpaceOnUse"
       gradientTransform="matrix(0.26458333,0,0,0.26458333,0,263.13332)" />
    <linearGradient
       inkscape:collect="always"
       id="linearGradient1427">
      <stop
         style="stop-color:#fefefe;stop-opacity:1;"
         offset="0"
         id="stop1423" />
      <stop
         style="stop-color:#fefefe;stop-opacity:0;"
         offset="1"
         id="stop1425" />
    </linearGradient>
    <linearGradient
       inkscape:collect="always"
       xlink:href="#linearGradient1414"
       id="linearGradient2335"
       gradientUnits="userSpaceOnUse"
       gradientTransform="matrix(0.26458333,0,0,0.26458333,0,263.13332)"
       x1="56"
       y1="52.000004"
       x2="88"
       y2="96" />
    <linearGradient
       inkscape:collect="always"
       xlink:href="#linearGradient1427"
       id="linearGradient2337"
       gradientUnits="userSpaceOnUse"
       gradientTransform="matrix(0.26458333,0,0,0.26458333,0,263.13332)"
       x1="16"
       y1="16.000004"
       x2="88"
       y2="72" />
    <radialGradient
       inkscape:collect="always"
       xlink:href="#linearGradient1752"
       id="radialGradient1754"
       cx="84.903702"
       cy="-130.14005"
       fx="84.903702"
       fy="-130.14005"
       r="57.039597"
       gradientUnits="userSpaceOnUse"
       gradientTransform="matrix(0.30794145,0.30794145,-0.30794145,0.30794145,50.133878,110.90745)" />
    <linearGradient
       inkscape:collect="always"
       id="linearGradient1752">
      <stop
         style="stop-color:#011701;stop-opacity:1"
         offset="0"
         id="stop1748" />
      <stop
         id="stop1288"
         offset="0.80671918"
         style="stop-color:#145703;stop-opacity:1" />
      <stop
         style="stop-color:#2fa207;stop-opacity:0.38431373"
         offset="1"
         id="stop1750" />
    </linearGradient>
    <radialGradient
       inkscape:collect="always"
       xlink:href="#linearGradient1752"
       id="radialGradient1292"
       gradientUnits="userSpaceOnUse"
       gradientTransform="matrix(0.30347528,0.31234377,-0.3628951,0.35259129,43.626059,116.16172)"
       cx="43.084476"
       cy="-121.92532"
       fx="43.084476"
       fy="-121.92532"
       r="57.039597" />
    <radialGradient
       inkscape:collect="always"
       xlink:href="#linearGradient1752"
       id="radialGradient1758"
       gradientUnits="userSpaceOnUse"
       cx="51.991096"
       cy="-78.028419"
       fx="51.991096"
       fy="-78.028419"
       r="57.039597"
       gradientTransform="matrix(0.28232256,0.33158686,-0.56115095,0.47778001,31.708295,122.93033)" />
    <linearGradient
       inkscape:collect="always"
       xlink:href="#linearGradient2822"
       id="linearGradient1235"
       gradientUnits="userSpaceOnUse"
       gradientTransform="scale(1.0975951,0.9110828)"
       x1="26.091133"
       y1="14.856744"
       x2="31.500689"
       y2="14.856744" />
    <linearGradient
       id="linearGradient2822">
      <stop
         id="stop2824"
         offset="0"
         style="stop-color:#ffffff;stop-opacity:1;" />
      <stop
         id="stop2826"
         offset="1"
         style="stop-color:#ffffff;stop-opacity:0;" />
    </linearGradient>
    <filter
       id="filter3477-6-2"
       height="1.2774813"
       y="-0.13874064"
       width="1.279832"
       x="-0.13991599">
      <feGaussianBlur
         id="feGaussianBlur3479-7-7"
         stdDeviation="0.28784801"
         inkscape:collect="always" />
    </filter>
    <filter
       id="filter1094"
       height="1.2774813"
       y="-0.13874064"
       width="1.279832"
       x="-0.13991599">
      <feGaussianBlur
         id="feGaussianBlur1092"
         stdDeviation="0.28784801"
         inkscape:collect="always" />
    </filter>
    <linearGradient
       x1="304.88663"
       y1="385.86127"
       x2="345.62039"
       y2="384.62384"
       id="linearGradient3298-9"
       xlink:href="#linearGradient3489"
       gradientUnits="userSpaceOnUse" />
    <linearGradient
       id="linearGradient3489">
      <stop
         style="stop-color:#765c44;stop-opacity:1"
         offset="0"
         id="stop3491" />
      <stop
         style="stop-color:#765c44;stop-opacity:0"
         offset="1"
         id="stop3493" />
    </linearGradient>
    <filter
       id="filter1102"
       height="1.2774813"
       y="-0.13874064"
       width="1.279832"
       x="-0.13991599">
      <feGaussianBlur
         id="feGaussianBlur1100"
         stdDeviation="0.28784801"
         inkscape:collect="always" />
    </filter>
    <linearGradient
       inkscape:collect="always"
       xlink:href="#linearGradient3366-3"
       id="linearGradient1237"
       gradientUnits="userSpaceOnUse"
       gradientTransform="translate(56.7)"
       x1="31.90625"
       y1="13.510336"
       x2="34.875107"
       y2="13.510336"
       spreadMethod="reflect" />
    <linearGradient
       id="linearGradient3366-3">
      <stop
         style="stop-color:#c8ff87;stop-opacity:1"
         offset="0"
         id="stop3368-5" />
      <stop
         style="stop-color:#abff87;stop-opacity:0"
         offset="1"
         id="stop4472-6" />
    </linearGradient>
    <filter
       id="filter1110"
       height="1.2774813"
       y="-0.13874064"
       width="1.279832"
       x="-0.13991599">
      <feGaussianBlur
         id="feGaussianBlur1108"
         stdDeviation="0.28784801"
         inkscape:collect="always" />
    </filter>
    <linearGradient
       x1="31.90625"
       y1="13.510336"
       x2="34.875107"
       y2="13.510336"
       id="linearGradient3310-2"
       xlink:href="#linearGradient3207"
       gradientUnits="userSpaceOnUse"
       gradientTransform="translate(-0.3)"
       spreadMethod="reflect" />
    <linearGradient
       id="linearGradient3207">
      <stop
         style="stop-color:#ffffff;stop-opacity:1"
         offset="0"
         id="stop3209" />
      <stop
         style="stop-color:#790000;stop-opacity:0"
         offset="1"
         id="stop3211" />
    </linearGradient>
    <filter
       id="filter1118"
       height="1.2774813"
       y="-0.13874064"
       width="1.279832"
       x="-0.13991599">
      <feGaussianBlur
         id="feGaussianBlur1116"
         stdDeviation="0.28784801"
         inkscape:collect="always" />
    </filter>
    <filter
       id="filter1129"
       height="1.2774813"
       y="-0.13874064"
       width="1.279832"
       x="-0.13991599">
      <feGaussianBlur
         id="feGaussianBlur1127"
         stdDeviation="0.28784801"
         inkscape:collect="always" />
    </filter>
    <radialGradient
       inkscape:collect="always"
       xlink:href="#linearGradient1737"
       id="radialGradient1739"
       cx="50.424522"
       cy="-81.945961"
       fx="50.424522"
       fy="-81.945961"
       r="50.15279"
       gradientTransform="matrix(0.30794145,0.30794145,-0.30794145,0.30794145,50.133877,110.90745)"
       gradientUnits="userSpaceOnUse" />
    <linearGradient
       inkscape:collect="always"
       id="linearGradient1737">
      <stop
         style="stop-color:#7ae91e;stop-opacity:0.99607843"
         offset="0"
         id="stop1733" />
      <stop
         style="stop-color:#62c916;stop-opacity:1"
         offset="1"
         id="stop1735" />
    </linearGradient>
    <filter
       inkscape:collect="always"
       style="color-interpolation-filters:sRGB"
       id="filter1271"
       x="-0.012000081"
       width="1.0240002"
       y="-0.011999919"
       height="1.0239998">
      <feGaussianBlur
         inkscape:collect="always"
         stdDeviation="0.28192153"
         id="feGaussianBlur1273" />
    </filter>
    <linearGradient
       inkscape:collect="always"
       xlink:href="#linearGradient2822"
       id="linearGradient1286"
       x1="88.388145"
       y1="51.615383"
       x2="101.27929"
       y2="113.91425"
       gradientUnits="userSpaceOnUse" />
    <linearGradient
       inkscape:collect="always"
       xlink:href="#linearGradient2822"
       id="linearGradient2478"
       gradientUnits="userSpaceOnUse"
       gradientTransform="scale(1.0975951,0.9110828)"
       x1="26.091133"
       y1="14.856744"
       x2="31.500689"
       y2="14.856744" />
    <linearGradient
       inkscape:collect="always"
       xlink:href="#linearGradient3366-3"
       id="linearGradient2480"
       gradientUnits="userSpaceOnUse"
       gradientTransform="translate(56.7)"
       x1="31.90625"
       y1="13.510336"
       x2="34.875107"
       y2="13.510336"
       spreadMethod="reflect" />
  </defs>
  <sodipodi:namedview
     id="base"
     pagecolor="#ffffff"
     bordercolor="#666666"
     borderopacity="1.0"
     inkscape:pageopacity="0.0"
     inkscape:pageshadow="2"
     inkscape:zoom="2.8"
     inkscape:cx="89.740541"
     inkscape:cy="52.965559"
     inkscape:document-units="mm"
     inkscape:current-layer="layer1"
     showgrid="true"
     units="px"
     inkscape:window-width="1366"
     inkscape:window-height="706"
     inkscape:window-x="0"
     inkscape:window-y="0"
     inkscape:window-maximized="1">
    <inkscape:grid
       type="xygrid"
       id="grid2266"
       spacingx="1.5393723"
       spacingy="1.5393723"
       empspacing="2" />
  </sodipodi:namedview>
  <metadata
     id="metadata5">
    <rdf:RDF>
      <cc:Work
         rdf:about="">
        <dc:format>image/svg+xml</dc:format>
        <dc:type
           rdf:resource="http://purl.org/dc/dcmitype/StillImage" />
        <dc:title></dc:title>
      </cc:Work>
    </rdf:RDF>
  </metadata>
  <g
     inkscape:label="Layer 1"
     inkscape:groupmode="layer"
     id="layer1"
     transform="translate(0,-263.13332)">
    <g
       id="g2333"
       transform="translate(4.7667666e-4,7.6008475)"
       style="opacity:0.75">
      <path
         sodipodi:nodetypes="cccccccccccccccc"
         inkscape:connector-curvature="0"
         style="opacity:1;fill:#555555;fill-opacity:1;stroke:none;stroke-width:4.5;stroke-linecap:round;stroke-linejoin:round;stroke-miterlimit:4;stroke-dasharray:none;stroke-dashoffset:0;stroke-opacity:1"
         d="m 0,46.5466 v 5.8181 l 30.908601,46.661989 8.728499,-0.11719 84.3611,0.117188 h 3.75781 l 0.24219,-0.117188 v -5.70091 -0.117188 L 93.089602,46.5466 Z m 6.6660156,5.8181 H 92 l 29.33218,40.726701 H 34.908601 Z"
         transform="matrix(0.26458333,0,0,0.26458333,0,263.13332)"
         id="path2327" />
      <path
         style="fill:url(#linearGradient2335);fill-opacity:1;fill-rule:evenodd;stroke:none;stroke-width:0.26458332px;stroke-linecap:butt;stroke-linejoin:miter;stroke-opacity:1"
         d="m 25.335921,275.83332 0.05013,0.0139 0.01395,-0.0139 z m -23.5722044,1.15482 7.4725172,10.77561 H 32.102472 l -7.760806,-10.77561 z"
         id="path2329"
         inkscape:connector-curvature="0"
         sodipodi:nodetypes="ccccccccc" />
      <path
         style="opacity:1;fill:url(#linearGradient2337);fill-opacity:1;stroke:none;stroke-width:1.19062495;stroke-linecap:round;stroke-linejoin:round;stroke-miterlimit:4;stroke-dasharray:none;stroke-dashoffset:0;stroke-opacity:1"
         d="m 25.335921,275.83332 0.05013,0.0139 0.01395,-0.0139 z M 1.7637166,276.98814 5.99705,283.24165 H 28.575 l -4.233334,-6.25351 z"
         id="path2331"
         inkscape:connector-curvature="0"
         sodipodi:nodetypes="ccccccccc" />
    </g>
    <g
       id="g1439">
      <path
         id="rect1392"
         transform="matrix(0.26458333,0,0,0.26458333,0,263.13332)"
         d="m 0,46.5466 v 5.8181 l 30.908601,46.661989 8.728499,-0.11719 84.3611,0.117188 h 3.75781 l 0.24219,-0.117188 v -5.70091 -0.117188 L 93.089602,46.5466 Z m 6.6660156,5.8181 H 92 l 29.33218,40.726701 -86.423579,0 z"
         style="opacity:1;fill:#555555;fill-opacity:1;stroke:none;stroke-width:4.5;stroke-linecap:round;stroke-linejoin:round;stroke-miterlimit:4;stroke-dasharray:none;stroke-dashoffset:0;stroke-opacity:1"
         inkscape:connector-curvature="0"
         sodipodi:nodetypes="cccccccccccccccc" />
      <path
         sodipodi:nodetypes="ccccccccc"
         inkscape:connector-curvature="0"
         id="path1405"
         d="m 25.335921,275.83332 0.05013,0.0139 0.01395,-0.0139 z m -23.5722044,1.15482 7.4725172,10.77561 22.8662382,0 -7.760806,-10.77561 z"
         style="fill:url(#linearGradient1416);fill-opacity:1;fill-rule:evenodd;stroke:none;stroke-width:0.26458332px;stroke-linecap:butt;stroke-linejoin:miter;stroke-opacity:1" />
      <path
         sodipodi:nodetypes="ccccccccc"
         inkscape:connector-curvature="0"
         id="rect1418"
         d="m 25.335921,275.83332 0.05013,0.0139 0.01395,-0.0139 z M 1.7637166,276.98814 5.99705,283.24165 H 28.575 l -4.233334,-6.25351 z"
         style="opacity:1;fill:url(#linearGradient1429);fill-opacity:1;stroke:none;stroke-width:1.19062495;stroke-linecap:round;stroke-linejoin:round;stroke-miterlimit:4;stroke-dasharray:none;stroke-dashoffset:0;stroke-opacity:1" />
    </g>
    <g
       transform="matrix(0.26458333,0,0,0.26458333,-16.943437,246.22866)"
       id="g1309">
      <path
         sodipodi:nodetypes="ccccccccccccccccccccc"
         style="opacity:1;fill:#1f5623;fill-opacity:0.90588235;stroke:none;stroke-width:2.11563444;stroke-linecap:square;stroke-linejoin:bevel;stroke-miterlimit:4;stroke-dasharray:none;stroke-dashoffset:0;stroke-opacity:0.73039216"
         d="m 127.39616,90.58295 c 5e-5,-1.656397 -1.34274,-2.99918 -2.99913,-2.999132 H 104.51311 V 67.699047 c 5e-5,-1.656396 -1.34274,-2.99918 -2.99913,-2.999132 l -10.617743,5e-6 c -1.656393,-4.8e-5 -2.999178,1.342735 -2.999131,2.999127 v 19.884771 h -19.88392 c -1.656396,-4.8e-5 -2.99918,1.342735 -2.999132,2.999132 v 10.61774 c -4.8e-5,1.6564 1.342736,2.99918 2.999132,2.99913 h 19.88392 v 19.88392 c -5e-5,1.6564 1.342736,2.99918 2.999132,2.99913 h 10.617742 c 1.65639,5e-5 2.99918,-1.34273 2.99913,-2.99913 v -19.88392 h 19.88392 c 1.6564,5e-5 2.99918,-1.34274 2.99913,-2.99913 z"
         id="path1760"
         inkscape:connector-curvature="0" />
      <path
         sodipodi:nodetypes="ccccccccccccccccccccc"
         inkscape:connector-curvature="0"
         id="path1727"
         d="m 127.39616,90.58295 c 5e-5,-1.656397 -1.34274,-2.99918 -2.99913,-2.999132 H 104.51311 V 67.699047 c 5e-5,-1.656396 -1.34274,-2.99918 -2.99913,-2.999132 l -10.617743,5e-6 c -1.656393,-4.8e-5 -2.999178,1.342735 -2.999131,2.999127 v 19.884771 h -19.88392 c -1.656396,-4.8e-5 -2.99918,1.342735 -2.999132,2.999132 v 10.61774 c -4.8e-5,1.6564 1.342736,2.99918 2.999132,2.99913 h 19.88392 v 19.88392 c -5e-5,1.6564 1.342736,2.99918 2.999132,2.99913 h 10.617742 c 1.65639,5e-5 2.99918,-1.34273 2.99913,-2.99913 v -19.88392 h 19.88392 c 1.6564,5e-5 2.99918,-1.34274 2.99913,-2.99913 z"
         style="opacity:1;fill:url(#radialGradient1754);fill-opacity:1;stroke:none;stroke-width:2.11563444;stroke-linecap:square;stroke-linejoin:bevel;stroke-miterlimit:4;stroke-dasharray:none;stroke-dashoffset:0;stroke-opacity:0.73039216" />
      <path
         sodipodi:nodetypes="ccccccccccccccccccccc"
         style="opacity:1;fill:#066704;fill-opacity:1;stroke:none;stroke-width:2.11563444;stroke-linecap:square;stroke-linejoin:bevel;stroke-miterlimit:4;stroke-dasharray:none;stroke-dashoffset:0;stroke-opacity:0.73039216"
         d="m 127.39616,90.58295 c 5e-5,-1.656397 -1.34274,-2.99918 -2.99913,-2.999132 H 104.51311 V 67.699047 c 5e-5,-1.656396 -1.34274,-2.99918 -2.99913,-2.999132 l -10.617743,5e-6 c -1.656393,-4.8e-5 -2.999178,1.342735 -2.999131,2.999127 v 19.884771 h -19.88392 c -1.656396,-4.8e-5 -2.99918,1.342735 -2.999132,2.999132 v 10.61774 c -4.8e-5,1.6564 1.342736,2.99918 2.999132,2.99913 h 19.88392 v 19.88392 c -5e-5,1.6564 1.342736,2.99918 2.999132,2.99913 h 10.617742 c 1.65639,5e-5 2.99918,-1.34273 2.99913,-2.99913 v -19.88392 h 19.88392 c 1.6564,5e-5 2.99918,-1.34274 2.99913,-2.99913 z"
         id="path1762"
         inkscape:connector-curvature="0" />
      <path
         inkscape:connector-curvature="0"
         id="path1290"
         d="m 127.39616,90.58295 c 5e-5,-1.656397 -1.34274,-2.99918 -2.99913,-2.999132 H 104.51311 V 67.699047 c 5e-5,-1.656396 -1.34274,-2.99918 -2.99913,-2.999132 l -10.617743,5e-6 c -1.656393,-4.8e-5 -2.999178,1.342735 -2.999131,2.999127 v 19.884771 h -19.88392 c -1.656396,-4.8e-5 -2.99918,1.342735 -2.999132,2.999132 v 10.61774 c -4.8e-5,1.6564 1.342736,2.99918 2.999132,2.99913 h 19.88392 v 19.88392 c -5e-5,1.6564 1.342736,2.99918 2.999132,2.99913 h 10.617742 c 1.65639,5e-5 2.99918,-1.34273 2.99913,-2.99913 v -19.88392 h 19.88392 c 1.6564,5e-5 2.99918,-1.34274 2.99913,-2.99913 z"
         style="opacity:1;fill:url(#radialGradient1292);fill-opacity:1;stroke:none;stroke-width:2.11563444;stroke-linecap:square;stroke-linejoin:bevel;stroke-miterlimit:4;stroke-dasharray:none;stroke-dashoffset:0;stroke-opacity:0.73039216"
         sodipodi:nodetypes="ccccccccccccccccccccc" />
      <path
         sodipodi:nodetypes="ccccccccccccccccccccc"
         style="opacity:1;fill:url(#radialGradient1758);fill-opacity:1;stroke:none;stroke-width:2.11563444;stroke-linecap:square;stroke-linejoin:bevel;stroke-miterlimit:4;stroke-dasharray:none;stroke-dashoffset:0;stroke-opacity:0.73039216"
         d="m 127.39616,90.58295 c 5e-5,-1.656397 -1.34274,-2.99918 -2.99913,-2.999132 H 104.51311 V 67.699047 c 5e-5,-1.656396 -1.34274,-2.99918 -2.99913,-2.999132 l -10.617743,5e-6 c -1.656393,-4.8e-5 -2.999178,1.342735 -2.999131,2.999127 v 19.884771 h -19.88392 c -1.656396,-4.8e-5 -2.99918,1.342735 -2.999132,2.999132 v 10.61774 c -4.8e-5,1.6564 1.342736,2.99918 2.999132,2.99913 h 19.88392 v 19.88392 c -5e-5,1.6564 1.342736,2.99918 2.999132,2.99913 h 10.617742 c 1.65639,5e-5 2.99918,-1.34273 2.99913,-2.99913 v -19.88392 h 19.88392 c 1.6564,5e-5 2.99918,-1.34274 2.99913,-2.99913 z"
         id="path1756"
         inkscape:connector-curvature="0" />
      <g
         transform="matrix(0.96276744,0.96276744,-0.96276744,0.96276744,-63.104737,203.14372)"
         id="g1885">
        <path
           inkscape:connector-curvature="0"
           id="path5159"
           style="opacity:0.49812736;fill:url(#linearGradient2478);fill-opacity:1;fill-rule:evenodd;stroke:none;filter:url(#filter3477-6-2)"
           transform="matrix(0,0.67466301,0.68114154,0,0.72989977,-148.26656)"
           d="m 31.7,16 2.875,-3.375 c -1.051205,-1.695758 -3.935136,-2.288018 -5.9375,-0.3125 l 2.8125,3.375 z" />
        <path
           inkscape:connector-curvature="0"
           id="path3485"
           style="opacity:0.79026214;fill:url(#linearGradient1235);fill-opacity:1;fill-rule:evenodd;stroke:none;filter:url(#filter3477-6-2)"
           transform="matrix(-0.67268176,0,0,-0.6662837,60.004679,-112.32516)"
           d="m 31.7,16 2.875,-3.375 c -1.051205,-1.695758 -3.935136,-2.288018 -5.9375,-0.3125 l 2.8125,3.375 z" />
        <path
           inkscape:connector-curvature="0"
           id="path3493"
           style="opacity:0.49812736;fill:url(#linearGradient3298-9);fill-opacity:1;fill-rule:evenodd;stroke:none;filter:url(#filter3477-6-2)"
           transform="matrix(0,0.61094066,-0.61680729,0,52.67253,-146.25905)"
           d="m 31.7,16 2.875,-3.375 c -1.051205,-1.695758 -3.935136,-2.288018 -5.9375,-0.3125 l 2.8125,3.375 z" />
        <path
           inkscape:connector-curvature="0"
           id="path3487"
           style="opacity:0.79026214;fill:url(#linearGradient2480);fill-opacity:1;fill-rule:evenodd;stroke:none;filter:url(#filter3477-6-2)"
           transform="matrix(-0.61680729,0,0,-0.61094066,69.862209,-112.84794)"
           d="m 88.7,16 2.875,-3.375 c -1.051205,-1.695758 -3.935136,-2.288018 -5.9375,-0.3125 l 2.8125,3.375 z" />
        <path
           inkscape:connector-curvature="0"
           id="path3403"
           style="opacity:0.79026214;fill:url(#linearGradient3310-2);fill-opacity:1;fill-rule:evenodd;stroke:none;filter:url(#filter3477-6-2)"
           transform="matrix(-0.56093282,0,0,0.55559763,56.48415,-163.44796)"
           d="m 31.7,16 2.875,-3.375 c -1.051205,-1.695758 -3.935136,-2.288018 -5.9375,-0.3125 l 2.8125,3.375 z" />
        <path
           inkscape:connector-curvature="0"
           id="path3481"
           style="opacity:0.79026214;fill:url(#linearGradient1237);fill-opacity:1;fill-rule:evenodd;stroke:none;filter:url(#filter3477-6-2)"
           transform="matrix(-0.57588504,0,0,0.57040764,66.240428,-163.58786)"
           d="m 88.7,16 2.875,-3.375 c -1.051205,-1.695758 -3.935136,-2.288018 -5.9375,-0.3125 l 2.8125,3.375 z" />
      </g>
      <path
         sodipodi:nodetypes="ccccccccccccc"
         inkscape:connector-curvature="0"
         id="rect1722"
         d="M 124.39703,90.58295 H 101.51398 V 67.699052 l -10.617741,-5e-6 -10e-7,22.883903 H 68.013186 v 10.61774 h 22.883052 v 22.88305 h 10.617742 v -22.88305 h 22.88305 z"
         style="opacity:1;fill:url(#radialGradient1739);fill-opacity:1;stroke:none;stroke-width:2.11563444;stroke-linecap:square;stroke-linejoin:bevel;stroke-miterlimit:4;stroke-dasharray:none;stroke-dashoffset:0;stroke-opacity:0.73039216" />
      <path
         sodipodi:nodetypes="cccccccccccccccccccccccccccccc"
         id="path1741"
         d="m 101.51439,67.699139 -10.617965,-5e-6 V 90.583315 L 68.012846,90.58288 v 10.61797 h 22.882977 l 1e-6,22.88297 h 10.617966 v -22.88297 l 22.88298,-1e-5 -1e-5,-10.617956 h -22.88297 z m -0.75422,0.754216 -6.1e-4,22.129359 c -4e-5,0.41656 0.33766,0.754256 0.75422,0.754217 h 22.12876 v 9.109529 h -22.12876 c -0.41656,-4e-5 -0.75426,0.33766 -0.75422,0.75422 v 22.12876 h -9.10953 v -22.12876 c 4e-5,-0.41656 -0.337657,-0.75426 -0.754216,-0.75422 h -22.12876 v -9.109534 l 22.129362,4.36e-4 c 0.416558,3.9e-5 0.754257,-0.337657 0.754216,-0.754216 V 68.453185 Z"
         style="opacity:1;fill:#eef4ca;fill-opacity:0.77941165;stroke:none;stroke-width:2.11563444;stroke-linecap:square;stroke-linejoin:bevel;stroke-miterlimit:4;stroke-dasharray:none;stroke-dashoffset:0;stroke-opacity:0.73039216;filter:url(#filter1271)"
         inkscape:connector-curvature="0" />
      <path
         inkscape:connector-curvature="0"
         id="path1275"
         d="M 90.896484,67.699219 V 90.582031 H 68.013672 v 6.925781 a 65.433395,38.789856 0 0 0 17.794922,1.498047 65.433395,38.789856 0 0 0 38.587886,-7.521484 V 90.582031 H 101.51367 V 67.699219 Z"
         style="opacity:1;fill:url(#linearGradient1286);fill-opacity:1;stroke:none;stroke-width:2;stroke-linecap:square;stroke-linejoin:round;stroke-miterlimit:4;stroke-dasharray:none;stroke-dashoffset:0;stroke-opacity:1" />
    </g>
  </g>
</svg>
