<?xml version="1.0" encoding="UTF-8" standalone="no"?>
<svg
   xmlns:dc="http://purl.org/dc/elements/1.1/"
   xmlns:cc="http://creativecommons.org/ns#"
   xmlns:rdf="http://www.w3.org/1999/02/22-rdf-syntax-ns#"
   xmlns:svg="http://www.w3.org/2000/svg"
   xmlns="http://www.w3.org/2000/svg"
   xmlns:sodipodi="http://sodipodi.sourceforge.net/DTD/sodipodi-0.dtd"
   xmlns:inkscape="http://www.inkscape.org/namespaces/inkscape"
   enable-background="new 0 0 128 128"
   height="128"
   viewBox="0 0 128 128"
   width="128"
   version="1.1"
   id="svg32"
   sodipodi:docname="lc_masterpage.svg"
   inkscape:version="0.92.3 (2405546, 2018-03-11)"
   inkscape:export-filename="/home/rizmut/Documents/Rizmut/Github/libreoffice-style-karasa-jaga/build/images_karasa_jaga/cmd/lc_masterpage.png"
   inkscape:export-xdpi="16.5"
   inkscape:export-ydpi="16.5">
  <metadata
     id="metadata38">
    <rdf:RDF>
      <cc:Work
         rdf:about="">
        <dc:format>image/svg+xml</dc:format>
        <dc:type
           rdf:resource="http://purl.org/dc/dcmitype/StillImage" />
        <dc:title></dc:title>
      </cc:Work>
    </rdf:RDF>
  </metadata>
  <defs
     id="defs36" />
  <sodipodi:namedview
     pagecolor="#ffffff"
     bordercolor="#666666"
     borderopacity="1"
     objecttolerance="10"
     gridtolerance="10"
     guidetolerance="10"
     inkscape:pageopacity="0"
     inkscape:pageshadow="2"
     inkscape:window-width="1364"
     inkscape:window-height="718"
     id="namedview34"
     showgrid="true"
     inkscape:zoom="2.6074563"
     inkscape:cx="21.172922"
     inkscape:cy="50.35224"
     inkscape:window-x="0"
     inkscape:window-y="24"
     inkscape:window-maximized="1"
     inkscape:current-layer="svg32"
     showguides="false">
    <inkscape:grid
       type="xygrid"
       id="grid864"
       spacingx="5.8181"
       spacingy="5.8181"
       empspacing="1" />
  </sodipodi:namedview>
  <filter
     id="a">
    <feGaussianBlur
       stdDeviation="1.0394514"
       id="feGaussianBlur2" />
  </filter>
  <filter
     id="b">
    <feGaussianBlur
       stdDeviation=".50063244"
       id="feGaussianBlur5" />
  </filter>
  <g
     id="g876"
     transform="rotate(90,60.985413,66.795014)">
    <path
       id="path8"
       transform="matrix(0,1.0090419,-1.003276,0,127.07723,-1.871126)"
       d="m 23,9 0.04082,113.99347 85.46279,0.0763 c 0.375,-0.375 0.586,-0.884 0.586,-1.414 V 9 Z"
       inkscape:connector-curvature="0"
       style="opacity:0.30684904;filter:url(#a)" />
    <path
       id="path10"
       transform="matrix(0,1.0090419,-1.003276,0,127.07723,-1.871126)"
       d="m 23,9.9655172 0.04082,113.0279528 83.48071,0.0763 c 0.375,-0.375 0.59541,-0.88408 0.586,-1.414 V 9.9655372 H 23.000004 Z"
       inkscape:connector-curvature="0"
       style="opacity:0.30684904;filter:url(#a)"
       sodipodi:nodetypes="cccsccc" />
    <path
       id="path12"
       transform="matrix(0,1.0090419,-1.003276,0,127.07723,-1.871126)"
       d="m 23,8.9687825 0.04082,114.0246875 83.48071,0.0763 c 0.375,-0.375 0.586,-0.884 0.586,-1.414 V 8.9688025 H 23.000004 Z"
       inkscape:connector-curvature="0"
       style="opacity:0.55342503;filter:url(#a)"
       sodipodi:nodetypes="cccsccc" />
    <path
       id="path14"
       transform="matrix(0,1.0090419,-1.003276,0,127.07723,-1.871126)"
       d="M 24.919999,10.931136 V 120.86319 l 79.681531,-0.0578 c 0.375,-0.375 0.57632,-0.88409 0.586,-1.414 V 10.931166 H 24.919999 Z"
       inkscape:connector-curvature="0"
       style="opacity:0.89589;filter:url(#b)"
       sodipodi:nodetypes="cccsccc" />
    <path
       id="path16"
       d="M 116.11028,23.2742 H 5.8181 l -0.0325,80.42566 c 0.36325,0.36326 0.85631,0.56764 1.36971,0.56764 H 116.1103 V 23.2742 Z"
       inkscape:connector-curvature="0"
       style="fill:#80b3ff" />
    <g
       id="g30"
       style="fill:#eeeeee">
      <path
         id="path20"
         d="m 104.87576,28.946304 h 5.67844 v 69.743623 h -5.67844 z"
         inkscape:connector-curvature="0" />
      <path
         id="path22"
         d="m 11.646499,28.872728 h 5.8181 v 69.8172 h -5.8181 z"
         inkscape:connector-curvature="0" />
      <path
         id="path24"
         d="m 17.4646,92.871826 h 87.2715 v 5.8181 H 17.4646 Z"
         inkscape:connector-curvature="0" />
      <path
         id="path26"
         d="m 17.4646,28.872728 h 87.2715 v 5.8181 H 17.4646 Z"
         inkscape:connector-curvature="0" />
    </g>
  </g>
</svg>
