<svg height="128" viewBox="0 0 33.866666 33.866668" width="128" xmlns="http://www.w3.org/2000/svg" xmlns:xlink="http://www.w3.org/1999/xlink"><linearGradient id="a"><stop offset="0" stop-color="#06f"/><stop offset="1" stop-color="#80b3ff"/></linearGradient><linearGradient id="b" gradientUnits="userSpaceOnUse" x1="4.8909636" x2="4.8909636" xlink:href="#a" y1="289.019339" y2="280.556658"/><linearGradient id="c" gradientUnits="userSpaceOnUse" x1="6.74257172322" x2="6.74257172322" xlink:href="#a" y1="281.54529393406" y2="270.07014160935"/><linearGradient id="d" gradientUnits="userSpaceOnUse" x1="19.714031" x2="34.164478" xlink:href="#a" y1="29.08279" y2="-13.848693"/><g transform="translate(0 -263.13332)"><g font-family="Bitstream Vera Sans" font-size="19.985409" transform="translate(-9.634905 -1.964426)"><text stroke="url(#c)" stroke-linecap="round" stroke-linejoin="round" stroke-width="3.330902" transform="scale(1.0236447 .97690145)" x="2.548692" y="282.5004"><tspan style="font-weight:bold;font-size:9.911941;font-family:Liberation Sans;stroke-width:3.330902;stroke-linecap:round;stroke-linejoin:round;stroke:url(#c)" x="2.548692" y="282.5004">1</tspan></text><text fill="#bfd9ff" stroke-width="1.665451" x="2.802282" y="275.97507"><tspan fill="#bfd9ff" font-family="Liberation Sans" font-size="9.493093" font-weight="bold" stroke-width="1.665451" x="2.802282" y="275.97507">1</tspan></text></g><g font-family="Bitstream Vera Sans" font-size="15.140461" transform="matrix(1.32 0 0 1.32 -11.194737 -82.680043)"><text fill="none" stroke="url(#b)" stroke-linecap="round" stroke-linejoin="round" stroke-width="2.52341" transform="scale(1.0210954 .97934043)" x="3.260905" y="289.01932"><tspan style="font-weight:bold;font-size:7.380369;font-family:Liberation Sans;fill:none;stroke-width:2.52341;stroke-linecap:round;stroke-linejoin:round;stroke:url(#b)" x="3.260905" y="289.01932">2</tspan></text><text fill="#bfd9ff" stroke-width="1.261705" x="3.4144" y="283.04831"><tspan fill="#bfd9ff" font-family="Liberation Sans" font-size="7.227894" font-weight="bold" stroke-width="1.261705" x="3.4144" y="283.04831">2</tspan></text></g><g fill="#555"><path d="m12.323633 266.21255h18.498478v1.539354h-18.498478z"/><path d="m12.288969 270.83066h18.498478v1.539354h-18.498478z"/><path d="m12.288967 275.44879h13.880363v1.539354h-13.880363z"/><path d="m12.323629 283.14563h18.498478v1.539354h-18.498478z"/><path d="m12.288965 287.76373h18.498478v1.539354h-18.498478z"/><path d="m12.288965 292.38187h13.880363v1.539354h-13.880363z"/></g><path d="m17.455078-.00195313a5.8221583 5.8221583 0 0 0 -5.822266 5.82226563v5.8183595a5.8221583 5.8221583 0 0 0 5.816407 5.822266v11.626953a5.8221583 5.8221583 0 0 0 -5.816407 5.822265v5.81836a5.8221583 5.8221583 0 0 0 5.822266 5.822265h17.453125a5.8221583 5.8221583 0 0 0 5.822266-5.822265v-5.81836a5.8221583 5.8221583 0 0 0 -5.81836-5.822265v-11.626953a5.8221583 5.8221583 0 0 0 5.81836-5.822266v-5.8183595a5.8221583 5.8221583 0 0 0 -5.822266-5.82226563z" fill="url(#d)" transform="matrix(.26458333 0 0 .26458333 -.000928 266.21072)"/><path d="m4.618428 267.75185v1.53944h1.538924v6.15725h-1.538924v1.53944h4.6178058v-1.53944h-1.5394407v-6.15725h1.5394407v-1.53944z" fill="#bfd9ff"/><path d="m17.455078-.00195313a5.8221583 5.8221583 0 0 0 -5.822266 5.82226563v5.8183595a5.8221583 5.8221583 0 0 0 5.816407 5.822266v11.626953a5.8221583 5.8221583 0 0 0 -5.816407 5.822265v5.81836a5.8221583 5.8221583 0 0 0 5.822266 5.822265h17.453125a5.8221583 5.8221583 0 0 0 5.822266-5.822265v-5.81836a5.8221583 5.8221583 0 0 0 -5.81836-5.822265v-11.626953a5.8221583 5.8221583 0 0 0 5.81836-5.822266v-5.8183595a5.8221583 5.8221583 0 0 0 -5.822266-5.82226563z" fill="url(#d)" transform="matrix(.26458333 0 0 .26458333 1.539167 283.14615)"/><path d="m17.455078-.00195313a5.8221583 5.8221583 0 0 0 -5.822266 5.82226563v5.8183595a5.8221583 5.8221583 0 0 0 5.816407 5.822266v11.626953a5.8221583 5.8221583 0 0 0 -5.816407 5.822265v5.81836a5.8221583 5.8221583 0 0 0 5.822266 5.822265h17.453125a5.8221583 5.8221583 0 0 0 5.822266-5.822265v-5.81836a5.8221583 5.8221583 0 0 0 -5.81836-5.822265v-11.626953a5.8221583 5.8221583 0 0 0 5.81836-5.822266v-5.8183595a5.8221583 5.8221583 0 0 0 -5.822266-5.82226563z" fill="url(#d)" transform="matrix(.26458333 0 0 .26458333 -3.078813 283.146076)"/><path d="m17.455078 5.8203125v5.8183595h5.816406v23.271484h-5.816406v5.81836h17.453125v-5.81836h-5.818359v-23.271484h5.818359v-5.8183595z" fill="#bfd9ff" transform="matrix(.26458333 0 0 .26458333 -3.078813 283.146076)"/><path d="m6.1574892 284.68611v1.53944h1.538924v6.15725h-1.538924v1.53944h4.6178058v-1.53944h-1.5394407v-6.15725h1.5394407v-1.53944z" fill="#bfd9ff"/></g></svg>