<svg height="128" width="128" xmlns="http://www.w3.org/2000/svg" xmlns:xlink="http://www.w3.org/1999/xlink"><linearGradient id="a"><stop offset="0" stop-color="#c8c8c8"/><stop offset="1" stop-color="#e4e4e4"/></linearGradient><linearGradient id="b"><stop offset="0" stop-color="#fff"/><stop offset="1" stop-color="#fff" stop-opacity="0"/></linearGradient><linearGradient id="c"><stop offset="0"/><stop offset="1" stop-color="#7c7c7c"/></linearGradient><filter id="d"><feGaussianBlur stdDeviation="1.36"/></filter><filter id="e" height="1.05568" width="1.348" x="-.174" y="-.02784"><feGaussianBlur stdDeviation="1.16"/></filter><linearGradient id="f" gradientUnits="userSpaceOnUse" x1="70" x2="70" xlink:href="#c" y1="127" y2="32.952141"/><linearGradient id="g" gradientTransform="matrix(1.1428572 0 0 1 -7.142858 0)" gradientUnits="userSpaceOnUse" x1="64" x2="64" xlink:href="#a" y1="100" y2="28"/><radialGradient id="h" cx="64" cy="54.400002" gradientTransform="matrix(7.7142861 0 0 1.7500001 -427.71431 -43.200007)" gradientUnits="userSpaceOnUse" r="16" spreadMethod="reflect" xlink:href="#b"/><radialGradient id="i" cx="89.9238914" cy="-1.4142076" gradientUnits="userSpaceOnUse" r="113.8074624"><stop offset="0" stop-color="#fff"/><stop offset=".5" stop-color="#fff"/><stop offset="1" stop-opacity="0"/></radialGradient><mask id="j" maskUnits="userSpaceOnUse"><path d="m9.923884-81.414215h160v160h-160z" fill="url(#i)" opacity=".6" transform="matrix(.70710683 .70710673 -.70710673 .70710683 0 0)"/></mask><linearGradient id="k"><stop offset="0" stop-color="#765c44"/><stop offset="1" stop-color="#765c44" stop-opacity="0"/></linearGradient><linearGradient id="l" gradientUnits="userSpaceOnUse" x1="64" x2="64" xlink:href="#c" y1="83.729706" y2="-62.169582"/><linearGradient id="m" gradientUnits="userSpaceOnUse" x1="64" x2="64" xlink:href="#a" y1="24" y2="-52"/><radialGradient id="n" cx="66" cy="-10.851176" gradientTransform="matrix(23 -.000001 .00000061 14.035669 -1452 156.4281)" gradientUnits="userSpaceOnUse" r="2" spreadMethod="reflect" xlink:href="#b"/><clipPath id="o"><rect height="114.75842" rx="4.333439" ry="4.144913" transform="matrix(-.70710684 -.70710672 -.70710672 .70710684 0 0)" width="114.75842" x="-151.58522" y="-57.163326"/></clipPath><radialGradient id="p" cx="84.903702" cy="-130.14005" gradientTransform="matrix(.04899496 -.04899496 .04899496 .04899496 27.763383 298.48358)" gradientUnits="userSpaceOnUse" r="57.039597" xlink:href="#q"/><linearGradient id="q"><stop offset="0" stop-color="#3a0b02"/><stop offset="1" stop-color="#a21d07" stop-opacity=".382353"/></linearGradient><radialGradient id="r" cx="2.720703" cy="-66.273438" gradientTransform="matrix(.04899496 -.04899496 .04899496 .04899496 27.763383 298.48358)" gradientUnits="userSpaceOnUse" r="57.039597" xlink:href="#q"/><radialGradient id="s" cx="51.991096" cy="-78.028419" gradientTransform="matrix(.04899496 -.04899496 .04899496 .04899496 27.763383 298.48358)" gradientUnits="userSpaceOnUse" r="57.039597" xlink:href="#q"/><linearGradient id="t" gradientTransform="scale(1.0975951 .9110828)" gradientUnits="userSpaceOnUse" x1="26.091133" x2="31.500689" xlink:href="#k" y1="14.856744" y2="14.856744"/><filter id="u" height="1.277481" width="1.279832" x="-.139916" y="-.138741"><feGaussianBlur stdDeviation=".28784801"/></filter><linearGradient id="v" gradientUnits="userSpaceOnUse" x1="304.88663" x2="345.62039" xlink:href="#k" y1="385.86127" y2="384.62384"/><linearGradient id="w" gradientUnits="userSpaceOnUse" spreadMethod="reflect" x1="88.60625" x2="91.575107" y1="13.510336" y2="13.510336"><stop offset="0" stop-color="#ff8787"/><stop offset="1" stop-color="#ff8787" stop-opacity="0"/></linearGradient><linearGradient id="x" gradientUnits="userSpaceOnUse" spreadMethod="reflect" x1="31.60625" x2="34.575107" y1="13.510336" y2="13.510336"><stop offset="0" stop-color="#fff"/><stop offset="1" stop-color="#790000" stop-opacity="0"/></linearGradient><radialGradient id="y" cx="50.424522" cy="-81.945961" gradientTransform="matrix(.04899496 -.04899496 .04899496 .04899496 27.763382 298.48358)" gradientUnits="userSpaceOnUse" r="50.15279"><stop offset="0" stop-color="#db3424"/><stop offset="1" stop-color="#b32016"/></radialGradient><linearGradient id="z" gradientTransform="matrix(.04899496 -.04899496 .04899496 .04899496 27.763383 298.48358)" gradientUnits="userSpaceOnUse" x1="50.06789" x2="59.441998" y1="-154.40843" y2="-71.617722"><stop offset="0" stop-color="#fff"/><stop offset="1" stop-color="#fcf3f3" stop-opacity="0"/></linearGradient><g clip-path="url(#o)" mask="url(#j)" transform="matrix(-.78869759 -.78869745 -.78869745 .78869759 169.07612 63.759209)"><rect height="84" rx="18.257076" style="opacity:.85;fill:none;stroke-width:18.297783;stroke-linecap:round;stroke-linejoin:round;stroke:url(#f);filter:url(#d)" transform="matrix(1.1428572 0 0 1 -7.14286 0)" width="28" x="50" y="22"/><rect fill="none" height="84" rx="20.865231" stroke="url(#g)" stroke-linecap="round" stroke-linejoin="round" stroke-width="7.824461" width="32" x="50.000004" y="22"/><rect fill="none" height="84" rx="20.865231" stroke="url(#h)" stroke-linecap="round" stroke-linejoin="round" stroke-width="7.824461" width="32" x="50.000004" y="22"/><g id="A" transform="translate(0 4)"><rect height="94.031357" rx="1.510971" ry="2.608154" style="opacity:.6;fill:none;stroke-width:18.257076;stroke-linecap:round;stroke-linejoin:round;stroke:url(#l);filter:url(#e)" width="3.836991" x="64" y="-56"/><rect fill="url(#m)" height="90.650108" rx="2.576326" ry="2.608154" width="8.563862" x="62.104618" y="-55.70195"/><rect fill="url(#n)" height="89.99807" rx="2.608154" width="8.237843" x="62.430637" y="-55.049911"/></g><use height="128" transform="translate(0 144)" width="128" xlink:href="#A"/></g><g transform="matrix(4.4620351 4.4620351 -4.4620351 4.4620351 1281.9028 -1316.4611)"><path d="m24.529657 285.13245c-.26354-.00001-.477184.21364-.477176.47718v4.22195h-4.222095c-.263541 0-.477184.21364-.477177.47718l.000001 1.68933c-.000008.26354.213636.47719.477176.47718h4.222095v4.22196c-.000008.26354.213636.47718.477176.47717h1.689334c.263541.00001.477184-.21363.477176-.47717v-4.22196h4.22196c.26354.00001.477184-.21364.477176-.47718v-1.68933c.000008-.26354-.213636-.47718-.477176-.47718h-4.22196v-4.22195c.000008-.26354-.213636-.47719-.477177-.47718z" fill="url(#p)"/><path d="m24.529657 285.13245c-.26354-.00001-.477184.21364-.477176.47718v4.22195h-4.222095c-.263541 0-.477184.21364-.477177.47718l.000001 1.68933c-.000008.26354.213636.47719.477176.47718h4.222095v4.22196c-.000008.26354.213636.47718.477176.47717h1.689334c.263541.00001.477184-.21363.477176-.47717v-4.22196h4.22196c.26354.00001.477184-.21364.477176-.47718v-1.68933c.000008-.26354-.213636-.47718-.477176-.47718h-4.22196v-4.22195c.000008-.26354-.213636-.47719-.477177-.47718z" fill="url(#r)"/><path d="m24.529657 285.13245c-.26354-.00001-.477184.21364-.477176.47718v4.22195h-4.222095c-.263541 0-.477184.21364-.477177.47718l.000001 1.68933c-.000008.26354.213636.47719.477176.47718h4.222095v4.22196c-.000008.26354.213636.47718.477176.47717h1.689334c.263541.00001.477184-.21363.477176-.47717v-4.22196h4.22196c.26354.00001.477184-.21364.477176-.47718v-1.68933c.000008-.26354-.213636-.47718-.477176-.47718h-4.22196v-4.22195c.000008-.26354-.213636-.47719-.477177-.47718z" fill="url(#s)"/><path d="m24.529657 285.13245c-.26354-.00001-.477184.21364-.477176.47718v4.22195h-4.222095c-.263541 0-.477184.21364-.477177.47718l.000001 1.68933c-.000008.26354.213636.47719.477176.47718h4.222095v4.22196c-.000008.26354.213636.47718.477176.47717h1.689334c.263541.00001.477184-.21363.477176-.47717v-4.22196h4.22196c.26354.00001.477184-.21364.477176-.47718v-1.68933c.000008-.26354-.213636-.47718-.477176-.47718h-4.22196v-4.22195c.000008-.26354-.213636-.47719-.477177-.47718z" fill="#56331f" fill-opacity=".905882"/><g fill-rule="evenodd"><path d="m31.7 16 2.875-3.375c-1.051205-1.695758-3.935136-2.288018-5.9375-.3125l2.8125 3.375z" fill="url(#t)" filter="url(#u)" opacity=".498127" transform="matrix(.10334550056 .10334550056 .10433788775 -.10433788775 19.83881399383 294.77188758131)"/><path d="m31.7 16 2.875-3.375c-1.051205-1.695758-3.935136-2.288018-5.9375-.3125l2.8125 3.375z" fill="url(#t)" filter="url(#u)" opacity=".790262" transform="matrix(-.10304201086 .10304201086 -.10206195015 -.10206195015 35.51902798643 290.10274702489)"/><path d="m31.7 16 2.875-3.375c-1.051205-1.695758-3.935136-2.288018-5.9375-.3125l2.8125 3.375z" fill="url(#v)" filter="url(#u)" opacity=".498127" transform="matrix(.09358445236 .09358445236 -.09448310814 .09448310814 29.19785816765 286.02786786491)"/><path d="m88.7 16 2.875-3.375c-1.051205-1.695758-3.935136-2.288018-5.9375-.3125l2.8125 3.375z" fill="url(#w)" filter="url(#u)" opacity=".790262" transform="matrix(-.09448310814 .09448310814 -.09358445236 -.09358445236 35.85402148491 289.60759368369)"/><path d="m31.7 16 2.875-3.375c-1.051205-1.695758-3.935136-2.288018-5.9375-.3125l2.8125 3.375z" fill="url(#x)" filter="url(#u)" opacity=".790262" transform="matrix(-.08592420543 .08592420543 .08510695611 .08510695611 26.05379987113 281.71607465181)"/><path d="m88.7 16 2.875-3.375c-1.051205-1.695758-3.935136-2.288018-5.9375-.3125l2.8125 3.375z" fill="url(#w)" filter="url(#u)" opacity=".790262" transform="matrix(-.08821460024 .08821460024 .08737556707 .08737556707 26.43193340575 281.29508109577)"/></g><path d="m24.529657 285.60963v4.69913h-4.699271v1.68933h4.699271v4.69914h1.689334v-4.69914h4.699136v-1.68933h-4.699136l-.000001-4.69913z" fill="url(#y)"/><path d="m19.8304 290.30869-.000001 1.68937h4.699316l-.000069 4.69922h1.68937v-4.69912h4.699124v-1.68937h-4.699124l-.000001-4.69912h-1.689368v4.69912zm.12.12 4.57922.0001c.06628.00001.120006-.0537.119999-.12v-4.57912h1.44937v4.57912c-.000006.0663.05372.12001.12.12h4.579124v1.44937h-4.579124c-.06628-.00001-.120006.0537-.12.12v4.57912h-1.44937l.000069-4.57921c.000006-.0663-.05372-.12001-.12-.12h-4.579315z" fill="#f4caca" fill-opacity=".779412"/><path d="m19.8304 290.30869-.000001 1.68937h4.699316v.96754c.63875-.89522 1.64386-2.06887 1.87767-2.65634l-.188396-.00047-.000001-4.69912h-1.689368v4.69912z" fill="url(#z)" fill-rule="evenodd"/></g></svg>