<?xml version="1.0" encoding="UTF-8" standalone="no"?>
<!-- Created with Inkscape (http://www.inkscape.org/) -->

<svg
   xmlns:dc="http://purl.org/dc/elements/1.1/"
   xmlns:cc="http://creativecommons.org/ns#"
   xmlns:rdf="http://www.w3.org/1999/02/22-rdf-syntax-ns#"
   xmlns:svg="http://www.w3.org/2000/svg"
   xmlns="http://www.w3.org/2000/svg"
   xmlns:xlink="http://www.w3.org/1999/xlink"
   xmlns:sodipodi="http://sodipodi.sourceforge.net/DTD/sodipodi-0.dtd"
   xmlns:inkscape="http://www.inkscape.org/namespaces/inkscape"
   width="128"
   height="128"
   viewBox="0 0 33.866666 33.866668"
   version="1.1"
   id="svg3248"
   inkscape:version="0.92.3 (unknown)"
   sodipodi:docname="lc_subscript.svg"
   inkscape:export-filename="/home/rizmut/Dokumen/Rizmut/Github/libreoffice-style-karasa-jaga/build/images_karasa_jaga/cmd/lc_subscript.png"
   inkscape:export-xdpi="16.500002"
   inkscape:export-ydpi="16.500002">
  <defs
     id="defs3242">
    <linearGradient
       inkscape:collect="always"
       id="linearGradient3897">
      <stop
         style="stop-color:#313131;stop-opacity:1;"
         offset="0"
         id="stop3893" />
      <stop
         style="stop-color:#5d5d5d;stop-opacity:1"
         offset="1"
         id="stop3895" />
    </linearGradient>
    <linearGradient
       inkscape:collect="always"
       xlink:href="#linearGradient3897"
       id="linearGradient3736"
       x1="17.259766"
       y1="63.128906"
       x2="80.542969"
       y2="63.128906"
       gradientUnits="userSpaceOnUse" />
    <linearGradient
       inkscape:collect="always"
       xlink:href="#linearGradient3897"
       id="linearGradient3753"
       x1="91.609375"
       y1="19.177734"
       x2="122.90039"
       y2="19.177734"
       gradientUnits="userSpaceOnUse" />
  </defs>
  <sodipodi:namedview
     id="base"
     pagecolor="#ffffff"
     bordercolor="#666666"
     borderopacity="1.0"
     inkscape:pageopacity="0.0"
     inkscape:pageshadow="2"
     inkscape:zoom="3.959798"
     inkscape:cx="90.042325"
     inkscape:cy="35.891356"
     inkscape:document-units="mm"
     inkscape:current-layer="layer1"
     showgrid="true"
     units="px"
     inkscape:window-width="1366"
     inkscape:window-height="706"
     inkscape:window-x="0"
     inkscape:window-y="0"
     inkscape:window-maximized="1"
     inkscape:snap-global="false"
     inkscape:snap-page="true">
    <inkscape:grid
       type="xygrid"
       id="grid3713"
       spacingx="1.5393723"
       spacingy="1.5393723"
       empspacing="2" />
  </sodipodi:namedview>
  <metadata
     id="metadata3245">
    <rdf:RDF>
      <cc:Work
         rdf:about="">
        <dc:format>image/svg+xml</dc:format>
        <dc:type
           rdf:resource="http://purl.org/dc/dcmitype/StillImage" />
        <dc:title />
      </cc:Work>
    </rdf:RDF>
  </metadata>
  <g
     inkscape:label="Layer 1"
     inkscape:groupmode="layer"
     id="layer1"
     transform="translate(0,-263.13332)">
    <rect
       style="opacity:0.85;fill:#ffffff;fill-opacity:0;stroke:none;stroke-width:1.58749998;stroke-linecap:square;stroke-linejoin:round;stroke-miterlimit:4;stroke-dasharray:none;stroke-dashoffset:0;stroke-opacity:1"
       id="rect3765"
       width="33.866188"
       height="33.866188"
       x="0"
       y="-296.99997"
       transform="scale(1,-1)" />
    <g
       id="g3763"
       transform="matrix(0.97678952,0,0,0.93448931,0.06534899,11.662842)">
      <text
         id="text3806"
         y="295.44897"
         x="2.3759902"
         style="font-style:normal;font-variant:normal;font-weight:bold;font-stretch:normal;font-size:49.31366348px;line-height:1.25;font-family:FreeSerif;-inkscape-font-specification:'FreeSerif, Bold';font-variant-ligatures:normal;font-variant-caps:normal;font-variant-numeric:normal;font-feature-settings:normal;text-align:start;letter-spacing:0px;word-spacing:0px;writing-mode:lr-tb;text-anchor:start;fill:#000000;fill-opacity:1;stroke:none;stroke-width:1.2328999"
         xml:space="preserve"><tspan
           style="font-style:normal;font-variant:normal;font-weight:normal;font-stretch:normal;font-size:43.95052719px;font-family:FreeSans;-inkscape-font-specification:FreeSans;font-variant-ligatures:normal;font-variant-caps:normal;font-variant-numeric:normal;font-feature-settings:normal;text-align:start;writing-mode:lr-tb;text-anchor:start;stroke-width:1.2328999"
           y="295.44897"
           x="2.3759902"
           id="tspan3804"
           sodipodi:role="line">x</tspan></text>
      <path
         id="path3721"
         transform="matrix(0.26458333,0,0,0.26458333,0,263.13332)"
         d="M 17.259766,37.712891 43.539062,76.3125 a 2.6187022,2.6187022 0 0 1 -0.0078,2.966797 l -5.519531,7.966797 a 58.180999,43.635807 0 0 0 7.662109,1.044922 l 0.654297,-0.988282 a 2.6187022,2.6187022 0 0 1 4.378906,0.01563 l 0.791016,1.214844 a 58.180999,43.635807 0 0 0 0.320312,0.01172 58.180999,43.635807 0 0 0 8.636719,-0.519531 L 54.146484,78.578125 A 2.6187022,2.6187022 0 0 1 54.175781,75.625 L 80.542969,37.712891 H 71.345703 L 51.201172,68.103516 a 2.6187022,2.6187022 0 0 1 -4.371094,0 L 26.677734,37.712891 Z"
         style="opacity:0.85;fill:url(#linearGradient3736);fill-opacity:1;stroke:none;stroke-width:6;stroke-linecap:square;stroke-linejoin:round;stroke-miterlimit:4;stroke-dasharray:none;stroke-dashoffset:0;stroke-opacity:1"
         inkscape:connector-curvature="0" />
    </g>
    <g
       id="g3758"
       transform="matrix(0.8315976,0,0,0.8315976,3.1887006,62.355409)">
      <text
         id="text835"
         y="278.65265"
         x="22.516861"
         style="font-style:normal;font-weight:normal;font-size:21.07210732px;line-height:125%;font-family:sans-serif;letter-spacing:0px;word-spacing:0px;fill:#000000;fill-opacity:1;stroke:none;stroke-width:0.52680272px;stroke-linecap:butt;stroke-linejoin:miter;stroke-opacity:1"
         xml:space="preserve"><tspan
           style="font-style:normal;font-variant:normal;font-weight:600;font-stretch:normal;font-family:FreeSans;-inkscape-font-specification:'FreeSans Semi-Bold';stroke-width:0.52680272px"
           y="278.65265"
           x="22.516861"
           id="tspan833"
           sodipodi:role="line">2</tspan></text>
      <path
         id="path3738"
         transform="matrix(0.26458333,0,0,0.26458333,0,263.13332)"
         d="m 106.76367,4.2128906 c -5.22476,0 -8.770875,1.3925784 -11.396482,4.0605469 -2.331141,2.3693485 -3.534129,5.7686115 -3.757813,10.3710935 h 4.310547 c 0.193965,-3.017121 0.883276,-5.786885 2.576172,-7.935547 a 3.221166,3.221166 0 0 1 0.03711,-0.04492 c 2.028876,-2.4797475 5.188166,-3.8085932 8.474606,-3.8085932 3.18414,0 6.24363,1.2346811 8.23828,3.5878902 2.03418,2.29183 2.9375,5.37713 2.9375,8.710938 0,3.713688 -1.06597,7.170866 -3.24804,9.898437 a 3.221166,3.221166 0 0 1 -0.0293,0.0293 c -1.23084,1.500087 -3.07534,3.156488 -5.49023,5.060547 a 49.453849,20.36335 0 0 0 4.86718,-0.683594 c 0.86956,-0.660592 1.73377,-1.330854 2.58594,-2.029296 0.001,-0.0012 -0.001,-0.0066 0,-0.0078 1.73824,-1.471824 3.16996,-3.267882 4.32031,-5.476563 a 3.221166,3.221166 0 0 1 0.0215,-0.04492 c 1.11764,-2.063358 1.68945,-4.333265 1.68945,-6.990235 0,-4.781027 -1.38141,-8.069297 -4.22266,-10.6953122 a 3.221166,3.221166 0 0 1 -0.0215,-0.015625 C 115.879,5.5928943 112.12591,4.2128906 106.76367,4.2128906 Z"
         style="opacity:0.85;fill:url(#linearGradient3753);fill-opacity:1;stroke:none;stroke-width:6;stroke-linecap:square;stroke-linejoin:round;stroke-miterlimit:4;stroke-dasharray:none;stroke-dashoffset:0;stroke-opacity:1"
         inkscape:connector-curvature="0" />
    </g>
  </g>
</svg>
