<?xml version="1.0" encoding="UTF-8" standalone="no"?>
<svg
   xmlns:dc="http://purl.org/dc/elements/1.1/"
   xmlns:cc="http://creativecommons.org/ns#"
   xmlns:rdf="http://www.w3.org/1999/02/22-rdf-syntax-ns#"
   xmlns:svg="http://www.w3.org/2000/svg"
   xmlns="http://www.w3.org/2000/svg"
   xmlns:xlink="http://www.w3.org/1999/xlink"
   xmlns:sodipodi="http://sodipodi.sourceforge.net/DTD/sodipodi-0.dtd"
   xmlns:inkscape="http://www.inkscape.org/namespaces/inkscape"
   height="128"
   viewBox="0 0 128 128"
   width="128"
   version="1.1"
   id="svg31"
   sodipodi:docname="lc_symbolshapes.lightning.svg"
   inkscape:version="0.92.3 (unknown)"
   inkscape:export-filename="/home/rizmut/Dokumen/Rizmut/Github/libreoffice-style-karasa-jaga/build/images_karasa_jaga/cmd/lc_symbolshapes.lightning.png"
   inkscape:export-xdpi="16.5"
   inkscape:export-ydpi="16.5">
  <metadata
     id="metadata37">
    <rdf:RDF>
      <cc:Work
         rdf:about="">
        <dc:format>image/svg+xml</dc:format>
        <dc:type
           rdf:resource="http://purl.org/dc/dcmitype/StillImage" />
        <dc:title></dc:title>
      </cc:Work>
    </rdf:RDF>
  </metadata>
  <defs
     id="defs35">
    <linearGradient
       id="linearGradient3369">
      <stop
         id="stop3372"
         offset="0"
         style="stop-color:#ffffff;stop-opacity:1;" />
      <stop
         style="stop-color:#ffffff;stop-opacity:1;"
         offset="0.46428573"
         id="stop3374" />
      <stop
         style="stop-color:#f1f1f1;stop-opacity:1;"
         offset="0.78125"
         id="stop3376" />
      <stop
         id="stop3378"
         offset="0.90625"
         style="stop-color:#eaeaea;stop-opacity:1;" />
      <stop
         id="stop3384"
         offset="1"
         style="stop-color:#dfdfdf;stop-opacity:1;" />
    </linearGradient>
    <linearGradient
       id="linearGradient7422">
      <stop
         style="stop-color:#7c9fcf;stop-opacity:1"
         offset="0"
         id="stop7424" />
      <stop
         id="stop5348"
         offset="0.5"
         style="stop-color:#7c9ece;stop-opacity:1" />
      <stop
         id="stop7426"
         offset="1"
         style="stop-color:#7b9dcf;stop-opacity:1" />
    </linearGradient>
    <linearGradient
       inkscape:collect="always"
       xlink:href="#linearGradient3369"
       id="linearGradient1107"
       x1="63.9991"
       y1="128"
       x2="63.9991"
       y2="0.0018"
       gradientUnits="userSpaceOnUse" />
    <linearGradient
       inkscape:collect="always"
       xlink:href="#linearGradient7422"
       id="linearGradient1115"
       x1="17.492134"
       y1="64.997414"
       x2="116.32267"
       y2="64.997414"
       gradientUnits="userSpaceOnUse" />
  </defs>
  <sodipodi:namedview
     pagecolor="#ffffff"
     bordercolor="#666666"
     borderopacity="1"
     objecttolerance="10"
     gridtolerance="10"
     guidetolerance="10"
     inkscape:pageopacity="0"
     inkscape:pageshadow="2"
     inkscape:window-width="1366"
     inkscape:window-height="706"
     id="namedview33"
     showgrid="true"
     inkscape:zoom="1.4142136"
     inkscape:cx="244.55492"
     inkscape:cy="33.390759"
     inkscape:window-x="-1"
     inkscape:window-y="-1"
     inkscape:window-maximized="0"
     inkscape:current-layer="svg31"
     inkscape:snap-global="true">
    <inkscape:grid
       type="xygrid"
       id="grid844"
       spacingx="5.8181"
       spacingy="5.8181"
       empspacing="1" />
  </sodipodi:namedview>
  <linearGradient
     id="a">
    <stop
       offset="0"
       stop-color="#f9f9fa"
       id="stop2" />
    <stop
       offset="1"
       stop-color="#f9f9fa"
       stop-opacity="0"
       id="stop4" />
  </linearGradient>
  <linearGradient
     id="b"
     gradientUnits="userSpaceOnUse"
     x1="42.276669"
     x2="-13.469376"
     xlink:href="#a"
     y1="50.867565"
     y2="104.97279" />
  <linearGradient
     id="c"
     gradientUnits="userSpaceOnUse"
     x1="-1.817377"
     x2="2.172436"
     xlink:href="#a"
     y1="55.003803"
     y2="116.784" />
  <g
     id="g1138">
    <path
       d="m 58.181641,5.8554688 a 5.7830122,5.7830122 0 0 0 -4.625,2.3144531 L 18.646484,54.714844 a 5.7830122,5.7830122 0 0 0 5.263672,9.214844 L 61.705078,59.730469 40.623047,84.328125 c -1.491664,-1.660733 -1.918549,-2.1424 -3.769531,-4.193359 -2.008297,-2.22527 -3.976953,-4.397626 -5.388672,-5.935547 -0.70586,-0.768961 -1.259829,-1.365973 -1.671875,-1.794922 -0.206024,-0.214475 -0.16906,-0.232167 -0.767578,-0.740235 -0.14963,-0.127016 -0.02071,-0.240068 -1.306641,-0.845703 -0.321483,-0.151408 -1.723646,-0.503781 -1.724609,-0.503906 -9.64e-4,-1.25e-4 -4.751492,1.56401 -4.751953,1.564453 -4.62e-4,4.44e-4 -1.771529,4.424765 -1.771485,4.425782 4.5e-5,0.001 0.205741,1.334409 0.316406,1.652343 0.0688,0.197645 0.04911,0.07106 0.103516,0.208985 0.01173,0.01414 0.02824,-0.0072 0.03125,0.0059 0.0025,0.01068 0.0126,0.07004 0.01563,0.08398 0.190372,0.450864 0.332896,0.73838 0.40625,0.8125 -0.148502,-0.228602 -0.319782,-0.476605 -0.367188,-0.585937 0.03849,0.196151 0.07759,0.377764 0.134766,0.748047 0.16178,1.04779 0.358014,2.633053 0.558594,4.507812 0.40116,3.749518 0.833071,8.695699 1.226562,13.59375 0.786982,9.796099 1.423828,19.412109 1.423828,19.412109 a 5.7830122,5.7830122 0 0 0 5.414063,5.39063 c 0,0 10.809669,0.66522 21.431641,1.22851 5.310985,0.28165 10.56951,0.53728 14.458984,0.67383 1.944737,0.0683 3.524662,0.10805 4.71875,0.10156 0.597044,-0.003 1.016693,0.002 1.732422,-0.0781 0.357864,-0.0402 0.383218,0.38266 2.402344,-0.74805 0.504781,-0.28268 1.279266,-0.71315 2.068359,-1.95117 0.789093,-1.23802 1.10816,-3.57578 0.570313,-5.07617 -1.075696,-3.00079 -2.377175,-2.99328 -2.902344,-3.25586 1.088916,0.54445 0.175567,0.0849 -0.402344,-0.35352 -0.577911,-0.43842 -1.387471,-1.07441 -2.322266,-1.82226 -1.86959,-1.49571 -4.253016,-3.4481 -6.58789,-5.37696 -2.23833,-1.8491 -2.706848,-2.2523 -4.384766,-3.65429 L 114.69922,44.748047 A 5.7830122,5.7830122 0 0 0 109.9043,34.982422 L 73.923828,38.980469 97.177734,15.726562 a 5.7830122,5.7830122 0 0 0 -4.08789,-9.8710932 z"
       id="path1097"
       style="fill:url(#linearGradient1115);fill-opacity:1.0;fill-rule:evenodd;stroke:none;stroke-width:4;stroke-linecap:butt;stroke-linejoin:miter;stroke-miterlimit:4;stroke-dasharray:none;stroke-opacity:0.72941176"
       inkscape:original="M 58.181641 11.638672 L 23.271484 58.183594 L 75.634766 52.365234 L 40.726562 93.091797 C 40.726562 93.091797 24.087724 74.517357 25.3125 76.150391 C 26.537275 77.783425 29.089844 116.36328 29.089844 116.36328 C 29.089844 116.36328 72.26194 119.01769 70.628906 118.20117 C 68.995872 117.38466 51.033203 102.2793 51.033203 102.2793 L 110.54297 40.728516 L 58.181641 46.546875 L 93.089844 11.638672 L 58.181641 11.638672 z "
       inkscape:radius="5.782434"
       sodipodi:type="inkscape:offset" />
    <path
       sodipodi:nodetypes="ccccsccccccc"
       inkscape:connector-curvature="0"
       id="path2067"
       d="M 58.181,11.638 23.2724,58.1828 75.6353,52.3647 40.7267,93.0914 c 0,0 -16.639452,-18.573259 -15.414676,-16.940225 1.224775,1.633034 3.778476,40.212625 3.778476,40.212625 0,0 43.171246,2.65451 41.538212,1.83799 -1.633034,-0.81651 -19.596406,-15.92207 -19.596406,-15.92207 L 110.5439,40.7285 58.181,46.5466 93.0896,11.638 Z"
       style="fill:url(#linearGradient1107);fill-opacity:1;fill-rule:evenodd;stroke:none;stroke-width:4;stroke-linecap:butt;stroke-linejoin:miter;stroke-miterlimit:4;stroke-dasharray:none;stroke-opacity:0.72941176" />
  </g>
</svg>
