<svg height="128" width="128" xmlns="http://www.w3.org/2000/svg" xmlns:xlink="http://www.w3.org/1999/xlink"><linearGradient id="a" gradientUnits="userSpaceOnUse" x1="114.43812965822" x2="11.63620072566" xlink:href="#b" y1="18.74790716063" y2="17.45611950568"/><linearGradient id="b"><stop offset="0" stop-color="#0968ef"/><stop offset="1" stop-color="#aecffc"/></linearGradient><linearGradient id="c" gradientUnits="userSpaceOnUse" x1="114.43812965822" x2="60.61558407094" xlink:href="#b" y1="47.83838716063" y2="47.83838716063"/><linearGradient id="d" gradientUnits="userSpaceOnUse" x1="114.43812965822" x2="-29.09049978732" xlink:href="#b" y1="76.92888716063" y2="75.64638035447"/><linearGradient id="e" gradientUnits="userSpaceOnUse" x1="114.43812965822" x2="-34.90859913218" xlink:href="#b" y1="106.01968716063" y2="104.73718035447"/><g fill-rule="evenodd" transform="matrix(0 1 1 0 -.0018 .0018)"><path d="m119.42255 20.36051-17.48217-14.56847-2.89536 2.89538 5.68078 8.7594h-29.0905v5.82738h29.0905l-5.68078 8.61282 2.89536 3.04197 17.48217-14.56847z" fill="url(#a)"/><path d="m119.42255 49.45099-17.48217-14.56847-2.89536 2.89538 5.68078 8.7594-29.0905.0093v5.82738l29.0905-.0093-5.68078 8.61282 2.89536 3.04197 17.48217-14.56847z" fill="url(#c)"/><path d="m119.42255 78.54149-17.48217-14.56847-2.89536 2.89538 5.68078 8.7594-93.0896.00002v5.82738l93.0896-.00002-5.68078 8.61282 2.89536 3.04197 17.48217-14.56847z" fill="url(#d)"/><path d="m119.42255 107.63229-17.48217-14.56847-2.89536 2.89538 5.68078 8.7594-93.0896-.00028v5.82738l93.0896.00028-5.68078 8.61282 2.89536 3.04197 17.48217-14.56847z" fill="url(#e)"/></g><text font-family="sans-serif" font-size="75.120399" letter-spacing="0" stroke-width="1.87801" word-spacing="0" x="8.746968" y="66.080353"><tspan font-family="FreeSans" stroke-width="1.87801" x="8.746968" y="66.080353">A</tspan></text></svg>