<?xml version="1.0" encoding="UTF-8" standalone="no"?>
<svg
   xmlns:dc="http://purl.org/dc/elements/1.1/"
   xmlns:cc="http://creativecommons.org/ns#"
   xmlns:rdf="http://www.w3.org/1999/02/22-rdf-syntax-ns#"
   xmlns:svg="http://www.w3.org/2000/svg"
   xmlns="http://www.w3.org/2000/svg"
   xmlns:xlink="http://www.w3.org/1999/xlink"
   xmlns:sodipodi="http://sodipodi.sourceforge.net/DTD/sodipodi-0.dtd"
   xmlns:inkscape="http://www.inkscape.org/namespaces/inkscape"
   height="128"
   viewBox="0 0 128 128"
   width="128"
   version="1.1"
   id="svg32"
   sodipodi:docname="lc_toolsmacroedit.svg"
   inkscape:version="0.92.3 (unknown)"
   inkscape:export-filename="/home/rizmut/Dokumen/Rizmut/Github/libreoffice-style-karasa-jaga/build/images_karasa_jaga/cmd/lc_toolsmacroedit.png"
   inkscape:export-xdpi="16.5"
   inkscape:export-ydpi="16.5">
  <metadata
     id="metadata38">
    <rdf:RDF>
      <cc:Work
         rdf:about="">
        <dc:format>image/svg+xml</dc:format>
        <dc:type
           rdf:resource="http://purl.org/dc/dcmitype/StillImage" />
        <dc:title></dc:title>
      </cc:Work>
    </rdf:RDF>
  </metadata>
  <defs
     id="defs36">
    <linearGradient
       id="linearGradient3292">
      <stop
         id="stop3294"
         offset="0"
         style="stop-color:#3f3f3f;stop-opacity:1" />
      <stop
         style="stop-color:#bbbbbb;stop-opacity:1"
         offset="0.5"
         id="stop3304" />
      <stop
         id="stop3296"
         offset="1"
         style="stop-color:#919191;stop-opacity:1" />
    </linearGradient>
    <clipPath
       id="clipPath5073"
       clipPathUnits="userSpaceOnUse">
      <path
         inkscape:connector-curvature="0"
         sodipodi:nodetypes="csccccccccccccccccccccccccccc"
         style="opacity:0.43122678;fill:url(#radialGradient5077);fill-opacity:1;stroke:none;stroke-width:3;stroke-linecap:round;stroke-linejoin:round;stroke-miterlimit:4;stroke-dasharray:none;stroke-dashoffset:1.08780003;stroke-opacity:1"
         mask="none"
         clip-path="none"
         d="m 76.90625,-70.062499 c -2.912256,3.972096 -7.607051,6.5625 -12.90625,6.5625 -4.895788,0 -9.283068,-2.188651 -12.21875,-5.65625 -23.139626,-4.28557 -26.617645,14.039708 -31.5,30.75 0.408832,0.434 0.807117,0.86458 1.28125,1.34375 2.32718,2.30274 3.94598,3.67766 6.5625,5.65625 0.78852,0.57188 1.78325,0.6855 2.46875,0 l 7.09375,-6.25 c 0.76064,-0.63163 1.70649,-0.62292 2.375,-0.25 l 0.09375,-0.09375 c 3.52766,2.01717 7.328189,3.60952 11.34375,4.6875 v 0.15625 c 0.736402,0.20901 1.440029,0.85927 1.53125,1.84375 l 0.59375,9.4375 c 10e-7,0.96944 0.78805,1.59681 1.75,1.75 3.249233,0.45108 5.351147,0.60772 8.625,0.625 3.273854,-0.01728 5.375768,-0.17392 8.625,-0.625 0.961947,-0.15319 1.75,-0.78056 1.75,-1.75 l 0.59375,-9.4375 c 0.09122,-0.98448 0.794849,-1.63474 1.53125,-1.84375 v -0.15625 c 4.015558,-1.07798 7.816095,-2.67033 11.34375,-4.6875 l 0.09375,0.09375 c 0.668508,-0.37292 1.614362,-0.38163 2.375,0.25 l 7.09375,6.25 c 0.685504,0.68551 1.680237,0.57189 2.46875,0 2.61651,-1.97859 4.23531,-3.35351 6.5625,-5.65625 0.48542,-0.49057 0.8952,-0.93141 1.3125,-1.375 3.92353,-7.086674 -25.609227,-43.434539 -30.84375,-31.625 z"
         id="path5075" />
    </clipPath>
    <linearGradient
       id="linearGradient4893">
      <stop
         id="stop4895"
         offset="0"
         style="stop-color:#000000;stop-opacity:0;" />
      <stop
         style="stop-color:#000000;stop-opacity:0;"
         offset="0.61052197"
         id="stop4909" />
      <stop
         style="stop-color:#000000;stop-opacity:0.37769786;"
         offset="0.68472904"
         id="stop4905" />
      <stop
         id="stop4907"
         offset="0.7499575"
         style="stop-color:#000000;stop-opacity:0;" />
      <stop
         id="stop4897"
         offset="1"
         style="stop-color:#000000;stop-opacity:0;" />
    </linearGradient>
    <mask
       id="mask4921"
       maskUnits="userSpaceOnUse">
      <path
         inkscape:connector-curvature="0"
         sodipodi:nodetypes="ccccssccccccccsccscccccccccccccccccccccccccccccccccccccccccccccccssssccccccccsscccccsssc"
         id="path4923"
         d="m -83.999999,4 c -3.273853,0.017276 -5.375768,0.1739184 -8.625,0.625 -0.96195,0.153184 -1.75,0.7805494 -1.75,1.75 l -0.59375,9.4375 c -0.08851,0.955194 -0.756643,1.58433 -1.46875,1.8125 -0.02183,0.007 -0.0406,0.02503 -0.0625,0.03125 -4.116841,1.105169 -8.022931,2.722102 -11.625001,4.8125 -0.65155,0.281931 -1.49213,0.264937 -2.1875,-0.3125 l -7.09375,-6.25 c -0.6855,-0.685498 -1.68023,-0.57188 -2.46875,0 -2.61651,1.978592 -4.23532,3.353505 -6.5625,5.65625 -2.30274,2.327183 -3.67766,3.945984 -5.65625,6.5625 -0.57188,0.788521 -0.6855,1.783252 0,2.46875 l 6.25,7.09375 c 0.47372,0.570479 0.7362,1.308846 0.46875,1.84375 l -0.0625,0.125 c -2.24552,3.7996 -3.99486,7.936313 -5.125,12.3125 -0.0118,0.02064 -0.0187,0.04216 -0.0312,0.0625 -0.31721,0.512841 -0.85539,0.931584 -1.59375,1 l -9.4375,0.59375 c -0.96944,0 -1.59681,0.78805 -1.75,1.75 -0.45108,3.249232 -0.60772,5.351147 -0.625,8.625 0.0173,3.273853 0.17392,5.375768 0.625,8.625 0.15319,0.961946 0.78056,1.75 1.75,1.75 l 9.4375,0.59375 c 0.86735,0.08037 1.44344,0.646567 1.71875,1.28125 1.10323,4.143354 2.76625,8.064208 4.875,11.6875 0.37292,0.668507 0.38163,1.614364 -0.25,2.375 l -6.25,7.09375 c -0.6855,0.685496 -0.57188,1.680227 0,2.46875 1.97859,2.61651 3.35351,4.23531 5.65625,6.5625 2.32718,2.30274 3.94598,3.67766 6.5625,5.65625 0.78852,0.57188 1.78325,0.6855 2.46875,0 l 7.09375,-6.25 c 0.76064,-0.63163 1.70649,-0.62292 2.375,-0.25 l 0.0937,-0.0937 c 3.52766,2.01717 7.32819,3.60952 11.343751,4.6875 v 0.15625 c 0.736401,0.20901 1.440029,0.85927 1.53125,1.84375 l 0.59375,9.4375 c 0,0.96944 0.78805,1.59681 1.75,1.75 3.249232,0.45108 5.351147,0.60772 8.625,0.625 3.273853,-0.0173 5.375768,-0.17392 8.625,-0.625 0.961946,-0.15319 1.75,-0.78056 1.75,-1.75 l 0.59375,-9.4375 c 0.09122,-0.98448 0.794849,-1.63474 1.53125,-1.84375 v -0.15625 c 4.015557,-1.07798 7.816095,-2.67033 11.34375,-4.6875 l 0.09375,0.0937 c 0.668507,-0.37292 1.614362,-0.38163 2.375,0.25 l 7.09375,6.25 c 0.685503,0.68551 1.680237,0.57189 2.46875,0 2.61651,-1.97859 4.23531,-3.35351 6.5625,-5.65625 2.30274,-2.32719 3.67766,-3.94599 5.65625,-6.5625 0.57189,-0.788513 0.68551,-1.783245 0,-2.46875 l -6.25,-7.09375 c -0.63163,-0.76064 -0.62292,-1.706493 -0.25,-2.375 2.10875,-3.623292 3.77177,-7.544146 4.875,-11.6875 0.27531,-0.634683 0.8514,-1.20088 1.71875,-1.28125 l 9.4375,-0.59375 c 0.96945,0 1.59682,-0.788054 1.75,-1.75 0.45108,-3.249232 0.60772,-5.351147 0.625,-8.625 -0.01728,-3.273853 -0.17392,-5.375768 -0.625,-8.625 -0.15318,-0.96195 -0.78055,-1.75 -1.75,-1.75 l -9.4375,-0.59375 c -0.73836,-0.06842 -1.27654,-0.487159 -1.59375,-1 -0.0056,-0.02192 -0.02559,-0.04059 -0.03125,-0.0625 -1.13014,-4.376187 -3.15121,-8.364911 -5.125,-12.3125 l -0.0625,-0.125 c -0.26745,-0.534904 -0.005,-1.273273 0.46875,-1.84375 l 6.25,-7.09375 c 0.68551,-0.685506 0.57188,-1.680234 0,-2.46875 -1.97859,-2.616516 -3.35351,-4.23532 -5.65625,-6.5625 -2.32718,-2.302747 -3.94598,-3.677659 -6.5625,-5.65625 -0.788516,-0.571884 -1.783244,-0.685505 -2.46875,0 l -7.09375,6.25 c -0.695376,0.577435 -1.535955,0.594432 -2.1875,0.3125 -3.602075,-2.090398 -7.508163,-3.707331 -11.625,-4.8125 -0.0219,-0.0062 -0.04067,-0.02426 -0.0625,-0.03125 -0.712107,-0.22817 -1.380239,-0.857306 -1.46875,-1.8125 l -0.59375,-9.4375 c 0,-0.9694506 -0.788054,-1.596816 -1.75,-1.75 -3.249232,-0.4510816 -5.351147,-0.6077236 -8.625,-0.625 z m 0,44 c 8.831999,-10e-7 16,7.168 16,16 -10e-7,8.832 -7.168001,16 -16,16 -8.832,0 -16,-7.168 -16,-16 10e-7,-8.832001 7.168001,-16 16,-16 z"
         style="opacity:1;fill:url(#radialGradient4925);fill-opacity:1;stroke:none;stroke-width:3;stroke-linecap:round;stroke-linejoin:round;stroke-miterlimit:4;stroke-dasharray:none;stroke-dashoffset:1.08780003;stroke-opacity:1" />
    </mask>
    <radialGradient
       r="60"
       fy="64"
       fx="-84"
       cy="64"
       cx="-84"
       gradientUnits="userSpaceOnUse"
       id="radialGradient4925"
       xlink:href="#linearGradient4913"
       inkscape:collect="always" />
    <linearGradient
       id="linearGradient4913"
       inkscape:collect="always">
      <stop
         id="stop4915"
         offset="0"
         style="stop-color:#ffffff;stop-opacity:1;" />
      <stop
         id="stop4917"
         offset="1"
         style="stop-color:#ffffff;stop-opacity:0;" />
    </linearGradient>
    <radialGradient
       inkscape:collect="always"
       xlink:href="#linearGradient4893"
       id="radialGradient1016"
       cx="143.04431"
       cy="92.901131"
       fx="143.04431"
       fy="92.901131"
       r="10.659395"
       gradientTransform="matrix(7.0303006,6.6397328,-7.9741875,8.4432513,-224.83335,-1716.1637)"
       gradientUnits="userSpaceOnUse" />
    <linearGradient
       inkscape:collect="always"
       xlink:href="#b"
       id="linearGradient1068"
       x1="146.1411"
       y1="96.625679"
       x2="146.1411"
       y2="105.09211"
       gradientUnits="userSpaceOnUse"
       gradientTransform="matrix(7.0870265,0,0,7.0868125,-970.70583,-651.76807)" />
    <linearGradient
       inkscape:collect="always"
       xlink:href="#linearGradient3292"
       id="linearGradient1099"
       x1="146.17188"
       y1="95.671715"
       x2="146.17188"
       y2="105.98453"
       gradientUnits="userSpaceOnUse"
       gradientTransform="matrix(5.7929528,0,0,5.7927779,-781.77106,-521.07058)" />
    <filter
       inkscape:collect="always"
       style="color-interpolation-filters:sRGB"
       id="filter1146"
       x="-0.0084001424"
       width="1.0168003"
       y="-0.0083998576"
       height="1.0167997">
      <feGaussianBlur
         inkscape:collect="always"
         stdDeviation="0.050000868"
         id="feGaussianBlur1148" />
    </filter>
    <clipPath
       clipPathUnits="userSpaceOnUse"
       id="clipPath1166">
      <path
         id="path1168"
         d="m 9.6508689,111.11428 -0.2988786,0.93011 v 0.0515 l 0.1249615,0.90177 a 0.14606396,0.14605954 0 0 1 -0.106928,0.16103 l -1.2496352,0.33623 a 0.14606396,0.14605954 0 0 1 -0.1726309,-0.0837 l -0.3491205,-0.83736 -0.028363,-0.0554 -0.7291699,-0.64154 -0.5887472,0.33108 0.198395,0.94943 0.03608,0.0567 0.5578251,0.70982 a 0.14606396,0.14605954 0 0 1 -0.011609,0.19324 l -0.926272,0.92625 a 0.14606396,0.14605954 0 0 1 -0.1932435,0.0116 l -0.7111363,-0.55781 -0.05666,-0.0361 -0.9378677,-0.1971 -0.3426828,0.58873 0.6428543,0.72786 0.052834,0.0271 0.8386703,0.34783 a 0.14606396,0.14605954 0 0 1 0.083736,0.17262 l -0.3362386,1.2496 a 0.14606396,0.14605954 0 0 1 -0.1610351,0.10692 l -0.903087,-0.12495 H 4.031406 L 3.1141508,117.656 v 0.68792 l 0.9172552,0.2963 H 4.08424 l 0.9043732,-0.11208 a 0.14606396,0.14605954 0 0 1 0.1584626,0.10821 l 0.3362386,1.24831 a 0.14606396,0.14605954 0 0 1 -0.083736,0.17263 l -0.8386703,0.34912 -0.054087,0.027 -0.6415681,0.71369 0.3426828,0.58873 0.9455983,-0.19839 0.055407,-0.0271 0.704692,-0.55137 a 0.14606396,0.14605954 0 0 1 0.1932435,0.0103 l 0.9262719,0.91209 a 0.14606396,0.14605954 0 0 1 0.012862,0.19323 l -0.5616903,0.72914 a 0.14606396,0.14605954 0 0 1 -0.00132,0.001 l -0.033508,0.0438 -0.1971088,0.94428 0.5900335,0.34267 0.7278836,-0.64025 0.028363,-0.0554 0.3491206,-0.83736 a 0.14606396,0.14605954 0 0 1 0.1713446,-0.085 l 1.2496351,0.32206 a 0.14606396,0.14605954 0 0 1 0.1082143,0.16231 l -0.1249616,0.90178 v 0.0657 l 0.2975926,0.91594 h 0.6866579 l 0.297593,-0.91594 v -0.067 l -0.11208,-0.90306 a 0.14606396,0.14605954 0 0 1 0.109501,-0.15974 l 1.249635,-0.32206 a 0.14606396,0.14605954 0 0 1 0.171344,0.085 l 0.349121,0.83735 0.02836,0.0554 0.713709,0.64026 0.59004,-0.34268 -0.198395,-0.95458 -0.02447,-0.0426 -0.556538,-0.72141 a 0.14606396,0.14605954 0 0 1 0.01286,-0.19195 l 0.912104,-0.91207 a 0.14606396,0.14605954 0 0 1 0.191957,-0.0129 l 0.724011,0.55523 0.04248,0.0258 0.95462,0.1971 0.342683,-0.58873 -0.641568,-0.71369 -0.05409,-0.027 -0.83867,-0.34912 a 0.14606396,0.14605954 0 0 1 -0.08374,-0.17262 l 0.336239,-1.24831 a 0.14606396,0.14605954 0 0 1 0.158463,-0.10693 l 0.890204,0.11079 h 0.06699 l 0.917255,-0.2963 v -0.68791 l -0.917255,-0.2963 h -0.0657 l -0.888919,0.12496 a 0.14606396,0.14605954 0 0 1 -0.161035,-0.10693 l -0.336239,-1.2496 a 0.14606396,0.14605954 0 0 1 0.08374,-0.17262 l 0.83867,-0.34783 0.05283,-0.0271 0.642855,-0.72786 -0.342683,-0.58873 -0.945598,0.19581 -0.0438,0.0335 a 0.14606396,0.14605954 0 0 1 -0.0013,10e-4 l -0.730455,0.56167 a 0.14606396,0.14605954 0 0 1 -0.193248,-0.0129 l -0.912111,-0.92625 a 0.14606396,0.14605954 0 0 1 -0.01029,-0.19324 l 0.551387,-0.70209 0.02704,-0.0554 0.199688,-0.95846 -0.588747,-0.32979 -0.715002,0.64026 -0.02836,0.0554 -0.34912,0.83736 a 0.14606396,0.14605954 0 0 1 -0.172631,0.0837 l -1.249636,-0.33623 a 0.14606396,0.14605954 0 0 1 -0.108214,-0.15846 l 0.11208,-0.90306 v -0.0528 l -0.298886,-0.93011 z m 0.3426828,3.9897 c 1.6003453,0 2.9128143,1.29609 2.9128143,2.89597 0,1.59988 -1.312462,2.89598 -2.9128143,2.89598 -1.6003386,0 -2.8999254,-1.29693 -2.8999254,-2.89598 0,-1.59905 1.2995868,-2.89597 2.8999254,-2.89597 z"
         style="fill:#a02786;fill-opacity:1;stroke:none;stroke-width:0.28342265;stroke-miterlimit:4;stroke-dasharray:none"
         inkscape:connector-curvature="0" />
    </clipPath>
    <filter
       inkscape:collect="always"
       style="color-interpolation-filters:sRGB"
       id="filter1237"
       x="-0.027600003"
       width="1.0552"
       y="-0.027600005"
       height="1.0552">
      <feGaussianBlur
         inkscape:collect="always"
         stdDeviation="1.4406895"
         id="feGaussianBlur1239" />
    </filter>
    <filter
       inkscape:collect="always"
       style="color-interpolation-filters:sRGB"
       id="filter1251"
       x="-0.0035999422"
       width="1.0071999"
       y="-0.0036000578"
       height="1.0072001">
      <feGaussianBlur
         inkscape:collect="always"
         stdDeviation="0.18221191"
         id="feGaussianBlur1253" />
    </filter>
    <linearGradient
       id="c"
       gradientTransform="matrix(1.3755238,0,0,1.8570645,-21.763731,-96.765704)"
       gradientUnits="userSpaceOnUse"
       x1="59.925762"
       x2="100.4067"
       y1="101.12862"
       y2="77.702431">
      <stop
         offset="0"
         id="stop22" />
      <stop
         offset="1"
         stop-opacity="0"
         id="stop24" />
    </linearGradient>
    <filter
       id="d">
      <feGaussianBlur
         stdDeviation=".6715998"
         id="feGaussianBlur27" />
    </filter>
    <radialGradient
       id="e"
       cx="42.617531"
       cy="120.64188"
       gradientTransform="matrix(1.909059,1.8392116,-8.6222515,7.5766472,1009.8522,-881.36145)"
       gradientUnits="userSpaceOnUse"
       r="3.406888">
      <stop
         offset="0"
         stop-color="#b4942a"
         id="stop30" />
      <stop
         offset="1"
         stop-color="#e4dcc9"
         id="stop32" />
    </radialGradient>
    <linearGradient
       id="f"
       gradientTransform="matrix(0.9986497,0,0,0.9998891,0.14044,0.005323)"
       gradientUnits="userSpaceOnUse"
       x1="75.848022"
       x2="81.452583"
       y1="72.804123"
       y2="77.047241">
      <stop
         offset="0"
         stop-color="#252525"
         id="stop35" />
      <stop
         offset=".5"
         stop-color="#252525"
         id="stop37" />
      <stop
         offset=".75"
         stop-color="#252525"
         id="stop39" />
      <stop
         offset="1"
         id="stop41" />
    </linearGradient>
    <linearGradient
       id="g"
       gradientTransform="matrix(0.9986497,0,0,0.9998891,0.14044,0.005323)"
       gradientUnits="userSpaceOnUse"
       x1="76.708534"
       x2="80.579521"
       y1="83.325729"
       y2="87.154587">
      <stop
         offset="0"
         stop-color="#d4a100"
         stop-opacity=".976471"
         id="stop44" />
      <stop
         offset="1"
         stop-color="#ffc712"
         id="stop46" />
    </linearGradient>
    <linearGradient
       id="h"
       gradientTransform="matrix(1.2875994,1.1737414,-0.5465891,0.6213041,81.686465,27.89447)"
       gradientUnits="userSpaceOnUse"
       x1="11.326384"
       x2="14.493531"
       y1="57.383999"
       y2="57.383999">
      <stop
         offset="0"
         stop-color="#9a7600"
         id="stop49" />
      <stop
         offset=".09292036"
         stop-color="#e3ad00"
         id="stop51" />
      <stop
         offset=".5043171"
         stop-color="#ffcd2c"
         id="stop53" />
      <stop
         offset=".91571385"
         stop-color="#e3ad00"
         id="stop55" />
      <stop
         offset="1"
         stop-color="#b98d00"
         id="stop57" />
    </linearGradient>
    <linearGradient
       id="i"
       gradientTransform="matrix(0.9992082,0,0,0.9993395,0.108362,-0.090375)"
       gradientUnits="userSpaceOnUse"
       x1="114.92793"
       x2="100.65602"
       y1="-22.560064"
       y2="-22.052734">
      <stop
         offset="0"
         stop-color="#980000"
         id="stop60" />
      <stop
         offset="1"
         stop-color="#db5c5c"
         id="stop62" />
    </linearGradient>
    <linearGradient
       id="j"
       gradientUnits="userSpaceOnUse"
       x1="-12.817558"
       x2="82.172836"
       y1="7.4622769"
       y2="7.4622769">
      <stop
         offset="0"
         stop-color="#fff"
         stop-opacity=".683453"
         id="stop65" />
      <stop
         offset="1"
         stop-color="#fff"
         stop-opacity="0"
         id="stop67" />
    </linearGradient>
    <filter
       id="k">
      <feGaussianBlur
         stdDeviation=".31468463"
         id="feGaussianBlur70" />
    </filter>
    <radialGradient
       id="l"
       cx="34.677639"
       cy="7.4622769"
       gradientTransform="matrix(-1.5103,0.00264127,-1.1671e-4,-0.00911022,87.0522,7.438666)"
       gradientUnits="userSpaceOnUse"
       r="47.595196"
       xlink:href="#linearGradient4913" />
    <linearGradient
       id="n"
       gradientTransform="matrix(0.6182226,0,0,0.6232687,24.10803,47.993844)"
       gradientUnits="userSpaceOnUse"
       x1="33.342377"
       x2="24.450998"
       y1="117.83894"
       y2="107.35519">
      <stop
         offset="0"
         id="stop79" />
      <stop
         offset="1"
         stop-color="#515151"
         id="stop81" />
    </linearGradient>
    <linearGradient
       id="o"
       gradientTransform="matrix(1.6732108,1.5189394,-1.5009523,1.6928488,18.675678,-24.465565)"
       gradientUnits="userSpaceOnUse"
       x1="48.498562"
       x2="48.732723"
       xlink:href="#linearGradient4913"
       y1="0.81150502"
       y2="2.3657269" />
    <linearGradient
       id="p"
       gradientTransform="matrix(0.9973012,0,0,0.9997782,0.28069,0.010646)"
       gradientUnits="userSpaceOnUse"
       x1="92.226158"
       x2="96.579895"
       y1="54.119438"
       y2="57.15118">
      <stop
         offset="0"
         stop-color="#ea3838"
         id="stop85" />
      <stop
         offset="1"
         stop-color="#c40000"
         id="stop87" />
    </linearGradient>
    <radialGradient
       id="q"
       cx="49.011971"
       cy="2.6743081"
       gradientTransform="matrix(2.2600183,0,0,0.2752449,-2.259041,-25.415382)"
       gradientUnits="userSpaceOnUse"
       r="1.724619"
       xlink:href="#r" />
    <linearGradient
       id="r">
      <stop
         offset="0"
         stop-color="#fff"
         id="stop91" />
      <stop
         offset="1"
         stop-color="#252525"
         stop-opacity="0"
         id="stop93" />
    </linearGradient>
    <radialGradient
       id="s"
       cx="49.011971"
       cy="2.6743081"
       gradientTransform="matrix(1.550633,0,0,0.1873121,21.621938,-31.864287)"
       gradientUnits="userSpaceOnUse"
       r="1.724619"
       xlink:href="#r" />
    <radialGradient
       id="t"
       cx="49.011971"
       cy="2.6743081"
       gradientTransform="matrix(1.5495914,0,0,0.1876849,-193.24041,-23.535874)"
       gradientUnits="userSpaceOnUse"
       r="1.724619"
       xlink:href="#r" />
  </defs>
  <sodipodi:namedview
     pagecolor="#ffffff"
     bordercolor="#666666"
     borderopacity="1"
     objecttolerance="10"
     gridtolerance="10"
     guidetolerance="10"
     inkscape:pageopacity="0"
     inkscape:pageshadow="2"
     inkscape:window-width="1366"
     inkscape:window-height="706"
     id="namedview34"
     showgrid="true"
     inkscape:zoom="1.3037281"
     inkscape:cx="-50.565033"
     inkscape:cy="67.055853"
     inkscape:window-x="0"
     inkscape:window-y="0"
     inkscape:window-maximized="1"
     inkscape:current-layer="g30"
     inkscape:snap-global="true"
     showguides="false">
    <inkscape:grid
       type="xygrid"
       id="grid938" />
    <sodipodi:guide
       position="82.455842,173.73254"
       orientation="0,1"
       id="guide1195"
       inkscape:locked="false" />
  </sodipodi:namedview>
  <linearGradient
     id="a"
     gradientTransform="matrix(.4795852 0 0 .4791213 145.99565 101.00509)"
     gradientUnits="userSpaceOnUse"
     x1="-16.707943"
     x2="18.215206"
     y1="0"
     y2="2.009686">
    <stop
       offset="0"
       stop-color="#969696"
       id="stop2" />
    <stop
       offset=".20022914"
       stop-color="#f1f1f1"
       id="stop4" />
    <stop
       offset=".35514116"
       stop-color="#bbb"
       id="stop6" />
    <stop
       offset=".52539963"
       stop-color="#f6f6f6"
       id="stop8" />
    <stop
       offset=".73511833"
       stop-color="#e6e6e6"
       id="stop10" />
    <stop
       offset=".875"
       stop-color="#c0c0c0"
       id="stop12" />
    <stop
       offset="1"
       stop-color="#aeaeae"
       id="stop14" />
  </linearGradient>
  <linearGradient
     id="b"
     gradientUnits="userSpaceOnUse"
     x1="77.628502"
     x2="77.628502"
     y1="44.746105"
     y2="104.81113"
     gradientTransform="matrix(0.1078231,0,0,0.1077189,137.62986,93.05469)">
    <stop
       offset="0"
       stop-color="#c0c0c0"
       id="stop17" />
    <stop
       offset="1"
       stop-color="#fff"
       id="stop19" />
  </linearGradient>
  <g
     transform="matrix(5.81818 0 0 5.8180043 -785.45428 -523.61845)"
     id="g30"
     enable-background="new">
    <g
       id="g1281">
      <path
         id="path1018"
         transform="matrix(0.17187505,0,0,0.17188024,135,89.999667)"
         d="M 60.113281 2.7558594 L 57.191406 11.861328 L 57.191406 12.5625 L 58.228516 20.044922 A 0.81453193 0.81364065 0 0 1 57.632812 20.941406 L 47.664062 23.623047 A 0.81453193 0.81364065 0 0 1 46.701172 23.152344 L 43.822266 16.255859 C 43.820966 16.253362 43.819559 16.250644 43.818359 16.248047 L 43.818359 16.246094 C 43.818359 16.246094 43.816406 16.244141 43.816406 16.244141 L 43.8125 16.234375 L 43.464844 15.539062 L 36.28125 9.2226562 L 29.712891 12.919922 L 31.65625 22.265625 L 32.117188 22.957031 A 0.81453193 0.81364065 0 0 1 32.125 22.966797 C 32.125 22.966797 32.125 22.96875 32.125 22.96875 L 36.740234 28.835938 A 0.81453193 0.81364065 0 0 1 36.675781 29.914062 L 29.277344 37.296875 A 0.81453193 0.81364065 0 0 1 28.199219 37.361328 L 22.328125 32.763672 L 22.320312 32.759766 L 22.320312 32.757812 L 22.314453 32.753906 L 21.613281 32.289062 L 12.371094 30.347656 L 8.5449219 36.908203 L 14.871094 44.072266 L 15.566406 44.417969 A 0.81453193 0.81364065 0 0 1 15.570312 44.419922 C 15.573012 44.42112 15.575525 44.42253 15.578125 44.423828 L 15.582031 44.425781 L 22.5 47.300781 A 0.81453193 0.81364065 0 0 1 22.974609 48.265625 L 20.285156 58.212891 A 0.81453193 0.81364065 0 0 1 19.386719 58.806641 L 11.890625 57.773438 L 11.189453 57.773438 L 2.1855469 60.6875 L 2.1855469 68.318359 L 11.189453 71.232422 L 11.894531 71.232422 L 11.902344 71.232422 L 19.396484 70.3125 A 0.81453193 0.81364065 0 0 1 20.283203 70.90625 L 22.974609 80.863281 A 0.81453193 0.81364065 0 0 1 22.5 81.826172 L 15.582031 84.705078 L 15.578125 84.707031 L 15.570312 84.710938 A 0.81453193 0.81364065 0 0 1 15.566406 84.712891 L 14.871094 85.058594 L 8.5449219 92.097656 L 12.371094 98.658203 L 21.623047 96.714844 L 22.332031 96.359375 L 28.203125 91.763672 A 0.81453193 0.81364065 0 0 1 29.275391 91.824219 L 36.671875 99.091797 A 0.81453193 0.81364065 0 0 1 36.746094 100.16797 L 32.128906 106.15625 A 0.81453193 0.81364065 0 0 1 32.119141 106.16992 L 31.654297 106.74805 L 29.712891 116.08398 L 36.285156 119.90039 L 43.464844 113.58789 L 43.8125 112.89453 L 43.816406 112.88477 C 43.816406 112.88477 43.818359 112.88281 43.818359 112.88281 L 43.818359 112.88086 A 0.81453193 0.81364065 0 0 1 43.822266 112.87109 L 46.703125 105.9707 A 0.81453193 0.81364065 0 0 1 47.658203 105.49609 L 57.625 108.06641 A 0.81453193 0.81364065 0 0 1 58.228516 108.9668 L 57.193359 116.44141 L 57.193359 117.26367 L 60.113281 126.25 L 67.761719 126.25 L 70.683594 117.26367 L 70.683594 116.4375 L 70.683594 116.42969 L 69.761719 108.95703 A 0.81453193 0.81364065 0 0 1 70.367188 108.07031 L 80.341797 105.49609 A 0.81453193 0.81364065 0 0 1 81.296875 105.9707 L 84.177734 112.87305 A 0.81453193 0.81364065 0 0 1 84.181641 112.88086 L 84.181641 112.88281 C 84.181641 112.88281 84.183594 112.88477 84.183594 112.88477 L 84.1875 112.89453 L 84.537109 113.58789 L 91.589844 119.90039 L 98.164062 116.08398 L 96.21875 106.73828 L 95.867188 106.15234 L 95.865234 106.15039 L 91.251953 100.16406 A 0.81453193 0.81364065 0 0 1 91.320312 99.09375 L 98.599609 91.828125 A 0.81453193 0.81364065 0 0 1 99.671875 91.757812 L 105.66992 96.361328 L 105.67773 96.365234 L 105.67773 96.367188 L 105.68359 96.371094 L 106.25781 96.716797 L 115.62891 98.660156 L 119.45508 92.097656 L 113.13086 85.058594 L 112.43555 84.712891 A 0.81453193 0.81364065 0 0 1 112.43164 84.710938 L 105.5 81.828125 A 0.81453193 0.81364065 0 0 1 105.02539 80.863281 L 107.7168 70.90625 A 0.81453193 0.81364065 0 0 1 108.60547 70.3125 L 115.98242 71.232422 L 116.81055 71.232422 L 125.81641 68.318359 L 125.81641 60.6875 L 116.81055 57.773438 L 115.98633 57.773438 L 108.61523 58.806641 A 0.81453193 0.81364065 0 0 1 107.71484 58.212891 L 105.02539 48.265625 A 0.81453193 0.81364065 0 0 1 105.5 47.300781 L 112.43164 44.419922 A 0.81453193 0.81364065 0 0 1 112.43555 44.417969 L 113.13086 44.072266 L 119.45508 36.908203 L 115.62891 30.345703 L 106.27344 32.287109 L 105.69141 32.751953 A 0.81453193 0.81364065 0 0 1 105.67773 32.761719 L 99.677734 37.369141 A 0.81453193 0.81364065 0 0 1 98.601562 37.294922 L 91.318359 29.914062 A 0.81453193 0.81364065 0 0 1 91.257812 28.839844 L 95.867188 22.976562 L 96.216797 22.275391 L 98.166016 12.919922 L 91.59375 9.2265625 L 84.537109 15.541016 L 84.1875 16.234375 L 84.183594 16.244141 L 84.181641 16.246094 L 84.181641 16.248047 A 0.81453193 0.81364065 0 0 1 84.177734 16.255859 L 81.298828 23.152344 A 0.81453193 0.81364065 0 0 1 80.333984 23.623047 L 70.357422 20.9375 A 0.81453193 0.81364065 0 0 1 69.761719 20.052734 L 70.683594 12.576172 L 70.683594 12.566406 L 70.683594 11.861328 L 67.761719 2.7558594 L 60.113281 2.7558594 z M 64 50.546875 C 71.437554 50.546881 77.466797 56.569891 77.466797 64 C 77.466797 71.430115 71.437554 77.453125 64 77.453125 C 56.562504 77.453125 50.533145 71.430115 50.533203 64 C 50.533145 56.569891 56.562504 50.546881 64 50.546875 z "
         style="opacity:1;fill:#313131;fill-opacity:1;stroke:none;stroke-width:2.64383817;filter:url(#filter1237)" />
      <path
         id="path1173"
         transform="matrix(0.17187505,0,0,0.17188024,135,89.999667)"
         d="M 60.919922 3.2636719 L 58.283203 11.466797 L 58.283203 11.921875 L 59.386719 19.876953 A 1.2883934 1.2883545 0 0 1 58.443359 21.296875 L 47.419922 24.261719 A 1.2883934 1.2883545 0 0 1 45.898438 23.523438 L 42.818359 16.138672 L 42.568359 15.648438 L 36.136719 9.9902344 L 30.943359 12.910156 L 32.693359 21.285156 L 33.011719 21.785156 L 37.931641 28.046875 A 1.2883934 1.2883545 0 0 1 37.830078 29.751953 L 29.658203 37.921875 A 1.2883934 1.2883545 0 0 1 27.955078 38.023438 L 21.681641 33.103516 L 21.181641 32.785156 L 12.908203 31.046875 L 9.8867188 36.240234 L 15.556641 42.660156 L 16.023438 42.898438 L 23.419922 45.966797 A 1.2883934 1.2883545 0 0 1 24.160156 47.488281 L 21.193359 58.511719 A 1.2883934 1.2883545 0 0 1 19.773438 59.455078 L 11.806641 58.351562 L 11.353516 58.351562 L 3.2617188 60.966797 L 3.2617188 67.033203 L 11.353516 69.648438 L 11.818359 69.648438 L 19.794922 68.658203 A 1.2883934 1.2883545 0 0 1 21.193359 69.613281 L 24.160156 80.625 A 1.2883934 1.2883545 0 0 1 23.419922 82.146484 L 16.023438 85.226562 L 15.546875 85.464844 L 9.8867188 91.759766 L 12.910156 96.953125 L 21.25 95.203125 L 21.740234 94.964844 L 27.955078 90.101562 A 1.2883934 1.2883545 0 0 1 29.660156 90.191406 L 37.830078 98.238281 A 1.2883934 1.2883545 0 0 1 37.943359 99.941406 L 32.988281 106.37305 A 1.2883934 1.2883545 0 0 1 32.976562 106.38477 L 32.681641 106.77148 L 30.943359 115.10156 L 36.148438 118.12305 L 42.568359 112.47656 L 42.818359 111.98633 L 45.898438 104.60156 A 1.2883934 1.2883545 0 0 1 47.410156 103.85156 L 58.431641 106.69141 A 1.2883934 1.2883545 0 0 1 59.386719 108.12305 L 58.285156 116.07812 L 58.285156 116.6582 L 60.910156 124.73633 L 66.966797 124.73633 L 69.591797 116.6582 L 69.591797 116.06641 L 68.601562 108.10156 A 1.2883934 1.2883545 0 0 1 69.568359 106.69141 L 80.591797 103.85156 A 1.2883934 1.2883545 0 0 1 82.101562 104.60156 L 85.181641 111.98633 L 85.431641 112.47656 L 91.728516 118.12305 L 96.931641 115.10156 L 95.181641 106.67969 L 94.966797 106.30469 L 90.056641 99.941406 A 1.2883934 1.2883545 0 0 1 90.169922 98.248047 L 98.216797 90.203125 A 1.2883934 1.2883545 0 0 1 99.910156 90.089844 L 106.29492 94.988281 L 106.66992 95.214844 L 115.0918 96.953125 L 118.11328 91.761719 L 112.45508 85.464844 L 111.97656 85.226562 L 104.58008 82.148438 A 1.2883934 1.2883545 0 0 1 103.8418 80.625 L 106.80664 69.613281 A 1.2883934 1.2883545 0 0 1 108.20508 68.669922 L 116.05664 69.648438 L 116.64844 69.648438 L 124.73828 67.035156 L 124.73828 60.966797 L 116.64844 58.353516 L 116.06836 58.353516 L 108.22656 59.455078 A 1.2883934 1.2883545 0 0 1 106.80664 58.511719 L 103.8418 47.490234 A 1.2883934 1.2883545 0 0 1 104.58008 45.966797 L 111.97656 42.898438 L 112.44336 42.660156 L 118.11328 36.240234 L 115.0918 31.046875 L 106.75 32.773438 L 106.36328 33.070312 A 1.2883934 1.2883545 0 0 1 106.35156 33.082031 L 99.910156 38.035156 A 1.2883934 1.2883545 0 0 1 98.205078 37.921875 L 90.158203 29.751953 A 1.2883934 1.2883545 0 0 1 90.068359 28.046875 L 94.931641 21.853516 L 95.169922 21.365234 L 96.931641 12.912109 L 91.738281 10.001953 L 85.431641 15.650391 L 85.181641 16.138672 L 82.101562 23.525391 A 1.2883934 1.2883545 0 0 1 80.580078 24.263672 L 69.556641 21.296875 A 1.2883934 1.2883545 0 0 1 68.601562 19.900391 L 69.591797 11.933594 L 69.591797 11.46875 L 66.955078 3.2636719 L 60.919922 3.2636719 z M 64 50.546875 C 71.437554 50.546881 77.466797 56.569891 77.466797 64 C 77.466797 71.430115 71.437554 77.453125 64 77.453125 C 56.562504 77.453125 50.533145 71.430115 50.533203 64 C 50.533145 56.569891 56.562504 50.546881 64 50.546875 z "
         style="fill:none;fill-opacity:1;stroke:#353535;stroke-width:0.76700002;stroke-miterlimit:4;stroke-dasharray:none;stroke-opacity:1;filter:url(#filter1251)" />
      <path
         id="path22"
         d="m 145.4707,90.560547 -0.45312,1.410156 v 0.07813 l 0.18945,1.367188 a 0.22144268,0.22144268 0 0 1 -0.16211,0.24414 l -1.89453,0.509766 a 0.22144268,0.22144268 0 0 1 -0.26172,-0.126953 l -0.52929,-1.269531 -0.043,-0.08398 -1.10547,-0.972656 -0.89258,0.501953 0.30078,1.439453 0.0547,0.08594 0.8457,1.076171 a 0.22144268,0.22144268 0 0 1 -0.0176,0.292969 l -1.40429,1.404297 a 0.22144268,0.22144268 0 0 1 -0.29297,0.01758 l -1.07813,-0.845703 -0.0859,-0.05469 -1.42187,-0.298828 -0.51953,0.892578 0.97461,1.103515 0.0801,0.04102 1.27148,0.527344 a 0.22144268,0.22144268 0 0 1 0.12695,0.261718 l -0.50976,1.894531 a 0.22144268,0.22144268 0 0 1 -0.24414,0.16211 l -1.36914,-0.18945 h -0.0781 l -1.39062,0.44922 v 1.04296 l 1.39062,0.44922 h 0.0801 l 1.37109,-0.16992 a 0.22144268,0.22144268 0 0 1 0.24024,0.16406 l 0.50976,1.89258 a 0.22144268,0.22144268 0 0 1 -0.12695,0.26172 l -1.27148,0.5293 -0.082,0.041 -0.97266,1.08203 0.51953,0.89258 1.43359,-0.30078 0.084,-0.041 1.06836,-0.83594 a 0.22144268,0.22144268 0 0 1 0.29297,0.0156 l 1.40429,1.38282 a 0.22144268,0.22144268 0 0 1 0.0195,0.29296 l -0.85156,1.10547 a 0.22144268,0.22144268 0 0 1 -0.002,0.002 l -0.0508,0.0664 -0.29883,1.43164 0.89453,0.51953 1.10352,-0.9707 0.043,-0.084 0.52929,-1.26953 a 0.22144268,0.22144268 0 0 1 0.25977,-0.12891 l 1.89453,0.48828 a 0.22144268,0.22144268 0 0 1 0.16406,0.24609 l -0.18945,1.36719 v 0.0996 l 0.45117,1.38867 h 1.04102 l 0.45117,-1.38867 v -0.10156 l -0.16992,-1.36914 a 0.22144268,0.22144268 0 0 1 0.16601,-0.24219 l 1.89453,-0.48828 a 0.22144268,0.22144268 0 0 1 0.25977,0.12891 l 0.52929,1.26953 0.043,0.084 1.08203,0.9707 0.89454,-0.51953 -0.30078,-1.44726 -0.0371,-0.0645 -0.84375,-1.09375 a 0.22144268,0.22144268 0 0 1 0.0195,-0.29101 l 1.38281,-1.38281 a 0.22144268,0.22144268 0 0 1 0.29102,-0.0195 l 1.09765,0.84179 0.0644,0.0391 1.44727,0.29883 0.51953,-0.89258 -0.97266,-1.08203 -0.082,-0.041 -1.27148,-0.5293 a 0.22144268,0.22144268 0 0 1 -0.12695,-0.26172 l 0.50976,-1.89258 a 0.22144268,0.22144268 0 0 1 0.24024,-0.16211 l 1.34961,0.16797 h 0.10156 l 1.39062,-0.44922 v -1.04296 l -1.39062,-0.44922 h -0.0996 l -1.34766,0.18945 a 0.22144268,0.22144268 0 0 1 -0.24414,-0.16211 l -0.50976,-1.894531 a 0.22144268,0.22144268 0 0 1 0.12695,-0.261718 l 1.27148,-0.527344 0.0801,-0.04102 0.97461,-1.103515 -0.51953,-0.892578 -1.43359,0.296874 -0.0664,0.05078 a 0.22144268,0.22144268 0 0 1 -0.002,0.002 l -1.10742,0.851562 a 0.22144268,0.22144268 0 0 1 -0.29297,-0.01953 l -1.38282,-1.404297 a 0.22144268,0.22144268 0 0 1 -0.0156,-0.292969 l 0.83594,-1.064453 0.041,-0.08398 0.30274,-1.453125 -0.89258,-0.5 -1.08399,0.970703 -0.043,0.08398 -0.52929,1.269531 a 0.22144268,0.22144268 0 0 1 -0.26172,0.126953 l -1.89453,-0.509766 a 0.22144268,0.22144268 0 0 1 -0.16406,-0.240234 l 0.16992,-1.369141 v -0.08008 l -0.45313,-1.410156 z m 0.51953,6.048828 c 2.42623,0 4.41602,1.965027 4.41602,4.390625 0,2.4256 -1.98978,4.39063 -4.41602,4.39062 -2.42622,0 -4.39648,-1.96628 -4.39648,-4.39062 0,-2.424347 1.97026,-4.390625 4.39648,-4.390625 z"
         style="fill:#dadada;fill-opacity:1;stroke:none;stroke-width:0.42969412;stroke-miterlimit:4;stroke-dasharray:none" />
      <g
         style="opacity:0.3;filter:url(#filter1146)"
         clip-path="url(#clipPath1166)"
         transform="matrix(1.5160666,0,0,1.5161124,130.83934,-77.901192)"
         id="g867">
        <path
           inkscape:connector-curvature="0"
           style="fill:#000000;fill-opacity:0.04255317;stroke:none"
           d="m 10,110.85685 c -1.108458,0 -2.161526,0.25362 -3.098213,0.70536 l 2.67857,5.67857 -4.67857,-4.25 c -1.266825,1.28934 -2.044644,3.06112 -2.044644,5.00893 0,0.51502 0.05686,1.01573 0.160714,1.5 l 7.053572,-1.82143 -0.116072,-0.0982 4.553572,-5.11607 C 13.278925,111.46119 11.708561,110.85686 10,110.85686 Z m 6.883929,5.23215 -7.017857,1.67857 0.02679,0.0179 -6.098213,3.75 c 1.230798,2.15429 3.54954,3.60714 5.491071,3.60714 0.915572,0 1.1154,-0.0104 1.3125,-0.0268 -0.256744,-2.94147 -0.63406,-7.18725 -0.642857,-7.28571 l 5.669643,4.5625 c 0.948935,-1.2126 1.517858,-2.73582 1.517857,-4.39286 0,-0.66114 -0.09036,-1.30282 -0.258929,-1.91071 z"
           id="path4004" />
        <path
           inkscape:connector-curvature="0"
           style="fill:#000000;fill-opacity:0.04787233;stroke:none"
           d="m 10,110.85685 c -0.85917,0 -1.683053,0.1587 -2.446428,0.4375 L 9.580357,117.24078 4.375,113.59793 c -0.951506,1.21347 -1.517857,2.74226 -1.517857,4.40178 0,0.34182 0.02487,0.67984 0.07143,1.00893 l 7.142857,-1.33036 -0.116072,-0.0982 3.973215,-5.53571 c -1.128152,-0.74606 -2.476522,-1.1875 -3.928572,-1.1875 z m 7.008929,5.77679 -7.142857,1.13393 0.02679,0.0179 -5.616071,4.48214 c 1.303286,1.74205 3.383137,2.875 5.723214,2.875 0.05704,0 0.112919,10e-4 0.169643,0 -0.08509,-2.96607 -0.205524,-7.21445 -0.214286,-7.3125 l 5.928572,4.20536 c 0.79051,-1.14942 1.25893,-2.53706 1.258929,-4.03572 0,-0.46762 -0.0479,-0.92338 -0.133929,-1.36607 z"
           id="path4004-0" />
        <path
           inkscape:connector-curvature="0"
           style="fill:#000000;fill-opacity:0.05851063;stroke:none"
           d="m 10,110.85685 c -0.648312,0 -1.277668,0.0877 -1.875,0.25 l 1.803572,6.55358 3.366071,-5.99108 C 12.308054,111.15442 11.188679,110.85685 10,110.85685 Z m -6.080357,3.39286 c -0.673512,1.08967 -1.0625,2.37647 -1.0625,3.75 0,0.16521 0.0068,0.32864 0.01786,0.49107 l 7.089285,-0.78571 -6.044642,-3.45536 z m 13.178571,2.9375 -7.125,0.42857 6.151786,4.0625 c 0.646489,-1.07405 1.017858,-2.33515 1.017857,-3.67857 0,-0.27399 -0.01452,-0.54649 -0.04464,-0.8125 z m -7.089286,0.48214 -5.053571,5.39286 c 1.244937,1.24056 2.94985,2.01551 4.830357,2.07143 z"
           id="path3893-7" />
        <path
           inkscape:connector-curvature="0"
           style="fill:#000000;fill-opacity:0.06382979;stroke:none"
           d="m 10,110.85685 c -0.39145,0 -0.777338,0.0285 -1.151786,0.0893 l 1.080358,6.71429 2.660714,-6.3125 C 11.785799,111.03449 10.913643,110.85686 10,110.85686 Z m -6.410714,3.99108 c -0.45213,0.91751 -0.714658,1.94893 -0.732143,3.03571 l 7.107143,-0.17857 z m 6.383929,2.76785 6.392856,3.625 c 0.496481,-0.97261 0.776787,-2.07536 0.776786,-3.24107 0,-0.0991 -0.0049,-0.19647 -0.0089,-0.29464 l -7.160714,-0.0893 z m 0.03571,0.0536 -4.133929,6.15179 c 1.004818,0.71409 2.195432,1.18059 3.491072,1.29464 z"
           id="path3893-7-5" />
        <path
           inkscape:connector-curvature="0"
           style="fill:#000000;fill-opacity:0.10106381;stroke:none"
           d="m 10,110.85685 c -0.180151,0 -0.358888,0.005 -0.535715,0.0179 l 0.464287,6.78572 1.803571,-6.58929 C 11.17753,110.93272 10.597127,110.85686 10,110.85686 Z m -6.6875,4.64286 c -0.210754,0.56295 -0.357361,1.15707 -0.419643,1.77679 l 7.071428,0.42857 z m 6.660715,2.11607 6.616071,3.14286 c 0.316271,-0.75292 0.505344,-1.57114 0.544643,-2.42857 z m 0.03571,0.0536 -3.116072,6.75893 c 0.616727,0.29873 1.282515,0.51417 1.982143,0.625 l 1.133928,-7.38392 z"
           id="path3893" />
        <path
           style="fill:#000000;fill-opacity:0.0851064;stroke:none"
           d="m 10.044643,110.85685 -0.116071,6.80358 1.080357,-6.73215 c -0.314638,-0.0445 -0.637945,-0.0694 -0.964286,-0.0714 z m -6.901786,5.14286 c -0.08056,0.27638 -0.149526,0.55915 -0.196428,0.84822 l 7.017857,0.85714 z m 6.830358,1.61607 6.803571,2.625 c 0.129583,-0.39169 0.234402,-0.79599 0.294643,-1.21428 z m 0.03571,0.0536 -2.642857,6.96429 c 0.160076,0.0639 0.325575,0.12604 0.491071,0.17857 0.146411,0.046 0.296139,0.0883 0.446429,0.125 0.03876,0.01 0.07706,0.0179 0.116071,0.0268 z"
           id="path3893-9"
           inkscape:connector-curvature="0"
           sodipodi:nodetypes="cccccccccccccccccc" />
      </g>
      <path
         transform="matrix(0.17187505,0,0,0.17188024,135,89.999667)"
         id="path1008"
         d="M 60.919922 3.2636719 L 58.283203 11.466797 L 58.283203 11.921875 L 59.386719 19.876953 A 1.2883934 1.2883545 0 0 1 58.443359 21.296875 L 47.419922 24.261719 A 1.2883934 1.2883545 0 0 1 45.898438 23.523438 L 42.818359 16.138672 L 42.568359 15.648438 L 36.136719 9.9902344 L 30.943359 12.910156 L 32.693359 21.285156 L 33.011719 21.785156 L 37.931641 28.046875 A 1.2883934 1.2883545 0 0 1 37.830078 29.751953 L 29.658203 37.921875 A 1.2883934 1.2883545 0 0 1 27.955078 38.023438 L 21.681641 33.103516 L 21.181641 32.785156 L 12.908203 31.046875 L 9.8867188 36.240234 L 15.556641 42.660156 L 16.023438 42.898438 L 23.419922 45.966797 A 1.2883934 1.2883545 0 0 1 24.160156 47.488281 L 21.193359 58.511719 A 1.2883934 1.2883545 0 0 1 19.773438 59.455078 L 11.806641 58.351562 L 11.353516 58.351562 L 3.2617188 60.966797 L 3.2617188 67.033203 L 11.353516 69.648438 L 11.818359 69.648438 L 19.794922 68.658203 A 1.2883934 1.2883545 0 0 1 21.193359 69.613281 L 24.160156 80.625 A 1.2883934 1.2883545 0 0 1 23.419922 82.146484 L 16.023438 85.226562 L 15.546875 85.464844 L 9.8867188 91.759766 L 12.910156 96.953125 L 21.25 95.203125 L 21.740234 94.964844 L 27.955078 90.101562 A 1.2883934 1.2883545 0 0 1 29.660156 90.191406 L 37.830078 98.238281 A 1.2883934 1.2883545 0 0 1 37.943359 99.941406 L 32.988281 106.37305 A 1.2883934 1.2883545 0 0 1 32.976562 106.38477 L 32.681641 106.77148 L 30.943359 115.10156 L 36.148438 118.12305 L 42.568359 112.47656 L 42.818359 111.98633 L 45.898438 104.60156 A 1.2883934 1.2883545 0 0 1 47.410156 103.85156 L 58.431641 106.69141 A 1.2883934 1.2883545 0 0 1 59.386719 108.12305 L 58.285156 116.07812 L 58.285156 116.6582 L 60.910156 124.73633 L 66.966797 124.73633 L 69.591797 116.6582 L 69.591797 116.06641 L 68.601562 108.10156 A 1.2883934 1.2883545 0 0 1 69.568359 106.69141 L 80.591797 103.85156 A 1.2883934 1.2883545 0 0 1 82.101562 104.60156 L 85.181641 111.98633 L 85.431641 112.47656 L 91.728516 118.12305 L 96.931641 115.10156 L 95.181641 106.67969 L 94.966797 106.30469 L 90.056641 99.941406 A 1.2883934 1.2883545 0 0 1 90.169922 98.248047 L 98.216797 90.203125 A 1.2883934 1.2883545 0 0 1 99.910156 90.089844 L 106.29492 94.988281 L 106.66992 95.214844 L 115.0918 96.953125 L 118.11328 91.761719 L 112.45508 85.464844 L 111.97656 85.226562 L 104.58008 82.148438 A 1.2883934 1.2883545 0 0 1 103.8418 80.625 L 106.80664 69.613281 A 1.2883934 1.2883545 0 0 1 108.20508 68.669922 L 116.05664 69.648438 L 116.64844 69.648438 L 124.73828 67.035156 L 124.73828 60.966797 L 116.64844 58.353516 L 116.06836 58.353516 L 108.22656 59.455078 A 1.2883934 1.2883545 0 0 1 106.80664 58.511719 L 103.8418 47.490234 A 1.2883934 1.2883545 0 0 1 104.58008 45.966797 L 111.97656 42.898438 L 112.44336 42.660156 L 118.11328 36.240234 L 115.0918 31.046875 L 106.75 32.773438 L 106.36328 33.070312 A 1.2883934 1.2883545 0 0 1 106.35156 33.082031 L 99.910156 38.035156 A 1.2883934 1.2883545 0 0 1 98.205078 37.921875 L 90.158203 29.751953 A 1.2883934 1.2883545 0 0 1 90.068359 28.046875 L 94.931641 21.853516 L 95.169922 21.365234 L 96.931641 12.912109 L 91.738281 10.001953 L 85.431641 15.650391 L 85.181641 16.138672 L 82.101562 23.525391 A 1.2883934 1.2883545 0 0 1 80.580078 24.263672 L 69.556641 21.296875 A 1.2883934 1.2883545 0 0 1 68.601562 19.900391 L 69.591797 11.933594 L 69.591797 11.46875 L 66.955078 3.2636719 L 60.919922 3.2636719 z M 63.943359 38.455078 C 78.059602 38.455078 89.636719 49.88786 89.636719 64 C 89.636719 78.112151 78.05966 89.54498 63.943359 89.544922 C 49.827175 89.544922 38.363281 78.104821 38.363281 64 C 38.363281 49.895139 49.827175 38.455078 63.943359 38.455078 z "
         style="opacity:0.28999999;fill:url(#radialGradient1016);fill-opacity:1;stroke:none;stroke-width:2.64566684;stroke-opacity:1" />
      <path
         transform="matrix(0.17187505,0,0,0.17188024,135,89.999667)"
         id="path1085"
         d="M 64 35.126953 C 48.0373 35.126959 35.09754 48.053246 35.097656 64 C 35.09754 79.946743 48.0373 92.873047 64 92.873047 C 79.9627 92.873047 92.902402 79.946743 92.902344 64 C 92.902402 48.053246 79.9627 35.126959 64 35.126953 z M 64 50.546875 C 71.437554 50.546881 77.466797 56.569891 77.466797 64 C 77.466797 71.430115 71.437554 77.453125 64 77.453125 C 56.562504 77.453125 50.533145 71.430115 50.533203 64 C 50.533145 56.569891 56.562504 50.546881 64 50.546875 z "
         style="fill:url(#linearGradient1099);fill-opacity:1;stroke:none;stroke-width:12.5223732;stroke-linecap:round;stroke-linejoin:round;stroke-miterlimit:4;stroke-dasharray:none" />
      <path
         transform="matrix(0.17187505,0,0,0.17188024,135,89.999667)"
         id="circle26"
         d="M 64 38.320312 C 49.803392 38.32032 38.294804 49.81754 38.294922 64 C 38.294804 78.18246 49.803392 89.67968 64 89.679688 C 78.196608 89.67968 89.705196 78.18246 89.705078 64 C 89.705196 49.81754 78.196608 38.32032 64 38.320312 z M 64 47.972656 C 72.86039 47.972668 80.042969 55.148477 80.042969 64 C 80.042969 72.851512 72.86039 80.027344 64 80.027344 C 55.139668 80.027344 47.956973 72.851512 47.957031 64 C 47.956973 55.148477 55.139668 47.972668 64 47.972656 z "
         style="fill:url(#linearGradient1068);fill-opacity:1;stroke:none;stroke-width:11.13693237;stroke-linecap:round;stroke-linejoin:round;stroke-miterlimit:4;stroke-dasharray:none" />
      <path
         id="path1258"
         transform="matrix(0.17187505,0,0,0.17188024,135,89.999667)"
         d="M 60.919922 3.2636719 L 58.283203 11.466797 L 58.283203 11.921875 L 58.369141 12.541016 L 60.919922 4.6054688 L 66.957031 4.6054688 L 69.513672 12.5625 L 69.591797 11.933594 L 69.591797 11.46875 L 66.955078 3.2636719 L 60.919922 3.2636719 z M 36.136719 9.9902344 L 30.943359 12.910156 L 31.193359 14.111328 L 36.136719 11.332031 L 42.568359 16.990234 L 42.818359 17.480469 L 45.898438 24.865234 A 1.2883934 1.2883545 0 0 0 47.419922 25.603516 L 58.443359 22.638672 A 1.2883934 1.2883545 0 0 0 59.386719 21.21875 L 59.294922 20.556641 A 1.2883934 1.2883545 0 0 1 58.443359 21.296875 L 47.419922 24.261719 A 1.2883934 1.2883545 0 0 1 45.898438 23.523438 L 42.818359 16.138672 L 42.568359 15.648438 L 36.136719 9.9902344 z M 91.738281 10.001953 L 85.431641 15.650391 L 85.181641 16.138672 L 82.101562 23.525391 A 1.2883934 1.2883545 0 0 1 80.580078 24.263672 L 69.556641 21.296875 A 1.2883934 1.2883545 0 0 1 68.691406 20.539062 L 68.603516 21.242188 A 1.2883934 1.2883545 0 0 0 69.558594 22.638672 L 80.582031 25.605469 A 1.2883934 1.2883545 0 0 0 82.103516 24.867188 L 85.183594 17.480469 L 85.433594 16.992188 L 91.740234 11.34375 L 96.681641 14.113281 L 96.931641 12.912109 L 91.738281 10.001953 z M 38.017578 29.513672 A 1.2883934 1.2883545 0 0 1 37.830078 29.751953 L 29.658203 37.921875 A 1.2883934 1.2883545 0 0 1 27.955078 38.023438 L 21.681641 33.103516 L 21.181641 32.785156 L 12.908203 31.046875 L 9.8867188 36.240234 L 10.357422 36.773438 L 12.908203 32.388672 L 21.181641 34.126953 L 21.681641 34.445312 L 27.955078 39.365234 A 1.2883934 1.2883545 0 0 0 29.658203 39.263672 L 37.830078 31.09375 A 1.2883934 1.2883545 0 0 0 38.017578 29.513672 z M 89.978516 29.519531 A 1.2883934 1.2883545 0 0 0 90.158203 31.09375 L 98.205078 39.263672 A 1.2883934 1.2883545 0 0 0 99.910156 39.376953 L 106.35156 34.423828 A 1.2883934 1.2883545 0 0 0 106.36328 34.412109 L 106.75 34.115234 L 115.0918 32.388672 L 117.64258 36.773438 L 118.11328 36.240234 L 115.0918 31.046875 L 106.75 32.773438 L 106.36328 33.070312 A 1.2883934 1.2883545 0 0 1 106.35156 33.082031 L 99.910156 38.035156 A 1.2883934 1.2883545 0 0 1 98.205078 37.921875 L 90.158203 29.751953 A 1.2883934 1.2883545 0 0 1 89.978516 29.519531 z M 24.052734 47.888672 L 21.193359 58.511719 A 1.2883934 1.2883545 0 0 1 19.773438 59.455078 L 11.806641 58.351562 L 11.353516 58.351562 L 3.2617188 60.966797 L 3.2617188 62.308594 L 11.353516 59.693359 L 11.806641 59.693359 L 19.773438 60.796875 A 1.2883934 1.2883545 0 0 0 21.193359 59.853516 L 24.160156 48.830078 A 1.2883934 1.2883545 0 0 0 24.052734 47.888672 z M 103.94922 47.890625 A 1.2883934 1.2883545 0 0 0 103.84375 48.832031 L 106.80859 59.853516 A 1.2883934 1.2883545 0 0 0 108.22852 60.796875 L 116.07031 59.695312 L 116.65039 59.695312 L 124.73828 62.308594 L 124.73828 60.966797 L 116.64844 58.353516 L 116.06836 58.353516 L 108.22656 59.455078 A 1.2883934 1.2883545 0 0 1 106.80664 58.511719 L 103.94922 47.890625 z M 38.380859 64.671875 C 38.375079 64.895139 38.363281 65.117146 38.363281 65.341797 C 38.363281 79.446617 49.827175 90.886719 63.943359 90.886719 C 78.05966 90.886777 89.636719 79.453948 89.636719 65.341797 C 89.636719 65.11703 89.624978 64.895247 89.619141 64.671875 C 89.257463 78.472176 77.834172 89.544979 63.943359 89.544922 C 50.052662 89.544922 38.739036 78.465417 38.380859 64.671875 z M 24.052734 81.566406 A 1.2883934 1.2883545 0 0 1 23.419922 82.146484 L 16.023438 85.226562 L 15.546875 85.464844 L 9.8867188 91.759766 L 10.361328 92.574219 L 15.546875 86.806641 L 16.023438 86.568359 L 23.419922 83.488281 A 1.2883934 1.2883545 0 0 0 24.160156 81.966797 L 24.052734 81.566406 z M 103.95117 81.570312 L 103.84375 81.966797 A 1.2883934 1.2883545 0 0 0 104.58203 83.490234 L 111.97852 86.568359 L 112.45508 86.806641 L 117.63867 92.576172 L 118.11328 91.761719 L 112.45508 85.464844 L 111.97656 85.226562 L 104.58008 82.148438 A 1.2883934 1.2883545 0 0 1 103.95117 81.570312 z M 38.021484 99.824219 A 1.2883934 1.2883545 0 0 1 37.943359 99.941406 L 32.988281 106.37305 A 1.2883934 1.2883545 0 0 1 32.976562 106.38477 L 32.681641 106.77148 L 30.943359 115.10156 L 31.193359 115.24609 L 32.681641 108.11328 L 32.976562 107.72656 A 1.2883934 1.2883545 0 0 0 32.988281 107.71484 L 37.943359 101.2832 A 1.2883934 1.2883545 0 0 0 38.021484 99.824219 z M 89.982422 99.832031 A 1.2883934 1.2883545 0 0 0 90.056641 101.2832 L 94.966797 107.64648 L 95.181641 108.02148 L 96.683594 115.24609 L 96.931641 115.10156 L 95.181641 106.67969 L 94.966797 106.30469 L 90.056641 99.941406 A 1.2883934 1.2883545 0 0 1 89.982422 99.832031 z M 59.296875 108.77539 L 58.285156 116.07812 L 58.285156 116.6582 L 58.359375 116.88672 L 59.386719 109.46484 A 1.2883934 1.2883545 0 0 0 59.296875 108.77539 z M 68.6875 108.79688 A 1.2883934 1.2883545 0 0 0 68.601562 109.44336 L 69.523438 116.86523 L 69.591797 116.6582 L 69.591797 116.06641 L 68.6875 108.79688 z "
         style="opacity:1;fill:#f8f8f8;fill-opacity:1;stroke:none;stroke-width:2.64566684;stroke-opacity:1" />
    </g>
    <g
       transform="matrix(0.18837655,0,0,0.18838224,137.21817,80.938134)"
       id="g148">
      <g
         style="fill-rule:evenodd"
         id="g116">
        <path
           style="fill:#bf0000"
           inkscape:connector-curvature="0"
           d="m 90.067703,48.28801 c 0.613642,-0.692125 4.648657,-0.363057 8.944253,3.536477 4.337724,3.937759 5.210074,7.748115 4.441394,8.615025 -0.5003,0.564284 -1.00061,1.128566 -1.50092,1.692851 -4.461914,-4.050501 -8.9238,-8.101002 -13.385691,-12.151503 0.500309,-0.564283 1.000624,-1.128565 1.500964,-1.69285 z"
           id="path108" />
        <path
           style="fill:#b3925d"
           inkscape:connector-curvature="0"
           d="m 36.000762,124 20.247,-9.42653 0.09417,-0.10772 -13.269004,-12.28446 -0.127672,0.1459 z"
           id="path110" />
        <path
           style="fill:url(#c);filter:url(#d)"
           inkscape:connector-curvature="0"
           d="m 98.534725,51.799464 c -1.025821,-0.04502 -1.882013,0.614542 -2.665637,0.986566 -4.174912,3.698786 -21.569273,21.653428 -22.000397,22.168708 l -17.273332,20.659839 -0.106627,0.116066 -9.682256,17.633397 23.598527,-5.26172 29.942357,-36.049245 3.58973,-4.294461 c 0.64726,-1.199814 1.23861,-7.813473 -1.74155,-12.76732 -1.45299,-2.415269 -2.634991,-3.146806 -3.660815,-3.19183 z m 5.402365,15.95915 c -0.0266,0.04924 -0.0446,0.143824 -0.0711,0.174098 -0.0129,0.01476 1.49247,-1.049396 0.6753,-0.870498 z"
           id="path112" />
        <path
           style="fill:url(#e)"
           inkscape:connector-curvature="0"
           d="m 37.004018,123.01573 18.885171,-8.78019 0.09416,-0.10769 -12.551842,-11.60866 -0.12769,0.14592 z"
           id="path114" />
      </g>
      <path
         style="fill:url(#f)"
         inkscape:connector-curvature="0"
         d="m 49.164276,108.94499 c 1.648961,1.50106 2.755448,1.51054 3.34488,2.0471 0.09525,0.0867 0.175312,0.18851 0.243795,0.29167 L 97.392942,60.017302 90.912418,54.117987 46.187555,105.48147 c 0.214748,0.0564 0.415855,0.13454 0.602285,0.30424 0.538767,0.49045 0.717813,1.65124 2.374436,3.15928 z"
         id="path118" />
      <path
         style="opacity:0.35348804"
         inkscape:connector-curvature="0"
         d="m 54.219542,109.12044 -1.750182,2.00168 c 0.538752,0.53092 0.431653,1.46553 1.421976,2.36702 1.067261,0.97156 1.630178,0.45849 2.321697,1.08447 l 1.771382,-2.02599 z"
         id="path120" />
      <path
         style="fill:url(#g)"
         inkscape:connector-curvature="0"
         d="M 97.156354,59.801933 52.550305,111.02955 c 0.541583,0.53354 0.517441,1.37742 1.512824,2.28353 1.072712,0.97652 1.555044,0.55628 2.250088,1.18547 L 100.94048,63.246681 Z"
         id="path122" />
      <path
         style="opacity:0.386047;fill:#252525"
         inkscape:connector-curvature="0"
         d="m 47.641192,104.81388 -0.897802,1.02682 -0.0345,0.0376 c 0.447512,0.42018 0.395724,1.39005 1.878296,2.86086 l 0.08229,0.0749 0.586334,0.53373 0.0823,0.0749 c 1.616252,1.35012 2.54668,1.16726 3.136095,1.7038 l 0.947655,-1.09585 z"
         id="path124" />
      <path
         style="opacity:0.35348804;fill:#131313"
         inkscape:connector-curvature="0"
         d="m 43.884886,101.37497 -0.940801,0.95531 c 0.02064,0.0187 -0.05311,0.1047 -0.03237,0.12358 0.423005,0.38509 0.412824,1.36825 1.189787,2.20191 l 0.072,0.0655 0.318878,0.29029 0.04115,0.0374 c 0.925767,0.72156 1.702344,0.46358 2.175362,0.82926 l 0.940872,-1.07609 z"
         id="path126" />
      <path
         style="fill:url(#h)"
         inkscape:connector-curvature="0"
         d="m 44.501995,104.6749 c 1.032229,0.92922 1.738227,0.6105 2.287845,1.11081 L 91.395905,54.558106 87.571444,51.076654 42.944168,102.32853 c 0.02096,0.019 0.04162,0.0379 0.06269,0.0571 0.42971,0.39116 0.455145,1.35294 1.495139,2.28929 z"
         id="path128" />
      <path
         style="fill:url(#i)"
         inkscape:connector-curvature="0"
         d="m 99.380959,-24.64492 h 18.073061 v 4.252269 H 99.380959 Z"
         transform="matrix(0.7409346,0.6715772,-0.6655662,0.7463388,0,0)"
         id="path130" />
      <path
         style="fill:url(#j);filter:url(#k)"
         inkscape:connector-curvature="0"
         d="m 82.172836,7.4622769 c 0,0.5365014 -21.264324,0.9714217 -47.495197,0.9714217 -26.2308732,0 -47.495197,-0.4349203 -47.495197,-0.9714217 0,-0.5365014 21.2643238,-0.9714217 47.495197,-0.9714217 26.230873,0 47.495197,0.4349203 47.495197,0.9714217 z"
         transform="matrix(0.3854946,-0.4403693,-1.7345162,-1.5764895,62.874028,110.46407)"
         id="path132" />
      <path
         style="fill:url(#l)"
         inkscape:connector-curvature="0"
         d="m 106.56087,7.4622769 c 2e-5,0.232347 -31.840086,0.4212113 -71.318555,0.4230365 -39.478469,0.00183 -71.818819,-0.1840719 -72.439038,-0.4163902 -0.62022,-0.2323183 30.7118344,-0.424103 70.18056,-0.4295779 39.468725,-0.00547 72.301293,0.1774094 73.541553,0.4096417"
         transform="matrix(0.3184879,-0.3665274,-1.2576415,-1.1452705,66.925762,101.47904)"
         id="path134" />
      <path
         style="fill:url(#n);fill-rule:evenodd"
         inkscape:connector-curvature="0"
         d="m 44.721041,119.98334 c -1.894932,-0.77816 -4.469372,-3.93608 -5.787909,-5.07837 l -2.933131,9.08971 z"
         id="path136" />
      <path
         style="fill:url(#o);fill-rule:evenodd"
         inkscape:connector-curvature="0"
         d="m 97.676422,50.957862 c 2.773338,2.157871 4.754818,5.136648 4.863888,5.422718 0.10904,0.286071 -2.586875,-3.046365 -4.878244,-4.572341 -2.273846,-1.514326 -5.450917,-1.552229 -5.685693,-1.736594 -0.234782,-0.184361 -1.822614,-1.877275 -0.38221,-1.814774 1.506596,0.06537 3.94013,1.035831 6.082259,2.700991 z"
         id="path138" />
      <path
         style="fill:url(#p)"
         inkscape:connector-curvature="0"
         d="m 93.653015,51.592952 -2.773744,3.218036 6.482458,5.873697 2.773741,-3.186793 z"
         id="path140" />
      <path
         style="fill:url(#q)"
         inkscape:connector-curvature="0"
         d="m 104.60918,-25.364759 h 7.79523 v 1.708078 h -7.79523 z"
         transform="matrix(0.7404161,0.6721488,-0.6634233,0.7482443,0,0)"
         id="path142" />
      <path
         style="fill:url(#s)"
         inkscape:connector-curvature="0"
         d="m 94.946716,-31.829779 h 5.348454 v 1.162492 h -5.348454 z"
         transform="matrix(0.6942228,0.7197602,-0.7693435,0.6388354,0,0)"
         id="path144" />
      <path
         style="fill:url(#t)"
         inkscape:connector-curvature="0"
         d="m -119.96733,-23.501301 h 5.3449 v 1.164788 h -5.3449 z"
         transform="matrix(-0.7514575,-0.6597815,-0.5893147,0.8079036,0,0)"
         id="path146" />
    </g>
  </g>
</svg>
