<svg height="128" viewBox="0 0 33.866666 33.866668" width="128" xmlns="http://www.w3.org/2000/svg" xmlns:xlink="http://www.w3.org/1999/xlink"><linearGradient id="a" gradientTransform="matrix(-.27904738 -.00014437 -.00013688 .29432203 12.891991 283.03488)" gradientUnits="userSpaceOnUse" x1="113.15723" x2="-3.974206" y1="25.786163" y2="24.729744"><stop offset="0" stop-color="#0a6fc6" stop-opacity=".993627"/><stop offset="1" stop-color="#006cc9"/></linearGradient><filter id="b"><feGaussianBlur stdDeviation="2.0786429"/></filter><radialGradient id="c" cx="27.708702" cy="301.6181" gradientTransform="matrix(3.5555559 .00000018 -.00000015 3.0000008 -70.811094 -603.23643)" gradientUnits="userSpaceOnUse" r="13.85435"><stop offset="0" stop-color="#b7b8b9"/><stop offset=".18851049" stop-color="#ececec"/><stop offset=".25718147" stop-color="#fafafa"/><stop offset=".30111277" stop-color="#fff"/><stop offset=".5313" stop-color="#fafafa"/><stop offset=".8449" stop-color="#ebecec"/><stop offset="1" stop-color="#e1e2e3"/></radialGradient><radialGradient id="d" cx="26.169329" cy="277.12506" gradientTransform="matrix(0 -1 1.859301 0 -501.67715 315.00471)" gradientUnits="userSpaceOnUse" r="7.713275"><stop offset="0" stop-color="#fff"/><stop offset="1" stop-color="#fff" stop-opacity="0"/></radialGradient><radialGradient id="e" cx="26.191305" cy="282.65869" gradientTransform="matrix(0 -1 1.859301 0 -501.67715 315.00471)" gradientUnits="userSpaceOnUse" r="7.713275"><stop offset="0" stop-color="#000914"/><stop offset="1" stop-color="#000b14" stop-opacity="0"/></radialGradient><radialGradient id="f" cx="26.191305" cy="282.65869" gradientTransform="matrix(0 -3.7795276 7.0272794 0 -1896.1027 196.04935)" gradientUnits="userSpaceOnUse" r="7.713275"><stop offset="0" stop-color="#001331"/><stop offset="1" stop-color="#293e63"/></radialGradient><radialGradient id="g" cx="23.94796" cy="285.60861" gradientTransform="matrix(-.00000366 -6.0343759 11.314473 -.00000685 -3126.7852 255.05919)" gradientUnits="userSpaceOnUse" r="7.713275"><stop offset="0" stop-color="#9abcee"/><stop offset="1" stop-color="#092042"/></radialGradient><linearGradient id="h"><stop offset="0" stop-color="#bfe7ff"/><stop offset="1" stop-color="#bff9ff" stop-opacity="0"/></linearGradient><linearGradient gradientUnits="userSpaceOnUse" x1="30.748894" x2="34.425343" xlink:href="#i" y1="288.41653" y2="282.56204"/><linearGradient id="i"><stop offset="0" stop-color="#80f9ff"/><stop offset="1" stop-color="#80fff9" stop-opacity="0"/></linearGradient><filter id="j" color-interpolation-filters="sRGB" height="1.018454" width="1.034312" x="-.017156" y="-.009227"><feGaussianBlur stdDeviation=".11027288"/></filter><linearGradient id="k" gradientTransform="matrix(0 -3.7795276 3.7795276 0 -966.35964 203.70952)" gradientUnits="userSpaceOnUse" x1="21.083328" x2="28.78019" xlink:href="#i" y1="286.49692" y2="286.49692"/><linearGradient id="l" gradientUnits="userSpaceOnUse" x1="56.909305" x2="56.909305" xlink:href="#h" y1="283.901355" y2="306.991935"/><linearGradient gradientUnits="userSpaceOnUse" x1="33.800798" x2="37.477247" xlink:href="#i" y1="289.709149" y2="283.854659"/><filter id="m" color-interpolation-filters="sRGB" height="1.032572" width="1.029939" x="-.014969" y="-.016286"><feGaussianBlur stdDeviation=".50113476"/></filter><linearGradient id="n" gradientUnits="userSpaceOnUse" x1="104.725758" x2="157.088658" xlink:href="#h" y1="52.365238" y2="128.000538"/><g transform="translate(0 -263.13332)"><path d="m11.599999 11.8.000089 118.71995 113.037982-.0201-.00009-118.719947z" filter="url(#b)" opacity=".553903" transform="matrix(.2699708 0 0 .2699708 -2.121455 261.22293)"/><path d="m1.5501472 264.67856-.010775 30.78205 29.2480748-.00002.000004-30.78705z" fill="#fff" stroke-width=".269971"/><path d="m3.0787446 266.21255 26.1693294-.00002v27.70871l-26.1693294.00002z" fill="url(#c)"/><path d="m-2.2135196 280.68369h2.11666658v9.53634h-2.11666658z" fill="#0c70c7" opacity=".99"/><path d="m-18.438181 291.25884 6.700274-5.88307 1.108899 1.17075-2.178024 3.53753 12.73438852.015v2.35494l-.432661.00054v-.00054l-12.30281552-.015 2.174752 3.48122-1.109988 1.2288z" fill="url(#a)" fill-rule="evenodd"/><g fill="#404040" fill-opacity=".839216" transform="scale(-1 1)"><path d="m-27.708702 269.29129h21.551212v1.539373h-21.551212z"/><path d="m-27.708702 273.90939h21.551212v1.539359h-21.551212z"/><path d="m-23.090584 278.52753h16.933094v1.539364h-16.933094z"/><path d="m-15.393723 283.14566h9.236234v1.539348h-9.236234z"/></g><path d="m-280.70294-6.4214h2.159766v6.4214h-2.159766z" fill="#0c70c7" opacity=".99" transform="rotate(-90)"/><path d="m54.908598 291.84374.01987 6.99173c1.04104-.0386 1.015927-.13775 2.028307-.29611l-.02087-6.69406z" fill="url(#l)"/><g transform="translate(1.53955 -.000141)"><g fill="none"><path d="m15.393552 289.30311 6.15766-6.15747v4.61811l8.79198.004-.04204 3.10183-.56691.0007v-.0007l-8.22649-.004.04346 4.59503z" stroke="url(#d)" stroke-width="1.6"/><path d="m15.393552 289.30311 6.15766-6.15747v4.61811l8.79198.004-.04204 3.10183-.56691.0007v-.0007l-8.22649-.004.04346 4.59503z" stroke="url(#e)" stroke-linecap="round" stroke-linejoin="round" stroke-width="1.6"/><path d="m93.089844 52.365234v11.634766h11.636716l.17969 29.089844-23.453125.002v-17.455125l-23.271484 23.273437 23.271484 23.271484-.164063-17.36719 31.091798.0156v.002l2.14258-.002v-.10156h1.83789v-40.72849-11.634766z" stroke="url(#f)" stroke-linecap="round" stroke-linejoin="round" stroke-width="7.559055" transform="matrix(.26458333 0 0 .26458333 0 263.13332)"/></g><path d="m93.089844 52.365234v11.634766h11.636716l.17969 29.089844-23.453125.002v-17.455125l-23.271484 23.273437 23.271484 23.271484-.164063-17.36719 31.091798.0156v.002l2.14258-.002v-.10156h1.83789v-40.72849-11.634766z" fill="url(#g)" fill-rule="evenodd" transform="matrix(.26458333 0 0 .26458333 0 263.13332)"/><path d="m116.46409 71.66025.18051 29.08958-23.4536.001.000215-17.453691-23.272625 23.272091 23.272151 23.27236-.164612-17.36769 31.093021.0157v.002l2.14258-.002v-.10156h1.83789v-40.726416z" fill="none" filter="url(#m)" stroke="url(#k)" stroke-width="1.133858" transform="matrix(.26458333 0 0 .26458333 -3.105581 261.10657)"/><path d="m25.701618 274.1818c-.0771 5.27178 1.488081 8.50523 6.15746 6.15766l-1.534042 1.45299-3.084072-1.453-.0039 8.79198-3.101821-.0419-.000707-.56691h.000707l.0039-8.22649-2.984946 1.49788-1.610105-1.45443z" fill="none" filter="url(#j)" transform="matrix(0 -1 1 0 -258.788213 315.004687)"/><path d="m30.787194 280.06728.00028 10.77556-1.538772.00082.04723-2.10674h.000707l-1.587593-8.67037z" fill="none" filter="url(#j)"/><path d="m93.089844 52.365234v11.634766h11.636716 11.63477v-11.634766zm11.636716 11.634766.17969 28.115234c2.57628-.545877 9.09748-5.140959 11.61328-5.77539l-.1582-22.337891zm-23.273435 11.636719-23.273437 23.271484 1.986328 1.814457c13.460848.33488 24.626557-2.629824 39.892574-7.648441l-18.605465.01367z" fill="url(#n)" opacity=".886" transform="matrix(.26458333 0 0 .26458333 0 263.13332)"/></g><path d="m-13.854351 287.76379h7.696862v1.539348h-7.696862z" fill="#404040" fill-opacity=".839216" transform="scale(-1 1)"/></g></svg>