<?xml version="1.0" encoding="UTF-8" standalone="no"?>
<svg
   xmlns:dc="http://purl.org/dc/elements/1.1/"
   xmlns:cc="http://creativecommons.org/ns#"
   xmlns:rdf="http://www.w3.org/1999/02/22-rdf-syntax-ns#"
   xmlns:svg="http://www.w3.org/2000/svg"
   xmlns="http://www.w3.org/2000/svg"
   xmlns:xlink="http://www.w3.org/1999/xlink"
   xmlns:sodipodi="http://sodipodi.sourceforge.net/DTD/sodipodi-0.dtd"
   xmlns:inkscape="http://www.inkscape.org/namespaces/inkscape"
   height="128"
   viewBox="0 0 128 128"
   width="128"
   version="1.1"
   id="svg31"
   sodipodi:docname="sc_arrowshapes.s-sharped-arrow.svg"
   inkscape:version="0.92.3 (unknown)"
   inkscape:export-filename="/home/rizmut/Dokumen/Rizmut/Github/libreoffice-style-karasa-jaga/build/images_karasa_jaga/cmd/sc_arrowshapes.s-sharped-arrow.png"
   inkscape:export-xdpi="12"
   inkscape:export-ydpi="12">
  <metadata
     id="metadata37">
    <rdf:RDF>
      <cc:Work
         rdf:about="">
        <dc:format>image/svg+xml</dc:format>
        <dc:type
           rdf:resource="http://purl.org/dc/dcmitype/StillImage" />
        <dc:title></dc:title>
      </cc:Work>
    </rdf:RDF>
  </metadata>
  <defs
     id="defs35">
    <linearGradient
       id="linearGradient3369">
      <stop
         id="stop3372"
         offset="0"
         style="stop-color:#ffffff;stop-opacity:1;" />
      <stop
         style="stop-color:#ffffff;stop-opacity:1;"
         offset="0.53250301"
         id="stop3374" />
      <stop
         style="stop-color:#f1f1f1;stop-opacity:1;"
         offset="0.8125"
         id="stop3376" />
      <stop
         id="stop3378"
         offset="0.90234375"
         style="stop-color:#eaeaea;stop-opacity:1;" />
      <stop
         id="stop3384"
         offset="1"
         style="stop-color:#dfdfdf;stop-opacity:1;" />
    </linearGradient>
    <linearGradient
       id="linearGradient7422">
      <stop
         style="stop-color:#7c9fcf;stop-opacity:1"
         offset="0"
         id="stop7424" />
      <stop
         id="stop5348"
         offset="0.5"
         style="stop-color:#7c9ece;stop-opacity:1" />
      <stop
         id="stop7426"
         offset="1"
         style="stop-color:#7b9dcf;stop-opacity:1" />
    </linearGradient>
    <linearGradient
       inkscape:collect="always"
       xlink:href="#linearGradient3369"
       id="linearGradient944"
       x1="96.013672"
       y1="63.999783"
       x2="-31.986324"
       y2="63.999783"
       gradientUnits="userSpaceOnUse"
       gradientTransform="matrix(0,-1,-1,0,127.99978,96.014279)" />
    <linearGradient
       inkscape:collect="always"
       xlink:href="#linearGradient3369"
       id="linearGradient1864"
       x1="56"
       y1="128"
       x2="56"
       y2="0"
       gradientUnits="userSpaceOnUse" />
    <linearGradient
       inkscape:collect="always"
       xlink:href="#linearGradient7422"
       id="linearGradient1892"
       x1="24.023438"
       y1="64.00737"
       x2="127.97725"
       y2="64.00737"
       gradientUnits="userSpaceOnUse"
       gradientTransform="translate(-16,-1e-5)" />
    <linearGradient
       inkscape:collect="always"
       xlink:href="#linearGradient3369"
       id="linearGradient1920"
       gradientUnits="userSpaceOnUse"
       x1="56"
       y1="128"
       x2="56"
       y2="0" />
    <linearGradient
       inkscape:collect="always"
       xlink:href="#linearGradient3369"
       id="linearGradient1922"
       gradientUnits="userSpaceOnUse"
       x1="56"
       y1="128"
       x2="56"
       y2="0" />
    <linearGradient
       inkscape:collect="always"
       xlink:href="#linearGradient3369"
       id="linearGradient1924"
       gradientUnits="userSpaceOnUse"
       x1="56"
       y1="128"
       x2="56"
       y2="0" />
    <linearGradient
       inkscape:collect="always"
       xlink:href="#linearGradient3369"
       id="linearGradient1926"
       gradientUnits="userSpaceOnUse"
       x1="56"
       y1="128"
       x2="56"
       y2="0" />
    <linearGradient
       inkscape:collect="always"
       xlink:href="#linearGradient3369"
       id="linearGradient1928"
       gradientUnits="userSpaceOnUse"
       x1="56"
       y1="128"
       x2="56"
       y2="0" />
  </defs>
  <sodipodi:namedview
     pagecolor="#ffffff"
     bordercolor="#666666"
     borderopacity="1"
     objecttolerance="10"
     gridtolerance="10"
     guidetolerance="10"
     inkscape:pageopacity="0"
     inkscape:pageshadow="2"
     inkscape:window-width="1364"
     inkscape:window-height="704"
     id="namedview33"
     showgrid="true"
     inkscape:zoom="2"
     inkscape:cx="68.424343"
     inkscape:cy="16.678218"
     inkscape:window-x="0"
     inkscape:window-y="0"
     inkscape:window-maximized="0"
     inkscape:current-layer="svg31"
     inkscape:snap-global="true"
     showguides="false"
     inkscape:measure-start="0,0"
     inkscape:measure-end="0,0">
    <inkscape:grid
       type="xygrid"
       id="grid844"
       spacingx="8"
       spacingy="8"
       empspacing="2" />
  </sodipodi:namedview>
  <linearGradient
     id="a">
    <stop
       offset="0"
       stop-color="#f9f9fa"
       id="stop2" />
    <stop
       offset="1"
       stop-color="#f9f9fa"
       stop-opacity="0"
       id="stop4" />
  </linearGradient>
  <linearGradient
     id="b"
     gradientUnits="userSpaceOnUse"
     x1="42.276669"
     x2="-13.469376"
     xlink:href="#a"
     y1="50.867565"
     y2="104.97279" />
  <linearGradient
     id="c"
     gradientUnits="userSpaceOnUse"
     x1="-1.817377"
     x2="2.172436"
     xlink:href="#a"
     y1="55.003803"
     y2="116.784" />
  <g
     id="g1844"
     transform="translate(-16,-1e-5)">
    <path
       sodipodi:nodetypes="cccccccc"
       inkscape:connector-curvature="0"
       id="rect930"
       d="m 71.906524,24.005888 24.093523,0.0084 V 8.0142737 l 24.000003,24.0000023 -24.000003,24 v -16 L 72,40 Z"
       style="opacity:1;fill:url(#linearGradient944);fill-opacity:1;stroke:none;stroke-width:3.77952766;stroke-linecap:round;stroke-linejoin:round;stroke-miterlimit:4;stroke-dasharray:none;stroke-dashoffset:0;stroke-opacity:1" />
    <rect
       y="40"
       x="56"
       height="64"
       width="16"
       id="rect1819"
       style="opacity:1;fill:#6a0056;fill-opacity:1;stroke:none;stroke-width:3.41871142;stroke-linecap:round;stroke-linejoin:round;stroke-miterlimit:4;stroke-dasharray:none;stroke-dashoffset:0;stroke-opacity:1" />
    <path
       inkscape:connector-curvature="0"
       id="path1821"
       d="M 73.529297,24 A 17.528543,17.528543 0 0 0 56,41.529297 17.528543,17.528543 0 0 0 72,58.980469 V 53.125 h 0.02344 A 12.755572,12.755572 0 0 1 72,52.677734 12.755572,12.755572 0 0 1 82.246094,40.185547 V 40 h 1.238281 A 12.755572,12.755572 0 0 1 84.755859,39.923828 12.755572,12.755572 0 0 1 86.119141,40 h 4.859375 A 17.528543,17.528543 0 0 0 73.529297,24 Z"
       style="opacity:1;fill:#6a0056;fill-opacity:1;stroke:none;stroke-width:3.77952766;stroke-linecap:round;stroke-linejoin:round;stroke-miterlimit:4;stroke-dasharray:none;stroke-dashoffset:0;stroke-opacity:1" />
    <path
       style="opacity:1;fill:#e8b7d7;fill-opacity:1;stroke:none;stroke-width:3.77952766;stroke-linecap:round;stroke-linejoin:round;stroke-miterlimit:4;stroke-dasharray:none;stroke-dashoffset:0;stroke-opacity:1"
       d="M 54.470703,120.00001 A 17.528543,17.528543 0 0 0 72,102.47071 17.528543,17.528543 0 0 0 56,85.019541 V 90.87501 H 55.97656 A 12.755572,12.755572 0 0 1 56,91.322276 12.755572,12.755572 0 0 1 45.753906,103.81446 v 0.18555 h -1.238281 a 12.755572,12.755572 0 0 1 -1.271484,0.0762 12.755572,12.755572 0 0 1 -1.363282,-0.0762 h -4.859375 a 17.528543,17.528543 0 0 0 17.449219,16 z"
       id="path1833"
       inkscape:connector-curvature="0" />
    <path
       style="opacity:1;fill:#e20071;fill-opacity:1;stroke:none;stroke-width:3.77952766;stroke-linecap:round;stroke-linejoin:round;stroke-miterlimit:4;stroke-dasharray:none;stroke-dashoffset:0;stroke-opacity:1"
       d="M 56.09348,104.00592 32,104.00001 V 120 l 24,1e-5 z"
       id="path1835"
       inkscape:connector-curvature="0"
       sodipodi:nodetypes="ccccc" />
  </g>
  <path
     style="opacity:1;fill:url(#linearGradient1892);fill-opacity:1;stroke:none;stroke-width:3.77952766;stroke-linecap:round;stroke-linejoin:round;stroke-miterlimit:4;stroke-dasharray:none;stroke-dashoffset:0;stroke-opacity:1"
     d="M 79.882812,0.0390525 C 75.52407,0.10309466 72.024033,3.6544499 72.023438,8.0136619 v 8.0214841 l -14.22461,-0.0059 h -0.09961 -0.01367 c -0.113934,-0.0018 -0.227892,-0.0011 -0.341797,0.002 l 0.05859,-0.002 h -1.496094 c -0.92995,0.004 -1.852041,0.170553 -2.724609,0.492187 -10.224527,1.882523 -18.827744,10.524768 -20.669922,20.75586 -0.320079,0.87219 -0.485325,1.793593 -0.488281,2.722656 v 40 h -0.02344 v 16 h -8 v 0.02344 h -2.978511 c -0.01237,6.36e-4 -0.02474,0.0013 -0.03711,0.002 l -4.980469,-0.002 c -4.406879,-0.0022 -7.980471,3.569683 -7.980468,7.976561 v 16 c 0,4.40533 3.571229,7.97656 7.976562,7.97656 h 24 c 0.916674,-0.004 1.825817,-0.16577 2.6875,-0.47851 10.273158,-1.83699 18.944237,-10.49842 20.798828,-20.76758 0.321641,-0.87454 0.487561,-1.79867 0.490234,-2.73047 V 63.999951 h 0.02344 v -16 h 8.023438 v 8.013672 c -6.14e-4,7.106922 8.592143,10.666283 13.617182,5.640625 l 24.000009,-24 c 3.11549,-3.115119 3.11549,-8.166131 0,-11.28125 L 85.64062,2.3730369 C 84.11568,0.84883905 82.038637,0.00692728 79.882812,0.0390525 Z M 61.550781,34.716787 c 1.716143,0.03978 3.561591,0.422214 5.486328,1.158203 h -11 c 1.614442,-0.781468 3.470315,-1.205564 5.513672,-1.158203 z M 52,39.267568 v 8.732422 h 0.875 v 8.830078 C 48.71808,49.977229 49.002358,43.434964 52,39.267568 Z M 35.537109,105.90233 h 5.669922 c -0.376033,8.90966 -2.94186,5.22273 -5.669922,0 z"
     id="path1866"
     inkscape:connector-curvature="0" />
  <g
     id="g1856"
     style="fill:url(#linearGradient1864);fill-opacity:1"
     transform="translate(-16,-1e-5)">
    <path
       style="opacity:1;fill:url(#linearGradient1920);fill-opacity:1;stroke:none;stroke-width:3.77952766;stroke-linecap:round;stroke-linejoin:round;stroke-miterlimit:4;stroke-dasharray:none;stroke-dashoffset:0;stroke-opacity:1"
       d="m 71.906524,24.005888 24.093523,0.0084 V 8.0142737 l 24.000003,24.0000023 -24.000003,24 v -16 L 72,40 Z"
       id="path1846"
       inkscape:connector-curvature="0"
       sodipodi:nodetypes="cccccccc" />
    <rect
       style="opacity:1;fill:url(#linearGradient1922);fill-opacity:1;stroke:none;stroke-width:3.41871142;stroke-linecap:round;stroke-linejoin:round;stroke-miterlimit:4;stroke-dasharray:none;stroke-dashoffset:0;stroke-opacity:1"
       id="rect1848"
       width="16"
       height="64"
       x="56"
       y="40" />
    <path
       style="opacity:1;fill:url(#linearGradient1924);fill-opacity:1;stroke:none;stroke-width:3.77952766;stroke-linecap:round;stroke-linejoin:round;stroke-miterlimit:4;stroke-dasharray:none;stroke-dashoffset:0;stroke-opacity:1"
       d="M 73.529297,24 A 17.528543,17.528543 0 0 0 56,41.529297 17.528543,17.528543 0 0 0 72,58.980469 V 53.125 h 0.02344 A 12.755572,12.755572 0 0 1 72,52.677734 12.755572,12.755572 0 0 1 82.246094,40.185547 V 40 h 1.238281 A 12.755572,12.755572 0 0 1 84.755859,39.923828 12.755572,12.755572 0 0 1 86.119141,40 h 4.859375 A 17.528543,17.528543 0 0 0 73.529297,24 Z"
       id="path1850"
       inkscape:connector-curvature="0" />
    <path
       inkscape:connector-curvature="0"
       id="path1852"
       d="M 54.470703,120.00001 A 17.528543,17.528543 0 0 0 72,102.47071 17.528543,17.528543 0 0 0 56,85.019541 V 90.87501 H 55.97656 A 12.755572,12.755572 0 0 1 56,91.322276 12.755572,12.755572 0 0 1 45.753906,103.81446 v 0.18555 h -1.238281 a 12.755572,12.755572 0 0 1 -1.271484,0.0762 12.755572,12.755572 0 0 1 -1.363282,-0.0762 h -4.859375 a 17.528543,17.528543 0 0 0 17.449219,16 z"
       style="opacity:1;fill:url(#linearGradient1926);fill-opacity:1;stroke:none;stroke-width:3.77952766;stroke-linecap:round;stroke-linejoin:round;stroke-miterlimit:4;stroke-dasharray:none;stroke-dashoffset:0;stroke-opacity:1" />
    <path
       sodipodi:nodetypes="ccccc"
       inkscape:connector-curvature="0"
       id="path1854"
       d="M 56.09348,104.00592 32,104.00001 V 120 l 24,1e-5 z"
       style="opacity:1;fill:url(#linearGradient1928);fill-opacity:1;stroke:none;stroke-width:3.77952766;stroke-linecap:round;stroke-linejoin:round;stroke-miterlimit:4;stroke-dasharray:none;stroke-dashoffset:0;stroke-opacity:1" />
  </g>
</svg>
