<svg height="128" viewBox="0 0 33.866666 33.866668" width="128" xmlns="http://www.w3.org/2000/svg" xmlns:xlink="http://www.w3.org/1999/xlink"><linearGradient id="a"><stop offset="0" stop-color="#06f"/><stop offset="1" stop-color="#80b3ff"/></linearGradient><linearGradient id="b" gradientUnits="userSpaceOnUse" x1="28.100309" x2="38.82151" xlink:href="#a" y1="49.390965" y2="-16.774027"/><linearGradient id="c" gradientUnits="userSpaceOnUse" x1="7.861068" x2="9.72821" xlink:href="#a" y1="290.65121" y2="279.02499"/><g transform="translate(0 -263.13332)"><path d="m28.515625 13.095703a25.253813 25.253813 0 0 0 -.015625.001953c.087024 3.076704.049186 1.758826.136719 4.853516.005286.000798.010339.003104.015625.003906-.087689-3.098674-.049541-1.778734-.136719-4.859375zm.136719 4.859375c.685545 24.225302.357481 12.662734 1.074218 37.990234.004914 0-.003807.015879-.013671.023438-.716857-25.344395-.390529-13.776782-1.076172-38.017578-1.158451-.174862-2.326764-.257813-3.501953-.257813-1.428716 0-2.823783.10658-4.201172.332032.298598 14.44351.152458 7.413277.458984 22.240234 0 .00378-.005356.011592-.007812.007813-.306525-14.831895-.16039-7.799846-.458985-22.248047-.774843.12711-1.545904.282981-2.308593.501953-1.980905.558047-3.914485 1.432287-5.625 2.722656-.017273.011339-.033615.027724-.050782.039062-1.597812 1.226949-2.9957241 2.824112-3.9941404 4.658204-.9114595 1.659817-1.5096227 3.454413-1.8164062 5.269531-.2693178 1.615861.0218506 3.276051.8261718 4.703125-.1308774.222614-.390587.354504-.5078124.582031-.0074079.011339-.0161053.027724-.0234376.039063-1.1658689 2.296403-1.5488281 4.708567-1.5488281 7.033203 0 1.949593.3044185 3.924244 1.0097657 5.794922.6875221 1.823433 1.7859434 3.593352 3.2480472 5.021484.019578.018898.040749.03894.060546.058594 1.425682 1.359345 3.157235 2.391201 4.958985 3.041015.044145.015118.08838.030938.132812.044922 1.835926.621884 3.725782.876953 5.595703.876953 2.499686 0 4.965244-.891594 7.279297-2.021484 2.089034 1.158501 4.320087 1.830078 6.326172 1.830078.592435 0 1.181294-.015636 1.837891-.074219.496916-.043086.980892-.098866 1.455078-.169922.592253-.088818 1.129104-.201006 1.623047-.324218.290079-.072567.619017-.154944.990234-.244141 3.225362-.774387 5.497904-3.657582 5.498047-6.974609v-3.574219c-.004913-2.54332-1.35573-4.893111-3.550781-6.177734v-6.697266c0-2.210646-.335652-4.453658-1.203125-6.607422-.832917-2.067931-2.166242-3.994776-3.837891-5.492187-1.667168-1.50618-3.68382-2.616116-5.773437-3.277344-.948468-.300156-1.908492-.505681-2.875-.652344zm-7.726563.070313c.002538-.000417.005275.000415.007813 0-.049719-2.404923-.026674-1.308833-.076172-3.703125a25.253813 25.253813 0 0 0 -.007813.001953c.049455 2.392973.026498 1.29758.076172 3.701172zm2.039063 10.238281h.044922c-.550192.007559-1.072608.158778-1.617188.199219v-.169922zm-5.388672.65625c-.012775.002948-.024335.011845-.03711.015625-.016818.003779-.033992.003542-.050781.007812zm-5.66211 2.472656c-.008655.007559-.012867.015879-.021484.023438-.013795.011338-.031168.012099-.044922.023437zm11.339844 8.171875c.673507.07748 1.93785.451085 2.65625 1.189453l.132813.146485c1.072668 1.164548 1.070312 2.259053 1.070312 2.15625 0-.133796-.024019.366332-.40625 1.173828l-4.480469-4.414063c.347732-.058204.691948-.143102 1.027344-.251953z" fill="url(#b)" transform="matrix(.26458333 0 0 .26458333 0 263.13332)"/><text style="font-size:12.734723;font-family:sans-serif;letter-spacing:0;word-spacing:0;fill:#bfd9ff;stroke-width:.318368" x="3.080761" y="276.56439"><tspan fill="#bfd9ff" font-family="Liberation Sans" font-weight="bold" stroke-width=".318368" x="3.080761" y="276.56439">a</tspan></text><path d="m3.8984375 281.56836a1.7348573 1.7348573 0 0 0 -1.734375 1.73437v7.69141c0 .32679-.00497.60891-.015625.83984a1.7348573 1.7348573 0 0 0 -.00195.0254c-.00773.24737-.017706.43182-.025391.52148a1.7348573 1.7348573 0 0 0 1.7285156 1.88281h1.6972629a1.7348573 1.7348573 0 0 0 .703125-.15039c.1631281.0575.3183092.14077.4863281.17578.3089244.0644.6279559.0996.9492188.0996.6705947 0 1.3561992-.13794 1.96875-.46679.5645971-.30098 1.0624101-.74977 1.4238281-1.28126a1.7348573 1.7348573 0 0 0 .0078-.008c.34256-.51049.574858-1.08365.714843-1.68359.139126-.58229.199232-1.18699.199232-1.8084 0-.61048-.05756-1.2-.185547-1.76757-.132422-.58727-.353451-1.15093-.685547-1.65625-.342579-.53186-.824952-.98739-1.3808591-1.29297-.6058326-.33688-1.2882965-.48047-1.9511719-.48047-.1429734 0-.2729663.087-.4160156.0996v-.74024a1.7348573 1.7348573 0 0 0 -1.734375-1.73437z" fill="url(#c)"/><text style="font-size:12.734723;font-family:sans-serif;letter-spacing:0;word-spacing:0;fill:#bfd9ff;stroke-width:.318368" x="3.009812" y="292.53"><tspan fill="#bfd9ff" font-family="Liberation Sans" font-weight="bold" stroke-width=".318368" x="3.009812" y="292.53">b</tspan></text><g fill="#404040" fill-opacity=".839216" transform="scale(-1 1)"><path d="m-31.856726 269.48331h17.04006v2.116696h-17.04006z"/><path d="m-27.516666 273.71664h12.699999v2.116692h-12.699999z"/><path d="m-31.856724 284.29999h17.04006v2.116696h-17.04006z"/><path d="m-27.516665 288.53333h12.699999v2.116692h-12.699999z"/></g></g></svg>