<?xml version="1.0" encoding="UTF-8" standalone="no"?>
<!-- Created with Inkscape (http://www.inkscape.org/) -->

<svg
   xmlns:dc="http://purl.org/dc/elements/1.1/"
   xmlns:cc="http://creativecommons.org/ns#"
   xmlns:rdf="http://www.w3.org/1999/02/22-rdf-syntax-ns#"
   xmlns:svg="http://www.w3.org/2000/svg"
   xmlns="http://www.w3.org/2000/svg"
   xmlns:xlink="http://www.w3.org/1999/xlink"
   xmlns:sodipodi="http://sodipodi.sourceforge.net/DTD/sodipodi-0.dtd"
   xmlns:inkscape="http://www.inkscape.org/namespaces/inkscape"
   width="128"
   height="128"
   viewBox="0 0 33.866666 33.866668"
   version="1.1"
   id="svg8"
   sodipodi:docname="sc_changecasetolower.svg"
   inkscape:export-filename="/home/rizmut/Dokumen/Rizmut/Github/libreoffice-style-karasa-jaga/build/images_karasa_jaga/cmd/sc_changecasetolower.png"
   inkscape:export-xdpi="12"
   inkscape:export-ydpi="12"
   inkscape:version="0.92.3 (unknown)">
  <defs
     id="defs2">
    <linearGradient
       inkscape:collect="always"
       id="linearGradient4372">
      <stop
         style="stop-color:#0066ff;stop-opacity:1;"
         offset="0"
         id="stop4374" />
      <stop
         style="stop-color:#80b3ff;stop-opacity:1"
         offset="1"
         id="stop4376" />
    </linearGradient>
    <linearGradient
       inkscape:collect="always"
       xlink:href="#linearGradient4372"
       id="linearGradient4507"
       gradientUnits="userSpaceOnUse"
       gradientTransform="matrix(1.3648599,0,0,1.3648599,-302.85836,-97.928698)"
       x1="778.88196"
       y1="289.57986"
       x2="778.88196"
       y2="284.53162" />
    <linearGradient
       inkscape:collect="always"
       xlink:href="#linearGradient4372"
       id="linearGradient4522"
       x1="778"
       y1="295"
       x2="778"
       y2="290"
       gradientUnits="userSpaceOnUse"
       gradientTransform="matrix(1.3574389,0,0,1.3574389,-295.60663,-97.982603)" />
    <linearGradient
       inkscape:collect="always"
       xlink:href="#linearGradient3773"
       id="linearGradient3779"
       x1="418"
       y1="535"
       x2="418"
       y2="528"
       gradientUnits="userSpaceOnUse"
       gradientTransform="translate(-421.17436,-560.81139)" />
    <linearGradient
       id="linearGradient3773">
      <stop
         style="stop-color:#590000;stop-opacity:1"
         offset="0"
         id="stop3775" />
      <stop
         style="stop-color:#bf0000;stop-opacity:1"
         offset="1"
         id="stop3777" />
    </linearGradient>
    <linearGradient
       id="linearGradient3763">
      <stop
         style="stop-color:#ff2222;stop-opacity:1;"
         offset="0"
         id="stop3765" />
      <stop
         style="stop-color:#cd1f00;stop-opacity:1;"
         offset="1"
         id="stop3767" />
    </linearGradient>
    <linearGradient
       inkscape:collect="always"
       xlink:href="#linearGradient3783"
       id="linearGradient3789"
       x1="418"
       y1="529"
       x2="419.31973"
       y2="533.92529"
       gradientUnits="userSpaceOnUse"
       gradientTransform="translate(-421.17436,-562.81139)" />
    <linearGradient
       id="linearGradient3783">
      <stop
         style="stop-color:#ffbfbf;stop-opacity:1;"
         offset="0"
         id="stop3785" />
      <stop
         style="stop-color:#ffbfbf;stop-opacity:0;"
         offset="1"
         id="stop3787" />
    </linearGradient>
    <radialGradient
       inkscape:collect="always"
       xlink:href="#linearGradient3763"
       id="radialGradient997"
       gradientUnits="userSpaceOnUse"
       gradientTransform="matrix(1.5,0,0,1.4,-630.67436,-773.01139)"
       cx="419.15976"
       cy="531.81116"
       fx="419.15976"
       fy="531.81116"
       r="2.5" />
  </defs>
  <sodipodi:namedview
     id="base"
     pagecolor="#ffffff"
     bordercolor="#666666"
     borderopacity="1.0"
     inkscape:pageopacity="0.0"
     inkscape:pageshadow="2"
     inkscape:zoom="1.979899"
     inkscape:cx="57.532062"
     inkscape:cy="60.672471"
     inkscape:document-units="mm"
     inkscape:current-layer="layer1"
     showgrid="true"
     units="px"
     inkscape:window-width="1366"
     inkscape:window-height="706"
     inkscape:window-x="-2"
     inkscape:window-y="0"
     inkscape:window-maximized="0"
     inkscape:object-nodes="false">
    <inkscape:grid
       type="xygrid"
       id="grid14648"
       spacingx="1.0583333"
       spacingy="1.0583333"
       empspacing="2" />
  </sodipodi:namedview>
  <metadata
     id="metadata5">
    <rdf:RDF>
      <cc:Work
         rdf:about="">
        <dc:format>image/svg+xml</dc:format>
        <dc:type
           rdf:resource="http://purl.org/dc/dcmitype/StillImage" />
        <dc:title></dc:title>
      </cc:Work>
    </rdf:RDF>
  </metadata>
  <g
     inkscape:label="Layer 1"
     inkscape:groupmode="layer"
     id="layer1"
     transform="translate(0,-263.13332)">
    <g
       transform="matrix(0,-1.6933338,1.8142855,0,71.926854,265.37807)"
       id="g993">
      <path
         inkscape:connector-curvature="0"
         style="display:inline;fill:none;fill-opacity:1;fill-rule:evenodd;stroke:url(#linearGradient3779);stroke-width:2;stroke-linecap:butt;stroke-linejoin:round;stroke-miterlimit:4;stroke-dasharray:none;stroke-opacity:1"
         d="m -1.1743633,-33.811394 -5,3.5 5,3.5 z"
         id="path987"
         sodipodi:nodetypes="cccc" />
      <path
         inkscape:connector-curvature="0"
         sodipodi:nodetypes="cccc"
         id="path989"
         d="m -1.1743633,-33.811394 -5,3.5 5,3.5 z"
         style="display:inline;fill:url(#radialGradient997);fill-opacity:1;fill-rule:evenodd;stroke:none;stroke-width:1px;stroke-linecap:butt;stroke-linejoin:miter;stroke-opacity:1" />
      <path
         inkscape:connector-curvature="0"
         style="display:inline;fill:url(#linearGradient3789);fill-opacity:1;fill-rule:evenodd;stroke:none;stroke-width:1px;stroke-linecap:butt;stroke-linejoin:miter;stroke-opacity:1"
         d="m -1.1743633,-33.811394 -5,3.5 h 5 z"
         id="path991"
         sodipodi:nodetypes="cccc" />
    </g>
    <path
       inkscape:connector-curvature="0"
       id="path882"
       style="font-style:normal;font-variant:normal;font-weight:normal;font-stretch:normal;font-size:21.74585915px;line-height:125%;font-family:FreeSans;-inkscape-font-specification:FreeSans;letter-spacing:0px;word-spacing:0px;fill:#000000;fill-opacity:1;stroke:none;stroke-width:0.3136422px;stroke-linecap:butt;stroke-linejoin:miter;stroke-opacity:1"
       d="m 0.55378817,287.2595 c 0.0869834,-2.46453 1.60919353,-3.6968 4.56663043,-3.6968 1.4062322,0 2.1918048,0.20816 2.9166668,0.74456 0.7248619,0.5219 1.4674935,1.40041 1.4674935,2.41521 v 6.69773 c 0,0.59439 0.326188,0.89158 0.9785641,0.89158 0.130475,0 0.26095,-0.0145 0.391425,-0.0435 l -0.100226,1.31988 c -0.507403,0.13048 -0.9205747,0.19572 -1.239514,0.19572 -0.5798896,0 -1.3020299,-0.19776 -1.6064719,-0.47321 -0.2899448,-0.26095 -0.4711603,-0.68137 -0.5436465,-1.26126 -1.2177681,1.11629 -2.2280479,1.73447 -3.5907884,1.73447 -1.1452819,0 -2.058608,-0.30444 -2.7399783,-0.91333 -0.66687299,-0.60889 -1.00030949,-1.42798 -1.00030949,-2.45728 0,-0.33344 0.02899448,-0.63788 0.08698344,-0.91333 0.0724862,-0.27545 0.14497239,-0.51465 0.21745859,-0.71761 0.0869834,-0.21746 0.23195583,-0.41317 0.43491718,-0.58714 0.20296132,-0.18847 0.36967958,-0.34069 0.50015478,-0.45666 0.1449724,-0.11598 0.3769282,-0.22471 0.6958675,-0.32619 0.3334365,-0.11598 0.5871381,-0.19571 0.761105,-0.2392 0.1739669,-0.058 0.478409,-0.12324 0.9133261,-0.19572 0.4349172,-0.0725 0.7538565,-0.12323 0.9568178,-0.15222 0.2029614,-0.029 0.2854179,-0.13978 0.8073185,-0.21226 0.7103647,-0.087 1.2032709,-0.2247 1.4787184,-0.41317 0.2754475,-0.18847 0.4131713,-0.47116 0.4131713,-0.84809 v -0.47841 c 0,-0.55089 -0.2247072,-0.97131 -0.6741216,-1.26126 -0.4349172,-0.28995 -0.778324,-0.37488 -1.5901694,-0.37488 -0.8408399,0 -1.4787184,0.16672 -1.9136356,0.50016 -0.4349172,0.31894 -0.6886189,0.82634 -0.7611051,1.52221 z m 3.63155843,6.93693 c 1.0003095,0 1.5394291,-0.32099 2.1773076,-0.84289 0.6378785,-0.5364 0.9568178,-1.10904 0.9568178,-1.71792 v -2.04412 c -0.3624309,0.17397 -0.913326,0.31894 -1.6526853,0.43492 -0.7248619,0.11598 -1.0755173,0.2775 -1.6119152,0.36448 -0.5363979,0.087 -1.0220554,0.2972 -1.4569726,0.63063 -0.4349171,0.31894 -0.6523757,0.76836 -0.6523757,1.34825 0,0.57989 0.1957127,1.0293 0.5871382,1.34824 0.3914254,0.31894 0.9423205,0.47841 1.6526852,0.47841 z"
       sodipodi:nodetypes="cscsssccsccscscccccccccssscscccscsccccsss" />
    <path
       inkscape:connector-curvature="0"
       id="path884"
       style="font-style:normal;font-variant:normal;font-weight:normal;font-stretch:normal;font-size:21.74585915px;line-height:125%;font-family:FreeSans;-inkscape-font-specification:FreeSans;letter-spacing:0px;word-spacing:0px;fill:#000000;fill-opacity:1;stroke:none;stroke-width:0.3136422px;stroke-linecap:butt;stroke-linejoin:miter;stroke-opacity:1"
       d="m 12.7,279.03059 2.116666,-0.0223 v 6.00186 c 0.826343,-1.24677 1.880166,-1.30574 3.402376,-1.30574 1.507714,0 2.295583,0.46958 3.165417,1.54238 0.869835,1.07279 1.304752,2.52977 1.304752,4.37092 0,1.88464 -0.402167,3.16336 -1.300997,4.30864 -0.898828,1.13079 -1.701195,1.763 -3.208908,1.763 -1.551204,0 -2.681269,-0.98055 -3.536607,-2.2853 v 1.45697 L 12.7,294.88332 Z m 5.171108,6.37003 c -0.956817,0 -1.604718,-0.15849 -2.184608,0.65336 -0.579889,0.79735 -0.869834,1.86289 -0.869834,3.19664 0,1.33375 0.337192,2.1703 0.917081,2.98215 0.57989,0.79735 1.227791,1.76043 2.184608,1.76043 0.985813,0 1.382257,-0.46549 1.991141,-1.26284 0.623382,-0.81185 0.887825,-1.62666 0.887825,-2.91691 0,-1.36274 -0.304442,-2.45003 -0.913326,-3.26188 -0.594386,-0.81185 -0.998079,-1.15095 -2.012887,-1.15095 z"
       sodipodi:nodetypes="cccscscsccccscscscscs" />
    <path
       inkscape:connector-curvature="0"
       id="path886"
       style="font-style:normal;font-variant:normal;font-weight:normal;font-stretch:normal;font-size:21.74585915px;line-height:125%;font-family:FreeSans;-inkscape-font-specification:FreeSans;letter-spacing:0px;word-spacing:0px;fill:#000000;fill-opacity:1;stroke:none;stroke-width:0.3136422px;stroke-linecap:butt;stroke-linejoin:miter;stroke-opacity:1"
       d="m 33.776685,287.71616 h -1.826652 c -0.115978,-0.79735 -0.405923,-1.40623 -0.869834,-1.82665 -0.463912,-0.43492 -1.072796,-0.65238 -1.826652,-0.65238 -0.985813,0 -1.594372,0.43933 -2.159764,1.25118 -0.550895,0.79735 -0.826343,1.90639 -0.826343,3.32712 0,1.34824 0.282696,2.40654 0.848089,3.17489 0.565392,0.76836 1.1812,1.11913 2.181509,1.11913 1.551205,0 2.479028,-0.91333 2.78347,-2.73998 h 1.826653 c -0.115978,1.39173 -0.57989,2.47903 -1.391735,3.26188 -0.811846,0.76835 -1.899139,1.15253 -3.261879,1.15253 -1.551205,0 -2.616427,-0.50299 -3.529753,-1.57579 -0.898829,-1.08729 -1.348244,-2.55151 -1.348244,-4.39266 0,-1.88464 0.456663,-3.39235 1.36999,-4.52314 0.927823,-1.13079 1.993046,-1.72959 3.529753,-1.72959 1.319249,0 2.370298,0.35518 3.153149,1.06555 0.797348,0.71037 1.246762,1.73967 1.348243,3.08791 z"
       sodipodi:nodetypes="cccscscscccscscscc" />
  </g>
</svg>
