<?xml version="1.0" encoding="UTF-8" standalone="no"?>
<!-- Created with Inkscape (http://www.inkscape.org/) -->

<svg
   xmlns:dc="http://purl.org/dc/elements/1.1/"
   xmlns:cc="http://creativecommons.org/ns#"
   xmlns:rdf="http://www.w3.org/1999/02/22-rdf-syntax-ns#"
   xmlns:svg="http://www.w3.org/2000/svg"
   xmlns="http://www.w3.org/2000/svg"
   xmlns:xlink="http://www.w3.org/1999/xlink"
   xmlns:sodipodi="http://sodipodi.sourceforge.net/DTD/sodipodi-0.dtd"
   xmlns:inkscape="http://www.inkscape.org/namespaces/inkscape"
   version="1.1"
   id="svg2"
   width="128"
   height="128"
   viewBox="0 0 128 128"
   sodipodi:docname="sc_calloutshapes.cloud-callout.svg"
   inkscape:export-filename="/home/rizmut/Dokumen/Rizmut/Github/libreoffice-style-karasa-jaga/build/images_karasa_jaga/cmd/sc_calloutshapes.cloud-callout.png"
   inkscape:export-xdpi="12"
   inkscape:export-ydpi="12"
   inkscape:version="0.92.3 (unknown)">
  <metadata
     id="metadata8">
    <rdf:RDF>
      <cc:Work
         rdf:about="">
        <dc:format>image/svg+xml</dc:format>
        <dc:type
           rdf:resource="http://purl.org/dc/dcmitype/StillImage" />
        <dc:title></dc:title>
      </cc:Work>
    </rdf:RDF>
  </metadata>
  <defs
     id="defs6">
    <linearGradient
       id="linearGradient3369">
      <stop
         id="stop3372"
         offset="0"
         style="stop-color:#ffffff;stop-opacity:1;" />
      <stop
         style="stop-color:#ffffff;stop-opacity:1;"
         offset="0.59375"
         id="stop3374" />
      <stop
         style="stop-color:#f1f1f1;stop-opacity:1;"
         offset="0.84375"
         id="stop3376" />
      <stop
         id="stop3378"
         offset="0.90625"
         style="stop-color:#eaeaea;stop-opacity:1;" />
      <stop
         id="stop3384"
         offset="1"
         style="stop-color:#dfdfdf;stop-opacity:1;" />
    </linearGradient>
    <linearGradient
       id="linearGradient7422">
      <stop
         style="stop-color:#7c9fcf;stop-opacity:1"
         offset="0"
         id="stop7424" />
      <stop
         id="stop5348"
         offset="0.5"
         style="stop-color:#7c9ece;stop-opacity:1" />
      <stop
         id="stop7426"
         offset="1"
         style="stop-color:#7b9dcf;stop-opacity:1" />
    </linearGradient>
    <linearGradient
       inkscape:collect="always"
       xlink:href="#linearGradient3369"
       id="linearGradient982"
       x1="56"
       y1="128"
       x2="64"
       y2="0"
       gradientUnits="userSpaceOnUse" />
    <linearGradient
       inkscape:collect="always"
       xlink:href="#linearGradient7422"
       id="linearGradient994"
       x1="11.96461"
       y1="62.868782"
       x2="114.45124"
       y2="62.868782"
       gradientUnits="userSpaceOnUse" />
  </defs>
  <sodipodi:namedview
     pagecolor="#ffffff"
     bordercolor="#666666"
     borderopacity="1"
     objecttolerance="10"
     gridtolerance="10"
     guidetolerance="10"
     inkscape:pageopacity="0"
     inkscape:pageshadow="2"
     inkscape:window-width="1366"
     inkscape:window-height="706"
     id="namedview4"
     showgrid="true"
     inkscape:snap-page="true"
     inkscape:snap-global="true"
     inkscape:zoom="2.8284273"
     inkscape:cx="81.094163"
     inkscape:cy="101.62701"
     inkscape:window-x="0"
     inkscape:window-y="0"
     inkscape:window-maximized="1"
     inkscape:current-layer="svg2"
     inkscape:snap-smooth-nodes="true">
    <inkscape:grid
       type="xygrid"
       id="grid27"
       spacingx="8"
       spacingy="8"
       empspacing="2" />
  </sodipodi:namedview>
  <path
     sodipodi:type="inkscape:offset"
     inkscape:radius="8.7299843"
     inkscape:original="M 83.972656 16.441406 C 81.610496 16.445506 79.327353 17.285166 77.525391 18.8125 C 76.154298 17.637376 74.5214 17.007748 72.847656 17.005859 C 69.822758 17.008059 67.045443 19.055081 65.630859 22.328125 C 63.249768 20.881857 60.075754 20.542027 57.058594 21.410156 C 55.213886 21.943768 53.533482 22.899535 52.21875 24.164062 C 49.995317 22.759536 47.391477 21.920454 44.806641 21.775391 C 38.704961 21.444903 34.112172 24.9988 34.207031 29.974609 C 31.003625 31.568889 29.32532 34.566095 29.763672 37.912109 C 29.964544 39.436966 30.597776 40.962804 31.611328 42.369141 C 31.502838 42.357561 31.395429 42.348994 31.287109 42.339844 C 24.760836 41.984567 20.042736 46.055973 20.75 51.433594 C 21.137513 54.359288 23.099679 57.215912 26.095703 59.212891 C 20.916753 63.450875 19.805035 69.646574 23.402344 74.208984 C 25.241352 76.526297 28.12899 78.185047 31.5625 78.894531 C 31.912649 80.037129 32.485391 81.115117 33.259766 82.095703 C 35.357549 84.741027 38.812085 86.515054 42.847656 87.019531 L 42.576172 87.501953 C 41.258762 87.396009 39.936227 87.471772 38.681641 87.722656 C 33.238572 88.819636 30.281332 92.918737 32.074219 96.878906 C 32.608442 98.052826 33.530419 99.126873 34.759766 100.00977 C 34.522756 100.77782 34.31401 101.43914 34.09375 102.08594 C 33.269679 101.95044 32.420577 101.96296 31.625 102.12305 C 28.988402 102.65424 27.555055 104.64043 28.423828 106.55859 C 29.292364 108.4765 32.133144 109.60102 34.769531 109.07031 C 37.406791 108.53962 38.841344 106.55326 37.972656 104.63477 C 37.801455 104.26177 37.549161 103.90853 37.224609 103.58789 L 38.720703 101.8418 C 40.818116 102.40568 43.080376 102.48376 45.177734 102.06445 C 50.622598 100.96801 53.583279 96.86728 51.789062 92.90625 C 51.293719 91.819446 50.46426 90.817152 49.365234 89.972656 L 54.261719 85.507812 C 55.660429 89.520477 59.443907 92.211438 63.693359 92.216797 C 69.215955 92.216638 73.691247 87.739394 73.691406 82.216797 C 73.691077 81.663046 73.646534 81.110536 73.554688 80.564453 C 75.444074 82.603098 78.09546 83.76205 80.875 83.765625 C 86.397596 83.765466 90.87484 79.28822 90.875 73.765625 C 90.8735 72.895406 90.758959 72.029879 90.533203 71.189453 C 93.66595 71.063183 96.798552 69.921677 99.427734 67.949219 C 105.8911 63.084524 107.68018 54.55604 103.42383 48.900391 C 102.59535 47.81039 101.57293 46.880111 100.39453 46.142578 C 103.12152 41.402887 102.98421 35.914406 100.04297 32 C 98.532947 29.998445 96.385104 28.546141 93.865234 27.824219 C 93.933514 27.366166 93.970378 26.904504 93.974609 26.441406 C 93.97445 20.918203 89.49586 16.440706 83.972656 16.441406 z "
     style="opacity:1;fill:url(#linearGradient994);fill-opacity:1.0;stroke:none;stroke-width:4.21601105;stroke-linecap:square;stroke-linejoin:bevel;stroke-miterlimit:4;stroke-dasharray:none;stroke-dashoffset:0;stroke-opacity:0.73039216"
     id="path984"
     d="m 83.957031,7.7109375 c -2.314317,0.00402 -4.581169,0.4609132 -6.708984,1.2832031 -1.41602,-0.4252446 -2.880261,-0.7170454 -4.390625,-0.71875 a 8.7308573,8.7308573 0 0 0 -0.01563,0 c -3.964611,0.00288 -7.437565,1.629537 -10.240235,4.0312504 -2.654671,-0.293923 -5.354488,-0.03399 -7.957031,0.714843 a 8.7308573,8.7308573 0 0 0 -0.01172,0.002 c -1.063949,0.307764 -2.044854,0.811968 -3.041015,1.279296 -2.025965,-0.680045 -4.129849,-1.122525 -6.296875,-1.24414 a 8.7308573,8.7308573 0 0 0 -0.01563,0 c -4.856441,-0.263042 -9.623945,0.971639 -13.4375,3.921875 -2.509905,1.941708 -4.421356,4.808822 -5.470703,8.001953 -2.942704,2.809255 -4.750386,6.696244 -5.126953,10.769531 -1.288788,0.651437 -2.525232,1.410737 -3.642579,2.375 -3.889299,3.356443 -6.225842,8.985833 -5.507812,14.445313 a 8.7308573,8.7308573 0 0 0 0.002,0.0078 c 0.365654,2.76066 1.387251,5.221805 2.787109,7.419922 -2.909382,6.327165 -2.816867,13.930188 1.664063,19.613281 a 8.7308573,8.7308573 0 0 0 0.01758,0.02344 c 2.381776,3.001248 5.50023,5.113084 8.939453,6.484375 0.015,0.02281 0.02982,0.04562 0.04492,0.06836 -2.085424,2.929691 -3.015238,7.008682 -2.414062,10.841797 -0.530071,0.509357 -1.045987,1.04518 -1.503907,1.679688 -2.150838,2.980262 -2.806191,7.814942 -1.160156,11.449222 3.290528,7.26617 9.856862,8.7097 16.021485,7.46875 3.083605,-0.62051 6.119682,-2.16489 8.271484,-5.14453 0.373374,-0.51703 0.636901,-1.14699 0.916016,-1.75977 0.402942,-0.0584 0.806952,-0.0192 1.208984,-0.0996 a 8.7308573,8.7308573 0 0 0 0.01172,-0.002 c 4.487009,-0.90356 8.606502,-3.11827 11.375,-6.95313 0.71162,-0.98572 1.280728,-2.11258 1.716797,-3.3125 1.217928,0.2522 2.41458,0.58824 3.689453,0.58985 a 8.7308573,8.7308573 0 0 0 0.01172,0 c 6.523042,-1.9e-4 12.308152,-3.462099 15.667969,-8.609379 0.503271,0.04167 0.99329,0.157549 1.501953,0.158203 a 8.7308573,8.7308573 0 0 0 0.01172,0 c 8.756511,-2.52e-4 16.186716,-6.224573 18.169922,-14.425782 1.983668,-0.812825 3.884938,-1.836179 5.621098,-3.138671 a 8.7308573,8.7308573 0 0 0 0.0117,-0.0078 c 9.73804,-7.3294 13.19279,-21.238252 5.76563,-31.197266 1.2384,-5.827473 0.29574,-12.02304 -3.42188,-16.970703 a 8.7308573,8.7308573 0 0 0 -0.01,-0.01367 C 105.65353,24.941893 104.00119,23.408655 102.1543,22.169922 100.18307,13.950936 92.740241,7.7098261 83.970703,7.7109375 a 8.7308573,8.7308573 0 0 0 -0.01367,0 z" />
  <path
     inkscape:connector-curvature="0"
     style="opacity:1;fill:url(#linearGradient982);fill-opacity:1;stroke:none;stroke-width:4.21601105;stroke-linecap:square;stroke-linejoin:bevel;stroke-miterlimit:4;stroke-dasharray:none;stroke-dashoffset:0;stroke-opacity:0.73039216"
     d="m 83.973557,16.441832 c -2.36216,0.0041 -4.646622,0.844201 -6.448584,2.371535 -1.371093,-1.175124 -3.003969,-1.806329 -4.677713,-1.808218 -3.024898,0.0022 -5.801171,2.050462 -7.215755,5.323506 -2.381091,-1.446268 -5.555536,-1.786243 -8.572696,-0.918114 -1.844708,0.533612 -3.524818,1.489815 -4.83955,2.754342 -2.223433,-1.404526 -4.826991,-2.243589 -7.411827,-2.388652 -6.10168,-0.330488 -10.695187,3.22186 -10.600328,8.197669 -3.203406,1.59428 -4.88109,4.591783 -4.442738,7.937797 0.200872,1.524857 0.833568,3.051963 1.84712,4.4583 -0.10849,-0.01158 -0.21691,-0.02197 -0.32523,-0.03112 -6.526273,-0.355277 -11.24379,3.716377 -10.536526,9.093998 0.387513,2.925694 2.350823,5.782093 5.346847,7.779072 -5.17895,4.237984 -6.292518,10.433973 -2.695209,14.996383 1.839008,2.317313 4.728368,3.97601 8.161878,4.685494 0.350149,1.142598 0.921803,2.221921 1.696178,3.202507 2.097783,2.645324 5.551719,4.419104 9.58729,4.923581 l -0.270766,0.482397 c -1.31741,-0.105944 -2.638841,-0.03147 -3.893427,0.219414 -5.443069,1.09698 -8.401752,5.19608 -6.608865,9.156249 0.534223,1.17392 1.456526,2.249585 2.685873,3.132478 -0.23701,0.76805 -0.445762,1.42908 -0.666022,2.07588 -0.824071,-0.1355 -1.672439,-0.12269 -2.468016,0.0374 -2.636598,0.53119 -4.069723,2.5168 -3.20095,4.43496 0.868536,1.91791 3.709494,3.0423 6.345881,2.51159 2.63726,-0.53069 4.071194,-2.51647 3.202506,-4.43496 -0.171201,-0.373 -0.423944,-0.72663 -0.748496,-1.04727 l 1.496992,-1.74597 c 2.097413,0.56388 4.359008,0.64183 6.456366,0.22252 5.444864,-1.09644 8.404638,-5.196778 6.610421,-9.157808 C 51.292868,91.819988 50.46435,90.8164 49.365324,89.971904 l 4.897127,-4.464524 c 1.39871,4.012665 5.180669,6.703098 9.430121,6.708457 5.522596,-1.59e-4 9.999505,-4.477067 9.999664,-9.999664 -3.29e-4,-0.553751 -0.04665,-1.106521 -0.138496,-1.652604 1.889386,2.038645 4.542031,3.198931 7.321571,3.202506 5.522596,-1.59e-4 9.999504,-4.477068 9.999664,-9.999663 -0.0015,-0.870219 -0.116592,-1.736518 -0.342348,-2.576944 3.132747,-0.12627 6.265633,-1.267396 8.894815,-3.239854 6.463368,-4.864695 8.252478,-13.392885 3.996128,-19.048534 -0.82848,-1.090001 -1.85137,-2.021477 -3.02977,-2.75901 2.72699,-4.739691 2.59111,-10.227664 -0.35013,-14.14207 -1.510022,-2.001555 -3.657952,-3.453164 -6.177822,-4.175086 0.06828,-0.458053 0.104699,-0.920297 0.10893,-1.383395 -1.59e-4,-5.523203 -4.478017,-10.000363 -10.001221,-9.999663 z"
     id="rect8502-3" />
</svg>
