<svg height="128" width="128" xmlns="http://www.w3.org/2000/svg" xmlns:xlink="http://www.w3.org/1999/xlink"><linearGradient id="a" gradientTransform="matrix(.1133598 0 0 .1691546 80.271445 159.92147)" gradientUnits="userSpaceOnUse" x1="417.76013" x2="417.76013" y1="691.40674" y2="549.52472"><stop offset="0" stop-color="#cbcbcd"/><stop offset=".5" stop-color="#e0e0e2"/><stop offset="1" stop-color="#fff"/></linearGradient><filter id="b"><feGaussianBlur stdDeviation="2.4"/></filter><linearGradient id="c" gradientTransform="matrix(1.25 0 0 1 -65.90716 -7.999997)" gradientUnits="userSpaceOnUse" x1="167.62865" x2="167.62865" y1="340.8761" y2="308.8761"><stop offset="0" stop-color="#cbcbcd"/><stop offset=".66545075" stop-color="#e0e0e2"/><stop offset="1" stop-color="#fff"/></linearGradient><filter id="d" color-interpolation-filters="sRGB" height="1.072142" width="1.071866" x="-.035933" y="-.036071"><feGaussianBlur stdDeviation=".66434216"/></filter><radialGradient id="e" cx="-55.685837" cy="-347.11612" gradientTransform="matrix(-.91762954 -.24587809 .26650439 -.99460792 -14.509941 -705.18366)" gradientUnits="userSpaceOnUse" r="22.14249"><stop offset="0" stop-color="#82c133"/><stop offset="1" stop-color="#72b028"/></radialGradient><linearGradient id="f" gradientUnits="userSpaceOnUse" x1="328.12448" x2="336.98077" y1="120.81158" y2="87.759453"><stop offset="0" stop-color="#96ff00"/><stop offset="1" stop-color="#609800"/></linearGradient><clipPath id="g"><circle cx="343.91208" cy="92.325096" r="36" transform="matrix(.86602539 .50000002 .49999965 -.86602561 0 0)"/></clipPath><filter id="h"><feGaussianBlur stdDeviation="2.8805897"/></filter><radialGradient id="i" cx="343.99899" cy="92" gradientTransform="matrix(.46130197 0 0 .46130166 -219.03541 -372.17548)" gradientUnits="userSpaceOnUse" r="36"><stop offset="0" stop-color="#e5ff00"/><stop offset="1" stop-color="#bff500" stop-opacity="0"/></radialGradient><linearGradient id="j" gradientTransform="matrix(0 .51133072 -.51133109 0 76.138665 324.51289)" gradientUnits="userSpaceOnUse" x1="-80.00296" x2="-45.096584" y1="-131.93112" y2="-131.93112"><stop offset="0" stop-color="#fff"/><stop offset="1" stop-color="#fff" stop-opacity="0"/></linearGradient><linearGradient id="k" gradientUnits="userSpaceOnUse" x1="122.000035" x2="122.000035" y1="61.999997" y2="9.932843"><stop offset="0" stop-color="#314d00" stop-opacity="0"/><stop offset=".5" stop-color="#194d00"/><stop offset="1" stop-color="#2d4d00" stop-opacity="0"/></linearGradient><filter id="l"><feGaussianBlur stdDeviation="1.04"/></filter><g transform="translate(-79.62865 -236.8761)"><rect filter="url(#b)" height="112.96648" opacity=".4" rx="1.85197" ry="2.186269" transform="matrix(1 0 0 .9333333 0 31.525086)" width="120" x="83.628647" y="232.8761"/><path d="m127.09452-17.378991v-2.744803z" fill="#fff" fill-opacity=".756881"/><path d="m-3.5199651-9.995462v-2.744801z" fill="#fff" fill-opacity=".756881"/><path d="m-157.72449-78.387047v-2.744801z" fill="#fff" fill-opacity=".756881"/><path d="m-275.09267-163.47029v-2.74481z" fill="#fff" fill-opacity=".756881"/><path d="m-32.904785-98.88925v-2.7448z" fill="#fff" fill-opacity=".756881"/><path d="m-123.87519-26.315129v-1.499471z" fill="#fff" fill-opacity=".756881"/><path d="m-370.93212-180.84903v-2.74481z" fill="#fff" fill-opacity=".756881"/><path d="m134.39748 143.99333v-2.7448z" fill="#fff" fill-opacity=".756881"/><path d="m-19.807041 75.601739v-2.744814z" fill="#fff" fill-opacity=".756881"/><path d="m-137.17523-9.481505v-2.744815z" fill="#fff" fill-opacity=".756881"/><path d="m105.01266 55.099525v-2.7448z" fill="#fff" fill-opacity=".756881"/><path d="m14.042254 127.67365v-1.49947z" fill="#fff" fill-opacity=".756881"/><path d="m-233.01467-26.860247v-2.744803z" fill="#fff" fill-opacity=".756881"/><path d="m85.781427 92.921911v-2.7448z" fill="#fff" fill-opacity=".756881"/><path d="m-68.423094 24.530324v-2.7448z" fill="#fff" fill-opacity=".756881"/><path d="m-185.79129-60.552919v-2.744805z" fill="#fff" fill-opacity=".756881"/><path d="m56.396609 4.0281236v-2.7448006z" fill="#fff" fill-opacity=".756881"/><path d="m-34.573799 76.60224v-1.499472z" fill="#fff" fill-opacity=".756881"/><path d="m-281.63073-77.931657v-2.744803z" fill="#fff" fill-opacity=".756881"/><path d="m-294.55324 214.46206v-2.74482z" fill="#fff" fill-opacity=".756881"/><path d="m-448.75778 146.07046v-2.7448z" fill="#fff" fill-opacity=".756881"/><path d="m-566.12597 60.987211v-2.7448z" fill="#fff" fill-opacity=".756881"/><path d="m-323.93807 125.56825v-2.7448z" fill="#fff" fill-opacity=".756881"/><path d="m-414.90848 198.14239v-1.49949z" fill="#fff" fill-opacity=".756881"/><path d="m-661.96541 43.608482v-2.744815z" fill="#fff" fill-opacity=".756881"/><path d="m-46.668198 387.70423v-2.7448z" fill="#fff" fill-opacity=".756881"/><path d="m-200.87271 319.31263v-2.7448z" fill="#fff" fill-opacity=".756881"/><path d="m-318.2409 234.22939v-2.7448z" fill="#fff" fill-opacity=".756881"/><path d="m-76.053015 298.81043v-2.7448z" fill="#fff" fill-opacity=".756881"/><path d="m-167.02342 371.38456v-1.49949z" fill="#fff" fill-opacity=".756881"/><path d="m-414.08035 216.85066v-2.74482z" fill="#fff" fill-opacity=".756881"/><path d="m-145.52043 158.31147v-2.74481z" fill="#fff" fill-opacity=".756881"/><path d="m-299.72496 89.919868v-2.7448z" fill="#fff" fill-opacity=".756881"/><path d="m-417.09315 4.8366379v-2.7448144z" fill="#fff" fill-opacity=".756881"/><path d="m-174.90526 69.417668v-2.7448z" fill="#fff" fill-opacity=".756881"/><path d="m-265.87566 141.9918v-1.49949z" fill="#fff" fill-opacity=".756881"/><path d="m-512.93259-12.542105v-2.7448z" fill="#fff" fill-opacity=".756881"/><rect fill="url(#a)" height="96" rx=".000001" width="112" x="87.628647" y="252.8761"/><g fill="#fff" fill-opacity=".756881"><path d="m-143.54882 157.40321v-2.74481z"/><path d="m-297.75334 89.011611v-2.7448z"/><path d="m-415.12153 3.9283664v-2.7448004z"/><path d="m-172.93364 68.509411v-2.7448z"/><path d="m-263.90404 141.08354v-1.49948z"/><path d="m-510.96098-13.450368v-2.744803z"/><path d="m150.52834 105.12275v-2.7448z"/><path d="m19.913855 112.5063v-2.74482z"/><path d="m-134.29067 44.114696v-2.7448z"/><path d="m-251.65886-40.968537v-2.744813z"/><path d="m-9.470964 23.612495v-2.7448z"/><path d="m-100.44137 96.186626v-1.499472z"/><path d="m-347.4983-58.347284v-2.744803z"/><path d="m3.6267808 198.10347v-2.74478z"/><path d="m-113.74141 113.02024v-2.7448z"/><path d="m128.44648 177.60127v-2.74479z"/><path d="m37.476076 250.1754v-1.49947z"/><path d="m-209.58086 95.641497v-2.7448z"/><path d="m-206.82354-138.97944v-3.72627z"/><path d="m-384.14266-128.95572v-3.72628z"/><path d="m-593.48705-221.80252v-3.72628z"/><path d="m-752.82333-337.3095v-3.7263z"/><path d="m-424.03479-249.63583v-3.72628z"/><path d="m-547.53406-151.11092v-2.03565z"/><path d="m-882.93269-360.90247v-3.72629z"/><path d="m-196.9092 80.095797v-3.726272z"/><path d="m-406.2536-12.75101v-3.726278z"/><path d="m-565.58987-128.258v-3.72628z"/><path d="m-236.80134-40.584316v-3.726279z"/><path d="m-360.3006 57.940596v-2.035643z"/><path d="m-695.69923-151.85096v-3.72628z"/><path d="m-262.9092 10.762467v-3.7262862z"/><path d="m-472.25361-82.084343v-3.726278z"/><path d="m-631.58987-197.59134v-3.72628z"/><path d="m-302.80133-109.91765v-3.72628z"/><path d="m-426.3006-11.392744v-2.035647z"/><path d="m-761.69923-221.1843v-3.72628z"/><path d="m-779.24254 175.76247v-3.72629z"/><path d="m-988.58693 82.915668v-3.726286z"/><path d="m-1147.9232-32.591337v-3.726279z"/><path d="m-819.13467 55.082368v-3.726286z"/><path d="m-942.63393 153.60727v-2.03566z"/><path d="m-1278.0326-56.184296v-3.72628z"/><path d="m-442.71968 410.95193v-3.72627z"/><path d="m-652.06407 318.10512v-3.72626z"/><path d="m-811.40034 202.59813v-3.72627z"/><path d="m-482.61181 290.27183v-3.72629z"/><path d="m-606.11107 388.79673v-2.03565z"/><path d="m-941.5097 179.00517v-3.72627z"/><path d="m-576.91912 99.533769v-3.726286z"/><path d="m-786.26353 6.6869665v-3.7262858z"/><path d="m-945.59979-108.82003v-3.72628z"/><path d="m-616.81125-21.146348v-3.726279z"/><path d="m-740.31053 77.378568v-2.035657z"/><path d="m-1075.7091-132.41299v-3.72628z"/><path d="m-574.24251 98.30074v-3.726286z"/><path d="m-783.58691 5.4539236v-3.7262786z"/><path d="m-942.92317-110.05307v-3.72628z"/><path d="m-614.13465-22.379383v-3.726278z"/><path d="m-737.63391 76.14554v-2.035658z"/><path d="m-1073.0325-133.64603v-3.72628z"/><path d="m-175.01034 27.326038v-12.164228 8.437943z"/><path d="m-352.32946 37.349753v-3.726286z"/><path d="m-561.67387-55.497056v-3.726279z"/><path d="m-721.01013-171.00404v-3.7263z"/><path d="m-392.22159-83.330363v-3.72628z"/><path d="m-515.72085 15.194552v-2.035657z"/><path d="m-851.11949-194.59702v-3.72628z"/><path d="m-165.09601 246.40127v-3.72628z"/><path d="m-374.4404 153.55446v-3.72628z"/><path d="m-533.77668 38.047467v-3.726271z"/><path d="m-204.98814 125.72115v-3.72627z"/><path d="m-328.4874 224.24607v-2.03566z"/><path d="m-663.88602 14.45451v-3.726286z"/></g><rect fill-opacity=".16763" height="24.000002" rx=".000002" ry=".000001" width="96" x="95.628647" y="268.8761"/><rect fill="#fff" height="16.000002" rx=".000002" ry="0" width="80" x="103.62865" y="276.8761"/><rect fill-opacity=".375" height="32.000004" rx=".000002" ry=".000001" transform="scale(1 -1)" width="80" x="103.62865" y="-340.8761"/><rect fill="url(#c)" height="24.000002" rx=".000002" ry=".000001" width="80" x="103.62865" y="308.8761"/><text font-family="sans-serif" font-size="26.280231" letter-spacing="0" stroke-width=".657006" word-spacing="0" x="120.83703" y="330.4715"><tspan font-family="FreeSans" font-weight="600" letter-spacing="5" stroke-width=".657006" x="120.83703" y="330.4715">OK</tspan></text><g transform="matrix(1.6750985 0 0 1.6750985 -70.52151 -233.03629)"><ellipse cx="-217.13077" cy="255.38551" fill="none" rx="22.14249" ry="22.142477" stroke-width=".615069" transform="matrix(-.96592586 -.2588189 -.25881915 .9659258 0 0)"/><ellipse cx="-59.830322" cy="-331.66757" fill="#292929" filter="url(#d)" rx="22.14249" ry="22.142477" transform="matrix(-.93421983 .2432797 -.25032328 -.9079328 4.714699 17.679705)"/><ellipse cx="-60.347961" cy="-329.73572" fill="url(#e)" rx="21.035366" ry="21.035353" transform="matrix(-.96592587 .25881888 -.25881888 -.96592587 0 0)"/><circle cx="343.99899" cy="92" r="36" style="opacity:.8;fill:none;stroke-width:6.751382;clip-path:url(#g);stroke:url(#f);filter:url(#h)" transform="matrix(-.56440567 -.15123195 -.151232 .56440527 351.70189 302.97936)"/><ellipse cx="-60.347996" cy="-329.73572" fill="url(#i)" rx="16.606871" ry="16.606859" stroke-width=".461302" transform="matrix(-.96592583 .25881905 -.25881905 -.96592583 0 0)"/><path d="m143.63359 283.60495c-7.85231 0-14.41363 5.54478-15.99508 12.92708 3.15226 2.93856 9.13349 4.92155 15.99508 4.92155 6.86158 0 12.8428-1.98299 15.99506-4.92155-1.58145-7.3823-8.14276-12.92708-15.99506-12.92708z" fill="url(#j)" opacity=".8" stroke-width=".852104"/><path d="m120.01465 21.014613v13h-11.12625v3.970777h11.12625v11.061281h3.97076v-11.061281h11.12626v-3.970777h-11.12626v-13z" style="fill:none;stroke-width:4;stroke-linecap:round;stroke-linejoin:round;stroke:url(#k);filter:url(#l)" transform="matrix(1.2316998 0 0 1.2316998 -6.63385 260.53982)"/><path d="m140.03421 285.26955v13.70421h-13.7042v7.1987h13.7042v13.7042h7.1987v-13.7042h13.70421v-7.1987h-13.70421v-13.70421z" fill="#fff" fill-rule="evenodd"/></g></g></svg>