<?xml version="1.0" encoding="UTF-8" standalone="no"?>
<!-- Created with Inkscape (http://www.inkscape.org/) -->

<svg
   xmlns:dc="http://purl.org/dc/elements/1.1/"
   xmlns:cc="http://creativecommons.org/ns#"
   xmlns:rdf="http://www.w3.org/1999/02/22-rdf-syntax-ns#"
   xmlns:svg="http://www.w3.org/2000/svg"
   xmlns="http://www.w3.org/2000/svg"
   xmlns:xlink="http://www.w3.org/1999/xlink"
   xmlns:sodipodi="http://sodipodi.sourceforge.net/DTD/sodipodi-0.dtd"
   xmlns:inkscape="http://www.inkscape.org/namespaces/inkscape"
   version="1.1"
   id="svg2"
   width="128"
   height="128"
   viewBox="0 0 128 128"
   sodipodi:docname="sc_flowchartshapes.flowchart-direct-access-storage.svg"
   inkscape:export-filename="/home/rizmut/Dokumen/Rizmut/Github/libreoffice-style-karasa-jaga/build/images_karasa_jaga/cmd/sc_flowchartshapes.flowchart-magnetic-disk.png"
   inkscape:export-xdpi="12"
   inkscape:export-ydpi="12"
   inkscape:version="0.92.3 (unknown)">
  <metadata
     id="metadata8">
    <rdf:RDF>
      <cc:Work
         rdf:about="">
        <dc:format>image/svg+xml</dc:format>
        <dc:type
           rdf:resource="http://purl.org/dc/dcmitype/StillImage" />
        <dc:title></dc:title>
      </cc:Work>
    </rdf:RDF>
  </metadata>
  <defs
     id="defs6">
    <inkscape:perspective
       id="perspective27"
       inkscape:persp3d-origin="64 : 42.666667 : 1"
       inkscape:vp_z="128 : 64 : 1"
       inkscape:vp_y="0 : 1000 : 0"
       inkscape:vp_x="0 : 64 : 1"
       sodipodi:type="inkscape:persp3d" />
    <linearGradient
       id="linearGradient3369">
      <stop
         id="stop3372"
         offset="0"
         style="stop-color:#ffffff;stop-opacity:1;" />
      <stop
         style="stop-color:#ffffff;stop-opacity:1;"
         offset="0.42597079"
         id="stop3374" />
      <stop
         style="stop-color:#f1f1f1;stop-opacity:1;"
         offset="0.5892781"
         id="stop3376" />
      <stop
         id="stop3378"
         offset="0.80219781"
         style="stop-color:#eaeaea;stop-opacity:1;" />
      <stop
         id="stop3384"
         offset="1"
         style="stop-color:#dfdfdf;stop-opacity:1;" />
    </linearGradient>
    <linearGradient
       id="linearGradient7422">
      <stop
         style="stop-color:#7c9fcf;stop-opacity:1"
         offset="0"
         id="stop7424" />
      <stop
         id="stop5348"
         offset="0.5"
         style="stop-color:#7c9ece;stop-opacity:1" />
      <stop
         id="stop7426"
         offset="1"
         style="stop-color:#7b9dcf;stop-opacity:1" />
    </linearGradient>
    <linearGradient
       y2="388.95178"
       x2="399.77466"
       y1="1324.7792"
       x1="405.94968"
       gradientTransform="matrix(0.08097132,0,0,0.07807154,182.74486,-6.9021226)"
       gradientUnits="userSpaceOnUse"
       id="linearGradient2330"
       xlink:href="#linearGradient7422"
       inkscape:collect="always" />
    <linearGradient
       inkscape:collect="always"
       xlink:href="#linearGradient3369"
       id="linearGradient38869"
       x1="130.20201"
       y1="67.666222"
       x2="-27.716877"
       y2="67.666222"
       gradientUnits="userSpaceOnUse"
       gradientTransform="matrix(0.9625194,0,0,1,2.3997132,4.6121011)" />
    <linearGradient
       inkscape:collect="always"
       xlink:href="#linearGradient3369"
       id="linearGradient42982"
       x1="54.063766"
       y1="82.953201"
       x2="126.61692"
       y2="-37.254951"
       gradientUnits="userSpaceOnUse"
       gradientTransform="translate(-1.0453119e-6,5.2714856)" />
    <linearGradient
       inkscape:collect="always"
       xlink:href="#linearGradient3369"
       id="linearGradient852"
       x1="130.20201"
       y1="24.25437"
       x2="-19.405359"
       y2="24.25437"
       gradientUnits="userSpaceOnUse"
       gradientTransform="matrix(0.9625194,0,0,1.1000153,2.3997163,-2.4018565)" />
    <linearGradient
       inkscape:collect="always"
       xlink:href="#linearGradient7422"
       id="linearGradient866"
       x1="-0.009765625"
       y1="64.27832"
       x2="128.00977"
       y2="64.27832"
       gradientUnits="userSpaceOnUse" />
  </defs>
  <sodipodi:namedview
     pagecolor="#ffffff"
     bordercolor="#666666"
     borderopacity="1"
     objecttolerance="10"
     gridtolerance="10"
     guidetolerance="10"
     inkscape:pageopacity="0"
     inkscape:pageshadow="2"
     inkscape:window-width="1366"
     inkscape:window-height="706"
     id="namedview4"
     showgrid="true"
     inkscape:snap-page="true"
     inkscape:snap-global="true"
     inkscape:zoom="1.4142136"
     inkscape:cx="-65.252295"
     inkscape:cy="78.652879"
     inkscape:window-x="0"
     inkscape:window-y="0"
     inkscape:window-maximized="1"
     inkscape:current-layer="svg2"
     showguides="false"
     inkscape:snap-smooth-nodes="true">
    <inkscape:grid
       type="xygrid"
       id="grid837"
       spacingx="8"
       spacingy="8"
       empspacing="2" />
  </sodipodi:namedview>
  <g
     id="g894"
     transform="rotate(90,64.000002,64.27832)">
    <path
       id="ellipse850"
       d="M 64,0 C 48.740809,2.6703257e-5 33.635692,1.7282509 22.205078,4.9941406 16.489771,6.6270855 11.665493,8.5700015 7.7207031,11.291016 3.7759132,14.012029 0,18.240413 0,24 v 9.753906 a 8.0110635,8.0110635 0 0 0 -0.00976563,0.248047 v 53.429688 15.890629 1.60156 0.84961 a 8.0110635,8.0110635 0 0 0 0.00390625,0.0859 8.0110635,8.0110635 0 0 0 -0.00390625,0.14257 c 2.79e-6,0.0329 0.01538022,0.0571 0.01562501,0.0899 a 8.0110635,8.0110635 0 0 0 0.3671875,2.11718 c 0.90446442,4.85951 4.40918532,8.17699 7.83593752,10.28125 3.9426586,2.42107 8.6329496,4.10816 14.1796876,5.54883 11.093475,2.88134 25.58518,4.51763 41.611328,4.51758 16.025768,-10e-5 30.517811,-1.63627 41.61133,-4.51758 5.54675,-1.44065 10.237,-3.12783 14.17969,-5.54883 3.52543,-2.16478 7.14655,-5.60572 7.91015,-10.70312 a 8.0110635,8.0110635 0 0 0 0.29102,-1.68359 c 3.1e-4,-0.037 0.0176,-0.0644 0.0176,-0.10157 a 8.0110635,8.0110635 0 0 0 -0.008,-0.19726 8.0110635,8.0110635 0 0 0 0.008,-0.21289 v -0.83985 l -0.008,0.0762 a 8.0110635,8.0110635 0 0 0 0,-0.16796 l 0.008,0.0684 V 34.001953 A 8.0110635,8.0110635 0 0 0 128,33.8125 V 24 c 0,-5.759587 -3.77591,-9.987971 -7.7207,-12.708984 C 116.33451,8.5700015 111.51023,6.6270855 105.79492,4.9941406 94.36431,1.7282509 79.259191,2.6703257e-5 64,0 Z"
       style="opacity:1;fill:url(#linearGradient866);fill-opacity:1;stroke:none;stroke-width:3.88903332;stroke-linecap:round;stroke-linejoin:round;stroke-miterlimit:4;stroke-dasharray:none;stroke-dashoffset:0;stroke-opacity:1"
       inkscape:connector-curvature="0" />
    <path
       sodipodi:nodetypes="ccccccccccccccccc"
       inkscape:connector-curvature="0"
       id="path37359"
       d="M 119.99908,37.455078 C 111.1278,43.644741 94.843237,47.982383 64,48 33.119307,47.974764 12.851077,42.884648 7.999042,37.455078 L 8,87.431641 v 15.890629 1.60156 0.84961 H 8.043239 C 8.02652,105.84954 8.012107,105.92575 8,106.00195 c 6.804e-4,8.03306 25.073065,14.54502 56.000958,14.54493 30.927161,-1.8e-4 55.998392,-6.51206 55.999082,-14.54493 -0.0108,-0.13678 -0.0288,-0.27351 -0.0544,-0.41015 h 0.0544 v -0.83985 c 6.3e-4,-0.003 9.1e-4,-0.007 0.002,-0.01 -6.2e-4,-0.005 -9.1e-4,-0.009 -0.002,-0.0137 z"
       style="fill:url(#linearGradient38869);fill-opacity:1;fill-rule:evenodd;stroke:none;stroke-width:4.38752174;stroke-linecap:round;stroke-linejoin:round;stroke-miterlimit:4;stroke-dasharray:none;stroke-opacity:1" />
    <g
       id="g1544"
       inkscape:label="Livello 1"
       transform="matrix(0,0.57912965,0.57912965,0,27.114229,-2.9133545)" />
    <g
       id="g1599"
       inkscape:label="Livello 1"
       transform="matrix(0,-0.57912965,0.57912965,0,27.114229,130.91165)" />
    <path
       cx="64.000618"
       cy="25.99929"
       rx="58.373665"
       ry="14.755787"
       id="path42947"
       style="opacity:1;fill:url(#linearGradient42982);fill-opacity:1;stroke:none;stroke-width:5.16429853;stroke-linecap:square;stroke-linejoin:bevel;stroke-miterlimit:4;stroke-dasharray:none;stroke-dashoffset:0;stroke-opacity:0.73039216"
       d=""
       inkscape:connector-curvature="0" />
    <g
       transform="translate(0,88)"
       id="g42964" />
    <path
       id="path838"
       style="opacity:1;fill:url(#linearGradient852);fill-opacity:1;stroke:none;stroke-width:3.88903332;stroke-linecap:round;stroke-linejoin:round;stroke-miterlimit:4;stroke-dasharray:none;stroke-dashoffset:0;stroke-opacity:1"
       ry="16"
       rx="56.000343"
       cy="24"
       cx="64.000092" />
  </g>
</svg>
