<?xml version="1.0" encoding="UTF-8" standalone="no"?>
<!-- Created with Inkscape (http://www.inkscape.org/) -->

<svg
   xmlns:dc="http://purl.org/dc/elements/1.1/"
   xmlns:cc="http://creativecommons.org/ns#"
   xmlns:rdf="http://www.w3.org/1999/02/22-rdf-syntax-ns#"
   xmlns:svg="http://www.w3.org/2000/svg"
   xmlns="http://www.w3.org/2000/svg"
   xmlns:xlink="http://www.w3.org/1999/xlink"
   xmlns:sodipodi="http://sodipodi.sourceforge.net/DTD/sodipodi-0.dtd"
   xmlns:inkscape="http://www.inkscape.org/namespaces/inkscape"
   width="128"
   height="128"
   id="svg1307"
   sodipodi:version="0.32"
   inkscape:version="0.92.3 (unknown)"
   version="1.0"
   sodipodi:docname="sc_heading5parastyle.svg"
   inkscape:export-filename="/home/rizmut/Dokumen/Rizmut/Github/libreoffice-style-karasa-jaga/build/images_karasa_jaga/cmd/sc_heading5parastyle.png"
   inkscape:export-xdpi="12.75"
   inkscape:export-ydpi="12.75">
  <defs
     id="defs1309">
    <linearGradient
       id="linearGradient5841">
      <stop
         style="stop-color:black;stop-opacity:0;"
         offset="0"
         id="stop5843" />
      <stop
         id="stop5849"
         offset="0.87912089"
         style="stop-color:black;stop-opacity:0;" />
      <stop
         style="stop-color:black;stop-opacity:1;"
         offset="1"
         id="stop5845" />
    </linearGradient>
    <linearGradient
       id="linearGradient3303">
      <stop
         style="stop-color:#ffffff;stop-opacity:0.68345326;"
         offset="0"
         id="stop3305" />
      <stop
         style="stop-color:#ffffff;stop-opacity:0;"
         offset="1"
         id="stop3307" />
    </linearGradient>
    <linearGradient
       id="linearGradient3273">
      <stop
         style="stop-color:#ffffff;stop-opacity:0.55035973;"
         offset="0"
         id="stop3275" />
      <stop
         style="stop-color:#ffffff;stop-opacity:0;"
         offset="1"
         id="stop3277" />
    </linearGradient>
    <linearGradient
       id="linearGradient3259">
      <stop
         id="stop3261"
         offset="0"
         style="stop-color:#ffffff;stop-opacity:0.55035973;" />
      <stop
         id="stop3263"
         offset="1"
         style="stop-color:#000000;stop-opacity:0;" />
    </linearGradient>
    <linearGradient
       id="linearGradient3225">
      <stop
         style="stop-color:#ffffff;stop-opacity:1;"
         offset="0"
         id="stop3227" />
      <stop
         style="stop-color:#aeaeae;stop-opacity:1;"
         offset="1"
         id="stop3229" />
    </linearGradient>
    <linearGradient
       id="linearGradient3207">
      <stop
         style="stop-color:#ffffff;stop-opacity:1;"
         offset="0"
         id="stop3209" />
      <stop
         style="stop-color:#252525;stop-opacity:0;"
         offset="1"
         id="stop3211" />
    </linearGradient>
    <linearGradient
       id="linearGradient7417">
      <stop
         id="stop7419"
         offset="0.0000000"
         style="stop-color:#ff5900;stop-opacity:1.0000000;" />
      <stop
         id="stop7421"
         offset="1.0000000"
         style="stop-color:#ffff00;stop-opacity:1.0000000;" />
    </linearGradient>
    <linearGradient
       id="linearGradient8197">
      <stop
         id="stop8199"
         offset="0.0000000"
         style="stop-color:#ffffff;stop-opacity:1.0000000;" />
      <stop
         id="stop8201"
         offset="1.0000000"
         style="stop-color:#ffffff;stop-opacity:0.0000000;" />
    </linearGradient>
    <linearGradient
       inkscape:collect="always"
       id="linearGradient4372">
      <stop
         style="stop-color:#0066ff;stop-opacity:1;"
         offset="0"
         id="stop4374" />
      <stop
         style="stop-color:#80b3ff;stop-opacity:1"
         offset="1"
         id="stop4376" />
    </linearGradient>
    <linearGradient
       inkscape:collect="always"
       xlink:href="#linearGradient4372"
       id="linearGradient10226"
       gradientUnits="userSpaceOnUse"
       gradientTransform="matrix(1.3648599,0,0,1.3648599,-302.85836,-97.928698)"
       x1="778.88196"
       y1="289.57986"
       x2="778.88196"
       y2="284.53162" />
    <linearGradient
       inkscape:collect="always"
       xlink:href="#linearGradient4372"
       id="linearGradient10241"
       x1="778"
       y1="295"
       x2="778"
       y2="290"
       gradientUnits="userSpaceOnUse"
       gradientTransform="matrix(1.3574389,0,0,1.3574389,-295.60663,-97.982603)" />
    <linearGradient
       inkscape:collect="always"
       xlink:href="#linearGradient4372"
       id="linearGradient10256"
       x1="779"
       y1="300"
       x2="779"
       y2="295"
       gradientUnits="userSpaceOnUse"
       gradientTransform="matrix(1.3329491,0,0,1.3329491,-274.75405,-93.070223)" />
    <linearGradient
       inkscape:collect="always"
       xlink:href="#linearGradient4372"
       id="linearGradient11165"
       x1="68.149132"
       y1="92.084953"
       x2="97.395569"
       y2="29.936712"
       gradientUnits="userSpaceOnUse" />
    <linearGradient
       inkscape:collect="always"
       xlink:href="#a"
       id="linearGradient970"
       gradientUnits="userSpaceOnUse"
       x1="15.712173"
       y1="294.72055"
       x2="16.933331"
       y2="266.63391" />
    <linearGradient
       id="a"
       gradientUnits="userSpaceOnUse"
       x1="15.712173"
       x2="16.933331"
       y1="294.72055"
       y2="266.63391">
      <stop
         offset="0"
         stop-color="#555"
         id="stop2" />
      <stop
         offset="1"
         id="stop4" />
    </linearGradient>
    <linearGradient
       inkscape:collect="always"
       xlink:href="#b"
       id="linearGradient968"
       x1="34.167969"
       y1="20.28125"
       x2="44.113281"
       y2="80.78125"
       gradientUnits="userSpaceOnUse"
       gradientTransform="matrix(0.26458334,0,0,0.27681548,0,-1.0278082)" />
    <linearGradient
       id="b"
       gradientUnits="userSpaceOnUse"
       x1="15.712174"
       x2="16.933332"
       y1="262.97046"
       y2="288.61478"
       gradientTransform="matrix(0.77923657,0,0,1,-1.6882004,-263.13332)">
      <stop
         offset="0"
         stop-color="#3b3e22"
         id="stop7" />
      <stop
         offset="1"
         stop-color="#454545"
         stop-opacity="0"
         id="stop9" />
    </linearGradient>
    <linearGradient
       inkscape:collect="always"
       xlink:href="#a"
       id="linearGradient3405"
       gradientUnits="userSpaceOnUse"
       x1="15.712173"
       y1="294.72055"
       x2="16.933331"
       y2="266.63391" />
  </defs>
  <sodipodi:namedview
     id="base"
     pagecolor="#ffffff"
     bordercolor="#666666"
     borderopacity="1.0"
     inkscape:pageopacity="0.0"
     inkscape:pageshadow="2"
     inkscape:zoom="1.0010299"
     inkscape:cx="-30.522713"
     inkscape:cy="38.599232"
     inkscape:current-layer="layer1"
     showgrid="true"
     inkscape:document-units="px"
     inkscape:grid-bbox="true"
     guidetolerance="0.1px"
     showguides="false"
     inkscape:guide-bbox="true"
     inkscape:window-width="1366"
     inkscape:window-height="706"
     inkscape:window-x="0"
     inkscape:window-y="0"
     inkscape:window-maximized="1"
     inkscape:snap-global="false">
    <sodipodi:guide
       orientation="horizontal"
       position="32.487481"
       id="guide2204"
       inkscape:locked="false" />
    <inkscape:grid
       type="xygrid"
       id="grid996"
       spacingx="4"
       spacingy="4"
       empspacing="2" />
  </sodipodi:namedview>
  <metadata
     id="metadata1312">
    <rdf:RDF>
      <cc:Work
         rdf:about="">
        <dc:format>image/svg+xml</dc:format>
        <dc:type
           rdf:resource="http://purl.org/dc/dcmitype/StillImage" />
        <cc:license
           rdf:resource="http://creativecommons.org/licenses/GPL/2.0/" />
        <dc:contributor>
          <cc:Agent>
            <dc:title>Oxygen team</dc:title>
          </cc:Agent>
        </dc:contributor>
        <dc:title />
      </cc:Work>
      <cc:License
         rdf:about="http://creativecommons.org/licenses/LGPL/2.1/">
        <cc:permits
           rdf:resource="http://web.resource.org/cc/Reproduction" />
        <cc:permits
           rdf:resource="http://web.resource.org/cc/Distribution" />
        <cc:requires
           rdf:resource="http://web.resource.org/cc/Notice" />
        <cc:permits
           rdf:resource="http://web.resource.org/cc/DerivativeWorks" />
        <cc:requires
           rdf:resource="http://web.resource.org/cc/ShareAlike" />
        <cc:requires
           rdf:resource="http://web.resource.org/cc/SourceCode" />
      </cc:License>
    </rdf:RDF>
  </metadata>
  <g
     id="layer1"
     inkscape:label="Layer 1"
     inkscape:groupmode="layer">
    <g
       transform="matrix(3.7795275,0,0,3.7795275,0,-3.7089403e-6)"
       id="g975">
      <g
         transform="matrix(0.77923657,0,0,1.0462317,-1.6882004,-276.32623)"
         aria-label="H"
         style="font-size:40.61514282px;font-family:sans-serif;letter-spacing:0;word-spacing:0;fill:url(#linearGradient970);stroke-width:1.015378"
         id="text14">
        <path
           d="m 10.287181,279.12636 10.956823,-0.0331 v -8.29166 c 0,-1.53866 -0.213703,-2.5217 -0.641108,-2.9491 -0.427406,-0.4559 -1.467425,-0.75508 -3.120059,-0.89755 v -0.81207 l 13.155149,0.0331 v 0.81207 c -1.652634,0.14247 -2.692653,0.44166 -3.120059,0.89755 -0.427404,0.42741 -0.641107,1.41044 -0.641107,2.9491 v 18.9768 c 0,1.51017 0.22795,2.4932 0.683848,2.94909 0.4559,0.4559 1.481672,0.75508 3.077318,0.89755 v 0.81207 l -13.155149,-0.0331 v -0.81207 c 1.652634,-0.11398 2.692653,-0.41316 3.120059,-0.89755 0.427405,-0.4844 0.641108,-1.62414 0.641108,-3.41924 v -8.3344 l -10.956823,0.0331 v 8.80455 c 0,1.51017 0.22795,2.4932 0.683849,2.94909 0.455899,0.4559 1.481671,0.75508 3.077318,0.89755 v 0.81207 H 2.16648 v -0.81207 c 1.6526339,-0.11397 1.6510401,-0.46477 2.0784453,-0.94917 0.4274054,-0.48439 0.641108,-1.62414 0.641108,-3.41924 v -18.50665 c 0,-1.53866 -0.2137026,-2.52169 -0.641108,-2.9491 -0.4274052,-0.45589 -0.4258114,-0.70346 -2.0784453,-0.84593 v -0.81207 h 11.881868 v 0.81207 c -1.652634,0.14247 -2.692654,0.44166 -3.120059,0.89755 -0.427405,0.42741 -0.641108,1.41044 -0.641108,2.9491 z"
           style="font-size:42.74053192px;font-family:FreeSerif;fill:url(#linearGradient3405);stroke-width:1.015378"
           id="path941"
           inkscape:connector-curvature="0"
           sodipodi:nodetypes="ccsccccccsscccccssccscccccsssccccccsc" />
      </g>
      <path
         inkscape:connector-curvature="0"
         id="path951"
         d="m 2.4256918,2.8070595 c 0.00179,0.0024 0.00131,0.0057 0.0031,0.00811 0.00312,0.00468 0.019834,0.022338 0.022738,0.026492 z m 12.7475422,0.018382 c 0.0045,0.00603 0.0033,0.014498 0.0078,0.020545 0.0053,0.00753 0.01277,0.00644 0.01809,0.014057 z m -9.1529296,0.034601 -0.025838,0.035142 c 0.00532,-0.00762 0.013267,-0.00706 0.018603,-0.014597 0.00444,-0.00604 0.00275,-0.014518 0.00723,-0.020545 z m 12.9273766,0 -0.02584,0.035142 c 0.0053,-0.00762 0.01327,-0.00706 0.0186,-0.014597 0.0044,-0.00604 0.0027,-0.014518 0.0072,-0.020545 z m -3.443717,0.8055762 c 0.380141,0.933898 0.503328,1.9766575 0.503328,3.3282738 v 8.6764345 a 1.1413953,1.5324793 0 0 1 -0.267684,0.985074 1.1413953,1.5324793 0 0 1 0.267684,0.98291 v 0.193015 a 20.108334,11.072619 0 0 0 2.106332,-0.64338 V 7.0290362 c 0,-1.3631457 0.123362,-2.414587 0.513147,-3.3536846 z M 2.7724408,3.6877867 c 0.364006,0.9242202 0.488859,1.9551184 0.488859,3.2877244 V 18.662856 a 20.108334,11.072619 0 0 0 1.9249469,0.159493 V 17.672916 A 1.1413953,1.5324793 0 0 1 5.4544475,16.688382 1.1413953,1.5324793 0 0 1 5.1862467,15.705471 V 7.0290362 c 0,-1.3573811 0.1235573,-2.4047464 0.5084964,-3.3412495 z"
         style="opacity:0.75;fill:url(#linearGradient968);fill-opacity:1;stroke:none;stroke-width:1.57452703;stroke-linecap:round;stroke-linejoin:round;stroke-miterlimit:4;stroke-dasharray:none;stroke-dashoffset:0;stroke-opacity:1" />
    </g>
    <g
       id="g11170"
       transform="translate(-58.201809,-0.22631131)">
      <path
         id="text11151"
         d="M 82.917969,55.970703 A 11.698882,11.698882 0 0 0 71.242188,66.947266 l -1.673829,27.099609 a 11.698882,11.698882 0 0 0 0.341797,3.591797 11.698882,11.698882 0 0 0 -1.605468,8.074218 c 0.47683,2.86099 1.371596,5.67678 2.68164,8.29688 a 11.698882,11.698882 0 0 0 0.0625,0.12304 c 1.497086,2.90863 3.603609,5.5283 6.070313,7.625 a 11.698882,11.698882 0 0 0 0.160156,0.13477 c 2.666275,2.18548 5.70751,3.72754 8.845703,4.76172 a 11.698882,11.698882 0 0 0 0.115234,0.0371 c 3.443139,1.09555 6.971895,1.50781 10.585938,1.50781 4.013378,0 7.976478,-0.55682 11.759768,-1.96094 a 11.698882,11.698882 0 0 0 0.0605,-0.0234 c 3.53366,-1.33412 6.9039,-3.35616 9.6836,-6.09375 a 11.698882,11.698882 0 0 0 0.0625,-0.0625 c 2.66619,-2.66617 4.75619,-5.95809 6.06445,-9.47265 1.30157,-3.46048 1.90625,-7.14195 1.90625,-10.794924 0,-3.487417 -0.50921,-6.98844 -1.68555,-10.330078 -0.88171,-2.521899 -2.27577,-4.883407 -3.92187,-7.072266 a 11.698882,11.698882 0 0 0 2.80469,-7.578125 V 67.667969 A 11.698882,11.698882 0 0 0 111.86328,55.970703 Z m 7.148437,18.015625 c -0.03047,0.01238 -0.05938,0.03243 -0.08984,0.04492 -0.01793,0.0075 -0.03677,0.0081 -0.05469,0.01563 z"
         style="font-style:normal;font-variant:normal;font-weight:bold;font-stretch:normal;font-size:69.98730469px;line-height:125%;font-family:'Liberation Sans';-inkscape-font-specification:'Liberation Sans, Bold';font-variant-ligatures:normal;font-variant-caps:normal;font-variant-numeric:normal;font-feature-settings:normal;text-align:start;letter-spacing:0px;word-spacing:0px;writing-mode:lr-tb;text-anchor:start;fill:url(#linearGradient11165);fill-opacity:1;stroke:none;stroke-width:1.74969089px;stroke-linecap:butt;stroke-linejoin:miter;stroke-opacity:1"
         transform="matrix(0.99978865,0,0,1.0002114,59.865276,0)"
         inkscape:connector-curvature="0" />
      <g
         id="text11147"
         style="font-style:normal;font-variant:normal;font-weight:bold;font-stretch:normal;font-size:69.98730469px;line-height:125%;font-family:'Liberation Sans';-inkscape-font-specification:'Liberation Sans, Bold';font-variant-ligatures:normal;font-variant-caps:normal;font-variant-numeric:normal;font-feature-settings:normal;text-align:start;letter-spacing:0px;word-spacing:0px;writing-mode:lr-tb;text-anchor:start;fill:#ddebff;fill-opacity:1;stroke:none;stroke-width:1.74969089px;stroke-linecap:butt;stroke-linejoin:miter;stroke-opacity:1"
         transform="scale(0.99978865,1.0002114)"
         aria-label="5">
        <path
           id="path11155"
           style="font-style:normal;font-variant:normal;font-weight:bold;font-stretch:normal;font-size:69.98730469px;font-family:'Liberation Sans';-inkscape-font-specification:'Liberation Sans, Bold';font-variant-ligatures:normal;font-variant-caps:normal;font-variant-numeric:normal;font-feature-settings:normal;text-align:start;writing-mode:lr-tb;text-anchor:start;fill:#ddebff;fill-opacity:1;stroke-width:1.74969089px"
           d="m 174.54349,99.791367 q 0,3.622393 -1.16189,6.698003 -1.12773,3.04144 -3.38318,5.29689 -2.25545,2.22128 -5.60445,3.4857 -3.31483,1.23024 -7.68904,1.23024 -4.03247,0 -7.03974,-0.95685 -3.00726,-0.99104 -5.09185,-2.69971 -2.0504,-1.74285 -3.24648,-4.06665 -1.1619,-2.32379 -1.60615,-4.98932 l 9.60275,-0.786 q 0.27339,1.12773 0.75182,2.18711 0.5126,1.05938 1.40111,1.87954 0.88851,0.82016 2.1871,1.33277 1.2986,0.47843 3.14396,0.47843 3.58822,0 5.70698,-2.28963 2.15293,-2.28962 2.15293,-6.595482 0,-1.913715 -0.54678,-3.451522 -0.5126,-1.537807 -1.50363,-2.631359 -0.95686,-1.093552 -2.39215,-1.674501 -1.40111,-0.580949 -3.21231,-0.580949 -2.39214,0 -3.92995,0.922684 -1.5378,0.888511 -2.59718,2.187103 h -9.36354 l 1.6745,-27.099576 h 28.94495 v 7.142259 h -20.23071 l -0.78599,12.165762 q 1.43529,-1.264419 3.62239,-2.15293 2.18711,-0.922684 5.09185,-0.922684 3.55405,0 6.35627,1.161898 2.80223,1.161899 4.75012,3.246482 1.94788,2.084583 2.97309,5.023503 1.0252,2.904746 1.0252,6.458789 z"
           inkscape:connector-curvature="0" />
      </g>
    </g>
  </g>
</svg>
