<svg height="128" width="128" xmlns="http://www.w3.org/2000/svg" xmlns:xlink="http://www.w3.org/1999/xlink"><linearGradient id="a" gradientUnits="userSpaceOnUse" x1="12.31918886574" x2="12.31918886574" y1="-20.73228903462" y2="-2.10053901402"><stop offset="0" stop-color="#06f"/><stop offset="1" stop-color="#80b3ff"/></linearGradient><rect fill="#618fd2" fill-opacity=".091954" height="96" rx=".167734" ry=".18705" width="96" x="16" y="16"/><path d="m56.129654-111.83981h7.870346v8h-7.870346z" fill="#7193c6" transform="rotate(90)"/><use height="128" transform="translate(0 96)" width="128" xlink:href="#b"/><use height="128" transform="translate(104 96)" width="128" xlink:href="#b"/><rect id="b" fill="url(#a)" height="24" rx=".309585" ry=".373932" transform="scale(1 -1)" width="24" y="-24"/><g fill="#7193c6"><path d="m72.129654-111.83981h7.870346v8h-7.870346z" transform="rotate(90)"/><path d="m88.129654-112h7.870346v8h-7.870346z" transform="rotate(90)"/><path d="m104.12965-88h7.870346v8h-7.870346z" transform="rotate(90)"/><path d="m104.12965-72h7.870346v8h-7.870346z" transform="rotate(90)"/><path d="m104.12965-56h7.870346v8h-7.870346z" transform="rotate(90)"/><path d="m104.12965-40h7.870346v8h-7.870346z" transform="rotate(90)"/><path d="m16-88h7.870346v8h-7.870346z" transform="rotate(90)"/><path d="m16-72h7.870346v8h-7.870346z" transform="rotate(90)"/><path d="m16-56h7.870346v8h-7.870346z" transform="rotate(90)"/><path d="m16-40h7.870346v8h-7.870346z" transform="rotate(90)"/><path d="m112.12965-80h7.870346v8h-7.870346z" transform="matrix(-1 0 0 -1 135.99999 16)"/><path d="m112.12965-64h7.870346v8h-7.870346z" transform="matrix(-1 0 0 -1 135.99999 16)"/><path d="m112.12965-48h7.870346v8h-7.870346z" transform="matrix(-1 0 0 -1 135.99999 16)"/><path d="m112.12965-32h7.870346v8h-7.870346z" transform="matrix(-1 0 0 -1 135.99999 16)"/><path d="m24.129654-24h7.870346v8h-7.870346z" transform="rotate(90)"/><path d="m24-112h7.870346v8h-7.870346z" transform="rotate(90)"/><path d="m40-112h7.870346v8h-7.870346z" transform="rotate(90)"/><path d="m16.129654-104h7.870346v8h-7.870346z" transform="rotate(90)"/><path d="m104.12965-104h7.870346v8h-7.870346z" transform="rotate(90)"/></g><use height="128" transform="translate(104)" width="128" xlink:href="#b"/><path d="m41.105469 28.638672a2.8511874 2.8511874 0 0 0 -2.638672 1.773437l-12.683594 31.078125a2.8511874 2.8511874 0 0 0 2.638672 3.929688h4.367187a2.8511874 2.8511874 0 0 0 2.652344-1.808594l2.863282-7.279297h10.271484l2.841797 7.273438a2.8511874 2.8511874 0 0 0 2.65625 1.814453h4.300781a2.8511874 2.8511874 0 0 0 1.917969-.748047 2.8511874 2.8511874 0 0 0 1.919922.748047h12.617187c1.729214 0 3.4071-.183626 5.017578-.560547 1.66791-.390361 3.208414-1.025509 4.5625-1.921875a2.8511874 2.8511874 0 0 0 .02344-.01563c1.398757-.945639 2.5574-2.207689 3.382812-3.681641a2.8511874 2.8511874 0 0 0 .0078-.01367c.890269-1.610962 1.283203-3.466031 1.283203-5.414062 0-1.328946-.228918-2.634503-.701172-3.849609-.470819-1.225546-1.183388-2.348158-2.097656-3.283203-.416308-.42577-.993186-.66016-1.482422-1.003907.11113-.125677.274984-.198073.378906-.330078v-.002c.705671-.892809 1.242119-1.914046 1.580078-3.001953.343308-1.060092.513672-2.176473.513672-3.308594 0-1.674561-.324301-3.288086-1.076172-4.712891-.711171-1.388206-1.794732-2.568174-3.101562-3.425781-1.297377-.851403-2.791889-1.412652-4.419922-1.75-1.592504-.34457-3.319186-.505859-5.195313-.505859h-11.292957a2.8511874 2.8511874 0 0 0 -2.851563 2.851562v25.888722l-10.826172-26.951172a2.8511874 2.8511874 0 0 0 -2.644531-1.789062zm28.171875 9.078125h4.228515c1.862277 0 3.009955.354361 3.46875.642578.303408.190602.384766.15582.384766 1.181641 0 .515704-.07357.880347-.171875 1.144531-.06566.176449-.145012.290495-.322266.447265-.156948.127796-.471208.309295-1.009765.470704-.514285.139467-1.307589.248047-2.34961.248046h-4.228515zm-25.824219 5.400391 1.644531 4.226562h-3.287109zm25.824219 7.722656h5c1.010393 0 1.870535.08954 2.568359.242187a2.8511874 2.8511874 0 0 0 .0098.002c.680579.146587 1.157043.354967 1.490234.572266.295468.192696.433864.35551.5625.607422a2.8511874 2.8511874 0 0 0 .02148.04102c.103643.194849.216796.543922.216796 1.175781 0 .787185-.138293 1.259009-.25 1.482422-.162347.324695-.317458.49354-.576172.666015a2.8511874 2.8511874 0 0 0 -.02344.01758c-.280614.191329-.67607.368755-1.273437.484375a2.8511874 2.8511874 0 0 0 -.0098.002c-.683842.134526-1.485284.208985-2.404297.208985h-5.332031z" fill="#80b3ff" transform="matrix(1.2324272 0 0 1.2324272 -7.579578 -6.347725)"/><text font-family="sans-serif" font-size="55.671906" letter-spacing="0" stroke-width="1.391798" word-spacing="0" x="27.339605" y="70.763176"><tspan font-family="Liberation Sans" stroke-width="1.391798" x="27.339605" y="70.763176">AB</tspan></text></svg>