<?xml version="1.0" encoding="UTF-8" standalone="no"?>
<svg
   xmlns:dc="http://purl.org/dc/elements/1.1/"
   xmlns:cc="http://creativecommons.org/ns#"
   xmlns:rdf="http://www.w3.org/1999/02/22-rdf-syntax-ns#"
   xmlns:svg="http://www.w3.org/2000/svg"
   xmlns="http://www.w3.org/2000/svg"
   xmlns:xlink="http://www.w3.org/1999/xlink"
   xmlns:sodipodi="http://sodipodi.sourceforge.net/DTD/sodipodi-0.dtd"
   xmlns:inkscape="http://www.inkscape.org/namespaces/inkscape"
   height="128"
   viewBox="0 0 33.866666 33.866668"
   width="128"
   version="1.1"
   id="svg20"
   sodipodi:docname="sc_resetattributes.svg"
   inkscape:version="0.92.2 (unknown)"
   inkscape:export-filename="/home/rizmut/Dokumen/Rizmut/Github/libreoffice-style-karasa-jaga/build/images_karasa_jaga/cmd/sc_resetattributes.png"
   inkscape:export-xdpi="12"
   inkscape:export-ydpi="12">
  <metadata
     id="metadata26">
    <rdf:RDF>
      <cc:Work
         rdf:about="">
        <dc:format>image/svg+xml</dc:format>
        <dc:type
           rdf:resource="http://purl.org/dc/dcmitype/StillImage" />
        <dc:title></dc:title>
      </cc:Work>
    </rdf:RDF>
  </metadata>
  <defs
     id="defs24">
    <linearGradient
       inkscape:collect="always"
       xlink:href="#b"
       id="linearGradient1429"
       x1="34.339844"
       y1="39.344727"
       x2="55.925781"
       y2="39.344727"
       gradientUnits="userSpaceOnUse"
       gradientTransform="matrix(0.26458334,0,0,0.26458334,7.1162986,-0.10126626)" />
    <linearGradient
       id="c"
       gradientUnits="userSpaceOnUse"
       x1="-228.6404"
       x2="-311.9765"
       y1="149.28616"
       y2="65.950043">
      <stop
         offset="0"
         stop-color="#bf0303"
         id="stop90" />
      <stop
         offset="1"
         stop-color="#fe9494"
         id="stop92" />
    </linearGradient>
  </defs>
  <sodipodi:namedview
     pagecolor="#ffffff"
     bordercolor="#666666"
     borderopacity="1"
     objecttolerance="10"
     gridtolerance="10"
     guidetolerance="10"
     inkscape:pageopacity="0"
     inkscape:pageshadow="2"
     inkscape:window-width="1366"
     inkscape:window-height="706"
     id="namedview22"
     showgrid="false"
     inkscape:zoom="1.84375"
     inkscape:cx="-39.459489"
     inkscape:cy="48.164021"
     inkscape:window-x="0"
     inkscape:window-y="0"
     inkscape:window-maximized="1"
     inkscape:current-layer="svg20" />
  <linearGradient
     id="a"
     gradientUnits="userSpaceOnUse"
     x1="18.98182359615"
     x2="20.2029811282"
     y1="294.720546641"
     y2="266.6339107115"
     gradientTransform="translate(3.7611663,-263.57652)">
    <stop
       offset="0"
       stop-color="#555"
       id="stop2" />
    <stop
       offset="1"
       id="stop4" />
  </linearGradient>
  <linearGradient
     id="b"
     gradientUnits="userSpaceOnUse"
     x1="35.404884"
     x2="54.657333"
     y1="7.324325"
     y2="81.814293"
     gradientTransform="scale(0.26458333)">
    <stop
       offset="0"
       stop-color="#3b3e22"
       id="stop7" />
    <stop
       offset="1"
       stop-color="#454545"
       stop-opacity="0"
       id="stop9" />
  </linearGradient>
  <g
     id="g1818">
    <text
       style="font-size:40.61514282px;font-family:sans-serif;letter-spacing:0;word-spacing:0;fill:url(#a);stroke-width:1.015378"
       x="8.5561895"
       y="30.893702"
       id="text14">
      <tspan
         font-size="42.740532"
         font-weight="bold"
         x="8.5561895"
         y="30.893702"
         id="tspan12"
         style="font-style:italic;font-variant:normal;font-weight:normal;font-stretch:normal;font-size:42.74053192px;font-family:FreeSerif;-inkscape-font-specification:'FreeSerif Italic';fill:url(#a);stroke-width:1.015378">I</tspan>
    </text>
    <path
       inkscape:connector-curvature="0"
       id="text1416"
       d="m 17.885667,2.9729648 c 0.01393,0.00796 0.0178,0.026892 0.03152,0.03514 0.02526,0.016669 0.05273,0.015556 0.07803,0.033073 z m 4.027662,0.4139282 -0.04909,0.042891 c 0.0091,-0.00837 0.02037,-0.00933 0.02946,-0.01757 0.0089,-0.00768 0.0106,-0.017674 0.01964,-0.025322 z m -2.92592,1.0862385 c 0.119499,0.3449489 0.24598,0.6963719 0.24598,1.0330119 0,0.8934715 -0.193013,1.8701042 -0.5271,3.054594 l -2.50424,9.0020356 a 18.798872,10.332203 0 0 0 1.056783,0.08165 L 20.372337,6.4321851 a 1.4885026,1.4885026 0 0 1 0,-0.00207 c 0.217891,-0.7807736 0.43959,-1.3998279 0.734322,-1.9569867 z"
       style="font-size:40.61514282px;font-family:sans-serif;letter-spacing:0;word-spacing:0;fill:url(#linearGradient1429);fill-opacity:1;stroke-width:1.015378" />
  </g>
  <g
     id="g359"
     transform="matrix(0.15502779,0,0,0.15502779,63.840316,3.9519686)">
    <g
       style="fill-rule:evenodd"
       id="g349">
      <path
         style="fill:#ffffff;stroke:#000000;stroke-width:3;stroke-opacity:0.70658701"
         inkscape:connector-curvature="0"
         id="path343"
         d="m -281.8265,191.44587 -37.8876,-37.88764 22.7143,-22.71429 44.8732,45.28411 -14.9013,14.90128 z" />
      <path
         inkscape:connector-curvature="0"
         id="path345"
         style="fill:url(#c);stroke:#000000;stroke-width:3;stroke-linecap:round;stroke-linejoin:round;stroke-opacity:0.62275498"
         d="m -249.6122,174.89131 -45.9455,-45.94544 45.9455,-45.945425 45.9454,45.945425 z" />
      <path
         style="fill:#ffffff;stroke:#000000;stroke-width:3;stroke-opacity:0.48502999"
         inkscape:connector-curvature="0"
         id="path347"
         d="m -265.2013,160.12404 -15.5891,-15.58909 46.7673,-46.767245 15.589,15.589085 z" />
    </g>
    <path
       style="fill:#9c0f0f;stroke:#9c0f0f;stroke-opacity:0.652695"
       inkscape:connector-curvature="0"
       id="path351"
       d="m -261.5422,144.27001 -3.1391,-3.10289 3.2253,-3.188 0.3329,0.32919 -2.4062,2.37844 1.0074,0.99585 2.0163,-1.99297 0.3288,0.32498 -2.0163,1.99296 1.1369,1.12375 2.5741,-2.54422 0.3329,0.32915 z m 4.337,-4.28665 -3.1394,-3.10287 1.7472,-1.727 c 0.5538,-0.54738 1.0442,-0.90059 1.4709,-1.05963 0.4292,-0.16157 0.7704,-0.11726 1.0236,0.13291 0.4184,0.41371 0.3269,1.09147 -0.2753,2.03318 l 3.3965,-0.45143 -1.0062,0.99457 -2.9696,0.31049 -0.7644,0.75556 1.3278,1.31242 -0.8111,0.80181 m -0.8497,-2.44339 0.2651,-0.26214 c 1.0296,-1.01768 1.3245,-1.74388 0.8848,-2.17856 -0.3237,-0.32005 -0.9173,-0.0535 -1.7805,0.79972 l -0.5148,0.50885 z m 7.6285,-6.63033 -2.3363,-0.36618 0.3667,2.3129 z m 2.0663,0.33086 -1.4976,-0.23894 -2.4453,2.41702 0.2339,1.4879 -0.7604,0.7517 -0.8501,-5.3657 0.8113,-0.80183 5.3934,0.87478 z m 2.9255,-2.7365 c -0.3875,0.38294 -0.9288,0.82706 -1.624,1.33243 l -0.441,-0.43607 c 0.814,-0.48034 1.4302,-0.9274 1.8488,-1.34117 0.3224,-0.31868 0.5352,-0.6198 0.6383,-0.90342 0.1057,-0.28615 0.084,-0.50327 -0.066,-0.65147 -0.1231,-0.12158 -0.2928,-0.16076 -0.509,-0.11755 -0.2135,0.0407 -0.5463,0.17951 -0.9981,0.41651 l -0.5231,0.26946 c -0.6441,0.33478 -1.1347,0.53599 -1.4719,0.60369 -0.3358,0.0637 -0.5936,0.007 -0.7732,-0.17073 -0.2419,-0.23901 -0.2792,-0.59472 -0.1124,-1.06712 0.1654,-0.47382 0.4977,-0.95745 0.9969,-1.45088 0.4447,-0.43944 0.9542,-0.86346 1.5288,-1.27209 l 0.4073,0.40254 c -0.7386,0.47274 -1.2573,0.85693 -1.5563,1.15247 -0.2834,0.28012 -0.4764,0.55193 -0.5789,0.81548 -0.1025,0.26352 -0.092,0.45677 0.033,0.57977 0.1047,0.10345 0.2649,0.12818 0.4808,0.0742 0.2156,-0.054 0.5588,-0.20307 1.0294,-0.4473 l 0.5407,-0.28283 c 0.6533,-0.34109 1.1472,-0.54149 1.4821,-0.60123 0.3347,-0.0597 0.5981,0.005 0.7905,0.19552 0.2729,0.26979 0.3062,0.6702 0.1,1.20118 -0.2039,0.52847 -0.6111,1.09468 -1.222,1.6986 m 3.096,-3.21547 -3.1392,-3.10288 3.2253,-3.18799 0.3329,0.32916 -2.4062,2.37847 1.0073,0.99585 2.0164,-1.99298 0.3288,0.32498 -2.0162,1.99298 1.1369,1.12376 2.574,-2.54423 0.3329,0.32914 z m 4.3368,-4.28663 -3.1392,-3.10289 1.7472,-1.72698 c 0.5538,-0.54739 1.0439,-0.90057 1.4707,-1.05963 0.4295,-0.16157 0.7705,-0.11726 1.0237,0.13293 0.4184,0.41369 0.3267,1.09145 -0.2753,2.03317 l 3.3965,-0.45143 -1.0062,0.99457 -2.9697,0.31047 -0.7644,0.75557 1.3279,1.31242 -0.8112,0.80181 m -0.8496,-2.4434 0.2652,-0.26215 c 1.0294,-1.01768 1.3245,-1.74386 0.8846,-2.17855 -0.3238,-0.32005 -0.9172,-0.0535 -1.7805,0.79972 l -0.5148,0.50886 z" />
    <path
       inkscape:connector-curvature="0"
       id="path353"
       style="fill:#dddddd;fill-rule:evenodd;stroke:#000000;stroke-width:3;stroke-linejoin:round;stroke-opacity:0.70059904"
       d="m -236.5014,70.467545 41.451,41.656495 -0.017,8.20218 -8.9473,8.80624 -45.695,-45.900475 13.2081,-12.76444 z" />
    <path
       style="opacity:0.177778;fill-rule:evenodd"
       inkscape:connector-curvature="0"
       id="path355"
       d="m -236.55281,72.958716 -11.0947,10.478331 14.38202,14.382022 11.30016,-10.889246 z" />
    <path
       style="opacity:0.65555576;fill:#ffffff;fill-rule:evenodd"
       inkscape:connector-curvature="0"
       id="path357"
       d="m -207.9942,101.5173 -11.0947,10.47833 15.2038,14.58748 7.219,-6.9565 -0.1325,-7.94252 z" />
  </g>
</svg>
