<svg height="128" width="128" xmlns="http://www.w3.org/2000/svg" xmlns:xlink="http://www.w3.org/1999/xlink"><linearGradient id="a" gradientTransform="matrix(.1133598 0 0 .1691546 80.271445 159.92147)" gradientUnits="userSpaceOnUse" x1="417.76013" x2="417.76013" y1="691.40674" y2="549.52472"><stop offset="0" stop-color="#cbcbcd"/><stop offset=".5" stop-color="#e0e0e2"/><stop offset="1" stop-color="#fff"/></linearGradient><filter id="b"><feGaussianBlur stdDeviation="2.4"/></filter><linearGradient id="c" gradientTransform="matrix(1.25 0 0 1 -65.90716 -7.999997)" gradientUnits="userSpaceOnUse" x1="167.62865" x2="167.62865" y1="340.8761" y2="308.8761"><stop offset="0" stop-color="#cbcbcd"/><stop offset=".66545075" stop-color="#e0e0e2"/><stop offset="1" stop-color="#fff"/></linearGradient><linearGradient id="d" gradientUnits="userSpaceOnUse" x1="-35.97854611926" x2="-6.57625557637" y1="278.87580455716" y2="278.87580455716"><stop offset="0" stop-color="#ebebeb"/><stop offset=".3164545" stop-color="#cacaca"/><stop offset=".58694273" stop-color="#c7c7c7" stop-opacity=".955882"/><stop offset=".84601915" stop-color="#cacaca"/><stop offset="1" stop-color="#dedede"/></linearGradient><filter id="e" color-interpolation-filters="sRGB" height="1.024" width="1.024" x="-.012" y="-.012"><feGaussianBlur stdDeviation=".12785668"/></filter><linearGradient id="f" gradientUnits="userSpaceOnUse" x1="-20.82258421178" x2="-20.76609140689" y1="267.8255615205" y2="290.41223343259"><stop offset="0" stop-color="#171a1c"/><stop offset="1" stop-color="#8ca0ac"/></linearGradient><radialGradient id="g" cx="63.02887" cy="288.18738" gradientUnits="userSpaceOnUse" r="11.437257"><stop offset="0" stop-color="#7cb5fc"/><stop offset="1" stop-color="#0d5bab"/></radialGradient><filter id="h" color-interpolation-filters="sRGB" height="1.024" width="1.024" x="-.012" y="-.012"><feGaussianBlur stdDeviation=".11169196"/></filter><filter id="i" color-interpolation-filters="sRGB" height="1.023839" width="1.024163" x="-.012082" y="-.01192"><feGaussianBlur stdDeviation=".087289468"/></filter><linearGradient id="j" gradientUnits="userSpaceOnUse" x1="-21.22929322443" x2="-20.8863634812" y1="263.57391016059" y2="272.99211768692"><stop offset="0" stop-color="#fcfcfc"/><stop offset="1" stop-color="#fcfcfc" stop-opacity="0"/></linearGradient><radialGradient id="k" cx="67.73333" cy="277.9501" gradientTransform="matrix(-.8970638 0 0 -.8970638 35.588716 530.96545)" gradientUnits="userSpaceOnUse" r="7.574691"><stop offset="0" stop-color="#bfbfbf"/><stop offset="1" stop-color="#dfdfdf" stop-opacity="0"/></radialGradient><filter id="l" color-interpolation-filters="sRGB" height="1.047739" width="1.048264" x="-.024132" y="-.02387"><feGaussianBlur stdDeviation=".9480859"/></filter><radialGradient id="m" cx="21.27340907379" cy="276.88302469588" gradientUnits="userSpaceOnUse" r="6.79498116803"><stop offset="0" stop-color="#e10000"/><stop offset="1" stop-color="#851400"/></radialGradient><radialGradient id="n" cx="21.27340907379" cy="276.88302469588" gradientUnits="userSpaceOnUse" r="6.79498116803"><stop offset="0" stop-color="#ffbfbf"/><stop offset="1" stop-color="#ffbfbf" stop-opacity="0"/></radialGradient><linearGradient id="o" gradientUnits="userSpaceOnUse" x1="16.52645280471" x2="17.47584234674" y1="277.83243853154" y2="281.63001464096"><stop offset="0" stop-color="#525252"/><stop offset="1" stop-color="#d8d8d8"/></linearGradient><radialGradient id="p" cx="17.52717078726" cy="278.6823772404" gradientUnits="userSpaceOnUse" r="2.42715944662"><stop offset="0" stop-color="#e8e8e8"/><stop offset="1" stop-color="#c7c7c7"/></radialGradient><filter id="q" color-interpolation-filters="sRGB" height="1.08803" width="1.060909" x="-.030454" y="-.044015"><feGaussianBlur stdDeviation=".61981931"/></filter><g transform="translate(-79.62865 -236.8761)"><rect filter="url(#b)" height="112.96648" opacity=".4" rx="1.85197" ry="2.186269" transform="matrix(1 0 0 .9333333 0 31.525086)" width="120" x="83.628647" y="232.8761"/><path d="m127.09452-17.378991v-2.744803z" fill="#fff" fill-opacity=".756881"/><path d="m-3.5199651-9.995462v-2.744801z" fill="#fff" fill-opacity=".756881"/><path d="m-157.72449-78.387047v-2.744801z" fill="#fff" fill-opacity=".756881"/><path d="m-275.09267-163.47029v-2.74481z" fill="#fff" fill-opacity=".756881"/><path d="m-32.904785-98.88925v-2.7448z" fill="#fff" fill-opacity=".756881"/><path d="m-123.87519-26.315129v-1.499471z" fill="#fff" fill-opacity=".756881"/><path d="m-370.93212-180.84903v-2.74481z" fill="#fff" fill-opacity=".756881"/><path d="m134.39748 143.99333v-2.7448z" fill="#fff" fill-opacity=".756881"/><path d="m-19.807041 75.601739v-2.744814z" fill="#fff" fill-opacity=".756881"/><path d="m-137.17523-9.481505v-2.744815z" fill="#fff" fill-opacity=".756881"/><path d="m105.01266 55.099525v-2.7448z" fill="#fff" fill-opacity=".756881"/><path d="m14.042254 127.67365v-1.49947z" fill="#fff" fill-opacity=".756881"/><path d="m-233.01467-26.860247v-2.744803z" fill="#fff" fill-opacity=".756881"/><path d="m85.781427 92.921911v-2.7448z" fill="#fff" fill-opacity=".756881"/><path d="m-68.423094 24.530324v-2.7448z" fill="#fff" fill-opacity=".756881"/><path d="m-185.79129-60.552919v-2.744805z" fill="#fff" fill-opacity=".756881"/><path d="m56.396609 4.0281236v-2.7448006z" fill="#fff" fill-opacity=".756881"/><path d="m-34.573799 76.60224v-1.499472z" fill="#fff" fill-opacity=".756881"/><path d="m-281.63073-77.931657v-2.744803z" fill="#fff" fill-opacity=".756881"/><path d="m-294.55324 214.46206v-2.74482z" fill="#fff" fill-opacity=".756881"/><path d="m-448.75778 146.07046v-2.7448z" fill="#fff" fill-opacity=".756881"/><path d="m-566.12597 60.987211v-2.7448z" fill="#fff" fill-opacity=".756881"/><path d="m-323.93807 125.56825v-2.7448z" fill="#fff" fill-opacity=".756881"/><path d="m-414.90848 198.14239v-1.49949z" fill="#fff" fill-opacity=".756881"/><path d="m-661.96541 43.608482v-2.744815z" fill="#fff" fill-opacity=".756881"/><path d="m-46.668198 387.70423v-2.7448z" fill="#fff" fill-opacity=".756881"/><path d="m-200.87271 319.31263v-2.7448z" fill="#fff" fill-opacity=".756881"/><path d="m-318.2409 234.22939v-2.7448z" fill="#fff" fill-opacity=".756881"/><path d="m-76.053015 298.81043v-2.7448z" fill="#fff" fill-opacity=".756881"/><path d="m-167.02342 371.38456v-1.49949z" fill="#fff" fill-opacity=".756881"/><path d="m-414.08035 216.85066v-2.74482z" fill="#fff" fill-opacity=".756881"/><path d="m-145.52043 158.31147v-2.74481z" fill="#fff" fill-opacity=".756881"/><path d="m-299.72496 89.919868v-2.7448z" fill="#fff" fill-opacity=".756881"/><path d="m-417.09315 4.8366379v-2.7448144z" fill="#fff" fill-opacity=".756881"/><path d="m-174.90526 69.417668v-2.7448z" fill="#fff" fill-opacity=".756881"/><path d="m-265.87566 141.9918v-1.49949z" fill="#fff" fill-opacity=".756881"/><path d="m-512.93259-12.542105v-2.7448z" fill="#fff" fill-opacity=".756881"/><rect fill="url(#a)" height="96" rx=".000001" width="112" x="87.628647" y="252.8761"/><g fill="#fff" fill-opacity=".756881"><path d="m-143.54882 157.40321v-2.74481z"/><path d="m-297.75334 89.011611v-2.7448z"/><path d="m-415.12153 3.9283664v-2.7448004z"/><path d="m-172.93364 68.509411v-2.7448z"/><path d="m-263.90404 141.08354v-1.49948z"/><path d="m-510.96098-13.450368v-2.744803z"/><path d="m150.52834 105.12275v-2.7448z"/><path d="m19.913855 112.5063v-2.74482z"/><path d="m-134.29067 44.114696v-2.7448z"/><path d="m-251.65886-40.968537v-2.744813z"/><path d="m-9.470964 23.612495v-2.7448z"/><path d="m-100.44137 96.186626v-1.499472z"/><path d="m-347.4983-58.347284v-2.744803z"/><path d="m3.6267808 198.10347v-2.74478z"/><path d="m-113.74141 113.02024v-2.7448z"/><path d="m128.44648 177.60127v-2.74479z"/><path d="m37.476076 250.1754v-1.49947z"/><path d="m-209.58086 95.641497v-2.7448z"/><path d="m-206.82354-138.97944v-3.72627z"/><path d="m-384.14266-128.95572v-3.72628z"/><path d="m-593.48705-221.80252v-3.72628z"/><path d="m-752.82333-337.3095v-3.7263z"/><path d="m-424.03479-249.63583v-3.72628z"/><path d="m-547.53406-151.11092v-2.03565z"/><path d="m-882.93269-360.90247v-3.72629z"/><path d="m-196.9092 80.095797v-3.726272z"/><path d="m-406.2536-12.75101v-3.726278z"/><path d="m-565.58987-128.258v-3.72628z"/><path d="m-236.80134-40.584316v-3.726279z"/><path d="m-360.3006 57.940596v-2.035643z"/><path d="m-695.69923-151.85096v-3.72628z"/><path d="m-262.9092 10.762467v-3.7262862z"/><path d="m-472.25361-82.084343v-3.726278z"/><path d="m-631.58987-197.59134v-3.72628z"/><path d="m-302.80133-109.91765v-3.72628z"/><path d="m-426.3006-11.392744v-2.035647z"/><path d="m-761.69923-221.1843v-3.72628z"/><path d="m-779.24254 175.76247v-3.72629z"/><path d="m-988.58693 82.915668v-3.726286z"/><path d="m-1147.9232-32.591337v-3.726279z"/><path d="m-819.13467 55.082368v-3.726286z"/><path d="m-942.63393 153.60727v-2.03566z"/><path d="m-1278.0326-56.184296v-3.72628z"/><path d="m-442.71968 410.95193v-3.72627z"/><path d="m-652.06407 318.10512v-3.72626z"/><path d="m-811.40034 202.59813v-3.72627z"/><path d="m-482.61181 290.27183v-3.72629z"/><path d="m-606.11107 388.79673v-2.03565z"/><path d="m-941.5097 179.00517v-3.72627z"/><path d="m-576.91912 99.533769v-3.726286z"/><path d="m-786.26353 6.6869665v-3.7262858z"/><path d="m-945.59979-108.82003v-3.72628z"/><path d="m-616.81125-21.146348v-3.726279z"/><path d="m-740.31053 77.378568v-2.035657z"/><path d="m-1075.7091-132.41299v-3.72628z"/><path d="m-574.24251 98.30074v-3.726286z"/><path d="m-783.58691 5.4539236v-3.7262786z"/><path d="m-942.92317-110.05307v-3.72628z"/><path d="m-614.13465-22.379383v-3.726278z"/><path d="m-737.63391 76.14554v-2.035658z"/><path d="m-1073.0325-133.64603v-3.72628z"/><path d="m-175.01034 27.326038v-12.164228 8.437943z"/><path d="m-352.32946 37.349753v-3.726286z"/><path d="m-561.67387-55.497056v-3.726279z"/><path d="m-721.01013-171.00404v-3.7263z"/><path d="m-392.22159-83.330363v-3.72628z"/><path d="m-515.72085 15.194552v-2.035657z"/><path d="m-851.11949-194.59702v-3.72628z"/><path d="m-165.09601 246.40127v-3.72628z"/><path d="m-374.4404 153.55446v-3.72628z"/><path d="m-533.77668 38.047467v-3.726271z"/><path d="m-204.98814 125.72115v-3.72627z"/><path d="m-328.4874 224.24607v-2.03566z"/><path d="m-663.88602 14.45451v-3.726286z"/></g><rect fill-opacity=".16763" height="24.000002" rx=".000002" ry=".000001" width="96" x="95.628647" y="268.8761"/><rect fill="#fff" height="16.000002" rx=".000002" ry="0" width="80" x="103.62865" y="276.8761"/><rect fill-opacity=".375" height="32.000004" rx=".000002" ry=".000001" transform="scale(1 -1)" width="80" x="103.62865" y="-340.8761"/><rect fill="url(#c)" height="24.000002" rx=".000002" ry=".000001" width="80" x="103.62865" y="308.8761"/><text font-family="sans-serif" font-size="26.280231" letter-spacing="0" stroke-width=".657006" word-spacing="0" x="120.83703" y="330.4715"><tspan font-family="FreeSans" font-weight="600" letter-spacing="5" stroke-width=".657006" x="120.83703" y="330.4715">OK</tspan></text><g transform="matrix(2.7536568 0 0 2.7536568 221.41475 -487.21187)"><circle cx="-21.277401" cy="278.87579" fill="#3d3d3d" r="15.851751"/><circle cx="-21.277401" cy="278.87579" fill="url(#d)" r="14.701143"/><circle cx="62.895233" cy="281.23837" fill="#f0f3f4" filter="url(#e)" r="12.785668" transform="matrix(.96340898 0 0 .96340898 -81.871236 7.928216)"/><circle cx="-21.277401" cy="278.87579" fill="url(#f)" r="10.520621"/><circle cx="62.895233" cy="281.23837" fill="url(#g)" filter="url(#h)" r="11.169196" transform="matrix(.85181634 0 0 .85181634 -74.852588 39.312354)"/><path d="m68.953232 290.2807-1.443425-4.75293c1.416094-1.66975 1.823029-3.9728 1.064875-6.02671l2.979396-3.96944-4.746321 1.45286c-1.669825-1.41586-3.972826-1.82258-6.026605-1.06431l-4.134512-3.21514 1.617929 4.98206c-1.41584 1.66963-1.822725 3.9724-1.064771 6.02613l-2.985837 3.96023 4.752927-1.44343c1.669699 1.41602 3.972653 1.82293 6.02652 1.06485zm-3.668966-5.25007c-1.890643 1.32376-4.496438.8642-5.820182-1.02645-1.323703-1.89056-.864252-4.49622 1.026222-5.82003 1.890562-1.32389 4.496384-.8645 5.820259 1.02606 1.323953 1.89065.864456 4.49661-1.026299 5.82042z" fill="#326fb6" filter="url(#i)" transform="matrix(.89706381 0 0 .89706381 -77.698439 26.587027)"/><g transform="matrix(.34497904 .34497904 -.34497904 .34497904 22.172374 131.96641)"><path d="m169.10577 279.56256-8.05633-4.30293c-.32979-4.01212-2.79507-7.53557-6.45124-9.22028l-1.28722-9.03467-4.28206 8.06c-4.01193.33019-7.53503 2.79568-9.21941 6.45183l-9.55581 1.19534 8.58112 4.37395c.32997 4.01164 2.79494 7.53465 6.45062 9.21939l1.26687 9.03107 4.30292-8.05632c4.01196-.32983 7.53525-2.79501 9.21999-6.45103zm-11.59628-2.05571c-.73704 4.17928-4.72253 6.96975-8.9018 6.23267-4.17909-.73701-6.96953-4.72218-6.23277-8.9013.73677-4.17934 4.72207-6.97007 8.90139-6.23328 4.17954.73681 6.97031 4.72243 6.23318 8.90191z" fill="#dbe8f9"/><path d="m566.44336 16.882812a31.567267 31.567267 0 0 0 -31.56836 31.56836 31.567267 31.567267 0 0 0 31.56836 31.566406 31.567267 31.567267 0 0 0 31.56641-31.566406 31.567267 31.567267 0 0 0 -31.56641-31.56836zm0 2.525391a29.041884 29.041884 0 0 1 29.04102 29.042969 29.041884 29.041884 0 0 1 -29.04102 29.041016 29.041884 29.041884 0 0 1 -29.04297-29.041016 29.041884 29.041884 0 0 1 29.04297-29.042969z" fill="#f7fcfe" transform="matrix(.26458333 0 0 .26458333 0 263.13332)"/></g><path d="m-21.27726 264.35938a12.06508 6.2629251 0 0 0 -3.882316.33979 14.701143 14.701143 0 0 0 -8.172866 5.77299 12.06508 6.2629251 0 0 0 -.01019.15048 12.06508 6.2629251 0 0 0 1.592632 3.09401 11.688499 11.688499 0 0 1 10.472742-6.52926 11.688499 11.688499 0 0 1 10.48051 6.52829 12.06508 6.2629251 0 0 0 1.584381-3.09304 12.06508 6.2629251 0 0 0 -.0131-.13543 14.701143 14.701143 0 0 0 -8.322856-5.81328 12.06508 6.2629251 0 0 0 -3.728928-.31455z" fill="url(#j)"/><path d="m-32.244837 290.08909 13.589961-9.23499-2.080013-2.08001z" fill="url(#k)"/><g transform="matrix(1.3635575 0 0 1.3635575 -44.381938 -102.89406)"><path d="m285.0332 23.582031-57.25586 38.908203 10.08985 10.091797-47.125 46.326169 57.25781-38.9082-.77734-.777344z" fill="#1c0f0f" filter="url(#l)" transform="matrix(.23734813 0 0 .23734813 -38.234181 264.05174)"/><path d="m28.345842 268.42042-13.589964 9.23498 4.354979 4.35499z" fill="url(#m)"/><path d="m5.5208237 291.24544 9.2349853-13.58997 4.354978 4.35498z" fill="#e8e8e8"/><path d="m26.656733 269.80571-11.593498 7.87909 1.774854 1.7731z" fill="url(#n)"/><circle cx="16.933331" cy="279.83292" fill="url(#o)" r="2.598824"/><circle cx="16.933331" cy="279.83292" fill="url(#p)" r="2.427159"/><circle cx="16.933331" cy="279.83292" fill="#555" r="1.1984"/><path d="m278.68164 26.181641-48.8457 33.197265.60156.59961 44.91797-30.527344z" fill="#fefefe" filter="url(#q)" transform="matrix(.23734813 0 0 .23734813 -39.487706 263.59154)"/></g></g></g></svg>