<?xml version="1.0" encoding="UTF-8" standalone="no"?>
<!-- Created with Inkscape (http://www.inkscape.org/) -->

<svg
   xmlns:dc="http://purl.org/dc/elements/1.1/"
   xmlns:cc="http://creativecommons.org/ns#"
   xmlns:rdf="http://www.w3.org/1999/02/22-rdf-syntax-ns#"
   xmlns:svg="http://www.w3.org/2000/svg"
   xmlns="http://www.w3.org/2000/svg"
   xmlns:xlink="http://www.w3.org/1999/xlink"
   xmlns:sodipodi="http://sodipodi.sourceforge.net/DTD/sodipodi-0.dtd"
   xmlns:inkscape="http://www.inkscape.org/namespaces/inkscape"
   width="128"
   height="128"
   viewBox="0 0 33.866666 33.866668"
   version="1.1"
   id="svg8"
   inkscape:version="0.92.3 (unknown)"
   sodipodi:docname="sc_solverdialog.svg"
   inkscape:export-filename="/home/rizmut/Dokumen/Rizmut/Github/libreoffice-style-karasa-jaga/build/images_karasa_jaga/cmd/sc_solverdialog.png"
   inkscape:export-xdpi="12"
   inkscape:export-ydpi="12">
  <defs
     id="defs2">
    <radialGradient
       id="f"
       cx="72.309822"
       cy="22.770975"
       gradientTransform="matrix(0.34106924,0.00164862,-1.0474589e-4,0.02167024,43.194434,234.33399)"
       gradientUnits="userSpaceOnUse"
       r="35.712891"
       xlink:href="#a" />
    <linearGradient
       id="a">
      <stop
         offset="0"
         stop-color="#fff"
         id="stop2" />
      <stop
         offset="1"
         stop-color="#fff"
         stop-opacity="0"
         id="stop4" />
    </linearGradient>
    <linearGradient
       gradientTransform="matrix(0.26458333,0,0,0.26458333,48.683332,233.5)"
       id="c"
       gradientUnits="userSpaceOnUse"
       x1="78.223663"
       x2="95.309601"
       y1="119.98714"
       y2="62.626804">
      <stop
         offset="0"
         stop-color="#5e5e5e"
         id="stop8" />
      <stop
         offset="1"
         stop-opacity="0"
         id="stop10" />
    </linearGradient>
    <linearGradient
       gradientTransform="matrix(0.26458333,0,0,0.26458333,48.683332,233.5)"
       id="b"
       gradientUnits="userSpaceOnUse"
       x1="25.515633"
       x2="82.713898"
       xlink:href="#a"
       y1="-93.076469"
       y2="59.479324" />
    <linearGradient
       gradientTransform="translate(-28.374051,-5.2664335)"
       id="d"
       gradientUnits="userSpaceOnUse"
       x1="90.739548"
       x2="96.131233"
       xlink:href="#a"
       y1="12.071719"
       y2="2.349" />
    <filter
       id="e"
       height="1.317541"
       width="1.244662"
       x="-0.122331"
       y="-0.15876999">
      <feGaussianBlur
         stdDeviation=".27482165"
         id="feGaussianBlur14" />
    </filter>
    <linearGradient
       gradientTransform="matrix(0.26458333,0,0,0.26458333,48.683332,233.5)"
       id="g"
       gradientUnits="userSpaceOnUse"
       x1="101.04345"
       x2="64.526085"
       xlink:href="#a"
       y1="72.676468"
       y2="-60.538036" />
    <linearGradient
       gradientTransform="translate(-28.374051,-5.2664335)"
       id="h"
       gradientUnits="userSpaceOnUse"
       x1="88.009483"
       x2="95.687553"
       xlink:href="#a"
       y1="145.50327"
       y2="62.626804" />
    <filter
       style="color-interpolation-filters:sRGB"
       id="i"
       height="1.005726"
       width="1.009696"
       x="-0.0048480001"
       y="-0.0028629999">
      <feGaussianBlur
         stdDeviation=".12613919"
         id="feGaussianBlur20" />
    </filter>
    <linearGradient
       id="linearGradient4118">
      <stop
         id="stop4120"
         offset="0"
         style="stop-color:#e0f4b8;stop-opacity:1" />
      <stop
         id="stop4122"
         offset="1"
         style="stop-color:#92c441;stop-opacity:0.21459228" />
    </linearGradient>
    <linearGradient
       id="linearGradient4112">
      <stop
         id="stop4114"
         offset="0"
         style="stop-color:#bbf10e;stop-opacity:1" />
      <stop
         id="stop4116"
         offset="1"
         style="stop-color:#5f9207;stop-opacity:1" />
    </linearGradient>
    <linearGradient
       id="linearGradient4105">
      <stop
         id="stop4107"
         offset="0"
         style="stop-color:#033a13;stop-opacity:1" />
      <stop
         id="stop4109"
         offset="1"
         style="stop-color:#398c37;stop-opacity:1" />
    </linearGradient>
    <radialGradient
       inkscape:collect="always"
       xlink:href="#linearGradient4105"
       id="radialGradient4699"
       cx="429"
       cy="272"
       fx="429"
       fy="272"
       r="4"
       gradientUnits="userSpaceOnUse"
       gradientTransform="matrix(0.33814049,0,0,0.33814049,-137.38935,200.79244)" />
    <linearGradient
       inkscape:collect="always"
       xlink:href="#linearGradient4112"
       id="linearGradient4697"
       x1="429.30026"
       y1="273.82983"
       x2="429.30026"
       y2="271.99973"
       gradientUnits="userSpaceOnUse"
       gradientTransform="matrix(0.26458333,0,0,0.26458333,-105.83333,220.79998)" />
    <linearGradient
       gradientTransform="matrix(0.26458333,0,0,0.26458333,-105.83333,220.79998)"
       inkscape:collect="always"
       xlink:href="#linearGradient4118"
       id="linearGradient4703"
       gradientUnits="userSpaceOnUse"
       x1="430"
       y1="269"
       x2="430"
       y2="275.0867" />
    <radialGradient
       inkscape:collect="always"
       xlink:href="#linearGradient4126"
       id="radialGradient4128"
       cx="499.27826"
       cy="92.140617"
       fx="499.27826"
       fy="92.140617"
       r="29.834906"
       gradientTransform="matrix(0.9546372,-0.06061994,0.07329472,1.1542384,15.89524,16.054601)"
       gradientUnits="userSpaceOnUse" />
    <linearGradient
       inkscape:collect="always"
       id="linearGradient4126">
      <stop
         style="stop-color:#0069c4;stop-opacity:1"
         offset="0"
         id="stop4122-3" />
      <stop
         style="stop-color:#0059a7;stop-opacity:1"
         offset="1"
         id="stop4124" />
    </linearGradient>
    <linearGradient
       inkscape:collect="always"
       xlink:href="#linearGradient1791"
       id="linearGradient4147"
       x1="503.24423"
       y1="47.628471"
       x2="497.52887"
       y2="86.970459"
       gradientUnits="userSpaceOnUse" />
    <linearGradient
       inkscape:collect="always"
       id="linearGradient1791">
      <stop
         style="stop-color:#ffffff;stop-opacity:1"
         offset="0"
         id="stop1787" />
      <stop
         style="stop-color:#fcf3f3;stop-opacity:0;"
         offset="1"
         id="stop1789" />
    </linearGradient>
    <linearGradient
       inkscape:collect="always"
       xlink:href="#linearGradient1791"
       id="linearGradient4160"
       x1="497.28656"
       y1="138.79289"
       x2="496.11801"
       y2="155.81139"
       gradientUnits="userSpaceOnUse"
       gradientTransform="translate(0,7.3700958)" />
  </defs>
  <sodipodi:namedview
     id="base"
     pagecolor="#ffffff"
     bordercolor="#666666"
     borderopacity="1.0"
     inkscape:pageopacity="0.0"
     inkscape:pageshadow="2"
     inkscape:zoom="3.959798"
     inkscape:cx="71.447334"
     inkscape:cy="53.972747"
     inkscape:document-units="mm"
     inkscape:current-layer="g1597"
     showgrid="true"
     units="px"
     inkscape:window-width="1366"
     inkscape:window-height="706"
     inkscape:window-x="0"
     inkscape:window-y="0"
     inkscape:window-maximized="1"
     inkscape:snap-global="false">
    <inkscape:grid
       type="xygrid"
       id="grid1414"
       spacingx="1.0583333"
       spacingy="1.0583333"
       empspacing="2" />
  </sodipodi:namedview>
  <metadata
     id="metadata5">
    <rdf:RDF>
      <cc:Work
         rdf:about="">
        <dc:format>image/svg+xml</dc:format>
        <dc:type
           rdf:resource="http://purl.org/dc/dcmitype/StillImage" />
        <dc:title></dc:title>
      </cc:Work>
    </rdf:RDF>
  </metadata>
  <g
     inkscape:label="Layer 1"
     inkscape:groupmode="layer"
     id="layer1"
     transform="translate(0,-263.13332)">
    <g
       id="g1597">
      <g
         id="g972"
         transform="matrix(8,0,0,8,-33.866606,-2053.5996)">
        <path
           style="display:inline;fill:none;fill-opacity:1;fill-rule:evenodd;stroke:url(#radialGradient4699);stroke-width:0.52916664;stroke-linecap:round;stroke-linejoin:round;stroke-miterlimit:4;stroke-dasharray:none;stroke-opacity:1"
           d="m 6.3500033,292.50206 v 0.52917 h 1.0583334 v 0.52917 l 0.79375,-0.79375 -0.79375,-0.79375 v 0.52916 z"
           id="path4693"
           sodipodi:nodetypes="cccccccc"
           inkscape:connector-curvature="0" />
        <path
           sodipodi:nodetypes="cccccccc"
           id="path4691"
           d="m 6.3500033,292.50206 v 0.52917 h 1.0583334 v 0.52917 l 0.79375,-0.79375 -0.79375,-0.79375 v 0.52916 z"
           style="display:inline;fill:url(#linearGradient4697);fill-opacity:1;fill-rule:evenodd;stroke:none;stroke-width:0.26458332px;stroke-linecap:butt;stroke-linejoin:miter;stroke-opacity:1"
           inkscape:connector-curvature="0" />
        <path
           style="display:inline;fill:url(#linearGradient4703);fill-opacity:1;fill-rule:evenodd;stroke:none;stroke-width:0.26458332px;stroke-linecap:butt;stroke-linejoin:miter;stroke-opacity:1"
           d="m 6.3500033,292.50206 v 0.26459 h 1.8520834 l -0.79375,-0.79375 v 0.52916 z"
           id="path4701"
           sodipodi:nodetypes="cccccc"
           inkscape:connector-curvature="0" />
      </g>
      <g
         id="g4168"
         transform="matrix(0.21539747,0,0,0.21539747,-98.24049,252.97722)">
        <path
           sodipodi:type="inkscape:offset"
           inkscape:radius="2.8001533"
           inkscape:original="M 498.25977 53.671875 C 488.91882 53.671875 481.19221 55.910244 475.07812 60.384766 C 468.7376 65.027083 465.56641 71.038912 465.56641 78.421875 C 465.56641 81.274383 466.24679 83.81938 467.60547 86.056641 C 469.86994 89.636259 473.1252 91.425781 477.37109 91.425781 C 479.46573 91.425781 481.3622 90.978889 483.06055 90.083984 C 486.57048 88.182312 488.32617 84.966001 488.32617 80.435547 C 488.32617 79.372848 488.21278 78.366852 487.98633 77.416016 C 487.53344 75.682139 486.31539 73.752351 484.33398 71.626953 C 482.69223 69.837144 481.87109 68.213985 481.87109 66.759766 C 481.87109 65.697067 482.18196 64.69107 482.80469 63.740234 C 484.50304 61.167384 487.73094 59.880859 492.48633 59.880859 C 494.92064 59.880859 497.12795 60.468017 499.10938 61.642578 C 504.43088 64.886607 507.0918 71.73807 507.0918 82.197266 C 507.0918 88.405666 505.93242 94.307241 503.61133 99.900391 C 503.10182 101.13089 501.34613 104.56967 498.3457 110.21875 C 495.51511 115.53225 494.09961 120.28756 494.09961 124.48242 C 494.09961 126.27223 494.213 128.89944 494.43945 132.36719 L 501.61914 132.36719 L 501.61914 129.76758 C 501.73236 124.56595 502.6102 120.79054 504.25195 118.44141 C 505.72386 116.37194 508.97913 113.79889 514.01758 110.72266 C 520.811 106.5278 523.79263 102.64017 526.96289 99.060547 C 530.98234 94.474162 532.99219 88.853118 532.99219 82.197266 C 532.93558 74.534646 530.33136 68.158128 525.17969 63.068359 C 518.78255 56.804028 509.80858 53.671875 498.25977 53.671875 z "
           style="font-style:normal;font-variant:normal;font-weight:bold;font-stretch:normal;font-size:172.86343384px;line-height:125%;font-family:KacstOne;-inkscape-font-specification:'KacstOne, Bold';font-variant-ligatures:normal;font-variant-caps:normal;font-variant-numeric:normal;font-feature-settings:normal;text-align:start;letter-spacing:0px;word-spacing:0px;writing-mode:lr-tb;text-anchor:start;fill:#0a4786;fill-opacity:0.88627451;stroke:none;stroke-width:4.32169867px;stroke-linecap:butt;stroke-linejoin:miter;stroke-opacity:1"
           id="path4094"
           d="m 498.25977,50.871094 c -9.78829,0 -18.1737,2.378229 -24.83594,7.253906 -6.91118,5.060133 -10.65821,12.112082 -10.65821,20.296875 0,3.29777 0.81483,6.399844 2.44727,9.087891 a 2.8004333,2.8004333 0 0 0 0.0254,0.04297 c 2.68724,4.247914 7.10013,6.673828 12.13281,6.673828 2.49292,10e-7 4.87535,-0.549569 6.99414,-1.666015 a 2.8004333,2.8004333 0 0 0 0.0293,-0.01367 c 4.32878,-2.345323 6.73242,-6.857444 6.73242,-12.111328 0,-1.261883 -0.13524,-2.489049 -0.41601,-3.667969 a 2.8004333,2.8004333 0 0 0 -0.0156,-0.05859 c -0.63306,-2.423656 -2.13856,-4.65618 -4.29687,-6.974609 -1.38609,-1.511085 -1.72656,-2.574481 -1.72656,-2.974609 0,-0.513142 0.11562,-0.931169 0.4707,-1.476563 l 0.002,-0.002 c 1.0366,-1.568377 3.09346,-2.599609 7.3418,-2.599609 1.97682,0 3.63368,0.449908 5.17773,1.361328 4.17182,2.551542 6.62696,8.180143 6.62696,18.154297 0,5.859792 -1.08529,11.374922 -3.26563,16.628906 a 2.8004333,2.8004333 0 0 0 -0.002,0.0039 c -0.34512,0.833489 -2.15852,4.441252 -5.15039,10.074222 -2.97357,5.58253 -4.57422,10.75405 -4.57422,15.57812 0,1.90808 0.11722,4.56754 0.3457,8.06641 a 2.8004333,2.8004333 0 0 0 2.79492,2.61914 h 7.17969 a 2.8004333,2.8004333 0 0 0 2.80078,-2.80078 v -2.55664 c 0.10903,-4.898 1.02335,-8.17704 2.12305,-9.75586 0.98239,-1.37551 4.03818,-3.95251 8.93359,-6.94141 a 2.8004333,2.8004333 0 0 0 0.0117,-0.008 c 7.13983,-4.40876 10.48946,-8.70883 13.57031,-12.1875 a 2.8004333,2.8004333 0 0 0 0.01,-0.0117 c 4.46195,-5.0913 6.72461,-11.489429 6.72461,-18.708984 a 2.8004333,2.8004333 0 0 0 0,-0.02148 c -0.0612,-8.285533 -2.99671,-15.519645 -8.64453,-21.099609 a 2.8004333,2.8004333 0 0 0 -0.01,-0.0078 c -6.99908,-6.853776 -16.82381,-10.197265 -28.8789,-10.197265 z" />
        <path
           id="path4098"
           d="m 499.47852,57.634766 c 0.53005,0.240672 1.10426,0.373611 1.60742,0.671875 a 3.8779596,3.8779596 0 0 1 0.041,0.02539 c 6.90286,4.208038 9.8418,12.748378 9.8418,23.865235 0,6.691141 -1.25939,13.126635 -3.77539,19.189454 -0.73732,1.78042 -2.41199,4.97983 -5.42383,10.65039 a 3.8779596,3.8779596 0 0 1 -0.002,0.004 c -2.63144,4.93966 -3.79102,9.11883 -3.79102,12.4414 0,0.46101 0.0762,1.55202 0.0937,2.16406 0.35029,-4.10603 1.09673,-7.69686 3.00391,-10.42578 a 3.8779596,3.8779596 0 0 1 0.0176,-0.0273 c 2.15462,-3.02934 5.67342,-5.58441 10.88867,-8.76953 l 0.0156,-0.01 c 6.29244,-3.88881 8.76629,-7.20016 12.05079,-10.910154 3.40348,-3.883537 5.06328,-8.42379 5.0664,-14.291015 -0.0532,-6.789217 -2.19582,-11.972632 -6.65234,-16.378907 -5.33945,-5.225828 -12.80852,-7.980298 -22.98242,-8.199218 z m -20.29688,4.787109 c -0.59815,0.371636 -1.24934,0.678229 -1.81445,1.091797 -5.54938,4.063504 -7.92383,8.636071 -7.92383,14.908203 0,2.225797 0.49601,3.990485 1.4668,5.597656 1.66993,2.621849 3.32125,3.529297 6.46093,3.529297 1.53135,0 2.74623,-0.305397 3.85547,-0.884766 2.36356,-1.284984 3.22266,-2.707982 3.22266,-6.228515 0,-0.766594 -0.0846,-1.444535 -0.22852,-2.066406 -0.20947,-0.775439 -1.01337,-2.264158 -2.72265,-4.097657 a 3.8779596,3.8779596 0 0 1 -0.0215,-0.02344 c -1.99579,-2.175778 -3.48242,-4.574388 -3.48242,-7.488281 0,-1.52005 0.47879,-3.000878 1.1875,-4.337891 z"
           style="font-style:normal;font-variant:normal;font-weight:bold;font-stretch:normal;font-size:172.86343384px;line-height:125%;font-family:KacstOne;-inkscape-font-specification:'KacstOne, Bold';font-variant-ligatures:normal;font-variant-caps:normal;font-variant-numeric:normal;font-feature-settings:normal;text-align:start;letter-spacing:0px;word-spacing:0px;writing-mode:lr-tb;text-anchor:start;fill:url(#radialGradient4128);fill-opacity:1;stroke:none;stroke-width:4.32169867px;stroke-linecap:butt;stroke-linejoin:miter;stroke-opacity:1"
           inkscape:connector-curvature="0" />
        <circle
           r="19.686344"
           cy="163.76836"
           cx="498.28571"
           id="path4132"
           style="opacity:1;fill:#094786;fill-opacity:1;stroke:none;stroke-width:7.93533659;stroke-linecap:square;stroke-linejoin:bevel;stroke-miterlimit:4;stroke-dasharray:none;stroke-dashoffset:0;stroke-opacity:0.73039216" />
        <circle
           style="opacity:1;fill:#006ac5;fill-opacity:0.98039216;stroke:none;stroke-width:4.96967793;stroke-linecap:square;stroke-linejoin:bevel;stroke-miterlimit:4;stroke-dasharray:none;stroke-dashoffset:0;stroke-opacity:0.73039216"
           id="circle4134"
           cx="498.28571"
           cy="163.76836"
           r="12.329003" />
        <path
           id="path4136"
           d="m 499.47852,57.634766 c 0.53005,0.240672 1.10426,0.373611 1.60742,0.671875 a 3.8779596,3.8779596 0 0 1 0.041,0.02539 c 6.90286,4.208038 9.8418,12.748378 9.8418,23.865235 0,3.11842 -0.28522,6.178309 -0.83203,9.173828 a 91.151512,37.125542 0 0 0 17.62305,-1.039063 c 0.8984,-2.415709 1.3519,-5.087224 1.35351,-8.11914 -0.0532,-6.789217 -2.19582,-11.972632 -6.65234,-16.378907 -5.33945,-5.225828 -12.80852,-7.980298 -22.98242,-8.199218 z m -20.29688,4.787109 c -0.59815,0.371636 -1.24934,0.678229 -1.81445,1.091797 -5.54938,4.063504 -7.92383,8.636071 -7.92383,14.908203 0,2.225797 0.49601,3.990485 1.4668,5.597656 1.66993,2.621849 3.32125,3.529297 6.46093,3.529297 1.53135,0 2.74623,-0.305397 3.85547,-0.884766 2.36356,-1.284983 3.22266,-2.707982 3.22266,-6.228515 0,-0.766594 -0.0846,-1.444535 -0.22852,-2.066406 -0.20947,-0.775439 -1.01337,-2.264158 -2.72265,-4.097657 a 3.8779596,3.8779596 0 0 1 -0.0215,-0.02344 c -1.99579,-2.175778 -3.48242,-4.574388 -3.48242,-7.488281 0,-1.52005 0.47879,-3.000878 1.1875,-4.337891 z"
           style="opacity:1;fill:url(#linearGradient4147);fill-opacity:1;stroke:none;stroke-width:4.8579998;stroke-linecap:square;stroke-linejoin:bevel;stroke-miterlimit:4;stroke-dasharray:none;stroke-dashoffset:0;stroke-opacity:0.73039216"
           inkscape:connector-curvature="0" />
        <path
           id="path4149"
           d="m 498.28516,151.43846 a 12.329003,12.329003 0 0 0 -12.32813,12.33008 12.329003,12.329003 0 0 0 0.0195,0.54492 38.372295,8.727273 0 0 0 11.75586,0.42383 38.372295,8.727273 0 0 0 12.85938,-0.51367 12.329003,12.329003 0 0 0 0.0234,-0.45508 12.329003,12.329003 0 0 0 -12.33007,-12.33008 z"
           style="opacity:1;fill:url(#linearGradient4160);fill-opacity:1;stroke:none;stroke-width:4.8579998;stroke-linecap:square;stroke-linejoin:bevel;stroke-miterlimit:4;stroke-dasharray:none;stroke-dashoffset:0;stroke-opacity:0.73039216"
           inkscape:connector-curvature="0" />
      </g>
    </g>
  </g>
</svg>
