<?xml version="1.0" encoding="UTF-8" standalone="no"?>
<!-- Created with Inkscape (http://www.inkscape.org/) -->

<svg
   xmlns:dc="http://purl.org/dc/elements/1.1/"
   xmlns:cc="http://creativecommons.org/ns#"
   xmlns:rdf="http://www.w3.org/1999/02/22-rdf-syntax-ns#"
   xmlns:svg="http://www.w3.org/2000/svg"
   xmlns="http://www.w3.org/2000/svg"
   xmlns:xlink="http://www.w3.org/1999/xlink"
   xmlns:sodipodi="http://sodipodi.sourceforge.net/DTD/sodipodi-0.dtd"
   xmlns:inkscape="http://www.inkscape.org/namespaces/inkscape"
   version="1.1"
   id="svg2"
   width="128"
   height="128"
   viewBox="0 0 128 128"
   sodipodi:docname="sc_starshapes.star12.svg"
   inkscape:export-filename="/home/rizmut/Dokumen/Rizmut/Github/libreoffice-style-karasa-jaga/build/images_karasa_jaga/cmd/sc_starshapes.star12.png"
   inkscape:export-xdpi="12"
   inkscape:export-ydpi="12"
   inkscape:version="0.92.3 (unknown)">
  <metadata
     id="metadata8">
    <rdf:RDF>
      <cc:Work
         rdf:about="">
        <dc:format>image/svg+xml</dc:format>
        <dc:type
           rdf:resource="http://purl.org/dc/dcmitype/StillImage" />
        <dc:title></dc:title>
      </cc:Work>
    </rdf:RDF>
  </metadata>
  <defs
     id="defs6">
    <linearGradient
       id="linearGradient3369">
      <stop
         id="stop3372"
         offset="0"
         style="stop-color:#ffffff;stop-opacity:1;" />
      <stop
         style="stop-color:#ffffff;stop-opacity:1;"
         offset="0.59375"
         id="stop3374" />
      <stop
         style="stop-color:#f1f1f1;stop-opacity:1;"
         offset="0.84375"
         id="stop3376" />
      <stop
         id="stop3378"
         offset="0.90625"
         style="stop-color:#eaeaea;stop-opacity:1;" />
      <stop
         id="stop3384"
         offset="1"
         style="stop-color:#dfdfdf;stop-opacity:1;" />
    </linearGradient>
    <linearGradient
       id="linearGradient7422">
      <stop
         style="stop-color:#7c9fcf;stop-opacity:1"
         offset="0"
         id="stop7424" />
      <stop
         id="stop5348"
         offset="0.5"
         style="stop-color:#7c9ece;stop-opacity:1" />
      <stop
         id="stop7426"
         offset="1"
         style="stop-color:#7b9dcf;stop-opacity:1" />
    </linearGradient>
    <linearGradient
       inkscape:collect="always"
       xlink:href="#linearGradient7422"
       id="linearGradient3640"
       x1="-0.16547459"
       y1="-61.192997"
       x2="122.55024"
       y2="-61.192997"
       gradientUnits="userSpaceOnUse" />
    <linearGradient
       inkscape:collect="always"
       xlink:href="#linearGradient3369"
       id="linearGradient3648"
       x1="43.341953"
       y1="-117.10874"
       x2="74.933983"
       y2="-2.1710043"
       gradientUnits="userSpaceOnUse" />
  </defs>
  <sodipodi:namedview
     pagecolor="#ffffff"
     bordercolor="#666666"
     borderopacity="1"
     objecttolerance="10"
     gridtolerance="10"
     guidetolerance="10"
     inkscape:pageopacity="0"
     inkscape:pageshadow="2"
     inkscape:window-width="1366"
     inkscape:window-height="706"
     id="namedview4"
     showgrid="true"
     inkscape:snap-page="true"
     inkscape:snap-global="false"
     inkscape:zoom="4.0000002"
     inkscape:cx="70.721925"
     inkscape:cy="66.93847"
     inkscape:window-x="0"
     inkscape:window-y="0"
     inkscape:window-maximized="1"
     inkscape:current-layer="svg2"
     inkscape:snap-smooth-nodes="true">
    <inkscape:grid
       type="xygrid"
       id="grid27"
       spacingx="8"
       spacingy="8"
       empspacing="2" />
  </sodipodi:namedview>
  <path
     sodipodi:type="inkscape:offset"
     inkscape:radius="7.7344074"
     inkscape:original="M 61.191406 -114.82031 L 54.298828 -87.007812 L 34.378906 -107.63672 L 42.316406 -80.101562 L 14.75 -88.007812 L 35.390625 -68.130859 L 7.5664062 -61.193359 L 35.378906 -54.300781 L 14.75 -34.380859 L 42.283203 -42.318359 L 34.378906 -14.751953 L 54.255859 -35.392578 L 61.191406 -7.5664062 L 68.085938 -35.380859 L 88.005859 -14.751953 L 80.068359 -42.285156 L 107.63477 -34.380859 L 86.994141 -54.255859 L 114.81836 -61.193359 L 87.005859 -68.085938 L 107.63477 -88.007812 L 80.101562 -80.070312 L 88.005859 -107.63672 L 68.128906 -86.996094 L 61.191406 -114.82031 z "
     style="opacity:1;fill:url(#linearGradient3640);fill-opacity:1.0;stroke:none;stroke-width:6.96735382;stroke-linecap:round;stroke-linejoin:round;stroke-miterlimit:4;stroke-dasharray:none;stroke-dashoffset:0;stroke-opacity:1"
     id="path3630"
     d="m 61.392578,-122.54883 a 7.7351809,7.7351809 0 0 0 -7.708984,5.86719 l -3.53125,14.24609 -10.208985,-10.57422 a 7.7351809,7.7351809 0 0 0 -12.996093,7.51563 l 4.066406,14.103515 -14.13086,-4.052734 A 7.7351809,7.7351809 0 0 0 9.3847656,-82.4375 l 10.5742184,10.183594 -14.2636715,3.55664 a 7.7351809,7.7351809 0 0 0 0.00977,15.011719 l 14.2460939,3.53125 -10.5742189,10.208985 a 7.7351809,7.7351809 0 0 0 7.5156249,12.996093 l 14.103516,-4.066406 -4.052735,14.132813 a 7.7351809,7.7351809 0 0 0 13.00586,7.4960932 L 50.132812,-19.960938 53.6875,-5.6953125 a 7.7351809,7.7351809 0 0 0 15.011719,-0.00977 l 3.53125,-14.2480469 10.210937,10.5742188 A 7.7351809,7.7351809 0 0 0 95.4375,-16.894531 l -4.066406,-14.103516 14.132816,4.052735 A 7.7351809,7.7351809 0 0 0 113,-39.953125 l -10.57227,-10.179687 14.26172,-3.556641 a 7.7351809,7.7351809 0 0 0 -0.01,-15.011719 l -14.2461,-3.53125 10.57422,-10.210937 a 7.7351809,7.7351809 0 0 0 -7.51562,-12.996094 l -14.103518,4.066406 4.052734,-14.132813 a 7.7351809,7.7351809 0 0 0 -13.005859,-7.49609 l -10.183594,10.57422 -3.556641,-14.26368 a 7.7351809,7.7351809 0 0 0 -7.302734,-5.85742 z"
     transform="matrix(1.0081953,-0.275962,-0.275962,-1.0081953,-11.926818,19.040573)" />
  <path
     transform="matrix(1.0081953,-0.275962,-0.275962,-1.0081953,-11.926818,19.040573)"
     d="m 61.192239,-7.5672874 -6.937306,-27.8255256 -19.876069,20.640904 7.904879,-27.566265 -27.533633,7.937512 20.628959,-19.920645 -27.8135821,-6.89273 27.8255251,-6.937306 -20.640904,-19.87607 27.566265,7.90488 -7.937512,-27.533637 19.920646,20.628963 6.892729,-27.813583 6.937306,27.825526 19.87607,-20.640906 -7.90488,27.566267 27.533638,-7.937512 -20.628963,19.920646 27.813583,6.892729 -27.825527,6.937306 20.640907,19.87607 -27.566268,-7.90488 7.937513,27.533634 -19.920646,-20.628959 z"
     inkscape:randomized="0"
     inkscape:rounded="0"
     inkscape:flatsided="false"
     sodipodi:arg2="1.8334593"
     sodipodi:arg1="1.5707963"
     sodipodi:r2="26.717587"
     sodipodi:r1="53.626751"
     sodipodi:cy="-61.194038"
     sodipodi:cx="61.192238"
     sodipodi:sides="12"
     id="path1626"
     style="opacity:1;fill:url(#linearGradient3648);fill-opacity:1;stroke:none;stroke-width:6.96735382;stroke-linecap:round;stroke-linejoin:round;stroke-miterlimit:4;stroke-dasharray:none;stroke-dashoffset:0;stroke-opacity:1"
     sodipodi:type="star" />
  <text
     xml:space="preserve"
     style="font-style:normal;font-weight:normal;font-size:52.24930573px;line-height:125%;font-family:sans-serif;letter-spacing:0px;word-spacing:0px;fill:#ae1010;fill-opacity:1;stroke:none;stroke-width:1.30623257px;stroke-linecap:butt;stroke-linejoin:miter;stroke-opacity:1"
     x="33.443546"
     y="82.522377"
     id="text960"><tspan
       sodipodi:role="line"
       id="tspan958"
       x="33.443546"
       y="82.522377"
       style="font-style:normal;font-variant:normal;font-weight:normal;font-stretch:normal;font-family:FreeSans;-inkscape-font-specification:FreeSans;fill:#ae1010;fill-opacity:1;stroke-width:1.30623257px">12</tspan></text>
</svg>
