<svg height="42" viewBox="0 0 12.170833 11.1125" width="46" xmlns="http://www.w3.org/2000/svg" xmlns:xlink="http://www.w3.org/1999/xlink"><filter id="a" height="1.044935" width="1.051973" x="-.025986" y="-.022468"><feGaussianBlur stdDeviation="1.0394514"/></filter><filter id="b" height="1.022222" width="1.026075" x="-.013037" y="-.011111"><feGaussianBlur stdDeviation=".50063244"/></filter><radialGradient id="c" cx="102" cy="112.3047" gradientUnits="userSpaceOnUse" r="139.5585"><stop offset="0" stop-color="#00537d"/><stop offset=".0151" stop-color="#186389"/><stop offset=".0558" stop-color="#558ca8"/><stop offset=".0964" stop-color="#89afc3"/><stop offset=".1357" stop-color="#b3ccd8"/><stop offset=".1737" stop-color="#d4e2e9"/><stop offset=".2099" stop-color="#ecf2f5"/><stop offset=".2435" stop-color="#fafcfd"/><stop offset=".2722" stop-color="#fff"/></radialGradient><radialGradient id="d" cx="102" cy="112.3047" gradientTransform="matrix(.9787234 0 0 .9818182 1.361705 1.163636)" gradientUnits="userSpaceOnUse" r="139.55859"><stop offset="0" stop-color="#535557"/><stop offset=".11366145" stop-color="#898a8c"/><stop offset=".20296688" stop-color="#ececec"/><stop offset=".2363" stop-color="#fafafa"/><stop offset=".2722" stop-color="#fff"/><stop offset=".5313" stop-color="#fafafa"/><stop offset=".8449" stop-color="#ebecec"/><stop offset="1" stop-color="#e1e2e3"/></radialGradient><filter id="e" height="1.247155" width="1.247155" x="-.123577" y="-.123577"><feGaussianBlur stdDeviation="1.7720846"/></filter><filter id="f" height="1.130081" width="1.130081" x="-.065041" y="-.065041"><feGaussianBlur stdDeviation=".90565481"/></filter><linearGradient id="g" gradientUnits="userSpaceOnUse" x1="85.219681" x2="61.336319" y1="93.219681" y2="69.336319"><stop offset="0"/><stop offset="1" stop-color="#393b38"/></linearGradient><filter id="h" height="1.071545" width="1.071545" x="-.035772" y="-.035772"><feGaussianBlur stdDeviation=".4901192"/></filter><linearGradient id="i" gradientUnits="userSpaceOnUse" x1="96" x2="88.000198" y1="104" y2="96.000198"><stop offset="0" stop-color="#888a85"/><stop offset=".0072" stop-color="#8c8e89"/><stop offset=".0673" stop-color="#abaca9"/><stop offset=".1347" stop-color="#c5c6c4"/><stop offset=".2115" stop-color="#dbdbda"/><stop offset=".3012" stop-color="#ebebeb"/><stop offset=".4122" stop-color="#f7f7f6"/><stop offset=".5679" stop-color="#fdfdfd"/><stop offset="1" stop-color="#fff"/></linearGradient><linearGradient id="j" gradientTransform="matrix(.29104575 0 0 .33313079 -1.693333 -5.80263)" gradientUnits="userSpaceOnUse" x1="64" x2="63.9991" y1="96" y2="52.364712"><stop offset="0" stop-color="#080808"/><stop offset="1" stop-color="#232323"/></linearGradient><linearGradient id="k" gradientTransform="matrix(.28394756 0 0 .28836258 -1.290704 -.25915)" gradientUnits="userSpaceOnUse" x1="64" x2="64" y1="88" y2="56"><stop offset="0" stop-color="#7f7f81"/><stop offset=".44999999" stop-color="#b6b6b7"/><stop offset=".67499995" stop-color="#f5f5f5"/><stop offset="1" stop-color="#cfcfcf"/></linearGradient><linearGradient id="l" gradientTransform="matrix(.22737947 0 0 .30040476 2.381251 -.69)" gradientUnits="userSpaceOnUse" x1="68" x2="68" y1="4" y2="48"><stop offset="0" stop-color="#fff"/><stop offset=".54545456" stop-color="#ebebeb"/><stop offset=".90909094" stop-color="#bababa"/><stop offset="1" stop-color="#7e7e7f"/></linearGradient><linearGradient id="m" gradientTransform="matrix(.24052171 0 0 .26458333 1.590201 .97738)" gradientUnits="userSpaceOnUse" x1="64" x2="64" y1="48" y2="72"><stop offset="0" stop-color="#6e4388"/><stop offset=".21062189" stop-color="#651d8d"/><stop offset=".346082" stop-color="#ac7ec6"/><stop offset=".51274866" stop-color="#ca87dc"/><stop offset="1" stop-color="#ebeaeb"/></linearGradient><linearGradient id="n" gradientUnits="userSpaceOnUse" x1="17.991905" x2="17.842594" y1="32.727371" y2="25.74955"><stop offset="0" stop-color="#fefefe"/><stop offset=".5" stop-color="#f7f7f7"/><stop offset=".91002578" stop-color="#8c8c8c"/><stop offset="1" stop-color="#666"/></linearGradient><linearGradient id="o" gradientTransform="matrix(.27285534 0 0 .17849961 -.529165 5.79217)" gradientUnits="userSpaceOnUse" x1="52" x2="76" y1="72" y2="72"><stop offset="0"/><stop offset=".66666669" stop-color="#a6a6a6" stop-opacity=".866667"/><stop offset="1" stop-opacity=".737089"/></linearGradient><linearGradient id="p" gradientUnits="userSpaceOnUse" x1="17.000839" x2="17.000839" y1="12.61903" y2="17.910721"><stop offset="0" stop-color="#baaac4"/><stop offset="1" stop-color="#baaac4" stop-opacity="0"/></linearGradient><linearGradient id="q" gradientTransform="matrix(2.5599786 0 0 2.5618328 317.24891 -4847.794)" gradientUnits="userSpaceOnUse" x1="-97.742668" x2="-97.742668" y1="1937.9885" y2="1895.421"><stop offset="0" stop-color="#141313"/><stop offset=".33497536" stop-color="#2b292a"/><stop offset=".63281107" stop-color="#3f3e3e"/><stop offset="1" stop-color="#6b696a"/></linearGradient><radialGradient id="r" cx="100.16534" cy="37.468983" gradientTransform="matrix(4.8110826 .00000075 -.00000031 1.9257147 -441.90372 -88.154647)" gradientUnits="userSpaceOnUse" r="38"><stop offset="0" stop-color="#d0ced9"/><stop offset=".25" stop-color="#ecf1f9"/><stop offset=".5" stop-color="#fff"/><stop offset="1" stop-color="#c6d5e3"/></radialGradient><linearGradient id="s" gradientUnits="userSpaceOnUse" x1="47.608696" x2="47.608696" xlink:href="#t" y1="104.35009" y2="176.35008"/><linearGradient id="t"><stop offset="0"/><stop offset="1" stop-opacity="0"/></linearGradient><clipPath id="u"><path d="m18.189713 132.42089c-1.419208 0-2.5625 1.1433-2.5625 2.5625v37.18328h72.000002v-37.18328c0-1.4192-1.14329-2.5625-2.5625-2.5625z"/></clipPath><filter id="v" height="1.207087" width="1.122554" x="-.061277" y="-.103543"><feGaussianBlur stdDeviation="1.9228365"/></filter><radialGradient id="w" cx="84" cy="91.983192" gradientTransform="matrix(1 0 0 .6210279 0 37.87587)" gradientUnits="userSpaceOnUse" r="32" xlink:href="#x"/><linearGradient id="x"><stop offset="0" stop-color="#fff"/><stop offset="1" stop-color="#fff" stop-opacity="0"/></linearGradient><linearGradient id="y" gradientUnits="userSpaceOnUse" x1="68" x2="36" xlink:href="#t" y1="120" y2="84"/><filter id="z" height="1.185769" width="1.247692" x="-.123846" y="-.092885"><feGaussianBlur stdDeviation="1.2384615"/></filter><linearGradient id="A" gradientUnits="userSpaceOnUse" x1="89.604729" x2="114.175" xlink:href="#x" y1="42.336197" y2="106.7981"/><filter id="B" height="1.018225" width="1.032517" x="-.016258" y="-.007375"><feGaussianBlur stdDeviation=".0231875"/></filter><linearGradient id="C" gradientUnits="userSpaceOnUse" x1="87.693916" x2="91.051781" xlink:href="#t" y1="100.83184" y2="100.83184"/><filter id="D" height="1.050046" width="1.397532" x="-.198766" y="-.025023"><feGaussianBlur stdDeviation=".35662617"/></filter><linearGradient id="E" gradientTransform="matrix(1 0 0 .9968924 0 -.225228)" gradientUnits="userSpaceOnUse" x1="52" x2="52" y1="112" y2="80"><stop offset="0" stop-color="#8a8a8a"/><stop offset="1" stop-color="#c6c6c6"/></linearGradient><clipPath id="F"><rect height="12" rx="1.079258" width="8" x="12" y="12"/></clipPath><filter id="G" height="1.297656" width="1.446484" x="-.223242" y="-.148828"><feGaussianBlur stdDeviation=".55"/></filter><radialGradient id="H" cx="16" cy="18" gradientTransform="matrix(1 0 0 1.5 0 -9)" gradientUnits="userSpaceOnUse" r="4"><stop offset="0" stop-color="#7a7a7a"/><stop offset="1" stop-opacity=".490909"/></radialGradient><linearGradient id="I" gradientUnits="userSpaceOnUse" x1="16" x2="16" xlink:href="#t" y1="1.595278" y2="18.75548"/><clipPath id="J"><rect height="12" rx="1.079258" width="8" x="12" y="12"/></clipPath><radialGradient id="K" cx="16.03512" cy="19.494249" fy="18.539074" gradientUnits="userSpaceOnUse" r="2.378519"><stop offset="0" stop-color="#868385"/><stop offset="1" stop-color="#4a4949"/></radialGradient><linearGradient id="L" gradientUnits="userSpaceOnUse" x1="13.731525" x2="13.731525" y1="17.127983" y2="19.86887"><stop offset="0" stop-color="#fff"/><stop offset="1"/></linearGradient><filter id="M" height="1.13869" width="1.117192" x="-.058596" y="-.069345"><feGaussianBlur stdDeviation=".04177847"/></filter><linearGradient id="N" gradientTransform="matrix(.0564759 0 0 .03012001 -3.019205 -27.312207)" gradientUnits="userSpaceOnUse" x1="124.01234" x2="124.01234" y1="966.51019" y2="935.34326"><stop offset="0"/><stop offset="1" stop-color="#34608f" stop-opacity="0"/></linearGradient><linearGradient id="O" gradientUnits="userSpaceOnUse" x1=".09985639458" x2=".09985639458" y1="1.37970999095" y2=".8755295223"><stop offset="0" stop-color="#34608f"/><stop offset="1" stop-color="#34608f" stop-opacity="0"/></linearGradient><linearGradient id="P" gradientUnits="userSpaceOnUse" x1="1.455208315" x2="1.455208315" y1="3.17499996" y2="3.43958329"><stop offset="0" stop-color="#174072"/><stop offset="1" stop-color="#174072" stop-opacity="0"/></linearGradient><linearGradient id="Q" gradientUnits="userSpaceOnUse" x1="2.11666664" x2="2.11666664" y1="1.32291665" y2="3.96874995"><stop offset="0" stop-color="#5678c8"/><stop offset=".94117647" stop-color="#3f59ae"/><stop offset="1" stop-color="#3d7cdb"/></linearGradient><clipPath id="R"><rect height="28.072842" rx="4" width="101.14289" x="4" y="941.36218"/></clipPath><filter id="S" color-interpolation-filters="sRGB" height="1.230126" width="1.139024" x="-.069512" y="-.115063"><feGaussianBlur stdDeviation="3.1247207"/></filter><clipPath id="T"><rect height="102.29915" ry="1.433656" width="120" x="5.93629" y="48"/></clipPath><filter id="U" height="1.082265" width="1.098659" x="-.04933" y="-.041132"><feGaussianBlur stdDeviation="2.028"/></filter><filter id="V" height="1.106344" width="1.122746" x="-.061373" y="-.053172"><feGaussianBlur stdDeviation="2.7153804"/></filter><linearGradient id="W" gradientTransform="matrix(.94173025 0 0 .94148681 3.516276 3.145731)" gradientUnits="userSpaceOnUse" x1="47.236164" x2="72" y1="22.150356" y2="116.40091"><stop offset="0" stop-color="#eeecec"/><stop offset=".40000001" stop-color="#f4f4f4"/><stop offset="1" stop-color="#f6f5f5"/></linearGradient><radialGradient id="X" cx="68.138977" cy="89.42041" fx="67.932365" fy="72.691223" gradientTransform="matrix(1.5860719 -.07936281 .06485072 1.2953772 -41.872296 -14.425457)" gradientUnits="userSpaceOnUse" r="47.5" xlink:href="#x"/><clipPath id="Y"><path d="m17.000001 8 .782827 110h57.5c1.675283 0 3.119418.18058 4.9-1.6 8.797935-8.79794 21.481402-23.383226 28.739972-30.707378 2.44056-2.462612 2.80096-4.47117 2.80096-6.724043l-1.72376-70.968579z"/></clipPath><filter id="Z" color-interpolation-filters="sRGB" height="1.954132" width="1.954491" x="-.477246" y="-.477066"><feGaussianBlur stdDeviation="10.140743"/></filter><filter id="aa" height="1.2101" width="1.169467" x="-.084733" y="-.10505"><feGaussianBlur stdDeviation="2.1734796"/></filter><linearGradient id="ab" gradientTransform="matrix(1.3344708 0 0 1.3640502 -37.238647 -42.998247)" gradientUnits="userSpaceOnUse" x1="82.15696" x2="94.220871" y1="90.381706" y2="102.18401"><stop offset="0" stop-color="#fcfcfc"/><stop offset=".52275378" stop-color="#f8f8f8"/><stop offset=".72337759" stop-color="#f0efef"/><stop offset=".89024991" stop-color="#e3e1e1"/><stop offset="1" stop-color="#cecbcb"/></linearGradient><radialGradient id="ac" cx="90.750008" cy="110.25297" gradientUnits="userSpaceOnUse" r="24.501278" xlink:href="#x"/><clipPath id="ad"><path d="m112 82.502986c0 4.465301-2.79749 6.409952-5.27972 8.093625-5.10854 3.46508-14.939114 3.32536-20.720284 3.40638-.081 5.781159.16586 15.504599-3.29922 20.613139-1.68367 2.48224-5.29051 5.38687-8.20078 5.38687 2.31803 0 4.74284-1.33476 7.58402-4.08481 9.14197-8.84873 17.36714-16.13535 25.673154-25.297529 1.91895-2.116745 4.24283-3.641881 4.24283-8.117675z"/></clipPath><filter id="ae" color-interpolation-filters="sRGB" height="1.117972" width="1.116062" x="-.058031" y="-.058986"><feGaussianBlur stdDeviation=".43040059"/></filter><linearGradient id="af" gradientUnits="userSpaceOnUse" x1="2.38124997" x2="2.38124997" y1="-.26458333" y2="2.6458333"><stop offset="0" stop-color="#102134"/><stop offset="1" stop-color="#102134" stop-opacity="0"/></linearGradient><linearGradient id="ag" gradientUnits="userSpaceOnUse" x1="55" x2="55" y1="1036.4132" y2="1032.4822"><stop offset="0" stop-color="#003d7b"/><stop offset="1" stop-color="#003d7b" stop-opacity="0"/></linearGradient><filter id="ah" color-interpolation-filters="sRGB" height="1.774676" width="1.027888" x="-.013944" y="-.387338"><feGaussianBlur stdDeviation=".70882694"/></filter><filter id="ai" color-interpolation-filters="sRGB" height="1.765335" width="1.027669" x="-.013834" y="-.382667"><feGaussianBlur stdDeviation=".70324038"/></filter><g transform="matrix(.03307292 0 0 .03307292 1.058333 .793752)"><path d="m23 9 .04082 112h61.13118c.53 0 1.039-.211 1.414-.586l32.828-32.828c.375-.375.586-.884.586-1.414v-77.172z" filter="url(#a)" opacity=".715069" transform="matrix(1.0416667 0 0 1.0357143 -9.958333 -3.321534)"/><path d="m24.919999 10.931136v108.137934l58.676001-.0001c.53 0 1.039-.211 1.414-.586l31.484-31.765936c.375-.375.586-.884.586-1.414v-74.371898z" filter="url(#b)" opacity=".89589" transform="matrix(1.0416667 0 0 1.0357143 -9.958333 -3.321534)"/><path d="m23 9.9655172.040816 111.0344828h61.131184c.53 0 1.039-.211 1.414-.586 13.296921-8.21061 24.14086-19.26784 32.828-32.828.375-.375.586-.884.586-1.414v-76.2064828z" filter="url(#a)" opacity=".835616" transform="matrix(1.0416667 0 0 1.0357143 -9.958333 -3.321534)"/><path d="m16.000002 8v112h61.172c.53 0 1.039-.211 1.414-.586l32.827998-32.828c.375-.375.586-.884.586-1.414v-77.172z" fill="url(#c)"/><path d="m24.678725 16c-.539276 0-.978723.440836-.978723.981818l.3 94.036362c0 .54197.439447.98182.978723.98182h51.913022c.257404 0 .509915-.10407.691957-.28767l26.129526-26.23113c.18303-.1836.28677-.435927.28677-.694145v-67.805237c0-.540982-.43847-.981818-.97872-.981818z" fill="url(#d)"/><g transform="translate(.000002)"><path d="m111.414 86.586c.25-.25-26.379-1.586-31.414-1.586-1.654 0-3 1.346-3 3 0 5.035 1.336 31.664 1.586 31.414z" filter="url(#e)" opacity=".906849"/><path d="m111.414 86.586c.375-.375-21.97-.586-31.414-.586-1.103 0-2 .897-2 2 0 9.444.211 31.789.586 31.414z" filter="url(#f)" opacity=".2"/><path d="m111.414 86.586c.239-.239-21.607.414-31.414.414-.553 0-1 .447-1 1 0 9.807-.653 31.653-.414 31.414z" fill="url(#g)" filter="url(#h)" opacity=".1"/><path d="m78.586 119.414s11.914-9.914 17.414-15.414 15.414-17.414 15.414-17.414-21.164 1.414-31.414 1.414c0 10.25-1.414 31.414-1.414 31.414z" fill="url(#i)"/></g></g><g transform="matrix(.125 0 0 .125 6.879167 .793749)"><rect fill="#111012" height="9.059485" rx=".053634" ry=".093039" width="21.166666" x="6.35" y="4.233349"/><rect fill="#3e3c41" height="7.24426" rx=".044496" ry=".073978" width="16.933334" x="8.466666" y="6.349987"/><rect fill="#636363" fill-opacity=".996078" height="14.832205" rx=".052561" ry=".083452" width="12.7" x="10.583333" y=".000011"/><rect fill="#1d1d1d" height="6.157489" rx="2.116667" transform="scale(1 -1)" width="30.103001" x="1.539611" y="-17.910931"/><rect fill="url(#j)" height="15.505507" rx=".064691" ry=".101501" width="33.866665" y="11.641674"/><rect fill="#b6b6b6" height="5.291663" rx="2.033992" ry=".977367" transform="scale(1 -1)" width="31.749998" x="1.058333" y="-16.933331"/><rect fill="url(#k)" height="10.583338" rx=".058605" ry=".071886" width="31.749998" x="1.058333" y="14.816662"/><rect fill="#28232c" height="5.179869" rx=".061426" ry=".093155" width="27.516665" x="3.175" y="11.75346"/><rect fill="url(#l)" height="12.234495" rx=".04693" ry=".074888" width="10.583332" x="11.641666" y="1.05833"/><path d="m5.3919441 11.7819h23.1832949c.0275 0 .04964.0411.04964.092v4.35722c0 .051-.03322.07-.04964.092l-1.970778 2.64583.09624 1.5875h-19.4342252l.096246-1.5875-1.9707781-2.64583c-.017928-.0241-.049642-.041-.049642-.092v-4.35722c0-.051.02214-.092.049642-.092z" style="stroke:#1f1f1f;stroke-width:.79375;stroke-linecap:square;stroke-linejoin:round;stroke-opacity:.924883;fill:url(#m)"/><path d="m6.3499998 25.4v8.46667h21.1666662v-8.46667z" fill="#222" fill-rule="evenodd"/><path d="m7.4083331 25.4v7.40833h19.0499989l.000001-7.40833z" fill="url(#n)" fill-rule="evenodd"/><rect height="5.291671" rx=".054608" ry=".070466" width="21.166662" x="6.35" y="20.108349"/><rect fill="url(#o)" height="2.116691" rx=".056315" ry=".044498" width="6.349999" x="13.758333" y="17.99168"/><rect fill="#986aae" height="4.233333" rx=".074396" ry=".169416" width="14.816668" x="9.525" y="11.641674"/><rect fill="url(#p)" height="7.408327" opacity=".92" rx=".081912" ry=".266648" width="12.7" x="10.583333" y="11.641674"/><rect fill="#c9b1d5" height="3.174994" rx=".06826" ry=".139031" width="12.7" x="10.583333" y="11.641674"/><rect fill="#0c0c0c" height="2.11666" rx=".06826" ry=".070525" width="10.583333" x="11.641666" y="11.641674"/><path d="m7.4085718 23.20237-.0002387-2.0357h19.0499989l.00024 2.0357z" fill="#545156" fill-rule="evenodd"/></g><g transform="matrix(.03307292 0 0 .03307292 1.057541 6.087533)"><path d="m11.335342 0c-1.8087222 0-3.3610242 1.6123041-3.3600838 3.299947l.0247418 101.132493 11.640039 11.56756h96.999201c2.95345 0 3.35982-.34436 3.35982-3.29969l-.02474-109.400363c0-1.7983202-1.55806-3.299947-3.35982-3.299947z" fill="url(#q)"/><path d="m15.193656 4c-1.679527 0-3.120949 1.49714-3.120076 3.064236l-.07358 95.123024 9.880029 9.81274h90.999201c2.74248 0 3.11983-.31977 3.11983-3.064l.07358-101.871764c0-1.669868-1.44677-3.064236-3.11983-3.064236z" style="opacity:.35;fill:none;stroke:#000;stroke-width:8;stroke-linecap:round;stroke-linejoin:round;stroke-dashoffset:1.0878"/><rect fill="url(#r)" height="52" rx="1.299477" ry="1.280226" width="80" x="24" y="4"/><path clip-path="url(#u)" d="m16.78031 126.4375c-1.48295 0-2.65625 1.20455-2.65625 2.6875l.435841 39.22509c0 1.48295 1.173301 2.65625 2.65625 2.65625h.15625c-.407771-.44637-.6875-1.03176-.6875-1.6875l-.435841-37.16259c0-1.39131 1.112011-2.53125 2.5-2.53125h65.59375c1.387992 0 2.5 1.13994 2.5 2.53125l.435841 37.16259c.000002.65574-.248479 1.24113-.65625 1.6875h.125c1.48295 0 2.687502-1.1733 2.6875-2.65625l-.435841-39.22509c0-1.48295-1.204549-2.6875-2.6875-2.6875z" fill="url(#s)" filter="url(#v)" transform="matrix(1 0 0 .91653944 16.391305 -41.797544)"/><path d="m34.53687 76.00784c-1.419208 0-2.5625 1.14329-2.5625 2.5625l.02469 37.14624h72l-.0247-37.14624c0-1.41921-1.14329-2.5625-2.5625-2.5625z" fill-opacity=".128319"/><path d="m34.580078 76.0708c-1.419208 0-2.5625 1.1433-2.5625 2.5625v37.18328l71.981482-.11658v-37.18328c0-1.4192-1.14329-2.5625-2.5625-2.5625z" fill="url(#w)" opacity=".074219"/><path d="m52.93656 80.040991c-.51955 0-.937465.417953-.9375.9375v23.062499h-11.0625c-.51955 0-.9375.41795-.9375.9375v6.125c0 .51955.417949.9375.9375.9375h12 10.125c.51955 0 .9375-.41795.9375-.9375v-6.125-23.999999c0-.51955-.417949-.9375-.9375-.9375z" fill="url(#y)" filter="url(#z)" transform="matrix(1 0 0 1.0103538 0 -1.312878)"/><path d="m112.08021 93.783789v6.718751h-1.21875-1.03125l4.34375 7.53125 4.34375-7.53125h-1.03125-1.21875v-6.718751h-2.09375z" style="opacity:.453125;fill-rule:evenodd;stroke:#fff;stroke-width:.098887;fill:url(#A);filter:url(#B)" transform="matrix(.9067163 0 0 1.1138304 4.475665 -12.395278)"/><path d="m87.693916 81.905701h4.306084v34.204989h-4.306084z" fill="url(#C)" filter="url(#D)" opacity=".296875" transform="matrix(1 0 0 1.0103538 0 -1.312878)"/><path d="m34.541033 76.321631c-1.17725 0-2.125.944804-2.125 2.118396l.176777 37.559973h55.40625v-37.701219c0-1.173593-.82275-1.97715-2-1.97715zm6.395527 7.925238h14.125c.519551 0 .9375.416652.9375.934586v21.310695c0 .51793-.41795.93459-.9375.93459h-14.125c-.519551 0-.9375-.41666-.9375-.93459v-21.310695c0-.517932.41795-.934586.9375-.934586z" fill="url(#E)"/><g opacity=".785156" stroke-dashoffset="4.15" stroke-linecap="round" stroke-linejoin="round" transform="matrix(1.4404859 0 0 .9603239 -3.047774 -5.28583)"><rect height="12" rx="1.079258" style="opacity:1;fill:none;stroke:#000;stroke-width:.931872;clip-path:url(#F);filter:url(#G)" transform="matrix(.6942102 0 0 .6942102 4.892636 5.504216)" width="8" x="12" y="12"/><rect height="12" rx="1.079258" style="opacity:1;stroke-width:.931872;clip-path:url(#J);fill:url(#H);stroke:url(#I);filter:url(#G)" transform="matrix(.6942102 0 0 .6942102 4.892636 5.504216)" width="8" x="12" y="12"/><rect fill="url(#K)" filter="url(#M)" height="3.67592" opacity="1" rx=".452268" stroke="url(#L)" stroke-width=".309276" width="4.350229" x="13.897468" y="18.030909"/></g><path d="m87.99906 76v7.71875h8v24.28125h8v-24.28125-7.71875h-8z" opacity=".35"/><g fill="#fff"><path d="m32 80h56v7.999996h-56z" opacity=".399015"/><path d="m32 108h56v4h-56z" opacity=".712"/><path d="m24 4h80v12h-80z" opacity=".275862"/></g></g><g transform="translate(6.879167 6.085417)"><path d="m-46.991242 21.13992h114.000023c2.216 0 4 .8652 4 1.94 0 1.0747-1.78433 1.902-4 1.94-36.945183.6329-74.7030655.7782-114.000023 0-2.215566-.044-4-.8653-4-1.94 0-1.0748 1.784-1.94 4-1.94z" filter="url(#ai)" opacity=".554286" transform="matrix(.03307292 0 0 .03307292 1.785648 3.269591)"/><rect fill="url(#ag)" filter="url(#ah)" height="4.39199" opacity=".577143" rx="2.439995" ry="2.195995" transform="matrix(.03307292 0 0 .06777242 -.033073 -66.435017)" width="121.99997" x="3.000028" y="1032.4822"/><path d="m.13229166.26458333c-.13229166 0-.13229166.10125437-.13229166.13229167v.39687499 1.32291661c0 .1465792.11800417.2645834.26458333.2645834h3.43958327c.1465792 0 .2645834-.1180042.2645834-.2645834v-1.32291661c0-.14657916-.1180042-.26458333-.2645834-.26458333h-2.1419881c-.0222781-.12857445-.0470961-.26458333-.1069702-.26458333z" fill="#3b6ca9" stroke-width=".264583"/><path d="m.26458333.52916666h.79374997v.2645833h-.79374997z" fill="#fcf9e9" stroke-width=".264583"/><path d="m.13229166.26458333c-.13229166 0-.13229166.10125437-.13229166.13229167v.39687499 1.32291661c0 .1465792.11800417.2645834.26458333.2645834v-1.58750001-.26458333h1.02732747c.00353.0181311.00635.0249341.00982.0449585.021874.12679349.131783.21947471.2604493.21962483h.2899032 1.8520833v1.58750001c.1465792 0 .2645834-.1180042.2645834-.2645834v-1.32291661c0-.14657916-.1180042-.26458333-.2645834-.26458333h-2.1419881c-.0222781-.12857445-.0470961-.26458333-.1069702-.26458333z" fill="url(#af)" opacity=".25" stroke-width=".264583"/><path d="m.79374999.52916666h.26458331v.2645833h-.26458331z" fill="#fbc66d" stroke-width=".264583"/><g clip-path="url(#T)" enable-background="new" transform="matrix(.03307292 0 0 -.03307292 -.002393 4.219323)"><path d="m13.333 5.3364v118.3304l49.8545-.0668c2.115554-.003 4.528919-1.77169 7-4.25.71234-.71442 1.440746-1.39395 2.15625-2.09375.415612-.40649.832187-.81443 1.25-1.21875 7.773958-7.40962 26.98341-25.122599 34.21875-33.099999.42065-.42064.81207-.8111 1.15625-1.1875 1.46444-1.49766 2.76158-2.8378 2.99375-5.8625l.0375-.73125-.0028-69.819851z" filter="url(#U)" opacity=".456067" transform="matrix(.94173025 0 0 .94148681 3.516275 3.145729)"/><path d="m12.96875 3.4375c-.000148.010416-.000148.020834 0 .03125-.921246.1949457-1.534484.9333582-1.53125 1.875v118.73736c-.000148.0104-.000148.0209 0 .0313.01925 1.0723.80288 1.85562 1.875 1.875.01042.00015.02083.00015.03125 0h52.529063c1.658286 0 4.069886.24689 7.15625-1.84375.09606-.0692.180839-.15394.25-.25-.05642.0503-.118387.22919.0625-.0625.05493-.0473.106764-.0903.1875-.15625.219835-.17951.516782-.38621.78125-.59375s.493455-.39466.65625-.53125c.0407-.0341.0777-.0491.125-.0937.02365-.0223.04509-.0687.09375-.125.02433-.0281.07533-.0459.125-.125.01159-.0185.01274-.0566.03125-.0937 9.792927-9.35059 27.456717-28.634354 38.499997-39.8125 1.71056-1.710561 3.78125-3.905917 3.78125-8.5625v-68.39361c.00015-.010416.00015-.020834 0-.03125-.0194-1.0720969-.80283-1.8556268-1.875-1.875-.0104-.0001484-.0209-.0001484-.0313 0h-102.27906c-.03303-.00313-.06067.00142-.09375 0-.08821-.00379-.161926-.00834-.25 0-.04162-.00237-.08338-.00237-.125 0z" filter="url(#V)" transform="matrix(.94173025 0 0 .94148681 3.516275 3.145729)"/><path d="m16.072365 8.0771252v111.4992648l49.707827-.0771c1.577682 0 3.686257-.53663 6.592193-3.42109 8.353294-8.2916 30.207015-29.952167 37.042715-36.912327 2.29836-2.340224 2.82611-4.248961 2.82611-6.389865l-.003-64.776008z" fill="#fff"/><path d="m22.330709 13.864607c-.32004 0-.470863.220889-.470863.470743v98.04132c0 .7735.639738 1.41283 1.412596 1.41224l38.774516-.0295c.04998-.00004.763164.022 1.412595.0295 1.67408-.0377 2.949474-.70964 4.10221-1.50006.990574-.274 27.991428-26.655867 36.581047-35.307802 1.28302-1.292303 2.05813-3.71715 2.05813-4.609153v-58.036545c0-.303834-.15371-.470743-.47087-.470743z" fill="url(#W)"/><path d="m26.330709 17.864607c-.32004 0-.470863.220889-.470863.470743l-4 94.04132c-.03287.77281.639752 1.40754 1.412596 1.41224l43.527137.26444c.04998.0003 3.083114-.007 3.732546.00004 6.159831-4.24013 28.87563-26.117493 37.299625-34.592579.61903-.694148.43093-.348416 1.36919-1.513403v-63.612058c0-.303834-.15371-.470743-.47087-.470743z" fill="url(#X)" opacity=".846535"/><path clip-path="url(#Y)" d="m116.12376 78.971565c0 4.465301-6.19771 3.506816-8.67994 5.190489-5.10854 3.46508-20.174687 2.225237-25.955857 2.306257-.081 5.781159-.937221 19.675219-.937221 25.825239 0 2.97817-3.440475 11.20945-6.350745 11.20945-2.091359 1.5337 3.488204 8.21101 6.734971 5.31989 9.501888-8.46107 35.131682-30.022704 43.350822-39.262889 2.04044-2.29392-3.18138-13.376087-8.16203-10.588436z" filter="url(#Z)" opacity=".34728" transform="matrix(1.1813248 0 0 1.2086603 -24.263752 -24.510815)"/><path clip-path="url(#Y)" d="m113.9 82.502986c0 4.465301-10.43981 5.304142-13.42995 5.727919-6.394979.906328-14.119031-.156997-19.900201-.07598-.505268 6.06824.8669 24.053995 1.224403 26.575985.418175 2.94999-3.883991 8.07209-6.794261 8.07209-2.091359 1.5337 3.488204 11.21101 6.734971 8.31989 9.501888-8.46107 45.998938-30.20138 54.218078-39.441569 2.04044-2.29392-17.07239-11.965986-22.05304-9.178335z" filter="url(#aa)" transform="matrix(1.2864191 0 0 1.3161866 -33.246593 -37.128335)"/><path d="m111.63282 69.537665c0 6.018752-3.68896 8.639938-6.96218 10.909345-6.736467 4.670565-20.601656 3.681674-28.225086 3.790881-.106814 7.792391.681931 20.811609-3.887352 27.697379-2.220198 3.3458-6.53768 8.14845-10.375353 8.14845 3.056706 0 6.25422-1.79911 10.000786-5.50589 12.055202-11.92716 22.901451-21.748749 33.854305-34.098401 2.53047-2.853145 5.59488-4.908872 5.59488-10.941764z" fill="url(#ab)"/><path d="m110.71058 68.281346c-.41723 5.255588-4.27313 7.093026-6.37262 8.548644-4.977757 3.451183-11.590079 3.17001-32.33796 3.17001 0 19.101497.485919 27.6002-3.129233 32.26786-2.152106 2.77868-6.461106 5.87696-9.97277 6.67209 4.811835 0 8.170308-1.05121 11.313766-4.16129.447183-.5237 9.086767-9.67199 9.788237-10.77866 0-8 0-4.430898 0-16 7.62343-.109179 8 0 16 0 .746829 0 10.14294-9.613144 10.69263-10.162835 3.05326-3.053253 3.71528-4.99949 4.01795-9.555819zm-51.812583 50.658604c-.207898.0469-.413317.0558-.618125.0842.20702-.0228.409371-.0452.618125-.0842z" fill="#fff"/><path clip-path="url(#ad)" d="m108.97651 89.508691-29.041615 28.702079" fill="none" filter="url(#ae)" stroke="url(#ac)" stroke-width="1.85606" transform="matrix(1.3186655 0 0 1.3478946 -36.057732 -41.667663)"/></g><path clip-path="url(#R)" d="m25.67146 956.10785-21.6714601-.15854.0000002 57.33469 107.8857499-.02v-60.57188c0-2.54081-2.05959-4.58387-4.62097-4.58387h-69.59332c-9.375263 0-5.067235 7.84799-12 8z" fill="#16375b" fill-opacity=".801471" filter="url(#S)" transform="matrix(.03923904 0 0 .03923904 -.156956 -35.526159)"/><g stroke-width=".264583"><path d="m.26458333 2.1166666h.66145832l.26458335-.2645833h2.778125c.1465791 0 .2645833.1180042.2645833.2645833v1.5875c0 .1465792-.1180042.2645834-.2645833.2645834h-3.70416667c-.14657916 0-.26458333-.1180042-.26458333-.2645834v-1.3229166c0-.1465792.15012423-.3561506.26458333-.2645834z" fill="url(#Q)"/><path d="m1.190625 1.8520833-.26458335.2645833h-.66145832c-.14657916 0-.26458333.1180042-.26458333.2645834v.2645833c0-.1465792.15012424-.3561506.26458333-.2645833h.66145832l.26458335-.2645834h2.778125c.1465791 0 .2645833.1180042.2645833.2645834v-.2645834c0-.1465791-.1180042-.2645833-.2645833-.2645833z" fill="#a4c0e8"/><path d="m0 3.175h4.2333333v.2645833h-4.2333333z" fill="#385da4"/><path d="m0 3.175h1.8520833 2.38125v.2645833h-4.2333333z" fill="url(#P)"/><path d="m0 3.4395833h4.2333333v.1322917h-4.2333333z" fill="#a4c0e8"/><path d="m.26458333 2.1166666c-.14566305 0-.26260419.1166949-.26406657.2619996v1.3280843c.00006085.00605.00316129.011112.00361735.017052.01008301.084948.19871489.2444099.26044922.2449471.00010361.0000007.00041275 0 .00051594 0v-1.852083z" fill="url(#O)" opacity=".594286"/><path d="m3.96875 1.8520833v2.1166667c.1465791 0 .2645833-.1180042.2645833-.2645834v-1.5875c0-.1465791-.1180042-.2645833-.2645833-.2645833z" fill="url(#N)" opacity=".405714"/></g></g></svg>