<svg height="32" viewBox="0 0 8.4666665 8.4666669" width="32" xmlns="http://www.w3.org/2000/svg" xmlns:xlink="http://www.w3.org/1999/xlink"><linearGradient id="a" gradientUnits="userSpaceOnUse" x1="153.993553" x2="153.993553" xlink:href="#b" y1="158.617931" y2="156.442384"/><linearGradient id="b"><stop offset="0" stop-color="#06f"/><stop offset="1" stop-color="#80b3ff"/></linearGradient><linearGradient id="c" gradientUnits="userSpaceOnUse" x1="154.34826" x2="154.34826" xlink:href="#b" y1="155.258212" y2="153.052766"/><linearGradient id="d" gradientUnits="userSpaceOnUse" x1="78.611023" x2="120.34367" y1="1011.2147" y2="1033.9094"><stop offset="0" stop-color="#fff"/><stop offset="1" stop-color="#ccc"/></linearGradient><linearGradient id="e" gradientUnits="userSpaceOnUse" x1="100.83469" x2="116.42816" y1="35.992722" y2="78.92421"><stop offset="0" stop-color="#fff" stop-opacity=".683453"/><stop offset="1" stop-color="#fff" stop-opacity="0"/></linearGradient><linearGradient id="f" gradientTransform="matrix(.5963646 0 0 .63697579 63.973311 385.80879)" gradientUnits="userSpaceOnUse" x1="65.456863" x2="65.985519" y1="947.38373" y2="1011.6694"><stop offset="0" stop-color="#363636"/><stop offset="1" stop-color="#cdcdcd"/></linearGradient><linearGradient id="g" gradientUnits="userSpaceOnUse" x1="88.38102" x2="133.95906" y1="1008.9966" y2="1022.4098"><stop offset="0" stop-color="#5e5e5e"/><stop offset="1" stop-color="#5e5e5e" stop-opacity="0"/></linearGradient><filter id="h" color-interpolation-filters="sRGB" height="1.12903" width="1.240695" x="-.120348" y="-.064515"><feGaussianBlur stdDeviation="1.8475301"/></filter><linearGradient id="i" gradientUnits="userSpaceOnUse" x1="102.76828" x2="102.87263" y1="996.59485" y2="1014.126"><stop offset="0" stop-color="#979797"/><stop offset=".148461" stop-color="#f6f6f6"/><stop offset=".28399727" stop-color="#e2e2e2"/><stop offset=".59572202" stop-color="#dedede"/><stop offset=".73809379" stop-color="#f6f6f6"/><stop offset="1" stop-color="#6b6b6b"/></linearGradient><linearGradient id="j" gradientUnits="userSpaceOnUse" x1="102.6542" x2="102.70658" y1="-1035.715" y2="-1014.9489"><stop offset="0" stop-color="#777"/><stop offset=".07421063" stop-color="#a8a8a8"/><stop offset=".22864534" stop-color="#cdcdcd"/><stop offset=".34561315" stop-color="#f7f7f7"/><stop offset="1" stop-color="#fff"/></linearGradient><linearGradient id="k"><stop offset="0" stop-color="#555753"/><stop offset=".5" stop-color="#2e3436"/><stop offset="1" stop-color="#555753"/></linearGradient><linearGradient id="l" gradientTransform="matrix(.30868056 0 0 .41157411 -2.822222 253.72591)" gradientUnits="userSpaceOnUse" x1="29.713511" x2="105.14208" y1="17.714874" y2="120.57201"><stop offset="0" stop-color="#fff"/><stop offset=".42597079" stop-color="#fff"/><stop offset=".5892781" stop-color="#f1f1f1"/><stop offset=".80219781" stop-color="#eaeaea"/><stop offset="1" stop-color="#dfdfdf"/></linearGradient><linearGradient id="m" gradientTransform="matrix(.03441176 0 0 .055299 -2.365658 232.74525)" gradientUnits="userSpaceOnUse" x1="399.77466" x2="399.77466" y1="1164.6696" y2="549.06134"><stop offset="0" stop-color="#b4b4b6"/><stop offset=".5" stop-color="#9c9ca1"/><stop offset="1" stop-color="#cdcdd1"/></linearGradient><linearGradient id="n" gradientTransform="matrix(.86363634 0 0 1 .577273 0)" gradientUnits="userSpaceOnUse" x1="3.314255" x2="7.14375" xlink:href="#k" y1="290.91458" y2="290.78229"/><linearGradient id="o" gradientTransform="matrix(.56818181 0 0 1 .968134 1.587501)" gradientUnits="userSpaceOnUse" x1="4.34975" x2="9.006416" xlink:href="#k" y1="289.98853" y2="289.98853"/><linearGradient id="p" gradientTransform="matrix(.56818181 0 0 1 2.687926 3.968744)" gradientUnits="userSpaceOnUse" x1="1.322917" x2="7.14375" xlink:href="#k" y1="290.78229" y2="290.78229"/><linearGradient id="q" gradientTransform="matrix(.86363634 0 0 1 2.297065 3.968759)" gradientUnits="userSpaceOnUse" x1="1.322917" x2="7.14375" xlink:href="#k" y1="289.98853" y2="289.98853"/><g transform="translate(0 -288.53332)"><g transform="matrix(.25 0 0 .25 .00006 222.74993)"><rect fill="url(#m)" height="29.633347" rx=".755952" ry=".732692" width="29.633333" x="2.116428" y="265.25021"/><rect fill="url(#l)" fill-rule="evenodd" height="27.516697" rx=".463021" width="27.516665" x="3.174761" y="266.30856"/></g><path d="m3.439583 290.64999h3.439583v.264576h-3.439583z" fill="url(#n)"/><path d="m3.439583 291.44373h2.645833v.264594h-2.645833z" fill="url(#o)"/><path d="m3.439583 294.61871h2.645833v.264607h-2.645833z" fill="url(#p)"/><path d="m3.439583 293.82498h3.439583v.264588h-3.439583z" fill="url(#q)"/><g transform="translate(-151.87088 136.26045)"><path d="m153.66229 155.44174v-.19441h.32463v-.8939l-.3144.19627v-.20557l.32836-.21301h.24742v1.11621h.30045v.19441z" stroke="url(#c)" stroke-linejoin="round" stroke-width=".529167"/><path d="m153.66231 155.44177v-.19441h.32463v-.8939l-.3144.19627v-.20557l.32835-.21301h.24743v1.11621h.30045v.19441z" fill="#bfd9ff"/><path d="m153.64038 158.61794v-.18066q.051-.11209.14452-.21863.0945-.10654.23716-.22234.13711-.11117.19177-.18344.0556-.0723.0556-.14174 0-.17046-.17139-.17046-.0834 0-.12785.0454-.0435.0445-.0565.13433l-.26218-.0148q.0222-.18157.13526-.277.11395-.0954.30943-.0954.21122 0 .32424.0964.11303.0964.11303.27052 0 .0917-.0361.16582-.0361.0741-.0926.13712-.0565.0621-.12599.11672-.0686.0547-.1334.10654-.0649.0519-.11859.10469-.0528.0528-.0787.11302h.60588v.21401z" fill="none" stroke="url(#a)" stroke-linejoin="round" stroke-width=".529167"/><path d="m153.64038 158.6179v-.18065q.051-.11209.14452-.21863.0945-.10654.23716-.22234.13711-.11117.19177-.18344.0556-.0723.0556-.14174 0-.17046-.17139-.17046-.0834 0-.12785.0454-.0435.0445-.0565.13434l-.26218-.0148q.0222-.18158.13526-.277.11395-.0954.30943-.0954.21122 0 .32424.0964.11303.0964.11303.27051 0 .0917-.0361.16583-.0361.0741-.0926.13711-.0565.0621-.12599.11673-.0686.0547-.1334.10654-.0649.0519-.11859.10469-.0528.0528-.0787.11302h.60588v.214z" fill="#bfd9ff"/></g></g><g transform="matrix(.06614583 0 0 .06614583 -.000011 -61.010418)"><path d="m76.00017 972.36227h52v78.00003h-52z" fill="#4d4d4d"/><path d="m78.00017 974.36227h48v74.00003l-48.00003.0002z" fill="url(#d)"/><path d="m78.00017 50.000114-.194435 51.031136c16.429399-20.561618 32.830915-27.545067 47.713795-28.796875l-.017-22.234261z" fill="url(#e)" fill-rule="evenodd" transform="translate(0 924.36216)"/><path d="m92.000171 990.36228h19.999999v42.14552h-19.999999z" fill="url(#f)"/><path d="m92.81509 1029.6319c1.071428 1.4286 10.71429 15.3572 11.78571 13.5715 1.07143-1.7858 22.12998-25.1362 20.70141-26.5648-1.42857-1.4285-29.629977-42.00667-29.629977-42.00667z" fill="url(#g)" fill-rule="evenodd" filter="url(#h)" transform="matrix(.69309305 0 0 .69309305 41.154082 321.73716)"/><path d="m94.000171 992.36228h15.999999v36.12292h-15.999999z" fill="#171717"/><path d="m96.000171 996.36228h11.999999v18.00002h-11.999999z" fill="url(#i)"/><path d="m96.000171-1036.3464h11.999999v21.9841h-11.999999z" fill="url(#j)" transform="scale(1 -1)"/></g></svg>