<?xml version="1.0" encoding="UTF-8" standalone="no"?>
<svg
   xmlns:dc="http://purl.org/dc/elements/1.1/"
   xmlns:cc="http://creativecommons.org/ns#"
   xmlns:rdf="http://www.w3.org/1999/02/22-rdf-syntax-ns#"
   xmlns:svg="http://www.w3.org/2000/svg"
   xmlns="http://www.w3.org/2000/svg"
   xmlns:xlink="http://www.w3.org/1999/xlink"
   xmlns:sodipodi="http://sodipodi.sourceforge.net/DTD/sodipodi-0.dtd"
   xmlns:inkscape="http://www.inkscape.org/namespaces/inkscape"
   height="32"
   viewBox="0 0 8.4666665 8.4666669"
   width="32"
   version="1.1"
   id="svg23"
   sodipodi:docname="numberformatdecimal.svg"
   inkscape:version="0.92.4 (unknown)">
  <metadata
     id="metadata29">
    <rdf:RDF>
      <cc:Work
         rdf:about="">
        <dc:format>image/svg+xml</dc:format>
        <dc:type
           rdf:resource="http://purl.org/dc/dcmitype/StillImage" />
      </cc:Work>
    </rdf:RDF>
  </metadata>
  <defs
     id="defs27" />
  <sodipodi:namedview
     pagecolor="#ffffff"
     bordercolor="#666666"
     borderopacity="1"
     objecttolerance="10"
     gridtolerance="10"
     guidetolerance="10"
     inkscape:pageopacity="0"
     inkscape:pageshadow="2"
     inkscape:window-width="1366"
     inkscape:window-height="706"
     id="namedview25"
     showgrid="false"
     inkscape:zoom="7.375"
     inkscape:cx="10.649678"
     inkscape:cy="16.142006"
     inkscape:window-x="0"
     inkscape:window-y="0"
     inkscape:window-maximized="1"
     inkscape:current-layer="svg23" />
  <linearGradient
     id="a"
     gradientUnits="userSpaceOnUse"
     x1="3.533261"
     x2="3.178232"
     xlink:href="#b"
     y1="6.536628"
     y2="1.266435" />
  <linearGradient
     id="b"
     gradientUnits="userSpaceOnUse"
     x1="3.825946"
     x2="3.825946"
     y1="295.92435"
     y2="291.72922">
    <stop
       offset="0"
       stop-color="#555"
       id="stop3" />
    <stop
       offset="1"
       id="stop5" />
  </linearGradient>
  <linearGradient
     id="c"
     gradientUnits="userSpaceOnUse"
     x1="4.616495"
     x2="4.616495"
     xlink:href="#b"
     y1="295.942539"
     y2="290.182205" />
  <g
     transform="translate(0 -288.53332)"
     id="g21">
    <g
       fill="url(#a)"
       stroke-width=".132303"
       transform="translate(12.7 287.47499)"
       id="g15" />
    <g
       aria-label="0,0"
       style="font-size:7.68044376px;font-family:sans-serif;letter-spacing:0;word-spacing:0;fill:url(#c);stroke-width:0.192011"
       id="text19">
      <path
         d="m 2.9959197,294.67907 q -0.4761875,0.73732 -1.2595928,0.73732 -0.78340522,0 -1.25959273,-0.75268 -0.4761875128,-0.75268 -0.4761875128,-1.93547 0,-1.11367 0.4761875128,-1.85867 0.47618751,-0.75268 1.29031453,-0.75268 0.7526835,0 1.228871,0.73732 0.4761875,0.73732 0.4761875,1.92011 0,1.16743 -0.4761875,1.90475 z m -1.2519123,-4.36249 q -1.00613814,0 -1.00613814,2.48078 0,2.41934 0.99845764,2.41934 0.9984577,0 0.9984577,-2.42702 0,-1.20583 -0.2534546,-1.83562 -0.2534547,-0.63748 -0.7373226,-0.63748 z"
         style="font-family:FreeSerif;letter-spacing:-0.38316053;fill:url(#c);stroke-width:0.192011"
         id="path836" />
      <path
         d="m 4.3639003,295.32423 q 0,0 -0.061444,0.0154 -0.069124,0.0154 -0.1459285,0.0154 -0.207372,0 -0.3302591,-0.0998 -0.1228871,-0.10753 -0.1228871,-0.29186 0,-0.19201 0.1228871,-0.3149 0.1305676,-0.12289 0.3302591,-0.12289 0.2611351,0 0.4377853,0.19969 0.1766502,0.19202 0.1766502,0.48387 0,0.34562 -0.2380937,0.6682 -0.2380938,0.32258 -0.622116,0.51459 l -0.069124,-0.14593 q 0.6297964,-0.4301 0.6297964,-0.81412 0,-0.10753 -0.1075262,-0.10753 z"
         style="font-family:FreeSerif;letter-spacing:-0.38316053;fill:url(#c);stroke-width:0.192011"
         id="path838" />
      <path
         d="m 7.9899316,294.67907 q -0.4761875,0.73732 -1.2595928,0.73732 -0.7834052,0 -1.2595928,-0.75268 -0.4761875,-0.75268 -0.4761875,-1.93547 0,-1.11367 0.4761875,-1.85867 0.4761876,-0.75268 1.2903146,-0.75268 0.7526835,0 1.228871,0.73732 0.4761875,0.73732 0.4761875,1.92011 0,1.16743 -0.4761875,1.90475 z m -1.2519123,-4.36249 q -1.0061382,0 -1.0061382,2.48078 0,2.41934 0.9984577,2.41934 0.9984577,0 0.9984577,-2.42702 0,-1.20583 -0.2534546,-1.83562 -0.2534547,-0.63748 -0.7373226,-0.63748 z"
         style="font-family:FreeSerif;letter-spacing:-0.38316053;fill:url(#c);stroke-width:0.192011"
         id="path840" />
    </g>
  </g>
</svg>
