<?xml version="1.0" encoding="UTF-8" standalone="no"?>
<svg
   xmlns:dc="http://purl.org/dc/elements/1.1/"
   xmlns:cc="http://creativecommons.org/ns#"
   xmlns:rdf="http://www.w3.org/1999/02/22-rdf-syntax-ns#"
   xmlns:svg="http://www.w3.org/2000/svg"
   xmlns="http://www.w3.org/2000/svg"
   xmlns:xlink="http://www.w3.org/1999/xlink"
   xmlns:sodipodi="http://sodipodi.sourceforge.net/DTD/sodipodi-0.dtd"
   xmlns:inkscape="http://www.inkscape.org/namespaces/inkscape"
   height="32"
   viewBox="0 0 8.4666665 8.466667"
   width="32"
   version="1.1"
   id="svg20"
   sodipodi:docname="bold.svg"
   inkscape:version="0.92.4 (unknown)"
   inkscape:export-filename="/home/rizmut/Dokumen/Rizmut/Github/libreoffice-style-karasa-jaga/build/next/cmd/32/ru/bold.png"
   inkscape:export-xdpi="96"
   inkscape:export-ydpi="96">
  <metadata
     id="metadata26">
    <rdf:RDF>
      <cc:Work
         rdf:about="">
        <dc:format>image/svg+xml</dc:format>
        <dc:type
           rdf:resource="http://purl.org/dc/dcmitype/StillImage" />
        <dc:title></dc:title>
      </cc:Work>
    </rdf:RDF>
  </metadata>
  <defs
     id="defs24">
    <linearGradient
       inkscape:collect="always"
       xlink:href="#a"
       id="linearGradient827"
       gradientUnits="userSpaceOnUse"
       gradientTransform="matrix(1.2159761,0,0,1.2159761,-8.9946425,-328.21385)"
       x1="18.708687"
       y1="292.76666"
       x2="18.646311"
       y2="276.03159" />
    <linearGradient
       inkscape:collect="always"
       xlink:href="#b"
       id="linearGradient846"
       x1="67.999992"
       y1="20.000004"
       x2="63.999996"
       y2="60"
       gradientUnits="userSpaceOnUse" />
  </defs>
  <sodipodi:namedview
     pagecolor="#ffffff"
     bordercolor="#666666"
     borderopacity="1"
     objecttolerance="10"
     gridtolerance="10"
     guidetolerance="10"
     inkscape:pageopacity="0"
     inkscape:pageshadow="2"
     inkscape:window-width="1366"
     inkscape:window-height="706"
     id="namedview22"
     showgrid="true"
     inkscape:zoom="11.313709"
     inkscape:cx="36.662463"
     inkscape:cy="11.944284"
     inkscape:window-x="0"
     inkscape:window-y="0"
     inkscape:window-maximized="1"
     inkscape:current-layer="svg20">
    <inkscape:grid
       type="xygrid"
       id="grid821"
       spacingx="0.13229167"
       spacingy="0.13229167" />
  </sodipodi:namedview>
  <linearGradient
     id="a"
     gradientUnits="userSpaceOnUse"
     x1="18.708687"
     x2="19.767019"
     y1="292.76666"
     y2="268.42499"
     gradientTransform="translate(-2.907771,-263.42964)">
    <stop
       offset="0"
       stop-color="#555"
       id="stop2" />
    <stop
       offset="1"
       id="stop4" />
  </linearGradient>
  <linearGradient
     id="b"
     gradientUnits="userSpaceOnUse"
     x1="44.923828"
     x2="44.566963"
     y1="7.5816121"
     y2="97.581612"
     gradientTransform="scale(0.26458333)">
    <stop
       offset="0"
       stop-color="#3b3e22"
       id="stop7" />
    <stop
       offset="1"
       stop-color="#454545"
       stop-opacity="0"
       id="stop9" />
  </linearGradient>
  <g
     id="g873"
     transform="scale(0.25)">
    <text
       id="text825"
       y="27.519527"
       x="-1.1959808"
       style="font-size:42.80195618px;font-family:sans-serif;letter-spacing:0;word-spacing:0;fill:url(#linearGradient827);stroke-width:1.07004893">
      <tspan
         style="font-weight:bold;font-size:45.04177475px;font-family:FreeSerif;fill:url(#linearGradient827);stroke-width:1.07004893"
         id="tspan823"
         y="27.519527"
         x="-1.1959808"
         font-weight="bold"
         font-size="37.041668">ж</tspan>
    </text>
    <path
       id="text831"
       transform="scale(0.26458334)"
       d="m 14.71875,25.660156 c -3.258973,0 -5.6722967,0.992613 -7.6328125,3.041016 -1.9020325,2.107729 -2.796875,4.413561 -2.796875,7.210937 0,3.550231 0.9306389,5.808368 2.6425781,7.25 1.9128219,1.610797 3.8140044,2.324219 5.9121094,2.324219 3.149784,0 4.902125,-1.09538 6.158203,-3.800781 a 1.6580404,1.6580404 0 0 1 0.02148,-0.03711 c 0.125703,-0.251407 0.416613,-1.02673 0.746093,-2.125 a 1.6580404,1.6580404 0 0 1 0.04297,-0.132813 c 0.488147,-1.220364 0.98397,-2.194808 1.609375,-2.976563 0.668261,-0.835326 1.712458,-1.474609 2.828125,-1.474609 1.28648,0 2.518695,0.652537 3.373047,1.623047 0.854351,0.97051 1.452546,2.235012 1.949219,3.787109 1.019254,2.718437 2.318801,6.200142 3.896484,10.482422 1.514511,3.998831 3.524087,7.036941 6.001953,9.205078 a 1.6580404,1.6580404 0 0 1 0.568359,1.248047 v 0.677735 a 1.6580404,1.6580404 0 0 1 -1.30664,1.617187 c -4.810755,1.049618 -8.626946,2.787499 -11.570313,5.150391 a 86.000003,29.999998 0 0 0 13.556641,1.941406 c 0.235109,-0.370059 0.627619,-0.97985 0.605469,-0.935547 a 1.6580404,1.6580404 0 0 1 0.310547,-0.427734 l 1.083984,-1.091797 c 0.617941,-0.741528 1.104272,-1.282186 2.023438,-1.625 0.487925,-0.273834 1.003658,-0.485556 1.572265,-0.605469 0.803724,-0.255246 1.627333,-0.406246 2.451172,-0.40625 h 3.402344 a 1.6580404,1.6580404 0 0 1 1.660156,1.66211 v 4.417968 A 86.000003,29.999998 0 0 0 66,72 86.000003,29.999998 0 0 0 74.173828,71.837891 v -4.595703 a 1.6580404,1.6580404 0 0 1 1.660156,-1.66211 h 3.402344 c 0.66144,0 1.285077,0.06965 1.882813,0.214844 0.67765,0.137851 1.321399,0.343319 1.919921,0.642578 0.501907,0.250953 0.928338,0.538085 1.320313,0.900391 0.529281,0.379483 0.972769,0.830706 1.447266,1.423828 0.333498,0.41687 0.512707,0.818539 0.730468,1.21875 0.007,0.007 0.01646,0.02225 0.02344,0.0293 0.269918,0.272854 0.540379,0.617416 0.841797,1.021484 a 86.000003,29.999998 0 0 0 13.617184,-1.671875 c -0.0603,-0.0488 -0.11479,-0.09769 -0.17578,-0.146484 a 1.6580404,1.6580404 0 0 1 -0.0508,-0.03711 c -3.067343,-2.644259 -6.883474,-4.51119 -11.546874,-5.595703 a 1.6580404,1.6580404 0 0 1 -1.283203,-1.617187 v -0.677735 a 1.6580404,1.6580404 0 0 1 0.568359,-1.248047 c 2.477866,-2.168137 4.48744,-5.206247 6.001953,-9.205078 l 0.0059,-0.0078 c 1.584186,-4.299908 2.884444,-7.808183 3.90625,-10.533203 l 0.0078,-0.02344 c 0.555454,-1.537005 1.203545,-2.776714 2.080075,-3.726562 0.88125,-0.954952 2.10219,-1.601563 3.38868,-1.601563 1.07005,0 2.11836,0.695292 2.6875,1.556641 0.64473,0.830954 1.07377,1.843656 1.43164,3.121094 0.38962,0.975986 0.61625,1.575838 0.76757,2.009765 1.47464,2.733997 3.3408,3.859375 6.34961,3.859375 2.09811,0 3.99005,-0.71222 5.9043,-2.324219 1.71194,-1.441632 2.64258,-3.699773 2.64258,-7.25 0,-2.783602 -0.92954,-5.080706 -2.94531,-7.197265 -1.96519,-2.063445 -4.37678,-3.054688 -7.64649,-3.054688 -4.73378,0 -8.50968,1.3099 -11.60547,3.941406 -3.09579,2.631507 -5.539413,6.661322 -7.234372,12.238282 a 1.6580404,1.6580404 0 0 1 -0.01367,0.04492 c -0.07655,0.22964 -0.183297,0.637195 -0.289063,1.166015 a 1.6580404,1.6580404 0 0 1 -0.03711,0.16211 c -0.912783,2.966532 -1.772807,5.597256 -2.576172,7.892578 a 1.6580404,1.6580404 0 0 1 -0.0059,0.0293 c -0.880478,2.389882 -2.36152,4.750573 -4.384765,7.130859 -2.04531,2.426585 -4.679663,3.824219 -7.560547,3.824219 h -3.572266 a 1.6580404,1.6580404 0 0 1 -1.660156,-1.66211 V 39.832031 c 0,-4.097489 0.227364,-6.821315 1.726563,-8.695312 a 1.6580404,1.6580404 0 0 1 0.05859,-0.07422 c 1.418268,-1.575848 3.844761,-2.245526 7.064454,-2.789062 V 27.195312 H 45.65625 v 1.158204 c 2.332297,0.47963 4.396189,1.410787 5.765625,3.123046 1.676205,2.095827 2.40625,4.940848 2.40625,8.355469 v 20.595703 a 1.6580404,1.6580404 0 0 1 -1.660156,1.66211 h -3.572266 c -2.966702,0 -5.674039,-1.376962 -7.730469,-3.810547 v -0.0059 C 38.331122,55.336711 36.135065,49.974944 33.728516,41.839844 v -0.0059 C 32.034349,36.263118 29.578199,32.240608 26.457031,29.609375 23.334516,26.977006 19.512799,25.660156 14.71875,25.660156 Z m 93.32227,13.957032 c -0.0113,-0.02831 -0.01,-0.0296 -0.0215,-0.05859 l 0.0586,0.177734 c -0.0115,-0.04204 -0.0255,-0.07767 -0.0371,-0.11914 z"
       style="font-size:42.80195618px;font-family:sans-serif;letter-spacing:0;word-spacing:0;fill:url(#linearGradient846);fill-opacity:1;stroke-width:4.04427958"
       inkscape:connector-curvature="0" />
  </g>
</svg>
