<?xml version="1.0" encoding="UTF-8" standalone="no"?>
<svg
   xmlns:dc="http://purl.org/dc/elements/1.1/"
   xmlns:cc="http://creativecommons.org/ns#"
   xmlns:rdf="http://www.w3.org/1999/02/22-rdf-syntax-ns#"
   xmlns:svg="http://www.w3.org/2000/svg"
   xmlns="http://www.w3.org/2000/svg"
   xmlns:xlink="http://www.w3.org/1999/xlink"
   xmlns:sodipodi="http://sodipodi.sourceforge.net/DTD/sodipodi-0.dtd"
   xmlns:inkscape="http://www.inkscape.org/namespaces/inkscape"
   height="32"
   viewBox="0 0 8.4666665 8.466667"
   width="32"
   version="1.1"
   id="svg20"
   sodipodi:docname="underline.svg"
   inkscape:version="0.92.4 (unknown)"
   inkscape:export-filename="/home/rizmut/Dokumen/Rizmut/Github/libreoffice-style-karasa-jaga/build/next/cmd/32/ru/underline.png"
   inkscape:export-xdpi="96"
   inkscape:export-ydpi="96">
  <metadata
     id="metadata26">
    <rdf:RDF>
      <cc:Work
         rdf:about="">
        <dc:format>image/svg+xml</dc:format>
        <dc:type
           rdf:resource="http://purl.org/dc/dcmitype/StillImage" />
        <dc:title></dc:title>
      </cc:Work>
    </rdf:RDF>
  </metadata>
  <defs
     id="defs24">
    <linearGradient
       inkscape:collect="always"
       xlink:href="#a"
       id="linearGradient833"
       gradientUnits="userSpaceOnUse"
       gradientTransform="matrix(1.3125088,0,0,1.3125089,-4.4132593,-357.73477)"
       x1="18.708687"
       y1="292.76666"
       x2="18.753332"
       y2="275.57822" />
    <linearGradient
       inkscape:collect="always"
       xlink:href="#b"
       id="linearGradient850"
       x1="63.999996"
       y1="8.0000048"
       x2="63.999996"
       y2="56.000004"
       gradientUnits="userSpaceOnUse" />
  </defs>
  <sodipodi:namedview
     pagecolor="#ffffff"
     bordercolor="#666666"
     borderopacity="1"
     objecttolerance="10"
     gridtolerance="10"
     guidetolerance="10"
     inkscape:pageopacity="0"
     inkscape:pageshadow="2"
     inkscape:window-width="1366"
     inkscape:window-height="706"
     id="namedview22"
     showgrid="true"
     inkscape:zoom="7.3750001"
     inkscape:cx="12.161486"
     inkscape:cy="26.622564"
     inkscape:window-x="0"
     inkscape:window-y="0"
     inkscape:window-maximized="1"
     inkscape:current-layer="g878">
    <inkscape:grid
       type="xygrid"
       id="grid825"
       spacingx="0.13229167"
       spacingy="0.13229167" />
  </sodipodi:namedview>
  <linearGradient
     id="a"
     gradientUnits="userSpaceOnUse"
     x1="18.708687"
     x2="19.767019"
     y1="292.76666"
     y2="268.42499"
     gradientTransform="matrix(0.96976693,0,0,0.96976693,1.0596924,-256.77543)">
    <stop
       offset="0"
       stop-color="#555"
       id="stop2" />
    <stop
       offset="1"
       id="stop4" />
  </linearGradient>
  <linearGradient
     id="b"
     gradientUnits="userSpaceOnUse"
     x1="44.923828"
     x2="44.566963"
     y1="7.5816121"
     y2="97.581612"
     gradientTransform="scale(0.26458333)">
    <stop
       offset="0"
       stop-color="#3b3e22"
       id="stop7" />
    <stop
       offset="1"
       stop-color="#454545"
       stop-opacity="0"
       id="stop9" />
  </linearGradient>
  <g
     id="g878"
     transform="scale(0.25)">
    <g
       aria-label="ч"
       transform="scale(1.0311756,0.96976693)"
       style="font-size:46.19987869px;font-family:sans-serif;letter-spacing:0;word-spacing:0;fill:url(#linearGradient833);stroke-width:1.15499735"
       id="text831">
      <path
         d="m 11.929171,12.52917 q 0,1.604378 0.97235,2.673963 1.020968,1.020968 2.771198,1.020968 1.069586,0 2.285024,-0.38894 1.264055,-0.38894 1.9447,-0.77788 l 0.680645,-0.340323 V 8.6397687 q 0,-1.8960831 -0.632027,-2.6253459 Q 19.367651,5.2851601 17.471567,5.09069 V 4.3614273 H 27.778481 V 5.09069 Q 25.83378,5.3337776 25.25037,6.0144228 24.66696,6.6464505 24.66696,8.6397687 V 21.280323 q 0,2.528111 0.58341,3.257373 0.58341,0.729263 2.528111,0.972351 v 0.729262 H 17.471567 v -0.729262 q 1.993319,-0.243088 2.528111,-0.923733 0.58341,-0.680645 0.58341,-3.305991 v -5.299309 q -2.72258,1.701613 -6.077189,1.701613 -0.97235,0 -1.993318,-0.19447 Q 11.491613,17.245069 10.37341,16.758894 9.2552073,16.224101 8.5259446,15.154516 7.8452994,14.08493 7.8452994,12.626405 V 8.6397687 Q 7.7966819,6.597833 7.2132717,5.9658053 6.6298615,5.3337776 4.7337784,5.09069 V 4.3614273 H 15.040692 V 5.09069 q -1.896083,0.2430876 -2.528111,0.9237328 -0.58341,0.6320277 -0.58341,2.6253459 z"
         style="font-style:normal;font-variant:normal;font-weight:normal;font-stretch:normal;font-size:48.61751556px;font-family:FreeSerif;-inkscape-font-specification:FreeSerif;fill:url(#linearGradient833);stroke-width:1.15499735"
         id="path880" />
    </g>
    <rect
       height="2.1166739"
       rx="0.47207496"
       ry="0.92470002"
       width="27.516666"
       x="3.175"
       y="28.574993"
       id="rect13"
       style="fill:#0e0e0e;stroke-width:1" />
    <path
       id="text837"
       transform="scale(0.26458334)"
       d="m 19.982422,17.423828 v 0.07227 c 4.258568,0.626672 7.45473,1.557553 9.255859,3.392578 2.059011,2.097758 2.739433,5.622764 2.869141,10.746094 a 1.5294064,1.438327 0 0 1 0,0.03516 v 14.61132 c 0,3.33225 0.807693,6.109436 2.398437,8.46875 1.751366,2.409836 3.918707,4.182107 6.56836,5.376953 0.0052,0.0023 0.01045,0.0035 0.01563,0.0059 2.799533,1.141473 5.467877,1.988977 7.992187,2.556641 2.555131,0.45597 5.039773,0.6875 7.453125,0.6875 8.456816,0 16.046007,-2.004098 22.88086,-6.021484 a 1.5294064,1.438327 0 0 1 2.33789,1.216797 v 9.710937 A 64.492845,32.602184 0 0 0 94.601562,66.642578 V 31.669922 c 0,-4.999307 0.623651,-8.479527 2.671876,-10.580078 1.804573,-1.96239 5.088602,-2.949301 9.462892,-3.585938 v -0.08008 H 69.619141 v 0.07227 c 4.270653,0.559264 7.536934,1.559268 9.310547,3.628906 2.056654,2.249658 2.824218,5.76743 2.824218,10.544922 v 22.271484 a 1.5294064,1.438327 0 0 1 -0.845703,1.28711 l -2.65625,1.246093 0.07617,-0.04297 c -1.926475,1.035286 -4.539698,2.011378 -7.878906,2.978515 -3.282354,0.987803 -6.407076,1.496094 -9.371094,1.496094 -4.845318,0 -8.912529,-1.381807 -11.873047,-4.166016 a 1.5294064,1.438327 0 0 1 -0.05469,-0.05078 C 46.368208,53.811307 44.96484,50.134953 44.964844,45.923828 V 31.669922 c 0,-5.010003 0.610017,-8.500901 2.671875,-10.601563 a 1.5294064,1.438327 0 0 1 0.0078,-0.0078 c 1.88535,-1.909464 5.154187,-2.912862 9.445313,-3.556641 v -0.08008 z"
       style="font-size:46.19987869px;font-family:sans-serif;letter-spacing:0;word-spacing:0;fill:url(#linearGradient850);fill-opacity:1;stroke-width:4.36534405"
       inkscape:connector-curvature="0" />
  </g>
</svg>
