<?xml version="1.0" encoding="UTF-8" standalone="no"?>
<svg
   xmlns:dc="http://purl.org/dc/elements/1.1/"
   xmlns:cc="http://creativecommons.org/ns#"
   xmlns:rdf="http://www.w3.org/1999/02/22-rdf-syntax-ns#"
   xmlns:svg="http://www.w3.org/2000/svg"
   xmlns="http://www.w3.org/2000/svg"
   xmlns:xlink="http://www.w3.org/1999/xlink"
   xmlns:sodipodi="http://sodipodi.sourceforge.net/DTD/sodipodi-0.dtd"
   xmlns:inkscape="http://www.inkscape.org/namespaces/inkscape"
   height="128"
   viewBox="0 0 33.866666 33.866668"
   width="128"
   version="1.1"
   id="svg2341"
   sodipodi:docname="dbtabledelete.svg"
   inkscape:version="0.92.3 (unknown)"
   inkscape:export-filename="/home/rizmut/Dokumen/Rizmut/Github/libreoffice-style-karasa-jaga/build/images_karasa_Jaga/cmd/32/dbtabledelete.png"
   inkscape:export-xdpi="24"
   inkscape:export-ydpi="24">
  <metadata
     id="metadata2347">
    <rdf:RDF>
      <cc:Work
         rdf:about="">
        <dc:format>image/svg+xml</dc:format>
        <dc:type
           rdf:resource="http://purl.org/dc/dcmitype/StillImage" />
        <dc:title></dc:title>
      </cc:Work>
    </rdf:RDF>
  </metadata>
  <defs
     id="defs2345">
    <radialGradient
       id="h-2"
       cx="84.903702"
       cy="-130.14005"
       gradientTransform="rotate(-45,342.93203,-200.14073)"
       gradientUnits="userSpaceOnUse"
       r="57.039597"
       xlink:href="#i-8" />
    <linearGradient
       id="i-8">
      <stop
         offset="0"
         stop-color="#3a0b02"
         id="stop40-9" />
      <stop
         offset="1"
         stop-color="#a21d07"
         stop-opacity=".382353"
         id="stop42-6" />
    </linearGradient>
    <radialGradient
       id="j-0"
       cx="2.7207029"
       cy="-66.273438"
       gradientTransform="rotate(-45,342.93203,-200.14073)"
       gradientUnits="userSpaceOnUse"
       r="57.039597"
       xlink:href="#i-8" />
    <radialGradient
       id="k-2"
       cx="51.991096"
       cy="-78.028419"
       gradientTransform="rotate(-45,342.93203,-200.14073)"
       gradientUnits="userSpaceOnUse"
       r="57.039597"
       xlink:href="#i-8" />
    <linearGradient
       inkscape:collect="always"
       xlink:href="#d-2"
       id="linearGradient3328"
       gradientUnits="userSpaceOnUse"
       gradientTransform="scale(1.0975951,0.9110828)"
       x1="26.091133"
       y1="14.856744"
       x2="31.500689"
       y2="14.856744" />
    <linearGradient
       id="d-2"
       gradientTransform="scale(1.0975951,0.9110828)"
       gradientUnits="userSpaceOnUse"
       x1="26.091133"
       x2="31.500689"
       y1="14.856744"
       y2="14.856744">
      <stop
         offset="0"
         stop-color="#fff"
         id="stop19" />
      <stop
         offset="1"
         stop-color="#fff"
         stop-opacity="0"
         id="stop21" />
    </linearGradient>
    <filter
       id="l-6"
       height="1.277481"
       width="1.279832"
       x="-0.139916"
       y="-0.138741">
      <feGaussianBlur
         stdDeviation=".28784801"
         id="feGaussianBlur47" />
    </filter>
    <filter
       id="filter3722"
       height="1.277481"
       width="1.279832"
       x="-0.139916"
       y="-0.138741">
      <feGaussianBlur
         stdDeviation=".28784801"
         id="feGaussianBlur3720" />
    </filter>
    <linearGradient
       id="e-9"
       gradientUnits="userSpaceOnUse"
       x1="304.88663"
       x2="345.62039"
       y1="385.86127"
       y2="384.62384">
      <stop
         offset="0"
         stop-color="#765c44"
         id="stop24-9" />
      <stop
         offset="1"
         stop-color="#765c44"
         stop-opacity="0"
         id="stop26" />
    </linearGradient>
    <filter
       id="filter3729"
       height="1.277481"
       width="1.279832"
       x="-0.139916"
       y="-0.138741">
      <feGaussianBlur
         stdDeviation=".28784801"
         id="feGaussianBlur3727" />
    </filter>
    <linearGradient
       inkscape:collect="always"
       xlink:href="#f-7"
       id="linearGradient3330"
       gradientUnits="userSpaceOnUse"
       x1="88.606247"
       y1="13.510336"
       x2="91.575104"
       y2="13.510336"
       spreadMethod="reflect" />
    <linearGradient
       id="f-7"
       gradientUnits="userSpaceOnUse"
       spreadMethod="reflect"
       x1="88.606247"
       x2="91.575104"
       y1="13.510336"
       y2="13.510336">
      <stop
         offset="0"
         stop-color="#ff8787"
         id="stop29-3" />
      <stop
         offset="1"
         stop-color="#ff8787"
         stop-opacity="0"
         id="stop31-1" />
    </linearGradient>
    <filter
       id="filter3737"
       height="1.277481"
       width="1.279832"
       x="-0.139916"
       y="-0.138741">
      <feGaussianBlur
         stdDeviation=".28784801"
         id="feGaussianBlur3735" />
    </filter>
    <linearGradient
       id="g-3"
       gradientUnits="userSpaceOnUse"
       spreadMethod="reflect"
       x1="31.606251"
       x2="34.575108"
       y1="13.510336"
       y2="13.510336">
      <stop
         offset="0"
         stop-color="#fff"
         id="stop34" />
      <stop
         offset="1"
         stop-color="#790000"
         stop-opacity="0"
         id="stop36" />
    </linearGradient>
    <filter
       id="filter3744"
       height="1.277481"
       width="1.279832"
       x="-0.139916"
       y="-0.138741">
      <feGaussianBlur
         stdDeviation=".28784801"
         id="feGaussianBlur3742" />
    </filter>
    <filter
       id="filter3755"
       height="1.277481"
       width="1.279832"
       x="-0.139916"
       y="-0.138741">
      <feGaussianBlur
         stdDeviation=".28784801"
         id="feGaussianBlur3753" />
    </filter>
    <radialGradient
       id="m-3"
       cx="50.424522"
       cy="-81.945961"
       gradientTransform="rotate(-45,342.93203,-200.14072)"
       gradientUnits="userSpaceOnUse"
       r="50.15279">
      <stop
         offset="0"
         stop-color="#db3424"
         id="stop50" />
      <stop
         offset="1"
         stop-color="#b32016"
         id="stop52" />
    </radialGradient>
    <linearGradient
       id="n-2"
       gradientTransform="rotate(-45,342.93203,-200.14073)"
       gradientUnits="userSpaceOnUse"
       x1="50.06789"
       x2="59.441998"
       y1="-154.40843"
       y2="-71.617722">
      <stop
         offset="0"
         stop-color="#fff"
         id="stop55" />
      <stop
         offset="1"
         stop-color="#fcf3f3"
         stop-opacity="0"
         id="stop57" />
    </linearGradient>
    <linearGradient
       inkscape:collect="always"
       xlink:href="#d-2"
       id="linearGradient3087"
       gradientUnits="userSpaceOnUse"
       gradientTransform="scale(1.0975951,0.9110828)"
       x1="26.091133"
       y1="14.856744"
       x2="31.500689"
       y2="14.856744" />
    <linearGradient
       inkscape:collect="always"
       xlink:href="#f-7"
       id="linearGradient3089"
       gradientUnits="userSpaceOnUse"
       x1="88.606247"
       y1="13.510336"
       x2="91.575104"
       y2="13.510336"
       spreadMethod="reflect" />
  </defs>
  <sodipodi:namedview
     pagecolor="#ffffff"
     bordercolor="#666666"
     borderopacity="1"
     objecttolerance="10"
     gridtolerance="10"
     guidetolerance="10"
     inkscape:pageopacity="0"
     inkscape:pageshadow="2"
     inkscape:window-width="1366"
     inkscape:window-height="699"
     id="namedview2343"
     showgrid="false"
     inkscape:zoom="1.84375"
     inkscape:cx="-11.661017"
     inkscape:cy="64"
     inkscape:window-x="0"
     inkscape:window-y="0"
     inkscape:window-maximized="1"
     inkscape:current-layer="g2339" />
  <linearGradient
     id="a"
     gradientUnits="userSpaceOnUse"
     x1="-30.76119033746"
     x2="-28.50195640967"
     xlink:href="#b"
     y1="275.00192606047"
     y2="275.60728610493" />
  <linearGradient
     id="b">
    <stop
       offset="0"
       stop-color="#5e5e5e"
       id="stop2275" />
    <stop
       offset="1"
       stop-color="#5e5e5e"
       stop-opacity="0"
       id="stop2277" />
  </linearGradient>
  <linearGradient
     id="c"
     gradientUnits="userSpaceOnUse"
     x1="3.10548066254"
     x2="5.36471459033"
     xlink:href="#b"
     y1="275.00192606047"
     y2="275.60728610493" />
  <linearGradient
     id="d"
     gradientUnits="userSpaceOnUse"
     x1="16.93333436"
     x2="16.93333436"
     y1="272.65829984"
     y2="279.00829976">
    <stop
       offset="0"
       stop-color="#535353"
       id="stop2281" />
    <stop
       offset=".10625"
       stop-color="#a9a9a9"
       id="stop2283" />
    <stop
       offset=".21249999"
       stop-color="#fff"
       id="stop2285" />
    <stop
       offset=".83083332"
       stop-color="#fff"
       id="stop2287" />
    <stop
       offset="1"
       stop-color="#e6e6e6"
       id="stop2289" />
  </linearGradient>
  <linearGradient
     id="e"
     gradientTransform="matrix(.0321355 0 0 .04647684 30.575317 335.83667)"
     gradientUnits="userSpaceOnUse"
     x1="-333.0289"
     x2="-333.0289"
     y1="-1473.6504"
     y2="-776.61371">
    <stop
       offset="0"
       stop-color="#fff"
       id="stop2292" />
    <stop
       offset=".49140647"
       stop-color="#fff"
       id="stop2294" />
    <stop
       offset="1"
       stop-color="#dcdcdc"
       id="stop2296" />
  </linearGradient>
  <linearGradient
     id="f"
     gradientTransform="matrix(.0321355 0 0 .04647684 -1.027302 241.82648)"
     gradientUnits="userSpaceOnUse"
     x1="399.77466"
     x2="399.77466"
     y1="727.07941"
     y2="480.60214">
    <stop
       offset="0"
       stop-color="#cbcbcd"
       id="stop2299" />
    <stop
       offset=".5"
       stop-color="#e0e0e2"
       id="stop2301" />
    <stop
       offset="1"
       stop-color="#f2f2f2"
       id="stop2303" />
  </linearGradient>
  <filter
     id="g">
    <feGaussianBlur
       stdDeviation="1.177891"
       id="feGaussianBlur2306" />
  </filter>
  <linearGradient
     id="h"
     gradientTransform="matrix(.44151224 0 0 .41568081 -24.172459 -311.89243)"
     gradientUnits="userSpaceOnUse"
     x1="101.3308"
     x2="101.3308"
     y1="51.34185"
     y2="66.668198">
    <stop
       offset="0"
       stop-color="#cbcbcd"
       id="stop2309" />
    <stop
       offset=".66545075"
       stop-color="#e0e0e2"
       id="stop2311" />
    <stop
       offset="1"
       stop-color="#fff"
       id="stop2313" />
  </linearGradient>
  <filter
     id="i"
     color-interpolation-filters="sRGB"
     height="1.156"
     width="1.0468"
     x="-.0234"
     y="-.078">
    <feGaussianBlur
       stdDeviation=".20637505"
       id="feGaussianBlur2316" />
  </filter>
  <g
     transform="translate(0 -263.13332)"
     id="g2339">
    <g
       id="g2942">
      <path
         id="path2319"
         transform="matrix(.26458333 0 0 .26052164 -21.068414 204.50088)"
         opacity=".5"
         filter="url(#g)"
         d="m83.772 239.27611h119.71329c1.18742 0 2.14336 1.12849 2.14336 2.53025v100.56093c0 1.40175-.95594 2.53025-2.14336 2.53025h-119.71329c-1.187418 0-2.143353-1.1285-2.143353-2.53025v-100.56093c0-1.40176.955935-2.53025 2.143353-2.53025z" />
      <path
         id="path2321"
         fill="url(#f)"
         d="m1.6071347 267.36666h30.6523883c.304038 0 .548801.28894.548801.64786v25.1626c0 .35892-.244763.64786-.548801.64786h-30.6523883c-.3040362 0-.5488019-.28894-.5488019-.64786v-25.1626c0-.35892.2447657-.64786.5488019-.64786z" />
      <path
         id="path2323"
         fill="url(#e)"
         d="m1.6040367 267.36666c-.3040364 0-.5457031.286-.5457031.64492v25.16848c0 .35892.2416667.64492.5457031.64492h30.6585923c.304041 0 .545703-.286.545703-.64492v-25.16848c0-.35892-.241662-.64492-.545703-.64492zm.3720703.96738h29.914452c.288835 0 .520898.27095.520898.60772v23.87864c0 .33676-.232063.60771-.520898.60771h-29.914452c-.2888343 0-.5208984-.27095-.5208984-.60771v-23.87864c0-.33677.2320641-.60772.5208984-.60772z" />
      <g
         id="g2926">
        <path
           inkscape:connector-curvature="0"
           style="fill:#ffffff;fill-opacity:1;fill-rule:nonzero;stroke:none;stroke-width:0.26458335"
           d="M 1.0583333,275.83331 H 32.808333 v 16.93334 H 1.0583333 Z"
           id="rect8568" />
        <rect
           style="fill:#cbcbcd;fill-opacity:1;stroke:none;stroke-width:0.26458335"
           id="rect3795"
           width="0.66145843"
           height="16.999481"
           x="1.4552076"
           y="275.76715" />
        <rect
           y="275.76715"
           x="31.750006"
           height="16.999481"
           width="0.66145843"
           id="rect3797"
           style="fill:#cbcbcd;fill-opacity:1;stroke:none;stroke-width:0.26458335" />
        <rect
           y="275.89944"
           x="9.6572905"
           height="16.867189"
           width="0.66145843"
           id="rect4573"
           style="fill:#cbcbcd;fill-opacity:1;stroke:none;stroke-width:0.26458335" />
        <rect
           style="fill:#cbcbcd;fill-opacity:1;stroke:none;stroke-width:0.26458335"
           id="rect4575"
           width="0.66145843"
           height="16.867189"
           x="17.131769"
           y="275.89944" />
        <rect
           y="275.70102"
           x="24.606249"
           height="17.065628"
           width="0.66145843"
           id="rect4577"
           style="fill:#cbcbcd;fill-opacity:1;stroke:none;stroke-width:0.26458335" />
        <rect
           style="fill:#cbcbcd;fill-opacity:1;stroke:none;stroke-width:0.26458335"
           id="rect4579"
           width="30.890106"
           height="0.66145861"
           x="1.3890617"
           y="292.10516" />
        <rect
           y="287.6734"
           x="1.3890617"
           height="0.66145861"
           width="30.890106"
           id="rect4581"
           style="fill:#cbcbcd;fill-opacity:1;stroke:none;stroke-width:0.26458335" />
        <rect
           style="fill:#cbcbcd;fill-opacity:1;stroke:none;stroke-width:0.26458335"
           id="rect4583"
           width="30.890106"
           height="0.66145861"
           x="1.3890617"
           y="283.37393" />
        <rect
           y="279.20673"
           x="1.3890617"
           height="0.66145861"
           width="30.890106"
           id="rect4585"
           style="fill:#cbcbcd;fill-opacity:1;stroke:none;stroke-width:0.26458335" />
      </g>
    </g>
    <g
       id="g114"
       transform="matrix(0.07839194,0.07839194,-0.07839194,0.07839194,15.731163,248.73885)">
      <path
         inkscape:connector-curvature="0"
         style="fill:url(#h-2)"
         id="path86"
         d="m 195.29345,-8.8169787 c -3.80348,-1.142e-4 -6.88683,3.0832392 -6.88672,6.886715 V 59.002062 l -60.93428,-4e-6 c -3.80348,-1.14e-4 -6.88683,3.083242 -6.88672,6.88672 l 1e-5,24.380857 c -1.1e-4,3.803473 3.08324,6.886827 6.88671,6.886718 l 60.93428,10e-7 v 60.932326 c -1.1e-4,3.80348 3.08324,6.88683 6.88672,6.88672 h 24.38086 c 3.80348,1.1e-4 6.88683,-3.08324 6.88672,-6.88672 V 97.156353 h 60.93232 c 3.80348,1.14e-4 6.88683,-3.083242 6.88672,-6.886719 V 65.888777 c 1.1e-4,-3.803478 -3.08324,-6.886834 -6.88672,-6.88672 l -60.93232,10e-7 V -1.9302657 c 1.1e-4,-3.8034781 -3.08325,-6.8868307 -6.88673,-6.886711 z"
         sodipodi:nodetypes="ccccccccccccccccccccc" />
      <path
         inkscape:connector-curvature="0"
         style="fill:url(#j-0)"
         id="path88"
         d="m 195.29345,-8.8169787 c -3.80348,-1.142e-4 -6.88683,3.0832392 -6.88672,6.886715 V 59.002062 l -60.93428,-4e-6 c -3.80348,-1.14e-4 -6.88683,3.083242 -6.88672,6.88672 l 1e-5,24.380857 c -1.1e-4,3.803473 3.08324,6.886827 6.88671,6.886718 l 60.93428,10e-7 v 60.932326 c -1.1e-4,3.80348 3.08324,6.88683 6.88672,6.88672 h 24.38086 c 3.80348,1.1e-4 6.88683,-3.08324 6.88672,-6.88672 V 97.156353 h 60.93232 c 3.80348,1.14e-4 6.88683,-3.083242 6.88672,-6.886719 V 65.888777 c 1.1e-4,-3.803478 -3.08324,-6.886834 -6.88672,-6.88672 l -60.93232,10e-7 V -1.9302657 c 1.1e-4,-3.8034781 -3.08325,-6.8868307 -6.88673,-6.886711 z"
         sodipodi:nodetypes="ccccccccccccccccccccc" />
      <path
         inkscape:connector-curvature="0"
         style="fill:url(#k-2)"
         id="path90"
         d="m 195.29345,-8.8169787 c -3.80348,-1.142e-4 -6.88683,3.0832392 -6.88672,6.886715 V 59.002062 l -60.93428,-4e-6 c -3.80348,-1.14e-4 -6.88683,3.083242 -6.88672,6.88672 l 1e-5,24.380857 c -1.1e-4,3.803473 3.08324,6.886827 6.88671,6.886718 l 60.93428,10e-7 v 60.932326 c -1.1e-4,3.80348 3.08324,6.88683 6.88672,6.88672 h 24.38086 c 3.80348,1.1e-4 6.88683,-3.08324 6.88672,-6.88672 V 97.156353 h 60.93232 c 3.80348,1.14e-4 6.88683,-3.083242 6.88672,-6.886719 V 65.888777 c 1.1e-4,-3.803478 -3.08324,-6.886834 -6.88672,-6.88672 l -60.93232,10e-7 V -1.9302657 c 1.1e-4,-3.8034781 -3.08325,-6.8868307 -6.88673,-6.886711 z"
         sodipodi:nodetypes="ccccccccccccccccccccc" />
      <path
         style="fill:#56331f;fill-opacity:0.90588199"
         inkscape:connector-curvature="0"
         id="path92"
         d="m 195.29345,-8.8169787 c -3.80348,-1.142e-4 -6.88683,3.0832392 -6.88672,6.886715 V 59.002062 l -60.93428,-4e-6 c -3.80348,-1.14e-4 -6.88683,3.083242 -6.88672,6.88672 l 1e-5,24.380857 c -1.1e-4,3.803473 3.08324,6.886827 6.88671,6.886718 l 60.93428,10e-7 v 60.932326 c -1.1e-4,3.80348 3.08324,6.88683 6.88672,6.88672 h 24.38086 c 3.80348,1.1e-4 6.88683,-3.08324 6.88672,-6.88672 V 97.156353 h 60.93232 c 3.80348,1.14e-4 6.88683,-3.083242 6.88672,-6.886719 V 65.888777 c 1.1e-4,-3.803478 -3.08324,-6.886834 -6.88672,-6.88672 l -60.93232,10e-7 V -1.9302657 c 1.1e-4,-3.8034781 -3.08325,-6.8868307 -6.88673,-6.886711 z"
         sodipodi:nodetypes="ccccccccccccccccccccc" />
      <g
         style="fill-rule:evenodd"
         id="g106">
        <path
           inkscape:connector-curvature="0"
           style="opacity:0.498127;fill:url(#linearGradient3087);filter:url(#l-6)"
           id="path94"
           transform="matrix(1.4915065,1.4915065,1.5058288,-1.5058288,127.59411,129.77373)"
           d="m 31.7,16 2.875,-3.375 c -1.051205,-1.695758 -3.935136,-2.288018 -5.9375,-0.3125 l 2.8125,3.375 z" />
        <path
           inkscape:connector-curvature="0"
           style="opacity:0.79026196;fill:url(#linearGradient3328);filter:url(#l-6)"
           id="path96"
           transform="matrix(-1.4871264,1.4871264,-1.472982,-1.472982,353.36672,62.915512)"
           d="m 31.7,16 2.875,-3.375 c -1.051205,-1.695758 -3.935136,-2.288018 -5.9375,-0.3125 l 2.8125,3.375 z" />
        <path
           inkscape:connector-curvature="0"
           style="opacity:0.498127;fill:url(#e-9);filter:url(#l-6)"
           id="path98"
           transform="matrix(1.3506327,1.3506327,-1.3636023,1.3636023,262.13812,4.1059019)"
           d="m 31.7,16 2.875,-3.375 c -1.051205,-1.695758 -3.935136,-2.288018 -5.9375,-0.3125 l 2.8125,3.375 z" />
        <path
           inkscape:connector-curvature="0"
           style="opacity:0.79026196;fill:url(#linearGradient3089);filter:url(#l-6)"
           id="path100"
           transform="matrix(-1.3636023,1.3636023,-1.3506327,-1.3506327,358.72933,55.241431)"
           d="m 88.7,16 2.875,-3.375 c -1.051205,-1.695758 -3.935136,-2.288018 -5.9375,-0.3125 l 2.8125,3.375 z" />
        <path
           inkscape:connector-curvature="0"
           style="opacity:0.79026196;fill:url(#g-3);filter:url(#l-6)"
           id="path102"
           transform="matrix(-1.2400782,1.2400782,1.2282835,1.2282835,217.29025,-57.594987)"
           d="m 31.7,16 2.875,-3.375 c -1.051205,-1.695758 -3.935136,-2.288018 -5.9375,-0.3125 l 2.8125,3.375 z" />
        <path
           inkscape:connector-curvature="0"
           style="opacity:0.79026196;fill:url(#linearGradient3330);filter:url(#l-6)"
           id="path104"
           transform="matrix(-1.2731338,1.2731338,1.2610246,1.2610246,223.27547,-64.198776)"
           d="m 88.7,16 2.875,-3.375 c -1.051205,-1.695758 -3.935136,-2.288018 -5.9375,-0.3125 l 2.8125,3.375 z" />
      </g>
      <path
         inkscape:connector-curvature="0"
         style="fill:url(#m-3)"
         id="path108"
         d="M 195.29345,-1.9302687 V 65.88878 l -67.82099,10e-7 -1e-5,24.38085 67.821,3e-6 v 67.819046 h 24.38086 V 90.269634 h 67.81904 V 65.88878 l -67.81904,-10e-7 -1e-5,-67.8190447 z"
         sodipodi:nodetypes="ccccccccccccc" />
      <path
         style="fill:#f4caca;fill-opacity:0.77941165"
         inkscape:connector-curvature="0"
         id="path110"
         d="m 127.47266,65.887832 -1e-5,24.381371 h 67.82164 l -10e-4,67.820257 h 24.38138 V 90.270585 l 67.81887,-10e-7 V 65.889212 l -67.81887,-10e-7 -1e-5,-67.8188687 -24.38136,2e-6 V 65.889212 Z m 1.73186,1.731861 66.08839,0.0014 c 0.95652,9.2e-5 1.73195,-0.775341 1.73186,-1.731859 V -0.19777368 l 20.91765,-4e-6 V 65.88923 c -9e-5,0.956519 0.77534,1.731954 1.73186,1.731862 h 66.08701 v 20.917655 h -66.08701 c -0.95652,-9.2e-5 -1.73195,0.775341 -1.73186,1.731859 v 66.087014 h -20.91766 l 0.001,-66.088395 c 9e-5,-0.956518 -0.77534,-1.731953 -1.73186,-1.731861 l -66.08977,2e-6 z"
         sodipodi:nodetypes="cccccccccccccccccccccccccccccc" />
      <path
         inkscape:connector-curvature="0"
         style="fill:url(#n-2);fill-rule:evenodd"
         id="path112"
         d="m 127.47266,65.887832 -1e-5,24.381371 h 67.82164 v 13.963747 c 9.21859,-12.920037 23.72456,-29.858471 27.09896,-38.336918 l -2.71897,-0.0068 -1e-5,-67.8188687 -24.38136,2e-6 V 65.889233 Z"
         sodipodi:nodetypes="cccccccccc" />
    </g>
  </g>
</svg>
