<?xml version="1.0" encoding="UTF-8" standalone="no"?>
<!-- Created with Inkscape (http://www.inkscape.org/) -->

<svg
   xmlns:dc="http://purl.org/dc/elements/1.1/"
   xmlns:cc="http://creativecommons.org/ns#"
   xmlns:rdf="http://www.w3.org/1999/02/22-rdf-syntax-ns#"
   xmlns:svg="http://www.w3.org/2000/svg"
   xmlns="http://www.w3.org/2000/svg"
   xmlns:xlink="http://www.w3.org/1999/xlink"
   xmlns:sodipodi="http://sodipodi.sourceforge.net/DTD/sodipodi-0.dtd"
   xmlns:inkscape="http://www.inkscape.org/namespaces/inkscape"
   version="1.1"
   id="svg2"
   width="128"
   height="128"
   viewBox="0 0 128 128"
   sodipodi:docname="lc_arrowshapes.up-right-arrow.svg"
   inkscape:export-filename="/home/rizmut/Dokumen/Rizmut/Github/libreoffice-style-karasa-jaga/build/images_karasa_jaga/cmd/lc_arrowshapes.up-right-arrow.png"
   inkscape:export-xdpi="16.5"
   inkscape:export-ydpi="16.5"
   inkscape:version="0.92.3 (unknown)">
  <metadata
     id="metadata8">
    <rdf:RDF>
      <cc:Work
         rdf:about="">
        <dc:format>image/svg+xml</dc:format>
        <dc:type
           rdf:resource="http://purl.org/dc/dcmitype/StillImage" />
        <dc:title></dc:title>
      </cc:Work>
    </rdf:RDF>
  </metadata>
  <defs
     id="defs6">
    <inkscape:perspective
       id="perspective27"
       inkscape:persp3d-origin="64 : 42.666667 : 1"
       inkscape:vp_z="128 : 64 : 1"
       inkscape:vp_y="0 : 1000 : 0"
       inkscape:vp_x="0 : 64 : 1"
       sodipodi:type="inkscape:persp3d" />
    <linearGradient
       id="linearGradient3369">
      <stop
         id="stop3372"
         offset="0"
         style="stop-color:#ffffff;stop-opacity:1;" />
      <stop
         style="stop-color:#ffffff;stop-opacity:1;"
         offset="0.625"
         id="stop3374" />
      <stop
         style="stop-color:#f1f1f1;stop-opacity:1;"
         offset="0.78125"
         id="stop3376" />
      <stop
         id="stop3378"
         offset="0.90625"
         style="stop-color:#eaeaea;stop-opacity:1;" />
      <stop
         id="stop3384"
         offset="1"
         style="stop-color:#dfdfdf;stop-opacity:1;" />
    </linearGradient>
    <linearGradient
       id="linearGradient7422">
      <stop
         style="stop-color:#7c9fcf;stop-opacity:1"
         offset="0"
         id="stop7424" />
      <stop
         id="stop5348"
         offset="0.5"
         style="stop-color:#7c9ece;stop-opacity:1" />
      <stop
         id="stop7426"
         offset="1"
         style="stop-color:#7b9dcf;stop-opacity:1" />
    </linearGradient>
    <linearGradient
       y2="388.95178"
       x2="399.77466"
       y1="1324.7792"
       x1="405.94968"
       gradientTransform="matrix(0.08097132,0,0,0.07807154,182.74486,-6.9021226)"
       gradientUnits="userSpaceOnUse"
       id="linearGradient2330"
       xlink:href="#linearGradient7422"
       inkscape:collect="always" />
    <linearGradient
       y2="-39.862289"
       x2="102.34156"
       y1="208.78667"
       x1="102.34156"
       gradientTransform="matrix(0.42447771,0,0,0.25739099,13.64786,81.533494)"
       gradientUnits="userSpaceOnUse"
       id="linearGradient2360"
       xlink:href="#linearGradient3369"
       inkscape:collect="always" />
    <linearGradient
       inkscape:collect="always"
       xlink:href="#linearGradient7422"
       id="linearGradient875"
       gradientUnits="userSpaceOnUse"
       x1="5.5664062"
       y1="66.726799"
       x2="130.19847"
       y2="66.726799"
       gradientTransform="matrix(-1,0,0,1,127.99844,29.089966)" />
    <linearGradient
       inkscape:collect="always"
       xlink:href="#linearGradient7422"
       id="linearGradient882"
       gradientUnits="userSpaceOnUse"
       gradientTransform="matrix(0,-1,-1,0,98.89185,133.79953)"
       x1="5.5664062"
       y1="66.726799"
       x2="130.19847"
       y2="66.726799" />
    <linearGradient
       inkscape:collect="always"
       xlink:href="#linearGradient3369"
       id="linearGradient884"
       gradientUnits="userSpaceOnUse"
       gradientTransform="matrix(0,0.42447771,-0.25739099,0,46.466506,19.46869)"
       x1="255.68207"
       y1="44.904083"
       x2="-45.860737"
       y2="44.904083" />
  </defs>
  <sodipodi:namedview
     pagecolor="#ffffff"
     bordercolor="#666666"
     borderopacity="1"
     objecttolerance="10"
     gridtolerance="10"
     guidetolerance="10"
     inkscape:pageopacity="0"
     inkscape:pageshadow="2"
     inkscape:window-width="1366"
     inkscape:window-height="706"
     id="namedview4"
     showgrid="true"
     inkscape:snap-page="true"
     inkscape:snap-global="true"
     inkscape:zoom="1.4142136"
     inkscape:cx="50.896864"
     inkscape:cy="105.5246"
     inkscape:window-x="0"
     inkscape:window-y="0"
     inkscape:window-maximized="1"
     inkscape:current-layer="svg2"
     showguides="false">
    <inkscape:grid
       type="xygrid"
       id="grid837"
       spacingx="5.8181"
       spacingy="5.8181"
       empspacing="1" />
  </sodipodi:namedview>
  <path
     id="path878"
     d="M 46.5448,110.5457 46.52608,68.293541 V 61.328697 40.709556 h 8.080078 c 1.670092,0 3.07058,-0.559457 4.164062,-1.443359 0.990734,-0.780202 1.737468,-1.794926 2.175782,-2.863281 0.231421,-0.564074 0.379669,-1.194106 0.439453,-1.851563 0.05868,-0.645307 0.02339,-1.317743 -0.0918,-1.984375 -0.01387,-0.0914 -0.02549,-0.182547 -0.04297,-0.273437 -0.01075,-0.0512 -0.02724,-0.101286 -0.03906,-0.152344 -0.09995,-0.463436 -0.249954,-0.91516 -0.447265,-1.353515 -0.09323,-0.207122 -0.198798,-0.408615 -0.314453,-0.607422 -0.04419,-0.07735 -0.09135,-0.152842 -0.138672,-0.228516 -0.09428,-0.147845 -0.187445,-0.295693 -0.294922,-0.4375 -0.179253,-0.240798 -0.372643,-0.472255 -0.587891,-0.6875 L 36.172564,5.5689319 h -0.002 c -1.257683,-1.2572 -2.950126,-1.9417037 -4.644531,-1.9648437 h -0.002 c -0.08849,-0.00119 -0.151919,-0.013319 -0.566406,0.019531 -0.103622,0.00821 -0.234582,0.018161 -0.443359,0.050781 -0.208777,0.03262 -1.042416,0.2634819 -1.042969,0.2636719 -2.76e-4,1e-4 -1.183424,0.5760719 -1.183594,0.5761719 -8.4e-5,6e-5 -0.921816,0.7265025 -0.921875,0.7265625 -5.8e-5,5e-5 -1.060513,1.3925281 -1.060547,1.3925781 -8e-6,2e-5 -0.114525,0.3662113 -0.191406,0.6132813 L 4.881548,28.479088 c -1.418923,1.418918 -1.989936,3.390277 -1.966796,5.195312 0.0093,0.722015 0.113395,1.418332 0.296874,2.041016 0.09174,0.311342 0.20279,0.603799 0.332032,0.873047 0.258482,0.538496 0.575282,1.06906 0.958984,1.560547 0.191851,0.245743 0.40026,0.48052 0.626953,0.703125 0.122806,0.120642 0.264869,0.225757 0.398438,0.33789 0.112933,0.09481 0.215062,0.199179 0.335937,0.28711 4.41e-4,3.2e-4 0.0015,-3.21e-4 0.002,0 0.263895,0.191873 0.546157,0.365979 0.84961,0.519531 0.910357,0.460658 2.003665,0.731813 3.3125,0.710937 l -0.09375,0.002 h 7.501953 v 20.619141 6.964844 l 0.01872,42.252162 z"
     style="fill:url(#linearGradient882);fill-opacity:1;fill-rule:evenodd;stroke:none;stroke-width:4.6329999;stroke-linecap:round;stroke-linejoin:round;stroke-miterlimit:4;stroke-dasharray:none;stroke-opacity:1"
     inkscape:connector-curvature="0"
     sodipodi:nodetypes="ccccsccccccccccccccccscccccccccscccccccccccc" />
  <path
     style="fill:url(#linearGradient875);fill-opacity:1;fill-rule:evenodd;stroke:none;stroke-width:4.6329999;stroke-linecap:round;stroke-linejoin:round;stroke-miterlimit:4;stroke-dasharray:none;stroke-opacity:1"
     d="m 94.179947,66.565109 c -0.252707,-0.0026 -0.503454,0.0088 -0.75,0.03125 -0.657457,0.05978 -1.287489,0.208032 -1.851563,0.439453 -1.068355,0.438314 -2.083079,1.185048 -2.863281,2.175782 -0.883901,1.093482 -1.443359,2.49397 -1.443359,4.164062 v 8.080078 H 62.492447 55.527603 L 17.4543,81.4552 v 29.0905 l 38.07335,-2.2e-4 h 6.964844 24.779297 v 7.50195 l 0.002,-0.0937 c -0.007,0.43628 0.01813,0.84864 0.07227,1.23828 0.108273,0.77929 0.331567,1.46732 0.638672,2.07422 0.307104,0.60691 0.699322,1.13255 1.144532,1.58594 0.222604,0.22669 0.457381,0.4351 0.703125,0.62695 0.491489,0.38371 1.022044,0.7005 1.560547,0.95899 0.269247,0.12924 0.561704,0.24029 0.873046,0.33203 0.622689,0.18348 1.319001,0.28762 2.041017,0.29687 1.80504,0.0231 3.77641,-0.54788 5.19531,-1.96679 l 21.23242,-21.23243 c 0.24707,-0.0769 0.61327,-0.19139 0.61329,-0.1914 5e-5,-4e-5 1.39252,-1.06049 1.39257,-1.06055 6e-5,-6e-5 0.72651,-0.92179 0.72657,-0.921874 10e-5,-1.7e-4 0.57607,-1.183318 0.57617,-1.183594 1.9e-4,-5.53e-4 0.23105,-0.834192 0.26367,-1.042969 0.0326,-0.208777 0.0426,-0.339737 0.0508,-0.443359 0.0328,-0.414487 0.0207,-0.47792 0.0195,-0.566406 v -0.002 c -0.0231,-1.694405 -0.70764,-3.386848 -1.96484,-4.644531 v -0.002 L 99.15456,68.553391 C 98.93896,68.33779 98.70633,68.144988 98.4651,67.9655 c -0.13455,-0.101929 -0.27406,-0.191202 -0.41406,-0.28125 -0.0886,-0.05592 -0.17663,-0.112473 -0.26758,-0.164062 -0.19301,-0.11146 -0.38904,-0.212349 -0.58984,-0.302735 -0.40912,-0.18415 -0.83028,-0.322654 -1.26172,-0.421875 -0.0882,-0.02157 -0.17505,-0.04803 -0.26367,-0.06641 -0.0748,-0.01416 -0.14947,-0.02538 -0.22461,-0.03711 -0.42152,-0.07449 -0.84532,-0.122654 -1.263673,-0.126953 z"
     id="path873"
     inkscape:connector-curvature="0"
     sodipodi:nodetypes="ccccsccccccccccccccccccccccccscccccccccccccc" />
  <path
     inkscape:connector-curvature="0"
     id="rect2326"
     d="m 118.55835,96.535019 c -0.003,-0.219639 -0.0896,-0.441178 -0.25977,-0.611328 L 95.04077,72.665879 C 94.29894,71.924051 93.0896,72.511734 93.0896,73.374863 V 87.2733 H 59.687256 55.5271 23.27237 l 3e-5,17.4543 H 55.5271 59.687256 93.0896 v 13.32031 c -0.01501,0.94078 1.4367,1.80159 2.29883,0.93946 l 22.92968,-22.929691 c 0.16385,-0.163848 0.24319,0.696979 0.24024,0.47734 z"
     style="fill:url(#linearGradient2360);fill-opacity:1;fill-rule:evenodd;stroke:none;stroke-width:4.6329999;stroke-linecap:round;stroke-linejoin:round;stroke-miterlimit:4;stroke-dasharray:none;stroke-opacity:1"
     sodipodi:nodetypes="csssccccccccccsc" />
  <path
     sodipodi:nodetypes="ccccscscccccccc"
     style="fill:url(#linearGradient884);fill-opacity:1;fill-rule:evenodd;stroke:none;stroke-width:4.6329999;stroke-linecap:round;stroke-linejoin:round;stroke-miterlimit:4;stroke-dasharray:none;stroke-opacity:1"
     d="M 40.7267,104.7276 V 65.508086 61.34793 34.9104 h 13.898437 c 0.863129,0 1.450812,-1.20935 0.708984,-1.95117 L 32.076309,9.7014102 c -0.3403,-0.3403 0.193708,-0.34722 -0.133988,-0.0195 L 9.012634,32.6116 c -0.862133,0.86213 -0.0013,2.313835 0.939453,2.29883 H 23.2724 v 26.4375 4.160156 39.219514 z"
     id="path880"
     inkscape:connector-curvature="0" />
</svg>
