<?xml version="1.0" encoding="UTF-8" standalone="no"?>
<!-- Created with Inkscape (http://www.inkscape.org/) -->

<svg
   xmlns:dc="http://purl.org/dc/elements/1.1/"
   xmlns:cc="http://creativecommons.org/ns#"
   xmlns:rdf="http://www.w3.org/1999/02/22-rdf-syntax-ns#"
   xmlns:svg="http://www.w3.org/2000/svg"
   xmlns="http://www.w3.org/2000/svg"
   xmlns:xlink="http://www.w3.org/1999/xlink"
   xmlns:sodipodi="http://sodipodi.sourceforge.net/DTD/sodipodi-0.dtd"
   xmlns:inkscape="http://www.inkscape.org/namespaces/inkscape"
   version="1.1"
   id="svg2"
   width="128"
   height="128"
   viewBox="0 0 128 128"
   sodipodi:docname="lc_arrowshapes.split-arrow.svg"
   inkscape:export-filename="/home/rizmut/Dokumen/Rizmut/Github/libreoffice-style-karasa-jaga/build/images_karasa_jaga/cmd/lc_arrowshapes.split-arrow.png"
   inkscape:export-xdpi="16.5"
   inkscape:export-ydpi="16.5"
   inkscape:version="0.92.3 (unknown)">
  <metadata
     id="metadata8">
    <rdf:RDF>
      <cc:Work
         rdf:about="">
        <dc:format>image/svg+xml</dc:format>
        <dc:type
           rdf:resource="http://purl.org/dc/dcmitype/StillImage" />
        <dc:title />
      </cc:Work>
    </rdf:RDF>
  </metadata>
  <defs
     id="defs6">
    <inkscape:perspective
       id="perspective27"
       inkscape:persp3d-origin="64 : 42.666667 : 1"
       inkscape:vp_z="128 : 64 : 1"
       inkscape:vp_y="0 : 1000 : 0"
       inkscape:vp_x="0 : 64 : 1"
       sodipodi:type="inkscape:persp3d" />
    <linearGradient
       id="linearGradient3369">
      <stop
         id="stop3372"
         offset="0"
         style="stop-color:#ffffff;stop-opacity:1;" />
      <stop
         style="stop-color:#ffffff;stop-opacity:1;"
         offset="0.58620691"
         id="stop3374" />
      <stop
         style="stop-color:#f1f1f1;stop-opacity:1;"
         offset="0.82608694"
         id="stop3376" />
      <stop
         id="stop3378"
         offset="0.9130435"
         style="stop-color:#eaeaea;stop-opacity:1;" />
      <stop
         id="stop3384"
         offset="1"
         style="stop-color:#dfdfdf;stop-opacity:1;" />
    </linearGradient>
    <linearGradient
       id="linearGradient7422">
      <stop
         style="stop-color:#7c9fcf;stop-opacity:1"
         offset="0"
         id="stop7424" />
      <stop
         id="stop5348"
         offset="0.5"
         style="stop-color:#7c9ece;stop-opacity:1" />
      <stop
         id="stop7426"
         offset="1"
         style="stop-color:#7b9dcf;stop-opacity:1" />
    </linearGradient>
    <linearGradient
       y2="388.95178"
       x2="399.77466"
       y1="1324.7792"
       x1="405.94968"
       gradientTransform="matrix(0.08097132,0,0,0.07807154,182.74486,-6.9021226)"
       gradientUnits="userSpaceOnUse"
       id="linearGradient2330"
       xlink:href="#linearGradient7422"
       inkscape:collect="always" />
    <linearGradient
       inkscape:collect="always"
       xlink:href="#linearGradient3369"
       id="linearGradient32736"
       x1="64"
       y1="128"
       x2="63.9991"
       y2="-5.8162999"
       gradientUnits="userSpaceOnUse" />
    <linearGradient
       inkscape:collect="always"
       xlink:href="#linearGradient7422"
       id="linearGradient863"
       x1="6.2158418"
       y1="67.636063"
       x2="121.7822"
       y2="67.636063"
       gradientUnits="userSpaceOnUse" />
  </defs>
  <sodipodi:namedview
     pagecolor="#ffffff"
     bordercolor="#666666"
     borderopacity="1"
     objecttolerance="10"
     gridtolerance="10"
     guidetolerance="10"
     inkscape:pageopacity="0"
     inkscape:pageshadow="2"
     inkscape:window-width="1364"
     inkscape:window-height="704"
     id="namedview4"
     showgrid="true"
     inkscape:snap-page="true"
     inkscape:snap-global="true"
     inkscape:zoom="1.7320077"
     inkscape:cx="12.876274"
     inkscape:cy="79.329143"
     inkscape:window-x="0"
     inkscape:window-y="0"
     inkscape:window-maximized="0"
     inkscape:current-layer="svg2"
     showguides="true">
    <inkscape:grid
       type="xygrid"
       id="grid837"
       spacingx="5.8181"
       spacingy="5.8181"
       empspacing="1" />
  </sodipodi:namedview>
  <path
     style="fill:url(#linearGradient863);fill-opacity:1;fill-rule:evenodd;stroke:none;stroke-width:4.6329999;stroke-linecap:round;stroke-linejoin:round;stroke-miterlimit:4;stroke-dasharray:none;stroke-opacity:1"
     d="M 11.634766 5.8125 C 10.311875 5.812832 9.0289206 6.2632171 7.9960938 7.0898438 L 7.96875 7.1113281 C 6.587274 8.2166927 5.781657 9.8908893 5.78125 11.660156 L 5.78125 42.314453 C 5.781257 48.011653 13.05532 51.645034 17.503906 47.414062 C 17.528556 47.390833 17.551962 47.36743 17.576172 47.34375 L 24.146484 40.876953 L 52.283203 69.011719 L 52.369141 122.18164 C 52.369165 122.38227 52.378574 122.58 52.398438 122.77539 C 52.438164 123.16617 52.517617 123.54616 52.630859 123.91016 C 53.027208 125.18413 53.849396 126.27076 54.931641 127.00195 C 55.086247 127.10641 55.245446 127.20348 55.410156 127.29297 C 56.234053 127.74089 57.177921 127.99402 58.181641 127.99414 L 69.816406 127.99414 C 73.026401 127.99375 75.62852 125.39164 75.628906 122.18164 L 75.714844 69.011719 L 103.85156 40.876953 L 110.42188 47.34375 C 110.44608 47.36743 110.46954 47.390833 110.49414 47.414062 C 114.94273 51.645033 122.21679 48.011653 122.2168 42.314453 L 122.2168 11.660156 C 122.21639 9.890889 121.41077 8.2166927 120.0293 7.1113281 L 120.00195 7.0898438 C 118.96912 6.2632171 117.68618 5.812832 116.36328 5.8125 L 86.205078 5.8125 C 82.991115 5.8125127 80.310391 8.3489765 79.517578 10.605469 C 78.724765 12.86196 78.683263 15.682024 81.193359 18.113281 L 81.091797 18.013672 L 87.386719 24.408203 L 64 47.796875 L 40.611328 24.408203 L 46.90625 18.013672 L 46.804688 18.113281 C 49.314784 15.682025 49.273282 12.86196 48.480469 10.605469 C 47.687656 8.3489766 45.006932 5.8125127 41.792969 5.8125 L 11.634766 5.8125 z "
     id="path853" />
  <g
     id="g905"
     transform="translate(-0.02871,0.02305)" />
  <path
     style="fill:url(#linearGradient32736);fill-opacity:1;fill-rule:evenodd;stroke:none;stroke-width:4.6329999;stroke-linecap:round;stroke-linejoin:round;stroke-miterlimit:4;stroke-dasharray:none;stroke-opacity:1"
     d="M 11.636719 11.638672 L 11.607422 11.660156 L 11.607422 42.314453 C 11.607422 43.363559 12.862851 43.788183 13.488281 43.193359 L 24.177734 32.669922 L 56.615234 65.107422 L 58.095703 66.587891 L 58.181641 122.18164 L 69.816406 122.18164 L 69.902344 66.587891 L 71.382812 65.107422 L 103.82031 32.669922 L 114.50977 43.193359 C 115.1352 43.788183 116.39062 43.363559 116.39062 42.314453 L 116.39062 11.660156 L 116.36133 11.638672 L 86.205078 11.638672 C 84.985835 11.638679 84.568303 13.273123 85.244141 13.927734 L 95.591797 24.441406 L 64 56.035156 L 32.40625 24.441406 L 42.753906 13.927734 C 43.429744 13.273123 43.012212 11.638679 41.792969 11.638672 L 11.636719 11.638672 z "
     id="path32691" />
</svg>
