<svg height="128" width="128" xmlns="http://www.w3.org/2000/svg" xmlns:xlink="http://www.w3.org/1999/xlink"><linearGradient id="a"><stop offset="0" stop-color="#0968ef"/><stop offset="1" stop-color="#aecffc"/></linearGradient><linearGradient id="b" gradientTransform="matrix(.09695085 0 0 .2090041 27.374234 -114.85256)" gradientUnits="userSpaceOnUse" x1="399.77466" x2="399.77466" y1="1164.6696" y2="549.06134"><stop offset="0" stop-color="#b4b4b6"/><stop offset=".5" stop-color="#9c9ca1"/><stop offset="1" stop-color="#cdcdd1"/></linearGradient><linearGradient id="c" gradientTransform="matrix(.8272408 0 0 1.5555557 28.803329 -35.555551)" gradientUnits="userSpaceOnUse" x1="112.00001" x2="112.00001" y1="124.23937" y2="-22.601965"><stop offset="0" stop-color="#fff"/><stop offset=".42597079" stop-color="#fff"/><stop offset=".5892781" stop-color="#f1f1f1"/><stop offset=".80219781" stop-color="#eaeaea"/><stop offset="1" stop-color="#dfdfdf"/></linearGradient><linearGradient id="d" gradientTransform="matrix(-.70268153 .00000003 -.00000002 -.41263578 23.041194 49.77856)" gradientUnits="userSpaceOnUse" x1="12.131731" x2="7.983612" xlink:href="#a" y1="120.57536" y2="-118.6722"/><linearGradient id="e" gradientTransform="matrix(-.70268153 -.00000003 -.00000002 .41263578 23.052714 78.098152)" gradientUnits="userSpaceOnUse" x1="12.131731" x2="8.000006" xlink:href="#a" y1="120.57536" y2="-105.05704"/><rect fill="url(#b)" height="116.362" rx="2.857143" ry="2.769231" width="93.089607" x="34.9086" y="5.819901"/><rect fill="url(#c)" fill-rule="evenodd" height="104.7258" rx="1.750002" ry="1.750001" width="81.4534" x="40.7267" y="11.638"/><path d="m0 29.057739 11.613159-8.709869v42.036186h5.80658v-42.036186l11.613158 8.709869v-5.80658l-12.066797-11.613159h-4.899302l-12.066798 11.613159z" fill="url(#d)"/><path d="m.01152 98.818972 11.613159 8.709878v-46.236194h5.80658v46.236194l11.613159-8.709878v5.806588l-12.066798 11.61316h-4.899302l-12.066798-11.61316z" fill="url(#e)"/></svg>