<svg height="128" viewBox="0 0 33.866666 33.866668" width="128" xmlns="http://www.w3.org/2000/svg" xmlns:xlink="http://www.w3.org/1999/xlink"><filter id="a"><feGaussianBlur stdDeviation="2.0786429"/></filter><radialGradient id="b" cx="27.708702" cy="301.6181" gradientTransform="matrix(3.5555559 .00000018 -.00000015 3.0000008 -70.811094 -603.23643)" gradientUnits="userSpaceOnUse" r="13.85435"><stop offset="0" stop-color="#b7b8b9"/><stop offset=".18851049" stop-color="#ececec"/><stop offset=".25718147" stop-color="#fafafa"/><stop offset=".30111277" stop-color="#fff"/><stop offset=".5313" stop-color="#fafafa"/><stop offset=".8449" stop-color="#ebecec"/><stop offset="1" stop-color="#e1e2e3"/></radialGradient><linearGradient id="c"><stop offset="0" stop-color="#80f9ff"/><stop offset="1" stop-color="#80fff9" stop-opacity="0"/></linearGradient><radialGradient id="d" cx="24.938152" cy="296.91248" gradientTransform="matrix(-1.5934861 -.09959287 -.19957455 3.1931933 125.16411 -656.31218)" gradientUnits="userSpaceOnUse" r="7.713275"><stop offset="0" stop-color="#9abcee"/><stop offset="1" stop-color="#092042"/></radialGradient><radialGradient id="e" cx="27.701904" cy="277.12509" gradientTransform="matrix(1 0 0 -1.859301 .005827 803.82221)" gradientUnits="userSpaceOnUse" r="7.713275"><stop offset="0" stop-color="#000914"/><stop offset="1" stop-color="#000b14" stop-opacity="0"/></radialGradient><radialGradient id="f" cx="26.191305" cy="282.65869" gradientTransform="matrix(1 0 0 -1.859301 .005827 803.82221)" gradientUnits="userSpaceOnUse" r="7.713275"><stop offset="0" stop-color="#001331"/><stop offset="1" stop-color="#293e63"/></radialGradient><radialGradient id="g" cx="26.169329" cy="277.12506" gradientTransform="matrix(1 0 0 -1.859301 .005827 803.82221)" gradientUnits="userSpaceOnUse" r="7.713275"><stop offset="0" stop-color="#fff"/><stop offset="1" stop-color="#fff" stop-opacity="0"/></radialGradient><linearGradient id="h" gradientUnits="userSpaceOnUse" x1="28.3785099118" x2="28.3785099118" y1="255.53749865814" y2="288.73120723025"><stop offset="0" stop-color="#bfe7ff"/><stop offset="1" stop-color="#bff9ff" stop-opacity="0"/></linearGradient><linearGradient gradientUnits="userSpaceOnUse" x1="27.708702" x2="34.425343" xlink:href="#c" y1="298.53937" y2="282.56204"/><filter id="i" color-interpolation-filters="sRGB" height="1.018454" width="1.034312" x="-.017156" y="-.009227"><feGaussianBlur stdDeviation=".11027288"/></filter><linearGradient id="j" gradientUnits="userSpaceOnUse" x1="26.163502" x2="30.787445" xlink:href="#c" y1="268.55145" y2="280.06689"/><g transform="translate(0 -263.13332)"><path d="m11.599999 11.8.000089 118.71995 118.739972-.02-.00009-118.719951z" filter="url(#a)" opacity=".553903" transform="matrix(.2699708 0 0 .2699708 -2.121455 261.22293)"/><path d="m1.5501472 264.67856-.010775 30.78205 30.5704717-.005.227788-.22779-.01081-30.55426z" fill="#fff" stroke-width=".269971"/><rect fill="url(#b)" height="27.7087" rx=".17989" ry=".190964" width="27.7087" x="3.078745" y="266.21255"/><g fill="#404040" fill-opacity=".839216" transform="matrix(-1 0 0 1 0 10.775603)"><path d="m-21.55121 269.29129h15.393722v1.539367h-15.393722z"/><path d="m-18.472467 273.90942h12.314979v1.539351h-12.314979z"/><path d="m-21.55121 278.52753h15.393722v1.539364h-15.393722z"/></g></g><g transform="translate(.00097 -263.13332)"><g fill="none"><path d="m26.201783 292.61592 7.708624-8.77942-6.169289 1.40089-.02659-21.30407h-3.085693l-.000707.56691h.000707l.02659 20.73858-6.171568-1.39516z" stroke="url(#g)" stroke-linecap="round" stroke-linejoin="round" stroke-width="1.6"/><path d="m26.201783 292.61592 7.708624-8.77942-6.169289 1.40089-.02659-21.30407h-3.085693l-.000707.56691h.000707l.02659 20.73858-6.171568-1.39516z" stroke="url(#f)" stroke-linecap="round" stroke-linejoin="round" stroke-width="1.6"/><path d="m26.201783 292.61592 7.708624-8.77942-6.169289 1.40089-.02659-21.30407h-3.085693l-.000707.56691h.000707l.02659 20.73858-6.171568-1.39516z" stroke="url(#e)" stroke-linecap="round" stroke-linejoin="round" stroke-width="1.6"/></g><path d="m26.201783 292.61592 7.708624-8.77942-6.169289 1.40089-.02659-21.30407h-3.085693l-.000707.56691h.000707l.02659 20.73858-6.171568-1.39516z" fill="url(#d)" fill-rule="evenodd"/><path d="m26.195956 268.31739 7.708624 8.77942-6.169289-1.40089-.02659 21.30407h-3.085693l-.000707-.56691h.000707l.02659-20.73858-6.171568 1.39516z" style="fill:none;stroke-width:.3;stroke-linecap:round;stroke-linejoin:round;stroke:url(#j);filter:url(#i)" transform="matrix(1 0 0 -1 .005827 560.93331)"/><path d="m24.628987 263.93327-.001.56689h.001l.01292 10.2371a24.466845 15.490401 0 0 0 3.085601-.29197l-.01291-10.51202z" fill="url(#h)"/><path d="m26.195956 268.31739 7.708624 8.77942-1.534042 1.45299-4.635247-2.85388-.02659 21.30407h-3.085693l-.000707-.56691h.000707l.02659-20.73858-4.561463 2.84959-1.610105-1.45443z" fill="none" filter="url(#i)" transform="matrix(1 0 0 -1 .005827 560.93331)"/></g></svg>