<svg height="88" width="88" xmlns="http://www.w3.org/2000/svg" xmlns:xlink="http://www.w3.org/1999/xlink"><filter id="a"><feGaussianBlur stdDeviation="1.5999062"/></filter><linearGradient id="b" gradientTransform="matrix(.08097133 0 0 .117107 158.00215 425.399)" gradientUnits="userSpaceOnUse" x1="-333.0289" x2="-333.0289" y1="-1473.6504" y2="-776.61371"><stop offset="0" stop-color="#fff"/><stop offset=".49140647" stop-color="#fff"/><stop offset="1" stop-color="#dcdcdc"/></linearGradient><linearGradient id="c" gradientTransform="matrix(.08097133 0 0 .117107 78.3735 188.5229)" gradientUnits="userSpaceOnUse" x1="399.77466" x2="399.77466" y1="731.09662" y2="480.60214"><stop offset="0" stop-color="#cbcbcd"/><stop offset=".5" stop-color="#e0e0e2"/><stop offset="1" stop-color="#f2f2f2"/></linearGradient><radialGradient id="d" cx="84.903702" cy="-130.14005" gradientTransform="matrix(.30794145 .30794145 -.30794145 .30794145 50.133878 110.90745)" gradientUnits="userSpaceOnUse" r="57.039597" xlink:href="#e"/><linearGradient id="e"><stop offset="0" stop-color="#011701"/><stop offset=".80671918" stop-color="#145703"/><stop offset="1" stop-color="#2fa207" stop-opacity=".384314"/></linearGradient><radialGradient id="f" cx="43.084476" cy="-121.92532" gradientTransform="matrix(.30347528 .31234377 -.3628951 .35259129 43.626059 116.16172)" gradientUnits="userSpaceOnUse" r="57.039597" xlink:href="#e"/><radialGradient id="g" cx="51.991096" cy="-78.028419" gradientTransform="matrix(.28232256 .33158686 -.56115095 .47778001 31.708295 122.93033)" gradientUnits="userSpaceOnUse" r="57.039597" xlink:href="#e"/><linearGradient id="h" gradientTransform="scale(1.0975951 .9110828)" gradientUnits="userSpaceOnUse" x1="26.091133" x2="31.500689" xlink:href="#i" y1="14.856744" y2="14.856744"/><linearGradient id="i"><stop offset="0" stop-color="#fff"/><stop offset="1" stop-color="#fff" stop-opacity="0"/></linearGradient><filter id="j" height="1.277481" width="1.279832" x="-.139916" y="-.138741"><feGaussianBlur stdDeviation=".28784801"/></filter><linearGradient id="k" gradientUnits="userSpaceOnUse" x1="304.88663" x2="345.62039" y1="385.86127" y2="384.62384"><stop offset="0" stop-color="#765c44"/><stop offset="1" stop-color="#765c44" stop-opacity="0"/></linearGradient><linearGradient id="l" gradientUnits="userSpaceOnUse" spreadMethod="reflect" x1="88.60625" x2="91.575107" y1="13.510336" y2="13.510336"><stop offset="0" stop-color="#c8ff87"/><stop offset="1" stop-color="#abff87" stop-opacity="0"/></linearGradient><linearGradient id="m" gradientUnits="userSpaceOnUse" spreadMethod="reflect" x1="31.60625" x2="34.575107" y1="13.510336" y2="13.510336"><stop offset="0" stop-color="#fff"/><stop offset="1" stop-color="#790000" stop-opacity="0"/></linearGradient><radialGradient id="n" cx="50.424522" cy="-81.945961" gradientTransform="matrix(.30794145 .30794145 -.30794145 .30794145 50.133877 110.90745)" gradientUnits="userSpaceOnUse" r="50.15279"><stop offset="0" stop-color="#7ae91e" stop-opacity=".996078"/><stop offset="1" stop-color="#62c916"/></radialGradient><filter id="o" color-interpolation-filters="sRGB" height="1.024" width="1.024" x="-.012" y="-.012"><feGaussianBlur stdDeviation=".28192153"/></filter><linearGradient id="p" gradientUnits="userSpaceOnUse" x1="88.388145" x2="101.27929" xlink:href="#i" y1="51.615383" y2="113.91425"/><g transform="translate(-79.62865 -236.8761)"><path d="m85.017009 252.87505h77.223281c.76597 0 1.38261.72808 1.38261 1.63246v60.73718c0 .90439-.61664 1.63247-1.38261 1.63247h-77.223281c-.765966 0-1.38261-.72808-1.38261-1.63247v-60.73718c0-.90438.616644-1.63246 1.38261-1.63246z" style="opacity:.4;fill:none;stroke:#000;stroke-width:4;stroke-linecap:round;stroke-linejoin:round;stroke-dashoffset:4;filter:url(#a)"/><path d="m85.011455 252.8761h77.234385c.76607 0 1.38281.72806 1.38281 1.63242v60.73516h-80.000003v-60.73516c0-.90436.616732-1.63242 1.382808-1.63242z" fill="url(#c)"/><path d="m132.17051 267.80938v-1.92136z" fill="#fff" fill-opacity=".756881"/><path d="m85.00365 252.8761c-.766076 0-1.375.72064-1.375 1.625v60.75c0 .90436.608924 1.625 1.375 1.625h77.25c.76608 0 1.375-.72064 1.375-1.625v-60.75c0-.90436-.60892-1.625-1.375-1.625zm.9375 2.4375h75.375c.72777 0 1.3125.68271 1.3125 1.53125v57.5c0 .84854-.58473 1.53125-1.3125 1.53125h-75.375c-.727772 0-1.3125-.68271-1.3125-1.53125v-57.5c0-.84854.584728-1.53125 1.3125-1.53125z" fill="url(#b)"/><path d="m4 32v12h24v-12zm28 0v12h24v-12zm28 0v12h24v-12zm-56 16v12h24v-12zm28 0v12h24v-12zm28 0v12h24v-12zm-56 16v16h24v-16zm28 0v16h24v-16zm28 0v16h24v-16z" fill="#fff" transform="translate(79.62865 236.8761)"/><g transform="matrix(.6875 0 0 .6875 79.583765 236.80792)"><path d="m127.39616 90.58295c.00005-1.656397-1.34274-2.99918-2.99913-2.999132h-19.88392v-19.884771c.00005-1.656396-1.34274-2.99918-2.99913-2.999132l-10.617743.000005c-1.656393-.000048-2.999178 1.342735-2.999131 2.999127v19.884771h-19.88392c-1.656396-.000048-2.99918 1.342735-2.999132 2.999132v10.61774c-.000048 1.6564 1.342736 2.99918 2.999132 2.99913h19.88392v19.88392c-.00005 1.6564 1.342736 2.99918 2.999132 2.99913h10.617742c1.65639.00005 2.99918-1.34273 2.99913-2.99913v-19.88392h19.88392c1.6564.00005 2.99918-1.34274 2.99913-2.99913z" fill="#1f5623" fill-opacity=".905882"/><path d="m127.39616 90.58295c.00005-1.656397-1.34274-2.99918-2.99913-2.999132h-19.88392v-19.884771c.00005-1.656396-1.34274-2.99918-2.99913-2.999132l-10.617743.000005c-1.656393-.000048-2.999178 1.342735-2.999131 2.999127v19.884771h-19.88392c-1.656396-.000048-2.99918 1.342735-2.999132 2.999132v10.61774c-.000048 1.6564 1.342736 2.99918 2.999132 2.99913h19.88392v19.88392c-.00005 1.6564 1.342736 2.99918 2.999132 2.99913h10.617742c1.65639.00005 2.99918-1.34273 2.99913-2.99913v-19.88392h19.88392c1.6564.00005 2.99918-1.34274 2.99913-2.99913z" fill="url(#d)"/><path d="m127.39616 90.58295c.00005-1.656397-1.34274-2.99918-2.99913-2.999132h-19.88392v-19.884771c.00005-1.656396-1.34274-2.99918-2.99913-2.999132l-10.617743.000005c-1.656393-.000048-2.999178 1.342735-2.999131 2.999127v19.884771h-19.88392c-1.656396-.000048-2.99918 1.342735-2.999132 2.999132v10.61774c-.000048 1.6564 1.342736 2.99918 2.999132 2.99913h19.88392v19.88392c-.00005 1.6564 1.342736 2.99918 2.999132 2.99913h10.617742c1.65639.00005 2.99918-1.34273 2.99913-2.99913v-19.88392h19.88392c1.6564.00005 2.99918-1.34274 2.99913-2.99913z" fill="#066704"/><path d="m127.39616 90.58295c.00005-1.656397-1.34274-2.99918-2.99913-2.999132h-19.88392v-19.884771c.00005-1.656396-1.34274-2.99918-2.99913-2.999132l-10.617743.000005c-1.656393-.000048-2.999178 1.342735-2.999131 2.999127v19.884771h-19.88392c-1.656396-.000048-2.99918 1.342735-2.999132 2.999132v10.61774c-.000048 1.6564 1.342736 2.99918 2.999132 2.99913h19.88392v19.88392c-.00005 1.6564 1.342736 2.99918 2.999132 2.99913h10.617742c1.65639.00005 2.99918-1.34273 2.99913-2.99913v-19.88392h19.88392c1.6564.00005 2.99918-1.34274 2.99913-2.99913z" fill="url(#f)"/><path d="m127.39616 90.58295c.00005-1.656397-1.34274-2.99918-2.99913-2.999132h-19.88392v-19.884771c.00005-1.656396-1.34274-2.99918-2.99913-2.999132l-10.617743.000005c-1.656393-.000048-2.999178 1.342735-2.999131 2.999127v19.884771h-19.88392c-1.656396-.000048-2.99918 1.342735-2.999132 2.999132v10.61774c-.000048 1.6564 1.342736 2.99918 2.999132 2.99913h19.88392v19.88392c-.00005 1.6564 1.342736 2.99918 2.999132 2.99913h10.617742c1.65639.00005 2.99918-1.34273 2.99913-2.99913v-19.88392h19.88392c1.6564.00005 2.99918-1.34274 2.99913-2.99913z" fill="url(#g)"/><g fill-rule="evenodd"><path d="m31.7 16 2.875-3.375c-1.051205-1.695758-3.935136-2.288018-5.9375-.3125l2.8125 3.375z" fill="url(#h)" filter="url(#j)" opacity=".498127" transform="matrix(-.649543579 .649543579 .65578089674 .65578089674 80.34420336326 61.10022754565)"/><path d="m31.7 16 2.875-3.375c-1.051205-1.695758-3.935136-2.288018-5.9375-.3125l2.8125 3.375z" fill="url(#h)" filter="url(#j)" opacity=".790262" transform="matrix(-.64763609601 -.64763609601 .64147625216 -.64147625216 102.80882092964 152.77126444806)"/><path d="m31.7 16 2.875-3.375c-1.051205-1.695758-3.935136-2.288018-5.9375-.3125l2.8125 3.375z" fill="url(#k)" filter="url(#j)" opacity=".498127" transform="matrix(-.58819377522 .58819377522 -.59384197557 -.59384197557 128.42011101176 113.04166572109)"/><path d="m88.7 16 2.875-3.375c-1.051205-1.695758-3.935136-2.288018-5.9375-.3125l2.8125 3.375z" fill="url(#l)" filter="url(#j)" opacity=".790262" transform="matrix(-.59384197557 -.59384197557 .58819377522 -.58819377522 112.80264541475 161.7584578086)"/><path d="m31.7 16 2.875-3.375c-1.051205-1.695758-3.935136-2.288018-5.9375-.3125l2.8125 3.375z" fill="url(#m)" filter="url(#j)" opacity=".790262" transform="matrix(-.54004785512 -.54004785512 -.53491130791 .53491130791 148.6387375185 100.16244647365)"/><path d="m88.7 16 2.875-3.375c-1.051205-1.695758-3.935136-2.288018-5.9375-.3125l2.8125 3.375z" fill="url(#l)" filter="url(#j)" opacity=".790262" transform="matrix(-.5544433657 -.5544433657 -.54916990332 .54916990332 158.16645547734 109.42078210279)"/></g><path d="m124.39703 90.58295h-22.88305v-22.883898l-10.617741-.000005-.000001 22.883903h-22.883052v10.61774h22.883052v22.88305h10.617742v-22.88305h22.88305z" fill="url(#n)"/><path d="m101.51439 67.699139-10.617965-.000005v22.884181l-22.883579-.000435v10.61797h22.882977l.000001 22.88297h10.617966v-22.88297l22.88298-.00001-.00001-10.617956h-22.88297zm-.75422.754216-.00061 22.129359c-.00004.41656.33766.754256.75422.754217h22.12876v9.109529h-22.12876c-.41656-.00004-.75426.33766-.75422.75422v22.12876h-9.10953v-22.12876c.00004-.41656-.337657-.75426-.754216-.75422h-22.12876v-9.109534l22.129362.000436c.416558.000039.754257-.337657.754216-.754216v-22.129961z" fill="#eef4ca" fill-opacity=".779412" filter="url(#o)"/><path d="m90.896484 67.699219v22.882812h-22.882812v6.925781a65.433395 38.789856 0 0 0 17.794922 1.498047 65.433395 38.789856 0 0 0 38.587886-7.521484v-.902344h-22.88281v-22.882812z" fill="url(#p)"/></g></g></svg>