<svg height="128" viewBox="0 0 33.866666 33.866668" width="128" xmlns="http://www.w3.org/2000/svg" xmlns:xlink="http://www.w3.org/1999/xlink"><linearGradient id="a" gradientUnits="userSpaceOnUse" x1="31.75000838596" x2="34.49998947816" xlink:href="#b" y1="48.00001385273" y2="72.750013216"/><linearGradient id="b"><stop offset="0" stop-color="#fd0000"/><stop offset="1" stop-color="#8f0000"/></linearGradient><radialGradient id="c" cx="72.631729" cy="22.787588" gradientTransform="matrix(5.297908 0 0 5.2979189 -354.76495 -52.461151)" gradientUnits="userSpaceOnUse" r="1.265237" xlink:href="#b"/><linearGradient id="d" gradientUnits="userSpaceOnUse" x1="27.57962580724" x2="30.67922538506" y1="57.19771452443" y2="68.76557799622"><stop offset="0" stop-color="#fff"/><stop offset="1" stop-color="#fff" stop-opacity="0"/></linearGradient><g transform="translate(0 -263.13332)"><path d="m256.90836 85.082245h20.011835v1.539372h-20.011835z" fill="#4d4d4d" fill-opacity=".992157" opacity=".99" transform="matrix(.34202014 .93969262 -.93969262 .34202014 0 0)"/><g transform="matrix(.38484967 0 0 .38484967 3.075116 266.21912)"><rect fill="url(#a)" height="12" rx="1.546875" width="12" x="24" y="60"/><rect fill="url(#c)" height="8.937499" rx=".837891" width="8.937503" x="25.562511" y="61.5625"/><path d="m26.428317 61.562516c-.464192 0-.837891.3737-.837891.837891v4.224364c.679121.06455 1.378207.104736 2.094726.104736 2.578772 0 4.95135-.434878 6.842772-1.169555v-3.159545c0-.464191-.373698-.837891-.837891-.837891z" fill="url(#d)"/></g><path d="m-119.66753-252.15257h20.011841v1.539398h-20.011841z" fill="#4d4d4d" fill-opacity=".992157" opacity=".99" transform="matrix(-.93969262 -.34202014 .34202014 -.93969262 0 0)"/><path d="m6.157489 269.29129h20.011841v1.539374h-20.011841z" fill="#c80000" opacity=".99"/><g transform="matrix(.38484967 0 0 .38484967 16.9314 252.35832)"><rect fill="url(#a)" height="12" rx="1.546875" width="12" x="24" y="60"/><rect fill="url(#c)" height="8.937499" rx=".837891" width="8.937503" x="25.562511" y="61.5625"/><path d="m26.428317 61.562516c-.464192 0-.837891.3737-.837891.837891v4.224364c.679121.06455 1.378207.104736 2.094726.104736 2.578772 0 4.95135-.434878 6.842772-1.169555v-3.159545c0-.464191-.373698-.837891-.837891-.837891z" fill="url(#d)"/></g><path d="m50.187213 286.33592v-.58756z" fill="#fff" fill-opacity=".756881"/><g fill="#c80000" transform="matrix(0 1 1 0 -263.1338 263.1338)"><path d="m6.157489 269.29129h20.011841v1.539374h-20.011841z" opacity=".99"/><path d="m26.169329 267.75193v4.61811h4.618117l.000001-4.61813zm1.539373 1.53937h1.539372v1.53937h-1.539372z" opacity=".99"/></g><g transform="matrix(.38484968 0 0 .38484968 -4.617912 244.6636)"><rect fill="url(#a)" height="12" rx="1.546875" width="12" x="24" y="60"/><rect fill="url(#c)" height="8.937499" rx=".837891" width="8.937503" x="25.562511" y="61.5625"/><path d="m26.428317 61.562516c-.464192 0-.837891.3737-.837891.837891v4.224364c.679121.06455 1.378207.104736 2.094726.104736 2.578772 0 4.95135-.434878 6.842772-1.169555v-3.159545c0-.464191-.373698-.837891-.837891-.837891z" fill="url(#d)"/></g><path d="m26.169329 267.75193v4.61811h4.618117l.000001-4.61813zm1.539373 1.53937h1.539372v1.53937h-1.539372z" fill="#c80000" opacity=".99"/></g></svg>