<svg height="128" viewBox="0 0 33.866666 33.866668" width="128" xmlns="http://www.w3.org/2000/svg" xmlns:xlink="http://www.w3.org/1999/xlink"><linearGradient id="a" gradientUnits="userSpaceOnUse" x1="31.75000838596" x2="34.49998947816" xlink:href="#b" y1="48.00001385273" y2="72.750013216"/><linearGradient id="b"><stop offset="0" stop-color="#fd0000"/><stop offset="1" stop-color="#8f0000"/></linearGradient><radialGradient id="c" cx="72.631729" cy="22.787588" gradientTransform="matrix(5.297908 0 0 5.2979189 -354.76495 -52.461151)" gradientUnits="userSpaceOnUse" r="1.265237" xlink:href="#b"/><linearGradient id="d" gradientUnits="userSpaceOnUse" x1="27.57962580724" x2="30.67922538506" y1="57.19771452443" y2="68.76557799622"><stop offset="0" stop-color="#fff"/><stop offset="1" stop-color="#fff" stop-opacity="0"/></linearGradient><linearGradient id="e" gradientUnits="userSpaceOnUse" x1="304.88663" x2="345.62039" xlink:href="#f" y1="385.86127" y2="384.62384"/><linearGradient id="f"><stop offset="0" stop-color="#765c44"/><stop offset="1" stop-color="#765c44" stop-opacity="0"/></linearGradient><linearGradient id="g" gradientUnits="userSpaceOnUse" spreadMethod="reflect" x1="31.60625" x2="34.575107" y1="13.510336" y2="13.510336"><stop offset="0" stop-color="#fff"/><stop offset="1" stop-color="#790000" stop-opacity="0"/></linearGradient><linearGradient id="h" gradientTransform="matrix(0 -.17812724 -.1046017 0 23.599059 281.50384)" gradientUnits="userSpaceOnUse" x1="10.135816" x2="9.692278" xlink:href="#b" y1="29.107889" y2="103.48482"/><radialGradient id="i" cx="84.903702" cy="-130.14005" gradientTransform="matrix(.04899496 -.04899496 .04899496 .04899496 27.763383 298.48358)" gradientUnits="userSpaceOnUse" r="57.039597" xlink:href="#j"/><linearGradient id="j"><stop offset="0" stop-color="#3a0b02"/><stop offset="1" stop-color="#a21d07" stop-opacity=".382353"/></linearGradient><radialGradient id="k" cx="2.720703" cy="-66.273438" gradientTransform="matrix(.04899496 -.04899496 .04899496 .04899496 27.763383 298.48358)" gradientUnits="userSpaceOnUse" r="57.039597" xlink:href="#j"/><radialGradient id="l" cx="51.991096" cy="-78.028419" gradientTransform="matrix(.04899496 -.04899496 .04899496 .04899496 27.763383 298.48358)" gradientUnits="userSpaceOnUse" r="57.039597" xlink:href="#j"/><linearGradient id="m" gradientTransform="scale(1.0975951 .9110828)" gradientUnits="userSpaceOnUse" x1="26.091133" x2="31.500689" xlink:href="#f" y1="14.856744" y2="14.856744"/><filter id="n" height="1.277481" width="1.279832" x="-.139916" y="-.138741"><feGaussianBlur stdDeviation=".28784801"/></filter><linearGradient id="o" gradientUnits="userSpaceOnUse" spreadMethod="reflect" x1="88.60625" x2="91.575107" y1="13.510336" y2="13.510336"><stop offset="0" stop-color="#ff8787"/><stop offset="1" stop-color="#ff8787" stop-opacity="0"/></linearGradient><radialGradient id="p" cx="50.424522" cy="-81.945961" gradientTransform="matrix(.04899496 -.04899496 .04899496 .04899496 27.763382 298.48358)" gradientUnits="userSpaceOnUse" r="50.15279"><stop offset="0" stop-color="#db3424"/><stop offset="1" stop-color="#b32016"/></radialGradient><linearGradient id="q" gradientTransform="matrix(.04899496 -.04899496 .04899496 .04899496 27.763383 298.48358)" gradientUnits="userSpaceOnUse" x1="50.06789" x2="59.441998" y1="-154.40843" y2="-71.617722"><stop offset="0" stop-color="#fff"/><stop offset="1" stop-color="#fcf3f3" stop-opacity="0"/></linearGradient><g transform="translate(0 -263.13332)"><path d="m116.05142 255.43027h24.514338v1.539387h-24.514338z" fill="#4d4d4d" fill-opacity=".992157" opacity=".5" transform="matrix(-.8660254 .5 .5 .8660254 0 0)"/><path d="m50.187213 286.33592v-.58756z" fill="#fff" fill-opacity=".756881"/><path d="m-163.36403-228.53151h24.514338v1.539387h-24.514338z" fill="#4d4d4d" fill-opacity=".992157" opacity=".5" transform="matrix(-.8660254 -.5 .5 -.8660254 0 0)"/><path d="m267.73865-7.682978h21.569227v1.539387h-21.569227z" fill="#4d4d4d" fill-opacity=".992157" transform="rotate(90)"/><g transform="matrix(.38484968 0 0 .38484968 -4.617912 241.58177)"><rect fill="url(#a)" height="12" rx="1.546875" width="12" x="24" y="60"/><rect fill="url(#c)" height="8.937499" rx=".837891" width="8.937503" x="25.562511" y="61.5625"/><path d="m26.428317 61.562516c-.464192 0-.837891.3737-.837891.837891v4.224364c.679121.06455 1.378207.104736 2.094726.104736 2.578772 0 4.95135-.434878 6.842772-1.169555v-3.159545c0-.464191-.373698-.837891-.837891-.837891z" fill="url(#d)"/></g><g transform="matrix(.38484968 0 0 .38484968 -4.617912 266.20978)"><rect fill="url(#a)" height="12" rx="1.546875" width="12" x="24" y="60"/><rect fill="url(#c)" height="8.937499" rx=".837891" width="8.937503" x="25.562511" y="61.5625"/><path d="m26.428317 61.562516c-.464192 0-.837891.3737-.837891.837891v4.224364c.679121.06455 1.378207.104736 2.094726.104736 2.578772 0 4.95135-.434878 6.842772-1.169555v-3.159545c0-.464191-.373698-.837891-.837891-.837891z" fill="url(#d)"/></g><path d="m14.655045 283.04388.735973-.73596-1.471945-2.20794 9.063024.00093v-1.47147l-9.063019-.001 1.471939-2.20794-.73597-.73597-4.412604 3.68102 4.412606 3.67871z" fill="url(#h)"/><g opacity=".5" transform="matrix(.38484968 0 0 .38484968 16.932631 253.89863)"><rect fill="url(#a)" height="12" rx="1.546875" width="12" x="24" y="60"/><rect fill="url(#c)" height="8.937499" rx=".837891" width="8.937503" x="25.562511" y="61.5625"/><path d="m26.428317 61.562516c-.464192 0-.837891.3737-.837891.837891v4.224364c.679121.06455 1.378207.104736 2.094726.104736 2.578772 0 4.95135-.434878 6.842772-1.169555v-3.159545c0-.464191-.373698-.837891-.837891-.837891z" fill="url(#d)"/></g><g transform="matrix(.96659213 .96659213 -.96659213 .96659213 283.93932 -35.992449)"><path d="m24.529657 285.13245c-.26354-.00001-.477184.21364-.477176.47718v4.22195h-4.222095c-.263541 0-.477184.21364-.477177.47718l.000001 1.68933c-.000008.26354.213636.47719.477176.47718h4.222095v4.22196c-.000008.26354.213636.47718.477176.47717h1.689334c.263541.00001.477184-.21363.477176-.47717v-4.22196h4.22196c.26354.00001.477184-.21364.477176-.47718v-1.68933c.000008-.26354-.213636-.47718-.477176-.47718h-4.22196v-4.22195c.000008-.26354-.213636-.47719-.477177-.47718z" fill="url(#i)"/><path d="m24.529657 285.13245c-.26354-.00001-.477184.21364-.477176.47718v4.22195h-4.222095c-.263541 0-.477184.21364-.477177.47718l.000001 1.68933c-.000008.26354.213636.47719.477176.47718h4.222095v4.22196c-.000008.26354.213636.47718.477176.47717h1.689334c.263541.00001.477184-.21363.477176-.47717v-4.22196h4.22196c.26354.00001.477184-.21364.477176-.47718v-1.68933c.000008-.26354-.213636-.47718-.477176-.47718h-4.22196v-4.22195c.000008-.26354-.213636-.47719-.477177-.47718z" fill="url(#k)"/><path d="m24.529657 285.13245c-.26354-.00001-.477184.21364-.477176.47718v4.22195h-4.222095c-.263541 0-.477184.21364-.477177.47718l.000001 1.68933c-.000008.26354.213636.47719.477176.47718h4.222095v4.22196c-.000008.26354.213636.47718.477176.47717h1.689334c.263541.00001.477184-.21363.477176-.47717v-4.22196h4.22196c.26354.00001.477184-.21364.477176-.47718v-1.68933c.000008-.26354-.213636-.47718-.477176-.47718h-4.22196v-4.22195c.000008-.26354-.213636-.47719-.477177-.47718z" fill="url(#l)"/><path d="m24.529657 285.13245c-.26354-.00001-.477184.21364-.477176.47718v4.22195h-4.222095c-.263541 0-.477184.21364-.477177.47718l.000001 1.68933c-.000008.26354.213636.47719.477176.47718h4.222095v4.22196c-.000008.26354.213636.47718.477176.47717h1.689334c.263541.00001.477184-.21363.477176-.47717v-4.22196h4.22196c.26354.00001.477184-.21364.477176-.47718v-1.68933c.000008-.26354-.213636-.47718-.477176-.47718h-4.22196v-4.22195c.000008-.26354-.213636-.47719-.477177-.47718z" fill="#56331f" fill-opacity=".905882"/><g fill-rule="evenodd"><path d="m31.7 16 2.875-3.375c-1.051205-1.695758-3.935136-2.288018-5.9375-.3125l2.8125 3.375z" fill="url(#m)" filter="url(#n)" opacity=".498127" transform="matrix(.10334550056 .10334550056 .10433788775 -.10433788775 19.83881399383 294.77188758131)"/><path d="m31.7 16 2.875-3.375c-1.051205-1.695758-3.935136-2.288018-5.9375-.3125l2.8125 3.375z" fill="url(#m)" filter="url(#n)" opacity=".790262" transform="matrix(-.10304201086 .10304201086 -.10206195015 -.10206195015 35.51902798643 290.10274702489)"/><path d="m31.7 16 2.875-3.375c-1.051205-1.695758-3.935136-2.288018-5.9375-.3125l2.8125 3.375z" fill="url(#e)" filter="url(#n)" opacity=".498127" transform="matrix(.09358445236 .09358445236 -.09448310814 .09448310814 29.19785816765 286.02786786491)"/><path d="m88.7 16 2.875-3.375c-1.051205-1.695758-3.935136-2.288018-5.9375-.3125l2.8125 3.375z" fill="url(#o)" filter="url(#n)" opacity=".790262" transform="matrix(-.09448310814 .09448310814 -.09358445236 -.09358445236 35.85402148491 289.60759368369)"/><path d="m31.7 16 2.875-3.375c-1.051205-1.695758-3.935136-2.288018-5.9375-.3125l2.8125 3.375z" fill="url(#g)" filter="url(#n)" opacity=".790262" transform="matrix(-.08592420543 .08592420543 .08510695611 .08510695611 26.05379987113 281.71607465181)"/><path d="m88.7 16 2.875-3.375c-1.051205-1.695758-3.935136-2.288018-5.9375-.3125l2.8125 3.375z" fill="url(#o)" filter="url(#n)" opacity=".790262" transform="matrix(-.08821460024 .08821460024 .08737556707 .08737556707 26.43193340575 281.29508109577)"/></g><path d="m24.529657 285.60963v4.69913h-4.699271v1.68933h4.699271v4.69914h1.689334v-4.69914h4.699136v-1.68933h-4.699136l-.000001-4.69913z" fill="url(#p)"/><path d="m19.8304 290.30869-.000001 1.68937h4.699316l-.000069 4.69922h1.68937v-4.69912h4.699124v-1.68937h-4.699124l-.000001-4.69912h-1.689368v4.69912zm.12.12 4.57922.0001c.06628.00001.120006-.0537.119999-.12v-4.57912h1.44937v4.57912c-.000006.0663.05372.12001.12.12h4.579124v1.44937h-4.579124c-.06628-.00001-.120006.0537-.12.12v4.57912h-1.44937l.000069-4.57921c.000006-.0663-.05372-.12001-.12-.12h-4.579315z" fill="#f4caca" fill-opacity=".779412"/><path d="m19.8304 290.30869-.000001 1.68937h4.699316v.96754c.63875-.89522 1.64386-2.06887 1.87767-2.65634l-.188396-.00047-.000001-4.69912h-1.689368v4.69912z" fill="url(#q)" fill-rule="evenodd"/></g></g></svg>