<svg height="128" viewBox="0 0 33.866666 33.866668" width="128" xmlns="http://www.w3.org/2000/svg" xmlns:xlink="http://www.w3.org/1999/xlink"><linearGradient id="a"><stop offset="0" stop-color="#fd0000"/><stop offset="1" stop-color="#8f0000"/></linearGradient><linearGradient id="b" gradientUnits="userSpaceOnUse" x1="31.75000838596" x2="34.49998947816" xlink:href="#a" y1="48.00001385273" y2="72.750013216"/><radialGradient id="c" cx="72.631729" cy="22.787588" gradientTransform="matrix(5.297908 0 0 5.2979189 -354.76495 -52.461151)" gradientUnits="userSpaceOnUse" r="1.265237" xlink:href="#a"/><linearGradient id="d" gradientUnits="userSpaceOnUse" x1="27.57962580724" x2="30.67922538506" y1="57.19771452443" y2="68.76557799622"><stop offset="0" stop-color="#fff"/><stop offset="1" stop-color="#fff" stop-opacity="0"/></linearGradient><g transform="translate(0 -263.13332)"><g transform="matrix(.38484967 0 0 .38484967 -6.146922 263.13099)"><rect fill="url(#b)" height="12" rx="1.546875" width="12" x="24" y="60"/><rect fill="url(#c)" height="8.937499" rx=".837891" width="8.937503" x="25.562511" y="61.5625"/><path d="m26.428317 61.562516c-.464192 0-.837891.3737-.837891.837891v4.224364c.679121.06455 1.378207.104736 2.094726.104736 2.578772 0 4.95135-.434878 6.842772-1.169555v-3.159545c0-.464191-.373698-.837891-.837891-.837891z" fill="url(#d)"/></g><path d="m75.048828 23.273438c-28.915344.039601-53.422174 22.336682-57.552734 52.363281h-.04102v11.363281h5.816406v-11.089844c5.069021-33.181656 33.091421-46.692856 52.363286-46.818359h11.636718v-5.818359h-11.636718v.0332c-.195261-.01145-.390577-.02187-.585938-.03125z" fill="#4c4c4c" fill-opacity=".984314" opacity=".99" transform="matrix(.26458333 0 0 .26458333 0 263.13332)"/><g transform="matrix(.38484967 0 0 .38484967 13.854188 244.6609)"><rect fill="url(#b)" height="12" rx="1.546875" width="12" x="24" y="60"/><rect fill="url(#c)" height="8.937499" rx=".837891" width="8.937503" x="25.562511" y="61.5625"/><path d="m26.428317 61.562516c-.464192 0-.837891.3737-.837891.837891v4.224364c.679121.06455 1.378207.104736 2.094726.104736 2.578772 0 4.95135-.434878 6.842772-1.169555v-3.159545c0-.464191-.373698-.837891-.837891-.837891z" fill="url(#d)"/></g><path d="m50.187213 286.33592v-.58756z" fill="#fff" fill-opacity=".756881"/></g></svg>