<svg height="128" viewBox="0 0 33.866666 33.866668" width="128" xmlns="http://www.w3.org/2000/svg" xmlns:xlink="http://www.w3.org/1999/xlink"><linearGradient id="a" gradientUnits="userSpaceOnUse" x1="31.75000838596" x2="34.49998947816" xlink:href="#b" y1="48.00001385273" y2="72.750013216"/><linearGradient id="b"><stop offset="0" stop-color="#fd0000"/><stop offset="1" stop-color="#8f0000"/></linearGradient><radialGradient id="c" cx="72.631729" cy="22.787588" gradientTransform="matrix(5.297908 0 0 5.2979189 -354.76495 -52.461151)" gradientUnits="userSpaceOnUse" r="1.265237" xlink:href="#b"/><linearGradient id="d" gradientUnits="userSpaceOnUse" x1="27.57962580724" x2="30.67922538506" y1="57.19771452443" y2="68.76557799622"><stop offset="0" stop-color="#fff"/><stop offset="1" stop-color="#fff" stop-opacity="0"/></linearGradient><linearGradient id="e" gradientTransform="matrix(-.08906363 -.15426272 .09058772 -.05230085 13.091566 289.75643)" gradientUnits="userSpaceOnUse" x1="10.135816" x2="9.692278" y1="29.107889" y2="103.48482"><stop offset="0" stop-color="#72d13d"/><stop offset=".3553" stop-color="#35ac1c"/><stop offset=".6194" stop-color="#0f9508"/><stop offset=".7574" stop-color="#008c00"/><stop offset="1" stop-color="#007a00"/></linearGradient><g transform="translate(0 -263.13332)"><path d="m50.187213 286.33592v-.58756z" fill="#fff" fill-opacity=".756881"/><path d="m-163.36403-228.53151h24.514338v1.539387h-24.514338z" fill="#4d4d4d" fill-opacity=".992157" opacity=".99" transform="matrix(-.8660254 -.5 .5 -.8660254 0 0)"/><path d="m267.73865-7.682978h21.569227v1.539387h-21.569227z" fill="#4d4d4d" fill-opacity=".992157" opacity=".5" transform="rotate(90)"/><g transform="matrix(.38484968 0 0 .38484968 -4.617912 241.58177)"><rect fill="url(#a)" height="12" rx="1.546875" width="12" x="24" y="60"/><rect fill="url(#c)" height="8.937499" rx=".837891" width="8.937503" x="25.562511" y="61.5625"/><path d="m26.428317 61.562516c-.464192 0-.837891.3737-.837891.837891v4.224364c.679121.06455 1.378207.104736 2.094726.104736 2.578772 0 4.95135-.434878 6.842772-1.169555v-3.159545c0-.464191-.373698-.837891-.837891-.837891z" fill="url(#d)"/></g><g opacity=".5" transform="matrix(.38484968 0 0 .38484968 -4.617912 266.20978)"><rect fill="url(#a)" height="12" rx="1.546875" width="12" x="24" y="60"/><rect fill="url(#c)" height="8.937499" rx=".837891" width="8.937503" x="25.562511" y="61.5625"/><path d="m26.428317 61.562516c-.464192 0-.837891.3737-.837891.837891v4.224364c.679121.06455 1.378207.104736 2.094726.104736 2.578772 0 4.95135-.434878 6.842772-1.169555v-3.159545c0-.464191-.373698-.837891-.837891-.837891z" fill="url(#d)"/></g><g transform="matrix(.38484968 0 0 .38484968 16.932631 253.89863)"><rect fill="url(#a)" height="12" rx="1.546875" width="12" x="24" y="60"/><rect fill="url(#c)" height="8.937499" rx=".837891" width="8.937503" x="25.562511" y="61.5625"/><path d="m26.428317 61.562516c-.464192 0-.837891.3737-.837891.837891v4.224364c.679121.06455 1.378207.104736 2.094726.104736 2.578772 0 4.95135-.434878 6.842772-1.169555v-3.159545c0-.464191-.373698-.837891-.837891-.837891z" fill="url(#d)"/></g><path d="m21.60733 286.61814-1.005353-.26938.170777-2.64809-7.848346 4.53231-.73574-1.27434 7.848307-4.53237-2.378704-1.17616.269384-1.00535 5.661934.98155-1.982068 5.39217z" fill="url(#e)"/></g></svg>