<?xml version="1.0" encoding="UTF-8" standalone="no"?>
<!-- Created with Inkscape (http://www.inkscape.org/) -->

<svg
   xmlns:dc="http://purl.org/dc/elements/1.1/"
   xmlns:cc="http://creativecommons.org/ns#"
   xmlns:rdf="http://www.w3.org/1999/02/22-rdf-syntax-ns#"
   xmlns:svg="http://www.w3.org/2000/svg"
   xmlns="http://www.w3.org/2000/svg"
   xmlns:xlink="http://www.w3.org/1999/xlink"
   xmlns:sodipodi="http://sodipodi.sourceforge.net/DTD/sodipodi-0.dtd"
   xmlns:inkscape="http://www.inkscape.org/namespaces/inkscape"
   width="128"
   height="128"
   viewBox="0 0 33.866666 33.866668"
   version="1.1"
   id="svg2414"
   inkscape:version="0.92.3 (unknown)"
   sodipodi:docname="lc_changecasetoupper.svg"
   inkscape:export-filename="/home/rizmut/Dokumen/Rizmut/Github/libreoffice-style-karasa-jaga/build/images_karasa_jaga/cmd/lc_changecasetoupper.png"
   inkscape:export-xdpi="16.500002"
   inkscape:export-ydpi="16.500002">
  <defs
     id="defs2408">
    <linearGradient
       id="linearGradient3783">
      <stop
         style="stop-color:#ffbfbf;stop-opacity:1;"
         offset="0"
         id="stop3785" />
      <stop
         style="stop-color:#ffbfbf;stop-opacity:0;"
         offset="1"
         id="stop3787" />
    </linearGradient>
    <linearGradient
       id="linearGradient3763">
      <stop
         style="stop-color:#ff2222;stop-opacity:1;"
         offset="0"
         id="stop3765" />
      <stop
         style="stop-color:#cd1f00;stop-opacity:1;"
         offset="1"
         id="stop3767" />
    </linearGradient>
    <linearGradient
       id="linearGradient3773">
      <stop
         style="stop-color:#590000;stop-opacity:1"
         offset="0"
         id="stop3775" />
      <stop
         style="stop-color:#bf0000;stop-opacity:1"
         offset="1"
         id="stop3777" />
    </linearGradient>
    <linearGradient
       id="linearGradient4105">
      <stop
         id="stop4107"
         offset="0"
         style="stop-color:#033a13;stop-opacity:1" />
      <stop
         id="stop4109"
         offset="1"
         style="stop-color:#398c37;stop-opacity:1" />
    </linearGradient>
    <linearGradient
       id="linearGradient4112">
      <stop
         id="stop4114"
         offset="0"
         style="stop-color:#bbf10e;stop-opacity:1" />
      <stop
         id="stop4116"
         offset="1"
         style="stop-color:#5f9207;stop-opacity:1" />
    </linearGradient>
    <linearGradient
       id="linearGradient4118">
      <stop
         id="stop4120"
         offset="0"
         style="stop-color:#e0f4b8;stop-opacity:1" />
      <stop
         id="stop4122"
         offset="1"
         style="stop-color:#92c441;stop-opacity:0.21459228" />
    </linearGradient>
    <radialGradient
       inkscape:collect="always"
       xlink:href="#linearGradient4112"
       id="radialGradient4018"
       gradientUnits="userSpaceOnUse"
       gradientTransform="matrix(0.55562499,0,0,0.51858333,-245.04239,3.2337562)"
       cx="417.61023"
       cy="531.82111"
       fx="417.61023"
       fy="531.82111"
       r="2.5" />
    <linearGradient
       inkscape:collect="always"
       xlink:href="#linearGradient4105"
       id="linearGradient6837"
       gradientUnits="userSpaceOnUse"
       gradientTransform="matrix(0.37041695,0,0,0.37797536,-167.44023,77.826289)"
       x1="418"
       y1="535"
       x2="418"
       y2="528" />
    <linearGradient
       inkscape:collect="always"
       xlink:href="#linearGradient4118"
       id="linearGradient6839"
       gradientUnits="userSpaceOnUse"
       gradientTransform="matrix(0.37041666,0,0,0.37041666,-167.4401,81.095338)"
       x1="418"
       y1="529"
       x2="419.31973"
       y2="533.92529" />
  </defs>
  <sodipodi:namedview
     id="base"
     pagecolor="#ffffff"
     bordercolor="#666666"
     borderopacity="1.0"
     inkscape:pageopacity="0.0"
     inkscape:pageshadow="2"
     inkscape:zoom="3.84375"
     inkscape:cx="65.423969"
     inkscape:cy="101.78288"
     inkscape:document-units="mm"
     inkscape:current-layer="layer1"
     showgrid="true"
     units="px"
     inkscape:window-width="1366"
     inkscape:window-height="706"
     inkscape:window-x="0"
     inkscape:window-y="0"
     inkscape:window-maximized="1"
     inkscape:snap-global="true">
    <inkscape:grid
       type="xygrid"
       id="grid843"
       spacingx="1.5393723"
       spacingy="1.5393723"
       empspacing="2" />
  </sodipodi:namedview>
  <metadata
     id="metadata2411">
    <rdf:RDF>
      <cc:Work
         rdf:about="">
        <dc:format>image/svg+xml</dc:format>
        <dc:type
           rdf:resource="http://purl.org/dc/dcmitype/StillImage" />
        <dc:title></dc:title>
      </cc:Work>
    </rdf:RDF>
  </metadata>
  <g
     inkscape:label="Layer 1"
     inkscape:groupmode="layer"
     id="layer1"
     transform="translate(0,-263.13332)">
    <g
       aria-label="ABC"
       transform="scale(1.002453,0.99755302)"
       style="font-style:normal;font-weight:normal;font-size:10.16289902px;line-height:125%;font-family:sans-serif;letter-spacing:0px;word-spacing:0px;fill:#000000;fill-opacity:1;stroke:none;stroke-width:0.25407243px;stroke-linecap:butt;stroke-linejoin:miter;stroke-opacity:1"
       id="text866">
      <path
         d="M 7.6576523,275.52461 H 2.8980289 l -1.3042385,3.70946 H -0.08308762 L 4.3208345,266.88615 h 2.0325794 l 4.3361691,12.34792 H 8.9280145 Z m -0.4403922,-1.32117 -1.8970741,-5.62347 -2.0325794,5.62347 z"
         style="font-style:normal;font-variant:normal;font-weight:normal;font-stretch:normal;font-size:16.93816185px;font-family:FreeSans;-inkscape-font-specification:FreeSans;stroke-width:0.25407243px"
         id="path868" />
      <path
         d="m 21.513333,275.71093 q 0,1.59219 -0.999351,2.55766 -0.999352,0.96548 -2.642354,0.96548 h -5.572655 v -12.34792 h 5.013696 q 1.033228,0 1.795445,0.30489 0.762217,0.30488 1.134857,0.81303 0.389578,0.49121 0.558959,0.99935 0.169382,0.49121 0.169382,1.01629 0,1.89707 -1.710754,2.69317 1.185671,0.45733 1.710754,1.16873 0.542021,0.7114 0.542021,1.82932 z m -4.590242,-3.5062 q 2.472972,0 2.472972,-1.96482 0,-1.96483 -2.472972,-1.96483 h -3.048869 v 3.92965 z m 0.796094,5.64041 q 0.82997,0 1.355053,-0.3557 0.525083,-0.37264 0.694465,-0.81303 0.169381,-0.44039 0.169381,-0.94854 0,-0.96547 -0.575897,-1.54137 -0.575898,-0.59284 -1.643002,-0.59284 h -3.844963 v 4.25148 z"
         style="font-style:normal;font-variant:normal;font-weight:normal;font-stretch:normal;font-size:16.93816185px;font-family:FreeSans;-inkscape-font-specification:FreeSans;stroke-width:0.25407243px"
         id="path870" />
      <path
         d="m 22.862336,272.95175 c 0,-0.5646 0.06945,-0.73322 0.159782,-1.28653 0.101629,-0.55331 0.287949,-1.12921 0.558959,-1.7277 0.271011,-0.59848 0.604128,-1.11792 0.999352,-1.55831 0.406516,-0.45168 0.948537,-0.82432 1.626064,-1.11792 0.688818,-0.29359 1.462327,-0.44039 2.320528,-0.44039 2.687521,0 4.274062,1.34376 4.759623,4.03128 h -1.609125 c -0.180674,-0.88078 -0.536375,-1.54137 -1.067104,-1.98176 -0.530729,-0.44039 -1.287301,-0.66059 -2.269714,-0.66059 -1.196963,0 -2.1455,0.45733 -2.845611,1.37199 -0.688819,0.91466 -1.057505,1.7721 -1.057505,3.353 0,1.54701 0.34418,2.63984 1.066875,3.55451 0.722695,0.90336 1.699462,1.35505 2.930302,1.35505 1.01629,0 1.795445,-0.28231 2.337467,-0.84691 0.54202,-0.5759 0.909014,-1.46233 1.10098,-2.65929 h 1.626064 c -0.37264,3.26342 -2.066457,4.89513 -5.081449,4.89513 -0.846908,0 -1.609126,-0.14116 -2.286652,-0.42346 -0.666234,-0.2936 -1.202609,-0.66059 -1.609125,-1.10098 -0.395224,-0.4404 -0.728342,-0.95419 -0.999352,-1.54137 -0.259718,-0.59848 -0.440392,-1.16873 -0.542021,-1.71075 -0.09034,-0.54203 -0.118338,-0.95169 -0.118338,-1.505 z"
         style="font-style:normal;font-variant:normal;font-weight:normal;font-stretch:normal;font-size:16.93816185px;font-family:FreeSans;-inkscape-font-specification:FreeSans;stroke-width:0.25407243px"
         id="path872"
         inkscape:connector-curvature="0"
         sodipodi:nodetypes="sccccsccsscscscccsccccs" />
    </g>
    <g
       id="g3143"
       transform="matrix(0,-4.2641434,5.8181163,0,-1602.494,234.09052)">
      <path
         sodipodi:nodetypes="cccc"
         id="path3791"
         d="m -13.717188,277.0193 1.852086,1.32292 -1.852086,1.32291 z"
         style="display:inline;fill:none;fill-opacity:1;fill-rule:evenodd;stroke:url(#linearGradient6837);stroke-width:0.52916664;stroke-linecap:butt;stroke-linejoin:round;stroke-miterlimit:4;stroke-dasharray:none;stroke-opacity:1"
         inkscape:connector-curvature="0" />
      <path
         style="display:inline;fill:url(#radialGradient4018);fill-opacity:1;fill-rule:evenodd;stroke:none;stroke-width:0.26458332px;stroke-linecap:butt;stroke-linejoin:miter;stroke-opacity:1"
         d="m -13.717183,277.04575 1.852084,1.29646 -1.852084,1.29646 z"
         id="path3793"
         sodipodi:nodetypes="cccc"
         inkscape:connector-curvature="0" />
      <path
         sodipodi:nodetypes="cccc"
         id="path3795"
         d="m -13.717183,277.04575 1.852084,1.29646 h -1.847948 z"
         style="display:inline;fill:url(#linearGradient6839);fill-opacity:1;fill-rule:evenodd;stroke:none;stroke-width:0.26458332px;stroke-linecap:butt;stroke-linejoin:miter;stroke-opacity:1"
         inkscape:connector-curvature="0" />
    </g>
  </g>
</svg>
