<?xml version="1.0" encoding="UTF-8" standalone="no"?>
<svg
   xmlns:dc="http://purl.org/dc/elements/1.1/"
   xmlns:cc="http://creativecommons.org/ns#"
   xmlns:rdf="http://www.w3.org/1999/02/22-rdf-syntax-ns#"
   xmlns:svg="http://www.w3.org/2000/svg"
   xmlns="http://www.w3.org/2000/svg"
   xmlns:xlink="http://www.w3.org/1999/xlink"
   xmlns:sodipodi="http://sodipodi.sourceforge.net/DTD/sodipodi-0.dtd"
   xmlns:inkscape="http://www.inkscape.org/namespaces/inkscape"
   enable-background="new 0 0 128 128"
   height="128"
   viewBox="0 0 128 128"
   width="128"
   version="1.1"
   id="svg3192"
   sodipodi:docname="lc_comparedocuments.svg"
   inkscape:version="0.92.3 (unknown)"
   inkscape:export-filename="/home/rizmut/Dokumen/Rizmut/Github/libreoffice-style-karasa-jaga/build/images_karasa_jaga/cmd/lc_comparedocuments.png"
   inkscape:export-xdpi="16.5"
   inkscape:export-ydpi="16.5">
  <metadata
     id="metadata3198">
    <rdf:RDF>
      <cc:Work
         rdf:about="">
        <dc:format>image/svg+xml</dc:format>
        <dc:type
           rdf:resource="http://purl.org/dc/dcmitype/StillImage" />
        <dc:title></dc:title>
      </cc:Work>
    </rdf:RDF>
  </metadata>
  <defs
     id="defs3196">
    <radialGradient
       inkscape:collect="always"
       xlink:href="#e"
       id="radialGradient906"
       gradientUnits="userSpaceOnUse"
       cx="100.8098464"
       cy="112.93460525694"
       r="135.1875556917" />
    <radialGradient
       inkscape:collect="always"
       xlink:href="#d"
       id="radialGradient908"
       gradientUnits="userSpaceOnUse"
       gradientTransform="matrix(0.94807,0,0,0.9510679,3.32352,5.274458)"
       cx="102"
       cy="112.3047"
       r="139.55859" />
    <linearGradient
       inkscape:collect="always"
       xlink:href="#a"
       id="linearGradient910"
       gradientUnits="userSpaceOnUse"
       x1="88.591797"
       y1="96.592697"
       x2="71.262016"
       y2="79.262917" />
    <linearGradient
       inkscape:collect="always"
       xlink:href="#b"
       id="linearGradient912"
       gradientUnits="userSpaceOnUse"
       x1="85.219681"
       y1="93.219681"
       x2="61.336319"
       y2="69.336319" />
    <linearGradient
       inkscape:collect="always"
       xlink:href="#c"
       id="linearGradient914"
       gradientUnits="userSpaceOnUse"
       x1="96"
       y1="104"
       x2="88.0002"
       y2="96.0002" />
    <radialGradient
       inkscape:collect="always"
       xlink:href="#e"
       id="radialGradient916"
       gradientUnits="userSpaceOnUse"
       cx="100.8098464"
       cy="112.93460525694"
       r="135.1875556917" />
    <radialGradient
       inkscape:collect="always"
       xlink:href="#d"
       id="radialGradient918"
       gradientUnits="userSpaceOnUse"
       gradientTransform="matrix(0.94807,0,0,0.9510679,3.32352,5.274458)"
       cx="102"
       cy="112.3047"
       r="139.55859" />
    <linearGradient
       inkscape:collect="always"
       xlink:href="#a"
       id="linearGradient920"
       gradientUnits="userSpaceOnUse"
       x1="88.591797"
       y1="96.592697"
       x2="71.262016"
       y2="79.262917" />
    <linearGradient
       inkscape:collect="always"
       xlink:href="#b"
       id="linearGradient922"
       gradientUnits="userSpaceOnUse"
       x1="85.219681"
       y1="93.219681"
       x2="61.336319"
       y2="69.336319" />
    <linearGradient
       inkscape:collect="always"
       xlink:href="#c"
       id="linearGradient924"
       gradientUnits="userSpaceOnUse"
       x1="96"
       y1="104"
       x2="88.0002"
       y2="96.0002" />
  </defs>
  <sodipodi:namedview
     pagecolor="#ffffff"
     bordercolor="#666666"
     borderopacity="1"
     objecttolerance="10"
     gridtolerance="10"
     guidetolerance="10"
     inkscape:pageopacity="0"
     inkscape:pageshadow="2"
     inkscape:window-width="1366"
     inkscape:window-height="706"
     id="namedview3194"
     showgrid="true"
     inkscape:zoom="1"
     inkscape:cx="-31.589801"
     inkscape:cy="16.502648"
     inkscape:window-x="0"
     inkscape:window-y="0"
     inkscape:window-maximized="1"
     inkscape:current-layer="svg3192"
     showguides="true">
    <inkscape:grid
       type="xygrid"
       id="grid867"
       spacingx="5.8181"
       spacingy="5.8181"
       empspacing="1" />
  </sodipodi:namedview>
  <linearGradient
     id="a"
     gradientUnits="userSpaceOnUse"
     x1="88.591797"
     x2="71.262016"
     y1="96.592697"
     y2="79.262917">
    <stop
       offset="0"
       stop-color="#fff"
       id="stop3094" />
    <stop
       offset="1"
       stop-color="#555753"
       id="stop3096" />
  </linearGradient>
  <linearGradient
     id="b"
     gradientUnits="userSpaceOnUse"
     x1="85.219681"
     x2="61.336319"
     y1="93.219681"
     y2="69.336319">
    <stop
       offset="0"
       id="stop3099" />
    <stop
       offset="1"
       stop-color="#393b38"
       id="stop3101" />
  </linearGradient>
  <linearGradient
     id="c"
     gradientUnits="userSpaceOnUse"
     x1="96"
     x2="88.0002"
     y1="104"
     y2="96.0002">
    <stop
       offset="0"
       stop-color="#888a85"
       id="stop3104" />
    <stop
       offset=".0072"
       stop-color="#8c8e89"
       id="stop3106" />
    <stop
       offset=".0673"
       stop-color="#abaca9"
       id="stop3108" />
    <stop
       offset=".1347"
       stop-color="#c5c6c4"
       id="stop3110" />
    <stop
       offset=".2115"
       stop-color="#dbdbda"
       id="stop3112" />
    <stop
       offset=".3012"
       stop-color="#ebebeb"
       id="stop3114" />
    <stop
       offset=".4122"
       stop-color="#f7f7f6"
       id="stop3116" />
    <stop
       offset=".5679"
       stop-color="#fdfdfd"
       id="stop3118" />
    <stop
       offset="1"
       stop-color="#fff"
       id="stop3120" />
  </linearGradient>
  <radialGradient
     id="d"
     cx="102"
     cy="112.3047"
     gradientTransform="matrix(0.94807,0,0,0.9510679,3.32352,5.274458)"
     gradientUnits="userSpaceOnUse"
     r="139.55859">
    <stop
       offset="0"
       stop-color="#535557"
       id="stop3123" />
    <stop
       offset=".11366145"
       stop-color="#898a8c"
       id="stop3125" />
    <stop
       offset=".20296688"
       stop-color="#ececec"
       id="stop3127" />
    <stop
       offset=".2363"
       stop-color="#fafafa"
       id="stop3129" />
    <stop
       offset=".2722"
       stop-color="#fff"
       id="stop3131" />
    <stop
       offset=".5313"
       stop-color="#fafafa"
       id="stop3133" />
    <stop
       offset=".8449"
       stop-color="#ebecec"
       id="stop3135" />
    <stop
       offset="1"
       stop-color="#e1e2e3"
       id="stop3137" />
  </radialGradient>
  <radialGradient
     id="e"
     cx="100.8098464"
     cy="112.93460525694"
     gradientUnits="userSpaceOnUse"
     r="135.1875556917">
    <stop
       offset="0"
       stop-color="#3e3e3e"
       id="stop3140" />
    <stop
       offset=".0151"
       stop-color="#505050"
       id="stop3142" />
    <stop
       offset=".0558"
       stop-color="#7e7e7e"
       id="stop3144" />
    <stop
       offset=".1357"
       stop-color="#c6c6c6"
       id="stop3146" />
    <stop
       offset=".20990001"
       stop-color="#f1f1f1"
       id="stop3148" />
    <stop
       offset=".24349999"
       stop-color="#fcfcfc"
       id="stop3150" />
    <stop
       offset=".2722"
       stop-color="#fff"
       id="stop3152" />
  </radialGradient>
  <filter
     id="f">
    <feGaussianBlur
       stdDeviation="1.0394514"
       id="feGaussianBlur3155" />
  </filter>
  <filter
     id="g">
    <feGaussianBlur
       stdDeviation=".50063244"
       id="feGaussianBlur3158" />
  </filter>
  <filter
     id="h">
    <feGaussianBlur
       stdDeviation=".40750996"
       id="feGaussianBlur3161" />
  </filter>
  <filter
     id="i">
    <feGaussianBlur
       stdDeviation=".4901192"
       id="feGaussianBlur3164" />
  </filter>
  <filter
     id="j">
    <feGaussianBlur
       stdDeviation=".90565481"
       id="feGaussianBlur3167" />
  </filter>
  <g
     transform="translate(-11.670853,-5.8181)"
     id="g904">
    <g
       transform="matrix(1.1080161,0,0,1.1080161,-12.744784,-10.01667)"
       id="g902">
      <path
         inkscape:connector-curvature="0"
         style="opacity:0.75068497;fill:url(#linearGradient910);filter:url(#h)"
         d="M 111.414,86.586 C 111.664,86.336 85.035,85 80,85 c -1.654,0 -3,1.346 -3,3 0,5.035 1.336,31.664 1.586,31.414 z"
         id="path894" />
      <path
         style="opacity:0.2;filter:url(#j)"
         inkscape:connector-curvature="0"
         d="M 111.414,86.586 C 111.789,86.211 89.444,86 80,86 c -1.103,0 -2,0.897 -2,2 0,9.444 0.211,31.789 0.586,31.414 z"
         id="path896" />
      <path
         inkscape:connector-curvature="0"
         style="opacity:0.1;fill:url(#linearGradient912);filter:url(#i)"
         d="M 111.414,86.586 C 111.653,86.347 89.807,87 80,87 c -0.553,0 -1,0.447 -1,1 0,9.807 -0.653,31.653 -0.414,31.414 z"
         id="path898" />
      <path
         inkscape:connector-curvature="0"
         style="fill:url(#linearGradient914)"
         d="M 79.721619,119.31106 111.22712,87.805556 H 79.721619 Z"
         id="path900" />
    </g>
    <g
       id="g892">
      <path
         style="opacity:0.55342503;filter:url(#f)"
         inkscape:connector-curvature="0"
         id="path880"
         transform="matrix(1.0090419,0,0,1.003276,-7.641977,0.929762)"
         d="M 23,8.9687825 23.040816,122.99347 H 84.172 c 0.53,0 1.039,-0.211 1.414,-0.586 l 32.828,-32.828001 c 0.375,-0.375 0.586,-0.884 0.586,-1.414 V 8.9687825 Z" />
      <path
         style="opacity:0.30684904;filter:url(#f)"
         inkscape:connector-curvature="0"
         id="path882"
         transform="matrix(1.0090419,0,0,1.003276,-7.641977,0.929762)"
         d="m 23,9 0.04082,113.99347 H 84.172 c 0.53,0 1.039,-0.211 1.414,-0.586 l 32.828,-32.828001 c 0.375,-0.375 0.586,-0.884 0.586,-1.414 V 9 Z" />
      <path
         style="opacity:0.89589;filter:url(#g)"
         inkscape:connector-curvature="0"
         id="path884"
         transform="matrix(1.0090419,0,0,1.003276,-7.641977,0.929762)"
         d="m 24.905735,10.673272 0.01426,110.189918 58.676001,-1e-4 c 0.53,0 1.039,-0.211 1.414,-0.586 L 116.494,88.511156 c 0.375,-0.375 0.586,-0.884 0.586,-1.414 l 0.0812,-76.423884 z" />
      <path
         style="opacity:0.30684904;filter:url(#f)"
         inkscape:connector-curvature="0"
         id="path886"
         transform="matrix(1.0090419,0,0,1.003276,-7.641977,0.929762)"
         d="M 23,9.9655172 23.040816,122.99347 H 84.172 c 0.53,0 1.039,-0.211 1.414,-0.586 l 32.828,-32.828001 c 0.375,-0.375 0.586,-0.884 0.586,-1.414 V 9.9655172 Z" />
      <path
         inkscape:connector-curvature="0"
         style="fill:url(#radialGradient906)"
         id="path888"
         d="m 17.488953,11.638 0.0144,110.55089 h 59.256106 c 0.513401,0 1.006458,-0.20439 1.369714,-0.56765 L 109.929,89.821411 c 0.36326,-0.363255 0.56764,-0.856313 0.56764,-1.369714 L 110.57855,11.638 Z" />
      <path
         inkscape:connector-curvature="0"
         style="fill:url(#radialGradient908)"
         id="path890"
         d="m 24.066856,17.512144 c -0.522387,0 -0.94807,0.42703 -0.94807,0.951069 l 0.321923,96.737247 c 0,0.525 0.425684,0.95108 0.94807,0.95108 h 52.099199 c 0.249342,0 0.493944,-0.10082 0.670284,-0.27867 L 105.2815,88.651213 c 0.17729,-0.17785 0.27778,-0.422273 0.27778,-0.672405 l -0.7,-69.493672 c 0,-0.524039 -0.42473,-0.951068 -0.94806,-0.951068 z" />
    </g>
    <rect
       style="fill:#b3b3b3;fill-opacity:1;stroke:none;stroke-width:0.7076624;stroke-miterlimit:4;stroke-dasharray:none;stroke-dashoffset:0;stroke-opacity:1"
       id="rect938-5"
       width="63.999096"
       height="5.8180995"
       x="29.125153"
       y="93.0914" />
    <rect
       style="fill:#b3b3b3;fill-opacity:1;stroke:none;stroke-width:0.7391293;stroke-miterlimit:4;stroke-dasharray:none;stroke-dashoffset:0;stroke-opacity:1"
       id="rect160522-6"
       width="69.8172"
       height="5.8180995"
       x="29.125153"
       y="23.2742" />
    <rect
       y="40.7285"
       x="29.125153"
       height="5.8180995"
       width="69.8172"
       id="rect932-2"
       style="fill:#b3b3b3;fill-opacity:1;stroke:none;stroke-width:0.7391293;stroke-miterlimit:4;stroke-dasharray:none;stroke-dashoffset:0;stroke-opacity:1" />
    <rect
       style="fill:#b3b3b3;fill-opacity:1;stroke:none;stroke-width:0.7391293;stroke-miterlimit:4;stroke-dasharray:none;stroke-dashoffset:0;stroke-opacity:1"
       id="rect934-9"
       width="69.8172"
       height="5.8180995"
       x="29.125153"
       y="58.1828" />
    <rect
       y="75.6371"
       x="29.125153"
       height="5.8180995"
       width="69.8172"
       id="rect936-1"
       style="fill:#b3b3b3;fill-opacity:1;stroke:none;stroke-width:0.7391293;stroke-miterlimit:4;stroke-dasharray:none;stroke-dashoffset:0;stroke-opacity:1" />
  </g>
  <g
     id="g3766"
     transform="translate(11.60155)">
    <g
       id="g3752">
      <path
         d="M 23,8.9687825 23.040816,122.99347 H 84.172 c 0.53,0 1.039,-0.211 1.414,-0.586 l 32.828,-32.828001 c 0.375,-0.375 0.586,-0.884 0.586,-1.414 V 8.9687825 Z"
         transform="matrix(1.0090419,0,0,1.003276,-7.641977,0.929762)"
         id="path3170"
         inkscape:connector-curvature="0"
         style="opacity:0.55342503;filter:url(#f)" />
      <path
         d="m 23,9 0.04082,113.99347 H 84.172 c 0.53,0 1.039,-0.211 1.414,-0.586 l 32.828,-32.828001 c 0.375,-0.375 0.586,-0.884 0.586,-1.414 V 9 Z"
         transform="matrix(1.0090419,0,0,1.003276,-7.641977,0.929762)"
         id="path3172"
         inkscape:connector-curvature="0"
         style="opacity:0.30684904;filter:url(#f)" />
      <path
         d="m 24.905735,10.673272 0.01426,110.189918 58.676001,-1e-4 c 0.53,0 1.039,-0.211 1.414,-0.586 L 116.494,88.511156 c 0.375,-0.375 0.586,-0.884 0.586,-1.414 l 0.0812,-76.423884 z"
         transform="matrix(1.0090419,0,0,1.003276,-7.641977,0.929762)"
         id="path3174"
         inkscape:connector-curvature="0"
         style="opacity:0.89589;filter:url(#g)" />
      <path
         d="M 23,9.9655172 23.040816,122.99347 H 84.172 c 0.53,0 1.039,-0.211 1.414,-0.586 l 32.828,-32.828001 c 0.375,-0.375 0.586,-0.884 0.586,-1.414 V 9.9655172 Z"
         transform="matrix(1.0090419,0,0,1.003276,-7.641977,0.929762)"
         id="path3176"
         inkscape:connector-curvature="0"
         style="opacity:0.30684904;filter:url(#f)" />
      <path
         d="m 17.488953,11.638 0.0144,110.55089 h 59.256106 c 0.513401,0 1.006458,-0.20439 1.369714,-0.56765 L 109.929,89.821411 c 0.36326,-0.363255 0.56764,-0.856313 0.56764,-1.369714 L 110.57855,11.638 Z"
         id="path3178"
         style="fill:url(#radialGradient916)"
         inkscape:connector-curvature="0" />
      <path
         d="m 24.066856,17.512144 c -0.522387,0 -0.94807,0.42703 -0.94807,0.951069 l 0.321923,96.737247 c 0,0.525 0.425684,0.95108 0.94807,0.95108 h 52.099199 c 0.249342,0 0.493944,-0.10082 0.670284,-0.27867 L 105.2815,88.651213 c 0.17729,-0.17785 0.27778,-0.422273 0.27778,-0.672405 l -0.7,-69.493672 c 0,-0.524039 -0.42473,-0.951068 -0.94806,-0.951068 z"
         id="path3180"
         style="fill:url(#radialGradient918)"
         inkscape:connector-curvature="0" />
    </g>
    <rect
       style="fill:#669eed;fill-opacity:1;stroke:none;stroke-width:0.7076624;stroke-miterlimit:4;stroke-dasharray:none;stroke-dashoffset:0;stroke-opacity:1"
       id="rect938"
       width="63.999096"
       height="5.8180995"
       x="29.125151"
       y="93.0914" />
    <g
       id="g3190"
       transform="matrix(1.1080161,0,0,1.1080161,-12.744784,-10.01667)">
      <path
         id="path3182"
         d="M 111.414,86.586 C 111.664,86.336 85.035,85 80,85 c -1.654,0 -3,1.346 -3,3 0,5.035 1.336,31.664 1.586,31.414 z"
         style="opacity:0.75068497;fill:url(#linearGradient920);filter:url(#h)"
         inkscape:connector-curvature="0" />
      <path
         id="path3184"
         d="M 111.414,86.586 C 111.789,86.211 89.444,86 80,86 c -1.103,0 -2,0.897 -2,2 0,9.444 0.211,31.789 0.586,31.414 z"
         inkscape:connector-curvature="0"
         style="opacity:0.2;filter:url(#j)" />
      <path
         id="path3186"
         d="M 111.414,86.586 C 111.653,86.347 89.807,87 80,87 c -0.553,0 -1,0.447 -1,1 0,9.807 -0.653,31.653 -0.414,31.414 z"
         style="opacity:0.1;fill:url(#linearGradient922);filter:url(#i)"
         inkscape:connector-curvature="0" />
      <path
         id="path3188"
         d="M 79.721619,119.31106 111.22712,87.805556 H 79.721619 Z"
         style="fill:url(#linearGradient924)"
         inkscape:connector-curvature="0" />
    </g>
    <rect
       style="fill:#669eed;fill-opacity:1;stroke:none;stroke-width:0.7391293;stroke-miterlimit:4;stroke-dasharray:none;stroke-dashoffset:0;stroke-opacity:1"
       id="rect160522"
       width="69.8172"
       height="5.8180995"
       x="29.125151"
       y="23.2742" />
    <rect
       y="40.7285"
       x="29.125151"
       height="5.8180995"
       width="69.8172"
       id="rect932"
       style="fill:#669eed;fill-opacity:1;stroke:none;stroke-width:0.7391293;stroke-miterlimit:4;stroke-dasharray:none;stroke-dashoffset:0;stroke-opacity:1" />
    <rect
       style="fill:#669eed;fill-opacity:1;stroke:none;stroke-width:0.7391293;stroke-miterlimit:4;stroke-dasharray:none;stroke-dashoffset:0;stroke-opacity:1"
       id="rect934"
       width="69.8172"
       height="5.8180995"
       x="29.125151"
       y="58.1828" />
    <rect
       y="75.6371"
       x="29.125151"
       height="5.8180995"
       width="69.8172"
       id="rect936"
       style="fill:#669eed;fill-opacity:1;stroke:none;stroke-width:0.7391293;stroke-miterlimit:4;stroke-dasharray:none;stroke-dashoffset:0;stroke-opacity:1" />
  </g>
</svg>
