<?xml version="1.0" encoding="UTF-8" standalone="no"?>
<!-- Created with Inkscape (http://www.inkscape.org/) -->

<svg
   xmlns:dc="http://purl.org/dc/elements/1.1/"
   xmlns:cc="http://creativecommons.org/ns#"
   xmlns:rdf="http://www.w3.org/1999/02/22-rdf-syntax-ns#"
   xmlns:svg="http://www.w3.org/2000/svg"
   xmlns="http://www.w3.org/2000/svg"
   xmlns:xlink="http://www.w3.org/1999/xlink"
   xmlns:sodipodi="http://sodipodi.sourceforge.net/DTD/sodipodi-0.dtd"
   xmlns:inkscape="http://www.inkscape.org/namespaces/inkscape"
   version="1.1"
   id="svg2"
   width="128"
   height="128"
   viewBox="0 0 128 128"
   sodipodi:docname="lc_controlproperties.svg"
   inkscape:version="0.92.3 (unknown)"
   inkscape:export-filename="/home/rizmut/Dokumen/Rizmut/Github/libreoffice-style-karasa-jaga/build/images_karasa_jaga/cmd/lc_controlproperties.png"
   inkscape:export-xdpi="16.5"
   inkscape:export-ydpi="16.5">
  <metadata
     id="metadata8">
    <rdf:RDF>
      <cc:Work
         rdf:about="">
        <dc:format>image/svg+xml</dc:format>
        <dc:type
           rdf:resource="http://purl.org/dc/dcmitype/StillImage" />
        <dc:title></dc:title>
      </cc:Work>
    </rdf:RDF>
  </metadata>
  <defs
     id="defs6">
    <linearGradient
       inkscape:collect="always"
       id="linearGradient1084">
      <stop
         style="stop-color:#b3b3b7;stop-opacity:1;"
         offset="0"
         id="stop1080" />
      <stop
         style="stop-color:#e5e5e5;stop-opacity:0.99607843"
         offset="1"
         id="stop1082" />
    </linearGradient>
    <linearGradient
       inkscape:collect="always"
       id="linearGradient838">
      <stop
         style="stop-color:#ffffff;stop-opacity:1;"
         offset="0"
         id="stop834" />
      <stop
         style="stop-color:#bbbbbb;stop-opacity:1"
         offset="1"
         id="stop836" />
    </linearGradient>
    <linearGradient
       inkscape:collect="always"
       xlink:href="#linearGradient838"
       id="linearGradient840"
       x1="26.221916"
       y1="59.536545"
       x2="96.5784"
       y2="57.715343"
       gradientUnits="userSpaceOnUse"
       gradientTransform="rotate(90,65.170062,65.407638)" />
    <filter
       inkscape:collect="always"
       style="color-interpolation-filters:sRGB"
       id="filter894"
       x="-0.004120197"
       width="1.0082404"
       y="-0.0057484538"
       height="1.0114969">
      <feGaussianBlur
         inkscape:collect="always"
         stdDeviation="0.13885547"
         id="feGaussianBlur896" />
    </filter>
    <linearGradient
       inkscape:collect="always"
       xlink:href="#linearGradient1084"
       id="linearGradient1086"
       x1="72.618614"
       y1="101.35709"
       x2="73.819366"
       y2="47.875233"
       gradientUnits="userSpaceOnUse"
       gradientTransform="matrix(0.73076308,0,0,0.71668431,31.603579,-11.723659)" />
    <filter
       inkscape:collect="always"
       style="color-interpolation-filters:sRGB"
       id="filter1111"
       x="-0.027391839"
       width="1.0547837"
       y="-0.052498037"
       height="1.1049961">
      <feGaussianBlur
         inkscape:collect="always"
         stdDeviation="0.668475"
         id="feGaussianBlur1113" />
    </filter>
    <linearGradient
       id="d"
       gradientUnits="userSpaceOnUse"
       x1="98.9077"
       x2="98.9077"
       y1="46.5466"
       y2="162.9086">
      <stop
         offset="0"
         stop-color="#99999c"
         id="stop19" />
      <stop
         offset=".5"
         stop-color="#9c9ca1"
         id="stop21" />
      <stop
         offset="1"
         stop-color="#cdcdd1"
         id="stop23" />
    </linearGradient>
    <linearGradient
       id="e"
       gradientUnits="userSpaceOnUse"
       x1="78.610847"
       x2="120.3435"
       y1="88.852417"
       y2="111.54715">
      <stop
         offset="0"
         stop-color="#fff"
         id="stop26" />
      <stop
         offset="1"
         stop-color="#ccc"
         id="stop28" />
    </linearGradient>
    <linearGradient
       id="f"
       gradientUnits="userSpaceOnUse"
       x1="88.38102"
       x2="130.48599"
       y1="1008.9966"
       y2="1015.6953">
      <stop
         offset="0"
         stop-color="#7b7b7b"
         id="stop31" />
      <stop
         offset="1"
         stop-color="#797979"
         stop-opacity="0"
         id="stop33" />
    </linearGradient>
    <clipPath
       id="g">
      <path
         inkscape:connector-curvature="0"
         d="M 41.355614,933.74432 H 125.29961 V 1051.266 H 41.355614 Z"
         id="path36" />
    </clipPath>
    <filter
       style="color-interpolation-filters:sRGB"
       id="h"
       height="1.073732"
       width="1.13754"
       x="-0.068769999"
       y="-0.036866002">
      <feGaussianBlur
         stdDeviation="1.0557314"
         id="feGaussianBlur39" />
    </filter>
    <linearGradient
       id="i"
       gradientUnits="userSpaceOnUse"
       x1="100.83452"
       x2="116.42799"
       y1="37.992622"
       y2="80.92411">
      <stop
         offset="0"
         stop-color="#fff"
         stop-opacity=".683453"
         id="stop42" />
      <stop
         offset="1"
         stop-color="#fff"
         stop-opacity="0"
         id="stop44" />
    </linearGradient>
    <linearGradient
       id="j"
       gradientTransform="matrix(0.58291629,0,0,0.66676377,62.177025,-566.68964)"
       gradientUnits="userSpaceOnUse"
       x1="63.011921"
       x2="63.011921"
       y1="945.89801"
       y2="1033.1569">
      <stop
         offset="0"
         stop-color="#545454"
         stop-opacity=".988"
         id="stop47" />
      <stop
         offset="1"
         stop-color="#ebebeb"
         id="stop49" />
    </linearGradient>
    <linearGradient
       id="k"
       gradientTransform="matrix(0.48045402,0,0,0.66178602,128.73476,-578.51587)"
       gradientUnits="userSpaceOnUse"
       x1="-60.535713"
       x2="-60.357143"
       y1="979.50507"
       y2="1009.505">
      <stop
         offset="0"
         stop-color="#979797"
         id="stop52" />
      <stop
         offset=".148461"
         stop-color="#f6f6f6"
         id="stop54" />
      <stop
         offset=".28399727"
         stop-color="#e2e2e2"
         id="stop56" />
      <stop
         offset=".41198727"
         stop-color="#dedede"
         id="stop58" />
      <stop
         offset=".41198727"
         stop-color="#f6f6f6"
         id="stop60" />
      <stop
         offset="1"
         stop-color="#6b6b6b"
         id="stop62" />
    </linearGradient>
    <linearGradient
       id="l"
       gradientTransform="matrix(0.480454,0,0,0.58309338,128.76683,499.76645)"
       gradientUnits="userSpaceOnUse"
       x1="-61.078979"
       x2="-60.6413"
       y1="-1056.658"
       y2="-1010.9131">
      <stop
         offset="0"
         stop-color="#777"
         id="stop65" />
      <stop
         offset=".18176934"
         stop-color="#a8a8a8"
         id="stop67" />
      <stop
         offset=".22864534"
         stop-color="#cdcdcd"
         id="stop69" />
      <stop
         offset=".34561315"
         stop-color="#f7f7f7"
         id="stop71" />
      <stop
         offset="1"
         stop-color="#fff"
         id="stop73" />
    </linearGradient>
    <linearGradient
       inkscape:collect="always"
       xlink:href="#linearGradient1704"
       id="linearGradient1706"
       x1="50.587578"
       y1="267.47455"
       x2="54.049843"
       y2="290.94104"
       gradientUnits="userSpaceOnUse"
       gradientTransform="matrix(2.1567673,0,0,2.1567673,-73.562133,-514.83215)" />
    <linearGradient
       inkscape:collect="always"
       id="linearGradient1704">
      <stop
         style="stop-color:#c0c0c0;stop-opacity:1;"
         offset="0"
         id="stop1700" />
      <stop
         style="stop-color:#f7f7f7;stop-opacity:1"
         offset="1"
         id="stop1702" />
    </linearGradient>
    <radialGradient
       inkscape:collect="always"
       xlink:href="#linearGradient1719"
       id="radialGradient1721"
       cx="53.071602"
       cy="283.68246"
       fx="53.071602"
       fy="283.68246"
       r="7.4497313"
       gradientUnits="userSpaceOnUse"
       gradientTransform="matrix(2.4861482,0,0,2.4861482,-90.953306,-607.24135)" />
    <linearGradient
       inkscape:collect="always"
       id="linearGradient1719">
      <stop
         style="stop-color:#666666;stop-opacity:1"
         offset="0"
         id="stop1715" />
      <stop
         style="stop-color:#232323;stop-opacity:0.9375"
         offset="1"
         id="stop1717" />
    </linearGradient>
    <linearGradient
       inkscape:collect="always"
       xlink:href="#linearGradient1731"
       id="linearGradient1733"
       x1="53.51049"
       y1="264.43698"
       x2="53.720795"
       y2="279.9422"
       gradientUnits="userSpaceOnUse"
       gradientTransform="matrix(2.384575,0,0,2.6116957,-85.719524,-642.69941)" />
    <linearGradient
       inkscape:collect="always"
       id="linearGradient1731">
      <stop
         style="stop-color:#f8f8f8;stop-opacity:1;"
         offset="0"
         id="stop1727" />
      <stop
         style="stop-color:#f8f8f8;stop-opacity:0;"
         offset="1"
         id="stop1729" />
    </linearGradient>
  </defs>
  <sodipodi:namedview
     pagecolor="#ffffff"
     bordercolor="#666666"
     borderopacity="1"
     objecttolerance="10"
     gridtolerance="10"
     guidetolerance="10"
     inkscape:pageopacity="0"
     inkscape:pageshadow="2"
     inkscape:window-width="1366"
     inkscape:window-height="706"
     id="namedview4"
     showgrid="true"
     inkscape:snap-page="true"
     inkscape:snap-global="false"
     inkscape:zoom="2.4494288"
     inkscape:cx="7.4667036"
     inkscape:cy="17.652661"
     inkscape:window-x="0"
     inkscape:window-y="0"
     inkscape:window-maximized="1"
     inkscape:current-layer="svg2"
     inkscape:snap-smooth-nodes="true">
    <inkscape:grid
       type="xygrid"
       id="grid834"
       spacingx="5.8181"
       spacingy="5.8181"
       empspacing="1" />
  </sodipodi:namedview>
  <g
     id="g1833">
    <path
       inkscape:connector-curvature="0"
       id="path827"
       d="m 40.542294,11.637994 v 0.03628 h -2.412307 c -3.274278,0 -9.039487,2.779089 -9.039487,6.230326 v 45.649025 c 0,3.45125 5.765209,6.229085 9.039487,6.229085 h 2.412307 V 69.819 H 78.54513 116.5464 v -0.0363 h 2.41231 c 3.27427,0 9.03949,-2.777835 9.03949,-6.229085 V 17.9046 c 0,-3.451236 -5.76522,-6.230327 -9.03949,-6.230327 H 116.5464 V 11.638 H 78.54513 Z"
       style="opacity:1;fill:#8b8b91;fill-opacity:0.99586056;stroke:none;stroke-width:0.82438517;stroke-linecap:round;stroke-linejoin:bevel;stroke-miterlimit:4;stroke-dasharray:none;stroke-dashoffset:0;stroke-opacity:1" />
    <path
       inkscape:connector-curvature="0"
       id="path904"
       d="m 43.438515,17.456081 v 0.02921 h -2.06669 c -2.804902,-1e-6 -6.524057,2.22257 -6.524057,4.983567 v 36.519218 c 0,2.761006 3.719155,4.983581 6.524057,4.983581 h 2.06669 v 0.02924 h 33.518046 0.255482 36.441097 v -0.02924 h 2.06671 c 2.80488,0 6.52403,-2.222575 6.52403,-4.983581 V 22.468874 c 0,-2.760997 -3.71915,-4.98357 -6.52403,-4.98357 h -2.06671 V 17.4561 H 77.212043 76.956561 Z"
       style="opacity:1;fill:url(#linearGradient1086);fill-opacity:1;stroke:none;stroke-width:0.68246019;stroke-linecap:round;stroke-linejoin:bevel;stroke-miterlimit:4;stroke-dasharray:none;stroke-dashoffset:0;stroke-opacity:1" />
    <path
       sodipodi:nodetypes="ccssssssccccccscsscsccccccccccsssscsccccccscssssccc"
       inkscape:connector-curvature="0"
       id="path829"
       d="m 16.195312,22.822266 c -0.105581,1.2e-5 -0.21046,0.01716 -0.310546,0.05078 h -2.517578 c -2.246364,0 -4.6422827,1.070615 -6.5527349,2.777344 -1.9104522,1.706728 -3.3496094,4.11354 -3.3496093,6.857421 V 95.96875 c 0,2.743882 1.4391572,5.15069 3.3496093,6.85742 1.9104521,1.70673 4.3063709,2.77735 6.5527349,2.77735 h 2.517578 c 0.100085,0.0336 0.204964,0.0508 0.310546,0.0508 H 66.0625 66.642578 112.2793 c 0.10558,-2e-5 0.21046,-0.0172 0.31054,-0.0508 h 2.51758 c 2.24637,0 4.64228,-1.07062 6.55274,-2.77735 1.91045,-1.70673 3.34961,-4.113541 3.34961,-6.85742 V 32.507812 c 0,-2.743882 -1.43916,-5.150693 -3.34961,-6.857421 -1.91046,-1.706729 -4.30638,-2.777344 -6.55274,-2.777344 h -2.51758 c -0.10008,-0.03362 -0.20496,-0.05077 -0.31054,-0.05078 H 66.642578 66.0625 Z M 20.29627,33.35791 65.952002,33.176274 h 0.580078 l 41.21675,0.128436 c 0.0966,0.03106 0.19739,0.04688 0.29883,0.04687 h 2.73046 c 1.53667,0 1.49189,0.802137 3.04038,2.123046 1.54849,1.32091 2.60818,3.093925 2.61133,4.964844 l 0.0804,47.724149 c 0.003,1.870919 -1.06284,3.643934 -2.61133,4.964843 -1.54849,1.320901 -1.50371,2.123051 -3.04038,2.123051 h -2.73046 c -0.10351,10e-7 -0.20636,0.01647 -0.30469,0.0488 L 66.612443,95.171877 H 66.032365 L 20.38054,95.353513 c -0.09833,-0.03233 -0.201179,-0.0488 -0.304688,-0.0488 h -2.730469 c -1.536659,0 -1.949183,-0.905499 -3.497674,-2.22641 -1.54849,-1.320904 -2.608178,-3.09392 -2.611328,-4.964838 l -0.08036,-47.724149 c -0.0032,-1.870918 1.062838,-3.643934 2.611329,-4.964844 1.54849,-1.320909 1.961014,-2.019687 3.497673,-2.019687 h 2.730469 c 0.102096,2.11e-4 0.203591,-0.01561 0.300781,-0.04687 z"
       style="opacity:1;fill:url(#linearGradient840);fill-opacity:1;stroke:none;stroke-width:1.05240166;stroke-linecap:round;stroke-linejoin:bevel;stroke-miterlimit:4;stroke-dasharray:none;stroke-dashoffset:0;stroke-opacity:1;filter:url(#filter894)"
       transform="matrix(0.71846265,0,0,0.56191774,32.545524,4.6318633)" />
    <text
       transform="matrix(0.9482555,0,0,0.9482555,18.402518,-16.427818)"
       xml:space="preserve"
       style="font-style:normal;font-weight:normal;font-size:40px;line-height:125%;font-family:sans-serif;letter-spacing:0px;word-spacing:0px;fill:#ebebec;fill-opacity:0.99607843;stroke:none;stroke-width:1px;stroke-linecap:butt;stroke-linejoin:miter;stroke-opacity:1;filter:url(#filter1111)"
       x="32.46949"
       y="80.360001"
       id="text1097"><tspan
         sodipodi:role="line"
         id="tspan1095"
         x="32.46949"
         y="80.360001"
         style="font-style:normal;font-variant:normal;font-weight:600;font-stretch:normal;font-family:FreeSans;-inkscape-font-specification:'FreeSans Semi-Bold';fill:#ebebec;fill-opacity:0.99607843">OK</tspan></text>
    <text
       id="text1093"
       y="56.159637"
       x="48.888737"
       style="font-style:normal;font-weight:normal;font-size:37.93022156px;line-height:125%;font-family:sans-serif;letter-spacing:0px;word-spacing:0px;fill:#47474b;fill-opacity:0.99607843;stroke:none;stroke-width:0.9482556px;stroke-linecap:butt;stroke-linejoin:miter;stroke-opacity:1"
       xml:space="preserve"><tspan
         style="font-style:normal;font-variant:normal;font-weight:600;font-stretch:normal;font-family:FreeSans;-inkscape-font-specification:'FreeSans Semi-Bold';fill:#47474b;fill-opacity:0.99607843;stroke-width:0.9482556px"
         y="56.159637"
         x="48.888737"
         id="tspan1091"
         sodipodi:role="line">OK</tspan></text>
  </g>
  <g
     id="g1973"
     transform="matrix(0.98848002,0,0,1.0316799,0.05616118,-3.98208)">
    <circle
       style="opacity:1;fill:#2a2a2a;fill-opacity:0.91911765;stroke:none;stroke-width:0.79530156;stroke-linecap:round;stroke-linejoin:bevel;stroke-miterlimit:4;stroke-dasharray:none;stroke-dashoffset:0;stroke-opacity:1"
       id="circle1698"
       cx="40.314274"
       cy="90.258026"
       r="35.439163" />
    <circle
       r="28.832094"
       cy="90.258026"
       cx="40.314274"
       id="path1696"
       style="opacity:1;fill:url(#linearGradient1706);fill-opacity:1;stroke:none;stroke-width:0.64703023;stroke-linecap:round;stroke-linejoin:bevel;stroke-miterlimit:4;stroke-dasharray:none;stroke-dashoffset:0;stroke-opacity:1" />
    <path
       inkscape:connector-curvature="0"
       id="path1708"
       d="M 56.305226,66.284808 C 46.474731,81.173436 30.745446,102.97025 23.167713,113.39532 a 28.832095,28.832095 0 0 0 14.09113,5.52365 c 6.553265,-2.89168 16.142417,-7.15947 26.48594,-11.90106 A 28.832095,28.832095 0 0 0 69.145844,90.258567 28.832095,28.832095 0 0 0 56.305226,66.284808 Z"
       style="fill:#f7f7f7;fill-opacity:0.65808835;fill-rule:evenodd;stroke:none;stroke-width:0.57064462px;stroke-linecap:butt;stroke-linejoin:miter;stroke-opacity:1" />
    <circle
       r="18.521137"
       cy="90.258026"
       cx="40.314274"
       id="circle1713"
       style="opacity:1;fill:url(#radialGradient1721);fill-opacity:1;stroke:none;stroke-width:0.41563872;stroke-linecap:round;stroke-linejoin:bevel;stroke-miterlimit:4;stroke-dasharray:none;stroke-dashoffset:0;stroke-opacity:1" />
    <ellipse
       ry="10.753576"
       rx="15.169822"
       style="opacity:1;fill:url(#linearGradient1733);fill-opacity:1;stroke:none;stroke-width:0.28662562;stroke-linecap:round;stroke-linejoin:bevel;stroke-miterlimit:4;stroke-dasharray:none;stroke-dashoffset:0;stroke-opacity:1"
       id="circle1723"
       cx="40.185036"
       cy="84.161751" />
  </g>
  <g
     transform="translate(-2e-6)"
     id="g122">
    <path
       style="fill:url(#d)"
       inkscape:connector-curvature="0"
       d="m 69.8172,46.546616 h 58.181 v 81.453444 h -58.181 z"
       id="path106" />
    <path
       style="fill:url(#e)"
       inkscape:connector-curvature="0"
       d="m 75.6353,52.3647 h 46.5448 v 69.81722 H 75.6353 Z"
       id="path108" />
    <path
       style="opacity:0.68000022;fill:url(#f);fill-rule:evenodd;filter:url(#h)"
       inkscape:connector-curvature="0"
       clip-path="url(#g)"
       d="m 92.81509,1029.6319 c 1.071428,1.4286 10.71429,15.3572 11.78571,13.5715 1.07143,-1.7858 26.42857,-25.3572 25,-26.7858 -1.42857,-1.4285 -33.928567,-41.78567 -33.928567,-41.78567 z"
       transform="matrix(0.69309305,0,0,0.69309305,41.153912,-600.6251)"
       id="path110" />
    <path
       style="fill:url(#i);fill-rule:evenodd"
       inkscape:connector-curvature="0"
       d="M 75.6353,52.3647 V 99.64533 C 89.806961,83.145235 109.17378,76.487988 122.17969,74.623047 V 52.365234 Z"
       id="path112" />
    <path
       style="fill:url(#j)"
       inkscape:connector-curvature="0"
       d="m 87.2715,64.0009 h 23.2724 v 46.5448 H 87.2715 Z"
       id="path114" />
    <path
       style="fill:#535353"
       inkscape:connector-curvature="0"
       d="M 89.925598,66.798828 H 107.61233 V 107.96351 H 89.925598 Z"
       id="path116" />
    <path
       style="fill:url(#k)"
       inkscape:connector-curvature="0"
       d="m 93.0896,69.819 h 11.6362 V 87.2733 H 93.0896 Z"
       id="path118" />
    <path
       style="fill:url(#l)"
       inkscape:connector-curvature="0"
       d="m 93.0896,-116.3638 h 11.6362 v 29.0905 H 93.0896 Z"
       transform="scale(1,-1)"
       id="path120" />
  </g>
</svg>
