<svg height="128" viewBox="0 0 33.866666 33.866668" width="128" xmlns="http://www.w3.org/2000/svg" xmlns:xlink="http://www.w3.org/1999/xlink"><filter id="a"><feGaussianBlur stdDeviation="1.5999062"/></filter><linearGradient id="b" gradientTransform="matrix(.02142366 0 0 .03098456 -.332092 260.9232)" gradientUnits="userSpaceOnUse" x1="399.77466" x2="399.77466" y1="731.09662" y2="480.60214"><stop offset="0" stop-color="#cbcbcd"/><stop offset=".5" stop-color="#e0e0e2"/><stop offset="1" stop-color="#f2f2f2"/></linearGradient><linearGradient id="c" gradientTransform="matrix(.02142366 0 0 .03098456 20.736322 323.59667)" gradientUnits="userSpaceOnUse" x1="-333.0289" x2="-333.0289" y1="-1473.6504" y2="-776.61371"><stop offset="0" stop-color="#fff"/><stop offset=".49140647" stop-color="#fff"/><stop offset="1" stop-color="#dcdcdc"/></linearGradient><filter id="d" color-interpolation-filters="sRGB" height="1.072142" width="1.071866" x="-.035933" y="-.036071"><feGaussianBlur stdDeviation=".66434216"/></filter><radialGradient id="e" cx="-55.685837" cy="-347.11612" gradientTransform="matrix(-.89528211 -.23989009 .26001404 -.9703857 -29.034684 -654.02683)" gradientUnits="userSpaceOnUse" r="22.14249"><stop offset="0" stop-color="#82c133"/><stop offset="1" stop-color="#72b028"/></radialGradient><linearGradient id="f" gradientUnits="userSpaceOnUse" x1="328.12448" x2="336.98077" y1="120.81158" y2="87.759453"><stop offset="0" stop-color="#96ff00"/><stop offset="1" stop-color="#609800"/></linearGradient><clipPath id="g"><circle cx="343.91208" cy="92.325096" r="36" transform="matrix(.86602539 .50000002 .49999965 -.86602561 0 0)"/></clipPath><filter id="h"><feGaussianBlur stdDeviation="2.8805897"/></filter><radialGradient id="i" cx="343.99899" cy="92" gradientTransform="matrix(.47032074 0 0 .4703204 -235.54627 -330.99181)" gradientUnits="userSpaceOnUse" r="36"><stop offset="0" stop-color="#e5ff00"/><stop offset="1" stop-color="#bff500" stop-opacity="0"/></radialGradient><linearGradient id="j" gradientUnits="userSpaceOnUse" x1="122.000035" x2="122.000035" y1="61.999997" y2="9.932843"><stop offset="0" stop-color="#004d00" stop-opacity="0"/><stop offset=".5" stop-color="#004d00"/><stop offset="1" stop-color="#004d00" stop-opacity="0"/></linearGradient><filter id="k"><feGaussianBlur stdDeviation="1.04"/></filter><linearGradient id="l" gradientTransform="matrix(0 .47393418 -.47393451 0 83.152635 278.87871)" gradientUnits="userSpaceOnUse" x1="-80.00296" x2="-45.096584" y1="-131.93112" y2="-131.93112"><stop offset="0" stop-color="#fff"/><stop offset="1" stop-color="#fff" stop-opacity="0"/></linearGradient><g transform="matrix(1.45455 0 0 1.45455 -.000053 -399.67401)"><path d="m9.3814603 6.4002109h77.2232807c.76597 0 1.38261.72808 1.38261 1.63246v60.7371801c0 .90439-.61664 1.63247-1.38261 1.63247h-77.2232807c-.765966 0-1.38261-.72808-1.38261-1.63247v-60.7371801c0-.90438.616644-1.63246 1.38261-1.63246z" style="opacity:.4;fill:none;stroke:#000;stroke-width:4;stroke-linecap:round;stroke-linejoin:round;stroke-dashoffset:4;filter:url(#a)" transform="matrix(.26458333 0 0 .26458333 -1.056508 276.25632)"/><path d="m1.4242005 277.94999h20.4349305c.20269 0 .365869.19263.365869.43191v16.06951h-21.1666674v-16.06951c0-.23928.163177-.43191.3658679-.43191z" fill="url(#b)"/><path d="m13.9017 281.90108v-.50836z" fill="#fff" fill-opacity=".756881"/><path d="m1.4221355 277.94999c-.202691 0-.3638021.19067-.3638021.42994v16.07344c0 .23928.1611111.42995.3638021.42995h20.4390625c.202692 0 .363802-.19067.363802-.42995v-16.07344c0-.23927-.16111-.42994-.363802-.42994zm.2480468.64492h19.9429687c.192556 0 .347266.18063.347266.40514v15.21354c0 .22451-.15471.40515-.347266.40515h-19.9429687c-.1925563 0-.3472656-.18064-.3472656-.40515v-15.21354c0-.22451.1547093-.40514.3472656-.40514z" fill="url(#c)"/><path d="m1.0583334 282.18332v3.175h6.3499999v-3.175zm7.4083332 0v3.175h6.3500004v-3.175zm7.4083334 0v3.175h6.35v-3.175zm-14.8166666 4.23333v3.175h6.3499999v-3.175zm7.4083332 0v3.175h6.3500004v-3.175zm7.4083334 0v3.175h6.35v-3.175zm-14.8166666 4.23334v4.23333h6.3499999v-4.23333zm7.4083332 0v4.23333h6.3500004v-4.23333zm7.4083334 0v4.23333h6.35v-4.23333z" fill="#fff"/></g><g transform="matrix(.38484969 0 0 .38484969 -31.024447 -91.0485)"><ellipse cx="-207.73613" cy="212.29665" fill="none" rx="20.523085" ry="20.523069" stroke-width=".570085" transform="matrix(-.96592587 -.2588189 -.25881915 .9659258 0 0)"/><ellipse cx="-59.830322" cy="-331.66757" fill="#292929" filter="url(#d)" rx="22.14249" ry="22.142477" transform="matrix(-.89809327 .23387197 -.24064319 -.8728227 12.164424 -15.390993)"/><ellipse cx="-73.756378" cy="-287.72238" fill="url(#e)" rx="20.523085" ry="20.523069" transform="matrix(-.96592587 .25881888 -.25881888 -.96592587 0 0)"/><circle cx="343.99899" cy="92" r="36" style="opacity:.8;fill:none;stroke-width:6.751382;clip-path:url(#g);stroke:url(#f);filter:url(#h)" transform="matrix(-.55066046 -.14754894 -.14754899 .55066008 348.7124 258.92482)"/><ellipse cx="-73.756401" cy="-287.72238" fill="url(#i)" rx="16.931545" ry="16.931536" stroke-width=".470321" transform="matrix(-.96592583 .25881905 -.25881905 -.96592583 0 0)"/><path d="m120.01465 24.819615v9.194998h-7.32125v3.970777h7.32125v9.194998h3.97076v-9.194998h7.32126v-3.970777h-7.32126v-9.194998z" style="fill:none;stroke-width:4;stroke-linecap:round;stroke-linejoin:round;stroke:url(#j);filter:url(#k)" transform="matrix(1.2017106 0 0 1.2017106 -.897549 217.33317)"/><path d="m141.84828 244.34507v10.13508h-10.13507v7.72576h10.13507v10.13508h7.7258v-10.13508h10.13506v-7.72576h-10.13506v-10.13508z" fill="#fff" fill-rule="evenodd"/><path d="m145.71127 240.96258c-7.27803 0-13.35947 5.13926-14.82526 11.98165 2.92172 2.72366 8.46549 4.56161 14.82526 4.56161s11.90353-1.83795 14.82523-4.56161c-1.46576-6.84239-7.54721-11.98165-14.82523-11.98165z" fill="url(#l)" opacity=".8" stroke-width=".789785"/></g></svg>