<?xml version="1.0" encoding="UTF-8" standalone="no"?>
<!-- Created with Inkscape (http://www.inkscape.org/) -->

<svg
   xmlns:dc="http://purl.org/dc/elements/1.1/"
   xmlns:cc="http://creativecommons.org/ns#"
   xmlns:rdf="http://www.w3.org/1999/02/22-rdf-syntax-ns#"
   xmlns:svg="http://www.w3.org/2000/svg"
   xmlns="http://www.w3.org/2000/svg"
   xmlns:xlink="http://www.w3.org/1999/xlink"
   xmlns:sodipodi="http://sodipodi.sourceforge.net/DTD/sodipodi-0.dtd"
   xmlns:inkscape="http://www.inkscape.org/namespaces/inkscape"
   width="128"
   height="128"
   viewBox="0 0 33.866666 33.866668"
   version="1.1"
   id="svg1457"
   sodipodi:docname="lc_dia.svg"
   inkscape:version="0.92.3 (unknown)"
   inkscape:export-filename="/home/rizmut/Dokumen/Rizmut/Github/libreoffice-style-karasa-jaga/build/images_karasa_jaga/cmd/lc_dia.png"
   inkscape:export-xdpi="16.500002"
   inkscape:export-ydpi="16.500002">
  <defs
     id="defs1451">
    <linearGradient
       inkscape:collect="always"
       xlink:href="#linearGradient15967"
       id="linearGradient3412"
       gradientUnits="userSpaceOnUse"
       x1="56"
       y1="32"
       x2="56"
       y2="88.117546" />
    <linearGradient
       y2="0"
       x2="28"
       y1="57.5"
       x1="28"
       gradientUnits="userSpaceOnUse"
       id="linearGradient15967">
      <stop
         id="stop15969"
         style="stop-color:white;stop-opacity:1;"
         offset="0" />
      <stop
         id="stop15971"
         style="stop-color:white;stop-opacity:0;"
         offset="1" />
    </linearGradient>
    <clipPath
       clipPathUnits="userSpaceOnUse"
       id="clipPath3182">
      <path
         inkscape:connector-curvature="0"
         style="opacity:1;fill:url(#linearGradient3186);fill-opacity:1;stroke:none;stroke-width:0.69999999;stroke-linecap:round;stroke-linejoin:round;stroke-miterlimit:4;stroke-dasharray:none;stroke-dashoffset:1.08780003;stroke-opacity:1;filter:url(#filter3176)"
         d="M 18.1875,56 C 16.967826,56 16,56.967827 16,58.1875 V 75.25 C 25.640301,77.646967 36.509296,79 48,79 59.490704,79 70.359699,77.646967 80,75.25 V 58.1875 C 80,56.967826 79.032173,56 77.8125,56 Z"
         id="path3184"
         sodipodi:nodetypes="cccscccc" />
    </clipPath>
    <filter
       inkscape:collect="always"
       id="filter3176"
       x="-0.053000905"
       width="1.1060019"
       y="-0.14748077"
       height="1.2949615">
      <feGaussianBlur
         inkscape:collect="always"
         stdDeviation="1.4133574"
         id="feGaussianBlur3178" />
    </filter>
    <linearGradient
       y2="0"
       x2="28"
       y1="57.5"
       x1="28"
       gradientUnits="userSpaceOnUse"
       id="linearGradient3287">
      <stop
         id="stop3289"
         style="stop-color:#FFEA00"
         offset="0" />
      <stop
         id="stop3291"
         style="stop-color:#ffa000;stop-opacity:1;"
         offset="1" />
    </linearGradient>
    <radialGradient
       inkscape:collect="always"
       xlink:href="#XMLID_8_"
       id="radialGradient3726"
       gradientUnits="userSpaceOnUse"
       gradientTransform="matrix(0.80689359,0,0,0.73556211,-62.921056,192.61712)"
       cx="100.88867"
       cy="155.99673"
       fx="100.88867"
       fy="155.99673"
       r="40" />
    <radialGradient
       id="XMLID_8_"
       cx="102"
       cy="112.3047"
       r="139.55859"
       gradientUnits="userSpaceOnUse">
      <stop
         offset="0"
         style="stop-color:#ffffff;stop-opacity:1;"
         id="stop37" />
      <stop
         offset="0.11366145"
         style="stop-color:#bdbebf;stop-opacity:1;"
         id="stop41" />
      <stop
         offset="0.20296688"
         style="stop-color:#ECECEC"
         id="stop47" />
      <stop
         offset="0.2363"
         style="stop-color:#FAFAFA"
         id="stop49" />
      <stop
         offset="0.38818121"
         style="stop-color:#FFFFFF"
         id="stop51" />
      <stop
         offset="0.5313"
         style="stop-color:#FAFAFA"
         id="stop53" />
      <stop
         offset="0.8449"
         style="stop-color:#EBECEC"
         id="stop55" />
      <stop
         offset="1"
         style="stop-color:#E1E2E3"
         id="stop57" />
    </radialGradient>
    <filter
       inkscape:collect="always"
       id="filter3281">
      <feGaussianBlur
         inkscape:collect="always"
         stdDeviation="1.9"
         id="feGaussianBlur3283" />
    </filter>
    <linearGradient
       inkscape:collect="always"
       id="linearGradient2334">
      <stop
         style="stop-color:#e9eaea;stop-opacity:1;"
         offset="0"
         id="stop2330" />
      <stop
         id="stop2338"
         offset="0.5"
         style="stop-color:#ffffff;stop-opacity:1" />
      <stop
         style="stop-color:#fefefe;stop-opacity:1"
         offset="1"
         id="stop2332" />
    </linearGradient>
    <linearGradient
       inkscape:collect="always"
       xlink:href="#linearGradient2334"
       id="linearGradient2149"
       x1="10.538412"
       y1="294.33096"
       x2="10.538412"
       y2="284.80612"
       gradientUnits="userSpaceOnUse" />
    <radialGradient
       inkscape:collect="always"
       xlink:href="#linearGradient3287"
       id="radialGradient2186"
       cx="3.6593635"
       cy="291.42059"
       fx="3.6593635"
       fy="291.42059"
       r="1.8520516"
       gradientTransform="matrix(1.9999997,5.1232557e-6,-4.3913635e-6,1.714286,-3.6580827,-203.65984)"
       gradientUnits="userSpaceOnUse" />
    <linearGradient
       inkscape:collect="always"
       xlink:href="#linearGradient15967"
       id="linearGradient3412-3"
       gradientUnits="userSpaceOnUse"
       x1="61.55135"
       y1="56.816742"
       x2="61.55135"
       y2="138.27014"
       gradientTransform="matrix(0.25000001,0,0,0.25000001,7.8845622,9.0700133)" />
    <radialGradient
       inkscape:collect="always"
       xlink:href="#linearGradient3287"
       id="radialGradient2258"
       cx="9.4800968"
       cy="290.97961"
       fx="9.4800968"
       fy="290.97961"
       r="2.9103665"
       gradientTransform="matrix(1,0,0,1.090909,0,-26.276275)"
       gradientUnits="userSpaceOnUse" />
  </defs>
  <sodipodi:namedview
     id="base"
     pagecolor="#ffffff"
     bordercolor="#666666"
     borderopacity="1.0"
     inkscape:pageopacity="0.0"
     inkscape:pageshadow="2"
     inkscape:zoom="2.8394757"
     inkscape:cx="47.581019"
     inkscape:cy="82.001391"
     inkscape:document-units="mm"
     inkscape:current-layer="g2089"
     showgrid="true"
     units="px"
     inkscape:snap-global="false"
     inkscape:snap-others="false"
     inkscape:snap-smooth-nodes="false"
     inkscape:snap-page="true"
     inkscape:window-width="1364"
     inkscape:window-height="704"
     inkscape:window-x="0"
     inkscape:window-y="0"
     inkscape:window-maximized="0"
     inkscape:snap-nodes="true">
    <inkscape:grid
       spacingx="0.76968615"
       spacingy="0.76968615"
       empspacing="2"
       type="xygrid"
       id="grid2002" />
  </sodipodi:namedview>
  <metadata
     id="metadata1454">
    <rdf:RDF>
      <cc:Work
         rdf:about="">
        <dc:format>image/svg+xml</dc:format>
        <dc:type
           rdf:resource="http://purl.org/dc/dcmitype/StillImage" />
        <dc:title />
      </cc:Work>
    </rdf:RDF>
  </metadata>
  <g
     inkscape:label="Layer 1"
     inkscape:groupmode="layer"
     id="layer1"
     transform="translate(0,-263.13332)">
    <g
       id="g2089"
       transform="matrix(1.45455,0,0,1.45455,1.6044483,-141.12503)">
      <path
         transform="matrix(0.18386199,0,0,0.18914456,-0.378875,273.08521)"
         sodipodi:nodetypes="ccccccccc"
         id="rect3077"
         d="m 14.524737,48.475819 c -3.884437,0 -6.9999993,3.146813 -6.9999993,7.03125 v 64.495421 c 0,3.88444 3.1155623,7 6.9999993,7 l 89.510093,0.0222 c 3.88443,0 7,-3.11556 7,-7 V 55.529288 c 0,-3.884437 -3.07202,-7.750965 -6.95645,-7.750965 z"
         style="overflow:visible;fill:#020202;fill-opacity:1;stroke:#000000;stroke-width:2;stroke-linecap:round;stroke-linejoin:round;stroke-miterlimit:4;stroke-dasharray:none;stroke-dashoffset:1.08780003;stroke-opacity:1;filter:url(#filter3281)"
         inkscape:connector-curvature="0" />
      <path
         sodipodi:nodetypes="ccccccccccc"
         id="rect2484"
         d="m 2.2307311,282.16414 c -0.6744111,0 -1.2180853,0.5593 -1.2180853,1.25309 l -0.00801,12.30669 c 0,0.69379 0.5436742,1.25308 1.2180853,1.25308 l 1.9657999,-2.5e-4 14.629599,0.004 c 0.674411,0 1.218086,-0.55929 1.218086,-1.25308 l 0.008,-12.30669 c 0,-0.69379 -0.543675,-1.25309 -1.218086,-1.25309 l -0.879512,-0.008 z"
         style="overflow:visible;fill:#ffffff;fill-opacity:1;stroke:none;stroke-width:0.12733072;stroke-linecap:round;stroke-linejoin:round;stroke-miterlimit:4;stroke-dasharray:none;stroke-dashoffset:1.08780003;stroke-opacity:1"
         inkscape:connector-curvature="0" />
      <path
         sodipodi:nodetypes="ccccccccc"
         id="rect3135"
         d="m 2.241158,282.35329 c -0.5338974,0 -0.9652753,0.44377 -0.9652753,0.99301 l -0.00801,12.44855 c 0,0.54924 0.4313777,0.99301 0.9652753,0.99301 l 16.65392,0.004 c 0.533898,0 0.965276,-0.44377 0.965276,-0.99301 l 0.008,-12.44855 c 0,-0.54924 -0.431378,-0.99301 -0.965276,-0.99301 z"
         style="overflow:visible;fill:url(#radialGradient3726);fill-opacity:1;stroke:none;stroke-width:0.12733072;stroke-linecap:round;stroke-linejoin:round;stroke-miterlimit:4;stroke-dasharray:none;stroke-dashoffset:1.08780003;stroke-opacity:1"
         inkscape:connector-curvature="0" />
      <path
         id="rect3358"
         d="m 2.5582309,295.06901 v 0.18914 c 0,0.23069 0.1779468,0.41369 0.4021981,0.41375 l 15.206007,0.004 c 0.224251,5e-5 0.402198,-0.18306 0.402198,-0.41375 v -0.18914 c 0,0.23069 -0.177947,0.4138 -0.402198,0.41375 l -15.206007,-0.004 c -0.2242513,-6e-5 -0.4021981,-0.18306 -0.4021981,-0.41375 z"
         style="overflow:visible;fill:#ffffff;fill-opacity:1;stroke:none;stroke-width:0.12733072;stroke-linecap:round;stroke-linejoin:round;stroke-miterlimit:4;stroke-dasharray:none;stroke-dashoffset:1.08780003;stroke-opacity:1"
         inkscape:connector-curvature="0"
         sodipodi:nodetypes="csssscssc" />
      <rect
         ry="0.41641638"
         rx="0.40478632"
         y="284.27698"
         x="2.0718906"
         height="10.583139"
         width="16.933043"
         id="rect3139"
         style="overflow:visible;fill:#8c8c8c;fill-opacity:1;stroke:none;stroke-width:0.12733072;stroke-linecap:round;stroke-linejoin:round;stroke-miterlimit:4;stroke-dasharray:none;stroke-dashoffset:1.08780003;stroke-opacity:1" />
      <path
         transform="matrix(0.18386199,0,0,0.18914456,-0.378875,274.59836)"
         clip-path="url(#clipPath3182)"
         style="overflow:visible;fill:url(#linearGradient3412);fill-opacity:1;stroke:none;stroke-width:0.69999999;stroke-linecap:round;stroke-linejoin:round;stroke-miterlimit:4;stroke-dasharray:none;stroke-dashoffset:1.08780003;stroke-opacity:1;filter:url(#filter3176)"
         d="M 18.1875,56 C 16.967826,56 16,56.967827 16,58.1875 V 75.25 c 9.640301,2.396967 20.509296,9.345271 32,9.345271 11.490704,0 45.438076,-6.926085 55.07838,-9.323052 v -17.0625 c 0,-1.219674 -0.96783,-2.1875 -2.1875,-2.1875 z"
         id="path3180"
         sodipodi:nodetypes="cccscccc"
         inkscape:connector-curvature="0" />
      <rect
         style="overflow:visible;fill:url(#linearGradient2149);fill-opacity:1;stroke:none;stroke-width:0.12733072;stroke-linecap:round;stroke-linejoin:round;stroke-miterlimit:4;stroke-dasharray:none;stroke-dashoffset:1.08780003;stroke-opacity:1"
         id="rect2129"
         width="15.874727"
         height="9.5248375"
         x="2.6010482"
         y="284.80612"
         rx="0.40478632"
         ry="0.41641638" />
    </g>
    <g
       transform="matrix(1.45455,0,0,1.45455,1.6044483,-141.12503)"
       id="g2165">
      <path
         style="fill:url(#radialGradient2258);fill-opacity:1;stroke:none;stroke-width:0.10533572;stroke-linecap:round;stroke-linejoin:round;stroke-miterlimit:4;stroke-dasharray:none;stroke-dashoffset:1.08780003;stroke-opacity:1"
         d="m 8.4217816,290.62686 h 3.1749454 v 1.58747 l 3.174945,-3.17495 -3.174945,-3.17494 v 1.58747 H 8.4217816 Z"
         id="rect3139-2"
         inkscape:connector-curvature="0"
         sodipodi:nodetypes="cccccccc" />
      <path
         inkscape:connector-curvature="0"
         style="overflow:visible;fill:#020202;fill-opacity:1;stroke:#000000;stroke-width:2;stroke-linecap:round;stroke-linejoin:round;stroke-miterlimit:4;stroke-dasharray:none;stroke-dashoffset:1.08780003;stroke-opacity:1;filter:url(#filter3281)"
         d="m 14.647922,48.329511 c -3.884437,0 -6.999999,3.146813 -6.999999,7.03125 L 7.5247377,120.00249 c 0,3.88444 3.1155623,7 6.9999993,7 l 26.193815,0.0246 c 3.88443,0 7,-3.11556 7,-7 l 0.123185,-64.641749 c 0,-3.884437 -3.07202,-7.750965 -6.95645,-7.750965 z"
         id="path2151"
         sodipodi:nodetypes="ccccccccc"
         transform="matrix(0.18386199,0,0,0.18914456,-0.378875,273.08521)" />
      <path
         inkscape:connector-curvature="0"
         style="overflow:visible;fill:#ffffff;fill-opacity:1;stroke:none;stroke-width:0.12733072;stroke-linecap:round;stroke-linejoin:round;stroke-miterlimit:4;stroke-dasharray:none;stroke-dashoffset:1.08780003;stroke-opacity:1"
         d="m 2.2307311,282.16414 c -0.6744111,0 -1.2180853,0.5593 -1.2180853,1.25309 l -0.00801,12.30669 c 0,0.69379 0.5436742,1.25308 1.2180853,1.25308 l 3.5532726,-2.5e-4 1.4006696,0.004 c 0.674411,0 1.218086,-0.55929 1.218086,-1.25308 l 0.008,-12.30669 c 0,-0.69379 -0.543675,-1.25309 -1.218086,-1.25309 l -0.879512,-0.008 z"
         id="path2153"
         sodipodi:nodetypes="ccccccccccc" />
      <path
         inkscape:connector-curvature="0"
         style="overflow:visible;fill:url(#radialGradient3726);fill-opacity:1;stroke:none;stroke-width:0.12733072;stroke-linecap:round;stroke-linejoin:round;stroke-miterlimit:4;stroke-dasharray:none;stroke-dashoffset:1.08780003;stroke-opacity:1"
         d="m 2.241158,282.35329 c -0.5338974,0 -0.9652753,0.44377 -0.9652753,0.99301 l -0.00801,12.44855 c 0,0.54924 0.4313777,0.99301 0.9652753,0.99301 l 5.0124633,0.004 c 0.533898,0 0.965276,-0.44377 0.965276,-0.99301 l 0.008,-12.44855 c 0,-0.54924 -0.431378,-0.99301 -0.965276,-0.99301 z"
         id="path2155"
         sodipodi:nodetypes="ccccccccc" />
      <rect
         ry="0.41641638"
         rx="0.40478632"
         y="284.27698"
         x="2.0718906"
         height="10.583139"
         width="5.2915759"
         id="rect2163"
         style="overflow:visible;fill:url(#radialGradient2186);fill-opacity:1;stroke:none;stroke-width:0.12733072;stroke-linecap:round;stroke-linejoin:round;stroke-miterlimit:4;stroke-dasharray:none;stroke-dashoffset:1.08780003;stroke-opacity:1" />
      <path
         style="fill:url(#linearGradient3412-3);fill-opacity:1;stroke:none;stroke-width:0.175;stroke-linecap:round;stroke-linejoin:round;stroke-miterlimit:4;stroke-dasharray:none;stroke-dashoffset:1.08780003;stroke-opacity:1"
         clip-path="none"
         d="m 19.679688,34.909897 c -1.232826,-6.4e-5 -2.22461,1.020816 -2.22461,2.289062 V 64 c 2.278358,0.566491 25.093845,1.361399 29.09043,1.449227 v -0.298828 c -0.599139,-0.136753 -0.926593,-0.31598 -0.01367,-0.542969 l 0.01367,-0.273438 V 37.198967 c 0,-1.247578 -0.963136,-2.250668 -2.167968,-2.283203 l -3.650391,-0.0059 -11.636648,5.2e-4 z"
         transform="matrix(0.18190047,0,0,0.18190047,-1.1030548,277.92675)"
         id="path3180-5"
         inkscape:connector-curvature="0"
         sodipodi:nodetypes="sscccccscccs" />
    </g>
  </g>
</svg>
