<?xml version="1.0" encoding="UTF-8" standalone="no"?>
<svg
   xmlns:dc="http://purl.org/dc/elements/1.1/"
   xmlns:cc="http://creativecommons.org/ns#"
   xmlns:rdf="http://www.w3.org/1999/02/22-rdf-syntax-ns#"
   xmlns:svg="http://www.w3.org/2000/svg"
   xmlns="http://www.w3.org/2000/svg"
   xmlns:xlink="http://www.w3.org/1999/xlink"
   xmlns:sodipodi="http://sodipodi.sourceforge.net/DTD/sodipodi-0.dtd"
   xmlns:inkscape="http://www.inkscape.org/namespaces/inkscape"
   enable-background="new 0 0 128 128"
   height="128"
   viewBox="0 0 128 128"
   width="128"
   version="1.1"
   id="svg32"
   sodipodi:docname="lc_deletemasterpage.svg"
   inkscape:export-filename="/home/rizmut/Dokumen/Rizmut/Github/libreoffice-style-karasa-jaga/build/images_karasa_Jaga/cmd/lc_deletemasterpage.png"
   inkscape:export-xdpi="16.5"
   inkscape:export-ydpi="16.5"
   inkscape:version="0.92.3 (unknown)">
  <metadata
     id="metadata38">
    <rdf:RDF>
      <cc:Work
         rdf:about="">
        <dc:format>image/svg+xml</dc:format>
        <dc:type
           rdf:resource="http://purl.org/dc/dcmitype/StillImage" />
        <dc:title></dc:title>
      </cc:Work>
    </rdf:RDF>
  </metadata>
  <defs
     id="defs36">
    <radialGradient
       inkscape:collect="always"
       xlink:href="#linearGradient1752"
       id="radialGradient1754"
       cx="84.903702"
       cy="-130.14005"
       fx="84.903702"
       fy="-130.14005"
       r="57.039597"
       gradientUnits="userSpaceOnUse"
       gradientTransform="matrix(0.04899496,-0.04899496,0.04899496,0.04899496,27.763383,298.48358)" />
    <linearGradient
       inkscape:collect="always"
       id="linearGradient1752">
      <stop
         style="stop-color:#3a0b02;stop-opacity:1"
         offset="0"
         id="stop1748" />
      <stop
         style="stop-color:#a21d07;stop-opacity:0.38235295"
         offset="1"
         id="stop1750" />
    </linearGradient>
    <radialGradient
       inkscape:collect="always"
       xlink:href="#linearGradient1752"
       id="radialGradient1764"
       gradientUnits="userSpaceOnUse"
       cx="2.7207031"
       cy="-66.273438"
       fx="2.7207031"
       fy="-66.273438"
       r="57.039597"
       gradientTransform="matrix(0.04899496,-0.04899496,0.04899496,0.04899496,27.763383,298.48358)" />
    <radialGradient
       inkscape:collect="always"
       xlink:href="#linearGradient1752"
       id="radialGradient1758"
       gradientUnits="userSpaceOnUse"
       cx="51.991096"
       cy="-78.028419"
       fx="51.991096"
       fy="-78.028419"
       r="57.039597"
       gradientTransform="matrix(0.04899496,-0.04899496,0.04899496,0.04899496,27.763383,298.48358)" />
    <linearGradient
       inkscape:collect="always"
       xlink:href="#linearGradient3489"
       id="linearGradient1055"
       gradientUnits="userSpaceOnUse"
       gradientTransform="scale(1.0975951,0.9110828)"
       x1="26.091133"
       y1="14.856744"
       x2="31.500689"
       y2="14.856744" />
    <linearGradient
       id="linearGradient3489">
      <stop
         style="stop-color:#765c44;stop-opacity:1"
         offset="0"
         id="stop3491" />
      <stop
         style="stop-color:#765c44;stop-opacity:0"
         offset="1"
         id="stop3493" />
    </linearGradient>
    <filter
       id="filter3477-3-7"
       height="1.2774813"
       y="-0.13874064"
       width="1.279832"
       x="-0.13991599">
      <feGaussianBlur
         id="feGaussianBlur3479-6-5"
         stdDeviation="0.28784801"
         inkscape:collect="always" />
    </filter>
    <filter
       id="filter3071"
       height="1.2774813"
       y="-0.13874064"
       width="1.279832"
       x="-0.13991599">
      <feGaussianBlur
         id="feGaussianBlur3069"
         stdDeviation="0.28784801"
         inkscape:collect="always" />
    </filter>
    <linearGradient
       x1="304.88663"
       y1="385.86127"
       x2="345.62039"
       y2="384.62384"
       id="linearGradient3298-9"
       xlink:href="#linearGradient3489"
       gradientUnits="userSpaceOnUse" />
    <filter
       id="filter3082"
       height="1.2774813"
       y="-0.13874064"
       width="1.279832"
       x="-0.13991599">
      <feGaussianBlur
         id="feGaussianBlur3080"
         stdDeviation="0.28784801"
         inkscape:collect="always" />
    </filter>
    <linearGradient
       inkscape:collect="always"
       xlink:href="#linearGradient3366"
       id="linearGradient1057"
       gradientUnits="userSpaceOnUse"
       gradientTransform="translate(56.7)"
       x1="31.90625"
       y1="13.510336"
       x2="34.875107"
       y2="13.510336"
       spreadMethod="reflect" />
    <linearGradient
       id="linearGradient3366">
      <stop
         style="stop-color:#ff8787;stop-opacity:1"
         offset="0"
         id="stop3368" />
      <stop
         style="stop-color:#ff8787;stop-opacity:0"
         offset="1"
         id="stop4472" />
    </linearGradient>
    <filter
       id="filter3090"
       height="1.2774813"
       y="-0.13874064"
       width="1.279832"
       x="-0.13991599">
      <feGaussianBlur
         id="feGaussianBlur3088"
         stdDeviation="0.28784801"
         inkscape:collect="always" />
    </filter>
    <linearGradient
       x1="31.90625"
       y1="13.510336"
       x2="34.875107"
       y2="13.510336"
       id="linearGradient3310-2"
       xlink:href="#linearGradient3207"
       gradientUnits="userSpaceOnUse"
       gradientTransform="translate(-0.3)"
       spreadMethod="reflect" />
    <linearGradient
       id="linearGradient3207">
      <stop
         style="stop-color:#ffffff;stop-opacity:1"
         offset="0"
         id="stop3209" />
      <stop
         style="stop-color:#790000;stop-opacity:0"
         offset="1"
         id="stop3211" />
    </linearGradient>
    <filter
       id="filter3098"
       height="1.2774813"
       y="-0.13874064"
       width="1.279832"
       x="-0.13991599">
      <feGaussianBlur
         id="feGaussianBlur3096"
         stdDeviation="0.28784801"
         inkscape:collect="always" />
    </filter>
    <filter
       id="filter3109"
       height="1.2774813"
       y="-0.13874064"
       width="1.279832"
       x="-0.13991599">
      <feGaussianBlur
         id="feGaussianBlur3107"
         stdDeviation="0.28784801"
         inkscape:collect="always" />
    </filter>
    <radialGradient
       inkscape:collect="always"
       xlink:href="#linearGradient1737"
       id="radialGradient1739"
       cx="50.424522"
       cy="-81.945961"
       fx="50.424522"
       fy="-81.945961"
       r="50.15279"
       gradientTransform="matrix(0.04899496,-0.04899496,0.04899496,0.04899496,27.763382,298.48358)"
       gradientUnits="userSpaceOnUse" />
    <linearGradient
       inkscape:collect="always"
       id="linearGradient1737">
      <stop
         style="stop-color:#db3424;stop-opacity:1"
         offset="0"
         id="stop1733" />
      <stop
         style="stop-color:#b32016;stop-opacity:1"
         offset="1"
         id="stop1735" />
    </linearGradient>
    <linearGradient
       inkscape:collect="always"
       xlink:href="#linearGradient1791"
       id="linearGradient1793"
       x1="50.06789"
       y1="-154.40843"
       x2="59.441998"
       y2="-71.617722"
       gradientUnits="userSpaceOnUse"
       gradientTransform="matrix(0.04899496,-0.04899496,0.04899496,0.04899496,27.763383,298.48358)" />
    <linearGradient
       inkscape:collect="always"
       id="linearGradient1791">
      <stop
         style="stop-color:#ffffff;stop-opacity:1"
         offset="0"
         id="stop1787" />
      <stop
         style="stop-color:#fcf3f3;stop-opacity:0;"
         offset="1"
         id="stop1789" />
    </linearGradient>
    <linearGradient
       inkscape:collect="always"
       xlink:href="#linearGradient3489"
       id="linearGradient987"
       gradientUnits="userSpaceOnUse"
       gradientTransform="scale(1.0975951,0.9110828)"
       x1="26.091133"
       y1="14.856744"
       x2="31.500689"
       y2="14.856744" />
    <linearGradient
       inkscape:collect="always"
       xlink:href="#linearGradient3366"
       id="linearGradient989"
       gradientUnits="userSpaceOnUse"
       gradientTransform="translate(56.7)"
       x1="31.90625"
       y1="13.510336"
       x2="34.875107"
       y2="13.510336"
       spreadMethod="reflect" />
  </defs>
  <sodipodi:namedview
     pagecolor="#ffffff"
     bordercolor="#666666"
     borderopacity="1"
     objecttolerance="10"
     gridtolerance="10"
     guidetolerance="10"
     inkscape:pageopacity="0"
     inkscape:pageshadow="2"
     inkscape:window-width="1366"
     inkscape:window-height="699"
     id="namedview34"
     showgrid="false"
     inkscape:zoom="1.84375"
     inkscape:cx="-117.15254"
     inkscape:cy="64"
     inkscape:window-x="0"
     inkscape:window-y="0"
     inkscape:window-maximized="1"
     inkscape:current-layer="svg32" />
  <filter
     id="a">
    <feGaussianBlur
       stdDeviation="1.0394514"
       id="feGaussianBlur2" />
  </filter>
  <filter
     id="b">
    <feGaussianBlur
       stdDeviation=".50063244"
       id="feGaussianBlur5" />
  </filter>
  <g
     id="g856">
    <path
       id="path8"
       transform="matrix(0 1.0090419 -1.003276 0 127.07723 -1.871126)"
       opacity=".306849"
       filter="url(#a)"
       d="m23 9 .04082 113.99347 85.46279.0763c.375-.375.586-.884.586-1.414v-112.65577z" />
    <path
       id="path10"
       transform="matrix(0 1.0090419 -1.003276 0 127.07723 -1.871126)"
       opacity=".306849"
       filter="url(#a)"
       d="m23 9.9655172.04082 113.0279528 85.46279.0763c.375-.375.586-.884.586-1.414v-111.6902328h-86.089606z" />
    <path
       id="path12"
       transform="matrix(0 1.0090419 -1.003276 0 127.07723 -1.871126)"
       opacity=".553425"
       filter="url(#a)"
       d="m23 8.9687825.04082 114.0246875 85.46279.0763c.375-.375.586-.884.586-1.414v-112.6869675h-86.089606z" />
    <path
       id="path14"
       transform="matrix(0 1.0090419 -1.003276 0 127.07723 -1.871126)"
       opacity=".89589"
       filter="url(#b)"
       d="m24.919999 10.931136v109.932054l81.663611-.0578c.375-.375.586-.884.586-1.414v-108.460224h-82.249611z" />
    <path
       id="path16"
       fill="#80b3ff"
       d="m116.11028 23.2742h-110.29218l-.0325 80.42566c.36325.36326.85631.56764 1.36971.56764h108.95499v-80.9933z" />
    <g
       id="g30"
       fill="#eee">
      <path
         id="path20"
         d="m104.87576 28.946304h5.67844v69.743623h-5.67844z" />
      <path
         id="path22"
         d="m11.646499 28.872728h5.8181v69.8172h-5.8181z" />
      <path
         id="path24"
         d="m17.4646 92.871826h87.2715v5.8181h-87.2715z" />
      <path
         id="path26"
         d="m17.4646 28.872728h87.2715v5.8181h-87.2715z" />
      <path
         id="path28"
         d="m17.4543 46.5466h87.2715v5.8181h-87.2715z" />
    </g>
  </g>
  <g
     id="g2227"
     transform="matrix(3.6532616,3.6532616,-3.6532616,3.6532616,996.76519,-1130.5541)">
    <path
       sodipodi:nodetypes="ccccccccccccccccccccc"
       inkscape:connector-curvature="0"
       id="path1727"
       d="m 24.529657,285.13245 c -0.26354,-1e-5 -0.477184,0.21364 -0.477176,0.47718 v 4.22195 h -4.222095 c -0.263541,0 -0.477184,0.21364 -0.477177,0.47718 l 1e-6,1.68933 c -8e-6,0.26354 0.213636,0.47719 0.477176,0.47718 h 4.222095 v 4.22196 c -8e-6,0.26354 0.213636,0.47718 0.477176,0.47717 h 1.689334 c 0.263541,1e-5 0.477184,-0.21363 0.477176,-0.47717 v -4.22196 h 4.22196 c 0.26354,10e-6 0.477184,-0.21364 0.477176,-0.47718 v -1.68933 c 8e-6,-0.26354 -0.213636,-0.47718 -0.477176,-0.47718 h -4.22196 v -4.22195 c 8e-6,-0.26354 -0.213636,-0.47719 -0.477177,-0.47718 z"
       style="opacity:1;fill:url(#radialGradient1754);fill-opacity:1;stroke:none;stroke-width:0.33660761;stroke-linecap:square;stroke-linejoin:bevel;stroke-miterlimit:4;stroke-dasharray:none;stroke-dashoffset:0;stroke-opacity:0.73039216" />
    <path
       sodipodi:nodetypes="ccccccccccccccccccccc"
       style="opacity:1;fill:url(#radialGradient1764);fill-opacity:1;stroke:none;stroke-width:0.33660761;stroke-linecap:square;stroke-linejoin:bevel;stroke-miterlimit:4;stroke-dasharray:none;stroke-dashoffset:0;stroke-opacity:0.73039216"
       d="m 24.529657,285.13245 c -0.26354,-1e-5 -0.477184,0.21364 -0.477176,0.47718 v 4.22195 h -4.222095 c -0.263541,0 -0.477184,0.21364 -0.477177,0.47718 l 1e-6,1.68933 c -8e-6,0.26354 0.213636,0.47719 0.477176,0.47718 h 4.222095 v 4.22196 c -8e-6,0.26354 0.213636,0.47718 0.477176,0.47717 h 1.689334 c 0.263541,1e-5 0.477184,-0.21363 0.477176,-0.47717 v -4.22196 h 4.22196 c 0.26354,10e-6 0.477184,-0.21364 0.477176,-0.47718 v -1.68933 c 8e-6,-0.26354 -0.213636,-0.47718 -0.477176,-0.47718 h -4.22196 v -4.22195 c 8e-6,-0.26354 -0.213636,-0.47719 -0.477177,-0.47718 z"
       id="path1762"
       inkscape:connector-curvature="0" />
    <path
       sodipodi:nodetypes="ccccccccccccccccccccc"
       style="opacity:1;fill:url(#radialGradient1758);fill-opacity:1;stroke:none;stroke-width:0.33660761;stroke-linecap:square;stroke-linejoin:bevel;stroke-miterlimit:4;stroke-dasharray:none;stroke-dashoffset:0;stroke-opacity:0.73039216"
       d="m 24.529657,285.13245 c -0.26354,-1e-5 -0.477184,0.21364 -0.477176,0.47718 v 4.22195 h -4.222095 c -0.263541,0 -0.477184,0.21364 -0.477177,0.47718 l 1e-6,1.68933 c -8e-6,0.26354 0.213636,0.47719 0.477176,0.47718 h 4.222095 v 4.22196 c -8e-6,0.26354 0.213636,0.47718 0.477176,0.47717 h 1.689334 c 0.263541,1e-5 0.477184,-0.21363 0.477176,-0.47717 v -4.22196 h 4.22196 c 0.26354,10e-6 0.477184,-0.21364 0.477176,-0.47718 v -1.68933 c 8e-6,-0.26354 -0.213636,-0.47718 -0.477176,-0.47718 h -4.22196 v -4.22195 c 8e-6,-0.26354 -0.213636,-0.47719 -0.477177,-0.47718 z"
       id="path1756"
       inkscape:connector-curvature="0" />
    <path
       sodipodi:nodetypes="ccccccccccccccccccccc"
       style="opacity:1;fill:#56331f;fill-opacity:0.90588235;stroke:none;stroke-width:0.33660761;stroke-linecap:square;stroke-linejoin:bevel;stroke-miterlimit:4;stroke-dasharray:none;stroke-dashoffset:0;stroke-opacity:0.73039216"
       d="m 24.529657,285.13245 c -0.26354,-1e-5 -0.477184,0.21364 -0.477176,0.47718 v 4.22195 h -4.222095 c -0.263541,0 -0.477184,0.21364 -0.477177,0.47718 l 1e-6,1.68933 c -8e-6,0.26354 0.213636,0.47719 0.477176,0.47718 h 4.222095 v 4.22196 c -8e-6,0.26354 0.213636,0.47718 0.477176,0.47717 h 1.689334 c 0.263541,1e-5 0.477184,-0.21363 0.477176,-0.47717 v -4.22196 h 4.22196 c 0.26354,10e-6 0.477184,-0.21364 0.477176,-0.47718 v -1.68933 c 8e-6,-0.26354 -0.213636,-0.47718 -0.477176,-0.47718 h -4.22196 v -4.22195 c 8e-6,-0.26354 -0.213636,-0.47719 -0.477177,-0.47718 z"
       id="path1760"
       inkscape:connector-curvature="0" />
    <g
       transform="matrix(0.15318092,-0.15318092,0.15318092,0.15318092,42.438615,316.50039)"
       id="g1885">
      <path
         inkscape:connector-curvature="0"
         id="path5159"
         style="opacity:0.49812736;fill:url(#linearGradient987);fill-opacity:1;fill-rule:evenodd;stroke:none;filter:url(#filter3477-3-7)"
         transform="matrix(0,0.67466301,0.68114154,0,-2.844018,-144.69264)"
         d="m 31.7,16 2.875,-3.375 c -1.051205,-1.695758 -3.935136,-2.288018 -5.9375,-0.3125 l 2.8125,3.375 z" />
      <path
         inkscape:connector-curvature="0"
         id="path3485"
         style="opacity:0.79026214;fill:url(#linearGradient1055);fill-opacity:1;fill-rule:evenodd;stroke:none;filter:url(#filter3477-3-7)"
         transform="matrix(-0.67268176,0,0,-0.6662837,63.578597,-108.75124)"
         d="m 31.7,16 2.875,-3.375 c -1.051205,-1.695758 -3.935136,-2.288018 -5.9375,-0.3125 l 2.8125,3.375 z" />
      <path
         inkscape:connector-curvature="0"
         id="path3493"
         style="opacity:0.49812736;fill:url(#linearGradient3298-9);fill-opacity:1;fill-rule:evenodd;stroke:none;filter:url(#filter3477-3-7)"
         transform="matrix(0,0.61094066,-0.61680729,0,56.246448,-142.68513)"
         d="m 31.7,16 2.875,-3.375 c -1.051205,-1.695758 -3.935136,-2.288018 -5.9375,-0.3125 l 2.8125,3.375 z" />
      <path
         inkscape:connector-curvature="0"
         id="path3487"
         style="opacity:0.79026214;fill:url(#linearGradient989);fill-opacity:1;fill-rule:evenodd;stroke:none;filter:url(#filter3477-3-7)"
         transform="matrix(-0.61680729,0,0,-0.61094066,66.288291,-109.27402)"
         d="m 88.7,16 2.875,-3.375 c -1.051205,-1.695758 -3.935136,-2.288018 -5.9375,-0.3125 l 2.8125,3.375 z" />
      <path
         inkscape:connector-curvature="0"
         id="path3403"
         style="opacity:0.79026214;fill:url(#linearGradient3310-2);fill-opacity:1;fill-rule:evenodd;stroke:none;filter:url(#filter3477-3-7)"
         transform="matrix(-0.56093282,0,0,0.55559763,60.058068,-167.02188)"
         d="m 31.7,16 2.875,-3.375 c -1.051205,-1.695758 -3.935136,-2.288018 -5.9375,-0.3125 l 2.8125,3.375 z" />
      <path
         inkscape:connector-curvature="0"
         id="path3481"
         style="opacity:0.79026214;fill:url(#linearGradient1057);fill-opacity:1;fill-rule:evenodd;stroke:none;filter:url(#filter3477-3-7)"
         transform="matrix(-0.57588504,0,0,0.57040764,62.66651,-167.16178)"
         d="m 88.7,16 2.875,-3.375 c -1.051205,-1.695758 -3.935136,-2.288018 -5.9375,-0.3125 l 2.8125,3.375 z" />
    </g>
    <path
       sodipodi:nodetypes="ccccccccccccc"
       inkscape:connector-curvature="0"
       id="rect1722"
       d="m 24.529657,285.60963 v 4.69913 h -4.699271 v 1.68933 h 4.699271 v 4.69914 h 1.689334 v -4.69914 h 4.699136 v -1.68933 h -4.699136 l -10e-7,-4.69913 z"
       style="opacity:1;fill:url(#radialGradient1739);fill-opacity:1;stroke:none;stroke-width:0.33660761;stroke-linecap:square;stroke-linejoin:bevel;stroke-miterlimit:4;stroke-dasharray:none;stroke-dashoffset:0;stroke-opacity:0.73039216" />
    <path
       sodipodi:nodetypes="cccccccccccccccccccccccccccccc"
       id="path1741"
       d="m 19.8304,290.30869 -1e-6,1.68937 h 4.699316 l -6.9e-5,4.69922 h 1.68937 v -4.69912 h 4.699124 v -1.68937 h -4.699124 l -1e-6,-4.69912 h -1.689368 v 4.69912 z m 0.12,0.12 4.57922,10e-5 c 0.06628,1e-5 0.120006,-0.0537 0.119999,-0.12 v -4.57912 h 1.44937 v 4.57912 c -6e-6,0.0663 0.05372,0.12001 0.12,0.12 h 4.579124 v 1.44937 h -4.579124 c -0.06628,-10e-6 -0.120006,0.0537 -0.12,0.12 v 4.57912 h -1.44937 l 6.9e-5,-4.57921 c 6e-6,-0.0663 -0.05372,-0.12001 -0.12,-0.12 h -4.579315 z"
       style="opacity:1;fill:#f4caca;fill-opacity:0.77941165;stroke:none;stroke-width:0.33660761;stroke-linecap:square;stroke-linejoin:bevel;stroke-miterlimit:4;stroke-dasharray:none;stroke-dashoffset:0;stroke-opacity:0.73039216"
       inkscape:connector-curvature="0" />
    <path
       sodipodi:nodetypes="cccccccccc"
       inkscape:connector-curvature="0"
       id="path1766"
       d="m 19.8304,290.30869 -1e-6,1.68937 h 4.699316 v 0.96754 c 0.63875,-0.89522 1.64386,-2.06887 1.87767,-2.65634 l -0.188396,-4.7e-4 -1e-6,-4.69912 H 24.52962 v 4.69912 z"
       style="fill:url(#linearGradient1793);fill-opacity:1;fill-rule:evenodd;stroke:none;stroke-width:0.06928934px;stroke-linecap:butt;stroke-linejoin:miter;stroke-opacity:1" />
  </g>
</svg>
