<svg height="128" viewBox="0 0 128 128" width="128" xmlns="http://www.w3.org/2000/svg" xmlns:xlink="http://www.w3.org/1999/xlink"><radialGradient id="a" cx="8" cy="8.201889" gradientTransform="matrix(2.5700832 0 0 2.5608174 -7.684727 916.13697)" gradientUnits="userSpaceOnUse" r="56"><stop offset=".0765" stop-color="#f3c300"/><stop offset=".1887" stop-color="#f7d21f"/><stop offset=".3467" stop-color="#fde446"/><stop offset=".4294" stop-color="#ffeb55"/><stop offset=".6882" stop-color="#ffeb55"/><stop offset=".7281" stop-color="#fee951"/><stop offset=".7641" stop-color="#fde446"/><stop offset=".7987" stop-color="#fadb34"/><stop offset=".8322" stop-color="#f7cf1a"/><stop offset=".8588" stop-color="#f3c300"/><stop offset=".9208" stop-color="#fbd400"/><stop offset=".9706" stop-color="#fd0"/></radialGradient><linearGradient id="b" gradientUnits="userSpaceOnUse" x1="69.9087669366" x2="98.52056150516" y1="930.15858845732" y2="975.93744654002"><stop offset="0" stop-color="#fff" stop-opacity=".462094"/><stop offset=".5" stop-color="#fff"/><stop offset="1" stop-color="#fff" stop-opacity=".350181"/></linearGradient><filter id="c" color-interpolation-filters="sRGB" height="1.095956" width="1.096044" x="-.048022" y="-.047978"><feGaussianBlur stdDeviation="2.0935631"/></filter><linearGradient id="d" gradientUnits="userSpaceOnUse" x1="304.88663" x2="345.62039" xlink:href="#e" y1="385.86127" y2="384.62384"/><linearGradient id="e"><stop offset="0" stop-color="#765c44"/><stop offset="1" stop-color="#765c44" stop-opacity="0"/></linearGradient><linearGradient id="f" gradientUnits="userSpaceOnUse" spreadMethod="reflect" x1="31.60625" x2="34.575107" y1="13.510336" y2="13.510336"><stop offset="0" stop-color="#fff"/><stop offset="1" stop-color="#790000" stop-opacity="0"/></linearGradient><radialGradient id="g" cx="84.903702" cy="-130.14005" gradientTransform="matrix(.04899496 -.04899496 .04899496 .04899496 27.763383 298.48358)" gradientUnits="userSpaceOnUse" r="57.039597" xlink:href="#h"/><linearGradient id="h"><stop offset="0" stop-color="#3a0b02"/><stop offset="1" stop-color="#a21d07" stop-opacity=".382353"/></linearGradient><radialGradient id="i" cx="2.720703" cy="-66.273438" gradientTransform="matrix(.04899496 -.04899496 .04899496 .04899496 27.763383 298.48358)" gradientUnits="userSpaceOnUse" r="57.039597" xlink:href="#h"/><radialGradient id="j" cx="51.991096" cy="-78.028419" gradientTransform="matrix(.04899496 -.04899496 .04899496 .04899496 27.763383 298.48358)" gradientUnits="userSpaceOnUse" r="57.039597" xlink:href="#h"/><linearGradient id="k" gradientTransform="scale(1.0975951 .9110828)" gradientUnits="userSpaceOnUse" x1="26.091133" x2="31.500689" xlink:href="#e" y1="14.856744" y2="14.856744"/><filter id="l" height="1.277481" width="1.279832" x="-.139916" y="-.138741"><feGaussianBlur stdDeviation=".28784801"/></filter><linearGradient id="m" gradientUnits="userSpaceOnUse" spreadMethod="reflect" x1="88.60625" x2="91.575107" y1="13.510336" y2="13.510336"><stop offset="0" stop-color="#ff8787"/><stop offset="1" stop-color="#ff8787" stop-opacity="0"/></linearGradient><radialGradient id="n" cx="50.424522" cy="-81.945961" gradientTransform="matrix(.04899496 -.04899496 .04899496 .04899496 27.763382 298.48358)" gradientUnits="userSpaceOnUse" r="50.15279"><stop offset="0" stop-color="#db3424"/><stop offset="1" stop-color="#b32016"/></radialGradient><linearGradient id="o" gradientTransform="matrix(.04899496 -.04899496 .04899496 .04899496 27.763383 298.48358)" gradientUnits="userSpaceOnUse" x1="50.06789" x2="59.441998" y1="-154.40843" y2="-71.617722"><stop offset="0" stop-color="#fff"/><stop offset="1" stop-color="#fcf3f3" stop-opacity="0"/></linearGradient><g transform="translate(0 -924.36216)"><g fill="none" stroke-linecap="round" stroke-linejoin="round"><path d="m11.689634 935.95837h104.83294v104.85813h-104.83294z" opacity=".15" stroke="#787878" stroke-width="15"/><path d="m11.731468 936.00018h104.63053v104.72578h-104.63053z" filter="url(#c)" opacity=".534" stroke="#737373" stroke-width="8"/><path d="m11.6362 936.00018h104.7258v104.72579h-104.7258z" stroke="#e3ad00" stroke-width="5"/></g><path d="m11.6362 936.00018h104.7258v104.72578h-104.7258z" fill="#fff"/><path d="m14.625873 938.80127h98.851364v98.991356h-98.851364z" fill="url(#a)"/><path d="m11.6362 936.00018h104.7258v23.272377h-104.7258z" fill="url(#b)"/><path d="m62.255927 1018.1989v-2.6404z" fill="#fff" fill-opacity=".756881"/><path d="m103.14946 932.62119v-2.6404z" fill="#fff" fill-opacity=".756881"/><g transform="matrix(3.6532616 3.6532616 -3.6532616 3.6532616 1073.1565 -206.19193)"><path d="m24.529657 285.13245c-.26354-.00001-.477184.21364-.477176.47718v4.22195h-4.222095c-.263541 0-.477184.21364-.477177.47718l.000001 1.68933c-.000008.26354.213636.47719.477176.47718h4.222095v4.22196c-.000008.26354.213636.47718.477176.47717h1.689334c.263541.00001.477184-.21363.477176-.47717v-4.22196h4.22196c.26354.00001.477184-.21364.477176-.47718v-1.68933c.000008-.26354-.213636-.47718-.477176-.47718h-4.22196v-4.22195c.000008-.26354-.213636-.47719-.477177-.47718z" fill="url(#g)"/><path d="m24.529657 285.13245c-.26354-.00001-.477184.21364-.477176.47718v4.22195h-4.222095c-.263541 0-.477184.21364-.477177.47718l.000001 1.68933c-.000008.26354.213636.47719.477176.47718h4.222095v4.22196c-.000008.26354.213636.47718.477176.47717h1.689334c.263541.00001.477184-.21363.477176-.47717v-4.22196h4.22196c.26354.00001.477184-.21364.477176-.47718v-1.68933c.000008-.26354-.213636-.47718-.477176-.47718h-4.22196v-4.22195c.000008-.26354-.213636-.47719-.477177-.47718z" fill="url(#i)"/><path d="m24.529657 285.13245c-.26354-.00001-.477184.21364-.477176.47718v4.22195h-4.222095c-.263541 0-.477184.21364-.477177.47718l.000001 1.68933c-.000008.26354.213636.47719.477176.47718h4.222095v4.22196c-.000008.26354.213636.47718.477176.47717h1.689334c.263541.00001.477184-.21363.477176-.47717v-4.22196h4.22196c.26354.00001.477184-.21364.477176-.47718v-1.68933c.000008-.26354-.213636-.47718-.477176-.47718h-4.22196v-4.22195c.000008-.26354-.213636-.47719-.477177-.47718z" fill="url(#j)"/><path d="m24.529657 285.13245c-.26354-.00001-.477184.21364-.477176.47718v4.22195h-4.222095c-.263541 0-.477184.21364-.477177.47718l.000001 1.68933c-.000008.26354.213636.47719.477176.47718h4.222095v4.22196c-.000008.26354.213636.47718.477176.47717h1.689334c.263541.00001.477184-.21363.477176-.47717v-4.22196h4.22196c.26354.00001.477184-.21364.477176-.47718v-1.68933c.000008-.26354-.213636-.47718-.477176-.47718h-4.22196v-4.22195c.000008-.26354-.213636-.47719-.477177-.47718z" fill="#56331f" fill-opacity=".905882"/><g fill-rule="evenodd"><path d="m31.7 16 2.875-3.375c-1.051205-1.695758-3.935136-2.288018-5.9375-.3125l2.8125 3.375z" fill="url(#k)" filter="url(#l)" opacity=".498127" transform="matrix(.10334550056 .10334550056 .10433788775 -.10433788775 19.83881399383 294.77188758131)"/><path d="m31.7 16 2.875-3.375c-1.051205-1.695758-3.935136-2.288018-5.9375-.3125l2.8125 3.375z" fill="url(#k)" filter="url(#l)" opacity=".790262" transform="matrix(-.10304201086 .10304201086 -.10206195015 -.10206195015 35.51902798643 290.10274702489)"/><path d="m31.7 16 2.875-3.375c-1.051205-1.695758-3.935136-2.288018-5.9375-.3125l2.8125 3.375z" fill="url(#d)" filter="url(#l)" opacity=".498127" transform="matrix(.09358445236 .09358445236 -.09448310814 .09448310814 29.19785816765 286.02786786491)"/><path d="m88.7 16 2.875-3.375c-1.051205-1.695758-3.935136-2.288018-5.9375-.3125l2.8125 3.375z" fill="url(#m)" filter="url(#l)" opacity=".790262" transform="matrix(-.09448310814 .09448310814 -.09358445236 -.09358445236 35.85402148491 289.60759368369)"/><path d="m31.7 16 2.875-3.375c-1.051205-1.695758-3.935136-2.288018-5.9375-.3125l2.8125 3.375z" fill="url(#f)" filter="url(#l)" opacity=".790262" transform="matrix(-.08592420543 .08592420543 .08510695611 .08510695611 26.05379987113 281.71607465181)"/><path d="m88.7 16 2.875-3.375c-1.051205-1.695758-3.935136-2.288018-5.9375-.3125l2.8125 3.375z" fill="url(#m)" filter="url(#l)" opacity=".790262" transform="matrix(-.08821460024 .08821460024 .08737556707 .08737556707 26.43193340575 281.29508109577)"/></g><path d="m24.529657 285.60963v4.69913h-4.699271v1.68933h4.699271v4.69914h1.689334v-4.69914h4.699136v-1.68933h-4.699136l-.000001-4.69913z" fill="url(#n)"/><path d="m19.8304 290.30869-.000001 1.68937h4.699316l-.000069 4.69922h1.68937v-4.69912h4.699124v-1.68937h-4.699124l-.000001-4.69912h-1.689368v4.69912zm.12.12 4.57922.0001c.06628.00001.120006-.0537.119999-.12v-4.57912h1.44937v4.57912c-.000006.0663.05372.12001.12.12h4.579124v1.44937h-4.579124c-.06628-.00001-.120006.0537-.12.12v4.57912h-1.44937l.000069-4.57921c.000006-.0663-.05372-.12001-.12-.12h-4.579315z" fill="#f4caca" fill-opacity=".779412"/><path d="m19.8304 290.30869-.000001 1.68937h4.699316v.96754c.63875-.89522 1.64386-2.06887 1.87767-2.65634l-.188396-.00047-.000001-4.69912h-1.689368v4.69912z" fill="url(#o)" fill-rule="evenodd"/></g></g></svg>