<?xml version="1.0" encoding="UTF-8" standalone="no"?>
<!-- Created with Inkscape (http://www.inkscape.org/) -->

<svg
   xmlns:dc="http://purl.org/dc/elements/1.1/"
   xmlns:cc="http://creativecommons.org/ns#"
   xmlns:rdf="http://www.w3.org/1999/02/22-rdf-syntax-ns#"
   xmlns:svg="http://www.w3.org/2000/svg"
   xmlns="http://www.w3.org/2000/svg"
   xmlns:xlink="http://www.w3.org/1999/xlink"
   xmlns:sodipodi="http://sodipodi.sourceforge.net/DTD/sodipodi-0.dtd"
   xmlns:inkscape="http://www.inkscape.org/namespaces/inkscape"
   width="128"
   height="128"
   id="svg37105"
   sodipodi:version="0.32"
   inkscape:version="0.92.3 (unknown)"
   version="1.0"
   sodipodi:docname="lc_dbnewquerysql.svg"
   inkscape:output_extension="org.inkscape.output.svgz.inkscape"
   inkscape:export-filename="/home/rizmut/Dokumen/Rizmut/Github/libreoffice-style-karasa-jaga/build/images_karasa_jaga/cmd/lc_dbnewquerysql.png"
   inkscape:export-xdpi="16.5"
   inkscape:export-ydpi="16.5">
  <defs
     id="defs37107">
    <linearGradient
       inkscape:collect="always"
       id="linearGradient3416">
      <stop
         style="stop-color:#000000;stop-opacity:1;"
         offset="0"
         id="stop3418" />
      <stop
         style="stop-color:#000000;stop-opacity:0;"
         offset="1"
         id="stop3420" />
    </linearGradient>
    <linearGradient
       id="linearGradient4091">
      <stop
         id="stop4093"
         offset="0"
         style="stop-color:#ffffff;stop-opacity:1;" />
      <stop
         id="stop4095"
         offset="1"
         style="stop-color:#ffffff;stop-opacity:0;" />
    </linearGradient>
    <linearGradient
       id="linearGradient3714">
      <stop
         style="stop-color:#222222;stop-opacity:1;"
         offset="0"
         id="stop3716" />
      <stop
         style="stop-color:#000000;stop-opacity:0;"
         offset="1"
         id="stop3718" />
    </linearGradient>
    <linearGradient
       inkscape:collect="always"
       id="linearGradient3452">
      <stop
         style="stop-color:#ffffff;stop-opacity:1;"
         offset="0"
         id="stop3454" />
      <stop
         style="stop-color:#ffffff;stop-opacity:0;"
         offset="1"
         id="stop3456" />
    </linearGradient>
    <linearGradient
       id="linearGradient3285">
      <stop
         style="stop-color:#000000;stop-opacity:1;"
         offset="0"
         id="stop3287" />
      <stop
         style="stop-color:#474747;stop-opacity:0;"
         offset="1"
         id="stop3289" />
    </linearGradient>
    <linearGradient
       id="linearGradient3220">
      <stop
         style="stop-color:#ffffff;stop-opacity:1;"
         offset="0"
         id="stop3222" />
      <stop
         style="stop-color:#ffffff;stop-opacity:0;"
         offset="1"
         id="stop3224" />
    </linearGradient>
    <linearGradient
       id="linearGradient3184">
      <stop
         style="stop-color:#fcfcfc;stop-opacity:1;"
         offset="0"
         id="stop3186" />
      <stop
         style="stop-color:#c0c0c0;stop-opacity:1;"
         offset="1"
         id="stop3188" />
    </linearGradient>
    <linearGradient
       id="linearGradient3152">
      <stop
         style="stop-color:#ffffff;stop-opacity:1;"
         offset="0"
         id="stop3154" />
      <stop
         id="stop3678"
         offset="0.13883302"
         style="stop-color:#bcbcbc;stop-opacity:1;" />
      <stop
         id="stop3166"
         offset="0.27766603"
         style="stop-color:#8f8f8f;stop-opacity:1;" />
      <stop
         id="stop3160"
         offset="0.34831479"
         style="stop-color:#f2f2f2;stop-opacity:1;" />
      <stop
         style="stop-color:#bbbbbb;stop-opacity:1;"
         offset="0.51983202"
         id="stop3505" />
      <stop
         style="stop-color:#3f3f3f;stop-opacity:1;"
         offset="0.69134921"
         id="stop3162" />
      <stop
         id="stop3164"
         offset="0.71995538"
         style="stop-color:#8f8f8f;stop-opacity:1;" />
      <stop
         style="stop-color:#a4a4a4;stop-opacity:1;"
         offset="0.82474411"
         id="stop3182" />
      <stop
         style="stop-color:#5e5e5e;stop-opacity:1;"
         offset="0.91127253"
         id="stop3178" />
      <stop
         style="stop-color:#acacac;stop-opacity:1;"
         offset="1"
         id="stop3156" />
    </linearGradient>
    <filter
       inkscape:collect="always"
       id="filter3480">
      <feGaussianBlur
         inkscape:collect="always"
         stdDeviation="4.7167893"
         id="feGaussianBlur3482" />
    </filter>
    <filter
       inkscape:collect="always"
       id="filter3514">
      <feGaussianBlur
         inkscape:collect="always"
         stdDeviation="4.19576"
         id="feGaussianBlur3516" />
    </filter>
    <filter
       inkscape:collect="always"
       id="filter3519">
      <feGaussianBlur
         inkscape:collect="always"
         stdDeviation="1.6009629"
         id="feGaussianBlur3521" />
    </filter>
    <filter
       inkscape:collect="always"
       id="filter3412">
      <feGaussianBlur
         inkscape:collect="always"
         stdDeviation="0.46407361"
         id="feGaussianBlur3414" />
    </filter>
    <filter
       inkscape:collect="always"
       id="filter4480">
      <feGaussianBlur
         inkscape:collect="always"
         stdDeviation="6.421369"
         id="feGaussianBlur4482" />
    </filter>
    <linearGradient
       inkscape:collect="always"
       xlink:href="#linearGradient3416"
       id="linearGradient4842"
       gradientUnits="userSpaceOnUse"
       x1="99.465668"
       y1="120.62987"
       x2="99.465668"
       y2="90.83989" />
    <radialGradient
       inkscape:collect="always"
       xlink:href="#linearGradient4091"
       id="radialGradient4997"
       gradientUnits="userSpaceOnUse"
       gradientTransform="matrix(0.3791376,-5.9960615e-3,-6.7153707e-8,0.2162218,-295.92749,-82.282556)"
       cx="949.33209"
       cy="517.87024"
       fx="941.93115"
       fy="440.16125"
       r="119.39729" />
    <radialGradient
       inkscape:collect="always"
       xlink:href="#linearGradient3152"
       id="radialGradient5000"
       gradientUnits="userSpaceOnUse"
       gradientTransform="matrix(0.2216259,0,0,0.1778449,-136.00416,-61.563674)"
       cx="902.44019"
       cy="573.33636"
       fx="902.44019"
       fy="777.67505"
       r="252.67185" />
    <linearGradient
       inkscape:collect="always"
       xlink:href="#linearGradient3714"
       id="linearGradient5045"
       gradientUnits="userSpaceOnUse"
       gradientTransform="matrix(2.0346473,0,0,2.0346473,-136.84824,-131.61855)"
       x1="90"
       y1="84"
       x2="90"
       y2="76" />
    <linearGradient
       inkscape:collect="always"
       xlink:href="#linearGradient3285"
       id="linearGradient5047"
       gradientUnits="userSpaceOnUse"
       x1="1228.4824"
       y1="349.26135"
       x2="1228.4824"
       y2="687.31006" />
    <radialGradient
       inkscape:collect="always"
       xlink:href="#linearGradient3452"
       id="radialGradient5049"
       gradientUnits="userSpaceOnUse"
       gradientTransform="matrix(1.4615497,0,0,0.7922186,-1517.0981,316.29645)"
       cx="1302.5156"
       cy="396.677"
       fx="1302.5156"
       fy="396.677"
       r="252.67185" />
    <linearGradient
       inkscape:collect="always"
       xlink:href="#linearGradient3184"
       id="linearGradient5051"
       gradientUnits="userSpaceOnUse"
       spreadMethod="reflect"
       x1="341.5318"
       y1="528.58008"
       x2="341.5318"
       y2="700.07751" />
    <linearGradient
       inkscape:collect="always"
       xlink:href="#linearGradient3184"
       id="linearGradient5071"
       gradientUnits="userSpaceOnUse"
       spreadMethod="reflect"
       x1="341.5318"
       y1="528.58008"
       x2="341.5318"
       y2="700.07751" />
    <radialGradient
       inkscape:collect="always"
       xlink:href="#linearGradient3152"
       id="radialGradient5073"
       gradientUnits="userSpaceOnUse"
       gradientTransform="matrix(1.0000001,0,0,0.7898656,-515.84706,106.14197)"
       cx="902.44019"
       cy="573.33636"
       fx="902.44019"
       fy="777.67505"
       r="252.67185" />
    <radialGradient
       inkscape:collect="always"
       xlink:href="#linearGradient3220"
       id="radialGradient5075"
       gradientUnits="userSpaceOnUse"
       gradientTransform="matrix(1.7097296,6.4528328e-2,-5.2167868e-2,0.9870304,-1209.4918,-86.255073)"
       cx="949.33209"
       cy="517.87024"
       fx="941.93115"
       fy="440.16125"
       r="119.39729" />
    <radialGradient
       inkscape:collect="always"
       xlink:href="#linearGradient3452"
       id="radialGradient5077"
       gradientUnits="userSpaceOnUse"
       gradientTransform="matrix(1.4615497,0,0,0.7922186,-1517.0981,316.29645)"
       cx="1302.5156"
       cy="396.677"
       fx="1302.5156"
       fy="396.677"
       r="252.67185" />
    <linearGradient
       inkscape:collect="always"
       xlink:href="#linearGradient3285"
       id="linearGradient5079"
       gradientUnits="userSpaceOnUse"
       x1="1228.4824"
       y1="349.26135"
       x2="1228.4824"
       y2="687.31006" />
    <linearGradient
       inkscape:collect="always"
       xlink:href="#linearGradient3184"
       id="linearGradient5097"
       gradientUnits="userSpaceOnUse"
       spreadMethod="reflect"
       x1="341.5318"
       y1="528.58008"
       x2="341.5318"
       y2="700.07751" />
    <radialGradient
       inkscape:collect="always"
       xlink:href="#linearGradient3152"
       id="radialGradient5099"
       gradientUnits="userSpaceOnUse"
       gradientTransform="matrix(1.0000001,0,0,0.7898656,-515.84706,106.14197)"
       cx="902.44019"
       cy="573.33636"
       fx="902.44019"
       fy="777.67505"
       r="252.67185" />
    <radialGradient
       inkscape:collect="always"
       xlink:href="#linearGradient3220"
       id="radialGradient5101"
       gradientUnits="userSpaceOnUse"
       gradientTransform="matrix(1.7097296,6.4528328e-2,-5.2167868e-2,0.9870304,-1209.4918,-86.255073)"
       cx="949.33209"
       cy="517.87024"
       fx="941.93115"
       fy="440.16125"
       r="119.39729" />
    <radialGradient
       inkscape:collect="always"
       xlink:href="#linearGradient3452"
       id="radialGradient5103"
       gradientUnits="userSpaceOnUse"
       gradientTransform="matrix(1.4615497,0,0,0.7922186,-1517.0981,316.29645)"
       cx="1302.5156"
       cy="396.677"
       fx="1302.5156"
       fy="396.677"
       r="252.67185" />
    <linearGradient
       inkscape:collect="always"
       xlink:href="#linearGradient3285"
       id="linearGradient5105"
       gradientUnits="userSpaceOnUse"
       x1="1228.4824"
       y1="349.26135"
       x2="1228.4824"
       y2="687.31006" />
    <filter
       style="color-interpolation-filters:sRGB"
       id="j"
       height="1.072142"
       width="1.071866"
       x="-0.035932999"
       y="-0.036070999">
      <feGaussianBlur
         stdDeviation=".66434216"
         id="feGaussianBlur1290" />
    </filter>
    <radialGradient
       id="k"
       cx="-55.685837"
       cy="-347.11612"
       gradientTransform="matrix(-0.89528211,-0.23989009,0.26001404,-0.9703857,-29.034684,-654.02683)"
       gradientUnits="userSpaceOnUse"
       r="22.14249">
      <stop
         offset="0"
         stop-color="#82c133"
         id="stop1293" />
      <stop
         offset="1"
         stop-color="#72b028"
         id="stop1295" />
    </radialGradient>
    <linearGradient
       id="l"
       gradientUnits="userSpaceOnUse"
       x1="328.12448"
       x2="336.98077"
       y1="120.81158"
       y2="87.759453">
      <stop
         offset="0"
         stop-color="#96ff00"
         id="stop1298" />
      <stop
         offset="1"
         stop-color="#609800"
         id="stop1300" />
    </linearGradient>
    <clipPath
       id="m">
      <circle
         cx="343.91208"
         cy="92.325096"
         r="36"
         transform="matrix(0.86602539,0.50000002,0.49999965,-0.86602561,0,0)"
         id="circle1303" />
    </clipPath>
    <filter
       id="n">
      <feGaussianBlur
         stdDeviation="2.8805897"
         id="feGaussianBlur1306" />
    </filter>
    <radialGradient
       id="o"
       cx="343.99899"
       cy="92"
       gradientTransform="matrix(0.47032074,0,0,0.4703204,-235.54627,-330.99181)"
       gradientUnits="userSpaceOnUse"
       r="36">
      <stop
         offset="0"
         stop-color="#e5ff00"
         id="stop1309" />
      <stop
         offset="1"
         stop-color="#bff500"
         stop-opacity="0"
         id="stop1311" />
    </radialGradient>
    <linearGradient
       id="p"
       gradientUnits="userSpaceOnUse"
       x1="122.00004"
       x2="122.00004"
       y1="61.999996"
       y2="9.9328432">
      <stop
         offset="0"
         stop-color="#004d00"
         stop-opacity="0"
         id="stop1314" />
      <stop
         offset=".5"
         stop-color="#004d00"
         id="stop1316" />
      <stop
         offset="1"
         stop-color="#004d00"
         stop-opacity="0"
         id="stop1318" />
    </linearGradient>
    <filter
       id="q">
      <feGaussianBlur
         stdDeviation="1.04"
         id="feGaussianBlur1321" />
    </filter>
    <linearGradient
       id="r"
       gradientTransform="matrix(0,0.47393418,-0.47393451,0,83.152635,278.87871)"
       gradientUnits="userSpaceOnUse"
       x1="-80.00296"
       x2="-45.096584"
       y1="-131.93112"
       y2="-131.93112">
      <stop
         offset="0"
         stop-color="#fff"
         id="stop1324" />
      <stop
         offset="1"
         stop-color="#fff"
         stop-opacity="0"
         id="stop1326" />
    </linearGradient>
  </defs>
  <sodipodi:namedview
     id="base"
     pagecolor="#ffffff"
     bordercolor="#666666"
     borderopacity="1.0"
     inkscape:pageopacity="0.0"
     inkscape:pageshadow="2"
     inkscape:zoom="2.8284272"
     inkscape:cx="71.331589"
     inkscape:cy="43.96079"
     inkscape:document-units="px"
     inkscape:current-layer="layer1"
     height="128px"
     width="128px"
     inkscape:window-width="1366"
     inkscape:window-height="706"
     inkscape:window-x="0"
     inkscape:window-y="0"
     showgrid="true"
     objecttolerance="5"
     gridtolerance="6"
     guidetolerance="6"
     showguides="true"
     inkscape:guide-bbox="true"
     inkscape:window-maximized="1">
    <inkscape:grid
       id="GridFromPre046Settings"
       type="xygrid"
       originx="0"
       originy="0"
       spacingx="5.8181"
       spacingy="5.8181"
       color="#0000ff"
       empcolor="#0000ff"
       opacity="0.2"
       empopacity="0.4"
       empspacing="5"
       visible="true"
       enabled="true" />
    <sodipodi:guide
       orientation="1,0"
       position="249.25514,129.75409"
       id="guide3839"
       inkscape:locked="false" />
    <sodipodi:guide
       orientation="0,1"
       position="226,155"
       id="guide3460"
       inkscape:locked="false" />
    <sodipodi:guide
       orientation="0,1"
       position="45.166446,40.835417"
       id="guide5173"
       inkscape:locked="false" />
    <sodipodi:guide
       orientation="0,1"
       position="-7.4246213,23.334524"
       id="guide5175"
       inkscape:locked="false" />
  </sodipodi:namedview>
  <metadata
     id="metadata37110">
    <rdf:RDF>
      <cc:Work
         rdf:about="">
        <dc:format>image/svg+xml</dc:format>
        <dc:type
           rdf:resource="http://purl.org/dc/dcmitype/StillImage" />
        <dc:title />
      </cc:Work>
    </rdf:RDF>
  </metadata>
  <g
     inkscape:label="Livello 1"
     inkscape:groupmode="layer"
     id="layer1">
    <g
       id="g982">
      <path
         sodipodi:nodetypes="csssc"
         id="path3424"
         d="M 594.20979,637.24835 C 594.20979,941.1128 594.21059,912.55116 197.14437,912.55116 C 88.295625,912.55116 88.853806,834.67071 88.853806,637.24835 C 88.853806,583.18963 202.05355,524.21462 341.5318,524.21462 C 481.01005,524.21462 594.20979,581.62159 594.20979,637.24835 z"
         style="fill:#000000;fill-opacity:1;stroke:none;stroke-width:1.125;stroke-linecap:round;stroke-linejoin:round;stroke-miterlimit:4;stroke-dashoffset:1.08779998;stroke-opacity:1;filter:url(#filter4480)"
         transform="matrix(0.2308868,0,0,0.2254747,-15.015146,-112.19714)" />
      <g
         transform="matrix(0.6433923,0,0,0.6433923,122.76455,84.170545)"
         style="display:inline"
         inkscape:label="box"
         id="layer4" />
      <g
         transform="matrix(0.6433923,0,0,0.6433923,122.76455,84.170545)"
         style="display:inline"
         inkscape:label="zip_app"
         id="layer5" />
      <rect
         y="94.546997"
         x="123.35661"
         height="0"
         width="0.64339232"
         id="rect1327"
         style="opacity:0.57786889;fill:#ffffff;fill-opacity:1;fill-rule:nonzero;stroke:none;stroke-width:3.63199997;stroke-linecap:round;stroke-linejoin:round;stroke-miterlimit:4;stroke-dasharray:none;stroke-dashoffset:4;stroke-opacity:1" />
      <path
         inkscape:connector-curvature="0"
         sodipodi:nodetypes="csssccsccscsssccsccscsssccsccscsssccsccsssccssscsccssscsccssscsccsssc"
         transform="matrix(1.6509734,0,0,1.5910501,-72.016668,-91.24764)"
         id="path2560"
         d="m 82.30409,50.818968 c -19.50589,0 -34.606025,7.274788 -34.606015,17.027734 0,0.03149 -3.3e-4,0.0623 0,0.09375 -9e-4,0.02034 7.4e-4,0.04214 0,0.0625 7e-4,0.04154 -0.0013,0.08353 0,0.125 v 0.09375 c -1.7e-4,0.02045 0,0.04203 0,0.0625 0,0.30478 7e-4,0.605244 0.03125,0.90625 l -0.09068,5.5 c -0.07319,0.464007 -0.125,0.932891 -0.125,1.40625 0,0.463152 0.0549,0.920786 0.125,1.375 -0.0701,0.454214 -0.125,0.911848 -0.125,1.375 0,0.03149 -3.3e-4,0.0623 0,0.09375 -8.7e-4,0.02096 7e-4,0.04152 0,0.0625 7.3e-4,0.04301 -0.0013,0.08207 0,0.125 v 0.0625 c -1.8e-4,0.02107 0,0.04141 0,0.0625 0,0.30478 7e-4,0.605244 0.03125,0.90625 l -0.09068,5.53125 c -0.07319,0.464007 -0.125,0.932891 -0.125,1.40625 0,0.458111 0.0564,0.894377 0.125,1.34375 -0.0701,0.454214 -0.125,0.911848 -0.125,1.375 0,0.03149 -3.3e-4,0.0623 0,0.09375 -9e-4,0.02034 7.4e-4,0.04214 0,0.0625 7e-4,0.04154 -0.0013,0.08353 0,0.125 v 0.09375 c -1.7e-4,0.02045 0,0.04203 0,0.0625 0,0.30478 7e-4,0.605243 0.03125,0.90625 l -0.09068,5.5 c -0.07319,0.464007 -0.125,0.932891 -0.125,1.40625 0,0.367777 0.01813,0.731525 0.0625,1.09375 -0.04437,0.362225 -0.0625,0.725973 -0.0625,1.093748 0,0.0315 -3.3e-4,0.0623 0,0.0937 -8.7e-4,0.021 7e-4,0.0415 0,0.0625 7e-4,0.0415 -0.0013,0.0835 0,0.125 v 0.0625 c -1.8e-4,0.0211 0,0.0414 0,0.0625 0,0.30478 7e-4,0.63649 0.03125,0.9375 l -0.09068,5.5 c -0.07319,0.46401 -0.125,0.93289 -0.125,1.40625 0,8.08635 15.83785,16.21067 35.34375,16.21067 19.505895,0 35.312505,-8.23543 35.312505,-16.21067 0,-0.51532 -0.0384,-1.02709 -0.125,-1.53125 l -0.0907,-5.375 c 0.0305,-0.30101 0.0312,-0.63272 0.0312,-0.9375 0,-0.0527 9.6e-4,-0.10365 0,-0.15625 0.002,-0.0837 0,-0.16602 0,-0.25 0,-0.368081 -0.0181,-0.731227 -0.0625,-1.093748 0.0444,-0.362521 0.0625,-0.725667 0.0625,-1.09375 0,-0.515316 -0.0384,-1.02709 -0.125,-1.53125 l -0.0907,-5.375 c 0.0305,-0.301006 0.0312,-0.60147 0.0312,-0.90625 0,-0.05118 9e-4,-0.105181 0,-0.15625 0.003,-0.09412 0,-0.186776 0,-0.28125 0,-0.462326 -0.0239,-0.92158 -0.0937,-1.375 0.0683,-0.448468 0.0937,-0.886581 0.0937,-1.34375 0,-0.515316 -0.0384,-1.02709 -0.125,-1.53125 l -0.0907,-5.40625 c 0.0305,-0.301006 0.0312,-0.60147 0.0312,-0.90625 0,-0.05272 9.6e-4,-0.103647 0,-0.15625 0.002,-0.0837 0,-0.166023 0,-0.25 0,-0.462326 -0.0239,-0.92158 -0.0937,-1.375 0.0699,-0.45342 0.0937,-0.912674 0.0937,-1.375 0,-0.515316 -0.0384,-1.02709 -0.125,-1.53125 l -0.0907,-5.375 c 0.0305,-0.301006 0.0312,-0.60147 0.0312,-0.90625 0,-0.05118 9e-4,-0.105181 0,-0.15625 0.003,-0.09412 0,-0.186776 0,-0.28125 0,-9.752947 -15.06888,-17.027735 -34.574775,-17.027734 z"
         style="fill:url(#linearGradient4842);fill-opacity:1;stroke:none;stroke-width:1.125;stroke-linecap:round;stroke-linejoin:round;stroke-miterlimit:4;stroke-dasharray:none;stroke-dashoffset:1.08780003;stroke-opacity:1;filter:url(#filter3519)" />
      <g
         id="g5081"
         transform="matrix(1.0417865,0,0,0.9691496,-2.8342546,17.369698)">
        <g
           transform="matrix(0.2216259,0,0,0.2254747,-21.67909,-67.880417)"
           id="g5083">
          <path
             transform="translate(45.061429,-54.602901)"
             d="M 594.20979,637.24835 A 252.67799,126.339 0 0 1 341.5318,763.58735 252.67799,126.339 0 0 1 88.853806,637.24835 252.67799,126.339 0 0 1 341.5318,510.90936 252.67799,126.339 0 0 1 594.20979,637.24835 Z"
             sodipodi:ry="126.339"
             sodipodi:rx="252.67799"
             sodipodi:cy="637.24835"
             sodipodi:cx="341.5318"
             id="path5085"
             style="opacity:1;fill:#343434;fill-opacity:1;stroke:none;stroke-width:1.125;stroke-linecap:round;stroke-linejoin:round;stroke-miterlimit:4;stroke-dasharray:none;stroke-dashoffset:1.08779998;stroke-opacity:1;filter:url(#filter3514)"
             sodipodi:type="arc" />
          <path
             sodipodi:type="arc"
             style="opacity:1;fill:url(#linearGradient5097);fill-opacity:1;stroke:none;stroke-width:1.125;stroke-linecap:round;stroke-linejoin:round;stroke-miterlimit:4;stroke-dasharray:none;stroke-dashoffset:1.08779998;stroke-opacity:1"
             id="path5087"
             sodipodi:cx="341.5318"
             sodipodi:cy="637.24835"
             sodipodi:rx="252.67799"
             sodipodi:ry="126.339"
             d="M 594.20979,637.24835 A 252.67799,126.339 0 0 1 341.5318,763.58735 252.67799,126.339 0 0 1 88.853806,637.24835 252.67799,126.339 0 0 1 341.5318,510.90936 252.67799,126.339 0 0 1 594.20979,637.24835 Z"
             transform="translate(45.061429,-113.57703)" />
          <path
             sodipodi:nodetypes="csccscc"
             id="path5089"
             d="M 639.26508,523.65926 C 639.26508,593.39836 526.05588,650.00301 386.57768,650.00301 C 247.82578,650.00299 135.09208,593.99158 133.92138,524.75301 L 134.92138,575.00301 C 134.92138,644.74214 247.13058,701.34677 386.60898,701.34676 C 526.08718,701.34676 638.26508,644.74214 638.26508,575.00301 L 639.26508,523.65926 z"
             style="opacity:1;fill:url(#radialGradient5099);fill-opacity:1;stroke:none;stroke-width:1.125;stroke-linecap:round;stroke-linejoin:round;stroke-miterlimit:4;stroke-dasharray:none;stroke-dashoffset:1.08779998;stroke-opacity:1" />
          <path
             sodipodi:nodetypes="csszs"
             id="path5091"
             d="M 566.27727,486.15744 C 579.07697,526.52416 502.66377,561.86523 387.09487,561.86523 C 265.94097,561.86523 190.88237,525.39212 207.91257,486.15744 C 230.12597,434.98116 310.39967,410.44965 387.09487,410.44965 C 461.01347,410.44965 551.85327,440.66801 566.27727,486.15744 z"
             style="fill:url(#radialGradient5101);fill-opacity:1;stroke:none;stroke-width:2.5999999;stroke-linecap:round;stroke-linejoin:round;stroke-miterlimit:4;stroke-dashoffset:1.08779998;stroke-opacity:1" />
          <path
             id="path5093"
             d="M 134.39008,519.23381 C 134.10378,521.69514 133.92128,524.1743 133.92138,526.67131 C 133.92138,596.41044 247.13058,653.01505 386.60878,653.01506 C 526.08708,653.01506 639.26508,596.41043 639.26508,526.67131 C 639.26508,524.1743 639.11388,521.69514 638.82758,519.23381 C 631.11908,585.51499 521.09308,638.14006 386.60878,638.14006 C 252.12458,638.14006 142.09858,585.51499 134.39008,519.23381 z"
             style="opacity:1;fill:url(#radialGradient5103);fill-opacity:1;stroke:none;stroke-width:1.125;stroke-linecap:round;stroke-linejoin:round;stroke-miterlimit:4;stroke-dasharray:none;stroke-dashoffset:1.08779998;stroke-opacity:1;filter:url(#filter3480)" />
          <path
             transform="matrix(0.9792446,0,0,0.9792446,-888.88819,80.200032)"
             sodipodi:nodetypes="cssscsc"
             style="opacity:0.50553505;fill:url(#linearGradient5105);fill-opacity:1;stroke:none;stroke-width:1.125;stroke-linecap:round;stroke-linejoin:round;stroke-miterlimit:4;stroke-dasharray:none;stroke-dashoffset:1.08779998;stroke-opacity:1;filter:url(#filter3480)"
             d="M 1050.3125,441.16063 C 1050.0262,443.62196 1049.8437,446.10112 1049.8438,448.59813 C 1049.8438,518.33726 1163.053,574.94187 1302.5312,574.94188 C 1442.0095,574.94188 1555.1875,518.33725 1555.1875,448.59813 C 1555.1875,446.10112 1555.0363,443.62196 1554.75,441.16063 C 1547.0415,507.44181 1437.0155,566.06688 1302.5312,566.06688 C 1168.047,566.06688 1058.021,507.44181 1050.3125,441.16063 z"
             id="path5095" />
        </g>
      </g>
      <g
         transform="matrix(1.0417865,0,0,0.9403123,-2.8342546,2.2956975)"
         id="g5062">
        <g
           id="g3550"
           transform="matrix(0.2216259,0,0,0.2254747,-21.67909,-67.880417)">
          <path
             sodipodi:type="arc"
             style="opacity:1;fill:#343434;fill-opacity:1;stroke:none;stroke-width:1.125;stroke-linecap:round;stroke-linejoin:round;stroke-miterlimit:4;stroke-dasharray:none;stroke-dashoffset:1.08779998;stroke-opacity:1;filter:url(#filter3514)"
             id="path3552"
             sodipodi:cx="341.5318"
             sodipodi:cy="637.24835"
             sodipodi:rx="252.67799"
             sodipodi:ry="126.339"
             d="M 594.20979,637.24835 A 252.67799,126.339 0 0 1 341.5318,763.58735 252.67799,126.339 0 0 1 88.853806,637.24835 252.67799,126.339 0 0 1 341.5318,510.90936 252.67799,126.339 0 0 1 594.20979,637.24835 Z"
             transform="translate(45.061429,-54.602901)" />
          <path
             transform="translate(45.061429,-113.57703)"
             d="M 594.20979,637.24835 A 252.67799,126.339 0 0 1 341.5318,763.58735 252.67799,126.339 0 0 1 88.853806,637.24835 252.67799,126.339 0 0 1 341.5318,510.90936 252.67799,126.339 0 0 1 594.20979,637.24835 Z"
             sodipodi:ry="126.339"
             sodipodi:rx="252.67799"
             sodipodi:cy="637.24835"
             sodipodi:cx="341.5318"
             id="path3554"
             style="opacity:1;fill:url(#linearGradient5071);fill-opacity:1;stroke:none;stroke-width:1.125;stroke-linecap:round;stroke-linejoin:round;stroke-miterlimit:4;stroke-dasharray:none;stroke-dashoffset:1.08779998;stroke-opacity:1"
             sodipodi:type="arc" />
          <path
             style="opacity:1;fill:url(#radialGradient5073);fill-opacity:1;stroke:none;stroke-width:1.125;stroke-linecap:round;stroke-linejoin:round;stroke-miterlimit:4;stroke-dasharray:none;stroke-dashoffset:1.08779998;stroke-opacity:1"
             d="M 639.26508,523.65926 C 639.26508,593.39836 526.05588,650.00301 386.57768,650.00301 C 247.82578,650.00299 135.09208,593.99158 133.92138,524.75301 L 134.92138,575.00301 C 134.92138,644.74214 247.13058,701.34677 386.60898,701.34676 C 526.08718,701.34676 638.26508,644.74214 638.26508,575.00301 L 639.26508,523.65926 z"
             id="path3556"
             sodipodi:nodetypes="csccscc" />
          <path
             style="fill:url(#radialGradient5075);fill-opacity:1;stroke:none;stroke-width:2.5999999;stroke-linecap:round;stroke-linejoin:round;stroke-miterlimit:4;stroke-dashoffset:1.08779998;stroke-opacity:1"
             d="M 566.27727,486.15744 C 579.07697,526.52416 502.66377,561.86523 387.09487,561.86523 C 265.94097,561.86523 190.88237,525.39212 207.91257,486.15744 C 230.12597,434.98116 310.39967,410.44965 387.09487,410.44965 C 461.01347,410.44965 551.85327,440.66801 566.27727,486.15744 z"
             id="path3558"
             sodipodi:nodetypes="csszs" />
          <path
             style="opacity:1;fill:url(#radialGradient5077);fill-opacity:1;stroke:none;stroke-width:1.125;stroke-linecap:round;stroke-linejoin:round;stroke-miterlimit:4;stroke-dasharray:none;stroke-dashoffset:1.08779998;stroke-opacity:1;filter:url(#filter3480)"
             d="M 134.39008,519.23381 C 134.10378,521.69514 133.92128,524.1743 133.92138,526.67131 C 133.92138,596.41044 247.13058,653.01505 386.60878,653.01506 C 526.08708,653.01506 639.26508,596.41043 639.26508,526.67131 C 639.26508,524.1743 639.11388,521.69514 638.82758,519.23381 C 631.11908,585.51499 521.09308,638.14006 386.60878,638.14006 C 252.12458,638.14006 142.09858,585.51499 134.39008,519.23381 z"
             id="path3560" />
          <path
             id="path3562"
             d="M 1050.3125,441.16063 C 1050.0262,443.62196 1049.8437,446.10112 1049.8438,448.59813 C 1049.8438,518.33726 1163.053,574.94187 1302.5312,574.94188 C 1442.0095,574.94188 1555.1875,518.33725 1555.1875,448.59813 C 1555.1875,446.10112 1555.0363,443.62196 1554.75,441.16063 C 1547.0415,507.44181 1437.0155,566.06688 1302.5312,566.06688 C 1168.047,566.06688 1058.021,507.44181 1050.3125,441.16063 z"
             style="opacity:0.50553505;fill:url(#linearGradient5079);fill-opacity:1;stroke:none;stroke-width:1.125;stroke-linecap:round;stroke-linejoin:round;stroke-miterlimit:4;stroke-dasharray:none;stroke-dashoffset:1.08779998;stroke-opacity:1;filter:url(#filter3480)"
             sodipodi:nodetypes="cssscsc"
             transform="matrix(0.9792446,0,0,0.9792446,-888.88819,80.200032)" />
        </g>
      </g>
      <g
         style="opacity:0.501845"
         transform="matrix(0.9628459,0,0,0.844571,3.7304439,5.4484571)"
         id="g4139" />
      <g
         transform="matrix(1.0417865,0,0,0.9209778,-2.8342546,2.8278682)"
         id="g5053">
        <path
           sodipodi:type="arc"
           style="fill:#2a2a2a;fill-opacity:1;stroke:none;stroke-width:1.125;stroke-linecap:round;stroke-linejoin:round;stroke-miterlimit:4;stroke-dasharray:none;stroke-dashoffset:1.08779998;stroke-opacity:1;filter:url(#filter3514)"
           id="path3590"
           sodipodi:cx="341.5318"
           sodipodi:cy="637.24835"
           sodipodi:rx="252.67799"
           sodipodi:ry="126.339"
           d="M 594.20979,637.24835 A 252.67799,126.339 0 0 1 341.5318,763.58735 252.67799,126.339 0 0 1 88.853806,637.24835 252.67799,126.339 0 0 1 341.5318,510.90936 252.67799,126.339 0 0 1 594.20979,637.24835 Z"
           transform="matrix(0.2216259,0,0,0.2251584,-11.69231,-97.756732)" />
        <path
           transform="matrix(0.2216259,0,0,0.2251584,-11.69231,-110.83553)"
           d="M 594.20979,637.24835 A 252.67799,126.339 0 0 1 341.5318,763.58735 252.67799,126.339 0 0 1 88.853806,637.24835 252.67799,126.339 0 0 1 341.5318,510.90936 252.67799,126.339 0 0 1 594.20979,637.24835 Z"
           sodipodi:ry="126.339"
           sodipodi:rx="252.67799"
           sodipodi:cy="637.24835"
           sodipodi:cx="341.5318"
           id="path3592"
           style="fill:url(#linearGradient5051);fill-opacity:1;stroke:none;stroke-width:1.125;stroke-linecap:round;stroke-linejoin:round;stroke-miterlimit:4;stroke-dasharray:none;stroke-dashoffset:1.08779998;stroke-opacity:1"
           sodipodi:type="arc" />
        <path
           style="fill:url(#radialGradient5000);fill-opacity:1;stroke:none;stroke-width:1.125;stroke-linecap:round;stroke-linejoin:round;stroke-miterlimit:4;stroke-dasharray:none;stroke-dashoffset:1.08779998;stroke-opacity:1"
           d="M 119.99861,32.44385 C 119.99861,48.146193 94.908518,60.891206 63.996536,60.891206 C 33.245522,60.891201 8.2608138,48.279762 8.0013564,32.690117 L 8.2229823,44.004326 C 8.2229823,59.706677 33.091447,72.451685 64.003473,72.451682 C 94.915455,72.451682 119.77698,59.706677 119.77698,44.004326 L 119.99861,32.44385 z"
           id="path3594"
           sodipodi:nodetypes="csccscc" />
        <path
           style="fill:url(#radialGradient4997);fill-opacity:1;stroke:none;stroke-width:2.5999999;stroke-linecap:round;stroke-linejoin:round;stroke-miterlimit:4;stroke-dashoffset:1.08779998;stroke-opacity:1"
           d="M 103.82262,24 C 106.65936,33.088906 89.72422,22.760109 64.111159,22.760109 C 37.260317,22.760109 20.625387,32.834018 24.39972,24 C 29.322785,12.477231 47.113516,6.9537552 64.111159,6.9537552 C 80.493435,6.9537552 100.62589,13.757672 103.82262,24 z"
           id="path3596"
           sodipodi:nodetypes="csszs" />
        <path
           style="fill:url(#radialGradient5049);fill-opacity:1;stroke:none;stroke-width:1.125;stroke-linecap:round;stroke-linejoin:round;stroke-miterlimit:4;stroke-dasharray:none;stroke-dashoffset:1.08779998;stroke-opacity:1;filter:url(#filter3480)"
           d="M 134.39008,519.23381 C 134.10378,521.69514 133.92128,524.1743 133.92138,526.67131 C 133.92138,596.41044 247.13058,653.01505 386.60878,653.01506 C 526.08708,653.01506 639.26508,596.41043 639.26508,526.67131 C 639.26508,524.1743 639.11388,521.69514 638.82758,519.23381 C 631.11908,585.51499 521.09308,638.14006 386.60878,638.14006 C 252.12458,638.14006 142.09858,585.51499 134.39008,519.23381 z"
           id="path3598"
           transform="matrix(0.2216259,0,0,0.2251584,-21.67909,-85.46243)" />
        <path
           id="path3600"
           d="M 1050.3125,441.16063 C 1050.0262,443.62196 1049.8437,446.10112 1049.8438,448.59813 C 1049.8438,518.33726 1163.053,574.94187 1302.5312,574.94188 C 1442.0095,574.94188 1555.1875,518.33725 1555.1875,448.59813 C 1555.1875,446.10112 1555.0363,443.62196 1554.75,441.16063 C 1547.0415,507.44181 1437.0155,566.06688 1302.5312,566.06688 C 1168.047,566.06688 1058.021,507.44181 1050.3125,441.16063 z"
           style="opacity:0.50553505;fill:url(#linearGradient5047);fill-opacity:1;stroke:none;stroke-width:1.125;stroke-linecap:round;stroke-linejoin:round;stroke-miterlimit:4;stroke-dasharray:none;stroke-dashoffset:1.08779998;stroke-opacity:1;filter:url(#filter3480)"
           sodipodi:nodetypes="cssscsc"
           transform="matrix(0.217026,0,0,0.2204852,-218.67974,-67.40472)" />
        <path
           style="opacity:0.03465349;fill:url(#linearGradient5045);fill-opacity:1;fill-rule:evenodd;stroke:none;stroke-width:1px;stroke-linecap:butt;stroke-linejoin:miter;stroke-opacity:1;filter:url(#filter3412)"
           d="M 11.172353,47.430418 C 48.350424,26.879916 81.162654,29.545968 111.37082,46.837371 C 113.54138,45.013169 114.94753,43.383474 115.70307,41.907333 C 79.358573,22.970685 43.014069,26.372789 6.669573,42.367874 C 7.639681,44.081663 9.393579,45.72258 11.172353,47.430418 z"
           id="path3684"
           sodipodi:nodetypes="ccccc"
           transform="matrix(0.9742725,0,0,0.9985972,4.548712,-0.6959463)" />
      </g>
    </g>
    <g
       transform="matrix(1.45455,0,0,1.45455,-117.25775,-344.12031)"
       id="g1399">
      <ellipse
         style="fill:none;stroke-width:0.57008499"
         cx="-207.73613"
         cy="212.29665"
         rx="20.523085"
         ry="20.523069"
         transform="matrix(-0.96592587,-0.2588189,-0.25881915,0.9659258,0,0)"
         id="ellipse1383" />
      <ellipse
         style="fill:#292929;filter:url(#j)"
         cx="-59.830322"
         cy="-331.66757"
         rx="22.14249"
         ry="22.142477"
         transform="matrix(-0.89809327,0.23387197,-0.24064319,-0.8728227,12.164424,-15.390993)"
         id="ellipse1385" />
      <ellipse
         style="fill:url(#k)"
         cx="-73.756378"
         cy="-287.72238"
         rx="20.523085"
         ry="20.523069"
         transform="rotate(165.00001)"
         id="ellipse1387" />
      <circle
         cx="343.99899"
         cy="92"
         r="36"
         style="opacity:0.8;fill:none;stroke:url(#l);stroke-width:6.75138187;filter:url(#n)"
         transform="matrix(-0.55066046,-0.14754894,-0.14754899,0.55066008,348.7124,258.92482)"
         clip-path="url(#m)"
         id="circle1389" />
      <ellipse
         style="fill:url(#o);stroke-width:0.470321"
         cx="-73.756401"
         cy="-287.72238"
         rx="16.931545"
         ry="16.931536"
         transform="rotate(165)"
         id="ellipse1391" />
      <path
         inkscape:connector-curvature="0"
         d="m 120.01465,24.819615 v 9.194998 h -7.32125 v 3.970777 h 7.32125 v 9.194998 h 3.97076 V 37.98539 h 7.32126 v -3.970777 h -7.32126 v -9.194998 z"
         style="fill:none;stroke:url(#p);stroke-width:4;stroke-linecap:round;stroke-linejoin:round;filter:url(#q)"
         transform="matrix(1.2017106,0,0,1.2017106,-0.897549,217.33317)"
         id="path1393" />
      <path
         style="fill:#ffffff;fill-rule:evenodd"
         inkscape:connector-curvature="0"
         d="m 141.84828,244.34507 v 10.13508 h -10.13507 v 7.72576 h 10.13507 v 10.13508 h 7.7258 v -10.13508 h 10.13506 v -7.72576 h -10.13506 v -10.13508 z"
         id="path1395" />
      <path
         style="opacity:0.8;fill:url(#r);stroke-width:0.78978503"
         inkscape:connector-curvature="0"
         d="m 145.71127,240.96258 c -7.27803,0 -13.35947,5.13926 -14.82526,11.98165 2.92172,2.72366 8.46549,4.56161 14.82526,4.56161 6.35977,0 11.90353,-1.83795 14.82523,-4.56161 -1.46576,-6.84239 -7.54721,-11.98165 -14.82523,-11.98165 z"
         id="path1397" />
    </g>
    <path
       sodipodi:type="inkscape:offset"
       inkscape:radius="5.8472905"
       inkscape:original="M 62.720703 69.480469 C 59.123724 69.480469 56.00639 70.055747 53.367188 71.205078 C 50.749266 72.333125 48.577512 73.939568 46.853516 76.025391 C 45.12952 78.111213 43.843543 80.633335 42.992188 83.591797 C 42.162115 86.528976 41.746094 89.805565 41.746094 93.423828 C 41.746094 97.042091 42.162115 100.34252 42.992188 103.32227 C 43.843542 106.28073 45.119554 108.81282 46.822266 110.91992 C 48.546262 113.02703 50.718016 114.65535 53.335938 115.80469 C 55.975141 116.95401 59.082507 117.5293 62.658203 117.5293 L 62.945312 117.5293 C 63.073017 117.5293 63.190455 117.51739 63.296875 117.49609 C 63.424578 117.47479 63.56195 117.46484 63.710938 117.46484 L 72.267578 128 L 84.974609 128 L 73.449219 115.13477 C 75.173215 114.19828 76.662219 113.01587 77.917969 111.58984 C 79.195003 110.16382 80.248053 108.53549 81.078125 106.70508 C 81.929481 104.87466 82.558497 102.85415 82.962891 100.64062 C 83.388569 98.405818 83.601562 96.021065 83.601562 93.488281 C 83.601562 89.848734 83.175575 86.560226 82.324219 83.623047 C 81.494147 80.664584 80.216183 78.142463 78.492188 76.056641 C 76.789474 73.949534 74.629639 72.333125 72.011719 71.205078 C 69.393799 70.055747 66.296399 69.480469 62.720703 69.480469 z M 22.015625 69.544922 C 19.759532 69.544922 17.717135 69.841551 15.886719 70.4375 C 14.077587 71.033449 12.534847 71.907309 11.257812 73.056641 C 9.9807792 74.184687 8.9894782 75.578137 8.2871094 77.238281 C 7.6060245 78.877142 7.265625 80.740349 7.265625 82.826172 C 7.265625 84.954562 7.6279098 86.783966 8.3515625 88.316406 C 9.0752152 89.827564 9.9690084 91.125457 11.033203 92.210938 C 12.118682 93.275132 13.269239 94.168925 14.482422 94.892578 C 15.695604 95.616231 16.790471 96.233327 17.769531 96.744141 C 18.940145 97.361373 19.993194 97.946618 20.929688 98.5 C 21.887463 99.053381 22.697621 99.62866 23.357422 100.22461 C 24.038507 100.79928 24.560048 101.42829 24.921875 102.10938 C 25.304985 102.76917 25.496094 103.53361 25.496094 104.40625 C 25.496094 105.1299 25.378654 105.80074 25.144531 106.41797 C 24.931692 107.01392 24.581327 107.53546 24.091797 107.98242 C 23.623552 108.4081 22.994536 108.7485 22.207031 109.00391 C 21.440811 109.23803 20.515166 109.35547 19.429688 109.35547 C 18.365492 109.35547 17.290557 109.24994 16.205078 109.03711 C 15.140883 108.82427 14.065947 108.53565 12.980469 108.17383 C 11.916273 107.812 10.863224 107.4079 9.8203125 106.96094 C 8.7774012 106.49269 7.7442836 106.01492 6.7226562 105.52539 L 6.7226562 114.71875 C 8.5105041 115.65524 10.44738 116.35793 12.533203 116.82617 C 14.640309 117.29442 16.822031 117.5293 19.078125 117.5293 C 21.653477 117.5293 23.930754 117.20883 25.910156 116.57031 C 27.910843 115.93179 29.592908 115.02804 30.955078 113.85742 C 32.338531 112.66552 33.381615 111.23827 34.083984 109.57812 C 34.807637 107.89669 35.169922 106.01355 35.169922 103.92773 C 35.169922 102.09732 34.903192 100.50084 34.371094 99.138672 C 33.838996 97.776505 33.084528 96.564195 32.105469 95.5 C 31.147693 94.414521 29.997135 93.43514 28.65625 92.5625 C 27.315364 91.668576 25.846293 90.796668 24.25 89.945312 C 22.930398 89.242944 21.803679 88.613928 20.867188 88.060547 C 19.95198 87.507165 19.195559 86.965691 18.599609 86.433594 C 18.024944 85.901496 17.598956 85.336184 17.322266 84.740234 C 17.066858 84.123001 16.939453 83.420316 16.939453 82.632812 C 16.939453 81.164224 17.375407 79.993734 18.248047 79.121094 C 19.141971 78.22717 20.419933 77.78125 22.080078 77.78125 C 22.846298 77.78125 23.600766 77.84495 24.345703 77.972656 C 25.111924 78.079076 25.89023 78.248299 26.677734 78.482422 C 27.465238 78.716545 28.273444 79.00516 29.103516 79.345703 C 29.933588 79.686245 30.827381 80.080382 31.785156 80.527344 L 34.978516 72.832031 C 33.850469 72.299933 32.753648 71.832128 31.689453 71.427734 C 30.625258 71.02334 29.560289 70.682941 28.496094 70.40625 C 27.453182 70.129559 26.390166 69.916565 25.304688 69.767578 C 24.240492 69.618591 23.143672 69.544922 22.015625 69.544922 z M 93.242188 70.214844 L 93.242188 116.89062 L 120.125 116.89062 L 120.125 108.7168 L 103.13867 108.7168 L 103.13867 70.214844 L 93.242188 70.214844 z M 62.720703 77.716797 C 64.593686 77.716797 66.202083 78.079082 67.542969 78.802734 C 68.883855 79.526387 69.978722 80.569471 70.830078 81.931641 C 71.702718 83.29381 72.3417 84.95399 72.746094 86.912109 C 73.171772 88.848945 73.384766 91.040633 73.384766 93.488281 C 73.384766 95.93593 73.171772 98.139532 72.746094 100.09766 C 72.3417 102.03449 71.702718 103.68276 70.830078 105.04492 C 69.978722 106.38581 68.871936 107.41892 67.509766 108.14258 C 66.16888 108.86623 64.55247 109.22852 62.658203 109.22852 C 60.806503 109.22852 59.210026 108.86623 57.869141 108.14258 C 56.528255 107.41892 55.409549 106.38581 54.515625 105.04492 C 53.642985 103.68276 52.994037 102.03449 52.568359 100.09766 C 52.142681 98.139532 51.929688 95.93593 51.929688 93.488281 C 51.929687 91.040633 52.142681 88.848945 52.568359 86.912109 C 52.994037 84.95399 53.642985 83.29381 54.515625 81.931641 C 55.409549 80.569471 56.538221 79.526387 57.900391 78.802734 C 59.262561 78.079082 60.869004 77.716797 62.720703 77.716797 z "
       style="font-style:normal;font-variant:normal;font-weight:bold;font-stretch:normal;font-size:medium;line-height:125%;font-family:'Droid Sans';-inkscape-font-specification:'Droid Sans Bold';letter-spacing:0px;word-spacing:0px;fill:#ffffff;fill-opacity:0.7647059;stroke:none;stroke-width:1.63460362px;stroke-linecap:butt;stroke-linejoin:miter;stroke-opacity:1"
       id="path1003"
       d="m 62.720703,63.632812 c -4.215963,0 -8.148977,0.673366 -11.675781,2.207032 -3.388083,1.461344 -6.380045,3.655023 -8.699219,6.460937 -0.866046,1.047809 -1.552601,2.233417 -2.236328,3.419922 l 0.269531,-0.648437 a 5.8478752,5.8478752 0 0 0 -2.90625,-7.529297 c -1.254762,-0.591869 -2.4902,-1.119636 -3.707031,-1.582031 -1.256554,-0.477491 -2.523746,-0.88137 -3.798828,-1.212891 -1.26163,-0.33346 -2.547094,-0.591801 -3.851563,-0.771485 -0.0052,-7.22e-4 -0.01046,-0.0012 -0.01563,-0.002 -1.343417,-0.187306 -2.706649,-0.277343 -4.083984,-0.277343 -2.768624,0 -5.434626,0.364163 -7.939453,1.179687 a 5.8478752,5.8478752 0 0 0 -0.01953,0.0059 c -2.4757,0.815525 -4.7713142,2.091617 -6.6894535,3.8125 -1.9320882,1.712812 -3.454495,3.875576 -4.4648437,6.263672 a 5.8478752,5.8478752 0 0 0 -0.015625,0.03516 c -1.0188417,2.451588 -1.46875,5.110035 -1.46875,7.832031 0,2.791923 0.4773308,5.510475 1.6464843,7.986328 a 5.8478752,5.8478752 0 0 0 0.013672,0.0293 c 0.9704113,2.026448 2.2296968,3.882295 3.7792969,5.462891 a 5.8478752,5.8478752 0 0 0 0.082031,0.08203 c 1.3917194,1.364429 2.9113617,2.551774 4.5468749,3.527343 1.286421,0.767338 2.471815,1.436468 3.578125,2.013668 0.949222,0.50086 1.760063,0.95869 2.513672,1.39649 -0.08108,-0.0141 -0.154393,-0.007 -0.236328,-0.0234 -0.803954,-0.16121 -1.637024,-0.38399 -2.501953,-0.67187 -0.0033,-0.001 -0.0064,-8.5e-4 -0.0098,-0.002 -0.903159,-0.30801 -1.798864,-0.65293 -2.6875,-1.0332 -0.978324,-0.43989 -1.942953,-0.88677 -2.892578,-1.3418 a 5.8478752,5.8478752 0 0 0 -8.375,5.27344 v 9.19336 a 5.8478752,5.8478752 0 0 0 3.1347656,5.17969 c 2.2605086,1.18407 4.6913051,2.06017 7.2421874,2.63281 a 5.8478752,5.8478752 0 0 0 0.01367,0.004 c 2.537267,0.56384 5.150568,0.84179 7.8125,0.84179 3.057553,0 5.938832,-0.37665 8.619141,-1.24023 2.614909,-0.83581 5.032452,-2.09414 7.068359,-3.84375 a 5.8478752,5.8478752 0 0 0 0.0059,-0.006 c 2.02713,-1.74645 3.645999,-3.95602 4.689454,-6.41602 0.154495,-0.36011 0.21126,-0.75402 0.341796,-1.12304 0.732299,1.34965 1.515622,2.66574 2.470704,3.84765 a 5.8478752,5.8478752 0 0 0 0.02344,0.0274 c 2.313104,2.82713 5.300097,5.04713 8.689453,6.53515 a 5.8478752,5.8478752 0 0 0 0.01563,0.008 c 3.001798,1.30722 6.343801,1.88044 9.851563,2.05468 l 6.875,8.46485 a 5.8478752,5.8478752 0 0 0 4.539062,2.16211 h 12.707031 a 5.8478752,5.8478752 0 0 0 4.355469,-9.75 l -7.412109,-8.27344 c 0.114298,-0.12345 0.253827,-0.22152 0.365234,-0.34766 1.676971,-1.87528 3.053362,-4.01458 4.109375,-6.33789 0.388074,-0.83714 0.693225,-1.72286 1.001953,-2.60547 v 10.35742 a 5.8478752,5.8478752 0 0 0 5.847657,5.84766 H 120.125 a 5.8478752,5.8478752 0 0 0 5.84766,-5.84766 V 108.7168 A 5.8478752,5.8478752 0 0 0 120.125,102.86914 H 108.98633 V 70.214844 a 5.8478752,5.8478752 0 0 0 -5.84766,-5.847656 h -9.896482 a 5.8478752,5.8478752 0 0 0 -5.847657,5.847656 v 10.376953 c -1.02308,-3.029446 -2.415356,-5.852494 -4.378906,-8.234375 -2.296114,-2.832089 -5.281508,-5.047439 -8.671875,-6.511719 -3.510454,-1.537842 -7.426884,-2.21289 -11.623047,-2.212891 z m 25.21875,18.363282 0.01563,0.04687 c -0.0033,-0.01174 -0.01037,-0.02147 -0.01367,-0.0332 -0.0013,-0.0043 -6.97e-4,-0.0093 -0.002,-0.01367 z m -50.703125,0.65039 c -0.709907,2.702889 -1.072891,5.585973 -1.205078,8.591797 -1.245115,-1.330657 -2.61593,-2.552112 -4.175781,-3.568359 -1.463488,-0.973505 -3.03694,-1.902592 -4.707031,-2.798828 0.665206,0.27762 1.372176,0.585531 2.164062,0.955078 a 5.8478752,5.8478752 0 0 0 7.873047,-3.058594 z m 25.484375,0.917969 c 1.118968,0 1.70606,0.201888 2.044922,0.384766 0.444932,0.240122 0.737218,0.492829 1.105469,1.082031 a 5.8478752,5.8478752 0 0 0 0.03516,0.05469 c 0.407939,0.636782 0.82324,1.605355 1.113281,3.009765 a 5.8478752,5.8478752 0 0 0 0.01563,0.07227 c 0.314942,1.432987 0.501953,3.211885 0.501953,5.320312 0,2.108429 -0.185662,3.903258 -0.503906,5.367188 a 5.8478752,5.8478752 0 0 0 -0.01172,0.04687 c -0.288177,1.380216 -0.698955,2.338486 -1.115234,2.988276 a 5.8478752,5.8478752 0 0 0 -0.01172,0.0195 c -0.350661,0.55229 -0.644066,0.81078 -1.128906,1.06836 a 5.8478752,5.8478752 0 0 0 -0.0332,0.0176 c -0.330307,0.17826 -0.925505,0.38477 -2.074219,0.38477 -1.089008,0 -1.660101,-0.195 -2.011719,-0.38477 -0.475406,-0.25657 -0.828075,-0.576 -1.226562,-1.16015 -0.419239,-0.66564 -0.838616,-1.6191 -1.140625,-2.99219 -1.72e-4,-7.83e-4 1.72e-4,-0.0012 0,-0.002 -0.316759,-1.461872 -0.501953,-3.250481 -0.501953,-5.353516 -10e-7,-2.108426 0.187011,-3.887325 0.501953,-5.320312 a 5.8478752,5.8478752 0 0 0 0.002,-0.01367 c 0.306042,-1.407794 0.731936,-2.381181 1.146484,-3.035156 0.396734,-0.596098 0.737803,-0.897878 1.216797,-1.152344 0.394142,-0.209388 0.987155,-0.402344 2.076172,-0.402344 z m -26.3125,7.976563 0.08203,0.08984 c -0.01125,-0.01275 -0.02778,-0.02048 -0.03906,-0.0332 -0.016,-0.01753 -0.0269,-0.03917 -0.04297,-0.05664 z m 52.306641,10.150394 -0.0078,0.043 c 0.0011,-0.006 8.84e-4,-0.012 0.002,-0.0176 0.0016,-0.009 0.0043,-0.0167 0.0059,-0.0254 z m -24.269532,21.53906 -0.185546,0.0332 c -0.252034,0.042 -0.43748,0.0488 -0.548828,0.0488 l -0.01758,-0.008 c 0.250687,-0.024 0.49784,-0.0234 0.751953,-0.0742 z" />
    <text
       xml:space="preserve"
       style="font-style:normal;font-weight:normal;font-size:65.38414764px;line-height:125%;font-family:sans-serif;letter-spacing:0px;word-spacing:0px;fill:#000000;fill-opacity:1;stroke:none;stroke-width:1.63460362px;stroke-linecap:butt;stroke-linejoin:miter;stroke-opacity:1"
       x="3.7224491"
       y="116.89011"
       id="text997"><tspan
         sodipodi:role="line"
         id="tspan995"
         x="3.7224491"
         y="116.89011"
         style="font-style:normal;font-variant:normal;font-weight:bold;font-stretch:normal;font-family:'Droid Sans';-inkscape-font-specification:'Droid Sans Bold';stroke-width:1.63460362px">SQL</tspan></text>
  </g>
</svg>
