<svg height="128" width="128" xmlns="http://www.w3.org/2000/svg" xmlns:xlink="http://www.w3.org/1999/xlink"><linearGradient id="a"><stop offset="0"/><stop offset="1" stop-opacity="0"/></linearGradient><linearGradient id="b"><stop offset="0" stop-color="#fff"/><stop offset="1" stop-color="#fff" stop-opacity="0"/></linearGradient><linearGradient id="c"><stop offset="0" stop-color="#fff" stop-opacity=".537906"/><stop offset=".21464799" stop-color="#fff"/><stop offset=".66342056" stop-color="#fff" stop-opacity=".415162"/><stop offset="1" stop-color="#fff" stop-opacity="0"/></linearGradient><radialGradient id="d" cx="63.912209" cy="115.70919" fy="115.7093" gradientTransform="matrix(1 0 0 .197802 0 92.82166)" gradientUnits="userSpaceOnUse" r="63.912209" xlink:href="#a"/><radialGradient id="e" cx="63.816387" cy="120.57538" gradientTransform="matrix(1 0 0 .289157 0 85.71021)" gradientUnits="userSpaceOnUse" r="14.672465"><stop offset="0"/><stop offset=".5714286"/><stop offset="1" stop-opacity="0"/></radialGradient><linearGradient id="f" gradientTransform="matrix(.9384891 0 0 .9797769 5.360263 -.11023)" gradientUnits="userSpaceOnUse" x1="48.648247" x2="63.212357" xlink:href="#a" y1="123.09119" y2="60.341194"/><linearGradient id="g" gradientTransform="matrix(.8342942 0 0 .6237166 10.813747 4.972114)" gradientUnits="userSpaceOnUse" x1="27.080584" x2="59.768688" xlink:href="#b" y1="-14.285192" y2="17.40625"/><linearGradient id="h" gradientTransform="matrix(.8332988 -.04074194 .0435632 .8910022 10.908193 1.296071)" gradientUnits="userSpaceOnUse" x1="26.516504" x2="67.55307" xlink:href="#b" y1="6.289245" y2="6.289245"/><linearGradient id="i" gradientTransform="matrix(.8342942 0 0 1.0210988 10.813747 -1.944822)" gradientUnits="userSpaceOnUse" x1="55.875" x2="70.71875" xlink:href="#c" y1="91.296875" y2="91.296875"/><radialGradient id="j" cx="63.462833" cy="66.417244" gradientTransform="matrix(.9021317 0 0 .2520869 6.569572 47.48181)" gradientUnits="userSpaceOnUse" r="13.788582" xlink:href="#a"/><radialGradient id="k" cx="52.715279" cy="41.561275" gradientTransform="matrix(1.6417463 -.8079979 1.3565327 2.8660381 -96.448304 -52.309632)" gradientUnits="userSpaceOnUse" r="15.995545" xlink:href="#c"/><radialGradient id="l" cx="63.462833" cy="66.417244" gradientTransform="matrix(.9021317 0 0 .1440028 6.569572 54.660582)" gradientUnits="userSpaceOnUse" r="13.788582" xlink:href="#a"/><radialGradient id="m" cx="51.78791" cy="41.299831" gradientTransform="matrix(1.6417463 -.8125119 1.3565327 2.88205 -96.448304 -52.949828)" gradientUnits="userSpaceOnUse" r="15.995545" xlink:href="#c"/><linearGradient id="n" gradientTransform="matrix(.8342942 0 0 1.0210978 10.813748 -1.944821)" gradientUnits="userSpaceOnUse" spreadMethod="reflect" x1="55.826965" x2="121.36113" y1="61.3554" y2="52.6054"><stop offset="0" stop-color="#bdbdbd"/><stop offset="1" stop-color="#bdbdbd" stop-opacity="0"/></linearGradient><linearGradient id="o" gradientTransform="matrix(.8342942 0 0 .8975001 10.813747 5.940948)" gradientUnits="userSpaceOnUse" x1="94.42218" x2="100.78125" xlink:href="#a" y1="30.355696" y2="35.359375"/><radialGradient id="p" cx="57.214077" cy="124.00706" fx="49.233025" fy="124.00705" gradientTransform="matrix(.556928 -.00000003 0 .138799 37.13478 97.17706)" gradientUnits="userSpaceOnUse" r="11.383312" xlink:href="#b"/><path d="m127.82442 115.70919a63.912209 12.641975 0 1 1 -127.82442 0 63.912209 12.641975 0 1 1 127.82442 0z" fill="url(#d)" opacity=".381395" transform="matrix(.6102121 0 0 .416667 24.999997 74.520305)"/><path d="m78.488853 120.57538a14.672465 4.2426405 0 1 1 -29.344931 0 14.672465 4.2426405 0 1 1 29.344931 0z" fill="url(#e)" opacity=".413934" transform="matrix(.9702784 0 0 .9820563 2.080338 1.421678)"/><path d="m53.349575 3.2933654v-2.79415759z" fill="#fff" fill-opacity=".756881"/><path d="m102.76856 18.730326c-10.743867 15.154665-23.320525 29.317723-30.651309 44.47239l1.171186-.039665 35.685193-46.171632c-2.28657.97088-4.33545 1.51561-6.20507 1.738907z" fill="url(#o)" opacity=".42"/><path d="m64.07844.4721712c-26.48883 0-47.986141 5.2410524-47.986141 11.2462638 0 12.378012 37.304851 50.534456 37.304851 50.534456.15424.220906.33787.586613.32471 1.012938v54.463801c0 1.34296 1.8583 2.17807 9.16761 2.17807 7.15307 0 11.54554-.64365 11.54554-2.17807 0-.00854.00072-.02546 0-.03399l-.05511-54.429802c0-.25001.03393-.533963.15023-.746911 0 0 37.37801-38.768103 37.37801-51.267003 0-4.2571568-21.34088-10.7797527-47.8297-10.7797528z" style="stroke:#000;stroke-width:.184596;stroke-linecap:round;stroke-linejoin:round;stroke-dashoffset:4;fill:url(#n)"/><path d="m64.077815 9.398298c-19.533714 0-35.708795 3.958045-38.285978 9.08667 8.417987 3.30255 22.417904 5.515032 38.285978 5.515032 15.850743 0 29.839638-2.166048 38.260675-5.462505-2.527458-5.142725-18.69015-9.139197-38.260675-9.139197z"/><path d="m57.429913 63.660786v55.608734c1.785083.37543 4.003191.63818 6.648277.63818 2.20064 0 4.105219-.18266 5.735768-.44674v-55.800174c-4.128014.921909-8.25603 1.458575-12.384045 0z" fill="url(#i)" opacity=".614754"/><path d="m54.05364 62.480138c-.003267.022862-.023379.04079-.023379.063819 0 1.220585 4.615845 3.226439 10.309993 3.226439 5.694143 0 10.333367-2.005853 10.333371-3.226439 0-.022359-.020299-.041617-.02338-.063819-2.270886.514645-6.041741.829643-10.309991.829643-4.267242-.000001-8.015554-.315203-10.286614-.829643z" fill="url(#l)" opacity=".11"/><path d="m57.429913 63.807359-12.831081-39.807359c8.82615 1.007037 17.831686.599508 26.689963.160406l-1.474837 39.646953c-4.128014.772391-8.25603 1.222019-12.384045 0z" fill="url(#m)" opacity=".758197"/><path d="m54.05364 62.480138c-.003267.022862-.023379.04079-.023379.063819 0 1.220585 4.615845 2.414162 10.309993 2.414162 5.694143 0 10.333367-1.193576 10.333371-2.414162 0-.022359-.020299-.041617-.02338-.063819-2.270886.514645-6.107865 1.371162-10.376117 1.371162-4.267242-.000001-7.949428-.856722-10.220488-1.371162z" fill="url(#l)" opacity=".11"/><path d="m79.338449 112.83906a11.285211 1.4818963 0 1 1 -22.570422 0 11.285211 1.4818963 0 1 1 22.570422 0z" style="fill:none;stroke:#5b5b5b;stroke-width:.196203;stroke-linecap:round;stroke-linejoin:round;stroke-dashoffset:4" transform="matrix(4.2019807 0 0 7.7206883 -221.93924 -859.19522)"/><path d="m56.729366 63.68609-14.841989-39.68609c8.826152 1.001442 22.837449.808862 31.695727.3722l-3.21608 39.426685c-4.128018.7681-9.509643 1.102435-13.637658-.112795z" fill="url(#k)" opacity=".758197"/><path d="m79.338449 112.83906a11.285211 1.4818963 0 1 1 -22.570422 0 11.285211 1.4818963 0 1 1 22.570422 0z" style="fill:none;stroke-width:.137008;stroke-linecap:round;stroke-linejoin:round;stroke-dashoffset:4;stroke:url(#p)" transform="matrix(4.2043803 0 0 7.832456 -222.10254 -871.80695)"/><path d="m54.05364 62.480138c-.003267.022862-.023379.04079-.023379.063819 0 1.220585 4.648908 4.128971 10.343053 4.128971 5.694144 0 10.300307-2.908385 10.300311-4.128971 0-.022359-.020299-.041617-.02338-.063819-2.270886.514645-6.30624 1.596795-10.574491 1.596795-4.267244-.000001-7.751054-1.082355-10.022114-1.596795z" fill="url(#j)" opacity=".11"/><path d="m56.752048 63.49897.677865 55.77055c1.785083.37543 4.003191.63818 6.648277.63818 2.20064 0 4.105219-.18266 5.735768-.44674l.469291-55.800174c-4.128015.921909-9.403184 1.29676-13.531201-.161816z" fill="url(#i)" opacity=".614754"/><path d="m72.189405 63.195363h1.042865v55.645727l-1.07974.39388z" opacity=".213115"/><path d="m33.561894 4.0688722c5.152843-.9966745 10.276942-1.7833941 15.357326-2.2507631l.118128 7.0750915c-4.218239.2927382-7.930747 1.4689904-11.927639 2.2754524z" fill="url(#h)" opacity=".836066"/><path d="m45.279272 11.288602c-4.44982.186297-5.271609.256128-8.680632.583377 3.214297 1.364021 6.904683 2.48046 9.985452 3.664336 4.097528.166059 8.479256.248852 13.061913.292368-2.943282-1.466769-6.600453-5.154562-10.976177-5.699554-3.072748-.3827076-3.322993 1.188573-3.390556 1.159473z" fill="url(#g)" opacity=".836066"/><path d="m53.730639 62.885731-.016396-.015309.161302 55.327158c.148106.6005.650298.68958 1.07974.88376.739628-22.806225-.504757-38.570056-1.224646-56.195609z" fill="url(#f)" opacity=".532787"/><path d="m18.996094 70.185547a4.4233935 4.4233935 0 0 0 -4.257813 3.228515c-.882342 3.145741-2.134113 4.634597-1.871093 4.439454.206528-.153231-2.400008.969313-6.5332036 1.496093a4.4233935 4.4233935 0 0 0 -3.8652344 4.386719v4.078125a4.4233935 4.4233935 0 0 0 4.4238281 4.423828h5.7382809v28.265629a4.4233935 4.4233935 0 0 0 4.423829 4.42382h5.697265a4.4233935 4.4233935 0 0 0 4.423828-4.42382v-45.894535a4.4233935 4.4233935 0 0 0 -4.423828-4.423828zm43.708984 0c-5.696877 0-10.829034 1.668415-14.33789 5.357422-3.508857 3.689006-5.060099 8.877922-5.230469 14.865234a4.4233935 4.4233935 0 0 0 4.421875 4.548828h5.695312a4.4233935 4.4233935 0 0 0 4.416016-4.162109c.181612-3.069241.928189-4.81836 1.597656-5.609375.669468-.791016 1.31098-1.167969 3.244141-1.167969 1.656493 0 2.500404.36308 3.425781 1.242188s1.212891 1.518827 1.212891 2.943359c0 2.00191-.700866 3.338618-3.988282 5.222656-.0011.000627-.000859.0013-.002.002l-5.93164 3.351563a4.4233935 4.4233935 0 0 0 -.0078.0059c-5.137296 2.915769-8.974326 5.936684-11.367187 9.662114-2.39492 3.6839-3.466932 8.31023-3.75 13.83007a4.4233935 4.4233935 0 0 0 4.417968 4.65039h30.554722a4.4233935 4.4233935 0 0 0 4.423828-4.423908v-5.63086a4.4233935 4.4233935 0 0 0 -4.423828-4.42383h-15.582031c.58238-.37506 1.075447-.73174 1.820312-1.13281a4.4233935 4.4233935 0 0 0 .0039-.004l6.472657-3.49609a4.4233935 4.4233935 0 0 0 .01953-.01c7.349748-4.01786 12.013672-10.362009 12.013672-17.734374 0-4.979824-1.930163-9.670979-5.50586-12.962891-3.585914-3.301317-8.408394-4.923828-13.613281-4.923828zm43.062502 0c-5.45999 0-10.393036 1.546356-13.791018 5.050781-3.397981 3.504426-4.878823 8.460277-5.001953 14.09961a4.4233935 4.4233935 0 0 0 4.421875 4.519531h5.695313a4.4233935 4.4233935 0 0 0 1.251953-.185547 4.4233935 4.4233935 0 0 0 -.107422.941406v4.855469a4.4233935 4.4233935 0 0 0 4.423832 4.423823h.71093a4.4233935 4.4233935 0 0 0 .12305-.002l2.2832-.0625c2.51587.002 3.72245.55929 4.20899.98633.48737.42778.87305.996.87305 2.93945 0 2.01159-.43107 2.87268-1.16993 3.60157-.73693.69118-1.75206 1.16601-3.92187 1.16601-2.35003 0-3.29754-.51538-3.82227-1.05469-.55607-.57152-1.23591-1.89863-1.41015-4.58203a4.4233935 4.4233935 0 0 0 -4.414066-4.13672h-5.695313a4.4233935 4.4233935 0 0 0 -4.412109 4.73243c.393904 5.63774 2.117144 10.53795 5.623047 13.96875 3.505902 3.43079 8.457541 4.96875 13.935551 4.96875 5.50855 0 10.54012-1.62915 14.25-5.04688 3.75373-3.42008 5.70898-8.36652 5.70898-13.68164 0-3.53078-.72468-6.81159-2.63086-9.480469-.53536-.761666-1.30209-1.299266-1.98242-1.921875 2.005-2.541597 3.25391-5.665792 3.25391-9.052734 0-4.859004-1.76268-9.434575-5.21094-12.535156-3.41952-3.112606-8.08249-4.511719-13.19336-4.511719zm.0645 13.832031c1.66577 0 2.25672.330942 2.76367.837891a4.4233935 4.4233935 0 0 0 .0957.09375c.52913.498004.80859.955365.80859 2.476562 0 1.897187-.18105 1.692158-.29688 1.75586a4.4233935 4.4233935 0 0 0 -.043.02344c-.39592.223337-2.82333.904998-6.59375.984375a4.4233935 4.4233935 0 0 0 -1.15821.185547 4.4233935 4.4233935 0 0 0 .10547-.814453c.0694-2.394964.58489-3.880897 1.16797-4.740235.22645-.325798.69864-.802734 3.15039-.802734z" fill="#fff" fill-opacity=".808824"/><text style="font-size:64.732002;font-family:sans-serif;letter-spacing:11.63640022;word-spacing:0;fill:#4d4d4d;stroke-width:1.6183" x="4.289008" y="120.50391"><tspan fill="#4d4d4d" font-family="FreeSans" letter-spacing="4" stroke-width="1.6183" x="4.289008" y="120.50391">123</tspan></text></svg>