<?xml version="1.0" encoding="UTF-8" standalone="no"?>
<svg
   xmlns:dc="http://purl.org/dc/elements/1.1/"
   xmlns:cc="http://creativecommons.org/ns#"
   xmlns:rdf="http://www.w3.org/1999/02/22-rdf-syntax-ns#"
   xmlns:svg="http://www.w3.org/2000/svg"
   xmlns="http://www.w3.org/2000/svg"
   xmlns:xlink="http://www.w3.org/1999/xlink"
   xmlns:sodipodi="http://sodipodi.sourceforge.net/DTD/sodipodi-0.dtd"
   xmlns:inkscape="http://www.inkscape.org/namespaces/inkscape"
   enable-background="new 0 0 128 128"
   height="128"
   viewBox="0 0 128 128"
   width="128"
   version="1.1"
   id="svg78"
   sodipodi:docname="lc_dbreportrename.svg"
   inkscape:version="0.92.2 (unknown)"
   inkscape:export-filename="/home/rizmut/Dokumen/Rizmut/Github/libreoffice-style-karasa-jaga/build/images_karasa_jaga/cmd/lc_dbreportrename.png"
   inkscape:export-xdpi="16.5"
   inkscape:export-ydpi="16.5">
  <metadata
     id="metadata84">
    <rdf:RDF>
      <cc:Work
         rdf:about="">
        <dc:format>image/svg+xml</dc:format>
        <dc:type
           rdf:resource="http://purl.org/dc/dcmitype/StillImage" />
        <dc:title></dc:title>
      </cc:Work>
    </rdf:RDF>
  </metadata>
  <defs
     id="defs82">
    <linearGradient
       id="linearGradient3489">
      <stop
         style="stop-color:#765c44;stop-opacity:1"
         offset="0"
         id="stop3491" />
      <stop
         style="stop-color:#765c44;stop-opacity:0"
         offset="1"
         id="stop3493" />
    </linearGradient>
    <filter
       id="filter3477-3-7"
       height="1.2774813"
       y="-0.13874064"
       width="1.279832"
       x="-0.13991599">
      <feGaussianBlur
         id="feGaussianBlur3479-6-5"
         stdDeviation="0.28784801"
         inkscape:collect="always" />
    </filter>
    <filter
       id="filter3175"
       height="1.2774813"
       y="-0.13874064"
       width="1.279832"
       x="-0.13991599">
      <feGaussianBlur
         id="feGaussianBlur3173"
         stdDeviation="0.28784801"
         inkscape:collect="always" />
    </filter>
    <linearGradient
       x1="304.88663"
       y1="385.86127"
       x2="345.62039"
       y2="384.62384"
       id="linearGradient3298-9"
       xlink:href="#linearGradient3489"
       gradientUnits="userSpaceOnUse" />
    <filter
       id="filter3186"
       height="1.2774813"
       y="-0.13874064"
       width="1.279832"
       x="-0.13991599">
      <feGaussianBlur
         id="feGaussianBlur3184"
         stdDeviation="0.28784801"
         inkscape:collect="always" />
    </filter>
    <linearGradient
       id="linearGradient3366">
      <stop
         style="stop-color:#ff8787;stop-opacity:1"
         offset="0"
         id="stop3368" />
      <stop
         style="stop-color:#ff8787;stop-opacity:0"
         offset="1"
         id="stop4472" />
    </linearGradient>
    <filter
       id="filter3194"
       height="1.2774813"
       y="-0.13874064"
       width="1.279832"
       x="-0.13991599">
      <feGaussianBlur
         id="feGaussianBlur3192"
         stdDeviation="0.28784801"
         inkscape:collect="always" />
    </filter>
    <linearGradient
       x1="31.90625"
       y1="13.510336"
       x2="34.875107"
       y2="13.510336"
       id="linearGradient3310-2"
       xlink:href="#linearGradient3207"
       gradientUnits="userSpaceOnUse"
       gradientTransform="translate(-0.3)"
       spreadMethod="reflect" />
    <linearGradient
       id="linearGradient3207">
      <stop
         style="stop-color:#ffffff;stop-opacity:1"
         offset="0"
         id="stop3209" />
      <stop
         style="stop-color:#790000;stop-opacity:0"
         offset="1"
         id="stop3211" />
    </linearGradient>
    <filter
       id="filter3202"
       height="1.2774813"
       y="-0.13874064"
       width="1.279832"
       x="-0.13991599">
      <feGaussianBlur
         id="feGaussianBlur3200"
         stdDeviation="0.28784801"
         inkscape:collect="always" />
    </filter>
    <filter
       id="filter3213"
       height="1.2774813"
       y="-0.13874064"
       width="1.279832"
       x="-0.13991599">
      <feGaussianBlur
         id="feGaussianBlur3211"
         stdDeviation="0.28784801"
         inkscape:collect="always" />
    </filter>
  </defs>
  <sodipodi:namedview
     pagecolor="#ffffff"
     bordercolor="#666666"
     borderopacity="1"
     objecttolerance="10"
     gridtolerance="10"
     guidetolerance="10"
     inkscape:pageopacity="0"
     inkscape:pageshadow="2"
     inkscape:window-width="1366"
     inkscape:window-height="706"
     id="namedview80"
     showgrid="false"
     inkscape:zoom="1"
     inkscape:cx="-192.66102"
     inkscape:cy="64"
     inkscape:window-x="0"
     inkscape:window-y="0"
     inkscape:window-maximized="1"
     inkscape:current-layer="svg78" />
  <radialGradient
     id="a"
     cx="102"
     cy="112.3047"
     gradientTransform="matrix(.94807 0 0 .9510679 3.32352 5.274458)"
     gradientUnits="userSpaceOnUse"
     r="139.55859">
    <stop
       offset="0"
       stop-color="#ececec"
       id="stop2" />
    <stop
       offset=".2363"
       stop-color="#fafafa"
       id="stop4" />
    <stop
       offset=".2722"
       stop-color="#fff"
       id="stop6" />
    <stop
       offset=".5313"
       stop-color="#fafafa"
       id="stop8" />
    <stop
       offset=".8449"
       stop-color="#ebecec"
       id="stop10" />
    <stop
       offset="1"
       stop-color="#e1e2e3"
       id="stop12" />
  </radialGradient>
  <radialGradient
     id="b"
     cx="100.8098464"
     cy="112.93460525694"
     gradientUnits="userSpaceOnUse"
     r="135.1875556917">
    <stop
       offset="0"
       stop-color="#f1f1f1"
       id="stop15" />
    <stop
       offset=".24349999"
       stop-color="#fcfcfc"
       id="stop17" />
    <stop
       offset=".2722"
       stop-color="#fff"
       id="stop19" />
  </radialGradient>
  <filter
     id="c">
    <feGaussianBlur
       stdDeviation="1.0394514"
       id="feGaussianBlur22" />
  </filter>
  <filter
     id="d">
    <feGaussianBlur
       stdDeviation=".50063244"
       id="feGaussianBlur25" />
  </filter>
  <g
     id="g916">
    <path
       id="path28"
       stroke-width="1.006155"
       opacity=".306849"
       filter="url(#c)"
       d="m15.566406 10.927734.019532 56.699219-.019532 56.699217h.041016 61.683594 35.142574v-34.941404-43.515625-34.941407h-35.142574-61.683594z" />
    <path
       id="path30"
       stroke-width="1.006155"
       opacity=".306849"
       filter="url(#c)"
       d="m15.566406 9.9589844.021485 57.4277346-.021485 56.939451h.041016 61.683594 35.142574v-34.941404-43.515625-35.9101566z" />
    <path
       id="path32"
       stroke-width="1.006155"
       opacity=".553425"
       filter="url(#c)"
       d="m15.566406 9.9277344.019532 57.1992186-.019532 57.199217h.041016 61.683594 35.142574v-34.941404-44.515625-34.9414066h-35.142574-61.683594z" />
    <path
       id="path34"
       transform="matrix(1.0090419 0 0 1.003276 -7.641977 .929762)"
       opacity=".89589"
       filter="url(#d)"
       d="m24.905735 10.673272.01426 110.189918 58.676001-.0001c.53 0 1.039-.211 1.414-.586l31.484-31.765934c.375-.375.586-.884.586-1.414l.0812-76.423884z" />
    <path
       id="path36"
       fill="url(#b)"
       d="m17.488281 11.638672.007813 55.27539-.007813 55.275388h.015625 59.25586 33.818354l-.05859-55.275388.05859-55.27539h-33.818354-59.25586z" />
    <path
       id="path38"
       fill="url(#a)"
       d="m24.066406 17.511719c-.522387 0-.947265.427133-.947265.951172l.162109 48.36914-.162109 48.369139c0 .52404.424878.95117.947265.95117h.322266 52.099609c.025634 0 .048754-.01352.074219-.01562l27.34961-.00781c.52333 0 .94727-.42714.94727-.95118l.26562-26.374996.15625-.152343c.17729-.17785.27734-.421743.27734-.671875l-.21289-21.146485.21289-21.146484c0-.250132-.10005-.495978-.27734-.673828l-.15625-.152344-.26562-26.375c0-.524039-.42394-.951172-.94727-.951172l-27.353516-.007812c-.024087-.001883-.046078-.013672-.070313-.013672h-52.099609z" />
    <path
       id="path40"
       opacity=".267606"
       fill-rule="evenodd"
       fill-opacity=".508571"
       fill="#4c9ac3"
       d="m34.9086 69.819h58.181004v5.8181h-58.181004z" />
    <path
       id="path42"
       opacity=".267606"
       fill-rule="evenodd"
       fill-opacity=".508571"
       fill="#4c9ac3"
       d="m34.9086 87.2733h58.181v5.8181h-58.181z" />
    <path
       id="path44"
       opacity=".267606"
       fill-rule="evenodd"
       fill-opacity=".508571"
       fill="#4c9ac3"
       d="m34.9086 104.7276h58.181v5.8181h-58.181z" />
    <g
       id="g58"
       fill-opacity=".72"
       fill="#2d2d2d">
      <rect
         id="rect46"
         y="17.4561"
         x="23.230604"
         width="5.859896"
         ry="1.081132"
         rx=".949647"
         height="5.8181" />
      <rect
         id="rect48"
         y="34.9104"
         x="23.230604"
         width="5.859896"
         ry="1.081132"
         rx=".949647"
         height="5.8181" />
      <rect
         id="rect50"
         y="52.3647"
         x="23.230604"
         width="5.859896"
         ry="1.081132"
         rx=".949647"
         height="5.8181" />
      <rect
         id="rect52"
         y="69.818993"
         x="23.230604"
         width="5.859896"
         ry="1.081132"
         rx=".949647"
         height="5.8181" />
      <rect
         id="rect54"
         y="87.2733"
         x="23.230604"
         width="5.859896"
         ry="1.081132"
         rx=".949647"
         height="5.8181" />
      <rect
         id="rect56"
         y="104.7276"
         x="23.230604"
         width="5.859896"
         ry="1.081132"
         rx=".949647"
         height="5.8181" />
    </g>
    <path
       id="path60"
       opacity=".267606"
       fill-rule="evenodd"
       fill-opacity=".508571"
       fill="#4c9ac3"
       d="m34.9086 17.456104h58.181v5.8181h-58.181z" />
    <path
       id="path62"
       opacity=".267606"
       fill-rule="evenodd"
       fill-opacity=".508571"
       fill="#4c9ac3"
       d="m34.9086 34.910404h58.181v5.8181h-58.181z" />
    <path
       id="path64"
       opacity=".267606"
       fill-rule="evenodd"
       fill-opacity=".508571"
       fill="#4c9ac3"
       d="m34.9086 52.364704h58.181v5.8181h-58.181z" />
    <rect
       id="rect66"
       y="17.4561"
       x="98.865906"
       width="5.859896"
       ry="1.081132"
       rx=".949647"
       height="5.8181"
       fill-opacity=".72"
       fill="#2d2d2d" />
    <rect
       id="rect68"
       y="34.9104"
       x="98.865906"
       width="5.859896"
       ry="1.081132"
       rx=".949647"
       height="5.8181"
       fill-opacity=".72"
       fill="#2d2d2d" />
    <rect
       id="rect70"
       y="52.3647"
       x="98.865906"
       width="5.859896"
       ry="1.081132"
       rx=".949647"
       height="5.8181"
       fill-opacity=".72"
       fill="#2d2d2d" />
    <rect
       id="rect72"
       y="69.818993"
       x="98.865906"
       width="5.859896"
       ry="1.081132"
       rx=".949647"
       height="5.8181"
       fill-opacity=".72"
       fill="#2d2d2d" />
    <rect
       id="rect74"
       y="87.2733"
       x="98.865906"
       width="5.859896"
       ry="1.081132"
       rx=".949647"
       height="5.8181"
       fill-opacity=".72"
       fill="#2d2d2d" />
    <rect
       id="rect76"
       y="104.7276"
       x="98.865906"
       width="5.859896"
       ry="1.081132"
       rx=".949647"
       height="5.8181"
       fill-opacity=".72"
       fill="#2d2d2d" />
  </g>
  <path
     style="fill:#55acd1;stroke-width:3.77952743"
     inkscape:connector-curvature="0"
     id="path49"
     d="M 29.090498,58.182878 H 93.0896 V 104.72761 H 29.090498 Z" />
  <text
     id="text55"
     y="92.096878"
     x="36.722183"
     style="font-size:37.54341125px;font-family:sans-serif;letter-spacing:0;word-spacing:0;fill:#ffffff;stroke-width:2.18364072">
    <tspan
       style="font-weight:500;font-family:Roboto;fill:#ffffff;stroke-width:2.18364072"
       id="tspan53"
       y="92.096878"
       x="36.722183"
       font-weight="500">AB</tspan>
  </text>
  <g
     id="g63"
     transform="matrix(0,3.7795275,-3.7795275,0,0,-994.51962)">
    <path
       inkscape:connector-curvature="0"
       id="path59"
       d="m 275.44876,-29.248074 h 1.53938 v 7.696862 h -1.53938 z" />
    <path
       inkscape:connector-curvature="0"
       id="path61"
       d="m 290.8425,-29.248074 h 1.53936 v 7.696862 h -1.53936 z" />
  </g>
  <path
     style="stroke-width:3.77952743"
     inkscape:connector-curvature="0"
     id="path57"
     d="m 93.0896,52.364749 h 5.818095 V 104.72765 H 93.0896 Z" />
</svg>
