<svg height="176" width="176" xmlns="http://www.w3.org/2000/svg" xmlns:xlink="http://www.w3.org/1999/xlink"><linearGradient id="a"><stop offset="0" stop-color="#bbd6ff"/><stop offset="1" stop-color="#0057ae"/></linearGradient><linearGradient id="b"><stop offset="0" stop-color="#ececec"/><stop offset="1" stop-color="#8696aa"/></linearGradient><linearGradient id="c"><stop offset="0" stop-color="#d4e2f3"/><stop offset="1" stop-color="#fff" stop-opacity="0"/></linearGradient><linearGradient id="d"><stop offset="0" stop-color="#fff"/><stop offset="1" stop-color="#fff" stop-opacity="0"/></linearGradient><filter id="e"><feGaussianBlur stdDeviation=".385"/></filter><linearGradient id="f" gradientUnits="userSpaceOnUse" x1="123.231171" x2="150.63911" y1="63.712187" y2="166"><stop offset="0" stop-color="#2c72c7"/><stop offset="1" stop-color="#00438a"/></linearGradient><linearGradient id="g" gradientUnits="userSpaceOnUse" x1="150.37838" x2="148.9539" xlink:href="#a" y1="79.786964" y2="169.69691"/><linearGradient id="h" gradientUnits="userSpaceOnUse" x1="160.5" x2="171.74562" xlink:href="#d" y1="162.5" y2="40.432803"/><radialGradient id="i" cx="56" cy="66" gradientTransform="matrix(1.3633683 0 0 2.5290688 -28.848628 -99.010812)" gradientUnits="userSpaceOnUse" r="48"><stop offset="0" stop-color="#fff"/><stop offset="1" stop-color="#eee"/></radialGradient><linearGradient id="j" gradientTransform="matrix(.857143 0 0 1.2 17.142857 17.6)" gradientUnits="userSpaceOnUse" x1="86.50396" x2="86.50396" xlink:href="#b" y1="37.416798" y2="8.61134"/><linearGradient id="k" gradientUnits="userSpaceOnUse" x1="140" x2="140" xlink:href="#c" y1="162" y2="99.11084"/><linearGradient id="l" gradientTransform="matrix(.857143 0 0 1.2 17.142857 81.6)" gradientUnits="userSpaceOnUse" x1="86.50396" x2="86.50396" xlink:href="#b" y1="37.416798" y2="8.61134"/><linearGradient id="m" gradientTransform="matrix(1 0 0 -1 35.999999 132)" gradientUnits="userSpaceOnUse" x1="114.37838" x2="112.9539" xlink:href="#a" y1="37.786964" y2="127.69691"/><linearGradient id="n" gradientUnits="userSpaceOnUse" x1="124.5" x2="135.74562" xlink:href="#d" y1="125" y2="2.932803"/><linearGradient id="o" gradientTransform="matrix(1 0 0 -1 35.999999 132)" gradientUnits="userSpaceOnUse" x1="104" x2="104" xlink:href="#c" y1="120" y2="57.11084"/><g transform="matrix(1 0 0 1.2262774 24.5 4.726277)"><path d="m-16.5 2.999996h128v130.55357h-128z" style="opacity:.5;fill:none;stroke:#000;stroke-width:7.224297;stroke-linecap:round;stroke-linejoin:round"/><path d="m-16.5 3h128v130.14583h-128z" fill="#fff"/><path d="m-8.5 9.193453h112v117.42857h-112z" fill="url(#i)"/></g><rect fill="url(#j)" height="24" opacity=".25" rx="3.052464" ry="3.052465" width="96" x="24" y="32"/><rect fill="url(#l)" height="24" opacity=".25" rx="3.052464" ry="3.052465" width="96" x="24" y="96"/><path d="m-96 104h24v8h-24z" opacity=".3" transform="scale(-1 1)"/><path d="m-96 40h24v8h-24z" opacity=".3" transform="scale(-1 1)"/><path d="m32 136h16v8h-16z" opacity=".3"/><path d="m32 72h16v8h-16z" opacity=".3"/><path d="m131.5 12-20 20h16v6 98 6h-16l20 20 20-20h-16v-6-98-6h16z" fill="none" stroke="#fff" stroke-linecap="round" stroke-linejoin="round" stroke-width="16"/><path d="m140 10-20 22h16v6 98 6h-16l20 22 20-22h-16v-6-98-6h16z" fill="none" stroke="url(#f)" stroke-linecap="round" stroke-linejoin="round" stroke-width="16"/><path d="m140 162-20-20h16v-104h8v104h16z" fill="url(#g)" fill-rule="evenodd"/><path d="m140 162-20-20h16v-64h8v64h16z" fill="none" filter="url(#e)" opacity=".898396" stroke="url(#h)"/><path d="m140 162-20-20h16v-55.15625c2.72925.692534 5.40416 1.45519 8 2.28125v52.875h16z" fill="url(#k)" fill-rule="evenodd"/><path d="m-64 40h32v8h-32z" opacity=".3" transform="scale(-1 1)"/><path d="m56 72h40v8h-40z" opacity=".3"/><path d="m-64 104h32v8h-32z" opacity=".3" transform="scale(-1 1)"/><path d="m56 136h40v8h-40z" opacity=".3"/><path d="m140 12-20 20h16v104h8v-104h16z" fill="url(#m)" fill-rule="evenodd"/><path d="m104 124.5-20-20h16v-64h8v64h16z" fill="none" filter="url(#e)" opacity=".898396" stroke="url(#n)" transform="matrix(1 0 0 -1 35.999999 136.5)"/><path d="m140 12-20 20h16v55.15625c2.72925-.692534 5.40416-1.45519 8-2.28125v-52.875h16z" fill="url(#o)" fill-rule="evenodd"/></svg>