<svg height="128" viewBox="0 0 33.866666 33.866668" width="128" xmlns="http://www.w3.org/2000/svg" xmlns:xlink="http://www.w3.org/1999/xlink"><filter id="a"><feGaussianBlur stdDeviation="1.5999062"/></filter><linearGradient id="b" gradientTransform="matrix(.02142366 0 0 .03098456 -.332092 260.9232)" gradientUnits="userSpaceOnUse" x1="399.77466" x2="399.77466" y1="731.09662" y2="480.60214"><stop offset="0" stop-color="#cbcbcd"/><stop offset=".5" stop-color="#e0e0e2"/><stop offset="1" stop-color="#f2f2f2"/></linearGradient><linearGradient id="c" gradientTransform="matrix(.02142366 0 0 .03098456 20.736322 323.59667)" gradientUnits="userSpaceOnUse" x1="-333.0289" x2="-333.0289" y1="-1473.6504" y2="-776.61371"><stop offset="0" stop-color="#fff"/><stop offset=".49140647" stop-color="#fff"/><stop offset="1" stop-color="#dcdcdc"/></linearGradient><linearGradient id="d" gradientUnits="userSpaceOnUse" x1="98.9077" x2="98.9077" y1="46.5466" y2="162.9086"><stop offset="0" stop-color="#99999c"/><stop offset=".5" stop-color="#9c9ca1"/><stop offset="1" stop-color="#cdcdd1"/></linearGradient><linearGradient id="e" gradientUnits="userSpaceOnUse" x1="78.61085034347" x2="120.34349451992" y1="88.85241574791" y2="111.54715161013"><stop offset="0" stop-color="#fff"/><stop offset="1" stop-color="#ccc"/></linearGradient><linearGradient id="f" gradientUnits="userSpaceOnUse" x1="88.38102" x2="130.48599" y1="1008.9966" y2="1015.6953"><stop offset="0" stop-color="#7b7b7b"/><stop offset="1" stop-color="#797979" stop-opacity="0"/></linearGradient><clipPath id="g"><path d="m41.355614 933.74432h83.943993v117.52166h-83.943993z"/></clipPath><filter id="h" color-interpolation-filters="sRGB" height="1.073732" width="1.13754" x="-.06877" y="-.036866"><feGaussianBlur stdDeviation="1.0557314"/></filter><linearGradient id="i" gradientUnits="userSpaceOnUse" x1="100.83452" x2="116.42799" y1="37.992622" y2="80.92411"><stop offset="0" stop-color="#fff" stop-opacity=".683453"/><stop offset="1" stop-color="#fff" stop-opacity="0"/></linearGradient><linearGradient id="j" gradientTransform="matrix(.58291629 0 0 .66676377 62.177025 -566.68964)" gradientUnits="userSpaceOnUse" x1="63.011921" x2="63.011921" y1="945.89801" y2="1033.1569"><stop offset="0" stop-color="#545454" stop-opacity=".988"/><stop offset="1" stop-color="#ebebeb"/></linearGradient><linearGradient id="k" gradientTransform="matrix(.48045402 0 0 .66178602 128.73476 -578.51587)" gradientUnits="userSpaceOnUse" x1="-60.535713" x2="-60.357143" y1="979.50507" y2="1009.505"><stop offset="0" stop-color="#979797"/><stop offset=".148461" stop-color="#f6f6f6"/><stop offset=".28399727" stop-color="#e2e2e2"/><stop offset=".41198727" stop-color="#dedede"/><stop offset=".41198727" stop-color="#f6f6f6"/><stop offset="1" stop-color="#6b6b6b"/></linearGradient><linearGradient id="l" gradientTransform="matrix(.480454 0 0 .58309338 128.76683 499.76645)" gradientUnits="userSpaceOnUse" x1="-61.078979" x2="-60.6413" y1="-1056.658" y2="-1010.9131"><stop offset="0" stop-color="#777"/><stop offset=".18176934" stop-color="#a8a8a8"/><stop offset=".22864534" stop-color="#cdcdcd"/><stop offset=".34561315" stop-color="#f7f7f7"/><stop offset="1" stop-color="#fff"/></linearGradient><g transform="matrix(1.45455 0 0 1.45455 -.000053 -399.67401)"><path d="m9.3814603 6.4002109h77.2232807c.76597 0 1.38261.72808 1.38261 1.63246v60.7371801c0 .90439-.61664 1.63247-1.38261 1.63247h-77.2232807c-.765966 0-1.38261-.72808-1.38261-1.63247v-60.7371801c0-.90438.616644-1.63246 1.38261-1.63246z" style="opacity:.4;fill:none;stroke:#000;stroke-width:4;stroke-linecap:round;stroke-linejoin:round;stroke-dashoffset:4;filter:url(#a)" transform="matrix(.26458333 0 0 .26458333 -1.056508 276.25632)"/><path d="m1.4242005 277.94999h20.4349305c.20269 0 .365869.19263.365869.43191v16.06951h-21.1666674v-16.06951c0-.23928.163177-.43191.3658679-.43191z" fill="url(#b)"/><path d="m13.9017 281.90108v-.50836z" fill="#fff" fill-opacity=".756881"/><path d="m1.4221355 277.94999c-.202691 0-.3638021.19067-.3638021.42994v16.07344c0 .23928.1611111.42995.3638021.42995h20.4390625c.202692 0 .363802-.19067.363802-.42995v-16.07344c0-.23927-.16111-.42994-.363802-.42994zm.2480468.64492h19.9429687c.192556 0 .347266.18063.347266.40514v15.21354c0 .22451-.15471.40515-.347266.40515h-19.9429687c-.1925563 0-.3472656-.18064-.3472656-.40515v-15.21354c0-.22451.1547093-.40514.3472656-.40514z" fill="url(#c)"/><path d="m1.0583334 283.24165v2.91042.96997 2.91041.97049 3.88038h6.3499999 1.0583333 6.3500004 1.058333 6.35v-3.88038-.97049-2.91041-.96997-2.91042h-6.35-1.058333-6.3500004-1.0583333z" fill="#fff"/><g fill="#cfcfd1"><path d="m3.174999 285.35831h7.408333v1.058333h-7.408333z"/><path d="m12.7 285.35831h7.408334v1.058333h-7.408334z"/><path d="m3.174999 289.59164h7.408333v1.058333h-7.408333z"/><path d="m12.7 289.59164h7.408334v1.058333h-7.408334z"/><path d="m3.174999 291.70831h7.408333v1.058333h-7.408333z"/><path d="m12.7 291.70831h7.408334v1.058333h-7.408334z"/><path d="m3.174999 287.47498h7.408333v1.058333h-7.408333z"/><path d="m12.7 287.47498h7.408334v1.058333h-7.408334z"/></g></g><g transform="scale(.26458333)"><path d="m69.8172 46.546616h58.180996v81.453445h-58.180996z" fill="url(#d)"/><path d="m75.6353 52.3647h46.5448v69.817215h-46.5448z" fill="url(#e)"/><path clip-path="url(#g)" d="m92.81509 1029.6319c1.071428 1.4286 10.71429 15.3572 11.78571 13.5715 1.07143-1.7858 26.42857-25.3572 25-26.7858-1.42857-1.4285-33.928567-41.78567-33.928567-41.78567z" fill="url(#f)" fill-rule="evenodd" filter="url(#h)" opacity=".68" transform="matrix(.69309305 0 0 .69309305 41.153912 -600.6251)"/><path d="m75.6353 52.3647v47.28063c14.171661-16.500095 33.53848-23.157342 46.54439-25.022283v-22.257813z" fill="url(#i)" fill-rule="evenodd"/><path d="m87.2715 64.0009h23.2724v46.5448h-23.2724z" fill="url(#j)"/><path d="m89.925598 66.798828h17.686728v41.164684h-17.686728z" fill="#535353"/><path d="m93.0896 69.819h11.6362v17.4543h-11.6362z" fill="url(#k)"/><path d="m93.0896-116.3638h11.636201v29.0905h-11.636201z" fill="url(#l)" transform="scale(1 -1)"/></g></svg>