<svg height="128" width="128" xmlns="http://www.w3.org/2000/svg" xmlns:xlink="http://www.w3.org/1999/xlink"><linearGradient id="a" gradientUnits="userSpaceOnUse" x1="3.9985" x2="47.998501" y1="60" y2="60"><stop offset="0" stop-color="#245795"/><stop offset="1" stop-color="#afd4ff"/></linearGradient><linearGradient id="b"><stop offset="0" stop-color="#9fbde2"/><stop offset="1" stop-color="#fff"/></linearGradient><linearGradient id="c"><stop offset="0" stop-color="#fff"/><stop offset="1" stop-color="#fff" stop-opacity="0"/></linearGradient><linearGradient id="d" gradientUnits="userSpaceOnUse" x1="28.96399950888" x2="43.79507243274" xlink:href="#c" y1="61.25226233158" y2="86.94043349365"/><linearGradient id="e" gradientUnits="userSpaceOnUse" x1="43.4595278" x2="43.4595278" xlink:href="#b" y1="96.0840966" y2="47.1042338"/><linearGradient id="f" gradientUnits="userSpaceOnUse" x1="34.7004036529" x2="34.7004036529" xlink:href="#a" y1="114.03192278155" y2="46.54638108043"/><linearGradient id="g" gradientUnits="userSpaceOnUse" x1="63.7909036529" x2="63.7909036529" xlink:href="#a" y1="114.03192278155" y2="17.45594860786"/><linearGradient id="h" gradientUnits="userSpaceOnUse" x1="72.5500278" x2="72.5500278" xlink:href="#b" y1="96.0840966" y2="47.1042338"/><linearGradient id="i" gradientUnits="userSpaceOnUse" x1="62.50185952644" x2="72.88557243274" xlink:href="#c" y1="42.48788657628" y2="81.24043349365"/><linearGradient id="j" gradientUnits="userSpaceOnUse" x1="92.4504016529" x2="92.4504016529" xlink:href="#a" y1="114.03192278155" y2="46.54638108043"/><linearGradient id="k" gradientUnits="userSpaceOnUse" x1="101.2095268" x2="101.2095268" xlink:href="#b" y1="96.0840966" y2="47.1042338"/><linearGradient id="l" gradientUnits="userSpaceOnUse" x1="86.71399850888" x2="101.54507143274" xlink:href="#c" y1="61.25226233158" y2="86.94043349365"/><linearGradient id="m" gradientUnits="userSpaceOnUse" x1="98.9077" x2="98.9077" y1="46.5466" y2="162.9086"><stop offset="0" stop-color="#99999c"/><stop offset=".5" stop-color="#9c9ca1"/><stop offset="1" stop-color="#cdcdd1"/></linearGradient><linearGradient id="n" gradientUnits="userSpaceOnUse" x1="78.61085034347" x2="120.34349451992" y1="88.85241574791" y2="111.54715161013"><stop offset="0" stop-color="#fff"/><stop offset="1" stop-color="#ccc"/></linearGradient><linearGradient id="o" gradientUnits="userSpaceOnUse" x1="88.38102" x2="130.48599" y1="1008.9966" y2="1015.6953"><stop offset="0" stop-color="#7b7b7b"/><stop offset="1" stop-color="#797979" stop-opacity="0"/></linearGradient><clipPath id="p"><path d="m41.355614 933.74432h83.943993v117.52166h-83.943993z"/></clipPath><filter id="q" color-interpolation-filters="sRGB" height="1.073732" width="1.13754" x="-.06877" y="-.036866"><feGaussianBlur stdDeviation="1.0557314"/></filter><linearGradient id="r" gradientUnits="userSpaceOnUse" x1="100.83452" x2="116.42799" y1="37.992622" y2="80.92411"><stop offset="0" stop-color="#fff" stop-opacity=".683453"/><stop offset="1" stop-color="#fff" stop-opacity="0"/></linearGradient><linearGradient id="s" gradientTransform="matrix(.58291629 0 0 .66676377 62.177025 -566.68964)" gradientUnits="userSpaceOnUse" x1="63.011921" x2="63.011921" y1="945.89801" y2="1033.1569"><stop offset="0" stop-color="#545454" stop-opacity=".988"/><stop offset="1" stop-color="#ebebeb"/></linearGradient><linearGradient id="t" gradientTransform="matrix(.48045402 0 0 .66178602 128.73476 -578.51587)" gradientUnits="userSpaceOnUse" x1="-60.535713" x2="-60.357143" y1="979.50507" y2="1009.505"><stop offset="0" stop-color="#979797"/><stop offset=".148461" stop-color="#f6f6f6"/><stop offset=".28399727" stop-color="#e2e2e2"/><stop offset=".41198727" stop-color="#dedede"/><stop offset=".41198727" stop-color="#f6f6f6"/><stop offset="1" stop-color="#6b6b6b"/></linearGradient><linearGradient id="u" gradientTransform="matrix(.480454 0 0 .58309338 128.76683 499.76645)" gradientUnits="userSpaceOnUse" x1="-61.078979" x2="-60.6413" y1="-1056.658" y2="-1010.9131"><stop offset="0" stop-color="#777"/><stop offset=".18176934" stop-color="#a8a8a8"/><stop offset=".22864534" stop-color="#cdcdcd"/><stop offset=".34561315" stop-color="#f7f7f7"/><stop offset="1" stop-color="#fff"/></linearGradient><path d="m5.818101 87.2733h11.6362v5.8181h-11.6362z" fill="#787878" fill-opacity=".615686"/><path d="m-122.1819 34.9086h11.6362v5.8181h-11.6362z" fill="#787878" fill-opacity=".615686" transform="rotate(-90)"/><path d="m14.54525 5.8199002 2.90905 5.8180998 5.8181 11.6362h-5.8181v93.0896h-5.8181v-93.0896h-5.8180999l5.8180999-11.6362z" fill="#797979" opacity=".613861"/><path d="m122.1801 113.45475-5.8181 2.90905-11.6362 5.8181v-5.8181h-87.2715v-5.8181h87.2715v-5.8181l11.6362 5.8181z" fill="#797979" opacity=".613861"/><g fill="#787878" fill-opacity=".615686"><path d="m-122.1819 58.181h11.6362v5.8181h-11.6362z" transform="rotate(-90)"/><path d="m-122.1819 81.4534h11.6362v5.8181h-11.6362z" transform="rotate(-90)"/><path d="m5.818101 64.0009h11.6362v5.8181h-11.6362z"/><path d="m5.818101 40.7285h11.6362v5.8181h-11.6362z"/></g><rect fill="url(#f)" height="46.5448" rx="4.620945" width="23.23558" x="23.272398" y="64.0009"/><rect fill="url(#e)" height="34.908604" rx="1.273309" width="11.524673" x="29.05368" y="69.819"/><path d="m30.336707 69.84425c-.70542 0-1.28303.577608-1.28303 1.28302v16.994392c4.50469-.917739 8.51302-3.235802 11.52468-6.482629v-10.511763c0-.705413-.57762-1.28302-1.28302-1.28302z" fill="url(#d)"/><rect fill="url(#g)" height="69.8172" rx="4.620945" width="23.23558" x="52.3629" y="40.7285"/><rect fill="url(#h)" height="58.181004" rx="1.273309" width="11.524673" x="58.14418" y="46.5466"/><path d="m59.427207 46.44425c-.70542 0-1.28303.577608-1.28303 1.28302v26.994392c4.50469-.917739 8.51302-3.235802 11.52468-6.482629v-20.511763c0-.705413-.57762-1.28302-1.28302-1.28302z" fill="url(#i)"/><rect fill="url(#j)" height="52.3629" rx="4.620945" width="23.2724" x="81.41658" y="58.1828"/><rect fill="url(#k)" height="40.7267" rx="1.273309" width="11.6362" x="87.23468" y="64.0009"/><path d="m88.535476 64.119c-.70542 0-1.28303.577608-1.28303 1.28302v16.994392c4.50469-.917739 8.513023-3.235802 11.524683-6.482629v-10.511763c0-.705413-.57762-1.28302-1.28302-1.28302z" fill="url(#l)"/><g transform="translate(-69.8172)"><path d="m69.8172 46.546616h58.180996v81.453445h-58.180996z" fill="url(#m)"/><path d="m75.6353 52.3647h46.5448v69.817215h-46.5448z" fill="url(#n)"/><path clip-path="url(#p)" d="m92.81509 1029.6319c1.071428 1.4286 10.71429 15.3572 11.78571 13.5715 1.07143-1.7858 26.42857-25.3572 25-26.7858-1.42857-1.4285-33.928567-41.78567-33.928567-41.78567z" fill="url(#o)" fill-rule="evenodd" filter="url(#q)" opacity=".68" transform="matrix(.69309305 0 0 .69309305 41.153912 -600.6251)"/><path d="m75.6353 52.3647v47.28063c14.171661-16.500095 33.53848-23.157342 46.54439-25.022283v-22.257813z" fill="url(#r)" fill-rule="evenodd"/><path d="m87.2715 64.0009h23.2724v46.5448h-23.2724z" fill="url(#s)"/><path d="m89.925598 66.798828h17.686728v41.164684h-17.686728z" fill="#535353"/><path d="m93.0896 69.819h11.6362v17.4543h-11.6362z" fill="url(#t)"/><path d="m93.0896-116.3638h11.636201v29.0905h-11.636201z" fill="url(#u)" transform="scale(1 -1)"/></g></svg>