<svg enable-background="new 0 0 128 128" height="128" viewBox="0 0 128 128" width="128" xmlns="http://www.w3.org/2000/svg" xmlns:xlink="http://www.w3.org/1999/xlink"><radialGradient id="a" cx="102" cy="112.3047" gradientTransform="matrix(.94807 0 0 .9510679 3.32352 5.274458)" gradientUnits="userSpaceOnUse" r="139.55859"><stop offset="0" stop-color="#ececec"/><stop offset=".2363" stop-color="#fafafa"/><stop offset=".2722" stop-color="#fff"/><stop offset=".5313" stop-color="#fafafa"/><stop offset=".8449" stop-color="#ebecec"/><stop offset="1" stop-color="#e1e2e3"/></radialGradient><radialGradient id="b" cx="100.8098464" cy="112.93460525694" gradientUnits="userSpaceOnUse" r="135.1875556917"><stop offset="0" stop-color="#f1f1f1"/><stop offset=".24349999" stop-color="#fcfcfc"/><stop offset=".2722" stop-color="#fff"/></radialGradient><filter id="c"><feGaussianBlur stdDeviation="1.0394514"/></filter><filter id="d"><feGaussianBlur stdDeviation=".50063244"/></filter><filter id="e" color-interpolation-filters="sRGB" height="1.072142" width="1.071866" x="-.035933" y="-.036071"><feGaussianBlur stdDeviation=".66434216"/></filter><radialGradient id="f" cx="-55.685837" cy="-347.11612" gradientTransform="matrix(-.89528211 -.23989009 .26001404 -.9703857 -29.034684 -654.02683)" gradientUnits="userSpaceOnUse" r="22.14249"><stop offset="0" stop-color="#82c133"/><stop offset="1" stop-color="#72b028"/></radialGradient><linearGradient id="g" gradientUnits="userSpaceOnUse" x1="328.12448" x2="336.98077" y1="120.81158" y2="87.759453"><stop offset="0" stop-color="#96ff00"/><stop offset="1" stop-color="#609800"/></linearGradient><clipPath id="h"><circle cx="343.91208" cy="92.325096" r="36" transform="matrix(.86602539 .50000002 .49999965 -.86602561 0 0)"/></clipPath><filter id="i"><feGaussianBlur stdDeviation="2.8805897"/></filter><radialGradient id="j" cx="343.99899" cy="92" gradientTransform="matrix(.47032074 0 0 .4703204 -235.54627 -330.99181)" gradientUnits="userSpaceOnUse" r="36"><stop offset="0" stop-color="#e5ff00"/><stop offset="1" stop-color="#bff500" stop-opacity="0"/></radialGradient><linearGradient id="k" gradientUnits="userSpaceOnUse" x1="122.000035" x2="122.000035" y1="61.999997" y2="9.932843"><stop offset="0" stop-color="#004d00" stop-opacity="0"/><stop offset=".5" stop-color="#004d00"/><stop offset="1" stop-color="#004d00" stop-opacity="0"/></linearGradient><filter id="l"><feGaussianBlur stdDeviation="1.04"/></filter><linearGradient id="m" gradientTransform="matrix(0 .47393418 -.47393451 0 83.152635 278.87871)" gradientUnits="userSpaceOnUse" x1="-80.00296" x2="-45.096584" y1="-131.93112" y2="-131.93112"><stop offset="0" stop-color="#fff"/><stop offset="1" stop-color="#fff" stop-opacity="0"/></linearGradient><path d="m15.566406 10.927734.019532 56.699219-.019532 56.699217h.041016 61.683594 35.142574v-34.941404-43.515625-34.941407h-35.142574-61.683594z" filter="url(#c)" opacity=".306849" stroke-width="1.006155"/><path d="m15.566406 9.9589844.021485 57.4277346-.021485 56.939451h.041016 61.683594 35.142574v-34.941404-43.515625-35.9101566z" filter="url(#c)" opacity=".306849" stroke-width="1.006155"/><path d="m15.566406 9.9277344.019532 57.1992186-.019532 57.199217h.041016 61.683594 35.142574v-34.941404-44.515625-34.9414066h-35.142574-61.683594z" filter="url(#c)" opacity=".553425" stroke-width="1.006155"/><path d="m24.905735 10.673272.01426 110.189918 58.676001-.0001c.53 0 1.039-.211 1.414-.586l31.484-31.765934c.375-.375.586-.884.586-1.414l.0812-76.423884z" filter="url(#d)" opacity=".89589" transform="matrix(1.0090419 0 0 1.003276 -7.641977 .929762)"/><path d="m17.488281 11.638672.007813 55.27539-.007813 55.275388h.015625 59.25586 33.818354l-.05859-55.275388.05859-55.27539h-33.818354-59.25586z" fill="url(#b)"/><path d="m24.066406 17.511719c-.522387 0-.947265.427133-.947265.951172l.162109 48.36914-.162109 48.369139c0 .52404.424878.95117.947265.95117h.322266 52.099609c.025634 0 .048754-.01352.074219-.01562l27.34961-.00781c.52333 0 .94727-.42714.94727-.95118l.26562-26.374996.15625-.152343c.17729-.17785.27734-.421743.27734-.671875l-.21289-21.146485.21289-21.146484c0-.250132-.10005-.495978-.27734-.673828l-.15625-.152344-.26562-26.375c0-.524039-.42394-.951172-.94727-.951172l-27.353516-.007812c-.024087-.001883-.046078-.013672-.070313-.013672h-52.099609z" fill="url(#a)"/><path d="m34.9086 69.819h58.181004v5.8181h-58.181004z" fill="#4c9ac3" fill-opacity=".508571" fill-rule="evenodd" opacity=".267606"/><path d="m34.9086 87.2733h58.181v5.8181h-58.181z" fill="#4c9ac3" fill-opacity=".508571" fill-rule="evenodd" opacity=".267606"/><path d="m34.9086 104.7276h58.181v5.8181h-58.181z" fill="#4c9ac3" fill-opacity=".508571" fill-rule="evenodd" opacity=".267606"/><g fill="#2d2d2d" fill-opacity=".72"><rect height="5.8181" rx=".949647" ry="1.081132" width="5.859896" x="23.230604" y="17.4561"/><rect height="5.8181" rx=".949647" ry="1.081132" width="5.859896" x="23.230604" y="34.9104"/><rect height="5.8181" rx=".949647" ry="1.081132" width="5.859896" x="23.230604" y="52.3647"/><rect height="5.8181" rx=".949647" ry="1.081132" width="5.859896" x="23.230604" y="69.818993"/><rect height="5.8181" rx=".949647" ry="1.081132" width="5.859896" x="23.230604" y="87.2733"/><rect height="5.8181" rx=".949647" ry="1.081132" width="5.859896" x="23.230604" y="104.7276"/></g><path d="m34.9086 17.456104h58.181v5.8181h-58.181z" fill="#4c9ac3" fill-opacity=".508571" fill-rule="evenodd" opacity=".267606"/><path d="m34.9086 34.910404h58.181v5.8181h-58.181z" fill="#4c9ac3" fill-opacity=".508571" fill-rule="evenodd" opacity=".267606"/><path d="m34.9086 52.364704h58.181v5.8181h-58.181z" fill="#4c9ac3" fill-opacity=".508571" fill-rule="evenodd" opacity=".267606"/><rect fill="#2d2d2d" fill-opacity=".72" height="5.8181" rx=".949647" ry="1.081132" width="5.859896" x="98.865906" y="17.4561"/><rect fill="#2d2d2d" fill-opacity=".72" height="5.8181" rx=".949647" ry="1.081132" width="5.859896" x="98.865906" y="34.9104"/><rect fill="#2d2d2d" fill-opacity=".72" height="5.8181" rx=".949647" ry="1.081132" width="5.859896" x="98.865906" y="52.3647"/><rect fill="#2d2d2d" fill-opacity=".72" height="5.8181" rx=".949647" ry="1.081132" width="5.859896" x="98.865906" y="69.818993"/><rect fill="#2d2d2d" fill-opacity=".72" height="5.8181" rx=".949647" ry="1.081132" width="5.859896" x="98.865906" y="87.2733"/><rect fill="#2d2d2d" fill-opacity=".72" height="5.8181" rx=".949647" ry="1.081132" width="5.859896" x="98.865906" y="104.7276"/><g transform="matrix(1.45455 0 0 1.45455 -117.25775 -344.12033)"><ellipse cx="-207.73613" cy="212.29665" fill="none" rx="20.523085" ry="20.523069" stroke-width=".570085" transform="matrix(-.96592587 -.2588189 -.25881915 .9659258 0 0)"/><ellipse cx="-59.830322" cy="-331.66757" fill="#292929" filter="url(#e)" rx="22.14249" ry="22.142477" transform="matrix(-.89809327 .23387197 -.24064319 -.8728227 12.164424 -15.390993)"/><ellipse cx="-73.756378" cy="-287.72238" fill="url(#f)" rx="20.523085" ry="20.523069" transform="matrix(-.96592587 .25881888 -.25881888 -.96592587 0 0)"/><circle cx="343.99899" cy="92" r="36" style="opacity:.8;fill:none;stroke-width:6.751382;clip-path:url(#h);stroke:url(#g);filter:url(#i)" transform="matrix(-.55066046 -.14754894 -.14754899 .55066008 348.7124 258.92482)"/><ellipse cx="-73.756401" cy="-287.72238" fill="url(#j)" rx="16.931545" ry="16.931536" stroke-width=".470321" transform="matrix(-.96592583 .25881905 -.25881905 -.96592583 0 0)"/><path d="m120.01465 24.819615v9.194998h-7.32125v3.970777h7.32125v9.194998h3.97076v-9.194998h7.32126v-3.970777h-7.32126v-9.194998z" style="fill:none;stroke-width:4;stroke-linecap:round;stroke-linejoin:round;stroke:url(#k);filter:url(#l)" transform="matrix(1.2017106 0 0 1.2017106 -.897549 217.33317)"/><path d="m141.84828 244.34507v10.13508h-10.13507v7.72576h10.13507v10.13508h7.7258v-10.13508h10.13506v-7.72576h-10.13506v-10.13508z" fill="#fff" fill-rule="evenodd"/><path d="m145.71127 240.96258c-7.27803 0-13.35947 5.13926-14.82526 11.98165 2.92172 2.72366 8.46549 4.56161 14.82526 4.56161s11.90353-1.83795 14.82523-4.56161c-1.46576-6.84239-7.54721-11.98165-14.82523-11.98165z" fill="url(#m)" opacity=".8" stroke-width=".789785"/></g></svg>