<svg height="128" viewBox="0 0 33.866666 33.866668" width="128" xmlns="http://www.w3.org/2000/svg" xmlns:xlink="http://www.w3.org/1999/xlink"><linearGradient id="a"><stop offset="0" stop-color="#9fc1f2"/><stop offset=".5" stop-color="#587eb5"/><stop offset="1" stop-color="#0c2a58"/></linearGradient><linearGradient id="b" gradientTransform="matrix(0 1 -1 0 -39.9985 140.0029)" gradientUnits="userSpaceOnUse" x1="-84.002403" x2="-23.516129" y1="-383.9971" y2="-383.9975"><stop offset="0" stop-color="#fff"/><stop offset="1" stop-color="#fff" stop-opacity="0"/></linearGradient><linearGradient id="c" gradientTransform="matrix(2.099454 0 0 2.099454 -37.187192 -38.832113)" gradientUnits="userSpaceOnUse" x1="52.777344" x2="74.25" xlink:href="#b" y1="40.741211" y2="61.741211"/><linearGradient id="d" gradientTransform="matrix(.03116178 0 0 .04506859 30.181062 335.70343)" gradientUnits="userSpaceOnUse" x1="-333.0289" x2="-333.0289" y1="-1473.6504" y2="-776.61371"><stop offset="0" stop-color="#fff"/><stop offset=".49140647" stop-color="#fff"/><stop offset="1" stop-color="#dcdcdc"/></linearGradient><linearGradient id="e" gradientTransform="matrix(.03116178 0 0 .04506859 -.463999 244.54173)" gradientUnits="userSpaceOnUse" x1="399.77466" x2="399.77466" y1="731.09662" y2="480.60214"><stop offset="0" stop-color="#cbcbcd"/><stop offset=".5" stop-color="#e0e0e2"/><stop offset="1" stop-color="#f2f2f2"/></linearGradient><filter id="f"><feGaussianBlur stdDeviation="1.5999062"/></filter><linearGradient id="g" gradientUnits="userSpaceOnUse" x1="85.531487" x2="63.9991" y1="117.68856" y2="75.6371"><stop offset="0" stop-color="#081e3e"/><stop offset="1" stop-color="#387de4"/></linearGradient><radialGradient id="h" cx="89.769791" cy="122.02979" gradientTransform="matrix(.94703816 .68886597 -.81515158 1.1206529 100.25767 -90.279301)" gradientUnits="userSpaceOnUse" r="33.037109" xlink:href="#a"/><radialGradient id="i" cx="62.25803" cy="91.521484" gradientTransform="matrix(1 0 0 .59794362 0 39.768408)" gradientUnits="userSpaceOnUse" r="39.886116"><stop offset="0"/><stop offset="1" stop-opacity="0"/></radialGradient><radialGradient id="j" cx="97.393692" cy="124.7054" gradientTransform="matrix(-1.4255515 -.09194943 -.08361027 1.2962642 185.39216 -79.730325)" gradientUnits="userSpaceOnUse" r="33.037109" xlink:href="#a"/><linearGradient id="k" gradientTransform="matrix(3.2835533 0 0 3.2835533 -156.16129 -159.53593)" gradientUnits="userSpaceOnUse" x1="59.798016" x2="64.066025" xlink:href="#b" y1="57.394299" y2="68.878387"/><g transform="translate(0 -263.13332)"><path d="m9.3814603 7.6002111h77.2232807c.76597 0 1.38261.72808 1.38261 1.63246v72.7371799c0 .90439-.61664 1.63247-1.38261 1.63247h-77.2232807c-.765966 0-1.38261-.72808-1.38261-1.63247v-72.7371799c0-.90438.616644-1.63246 1.38261-1.63246z" style="opacity:.4;fill:none;stroke:#000;stroke-width:4;stroke-linecap:round;stroke-linejoin:round;stroke-dashoffset:4;filter:url(#f)" transform="matrix(.38484968 0 0 .38484968 -1.517699 263.3039)"/><path d="m2.0876121 266.22925c-.2948242 0-.5291684.27733-.5291684.62536v27.99782c0 .34805.2343442.62539.5291684.62539h29.7296379c.294826 0 .529169-.27734.529169-.62539v-27.99782c0-.34803-.234343-.62536-.529169-.62536zm.3607964.93806h29.0080455c.280082 0 .505115.26274.505115.5893v26.74705c0 .32656-.225033.58931-.505115.58931h-29.0080455c-.2800827 0-.5051152-.26275-.5051152-.58931v-26.74705c0-.32656.2250325-.5893.5051152-.5893z" fill="url(#d)"/><path d="m2.0906157 266.22925h29.7236283c.294823 0 .532175.28019.532175.62823v26.45271h-30.7879765v-26.45271c0-.34804.2373491-.62823.5321732-.62823z" fill="url(#e)"/><path d="m1.5584437 272.38684h30.7879753v23.09098h-30.7879753z" fill="#fff"/><path d="m71.890625 78.392578-21.5 16.03711c-2.850309 2.34475-2.843712 6.710742.01367 9.046872l21.529297 15.96094c1.208972.98749 4.609072 3.39028 5.958309 3.32329 2.916313-.14481 3.595007-4.48441 3.592472-7.85845l-.0039-4.32422h40.699217c3.23055-.00025 5.84936-2.61906 5.84961-5.8496v-11.636723c-.00024-3.230547-2.61906-5.849361-5.84961-5.849609h-40.720706l-.0039-4.337891c-.0042-3.297404-.731452-7.939774-4.027344-7.839844z" fill="url(#g)" transform="matrix(.26458333 0 0 .26458333 0 263.13332)"/><path d="m71.890625 78.392578-21.5 16.03711c-2.850309 2.34475-2.843712 6.710742.01367 9.046872l21.529297 15.96094c1.208972.98749 4.609072 3.39028 5.958309 3.32329 2.916313-.14481 3.595007-4.48441 3.592472-7.85845l-.0039-4.32422h40.699217c3.23055-.00025 5.84936-2.61906 5.84961-5.8496v-11.636723c-.00024-3.230547-2.61906-5.849361-5.84961-5.849609h-40.720706l-.0039-4.337891c-.0042-3.297404-.731452-7.939774-4.027344-7.839844z" fill="url(#i)" transform="matrix(.26458333 0 0 .26458333 0 263.13332)"/><path d="m75.605469 82.910156-21.5 16.03711 21.529297 15.960934zm.0293 10.181641v11.636723h46.544921v-11.636723z" fill="url(#h)" transform="matrix(.26458333 0 0 .26458333 0 263.13332)"/><path d="m75.605469 82.910156-21.5 16.03711 3.55664 2.636714c3.274414.15205 6.565479.24066 9.861329.24805 2.615937-.00071 5.337309-.06209 8.099609-.15234zm.029297 10.181641v8.587893c15.05376-.49248 31.873014-2.292376 46.544924-5.212893v-3.375z" fill="url(#c)" transform="matrix(.26458333 0 0 .26458333 0 263.13332)"/><path d="m71.890625 78.392578-21.5 16.03711c-2.850309 2.34475-2.843712 6.710742.01367 9.046872l21.529297 15.96094c1.208972.98749 4.609072 3.39028 5.958309 3.32329 2.916313-.14481 3.595007-4.48441 3.592472-7.85845l-.0039-4.32422h40.699217c3.23055-.00025 5.84936-2.61906 5.84961-5.8496v-11.636723c-.00024-3.230547-2.61906-5.849361-5.84961-5.849609h-40.720706l-.0039-4.337891c-.0042-3.297404-.731452-7.939774-4.027344-7.839844z" fill="url(#g)" transform="matrix(-.26458333 0 0 .26458333 33.866013 252.36353)"/><path d="m71.890625 78.392578-21.5 16.03711c-2.850309 2.34475-2.843712 6.710742.01367 9.046872l21.529297 15.96094c1.208972.98749 4.609072 3.39028 5.958309 3.32329 2.916313-.14481 3.595007-4.48441 3.592472-7.85845l-.0039-4.32422h40.699217c3.23055-.00025 5.84936-2.61906 5.84961-5.8496v-11.636723c-.00024-3.230547-2.61906-5.849361-5.84961-5.849609h-40.720706l-.0039-4.337891c-.0042-3.297404-.731452-7.939774-4.027344-7.839844z" fill="url(#i)" transform="matrix(-.26458333 0 0 .26458333 33.866013 252.36353)"/><path d="m52.392578 42.205078-.0293 10.181641h-46.5449186v11.636719h46.5449216v10.179687l21.529297-15.960937z" fill="url(#j)" transform="matrix(.26458333 0 0 .26458333 0 263.13332)"/><path d="m52.392578 42.207031c-.0019.338295-.0293 18.991141-.0293 10.181641h-46.5449186v5.794922c14.4763776-.0538 30.9183476.995391 46.5449216 0-.000092-1.858255.0024-1.858253 0 0 6.050883-.385583 11.961223-2.353979 17.554688-2.904297z" fill="url(#k)" transform="matrix(.26458333 0 0 .26458333 0 263.13332)"/></g></svg>