<svg height="128" width="128" xmlns="http://www.w3.org/2000/svg" xmlns:xlink="http://www.w3.org/1999/xlink"><linearGradient id="a"><stop offset="0" stop-color="#5c5c5c"/><stop offset="1" stop-color="#595959" stop-opacity=".488971"/></linearGradient><linearGradient id="b" gradientTransform="matrix(1.0629486 0 0 1.0434896 .149183 9.610975)" gradientUnits="userSpaceOnUse" x1="46.048" x2="46.048" y1="128.01709" y2="16.6203"><stop offset="0" stop-color="#c7cdd7"/><stop offset="1" stop-color="#fff"/></linearGradient><linearGradient id="c" gradientTransform="matrix(1.0629487 0 0 1.3091052 -5.519737 -33.747371)" gradientUnits="userSpaceOnUse" x1="114.6638" x2="114.6638" y1="101.334" y2="112.0004"><stop offset="0" stop-color="#e1e4ea"/><stop offset="1" stop-color="#e1e4ea" stop-opacity=".084559"/></linearGradient><linearGradient id="d" gradientTransform="matrix(1.5000376 0 0 1 11.999997 -13.334003)" gradientUnits="userSpaceOnUse" x1="53.332001" x2="53.332001" y1="101.334" y2="117.3336"><stop offset="0" stop-color="#58a11e" stop-opacity=".988235"/><stop offset="1" stop-color="#59a220" stop-opacity="0"/></linearGradient><linearGradient id="e" gradientTransform="matrix(2.1818422 0 0 1.090921 -203.6335 -11.637891)" gradientUnits="userSpaceOnUse" x1="53.332001" x2="53.332001" xlink:href="#a" y1="101.334" y2="117.3336"/><linearGradient id="f" gradientTransform="matrix(1.454525 0 0 .87271499 -5.8181 22.110581)" gradientUnits="userSpaceOnUse" x1="8" x2="8" xlink:href="#a" y1="88" y2="108"/><linearGradient id="g" gradientTransform="matrix(1.4545249 0 0 .872715 110.5439 22.11058)" gradientUnits="userSpaceOnUse" x1="8" x2="8" xlink:href="#a" y1="88" y2="108"/><linearGradient id="h" gradientUnits="userSpaceOnUse" x1="121.05164" x2="121.05164" y1="-40.916946" y2="98.914055"><stop offset="0" stop-color="#fff"/><stop offset="1" stop-color="#555"/></linearGradient><filter id="i" color-interpolation-filters="sRGB" height="1.306617" width="1.43589" x="-.217945" y="-.153309"><feGaussianBlur stdDeviation="3.1542391"/></filter><linearGradient id="j" gradientUnits="userSpaceOnUse" x1="32.81356" x2="28.745761" y1="44.474576" y2="19.254237"><stop offset="0" stop-color="#070707"/><stop offset="1" stop-color="#474747"/></linearGradient><linearGradient id="k" gradientTransform="matrix(.22377865 0 0 1.0434896 33.715144 9.610975)" gradientUnits="userSpaceOnUse" x1="46.048" x2="46.048" y1="128.01709" y2="16.6203"><stop offset="0" stop-color="#f2fdeb"/><stop offset="1" stop-color="#c8ffa5"/></linearGradient><linearGradient id="l" gradientUnits="userSpaceOnUse" x1="121.05164" x2="121.05164" y1="-40.916946" y2="98.914055"><stop offset="0" stop-color="#5ca524"/><stop offset="1" stop-color="#58a11e" stop-opacity=".986274"/></linearGradient><linearGradient id="m" gradientTransform="matrix(.22377867 0 0 1.3091052 32.521687 -33.747371)" gradientUnits="userSpaceOnUse" x1="114.6638" x2="114.6638" y1="101.334" y2="112.0004"><stop offset="0" stop-color="#ddfec8"/><stop offset="1" stop-color="#dffecb" stop-opacity="0"/></linearGradient><path d="m5.8181 98.9095h110.5439v17.4543h-110.5439z" fill="url(#c)" opacity=".764706"/><path d="m5.8181 29.0923h110.5439v63.9991h-110.5439z" fill="url(#b)"/><text x="552.36987" y="202.81038"><tspan fill="#555" x="552.36987" y="219.61037"/></text><path d="m88 88h4v15.9996h-4z" fill="url(#d)" transform="matrix(-1.454525 0 0 1.090921 162.9068 2.908452)"/><path d="m-93.0896 98.9095h5.8181v17.4543h-5.8181z" fill="url(#e)" transform="scale(-1 1)"/><path d="m0 98.9095h5.8181v17.4543h-5.8181z" fill="url(#f)"/><path d="m116.362 98.9095h5.8181v17.4543h-5.8181z" fill="url(#g)"/><text x="284.18808" y="202.81038"><tspan fill="#555" x="284.18808" y="219.61037"/></text><text x="-10.252362" y="133.87732"><tspan fill="#555" x="-10.252362" y="150.67731"/></text><text x="161.66467" y="-39.856026"><tspan fill="#555" x="161.66467" y="-23.056038"/></text><path d="m0 93.0914h122.1801v5.818101h-122.1801z" fill="#fff" opacity=".650718"/><path d="m0 23.28125v5.8125 17.45285 5.8125 17.4599 5.8125 17.4599 5.84375h5.8125 23.28125 5.8125 23.28125 5.8125 23.28125 5.8125 23.28125 5.8125v-5.84375-69.81015h-29.09375-5.8125-23.28125-5.8125-23.28125-5.8125-23.28125zm5.8125 5.8125h23.28125v17.45285h-23.28125zm29.09375 0h23.28125v17.45285h-23.28125zm29.09375 0h23.28125v17.45285h-23.28125zm29.09375 0h23.28125v17.45285h-23.28125zm-87.28125 23.26535h23.28125v17.4599h-23.28125zm29.09375 0h23.28125v17.4599h-23.28125zm29.09375 0h23.28125v17.4599h-23.28125zm29.09375 0h23.28125v17.4599h-23.28125zm-87.28125 23.2724h23.28125v17.4599h-23.28125zm29.09375 0h23.28125v17.4599h-23.28125zm29.09375 0h23.28125v17.4599h-23.28125zm29.09375 0h23.28125v17.4599h-23.28125z" fill="url(#h)"/><path d="m88 88h4v15.9996h-4z" fill="url(#d)" transform="matrix(-1.454525 0 0 1.090921 191.9973 2.908452)"/><path d="m34.9086 29.0923h23.2724v63.9991h-23.2724z" fill="url(#k)"/><path d="m29.089844 23.28125v5.8125h.003906v17.453125h-.003906v5.8125h.003906v17.458984h-.003906v5.8125h.003906v17.460938h-.003906v5.84375h.003906 5.8125 23.28125 5.8125v-5.84375-17.460938-5.8125-17.458984-5.8125-17.453125-5.8125h-5.8125-23.28125-5.8125zm5.816406 5.8125h23.28125v17.453125h-23.28125zm0 23.265625h23.28125v17.458984h-23.28125zm0 23.271484h23.28125v17.460938h-23.28125z" fill="url(#l)"/><path d="m34.9086 98.9095h23.2724v17.4543h-23.2724z" fill="url(#m)" opacity=".764706"/><g transform="matrix(1.5 0 0 1.5 20.113176 35.611276)"><path d="m22.720703 5.15625c-3.013405.030675-5.734347 2.7794073-5.734375 5.792969v43.93164c.000396 3.429673 3.617041 6.371437 6.97461 5.671875l10.515624-2.189453 2.808594 2.027344c1.551689 1.121614 3.676784 1.397262 5.464844.712891.01127-.0042 1.189475-.440287 2.488281-1.167969.591578-.331442 1.457617-.847678 2.304688-1.658203.390507-.37366 1.041481-1.084667 1.507812-2.017578.576268-1.152849.952286-2.610783.501953-4.41211-.02267-.09068-.161327-.768547-.236328-1.123047l6.808594-4.601562c2.812058-1.90024 3.258266-6.468596.869141-8.878906v-.002l-30.101563-30.3710472c-1.08703-1.096551-2.62791-1.7300375-4.171875-1.7148438z" filter="url(#i)" opacity=".76"/><path d="m17.042969 8.3867188c-2.126608.021647-4.046855 1.9611722-4.046875 4.0878902v43.931641c.00014 1.210187.570764 2.408443 1.509765 3.171875.939002.763432 2.227365 1.076924 3.41211.830078l11.251953-2.341797 3.419922 2.466797c1.095643.791969 2.595135.987874 3.857422.503906h.002c.0091-.0034 1.09236-.410391 2.259765-1.064453.555108-.311009 1.260816-.734296 1.958985-1.402344.33225-.317916.804398-.831261 1.162109-1.546874.413737-.827699.696141-1.943955.373047-3.236329-.07021-.280852-.292605-1.376547-.484375-2.308593l7.755859-5.242188c.992424-.670628 1.662582-1.798167 1.779297-2.990234.116715-1.192068-.322513-2.426961-1.166015-3.277344l-30.10161-30.3730469c-.767134-.7738533-1.853759-1.2197068-2.943359-1.2089843z" fill="#fff" transform="translate(5.694915 -3.525424)"/><path d="m23.737884 11.281217v40.419921l11.863281-2.470703a.95888433.95888433 0 0 1 .755859.16211l4.425782 3.197265c.285679-.118453.599894-.234307 1.154297-.544922.384975-.215689.749087-.464247.9375-.644531.06051-.0579.06738-.07382.08789-.101562-.320785-1.338154-1.054687-5.009766-1.054687-5.009766a.95888433.95888433 0 0 1 .402343-.982422l9.074219-6.130859z" fill="url(#j)"/></g></svg>