<svg height="128" viewBox="0 0 33.866666 33.866668" width="128" xmlns="http://www.w3.org/2000/svg" xmlns:xlink="http://www.w3.org/1999/xlink"><linearGradient id="a" gradientUnits="userSpaceOnUse" x1="15.70366980061" x2="16.93333114415" y1="294.82258903077" y2="266.54036534865"><stop offset="0" stop-color="#555"/><stop offset="1"/></linearGradient><linearGradient id="b" gradientUnits="userSpaceOnUse" x1="44.2714" x2="32.817017" y1="-3.526954" y2="88.722214"><stop offset="0" stop-color="#3b3e22"/><stop offset="1" stop-color="#454545" stop-opacity="0"/></linearGradient><g transform="matrix(.82 0 0 .82 2.714885 -212.639978)"><text style="font-size:40.897976;font-family:sans-serif;letter-spacing:0;word-spacing:0;stroke-width:1.022449;fill:url(#a)" x="1.418075" y="294.57053"><tspan fill="url(#a)" font-family="FreeSerif" font-size="43.038166" font-style="italic" stroke-width="1.022449" x="1.418075" y="294.57053">E</tspan></text><path d="m39.847656 13.085938c.05432.02717.07914.09654.132813.125.04947.02884.13429.01536.183593.04492zm19.103516 1.166015-.308594.111328c.04785-.01837.120173.0022.167969-.01563.05496-.01837.0851-.07862.140625-.0957zm-15.16211 3.078125c.735712 1.441739 1.277344 3.010118 1.277344 4.541016 0 3.33086-.706787 7.094437-1.96289 11.662109a4.7313105 4.7313105 0 0 1 -.0078.01563l-11.650404 41.871089a93.089602 43.635749 0 0 0 6.080079.142578c1.007931-3.574267 2.041391-7.316487 3.11914-11.328125a4.7313105 4.7313105 0 0 1 1.617188-2.464844 4.7313105 4.7313105 0 0 1 -.140625-2.966797l10.732422-37.898437a4.7313105 4.7313105 0 0 1 .01563-.04492c.364369-1.238854 1.090048-2.442569 1.941406-3.529297zm54.212891 0c1.564543.957279 3.093477 1.960022 4.164067 3.447266l.70117-3.447266zm-22.876953 44.181641c-1.382816.728579-2.861712 1.322627-4.53125 1.705078.342493.181984.739609.177146 1.076172.398437.946806.600794 1.452677 1.599472 2.111328 2.472657z" fill="url(#b)" transform="matrix(.26458333 0 0 .26458333 0 263.13332)"/></g></svg>