<svg height="128" viewBox="0 0 33.866666 33.866668" width="128" xmlns="http://www.w3.org/2000/svg" xmlns:xlink="http://www.w3.org/1999/xlink"><linearGradient id="a" gradientUnits="userSpaceOnUse" x1="32.02824601316" x2="32.02824601316" y1="256.97660170545" y2="292.38216396773"><stop offset="0" stop-color="#fff"/><stop offset="1" stop-color="#555"/></linearGradient><linearGradient id="b" gradientTransform="matrix(.28123848 0 0 .37648631 .039471 260.72313)" gradientUnits="userSpaceOnUse" x1="46.048" x2="46.048" y1="128.01709" y2="16.6203"><stop offset="0" stop-color="#c7cdd7"/><stop offset="1" stop-color="#fff"/></linearGradient><linearGradient id="c" gradientUnits="userSpaceOnUse" x1="16.93333312" x2="16.93333312" y1="288.53329968" y2="275.83329984"><stop offset="0" stop-color="#0b0b0b"/><stop offset="1" stop-color="#1d1d1d"/></linearGradient><linearGradient id="d" gradientTransform="matrix(.26458333 0 0 .29398147 0 261.6046)" gradientUnits="userSpaceOnUse" x1="64" x2="64" y1="88" y2="56"><stop offset="0" stop-color="#7f7f81"/><stop offset=".44999999" stop-color="#b6b6b7"/><stop offset=".67499995" stop-color="#f5f5f5"/><stop offset="1" stop-color="#cfcfcf"/></linearGradient><linearGradient id="e" gradientUnits="userSpaceOnUse" x1="17.99166644" x2="17.99166644" y1="264.19163332" y2="275.83329984"><stop offset="0" stop-color="#fff"/><stop offset=".54545456" stop-color="#ebebeb"/><stop offset=".90909094" stop-color="#bababa"/><stop offset="1" stop-color="#7e7e7f"/></linearGradient><linearGradient id="f" gradientTransform="matrix(.24052171 0 0 .26458333 1.589963 263.13331)" gradientUnits="userSpaceOnUse" x1="64" x2="64" y1="48" y2="72"><stop offset="0" stop-color="#6e4388"/><stop offset=".21062189" stop-color="#651d8d"/><stop offset=".5" stop-color="#ac7ec6"/><stop offset=".66666639" stop-color="#ca87dc"/><stop offset="1" stop-color="#ebeaeb"/></linearGradient><linearGradient id="g" gradientUnits="userSpaceOnUse" x1="17.99166644" x2="17.84235598146" y1="294.8832996" y2="287.90547545249"><stop offset="0" stop-color="#fefefe"/><stop offset=".5" stop-color="#f7f7f7"/><stop offset=".91002578" stop-color="#8c8c8c"/><stop offset="1" stop-color="#666"/></linearGradient><linearGradient id="h" gradientTransform="matrix(.26458333 0 0 .16558711 0 269.86505)" gradientUnits="userSpaceOnUse" x1="52" x2="76" y1="72" y2="72"><stop offset="0"/><stop offset=".66666669" stop-color="#a6a6a6" stop-opacity=".866667"/><stop offset="1" stop-opacity=".737089"/></linearGradient><linearGradient id="i" gradientUnits="userSpaceOnUse" x1="17.00060012" x2="17.00060012" y1="274.77496652" y2="280.06663312"><stop offset="0" stop-color="#baaac4"/><stop offset="1" stop-color="#baaac4" stop-opacity="0"/></linearGradient><linearGradient id="j" gradientTransform="matrix(1.3755238 0 0 1.8570645 -21.763731 -96.765704)" gradientUnits="userSpaceOnUse" x1="59.925762" x2="100.4067" y1="101.12862" y2="77.702431"><stop offset="0"/><stop offset="1" stop-opacity="0"/></linearGradient><filter id="k"><feGaussianBlur stdDeviation=".6715998"/></filter><radialGradient id="l" cx="42.617531" cy="120.64188" gradientTransform="matrix(1.909059 1.8392116 -8.6222515 7.5766472 1009.8522 -881.36145)" gradientUnits="userSpaceOnUse" r="3.406888"><stop offset="0" stop-color="#b4942a"/><stop offset="1" stop-color="#e4dcc9"/></radialGradient><linearGradient id="m" gradientTransform="matrix(.9986497 0 0 .9998891 .14044 .005323)" gradientUnits="userSpaceOnUse" x1="75.848022" x2="81.452583" y1="72.804123" y2="77.047241"><stop offset="0" stop-color="#252525"/><stop offset=".5" stop-color="#252525"/><stop offset=".75" stop-color="#252525"/><stop offset="1"/></linearGradient><linearGradient id="n" gradientTransform="matrix(.9986497 0 0 .9998891 .14044 .005323)" gradientUnits="userSpaceOnUse" x1="76.708534" x2="80.579521" y1="83.325729" y2="87.154587"><stop offset="0" stop-color="#d4a100" stop-opacity=".976471"/><stop offset="1" stop-color="#ffc712"/></linearGradient><linearGradient id="o" gradientTransform="matrix(1.2875994 1.1737414 -.5465891 .6213041 81.686465 27.89447)" gradientUnits="userSpaceOnUse" x1="11.326384" x2="14.493531" y1="57.383999" y2="57.383999"><stop offset="0" stop-color="#9a7600"/><stop offset=".09292036" stop-color="#e3ad00"/><stop offset=".5043171" stop-color="#ffcd2c"/><stop offset=".91571385" stop-color="#e3ad00"/><stop offset="1" stop-color="#b98d00"/></linearGradient><linearGradient id="p" gradientTransform="matrix(.9992082 0 0 .9993395 .108362 -.090375)" gradientUnits="userSpaceOnUse" x1="114.92793" x2="100.65602" y1="-22.560064" y2="-22.052734"><stop offset="0" stop-color="#980000"/><stop offset="1" stop-color="#db5c5c"/></linearGradient><linearGradient id="q" gradientUnits="userSpaceOnUse" x1="-12.817558" x2="82.172836" y1="7.462277" y2="7.462277"><stop offset="0" stop-color="#fff" stop-opacity=".683453"/><stop offset="1" stop-color="#fff" stop-opacity="0"/></linearGradient><filter id="r"><feGaussianBlur stdDeviation=".31468463"/></filter><radialGradient id="s" cx="34.677639" cy="7.462277" gradientTransform="matrix(-1.5103 .00264127 -.00011671 -.00911022 87.0522 7.438666)" gradientUnits="userSpaceOnUse" r="47.595196" xlink:href="#t"/><linearGradient id="t"><stop offset="0" stop-color="#fff"/><stop offset="1" stop-color="#fff" stop-opacity="0"/></linearGradient><linearGradient id="u" gradientTransform="matrix(.6182226 0 0 .6232687 24.10803 47.993844)" gradientUnits="userSpaceOnUse" x1="33.342377" x2="24.450998" y1="117.83894" y2="107.35519"><stop offset="0"/><stop offset="1" stop-color="#515151"/></linearGradient><linearGradient id="v" gradientTransform="matrix(1.6732108 1.5189394 -1.5009523 1.6928488 18.675678 -24.465565)" gradientUnits="userSpaceOnUse" x1="48.498562" x2="48.732723" xlink:href="#t" y1=".811505" y2="2.365727"/><linearGradient id="w" gradientTransform="matrix(.9973012 0 0 .9997782 .28069 .010646)" gradientUnits="userSpaceOnUse" x1="92.226158" x2="96.579895" y1="54.119438" y2="57.15118"><stop offset="0" stop-color="#ea3838"/><stop offset="1" stop-color="#c40000"/></linearGradient><radialGradient id="x" cx="49.011971" cy="2.674308" gradientTransform="matrix(2.2600183 0 0 .2752449 -2.259041 -25.415382)" gradientUnits="userSpaceOnUse" r="1.724619" xlink:href="#y"/><linearGradient id="y"><stop offset="0" stop-color="#fff"/><stop offset="1" stop-color="#252525" stop-opacity="0"/></linearGradient><radialGradient id="z" cx="49.011971" cy="2.674308" gradientTransform="matrix(1.550633 0 0 .1873121 21.621938 -31.864287)" gradientUnits="userSpaceOnUse" r="1.724619" xlink:href="#y"/><radialGradient id="A" cx="49.011971" cy="2.674308" gradientTransform="matrix(1.5495914 0 0 .1876849 -193.24041 -23.535874)" gradientUnits="userSpaceOnUse" r="1.724619" xlink:href="#y"/><g transform="translate(0 -263.13332)"><path d="m1.539372 267.75192h30.787445v23.090584h-30.787445z" fill="url(#b)"/><path d="m0 266.21766v1.53789 4.61367 1.53789 4.62194 1.53789 4.61368.008 1.52963.0165 4.60541 1.54616h1.5378906 4.6219401 1.5378907 9.2356116 1.537891 7.697721 1.537891 4.62194 1.537891v-1.54616-4.60541-13.86582-6.15156h-6.159831-1.537891-7.697721-1.537891-9.2356116-1.5378907-4.6219401zm1.5378906 1.53789h4.6219401v4.61367h-4.6219401zm6.1598308 0h9.2356116v4.61367h-9.2356116zm10.7735026 0h7.697721v4.61367h-7.697721zm9.235612 0h4.62194v4.61367h-4.62194zm-26.1689454 6.15156h4.6219401v4.62194h-4.6219401zm6.1598308 0h9.2356116 1.537891 7.697721v4.62194.0631c-.000793-.0357-.02451-.0641-.05426-.0641h-7.642428v-4.55218c0-.0365-.02401-.0661-.05426-.0661h-1.430403c-.03025 0-.05426.0296-.05426.0661v4.55218h-9.1818692c-.029248 0-.052199.0277-.053743.0625v-.0615zm20.0091146 0h4.62194v4.62194h-4.62194zm-1.537891 6.09575v.0641 4.61368.008h-18.4712236v-.008-4.61368-.0625c.00153.0348.024495.0625.053743.0625h9.1818686v4.55218c0 .0365.02401.0661.05426.0661h1.430403c.03025 0 .05426-.0296.05426-.0661v-4.55218h7.642428c.02975 0 .05347-.0284.05426-.0641zm-24.6310544.0641h4.6219401v4.61368h-4.6219401zm26.1689454 0h4.62194v4.61368h-4.62194zm-26.1689454 6.1681h4.6219401v4.60541h-4.6219401zm6.1598308 0h9.2356116v4.60541h-9.2356116zm10.7735026 0h7.697721v4.60541h-7.697721zm9.235612 0h4.62194v4.60541h-4.62194z" fill="url(#a)"/><rect fill="#cbffb0" height="10.775606" rx=".061434" ry=".065958" width="13.854352" x="18.472467" y="280.06689"/><path d="m16.987593 278.52773c-.03025 0-.05426.0291-.05426.0656v1.47381 4.55218c0 .0365.02401.0661.05426.0661h1.430404c.03025 0 .05426-.0296.05426-.0661v-4.55218h7.642428c.02975 0 .05347-.0284.05426-.0641v.0641 4.61367.008h-9.235612v1.54668 4.6054 1.47537c0 .0365.02401.0656.05426.0656h16.823781c.03025 0 .05478-.0291.05478-.0656v-13.72268c0-.0365-.02453-.0656-.05478-.0656h-1.482598v.002h-4.62194v-.002h-1.537891v.002.063c-.000794-.0357-.02451-.0641-.05426-.0641h-7.642428v-.00053zm10.719243 1.53944h4.62194v4.61367h-4.62194zm-9.235612 6.1681h7.697721v4.6054h-7.697721zm9.235612 0h4.62194v4.6054h-4.62194z" fill="#59ac17"/><g transform="matrix(.75 0 0 .75 -1.154529 66.168311)"><rect height="1.068127" rx=".054608" ry=".108462" width="23.283333" x="5.291667" y="292.76663"/><rect fill="#1d1d1d" height="7.183735" rx="2.116667" transform="scale(1 -1)" width="30.787445" x="1.539372" y="-280.06686"/><rect fill="url(#c)" height="12.314979" rx=".058809" ry=".080616" width="30.787445" x="1.539372" y="276.98813"/><rect fill="#b6b6b6" height="5.131225" rx="1.965476" ry="2.116667" transform="scale(1 -1)" width="27.195576" x="3.591869" y="-279.04062"/><rect fill="url(#d)" height="10.262475" rx=".054608" ry=".073287" width="26.682453" x="3.591869" y="276.98813"/><rect fill="#111012" height="8.723122" rx=".054608" ry=".079045" width="22.064337" x="5.644365" y="266.72565"/><rect fill="#3e3c41" height="6.972047" rx=".048541" ry=".065958" width="18.472469" x="7.696861" y="268.77814"/><rect fill="#28232c" height="4.040584" rx=".055035" ry=".072666" width="24.653723" x="4.618117" y="273.90939"/><rect fill="#9f9f9f" fill-opacity=".996078" height="14.367486" rx=".06371" ry=".077951" width="14.367475" x="9.749358" y="262.62064"/><rect fill="url(#e)" height="10.262468" rx=".054608" ry=".065958" width="10.262482" x="11.801854" y="264.67316"/><path d="m5.3917056 273.93783h23.1832944c.0275 0 .04964.0411.04964.092v4.35722c0 .051-.03322.07-.04964.092l-1.970778 2.64583.09624 1.5875h-19.4342247l.096246-1.5875-1.9707781-2.64583c-.017928-.0241-.049642-.041-.049642-.092v-4.35722c0-.051.02214-.092.049642-.092z" style="stroke:#1f1f1f;stroke-width:.79375;stroke-linecap:square;stroke-linejoin:round;stroke-opacity:.924883;fill:url(#f)"/><g fill-rule="evenodd"><path d="m5.8208333 287.47497-.5291666 5.29167h23.2833333l-.529167-5.29167z" fill="#424245"/><path d="m7.9212326 287.47983-2.2768675 7.98076h22.5774599l-2.049007-7.98076z" fill="#434343"/><path d="m8.471829 287.47983-1.0576881 6.87841h19.0383841l-1.057688-6.87841z" fill="url(#g)"/></g><rect height="2.261332" rx=".054608" ry=".070466" width="19.049999" x="7.408333" y="285.35873"/><rect fill="url(#h)" height="1.963572" rx=".054608" ry=".041279" width="6.157489" x="13.854351" y="281.18204"/><rect fill="url(#i)" height="6.157489" opacity=".92" rx=".081912" ry=".266648" width="12.314979" x="10.775606" y="273.90939"/><rect fill="#986aae" height="4.000225" rx=".074396" ry=".169417" width="11.951473" x="11.139112" y="273.90939"/><rect fill="#c9b1d5" height="3.078745" rx=".06826" ry=".139031" width="10.788397" x="11.599673" y="273.90939"/><rect fill="#1d1d1d" height="1.539372" rx=".06826" ry=".070525" width="9.235995" x="12.315217" y="273.90939"/><path d="m7.4083333 285.3583-.142096-2.64583h19.4342287l-.242133 2.64583z" fill="#545156" fill-rule="evenodd"/></g><g transform="matrix(.28998562652 0 0 .28998562652 3.4146457042 249.18447327568)"><g fill-rule="evenodd"><path d="m90.067703 48.28801c.613642-.692125 4.648657-.363057 8.944253 3.536477 4.337724 3.937759 5.210074 7.748115 4.441394 8.615025-.5003.564284-1.00061 1.128566-1.50092 1.692851-4.461914-4.050501-8.9238-8.101002-13.385691-12.151503.500309-.564283 1.000624-1.128565 1.500964-1.69285z" fill="#bf0000"/><path d="m36.000762 124 20.247-9.42653.09417-.10772-13.269004-12.28446-.127672.1459z" fill="#b3925d"/><path d="m98.534725 51.799464c-1.025821-.04502-1.882013.614542-2.665637.986566-4.174912 3.698786-21.569273 21.653428-22.000397 22.168708l-17.273332 20.659839-.106627.116066-9.682256 17.633397 23.598527-5.26172 29.942357-36.049245 3.58973-4.294461c.64726-1.199814 1.23861-7.813473-1.74155-12.76732-1.45299-2.415269-2.634991-3.146806-3.660815-3.19183zm5.402365 15.95915c-.0266.04924-.0446.143824-.0711.174098-.0129.01476 1.49247-1.049396.6753-.870498z" fill="url(#j)" filter="url(#k)"/><path d="m37.004018 123.01573 18.885171-8.78019.09416-.10769-12.551842-11.60866-.12769.14592z" fill="url(#l)"/></g><path d="m49.164276 108.94499c1.648961 1.50106 2.755448 1.51054 3.34488 2.0471.09525.0867.175312.18851.243795.29167l44.639991-51.266458-6.480524-5.899315-44.724863 51.363483c.214748.0564.415855.13454.602285.30424.538767.49045.717813 1.65124 2.374436 3.15928z" fill="url(#m)"/><path d="m54.219542 109.12044-1.750182 2.00168c.538752.53092.431653 1.46553 1.421976 2.36702 1.067261.97156 1.630178.45849 2.321697 1.08447l1.771382-2.02599z" opacity=".353488"/><path d="m97.156354 59.801933-44.606049 51.227617c.541583.53354.517441 1.37742 1.512824 2.28353 1.072712.97652 1.555044.55628 2.250088 1.18547l44.627263-51.251869z" fill="url(#n)"/><path d="m47.641192 104.81388-.897802 1.02682-.0345.0376c.447512.42018.395724 1.39005 1.878296 2.86086l.08229.0749.586334.53373.0823.0749c1.616252 1.35012 2.54668 1.16726 3.136095 1.7038l.947655-1.09585z" fill="#252525" opacity=".386047"/><path d="m43.884886 101.37497-.940801.95531c.02064.0187-.05311.1047-.03237.12358.423005.38509.412824 1.36825 1.189787 2.20191l.072.0655.318878.29029.04115.0374c.925767.72156 1.702344.46358 2.175362.82926l.940872-1.07609z" fill="#131313" opacity=".353488"/><path d="m44.501995 104.6749c1.032229.92922 1.738227.6105 2.287845 1.11081l44.606065-51.227604-3.824461-3.481452-44.627276 51.251876c.02096.019.04162.0379.06269.0571.42971.39116.455145 1.35294 1.495139 2.28929z" fill="url(#o)"/><path d="m99.380959-24.64492h18.073059v4.252269h-18.073059z" fill="url(#p)" transform="matrix(.7409346 .6715772 -.6655662 .7463388 0 0)"/><path d="m82.172836 7.4622769c0 .5365014-21.264324.9714217-47.495197.9714217-26.2308732 0-47.495197-.4349203-47.495197-.9714217s21.2643238-.9714217 47.495197-.9714217c26.230873 0 47.495197.4349203 47.495197.9714217z" fill="url(#q)" filter="url(#r)" transform="matrix(.3854946 -.4403693 -1.7345162 -1.5764895 62.874028 110.46407)"/><path d="m106.56087 7.4622769c.00002.232347-31.840086.4212113-71.318555.4230365-39.478469.00183-71.818819-.1840719-72.439038-.4163902-.62022-.2323183 30.7118344-.424103 70.18056-.4295779 39.468725-.00547 72.301293.1774094 73.541553.4096417" fill="url(#s)" transform="matrix(.3184879 -.3665274 -1.2576415 -1.1452705 66.925762 101.47904)"/><path d="m44.721041 119.98334c-1.894932-.77816-4.469372-3.93608-5.787909-5.07837l-2.933131 9.08971z" fill="url(#u)" fill-rule="evenodd"/><path d="m97.676422 50.957862c2.773338 2.157871 4.754818 5.136648 4.863888 5.422718.10904.286071-2.586875-3.046365-4.878244-4.572341-2.273846-1.514326-5.450917-1.552229-5.685693-1.736594-.234782-.184361-1.822614-1.877275-.38221-1.814774 1.506596.06537 3.94013 1.035831 6.082259 2.700991z" fill="url(#v)" fill-rule="evenodd"/><path d="m93.653015 51.592952-2.773744 3.218036 6.482458 5.873697 2.773741-3.186793z" fill="url(#w)"/><path d="m104.60918-25.364759h7.795228v1.708078h-7.795228z" fill="url(#x)" transform="matrix(.7404161 .6721488 -.6634233 .7482443 0 0)"/><path d="m94.946716-31.829779h5.348458v1.162492h-5.348458z" fill="url(#z)" transform="matrix(.6942228 .7197602 -.7693435 .6388354 0 0)"/><path d="m-119.96733-23.501301h5.3449v1.164788h-5.3449z" fill="url(#A)" transform="matrix(-.7514575 -.6597815 -.5893147 .8079036 0 0)"/></g></g></svg>