<?xml version="1.0" encoding="UTF-8" standalone="no"?>
<svg
   xmlns:dc="http://purl.org/dc/elements/1.1/"
   xmlns:cc="http://creativecommons.org/ns#"
   xmlns:rdf="http://www.w3.org/1999/02/22-rdf-syntax-ns#"
   xmlns:svg="http://www.w3.org/2000/svg"
   xmlns="http://www.w3.org/2000/svg"
   xmlns:sodipodi="http://sodipodi.sourceforge.net/DTD/sodipodi-0.dtd"
   xmlns:inkscape="http://www.inkscape.org/namespaces/inkscape"
   height="128"
   viewBox="0 0 128 128"
   width="128"
   version="1.1"
   id="svg23"
   sodipodi:docname="lc_fields.svg"
   inkscape:version="0.92.3 (unknown)">
  <metadata
     id="metadata29">
    <rdf:RDF>
      <cc:Work
         rdf:about="">
        <dc:format>image/svg+xml</dc:format>
        <dc:type
           rdf:resource="http://purl.org/dc/dcmitype/StillImage" />
        <dc:title></dc:title>
      </cc:Work>
    </rdf:RDF>
  </metadata>
  <defs
     id="defs27" />
  <sodipodi:namedview
     pagecolor="#ffffff"
     bordercolor="#666666"
     borderopacity="1"
     objecttolerance="10"
     gridtolerance="10"
     guidetolerance="10"
     inkscape:pageopacity="0"
     inkscape:pageshadow="2"
     inkscape:window-width="1366"
     inkscape:window-height="706"
     id="namedview25"
     showgrid="true"
     inkscape:zoom="1.84375"
     inkscape:cx="-23.433171"
     inkscape:cy="28.569197"
     inkscape:window-x="0"
     inkscape:window-y="0"
     inkscape:window-maximized="1"
     inkscape:current-layer="svg23">
    <inkscape:grid
       type="xygrid"
       id="grid836"
       spacingx="5.8181"
       spacingy="5.8181"
       empspacing="1" />
  </sodipodi:namedview>
  <linearGradient
     id="a"
     gradientTransform="matrix(.83233516 0 0 .90697347 48.902581 15.281942)"
     gradientUnits="userSpaceOnUse"
     x1="63.973969"
     x2="62.801254"
     y1="50.935452"
     y2="79.921806">
    <stop
       offset="0"
       stop-color="#fff"
       id="stop2" />
    <stop
       offset="1"
       stop-color="#bbb"
       id="stop4" />
  </linearGradient>
  <rect
     fill="#828282"
     fill-opacity=".890196"
     height="46.5448"
     rx="8"
     ry="9"
     width="101.4289"
     y="46.5466"
     id="rect7" />
  <rect
     fill="#fefefe"
     height="34.9086"
     rx=".332948"
     ry="4.002952"
     width="81.4534"
     x="5.8181"
     y="52.3647"
     id="rect9" />
  <rect
     fill="#838181"
     height="52.309242"
     rx="10.843567"
     ry="10.13867"
     width="52.362904"
     x="75.6353"
     y="46.5466"
     id="rect11"
     style="fill:#838181;fill-opacity:1" />
  <path
     d="m89.358394 52.3647h25.627226c4.02025 0 7.25675 3.560922 7.25675 7.984135v25.123487c0 4.423209-3.2365 7.984136-7.25675 7.984136h-25.627226c-4.020213 0-7.256703-3.560927-7.256703-7.984136v-25.123487c0-4.423213 3.23649-7.984135 7.256703-7.984135z"
     fill="url(#a)"
     id="path13" />
  <path
     d="m92.537439 58.1828h18.505661c2.90303 0 5.24013 2.429313 5.24013 5.446891v18.014494c0 3.017577-2.3371 5.446891-5.24013 5.446891h-18.505661c-2.903028 0-5.240125-2.429314-5.240125-5.446891v-18.014494c0-3.017578 2.337097-5.446891 5.240125-5.446891z"
     fill="#bdbdbd"
     id="path15" />
  <path
     d="m93.0896 64.0009h17.454298v5.818097h-17.454298z"
     fill="#403c3b"
     id="path17" />
  <path
     d="m93.0896 75.6371h17.454296v5.818099h-17.454296z"
     fill="#403c3b"
     id="path19" />
  <path
     d="m0 23.2742h110.5439v11.6362h-110.5439z"
     fill="#06f"
     id="path21" />
</svg>
