<?xml version="1.0" encoding="UTF-8" standalone="no"?>
<svg
   xmlns:dc="http://purl.org/dc/elements/1.1/"
   xmlns:cc="http://creativecommons.org/ns#"
   xmlns:rdf="http://www.w3.org/1999/02/22-rdf-syntax-ns#"
   xmlns:svg="http://www.w3.org/2000/svg"
   xmlns="http://www.w3.org/2000/svg"
   xmlns:xlink="http://www.w3.org/1999/xlink"
   xmlns:sodipodi="http://sodipodi.sourceforge.net/DTD/sodipodi-0.dtd"
   xmlns:inkscape="http://www.inkscape.org/namespaces/inkscape"
   height="128"
   width="128"
   version="1.1"
   id="svg41"
   sodipodi:docname="lc_fontheight.svg"
   inkscape:version="0.92.3 (unknown)"
   inkscape:export-filename="/home/rizmut/Dokumen/Rizmut/Github/libreoffice-style-karasa-jaga/build/images_karasa_jaga/cmd/lc_fontheight.png"
   inkscape:export-xdpi="16.5"
   inkscape:export-ydpi="16.5">
  <metadata
     id="metadata47">
    <rdf:RDF>
      <cc:Work
         rdf:about="">
        <dc:format>image/svg+xml</dc:format>
        <dc:type
           rdf:resource="http://purl.org/dc/dcmitype/StillImage" />
        <dc:title></dc:title>
      </cc:Work>
    </rdf:RDF>
  </metadata>
  <defs
     id="defs45">
    <linearGradient
       inkscape:collect="always"
       xlink:href="#linearGradient3064"
       id="linearGradient3602"
       gradientUnits="userSpaceOnUse"
       gradientTransform="translate(0,-55)"
       x1="56"
       y1="-36.151554"
       x2="56"
       y2="123" />
    <linearGradient
       inkscape:collect="always"
       id="linearGradient3064">
      <stop
         style="stop-color:#ffffff;stop-opacity:1;"
         offset="0"
         id="stop3066" />
      <stop
         style="stop-color:#ffffff;stop-opacity:0;"
         offset="1"
         id="stop3068" />
    </linearGradient>
  </defs>
  <sodipodi:namedview
     pagecolor="#ffffff"
     bordercolor="#666666"
     borderopacity="1"
     objecttolerance="10"
     gridtolerance="10"
     guidetolerance="10"
     inkscape:pageopacity="0"
     inkscape:pageshadow="2"
     inkscape:window-width="1366"
     inkscape:window-height="657"
     id="namedview43"
     showgrid="true"
     inkscape:zoom="1.3037281"
     inkscape:cx="16.705282"
     inkscape:cy="-25.542827"
     inkscape:window-x="0"
     inkscape:window-y="30"
     inkscape:window-maximized="1"
     inkscape:current-layer="svg41">
    <inkscape:grid
       type="xygrid"
       id="grid873"
       spacingx="5.8181"
       spacingy="5.8181"
       empspacing="1" />
  </sodipodi:namedview>
  <linearGradient
     id="a">
    <stop
       offset="0"
       stop-color="#1c1c1c"
       id="stop2" />
    <stop
       offset=".5"
       stop-color="#888"
       id="stop4" />
    <stop
       offset="1"
       id="stop6" />
  </linearGradient>
  <linearGradient
     id="b"
     gradientUnits="userSpaceOnUse"
     x1="-320.86826546846"
     x2="-327.26656152752"
     xlink:href="#a"
     y1="109.4493765047"
     y2="-18.51654357678" />
  <linearGradient
     id="c"
     gradientUnits="userSpaceOnUse"
     x1="128.00000223901"
     x2="229.81452535828"
     xlink:href="#a"
     y1="63.99995880417"
     y2="63.99995880417" />
  <linearGradient
     id="d"
     gradientUnits="userSpaceOnUse"
     x1="64.8715"
     x2="59.0534"
     xlink:href="#a"
     y1="110.5457"
     y2="-11.6344" />
  <linearGradient
     id="e">
    <stop
       offset="0"
       stop-color="#0968ef"
       id="stop12" />
    <stop
       offset="1"
       stop-color="#aecffc"
       id="stop14" />
  </linearGradient>
  <linearGradient
     id="f"
     gradientTransform="matrix(0 1.6493491 -2.8863614 0 69.36342 -101.60458)"
     gradientUnits="userSpaceOnUse"
     x1="130.70859"
     x2="103.74631"
     xlink:href="#e"
     y1="20.118034"
     y2="20.118034" />
  <linearGradient
     id="g"
     gradientTransform="matrix(0 -1.6493491 -2.8863614 0 69.36342 235.42448)"
     gradientUnits="userSpaceOnUse"
     x1="130.70859"
     x2="103.74631"
     xlink:href="#e"
     y1="20.118034"
     y2="20.118034" />
  <path
     d="m54.892799 3.2812959v-2.79470843z"
     fill="#fff"
     fill-opacity=".756881"
     id="path23" />
  <path
     d="m-.01068526 52.3647.01068526 29.0905h29.0905v-29.0905zm5.82878526 5.8181h17.4543v17.4543h-17.4543z"
     fill="#797979"
     id="path31" />
  <g
     fill-rule="evenodd"
     id="g39">
    <path
       d="m11.6362 81.4552v31.3023l-8.65908-4.94805 11.54544 23.0909 11.54545-23.0909-8.65909 4.94805v-31.3023z"
       fill="url(#f)"
       id="path35" />
    <path
       d="m11.6362 52.3647v-31.3023l-8.65908 4.94804 11.54544-23.09089 11.54545 23.09089-8.65909-4.94804v31.3023z"
       fill="url(#g)"
       id="path37" />
  </g>
  <g
     id="g896"
     transform="translate(5.64312)">
    <path
       sodipodi:nodetypes="ccccssccccccccccscccssccccc"
       id="path3268"
       d="m 23.2724,23.2742 v 29.239771 h 7.688624 l 0.336729,-1.616495 c 1.620211,-8.865674 5.503218,-10.926836 8.158571,-13.100478 1.541606,-1.260214 2.506958,-1.82056 4.321344,-2.251547 1.814386,-0.430987 8.526678,-0.635051 13.035537,-0.635051 h 7.015168 l 0.216428,63.308431 c -0.313043,4.423919 0.547584,9.576949 -2.122968,13.399759 -2.636929,2.93537 -9.573635,2.82925 -13.58115,3.26828 l -1.795883,0.1732 v 7.15876 l 52.3629,-0.0369 v -7.15876 l -1.79588,-0.1732 c -6.442864,-0.48116 -11.338954,-1.15418 -13.13478,-2.64742 -2.453359,-2.03999 -2.469337,-7.77443 -2.469339,-14.020621 L 81.4534,34.9104 h 7.295775 c 4.708214,0 11.552775,0.200033 13.372265,0.635051 1.81949,0.435018 2.68172,1.003308 4.04074,2.251547 2.3871,2.19517 5.97912,3.690083 7.86152,12.527039 l 0.33673,1.558763 7.99645,0.1 -0.17678,-28.7086 z"
       style="fill:#000000;fill-opacity:1;stroke:none;stroke-width:2.19602776;stroke-miterlimit:4;stroke-dasharray:none;stroke-opacity:1"
       inkscape:connector-curvature="0" />
    <g
       transform="translate(24.4125,26.59375)"
       id="g3598">
      <path
         sodipodi:nodetypes="cccccccccccccc"
         id="path3600"
         d="M 5.675,2.7625 4.4875,26.60625 H 4.89375 C 7.6043884,13.280886 14.716391,8.5276302 27.9504,8.31665 h 17.4543 v 34.214537 c 4.223425,-0.606961 1.950958,0.887136 5.8181,-0.0769 V 8.31665 H 55.57775 68.6771 C 79.282253,7.7842274 83.829359,11.468621 88.9875,21.45 c 0.675527,-0.750161 1.301403,-1.50489 1.875,-2.28125 L 90.14375,2.7625 Z"
         style="opacity:0.90799997;fill:url(#linearGradient3602);fill-opacity:1;stroke:none;stroke-width:8;stroke-linecap:round;stroke-linejoin:round;stroke-miterlimit:4;stroke-dasharray:none;stroke-dashoffset:4.1500001;stroke-opacity:1"
         inkscape:connector-curvature="0" />
    </g>
  </g>
</svg>
