<?xml version="1.0" encoding="UTF-8" standalone="no"?>
<svg
   xmlns:dc="http://purl.org/dc/elements/1.1/"
   xmlns:cc="http://creativecommons.org/ns#"
   xmlns:rdf="http://www.w3.org/1999/02/22-rdf-syntax-ns#"
   xmlns:svg="http://www.w3.org/2000/svg"
   xmlns="http://www.w3.org/2000/svg"
   xmlns:sodipodi="http://sodipodi.sourceforge.net/DTD/sodipodi-0.dtd"
   xmlns:inkscape="http://www.inkscape.org/namespaces/inkscape"
   enable-background="new 0 0 128 128"
   height="128"
   viewBox="0 0 128 128"
   width="128"
   version="1.1"
   id="svg104"
   sodipodi:docname="lc_filefield.svg"
   inkscape:version="0.92.3 (unknown)"
   inkscape:export-filename="/home/rizmut/Dokumen/Rizmut/Github/libreoffice-style-karasa-jaga/build/images_karasa_jaga/cmd/lc_filefield.png"
   inkscape:export-xdpi="16.5"
   inkscape:export-ydpi="16.5">
  <metadata
     id="metadata110">
    <rdf:RDF>
      <cc:Work
         rdf:about="">
        <dc:format>image/svg+xml</dc:format>
        <dc:type
           rdf:resource="http://purl.org/dc/dcmitype/StillImage" />
        <dc:title></dc:title>
      </cc:Work>
    </rdf:RDF>
  </metadata>
  <defs
     id="defs108">
    <linearGradient
       id="k"
       gradientTransform="matrix(1.0185733,0,0,0.82407071,-0.713472,13.082578)"
       gradientUnits="userSpaceOnUse"
       x1="3.587285"
       x2="107.14484"
       y1="4.73702"
       y2="79.217056">
      <stop
         offset="0"
         stop-color="#6fc5dd"
         id="stop82" />
      <stop
         offset="1"
         stop-color="#042f3a"
         stop-opacity=".894118"
         id="stop84" />
    </linearGradient>
  </defs>
  <sodipodi:namedview
     pagecolor="#ffffff"
     bordercolor="#666666"
     borderopacity="1"
     objecttolerance="10"
     gridtolerance="10"
     guidetolerance="10"
     inkscape:pageopacity="0"
     inkscape:pageshadow="2"
     inkscape:window-width="1366"
     inkscape:window-height="706"
     id="namedview106"
     showgrid="true"
     inkscape:zoom="1.84375"
     inkscape:cx="98.408034"
     inkscape:cy="42.717162"
     inkscape:window-x="0"
     inkscape:window-y="0"
     inkscape:window-maximized="1"
     inkscape:current-layer="svg104">
    <inkscape:grid
       type="xygrid"
       id="grid917"
       spacingx="5.8181"
       spacingy="5.8181"
       empspacing="1" />
  </sodipodi:namedview>
  <linearGradient
     id="a"
     gradientUnits="userSpaceOnUse"
     x1="88.591797"
     x2="71.262016"
     y1="96.592697"
     y2="79.262917">
    <stop
       offset="0"
       stop-color="#fff"
       id="stop2" />
    <stop
       offset="1"
       stop-color="#555753"
       id="stop4" />
  </linearGradient>
  <linearGradient
     id="b"
     gradientUnits="userSpaceOnUse"
     x1="85.219681"
     x2="61.336319"
     y1="93.219681"
     y2="69.336319">
    <stop
       offset="0"
       id="stop7" />
    <stop
       offset="1"
       stop-color="#393b38"
       id="stop9" />
  </linearGradient>
  <linearGradient
     id="c"
     gradientUnits="userSpaceOnUse"
     x1="96"
     x2="88.0002"
     y1="104"
     y2="96.0002">
    <stop
       offset="0"
       stop-color="#888a85"
       id="stop12" />
    <stop
       offset=".0072"
       stop-color="#8c8e89"
       id="stop14" />
    <stop
       offset=".0673"
       stop-color="#abaca9"
       id="stop16" />
    <stop
       offset=".1347"
       stop-color="#c5c6c4"
       id="stop18" />
    <stop
       offset=".2115"
       stop-color="#dbdbda"
       id="stop20" />
    <stop
       offset=".3012"
       stop-color="#ebebeb"
       id="stop22" />
    <stop
       offset=".4122"
       stop-color="#f7f7f6"
       id="stop24" />
    <stop
       offset=".5679"
       stop-color="#fdfdfd"
       id="stop26" />
    <stop
       offset="1"
       stop-color="#fff"
       id="stop28" />
  </linearGradient>
  <radialGradient
     id="d"
     cx="102"
     cy="112.3047"
     gradientTransform="matrix(0.94807,0,0,0.9510679,3.32352,5.274458)"
     gradientUnits="userSpaceOnUse"
     r="139.55859">
    <stop
       offset="0"
       stop-color="#535557"
       id="stop31" />
    <stop
       offset=".11366145"
       stop-color="#898a8c"
       id="stop33" />
    <stop
       offset=".20296688"
       stop-color="#ececec"
       id="stop35" />
    <stop
       offset=".2363"
       stop-color="#fafafa"
       id="stop37" />
    <stop
       offset=".2722"
       stop-color="#fff"
       id="stop39" />
    <stop
       offset=".5313"
       stop-color="#fafafa"
       id="stop41" />
    <stop
       offset=".8449"
       stop-color="#ebecec"
       id="stop43" />
    <stop
       offset="1"
       stop-color="#e1e2e3"
       id="stop45" />
  </radialGradient>
  <radialGradient
     id="e"
     cx="100.8098464"
     cy="112.93460525694"
     gradientUnits="userSpaceOnUse"
     r="135.1875556917">
    <stop
       offset="0"
       stop-color="#3e3e3e"
       id="stop48" />
    <stop
       offset=".0151"
       stop-color="#505050"
       id="stop50" />
    <stop
       offset=".0558"
       stop-color="#7e7e7e"
       id="stop52" />
    <stop
       offset=".1357"
       stop-color="#c6c6c6"
       id="stop54" />
    <stop
       offset=".20990001"
       stop-color="#f1f1f1"
       id="stop56" />
    <stop
       offset=".24349999"
       stop-color="#fcfcfc"
       id="stop58" />
    <stop
       offset=".2722"
       stop-color="#fff"
       id="stop60" />
  </radialGradient>
  <filter
     id="f">
    <feGaussianBlur
       stdDeviation="1.0394514"
       id="feGaussianBlur63" />
  </filter>
  <filter
     id="g">
    <feGaussianBlur
       stdDeviation=".50063244"
       id="feGaussianBlur66" />
  </filter>
  <filter
     id="h">
    <feGaussianBlur
       stdDeviation=".40750996"
       id="feGaussianBlur69" />
  </filter>
  <filter
     id="i">
    <feGaussianBlur
       stdDeviation=".4901192"
       id="feGaussianBlur72" />
  </filter>
  <filter
     id="j">
    <feGaussianBlur
       stdDeviation=".90565481"
       id="feGaussianBlur75" />
  </filter>
  <g
     id="g930"
     transform="translate(-0.03465317,-5.8180996)">
    <path
       id="path78"
       transform="matrix(1.0090419,0,0,1.003276,-7.641977,0.929762)"
       d="m 23,8.9687825 0.02654,85.0222095 h 61.131184 c 0.53,0 1.039,-0.211 1.414,-0.586 L 118.39973,60.576991 c 0.375,-0.375 0.58585,-0.884 0.586,-1.414 L 119,8.9687825 Z"
       inkscape:connector-curvature="0"
       style="opacity:0.55342503;filter:url(#f)"
       sodipodi:nodetypes="ccsssscc" />
    <path
       id="path80"
       transform="matrix(1.0090419,0,0,1.003276,-7.641977,0.929762)"
       d="m 23,9 0.02655,84.990992 h 61.13118 c 0.53,0 1.039,-0.211 1.414,-0.586 L 118.39973,60.576991 c 0.375,-0.375 0.58585,-0.884 0.586,-1.414 L 119,9 Z"
       inkscape:connector-curvature="0"
       style="opacity:0.30684904;filter:url(#f)"
       sodipodi:nodetypes="ccsssscc" />
    <path
       id="path82"
       transform="matrix(1.0090419,0,0,1.003276,-7.641977,0.929762)"
       d="m 24.905735,10.673272 -1.1e-5,81.18744 58.676001,-1e-4 c 0.53,0 1.039,-0.211 1.414,-0.586 L 116.47973,59.508678 c 0.375,-0.375 0.586,-0.884 0.586,-1.414 l 0.0955,-47.421406 z"
       inkscape:connector-curvature="0"
       style="opacity:0.89589;filter:url(#g)"
       sodipodi:nodetypes="cccccccc" />
    <path
       id="path84"
       transform="matrix(1.0090419,0,0,1.003276,-7.641977,0.929762)"
       d="m 23,9.9655172 0.02654,84.0254748 h 61.131184 c 0.53,0 1.039,-0.211 1.414,-0.586 L 118.39973,60.576991 c 0.375,-0.375 0.58585,-0.884 0.586,-1.414 L 119,9.9655172 Z"
       inkscape:connector-curvature="0"
       style="opacity:0.30684904;filter:url(#f)"
       sodipodi:nodetypes="ccsssscc" />
    <path
       id="path86"
       d="m 17.488953,11.638 0,81.4534 h 59.256106 c 0.513401,0 1.006458,-0.20439 1.369714,-0.56765 L 109.9146,60.723921 c 0.36326,-0.363255 0.56764,-0.856313 0.56764,-1.369714 L 110.57855,11.638 Z"
       style="fill:url(#e)"
       inkscape:connector-curvature="0"
       sodipodi:nodetypes="ccsccccc" />
    <path
       id="path88"
       d="m 24.066856,17.512144 c -0.522387,0 -0.94807,0.42703 -0.94807,0.951069 l 0.307523,67.639757 c 0,0.525 0.425684,0.95108 0.94807,0.95108 h 52.099199 c 0.249342,0 0.493944,-0.10082 0.670284,-0.27867 L 105.2671,59.553723 c 0.17729,-0.17785 0.27778,-0.422273 0.27778,-0.672405 l -0.6856,-40.396182 c 0,-0.524039 -0.42473,-0.951068 -0.94806,-0.951068 z"
       style="fill:url(#d)"
       inkscape:connector-curvature="0"
       sodipodi:nodetypes="cccsscccccc" />
    <g
       id="g98"
       transform="matrix(1.1080161,0,0,1.1080161,-12.744784,-38.01667)">
      <path
         id="path90"
         d="M 111.414,86.586 C 111.664,86.336 85.035,85 80,85 c -1.654,0 -3,1.346 -3,3 0,5.035 1.336,31.664 1.586,31.414 z"
         style="opacity:0.75068497;fill:url(#a);filter:url(#h)"
         inkscape:connector-curvature="0" />
      <path
         id="path92"
         d="M 111.414,86.586 C 111.789,86.211 89.444,86 80,86 c -1.103,0 -2,0.897 -2,2 0,9.444 0.211,31.789 0.586,31.414 z"
         inkscape:connector-curvature="0"
         style="opacity:0.2;filter:url(#j)" />
      <path
         id="path94"
         d="M 111.414,86.586 C 111.653,86.347 89.807,87 80,87 c -0.553,0 -1,0.447 -1,1 0,9.807 -0.653,31.653 -0.414,31.414 z"
         style="opacity:0.1;fill:url(#b);filter:url(#i)"
         inkscape:connector-curvature="0" />
      <path
         id="path96"
         d="M 79.721619,119.31106 111.22712,87.805556 H 79.721619 Z"
         style="fill:url(#c)"
         inkscape:connector-curvature="0" />
    </g>
  </g>
  <g
     id="g1647"
     transform="translate(0,87.2715)">
    <rect
       id="rect1056"
       width="127.9982"
       ry="9.974987"
       rx="11.636199"
       height="34.9086"
       style="fill:url(#k);stroke-width:0.92579967"
       x="0"
       y="5.8199" />
    <path
       id="path1058"
       d="m 5.8181,11.638 h 116.362 l 0,23.2724 H 5.8181 Z"
       style="fill:#e9e9e9;stroke-width:0.88143563"
       inkscape:connector-curvature="0"
       sodipodi:nodetypes="ccccc" />
    <rect
       id="rect1060"
       y="16.880823"
       x="23.2724"
       width="81.4534"
       ry="0.56232995"
       rx="0.137769"
       height="12.211475"
       style="fill:#1450b3;stroke-width:1.0244211" />
  </g>
</svg>
