<svg height="128" viewBox="0 0 33.866666 33.866668" width="128" xmlns="http://www.w3.org/2000/svg" xmlns:xlink="http://www.w3.org/1999/xlink"><linearGradient id="a" gradientUnits="userSpaceOnUse" x1="32.02824601316" x2="32.02824601316" y1="256.97660170545" y2="292.38216396773"><stop offset="0" stop-color="#fff"/><stop offset="1" stop-color="#555"/></linearGradient><linearGradient id="b" gradientTransform="matrix(.28123848 0 0 .37648631 .039471 260.72313)" gradientUnits="userSpaceOnUse" x1="46.048" x2="46.048" y1="128.01709" y2="16.6203"><stop offset="0" stop-color="#c7cdd7"/><stop offset="1" stop-color="#fff"/></linearGradient><linearGradient id="c" gradientTransform="matrix(.3544202 0 0 .37548797 -23.277336 260.60114)" gradientUnits="userSpaceOnUse" x1="74.667397" x2="74.667397" y1="81.859604" y2="18.585112"><stop offset="0" stop-color="#0c69ed" stop-opacity="0"/><stop offset=".14999999" stop-color="#1b77ef"/><stop offset=".5" stop-color="#4aa3f6"/><stop offset="1" stop-color="#89ddff"/></linearGradient><g transform="translate(0 -263.13332)"><path d="m1.539372 267.75192h30.787445v23.090584h-30.787445z" fill="url(#b)"/><path d="m1.8286503 267.75191-.289278.29772v1.69875l1.8761744-1.99647zm3.9176511 0-4.2069291 4.43949v1.68999l5.7772957-6.12948zm1.9505601 2.05775-6.1574892 6.506v1.69873l6.1574892-6.54101zm0 3.74774-6.1574892 6.51475v1.68998l6.1574892-6.53226zm0 4.13302-6.1574892 6.51474v1.68998l6.1574892-6.54102zm0 4.13301-6.1574892 6.50599v1.69874l6.1574892-6.54102zm0 3.75648-4.6532433 4.91234a.19008161.20138062 0 0 0 .1405066.35026h1.041401a.19008161.20138062 0 0 0 .1405065-.0613l3.3308292-3.53757zm0 4.12426-.7438571.78808a.19008161.20138062 0 0 0 .1405055.35026h.6033516z" fill="url(#c)"/><path d="m0 266.21766v1.53789 4.61367 1.53789 4.62194 1.53789 4.61368.008 1.52963.0165 4.60541 1.54616h1.5378906 4.6219401 1.5378907 9.2356116 1.537891 7.697721 1.537891 4.62194 1.537891v-1.54616-4.60541-13.86582-6.15156h-6.159831-1.537891-7.697721-1.537891-9.2356116-1.5378907-4.6219401zm1.5378906 1.53789h4.6219401v4.61367h-4.6219401zm6.1598308 0h9.2356116v4.61367h-9.2356116zm10.7735026 0h7.697721v4.61367h-7.697721zm9.235612 0h4.62194v4.61367h-4.62194zm-26.1689454 6.15156h4.6219401v4.62194h-4.6219401zm6.1598308 0h9.2356116 1.537891 7.697721v4.62194.0631c-.000793-.0357-.02451-.0641-.05426-.0641h-7.642428v-4.55218c0-.0365-.02401-.0661-.05426-.0661h-1.430403c-.03025 0-.05426.0296-.05426.0661v4.55218h-9.1818692c-.029248 0-.052199.0277-.053743.0625v-.0615zm20.0091146 0h4.62194v4.62194h-4.62194zm-1.537891 6.09575v.0641 4.61368.008h-18.4712236v-.008-4.61368-.0625c.00153.0348.024495.0625.053743.0625h9.1818686v4.55218c0 .0365.02401.0661.05426.0661h1.430403c.03025 0 .05426-.0296.05426-.0661v-4.55218h7.642428c.02975 0 .05347-.0284.05426-.0641zm-24.6310544.0641h4.6219401v4.61368h-4.6219401zm26.1689454 0h4.62194v4.61368h-4.62194zm-26.1689454 6.1681h4.6219401v4.60541h-4.6219401zm6.1598308 0h9.2356116v4.60541h-9.2356116zm10.7735026 0h7.697721v4.60541h-7.697721zm9.235612 0h4.62194v4.60541h-4.62194z" fill="url(#a)"/><path d="m5.8125 11.65625-5.64453125.001953c-.09294072.024199-.16796875.108872-.16796875.228516v5.583984 17.4375 5.570313.242187 17.46875 5.8125 17.4375.029297 5.78125.0625 17.40625 5.57813c0 .13808.09268953.24804.20703125.24804h28.67773475c.114341 0 .205078-.10996.205078-.24804v-.28711-69.281254-28.554688c0-.279844.056754-.492319.126953-.517578h-.123047-5.8125zm0 5.814453h17.46875v17.4375h-17.46875zm0 23.25h17.46875v17.46875h-17.46875zm0 23.28125h17.46875v17.4375h-17.46875zm0 23.3125h17.46875v17.406247h-17.46875z" fill="#06f" transform="matrix(.26458333 0 0 .26458333 0 263.13332)"/></g></svg>