<?xml version="1.0" encoding="UTF-8" standalone="no"?>
<!-- Created with Inkscape (http://www.inkscape.org/) -->

<svg
   xmlns:dc="http://purl.org/dc/elements/1.1/"
   xmlns:cc="http://creativecommons.org/ns#"
   xmlns:rdf="http://www.w3.org/1999/02/22-rdf-syntax-ns#"
   xmlns:svg="http://www.w3.org/2000/svg"
   xmlns="http://www.w3.org/2000/svg"
   xmlns:xlink="http://www.w3.org/1999/xlink"
   xmlns:sodipodi="http://sodipodi.sourceforge.net/DTD/sodipodi-0.dtd"
   xmlns:inkscape="http://www.inkscape.org/namespaces/inkscape"
   version="1.1"
   id="svg2"
   width="128"
   height="128"
   viewBox="0 0 128 128"
   sodipodi:docname="lc_flowchartshapes.flowchart-stored-data.svg"
   inkscape:export-filename="/home/rizmut/Dokumen/Rizmut/Github/libreoffice-style-karasa-jaga/build/images_karasa_jaga/cmd/lc_flowchartshapes.flowchart-stored-data.png"
   inkscape:export-xdpi="16.5"
   inkscape:export-ydpi="16.5"
   inkscape:version="0.92.3 (unknown)">
  <metadata
     id="metadata8">
    <rdf:RDF>
      <cc:Work
         rdf:about="">
        <dc:format>image/svg+xml</dc:format>
        <dc:type
           rdf:resource="http://purl.org/dc/dcmitype/StillImage" />
        <dc:title></dc:title>
      </cc:Work>
    </rdf:RDF>
  </metadata>
  <defs
     id="defs6">
    <inkscape:perspective
       id="perspective27"
       inkscape:persp3d-origin="64 : 42.666667 : 1"
       inkscape:vp_z="128 : 64 : 1"
       inkscape:vp_y="0 : 1000 : 0"
       inkscape:vp_x="0 : 64 : 1"
       sodipodi:type="inkscape:persp3d" />
    <linearGradient
       id="linearGradient3369">
      <stop
         id="stop3372"
         offset="0"
         style="stop-color:#ffffff;stop-opacity:1;" />
      <stop
         style="stop-color:#ffffff;stop-opacity:1;"
         offset="0.42597079"
         id="stop3374" />
      <stop
         style="stop-color:#f1f1f1;stop-opacity:1;"
         offset="0.5892781"
         id="stop3376" />
      <stop
         id="stop3378"
         offset="0.80219781"
         style="stop-color:#eaeaea;stop-opacity:1;" />
      <stop
         id="stop3384"
         offset="1"
         style="stop-color:#dfdfdf;stop-opacity:1;" />
    </linearGradient>
    <linearGradient
       id="linearGradient7422">
      <stop
         style="stop-color:#7c9fcf;stop-opacity:1"
         offset="0"
         id="stop7424" />
      <stop
         id="stop5348"
         offset="0.5"
         style="stop-color:#7c9ece;stop-opacity:1" />
      <stop
         id="stop7426"
         offset="1"
         style="stop-color:#7b9dcf;stop-opacity:1" />
    </linearGradient>
    <linearGradient
       y2="388.95178"
       x2="399.77466"
       y1="1324.7792"
       x1="405.94968"
       gradientTransform="matrix(0.08097132,0,0,0.07807154,182.74486,-6.9021226)"
       gradientUnits="userSpaceOnUse"
       id="linearGradient2330"
       xlink:href="#linearGradient7422"
       inkscape:collect="always" />
    <linearGradient
       inkscape:collect="always"
       xlink:href="#linearGradient3369"
       id="linearGradient38869"
       x1="164.67596"
       y1="79.935867"
       x2="-29.985672"
       y2="32.944592"
       gradientUnits="userSpaceOnUse"
       gradientTransform="rotate(90,61.693952,61.69395)" />
    <linearGradient
       inkscape:collect="always"
       xlink:href="#linearGradient3369"
       id="linearGradient42982"
       x1="54.063766"
       y1="82.953201"
       x2="126.61692"
       y2="-37.254951"
       gradientUnits="userSpaceOnUse"
       gradientTransform="translate(-1.0453119e-6,5.2714856)" />
    <linearGradient
       inkscape:collect="always"
       xlink:href="#linearGradient7422"
       id="linearGradient842"
       x1="5.4335938"
       y1="64.000977"
       x2="122.17216"
       y2="64.000977"
       gradientUnits="userSpaceOnUse" />
  </defs>
  <sodipodi:namedview
     pagecolor="#ffffff"
     bordercolor="#666666"
     borderopacity="1"
     objecttolerance="10"
     gridtolerance="10"
     guidetolerance="10"
     inkscape:pageopacity="0"
     inkscape:pageshadow="2"
     inkscape:window-width="1366"
     inkscape:window-height="706"
     id="namedview4"
     showgrid="true"
     inkscape:snap-page="true"
     inkscape:snap-global="true"
     inkscape:zoom="1.4142136"
     inkscape:cx="-47.44686"
     inkscape:cy="59.48016"
     inkscape:window-x="0"
     inkscape:window-y="0"
     inkscape:window-maximized="1"
     inkscape:current-layer="svg2"
     showguides="true">
    <inkscape:grid
       type="xygrid"
       id="grid837"
       spacingx="5.8181"
       spacingy="5.8181"
       empspacing="1" />
  </sodipodi:namedview>
  <path
     sodipodi:type="inkscape:offset"
     inkscape:radius="5.8107924"
     inkscape:original="M 24.892578 17.457031 L 24.892578 17.576172 C 17.088388 19.356573 11.247211 33.075439 11.244141 64 C 11.254141 94.905712 17.095091 108.59765 24.894531 110.37695 L 24.894531 110.54492 L 25.734375 110.54492 C 25.737375 110.54557 25.741141 110.54582 25.744141 110.54688 C 25.749141 110.54623 25.753142 110.54597 25.757812 110.54492 L 116.36133 110.54492 C 115.75663 109.81273 115.19846 109.01766 114.68945 108.18359 C 112.56252 104.69833 110.86613 100.07172 109.43945 94.427734 C 106.58608 83.139753 105.25186 79.546681 105.25195 64 C 105.25199 48.45365 106.58417 44.863742 109.4375 33.576172 C 110.86417 27.932387 112.56059 23.305454 114.6875 19.820312 C 115.19699 18.985474 115.75595 18.189787 116.36133 17.457031 L 43.234375 17.457031 L 27.34375 17.457031 L 25.742188 17.457031 L 24.892578 17.457031 z "
     style="fill:url(#linearGradient842);fill-opacity:1.0;fill-rule:evenodd;stroke:none;stroke-width:4.47213125;stroke-linecap:round;stroke-linejoin:round;stroke-miterlimit:4;stroke-dasharray:none;stroke-opacity:1"
     id="path832"
     d="m 24.892578,11.646484 a 5.8113735,5.8113735 0 0 0 -3.570312,1.236328 C 15.878449,15.194083 12.02479,20.632749 9.6152344,28.068359 6.8691439,36.542477 5.4351651,48.171948 5.4335938,64 a 5.8113735,5.8113735 0 0 0 0,0.002 c 0.00512,15.818644 1.4406109,27.436914 4.1875,35.902344 2.3898322,7.365043 6.2012442,12.764723 11.5664062,15.109373 a 5.8113735,5.8113735 0 0 0 3.707031,1.3418 h 0.839844 l -0.03516,-0.004 a 5.8113735,5.8113735 0 0 0 0.103515,0 l -0.04492,0.004 h 90.603518 a 5.8113735,5.8113735 0 0 0 4.48047,-9.51172 c -0.40749,-0.4934 -0.81102,-1.06419 -1.19141,-1.6875 -1.65144,-2.7061 -3.23475,-6.837908 -4.57812,-12.152344 C 112.18522,81.582711 111.06241,79.21422 111.0625,64 c 4e-5,-15.214398 1.12091,-17.579605 4.00781,-29 1.34338,-5.314278 2.92683,-9.446535 4.57813,-12.152344 0.38027,-0.623111 0.78492,-1.195081 1.19336,-1.689453 a 5.8113735,5.8113735 0 0 0 -4.48047,-9.511719 H 43.234375 27.34375 25.742188 Z M 24.433594,116.20508 a 5.8113735,5.8113735 0 0 0 0.148437,0.0273 l -0.07813,-0.008 c 0.06913,0.015 -0.12108,-0.0324 -0.07031,-0.0195 z" />
  <g
     transform="matrix(0,0.57912965,0.57912965,0,27.114229,-2.9133545)"
     inkscape:label="Livello 1"
     id="g1544" />
  <g
     transform="matrix(0,-0.57912965,0.57912965,0,27.114229,130.91165)"
     inkscape:label="Livello 1"
     id="g1599" />
  <g
     id="g42964"
     transform="translate(0,88)" />
  <path
     style="fill:url(#linearGradient38869);fill-opacity:1;fill-rule:evenodd;stroke:none;stroke-width:4.47213125;stroke-linecap:round;stroke-linejoin:round;stroke-miterlimit:4;stroke-dasharray:none;stroke-opacity:1"
     d="m 24.893251,17.4561 v 0.119141 C 17.089061,19.355642 11.247211,33.075439 11.244141,64 c 0.01,30.905712 5.85159,44.59843 13.65103,46.37773 v 0.16797 h 0.839843 c 0.003,6.5e-4 0.0068,9.5e-4 0.0098,0.002 0.005,-6.4e-4 0.009,-9.5e-4 0.01367,-0.002 H 116.362 c -0.6047,-0.73219 -1.16287,-1.52726 -1.67188,-2.36133 -2.12693,-3.48526 -3.82332,-8.11187 -5.25,-13.75586 C 106.58675,83.140529 105.25186,79.546681 105.25195,64 c 4e-5,-15.54635 1.33289,-19.137189 4.18622,-30.424759 1.42667,-5.643785 3.12309,-10.270718 5.25,-13.75586 0.50949,-0.834839 1.06845,-1.630525 1.67383,-2.363281 H 43.235048 27.344422 25.74286 Z"
     id="path37359"
     inkscape:connector-curvature="0"
     sodipodi:nodetypes="ccccccccccscscccccc" />
</svg>
