<svg height="128" viewBox="0 0 33.866666 33.866668" width="128" xmlns="http://www.w3.org/2000/svg" xmlns:xlink="http://www.w3.org/1999/xlink"><linearGradient id="a" gradientUnits="userSpaceOnUse" x1="32.02824601316" x2="32.02824601316" y1="256.97660170545" y2="292.38216396773"><stop offset="0" stop-color="#fff"/><stop offset="1" stop-color="#555"/></linearGradient><linearGradient id="b" gradientTransform="matrix(.28123848 0 0 .37648631 .039471 260.72313)" gradientUnits="userSpaceOnUse" x1="46.048" x2="46.048" y1="128.01709" y2="16.6203"><stop offset="0" stop-color="#c7cdd7"/><stop offset="1" stop-color="#fff"/></linearGradient><linearGradient id="c" gradientTransform="matrix(0 -.35442022 -.37301115 0 39.428856 298.31219)" gradientUnits="userSpaceOnUse" x1="74.667397" x2="74.667397" y1="101.61759" y2="18.585112"><stop offset="0" stop-color="#0c69ed" stop-opacity="0"/><stop offset=".14999999" stop-color="#1b77ef"/><stop offset=".5" stop-color="#4aa3f6"/><stop offset="1" stop-color="#89ddff"/></linearGradient><g transform="translate(0 -263.13332)"><path d="m1.539372 267.75192h30.787445v23.090584h-30.787445z" fill="url(#b)"/><path d="m0 266.21766v1.53789 4.61367 1.53789 4.62194 1.53789 4.61368.008 1.52963.0165 4.60541 1.54616h1.5378906 4.6219401 1.5378907 9.2356116 1.537891 7.697721 1.537891 4.62194 1.537891v-1.54616-4.60541-13.86582-6.15156h-6.159831-1.537891-7.697721-1.537891-9.2356116-1.5378907-4.6219401zm1.5378906 1.53789h4.6219401v4.61367h-4.6219401zm6.1598308 0h9.2356116v4.61367h-9.2356116zm10.7735026 0h7.697721v4.61367h-7.697721zm9.235612 0h4.62194v4.61367h-4.62194zm-26.1689454 6.15156h4.6219401v4.62194h-4.6219401zm6.1598308 0h9.2356116 1.537891 7.697721v4.62194.0631c-.000793-.0357-.02451-.0641-.05426-.0641h-7.642428v-4.55218c0-.0365-.02401-.0661-.05426-.0661h-1.430403c-.03025 0-.05426.0296-.05426.0661v4.55218h-9.1818692c-.029248 0-.052199.0277-.053743.0625v-.0615zm20.0091146 0h4.62194v4.62194h-4.62194zm-1.537891 6.09575v.0641 4.61368.008h-18.4712236v-.008-4.61368-.0625c.00153.0348.024495.0625.053743.0625h9.1818686v4.55218c0 .0365.02401.0661.05426.0661h1.430403c.03025 0 .05426-.0296.05426-.0661v-4.55218h7.642428c.02975 0 .05347-.0284.05426-.0641zm-24.6310544.0641h4.6219401v4.61368h-4.6219401zm26.1689454 0h4.62194v4.61368h-4.62194zm-26.1689454 6.1681h4.6219401v4.60541h-4.6219401zm6.1598308 0h9.2356116v4.60541h-9.2356116zm10.7735026 0h7.697721v4.60541h-7.697721zm9.235612 0h4.62194v4.60541h-4.62194z" fill="url(#a)"/><path d="m32.326818 267.75191v1.53789l-3.228417 3.07578h-1.670772l4.864381-4.61367zm-2.480051 0-4.838276 4.61367h-1.688175l4.873083-4.61367zm-3.724428 0-4.846978 4.61367h-1.679473l4.864381-4.61367zm-4.107313 0-4.838276 4.61367h-1.670772l.783175-.74414 4.072505-3.86953zm-4.107314 0-1.618559 1.53789-3.219717 3.07578h-1.679472l4.873083-4.61367zm-3.724428 0-4.446688 4.2416a.20005225.19008162 0 0 1 -.1305286.0579h-.0087214l-.330687.31419h-1.679475l4.873084-4.61367zm-3.794044 0-4.846977 4.61367h-1.6794743l4.8643833-4.61367zm-4.1073132 0-4.7425545 4.52272v-1.59577l3.0891876-2.92695zm-4.107313 0-.6352415.60358v-.60358zm30.1522042 3.86953v.74414h-.783174z" fill="url(#c)"/><path d="m5.8125 11.65625-5.64453125.001953c-.09294072.024199-.16796875.108872-.16796875.228516v5.583984 17.4375 5.570313.242187.007813h5.8125v-.007813h17.46875v.007813h5.808594.003906v-.007813h34.90625 5.8125 29.09375v.007813h5.8125v-.007813h17.46875v.007813h5.60352c.11434 0 .20703-.111893.20703-.25v-28.591797c0-.121491-.07678-.208238-.17188-.230469h-23.10742-5.8125-29.09375-5.8125-34.90625-5.8125zm0 5.814453h17.46875v17.4375h-17.46875zm23.28125 0h34.90625v17.4375h-34.90625zm40.71875 0h29.09375v17.4375h-29.09375zm34.90625 0h17.46875v17.4375h-17.46875z" fill="#06f" transform="matrix(.26458333 0 0 .26458333 0 263.13332)"/></g></svg>