<?xml version="1.0" encoding="UTF-8" standalone="no"?>
<!-- Created with Inkscape (http://www.inkscape.org/) -->

<svg
   xmlns:dc="http://purl.org/dc/elements/1.1/"
   xmlns:cc="http://creativecommons.org/ns#"
   xmlns:rdf="http://www.w3.org/1999/02/22-rdf-syntax-ns#"
   xmlns:svg="http://www.w3.org/2000/svg"
   xmlns="http://www.w3.org/2000/svg"
   xmlns:xlink="http://www.w3.org/1999/xlink"
   xmlns:sodipodi="http://sodipodi.sourceforge.net/DTD/sodipodi-0.dtd"
   xmlns:inkscape="http://www.inkscape.org/namespaces/inkscape"
   version="1.1"
   id="svg2"
   width="128"
   height="128"
   viewBox="0 0 128 128"
   sodipodi:docname="lc_flowchartshapes.flowchart-direct-access-storage.svg"
   inkscape:export-filename="/home/rizmut/Dokumen/Rizmut/Github/libreoffice-style-karasa-jaga/build/images_karasa_jaga/cmd/lc_flowchartshapes.flowchart-direct-access-storage.png"
   inkscape:export-xdpi="16.5"
   inkscape:export-ydpi="16.5"
   inkscape:version="0.92.3 (unknown)">
  <metadata
     id="metadata8">
    <rdf:RDF>
      <cc:Work
         rdf:about="">
        <dc:format>image/svg+xml</dc:format>
        <dc:type
           rdf:resource="http://purl.org/dc/dcmitype/StillImage" />
        <dc:title></dc:title>
      </cc:Work>
    </rdf:RDF>
  </metadata>
  <defs
     id="defs6">
    <inkscape:perspective
       id="perspective27"
       inkscape:persp3d-origin="64 : 42.666667 : 1"
       inkscape:vp_z="128 : 64 : 1"
       inkscape:vp_y="0 : 1000 : 0"
       inkscape:vp_x="0 : 64 : 1"
       sodipodi:type="inkscape:persp3d" />
    <linearGradient
       id="linearGradient3369">
      <stop
         id="stop3372"
         offset="0"
         style="stop-color:#ffffff;stop-opacity:1;" />
      <stop
         style="stop-color:#ffffff;stop-opacity:1;"
         offset="0.42597079"
         id="stop3374" />
      <stop
         style="stop-color:#f1f1f1;stop-opacity:1;"
         offset="0.5892781"
         id="stop3376" />
      <stop
         id="stop3378"
         offset="0.80219781"
         style="stop-color:#eaeaea;stop-opacity:1;" />
      <stop
         id="stop3384"
         offset="1"
         style="stop-color:#dfdfdf;stop-opacity:1;" />
    </linearGradient>
    <linearGradient
       id="linearGradient7422">
      <stop
         style="stop-color:#7c9fcf;stop-opacity:1"
         offset="0"
         id="stop7424" />
      <stop
         id="stop5348"
         offset="0.5"
         style="stop-color:#7c9ece;stop-opacity:1" />
      <stop
         id="stop7426"
         offset="1"
         style="stop-color:#7b9dcf;stop-opacity:1" />
    </linearGradient>
    <linearGradient
       y2="388.95178"
       x2="399.77466"
       y1="1324.7792"
       x1="405.94968"
       gradientTransform="matrix(0.08097132,0,0,0.07807154,182.74486,-6.9021226)"
       gradientUnits="userSpaceOnUse"
       id="linearGradient2330"
       xlink:href="#linearGradient7422"
       inkscape:collect="always" />
    <linearGradient
       inkscape:collect="always"
       xlink:href="#linearGradient3369"
       id="linearGradient38869"
       x1="-26.824043"
       y1="96.435867"
       x2="185.51433"
       y2="47.444592"
       gradientUnits="userSpaceOnUse"
       gradientTransform="translate(-3.1357603e-6,4.6121011)" />
    <linearGradient
       inkscape:collect="always"
       xlink:href="#linearGradient3369"
       id="linearGradient42982"
       x1="54.063766"
       y1="82.953201"
       x2="126.61692"
       y2="-37.254951"
       gradientUnits="userSpaceOnUse"
       gradientTransform="translate(-1.0453119e-6,5.2714856)" />
    <linearGradient
       inkscape:collect="always"
       xlink:href="#linearGradient3369"
       id="linearGradient852"
       x1="5.8181"
       y1="24.00135"
       x2="122.1801"
       y2="24.00135"
       gradientUnits="userSpaceOnUse" />
    <linearGradient
       inkscape:collect="always"
       xlink:href="#linearGradient7422"
       id="linearGradient869"
       x1="0.01171875"
       y1="24.001953"
       x2="127.98633"
       y2="24.001953"
       gradientUnits="userSpaceOnUse" />
    <linearGradient
       inkscape:collect="always"
       xlink:href="#linearGradient7422"
       id="linearGradient877"
       x1="0"
       y1="73.884789"
       x2="128.68372"
       y2="73.884789"
       gradientUnits="userSpaceOnUse" />
  </defs>
  <sodipodi:namedview
     pagecolor="#ffffff"
     bordercolor="#666666"
     borderopacity="1"
     objecttolerance="10"
     gridtolerance="10"
     guidetolerance="10"
     inkscape:pageopacity="0"
     inkscape:pageshadow="2"
     inkscape:window-width="1366"
     inkscape:window-height="706"
     id="namedview4"
     showgrid="true"
     inkscape:snap-page="true"
     inkscape:snap-global="true"
     inkscape:zoom="2"
     inkscape:cx="-16.33337"
     inkscape:cy="109.99004"
     inkscape:window-x="0"
     inkscape:window-y="0"
     inkscape:window-maximized="1"
     inkscape:current-layer="svg2"
     showguides="false">
    <inkscape:grid
       type="xygrid"
       id="grid837"
       spacingx="5.8181"
       spacingy="5.8181"
       empspacing="1" />
  </sodipodi:namedview>
  <g
     id="g906"
     transform="matrix(0,-1,-1,0,129.27435,128.68526)">
    <path
       d="M 64,3.6503906 C 48.388312,3.6503477 32.915757,5.2179343 21.451172,8.0839844 15.718879,9.5170094 10.97688,11.214419 7.2480469,13.464844 3.519214,15.715268 0.01216501,19.057597 0.01171875,24.001953 c 4.4599e-4,4.944356 3.50749525,8.286685 7.23632815,10.537109 3.7288331,2.250425 8.4708321,3.947835 14.2031251,5.38086 11.464585,2.86605 26.93714,4.433637 42.548828,4.433594 15.611355,-8.8e-5 31.082696,-1.567549 42.54688,-4.433594 5.73208,-1.433022 10.47636,-3.130455 14.20507,-5.38086 3.72871,-2.250404 7.23393,-5.592858 7.23438,-10.537109 -4.5e-4,-4.94425 -3.50567,-8.286704 -7.23438,-10.537109 C 117.02324,11.214439 112.27896,9.5170067 106.54688,8.0839844 95.082696,5.2179398 79.611355,3.6504785 64,3.6503906 Z"
       id="ellipse859"
       style="opacity:1;fill:url(#linearGradient869);fill-opacity:1;stroke:none;stroke-width:3.77952766;stroke-linecap:round;stroke-linejoin:round;stroke-miterlimit:4;stroke-dasharray:none;stroke-dashoffset:0;stroke-opacity:1"
       inkscape:original="M 64 9.4570312 A 58.181 14.54525 0 0 0 5.8183594 24.001953 A 58.181 14.54525 0 0 0 64 38.546875 A 58.181 14.54525 0 0 0 122.17969 24.001953 A 58.181 14.54525 0 0 0 64 9.4570312 z "
       inkscape:radius="5.8067813"
       sodipodi:type="inkscape:offset" />
    <path
       sodipodi:nodetypes="ccccccssssssssssscssssssssssssscsccccccccccsscsccccccccccc"
       inkscape:connector-curvature="0"
       id="path854"
       d="m 127.9982,21.404297 c -0.17204,0.436589 -2.59389,3.319257 -2.38492,3.056641 0.10449,-0.131309 -1.33358,1.458043 -1.06836,1.193359 0.26522,-0.264685 -1.61161,1.420979 -1.17187,1.058594 0.43973,-0.362386 -1.87938,1.387206 -1.26367,0.957031 0.6157,-0.430176 -2.14056,1.353914 -1.35352,0.878906 1.57409,-0.950015 -5.1975,2.616089 -2.98242,1.580078 2.21508,-1.03601 -6.15469,2.447471 -3.36133,1.402344 2.79336,-1.045127 -7.05721,2.272914 -3.74414,1.263672 3.31307,-1.009242 -7.89541,2.07932 -4.11719,1.134766 3.77822,-0.944555 -8.663425,1.873495 -4.47266,1.013671 4.19078,-0.859824 -9.34799,1.650875 -4.79687,0.890625 4.55112,-0.760249 -9.944642,1.41099 -5.085938,0.761719 4.858705,-0.649271 -10.444539,1.160294 -5.332031,0.630859 5.112508,-0.529434 -10.846547,0.89696 -5.535156,0.494141 5.311391,-0.402818 -11.143753,0.628678 -5.689453,0.357422 5.4543,-0.271256 -11.333373,0.351292 -5.792969,0.214844 5.540404,-0.136448 -11.414877,0.0723 -5.845703,0.07227 5.569135,-1.5e-5 -11.386086,-0.208669 -5.845703,-0.07227 5.540383,0.136403 -11.247265,-0.486058 -5.792969,-0.214844 5.454296,0.271214 -11.000854,-0.760202 -5.689453,-0.357422 5.311401,0.40278 -10.647686,-1.023539 -5.535156,-0.494141 5.112529,0.529399 -10.19272,-1.280098 -5.333985,-0.630859 4.858736,0.649239 -9.635143,-1.52194 -5.083984,-0.761719 4.551159,0.760222 -8.98769,-1.750425 -4.796875,-0.890625 4.190815,0.8598 -8.250921,-1.956253 -4.472656,-1.011718 3.778264,0.944534 -7.432263,-2.145946 -4.119141,-1.136719 3.313123,1.009227 -6.537552,-2.30879 -3.74414,-1.263672 2.793411,1.045118 -5.5764595,-2.438351 -3.361329,-1.402344 C 12.43974,31.164914 5.6680549,27.598808 7.2421875,28.548828 8.0292538,29.023838 5.2729485,27.241694 5.8886719,27.671875 6.5043953,28.102056 4.1852443,26.350497 4.625,26.712891 5.0647557,27.075284 3.1878911,25.389602 3.453125,25.654297 3.7183589,25.918992 2.280269,24.33157 2.3847656,24.462891 2.5937588,24.725532 0.17203254,21.840868 0,21.404297 v 66.027344 15.890629 1.60156 0.84961 c 0.00108051,0.0293 0.00238263,0.0586 0.00390625,0.0879 C 0.00203761,105.90824 7.35435e-4,105.95504 0,106.00195 c 2.859101e-6,0.0325 0.01532069,0.0575 0.015625,0.0899 0.02509713,0.48061 0.10972796,0.95624 0.25195312,1.41601 0.65253434,4.09618 3.65490278,7.03751 6.97460938,9.04102 3.7303485,2.25134 8.4740915,3.94962 14.2070315,5.38281 11.465879,2.86638 26.938379,4.43364 42.550781,4.43359 15.612069,-8e-5 31.085308,-1.56917 42.55078,-4.43554 5.73274,-1.43319 10.47485,-3.12954 14.20508,-5.38086 3.47461,-2.09705 6.64214,-5.2013 7.07617,-9.60938 0.0516,-0.21697 0.0908,-0.43674 0.11719,-0.6582 0.003,-0.0997 0.0488,-0.17828 0.0488,-0.2793 -0.002,-0.0658 -0.004,-0.13156 -0.008,-0.19726 0.004,-0.0709 0.007,-0.14188 0.008,-0.21289 V 104.752 l -0.004,0.0391 c -3e-4,-0.0378 -9.7e-4,-0.0755 -0.002,-0.11329 l 0.6917,-0.10545 z"
       style="fill:url(#linearGradient877);fill-opacity:1;fill-rule:evenodd;stroke:none;stroke-width:4.47213125;stroke-linecap:round;stroke-linejoin:round;stroke-miterlimit:4;stroke-dasharray:none;stroke-opacity:1" />
    <path
       sodipodi:nodetypes="ccccccccccccccccccc"
       inkscape:connector-curvature="0"
       id="path37359"
       d="m 122.17969,30.001953 c -81.453127,65.332031 -40.726563,32.666016 0,0 z m 0,4 C 112.96296,40.191616 96.044275,44.529258 64,44.546875 31.91681,44.521639 10.859333,39.431523 5.8183594,34.001953 v 53.429688 15.890629 1.60156 0.84961 h 0.044922 c -0.01737,0.0761 -0.032344,0.15231 -0.044922,0.22851 7.069e-4,8.03306 26.0494116,14.54502 58.1816406,14.54493 32.131468,-1.8e-4 58.17898,-6.51206 58.17969,-14.54493 -0.0112,-0.13678 -0.03,-0.27351 -0.0566,-0.41015 h 0.0566 v -0.83985 c 6.5e-4,-0.003 9.5e-4,-0.007 0.002,-0.01 -6.4e-4,-0.005 -9.5e-4,-0.009 -0.002,-0.0137 z"
       style="fill:url(#linearGradient38869);fill-opacity:1;fill-rule:evenodd;stroke:none;stroke-width:4.47213125;stroke-linecap:round;stroke-linejoin:round;stroke-miterlimit:4;stroke-dasharray:none;stroke-opacity:1" />
    <g
       id="g1544"
       inkscape:label="Livello 1"
       transform="matrix(0,0.57912965,0.57912965,0,27.114229,-2.9133545)" />
    <g
       id="g1599"
       inkscape:label="Livello 1"
       transform="matrix(0,-0.57912965,0.57912965,0,27.114229,130.91165)" />
    <path
       cx="64.000618"
       cy="25.99929"
       rx="58.373665"
       ry="14.755787"
       id="path42947"
       style="opacity:1;fill:url(#linearGradient42982);fill-opacity:1;stroke:none;stroke-width:5.16429853;stroke-linecap:square;stroke-linejoin:bevel;stroke-miterlimit:4;stroke-dasharray:none;stroke-dashoffset:0;stroke-opacity:0.73039216"
       d=""
       inkscape:connector-curvature="0" />
    <g
       transform="translate(0,88)"
       id="g42964" />
    <ellipse
       ry="14.54525"
       rx="58.181"
       cy="24.00135"
       cx="63.9991"
       id="path838"
       style="opacity:1;fill:url(#linearGradient852);fill-opacity:1;stroke:none;stroke-width:3.77952766;stroke-linecap:round;stroke-linejoin:round;stroke-miterlimit:4;stroke-dasharray:none;stroke-dashoffset:0;stroke-opacity:1" />
  </g>
</svg>
