<svg height="88" width="88" xmlns="http://www.w3.org/2000/svg" xmlns:xlink="http://www.w3.org/1999/xlink"><linearGradient id="a"><stop offset="0" stop-color="#fff"/><stop offset="1" stop-color="#fff" stop-opacity="0"/></linearGradient><linearGradient id="b" gradientTransform="matrix(.5833334 0 0 .4444446 6.666668 -4.444444)" gradientUnits="userSpaceOnUse" x1="36.571423" x2="118.85712" y1="144.99995" y2="9.999995"><stop offset="0" stop-color="#fff"/><stop offset=".42597079" stop-color="#fff"/><stop offset=".5892781" stop-color="#f1f1f1"/><stop offset=".80219781" stop-color="#eaeaea"/><stop offset="1" stop-color="#dfdfdf"/></linearGradient><linearGradient id="c" gradientTransform="matrix(.06477709 0 0 .06505961 7.795886 -31.751767)" gradientUnits="userSpaceOnUse" x1="399.77466" x2="399.77466" y1="1164.6696" y2="549.06134"><stop offset="0" stop-color="#a7a7a9"/><stop offset=".5" stop-color="#7d7d83"/><stop offset="1" stop-color="#aaaab1"/></linearGradient><linearGradient id="d" gradientTransform="matrix(.7098215 0 0 .4598215 -.265068 .642857)" gradientUnits="userSpaceOnUse" x1="77.5625" x2="108.625" xlink:href="#a" y1="32" y2="32"/><linearGradient id="e" gradientTransform="matrix(.99999997 0 0 .57322316 -14.852818 59.545942)" gradientUnits="userSpaceOnUse" x1="58.852818" x2="151.32086" y1="-16.142143" y2="-19.120222"><stop offset="0" stop-color="#06f"/><stop offset="1" stop-color="#80b3ff"/></linearGradient><linearGradient id="f" gradientTransform="matrix(.99999999 0 0 .50000003 64.142139 -28.573589)" gradientUnits="userSpaceOnUse" x1="-21.213205" x2="25.455845" y1="-80.024391" y2="-104.6518"><stop offset="0" stop-color="#0968ef"/><stop offset="1" stop-color="#aecffc"/></linearGradient><radialGradient id="g" cx="84.903702" cy="-130.14005" gradientTransform="matrix(.30794145 .30794145 -.30794145 .30794145 50.133878 110.90745)" gradientUnits="userSpaceOnUse" r="57.039597" xlink:href="#h"/><linearGradient id="h"><stop offset="0" stop-color="#011701"/><stop offset=".80671918" stop-color="#145703"/><stop offset="1" stop-color="#2fa207" stop-opacity=".384314"/></linearGradient><radialGradient id="i" cx="43.084476" cy="-121.92532" gradientTransform="matrix(.30347528 .31234377 -.3628951 .35259129 43.626059 116.16172)" gradientUnits="userSpaceOnUse" r="57.039597" xlink:href="#h"/><radialGradient id="j" cx="51.991096" cy="-78.028419" gradientTransform="matrix(.28232256 .33158686 -.56115095 .47778001 31.708295 122.93033)" gradientUnits="userSpaceOnUse" r="57.039597" xlink:href="#h"/><linearGradient id="k" gradientTransform="scale(1.0975951 .9110828)" gradientUnits="userSpaceOnUse" x1="26.091133" x2="31.500689" xlink:href="#a" y1="14.856744" y2="14.856744"/><filter id="l" height="1.277481" width="1.279832" x="-.139916" y="-.138741"><feGaussianBlur stdDeviation=".28784801"/></filter><linearGradient id="m" gradientUnits="userSpaceOnUse" x1="304.88663" x2="345.62039" y1="385.86127" y2="384.62384"><stop offset="0" stop-color="#765c44"/><stop offset="1" stop-color="#765c44" stop-opacity="0"/></linearGradient><linearGradient id="n" gradientUnits="userSpaceOnUse" spreadMethod="reflect" x1="88.60625" x2="91.575107" y1="13.510336" y2="13.510336"><stop offset="0" stop-color="#c8ff87"/><stop offset="1" stop-color="#abff87" stop-opacity="0"/></linearGradient><linearGradient id="o" gradientUnits="userSpaceOnUse" spreadMethod="reflect" x1="31.60625" x2="34.575107" y1="13.510336" y2="13.510336"><stop offset="0" stop-color="#fff"/><stop offset="1" stop-color="#790000" stop-opacity="0"/></linearGradient><radialGradient id="p" cx="50.424522" cy="-81.945961" gradientTransform="matrix(.30794145 .30794145 -.30794145 .30794145 50.133877 110.90745)" gradientUnits="userSpaceOnUse" r="50.15279"><stop offset="0" stop-color="#7ae91e" stop-opacity=".996078"/><stop offset="1" stop-color="#62c916"/></radialGradient><filter id="q" color-interpolation-filters="sRGB" height="1.024" width="1.024" x="-.012" y="-.012"><feGaussianBlur stdDeviation=".28192153"/></filter><linearGradient id="r" gradientUnits="userSpaceOnUse" x1="88.388145" x2="101.27929" xlink:href="#a" y1="51.615383" y2="113.91425"/><rect fill="url(#c)" height="72" rx="4.144231" width="72" x="8" y="8"/><rect fill="url(#b)" fill-rule="evenodd" height="64" rx="1.5" ry="1.444445" width="64" x="12" y="12"/><path d="m64.683594 12c-7.583425 4.335233-33.575415 58.309995-38.004046 64h19.320452c1.082101-5.447495 23.343355-59.654296 28-64z" fill="url(#d)" fill-rule="evenodd"/><g transform="matrix(-.48613591 -.48613591 -.48613591 .48613591 102.61618 54.402829)"><path d="m44.883804 46.449421h51.116196v6.136363h-51.116196z" fill="url(#e)"/><path d="m23.176695-73.974716h52.823303v5.974713h-52.823303z" fill="url(#f)" transform="rotate(90)"/></g><g transform="matrix(.6875 0 0 .6875 -.044885 -.068182)"><path d="m127.39616 90.58295c.00005-1.656397-1.34274-2.99918-2.99913-2.999132h-19.88392v-19.884771c.00005-1.656396-1.34274-2.99918-2.99913-2.999132l-10.617743.000005c-1.656393-.000048-2.999178 1.342735-2.999131 2.999127v19.884771h-19.88392c-1.656396-.000048-2.99918 1.342735-2.999132 2.999132v10.61774c-.000048 1.6564 1.342736 2.99918 2.999132 2.99913h19.88392v19.88392c-.00005 1.6564 1.342736 2.99918 2.999132 2.99913h10.617742c1.65639.00005 2.99918-1.34273 2.99913-2.99913v-19.88392h19.88392c1.6564.00005 2.99918-1.34274 2.99913-2.99913z" fill="#1f5623" fill-opacity=".905882"/><path d="m127.39616 90.58295c.00005-1.656397-1.34274-2.99918-2.99913-2.999132h-19.88392v-19.884771c.00005-1.656396-1.34274-2.99918-2.99913-2.999132l-10.617743.000005c-1.656393-.000048-2.999178 1.342735-2.999131 2.999127v19.884771h-19.88392c-1.656396-.000048-2.99918 1.342735-2.999132 2.999132v10.61774c-.000048 1.6564 1.342736 2.99918 2.999132 2.99913h19.88392v19.88392c-.00005 1.6564 1.342736 2.99918 2.999132 2.99913h10.617742c1.65639.00005 2.99918-1.34273 2.99913-2.99913v-19.88392h19.88392c1.6564.00005 2.99918-1.34274 2.99913-2.99913z" fill="url(#g)"/><path d="m127.39616 90.58295c.00005-1.656397-1.34274-2.99918-2.99913-2.999132h-19.88392v-19.884771c.00005-1.656396-1.34274-2.99918-2.99913-2.999132l-10.617743.000005c-1.656393-.000048-2.999178 1.342735-2.999131 2.999127v19.884771h-19.88392c-1.656396-.000048-2.99918 1.342735-2.999132 2.999132v10.61774c-.000048 1.6564 1.342736 2.99918 2.999132 2.99913h19.88392v19.88392c-.00005 1.6564 1.342736 2.99918 2.999132 2.99913h10.617742c1.65639.00005 2.99918-1.34273 2.99913-2.99913v-19.88392h19.88392c1.6564.00005 2.99918-1.34274 2.99913-2.99913z" fill="#066704"/><path d="m127.39616 90.58295c.00005-1.656397-1.34274-2.99918-2.99913-2.999132h-19.88392v-19.884771c.00005-1.656396-1.34274-2.99918-2.99913-2.999132l-10.617743.000005c-1.656393-.000048-2.999178 1.342735-2.999131 2.999127v19.884771h-19.88392c-1.656396-.000048-2.99918 1.342735-2.999132 2.999132v10.61774c-.000048 1.6564 1.342736 2.99918 2.999132 2.99913h19.88392v19.88392c-.00005 1.6564 1.342736 2.99918 2.999132 2.99913h10.617742c1.65639.00005 2.99918-1.34273 2.99913-2.99913v-19.88392h19.88392c1.6564.00005 2.99918-1.34274 2.99913-2.99913z" fill="url(#i)"/><path d="m127.39616 90.58295c.00005-1.656397-1.34274-2.99918-2.99913-2.999132h-19.88392v-19.884771c.00005-1.656396-1.34274-2.99918-2.99913-2.999132l-10.617743.000005c-1.656393-.000048-2.999178 1.342735-2.999131 2.999127v19.884771h-19.88392c-1.656396-.000048-2.99918 1.342735-2.999132 2.999132v10.61774c-.000048 1.6564 1.342736 2.99918 2.999132 2.99913h19.88392v19.88392c-.00005 1.6564 1.342736 2.99918 2.999132 2.99913h10.617742c1.65639.00005 2.99918-1.34273 2.99913-2.99913v-19.88392h19.88392c1.6564.00005 2.99918-1.34274 2.99913-2.99913z" fill="url(#j)"/><g fill-rule="evenodd"><path d="m31.7 16 2.875-3.375c-1.051205-1.695758-3.935136-2.288018-5.9375-.3125l2.8125 3.375z" fill="url(#k)" filter="url(#l)" opacity=".498127" transform="matrix(-.649543579 .649543579 .65578089674 .65578089674 80.34420336326 61.10022754565)"/><path d="m31.7 16 2.875-3.375c-1.051205-1.695758-3.935136-2.288018-5.9375-.3125l2.8125 3.375z" fill="url(#k)" filter="url(#l)" opacity=".790262" transform="matrix(-.64763609601 -.64763609601 .64147625216 -.64147625216 102.80882092964 152.77126444806)"/><path d="m31.7 16 2.875-3.375c-1.051205-1.695758-3.935136-2.288018-5.9375-.3125l2.8125 3.375z" fill="url(#m)" filter="url(#l)" opacity=".498127" transform="matrix(-.58819377522 .58819377522 -.59384197557 -.59384197557 128.42011101176 113.04166572109)"/><path d="m88.7 16 2.875-3.375c-1.051205-1.695758-3.935136-2.288018-5.9375-.3125l2.8125 3.375z" fill="url(#n)" filter="url(#l)" opacity=".790262" transform="matrix(-.59384197557 -.59384197557 .58819377522 -.58819377522 112.80264541475 161.7584578086)"/><path d="m31.7 16 2.875-3.375c-1.051205-1.695758-3.935136-2.288018-5.9375-.3125l2.8125 3.375z" fill="url(#o)" filter="url(#l)" opacity=".790262" transform="matrix(-.54004785512 -.54004785512 -.53491130791 .53491130791 148.6387375185 100.16244647365)"/><path d="m88.7 16 2.875-3.375c-1.051205-1.695758-3.935136-2.288018-5.9375-.3125l2.8125 3.375z" fill="url(#n)" filter="url(#l)" opacity=".790262" transform="matrix(-.5544433657 -.5544433657 -.54916990332 .54916990332 158.16645547734 109.42078210279)"/></g><path d="m124.39703 90.58295h-22.88305v-22.883898l-10.617741-.000005-.000001 22.883903h-22.883052v10.61774h22.883052v22.88305h10.617742v-22.88305h22.88305z" fill="url(#p)"/><path d="m101.51439 67.699139-10.617965-.000005v22.884181l-22.883579-.000435v10.61797h22.882977l.000001 22.88297h10.617966v-22.88297l22.88298-.00001-.00001-10.617956h-22.88297zm-.75422.754216-.00061 22.129359c-.00004.41656.33766.754256.75422.754217h22.12876v9.109529h-22.12876c-.41656-.00004-.75426.33766-.75422.75422v22.12876h-9.10953v-22.12876c.00004-.41656-.337657-.75426-.754216-.75422h-22.12876v-9.109534l22.129362.000436c.416558.000039.754257-.337657.754216-.754216v-22.129961z" fill="#eef4ca" fill-opacity=".779412" filter="url(#q)"/><path d="m90.896484 67.699219v22.882812h-22.882812v6.925781a65.433395 38.789856 0 0 0 17.794922 1.498047 65.433395 38.789856 0 0 0 38.587886-7.521484v-.902344h-22.88281v-22.882812z" fill="url(#r)"/></g></svg>