<?xml version="1.0" encoding="UTF-8" standalone="no"?>
<svg
   xmlns:dc="http://purl.org/dc/elements/1.1/"
   xmlns:cc="http://creativecommons.org/ns#"
   xmlns:rdf="http://www.w3.org/1999/02/22-rdf-syntax-ns#"
   xmlns:svg="http://www.w3.org/2000/svg"
   xmlns="http://www.w3.org/2000/svg"
   xmlns:sodipodi="http://sodipodi.sourceforge.net/DTD/sodipodi-0.dtd"
   xmlns:inkscape="http://www.inkscape.org/namespaces/inkscape"
   height="24"
   viewBox="0 0 6.3499999 6.3500001"
   width="24"
   version="1.1"
   id="svg62"
   sodipodi:docname="lc_importslidefromfile.svg"
   inkscape:version="0.92.4 (unknown)"
   inkscape:export-filename="/home/rizmut/Dokumen/Rizmut/Github/libreoffice-style-karasa-jaga/build/next/cmd/lc_importslidefromfile.png"
   inkscape:export-xdpi="96"
   inkscape:export-ydpi="96">
  <metadata
     id="metadata68">
    <rdf:RDF>
      <cc:Work
         rdf:about="">
        <dc:format>image/svg+xml</dc:format>
        <dc:type
           rdf:resource="http://purl.org/dc/dcmitype/StillImage" />
        <dc:title />
      </cc:Work>
    </rdf:RDF>
  </metadata>
  <defs
     id="defs66">
    <linearGradient
       id="o"
       gradientTransform="matrix(0,-1.0293895,1.0293895,0,11.93834,80.22496)"
       gradientUnits="userSpaceOnUse"
       x1="1.0677871"
       x2="62.728462"
       y1="41.08411"
       y2="41.08411">
      <stop
         offset="0"
         id="stop1411" />
      <stop
         offset=".06517398"
         id="stop1413" />
      <stop
         offset=".56999999"
         stop-opacity=".588235"
         id="stop1415" />
      <stop
         offset=".74199998"
         stop-color="#3b3b3b"
         stop-opacity=".72"
         id="stop1417" />
      <stop
         offset="1"
         stop-color="#fff"
         stop-opacity="0"
         id="stop1419" />
    </linearGradient>
    <filter
       id="l">
      <feGaussianBlur
         stdDeviation=".89030997"
         id="feGaussianBlur1390" />
    </filter>
    <linearGradient
       id="n"
       gradientTransform="matrix(0,-1.0293895,1.0293895,0,11.93834,80.22496)"
       gradientUnits="userSpaceOnUse"
       x1="9.7097082"
       x2="66.606155"
       y1="37.262951"
       y2="37.262951">
      <stop
         offset="0"
         id="stop1400" />
      <stop
         offset=".60089153"
         id="stop1402" />
      <stop
         offset=".60089153"
         stop-opacity=".588235"
         id="stop1404" />
      <stop
         offset=".74199998"
         stop-color="#3b3b3b"
         stop-opacity=".72"
         id="stop1406" />
      <stop
         offset="1"
         stop-color="#fff"
         stop-opacity="0"
         id="stop1408" />
    </linearGradient>
    <filter
       id="k">
      <feGaussianBlur
         stdDeviation="1.7999096"
         id="feGaussianBlur1387" />
    </filter>
    <linearGradient
       id="m"
       gradientTransform="matrix(0,0.81954313,-0.81954313,0,76.958576,-3.634586)"
       gradientUnits="userSpaceOnUse"
       x1="82.834549"
       x2="82.834549"
       y1="62.217617"
       y2="10.156634">
      <stop
         offset="0"
         stop-color="#fefefe"
         id="stop1393" />
      <stop
         offset=".23920465"
         stop-color="#e9eaea"
         id="stop1395" />
      <stop
         offset="1"
         stop-color="#fdfdfd"
         id="stop1397" />
    </linearGradient>
  </defs>
  <sodipodi:namedview
     pagecolor="#ffffff"
     bordercolor="#666666"
     borderopacity="1"
     objecttolerance="10"
     gridtolerance="10"
     guidetolerance="10"
     inkscape:pageopacity="0"
     inkscape:pageshadow="2"
     inkscape:window-width="1360"
     inkscape:window-height="714"
     id="namedview64"
     showgrid="true"
     inkscape:zoom="13.906434"
     inkscape:cx="-0.72686904"
     inkscape:cy="9.1355971"
     inkscape:window-x="0"
     inkscape:window-y="28"
     inkscape:window-maximized="1"
     inkscape:current-layer="svg62">
    <inkscape:grid
       type="xygrid"
       id="grid875" />
  </sodipodi:namedview>
  <filter
     id="a">
    <feGaussianBlur
       stdDeviation="1.9"
       id="feGaussianBlur2" />
  </filter>
  <radialGradient
     id="b"
     cx="100.88867"
     cy="155.99673"
     gradientTransform="matrix(4.4358932 0 0 4.0437488 -312.90386 -445.7342)"
     gradientUnits="userSpaceOnUse"
     r="40">
    <stop
       offset="0"
       stop-color="#fff"
       id="stop5" />
    <stop
       offset=".11366145"
       stop-color="#bdbebf"
       id="stop7" />
    <stop
       offset=".20296688"
       stop-color="#ececec"
       id="stop9" />
    <stop
       offset=".2363"
       stop-color="#fafafa"
       id="stop11" />
    <stop
       offset=".38818121"
       stop-color="#fff"
       id="stop13" />
    <stop
       offset=".5313"
       stop-color="#fafafa"
       id="stop15" />
    <stop
       offset=".8449"
       stop-color="#ebecec"
       id="stop17" />
    <stop
       offset="1"
       stop-color="#e1e2e3"
       id="stop19" />
  </radialGradient>
  <radialGradient
     id="c"
     cx="48"
     cy="112"
     gradientTransform="matrix(1.0107803 0 0 .7798658 30.921447 25.75368)"
     gradientUnits="userSpaceOnUse"
     r="32">
    <stop
       offset="0"
       stop-color="#ffea00"
       id="stop22" />
    <stop
       offset="1"
       stop-color="#ffa000"
       id="stop24" />
  </radialGradient>
  <linearGradient
     id="d"
     gradientUnits="userSpaceOnUse"
     x1="52.663445"
     x2="52.663445"
     y1="62.977589"
     y2="67.365891">
    <stop
       offset="0"
       id="stop27" />
    <stop
       offset="1"
       stop-opacity="0"
       id="stop29" />
  </linearGradient>
  <filter
     id="e">
    <feGaussianBlur
       stdDeviation="1.1263538"
       id="feGaussianBlur32" />
  </filter>
  <filter
     id="f"
     height="1.294962"
     width="1.106002"
     x="-.053001"
     y="-.147481">
    <feGaussianBlur
       stdDeviation="1.4133574"
       id="feGaussianBlur35" />
  </filter>
  <linearGradient
     id="g"
     gradientUnits="userSpaceOnUse"
     x1="56"
     x2="56"
     y1="32"
     y2="88.117546">
    <stop
       offset="0"
       stop-color="#fff"
       id="stop38" />
    <stop
       offset="1"
       stop-color="#fff"
       stop-opacity="0"
       id="stop40" />
  </linearGradient>
  <clipPath
     id="h">
    <path
       d="m19.612718 62.977532c-1.219674 0-2.1875.967827-2.1875 2.1875v17.062499c9.640301 2.396967 27.001626 4.247351 38.49233 4.247351 11.490703 0 22.359698-1.353033 31.999999-3.75v-17.062499c0-1.219674-.967827-2.1875-2.1875-2.1875z"
       filter="url(#f)"
       id="path43" />
  </clipPath>
  <g
     transform="matrix(.05939994 0 0 .05798391 -1.82366 -1.485529)"
     id="g60">
    <path
       d="m 19.986702,41.839471 c -3.884437,0 -6.999999,3.146813 -7,7.03125 l -9e-6,64.932659 c 0,3.88444 3.115569,7.00645 7.000001,7 l 69.826828,-0.11594 c 3.884432,-0.006 7,-3.11556 7,-7 l 8e-6,-64.932658 c 0,-3.884437 -3.115563,-7.03125 -7,-7.03125 h -9.446083 v 3.38205 c 0,0.95614 -0.762611,1.71875 -1.71875,1.71875 H 66.051259 c -0.95614,0 -1.71875,-0.762611 -1.71875,-1.71875 v -3.38205 z"
       style="fill:#020202;stroke:#000000;stroke-width:2;stroke-linecap:round;stroke-linejoin:round;stroke-dashoffset:1.08780003;filter:url(#a)"
       transform="matrix(1.0107803,0,0,1.0398212,30.921447,-3.361312)"
       id="path46"
       inkscape:connector-curvature="0"
       sodipodi:nodetypes="cssssssscsssscc" />
    <path
       d="m 50.744566,39.429379 c -3.707572,0 -5.551181,3.25964 -6.696418,6.888816 l 1e-6,1.840627 -9e-6,66.490088 c -10e-7,3.81411 2.988851,6.89508 6.696418,6.88882 l 71.337662,-0.12056 c 3.70756,-0.006 6.69642,-3.07471 6.69642,-6.88882 V 46.19764 c 0,-3.814097 -2.98885,-6.888816 -6.69642,-6.888816 h -2.29546 -8.90853 v 2.775853 c 0,0.994216 -0.77083,1.787194 -1.73728,1.787194 h -0.48985 -9.398397 c -0.966447,0 -1.737278,-0.792979 -1.737278,-1.787194 v -2.775853 z"
       id="path48"
       inkscape:connector-curvature="0"
       style="fill:#ffffff"
       sodipodi:nodetypes="cscssssssccsscsscc" />
    <path
       d="m 50.801888,40.4692 c -2.935098,0 -5.306596,2.439633 -5.306596,5.459062 l -9e-6,69.110578 c -10e-7,3.01945 2.371501,5.46401 5.306596,5.45907 l 71.659381,-0.12056 c 2.9351,-0.005 5.3066,-2.43962 5.3066,-5.45907 V 45.807707 c 0,-3.019428 -2.3715,-5.459062 -5.3066,-5.459062 h -11.59043 v 2.320932 c 0,1.242766 -0.97144,2.242115 -2.1795,2.242115 h -8.98901 c -1.20806,0 -2.179494,-0.999347 -2.179494,-2.242115 v -2.320932 z"
       id="path50"
       inkscape:connector-curvature="0"
       style="fill:url(#b)"
       sodipodi:nodetypes="cssssssscsssscc" />
    <rect
       height="59.319622"
       rx="2.225311"
       ry="2.289247"
       width="66.814049"
       x="52.972725"
       y="52.997959"
       id="rect52"
       style="fill:url(#c)" />
    <rect
       clip-path="url(#h)"
       height="32.912258"
       rx="2.2015769"
       transform="matrix(1.0107803,0,0,1.0398212,30.921447,-12.487407)"
       width="66.101448"
       x="21.816093"
       y="62.977528"
       id="rect54"
       style="fill:url(#d);filter:url(#e)" />
    <path
       d="m 52.965828,110.22713 v 1.03982 c 0,1.26823 0.978261,2.27576 2.211082,2.27459 l 62.38272,-0.1842 c 1.23282,-10e-4 2.21108,-1.00636 2.21108,-2.27459 v -1.03982 c 0,1.26823 -0.97826,2.27344 -2.21108,2.27461 l -62.38272,0.1842 c -1.232821,0.001 -2.211082,-1.00638 -2.211082,-2.27461 z"
       id="path56"
       inkscape:connector-curvature="0"
       style="fill:#ffffff"
       sodipodi:nodetypes="csccscccc" />
    <path
       d="m 24.003606,46.316872 c -1.219674,0 -2.1875,0.967827 -2.1875,2.1875 l -8e-6,24.026412 c 9.640301,2.396967 23.904414,3.634061 35.395118,3.634061 11.490704,0 21.066027,-1.237144 30.706328,-3.634111 l 8e-6,-24.026412 c 0,-1.219674 -0.967827,-2.1875 -2.1875,-2.1875 z"
       transform="matrix(1.0107803,0,0,1.0398212,30.921443,4.957199)"
       id="path58"
       inkscape:connector-curvature="0"
       style="fill:url(#g);filter:url(#f)"
       sodipodi:nodetypes="cscscscc" />
  </g>
  <g
     transform="matrix(0.04960937,0,0,0.04960937,0.03464697,0.25207597)"
     id="g1452">
    <path
       style="fill:url(#o);filter:url(#l)"
       inkscape:connector-curvature="0"
       d="m 62.90625,4.1875 c -0.0748,0.016652 -0.36731,0.2329119 -0.75,0.59375 C 62.03186,4.8893232 61.879842,4.965332 61.71875,5 H 61.6875 L 27.09375,37.125 H 27.0625 c -0.404497,0.379746 -0.624992,0.530192 -0.625,1.40625 0,0.889949 0.238972,1.012421 0.65625,1.40625 1.66e-4,0.01042 1.66e-4,0.02083 0,0.03125 l 8.15625,8.1875 c 0.0031,0.0032 0.02809,-0.0032 0.03125,0 0.775393,0.750006 1.716072,0.801364 2.5625,0.15625 -1.66e-4,-0.01042 -1.66e-4,-0.02083 0,-0.03125 L 53.6875,35.625 c 0.56972,-0.453708 1.580214,0.02182 1.59375,0.75 l -0.18157,52.384759 c 1.65e-4,0.01042 1.65e-4,0.02084 0,0.03125 0.0034,0.707102 0.08474,1.312746 0.21875,1.59375 0.134011,0.281004 0.133455,0.372189 0.71875,0.375 h 13.580776 c 1.25758,-0.006 1.962732,-0.711179 1.96875,-1.96875 -1.65e-4,-0.01041 -1.65e-4,-0.02083 0,-0.03125 L 71.53125,36.375 c 0.01354,-0.728182 1.02403,-1.203708 1.59375,-0.75 l 15.84375,12.65625 c 1.66e-4,0.01042 1.66e-4,0.02083 0,0.03125 0.0072,0.0055 0.02385,-0.0053 0.03125,0 0.635246,0.459257 1.94339,0.382118 2.5,-0.15625 0.0032,-0.0032 0.02808,0.0032 0.03125,0 l 8.25,-8.21875 c -1.66e-4,-0.01042 -1.66e-4,-0.02083 0,-0.03125 0.47093,-0.444438 0.56251,-0.813037 0.5625,-1.375 0,-0.504109 -0.1439,-0.952202 -0.625,-1.40625 L 64.75,4.6875 c -0.01042,1.657e-4 -0.02083,1.657e-4 -0.03125,0 C 64.455333,4.4369162 64.113035,4.2696507 63.75,4.25 63.69803,4.25415 63.645723,4.25415 63.59375,4.25 63.228743,4.16485 63.218663,4.1179529 62.90625,4.1875 Z"
       transform="matrix(0,0.81954313,-0.81954313,0,78.191699,-3.634586)"
       id="path1444" />
    <path
       style="opacity:0.38118801;fill:url(#n);filter:url(#k)"
       inkscape:connector-curvature="0"
       d="m 62.875,3.15625 c -0.06032,0.008 -0.121049,0.047707 -0.1875,0.0625 -0.48362,0.1076597 -0.864129,0.5093782 -1.21875,0.84375 L 61.375,3.96875 26.40625,36.40625 c -0.462378,0.436375 -0.93749,0.962612 -0.9375,2.125 0,1.162426 0.475217,1.688694 0.9375,2.125 l 8.15625,8.1875 c 0.01038,0.01057 0.02069,0.02087 0.03125,0.03125 1.098694,1.062722 2.645963,1.131656 3.84375,0.21875 0.01056,-0.01038 0.02087,-0.02069 0.03125,-0.03125 L 54.3125,36.40625 54.13093,88.791009 c 0.0036,0.745803 0.0499,1.480613 0.3125,2.03125 0.2626,0.550637 0.730849,0.902106 1.59375,0.90625 h 13.580776 c 1.723601,-0.0083 2.929252,-1.213907 2.9375,-2.9375 L 72.5,36.40625 88.34375,49.0625 c 0.01038,0.01057 0.02069,0.02087 0.03125,0.03125 1.07779,0.821452 2.838425,0.723401 3.8125,-0.21875 0.01056,-0.01038 0.02087,-0.02069 0.03125,-0.03125 l 8.25,-8.21875 c 0.69025,-0.651426 0.84376,-1.384911 0.84375,-2.09375 0,-0.709628 -0.21613,-1.473688 -0.90625,-2.125 l -35,-32.4375 C 64.971408,3.5550927 64.41179,3.3136889 63.8125,3.28125 63.57335,3.2254605 63.297273,3.1002576 62.875,3.15625 Z"
       transform="matrix(0,0.81954313,-0.81954313,0,78.191699,-3.634586)"
       id="path1446" />
    <path
       style="fill:url(#m)"
       inkscape:connector-curvature="0"
       d="M 73.857482,48.560553 46.861356,77.243946 c -0.06506,0.06894 -0.155662,0.108004 -0.250452,0.108004 -0.09479,0 -0.185392,-0.03906 -0.250453,-0.108004 L 39.611419,70.494911 C 39.493078,70.372563 39.481875,70.18211 39.585056,70.046732 L 52.634943,53.727783 5.676053,53.676105 C 5.487149,53.675202 5.334234,53.522286 5.33333,53.33338 V 43.209831 c 9.04e-4,-0.188905 0.153819,-0.341819 0.342723,-0.342723 l 46.95889,0.05168 -13.049887,-16.318951 c -0.103181,-0.135377 -0.09198,-0.325829 0.02636,-0.448177 l 6.749032,-6.749033 c 0.06507,-0.06893 0.155661,-0.108011 0.250453,-0.108011 0.09479,0 0.185392,0.03908 0.250452,0.108011 l 26.996126,28.683389 c 0.193848,0.137321 0,0.330692 0,0.474539 z"
       id="path1448" />
    <path
       style="fill:#ffffff"
       inkscape:connector-curvature="0"
       d="m 73.93879,48.198472 c -0.0092,-0.03969 -0.04638,-0.09211 -0.09483,-0.126441 L 46.849059,19.401795 c -0.06506,-0.06894 -0.15809,-0.09483 -0.252881,-0.09483 -0.09479,0 -0.156207,0.0259 -0.22127,0.09483 l -1.171661,1.833378 25.256359,26.836858 c 0.193848,0.137321 0,0.330302 0,0.474151 l -25.256359,26.868469 1.171661,1.833379 c 0.06507,0.06893 0.126479,0.09482 0.22127,0.09483 0.09479,0 0.187821,-0.0259 0.252881,-0.09483 L 73.843961,48.546182 c 0,-0.107888 0.122091,-0.22865 0.09483,-0.34771 z"
       id="path1450" />
  </g>
</svg>
