<svg enable-background="new 0 0 128 128" height="128" viewBox="0 0 128 128" width="128" xmlns="http://www.w3.org/2000/svg" xmlns:xlink="http://www.w3.org/1999/xlink"><linearGradient id="a" gradientUnits="userSpaceOnUse" x1="88.591797" x2="71.262016" y1="96.592697" y2="79.262917"><stop offset="0" stop-color="#fff"/><stop offset="1" stop-color="#555753"/></linearGradient><linearGradient id="b" gradientUnits="userSpaceOnUse" x1="85.219681" x2="61.336319" y1="93.219681" y2="69.336319"><stop offset="0"/><stop offset="1" stop-color="#393b38"/></linearGradient><linearGradient id="c" gradientUnits="userSpaceOnUse" x1="96" x2="88.0002" y1="104" y2="96.0002"><stop offset="0" stop-color="#888a85"/><stop offset=".0072" stop-color="#8c8e89"/><stop offset=".0673" stop-color="#abaca9"/><stop offset=".1347" stop-color="#c5c6c4"/><stop offset=".2115" stop-color="#dbdbda"/><stop offset=".3012" stop-color="#ebebeb"/><stop offset=".4122" stop-color="#f7f7f6"/><stop offset=".5679" stop-color="#fdfdfd"/><stop offset="1" stop-color="#fff"/></linearGradient><filter id="d"><feGaussianBlur stdDeviation=".40750996"/></filter><filter id="e"><feGaussianBlur stdDeviation=".4901192"/></filter><filter id="f"><feGaussianBlur stdDeviation=".90565481"/></filter><filter id="g"><feGaussianBlur stdDeviation="1.92"/></filter><linearGradient id="h" gradientTransform="matrix(.7142857 0 0 .7222222 -1.714286 35.777778)" gradientUnits="userSpaceOnUse" x1="101.09873" x2="101.09873" y1="31.740467" y2="95.845909"><stop offset="0" stop-color="#e5edf8"/><stop offset="1" stop-color="#fafafa"/></linearGradient><linearGradient id="i" gradientTransform="matrix(.7142857 0 0 .7222222 -1.714286 35.777778)" gradientUnits="userSpaceOnUse" x1="101.09873" x2="101.09873" y1="32.7673" y2="84.340691"><stop offset="0" stop-color="#cfdff4"/><stop offset="1" stop-color="#fafafa"/></linearGradient><clipPath id="j"><path d="m8 30.477533h112v71.191017h-112z"/></clipPath><filter id="k"><feGaussianBlur stdDeviation="1.5362957"/></filter><linearGradient id="l" gradientTransform="matrix(.7142857 0 0 .8181818 -1.714286 26.181818)" gradientUnits="userSpaceOnUse" x1="68.019264" x2="68.019264" xlink:href="#m" y1="48.347881" y2="98.134933"/><linearGradient id="m"><stop offset="0" stop-color="#e0e0e0"/><stop offset="1" stop-color="#fff"/></linearGradient><clipPath id="n"><path d="m8 28.500002h112v71.191017h-112z"/></clipPath><filter id="o"><feGaussianBlur stdDeviation="1.56"/></filter><linearGradient id="p" gradientTransform="matrix(.7142857 0 0 .7272727 -1.714286 35.636364)" gradientUnits="userSpaceOnUse" x1="87.53772" x2="87.53772" xlink:href="#m" y1="86.377098" y2="23.310532"/><linearGradient id="q" gradientTransform="matrix(.7142857 0 0 1 -1.714286 8)" gradientUnits="userSpaceOnUse" x1="88.56501" x2="88.56501" y1="100.00008" y2="98"><stop offset="0"/><stop offset="1" stop-opacity="0"/></linearGradient><linearGradient id="r" gradientTransform="matrix(.7142857 0 0 1 -1.714286 28)" gradientUnits="userSpaceOnUse" x1="70.382027" x2="70.382027" y1="28" y2="31"><stop offset="0" stop-color="#fff"/><stop offset="1" stop-color="#fff" stop-opacity="0"/></linearGradient><linearGradient id="s" gradientUnits="userSpaceOnUse" x1="98.9077" x2="98.9077" y1="46.5466" y2="162.9086"><stop offset="0" stop-color="#99999c"/><stop offset=".5" stop-color="#9c9ca1"/><stop offset="1" stop-color="#cdcdd1"/></linearGradient><linearGradient id="t" gradientUnits="userSpaceOnUse" x1="78.61085034347" x2="120.34349451992" y1="88.85241574791" y2="111.54715161013"><stop offset="0" stop-color="#fff"/><stop offset="1" stop-color="#ccc"/></linearGradient><linearGradient id="u" gradientUnits="userSpaceOnUse" x1="88.38102" x2="130.48599" y1="1008.9966" y2="1015.6953"><stop offset="0" stop-color="#7b7b7b"/><stop offset="1" stop-color="#797979" stop-opacity="0"/></linearGradient><clipPath id="v"><path d="m41.355614 933.74432h83.943993v117.52166h-83.943993z"/></clipPath><filter id="w" color-interpolation-filters="sRGB" height="1.073732" width="1.13754" x="-.06877" y="-.036866"><feGaussianBlur stdDeviation="1.0557314"/></filter><linearGradient id="x" gradientUnits="userSpaceOnUse" x1="100.83452" x2="116.42799" y1="37.992622" y2="80.92411"><stop offset="0" stop-color="#fff" stop-opacity=".683453"/><stop offset="1" stop-color="#fff" stop-opacity="0"/></linearGradient><linearGradient id="y" gradientTransform="matrix(.58291629 0 0 .66676377 62.177025 -566.68964)" gradientUnits="userSpaceOnUse" x1="63.011921" x2="63.011921" y1="945.89801" y2="1033.1569"><stop offset="0" stop-color="#545454" stop-opacity=".988"/><stop offset="1" stop-color="#ebebeb"/></linearGradient><linearGradient id="z" gradientTransform="matrix(.48045402 0 0 .66178602 128.73476 -578.51587)" gradientUnits="userSpaceOnUse" x1="-60.535713" x2="-60.357143" y1="979.50507" y2="1009.505"><stop offset="0" stop-color="#979797"/><stop offset=".148461" stop-color="#f6f6f6"/><stop offset=".28399727" stop-color="#e2e2e2"/><stop offset=".41198727" stop-color="#dedede"/><stop offset=".41198727" stop-color="#f6f6f6"/><stop offset="1" stop-color="#6b6b6b"/></linearGradient><linearGradient id="A" gradientTransform="matrix(.480454 0 0 .58309338 128.76683 499.76645)" gradientUnits="userSpaceOnUse" x1="-61.078979" x2="-60.6413" y1="-1056.658" y2="-1010.9131"><stop offset="0" stop-color="#777"/><stop offset=".18176934" stop-color="#a8a8a8"/><stop offset=".22864534" stop-color="#cdcdcd"/><stop offset=".34561315" stop-color="#f7f7f7"/><stop offset="1" stop-color="#fff"/></linearGradient><g transform="matrix(1.45455 0 0 1.45455 -.000204 -55.597068)"><path d="m6 28.5h112v72h-112z" style="opacity:.5;stroke:#000;stroke-width:5.599081;stroke-linecap:round;stroke-linejoin:round;filter:url(#g)" transform="matrix(.7142857 0 0 .7145202 -.285714 36.136174)"/><path d="m4 56h80v52h-80z" fill="url(#h)"/><path d="m4 56h80v52h-80z" fill="url(#i)"/><path clip-path="url(#j)" d="m8 34.596413 56 37.903587 56-37.903587v-4h-112z" fill="#00438a" filter="url(#k)" opacity=".5" transform="matrix(.7142857 0 0 -.9540107 -1.714286 137.16578)"/><path d="m4 104.72727 40-32.72727 40 32.72727v3.27273h-80z" fill="url(#l)"/><path clip-path="url(#n)" d="m8 32.5 56 40 56-40v-4h-112z" fill="#00438a" filter="url(#o)" opacity=".6" transform="matrix(.7142857 0 0 .7727272 -1.714286 33.977275)"/><path d="m4 58.909091 40 29.090909 40-29.090909v-2.909091h-80z" fill="url(#p)"/><path d="m4 104v4h80v-4z" fill="url(#q)" opacity=".2"/><path d="m4 56v3h80v-3z" fill="url(#r)"/></g><g transform="translate(-.000003)"><path d="m111.414 86.586c.25-.25-26.379-1.586-31.414-1.586-1.654 0-3 1.346-3 3 0 5.035 1.336 31.664 1.586 31.414z" fill="url(#a)" filter="url(#d)" opacity=".1"/><path d="m111.414 86.586c.375-.375-21.97-.586-31.414-.586-1.103 0-2 .897-2 2 0 9.444.211 31.789.586 31.414z" filter="url(#f)" opacity=".2"/><path d="m111.414 86.586c.239-.239-21.607.414-31.414.414-.553 0-1 .447-1 1 0 9.807-.653 31.653-.414 31.414z" fill="url(#b)" filter="url(#e)" opacity=".1"/><path d="m78.586 119.414s11.914-9.914 17.414-15.414 15.414-17.414 15.414-17.414-21.164 1.414-31.414 1.414c0 10.25-1.414 31.414-1.414 31.414z" fill="url(#c)"/></g><path d="m69.8172 46.546616h58.180996v81.453445h-58.180996z" fill="url(#s)"/><path d="m75.6353 52.3647h46.5448v69.817215h-46.5448z" fill="url(#t)"/><path clip-path="url(#v)" d="m92.81509 1029.6319c1.071428 1.4286 10.71429 15.3572 11.78571 13.5715 1.07143-1.7858 26.42857-25.3572 25-26.7858-1.42857-1.4285-33.928567-41.78567-33.928567-41.78567z" fill="url(#u)" fill-rule="evenodd" filter="url(#w)" opacity=".68" transform="matrix(.69309305 0 0 .69309305 41.153912 -600.6251)"/><path d="m75.6353 52.3647v47.28063c14.171661-16.500095 33.53848-23.157342 46.54439-25.022283v-22.257813z" fill="url(#x)" fill-rule="evenodd"/><path d="m87.2715 64.0009h23.2724v46.5448h-23.2724z" fill="url(#y)"/><path d="m89.925598 66.798828h17.686728v41.164684h-17.686728z" fill="#535353"/><path d="m93.0896 69.819h11.6362v17.4543h-11.6362z" fill="url(#z)"/><path d="m93.0896-116.3638h11.636201v29.0905h-11.636201z" fill="url(#A)" transform="scale(1 -1)"/></svg>