<svg height="128" viewBox="0 0 33.866666 33.866668" width="128" xmlns="http://www.w3.org/2000/svg" xmlns:xlink="http://www.w3.org/1999/xlink"><filter id="a"><feGaussianBlur stdDeviation="1.0394514"/></filter><filter id="b"><feGaussianBlur stdDeviation=".50063244"/></filter><radialGradient id="c" cx="29.76385226" cy="291.40611614316" gradientUnits="userSpaceOnUse" r="35.76837323786"><stop offset="0" stop-color="#3e3e3e"/><stop offset=".0151" stop-color="#505050"/><stop offset=".0558" stop-color="#7e7e7e"/><stop offset=".1357" stop-color="#c6c6c6"/><stop offset=".20990001" stop-color="#f1f1f1"/><stop offset=".24349999" stop-color="#fcfcfc"/><stop offset=".2722" stop-color="#fff"/></radialGradient><radialGradient id="d" cx="102" cy="112.3047" gradientTransform="matrix(.25084352 0 0 .25163671 3.970596 262.92104)" gradientUnits="userSpaceOnUse" r="139.55859"><stop offset="0" stop-color="#535557"/><stop offset=".11366145" stop-color="#898a8c"/><stop offset=".20296688" stop-color="#ececec"/><stop offset=".2363" stop-color="#fafafa"/><stop offset=".2722" stop-color="#fff"/><stop offset=".5313" stop-color="#fafafa"/><stop offset=".8449" stop-color="#ebecec"/><stop offset="1" stop-color="#e1e2e3"/></radialGradient><linearGradient id="e" gradientUnits="userSpaceOnUse" x1="88.591797" x2="71.262016" y1="96.592697" y2="79.262917"><stop offset="0" stop-color="#fff"/><stop offset="1" stop-color="#555753"/></linearGradient><filter id="f"><feGaussianBlur stdDeviation=".40750996"/></filter><filter id="g"><feGaussianBlur stdDeviation=".90565481"/></filter><linearGradient id="h" gradientUnits="userSpaceOnUse" x1="85.219681" x2="61.336319" y1="93.219681" y2="69.336319"><stop offset="0"/><stop offset="1" stop-color="#393b38"/></linearGradient><filter id="i"><feGaussianBlur stdDeviation=".4901192"/></filter><linearGradient id="j" gradientUnits="userSpaceOnUse" x1="96" x2="88.000198" y1="104" y2="96.000198"><stop offset="0" stop-color="#888a85"/><stop offset=".0072" stop-color="#8c8e89"/><stop offset=".0673" stop-color="#abaca9"/><stop offset=".1347" stop-color="#c5c6c4"/><stop offset=".2115" stop-color="#dbdbda"/><stop offset=".3012" stop-color="#ebebeb"/><stop offset=".4122" stop-color="#f7f7f6"/><stop offset=".5679" stop-color="#fdfdfd"/><stop offset="1" stop-color="#fff"/></linearGradient><linearGradient id="k" gradientTransform="matrix(.26458333 0 0 .20410714 -21.193262 273.5846)" gradientUnits="userSpaceOnUse" x1="154.28152" x2="154.28152" y1="104.82231" y2="115.19268"><stop offset="0" stop-color="#4c78fd"/><stop offset="1" stop-color="#85a2fe"/></linearGradient><linearGradient id="l" gradientTransform="matrix(0 -.26458333 .26458333 0 -64.804176 312.44417)" gradientUnits="userSpaceOnUse" x1="182.28288" x2="182.28288" y1="238.96916" y2="344.42404"><stop offset="0" stop-color="#8e79b9"/><stop offset="1" stop-color="#462886"/></linearGradient><linearGradient id="m" gradientUnits="userSpaceOnUse" x1="40.7267" x2="29.0905" y1="52.3647" y2="52.3647"><stop offset="0" stop-color="#fff" stop-opacity=".683453"/><stop offset="1" stop-color="#fff" stop-opacity="0"/></linearGradient><g transform="translate(0 -263.13332)"><path d="m28.946235 8.9687825.040816 102.0638675h55.184949c.53 0 1.039-.211 1.414-.586l32.828-32.827997c.375-.375.586-.884.586-1.414v-67.2358705z" filter="url(#a)" opacity=".553425" transform="matrix(.26697567 0 0 .26545011 1.069308 261.7715)"/><path d="m28.946235 9 .04082 102.03265h55.184945c.53 0 1.039-.211 1.414-.586l32.828-32.827997c.375-.375.586-.884.586-1.414v-67.204653z" filter="url(#a)" opacity=".306849" transform="matrix(.26697567 0 0 .26545011 1.069308 261.7715)"/><path d="m30.866234 10.931136v97.971234l52.729766-.0001c.53 0 1.039-.211 1.414-.586l31.484-31.76593c.375-.375.586-.884.586-1.414v-64.205204z" filter="url(#b)" opacity=".89589" transform="matrix(.26697567 0 0 .26545011 1.069308 261.7715)"/><path d="m28.946235 9.9655172.040816 101.0671328h55.184949c.53 0 1.039-.211 1.414-.586l32.828-32.827997c.375-.375.586-.884.586-1.414v-66.2391358z" filter="url(#a)" opacity=".306849" transform="matrix(.26697567 0 0 .26545011 1.069308 261.7715)"/><path d="m9.3098425 264.67317v26.00648h14.0906775c.135838 0 .266292-.0541.362404-.15019l8.413706-8.41371c.09611-.0961.150188-.22657.150188-.3624v-17.08018z" fill="url(#c)" stroke-width=".264583"/><path d="m11.046437 266.15892c-.138215 0-.250843.11299-.250843.25164l.08518 22.42007c0 .1389.112628.25164.250843.25164h12.19708c.06597 0 .130689-.0267.177346-.0737l7.440941-7.20239c.04691-.0471.0735-.11173.0735-.17791v-15.39708c0-.13865-.112376-.25163-.250841-.25163z" fill="url(#d)" stroke-width=".264583"/><g fill="#b3b3b3"><path d="m12.314979 283.07718h16.933098v1.539372h-16.933098z"/><path d="m12.314979 286.15594h12.699821v1.539372h-12.699821z"/><path d="m12.314979 267.68347h16.933098v1.539372h-16.933098z"/><path d="m12.314979 270.76221h16.933098v1.539372h-16.933098z"/><path d="m12.314979 273.84094h16.933098v1.539372h-16.933098z"/><path d="m12.314979 276.91971h16.933098v1.539372h-16.933098z"/><path d="m12.314979 279.99844h16.933098v1.539372h-16.933098z"/></g><path d="m15.393723 293.92123h10.775606v3.078753h-10.775606z" fill="url(#k)"/><path d="m12.266853 269.22284h13.85435v3.078745h-13.85435z" fill="#f60"/><path d="m29.1875 17.359375v23.792969h15.244141c2.638231.004082 4.27664-1.101849 5.529297-2.347656 1.25125-1.24441 2.378018-2.893634 2.376953-5.542969v-.007813-7.988281-.005859c.001621-2.649865-1.117039-4.290659-2.363282-5.53711-1.246242-1.24645-2.88692-2.363697-5.535156-2.363281zm7.396484 74.371094c-1.051503.052213-2.14197.350033-3.277343.917969-2.762688 1.381288-3.940261 4.07838-4.119141 6.466796v4.996096h24.625l-11.90625-10.414064a6.0564499 6.0564499 0 0 0 -.361328-.289063c-1.564014-1.16948-3.208432-1.764757-4.960938-1.677734z" fill="url(#m)" transform="matrix(.26458333 0 0 .26458333 0 263.13332)"/><path d="m1.6146752 273.96003c0-2.57906 2.2275594-4.63169 4.8305111-4.63169h5.3128857c.233313-.00026.488191.25473.487826.48783v2.11666c.000317.2333-.254726.48819-.487826.48783h-5.3128857c-.4239434 0-.8271099.0844-1.157552.35109-.3304421.26667-.5942145.69141-.5942145 1.18828l.00835 15.97257c0 .42394.1373709.82711.4040452 1.15755s.6384629.65505 1.1353271.65505h3.0787446l-.00554-2.21775c.0002911-.2345.095887-.38694.214974-.44648.156128-.0781.3672811-.0529.5043623.0496l4.15065 3.62975.0083.008.03307.0248c.01325.0143.02704.0281.04134.0413.115085.0882.198437.24668.198437.3886 0 .14193-.08335.30044-.198437.38861-.0143.0133-.02809.027-.04134.0413-.01124.008-.02227.0163-.03307.0248l-.0083.008-4.15065 3.63803h-.0083c-.071481.0521-.1582015.087-.2645836.0909-.2382041.008-.447018-.20961-.4464844-.48783l.00554-2.10357h-3.0787107c-2.5790597.00069-4.6181169-2.28771-4.6181169-4.89066z" fill="url(#l)"/><g transform="matrix(.29316259 0 0 .29316259 -.280809 256.22941)"><path d="m111.414 86.586c.25-.25-26.379-1.586-31.414-1.586-1.654 0-3 1.346-3 3 0 5.035 1.336 31.664 1.586 31.414z" fill="url(#e)" filter="url(#f)" opacity=".750685"/><path d="m111.414 86.586c.375-.375-21.97-.586-31.414-.586-1.103 0-2 .897-2 2 0 9.444.211 31.789.586 31.414z" filter="url(#g)" opacity=".564"/><path d="m111.414 86.586c.239-.239-21.607.414-31.414.414-.553 0-1 .447-1 1 0 9.807-.653 31.653-.414 31.414z" fill="url(#h)" filter="url(#i)" opacity=".1"/><path d="m79.721619 119.31106 31.505501-31.505504h-31.505501z" fill="url(#j)"/></g></g></svg>