<?xml version="1.0" encoding="UTF-8" standalone="no"?>
<svg
   xmlns:dc="http://purl.org/dc/elements/1.1/"
   xmlns:cc="http://creativecommons.org/ns#"
   xmlns:rdf="http://www.w3.org/1999/02/22-rdf-syntax-ns#"
   xmlns:svg="http://www.w3.org/2000/svg"
   xmlns="http://www.w3.org/2000/svg"
   xmlns:xlink="http://www.w3.org/1999/xlink"
   xmlns:sodipodi="http://sodipodi.sourceforge.net/DTD/sodipodi-0.dtd"
   xmlns:inkscape="http://www.inkscape.org/namespaces/inkscape"
   height="128"
   viewBox="0 0 33.866666 33.866668"
   width="128"
   version="1.1"
   id="svg164"
   sodipodi:docname="lc_insertreferencefield.svg"
   inkscape:export-filename="/home/rizmut/Dokumen/Rizmut/Github/libreoffice-style-karasa-jaga/build/images_karasa_jaga/cmd/lc_insertreferencefield.png"
   inkscape:export-xdpi="16.5"
   inkscape:export-ydpi="16.5"
   inkscape:version="0.92.3 (unknown)">
  <metadata
     id="metadata170">
    <rdf:RDF>
      <cc:Work
         rdf:about="">
        <dc:format>image/svg+xml</dc:format>
        <dc:type
           rdf:resource="http://purl.org/dc/dcmitype/StillImage" />
        <dc:title></dc:title>
      </cc:Work>
    </rdf:RDF>
  </metadata>
  <defs
     id="defs168">
    <linearGradient
       inkscape:collect="always"
       xlink:href="#g"
       id="linearGradient977"
       gradientUnits="userSpaceOnUse"
       x1="88.591797"
       y1="96.592697"
       x2="71.262016"
       y2="79.262917" />
    <linearGradient
       inkscape:collect="always"
       xlink:href="#j"
       id="linearGradient979"
       gradientUnits="userSpaceOnUse"
       x1="85.219681"
       y1="93.219681"
       x2="61.336319"
       y2="69.336319" />
    <linearGradient
       inkscape:collect="always"
       xlink:href="#l"
       id="linearGradient981"
       gradientUnits="userSpaceOnUse"
       x1="96"
       y1="104"
       x2="88.000198"
       y2="96.000198" />
    <linearGradient
       inkscape:collect="always"
       xlink:href="#g"
       id="linearGradient983"
       gradientUnits="userSpaceOnUse"
       x1="88.591797"
       y1="96.592697"
       x2="71.262016"
       y2="79.262917" />
    <linearGradient
       inkscape:collect="always"
       xlink:href="#j"
       id="linearGradient985"
       gradientUnits="userSpaceOnUse"
       x1="85.219681"
       y1="93.219681"
       x2="61.336319"
       y2="69.336319" />
    <linearGradient
       inkscape:collect="always"
       xlink:href="#l"
       id="linearGradient987"
       gradientUnits="userSpaceOnUse"
       x1="96"
       y1="104"
       x2="88.000198"
       y2="96.000198" />
    <radialGradient
       inkscape:collect="always"
       xlink:href="#d"
       id="radialGradient1037"
       gradientUnits="userSpaceOnUse"
       gradientTransform="matrix(0.96868017,0,0,-0.96868017,13.687922,129.93131)"
       cx="102"
       cy="112.3047"
       r="139.5585" />
    <radialGradient
       inkscape:collect="always"
       xlink:href="#d"
       id="radialGradient1045"
       gradientUnits="userSpaceOnUse"
       gradientTransform="matrix(3.7795275,0,0,3.7795275,0,-994.51962)"
       cx="21.99338226"
       cy="291.40611614316"
       fx="21.99338226"
       fy="291.40611614316"
       r="35.76837323786" />
    <radialGradient
       inkscape:collect="always"
       xlink:href="#d"
       id="radialGradient1050"
       gradientUnits="userSpaceOnUse"
       gradientTransform="matrix(0.96868017,0,0,-0.96868017,13.687922,129.93131)"
       cx="102"
       cy="112.3047"
       r="139.5585" />
  </defs>
  <sodipodi:namedview
     pagecolor="#ffffff"
     bordercolor="#666666"
     borderopacity="1"
     objecttolerance="10"
     gridtolerance="10"
     guidetolerance="10"
     inkscape:pageopacity="0"
     inkscape:pageshadow="2"
     inkscape:window-width="1366"
     inkscape:window-height="706"
     id="namedview166"
     showgrid="true"
     inkscape:snap-global="false"
     inkscape:zoom="3.6875"
     inkscape:cx="69.047917"
     inkscape:cy="55.469094"
     inkscape:window-x="0"
     inkscape:window-y="0"
     inkscape:window-maximized="1"
     inkscape:current-layer="svg164">
    <inkscape:grid
       type="xygrid"
       id="grid1024"
       spacingx="1.5393723"
       spacingy="1.5393723"
       empspacing="1" />
  </sodipodi:namedview>
  <filter
     id="a">
    <feGaussianBlur
       stdDeviation="1.0394514"
       id="feGaussianBlur2" />
  </filter>
  <filter
     id="b">
    <feGaussianBlur
       stdDeviation=".50063244"
       id="feGaussianBlur5" />
  </filter>
  <radialGradient
     id="c"
     cx="21.99338226"
     cy="291.40611614316"
     fx="21.99338226"
     fy="291.40611614316"
     gradientUnits="userSpaceOnUse"
     r="35.76837323786"
     xlink:href="#d"
     gradientTransform="translate(0,-263.13332)" />
  <radialGradient
     id="d"
     cx="102"
     cy="112.3047"
     gradientUnits="userSpaceOnUse"
     r="139.5585">
    <stop
       offset="0"
       stop-color="#3e3e3e"
       id="stop9" />
    <stop
       offset=".0151"
       stop-color="#505050"
       id="stop11" />
    <stop
       offset=".0558"
       stop-color="#7e7e7e"
       id="stop13" />
    <stop
       offset=".1357"
       stop-color="#c6c6c6"
       id="stop15" />
    <stop
       offset=".20990001"
       stop-color="#f1f1f1"
       id="stop17" />
    <stop
       offset=".24349999"
       stop-color="#fcfcfc"
       id="stop19" />
    <stop
       offset=".2722"
       stop-color="#fff"
       id="stop21" />
  </radialGradient>
  <radialGradient
     id="e"
     cx="102"
     cy="112.3047"
     gradientTransform="matrix(0.25084352,0,0,0.25163671,-3.799874,-0.21228)"
     gradientUnits="userSpaceOnUse"
     r="139.55859"
     xlink:href="#f" />
  <radialGradient
     id="f"
     cx="102"
     cy="112.3047"
     gradientUnits="userSpaceOnUse"
     r="139.55859">
    <stop
       offset="0"
       stop-color="#535557"
       id="stop25" />
    <stop
       offset=".11366145"
       stop-color="#898a8c"
       id="stop27" />
    <stop
       offset=".20296688"
       stop-color="#ececec"
       id="stop29" />
    <stop
       offset=".2363"
       stop-color="#fafafa"
       id="stop31" />
    <stop
       offset=".2722"
       stop-color="#fff"
       id="stop33" />
    <stop
       offset=".5313"
       stop-color="#fafafa"
       id="stop35" />
    <stop
       offset=".8449"
       stop-color="#ebecec"
       id="stop37" />
    <stop
       offset="1"
       stop-color="#e1e2e3"
       id="stop39" />
  </radialGradient>
  <linearGradient
     id="g"
     gradientUnits="userSpaceOnUse"
     x1="88.591797"
     x2="71.262016"
     y1="96.592697"
     y2="79.262917">
    <stop
       offset="0"
       stop-color="#fff"
       id="stop42" />
    <stop
       offset="1"
       stop-color="#555753"
       id="stop44" />
  </linearGradient>
  <filter
     id="h">
    <feGaussianBlur
       stdDeviation=".40750996"
       id="feGaussianBlur47" />
  </filter>
  <filter
     id="i">
    <feGaussianBlur
       stdDeviation=".90565481"
       id="feGaussianBlur50" />
  </filter>
  <linearGradient
     id="j"
     gradientUnits="userSpaceOnUse"
     x1="85.219681"
     x2="61.336319"
     y1="93.219681"
     y2="69.336319">
    <stop
       offset="0"
       id="stop53" />
    <stop
       offset="1"
       stop-color="#393b38"
       id="stop55" />
  </linearGradient>
  <filter
     id="k">
    <feGaussianBlur
       stdDeviation=".4901192"
       id="feGaussianBlur58" />
  </filter>
  <linearGradient
     id="l"
     gradientUnits="userSpaceOnUse"
     x1="96"
     x2="88.000198"
     y1="104"
     y2="96.000198">
    <stop
       offset="0"
       stop-color="#888a85"
       id="stop61" />
    <stop
       offset=".0072"
       stop-color="#8c8e89"
       id="stop63" />
    <stop
       offset=".0673"
       stop-color="#abaca9"
       id="stop65" />
    <stop
       offset=".1347"
       stop-color="#c5c6c4"
       id="stop67" />
    <stop
       offset=".2115"
       stop-color="#dbdbda"
       id="stop69" />
    <stop
       offset=".3012"
       stop-color="#ebebeb"
       id="stop71" />
    <stop
       offset=".4122"
       stop-color="#f7f7f6"
       id="stop73" />
    <stop
       offset=".5679"
       stop-color="#fdfdfd"
       id="stop75" />
    <stop
       offset="1"
       stop-color="#fff"
       id="stop77" />
  </linearGradient>
  <linearGradient
     id="m"
     gradientTransform="matrix(0.26458333,0,0,0.20410714,-16.575145,7.37254)"
     gradientUnits="userSpaceOnUse"
     x1="154.28152"
     x2="154.28152"
     y1="104.82231"
     y2="115.19268">
    <stop
       offset="0"
       stop-color="#4c78fd"
       id="stop80" />
    <stop
       offset="1"
       stop-color="#85a2fe"
       id="stop82" />
  </linearGradient>
  <linearGradient
     id="n"
     gradientTransform="matrix(-0.26458333,0,0,0.26458333,47.943628,-60.267332)"
     gradientUnits="userSpaceOnUse"
     x1="182.28288"
     x2="182.28288"
     y1="238.96916"
     y2="344.42404">
    <stop
       offset="0"
       stop-color="#8e79b9"
       id="stop85" />
    <stop
       offset="1"
       stop-color="#462886"
       id="stop87" />
  </linearGradient>
  <radialGradient
     id="o"
     cx="102"
     cy="112.3047"
     gradientTransform="matrix(0.25629663,0,0,-0.25629663,31.095232,292.7746)"
     gradientUnits="userSpaceOnUse"
     r="139.5585"
     xlink:href="#d" />
  <radialGradient
     id="p"
     cx="102"
     cy="112.3047"
     gradientTransform="matrix(0.25084352,0,0,-0.25163671,31.444232,292.47636)"
     gradientUnits="userSpaceOnUse"
     r="139.55859"
     xlink:href="#f" />
  <g
     id="g114"
     transform="translate(-27.473636,-258.39694)">
    <path
       style="opacity:0.55342503;filter:url(#a)"
       inkscape:connector-curvature="0"
       id="path92"
       transform="matrix(0.26697567,0,0,-0.26545011,28.542944,293.6259)"
       d="M 28.946235,8.9687825 28.987051,111.03265 H 84.172 c 0.53,0 1.039,-0.211 1.414,-0.586 l 32.828,-32.827997 c 0.375,-0.375 0.586,-0.884 0.586,-1.414 V 8.9687825 Z" />
    <path
       style="opacity:0.30684904;filter:url(#a)"
       inkscape:connector-curvature="0"
       id="path94"
       transform="matrix(0.26697567,0,0,-0.26545011,28.542944,293.6259)"
       d="m 28.946235,9 0.04082,102.03265 H 84.172 c 0.53,0 1.039,-0.211 1.414,-0.586 l 32.828,-32.827997 c 0.375,-0.375 0.586,-0.884 0.586,-1.414 V 9 Z" />
    <path
       style="opacity:0.89589;filter:url(#b)"
       inkscape:connector-curvature="0"
       id="path96"
       transform="matrix(0.26697567,0,0,-0.26545011,28.542944,293.6259)"
       d="m 30.866234,10.931136 v 97.971234 l 52.729766,-1e-4 c 0.53,0 1.039,-0.211 1.414,-0.586 l 31.484,-31.76593 c 0.375,-0.375 0.586,-0.884 0.586,-1.414 V 10.931136 Z" />
    <path
       style="opacity:0.30684904;filter:url(#a)"
       inkscape:connector-curvature="0"
       id="path98"
       transform="matrix(0.26697567,0,0,-0.26545011,28.542944,293.6259)"
       d="M 28.946235,9.9655172 28.987051,111.03265 H 84.172 c 0.53,0 1.039,-0.211 1.414,-0.586 l 32.828,-32.827997 c 0.375,-0.375 0.586,-0.884 0.586,-1.414 V 9.9655172 Z" />
    <path
       inkscape:connector-curvature="0"
       style="fill:url(#o);stroke-width:0.26458299"
       id="path100"
       d="m 36.783478,290.72423 v -26.00648 h 14.090678 c 0.135838,0 0.266292,0.0541 0.362404,0.15019 l 8.413706,8.41371 c 0.09611,0.0961 0.150188,0.22657 0.150188,0.3624 v 17.08018 z" />
    <path
       inkscape:connector-curvature="0"
       style="fill:url(#p);stroke-width:0.26458299"
       id="path102"
       d="m 38.520073,289.23848 c -0.138215,0 -0.250843,-0.11299 -0.250843,-0.25164 l 0.08518,-22.42007 c 0,-0.1389 0.112628,-0.25164 0.250843,-0.25164 h 12.19708 c 0.06597,0 0.130689,0.0267 0.177346,0.0737 l 7.440941,7.20239 c 0.04691,0.0471 0.0735,0.11173 0.0735,0.17791 v 15.39708 c 0,0.13865 -0.112376,0.25163 -0.250841,0.25163 z" />
    <g
       id="g112"
       transform="matrix(0.29316259,0,0,-0.29316259,27.192827,299.16799)">
      <path
         inkscape:connector-curvature="0"
         style="opacity:0.75068497;fill:url(#linearGradient977);filter:url(#h)"
         id="path104"
         d="M 111.414,86.586 C 111.664,86.336 85.035,85 80,85 c -1.654,0 -3,1.346 -3,3 0,5.035 1.336,31.664 1.586,31.414 z" />
      <path
         style="opacity:0.56400003;filter:url(#i)"
         inkscape:connector-curvature="0"
         id="path106"
         d="M 111.414,86.586 C 111.789,86.211 89.444,86 80,86 c -1.103,0 -2,0.897 -2,2 0,9.444 0.211,31.789 0.586,31.414 z" />
      <path
         inkscape:connector-curvature="0"
         style="opacity:0.1;fill:url(#linearGradient979);filter:url(#k)"
         id="path108"
         d="M 111.414,86.586 C 111.653,86.347 89.807,87 80,87 c -0.553,0 -1,0.447 -1,1 0,9.807 -0.653,31.653 -0.414,31.414 z" />
      <path
         inkscape:connector-curvature="0"
         style="fill:url(#linearGradient981)"
         id="path110"
         d="M 79.721619,119.31106 111.22712,87.805556 H 79.721619 Z" />
    </g>
    <path
       style="fill:url(#radialGradient1037);stroke-width:0.99999869"
       d="M 92.810547 27.455078 L 92.810547 40.974609 L 97.824219 41.080078 A 5.8296843 5.8296843 0 0 0 97.951172 41.087891 C 98.2919 41.087891 98.460538 41.158392 98.666016 41.324219 L 98.666016 41.316406 C 98.912264 41.515138 98.936984 41.541759 98.96875 41.560547 L 98.910156 75.613281 L 96.355469 75.605469 A 5.8296843 5.8296843 0 0 0 96.341797 75.605469 C 93.876407 75.60853 90.903956 76.729341 89.447266 79.642578 C 87.995814 82.544178 88.340876 85.187982 90.177734 87.644531 A 5.8296843 5.8296843 0 0 0 90.457031 87.992188 L 104.01758 103.49414 L 103.92188 103.35352 A 5.8296843 5.8296843 0 0 0 104.12891 103.61914 L 104.17969 103.67773 A 5.8296843 5.8296843 0 0 0 104.39453 103.9082 L 104.22461 103.74414 A 5.8296843 5.8296843 0 0 0 104.53711 104.07812 C 106.00674 105.83778 107.66657 106.73437 110.31445 106.73438 C 112.91968 106.73438 114.55747 105.82809 116.00977 104.11719 A 5.8296843 5.8296843 0 0 0 116.23438 103.90039 L 116.06641 104.09961 A 5.8296843 5.8296843 0 0 0 116.44141 103.68555 A 5.8296843 5.8296843 0 0 0 116.44922 103.67773 L 122.17969 97.138672 L 122.17969 57.626953 C 122.17969 57.11358 121.97653 56.621025 121.61328 56.257812 L 92.810547 27.455078 z "
       transform="matrix(0.26458334,0,0,0.26458334,27.473636,258.39694)"
       id="path1035" />
    <path
       style="fill:url(#radialGradient1050);stroke-width:0.99999869"
       d="M 75.619141 23.890625 L 75.619141 34.908203 A 5.8296842 5.8296842 0 0 0 81.326172 40.732422 L 97.824219 41.080078 A 5.8296842 5.8296842 0 0 0 97.951172 41.087891 C 98.2919 41.087891 98.460538 41.158392 98.666016 41.324219 L 98.666016 41.316406 C 98.912264 41.515138 98.936984 41.541759 98.96875 41.560547 L 98.910156 75.613281 L 96.355469 75.605469 A 5.8296842 5.8296842 0 0 0 96.341797 75.605469 C 93.876407 75.60853 90.903956 76.729341 89.447266 79.642578 C 87.995814 82.544178 88.340876 85.187982 90.177734 87.644531 A 5.8296842 5.8296842 0 0 0 90.457031 87.992188 L 104.01758 103.49414 L 103.92188 103.35352 A 5.8296842 5.8296842 0 0 0 104.12891 103.61914 L 104.17969 103.67773 A 5.8296842 5.8296842 0 0 0 104.39453 103.9082 L 104.22461 103.74414 A 5.8296842 5.8296842 0 0 0 104.53711 104.07812 C 106.00674 105.83777 107.66657 106.73438 110.31445 106.73438 C 112.91968 106.73438 114.55747 105.82809 116.00977 104.11719 A 5.8296842 5.8296842 0 0 0 116.23438 103.90039 L 116.06641 104.09961 A 5.8296842 5.8296842 0 0 0 116.44141 103.68555 A 5.8296842 5.8296842 0 0 0 116.44922 103.67773 L 122.17969 97.138672 L 122.17969 57.626953 C 122.17969 57.11358 121.97653 56.621025 121.61328 56.257812 L 89.8125 24.457031 C 89.449242 24.093856 88.956763 23.890625 88.443359 23.890625 L 75.619141 23.890625 z "
       transform="matrix(0.26458334,0,0,0.26458334,27.473636,258.39694)"
       id="path1048" />
  </g>
  <path
     style="opacity:0.55342503;filter:url(#a)"
     inkscape:connector-curvature="0"
     id="path118"
     transform="matrix(0.26697567,0,0,0.26545011,-6.701162,-1.36182)"
     d="M 28.946235,8.9687825 28.987051,111.03265 H 84.172 c 0.53,0 1.039,-0.211 1.414,-0.586 l 32.828,-32.827997 c 0.375,-0.375 0.586,-0.884 0.586,-1.414 V 8.9687825 Z" />
  <path
     style="opacity:0.30684904;filter:url(#a)"
     inkscape:connector-curvature="0"
     id="path120"
     transform="matrix(0.26697567,0,0,0.26545011,-6.701162,-1.36182)"
     d="m 28.946235,9 0.04082,102.03265 H 84.172 c 0.53,0 1.039,-0.211 1.414,-0.586 l 32.828,-32.827997 c 0.375,-0.375 0.586,-0.884 0.586,-1.414 V 9 Z" />
  <path
     style="opacity:0.89589;filter:url(#b)"
     inkscape:connector-curvature="0"
     id="path122"
     transform="matrix(0.26697567,0,0,0.26545011,-6.701162,-1.36182)"
     d="m 30.866234,10.931136 v 97.971234 l 52.729766,-1e-4 c 0.53,0 1.039,-0.211 1.414,-0.586 l 31.484,-31.76593 c 0.375,-0.375 0.586,-0.884 0.586,-1.414 V 10.931136 Z" />
  <path
     style="opacity:0.30684904;filter:url(#a)"
     inkscape:connector-curvature="0"
     id="path124"
     transform="matrix(0.26697567,0,0,0.26545011,-6.701162,-1.36182)"
     d="M 28.946235,9.9655172 28.987051,111.03265 H 84.172 c 0.53,0 1.039,-0.211 1.414,-0.586 l 32.828,-32.827997 c 0.375,-0.375 0.586,-0.884 0.586,-1.414 V 9.9655172 Z" />
  <path
     inkscape:connector-curvature="0"
     style="fill:url(#c);stroke-width:0.26458299"
     id="path126"
     d="M 1.5393723,1.53985 V 27.54633 H 15.63005 c 0.135838,0 0.266292,-0.0541 0.362404,-0.15019 l 8.413706,-8.41371 c 0.09611,-0.0961 0.150188,-0.22657 0.150188,-0.3624 V 1.53985 Z" />
  <path
     inkscape:connector-curvature="0"
     style="fill:url(#e);stroke-width:0.26458299"
     id="path128"
     d="m 3.2759668,3.0256 c -0.138215,0 -0.250843,0.11299 -0.250843,0.25164 l 0.08518,22.42007 c 0,0.1389 0.112628,0.25164 0.250843,0.25164 H 15.558227 c 0.06597,0 0.130689,-0.0267 0.177346,-0.0737 l 7.440941,-7.20239 c 0.04691,-0.0471 0.0735,-0.11173 0.0735,-0.17791 V 3.09787 c 0,-0.13865 -0.112376,-0.25163 -0.250841,-0.25163 z" />
  <g
     style="fill:#b3b3b3"
     id="g144"
     transform="translate(0.0736079,-263.06488)">
    <path
       inkscape:connector-curvature="0"
       id="path130"
       d="m 4.544509,283.07718 h 16.933098 v 1.53937 H 4.544509 Z" />
    <path
       inkscape:connector-curvature="0"
       id="path132"
       d="M 4.544509,286.15594 H 17.24433 v 1.53937 H 4.544509 Z" />
    <path
       inkscape:connector-curvature="0"
       id="path134"
       d="m 4.544509,267.68347 h 16.933098 v 1.53937 H 4.544509 Z" />
    <path
       inkscape:connector-curvature="0"
       id="path136"
       d="m 4.544509,270.76221 h 16.933098 v 1.53937 H 4.544509 Z" />
    <path
       inkscape:connector-curvature="0"
       id="path138"
       d="m 4.544509,273.84094 h 16.933098 v 1.53937 H 4.544509 Z" />
    <path
       inkscape:connector-curvature="0"
       id="path140"
       d="m 4.544509,276.91971 h 16.933098 v 1.53937 H 4.544509 Z" />
    <path
       inkscape:connector-curvature="0"
       id="path142"
       d="m 4.544509,279.99844 h 16.933098 v 1.53937 H 4.544509 Z" />
  </g>
  <path
     inkscape:connector-curvature="0"
     style="fill:url(#m)"
     id="path146"
     d="m 20.011839,27.70918 h 10.775606 v 3.07875 H 20.011839 Z" />
  <path
     style="fill:#ff6600"
     inkscape:connector-curvature="0"
     id="path148"
     d="M 4.6181169,6.1579656 H 18.472467 v 3.07875 H 4.6181169 Z" />
  <g
     id="g160"
     transform="matrix(0.29316259,0,0,0.29316259,-8.05128,-6.90391)">
    <path
       inkscape:connector-curvature="0"
       style="opacity:0.75068497;fill:url(#linearGradient983);filter:url(#h)"
       id="path152"
       d="M 111.414,86.586 C 111.664,86.336 85.035,85 80,85 c -1.654,0 -3,1.346 -3,3 0,5.035 1.336,31.664 1.586,31.414 z" />
    <path
       style="opacity:0.56400003;filter:url(#i)"
       inkscape:connector-curvature="0"
       id="path154"
       d="M 111.414,86.586 C 111.789,86.211 89.444,86 80,86 c -1.103,0 -2,0.897 -2,2 0,9.444 0.211,31.789 0.586,31.414 z" />
    <path
       inkscape:connector-curvature="0"
       style="opacity:0.1;fill:url(#linearGradient985);filter:url(#k)"
       id="path156"
       d="M 111.414,86.586 C 111.653,86.347 89.807,87 80,87 c -0.553,0 -1,0.447 -1,1 0,9.807 -0.653,31.653 -0.414,31.414 z" />
    <path
       inkscape:connector-curvature="0"
       style="fill:url(#linearGradient987)"
       id="path158"
       d="M 79.721619,119.31106 111.22712,87.805556 H 79.721619 Z" />
  </g>
  <path
     style="fill:url(#radialGradient1045);stroke-width:0.99999869"
     d="M 81.578125 17.451172 A 5.8296842 5.8296842 0 0 0 75.619141 23.275391 L 75.619141 34.908203 A 5.8296842 5.8296842 0 0 0 81.326172 40.732422 L 92.810547 40.974609 L 92.810547 17.6875 L 81.578125 17.451172 z "
     transform="scale(0.26458334)"
     id="path1040" />
  <path
     inkscape:connector-curvature="0"
     style="fill:url(#n);stroke-width:0.26458332"
     id="path150"
     d="m 21.551212,6.1579656 v 3.0783649 l 4.365222,0.091749 c 0.42394,0 0.827112,0.1374396 1.157551,0.4041097 0.330441,0.2666799 0.654741,0.6384708 0.654741,1.1353308 l -0.02003,10.684169 -2.217435,-0.0057 c -0.2345,2.91e-4 -0.386944,0.0959 -0.446484,0.214974 -0.0781,0.15613 -0.05289,0.367282 0.04961,0.504362 l 3.629751,4.150651 0.0078,0.0078 0.02479,0.03307 c 0.01431,0.0132 0.02814,0.02704 0.04134,0.04134 0.0882,0.11509 0.246687,0.198438 0.388607,0.198438 0.141931,0 0.300437,-0.0833 0.388607,-0.198438 0.01331,-0.0143 0.02704,-0.02814 0.04134,-0.04134 0.008,-0.0112 0.0163,-0.02227 0.02479,-0.03307 l 0.0083,-0.0078 3.638021,-4.150651 v -0.0083 c 0.0521,-0.0715 0.08705,-0.158203 0.09095,-0.264583 0.008,-0.23821 -0.209606,-0.447015 -0.487826,-0.446485 l -2.103747,0.0062 0.02003,-10.684629 C 30.807846,8.2884679 28.519346,6.2497219 25.916394,6.2497219 Z"
     sodipodi:nodetypes="ccccsccccccccscccccccccccc" />
</svg>
