<?xml version="1.0" encoding="UTF-8" standalone="no"?>
<!-- Created with Inkscape (http://www.inkscape.org/) -->

<svg
   xmlns:dc="http://purl.org/dc/elements/1.1/"
   xmlns:cc="http://creativecommons.org/ns#"
   xmlns:rdf="http://www.w3.org/1999/02/22-rdf-syntax-ns#"
   xmlns:svg="http://www.w3.org/2000/svg"
   xmlns="http://www.w3.org/2000/svg"
   xmlns:xlink="http://www.w3.org/1999/xlink"
   xmlns:sodipodi="http://sodipodi.sourceforge.net/DTD/sodipodi-0.dtd"
   xmlns:inkscape="http://www.inkscape.org/namespaces/inkscape"
   version="1.1"
   id="svg2"
   width="128"
   height="128"
   viewBox="0 0 128 128"
   sodipodi:docname="lc_imagebutton.svg"
   inkscape:version="0.92.3 (unknown)"
   inkscape:export-filename="/home/rizmut/Dokumen/Rizmut/Github/libreoffice-style-karasa-jaga/build/images_karasa_jaga/cmd/lc_imagebutton.png"
   inkscape:export-xdpi="16.5"
   inkscape:export-ydpi="16.5">
  <metadata
     id="metadata8">
    <rdf:RDF>
      <cc:Work
         rdf:about="">
        <dc:format>image/svg+xml</dc:format>
        <dc:type
           rdf:resource="http://purl.org/dc/dcmitype/StillImage" />
        <dc:title></dc:title>
      </cc:Work>
    </rdf:RDF>
  </metadata>
  <defs
     id="defs6">
    <linearGradient
       inkscape:collect="always"
       id="linearGradient1084">
      <stop
         style="stop-color:#b3b3b7;stop-opacity:1;"
         offset="0"
         id="stop1080" />
      <stop
         style="stop-color:#e5e5e5;stop-opacity:0.99607843"
         offset="1"
         id="stop1082" />
    </linearGradient>
    <linearGradient
       inkscape:collect="always"
       id="linearGradient838">
      <stop
         style="stop-color:#ffffff;stop-opacity:1;"
         offset="0"
         id="stop834" />
      <stop
         style="stop-color:#bbbbbb;stop-opacity:1"
         offset="1"
         id="stop836" />
    </linearGradient>
    <linearGradient
       inkscape:collect="always"
       xlink:href="#linearGradient1084"
       id="linearGradient1086"
       x1="72.618614"
       y1="101.35709"
       x2="73.819366"
       y2="47.875233"
       gradientUnits="userSpaceOnUse"
       gradientTransform="matrix(0.87616242,0,0,0.92266417,7.6870459,-0.59988228)" />
    <linearGradient
       inkscape:collect="always"
       xlink:href="#linearGradient3369"
       id="linearGradient2336"
       gradientUnits="userSpaceOnUse"
       x1="85.717094"
       y1="92.189766"
       x2="-13.947494"
       y2="1.9635986" />
    <linearGradient
       id="linearGradient3369">
      <stop
         style="stop-color:#ffffff;stop-opacity:1;"
         offset="0"
         id="stop3372" />
      <stop
         id="stop3374"
         offset="0.42597079"
         style="stop-color:#ffffff;stop-opacity:1;" />
      <stop
         id="stop3376"
         offset="0.5892781"
         style="stop-color:#f1f1f1;stop-opacity:1;" />
      <stop
         style="stop-color:#eaeaea;stop-opacity:1;"
         offset="0.80219781"
         id="stop3378" />
      <stop
         style="stop-color:#dfdfdf;stop-opacity:1;"
         offset="1"
         id="stop3384" />
    </linearGradient>
    <linearGradient
       inkscape:collect="always"
       xlink:href="#linearGradient2443"
       id="linearGradient2338"
       gradientUnits="userSpaceOnUse"
       x1="-5.8960056"
       y1="-44.78648"
       x2="55.588886"
       y2="116.05923" />
    <linearGradient
       id="linearGradient2443">
      <stop
         style="stop-color:#b4b4b6;stop-opacity:1;"
         offset="0"
         id="stop2445" />
      <stop
         id="stop2447"
         offset="0.5"
         style="stop-color:#9c9ca1;stop-opacity:1;" />
      <stop
         id="stop2449"
         offset="1"
         style="stop-color:#cdcdd1;stop-opacity:1;" />
    </linearGradient>
    <linearGradient
       inkscape:collect="always"
       xlink:href="#linearGradient3310"
       id="linearGradient2340"
       gradientUnits="userSpaceOnUse"
       gradientTransform="matrix(-0.96618587,0,1.0040524,2.5140531,123.62358,-18.976126)"
       x1="110.45749"
       y1="-4.5765758"
       x2="63.741646"
       y2="41.850632" />
    <linearGradient
       inkscape:collect="always"
       id="linearGradient3310">
      <stop
         style="stop-color:#ffffff;stop-opacity:1;"
         offset="0"
         id="stop3312" />
      <stop
         style="stop-color:#ffffff;stop-opacity:0;"
         offset="1"
         id="stop3314" />
    </linearGradient>
    <linearGradient
       inkscape:collect="always"
       xlink:href="#linearGradient2443"
       id="linearGradient2457-9"
       gradientUnits="userSpaceOnUse"
       gradientTransform="matrix(0.13460875,0,0,0.21715855,-331.2333,-121.84037)"
       x1="399.77466"
       y1="1164.6696"
       x2="399.77466"
       y2="549.06134" />
    <linearGradient
       inkscape:collect="always"
       xlink:href="#linearGradient3369"
       id="linearGradient2459"
       gradientUnits="userSpaceOnUse"
       gradientTransform="matrix(1.0691031,0,0,1.4254709,-324.4226,-27.230125)"
       x1="15.999998"
       y1="106.75"
       x2="98.714287"
       y2="36.035713" />
    <linearGradient
       inkscape:collect="always"
       xlink:href="#linearGradient3310"
       id="linearGradient2461"
       gradientUnits="userSpaceOnUse"
       gradientTransform="matrix(1.3621027,0.55162531,-0.6718293,1.6589168,-340.47719,-54.764149)"
       x1="144.78481"
       y1="-56.087624"
       x2="63.089115"
       y2="62.056267" />
    <linearGradient
       inkscape:collect="always"
       xlink:href="#linearGradient2443"
       id="linearGradient2457"
       gradientUnits="userSpaceOnUse"
       gradientTransform="matrix(0.1300602,0,0,0.2090041,-152.94107,-186.85256)"
       x1="399.77466"
       y1="1164.6696"
       x2="399.77466"
       y2="549.06134" />
    <linearGradient
       inkscape:collect="always"
       xlink:href="#linearGradient3369"
       id="linearGradient2519"
       gradientUnits="userSpaceOnUse"
       gradientTransform="matrix(1.1666667,0,0,1.5555557,-154.66666,-107.55555)"
       x1="9.5714283"
       y1="142.42857"
       x2="112"
       y2="27.999998" />
    <linearGradient
       inkscape:collect="always"
       xlink:href="#linearGradient3310"
       id="linearGradient2515"
       gradientUnits="userSpaceOnUse"
       gradientTransform="matrix(0.87491682,0,-0.90920639,2.2765675,-107.73373,-95.084958)"
       x1="101.47155"
       y1="-3.3719175"
       x2="79.994766"
       y2="39.929062" />
    <linearGradient
       inkscape:collect="always"
       xlink:href="#linearGradient838"
       id="linearGradient896"
       x1="69.8172"
       y1="17.4561"
       x2="69.8172"
       y2="104.7276"
       gradientUnits="userSpaceOnUse" />
  </defs>
  <sodipodi:namedview
     pagecolor="#ffffff"
     bordercolor="#666666"
     borderopacity="1"
     objecttolerance="10"
     gridtolerance="10"
     guidetolerance="10"
     inkscape:pageopacity="0"
     inkscape:pageshadow="2"
     inkscape:window-width="1366"
     inkscape:window-height="706"
     id="namedview4"
     showgrid="true"
     inkscape:snap-page="true"
     inkscape:snap-global="true"
     inkscape:zoom="2.8284271"
     inkscape:cx="68.005353"
     inkscape:cy="38.622209"
     inkscape:window-x="0"
     inkscape:window-y="0"
     inkscape:window-maximized="1"
     inkscape:current-layer="svg2"
     inkscape:snap-smooth-nodes="true">
    <inkscape:grid
       type="xygrid"
       id="grid862"
       spacingx="5.8181"
       spacingy="5.8181"
       empspacing="1" />
  </sodipodi:namedview>
  <path
     style="opacity:1;fill:#8b8b91;fill-opacity:1;stroke:none;stroke-width:0.84991568;stroke-linecap:round;stroke-linejoin:bevel;stroke-miterlimit:4;stroke-dasharray:none;stroke-dashoffset:0;stroke-opacity:1"
     d="m 21.71182,11.638 a 5.5446345,5.8127182 0 0 0 -0.614374,0.03812 h -1.875841 c -3.182033,0 -5.949986,1.100709 -8.426735,2.963144 -2.4767492,1.862428 -4.9749734,4.928263 -4.9749734,9.264819 v 80.193527 c 0,4.33655 2.4982232,7.40238 4.9749734,9.26483 2.47675,1.86242 5.244702,2.96313 8.426735,2.96313 h 1.915828 a 5.5446345,5.8127182 0 0 0 0.574387,0.0382 h 40.37417 0.307186 43.895004 a 5.5446345,5.8127182 0 0 0 0.61437,-0.0382 h 1.87585 c 3.18203,0 5.94997,-1.10071 8.42673,-2.96313 2.47675,-1.86245 4.97497,-4.92828 4.97497,-9.26483 V 23.90408 c 0,-4.336555 -2.49822,-7.402392 -4.97497,-9.264826 -2.47676,-1.862433 -5.2447,-2.963143 -8.42673,-2.963143 h -1.91582 A 5.5446345,5.8127182 0 0 0 106.28818,11.638 H 62.393176 62.08599 Z"
     id="path8398"
     inkscape:connector-curvature="0" />
  <path
     style="opacity:1;fill:url(#linearGradient1086);fill-opacity:1;stroke:none;stroke-width:0.84788942;stroke-linecap:round;stroke-linejoin:bevel;stroke-miterlimit:4;stroke-dasharray:none;stroke-dashoffset:0;stroke-opacity:1"
     d="m 21.876768,17.456104 v 0.03762 h -2.477895 c -3.362992,0 -7.822145,2.861357 -7.822145,6.415885 v 80.182431 c 0,3.55455 4.459153,6.41589 7.822145,6.41589 h 2.477895 v 0.0378 h 40.187107 0.306314 43.691771 v -0.0378 h 2.47788 c 3.36298,0 7.82216,-2.86136 7.82216,-6.41591 V 23.909608 c 0,-3.554527 -4.45918,-6.415883 -7.82216,-6.415883 h -2.47788 V 17.4561 H 62.370189 62.063875 Z"
     id="path904"
     inkscape:connector-curvature="0"
     sodipodi:nodetypes="ccssssccccccssssccccc" />
  <g
     id="g8371"
     transform="matrix(1.0437102,0,0,1.0437102,-2.3064354,-1.6654826)">
    <g
       transform="matrix(0.36722119,0,0,0.36722119,172.13928,31.920154)"
       id="g4196">
      <rect
         inkscape:export-ydpi="90"
         inkscape:export-xdpi="90"
         inkscape:export-filename="/home/pinheiro/Desktop/mock2.png"
         style="fill:url(#linearGradient2457-9);fill-opacity:1;fill-rule:nonzero;stroke:none;stroke-width:2.0780313;stroke-linecap:round;stroke-linejoin:round;stroke-miterlimit:4;stroke-dasharray:none;stroke-dashoffset:4;stroke-opacity:1"
         id="rect2324-0"
         width="132.994"
         height="133.51352"
         x="-322.49701"
         y="-2.5067599"
         inkscape:r_cx="true"
         inkscape:r_cy="true"
         ry="66.75676"
         rx="66.75676" />
      <rect
         ry="51.316948"
         rx="51.316948"
         y="12.683053"
         x="-307.31696"
         height="102.6339"
         width="102.6339"
         id="rect2326-6"
         style="fill:url(#linearGradient2459);fill-opacity:1;fill-rule:evenodd;stroke:none;stroke-width:7.33099222;stroke-linecap:round;stroke-linejoin:round;stroke-miterlimit:4;stroke-dasharray:none;stroke-opacity:1" />
      <path
         inkscape:connector-curvature="0"
         style="fill:url(#linearGradient2461);fill-opacity:1;fill-rule:evenodd;stroke:none;stroke-width:0.91637403px;stroke-linecap:butt;stroke-linejoin:miter;stroke-opacity:1"
         d="m -226.59012,22.247707 c -23.17711,2.416084 -52.8327,22.059917 -69.64443,56.557461 l 49.45556,26.002112 c -0.29587,-24.197691 15.09613,-58.070534 32.30219,-71.018987 -3.07661,-4.230421 -6.76321,-7.972896 -10.96785,-11.082399 z"
         id="path3318-26"
         sodipodi:nodetypes="cccccc" />
    </g>
    <g
       transform="matrix(0.36722119,0,0,0.36722119,79.430646,67.053035)"
       id="g4135">
      <rect
         inkscape:export-ydpi="90"
         inkscape:export-xdpi="90"
         inkscape:export-filename="/home/pinheiro/Desktop/mock2.png"
         style="fill:url(#linearGradient2457);fill-opacity:1;fill-rule:nonzero;stroke:none;stroke-width:2;stroke-linecap:round;stroke-linejoin:round;stroke-miterlimit:4;stroke-dasharray:none;stroke-dashoffset:4;stroke-opacity:1"
         id="rect2324"
         width="121.44048"
         height="121.44048"
         x="-149.56392"
         y="-71.985214"
         inkscape:r_cx="true"
         inkscape:r_cy="true"
         ry="2.7692308"
         rx="2.8571429" />
      <rect
         ry="1.7500014"
         rx="1.7500014"
         y="-56.805157"
         x="-134.38387"
         height="91.080368"
         width="91.080368"
         id="rect2326"
         style="fill:url(#linearGradient2519);fill-opacity:1;fill-rule:evenodd;stroke:none;stroke-width:8;stroke-linecap:round;stroke-linejoin:round;stroke-miterlimit:4;stroke-dasharray:none;stroke-opacity:1" />
      <path
         inkscape:connector-curvature="0"
         id="path3318-2"
         d="m -66.160701,-56.805155 c -17.919303,21.463665 -40.168729,42.824316 -56.878269,70.995435 h 38.687734 c 12.105134,-26.970449 26.715244,-49.479946 41.047738,-70.995435 z"
         style="fill:url(#linearGradient2515);fill-opacity:1;fill-rule:evenodd;stroke:none;stroke-width:0.87491679px;stroke-linecap:butt;stroke-linejoin:miter;stroke-opacity:1"
         sodipodi:nodetypes="ccccc" />
    </g>
    <g
       transform="matrix(0,0.36722119,-0.36722119,0,99.476743,51.963698)"
       id="g2332">
      <path
         sodipodi:type="star"
         style="opacity:0.89138579;fill:url(#linearGradient2336);fill-opacity:1;stroke:url(#linearGradient2338);stroke-width:13.22800529;stroke-linecap:round;stroke-linejoin:round;stroke-miterlimit:4;stroke-dasharray:none;stroke-dashoffset:1.08780003;stroke-opacity:1"
         id="path2315"
         sodipodi:sides="3"
         sodipodi:cx="16.999998"
         sodipodi:cy="35.500004"
         sodipodi:r1="67.910385"
         sodipodi:r2="30.493454"
         sodipodi:arg1="0.68359684"
         sodipodi:arg2="1.7307944"
         inkscape:flatsided="true"
         inkscape:rounded="0"
         inkscape:randomized="0"
         d="M 69.651329,78.391236 -46.470564,59.651778 27.819229,-31.543002 Z"
         transform="matrix(0.92177293,0.35196336,-0.35235698,0.92060315,77.614605,25.355074)" />
      <path
         id="path3318"
         d="M 73.860519,34.20818 C 93.64912,57.910879 92.039334,43.602302 110.49197,74.712157 L 79.382783,97.599246 C 66.014876,67.81531 76.308924,65.33228 60.481308,41.57235 Z"
         style="fill:url(#linearGradient2340);fill-opacity:1;fill-rule:evenodd;stroke:none;stroke-width:0.96618587px;stroke-linecap:butt;stroke-linejoin:miter;stroke-opacity:1"
         sodipodi:nodetypes="ccccc"
         inkscape:connector-curvature="0" />
    </g>
  </g>
  <path
     style="opacity:1;fill:url(#linearGradient896);fill-opacity:1;stroke:none;stroke-width:0.84788942;stroke-linecap:round;stroke-linejoin:bevel;stroke-miterlimit:4;stroke-dasharray:none;stroke-dashoffset:0;stroke-opacity:1"
     d="M 21.876953 17.457031 L 21.876953 17.494141 L 19.398438 17.494141 C 16.035445 17.494141 11.576172 20.355628 11.576172 23.910156 L 11.576172 104.0918 C 11.576172 107.64635 16.035445 110.50781 19.398438 110.50781 L 21.876953 110.50781 L 21.876953 110.54492 L 62.064453 110.54492 L 62.371094 110.54492 L 106.0625 110.54492 L 106.0625 110.50781 L 108.53906 110.50781 C 111.90204 110.50781 116.36133 107.64635 116.36133 104.0918 L 116.36133 23.910156 C 116.36133 20.355629 111.90204 17.494141 108.53906 17.494141 L 106.0625 17.494141 L 106.0625 17.457031 L 62.371094 17.457031 L 62.064453 17.457031 L 21.876953 17.457031 z M 26.550781 23.273438 L 62.275391 23.273438 L 62.546875 23.273438 L 101.38672 23.273438 L 101.38672 23.306641 L 103.58984 23.306641 C 106.57936 23.306641 110.54297 25.811665 110.54297 28.921875 L 110.54297 99.080078 C 110.54297 102.19031 106.57936 104.69531 103.58984 104.69531 L 101.38672 104.69531 L 101.38672 104.72852 L 62.546875 104.72852 L 62.275391 104.72852 L 26.550781 104.72852 L 26.550781 104.69531 L 24.347656 104.69531 C 21.358118 104.69531 17.394531 102.1903 17.394531 99.080078 L 17.394531 28.921875 C 17.394531 25.811664 21.358118 23.306641 24.347656 23.306641 L 26.550781 23.306641 L 26.550781 23.273438 z "
     id="path887" />
</svg>
