<?xml version="1.0" encoding="UTF-8" standalone="no"?>
<svg
   xmlns:dc="http://purl.org/dc/elements/1.1/"
   xmlns:cc="http://creativecommons.org/ns#"
   xmlns:rdf="http://www.w3.org/1999/02/22-rdf-syntax-ns#"
   xmlns:svg="http://www.w3.org/2000/svg"
   xmlns="http://www.w3.org/2000/svg"
   xmlns:sodipodi="http://sodipodi.sourceforge.net/DTD/sodipodi-0.dtd"
   xmlns:inkscape="http://www.inkscape.org/namespaces/inkscape"
   enable-background="new 0 0 128 128"
   height="128"
   viewBox="0 0 128 128"
   width="128"
   version="1.1"
   id="svg3587"
   sodipodi:docname="lc_inserttopicfield.svg"
   inkscape:version="0.92.3 (unknown)"
   inkscape:export-filename="/home/rizmut/Dokumen/Rizmut/Github/libreoffice-style-karasa-jaga/build/images_karasa_jaga/cmd/lc_inserttopicfield.png"
   inkscape:export-xdpi="16.5"
   inkscape:export-ydpi="16.5">
  <metadata
     id="metadata3593">
    <rdf:RDF>
      <cc:Work
         rdf:about="">
        <dc:format>image/svg+xml</dc:format>
        <dc:type
           rdf:resource="http://purl.org/dc/dcmitype/StillImage" />
        <dc:title></dc:title>
      </cc:Work>
    </rdf:RDF>
  </metadata>
  <defs
     id="defs3591">
    <linearGradient
       id="k"
       gradientTransform="matrix(1.0185733,0,0,0.82407071,-0.713472,13.082578)"
       gradientUnits="userSpaceOnUse"
       x1="3.587285"
       x2="107.14484"
       y1="4.73702"
       y2="79.217056">
      <stop
         offset="0"
         stop-color="#6fc5dd"
         id="stop82" />
      <stop
         offset="1"
         stop-color="#042f3a"
         stop-opacity=".894118"
         id="stop84" />
    </linearGradient>
  </defs>
  <sodipodi:namedview
     pagecolor="#ffffff"
     bordercolor="#666666"
     borderopacity="1"
     objecttolerance="10"
     gridtolerance="10"
     guidetolerance="10"
     inkscape:pageopacity="0"
     inkscape:pageshadow="2"
     inkscape:window-width="1366"
     inkscape:window-height="706"
     id="namedview3589"
     showgrid="true"
     inkscape:zoom="5.2149125"
     inkscape:cx="47.736235"
     inkscape:cy="67.73848"
     inkscape:window-x="0"
     inkscape:window-y="0"
     inkscape:window-maximized="1"
     inkscape:current-layer="svg3587"
     inkscape:snap-page="true">
    <inkscape:grid
       type="xygrid"
       id="grid5240"
       spacingx="5.8181"
       spacingy="5.8181"
       empspacing="1" />
  </sodipodi:namedview>
  <linearGradient
     id="a"
     gradientUnits="userSpaceOnUse"
     x1="88.591797"
     x2="71.262016"
     y1="96.592697"
     y2="79.262917">
    <stop
       offset="0"
       stop-color="#fff"
       id="stop3489" />
    <stop
       offset="1"
       stop-color="#555753"
       id="stop3491" />
  </linearGradient>
  <linearGradient
     id="b"
     gradientUnits="userSpaceOnUse"
     x1="85.219681"
     x2="61.336319"
     y1="93.219681"
     y2="69.336319">
    <stop
       offset="0"
       id="stop3494" />
    <stop
       offset="1"
       stop-color="#393b38"
       id="stop3496" />
  </linearGradient>
  <linearGradient
     id="c"
     gradientUnits="userSpaceOnUse"
     x1="96"
     x2="88.0002"
     y1="104"
     y2="96.0002">
    <stop
       offset="0"
       stop-color="#888a85"
       id="stop3499" />
    <stop
       offset=".0072"
       stop-color="#8c8e89"
       id="stop3501" />
    <stop
       offset=".0673"
       stop-color="#abaca9"
       id="stop3503" />
    <stop
       offset=".1347"
       stop-color="#c5c6c4"
       id="stop3505" />
    <stop
       offset=".2115"
       stop-color="#dbdbda"
       id="stop3507" />
    <stop
       offset=".3012"
       stop-color="#ebebeb"
       id="stop3509" />
    <stop
       offset=".4122"
       stop-color="#f7f7f6"
       id="stop3511" />
    <stop
       offset=".5679"
       stop-color="#fdfdfd"
       id="stop3513" />
    <stop
       offset="1"
       stop-color="#fff"
       id="stop3515" />
  </linearGradient>
  <radialGradient
     id="d"
     cx="102"
     cy="112.3047"
     gradientTransform="matrix(.94807 0 0 .9510679 3.32352 5.274458)"
     gradientUnits="userSpaceOnUse"
     r="139.55859">
    <stop
       offset="0"
       stop-color="#535557"
       id="stop3518" />
    <stop
       offset=".11366145"
       stop-color="#898a8c"
       id="stop3520" />
    <stop
       offset=".20296688"
       stop-color="#ececec"
       id="stop3522" />
    <stop
       offset=".2363"
       stop-color="#fafafa"
       id="stop3524" />
    <stop
       offset=".2722"
       stop-color="#fff"
       id="stop3526" />
    <stop
       offset=".5313"
       stop-color="#fafafa"
       id="stop3528" />
    <stop
       offset=".8449"
       stop-color="#ebecec"
       id="stop3530" />
    <stop
       offset="1"
       stop-color="#e1e2e3"
       id="stop3532" />
  </radialGradient>
  <radialGradient
     id="e"
     cx="100.8098464"
     cy="112.93460525694"
     gradientUnits="userSpaceOnUse"
     r="135.1875556917">
    <stop
       offset="0"
       stop-color="#3e3e3e"
       id="stop3535" />
    <stop
       offset=".0151"
       stop-color="#505050"
       id="stop3537" />
    <stop
       offset=".0558"
       stop-color="#7e7e7e"
       id="stop3539" />
    <stop
       offset=".1357"
       stop-color="#c6c6c6"
       id="stop3541" />
    <stop
       offset=".20990001"
       stop-color="#f1f1f1"
       id="stop3543" />
    <stop
       offset=".24349999"
       stop-color="#fcfcfc"
       id="stop3545" />
    <stop
       offset=".2722"
       stop-color="#fff"
       id="stop3547" />
  </radialGradient>
  <filter
     id="f">
    <feGaussianBlur
       stdDeviation="1.0394514"
       id="feGaussianBlur3550" />
  </filter>
  <filter
     id="g">
    <feGaussianBlur
       stdDeviation=".50063244"
       id="feGaussianBlur3553" />
  </filter>
  <filter
     id="h">
    <feGaussianBlur
       stdDeviation=".40750996"
       id="feGaussianBlur3556" />
  </filter>
  <filter
     id="i">
    <feGaussianBlur
       stdDeviation=".4901192"
       id="feGaussianBlur3559" />
  </filter>
  <filter
     id="j">
    <feGaussianBlur
       stdDeviation=".90565481"
       id="feGaussianBlur3562" />
  </filter>
  <path
     d="m23 8.9687825.040816 114.0246875h61.131184c.53 0 1.039-.211 1.414-.586l32.828-32.828001c.375-.375.586-.884.586-1.414v-79.1966865z"
     filter="url(#f)"
     opacity=".553425"
     transform="matrix(1.0090419 0 0 1.003276 -7.641977 .929762)"
     id="path3565" />
  <path
     d="m23 9 .04082 113.99347h61.13118c.53 0 1.039-.211 1.414-.586l32.828-32.828001c.375-.375.586-.884.586-1.414v-79.165469z"
     filter="url(#f)"
     opacity=".306849"
     transform="matrix(1.0090419 0 0 1.003276 -7.641977 .929762)"
     id="path3567" />
  <path
     d="m24.905735 10.673272.01426 110.189918 58.676001-.0001c.53 0 1.039-.211 1.414-.586l31.484-31.765934c.375-.375.586-.884.586-1.414l.0812-76.423884z"
     filter="url(#g)"
     opacity=".89589"
     transform="matrix(1.0090419 0 0 1.003276 -7.641977 .929762)"
     id="path3569" />
  <path
     d="m23 9.9655172.040816 113.0279528h61.131184c.53 0 1.039-.211 1.414-.586l32.828-32.828001c.375-.375.586-.884.586-1.414v-78.1999518z"
     filter="url(#f)"
     opacity=".306849"
     transform="matrix(1.0090419 0 0 1.003276 -7.641977 .929762)"
     id="path3571" />
  <path
     d="m17.488953 11.638.0144 110.55089h59.256106c.513401 0 1.006458-.20439 1.369714-.56765l31.799827-31.799829c.36326-.363255.56764-.856313.56764-1.369714l.08191-76.813697z"
     fill="url(#e)"
     id="path3573" />
  <path
     d="m24.066856 17.512144c-.522387 0-.94807.42703-.94807.951069l.321923 96.737247c0 .525.425684.95108.94807.95108h52.099199c.249342 0 .493944-.10082.670284-.27867l28.123238-27.221657c.17729-.17785.27778-.422273.27778-.672405l-.7-69.493672c0-.524039-.42473-.951068-.94806-.951068z"
     fill="url(#d)"
     id="path3575" />
  <g
     transform="matrix(1.1080161 0 0 1.1080161 -12.744784 -10.01667)"
     id="g3585">
    <path
       d="m111.414 86.586c.25-.25-26.379-1.586-31.414-1.586-1.654 0-3 1.346-3 3 0 5.035 1.336 31.664 1.586 31.414z"
       fill="url(#a)"
       filter="url(#h)"
       opacity=".750685"
       id="path3577" />
    <path
       d="m111.414 86.586c.375-.375-21.97-.586-31.414-.586-1.103 0-2 .897-2 2 0 9.444.211 31.789.586 31.414z"
       filter="url(#j)"
       opacity=".2"
       id="path3579" />
    <path
       d="m111.414 86.586c.239-.239-21.607.414-31.414.414-.553 0-1 .447-1 1 0 9.807-.653 31.653-.414 31.414z"
       fill="url(#b)"
       filter="url(#i)"
       opacity=".1"
       id="path3581" />
    <path
       d="m79.721619 119.31106 31.505501-31.505504h-31.505501z"
       fill="url(#c)"
       id="path3583" />
  </g>
  <g
     id="g1647"
     transform="translate(0,23.2724)">
    <rect
       id="rect1056"
       width="81.4534"
       ry="9.974987"
       rx="11.636199"
       height="34.9086"
       style="fill:url(#k);stroke-width:0.92579967"
       x="0"
       y="5.8199" />
    <path
       id="path1058"
       d="m 5.8181,11.638 69.8172,0 v 23.2724 l -69.8172,0 z"
       style="fill:#e9e9e9;stroke-width:0.88143563"
       inkscape:connector-curvature="0"
       sodipodi:nodetypes="ccccc" />
    <rect
       id="rect1060"
       y="17.4561"
       x="17.4543"
       width="46.5448"
       ry="0.56232995"
       rx="0.137769"
       height="11.6362"
       style="fill:#1450b3;stroke-width:1.0244211" />
  </g>
</svg>
