<svg height="128" viewBox="0 0 33.866666 33.866668" width="128" xmlns="http://www.w3.org/2000/svg" xmlns:xlink="http://www.w3.org/1999/xlink"><linearGradient id="a" gradientUnits="userSpaceOnUse" x1="98.9077" x2="98.9077" y1="46.5466" y2="162.9086"><stop offset="0" stop-color="#99999c"/><stop offset=".5" stop-color="#9c9ca1"/><stop offset="1" stop-color="#cdcdd1"/></linearGradient><linearGradient id="b" gradientUnits="userSpaceOnUse" x1="78.61085034347" x2="120.34349451992" y1="88.85241574791" y2="111.54715161013"><stop offset="0" stop-color="#fff"/><stop offset="1" stop-color="#ccc"/></linearGradient><linearGradient id="c" gradientUnits="userSpaceOnUse" x1="88.38102" x2="130.48599" y1="1008.9966" y2="1015.6953"><stop offset="0" stop-color="#7b7b7b"/><stop offset="1" stop-color="#797979" stop-opacity="0"/></linearGradient><clipPath id="d"><path d="m41.355614 933.74432h83.943993v117.52166h-83.943993z"/></clipPath><filter id="e" color-interpolation-filters="sRGB" height="1.073732" width="1.13754" x="-.06877" y="-.036866"><feGaussianBlur stdDeviation="1.0557314"/></filter><linearGradient id="f" gradientUnits="userSpaceOnUse" x1="100.83452" x2="116.42799" y1="37.992622" y2="80.92411"><stop offset="0" stop-color="#fff" stop-opacity=".683453"/><stop offset="1" stop-color="#fff" stop-opacity="0"/></linearGradient><linearGradient id="g" gradientTransform="matrix(.58291629 0 0 .66676377 62.177025 -566.68964)" gradientUnits="userSpaceOnUse" x1="63.011921" x2="63.011921" y1="945.89801" y2="1033.1569"><stop offset="0" stop-color="#545454" stop-opacity=".988"/><stop offset="1" stop-color="#ebebeb"/></linearGradient><linearGradient id="h" gradientTransform="matrix(.48045402 0 0 .66178602 128.73476 -578.51587)" gradientUnits="userSpaceOnUse" x1="-60.535713" x2="-60.357143" y1="979.50507" y2="1009.505"><stop offset="0" stop-color="#979797"/><stop offset=".148461" stop-color="#f6f6f6"/><stop offset=".28399727" stop-color="#e2e2e2"/><stop offset=".41198727" stop-color="#dedede"/><stop offset=".41198727" stop-color="#f6f6f6"/><stop offset="1" stop-color="#6b6b6b"/></linearGradient><linearGradient id="i" gradientTransform="matrix(.480454 0 0 .58309338 128.76683 499.76645)" gradientUnits="userSpaceOnUse" x1="-61.078979" x2="-60.6413" y1="-1056.658" y2="-1010.9131"><stop offset="0" stop-color="#777"/><stop offset=".18176934" stop-color="#a8a8a8"/><stop offset=".22864534" stop-color="#cdcdcd"/><stop offset=".34561315" stop-color="#f7f7f7"/><stop offset="1" stop-color="#fff"/></linearGradient><linearGradient id="j" gradientTransform="matrix(.4795852 0 0 .4791213 145.99565 101.00509)" gradientUnits="userSpaceOnUse" x1="-16.707943" x2="18.215206" y1="0" y2="2.009686"><stop offset="0" stop-color="#969696"/><stop offset=".20022914" stop-color="#f1f1f1"/><stop offset=".35514116" stop-color="#bbb"/><stop offset=".52539963" stop-color="#f6f6f6"/><stop offset=".73511833" stop-color="#e6e6e6"/><stop offset=".875" stop-color="#c0c0c0"/><stop offset="1" stop-color="#aeaeae"/></linearGradient><linearGradient id="k" gradientUnits="userSpaceOnUse" x1="77.628502" x2="77.628502" y1="44.746105" y2="104.81113"><stop offset="0" stop-color="#c0c0c0"/><stop offset="1" stop-color="#fff"/></linearGradient><g enable-background="new" transform="matrix(1.5393935 0 0 1.539347 -207.81812 -138.54072)"><path d="m145.30783 90.340266-.51114 1.595768v.127662l.19167 1.382999-1.89547.510646-.53244-1.276615-.0639-.127661-1.25656-1.1064-1.17136.659585.34076 1.638322.0852.127662.85191 1.085122-1.40564 1.404277-1.08618-.851077-.12779-.08511-1.61861-.34043-.68152 1.17023 1.10747 1.255338.12779.06383 1.27785.531923-.51114 1.893645-1.38433-.191492h-.12779l-1.57601.51065v1.36172l1.57601.51065h.12779l1.38433-.17022.51114 1.89365-1.27785.53192-.12779.0638-1.10747 1.23406.68152 1.17023 1.61861-.34043.12779-.0638 1.08618-.85108 1.40564 1.383-.85191 1.1064-.0852.10639-.34076 1.63832 1.17136.68086 1.25656-1.1064.0639-.12766.53244-1.27661 1.89547.48937-.19167 1.38299v.14894l.51114 1.5745h1.36305l.51114-1.5745v-.14894l-.17038-1.38299 1.89547-.48937.53244 1.27661.0639.12766 1.23525 1.1064 1.17137-.68086-.34076-1.63832-.0639-.10639-.85191-1.1064 1.38435-1.383 1.10747.85108.10648.0638 1.63992.34043.68152-1.17023-1.10747-1.23406-.12779-.0638-1.27785-.53192.51114-1.89365 1.36304.17022h.14908l1.57601-.51065v-1.36172l-1.57601-.51065h-.14908l-1.36304.191492-.51114-1.893645 1.27785-.531923.12779-.06383 1.10747-1.255338-.68152-1.17023-1.63992.34043-.10648.08511-1.10747.851077-1.38435-1.404277.85191-1.085122.0639-.127662.34076-1.638322-1.17137-.659585-1.23525 1.1064-.0639.127661-.53244 1.276615-1.89547-.510646.17038-1.382999v-.127662l-.51114-1.595768zm.68152 6.489459c2.30687 0 4.19561 1.865635 4.19561 4.170275s-1.88873 4.17028-4.19561 4.17028c-2.30687 0-4.17431-1.86564-4.17431-4.17028s1.86744-4.170275 4.17431-4.170275z" fill="url(#j)" stroke="#5e5e5e" stroke-width=".454731"/><g fill="none" stroke-linecap="round" stroke-linejoin="round"><circle cx="77.628502" cy="73.759735" r="33.639019" stroke="#5e5e5e" stroke-width="24.15966" transform="matrix(.1078273 0 0 .1077231 137.62953 93.05438)"/><circle cx="77.628502" cy="73.759735" r="33.639019" stroke="url(#k)" stroke-width="14.581202" transform="matrix(.1078231 0 0 .1077189 137.62986 93.05469)"/></g></g><g transform="scale(.26458333)"><path d="m69.8172 46.546616h58.180996v81.453445h-58.180996z" fill="url(#a)"/><path d="m75.6353 52.3647h46.5448v69.817215h-46.5448z" fill="url(#b)"/><path clip-path="url(#d)" d="m92.81509 1029.6319c1.071428 1.4286 10.71429 15.3572 11.78571 13.5715 1.07143-1.7858 26.42857-25.3572 25-26.7858-1.42857-1.4285-33.928567-41.78567-33.928567-41.78567z" fill="url(#c)" fill-rule="evenodd" filter="url(#e)" opacity=".68" transform="matrix(.69309305 0 0 .69309305 41.153912 -600.6251)"/><path d="m75.6353 52.3647v47.28063c14.171661-16.500095 33.53848-23.157342 46.54439-25.022283v-22.257813z" fill="url(#f)" fill-rule="evenodd"/><path d="m87.2715 64.0009h23.2724v46.5448h-23.2724z" fill="url(#g)"/><path d="m89.925598 66.798828h17.686728v41.164684h-17.686728z" fill="#535353"/><path d="m93.0896 69.819h11.6362v17.4543h-11.6362z" fill="url(#h)"/><path d="m93.0896-116.3638h11.636201v29.0905h-11.636201z" fill="url(#i)" transform="scale(1 -1)"/></g></svg>