<?xml version="1.0" encoding="UTF-8" standalone="no"?>
<!-- Created with Inkscape (http://www.inkscape.org/) -->

<svg
   xmlns:dc="http://purl.org/dc/elements/1.1/"
   xmlns:cc="http://creativecommons.org/ns#"
   xmlns:rdf="http://www.w3.org/1999/02/22-rdf-syntax-ns#"
   xmlns:svg="http://www.w3.org/2000/svg"
   xmlns="http://www.w3.org/2000/svg"
   xmlns:xlink="http://www.w3.org/1999/xlink"
   xmlns:sodipodi="http://sodipodi.sourceforge.net/DTD/sodipodi-0.dtd"
   xmlns:inkscape="http://www.inkscape.org/namespaces/inkscape"
   width="128"
   height="128"
   viewBox="0 0 33.866666 33.866668"
   version="1.1"
   id="svg8"
   inkscape:version="0.92.3 (unknown)"
   sodipodi:docname="lc_move.svg"
   inkscape:export-filename="/home/rizmut/Dokumen/Rizmut/Github/libreoffice-style-karasa-jaga/build/images_karasa_jaga/cmd/lc_move.png"
   inkscape:export-xdpi="16.500002"
   inkscape:export-ydpi="16.500002">
  <defs
     id="defs2">
    <linearGradient
       id="linearGradient7422-3">
      <stop
         id="stop7424-5"
         style="stop-color:#99999c;stop-opacity:1"
         offset="0" />
      <stop
         id="stop5348-6"
         style="stop-color:#9c9ca1;stop-opacity:1"
         offset="0.5" />
      <stop
         id="stop7426-2"
         style="stop-color:#cdcdd1;stop-opacity:1"
         offset="1" />
    </linearGradient>
    <clipPath
       clipPathUnits="userSpaceOnUse"
       id="clipPath4181">
      <rect
         style="fill:#c173b0;fill-opacity:1;stroke:none;stroke-width:1.73136938;stroke-miterlimit:4;stroke-dasharray:none;stroke-opacity:1"
         id="rect4183"
         width="83.943993"
         height="117.52166"
         x="41.355614"
         y="933.74432" />
    </clipPath>
    <linearGradient
       id="linearGradient3303">
      <stop
         style="stop-color:#ffffff;stop-opacity:0.68345326;"
         offset="0"
         id="stop3305" />
      <stop
         style="stop-color:#ffffff;stop-opacity:0;"
         offset="1"
         id="stop3307" />
    </linearGradient>
    <radialGradient
       id="XMLID_8_"
       cx="102"
       cy="112.3047"
       r="139.55859"
       gradientUnits="userSpaceOnUse">
      <stop
         offset="0"
         style="stop-color:#b7b8b9;stop-opacity:1;"
         id="stop41" />
      <stop
         offset="0.18851049"
         style="stop-color:#ECECEC"
         id="stop47" />
      <stop
         offset="0.25718147"
         style="stop-color:#FAFAFA"
         id="stop49" />
      <stop
         offset="0.30111277"
         style="stop-color:#FFFFFF"
         id="stop51" />
      <stop
         offset="0.5313"
         style="stop-color:#FAFAFA"
         id="stop53" />
      <stop
         offset="0.8449"
         style="stop-color:#EBECEC"
         id="stop55" />
      <stop
         offset="1"
         style="stop-color:#E1E2E3"
         id="stop57" />
    </radialGradient>
    <linearGradient
       inkscape:collect="always"
       xlink:href="#linearGradient10867"
       id="linearGradient5838"
       gradientUnits="userSpaceOnUse"
       gradientTransform="matrix(0.26458333,0,0,0.26458333,0,260.05487)"
       x1="121.05164"
       y1="-11.6344"
       x2="121.05164"
       y2="122.1819" />
    <linearGradient
       id="linearGradient10867"
       inkscape:collect="always">
      <stop
         id="stop10869"
         offset="0"
         style="stop-color:#ffffff;stop-opacity:1" />
      <stop
         id="stop10871"
         offset="1"
         style="stop-color:#555555;stop-opacity:1" />
    </linearGradient>
    <linearGradient
       inkscape:collect="always"
       xlink:href="#linearGradient3323"
       id="linearGradient3733"
       x1="46.048"
       y1="128.01709"
       x2="46.048"
       y2="16.6203"
       gradientUnits="userSpaceOnUse"
       gradientTransform="matrix(0.28123848,0,0,0.37648631,0.03947129,260.72313)" />
    <linearGradient
       id="linearGradient3323">
      <stop
         style="stop-color:#c7cdd7;stop-opacity:1;"
         offset="0"
         id="stop3325" />
      <stop
         style="stop-color:#ffffff;stop-opacity:1;"
         offset="1"
         id="stop3327" />
    </linearGradient>
    <linearGradient
       inkscape:collect="always"
       id="linearGradient1752">
      <stop
         style="stop-color:#3a0b02;stop-opacity:1"
         offset="0"
         id="stop1748" />
      <stop
         style="stop-color:#a21d07;stop-opacity:0.38235295"
         offset="1"
         id="stop1750" />
    </linearGradient>
    <filter
       id="filter3477-3-7"
       height="1.2774813"
       y="-0.13874064"
       width="1.279832"
       x="-0.13991599">
      <feGaussianBlur
         id="feGaussianBlur3479-6-5"
         stdDeviation="0.28784801"
         inkscape:collect="always" />
    </filter>
    <filter
       id="filter1350"
       height="1.2774813"
       y="-0.13874064"
       width="1.279832"
       x="-0.13991599">
      <feGaussianBlur
         id="feGaussianBlur1348"
         stdDeviation="0.28784801"
         inkscape:collect="always" />
    </filter>
    <linearGradient
       x1="304.88663"
       y1="385.86127"
       x2="345.62039"
       y2="384.62384"
       id="linearGradient3298-9"
       xlink:href="#linearGradient1752"
       gradientUnits="userSpaceOnUse" />
    <filter
       id="filter1361"
       height="1.2774813"
       y="-0.13874064"
       width="1.279832"
       x="-0.13991599">
      <feGaussianBlur
         id="feGaussianBlur1359"
         stdDeviation="0.28784801"
         inkscape:collect="always" />
    </filter>
    <linearGradient
       id="linearGradient3366">
      <stop
         style="stop-color:#ff8787;stop-opacity:1"
         offset="0"
         id="stop3368" />
      <stop
         style="stop-color:#ff8787;stop-opacity:0"
         offset="1"
         id="stop4472" />
    </linearGradient>
    <filter
       id="filter1369"
       height="1.2774813"
       y="-0.13874064"
       width="1.279832"
       x="-0.13991599">
      <feGaussianBlur
         id="feGaussianBlur1367"
         stdDeviation="0.28784801"
         inkscape:collect="always" />
    </filter>
    <linearGradient
       x1="31.90625"
       y1="13.510336"
       x2="34.875107"
       y2="13.510336"
       id="linearGradient3310-2"
       xlink:href="#linearGradient3207"
       gradientUnits="userSpaceOnUse"
       gradientTransform="translate(-0.3)"
       spreadMethod="reflect" />
    <linearGradient
       id="linearGradient3207">
      <stop
         style="stop-color:#ffffff;stop-opacity:1"
         offset="0"
         id="stop3209" />
      <stop
         style="stop-color:#790000;stop-opacity:0"
         offset="1"
         id="stop3211" />
    </linearGradient>
    <filter
       id="filter1377"
       height="1.2774813"
       y="-0.13874064"
       width="1.279832"
       x="-0.13991599">
      <feGaussianBlur
         id="feGaussianBlur1375"
         stdDeviation="0.28784801"
         inkscape:collect="always" />
    </filter>
    <filter
       id="filter1388"
       height="1.2774813"
       y="-0.13874064"
       width="1.279832"
       x="-0.13991599">
      <feGaussianBlur
         id="feGaussianBlur1386"
         stdDeviation="0.28784801"
         inkscape:collect="always" />
    </filter>
    <linearGradient
       id="c"
       gradientUnits="userSpaceOnUse"
       x1="56"
       x2="60"
       y1="35.741943"
       y2="19.741945"
       gradientTransform="matrix(0.27165395,0,0,0.48105425,-1.0866158,256.71558)">
      <stop
         offset="0"
         stop-color="#1f620a"
         id="stop12" />
      <stop
         offset="1"
         stop-color="#3d9c10"
         stop-opacity=".94902"
         id="stop14" />
    </linearGradient>
    <linearGradient
       inkscape:collect="always"
       xlink:href="#c"
       id="linearGradient930"
       gradientUnits="userSpaceOnUse"
       gradientTransform="matrix(0.27165395,0,0,0.48105425,-1.0866158,256.71558)"
       x1="56"
       y1="35.741943"
       x2="60"
       y2="19.741945" />
    <linearGradient
       inkscape:collect="always"
       xlink:href="#linearGradient3323"
       id="linearGradient959"
       gradientUnits="userSpaceOnUse"
       gradientTransform="matrix(0.28123848,0,0,0.37648631,0.03947129,260.72313)"
       x1="46.048"
       y1="128.01709"
       x2="46.048"
       y2="16.6203" />
    <linearGradient
       inkscape:collect="always"
       xlink:href="#linearGradient10867"
       id="linearGradient961"
       gradientUnits="userSpaceOnUse"
       gradientTransform="matrix(0.26458333,0,0,0.26458333,0,260.05487)"
       x1="121.05164"
       y1="-11.6344"
       x2="121.05164"
       y2="122.1819" />
    <linearGradient
       inkscape:collect="always"
       xlink:href="#c"
       id="linearGradient963"
       gradientUnits="userSpaceOnUse"
       gradientTransform="matrix(0.27165395,0,0,0.48105425,-1.0866158,256.71558)"
       x1="56"
       y1="35.741943"
       x2="60"
       y2="19.741945" />
  </defs>
  <sodipodi:namedview
     id="base"
     pagecolor="#ffffff"
     bordercolor="#666666"
     borderopacity="1.0"
     inkscape:pageopacity="0.0"
     inkscape:pageshadow="2"
     inkscape:zoom="2.8"
     inkscape:cx="25.672952"
     inkscape:cy="49.952263"
     inkscape:document-units="mm"
     inkscape:current-layer="layer1"
     showgrid="true"
     units="px"
     inkscape:window-width="1280"
     inkscape:window-height="738"
     inkscape:window-x="0"
     inkscape:window-y="0"
     inkscape:window-maximized="1">
    <inkscape:grid
       type="xygrid"
       id="grid1379"
       spacingx="1.5393723"
       spacingy="1.5393723"
       empspacing="1" />
  </sodipodi:namedview>
  <metadata
     id="metadata5">
    <rdf:RDF>
      <cc:Work
         rdf:about="">
        <dc:format>image/svg+xml</dc:format>
        <dc:type
           rdf:resource="http://purl.org/dc/dcmitype/StillImage" />
        <dc:title></dc:title>
      </cc:Work>
    </rdf:RDF>
  </metadata>
  <g
     inkscape:label="Layer 1"
     inkscape:groupmode="layer"
     id="layer1"
     transform="translate(0,-263.13332)">
    <g
       transform="translate(10.775369,4.6303968)"
       id="g957"
       style="opacity:0.5">
      <rect
         y="267.75192"
         x="1.5393723"
         height="23.089994"
         width="18.472706"
         id="rect951"
         style="fill:url(#linearGradient959);fill-opacity:1;stroke:none;stroke-width:0.26458332" />
      <path
         sodipodi:nodetypes="ccccccccccccccccccccccccccccscssssccsssscscccccccccccccccccccccccccccccccccccccccccccccc"
         inkscape:connector-curvature="0"
         id="path953"
         d="M 1.5378906,266.21737 0,266.21789 v 1.53789 4.61367 1.53789 4.62194 1.53789 4.61367 0.008 1.52963 0.0165 4.60541 1.54615 h 1.5378906 l 9.2394344,-0.0116 h 1.537891 l 7.697343,0.007 h 1.537891 10e-4 v -1.54564 h -10e-4 v -4.6054 h 10e-4 v -1.54668 l -9.236268,-0.007 v -0.008 -4.61368 -0.0625 c 0.0015,0.0348 0.0245,0.0625 0.05374,0.0625 l 7.643601,0.007 v 4.55218 c 0,0.0365 0.02401,0.0661 0.05426,0.0661 h 1.430404 c 0.03025,0 0.05426,-0.0296 0.05426,-0.0661 v -4.55218 -1.53892 -4.55218 c 0,-0.0365 -0.02401,-0.0661 -0.05426,-0.0661 h -1.430404 c -0.03025,0 -0.05426,0.0297 -0.05426,0.0661 v 4.55218 l -7.643599,-0.007 c -0.02925,-2e-5 -0.0522,0.0277 -0.05374,0.0625 v -0.0615 -4.62194 l 7.697343,0.007 h 1.537891 0.001 v -1.53789 h -0.001 v -4.61367 h 0.001 v -1.53841 h -0.001 -1.537891 l -7.697343,-0.007 h -1.53786 z m 0,1.53841 9.2394344,-0.0117 v 4.61367 l -9.2394344,0.0116 z m 10.7773254,-0.0117 7.697343,0.007 v 4.61367 l -7.697343,-0.007 z m -10.7773254,6.16339 9.2394344,-0.0116 v 4.62194 l -9.2394344,0.0116 z m 0,6.15983 9.2394344,-0.0116 v 4.61367 l -9.2394344,0.0116 z m 0,6.1681 9.2394344,-0.0117 v 4.60541 l -9.2394344,0.0117 z m 10.7773254,-0.0117 7.697343,0.007 v 4.6054 l -7.697343,-0.007 z"
         style="fill:url(#linearGradient961);fill-opacity:1;stroke:none;stroke-width:0.26458332" />
      <path
         sodipodi:nodetypes="ccccc"
         style="fill:url(#linearGradient963);stroke-width:0.36149725"
         inkscape:connector-curvature="0"
         id="path955"
         d="m 0,266.21254 21.55145,-5.8e-4 v 7.69686 L 0,273.9094 Z" />
    </g>
    <g
       id="g914"
       transform="translate(1.5391346,-1.5387924)">
      <rect
         style="fill:url(#linearGradient3733);fill-opacity:1;stroke:none;stroke-width:0.26458332"
         id="rect3723"
         width="18.472706"
         height="23.089994"
         x="1.5393723"
         y="267.75192" />
      <path
         style="fill:url(#linearGradient5838);fill-opacity:1;stroke:none;stroke-width:0.26458332"
         d="M 1.5378906,266.21737 0,266.21789 v 1.53789 4.61367 1.53789 4.62194 1.53789 4.61367 0.008 1.52963 0.0165 4.60541 1.54615 h 1.5378906 l 9.2394344,-0.0116 h 1.537891 l 7.697343,0.007 h 1.537891 10e-4 v -1.54564 h -10e-4 v -4.6054 h 10e-4 v -1.54668 l -9.236268,-0.007 v -0.008 -4.61368 -0.0625 c 0.0015,0.0348 0.0245,0.0625 0.05374,0.0625 l 7.643601,0.007 v 4.55218 c 0,0.0365 0.02401,0.0661 0.05426,0.0661 h 1.430404 c 0.03025,0 0.05426,-0.0296 0.05426,-0.0661 v -4.55218 -1.53892 -4.55218 c 0,-0.0365 -0.02401,-0.0661 -0.05426,-0.0661 h -1.430404 c -0.03025,0 -0.05426,0.0297 -0.05426,0.0661 v 4.55218 l -7.643599,-0.007 c -0.02925,-2e-5 -0.0522,0.0277 -0.05374,0.0625 v -0.0615 -4.62194 l 7.697343,0.007 h 1.537891 10e-4 v -1.53789 h -10e-4 v -4.61367 h 10e-4 v -1.53841 h -10e-4 -1.537891 l -7.697343,-0.007 h -1.53786 z m 0,1.53841 9.2394344,-0.0117 v 4.61367 l -9.2394344,0.0116 z m 10.7773254,-0.0117 7.697343,0.007 v 4.61367 l -7.697343,-0.007 z m -10.7773254,6.16339 9.2394344,-0.0116 v 4.62194 l -9.2394344,0.0116 z m 0,6.15983 9.2394344,-0.0116 v 4.61367 l -9.2394344,0.0116 z m 0,6.1681 9.2394344,-0.0117 v 4.60541 l -9.2394344,0.0117 z m 10.7773254,-0.0117 7.697343,0.007 v 4.6054 l -7.697343,-0.007 z"
         id="rect5250"
         inkscape:connector-curvature="0"
         sodipodi:nodetypes="ccccccccccccccccccccccccccccscssssccsssscscccccccccccccccccccccccccccccccccccccccccccccc" />
      <path
         d="m 0,266.21254 21.55145,-5.8e-4 v 7.69686 L 0,273.9094 Z"
         id="path42"
         inkscape:connector-curvature="0"
         style="fill:url(#linearGradient930);stroke-width:0.36149725"
         sodipodi:nodetypes="ccccc" />
    </g>
  </g>
</svg>
