<svg enable-background="new 0 0 128 128" height="128" viewBox="0 0 128 128" width="128" xmlns="http://www.w3.org/2000/svg" xmlns:xlink="http://www.w3.org/1999/xlink"><filter id="a"><feGaussianBlur stdDeviation="1.0394514"/></filter><filter id="b"><feGaussianBlur stdDeviation=".50063244"/></filter><linearGradient id="c" gradientTransform="matrix(1.9259856 0 0 1.454525 -139.68101 -344.54041)" gradientUnits="userSpaceOnUse" x1="127.62865" x2="127.62865" y1="328.8761" y2="236.78918"><stop offset="0" stop-color="#6c6c6c"/><stop offset="1" stop-color="#585858" stop-opacity="0"/></linearGradient><radialGradient id="d" cx="40.7267" cy="90.066238" gradientTransform="matrix(2.3963946 -.03992179 .20008913 .85332699 -74.891822 -34.512118)" gradientUnits="userSpaceOnUse" r="29.07753"><stop offset="0" stop-color="#fff"/><stop offset=".42597079" stop-color="#fff"/><stop offset=".83495939" stop-color="#f1f1f1"/><stop offset=".91845536" stop-color="#eaeaea"/><stop offset="1" stop-color="#dfdfdf"/></radialGradient><radialGradient id="e" cx="11.6362" cy="105.89972" gradientTransform="matrix(1 0 0 1.362146 0 -22.068979)" gradientUnits="userSpaceOnUse" r="40.496651"><stop offset="0" stop-color="#3e3e3e"/><stop offset=".0151" stop-color="#505050"/><stop offset=".0558" stop-color="#7e7e7e"/><stop offset=".1357" stop-color="#c6c6c6"/><stop offset=".20990001" stop-color="#f1f1f1"/><stop offset=".24349999" stop-color="#fcfcfc"/><stop offset=".2722" stop-color="#fff"/></radialGradient><path d="m23 9 .04082 113.99347 85.46279.0763c.375-.375.586-.884.586-1.414v-112.65577z" filter="url(#a)" opacity=".306849" transform="matrix(-1.0090419 0 0 -1.003276 129.65155 127.06873)"/><path d="m23 9.9655172.04082 113.0279528 85.46279.0763c.375-.375.586-.884.586-1.414v-111.6902328h-86.089606z" filter="url(#a)" opacity=".306849" transform="matrix(-1.0090419 0 0 -1.003276 129.65155 127.06873)"/><path d="m23 8.9687825.04082 114.0246875 85.46279.0763c.375-.375.586-.884.586-1.414v-112.6869675h-86.089606z" filter="url(#a)" opacity=".553425" transform="matrix(-1.0090419 0 0 -1.003276 131.65155 127.06873)"/><path d="m24.919999 10.931136v113.918994l81.663611-.0578c.375-.375.586-.884.586-1.414v-112.447164h-82.249611z" filter="url(#b)" opacity=".89589" transform="matrix(-1.0090419 0 0 -1.003276 131.65155 129.06873)"/><path d="m104.50623 116.10178v-110.2921788l-80.425659-.0325c-.36326.36325-.56764.85631-.56764 1.36971v108.9549888h80.993299z" fill="url(#e)"/><path d="m92.195368 40.7285c.40573 0 .736352-.100546.736352-.223938l-.250032-22.777509c0-.123616-.330622-.223939-.736354-.223939l-56.952926-.047014c-.137712.04188-.215748.09943-.215748.158322v23.0498c0 .12339.329885.223936.736345.223936z" fill="url(#d)" stroke-width=".441055"/><g fill="#ababab"><path d="m11.638-98.9077h5.8181v69.8172h-5.8181z" transform="rotate(90)"/><path d="m17.4561-34.908604h29.0905v5.8181h-29.0905z" transform="rotate(90)"/><path d="m17.4561-98.9077h29.0905v5.8181h-29.0905z" transform="rotate(90)"/><path d="m-93.0896-46.659431h58.400566v5.930932h-58.400566z" transform="scale(-1)"/></g><path d="m29.0905 52.3647v5.8181h69.33548v-5.8181zm0 17.4543v5.8181h69.33548v-5.8181zm0 17.4543v5.8181h69.8172v-5.8181zm0 17.4543v5.8181h69.33548v-5.8181z" fill="url(#c)" fill-rule="evenodd"/></svg>