<svg enable-background="new 0 0 128 128" height="128" viewBox="0 0 128 128" width="128" xmlns="http://www.w3.org/2000/svg" xmlns:xlink="http://www.w3.org/1999/xlink"><radialGradient id="a" cx="119.7217" cy="107.77396" gradientTransform="matrix(0 1.0482277 -.84015092 0 115.57688 6.973322)" gradientUnits="userSpaceOnUse" r="139.55859"><stop offset="0" stop-color="#c3c5c6"/><stop offset=".11366145" stop-color="#e5e5e5"/><stop offset=".20296688" stop-color="#ececec"/><stop offset=".2363" stop-color="#fafafa"/><stop offset=".43151432" stop-color="#fff"/><stop offset=".72924501" stop-color="#fafafa"/><stop offset=".8449" stop-color="#ebecec"/><stop offset="1" stop-color="#e1e2e3"/></radialGradient><radialGradient id="b" cx="138.80815" cy="139.86963" gradientTransform="matrix(0 .9686802 -.9686802 0 123.84942 -3.860883)" gradientUnits="userSpaceOnUse" r="139.5585"><stop offset="0" stop-color="#3e3e3e"/><stop offset=".0151" stop-color="#505050"/><stop offset=".0558" stop-color="#7e7e7e"/><stop offset=".1357" stop-color="#c6c6c6"/><stop offset=".20990001" stop-color="#f1f1f1"/><stop offset=".24349999" stop-color="#fcfcfc"/><stop offset=".2722" stop-color="#fff"/></radialGradient><filter id="c"><feGaussianBlur stdDeviation="1.0394514"/></filter><filter id="d"><feGaussianBlur stdDeviation=".50063244"/></filter><path d="m23 8.9687825.04082 114.0246875 109.24773.0763c.375-.375.586-.884.586-1.414v-112.6869675h-109.874546z" filter="url(#c)" opacity=".553425" transform="matrix(0 1.0090419 -1.003276 0 127.06693 -13.507326)"/><path d="m23 9.9655172.04082 113.0279528 97.35526.0763c.375-.375.586-.884.586-1.414v-111.6902328h-97.982076z" filter="url(#c)" opacity=".306849" transform="matrix(0 1.0090419 -1.003276 0 127.06693 -13.507326)"/><path d="m23 9 .04082 113.99347 109.24773.0763c.375-.375.586-.884.586-1.414v-112.65577z" filter="url(#c)" opacity=".306849" transform="matrix(0 1.0090419 -1.003276 0 127.06693 -13.507326)"/><path d="m24.919999 10.931136v109.932054l81.663611-.0578c.375-.375.586-.884.586-1.414v-108.460224h-82.249611z" filter="url(#d)" opacity=".89589" transform="matrix(0 1.0090419 -1.003276 0 127.06693 -13.507326)"/><path d="m116.09998 11.638h-110.2921785l-.0325 104.42566c.36325.36326.85631.56764 1.36971.56764h108.9549885v-104.9933z" fill="url(#b)"/><path d="m104.76639 23.274199c0-.577573-.37722-1.048226-.84016-1.048226l-85.455384.355931c-.463774 0-.840163.470654-.840163 1.048228l-.176383 81.074758c.157109.19604.373023.30713.593982.30713h86.476958c.46292 0 .84014-.4696.84014-1.04822z" fill="url(#a)" stroke-width="1.019281"/><path d="m66.469253-31.335414h2.79471z" fill="#fff" fill-opacity=".756881"/><path d="m104.7361 17.4561h5.67844v93.0896h-5.67844z" fill="#bbb"/><g fill="#bcbcbc"><path d="m11.506838 17.4561h5.8181v93.0896h-5.8181z"/><path d="m17.31464 52.3647h87.2715v5.8181h-87.2715z"/><path d="m17.31464 34.9104h87.2715v5.8181h-87.2715z"/><path d="m17.31464 69.819h87.2715v5.8181h-87.2715z"/><path d="m17.4646 87.053726h87.2715v5.8181h-87.2715z"/><path d="m17.31464 17.4561h87.2715v5.8181h-87.2715z"/><path d="m17.31464 104.7276h87.2715v5.8181h-87.2715z"/></g><path d="m69.8172 17.4561h5.67844v93.0896h-5.67844z" fill="#bbb"/><path d="m40.7267 17.4561h5.67844v93.0896h-5.67844z" fill="#bbb"/></svg>