<svg enable-background="new 0 0 128 128" height="128" viewBox="0 0 128 128" width="128" xmlns="http://www.w3.org/2000/svg" xmlns:xlink="http://www.w3.org/1999/xlink"><linearGradient id="a" gradientUnits="userSpaceOnUse" x1="88.591797" x2="71.262016" y1="96.592697" y2="79.262917"><stop offset="0" stop-color="#fff"/><stop offset="1" stop-color="#555753"/></linearGradient><linearGradient id="b" gradientUnits="userSpaceOnUse" x1="85.219681" x2="61.336319" y1="93.219681" y2="69.336319"><stop offset="0"/><stop offset="1" stop-color="#393b38"/></linearGradient><linearGradient id="c" gradientUnits="userSpaceOnUse" x1="96" x2="88.0002" y1="104" y2="96.0002"><stop offset="0" stop-color="#888a85"/><stop offset=".0072" stop-color="#8c8e89"/><stop offset=".0673" stop-color="#abaca9"/><stop offset=".1347" stop-color="#c5c6c4"/><stop offset=".2115" stop-color="#dbdbda"/><stop offset=".3012" stop-color="#ebebeb"/><stop offset=".4122" stop-color="#f7f7f6"/><stop offset=".5679" stop-color="#fdfdfd"/><stop offset="1" stop-color="#fff"/></linearGradient><radialGradient id="d" cx="102" cy="112.3047" gradientTransform="matrix(.94807 0 0 .9510679 3.32352 5.274458)" gradientUnits="userSpaceOnUse" r="139.55859"><stop offset="0" stop-color="#535557"/><stop offset=".11366145" stop-color="#898a8c"/><stop offset=".20296688" stop-color="#ececec"/><stop offset=".2363" stop-color="#fafafa"/><stop offset=".2722" stop-color="#fff"/><stop offset=".5313" stop-color="#fafafa"/><stop offset=".8449" stop-color="#ebecec"/><stop offset="1" stop-color="#e1e2e3"/></radialGradient><radialGradient id="e" cx="100.8098464" cy="112.93460525694" gradientUnits="userSpaceOnUse" r="135.1875556917"><stop offset="0" stop-color="#3e3e3e"/><stop offset=".0151" stop-color="#505050"/><stop offset=".0558" stop-color="#7e7e7e"/><stop offset=".1357" stop-color="#c6c6c6"/><stop offset=".20990001" stop-color="#f1f1f1"/><stop offset=".24349999" stop-color="#fcfcfc"/><stop offset=".2722" stop-color="#fff"/></radialGradient><filter id="f"><feGaussianBlur stdDeviation="1.0394514"/></filter><filter id="g"><feGaussianBlur stdDeviation=".50063244"/></filter><filter id="h"><feGaussianBlur stdDeviation=".40750996"/></filter><filter id="i"><feGaussianBlur stdDeviation=".4901192"/></filter><filter id="j"><feGaussianBlur stdDeviation=".90565481"/></filter><filter id="k" color-interpolation-filters="sRGB" height="1.072142" width="1.071866" x="-.035933" y="-.036071"><feGaussianBlur stdDeviation=".66434216"/></filter><radialGradient id="l" cx="-55.685837" cy="-347.11612" gradientTransform="matrix(-.89528211 -.23989009 .26001404 -.9703857 -29.034684 -654.02683)" gradientUnits="userSpaceOnUse" r="22.14249"><stop offset="0" stop-color="#82c133"/><stop offset="1" stop-color="#72b028"/></radialGradient><linearGradient id="m" gradientUnits="userSpaceOnUse" x1="328.12448" x2="336.98077" y1="120.81158" y2="87.759453"><stop offset="0" stop-color="#96ff00"/><stop offset="1" stop-color="#609800"/></linearGradient><clipPath id="n"><circle cx="343.91208" cy="92.325096" r="36" transform="matrix(.86602539 .50000002 .49999965 -.86602561 0 0)"/></clipPath><filter id="o"><feGaussianBlur stdDeviation="2.8805897"/></filter><radialGradient id="p" cx="343.99899" cy="92" gradientTransform="matrix(.47032074 0 0 .4703204 -235.54627 -330.99181)" gradientUnits="userSpaceOnUse" r="36"><stop offset="0" stop-color="#e5ff00"/><stop offset="1" stop-color="#bff500" stop-opacity="0"/></radialGradient><linearGradient id="q" gradientUnits="userSpaceOnUse" x1="122.000035" x2="122.000035" y1="61.999997" y2="9.932843"><stop offset="0" stop-color="#004d00" stop-opacity="0"/><stop offset=".5" stop-color="#004d00"/><stop offset="1" stop-color="#004d00" stop-opacity="0"/></linearGradient><filter id="r"><feGaussianBlur stdDeviation="1.04"/></filter><linearGradient id="s" gradientTransform="matrix(0 .47393418 -.47393451 0 83.152635 278.87871)" gradientUnits="userSpaceOnUse" x1="-80.00296" x2="-45.096584" y1="-131.93112" y2="-131.93112"><stop offset="0" stop-color="#fff"/><stop offset="1" stop-color="#fff" stop-opacity="0"/></linearGradient><path d="m23 8.9687825.040816 114.0246875h61.131184c.53 0 1.039-.211 1.414-.586l32.828-32.828001c.375-.375.586-.884.586-1.414v-79.1966865z" filter="url(#f)" opacity=".553425" transform="matrix(1.0090419 0 0 1.003276 -7.641977 .929762)"/><path d="m23 9 .04082 113.99347h61.13118c.53 0 1.039-.211 1.414-.586l32.828-32.828001c.375-.375.586-.884.586-1.414v-79.165469z" filter="url(#f)" opacity=".306849" transform="matrix(1.0090419 0 0 1.003276 -7.641977 .929762)"/><path d="m24.905735 10.673272.01426 110.189918 58.676001-.0001c.53 0 1.039-.211 1.414-.586l31.484-31.765934c.375-.375.586-.884.586-1.414l.0812-76.423884z" filter="url(#g)" opacity=".89589" transform="matrix(1.0090419 0 0 1.003276 -7.641977 .929762)"/><path d="m23 9.9655172.040816 113.0279528h61.131184c.53 0 1.039-.211 1.414-.586l32.828-32.828001c.375-.375.586-.884.586-1.414v-78.1999518z" filter="url(#f)" opacity=".306849" transform="matrix(1.0090419 0 0 1.003276 -7.641977 .929762)"/><path d="m17.488953 11.638.0144 110.55089h59.256106c.513401 0 1.006458-.20439 1.369714-.56765l31.799827-31.799829c.36326-.363255.56764-.856313.56764-1.369714l.08191-76.813697z" fill="url(#e)"/><path d="m24.066856 17.512144c-.522387 0-.94807.42703-.94807.951069l.321923 96.737247c0 .525.425684.95108.94807.95108h52.099199c.249342 0 .493944-.10082.670284-.27867l28.123238-27.221657c.17729-.17785.27778-.422273.27778-.672405l-.7-69.493672c0-.524039-.42473-.951068-.94806-.951068z" fill="url(#d)"/><g transform="matrix(1.1080161 0 0 1.1080161 -12.744784 -10.01667)"><path d="m111.414 86.586c.25-.25-26.379-1.586-31.414-1.586-1.654 0-3 1.346-3 3 0 5.035 1.336 31.664 1.586 31.414z" fill="url(#a)" filter="url(#h)" opacity=".750685"/><path d="m111.414 86.586c.375-.375-21.97-.586-31.414-.586-1.103 0-2 .897-2 2 0 9.444.211 31.789.586 31.414z" filter="url(#j)" opacity=".2"/><path d="m111.414 86.586c.239-.239-21.607.414-31.414.414-.553 0-1 .447-1 1 0 9.807-.653 31.653-.414 31.414z" fill="url(#b)" filter="url(#i)" opacity=".1"/><path d="m79.721619 119.31106 31.505501-31.505504h-31.505501z" fill="url(#c)"/></g><g transform="matrix(1.45455 0 0 1.45455 -117.25775 -344.12033)"><ellipse cx="-207.73613" cy="212.29665" fill="none" rx="20.523085" ry="20.523069" stroke-width=".570085" transform="matrix(-.96592587 -.2588189 -.25881915 .9659258 0 0)"/><ellipse cx="-59.830322" cy="-331.66757" fill="#292929" filter="url(#k)" rx="22.14249" ry="22.142477" transform="matrix(-.89809327 .23387197 -.24064319 -.8728227 12.164424 -15.390993)"/><ellipse cx="-73.756378" cy="-287.72238" fill="url(#l)" rx="20.523085" ry="20.523069" transform="matrix(-.96592587 .25881888 -.25881888 -.96592587 0 0)"/><circle cx="343.99899" cy="92" r="36" style="opacity:.8;fill:none;stroke-width:6.751382;clip-path:url(#n);stroke:url(#m);filter:url(#o)" transform="matrix(-.55066046 -.14754894 -.14754899 .55066008 348.7124 258.92482)"/><ellipse cx="-73.756401" cy="-287.72238" fill="url(#p)" rx="16.931545" ry="16.931536" stroke-width=".470321" transform="matrix(-.96592583 .25881905 -.25881905 -.96592583 0 0)"/><path d="m120.01465 24.819615v9.194998h-7.32125v3.970777h7.32125v9.194998h3.97076v-9.194998h7.32126v-3.970777h-7.32126v-9.194998z" style="fill:none;stroke-width:4;stroke-linecap:round;stroke-linejoin:round;stroke:url(#q);filter:url(#r)" transform="matrix(1.2017106 0 0 1.2017106 -.897549 217.33317)"/><path d="m141.84828 244.34507v10.13508h-10.13507v7.72576h10.13507v10.13508h7.7258v-10.13508h10.13506v-7.72576h-10.13506v-10.13508z" fill="#fff" fill-rule="evenodd"/><path d="m145.71127 240.96258c-7.27803 0-13.35947 5.13926-14.82526 11.98165 2.92172 2.72366 8.46549 4.56161 14.82526 4.56161s11.90353-1.83795 14.82523-4.56161c-1.46576-6.84239-7.54721-11.98165-14.82523-11.98165z" fill="url(#s)" opacity=".8" stroke-width=".789785"/></g></svg>