<svg height="128" width="128" xmlns="http://www.w3.org/2000/svg" xmlns:xlink="http://www.w3.org/1999/xlink"><linearGradient id="a" gradientTransform="matrix(.01012142 0 0 .01626492 -71.03189 127.18706)" gradientUnits="userSpaceOnUse" x1="399.77466" x2="399.77466" y1="1164.6696" y2="549.06134"><stop offset="0" stop-color="#717174"/><stop offset=".5" stop-color="#9c9ca1"/><stop offset="1" stop-color="#cdcdd1"/></linearGradient><linearGradient id="b" gradientTransform="matrix(.07812501 0 0 .1041667 -70.374995 134.45835)" gradientUnits="userSpaceOnUse" x1="119.57646" x2="15.999996" y1="23.792561" y2="109.6508"><stop offset="0" stop-color="#fff"/><stop offset=".42597079" stop-color="#fff"/><stop offset=".5892781" stop-color="#e5e5e5"/><stop offset=".80219781" stop-color="#eaeaea"/><stop offset="1" stop-color="#eee"/></linearGradient><linearGradient id="c" gradientTransform="matrix(0 -.1872075 -.234375 0 148.62501 -49.538415)" gradientUnits="userSpaceOnUse" x1="102.31124" x2="74.330322" y1="-5.830213" y2="32"><stop offset="0" stop-color="#fff"/><stop offset="1" stop-color="#fff" stop-opacity="0"/></linearGradient><radialGradient id="d" cx="-65.375" cy="141.125" gradientTransform="matrix(.9374998 0 0 .9374995 -4.085953 8.820384)" gradientUnits="userSpaceOnUse" r="4"><stop offset="0" stop-color="#a9cbfc"/><stop offset="1" stop-color="#aecffc"/></radialGradient><radialGradient id="e" cx="141.125" cy="-65.375" gradientTransform="matrix(.9374997 0 0 .934665 8.820357 -4.259942)" gradientUnits="userSpaceOnUse" r="4"><stop offset="0" stop-color="#8fbcff"/><stop offset="1" stop-color="#80b3ff"/></radialGradient><g transform="matrix(7.3141938 0 0 7.3141938 -995.64392 514.73721)"><rect fill="url(#a)" height="10.340796" opacity=".75" rx=".396846" ry=".461539" transform="matrix(0 1 1 0 0 0)" width="10.341027" x="-70.375" y="136.125"/><g fill-rule="evenodd"><rect fill="url(#b)" height="8.68377" rx=".173085" ry=".208333" transform="matrix(0 1 1 0 0 0)" width="8.68363" x="-69.579414" y="136.92035"/><path d="m145.60413-67.188735c-2.2097 2.000048-5.84981 4.876136-8.75006 6.044137v-5.095555c2.77664-.285394 6.53502-2.177542 8.75006-3.405676z" fill="url(#c)"/></g></g><g transform="matrix(7.3141966 0 0 7.3141966 -968.21597 542.16562)"><rect fill="url(#a)" height="11.136343" rx=".396846" ry=".461539" transform="matrix(0 1 1 0 0 0)" width="11.136346" x="-70.943054" y="135.5567"/><g fill-rule="evenodd"><rect fill="url(#d)" height="9.545428" rx=".173085" ry=".208333" transform="matrix(0 1 1 0 0 0)" width="9.545432" x="-70.147598" y="136.35216"/><path d="m145.89759-67.761238c-2.20971 1.994-6.64519 5.994608-9.54543 7.159077v-5.080147c2.77663-.284531 7.33038-3.304173 9.54543-4.528593z" fill="url(#e)"/></g></g><path d="m-9.141936-9.14192h146.28387v146.28387h-146.28387z" fill="#e7e7e7" opacity="0"/><g transform="matrix(7.3141938 0 0 7.3141938 -940.78737 569.59367)"><rect fill="url(#a)" height="10.34103" opacity=".75" rx=".396846" ry=".461539" transform="matrix(0 1 1 0 0 0)" width="10.340886" x="-70.71579" y="135.78397"/><g fill-rule="evenodd"><rect fill="url(#b)" height="8.816405" rx=".173085" ry=".208333" transform="matrix(0 1 1 0 0 0)" width="8.816238" x="-69.920334" y="136.57942"/><path d="m145.39583-67.397023c-2.2097 2.000048-5.84981 5.124961-8.75006 6.292962v-5.095555c2.77664-.285394 6.53502-2.426367 8.75006-3.654501z" fill="url(#c)"/></g></g></svg>