<?xml version="1.0" encoding="UTF-8" standalone="no"?>
<svg
   xmlns:dc="http://purl.org/dc/elements/1.1/"
   xmlns:cc="http://creativecommons.org/ns#"
   xmlns:rdf="http://www.w3.org/1999/02/22-rdf-syntax-ns#"
   xmlns:svg="http://www.w3.org/2000/svg"
   xmlns="http://www.w3.org/2000/svg"
   xmlns:xlink="http://www.w3.org/1999/xlink"
   xmlns:sodipodi="http://sodipodi.sourceforge.net/DTD/sodipodi-0.dtd"
   xmlns:inkscape="http://www.inkscape.org/namespaces/inkscape"
   height="128"
   viewBox="0 0 33.866666 33.866668"
   width="128"
   version="1.1"
   id="svg20"
   sodipodi:docname="lc_overline.svg"
   inkscape:version="0.92.2 (unknown)"
   inkscape:export-filename="/home/rizmut/Dokumen/Rizmut/Github/libreoffice-style-karasa-jaga/build/images_karasa_jaga/cmd/lc_overline.png"
   inkscape:export-xdpi="16.5"
   inkscape:export-ydpi="16.5">
  <metadata
     id="metadata26">
    <rdf:RDF>
      <cc:Work
         rdf:about="">
        <dc:format>image/svg+xml</dc:format>
        <dc:type
           rdf:resource="http://purl.org/dc/dcmitype/StillImage" />
        <dc:title></dc:title>
      </cc:Work>
    </rdf:RDF>
  </metadata>
  <defs
     id="defs24">
    <linearGradient
       inkscape:collect="always"
       xlink:href="#b"
       id="linearGradient2108"
       x1="33.066406"
       y1="43.697266"
       x2="117.34375"
       y2="43.697266"
       gradientUnits="userSpaceOnUse"
       gradientTransform="matrix(0.26458334,0,0,0.26458334,-2.9644688,3.8683001)" />
  </defs>
  <sodipodi:namedview
     pagecolor="#ffffff"
     bordercolor="#666666"
     borderopacity="1"
     objecttolerance="10"
     gridtolerance="10"
     guidetolerance="10"
     inkscape:pageopacity="0"
     inkscape:pageshadow="2"
     inkscape:window-width="1366"
     inkscape:window-height="706"
     id="namedview22"
     showgrid="true"
     inkscape:zoom="1.84375"
     inkscape:cx="54.429268"
     inkscape:cy="62.611683"
     inkscape:window-x="0"
     inkscape:window-y="0"
     inkscape:window-maximized="1"
     inkscape:current-layer="svg20">
    <inkscape:grid
       type="xygrid"
       id="grid825"
       spacingx="1.5393723"
       spacingy="1.5393723"
       empspacing="1" />
  </sodipodi:namedview>
  <linearGradient
     id="a"
     gradientUnits="userSpaceOnUse"
     x1="18.99608880061"
     x2="20.22575014415"
     y1="294.82258903077"
     y2="266.54036534865"
     gradientTransform="matrix(0.78351691,0,0,0.78351691,0.28214141,-199.05157)">
    <stop
       offset="0"
       stop-color="#555"
       id="stop2" />
    <stop
       offset="1"
       id="stop4" />
  </linearGradient>
  <linearGradient
     id="b"
     gradientUnits="userSpaceOnUse"
     x1="53.856667"
     x2="72.864624"
     y1="1.845663"
     y2="61.042988"
     gradientTransform="matrix(0.21695833,0,0,0.21695833,3.048,3.0518754)">
    <stop
       offset="0"
       stop-color="#3b3e22"
       id="stop7" />
    <stop
       offset="1"
       stop-color="#454545"
       stop-opacity="0"
       id="stop9" />
  </linearGradient>
  <rect
     style="fill:#010101;stroke-width:0.26458335"
     height="1.5393723"
     rx="0.47207487"
     ry="0.60722405"
     width="27.708702"
     x="3.0787446"
     y="-6.2266264"
     id="rect21"
     transform="scale(1,-1)" />
  <g
     id="g859">
    <text
       transform="scale(1.0465633,0.95550838)"
       style="font-size:32.0442543px;font-family:sans-serif;letter-spacing:0;word-spacing:0;fill:url(#a);stroke-width:0.80110604"
       x="3.9728928"
       y="31.749414"
       id="text14">
      <tspan
         font-size="43.038166"
         font-weight="bold"
         x="3.9728928"
         y="31.749414"
         id="tspan12"
         style="font-style:normal;font-variant:normal;font-weight:normal;font-stretch:normal;font-size:33.72113037px;font-family:FreeSerif;-inkscape-font-specification:FreeSerif;fill:url(#a);stroke-width:0.80110604">O</tspan>
    </text>
    <path
       inkscape:connector-curvature="0"
       id="path2091"
       d="m 16.932508,8.9129531 c -3.276327,0 -5.913775,0.994986 -8.0088132,3.0117029 -2.0949127,2.016595 -3.1393435,4.575548 -3.1393435,7.746814 0,0.586407 0.035606,1.150424 0.1049033,1.693954 a 21.410553,10.857485 0 0 0 3.3031577,0.58136 C 9.085042,21.219457 9.026014,20.48313 9.026014,19.736582 c 0,-0.895019 0.059972,-1.770031 0.1798341,-2.623612 a 0.39023217,0.35628049 0 0 1 0,-0.0078 c 0.1452337,-0.883939 0.400767,-1.797343 0.7606771,-2.739319 0.3629118,-0.94983 0.8124708,-1.772746 1.3549558,-2.470651 a 0.39023217,0.35628049 0 0 1 0.0021,-0.0021 c 0.578416,-0.734736 1.355907,-1.340764 2.318205,-1.813842 0.977391,-0.4804989 2.081965,-0.7203699 3.290755,-0.7203699 0.718084,0 1.415362,0.09059 2.087212,0.272335 0.714035,0.186888 1.424913,0.5323799 2.135786,1.0247439 0.723114,0.500842 1.345751,1.137962 1.862419,1.901692 0.54815,0.775612 0.980649,1.775426 1.316199,3.000851 0.338904,1.23767 0.506947,2.640307 0.506947,4.210079 0,0.408605 -0.02283,0.815087 -0.05633,1.220597 a 21.410553,10.857485 0 0 0 3.296439,-1.11156 c 1.43e-4,-0.02608 0.0016,-0.05135 0.0016,-0.07751 0,-3.280987 -1.045845,-5.880931 -3.137275,-7.873422 a 0.39023217,0.35628049 0 0 1 -0.0021,-0.0021 C 22.872764,9.9094771 20.232973,8.9128931 16.932508,8.9128931 Z"
       style="opacity:1;fill:url(#linearGradient2108);fill-opacity:1;stroke:none;stroke-width:0.30000001;stroke-linecap:round;stroke-linejoin:round;stroke-miterlimit:4;stroke-dasharray:none;stroke-dashoffset:0;stroke-opacity:1" />
  </g>
</svg>
