<svg enable-background="new 0 0 128 128" height="128" viewBox="0 0 128 128" width="128" xmlns="http://www.w3.org/2000/svg" xmlns:xlink="http://www.w3.org/1999/xlink"><linearGradient id="a" gradientUnits="userSpaceOnUse" x1="78.61085034347" x2="120.34349451992" y1="88.85241574791" y2="111.54715161013"><stop offset="0" stop-color="#fff"/><stop offset="1" stop-color="#ccc"/></linearGradient><linearGradient id="b" gradientUnits="userSpaceOnUse" x1="88.38102" x2="130.48599" y1="1008.9966" y2="1015.6953"><stop offset="0" stop-color="#7b7b7b"/><stop offset="1" stop-color="#797979" stop-opacity="0"/></linearGradient><clipPath id="c"><path d="m41.355614 933.74432h83.943993v117.52166h-83.943993z"/></clipPath><filter id="d" color-interpolation-filters="sRGB" height="1.073732" width="1.13754" x="-.06877" y="-.036866"><feGaussianBlur stdDeviation="1.0557314"/></filter><linearGradient id="e" gradientUnits="userSpaceOnUse" x1="100.83452" x2="116.42799" y1="37.992622" y2="80.92411"><stop offset="0" stop-color="#fff" stop-opacity=".683453"/><stop offset="1" stop-color="#fff" stop-opacity="0"/></linearGradient><linearGradient id="f" gradientTransform="matrix(.58291629 0 0 .66676377 62.177025 -566.68964)" gradientUnits="userSpaceOnUse" x1="63.011921" x2="63.011921" y1="945.89801" y2="1033.1569"><stop offset="0" stop-color="#545454" stop-opacity=".988"/><stop offset="1" stop-color="#ebebeb"/></linearGradient><linearGradient id="g" gradientTransform="matrix(.48045402 0 0 .66178602 128.73476 -578.51587)" gradientUnits="userSpaceOnUse" x1="-60.535713" x2="-60.357143" y1="979.50507" y2="1009.505"><stop offset="0" stop-color="#979797"/><stop offset=".148461" stop-color="#f6f6f6"/><stop offset=".28399727" stop-color="#e2e2e2"/><stop offset=".41198727" stop-color="#dedede"/><stop offset=".41198727" stop-color="#f6f6f6"/><stop offset="1" stop-color="#6b6b6b"/></linearGradient><linearGradient id="h" gradientTransform="matrix(.480454 0 0 .58309338 128.76683 499.76645)" gradientUnits="userSpaceOnUse" x1="-61.078979" x2="-60.6413" y1="-1056.658" y2="-1010.9131"><stop offset="0" stop-color="#777"/><stop offset=".18176934" stop-color="#a8a8a8"/><stop offset=".22864534" stop-color="#cdcdcd"/><stop offset=".34561315" stop-color="#f7f7f7"/><stop offset="1" stop-color="#fff"/></linearGradient><linearGradient id="i" gradientUnits="userSpaceOnUse" x1="98.9077" x2="98.9077" y1="46.5466" y2="162.9086"><stop offset="0" stop-color="#99999c"/><stop offset=".5" stop-color="#9c9ca1"/><stop offset="1" stop-color="#cdcdd1"/></linearGradient><filter id="j"><feGaussianBlur stdDeviation="4"/></filter><radialGradient id="k" cx="64.30071266" cy="58.34089566" gradientUnits="userSpaceOnUse" r="24.01196496"><stop offset="0" stop-color="#fff"/><stop offset=".574" stop-color="#fff"/><stop offset=".6842" stop-color="#fbfbfb"/><stop offset=".8001" stop-color="#eee"/><stop offset=".9" stop-color="#ddd"/><stop offset="1" stop-color="#bbb"/></radialGradient><radialGradient id="l" cx="53.1978" cy="59.186501" gradientTransform="matrix(.6667 0 0 .7574 20.7214 14.064)" gradientUnits="userSpaceOnUse" r="40.0294"><stop offset="0"/><stop offset="1" stop-color="#666"/></radialGradient><linearGradient id="m" gradientUnits="userSpaceOnUse" x1="43.03567011236" x2="85.56598689193" y1="47.25845338" y2="47.25845338"><stop offset="0" stop-color="#fff"/><stop offset=".80000001" stop-color="#fff" stop-opacity="0"/></linearGradient><radialGradient id="n" cx="48" cy="112" gradientTransform="matrix(.90769573 0 0 .68363591 44.461344 7.669046)" gradientUnits="userSpaceOnUse" r="32"><stop offset="0" stop-color="#ffea00"/><stop offset="1" stop-color="#ffa000"/></radialGradient><linearGradient id="o" gradientUnits="userSpaceOnUse" x1="52" x2="52" y1="64" y2="68"><stop offset="0"/><stop offset="1" stop-opacity="0"/></linearGradient><filter id="p"><feGaussianBlur stdDeviation="1.1263538"/></filter><linearGradient id="q" gradientUnits="userSpaceOnUse" x1="56" x2="56" y1="32" y2="88.117546"><stop offset="0" stop-color="#fff"/><stop offset="1" stop-color="#fff" stop-opacity="0"/></linearGradient><clipPath id="r"><path d="m18.1875 56c-1.219674 0-2.1875.967827-2.1875 2.1875v17.0625c9.640301 2.396967 20.509296 3.75 32 3.75s22.359699-1.353033 32-3.75v-17.0625c0-1.219674-.967827-2.1875-2.1875-2.1875z" filter="url(#s)"/></clipPath><filter id="s" height="1.294962" width="1.106002" x="-.053001" y="-.147481"><feGaussianBlur stdDeviation="1.4133574"/></filter><linearGradient id="t" gradientUnits="userSpaceOnUse" x1="60" x2="60" y1="-17.999997" y2="-7.999997"><stop offset="0" stop-color="#4d4d4d"/><stop offset=".27316919" stop-color="#858585"/><stop offset=".73455489" stop-color="#c9c9c9"/><stop offset="1" stop-color="#bebebe"/></linearGradient><linearGradient id="u" gradientTransform="matrix(1 0 0 1.0149254 0 -1.453445)" gradientUnits="userSpaceOnUse" x1="57.375618" x2="56.834339" y1="38.147617" y2="83.073807"><stop offset="0" stop-color="#ededed"/><stop offset="1" stop-color="#fafafa"/></linearGradient><linearGradient id="v" gradientUnits="userSpaceOnUse" x1="61.736443" x2="66.263557" xlink:href="#w" y1="60.801121" y2="60.801121"/><linearGradient id="w"><stop offset="0" stop-color="#929292"/><stop offset=".2907632" stop-color="#bebebe"/><stop offset=".75" stop-color="#e2e2e2"/><stop offset="1" stop-color="#929292"/></linearGradient><linearGradient id="x" gradientUnits="userSpaceOnUse" x1="118.59453" x2="122.9486" xlink:href="#w" y1="29.052601" y2="29.052601"/><linearGradient id="y" gradientUnits="userSpaceOnUse" x1="40.194508" x2="44.548584" xlink:href="#w" y1="130.24648" y2="130.24648"/><g transform="translate(0 -.000003)"><path d="m61.736443.907233h4.527115v119.78777h-4.527115z" fill="url(#v)"/><rect fill="#1a1a1a" height="7.848551" ry="1.883652" transform="matrix(-.99998961 .00455763 .00455763 .99998961 0 0)" width="7.848551" x="-67.358154" y="120.43257"/></g><path d="m118.59453 13.670952h4.354075v30.763298h-4.354075z" fill="url(#x)" transform="matrix(.6124485 .79051049 -.79051049 .6124485 -.0108 -.000003)"/><rect fill="#1a1a1a" height="7.848551" ry="1.883652" transform="matrix(.66573351 .74618958 -.74618958 .66573351 -.0108 -.000003)" width="7.848551" x="113.52583" y="49.540634"/><path d="m40.194508 114.86483h4.354075v30.763298h-4.354075z" fill="url(#y)" transform="matrix(-.6124485 .79051049 .79051049 .6124485 0 -.000003)"/><rect fill="#1a1a1a" height="7.848551" ry="1.883652" transform="matrix(-.66573351 .74618958 .74618958 .66573351 0 -.000003)" width="7.848551" x="28.304754" y="145.06096"/><path d="m1.556223 5.363923h124.88755v93.504501h-124.88755z" fill="#7c7c7c"/><path d="m3.526711 19.30117h120.94658v78.079437h-120.94658z" fill="url(#u)"/><path d="m3.150129-19.625978h121.69975v12.766033h-121.69975z" fill="url(#t)" transform="scale(1 -1)"/><g transform="matrix(1.6776092 0 0 1.3748093 -83.681176 -26.459034)"><rect fill="url(#n)" height="43.752705" rx="1.998362" ry="2.00677" width="58.092529" x="58.984474" y="40.483578"/><rect fill="url(#o)" filter="url(#p)" height="32" rx="2.201577" transform="matrix(.90769573 0 0 .91151466 44.461344 -17.853363)" width="64" x="16" y="64"/><path clip-path="url(#r)" d="m18.1875 56c-1.219674 0-2.1875.967827-2.1875 2.1875v17.0625c9.640301 2.396967 20.509296 3.75 32 3.75s22.359699-1.353033 32-3.75v-17.0625c0-1.219674-.967827-2.1875-2.1875-2.1875z" fill="url(#q)" filter="url(#s)" transform="matrix(.90769573 0 0 .91151466 44.461344 -10.561245)"/><path d="m59.000875 82.333496v.911514c0 1.111738.878493 1.993925 1.985585 1.993925h54.12135c1.1071 0 1.98558-.882187 1.98558-1.993925v-.911514c0 1.11174-.87848 1.993937-1.98558 1.993937h-54.12135c-1.107092 0-1.985585-.882197-1.985585-1.993937z" fill="#fff"/></g><g transform="matrix(1.1314954 0 0 1.1314954 -8.455249 -5.671563)"><g filter="url(#j)" opacity=".8" transform="matrix(.50024927 0 0 .50024927 35.286255 29.326438)"><path d="m10 58c0 26.467 21.533 48 48 48s48-21.533 48-48-21.533-48-48-48-48 21.533-48 48z"/></g><path d="m40.288747 58.340895c0 13.240101 10.771867 24.011965 24.011967 24.011965 13.240096 0 24.011965-10.771864 24.011965-24.011965 0-13.240096-10.771869-24.011966-24.011965-24.011966-13.2401 0-24.011967 10.77187-24.011967 24.011966z" fill="url(#k)"/><path d="m90 58-48 32v-64z" fill="url(#l)" transform="matrix(.46176857 0 0 .46176857 37.518136 31.558318)"/><path d="m64.300714 58.340895c8.214401 0 15.684893-2.368873 21.265361-6.238032-2.702269-9.19335-11.209889-15.92686-21.265361-15.92686-10.055936 0-18.56356 6.733971-21.264906 15.92686 5.57955 3.869159 13.050041 6.238032 21.264906 6.238032z" fill="url(#m)" opacity=".5"/></g><path d="m69.8172 46.546616h58.180996v81.453445h-58.180996z" fill="url(#i)"/><path d="m75.6353 52.3647h46.5448v69.817215h-46.5448z" fill="url(#a)"/><path clip-path="url(#c)" d="m92.81509 1029.6319c1.071428 1.4286 10.71429 15.3572 11.78571 13.5715 1.07143-1.7858 26.42857-25.3572 25-26.7858-1.42857-1.4285-33.928567-41.78567-33.928567-41.78567z" fill="url(#b)" fill-rule="evenodd" filter="url(#d)" opacity=".68" transform="matrix(.69309305 0 0 .69309305 41.153912 -600.6251)"/><path d="m75.6353 52.3647v47.28063c14.171661-16.500095 33.53848-23.157342 46.54439-25.022283v-22.257813z" fill="url(#e)" fill-rule="evenodd"/><path d="m87.2715 64.0009h23.2724v46.5448h-23.2724z" fill="url(#f)"/><path d="m89.925598 66.798828h17.686728v41.164684h-17.686728z" fill="#535353"/><path d="m93.0896 69.819h11.6362v17.4543h-11.6362z" fill="url(#g)"/><path d="m93.0896-116.3638h11.636201v29.0905h-11.636201z" fill="url(#h)" transform="scale(1 -1)"/></svg>