<svg height="128" viewBox="0 0 33.866666 33.866668" width="128" xmlns="http://www.w3.org/2000/svg" xmlns:xlink="http://www.w3.org/1999/xlink"><linearGradient id="a" gradientUnits="userSpaceOnUse" x1="59.635429" x2="67.313499" xlink:href="#b" y1="141.069527" y2="58.193066"/><linearGradient id="b"><stop offset="0" stop-color="#fff"/><stop offset="1" stop-color="#fff" stop-opacity="0"/></linearGradient><filter id="c" color-interpolation-filters="sRGB" height="1.005726" width="1.009696" x="-.004848" y="-.002863"><feGaussianBlur stdDeviation=".12613919"/></filter><linearGradient id="d" gradientUnits="userSpaceOnUse" x1="66.564515" x2="71.956208" xlink:href="#b" y1="6.625786" y2="-3.096933"/><filter id="e" height="1.317541" width="1.244662" x="-.122331" y="-.15877"><feGaussianBlur stdDeviation=".27482165"/></filter><linearGradient id="f" gradientUnits="userSpaceOnUse" x1="13.95209181461" x2="22.12656932582" xlink:href="#b" y1="246.20529558737" y2="279.25595121367"/><linearGradient id="g" gradientUnits="userSpaceOnUse" x1="20.92404254383" x2="25.49981598117" y1="295.46050693227" y2="280.09887569218"><stop offset="0" stop-color="#5e5e5e"/><stop offset="1" stop-opacity="0"/></linearGradient><radialGradient id="h" cx="72.309822" cy="22.770975" gradientTransform="matrix(.34522779 .00166873 -.00010602 .02193446 -5.580806 264.171)" gradientUnits="userSpaceOnUse" r="35.712891" xlink:href="#b"/><linearGradient id="i" gradientUnits="userSpaceOnUse" x1="98.9077" x2="98.9077" y1="46.5466" y2="162.9086"><stop offset="0" stop-color="#99999c"/><stop offset=".5" stop-color="#9c9ca1"/><stop offset="1" stop-color="#cdcdd1"/></linearGradient><linearGradient id="j" gradientUnits="userSpaceOnUse" x1="78.61085034347" x2="120.34349451992" y1="88.85241574791" y2="111.54715161013"><stop offset="0" stop-color="#fff"/><stop offset="1" stop-color="#ccc"/></linearGradient><linearGradient id="k" gradientUnits="userSpaceOnUse" x1="88.38102" x2="130.48599" y1="1008.9966" y2="1015.6953"><stop offset="0" stop-color="#7b7b7b"/><stop offset="1" stop-color="#797979" stop-opacity="0"/></linearGradient><clipPath id="l"><path d="m41.355614 933.74432h83.943993v117.52166h-83.943993z"/></clipPath><filter id="m" color-interpolation-filters="sRGB" height="1.073732" width="1.13754" x="-.06877" y="-.036866"><feGaussianBlur stdDeviation="1.0557314"/></filter><linearGradient id="n" gradientUnits="userSpaceOnUse" x1="100.83452" x2="116.42799" y1="37.992622" y2="80.92411"><stop offset="0" stop-color="#fff" stop-opacity=".683453"/><stop offset="1" stop-color="#fff" stop-opacity="0"/></linearGradient><linearGradient id="o" gradientTransform="matrix(.58291629 0 0 .66676377 62.177025 -566.68964)" gradientUnits="userSpaceOnUse" x1="63.011921" x2="63.011921" y1="945.89801" y2="1033.1569"><stop offset="0" stop-color="#545454" stop-opacity=".988"/><stop offset="1" stop-color="#ebebeb"/></linearGradient><linearGradient id="p" gradientTransform="matrix(.48045402 0 0 .66178602 128.73476 -578.51587)" gradientUnits="userSpaceOnUse" x1="-60.535713" x2="-60.357143" y1="979.50507" y2="1009.505"><stop offset="0" stop-color="#979797"/><stop offset=".148461" stop-color="#f6f6f6"/><stop offset=".28399727" stop-color="#e2e2e2"/><stop offset=".41198727" stop-color="#dedede"/><stop offset=".41198727" stop-color="#f6f6f6"/><stop offset="1" stop-color="#6b6b6b"/></linearGradient><linearGradient id="q" gradientTransform="matrix(.480454 0 0 .58309338 128.76683 499.76645)" gradientUnits="userSpaceOnUse" x1="-61.078979" x2="-60.6413" y1="-1056.658" y2="-1010.9131"><stop offset="0" stop-color="#777"/><stop offset=".18176934" stop-color="#a8a8a8"/><stop offset=".22864534" stop-color="#cdcdcd"/><stop offset=".34561315" stop-color="#f7f7f7"/><stop offset="1" stop-color="#fff"/></linearGradient><g transform="translate(0 -263.13332)"><path d="m29.300781 5.3229296c-.304465.1057656-.61943.17845-.939453.2167969-13.62291 1.5643406-23.84905 13.0152285-23.871094 26.7265625.000002.002-.000002.0039 0 .0059-.000002.0013.000002.0026 0 .0039-1.9586684 15.841977 13.825294 27.702387 29.798819 26.742187 2.266784.260505 3.978015 2.179234 3.978516 4.460937v47.583987h4.857422v-83.644567c.000584-2.479646 2.010588-4.489651 4.490234-4.490235h4.210292c2.479647.000583 4.489652 2.010588 4.490235 4.490235v83.644537h4.857422v-96.923834c.000584-2.479646 2.010588-4.4896509 4.490234-4.4902349h3.248047v-4.3261715h-3.248047-11.837891-14.138017z" style="opacity:.56;fill:none;stroke-width:1.133858;stroke-linecap:round;stroke-linejoin:bevel;stroke:url(#a);filter:url(#c)" transform="matrix(.2678093 0 0 .2678093 7.573852 264.51422)"/><path d="m15.032238 264.73723v.066c-4.24608.4876-7.4530476 4.07938-7.4583857 8.35337.00294 4.27577 5.1113797 7.87026 9.3592427 8.35805v13.94596h3.078745v-23.60332h1.539372v23.60332h3.078745v-27.15963h1.623071c.248954 0 .449312-.20036.449312-.44931v-2.6645c0-.24895-.200358-.44983-.449312-.44983h-1.623071-3.170296-3.257127z" fill="url(#h)" opacity=".74"/><path d="m15.806959 264.72554v.066c-4.24608.4876-8.2277686 4.09107-8.2331067 8.36506.048868 6.23947 5.0196287 8.10353 9.3592427 8.35805v13.94596h3.078745v-23.60332h1.539372v23.60332h3.078745v-27.15963h1.856932c.248954 0 .449312-.20036.449312-.44931v-2.6645c0-.24895-.200358-.44983-.449312-.44983h-1.623071-3.404157-3.257127z"/><path d="m15.420874 265.93976c-.08154.0283-.165887.0478-.251593.0581-3.648342.41895-6.3869986 3.48559-6.3929023 7.15762v.002.00091c.00384 3.67359 4.3305133 6.74269 7.9804023 7.1618.607069.0698 1.065354.58363 1.065483 1.19469v12.74343h1.300862v-22.40079c.000149-.66408.538449-1.20238 1.202527-1.20254h1.127556c.664077.00016 1.202377.53846 1.202526 1.20254v22.40078h1.300864v-25.9571c.00016-.66407.538456-1.20236 1.202525-1.20252h.869857v-1.15859h-.869857-3.170296-3.786294z" fill="url(#g)"/><path d="m15.420874 265.93976c-.08154.0283-.165887.0478-.251593.0581-3.648342.41895-6.3869986 3.48559-6.3929023 7.15762v.002.00091c-.4820925 4.3804 3.8364713 7.4613 7.9804023 7.1618.345495.0403.656623.22821.853119.51523.509085-.0623 1.013954-.13907 1.513226-.23015v-8.74775c.000149-.66408.538449-1.20238 1.202527-1.20254l1.335051.0117c.664077.00016 1.202376.53846 1.202525 1.20254v7.39875c.446192-.18438.88022-.38158 1.300864-.59106v-10.36401c.00016-.66407.538456-1.20236 1.202526-1.20252h.869857v-1.15859h-.869857-3.170296l-3.993789-.0117z" fill="url(#f)"/><path d="m71.956208.65957199-3.535534 4.15425241-1.85615-.265166z" fill="url(#d)" fill-rule="evenodd" filter="url(#e)" transform="matrix(.2678093 0 0 .2678093 7.573852 264.51422)"/><g transform="matrix(.26458334 0 0 .26458334 0 263.13332)"><path d="m69.8172 46.546616h58.180996v81.453445h-58.180996z" fill="url(#i)"/><path d="m75.6353 52.3647h46.5448v69.817215h-46.5448z" fill="url(#j)"/><path clip-path="url(#l)" d="m92.81509 1029.6319c1.071428 1.4286 10.71429 15.3572 11.78571 13.5715 1.07143-1.7858 26.42857-25.3572 25-26.7858-1.42857-1.4285-33.928567-41.78567-33.928567-41.78567z" fill="url(#k)" fill-rule="evenodd" filter="url(#m)" opacity=".68" transform="matrix(.69309305 0 0 .69309305 41.153912 -600.6251)"/><path d="m75.6353 52.3647v47.28063c14.171661-16.500095 33.53848-23.157342 46.54439-25.022283v-22.257813z" fill="url(#n)" fill-rule="evenodd"/><path d="m87.2715 64.0009h23.2724v46.5448h-23.2724z" fill="url(#o)"/><path d="m89.925598 66.798828h17.686728v41.164684h-17.686728z" fill="#535353"/><path d="m93.0896 69.819h11.6362v17.4543h-11.6362z" fill="url(#p)"/><path d="m93.0896-116.3638h11.636201v29.0905h-11.636201z" fill="url(#q)" transform="scale(1 -1)"/></g></g></svg>