<svg enable-background="new 0 0 128 128" height="128" viewBox="0 0 128 128" width="128" xmlns="http://www.w3.org/2000/svg" xmlns:xlink="http://www.w3.org/1999/xlink"><radialGradient id="a" cx="102" cy="112.3047" gradientTransform="matrix(.94807 0 0 .9510679 3.32352 5.274458)" gradientUnits="userSpaceOnUse" r="139.55859"><stop offset="0" stop-color="#ececec"/><stop offset=".2363" stop-color="#fafafa"/><stop offset=".2722" stop-color="#fff"/><stop offset=".5313" stop-color="#fafafa"/><stop offset=".8449" stop-color="#ebecec"/><stop offset="1" stop-color="#e1e2e3"/></radialGradient><radialGradient id="b" cx="100.8098464" cy="112.93460525694" gradientUnits="userSpaceOnUse" r="135.1875556917"><stop offset="0" stop-color="#f1f1f1"/><stop offset=".24349999" stop-color="#fcfcfc"/><stop offset=".2722" stop-color="#fff"/></radialGradient><filter id="c"><feGaussianBlur stdDeviation="1.0394514"/></filter><filter id="d"><feGaussianBlur stdDeviation=".50063244"/></filter><filter id="e" color-interpolation-filters="sRGB" height="1.12069" width="1.119315" x="-.059658" y="-.060345"><feGaussianBlur stdDeviation=".82504758"/></filter><linearGradient id="f" gradientUnits="userSpaceOnUse" x1="24.78186103866" x2="24.78186103866" xlink:href="#g" y1="297.65902223726" y2="279.82874994228"/><linearGradient id="g"><stop offset="0" stop-color="#525252"/><stop offset="1" stop-color="#d8d8d8"/></linearGradient><linearGradient id="h" gradientUnits="userSpaceOnUse" x1="15.89730006536" x2="32.98717156934" y1="287.61887653191" y2="287.61887653191"><stop offset="0" stop-color="#ebebeb"/><stop offset=".3164545" stop-color="#cacaca"/><stop offset=".58694273" stop-color="#c7c7c7" stop-opacity=".955882"/><stop offset=".84601915" stop-color="#cacaca"/><stop offset="1" stop-color="#dedede"/></linearGradient><filter id="i" color-interpolation-filters="sRGB" height="1.024" width="1.024" x="-.012" y="-.012"><feGaussianBlur stdDeviation=".12785668"/></filter><linearGradient id="j" gradientUnits="userSpaceOnUse" x1="24.70107317233" x2="24.73322324036" y1="281.36441616453" y2="294.21849625397"><stop offset="0" stop-color="#171a1c"/><stop offset="1" stop-color="#8ca0ac"/></linearGradient><radialGradient id="k" cx="63.02887" cy="288.18738" gradientUnits="userSpaceOnUse" r="11.437257"><stop offset="0" stop-color="#7cb5fc"/><stop offset="1" stop-color="#0d5bab"/></radialGradient><filter id="l" color-interpolation-filters="sRGB" height="1.024" width="1.024" x="-.012" y="-.012"><feGaussianBlur stdDeviation=".11169196"/></filter><filter id="m" color-interpolation-filters="sRGB" height="1.023839" width="1.024163" x="-.012082" y="-.01192"><feGaussianBlur stdDeviation=".087289468"/></filter><linearGradient id="n" gradientTransform="matrix(.40992622 0 0 .43732811 -1.243719 164.52807)" gradientUnits="userSpaceOnUse" x1="63.499996" x2="63.499996" y1="269.89706" y2="286.49451"><stop offset="0" stop-color="#e3f3fd"/><stop offset="1" stop-color="#a3d8f9" stop-opacity="0"/></linearGradient><linearGradient id="o" gradientUnits="userSpaceOnUse" x1="24.47019840527" x2="24.66952387286" y1="278.72476318612" y2="284.19902914324"><stop offset="0" stop-color="#fcfcfc"/><stop offset="1" stop-color="#fcfcfc" stop-opacity="0"/></linearGradient><radialGradient id="p" cx="67.73333" cy="277.9501" gradientTransform="matrix(-.48115879 0 0 -.48115879 54.943559 422.86662)" gradientUnits="userSpaceOnUse" r="7.574691"><stop offset="0" stop-color="#bfbfbf"/><stop offset="1" stop-color="#dfdfdf" stop-opacity="0"/></radialGradient><filter id="q" color-interpolation-filters="sRGB" height="1.047739" width="1.048264" x="-.024132" y="-.02387"><feGaussianBlur stdDeviation=".9480859"/></filter><radialGradient id="r" cx="21.27340907379" cy="276.88302469588" gradientUnits="userSpaceOnUse" r="6.79498116803"><stop offset="0" stop-color="#e10000"/><stop offset="1" stop-color="#851400"/></radialGradient><radialGradient id="s" cx="21.27340907379" cy="276.88302469588" gradientUnits="userSpaceOnUse" r="6.79498116803"><stop offset="0" stop-color="#ffbfbf"/><stop offset="1" stop-color="#ffbfbf" stop-opacity="0"/></radialGradient><linearGradient id="t" gradientUnits="userSpaceOnUse" x1="16.52645280471" x2="17.47584234674" xlink:href="#g" y1="277.83243853154" y2="281.63001464096"/><radialGradient id="u" cx="17.52717078726" cy="278.6823772404" gradientUnits="userSpaceOnUse" r="2.42715944662"><stop offset="0" stop-color="#e8e8e8"/><stop offset="1" stop-color="#c7c7c7"/></radialGradient><filter id="v" color-interpolation-filters="sRGB" height="1.08803" width="1.060909" x="-.030454" y="-.044015"><feGaussianBlur stdDeviation=".61981931"/></filter><path d="m15.566406 10.927734.019532 56.699219-.019532 56.699217h.041016 61.683594 35.142574v-34.941404-43.515625-34.941407h-35.142574-61.683594z" filter="url(#c)" opacity=".306849" stroke-width="1.006155"/><path d="m15.566406 9.9589844.021485 57.4277346-.021485 56.939451h.041016 61.683594 35.142574v-34.941404-43.515625-35.9101566z" filter="url(#c)" opacity=".306849" stroke-width="1.006155"/><path d="m15.566406 9.9277344.019532 57.1992186-.019532 57.199217h.041016 61.683594 35.142574v-34.941404-44.515625-34.9414066h-35.142574-61.683594z" filter="url(#c)" opacity=".553425" stroke-width="1.006155"/><path d="m24.905735 10.673272.01426 110.189918 58.676001-.0001c.53 0 1.039-.211 1.414-.586l31.484-31.765934c.375-.375.586-.884.586-1.414l.0812-76.423884z" filter="url(#d)" opacity=".89589" transform="matrix(1.0090419 0 0 1.003276 -7.641977 .929762)"/><path d="m17.488281 11.638672.007813 55.27539-.007813 55.275388h.015625 59.25586 33.818354l-.05859-55.275388.05859-55.27539h-33.818354-59.25586z" fill="url(#b)"/><path d="m24.066406 17.511719c-.522387 0-.947265.427133-.947265.951172l.162109 48.36914-.162109 48.369139c0 .52404.424878.95117.947265.95117h.322266 52.099609c.025634 0 .048754-.01352.074219-.01562l27.34961-.00781c.52333 0 .94727-.42714.94727-.95118l.26562-26.374996.15625-.152343c.17729-.17785.27734-.421743.27734-.671875l-.21289-21.146485.21289-21.146484c0-.250132-.10005-.495978-.27734-.673828l-.15625-.152344-.26562-26.375c0-.524039-.42394-.951172-.94727-.951172l-27.353516-.007812c-.024087-.001883-.046078-.013672-.070313-.013672h-52.099609z" fill="url(#a)"/><path d="m34.9086 69.819h58.181004v5.8181h-58.181004z" fill="#4c9ac3" fill-opacity=".508571" fill-rule="evenodd" opacity=".267606"/><path d="m34.9086 87.2733h58.181v5.8181h-58.181z" fill="#4c9ac3" fill-opacity=".508571" fill-rule="evenodd" opacity=".267606"/><path d="m34.9086 104.7276h58.181v5.8181h-58.181z" fill="#4c9ac3" fill-opacity=".508571" fill-rule="evenodd" opacity=".267606"/><g fill="#2d2d2d" fill-opacity=".72"><rect height="5.8181" rx=".949647" ry="1.081132" width="5.859896" x="23.230604" y="17.4561"/><rect height="5.8181" rx=".949647" ry="1.081132" width="5.859896" x="23.230604" y="34.9104"/><rect height="5.8181" rx=".949647" ry="1.081132" width="5.859896" x="23.230604" y="52.3647"/><rect height="5.8181" rx=".949647" ry="1.081132" width="5.859896" x="23.230604" y="69.818993"/><rect height="5.8181" rx=".949647" ry="1.081132" width="5.859896" x="23.230604" y="87.2733"/><rect height="5.8181" rx=".949647" ry="1.081132" width="5.859896" x="23.230604" y="104.7276"/></g><path d="m34.9086 17.456104h58.181v5.8181h-58.181z" fill="#4c9ac3" fill-opacity=".508571" fill-rule="evenodd" opacity=".267606"/><path d="m34.9086 34.910404h58.181v5.8181h-58.181z" fill="#4c9ac3" fill-opacity=".508571" fill-rule="evenodd" opacity=".267606"/><path d="m34.9086 52.364704h58.181v5.8181h-58.181z" fill="#4c9ac3" fill-opacity=".508571" fill-rule="evenodd" opacity=".267606"/><rect fill="#2d2d2d" fill-opacity=".72" height="5.8181" rx=".949647" ry="1.081132" width="5.859896" x="98.865906" y="17.4561"/><rect fill="#2d2d2d" fill-opacity=".72" height="5.8181" rx=".949647" ry="1.081132" width="5.859896" x="98.865906" y="34.9104"/><rect fill="#2d2d2d" fill-opacity=".72" height="5.8181" rx=".949647" ry="1.081132" width="5.859896" x="98.865906" y="52.3647"/><rect fill="#2d2d2d" fill-opacity=".72" height="5.8181" rx=".949647" ry="1.081132" width="5.859896" x="98.865906" y="69.818993"/><rect fill="#2d2d2d" fill-opacity=".72" height="5.8181" rx=".949647" ry="1.081132" width="5.859896" x="98.865906" y="87.2733"/><rect fill="#2d2d2d" fill-opacity=".72" height="5.8181" rx=".949647" ry="1.081132" width="5.859896" x="98.865906" y="104.7276"/><g transform="matrix(3.7795276 0 0 3.7795276 0 -1050.5196)"><ellipse cx="62.895233" cy="281.04938" fill="#5a5a5a" filter="url(#e)" rx="16.59565" ry="16.406662" transform="matrix(.56724291 0 0 .57053449 -11.234638 127.71394)"/><circle cx="24.442236" cy="287.61887" fill="url(#f)" r="9.213718"/><circle cx="24.442236" cy="287.61887" fill="url(#h)" r="8.544934"/><circle cx="62.895233" cy="281.23837" fill="#f0f3f4" filter="url(#i)" r="12.785668" transform="matrix(.51674441 0 0 .51674441 -8.058525 142.32474)"/><circle cx="24.442236" cy="287.65311" fill="url(#j)" r="5.987288"/><circle cx="24.442236" cy="287.65311" fill="#032668" r="5.60149"/><circle cx="62.895233" cy="281.23837" fill="url(#k)" filter="url(#l)" r="11.169196" transform="matrix(.4654912 0 0 .4654912 -4.834941 156.73912)"/><path d="m68.953232 290.2807-1.443425-4.75293c1.416094-1.66975 1.823029-3.9728 1.064875-6.02671l2.979396-3.96944-4.746321 1.45286c-1.669825-1.41586-3.972826-1.82258-6.026605-1.06431l-4.134512-3.21514 1.617929 4.98206c-1.41584 1.66963-1.822725 3.9724-1.064771 6.02613l-2.985837 3.96023 4.752927-1.44343c1.669699 1.41602 3.972653 1.82293 6.02652 1.06485zm-3.668966-5.25007c-1.890643 1.32376-4.496438.8642-5.820182-1.02645-1.323703-1.89056-.864252-4.49622 1.026222-5.82003 1.890562-1.32389 4.496384-.8645 5.820259 1.02606 1.323953 1.89065.864456 4.49661-1.026299 5.82042z" fill="#326fb6" filter="url(#m)" transform="matrix(.4811588 0 0 .4811588 -5.820358 152.33278)"/><g transform="matrix(.18503667 .18503667 -.18503667 .18503667 47.747426 208.85521)"><path d="m169.10577 279.56256-8.05633-4.30293c-.32979-4.01212-2.79507-7.53557-6.45124-9.22028l-1.28722-9.03467-4.28206 8.06c-4.01193.33019-7.53503 2.79568-9.21941 6.45183l-9.55581 1.19534 8.58112 4.37395c.32997 4.01164 2.79494 7.53465 6.45062 9.21939l1.26687 9.03107 4.30292-8.05632c4.01196-.32983 7.53525-2.79501 9.21999-6.45103zm-11.59628-2.05571c-.73704 4.17928-4.72253 6.96975-8.9018 6.23267-4.17909-.73701-6.96953-4.72218-6.23277-8.9013.73677-4.17934 4.72207-6.97007 8.90139-6.23328 4.17954.73681 6.97031 4.72243 6.23318 8.90191z" fill="#dbe8f9"/><path d="m566.44336 16.882812a31.567267 31.567267 0 0 0 -31.56836 31.56836 31.567267 31.567267 0 0 0 31.56836 31.566406 31.567267 31.567267 0 0 0 31.56641-31.566406 31.567267 31.567267 0 0 0 -31.56641-31.56836zm0 2.525391a29.041884 29.041884 0 0 1 29.04102 29.042969 29.041884 29.041884 0 0 1 -29.04102 29.041016 29.041884 29.041884 0 0 1 -29.04297-29.041016 29.041884 29.041884 0 0 1 29.04297-29.042969z" fill="#f7fcfe" transform="matrix(.26458333 0 0 .26458333 0 263.13332)"/></g><ellipse cx="24.538687" cy="287.17087" fill="url(#n)" rx="4.388761" ry="4.331479"/><path d="m24.442318 279.18131a7.0127417 3.6402806 0 0 0 -2.256567.1975 8.5449345 8.5449345 0 0 0 -4.750421 3.35551 7.0127417 3.6402806 0 0 0 -.006.0874 7.0127417 3.6402806 0 0 0 .925706 1.79838 6.7938567 6.7938567 0 0 1 6.087206-3.79508 6.7938567 6.7938567 0 0 1 6.091722 3.79452 7.0127417 3.6402806 0 0 0 .92091-1.79782 7.0127417 3.6402806 0 0 0 -.0076-.0786 8.5449345 8.5449345 0 0 0 -4.837599-3.37892 7.0127417 3.6402806 0 0 0 -2.167413-.18284z" fill="url(#o)"/><path d="m18.559625 293.66759 7.289257-4.95338-1.115658-1.11566z" fill="url(#p)"/><g transform="matrix(.73137237 0 0 .73137237 12.049639 82.882917)"><path d="m285.0332 23.582031-57.25586 38.908203 10.08985 10.091797-47.125 46.326169 57.25781-38.9082-.77734-.777344z" fill="#4a2828" filter="url(#q)" transform="matrix(.23734813 0 0 .23734813 -39.487706 263.59154)"/><path d="m28.345842 268.42042-13.589964 9.23498 4.354979 4.35499z" fill="url(#r)"/><path d="m5.5208237 291.24544 9.2349853-13.58997 4.354978 4.35498z" fill="#e8e8e8"/><path d="m26.656733 269.80571-11.593498 7.87909 1.774854 1.7731z" fill="url(#s)"/><circle cx="16.933331" cy="279.83292" fill="url(#t)" r="2.598824"/><circle cx="16.933331" cy="279.83292" fill="url(#u)" r="2.427159"/><circle cx="16.933331" cy="279.83292" fill="#555" r="1.1984"/><path d="m278.68164 26.181641-48.8457 33.197265.60156.59961 44.91797-30.527344z" fill="#fefefe" filter="url(#v)" transform="matrix(.23734813 0 0 .23734813 -39.487706 263.59154)"/></g></g></svg>