<svg height="128" viewBox="0 0 128 128" width="128" xmlns="http://www.w3.org/2000/svg" xmlns:xlink="http://www.w3.org/1999/xlink"><radialGradient id="a" cx="8" cy="8.201889" gradientTransform="matrix(2.5700832 0 0 2.5608174 -7.684727 916.13697)" gradientUnits="userSpaceOnUse" r="56"><stop offset=".0765" stop-color="#f3c300"/><stop offset=".1887" stop-color="#f7d21f"/><stop offset=".3467" stop-color="#fde446"/><stop offset=".4294" stop-color="#ffeb55"/><stop offset=".6882" stop-color="#ffeb55"/><stop offset=".7281" stop-color="#fee951"/><stop offset=".7641" stop-color="#fde446"/><stop offset=".7987" stop-color="#fadb34"/><stop offset=".8322" stop-color="#f7cf1a"/><stop offset=".8588" stop-color="#f3c300"/><stop offset=".9208" stop-color="#fbd400"/><stop offset=".9706" stop-color="#fd0"/></radialGradient><linearGradient id="b" gradientUnits="userSpaceOnUse" x1="69.9087669366" x2="98.52056150516" y1="930.15858845732" y2="975.93744654002"><stop offset="0" stop-color="#fff" stop-opacity=".462094"/><stop offset=".5" stop-color="#fff"/><stop offset="1" stop-color="#fff" stop-opacity=".350181"/></linearGradient><filter id="c" color-interpolation-filters="sRGB" height="1.095956" width="1.096044" x="-.048022" y="-.047978"><feGaussianBlur stdDeviation="2.0935631"/></filter><linearGradient id="d" gradientTransform="matrix(0 .27744933 -.27744933 0 -41.945427 -266.49343)" gradientUnits="userSpaceOnUse" x1="9.978035" x2="-77.65287" y1="-367.08105" y2="-390.56168"><stop offset="0" stop-color="#06f"/><stop offset="1" stop-color="#002049"/></linearGradient><radialGradient id="e" cx="341.08624" cy="77.172691" fx="341.84244" fy="66.635597" gradientTransform="matrix(.457792 -.00000004 -.00000021 1.9108522 -121.47994 -83.798392)" gradientUnits="userSpaceOnUse" r="36"><stop offset="0" stop-color="#fff"/><stop offset="1" stop-color="#fff" stop-opacity="0"/></radialGradient><filter id="f"><feGaussianBlur stdDeviation=".7474095"/></filter><radialGradient id="g" cx="64.59356239681" cy="-279.8093604" fx="66.31020502472" fy="-285.85364476231" gradientUnits="userSpaceOnUse" r="8.5117968"><stop offset="0" stop-color="#0081ec"/><stop offset="1" stop-color="#0057ae"/></radialGradient><linearGradient id="h" gradientUnits="userSpaceOnUse" x1="15.72385767025" x2="19.32864173693" y1="275.53130534944" y2="289.98930080504"><stop offset="0" stop-color="#a4c0e4"/><stop offset="1" stop-color="#a4c0e4" stop-opacity="0"/></linearGradient><linearGradient id="i" gradientUnits="userSpaceOnUse" x1="17.84904964239" x2="14.91478132389" xlink:href="#j" y1="289.42679140272" y2="282.30591446463"/><linearGradient id="j"><stop offset="0" stop-color="#dce7f5"/><stop offset="1" stop-color="#dce7f5" stop-opacity="0"/></linearGradient><radialGradient id="k" cx="33.015652" cy="97.619926" gradientTransform="matrix(.92468512 0 0 .78724011 2.682504 17.471741)" gradientUnits="userSpaceOnUse" r="27.015594"><stop offset="0" stop-color="#00438a"/><stop offset="1" stop-color="#00438a" stop-opacity="0"/></radialGradient><filter id="l"><feGaussianBlur stdDeviation="1.0003119"/></filter><linearGradient id="m" gradientUnits="userSpaceOnUse" x1="41.246826" x2="38.737919" xlink:href="#j" y1="58.851654" y2="104.69202"/><filter id="n"><feGaussianBlur stdDeviation=".21668441"/></filter><radialGradient id="o" cx="36.596191" cy="51.279228" gradientTransform="matrix(1 0 0 -.62257145 0 154.73095)" gradientUnits="userSpaceOnUse" r="34.265625"><stop offset="0" stop-color="#00bfea"/><stop offset="1" stop-color="#00bfea" stop-opacity="0"/></radialGradient><filter id="p"><feGaussianBlur stdDeviation=".42709114"/></filter><g transform="translate(0 -924.36216)"><g fill="none" stroke-linecap="round" stroke-linejoin="round"><path d="m11.689634 935.95837h104.83294v104.85813h-104.83294z" opacity=".15" stroke="#787878" stroke-width="15"/><path d="m11.731468 936.00018h104.63053v104.72578h-104.63053z" filter="url(#c)" opacity=".534" stroke="#737373" stroke-width="8"/><path d="m11.6362 936.00018h104.7258v104.72579h-104.7258z" stroke="#e3ad00" stroke-width="5"/></g><path d="m11.6362 936.00018h104.7258v104.72578h-104.7258z" fill="#fff"/><path d="m14.625873 938.80127h98.851364v98.991356h-98.851364z" fill="url(#a)"/><path d="m11.6362 936.00018h104.7258v23.272377h-104.7258z" fill="url(#b)"/><path d="m62.255927 1018.1989v-2.6404z" fill="#fff" fill-opacity=".756881"/><path d="m103.14946 932.62119v-2.6404z" fill="#fff" fill-opacity=".756881"/><g transform="matrix(3.7795276 0 0 3.7795276 0 -70.157486)"><circle cx="64.594421" cy="-279.8118" fill="url(#d)" r="9.988176" stroke-width=".277449" transform="matrix(-.96592583 .25881905 -.25881905 -.96592583 0 0)"/><path d="m35.65625 56c-2.96797.02905-5.970165.415282-8.96875 1.21875-12.253354 3.283276-21.3139436 12.535765-24.9375 23.78125l4.21875.953432c3.4687891-9.435484 11.308466-17.108449 21.75-19.90625 16.129694-4.321938 32.691323 4.511363 38.3125 19.90625l4.25-.953432c-4.87952-15.242985-19.160015-25.151367-34.625-25z" fill="url(#e)" filter="url(#f)" transform="matrix(.27750617 0 0 .27750617 .036988 261.46515)"/><circle cx="64.593559" cy="-279.80936" fill="url(#g)" r="8.511797" stroke-width=".236439" transform="matrix(-.96592583 .25881905 -.25881905 -.96592583 0 0)"/><path d="m9.944519 278.50599c-.699711.007-1.4065691.10067-2.1134979.29009-4.2805178 1.14696-6.9130476 5.37997-6.158153 9.66407 2.0956738.37683 4.3759117.58846 6.7631937.58846 3.7033822 0 7.1515842-.50171 10.0453322-1.35926.0783-.94684.003-1.92262-.256935-2.8926-1.022874-3.81741-4.5015-6.32774-8.27994-6.29076z" fill="url(#h)" stroke-width=".264583"/><path d="m9.878214 278.50599c3.65891.13221 6.968265 2.56412 7.964986 6.19131.262409.95493.33599 1.91899.256935 2.85115-2.921629.84425-6.405726 1.3344-10.1447904 1.3344-2.208253 0-4.3241355-.17439-6.2907649-.48901.00374.0222.00437.0441.00829.0663 2.0956739.37683 4.375912.58846 6.763194.58846 3.7033823 0 7.1515843-.50171 10.0453323-1.35926.0783-.94684.003-1.92262-.256935-2.8926-1.022875-3.81741-4.501501-6.32774-8.279941-6.29076-.02216.00022-.04413-.0004-.0663 0z" fill="url(#i)" stroke-width=".264583"/><path d="m36.565345 72.0625-19.1875 16.625 19.1875 16.65625v-11.09375c19.485696 0 20.853434 12.75167 19.965905 15.9375 1.172916-3.48673 3.87556-25.328288-19.965905-27.03125z" style="fill-opacity:.337017;stroke-width:3.69874;stroke-linecap:round;stroke-linejoin:round;stroke:url(#k);filter:url(#l)" transform="matrix(.28682553 0 0 .28682553 -.290047 261.28699)"/><path d="m9.323581 291.58462-5.7434073-5.34279 5.7434073-5.34278v3.56185c8.310997.59365 6.521471 8.94923 6.521471 8.94923s.626933-5.38737-6.521471-5.38737z" fill="#fff" stroke-width=".264583"/><path d="m35.6875 60c-2.638196.02582-5.30334.379556-7.96875 1.09375-13.767698 3.689042-23.0030689 15.854852-23.65625 29.375 1.8891578-16.719305 14.962914-29.064922 31.625-29.382014 14.243728-.271069 27.3621 9.658327 31.21875 23.382014.612466 2.179429.965237 4.366021 1.0625 6.53125-.07065-2.411989-.411079-4.850112-1.0625-7.28125-3.85665-14.39321-16.972491-23.858189-31.21875-23.71875z" fill="url(#m)" filter="url(#n)" transform="matrix(.26522328 0 0 .26522328 .479363 262.59259)"/><path d="m35.65625 127.99829c-2.96797-.029-5.970165-.41528-8.96875-1.21875-12.253354-3.28328-21.3139436-12.53576-24.9375-23.78125l4.21875-.95343c3.4687891 9.43548 11.308466 17.10845 21.75 19.90625 16.129694 4.32194 32.691323-4.51136 38.3125-19.90625l4.25.95343c-4.87952 15.24299-19.160015 25.15137-34.625 25z" fill="url(#o)" filter="url(#p)" opacity=".813954" transform="matrix(.27750617 0 0 .27750617 .036988 261.46515)"/></g></g></svg>