<?xml version="1.0" encoding="UTF-8" standalone="no"?>
<!-- Created with Inkscape (http://www.inkscape.org/) -->

<svg
   xmlns:dc="http://purl.org/dc/elements/1.1/"
   xmlns:cc="http://creativecommons.org/ns#"
   xmlns:rdf="http://www.w3.org/1999/02/22-rdf-syntax-ns#"
   xmlns:svg="http://www.w3.org/2000/svg"
   xmlns="http://www.w3.org/2000/svg"
   xmlns:xlink="http://www.w3.org/1999/xlink"
   xmlns:sodipodi="http://sodipodi.sourceforge.net/DTD/sodipodi-0.dtd"
   xmlns:inkscape="http://www.inkscape.org/namespaces/inkscape"
   width="128"
   height="128"
   viewBox="0 0 33.866666 33.866668"
   version="1.1"
   id="svg2368"
   inkscape:version="0.92.4 (unknown)"
   sodipodi:docname="lc_removetableof.svg"
   inkscape:export-filename="/home/rizmut/Dokumen/Rizmut/Github/libreoffice-style-karasa-jaga/build/images_karasa_jaga/cmd/lc_removetableof.png"
   inkscape:export-xdpi="16.500002"
   inkscape:export-ydpi="16.500002">
  <defs
     id="defs2362">
    <linearGradient
       id="linearGradient4118">
      <stop
         id="stop4120"
         offset="0"
         style="stop-color:#e0f4b8;stop-opacity:1" />
      <stop
         id="stop4122"
         offset="1"
         style="stop-color:#92c441;stop-opacity:0.21459228" />
    </linearGradient>
    <linearGradient
       id="linearGradient4112">
      <stop
         id="stop4114"
         offset="0"
         style="stop-color:#bbf10e;stop-opacity:1" />
      <stop
         id="stop4116"
         offset="1"
         style="stop-color:#5f9207;stop-opacity:1" />
    </linearGradient>
    <linearGradient
       id="linearGradient4105">
      <stop
         id="stop4107"
         offset="0"
         style="stop-color:#033a13;stop-opacity:1" />
      <stop
         id="stop4109"
         offset="1"
         style="stop-color:#398c37;stop-opacity:1" />
    </linearGradient>
    <linearGradient
       id="linearGradient3783">
      <stop
         style="stop-color:#ffbfbf;stop-opacity:1;"
         offset="0"
         id="stop3785" />
      <stop
         style="stop-color:#ffbfbf;stop-opacity:0;"
         offset="1"
         id="stop3787" />
    </linearGradient>
    <linearGradient
       id="linearGradient3763">
      <stop
         style="stop-color:#ff2222;stop-opacity:1;"
         offset="0"
         id="stop3765" />
      <stop
         style="stop-color:#cd1f00;stop-opacity:1;"
         offset="1"
         id="stop3767" />
    </linearGradient>
    <linearGradient
       id="linearGradient3773">
      <stop
         style="stop-color:#590000;stop-opacity:1"
         offset="0"
         id="stop3775" />
      <stop
         style="stop-color:#bf0000;stop-opacity:1"
         offset="1"
         id="stop3777" />
    </linearGradient>
    <filter
       id="f">
      <feGaussianBlur
         stdDeviation="1.0394514"
         id="feGaussianBlur3125" />
    </filter>
    <filter
       id="filter3725">
      <feGaussianBlur
         stdDeviation="1.0394514"
         id="feGaussianBlur3723" />
    </filter>
    <filter
       id="g">
      <feGaussianBlur
         stdDeviation=".50063244"
         id="feGaussianBlur3128" />
    </filter>
    <filter
       id="filter3731">
      <feGaussianBlur
         stdDeviation="1.0394514"
         id="feGaussianBlur3729" />
    </filter>
    <radialGradient
       gradientTransform="matrix(0.26458333,0,0,0.26458333,-4.9698531e-8,263.13332)"
       id="e"
       cx="100.80984"
       cy="112.93461"
       gradientUnits="userSpaceOnUse"
       r="135.18756">
      <stop
         offset="0"
         stop-color="#3e3e3e"
         id="stop3110" />
      <stop
         offset=".0151"
         stop-color="#505050"
         id="stop3112" />
      <stop
         offset=".0558"
         stop-color="#7e7e7e"
         id="stop3114" />
      <stop
         offset=".1357"
         stop-color="#c6c6c6"
         id="stop3116" />
      <stop
         offset=".20990001"
         stop-color="#f1f1f1"
         id="stop3118" />
      <stop
         offset=".24349999"
         stop-color="#fcfcfc"
         id="stop3120" />
      <stop
         offset=".2722"
         stop-color="#fff"
         id="stop3122" />
    </radialGradient>
    <radialGradient
       id="d"
       cx="102"
       cy="112.3047"
       gradientTransform="matrix(0.25084352,0,0,0.25163671,0.87934793,264.52886)"
       gradientUnits="userSpaceOnUse"
       r="139.55859">
      <stop
         offset="0"
         stop-color="#535557"
         id="stop3093" />
      <stop
         offset=".11366145"
         stop-color="#898a8c"
         id="stop3095" />
      <stop
         offset=".20296688"
         stop-color="#ececec"
         id="stop3097" />
      <stop
         offset=".2363"
         stop-color="#fafafa"
         id="stop3099" />
      <stop
         offset=".2722"
         stop-color="#fff"
         id="stop3101" />
      <stop
         offset=".5313"
         stop-color="#fafafa"
         id="stop3103" />
      <stop
         offset=".8449"
         stop-color="#ebecec"
         id="stop3105" />
      <stop
         offset="1"
         stop-color="#e1e2e3"
         id="stop3107" />
    </radialGradient>
    <linearGradient
       id="a"
       gradientUnits="userSpaceOnUse"
       x1="88.591797"
       x2="71.262016"
       y1="96.592697"
       y2="79.262917">
      <stop
         offset="0"
         stop-color="#fff"
         id="stop3064" />
      <stop
         offset="1"
         stop-color="#555753"
         id="stop3066" />
    </linearGradient>
    <filter
       id="h">
      <feGaussianBlur
         stdDeviation=".40750996"
         id="feGaussianBlur3131" />
    </filter>
    <filter
       id="j">
      <feGaussianBlur
         stdDeviation=".90565481"
         id="feGaussianBlur3137" />
    </filter>
    <linearGradient
       id="b"
       gradientUnits="userSpaceOnUse"
       x1="85.219681"
       x2="61.336319"
       y1="93.219681"
       y2="69.336319">
      <stop
         offset="0"
         id="stop3069" />
      <stop
         offset="1"
         stop-color="#393b38"
         id="stop3071" />
    </linearGradient>
    <filter
       id="i">
      <feGaussianBlur
         stdDeviation=".4901192"
         id="feGaussianBlur3134" />
    </filter>
    <linearGradient
       id="c"
       gradientUnits="userSpaceOnUse"
       x1="96"
       x2="88.000198"
       y1="104"
       y2="96.000198">
      <stop
         offset="0"
         stop-color="#888a85"
         id="stop3074" />
      <stop
         offset=".0072"
         stop-color="#8c8e89"
         id="stop3076" />
      <stop
         offset=".0673"
         stop-color="#abaca9"
         id="stop3078" />
      <stop
         offset=".1347"
         stop-color="#c5c6c4"
         id="stop3080" />
      <stop
         offset=".2115"
         stop-color="#dbdbda"
         id="stop3082" />
      <stop
         offset=".3012"
         stop-color="#ebebeb"
         id="stop3084" />
      <stop
         offset=".4122"
         stop-color="#f7f7f6"
         id="stop3086" />
      <stop
         offset=".5679"
         stop-color="#fdfdfd"
         id="stop3088" />
      <stop
         offset="1"
         stop-color="#fff"
         id="stop3090" />
    </linearGradient>
    <radialGradient
       id="d-3"
       cx="84.903702"
       cy="-130.14005"
       gradientTransform="matrix(0.04899496,-0.04899496,0.04899496,0.04899496,27.763383,298.48358)"
       gradientUnits="userSpaceOnUse"
       r="57.039597"
       xlink:href="#e-6" />
    <linearGradient
       id="e-6">
      <stop
         offset="0"
         stop-color="#3a0b02"
         id="stop20" />
      <stop
         offset="1"
         stop-color="#a21d07"
         stop-opacity=".382353"
         id="stop22" />
    </linearGradient>
    <radialGradient
       id="f-7"
       cx="2.7207029"
       cy="-66.273438"
       gradientTransform="matrix(0.04899496,-0.04899496,0.04899496,0.04899496,27.763383,298.48358)"
       gradientUnits="userSpaceOnUse"
       r="57.039597"
       xlink:href="#e-6" />
    <radialGradient
       id="g-5"
       cx="51.991096"
       cy="-78.028419"
       gradientTransform="matrix(0.04899496,-0.04899496,0.04899496,0.04899496,27.763383,298.48358)"
       gradientUnits="userSpaceOnUse"
       r="57.039597"
       xlink:href="#e-6" />
    <linearGradient
       id="h-3"
       gradientTransform="scale(1.0975951,0.9110828)"
       gradientUnits="userSpaceOnUse"
       x1="26.091133"
       x2="31.500689"
       xlink:href="#i-5"
       y1="14.856744"
       y2="14.856744" />
    <linearGradient
       id="i-5">
      <stop
         offset="0"
         stop-color="#765c44"
         id="stop28" />
      <stop
         offset="1"
         stop-color="#765c44"
         stop-opacity="0"
         id="stop30" />
    </linearGradient>
    <filter
       id="j-6"
       height="1.277481"
       width="1.279832"
       x="-0.139916"
       y="-0.138741">
      <feGaussianBlur
         stdDeviation=".28784801"
         id="feGaussianBlur33" />
    </filter>
    <filter
       id="filter972"
       height="1.277481"
       width="1.279832"
       x="-0.139916"
       y="-0.138741">
      <feGaussianBlur
         stdDeviation=".28784801"
         id="feGaussianBlur970" />
    </filter>
    <linearGradient
       id="k"
       gradientUnits="userSpaceOnUse"
       x1="304.88663"
       x2="345.62039"
       xlink:href="#i-5"
       y1="385.86127"
       y2="384.62384" />
    <filter
       id="filter983"
       height="1.277481"
       width="1.279832"
       x="-0.139916"
       y="-0.138741">
      <feGaussianBlur
         stdDeviation=".28784801"
         id="feGaussianBlur981" />
    </filter>
    <linearGradient
       id="l"
       gradientUnits="userSpaceOnUse"
       spreadMethod="reflect"
       x1="88.606247"
       x2="91.575104"
       y1="13.510336"
       y2="13.510336">
      <stop
         offset="0"
         stop-color="#ff8787"
         id="stop37" />
      <stop
         offset="1"
         stop-color="#ff8787"
         stop-opacity="0"
         id="stop39" />
    </linearGradient>
    <filter
       id="filter990"
       height="1.277481"
       width="1.279832"
       x="-0.139916"
       y="-0.138741">
      <feGaussianBlur
         stdDeviation=".28784801"
         id="feGaussianBlur988" />
    </filter>
    <linearGradient
       id="m"
       gradientUnits="userSpaceOnUse"
       spreadMethod="reflect"
       x1="31.606251"
       x2="34.575108"
       y1="13.510336"
       y2="13.510336">
      <stop
         offset="0"
         stop-color="#fff"
         id="stop42" />
      <stop
         offset="1"
         stop-color="#790000"
         stop-opacity="0"
         id="stop44" />
    </linearGradient>
    <filter
       id="filter997"
       height="1.277481"
       width="1.279832"
       x="-0.139916"
       y="-0.138741">
      <feGaussianBlur
         stdDeviation=".28784801"
         id="feGaussianBlur995" />
    </filter>
    <filter
       id="filter1007"
       height="1.277481"
       width="1.279832"
       x="-0.139916"
       y="-0.138741">
      <feGaussianBlur
         stdDeviation=".28784801"
         id="feGaussianBlur1005" />
    </filter>
    <radialGradient
       id="n"
       cx="50.424522"
       cy="-81.945961"
       gradientTransform="matrix(0.04899496,-0.04899496,0.04899496,0.04899496,27.763382,298.48358)"
       gradientUnits="userSpaceOnUse"
       r="50.15279">
      <stop
         offset="0"
         stop-color="#db3424"
         id="stop47" />
      <stop
         offset="1"
         stop-color="#b32016"
         id="stop49" />
    </radialGradient>
    <linearGradient
       id="o"
       gradientTransform="matrix(0.04899496,-0.04899496,0.04899496,0.04899496,27.763383,298.48358)"
       gradientUnits="userSpaceOnUse"
       x1="50.06789"
       x2="59.441998"
       y1="-154.40843"
       y2="-71.617722">
      <stop
         offset="0"
         stop-color="#fff"
         id="stop52" />
      <stop
         offset="1"
         stop-color="#fcf3f3"
         stop-opacity="0"
         id="stop54" />
    </linearGradient>
    <linearGradient
       spreadMethod="reflect"
       y2="13.510336"
       x2="91.575104"
       y1="13.510336"
       x1="88.606247"
       gradientUnits="userSpaceOnUse"
       id="linearGradient1032"
       xlink:href="#l"
       inkscape:collect="always" />
    <linearGradient
       inkscape:collect="always"
       xlink:href="#i-5"
       id="linearGradient1026"
       gradientUnits="userSpaceOnUse"
       gradientTransform="scale(1.0975951,0.9110828)"
       x1="26.091133"
       y1="14.856744"
       x2="31.500689"
       y2="14.856744" />
    <linearGradient
       inkscape:collect="always"
       xlink:href="#l"
       id="linearGradient1028"
       gradientUnits="userSpaceOnUse"
       x1="88.606247"
       y1="13.510336"
       x2="91.575104"
       y2="13.510336"
       spreadMethod="reflect" />
  </defs>
  <sodipodi:namedview
     id="base"
     pagecolor="#ffffff"
     bordercolor="#666666"
     borderopacity="1.0"
     inkscape:pageopacity="0.0"
     inkscape:pageshadow="2"
     inkscape:zoom="0.9899495"
     inkscape:cx="-47.848578"
     inkscape:cy="11.434086"
     inkscape:document-units="mm"
     inkscape:current-layer="layer1"
     showgrid="true"
     units="px"
     inkscape:window-width="1366"
     inkscape:window-height="714"
     inkscape:window-x="0"
     inkscape:window-y="28"
     inkscape:window-maximized="1"
     inkscape:snap-page="true"
     inkscape:snap-global="true">
    <inkscape:grid
       type="xygrid"
       id="grid2303"
       spacingx="1.5393723"
       spacingy="1.5393723"
       empspacing="5" />
  </sodipodi:namedview>
  <metadata
     id="metadata2365">
    <rdf:RDF>
      <cc:Work
         rdf:about="">
        <dc:format>image/svg+xml</dc:format>
        <dc:type
           rdf:resource="http://purl.org/dc/dcmitype/StillImage" />
        <dc:title></dc:title>
      </cc:Work>
    </rdf:RDF>
  </metadata>
  <g
     inkscape:label="Layer 1"
     inkscape:groupmode="layer"
     id="layer1"
     transform="translate(0,-263.13332)">
    <g
       id="g3965">
      <path
         id="path3140"
         transform="matrix(0.26697567,0,0,0.26545011,-2.0219397,263.37932)"
         d="M 23,8.9687825 23.040816,122.99347 H 84.172 c 0.53,0 1.039,-0.211 1.414,-0.586 l 32.828,-32.828001 c 0.375,-0.375 0.586,-0.884 0.586,-1.414 V 8.9687825 Z"
         style="opacity:0.55342503;filter:url(#f)"
         inkscape:connector-curvature="0" />
      <path
         id="path3142"
         transform="matrix(0.26697567,0,0,0.26545011,-2.0219397,263.37932)"
         d="m 23,9 0.04082,113.99347 H 84.172 c 0.53,0 1.039,-0.211 1.414,-0.586 l 32.828,-32.828001 c 0.375,-0.375 0.586,-0.884 0.586,-1.414 V 9 Z"
         style="opacity:0.30684904;filter:url(#f)"
         inkscape:connector-curvature="0" />
      <path
         id="path3144"
         transform="matrix(0.26697567,0,0,0.26545011,-2.0219397,263.37932)"
         d="m 24.905735,10.673272 0.01426,110.189918 58.676001,-1e-4 c 0.53,0 1.039,-0.211 1.414,-0.586 L 116.494,88.511156 c 0.375,-0.375 0.586,-0.884 0.586,-1.414 l 0.0812,-76.423884 z"
         style="opacity:0.89589;filter:url(#g)"
         inkscape:connector-curvature="0" />
      <path
         id="path3146"
         transform="matrix(0.26697567,0,0,0.26545011,-2.0219397,263.37932)"
         d="M 23,9.9655172 23.040816,122.99347 H 84.172 c 0.53,0 1.039,-0.211 1.414,-0.586 l 32.828,-32.828001 c 0.375,-0.375 0.586,-0.884 0.586,-1.414 V 9.9655172 Z"
         style="opacity:0.30684904;filter:url(#f)"
         inkscape:connector-curvature="0" />
      <path
         id="path3148"
         d="m 4.6272855,266.21254 0.00381,29.24993 H 20.309273 c 0.135838,0 0.266292,-0.0541 0.362404,-0.15019 l 8.413705,-8.41371 c 0.09611,-0.0961 0.150188,-0.22657 0.150188,-0.3624 l 0.02167,-20.32363 z"
         style="fill:url(#e);stroke-width:0.26458332"
         inkscape:connector-curvature="0" />
      <path
         id="path3150"
         d="m 6.367689,267.76674 c -0.1382149,0 -0.2508435,0.11299 -0.2508435,0.25164 l 0.085175,25.59507 c 0,0.1389 0.1126289,0.25164 0.2508435,0.25164 h 13.78458 c 0.06597,0 0.130689,-0.0267 0.177346,-0.0737 l 7.44094,-7.20239 c 0.04691,-0.0471 0.0735,-0.11173 0.0735,-0.17791 l -0.185212,-18.38691 c 0,-0.13865 -0.112377,-0.25164 -0.250841,-0.25164 z"
         style="fill:url(#d);stroke-width:0.26458332"
         inkscape:connector-curvature="0" />
      <g
         id="g3940">
        <rect
           style="opacity:1;fill:#a2a2a2;fill-opacity:1;stroke:none;stroke-width:1.61093855;stroke-linecap:round;stroke-linejoin:bevel;stroke-miterlimit:4;stroke-dasharray:none;stroke-dashoffset:0;stroke-opacity:1"
           id="rect2970"
           width="15.393723"
           height="1.5394049"
           x="-27.708702"
           y="270.83066"
           rx="0"
           ry="0"
           transform="scale(-1,1)" />
        <rect
           transform="scale(-1,1)"
           ry="0"
           rx="0"
           y="273.90942"
           x="-24.82238"
           height="1.53935"
           width="12.507401"
           id="rect3114"
           style="opacity:1;fill:#a2a2a2;fill-opacity:1;stroke:none;stroke-width:1.45205462;stroke-linecap:round;stroke-linejoin:bevel;stroke-miterlimit:4;stroke-dasharray:none;stroke-dashoffset:0;stroke-opacity:1" />
        <rect
           style="opacity:1;fill:#a2a2a2;fill-opacity:1;stroke:none;stroke-width:2.30905867;stroke-linecap:square;stroke-linejoin:round;stroke-miterlimit:4;stroke-dasharray:none;stroke-dashoffset:0;stroke-opacity:1"
           id="rect2320"
           width="3.0787446"
           height="3.0787446"
           x="6.1574893"
           y="270.83066" />
      </g>
      <g
         transform="translate(-8.6491699e-7,7.6968324)"
         id="g3935">
        <rect
           y="278.52756"
           x="6.1574903"
           height="3.0787446"
           width="3.0787446"
           id="rect2322"
           style="opacity:1;fill:#a2a2a2;fill-opacity:1;stroke:none;stroke-width:2.30905867;stroke-linecap:square;stroke-linejoin:round;stroke-miterlimit:4;stroke-dasharray:none;stroke-dashoffset:0;stroke-opacity:1" />
        <rect
           transform="scale(-1,1)"
           ry="0"
           rx="0"
           y="278.52753"
           x="-27.708704"
           height="1.5394049"
           width="15.393723"
           id="rect2366"
           style="opacity:1;fill:#a2a2a2;fill-opacity:1;stroke:none;stroke-width:1.61093855;stroke-linecap:round;stroke-linejoin:bevel;stroke-miterlimit:4;stroke-dasharray:none;stroke-dashoffset:0;stroke-opacity:1" />
        <rect
           style="opacity:1;fill:#a2a2a2;fill-opacity:1;stroke:none;stroke-width:1.39508891;stroke-linecap:round;stroke-linejoin:bevel;stroke-miterlimit:4;stroke-dasharray:none;stroke-dashoffset:0;stroke-opacity:1"
           id="rect2368"
           width="11.545293"
           height="1.53935"
           x="-23.860271"
           y="281.60629"
           rx="0"
           ry="0"
           transform="scale(-1,1)" />
      </g>
      <g
         transform="translate(8.8757323e-8,-7.6969072)"
         id="g3930">
        <rect
           style="opacity:1;fill:#0066ff;fill-opacity:1;stroke:none;stroke-width:2.30906081;stroke-linecap:square;stroke-linejoin:round;stroke-miterlimit:4;stroke-dasharray:none;stroke-dashoffset:0;stroke-opacity:1"
           id="rect2324"
           width="3.0787475"
           height="3.0787475"
           x="6.157486"
           y="286.22443" />
        <rect
           style="opacity:1;fill:#0066ff;fill-opacity:1;stroke:none;stroke-width:1.61093855;stroke-linecap:round;stroke-linejoin:bevel;stroke-miterlimit:4;stroke-dasharray:none;stroke-dashoffset:0;stroke-opacity:1"
           id="rect2370"
           width="15.393723"
           height="1.5394049"
           x="-27.708702"
           y="286.2244"
           rx="0"
           ry="0"
           transform="scale(-1,1)" />
        <rect
           transform="scale(-1,1)"
           ry="0"
           rx="0"
           y="289.30316"
           x="-24.82238"
           height="1.53935"
           width="12.507401"
           id="rect2372"
           style="opacity:1;fill:#0066ff;fill-opacity:1;stroke:none;stroke-width:1.45205462;stroke-linecap:round;stroke-linejoin:bevel;stroke-miterlimit:4;stroke-dasharray:none;stroke-dashoffset:0;stroke-opacity:1" />
      </g>
      <g
         id="g3160"
         transform="matrix(0.29316259,0,0,0.29316259,-3.3720574,260.48308)">
        <path
           id="path3152"
           d="M 111.414,86.586 C 111.664,86.336 85.035,85 80,85 c -1.654,0 -3,1.346 -3,3 0,5.035 1.336,31.664 1.586,31.414 z"
           inkscape:connector-curvature="0"
           style="opacity:0.75068497;fill:url(#a);filter:url(#h)" />
        <path
           id="path3154"
           d="M 111.414,86.586 C 111.789,86.211 89.444,86 80,86 c -1.103,0 -2,0.897 -2,2 0,9.444 0.211,31.789 0.586,31.414 z"
           inkscape:connector-curvature="0"
           style="opacity:0.2;filter:url(#j)" />
        <path
           id="path3156"
           d="M 111.414,86.586 C 111.653,86.347 89.807,87 80,87 c -0.553,0 -1,0.447 -1,1 0,9.807 -0.653,31.653 -0.414,31.414 z"
           inkscape:connector-curvature="0"
           style="opacity:0.1;fill:url(#b);filter:url(#i)" />
        <path
           id="path3158"
           d="M 79.721619,119.31106 111.22712,87.805556 H 79.721619 Z"
           inkscape:connector-curvature="0"
           style="fill:url(#c)" />
      </g>
    </g>
    <g
       transform="matrix(0.96659213,0.96659213,-0.96659213,0.96659213,283.93932,-15.780582)"
       id="g115">
      <path
         style="fill:url(#d-3)"
         inkscape:connector-curvature="0"
         d="m 24.529657,285.13245 c -0.26354,-1e-5 -0.477184,0.21364 -0.477176,0.47718 v 4.22195 h -4.222095 c -0.263541,0 -0.477184,0.21364 -0.477177,0.47718 l 1e-6,1.68933 c -8e-6,0.26354 0.213636,0.47719 0.477176,0.47718 h 4.222095 v 4.22196 c -8e-6,0.26354 0.213636,0.47718 0.477176,0.47717 h 1.689334 c 0.263541,1e-5 0.477184,-0.21363 0.477176,-0.47717 v -4.22196 h 4.22196 c 0.26354,10e-6 0.477184,-0.21364 0.477176,-0.47718 v -1.68933 c 8e-6,-0.26354 -0.213636,-0.47718 -0.477176,-0.47718 h -4.22196 v -4.22195 c 8e-6,-0.26354 -0.213636,-0.47719 -0.477177,-0.47718 z"
         id="path87" />
      <path
         style="fill:url(#f-7)"
         inkscape:connector-curvature="0"
         d="m 24.529657,285.13245 c -0.26354,-1e-5 -0.477184,0.21364 -0.477176,0.47718 v 4.22195 h -4.222095 c -0.263541,0 -0.477184,0.21364 -0.477177,0.47718 l 1e-6,1.68933 c -8e-6,0.26354 0.213636,0.47719 0.477176,0.47718 h 4.222095 v 4.22196 c -8e-6,0.26354 0.213636,0.47718 0.477176,0.47717 h 1.689334 c 0.263541,1e-5 0.477184,-0.21363 0.477176,-0.47717 v -4.22196 h 4.22196 c 0.26354,10e-6 0.477184,-0.21364 0.477176,-0.47718 v -1.68933 c 8e-6,-0.26354 -0.213636,-0.47718 -0.477176,-0.47718 h -4.22196 v -4.22195 c 8e-6,-0.26354 -0.213636,-0.47719 -0.477177,-0.47718 z"
         id="path89" />
      <path
         style="fill:url(#g-5)"
         inkscape:connector-curvature="0"
         d="m 24.529657,285.13245 c -0.26354,-1e-5 -0.477184,0.21364 -0.477176,0.47718 v 4.22195 h -4.222095 c -0.263541,0 -0.477184,0.21364 -0.477177,0.47718 l 1e-6,1.68933 c -8e-6,0.26354 0.213636,0.47719 0.477176,0.47718 h 4.222095 v 4.22196 c -8e-6,0.26354 0.213636,0.47718 0.477176,0.47717 h 1.689334 c 0.263541,1e-5 0.477184,-0.21363 0.477176,-0.47717 v -4.22196 h 4.22196 c 0.26354,10e-6 0.477184,-0.21364 0.477176,-0.47718 v -1.68933 c 8e-6,-0.26354 -0.213636,-0.47718 -0.477176,-0.47718 h -4.22196 v -4.22195 c 8e-6,-0.26354 -0.213636,-0.47719 -0.477177,-0.47718 z"
         id="path91" />
      <path
         style="fill:#56331f;fill-opacity:0.90588199"
         inkscape:connector-curvature="0"
         d="m 24.529657,285.13245 c -0.26354,-1e-5 -0.477184,0.21364 -0.477176,0.47718 v 4.22195 h -4.222095 c -0.263541,0 -0.477184,0.21364 -0.477177,0.47718 l 1e-6,1.68933 c -8e-6,0.26354 0.213636,0.47719 0.477176,0.47718 h 4.222095 v 4.22196 c -8e-6,0.26354 0.213636,0.47718 0.477176,0.47717 h 1.689334 c 0.263541,1e-5 0.477184,-0.21363 0.477176,-0.47717 v -4.22196 h 4.22196 c 0.26354,10e-6 0.477184,-0.21364 0.477176,-0.47718 v -1.68933 c 8e-6,-0.26354 -0.213636,-0.47718 -0.477176,-0.47718 h -4.22196 v -4.22195 c 8e-6,-0.26354 -0.213636,-0.47719 -0.477177,-0.47718 z"
         id="path93" />
      <g
         style="fill-rule:evenodd"
         id="g107">
        <path
           style="opacity:0.498127;fill:url(#linearGradient1026);filter:url(#j-6)"
           inkscape:connector-curvature="0"
           d="m 31.7,16 2.875,-3.375 c -1.051205,-1.695758 -3.935136,-2.288018 -5.9375,-0.3125 l 2.8125,3.375 z"
           transform="matrix(0.1033455,0.1033455,0.10433789,-0.10433789,19.838814,294.77189)"
           id="path95" />
        <path
           style="opacity:0.79026196;fill:url(#h-3);filter:url(#j-6)"
           inkscape:connector-curvature="0"
           d="m 31.7,16 2.875,-3.375 c -1.051205,-1.695758 -3.935136,-2.288018 -5.9375,-0.3125 l 2.8125,3.375 z"
           transform="matrix(-0.10304201,0.10304201,-0.10206195,-0.10206195,35.519028,290.10275)"
           id="path97" />
        <path
           style="opacity:0.498127;fill:url(#k);filter:url(#j-6)"
           inkscape:connector-curvature="0"
           d="m 31.7,16 2.875,-3.375 c -1.051205,-1.695758 -3.935136,-2.288018 -5.9375,-0.3125 l 2.8125,3.375 z"
           transform="matrix(0.09358445,0.09358445,-0.09448311,0.09448311,29.197858,286.02787)"
           id="path99" />
        <path
           style="opacity:0.79026196;fill:url(#linearGradient1028);filter:url(#j-6)"
           inkscape:connector-curvature="0"
           d="m 88.7,16 2.875,-3.375 c -1.051205,-1.695758 -3.935136,-2.288018 -5.9375,-0.3125 l 2.8125,3.375 z"
           transform="matrix(-0.09448311,0.09448311,-0.09358445,-0.09358445,35.854021,289.60759)"
           id="path101" />
        <path
           style="opacity:0.79026196;fill:url(#m);filter:url(#j-6)"
           inkscape:connector-curvature="0"
           d="m 31.7,16 2.875,-3.375 c -1.051205,-1.695758 -3.935136,-2.288018 -5.9375,-0.3125 l 2.8125,3.375 z"
           transform="matrix(-0.08592421,0.08592421,0.08510696,0.08510696,26.0538,281.71607)"
           id="path103" />
        <path
           style="opacity:0.79026196;fill:url(#linearGradient1032);filter:url(#j-6)"
           inkscape:connector-curvature="0"
           d="m 88.7,16 2.875,-3.375 c -1.051205,-1.695758 -3.935136,-2.288018 -5.9375,-0.3125 l 2.8125,3.375 z"
           transform="matrix(-0.0882146,0.0882146,0.08737557,0.08737557,26.431933,281.29508)"
           id="path105" />
      </g>
      <path
         style="fill:url(#n)"
         inkscape:connector-curvature="0"
         d="m 24.529657,285.60963 v 4.69913 h -4.699271 v 1.68933 h 4.699271 v 4.69914 h 1.689334 v -4.69914 h 4.699136 v -1.68933 h -4.699136 l -10e-7,-4.69913 z"
         id="path109" />
      <path
         style="fill:#f4caca;fill-opacity:0.77941165"
         inkscape:connector-curvature="0"
         d="m 19.8304,290.30869 -1e-6,1.68937 h 4.699316 l -6.9e-5,4.69922 h 1.68937 v -4.69912 h 4.699124 v -1.68937 h -4.699124 l -1e-6,-4.69912 h -1.689368 v 4.69912 z m 0.12,0.12 4.57922,10e-5 c 0.06628,1e-5 0.120006,-0.0537 0.119999,-0.12 v -4.57912 h 1.44937 v 4.57912 c -6e-6,0.0663 0.05372,0.12001 0.12,0.12 h 4.579124 v 1.44937 h -4.579124 c -0.06628,-10e-6 -0.120006,0.0537 -0.12,0.12 v 4.57912 h -1.44937 l 6.9e-5,-4.57921 c 6e-6,-0.0663 -0.05372,-0.12001 -0.12,-0.12 h -4.579315 z"
         id="path111" />
      <path
         style="fill:url(#o);fill-rule:evenodd"
         inkscape:connector-curvature="0"
         d="m 19.8304,290.30869 -1e-6,1.68937 h 4.699316 v 0.96754 c 0.63875,-0.89522 1.64386,-2.06887 1.87767,-2.65634 l -0.188396,-4.7e-4 -1e-6,-4.69912 H 24.52962 v 4.69912 z"
         id="path113" />
    </g>
  </g>
</svg>
