<svg enable-background="new 0 0 128 128" height="128" viewBox="0 0 128 128" width="128" xmlns="http://www.w3.org/2000/svg" xmlns:xlink="http://www.w3.org/1999/xlink"><linearGradient id="a" gradientUnits="userSpaceOnUse" x1="88.591797" x2="71.262016" y1="96.592697" y2="79.262917"><stop offset="0" stop-color="#fff"/><stop offset="1" stop-color="#555753"/></linearGradient><linearGradient id="b" gradientUnits="userSpaceOnUse" x1="85.219681" x2="61.336319" y1="93.219681" y2="69.336319"><stop offset="0"/><stop offset="1" stop-color="#393b38"/></linearGradient><linearGradient id="c" gradientUnits="userSpaceOnUse" x1="96" x2="88.0002" y1="104" y2="96.0002"><stop offset="0" stop-color="#888a85"/><stop offset=".0072" stop-color="#8c8e89"/><stop offset=".0673" stop-color="#abaca9"/><stop offset=".1347" stop-color="#c5c6c4"/><stop offset=".2115" stop-color="#dbdbda"/><stop offset=".3012" stop-color="#ebebeb"/><stop offset=".4122" stop-color="#f7f7f6"/><stop offset=".5679" stop-color="#fdfdfd"/><stop offset="1" stop-color="#fff"/></linearGradient><filter id="d"><feGaussianBlur stdDeviation="1.0394514"/></filter><filter id="e"><feGaussianBlur stdDeviation=".50063244"/></filter><filter id="f"><feGaussianBlur stdDeviation=".40750996"/></filter><filter id="g"><feGaussianBlur stdDeviation=".4901192"/></filter><filter id="h"><feGaussianBlur stdDeviation=".90565481"/></filter><linearGradient id="i" gradientTransform="matrix(1.403119 0 0 1.6638889 -30.715797 -66.247851)" gradientUnits="userSpaceOnUse" x1="62.41972" x2="71.21479" y1="98.139114" y2="98.139114"><stop offset="0" stop-color="#00f"/><stop offset="1" stop-color="#00f" stop-opacity="0"/></linearGradient><linearGradient id="j" gradientUnits="userSpaceOnUse" x1="281.56894" x2="336.658639" xlink:href="#k" y1="-42.73126" y2="-74.537312"/><linearGradient id="k"><stop offset="0"/><stop offset="1" stop-opacity="0"/></linearGradient><filter id="l" color-interpolation-filters="sRGB"><feGaussianBlur stdDeviation="1.2466526"/></filter><radialGradient id="m" cx="2435.4526" cy="-1290.9012" fx="2435.4968" fy="-1289.6638" gradientUnits="userSpaceOnUse" r="2.032932"><stop offset="0" stop-color="#fff"/><stop offset=".78260869"/><stop offset="1"/></radialGradient><radialGradient id="n" cx="2435.4526" cy="-1290.9012" fx="2435.3201" fy="-1292.1829" gradientUnits="userSpaceOnUse" r="2.032932"><stop offset="0" stop-color="#fff" stop-opacity="0"/><stop offset=".71739131" stop-color="#fff"/><stop offset="1" stop-color="#fff" stop-opacity="0"/></radialGradient><linearGradient id="o" gradientTransform="matrix(.3571246 .2323424 -.2195739 .33749865 -1362.0105 -260.498)" gradientUnits="userSpaceOnUse" x1="2205.9375" x2="2229.125" xlink:href="#p" y1="-1222.1377" y2="-1222.1377"/><linearGradient id="p"><stop offset="0" stop-color="#818181"/><stop offset=".16666667" stop-color="#fff"/><stop offset=".30087379" stop-color="#fafafa"/><stop offset=".41666666" stop-color="#d7d7d7"/><stop offset=".44844013"/><stop offset=".59375" stop-color="#d5d5d5"/><stop offset=".703125" stop-color="#c8c8c8"/><stop offset=".7578125" stop-color="#333"/><stop offset=".94971472" stop-color="#c1c1c1"/><stop offset="1" stop-color="#343434"/></linearGradient><linearGradient id="q" gradientTransform="matrix(.47044708 .30606908 -.26699903 .410394 -1688.5445 -333.03656)" gradientUnits="userSpaceOnUse" x1="2243.146" x2="2242.3975" y1="-1322.632" y2="-1315.5718"><stop offset="0" stop-color="#181818"/><stop offset="1" stop-color="#181818" stop-opacity="0"/></linearGradient><linearGradient id="r" gradientTransform="matrix(.47044708 .30606908 -.26699903 .410394 -1688.4343 -332.88746)" gradientUnits="userSpaceOnUse" x1="2237.4534" x2="2242.2593" y1="-1316.2021" y2="-1318.9421"><stop offset="0" stop-color="#fdfdfd"/><stop offset="1" stop-color="#fdfdfd" stop-opacity="0"/></linearGradient><linearGradient id="s" gradientTransform="matrix(.49444512 .32168202 -.34848884 .53564887 -1841.8627 -189.0887)" gradientUnits="userSpaceOnUse" x1="2208.0518" x2="2254.0952" xlink:href="#p" y1="-1222.0073" y2="-1224.1035"/><clipPath id="t"><path d="m2293.5055-1105.5521c-1.4712 14.3773 2.3108 28.8372 9.7339 39.8676h4.5462c7.4231-11.0304 11.2051-25.4903 9.7339-39.8676-5.89-4.6401-18.318-4.887-24.014 0z"/></clipPath><filter id="u" color-interpolation-filters="sRGB" height="1.099961" width="1.251677" x="-.125838" y="-.04998"><feGaussianBlur stdDeviation=".98477853"/></filter><filter id="v" color-interpolation-filters="sRGB"><feGaussianBlur stdDeviation=".45592848"/></filter><clipPath id="w"><path d="m2324.2623-1105.5521c-1.4712 14.3773 2.3108 28.8372 9.7339 39.8676h4.5462c7.4231-11.0304 11.2051-25.4903 9.7339-39.8676-5.89-4.6401-18.318-4.887-24.014 0z"/></clipPath><filter id="x" color-interpolation-filters="sRGB" height="1.051712" width="1.23169" x="-.115845" y="-.025856"><feGaussianBlur stdDeviation=".56878871"/></filter><clipPath id="y"><path d="m2410.6562-1125.5312-.125 20.4062h.125v-.1875c2.1955-2.1403 6.6911-3.5937 11.875-3.5937 5.1841 0 9.6796 1.4533 11.875 3.5937v.1875h.125l-.125-20.4062z"/></clipPath><filter id="z" color-interpolation-filters="sRGB" height="1.739168" width="1.157863" x="-.078931" y="-.369584"><feGaussianBlur stdDeviation=".81808943"/></filter><filter id="A" color-interpolation-filters="sRGB"><feGaussianBlur stdDeviation=".068662208"/></filter><filter id="B" color-interpolation-filters="sRGB"><feGaussianBlur stdDeviation=".62795755"/></filter><radialGradient id="C" cx="2227.7837" cy="-1254.6573" gradientTransform="matrix(.49444512 .32168202 -2.2121418 3.4001986 -4186.3297 3388.5418)" gradientUnits="userSpaceOnUse" r="4.762933"><stop offset="0" stop-color="#5b5b5b"/><stop offset="1" stop-color="#202020"/></radialGradient><clipPath id="D"><path d="m2280.8997-1313.6542c0-7.6699 16.7006-8.0051 16.7006 0l.7591 26.4365h-18.2188z"/></clipPath><filter id="E" color-interpolation-filters="sRGB"><feGaussianBlur stdDeviation=".36237121"/></filter><linearGradient id="F" gradientUnits="userSpaceOnUse" x1="2227.0715" x2="2231.7791" xlink:href="#G" y1="-1248.1597" y2="-1248.9692"/><linearGradient id="G"><stop offset="0" stop-color="#fff"/><stop offset="1" stop-color="#fff" stop-opacity="0"/></linearGradient><filter id="H" color-interpolation-filters="sRGB"><feGaussianBlur stdDeviation=".15038113"/></filter><linearGradient id="I" gradientUnits="userSpaceOnUse" x1="2229.0273" x2="2231.1499" xlink:href="#G" y1="-1270.7157" y2="-1270.7157"/><filter id="J" color-interpolation-filters="sRGB" height="1.042192" width="1.519834" x="-.259917" y="-.021096"><feGaussianBlur stdDeviation=".27727194"/></filter><filter id="K" color-interpolation-filters="sRGB" height="1.62263" width="1.709918" x="-.354959" y="-.311315"><feGaussianBlur stdDeviation=".22675612"/></filter><linearGradient id="L" gradientTransform="matrix(.05212865 .03391448 .01131684 -.01739467 -435.81732 -199.83273)" gradientUnits="userSpaceOnUse" x1="2205.9375" x2="2229.125" xlink:href="#p" y1="-1222.1377" y2="-1222.1377"/><linearGradient id="M" gradientTransform="matrix(.73589376 .47876655 -.47876655 .73589376 -2493.3861 -393.07577)" gradientUnits="userSpaceOnUse" x1="2242.4668" x2="2242.4668" xlink:href="#k" y1="-1066.5438" y2="-1065.2577"/><linearGradient id="N" gradientUnits="userSpaceOnUse" x1="11.433537" x2="139.6344" y1="66.573135" y2="139.6362"><stop offset="0" stop-color="#9c0f0f"/><stop offset=".5" stop-color="#e81919"/><stop offset="1" stop-color="#cd1313"/></linearGradient><path d="m23 8.9687825.04082 114.0246875h61.131184c.53 0 1.039-.211 1.414-.586l32.827996-32.828001c.375-.375.586-.884.586-1.414v-79.1966865h-95.999996z" filter="url(#d)" opacity=".553425" transform="matrix(1.0090419 0 0 1.003276 -19.327226 .671055)"/><path d="m23 9 .04082 113.99347h61.131184c.53 0 1.039-.211 1.414-.586l32.827996-32.828001c.375-.375.586-.884.586-1.414v-79.165469z" filter="url(#d)" opacity=".306849" transform="matrix(1.0090419 0 0 1.003276 -19.327226 .671055)"/><path d="m24.919999 10.931136v109.932054l58.676001-.0001c.53 0 1.039-.211 1.414-.586l31.484-31.765934c.375-.375.586-.884.586-1.414v-76.16602h-92.160001z" filter="url(#e)" opacity=".89589" transform="matrix(1.0090419 0 0 1.003276 -19.327226 .671055)"/><path d="m23 9.9655172.04082 113.0279528h61.131184c.53 0 1.039-.211 1.414-.586l32.827996-32.828001c.375-.375.586-.884.586-1.414v-78.1999518h-95.999996z" filter="url(#d)" opacity=".306849" transform="matrix(1.0090419 0 0 1.003276 -19.327226 .671055)"/><path d="m5.8181 11.638v110.29219h59.256106c.513401 0 1.006458-.20439 1.369714-.56765l31.79983-31.799837c.36326-.363255.56764-.856313.56764-1.369714v-76.554989h-92.99329z" fill="#ad4343" fill-opacity=".956863"/><path d="m12.381607 17.253436c-.522387 0-.94807.42703-.94807.951069l.321923 96.737255c0 .525.425684.95108.94807.95108h52.099199c.249342 0 .493944-.10082.670284-.27867l27.523241-27.221665c.17729-.17785.27778-.422273.27778-.672405l-.2-69.493672c0-.524039-.42473-.951068-.94806-.951068l-79.744367-.02192z" fill="url(#N)"/><path d="m53.544922 12c.963027 5.52643 3.355833 12.264656 6.455078 20l-.65625 2.417969c-1.659238 6.1233-3.917382 12.299414-5.898438 17.777343-8.181401 22.57628-15.176596 35.079785-20.695312 36.583985l-.05273-.228516c-.452683-2.6316 3.576685-10.068765 9.513672-16.322265.619647-.6458 3.203125-3.865235 3.203124-3.865235 0 0-3.71062 2.600553-4.535156 3.251953-7.668875 5.9907-11.174921 11.467504-11.435547 14.845704-.07687 1.0036.205366 2.189871 1.128907 2.576171l2.255859.802735c6.129766 2.17 12.268774-6.317712 19.632813-24.044922 9.203659-4.3511 20.805755-8.81677 31.507812-11.78711 7.056993 2.944305 14.59394 4.469164 20.031246 4.634766v-3.091797c-3.81332-.419483-8.593609-1.501383-13.544922-3.203125 5.29599-1.242698 9.985702-2.005852 13.544922-2.126953v-2.804687c-1.29015.02112-2.69418.110785-4.220703.28125-4.054052.46085-8.861441 1.422887-14.037109 2.835937-2.586869-1.08701-5.328026-2.291194-7.582032-3.927734-5.718687-4.1468-10.841312-10.260187-14.435547-17.378907.093-.73622.181732-1.454887.251953-2.179687.324061-3.42758-.523437-14.515625-.523437-14.515625s-1.07016 8.543534-1.246094 9.833984c-.11317.81937-.275975 1.698748-.470703 2.617188-1.955615-4.611057-3.32504-9.163055-4.02539-12.982422zm8.896484 24.03125c3.524377 5.31905 8.085606 10.222467 13.720703 13.904297 1.256887.82051 2.577057 1.580476 3.927735 2.285156-9.039409 2.87934-18.456558 6.518127-27.015625 11.435547 1.269552-3.1087 2.64176-6.492369 4.02539-10.130859 2.673077-7.06903 4.157661-12.453681 5.341797-17.494141z" fill="#b14646" stroke-width="1.562293"/><path d="m87.731282 63.31817c-4.054052.46085-8.861581 1.42315-14.03725 2.8362-2.586869-1.08701-5.326549-2.29092-7.580555-3.92746-5.718687-4.1468-10.842452-10.2598-14.436687-17.37852.093-.73622.181473-1.45504.251694-2.17984.32406-3.42758-.522804-14.51649-.522804-14.51649s-1.070115 8.54379-1.246049 9.83424c-.11317.81937-.275836 1.69878-.470564 2.61722-2.326089-5.48458-3.837663-10.89818-4.360016-15.07741-.147846-1.18289-.333732-3.49043-.226087-5.35024.000373-1.31674.388937-2.04992.835473-2.43648.992821.11414 2.253657 1.45797 3.688934 3.79237 1.23431 2.0182 1.483917 4.50443 1.675682 6.0387 0 0 .561739-3.92848.04163-6.14332-.313951-1.32965-2.029578-4.63581-4.746201-4.25398l-.221672.0277-1.21406.1336c-1.988459.24853-3.726422 1.45668-3.974851 3.11997-.900166 6.37488 2.160969 15.67673 6.764572 27.16677l-.656605 2.4179c-1.659238 6.1233-3.916323 12.2987-5.897378 17.77663-8.181401 22.57629-15.177506 35.07989-20.696222 36.58409l-.0529-.2279c-.452683-2.6316 3.576193-10.0694 9.51318-16.3229.619647-.6458 3.204934-3.8639 3.204934-3.8639s-3.710707 2.6005-4.535243 3.2519c-7.668875 5.9907-11.174809 11.4678-11.435435 14.846-.07687 1.0036.204909 2.1886 1.12845 2.5749l2.254427.8022c6.129766 2.17 12.270472-6.3167 19.634511-24.0439 9.203659-4.3511 20.80568-8.81652 31.507737-11.78686 10.456285 4.36255 21.98302 5.62089 26.139355 3.93509.791286-.3187 1.573888-1.06865 1.938728-1.7165.2767-.58866.48351-2.8321.48351-2.8321s-.668627 1.20836-1.293681 1.61629c-2.56255 1.62728-11.422469.55421-20.782161-2.66267 7.523412-1.76536 13.874555-2.59396 17.405022-1.93186 4.483.83858 4.65986 2.25363 4.63878 2.54865.0274-.24463.10519-1.21697.0314-1.61663-.2282-1.02352-.660036-1.90761-1.53801-2.57549-1.793508-1.37382-5.834108-1.67666-11.213525-1.07595zm-46.705523 15.95945c1.269552-3.1087 2.642636-6.49301 4.026266-10.1315 2.673077-7.06903 4.157784-12.45371 5.34192-17.49417 3.524377 5.31905 8.08461 10.22268 13.719707 13.90451 1.256887.82051 2.578438 1.58007 3.929116 2.28475-9.039409 2.87934-18.457942 6.51899-27.017009 11.43641z" fill="#f6dcdc" stroke-width="1.562293"/><path d="m9.587894 111.30708s28.261528.30103 22.044642-19.21402c-2.484407-7.78804-7.174718 2.953706-9.656045 4.652552-2.53591 1.736211-13.249663-6.830465-2.092869 9.489418 5.456457 7.98158 17.312167 1.17501 20.68383-3.81874 3.505036-5.191298 10.233524-1.89025 9.161067-2.560533-8.26919-1.18131-9.493165 13.239603 10.977102 10.465623 17.506035-2.37227 44.723879 3.5681 44.723879 3.5681" style="opacity:.874419;fill:none;stroke-width:1.675067;stroke-linecap:round;stroke-linejoin:round;stroke:url(#i)"/><g transform="matrix(1.1080161 0 0 1.1080161 -24.430033 -10.275377)"><path d="m111.414 86.586c.25-.25-26.379-1.586-31.414-1.586-1.654 0-3 1.346-3 3 0 5.035 1.336 31.664 1.586 31.414z" fill="url(#a)" filter="url(#f)" opacity=".750685"/><path d="m111.414 86.586c.375-.375-21.97-.586-31.414-.586-1.103 0-2 .897-2 2 0 9.444.211 31.789.586 31.414z" filter="url(#h)" opacity=".2"/><path d="m111.414 86.586c.239-.239-21.607.414-31.414.414-.553 0-1 .447-1 1 0 9.807-.653 31.653-.414 31.414z" fill="url(#b)" filter="url(#g)" opacity=".1"/><path d="m79.721619 119.31106 31.505501-31.505504h-31.505501z" fill="url(#c)"/></g><g transform="matrix(1.26533 0 0 1.26533 481.51976 239.88775)"><path d="m296-36c18.08511-6.82983 36.93997-26.55811 43.13351-34.29467l-4.94974-10.25305c-11.59167 12.47109-31.6378 29.55378-38.18377 44.54772z" fill="url(#j)" filter="url(#l)" transform="matrix(1.1701128 0 0 1.1701128 -682.20397 -58.788102)"/><g transform="matrix(.09609368 .06251777 -.06251777 .09609368 -649.79115 -130.10385)"><path d="m2437.4856-1290.9012a2.032932 2.032932 0 0 1 -2.033 2.0329 2.032932 2.032932 0 0 1 -2.0329-2.0329 2.032932 2.032932 0 0 1 2.0329-2.033 2.032932 2.032932 0 0 1 2.033 2.033z" fill="url(#m)"/><path d="m2437.4856-1290.9012a2.032932 2.032932 0 0 1 -2.033 2.0329 2.032932 2.032932 0 0 1 -2.0329-2.0329 2.032932 2.032932 0 0 1 2.0329-2.033 2.032932 2.032932 0 0 1 2.033 2.033z" fill="url(#n)"/></g><path d="m-287.22136-188.65428c2.04787-3.14769 9.99404 1.82625 7.85669 5.1115l-6.70137 11.08171-8.57096-5.57619z" fill="url(#o)"/><path d="m-287.22136-188.65428c2.04787-3.14769 9.99404 1.82625 7.85669 5.1115l-6.70137 11.08171-8.57096-5.57619z" fill="url(#o)"/><path d="m-287.22136-188.65428c2.04787-3.14769 9.99404 1.82625 7.85669 5.1115l-6.70137 11.08171-8.57096-5.57619z" fill="url(#q)"/><path d="m-285.1091-186.9593c1.16805-1.79539 6.06667.89112 5.4732 1.28271-.77184.50925-1.22395-2.13042-2.10432-2.68327-.96193-.604-3.10467-1.4006-3.53282-.76739-.42821.6333.16394 2.16795.16394 2.16795z" fill="url(#r)" fill-rule="evenodd"/><path d="m-289.18463-177.03707c-2.37719-1.54659-4.86926-2.21168-6.51453-1.88518l-30.65902 50.7754.0618.0402.0604-.0927c1.774-.35204 4.46436.37549 7.02757 2.04308 2.5632 1.66761 4.31853 3.83234 4.7155 5.59687l-.0603.0927.0618.0402 29.67012-51.41877c-.3682-1.63645-1.98607-3.64524-4.36326-5.19183l-.00006.00002z" fill="url(#s)"/><path d="m-289.42822-176.6964c-2.4128-1.56975-4.94194-2.24481-6.61171-1.91342l-.25514.39214c1.66983-.33144 4.19902.34353 6.61179 1.91333 2.41264 1.56964 4.05466 3.60837 4.42838 5.26931l.25513-.39214c-.37376-1.66089-2.01581-3.69957-4.42845-5.26922z" opacity=".80274"/><path d="m-289.65675-176.34515c-2.41279-1.56974-4.94196-2.24476-6.61178-1.91332l-.25506.39204c1.66979-.33138 4.19902.34354 6.61175 1.91338 2.41264 1.56965 4.05466 3.60837 4.42842 5.26927l.25506-.39205c-.37372-1.66094-2.01574-3.69967-4.42839-5.26932z" fill="#fff" fill-opacity=".503049" opacity=".80274"/><path d="m-326.60552-127.90878c-5.35235 6.63553-8.13385 15.00176-8.01181 22.84356l2.24785 1.46243c7.21859-3.06605 13.74007-8.99907 17.63756-16.58112-1.41965-4.18898-7.48519-8.30892-11.8736-7.72487z" fill="#fefefe" fill-rule="evenodd"/><path d="m2242.6875-1065.7003a1.6875.84375 0 0 1 -1.6875.8437 1.6875.84375 0 0 1 -1.6875-.8437 1.6875.84375 0 0 1 1.6875-.8438 1.6875.84375 0 0 1 1.6875.8438z" transform="matrix(.65468198 .42593083 -.32168202 .49444512 -2143.3841 -531.88142)"/><g clip-path="url(#t)" fill-rule="evenodd" transform="matrix(.49444512 .32168202 -.32168202 .49444512 -1816.2049 -319.02122)"><path d="m2308.1733-1063.7432c-8.5093-.3737-16.541-36.7035-11.3137-47.2878-28.0887-.8751-15.7848 51.1325 11.3137 47.2878z" fill="#323232" filter="url(#u)" opacity=".574879"/><path d="m2308.1733-1063.7432c-9.5993-.9965-17.7823-37.4128-11.3137-47.2878-28.0887-.8751-15.7848 51.1325 11.3137 47.2878z" filter="url(#v)" transform="matrix(-1 0 0 1 4612.2339 0)"/><path d="m2308.1733-1063.7432c-8.5093-.3737-13.5645-37.5941-8.3372-48.1784-28.0887-.8751-18.7613 52.0231 8.3372 48.1784z" fill="#323232" filter="url(#u)" opacity=".362319"/></g><path clip-path="url(#w)" d="m2342.4819-1110.013c.7213 2.72.3139 29.6197-6.5547 48.6563 8.9201-14.9168 12.0986-28.5895 10.9687-48.9664-1.5814.5236-1.2143-2.4088-4.414.3101z" fill="#2b2b2b" fill-rule="evenodd" filter="url(#x)" opacity=".681159" transform="matrix(.49444512 .32168202 -.32168202 .49444512 -1831.3756 -328.8912)"/><path clip-path="url(#y)" d="m2422.5312-1109.6875c-5.3743 0-10.0363 1.4997-12.3124 3.7187v.1876h-.125v1.4062h.125v-.1875c2.2761-2.2189 6.9381-3.7187 12.3124-3.7187 5.3746-.0001 10.0366 1.4996 12.3126 3.7187v.1875h.125v-1.4062h-.125v-.1876c-2.276-2.2191-6.938-3.7187-12.3126-3.7187z" filter="url(#z)" transform="matrix(.49444512 .32168202 -.32168202 .49444512 -1874.0434 -356.79128)"/><g fill-rule="evenodd"><path d="m2241.4375-1109.125c-4.5552-.031-9.0895 1.119-11.9375 3.5625-.01.093-.022.188-.031.2813 5.9106-4.6994 18.186-4.3795 24.0624.25.1814 1.7721.2855 3.5442.3126 5.3124-.011-1.9377-.1137-3.9003-.3126-5.8437-2.945-2.32-7.5385-3.5316-12.0937-3.5625z" fill="#fefefe" fill-opacity=".640244" filter="url(#A)" transform="matrix(.49444512 .32168202 -.32168202 .49444512 -1784.6132 -298.46795)"/><path d="m2230.8619-1284.8946-.8239 59.8426c.1273 1.0308.5799 1.0312 1.4142-.1768 4.216-12.2345.8873-37.9431 1.9446-59.9273.028-.5838.1588-2.0699.6471-2.567-1.6146.5763-2.1665 1.7796-3.182 2.8285z" filter="url(#B)" opacity=".396135" stroke="#000" transform="matrix(.49444512 .32168202 -.32168202 .49444512 -1812.604 -260.02131)"/><path d="m-292.88253-177.97844c-.63284-.0631-.84258-.11374-1.50467-.174-.19845-.018-.88635.0906-1.31065.65026-9.11124 12.01781-16.21187 28.15489-20.46087 29.41909-.8824.26251-1.8293.42394-1.44647-.41327 5.96734-13.04998 17.47726-27.15275 19.45287-29.80726.29033-.38999 1.0317-.45045 1.46143-.43654 1.34997.0438 2.66444.33882 3.80826.76166z" fill="url(#C)"/></g><path d="m2280.8997-1313.6542c0-7.6699 15.9536-7.9702 16.7006 0l2.7591 29.4365h-22.2188z" style="fill:none;stroke:#000;stroke-width:.954;stroke-linecap:round;stroke-linejoin:round;clip-path:url(#D);filter:url(#E)" transform="matrix(.47044708 .30606908 -.26699903 .410394 -1711.0083 -347.65136)"/><path d="m2227.8951-1269.7063c-.099-.01-.2065.01-.3125.063 2.0913 30.5486.7811 41.3359.7811 41.3359-.8127-4.1473-1.1988-29.2734-1.1829-38.3658-.9758.9169-.4945 40.7685.7033 43.2691.1553.3242.8289-.2733.875-.5937 1.5548-10.7986 1.7726-45.4959-.864-45.7081z" fill="url(#F)" fill-rule="evenodd" filter="url(#H)" transform="matrix(.49444512 .32168202 -.32168202 .49444512 -1812.604 -260.02131)"/><path d="m2231.15-1286.4878s-2.2733 1.0741-2.375 2c-.9783 8.9087 2.2368 29.5442 2.2368 29.5442s-1.8379-21.762-.118-30.8428c.042-.2201.1708-.4676.2562-.7014z" fill="url(#I)" fill-rule="evenodd" filter="url(#J)" transform="matrix(.49444512 .32168202 -.32168202 .49444512 -1812.604 -260.02131)"/><path d="m2229.9375-1225.3253a.6875.9375 0 0 1 -.6875.9375.6875.9375 0 0 1 -.6875-.9375.6875.9375 0 0 1 .6875-.9375.6875.9375 0 0 1 .6875.9375z" fill="#fff" filter="url(#K)" transform="matrix(.24727644 .53554615 -.53554615 .24727644 -1523.6563 -1039.6399)"/><path d="m-335.24216-102.04942.38596-1.45276 1.03293-1.58766.006.004-.004.005c.16477.079.37767.18166.64944.35495.2883.18758.4439.31414.58866.45054l.004-.005.006.004-1.07484 1.65209-1.19277.8247c-.11151-.031-.33447-.19017-.40222-.25044z" fill="url(#L)"/><path d="m-333.11595-104.75464c-.60985-.39677-1.23406-.53694-1.3839-.30663-.11233.17271.0833.49185.43861.81315-.24614-.24387-.36322-.48964-.27798-.62067.12453-.19119.62641-.0763 1.13282.25318.50646.3295.81493.7418.6905.93305-.0852.13103-.35739.12358-.68007-.003.4377.19462.79334.23415.9057.0614.14984-.23031-.21582-.73415-.82568-1.13091z"/><path d="m-335.24216-102.04942.38596-1.45276 1.03293-1.58766.006.004-.004.005c.16477.079.37767.18166.64944.35495.2883.18758.4439.31414.58866.45054l.004-.005.006.004-1.07484 1.65209-1.19277.8247c-.11151-.031-.33447-.19017-.40222-.25044z" fill="url(#M)"/><path clip-path="url(#w)" d="m2342.4819-1110.013c.7213 2.72.1926 29.594-6.5547 48.6563 6.728-18.9292 8.6732-28.8711 7.5433-49.248-1.5814.5236 2.2111-2.1272-.9886.5917z" fill="#2b2b2b" fill-rule="evenodd" filter="url(#x)" opacity=".681159" transform="matrix(.49444512 .32168202 -.32168202 .49444512 -1831.3756 -328.8912)"/></g></svg>