<?xml version="1.0" encoding="UTF-8" standalone="no"?>
<!-- Created with Inkscape (http://www.inkscape.org/) -->

<svg
   xmlns:dc="http://purl.org/dc/elements/1.1/"
   xmlns:cc="http://creativecommons.org/ns#"
   xmlns:rdf="http://www.w3.org/1999/02/22-rdf-syntax-ns#"
   xmlns:svg="http://www.w3.org/2000/svg"
   xmlns="http://www.w3.org/2000/svg"
   xmlns:xlink="http://www.w3.org/1999/xlink"
   xmlns:sodipodi="http://sodipodi.sourceforge.net/DTD/sodipodi-0.dtd"
   xmlns:inkscape="http://www.inkscape.org/namespaces/inkscape"
   version="1.1"
   id="svg2"
   width="128"
   height="128"
   viewBox="0 0 128 128"
   sodipodi:docname="lc_symbolshapes.smiley.svg"
   inkscape:export-filename="/home/rizmut/Dokumen/Rizmut/Github/libreoffice-style-karasa-jaga/build/images_karasa_jaga/cmd/lc_symbolshapes.smiley.png"
   inkscape:export-xdpi="16.5"
   inkscape:export-ydpi="16.5"
   inkscape:version="0.92.3 (unknown)">
  <metadata
     id="metadata8">
    <rdf:RDF>
      <cc:Work
         rdf:about="">
        <dc:format>image/svg+xml</dc:format>
        <dc:type
           rdf:resource="http://purl.org/dc/dcmitype/StillImage" />
        <dc:title></dc:title>
      </cc:Work>
    </rdf:RDF>
  </metadata>
  <defs
     id="defs6">
    <linearGradient
       inkscape:collect="always"
       xlink:href="#linearGradient3369"
       id="linearGradient1960"
       x1="65.944252"
       y1="129.25647"
       x2="64"
       y2="6.0273438"
       gradientUnits="userSpaceOnUse"
       gradientTransform="matrix(0.90321893,0,0,0.90321893,6.1939891,6.1939891)" />
    <linearGradient
       id="linearGradient3369">
      <stop
         id="stop3372"
         offset="0"
         style="stop-color:#ffffff;stop-opacity:1;" />
      <stop
         style="stop-color:#ffffff;stop-opacity:1;"
         offset="0.53340602"
         id="stop3374" />
      <stop
         style="stop-color:#f1f1f1;stop-opacity:1;"
         offset="0.83333331"
         id="stop3376" />
      <stop
         id="stop3378"
         offset="0.89999998"
         style="stop-color:#eaeaea;stop-opacity:1;" />
      <stop
         id="stop3384"
         offset="1"
         style="stop-color:#dfdfdf;stop-opacity:1;" />
    </linearGradient>
    <linearGradient
       id="linearGradient7422">
      <stop
         style="stop-color:#7c9fcf;stop-opacity:1"
         offset="0"
         id="stop7424" />
      <stop
         id="stop5348"
         offset="0.5"
         style="stop-color:#7c9ece;stop-opacity:1" />
      <stop
         id="stop7426"
         offset="1"
         style="stop-color:#7b9dcf;stop-opacity:1" />
    </linearGradient>
    <linearGradient
       inkscape:collect="always"
       xlink:href="#linearGradient7422"
       id="linearGradient1454"
       x1="5.7109375"
       y1="64"
       x2="122.28906"
       y2="64"
       gradientUnits="userSpaceOnUse" />
  </defs>
  <sodipodi:namedview
     pagecolor="#ffffff"
     bordercolor="#666666"
     borderopacity="1"
     objecttolerance="10"
     gridtolerance="10"
     guidetolerance="10"
     inkscape:pageopacity="0"
     inkscape:pageshadow="2"
     inkscape:window-width="1366"
     inkscape:window-height="706"
     id="namedview4"
     showgrid="true"
     inkscape:snap-page="true"
     inkscape:snap-global="false"
     inkscape:zoom="2.4494288"
     inkscape:cx="85.728169"
     inkscape:cy="58.441434"
     inkscape:window-x="0"
     inkscape:window-y="0"
     inkscape:window-maximized="1"
     inkscape:current-layer="svg2">
    <inkscape:grid
       type="xygrid"
       id="grid837"
       spacingx="5.8181"
       spacingy="5.8181"
       empspacing="1" />
  </sodipodi:namedview>
  <path
     style="opacity:1;fill:url(#linearGradient1454);fill-opacity:1.0;stroke:none;stroke-width:3.6128757;stroke-linecap:square;stroke-linejoin:bevel;stroke-miterlimit:4;stroke-dasharray:none;stroke-dashoffset:0;stroke-opacity:0.72941176"
     d="M 64 5.7109375 C 48.740232 5.7111453 33.573489 11.992917 22.783203 22.783203 C 11.992917 33.573489 5.7111453 48.740232 5.7109375 64 C 5.7111447 79.259769 11.992917 94.426508 22.783203 105.2168 C 33.573489 116.00708 48.740231 122.28885 64 122.28906 C 79.259769 122.28886 94.426508 116.00708 105.2168 105.2168 C 116.00708 94.426508 122.28886 79.259769 122.28906 64 C 122.28885 48.740231 116.00708 33.573489 105.2168 22.783203 C 94.426508 11.992917 79.259769 5.7111447 64 5.7109375 z M 32.521484 27.189453 C 32.474635 27.241283 32.373414 27.354152 32.291016 27.445312 C 32.29063 27.445011 32.234375 27.400391 32.234375 27.400391 C 32.234375 27.400391 32.45778 27.23621 32.521484 27.189453 z M 68.650391 27.189453 C 68.603541 27.241283 68.50232 27.354152 68.419922 27.445312 C 68.419536 27.445011 68.363281 27.400391 68.363281 27.400391 C 68.363281 27.400391 68.586686 27.23621 68.650391 27.189453 z M 45.935547 44.080078 C 45.9782 44.120627 46.011833 44.152715 46.054688 44.193359 C 46.108629 44.24452 46.160044 44.289819 46.212891 44.339844 C 46.324775 44.50422 46.424627 44.659553 46.541016 44.828125 C 46.627014 44.952681 46.716543 45.073098 46.798828 45.191406 C 46.899605 45.412668 46.992766 45.629986 47.099609 45.859375 C 47.192896 46.059659 47.292121 46.253896 47.380859 46.441406 C 47.459833 46.710512 47.531377 46.977383 47.617188 47.259766 C 47.696969 47.522314 47.782864 47.770999 47.859375 48.015625 C 47.908105 48.316195 47.948957 48.61298 48.003906 48.931641 C 48.05744 49.242095 48.117286 49.531484 48.169922 49.820312 C 48.184358 50.133784 48.192123 50.442379 48.210938 50.777344 C 48.229619 51.10993 48.256838 51.41664 48.277344 51.726562 C 48.256838 52.036486 48.229619 52.343195 48.210938 52.675781 C 48.192123 53.010746 48.184358 53.319342 48.169922 53.632812 C 48.117286 53.921642 48.05744 54.21103 48.003906 54.521484 C 47.948957 54.840145 47.908105 55.13693 47.859375 55.4375 C 47.782864 55.682126 47.696969 55.930811 47.617188 56.193359 C 47.531378 56.475742 47.459833 56.742613 47.380859 57.011719 C 47.292121 57.199229 47.192896 57.393466 47.099609 57.59375 C 46.992766 57.823139 46.899605 58.040457 46.798828 58.261719 C 46.716543 58.380027 46.627014 58.500444 46.541016 58.625 C 46.424627 58.793572 46.324775 58.948905 46.212891 59.113281 C 46.160044 59.163306 46.108629 59.208605 46.054688 59.259766 C 46.011833 59.30041 45.9782 59.332498 45.935547 59.373047 C 45.892894 59.332498 45.85926 59.30041 45.816406 59.259766 C 45.762464 59.208605 45.71105 59.163306 45.658203 59.113281 C 45.546319 58.948905 45.446467 58.793572 45.330078 58.625 C 45.24408 58.500444 45.154551 58.380027 45.072266 58.261719 C 44.971489 58.040457 44.878328 57.823139 44.771484 57.59375 C 44.678197 57.393466 44.578973 57.199229 44.490234 57.011719 C 44.411261 56.742613 44.339715 56.475742 44.253906 56.193359 C 44.174124 55.930811 44.08823 55.682126 44.011719 55.4375 C 43.962989 55.13693 43.922137 54.840145 43.867188 54.521484 C 43.813653 54.21103 43.753807 53.921642 43.701172 53.632812 C 43.686736 53.319342 43.678971 53.010746 43.660156 52.675781 C 43.641475 52.343195 43.614256 52.036485 43.59375 51.726562 C 43.614256 51.41664 43.641475 51.10993 43.660156 50.777344 C 43.678971 50.442379 43.686736 50.133784 43.701172 49.820312 C 43.753807 49.531484 43.813654 49.242095 43.867188 48.931641 C 43.922137 48.61298 43.962989 48.316195 44.011719 48.015625 C 44.08823 47.770999 44.174124 47.522314 44.253906 47.259766 C 44.339715 46.977383 44.411261 46.710512 44.490234 46.441406 C 44.578973 46.253896 44.678197 46.059659 44.771484 45.859375 C 44.878328 45.629986 44.971489 45.412668 45.072266 45.191406 C 45.154551 45.073098 45.24408 44.952681 45.330078 44.828125 C 45.446467 44.659553 45.546319 44.50422 45.658203 44.339844 C 45.71105 44.289819 45.762464 44.24452 45.816406 44.193359 C 45.85926 44.152715 45.892894 44.120627 45.935547 44.080078 z M 82.064453 44.080078 C 82.107106 44.120627 82.14074 44.152715 82.183594 44.193359 C 82.237536 44.24452 82.28895 44.289819 82.341797 44.339844 C 82.453681 44.50422 82.553533 44.659553 82.669922 44.828125 C 82.75592 44.952681 82.845449 45.073098 82.927734 45.191406 C 83.028511 45.412668 83.121672 45.629986 83.228516 45.859375 C 83.321803 46.059659 83.421027 46.253896 83.509766 46.441406 C 83.588739 46.710512 83.660285 46.977383 83.746094 47.259766 C 83.825876 47.522314 83.91177 47.770999 83.988281 48.015625 C 84.037011 48.316195 84.077863 48.61298 84.132812 48.931641 C 84.186346 49.242095 84.246193 49.531484 84.298828 49.820312 C 84.313264 50.133784 84.321029 50.442379 84.339844 50.777344 C 84.358525 51.10993 84.385744 51.41664 84.40625 51.726562 C 84.385744 52.036486 84.358525 52.343195 84.339844 52.675781 C 84.321029 53.010746 84.313264 53.319342 84.298828 53.632812 C 84.246193 53.921642 84.186346 54.21103 84.132812 54.521484 C 84.077863 54.840145 84.037011 55.13693 83.988281 55.4375 C 83.91177 55.682126 83.825876 55.930811 83.746094 56.193359 C 83.660285 56.475742 83.588739 56.742613 83.509766 57.011719 C 83.421027 57.199229 83.321803 57.393466 83.228516 57.59375 C 83.121672 57.823139 83.028511 58.040457 82.927734 58.261719 C 82.845449 58.380027 82.75592 58.500444 82.669922 58.625 C 82.553533 58.793572 82.453681 58.948905 82.341797 59.113281 C 82.28895 59.163306 82.237536 59.208605 82.183594 59.259766 C 82.14074 59.30041 82.107106 59.332498 82.064453 59.373047 C 82.0218 59.332498 81.988168 59.30041 81.945312 59.259766 C 81.891371 59.208605 81.839956 59.163306 81.787109 59.113281 C 81.675225 58.948905 81.575373 58.793572 81.458984 58.625 C 81.372986 58.500444 81.283457 58.380027 81.201172 58.261719 C 81.100395 58.040457 81.007234 57.823139 80.900391 57.59375 C 80.807104 57.393466 80.707879 57.199229 80.619141 57.011719 C 80.540167 56.742613 80.468622 56.475742 80.382812 56.193359 C 80.303032 55.930811 80.217136 55.682126 80.140625 55.4375 C 80.091895 55.13693 80.051043 54.840145 79.996094 54.521484 C 79.94256 54.21103 79.882714 53.921642 79.830078 53.632812 C 79.815642 53.319342 79.807878 53.010746 79.789062 52.675781 C 79.770381 52.343195 79.743162 52.036485 79.722656 51.726562 C 79.743162 51.41664 79.770381 51.10993 79.789062 50.777344 C 79.807877 50.442379 79.815642 50.133784 79.830078 49.820312 C 79.882714 49.531484 79.94256 49.242095 79.996094 48.931641 C 80.051043 48.61298 80.091895 48.316195 80.140625 48.015625 C 80.217136 47.770999 80.303032 47.522314 80.382812 47.259766 C 80.468622 46.977383 80.540167 46.710512 80.619141 46.441406 C 80.707879 46.253896 80.807104 46.059659 80.900391 45.859375 C 81.007234 45.629986 81.100395 45.412668 81.201172 45.191406 C 81.283457 45.073098 81.372986 44.952681 81.458984 44.828125 C 81.575373 44.659553 81.675225 44.50422 81.787109 44.339844 C 81.839956 44.289819 81.89137 44.24452 81.945312 44.193359 C 81.988167 44.152715 82.0218 44.120627 82.064453 44.080078 z M 59.580078 76.007812 C 59.580464 76.008115 59.636719 76.052734 59.636719 76.052734 C 59.636719 76.052734 59.41331 76.216917 59.349609 76.263672 C 59.396459 76.211842 59.49768 76.098973 59.580078 76.007812 z M 95.708984 76.007812 C 95.70937 76.008115 95.765625 76.052734 95.765625 76.052734 C 95.765625 76.052734 95.54222 76.216915 95.478516 76.263672 C 95.525365 76.211842 95.626586 76.098973 95.708984 76.007812 z "
     id="path828" />
  <path
     style="opacity:1;fill:url(#linearGradient1960);fill-opacity:1;stroke:none;stroke-width:3.6128757;stroke-linecap:square;stroke-linejoin:bevel;stroke-miterlimit:4;stroke-dasharray:none;stroke-dashoffset:0;stroke-opacity:0.72941176"
     d="M 64,11.638 A 52.362041,52.362041 0 0 0 11.638,64 52.362041,52.362041 0 0 0 64,116.362 52.362041,52.362041 0 0 0 116.362,64 52.362041,52.362041 0 0 0 64,11.638 Z M 45.935621,38.997419 A 7.2534447,12.729056 0 0 1 53.189598,51.72716 7.2534447,12.729056 0 0 1 45.935621,64.455138 7.2534447,12.729056 0 0 1 38.681645,51.72716 7.2534447,12.729056 0 0 1 45.935621,38.997419 Z m 36.128758,0 A 7.2534447,12.729056 0 0 1 89.318356,51.72716 7.2534447,12.729056 0 0 1 82.064379,64.455138 7.2534447,12.729056 0 0 1 74.810402,51.72716 7.2534447,12.729056 0 0 1 82.064379,38.997419 Z M 31.036037,78.451503 c 31.882912,24.761467 49.000239,12.608959 65.934985,0 l 0.90322,1.806438 c -18.136452,19.998119 -38.570008,29.659249 -67.741423,0 z"
     id="path831"
     inkscape:connector-curvature="0" />
</svg>
