<svg enable-background="new 0 0 128 128" height="128" viewBox="0 0 128 128" width="128" xmlns="http://www.w3.org/2000/svg" xmlns:xlink="http://www.w3.org/1999/xlink"><filter id="a"><feGaussianBlur stdDeviation="1.0394514"/></filter><filter id="b"><feGaussianBlur stdDeviation=".50063244"/></filter><path d="m23 9 .04082 113.99347 85.46279.0763c.375-.375.586-.884.586-1.414v-112.65577z" filter="url(#a)" opacity=".306849" transform="matrix(0 1.0090419 -1.003276 0 127.07723 -1.871126)"/><path d="m23 9.9655172.04082 113.0279528 85.46279.0763c.375-.375.586-.884.586-1.414v-111.6902328h-86.089606z" filter="url(#a)" opacity=".306849" transform="matrix(0 1.0090419 -1.003276 0 127.07723 -1.871126)"/><path d="m23 8.9687825.04082 114.0246875 85.46279.0763c.375-.375.586-.884.586-1.414v-112.6869675h-86.089606z" filter="url(#a)" opacity=".553425" transform="matrix(0 1.0090419 -1.003276 0 127.07723 -1.871126)"/><path d="m24.919999 10.931136v109.932054l81.663611-.0578c.375-.375.586-.884.586-1.414v-108.460224h-82.249611z" filter="url(#b)" opacity=".89589" transform="matrix(0 1.0090419 -1.003276 0 127.07723 -1.871126)"/><path d="m116.11028 23.2742h-110.29218l-.0325 80.42566c.36325.36326.85631.56764 1.36971.56764h108.95499v-80.9933z" fill="#80b3ff"/><path d="m66.479551-19.699213h2.79471z" fill="#fff" fill-opacity=".756881"/><g fill="#eee"><path d="m104.87576 28.946304h5.67844v69.743623h-5.67844z"/><path d="m11.646499 28.872728h5.8181v69.8172h-5.8181z"/><path d="m17.4646 92.871826h87.2715v5.8181h-87.2715z"/><path d="m17.4646 28.872728h87.2715v5.8181h-87.2715z"/><path d="m17.4543 46.5466h87.2715v5.8181h-87.2715z"/></g></svg>