<?xml version="1.0" encoding="UTF-8" standalone="no"?>
<svg
   xmlns:dc="http://purl.org/dc/elements/1.1/"
   xmlns:cc="http://creativecommons.org/ns#"
   xmlns:rdf="http://www.w3.org/1999/02/22-rdf-syntax-ns#"
   xmlns:svg="http://www.w3.org/2000/svg"
   xmlns="http://www.w3.org/2000/svg"
   xmlns:xlink="http://www.w3.org/1999/xlink"
   xmlns:sodipodi="http://sodipodi.sourceforge.net/DTD/sodipodi-0.dtd"
   xmlns:inkscape="http://www.inkscape.org/namespaces/inkscape"
   height="128"
   viewBox="0 0 128 128"
   width="128"
   version="1.1"
   id="svg31"
   sodipodi:docname="lc_starshapes.star24.svg"
   inkscape:version="0.92.3 (unknown)"
   inkscape:export-filename="/home/rizmut/Dokumen/Rizmut/Github/libreoffice-style-karasa-jaga/build/images_karasa_jaga/cmd/lc_starshapes.star24.png"
   inkscape:export-xdpi="16.5"
   inkscape:export-ydpi="16.5">
  <metadata
     id="metadata37">
    <rdf:RDF>
      <cc:Work
         rdf:about="">
        <dc:format>image/svg+xml</dc:format>
        <dc:type
           rdf:resource="http://purl.org/dc/dcmitype/StillImage" />
        <dc:title></dc:title>
      </cc:Work>
    </rdf:RDF>
  </metadata>
  <defs
     id="defs35">
    <linearGradient
       id="linearGradient3369">
      <stop
         id="stop3372"
         offset="0"
         style="stop-color:#ffffff;stop-opacity:1;" />
      <stop
         style="stop-color:#ffffff;stop-opacity:1;"
         offset="0.46428573"
         id="stop3374" />
      <stop
         style="stop-color:#f1f1f1;stop-opacity:1;"
         offset="0.78125"
         id="stop3376" />
      <stop
         id="stop3378"
         offset="0.90625"
         style="stop-color:#eaeaea;stop-opacity:1;" />
      <stop
         id="stop3384"
         offset="1"
         style="stop-color:#dfdfdf;stop-opacity:1;" />
    </linearGradient>
    <linearGradient
       id="linearGradient7422">
      <stop
         style="stop-color:#7c9fcf;stop-opacity:1"
         offset="0"
         id="stop7424" />
      <stop
         id="stop5348"
         offset="0.5"
         style="stop-color:#7c9ece;stop-opacity:1" />
      <stop
         id="stop7426"
         offset="1"
         style="stop-color:#7b9dcf;stop-opacity:1" />
    </linearGradient>
    <linearGradient
       inkscape:collect="always"
       xlink:href="#linearGradient3369"
       id="linearGradient1628"
       gradientUnits="userSpaceOnUse"
       gradientTransform="matrix(0.99781344,0,0,0.99781344,-2.6678215,2.6660249)"
       x1="60.589611"
       y1="-125.51829"
       x2="66.703278"
       y2="-1.7746032" />
    <linearGradient
       inkscape:collect="always"
       xlink:href="#linearGradient7422"
       id="linearGradient1718"
       x1="1.7076066"
       y1="-61.193096"
       x2="120.67716"
       y2="-61.193096"
       gradientUnits="userSpaceOnUse" />
  </defs>
  <sodipodi:namedview
     pagecolor="#ffffff"
     bordercolor="#666666"
     borderopacity="1"
     objecttolerance="10"
     gridtolerance="10"
     guidetolerance="10"
     inkscape:pageopacity="0"
     inkscape:pageshadow="2"
     inkscape:window-width="1366"
     inkscape:window-height="706"
     id="namedview33"
     showgrid="true"
     inkscape:zoom="4"
     inkscape:cx="79.796313"
     inkscape:cy="50.743075"
     inkscape:window-x="-1"
     inkscape:window-y="2"
     inkscape:window-maximized="0"
     inkscape:current-layer="svg31"
     inkscape:snap-global="false">
    <inkscape:grid
       type="xygrid"
       id="grid844"
       spacingx="5.8181"
       spacingy="5.8181"
       empspacing="1" />
  </sodipodi:namedview>
  <linearGradient
     id="a">
    <stop
       offset="0"
       stop-color="#f9f9fa"
       id="stop2" />
    <stop
       offset="1"
       stop-color="#f9f9fa"
       stop-opacity="0"
       id="stop4" />
  </linearGradient>
  <linearGradient
     id="b"
     gradientUnits="userSpaceOnUse"
     x1="42.276669"
     x2="-13.469376"
     xlink:href="#a"
     y1="50.867565"
     y2="104.97279" />
  <linearGradient
     id="c"
     gradientUnits="userSpaceOnUse"
     x1="-1.817377"
     x2="2.172436"
     xlink:href="#a"
     y1="55.003803"
     y2="116.784" />
  <path
     sodipodi:type="inkscape:offset"
     inkscape:radius="5.85811"
     inkscape:original="M 61.191406 -114.82031 L 55.515625 -99.123047 L 47.3125 -112.99414 L 45.892578 -96.361328 L 34.378906 -107.63672 L 37.3125 -91.203125 L 23.271484 -99.113281 L 30.359375 -84 L 14.75 -88.007812 L 25.507812 -75.242188 L 9.3925781 -75.074219 L 23.085938 -65.527344 L 7.5664062 -61.193359 L 23.263672 -55.517578 L 9.3925781 -47.314453 L 26.025391 -45.894531 L 14.75 -34.380859 L 31.183594 -37.314453 L 23.271484 -23.273438 L 38.386719 -30.361328 L 34.378906 -14.751953 L 47.144531 -25.507812 L 47.3125 -9.3945312 L 56.859375 -23.087891 L 61.191406 -7.5664062 L 66.869141 -23.265625 L 75.072266 -9.3945312 L 76.492188 -26.027344 L 88.005859 -14.751953 L 85.072266 -31.185547 L 99.111328 -23.273438 L 92.025391 -38.388672 L 107.63477 -34.380859 L 96.876953 -47.144531 L 112.99219 -47.314453 L 99.296875 -56.859375 L 114.81836 -61.193359 L 99.121094 -66.871094 L 112.99219 -75.074219 L 96.359375 -76.494141 L 107.63477 -88.007812 L 91.201172 -85.074219 L 99.111328 -99.113281 L 83.998047 -92.027344 L 88.005859 -107.63672 L 75.240234 -96.878906 L 75.072266 -112.99414 L 65.525391 -99.298828 L 61.191406 -114.82031 z "
     style="opacity:1;fill:url(#linearGradient1718);fill-opacity:1.0;stroke:none;stroke-width:6.96735382;stroke-linecap:round;stroke-linejoin:round;stroke-miterlimit:4;stroke-dasharray:none;stroke-dashoffset:0;stroke-opacity:1"
     id="path1708"
     d="m 61.181641,-120.67773 a 5.8586958,5.8586958 0 0 0 -5.5,3.86523 l -1.449219,4.00977 -1.876953,-3.17383 a 5.8586958,5.8586958 0 0 0 -10.878907,2.48437 l -0.363281,4.25 -2.634765,-2.58008 a 5.8586958,5.8586958 0 0 0 -9.867188,5.21485 l 0.75,4.20117 -3.214844,-1.81055 a 5.8586958,5.8586958 0 0 0 -8.179687,7.5918 l 1.810547,3.859375 -3.570313,-0.916016 a 5.8586958,5.8586958 0 0 0 -5.9375,9.449219 l 2.75,3.261719 -3.6874998,0.03906 a 5.8586958,5.8586958 0 0 0 -3.2890624,10.66211 l 3.5019531,2.441406 -3.5546875,0.992187 a 5.8586958,5.8586958 0 0 0 -0.4160156,11.152344 l 4.0097656,1.449219 -3.1738282,1.876953 a 5.8586958,5.8586958 0 0 0 2.484375,10.878906 l 4.2499998,0.363282 -2.580078,2.634765 a 5.8586958,5.8586958 0 0 0 5.214844,9.867188 l 4.199219,-0.75 -1.810547,3.214843 a 5.8586958,5.8586958 0 0 0 7.589843,8.179688 l 3.865235,-1.8125 -0.917969,3.572266 a 5.8586958,5.8586958 0 0 0 9.449219,5.9375 l 3.261719,-2.748047 0.03906,3.6855466 a 5.8586958,5.8586958 0 0 0 10.66211,3.2890625 l 2.439453,-3.5 0.992187,3.5527344 a 5.8586958,5.8586958 0 0 0 11.152344,0.4179687 l 1.451172,-4.0117187 1.876953,3.1738281 a 5.8586958,5.8586958 0 0 0 10.878906,-2.484375 l 0.363281,-4.2499996 2.634766,2.580078 a 5.8586958,5.8586958 0 0 0 9.867188,-5.214844 l -0.75,-4.197266 3.210937,1.808594 a 5.8586958,5.8586958 0 0 0 8.181645,-7.589844 l -1.8125,-3.865234 3.57421,0.917969 a 5.8586958,5.8586958 0 0 0 5.93555,-9.449219 l -2.75,-3.261719 3.69141,-0.03906 a 5.8586958,5.8586958 0 0 0 3.28711,-10.664063 l -3.49805,-2.4375 3.55078,-0.992187 a 5.8586958,5.8586958 0 0 0 0.41602,-11.152344 l -4.00977,-1.451172 3.17383,-1.876953 a 5.8586958,5.8586958 0 0 0 -2.48438,-10.878906 l -4.25,-0.363282 2.58008,-2.634765 a 5.8586958,5.8586958 0 0 0 -5.21484,-9.867188 l -4.20117,0.75 1.81054,-3.21289 A 5.8586958,5.8586958 0 0 0 96.625,-104.41797 l -3.863281,1.81055 0.917969,-3.57227 a 5.8586958,5.8586958 0 0 0 -9.449219,-5.9375 l -3.261719,2.75 -0.03906,-3.6875 a 5.8586958,5.8586958 0 0 0 -10.664063,-3.28906 l -2.439453,3.5 -0.992188,-3.55273 a 5.8586958,5.8586958 0 0 0 -5.652343,-4.28125 z"
     transform="matrix(0.93863231,-0.25692132,-0.25692132,-0.93863231,-6.5049289,22.13227)" />
  <path
     transform="matrix(0.93863231,-0.25692132,-0.25692132,-0.93863231,-6.5049289,22.13227)"
     d="M 61.192239,-7.5672876 56.858429,-23.088619 47.312615,-9.3945745 47.143692,-25.508702 34.378864,-14.751909 38.38634,-30.360681 23.2724,-23.274198 31.183172,-37.313903 14.75011,-34.380662 26.025072,-45.894517 9.3927747,-47.314413 23.263557,-55.517768 7.5654871,-61.194037 23.086818,-65.527847 9.3927739,-75.073661 25.506901,-75.242584 14.750109,-88.007413 l 15.608772,4.007477 -7.086483,-15.113941 14.039705,7.910773 -2.933242,-16.433066 11.513855,11.274966 1.419896,-16.632296 8.203355,13.870781 5.676269,-15.698071 4.33381,15.521332 9.545815,-13.694042 0.168923,16.114125 12.764828,-10.756795 -4.007476,15.608775 15.11394,-7.086484 -7.910772,14.039705 16.433066,-2.933241 -11.274967,11.513855 16.632297,1.419896 -13.870781,8.203355 15.698071,5.676269 -15.521333,4.33381 13.694043,9.545815 -16.114125,0.168922 10.756795,12.764829 -15.608775,-4.007476 7.086483,15.11394 -14.039705,-7.910772 2.933241,16.433061 -11.513855,-11.274962 -1.419895,16.6322978 -8.203355,-13.8707818 z"
     inkscape:randomized="0"
     inkscape:rounded="0"
     inkscape:flatsided="false"
     sodipodi:arg2="1.6840418"
     sodipodi:arg1="1.5707963"
     sodipodi:r2="38.351075"
     sodipodi:r1="53.626751"
     sodipodi:cy="-61.194038"
     sodipodi:cx="61.192238"
     sodipodi:sides="24"
     id="path1626"
     style="opacity:1;fill:url(#linearGradient1628);fill-opacity:1;stroke:none;stroke-width:6.96735382;stroke-linecap:round;stroke-linejoin:round;stroke-miterlimit:4;stroke-dasharray:none;stroke-dashoffset:0;stroke-opacity:1"
     sodipodi:type="star" />
  <text
     xml:space="preserve"
     style="font-style:normal;font-weight:normal;font-size:40px;line-height:125%;font-family:sans-serif;letter-spacing:0px;word-spacing:0px;fill:#000000;fill-opacity:1;stroke:none;stroke-width:1px;stroke-linecap:butt;stroke-linejoin:miter;stroke-opacity:1"
     x="51.5"
     y="74"
     id="text1644"><tspan
       sodipodi:role="line"
       id="tspan1642"
       x="51.5"
       y="109.39062"></tspan></text>
  <text
     xml:space="preserve"
     style="font-style:normal;font-weight:normal;font-size:49.32023621px;line-height:125%;font-family:sans-serif;letter-spacing:0px;word-spacing:0px;fill:#ae1010;fill-opacity:1;stroke:none;stroke-width:1.23300588px;stroke-linecap:butt;stroke-linejoin:miter;stroke-opacity:1"
     x="39.265606"
     y="81.484024"
     id="text960"><tspan
       sodipodi:role="line"
       id="tspan958"
       x="39.265606"
       y="81.484024"
       style="font-style:normal;font-variant:normal;font-weight:normal;font-stretch:normal;font-family:FreeSans;-inkscape-font-specification:FreeSans;fill:#ae1010;fill-opacity:1;stroke-width:1.23300588px">24</tspan></text>
</svg>
