<?xml version="1.0" encoding="UTF-8" standalone="no"?>
<svg
   xmlns:dc="http://purl.org/dc/elements/1.1/"
   xmlns:cc="http://creativecommons.org/ns#"
   xmlns:rdf="http://www.w3.org/1999/02/22-rdf-syntax-ns#"
   xmlns:svg="http://www.w3.org/2000/svg"
   xmlns="http://www.w3.org/2000/svg"
   xmlns:sodipodi="http://sodipodi.sourceforge.net/DTD/sodipodi-0.dtd"
   xmlns:inkscape="http://www.inkscape.org/namespaces/inkscape"
   enable-background="new 0 0 128 128"
   height="128"
   viewBox="0 0 128 128"
   width="128"
   version="1.1"
   id="svg3192"
   sodipodi:docname="lc_showsinglepage.svg"
   inkscape:version="0.92.3 (unknown)">
  <metadata
     id="metadata3198">
    <rdf:RDF>
      <cc:Work
         rdf:about="">
        <dc:format>image/svg+xml</dc:format>
        <dc:type
           rdf:resource="http://purl.org/dc/dcmitype/StillImage" />
      </cc:Work>
    </rdf:RDF>
  </metadata>
  <defs
     id="defs3196" />
  <sodipodi:namedview
     pagecolor="#ffffff"
     bordercolor="#666666"
     borderopacity="1"
     objecttolerance="10"
     gridtolerance="10"
     guidetolerance="10"
     inkscape:pageopacity="0"
     inkscape:pageshadow="2"
     inkscape:window-width="1366"
     inkscape:window-height="706"
     id="namedview3194"
     showgrid="false"
     inkscape:zoom="1.84375"
     inkscape:cx="-5.6949153"
     inkscape:cy="64"
     inkscape:window-x="0"
     inkscape:window-y="0"
     inkscape:window-maximized="1"
     inkscape:current-layer="svg3192" />
  <linearGradient
     id="a"
     gradientUnits="userSpaceOnUse"
     x1="88.591797"
     x2="71.262016"
     y1="96.592697"
     y2="79.262917">
    <stop
       offset="0"
       stop-color="#fff"
       id="stop3094" />
    <stop
       offset="1"
       stop-color="#555753"
       id="stop3096" />
  </linearGradient>
  <linearGradient
     id="b"
     gradientUnits="userSpaceOnUse"
     x1="85.219681"
     x2="61.336319"
     y1="93.219681"
     y2="69.336319">
    <stop
       offset="0"
       id="stop3099" />
    <stop
       offset="1"
       stop-color="#393b38"
       id="stop3101" />
  </linearGradient>
  <linearGradient
     id="c"
     gradientUnits="userSpaceOnUse"
     x1="96"
     x2="88.0002"
     y1="104"
     y2="96.0002">
    <stop
       offset="0"
       stop-color="#888a85"
       id="stop3104" />
    <stop
       offset=".0072"
       stop-color="#8c8e89"
       id="stop3106" />
    <stop
       offset=".0673"
       stop-color="#abaca9"
       id="stop3108" />
    <stop
       offset=".1347"
       stop-color="#c5c6c4"
       id="stop3110" />
    <stop
       offset=".2115"
       stop-color="#dbdbda"
       id="stop3112" />
    <stop
       offset=".3012"
       stop-color="#ebebeb"
       id="stop3114" />
    <stop
       offset=".4122"
       stop-color="#f7f7f6"
       id="stop3116" />
    <stop
       offset=".5679"
       stop-color="#fdfdfd"
       id="stop3118" />
    <stop
       offset="1"
       stop-color="#fff"
       id="stop3120" />
  </linearGradient>
  <radialGradient
     id="d"
     cx="102"
     cy="112.3047"
     gradientTransform="matrix(.94807 0 0 .9510679 3.32352 5.274458)"
     gradientUnits="userSpaceOnUse"
     r="139.55859">
    <stop
       offset="0"
       stop-color="#535557"
       id="stop3123" />
    <stop
       offset=".11366145"
       stop-color="#898a8c"
       id="stop3125" />
    <stop
       offset=".20296688"
       stop-color="#ececec"
       id="stop3127" />
    <stop
       offset=".2363"
       stop-color="#fafafa"
       id="stop3129" />
    <stop
       offset=".2722"
       stop-color="#fff"
       id="stop3131" />
    <stop
       offset=".5313"
       stop-color="#fafafa"
       id="stop3133" />
    <stop
       offset=".8449"
       stop-color="#ebecec"
       id="stop3135" />
    <stop
       offset="1"
       stop-color="#e1e2e3"
       id="stop3137" />
  </radialGradient>
  <radialGradient
     id="e"
     cx="100.8098464"
     cy="112.93460525694"
     gradientUnits="userSpaceOnUse"
     r="135.1875556917">
    <stop
       offset="0"
       stop-color="#3e3e3e"
       id="stop3140" />
    <stop
       offset=".0151"
       stop-color="#505050"
       id="stop3142" />
    <stop
       offset=".0558"
       stop-color="#7e7e7e"
       id="stop3144" />
    <stop
       offset=".1357"
       stop-color="#c6c6c6"
       id="stop3146" />
    <stop
       offset=".20990001"
       stop-color="#f1f1f1"
       id="stop3148" />
    <stop
       offset=".24349999"
       stop-color="#fcfcfc"
       id="stop3150" />
    <stop
       offset=".2722"
       stop-color="#fff"
       id="stop3152" />
  </radialGradient>
  <filter
     id="f">
    <feGaussianBlur
       stdDeviation="1.0394514"
       id="feGaussianBlur3155" />
  </filter>
  <filter
     id="g">
    <feGaussianBlur
       stdDeviation=".50063244"
       id="feGaussianBlur3158" />
  </filter>
  <filter
     id="h">
    <feGaussianBlur
       stdDeviation=".40750996"
       id="feGaussianBlur3161" />
  </filter>
  <filter
     id="i">
    <feGaussianBlur
       stdDeviation=".4901192"
       id="feGaussianBlur3164" />
  </filter>
  <filter
     id="j">
    <feGaussianBlur
       stdDeviation=".90565481"
       id="feGaussianBlur3167" />
  </filter>
  <g
     id="g3766">
    <g
       id="g3752">
      <path
         d="m23 8.9687825.040816 114.0246875h61.131184c.53 0 1.039-.211 1.414-.586l32.828-32.828001c.375-.375.586-.884.586-1.414v-79.1966865z"
         filter="url(#f)"
         opacity=".553425"
         transform="matrix(1.0090419 0 0 1.003276 -7.641977 .929762)"
         id="path3170" />
      <path
         d="m23 9 .04082 113.99347h61.13118c.53 0 1.039-.211 1.414-.586l32.828-32.828001c.375-.375.586-.884.586-1.414v-79.165469z"
         filter="url(#f)"
         opacity=".306849"
         transform="matrix(1.0090419 0 0 1.003276 -7.641977 .929762)"
         id="path3172" />
      <path
         d="m24.905735 10.673272.01426 110.189918 58.676001-.0001c.53 0 1.039-.211 1.414-.586l31.484-31.765934c.375-.375.586-.884.586-1.414l.0812-76.423884z"
         filter="url(#g)"
         opacity=".89589"
         transform="matrix(1.0090419 0 0 1.003276 -7.641977 .929762)"
         id="path3174" />
      <path
         d="m23 9.9655172.040816 113.0279528h61.131184c.53 0 1.039-.211 1.414-.586l32.828-32.828001c.375-.375.586-.884.586-1.414v-78.1999518z"
         filter="url(#f)"
         opacity=".306849"
         transform="matrix(1.0090419 0 0 1.003276 -7.641977 .929762)"
         id="path3176" />
      <path
         d="m17.488953 11.638.0144 110.55089h59.256106c.513401 0 1.006458-.20439 1.369714-.56765l31.799827-31.799829c.36326-.363255.56764-.856313.56764-1.369714l.08191-76.813697z"
         fill="url(#e)"
         id="path3178" />
      <path
         d="m24.066856 17.512144c-.522387 0-.94807.42703-.94807.951069l.321923 96.737247c0 .525.425684.95108.94807.95108h52.099199c.249342 0 .493944-.10082.670284-.27867l28.123238-27.221657c.17729-.17785.27778-.422273.27778-.672405l-.7-69.493672c0-.524039-.42473-.951068-.94806-.951068z"
         fill="url(#d)"
         id="path3180" />
    </g>
    <g
       id="g3190"
       transform="matrix(1.1080161 0 0 1.1080161 -12.744784 -10.01667)">
      <path
         id="path3182"
         opacity=".750685"
         filter="url(#h)"
         fill="url(#a)"
         d="m111.414 86.586c.25-.25-26.379-1.586-31.414-1.586-1.654 0-3 1.346-3 3 0 5.035 1.336 31.664 1.586 31.414z" />
      <path
         id="path3184"
         opacity=".2"
         filter="url(#j)"
         d="m111.414 86.586c.375-.375-21.97-.586-31.414-.586-1.103 0-2 .897-2 2 0 9.444.211 31.789.586 31.414z" />
      <path
         id="path3186"
         opacity=".1"
         filter="url(#i)"
         fill="url(#b)"
         d="m111.414 86.586c.239-.239-21.607.414-31.414.414-.553 0-1 .447-1 1 0 9.807-.653 31.653-.414 31.414z" />
      <path
         id="path3188"
         fill="url(#c)"
         d="m79.721619 119.31106 31.505501-31.505504h-31.505501z" />
    </g>
  </g>
</svg>
