<?xml version="1.0" encoding="UTF-8" standalone="no"?>
<!-- Created with Inkscape (http://www.inkscape.org/) -->

<svg
   xmlns:dc="http://purl.org/dc/elements/1.1/"
   xmlns:cc="http://creativecommons.org/ns#"
   xmlns:rdf="http://www.w3.org/1999/02/22-rdf-syntax-ns#"
   xmlns:svg="http://www.w3.org/2000/svg"
   xmlns="http://www.w3.org/2000/svg"
   xmlns:xlink="http://www.w3.org/1999/xlink"
   xmlns:sodipodi="http://sodipodi.sourceforge.net/DTD/sodipodi-0.dtd"
   xmlns:inkscape="http://www.inkscape.org/namespaces/inkscape"
   version="1.1"
   id="svg2"
   width="128"
   height="128"
   viewBox="0 0 128 128"
   sodipodi:docname="lc_symbolshapes.cloud.svg"
   inkscape:export-filename="/home/rizmut/Dokumen/Rizmut/Github/libreoffice-style-karasa-jaga/build/images_karasa_jaga/cmd/lc_symbolshapes.cloud.png"
   inkscape:export-xdpi="16.5"
   inkscape:export-ydpi="16.5"
   inkscape:version="0.92.3 (unknown)">
  <metadata
     id="metadata8">
    <rdf:RDF>
      <cc:Work
         rdf:about="">
        <dc:format>image/svg+xml</dc:format>
        <dc:type
           rdf:resource="http://purl.org/dc/dcmitype/StillImage" />
        <dc:title></dc:title>
      </cc:Work>
    </rdf:RDF>
  </metadata>
  <defs
     id="defs6">
    <linearGradient
       inkscape:collect="always"
       xlink:href="#linearGradient3369"
       id="linearGradient2241"
       x1="60"
       y1="128"
       x2="60"
       y2="8"
       gradientUnits="userSpaceOnUse"
       gradientTransform="matrix(1.0524795,0,0,1.0202883,-3.6817637,-2.5568609)" />
    <linearGradient
       id="linearGradient3369">
      <stop
         id="stop3372"
         offset="0"
         style="stop-color:#ffffff;stop-opacity:1;" />
      <stop
         style="stop-color:#ffffff;stop-opacity:1;"
         offset="0.53340602"
         id="stop3374" />
      <stop
         style="stop-color:#f1f1f1;stop-opacity:1;"
         offset="0.83333331"
         id="stop3376" />
      <stop
         id="stop3378"
         offset="0.89999998"
         style="stop-color:#eaeaea;stop-opacity:1;" />
      <stop
         id="stop3384"
         offset="1"
         style="stop-color:#dfdfdf;stop-opacity:1;" />
    </linearGradient>
    <linearGradient
       id="linearGradient7422">
      <stop
         style="stop-color:#7c9fcf;stop-opacity:1"
         offset="0"
         id="stop7424" />
      <stop
         id="stop5348"
         offset="0.5"
         style="stop-color:#7c9ece;stop-opacity:1" />
      <stop
         id="stop7426"
         offset="1"
         style="stop-color:#7b9dcf;stop-opacity:1" />
    </linearGradient>
    <linearGradient
       inkscape:collect="always"
       xlink:href="#linearGradient7422"
       id="linearGradient850"
       x1="-0.69921905"
       y1="61.139648"
       x2="128.70898"
       y2="61.139648"
       gradientUnits="userSpaceOnUse" />
  </defs>
  <sodipodi:namedview
     pagecolor="#ffffff"
     bordercolor="#666666"
     borderopacity="1"
     objecttolerance="10"
     gridtolerance="10"
     guidetolerance="10"
     inkscape:pageopacity="0"
     inkscape:pageshadow="2"
     inkscape:window-width="1366"
     inkscape:window-height="706"
     id="namedview4"
     showgrid="true"
     inkscape:snap-page="true"
     inkscape:snap-global="true"
     inkscape:zoom="1.2247144"
     inkscape:cx="-74.908016"
     inkscape:cy="57.380797"
     inkscape:window-x="0"
     inkscape:window-y="0"
     inkscape:window-maximized="1"
     inkscape:current-layer="svg2"
     inkscape:snap-smooth-nodes="true">
    <inkscape:grid
       type="xygrid"
       id="grid837"
       spacingx="5.8181"
       spacingy="5.8181"
       empspacing="1" />
  </sodipodi:namedview>
  <path
     sodipodi:type="inkscape:offset"
     inkscape:radius="6.4949927"
     inkscape:original="M 91.923828 11.734375 C 88.219902 11.737075 84.69836 13.299829 82.275391 16.015625 C 79.866514 13.551151 76.519809 12.154805 73.017578 12.152344 C 67.808689 12.156144 63.124809 15.227056 61.181641 19.912109 C 59.329023 19.254043 57.371494 18.912659 55.398438 18.90625 C 49.918889 18.91135 44.779628 21.482086 41.597656 25.806641 C 40.078431 25.379319 38.505703 25.15927 36.923828 25.154297 C 27.550362 25.154978 19.950739 32.522607 19.951172 41.609375 C 19.957272 42.350283 20.016087 43.088894 20.125 43.822266 C 12.059603 45.336546 6.2317711 52.178584 6.2246094 60.142578 C 6.2274694 63.273662 7.1409556 66.340272 8.8613281 68.990234 C 6.8666236 71.774116 5.7971477 75.083088 5.7949219 78.472656 C 5.7956055 87.661783 13.47993 95.109814 22.958984 95.109375 C 24.819968 95.102575 26.668109 94.802477 28.429688 94.220703 C 28.428187 94.247273 28.427081 94.274201 28.425781 94.300781 C 28.426582 102.87573 35.597845 109.82649 44.443359 109.82617 C 48.393594 109.81917 52.201965 108.39727 55.136719 105.83398 C 58.304238 108.84775 62.561734 110.53892 67 110.54492 C 73.875432 110.54192 80.070591 106.51894 82.6875 100.35547 C 84.155103 100.75402 85.671225 100.95872 87.195312 100.96484 C 96.56878 100.96526 104.16727 93.598487 104.16797 84.511719 C 104.16597 81.88025 103.51466 79.287514 102.26562 76.951172 C 103.24832 77.126328 104.24499 77.217488 105.24414 77.222656 C 114.61762 77.221975 122.21527 69.856299 122.21484 60.769531 C 122.20984 54.265879 118.25254 48.375539 112.11914 45.740234 C 114.24656 43.468126 115.42827 40.509915 115.43359 37.441406 C 115.42559 31.34801 110.84339 26.167398 104.63281 25.228516 C 104.66931 24.857567 104.68951 24.483958 104.69141 24.111328 C 104.6914 17.275718 98.975109 11.734384 91.923828 11.734375 z "
     style="opacity:1;fill:url(#linearGradient850);fill-opacity:1.0;stroke:none;stroke-width:4.14503527;stroke-linecap:square;stroke-linejoin:bevel;stroke-miterlimit:4;stroke-dasharray:none;stroke-dashoffset:0;stroke-opacity:0.72941176"
     id="path840"
     d="M 91.919922,5.2402344 C 88.418194,5.242787 85.065258,6.2676315 82.105469,8 79.32018,6.5288503 76.231382,5.6604587 73.021484,5.6582031 a 6.4956422,6.4956422 0 0 0 -0.0078,0 c -5.852584,0.00427 -11.319529,2.6273017 -14.933594,6.9882809 -0.884467,-0.10211 -1.76612,-0.231471 -2.660156,-0.234375 a 6.4956422,6.4956422 0 0 0 -0.02734,0 c -6.117049,0.0057 -11.872511,2.435162 -16.222656,6.558594 -0.747971,-0.07307 -1.472818,-0.308177 -2.226563,-0.310547 a 6.4956422,6.4956422 0 0 0 -0.01953,0 c -11.924566,8.67e-4 -21.914329,8.955162 -23.208984,20.476563 -8.2528257,3.654921 -13.97603925,11.730153 -13.98437525,21 a 6.4956422,6.4956422 0 0 0 0,0.01172 c 0.00268,2.934032 0.7713784,5.749714 1.86718745,8.447265 -1.48453397,3.069753 -2.29461819,6.436328 -2.29687495,9.873047 a 6.4956422,6.4956422 0 0 0 0,0.0039 C -0.6982658,91.282441 10.077536,101.60411 22.958984,101.60352 a 6.4956422,6.4956422 0 0 0 0.02344,0 c 0.10813,-4e-4 0.214207,-0.0255 0.322266,-0.0273 3.121326,8.58145 11.467482,14.74449 21.138671,14.74414 a 6.4956422,6.4956422 0 0 0 0.01172,0 c 3.68451,-0.007 7.252965,-0.96423 10.472656,-2.63476 3.629373,2.1426 7.776961,3.34772 12.064454,3.35351 a 6.4956422,6.4956422 0 0 0 0.0098,0 c 7.662195,-0.003 14.738513,-3.70713 19.095703,-9.72461 0.361159,0.0178 0.710269,0.14308 1.072266,0.14453 a 6.4956422,6.4956422 0 0 0 0.02539,0 c 12.776645,5.8e-4 23.465818,-10.239958 23.466798,-22.947261 a 6.4956422,6.4956422 0 0 0 0,-0.0059 c -3.7e-4,-0.482334 -0.14644,-0.945948 -0.17773,-1.425781 10.32109,-2.349192 18.22512,-11.395719 18.2246,-22.310547 a 6.4956422,6.4956422 0 0 0 0,-0.0059 c -0.005,-6.669809 -3.03833,-12.813386 -7.92773,-17.078125 0.71667,-1.988291 1.14276,-4.083471 1.14648,-6.232422 a 6.4956422,6.4956422 0 0 0 0,-0.01953 c -0.01,-7.479258 -4.57938,-13.961505 -11.125,-16.992188 C 109.02927,11.756285 101.12002,5.2402461 91.923828,5.2402344 a 6.4956422,6.4956422 0 0 0 -0.0039,0 z" />
  <path
     style="opacity:1;fill:url(#linearGradient2241);fill-opacity:1;stroke:none;stroke-width:4.14503527;stroke-linecap:square;stroke-linejoin:bevel;stroke-miterlimit:4;stroke-dasharray:none;stroke-dashoffset:0;stroke-opacity:0.72941176"
     d="m 91.923257,11.735147 c -3.703926,0.0027 -7.224075,1.564633 -9.647044,4.280429 -2.408877,-2.464474 -5.7563,-3.861483 -9.258531,-3.863944 -5.208889,0.0038 -9.893115,3.074718 -11.836283,7.759771 -1.852618,-0.658066 -3.809414,-0.997938 -5.78247,-1.004347 -5.479548,0.0051 -10.619489,2.574348 -13.801461,6.898903 -1.519225,-0.427322 -3.092614,-0.646655 -4.674489,-0.651628 -9.373466,6.81e-4 -16.971666,7.367374 -16.971233,16.454142 0.0061,0.740908 0.06376,1.480574 0.172673,2.213946 -8.065397,1.51428 -13.8929685,8.356634 -13.9001302,16.320628 0.00286,3.131084 0.9169934,6.197851 2.6373659,8.847813 -1.9947045,2.783882 -3.0647656,6.091941 -3.0669914,9.481509 6.836e-4,9.189127 7.6854067,16.637914 17.1644607,16.637475 1.860984,-0.0068 3.708438,-0.306993 5.470016,-0.888767 -0.0015,0.02657 -0.0028,0.05313 -0.0041,0.07971 8.01e-4,8.574953 7.171909,15.525853 16.017423,15.525533 3.950235,-0.007 7.758603,-1.42819 10.693357,-3.99148 3.167519,3.01377 7.426795,4.70486 11.865061,4.71086 6.875432,-0.003 13.069559,-4.02746 15.686468,-10.19093 1.467603,0.39855 2.983895,0.60366 4.507983,0.60978 9.373467,4.2e-4 16.972588,-7.365386 16.973288,-16.452154 -0.002,-2.631469 -0.65447,-5.224156 -1.90351,-7.560498 0.9827,0.175156 1.97944,0.265846 2.97859,0.271014 9.37348,-6.81e-4 16.97167,-7.367374 16.97124,-16.454142 -0.005,-6.503652 -3.96177,-12.39402 -10.09517,-15.029325 2.12742,-2.272108 3.30835,-5.229305 3.31367,-8.297814 -0.008,-6.093396 -4.58967,-11.274688 -10.80025,-12.21357 0.0365,-0.370949 0.0557,-0.74331 0.0576,-1.11594 -1e-5,-6.83561 -5.71619,-12.376966 -12.767471,-12.376975 z"
     id="path2212"
     inkscape:connector-curvature="0"
     sodipodi:nodetypes="ccccccccccccccccccccccccccccc" />
</svg>
