<svg height="128" viewBox="0 0 33.866666 33.866668" width="128" xmlns="http://www.w3.org/2000/svg" xmlns:xlink="http://www.w3.org/1999/xlink"><linearGradient id="a" gradientUnits="userSpaceOnUse" x1="18.99608880061" x2="20.22575014415" y1="294.82258903077" y2="266.54036534865"><stop offset="0" stop-color="#555"/><stop offset="1"/></linearGradient><linearGradient id="b" gradientUnits="userSpaceOnUse" x1="53.856667" x2="72.864624" y1="1.845663" y2="61.042988"><stop offset="0" stop-color="#3b3e22"/><stop offset="1" stop-color="#454545" stop-opacity="0"/></linearGradient><g transform="matrix(.82 0 0 .82 3.048 -212.717447)"><text style="font-size:40.897976;font-family:sans-serif;letter-spacing:0;word-spacing:0;stroke-width:1.022449;fill:url(#a)" x="4.710494" y="294.57053"><tspan fill="url(#a)" font-family="FreeSerif" font-size="43.038166" font-weight="bold" stroke-width="1.022449" x="4.710494" y="294.57053">S</tspan></text><path d="m94.570312 11.845703c-.228215.342803-.260038.841278-.539062 1.160156a3.5902063 3.5902063 0 0 1 -.164062.175782c-1.540993 1.540989-3.729464 2.193359-5.792969 2.193359-.876068 0-1.20645-.114805-1.794922-.244141-.588473-.129373-1.285078-.304591-2.119141-.53125-1.668121-.453241-3.897766-1.112312-6.738281-1.986328a3.5902063 3.5902063 0 0 1 -.06055-.02148c-.06476-.02116-.118922-.0084-.183594-.0293 1.888642 1.115225 3.862548 1.971938 5.603516 3.505859 5.024228 4.350501 8.730366 10.896299 11.789062 18.580079zm-45.783203.111328c-4.023322 1.311988-7.458507 3.25948-10.328125 5.882813-5.512264 5.138456-8.28125 12.035099-8.28125 21.599609.000001 6.401764 1.894032 11.749486 5.832032 16.564453.0019.0023.0039.0055.0059.0078 3.954993 4.723615 10.587345 9.497263 19.939453 14.017578l1.064453.507812a89.289298 44.891305 0 0 0 9.083985.238282 89.289298 44.891305 0 0 0 26.363281-2.048829c-2.589818-3.309035-5.591801-5.779546-9.080078-7.52539l-.0078-.0078-23.902344-11.86914a3.5902063 3.5902063 0 0 1 -.0078-.0078c-6.678019-3.338961-11.354629-6.244791-14.328191-9.353528a3.5902063 3.5902063 0 0 1 -.111328-.117188c-2.864636-3.273864-4.296875-7.522505-4.296875-12.121094 0-5.742652 1.9736-10.878431 5.861328-14.498047a3.5902063 3.5902063 0 0 1 .04492-.03711c.616184-.55457 1.468247-.76686 2.148437-1.232422z" fill="url(#b)" transform="matrix(.26458333 0 0 .26458333 0 263.13332)"/></g></svg>