<svg height="128" viewBox="0 0 33.866666 33.866668" width="128" xmlns="http://www.w3.org/2000/svg" xmlns:xlink="http://www.w3.org/1999/xlink"><linearGradient id="a" gradientUnits="userSpaceOnUse" x1="98.9077" x2="98.9077" y1="46.5466" y2="162.9086"><stop offset="0" stop-color="#99999c"/><stop offset=".5" stop-color="#9c9ca1"/><stop offset="1" stop-color="#cdcdd1"/></linearGradient><linearGradient id="b" gradientUnits="userSpaceOnUse" x1="78.61085034347" x2="120.34349451992" y1="88.85241574791" y2="111.54715161013"><stop offset="0" stop-color="#fff"/><stop offset="1" stop-color="#ccc"/></linearGradient><linearGradient id="c" gradientUnits="userSpaceOnUse" x1="88.38102" x2="130.48599" y1="1008.9966" y2="1015.6953"><stop offset="0" stop-color="#7b7b7b"/><stop offset="1" stop-color="#797979" stop-opacity="0"/></linearGradient><clipPath id="d"><path d="m41.355614 933.74432h83.943993v117.52166h-83.943993z"/></clipPath><filter id="e" color-interpolation-filters="sRGB" height="1.073732" width="1.13754" x="-.06877" y="-.036866"><feGaussianBlur stdDeviation="1.0557314"/></filter><linearGradient id="f" gradientUnits="userSpaceOnUse" x1="100.83452" x2="116.42799" y1="37.992622" y2="80.92411"><stop offset="0" stop-color="#fff" stop-opacity=".683453"/><stop offset="1" stop-color="#fff" stop-opacity="0"/></linearGradient><linearGradient id="g" gradientTransform="matrix(.58291629 0 0 .66676377 62.177025 -566.68964)" gradientUnits="userSpaceOnUse" x1="63.011921" x2="63.011921" y1="945.89801" y2="1033.1569"><stop offset="0" stop-color="#545454" stop-opacity=".988"/><stop offset="1" stop-color="#ebebeb"/></linearGradient><linearGradient id="h" gradientTransform="matrix(.48045402 0 0 .66178602 128.73476 -578.51587)" gradientUnits="userSpaceOnUse" x1="-60.535713" x2="-60.357143" y1="979.50507" y2="1009.505"><stop offset="0" stop-color="#979797"/><stop offset=".148461" stop-color="#f6f6f6"/><stop offset=".28399727" stop-color="#e2e2e2"/><stop offset=".41198727" stop-color="#dedede"/><stop offset=".41198727" stop-color="#f6f6f6"/><stop offset="1" stop-color="#6b6b6b"/></linearGradient><linearGradient id="i" gradientTransform="matrix(.480454 0 0 .58309338 128.76683 499.76645)" gradientUnits="userSpaceOnUse" x1="-61.078979" x2="-60.6413" y1="-1056.658" y2="-1010.9131"><stop offset="0" stop-color="#777"/><stop offset=".18176934" stop-color="#a8a8a8"/><stop offset=".22864534" stop-color="#cdcdcd"/><stop offset=".34561315" stop-color="#f7f7f7"/><stop offset="1" stop-color="#fff"/></linearGradient><filter id="j"><feGaussianBlur stdDeviation="1.0394514"/></filter><filter id="k"><feGaussianBlur stdDeviation=".50063244"/></filter><radialGradient id="l" cx="34.60599606153" cy="300.13016480835" gradientUnits="userSpaceOnUse" r="35.76837323786"><stop offset="0" stop-color="#3e3e3e"/><stop offset=".0151" stop-color="#505050"/><stop offset=".0558" stop-color="#7e7e7e"/><stop offset=".1357" stop-color="#c6c6c6"/><stop offset=".20990001" stop-color="#f1f1f1"/><stop offset=".24349999" stop-color="#fcfcfc"/><stop offset=".2722" stop-color="#fff"/></radialGradient><radialGradient id="m" cx="125.31705" cy="135.15717" gradientTransform="matrix(.23581753 0 0 .25163671 .982191 264.58029)" gradientUnits="userSpaceOnUse" r="139.55859"><stop offset="0" stop-color="#c3c5c6"/><stop offset=".11366145" stop-color="#e5e5e5"/><stop offset=".20296688" stop-color="#ececec"/><stop offset=".2363" stop-color="#fafafa"/><stop offset=".2722" stop-color="#fff"/><stop offset=".5313" stop-color="#fafafa"/><stop offset=".8449" stop-color="#ebecec"/><stop offset="1" stop-color="#e1e2e3"/></radialGradient><linearGradient id="n" gradientTransform="matrix(.49885536 0 0 .59156771 -9.266094 228.86429)" gradientUnits="userSpaceOnUse" x1="62.41972" x2="71.21479" y1="98.139114" y2="98.139114"><stop offset="0" stop-color="#00f"/><stop offset="1" stop-color="#00f" stop-opacity="0"/></linearGradient><g transform="translate(0 -263.13332)"><path d="m18.044804 9 .04082 113.99347 100.328376.0763c.375-.375.586-.884.586-1.414v-112.65577z" filter="url(#j)" opacity=".306849" transform="matrix(.26697567 0 0 .26545011 -3.522353 263.43076)"/><path d="m19.035844 5.9785784.04082 117.0148916 99.337336.0763c.375-.375.586-.884.586-1.414v-115.6771716h-99.964152z" filter="url(#j)" opacity=".306849" transform="matrix(.26697567 0 0 .26545011 -3.522353 263.43076)"/><path d="m19.035844 3.985109.04082 119.008361 99.337336.0763c.375-.375.586-.884.586-1.414v-117.670641h-99.964152z" filter="url(#j)" opacity=".553425" transform="matrix(.26697567 0 0 .26545011 -3.522353 263.43076)"/><path d="m16.991686 3.9539931v116.9091969l99.502314-.0578c.375-.375.586-.884.586-1.414v-115.4373669h-100.088314z" filter="url(#k)" opacity=".89589" transform="matrix(.26697567 0 0 .26545011 -3.522353 263.43076)"/><path d="m1.5431812 264.74493v30.76897l26.0417878.009c.09611-.0961.150188-.22657.150188-.3624v-30.41558h-26.1919758z" fill="url(#l)" stroke-width=".264583"/><path d="m3.1941558 266.23068c-.1299355 0-.2358175.11298-.2358175.25164l.080073 27.18256c0 .1389.1058823.25164.235818.25164l22.8694217.0528c.0441-.0471.06909-.11173.06909-.17791v-27.27687c0-.13865-.105645-.25163-.235815-.25163z" fill="url(#m)" stroke-width=".264583"/><path d="m-6.7580907 279.17453v-.73944z" fill="#fff" fill-opacity=".756881"/><path d="m5.0632033 291.99096s10.0479137.10703 7.8376027-6.83122c-.883292-2.76891-2.55085 1.05014-3.4330457 1.65414-.901599.61728-4.710692-2.42846-.744083 3.3738 1.9399527 2.83771 6.1550507.41775 7.3537877-1.35769 1.246158-1.84568 3.638359-.67205 3.257062-.91035-2.939971-.42-3.375134 4.70711 3.902724 3.72087 6.223976-.84342 15.900828 1.26858 15.900828 1.26858" style="opacity:.874419;fill:none;stroke-width:.595542;stroke-linecap:round;stroke-linejoin:round;stroke:url(#n)"/><g font-family="Bitstream Vera Sans" font-size="3.175" stroke-width=".264583"><text x="2.977062" y="272.13681"><tspan font-size="1.354436" stroke-width=".264583" x="2.977062" y="272.13681">Lorem ipsum dolor sit</tspan></text><text x="2.975429" xml:space="preserve" y="275.37204"><tspan font-size="1.371075" stroke-width=".264583" x="2.975429" y="275.37204">Maecenas convallis dui. Phasel </tspan></text><text x="2.975429" xml:space="preserve" y="278.30893"><tspan font-size="1.371075" stroke-width=".264583" x="2.975429" y="278.30893">Maece convallis duilamos. Pha </tspan></text><text x="2.977062" y="281.39722"><tspan font-size="1.354436" stroke-width=".264583" x="2.977062" y="281.39722">Lorem ipsum dolor sit</tspan></text></g></g><g transform="scale(.26458333)"><path d="m69.8172 46.546616h58.180996v81.453445h-58.180996z" fill="url(#a)"/><path d="m75.6353 52.3647h46.5448v69.817215h-46.5448z" fill="url(#b)"/><path clip-path="url(#d)" d="m92.81509 1029.6319c1.071428 1.4286 10.71429 15.3572 11.78571 13.5715 1.07143-1.7858 26.42857-25.3572 25-26.7858-1.42857-1.4285-33.928567-41.78567-33.928567-41.78567z" fill="url(#c)" fill-rule="evenodd" filter="url(#e)" opacity=".68" transform="matrix(.69309305 0 0 .69309305 41.153912 -600.6251)"/><path d="m75.6353 52.3647v47.28063c14.171661-16.500095 33.53848-23.157342 46.54439-25.022283v-22.257813z" fill="url(#f)" fill-rule="evenodd"/><path d="m87.2715 64.0009h23.2724v46.5448h-23.2724z" fill="url(#g)"/><path d="m89.925598 66.798828h17.686728v41.164684h-17.686728z" fill="#535353"/><path d="m93.0896 69.819h11.6362v17.4543h-11.6362z" fill="url(#h)"/><path d="m93.0896-116.3638h11.636201v29.0905h-11.636201z" fill="url(#i)" transform="scale(1 -1)"/></g></svg>