<?xml version="1.0" encoding="UTF-8" standalone="no"?>
<svg
   xmlns:dc="http://purl.org/dc/elements/1.1/"
   xmlns:cc="http://creativecommons.org/ns#"
   xmlns:rdf="http://www.w3.org/1999/02/22-rdf-syntax-ns#"
   xmlns:svg="http://www.w3.org/2000/svg"
   xmlns="http://www.w3.org/2000/svg"
   xmlns:xlink="http://www.w3.org/1999/xlink"
   xmlns:sodipodi="http://sodipodi.sourceforge.net/DTD/sodipodi-0.dtd"
   xmlns:inkscape="http://www.inkscape.org/namespaces/inkscape"
   height="128"
   viewBox="0 0 128 128"
   width="128"
   version="1.1"
   id="svg31"
   sodipodi:docname="lc_symbolshapes.flower.svg"
   inkscape:version="0.92.3 (unknown)"
   inkscape:export-filename="/home/rizmut/Dokumen/Rizmut/Github/libreoffice-style-karasa-jaga/build/images_karasa_jaga/cmd/lc_symbolshapes.flower.png"
   inkscape:export-xdpi="16.5"
   inkscape:export-ydpi="16.5">
  <metadata
     id="metadata37">
    <rdf:RDF>
      <cc:Work
         rdf:about="">
        <dc:format>image/svg+xml</dc:format>
        <dc:type
           rdf:resource="http://purl.org/dc/dcmitype/StillImage" />
        <dc:title></dc:title>
      </cc:Work>
    </rdf:RDF>
  </metadata>
  <defs
     id="defs35">
    <linearGradient
       id="linearGradient3369">
      <stop
         id="stop3372"
         offset="0"
         style="stop-color:#ffffff;stop-opacity:1;" />
      <stop
         style="stop-color:#ffffff;stop-opacity:1;"
         offset="0.46428573"
         id="stop3374" />
      <stop
         style="stop-color:#f1f1f1;stop-opacity:1;"
         offset="0.78125"
         id="stop3376" />
      <stop
         id="stop3378"
         offset="0.90625"
         style="stop-color:#eaeaea;stop-opacity:1;" />
      <stop
         id="stop3384"
         offset="1"
         style="stop-color:#dfdfdf;stop-opacity:1;" />
    </linearGradient>
    <linearGradient
       id="linearGradient7422">
      <stop
         style="stop-color:#7c9fcf;stop-opacity:1"
         offset="0"
         id="stop7424" />
      <stop
         id="stop5348"
         offset="0.5"
         style="stop-color:#7c9ece;stop-opacity:1" />
      <stop
         id="stop7426"
         offset="1"
         style="stop-color:#7b9dcf;stop-opacity:1" />
    </linearGradient>
    <linearGradient
       inkscape:collect="always"
       xlink:href="#linearGradient3369"
       id="linearGradient1201"
       x1="63.9991"
       y1="128"
       x2="63.9991"
       y2="0.0018"
       gradientUnits="userSpaceOnUse" />
    <linearGradient
       inkscape:collect="always"
       xlink:href="#linearGradient7422"
       id="linearGradient1213"
       x1="10.422757"
       y1="63.989258"
       x2="117.62218"
       y2="63.989258"
       gradientUnits="userSpaceOnUse" />
  </defs>
  <sodipodi:namedview
     pagecolor="#ffffff"
     bordercolor="#666666"
     borderopacity="1"
     objecttolerance="10"
     gridtolerance="10"
     guidetolerance="10"
     inkscape:pageopacity="0"
     inkscape:pageshadow="2"
     inkscape:window-width="1366"
     inkscape:window-height="706"
     id="namedview33"
     showgrid="true"
     inkscape:zoom="1.4142136"
     inkscape:cx="-24.190129"
     inkscape:cy="-9.8516469"
     inkscape:window-x="-1"
     inkscape:window-y="-1"
     inkscape:window-maximized="0"
     inkscape:current-layer="svg31"
     inkscape:snap-global="false">
    <inkscape:grid
       type="xygrid"
       id="grid844"
       spacingx="5.8181"
       spacingy="5.8181"
       empspacing="1" />
  </sodipodi:namedview>
  <linearGradient
     id="a">
    <stop
       offset="0"
       stop-color="#f9f9fa"
       id="stop2" />
    <stop
       offset="1"
       stop-color="#f9f9fa"
       stop-opacity="0"
       id="stop4" />
  </linearGradient>
  <linearGradient
     id="b"
     gradientUnits="userSpaceOnUse"
     x1="42.276669"
     x2="-13.469376"
     xlink:href="#a"
     y1="50.867565"
     y2="104.97279" />
  <linearGradient
     id="c"
     gradientUnits="userSpaceOnUse"
     x1="-1.817377"
     x2="2.172436"
     xlink:href="#a"
     y1="55.003803"
     y2="116.784" />
  <path
     style="opacity:1;fill:url(#linearGradient1213);fill-opacity:1;stroke:none;stroke-width:3.71959209;stroke-linecap:square;stroke-linejoin:bevel;stroke-miterlimit:4;stroke-dasharray:none;stroke-dashoffset:0;stroke-opacity:0.72941176"
     d="M 64.001953 5.859375 C 52.953105 5.8589725 43.639605 13.289744 40.533203 23.361328 C 30.265267 21.031121 19.186853 25.38337 13.667969 34.943359 C 8.1440855 44.511989 9.9244802 56.294274 17.09375 64.019531 C 9.9424265 71.746006 8.1720307 83.515237 13.691406 93.074219 C 19.21541 102.64307 30.308596 106.99403 40.583984 104.64844 C 43.700078 114.70429 53.007329 122.11954 64.044922 122.11914 C 75.09272 122.11848 84.405466 114.68777 87.511719 104.61719 C 97.77936 106.94746 108.85783 102.59448 114.37695 93.035156 C 119.90035 83.467367 118.12082 71.686242 110.95312 63.960938 C 118.10451 56.234102 119.87345 44.463184 114.35352 34.904297 C 108.82954 25.336539 97.737586 20.987111 87.462891 23.332031 C 84.347358 13.275268 75.040199 5.8589728 64.001953 5.859375 z M 64.023438 52.361328 A 11.62753 11.62753 0 0 1 75.650391 63.988281 A 11.62753 11.62753 0 0 1 64.023438 75.617188 A 11.62753 11.62753 0 0 1 52.394531 63.988281 A 11.62753 11.62753 0 0 1 64.023438 52.361328 z "
     id="path1203" />
  <path
     style="opacity:1;fill:url(#linearGradient1201);fill-opacity:1;stroke:none;stroke-width:3.71959209;stroke-linecap:square;stroke-linejoin:bevel;stroke-miterlimit:4;stroke-dasharray:none;stroke-dashoffset:0;stroke-opacity:0.72941176"
     d="M 64.001953 11.638672 C 53.571941 11.638292 45.116808 20.093425 45.117188 30.523438 C 45.120688 30.801497 45.130654 31.079791 45.146484 31.357422 C 44.924993 31.207369 44.700322 31.060429 44.472656 30.919922 C 35.440131 25.704523 23.888465 28.801021 18.673828 37.833984 C 13.459667 46.866104 16.556017 58.41432 25.587891 63.628906 C 25.830779 63.764483 26.075581 63.894816 26.324219 64.019531 C 26.083114 64.13673 25.845273 64.259362 25.609375 64.386719 C 16.576412 69.601357 13.481868 81.15107 18.697266 90.183594 C 23.911903 99.216552 35.461616 102.3111 44.494141 97.095703 C 44.732876 96.953203 44.968961 96.805245 45.201172 96.652344 C 45.182152 96.919618 45.167786 97.187237 45.160156 97.455078 C 45.159776 107.88509 53.61491 116.34022 64.044922 116.33984 C 74.474224 116.33922 82.928114 107.88438 82.927734 97.455078 C 82.924234 97.177018 82.914267 96.898727 82.898438 96.621094 C 83.120527 96.77117 83.345941 96.918109 83.574219 97.058594 C 92.606338 102.27275 104.1565 99.176396 109.37109 90.144531 C 114.58525 81.112412 111.48891 69.564198 102.45703 64.349609 C 102.21475 64.214056 101.97069 64.083722 101.72266 63.958984 C 101.96376 63.841786 102.2016 63.719154 102.4375 63.591797 C 111.46981 58.376537 114.56336 46.826972 109.34766 37.794922 C 104.13308 28.763052 92.584853 25.668655 83.552734 30.882812 C 83.313999 31.025312 83.077914 31.173271 82.845703 31.326172 C 82.864723 31.058898 82.879089 30.791279 82.886719 30.523438 C 82.887099 20.093426 74.431964 11.638292 64.001953 11.638672 z M 64.023438 46.591797 A 17.397339 17.397339 0 0 1 81.419922 63.988281 A 17.397339 17.397339 0 0 1 64.023438 81.386719 A 17.397339 17.397339 0 0 1 46.625 63.988281 A 17.397339 17.397339 0 0 1 64.023438 46.591797 z "
     id="circle2156" />
</svg>
