<?xml version="1.0" encoding="UTF-8" standalone="no"?>
<svg
   xmlns:dc="http://purl.org/dc/elements/1.1/"
   xmlns:cc="http://creativecommons.org/ns#"
   xmlns:rdf="http://www.w3.org/1999/02/22-rdf-syntax-ns#"
   xmlns:svg="http://www.w3.org/2000/svg"
   xmlns="http://www.w3.org/2000/svg"
   xmlns:xlink="http://www.w3.org/1999/xlink"
   xmlns:sodipodi="http://sodipodi.sourceforge.net/DTD/sodipodi-0.dtd"
   xmlns:inkscape="http://www.inkscape.org/namespaces/inkscape"
   height="128"
   viewBox="0 0 128 128"
   width="128"
   version="1.1"
   id="svg31"
   sodipodi:docname="lc_starshapes.bang.svg"
   inkscape:version="0.92.3 (unknown)"
   inkscape:export-filename="/home/rizmut/Dokumen/Rizmut/Github/libreoffice-style-karasa-jaga/build/images_karasa_jaga/cmd/lc_starshapes.bang.png"
   inkscape:export-xdpi="16.5"
   inkscape:export-ydpi="16.5">
  <metadata
     id="metadata37">
    <rdf:RDF>
      <cc:Work
         rdf:about="">
        <dc:format>image/svg+xml</dc:format>
        <dc:type
           rdf:resource="http://purl.org/dc/dcmitype/StillImage" />
        <dc:title></dc:title>
      </cc:Work>
    </rdf:RDF>
  </metadata>
  <defs
     id="defs35">
    <linearGradient
       id="linearGradient3369">
      <stop
         id="stop3372"
         offset="0"
         style="stop-color:#ffffff;stop-opacity:1;" />
      <stop
         style="stop-color:#ffffff;stop-opacity:1;"
         offset="0.46428573"
         id="stop3374" />
      <stop
         style="stop-color:#f1f1f1;stop-opacity:1;"
         offset="0.78125"
         id="stop3376" />
      <stop
         id="stop3378"
         offset="0.90625"
         style="stop-color:#eaeaea;stop-opacity:1;" />
      <stop
         id="stop3384"
         offset="1"
         style="stop-color:#dfdfdf;stop-opacity:1;" />
    </linearGradient>
    <linearGradient
       id="linearGradient7422">
      <stop
         style="stop-color:#7c9fcf;stop-opacity:1"
         offset="0"
         id="stop7424" />
      <stop
         id="stop5348"
         offset="0.5"
         style="stop-color:#7c9ece;stop-opacity:1" />
      <stop
         id="stop7426"
         offset="1"
         style="stop-color:#7b9dcf;stop-opacity:1" />
    </linearGradient>
    <linearGradient
       inkscape:collect="always"
       xlink:href="#linearGradient7422"
       id="linearGradient1434"
       x1="5.2899485"
       y1="65.599182"
       x2="120.66476"
       y2="65.599182"
       gradientUnits="userSpaceOnUse" />
    <linearGradient
       inkscape:collect="always"
       xlink:href="#linearGradient3369"
       id="linearGradient1442"
       x1="58.181"
       y1="122.1819"
       x2="58.181"
       y2="0.0018"
       gradientUnits="userSpaceOnUse" />
  </defs>
  <sodipodi:namedview
     pagecolor="#ffffff"
     bordercolor="#666666"
     borderopacity="1"
     objecttolerance="10"
     gridtolerance="10"
     guidetolerance="10"
     inkscape:pageopacity="0"
     inkscape:pageshadow="2"
     inkscape:window-width="1366"
     inkscape:window-height="706"
     id="namedview33"
     showgrid="true"
     inkscape:zoom="2"
     inkscape:cx="68.03201"
     inkscape:cy="84.796204"
     inkscape:window-x="0"
     inkscape:window-y="0"
     inkscape:window-maximized="0"
     inkscape:current-layer="svg31"
     inkscape:snap-global="true">
    <inkscape:grid
       type="xygrid"
       id="grid844"
       spacingx="5.8181"
       spacingy="5.8181"
       empspacing="1" />
  </sodipodi:namedview>
  <linearGradient
     id="a">
    <stop
       offset="0"
       stop-color="#f9f9fa"
       id="stop2" />
    <stop
       offset="1"
       stop-color="#f9f9fa"
       stop-opacity="0"
       id="stop4" />
  </linearGradient>
  <linearGradient
     id="b"
     gradientUnits="userSpaceOnUse"
     x1="42.276669"
     x2="-13.469376"
     xlink:href="#a"
     y1="50.867565"
     y2="104.97279" />
  <linearGradient
     id="c"
     gradientUnits="userSpaceOnUse"
     x1="-1.817377"
     x2="2.172436"
     xlink:href="#a"
     y1="55.003803"
     y2="116.784" />
  <path
     style="fill:url(#linearGradient1434);fill-opacity:1;fill-rule:evenodd;stroke:none;stroke-width:3.10538507;stroke-linecap:butt;stroke-linejoin:miter;stroke-miterlimit:4;stroke-dasharray:none;stroke-opacity:0.94901961"
     d="m 81.546875,5.7792969 a 5.8676607,5.8676607 0 0 0 -4.5,2.4238281 L 65.767578,23.820312 61.3125,19.734375 a 5.8676607,5.8676607 0 0 0 -9.824219,4.009766 L 50.888672,34.945312 38.96875,26.625 a 5.8676607,5.8676607 0 0 0 -9.111328,5.960938 L 32.951172,48.056641 18.755859,46.5625 a 5.8676607,5.8676607 0 0 0 -4.998047,9.732422 l 8.375,9.421875 -11.876953,1.84375 A 5.8676607,5.8676607 0 0 0 7.8046875,78.173828 l 12.3105465,8.564453 -5.49414,5.917969 A 5.8676607,5.8676607 0 0 0 19.337891,102.5 l 10.623047,-0.75977 c 0.241943,2.53038 0.329084,3.72561 0.74414,7.32227 0.370269,3.20856 0.769303,6.33371 1.197266,8.73828 0.213981,1.20229 0.369155,2.11534 0.794922,3.32813 0.212883,0.60639 -0.155774,1.27804 2.103515,3.10156 1.129645,0.91176 4.282051,1.72711 6.326172,0.75391 2.044121,-0.97321 2.509936,-2.15464 2.837891,-2.81055 0.582893,-1.16579 1.193968,-2.65483 2.167968,-4.97071 0.381199,-0.90637 0.861298,-2.07269 1.291016,-3.10546 0.363672,0.47604 1.003081,1.02216 2.367188,1.61523 1.309972,0.56953 3.763321,0.60342 5.314453,-0.27148 1.551132,-0.87491 2.114904,-1.92317 2.445312,-2.58399 0.51258,-1.02516 0.545749,-1.3149 0.773438,-1.99804 0.227689,-0.68315 0.484445,-1.49541 0.765625,-2.41407 0.485492,-1.58616 1.051116,-3.52414 1.603515,-5.42773 l 4.996094,4.83398 a 5.8676607,5.8676607 0 0 0 9.947266,-4.21679 v -5.179692 l 4.208984,3.742192 a 5.8676607,5.8676607 0 0 0 9.753906,-4.742192 l -0.486328,-7.941406 8.708985,5.1875 a 5.8676607,5.8676607 0 0 0 7.933594,-8.21875 l -6.992188,-10.84961 4.472658,-1.298828 a 5.8676607,5.8676607 0 0 0 2.6875,-9.599609 l -3.4336,-3.746094 15.07813,-8.078125 a 5.8676607,5.8676607 0 0 0 -2.6875,-11.039062 l -18.000001,-0.25 5.931641,-10.38086 A 5.8676607,5.8676607 0 0 0 94.353516,23.523438 L 87.902344,28.039062 87.669922,11.556641 A 5.8676607,5.8676607 0 0 0 81.546875,5.7792969 Z"
     id="path1424" />
  <path
     style="fill:url(#linearGradient1442);fill-opacity:1;fill-rule:evenodd;stroke:none;stroke-width:3.10538507;stroke-linecap:butt;stroke-linejoin:miter;stroke-miterlimit:4;stroke-dasharray:none;stroke-opacity:0.94901961"
     d="m 18.919354,96.647916 16.30327,-1.16452 c 0,0 2.329039,26.395774 3.493559,24.066734 1.164519,-2.32904 9.704328,-23.290388 9.704328,-23.290388 0,0 3.105384,15.526928 3.881731,13.974228 0.776346,-1.55269 5.434424,-18.244134 5.434424,-18.244134 L 69.770032,103.63503 V 85.390893 L 83.744265,97.812435 82.579746,78.791949 100.82388,89.660797 89.566861,72.193007 101.60023,68.699449 93.06042,59.383294 114.79811,47.7381 86.84965,47.349926 97.718498,28.329444 82.191572,39.198291 81.803399,11.638 66.664647,32.599348 57.348492,24.05954 56.183973,45.797235 35.610798,31.434829 l 4.658077,23.290388 -22.125867,-2.32904 15.526925,17.467791 -22.514042,3.493558 17.855963,12.42154 z"
     id="path1568"
     inkscape:connector-curvature="0" />
</svg>
