<?xml version="1.0" encoding="UTF-8" standalone="no"?>
<svg
   xmlns:dc="http://purl.org/dc/elements/1.1/"
   xmlns:cc="http://creativecommons.org/ns#"
   xmlns:rdf="http://www.w3.org/1999/02/22-rdf-syntax-ns#"
   xmlns:svg="http://www.w3.org/2000/svg"
   xmlns="http://www.w3.org/2000/svg"
   xmlns:xlink="http://www.w3.org/1999/xlink"
   xmlns:sodipodi="http://sodipodi.sourceforge.net/DTD/sodipodi-0.dtd"
   xmlns:inkscape="http://www.inkscape.org/namespaces/inkscape"
   enable-background="new 0 0 128 128"
   height="128"
   viewBox="0 0 128 128"
   width="128"
   version="1.1"
   id="svg3192"
   sodipodi:docname="lc_templatemanager.svg"
   inkscape:version="0.92.3 (unknown)"
   inkscape:export-filename="/home/rizmut/Dokumen/Rizmut/Github/libreoffice-style-karasa-jaga/build/images_karasa_jaga/cmd/lc_templatemanager.png"
   inkscape:export-xdpi="16.5"
   inkscape:export-ydpi="16.5">
  <metadata
     id="metadata3198">
    <rdf:RDF>
      <cc:Work
         rdf:about="">
        <dc:format>image/svg+xml</dc:format>
        <dc:type
           rdf:resource="http://purl.org/dc/dcmitype/StillImage" />
        <dc:title></dc:title>
      </cc:Work>
    </rdf:RDF>
  </metadata>
  <defs
     id="defs3196">
    <linearGradient
       inkscape:collect="always"
       xlink:href="#linearGradient16271"
       id="linearGradient8597"
       gradientUnits="userSpaceOnUse"
       gradientTransform="matrix(0.27869117,0,0,0.34904544,-4.2468096,27.69511)"
       x1="236.89662"
       y1="77.834541"
       x2="201.32726"
       y2="-106.94308" />
    <linearGradient
       gradientTransform="matrix(-3.4726201,0,0,-3.472625,1191.8584,127.95525)"
       y2="2.3497"
       x2="141.0177"
       y1="50"
       x1="188.668"
       gradientUnits="userSpaceOnUse"
       id="linearGradient16271">
      <stop
         id="stop16273"
         style="stop-color:#7fa7d9;stop-opacity:1;"
         offset="0" />
      <stop
         id="stop16275"
         style="stop-color:#2c72c7;stop-opacity:1;"
         offset="0.5" />
      <stop
         id="stop16277"
         style="stop-color:#002a59;stop-opacity:1;"
         offset="1" />
    </linearGradient>
    <filter
       style="color-interpolation-filters:sRGB"
       inkscape:collect="always"
       id="filter5394"
       x="-0.14679517"
       width="1.2935903"
       y="-0.013592145"
       height="1.0271842">
      <feGaussianBlur
         inkscape:collect="always"
         stdDeviation="0.61164653"
         id="feGaussianBlur5396" />
    </filter>
    <linearGradient
       inkscape:collect="always"
       xlink:href="#linearGradient6060-8-8"
       id="linearGradient9028"
       gradientUnits="userSpaceOnUse"
       gradientTransform="matrix(-6.3579301e-8,1.0389463,-1.4545248,-4.5413792e-8,72.908123,-66.906864)"
       x1="126"
       y1="41.9995"
       x2="126"
       y2="29.9995" />
    <linearGradient
       gradientTransform="rotate(90.000003,56.000248,-14.000251)"
       y2="29.9995"
       x2="126"
       y1="41.9995"
       x1="126"
       gradientUnits="userSpaceOnUse"
       id="linearGradient6060-8-8">
      <stop
         id="stop6064-7-7"
         style="stop-color:#A58B5A"
         offset="0" />
      <stop
         id="stop6066-1-0"
         style="stop-color:#C5AB6D"
         offset="0.5444" />
    </linearGradient>
    <linearGradient
       inkscape:collect="always"
       xlink:href="#linearGradient13867-5-0"
       id="linearGradient9087"
       gradientUnits="userSpaceOnUse"
       gradientTransform="rotate(90.000003,56.000248,-14.000251)"
       x1="126"
       y1="30.0005"
       x2="126"
       y2="34.0005" />
    <linearGradient
       gradientTransform="rotate(90.000003,56.000248,-14.000251)"
       y2="34.0005"
       x2="126"
       y1="30.0005"
       x1="126"
       gradientUnits="userSpaceOnUse"
       id="linearGradient13867-5-0">
      <stop
         id="stop13869-0-7"
         style="stop-color:#ddc98f;stop-opacity:1;"
         offset="0" />
      <stop
         id="stop13871-4-5"
         style="stop-color:#f4eab9;stop-opacity:1;"
         offset="1" />
    </linearGradient>
    <linearGradient
       inkscape:collect="always"
       xlink:href="#linearGradient4098-8-3"
       id="linearGradient9024"
       gradientUnits="userSpaceOnUse"
       gradientTransform="matrix(-6.2656287e-8,1.0483062,-1.4334087,-4.5822925e-8,78.048513,-66.387894)"
       x1="74.001999"
       y1="38.799301"
       x2="74.001999"
       y2="35.901901" />
    <linearGradient
       id="linearGradient4098-8-3"
       gradientUnits="userSpaceOnUse"
       x1="82"
       y1="31.9995"
       x2="82"
       y2="29.9995"
       gradientTransform="rotate(90.000003,56.000248,-14.000251)">
      <stop
         offset="0"
         style="stop-color:#4E3E27;fill-opacity:1.0;fill:url(#linearGradient20844)"
         id="stop4100-9-2" />
      <stop
         offset="1"
         style="stop-color:#816840;fill-opacity:1.0;fill:url(#linearGradient20844)"
         id="stop4102-2-1" />
    </linearGradient>
    <linearGradient
       inkscape:collect="always"
       xlink:href="#linearGradient4108-2-7"
       id="linearGradient9021"
       gradientUnits="userSpaceOnUse"
       gradientTransform="matrix(-6.2656287e-8,1.0483062,-1.4334087,-4.5822925e-8,77.524873,-67.562054)"
       x1="93.830101"
       y1="38.5513"
       x2="93.830101"
       y2="35.964401" />
    <linearGradient
       id="linearGradient4108-2-7"
       gradientUnits="userSpaceOnUse"
       x1="86"
       y1="31.9995"
       x2="86"
       y2="29.9995"
       gradientTransform="rotate(90.000003,56.000248,-14.000251)">
      <stop
         offset="0"
         style="stop-color:#4E3E27;fill-opacity:1.0;fill:url(#linearGradient20836)"
         id="stop4110-0-6" />
      <stop
         offset="1"
         style="stop-color:#816840;fill-opacity:1.0;fill:url(#linearGradient20836)"
         id="stop4112-6-1" />
    </linearGradient>
    <linearGradient
       inkscape:collect="always"
       xlink:href="#linearGradient4108-2-7"
       id="linearGradient9018"
       gradientUnits="userSpaceOnUse"
       gradientTransform="matrix(-6.2656287e-8,1.0483062,-1.4334087,-4.5822925e-8,77.655783,-68.433784)"
       x1="114.0479"
       y1="38.901901"
       x2="114.0479"
       y2="35.901901" />
    <linearGradient
       inkscape:collect="always"
       xlink:href="#linearGradient4108-2-7"
       id="linearGradient9015"
       gradientUnits="userSpaceOnUse"
       gradientTransform="matrix(-6.2656287e-8,1.0483062,-1.4334087,-4.5822925e-8,77.655783,-66.561374)"
       x1="134.0137"
       y1="38.964401"
       x2="134.0137"
       y2="35.964401" />
    <linearGradient
       inkscape:collect="always"
       xlink:href="#linearGradient4108-2-7"
       id="linearGradient9012"
       gradientUnits="userSpaceOnUse"
       gradientTransform="matrix(-6.2656287e-8,1.0483062,-1.4334087,-4.5822925e-8,77.786693,-66.361234)"
       x1="154.08009"
       y1="38.964401"
       x2="154.08009"
       y2="35.964401" />
  </defs>
  <sodipodi:namedview
     pagecolor="#ffffff"
     bordercolor="#666666"
     borderopacity="1"
     objecttolerance="10"
     gridtolerance="10"
     guidetolerance="10"
     inkscape:pageopacity="0"
     inkscape:pageshadow="2"
     inkscape:window-width="1366"
     inkscape:window-height="706"
     id="namedview3194"
     showgrid="true"
     inkscape:zoom="1.859375"
     inkscape:cx="98.188533"
     inkscape:cy="-10.683315"
     inkscape:window-x="0"
     inkscape:window-y="0"
     inkscape:window-maximized="1"
     inkscape:current-layer="g7128"
     inkscape:snap-global="true">
    <inkscape:grid
       type="xygrid"
       id="grid7130"
       spacingx="5.8181"
       spacingy="5.8181"
       empspacing="1" />
  </sodipodi:namedview>
  <linearGradient
     id="a"
     gradientUnits="userSpaceOnUse"
     x1="88.591797"
     x2="71.262016"
     y1="96.592697"
     y2="79.262917">
    <stop
       offset="0"
       stop-color="#fff"
       id="stop3094" />
    <stop
       offset="1"
       stop-color="#555753"
       id="stop3096" />
  </linearGradient>
  <linearGradient
     id="b"
     gradientUnits="userSpaceOnUse"
     x1="85.219681"
     x2="61.336319"
     y1="93.219681"
     y2="69.336319">
    <stop
       offset="0"
       id="stop3099" />
    <stop
       offset="1"
       stop-color="#393b38"
       id="stop3101" />
  </linearGradient>
  <linearGradient
     id="c"
     gradientUnits="userSpaceOnUse"
     x1="96"
     x2="88.0002"
     y1="104"
     y2="96.0002">
    <stop
       offset="0"
       stop-color="#888a85"
       id="stop3104" />
    <stop
       offset=".0072"
       stop-color="#8c8e89"
       id="stop3106" />
    <stop
       offset=".0673"
       stop-color="#abaca9"
       id="stop3108" />
    <stop
       offset=".1347"
       stop-color="#c5c6c4"
       id="stop3110" />
    <stop
       offset=".2115"
       stop-color="#dbdbda"
       id="stop3112" />
    <stop
       offset=".3012"
       stop-color="#ebebeb"
       id="stop3114" />
    <stop
       offset=".4122"
       stop-color="#f7f7f6"
       id="stop3116" />
    <stop
       offset=".5679"
       stop-color="#fdfdfd"
       id="stop3118" />
    <stop
       offset="1"
       stop-color="#fff"
       id="stop3120" />
  </linearGradient>
  <radialGradient
     id="d"
     cx="102"
     cy="112.3047"
     gradientTransform="matrix(.94807 0 0 .9510679 3.32352 5.274458)"
     gradientUnits="userSpaceOnUse"
     r="139.55859">
    <stop
       offset="0"
       stop-color="#535557"
       id="stop3123" />
    <stop
       offset=".11366145"
       stop-color="#898a8c"
       id="stop3125" />
    <stop
       offset=".20296688"
       stop-color="#ececec"
       id="stop3127" />
    <stop
       offset=".2363"
       stop-color="#fafafa"
       id="stop3129" />
    <stop
       offset=".2722"
       stop-color="#fff"
       id="stop3131" />
    <stop
       offset=".5313"
       stop-color="#fafafa"
       id="stop3133" />
    <stop
       offset=".8449"
       stop-color="#ebecec"
       id="stop3135" />
    <stop
       offset="1"
       stop-color="#e1e2e3"
       id="stop3137" />
  </radialGradient>
  <radialGradient
     id="e"
     cx="100.8098464"
     cy="112.93460525694"
     gradientUnits="userSpaceOnUse"
     r="135.1875556917">
    <stop
       offset="0"
       stop-color="#3e3e3e"
       id="stop3140" />
    <stop
       offset=".0151"
       stop-color="#505050"
       id="stop3142" />
    <stop
       offset=".0558"
       stop-color="#7e7e7e"
       id="stop3144" />
    <stop
       offset=".1357"
       stop-color="#c6c6c6"
       id="stop3146" />
    <stop
       offset=".20990001"
       stop-color="#f1f1f1"
       id="stop3148" />
    <stop
       offset=".24349999"
       stop-color="#fcfcfc"
       id="stop3150" />
    <stop
       offset=".2722"
       stop-color="#fff"
       id="stop3152" />
  </radialGradient>
  <filter
     id="f">
    <feGaussianBlur
       stdDeviation="1.0394514"
       id="feGaussianBlur3155" />
  </filter>
  <filter
     id="g">
    <feGaussianBlur
       stdDeviation=".50063244"
       id="feGaussianBlur3158" />
  </filter>
  <filter
     id="h">
    <feGaussianBlur
       stdDeviation=".40750996"
       id="feGaussianBlur3161" />
  </filter>
  <filter
     id="i">
    <feGaussianBlur
       stdDeviation=".4901192"
       id="feGaussianBlur3164" />
  </filter>
  <filter
     id="j">
    <feGaussianBlur
       stdDeviation=".90565481"
       id="feGaussianBlur3167" />
  </filter>
  <g
     id="g3766">
    <g
       id="g3752">
      <path
         d="m23 8.9687825.040816 114.0246875h61.131184c.53 0 1.039-.211 1.414-.586l32.828-32.828001c.375-.375.586-.884.586-1.414v-79.1966865z"
         filter="url(#f)"
         opacity=".553425"
         transform="matrix(1.0090419 0 0 1.003276 -7.641977 .929762)"
         id="path3170" />
      <path
         d="m23 9 .04082 113.99347h61.13118c.53 0 1.039-.211 1.414-.586l32.828-32.828001c.375-.375.586-.884.586-1.414v-79.165469z"
         filter="url(#f)"
         opacity=".306849"
         transform="matrix(1.0090419 0 0 1.003276 -7.641977 .929762)"
         id="path3172" />
      <path
         d="m24.905735 10.673272.01426 110.189918 58.676001-.0001c.53 0 1.039-.211 1.414-.586l31.484-31.765934c.375-.375.586-.884.586-1.414l.0812-76.423884z"
         filter="url(#g)"
         opacity=".89589"
         transform="matrix(1.0090419 0 0 1.003276 -7.641977 .929762)"
         id="path3174" />
      <path
         d="m23 9.9655172.040816 113.0279528h61.131184c.53 0 1.039-.211 1.414-.586l32.828-32.828001c.375-.375.586-.884.586-1.414v-78.1999518z"
         filter="url(#f)"
         opacity=".306849"
         transform="matrix(1.0090419 0 0 1.003276 -7.641977 .929762)"
         id="path3176" />
      <path
         d="m17.488953 11.638.0144 110.55089h59.256106c.513401 0 1.006458-.20439 1.369714-.56765l31.799827-31.799829c.36326-.363255.56764-.856313.56764-1.369714l.08191-76.813697z"
         fill="url(#e)"
         id="path3178" />
      <path
         d="m24.066856 17.512144c-.522387 0-.94807.42703-.94807.951069l.321923 96.737247c0 .525.425684.95108.94807.95108h52.099199c.249342 0 .493944-.10082.670284-.27867l28.123238-27.221657c.17729-.17785.27778-.422273.27778-.672405l-.7-69.493672c0-.524039-.42473-.951068-.94806-.951068z"
         fill="url(#d)"
         id="path3180" />
    </g>
    <g
       id="g3190"
       transform="matrix(1.1080161 0 0 1.1080161 -12.744784 -10.01667)">
      <path
         id="path3182"
         opacity=".750685"
         filter="url(#h)"
         fill="url(#a)"
         d="m111.414 86.586c.25-.25-26.379-1.586-31.414-1.586-1.654 0-3 1.346-3 3 0 5.035 1.336 31.664 1.586 31.414z" />
      <path
         id="path3184"
         opacity=".2"
         filter="url(#j)"
         d="m111.414 86.586c.375-.375-21.97-.586-31.414-.586-1.103 0-2 .897-2 2 0 9.444.211 31.789.586 31.414z" />
      <path
         id="path3186"
         opacity=".1"
         filter="url(#i)"
         fill="url(#b)"
         d="m111.414 86.586c.239-.239-21.607.414-31.414.414-.553 0-1 .447-1 1 0 9.807-.653 31.653-.414 31.414z" />
      <path
         id="path3188"
         fill="url(#c)"
         d="m79.721619 119.31106 31.505501-31.505504h-31.505501z" />
    </g>
  </g>
  <g
     id="g7128"
     transform="translate(5.8181,5.818)">
    <rect
       y="5.8199034"
       x="11.8181"
       height="29.0905"
       width="92.9077"
       id="rect6654"
       style="opacity:0.8;fill:url(#linearGradient8597);fill-opacity:1;stroke:none;stroke-width:0.96919417" />
    <path
       style="fill:#000000"
       d=""
       id="path2197"
       inkscape:connector-curvature="0" />
    <path
       inkscape:connector-curvature="0"
       style="fill:#000000"
       d=""
       id="path2197-0" />
    <path
       inkscape:connector-curvature="0"
       style="fill:#000000"
       d=""
       id="path2197-6" />
    <rect
       style="fill:#2d2d2d;fill-opacity:0.72000002;stroke:none"
       id="rect3038"
       width="6.3519158"
       height="5.6928086"
       x="18.079391"
       y="17.205524"
       rx="1.0293828"
       ry="1.0578505" />
    <rect
       ry="1.0578505"
       rx="1.0293828"
       y="34.283955"
       x="18.079391"
       height="5.6928086"
       width="6.3519158"
       id="rect3808"
       style="fill:#2d2d2d;fill-opacity:0.72000002;stroke:none" />
    <rect
       style="fill:#2d2d2d;fill-opacity:0.72000002;stroke:none"
       id="rect3810"
       width="6.3519158"
       height="5.6928086"
       x="18.079391"
       y="51.362377"
       rx="1.0293828"
       ry="1.0578505" />
    <rect
       ry="1.0578505"
       rx="1.0293828"
       y="68.440804"
       x="18.079391"
       height="5.6928086"
       width="6.3519158"
       id="rect3812"
       style="fill:#2d2d2d;fill-opacity:0.72000002;stroke:none" />
    <rect
       style="fill:#2d2d2d;fill-opacity:0.72000002;stroke:none"
       id="rect3814"
       width="6.3519158"
       height="5.6928086"
       x="18.079391"
       y="85.519234"
       rx="1.0293828"
       ry="1.0578505" />
    <rect
       ry="1.0578505"
       rx="1.0293828"
       y="102.59766"
       x="18.079391"
       height="5.6928086"
       width="6.3519158"
       id="rect3816"
       style="fill:#2d2d2d;fill-opacity:0.72000002;stroke:none" />
    <path
       inkscape:connector-curvature="0"
       style="fill:#000000"
       d=""
       id="path2197-0-4" />
    <rect
       style="fill:#000000;fill-opacity:1;stroke:none;filter:url(#filter5394)"
       id="rect6905"
       width="9.7891645"
       height="102.57857"
       x="18"
       y="11"
       transform="matrix(1.3875024,0,0,1.0912184,-8.004857,-6.1834965)" />
    <rect
       id="rect4046"
       height="110.544"
       width="17.2724"
       style="fill:url(#linearGradient9028);fill-opacity:1"
       x="11.8181"
       y="5.8199034" />
    <polygon
       transform="matrix(1.1135187,0,0,0.98699996,15.910173,5.819905)"
       id="polygon4054"
       points="8,111 8,1 12,0 12,112 "
       style="opacity:0.8;fill:url(#linearGradient9087);fill-opacity:1" />
    <path
       inkscape:connector-curvature="0"
       id="path4604"
       d="m 26.586283,11.184145 c 0,0.319738 -0.18205,0.574473 -0.54327,0.766313 -0.36265,0.19184 -0.89445,0.28724 -1.59681,0.28724 -0.6135,0 -1.10373,-0.0954 -1.46638,-0.28619 -0.36552,-0.19184 -0.54756,-0.442392 -0.54756,-0.752683 0,-0.227484 0.096,-0.424569 0.29098,-0.593343 0.19637,-0.168775 0.45583,-0.289337 0.77834,-0.359575 0.32395,-0.06915 0.6694,-0.104821 1.03922,-0.104821 0.61923,0 1.11376,0.09746 1.48645,0.291428 0.37268,0.193932 0.55903,0.444482 0.55903,0.751631 z m -0.74395,0.008 c 0,-0.115308 -0.10894,-0.203368 -0.32538,-0.261027 -0.21501,-0.05874 -0.53896,-0.08806 -0.97042,-0.08806 -0.45582,0 -0.7984,0.02932 -1.02632,0.08705 -0.22504,0.05764 -0.33971,0.143617 -0.33971,0.257885 0,0.113217 0.11037,0.197085 0.33112,0.253693 0.2193,0.05663 0.55185,0.08385 0.99334,0.08385 0.44579,0 0.77978,-0.02722 1.00196,-0.08286 0.22217,-0.05554 0.33541,-0.138385 0.33541,-0.250551 z"
       style="fill:url(#linearGradient9024);fill-opacity:1" />
    <path
       inkscape:connector-curvature="0"
       id="path4614"
       d="m 25.972333,30.791608 v 0.5336 h -3.70823 v -0.62061 h 2.35652 v -0.42771 h 0.64074 v 0.0996 c 0,0.13104 0.0488,0.23273 0.14764,0.30611 0.0974,0.0724 0.24511,0.10902 0.44005,0.10902 h 0.12328 z"
       style="fill:url(#linearGradient9021);fill-opacity:1" />
    <path
       inkscape:connector-curvature="0"
       style="fill:url(#linearGradient9018);fill-opacity:1"
       d="m 25.949863,50.219278 c 0.16198,0.23377 0.24368,0.47698 0.24368,0.72962 0,0.15411 -0.0373,0.30297 -0.11181,0.44553 -0.076,0.14257 -0.19351,0.25789 -0.35548,0.34909 -0.16198,0.0912 -0.35262,0.13523 -0.56907,0.13523 -0.21071,0 -0.39849,-0.043 -0.56046,-0.12894 -0.16198,-0.086 -0.29672,-0.217 -0.40709,-0.38997 -0.0516,0.22224 -0.16054,0.38997 -0.32681,0.50109 -0.16485,0.11112 -0.38846,0.16669 -0.6694,0.16669 -0.37842,0 -0.68805,-0.10064 -0.93315,-0.30087 -0.24512,-0.20023 -0.36839,-0.46125 -0.36839,-0.78204 0,-0.22853 0.0746,-0.47069 0.22074,-0.72543 h 0.91595 c -0.20927,0.20757 -0.31249,0.41409 -0.31249,0.6164 0,0.12476 0.0545,0.23063 0.16342,0.31764 0.10894,0.0871 0.24082,0.13104 0.39705,0.13104 0.14907,0 0.27091,-0.0419 0.36695,-0.12685 0.096,-0.085 0.14191,-0.19393 0.14191,-0.32497 v -0.31868 h 0.72387 v 0.20966 c 0,0.1216 0.0373,0.22119 0.11182,0.29981 0.076,0.0797 0.17916,0.11846 0.31677,0.11846 0.12616,0 0.22935,-0.0356 0.31249,-0.10483 0.0817,-0.0702 0.12184,-0.15725 0.12184,-0.26417 0,-0.1583 -0.10612,-0.3428 -0.31965,-0.55351 z"
       id="path4624" />
    <path
       inkscape:connector-curvature="0"
       id="path4634"
       d="m 26.103243,73.912188 v 0.75164 h -2.32356 v 0.3669 h -0.74537 v -0.3669 h -1.2313 v -0.75164 h 1.2313 v -1.08919 h 0.80414 z m -1.23273,0 -1.09083,-0.51681 v 0.51681 z"
       style="fill:url(#linearGradient9015);fill-opacity:1" />
    <path
       inkscape:connector-curvature="0"
       id="path4644"
       d="m 26.234143,94.255538 v 1.61648 h -0.7984 v -0.88477 h -0.76975 c 0.13475,0.12161 0.20212,0.24216 0.20212,0.36586 0,0.16772 -0.10894,0.32812 -0.32825,0.48327 -0.21931,0.15725 -0.5447,0.23377 -0.97615,0.23377 -0.47876,0 -0.86865,-0.10064 -1.17253,-0.30505 -0.30388,-0.20443 -0.45582,-0.4686 -0.45582,-0.79462 0,-0.2128 0.0788,-0.45078 0.23508,-0.71494 h 0.95034 c -0.23221,0.22957 -0.34831,0.43399 -0.34831,0.61011 0,0.12685 0.0716,0.23377 0.21357,0.31972 0.14191,0.086 0.32109,0.13105 0.53467,0.13105 0.1548,0 0.28094,-0.022 0.38271,-0.0692 0.10038,-0.0451 0.15051,-0.10483 0.15051,-0.17402 0,-0.0734 -0.0659,-0.13523 -0.19494,-0.1824 v -0.63423 h 2.37515 v -9.7e-4 z"
       style="fill:url(#linearGradient9012);fill-opacity:1" />
    <rect
       style="opacity:0.53556483;fill:#ffffff;fill-opacity:1;stroke:none"
       id="rect5402"
       width="17.454298"
       height="2.0675449"
       x="11.8181"
       y="5.8199034" />
    <rect
       y="-116.3639"
       x="11.6362"
       height="108.47649"
       width="3.0089722"
       id="rect5404"
       style="opacity:0.53556483;fill:#ffffff;fill-opacity:1;stroke:none"
       transform="scale(1,-1)" />
  </g>
</svg>
