<?xml version="1.0" encoding="UTF-8" standalone="no"?>
<svg
   xmlns:dc="http://purl.org/dc/elements/1.1/"
   xmlns:cc="http://creativecommons.org/ns#"
   xmlns:rdf="http://www.w3.org/1999/02/22-rdf-syntax-ns#"
   xmlns:svg="http://www.w3.org/2000/svg"
   xmlns="http://www.w3.org/2000/svg"
   xmlns:xlink="http://www.w3.org/1999/xlink"
   xmlns:sodipodi="http://sodipodi.sourceforge.net/DTD/sodipodi-0.dtd"
   xmlns:inkscape="http://www.inkscape.org/namespaces/inkscape"
   enable-background="new 0 0 128 128"
   height="128"
   viewBox="0 0 128 128"
   width="128"
   version="1.1"
   id="svg240"
   sodipodi:docname="lc_trackchanges.svg"
   inkscape:export-filename="/home/rizmut/Dokumen/Rizmut/Github/libreoffice-style-karasa-jaga/build/images_karasa_jaga/cmd/lc_trackchanges.png"
   inkscape:export-xdpi="16.5"
   inkscape:export-ydpi="16.5"
   inkscape:version="0.92.3 (unknown)">
  <metadata
     id="metadata246">
    <rdf:RDF>
      <cc:Work
         rdf:about="">
        <dc:format>image/svg+xml</dc:format>
        <dc:type
           rdf:resource="http://purl.org/dc/dcmitype/StillImage" />
        <dc:title></dc:title>
      </cc:Work>
    </rdf:RDF>
  </metadata>
  <defs
     id="defs244" />
  <sodipodi:namedview
     pagecolor="#ffffff"
     bordercolor="#666666"
     borderopacity="1"
     objecttolerance="10"
     gridtolerance="10"
     guidetolerance="10"
     inkscape:pageopacity="0"
     inkscape:pageshadow="2"
     inkscape:window-width="1366"
     inkscape:window-height="706"
     id="namedview242"
     showgrid="true"
     inkscape:zoom="2.6074563"
     inkscape:cx="74.01356"
     inkscape:cy="62.34193"
     inkscape:window-x="0"
     inkscape:window-y="0"
     inkscape:window-maximized="1"
     inkscape:current-layer="svg240">
    <inkscape:grid
       type="xygrid"
       id="grid1053"
       spacingx="5.8181"
       spacingy="5.8181" />
  </sodipodi:namedview>
  <linearGradient
     id="a">
    <stop
       offset="0"
       stop-color="#fff"
       id="stop2" />
    <stop
       offset="1"
       stop-color="#fff"
       stop-opacity="0"
       id="stop4" />
  </linearGradient>
  <linearGradient
     id="b">
    <stop
       offset="0"
       stop-color="#fff"
       id="stop7" />
    <stop
       offset="1"
       stop-color="#252525"
       stop-opacity="0"
       id="stop9" />
  </linearGradient>
  <linearGradient
     id="c"
     gradientUnits="userSpaceOnUse"
     x1="88.591797"
     x2="71.262016"
     y1="96.592697"
     y2="79.262917">
    <stop
       offset="0"
       stop-color="#fff"
       id="stop12" />
    <stop
       offset="1"
       stop-color="#555753"
       id="stop14" />
  </linearGradient>
  <linearGradient
     id="d"
     gradientUnits="userSpaceOnUse"
     x1="85.219681"
     x2="61.336319"
     y1="93.219681"
     y2="69.336319">
    <stop
       offset="0"
       id="stop17" />
    <stop
       offset="1"
       stop-color="#393b38"
       id="stop19" />
  </linearGradient>
  <linearGradient
     id="e"
     gradientUnits="userSpaceOnUse"
     x1="96"
     x2="88.0002"
     y1="104"
     y2="96.0002">
    <stop
       offset="0"
       stop-color="#888a85"
       id="stop22" />
    <stop
       offset=".0072"
       stop-color="#8c8e89"
       id="stop24" />
    <stop
       offset=".0673"
       stop-color="#abaca9"
       id="stop26" />
    <stop
       offset=".1347"
       stop-color="#c5c6c4"
       id="stop28" />
    <stop
       offset=".2115"
       stop-color="#dbdbda"
       id="stop30" />
    <stop
       offset=".3012"
       stop-color="#ebebeb"
       id="stop32" />
    <stop
       offset=".4122"
       stop-color="#f7f7f6"
       id="stop34" />
    <stop
       offset=".5679"
       stop-color="#fdfdfd"
       id="stop36" />
    <stop
       offset="1"
       stop-color="#fff"
       id="stop38" />
  </linearGradient>
  <radialGradient
     id="f"
     cx="102"
     cy="112.3047"
     gradientTransform="matrix(0.94807,0,0,0.9510679,-2.529233,5.274458)"
     gradientUnits="userSpaceOnUse"
     r="139.55859">
    <stop
       offset="0"
       stop-color="#535557"
       id="stop41" />
    <stop
       offset=".11366145"
       stop-color="#898a8c"
       id="stop43" />
    <stop
       offset=".20296688"
       stop-color="#ececec"
       id="stop45" />
    <stop
       offset=".2363"
       stop-color="#fafafa"
       id="stop47" />
    <stop
       offset=".2722"
       stop-color="#fff"
       id="stop49" />
    <stop
       offset=".5313"
       stop-color="#fafafa"
       id="stop51" />
    <stop
       offset=".8449"
       stop-color="#ebecec"
       id="stop53" />
    <stop
       offset="1"
       stop-color="#e1e2e3"
       id="stop55" />
  </radialGradient>
  <radialGradient
     id="g"
     cx="94.9570934"
     cy="112.93460525694"
     gradientUnits="userSpaceOnUse"
     r="135.1875556917">
    <stop
       offset="0"
       stop-color="#3e3e3e"
       id="stop58" />
    <stop
       offset=".0151"
       stop-color="#505050"
       id="stop60" />
    <stop
       offset=".0558"
       stop-color="#7e7e7e"
       id="stop62" />
    <stop
       offset=".1357"
       stop-color="#c6c6c6"
       id="stop64" />
    <stop
       offset=".20990001"
       stop-color="#f1f1f1"
       id="stop66" />
    <stop
       offset=".24349999"
       stop-color="#fcfcfc"
       id="stop68" />
    <stop
       offset=".2722"
       stop-color="#fff"
       id="stop70" />
  </radialGradient>
  <filter
     id="h">
    <feGaussianBlur
       stdDeviation="1.0394514"
       id="feGaussianBlur73" />
  </filter>
  <filter
     id="i">
    <feGaussianBlur
       stdDeviation=".50063244"
       id="feGaussianBlur76" />
  </filter>
  <filter
     id="j">
    <feGaussianBlur
       stdDeviation=".40750996"
       id="feGaussianBlur79" />
  </filter>
  <filter
     id="k">
    <feGaussianBlur
       stdDeviation=".4901192"
       id="feGaussianBlur82" />
  </filter>
  <filter
     id="l">
    <feGaussianBlur
       stdDeviation=".90565481"
       id="feGaussianBlur85" />
  </filter>
  <linearGradient
     id="m"
     gradientTransform="matrix(1.3755238 0 0 1.8570645 -21.763731 -96.765704)"
     gradientUnits="userSpaceOnUse"
     x1="59.925762"
     x2="100.4067"
     y1="101.12862"
     y2="77.702431">
    <stop
       offset="0"
       id="stop88" />
    <stop
       offset="1"
       stop-opacity="0"
       id="stop90" />
  </linearGradient>
  <linearGradient
     id="n"
     gradientTransform="matrix(1.2875994 1.1737414 -.5465891 .6213041 81.686465 27.89447)"
     gradientUnits="userSpaceOnUse"
     x1="11.326384"
     x2="14.493531"
     y1="57.383999"
     y2="57.383999">
    <stop
       offset="0"
       stop-color="#9a7600"
       id="stop93" />
    <stop
       offset=".09292036"
       stop-color="#e3ad00"
       id="stop95" />
    <stop
       offset=".5043171"
       stop-color="#ffcd2c"
       id="stop97" />
    <stop
       offset=".91571385"
       stop-color="#e3ad00"
       id="stop99" />
    <stop
       offset="1"
       stop-color="#b98d00"
       id="stop101" />
  </linearGradient>
  <linearGradient
     id="o"
     gradientUnits="userSpaceOnUse"
     x1="-12.817558"
     x2="82.172836"
     y1="7.462277"
     y2="7.462277">
    <stop
       offset="0"
       stop-color="#fff"
       stop-opacity=".683453"
       id="stop104" />
    <stop
       offset="1"
       stop-color="#fff"
       stop-opacity="0"
       id="stop106" />
  </linearGradient>
  <linearGradient
     id="p"
     gradientTransform="matrix(.6182226 0 0 .6232687 24.10803 47.993844)"
     gradientUnits="userSpaceOnUse"
     x1="33.342377"
     x2="24.450998"
     y1="117.83894"
     y2="107.35519">
    <stop
       offset="0"
       id="stop109" />
    <stop
       offset="1"
       stop-color="#515151"
       id="stop111" />
  </linearGradient>
  <linearGradient
     id="q"
     gradientTransform="matrix(1.6732108 1.5189394 -1.5009523 1.6928488 18.675678 -24.465565)"
     gradientUnits="userSpaceOnUse"
     x1="48.498562"
     x2="48.732723"
     xlink:href="#a"
     y1=".811505"
     y2="2.365727" />
  <filter
     id="r">
    <feGaussianBlur
       stdDeviation=".6715998"
       id="feGaussianBlur115" />
  </filter>
  <radialGradient
     id="s"
     cx="42.617531"
     cy="120.64188"
     gradientTransform="matrix(1.909059 1.8392116 -8.6222515 7.5766472 1009.8522 -881.36145)"
     gradientUnits="userSpaceOnUse"
     r="3.406888">
    <stop
       offset="0"
       stop-color="#b4942a"
       id="stop118" />
    <stop
       offset="1"
       stop-color="#e4dcc9"
       id="stop120" />
  </radialGradient>
  <linearGradient
     id="t"
     gradientTransform="matrix(.9986497 0 0 .9998891 .14044 .005323)"
     gradientUnits="userSpaceOnUse"
     x1="75.848022"
     x2="81.452583"
     y1="72.804123"
     y2="77.047241">
    <stop
       offset="0"
       stop-color="#252525"
       id="stop123" />
    <stop
       offset=".5"
       stop-color="#252525"
       id="stop125" />
    <stop
       offset=".75"
       stop-color="#252525"
       id="stop127" />
    <stop
       offset="1"
       id="stop129" />
  </linearGradient>
  <linearGradient
     id="u"
     gradientTransform="matrix(.9986497 0 0 .9998891 .14044 .005323)"
     gradientUnits="userSpaceOnUse"
     x1="76.708534"
     x2="80.579521"
     y1="83.325729"
     y2="87.154587">
    <stop
       offset="0"
       stop-color="#d4a100"
       stop-opacity=".976471"
       id="stop132" />
    <stop
       offset="1"
       stop-color="#ffc712"
       id="stop134" />
  </linearGradient>
  <linearGradient
     id="v"
     gradientTransform="matrix(.9992082 0 0 .9993395 .108362 -.090375)"
     gradientUnits="userSpaceOnUse"
     x1="114.92793"
     x2="100.65602"
     y1="-22.560064"
     y2="-22.052734">
    <stop
       offset="0"
       stop-color="#980000"
       id="stop137" />
    <stop
       offset="1"
       stop-color="#db5c5c"
       id="stop139" />
  </linearGradient>
  <filter
     id="w">
    <feGaussianBlur
       stdDeviation=".31468463"
       id="feGaussianBlur142" />
  </filter>
  <radialGradient
     id="x"
     cx="34.677639"
     cy="7.462277"
     gradientTransform="matrix(-1.5103 .00264127 -.00011671 -.00911022 87.0522 7.438666)"
     gradientUnits="userSpaceOnUse"
     r="47.595196"
     xlink:href="#a" />
  <linearGradient
     id="y"
     gradientTransform="matrix(.9973012 0 0 .9997782 .28069 .010646)"
     gradientUnits="userSpaceOnUse"
     x1="92.226158"
     x2="96.579895"
     y1="54.119438"
     y2="57.15118">
    <stop
       offset="0"
       stop-color="#ea3838"
       id="stop146" />
    <stop
       offset="1"
       stop-color="#c40000"
       id="stop148" />
  </linearGradient>
  <radialGradient
     id="z"
     cx="49.011971"
     cy="2.674308"
     gradientTransform="matrix(2.2600183 0 0 .2752449 -2.259041 -25.415382)"
     gradientUnits="userSpaceOnUse"
     r="1.724619"
     xlink:href="#b" />
  <radialGradient
     id="A"
     cx="49.011971"
     cy="2.674308"
     gradientTransform="matrix(1.550633 0 0 .1873121 21.621938 -31.864287)"
     gradientUnits="userSpaceOnUse"
     r="1.724619"
     xlink:href="#b" />
  <radialGradient
     id="B"
     cx="49.011971"
     cy="2.674308"
     gradientTransform="matrix(1.5495914 0 0 .1876849 -193.24041 -23.535874)"
     gradientUnits="userSpaceOnUse"
     r="1.724619"
     xlink:href="#b" />
  <linearGradient
     id="C"
     gradientUnits="userSpaceOnUse"
     x1="87.2715"
     x2="87.2715"
     y1="52.3647"
     y2="128">
    <stop
       offset="0"
       stop-color="#696571"
       id="stop154"
       style="stop-color:#696571;stop-opacity:1" />
    <stop
       offset="1"
       stop-color="#c7c4cb"
       id="stop156"
       style="stop-color:#958f9d;stop-opacity:1" />
  </linearGradient>
  <radialGradient
     id="D"
     cx="90.18234500996"
     cy="90.18234500996"
     gradientUnits="userSpaceOnUse"
     r="31.86093688906">
    <stop
       offset="0"
       stop-color="#fefefe"
       id="stop159" />
    <stop
       offset=".69008267"
       stop-color="#fefefe"
       stop-opacity=".905882"
       id="stop161" />
    <stop
       offset="1"
       stop-color="#ced0d1"
       stop-opacity=".8125"
       id="stop163" />
  </radialGradient>
  <g
     id="g1073"
     transform="translate(0,-5.8181)">
    <path
       id="path166"
       transform="matrix(1.0090419,0,0,1.003276,-13.49473,0.929762)"
       d="M 23,8.9687825 23.040816,122.99347 H 84.172 c 0.53,0 1.039,-0.211 1.414,-0.586 l 32.828,-32.828001 c 0.375,-0.375 0.586,-0.884 0.586,-1.414 V 8.9687825 Z"
       inkscape:connector-curvature="0"
       style="opacity:0.55342503;filter:url(#h)" />
    <path
       id="path168"
       transform="matrix(1.0090419,0,0,1.003276,-13.49473,0.929762)"
       d="m 23,9 0.04082,113.99347 H 84.172 c 0.53,0 1.039,-0.211 1.414,-0.586 l 32.828,-32.828001 c 0.375,-0.375 0.586,-0.884 0.586,-1.414 V 9 Z"
       inkscape:connector-curvature="0"
       style="opacity:0.30684904;filter:url(#h)" />
    <path
       id="path170"
       transform="matrix(1.0090419,0,0,1.003276,-13.49473,0.929762)"
       d="m 24.905735,10.673272 0.01426,110.189918 58.676001,-1e-4 c 0.53,0 1.039,-0.211 1.414,-0.586 l 31.484,-31.765934 c 0.375,-0.375 0.586,-0.884 0.586,-1.414 l 0.0812,-76.423884 z"
       inkscape:connector-curvature="0"
       style="opacity:0.89589;filter:url(#i)" />
    <path
       id="path172"
       transform="matrix(1.0090419,0,0,1.003276,-13.49473,0.929762)"
       d="M 23,9.9655172 23.040816,122.99347 H 84.172 c 0.53,0 1.039,-0.211 1.414,-0.586 l 32.828,-32.828001 c 0.375,-0.375 0.586,-0.884 0.586,-1.414 V 9.9655172 Z"
       inkscape:connector-curvature="0"
       style="opacity:0.30684904;filter:url(#h)" />
    <path
       id="path174"
       d="m 11.6362,11.638 0.0144,110.55089 h 59.256106 c 0.513401,0 1.006458,-0.20439 1.369714,-0.56765 L 104.07625,89.821411 c 0.36326,-0.363255 0.56764,-0.856313 0.56764,-1.369714 L 104.7258,11.638 Z"
       style="fill:url(#g)"
       inkscape:connector-curvature="0" />
    <path
       id="path176"
       d="m 18.214103,17.512144 c -0.522387,0 -0.94807,0.42703 -0.94807,0.951069 l 0.321923,96.737247 c 0,0.525 0.425684,0.95108 0.94807,0.95108 h 52.099199 c 0.249342,0 0.493944,-0.10082 0.670284,-0.27867 L 99.42875,88.651213 c 0.17729,-0.17785 0.27778,-0.422273 0.27778,-0.672405 l -0.7,-69.493672 c 0,-0.524039 -0.42473,-0.951068 -0.94806,-0.951068 z"
       style="fill:url(#f)"
       inkscape:connector-curvature="0" />
    <path
       id="path188"
       d="m 17.4543,64.0009 h 58.181 v 11.6362 h -58.181 z"
       inkscape:connector-curvature="0"
       style="fill:#ff6600" />
  </g>
  <g
     transform="matrix(.9966935002 0 0 .9966935002 23.31244012015 -47.95288613551)"
     id="g230">
    <g
       fill-rule="evenodd"
       id="g198">
      <path
         d="m90.067703 48.28801c.613642-.692125 4.648657-.363057 8.944253 3.536477 4.337724 3.937759 5.210074 7.748115 4.441394 8.615025-.5003.564284-1.00061 1.128566-1.50092 1.692851-4.461914-4.050501-8.9238-8.101002-13.385691-12.151503.500309-.564283 1.000624-1.128565 1.500964-1.69285z"
         fill="#bf0000"
         id="path190" />
      <path
         d="m36.000762 124 20.247-9.42653.09417-.10772-13.269004-12.28446-.127672.1459z"
         fill="#b3925d"
         id="path192" />
      <path
         d="m98.534725 51.799464c-1.025821-.04502-1.882013.614542-2.665637.986566-4.174912 3.698786-21.569273 21.653428-22.000397 22.168708l-17.273332 20.659839-.106627.116066-9.682256 17.633397 23.598527-5.26172 29.942357-36.049245 3.58973-4.294461c.64726-1.199814 1.23861-7.813473-1.74155-12.76732-1.45299-2.415269-2.634991-3.146806-3.660815-3.19183zm5.402365 15.95915c-.0266.04924-.0446.143824-.0711.174098-.0129.01476 1.49247-1.049396.6753-.870498z"
         fill="url(#m)"
         filter="url(#r)"
         id="path194" />
      <path
         d="m37.004018 123.01573 18.885171-8.78019.09416-.10769-12.551842-11.60866-.12769.14592z"
         fill="url(#s)"
         id="path196" />
    </g>
    <path
       d="m49.164276 108.94499c1.648961 1.50106 2.755448 1.51054 3.34488 2.0471.09525.0867.175312.18851.243795.29167l44.639991-51.266458-6.480524-5.899315-44.724863 51.363483c.214748.0564.415855.13454.602285.30424.538767.49045.717813 1.65124 2.374436 3.15928z"
       fill="url(#t)"
       id="path200" />
    <path
       d="m54.219542 109.12044-1.750182 2.00168c.538752.53092.431653 1.46553 1.421976 2.36702 1.067261.97156 1.630178.45849 2.321697 1.08447l1.771382-2.02599z"
       opacity=".353488"
       id="path202" />
    <path
       d="m97.156354 59.801933-44.606049 51.227617c.541583.53354.517441 1.37742 1.512824 2.28353 1.072712.97652 1.555044.55628 2.250088 1.18547l44.627263-51.251869z"
       fill="url(#u)"
       id="path204" />
    <path
       d="m47.641192 104.81388-.897802 1.02682-.0345.0376c.447512.42018.395724 1.39005 1.878296 2.86086l.08229.0749.586334.53373.0823.0749c1.616252 1.35012 2.54668 1.16726 3.136095 1.7038l.947655-1.09585z"
       fill="#252525"
       opacity=".386047"
       id="path206" />
    <path
       d="m43.884886 101.37497-.940801.95531c.02064.0187-.05311.1047-.03237.12358.423005.38509.412824 1.36825 1.189787 2.20191l.072.0655.318878.29029.04115.0374c.925767.72156 1.702344.46358 2.175362.82926l.940872-1.07609z"
       fill="#131313"
       opacity=".353488"
       id="path208" />
    <path
       d="m44.501995 104.6749c1.032229.92922 1.738227.6105 2.287845 1.11081l44.606065-51.227604-3.824461-3.481452-44.627276 51.251876c.02096.019.04162.0379.06269.0571.42971.39116.455145 1.35294 1.495139 2.28929z"
       fill="url(#n)"
       id="path210" />
    <path
       d="m99.380959-24.64492h18.073059v4.252269h-18.073059z"
       fill="url(#v)"
       transform="matrix(.7409346 .6715772 -.6655662 .7463388 0 0)"
       id="path212" />
    <path
       d="m82.172836 7.4622769c0 .5365014-21.264324.9714217-47.495197.9714217-26.2308732 0-47.495197-.4349203-47.495197-.9714217s21.2643238-.9714217 47.495197-.9714217c26.230873 0 47.495197.4349203 47.495197.9714217z"
       fill="url(#o)"
       filter="url(#w)"
       transform="matrix(.3854946 -.4403693 -1.7345162 -1.5764895 62.874028 110.46407)"
       id="path214" />
    <path
       d="m106.56087 7.4622769c.00002.232347-31.840086.4212113-71.318555.4230365-39.478469.00183-71.818819-.1840719-72.439038-.4163902-.62022-.2323183 30.7118344-.424103 70.18056-.4295779 39.468725-.00547 72.301293.1774094 73.541553.4096417"
       fill="url(#x)"
       transform="matrix(.3184879 -.3665274 -1.2576415 -1.1452705 66.925762 101.47904)"
       id="path216" />
    <path
       d="m44.721041 119.98334c-1.894932-.77816-4.469372-3.93608-5.787909-5.07837l-2.933131 9.08971z"
       fill="url(#p)"
       fill-rule="evenodd"
       id="path218" />
    <path
       d="m97.676422 50.957862c2.773338 2.157871 4.754818 5.136648 4.863888 5.422718.10904.286071-2.586875-3.046365-4.878244-4.572341-2.273846-1.514326-5.450917-1.552229-5.685693-1.736594-.234782-.184361-1.822614-1.877275-.38221-1.814774 1.506596.06537 3.94013 1.035831 6.082259 2.700991z"
       fill="url(#q)"
       fill-rule="evenodd"
       id="path220" />
    <path
       d="m93.653015 51.592952-2.773744 3.218036 6.482458 5.873697 2.773741-3.186793z"
       fill="url(#y)"
       id="path222" />
    <path
       d="m104.60918-25.364759h7.795228v1.708078h-7.795228z"
       fill="url(#z)"
       transform="matrix(.7404161 .6721488 -.6634233 .7482443 0 0)"
       id="path224" />
    <path
       d="m94.946716-31.829779h5.348458v1.162492h-5.348458z"
       fill="url(#A)"
       transform="matrix(.6942228 .7197602 -.7693435 .6388354 0 0)"
       id="path226" />
    <path
       d="m-119.96733-23.501301h5.3449v1.164788h-5.3449z"
       fill="url(#B)"
       transform="matrix(-.7514575 -.6597815 -.5893147 .8079036 0 0)"
       id="path228" />
  </g>
  <g
     id="g1064">
    <g
       id="g186"
       transform="matrix(1.1080161 0 0 1.1080161 -18.597537 -10.01667)">
      <path
         opacity=".750685"
         fill="url(#c)"
         filter="url(#j)"
         id="path178"
         d="m111.414 86.586c.25-.25-26.379-1.586-31.414-1.586-1.654 0-3 1.346-3 3 0 5.035 1.336 31.664 1.586 31.414z" />
      <path
         opacity=".2"
         filter="url(#l)"
         id="path180"
         d="m111.414 86.586c.375-.375-21.97-.586-31.414-.586-1.103 0-2 .897-2 2 0 9.444.211 31.789.586 31.414z" />
      <path
         opacity=".1"
         fill="url(#d)"
         filter="url(#k)"
         id="path182"
         d="m111.414 86.586c.239-.239-21.607.414-31.414.414-.553 0-1 .447-1 1 0 9.807-.653 31.653-.414 31.414z" />
      <path
         fill="url(#e)"
         id="path184"
         d="m79.721619 119.31106 31.505501-31.505504h-31.505501z" />
    </g>
    <circle
       id="circle232"
       r="37.81765"
       fill="url(#C)"
       cy="90.18235"
       cx="90.18235" />
    <circle
       id="circle234"
       r="31.860939"
       fill="url(#D)"
       cy="90.18235"
       cx="90.18235" />
    <circle
       fill="#d90509"
       id="circle236"
       r="15.008741"
       cy="90.18235"
       cx="90.18235" />
    <path
       id="path238"
       fill-rule="evenodd"
       fill-opacity=".580882"
       fill="#fff"
       d="m90.181641 58.322266a31.860939 31.860939 0 0 0 -31.859375 31.859375 31.860939 31.860939 0 0 0 1.082031 8.171875c9.251606-4.136187 17.880962-5.261719 27.867187-5.261719 15.741576 1.117594 22.873026-.742185 34.388676-7.65625a31.860939 31.860939 0 0 0 -31.478519-27.113281z" />
  </g>
</svg>
