<?xml version="1.0" encoding="UTF-8" standalone="no"?>
<svg
   xmlns:dc="http://purl.org/dc/elements/1.1/"
   xmlns:cc="http://creativecommons.org/ns#"
   xmlns:rdf="http://www.w3.org/1999/02/22-rdf-syntax-ns#"
   xmlns:svg="http://www.w3.org/2000/svg"
   xmlns="http://www.w3.org/2000/svg"
   xmlns:xlink="http://www.w3.org/1999/xlink"
   xmlns:sodipodi="http://sodipodi.sourceforge.net/DTD/sodipodi-0.dtd"
   xmlns:inkscape="http://www.inkscape.org/namespaces/inkscape"
   height="128"
   viewBox="0 0 33.866666 33.866668"
   width="128"
   version="1.1"
   id="svg20"
   sodipodi:docname="lc_underlinedouble.svg"
   inkscape:version="0.92.3 (unknown)"
   inkscape:export-filename="/home/rizmut/Dokumen/Rizmut/Github/libreoffice-style-karasa-jaga/build/images_karasa_jaga/cmd/lc_underlinedouble.png"
   inkscape:export-xdpi="16.5"
   inkscape:export-ydpi="16.5">
  <metadata
     id="metadata26">
    <rdf:RDF>
      <cc:Work
         rdf:about="">
        <dc:format>image/svg+xml</dc:format>
        <dc:type
           rdf:resource="http://purl.org/dc/dcmitype/StillImage" />
        <dc:title></dc:title>
      </cc:Work>
    </rdf:RDF>
  </metadata>
  <defs
     id="defs24">
    <linearGradient
       inkscape:collect="always"
       xlink:href="#b"
       id="linearGradient851"
       x1="19.105469"
       y1="41.433594"
       x2="108.89258"
       y2="41.433594"
       gradientUnits="userSpaceOnUse" />
  </defs>
  <sodipodi:namedview
     pagecolor="#ffffff"
     bordercolor="#666666"
     borderopacity="1"
     objecttolerance="10"
     gridtolerance="10"
     guidetolerance="10"
     inkscape:pageopacity="0"
     inkscape:pageshadow="2"
     inkscape:window-width="1366"
     inkscape:window-height="706"
     id="namedview22"
     showgrid="true"
     inkscape:zoom="7.375"
     inkscape:cx="82.154411"
     inkscape:cy="96.052586"
     inkscape:window-x="0"
     inkscape:window-y="0"
     inkscape:window-maximized="1"
     inkscape:current-layer="svg20">
    <inkscape:grid
       type="xygrid"
       id="grid1425"
       spacingx="1.5393723"
       spacingy="1.5393723"
       empspacing="1" />
  </sodipodi:namedview>
  <linearGradient
     id="a"
     gradientUnits="userSpaceOnUse"
     x1="18.99608880061"
     x2="20.22575014415"
     y1="294.82258903077"
     y2="266.54036534865"
     gradientTransform="matrix(0.78351691,0,0,0.78351691,0.33272269,-205.00547)">
    <stop
       offset="0"
       stop-color="#555"
       id="stop2" />
    <stop
       offset="1"
       id="stop4" />
  </linearGradient>
  <linearGradient
     id="b"
     gradientUnits="userSpaceOnUse"
     x1="53.856667"
     x2="72.864624"
     y1="1.845663"
     y2="61.042988"
     gradientTransform="matrix(0.21695833,0,0,0.21695833,3.048,3.0518754)">
    <stop
       offset="0"
       stop-color="#3b3e22"
       id="stop7" />
    <stop
       offset="1"
       stop-color="#454545"
       stop-opacity="0"
       id="stop9" />
  </linearGradient>
  <g
     transform="matrix(0.26458334,0,0,0.26458334,-3.4352957e-8,-3.0787451)"
     style="fill:#010101"
     id="g25">
    <rect
       height="5.8181"
       rx="1.78422"
       ry="2.2950201"
       width="104.7258"
       x="11.6362"
       y="110.5457"
       id="rect21-2" />
    <rect
       height="5.8181"
       rx="1.78422"
       ry="2.2950201"
       width="104.7258"
       x="11.6362"
       y="122.1819"
       id="rect23" />
  </g>
  <flowRoot
     xml:space="preserve"
     id="flowRoot828"
     style="fill:black;stroke:none;stroke-opacity:1;stroke-width:1px;stroke-linejoin:miter;stroke-linecap:butt;fill-opacity:1;font-family:sans-serif;font-style:normal;font-weight:normal;font-size:40px;line-height:125%;letter-spacing:0px;word-spacing:0px"><flowRegion
       id="flowRegion830"><rect
         id="rect832"
         width="116.362"
         height="63.9991"
         x="-5.8181"
         y="-5.8162994" /></flowRegion><flowPara
       id="flowPara834"></flowPara></flowRoot>  <g
     id="g875"
     transform="matrix(1,0,0,0.97859191,0,0.07102462)">
    <text
       transform="scale(1.0465633,0.95550838)"
       style="font-size:32.0442543px;font-family:sans-serif;letter-spacing:0;word-spacing:0;fill:url(#a);stroke-width:0.80110604"
       x="4.0234747"
       y="25.795523"
       id="text14">
      <tspan
         font-size="43.038166"
         font-weight="bold"
         x="4.0234747"
         y="25.795523"
         id="tspan12"
         style="font-style:normal;font-variant:normal;font-weight:normal;font-stretch:normal;font-size:33.72113037px;font-family:FreeSerif;-inkscape-font-specification:FreeSerif;fill:url(#a);stroke-width:0.80110604">U</tspan>
    </text>
    <path
       id="path836"
       transform="scale(0.26458334)"
       d="m 19.105469,13.626953 v 0.296875 c 4.589459,0.418283 7.801355,1.049968 9.49414,2.574219 1.952469,1.671184 2.511719,4.748202 2.511719,9.318359 v 37.988282 c 0,1.35977 0.04789,2.667715 0.138672,3.929687 a 83.194538,52.981826 0 0 0 11.285156,1.505859 c -0.119718,-1.425546 -0.199218,-2.896696 -0.199218,-4.455078 v -38.96875 c 0,-4.484526 0.510587,-7.498717 2.349609,-9.177734 1.75132,-1.598949 5.072068,-2.285919 9.787109,-2.714844 v -0.296875 z m 61.224609,0 v 0.345703 c 4.638462,0.436319 8.114442,1.514333 9.896484,3.759766 1.957415,2.382814 2.642579,6.534994 2.642579,12.710937 v 32.875 c 0,0.125085 -0.0053,0.239258 -0.0059,0.363282 a 83.194538,52.981826 0 0 0 3.486328,-1.273438 c 1.7e-4,-0.06241 0.0039,-0.119014 0.0039,-0.181641 V 30.443359 c 0,-6.246908 0.56841,-10.304823 2.373046,-12.570312 1.677815,-2.106281 5.199235,-3.201527 10.166015,-3.886719 v -0.359375 z"
       style="opacity:1;fill:url(#linearGradient851);fill-opacity:1;stroke:none;stroke-width:8;stroke-linecap:round;stroke-linejoin:round;stroke-miterlimit:4;stroke-dasharray:none;stroke-dashoffset:0;stroke-opacity:1"
       inkscape:connector-curvature="0" />
  </g>
</svg>
