<svg height="128" width="128" xmlns="http://www.w3.org/2000/svg" xmlns:xlink="http://www.w3.org/1999/xlink"><linearGradient id="a" gradientTransform="matrix(1.6722408 0 0 1.720232 -46.241511 -54.730943)" gradientUnits="userSpaceOnUse" x1="64" x2="64" y1="22.506487" y2="93.317558"><stop offset="0" stop-color="#1c1c1c"/><stop offset=".5" stop-color="#888"/><stop offset="1"/></linearGradient><g transform="matrix(0 1 -1 0 122.424299 .244195)"><path d="m54.892799 3.2812959v-2.79470843z" fill="#fff" fill-opacity=".756881"/><path d="m25.4069 17.5-2.1345 29.0466h3.75c1.545151-8.454941 4.957766-12.722291 8.028-15.23555 3.070234-2.509818 7.830895-2.21875 16.3125-2.21875h1v53.8172c0 6.75363-4.003527 8.04497-5.61055 9.71875-1.610368 1.67207-5.308633 2.77379-11.84375 3.28125v3h26.9086 25.4543v-3c-6.535117-.50746-10.233382-1.60918-11.84375-3.28125-1.607023-1.67378-5.61055-2.96512-5.61055-9.71875v-53.8172h1c8.481605 0 13.242266-.291068 16.3125 2.21875 3.07023 2.513259 6.48285 6.780609 8.028 15.23555h3.75l-2.7508-29.0466h-35.375z" fill="url(#a)"/><g fill="#a4c0e4"><path d="m29.438 94.030998h69.125v1h-69.125z" transform="matrix(1.5991885 0 0 -5.8180975 -41.258811 663.44531)"/><path d="m11.6362 5.8199h5.818103v116.36201h-5.818103z"/><path d="m104.5439 5.8199h5.8181v116.362h-5.8181z"/></g></g></svg>