<?xml version="1.0" encoding="UTF-8" standalone="no"?>
<svg
   xmlns:dc="http://purl.org/dc/elements/1.1/"
   xmlns:cc="http://creativecommons.org/ns#"
   xmlns:rdf="http://www.w3.org/1999/02/22-rdf-syntax-ns#"
   xmlns:svg="http://www.w3.org/2000/svg"
   xmlns="http://www.w3.org/2000/svg"
   xmlns:xlink="http://www.w3.org/1999/xlink"
   xmlns:sodipodi="http://sodipodi.sourceforge.net/DTD/sodipodi-0.dtd"
   xmlns:inkscape="http://www.inkscape.org/namespaces/inkscape"
   enable-background="new 0 0 128 128"
   height="128"
   viewBox="0 0 128 128"
   width="128"
   version="1.1"
   id="svg3192"
   sodipodi:docname="lc_versiondialog.svg"
   inkscape:version="0.92.4 (unknown)"
   inkscape:export-filename="/home/rizmut/Dokumen/Rizmut/Github/libreoffice-style-karasa-jaga/build/images_karasa_jaga/cmd/lc_versiondialog.png"
   inkscape:export-xdpi="16.5"
   inkscape:export-ydpi="16.5">
  <metadata
     id="metadata3198">
    <rdf:RDF>
      <cc:Work
         rdf:about="">
        <dc:format>image/svg+xml</dc:format>
        <dc:type
           rdf:resource="http://purl.org/dc/dcmitype/StillImage" />
        <dc:title></dc:title>
      </cc:Work>
    </rdf:RDF>
  </metadata>
  <defs
     id="defs3196">
    <radialGradient
       inkscape:collect="always"
       xlink:href="#e"
       id="radialGradient916"
       gradientUnits="userSpaceOnUse"
       cx="100.8098464"
       cy="112.93460525694"
       r="135.1875556917" />
    <radialGradient
       inkscape:collect="always"
       xlink:href="#d"
       id="radialGradient918"
       gradientUnits="userSpaceOnUse"
       gradientTransform="matrix(0.94807,0,0,0.9510679,3.32352,5.274458)"
       cx="102"
       cy="112.3047"
       r="139.55859" />
    <linearGradient
       inkscape:collect="always"
       xlink:href="#a"
       id="linearGradient920"
       gradientUnits="userSpaceOnUse"
       x1="88.591797"
       y1="96.592697"
       x2="71.262016"
       y2="79.262917" />
    <linearGradient
       inkscape:collect="always"
       xlink:href="#b"
       id="linearGradient922"
       gradientUnits="userSpaceOnUse"
       x1="85.219681"
       y1="93.219681"
       x2="61.336319"
       y2="69.336319" />
    <linearGradient
       inkscape:collect="always"
       xlink:href="#c"
       id="linearGradient924"
       gradientUnits="userSpaceOnUse"
       x1="96"
       y1="104"
       x2="88.0002"
       y2="96.0002" />
    <radialGradient
       inkscape:collect="always"
       xlink:href="#e"
       id="radialGradient967"
       gradientUnits="userSpaceOnUse"
       cx="100.8098464"
       cy="112.93460525694"
       r="135.1875556917" />
    <radialGradient
       inkscape:collect="always"
       xlink:href="#d"
       id="radialGradient969"
       gradientUnits="userSpaceOnUse"
       gradientTransform="matrix(0.94807,0,0,0.9510679,3.32352,5.274458)"
       cx="102"
       cy="112.3047"
       r="139.55859" />
    <linearGradient
       inkscape:collect="always"
       xlink:href="#a"
       id="linearGradient971"
       gradientUnits="userSpaceOnUse"
       x1="88.591797"
       y1="96.592697"
       x2="71.262016"
       y2="79.262917" />
    <linearGradient
       inkscape:collect="always"
       xlink:href="#b"
       id="linearGradient973"
       gradientUnits="userSpaceOnUse"
       x1="85.219681"
       y1="93.219681"
       x2="61.336319"
       y2="69.336319" />
    <linearGradient
       inkscape:collect="always"
       xlink:href="#c"
       id="linearGradient975"
       gradientUnits="userSpaceOnUse"
       x1="96"
       y1="104"
       x2="88.0002"
       y2="96.0002" />
    <radialGradient
       inkscape:collect="always"
       xlink:href="#e"
       id="radialGradient1003"
       gradientUnits="userSpaceOnUse"
       cx="100.8098464"
       cy="112.93460525694"
       r="135.1875556917" />
    <radialGradient
       inkscape:collect="always"
       xlink:href="#d"
       id="radialGradient1005"
       gradientUnits="userSpaceOnUse"
       gradientTransform="matrix(0.94807,0,0,0.9510679,3.32352,5.274458)"
       cx="102"
       cy="112.3047"
       r="139.55859" />
    <linearGradient
       inkscape:collect="always"
       xlink:href="#a"
       id="linearGradient1007"
       gradientUnits="userSpaceOnUse"
       x1="88.591797"
       y1="96.592697"
       x2="71.262016"
       y2="79.262917" />
    <linearGradient
       inkscape:collect="always"
       xlink:href="#b"
       id="linearGradient1009"
       gradientUnits="userSpaceOnUse"
       x1="85.219681"
       y1="93.219681"
       x2="61.336319"
       y2="69.336319" />
    <linearGradient
       inkscape:collect="always"
       xlink:href="#c"
       id="linearGradient1011"
       gradientUnits="userSpaceOnUse"
       x1="96"
       y1="104"
       x2="88.0002"
       y2="96.0002" />
  </defs>
  <sodipodi:namedview
     pagecolor="#ffffff"
     bordercolor="#666666"
     borderopacity="1"
     objecttolerance="10"
     gridtolerance="10"
     guidetolerance="10"
     inkscape:pageopacity="0"
     inkscape:pageshadow="2"
     inkscape:window-width="1366"
     inkscape:window-height="706"
     id="namedview3194"
     showgrid="true"
     inkscape:zoom="2.8284271"
     inkscape:cx="34.226017"
     inkscape:cy="66.175875"
     inkscape:window-x="0"
     inkscape:window-y="0"
     inkscape:window-maximized="1"
     inkscape:current-layer="svg3192"
     showguides="true">
    <inkscape:grid
       type="xygrid"
       id="grid867"
       spacingx="5.8181"
       spacingy="5.8181"
       empspacing="1" />
  </sodipodi:namedview>
  <linearGradient
     id="a"
     gradientUnits="userSpaceOnUse"
     x1="88.591797"
     x2="71.262016"
     y1="96.592697"
     y2="79.262917">
    <stop
       offset="0"
       stop-color="#fff"
       id="stop3094" />
    <stop
       offset="1"
       stop-color="#555753"
       id="stop3096" />
  </linearGradient>
  <linearGradient
     id="b"
     gradientUnits="userSpaceOnUse"
     x1="85.219681"
     x2="61.336319"
     y1="93.219681"
     y2="69.336319">
    <stop
       offset="0"
       id="stop3099" />
    <stop
       offset="1"
       stop-color="#393b38"
       id="stop3101" />
  </linearGradient>
  <linearGradient
     id="c"
     gradientUnits="userSpaceOnUse"
     x1="96"
     x2="88.0002"
     y1="104"
     y2="96.0002">
    <stop
       offset="0"
       stop-color="#888a85"
       id="stop3104" />
    <stop
       offset=".0072"
       stop-color="#8c8e89"
       id="stop3106" />
    <stop
       offset=".0673"
       stop-color="#abaca9"
       id="stop3108" />
    <stop
       offset=".1347"
       stop-color="#c5c6c4"
       id="stop3110" />
    <stop
       offset=".2115"
       stop-color="#dbdbda"
       id="stop3112" />
    <stop
       offset=".3012"
       stop-color="#ebebeb"
       id="stop3114" />
    <stop
       offset=".4122"
       stop-color="#f7f7f6"
       id="stop3116" />
    <stop
       offset=".5679"
       stop-color="#fdfdfd"
       id="stop3118" />
    <stop
       offset="1"
       stop-color="#fff"
       id="stop3120" />
  </linearGradient>
  <radialGradient
     id="d"
     cx="102"
     cy="112.3047"
     gradientTransform="matrix(0.94807,0,0,0.9510679,3.32352,5.274458)"
     gradientUnits="userSpaceOnUse"
     r="139.55859">
    <stop
       offset="0"
       stop-color="#535557"
       id="stop3123" />
    <stop
       offset=".11366145"
       stop-color="#898a8c"
       id="stop3125" />
    <stop
       offset=".20296688"
       stop-color="#ececec"
       id="stop3127" />
    <stop
       offset=".2363"
       stop-color="#fafafa"
       id="stop3129" />
    <stop
       offset=".2722"
       stop-color="#fff"
       id="stop3131" />
    <stop
       offset=".5313"
       stop-color="#fafafa"
       id="stop3133" />
    <stop
       offset=".8449"
       stop-color="#ebecec"
       id="stop3135" />
    <stop
       offset="1"
       stop-color="#e1e2e3"
       id="stop3137" />
  </radialGradient>
  <radialGradient
     id="e"
     cx="100.8098464"
     cy="112.93460525694"
     gradientUnits="userSpaceOnUse"
     r="135.1875556917">
    <stop
       offset="0"
       stop-color="#3e3e3e"
       id="stop3140" />
    <stop
       offset=".0151"
       stop-color="#505050"
       id="stop3142" />
    <stop
       offset=".0558"
       stop-color="#7e7e7e"
       id="stop3144" />
    <stop
       offset=".1357"
       stop-color="#c6c6c6"
       id="stop3146" />
    <stop
       offset=".20990001"
       stop-color="#f1f1f1"
       id="stop3148" />
    <stop
       offset=".24349999"
       stop-color="#fcfcfc"
       id="stop3150" />
    <stop
       offset=".2722"
       stop-color="#fff"
       id="stop3152" />
  </radialGradient>
  <filter
     id="f">
    <feGaussianBlur
       stdDeviation="1.0394514"
       id="feGaussianBlur3155" />
  </filter>
  <filter
     id="g">
    <feGaussianBlur
       stdDeviation=".50063244"
       id="feGaussianBlur3158" />
  </filter>
  <filter
     id="h">
    <feGaussianBlur
       stdDeviation=".40750996"
       id="feGaussianBlur3161" />
  </filter>
  <filter
     id="i">
    <feGaussianBlur
       stdDeviation=".4901192"
       id="feGaussianBlur3164" />
  </filter>
  <filter
     id="j">
    <feGaussianBlur
       stdDeviation=".90565481"
       id="feGaussianBlur3167" />
  </filter>
  <g
     id="g1001"
     transform="translate(-29.12515,-23.2724)">
    <g
       id="g989">
      <path
         d="m 46.063856,32.165191 0.04082,90.828279 H 84.172 c 0.53,0 1.039,-0.211 1.414,-0.586 l 32.828,-32.828001 c 0.375,-0.375 0.586,-0.884 0.586,-1.414 V 32.165191 Z"
         transform="matrix(1.0090419,0,0,1.003276,-7.641977,0.929762)"
         id="path977"
         inkscape:connector-curvature="0"
         style="opacity:0.55342503;filter:url(#f)"
         sodipodi:nodetypes="ccsssscc" />
      <path
         d="m 46.063856,32.196409 0.04082,90.797061 H 84.172 c 0.53,0 1.039,-0.211 1.414,-0.586 l 32.828,-32.828001 c 0.375,-0.375 0.586,-0.884 0.586,-1.414 v -55.96906 z"
         transform="matrix(1.0090419,0,0,1.003276,-7.641977,0.929762)"
         id="path979"
         inkscape:connector-curvature="0"
         style="opacity:0.30684904;filter:url(#f)"
         sodipodi:nodetypes="ccsssscc" />
      <path
         d="m 47.969591,33.869681 0.01426,86.993509 35.612145,-1e-4 c 0.53,0 1.039,-0.211 1.414,-0.586 L 116.494,88.511156 c 0.375,-0.375 0.586,-0.884 0.586,-1.414 l 0.0812,-53.227475 z"
         transform="matrix(1.0090419,0,0,1.003276,-7.641977,0.929762)"
         id="path981"
         inkscape:connector-curvature="0"
         style="opacity:0.89589;filter:url(#g)"
         sodipodi:nodetypes="cccccccc" />
      <path
         d="m 46.063856,33.161926 0.04082,89.831544 H 84.172 c 0.53,0 1.039,-0.211 1.414,-0.586 l 32.828,-32.828001 c 0.375,-0.375 0.586,-0.884 0.586,-1.414 V 33.161926 Z"
         transform="matrix(1.0090419,0,0,1.003276,-7.641977,0.929762)"
         id="path983"
         inkscape:connector-curvature="0"
         style="opacity:0.30684904;filter:url(#f)"
         sodipodi:nodetypes="ccsssscc" />
      <path
         d="m 40.76135,34.9104 0.0144,87.27849 h 35.983709 c 0.513401,0 1.006458,-0.20439 1.369714,-0.56765 L 109.929,89.821411 c 0.36326,-0.363255 0.56764,-0.856313 0.56764,-1.369714 l 0.0819,-53.541297 z"
         id="path985"
         style="fill:url(#radialGradient1003)"
         inkscape:connector-curvature="0"
         sodipodi:nodetypes="ccsccccc" />
      <path
         d="m 47.339253,40.784544 c -0.522387,0 -0.94807,0.42703 -0.94807,0.951069 l 0.321923,73.464847 c 0,0.525 0.425684,0.95108 0.94807,0.95108 h 28.826802 c 0.249342,0 0.493944,-0.10082 0.670284,-0.27867 L 105.2815,88.651213 c 0.17729,-0.17785 0.27778,-0.422273 0.27778,-0.672405 l -0.7,-46.221272 c 0,-0.524039 -0.42473,-0.951068 -0.94806,-0.951068 z"
         id="path987"
         style="fill:url(#radialGradient1005)"
         inkscape:connector-curvature="0"
         sodipodi:nodetypes="cccsscccccc" />
    </g>
    <g
       id="g999"
       transform="matrix(1.1080161,0,0,1.1080161,-12.744784,-10.01667)">
      <path
         id="path991"
         d="M 111.414,86.586 C 111.664,86.336 85.035,85 80,85 c -1.654,0 -3,1.346 -3,3 0,5.035 1.336,31.664 1.586,31.414 z"
         style="opacity:0.75068497;fill:url(#linearGradient1007);filter:url(#h)"
         inkscape:connector-curvature="0" />
      <path
         id="path993"
         d="M 111.414,86.586 C 111.789,86.211 89.444,86 80,86 c -1.103,0 -2,0.897 -2,2 0,9.444 0.211,31.789 0.586,31.414 z"
         inkscape:connector-curvature="0"
         style="opacity:0.2;filter:url(#j)" />
      <path
         id="path995"
         d="M 111.414,86.586 C 111.653,86.347 89.807,87 80,87 c -0.553,0 -1,0.447 -1,1 0,9.807 -0.653,31.653 -0.414,31.414 z"
         style="opacity:0.1;fill:url(#linearGradient1009);filter:url(#i)"
         inkscape:connector-curvature="0" />
      <path
         id="path997"
         d="M 79.721619,119.31106 111.22712,87.805556 H 79.721619 Z"
         style="fill:url(#linearGradient1011)"
         inkscape:connector-curvature="0" />
    </g>
  </g>
  <g
     transform="translate(-11.67085,-11.6362)"
     id="g965">
    <g
       id="g953">
      <path
         sodipodi:nodetypes="ccsssscc"
         style="opacity:0.55342503;filter:url(#f)"
         inkscape:connector-curvature="0"
         id="path941"
         transform="matrix(1.0090419,0,0,1.003276,-7.641977,0.929762)"
         d="m 46.063856,32.165191 0.04082,90.828279 H 84.172 c 0.53,0 1.039,-0.211 1.414,-0.586 l 32.828,-32.828001 c 0.375,-0.375 0.586,-0.884 0.586,-1.414 V 32.165191 Z" />
      <path
         sodipodi:nodetypes="ccsssscc"
         style="opacity:0.30684904;filter:url(#f)"
         inkscape:connector-curvature="0"
         id="path943"
         transform="matrix(1.0090419,0,0,1.003276,-7.641977,0.929762)"
         d="m 46.063856,32.196409 0.04082,90.797061 H 84.172 c 0.53,0 1.039,-0.211 1.414,-0.586 l 32.828,-32.828001 c 0.375,-0.375 0.586,-0.884 0.586,-1.414 v -55.96906 z" />
      <path
         sodipodi:nodetypes="cccccccc"
         style="opacity:0.89589;filter:url(#g)"
         inkscape:connector-curvature="0"
         id="path945"
         transform="matrix(1.0090419,0,0,1.003276,-7.641977,0.929762)"
         d="m 47.969591,33.869681 0.01426,86.993509 35.612145,-1e-4 c 0.53,0 1.039,-0.211 1.414,-0.586 L 116.494,88.511156 c 0.375,-0.375 0.586,-0.884 0.586,-1.414 l 0.0812,-53.227475 z" />
      <path
         sodipodi:nodetypes="ccsssscc"
         style="opacity:0.30684904;filter:url(#f)"
         inkscape:connector-curvature="0"
         id="path947"
         transform="matrix(1.0090419,0,0,1.003276,-7.641977,0.929762)"
         d="m 46.063856,33.161926 0.04082,89.831544 H 84.172 c 0.53,0 1.039,-0.211 1.414,-0.586 l 32.828,-32.828001 c 0.375,-0.375 0.586,-0.884 0.586,-1.414 V 33.161926 Z" />
      <path
         sodipodi:nodetypes="ccsccccc"
         inkscape:connector-curvature="0"
         style="fill:url(#radialGradient967)"
         id="path949"
         d="m 40.76135,34.9104 0.0144,87.27849 h 35.983709 c 0.513401,0 1.006458,-0.20439 1.369714,-0.56765 L 109.929,89.821411 c 0.36326,-0.363255 0.56764,-0.856313 0.56764,-1.369714 l 0.0819,-53.541297 z" />
      <path
         sodipodi:nodetypes="cccsscccccc"
         inkscape:connector-curvature="0"
         style="fill:url(#radialGradient969)"
         id="path951"
         d="m 47.339253,40.784544 c -0.522387,0 -0.94807,0.42703 -0.94807,0.951069 l 0.321923,73.464847 c 0,0.525 0.425684,0.95108 0.94807,0.95108 h 28.826802 c 0.249342,0 0.493944,-0.10082 0.670284,-0.27867 L 105.2815,88.651213 c 0.17729,-0.17785 0.27778,-0.422273 0.27778,-0.672405 l -0.7,-46.221272 c 0,-0.524039 -0.42473,-0.951068 -0.94806,-0.951068 z" />
    </g>
    <g
       transform="matrix(1.1080161,0,0,1.1080161,-12.744784,-10.01667)"
       id="g963">
      <path
         inkscape:connector-curvature="0"
         style="opacity:0.75068497;fill:url(#linearGradient971);filter:url(#h)"
         d="M 111.414,86.586 C 111.664,86.336 85.035,85 80,85 c -1.654,0 -3,1.346 -3,3 0,5.035 1.336,31.664 1.586,31.414 z"
         id="path955" />
      <path
         style="opacity:0.2;filter:url(#j)"
         inkscape:connector-curvature="0"
         d="M 111.414,86.586 C 111.789,86.211 89.444,86 80,86 c -1.103,0 -2,0.897 -2,2 0,9.444 0.211,31.789 0.586,31.414 z"
         id="path957" />
      <path
         inkscape:connector-curvature="0"
         style="opacity:0.1;fill:url(#linearGradient973);filter:url(#i)"
         d="M 111.414,86.586 C 111.653,86.347 89.807,87 80,87 c -0.553,0 -1,0.447 -1,1 0,9.807 -0.653,31.653 -0.414,31.414 z"
         id="path959" />
      <path
         inkscape:connector-curvature="0"
         style="fill:url(#linearGradient975)"
         d="M 79.721619,119.31106 111.22712,87.805556 H 79.721619 Z"
         id="path961" />
    </g>
  </g>
  <g
     id="g3766"
     transform="translate(5.7834498)">
    <g
       id="g3752">
      <path
         d="m 46.063856,32.165191 0.04082,90.828279 H 84.172 c 0.53,0 1.039,-0.211 1.414,-0.586 l 32.828,-32.828001 c 0.375,-0.375 0.586,-0.884 0.586,-1.414 V 32.165191 Z"
         transform="matrix(1.0090419,0,0,1.003276,-7.641977,0.929762)"
         id="path3170"
         inkscape:connector-curvature="0"
         style="opacity:0.55342503;filter:url(#f)"
         sodipodi:nodetypes="ccsssscc" />
      <path
         d="m 46.063856,32.196409 0.04082,90.797061 H 84.172 c 0.53,0 1.039,-0.211 1.414,-0.586 l 32.828,-32.828001 c 0.375,-0.375 0.586,-0.884 0.586,-1.414 v -55.96906 z"
         transform="matrix(1.0090419,0,0,1.003276,-7.641977,0.929762)"
         id="path3172"
         inkscape:connector-curvature="0"
         style="opacity:0.30684904;filter:url(#f)"
         sodipodi:nodetypes="ccsssscc" />
      <path
         d="m 47.969591,33.869681 0.01426,86.993509 35.612145,-1e-4 c 0.53,0 1.039,-0.211 1.414,-0.586 L 116.494,88.511156 c 0.375,-0.375 0.586,-0.884 0.586,-1.414 l 0.0812,-53.227475 z"
         transform="matrix(1.0090419,0,0,1.003276,-7.641977,0.929762)"
         id="path3174"
         inkscape:connector-curvature="0"
         style="opacity:0.89589;filter:url(#g)"
         sodipodi:nodetypes="cccccccc" />
      <path
         d="m 46.063856,33.161926 0.04082,89.831544 H 84.172 c 0.53,0 1.039,-0.211 1.414,-0.586 l 32.828,-32.828001 c 0.375,-0.375 0.586,-0.884 0.586,-1.414 V 33.161926 Z"
         transform="matrix(1.0090419,0,0,1.003276,-7.641977,0.929762)"
         id="path3176"
         inkscape:connector-curvature="0"
         style="opacity:0.30684904;filter:url(#f)"
         sodipodi:nodetypes="ccsssscc" />
      <path
         d="m 40.76135,34.9104 0.0144,87.27849 h 35.983709 c 0.513401,0 1.006458,-0.20439 1.369714,-0.56765 L 109.929,89.821411 c 0.36326,-0.363255 0.56764,-0.856313 0.56764,-1.369714 l 0.0819,-53.541297 z"
         id="path3178"
         style="fill:url(#radialGradient916)"
         inkscape:connector-curvature="0"
         sodipodi:nodetypes="ccsccccc" />
      <path
         d="m 47.339253,40.784544 c -0.522387,0 -0.94807,0.42703 -0.94807,0.951069 l 0.321923,73.464847 c 0,0.525 0.425684,0.95108 0.94807,0.95108 h 28.826802 c 0.249342,0 0.493944,-0.10082 0.670284,-0.27867 L 105.2815,88.651213 c 0.17729,-0.17785 0.27778,-0.422273 0.27778,-0.672405 l -0.7,-46.221272 c 0,-0.524039 -0.42473,-0.951068 -0.94806,-0.951068 z"
         id="path3180"
         style="fill:url(#radialGradient918)"
         inkscape:connector-curvature="0"
         sodipodi:nodetypes="cccsscccccc" />
    </g>
    <g
       id="g3190"
       transform="matrix(1.1080161,0,0,1.1080161,-12.744784,-10.01667)">
      <path
         id="path3182"
         d="M 111.414,86.586 C 111.664,86.336 85.035,85 80,85 c -1.654,0 -3,1.346 -3,3 0,5.035 1.336,31.664 1.586,31.414 z"
         style="opacity:0.75068497;fill:url(#linearGradient920);filter:url(#h)"
         inkscape:connector-curvature="0" />
      <path
         id="path3184"
         d="M 111.414,86.586 C 111.789,86.211 89.444,86 80,86 c -1.103,0 -2,0.897 -2,2 0,9.444 0.211,31.789 0.586,31.414 z"
         inkscape:connector-curvature="0"
         style="opacity:0.2;filter:url(#j)" />
      <path
         id="path3186"
         d="M 111.414,86.586 C 111.653,86.347 89.807,87 80,87 c -0.553,0 -1,0.447 -1,1 0,9.807 -0.653,31.653 -0.414,31.414 z"
         style="opacity:0.1;fill:url(#linearGradient922);filter:url(#i)"
         inkscape:connector-curvature="0" />
      <path
         id="path3188"
         d="M 79.721619,119.31106 111.22712,87.805556 H 79.721619 Z"
         style="fill:url(#linearGradient924)"
         inkscape:connector-curvature="0" />
    </g>
  </g>
</svg>
