<svg height="128" viewBox="0 0 33.866666 33.866668" width="128" xmlns="http://www.w3.org/2000/svg" xmlns:xlink="http://www.w3.org/1999/xlink"><linearGradient id="a" gradientTransform="matrix(.21887413 0 0 .41157411 7.236097 253.72589)" gradientUnits="userSpaceOnUse" x1="112.00001" x2="112.00001" y1="124.23937" y2="-22.601965"><stop offset="0" stop-color="#fff"/><stop offset=".42597079" stop-color="#fff"/><stop offset=".5892781" stop-color="#f1f1f1"/><stop offset=".80219781" stop-color="#eaeaea"/><stop offset="1" stop-color="#dfdfdf"/></linearGradient><linearGradient id="b" gradientTransform="matrix(.02565158 0 0 .055299 6.857982 232.74523)" gradientUnits="userSpaceOnUse" x1="399.77466" x2="399.77466" y1="1164.6696" y2="549.06134"><stop offset="0" stop-color="#b4b4b6"/><stop offset=".5" stop-color="#9c9ca1"/><stop offset="1" stop-color="#cdcdd1"/></linearGradient><linearGradient id="c" gradientTransform="matrix(.2561478 0 0 -.15041771 2.18415 281.26999)" gradientUnits="userSpaceOnUse" x1="12.131731" x2="12.131733" xlink:href="#d" y1="120.57536" y2="-76.43158"/><linearGradient id="d"><stop offset="0" stop-color="#0968ef"/><stop offset="1" stop-color="#aecffc"/></linearGradient><linearGradient id="e" gradientTransform="matrix(.2561478 0 0 .15041771 2.18415 278.86331)" gradientUnits="userSpaceOnUse" x1="12.131731" x2="16.263462" xlink:href="#d" y1="120.57536" y2="-83.467491"/><g transform="translate(0 -263.13332)"><rect fill="url(#b)" height="33.998959" rx=".755952" ry=".732692" width="25.343864" x="8.522801" y="263.13333"/><rect fill="url(#a)" fill-rule="evenodd" height="29.633333" rx=".463021" width="21.011917" x="10.738082" y="265.25"/><path d="m4.4069598 263.13331-4.40696 5.29167 1.05833 1.05833 3.175-2.11666v12.7h2.11667v-12.7l3.175 2.11666 1.0583302-1.05833-4.4069702-5.29167z" fill="url(#c)"/><path d="m4.4069598 296.99999-4.40696-5.29167 1.05833-1.05833 3.175 2.11666v-12.7h2.11667v12.7l3.175-2.11666 1.0583302 1.05833-4.4069702 5.29167z" fill="url(#e)"/></g></svg>