<?xml version="1.0" encoding="UTF-8" standalone="no"?>
<svg
   xmlns:dc="http://purl.org/dc/elements/1.1/"
   xmlns:cc="http://creativecommons.org/ns#"
   xmlns:rdf="http://www.w3.org/1999/02/22-rdf-syntax-ns#"
   xmlns:svg="http://www.w3.org/2000/svg"
   xmlns="http://www.w3.org/2000/svg"
   xmlns:xlink="http://www.w3.org/1999/xlink"
   xmlns:sodipodi="http://sodipodi.sourceforge.net/DTD/sodipodi-0.dtd"
   xmlns:inkscape="http://www.inkscape.org/namespaces/inkscape"
   height="128"
   viewBox="0 0 128 128"
   width="128"
   version="1.1"
   id="svg31"
   sodipodi:docname="sc_arrowshapes.quad-arrow-callout.svg"
   inkscape:version="0.92.3 (unknown)"
   inkscape:export-filename="/home/rizmut/Dokumen/Rizmut/Github/libreoffice-style-karasa-jaga/build/images_karasa_jaga/cmd/sc_arrowshapes.quad-arrow-callout.png"
   inkscape:export-xdpi="12"
   inkscape:export-ydpi="12">
  <metadata
     id="metadata37">
    <rdf:RDF>
      <cc:Work
         rdf:about="">
        <dc:format>image/svg+xml</dc:format>
        <dc:type
           rdf:resource="http://purl.org/dc/dcmitype/StillImage" />
        <dc:title></dc:title>
      </cc:Work>
    </rdf:RDF>
  </metadata>
  <defs
     id="defs35">
    <linearGradient
       id="linearGradient3369">
      <stop
         id="stop3372"
         offset="0"
         style="stop-color:#ffffff;stop-opacity:1;" />
      <stop
         style="stop-color:#ffffff;stop-opacity:1;"
         offset="0.39715832"
         id="stop3374" />
      <stop
         style="stop-color:#f1f1f1;stop-opacity:1;"
         offset="0.79970485"
         id="stop3376" />
      <stop
         id="stop3378"
         offset="0.90234375"
         style="stop-color:#eaeaea;stop-opacity:1;" />
      <stop
         id="stop3384"
         offset="1"
         style="stop-color:#dfdfdf;stop-opacity:1;" />
    </linearGradient>
    <linearGradient
       id="linearGradient7422">
      <stop
         style="stop-color:#7c9fcf;stop-opacity:1"
         offset="0"
         id="stop7424" />
      <stop
         id="stop5348"
         offset="0.5"
         style="stop-color:#7c9ece;stop-opacity:1" />
      <stop
         id="stop7426"
         offset="1"
         style="stop-color:#7b9dcf;stop-opacity:1" />
    </linearGradient>
    <linearGradient
       inkscape:collect="always"
       xlink:href="#linearGradient3369"
       id="linearGradient1020"
       gradientUnits="userSpaceOnUse"
       x1="64"
       y1="128"
       x2="63.882812"
       y2="0.001953125" />
    <linearGradient
       inkscape:collect="always"
       xlink:href="#linearGradient7422"
       id="linearGradient3003"
       x1="24.011719"
       y1="67.997833"
       x2="103.98828"
       y2="67.997833"
       gradientUnits="userSpaceOnUse" />
    <linearGradient
       inkscape:collect="always"
       xlink:href="#linearGradient7422"
       id="linearGradient3035"
       gradientUnits="userSpaceOnUse"
       x1="24.011719"
       y1="67.997833"
       x2="103.98828"
       y2="67.997833"
       gradientTransform="rotate(90,64,63.997832)" />
    <linearGradient
       inkscape:collect="always"
       xlink:href="#linearGradient3369"
       id="linearGradient3037"
       gradientUnits="userSpaceOnUse"
       x1="128.00217"
       y1="63.997833"
       x2="0.002168"
       y2="63.997833"
       gradientTransform="rotate(90,64,63.997832)" />
  </defs>
  <sodipodi:namedview
     pagecolor="#ffffff"
     bordercolor="#666666"
     borderopacity="1"
     objecttolerance="10"
     gridtolerance="10"
     guidetolerance="10"
     inkscape:pageopacity="0"
     inkscape:pageshadow="2"
     inkscape:window-width="1364"
     inkscape:window-height="704"
     id="namedview33"
     showgrid="true"
     inkscape:zoom="2"
     inkscape:cx="-3.4568702"
     inkscape:cy="43.423494"
     inkscape:window-x="0"
     inkscape:window-y="0"
     inkscape:window-maximized="0"
     inkscape:current-layer="svg31"
     inkscape:snap-global="true">
    <inkscape:grid
       type="xygrid"
       id="grid844"
       spacingx="8"
       spacingy="8"
       empspacing="2" />
  </sodipodi:namedview>
  <linearGradient
     id="a">
    <stop
       offset="0"
       stop-color="#f9f9fa"
       id="stop2" />
    <stop
       offset="1"
       stop-color="#f9f9fa"
       stop-opacity="0"
       id="stop4" />
  </linearGradient>
  <linearGradient
     id="b"
     gradientUnits="userSpaceOnUse"
     x1="42.276669"
     x2="-13.469376"
     xlink:href="#a"
     y1="50.867565"
     y2="104.97279" />
  <linearGradient
     id="c"
     gradientUnits="userSpaceOnUse"
     x1="-1.817377"
     x2="2.172436"
     xlink:href="#a"
     y1="55.003803"
     y2="116.784" />
  <path
     sodipodi:nodetypes="cccccccccccccccccccccccccccccccccc"
     inkscape:connector-curvature="0"
     id="path3029"
     d="m 127.98416,64.17166 c 0.0198,-0.916496 -0.11829,-1.829562 -0.4082,-2.699219 l -8,-24 c -2.87069,-8.587795 -15.55796,-6.529496 -15.56641,2.525391 v 8.011719 h -8.01953 v -8.011719 c -5.45e-4,-4.41158 -3.576702,-7.987737 -7.988282,-7.988281 h -0.0039 l -47.996094,0 h -0.0039 c -4.41158,5.46e-4 -7.987735,3.576701 -7.98828,7.988281 v 8.011719 h -8.01953 v -8.011719 c -0.008,-9.054902 -12.69573,-11.113204 -15.56641,-2.525391 l -8,24 c -0.54618,1.639297 -0.54618,3.411485 0,5.050782 l 8,24 c 2.87068,8.587813 15.55797,6.529511 15.56641,-2.525391 v -8.011719 h 8.01953 l -0.0039,8.011719 c 5.46e-4,4.41158 3.576701,7.98773 7.98828,7.98828 h 0.0039 47.996094 0.0039 c 4.41158,-5.4e-4 7.987736,-3.5767 7.988282,-7.98828 l 0.0039,-8.011719 h 8.019536 v 8.011719 c 0.008,9.054887 12.69572,11.113186 15.56641,2.525391 l 8,-24 c 0.25304,-0.758993 0.39065,-1.551691 0.4082,-2.351563 z"
     style="opacity:1;fill:url(#linearGradient3035);fill-opacity:1;stroke:none;stroke-width:3.77952766;stroke-linecap:round;stroke-linejoin:round;stroke-miterlimit:4;stroke-dasharray:none;stroke-dashoffset:0;stroke-opacity:1" />
  <g
     id="g3027">
    <path
       sodipodi:nodetypes="cccccccccccccccccccccccccccccccccc"
       inkscape:connector-curvature="0"
       id="path2993"
       d="M 64.173828,0.01367188 C 63.257332,-0.0061258 62.344266,0.13195729 61.474609,0.421875 l -24,8 C 28.886814,11.292561 30.945113,23.979827 40,23.988281 h 8.011719 v 8.019531 H 40 c -4.41158,5.45e-4 -7.987737,3.576702 -7.988281,7.988282 V 40 87.996094 88 C 32.012265,92.41158 35.58842,95.987735 40,95.98828 h 8.011719 v 8.01953 H 40 c -9.054902,0.008 -11.113204,12.69573 -2.525391,15.56641 l 24,8 c 1.639297,0.54618 3.411485,0.54618 5.050782,0 l 24,-8 C 99.113204,116.70354 97.054902,104.01625 88,104.00781 H 79.988281 V 95.98828 L 88,95.992186 c 4.41158,-5.46e-4 7.98773,-3.576701 7.98828,-7.98828 V 88 40.003906 40 C 95.98774,35.58842 92.41158,32.012264 88,32.011718 l -8.011719,-0.0039 V 23.988281 H 88 c 9.054887,-0.0085 11.113186,-12.69572 2.525391,-15.566406 l -24,-8 C 65.766398,0.16882928 64.9737,0.03122645 64.173828,0.01367188 Z"
       style="opacity:1;fill:url(#linearGradient3003);fill-opacity:1;stroke:none;stroke-width:3.77952766;stroke-linecap:round;stroke-linejoin:round;stroke-miterlimit:4;stroke-dasharray:none;stroke-dashoffset:0;stroke-opacity:1" />
    <path
       sodipodi:nodetypes="ccccccccccccccccccccccc"
       inkscape:connector-curvature="0"
       id="path1014"
       d="M 64,8 40,16 H 56 V 39.996094 H 40 V 40 87.996094 88 h 16 v 23.99609 H 40 l 24,8 24,-8 H 72 V 88 l 16,0.0039 V 88 40.003906 40 l -16,-0.0039 V 16 h 16 z"
       style="opacity:1;fill:url(#linearGradient1020);fill-opacity:1;stroke:none;stroke-width:3.77952766;stroke-linecap:round;stroke-linejoin:round;stroke-miterlimit:4;stroke-dasharray:none;stroke-dashoffset:0;stroke-opacity:1" />
  </g>
  <path
     sodipodi:nodetypes="ccccccccccccccccccccccc"
     inkscape:connector-curvature="0"
     id="path3031"
     d="m 119.99783,63.997832 -8,-24 v 16 H 88.001738 v -16 h -0.0039 l -47.996094,0 h -0.0039 v 16 h -23.99609 v -16 l -8,24 8,24 v -16 h 23.99609 l -0.0039,16 h 0.0039 47.996094 0.0039 l 0.0039,-16 h 23.996098 v 16 z"
     style="opacity:1;fill:url(#linearGradient3037);fill-opacity:1;stroke:none;stroke-width:3.77952766;stroke-linecap:round;stroke-linejoin:round;stroke-miterlimit:4;stroke-dasharray:none;stroke-dashoffset:0;stroke-opacity:1" />
</svg>
