<svg height="128" width="128" xmlns="http://www.w3.org/2000/svg" xmlns:xlink="http://www.w3.org/1999/xlink"><filter id="a"><feGaussianBlur stdDeviation="2.4"/></filter><linearGradient id="b" gradientTransform="matrix(.1133598 0 0 .1691546 80.271445 159.92147)" gradientUnits="userSpaceOnUse" x1="399.77466" x2="399.77466" y1="681.00012" y2="549.33234"><stop offset="0" stop-color="#cbcbcd"/><stop offset=".5" stop-color="#e0e0e2"/><stop offset="1" stop-color="#fff"/></linearGradient><radialGradient id="c" cx="84.903702" cy="-130.14005" gradientTransform="matrix(.30794145 .30794145 -.30794145 .30794145 46.491338 107.57052)" gradientUnits="userSpaceOnUse" r="57.039597" xlink:href="#d"/><linearGradient id="d"><stop offset="0" stop-color="#011701"/><stop offset=".80671918" stop-color="#145703"/><stop offset="1" stop-color="#2fa207" stop-opacity=".384314"/></linearGradient><radialGradient id="e" cx="43.084476" cy="-121.92532" gradientTransform="matrix(.30347528 .31234377 -.3628951 .35259129 39.983519 112.82479)" gradientUnits="userSpaceOnUse" r="57.039597" xlink:href="#d"/><radialGradient id="f" cx="51.991096" cy="-78.028419" gradientTransform="matrix(.28232256 .33158686 -.56115095 .47778001 28.065755 119.5934)" gradientUnits="userSpaceOnUse" r="57.039597" xlink:href="#d"/><linearGradient id="g" gradientTransform="scale(1.0975951 .9110828)" gradientUnits="userSpaceOnUse" x1="26.091133" x2="31.500689" xlink:href="#h" y1="14.856744" y2="14.856744"/><linearGradient id="h"><stop offset="0" stop-color="#fff"/><stop offset="1" stop-color="#fff" stop-opacity="0"/></linearGradient><filter id="i" height="1.277481" width="1.279832" x="-.139916" y="-.138741"><feGaussianBlur stdDeviation=".28784801"/></filter><linearGradient id="j" gradientUnits="userSpaceOnUse" x1="304.88663" x2="345.62039" y1="385.86127" y2="384.62384"><stop offset="0" stop-color="#765c44"/><stop offset="1" stop-color="#765c44" stop-opacity="0"/></linearGradient><linearGradient id="k" gradientUnits="userSpaceOnUse" spreadMethod="reflect" x1="88.60625" x2="91.575107" y1="13.510336" y2="13.510336"><stop offset="0" stop-color="#c8ff87"/><stop offset="1" stop-color="#abff87" stop-opacity="0"/></linearGradient><linearGradient id="l" gradientUnits="userSpaceOnUse" spreadMethod="reflect" x1="31.60625" x2="34.575107" y1="13.510336" y2="13.510336"><stop offset="0" stop-color="#fff"/><stop offset="1" stop-color="#790000" stop-opacity="0"/></linearGradient><radialGradient id="m" cx="50.424522" cy="-81.945961" gradientTransform="matrix(.30794145 .30794145 -.30794145 .30794145 46.491337 107.57052)" gradientUnits="userSpaceOnUse" r="50.15279"><stop offset="0" stop-color="#7ae91e" stop-opacity=".996078"/><stop offset="1" stop-color="#62c916"/></radialGradient><filter id="n" color-interpolation-filters="sRGB" height="1.024" width="1.024" x="-.012" y="-.012"><feGaussianBlur stdDeviation=".28192153"/></filter><linearGradient id="o" gradientUnits="userSpaceOnUse" x1="84.745605" x2="97.63675" xlink:href="#h" y1="48.278452" y2="110.577319"/><g transform="translate(-79.62865 -236.8761)"><path d="m85.480617 232.8761h116.296063c1.02599 0 1.85197.97507 1.85197 2.18627v107.05603c0 1.21119-.82598 2.18627-1.85197 2.18627h-116.296063c-1.025991 0-1.85197-.97508-1.85197-2.18627v-107.05603c0-1.2112.825979-2.18627 1.85197-2.18627z" filter="url(#a)" opacity=".5" transform="matrix(1 0 0 .9333333 0 31.525085)"/><path d="m127.09452-1.378991v-2.744803z" fill="#fff" fill-opacity=".756881"/><path d="m-3.5199651 6.004538v-2.744801z" fill="#fff" fill-opacity=".756881"/><path d="m-157.72449-62.387047v-2.744801z" fill="#fff" fill-opacity=".756881"/><path d="m-275.09267-147.47029v-2.74481z" fill="#fff" fill-opacity=".756881"/><path d="m-32.904785-82.88925v-2.7448z" fill="#fff" fill-opacity=".756881"/><path d="m-123.87519-10.315129v-1.499471z" fill="#fff" fill-opacity=".756881"/><path d="m-370.93212-164.84903v-2.74481z" fill="#fff" fill-opacity=".756881"/><path d="m134.39748 159.99333v-2.7448z" fill="#fff" fill-opacity=".756881"/><path d="m-19.807041 91.601739v-2.744814z" fill="#fff" fill-opacity=".756881"/><path d="m-137.17523 6.518495v-2.744815z" fill="#fff" fill-opacity=".756881"/><path d="m105.01266 71.099525v-2.7448z" fill="#fff" fill-opacity=".756881"/><path d="m14.042254 143.67365v-1.49947z" fill="#fff" fill-opacity=".756881"/><path d="m-233.01467-10.860247v-2.744803z" fill="#fff" fill-opacity=".756881"/><path d="m85.781427 108.92191v-2.7448z" fill="#fff" fill-opacity=".756881"/><path d="m-68.423094 40.530324v-2.7448z" fill="#fff" fill-opacity=".756881"/><path d="m-185.79129-44.552919v-2.744805z" fill="#fff" fill-opacity=".756881"/><path d="m56.396609 20.028124v-2.744801z" fill="#fff" fill-opacity=".756881"/><path d="m-34.573799 92.60224v-1.499472z" fill="#fff" fill-opacity=".756881"/><path d="m-281.63073-61.931657v-2.744803z" fill="#fff" fill-opacity=".756881"/><path d="m-294.55324 230.46206v-2.74482z" fill="#fff" fill-opacity=".756881"/><path d="m-448.75778 162.07046v-2.7448z" fill="#fff" fill-opacity=".756881"/><path d="m-566.12597 76.987211v-2.7448z" fill="#fff" fill-opacity=".756881"/><path d="m-323.93807 141.56825v-2.7448z" fill="#fff" fill-opacity=".756881"/><path d="m-414.90848 214.14239v-1.49949z" fill="#fff" fill-opacity=".756881"/><path d="m-661.96541 59.608482v-2.744815z" fill="#fff" fill-opacity=".756881"/><path d="m-46.668198 403.70423v-2.7448z" fill="#fff" fill-opacity=".756881"/><path d="m-200.87271 335.31263v-2.7448z" fill="#fff" fill-opacity=".756881"/><path d="m-318.2409 250.22939v-2.7448z" fill="#fff" fill-opacity=".756881"/><path d="m-76.053015 314.81043v-2.7448z" fill="#fff" fill-opacity=".756881"/><path d="m-167.02342 387.38456v-1.49949z" fill="#fff" fill-opacity=".756881"/><path d="m-414.08035 232.85066v-2.74482z" fill="#fff" fill-opacity=".756881"/><path d="m-145.52043 174.31147v-2.74481z" fill="#fff" fill-opacity=".756881"/><path d="m-299.72496 105.91987v-2.7448z" fill="#fff" fill-opacity=".756881"/><path d="m-417.09315 20.836638v-2.744814z" fill="#fff" fill-opacity=".756881"/><path d="m-174.90526 85.417668v-2.7448z" fill="#fff" fill-opacity=".756881"/><path d="m-265.87566 157.9918v-1.49949z" fill="#fff" fill-opacity=".756881"/><path d="m-512.93259 3.457895v-2.7448z" fill="#fff" fill-opacity=".756881"/><path d="m87.628647 252.8761h112.000003v96h-112.000003z" fill="url(#b)"/><g fill="#fff"><path d="m-143.54882 173.40321v-2.74481z" fill-opacity=".756881"/><path d="m-297.75334 105.01161v-2.7448z" fill-opacity=".756881"/><path d="m-415.12153 19.928366v-2.7448z" fill-opacity=".756881"/><path d="m-172.93364 84.509411v-2.7448z" fill-opacity=".756881"/><path d="m-263.90404 157.08354v-1.49948z" fill-opacity=".756881"/><path d="m-510.96098 2.549632v-2.744803z" fill-opacity=".756881"/><path d="m150.52834 121.12275v-2.7448z" fill-opacity=".756881"/><path d="m19.913855 128.5063v-2.74482z" fill-opacity=".756881"/><path d="m-134.29067 60.114696v-2.7448z" fill-opacity=".756881"/><path d="m-251.65886-24.968537v-2.744813z" fill-opacity=".756881"/><path d="m-9.470964 39.612495v-2.7448z" fill-opacity=".756881"/><path d="m-100.44137 112.18663v-1.49948z" fill-opacity=".756881"/><path d="m-347.4983-42.347284v-2.744803z" fill-opacity=".756881"/><path d="m157.83131 274.49507v-2.7448z" fill-opacity=".756881"/><path d="m3.6267808 214.10347v-2.74478z" fill-opacity=".756881"/><path d="m-113.74141 129.02024v-2.7448z" fill-opacity=".756881"/><path d="m128.44648 193.60127v-2.74479z" fill-opacity=".756881"/><path d="m37.476076 266.1754v-1.49947z" fill-opacity=".756881"/><path d="m-209.58086 111.6415v-2.7448z" fill-opacity=".756881"/><path d="m-206.82354-122.97944v-3.72627z" fill-opacity=".756881"/><path d="m-384.14266-112.95572v-3.72628z" fill-opacity=".756881"/><path d="m-593.48705-205.80252v-3.72628z" fill-opacity=".756881"/><path d="m-752.82333-321.3095v-3.7263z" fill-opacity=".756881"/><path d="m-424.03479-233.63583v-3.72628z" fill-opacity=".756881"/><path d="m-547.53406-135.11092v-2.03565z" fill-opacity=".756881"/><path d="m-882.93269-344.90247v-3.72629z" fill-opacity=".756881"/><path d="m-196.9092 96.095797v-3.726272z" fill-opacity=".756881"/><path d="m-406.2536 3.24899v-3.726278z" fill-opacity=".756881"/><path d="m-565.58987-112.258v-3.72628z" fill-opacity=".756881"/><path d="m-236.80134-24.584316v-3.726279z" fill-opacity=".756881"/><path d="m-360.3006 73.940596v-2.035643z" fill-opacity=".756881"/><path d="m-695.69923-135.85096v-3.72628z" fill-opacity=".756881"/><path d="m-262.9092 26.762467v-3.726286z" fill-opacity=".756881"/><path d="m-472.25361-66.084343v-3.726278z" fill-opacity=".756881"/><path d="m-631.58987-181.59134v-3.72628z" fill-opacity=".756881"/><path d="m-302.80133-93.91765v-3.72628z" fill-opacity=".756881"/><path d="m-426.3006 4.607256v-2.035647z" fill-opacity=".756881"/><path d="m-761.69923-205.1843v-3.72628z" fill-opacity=".756881"/><path d="m-779.24254 191.76247v-3.72629z" fill-opacity=".756881"/><path d="m-988.58693 98.91567v-3.726288z" fill-opacity=".756881"/><path d="m-1147.9232-16.591337v-3.726279z" fill-opacity=".756881"/><path d="m-819.13467 71.082368v-3.726286z" fill-opacity=".756881"/><path d="m-942.63393 169.60727v-2.03566z" fill-opacity=".756881"/><path d="m-1278.0326-40.184296v-3.72628z" fill-opacity=".756881"/><path d="m-442.71968 426.95193v-3.72627z" fill-opacity=".756881"/><path d="m-652.06407 334.10512v-3.72626z" fill-opacity=".756881"/><path d="m-811.40034 218.59813v-3.72627z" fill-opacity=".756881"/><path d="m-482.61181 306.27183v-3.72629z" fill-opacity=".756881"/><path d="m-606.11107 404.79673v-2.03565z" fill-opacity=".756881"/><path d="m-941.5097 195.00517v-3.72627z" fill-opacity=".756881"/><path d="m-576.91912 115.53377v-3.72629z" fill-opacity=".756881"/><path d="m-786.26353 22.686967v-3.726286z" fill-opacity=".756881"/><path d="m-945.59979-92.82003v-3.72628z" fill-opacity=".756881"/><path d="m-616.81125-5.146348v-3.726279z" fill-opacity=".756881"/><path d="m-740.31053 93.378568v-2.035657z" fill-opacity=".756881"/><path d="m-1075.7091-116.41299v-3.72628z" fill-opacity=".756881"/><path d="m-574.24251 114.30074v-3.72629z" fill-opacity=".756881"/><path d="m-783.58691 21.453924v-3.726279z" fill-opacity=".756881"/><path d="m-942.92317-94.05307v-3.72628z" fill-opacity=".756881"/><path d="m-614.13465-6.379383v-3.726278z" fill-opacity=".756881"/><path d="m-737.63391 92.14554v-2.035658z" fill-opacity=".756881"/><path d="m-1073.0325-117.64603v-3.72628z" fill-opacity=".756881"/><path d="m-175.01034 43.326038v-12.164228 8.437943z" fill-opacity=".756881"/><path d="m-352.32946 53.349753v-3.726286z" fill-opacity=".756881"/><path d="m-561.67387-39.497056v-3.726279z" fill-opacity=".756881"/><path d="m-721.01013-155.00404v-3.7263z" fill-opacity=".756881"/><path d="m-392.22159-67.330363v-3.72628z" fill-opacity=".756881"/><path d="m-515.72085 31.194552v-2.035657z" fill-opacity=".756881"/><path d="m-851.11949-178.59702v-3.72628z" fill-opacity=".756881"/><path d="m-165.09601 262.40127v-3.72628z" fill-opacity=".756881"/><path d="m-374.4404 169.55446v-3.72628z" fill-opacity=".756881"/><path d="m-533.77668 54.047467v-3.726271z" fill-opacity=".756881"/><path d="m-204.98814 141.72115v-3.72627z" fill-opacity=".756881"/><path d="m-328.4874 240.24607v-2.03566z" fill-opacity=".756881"/><path d="m-663.88602 30.45451v-3.726286z" fill-opacity=".756881"/><path d="m87.62865 284.8761h112v64h-112z"/></g><path d="m87.628647 324.8761h112v8h-112z" fill="#cacacc"/><path d="m87.628647 300.8761h112v8h-112z" fill="#cacacc"/><path d="m119.62865 284.8761h8v64h-8z" fill="#cacacc"/><path d="m159.62865 284.8761h8v64h-8z" fill="#cacacc"/><g transform="translate(79.62865 236.8761)"><path d="m90.896484 60.324219c-4.022451-.000117-7.375114 3.352553-7.375 7.375v15.509765h-15.507812c-4.019003-.000116-7.375117 3.350604-7.375 7.373047v10.619139c-.000117 4.02244 3.355991 7.37317 7.375 7.37305h15.507812v15.50976c-.000121 4.02245 3.355991 7.37317 7.375 7.37305h10.617186c4.01901.00012 7.37512-3.35059 7.375-7.37305v-15.50976h15.50781c4.01903.00012 7.37513-3.3506 7.375-7.37305v-10.619139c.00013-4.02246-3.35599-7.373163-7.375-7.373047h-15.50781v-15.509765c.00012-4.022461-3.35255-7.375117-7.375-7.375z" fill="#033d03" transform="translate(-3.64254 -3.336931)"/><path d="m123.75362 87.246019c.00005-1.656397-1.34274-2.99918-2.99913-2.999132h-19.88392v-19.884771c.00005-1.656396-1.34274-2.99918-2.99913-2.999132l-10.617743.000005c-1.656393-.000048-2.999178 1.342735-2.999131 2.999127v19.884771h-19.88392c-1.656396-.000048-2.99918 1.342735-2.999132 2.999132v10.61774c-.000048 1.6564 1.342736 2.999181 2.999132 2.999131h19.88392v19.88392c-.00005 1.6564 1.342736 2.99918 2.999132 2.99913h10.617742c1.65639.00005 2.99918-1.34273 2.99913-2.99913v-19.88392h19.88392c1.6564.00005 2.99918-1.342741 2.99913-2.999131z" fill="#1f5623" fill-opacity=".905882"/><path d="m123.75362 87.246019c.00005-1.656397-1.34274-2.99918-2.99913-2.999132h-19.88392v-19.884771c.00005-1.656396-1.34274-2.99918-2.99913-2.999132l-10.617743.000005c-1.656393-.000048-2.999178 1.342735-2.999131 2.999127v19.884771h-19.88392c-1.656396-.000048-2.99918 1.342735-2.999132 2.999132v10.61774c-.000048 1.6564 1.342736 2.999181 2.999132 2.999131h19.88392v19.88392c-.00005 1.6564 1.342736 2.99918 2.999132 2.99913h10.617742c1.65639.00005 2.99918-1.34273 2.99913-2.99913v-19.88392h19.88392c1.6564.00005 2.99918-1.342741 2.99913-2.999131z" fill="url(#c)"/><path d="m123.75362 87.246019c.00005-1.656397-1.34274-2.99918-2.99913-2.999132h-19.88392v-19.884771c.00005-1.656396-1.34274-2.99918-2.99913-2.999132l-10.617743.000005c-1.656393-.000048-2.999178 1.342735-2.999131 2.999127v19.884771h-19.88392c-1.656396-.000048-2.99918 1.342735-2.999132 2.999132v10.61774c-.000048 1.6564 1.342736 2.999181 2.999132 2.999131h19.88392v19.88392c-.00005 1.6564 1.342736 2.99918 2.999132 2.99913h10.617742c1.65639.00005 2.99918-1.34273 2.99913-2.99913v-19.88392h19.88392c1.6564.00005 2.99918-1.342741 2.99913-2.999131z" fill="#066704"/><path d="m123.75362 87.246019c.00005-1.656397-1.34274-2.99918-2.99913-2.999132h-19.88392v-19.884771c.00005-1.656396-1.34274-2.99918-2.99913-2.999132l-10.617743.000005c-1.656393-.000048-2.999178 1.342735-2.999131 2.999127v19.884771h-19.88392c-1.656396-.000048-2.99918 1.342735-2.999132 2.999132v10.61774c-.000048 1.6564 1.342736 2.999181 2.999132 2.999131h19.88392v19.88392c-.00005 1.6564 1.342736 2.99918 2.999132 2.99913h10.617742c1.65639.00005 2.99918-1.34273 2.99913-2.99913v-19.88392h19.88392c1.6564.00005 2.99918-1.342741 2.99913-2.999131z" fill="url(#e)"/><path d="m123.75362 87.246019c.00005-1.656397-1.34274-2.99918-2.99913-2.999132h-19.88392v-19.884771c.00005-1.656396-1.34274-2.99918-2.99913-2.999132l-10.617743.000005c-1.656393-.000048-2.999178 1.342735-2.999131 2.999127v19.884771h-19.88392c-1.656396-.000048-2.99918 1.342735-2.999132 2.999132v10.61774c-.000048 1.6564 1.342736 2.999181 2.999132 2.999131h19.88392v19.88392c-.00005 1.6564 1.342736 2.99918 2.999132 2.99913h10.617742c1.65639.00005 2.99918-1.34273 2.99913-2.99913v-19.88392h19.88392c1.6564.00005 2.99918-1.342741 2.99913-2.999131z" fill="url(#f)"/><g fill-rule="evenodd"><path d="m31.7 16 2.875-3.375c-1.051205-1.695758-3.935136-2.288018-5.9375-.3125l2.8125 3.375z" fill="url(#g)" filter="url(#i)" opacity=".498127" transform="matrix(-.649543579 .649543579 .65578089674 .65578089674 76.70166336326 57.76329754565)"/><path d="m31.7 16 2.875-3.375c-1.051205-1.695758-3.935136-2.288018-5.9375-.3125l2.8125 3.375z" fill="url(#g)" filter="url(#i)" opacity=".790262" transform="matrix(-.64763609601 -.64763609601 .64147625216 -.64147625216 99.16628092964 149.43433444806)"/><path d="m31.7 16 2.875-3.375c-1.051205-1.695758-3.935136-2.288018-5.9375-.3125l2.8125 3.375z" fill="url(#j)" filter="url(#i)" opacity=".498127" transform="matrix(-.58819377522 .58819377522 -.59384197557 -.59384197557 124.77757101176 109.70473572109)"/><path d="m88.7 16 2.875-3.375c-1.051205-1.695758-3.935136-2.288018-5.9375-.3125l2.8125 3.375z" fill="url(#k)" filter="url(#i)" opacity=".790262" transform="matrix(-.59384197557 -.59384197557 .58819377522 -.58819377522 109.16010541475 158.4215278086)"/><path d="m31.7 16 2.875-3.375c-1.051205-1.695758-3.935136-2.288018-5.9375-.3125l2.8125 3.375z" fill="url(#l)" filter="url(#i)" opacity=".790262" transform="matrix(-.54004785512 -.54004785512 -.53491130791 .53491130791 144.9961975185 96.82551647365)"/><path d="m88.7 16 2.875-3.375c-1.051205-1.695758-3.935136-2.288018-5.9375-.3125l2.8125 3.375z" fill="url(#k)" filter="url(#i)" opacity=".790262" transform="matrix(-.5544433657 -.5544433657 -.54916990332 .54916990332 154.52391547734 106.08385210279)"/></g><path d="m120.75449 87.246019h-22.88305v-22.883898l-10.617741-.000005-.000001 22.883903h-22.883052v10.61774h22.883052v22.883051h10.617742v-22.883051h22.88305z" fill="url(#m)"/><path d="m97.87185 64.362208-10.617965-.000005v22.884181l-22.883579-.000435v10.61797h22.882977l.000001 22.882971h10.617966v-22.882971l22.88298-.00001-.00001-10.617956h-22.88297zm-.75422.754216-.00061 22.129359c-.00004.41656.33766.754256.75422.754217h22.12876v9.109529h-22.12876c-.41656-.00004-.75426.33766-.75422.75422v22.128761h-9.10953v-22.128761c.00004-.41656-.337657-.75426-.754216-.75422h-22.12876v-9.109534l22.129362.000436c.416558.000039.754257-.337657.754216-.754216v-22.129961z" fill="#eef4ca" fill-opacity=".779412" filter="url(#n)"/><path d="m87.253944 64.362288v22.882812h-22.882812v6.925781a65.433395 38.789856 0 0 0 17.794922 1.498047 65.433395 38.789856 0 0 0 38.587886-7.521484v-.902344h-22.88281v-22.882812z" fill="url(#o)"/></g></g></svg>