<svg height="128" width="128" xmlns="http://www.w3.org/2000/svg" xmlns:xlink="http://www.w3.org/1999/xlink"><filter id="a"><feGaussianBlur stdDeviation="2.0786429"/></filter><radialGradient id="b" cx="108" cy="128.54001" gradientTransform="matrix(.96492761 0 0 .96460465 -1.636086 11.875114)" gradientUnits="userSpaceOnUse" r="139.55859"><stop offset="0" stop-color="#b7b8b9"/><stop offset=".18851049" stop-color="#ececec"/><stop offset=".25718147" stop-color="#fafafa"/><stop offset=".30111277" stop-color="#fff"/><stop offset=".5313" stop-color="#fafafa"/><stop offset=".8449" stop-color="#ebecec"/><stop offset="1" stop-color="#e1e2e3"/></radialGradient><radialGradient id="c" cx="104" cy="96.025681" gradientTransform="matrix(.8948353 0 0 2.0739134 11.748619 -89.466311)" gradientUnits="userSpaceOnUse" r="22.436539"><stop offset="0" stop-color="#9abcee"/><stop offset="1" stop-color="#092042"/></radialGradient><linearGradient id="d" gradientUnits="userSpaceOnUse" x1="104.8114902" x2="104.8114902" y1="38.0958166" y2="98.944617"><stop offset="0" stop-color="#bfe7ff"/><stop offset="1" stop-color="#bff9ff" stop-opacity="0"/></linearGradient><linearGradient id="e" gradientUnits="userSpaceOnUse" x1="83.896461" x2="124.05045" y1="82.185677" y2="82.185677"><stop offset="0" stop-color="#001331"/><stop offset="1" stop-color="#293e63"/></linearGradient><path d="m6 6-.013668 121.05794h119.999998l.01367-121.05794z" filter="url(#a)" opacity=".758364" transform="matrix(.96492763 0 0 .96492763 .293768 .293073)"/><path d="m8.0131886 8.0124942-.0131886 111.9875058h112l-.0684-.81415.0132-111.1733558z" fill="#fff" stroke-width=".964928"/><path d="m16.697537 15.731915c-.531675 0-.964927.433432-.964927.964928v93.597977h95.2866c1.12141.0343 1.20616-1.54398 1.20616-1.77908v-91.818897c0-.531496-.43229-.964928-.96492-.964928z" fill="url(#b)" stroke-width=".964928"/><g fill="#404040" fill-opacity=".839216" transform="translate(0 -23.778319)"><path d="m24 88v-8h60v8z"/><path d="m24 56v-8.221681h60.494988v8.221681z"/><path d="m24 72v-8h40v8z"/></g><path d="m103.77334 32.697089a7.6782282 7.6782282 0 0 0 -5.711568 2.761405l-20.065632 24.102878a7.6782282 7.6782282 0 0 0 .473634 10.344785l3.991804 3.988309a7.6782282 7.6782282 0 0 0 9.607246 1.00669l.220211-.143314.033208 49.242158h23.386307a7.6782282 7.6782282 0 0 0 0-.006l-.0332-49.11457a7.6782282 7.6782282 0 0 0 9.47966-.873861l4.19104-3.991803a7.6782282 7.6782282 0 0 0 .59945-10.477386l-20.08833-24.083128a7.6782282 7.6782282 0 0 0 -6.08383-2.756163z" fill="#fff" fill-opacity=".650735" fill-rule="evenodd"/><path d="m103.96209 40.371351-20.06563 24.102877 16.05985-3.846743.04369 63.372515h8.03081l-.0437-63.37601 16.06334 3.831013z" fill="none" stroke="url(#e)" stroke-linecap="round" stroke-linejoin="round" stroke-width="8"/><g fill-rule="evenodd"><path d="m103.96209 40.371351-20.06563 24.102877 16.05985-3.846743.04369 63.372515h8.03081l-.0437-63.37601 16.06334 3.831013z" fill="url(#c)"/><path d="m103.96209 40.371352-20.06563 24.102878 16.05985-3.846743.0156 23.961309c.41976.01603.83983.02885 1.26012.03846 2.26601-.0118 4.5281-.1169 6.77068-.314591l-.0157-23.688667 16.06335 3.831014z" fill="url(#d)"/></g></svg>