<?xml version="1.0" encoding="UTF-8" standalone="no"?>
<svg
   xmlns:dc="http://purl.org/dc/elements/1.1/"
   xmlns:cc="http://creativecommons.org/ns#"
   xmlns:rdf="http://www.w3.org/1999/02/22-rdf-syntax-ns#"
   xmlns:svg="http://www.w3.org/2000/svg"
   xmlns="http://www.w3.org/2000/svg"
   xmlns:sodipodi="http://sodipodi.sourceforge.net/DTD/sodipodi-0.dtd"
   xmlns:inkscape="http://www.inkscape.org/namespaces/inkscape"
   height="128"
   viewBox="0 0 33.866666 33.866668"
   width="128"
   version="1.1"
   id="svg19"
   sodipodi:docname="sc_assignmacro.svg"
   inkscape:export-filename="/home/rizmut/Dokumen/Rizmut/Github/libreoffice-style-karasa-jaga/build/images_karasa_jaga/cmd/sc_assignmacro.png"
   inkscape:export-xdpi="12"
   inkscape:export-ydpi="12"
   inkscape:version="0.92.3 (unknown)">
  <metadata
     id="metadata25">
    <rdf:RDF>
      <cc:Work
         rdf:about="">
        <dc:format>image/svg+xml</dc:format>
        <dc:type
           rdf:resource="http://purl.org/dc/dcmitype/StillImage" />
        <dc:title></dc:title>
      </cc:Work>
    </rdf:RDF>
  </metadata>
  <defs
     id="defs23">
    <filter
       inkscape:collect="always"
       style="color-interpolation-filters:sRGB"
       id="filter1146"
       x="-0.0084001422"
       width="1.0168003"
       y="-0.0083998572"
       height="1.0167997">
      <feGaussianBlur
         inkscape:collect="always"
         stdDeviation="0.050000868"
         id="feGaussianBlur1148" />
    </filter>
    <clipPath
       clipPathUnits="userSpaceOnUse"
       id="clipPath1512">
      <path
         id="path1514"
         d="m 9.5933918,111.19854 -0.4711621,1.3139 v 0.0218 l 0.2786801,1.27958 a 0.22777108,0.22777108 0 0 1 -0.136411,0.25943 l -1.5306499,0.62348 a 0.22777108,0.22777108 0 0 1 -0.2753328,-0.0845 l -0.7372894,-1.10552 a 0.22777108,0.22777108 0 0 1 -8.389e-4,-0.002 l -0.021759,-0.0318 -1.2151468,-0.58246 -0.5933465,0.59334 0.5833039,1.21515 0.033475,0.0226 1.1046788,0.73645 a 0.22777108,0.22777108 0 0 1 0.084525,0.27533 l -0.6234741,1.53065 A 0.22777108,0.22777108 0 0 1 5.813212,117.40038 L 4.533629,117.1217 H 4.512707 l -1.3138984,0.47117 v 0.81344 l 1.3138984,0.47116 H 4.533629 L 5.8132156,118.599 a 0.22777108,0.22777108 0 0 1 0.2594321,0.13641 l 0.6234741,1.53065 a 0.22777108,0.22777108 0 0 1 -0.084525,0.27534 l -1.1046788,0.73729 a 0.22777108,0.22777108 0 0 1 -0.00168,8.6e-4 l -0.031802,0.0218 -0.5833039,1.21432 0.5933465,0.59418 1.2151467,-0.5833 0.021759,-0.0318 a 0.22777108,0.22777108 0 0 1 8.389e-4,-0.002 l 0.7372894,-1.10551 a 0.22777108,0.22777108 0 0 1 0.2753328,-0.0845 l 1.5306499,0.62348 a 0.22777108,0.22777108 0 0 1 0.136411,0.25943 l -0.2786801,1.27959 v 0.0218 l 0.4711621,1.3139 h 0.8134447 l 0.471163,-1.3139 v -0.0218 l -0.27868,-1.27959 a 0.22777108,0.22777108 0 0 1 0.136411,-0.25943 l 1.530649,-0.62348 a 0.22777108,0.22777108 0 0 1 0.275333,0.0845 l 0.736453,1.10551 0.02259,0.0335 1.215147,0.5833 0.594183,-0.59418 -0.583304,-1.21432 -0.0318,-0.0218 a 0.22777108,0.22777108 0 0 1 -0.0017,-8.6e-4 l -1.105515,-0.73729 a 0.22777108,0.22777108 0 0 1 -0.08452,-0.27534 l 0.623474,-1.53065 a 0.22777108,0.22777108 0 0 1 0.259432,-0.13641 l 1.279587,0.27868 h 0.02176 l 1.313899,-0.47116 v -0.81344 l -1.313899,-0.47117 h -0.02176 l -1.279587,0.27868 a 0.22777108,0.22777108 0 0 1 -0.25944,-0.13641 l -0.623474,-1.53065 a 0.22777108,0.22777108 0 0 1 0.08453,-0.27533 l 1.105515,-0.73645 0.03348,-0.0226 0.583304,-1.21515 -0.594184,-0.59335 -1.215146,0.58247 -0.02259,0.0335 -0.736453,1.10552 a 0.22777108,0.22777108 0 0 1 -0.275333,0.0845 l -1.530649,-0.62347 a 0.22777108,0.22777108 0 0 1 -0.136411,-0.25943 l 0.27868,-1.27959 v -0.0218 l -0.471162,-1.3139 z m 0.4067232,4.64635 c 1.184509,0 2.15496,0.97153 2.15496,2.15496 -1.1e-5,1.18338 -0.970446,2.15496 -2.15496,2.15496 -1.1845114,0 -2.1549612,-0.97157 -2.1549612,-2.15496 0,-1.18346 0.9704589,-2.15496 2.1549612,-2.15496 z"
         style="fill:#c173b0;fill-opacity:1;stroke:none;stroke-width:0.63486689"
         inkscape:connector-curvature="0" />
    </clipPath>
    <filter
       style="color-interpolation-filters:sRGB"
       id="q"
       height="1.072142"
       width="1.071866"
       x="-0.035932999"
       y="-0.036070999">
      <feGaussianBlur
         stdDeviation=".66434216"
         id="feGaussianBlur90" />
    </filter>
    <radialGradient
       id="r"
       cx="-55.685837"
       cy="-347.11612"
       gradientTransform="matrix(-0.91762954,-0.24587809,0.26650439,-0.99460792,-14.509941,-705.18366)"
       gradientUnits="userSpaceOnUse"
       r="22.14249">
      <stop
         offset="0"
         stop-color="#82c133"
         id="stop93" />
      <stop
         offset="1"
         stop-color="#72b028"
         id="stop95" />
    </radialGradient>
    <linearGradient
       id="s"
       gradientUnits="userSpaceOnUse"
       x1="328.12448"
       x2="336.98077"
       y1="120.81158"
       y2="87.759453">
      <stop
         offset="0"
         stop-color="#96ff00"
         id="stop98" />
      <stop
         offset="1"
         stop-color="#609800"
         id="stop100" />
    </linearGradient>
    <clipPath
       id="t">
      <circle
         cx="343.91208"
         cy="92.325096"
         r="36"
         transform="matrix(0.86602539,0.50000002,0.49999965,-0.86602561,0,0)"
         id="circle103" />
    </clipPath>
    <filter
       id="u">
      <feGaussianBlur
         stdDeviation="2.8805897"
         id="feGaussianBlur106" />
    </filter>
    <radialGradient
       id="v"
       cx="343.99899"
       cy="92"
       gradientTransform="matrix(0.46130197,0,0,0.46130166,-219.03541,-372.17548)"
       gradientUnits="userSpaceOnUse"
       r="36">
      <stop
         offset="0"
         stop-color="#e5ff00"
         id="stop109" />
      <stop
         offset="1"
         stop-color="#bff500"
         stop-opacity="0"
         id="stop111" />
    </radialGradient>
    <linearGradient
       id="w"
       gradientTransform="matrix(0,0.51133072,-0.51133109,0,76.138665,324.51289)"
       gradientUnits="userSpaceOnUse"
       x1="-80.00296"
       x2="-45.096584"
       y1="-131.93112"
       y2="-131.93112">
      <stop
         offset="0"
         stop-color="#fff"
         id="stop114" />
      <stop
         offset="1"
         stop-color="#fff"
         stop-opacity="0"
         id="stop116" />
    </linearGradient>
    <linearGradient
       id="x"
       gradientUnits="userSpaceOnUse"
       x1="122.00004"
       x2="122.00004"
       y1="61.999996"
       y2="9.9328432">
      <stop
         offset="0"
         stop-color="#314d00"
         stop-opacity="0"
         id="stop119" />
      <stop
         offset=".5"
         stop-color="#194d00"
         id="stop121" />
      <stop
         offset="1"
         stop-color="#2d4d00"
         stop-opacity="0"
         id="stop123" />
    </linearGradient>
    <filter
       id="y">
      <feGaussianBlur
         stdDeviation="1.04"
         id="feGaussianBlur126" />
    </filter>
  </defs>
  <sodipodi:namedview
     pagecolor="#ffffff"
     bordercolor="#666666"
     borderopacity="1"
     objecttolerance="10"
     gridtolerance="10"
     guidetolerance="10"
     inkscape:pageopacity="0"
     inkscape:pageshadow="2"
     inkscape:window-width="1366"
     inkscape:window-height="706"
     id="namedview21"
     showgrid="true"
     inkscape:snap-global="false"
     inkscape:zoom="2.6074563"
     inkscape:cx="-25.650088"
     inkscape:cy="72.510166"
     inkscape:window-x="0"
     inkscape:window-y="0"
     inkscape:window-maximized="1"
     inkscape:current-layer="svg19">
    <inkscape:grid
       type="xygrid"
       id="grid1504"
       spacingx="1.0583333"
       spacingy="1.0583333"
       empspacing="2" />
  </sodipodi:namedview>
  <linearGradient
     id="a"
     gradientUnits="userSpaceOnUse"
     x1=".000000461"
     x2="33.866667539"
     y1="280.067"
     y2="280.067">
    <stop
       offset="0"
       stop-color="#969696"
       id="stop2" />
    <stop
       offset=".20022914"
       stop-color="#f1f1f1"
       id="stop4" />
    <stop
       offset=".43749997"
       stop-color="#bbb"
       id="stop6" />
    <stop
       offset=".62499994"
       stop-color="#f6f6f6"
       id="stop8" />
    <stop
       offset=".73511833"
       stop-color="#e6e6e6"
       id="stop10" />
    <stop
       offset=".875"
       stop-color="#c0c0c0"
       id="stop12" />
    <stop
       offset="1"
       stop-color="#aeaeae"
       id="stop14" />
  </linearGradient>
  <g
     id="g1525">
    <path
       transform="translate(0,-263.13332)"
       d="m 15.611328,263.16016 a 0.50211348,0.50211348 0 0 0 -0.472656,0.33203 l -1.257813,3.50586 a 0.50211348,0.50211348 0 0 0 -0.0293,0.16992 v 0.19922 a 0.50211348,0.50211348 0 0 0 0.01172,0.10742 l 0.572266,2.62891 -2.802735,1.14257 -1.492187,-2.23828 -0.128906,-0.19726 A 0.50211348,0.50211348 0 0 0 9.8085938,268.63281 L 6.5,267.04688 a 0.50211348,0.50211348 0 0 0 -0.5722656,0.0976 l -1.9179688,1.91797 a 0.50211348,0.50211348 0 0 0 -0.097656,0.57227 L 5.5,272.94141 a 0.50211348,0.50211348 0 0 0 0.1738281,0.20117 l 0.1992188,0.13281 2.2382812,1.49023 -1.1425781,2.80274 -2.6289062,-0.57227 a 0.50211348,0.50211348 0 0 0 -0.1074219,-0.0117 H 4.0351562 a 0.50211348,0.50211348 0 0 0 -0.1699218,0.0293 l -3.5058594,1.25781 a 0.50211348,0.50211348 0 0 0 -0.33203125,0.47266 v 2.64453 a 0.50211348,0.50211348 0 0 0 0.33203125,0.47266 l 3.5058594,1.25781 a 0.50211348,0.50211348 0 0 0 0.1699218,0.0293 h 0.1972657 a 0.50211348,0.50211348 0 0 0 0.1074219,-0.0117 L 6.96875,282.56445 8.1113281,285.36719 5.875,286.85938 5.6777344,286.98828 A 0.50211348,0.50211348 0 0 0 5.5,287.19141 l -1.5878906,3.30664 a 0.50211348,0.50211348 0 0 0 0.097656,0.57226 l 1.9179688,1.91992 A 0.50211348,0.50211348 0 0 0 6.5,293.08789 L 9.8085938,291.5 a 0.50211348,0.50211348 0 0 0 0.2031252,-0.17773 l 0.128906,-0.19727 1.492187,-2.23828 2.802735,1.14258 -0.572266,2.6289 a 0.50211348,0.50211348 0 0 0 -0.01172,0.10742 v 0.19922 a 0.50211348,0.50211348 0 0 0 0.0293,0.16993 l 1.257813,3.50585 a 0.50211348,0.50211348 0 0 0 0.472656,0.33204 h 2.644531 a 0.50211348,0.50211348 0 0 0 0.472657,-0.33204 l 1.257812,-3.50585 a 0.50211348,0.50211348 0 0 0 0.0293,-0.16993 v -0.19922 a 0.50211348,0.50211348 0 0 0 -0.01172,-0.10742 l -0.572265,-2.6289 2.800781,-1.14258 1.492187,2.24023 0.132813,0.19922 A 0.50211348,0.50211348 0 0 0 24.058594,291.5 l 3.30664,1.58789 a 0.50211348,0.50211348 0 0 0 0.572266,-0.0977 l 1.919922,-1.91992 a 0.50211348,0.50211348 0 0 0 0.09766,-0.57226 l -1.58789,-3.30664 a 0.50211348,0.50211348 0 0 0 -0.177735,-0.20313 l -0.197265,-0.1289 -2.238282,-1.49219 1.142578,-2.80274 2.628907,0.57227 a 0.50211348,0.50211348 0 0 0 0.107421,0.0117 h 0.199219 a 0.50211348,0.50211348 0 0 0 0.169922,-0.0293 l 3.505859,-1.25781 a 0.50211348,0.50211348 0 0 0 0.332032,-0.47266 v -2.64453 a 0.50211348,0.50211348 0 0 0 -0.332032,-0.47266 l -3.505859,-1.25781 a 0.50211348,0.50211348 0 0 0 -0.169922,-0.0293 h -0.199219 a 0.50211348,0.50211348 0 0 0 -0.107421,0.0117 l -2.628907,0.57227 -1.142578,-2.80078 2.240235,-1.49219 0.199218,-0.13281 a 0.50211348,0.50211348 0 0 0 0.173829,-0.20117 l 1.58789,-3.30664 a 0.50211348,0.50211348 0 0 0 -0.09766,-0.57227 L 27.9375,267.14453 a 0.50211348,0.50211348 0 0 0 -0.572266,-0.0976 l -3.30664,1.58593 a 0.50211348,0.50211348 0 0 0 -0.201172,0.17383 l -0.132813,0.19922 -1.492187,2.24023 -2.800781,-1.14257 0.572265,-2.62891 a 0.50211348,0.50211348 0 0 0 0.01172,-0.10742 v -0.19922 a 0.50211348,0.50211348 0 0 0 -0.0293,-0.16992 l -1.257812,-3.50586 a 0.50211348,0.50211348 0 0 0 -0.472657,-0.33203 z m 1.322266,12.91015 c 2.200128,0 3.996093,1.79839 3.996094,3.9961 -2.2e-5,2.19762 -1.795975,3.99609 -3.996094,3.99609 -2.200111,0 -3.996094,-1.79847 -3.996094,-3.99609 0,-2.1978 1.795963,-3.9961 3.996094,-3.9961 z"
       id="path1500"
       style="fill:#636363;fill-opacity:1;stroke:none;stroke-width:1.48166704"
       inkscape:original="M 15.611328 263.66211 L 14.353516 267.16797 L 14.353516 267.36719 L 15.015625 270.41016 L 11.443359 271.86523 L 9.7226562 269.28516 L 9.5917969 269.08594 L 6.2832031 267.5 L 4.3652344 269.41797 L 5.953125 272.72461 L 6.1523438 272.85742 L 8.7304688 274.57617 L 7.2753906 278.14844 L 4.2324219 277.48633 L 4.0351562 277.48633 L 0.52929688 278.74414 L 0.52929688 281.38867 L 4.0351562 282.64648 L 4.2324219 282.64648 L 7.2753906 281.98438 L 8.7304688 285.55664 L 6.1523438 287.27734 L 5.953125 287.4082 L 4.3652344 290.71484 L 6.2832031 292.63477 L 9.5917969 291.04688 L 9.7226562 290.84766 L 11.443359 288.26758 L 15.015625 289.72266 L 14.353516 292.76562 L 14.353516 292.96484 L 15.611328 296.4707 L 18.255859 296.4707 L 19.513672 292.96484 L 19.513672 292.76562 L 18.851562 289.72266 L 22.423828 288.26758 L 24.142578 290.84766 L 24.275391 291.04688 L 27.582031 292.63477 L 29.501953 290.71484 L 27.914062 287.4082 L 27.714844 287.27734 L 25.134766 285.55664 L 26.589844 281.98438 L 29.632812 282.64648 L 29.832031 282.64648 L 33.337891 281.38867 L 33.337891 278.74414 L 29.832031 277.48633 L 29.632812 277.48633 L 26.589844 278.14844 L 25.134766 274.57617 L 27.714844 272.85742 L 27.914062 272.72461 L 29.501953 269.41797 L 27.582031 267.5 L 24.275391 269.08594 L 24.142578 269.28516 L 22.423828 271.86523 L 18.851562 270.41016 L 19.513672 267.36719 L 19.513672 267.16797 L 18.255859 263.66211 L 15.611328 263.66211 z M 16.933594 275.56836 C 19.407834 275.56836 21.431641 277.59465 21.431641 280.06641 C 21.431617 282.53809 19.407834 284.56445 16.933594 284.56445 C 14.459362 284.56445 12.435547 282.53809 12.435547 280.06641 C 12.435547 277.59457 14.459362 275.56836 16.933594 275.56836 z "
       inkscape:radius="0.50206327"
       sodipodi:type="inkscape:offset" />
    <path
       id="path17"
       d="m 15.984375,264.19336 -1.099609,3.06641 v 0.0508 l 0.65039,2.98633 a 0.53157739,0.53157739 0 0 1 -0.318359,0.60546 l -3.572266,1.45508 a 0.53157739,0.53157739 0 0 1 -0.642578,-0.19726 L 9.28125,269.58008 a 0.53157739,0.53157739 0 0 1 -0.00195,-0.004 l -0.050781,-0.0742 -2.8359375,-1.35937 -1.3847656,1.38476 1.3613281,2.83594 0.078125,0.0527 2.578125,1.71875 a 0.53157739,0.53157739 0 0 1 0.1972656,0.64257 l -1.4550781,3.57227 a 0.53157739,0.53157739 0 0 1 -0.6054687,0.31836 l -2.9863282,-0.65039 h -0.048828 l -3.0664062,1.09961 v 1.89843 l 3.0664062,1.09961 h 0.048828 l 2.9863282,-0.65039 a 0.53157739,0.53157739 0 0 1 0.6054687,0.31836 l 1.4550781,3.57227 a 0.53157739,0.53157739 0 0 1 -0.1972656,0.64258 l -2.578125,1.7207 a 0.53157739,0.53157739 0 0 1 -0.00391,0.002 l -0.074219,0.0508 -1.3613281,2.83399 1.3847656,1.38672 2.8359375,-1.36133 0.050781,-0.0742 a 0.53157739,0.53157739 0 0 1 0.00195,-0.004 l 1.720703,-2.58007 a 0.53157739,0.53157739 0 0 1 0.642578,-0.19727 l 3.572266,1.45508 a 0.53157739,0.53157739 0 0 1 0.318359,0.60547 l -0.65039,2.98633 v 0.0508 l 1.099609,3.0664 h 1.898437 l 1.09961,-3.0664 v -0.0508 l -0.650391,-2.98633 a 0.53157739,0.53157739 0 0 1 0.31836,-0.60547 l 3.572265,-1.45508 a 0.53157739,0.53157739 0 0 1 0.642578,0.19727 l 1.71875,2.58007 0.05273,0.0781 2.835937,1.36133 1.386719,-1.38672 -1.361328,-2.83399 -0.07422,-0.0508 a 0.53157739,0.53157739 0 0 1 -0.0039,-0.002 l -2.580078,-1.7207 a 0.53157739,0.53157739 0 0 1 -0.197266,-0.64258 l 1.455078,-3.57227 a 0.53157739,0.53157739 0 0 1 0.605469,-0.31836 l 2.986328,0.65039 h 0.05078 l 3.066407,-1.09961 v -1.89843 l -3.066407,-1.09961 h -0.05078 l -2.986328,0.65039 a 0.53157739,0.53157739 0 0 1 -0.605469,-0.31836 l -1.455078,-3.57227 a 0.53157739,0.53157739 0 0 1 0.197266,-0.64257 l 2.580078,-1.71875 0.07813,-0.0527 1.361328,-2.83594 -1.386719,-1.38476 -2.835937,1.35937 -0.05273,0.0781 -1.71875,2.58008 a 0.53157739,0.53157739 0 0 1 -0.642578,0.19726 l -3.572265,-1.45508 a 0.53157739,0.53157739 0 0 1 -0.31836,-0.60546 l 0.650391,-2.98633 v -0.0508 l -1.09961,-3.06641 z m 0.949219,10.84375 c 2.764436,0 5.029297,2.2674 5.029297,5.0293 -2.7e-5,2.76181 -2.264851,5.02929 -5.029297,5.02929 -2.764439,0 -5.029297,-2.26747 -5.029297,-5.02929 0,-2.76197 2.264879,-5.0293 5.029297,-5.0293 z"
       style="fill:#f0f0f0;fill-opacity:1;stroke:none;stroke-width:1.48166704"
       transform="translate(0,-263.13332)" />
    <g
       id="g867"
       transform="matrix(2.333823,0,0,2.3338231,-6.4049035,-258.45768)"
       clip-path="url(#clipPath1512)"
       style="opacity:0.6;filter:url(#filter1146)">
      <path
         id="path4004"
         d="m 10,110.85685 c -1.108458,0 -2.161526,0.25362 -3.098213,0.70536 l 2.67857,5.67857 -4.67857,-4.25 c -1.266825,1.28934 -2.044644,3.06112 -2.044644,5.00893 0,0.51502 0.05686,1.01573 0.160714,1.5 l 7.053572,-1.82143 -0.116072,-0.0982 4.553572,-5.11607 C 13.278925,111.46119 11.708561,110.85686 10,110.85686 Z m 6.883929,5.23215 -7.017857,1.67857 0.02679,0.0179 -6.098213,3.75 c 1.230798,2.15429 3.54954,3.60714 5.491071,3.60714 0.915572,0 1.1154,-0.0104 1.3125,-0.0268 -0.256744,-2.94147 -0.63406,-7.18725 -0.642857,-7.28571 l 5.669643,4.5625 c 0.948935,-1.2126 1.517858,-2.73582 1.517857,-4.39286 0,-0.66114 -0.09036,-1.30282 -0.258929,-1.91071 z"
         style="fill:#000000;fill-opacity:0.04255317;stroke:none"
         inkscape:connector-curvature="0" />
      <path
         id="path4004-0"
         d="m 10,110.85685 c -0.85917,0 -1.683053,0.1587 -2.446428,0.4375 L 9.580357,117.24078 4.375,113.59793 c -0.951506,1.21347 -1.517857,2.74226 -1.517857,4.40178 0,0.34182 0.02487,0.67984 0.07143,1.00893 l 7.142857,-1.33036 -0.116072,-0.0982 3.973215,-5.53571 c -1.128152,-0.74606 -2.476522,-1.1875 -3.928572,-1.1875 z m 7.008929,5.77679 -7.142857,1.13393 0.02679,0.0179 -5.616071,4.48214 c 1.303286,1.74205 3.383137,2.875 5.723214,2.875 0.05704,0 0.112919,10e-4 0.169643,0 -0.08509,-2.96607 -0.205524,-7.21445 -0.214286,-7.3125 l 5.928572,4.20536 c 0.79051,-1.14942 1.25893,-2.53706 1.258929,-4.03572 0,-0.46762 -0.0479,-0.92338 -0.133929,-1.36607 z"
         style="fill:#000000;fill-opacity:0.04787233;stroke:none"
         inkscape:connector-curvature="0" />
      <path
         id="path3893-7"
         d="m 10,110.85685 c -0.648312,0 -1.277668,0.0877 -1.875,0.25 l 1.803572,6.55358 3.366071,-5.99108 C 12.308054,111.15442 11.188679,110.85685 10,110.85685 Z m -6.080357,3.39286 c -0.673512,1.08967 -1.0625,2.37647 -1.0625,3.75 0,0.16521 0.0068,0.32864 0.01786,0.49107 l 7.089285,-0.78571 -6.044642,-3.45536 z m 13.178571,2.9375 -7.125,0.42857 6.151786,4.0625 c 0.646489,-1.07405 1.017858,-2.33515 1.017857,-3.67857 0,-0.27399 -0.01452,-0.54649 -0.04464,-0.8125 z m -7.089286,0.48214 -5.053571,5.39286 c 1.244937,1.24056 2.94985,2.01551 4.830357,2.07143 z"
         style="fill:#000000;fill-opacity:0.05851063;stroke:none"
         inkscape:connector-curvature="0" />
      <path
         id="path3893-7-5"
         d="m 10,110.85685 c -0.39145,0 -0.777338,0.0285 -1.151786,0.0893 l 1.080358,6.71429 2.660714,-6.3125 C 11.785799,111.03449 10.913643,110.85686 10,110.85686 Z m -6.410714,3.99108 c -0.45213,0.91751 -0.714658,1.94893 -0.732143,3.03571 l 7.107143,-0.17857 z m 6.383929,2.76785 6.392856,3.625 c 0.496481,-0.97261 0.776787,-2.07536 0.776786,-3.24107 0,-0.0991 -0.0049,-0.19647 -0.0089,-0.29464 l -7.160714,-0.0893 z m 0.03571,0.0536 -4.133929,6.15179 c 1.004818,0.71409 2.195432,1.18059 3.491072,1.29464 z"
         style="fill:#000000;fill-opacity:0.06382979;stroke:none"
         inkscape:connector-curvature="0" />
      <path
         id="path3893"
         d="m 10,110.85685 c -0.180151,0 -0.358888,0.005 -0.535715,0.0179 l 0.464287,6.78572 1.803571,-6.58929 C 11.17753,110.93272 10.597127,110.85686 10,110.85686 Z m -6.6875,4.64286 c -0.210754,0.56295 -0.357361,1.15707 -0.419643,1.77679 l 7.071428,0.42857 z m 6.660715,2.11607 6.616071,3.14286 c 0.316271,-0.75292 0.505344,-1.57114 0.544643,-2.42857 z m 0.03571,0.0536 -3.116072,6.75893 c 0.616727,0.29873 1.282515,0.51417 1.982143,0.625 l 1.133928,-7.38392 z"
         style="fill:#000000;fill-opacity:0.10106381;stroke:none"
         inkscape:connector-curvature="0" />
      <path
         sodipodi:nodetypes="cccccccccccccccccc"
         inkscape:connector-curvature="0"
         id="path3893-9"
         d="m 10.044643,110.85685 -0.116071,6.80358 1.080357,-6.73215 c -0.314638,-0.0445 -0.637945,-0.0694 -0.964286,-0.0714 z m -6.901786,5.14286 c -0.08056,0.27638 -0.149526,0.55915 -0.196428,0.84822 l 7.017857,0.85714 z m 6.830358,1.61607 6.803571,2.625 c 0.129583,-0.39169 0.234402,-0.79599 0.294643,-1.21428 z m 0.03571,0.0536 -2.642857,6.96429 c 0.160076,0.0639 0.325575,0.12604 0.491071,0.17857 0.146411,0.046 0.296139,0.0883 0.446429,0.125 0.03876,0.01 0.07706,0.0179 0.116071,0.0268 z"
         style="fill:#000000;fill-opacity:0.0851064;stroke:none" />
    </g>
  </g>
  <g
     transform="matrix(0.44320315,0,0,0.44320315,-39.72723,-110.04346)"
     id="g205">
    <ellipse
       style="fill:none;stroke-width:0.61506897"
       cx="-217.13077"
       cy="255.38551"
       rx="22.14249"
       ry="22.142477"
       transform="matrix(-0.96592586,-0.2588189,-0.25881915,0.9659258,0,0)"
       id="ellipse189" />
    <ellipse
       style="fill:#292929;filter:url(#q)"
       cx="-59.830322"
       cy="-331.66757"
       rx="22.14249"
       ry="22.142477"
       transform="matrix(-0.93421983,0.2432797,-0.25032328,-0.9079328,4.714699,17.679705)"
       id="ellipse191" />
    <ellipse
       style="fill:url(#r)"
       cx="-60.347961"
       cy="-329.73572"
       rx="21.035366"
       ry="21.035353"
       transform="rotate(165.00001)"
       id="ellipse193" />
    <circle
       cx="343.99899"
       cy="92"
       r="36"
       style="opacity:0.8;fill:none;stroke:url(#s);stroke-width:6.75138187;filter:url(#u)"
       transform="matrix(-0.56440567,-0.15123195,-0.151232,0.56440527,351.70189,302.97936)"
       clip-path="url(#t)"
       id="circle195" />
    <ellipse
       style="fill:url(#v);stroke-width:0.46130201"
       cx="-60.347996"
       cy="-329.73572"
       rx="16.606871"
       ry="16.606859"
       transform="rotate(165)"
       id="ellipse197" />
    <path
       style="opacity:0.8;fill:url(#w);stroke-width:0.85210401"
       inkscape:connector-curvature="0"
       d="m 143.63359,283.60495 c -7.85231,0 -14.41363,5.54478 -15.99508,12.92708 3.15226,2.93856 9.13349,4.92155 15.99508,4.92155 6.86158,0 12.8428,-1.98299 15.99506,-4.92155 -1.58145,-7.3823 -8.14276,-12.92708 -15.99506,-12.92708 z"
       id="path199" />
    <path
       inkscape:connector-curvature="0"
       d="m 120.01465,21.014613 v 13 H 108.8884 v 3.970777 h 11.12625 v 11.061281 h 3.97076 V 37.98539 h 11.12626 v -3.970777 h -11.12626 v -13 z"
       style="fill:none;stroke:url(#x);stroke-width:4;stroke-linecap:round;stroke-linejoin:round;filter:url(#y)"
       transform="matrix(1.2316998,0,0,1.2316998,-6.63385,260.53982)"
       id="path201" />
    <path
       style="fill:#ffffff;fill-rule:evenodd"
       inkscape:connector-curvature="0"
       d="m 140.03421,285.26955 v 13.70421 h -13.7042 v 7.1987 h 13.7042 v 13.7042 h 7.1987 v -13.7042 h 13.70421 v -7.1987 h -13.70421 v -13.70421 z"
       id="path203" />
  </g>
</svg>
