<?xml version="1.0" encoding="UTF-8" standalone="no"?>
<svg
   xmlns:dc="http://purl.org/dc/elements/1.1/"
   xmlns:cc="http://creativecommons.org/ns#"
   xmlns:rdf="http://www.w3.org/1999/02/22-rdf-syntax-ns#"
   xmlns:svg="http://www.w3.org/2000/svg"
   xmlns="http://www.w3.org/2000/svg"
   xmlns:xlink="http://www.w3.org/1999/xlink"
   xmlns:sodipodi="http://sodipodi.sourceforge.net/DTD/sodipodi-0.dtd"
   xmlns:inkscape="http://www.inkscape.org/namespaces/inkscape"
   height="128"
   viewBox="0 0 128 128"
   width="128"
   version="1.1"
   id="svg31"
   sodipodi:docname="sc_arrowshapes.striped-right-arrow.svg"
   inkscape:version="0.92.3 (unknown)"
   inkscape:export-filename="/home/rizmut/Dokumen/Rizmut/Github/libreoffice-style-karasa-jaga/build/images_karasa_jaga/cmd/sc_arrowshapes.striped-right-arrow.png"
   inkscape:export-xdpi="12"
   inkscape:export-ydpi="12">
  <metadata
     id="metadata37">
    <rdf:RDF>
      <cc:Work
         rdf:about="">
        <dc:format>image/svg+xml</dc:format>
        <dc:type
           rdf:resource="http://purl.org/dc/dcmitype/StillImage" />
        <dc:title></dc:title>
      </cc:Work>
    </rdf:RDF>
  </metadata>
  <defs
     id="defs35">
    <linearGradient
       id="linearGradient3369">
      <stop
         id="stop3372"
         offset="0"
         style="stop-color:#ffffff;stop-opacity:1;" />
      <stop
         style="stop-color:#ffffff;stop-opacity:1;"
         offset="0.39715832"
         id="stop3374" />
      <stop
         style="stop-color:#f1f1f1;stop-opacity:1;"
         offset="0.79970485"
         id="stop3376" />
      <stop
         id="stop3378"
         offset="0.90234375"
         style="stop-color:#eaeaea;stop-opacity:1;" />
      <stop
         id="stop3384"
         offset="1"
         style="stop-color:#dfdfdf;stop-opacity:1;" />
    </linearGradient>
    <linearGradient
       id="linearGradient7422">
      <stop
         style="stop-color:#7c9fcf;stop-opacity:1"
         offset="0"
         id="stop7424" />
      <stop
         id="stop5348"
         offset="0.5"
         style="stop-color:#7c9ece;stop-opacity:1" />
      <stop
         id="stop7426"
         offset="1"
         style="stop-color:#7b9dcf;stop-opacity:1" />
    </linearGradient>
    <linearGradient
       id="linearGradient2443">
      <stop
         style="stop-color:#b4b4b6;stop-opacity:1;"
         offset="0"
         id="stop2445" />
      <stop
         id="stop2447"
         offset="0.5"
         style="stop-color:#9c9ca1;stop-opacity:1;" />
      <stop
         id="stop2449"
         offset="1"
         style="stop-color:#cdcdd1;stop-opacity:1;" />
    </linearGradient>
    <linearGradient
       inkscape:collect="always"
       xlink:href="#linearGradient3369"
       id="linearGradient7830"
       x1="72.485626"
       y1="-0.046726"
       x2="72.485626"
       y2="127.95328"
       gradientUnits="userSpaceOnUse"
       gradientTransform="rotate(180,64.242813,63.976637)" />
    <linearGradient
       inkscape:collect="always"
       xlink:href="#linearGradient7422"
       id="linearGradient7838"
       x1="0.48562878"
       y1="63.976639"
       x2="128"
       y2="63.976639"
       gradientUnits="userSpaceOnUse"
       gradientTransform="rotate(180,64.242813,63.976637)" />
  </defs>
  <sodipodi:namedview
     pagecolor="#ffffff"
     bordercolor="#666666"
     borderopacity="1"
     objecttolerance="10"
     gridtolerance="10"
     guidetolerance="10"
     inkscape:pageopacity="0"
     inkscape:pageshadow="2"
     inkscape:window-width="1366"
     inkscape:window-height="706"
     id="namedview33"
     showgrid="true"
     inkscape:zoom="0.90509668"
     inkscape:cx="197.49118"
     inkscape:cy="-74.800897"
     inkscape:window-x="0"
     inkscape:window-y="0"
     inkscape:window-maximized="1"
     inkscape:current-layer="svg31"
     inkscape:snap-global="true">
    <inkscape:grid
       type="xygrid"
       id="grid844"
       spacingx="8"
       spacingy="8"
       empspacing="2" />
  </sodipodi:namedview>
  <linearGradient
     id="a">
    <stop
       offset="0"
       stop-color="#f9f9fa"
       id="stop2" />
    <stop
       offset="1"
       stop-color="#f9f9fa"
       stop-opacity="0"
       id="stop4" />
  </linearGradient>
  <linearGradient
     id="b"
     gradientUnits="userSpaceOnUse"
     x1="42.276669"
     x2="-13.469376"
     xlink:href="#a"
     y1="50.867565"
     y2="104.97279" />
  <linearGradient
     id="c"
     gradientUnits="userSpaceOnUse"
     x1="-1.817377"
     x2="2.172436"
     xlink:href="#a"
     y1="55.003803"
     y2="116.784" />
  <g
     id="g7861"
     transform="rotate(180,64.242813,63.976637)"
     inkscape:export-filename="/home/rizmut/Dokumen/Rizmut/Github/libreoffice-style-karasa-jaga/build/images_karasa_jaga/cmd/g7861.png"
     inkscape:export-xdpi="12"
     inkscape:export-ydpi="12">
    <path
       style="fill:url(#linearGradient7838);fill-opacity:1;fill-rule:nonzero;stroke:none;stroke-width:2;stroke-linecap:round;stroke-linejoin:round;stroke-miterlimit:4;stroke-dasharray:none;stroke-dashoffset:4;stroke-opacity:1"
       d="M 67.535156 5 C 65.764927 4.9904938 64.486328 5.969205 64.486328 7.953125 L 64.486328 39.953125 L 56 39.953125 L 56 40 L 48 40 L 48 39.953125 L 32 39.953125 L 32 87.953125 L 48 87.953125 L 48 88 L 56 88 L 56 87.953125 L 64.486328 87.953125 L 64.486328 119.95312 C 64.486328 123.94573 68.827937 123.95527 72.814453 119.96875 L 127.14258 65.640625 C 128.26183 64.521376 128.28989 62.756684 127.20508 61.671875 L 73.533203 7.9726562 C 71.567408 6.0068613 69.305385 5.0095062 67.535156 5 z M 3.3300781 39.953125 C 1.7472181 39.953125 0.48632812 41.200218 0.48632812 42.734375 L 0.48632812 85.171875 C 0.48632812 86.706029 1.7472281 87.953125 3.3300781 87.953125 L 24 87.953125 L 24 39.953125 L 3.3300781 39.953125 z "
       transform="rotate(-180,64.242813,63.976637)"
       id="rect2324" />
    <path
       style="fill:url(#linearGradient7830);fill-opacity:1;fill-rule:evenodd;stroke:none;stroke-width:8;stroke-linecap:round;stroke-linejoin:round;stroke-miterlimit:4;stroke-dasharray:none;stroke-opacity:1"
       d="M 74.869141 21.71875 C 73.646549 21.782951 72.46851 22.834356 72.486328 23.951172 L 72.486328 47.953125 L 40 47.953125 L 40 79.953125 L 48 79.953125 L 48 48 L 64 48 L 64 79.953125 L 72.486328 79.953125 L 72.486328 104.95312 C 72.486328 106.44352 74.574534 107.45867 75.855469 106.17773 L 117.01758 65.015625 C 117.60518 64.428019 117.61467 63.487717 117.04883 62.921875 L 76.455078 22.330078 C 75.98987 21.864869 75.424864 21.689568 74.869141 21.71875 z M 9.9863281 47.953125 C 9.1553281 47.953125 8.4863281 48.590405 8.4863281 49.390625 L 8.4863281 78.515625 C 8.4863281 79.315847 9.1553281 79.953125 9.9863281 79.953125 L 16 79.953125 L 16 47.953125 L 9.9863281 47.953125 z "
       transform="rotate(-180,64.242813,63.976637)"
       id="rect2326" />
  </g>
</svg>
