<?xml version="1.0" encoding="UTF-8" standalone="no"?>
<svg
   xmlns:dc="http://purl.org/dc/elements/1.1/"
   xmlns:cc="http://creativecommons.org/ns#"
   xmlns:rdf="http://www.w3.org/1999/02/22-rdf-syntax-ns#"
   xmlns:svg="http://www.w3.org/2000/svg"
   xmlns="http://www.w3.org/2000/svg"
   xmlns:xlink="http://www.w3.org/1999/xlink"
   xmlns:sodipodi="http://sodipodi.sourceforge.net/DTD/sodipodi-0.dtd"
   xmlns:inkscape="http://www.inkscape.org/namespaces/inkscape"
   height="128"
   viewBox="0 0 33.866666 33.866668"
   width="128"
   version="1.1"
   id="svg20"
   sodipodi:docname="sc_autosum.svg"
   inkscape:version="0.92.3 (unknown)"
   inkscape:export-filename="/home/rizmut/Dokumen/Rizmut/Github/libreoffice-style-karasa-jaga/build/images_karasa_jaga/cmd/sc_autosum.png"
   inkscape:export-xdpi="12"
   inkscape:export-ydpi="12">
  <metadata
     id="metadata26">
    <rdf:RDF>
      <cc:Work
         rdf:about="">
        <dc:format>image/svg+xml</dc:format>
        <dc:type
           rdf:resource="http://purl.org/dc/dcmitype/StillImage" />
        <dc:title></dc:title>
      </cc:Work>
    </rdf:RDF>
  </metadata>
  <defs
     id="defs24">
    <linearGradient
       inkscape:collect="always"
       xlink:href="#b"
       id="linearGradient851"
       x1="44.499702"
       y1="-20.692167"
       x2="89.470406"
       y2="73.138344"
       gradientUnits="userSpaceOnUse" />
  </defs>
  <sodipodi:namedview
     pagecolor="#ffffff"
     bordercolor="#666666"
     borderopacity="1"
     objecttolerance="10"
     gridtolerance="10"
     guidetolerance="10"
     inkscape:pageopacity="0"
     inkscape:pageshadow="2"
     inkscape:window-width="1366"
     inkscape:window-height="706"
     id="namedview22"
     showgrid="false"
     inkscape:zoom="1.84375"
     inkscape:cx="126.7901"
     inkscape:cy="58.42359"
     inkscape:window-x="0"
     inkscape:window-y="0"
     inkscape:window-maximized="1"
     inkscape:current-layer="svg20" />
  <linearGradient
     id="a"
     gradientUnits="userSpaceOnUse"
     x1="18.98182359615"
     x2="20.2029811282"
     y1="294.720546641"
     y2="266.6339107115"
     gradientTransform="translate(0,-263.13332)">
    <stop
       offset="0"
       stop-color="#555"
       id="stop2" />
    <stop
       offset="1"
       id="stop4" />
  </linearGradient>
  <linearGradient
     id="b"
     gradientUnits="userSpaceOnUse"
     x1="35.404884"
     x2="54.657333"
     y1="7.324325"
     y2="81.814293"
     gradientTransform="scale(0.26458333)">
    <stop
       offset="0"
       stop-color="#3b3e22"
       id="stop7" />
    <stop
       offset="1"
       stop-color="#454545"
       stop-opacity="0"
       id="stop9" />
  </linearGradient>
  <g
     id="g856"
     transform="translate(-0.21370319,-0.27781569)">
    <text
       style="font-size:40.61514282px;font-family:sans-serif;letter-spacing:0;word-spacing:0;fill:url(#a);stroke-width:1.015378"
       x="4.795023"
       y="31.336895"
       id="text14">
      <tspan
         font-size="42.740532"
         font-weight="bold"
         x="4.795023"
         y="31.336895"
         id="tspan12"
         style="font-style:normal;font-variant:normal;font-weight:normal;font-stretch:normal;font-size:42.74053192px;font-family:FreeSerif;-inkscape-font-specification:FreeSerif;fill:url(#a);stroke-width:1.015378">Σ</tspan>
    </text>
    <path
       id="text838"
       transform="scale(0.26458334)"
       d="m 28.228516,14.705078 48.099609,47.945313 a 3.0427347,3.0427347 0 0 1 0,4.302734 l -7.126953,7.126953 A 90.57627,47.457628 0 0 0 70.931641,73.875 L 83.548828,61.306641 C 82.503845,60.311472 81.873915,59.709919 79.6875,57.660156 a 3.0427347,3.0427347 0 0 1 -0.06641,-0.07422 C 76.294369,54.259212 72.805993,50.833352 69.154297,47.289062 a 3.0427347,3.0427347 0 0 1 -0.03125,-0.03711 C 65.472208,43.601115 61.711038,39.902441 57.84375,36.142578 a 3.0427347,3.0427347 0 0 1 -0.06641,-0.06641 C 54.004408,32.195437 50.880541,28.95925 48.39648,26.367184 a 3.0427347,3.0427347 0 0 1 -0.03711,-0.04297 c -1.265499,-1.375543 -2.234658,-2.471722 -2.939453,-3.359375 -0.352399,-0.443827 -0.633518,-0.832125 -0.892578,-1.248047 -0.25906,-0.415922 -0.69336,-0.569129 -0.69336,-2.140625 0,-1.873548 1.23232,-3.925338 2.84961,-4.833984 0.0534,-0.03 0.1221,-0.0086 0.175781,-0.03711 z m 56.74414,0 c 5.164332,1.017107 10.0592,2.808428 14.232422,6.230469 2.516162,2.063252 4.363402,4.566122 5.994142,7.181641 l -0.9082,-13.41211 z"
       style="font-size:40.61514282px;font-family:sans-serif;letter-spacing:0;word-spacing:0;fill:url(#linearGradient851);fill-opacity:1;stroke-width:3.83764911"
       inkscape:connector-curvature="0" />
  </g>
</svg>
