<svg height="128" width="128" xmlns="http://www.w3.org/2000/svg" xmlns:xlink="http://www.w3.org/1999/xlink"><linearGradient id="a"><stop offset="0" stop-color="#0968ef"/><stop offset="1" stop-color="#aecffc"/></linearGradient><linearGradient id="b" gradientTransform="matrix(.20798 -.978133 .978133 .20798 -27.79114 164.71727)" gradientUnits="userSpaceOnUse" x1="113.15723" x2="39.268185" xlink:href="#a" y1="25.786163" y2="25.786163"/><linearGradient id="c" gradientTransform="matrix(1.5275638 -2.6458181 2.2162152 1.280019 -187.60223 -4.895489)" gradientUnits="userSpaceOnUse" x1="20" x2="20" y1="78.165009" y2="109.84906"><stop offset="0" stop-color="#fff"/><stop offset="1" stop-color="#fff" stop-opacity="0"/></linearGradient><linearGradient id="d" gradientTransform="matrix(.7637819 0 0 .8888892 -77.368144 35.414217)" gradientUnits="userSpaceOnUse" x1="80.34671" x2="73.462685" y1="17.268518" y2="107.95493"><stop offset="0" stop-color="#c7cdd7"/><stop offset="1" stop-color="#fff"/></linearGradient><linearGradient id="e" gradientTransform="matrix(-.20798 .978133 -.978133 -.20798 155.2219 -30.086836)" gradientUnits="userSpaceOnUse" x1="113.15723" x2="39.268185" xlink:href="#a" y1="25.786163" y2="25.786163"/><rect fill="#81a2d1" height="80.000008" rx="2.618681" ry="2.553105" transform="matrix(.5 -.8660254 .8659431 .5001426 0 0)" width="87.987671" x="-72.479942" y="52.303116"/><g fill-rule="evenodd"><rect fill="url(#d)" height="64.000015" rx="1.374807" ry="1.331712" transform="matrix(.5 -.8660254 .8659431 .5001426 0 0)" width="73.323059" x="-65.147636" y="60.303104"/><path d="m21.936575 82.610917c-1.269405 2.198674-.878996 4.784458.894464 5.808755l22.36992 12.920198c15.143493-20.024361 27.605033-41.053316 37.007812-63.299629l-22.716205-13.120195c-1.773467-1.024298-4.20775-.069977-5.477155 2.128698z" fill="url(#c)"/><path d="m24.554181 53.164737-24.554181 19.315594 3.061239 4.714611 13.384186-5.127213c-7.789302 36.633211 10.184243 51.204661 30.081606 55.932271l1.47009-8.12346c-15.380362-4.61498-30.596412-13.83629-23.726632-46.144972l9.943365 10.08734 4.91147-3.019378z" fill="url(#b)"/><path d="m102.87658 81.465696 24.55418-19.31559-3.06124-4.71461-13.38419 5.12721c7.78931-36.633212-10.18424-51.204662-30.081605-55.9322723l-1.47009 8.1234603c15.380362 4.61498 30.596415 13.83629 23.726635 46.144972l-9.943364-10.087341-4.911471 3.019381z" fill="url(#e)"/></g></svg>