<svg height="128" width="128" xmlns="http://www.w3.org/2000/svg" xmlns:xlink="http://www.w3.org/1999/xlink"><linearGradient id="a"><stop offset="0" stop-color="#fd0000"/><stop offset="1" stop-color="#8f0000"/></linearGradient><radialGradient id="b" cx="72.631729" cy="22.787588" gradientTransform="matrix(9.484369 0 0 9.4843886 -628.86608 -152.12633)" gradientUnits="userSpaceOnUse" r="1.265237" xlink:href="#a"/><linearGradient id="c" gradientUnits="userSpaceOnUse" x1="60.00002287741" x2="63.99999634708" xlink:href="#a" y1="35.99999353776" y2="72.000001359"/><linearGradient id="d" gradientUnits="userSpaceOnUse" x1="55.611087" x2="61.160022" y1="44.186089" y2="64.894997"><stop offset="0" stop-color="#fff"/><stop offset="1" stop-color="#fff" stop-opacity="0"/></linearGradient><g fill="#c80000" transform="matrix(0 1 1 0 8 -20)"><path d="m40 16h60v4h-60z" opacity=".99"/><path d="m100 8v20h20v-20zm4 4h12v12h-12z" opacity=".99"/></g><g fill="#c80000" transform="translate(-12)"><path d="m40 16h60v4h-60z" opacity=".99"/><path d="m100 8v20h20v-20zm4 4h12v12h-12z" opacity=".99"/></g><path d="m-117.1893-13.429994h88v8.035534h-88z" fill="#4d4d4d" fill-opacity=".992157" opacity=".99" transform="matrix(-.93969262 -.34202014 .34202014 -.93969262 0 0)"/><path d="m-108.36434 15.436528h84v8.035534h-84z" fill="#4d4d4d" fill-opacity=".992157" opacity=".99" transform="matrix(-.34202014 -.93969262 .93969262 -.34202014 0 0)"/><g fill="#fff" fill-opacity=".756881"><path d="m-378.73128 170.7101v-2.79471z"/><path d="m96.03176 6.896364v-2.794709z"/><path d="m130.40731 60.290044v-1.526736z"/></g><g transform="translate(-32.000004 -40)"><rect fill="url(#c)" height="24" rx="2.25" width="24.000011" x="48.000004" y="48"/><rect fill="url(#b)" height="16.000002" rx="1.5" width="16.00001" x="52.000027" y="52"/><path d="m53.55 52c-.831 0-1.5.669-1.5 1.5v7.5625c1.21577.115562 2.46728.1875 3.75.1875 4.616543 0 8.863957-.778523 12.25-2.09375v-5.65625c0-.831-.668998-1.5-1.5-1.5z" fill="url(#d)"/></g><g transform="translate(-4.000038 40)"><rect fill="url(#c)" height="24" rx="2.25" width="24.000011" x="48.000004" y="48"/><rect fill="url(#b)" height="16.000002" rx="1.5" width="16.00001" x="52.000027" y="52"/><path d="m53.55 52c-.831 0-1.5.669-1.5 1.5v7.5625c1.21577.115562 2.46728.1875 3.75.1875 4.616543 0 8.863957-.778523 12.25-2.09375v-5.65625c0-.831-.668998-1.5-1.5-1.5z" fill="url(#d)"/></g><g transform="translate(47.95 -13.0625)"><rect fill="url(#c)" height="24" rx="2.25" width="24.000011" x="48.000004" y="48"/><rect fill="url(#b)" height="16.000002" rx="1.5" width="16.00001" x="52.000027" y="52"/><path d="m53.55 52c-.831 0-1.5.669-1.5 1.5v7.5625c1.21577.115562 2.46728.1875 3.75.1875 4.616543 0 8.863957-.778523 12.25-2.09375v-5.65625c0-.831-.668998-1.5-1.5-1.5z" fill="url(#d)"/></g></svg>