<?xml version="1.0" encoding="UTF-8" standalone="no"?>
<svg
   xmlns:dc="http://purl.org/dc/elements/1.1/"
   xmlns:cc="http://creativecommons.org/ns#"
   xmlns:rdf="http://www.w3.org/1999/02/22-rdf-syntax-ns#"
   xmlns:svg="http://www.w3.org/2000/svg"
   xmlns="http://www.w3.org/2000/svg"
   xmlns:xlink="http://www.w3.org/1999/xlink"
   xmlns:sodipodi="http://sodipodi.sourceforge.net/DTD/sodipodi-0.dtd"
   xmlns:inkscape="http://www.inkscape.org/namespaces/inkscape"
   height="128"
   viewBox="0 0 128 128"
   width="128"
   version="1.1"
   id="svg31"
   sodipodi:docname="sc_basicshapes.can.svg"
   inkscape:version="0.92.3 (unknown)"
   inkscape:export-filename="/home/rizmut/Dokumen/Rizmut/Github/libreoffice-style-karasa-jaga/build/images_karasa_jaga/cmd/sc_basicshapes.can.png"
   inkscape:export-xdpi="12"
   inkscape:export-ydpi="12">
  <metadata
     id="metadata37">
    <rdf:RDF>
      <cc:Work
         rdf:about="">
        <dc:format>image/svg+xml</dc:format>
        <dc:type
           rdf:resource="http://purl.org/dc/dcmitype/StillImage" />
        <dc:title></dc:title>
      </cc:Work>
    </rdf:RDF>
  </metadata>
  <defs
     id="defs35">
    <linearGradient
       id="linearGradient3369">
      <stop
         id="stop3372"
         offset="0"
         style="stop-color:#ffffff;stop-opacity:1;" />
      <stop
         style="stop-color:#ffffff;stop-opacity:1;"
         offset="0.46428573"
         id="stop3374" />
      <stop
         style="stop-color:#f1f1f1;stop-opacity:1;"
         offset="0.78125"
         id="stop3376" />
      <stop
         id="stop3378"
         offset="0.90625"
         style="stop-color:#eaeaea;stop-opacity:1;" />
      <stop
         id="stop3384"
         offset="1"
         style="stop-color:#dfdfdf;stop-opacity:1;" />
    </linearGradient>
    <linearGradient
       id="linearGradient7422">
      <stop
         style="stop-color:#7c9fcf;stop-opacity:1"
         offset="0"
         id="stop7424" />
      <stop
         id="stop5348"
         offset="0.5"
         style="stop-color:#7c9ece;stop-opacity:1" />
      <stop
         id="stop7426"
         offset="1"
         style="stop-color:#7b9dcf;stop-opacity:1" />
    </linearGradient>
    <linearGradient
       id="linearGradient3369-3">
      <stop
         id="stop3372-6"
         offset="0"
         style="stop-color:#ffffff;stop-opacity:1;" />
      <stop
         style="stop-color:#ffffff;stop-opacity:1;"
         offset="0.4375"
         id="stop3374-7" />
      <stop
         style="stop-color:#f1f1f1;stop-opacity:1;"
         offset="0.71875"
         id="stop3376-5" />
      <stop
         id="stop3378-3"
         offset="0.84375"
         style="stop-color:#eaeaea;stop-opacity:1;" />
      <stop
         id="stop3384-5"
         offset="1"
         style="stop-color:#dfdfdf;stop-opacity:1;" />
    </linearGradient>
    <linearGradient
       inkscape:collect="always"
       xlink:href="#linearGradient7422"
       id="linearGradient1228"
       x1="15.871094"
       y1="23.214844"
       x2="112.14258"
       y2="23.214844"
       gradientUnits="userSpaceOnUse" />
    <linearGradient
       inkscape:collect="always"
       xlink:href="#linearGradient7422"
       id="linearGradient1230"
       x1="15.667241"
       y1="71.528763"
       x2="111.96881"
       y2="71.528763"
       gradientUnits="userSpaceOnUse" />
    <linearGradient
       inkscape:collect="always"
       xlink:href="#linearGradient3369"
       id="linearGradient1238"
       x1="24.013371"
       y1="23.21471"
       x2="104"
       y2="23.21471"
       gradientUnits="userSpaceOnUse" />
    <linearGradient
       inkscape:collect="always"
       xlink:href="#linearGradient3369"
       id="linearGradient1240"
       x1="23.636946"
       y1="74.526062"
       x2="104"
       y2="74.526062"
       gradientUnits="userSpaceOnUse" />
  </defs>
  <sodipodi:namedview
     pagecolor="#ffffff"
     bordercolor="#666666"
     borderopacity="1"
     objecttolerance="10"
     gridtolerance="10"
     guidetolerance="10"
     inkscape:pageopacity="0"
     inkscape:pageshadow="2"
     inkscape:window-width="1366"
     inkscape:window-height="706"
     id="namedview33"
     showgrid="true"
     inkscape:zoom="2.8284271"
     inkscape:cx="34.71441"
     inkscape:cy="109.27412"
     inkscape:window-x="0"
     inkscape:window-y="0"
     inkscape:window-maximized="1"
     inkscape:current-layer="svg31"
     inkscape:snap-global="false">
    <inkscape:grid
       type="xygrid"
       id="grid844"
       spacingx="8"
       spacingy="8"
       empspacing="2" />
  </sodipodi:namedview>
  <linearGradient
     id="a">
    <stop
       offset="0"
       stop-color="#f9f9fa"
       id="stop2" />
    <stop
       offset="1"
       stop-color="#f9f9fa"
       stop-opacity="0"
       id="stop4" />
  </linearGradient>
  <linearGradient
     id="b"
     gradientUnits="userSpaceOnUse"
     x1="42.276669"
     x2="-13.469376"
     xlink:href="#a"
     y1="50.867565"
     y2="104.97279" />
  <linearGradient
     id="c"
     gradientUnits="userSpaceOnUse"
     x1="-1.817377"
     x2="2.172436"
     xlink:href="#a"
     y1="55.003803"
     y2="116.784" />
  <path
     style="opacity:1;fill:url(#linearGradient1230);fill-opacity:1.0;stroke:none;stroke-width:4.020854;stroke-linecap:square;stroke-linejoin:bevel;stroke-miterlimit:4;stroke-dasharray:none;stroke-dashoffset:0;stroke-opacity:1"
     d="m 103.78125,16.771484 c -2.97385,0.08274 -5.654082,1.81484 -6.951172,4.492188 -0.0068,0.01164 -0.145871,0.217438 -0.714844,0.537109 -1.240852,0.69716 -3.648155,1.648648 -6.767578,2.441407 -6.237987,1.585298 -15.326257,2.667361 -25.417968,2.669921 C 53.858146,26.910659 44.821789,25.83848 38.621094,24.265625 35.520746,23.479197 33.128651,22.534791 31.888672,21.839844 31.305138,21.512801 31.142017,21.28689 31.136719,21.279297 27.404247,13.759369 16.081421,16.376382 16.027344,24.771484 l -0.197266,81.369136 c -0.03671,0.30076 -0.146878,0.5686 -0.158203,0.875 -0.0054,0.1588 -0.0061,0.31773 -0.002,0.47657 0.0074,0.32264 0.124663,0.60856 0.160156,0.92578 v 1.77539 c 0.0049,3.73432 2.601948,6.96456 6.248047,7.77148 4.290369,3.13362 9.392181,4.60558 15.548828,5.9043 7.472186,1.57623 16.402953,2.4188 26.103516,2.41992 h 0.002 c 9.697314,-0.003 18.655309,-0.85298 26.152344,-2.43359 6.168493,-1.30051 11.276454,-2.76085 15.578124,-5.89258 3.67731,-0.78389 6.30664,-4.03108 6.30859,-7.79101 v -1.72266 c 0.0348,-0.29304 0.14544,-0.5706 0.15625,-0.86328 0.006,-0.16726 0.007,-0.33466 0.002,-0.50196 -0.008,-0.29759 -0.12554,-0.60357 -0.15821,-0.90625 l 0.19727,-81.423824 c 0.009,-4.492874 -3.69629,-8.104873 -8.1875,-7.982422 z"
     id="path1196"
     inkscape:connector-curvature="0"
     sodipodi:nodetypes="ccsscscccccccccsccsccccccccc" />
  <path
     style="opacity:1;fill:url(#linearGradient1240);fill-opacity:1.0;stroke:none;stroke-width:4.020854;stroke-linecap:square;stroke-linejoin:bevel;stroke-miterlimit:4;stroke-dasharray:none;stroke-dashoffset:0;stroke-opacity:1"
     d="M 104,30.73164 C 102.31174,36.493159 85.208363,40.876608 63.928468,40.88138 42.70006,40.878322 25.756532,36.538154 23.99675,30.792248 l -0.198215,75.638492 c -0.09682,0.29281 -0.150724,0.58657 -0.16159,0.88056 0.007,0.30716 0.06084,0.61411 0.16159,0.92005 v 1.96253 h 1.257785 c 4.796262,4.84059 20.21772,8.12447 38.673932,8.12661 18.444035,-0.006 33.987907,-3.31034 38.780998,-8.14773 h 1.29054 v -2.00202 c 0.0968,-0.29282 0.15072,-0.58657 0.16158,-0.88057 -0.008,-0.30716 -0.0607,-0.61412 -0.16158,-0.92007 z"
     id="rect916"
     inkscape:connector-curvature="0"
     sodipodi:nodetypes="ccccccccccccccc" />
  <path
     style="opacity:1;fill:url(#linearGradient1228);fill-opacity:1.0;stroke:none;stroke-width:4.0037632;stroke-linecap:square;stroke-linejoin:bevel;stroke-miterlimit:4;stroke-dasharray:none;stroke-dashoffset:0;stroke-opacity:1"
     d="m 63.9375,4.0292969 c -11.833901,-6e-7 -22.364286,1.266952 -30.585938,3.5800781 -4.110825,1.156563 -7.648346,2.51369 -10.779296,4.605469 -3.130951,2.091779 -6.701172,5.668135 -6.701172,11.080078 2e-6,5.411943 3.59619,9.003917 6.736328,11.078125 3.140137,2.074208 6.675415,3.406279 10.783203,4.539062 8.215577,2.265567 18.732333,3.488282 30.546875,3.488282 11.817139,-10e-7 22.366729,-1.229268 30.611328,-3.498047 4.1223,-1.13439 7.670682,-2.466972 10.820312,-4.53711 3.14963,-2.070138 6.77344,-5.648997 6.77344,-11.091796 0,-5.4428 -3.60506,-9.010727 -6.74805,-11.09375 C 102.25154,10.096664 98.702639,8.7455108 94.578125,7.59375 86.329098,5.2902283 75.768804,4.0292969 63.9375,4.0292969 Z"
     id="path1200" />
  <path
     style="opacity:1;fill:url(#linearGradient1238);fill-opacity:1.0;stroke:none;stroke-width:4.0037632;stroke-linecap:square;stroke-linejoin:bevel;stroke-miterlimit:4;stroke-dasharray:none;stroke-dashoffset:0;stroke-opacity:1"
     d="m 104,23.274197 c 0,6.0984 -17.609761,10.982645 -40.062922,10.982646 -22.453161,0 -39.923706,-4.863214 -39.923708,-10.961614 0,-6.098402 17.470546,-11.12265 39.923708,-11.122649 C 86.39024,12.17258 104,17.175797 104,23.274197 Z"
     id="path918"
     inkscape:connector-curvature="0"
     sodipodi:nodetypes="sssss" />
</svg>
