<?xml version="1.0" encoding="UTF-8" standalone="no"?>
<svg
   xmlns:dc="http://purl.org/dc/elements/1.1/"
   xmlns:cc="http://creativecommons.org/ns#"
   xmlns:rdf="http://www.w3.org/1999/02/22-rdf-syntax-ns#"
   xmlns:svg="http://www.w3.org/2000/svg"
   xmlns="http://www.w3.org/2000/svg"
   xmlns:xlink="http://www.w3.org/1999/xlink"
   xmlns:sodipodi="http://sodipodi.sourceforge.net/DTD/sodipodi-0.dtd"
   xmlns:inkscape="http://www.inkscape.org/namespaces/inkscape"
   height="128"
   viewBox="0 0 33.866666 33.866668"
   width="128"
   version="1.1"
   id="svg20"
   sodipodi:docname="sc_bold.svg"
   inkscape:version="0.92.2 (unknown)"
   inkscape:export-filename="/home/rizmut/Dokumen/Rizmut/Github/libreoffice-style-karasa-jaga/build/images_karasa_jaga/cmd/sc_bold.png"
   inkscape:export-xdpi="12"
   inkscape:export-ydpi="12">
  <metadata
     id="metadata26">
    <rdf:RDF>
      <cc:Work
         rdf:about="">
        <dc:format>image/svg+xml</dc:format>
        <dc:type
           rdf:resource="http://purl.org/dc/dcmitype/StillImage" />
        <dc:title></dc:title>
      </cc:Work>
    </rdf:RDF>
  </metadata>
  <defs
     id="defs24">
    <linearGradient
       inkscape:collect="always"
       xlink:href="#b"
       id="linearGradient838"
       x1="62.089916"
       y1="-17.262213"
       x2="74.044228"
       y2="97.79245"
       gradientUnits="userSpaceOnUse" />
  </defs>
  <sodipodi:namedview
     pagecolor="#ffffff"
     bordercolor="#666666"
     borderopacity="1"
     objecttolerance="10"
     gridtolerance="10"
     guidetolerance="10"
     inkscape:pageopacity="0"
     inkscape:pageshadow="2"
     inkscape:window-width="1366"
     inkscape:window-height="706"
     id="namedview22"
     showgrid="false"
     inkscape:zoom="1.3037281"
     inkscape:cx="107.48756"
     inkscape:cy="4.8312687"
     inkscape:window-x="0"
     inkscape:window-y="0"
     inkscape:window-maximized="1"
     inkscape:current-layer="svg20" />
  <linearGradient
     id="a"
     gradientUnits="userSpaceOnUse"
     x1="18.98182359615"
     x2="20.2029811282"
     y1="294.720546641"
     y2="266.6339107115"
     gradientTransform="translate(-0.83344086,-263.09059)">
    <stop
       offset="0"
       stop-color="#555"
       id="stop2" />
    <stop
       offset="1"
       id="stop4" />
  </linearGradient>
  <linearGradient
     id="b"
     gradientUnits="userSpaceOnUse"
     x1="35.404884"
     x2="54.657333"
     y1="7.324325"
     y2="81.814293"
     gradientTransform="scale(0.26458333)">
    <stop
       offset="0"
       stop-color="#3b3e22"
       id="stop7" />
    <stop
       offset="1"
       stop-color="#454545"
       stop-opacity="0"
       id="stop9" />
  </linearGradient>
  <text
     id="text14"
     y="31.379633"
     x="3.9615819"
     style="font-size:40.61514282px;font-family:sans-serif;letter-spacing:0;word-spacing:0;fill:url(#a);stroke-width:1.015378">
    <tspan
       style="font-weight:bold;font-size:42.74053192px;font-family:FreeSerif;fill:url(#a);stroke-width:1.015378"
       id="tspan12"
       y="31.379633"
       x="3.9615819"
       font-weight="bold"
       font-size="42.740532">B</tspan>
  </text>
  <path
     style="opacity:1;vector-effect:none;fill:url(#linearGradient838);fill-opacity:1;stroke:none;stroke-width:1.22834647;stroke-linecap:butt;stroke-linejoin:miter;stroke-miterlimit:4;stroke-dasharray:none;stroke-dashoffset:0;stroke-opacity:1"
     d="M 37.544922 16.328125 C 38.699512 19.008382 39.353516 21.907637 39.353516 24.90625 L 39.353516 75.941406 A 83.254235 55.864407 0 0 0 50.169922 76.474609 A 83.254235 55.864407 0 0 0 51.333984 76.447266 L 51.333984 63.189453 A 6.9357161 6.9357161 0 0 1 51.777344 60.775391 A 6.9357161 6.9357161 0 0 1 51.333984 58.345703 L 51.333984 22.160156 C 51.333984 20.226919 51.546628 18.229442 52.146484 16.328125 L 37.544922 16.328125 z M 86.441406 18.638672 C 89.088421 23.608743 90.398438 29.386047 90.398438 36.378906 C 90.398438 41.98655 89.424553 46.775745 87.71875 51.044922 C 93.274512 48.994793 97.605413 46.862859 99.492188 45.095703 C 101.99902 42.644744 103.19141 39.905185 103.19141 35.248047 C 103.19141 29.001082 101.22922 25.546814 95.550781 22.123047 A 6.9357161 6.9357161 0 0 1 95.447266 22.056641 C 93.166003 20.626596 89.903816 19.5794 86.441406 18.638672 z M 88.449219 68.126953 C 88.828349 68.665076 89.186703 69.219594 89.533203 69.78125 A 83.254235 55.864407 0 0 0 91.365234 69.076172 C 90.421701 68.751415 89.45668 68.431922 88.449219 68.126953 z "
     transform="scale(0.26458334)"
     id="path821" />
</svg>
