<svg height="128" viewBox="0 0 33.866666 33.866668" width="128" xmlns="http://www.w3.org/2000/svg" xmlns:xlink="http://www.w3.org/1999/xlink"><linearGradient id="a" gradientUnits="userSpaceOnUse" x1="102.30765" x2="106.01008" y1="39.141762" y2="209.45338"><stop offset="0" stop-color="#99999c"/><stop offset=".5" stop-color="#9c9ca1"/><stop offset="1" stop-color="#cdcdd1"/></linearGradient><linearGradient id="b" gradientUnits="userSpaceOnUse" x1="78.61085034347" x2="120.34349451992" y1="88.85241574791" y2="111.54715161013"><stop offset="0" stop-color="#fff"/><stop offset="1" stop-color="#ccc"/></linearGradient><linearGradient id="c" gradientUnits="userSpaceOnUse" x1="88.38102" x2="130.48599" y1="1008.9966" y2="1015.6953"><stop offset="0" stop-color="#7b7b7b"/><stop offset="1" stop-color="#797979" stop-opacity="0"/></linearGradient><clipPath id="d"><path d="m41.355614 933.74432h83.943993v117.52166h-83.943993z"/></clipPath><filter id="e" color-interpolation-filters="sRGB" height="1.073732" width="1.13754" x="-.06877" y="-.036866"><feGaussianBlur stdDeviation="1.0557314"/></filter><linearGradient id="f" gradientUnits="userSpaceOnUse" x1="98.40846912202" x2="115.2552252896" y1="30.75850104895" y2="77.14050006823"><stop offset="0" stop-color="#fff" stop-opacity=".683453"/><stop offset="1" stop-color="#fff" stop-opacity="0"/></linearGradient><linearGradient id="g" gradientTransform="matrix(.58291629 0 0 .66676377 62.177025 -566.68964)" gradientUnits="userSpaceOnUse" x1="63.011921" x2="63.011921" y1="945.89801" y2="1033.1569"><stop offset="0" stop-color="#545454" stop-opacity=".988"/><stop offset="1" stop-color="#ebebeb"/></linearGradient><linearGradient id="h" gradientTransform="matrix(.48045402 0 0 .66178602 128.73476 -578.51587)" gradientUnits="userSpaceOnUse" x1="-60.535713" x2="-60.357143" y1="979.50507" y2="1009.505"><stop offset="0" stop-color="#979797"/><stop offset=".148461" stop-color="#f6f6f6"/><stop offset=".28399727" stop-color="#e2e2e2"/><stop offset=".41198727" stop-color="#dedede"/><stop offset=".41198727" stop-color="#f6f6f6"/><stop offset="1" stop-color="#6b6b6b"/></linearGradient><linearGradient id="i" gradientTransform="matrix(.480454 0 0 .58309338 128.76683 499.76645)" gradientUnits="userSpaceOnUse" x1="-61.078979" x2="-60.6413" y1="-1056.658" y2="-1010.9131"><stop offset="0" stop-color="#777"/><stop offset=".18176934" stop-color="#a8a8a8"/><stop offset=".22864534" stop-color="#cdcdcd"/><stop offset=".34561315" stop-color="#f7f7f7"/><stop offset="1" stop-color="#fff"/></linearGradient><filter id="j"><feGaussianBlur stdDeviation="2.0786429"/></filter><radialGradient id="k" cx="108" cy="128.54001" gradientTransform="matrix(.26458333 0 0 .26449477 -1.058333 266.17683)" gradientUnits="userSpaceOnUse" r="139.55859"><stop offset="0" stop-color="#b7b8b9"/><stop offset=".18851049" stop-color="#ececec"/><stop offset=".25718147" stop-color="#fafafa"/><stop offset=".30111277" stop-color="#fff"/><stop offset=".5313" stop-color="#fafafa"/><stop offset=".8449" stop-color="#ebecec"/><stop offset="1" stop-color="#e1e2e3"/></radialGradient><g transform="translate(0 -263.13332)"><path d="m12 11.900001v118.999999h120v-118.999999z" filter="url(#j)" opacity=".758364" transform="matrix(.26458333 0 0 .26458333 -2.116667 261.43999)"/><path d="m1.5874998 265.1177v30.1625h30.4684242l.223242-.22324v-29.93926z" fill="#fff" stroke-width=".264583"/><path d="m3.9687498 267.23437c-.1457855 0-.2645834.11884-.2645834.26458v25.66458h26.1276036c.307491.009.33073-.42336.33073-.48782v-25.17676c0-.14574-.118534-.26458-.264584-.26458z" fill="url(#k)" stroke-width=".264583"/><g fill="#404040" fill-opacity=".839216"><path d="m-30.246035 269.65088h26.62541v1.015403h-26.62541z" transform="scale(-1 1)"/><path d="m3.6204509 273.82569v1.01545h4.3113652c.0053-.13468.0099-.26909.02222-.40566.01839-.2043.0476-.40732.08372-.60979zm10.7507651 0c.09855.3643.214012.70156.347265 1.01545h3.833875c.03564-.33487.09569-.67482.182418-1.01545zm9.056811 0c.09249.31022.07568.16043.383439.71004.05194.0928.105722.19521.161748.30541h6.273002v-1.01545z"/><path d="m3.6204509 278.00063v1.01545h4.9800572c-.0083-.0254-.01708-.0499-.02532-.0754a2.3502291 2.3502291 0 0 1 -.02739-.0904c-.08015-.28769-.150798-.56858-.220658-.84956zm13.6844361 0c.455216.35002.96146.68567 1.499133 1.01545h.475423c.002-.12801-.000952-.24968-.0093-.36381-.08634-.21225-.173233-.42895-.257866-.65164zm7.894093 0c.102481.30699.196035.57496.311608.93793a2.3502291 2.3502291 0 0 1 .02273.0775h4.712891v-1.01545z"/><path d="m3.6204509 282.17557v1.01544h7.0843221c-.241262-.31838-.469941-.65655-.68678-1.01544zm22.1831411 0c.0074.32489.01511.6659.02119 1.01544h4.421436v-1.01544z"/><path d="m3.6204509 286.35051v1.01544h13.3785111c-.823468-.30925-1.624112-.63109-2.389001-1.01544zm22.2596221 0c.0065.35789.01405.69157.0217 1.01544h4.34444v-1.01544zm-7.989692.12248c.0031.0242-.02282.0605.0016.17414-.000397-.0288.0012-.0879.000529-.11058-.0022-.0679-.008-.11001-.0021-.0636z"/><path d="m-30.246035 290.52539h26.62541v1.015403h-26.62541z" transform="scale(-1 1)"/></g><path d="m23.594118 287.88814c-.113181-2.26674-.06916-6.91311-.32246-8.19479-1.638212-4.63048-1.658518-3.24557-2.192696-4.94157-.515054 1.49847-.07717 2.21291.51593 3.58084.270307 1.61607-.496046 3.50376-.773899 4.22542-3.996713-1.90186-7.911765-3.69658-8.913003-8.30758 0-.42971-.257965-2.00528-.257965-2.00528-1.7071999 2.18556-1.627622 3.60941-.838383 6.15907 1.574951 4.39719 4.074885 5.30465 8.209057 6.6604.256437.0687 1.02314.0959 1.160841.35808.138323.20279.0074 1.95657.008 2.46541z" fill="#06f" fill-rule="evenodd"/></g><g transform="matrix(.28584856 0 0 .28584856 -2.786162 -2.72195)"><path d="m68.985809 46.546616h59.01239v81.453445h-59.01239z" fill="url(#a)"/><path d="m76.390663 53.951469h44.429123v66.643677h-44.429123z" fill="url(#b)"/><path clip-path="url(#d)" d="m92.81509 1029.6319c1.071428 1.4286 10.71429 15.3572 11.78571 13.5715 1.07143-1.7858 26.42857-25.3572 25-26.7858-1.42857-1.4285-33.928567-41.78567-33.928567-41.78567z" fill="url(#c)" fill-rule="evenodd" filter="url(#e)" opacity=".68" transform="matrix(.69309305 0 0 .69309305 41.153912 -600.6251)"/><path d="m72 48v48c14.790777-17.220934 34.04067-23.231931 48-25.4375v-22.5625z" fill="url(#f)" fill-rule="evenodd" transform="matrix(.92560668 0 0 .92560668 9.746984 9.522348)"/><path d="m83.795517 65.058746h29.619415v48.131542h-29.619415z" fill="url(#g)"/><path d="m87.497948 68.761177h22.214558v40.726692h-22.214558z" fill="#535353"/><path d="m91.200371 72.4636h14.809708v14.809709h-14.809708z" fill="url(#h)"/><path d="m91.200371-116.89272h14.809715v29.619408h-14.809715z" fill="url(#i)" transform="scale(1 -1)"/></g></svg>