<svg height="128" width="128" xmlns="http://www.w3.org/2000/svg" xmlns:xlink="http://www.w3.org/1999/xlink"><linearGradient id="a" gradientTransform="matrix(.30523238 0 0 1.3043803 6.372135 -.351998)" gradientUnits="userSpaceOnUse" x1="46.048" x2="46.048" y1="128.01709" y2="16.6203"><stop offset="0" stop-color="#c7cdd7"/><stop offset="1" stop-color="#fff"/></linearGradient><linearGradient id="b" gradientUnits="userSpaceOnUse" x1="67.266975" x2="67.266975" y1="288.20084" y2="-56"><stop offset="0"/><stop offset="1" stop-color="#fff"/></linearGradient><linearGradient id="c" gradientTransform="matrix(-1 0 0 1 154.9807 67.757363)" gradientUnits="userSpaceOnUse" x1="71.227066" x2="28.9296" xlink:href="#j" y1="10.599652" y2="70.897705"/><linearGradient id="d" gradientTransform="matrix(1.037037 0 0 1.2158938 -.296299 -21.49932)" gradientUnits="userSpaceOnUse" x1="8" x2="80" y1="36" y2="112"><stop offset="0" stop-color="#c8ffa5"/><stop offset="1" stop-color="#dfffcb"/></linearGradient><linearGradient id="e" gradientUnits="userSpaceOnUse" x1="67.266975" x2="67.266975" y1="288.20084" y2="-56"><stop offset="0" stop-color="#48940b" stop-opacity=".831373"/><stop offset="1" stop-color="#48940b" stop-opacity=".831373"/></linearGradient><linearGradient id="f" gradientTransform="matrix(5.4921716 0 0 -5.4921716 -467.24293 446.32459)" gradientUnits="userSpaceOnUse" x1="101.99715" x2="104" y1="83.220375" y2="57.11084"><stop offset="0" stop-color="#d4e2f3"/><stop offset="1" stop-color="#fff" stop-opacity="0"/></linearGradient><linearGradient id="g" gradientUnits="userSpaceOnUse" x1="256.5" x2="267.74562" y1="68.500001" y2="-53.567196"><stop offset="0" stop-color="#fff"/><stop offset="1" stop-color="#fff" stop-opacity="0"/></linearGradient><filter id="h"><feGaussianBlur stdDeviation=".385"/></filter><linearGradient id="i" gradientUnits="userSpaceOnUse" x1="246.37838" x2="244.9539" xlink:href="#j" y1="-14.213035" y2="75.696911"/><linearGradient id="j"><stop offset="0" stop-color="#bbd6ff"/><stop offset="1" stop-color="#0057ae"/></linearGradient><linearGradient id="k" gradientUnits="userSpaceOnUse" x1="219.231171" x2="246.63911" xlink:href="#l" y1="-30.287812" y2="72.000001"/><linearGradient id="l"><stop offset="0" stop-color="#2c72c7"/><stop offset="1" stop-color="#00438a"/></linearGradient><linearGradient id="m" gradientUnits="userSpaceOnUse" x1="46.825067" x2="123.000837" xlink:href="#l" y1="77.669472" y2="77.669472"/><path d="m8 8h31.743378v104.4853h-31.743378z" fill="url(#a)"/><path d="m17.4543 128h116v4.000001h-116z" fill="#fff" opacity=".262911"/><path d="m0 8v4.707031 19.292969 4 20 4.199219 19.800781 4 24.11328 3.88672h8 32 8 .039062v-3.88672h-.039062v-24.11328h.039062v-4h-.039062v-19.800781h.039062v-4.199219h-.039062v-20h.039062v-.101562h79.960938v-27.898438h-120zm8 4.707031h32v19.292969h-32zm40 0h32v19.292969h-32zm40 0h32v19.292969h-32zm-80 23.292969h32v20h-32zm0 24.199219h32v19.800781h-32zm0 23.800781h32v24.11328h-32z" fill="url(#b)"/><path d="m8 12.5457h112v19.4543h-112z" fill="url(#d)"/><path d="m0 8v4.707031 19.292969 4h8 32 8 .03906v-.101562h79.96094v-27.898438h-120zm8 4.707031h32v19.292969h-32zm40 0h32v19.292969h-32zm40 0h32v19.292969h-32z" fill="url(#e)"/><path d="m236 70.000001-20-22h16v-64.000001h8v64.000001h16z" fill="none" stroke="url(#k)" stroke-linecap="round" stroke-linejoin="round" stroke-width="16"/><path d="m236 68.000001-20-20h16v-64.000001h8v64.000001h16z" fill="url(#i)" fill-rule="evenodd"/><path d="m236 68.000001-20-20h16v-64.000001h8v64.000001h16z" fill="none" filter="url(#h)" opacity=".898396" stroke="url(#g)"/><g transform="matrix(1.0829116 0 0 1.0829116 -10.697781 -12.853721)"><path d="m103.00085 39.581578-20.000003 24 16-3.824219c4.320943 36.554361-15.129056 32.049812-32 32l3.824219-16-24 20 24 20.000001-3.824219-16c29.28178 3.57202 44.038973-8.252026 40.000003-40.000001l16 3.824219z" fill="none" stroke="url(#m)" stroke-linecap="round" stroke-linejoin="round" stroke-width="10"/><g fill-rule="evenodd"><path d="m103.00085 39.581578-20.000003 24 16-3.824219c4.320943 36.554361-15.129056 32.049812-32 32l3.824219-16-24 20 24 20.000001-3.824219-16c29.28178 3.57202 44.038973-8.252026 40.000003-40.000001l16 3.824219z" fill="url(#c)"/><path d="m103.00074 39.582031-20.000006 24 16.000003-3.824219c1.743563 14.750261-.38617 22.809901-4.65235 27.179688 3.70511-1.003936 7.387903-2.031766 11.048833-3.082031 2.28912-6.17274 2.86803-14.158062 1.60352-24.097657l16 3.824219z" fill="url(#f)"/></g></g></svg>