<svg height="128" viewBox="0 0 128 128" width="128" xmlns="http://www.w3.org/2000/svg" xmlns:xlink="http://www.w3.org/1999/xlink"><radialGradient id="a" cx="7.977352" cy="8.22044" gradientTransform="matrix(2.6101946 0 0 2.6007842 -8.822441 914.98257)" gradientUnits="userSpaceOnUse" r="56"><stop offset=".0765" stop-color="#f3c300"/><stop offset=".1887" stop-color="#f7d21f"/><stop offset=".3467" stop-color="#fde446"/><stop offset=".4294" stop-color="#ffeb55"/><stop offset=".6882" stop-color="#ffeb55"/><stop offset=".7281" stop-color="#fee951"/><stop offset=".7641" stop-color="#fde446"/><stop offset=".7987" stop-color="#fadb34"/><stop offset=".8322" stop-color="#f7cf1a"/><stop offset=".8588" stop-color="#f3c300"/><stop offset=".9208" stop-color="#fbd400"/><stop offset=".9706" stop-color="#fd0"/></radialGradient><linearGradient id="b" gradientUnits="userSpaceOnUse" x1="69.98205689186" x2="99.04039694599" y1="929.22302512921" y2="975.7163557824"><stop offset="0" stop-color="#fff" stop-opacity=".462094"/><stop offset=".5" stop-color="#fff"/><stop offset="1" stop-color="#fff" stop-opacity=".350181"/></linearGradient><radialGradient id="c" cx="-32" cy="9.6" gradientTransform="matrix(3.6042052 3.6042052 -18.021027 18.021027 393.56583 880.28582)" gradientUnits="userSpaceOnUse" r="5.6"><stop offset="0" stop-color="#a50606"/><stop offset="1" stop-color="#f20909"/></radialGradient><g transform="translate(0 -924.36216)"><g fill="none" stroke-linecap="round" stroke-linejoin="round"><path d="m8.068121 932.36218h113.14262v112.73471h-113.14262z" opacity=".2" stroke="#000" stroke-width="8.081616"/><path d="m6.62296 930.92224h116.03294v115.61462h-116.03294z" opacity=".15" stroke="#000" stroke-width="12.432101"/><path d="m8.068121 932.36218h113.14262v112.73471h-113.14262z" opacity=".2" stroke="#000" stroke-width="8.081616"/><path d="m8.068121 932.36218h113.14262v112.73471h-113.14262z" stroke="#e3ad00" stroke-width="4.040808"/></g><path d="m8.068121 932.36218h111.93188v111.99998h-111.93188z" fill="#fff"/><path d="m12.059116 936.3139h103.94089v104.04826h-103.94089z" fill="url(#a)"/><path d="m12 936.36218h104v23.999977h-104z" fill="url(#b)"/><path d="m62.090896 1020.2523v-2.8232z" fill="#fff" fill-opacity=".756881"/><path d="m105.8159 928.74923v-2.82322z" fill="#fff" fill-opacity=".756881"/><path d="m61.080092 931.99154a11.191931 11.191931 0 0 0 3.096262 9.88836l10.650405 10.6504-10.650405 10.65041a11.191931 11.191931 0 0 0 0 15.82686l9.268187 9.26818a11.191931 11.191931 0 0 0 15.826858 0l10.650406-10.6504 10.650405 10.6504a11.191931 11.191931 0 0 0 11.20879 2.77359v-59.0578z" fill="#fff" fill-opacity=".871324"/><path d="m118.48548 924.69703-18.563675 18.56367-18.563673-18.56367-9.268891 9.26889 18.563672 18.56367-18.563672 18.56368 9.268891 9.26889 18.563673-18.56367 18.563675 18.56367 9.26889-9.26889-18.56367-18.56368 18.56367-18.56367z" fill="url(#c)"/></g></svg>