<?xml version="1.0" encoding="UTF-8" standalone="no"?>
<svg
   xmlns:dc="http://purl.org/dc/elements/1.1/"
   xmlns:cc="http://creativecommons.org/ns#"
   xmlns:rdf="http://www.w3.org/1999/02/22-rdf-syntax-ns#"
   xmlns:svg="http://www.w3.org/2000/svg"
   xmlns="http://www.w3.org/2000/svg"
   xmlns:xlink="http://www.w3.org/1999/xlink"
   xmlns:sodipodi="http://sodipodi.sourceforge.net/DTD/sodipodi-0.dtd"
   xmlns:inkscape="http://www.inkscape.org/namespaces/inkscape"
   enable-background="new 0 0 128 128"
   height="128"
   viewBox="0 0 128 128"
   width="128"
   version="1.1"
   id="svg119"
   sodipodi:docname="sc_deleteslide.svg"
   inkscape:version="0.92.3 (unknown)"
   inkscape:export-filename="/home/rizmut/Dokumen/Rizmut/Github/libreoffice-style-karasa-jaga/build/images_karasa_Jaga/cmd/sc_deleteslide.png"
   inkscape:export-xdpi="12"
   inkscape:export-ydpi="12">
  <metadata
     id="metadata125">
    <rdf:RDF>
      <cc:Work
         rdf:about="">
        <dc:format>image/svg+xml</dc:format>
        <dc:type
           rdf:resource="http://purl.org/dc/dcmitype/StillImage" />
        <dc:title></dc:title>
      </cc:Work>
    </rdf:RDF>
  </metadata>
  <defs
     id="defs123">
    <radialGradient
       inkscape:collect="always"
       xlink:href="#linearGradient10428"
       id="radialGradient10439"
       gradientUnits="userSpaceOnUse"
       gradientTransform="matrix(3.0760953,3.0760953,-15.380477,15.380477,274.61753,-37.568953)"
       cx="-32"
       cy="9.6000004"
       fx="-32"
       fy="9.6000004"
       r="5.5999999" />
    <linearGradient
       id="linearGradient10428">
      <stop
         style="stop-color:#a50606;stop-opacity:1;"
         offset="0"
         id="stop10430" />
      <stop
         style="stop-color:#f20909;stop-opacity:1;"
         offset="1"
         id="stop10432" />
    </linearGradient>
  </defs>
  <sodipodi:namedview
     pagecolor="#ffffff"
     bordercolor="#666666"
     borderopacity="1"
     objecttolerance="10"
     gridtolerance="10"
     guidetolerance="10"
     inkscape:pageopacity="0"
     inkscape:pageshadow="2"
     inkscape:window-width="1366"
     inkscape:window-height="699"
     id="namedview121"
     showgrid="false"
     inkscape:zoom="1.84375"
     inkscape:cx="-12.20339"
     inkscape:cy="64"
     inkscape:window-x="0"
     inkscape:window-y="0"
     inkscape:window-maximized="1"
     inkscape:current-layer="svg119" />
  <linearGradient
     id="a">
    <stop
       offset="0"
       stop-color="#fff"
       id="stop2" />
    <stop
       offset="1"
       stop-color="#fff"
       stop-opacity="0"
       id="stop4" />
  </linearGradient>
  <linearGradient
     id="b"
     gradientUnits="userSpaceOnUse"
     x1="28"
     x2="28"
     xlink:href="#a"
     y1="57.5"
     y2="0" />
  <filter
     id="c"
     height="1.294962"
     width="1.106002"
     x="-.053001"
     y="-.147481">
    <feGaussianBlur
       stdDeviation="1.4133574"
       id="feGaussianBlur8" />
  </filter>
  <clipPath
     id="d">
    <path
       d="m18.1875 56c-1.219674 0-2.1875.967827-2.1875 2.1875v17.0625c9.640301 2.396967 20.509296 3.75 32 3.75s22.359699-1.353033 32-3.75v-17.0625c0-1.219674-.967827-2.1875-2.1875-2.1875z"
       filter="url(#c)"
       id="path11" />
  </clipPath>
  <linearGradient
     gradientUnits="userSpaceOnUse"
     x1="56"
     x2="56"
     xlink:href="#b"
     y1="20"
     y2="88.117546"
     id="linearGradient14" />
  <filter
     id="e">
    <feGaussianBlur
       stdDeviation="1.9"
       id="feGaussianBlur16" />
  </filter>
  <filter
     id="f">
    <feGaussianBlur
       stdDeviation="1.1263538"
       id="feGaussianBlur19" />
  </filter>
  <linearGradient
     id="g"
     gradientUnits="userSpaceOnUse"
     x1="56"
     x2="56"
     xlink:href="#b"
     y1="32"
     y2="88.117546" />
  <linearGradient
     id="h"
     gradientUnits="userSpaceOnUse"
     x1="52"
     x2="52"
     y1="64"
     y2="68">
    <stop
       offset="0"
       id="stop23" />
    <stop
       offset="1"
       stop-opacity="0"
       id="stop25" />
  </linearGradient>
  <radialGradient
     id="i"
     cx="48"
     cy="112"
     gradientTransform="matrix(1 0 0 .75 0 28)"
     gradientUnits="userSpaceOnUse"
     r="32">
    <stop
       offset="0"
       stop-color="#ffea00"
       id="stop28" />
    <stop
       offset="1"
       stop-color="#ffa000"
       id="stop30" />
  </radialGradient>
  <radialGradient
     id="j"
     cx="100.88867"
     cy="155.99673"
     gradientTransform="matrix(4.3885832 0 0 3.8888885 -340.15832 -425.43169)"
     gradientUnits="userSpaceOnUse"
     r="40">
    <stop
       offset="0"
       stop-color="#fff"
       id="stop33" />
    <stop
       offset=".11366145"
       stop-color="#bdbebf"
       id="stop35" />
    <stop
       offset=".20296688"
       stop-color="#ececec"
       id="stop37" />
    <stop
       offset=".2363"
       stop-color="#fafafa"
       id="stop39" />
    <stop
       offset=".38818121"
       stop-color="#fff"
       id="stop41" />
    <stop
       offset=".5313"
       stop-color="#fafafa"
       id="stop43" />
    <stop
       offset=".8449"
       stop-color="#ebecec"
       id="stop45" />
    <stop
       offset="1"
       stop-color="#e1e2e3"
       id="stop47" />
  </radialGradient>
  <filter
     id="k"
     color-interpolation-filters="sRGB"
     height="1.072142"
     width="1.071866"
     x="-.035933"
     y="-.036071">
    <feGaussianBlur
       stdDeviation=".66434216"
       id="feGaussianBlur50" />
  </filter>
  <radialGradient
     id="l"
     cx="-55.685837"
     cy="-347.11612"
     gradientTransform="matrix(-.91762954 -.24587809 .26650439 -.99460792 -14.509941 -705.18366)"
     gradientUnits="userSpaceOnUse"
     r="22.14249">
    <stop
       offset="0"
       stop-color="#82c133"
       id="stop53" />
    <stop
       offset="1"
       stop-color="#72b028"
       id="stop55" />
  </radialGradient>
  <linearGradient
     id="m"
     gradientUnits="userSpaceOnUse"
     x1="328.12448"
     x2="336.98077"
     y1="120.81158"
     y2="87.759453">
    <stop
       offset="0"
       stop-color="#96ff00"
       id="stop58" />
    <stop
       offset="1"
       stop-color="#609800"
       id="stop60" />
  </linearGradient>
  <clipPath
     id="n">
    <circle
       cx="343.91208"
       cy="92.325096"
       r="36"
       transform="matrix(.86602539 .50000002 .49999965 -.86602561 0 0)"
       id="circle63" />
  </clipPath>
  <filter
     id="o">
    <feGaussianBlur
       stdDeviation="2.8805897"
       id="feGaussianBlur66" />
  </filter>
  <radialGradient
     id="p"
     cx="343.99899"
     cy="92"
     gradientTransform="matrix(.46130197 0 0 .46130166 -219.03541 -372.17548)"
     gradientUnits="userSpaceOnUse"
     r="36">
    <stop
       offset="0"
       stop-color="#e5ff00"
       id="stop69" />
    <stop
       offset="1"
       stop-color="#bff500"
       stop-opacity="0"
       id="stop71" />
  </radialGradient>
  <linearGradient
     id="q"
     gradientTransform="matrix(0 .51133072 -.51133109 0 76.138665 324.51289)"
     gradientUnits="userSpaceOnUse"
     x1="-80.00296"
     x2="-45.096584"
     xlink:href="#a"
     y1="-131.93112"
     y2="-131.93112" />
  <linearGradient
     id="r"
     gradientUnits="userSpaceOnUse"
     x1="122.000035"
     x2="122.000035"
     y1="61.999997"
     y2="9.932843">
    <stop
       offset="0"
       stop-color="#314d00"
       stop-opacity="0"
       id="stop75" />
    <stop
       offset=".5"
       stop-color="#194d00"
       id="stop77" />
    <stop
       offset="1"
       stop-color="#2d4d00"
       stop-opacity="0"
       id="stop79" />
  </linearGradient>
  <filter
     id="s">
    <feGaussianBlur
       stdDeviation="1.04"
       id="feGaussianBlur82" />
  </filter>
  <g
     transform="matrix(1.4153344 0 0 1.4153344 -3.93605 -55.86113)"
     id="g99">
    <path
       d="m15 48.6875c-3.884437 0-7 3.146813-7 7.03125v57.96875c0 3.88444 3.115563 7 7 7h66c3.884437 0 7-3.11556 7-7v-57.96875c0-3.884437-3.115563-7.03125-7-7.03125h-8.6v2.99375c0 .95614-.762611 1.71875-1.71875 1.71875h-5.3625c-.95614 0-1.71875-.762611-1.71875-1.71875v-2.99375z"
       style="fill:#020202;stroke:#000;stroke-width:2;stroke-linecap:round;stroke-linejoin:round;stroke-dashoffset:1.0878;filter:url(#e)"
       id="path85" />
    <path
       d="m14.625 48c-3.668031 0-6.625 2.956969-6.625 6.625v58.75c0 3.66803 2.956969 6.625 6.625 6.625h66.75c3.668031 0 6.625-2.95697 6.625-6.625v-58.75c0-3.668031-2.956969-6.625-6.625-6.625h-9.375v2.28125c0 .95614-.762611 1.71875-1.71875 1.71875h-4.5625c-.95614 0-1.71875-.762611-1.71875-1.71875v-2.28125z"
       fill="#fff"
       id="path87" />
    <path
       d="m14.25 49c-2.903795 0-5.25 2.346204-5.25 5.25v59.5c0 2.9038 2.346204 5.25 5.25 5.25h67.5c2.903795 0 5.25-2.3462 5.25-5.25v-59.5c0-2.903795-2.346204-5.25-5.25-5.25h-8.75v1.84375c0 1.195173-.961076 2.15625-2.15625 2.15625h-5.6875c-1.195176 0-2.15625-.961076-2.15625-2.15625v-1.84375z"
       fill="url(#j)"
       id="path89" />
    <rect
       fill="url(#i)"
       height="48"
       rx="2.201577"
       width="64"
       x="16"
       y="64"
       id="rect91" />
    <rect
       fill="url(#h)"
       filter="url(#f)"
       height="32"
       rx="2.201577"
       width="64"
       x="16"
       y="64"
       id="rect93" />
    <path
       clip-path="url(#d)"
       d="m18.1875 56c-1.219674 0-2.1875.967827-2.1875 2.1875v17.0625c9.640301 2.396967 20.509296 3.75 32 3.75s22.359699-1.353033 32-3.75v-17.0625c0-1.219674-.967827-2.1875-2.1875-2.1875z"
       fill="url(#g)"
       filter="url(#c)"
       transform="translate(0 8)"
       id="path95" />
    <path
       d="m16.018069 109.9125v1c0 1.21967.967827 2.1875 2.1875 2.1875h59.625c1.21967 0 2.1875-.96783 2.1875-2.1875v-1c0 1.21967-.96783 2.1875-2.1875 2.1875h-59.625c-1.219673 0-2.1875-.96783-2.1875-2.1875z"
       fill="#fff"
       id="path97" />
  </g>
  <g
     id="g950">
    <path
       id="path4391"
       d="m 53.013672,0 1.49414,1.4941406 a 9.5520215,9.5520215 0 0 1 0,13.5058594 l -9.089843,9.089844 9.089843,9.089844 a 9.5520215,9.5520215 0 0 1 0,13.507812 l -7.910156,7.910156 a 9.5520215,9.5520215 0 0 1 -13.507812,0 L 24,45.507812 14.91016,54.597656 a 9.5520215,9.5520215 0 0 1 -13.50782,0 L 3.0493389e-8,53.195312 V 26.671875 L 2.58203,24.089844 3.0493389e-8,21.507812 V 0 H 21.33008 L 24,2.6699219 26.66992,0 Z"
       style="fill:#ffffff;fill-opacity:0.87132353;stroke:none"
       inkscape:connector-curvature="0" />
    <path
       id="rect10418"
       d="M 39.843608,0.33487 23.999998,16.178481 8.156387,0.33487 0.24563003,8.2456267 16.089241,24.089238 0.24563003,39.932849 8.156387,47.843606 23.999998,31.999995 39.843608,47.843606 47.754368,39.932849 31.910758,24.089238 47.754368,8.2456267 Z"
       style="fill:url(#radialGradient10439);fill-opacity:1;stroke:none"
       inkscape:connector-curvature="0" />
  </g>
</svg>
