<svg height="128" width="128" xmlns="http://www.w3.org/2000/svg" xmlns:xlink="http://www.w3.org/1999/xlink"><linearGradient id="a"><stop offset="0" stop-color="#cbcbcd"/><stop offset=".5" stop-color="#e0e0e2"/><stop offset="1" stop-color="#fff"/></linearGradient><filter id="b"><feGaussianBlur stdDeviation="2.4"/></filter><linearGradient id="c" gradientTransform="matrix(.1133598 0 0 .1691546 80.271448 159.92147)" gradientUnits="userSpaceOnUse" x1="399.77466" x2="399.77466" xlink:href="#a" y1="681.00012" y2="549.33234"/><linearGradient id="d" gradientUnits="userSpaceOnUse" x1="143.628653" x2="143.628653" xlink:href="#a" y1="268.876101" y2="252.876101"/><linearGradient id="e" gradientTransform="matrix(0 1 -1 0 -39.9985 140.0029)" gradientUnits="userSpaceOnUse" x1="-84.002403" x2="-23.516129" y1="-383.9971" y2="-383.9975"><stop offset="0" stop-color="#fff"/><stop offset="1" stop-color="#fff" stop-opacity="0"/></linearGradient><linearGradient id="f"><stop offset="0" stop-color="#081e3e"/><stop offset="1" stop-color="#387de4"/></linearGradient><linearGradient id="g"><stop offset="0" stop-color="#182c48"/><stop offset="1" stop-opacity="0"/></linearGradient><linearGradient id="h"><stop offset="0" stop-color="#9fc1f2"/><stop offset=".5" stop-color="#587eb5"/><stop offset="1" stop-color="#0c2a58"/></linearGradient><linearGradient id="i" gradientUnits="userSpaceOnUse" x1="79.648438" x2="178.8716" xlink:href="#f" y1="296.92371" y2="291.26685"/><radialGradient id="j" cx="118.26881" cy="306.39355" gradientTransform="matrix(1.6430907 -.17435459 .08606923 .81110301 -102.42863 74.526704)" gradientUnits="userSpaceOnUse" r="30.140163" xlink:href="#h"/><radialGradient id="k" cx="114.26218" cy="316.46378" gradientTransform="matrix(1 0 0 .70550223 0 87.44338)" gradientUnits="userSpaceOnUse" r="36.121101" xlink:href="#g"/><linearGradient id="l" gradientTransform="matrix(-1 0 0 1 287.25684 31.96875)" gradientUnits="userSpaceOnUse" x1="79.648438" x2="178.8716" xlink:href="#f" y1="296.92371" y2="291.26685"/><radialGradient id="m" cx="120.51218" cy="303.70691" gradientTransform="matrix(-1 0 0 .70550223 287.25684 119.41213)" gradientUnits="userSpaceOnUse" r="36.121101" xlink:href="#g"/><radialGradient id="n" cx="118.26881" cy="306.39355" gradientTransform="matrix(-1.6430907 -.17435459 -.08606923 .81110301 389.68547 106.49545)" gradientUnits="userSpaceOnUse" r="30.140163" xlink:href="#h"/><radialGradient id="o" cx="135.26218" cy="279.6106" gradientTransform="matrix(1 0 0 .70550223 0 87.44338)" gradientUnits="userSpaceOnUse" r="36.121101" xlink:href="#g"/><linearGradient id="p" gradientUnits="userSpaceOnUse" x1="41.5" x2="44.78125" xlink:href="#e" y1="27.146645" y2="64.146645"/><linearGradient id="q" gradientTransform="translate(79.62865 236.8761)" gradientUnits="userSpaceOnUse" x1="104.02473" x2="104.7972" xlink:href="#e" y1="59.802879" y2="97.279541"/><radialGradient id="r" cx="141.26218" cy="287.05209" gradientTransform="matrix(-1 0 0 .70550223 287.25684 119.41213)" gradientUnits="userSpaceOnUse" r="36.121101" xlink:href="#g"/><g transform="translate(-79.62865 -236.8761)"><path d="m91.480617 226.44753h104.296063c1.02599 0 7.85197 7.40364 7.85197 8.61484v113.4846c0 1.21119-.82598 2.18627-1.85197 2.18627h-116.296063c-1.025991 0-1.85197-.97508-1.85197-2.18627v-113.4846c0-1.2112 6.825979-8.61484 7.85197-8.61484z" filter="url(#b)" opacity=".5" transform="matrix(1 0 0 .9333333 .000003 31.525086)"/><path d="m127.09452-1.378991v-2.744803z" fill="#fff" fill-opacity=".756881"/><path d="m-3.5199651 6.004538v-2.744801z" fill="#fff" fill-opacity=".756881"/><path d="m-157.72449-62.387047v-2.744801z" fill="#fff" fill-opacity=".756881"/><path d="m-275.09267-147.47029v-2.74481z" fill="#fff" fill-opacity=".756881"/><path d="m-32.904785-82.88925v-2.7448z" fill="#fff" fill-opacity=".756881"/><path d="m-123.87519-10.315129v-1.499471z" fill="#fff" fill-opacity=".756881"/><path d="m-370.93212-164.84903v-2.74481z" fill="#fff" fill-opacity=".756881"/><path d="m134.39748 159.99333v-2.7448z" fill="#fff" fill-opacity=".756881"/><path d="m-19.807041 91.601739v-2.744814z" fill="#fff" fill-opacity=".756881"/><path d="m-137.17523 6.518495v-2.744815z" fill="#fff" fill-opacity=".756881"/><path d="m105.01266 71.099525v-2.7448z" fill="#fff" fill-opacity=".756881"/><path d="m14.042254 143.67365v-1.49947z" fill="#fff" fill-opacity=".756881"/><path d="m-233.01467-10.860247v-2.744803z" fill="#fff" fill-opacity=".756881"/><path d="m85.781427 108.92191v-2.7448z" fill="#fff" fill-opacity=".756881"/><path d="m-68.423094 40.530324v-2.7448z" fill="#fff" fill-opacity=".756881"/><path d="m-185.79129-44.552919v-2.744805z" fill="#fff" fill-opacity=".756881"/><path d="m56.396609 20.028124v-2.744801z" fill="#fff" fill-opacity=".756881"/><path d="m-34.573799 92.60224v-1.499472z" fill="#fff" fill-opacity=".756881"/><path d="m-281.63073-61.931657v-2.744803z" fill="#fff" fill-opacity=".756881"/><path d="m-294.55324 230.46206v-2.74482z" fill="#fff" fill-opacity=".756881"/><path d="m-448.75778 162.07046v-2.7448z" fill="#fff" fill-opacity=".756881"/><path d="m-566.12597 76.987211v-2.7448z" fill="#fff" fill-opacity=".756881"/><path d="m-323.93807 141.56825v-2.7448z" fill="#fff" fill-opacity=".756881"/><path d="m-414.90848 214.14239v-1.49949z" fill="#fff" fill-opacity=".756881"/><path d="m-661.96541 59.608482v-2.744815z" fill="#fff" fill-opacity=".756881"/><path d="m-46.668198 403.70423v-2.7448z" fill="#fff" fill-opacity=".756881"/><path d="m-200.87271 335.31263v-2.7448z" fill="#fff" fill-opacity=".756881"/><path d="m-318.2409 250.22939v-2.7448z" fill="#fff" fill-opacity=".756881"/><path d="m-167.02342 387.38456v-1.49949z" fill="#fff" fill-opacity=".756881"/><path d="m-414.08035 232.85066v-2.74482z" fill="#fff" fill-opacity=".756881"/><path d="m-145.52043 174.31147v-2.74481z" fill="#fff" fill-opacity=".756881"/><path d="m-299.72496 105.91987v-2.7448z" fill="#fff" fill-opacity=".756881"/><path d="m-417.09315 20.836638v-2.744814z" fill="#fff" fill-opacity=".756881"/><path d="m-174.90526 85.417668v-2.7448z" fill="#fff" fill-opacity=".756881"/><path d="m-265.87566 157.9918v-1.49949z" fill="#fff" fill-opacity=".756881"/><path d="m-512.93259 3.457895v-2.7448z" fill="#fff" fill-opacity=".756881"/><rect fill="url(#d)" height="48" rx="6.45639" ry="8.000001" width="112" x="87.628647" y="244.8761"/><path d="m87.62865 284.8761h112v64h-112z" fill="url(#c)"/><g fill="#fff"><path d="m-143.54882 173.40321v-2.74481z" fill-opacity=".756881"/><path d="m-297.75334 105.01161v-2.7448z" fill-opacity=".756881"/><path d="m-415.12153 19.928366v-2.7448z" fill-opacity=".756881"/><path d="m-172.93364 84.509411v-2.7448z" fill-opacity=".756881"/><path d="m-263.90404 157.08354v-1.49948z" fill-opacity=".756881"/><path d="m-510.96098 2.549632v-2.744803z" fill-opacity=".756881"/><path d="m150.52834 121.12275v-2.7448z" fill-opacity=".756881"/><path d="m19.913855 128.5063v-2.74482z" fill-opacity=".756881"/><path d="m-134.29067 60.114696v-2.7448z" fill-opacity=".756881"/><path d="m-251.65886-24.968537v-2.744813z" fill-opacity=".756881"/><path d="m-9.470964 39.612495v-2.7448z" fill-opacity=".756881"/><path d="m-100.44137 112.18663v-1.49948z" fill-opacity=".756881"/><path d="m-347.4983-42.347284v-2.744803z" fill-opacity=".756881"/><path d="m3.6267808 214.10347v-2.74478z" fill-opacity=".756881"/><path d="m-113.74141 129.02024v-2.7448z" fill-opacity=".756881"/><path d="m128.44648 193.60127v-2.74479z" fill-opacity=".756881"/><path d="m-209.58086 111.6415v-2.7448z" fill-opacity=".756881"/><path d="m-206.82354-122.97944v-3.72627z" fill-opacity=".756881"/><path d="m-384.14266-112.95572v-3.72628z" fill-opacity=".756881"/><path d="m-593.48705-205.80252v-3.72628z" fill-opacity=".756881"/><path d="m-752.82333-321.3095v-3.7263z" fill-opacity=".756881"/><path d="m-424.03479-233.63583v-3.72628z" fill-opacity=".756881"/><path d="m-547.53406-135.11092v-2.03565z" fill-opacity=".756881"/><path d="m-882.93269-344.90247v-3.72629z" fill-opacity=".756881"/><path d="m-196.9092 96.095797v-3.726272z" fill-opacity=".756881"/><path d="m-406.2536 3.24899v-3.726278z" fill-opacity=".756881"/><path d="m-565.58987-112.258v-3.72628z" fill-opacity=".756881"/><path d="m-236.80134-24.584316v-3.726279z" fill-opacity=".756881"/><path d="m-360.3006 73.940596v-2.035643z" fill-opacity=".756881"/><path d="m-695.69923-135.85096v-3.72628z" fill-opacity=".756881"/><path d="m-262.9092 26.762467v-3.726286z" fill-opacity=".756881"/><path d="m-472.25361-66.084343v-3.726278z" fill-opacity=".756881"/><path d="m-631.58987-181.59134v-3.72628z" fill-opacity=".756881"/><path d="m-302.80133-93.91765v-3.72628z" fill-opacity=".756881"/><path d="m-426.3006 4.607256v-2.035647z" fill-opacity=".756881"/><path d="m-761.69923-205.1843v-3.72628z" fill-opacity=".756881"/><path d="m-779.24254 191.76247v-3.72629z" fill-opacity=".756881"/><path d="m-988.58693 98.91567v-3.726288z" fill-opacity=".756881"/><path d="m-1147.9232-16.591337v-3.726279z" fill-opacity=".756881"/><path d="m-819.13467 71.082368v-3.726286z" fill-opacity=".756881"/><path d="m-942.63393 169.60727v-2.03566z" fill-opacity=".756881"/><path d="m-1278.0326-40.184296v-3.72628z" fill-opacity=".756881"/><path d="m-442.71968 426.95193v-3.72627z" fill-opacity=".756881"/><path d="m-652.06407 334.10512v-3.72626z" fill-opacity=".756881"/><path d="m-811.40034 218.59813v-3.72627z" fill-opacity=".756881"/><path d="m-482.61181 306.27183v-3.72629z" fill-opacity=".756881"/><path d="m-606.11107 404.79673v-2.03565z" fill-opacity=".756881"/><path d="m-941.5097 195.00517v-3.72627z" fill-opacity=".756881"/><path d="m-576.91912 115.53377v-3.72629z" fill-opacity=".756881"/><path d="m-786.26353 22.686967v-3.726286z" fill-opacity=".756881"/><path d="m-945.59979-92.82003v-3.72628z" fill-opacity=".756881"/><path d="m-616.81125-5.146348v-3.726279z" fill-opacity=".756881"/><path d="m-740.31053 93.378568v-2.035657z" fill-opacity=".756881"/><path d="m-1075.7091-116.41299v-3.72628z" fill-opacity=".756881"/><path d="m-574.24251 114.30074v-3.72629z" fill-opacity=".756881"/><path d="m-783.58691 21.453924v-3.726279z" fill-opacity=".756881"/><path d="m-942.92317-94.05307v-3.72628z" fill-opacity=".756881"/><path d="m-614.13465-6.379383v-3.726278z" fill-opacity=".756881"/><path d="m-737.63391 92.14554v-2.035658z" fill-opacity=".756881"/><path d="m-1073.0325-117.64603v-3.72628z" fill-opacity=".756881"/><path d="m-175.01034 43.326038v-12.164228 8.437943z" fill-opacity=".756881"/><path d="m-352.32946 53.349753v-3.726286z" fill-opacity=".756881"/><path d="m-561.67387-39.497056v-3.726279z" fill-opacity=".756881"/><path d="m-721.01013-155.00404v-3.7263z" fill-opacity=".756881"/><path d="m-392.22159-67.330363v-3.72628z" fill-opacity=".756881"/><path d="m-515.72085 31.194552v-2.035657z" fill-opacity=".756881"/><path d="m-851.11949-178.59702v-3.72628z" fill-opacity=".756881"/><path d="m-165.09601 262.40127v-3.72628z" fill-opacity=".756881"/><path d="m-374.4404 169.55446v-3.72628z" fill-opacity=".756881"/><path d="m-533.77668 54.047467v-3.726271z" fill-opacity=".756881"/><path d="m-204.98814 141.72115v-3.72627z" fill-opacity=".756881"/><path d="m-328.4874 240.24607v-2.03566z" fill-opacity=".756881"/><path d="m-663.88602 30.45451v-3.726286z" fill-opacity=".756881"/><path d="m87.628653 268.8761h111.999997v88h-111.999997z"/></g><path d="m119.82982 271.44641c-3.68187.13331-4.5859 2.4319-6.03906 4.57227-1.55005 2.28307-2.14255 4.70086-2.14258 7.22851v1.69532h-23.812499c-1.71118 0-3.095944.5094-4.207031 1.20117v21.56054c1.11111.69176 2.495996 1.19922 4.207031 1.19922h23.818359v1.69141.004c.001 3.37154.98512 6.68807 3.99023 9.31641 1.50256 1.31416 1.71554 2.4216 4.26758 2.48828 2.55204.0667 5.10561-1.03715 6.76563-2.49024.0137-.0123.0274-.0247.041-.0371l19.18945-15.25781.002-.002c.57604-.50492 1.20387-1.03036 2.01563-2.08789.81254-1.05854 1.9672-3.07162 1.96484-5.625-.002-2.55339-1.16009-4.56112-1.97266-5.61719-.8118-1.05507-1.43632-1.5783-2.01172-2.08203l-19.19536-15.24409c-.0136-.0124-.0273-.0248-.041-.0371-1.51188-1.32214-3.68432-2.36863-6.0918-2.4746h-.002c-.25217-.0111-.50063-.0109-.74609-.002z" fill="url(#i)"/><ellipse cx="-248.22359" cy="269.24872" fill="none" rx="37.090855" ry="37.090832" stroke-width="1.030301" transform="matrix(-.96592587 -.25881889 -.25881914 .9659258 0 0)"/><path d="m153.83131 274.49507v-2.7448z" fill="#fff" fill-opacity=".756881"/><path d="m119.82982 271.44641c-3.68187.13331-4.5859 2.4319-6.03906 4.57227-1.55005 2.28307-2.14255 4.70086-2.14258 7.22851v1.69532h-23.812499c-1.71118 0-3.095944.5094-4.207031 1.20117v21.56054c1.11111.69176 2.495996 1.19922 4.207031 1.19922h23.818359v1.69141.004c.001 3.37154.98512 6.68807 3.99023 9.31641 1.50256 1.31416 1.71554 2.4216 4.26758 2.48828 2.55204.0667 5.10561-1.03715 6.76563-2.49024.0137-.0123.0274-.0247.041-.0371l19.18945-15.25781.002-.002c.57604-.50492 1.20387-1.03036 2.01563-2.08789.81254-1.05854 1.9672-3.07162 1.96484-5.625-.002-2.55339-1.16009-4.56112-1.97266-5.61719-.8118-1.05507-1.43632-1.5783-2.01172-2.08203l-19.19536-15.24409c-.0136-.0124-.0273-.0248-.041-.0371-1.51188-1.32214-3.68432-2.36863-6.0918-2.4746h-.002c-.25217-.0111-.50063-.0109-.74609-.002z" fill="url(#k)"/><path d="m119.82982 271.44641c-3.68187.13331-4.5859 2.4319-6.03906 4.57227-1.55005 2.28307-2.14255 4.70086-2.14258 7.22851v1.69532h-23.812499c-1.71118 0-3.095944.5094-4.207031 1.20117v21.56054c1.11111.69176 2.495996 1.19922 4.207031 1.19922h23.818359v1.69141.004c.001 3.37154.98512 6.68807 3.99023 9.31641 1.50256 1.31416 1.71554 2.4216 4.26758 2.48828 2.55204.0667 5.10561-1.03715 6.76563-2.49024.0137-.0123.0274-.0247.041-.0371l19.18945-15.25781.002-.002c.57604-.50492 1.20387-1.03036 2.01563-2.08789.81254-1.05854 1.9672-3.07162 1.96484-5.625-.002-2.55339-1.16009-4.56112-1.97266-5.61719-.8118-1.05507-1.43632-1.5783-2.01172-2.08203l-19.19536-15.24409c-.0136-.0124-.0273-.0248-.041-.0371-1.51188-1.32214-3.68432-2.36863-6.0918-2.4746h-.002c-.25217-.0111-.50063-.0109-.74609-.002z" fill="url(#o)"/><path d="m129.42553 306.46382v-2.7448z" fill="#fff" fill-opacity=".756881"/><path d="m167.42702 303.41516c3.68186.13331 4.5859 2.4319 6.03906 4.57227 1.55005 2.28307 2.14255 4.70086 2.14258 7.22851v1.69532h23.8125c1.71118 0 3.09594.5094 4.20703 1.20117v21.56054c-1.11111.69176-2.496 1.19922-4.20703 1.19922h-23.81836v1.69141.004c-.001 3.37154-.98513 6.68807-3.99024 9.31641-1.50256 1.31416-1.71553 2.4216-4.26757 2.48828-2.55204.0667-5.10561-1.03715-6.76563-2.49024-.0137-.0123-.0274-.0247-.041-.0371l-19.18945-15.25781-.002-.002c-.57604-.50492-1.20387-1.03036-2.01563-2.08789-.81254-1.05854-1.9672-3.07162-1.96484-5.625.002-2.55339 1.16009-4.56112 1.97266-5.61719.8118-1.05507 1.43631-1.5783 2.01171-2.08203l19.19537-15.24409c.0136-.0124.0273-.0248.041-.0371 1.51188-1.32214 3.68432-2.36863 6.0918-2.4746h.002c.25217-.0111.50063-.0109.74609-.002z" fill="url(#l)"/><path d="m167.42702 303.41516c3.68186.13331 4.5859 2.4319 6.03906 4.57227 1.55005 2.28307 2.14255 4.70086 2.14258 7.22851v1.69532h23.8125c1.71118 0 3.09594.5094 4.20703 1.20117v21.56054c-1.11111.69176-2.496 1.19922-4.20703 1.19922h-23.81836v1.69141.004c-.001 3.37154-.98513 6.68807-3.99024 9.31641-1.50256 1.31416-1.71553 2.4216-4.26757 2.48828-2.55204.0667-5.10561-1.03715-6.76563-2.49024-.0137-.0123-.0274-.0247-.041-.0371l-19.18945-15.25781-.002-.002c-.57604-.50492-1.20387-1.03036-2.01563-2.08789-.81254-1.05854-1.9672-3.07162-1.96484-5.625.002-2.55339 1.16009-4.56112 1.97266-5.61719.8118-1.05507 1.43631-1.5783 2.01171-2.08203l19.19537-15.24409c.0136-.0124.0273-.0248.041-.0371 1.51188-1.32214 3.68432-2.36863 6.0918-2.4746h.002c.25217-.0111.50063-.0109.74609-.002z" fill="url(#m)"/><path d="m167.42702 303.41516c3.68186.13331 4.5859 2.4319 6.03906 4.57227 1.55005 2.28307 2.14255 4.70086 2.14258 7.22851v1.69532h23.8125c1.71118 0 3.09594.5094 4.20703 1.20117v21.56054c-1.11111.69176-2.496 1.19922-4.20703 1.19922h-23.81836v1.69141.004c-.001 3.37154-.98513 6.68807-3.99024 9.31641-1.50256 1.31416-1.71553 2.4216-4.26757 2.48828-2.55204.0667-5.10561-1.03715-6.76563-2.49024-.0137-.0123-.0274-.0247-.041-.0371l-19.18945-15.25781-.002-.002c-.57604-.50492-1.20387-1.03036-2.01563-2.08789-.81254-1.05854-1.9672-3.07162-1.96484-5.625.002-2.55339 1.16009-4.56112 1.97266-5.61719.8118-1.05507 1.43631-1.5783 2.01171-2.08203l19.19537-15.24409c.0136-.0124.0273-.0248.041-.0371 1.51188-1.32214 3.68432-2.36863 6.0918-2.4746h.002c.25217-.0111.50063-.0109.74609-.002z" fill="url(#r)"/><path d="m167.03058 311.38978c-.4178.0184-.82737.19312-1.18945.50976l-17.23047 15.27539c-1.68257 1.47313-1.68422 1.93554-.002 3.41016l17.22656 15.29102c1.68273 1.47297 3.786-.36638 3.78711-3.31251v-2.20117l-8.41602-7.4707h38.21485c.11434 0 .20703-.16753.20703-.375v-7.25c0-.20747-.0927-.375-.20703-.375h-38.23438l8.44141-7.48438v-2.1914c-.00003-2.15773-1.17521-3.88854-2.59766-3.82617z" fill="url(#n)"/><path d="m167.03099 311.38977c-.4178.0184-.82737.19313-1.18945.50977l-17.23047 15.27539c-1.68257 1.47313-1.68417 1.93553-.002 3.41015l7.36719 6.53907c3.10585-.13675 6.1886-.3651 9.22851-.6836l-3.998-3.54883h23.90821c6.99253-1.82363 9.25205-4.16855 14.51367-6.93554v-.68946c0-.20747-.0927-.375-.20703-.375h-38.23438l8.44141-7.48437v-2.19141c-.00003-2.15773-1.17521-3.88854-2.59766-3.82617z" fill="url(#q)"/><path d="m120.22626 279.42103c.4178.0184.82737.19312 1.18945.50976l17.23047 15.27539c1.68257 1.47313 1.68422 1.93554.002 3.41016l-17.22656 15.29102c-1.68273 1.47297-3.786-.36638-3.78711-3.31251v-2.20117l8.41602-7.4707h-38.21485c-.11434 0-.20703-.16753-.20703-.375v-7.25c0-.20747.0927-.375.20703-.375h38.23438l-8.44141-7.48438v-2.1914c.00003-2.15773 1.17521-3.88854 2.59766-3.82617z" fill="url(#j)"/><path d="m40.597656 42.544922c-1.42245-.06237-2.597626 1.668442-2.597656 3.826172v2.191406l8.441406 7.484375h-38.2343748c-.11433 0-.2070312.16753-.2070312.375v6.029297c4.988594.526934 6.167463.796009 11.375.798828 14.577828-.0077 28.524605-2.098406 38.65625-5.794922l-16.244141-14.40039c-.36208-.316641-.771653-.491366-1.189453-.509766z" fill="url(#p)" transform="translate(79.62865 236.8761)"/></g></svg>