<svg height="128" width="128" xmlns="http://www.w3.org/2000/svg" xmlns:xlink="http://www.w3.org/1999/xlink"><filter id="a"><feGaussianBlur stdDeviation="2.4"/></filter><linearGradient id="b" gradientTransform="matrix(.1133598 0 0 .1691546 80.271445 159.92147)" gradientUnits="userSpaceOnUse" x1="399.77466" x2="399.77466" y1="681.00012" y2="549.33234"><stop offset="0" stop-color="#cbcbcd"/><stop offset=".5" stop-color="#e0e0e2"/><stop offset="1" stop-color="#fff"/></linearGradient><linearGradient id="c" gradientUnits="userSpaceOnUse" x1="-228.6404" x2="-311.9765" y1="149.286165" y2="65.950045"><stop offset="0" stop-color="#bf0303"/><stop offset="1" stop-color="#fe9494"/></linearGradient><g transform="translate(-79.62865 -236.8761)"><path d="m85.480617 232.8761h116.296063c1.02599 0 1.85197.97507 1.85197 2.18627v107.05603c0 1.21119-.82598 2.18627-1.85197 2.18627h-116.296063c-1.025991 0-1.85197-.97508-1.85197-2.18627v-107.05603c0-1.2112.825979-2.18627 1.85197-2.18627z" filter="url(#a)" opacity=".5" transform="matrix(1 0 0 .9333333 0 31.525085)"/><path d="m127.09452-1.378991v-2.744803z" fill="#fff" fill-opacity=".756881"/><path d="m-3.5199651 6.004538v-2.744801z" fill="#fff" fill-opacity=".756881"/><path d="m-157.72449-62.387047v-2.744801z" fill="#fff" fill-opacity=".756881"/><path d="m-275.09267-147.47029v-2.74481z" fill="#fff" fill-opacity=".756881"/><path d="m-32.904785-82.88925v-2.7448z" fill="#fff" fill-opacity=".756881"/><path d="m-123.87519-10.315129v-1.499471z" fill="#fff" fill-opacity=".756881"/><path d="m-370.93212-164.84903v-2.74481z" fill="#fff" fill-opacity=".756881"/><path d="m134.39748 159.99333v-2.7448z" fill="#fff" fill-opacity=".756881"/><path d="m-19.807041 91.601739v-2.744814z" fill="#fff" fill-opacity=".756881"/><path d="m-137.17523 6.518495v-2.744815z" fill="#fff" fill-opacity=".756881"/><path d="m105.01266 71.099525v-2.7448z" fill="#fff" fill-opacity=".756881"/><path d="m14.042254 143.67365v-1.49947z" fill="#fff" fill-opacity=".756881"/><path d="m-233.01467-10.860247v-2.744803z" fill="#fff" fill-opacity=".756881"/><path d="m85.781427 108.92191v-2.7448z" fill="#fff" fill-opacity=".756881"/><path d="m-68.423094 40.530324v-2.7448z" fill="#fff" fill-opacity=".756881"/><path d="m-185.79129-44.552919v-2.744805z" fill="#fff" fill-opacity=".756881"/><path d="m56.396609 20.028124v-2.744801z" fill="#fff" fill-opacity=".756881"/><path d="m-34.573799 92.60224v-1.499472z" fill="#fff" fill-opacity=".756881"/><path d="m-281.63073-61.931657v-2.744803z" fill="#fff" fill-opacity=".756881"/><path d="m-294.55324 230.46206v-2.74482z" fill="#fff" fill-opacity=".756881"/><path d="m-448.75778 162.07046v-2.7448z" fill="#fff" fill-opacity=".756881"/><path d="m-566.12597 76.987211v-2.7448z" fill="#fff" fill-opacity=".756881"/><path d="m-323.93807 141.56825v-2.7448z" fill="#fff" fill-opacity=".756881"/><path d="m-414.90848 214.14239v-1.49949z" fill="#fff" fill-opacity=".756881"/><path d="m-661.96541 59.608482v-2.744815z" fill="#fff" fill-opacity=".756881"/><path d="m-46.668198 403.70423v-2.7448z" fill="#fff" fill-opacity=".756881"/><path d="m-200.87271 335.31263v-2.7448z" fill="#fff" fill-opacity=".756881"/><path d="m-318.2409 250.22939v-2.7448z" fill="#fff" fill-opacity=".756881"/><path d="m-76.053015 314.81043v-2.7448z" fill="#fff" fill-opacity=".756881"/><path d="m-167.02342 387.38456v-1.49949z" fill="#fff" fill-opacity=".756881"/><path d="m-414.08035 232.85066v-2.74482z" fill="#fff" fill-opacity=".756881"/><path d="m-145.52043 174.31147v-2.74481z" fill="#fff" fill-opacity=".756881"/><path d="m-299.72496 105.91987v-2.7448z" fill="#fff" fill-opacity=".756881"/><path d="m-417.09315 20.836638v-2.744814z" fill="#fff" fill-opacity=".756881"/><path d="m-174.90526 85.417668v-2.7448z" fill="#fff" fill-opacity=".756881"/><path d="m-265.87566 157.9918v-1.49949z" fill="#fff" fill-opacity=".756881"/><path d="m-512.93259 3.457895v-2.7448z" fill="#fff" fill-opacity=".756881"/><path d="m87.628647 252.8761h112.000003v96h-112.000003z" fill="url(#b)"/><g fill="#fff"><path d="m-143.54882 173.40321v-2.74481z" fill-opacity=".756881"/><path d="m-297.75334 105.01161v-2.7448z" fill-opacity=".756881"/><path d="m-415.12153 19.928366v-2.7448z" fill-opacity=".756881"/><path d="m-172.93364 84.509411v-2.7448z" fill-opacity=".756881"/><path d="m-263.90404 157.08354v-1.49948z" fill-opacity=".756881"/><path d="m-510.96098 2.549632v-2.744803z" fill-opacity=".756881"/><path d="m150.52834 121.12275v-2.7448z" fill-opacity=".756881"/><path d="m19.913855 128.5063v-2.74482z" fill-opacity=".756881"/><path d="m-134.29067 60.114696v-2.7448z" fill-opacity=".756881"/><path d="m-251.65886-24.968537v-2.744813z" fill-opacity=".756881"/><path d="m-9.470964 39.612495v-2.7448z" fill-opacity=".756881"/><path d="m-100.44137 112.18663v-1.49948z" fill-opacity=".756881"/><path d="m-347.4983-42.347284v-2.744803z" fill-opacity=".756881"/><path d="m157.83131 274.49507v-2.7448z" fill-opacity=".756881"/><path d="m3.6267808 214.10347v-2.74478z" fill-opacity=".756881"/><path d="m-113.74141 129.02024v-2.7448z" fill-opacity=".756881"/><path d="m128.44648 193.60127v-2.74479z" fill-opacity=".756881"/><path d="m37.476076 266.1754v-1.49947z" fill-opacity=".756881"/><path d="m-209.58086 111.6415v-2.7448z" fill-opacity=".756881"/><path d="m-206.82354-122.97944v-3.72627z" fill-opacity=".756881"/><path d="m-384.14266-112.95572v-3.72628z" fill-opacity=".756881"/><path d="m-593.48705-205.80252v-3.72628z" fill-opacity=".756881"/><path d="m-752.82333-321.3095v-3.7263z" fill-opacity=".756881"/><path d="m-424.03479-233.63583v-3.72628z" fill-opacity=".756881"/><path d="m-547.53406-135.11092v-2.03565z" fill-opacity=".756881"/><path d="m-882.93269-344.90247v-3.72629z" fill-opacity=".756881"/><path d="m-196.9092 96.095797v-3.726272z" fill-opacity=".756881"/><path d="m-406.2536 3.24899v-3.726278z" fill-opacity=".756881"/><path d="m-565.58987-112.258v-3.72628z" fill-opacity=".756881"/><path d="m-236.80134-24.584316v-3.726279z" fill-opacity=".756881"/><path d="m-360.3006 73.940596v-2.035643z" fill-opacity=".756881"/><path d="m-695.69923-135.85096v-3.72628z" fill-opacity=".756881"/><path d="m-262.9092 26.762467v-3.726286z" fill-opacity=".756881"/><path d="m-472.25361-66.084343v-3.726278z" fill-opacity=".756881"/><path d="m-631.58987-181.59134v-3.72628z" fill-opacity=".756881"/><path d="m-302.80133-93.91765v-3.72628z" fill-opacity=".756881"/><path d="m-426.3006 4.607256v-2.035647z" fill-opacity=".756881"/><path d="m-761.69923-205.1843v-3.72628z" fill-opacity=".756881"/><path d="m-779.24254 191.76247v-3.72629z" fill-opacity=".756881"/><path d="m-988.58693 98.91567v-3.726288z" fill-opacity=".756881"/><path d="m-1147.9232-16.591337v-3.726279z" fill-opacity=".756881"/><path d="m-819.13467 71.082368v-3.726286z" fill-opacity=".756881"/><path d="m-942.63393 169.60727v-2.03566z" fill-opacity=".756881"/><path d="m-1278.0326-40.184296v-3.72628z" fill-opacity=".756881"/><path d="m-442.71968 426.95193v-3.72627z" fill-opacity=".756881"/><path d="m-652.06407 334.10512v-3.72626z" fill-opacity=".756881"/><path d="m-811.40034 218.59813v-3.72627z" fill-opacity=".756881"/><path d="m-482.61181 306.27183v-3.72629z" fill-opacity=".756881"/><path d="m-606.11107 404.79673v-2.03565z" fill-opacity=".756881"/><path d="m-941.5097 195.00517v-3.72627z" fill-opacity=".756881"/><path d="m-576.91912 115.53377v-3.72629z" fill-opacity=".756881"/><path d="m-786.26353 22.686967v-3.726286z" fill-opacity=".756881"/><path d="m-945.59979-92.82003v-3.72628z" fill-opacity=".756881"/><path d="m-616.81125-5.146348v-3.726279z" fill-opacity=".756881"/><path d="m-740.31053 93.378568v-2.035657z" fill-opacity=".756881"/><path d="m-1075.7091-116.41299v-3.72628z" fill-opacity=".756881"/><path d="m-574.24251 114.30074v-3.72629z" fill-opacity=".756881"/><path d="m-783.58691 21.453924v-3.726279z" fill-opacity=".756881"/><path d="m-942.92317-94.05307v-3.72628z" fill-opacity=".756881"/><path d="m-614.13465-6.379383v-3.726278z" fill-opacity=".756881"/><path d="m-737.63391 92.14554v-2.035658z" fill-opacity=".756881"/><path d="m-1073.0325-117.64603v-3.72628z" fill-opacity=".756881"/><path d="m-175.01034 43.326038v-12.164228 8.437943z" fill-opacity=".756881"/><path d="m-352.32946 53.349753v-3.726286z" fill-opacity=".756881"/><path d="m-561.67387-39.497056v-3.726279z" fill-opacity=".756881"/><path d="m-721.01013-155.00404v-3.7263z" fill-opacity=".756881"/><path d="m-392.22159-67.330363v-3.72628z" fill-opacity=".756881"/><path d="m-515.72085 31.194552v-2.035657z" fill-opacity=".756881"/><path d="m-851.11949-178.59702v-3.72628z" fill-opacity=".756881"/><path d="m-165.09601 262.40127v-3.72628z" fill-opacity=".756881"/><path d="m-374.4404 169.55446v-3.72628z" fill-opacity=".756881"/><path d="m-533.77668 54.047467v-3.726271z" fill-opacity=".756881"/><path d="m-204.98814 141.72115v-3.72627z" fill-opacity=".756881"/><path d="m-328.4874 240.24607v-2.03566z" fill-opacity=".756881"/><path d="m-663.88602 30.45451v-3.726286z" fill-opacity=".756881"/><path d="m87.62865 276.8761h112v72h-112z"/></g><path d="m95.628647 300.8761h40.000004v8h-40.000004z" fill="#cacacc"/><path d="m95.628647 284.8761h40v8h-40z" fill="#cacacc"/><path d="m151.62865 284.8761h40v8h-40z" fill="#cacacc"/><path d="m151.62865 300.8761h40v8h-40z" fill="#cacacc"/><path d="m95.628647 316.8761h40.000004v8h-40.000004z" fill="#cacacc"/><path d="m151.62865 316.8761h40v8h-40z" fill="#cacacc"/><path d="m95.628647 332.8761h40.000004v8h-40.000004z" fill="#cacacc"/><path d="m151.62865 332.8761h40v8h-40z" fill="#cacacc"/><g transform="matrix(.5859318 0 0 .5859318 320.91488 196.70188)"><g fill-rule="evenodd"><path d="m-281.8265 191.44587-37.8876-37.88764 22.7143-22.71429 44.8732 45.28411-14.9013 14.90128z" fill="#fff" stroke="#000" stroke-opacity=".706587" stroke-width="3"/><path d="m-249.6122 174.89131-45.9455-45.94544 45.9455-45.945425 45.9454 45.945425z" style="stroke:#000;stroke-width:3;stroke-linecap:round;stroke-linejoin:round;stroke-opacity:.622755;fill:url(#c)"/><path d="m-265.2013 160.12404-15.5891-15.58909 46.7673-46.767245 15.589 15.589085z" fill="#fff" stroke="#000" stroke-opacity=".48503" stroke-width="3"/></g><path d="m-261.5422 144.27001-3.1391-3.10289 3.2253-3.188.3329.32919-2.4062 2.37844 1.0074.99585 2.0163-1.99297.3288.32498-2.0163 1.99296 1.1369 1.12375 2.5741-2.54422.3329.32915zm4.337-4.28665-3.1394-3.10287 1.7472-1.727c.5538-.54738 1.0442-.90059 1.4709-1.05963.4292-.16157.7704-.11726 1.0236.13291.4184.41371.3269 1.09147-.2753 2.03318l3.3965-.45143-1.0062.99457-2.9696.31049-.7644.75556 1.3278 1.31242-.8111.80181m-.8497-2.44339.2651-.26214c1.0296-1.01768 1.3245-1.74388.8848-2.17856-.3237-.32005-.9173-.0535-1.7805.79972l-.5148.50885zm7.6285-6.63033-2.3363-.36618.3667 2.3129zm2.0663.33086-1.4976-.23894-2.4453 2.41702.2339 1.4879-.7604.7517-.8501-5.3657.8113-.80183 5.3934.87478zm2.9255-2.7365c-.3875.38294-.9288.82706-1.624 1.33243l-.441-.43607c.814-.48034 1.4302-.9274 1.8488-1.34117.3224-.31868.5352-.6198.6383-.90342.1057-.28615.084-.50327-.066-.65147-.1231-.12158-.2928-.16076-.509-.11755-.2135.0407-.5463.17951-.9981.41651l-.5231.26946c-.6441.33478-1.1347.53599-1.4719.60369-.3358.0637-.5936.007-.7732-.17073-.2419-.23901-.2792-.59472-.1124-1.06712.1654-.47382.4977-.95745.9969-1.45088.4447-.43944.9542-.86346 1.5288-1.27209l.4073.40254c-.7386.47274-1.2573.85693-1.5563 1.15247-.2834.28012-.4764.55193-.5789.81548-.1025.26352-.092.45677.033.57977.1047.10345.2649.12818.4808.0742.2156-.054.5588-.20307 1.0294-.4473l.5407-.28283c.6533-.34109 1.1472-.54149 1.4821-.60123.3347-.0597.5981.005.7905.19552.2729.26979.3062.6702.1 1.20118-.2039.52847-.6111 1.09468-1.222 1.6986m3.096-3.21547-3.1392-3.10288 3.2253-3.18799.3329.32916-2.4062 2.37847 1.0073.99585 2.0164-1.99298.3288.32498-2.0162 1.99298 1.1369 1.12376 2.574-2.54423.3329.32914zm4.3368-4.28663-3.1392-3.10289 1.7472-1.72698c.5538-.54739 1.0439-.90057 1.4707-1.05963.4295-.16157.7705-.11726 1.0237.13293.4184.41369.3267 1.09145-.2753 2.03317l3.3965-.45143-1.0062.99457-2.9697.31047-.7644.75557 1.3279 1.31242-.8112.80181m-.8496-2.4434.2652-.26215c1.0294-1.01768 1.3245-1.74386.8846-2.17855-.3238-.32005-.9172-.0535-1.7805.79972l-.5148.50886z" fill="#9c0f0f" stroke="#9c0f0f" stroke-opacity=".652695"/><path d="m-236.5014 70.467545 41.451 41.656495-.017 8.20218-8.9473 8.80624-45.695-45.900475 13.2081-12.76444z" style="fill:#ddd;fill-rule:evenodd;stroke:#000;stroke-width:3;stroke-linejoin:round;stroke-opacity:.700599"/><path d="m-236.55281 72.958716-11.0947 10.478331 14.38202 14.382022 11.30016-10.889246z" fill-rule="evenodd" opacity=".177778"/><path d="m-207.9942 101.5173-11.0947 10.47833 15.2038 14.58748 7.219-6.9565-.1325-7.94252z" fill="#fff" fill-rule="evenodd" opacity=".655556"/></g></g></svg>