<?xml version="1.0" encoding="UTF-8" standalone="no"?>
<!-- Created with Inkscape (http://www.inkscape.org/) -->

<svg
   xmlns:dc="http://purl.org/dc/elements/1.1/"
   xmlns:cc="http://creativecommons.org/ns#"
   xmlns:rdf="http://www.w3.org/1999/02/22-rdf-syntax-ns#"
   xmlns:svg="http://www.w3.org/2000/svg"
   xmlns="http://www.w3.org/2000/svg"
   xmlns:xlink="http://www.w3.org/1999/xlink"
   xmlns:sodipodi="http://sodipodi.sourceforge.net/DTD/sodipodi-0.dtd"
   xmlns:inkscape="http://www.inkscape.org/namespaces/inkscape"
   width="128"
   height="128"
   id="svg1307"
   sodipodi:version="0.32"
   inkscape:version="0.92.3 (unknown)"
   version="1.0"
   sodipodi:docname="sc_editcurindex.svg"
   inkscape:export-filename="/home/rizmut/Dokumen/Rizmut/Github/libreoffice-style-karasa-jaga/build/images_karasa_jaga/cmd/sc_editcurindex.png"
   inkscape:export-xdpi="12"
   inkscape:export-ydpi="12">
  <defs
     id="defs1309">
    <linearGradient
       id="linearGradient5841">
      <stop
         style="stop-color:black;stop-opacity:0;"
         offset="0"
         id="stop5843" />
      <stop
         id="stop5849"
         offset="0.87912089"
         style="stop-color:black;stop-opacity:0;" />
      <stop
         style="stop-color:black;stop-opacity:1;"
         offset="1"
         id="stop5845" />
    </linearGradient>
    <linearGradient
       id="linearGradient3303">
      <stop
         style="stop-color:#ffffff;stop-opacity:0.68345326;"
         offset="0"
         id="stop3305" />
      <stop
         style="stop-color:#ffffff;stop-opacity:0;"
         offset="1"
         id="stop3307" />
    </linearGradient>
    <linearGradient
       id="linearGradient3273">
      <stop
         style="stop-color:#ffffff;stop-opacity:0.55035973;"
         offset="0"
         id="stop3275" />
      <stop
         style="stop-color:#ffffff;stop-opacity:0;"
         offset="1"
         id="stop3277" />
    </linearGradient>
    <linearGradient
       id="linearGradient3259">
      <stop
         id="stop3261"
         offset="0"
         style="stop-color:#ffffff;stop-opacity:0.55035973;" />
      <stop
         id="stop3263"
         offset="1"
         style="stop-color:#000000;stop-opacity:0;" />
    </linearGradient>
    <linearGradient
       id="linearGradient3225">
      <stop
         style="stop-color:#ffffff;stop-opacity:1;"
         offset="0"
         id="stop3227" />
      <stop
         style="stop-color:#aeaeae;stop-opacity:1;"
         offset="1"
         id="stop3229" />
    </linearGradient>
    <linearGradient
       id="linearGradient3207">
      <stop
         style="stop-color:#ffffff;stop-opacity:1;"
         offset="0"
         id="stop3209" />
      <stop
         style="stop-color:#252525;stop-opacity:0;"
         offset="1"
         id="stop3211" />
    </linearGradient>
    <linearGradient
       id="linearGradient7417">
      <stop
         id="stop7419"
         offset="0.0000000"
         style="stop-color:#ff5900;stop-opacity:1.0000000;" />
      <stop
         id="stop7421"
         offset="1.0000000"
         style="stop-color:#ffff00;stop-opacity:1.0000000;" />
    </linearGradient>
    <linearGradient
       id="linearGradient8197">
      <stop
         id="stop8199"
         offset="0.0000000"
         style="stop-color:#ffffff;stop-opacity:1.0000000;" />
      <stop
         id="stop8201"
         offset="1.0000000"
         style="stop-color:#ffffff;stop-opacity:0.0000000;" />
    </linearGradient>
    <filter
       id="e">
      <feGaussianBlur
         stdDeviation="1.0394514"
         id="feGaussianBlur2886" />
    </filter>
    <filter
       id="f">
      <feGaussianBlur
         stdDeviation=".50063244"
         id="feGaussianBlur2889" />
    </filter>
    <filter
       id="filter1978">
      <feGaussianBlur
         stdDeviation="1.0394514"
         id="feGaussianBlur1976" />
    </filter>
    <radialGradient
       id="d"
       cx="102"
       cy="112.3047"
       gradientUnits="userSpaceOnUse"
       r="139.5585"
       gradientTransform="translate(1.7364313e-8,-4.7375468e-6)">
      <stop
         offset="0"
         stop-color="#00537d"
         id="stop2867" />
      <stop
         offset=".0151"
         stop-color="#186389"
         id="stop2869" />
      <stop
         offset=".0558"
         stop-color="#558ca8"
         id="stop2871" />
      <stop
         offset=".0964"
         stop-color="#89afc3"
         id="stop2873" />
      <stop
         offset=".1357"
         stop-color="#b3ccd8"
         id="stop2875" />
      <stop
         offset=".1737"
         stop-color="#d4e2e9"
         id="stop2877" />
      <stop
         offset=".2099"
         stop-color="#ecf2f5"
         id="stop2879" />
      <stop
         offset=".2435"
         stop-color="#fafcfd"
         id="stop2881" />
      <stop
         offset=".2722"
         stop-color="#fff"
         id="stop2883" />
    </radialGradient>
    <radialGradient
       id="c"
       cx="102"
       cy="112.3047"
       gradientTransform="matrix(0.9787234,0,0,0.9818182,1.361705,1.1636313)"
       gradientUnits="userSpaceOnUse"
       r="139.55859">
      <stop
         offset="0"
         stop-color="#535557"
         id="stop2850" />
      <stop
         offset=".11366145"
         stop-color="#898a8c"
         id="stop2852" />
      <stop
         offset=".20296688"
         stop-color="#ececec"
         id="stop2854" />
      <stop
         offset=".2363"
         stop-color="#fafafa"
         id="stop2856" />
      <stop
         offset=".2722"
         stop-color="#fff"
         id="stop2858" />
      <stop
         offset=".5313"
         stop-color="#fafafa"
         id="stop2860" />
      <stop
         offset=".8449"
         stop-color="#ebecec"
         id="stop2862" />
      <stop
         offset="1"
         stop-color="#e1e2e3"
         id="stop2864" />
    </radialGradient>
    <filter
       id="i"
       height="1.247155"
       width="1.247155"
       x="-0.123577"
       y="-0.123577">
      <feGaussianBlur
         stdDeviation="1.7720846"
         id="feGaussianBlur2898" />
    </filter>
    <filter
       id="h">
      <feGaussianBlur
         stdDeviation=".90565481"
         id="feGaussianBlur2895" />
    </filter>
    <linearGradient
       id="a"
       gradientUnits="userSpaceOnUse"
       x1="85.219681"
       x2="61.336319"
       y1="93.219681"
       y2="69.336319">
      <stop
         offset="0"
         id="stop2826" />
      <stop
         offset="1"
         stop-color="#393b38"
         id="stop2828" />
    </linearGradient>
    <filter
       id="g">
      <feGaussianBlur
         stdDeviation=".4901192"
         id="feGaussianBlur2892" />
    </filter>
    <linearGradient
       id="b"
       gradientUnits="userSpaceOnUse"
       x1="96"
       x2="88.000198"
       y1="104"
       y2="96.000198">
      <stop
         offset="0"
         stop-color="#888a85"
         id="stop2831" />
      <stop
         offset=".0072"
         stop-color="#8c8e89"
         id="stop2833" />
      <stop
         offset=".0673"
         stop-color="#abaca9"
         id="stop2835" />
      <stop
         offset=".1347"
         stop-color="#c5c6c4"
         id="stop2837" />
      <stop
         offset=".2115"
         stop-color="#dbdbda"
         id="stop2839" />
      <stop
         offset=".3012"
         stop-color="#ebebeb"
         id="stop2841" />
      <stop
         offset=".4122"
         stop-color="#f7f7f6"
         id="stop2843" />
      <stop
         offset=".5679"
         stop-color="#fdfdfd"
         id="stop2845" />
      <stop
         offset="1"
         stop-color="#fff"
         id="stop2847" />
    </linearGradient>
    <linearGradient
       id="d-3"
       gradientTransform="matrix(1.3755238,0,0,1.8570645,-22.548199,-92.562977)"
       gradientUnits="userSpaceOnUse"
       x1="-7.734014"
       x2="110.05683"
       y1="105.19644"
       y2="81.818565">
      <stop
         offset="0"
         id="stop19" />
      <stop
         offset="1"
         stop-opacity="0"
         id="stop21" />
    </linearGradient>
    <filter
       id="e-6">
      <feGaussianBlur
         stdDeviation=".6715998"
         id="feGaussianBlur24" />
    </filter>
    <radialGradient
       id="f-7"
       cx="42.617531"
       cy="120.64188"
       gradientTransform="matrix(1.909059,1.8392116,-8.6222515,7.5766472,1009.8522,-881.36145)"
       gradientUnits="userSpaceOnUse"
       r="3.406888">
      <stop
         offset="0"
         stop-color="#b4942a"
         id="stop27" />
      <stop
         offset="1"
         stop-color="#e4dcc9"
         id="stop29" />
    </radialGradient>
    <linearGradient
       id="g-5"
       gradientTransform="matrix(0.9986497,0,0,0.9998891,0.14044,0.005323)"
       gradientUnits="userSpaceOnUse"
       x1="75.848022"
       x2="81.452583"
       y1="72.804123"
       y2="77.047241">
      <stop
         offset="0"
         stop-color="#252525"
         id="stop32" />
      <stop
         offset=".5"
         stop-color="#252525"
         id="stop34" />
      <stop
         offset=".75"
         stop-color="#252525"
         id="stop36" />
      <stop
         offset="1"
         id="stop38" />
    </linearGradient>
    <linearGradient
       id="h-3"
       gradientTransform="matrix(0.9986497,0,0,0.9998891,0.14044,0.005323)"
       gradientUnits="userSpaceOnUse"
       x1="76.708534"
       x2="80.579521"
       y1="83.325729"
       y2="87.154587">
      <stop
         offset="0"
         stop-color="#d4a100"
         stop-opacity=".976471"
         id="stop41" />
      <stop
         offset="1"
         stop-color="#ffc712"
         id="stop43" />
    </linearGradient>
    <linearGradient
       id="i-5"
       gradientTransform="matrix(1.2875994,1.1737414,-0.5465891,0.6213041,81.686465,27.89447)"
       gradientUnits="userSpaceOnUse"
       x1="11.326384"
       x2="14.493531"
       y1="57.383999"
       y2="57.383999">
      <stop
         offset="0"
         stop-color="#9a7600"
         id="stop46" />
      <stop
         offset=".09292036"
         stop-color="#e3ad00"
         id="stop48" />
      <stop
         offset=".5043171"
         stop-color="#ffcd2c"
         id="stop50" />
      <stop
         offset=".91571385"
         stop-color="#e3ad00"
         id="stop52" />
      <stop
         offset="1"
         stop-color="#b98d00"
         id="stop54" />
    </linearGradient>
    <linearGradient
       id="j"
       gradientTransform="matrix(0.9992082,0,0,0.9993395,0.108362,-0.090375)"
       gradientUnits="userSpaceOnUse"
       x1="114.92793"
       x2="100.65602"
       y1="-22.560064"
       y2="-22.052734">
      <stop
         offset="0"
         stop-color="#980000"
         id="stop57" />
      <stop
         offset="1"
         stop-color="#db5c5c"
         id="stop59" />
    </linearGradient>
    <linearGradient
       id="k"
       gradientUnits="userSpaceOnUse"
       x1="-12.817558"
       x2="82.172836"
       y1="7.4622769"
       y2="7.4622769">
      <stop
         offset="0"
         stop-color="#fff"
         stop-opacity=".683453"
         id="stop62" />
      <stop
         offset="1"
         stop-color="#fff"
         stop-opacity="0"
         id="stop64" />
    </linearGradient>
    <filter
       id="l">
      <feGaussianBlur
         stdDeviation=".31468463"
         id="feGaussianBlur67" />
    </filter>
    <radialGradient
       id="m"
       cx="34.677639"
       cy="7.4622769"
       gradientTransform="matrix(-1.5103,0.00264127,-1.1671e-4,-0.00911022,87.0522,7.438666)"
       gradientUnits="userSpaceOnUse"
       r="47.595196"
       xlink:href="#linearGradient8197" />
    <linearGradient
       id="o"
       gradientTransform="matrix(0.6182226,0,0,0.6232687,24.10803,47.993844)"
       gradientUnits="userSpaceOnUse"
       x1="33.342377"
       x2="24.450998"
       y1="117.83894"
       y2="107.35519">
      <stop
         offset="0"
         id="stop76" />
      <stop
         offset="1"
         stop-color="#515151"
         id="stop78" />
    </linearGradient>
    <linearGradient
       id="p"
       gradientTransform="matrix(1.6732108,1.5189394,-1.5009523,1.6928488,18.675678,-24.465565)"
       gradientUnits="userSpaceOnUse"
       x1="48.498562"
       x2="48.732723"
       xlink:href="#linearGradient8197"
       y1="0.81150502"
       y2="2.3657269" />
    <linearGradient
       id="q"
       gradientTransform="matrix(0.9973012,0,0,0.9997782,0.28069,0.010646)"
       gradientUnits="userSpaceOnUse"
       x1="92.226158"
       x2="96.579895"
       y1="54.119438"
       y2="57.15118">
      <stop
         offset="0"
         stop-color="#ea3838"
         id="stop82" />
      <stop
         offset="1"
         stop-color="#c40000"
         id="stop84" />
    </linearGradient>
    <radialGradient
       id="r"
       cx="49.011971"
       cy="2.6743081"
       gradientTransform="matrix(2.2600183,0,0,0.2752449,-2.259041,-25.415382)"
       gradientUnits="userSpaceOnUse"
       r="1.724619"
       xlink:href="#linearGradient3207" />
    <radialGradient
       id="t"
       cx="49.011971"
       cy="2.6743081"
       gradientTransform="matrix(1.550633,0,0,0.1873121,21.621938,-31.864287)"
       gradientUnits="userSpaceOnUse"
       r="1.724619"
       xlink:href="#linearGradient3207" />
    <radialGradient
       id="u"
       cx="49.011971"
       cy="2.6743081"
       gradientTransform="matrix(1.5495914,0,0,0.1876849,-193.24041,-23.535874)"
       gradientUnits="userSpaceOnUse"
       r="1.724619"
       xlink:href="#linearGradient3207" />
  </defs>
  <sodipodi:namedview
     id="base"
     pagecolor="#ffffff"
     bordercolor="#666666"
     borderopacity="1.0"
     inkscape:pageopacity="0.0"
     inkscape:pageshadow="2"
     inkscape:zoom="2.0020597"
     inkscape:cx="-44.128658"
     inkscape:cy="53.87156"
     inkscape:current-layer="g923"
     showgrid="true"
     inkscape:document-units="px"
     inkscape:grid-bbox="true"
     guidetolerance="0.1px"
     showguides="false"
     inkscape:guide-bbox="true"
     inkscape:window-width="1366"
     inkscape:window-height="707"
     inkscape:window-x="0"
     inkscape:window-y="0"
     inkscape:window-maximized="1">
    <sodipodi:guide
       orientation="horizontal"
       position="32.487481"
       id="guide2204"
       inkscape:locked="false" />
    <inkscape:grid
       type="xygrid"
       id="grid996"
       spacingx="4"
       spacingy="4"
       empspacing="2" />
  </sodipodi:namedview>
  <metadata
     id="metadata1312">
    <rdf:RDF>
      <cc:Work
         rdf:about="">
        <dc:format>image/svg+xml</dc:format>
        <dc:type
           rdf:resource="http://purl.org/dc/dcmitype/StillImage" />
        <cc:license
           rdf:resource="http://creativecommons.org/licenses/GPL/2.0/" />
        <dc:contributor>
          <cc:Agent>
            <dc:title>Oxygen team</dc:title>
          </cc:Agent>
        </dc:contributor>
        <dc:title></dc:title>
      </cc:Work>
      <cc:License
         rdf:about="http://creativecommons.org/licenses/LGPL/2.1/">
        <cc:permits
           rdf:resource="http://web.resource.org/cc/Reproduction" />
        <cc:permits
           rdf:resource="http://web.resource.org/cc/Distribution" />
        <cc:requires
           rdf:resource="http://web.resource.org/cc/Notice" />
        <cc:permits
           rdf:resource="http://web.resource.org/cc/DerivativeWorks" />
        <cc:requires
           rdf:resource="http://web.resource.org/cc/ShareAlike" />
        <cc:requires
           rdf:resource="http://web.resource.org/cc/SourceCode" />
      </cc:License>
    </rdf:RDF>
  </metadata>
  <g
     id="layer1"
     inkscape:label="Layer 1"
     inkscape:groupmode="layer">
    <g
       id="g923">
      <g
         id="g1088">
        <path
           d="m 23,9 0.04082,112 H 84.172 c 0.53,0 1.039,-0.211 1.414,-0.586 L 118.414,87.586 C 118.789,87.211 119,86.702 119,86.172 V 9 Z"
           transform="matrix(1.0416667,0,0,1.0357143,-9.958333,-3.3215387)"
           id="path2901"
           inkscape:connector-curvature="0"
           style="opacity:0.71506898;filter:url(#e)" />
        <path
           d="M 24.919999,10.931136 V 119.06907 l 58.676001,-1e-4 c 0.53,0 1.039,-0.211 1.414,-0.586 l 31.484,-31.765936 c 0.375,-0.375 0.586,-0.884 0.586,-1.414 V 10.931136 Z"
           transform="matrix(1.0416667,0,0,1.0357143,-9.958333,-3.3215387)"
           id="path2903"
           inkscape:connector-curvature="0"
           style="opacity:0.89589;filter:url(#f)" />
        <path
           d="M 23,9.9655172 23.040816,121 H 84.172 c 0.53,0 1.039,-0.211 1.414,-0.586 13.296921,-8.21061 24.14086,-19.26784 32.828,-32.828 C 118.789,87.211 119,86.702 119,86.172 V 9.9655172 Z"
           transform="matrix(1.0416667,0,0,1.0357143,-9.958333,-3.3215387)"
           id="path2905"
           inkscape:connector-curvature="0"
           style="opacity:0.83561599;filter:url(#e)" />
        <path
           d="M 16.000002,7.9999953 V 120 h 61.172 c 0.53,0 1.039,-0.211 1.414,-0.586 L 111.414,86.585995 c 0.375,-0.375 0.586,-0.884 0.586,-1.414 V 7.9999953 Z"
           id="path2907"
           inkscape:connector-curvature="0"
           style="fill:url(#d)" />
        <path
           d="m 24.678725,15.999995 c -0.539276,0 -0.978723,0.440836 -0.978723,0.981818 l 0.3,94.036367 c 0,0.54197 0.439447,0.98182 0.978723,0.98182 h 51.913022 c 0.257404,0 0.509915,-0.10407 0.691957,-0.28767 L 103.71323,85.481195 C 103.89626,85.297595 104,85.045268 104,84.78705 V 16.981813 c 0,-0.540982 -0.43847,-0.981818 -0.97872,-0.981818 z"
           id="path2909"
           inkscape:connector-curvature="0"
           style="fill:url(#c)" />
        <g
           id="g2168"
           transform="translate(0,8)">
          <rect
             style="opacity:1;fill:#a2a2a2;fill-opacity:1;stroke:none;stroke-width:6.48479557;stroke-linecap:round;stroke-linejoin:bevel;stroke-miterlimit:4;stroke-dasharray:none;stroke-dashoffset:0;stroke-opacity:1"
             id="rect3111"
             width="48"
             height="8"
             x="-96"
             y="80"
             rx="0"
             ry="0"
             transform="scale(-1,1)" />
          <rect
             transform="scale(-1,1)"
             ry="0"
             rx="0"
             y="16"
             x="-104"
             height="8"
             width="56"
             id="rect2970"
             style="opacity:1;fill:#a2a2a2;fill-opacity:1;stroke:none;stroke-width:7.00437975;stroke-linecap:round;stroke-linejoin:bevel;stroke-miterlimit:4;stroke-dasharray:none;stroke-dashoffset:0;stroke-opacity:1" />
          <rect
             y="16"
             x="24"
             height="12"
             width="12"
             id="rect2320"
             style="opacity:1;fill:#a2a2a2;fill-opacity:1;stroke:none;stroke-width:9.00000095;stroke-linecap:square;stroke-linejoin:round;stroke-miterlimit:4;stroke-dasharray:none;stroke-dashoffset:0;stroke-opacity:1" />
          <rect
             style="opacity:1;fill:#0066ff;fill-opacity:1;stroke:none;stroke-width:7.00437975;stroke-linecap:round;stroke-linejoin:bevel;stroke-miterlimit:4;stroke-dasharray:none;stroke-dashoffset:0;stroke-opacity:1"
             id="rect3080"
             width="56"
             height="8"
             x="-104"
             y="48"
             rx="0"
             ry="0"
             transform="scale(-1,1)" />
          <rect
             style="opacity:1;fill:#0066ff;fill-opacity:1;stroke:none;stroke-width:9.00000095;stroke-linecap:square;stroke-linejoin:round;stroke-miterlimit:4;stroke-dasharray:none;stroke-dashoffset:0;stroke-opacity:1"
             id="rect3088"
             width="12"
             height="12"
             x="24"
             y="48" />
          <rect
             style="opacity:1;fill:#a2a2a2;fill-opacity:1;stroke:none;stroke-width:9.00000095;stroke-linecap:square;stroke-linejoin:round;stroke-miterlimit:4;stroke-dasharray:none;stroke-dashoffset:0;stroke-opacity:1"
             id="rect3115"
             width="12"
             height="12"
             x="24"
             y="80" />
          <rect
             style="opacity:1;fill:#a2a2a2;fill-opacity:1;stroke:none;stroke-width:6.48479557;stroke-linecap:round;stroke-linejoin:bevel;stroke-miterlimit:4;stroke-dasharray:none;stroke-dashoffset:0;stroke-opacity:1"
             id="rect2143"
             width="48"
             height="8"
             x="-96"
             y="32"
             rx="0"
             ry="0"
             transform="scale(-1,1)" />
          <rect
             transform="scale(-1,1)"
             ry="0"
             rx="0"
             y="64"
             x="-96"
             height="8"
             width="48"
             id="rect2145"
             style="opacity:1;fill:#0066ff;fill-opacity:1;stroke:none;stroke-width:6.48479557;stroke-linecap:round;stroke-linejoin:bevel;stroke-miterlimit:4;stroke-dasharray:none;stroke-dashoffset:0;stroke-opacity:1" />
          <rect
             transform="scale(-1,1)"
             ry="0"
             rx="0"
             y="96"
             x="-88"
             height="8"
             width="40"
             id="rect2157"
             style="opacity:1;fill:#a2a2a2;fill-opacity:1;stroke:none;stroke-width:5.91978121;stroke-linecap:round;stroke-linejoin:bevel;stroke-miterlimit:4;stroke-dasharray:none;stroke-dashoffset:0;stroke-opacity:1" />
        </g>
        <g
           transform="translate(2.0173643e-6,-4.7375468e-6)"
           id="g2919">
          <path
             d="M 111.414,86.586 C 111.664,86.336 85.035,85 80,85 c -1.654,0 -3,1.346 -3,3 0,5.035 1.336,31.664 1.586,31.414 z"
             id="path2911"
             inkscape:connector-curvature="0"
             style="opacity:0.90684904;filter:url(#i)" />
          <path
             d="M 111.414,86.586 C 111.789,86.211 89.444,86 80,86 c -1.103,0 -2,0.897 -2,2 0,9.444 0.211,31.789 0.586,31.414 z"
             id="path2913"
             inkscape:connector-curvature="0"
             style="opacity:0.2;filter:url(#h)" />
          <path
             d="M 111.414,86.586 C 111.653,86.347 89.807,87 80,87 c -0.553,0 -1,0.447 -1,1 0,9.807 -0.653,31.653 -0.414,31.414 z"
             id="path2915"
             inkscape:connector-curvature="0"
             style="opacity:0.1;fill:url(#a);filter:url(#g)" />
          <path
             d="m 78.586,119.414 c 0,0 11.914,-9.914 17.414,-15.414 5.5,-5.5 15.414,-17.414 15.414,-17.414 0,0 -21.164,1.414 -31.414,1.414 0,10.25 -1.414,31.414 -1.414,31.414 z"
             id="path2917"
             inkscape:connector-curvature="0"
             style="fill:url(#b)" />
        </g>
      </g>
      <g
         id="g375"
         transform="matrix(1.157999,0,0,1.157999,8.2978528,-55.591902)">
        <g
           style="fill-rule:evenodd"
           id="g343">
          <path
             style="fill:#bf0000"
             inkscape:connector-curvature="0"
             id="path335"
             d="m 90.067703,48.28801 c 0.613642,-0.692125 4.648657,-0.363057 8.944253,3.536477 4.337724,3.937759 5.210074,7.748115 4.441394,8.615025 -0.5003,0.564284 -1.00061,1.128566 -1.50092,1.692851 -4.461914,-4.050501 -8.9238,-8.101002 -13.385691,-12.151503 0.500309,-0.564283 1.000624,-1.128565 1.500964,-1.69285 z" />
          <path
             style="fill:#b3925d"
             inkscape:connector-curvature="0"
             id="path337"
             d="m 36.000762,124 20.247,-9.42653 0.09417,-0.10772 -13.269004,-12.28446 -0.127672,0.1459 z" />
          <path
             inkscape:connector-curvature="0"
             style="fill:url(#d-3);filter:url(#e-6)"
             id="path339"
             d="m 97.750257,56.002191 c -1.025821,-0.04502 -1.882013,0.614542 -2.665637,0.986566 -4.174912,3.698786 -21.569273,21.653428 -22.000397,22.168708 l -17.273332,20.659839 -0.106627,0.116066 -9.682256,17.6334 23.598527,-5.26172 29.942357,-36.049248 3.589728,-4.294461 c 0.64726,-1.199814 1.23861,-7.813473 -1.74155,-12.76732 -1.452992,-2.415269 -2.634989,-3.146806 -3.660813,-3.19183 z m 5.402363,15.95915 c -0.0266,0.04924 -0.0446,0.143824 -0.0711,0.174098 -0.0129,0.01476 1.49247,-1.049396 0.6753,-0.870498 z" />
          <path
             inkscape:connector-curvature="0"
             style="fill:url(#f-7)"
             id="path341"
             d="m 37.004018,123.01573 18.885171,-8.78019 0.09416,-0.10769 -12.551842,-11.60866 -0.12769,0.14592 z" />
        </g>
        <path
           inkscape:connector-curvature="0"
           style="fill:url(#g-5)"
           id="path345"
           d="m 49.164276,108.94499 c 1.648961,1.50106 2.755448,1.51054 3.34488,2.0471 0.09525,0.0867 0.175312,0.18851 0.243795,0.29167 L 97.392942,60.017302 90.912418,54.117987 46.187555,105.48147 c 0.214748,0.0564 0.415855,0.13454 0.602285,0.30424 0.538767,0.49045 0.717813,1.65124 2.374436,3.15928 z" />
        <path
           style="opacity:0.35348804"
           inkscape:connector-curvature="0"
           id="path347"
           d="m 54.219542,109.12044 -1.750182,2.00168 c 0.538752,0.53092 0.431653,1.46553 1.421976,2.36702 1.067261,0.97156 1.630178,0.45849 2.321697,1.08447 l 1.771382,-2.02599 z" />
        <path
           inkscape:connector-curvature="0"
           style="fill:url(#h-3)"
           id="path349"
           d="M 97.156354,59.801933 52.550305,111.02955 c 0.541583,0.53354 0.517441,1.37742 1.512824,2.28353 1.072712,0.97652 1.555044,0.55628 2.250088,1.18547 L 100.94048,63.246681 Z" />
        <path
           style="opacity:0.386047;fill:#252525"
           inkscape:connector-curvature="0"
           id="path351"
           d="m 47.641192,104.81388 -0.897802,1.02682 -0.0345,0.0376 c 0.447512,0.42018 0.395724,1.39005 1.878296,2.86086 l 0.08229,0.0749 0.586334,0.53373 0.0823,0.0749 c 1.616252,1.35012 2.54668,1.16726 3.136095,1.7038 l 0.947655,-1.09585 z" />
        <path
           style="opacity:0.35348804;fill:#131313"
           inkscape:connector-curvature="0"
           id="path353"
           d="m 43.884886,101.37497 -0.940801,0.95531 c 0.02064,0.0187 -0.05311,0.1047 -0.03237,0.12358 0.423005,0.38509 0.412824,1.36825 1.189787,2.20191 l 0.072,0.0655 0.318878,0.29029 0.04115,0.0374 c 0.925767,0.72156 1.702344,0.46358 2.175362,0.82926 l 0.940872,-1.07609 z" />
        <path
           inkscape:connector-curvature="0"
           style="fill:url(#i-5)"
           id="path355"
           d="m 44.501995,104.6749 c 1.032229,0.92922 1.738227,0.6105 2.287845,1.11081 L 91.395905,54.558106 87.571444,51.076654 42.944168,102.32853 c 0.02096,0.019 0.04162,0.0379 0.06269,0.0571 0.42971,0.39116 0.455145,1.35294 1.495139,2.28929 z" />
        <path
           inkscape:connector-curvature="0"
           style="fill:url(#j)"
           id="path357"
           transform="matrix(0.7409346,0.6715772,-0.6655662,0.7463388,0,0)"
           d="m 99.380959,-24.64492 h 18.073061 v 4.252269 H 99.380959 Z" />
        <ellipse
           style="fill:url(#k);filter:url(#l)"
           id="ellipse359"
           transform="matrix(0.3854946,-0.4403693,-1.7345162,-1.5764895,62.874028,110.46407)"
           ry="0.97142202"
           rx="47.495197"
           cy="7.4622769"
           cx="34.677639" />
        <path
           inkscape:connector-curvature="0"
           style="fill:url(#m)"
           id="path361"
           transform="matrix(0.3184879,-0.3665274,-1.2576415,-1.1452705,66.925762,101.47904)"
           d="M 106.56087,7.4622769 A 71.883232,0.4230493 0 0 1 35.242273,7.8853132 71.883232,0.4230493 0 0 1 -37.196723,7.4689227 71.883232,0.4230493 0 0 1 32.983878,7.0393451 71.883232,0.4230493 0 0 1 106.52539,7.448987" />
        <path
           inkscape:connector-curvature="0"
           style="fill:url(#o);fill-rule:evenodd"
           id="path363"
           d="m 44.721041,119.98334 c -1.894932,-0.77816 -4.469372,-3.93608 -5.787909,-5.07837 l -2.933131,9.08971 z" />
        <path
           inkscape:connector-curvature="0"
           style="fill:url(#p);fill-rule:evenodd"
           id="path365"
           d="m 97.676422,50.957862 c 2.773338,2.157871 4.754818,5.136648 4.863888,5.422718 0.10904,0.286071 -2.586875,-3.046365 -4.878244,-4.572341 -2.273846,-1.514326 -5.450917,-1.552229 -5.685693,-1.736594 -0.234782,-0.184361 -1.822614,-1.877275 -0.38221,-1.814774 1.506596,0.06537 3.94013,1.035831 6.082259,2.700991 z" />
        <path
           inkscape:connector-curvature="0"
           style="fill:url(#q)"
           id="path367"
           d="m 93.653015,51.592952 -2.773744,3.218036 6.482458,5.873697 2.773741,-3.186793 z" />
        <path
           inkscape:connector-curvature="0"
           style="fill:url(#r)"
           id="path369"
           transform="matrix(0.7404161,0.6721488,-0.6634233,0.7482443,0,0)"
           d="m 104.60918,-25.364759 h 7.79523 v 1.708078 h -7.79523 z" />
        <path
           inkscape:connector-curvature="0"
           style="fill:url(#t)"
           id="path371"
           transform="matrix(0.6942228,0.7197602,-0.7693435,0.6388354,0,0)"
           d="m 94.946716,-31.829779 h 5.348454 v 1.162492 h -5.348454 z" />
        <path
           inkscape:connector-curvature="0"
           style="fill:url(#u)"
           id="path373"
           transform="matrix(-0.7514575,-0.6597815,-0.5893147,0.8079036,0,0)"
           d="m -119.96733,-23.501301 h 5.3449 v 1.164788 h -5.3449 z" />
      </g>
    </g>
  </g>
</svg>
