<?xml version="1.0" encoding="UTF-8" standalone="no"?>
<svg
   xmlns:dc="http://purl.org/dc/elements/1.1/"
   xmlns:cc="http://creativecommons.org/ns#"
   xmlns:rdf="http://www.w3.org/1999/02/22-rdf-syntax-ns#"
   xmlns:svg="http://www.w3.org/2000/svg"
   xmlns="http://www.w3.org/2000/svg"
   xmlns:sodipodi="http://sodipodi.sourceforge.net/DTD/sodipodi-0.dtd"
   xmlns:inkscape="http://www.inkscape.org/namespaces/inkscape"
   height="128"
   viewBox="0 0 33.866666 33.866668"
   width="128"
   version="1.1"
   id="svg20"
   sodipodi:docname="sc_emphasischarstyle.svg"
   inkscape:export-filename="/home/rizmut/Dokumen/Rizmut/Github/libreoffice-style-karasa-jaga/build/images_karasa_jaga/cmd/sc_emphasischarstyle.png"
   inkscape:export-xdpi="12"
   inkscape:export-ydpi="12"
   inkscape:version="0.92.3 (unknown)">
  <metadata
     id="metadata26">
    <rdf:RDF>
      <cc:Work
         rdf:about="">
        <dc:format>image/svg+xml</dc:format>
        <dc:type
           rdf:resource="http://purl.org/dc/dcmitype/StillImage" />
        <dc:title></dc:title>
      </cc:Work>
    </rdf:RDF>
  </metadata>
  <defs
     id="defs24" />
  <sodipodi:namedview
     pagecolor="#ffffff"
     bordercolor="#666666"
     borderopacity="1"
     objecttolerance="10"
     gridtolerance="10"
     guidetolerance="10"
     inkscape:pageopacity="0"
     inkscape:pageshadow="2"
     inkscape:window-width="1366"
     inkscape:window-height="706"
     id="namedview22"
     showgrid="true"
     inkscape:snap-global="false"
     inkscape:zoom="2.6295533"
     inkscape:cx="43.212612"
     inkscape:cy="40.81497"
     inkscape:window-x="0"
     inkscape:window-y="0"
     inkscape:window-maximized="1"
     inkscape:current-layer="svg20">
    <inkscape:grid
       type="xygrid"
       id="grid833"
       spacingx="2.1166667"
       spacingy="2.1166667"
       empspacing="1" />
  </sodipodi:namedview>
  <linearGradient
     id="a"
     gradientUnits="userSpaceOnUse"
     x1="15.71217359615"
     x2="16.9333311282"
     y1="294.720546641"
     y2="266.6339107115">
    <stop
       offset="0"
       stop-color="#555"
       id="stop2" />
    <stop
       offset="1"
       id="stop4" />
  </linearGradient>
  <linearGradient
     id="b"
     gradientUnits="userSpaceOnUse"
     x1="30.119141"
     x2="103.31641"
     y1="46.708008"
     y2="46.708008">
    <stop
       offset="0"
       stop-color="#3b3e22"
       id="stop7" />
    <stop
       offset="1"
       stop-color="#454545"
       stop-opacity="0"
       id="stop9" />
  </linearGradient>
  <g
     transform="matrix(1,0,0,1.0573581,0,-279.66784)"
     id="g18">
    <text
       style="font-size:40.61514282px;font-family:sans-serif;letter-spacing:0;word-spacing:0;fill:url(#a);stroke-width:1.015378"
       x="1.525372"
       y="294.47021"
       id="text14">
      <tspan
         font-size="42.740532"
         font-style="italic"
         x="1.525372"
         y="294.47021"
         id="tspan12"
         style="font-style:italic;font-size:42.74053192px;font-family:FreeSerif;fill:url(#a);stroke-width:1.015378">E</tspan>
    </text>
    <path
       d="m 39.751953,13.964844 c 0.04676,0.0234 0.06314,0.08695 0.109375,0.111328 0.04352,0.02544 0.126616,0.0092 0.169922,0.03516 z m 19.398438,1.203125 -0.265625,0.08789 c 0.04154,-0.01599 0.114652,0.0018 0.15625,-0.01367 0.04316,-0.01425 0.06583,-0.0608 0.109375,-0.07422 z m -16.203125,1.896484 c 1.004507,1.549682 1.662109,3.312534 1.662109,5.09375 0,3.215169 -0.687539,6.925739 -1.927734,11.435547 a 4.1127938,4.1127938 0 0 1 0,0.0059 l -12.5625,45.158203 a 85.999996,43.999999 0 0 0 7.048828,0.69336 c 1.343005,-4.656903 2.728299,-9.59328 4.199219,-15.06836 a 4.1127938,4.1127938 0 0 1 1.765624,-2.392578 4.1127938,4.1127938 0 0 1 -0.294921,-2.988281 L 53.503906,21.361328 a 4.1127938,4.1127938 0 0 1 0.01563,-0.03711 c 0.473719,-1.610646 1.512913,-3.057385 2.796875,-4.259766 z m 53.238281,0 c 2.59358,1.123805 4.642633,2.986933 6.039063,5.388672 l 1.0918,-5.388672 z M 75.929688,60.582031 c -2.032332,1.293392 -4.470104,2.05455 -7.351563,2.523438 0.90378,0.314532 1.889352,0.452673 2.716797,0.996093 1.206735,0.763049 1.97438,1.946297 2.685547,3.152344 z"
       transform="matrix(0.26458333,0,0,0.26458333,0,263.13332)"
       id="path16"
       style="fill:url(#b)"
       inkscape:connector-curvature="0" />
  </g>
</svg>
