<svg height="128" viewBox="0 0 33.866666 33.866668" width="128" xmlns="http://www.w3.org/2000/svg" xmlns:xlink="http://www.w3.org/1999/xlink"><linearGradient id="a" gradientUnits="userSpaceOnUse" x1="56" x2="56" y1="-91.151554" y2="68"><stop offset="0" stop-color="#fff"/><stop offset="1" stop-color="#fff" stop-opacity="0"/></linearGradient><filter id="b"><feGaussianBlur stdDeviation="1.9715288"/></filter><linearGradient id="c" gradientUnits="userSpaceOnUse" x1="102.30765" x2="106.01008" y1="39.141762" y2="209.45338"><stop offset="0" stop-color="#99999c"/><stop offset=".5" stop-color="#9c9ca1"/><stop offset="1" stop-color="#cdcdd1"/></linearGradient><linearGradient id="d" gradientUnits="userSpaceOnUse" x1="78.61085034347" x2="120.34349451992" y1="88.85241574791" y2="111.54715161013"><stop offset="0" stop-color="#fff"/><stop offset="1" stop-color="#ccc"/></linearGradient><linearGradient id="e" gradientUnits="userSpaceOnUse" x1="88.38102" x2="130.48599" y1="1008.9966" y2="1015.6953"><stop offset="0" stop-color="#7b7b7b"/><stop offset="1" stop-color="#797979" stop-opacity="0"/></linearGradient><clipPath id="f"><path d="m41.355614 933.74432h83.943993v117.52166h-83.943993z"/></clipPath><filter id="g" color-interpolation-filters="sRGB" height="1.073732" width="1.13754" x="-.06877" y="-.036866"><feGaussianBlur stdDeviation="1.0557314"/></filter><linearGradient id="h" gradientUnits="userSpaceOnUse" x1="98.40846912202" x2="115.2552252896" y1="30.75850104895" y2="77.14050006823"><stop offset="0" stop-color="#fff" stop-opacity=".683453"/><stop offset="1" stop-color="#fff" stop-opacity="0"/></linearGradient><linearGradient id="i" gradientTransform="matrix(.58291629 0 0 .66676377 62.177025 -566.68964)" gradientUnits="userSpaceOnUse" x1="63.011921" x2="63.011921" y1="945.89801" y2="1033.1569"><stop offset="0" stop-color="#545454" stop-opacity=".988"/><stop offset="1" stop-color="#ebebeb"/></linearGradient><linearGradient id="j" gradientTransform="matrix(.48045402 0 0 .66178602 128.73476 -578.51587)" gradientUnits="userSpaceOnUse" x1="-60.535713" x2="-60.357143" y1="979.50507" y2="1009.505"><stop offset="0" stop-color="#979797"/><stop offset=".148461" stop-color="#f6f6f6"/><stop offset=".28399727" stop-color="#e2e2e2"/><stop offset=".41198727" stop-color="#dedede"/><stop offset=".41198727" stop-color="#f6f6f6"/><stop offset="1" stop-color="#6b6b6b"/></linearGradient><linearGradient id="k" gradientTransform="matrix(.480454 0 0 .58309338 128.76683 499.76645)" gradientUnits="userSpaceOnUse" x1="-61.078979" x2="-60.6413" y1="-1056.658" y2="-1010.9131"><stop offset="0" stop-color="#777"/><stop offset=".18176934" stop-color="#a8a8a8"/><stop offset=".22864534" stop-color="#cdcdcd"/><stop offset=".34561315" stop-color="#f7f7f7"/><stop offset="1" stop-color="#fff"/></linearGradient><g transform="translate(0 -263.13332)"><path d="m9.9084482 9.8944635v29.5397715h7.6886238l.336729-1.616495c1.620211-8.865674 5.503218-11.408736 8.158571-13.582378 1.541606-1.260214 2.506958-1.82056 4.321344-2.251547s8.526678-.635051 13.035537-.635051h7.015168l.216428 63.490331c-.313043 4.423919.547584 9.576949-2.122968 13.399759-2.636929 2.935366-9.573635 2.829246-13.58115 3.268276l-1.795883.1732v7.15876l52.3629-.0369v-7.15876l-1.79588-.1732c-6.442864-.48116-11.338954-1.15418-13.13478-2.647416-2.453359-2.03999-2.469337-7.77443-2.469339-14.020621l.364572-63.128631h7.295775c4.708214 0 11.552772.200033 13.372262.635051s2.68172 1.003308 4.04074 2.251547c2.3871 2.19517 5.56025 3.847215 7.442652 12.684171l.33673 1.558763 7.99645.1-.17678-29.0086305z" fill="#e9e9e9" filter="url(#b)" transform="matrix(.31604604 0 0 .31604604 -2.073193 261.07223)"/><path d="m1.0506417 264.19165v9.24339h2.4305561l.1064482-.51101c.5121871-2.80265 1.7396976-3.45424 2.5791176-4.14138.4873379-.39838.7925085-.57552 1.3660797-.71176.5735701-.13624 2.6954837-.20076 4.1208407-.20076h2.217662l.06841 20.0133c-.09896 1.39851.173105 3.0275-.671121 4.23598-.833595.92794-3.026452.89439-4.293323 1.03317l-.5677203.0547v2.26306l16.5531523-.012v-2.26305l-.56772-.0547c-2.036742-.1521-3.584512-.36486-4.152215-.8369-.775565-.6449-.780616-2.45769-.780617-4.43225l-.01717-20.00164h2.306368c1.488378 0 3.652106.0632 4.227289.20076.575184.13752.847756.31717 1.277374.71177.754619.69395 1.890141 1.16653 2.485213 3.9601l.106444.49276 2.527867.0317-.05588-9.07547z"/><path d="m5.675 2.7625-1.1875 23.84375h.40625c2.7106384-13.325364 9.822641-18.0786198 23.05665-18.2896h17.4543v34.214537c4.223425-.606961 1.950958.887136 5.8181-.0769v-34.137637h4.35495 13.09935c10.605153-.5324226 15.152259 3.151971 20.3104 13.13335.675527-.750161 1.301403-1.50489 1.875-2.28125l-.71875-16.40625z" fill="url(#a)" opacity=".908" transform="matrix(.31612369 0 0 .31612369 1.411054 265.24105)"/><g transform="matrix(.28584856 0 0 .28584856 -2.786162 260.41137)"><path d="m68.985809 46.546616h59.01239v81.453445h-59.01239z" fill="url(#c)"/><path d="m76.390663 53.951469h44.429123v66.643677h-44.429123z" fill="url(#d)"/><path clip-path="url(#f)" d="m92.81509 1029.6319c1.071428 1.4286 10.71429 15.3572 11.78571 13.5715 1.07143-1.7858 26.42857-25.3572 25-26.7858-1.42857-1.4285-33.928567-41.78567-33.928567-41.78567z" fill="url(#e)" fill-rule="evenodd" filter="url(#g)" opacity=".68" transform="matrix(.69309305 0 0 .69309305 41.153912 -600.6251)"/><path d="m72 48v48c14.790777-17.220934 34.04067-23.231931 48-25.4375v-22.5625z" fill="url(#h)" fill-rule="evenodd" transform="matrix(.92560668 0 0 .92560668 9.746984 9.522348)"/><path d="m83.795517 65.058746h29.619415v48.131542h-29.619415z" fill="url(#i)"/><path d="m87.497948 68.761177h22.214558v40.726692h-22.214558z" fill="#535353"/><path d="m91.200371 72.4636h14.809708v14.809709h-14.809708z" fill="url(#j)"/><path d="m91.200371-116.89272h14.809715v29.619408h-14.809715z" fill="url(#k)" transform="scale(1 -1)"/></g></g></svg>