<?xml version="1.0" encoding="UTF-8" standalone="no"?>
<!-- Created with Inkscape (http://www.inkscape.org/) -->

<svg
   xmlns:dc="http://purl.org/dc/elements/1.1/"
   xmlns:cc="http://creativecommons.org/ns#"
   xmlns:rdf="http://www.w3.org/1999/02/22-rdf-syntax-ns#"
   xmlns:svg="http://www.w3.org/2000/svg"
   xmlns="http://www.w3.org/2000/svg"
   xmlns:xlink="http://www.w3.org/1999/xlink"
   xmlns:sodipodi="http://sodipodi.sourceforge.net/DTD/sodipodi-0.dtd"
   xmlns:inkscape="http://www.inkscape.org/namespaces/inkscape"
   width="128"
   height="128"
   viewBox="0 0 33.866666 33.866668"
   version="1.1"
   id="svg8"
   inkscape:version="0.92.3 (unknown)"
   sodipodi:docname="sc_formatpaintbrush.svg"
   inkscape:export-filename="/home/rizmut/Dokumen/Rizmut/Github/libreoffice-style-karasa-jaga/build/images_karasa_jaga/cmd/sc_formatpaintbrush.png"
   inkscape:export-xdpi="12"
   inkscape:export-ydpi="12">
  <defs
     id="defs2">
    <filter
       inkscape:collect="always"
       style="color-interpolation-filters:sRGB"
       id="filter1678"
       x="-0.03889763"
       width="1.0777953"
       y="-0.040328201"
       height="1.0806564">
      <feGaussianBlur
         inkscape:collect="always"
         stdDeviation="1.7988508"
         id="feGaussianBlur1680" />
    </filter>
    <linearGradient
       inkscape:collect="always"
       xlink:href="#linearGradient1566"
       id="linearGradient1568"
       x1="20.088888"
       y1="273.06342"
       x2="25.738007"
       y2="279.95581"
       gradientUnits="userSpaceOnUse"
       gradientTransform="matrix(1.0115917,0,0,1.0115917,-0.5055434,-3.0826143)" />
    <linearGradient
       inkscape:collect="always"
       id="linearGradient1566">
      <stop
         style="stop-color:#b79d6c;stop-opacity:1"
         offset="0"
         id="stop1562" />
      <stop
         style="stop-color:#8e7155;stop-opacity:1"
         offset="1"
         id="stop1564" />
    </linearGradient>
    <filter
       inkscape:collect="always"
       style="color-interpolation-filters:sRGB"
       id="filter1524"
       x="-0.036155343"
       width="1.0723107"
       y="-0.071386568"
       height="1.1427732">
      <feGaussianBlur
         inkscape:collect="always"
         stdDeviation="0.25836763"
         id="feGaussianBlur1526" />
    </filter>
    <linearGradient
       inkscape:collect="always"
       xlink:href="#linearGradient12192"
       id="linearGradient12198"
       x1="17.921068"
       y1="-43.164703"
       x2="73.562057"
       y2="-33.862148"
       gradientUnits="userSpaceOnUse"
       gradientTransform="matrix(0.23081241,0.17139377,-0.17139377,0.23081241,-1.3565437,280.59534)" />
    <linearGradient
       inkscape:collect="always"
       id="linearGradient12192">
      <stop
         style="stop-color:#bdbdbe;stop-opacity:1;"
         offset="0"
         id="stop12194" />
      <stop
         id="stop12200"
         offset="0.06657774"
         style="stop-color:#bdbdbe;stop-opacity:1" />
      <stop
         style="stop-color:#f3f3f3;stop-opacity:0.99607843"
         offset="0.21500437"
         id="stop12202" />
      <stop
         id="stop12204"
         offset="0.38446414"
         style="stop-color:#a7a7a9;stop-opacity:1" />
      <stop
         style="stop-color:#8e8e91;stop-opacity:1"
         offset="0.58162361"
         id="stop12206" />
      <stop
         id="stop12208"
         offset="0.80252987"
         style="stop-color:#dcdcdc;stop-opacity:0.99215686" />
      <stop
         style="stop-color:#a7a7aa;stop-opacity:0.96862745"
         offset="1"
         id="stop12196" />
    </linearGradient>
    <radialGradient
       inkscape:collect="always"
       xlink:href="#linearGradient892"
       id="radialGradient894"
       cx="9.6305676"
       cy="284.93066"
       fx="9.6305676"
       fy="284.93066"
       r="9.4021578"
       gradientTransform="matrix(1.4337962,-0.01082575,0.00763772,1.0115629,-7.1178522,-2.9608858)"
       gradientUnits="userSpaceOnUse" />
    <linearGradient
       inkscape:collect="always"
       id="linearGradient892">
      <stop
         style="stop-color:#333333;stop-opacity:0.97794116"
         offset="0"
         id="stop888" />
      <stop
         style="stop-color:#050505;stop-opacity:1"
         offset="1"
         id="stop890" />
    </linearGradient>
    <filter
       inkscape:collect="always"
       style="color-interpolation-filters:sRGB"
       id="filter1607"
       x="-0.054302514"
       width="1.108605"
       y="-0.026925001"
       height="1.0538501">
      <feGaussianBlur
         inkscape:collect="always"
         stdDeviation="0.13545845"
         id="feGaussianBlur1609" />
    </filter>
  </defs>
  <sodipodi:namedview
     id="base"
     pagecolor="#ffffff"
     bordercolor="#666666"
     borderopacity="1.0"
     inkscape:pageopacity="0.0"
     inkscape:pageshadow="2"
     inkscape:zoom="5.6"
     inkscape:cx="73.735186"
     inkscape:cy="83.92176"
     inkscape:document-units="mm"
     inkscape:current-layer="g912"
     showgrid="false"
     units="px"
     inkscape:window-width="1366"
     inkscape:window-height="706"
     inkscape:window-x="0"
     inkscape:window-y="0"
     inkscape:window-maximized="1"
     inkscape:snap-global="false" />
  <metadata
     id="metadata5">
    <rdf:RDF>
      <cc:Work
         rdf:about="">
        <dc:format>image/svg+xml</dc:format>
        <dc:type
           rdf:resource="http://purl.org/dc/dcmitype/StillImage" />
        <dc:title></dc:title>
      </cc:Work>
    </rdf:RDF>
  </metadata>
  <g
     inkscape:label="Layer 1"
     inkscape:groupmode="layer"
     id="layer1"
     transform="translate(0,-263.13332)">
    <g
       id="g912"
       transform="matrix(1.0554799,0,0,1.0554799,0.6043556,-17.044721)">
      <path
         sodipodi:nodetypes="sccccccccccccccccccccccccs"
         inkscape:connector-curvature="0"
         style="opacity:0.56999966;fill:#000000;fill-opacity:1;fill-rule:evenodd;stroke:none;stroke-width:0.99999994px;stroke-linecap:butt;stroke-linejoin:miter;stroke-opacity:1;filter:url(#filter1678)"
         d="m 100.77344,14.990234 c -3.321509,0.06823 -6.886159,1.988607 -10.820315,6.345704 -4.634476,3.842493 -8.131683,9.294432 -14.238281,10.236328 -13.626429,-0.681298 -17.370025,-4.190803 -29.261719,3.070312 l 0.04492,0.04297 -18.347641,16.604083 0.03711,0.03516 L 2.1425781,68 l -0.4648437,3.818359 2.359375,2.472657 1.0136718,2.876953 2.7617188,0.726562 2.923828,3.542969 2.253906,5.289062 3.597657,3.003907 2.789062,3.8125 20.978516,21.294921 7.891187,9.46974 c 1.785717,-2.50001 24.411561,-28.603937 24.411561,-28.603937 l -0.09375,-0.09375 16.486314,-19.535724 c 8.351569,-12.643616 7.610217,-14.085354 6.558594,-23.197266 0,-8.758375 1.844896,-6.764651 8.882815,-12.878906 5.34747,-3.819619 7.82102,-7.970895 7.8164,-12.054688 0.82418,-2.28154 0.28133,-4.827252 -2.17187,-8.189453 -2.96365,-3.049833 -6.04178,-4.831902 -9.36328,-4.763672 z"
         transform="matrix(0.2676503,0,0,0.2676503,-0.5055434,263.10087)"
         id="path1656" />
      <path
         style="fill:#5a5c5a;fill-opacity:1;fill-rule:evenodd;stroke:none;stroke-width:0.26765031px;stroke-linecap:butt;stroke-linejoin:miter;stroke-opacity:1"
         d="m 11.953182,272.89658 c 3.182816,-1.94344 4.226701,-0.98722 7.873819,-0.80487 1.634432,-0.2521 2.570765,-1.71134 3.811184,-2.73979 2.105955,-2.33235 4.013689,-2.03752 5.600132,-0.40494 0.731787,2.34079 0.230825,3.42558 -1.776557,4.85942 -1.8837,1.63648 -2.377343,1.10296 -2.377343,3.44715 0.281467,2.4388 0.479826,2.82442 -1.755474,6.20849 z"
         id="path1528"
         inkscape:connector-curvature="0"
         sodipodi:nodetypes="cccccccc" />
      <path
         sodipodi:nodetypes="cccccccc"
         inkscape:connector-curvature="0"
         id="path1530"
         d="m 12.249146,272.61633 c 3.146344,-1.92117 4.178267,-0.97591 7.783593,-0.79565 1.615704,-0.24921 2.541307,-1.69173 3.767512,-2.70839 2.081824,-2.30563 3.772039,-2.03196 5.340303,-0.41809 0.723402,2.31396 1.30885,3.0147 -0.675529,4.43211 -1.862115,1.61773 -2.881109,2.1081 -2.881109,4.42542 0.278242,2.41086 0.164574,2.26289 -2.045112,5.60818 z"
         style="fill:#4b3d2d;fill-opacity:1;fill-rule:evenodd;stroke:none;stroke-width:0.26458332px;stroke-linecap:butt;stroke-linejoin:miter;stroke-opacity:1;"
         transform="matrix(1.0115917,0,0,1.0115917,-0.5055434,-3.0826143)" />
      <path
         sodipodi:nodetypes="cccccccc"
         inkscape:connector-curvature="0"
         id="path1504"
         d="m 11.927835,272.37274 c 3.182816,-1.94344 4.184455,-1.00412 7.831573,-0.82177 1.634433,-0.2521 2.570765,-1.71134 3.811184,-2.73978 2.105956,-2.33236 3.815763,-2.05552 5.402206,-0.42294 1.447005,1.98317 0.428751,2.90827 -1.57863,4.34211 -1.8837,1.63648 -2.377344,1.63827 -2.377344,3.98245 0.281468,2.43881 0.07873,2.71749 -2.156567,6.10156 z"
         style="fill:url(#linearGradient1568);fill-opacity:1;fill-rule:evenodd;stroke:none;stroke-width:0.26765031px;stroke-linecap:butt;stroke-linejoin:miter;stroke-opacity:1" />
      <path
         style="fill:#7f7f81;fill-opacity:1;stroke:none;stroke-width:0.3211804;stroke-miterlimit:4;stroke-dasharray:none;stroke-opacity:1"
         d="m 12.182199,272.83079 10.678058,9.98358 0.468686,0.64767 -5.089604,6.11324 -11.9592859,-11.90619 z"
         id="path1558"
         inkscape:connector-curvature="0"
         sodipodi:nodetypes="cccccc" />
      <path
         style="fill:#0a0a0a;fill-opacity:1;fill-rule:evenodd;stroke:none;stroke-width:0.26765031px;stroke-linecap:butt;stroke-linejoin:miter;stroke-opacity:1"
         d="m 6.2951511,277.05786 -6.22715814,4.24324 -0.12447475,1.02193 0.63124379,0.66207 0.2713778,0.77003 0.7392035,0.19424 0.782886,0.94809 0.602953,1.4159 0.962819,0.80415 0.7468995,1.02004 5.6146182,5.69964 2.112215,2.53487 c 0.477948,-0.66912 5.685445,-6.85217 5.685445,-6.85217 z"
         id="path1556"
         inkscape:connector-curvature="0"
         sodipodi:nodetypes="cccccccccccccc" />
      <path
         sodipodi:nodetypes="cccccccccccc"
         inkscape:connector-curvature="0"
         id="path1506"
         d="m 12.583232,272.28224 4.423032,3.90722 2.03669,-2.24147 3.139631,-1.32063 4.075859,-2.47224 2.004523,-1.73725 -1.804069,-0.66818 -2.204975,1.40317 -1.870886,1.73725 -2.67191,1.38745 c -2.842944,-0.59313 -4.330394,-0.57005 -7.127895,0.005 z"
         style="fill:#cbab73;fill-opacity:1;fill-rule:evenodd;stroke:none;stroke-width:0.26458332px;stroke-linecap:butt;stroke-linejoin:miter;stroke-opacity:1;filter:url(#filter1524)"
         transform="matrix(1.0115917,0,0,1.0115917,-0.5055434,-3.0826143)" />
      <path
         sodipodi:nodetypes="ccccc"
         inkscape:connector-curvature="0"
         id="rect12160"
         d="m 11.953181,272.37275 10.907076,10.44162 -5.561079,5.58377 -11.2481422,-11.18709 z"
         style="fill:url(#linearGradient12198);fill-opacity:1;stroke:none;stroke-width:0.3211804;stroke-miterlimit:4;stroke-dasharray:none;stroke-opacity:1" />
      <path
         sodipodi:nodetypes="ccccccccccccccccccccccccccc"
         inkscape:connector-curvature="0"
         id="path1536"
         d="m 6.2951511,277.05786 -6.22715814,4.24324 0.80965544,0.72335 0.4763538,1.09721 0.9343659,0.44782 1.0357143,0.19183 0.068526,1.14767 0.9915119,-0.36358 -0.6370554,1.46856 1.1792141,0.62217 1.2719781,-0.24494 -0.5613806,1.21566 0.3978629,0.4687 1.0380627,1.22289 1.2417227,-1.11257 -0.6263423,1.82073 0.9229934,1.05073 1.3226594,-0.62348 -0.388794,1.74525 0.388794,-1.74525 -0.388794,1.74525 1.4809357,1.0241 1.439959,-0.88594 -0.542922,1.94314 0.5716,0.61439 4.804564,-6.47665 z"
         style="fill:url(#radialGradient894);fill-opacity:1;fill-rule:evenodd;stroke:none;stroke-width:0.26765031px;stroke-linecap:butt;stroke-linejoin:miter;stroke-opacity:1" />
      <path
         sodipodi:nodetypes="ccccccccccccccc"
         inkscape:connector-curvature="0"
         id="path1589"
         d="m 28.827378,270.03406 0.05031,0.60372 c 0,0 -0.955882,0.85526 -1.157119,1.0565 -0.201239,0.20124 -2.113002,1.6099 -2.113002,1.6099 0,0 -0.804953,0.90558 -0.855263,1.10681 -0.05031,0.20124 -0.150928,2.01239 -0.150928,2.01239 l -0.506772,2.76702 -1.308049,2.36455 -0.603714,-0.20124 1.257738,-2.16331 c 0,0 0.406153,-4.77941 0.70801,-5.03095 0.301858,-0.25155 2.867646,-3.01858 2.867646,-3.01858 l 1.358358,-1.15712 -0.05031,-0.50309 z"
         style="fill:#856c4f;fill-opacity:1;fill-rule:evenodd;stroke:none;stroke-width:0.26458332px;stroke-linecap:butt;stroke-linejoin:miter;stroke-opacity:1;filter:url(#filter1607)"
         transform="matrix(1.0115917,0,0,1.0115917,-0.01314439,-2.9930872)" />
      <path
         style="fill:#848486;fill-opacity:1;stroke:none;stroke-width:0.3211804;stroke-miterlimit:4;stroke-dasharray:none;stroke-opacity:1"
         d="m 10.204209,273.90262 10.649948,10.8146 -0.920231,1.1629 -10.7241867,-11.0973 z"
         id="path876"
         inkscape:connector-curvature="0"
         sodipodi:nodetypes="ccccc" />
    </g>
  </g>
</svg>
