<?xml version="1.0" encoding="UTF-8" standalone="no"?>
<svg
   xmlns:dc="http://purl.org/dc/elements/1.1/"
   xmlns:cc="http://creativecommons.org/ns#"
   xmlns:rdf="http://www.w3.org/1999/02/22-rdf-syntax-ns#"
   xmlns:svg="http://www.w3.org/2000/svg"
   xmlns="http://www.w3.org/2000/svg"
   xmlns:xlink="http://www.w3.org/1999/xlink"
   xmlns:sodipodi="http://sodipodi.sourceforge.net/DTD/sodipodi-0.dtd"
   xmlns:inkscape="http://www.inkscape.org/namespaces/inkscape"
   height="128"
   viewBox="0 0 33.866666 33.866668"
   width="128"
   version="1.1"
   id="svg186"
   sodipodi:docname="sc_formfilter.svg"
   inkscape:version="0.92.3 (unknown)"
   inkscape:export-filename="/home/rizmut/Dokumen/Rizmut/Github/libreoffice-style-karasa-jaga/build/images_karasa_jaga/cmd/sc_formfilter.png"
   inkscape:export-xdpi="12"
   inkscape:export-ydpi="12">
  <metadata
     id="metadata192">
    <rdf:RDF>
      <cc:Work
         rdf:about="">
        <dc:format>image/svg+xml</dc:format>
        <dc:type
           rdf:resource="http://purl.org/dc/dcmitype/StillImage" />
        <dc:title></dc:title>
      </cc:Work>
    </rdf:RDF>
  </metadata>
  <defs
     id="defs190">
    <filter
       id="b-3">
      <feGaussianBlur
         stdDeviation="2.4"
         id="feGaussianBlur9" />
    </filter>
    <linearGradient
       id="a-6"
       gradientTransform="matrix(0.02999311,0,0,0.04475549,0.17007227,-20.360914)"
       gradientUnits="userSpaceOnUse"
       x1="417.76013"
       x2="417.76013"
       y1="691.40674"
       y2="549.52472">
      <stop
         offset="0"
         stop-color="#cbcbcd"
         id="stop2-7" />
      <stop
         offset=".5"
         stop-color="#e0e0e2"
         id="stop4-5" />
      <stop
         offset="1"
         stop-color="#fff"
         id="stop6-3" />
    </linearGradient>
    <linearGradient
       id="c-5"
       gradientTransform="matrix(0.33072918,0,0,0.26458334,-38.506352,-64.790137)"
       gradientUnits="userSpaceOnUse"
       x1="167.62865"
       x2="167.62865"
       y1="340.8761"
       y2="308.8761">
      <stop
         offset="0"
         stop-color="#cbcbcd"
         id="stop12-6" />
      <stop
         offset=".66545075"
         stop-color="#e0e0e2"
         id="stop14" />
      <stop
         offset="1"
         stop-color="#fff"
         id="stop16" />
    </linearGradient>
  </defs>
  <sodipodi:namedview
     pagecolor="#ffffff"
     bordercolor="#666666"
     borderopacity="1"
     objecttolerance="10"
     gridtolerance="10"
     guidetolerance="10"
     inkscape:pageopacity="0"
     inkscape:pageshadow="2"
     inkscape:window-width="1366"
     inkscape:window-height="657"
     id="namedview188"
     showgrid="true"
     inkscape:snap-global="true"
     inkscape:zoom="3.6875"
     inkscape:cx="63.784156"
     inkscape:cy="57.646606"
     inkscape:window-x="0"
     inkscape:window-y="30"
     inkscape:window-maximized="1"
     inkscape:current-layer="svg186">
    <inkscape:grid
       type="xygrid"
       id="grid999"
       spacingx="1.0583333"
       spacingy="1.0583333"
       empspacing="2" />
  </sodipodi:namedview>
  <radialGradient
     id="a"
     cx="63.816387"
     cy="120.57538"
     gradientTransform="matrix(.25671949 0 0 .07513332 .550423 285.91971)"
     gradientUnits="userSpaceOnUse"
     r="14.672465">
    <stop
       offset="0"
       id="stop2" />
    <stop
       offset=".5714286"
       id="stop4" />
    <stop
       offset="1"
       stop-opacity="0"
       id="stop6" />
  </radialGradient>
  <linearGradient
     id="b"
     gradientTransform="matrix(.22074034 0 0 .23746357 2.861137 264.84486)"
     gradientUnits="userSpaceOnUse"
     x1="94.42218"
     x2="100.78125"
     xlink:href="#c"
     y1="30.355696"
     y2="35.359375" />
  <linearGradient
     id="c">
    <stop
       offset="0"
       id="stop10" />
    <stop
       offset="1"
       stop-opacity="0"
       id="stop12" />
  </linearGradient>
  <linearGradient
     id="d"
     gradientTransform="matrix(.22074034 0 0 .27016546 2.861138 262.75842)"
     gradientUnits="userSpaceOnUse"
     spreadMethod="reflect"
     x1="28.940924"
     x2="121.36113"
     y1="64.378441"
     y2="52.6054">
    <stop
       offset="0"
       stop-color="#bdbdbd"
       id="stop15" />
    <stop
       offset="1"
       stop-color="#bdbdbd"
       stop-opacity="0"
       id="stop17" />
  </linearGradient>
  <linearGradient
     id="e"
     gradientTransform="matrix(.22074034 0 0 .27016572 2.861137 262.75842)"
     gradientUnits="userSpaceOnUse"
     x1="55.875"
     x2="70.71875"
     xlink:href="#f"
     y1="91.296875"
     y2="91.296875" />
  <linearGradient
     id="f">
    <stop
       offset="0"
       stop-color="#fff"
       stop-opacity=".537906"
       id="stop21" />
    <stop
       offset=".21464799"
       stop-color="#fff"
       id="stop23" />
    <stop
       offset=".66342056"
       stop-color="#fff"
       stop-opacity=".415162"
       id="stop25" />
    <stop
       offset="1"
       stop-color="#fff"
       stop-opacity="0"
       id="stop27" />
  </linearGradient>
  <radialGradient
     id="g"
     cx="63.462833"
     cy="66.417244"
     gradientTransform="matrix(.23868901 0 0 .03810074 1.738199 277.73526)"
     gradientUnits="userSpaceOnUse"
     r="13.788582"
     xlink:href="#c" />
  <radialGradient
     id="h"
     cx="51.78791"
     cy="41.299831"
     gradientTransform="matrix(.4343787 -.2149771 .35891594 .76254239 -25.518612 249.26334)"
     gradientUnits="userSpaceOnUse"
     r="15.995545"
     xlink:href="#f" />
  <radialGradient
     id="i"
     cx="52.715279"
     cy="41.561275"
     gradientTransform="matrix(.4343787 -.21378278 .35891594 .7583059 -25.518612 249.43273)"
     gradientUnits="userSpaceOnUse"
     r="15.995545"
     xlink:href="#f" />
  <radialGradient
     id="j"
     cx="57.214077"
     cy="124.00706"
     fx="49.233025"
     fy="124.00705"
     gradientTransform="matrix(.61953168 -.00000006 0 .28763835 -17.455568 233.99105)"
     gradientUnits="userSpaceOnUse"
     r="11.383312"
     xlink:href="#k" />
  <linearGradient
     id="k">
    <stop
       offset="0"
       stop-color="#fff"
       id="stop34" />
    <stop
       offset="1"
       stop-color="#fff"
       stop-opacity="0"
       id="stop36" />
  </linearGradient>
  <radialGradient
     id="l"
     cx="63.462833"
     cy="66.417244"
     gradientTransform="matrix(.23868901 0 0 .06669799 1.738199 275.83588)"
     gradientUnits="userSpaceOnUse"
     r="13.788582"
     xlink:href="#c" />
  <linearGradient
     id="m"
     gradientTransform="matrix(.22074034 0 0 .16502502 4.251113 266.05862)"
     gradientUnits="userSpaceOnUse"
     x1="27.080584"
     x2="59.768688"
     xlink:href="#k"
     y1="-14.285192"
     y2="17.40625" />
  <linearGradient
     id="n"
     gradientTransform="matrix(.24830857 0 0 .25923263 1.418236 263.24382)"
     gradientUnits="userSpaceOnUse"
     x1="48.648247"
     x2="63.212357"
     xlink:href="#c"
     y1="123.09119"
     y2="60.341194" />
  <linearGradient
     id="o"
     gradientUnits="userSpaceOnUse"
     x1="-35.97854611926"
     x2="-6.57625557637"
     y1="278.87580455716"
     y2="278.87580455716">
    <stop
       offset="0"
       stop-color="#ebebeb"
       id="stop42" />
    <stop
       offset=".3164545"
       stop-color="#cacaca"
       id="stop44" />
    <stop
       offset=".58694273"
       stop-color="#c7c7c7"
       stop-opacity=".955882"
       id="stop46" />
    <stop
       offset=".84601915"
       stop-color="#cacaca"
       id="stop48" />
    <stop
       offset="1"
       stop-color="#dedede"
       id="stop50" />
  </linearGradient>
  <filter
     id="p"
     color-interpolation-filters="sRGB"
     height="1.024"
     width="1.024"
     x="-.012"
     y="-.012">
    <feGaussianBlur
       stdDeviation=".12785668"
       id="feGaussianBlur53" />
  </filter>
  <linearGradient
     id="q"
     gradientUnits="userSpaceOnUse"
     x1="-20.82258421178"
     x2="-20.76609140689"
     y1="267.8255615205"
     y2="290.41223343259">
    <stop
       offset="0"
       stop-color="#171a1c"
       id="stop56" />
    <stop
       offset="1"
       stop-color="#8ca0ac"
       id="stop58" />
  </linearGradient>
  <radialGradient
     id="r"
     cx="63.02887"
     cy="288.18738"
     gradientUnits="userSpaceOnUse"
     r="11.437257">
    <stop
       offset="0"
       stop-color="#7cb5fc"
       id="stop61" />
    <stop
       offset="1"
       stop-color="#0d5bab"
       id="stop63" />
  </radialGradient>
  <filter
     id="s"
     color-interpolation-filters="sRGB"
     height="1.024"
     width="1.024"
     x="-.012"
     y="-.012">
    <feGaussianBlur
       stdDeviation=".11169196"
       id="feGaussianBlur66" />
  </filter>
  <filter
     id="t"
     color-interpolation-filters="sRGB"
     height="1.023839"
     width="1.024163"
     x="-.012082"
     y="-.01192">
    <feGaussianBlur
       stdDeviation=".087289468"
       id="feGaussianBlur69" />
  </filter>
  <linearGradient
     id="u"
     gradientUnits="userSpaceOnUse"
     x1="-21.22929322443"
     x2="-20.8863634812"
     y1="263.57391016059"
     y2="272.99211768692">
    <stop
       offset="0"
       stop-color="#fcfcfc"
       id="stop72" />
    <stop
       offset="1"
       stop-color="#fcfcfc"
       stop-opacity="0"
       id="stop74" />
  </linearGradient>
  <radialGradient
     id="v"
     cx="67.73333"
     cy="277.9501"
     gradientTransform="matrix(-.8970638 0 0 -.8970638 35.588716 530.96545)"
     gradientUnits="userSpaceOnUse"
     r="7.574691">
    <stop
       offset="0"
       stop-color="#bfbfbf"
       id="stop77" />
    <stop
       offset="1"
       stop-color="#dfdfdf"
       stop-opacity="0"
       id="stop79" />
  </radialGradient>
  <filter
     id="w"
     color-interpolation-filters="sRGB"
     height="1.047739"
     width="1.048264"
     x="-.024132"
     y="-.02387">
    <feGaussianBlur
       stdDeviation=".9480859"
       id="feGaussianBlur82" />
  </filter>
  <radialGradient
     id="x"
     cx="21.27340907379"
     cy="276.88302469588"
     gradientUnits="userSpaceOnUse"
     r="6.79498116803">
    <stop
       offset="0"
       stop-color="#e10000"
       id="stop85" />
    <stop
       offset="1"
       stop-color="#851400"
       id="stop87" />
  </radialGradient>
  <radialGradient
     id="y"
     cx="21.27340907379"
     cy="276.88302469588"
     gradientUnits="userSpaceOnUse"
     r="6.79498116803">
    <stop
       offset="0"
       stop-color="#ffbfbf"
       id="stop90" />
    <stop
       offset="1"
       stop-color="#ffbfbf"
       stop-opacity="0"
       id="stop92" />
  </radialGradient>
  <linearGradient
     id="z"
     gradientUnits="userSpaceOnUse"
     x1="16.52645280471"
     x2="17.47584234674"
     y1="277.83243853154"
     y2="281.63001464096">
    <stop
       offset="0"
       stop-color="#525252"
       id="stop95" />
    <stop
       offset="1"
       stop-color="#d8d8d8"
       id="stop97" />
  </linearGradient>
  <radialGradient
     id="A"
     cx="17.52717078726"
     cy="278.6823772404"
     gradientUnits="userSpaceOnUse"
     r="2.42715944662">
    <stop
       offset="0"
       stop-color="#e8e8e8"
       id="stop100" />
    <stop
       offset="1"
       stop-color="#c7c7c7"
       id="stop102" />
  </radialGradient>
  <filter
     id="B"
     color-interpolation-filters="sRGB"
     height="1.08803"
     width="1.060909"
     x="-.030454"
     y="-.044015">
    <feGaussianBlur
       stdDeviation=".61981931"
       id="feGaussianBlur105" />
  </filter>
  <g
     transform="translate(0 -263.13332)"
     id="g142">
    <ellipse
       cx="16.933332"
       cy="294.97891"
       fill="url(#a)"
       opacity=".413934"
       rx="3.766708"
       ry="1.10239"
       id="ellipse108" />
    <path
       d="m14.115409 264.14435v-.73928z"
       fill="#fff"
       fill-opacity=".756881"
       id="path110" />
    <path
       d="m27.190848 268.22872c-2.842648 4.00967-6.170222 7.75698-8.109825 11.76665l.309876-.0105 9.441707-12.21625c-.604988.25688-1.147087.40101-1.641758.46009z"
       fill="url(#b)"
       opacity=".42"
       id="path112" />
    <path
       d="m16.954087 263.39791c-7.0085027 0-12.6963329 1.3867-12.6963329 2.97558 0 3.27501 9.8702419 13.37057 9.8702419 13.37057.04081.0584.0894.15521.08591.26801v14.41021c0 .35533.491675.57628 2.425597.57628 1.892583 0 3.054757-.1703 3.054757-.57628 0-.002.000191-.007 0-.009l-.01458-14.40122c0-.0661.009-.14128.03975-.19762 0 0 9.889599-10.25739 9.889599-13.56439 0-1.12638-5.646441-2.85215-12.654942-2.85215z"
       style="stroke:#000;stroke-width:.529167;stroke-linecap:round;stroke-linejoin:round;stroke-dashoffset:4;fill:url(#d)"
       id="path114" />
    <path
       d="m16.953555 267.41675c-4.600761 0-8.4104655.56018-9.0174673 1.28604 1.9826819.46741 5.2800713.78054 9.0174673.78054 3.733313 0 7.028106-.30656 9.011507-.77311-.595291-.72785-4.402077-1.29347-9.011507-1.29347z"
       id="path116" />
    <path
       d="m15.194998 280.11657v14.71314c.472303.0993 1.059178.16885 1.759023.16885.582253 0 1.086173-.0483 1.517589-.1182v-14.76379c-1.092204.24392-2.184408.38591-3.276612 0z"
       fill="url(#e)"
       opacity=".614754"
       id="path118" />
    <path
       d="m14.301692 279.80419c-.000873.006-.0062.0108-.0062.0169 0 .32295 1.221275.85367 2.727852.85367 1.506575 0 2.734037-.53072 2.734038-.85367 0-.006-.0054-.011-.0062-.0169-.600839.13616-1.598544.21951-2.727852.21951-1.129041 0-2.120782-.0834-2.721667-.21951z"
       fill="url(#g)"
       opacity=".11"
       id="path120" />
    <path
       d="m15.194998 280.15535-3.39489-10.53237c2.335252.26645 4.717967.15862 7.061719.0424l-.390217 10.48992c-1.092204.20436-2.184408.32332-3.276612 0z"
       fill="url(#h)"
       opacity=".758197"
       id="path122" />
    <path
       d="m14.301692 279.80419c-.000873.006-.0062.0108-.0062.0169 0 .32295 1.221275.63875 2.727852.63875 1.506575 0 2.734037-.3158 2.734038-.63875 0-.006-.0054-.011-.0062-.0169-.600839.13616-1.61604.36278-2.745348.36278-1.129041 0-2.103286-.22667-2.704171-.36278z"
       fill="url(#g)"
       opacity=".11"
       id="path124" />
    <ellipse
       cx="16.9384"
       cy="266.44797"
       rx="12.546605"
       ry="3.027167"
       style="fill:none;stroke:#5b5b5b;stroke-width:.29568;stroke-linecap:round;stroke-linejoin:round;stroke-dashoffset:4"
       id="ellipse126" />
    <path
       d="m15.009645 280.12326-3.926943-10.50028c2.335253.26497 6.042408.21402 8.386161.0985l-.850921 10.43165c-1.092205.20322-2.516093.29168-3.608297-.0299z"
       fill="url(#i)"
       opacity=".758197"
       id="path128" />
    <ellipse
       cx="16.9384"
       cy="266.44797"
       rx="12.55377"
       ry="3.070989"
       style="fill:none;stroke-width:.208022;stroke-linecap:round;stroke-linejoin:round;stroke-dashoffset:4;stroke:url(#j)"
       id="ellipse130" />
    <path
       d="m14.301692 279.80419c-.000873.006-.0062.0108-.0062.0169 0 .32295 1.230023 1.09246 2.736599 1.09246s2.72529-.76951 2.725291-1.09246c0-.006-.0054-.011-.0062-.0169-.600839.13616-1.668526.42248-2.797834.42248-1.129042 0-2.0508-.28637-2.651685-.42248z"
       fill="url(#l)"
       opacity=".11"
       id="path132" />
    <path
       d="m15.015646 280.07375.179352 14.75596c.472303.0993 1.059178.16885 1.759023.16885.582253 0 1.086173-.0483 1.517589-.1182l.124167-14.76379c-1.092204.24392-2.487926.3431-3.580131-.0428z"
       fill="url(#e)"
       opacity=".614754"
       id="path134" />
    <path
       d="m19.100114 279.99342h.275924v14.72294l-.285681.10421z"
       opacity=".213115"
       id="path136" />
    <path
       d="m12.98898 267.62096c-1.177348.0493-1.013644.17666-1.915615.26325.85045.3609 1.826864.65629 2.641985.96952 1.084137.0439 2.24347.0658 3.455964.0774-.778743-.38809-1.746369-1.36381-2.904113-1.50801-.812998-.10126-1.260345.20558-1.278221.19788z"
       fill="url(#m)"
       opacity=".836066"
       id="path138" />
    <path
       d="m14.216232 279.9115-.0043-.004.04268 14.63864c.03919.15889.172058.18246.285682.23383.195693-6.03414-.133551-10.20499-.324021-14.86842z"
       fill="url(#n)"
       opacity=".532787"
       id="path140" />
  </g>
  <g
     id="g1049"
     transform="translate(-6.123535e-7,2.1166684)">
    <rect
       height="87.252205"
       rx="1.85197"
       ry="2.186269"
       transform="matrix(0.26458334,0,0,0.24694444,-21.068414,-54.332456)"
       width="92.000023"
       x="111.62864"
       y="258.59039"
       id="rect95"
       style="opacity:0.75;fill:#000000;fill-opacity:1;filter:url(#b-3)" />
    <rect
       height="19.050001"
       rx="2.6458335e-07"
       width="22.224998"
       x="9.5249987"
       y="10.583335"
       id="rect171"
       style="fill:url(#a-6);stroke-width:0.26458335" />
    <rect
       height="5.2916675"
       rx="5.291667e-07"
       ry="2.6458335e-07"
       width="17.991667"
       x="11.641665"
       y="12.700002"
       id="rect323"
       style="fill-opacity:0.16763;stroke-width:0.26458335" />
    <rect
       height="3.1750009"
       rx="5.291667e-07"
       ry="0"
       width="13.758335"
       x="13.758331"
       y="14.816668"
       id="rect325"
       style="fill:#ffffff;stroke-width:0.26458335" />
    <rect
       height="8.4666672"
       rx="5.291667e-07"
       ry="2.6458335e-07"
       transform="scale(1,-1)"
       width="13.758331"
       x="13.758331"
       y="-28.575001"
       id="rect327"
       style="fill-opacity:0.375;stroke-width:0.26458335" />
    <rect
       height="6.3499975"
       rx="5.291667e-07"
       ry="2.6458335e-07"
       width="13.758335"
       x="13.758331"
       y="20.108334"
       id="rect329"
       style="fill:url(#c-5);stroke-width:0.26458335" />
    <text
       font-size="26.280231"
       letter-spacing="0"
       word-spacing="0"
       x="16.563021"
       y="25.455942"
       id="text333"
       style="font-size:5.22669649px;font-family:sans-serif;letter-spacing:0;word-spacing:0;stroke-width:0.13066746">
      <tspan
         font-weight="600"
         letter-spacing="5"
         x="16.563021"
         y="25.455942"
         id="tspan331"
         style="font-weight:600;font-family:FreeSans;letter-spacing:0.59664959px;stroke-width:0.13066746">OK</tspan>
    </text>
  </g>
</svg>
