<svg height="128" viewBox="0 0 33.866666 33.866668" width="128" xmlns="http://www.w3.org/2000/svg" xmlns:xlink="http://www.w3.org/1999/xlink"><radialGradient id="a" cx="63.816387" cy="120.57538" gradientTransform="matrix(.25671949 0 0 .07513332 .550423 285.91971)" gradientUnits="userSpaceOnUse" r="14.672465"><stop offset="0"/><stop offset=".5714286"/><stop offset="1" stop-opacity="0"/></radialGradient><linearGradient id="b" gradientTransform="matrix(.22074034 0 0 .23746357 2.861137 264.84486)" gradientUnits="userSpaceOnUse" x1="94.42218" x2="100.78125" xlink:href="#c" y1="30.355696" y2="35.359375"/><linearGradient id="c"><stop offset="0"/><stop offset="1" stop-opacity="0"/></linearGradient><linearGradient id="d" gradientTransform="matrix(.22074034 0 0 .27016546 2.861138 262.75842)" gradientUnits="userSpaceOnUse" spreadMethod="reflect" x1="28.940924" x2="121.36113" y1="64.378441" y2="52.6054"><stop offset="0" stop-color="#bdbdbd"/><stop offset="1" stop-color="#bdbdbd" stop-opacity="0"/></linearGradient><linearGradient id="e" gradientTransform="matrix(.22074034 0 0 .27016572 2.861137 262.75842)" gradientUnits="userSpaceOnUse" x1="55.875" x2="70.71875" xlink:href="#f" y1="91.296875" y2="91.296875"/><linearGradient id="f"><stop offset="0" stop-color="#fff" stop-opacity=".537906"/><stop offset=".21464799" stop-color="#fff"/><stop offset=".66342056" stop-color="#fff" stop-opacity=".415162"/><stop offset="1" stop-color="#fff" stop-opacity="0"/></linearGradient><radialGradient id="g" cx="63.462833" cy="66.417244" gradientTransform="matrix(.23868901 0 0 .03810074 1.738199 277.73526)" gradientUnits="userSpaceOnUse" r="13.788582" xlink:href="#c"/><radialGradient id="h" cx="51.78791" cy="41.299831" gradientTransform="matrix(.4343787 -.2149771 .35891594 .76254239 -25.518612 249.26334)" gradientUnits="userSpaceOnUse" r="15.995545" xlink:href="#f"/><radialGradient id="i" cx="52.715279" cy="41.561275" gradientTransform="matrix(.4343787 -.21378278 .35891594 .7583059 -25.518612 249.43273)" gradientUnits="userSpaceOnUse" r="15.995545" xlink:href="#f"/><radialGradient id="j" cx="57.214077" cy="124.00706" fx="49.233025" fy="124.00705" gradientTransform="matrix(.61953168 -.00000006 0 .28763835 -17.455568 233.99105)" gradientUnits="userSpaceOnUse" r="11.383312" xlink:href="#k"/><linearGradient id="k"><stop offset="0" stop-color="#fff"/><stop offset="1" stop-color="#fff" stop-opacity="0"/></linearGradient><radialGradient id="l" cx="63.462833" cy="66.417244" gradientTransform="matrix(.23868901 0 0 .06669799 1.738199 275.83588)" gradientUnits="userSpaceOnUse" r="13.788582" xlink:href="#c"/><linearGradient id="m" gradientTransform="matrix(.22074034 0 0 .16502502 4.251113 266.05862)" gradientUnits="userSpaceOnUse" x1="27.080584" x2="59.768688" xlink:href="#k" y1="-14.285192" y2="17.40625"/><linearGradient id="n" gradientTransform="matrix(.24830857 0 0 .25923263 1.418236 263.24382)" gradientUnits="userSpaceOnUse" x1="48.648247" x2="63.212357" xlink:href="#c" y1="123.09119" y2="60.341194"/><linearGradient id="o" gradientUnits="userSpaceOnUse" x1="-35.97854611926" x2="-6.57625557637" y1="278.87580455716" y2="278.87580455716"><stop offset="0" stop-color="#ebebeb"/><stop offset=".3164545" stop-color="#cacaca"/><stop offset=".58694273" stop-color="#c7c7c7" stop-opacity=".955882"/><stop offset=".84601915" stop-color="#cacaca"/><stop offset="1" stop-color="#dedede"/></linearGradient><filter id="p" color-interpolation-filters="sRGB" height="1.024" width="1.024" x="-.012" y="-.012"><feGaussianBlur stdDeviation=".12785668"/></filter><linearGradient id="q" gradientUnits="userSpaceOnUse" x1="-20.82258421178" x2="-20.76609140689" y1="267.8255615205" y2="290.41223343259"><stop offset="0" stop-color="#171a1c"/><stop offset="1" stop-color="#8ca0ac"/></linearGradient><radialGradient id="r" cx="63.02887" cy="288.18738" gradientUnits="userSpaceOnUse" r="11.437257"><stop offset="0" stop-color="#7cb5fc"/><stop offset="1" stop-color="#0d5bab"/></radialGradient><filter id="s" color-interpolation-filters="sRGB" height="1.024" width="1.024" x="-.012" y="-.012"><feGaussianBlur stdDeviation=".11169196"/></filter><filter id="t" color-interpolation-filters="sRGB" height="1.023839" width="1.024163" x="-.012082" y="-.01192"><feGaussianBlur stdDeviation=".087289468"/></filter><linearGradient id="u" gradientUnits="userSpaceOnUse" x1="-21.22929322443" x2="-20.8863634812" y1="263.57391016059" y2="272.99211768692"><stop offset="0" stop-color="#fcfcfc"/><stop offset="1" stop-color="#fcfcfc" stop-opacity="0"/></linearGradient><radialGradient id="v" cx="67.73333" cy="277.9501" gradientTransform="matrix(-.8970638 0 0 -.8970638 35.588716 530.96545)" gradientUnits="userSpaceOnUse" r="7.574691"><stop offset="0" stop-color="#bfbfbf"/><stop offset="1" stop-color="#dfdfdf" stop-opacity="0"/></radialGradient><filter id="w" color-interpolation-filters="sRGB" height="1.047739" width="1.048264" x="-.024132" y="-.02387"><feGaussianBlur stdDeviation=".9480859"/></filter><radialGradient id="x" cx="21.27340907379" cy="276.88302469588" gradientUnits="userSpaceOnUse" r="6.79498116803"><stop offset="0" stop-color="#e10000"/><stop offset="1" stop-color="#851400"/></radialGradient><radialGradient id="y" cx="21.27340907379" cy="276.88302469588" gradientUnits="userSpaceOnUse" r="6.79498116803"><stop offset="0" stop-color="#ffbfbf"/><stop offset="1" stop-color="#ffbfbf" stop-opacity="0"/></radialGradient><linearGradient id="z" gradientUnits="userSpaceOnUse" x1="16.52645280471" x2="17.47584234674" y1="277.83243853154" y2="281.63001464096"><stop offset="0" stop-color="#525252"/><stop offset="1" stop-color="#d8d8d8"/></linearGradient><radialGradient id="A" cx="17.52717078726" cy="278.6823772404" gradientUnits="userSpaceOnUse" r="2.42715944662"><stop offset="0" stop-color="#e8e8e8"/><stop offset="1" stop-color="#c7c7c7"/></radialGradient><filter id="B" color-interpolation-filters="sRGB" height="1.08803" width="1.060909" x="-.030454" y="-.044015"><feGaussianBlur stdDeviation=".61981931"/></filter><g transform="translate(0 -263.13332)"><ellipse cx="16.933332" cy="294.97891" fill="url(#a)" opacity=".413934" rx="3.766708" ry="1.10239"/><path d="m14.115409 264.14435v-.73928z" fill="#fff" fill-opacity=".756881"/><path d="m27.190848 268.22872c-2.842648 4.00967-6.170222 7.75698-8.109825 11.76665l.309876-.0105 9.441707-12.21625c-.604988.25688-1.147087.40101-1.641758.46009z" fill="url(#b)" opacity=".42"/><path d="m16.954087 263.39791c-7.0085027 0-12.6963329 1.3867-12.6963329 2.97558 0 3.27501 9.8702419 13.37057 9.8702419 13.37057.04081.0584.0894.15521.08591.26801v14.41021c0 .35533.491675.57628 2.425597.57628 1.892583 0 3.054757-.1703 3.054757-.57628 0-.002.000191-.007 0-.009l-.01458-14.40122c0-.0661.009-.14128.03975-.19762 0 0 9.889599-10.25739 9.889599-13.56439 0-1.12638-5.646441-2.85215-12.654942-2.85215z" style="stroke:#000;stroke-width:.529167;stroke-linecap:round;stroke-linejoin:round;stroke-dashoffset:4;fill:url(#d)"/><path d="m16.953555 267.41675c-4.600761 0-8.4104655.56018-9.0174673 1.28604 1.9826819.46741 5.2800713.78054 9.0174673.78054 3.733313 0 7.028106-.30656 9.011507-.77311-.595291-.72785-4.402077-1.29347-9.011507-1.29347z"/><path d="m15.194998 280.11657v14.71314c.472303.0993 1.059178.16885 1.759023.16885.582253 0 1.086173-.0483 1.517589-.1182v-14.76379c-1.092204.24392-2.184408.38591-3.276612 0z" fill="url(#e)" opacity=".614754"/><path d="m14.301692 279.80419c-.000873.006-.0062.0108-.0062.0169 0 .32295 1.221275.85367 2.727852.85367 1.506575 0 2.734037-.53072 2.734038-.85367 0-.006-.0054-.011-.0062-.0169-.600839.13616-1.598544.21951-2.727852.21951-1.129041 0-2.120782-.0834-2.721667-.21951z" fill="url(#g)" opacity=".11"/><path d="m15.194998 280.15535-3.39489-10.53237c2.335252.26645 4.717967.15862 7.061719.0424l-.390217 10.48992c-1.092204.20436-2.184408.32332-3.276612 0z" fill="url(#h)" opacity=".758197"/><path d="m14.301692 279.80419c-.000873.006-.0062.0108-.0062.0169 0 .32295 1.221275.63875 2.727852.63875 1.506575 0 2.734037-.3158 2.734038-.63875 0-.006-.0054-.011-.0062-.0169-.600839.13616-1.61604.36278-2.745348.36278-1.129041 0-2.103286-.22667-2.704171-.36278z" fill="url(#g)" opacity=".11"/><ellipse cx="16.9384" cy="266.44797" rx="12.546605" ry="3.027167" style="fill:none;stroke:#5b5b5b;stroke-width:.29568;stroke-linecap:round;stroke-linejoin:round;stroke-dashoffset:4"/><path d="m15.009645 280.12326-3.926943-10.50028c2.335253.26497 6.042408.21402 8.386161.0985l-.850921 10.43165c-1.092205.20322-2.516093.29168-3.608297-.0299z" fill="url(#i)" opacity=".758197"/><ellipse cx="16.9384" cy="266.44797" rx="12.55377" ry="3.070989" style="fill:none;stroke-width:.208022;stroke-linecap:round;stroke-linejoin:round;stroke-dashoffset:4;stroke:url(#j)"/><path d="m14.301692 279.80419c-.000873.006-.0062.0108-.0062.0169 0 .32295 1.230023 1.09246 2.736599 1.09246s2.72529-.76951 2.725291-1.09246c0-.006-.0054-.011-.0062-.0169-.600839.13616-1.668526.42248-2.797834.42248-1.129042 0-2.0508-.28637-2.651685-.42248z" fill="url(#l)" opacity=".11"/><path d="m15.015646 280.07375.179352 14.75596c.472303.0993 1.059178.16885 1.759023.16885.582253 0 1.086173-.0483 1.517589-.1182l.124167-14.76379c-1.092204.24392-2.487926.3431-3.580131-.0428z" fill="url(#e)" opacity=".614754"/><path d="m19.100114 279.99342h.275924v14.72294l-.285681.10421z" opacity=".213115"/><path d="m12.98898 267.62096c-1.177348.0493-1.013644.17666-1.915615.26325.85045.3609 1.826864.65629 2.641985.96952 1.084137.0439 2.24347.0658 3.455964.0774-.778743-.38809-1.746369-1.36381-2.904113-1.50801-.812998-.10126-1.260345.20558-1.278221.19788z" fill="url(#m)" opacity=".836066"/><path d="m14.216232 279.9115-.0043-.004.04268 14.63864c.03919.15889.172058.18246.285682.23383.195693-6.03414-.133551-10.20499-.324021-14.86842z" fill="url(#n)" opacity=".532787"/></g><g transform="matrix(.72857169 0 0 .72857169 37.514239 -180.998274)"><circle cx="-21.277401" cy="278.87579" fill="#3d3d3d" r="15.851751"/><circle cx="-21.277401" cy="278.87579" fill="url(#o)" r="14.701143"/><circle cx="62.895233" cy="281.23837" fill="#f0f3f4" filter="url(#p)" r="12.785668" transform="matrix(.96340898 0 0 .96340898 -81.871236 7.928216)"/><circle cx="-21.277401" cy="278.87579" fill="url(#q)" r="10.520621"/><circle cx="62.895233" cy="281.23837" fill="url(#r)" filter="url(#s)" r="11.169196" transform="matrix(.85181634 0 0 .85181634 -74.852588 39.312354)"/><path d="m68.953232 290.2807-1.443425-4.75293c1.416094-1.66975 1.823029-3.9728 1.064875-6.02671l2.979396-3.96944-4.746321 1.45286c-1.669825-1.41586-3.972826-1.82258-6.026605-1.06431l-4.134512-3.21514 1.617929 4.98206c-1.41584 1.66963-1.822725 3.9724-1.064771 6.02613l-2.985837 3.96023 4.752927-1.44343c1.669699 1.41602 3.972653 1.82293 6.02652 1.06485zm-3.668966-5.25007c-1.890643 1.32376-4.496438.8642-5.820182-1.02645-1.323703-1.89056-.864252-4.49622 1.026222-5.82003 1.890562-1.32389 4.496384-.8645 5.820259 1.02606 1.323953 1.89065.864456 4.49661-1.026299 5.82042z" fill="#326fb6" filter="url(#t)" transform="matrix(.89706381 0 0 .89706381 -77.698439 26.587027)"/><g transform="matrix(.34497904 .34497904 -.34497904 .34497904 22.172374 131.96641)"><path d="m169.10577 279.56256-8.05633-4.30293c-.32979-4.01212-2.79507-7.53557-6.45124-9.22028l-1.28722-9.03467-4.28206 8.06c-4.01193.33019-7.53503 2.79568-9.21941 6.45183l-9.55581 1.19534 8.58112 4.37395c.32997 4.01164 2.79494 7.53465 6.45062 9.21939l1.26687 9.03107 4.30292-8.05632c4.01196-.32983 7.53525-2.79501 9.21999-6.45103zm-11.59628-2.05571c-.73704 4.17928-4.72253 6.96975-8.9018 6.23267-4.17909-.73701-6.96953-4.72218-6.23277-8.9013.73677-4.17934 4.72207-6.97007 8.90139-6.23328 4.17954.73681 6.97031 4.72243 6.23318 8.90191z" fill="#dbe8f9"/><path d="m566.44336 16.882812a31.567267 31.567267 0 0 0 -31.56836 31.56836 31.567267 31.567267 0 0 0 31.56836 31.566406 31.567267 31.567267 0 0 0 31.56641-31.566406 31.567267 31.567267 0 0 0 -31.56641-31.56836zm0 2.525391a29.041884 29.041884 0 0 1 29.04102 29.042969 29.041884 29.041884 0 0 1 -29.04102 29.041016 29.041884 29.041884 0 0 1 -29.04297-29.041016 29.041884 29.041884 0 0 1 29.04297-29.042969z" fill="#f7fcfe" transform="matrix(.26458333 0 0 .26458333 0 263.13332)"/></g><path d="m-21.27726 264.35938a12.06508 6.2629251 0 0 0 -3.882316.33979 14.701143 14.701143 0 0 0 -8.172866 5.77299 12.06508 6.2629251 0 0 0 -.01019.15048 12.06508 6.2629251 0 0 0 1.592632 3.09401 11.688499 11.688499 0 0 1 10.472742-6.52926 11.688499 11.688499 0 0 1 10.48051 6.52829 12.06508 6.2629251 0 0 0 1.584381-3.09304 12.06508 6.2629251 0 0 0 -.0131-.13543 14.701143 14.701143 0 0 0 -8.322856-5.81328 12.06508 6.2629251 0 0 0 -3.728928-.31455z" fill="url(#u)"/><path d="m-32.244837 290.08909 13.589961-9.23499-2.080013-2.08001z" fill="url(#v)"/><g transform="matrix(1.3635575 0 0 1.3635575 -44.381938 -102.89406)"><path d="m285.0332 23.582031-57.25586 38.908203 10.08985 10.091797-47.125 46.326169 57.25781-38.9082-.77734-.777344z" fill="#1c0f0f" filter="url(#w)" transform="matrix(.23734813 0 0 .23734813 -38.234181 264.05174)"/><path d="m28.345842 268.42042-13.589964 9.23498 4.354979 4.35499z" fill="url(#x)"/><path d="m5.5208237 291.24544 9.2349853-13.58997 4.354978 4.35498z" fill="#e8e8e8"/><path d="m26.656733 269.80571-11.593498 7.87909 1.774854 1.7731z" fill="url(#y)"/><circle cx="16.933331" cy="279.83292" fill="url(#z)" r="2.598824"/><circle cx="16.933331" cy="279.83292" fill="url(#A)" r="2.427159"/><circle cx="16.933331" cy="279.83292" fill="#555" r="1.1984"/><path d="m278.68164 26.181641-48.8457 33.197265.60156.59961 44.91797-30.527344z" fill="#fefefe" filter="url(#B)" transform="matrix(.23734813 0 0 .23734813 -39.487706 263.59154)"/></g></g></svg>