<?xml version="1.0" encoding="UTF-8" standalone="no"?>
<svg
   xmlns:dc="http://purl.org/dc/elements/1.1/"
   xmlns:cc="http://creativecommons.org/ns#"
   xmlns:rdf="http://www.w3.org/1999/02/22-rdf-syntax-ns#"
   xmlns:svg="http://www.w3.org/2000/svg"
   xmlns="http://www.w3.org/2000/svg"
   xmlns:xlink="http://www.w3.org/1999/xlink"
   xmlns:sodipodi="http://sodipodi.sourceforge.net/DTD/sodipodi-0.dtd"
   xmlns:inkscape="http://www.inkscape.org/namespaces/inkscape"
   height="128"
   viewBox="0 0 33.866666 33.866668"
   width="128"
   version="1.1"
   id="svg20"
   sodipodi:docname="sc_heading1parastyle.svg"
   inkscape:version="0.92.3 (unknown)"
   inkscape:export-filename="/home/rizmut/Dokumen/Rizmut/Github/libreoffice-style-karasa-jaga/build/images_karasa_jaga/cmd/sc_heading1parastyle.png"
   inkscape:export-xdpi="12"
   inkscape:export-ydpi="12">
  <metadata
     id="metadata26">
    <rdf:RDF>
      <cc:Work
         rdf:about="">
        <dc:format>image/svg+xml</dc:format>
        <dc:type
           rdf:resource="http://purl.org/dc/dcmitype/StillImage" />
        <dc:title></dc:title>
      </cc:Work>
    </rdf:RDF>
  </metadata>
  <defs
     id="defs24">
    <linearGradient
       inkscape:collect="always"
       xlink:href="#linearGradient4372"
       id="linearGradient4816"
       gradientUnits="userSpaceOnUse"
       gradientTransform="matrix(1.3648599,0,0,1.3648599,-891.92977,-361.00543)"
       x1="778.88196"
       y1="289.57986"
       x2="778.88196"
       y2="284.53162" />
    <linearGradient
       inkscape:collect="always"
       id="linearGradient4372">
      <stop
         style="stop-color:#0066ff;stop-opacity:1;"
         offset="0"
         id="stop4374" />
      <stop
         style="stop-color:#80b3ff;stop-opacity:1"
         offset="1"
         id="stop4376" />
    </linearGradient>
    <linearGradient
       inkscape:collect="always"
       xlink:href="#a"
       id="linearGradient944"
       gradientUnits="userSpaceOnUse"
       x1="15.71217359615"
       y1="294.720546641"
       x2="16.9333311282"
       y2="266.6339107115" />
    <linearGradient
       inkscape:collect="always"
       xlink:href="#a"
       id="linearGradient946"
       gradientUnits="userSpaceOnUse"
       x1="15.71217359615"
       y1="294.720546641"
       x2="16.9333311282"
       y2="266.6339107115" />
    <linearGradient
       inkscape:collect="always"
       xlink:href="#b"
       id="linearGradient968"
       x1="34.167969"
       y1="20.28125"
       x2="44.113281"
       y2="80.78125"
       gradientUnits="userSpaceOnUse"
       gradientTransform="matrix(0.26458334,0,0,0.27681548,0,-1.0278082)" />
    <linearGradient
       inkscape:collect="always"
       xlink:href="#a"
       id="linearGradient970"
       gradientUnits="userSpaceOnUse"
       x1="15.71217359615"
       y1="294.720546641"
       x2="16.9333311282"
       y2="266.6339107115" />
  </defs>
  <sodipodi:namedview
     pagecolor="#ffffff"
     bordercolor="#666666"
     borderopacity="1"
     objecttolerance="10"
     gridtolerance="10"
     guidetolerance="10"
     inkscape:pageopacity="0"
     inkscape:pageshadow="2"
     inkscape:window-width="1366"
     inkscape:window-height="706"
     id="namedview22"
     showgrid="true"
     inkscape:snap-global="false"
     inkscape:zoom="2"
     inkscape:cx="79.732723"
     inkscape:cy="90.182602"
     inkscape:window-x="0"
     inkscape:window-y="0"
     inkscape:window-maximized="1"
     inkscape:current-layer="svg20">
    <inkscape:grid
       type="xygrid"
       id="grid833"
       spacingx="2.1166667"
       spacingy="2.1166667"
       empspacing="2" />
  </sodipodi:namedview>
  <linearGradient
     id="a"
     gradientUnits="userSpaceOnUse"
     x1="15.71217359615"
     x2="16.9333311282"
     y1="294.720546641"
     y2="266.6339107115">
    <stop
       offset="0"
       stop-color="#555"
       id="stop2" />
    <stop
       offset="1"
       id="stop4" />
  </linearGradient>
  <linearGradient
     id="b"
     gradientUnits="userSpaceOnUse"
     x1="15.7121748"
     x2="16.93333272"
     y1="262.97044706116"
     y2="288.61476216"
     gradientTransform="matrix(0.77923657,0,0,1,-1.6882004,-263.13332)">
    <stop
       offset="0"
       stop-color="#3b3e22"
       id="stop7" />
    <stop
       offset="1"
       stop-color="#454545"
       stop-opacity="0"
       id="stop9" />
  </linearGradient>
  <g
     id="g975">
    <g
       transform="matrix(0.77923657,0,0,1.0462317,-1.6882004,-276.32623)"
       aria-label="H"
       style="font-size:40.61514282px;font-family:sans-serif;letter-spacing:0;word-spacing:0;fill:url(#linearGradient970);stroke-width:1.015378"
       id="text14">
      <path
         d="m 10.287181,279.12636 10.956823,-0.0331 v -8.29166 c 0,-1.53866 -0.213703,-2.5217 -0.641108,-2.9491 -0.427406,-0.4559 -1.467425,-0.75508 -3.120059,-0.89755 v -0.81207 l 13.155149,0.0331 v 0.81207 c -1.652634,0.14247 -2.692653,0.44166 -3.120059,0.89755 -0.427404,0.42741 -0.641107,1.41044 -0.641107,2.9491 v 18.9768 c 0,1.51017 0.22795,2.4932 0.683848,2.94909 0.4559,0.4559 1.481672,0.75508 3.077318,0.89755 v 0.81207 l -13.155149,-0.0331 v -0.81207 c 1.652634,-0.11398 2.692653,-0.41316 3.120059,-0.89755 0.427405,-0.4844 0.641108,-1.62414 0.641108,-3.41924 v -8.3344 l -10.956823,0.0331 v 8.80455 c 0,1.51017 0.22795,2.4932 0.683849,2.94909 0.455899,0.4559 1.481671,0.75508 3.077318,0.89755 v 0.81207 H 2.16648 v -0.81207 c 1.6526339,-0.11397 1.6510401,-0.46477 2.0784453,-0.94917 0.4274054,-0.48439 0.641108,-1.62414 0.641108,-3.41924 v -18.50665 c 0,-1.53866 -0.2137026,-2.52169 -0.641108,-2.9491 -0.4274052,-0.45589 -0.4258114,-0.70346 -2.0784453,-0.84593 v -0.81207 h 11.881868 v 0.81207 c -1.652634,0.14247 -2.692654,0.44166 -3.120059,0.89755 -0.427405,0.42741 -0.641108,1.41044 -0.641108,2.9491 z"
         style="font-size:42.74053192px;font-family:FreeSerif;fill:url(#linearGradient944);stroke-width:1.015378"
         id="path941"
         inkscape:connector-curvature="0"
         sodipodi:nodetypes="ccsccccccsscccccssccscccccsssccccccsc" />
    </g>
    <path
       inkscape:connector-curvature="0"
       id="path951"
       d="m 2.4256918,2.8070595 c 0.00179,0.0024 0.00131,0.0057 0.0031,0.00811 0.00312,0.00468 0.019834,0.022338 0.022738,0.026492 z m 12.7475422,0.018382 c 0.0045,0.00603 0.0033,0.014498 0.0078,0.020545 0.0053,0.00753 0.01277,0.00644 0.01809,0.014057 z m -9.1529296,0.034601 -0.025838,0.035142 c 0.00532,-0.00762 0.013267,-0.00706 0.018603,-0.014597 0.00444,-0.00604 0.00275,-0.014518 0.00723,-0.020545 z m 12.9273766,0 -0.02584,0.035142 c 0.0053,-0.00762 0.01327,-0.00706 0.0186,-0.014597 0.0044,-0.00604 0.0027,-0.014518 0.0072,-0.020545 z m -3.443717,0.8055762 c 0.380141,0.933898 0.503328,1.9766575 0.503328,3.3282738 v 8.6764345 a 1.1413953,1.5324793 0 0 1 -0.267684,0.985074 1.1413953,1.5324793 0 0 1 0.267684,0.98291 v 0.193015 a 20.108334,11.072619 0 0 0 2.106332,-0.64338 V 7.0290362 c 0,-1.3631457 0.123362,-2.414587 0.513147,-3.3536846 z M 2.7724408,3.6877867 c 0.364006,0.9242202 0.488859,1.9551184 0.488859,3.2877244 V 18.662856 a 20.108334,11.072619 0 0 0 1.9249469,0.159493 V 17.672916 A 1.1413953,1.5324793 0 0 1 5.4544475,16.688382 1.1413953,1.5324793 0 0 1 5.1862467,15.705471 V 7.0290362 c 0,-1.3573811 0.1235573,-2.4047464 0.5084964,-3.3412495 z"
       style="opacity:0.75;fill:url(#linearGradient968);fill-opacity:1;stroke:none;stroke-width:1.57452703;stroke-linecap:round;stroke-linejoin:round;stroke-miterlimit:4;stroke-dasharray:none;stroke-dashoffset:0;stroke-opacity:1" />
  </g>
  <g
     id="g10341"
     transform="matrix(3.1733377,0,0,3.1733377,-527.25014,-77.200109)">
    <text
       transform="scale(1.0236449,0.97690126)"
       id="text4957"
       y="34.803917"
       x="168.61671"
       style="font-style:normal;font-weight:normal;line-height:0%;font-family:'Bitstream Vera Sans';display:inline;fill:#000000;fill-opacity:1;stroke:url(#linearGradient4816);stroke-width:2;stroke-linecap:butt;stroke-linejoin:round;stroke-miterlimit:4;stroke-dasharray:none;stroke-opacity:1"
       xml:space="preserve"><tspan
         style="font-style:normal;font-variant:normal;font-weight:bold;font-stretch:normal;font-size:5.95152521px;line-height:125%;font-family:'Liberation Sans';-inkscape-font-specification:'Liberation Sans';text-align:start;writing-mode:lr-tb;text-anchor:start;fill-opacity:1;stroke:url(#linearGradient4816);stroke-width:2;stroke-linejoin:round;stroke-miterlimit:4;stroke-dasharray:none"
         y="34.803917"
         x="168.61671"
         id="tspan4959"
         sodipodi:role="line">1</tspan></text>
    <text
       xml:space="preserve"
       style="font-style:normal;font-weight:normal;line-height:0%;font-family:'Bitstream Vera Sans';display:inline;fill:#bfd9ff;fill-opacity:1;stroke:none"
       x="172.71381"
       y="34"
       id="text4970"><tspan
         sodipodi:role="line"
         id="tspan4972"
         x="172.71381"
         y="34"
         style="font-style:normal;font-variant:normal;font-weight:bold;font-stretch:normal;font-size:5.81405258px;line-height:125%;font-family:'Liberation Sans';-inkscape-font-specification:'Liberation Sans';text-align:start;writing-mode:lr-tb;text-anchor:start;fill:#bfd9ff">1</tspan></text>
  </g>
  <g
     transform="matrix(0.77923657,0,0,1,-1.6882004,-263.13332)"
     aria-label="H"
     style="font-size:40.61514282px;font-family:sans-serif;letter-spacing:0;word-spacing:0;fill:url(#linearGradient946);stroke-width:1.015378"
     id="g955" />
</svg>
