<svg height="128" width="128" xmlns="http://www.w3.org/2000/svg" xmlns:xlink="http://www.w3.org/1999/xlink"><linearGradient id="a"><stop offset="0" stop-color="#b4b4b6"/><stop offset=".5" stop-color="#9c9ca1"/><stop offset="1" stop-color="#cdcdd1"/></linearGradient><linearGradient id="b" gradientTransform="matrix(1.9362358 0 0 1.1370159 40.510108 -137.09613)" gradientUnits="userSpaceOnUse" x1="16.26346" x2="28.913122" y1="29.107885" y2="-12.523698"><stop offset="0" stop-color="#0968ef"/><stop offset="1" stop-color="#aecffc"/></linearGradient><linearGradient id="c" gradientTransform="matrix(.05911826 0 0 .1431311 -6.291397 -134.65389)" gradientUnits="userSpaceOnUse" x1="399.77466" x2="399.77466" xlink:href="#a" y1="1164.6696" y2="549.06134"/><linearGradient id="d" gradientTransform="matrix(.05911826 0 0 .1431311 21.708603 -134.65389)" gradientUnits="userSpaceOnUse" x1="399.77466" x2="399.77466" xlink:href="#a" y1="1164.6696" y2="549.06134"/><linearGradient id="e" gradientTransform="matrix(.05911826 0 0 .1431311 53.708603 -134.65389)" gradientUnits="userSpaceOnUse" x1="399.77466" x2="399.77466" xlink:href="#a" y1="1164.6696" y2="549.06134"/><linearGradient id="f" gradientTransform="matrix(.05911826 0 0 .1431311 81.708603 -134.65389)" gradientUnits="userSpaceOnUse" x1="399.77466" x2="399.77466" xlink:href="#a" y1="1164.6696" y2="549.06134"/><linearGradient id="g" gradientTransform="matrix(.05911826 0 0 .1431311 -6.291397 -118.65389)" gradientUnits="userSpaceOnUse" x1="399.77466" x2="399.77466" xlink:href="#a" y1="1164.6696" y2="549.06134"/><linearGradient id="h" gradientTransform="matrix(.05911826 0 0 .1431311 29.708603 -118.65389)" gradientUnits="userSpaceOnUse" x1="399.77466" x2="399.77466" xlink:href="#a" y1="1164.6696" y2="549.06134"/><linearGradient id="i" gradientTransform="matrix(.05911826 0 0 .1431311 65.708603 -118.65389)" gradientUnits="userSpaceOnUse" x1="399.77466" x2="399.77466" xlink:href="#a" y1="1164.6696" y2="549.06134"/><linearGradient id="j" gradientTransform="matrix(.05911826 0 0 .1431311 -6.291397 -102.65389)" gradientUnits="userSpaceOnUse" x1="399.77466" x2="399.77466" xlink:href="#a" y1="1164.6696" y2="549.06134"/><linearGradient id="k" gradientTransform="matrix(.05911826 0 0 .1431311 29.708603 -102.65389)" gradientUnits="userSpaceOnUse" x1="399.77466" x2="399.77466" xlink:href="#a" y1="1164.6696" y2="549.06134"/><linearGradient id="l" gradientTransform="matrix(.05911826 0 0 .1431311 65.708603 -102.65389)" gradientUnits="userSpaceOnUse" x1="399.77466" x2="399.77466" xlink:href="#a" y1="1164.6696" y2="549.06134"/><rect fill="url(#b)" height="128" rx="3.716668" ry="4.000002" transform="rotate(90)" width="8" x="64" y="-128"/><rect fill="url(#c)" height="8" rx="3.302412" ry="3.632653" transform="matrix(1 0 0 -1 0 8)" width="24" x="8" y="-48"/><rect fill="url(#d)" height="8" rx="3.302412" ry="3.632653" transform="matrix(1 0 0 -1 0 8)" width="24" x="36" y="-48"/><rect fill="url(#e)" height="8" rx="3.302412" ry="3.632653" transform="matrix(1 0 0 -1 0 8)" width="24" x="68" y="-48"/><rect fill="url(#f)" height="8" rx="3.302412" ry="3.632653" transform="matrix(1 0 0 -1 0 8)" width="24" x="96" y="-48"/><rect fill="url(#g)" height="8" rx="3.302412" ry="3.632653" transform="matrix(1 0 0 -1 0 8)" width="32" x="8" y="-32"/><rect fill="url(#h)" height="8" rx="3.302412" ry="3.632653" transform="matrix(1 0 0 -1 0 8)" width="32" x="44" y="-32"/><rect fill="url(#i)" height="8" rx="3.302412" ry="3.632653" transform="matrix(1 0 0 -1 0 8)" width="40" x="80" y="-32"/><rect fill="url(#j)" height="8" rx="3.302412" ry="3.632653" transform="matrix(1 0 0 -1 0 8)" width="32" x="8" y="-16"/><rect fill="url(#k)" height="8" rx="3.302412" ry="3.632653" transform="matrix(1 0 0 -1 0 8)" width="32" x="44" y="-16"/><rect fill="url(#l)" height="8" rx="3.302412" ry="3.632653" transform="matrix(1 0 0 -1 0 8)" width="40" x="80" y="-16"/><rect fill="url(#c)" height="8" rx="3.302412" ry="3.632653" transform="translate(0 128)" width="24" x="8" y="-48"/><rect fill="url(#d)" height="8" rx="3.302412" ry="3.632653" transform="translate(0 128)" width="24" x="36" y="-48"/><rect fill="url(#e)" height="8" rx="3.302412" ry="3.632653" transform="translate(0 128)" width="24" x="68" y="-48"/><rect fill="url(#f)" height="8" rx="3.302412" ry="3.632653" transform="translate(0 128)" width="24" x="96" y="-48"/><rect fill="url(#g)" height="8" rx="3.302412" ry="3.632653" transform="translate(0 128)" width="32" x="8" y="-32"/><rect fill="url(#h)" height="8" rx="3.302412" ry="3.632653" transform="translate(0 128)" width="32" x="44" y="-32"/><rect fill="url(#i)" height="8" rx="3.302412" ry="3.632653" transform="translate(0 128)" width="40" x="80" y="-32"/><rect fill="url(#j)" height="8" rx="3.302412" ry="3.632653" transform="translate(0 128)" width="32" x="8" y="-16"/><rect fill="url(#k)" height="8" rx="3.302412" ry="3.632653" transform="translate(0 128)" width="32" x="44" y="-16"/><rect fill="url(#l)" height="8" rx="3.302412" ry="3.632653" transform="translate(0 128)" width="40" x="80" y="-16"/></svg>