<svg enable-background="new 0 0 128 128" height="128" viewBox="0 0 128 128" width="128" xmlns="http://www.w3.org/2000/svg" xmlns:xlink="http://www.w3.org/1999/xlink"><linearGradient id="a"><stop offset="0" stop-color="#fff"/><stop offset="1" stop-color="#fff" stop-opacity="0"/></linearGradient><linearGradient id="b" gradientUnits="userSpaceOnUse" x1="28" x2="28" xlink:href="#a" y1="57.5" y2="0"/><filter id="c" height="1.294962" width="1.106002" x="-.053001" y="-.147481"><feGaussianBlur stdDeviation="1.4133574"/></filter><clipPath id="d"><path d="m18.1875 56c-1.219674 0-2.1875.967827-2.1875 2.1875v17.0625c9.640301 2.396967 20.509296 3.75 32 3.75s22.359699-1.353033 32-3.75v-17.0625c0-1.219674-.967827-2.1875-2.1875-2.1875z" filter="url(#c)"/></clipPath><linearGradient gradientUnits="userSpaceOnUse" x1="56" x2="56" xlink:href="#b" y1="20" y2="88.117546"/><filter id="e"><feGaussianBlur stdDeviation="1.9"/></filter><filter id="f"><feGaussianBlur stdDeviation="1.1263538"/></filter><linearGradient id="g" gradientUnits="userSpaceOnUse" x1="56" x2="56" xlink:href="#b" y1="32" y2="88.117546"/><linearGradient id="h" gradientUnits="userSpaceOnUse" x1="52" x2="52" y1="64" y2="68"><stop offset="0"/><stop offset="1" stop-opacity="0"/></linearGradient><radialGradient id="i" cx="48" cy="112" gradientTransform="matrix(1 0 0 .75 0 28)" gradientUnits="userSpaceOnUse" r="32"><stop offset="0" stop-color="#ffea00"/><stop offset="1" stop-color="#ffa000"/></radialGradient><radialGradient id="j" cx="100.88867" cy="155.99673" gradientTransform="matrix(4.3885832 0 0 3.8888885 -340.15832 -425.43169)" gradientUnits="userSpaceOnUse" r="40"><stop offset="0" stop-color="#fff"/><stop offset=".11366145" stop-color="#bdbebf"/><stop offset=".20296688" stop-color="#ececec"/><stop offset=".2363" stop-color="#fafafa"/><stop offset=".38818121" stop-color="#fff"/><stop offset=".5313" stop-color="#fafafa"/><stop offset=".8449" stop-color="#ebecec"/><stop offset="1" stop-color="#e1e2e3"/></radialGradient><filter id="k" color-interpolation-filters="sRGB" height="1.072142" width="1.071866" x="-.035933" y="-.036071"><feGaussianBlur stdDeviation=".66434216"/></filter><radialGradient id="l" cx="-55.685837" cy="-347.11612" gradientTransform="matrix(-.91762954 -.24587809 .26650439 -.99460792 -14.509941 -705.18366)" gradientUnits="userSpaceOnUse" r="22.14249"><stop offset="0" stop-color="#82c133"/><stop offset="1" stop-color="#72b028"/></radialGradient><linearGradient id="m" gradientUnits="userSpaceOnUse" x1="328.12448" x2="336.98077" y1="120.81158" y2="87.759453"><stop offset="0" stop-color="#96ff00"/><stop offset="1" stop-color="#609800"/></linearGradient><clipPath id="n"><circle cx="343.91208" cy="92.325096" r="36" transform="matrix(.86602539 .50000002 .49999965 -.86602561 0 0)"/></clipPath><filter id="o"><feGaussianBlur stdDeviation="2.8805897"/></filter><radialGradient id="p" cx="343.99899" cy="92" gradientTransform="matrix(.46130197 0 0 .46130166 -219.03541 -372.17548)" gradientUnits="userSpaceOnUse" r="36"><stop offset="0" stop-color="#e5ff00"/><stop offset="1" stop-color="#bff500" stop-opacity="0"/></radialGradient><linearGradient id="q" gradientTransform="matrix(0 .51133072 -.51133109 0 76.138665 324.51289)" gradientUnits="userSpaceOnUse" x1="-80.00296" x2="-45.096584" xlink:href="#a" y1="-131.93112" y2="-131.93112"/><linearGradient id="r" gradientUnits="userSpaceOnUse" x1="122.000035" x2="122.000035" y1="61.999997" y2="9.932843"><stop offset="0" stop-color="#314d00" stop-opacity="0"/><stop offset=".5" stop-color="#194d00"/><stop offset="1" stop-color="#2d4d00" stop-opacity="0"/></linearGradient><filter id="s"><feGaussianBlur stdDeviation="1.04"/></filter><g transform="matrix(1.4153344 0 0 1.4153344 -3.93605 -55.86113)"><path d="m15 48.6875c-3.884437 0-7 3.146813-7 7.03125v57.96875c0 3.88444 3.115563 7 7 7h66c3.884437 0 7-3.11556 7-7v-57.96875c0-3.884437-3.115563-7.03125-7-7.03125h-8.6v2.99375c0 .95614-.762611 1.71875-1.71875 1.71875h-5.3625c-.95614 0-1.71875-.762611-1.71875-1.71875v-2.99375z" style="fill:#020202;stroke:#000;stroke-width:2;stroke-linecap:round;stroke-linejoin:round;stroke-dashoffset:1.0878;filter:url(#e)"/><path d="m14.625 48c-3.668031 0-6.625 2.956969-6.625 6.625v58.75c0 3.66803 2.956969 6.625 6.625 6.625h66.75c3.668031 0 6.625-2.95697 6.625-6.625v-58.75c0-3.668031-2.956969-6.625-6.625-6.625h-9.375v2.28125c0 .95614-.762611 1.71875-1.71875 1.71875h-4.5625c-.95614 0-1.71875-.762611-1.71875-1.71875v-2.28125z" fill="#fff"/><path d="m14.25 49c-2.903795 0-5.25 2.346204-5.25 5.25v59.5c0 2.9038 2.346204 5.25 5.25 5.25h67.5c2.903795 0 5.25-2.3462 5.25-5.25v-59.5c0-2.903795-2.346204-5.25-5.25-5.25h-8.75v1.84375c0 1.195173-.961076 2.15625-2.15625 2.15625h-5.6875c-1.195176 0-2.15625-.961076-2.15625-2.15625v-1.84375z" fill="url(#j)"/><rect fill="url(#i)" height="48" rx="2.201577" width="64" x="16" y="64"/><rect fill="url(#h)" filter="url(#f)" height="32" rx="2.201577" width="64" x="16" y="64"/><path clip-path="url(#d)" d="m18.1875 56c-1.219674 0-2.1875.967827-2.1875 2.1875v17.0625c9.640301 2.396967 20.509296 3.75 32 3.75s22.359699-1.353033 32-3.75v-17.0625c0-1.219674-.967827-2.1875-2.1875-2.1875z" fill="url(#g)" filter="url(#c)" transform="translate(0 8)"/><path d="m16.018069 109.9125v1c0 1.21967.967827 2.1875 2.1875 2.1875h59.625c1.21967 0 2.1875-.96783 2.1875-2.1875v-1c0 1.21967-.96783 2.1875-2.1875 2.1875h-59.625c-1.219673 0-2.1875-.96783-2.1875-2.1875z" fill="#fff"/></g><g transform="matrix(1.6750985 0 0 1.6750985 -204.15016 -469.91239)"><ellipse cx="-217.13077" cy="255.38551" fill="none" rx="22.14249" ry="22.142477" stroke-width=".615069" transform="matrix(-.96592586 -.2588189 -.25881915 .9659258 0 0)"/><ellipse cx="-59.830322" cy="-331.66757" fill="#292929" filter="url(#k)" rx="22.14249" ry="22.142477" transform="matrix(-.93421983 .2432797 -.25032328 -.9079328 4.714699 17.679705)"/><ellipse cx="-60.347961" cy="-329.73572" fill="url(#l)" rx="21.035366" ry="21.035353" transform="matrix(-.96592587 .25881888 -.25881888 -.96592587 0 0)"/><circle cx="343.99899" cy="92" r="36" style="opacity:.8;fill:none;stroke-width:6.751382;clip-path:url(#n);stroke:url(#m);filter:url(#o)" transform="matrix(-.56440567 -.15123195 -.151232 .56440527 351.70189 302.97936)"/><ellipse cx="-60.347996" cy="-329.73572" fill="url(#p)" rx="16.606871" ry="16.606859" stroke-width=".461302" transform="matrix(-.96592583 .25881905 -.25881905 -.96592583 0 0)"/><path d="m143.63359 283.60495c-7.85231 0-14.41363 5.54478-15.99508 12.92708 3.15226 2.93856 9.13349 4.92155 15.99508 4.92155 6.86158 0 12.8428-1.98299 15.99506-4.92155-1.58145-7.3823-8.14276-12.92708-15.99506-12.92708z" fill="url(#q)" opacity=".8" stroke-width=".852104"/><path d="m120.01465 21.014613v13h-11.12625v3.970777h11.12625v11.061281h3.97076v-11.061281h11.12626v-3.970777h-11.12626v-13z" style="fill:none;stroke-width:4;stroke-linecap:round;stroke-linejoin:round;stroke:url(#r);filter:url(#s)" transform="matrix(1.2316998 0 0 1.2316998 -6.63385 260.53982)"/><path d="m140.03421 285.26955v13.70421h-13.7042v7.1987h13.7042v13.7042h7.1987v-13.7042h13.70421v-7.1987h-13.70421v-13.70421z" fill="#fff" fill-rule="evenodd"/></g></svg>