<?xml version="1.0" encoding="UTF-8" standalone="no"?>
<svg
   xmlns:dc="http://purl.org/dc/elements/1.1/"
   xmlns:cc="http://creativecommons.org/ns#"
   xmlns:rdf="http://www.w3.org/1999/02/22-rdf-syntax-ns#"
   xmlns:svg="http://www.w3.org/2000/svg"
   xmlns="http://www.w3.org/2000/svg"
   xmlns:sodipodi="http://sodipodi.sourceforge.net/DTD/sodipodi-0.dtd"
   xmlns:inkscape="http://www.inkscape.org/namespaces/inkscape"
   enable-background="new 0 0 128 128"
   height="128"
   viewBox="0 0 128 128"
   width="128"
   version="1.1"
   id="svg107"
   sodipodi:docname="sc_insertpagecountfield.svg"
   inkscape:version="0.92.3 (unknown)"
   inkscape:export-filename="/home/rizmut/Dokumen/Rizmut/Github/libreoffice-style-karasa-jaga/build/images_karasa_jaga/cmd/sc_insertpagecountfield.png"
   inkscape:export-xdpi="12"
   inkscape:export-ydpi="12">
  <metadata
     id="metadata113">
    <rdf:RDF>
      <cc:Work
         rdf:about="">
        <dc:format>image/svg+xml</dc:format>
        <dc:type
           rdf:resource="http://purl.org/dc/dcmitype/StillImage" />
        <dc:title></dc:title>
      </cc:Work>
    </rdf:RDF>
  </metadata>
  <defs
     id="defs111" />
  <sodipodi:namedview
     pagecolor="#ffffff"
     bordercolor="#666666"
     borderopacity="1"
     objecttolerance="10"
     gridtolerance="10"
     guidetolerance="10"
     inkscape:pageopacity="0"
     inkscape:pageshadow="2"
     inkscape:window-width="1366"
     inkscape:window-height="706"
     id="namedview109"
     showgrid="true"
     inkscape:snap-global="true"
     inkscape:zoom="5.2149125"
     inkscape:cx="52.72472"
     inkscape:cy="70.915318"
     inkscape:window-x="0"
     inkscape:window-y="0"
     inkscape:window-maximized="1"
     inkscape:current-layer="svg107">
    <inkscape:grid
       type="xygrid"
       id="grid920"
       spacingx="4"
       spacingy="4"
       empspacing="2" />
  </sodipodi:namedview>
  <linearGradient
     id="a"
     gradientUnits="userSpaceOnUse"
     x1="85.219681"
     x2="61.336319"
     y1="93.219681"
     y2="69.336319">
    <stop
       offset="0"
       id="stop2" />
    <stop
       offset="1"
       stop-color="#393b38"
       id="stop4" />
  </linearGradient>
  <linearGradient
     id="b"
     gradientUnits="userSpaceOnUse"
     x1="96"
     x2="88.0002"
     y1="104"
     y2="96.0002">
    <stop
       offset="0"
       stop-color="#888a85"
       id="stop7" />
    <stop
       offset=".0072"
       stop-color="#8c8e89"
       id="stop9" />
    <stop
       offset=".0673"
       stop-color="#abaca9"
       id="stop11" />
    <stop
       offset=".1347"
       stop-color="#c5c6c4"
       id="stop13" />
    <stop
       offset=".2115"
       stop-color="#dbdbda"
       id="stop15" />
    <stop
       offset=".3012"
       stop-color="#ebebeb"
       id="stop17" />
    <stop
       offset=".4122"
       stop-color="#f7f7f6"
       id="stop19" />
    <stop
       offset=".5679"
       stop-color="#fdfdfd"
       id="stop21" />
    <stop
       offset="1"
       stop-color="#fff"
       id="stop23" />
  </linearGradient>
  <radialGradient
     id="c"
     cx="102"
     cy="112.3047"
     gradientTransform="matrix(.9787234 0 0 .9818182 1.3617 1.163636)"
     gradientUnits="userSpaceOnUse"
     r="139.55859">
    <stop
       offset="0"
       stop-color="#535557"
       id="stop26" />
    <stop
       offset=".11366145"
       stop-color="#898a8c"
       id="stop28" />
    <stop
       offset=".20296688"
       stop-color="#ececec"
       id="stop30" />
    <stop
       offset=".2363"
       stop-color="#fafafa"
       id="stop32" />
    <stop
       offset=".2722"
       stop-color="#fff"
       id="stop34" />
    <stop
       offset=".5313"
       stop-color="#fafafa"
       id="stop36" />
    <stop
       offset=".8449"
       stop-color="#ebecec"
       id="stop38" />
    <stop
       offset="1"
       stop-color="#e1e2e3"
       id="stop40" />
  </radialGradient>
  <radialGradient
     id="d"
     cx="101.999998"
     cy="112.3047"
     gradientUnits="userSpaceOnUse"
     r="139.5585">
    <stop
       offset="0"
       stop-color="#00537d"
       id="stop43" />
    <stop
       offset=".0151"
       stop-color="#186389"
       id="stop45" />
    <stop
       offset=".0558"
       stop-color="#558ca8"
       id="stop47" />
    <stop
       offset=".0964"
       stop-color="#89afc3"
       id="stop49" />
    <stop
       offset=".1357"
       stop-color="#b3ccd8"
       id="stop51" />
    <stop
       offset=".1737"
       stop-color="#d4e2e9"
       id="stop53" />
    <stop
       offset=".2099"
       stop-color="#ecf2f5"
       id="stop55" />
    <stop
       offset=".2435"
       stop-color="#fafcfd"
       id="stop57" />
    <stop
       offset=".2722"
       stop-color="#fff"
       id="stop59" />
  </radialGradient>
  <filter
     id="e">
    <feGaussianBlur
       stdDeviation="1.0394514"
       id="feGaussianBlur62" />
  </filter>
  <filter
     id="f">
    <feGaussianBlur
       stdDeviation=".50063244"
       id="feGaussianBlur65" />
  </filter>
  <filter
     id="g">
    <feGaussianBlur
       stdDeviation=".4901192"
       id="feGaussianBlur68" />
  </filter>
  <filter
     id="h">
    <feGaussianBlur
       stdDeviation=".90565481"
       id="feGaussianBlur71" />
  </filter>
  <filter
     id="i"
     height="1.247155"
     width="1.247155"
     x="-.123577"
     y="-.123577">
    <feGaussianBlur
       stdDeviation="1.7720846"
       id="feGaussianBlur74" />
  </filter>
  <path
     d="m23 9 .04082 112h61.13118c.53 0 1.039-.211 1.414-.586l32.828-32.828c.375-.375.586-.884.586-1.414v-77.172z"
     filter="url(#e)"
     opacity=".715069"
     transform="matrix(1.0416667 0 0 1.0357143 -9.958338 -3.321534)"
     id="path77" />
  <path
     d="m24.919999 10.931136v108.137934l58.676001-.0001c.53 0 1.039-.211 1.414-.586l31.484-31.765936c.375-.375.586-.884.586-1.414v-74.371898z"
     filter="url(#f)"
     opacity=".89589"
     transform="matrix(1.0416667 0 0 1.0357143 -9.958338 -3.321534)"
     id="path79" />
  <path
     d="m23 9.9655172.040816 111.0344828h61.131184c.53 0 1.039-.211 1.414-.586 13.296921-8.21061 24.14086-19.26784 32.828-32.828.375-.375.586-.884.586-1.414v-76.2064828z"
     filter="url(#e)"
     opacity=".835616"
     transform="matrix(1.0416667 0 0 1.0357143 -9.958338 -3.321534)"
     id="path81" />
  <path
     d="m15.999997 8v112h61.172c.53 0 1.039-.211 1.414-.586l32.828003-32.828c.375-.375.586-.884.586-1.414v-77.172z"
     fill="url(#d)"
     id="path83" />
  <path
     d="m24.67872 16c-.539276 0-.978723.440836-.978723.981818l.3 94.036362c0 .54197.439447.98182.978723.98182h51.913022c.257404 0 .509915-.10407.691957-.28767l26.129531-26.23113c.18303-.1836.28677-.435927.28677-.694145v-67.805237c0-.540982-.43847-.981818-.97872-.981818z"
     fill="url(#c)"
     id="path85" />
  <g
     transform="translate(-.000002)"
     id="g95">
    <path
       d="m111.414 86.586c.25-.25-26.379-1.586-31.414-1.586-1.654 0-3 1.346-3 3 0 5.035 1.336 31.664 1.586 31.414z"
       filter="url(#i)"
       opacity=".906849"
       id="path87" />
    <path
       d="m111.414 86.586c.375-.375-21.97-.586-31.414-.586-1.103 0-2 .897-2 2 0 9.444.211 31.789.586 31.414z"
       filter="url(#h)"
       opacity=".2"
       id="path89" />
    <path
       d="m111.414 86.586c.239-.239-21.607.414-31.414.414-.553 0-1 .447-1 1 0 9.807-.653 31.653-.414 31.414z"
       fill="url(#a)"
       filter="url(#g)"
       opacity=".1"
       id="path91" />
    <path
       d="m78.586 119.414s11.914-9.914 17.414-15.414 15.414-17.414 15.414-17.414-21.164 1.414-31.414 1.414c0 10.25-1.414 31.414-1.414 31.414z"
       fill="url(#b)"
       id="path93" />
  </g>
  <g
     id="g987">
    <g
       id="g982"
       transform="translate(17.117066,-11.636198)">
      <rect
         ry="0"
         transform="rotate(90)"
         style="opacity:1;fill:#1450b3;fill-opacity:1;stroke:none;stroke-width:21.27864075;stroke-linecap:round;stroke-linejoin:round;stroke-miterlimit:4;stroke-dasharray:none;stroke-dashoffset:0;stroke-opacity:1"
         id="rect978"
         width="8.0000019"
         height="48.000008"
         x="43.636196"
         y="-94.882935" />
      <rect
         y="-94.882935"
         x="67.6362"
         height="48"
         width="8.0000019"
         id="rect980"
         style="opacity:1;fill:#1450b3;fill-opacity:1;stroke:none;stroke-width:21.27864075;stroke-linecap:round;stroke-linejoin:round;stroke-miterlimit:4;stroke-dasharray:none;stroke-dashoffset:0;stroke-opacity:1"
         transform="rotate(90)" />
    </g>
    <g
       transform="rotate(90,81.259567,66.376633)"
       id="g979">
      <rect
         y="-86.882942"
         x="43.636196"
         height="48.000008"
         width="8.0000019"
         id="rect975"
         style="opacity:1;fill:#1450b3;fill-opacity:1;stroke:none;stroke-width:21.27864075;stroke-linecap:round;stroke-linejoin:round;stroke-miterlimit:4;stroke-dasharray:none;stroke-dashoffset:0;stroke-opacity:1"
         transform="rotate(90)"
         ry="0" />
      <rect
         transform="rotate(90)"
         style="opacity:1;fill:#1450b3;fill-opacity:1;stroke:none;stroke-width:21.27864075;stroke-linecap:round;stroke-linejoin:round;stroke-miterlimit:4;stroke-dasharray:none;stroke-dashoffset:0;stroke-opacity:1"
         id="rect977"
         width="8.0000019"
         height="48"
         x="67.6362"
         y="-86.882935" />
    </g>
  </g>
  <g
     id="g1001"
     transform="translate(-40,31.999999)">
    <g
       transform="translate(17.117066,-11.636198)"
       id="g993">
      <rect
         y="-94.882935"
         x="43.636196"
         height="48.000008"
         width="8.0000019"
         id="rect989"
         style="opacity:1;fill:#1450b3;fill-opacity:1;stroke:none;stroke-width:21.27864075;stroke-linecap:round;stroke-linejoin:round;stroke-miterlimit:4;stroke-dasharray:none;stroke-dashoffset:0;stroke-opacity:1"
         transform="rotate(90)"
         ry="0" />
      <rect
         transform="rotate(90)"
         style="opacity:1;fill:#1450b3;fill-opacity:1;stroke:none;stroke-width:21.27864075;stroke-linecap:round;stroke-linejoin:round;stroke-miterlimit:4;stroke-dasharray:none;stroke-dashoffset:0;stroke-opacity:1"
         id="rect991"
         width="8.0000019"
         height="48"
         x="67.6362"
         y="-94.882935" />
    </g>
    <g
       id="g999"
       transform="rotate(90,81.259567,66.376633)">
      <rect
         ry="0"
         transform="rotate(90)"
         style="opacity:1;fill:#1450b3;fill-opacity:1;stroke:none;stroke-width:21.27864075;stroke-linecap:round;stroke-linejoin:round;stroke-miterlimit:4;stroke-dasharray:none;stroke-dashoffset:0;stroke-opacity:1"
         id="rect995"
         width="8.0000019"
         height="48.000008"
         x="43.636196"
         y="-86.882942" />
      <rect
         y="-86.882935"
         x="67.6362"
         height="48"
         width="8.0000019"
         id="rect997"
         style="opacity:1;fill:#1450b3;fill-opacity:1;stroke:none;stroke-width:21.27864075;stroke-linecap:round;stroke-linejoin:round;stroke-miterlimit:4;stroke-dasharray:none;stroke-dashoffset:0;stroke-opacity:1"
         transform="rotate(90)" />
    </g>
  </g>
</svg>
