<svg height="128" width="128" xmlns="http://www.w3.org/2000/svg" xmlns:xlink="http://www.w3.org/1999/xlink"><filter id="a"><feGaussianBlur stdDeviation="1.92"/></filter><linearGradient id="b" gradientUnits="userSpaceOnUse" x1="101.09873" x2="101.09873" y1="35.740467" y2="99.845909"><stop offset="0" stop-color="#e5edf8"/><stop offset="1" stop-color="#fafafa"/></linearGradient><linearGradient id="c" gradientUnits="userSpaceOnUse" x1="101.09873" x2="101.09873" y1="36.7673" y2="88.340691"><stop offset="0" stop-color="#cfdff4"/><stop offset="1" stop-color="#fafafa"/></linearGradient><clipPath id="d"><path d="m8 30.477533h112v71.191017h-112z"/></clipPath><filter id="e"><feGaussianBlur stdDeviation="1.5362957"/></filter><linearGradient id="f" gradientTransform="matrix(1 0 0 .9090909 0 13.090909)" gradientUnits="userSpaceOnUse" x1="68.019264" x2="68.019264" xlink:href="#g" y1="48.347881" y2="98.134933"/><linearGradient id="g"><stop offset="0" stop-color="#e0e0e0"/><stop offset="1" stop-color="#fff"/></linearGradient><clipPath id="h"><path d="m8 28.500002h112v71.191017h-112z"/></clipPath><filter id="i"><feGaussianBlur stdDeviation="1.56"/></filter><linearGradient id="j" gradientTransform="matrix(1 0 0 .9090909 0 6.545455)" gradientUnits="userSpaceOnUse" x1="87.53772" x2="87.53772" xlink:href="#g" y1="86.377098" y2="23.310532"/><linearGradient id="k" gradientUnits="userSpaceOnUse" x1="88.56501" x2="88.56501" y1="104.00008" y2="102"><stop offset="0"/><stop offset="1" stop-opacity="0"/></linearGradient><linearGradient id="l" gradientUnits="userSpaceOnUse" x1="70.382027" x2="70.382027" y1="32" y2="35"><stop offset="0" stop-color="#fff"/><stop offset="1" stop-color="#fff" stop-opacity="0"/></linearGradient><linearGradient id="m" gradientUnits="userSpaceOnUse" x1="102.30765" x2="106.01008" y1="39.141762" y2="209.45338"><stop offset="0" stop-color="#99999c"/><stop offset=".5" stop-color="#9c9ca1"/><stop offset="1" stop-color="#cdcdd1"/></linearGradient><linearGradient id="n" gradientUnits="userSpaceOnUse" x1="78.61085034347" x2="120.34349451992" y1="88.85241574791" y2="111.54715161013"><stop offset="0" stop-color="#fff"/><stop offset="1" stop-color="#ccc"/></linearGradient><linearGradient id="o" gradientUnits="userSpaceOnUse" x1="88.38102" x2="130.48599" y1="1008.9966" y2="1015.6953"><stop offset="0" stop-color="#7b7b7b"/><stop offset="1" stop-color="#797979" stop-opacity="0"/></linearGradient><clipPath id="p"><path d="m41.355614 933.74432h83.943993v117.52166h-83.943993z"/></clipPath><filter id="q" color-interpolation-filters="sRGB" height="1.073732" width="1.13754" x="-.06877" y="-.036866"><feGaussianBlur stdDeviation="1.0557314"/></filter><linearGradient id="r" gradientUnits="userSpaceOnUse" x1="98.40846912202" x2="115.2552252896" y1="30.75850104895" y2="77.14050006823"><stop offset="0" stop-color="#fff" stop-opacity=".683453"/><stop offset="1" stop-color="#fff" stop-opacity="0"/></linearGradient><linearGradient id="s" gradientTransform="matrix(.58291629 0 0 .66676377 62.177025 -566.68964)" gradientUnits="userSpaceOnUse" x1="63.011921" x2="63.011921" y1="945.89801" y2="1033.1569"><stop offset="0" stop-color="#545454" stop-opacity=".988"/><stop offset="1" stop-color="#ebebeb"/></linearGradient><linearGradient id="t" gradientTransform="matrix(.48045402 0 0 .66178602 128.73476 -578.51587)" gradientUnits="userSpaceOnUse" x1="-60.535713" x2="-60.357143" y1="979.50507" y2="1009.505"><stop offset="0" stop-color="#979797"/><stop offset=".148461" stop-color="#f6f6f6"/><stop offset=".28399727" stop-color="#e2e2e2"/><stop offset=".41198727" stop-color="#dedede"/><stop offset=".41198727" stop-color="#f6f6f6"/><stop offset="1" stop-color="#6b6b6b"/></linearGradient><linearGradient id="u" gradientTransform="matrix(.480454 0 0 .58309338 128.76683 499.76645)" gradientUnits="userSpaceOnUse" x1="-61.078979" x2="-60.6413" y1="-1056.658" y2="-1010.9131"><stop offset="0" stop-color="#777"/><stop offset=".18176934" stop-color="#a8a8a8"/><stop offset=".22864534" stop-color="#cdcdcd"/><stop offset=".34561315" stop-color="#f7f7f7"/><stop offset="1" stop-color="#fff"/></linearGradient><path d="m8 32.5h112v72h-112z" style="opacity:.5;stroke:#000;stroke-width:8;stroke-linecap:round;stroke-linejoin:round;filter:url(#a)"/><path d="m8 32h112v72h-112z" fill="url(#b)"/><path d="m8 32h112v72h-112z" fill="url(#c)"/><path clip-path="url(#d)" d="m8 32.5 56 40 56-40v-4h-112z" fill="#00438a" filter="url(#e)" opacity=".5" transform="matrix(1 0 0 -.9994652 0 132.46123)"/><path d="m8.0000002 100.36364 55.9999998-36.36364 56 36.36364v3.63636h-111.9999998z" fill="url(#f)"/><path clip-path="url(#h)" d="m8 32.5 56 40 56-40v-4h-112z" fill="#00438a" filter="url(#i)" opacity=".6" transform="matrix(1 0 0 .9772727 0 5.147728)"/><path d="m8.0000002 35.636364 55.9999998 36.363636 56-36.363636v-3.636364h-111.9999998z" fill="url(#j)"/><path d="m8.0000002 100v4h111.9999998v-4z" fill="url(#k)" opacity=".2"/><path d="m8.0000002 32v3h111.9999998v-3z" fill="url(#l)"/><g transform="matrix(1.0803725 0 0 1.0803725 -10.530373 -10.287683)"><path d="m68.985809 46.546616h59.01239v81.453445h-59.01239z" fill="url(#m)"/><path d="m76.390663 53.951469h44.429123v66.643677h-44.429123z" fill="url(#n)"/><path clip-path="url(#p)" d="m92.81509 1029.6319c1.071428 1.4286 10.71429 15.3572 11.78571 13.5715 1.07143-1.7858 26.42857-25.3572 25-26.7858-1.42857-1.4285-33.928567-41.78567-33.928567-41.78567z" fill="url(#o)" fill-rule="evenodd" filter="url(#q)" opacity=".68" transform="matrix(.69309305 0 0 .69309305 41.153912 -600.6251)"/><path d="m72 48v48c14.790777-17.220934 34.04067-23.231931 48-25.4375v-22.5625z" fill="url(#r)" fill-rule="evenodd" transform="matrix(.92560668 0 0 .92560668 9.746984 9.522348)"/><path d="m83.795517 65.058746h29.619415v48.131542h-29.619415z" fill="url(#s)"/><path d="m87.497948 68.761177h22.214558v40.726692h-22.214558z" fill="#535353"/><path d="m91.200371 72.4636h14.809708v14.809709h-14.809708z" fill="url(#t)"/><path d="m91.200371-116.89272h14.809715v29.619408h-14.809715z" fill="url(#u)" transform="scale(1 -1)"/></g></svg>