<?xml version="1.0" encoding="UTF-8" standalone="no"?>
<svg
   xmlns:dc="http://purl.org/dc/elements/1.1/"
   xmlns:cc="http://creativecommons.org/ns#"
   xmlns:rdf="http://www.w3.org/1999/02/22-rdf-syntax-ns#"
   xmlns:svg="http://www.w3.org/2000/svg"
   xmlns="http://www.w3.org/2000/svg"
   xmlns:sodipodi="http://sodipodi.sourceforge.net/DTD/sodipodi-0.dtd"
   xmlns:inkscape="http://www.inkscape.org/namespaces/inkscape"
   height="128"
   width="128"
   version="1.1"
   id="svg1726"
   sodipodi:docname="sc_insertfootnote.svg"
   inkscape:version="0.92.3 (unknown)"
   inkscape:export-filename="/home/rizmut/Dokumen/Rizmut/Github/libreoffice-style-karasa-jaga/build/images_karasa_jaga/cmd/sc_insertfootnote.png"
   inkscape:export-xdpi="12"
   inkscape:export-ydpi="12">
  <metadata
     id="metadata1732">
    <rdf:RDF>
      <cc:Work
         rdf:about="">
        <dc:format>image/svg+xml</dc:format>
        <dc:type
           rdf:resource="http://purl.org/dc/dcmitype/StillImage" />
        <dc:title></dc:title>
      </cc:Work>
    </rdf:RDF>
  </metadata>
  <defs
     id="defs1730" />
  <sodipodi:namedview
     pagecolor="#ffffff"
     bordercolor="#666666"
     borderopacity="1"
     objecttolerance="10"
     gridtolerance="10"
     guidetolerance="10"
     inkscape:pageopacity="0"
     inkscape:pageshadow="2"
     inkscape:window-width="1366"
     inkscape:window-height="706"
     id="namedview1728"
     showgrid="true"
     inkscape:zoom="2.6074563"
     inkscape:cx="14.058307"
     inkscape:cy="70.830866"
     inkscape:window-x="0"
     inkscape:window-y="0"
     inkscape:window-maximized="1"
     inkscape:current-layer="svg1726">
    <inkscape:grid
       type="xygrid"
       id="grid2277"
       spacingx="8"
       spacingy="8"
       empspacing="1" />
  </sodipodi:namedview>
  <filter
     id="a">
    <feGaussianBlur
       stdDeviation="1.0394514"
       id="feGaussianBlur1596" />
  </filter>
  <filter
     id="b">
    <feGaussianBlur
       stdDeviation=".50063244"
       id="feGaussianBlur1599" />
  </filter>
  <radialGradient
     id="c"
     cx="114.000002"
     cy="112.304695"
     gradientUnits="userSpaceOnUse"
     r="139.5585">
    <stop
       offset="0"
       stop-color="#00537d"
       id="stop1602" />
    <stop
       offset=".0151"
       stop-color="#186389"
       id="stop1604" />
    <stop
       offset=".0558"
       stop-color="#558ca8"
       id="stop1606" />
    <stop
       offset=".0964"
       stop-color="#89afc3"
       id="stop1608" />
    <stop
       offset=".1357"
       stop-color="#b3ccd8"
       id="stop1610" />
    <stop
       offset=".1737"
       stop-color="#d4e2e9"
       id="stop1612" />
    <stop
       offset=".2099"
       stop-color="#ecf2f5"
       id="stop1614" />
    <stop
       offset=".2435"
       stop-color="#fafcfd"
       id="stop1616" />
    <stop
       offset=".2722"
       stop-color="#fff"
       id="stop1618" />
  </radialGradient>
  <radialGradient
     id="d"
     cx="102"
     cy="112.3047"
     gradientTransform="matrix(.9787234 0 0 .9818182 13.361704 1.163632)"
     gradientUnits="userSpaceOnUse"
     r="139.55859">
    <stop
       offset="0"
       stop-color="#535557"
       id="stop1621" />
    <stop
       offset=".11366145"
       stop-color="#898a8c"
       id="stop1623" />
    <stop
       offset=".20296688"
       stop-color="#ececec"
       id="stop1625" />
    <stop
       offset=".2363"
       stop-color="#fafafa"
       id="stop1627" />
    <stop
       offset=".2722"
       stop-color="#fff"
       id="stop1629" />
    <stop
       offset=".5313"
       stop-color="#fafafa"
       id="stop1631" />
    <stop
       offset=".8449"
       stop-color="#ebecec"
       id="stop1633" />
    <stop
       offset="1"
       stop-color="#e1e2e3"
       id="stop1635" />
  </radialGradient>
  <filter
     id="e"
     height="1.247155"
     width="1.247155"
     x="-.123577"
     y="-.123577">
    <feGaussianBlur
       stdDeviation="1.7720846"
       id="feGaussianBlur1638" />
  </filter>
  <filter
     id="f">
    <feGaussianBlur
       stdDeviation=".90565481"
       id="feGaussianBlur1641" />
  </filter>
  <linearGradient
     id="g"
     gradientUnits="userSpaceOnUse"
     x1="85.219681"
     x2="61.336319"
     y1="93.219681"
     y2="69.336319">
    <stop
       offset="0"
       id="stop1644" />
    <stop
       offset="1"
       stop-color="#393b38"
       id="stop1646" />
  </linearGradient>
  <filter
     id="h">
    <feGaussianBlur
       stdDeviation=".4901192"
       id="feGaussianBlur1649" />
  </filter>
  <linearGradient
     id="i"
     gradientUnits="userSpaceOnUse"
     x1="96"
     x2="88.000198"
     y1="104"
     y2="96.000198">
    <stop
       offset="0"
       stop-color="#888a85"
       id="stop1652" />
    <stop
       offset=".0072"
       stop-color="#8c8e89"
       id="stop1654" />
    <stop
       offset=".0673"
       stop-color="#abaca9"
       id="stop1656" />
    <stop
       offset=".1347"
       stop-color="#c5c6c4"
       id="stop1658" />
    <stop
       offset=".2115"
       stop-color="#dbdbda"
       id="stop1660" />
    <stop
       offset=".3012"
       stop-color="#ebebeb"
       id="stop1662" />
    <stop
       offset=".4122"
       stop-color="#f7f7f6"
       id="stop1664" />
    <stop
       offset=".5679"
       stop-color="#fdfdfd"
       id="stop1666" />
    <stop
       offset="1"
       stop-color="#fff"
       id="stop1668" />
  </linearGradient>
  <linearGradient
     id="j"
     gradientTransform="matrix(1 0 0 .77142856 -78.28152 23.137076)"
     gradientUnits="userSpaceOnUse"
     x1="154.28152"
     x2="154.28152"
     y1="104.82231"
     y2="115.19268">
    <stop
       offset="0"
       stop-color="#4c78fd"
       id="stop1671" />
    <stop
       offset="1"
       stop-color="#85a2fe"
       id="stop1673" />
  </linearGradient>
  <linearGradient
     id="k"
     gradientTransform="matrix(0 -1 1 0 -224.907346 195.628654)"
     gradientUnits="userSpaceOnUse"
     x1="-.371336"
     x2="179.62866"
     y1="236.90735"
     y2="292.90735">
    <stop
       offset="0"
       stop-color="#8e79b9"
       id="stop1676" />
    <stop
       offset="1"
       stop-color="#462886"
       id="stop1678" />
  </linearGradient>
  <linearGradient
     id="l"
     gradientUnits="userSpaceOnUse"
     x1="48"
     x2="20"
     y1="48"
     y2="48">
    <stop
       offset="0"
       stop-color="#fff"
       id="stop1681" />
    <stop
       offset="1"
       stop-color="#fff"
       stop-opacity="0"
       id="stop1683" />
  </linearGradient>
  <path
     d="m36 92h52v4h-52z"
     fill="#8e8e8e"
     id="path1686" />
  <path
     d="m23 9 .04082 112h61.13118c.53 0 1.039-.211 1.414-.586l32.828-32.828c.375-.375.586-.884.586-1.414v-77.172z"
     filter="url(#a)"
     opacity=".715069"
     transform="matrix(1.0416667 0 0 1.0357143 2.041667 -3.321539)"
     id="path1688" />
  <path
     d="m24.919999 10.931136v108.137934l58.676001-.0001c.53 0 1.039-.211 1.414-.586l31.484-31.765936c.375-.375.586-.884.586-1.414v-74.371898z"
     filter="url(#b)"
     opacity=".89589"
     transform="matrix(1.0416667 0 0 1.0357143 2.041667 -3.321539)"
     id="path1690" />
  <path
     d="m23 9.9655172.040816 111.0344828h61.131184c.53 0 1.039-.211 1.414-.586 13.296921-8.21061 24.14086-19.26784 32.828-32.828.375-.375.586-.884.586-1.414v-76.2064828z"
     filter="url(#a)"
     opacity=".835616"
     transform="matrix(1.0416667 0 0 1.0357143 2.041667 -3.321539)"
     id="path1692" />
  <path
     d="m28.000002 7.999995v112.000005h61.172c.53 0 1.039-.211 1.414-.586l32.827998-32.828005c.375-.375.586-.884.586-1.414v-77.172z"
     fill="url(#c)"
     id="path1694" />
  <path
     d="m36.678725 15.999995c-.539276 0-.978723.440836-.978723.981818l.3 94.036367c0 .54197.439447.98182.978723.98182h51.913022c.257404 0 .509915-.10407.691957-.28767l26.129526-26.231135c.18303-.1836.28677-.435927.28677-.694145v-67.805237c0-.540982-.43847-.981818-.97872-.981818z"
     fill="url(#d)"
     id="path1696" />
  <g
     transform="translate(12.000002 -.000005)"
     id="g1706">
    <path
       d="m111.414 86.586c.25-.25-26.379-1.586-31.414-1.586-1.654 0-3 1.346-3 3 0 5.035 1.336 31.664 1.586 31.414z"
       filter="url(#e)"
       opacity=".906849"
       id="path1698" />
    <path
       d="m111.414 86.586c.375-.375-21.97-.586-31.414-.586-1.103 0-2 .897-2 2 0 9.444.211 31.789.586 31.414z"
       filter="url(#f)"
       opacity=".2"
       id="path1700" />
    <path
       d="m111.414 86.586c.239-.239-21.607.414-31.414.414-.553 0-1 .447-1 1 0 9.807-.653 31.653-.414 31.414z"
       fill="url(#g)"
       filter="url(#h)"
       opacity=".1"
       id="path1702" />
    <path
       d="m78.586 119.414s11.914-9.914 17.414-15.414 15.414-17.414 15.414-17.414-21.164 1.414-31.414 1.414c0 10.25-1.414 31.414-1.414 31.414z"
       fill="url(#i)"
       id="path1704" />
  </g>
  <path
     d="m 48,24 h 56 v 4 H 48 Z"
     id="path1708"
     inkscape:connector-curvature="0"
     style="fill:#8e8e8e;stroke-width:0.88191712" />
  <path
     d="m40 16h64v12h-64z"
     fill="#f60"
     id="path1710" />
  <path
     d="m64 100h25.0905v12h-25.0905z"
     fill="url(#j)"
     id="path1712" />
  <g
     id="g1720"
     transform="matrix(0.77777778,0,0,1,16.888889,0)"
     style="fill:#8e8e8e">
    <path
       d="m 40,40 h 72 v 4 H 40 Z"
       id="path1714"
       inkscape:connector-curvature="0" />
    <path
       d="m 40,60 h 72 v 4 H 40 Z"
       id="path1716"
       inkscape:connector-curvature="0" />
    <path
       d="m 40,76 h 72 v 4 H 40 Z"
       id="path1718"
       inkscape:connector-curvature="0" />
  </g>
  <path
     d="m28 8v32.300781h11.988281c7.094382.01008 12.353157-5.25035 12.34375-12.34375v-7.976562c.008546-6.014287-3.777275-10.6959761-9.25-11.980469zm12.294922 69.523438c-1.941417-.032743-3.910449.421044-5.802734 1.367187-3.57199 1.785994-5.790197 4.910212-6.492188 8.638672v32.470703h28.410156l7.513672-6.57422-.482422.39258c3.215946-2.41615 4.921875-5.95817 4.921875-9.88086s-1.705929-7.464711-4.921875-9.880859l.482422.392578-16-14a8.332792 8.332792 0 0 0 -.496094-.402344c-2.185989-1.635238-4.636705-2.48134-7.132812-2.523437z"
     fill="url(#l)"
     id="path1722" />
  <path
     d="m0 36.000003c0-11.01213 8.98787-20.03125 20-20.03125h20c2.11151-.0028 4.003 1.88849 4 4v8c.0028 2.11152-1.88849 4.003-4 4h-20c-2.24271 0-4 1.75729-4 4v20 22.09375 13.906247c0 2.24271 1.787804 3.631301 4 4h16v-6.03125c.0018-1.4841.89133-2.930037 2.21875-3.593747s3.03036-.51398 4.21875.375l16 13.999997c.99402.74681 1.59375 1.97545 1.59375 3.21875s-.59973 2.47194-1.59375 3.21875l-16 14.00001c-.65388.49464-1.4619.78239-2.28125.8125-2.152767.0697-4.16025-1.87736-4.15625-4.03125v-5.96875h-15.96875c-11.012129 0-20.03125-8.98788-20.03125-20.00001v-13.687497-22.3125z"
     fill="url(#k)"
     id="path1724" />
</svg>
