<?xml version="1.0" encoding="UTF-8" standalone="no"?>
<!-- Created with Inkscape (http://www.inkscape.org/) -->

<svg
   xmlns:dc="http://purl.org/dc/elements/1.1/"
   xmlns:cc="http://creativecommons.org/ns#"
   xmlns:rdf="http://www.w3.org/1999/02/22-rdf-syntax-ns#"
   xmlns:svg="http://www.w3.org/2000/svg"
   xmlns="http://www.w3.org/2000/svg"
   xmlns:xlink="http://www.w3.org/1999/xlink"
   xmlns:sodipodi="http://sodipodi.sourceforge.net/DTD/sodipodi-0.dtd"
   xmlns:inkscape="http://www.inkscape.org/namespaces/inkscape"
   width="128"
   height="128"
   viewBox="0 0 33.866666 33.866668"
   version="1.1"
   id="svg8"
   inkscape:version="0.92.3 (unknown)"
   sodipodi:docname="sc_insertlayer.svg"
   inkscape:export-filename="/home/rizmut/Dokumen/Rizmut/Github/libreoffice-style-karasa-jaga/build/images_karasa_jaga/cmd/sc_insertlayer.png"
   inkscape:export-xdpi="12"
   inkscape:export-ydpi="12">
  <defs
     id="defs2">
    <linearGradient
       inkscape:collect="always"
       id="linearGradient1427">
      <stop
         style="stop-color:#fefefe;stop-opacity:1;"
         offset="0"
         id="stop1423" />
      <stop
         style="stop-color:#fefefe;stop-opacity:0;"
         offset="1"
         id="stop1425" />
    </linearGradient>
    <linearGradient
       inkscape:collect="always"
       id="linearGradient1414">
      <stop
         style="stop-color:#dfe2e8;stop-opacity:1"
         offset="0"
         id="stop1410" />
      <stop
         style="stop-color:#fefefe;stop-opacity:1"
         offset="1"
         id="stop1412" />
    </linearGradient>
    <linearGradient
       inkscape:collect="always"
       xlink:href="#linearGradient1414"
       id="linearGradient1416"
       x1="56"
       y1="52.000004"
       x2="88"
       y2="96"
       gradientUnits="userSpaceOnUse" />
    <linearGradient
       inkscape:collect="always"
       xlink:href="#linearGradient1427"
       id="linearGradient1429"
       x1="16"
       y1="16.000004"
       x2="88"
       y2="72"
       gradientUnits="userSpaceOnUse" />
    <linearGradient
       inkscape:collect="always"
       xlink:href="#linearGradient1414"
       id="linearGradient1451"
       gradientUnits="userSpaceOnUse"
       x1="56"
       y1="52.000004"
       x2="88"
       y2="96" />
    <linearGradient
       inkscape:collect="always"
       xlink:href="#linearGradient1427"
       id="linearGradient1453"
       gradientUnits="userSpaceOnUse"
       x1="16"
       y1="16.000004"
       x2="88"
       y2="72" />
    <linearGradient
       gradientTransform="matrix(0.26458333,0,0,0.26458333,5.9247599e-7,263.13332)"
       id="D"
       gradientUnits="userSpaceOnUse"
       x1="84.745605"
       x2="97.636749"
       xlink:href="#a"
       y1="48.278454"
       y2="110.57732" />
    <linearGradient
       id="a">
      <stop
         offset="0"
         stop-color="#fff"
         id="stop2" />
      <stop
         offset="1"
         stop-color="#fff"
         stop-opacity="0"
         id="stop4" />
    </linearGradient>
    <filter
       style="color-interpolation-filters:sRGB"
       id="C"
       height="1.024"
       width="1.024"
       x="-0.012"
       y="-0.012">
      <feGaussianBlur
         stdDeviation=".28192153"
         id="feGaussianBlur142" />
    </filter>
    <radialGradient
       id="B"
       cx="50.424522"
       cy="-81.945961"
       gradientTransform="matrix(0.08147617,0.08147617,-0.08147617,0.08147617,12.300833,291.59469)"
       gradientUnits="userSpaceOnUse"
       r="50.15279">
      <stop
         offset="0"
         stop-color="#7ae91e"
         stop-opacity=".996078"
         id="stop137" />
      <stop
         offset="1"
         stop-color="#62c916"
         id="stop139" />
    </radialGradient>
    <linearGradient
       id="w"
       gradientTransform="scale(1.0975951,0.9110828)"
       gradientUnits="userSpaceOnUse"
       x1="26.091133"
       x2="31.500689"
       xlink:href="#a"
       y1="14.856744"
       y2="14.856744" />
    <filter
       id="x"
       height="1.277481"
       width="1.279832"
       x="-0.139916"
       y="-0.138741">
      <feGaussianBlur
         stdDeviation=".28784801"
         id="feGaussianBlur119" />
    </filter>
    <filter
       id="filter1059"
       height="1.277481"
       width="1.279832"
       x="-0.139916"
       y="-0.138741">
      <feGaussianBlur
         stdDeviation=".28784801"
         id="feGaussianBlur1057" />
    </filter>
    <linearGradient
       id="y"
       gradientUnits="userSpaceOnUse"
       x1="304.88663"
       x2="345.62039"
       y1="385.86127"
       y2="384.62384">
      <stop
         offset="0"
         stop-color="#765c44"
         id="stop122" />
      <stop
         offset="1"
         stop-color="#765c44"
         stop-opacity="0"
         id="stop124" />
    </linearGradient>
    <filter
       id="filter1066"
       height="1.277481"
       width="1.279832"
       x="-0.139916"
       y="-0.138741">
      <feGaussianBlur
         stdDeviation=".28784801"
         id="feGaussianBlur1064" />
    </filter>
    <linearGradient
       id="z"
       gradientUnits="userSpaceOnUse"
       spreadMethod="reflect"
       x1="88.606247"
       x2="91.575104"
       y1="13.510336"
       y2="13.510336">
      <stop
         offset="0"
         stop-color="#c8ff87"
         id="stop127" />
      <stop
         offset="1"
         stop-color="#abff87"
         stop-opacity="0"
         id="stop129" />
    </linearGradient>
    <filter
       id="filter1073"
       height="1.277481"
       width="1.279832"
       x="-0.139916"
       y="-0.138741">
      <feGaussianBlur
         stdDeviation=".28784801"
         id="feGaussianBlur1071" />
    </filter>
    <linearGradient
       id="A"
       gradientUnits="userSpaceOnUse"
       spreadMethod="reflect"
       x1="31.606251"
       x2="34.575108"
       y1="13.510336"
       y2="13.510336">
      <stop
         offset="0"
         stop-color="#fff"
         id="stop132" />
      <stop
         offset="1"
         stop-color="#790000"
         stop-opacity="0"
         id="stop134" />
    </linearGradient>
    <filter
       id="filter1080"
       height="1.277481"
       width="1.279832"
       x="-0.139916"
       y="-0.138741">
      <feGaussianBlur
         stdDeviation=".28784801"
         id="feGaussianBlur1078" />
    </filter>
    <filter
       id="filter1090"
       height="1.277481"
       width="1.279832"
       x="-0.139916"
       y="-0.138741">
      <feGaussianBlur
         stdDeviation=".28784801"
         id="feGaussianBlur1088" />
    </filter>
    <radialGradient
       id="v"
       cx="51.991096"
       cy="-78.028419"
       gradientTransform="matrix(0.07469784,0.08773236,-0.14847119,0.12641263,7.4257311,294.77574)"
       gradientUnits="userSpaceOnUse"
       r="57.039597"
       xlink:href="#t" />
    <linearGradient
       id="t">
      <stop
         offset="0"
         stop-color="#011701"
         id="stop109" />
      <stop
         offset=".80671918"
         stop-color="#145703"
         id="stop111" />
      <stop
         offset="1"
         stop-color="#2fa207"
         stop-opacity=".384314"
         id="stop113" />
    </linearGradient>
    <radialGradient
       id="u"
       cx="43.084476"
       cy="-121.92532"
       gradientTransform="matrix(0.0802945,0.08264095,-0.09601599,0.09328978,10.578973,292.98488)"
       gradientUnits="userSpaceOnUse"
       r="57.039597"
       xlink:href="#t" />
    <radialGradient
       id="s"
       cx="84.903702"
       cy="-130.14005"
       gradientTransform="matrix(0.08147617,0.08147617,-0.08147617,0.08147617,12.300833,291.59469)"
       gradientUnits="userSpaceOnUse"
       r="57.039597"
       xlink:href="#t" />
    <linearGradient
       spreadMethod="reflect"
       y2="13.510336"
       x2="91.575104"
       y1="13.510336"
       x1="88.606247"
       gradientUnits="userSpaceOnUse"
       id="linearGradient1133"
       xlink:href="#z"
       inkscape:collect="always" />
    <linearGradient
       inkscape:collect="always"
       xlink:href="#a"
       id="linearGradient1680"
       gradientUnits="userSpaceOnUse"
       gradientTransform="scale(1.0975951,0.9110828)"
       x1="26.091133"
       y1="14.856744"
       x2="31.500689"
       y2="14.856744" />
    <linearGradient
       inkscape:collect="always"
       xlink:href="#z"
       id="linearGradient1682"
       gradientUnits="userSpaceOnUse"
       x1="88.606247"
       y1="13.510336"
       x2="91.575104"
       y2="13.510336"
       spreadMethod="reflect" />
  </defs>
  <sodipodi:namedview
     id="base"
     pagecolor="#ffffff"
     bordercolor="#666666"
     borderopacity="1.0"
     inkscape:pageopacity="0.0"
     inkscape:pageshadow="2"
     inkscape:zoom="4"
     inkscape:cx="57.416369"
     inkscape:cy="55.052452"
     inkscape:document-units="mm"
     inkscape:current-layer="layer1"
     showgrid="true"
     units="px"
     inkscape:window-width="1366"
     inkscape:window-height="706"
     inkscape:window-x="0"
     inkscape:window-y="0"
     inkscape:window-maximized="1">
    <inkscape:grid
       type="xygrid"
       id="grid1379"
       spacingx="1.0583333"
       spacingy="1.0583333"
       empspacing="2" />
  </sodipodi:namedview>
  <metadata
     id="metadata5">
    <rdf:RDF>
      <cc:Work
         rdf:about="">
        <dc:format>image/svg+xml</dc:format>
        <dc:type
           rdf:resource="http://purl.org/dc/dcmitype/StillImage" />
        <dc:title></dc:title>
      </cc:Work>
    </rdf:RDF>
  </metadata>
  <g
     inkscape:label="Layer 1"
     inkscape:groupmode="layer"
     id="layer1"
     transform="translate(0,-263.13332)">
    <g
       id="g1449"
       transform="translate(0,6.3500006)"
       style="opacity:0.75">
      <path
         style="opacity:1;fill:#555555;fill-opacity:1;stroke:none;stroke-width:4.5;stroke-linecap:round;stroke-linejoin:round;stroke-miterlimit:4;stroke-dasharray:none;stroke-dashoffset:0;stroke-opacity:1"
         d="m 0,48 v 0.117188 3.765624 c 0,0.0249 0.02746211,0.04359 0.0546875,0.0625 L 0,52 32,100 32.05469,99.94531 C 32.098304,99.975593 32.159686,100 32.242188,100 H 124 127.75781 C 127.89183,100 128,99.947442 128,99.882812 v -3.765624 c 0,-0.02484 -0.0275,-0.0436 -0.0547,-0.0625 L 128,96 96,48 95.94727,48.05273 C 95.903743,48.022104 95.840866,48 95.757812,48 Z m 6.6660156,4 H 92 l 29.33398,44 H 36 Z"
         transform="matrix(0.26458333,0,0,0.26458333,0,263.13332)"
         id="path1441"
         inkscape:connector-curvature="0"
         sodipodi:nodetypes="ccsccccscsssccccscccccc" />
      <g
         id="g1447"
         style="">
        <path
           id="path1443"
           transform="matrix(0.26458333,0,0,0.26458333,0,263.13332)"
           d="m 0,48 z m 95.757812,0 0.189454,0.05273 L 96,48 Z M 6.6660156,52 36,96 h 85.33398 L 92,52 Z"
           style="fill:url(#linearGradient1451);fill-opacity:1;fill-rule:evenodd;stroke:none;stroke-width:0.99999994px;stroke-linecap:butt;stroke-linejoin:miter;stroke-opacity:1"
           inkscape:connector-curvature="0"
           sodipodi:nodetypes="ccccccccccc" />
        <path
           id="path1445"
           transform="matrix(0.26458333,0,0,0.26458333,0,263.13332)"
           d="m 0,48 v 0 c 0.04198189,-0.03472 -0.08933211,0 0,0 z m 95.757812,0 c 0.08305,0 0.145931,0.0221 0.189454,0.05273 L 96,48 Z M 6.6660156,52 22.666016,76 H 108 L 92,52 Z"
           style="opacity:1;fill:url(#linearGradient1453);fill-opacity:1;stroke:none;stroke-width:4.5;stroke-linecap:round;stroke-linejoin:round;stroke-miterlimit:4;stroke-dasharray:none;stroke-dashoffset:0;stroke-opacity:1"
           inkscape:connector-curvature="0"
           sodipodi:nodetypes="ccccccccccccc" />
      </g>
    </g>
    <path
       id="path1403"
       d="m 0.0640786,282.18332 c -0.03545368,0 -0.06407878,0.0139 -0.06407878,0.031 v 0.99632 c 0,0.007 0.00726602,0.0115 0.0144694,0.0165 l -0.0144694,0.0145 8.46666658,12.7 0.01447,-0.0145 c 0.01154,0.008 0.027781,0.0145 0.049609,0.0145 h 24.2775876 0.994254 c 0.03546,0 0.06408,-0.0139 0.06408,-0.031 v -0.99632 c 0,-0.007 -0.0073,-0.0115 -0.01447,-0.0165 l 0.01447,-0.0145 -8.466667,-12.7 -0.01395,0.014 c -0.01152,-0.008 -0.02815,-0.014 -0.05013,-0.014 z m 1.6996378,1.05833 H 24.341666 l 7.761282,11.64167 H 9.5249997 Z"
       style="opacity:1;fill:#a2a2a2;fill-opacity:1;stroke:none;stroke-width:1.19062495;stroke-linecap:round;stroke-linejoin:round;stroke-miterlimit:4;stroke-dasharray:none;stroke-dashoffset:0;stroke-opacity:1"
       inkscape:connector-curvature="0" />
    <g
       id="g1439">
      <path
         id="rect1392"
         transform="matrix(0.26458333,0,0,0.26458333,0,263.13332)"
         d="m 0,48 v 3.882812 l 0.0546875,0.0625 L 0,52 l 32,48 0.05469,-0.05469 0.1875,0.05469 H 124 127.75781 L 128,99.882812 v -3.765624 l -0.0547,-0.0625 L 128,96 96,48 95.947266,48.052734 95.757812,48 Z m 6.6660156,4 H 92 l 29.33398,44 H 36 Z"
         style="opacity:1;fill:#555555;fill-opacity:1;stroke:none;stroke-width:4.5;stroke-linecap:round;stroke-linejoin:round;stroke-miterlimit:4;stroke-dasharray:none;stroke-dashoffset:0;stroke-opacity:1"
         inkscape:connector-curvature="0"
         sodipodi:nodetypes="cccccccccccccccccccccc" />
      <g
         id="g1433">
        <path
           style="fill:url(#linearGradient1416);fill-opacity:1;fill-rule:evenodd;stroke:none;stroke-width:0.99999994px;stroke-linecap:butt;stroke-linejoin:miter;stroke-opacity:1"
           d="m 95.757812,48 c 0.08305,0 0.145931,0.0221 0.189454,0.05273 L 96,48 Z M 6.6660156,52 36,96 h 85.33398 L 92,52 Z"
           transform="matrix(0.26458333,0,0,0.26458333,0,263.13332)"
           id="path1405"
           inkscape:connector-curvature="0"
           sodipodi:nodetypes="ccccccccc" />
        <path
           style="opacity:1;fill:url(#linearGradient1429);fill-opacity:1;stroke:none;stroke-width:4.5;stroke-linecap:round;stroke-linejoin:round;stroke-miterlimit:4;stroke-dasharray:none;stroke-dashoffset:0;stroke-opacity:1"
           d="m 95.757812,48 c 0.08305,0 0.145931,0.0221 0.189454,0.05273 L 96,48 Z M 6.6660156,52 22.666016,76 H 108 L 92,52 Z"
           transform="matrix(0.26458333,0,0,0.26458333,0,263.13332)"
           id="rect1418"
           inkscape:connector-curvature="0"
           sodipodi:nodetypes="ccccccccc" />
      </g>
    </g>
    <g
       id="g1700"
       transform="translate(-15.080227,-15.07789)">
      <path
         id="path178"
         d="m 23.085939,278.21121 c -1.064273,-3e-5 -1.951332,0.88703 -1.951302,1.9513 v 4.10363 h -4.103108 c -1.063362,-3e-5 -1.951333,0.88651 -1.951302,1.95078 v 2.80965 c -3.1e-5,1.06427 0.887939,1.95082 1.951302,1.95079 h 4.103108 v 4.10362 c -3.2e-5,1.06427 0.88794,1.95082 1.951302,1.95079 h 2.809131 c 1.063363,3e-5 1.951334,-0.88651 1.951302,-1.95079 v -4.10362 h 4.103108 c 1.063369,3e-5 1.951337,-0.88652 1.951302,-1.95079 v -2.80965 c 3.5e-5,-1.06427 -0.887939,-1.95081 -1.951302,-1.95078 h -4.103108 v -4.10363 c 3.2e-5,-1.06427 -0.887029,-1.95133 -1.951302,-1.9513 z"
         style="fill:#033d03;stroke-width:0.26458332"
         inkscape:connector-curvature="0" />
      <path
         id="path180"
         d="m 32.743146,286.21717 c 1.3e-5,-0.43826 -0.355267,-0.79354 -0.79352,-0.79352 h -5.260954 v -5.26118 c 1.3e-5,-0.43826 -0.355267,-0.79354 -0.79352,-0.79352 h -2.809278 c -0.438254,-2e-5 -0.793533,0.35526 -0.79352,0.79352 v 5.26118 H 17.0314 c -0.438255,-2e-5 -0.793533,0.35526 -0.79352,0.79352 v 2.80927 c -1.3e-5,0.43826 0.355265,0.79354 0.79352,0.79352 h 5.260954 v 5.26096 c -1.3e-5,0.43825 0.355265,0.79353 0.79352,0.79352 h 2.809278 c 0.438253,1e-5 0.793533,-0.35527 0.79352,-0.79352 v -5.26096 h 5.260954 c 0.438256,2e-5 0.793533,-0.35526 0.79352,-0.79352 z"
         style="fill:#1f5623;fill-opacity:0.90588199;stroke-width:0.26458332"
         inkscape:connector-curvature="0" />
      <path
         id="path182"
         d="m 32.743146,286.21717 c 1.3e-5,-0.43826 -0.355267,-0.79354 -0.79352,-0.79352 h -5.260954 v -5.26118 c 1.3e-5,-0.43826 -0.355267,-0.79354 -0.79352,-0.79352 h -2.809278 c -0.438254,-2e-5 -0.793533,0.35526 -0.79352,0.79352 v 5.26118 H 17.0314 c -0.438255,-2e-5 -0.793533,0.35526 -0.79352,0.79352 v 2.80927 c -1.3e-5,0.43826 0.355265,0.79354 0.79352,0.79352 h 5.260954 v 5.26096 c -1.3e-5,0.43825 0.355265,0.79353 0.79352,0.79352 h 2.809278 c 0.438253,1e-5 0.793533,-0.35527 0.79352,-0.79352 v -5.26096 h 5.260954 c 0.438256,2e-5 0.793533,-0.35526 0.79352,-0.79352 z"
         style="fill:url(#s);stroke-width:0.26458332"
         inkscape:connector-curvature="0" />
      <path
         id="path184"
         d="m 32.743146,286.21717 c 1.3e-5,-0.43826 -0.355267,-0.79354 -0.79352,-0.79352 h -5.260954 v -5.26118 c 1.3e-5,-0.43826 -0.355267,-0.79354 -0.79352,-0.79352 h -2.809278 c -0.438254,-2e-5 -0.793533,0.35526 -0.79352,0.79352 v 5.26118 H 17.0314 c -0.438255,-2e-5 -0.793533,0.35526 -0.79352,0.79352 v 2.80927 c -1.3e-5,0.43826 0.355265,0.79354 0.79352,0.79352 h 5.260954 v 5.26096 c -1.3e-5,0.43825 0.355265,0.79353 0.79352,0.79352 h 2.809278 c 0.438253,1e-5 0.793533,-0.35527 0.79352,-0.79352 v -5.26096 h 5.260954 c 0.438256,2e-5 0.793533,-0.35526 0.79352,-0.79352 z"
         style="fill:#066704;stroke-width:0.26458332"
         inkscape:connector-curvature="0" />
      <path
         id="path186"
         d="m 32.743146,286.21717 c 1.3e-5,-0.43826 -0.355267,-0.79354 -0.79352,-0.79352 h -5.260954 v -5.26118 c 1.3e-5,-0.43826 -0.355267,-0.79354 -0.79352,-0.79352 h -2.809278 c -0.438254,-2e-5 -0.793533,0.35526 -0.79352,0.79352 v 5.26118 H 17.0314 c -0.438255,-2e-5 -0.793533,0.35526 -0.79352,0.79352 v 2.80927 c -1.3e-5,0.43826 0.355265,0.79354 0.79352,0.79352 h 5.260954 v 5.26096 c -1.3e-5,0.43825 0.355265,0.79353 0.79352,0.79352 h 2.809278 c 0.438253,1e-5 0.793533,-0.35527 0.79352,-0.79352 v -5.26096 h 5.260954 c 0.438256,2e-5 0.793533,-0.35526 0.79352,-0.79352 z"
         style="fill:url(#u);stroke-width:0.26458332"
         inkscape:connector-curvature="0" />
      <path
         id="path188"
         d="m 32.743146,286.21717 c 1.3e-5,-0.43826 -0.355267,-0.79354 -0.79352,-0.79352 h -5.260954 v -5.26118 c 1.3e-5,-0.43826 -0.355267,-0.79354 -0.79352,-0.79352 h -2.809278 c -0.438254,-2e-5 -0.793533,0.35526 -0.79352,0.79352 v 5.26118 H 17.0314 c -0.438255,-2e-5 -0.793533,0.35526 -0.79352,0.79352 v 2.80927 c -1.3e-5,0.43826 0.355265,0.79354 0.79352,0.79352 h 5.260954 v 5.26096 c -1.3e-5,0.43825 0.355265,0.79353 0.79352,0.79352 h 2.809278 c 0.438253,1e-5 0.793533,-0.35527 0.79352,-0.79352 v -5.26096 h 5.260954 c 0.438256,2e-5 0.793533,-0.35526 0.79352,-0.79352 z"
         style="fill:url(#v);stroke-width:0.26458332"
         inkscape:connector-curvature="0" />
      <g
         id="g202"
         style="fill-rule:evenodd"
         transform="matrix(0.26458333,0,0,0.26458333,-4.0752401e-7,263.13332)">
        <path
           id="path190"
           transform="matrix(-0.64954358,0.64954358,0.6557809,0.6557809,76.701663,57.763298)"
           d="m 31.7,16 2.875,-3.375 c -1.051205,-1.695758 -3.935136,-2.288018 -5.9375,-0.3125 l 2.8125,3.375 z"
           inkscape:connector-curvature="0"
           style="opacity:0.498127;fill:url(#linearGradient1680);filter:url(#x)" />
        <path
           id="path192"
           transform="matrix(-0.6476361,-0.6476361,0.64147625,-0.64147625,99.166281,149.43433)"
           d="m 31.7,16 2.875,-3.375 c -1.051205,-1.695758 -3.935136,-2.288018 -5.9375,-0.3125 l 2.8125,3.375 z"
           inkscape:connector-curvature="0"
           style="opacity:0.79026196;fill:url(#w);filter:url(#x)" />
        <path
           id="path194"
           transform="matrix(-0.58819378,0.58819378,-0.59384198,-0.59384198,124.77757,109.70474)"
           d="m 31.7,16 2.875,-3.375 c -1.051205,-1.695758 -3.935136,-2.288018 -5.9375,-0.3125 l 2.8125,3.375 z"
           inkscape:connector-curvature="0"
           style="opacity:0.498127;fill:url(#y);filter:url(#x)" />
        <path
           id="path196"
           transform="matrix(-0.59384198,-0.59384198,0.58819378,-0.58819378,109.16011,158.42153)"
           d="m 88.7,16 2.875,-3.375 c -1.051205,-1.695758 -3.935136,-2.288018 -5.9375,-0.3125 l 2.8125,3.375 z"
           inkscape:connector-curvature="0"
           style="opacity:0.79026196;fill:url(#linearGradient1682);filter:url(#x)" />
        <path
           id="path198"
           transform="matrix(-0.54004786,-0.54004786,-0.53491131,0.53491131,144.9962,96.825516)"
           d="m 31.7,16 2.875,-3.375 c -1.051205,-1.695758 -3.935136,-2.288018 -5.9375,-0.3125 l 2.8125,3.375 z"
           inkscape:connector-curvature="0"
           style="opacity:0.79026196;fill:url(#A);filter:url(#x)" />
        <path
           id="path200"
           transform="matrix(-0.55444337,-0.55444337,-0.5491699,0.5491699,154.52392,106.08385)"
           d="m 88.7,16 2.875,-3.375 c -1.051205,-1.695758 -3.935136,-2.288018 -5.9375,-0.3125 l 2.8125,3.375 z"
           inkscape:connector-curvature="0"
           style="opacity:0.79026196;fill:url(#linearGradient1133);filter:url(#x)" />
      </g>
      <path
         id="path204"
         d="m 31.949626,286.21717 h -6.054474 v -6.0547 h -2.809278 v 6.0547 H 17.0314 v 2.80927 h 6.054474 v 6.05448 h 2.809278 v -6.05448 h 6.054474 z"
         style="fill:url(#B);stroke-width:0.26458332"
         inkscape:connector-curvature="0" />
      <path
         transform="matrix(0.26458333,0,0,0.26458333,15.080227,278.21121)"
         style="fill:#eef4ca;fill-opacity:0.77941165;filter:url(#C)"
         inkscape:connector-curvature="0"
         id="path206"
         d="m 40.876133,7.37476 -10.617965,-5e-6 V 30.258936 L 7.374589,30.258501 v 10.61797 h 22.882977 l 1e-6,22.882971 H 40.875533 V 40.876471 l 22.882985,-1e-5 -1e-5,-10.617956 H 40.875533 Z m -0.75422,0.754216 -6.1e-4,22.129359 c -4e-5,0.41656 0.33766,0.754256 0.75422,0.754217 h 22.128765 v 9.109529 H 40.875523 c -0.41656,-4e-5 -0.75426,0.33766 -0.75422,0.75422 v 22.128761 h -9.10953 V 40.876301 c 4e-5,-0.41656 -0.337657,-0.75426 -0.754216,-0.75422 H 8.128797 v -9.109534 l 22.129362,4.36e-4 c 0.416558,3.9e-5 0.754257,-0.337657 0.754216,-0.754216 V 8.128806 Z" />
      <path
         id="path208"
         d="m 23.085939,280.16251 v 6.05441 h -6.05441 v 1.83245 a 17.312586,10.263149 0 0 0 4.708239,0.39636 17.312586,10.263149 0 0 0 10.209712,-1.99006 v -0.23875 h -6.05441 v -6.05441 z"
         style="fill:url(#D);stroke-width:0.26458332"
         inkscape:connector-curvature="0" />
    </g>
  </g>
</svg>
