<?xml version="1.0" encoding="UTF-8" standalone="no"?>
<svg
   xmlns:dc="http://purl.org/dc/elements/1.1/"
   xmlns:cc="http://creativecommons.org/ns#"
   xmlns:rdf="http://www.w3.org/1999/02/22-rdf-syntax-ns#"
   xmlns:svg="http://www.w3.org/2000/svg"
   xmlns="http://www.w3.org/2000/svg"
   xmlns:xlink="http://www.w3.org/1999/xlink"
   xmlns:sodipodi="http://sodipodi.sourceforge.net/DTD/sodipodi-0.dtd"
   xmlns:inkscape="http://www.inkscape.org/namespaces/inkscape"
   height="128"
   viewBox="0 0 33.866666 33.866668"
   width="128"
   version="1.1"
   id="svg78"
   sodipodi:docname="sc_jumptonexttable.svg"
   inkscape:version="0.92.4 (unknown)"
   inkscape:export-filename="/home/rizmut/Dokumen/Rizmut/Github/libreoffice-style-karasa-jaga/build/images_karasa_jaga/cmd/sc_jumptonexttable.png"
   inkscape:export-xdpi="12"
   inkscape:export-ydpi="12">
  <metadata
     id="metadata84">
    <rdf:RDF>
      <cc:Work
         rdf:about="">
        <dc:format>image/svg+xml</dc:format>
        <dc:type
           rdf:resource="http://purl.org/dc/dcmitype/StillImage" />
        <dc:title></dc:title>
      </cc:Work>
    </rdf:RDF>
  </metadata>
  <defs
     id="defs82">
    <linearGradient
       inkscape:collect="always"
       xlink:href="#a"
       id="linearGradient1024"
       gradientUnits="userSpaceOnUse"
       gradientTransform="matrix(-0.51583695,0,0,-1.0923589,32.018175,330.4845)"
       x1="-5.580285"
       y1="297.74185"
       x2="41.94849"
       y2="264.27243" />
    <linearGradient
       gradientTransform="matrix(0.18247126,0,0,0.4036017,0.32844823,-6.9095476)"
       id="c-4"
       gradientUnits="userSpaceOnUse"
       x1="56"
       x2="60"
       y1="35.741943"
       y2="19.741945">
      <stop
         offset="0"
         stop-color="#1f620a"
         id="stop12-8" />
      <stop
         offset="1"
         stop-color="#3d9c10"
         stop-opacity=".94902"
         id="stop14-0" />
    </linearGradient>
    <linearGradient
       inkscape:collect="always"
       xlink:href="#c-4"
       id="linearGradient1059"
       gradientUnits="userSpaceOnUse"
       gradientTransform="matrix(0.16422414,0,0,0.4036017,13.101436,1.4494914)"
       x1="56"
       y1="35.741943"
       x2="55.555557"
       y2="27.875278" />
    <linearGradient
       inkscape:collect="always"
       xlink:href="#a"
       id="linearGradient1061"
       gradientUnits="userSpaceOnUse"
       gradientTransform="matrix(-0.51583695,0,0,-1.0923589,20.376509,323.07617)"
       x1="-5.580285"
       y1="297.74185"
       x2="41.94849"
       y2="264.27243" />
    <linearGradient
       inkscape:collect="always"
       xlink:href="#c-4"
       id="linearGradient1105"
       gradientUnits="userSpaceOnUse"
       gradientTransform="matrix(0.18247126,0,0,0.4036017,0.32844823,-6.9095476)"
       x1="56"
       y1="35.741943"
       x2="56.200001"
       y2="30.230833" />
    <linearGradient
       gradientTransform="matrix(0.26458334,0,0,0.26458334,-41.770028,-21.661694)"
       id="a-2"
       gradientUnits="userSpaceOnUse"
       x1="121.87097"
       x2="121.87097"
       y1="-34.455017"
       y2="101.92964">
      <stop
         offset="0"
         stop-color="#fff"
         id="stop2-9" />
      <stop
         offset="1"
         stop-color="#555"
         id="stop4-6" />
    </linearGradient>
    <linearGradient
       inkscape:collect="always"
       xlink:href="#a-2"
       id="linearGradient1126"
       x1="63.999996"
       y1="-39.999992"
       x2="63.999996"
       y2="104"
       gradientUnits="userSpaceOnUse" />
    <linearGradient
       inkscape:collect="always"
       xlink:href="#a-2"
       id="linearGradient1135"
       x1="95.999992"
       y1="-23.999994"
       x2="95.999992"
       y2="120"
       gradientUnits="userSpaceOnUse" />
    <filter
       id="filter3533"
       inkscape:collect="always">
      <feGaussianBlur
         id="feGaussianBlur3535"
         stdDeviation="1.0600355"
         inkscape:collect="always" />
    </filter>
    <linearGradient
       inkscape:collect="always"
       xlink:href="#linearGradient3503"
       id="linearGradient4691"
       gradientUnits="userSpaceOnUse"
       gradientTransform="matrix(1.1772548,0,0,1.0772187,1.8462753,-4.9416701)"
       x1="71.626404"
       y1="123.73875"
       x2="46.225941"
       y2="28.942928" />
    <linearGradient
       inkscape:collect="always"
       id="linearGradient3503">
      <stop
         style="stop-color:#005f1e;stop-opacity:1"
         offset="0"
         id="stop3505" />
      <stop
         style="stop-color:#43943c;stop-opacity:1"
         offset="1"
         id="stop3507" />
    </linearGradient>
    <radialGradient
       r="3.15625"
       fy="16.0865"
       fx="71.775223"
       cy="16.0865"
       cx="71.775223"
       gradientTransform="matrix(0.9650814,0.2619502,-0.9201984,3.3902106,33.309062,-57.693239)"
       gradientUnits="userSpaceOnUse"
       id="radialGradient2362"
       xlink:href="#linearGradient3669"
       inkscape:collect="always" />
    <linearGradient
       id="linearGradient3669"
       inkscape:collect="always">
      <stop
         id="stop3671"
         offset="0"
         style="stop-color:#ffffff;stop-opacity:1;" />
      <stop
         id="stop3673"
         offset="1"
         style="stop-color:#ffffff;stop-opacity:0;" />
    </linearGradient>
    <filter
       id="filter3681"
       height="1.1579429"
       y="-0.07897146"
       width="1.2447821"
       x="-0.12239107"
       inkscape:collect="always">
      <feGaussianBlur
         id="feGaussianBlur3683"
         stdDeviation="0.321914"
         inkscape:collect="always" />
    </filter>
    <linearGradient
       inkscape:collect="always"
       xlink:href="#linearGradient3511"
       id="linearGradient4687"
       gradientUnits="userSpaceOnUse"
       gradientTransform="matrix(1.1772548,0,0,1.0772187,6.5552946,-4.9416701)"
       x1="96.373123"
       y1="120.42788"
       x2="96.373123"
       y2="46.089832" />
    <linearGradient
       id="linearGradient3511"
       inkscape:collect="always">
      <stop
         id="stop3513"
         offset="0"
         style="stop-color:#002a0d;stop-opacity:1;" />
      <stop
         id="stop3515"
         offset="1"
         style="stop-color:#002a0d;stop-opacity:0;" />
    </linearGradient>
    <radialGradient
       r="3.15625"
       fy="16.0865"
       fx="71.775223"
       cy="16.0865"
       cx="71.775223"
       gradientTransform="matrix(0.9650814,0.2619502,-0.9201984,3.3902106,17.309062,-57.693239)"
       gradientUnits="userSpaceOnUse"
       id="radialGradient2366"
       xlink:href="#linearGradient3689"
       inkscape:collect="always" />
    <linearGradient
       inkscape:collect="always"
       id="linearGradient3689">
      <stop
         style="stop-color:#f0ff80;stop-opacity:1"
         offset="0"
         id="stop3691" />
      <stop
         style="stop-color:#f0ff80;stop-opacity:0"
         offset="1"
         id="stop3693" />
    </linearGradient>
    <linearGradient
       y2="96.363052"
       x2="58.606159"
       y1="32.051865"
       x1="43.799026"
       gradientTransform="matrix(1.0533333,0,0,0.9219945,7.5466667,4.9924269)"
       gradientUnits="userSpaceOnUse"
       id="linearGradient2368"
       xlink:href="#linearGradient3294"
       inkscape:collect="always" />
    <linearGradient
       id="linearGradient3294"
       inkscape:collect="always">
      <stop
         id="stop3296"
         offset="0"
         style="stop-color:#37a42c;stop-opacity:1;" />
      <stop
         id="stop3298"
         offset="1"
         style="stop-color:#bff500;stop-opacity:1" />
    </linearGradient>
    <radialGradient
       r="3.578125"
       fy="64.53125"
       fx="11.578125"
       cy="64.53125"
       cx="11.578125"
       gradientTransform="matrix(6.5079869,0,0,1.510917,-63.772161,-32.970115)"
       gradientUnits="userSpaceOnUse"
       id="radialGradient2370"
       xlink:href="#linearGradient3669"
       inkscape:collect="always" />
    <filter
       id="filter3722"
       height="1.5982659"
       y="-0.29913294"
       width="1.9039301"
       x="-0.45196506"
       inkscape:collect="always">
      <feGaussianBlur
         id="feGaussianBlur3724"
         stdDeviation="1.3476562"
         inkscape:collect="always" />
    </filter>
    <radialGradient
       r="50"
       fy="91.805016"
       fx="57.058514"
       cy="79.055809"
       cx="53.630272"
       gradientTransform="matrix(1.519949,7.3519239e-8,-8.0632435e-8,1.2772114,-20.224726,-23.996639)"
       gradientUnits="userSpaceOnUse"
       id="radialGradient2372"
       xlink:href="#linearGradient3348"
       inkscape:collect="always" />
    <linearGradient
       id="linearGradient3348"
       inkscape:collect="always">
      <stop
         id="stop3350"
         offset="0"
         style="stop-color:#cbff10;stop-opacity:1" />
      <stop
         id="stop3352"
         offset="1"
         style="stop-color:#004d00;stop-opacity:1" />
    </linearGradient>
    <linearGradient
       y2="44.287056"
       x2="91.992706"
       y1="112.5"
       x1="91.785248"
       gradientTransform="translate(20)"
       gradientUnits="userSpaceOnUse"
       id="linearGradient2374"
       xlink:href="#linearGradient3400"
       inkscape:collect="always" />
    <linearGradient
       id="linearGradient3400"
       inkscape:collect="always">
      <stop
         id="stop3402"
         offset="0"
         style="stop-color:#e5ff00;stop-opacity:1;" />
      <stop
         id="stop3404"
         offset="1"
         style="stop-color:#e5ff00;stop-opacity:0;" />
    </linearGradient>
    <filter
       id="filter3396"
       inkscape:collect="always">
      <feGaussianBlur
         id="feGaussianBlur3398"
         stdDeviation="0.495"
         inkscape:collect="always" />
    </filter>
    <linearGradient
       y2="80.12056"
       x2="63.159035"
       y1="21.171064"
       x1="63.159035"
       gradientTransform="matrix(1.0533333,0,0,0.9219945,11.76,4.9924269)"
       gradientUnits="userSpaceOnUse"
       id="linearGradient2378"
       xlink:href="#linearGradient3361"
       inkscape:collect="always" />
    <linearGradient
       id="linearGradient3361"
       inkscape:collect="always">
      <stop
         id="stop3363"
         offset="0"
         style="stop-color:#edffbf;stop-opacity:1;" />
      <stop
         id="stop3365"
         offset="1"
         style="stop-color:#edffbf;stop-opacity:0;" />
    </linearGradient>
    <linearGradient
       y2="48.212151"
       x2="35.568035"
       y1="69.923088"
       x1="73.739265"
       gradientTransform="matrix(1.0533333,0,0,0.9219945,11.76,4.9924269)"
       gradientUnits="userSpaceOnUse"
       id="linearGradient2380"
       xlink:href="#linearGradient3669"
       inkscape:collect="always" />
    <linearGradient
       y2="80.12056"
       x2="63.159035"
       y1="21.171064"
       x1="63.159035"
       gradientTransform="matrix(1.0533333,0,0,0.9219945,11.76,4.9924269)"
       gradientUnits="userSpaceOnUse"
       id="linearGradient2382"
       xlink:href="#linearGradient3669"
       inkscape:collect="always" />
    <linearGradient
       inkscape:collect="always"
       xlink:href="#linearGradient3400"
       id="linearGradient1178"
       gradientUnits="userSpaceOnUse"
       gradientTransform="translate(20)"
       x1="91.785248"
       y1="112.5"
       x2="91.992706"
       y2="44.287056" />
  </defs>
  <sodipodi:namedview
     pagecolor="#ffffff"
     bordercolor="#666666"
     borderopacity="1"
     objecttolerance="10"
     gridtolerance="10"
     guidetolerance="10"
     inkscape:pageopacity="0"
     inkscape:pageshadow="2"
     inkscape:window-width="1366"
     inkscape:window-height="714"
     id="namedview80"
     showgrid="true"
     inkscape:zoom="2.6074562"
     inkscape:cx="36.298907"
     inkscape:cy="87.996349"
     inkscape:window-x="0"
     inkscape:window-y="28"
     inkscape:window-maximized="1"
     inkscape:current-layer="svg78">
    <inkscape:grid
       type="xygrid"
       id="grid891"
       spacingx="1.0583333"
       spacingy="1.0583333"
       empspacing="2" />
  </sodipodi:namedview>
  <linearGradient
     id="a"
     gradientTransform="matrix(-0.51583695,0,0,-1.0923589,20.376509,586.20949)"
     gradientUnits="userSpaceOnUse"
     x1="-5.580285"
     x2="41.94849"
     y1="297.74185"
     y2="264.27243">
    <stop
       offset="0"
       stop-color="#cccdcf"
       id="stop2" />
    <stop
       offset=".11366145"
       stop-color="#e0e0e1"
       id="stop4" />
    <stop
       offset=".20296694"
       stop-color="#f2f2f2"
       id="stop6" />
    <stop
       offset=".21468808"
       stop-color="#fafafa"
       id="stop8" />
    <stop
       offset=".21468808"
       stop-color="#fff"
       id="stop10" />
    <stop
       offset=".63157898"
       stop-color="#fafafa"
       id="stop12" />
    <stop
       offset=".8449"
       stop-color="#ebecec"
       id="stop14" />
    <stop
       offset="1"
       stop-color="#e1e2e3"
       id="stop16" />
  </linearGradient>
  <filter
     id="b"
     color-interpolation-filters="sRGB"
     height="1.0264"
     width="1.022"
     x="-.011"
     y="-.0132">
    <feGaussianBlur
       stdDeviation=".1200918"
       id="feGaussianBlur19" />
  </filter>
  <filter
     id="c"
     color-interpolation-filters="sRGB"
     height="1.132"
     width="1.11"
     x="-.055"
     y="-.066">
    <feGaussianBlur
       stdDeviation=".600459"
       id="feGaussianBlur22" />
  </filter>
  <filter
     id="d"
     color-interpolation-filters="sRGB"
     height="1.0528"
     width="1.044"
     x="-.022"
     y="-.0264">
    <feGaussianBlur
       stdDeviation=".2401836"
       id="feGaussianBlur25" />
  </filter>
  <g
     id="g1090">
    <path
       style="fill:#a4a4a4;filter:url(#c)"
       inkscape:connector-curvature="0"
       id="path1008"
       transform="matrix(-0.72965325,0,0,-0.86935025,35.638797,266.32916)"
       d="M 2.4287318,267.39798 H 31.437937 v 29.57064 H 2.4287318 Z" />
    <path
       style="opacity:0.98999999;fill:#f8f8f8;stroke-width:0.71070546"
       inkscape:connector-curvature="0"
       id="path1010"
       d="M 32.808332,32.80833 H 13.758338 V 9.525 h 19.049994 z" />
    <path
       inkscape:connector-curvature="0"
       style="opacity:0.98999999;fill:url(#linearGradient1024);stroke-width:0.72559959"
       id="path1012"
       d="M 30.380392,31.75 H 16.186277 V 11.64166 h 14.194115 z" />
    <g
       id="g1022"
       transform="translate(11.641666,-255.72499)"
       style="fill:#cacaca">
      <path
         style="stroke-width:3.39830065;fill-opacity:1;fill:url(#linearGradient1135);opacity:0.78"
         d="M 84 36 L 84 80 L 52 80 L 52 84 L 84 84 L 84 104 L 52.857422 104 L 52.857422 108 L 84 108 L 84 124 L 88 124 L 88 108 L 124 108 L 124 104 L 88 104 L 88 84 L 124 84 L 124 80 L 88 80 L 88 36 L 84 36 z "
         transform="matrix(0.26458334,0,0,0.26458334,-11.641666,255.72499)"
         id="path1014" />
      <path
         style="stroke-width:0.86602539"
         inkscape:connector-curvature="0"
         id="path1016"
         d="m 21.166666,270.54165 v 1.05833 H 2.1166656 v -1.05833 z" />
    </g>
    <path
       inkscape:connector-curvature="0"
       style="fill:url(#linearGradient1059);stroke-width:0.25745127"
       d="M 13.758333,9.4173737 H 32.808332 V 15.875001 H 13.758333 Z"
       id="path1057" />
  </g>
  <g
     id="g1103">
    <path
       d="M 1.7325692,267.06621 H 32.134098 v 30.2342 H 1.7325692 Z"
       transform="matrix(-0.67806705,0,0,-0.81904917,23.399797,245.19869)"
       id="path28"
       inkscape:connector-curvature="0"
       style="fill:#313131;filter:url(#d)" />
    <path
       d="M 1.8599554,267.24631 H 32.006711 v 29.874 H 1.8599554 Z"
       transform="matrix(-0.70212045,0,0,-0.84543034,23.530912,252.39647)"
       id="path30"
       inkscape:connector-curvature="0"
       style="fill:#949494;filter:url(#b)" />
    <path
       d="M 2.4287318,267.39798 H 31.437937 v 29.57064 H 2.4287318 Z"
       transform="matrix(-0.72965325,0,0,-0.86935025,23.997131,258.92083)"
       id="path32"
       inkscape:connector-curvature="0"
       style="fill:#a4a4a4;filter:url(#c)" />
    <path
       d="M 21.166666,25.4 H 2.116672 V 2.11667 h 19.049994 z"
       id="path34"
       inkscape:connector-curvature="0"
       style="opacity:0.98999999;fill:#f8f8f8;stroke-width:0.71070546" />
    <path
       d="M 18.738726,24.34167 H 4.5446118 V 4.23333 H 18.738726 Z"
       id="path36"
       style="opacity:0.98999999;fill:url(#linearGradient1061);stroke-width:0.72559959"
       inkscape:connector-curvature="0" />
    <g
       transform="translate(0,-263.13332)"
       id="g62"
       style="fill:#cacaca">
      <path
         style="stroke-width:3.39830065;fill-opacity:1;fill:url(#linearGradient1126)"
         d="M 40 8 L 40 28 L 8 28 L 8 32 L 40 32 L 40 52 L 8 52 L 8 56 L 40 56 L 40 76 L 4 76 L 4 80 L 40 80 L 40 96 L 44 96 L 44 80 L 80 80 L 80 76 L 44 76 L 44 56 L 80 56 L 80 52 L 44 52 L 44 32 L 80 32 L 80 28 L 44 28 L 44 8 L 40 8 z "
         transform="matrix(0.26458334,0,0,0.26458334,0,263.13332)"
         id="path42" />
    </g>
    <path
       id="path42-4"
       d="M 1.0583333,1.0583347 H 22.224999 V 7.5159619 H 1.0583333 Z"
       style="fill:url(#linearGradient1105);stroke-width:0.27137744"
       inkscape:connector-curvature="0" />
  </g>
  <g
     id="layer1"
     inkscape:label="Layer 1"
     transform="matrix(0.12734425,0,0,0.12734425,18.174945,8.5185043)">
    <g
       transform="matrix(-1,0,0,1,127.97333,0.01714648)"
       id="g2345">
      <path
         inkscape:connector-curvature="0"
         style="opacity:0.90526321;fill:none;fill-opacity:1;fill-rule:evenodd;stroke:#638000;stroke-width:0.9659996;stroke-linecap:butt;stroke-linejoin:round;stroke-miterlimit:4;stroke-dasharray:none;stroke-opacity:1;filter:url(#filter3533)"
         d="m 87.875,12 c -0.865503,0.02693 -1.698899,0.333976 -2.375,0.875 l -60,48 C 24.550144,61.634129 24,62.784063 24,64 c 0,1.215937 0.550144,2.365871 1.5,3.125 l 60,48 c 1.200963,0.96113 2.832437,1.13525 4.21875,0.46875 C 91.105067,114.92725 92.000642,113.53821 92,112 V 88.3125 78.0625 L 90.5,76.875 C 89.299037,75.91387 87.667563,75.739753 86.28125,76.40625 84.894933,77.072748 83.999358,78.461793 84,80 v 23.6875 L 34.40625,64 84,24.3125 V 48 c -6.42e-4,1.538207 0.894936,2.927253 2.28125,3.59375 1.38631,0.666496 3.017787,0.49238 4.21875,-0.46875 L 92,49.9375 V 39.6875 16 C 92.000417,14.917152 91.558627,13.878821 90.78125,13.125 90.003873,12.37118 88.957323,11.966273 87.875,12 Z"
         id="path3519"
         transform="matrix(1.0533333,0,0,1.0173732,-5.0933333,-1.1118124)" />
      <path
         sodipodi:type="inkscape:offset"
         inkscape:radius="8.0641012"
         inkscape:original="M 91.15625 8 C 90.137337 8.0290147 89.170943 8.3546989 88.375 8.9375 L 17.75 60.625 C 16.631776 61.442748 15.96875 62.690169 15.96875 64 C 15.96875 65.309829 16.631777 66.557252 17.75 67.375 L 88.375 119.0625 C 89.788837 120.09785 91.711707 120.28046 93.34375 119.5625 C 94.975804 118.84453 96.032008 117.37573 96.03125 115.71875 L 96.03125 90.1875 L 96.03125 85.40625 L 96.03125 79.15625 L 96.03125 48.84375 L 96.03125 43.53125 L 96.03125 37.8125 L 96.03125 12.28125 C 96.031747 11.114786 95.508921 9.9995295 94.59375 9.1875 C 93.678578 8.3754712 92.43042 7.9636687 91.15625 8 z M 86.59375 21.25 L 86.59375 42.46875 L 68.9375 42.46875 C 68.285299 42.46875 67.78125 42.934471 67.78125 43.53125 L 67.78125 85.40625 C 67.781253 86.003029 68.285301 86.5 68.9375 86.5 L 86.59375 86.5 L 86.59375 106.75 L 28.21875 64 L 86.59375 21.25 z "
         style="fill:url(#linearGradient4691);fill-opacity:1;fill-rule:evenodd;stroke:none;stroke-width:8;stroke-linecap:butt;stroke-linejoin:round;stroke-miterlimit:4;stroke-dasharray:none;stroke-opacity:1"
         id="path4689"
         d="M 90.925781,-0.06054687 C 88.335578,0.01321208 85.762192,0.85674696 83.611328,2.4316406 L 12.988281,54.117188 C 9.9431675,56.345095 7.9042969,59.96983 7.9042969,64 c 0,4.03116 2.0395885,7.656994 5.0859371,9.884766 l 70.623047,51.685544 c 3.860769,2.82603 8.748949,3.2337 12.978516,1.37305 4.167743,-1.83347 7.504483,-6.14034 7.503903,-11.22461 v -0.004 -25.52734 -4.78125 -6.25 -30.3125 -5.3125 -5.71875 -25.527344 -0.0039 c 3.2e-4,-3.5767774 -1.6348,-6.8929237 -4.150388,-9.125 -2.6255,-2.3295967 -5.859992,-3.306887 -9.019531,-3.21679687 z M 59.716797,50.927734 V 77.072266 L 41.865234,64 Z" />
      <path
         inkscape:connector-curvature="0"
         style="opacity:0.85;fill:url(#radialGradient2362);fill-opacity:1;fill-rule:evenodd;stroke:none;stroke-width:8;stroke-linecap:butt;stroke-linejoin:round;stroke-miterlimit:4;stroke-dasharray:none;stroke-opacity:1;filter:url(#filter3681)"
         d="m 87.875,12 c -0.799041,0.02487 -1.572946,0.283948 -2.21875,0.75 v 8.509131 L 91.96875,15.625 c -0.08779,-0.946211 -0.499493,-1.832841 -1.1875,-2.5 C 90.003873,12.37118 88.957323,11.966273 87.875,12 Z"
         id="path3651"
         transform="matrix(1.9975842,0,0,1.929388,-83.247033,-21.120545)"
         sodipodi:nodetypes="ccccsc" />
      <path
         sodipodi:type="inkscape:offset"
         inkscape:radius="8.3666096"
         inkscape:original="M 91.15625 8 C 90.137337 8.0290147 89.170943 8.3546989 88.375 8.9375 L 17.75 60.625 C 16.631776 61.442748 15.96875 62.690169 15.96875 64 C 15.96875 65.309829 16.631777 66.557252 17.75 67.375 L 88.375 119.0625 C 89.788837 120.09785 91.711707 120.28046 93.34375 119.5625 C 94.975804 118.84453 96.032008 117.37573 96.03125 115.71875 L 96.03125 90.1875 L 96.03125 85.40625 L 96.03125 84.65625 L 96.03125 79.15625 L 96.03125 48.84375 L 96.03125 43.53125 L 96.03125 43.34375 L 96.03125 37.8125 L 96.03125 12.28125 C 96.031747 11.114786 95.508921 9.9995295 94.59375 9.1875 C 93.678578 8.3754712 92.43042 7.9636687 91.15625 8 z M 86.59375 21.25 L 86.59375 42.46875 L 68.9375 42.46875 C 68.285299 42.46875 67.78125 42.934471 67.78125 43.53125 L 67.78125 85.40625 C 67.781253 86.003029 68.285301 86.5 68.9375 86.5 L 86.59375 86.5 L 86.59375 106.75 L 28.21875 64 L 86.59375 21.25 z "
         style="opacity:0.90526321;fill:url(#linearGradient4687);fill-opacity:1;fill-rule:evenodd;stroke:none;stroke-width:8;stroke-linecap:butt;stroke-linejoin:round;stroke-miterlimit:4;stroke-dasharray:none;stroke-opacity:1"
         id="path4685"
         d="M 90.917969,-0.36328125 C 88.268822,-0.28784381 85.633331,0.57539 83.431641,2.1875 L 12.808594,53.873047 C 9.6911487,56.15385 7.6015625,59.867746 7.6015625,64 c 0,4.133245 2.0903057,7.84824 5.2089845,10.128906 l 70.623047,51.685544 c 3.952572,2.89326 8.952258,3.30978 13.279297,1.40625 4.262909,-1.87533 7.686189,-6.28904 7.685549,-11.50195 v -0.004 -25.52734 -4.78125 -0.75 -5.5 -30.3125 -5.3125 -0.1875 -5.53125 -25.527344 -0.0039 C 104.3988,8.614 102.72214,5.2150654 100.14648,2.9296875 97.456825,0.54316232 94.148233,-0.45538803 90.917969,-0.36328125 Z M 59.414062,51.525391 V 76.474609 L 42.378906,64 Z" />
      <path
         inkscape:connector-curvature="0"
         id="path3685"
         d="m 71.875,12 c -0.799041,0.02487 -1.572946,0.283948 -2.21875,0.75 v 8.572989 L 75.96875,15.625 c -0.08779,-0.946211 -0.499493,-1.832841 -1.1875,-2.5 C 74.003873,12.37118 72.957323,11.966273 71.875,12 Z"
         style="opacity:0.35;fill:url(#radialGradient2366);fill-opacity:1;fill-rule:evenodd;stroke:none;stroke-width:8;stroke-linecap:butt;stroke-linejoin:round;stroke-miterlimit:4;stroke-dasharray:none;stroke-opacity:1;filter:url(#filter3681)"
         transform="matrix(2.0073652,0,0,-1.938835,-51.966993,148.95802)"
         sodipodi:nodetypes="ccccsc" />
      <path
         inkscape:connector-curvature="0"
         style="fill:url(#linearGradient2368);fill-opacity:1;fill-rule:evenodd;stroke:none;stroke-width:1px;stroke-linecap:butt;stroke-linejoin:miter;stroke-opacity:1"
         d="M 24.4,64.000073 87.6,19.744339 87.18446,107.00919 Z"
         id="path2323"
         sodipodi:nodetypes="cccc" />
      <path
         inkscape:connector-curvature="0"
         style="opacity:0.5;fill:url(#radialGradient2370);fill-opacity:1;fill-rule:evenodd;stroke:none;stroke-width:8;stroke-linecap:butt;stroke-linejoin:round;stroke-miterlimit:4;stroke-dasharray:none;stroke-opacity:1;filter:url(#filter3722)"
         d="M 11.6875,59.125 9.5,60.875 C 8.5501441,61.634129 8,62.784063 8,64 c 10e-8,1.215937 0.5501441,2.365871 1.5,3.125 l 3.53125,2.8125 2.125,-5.625 z"
         id="path3705"
         transform="matrix(2.5069599,0,0,-2.4213739,-10.754833,220.28615)" />
      <path
         inkscape:connector-curvature="0"
         style="fill:url(#radialGradient2372);fill-opacity:1;fill-rule:evenodd;stroke:none;stroke-width:1px;stroke-linecap:butt;stroke-linejoin:miter;stroke-opacity:1"
         d="M 87.6,19.744339 24.4,64.000073 87.027458,106.78518 87.6,78.751985 V 49.248162 Z"
         id="path3320"
         sodipodi:nodetypes="cccccc" />
      <path
         inkscape:connector-curvature="0"
         style="fill:none;fill-opacity:1;fill-rule:evenodd;stroke:url(#linearGradient1178);stroke-width:1.0147357px;stroke-linecap:butt;stroke-linejoin:miter;stroke-opacity:1;filter:url(#filter3396)"
         d="M 92,16 32,64 91.45645,110.40495 92,80 V 48 Z"
         id="path3394"
         transform="matrix(1.0533333,0,0,0.9219945,-9.3066667,4.9924269)"
         sodipodi:nodetypes="cccccc" />
      <path
         inkscape:connector-curvature="0"
         id="path3895"
         d="M 92,16 32,64 90.27295,109.05285 92,80 V 48 Z"
         style="fill:none;fill-opacity:1;fill-rule:evenodd;stroke:url(#linearGradient2374);stroke-width:1.0147357px;stroke-linecap:butt;stroke-linejoin:miter;stroke-opacity:1;filter:url(#filter3396)"
         transform="matrix(1.0533333,0,0,0.9219945,-9.3066667,4.9924269)"
         sodipodi:nodetypes="cccccc" />
      <path
         inkscape:connector-curvature="0"
         style="fill:url(#linearGradient2378);fill-opacity:1;fill-rule:evenodd;stroke:none;stroke-width:1px;stroke-linecap:butt;stroke-linejoin:miter;stroke-opacity:1"
         d="M 87.6,19.744339 24.531667,63.913636 c 6.793856,0.858836 14.016911,1.325368 21.5275,1.325367 15.513654,0 29.871052,-1.977018 41.540833,-5.33028 V 49.248162 Z"
         id="path3897" />
      <path
         inkscape:connector-curvature="0"
         style="fill:url(#linearGradient2380);fill-opacity:1;fill-rule:evenodd;stroke:none;stroke-width:1px;stroke-linecap:butt;stroke-linejoin:miter;stroke-opacity:1"
         d="m 87.6,19.744339 -0.88875,0.633871 v 28.46658 10.516499 c -11.508047,3.306789 -25.649685,5.243844 -40.948333,5.243844 -7.131481,0 -13.993161,-0.422394 -20.474167,-1.210119 l -0.757083,0.518622 c 6.793856,0.858836 14.016911,1.325368 21.5275,1.325367 15.513654,0 29.871052,-1.977018 41.540833,-5.33028 V 49.248162 Z"
         id="path3910" />
      <path
         inkscape:connector-curvature="0"
         style="fill:url(#linearGradient2382);fill-opacity:1;fill-rule:evenodd;stroke:none;stroke-width:1px;stroke-linecap:butt;stroke-linejoin:miter;stroke-opacity:1"
         d="M 87.6,19.744339 24.531667,63.913636 c 3.591314,0.453991 7.315582,0.78465 11.125833,1.008432 -3.488053,-0.217395 -6.90721,-0.562838 -10.204167,-0.97962 l 61.225,-42.872743 v 28.639454 10.343625 c -4.247377,1.220467 -8.856521,2.26888 -13.759166,3.08292 C 78.150964,62.285094 83.084328,61.206282 87.6,59.908723 V 49.248162 Z M 35.6575,64.922068 c 1.745003,0.102487 3.515059,0.179649 5.299583,0.230498 -1.785355,-0.05547 -3.555557,-0.121801 -5.299583,-0.230498 z"
         id="path3919" />
    </g>
  </g>
</svg>
