<?xml version="1.0" encoding="UTF-8" standalone="no"?>
<!-- Created with Inkscape (http://www.inkscape.org/) -->

<svg
   xmlns:dc="http://purl.org/dc/elements/1.1/"
   xmlns:cc="http://creativecommons.org/ns#"
   xmlns:rdf="http://www.w3.org/1999/02/22-rdf-syntax-ns#"
   xmlns:svg="http://www.w3.org/2000/svg"
   xmlns="http://www.w3.org/2000/svg"
   xmlns:xlink="http://www.w3.org/1999/xlink"
   xmlns:sodipodi="http://sodipodi.sourceforge.net/DTD/sodipodi-0.dtd"
   xmlns:inkscape="http://www.inkscape.org/namespaces/inkscape"
   version="1.1"
   id="svg2"
   width="128"
   height="128"
   viewBox="0 0 128 128"
   sodipodi:docname="sc_listbox.svg"
   inkscape:version="0.92.3 (unknown)"
   inkscape:export-filename="/home/rizmut/Dokumen/Rizmut/Github/libreoffice-style-karasa-jaga/build/images_karasa_jaga/cmd/sc_listbox.png"
   inkscape:export-xdpi="12"
   inkscape:export-ydpi="12">
  <metadata
     id="metadata8">
    <rdf:RDF>
      <cc:Work
         rdf:about="">
        <dc:format>image/svg+xml</dc:format>
        <dc:type
           rdf:resource="http://purl.org/dc/dcmitype/StillImage" />
        <dc:title></dc:title>
      </cc:Work>
    </rdf:RDF>
  </metadata>
  <defs
     id="defs6">
    <linearGradient
       id="linearGradient1953"
       inkscape:collect="always">
      <stop
         id="stop1949"
         offset="0"
         style="stop-color:#525252;stop-opacity:1" />
      <stop
         id="stop1951"
         offset="1"
         style="stop-color:#575757;stop-opacity:1" />
    </linearGradient>
    <linearGradient
       inkscape:collect="always"
       id="linearGradient67641-3">
      <stop
         style="stop-color:#9f9f9f;stop-opacity:1"
         offset="0"
         id="stop67637" />
      <stop
         style="stop-color:#828282;stop-opacity:1"
         offset="1"
         id="stop67639" />
    </linearGradient>
    <linearGradient
       inkscape:collect="always"
       id="linearGradient878">
      <stop
         style="stop-color:#a19d9c;stop-opacity:0.39215687"
         offset="0"
         id="stop874" />
      <stop
         id="stop882"
         offset="0.5"
         style="stop-color:#605b59;stop-opacity:1" />
      <stop
         style="stop-color:#999493;stop-opacity:0.63921571"
         offset="1"
         id="stop876" />
    </linearGradient>
    <linearGradient
       inkscape:collect="always"
       id="linearGradient838">
      <stop
         style="stop-color:#ffffff;stop-opacity:1;"
         offset="0"
         id="stop834" />
      <stop
         style="stop-color:#bbbbbb;stop-opacity:1"
         offset="1"
         id="stop836" />
    </linearGradient>
    <linearGradient
       inkscape:collect="always"
       xlink:href="#linearGradient878"
       id="linearGradient880"
       x1="21.416348"
       y1="13.17709"
       x2="27.068035"
       y2="6.032567"
       gradientUnits="userSpaceOnUse"
       gradientTransform="matrix(0.70453522,0,0,0.66792779,61.685108,-5.1031574)" />
    <linearGradient
       inkscape:collect="always"
       xlink:href="#linearGradient878"
       id="linearGradient886"
       gradientUnits="userSpaceOnUse"
       x1="21.416348"
       y1="13.17709"
       x2="27.068035"
       y2="6.032567"
       gradientTransform="matrix(-0.70680264,0,0,0.6700774,143.3105,-5.1381494)" />
    <linearGradient
       inkscape:collect="always"
       xlink:href="#linearGradient878"
       id="linearGradient921"
       gradientUnits="userSpaceOnUse"
       x1="21.416348"
       y1="13.17709"
       x2="27.068035"
       y2="6.032567"
       gradientTransform="matrix(0.74284458,0,0,-0.67137643,59.530574,132.10279)" />
    <linearGradient
       inkscape:collect="always"
       xlink:href="#linearGradient878"
       id="linearGradient923"
       gradientUnits="userSpaceOnUse"
       gradientTransform="matrix(-0.67927741,0,0,-0.61392498,143.0144,131.16757)"
       x1="21.416348"
       y1="13.17709"
       x2="27.068035"
       y2="6.032567" />
    <filter
       inkscape:collect="always"
       style="color-interpolation-filters:sRGB"
       id="filter1016"
       x="-0.038409212"
       width="1.0768184"
       y="-0.063974427"
       height="1.1279489">
      <feGaussianBlur
         inkscape:collect="always"
         stdDeviation="0.65166516"
         id="feGaussianBlur1018" />
    </filter>
    <linearGradient
       id="linearGradient7422">
      <stop
         id="stop7424"
         offset="0"
         style="stop-color:#cbcbcd;stop-opacity:1;" />
      <stop
         style="stop-color:#e0e0e2;stop-opacity:1;"
         offset="0.5"
         id="stop7426" />
      <stop
         id="stop7428"
         offset="1"
         style="stop-color:#f2f2f2;stop-opacity:1;" />
    </linearGradient>
    <linearGradient
       inkscape:collect="always"
       xlink:href="#linearGradient7422"
       id="linearGradient1612"
       x1="108.18441"
       y1="68"
       x2="110.46671"
       y2="-8.7429781"
       gradientUnits="userSpaceOnUse"
       gradientTransform="matrix(1.6233927,0,0,0.85793764,-70.17074,8.7459862)" />
    <linearGradient
       inkscape:collect="always"
       xlink:href="#linearGradient67641-3"
       id="linearGradient1644"
       x1="15.545933"
       y1="64.480598"
       x2="91.512299"
       y2="64.480598"
       gradientUnits="userSpaceOnUse"
       gradientTransform="matrix(1.0530977,0,0,1.0052698,-16.371386,-0.67605019)" />
    <linearGradient
       inkscape:collect="always"
       xlink:href="#linearGradient67641-3"
       id="linearGradient1687"
       x1="-52.973675"
       y1="75.053032"
       x2="121.62088"
       y2="96"
       gradientUnits="userSpaceOnUse"
       gradientTransform="matrix(1.3723439,0,0,1.0616008,-44.160562,-2.0533862)" />
    <linearGradient
       inkscape:collect="always"
       xlink:href="#linearGradient67641-3"
       id="linearGradient1826"
       x1="87.2715"
       y1="17.4561"
       x2="127.9982"
       y2="17.4561"
       gradientUnits="userSpaceOnUse"
       gradientTransform="matrix(1.276029,0,0,1,-35.376249,0)" />
    <linearGradient
       inkscape:collect="always"
       xlink:href="#linearGradient7422"
       id="linearGradient1844"
       x1="108"
       y1="16.285156"
       x2="108.49657"
       y2="0"
       gradientUnits="userSpaceOnUse"
       gradientTransform="matrix(1.276029,0,0,1,-35.376249,0)" />
    <linearGradient
       inkscape:collect="always"
       xlink:href="#linearGradient838"
       id="linearGradient1864"
       x1="107.56683"
       y1="7.4467006"
       x2="107.55835"
       y2="30.97431"
       gradientUnits="userSpaceOnUse"
       gradientTransform="matrix(1.2363124,0,0,1,-31.088132,-1.8203125)" />
    <linearGradient
       inkscape:collect="always"
       xlink:href="#linearGradient7422"
       id="linearGradient1868"
       gradientUnits="userSpaceOnUse"
       x1="107.42249"
       y1="14.230735"
       x2="107.41401"
       y2="0.0018"
       gradientTransform="matrix(1.2363124,0,0,1,-31.088132,-1.8203125)" />
    <linearGradient
       inkscape:collect="always"
       xlink:href="#linearGradient1953"
       id="linearGradient1878"
       x1="110.5439"
       y1="34.9104"
       x2="112.96127"
       y2="99.802628"
       gradientUnits="userSpaceOnUse"
       gradientTransform="matrix(1.2857902,0,0,1,-36.627258,0)" />
    <linearGradient
       inkscape:collect="always"
       xlink:href="#linearGradient838"
       id="linearGradient1882"
       gradientUnits="userSpaceOnUse"
       x1="110.5439"
       y1="34.9104"
       x2="110.86439"
       y2="102.11436"
       gradientTransform="matrix(1.1581936,0,0,0.90076406,-22.893417,6.9285543)" />
    <linearGradient
       inkscape:collect="always"
       xlink:href="#linearGradient7422"
       id="linearGradient1917"
       gradientUnits="userSpaceOnUse"
       x1="108"
       y1="16.285156"
       x2="108.49657"
       y2="0"
       gradientTransform="matrix(1.2769302,0,0,-1,-35.493183,128)" />
    <linearGradient
       inkscape:collect="always"
       xlink:href="#linearGradient67641-3"
       id="linearGradient1919"
       gradientUnits="userSpaceOnUse"
       x1="87.2715"
       y1="17.4561"
       x2="127.9982"
       y2="17.4561"
       gradientTransform="matrix(1.2769302,0,0,-1,-35.493183,128)" />
    <linearGradient
       inkscape:collect="always"
       xlink:href="#linearGradient7422"
       id="linearGradient1925"
       gradientUnits="userSpaceOnUse"
       x1="107.42249"
       y1="14.230735"
       x2="110.5439"
       y2="49.605202"
       gradientTransform="matrix(1.2410572,0,0,-0.97190686,-31.632003,127.42788)" />
    <linearGradient
       inkscape:collect="always"
       xlink:href="#linearGradient838"
       id="linearGradient1927"
       gradientUnits="userSpaceOnUse"
       x1="106.95444"
       y1="46.5448"
       x2="110.5439"
       y2="5.8181"
       gradientTransform="matrix(1.2410572,0,0,-0.97190686,-31.632003,127.42788)" />
  </defs>
  <sodipodi:namedview
     pagecolor="#ffffff"
     bordercolor="#666666"
     borderopacity="1"
     objecttolerance="10"
     gridtolerance="10"
     guidetolerance="10"
     inkscape:pageopacity="0"
     inkscape:pageshadow="2"
     inkscape:window-width="1366"
     inkscape:window-height="706"
     id="namedview4"
     showgrid="true"
     inkscape:snap-page="true"
     inkscape:snap-global="true"
     inkscape:zoom="3.4640154"
     inkscape:cx="57.373925"
     inkscape:cy="56.478015"
     inkscape:window-x="0"
     inkscape:window-y="0"
     inkscape:window-maximized="1"
     inkscape:current-layer="svg2"
     inkscape:snap-smooth-nodes="true"
     showguides="true">
    <inkscape:grid
       type="xygrid"
       id="grid67645"
       spacingx="4"
       spacingy="4"
       empspacing="2" />
  </sodipodi:namedview>
  <path
     style="opacity:1;vector-effect:none;fill:url(#linearGradient1644);fill-opacity:1;stroke:none;stroke-width:4.88179016;stroke-linecap:butt;stroke-linejoin:miter;stroke-miterlimit:4;stroke-dasharray:none;stroke-dashoffset:0;stroke-opacity:1"
     d="M 0,0 H 80 V 128.28869 H 0 Z"
     id="rect3821"
     inkscape:connector-curvature="0"
     sodipodi:nodetypes="ccccc" />
  <path
     style="opacity:1;vector-effect:none;fill:#ffffff;fill-opacity:1;stroke:none;stroke-width:4.26358938;stroke-linecap:butt;stroke-linejoin:miter;stroke-miterlimit:4;stroke-dasharray:none;stroke-dashoffset:0;stroke-opacity:1"
     d="M 8,4 H 76 V 120.362 H 8 Z"
     id="rect3819"
     inkscape:connector-curvature="0"
     sodipodi:nodetypes="ccccc" />
  <path
     sodipodi:nodetypes="ssccccccccsss"
     inkscape:connector-curvature="0"
     id="path1888"
     d="m 87.615865,122.17969 c -2.348521,0 -4.239808,-1.54373 -4.239808,-3.46289 v -8.17383 L 83.33918,96.554444 V 93.0896 h 4.239808 28.703492 4.2398 v 3.464844 l 0.037,13.988526 v 8.17383 c 0,1.91916 -1.89127,3.46289 -4.2398,3.46289 z"
     style="opacity:1;fill:url(#linearGradient1917);fill-opacity:1;stroke:none;stroke-width:9.04010677;stroke-linecap:round;stroke-linejoin:round;stroke-miterlimit:4;stroke-dasharray:none;stroke-dashoffset:0;stroke-opacity:1" />
  <path
     inkscape:connector-curvature="0"
     id="path1890"
     d="m 83.376057,127.99805 c -4.115835,0 -7.429639,-2.59514 -7.429639,-5.81836 V 98.908203 93.089844 h 7.429639 37.145713 7.42964 v 5.818359 23.271487 c 0,3.22322 -3.31382,5.81836 -7.42964,5.81836 z"
     style="opacity:1;fill:url(#linearGradient1919);fill-opacity:1;stroke:none;stroke-width:9.04010677;stroke-linecap:round;stroke-linejoin:round;stroke-miterlimit:4;stroke-dasharray:none;stroke-dashoffset:0;stroke-opacity:1" />
  <path
     sodipodi:nodetypes="ssccccccsss"
     inkscape:connector-curvature="0"
     style="opacity:1;fill:url(#linearGradient1925);fill-opacity:1;stroke:none;stroke-width:8.7861414;stroke-linecap:round;stroke-linejoin:round;stroke-miterlimit:4;stroke-dasharray:none;stroke-dashoffset:0;stroke-opacity:1"
     d="m 88.102915,124 c -2.282543,0 -4.105226,-1.50042 -4.120698,-3.36561 l -0.08439,-10.17312 -0.03636,-13.595308 V 93.498457 H 120 v 3.367505 l 0.0363,13.595308 0.0844,10.17312 C 120.13616,122.49958 118.28254,124 116,124 Z"
     id="path1896" />
  <path
     inkscape:connector-curvature="0"
     id="path1898"
     d="m 88.102915,124 c -2.282543,0 -4.105226,-1.50042 -4.120698,-3.36561 l -0.08439,-10.17312 -0.03636,-13.595308 v -3.367505 h 3.861336 v 2.651862 l 0.0097,13.711101 0.01222,7.48672 C 87.74712,118.81704 89.192841,120 90.990377,120 h 21.970593 c 1.79754,0 3.24805,-1.18296 3.24565,-2.65186 l -0.0122,-7.48672 -0.0124,-13.711101 v -2.651862 h 3.8177 v 3.367505 l 0.0363,13.595308 0.0844,10.17312 C 120.13586,122.49958 118.28225,124 115.9997,124 Z"
     style="opacity:1;fill:url(#linearGradient1927);fill-opacity:1;stroke:none;stroke-width:8.7861414;stroke-linecap:round;stroke-linejoin:round;stroke-miterlimit:4;stroke-dasharray:none;stroke-dashoffset:0;stroke-opacity:1"
     sodipodi:nodetypes="ssccccccssssccccccsss" />
  <g
     transform="matrix(1.2769302,0,0,-1,-35.493183,125.54507)"
     id="g1904">
    <path
       inkscape:connector-curvature="0"
       id="path1900"
       d="M 64,22.224075 43.640348,46.671287 h 8.468173 L 64,32.394133 75.891479,46.671287 h 8.468173 z"
       style="opacity:1;fill:#fdfcfc;fill-opacity:1;stroke:none;stroke-width:1.82978177;stroke-linecap:round;stroke-linejoin:bevel;stroke-miterlimit:4;stroke-dasharray:none;stroke-dashoffset:0;stroke-opacity:1;filter:url(#filter1016)"
       transform="matrix(0.42792039,0,0,0.49385372,80.613095,-2.5744106)" />
    <path
       inkscape:connector-curvature="0"
       style="opacity:1;fill:#403c3b;fill-opacity:1;stroke:none;stroke-width:0.86582857;stroke-linecap:round;stroke-linejoin:bevel;stroke-miterlimit:4;stroke-dasharray:none;stroke-dashoffset:0;stroke-opacity:1"
       d="m 107.98593,10.389748 a 0.26267009,0.26267009 0 0 0 -0.19903,0.108562 l -8.968388,12.426269 a 0.26267009,0.26267009 0 0 0 0.213102,0.416153 h 3.731296 a 0.26267009,0.26267009 0 0 0 0.2131,-0.110572 L 108,16.268151 l 5.02399,6.962009 a 0.26267009,0.26267009 0 0 0 0.2131,0.110572 h 3.7313 a 0.26267009,0.26267009 0 0 0 0.2131,-0.416153 L 108.2131,10.49831 a 0.26267009,0.26267009 0 0 0 -0.22717,-0.108562 z"
       id="path1902" />
  </g>
  <path
     style="opacity:1;fill:url(#linearGradient1844);fill-opacity:1;stroke:none;stroke-width:9.03691578;stroke-linecap:round;stroke-linejoin:round;stroke-miterlimit:4;stroke-dasharray:none;stroke-dashoffset:0;stroke-opacity:1"
     d="m 87.64591,5.8203125 c -2.346863,0 -4.236815,1.5437304 -4.236815,3.4628906 v 8.1738279 l -0.03685,13.988525 V 34.9104 h 4.236816 28.683229 4.23681 V 31.445556 L 120.566,17.457031 V 9.2832031 c 0,-1.9191602 -1.88993,-3.4628906 -4.23681,-3.4628906 z"
     id="rect1833"
     inkscape:connector-curvature="0"
     sodipodi:nodetypes="ssccccccccsss" />
  <path
     inkscape:connector-curvature="0"
     style="opacity:1;fill:url(#linearGradient1826);fill-opacity:1;stroke:none;stroke-width:9.03691578;stroke-linecap:round;stroke-linejoin:round;stroke-miterlimit:4;stroke-dasharray:none;stroke-dashoffset:0;stroke-opacity:1"
     d="m 83.409095,0.00195313 c -4.112931,0 -7.424396,2.59513197 -7.424396,5.81835937 v 23.2714845 5.818359 h 7.424396 37.119495 7.42439 V 29.091797 5.8203125 c 0,-3.2232274 -3.31148,-5.81835937 -7.42439,-5.81835937 z"
     id="rect1818" />
  <path
     style="fill:url(#linearGradient921);fill-opacity:1;fill-rule:evenodd;stroke:none;stroke-width:0.70620698px;stroke-linecap:butt;stroke-linejoin:miter;stroke-opacity:1"
     d="m 86.765899,121.17373 -10.819461,1.28565 c 1.279823,1.97052 3.116212,3.65172 5.332829,4.91196 z"
     id="path900"
     inkscape:connector-curvature="0" />
  <path
     style="fill:url(#linearGradient923);fill-opacity:1;fill-rule:evenodd;stroke:none;stroke-width:0.64577496px;stroke-linecap:butt;stroke-linejoin:miter;stroke-opacity:1"
     d="m 118.11067,121.17373 4.99823,5.64683 c 2.01291,-1.15128 3.68141,-2.6827 4.84499,-4.4763 z"
     id="path902"
     inkscape:connector-curvature="0" />
  <path
     style="fill:url(#linearGradient880);fill-opacity:1;fill-rule:evenodd;stroke:none;stroke-width:0.68598729px;stroke-linecap:butt;stroke-linejoin:miter;stroke-opacity:1"
     d="M 82.643431,0 C 80.26989,1.0640494 78.246142,2.5879555 76.736949,4.4257957 L 87.516057,5.769639 Z"
     id="path869"
     inkscape:connector-curvature="0" />
  <path
     style="fill:url(#linearGradient886);fill-opacity:1;fill-rule:evenodd;stroke:none;stroke-width:0.68819499px;stroke-linecap:butt;stroke-linejoin:miter;stroke-opacity:1"
     d="m 122.2656,0 -4.86769,5.769639 10.76342,-1.3407393 C 126.65465,2.591456 124.63382,1.0681525 122.2656,0 Z"
     id="path884"
     inkscape:connector-curvature="0" />
  <path
     id="path1866"
     d="M 88.104943,4 C 85.831127,4 84,5.5437304 84,7.4628906 V 15.636719 L 83.963783,29.625 v 3.464843 H 119.96415 V 29.625 l 0.0363,-13.988281 V 7.4628906 C 120.00038,5.5437304 118.16926,4 115.89544,4 Z"
     style="opacity:1;fill:url(#linearGradient1868);fill-opacity:1;stroke:none;stroke-width:8.8951664;stroke-linecap:round;stroke-linejoin:round;stroke-miterlimit:4;stroke-dasharray:none;stroke-dashoffset:0;stroke-opacity:1"
     inkscape:connector-curvature="0"
     sodipodi:nodetypes="ssccccccsss" />
  <path
     inkscape:connector-curvature="0"
     style="opacity:1;fill:url(#linearGradient1864);fill-opacity:1;stroke:none;stroke-width:8.8951664;stroke-linecap:round;stroke-linejoin:round;stroke-miterlimit:4;stroke-dasharray:none;stroke-dashoffset:0;stroke-opacity:1"
     d="M 88.104943,4 C 85.831127,4 84,5.5437304 84,7.4628906 V 15.636719 L 83.963783,29.625 v 3.464843 h 3.846574 V 30.361328 L 87.615828,17.164062 V 10.728516 C 87.615828,9.2171498 89.05841,8 90.849073,8 H 112.7357 c 1.79066,0 3.23322,1.2171498 3.23322,2.728516 v 6.435546 l 0.19173,13.197266 v 2.728515 h 3.8031 V 29.625 L 120,15.636719 V 7.4628906 C 120,5.5437304 118.16888,4 115.89505,4 Z"
     id="path1855"
     sodipodi:nodetypes="ssccccccssssccccccsss" />
  <g
     id="g1886"
     transform="matrix(1.2403274,0,0,0.97202133,-31.520476,0.9560357)">
    <path
       transform="matrix(0.42792039,0,0,0.49385372,80.613095,1.4255894)"
       style="opacity:1;fill:#fdfcfc;fill-opacity:1;stroke:none;stroke-width:1.82978177;stroke-linecap:round;stroke-linejoin:bevel;stroke-miterlimit:4;stroke-dasharray:none;stroke-dashoffset:0;stroke-opacity:1;filter:url(#filter1016)"
       d="M 64,22.224075 43.640348,46.671287 h 8.468173 L 64,32.394133 75.891479,46.671287 h 8.468173 z"
       id="path888"
       inkscape:connector-curvature="0" />
    <path
       id="path863"
       d="m 107.98633,10.574219 a 0.25518704,0.25518704 0 0 0 -0.19336,0.105469 l -8.712892,12.072265 a 0.25518704,0.25518704 0 0 0 0.207031,0.404297 h 3.625001 a 0.25518704,0.25518704 0 0 0 0.20703,-0.107422 L 108,16.285156 l 4.88086,6.763672 a 0.25518704,0.25518704 0 0 0 0.20703,0.107422 h 3.625 a 0.25518704,0.25518704 0 0 0 0.20703,-0.404297 l -8.71289,-12.072265 a 0.25518704,0.25518704 0 0 0 -0.2207,-0.105469 z"
       style="opacity:1;fill:#403c3b;fill-opacity:1;stroke:none;stroke-width:0.8411625;stroke-linecap:round;stroke-linejoin:bevel;stroke-miterlimit:4;stroke-dasharray:none;stroke-dashoffset:0;stroke-opacity:1"
       inkscape:connector-curvature="0" />
  </g>
  <path
     style="opacity:1;fill:url(#linearGradient1687);fill-opacity:1;stroke:none;stroke-width:4.16747046;stroke-linecap:square;stroke-linejoin:bevel;stroke-miterlimit:4;stroke-dasharray:none;stroke-dashoffset:0;stroke-opacity:0.73039216"
     d="m 89.19883,31.734894 h 25.42233 c 7.38633,0 13.33273,0.08158 13.33273,0.182947 l -0.003,64.331105 c 0,0.101344 -5.94641,0.18295 -13.33273,0.18295 H 89.196516 c -7.386324,0 -13.332719,-0.08162 -13.332715,-0.18295 l 0.0023,-64.331105 c 4e-6,-0.101355 5.946392,-0.182947 13.332715,-0.182947 z"
     id="rect67622"
     inkscape:connector-curvature="0"
     sodipodi:nodetypes="sssssssss" />
  <rect
     style="opacity:1;fill:url(#linearGradient1878);fill-opacity:1;stroke:none;stroke-width:9.07141495;stroke-linecap:round;stroke-linejoin:round;stroke-miterlimit:4;stroke-dasharray:none;stroke-dashoffset:0;stroke-opacity:1"
     id="rect1870"
     width="36"
     height="56"
     x="84"
     y="36"
     ry="5.8180995"
     rx="7.4808555" />
  <rect
     rx="6.7384858"
     ry="5.2407351"
     y="40"
     x="88"
     height="48"
     width="28"
     id="rect1880"
     style="opacity:1;fill:url(#linearGradient1882);fill-opacity:1;stroke:none;stroke-width:8.17120457;stroke-linecap:round;stroke-linejoin:round;stroke-miterlimit:4;stroke-dasharray:none;stroke-dashoffset:0;stroke-opacity:1" />
  <path
     inkscape:connector-curvature="0"
     style="opacity:1;fill:url(#linearGradient1612);fill-opacity:1;stroke:none;stroke-width:3.08248186;stroke-linecap:square;stroke-linejoin:bevel;stroke-miterlimit:4;stroke-dasharray:none;stroke-dashoffset:0;stroke-opacity:0.73039216"
     d="M 96.858999,44 C 94.166278,44 92,45.626354 92,47.645849 v 32.710255 c 0,1.498204 1.196425,2.776899 2.911817,3.338672 0.04962,0.0019 0.09568,0.01036 0.145476,0.01175 l 10.649067,0.295428 h 1.43464 c 2.69271,0 4.859,-1.626355 4.859,-3.64585 V 47.645849 C 112,45.626354 109.83371,44 107.141,44 Z"
     id="rect67598" />
  <rect
     y="20"
     x="20"
     height="4"
     width="40"
     id="rect3864"
     style="opacity:1;vector-effect:none;fill:#4d4d4d;fill-opacity:1;stroke:none;stroke-width:3.2250104;stroke-linecap:butt;stroke-linejoin:miter;stroke-miterlimit:4;stroke-dasharray:none;stroke-dashoffset:0;stroke-opacity:1" />
  <rect
     style="opacity:1;vector-effect:none;fill:#4d4d4d;fill-opacity:1;stroke:none;stroke-width:2.28807163;stroke-linecap:butt;stroke-linejoin:miter;stroke-miterlimit:4;stroke-dasharray:none;stroke-dashoffset:0;stroke-opacity:1"
     id="rect3866"
     width="44"
     height="4"
     x="20"
     y="32" />
  <rect
     style="opacity:1;vector-effect:none;fill:#4d4d4d;fill-opacity:1;stroke:none;stroke-width:3.2250104;stroke-linecap:butt;stroke-linejoin:miter;stroke-miterlimit:4;stroke-dasharray:none;stroke-dashoffset:0;stroke-opacity:1"
     id="rect2028"
     width="40"
     height="4"
     x="20"
     y="52" />
  <rect
     y="68"
     x="20"
     height="4"
     width="44"
     id="rect2030"
     style="opacity:1;vector-effect:none;fill:#4d4d4d;fill-opacity:1;stroke:none;stroke-width:2.28807163;stroke-linecap:butt;stroke-linejoin:miter;stroke-miterlimit:4;stroke-dasharray:none;stroke-dashoffset:0;stroke-opacity:1" />
  <rect
     y="80"
     x="20"
     height="4"
     width="40"
     id="rect2032"
     style="opacity:1;vector-effect:none;fill:#4d4d4d;fill-opacity:1;stroke:none;stroke-width:3.2250104;stroke-linecap:butt;stroke-linejoin:miter;stroke-miterlimit:4;stroke-dasharray:none;stroke-dashoffset:0;stroke-opacity:1" />
  <rect
     style="opacity:1;vector-effect:none;fill:#4d4d4d;fill-opacity:1;stroke:none;stroke-width:2.28807163;stroke-linecap:butt;stroke-linejoin:miter;stroke-miterlimit:4;stroke-dasharray:none;stroke-dashoffset:0;stroke-opacity:1"
     id="rect2034"
     width="44"
     height="4"
     x="20"
     y="100" />
</svg>
