<svg height="128" viewBox="0 0 33.866666 33.866668" width="128" xmlns="http://www.w3.org/2000/svg" xmlns:xlink="http://www.w3.org/1999/xlink"><linearGradient id="a" gradientUnits="userSpaceOnUse" x1="27.73648459615" x2="28.9576421282" y1="294.720546641" y2="266.6339107115"><stop offset="0" stop-color="#555"/><stop offset="1"/></linearGradient><radialGradient id="b" cx="31.999999" cy="101.99995" gradientUnits="userSpaceOnUse" r="32"><stop offset="0" stop-color="#da1c1c"/><stop offset="1" stop-color="#8d1c1c"/></radialGradient><linearGradient id="c" gradientUnits="userSpaceOnUse" x1="88" x2="92" y1="4.000004" y2="84"><stop offset="0" stop-color="#3b3e22"/><stop offset="1" stop-color="#454545" stop-opacity="0"/></linearGradient><radialGradient id="d" cx="32" cy="50.000038" gradientUnits="userSpaceOnUse" r="32"><stop offset="0" stop-color="#73da1c"/><stop offset="1" stop-color="#2f8d1c"/></radialGradient><g transform="translate(0 -263.13332)"><text style="font-size:40.615143;font-family:sans-serif;letter-spacing:0;word-spacing:0;stroke-width:1.015378;fill:url(#a)" x="13.549683" y="294.47021"><tspan fill="url(#a)" font-family="FreeSerif" font-size="42.740532" stroke-width="1.015378" x="13.549683" y="294.47021">0</tspan></text><path d="m4 96v12h22 12 18v-12h-18-12z" fill="url(#b)" transform="matrix(.26458333 0 0 .26458333 0 263.13332)"/><path d="m96.621094 12.044922c2.011434.647584 3.916536 1.595761 5.582026 3.035156 2.95316 2.552202 5.29259 6.229731 7.16016 10.923828 3.74044 9.294425 5.49219 22.383178 5.49219 39.449219 0 1.945511-.02976 3.820036-.07422 5.658203a76.000001 43.999999 0 0 0 11.04102-4.05664c.0107-.639538.02343-1.275876.02343-1.925782 0-16.281108-3.27589-29.278089-9.65429-39.154297-5.38242-8.334047-11.82515-12.701378-19.570316-13.929687zm-10.785156.207031c-7.619857 1.595565-13.804395 6.093901-18.822266 14.025391a2.2606031 2.2606031 0 0 1 -.007813.007812c-6.401306 10.014955-9.65625 22.583095-9.65625 37.876953 0 3.448203.155186 6.744396.447266 9.910157a76.000001 43.999999 0 0 0 10.769531 1.371093c-.142518-3.121323-.232422-6.366889-.232422-9.828125 0-17.545209 1.730263-30.798371 5.455078-39.980468 1.862404-4.591068 4.245361-8.194901 7.271485-10.681641 1.448523-1.190324 3.065702-2.069953 4.775391-2.701172z" fill="url(#c)" transform="matrix(.26458333 0 0 .26458333 0 263.13332)"/><path d="m26 24v20h-22v12h22v20h12v-20h18v-12h-18v-20z" fill="url(#d)" transform="matrix(.26458333 0 0 .26458333 0 263.13332)"/></g></svg>