<?xml version="1.0" encoding="UTF-8" standalone="no"?>
<svg
   xmlns:dc="http://purl.org/dc/elements/1.1/"
   xmlns:cc="http://creativecommons.org/ns#"
   xmlns:rdf="http://www.w3.org/1999/02/22-rdf-syntax-ns#"
   xmlns:svg="http://www.w3.org/2000/svg"
   xmlns="http://www.w3.org/2000/svg"
   xmlns:xlink="http://www.w3.org/1999/xlink"
   xmlns:sodipodi="http://sodipodi.sourceforge.net/DTD/sodipodi-0.dtd"
   xmlns:inkscape="http://www.inkscape.org/namespaces/inkscape"
   height="128"
   viewBox="0 0 33.866666 33.866668"
   width="128"
   version="1.1"
   id="svg20"
   sodipodi:docname="sc_overline.svg"
   inkscape:version="0.92.2 (unknown)"
   inkscape:export-filename="/home/rizmut/Dokumen/Rizmut/Github/libreoffice-style-karasa-jaga/build/images_karasa_jaga/cmd/sc_overline.png"
   inkscape:export-xdpi="12"
   inkscape:export-ydpi="12">
  <metadata
     id="metadata26">
    <rdf:RDF>
      <cc:Work
         rdf:about="">
        <dc:format>image/svg+xml</dc:format>
        <dc:type
           rdf:resource="http://purl.org/dc/dcmitype/StillImage" />
        <dc:title></dc:title>
      </cc:Work>
    </rdf:RDF>
  </metadata>
  <defs
     id="defs24">
    <linearGradient
       inkscape:collect="always"
       xlink:href="#b"
       id="linearGradient857"
       x1="30.087261"
       y1="-7.0787191"
       x2="113.04102"
       y2="40.378906"
       gradientUnits="userSpaceOnUse"
       gradientTransform="matrix(0.26458334,0,0,-0.26458334,0,33.866667)" />
  </defs>
  <sodipodi:namedview
     pagecolor="#ffffff"
     bordercolor="#666666"
     borderopacity="1"
     objecttolerance="10"
     gridtolerance="10"
     guidetolerance="10"
     inkscape:pageopacity="0"
     inkscape:pageshadow="2"
     inkscape:window-width="1366"
     inkscape:window-height="706"
     id="namedview22"
     showgrid="true"
     inkscape:zoom="3.6875001"
     inkscape:cx="53.994246"
     inkscape:cy="49.674254"
     inkscape:window-x="0"
     inkscape:window-y="0"
     inkscape:window-maximized="1"
     inkscape:current-layer="svg20"
     inkscape:snap-global="false">
    <inkscape:grid
       type="xygrid"
       id="grid825"
       spacingx="1.0583333"
       spacingy="1.0583333"
       empspacing="2" />
  </sodipodi:namedview>
  <linearGradient
     id="a"
     gradientUnits="userSpaceOnUse"
     x1="18.98182359615"
     x2="20.2029811282"
     y1="294.720546641"
     y2="266.6339107115"
     gradientTransform="matrix(0.94747733,0,0,0.94747733,-2.8939718,-285.15077)">
    <stop
       offset="0"
       stop-color="#555"
       id="stop2" />
    <stop
       offset="1"
       id="stop4" />
  </linearGradient>
  <linearGradient
     id="b"
     gradientUnits="userSpaceOnUse"
     x1="35.404884"
     x2="54.657333"
     y1="7.324325"
     y2="81.814293"
     gradientTransform="scale(0.26458333)">
    <stop
       offset="0"
       stop-color="#3b3e22"
       id="stop7" />
    <stop
       offset="1"
       stop-color="#454545"
       stop-opacity="0"
       id="stop9" />
  </linearGradient>
  <rect
     x="1.7011719e-06"
     style="fill:#010101;stroke-width:0.26458335"
     height="2.1166668"
     rx="0.47207487"
     ry="0.60722405"
     width="33.866669"
     y="-2.116667"
     id="rect13"
     transform="scale(1,-1)" />
  <g
     id="g872"
     transform="matrix(1,0,0,-1,0,37.04822)">
    <text
       transform="scale(1.0554341,-0.94747743)"
       style="font-size:38.48192978px;font-family:sans-serif;letter-spacing:0;word-spacing:0;fill:url(#a);stroke-width:0.96204764"
       x="1.6492037"
       y="-6.1469045"
       id="text14">
      <tspan
         font-size="42.740532"
         font-weight="bold"
         x="1.6492037"
         y="-6.1469045"
         id="tspan12"
         style="font-style:normal;font-variant:normal;font-weight:normal;font-stretch:normal;font-size:40.49568939px;font-family:FreeSerif;-inkscape-font-specification:FreeSerif;fill:url(#a);stroke-width:0.96204764">O</tspan>
    </text>
    <path
       id="path828"
       d="m 19.958472,31.177942 c 0.0022,-5.82e-4 0.0039,-0.003 0.0062,-0.0036 0.0013,-3.44e-4 0.0028,3.44e-4 0.0041,0 z m -8.746753,-1.8526 C 10.088423,28.791956 9.0354134,28.137023 8.0971805,27.248983 5.7037752,24.983619 4.5165204,22.152936 4.5165202,18.523934 c 2e-7,-1.012559 0.09296,-1.958992 0.2723348,-2.848405 A 21.346045,9.4711858 0 0 1 7.1204957,15.18822 c -0.1928315,1.071046 -0.2909382,2.158326 -0.2909382,3.259749 0,1.094535 0.072951,2.165528 0.2227254,3.214275 a 1.2796095,1.1487227 0 0 0 0.00362,0.02429 c 0.1843167,1.10309 0.5061961,2.233129 0.9565307,3.392041 0.459818,1.183317 1.0366266,2.229944 1.7461466,3.127458 a 1.2796095,1.1487227 0 0 0 0.00413,0.0052 c 0.3656628,0.45671 0.9708658,0.737004 1.4490068,1.114144 z m 12.199772,-0.08682 c 0.671651,-0.555364 1.339841,-1.117762 1.846916,-1.8526 0.730789,-1.016738 1.279596,-2.273799 1.700672,-3.785815 0.430276,-1.545064 0.636654,-3.274961 0.636654,-5.190898 0,-0.720184 -0.04378,-1.437322 -0.129191,-2.150773 a 21.346045,9.4711858 0 0 1 2.391069,0.866097 c 0.03319,0.404257 0.05116,0.819027 0.05116,1.245919 0,3.764382 -1.19456,6.643615 -3.576527,8.87491 a 1.2796095,1.1487227 0 0 0 -0.01033,0.0072 c -0.8762,0.838439 -1.861621,1.46405 -2.910417,1.985925 z"
       style="opacity:1;vector-effect:none;fill:url(#linearGradient857);fill-opacity:1;stroke:none;stroke-width:0.32500002;stroke-linecap:butt;stroke-linejoin:miter;stroke-miterlimit:4;stroke-dasharray:none;stroke-dashoffset:0;stroke-opacity:1"
       inkscape:connector-curvature="0" />
  </g>
</svg>
