<svg height="128" width="128" xmlns="http://www.w3.org/2000/svg" xmlns:xlink="http://www.w3.org/1999/xlink"><linearGradient id="a"><stop offset="0" stop-color="#fd0000"/><stop offset="1" stop-color="#8f0000"/></linearGradient><radialGradient id="b" cx="72.631729" cy="22.787588" gradientTransform="matrix(9.484369 0 0 9.4843886 -628.86608 -152.12633)" gradientUnits="userSpaceOnUse" r="1.265237" xlink:href="#a"/><linearGradient id="c" gradientUnits="userSpaceOnUse" x1="60.00002287741" x2="63.99999634708" xlink:href="#a" y1="35.99999353776" y2="72.000001359"/><linearGradient id="d" gradientUnits="userSpaceOnUse" x1="55.611087" x2="61.160022" y1="44.186089" y2="64.894997"><stop offset="0" stop-color="#fff"/><stop offset="1" stop-color="#fff" stop-opacity="0"/></linearGradient><linearGradient id="e" gradientUnits="userSpaceOnUse" x1="52" x2="60" y1="100" y2="12"><stop offset="0" stop-color="#0968ef"/><stop offset="1" stop-color="#aecffc"/></linearGradient><path d="m20 12 20 40-20 56 92-12c-8.77026-5.321932-57.964389-32-52-32l44-48z" fill="url(#e)" fill-rule="evenodd"/><g fill="#4d4d4d"><path d="m104.79577 104-.78746-7.958749-79.611459 7.874979.787697 7.96113z"/><path d="m106.01201 94.802632 4.20546-6.802632-44.22927-27.345403-4.206722 6.804667z"/><path d="m64.221812 55.82547 5.889338 5.410865 37.88885-41.236335-5.8911-5.412482z"/><path d="m15.999995 98.818798 7.588992 2.523662 16.411013-49.34246-7.591265-2.524421z"/><path d="m32.674545 51.82377 6.975589-3.911885-15.650134-27.911885-6.977677 3.913056z"/></g><g transform="translate(-40.000027 -48)"><rect fill="url(#c)" height="24" rx="2.25" width="24.000011" x="48.000004" y="48"/><rect fill="url(#b)" height="16.000002" rx="1.5" width="16.00001" x="52.000027" y="52"/><path d="m53.55 52c-.831 0-1.5.669-1.5 1.5v7.5625c1.21577.115562 2.46728.1875 3.75.1875 4.616543 0 8.863957-.778523 12.25-2.09375v-5.65625c0-.831-.668998-1.5-1.5-1.5z" fill="url(#d)"/></g><path d="m-378.73128 170.7101v-2.79471z" fill="#fff" fill-opacity=".756881"/><path d="m96.03176 6.896364v-2.794709z" fill="#fff" fill-opacity=".756881"/><path d="m130.40731 60.290044v-1.526736z" fill="#fff" fill-opacity=".756881"/><g transform="translate(47.999973 -48)"><rect fill="url(#c)" height="24" rx="2.25" width="24.000011" x="48.000004" y="48"/><rect fill="url(#b)" height="16.000002" rx="1.5" width="16.00001" x="52.000027" y="52"/><path d="m53.55 52c-.831 0-1.5.669-1.5 1.5v7.5625c1.21577.115562 2.46728.1875 3.75.1875 4.616543 0 8.863957-.778523 12.25-2.09375v-5.65625c0-.831-.668998-1.5-1.5-1.5z" fill="url(#d)"/></g><g transform="translate(7.999973 4)"><rect fill="url(#c)" height="24" rx="2.25" width="24.000011" x="48.000004" y="48"/><rect fill="url(#b)" height="16.000002" rx="1.5" width="16.00001" x="52.000027" y="52"/><path d="m53.55 52c-.831 0-1.5.669-1.5 1.5v7.5625c1.21577.115562 2.46728.1875 3.75.1875 4.616543 0 8.863957-.778523 12.25-2.09375v-5.65625c0-.831-.668998-1.5-1.5-1.5z" fill="url(#d)"/></g><g transform="translate(-24.000027 -8)"><rect fill="url(#c)" height="24" rx="2.25" width="24.000011" x="48.000004" y="48"/><rect fill="url(#b)" height="16.000002" rx="1.5" width="16.00001" x="52.000027" y="52"/><path d="m53.55 52c-.831 0-1.5.669-1.5 1.5v7.5625c1.21577.115562 2.46728.1875 3.75.1875 4.616543 0 8.863957-.778523 12.25-2.09375v-5.65625c0-.831-.668998-1.5-1.5-1.5z" fill="url(#d)"/></g><g transform="translate(55.999962 40)"><rect fill="url(#c)" height="24" rx="2.25" width="24.000011" x="48.000004" y="48"/><rect fill="url(#b)" height="16.000002" rx="1.5" width="16.00001" x="52.000027" y="52"/><path d="m53.55 52c-.831 0-1.5.669-1.5 1.5v7.5625c1.21577.115562 2.46728.1875 3.75.1875 4.616543 0 8.863957-.778523 12.25-2.09375v-5.65625c0-.831-.668998-1.5-1.5-1.5z" fill="url(#d)"/></g><g transform="translate(-40.000027 48)"><rect fill="url(#c)" height="24" rx="2.25" width="24.000011" x="48.000004" y="48"/><rect fill="url(#b)" height="16.000002" rx="1.5" width="16.00001" x="52.000027" y="52"/><path d="m53.55 52c-.831 0-1.5.669-1.5 1.5v7.5625c1.21577.115562 2.46728.1875 3.75.1875 4.616543 0 8.863957-.778523 12.25-2.09375v-5.65625c0-.831-.668998-1.5-1.5-1.5z" fill="url(#d)"/></g><path d="m32 7.9999975v7.9976045l63.999977.0024v-7.9999995z" fill="#4d4d4d"/></svg>