<svg height="128" viewBox="0 0 33.866666 33.866668" width="128" xmlns="http://www.w3.org/2000/svg" xmlns:xlink="http://www.w3.org/1999/xlink"><linearGradient id="a" gradientUnits="userSpaceOnUse" x1="16.63242959615" x2="17.8535871282" y1="289.630193641" y2="261.5435577115"><stop offset="0" stop-color="#555"/><stop offset="1"/></linearGradient><linearGradient id="b" gradientUnits="userSpaceOnUse" x1="52.117416" x2="59.683208" y1="22.913706" y2="84.084274"><stop offset="0" stop-color="#3b3e22"/><stop offset="1" stop-color="#454545" stop-opacity="0"/></linearGradient><g transform="translate(0 -263.13332)"><text style="font-size:40.615143;font-family:sans-serif;letter-spacing:0;word-spacing:0;stroke-width:1.015378;fill:url(#a)" x="2.445629" y="289.37985"><tspan fill="url(#a)" font-family="FreeSerif" font-size="35.277779" font-weight="bold" stroke-width="1.015378" x="2.445629" y="289.37985">Q</tspan></text><path d="m77.207031 14.554688c1.921648 1.946532 4.079895 3.553936 5.484375 6.179687 4.643286 8.680894 6.681641 20.140926 6.681641 34.464844 0 .01604.000005.030842 0 .046875a113.7082 38.478259 0 0 0 14.214843-3.087891c-.4861-11.661994-4.411751-20.823861-11.912109-28.324219a4.6669221 4.6669221 0 0 1 -.029297-.029296c-4.20088-4.285758-9.03356-7.253427-14.439453-9.25zm-32.273437.066406c-5.316764 2.018797-10.105136 5.025886-14.357422 9.316406-.002494.002532-.005319.00528-.007813.007812-.002541.002571-.005271.005243-.007812.007813-8.047001 8.215408-11.988281 18.253023-11.988281 31.113281 0 1.504938.062554 2.970217.18164 4.400391a113.7082 38.478259 0 0 0 14.173828.417969c-.05333-1.568813-.085937-3.168042-.085937-4.81836 0-14.41149 2.034217-25.87538 6.695312-34.488281 1.374339-2.53954 3.517409-4.062656 5.396485-5.957031z" fill="url(#b)" transform="matrix(.26458333 0 0 .26458333 0 263.13332)"/></g></svg>