<?xml version="1.0" encoding="UTF-8" standalone="no"?>
<svg
   xmlns:dc="http://purl.org/dc/elements/1.1/"
   xmlns:cc="http://creativecommons.org/ns#"
   xmlns:rdf="http://www.w3.org/1999/02/22-rdf-syntax-ns#"
   xmlns:svg="http://www.w3.org/2000/svg"
   xmlns="http://www.w3.org/2000/svg"
   xmlns:xlink="http://www.w3.org/1999/xlink"
   xmlns:sodipodi="http://sodipodi.sourceforge.net/DTD/sodipodi-0.dtd"
   xmlns:inkscape="http://www.inkscape.org/namespaces/inkscape"
   enable-background="new 0 0 128 128"
   height="128"
   viewBox="0 0 128 128"
   width="128"
   version="1.1"
   id="svg2921"
   sodipodi:docname="sc_redactedexportblack.svg"
   inkscape:version="0.92.4 (unknown)"
   inkscape:export-filename="/home/rizmut/Dokumen/Rizmut/Github/libreoffice-style-karasa-jaga/build/images_karasa_jaga/cmd/sc_redactedexportblack.png"
   inkscape:export-xdpi="12"
   inkscape:export-ydpi="12">
  <metadata
     id="metadata2927">
    <rdf:RDF>
      <cc:Work
         rdf:about="">
        <dc:format>image/svg+xml</dc:format>
        <dc:type
           rdf:resource="http://purl.org/dc/dcmitype/StillImage" />
        <dc:title></dc:title>
      </cc:Work>
    </rdf:RDF>
  </metadata>
  <defs
     id="defs2925">
    <linearGradient
       id="linearGradient6111">
      <stop
         id="stop6113"
         offset="0"
         style="stop-color:#9c0f0f;stop-opacity:1;" />
      <stop
         style="stop-color:#e81919;stop-opacity:1;"
         offset="0.5"
         id="stop7088" />
      <stop
         id="stop6115"
         offset="1"
         style="stop-color:#cd1313;stop-opacity:1;" />
    </linearGradient>
    <linearGradient
       inkscape:collect="always"
       xlink:href="#linearGradient3716"
       id="linearGradient2686"
       gradientUnits="userSpaceOnUse"
       gradientTransform="matrix(0,1.1624527,-1.1624527,0,126.50102,-26.032024)"
       x1="63.998402"
       y1="2.0128229"
       x2="63.998402"
       y2="74.721313" />
    <linearGradient
       id="linearGradient3716">
      <stop
         id="stop3718"
         offset="0"
         style="stop-color:#fefefe;stop-opacity:1" />
      <stop
         style="stop-color:#e9eaea;stop-opacity:1"
         offset="0.23920465"
         id="stop3732" />
      <stop
         id="stop3720"
         offset="1"
         style="stop-color:#fdfdfd;stop-opacity:1" />
    </linearGradient>
    <linearGradient
       inkscape:collect="always"
       xlink:href="#linearGradient3757"
       id="linearGradient2704"
       gradientUnits="userSpaceOnUse"
       gradientTransform="matrix(0,-1.0293895,1.0293895,0,11.93834,80.22496)"
       x1="64.129814"
       y1="56.231236"
       x2="5.1264462"
       y2="56.231236" />
    <linearGradient
       id="linearGradient3757">
      <stop
         id="stop3759"
         offset="0"
         style="stop-color:#000000;stop-opacity:1;" />
      <stop
         style="stop-color:#000000;stop-opacity:1;"
         offset="0"
         id="stop3761" />
      <stop
         style="stop-color:#000000;stop-opacity:0.58823532;"
         offset="0.56999999"
         id="stop3763" />
      <stop
         id="stop3765"
         offset="0.74199998"
         style="stop-color:#3b3b3b;stop-opacity:0.72000003;" />
      <stop
         id="stop3767"
         offset="1"
         style="stop-color:white;stop-opacity:0;" />
    </linearGradient>
    <filter
       id="filter3827"
       inkscape:collect="always">
      <feGaussianBlur
         id="feGaussianBlur3829"
         stdDeviation="1.7999096"
         inkscape:collect="always" />
    </filter>
    <filter
       id="filter3797"
       inkscape:collect="always">
      <feGaussianBlur
         id="feGaussianBlur3799"
         stdDeviation="0.89030997"
         inkscape:collect="always" />
    </filter>
    <radialGradient
       id="XMLID_8_"
       cx="102"
       cy="112.3047"
       r="139.55859"
       gradientUnits="userSpaceOnUse">
      <stop
         offset="0"
         style="stop-color:#535557"
         id="stop37" />
      <stop
         offset="0.11366145"
         style="stop-color:#898A8C"
         id="stop41" />
      <stop
         offset="0.20296688"
         style="stop-color:#ECECEC"
         id="stop47" />
      <stop
         offset="0.2363"
         style="stop-color:#FAFAFA"
         id="stop49" />
      <stop
         offset="0.2722"
         style="stop-color:#FFFFFF"
         id="stop51" />
      <stop
         offset="0.5313"
         style="stop-color:#FAFAFA"
         id="stop53" />
      <stop
         offset="0.8449"
         style="stop-color:#EBECEC"
         id="stop55" />
      <stop
         offset="1"
         style="stop-color:#E1E2E3"
         id="stop57" />
    </radialGradient>
    <linearGradient
       inkscape:collect="always"
       xlink:href="#linearGradient3757"
       id="linearGradient1034"
       gradientUnits="userSpaceOnUse"
       gradientTransform="matrix(0,-1.0293895,1.0293895,0,11.93834,80.22496)"
       x1="64.129814"
       y1="56.231236"
       x2="5.1264462"
       y2="56.231236" />
  </defs>
  <sodipodi:namedview
     pagecolor="#ffffff"
     bordercolor="#666666"
     borderopacity="1"
     objecttolerance="10"
     gridtolerance="10"
     guidetolerance="10"
     inkscape:pageopacity="0"
     inkscape:pageshadow="2"
     inkscape:window-width="1366"
     inkscape:window-height="714"
     id="namedview2923"
     showgrid="true"
     inkscape:zoom="1.859375"
     inkscape:cx="-33.030089"
     inkscape:cy="44.935025"
     inkscape:window-x="0"
     inkscape:window-y="28"
     inkscape:window-maximized="1"
     inkscape:current-layer="svg2921"
     inkscape:snap-page="true">
    <inkscape:grid
       type="xygrid"
       id="grid864"
       spacingx="4"
       spacingy="4" />
  </sodipodi:namedview>
  <linearGradient
     id="a"
     gradientUnits="userSpaceOnUse"
     x1="85.219681"
     x2="61.336319"
     y1="93.219681"
     y2="69.336319">
    <stop
       offset="0"
       id="stop2826" />
    <stop
       offset="1"
       stop-color="#393b38"
       id="stop2828" />
  </linearGradient>
  <linearGradient
     id="b"
     gradientUnits="userSpaceOnUse"
     x1="96"
     x2="88.0002"
     y1="104"
     y2="96.0002">
    <stop
       offset="0"
       stop-color="#888a85"
       id="stop2831" />
    <stop
       offset=".0072"
       stop-color="#8c8e89"
       id="stop2833" />
    <stop
       offset=".0673"
       stop-color="#abaca9"
       id="stop2835" />
    <stop
       offset=".1347"
       stop-color="#c5c6c4"
       id="stop2837" />
    <stop
       offset=".2115"
       stop-color="#dbdbda"
       id="stop2839" />
    <stop
       offset=".3012"
       stop-color="#ebebeb"
       id="stop2841" />
    <stop
       offset=".4122"
       stop-color="#f7f7f6"
       id="stop2843" />
    <stop
       offset=".5679"
       stop-color="#fdfdfd"
       id="stop2845" />
    <stop
       offset="1"
       stop-color="#fff"
       id="stop2847" />
  </linearGradient>
  <radialGradient
     id="c"
     cx="102"
     cy="112.3047"
     gradientTransform="matrix(0.9787234,0,0,0.9818182,1.361705,1.163636)"
     gradientUnits="userSpaceOnUse"
     r="139.55859">
    <stop
       offset="0"
       stop-color="#535557"
       id="stop2850" />
    <stop
       offset=".11366145"
       stop-color="#898a8c"
       id="stop2852" />
    <stop
       offset=".20296688"
       stop-color="#ececec"
       id="stop2854" />
    <stop
       offset=".2363"
       stop-color="#fafafa"
       id="stop2856" />
    <stop
       offset=".2722"
       stop-color="#fff"
       id="stop2858" />
    <stop
       offset=".5313"
       stop-color="#fafafa"
       id="stop2860" />
    <stop
       offset=".8449"
       stop-color="#ebecec"
       id="stop2862" />
    <stop
       offset="1"
       stop-color="#e1e2e3"
       id="stop2864" />
  </radialGradient>
  <radialGradient
     id="d"
     cx="102.000002"
     cy="112.3047"
     gradientUnits="userSpaceOnUse"
     r="139.5585">
    <stop
       offset="0"
       stop-color="#00537d"
       id="stop2867" />
    <stop
       offset=".0151"
       stop-color="#186389"
       id="stop2869" />
    <stop
       offset=".0558"
       stop-color="#558ca8"
       id="stop2871" />
    <stop
       offset=".0964"
       stop-color="#89afc3"
       id="stop2873" />
    <stop
       offset=".1357"
       stop-color="#b3ccd8"
       id="stop2875" />
    <stop
       offset=".1737"
       stop-color="#d4e2e9"
       id="stop2877" />
    <stop
       offset=".2099"
       stop-color="#ecf2f5"
       id="stop2879" />
    <stop
       offset=".2435"
       stop-color="#fafcfd"
       id="stop2881" />
    <stop
       offset=".2722"
       stop-color="#fff"
       id="stop2883" />
  </radialGradient>
  <filter
     id="e">
    <feGaussianBlur
       stdDeviation="1.0394514"
       id="feGaussianBlur2886" />
  </filter>
  <filter
     id="f">
    <feGaussianBlur
       stdDeviation=".50063244"
       id="feGaussianBlur2889" />
  </filter>
  <filter
     id="g">
    <feGaussianBlur
       stdDeviation=".4901192"
       id="feGaussianBlur2892" />
  </filter>
  <filter
     id="h">
    <feGaussianBlur
       stdDeviation=".90565481"
       id="feGaussianBlur2895" />
  </filter>
  <filter
     id="i"
     height="1.247155"
     width="1.247155"
     x="-.123577"
     y="-.123577">
    <feGaussianBlur
       stdDeviation="1.7720846"
       id="feGaussianBlur2898" />
  </filter>
  <path
     style="opacity:0.71506898;filter:url(#e)"
     inkscape:connector-curvature="0"
     d="m 23,9 0.04082,112 H 84.172 c 0.53,0 1.039,-0.211 1.414,-0.586 L 118.414,87.586 C 118.789,87.211 119,86.702 119,86.172 V 9 Z"
     transform="matrix(1.0416667,0,0,1.0357143,-9.958333,-3.321534)"
     id="path2901" />
  <path
     style="opacity:0.89589;filter:url(#f)"
     inkscape:connector-curvature="0"
     d="M 24.919999,10.931136 V 119.06907 l 58.676001,-1e-4 c 0.53,0 1.039,-0.211 1.414,-0.586 l 31.484,-31.765936 c 0.375,-0.375 0.586,-0.884 0.586,-1.414 V 10.931136 Z"
     transform="matrix(1.0416667,0,0,1.0357143,-9.958333,-3.321534)"
     id="path2903" />
  <path
     style="opacity:0.83561599;filter:url(#e)"
     inkscape:connector-curvature="0"
     d="M 23,9.9655172 23.040816,121 H 84.172 c 0.53,0 1.039,-0.211 1.414,-0.586 13.296921,-8.21061 24.14086,-19.26784 32.828,-32.828 C 118.789,87.211 119,86.702 119,86.172 V 9.9655172 Z"
     transform="matrix(1.0416667,0,0,1.0357143,-9.958333,-3.321534)"
     id="path2905" />
  <path
     inkscape:connector-curvature="0"
     style="fill:url(#d)"
     d="m 16.000002,8 v 112 h 61.172 c 0.53,0 1.039,-0.211 1.414,-0.586 L 111.414,86.586 C 111.789,86.211 112,85.702 112,85.172 V 8 Z"
     id="path2907" />
  <path
     inkscape:connector-curvature="0"
     style="fill:url(#c)"
     d="m 24.678725,16 c -0.539276,0 -0.978723,0.440836 -0.978723,0.981818 l 0.3,94.036362 c 0,0.54197 0.439447,0.98182 0.978723,0.98182 h 51.913022 c 0.257404,0 0.509915,-0.10407 0.691957,-0.28767 L 103.71323,85.4812 C 103.89626,85.2976 104,85.045273 104,84.787055 V 16.981818 C 104,16.440836 103.56153,16 103.02128,16 Z"
     id="path2909" />
  <rect
     style="opacity:1;vector-effect:none;fill:#7a7a7a;fill-opacity:1;stroke:none;stroke-width:1;stroke-miterlimit:4;stroke-dasharray:none"
     id="rect882"
     width="80"
     height="24"
     x="24"
     y="72" />
  <g
     transform="translate(2e-6)"
     id="g2919">
    <path
       style="opacity:0.90684904;filter:url(#i)"
       inkscape:connector-curvature="0"
       d="M 111.414,86.586 C 111.664,86.336 85.035,85 80,85 c -1.654,0 -3,1.346 -3,3 0,5.035 1.336,31.664 1.586,31.414 z"
       id="path2911" />
    <path
       style="opacity:0.2;filter:url(#h)"
       inkscape:connector-curvature="0"
       d="M 111.414,86.586 C 111.789,86.211 89.444,86 80,86 c -1.103,0 -2,0.897 -2,2 0,9.444 0.211,31.789 0.586,31.414 z"
       id="path2913" />
    <path
       inkscape:connector-curvature="0"
       style="opacity:0.1;fill:url(#a);filter:url(#g)"
       d="M 111.414,86.586 C 111.653,86.347 89.807,87 80,87 c -0.553,0 -1,0.447 -1,1 0,9.807 -0.653,31.653 -0.414,31.414 z"
       id="path2915" />
    <path
       inkscape:connector-curvature="0"
       style="fill:url(#b)"
       d="m 78.586,119.414 c 0,0 11.914,-9.914 17.414,-15.414 5.5,-5.5 15.414,-17.414 15.414,-17.414 0,0 -21.164,1.414 -31.414,1.414 0,10.25 -1.414,31.414 -1.414,31.414 z"
       id="path2917" />
  </g>
  <rect
     y="24"
     x="24"
     height="16"
     width="48"
     id="rect894"
     style="opacity:1;vector-effect:none;fill:#7a7a7a;fill-opacity:1;stroke:none;stroke-width:1.70336831;stroke-miterlimit:4;stroke-dasharray:none" />
  <rect
     style="opacity:1;vector-effect:none;fill:#7a7a7a;fill-opacity:1;stroke:none;stroke-width:1;stroke-miterlimit:4;stroke-dasharray:none"
     id="rect896"
     width="48"
     height="16"
     x="40"
     y="48" />
  <g
     id="g1042">
    <path
       inkscape:connector-curvature="0"
       id="path3341"
       d="M 93.2785,83.62253 Z"
       style="fill:none;stroke:#000000;stroke-width:1px;stroke-linecap:butt;stroke-linejoin:miter;stroke-opacity:1" />
    <path
       transform="matrix(0,1.1624527,-1.1624527,0,128.25009,-26.032024)"
       d="M 62.6875,3.21875 C 62.209361,3.3251895 61.823747,3.7277733 61.46875,4.0625 L 61.375,3.96875 26.40625,36.40625 c -0.461774,0.435805 -0.93749,0.966265 -0.9375,2.125 0,1.158773 0.47582,1.689264 0.9375,2.125 l 8.15625,8.1875 c 0.01033,0.01051 0.02074,0.02092 0.03125,0.03125 1.094359,1.058529 2.650674,1.128065 3.84375,0.21875 0.01051,-0.01032 0.02092,-0.02074 0.03125,-0.03125 l 15.84375,-12.65625 1,38.1875 c 0.0071,1.490569 0.187893,2.929247 1.90625,2.9375 H 68.5625 c 1.717353,-0.0082 2.929282,-1.220155 2.9375,-2.9375 l 1,-38.1875 15.84375,12.65625 c 0.01032,0.01051 0.02074,0.02092 0.03125,0.03125 1.071736,0.816838 2.843935,0.718071 3.8125,-0.21875 0.01051,-0.01032 0.02093,-0.02074 0.03125,-0.03125 l 8.25,-8.21875 c 0.68731,-0.648651 0.84376,-1.38688 0.84375,-2.09375 0,-0.706872 -0.21893,-1.476333 -0.90625,-2.125 l -35,-32.4375 C 64.973706,3.5572792 64.408622,3.3135174 63.8125,3.28125 63.537956,3.2172038 63.21617,3.1010615 62.6875,3.21875 Z"
       id="path3769"
       style="fill:url(#linearGradient1034);fill-opacity:1;stroke:none;filter:url(#filter3797)"
       inkscape:original="M 62.6875 3.21875 C 62.209361 3.3251895 61.823747 3.7277733 61.46875 4.0625 L 61.375 3.96875 L 26.40625 36.40625 C 25.944476 36.842055 25.46876 37.372515 25.46875 38.53125 C 25.46875 39.690023 25.94457 40.220514 26.40625 40.65625 L 34.5625 48.84375 C 34.572825 48.85426 34.583242 48.864675 34.59375 48.875 C 35.688109 49.933529 37.244424 50.003065 38.4375 49.09375 C 38.448008 49.083427 38.458425 49.073008 38.46875 49.0625 L 54.3125 36.40625 L 55.3125 74.59375 C 55.319633 76.084319 55.500393 77.522997 57.21875 77.53125 L 68.5625 77.53125 C 70.279853 77.523029 71.491782 76.311095 71.5 74.59375 L 72.5 36.40625 L 88.34375 49.0625 C 88.354075 49.07301 88.364492 49.083425 88.375 49.09375 C 89.446736 49.910588 91.218935 49.811821 92.1875 48.875 C 92.198008 48.864677 92.208425 48.854258 92.21875 48.84375 L 100.46875 40.625 C 101.15606 39.976349 101.31251 39.23812 101.3125 38.53125 C 101.3125 37.824378 101.09357 37.054917 100.40625 36.40625 L 65.40625 3.96875 C 64.973706 3.5572792 64.408622 3.3135174 63.8125 3.28125 C 63.537956 3.2172038 63.21617 3.1010615 62.6875 3.21875 z "
       inkscape:radius="6.3651431e-05"
       sodipodi:type="inkscape:offset" />
    <path
       sodipodi:type="inkscape:offset"
       inkscape:radius="0.56196642"
       inkscape:original="M 62.6875 3.21875 C 62.209361 3.3251895 61.823747 3.7277733 61.46875 4.0625 L 61.375 3.96875 L 26.40625 36.40625 C 25.944476 36.842055 25.46876 37.372515 25.46875 38.53125 C 25.46875 39.690023 25.94457 40.220514 26.40625 40.65625 L 34.5625 48.84375 C 34.572825 48.85426 34.583242 48.864675 34.59375 48.875 C 35.688109 49.933529 37.244424 50.003065 38.4375 49.09375 C 38.448008 49.083427 38.458425 49.073008 38.46875 49.0625 L 54.3125 36.40625 L 55.3125 74.59375 C 55.319633 76.084319 55.500393 77.522997 57.21875 77.53125 L 68.5625 77.53125 C 70.279853 77.523029 71.491782 76.311095 71.5 74.59375 L 72.5 36.40625 L 88.34375 49.0625 C 88.354075 49.07301 88.364492 49.083425 88.375 49.09375 C 89.446736 49.910588 91.218935 49.811821 92.1875 48.875 C 92.198008 48.864677 92.208425 48.854258 92.21875 48.84375 L 100.46875 40.625 C 101.15606 39.976349 101.31251 39.23812 101.3125 38.53125 C 101.3125 37.824378 101.09357 37.054917 100.40625 36.40625 L 65.40625 3.96875 C 64.973706 3.5572792 64.408622 3.3135174 63.8125 3.28125 C 63.537956 3.2172038 63.21617 3.1010615 62.6875 3.21875 z "
       style="opacity:0.38118813;fill:url(#linearGradient2704);fill-opacity:1;stroke:none;filter:url(#filter3827)"
       id="path3801"
       d="M 62.564453,2.6699219 C 62.013866,2.7924891 61.656812,3.1160022 61.353516,3.4082031 A 0.56202262,0.56202262 0 0 0 60.992188,3.5566406 L 26.023438,35.994141 a 0.56202262,0.56202262 0 0 0 -0.002,0.0039 c -0.487207,0.459808 -1.115223,1.22066 -1.115234,2.533203 0,1.312611 0.628145,2.073486 1.115234,2.533203 l -0.01367,-0.01172 8.15625,8.1875 c 0.01202,0.01221 0.023,0.02321 0.03516,0.03516 a 0.56202262,0.56202262 0 0 0 0.0039,0.0039 c 1.276892,1.235085 3.182769,1.322226 4.574219,0.261719 a 0.56202262,0.56202262 0 0 0 0.05469,-0.04687 c 0.0027,-0.0027 0.0051,-0.0051 0.0078,-0.0078 L 53.779297,37.552734 54.75,74.609375 c 0.004,0.76297 0.03567,1.554861 0.367188,2.25 0.333476,0.699255 1.083697,1.229496 2.099609,1.234375 a 0.56202262,0.56202262 0 0 0 0.002,0 H 68.5625 a 0.56202262,0.56202262 0 0 0 0.002,0 c 1.980464,-0.0095 3.48857,-1.51759 3.498047,-3.498047 l 0.970703,-37.042969 14.939453,11.933594 c 0.0027,0.0027 0.0051,0.0052 0.0078,0.0078 a 0.56202262,0.56202262 0 0 0 0.05469,0.04687 c 1.326647,1.011121 3.342366,0.899535 4.542969,-0.261719 a 0.56202262,0.56202262 0 0 0 0.0039,-0.0039 c 0.01155,-0.01135 0.0219,-0.02174 0.0332,-0.0332 l 0.0039,-0.0039 8.234379,-8.205078 c 0.81113,-0.765514 1.02149,-1.712158 1.02148,-2.501953 0,-0.822906 -0.27865,-1.773163 -1.08398,-2.533203 a 0.56202262,0.56202262 0 0 0 -0.002,-0.0039 L 65.789062,3.5566406 65.792969,3.5625 C 65.275976,3.0706946 64.603306,2.7827497 63.892578,2.7324219 63.659309,2.675763 63.194643,2.5296339 62.564453,2.6699219 Z"
       transform="matrix(0,1.1624527,-1.1624527,0,128.25009,-26.032024)" />
    <path
       inkscape:connector-curvature="0"
       sodipodi:nodetypes="ccsccccccccccccsccc"
       id="path2842"
       d="M 122.10238,48.002373 83.81065,88.68734 c -0.09228,0.09779 -0.220793,0.1532 -0.355245,0.1532 -0.134454,0 -0.262963,-0.05541 -0.355247,-0.1532 l -9.572931,-9.572933 c -0.167857,-0.17354 -0.183748,-0.443682 -0.03739,-0.635704 L 92,55.331652 H 56.358514 c -0.267944,-0.0013 -0.484841,-0.218179 -0.486123,-0.486126 v -14.3594 c 0.0013,-0.267945 0.218179,-0.484841 0.486123,-0.486123 H 92 L 73.489837,16.85295 c -0.146354,-0.192022 -0.130463,-0.462162 0.03739,-0.635702 l 9.572931,-9.5729323 c 0.09228,-0.09778 0.220793,-0.153205 0.355247,-0.153205 0.134452,0 0.262963,0.05542 0.355245,0.153205 l 38.29173,40.6849633 c 0.27495,0.194779 0,0.469059 0,0.673094 z"
       style="fill:url(#linearGradient2686);fill-opacity:1;stroke:none" />
    <path
       inkscape:connector-curvature="0"
       sodipodi:nodetypes="cccsccccccsccc"
       id="path2861"
       d="m 122.21771,47.488791 c -0.0129,-0.05629 -0.0658,-0.130651 -0.13451,-0.179346 L 83.793207,6.6431377 c -0.09228,-0.09778 -0.224237,-0.134508 -0.35869,-0.134511 -0.134453,0 -0.221566,0.03673 -0.313853,0.134511 l -4.511382,4.4945443 34.673498,36.171763 c 0.27495,0.194779 0,0.468505 0,0.672544 l -34.143153,36.718041 3.981037,3.99311 c 0.09229,0.09777 0.1794,0.13449 0.313853,0.1345 0.134453,0 0.266409,-0.03673 0.35869,-0.1345 L 122.0832,47.981989 c 0,-0.15303 0.17318,-0.32432 0.13451,-0.493198 z"
       style="fill:#ffffff;fill-opacity:1;stroke:none" />
  </g>
</svg>
