<svg height="128" viewBox="0 0 33.866666 33.866668" width="128" xmlns="http://www.w3.org/2000/svg" xmlns:xlink="http://www.w3.org/1999/xlink"><linearGradient id="a" gradientUnits="userSpaceOnUse" x1=".000000461" x2="33.866667539" y1="280.067" y2="280.067"><stop offset="0" stop-color="#969696"/><stop offset=".20022914" stop-color="#f1f1f1"/><stop offset=".43749997" stop-color="#bbb"/><stop offset=".62499994" stop-color="#f6f6f6"/><stop offset=".73511833" stop-color="#e6e6e6"/><stop offset=".875" stop-color="#c0c0c0"/><stop offset="1" stop-color="#aeaeae"/></linearGradient><linearGradient id="b" gradientTransform="matrix(0 .26458333 .26458333 0 -45.483819 256.87331)" gradientUnits="userSpaceOnUse" x1="172.56801" x2="178.04466" xlink:href="#c" y1="233.48956" y2="367.96475"/><linearGradient id="c" gradientUnits="userSpaceOnUse" x1="78.560501" x2="40.480499" y1="8.0806" y2="36.640598"><stop offset="0" stop-color="#8e79b9"/><stop offset="1" stop-color="#462886"/></linearGradient><radialGradient id="d" cx="64.30331524951" cy="64.50553248838" fx="63.99474425502" fy="51.5456186982" gradientUnits="userSpaceOnUse" r="19.63723464509" xlink:href="#c"/><filter id="e"><feGaussianBlur stdDeviation=".41550345"/></filter><g transform="translate(0 -263.13332)"><path d="m15.610421 263.66286-1.256776 3.50576v.1984l.66144 3.04272-3.571872 1.4552-1.719792-2.57968-.13232-.1984-3.307296-1.58753-1.918224 1.91824 1.587496 3.30728.19832.132 2.579688 1.71976-1.455208 3.57192-3.042712-.6616h-.19832l-3.505728 1.25681v2.64584l3.505728 1.2568h.19832l3.042712-.6616 1.455208 3.57192-2.579688 1.71976-.19832.132-1.587496 3.30728 1.918224 1.91824 3.307296-1.58752.13232-.19841 1.719792-2.57967 3.571872 1.45519-.66144 3.04272v.19841l1.256776 3.50576h2.645832l1.256768-3.50576v-.19841l-.66144-3.04272 3.57188-1.45519 1.719792 2.57967.13232.19841 3.307288 1.58752 1.918232-1.91824-1.587504-3.30728-.19832-.132-2.579688-1.71976 1.455208-3.57192 3.042712.6616h.19832l3.505728-1.2568v-2.64584l-3.505728-1.25681h-.19832l-3.042712.6616-1.455208-3.57192 2.579688-1.71976.19832-.132 1.587504-3.30728-1.918232-1.91824-3.307288 1.58753-.13232.1984-1.719792 2.57968-3.57188-1.4552.66144-3.04272v-.1984l-1.256768-3.50576zm1.322912 11.90632c2.47424 0 4.49792 2.02615 4.49792 4.49791-.000024 2.47168-2.02368 4.49784-4.49792 4.49784-2.474232 0-4.497912-2.02616-4.497912-4.49784 0-2.47184 2.02368-4.49791 4.497912-4.49791z" fill="url(#a)" stroke="#6a6a6a" stroke-width="1.481667"/><path d="m28.677734 273.41992c-1.616455-.0525-2.750685 1.09341-2.919922 2.64258h-5.121093a1.8867233 1.8867233 0 0 0 -1.886719 1.88672v4.23437a1.8867233 1.8867233 0 0 0 1.886719 1.88672h5.074219c.100398 1.00507.612696 1.87958 1.548828 2.34766 1.032259.51611 2.16586.41525 3.091796-.27735a1.8867233 1.8867233 0 0 0 .111329-.0898l4.232421-3.70508-.109374.0879c.765583-.57517 1.175781-1.423 1.175781-2.35937 0-.93638-.410174-1.78418-1.175781-2.35938l.109374.0879-4.232421-3.70312a1.8867233 1.8867233 0 0 0 -.103516-.084c-.488944-.36988-1.062452-.57325-1.673828-.5957a1.8867233 1.8867233 0 0 0 -.0078 0z" fill="#fff"/><circle cx="64.303314" cy="64.505531" fill="url(#d)" filter="url(#e)" r="18.199051" transform="matrix(.23001856 0 0 .23001856 2.23362 265.24547)"/><path d="m20.637501 282.18332h6.879166v1.59577c.00053.39267.235831.77524.587045.95085.351213.1756.801782.13599 1.116211-.0992l4.233333-3.70417c.263001-.19759.42168-.52267.42168-.85163 0-.32895-.158679-.65403-.42168-.85162l-4.233333-3.70417c-.173006-.13088-.386795-.20701-.603581-.21497-.569587-.0185-1.100733.49671-1.099675 1.0666v1.57923h-6.879166z" fill="url(#b)"/></g></svg>