<svg height="32" width="32" xmlns="http://www.w3.org/2000/svg" xmlns:xlink="http://www.w3.org/1999/xlink"><linearGradient id="a"><stop offset="0"/><stop offset="1" stop-opacity="0"/></linearGradient><linearGradient id="b"><stop offset="0" stop-color="#fff"/><stop offset="1" stop-color="#fff" stop-opacity="0"/></linearGradient><linearGradient id="c"><stop offset="0" stop-color="#ffdfbf"/><stop offset="1" stop-color="#ffdfbf" stop-opacity="0"/></linearGradient><linearGradient id="d"><stop offset="0" stop-color="#001228"/><stop offset="1" stop-color="#00224d" stop-opacity="0"/></linearGradient><linearGradient id="e"><stop offset="0" stop-color="#666"/><stop offset="1" stop-color="#101010"/></linearGradient><linearGradient id="f"><stop offset="0" stop-color="#212121"/><stop offset=".3826898" stop-color="#b0b0b0"/><stop offset=".5927273" stop-color="#101010"/><stop offset="1" stop-color="#111"/></linearGradient><linearGradient id="g"><stop offset="0"/><stop offset="1" stop-color="#414141"/></linearGradient><linearGradient id="h"><stop offset="0" stop-color="#313131"/><stop offset=".5" stop-color="#3b3b3b"/><stop offset=".62842464" stop-color="#5a5a5a"/><stop offset=".875" stop-color="#181818"/><stop offset="1" stop-color="#151515"/></linearGradient><linearGradient id="i"><stop offset="0" stop-color="#002f4d"/><stop offset="1" stop-color="#0055bf"/></linearGradient><linearGradient id="j" gradientUnits="userSpaceOnUse" x1="928" x2="928" xlink:href="#b" y1="711.79077" y2="716.79077"/><linearGradient id="k" gradientTransform="matrix(.9440687 0 0 1.0965035 913.83901 687.88167)" gradientUnits="userSpaceOnUse" x1="4.270289" x2="14" xlink:href="#f" y1="14.550586" y2="17"/><linearGradient id="l" gradientTransform="matrix(.9440687 0 0 1.0965035 912.89494 687.88167)" gradientUnits="userSpaceOnUse" x1="16" x2="14.582785" xlink:href="#e" y1="13" y2="13"/><linearGradient id="m" gradientTransform="matrix(1.0183908 0 0 1.1828261 913.40237 686.38077)" gradientUnits="userSpaceOnUse" x1="16.695723" x2="10.450947" xlink:href="#g" y1="9.722409" y2="26.879789"/><linearGradient id="n" gradientTransform="matrix(.9440687 0 0 1.0965035 52.848359 -63.542054)" gradientUnits="userSpaceOnUse" x1="923.45856" x2="921.51862" xlink:href="#a" y1="706.2738" y2="700.44611"/><linearGradient id="o" gradientTransform="matrix(.9440687 0 0 .99985209 913.83901 689.24989)" gradientUnits="userSpaceOnUse" x1="0" x2="10.651972" xlink:href="#h" y1="20.078125" y2="22.835848"/><linearGradient id="p" gradientTransform="matrix(.9440687 0 0 .99985209 51.90429 4.560431)" gradientUnits="userSpaceOnUse" x1="921.06506" x2="918.18854" xlink:href="#a" y1="705.59735" y2="699.71765"/><linearGradient id="q" gradientTransform="matrix(1.3216964 0 0 1.3645373 911.76206 682.93523)" gradientUnits="userSpaceOnUse" x1="5.857142" x2="7.227147" xlink:href="#a" y1="16.482147" y2="25.223043"/><linearGradient id="r" gradientTransform="matrix(1.6746968 0 0 1.7289799 909.82057 675.02188)" gradientUnits="userSpaceOnUse" x1="5.347352" x2="6.037732" xlink:href="#i" y1="18.595242" y2="23"/><linearGradient id="s" gradientTransform="matrix(1.888141 0 0 1.973706 908.64663 668.9473)" gradientUnits="userSpaceOnUse" spreadMethod="pad" x1="5.760162" x2="5.5" xlink:href="#b" y1="23.890432" y2="20.5"/><linearGradient id="t" gradientTransform="matrix(1.3216964 0 0 1.3645373 913.17817 679.64572)" gradientUnits="userSpaceOnUse" x1="2.912473" x2="7.604515" xlink:href="#c" y1="22.103047" y2="22.103047"/><linearGradient id="u" gradientTransform="matrix(1.3216964 0 0 1.3645373 912.2341 681.29047)" gradientUnits="userSpaceOnUse" x1="3.714285" x2="6.571428" xlink:href="#d" y1="21.705362" y2="21.705362"/><linearGradient id="v" gradientTransform="matrix(.9440687 0 0 1.0965035 912.89494 687.88167)" gradientUnits="userSpaceOnUse" x1="5.497561" x2="6.227271" xlink:href="#a" y1="17.875" y2="22.013391"/><radialGradient id="w" cx="13.5" cy="19.5" gradientTransform="matrix(2.6740938 0 0 2.813121 881.4659 656.9082)" gradientUnits="userSpaceOnUse" r=".5" xlink:href="#b"/><radialGradient id="x" cx="13.5" cy="19.5" gradientTransform="matrix(2.3302379 0 0 2.4513879 888.88336 661.84129)" gradientUnits="userSpaceOnUse" r=".5" xlink:href="#b"/><linearGradient id="y" gradientTransform="matrix(.86433398 0 0 1.0038943 913.41073 689.93643)" gradientUnits="userSpaceOnUse" x1="7.682927" x2="6.46875" xlink:href="#b" y1="18.470274" y2="21.592226"/><linearGradient id="z" gradientTransform="matrix(1.888141 0 0 1.973706 908.64663 670.44728)" gradientUnits="userSpaceOnUse" spreadMethod="pad" x1="6.332519" x2="5.803075" xlink:href="#b" y1="18.166855" y2="21.503107"/><linearGradient id="A" gradientTransform="matrix(1.4749954 0 0 1.4619525 910.91891 680.63265)" gradientUnits="userSpaceOnUse" x1="4.769843" x2="9.017461" xlink:href="#a" y1="19.071428" y2="20.5"/><linearGradient id="B" gradientTransform="matrix(1.4603518 0 0 1.4933191 1145.8692 -51.690255)" gradientUnits="userSpaceOnUse" spreadMethod="pad" x1="8.013529" x2="5.803075" xlink:href="#b" y1="22.279459" y2="21.503107"/><linearGradient id="C" gradientUnits="userSpaceOnUse" x1="917.270289" x2="927" xlink:href="#f" y1="699.341356" y2="701.79077"/><linearGradient id="D" gradientUnits="userSpaceOnUse" x1="16" x2="14.582785" xlink:href="#e" y1="13" y2="13"/><linearGradient id="E" gradientUnits="userSpaceOnUse" x1="930.54758880189" x2="923.81119093786" xlink:href="#g" y1="693.90976856525" y2="712.41786845296"/><linearGradient id="F" gradientUnits="userSpaceOnUse" x1="924.45856" x2="922.51862" xlink:href="#a" y1="705.7738" y2="699.94611"/><linearGradient id="G" gradientTransform="matrix(1 0 0 .9118549 913 686.03857)" gradientUnits="userSpaceOnUse" x1="0" x2="10.651972" xlink:href="#h" y1="20.078125" y2="22.835848"/><linearGradient id="H" gradientTransform="matrix(1 0 0 .9118549 0 61.608771)" gradientUnits="userSpaceOnUse" x1="921.06506" x2="918.18854" xlink:href="#a" y1="705.59735" y2="699.71765"/><linearGradient id="I" gradientUnits="userSpaceOnUse" x1="5.857142" x2="7.227147" xlink:href="#a" y1="16.482147" y2="25.223043"/><linearGradient id="J" gradientUnits="userSpaceOnUse" x1="5.347352" x2="6.037732" xlink:href="#i" y1="18.595242" y2="23"/><linearGradient id="K" gradientUnits="userSpaceOnUse" spreadMethod="pad" x1="5.760162" x2="5.5" xlink:href="#b" y1="23.890432" y2="20.5"/><linearGradient id="L" gradientUnits="userSpaceOnUse" x1="2.912473" x2="7.604515" xlink:href="#c" y1="22.103047" y2="22.103047"/><linearGradient id="M" gradientUnits="userSpaceOnUse" x1="3.714285" x2="6.571428" xlink:href="#d" y1="21.705362" y2="21.705362"/><linearGradient id="N" gradientUnits="userSpaceOnUse" x1="5.497561" x2="6.227271" xlink:href="#a" y1="17.875" y2="22.013391"/><radialGradient id="O" cx="13.5" cy="19.5" gradientUnits="userSpaceOnUse" r=".5" xlink:href="#b"/><linearGradient id="P" gradientUnits="userSpaceOnUse" x1="919.58037774168" x2="918.46874843125" xlink:href="#b" y1="703.57499051634" y2="706.43326682116"/><linearGradient id="Q" gradientUnits="userSpaceOnUse" spreadMethod="pad" x1="6.332519" x2="5.803075" xlink:href="#b" y1="18.166855" y2="21.503107"/><linearGradient id="R" gradientUnits="userSpaceOnUse" x1="4.769843" x2="9.017461" xlink:href="#a" y1="19.071428" y2="20.5"/><linearGradient id="S" gradientUnits="userSpaceOnUse" spreadMethod="pad" x1="8.013529" x2="5.803075" xlink:href="#b" y1="22.279459" y2="21.503107"/><g transform="translate(-912 -684.79077)"><g transform="matrix(-.9440687 0 0 1.0965035 1804.0957 -62.993802)"><g fill-rule="evenodd"><path d="m923.125 692.79077c-1.173 0-2.125.896-2.125 2l-.53125 1.21875c-2.45905.21119-4.44358 1.91134-4.8125 4.0625-1.78092 1.36389-2.65625 3.72728-2.65625 5.71875 0 1 1 3.63202 5 3.63202h1c4 0 5-2.63202 4.90625-3.63202l2.09375-2.73597v-1-1.82653c.29552-.26305-.36836-.4375 0-.4375v-4c-1.19559 0 .76444.40696.0312 1.03125l-1.0625-1.0625c.17014-.28758-.77799-.61644-.77799-.96875 0-1.104.10724-2-1.06576-2z" stroke="#000" stroke-linecap="round" stroke-linejoin="round" stroke-width="3.734881"/><path d="m928 694.79077c-1.19559 0-1.23556.40696-1.96875 1.03125l-.03125-.03125v9h1v-1-4.5625c.29552-.26305.63164-.4375 1-.4375z"/><path d="m923.125 692.79077c-1.173 0-2.125.896-2.125 2l-.53125 1.21875c-2.72915.23439-4.875 2.29631-4.875 4.78125 0 2.28894 1.82918 1.90333 4.25 2.37628l.15625.34375 7-.456v-1-1.82653c.29552-.26305.63164-.4375 1-.4375v-4c-1.19559 0-1.23556.40696-1.96875 1.03125l-1.0625-1.0625c.17014-.28758.28125-.61644.28125-.96875 0-1.104-.952-2-2.125-2z" fill="url(#C)"/><path d="m16 11c-1.19559 0-1.23556.40696-1.96875 1.03125l-.03125-.03125v6.720026h1v-1-2.282526c.29552-.26305.63164-.4375 1-.4375z" fill="url(#D)" transform="translate(912 684.79077)"/><path d="m928 698.79077c-1.19559 0-1.23556.40696-1.96875 1.03125l-.03125-.03125v2l.0312.0312c.73319-.62429.77316-1.03125 1.96875-1.03125z"/><path d="m928 696.79077c-1.19559 0-1.23556.40696-1.96875 1.03125l-.03125-.03125v7h1v-1-2.5625c.29552-.26305.63164-.4375 1-.4375z"/><path d="m922.75501 692.79077c-1.13458 0-2.05541.896-2.05541 2l-.51385 1.21875c-2.63979.23439-4.71537 2.29631-4.71537 4.78125 0 .15934.0437.31358.0605.46875.27473-2.23805 2.20884-4.03281 4.65492-4.25l.51385-1.21875c0-1.104.92083-2 2.05541-2 .95732 0 1.76673.63752 1.99497 1.5.0474-.1622.0604-.32385.0604-.5 0-1.104-.92083-2-2.05542-2zm5.24499 3c-1.15644 0-1.1951.40696-1.90428 1.03125l-1.31552-.8125c-.0349.26638-.11332.52547-.24181.75l1.55733 1.0625c.70918-.62429.74784-1.03125 1.90428-1.03125z" fill="#fff" opacity=".62381"/></g><path d="m11.213008 10.666667a1.1707317 1.2747967 0 0 1 .747672.29383" style="opacity:.871429;fill:none;stroke:#000;stroke-width:1.491673;stroke-linecap:round;stroke-linejoin:round" transform="matrix(2.8565241 0 0 2.4317619 889.597 671.00136)"/><path d="m922.55241 696.9177c-.38099.0432-.75519.27887-1.03763.77534-.51332-.19604-1.61192 1.49169-2.28062 1.49169-2.30795 0-2.38033 1.36351-3.41553 3.17517 1.12078-1.18572 2.11091-1.99371 4.05324-1.99371 4.05775 0 4.83579-.84955 4.98277 2.80018h2.08607v-1.11672l-2.66972-4.28278c-.33593-.45584-1.04519-.92545-1.71858-.84917z" fill="#fff" fill-rule="evenodd" opacity=".461905"/><path d="m921.97634 698.28814c-.42004.0418-.84944.26141-1.14615.77534l-1.95519 4.58458 1.21357-.30884h7.55107v-.36536l-3.87667-3.91038c-.34922-.41621-1.08657-.84499-1.78663-.77534z" fill="url(#E)" fill-rule="evenodd"/><path d="m920.0625 698.44702c-3.11544 0-5.00052 2.25129-5.71875 4.65625.65836-1.9858 2.25891-3.8125 4.84375-3.8125 3.3769 0 4.22851 2.89708 4.15625 5.875.005.0533.003.14705 0 .21875.48074.40337.91242.88231 1.28125 1.40625.21461-.64217.30907-1.20326.28125-1.5.0843-3.47501-.90315-6.84375-4.84375-6.84375z" fill="url(#F)" fill-rule="evenodd"/><path d="m919.0625 698.94702c-4.0655 0-6.0625 3.50494-6.0625 6.24051 0 .91185 1 4.55927 5 4.55927h1c4 0 5-3.64742 4.90625-4.55927.0843-3.16871-.90315-6.24051-4.84375-6.24051z" fill="url(#G)" fill-rule="evenodd"/><path d="m919.0625 698.94702c-4.0655 0-6.0625 3.50494-6.0625 6.24051 0 .91185 1 4.55927 5 4.55927h1c4 0 5-3.64742 4.90625-4.55927.0843-3.16871-.90315-6.24051-4.84375-6.24051z" fill="url(#H)" fill-rule="evenodd" opacity=".328571"/><circle cx="5.5" cy="20.5" fill="none" r="2.5" stroke="url(#I)" stroke-linecap="round" stroke-linejoin="round" stroke-width=".982863" transform="matrix(1.4000002 0 0 1.2444441 910.8 680.27966)"/><circle cx="5.5" cy="20.5" fill="url(#J)" fill-rule="evenodd" r="2.5" transform="matrix(1.7739141 0 0 1.576812 908.74348 673.06277)"/><path d="m8 20.5a2.5 2.5 0 0 1 -1.25 2.165064 2.5 2.5 0 0 1 -2.5000001-.000001 2.5 2.5 0 0 1 -1.2499999-2.165063" style="opacity:.871429;fill:none;stroke-width:.518014;stroke-linecap:round;stroke-linejoin:round;stroke:url(#K)" transform="matrix(2.0000038 0 0 1.7999997 907.49999 667.52281)"/><circle cx="925.5" cy="704.29077" fill="#fff" fill-rule="evenodd" opacity=".62381" r=".5"/><path d="m6.6713688 22.708596a2.5 2.5 0 0 1 -2.1410995.095666 2.5 2.5 0 0 1 -1.4283926-1.597859" style="opacity:.32381;fill:none;stroke-width:.744632;stroke-linecap:round;stroke-linejoin:round;stroke:url(#L)" transform="matrix(1.4000002 0 0 1.2444441 912.3 677.27966)"/><path d="m6.7499999 22.665064a2.5 2.5 0 0 1 -2.3065456.100705 2.5 2.5 0 0 1 -1.4054737-1.831648" fill="none" stroke="url(#M)" stroke-linecap="round" stroke-linejoin="round" stroke-width=".744632" transform="matrix(1.4000002 0 0 1.2444441 911.3 678.77966)"/><path d="m6.5 17.875c-1.9320003 0-3.5000001 1.407667-3.5 3.125 0 .644.2162421 1.253438.59375 1.75-.0667588-.23987-.09375-.491876-.09375-.75-.0000001-1.717333 1.5679997-3.125 3.5-3.125 1.1902503 0 2.2425847.535996 2.875 1.34375-.3923228-1.336849-1.7487033-2.34375-3.375-2.34375z" fill="url(#N)" fill-rule="evenodd" opacity=".638095" transform="translate(912 684.79077)"/><circle cx="13.5" cy="19.5" fill="url(#O)" fill-rule="evenodd" opacity=".62381" r=".5" transform="matrix(2.8325203 0 0 2.5655376 878.70894 656.54328)"/><circle cx="13.5" cy="19.5" fill="url(#O)" fill-rule="evenodd" opacity=".62381" r=".5" transform="matrix(2.4682927 0 0 2.2356407 886.56585 661.04221)"/><path d="m918.49736 703.03c-1.76883 0-3.20439 1.28878-3.20439 2.86106 0 .23633.0247.46705.0858.68666.66791.24282 1.40831.40055 2.20302.40055 1.67067 0 3.15125-.61836 4.06271-1.54498-.249-1.35237-1.55566-2.40329-3.14717-2.40329z" fill="url(#P)" fill-rule="evenodd" opacity=".347619"/><path d="m920.0625 698.44702c-3.11544 0-5.00052 2.25129-5.71875 4.65625.65836-1.9858 2.25891-3.8125 4.84375-3.8125 3.3769 0 4.22851 2.89708 4.15625 5.875.005.0533.003.14705 0 .21875.48074.40337.91242.88231 1.28125 1.40625.21461-.64217.30907-1.20326.28125-1.5.0843-3.47501-.90315-6.84375-4.84375-6.84375z" fill="url(#F)" fill-rule="evenodd"/><path d="m3.0379806 20.06588a2.5 2.5 0 0 1 2.027899-2.027899 2.5 2.5 0 0 1 2.5991839 1.212019 2.5 2.5 0 0 1 -.2499524 2.856969" style="opacity:.57619;fill:none;stroke-width:1.036028;stroke-linecap:round;stroke-linejoin:round;stroke:url(#Q)" transform="matrix(2.0000038 0 0 1.7999997 907.49999 668.89078)"/><circle cx="5.5" cy="20.5" fill="none" r="2.5" stroke="url(#R)" stroke-linecap="round" stroke-linejoin="round" stroke-width=".680986" transform="matrix(1.5623814 0 0 1.3332858 909.9069 678.17973)"/><path d="m7.4151111 18.893031a2.5 2.5 0 0 1 .4997035 2.254017 2.5 2.5 0 0 1 -1.5597643 1.702184" style="opacity:.404762;fill:none;stroke-width:1.405818;stroke-linecap:round;stroke-linejoin:round;stroke:url(#S)" transform="matrix(1.207108 .8328397 -1.3776361 .6692324 939.86733 687.7747)"/><path d="m922.91358 692.80124c-1.173 0-2.11849.89098-2.11849 1.99498l-.56272 1.22548c.36114.0141.71734.0285 1.09234.0285 1.25107 0 2.4237-.0835 3.47565-.228l-.0662-.057c.17014-.28758.29791-.61668.29791-.96899 0-1.104-.94549-1.99498-2.11849-1.99498z" fill-rule="evenodd" opacity=".504762"/></g><g fill-rule="evenodd"><path d="m923.39771 696.6537c-1.10739 0-2.00615.98247-2.00615 2.19301l-.50153 1.33636c-2.32152.23157-4.19505 2.09579-4.54333 4.45455-1.68132 1.49551-2.50769 4.08697-2.50769 6.27063 0 1.0965.94407 3.98252 4.72035 3.98252h.94407c3.77627 0 4.72034-2.88602 4.63183-3.98252l1.97665-3v-1.09651-2.00279c.27899-.28844-.34776-.47972 0-.47972v-4.38602c-1.12872 0 .72168.44624.0294 1.13077l-1.00307-1.16503c.16062-.31534-.73448-.67593-.73448-1.06224 0-1.21054.10124-2.19301-1.00615-2.19301z" stroke="#000" stroke-linecap="round" stroke-linejoin="round" stroke-width="3.8"/><path d="m928.00004 698.84671c-1.12872 0-1.16645.44623-1.85863 1.13077l-.0295-.0343v9.86853h.94406v-1.0965-5.0028c.279-.28843.59632-.47972.94407-.47972z"/><path d="m923.39771 696.6537c-1.10739 0-2.00615.98247-2.00615 2.19301l-.50153 1.33636c-2.57651.25701-4.60234 2.51791-4.60234 5.24266 0 2.50983 1.72687 2.08701 4.01229 2.6056l.14751.37692 6.60848-.5v-1.09651-2.00279c.279-.28844.59632-.47972.94407-.47972v-4.38602c-1.12872 0-1.16645.44624-1.85863 1.13077l-1.00307-1.16503c.16062-.31534.26551-.67593.26551-1.06224 0-1.21054-.89875-2.19301-2.00614-2.19301z" fill="url(#k)"/><path d="m928.00004 699.94321c-1.12872 0-1.16645.44623-1.85864 1.13077l-.0295-.0343v7.36853h.94407v-1.0965-2.5028c.27899-.28843.59631-.47972.94407-.47972z" fill="url(#l)"/><path d="m928.00004 703.23272c-1.12872 0-1.16645.44624-1.85863 1.13077l-.0295-.0343v2.193l.0294.0342c.69218-.68453.72992-1.13076 1.85864-1.13076z"/><path d="m928.00004 701.03972c-1.12872 0-1.16645.44623-1.85863 1.13077l-.0295-.0343v7.67552h.94406v-1.0965-2.80979c.279-.28843.59632-.47972.94407-.47972z"/><path d="m923.04841 696.6537c-1.07112 0-1.94045.98247-1.94045 2.19301l-.48511 1.33636c-2.49214.25701-4.45163 2.51791-4.45163 5.24266 0 .17472.0413.34384.0571.51399.25936-2.45403 2.08529-4.42199 4.39456-4.66014l.48511-1.33637c0-1.21054.86933-2.193 1.94045-2.193.90378 0 1.66791.69904 1.88339 1.64475.0447-.17785.057-.3551.057-.54825 0-1.21054-.86933-2.19301-1.94046-2.19301zm4.95163 3.28951c-1.09176 0-1.12825.44624-1.79777 1.13077l-1.24194-.89091c-.033.29209-.10698.57618-.22828.82238l1.47022 1.16504c.66952-.68454.70601-1.13077 1.79777-1.13077z" fill="#fff" opacity=".62381"/></g><path d="m921.9837 701.2035a3.1571765 3.399163 0 0 1 2.01629.78348" style="opacity:.871429;fill:none;stroke:#000;stroke-width:4;stroke-linecap:round;stroke-linejoin:round"/><path d="m922.85714 701.1789c-.35968.0474-.71295.30578-.97959.85016-.48461-.21496-1.52176 1.63564-2.15306 1.63564-2.17886 0-2.2472 1.4951-3.2245 3.48159 1.0581-1.30015 1.99285-2.18611 3.82654-2.18611 3.8308 0 4.56532-.93154 4.70408 3.0704h1.96939v-1.22448l-2.5204-4.69609c-.31714-.49983-.98673-1.01476-1.62246-.93111z" fill="#fff" fill-rule="evenodd" opacity=".461905"/><path d="m922.31329 702.68159c-.39654.0458-.80192.28663-1.08204.85016l-1.84583 5.02701 1.14569-.33865h7.12873v-.40061l-3.65984-4.28775c-.32969-.45638-1.0258-.92653-1.68671-.85016z" fill="url(#m)" fill-rule="evenodd"/><path d="m920.5065 702.8558c-2.94119 0-4.72084 2.46855-5.39889 5.10559.62153-2.17743 2.13256-4.18042 4.57283-4.18042 3.18802 0 3.992 3.17666 3.92378 6.44196.005.0584.003.16124 0 .23986.45386.4423.86139.96746 1.20959 1.54196.20261-.70414.29179-1.31938.26552-1.64475.0796-3.81036-.85263-7.5042-4.57283-7.5042z" fill="url(#n)" fill-rule="evenodd"/><path d="m919.56243 703.40405c-3.83811 0-5.72342 3.84318-5.72342 6.84274 0 .99985.94407 4.99926 4.72035 4.99926h.94407c3.77627 0 4.72034-3.99941 4.63183-4.99926.0796-3.4745-.85263-6.84274-4.57283-6.84274z" fill="url(#o)" fill-rule="evenodd"/><path d="m919.56243 703.40405c-3.83811 0-5.72342 3.84318-5.72342 6.84274 0 .99985.94407 4.99926 4.72035 4.99926h.94407c3.77627 0 4.72034-3.99941 4.63183-4.99926.0796-3.4745-.85263-6.84274-4.57283-6.84274z" fill="url(#p)" fill-rule="evenodd" opacity=".328571"/><ellipse cx="919.03137" cy="710.90826" fill="none" rx="3.304241" ry="3.411343" stroke="url(#q)" stroke-linecap="round" stroke-linejoin="round" stroke-width="1.319933"/><ellipse cx="919.03137" cy="710.46594" fill="url(#r)" fill-rule="evenodd" rx="4.186742" ry="4.32245"/><path d="m923.75179 709.40826a4.7203526 4.9342651 0 0 1 -2.36018 4.2732 4.7203526 4.9342651 0 0 1 -4.72035 0 4.7203526 4.9342651 0 0 1 -2.36018-4.2732" fill="none" opacity=".871429" stroke="url(#s)" stroke-linecap="round" stroke-linejoin="round"/><ellipse cx="925.63989" cy="709.26349" fill="#fff" fill-rule="evenodd" opacity=".62381" rx=".472034" ry=".548252"/><path d="m921.9957 710.63242a3.3042409 3.4113433 0 0 1 -2.82988.13054 3.3042409 3.4113433 0 0 1 -1.8879-2.18033" fill="none" opacity=".32381" stroke="url(#t)" stroke-linecap="round" stroke-linejoin="round"/><path d="m921.15554 712.2178a3.3042409 3.4113433 0 0 1 -3.04855.13742 3.3042409 3.4113433 0 0 1 -1.85761-2.49936" fill="none" stroke="url(#u)" stroke-linecap="round" stroke-linejoin="round"/><path d="m919.03139 707.48167c-1.82394 0-3.30424 1.54351-3.30424 3.42657 0 .70615.20414 1.3744.56054 1.91888-.063-.26301-.0885-.53934-.0885-.82237 0-1.88306 1.4803-3.42658 3.30424-3.42658 1.12368 0 2.11715.58773 2.7142 1.47343-.37038-1.46586-1.6509-2.56993-3.18623-2.56993z" fill="url(#v)" fill-rule="evenodd" opacity=".638095"/><ellipse cx="917.56616" cy="711.76404" fill="url(#w)" fill-rule="evenodd" opacity=".62381" rx="1.337047" ry="1.406561"/><ellipse cx="920.34155" cy="709.64337" fill="url(#x)" fill-rule="evenodd" opacity=".62381" rx="1.165119" ry="1.225694"/><path d="m919.0289 707.88105c-1.6699 0-3.02517 1.41316-3.02517 3.13717 0 .25913.0233.51212.081.75292.63055.26625 1.32954.43921 2.0798.43921 1.57722 0 2.97499-.67804 3.83547-1.69408-.23507-1.48288-1.46864-2.63522-2.97114-2.63522z" fill="url(#y)" fill-rule="evenodd" opacity=".347619"/><path d="m920.5065 702.8558c-2.94119 0-4.72084 2.46855-5.39889 5.10559.62153-2.17743 2.13256-4.18042 4.57283-4.18042 3.18802 0 3.992 3.17666 3.92378 6.44196.005.0584.003.16124 0 .23986.45386.4423.86139.96746 1.20959 1.54196.20261-.70414.29179-1.31938.26552-1.64475.0796-3.81036-.85263-7.5042-4.57283-7.5042z" fill="url(#n)" fill-rule="evenodd"/><path d="m914.38279 710.05144a4.7203526 4.9342651 0 0 1 3.82896-4.00248 4.7203526 4.9342651 0 0 1 4.90763 2.39217 4.7203526 4.9342651 0 0 1 -.47195 5.63882" style="opacity:.57619;fill:none;stroke-width:2;stroke-linecap:round;stroke-linejoin:round;stroke:url(#z)"/><ellipse cx="919.03137" cy="710.60266" fill="none" rx="3.687489" ry="3.654881" stroke="url(#A)" stroke-linecap="round" stroke-linejoin="round"/><path d="m1156.6979-23.476931a3.6508796 3.7332976 0 0 1 .7297 3.365966 3.6508796 3.7332976 0 0 1 -2.2778 2.541904" style="opacity:.404762;fill:none;stroke-width:2.076033;stroke-linecap:round;stroke-linejoin:round;stroke:url(#B)" transform="matrix(.78035503 .62533673 -.8709345 .49139912 0 0)"/><path d="m923.19811 696.66518c-1.10739 0-2 .97697-2 2.18751l-.53124 1.34374c.34094.0155.67722.0312 1.03124.0312 1.1811 0 2.28814-.0916 3.28125-.25l-.0625-.0625c.16062-.31533.28124-.67619.28124-1.0625 0-1.21054-.8926-2.1875-2-2.1875z" fill-rule="evenodd" opacity=".504762"/><path d="m927.5 712.29077v4" fill="none" opacity=".361905" stroke="url(#j)" stroke-linecap="round" stroke-linejoin="round"/></g></svg>