<?xml version="1.0" encoding="UTF-8" standalone="no"?>
<svg
   xmlns:dc="http://purl.org/dc/elements/1.1/"
   xmlns:cc="http://creativecommons.org/ns#"
   xmlns:rdf="http://www.w3.org/1999/02/22-rdf-syntax-ns#"
   xmlns:svg="http://www.w3.org/2000/svg"
   xmlns="http://www.w3.org/2000/svg"
   xmlns:xlink="http://www.w3.org/1999/xlink"
   xmlns:sodipodi="http://sodipodi.sourceforge.net/DTD/sodipodi-0.dtd"
   xmlns:inkscape="http://www.inkscape.org/namespaces/inkscape"
   height="128"
   viewBox="0 0 33.866666 33.866668"
   width="128"
   version="1.1"
   id="svg2593"
   sodipodi:docname="sc_shrink.svg"
   inkscape:version="0.92.3 (2405546, 2018-03-11)"
   inkscape:export-filename="/home/rizmut/Documents/Rizmut/Github/libreoffice-style-karasa-jaga/build/images_karasa_jaga/cmd/sc_shrink.png"
   inkscape:export-xdpi="12"
   inkscape:export-ydpi="12">
  <metadata
     id="metadata2599">
    <rdf:RDF>
      <cc:Work
         rdf:about="">
        <dc:format>image/svg+xml</dc:format>
        <dc:type
           rdf:resource="http://purl.org/dc/dcmitype/StillImage" />
        <dc:title></dc:title>
      </cc:Work>
    </rdf:RDF>
  </metadata>
  <defs
     id="defs2597">
    <radialGradient
       inkscape:collect="always"
       xlink:href="#linearGradient3773"
       id="radialGradient5133"
       gradientUnits="userSpaceOnUse"
       gradientTransform="matrix(-1.3532032,4.3527857e-8,-3.8860884e-8,-1.3528358,82.8544,797.75064)"
       cx="34.35376"
       cy="561.81543"
       fx="34.35376"
       fy="561.81543"
       r="4" />
    <linearGradient
       id="linearGradient3773">
      <stop
         style="stop-color:#590000;stop-opacity:1"
         offset="0"
         id="stop3775" />
      <stop
         style="stop-color:#bf0000;stop-opacity:1"
         offset="1"
         id="stop3777" />
    </linearGradient>
    <linearGradient
       inkscape:collect="always"
       xlink:href="#linearGradient5161"
       id="linearGradient5131"
       gradientUnits="userSpaceOnUse"
       gradientTransform="rotate(180,35.36025,299.76111)"
       x1="34.999939"
       y1="561.00018"
       x2="31.448986"
       y2="565.14764" />
    <linearGradient
       id="linearGradient5161">
      <stop
         id="stop5163"
         offset="0"
         style="stop-color:#f7a5a0;stop-opacity:1" />
      <stop
         id="stop5165"
         offset="1"
         style="stop-color:#cd1f00;stop-opacity:1;" />
    </linearGradient>
    <linearGradient
       inkscape:collect="always"
       xlink:href="#a"
       id="linearGradient849"
       gradientUnits="userSpaceOnUse"
       x1="15.71217359615"
       y1="294.720546641"
       x2="16.9333311282"
       y2="266.6339107115" />
    <linearGradient
       inkscape:collect="always"
       xlink:href="#a"
       id="linearGradient851"
       gradientUnits="userSpaceOnUse"
       x1="15.71217359615"
       y1="294.720546641"
       x2="16.9333311282"
       y2="266.6339107115" />
  </defs>
  <sodipodi:namedview
     pagecolor="#ffffff"
     bordercolor="#666666"
     borderopacity="1"
     objecttolerance="10"
     gridtolerance="10"
     guidetolerance="10"
     inkscape:pageopacity="0"
     inkscape:pageshadow="2"
     inkscape:window-width="1366"
     inkscape:window-height="696"
     id="namedview2595"
     showgrid="true"
     inkscape:zoom="1.84375"
     inkscape:cx="-99.79661"
     inkscape:cy="64"
     inkscape:window-x="0"
     inkscape:window-y="0"
     inkscape:window-maximized="1"
     inkscape:current-layer="svg2593">
    <inkscape:grid
       type="xygrid"
       id="grid832"
       spacingx="1.0583333"
       spacingy="1.0583333"
       empspacing="2" />
  </sodipodi:namedview>
  <linearGradient
     id="a"
     gradientUnits="userSpaceOnUse"
     x1="15.71217359615"
     x2="16.9333311282"
     y1="294.720546641"
     y2="266.6339107115">
    <stop
       offset="0"
       stop-color="#555"
       id="stop2575" />
    <stop
       offset="1"
       id="stop2577" />
  </linearGradient>
  <linearGradient
     id="b"
     gradientUnits="userSpaceOnUse"
     x1="15.7121748"
     x2="16.93333272"
     y1="262.97044706116"
     y2="288.61476216">
    <stop
       offset="0"
       stop-color="#3b3e22"
       id="stop2580" />
    <stop
       offset="1"
       stop-color="#454545"
       stop-opacity="0"
       id="stop2582" />
  </linearGradient>
  <g
     transform="matrix(0.8,0,0,0.8,-0.0366176,-203.82617)"
     id="g2591">
    <g
       aria-label="A"
       style="font-size:40.61514282px;font-family:sans-serif;letter-spacing:0;word-spacing:0;fill:url(#linearGradient851);stroke-width:1.015378"
       id="text2587">
      <path
         d="m 31.700188,293.65814 v 0.81207 H 20.801352 v -0.81207 q 1.709621,-0.0427 2.350729,-0.34192 0.641108,-0.29918 0.641108,-1.11125 0,-1.02578 -0.81207,-2.86362 l -1.752362,-4.10309 H 10.030738 l -1.9660646,5.00064 q -0.3419242,0.89755 -0.3419242,1.66688 0,1.75236 2.9063558,1.75236 v 0.81207 H 2.16648 v -0.81207 q 1.5813997,-0.0855 2.4362103,-1.19673 0.8975512,-1.15399 2.8636157,-5.81271 l 8.890031,-20.9856 h 0.85481 l 10.642393,24.27662 q 1.025772,2.35073 1.709621,2.99184 0.683848,0.6411 2.137027,0.72658 z M 10.757327,283.4859 h 9.873063 l -4.957902,-11.75365 z"
         style="font-size:42.74053192px;font-family:FreeSerif;fill:url(#linearGradient849);stroke-width:1.015378"
         id="path834"
         inkscape:connector-curvature="0" />
    </g>
    <path
       d="M 16.782477,266.30836 9.4269084,283.6705 a 28.086634,12.822159 0 0 0 0.7173116,0.0161 0.64386597,0.64386597 0 0 1 0.01729,-0.44959 l 4.915041,-11.75245 a 0.64386597,0.64386597 0 0 1 0.610579,-0.39652 0.64386597,0.64386597 0 0 1 0.577187,0.39413 l 4.86913,11.54257 a 28.086634,12.822159 0 0 0 2.763704,-0.50743 L 16.78963,266.30835 Z"
       id="path2589"
       style="fill:url(#b)"
       inkscape:connector-curvature="0" />
  </g>
  <g
     id="g922"
     transform="matrix(2.1166667,0,0,2.1166667,-54.441744,-68.838323)">
    <path
       sodipodi:nodetypes="cccccccccc"
       id="path4759"
       d="m 34.72056,39.522042 4,-10e-6 -2e-5,-1.00001 -2,2e-5 4.00001,-4 -1.00001,-1.00001 -3.99999,4 2e-5,-2 -1.00001,2e-5 z"
       style="display:inline;fill:none;fill-opacity:1;fill-rule:evenodd;stroke:url(#radialGradient5133);stroke-width:2;stroke-linecap:butt;stroke-linejoin:round;stroke-miterlimit:4;stroke-dasharray:none;stroke-opacity:1"
       inkscape:connector-curvature="0" />
    <path
       style="display:inline;fill:url(#linearGradient5131);fill-opacity:1;fill-rule:evenodd;stroke:none;stroke-width:1px;stroke-linecap:butt;stroke-linejoin:miter;stroke-opacity:1"
       d="m 34.72056,39.522042 4,-10e-6 -2e-5,-1.00001 -2,2e-5 4.00001,-4 -1.00001,-1.00001 -3.99999,4 2e-5,-2 -1.00001,2e-5 z"
       id="path4761"
       sodipodi:nodetypes="cccccccccc"
       inkscape:connector-curvature="0" />
  </g>
</svg>
