<?xml version="1.0" encoding="UTF-8" standalone="no"?>
<!-- Created with Inkscape (http://www.inkscape.org/) -->

<svg
   xmlns:a="http://ns.adobe.com/AdobeSVGViewerExtensions/3.0/"
   xmlns:dc="http://purl.org/dc/elements/1.1/"
   xmlns:cc="http://creativecommons.org/ns#"
   xmlns:rdf="http://www.w3.org/1999/02/22-rdf-syntax-ns#"
   xmlns:svg="http://www.w3.org/2000/svg"
   xmlns="http://www.w3.org/2000/svg"
   xmlns:xlink="http://www.w3.org/1999/xlink"
   xmlns:sodipodi="http://sodipodi.sourceforge.net/DTD/sodipodi-0.dtd"
   xmlns:inkscape="http://www.inkscape.org/namespaces/inkscape"
   width="128"
   height="128"
   viewBox="0 0 33.866666 33.866668"
   version="1.1"
   id="svg8"
   inkscape:version="0.92.3 (unknown)"
   sodipodi:docname="sc_showprecedents.svg"
   inkscape:export-filename="/home/rizmut/Dokumen/Rizmut/Github/libreoffice-style-karasa-jaga/build/images_karasa_jaga/cmd/sc_showprecedents.png"
   inkscape:export-xdpi="12"
   inkscape:export-ydpi="12">
  <defs
     id="defs2">
    <linearGradient
       inkscape:collect="always"
       xlink:href="#path2295_1_"
       id="linearGradient6456"
       x1="67.266975"
       y1="280.20084"
       x2="67.266975"
       y2="-35.950958"
       gradientUnits="userSpaceOnUse"
       gradientTransform="translate(0,8.0000126)" />
    <radialGradient
       cx="265.3931"
       cy="-6078.353"
       r="253.01871"
       fx="369.5242"
       fy="-6078.353"
       id="path2295_1_"
       gradientUnits="userSpaceOnUse"
       gradientTransform="matrix(0.183616,0,0,-0.01462967,-0.962917,-7.25873)">
      <stop
         style="stop-color:#000000;stop-opacity:1"
         offset="0"
         id="stop8" />
      <stop
         style="stop-color:#ffffff;stop-opacity:1"
         offset="1"
         id="stop10" />
      <a:midPointStop
         style="stop-color:#000000"
         offset="0" />
      <a:midPointStop
         style="stop-color:#000000"
         offset="0.5" />
      <a:midPointStop
         style="stop-color:#FFFFFF"
         offset="1" />
    </radialGradient>
    <linearGradient
       id="linearGradient10831">
      <stop
         style="stop-color:#60a716;stop-opacity:1"
         offset="0"
         id="stop10833" />
      <stop
         style="stop-color:#ffffff;stop-opacity:0"
         offset="1"
         id="stop10835" />
    </linearGradient>
    <linearGradient
       inkscape:collect="always"
       xlink:href="#linearGradient3323"
       id="linearGradient3733"
       x1="46.048"
       y1="128.01709"
       x2="46.048"
       y2="16.6203"
       gradientUnits="userSpaceOnUse"
       gradientTransform="matrix(0.08141228,0,0,0.10353495,1.6824786,267.5504)" />
    <linearGradient
       id="linearGradient3323">
      <stop
         style="stop-color:#c7cdd7;stop-opacity:1;"
         offset="0"
         id="stop3325" />
      <stop
         style="stop-color:#ffffff;stop-opacity:1;"
         offset="1"
         id="stop3327" />
    </linearGradient>
    <linearGradient
       inkscape:collect="always"
       xlink:href="#linearGradient3323"
       id="linearGradient9549"
       gradientUnits="userSpaceOnUse"
       gradientTransform="matrix(0.08141228,0,0,0.10353495,1.6824783,280.23989)"
       x1="46.048"
       y1="128.01709"
       x2="46.048"
       y2="16.6203" />
    <linearGradient
       inkscape:collect="always"
       xlink:href="#linearGradient3323"
       id="linearGradient9553"
       gradientUnits="userSpaceOnUse"
       gradientTransform="matrix(0.08141228,0,0,0.10353495,22.849148,273.89866)"
       x1="46.048"
       y1="128.01709"
       x2="46.048"
       y2="16.6203" />
    <linearGradient
       inkscape:collect="always"
       xlink:href="#path2295_1_"
       id="linearGradient9563"
       gradientUnits="userSpaceOnUse"
       gradientTransform="translate(0,8.0000126)"
       x1="80"
       y1="183.99998"
       x2="67.266975"
       y2="-35.950958" />
    <linearGradient
       inkscape:collect="always"
       xlink:href="#path2295_1_"
       id="linearGradient9569"
       gradientUnits="userSpaceOnUse"
       gradientTransform="translate(0,8.0000126)"
       x1="67.266975"
       y1="280.20084"
       x2="67.266975"
       y2="-35.950958" />
    <linearGradient
       id="i"
       gradientTransform="matrix(0.23979393,0.11181775,0.11181775,-0.23979393,-6.347271,269.96915)"
       gradientUnits="userSpaceOnUse"
       x1="113.15723"
       x2="39.268185"
       xlink:href="#c"
       y1="25.786163"
       y2="25.786163" />
    <linearGradient
       id="c">
      <stop
         offset="0"
         stop-color="#0968ef"
         id="stop12" />
      <stop
         offset="1"
         stop-color="#aecffc"
         id="stop14" />
    </linearGradient>
    <linearGradient
       inkscape:collect="always"
       xlink:href="#c"
       id="linearGradient9608"
       gradientUnits="userSpaceOnUse"
       gradientTransform="matrix(0.23979393,-0.11181775,-0.11181775,-0.23979393,-0.08548368,301.47594)"
       x1="113.15723"
       y1="25.786163"
       x2="39.268185"
       y2="25.786163" />
    <radialGradient
       id="b"
       cx="84.903702"
       cy="-130.14005"
       gradientTransform="matrix(0.08147617,0.08147617,-0.08147617,0.08147617,11.283714,291.5947)"
       gradientUnits="userSpaceOnUse"
       r="57.039597"
       xlink:href="#c-3" />
    <linearGradient
       id="c-3">
      <stop
         offset="0"
         stop-color="#011701"
         id="stop10421" />
      <stop
         offset=".80671918"
         stop-color="#145703"
         id="stop10423" />
      <stop
         offset="1"
         stop-color="#2fa207"
         stop-opacity=".384314"
         id="stop10425" />
    </linearGradient>
    <radialGradient
       id="d"
       cx="43.084476"
       cy="-121.92532"
       gradientTransform="matrix(0.0802945,0.08264095,-0.09601599,0.09328978,9.5618545,292.98489)"
       gradientUnits="userSpaceOnUse"
       r="57.039597"
       xlink:href="#c-3" />
    <radialGradient
       id="e"
       cx="51.991096"
       cy="-78.028419"
       gradientTransform="matrix(0.07469784,0.08773236,-0.14847119,0.12641263,6.4086126,294.77575)"
       gradientUnits="userSpaceOnUse"
       r="57.039597"
       xlink:href="#c-3" />
    <linearGradient
       id="f"
       gradientTransform="scale(1.0975951,0.9110828)"
       gradientUnits="userSpaceOnUse"
       x1="26.091133"
       x2="31.500689"
       xlink:href="#a"
       y1="14.856744"
       y2="14.856744" />
    <linearGradient
       id="a">
      <stop
         offset="0"
         stop-color="#fff"
         id="stop10415" />
      <stop
         offset="1"
         stop-color="#fff"
         stop-opacity="0"
         id="stop10417" />
    </linearGradient>
    <filter
       id="g"
       height="1.277481"
       width="1.279832"
       x="-0.139916"
       y="-0.138741">
      <feGaussianBlur
         stdDeviation=".28784801"
         id="feGaussianBlur10431" />
    </filter>
    <filter
       id="filter11146"
       height="1.277481"
       width="1.279832"
       x="-0.139916"
       y="-0.138741">
      <feGaussianBlur
         stdDeviation=".28784801"
         id="feGaussianBlur11144" />
    </filter>
    <linearGradient
       id="h"
       gradientUnits="userSpaceOnUse"
       x1="304.88663"
       x2="345.62039"
       y1="385.86127"
       y2="384.62384">
      <stop
         offset="0"
         stop-color="#765c44"
         id="stop10434" />
      <stop
         offset="1"
         stop-color="#765c44"
         stop-opacity="0"
         id="stop10436" />
    </linearGradient>
    <filter
       id="filter11153"
       height="1.277481"
       width="1.279832"
       x="-0.139916"
       y="-0.138741">
      <feGaussianBlur
         stdDeviation=".28784801"
         id="feGaussianBlur11151" />
    </filter>
    <linearGradient
       id="i-5"
       gradientUnits="userSpaceOnUse"
       spreadMethod="reflect"
       x1="88.606247"
       x2="91.575104"
       y1="13.510336"
       y2="13.510336">
      <stop
         offset="0"
         stop-color="#c8ff87"
         id="stop10439" />
      <stop
         offset="1"
         stop-color="#abff87"
         stop-opacity="0"
         id="stop10441" />
    </linearGradient>
    <filter
       id="filter11160"
       height="1.277481"
       width="1.279832"
       x="-0.139916"
       y="-0.138741">
      <feGaussianBlur
         stdDeviation=".28784801"
         id="feGaussianBlur11158" />
    </filter>
    <linearGradient
       id="j"
       gradientUnits="userSpaceOnUse"
       spreadMethod="reflect"
       x1="31.606251"
       x2="34.575108"
       y1="13.510336"
       y2="13.510336">
      <stop
         offset="0"
         stop-color="#fff"
         id="stop10444" />
      <stop
         offset="1"
         stop-color="#790000"
         stop-opacity="0"
         id="stop10446" />
    </linearGradient>
    <filter
       id="filter11167"
       height="1.277481"
       width="1.279832"
       x="-0.139916"
       y="-0.138741">
      <feGaussianBlur
         stdDeviation=".28784801"
         id="feGaussianBlur11165" />
    </filter>
    <filter
       id="filter11177"
       height="1.277481"
       width="1.279832"
       x="-0.139916"
       y="-0.138741">
      <feGaussianBlur
         stdDeviation=".28784801"
         id="feGaussianBlur11175" />
    </filter>
    <radialGradient
       id="k"
       cx="50.424522"
       cy="-81.945961"
       gradientTransform="matrix(0.08147617,0.08147617,-0.08147617,0.08147617,11.283714,291.5947)"
       gradientUnits="userSpaceOnUse"
       r="50.15279">
      <stop
         offset="0"
         stop-color="#7ae91e"
         stop-opacity=".996078"
         id="stop10449" />
      <stop
         offset="1"
         stop-color="#62c916"
         id="stop10451" />
    </radialGradient>
    <filter
       style="color-interpolation-filters:sRGB"
       id="l"
       height="1.024"
       width="1.024"
       x="-0.012"
       y="-0.012">
      <feGaussianBlur
         stdDeviation=".28192153"
         id="feGaussianBlur10454" />
    </filter>
    <linearGradient
       gradientTransform="matrix(0.26458333,0,0,0.26458333,-1.0171179,263.13333)"
       id="m"
       gradientUnits="userSpaceOnUse"
       x1="84.745605"
       x2="97.636749"
       xlink:href="#a"
       y1="48.278454"
       y2="110.57732" />
    <linearGradient
       spreadMethod="reflect"
       y2="13.510336"
       x2="91.575104"
       y1="13.510336"
       x1="88.606247"
       gradientUnits="userSpaceOnUse"
       id="linearGradient11208"
       xlink:href="#i-5"
       inkscape:collect="always" />
    <linearGradient
       inkscape:collect="always"
       xlink:href="#a"
       id="linearGradient11344"
       gradientUnits="userSpaceOnUse"
       gradientTransform="scale(1.0975951,0.9110828)"
       x1="26.091133"
       y1="14.856744"
       x2="31.500689"
       y2="14.856744" />
    <linearGradient
       inkscape:collect="always"
       xlink:href="#i-5"
       id="linearGradient11346"
       gradientUnits="userSpaceOnUse"
       x1="88.606247"
       y1="13.510336"
       x2="91.575104"
       y2="13.510336"
       spreadMethod="reflect" />
  </defs>
  <sodipodi:namedview
     id="base"
     pagecolor="#ffffff"
     bordercolor="#666666"
     borderopacity="1.0"
     inkscape:pageopacity="0.0"
     inkscape:pageshadow="2"
     inkscape:zoom="2.8284271"
     inkscape:cx="49.363487"
     inkscape:cy="49.481077"
     inkscape:document-units="mm"
     inkscape:current-layer="g5655"
     showgrid="true"
     units="px"
     inkscape:window-width="1366"
     inkscape:window-height="706"
     inkscape:window-x="0"
     inkscape:window-y="0"
     inkscape:window-maximized="1"
     inkscape:snap-global="true">
    <inkscape:grid
       type="xygrid"
       id="grid5562"
       spacingx="2.1166667"
       spacingy="2.1166667"
       empspacing="2" />
  </sodipodi:namedview>
  <metadata
     id="metadata5">
    <rdf:RDF>
      <cc:Work
         rdf:about="">
        <dc:format>image/svg+xml</dc:format>
        <dc:type
           rdf:resource="http://purl.org/dc/dcmitype/StillImage" />
        <dc:title></dc:title>
      </cc:Work>
    </rdf:RDF>
  </metadata>
  <g
     inkscape:label="Layer 1"
     inkscape:groupmode="layer"
     id="layer1"
     transform="translate(0,-263.13332)">
    <g
       id="g5655">
      <g
         id="g11404">
        <path
           sodipodi:nodetypes="ccccccccccccccc"
           inkscape:connector-curvature="0"
           id="rect6427"
           transform="matrix(0.26458333,0,0,0.26458333,0,263.13332)"
           d="m 88.000002,47.999999 v 3.996094 0.0039 20 l 4e-6,8 L 128,80 128,48 h -8 l -23.999998,-10e-7 z m 8.000003,8 L 120,56 l 0,16 -23.999998,-10e-7 z"
           style="fill:url(#linearGradient6456);fill-opacity:1;stroke:none;stroke-width:0.99999994" />
        <path
           sodipodi:nodetypes="ccccc"
           inkscape:connector-curvature="0"
           id="rect9551"
           d="m 25.400001,277.94715 h 6.35 l -1e-6,4.23439 H 25.4 Z"
           style="fill:url(#linearGradient9553);fill-opacity:1;stroke:none;stroke-width:0.07746197" />
      </g>
      <g
         id="g9561"
         transform="translate(0,-6.3499999)">
        <path
           style="fill:url(#linearGradient3733);fill-opacity:1;stroke:none;stroke-width:0.07746197"
           d="m 2.1166668,271.59892 h 6.3499999 l 0,4.2344 H 2.1166668 Z"
           id="rect3723"
           inkscape:connector-curvature="0"
           sodipodi:nodetypes="ccccc" />
        <path
           sodipodi:nodetypes="ccccccccccccccc"
           inkscape:connector-curvature="0"
           id="path9557"
           transform="matrix(0.26458333,0,0,0.26458333,0,263.13332)"
           d="m 0,24 v 4 20 L 1.3385805e-7,56 40.000001,55.999999 v -8 -20 -4 L 8,24 Z m 7.9999999,7.999999 24.0000011,-10e-7 0,16.000001 L 8,48 Z"
           style="fill:url(#linearGradient9563);fill-opacity:1;stroke:none;stroke-width:0.99999994" />
      </g>
      <g
         id="g9567"
         transform="translate(0,6.3500001)">
        <path
           style="fill:url(#linearGradient9549);fill-opacity:1;stroke:none;stroke-width:0.07746197"
           d="m 2.1166668,284.2884 h 6.3500009 v 4.23439 H 2.1166668 Z"
           id="rect9547"
           inkscape:connector-curvature="0"
           sodipodi:nodetypes="ccccc" />
        <path
           style="fill:url(#linearGradient9569);fill-opacity:1;stroke:none;stroke-width:0.99999994"
           d="m 0,72 v 4 L 1.1338583e-6,96.000001 2.6771658e-7,104 H 8.0000002 32.000001 h 8 l 1e-6,-7.999999 L 40.000001,76 V 75.943359 72 h -8 H 8 Z m 7.9999999,8 H 32.000001 l 1e-6,16.000001 H 8.0000011 Z"
           transform="matrix(0.26458333,0,0,0.26458333,0,263.13332)"
           id="path9555"
           inkscape:connector-curvature="0"
           sodipodi:nodetypes="ccccccccccccccccccc" />
      </g>
      <path
         inkscape:connector-curvature="0"
         style="fill:url(#i);stroke-width:0.26458332"
         d="m 22.71877,275.34868 -7.991413,2.11227 -0.508681,-1.39762 3.214716,-2.01151 -6.700888,-3.12469 0.89454,-1.91834 6.700893,3.12466 -0.54797,-3.70733 1.420104,-0.55695 z"
         id="path71"
         sodipodi:nodetypes="cccccccccc" />
      <path
         sodipodi:nodetypes="cccccccccc"
         id="path9606"
         d="m 22.718767,282.66796 -3.518692,7.47951 -1.397608,-0.50869 0.525469,-3.75559 -6.700897,3.12466 -0.894538,-1.91834 6.700885,-3.12469 -3.192208,-1.96325 0.486177,-1.44587 z"
         style="fill:url(#linearGradient9608);stroke-width:0.26458332"
         inkscape:connector-curvature="0" />
      <g
         id="g11363"
         transform="matrix(0.75656863,0,0,0.75656863,-11.409227,62.461257)">
        <rect
           style="opacity:1;fill:#145603;fill-opacity:1;stroke:none;stroke-width:1.11278629;stroke-linecap:round;stroke-linejoin:round;stroke-miterlimit:4;stroke-dasharray:none;stroke-dashoffset:0;stroke-opacity:1"
           id="rect11365"
           width="5.5954385"
           height="16.786325"
           x="20.675667"
           y="279.22833"
           ry="1.514618" />
        <rect
           y="-31.866549"
           x="284.82376"
           height="16.786325"
           width="5.5954385"
           id="rect11367"
           style="opacity:1;fill:#145603;fill-opacity:1;stroke:none;stroke-width:1.11278629;stroke-linecap:round;stroke-linejoin:round;stroke-miterlimit:4;stroke-dasharray:none;stroke-dashoffset:0;stroke-opacity:1"
           transform="rotate(90)"
           ry="1.0818753" />
        <path
           id="path10520"
           d="m 31.726028,286.21718 c 1.3e-5,-0.43826 -0.355267,-0.79354 -0.79352,-0.79352 h -5.260954 v -5.26118 c 1.3e-5,-0.43826 -0.355267,-0.79354 -0.79352,-0.79352 h -2.809278 c -0.438254,-2e-5 -0.793533,0.35526 -0.79352,0.79352 v 5.26118 h -5.260954 c -0.438256,-2e-5 -0.793533,0.35526 -0.79352,0.79352 v 2.80927 c -1.3e-5,0.43826 0.355264,0.79354 0.79352,0.79352 h 5.260954 v 5.26096 c -1.3e-5,0.43825 0.355265,0.79353 0.79352,0.79352 h 2.809278 c 0.438253,10e-6 0.793533,-0.35527 0.79352,-0.79352 v -5.26096 h 5.260954 c 0.438256,2e-5 0.793533,-0.35526 0.79352,-0.79352 z"
           style="fill:#1f5623;fill-opacity:0.90588199;stroke-width:0.26458332"
           inkscape:connector-curvature="0" />
        <path
           id="path10522"
           d="m 31.726028,286.21718 c 1.3e-5,-0.43826 -0.355267,-0.79354 -0.79352,-0.79352 h -5.260954 v -5.26118 c 1.3e-5,-0.43826 -0.355267,-0.79354 -0.79352,-0.79352 h -2.809278 c -0.438254,-2e-5 -0.793533,0.35526 -0.79352,0.79352 v 5.26118 h -5.260954 c -0.438256,-2e-5 -0.793533,0.35526 -0.79352,0.79352 v 2.80927 c -1.3e-5,0.43826 0.355264,0.79354 0.79352,0.79352 h 5.260954 v 5.26096 c -1.3e-5,0.43825 0.355265,0.79353 0.79352,0.79352 h 2.809278 c 0.438253,10e-6 0.793533,-0.35527 0.79352,-0.79352 v -5.26096 h 5.260954 c 0.438256,2e-5 0.793533,-0.35526 0.79352,-0.79352 z"
           style="fill:url(#b);stroke-width:0.26458332"
           inkscape:connector-curvature="0" />
        <path
           id="path10524"
           d="m 31.726028,286.21718 c 1.3e-5,-0.43826 -0.355267,-0.79354 -0.79352,-0.79352 h -5.260954 v -5.26118 c 1.3e-5,-0.43826 -0.355267,-0.79354 -0.79352,-0.79352 h -2.809278 c -0.438254,-2e-5 -0.793533,0.35526 -0.79352,0.79352 v 5.26118 h -5.260954 c -0.438256,-2e-5 -0.793533,0.35526 -0.79352,0.79352 v 2.80927 c -1.3e-5,0.43826 0.355264,0.79354 0.79352,0.79352 h 5.260954 v 5.26096 c -1.3e-5,0.43825 0.355265,0.79353 0.79352,0.79352 h 2.809278 c 0.438253,10e-6 0.793533,-0.35527 0.79352,-0.79352 v -5.26096 h 5.260954 c 0.438256,2e-5 0.793533,-0.35526 0.79352,-0.79352 z"
           style="fill:#066704;stroke-width:0.26458332"
           inkscape:connector-curvature="0" />
        <path
           id="path10526"
           d="m 31.726028,286.21718 c 1.3e-5,-0.43826 -0.355267,-0.79354 -0.79352,-0.79352 h -5.260954 v -5.26118 c 1.3e-5,-0.43826 -0.355267,-0.79354 -0.79352,-0.79352 h -2.809278 c -0.438254,-2e-5 -0.793533,0.35526 -0.79352,0.79352 v 5.26118 h -5.260954 c -0.438256,-2e-5 -0.793533,0.35526 -0.79352,0.79352 v 2.80927 c -1.3e-5,0.43826 0.355264,0.79354 0.79352,0.79352 h 5.260954 v 5.26096 c -1.3e-5,0.43825 0.355265,0.79353 0.79352,0.79352 h 2.809278 c 0.438253,10e-6 0.793533,-0.35527 0.79352,-0.79352 v -5.26096 h 5.260954 c 0.438256,2e-5 0.793533,-0.35526 0.79352,-0.79352 z"
           style="fill:url(#d);stroke-width:0.26458332"
           inkscape:connector-curvature="0" />
        <path
           id="path10528"
           d="m 31.726028,286.21718 c 1.3e-5,-0.43826 -0.355267,-0.79354 -0.79352,-0.79352 h -5.260954 v -5.26118 c 1.3e-5,-0.43826 -0.355267,-0.79354 -0.79352,-0.79352 h -2.809278 c -0.438254,-2e-5 -0.793533,0.35526 -0.79352,0.79352 v 5.26118 h -5.260954 c -0.438256,-2e-5 -0.793533,0.35526 -0.79352,0.79352 v 2.80927 c -1.3e-5,0.43826 0.355264,0.79354 0.79352,0.79352 h 5.260954 v 5.26096 c -1.3e-5,0.43825 0.355265,0.79353 0.79352,0.79352 h 2.809278 c 0.438253,10e-6 0.793533,-0.35527 0.79352,-0.79352 v -5.26096 h 5.260954 c 0.438256,2e-5 0.793533,-0.35526 0.79352,-0.79352 z"
           style="fill:url(#e);stroke-width:0.26458332"
           inkscape:connector-curvature="0" />
        <path
           id="path10530"
           transform="matrix(-0.17185841,0.17185841,0.1735087,0.1735087,19.276863,278.41654)"
           d="m 31.7,16 2.875,-3.375 c -1.051205,-1.695758 -3.935136,-2.288018 -5.9375,-0.3125 l 2.8125,3.375 z"
           style="opacity:0.498127;fill:url(#linearGradient11344);fill-rule:evenodd;filter:url(#g)"
           inkscape:connector-curvature="0" />
        <path
           id="path10532"
           transform="matrix(-0.17135372,-0.17135372,0.16972392,-0.16972392,25.220628,302.67117)"
           d="m 31.7,16 2.875,-3.375 c -1.051205,-1.695758 -3.935136,-2.288018 -5.9375,-0.3125 l 2.8125,3.375 z"
           style="opacity:0.79026196;fill:url(#f);fill-rule:evenodd;filter:url(#g)"
           inkscape:connector-curvature="0" />
        <path
           id="path10534"
           transform="matrix(-0.15562627,0.15562627,-0.15712069,-0.15712069,31.996947,292.15938)"
           d="m 31.7,16 2.875,-3.375 c -1.051205,-1.695758 -3.935136,-2.288018 -5.9375,-0.3125 l 2.8125,3.375 z"
           style="opacity:0.498127;fill:url(#h);fill-rule:evenodd;filter:url(#g)"
           inkscape:connector-curvature="0" />
        <path
           id="path10536"
           transform="matrix(-0.15712069,-0.15712069,0.15562627,-0.15562627,27.864827,305.04903)"
           d="m 88.7,16 2.875,-3.375 c -1.051205,-1.695758 -3.935136,-2.288018 -5.9375,-0.3125 l 2.8125,3.375 z"
           style="opacity:0.79026196;fill:url(#linearGradient11346);fill-rule:evenodd;filter:url(#g)"
           inkscape:connector-curvature="0" />
        <path
           id="path10538"
           transform="matrix(-0.14288766,-0.14288766,-0.14152862,0.14152862,37.346459,288.75175)"
           d="m 31.7,16 2.875,-3.375 c -1.051205,-1.695758 -3.935136,-2.288018 -5.9375,-0.3125 l 2.8125,3.375 z"
           style="opacity:0.79026196;fill:url(#j);fill-rule:evenodd;filter:url(#g)"
           inkscape:connector-curvature="0" />
        <path
           id="path10540"
           transform="matrix(-0.14669647,-0.14669647,-0.1453012,0.1453012,39.867335,291.20135)"
           d="m 88.7,16 2.875,-3.375 c -1.051205,-1.695758 -3.935136,-2.288018 -5.9375,-0.3125 l 2.8125,3.375 z"
           style="opacity:0.79026196;fill:url(#linearGradient11208);fill-rule:evenodd;filter:url(#g)"
           inkscape:connector-curvature="0" />
        <path
           id="path10542"
           d="m 30.932507,286.21718 h -6.054474 v -6.0547 h -2.809277 v 6.0547 h -6.054474 v 2.80927 h 6.054474 v 6.05448 h 2.809277 v -6.05448 h 6.054474 z"
           style="fill:url(#k);stroke-width:0.26458332"
           inkscape:connector-curvature="0" />
        <path
           transform="matrix(0.26458333,0,0,0.26458333,14.063109,278.21122)"
           id="path10544"
           d="m 40.875718,7.37492 -10.617965,-5e-6 V 30.259096 L 7.374174,30.258661 v 10.61797 h 22.882977 l 1e-6,22.882971 H 40.875118 V 40.876631 l 22.88298,-1e-5 -10e-6,-10.617956 h -22.88297 z m -0.75422,0.754216 -6.1e-4,22.129359 c -4e-5,0.41656 0.33766,0.754256 0.75422,0.754217 h 22.12876 v 9.109529 h -22.12876 c -0.41656,-4e-5 -0.75426,0.33766 -0.75422,0.75422 v 22.128761 h -9.10953 V 40.876461 c 4e-5,-0.41656 -0.337657,-0.75426 -0.754216,-0.75422 H 8.128382 v -9.109534 l 22.129362,4.36e-4 c 0.416558,3.9e-5 0.754257,-0.337657 0.754216,-0.754216 V 8.128966 Z"
           style="fill:#eef4ca;fill-opacity:0.77941165;filter:url(#l)"
           inkscape:connector-curvature="0" />
        <path
           id="path10546"
           d="m 22.06882,280.16252 v 6.05441 h -6.05441 v 1.83245 a 17.312586,10.263149 0 0 0 4.708239,0.39636 17.312586,10.263149 0 0 0 10.209712,-1.99006 v -0.23875 h -6.05441 v -6.05441 z"
           style="fill:url(#m);stroke-width:0.26458332"
           inkscape:connector-curvature="0" />
      </g>
    </g>
  </g>
</svg>
