<?xml version="1.0" encoding="UTF-8" standalone="no"?>
<svg
   xmlns:dc="http://purl.org/dc/elements/1.1/"
   xmlns:cc="http://creativecommons.org/ns#"
   xmlns:rdf="http://www.w3.org/1999/02/22-rdf-syntax-ns#"
   xmlns:svg="http://www.w3.org/2000/svg"
   xmlns="http://www.w3.org/2000/svg"
   xmlns:xlink="http://www.w3.org/1999/xlink"
   xmlns:sodipodi="http://sodipodi.sourceforge.net/DTD/sodipodi-0.dtd"
   xmlns:inkscape="http://www.inkscape.org/namespaces/inkscape"
   enable-background="new 0 0 128 128"
   height="128"
   viewBox="0 0 128 128"
   width="128"
   version="1.1"
   id="svg2921"
   sodipodi:docname="sc_showbookview.svg"
   inkscape:version="0.92.3 (unknown)"
   inkscape:export-filename="/home/rizmut/Dokumen/Rizmut/Github/libreoffice-style-karasa-jaga/build/images_karasa_jaga/cmd/sc_showbookview.png"
   inkscape:export-xdpi="12"
   inkscape:export-ydpi="12">
  <metadata
     id="metadata2927">
    <rdf:RDF>
      <cc:Work
         rdf:about="">
        <dc:format>image/svg+xml</dc:format>
        <dc:type
           rdf:resource="http://purl.org/dc/dcmitype/StillImage" />
        <dc:title></dc:title>
      </cc:Work>
    </rdf:RDF>
  </metadata>
  <defs
     id="defs2925">
    <radialGradient
       inkscape:collect="always"
       xlink:href="#d"
       id="radialGradient7458"
       gradientUnits="userSpaceOnUse"
       gradientTransform="translate(-8.0000001)"
       cx="102.000002"
       cy="112.3047"
       r="139.5585" />
    <radialGradient
       inkscape:collect="always"
       xlink:href="#c"
       id="radialGradient7460"
       gradientUnits="userSpaceOnUse"
       gradientTransform="matrix(0.9787234,0,0,0.9818182,-6.6382951,1.163636)"
       cx="102"
       cy="112.3047"
       r="139.55859" />
    <linearGradient
       inkscape:collect="always"
       xlink:href="#a"
       id="linearGradient7462"
       gradientUnits="userSpaceOnUse"
       x1="85.219681"
       y1="93.219681"
       x2="61.336319"
       y2="69.336319" />
    <linearGradient
       inkscape:collect="always"
       xlink:href="#b"
       id="linearGradient7464"
       gradientUnits="userSpaceOnUse"
       x1="96"
       y1="104"
       x2="88.0002"
       y2="96.0002" />
    <radialGradient
       inkscape:collect="always"
       xlink:href="#d"
       id="radialGradient7545"
       gradientUnits="userSpaceOnUse"
       gradientTransform="translate(-8.0000001)"
       cx="102.000002"
       cy="112.3047"
       r="139.5585" />
    <radialGradient
       inkscape:collect="always"
       xlink:href="#c"
       id="radialGradient7547"
       gradientUnits="userSpaceOnUse"
       gradientTransform="matrix(0.9787234,0,0,0.9818182,-6.6382951,1.163636)"
       cx="102"
       cy="112.3047"
       r="139.55859" />
    <linearGradient
       inkscape:collect="always"
       xlink:href="#a"
       id="linearGradient7549"
       gradientUnits="userSpaceOnUse"
       x1="85.219681"
       y1="93.219681"
       x2="61.336319"
       y2="69.336319" />
    <linearGradient
       inkscape:collect="always"
       xlink:href="#b"
       id="linearGradient7551"
       gradientUnits="userSpaceOnUse"
       x1="96"
       y1="104"
       x2="88.0002"
       y2="96.0002" />
  </defs>
  <sodipodi:namedview
     pagecolor="#ffffff"
     bordercolor="#666666"
     borderopacity="1"
     objecttolerance="10"
     gridtolerance="10"
     guidetolerance="10"
     inkscape:pageopacity="0"
     inkscape:pageshadow="2"
     inkscape:window-width="1366"
     inkscape:window-height="706"
     id="namedview2923"
     showgrid="true"
     inkscape:zoom="5.2149126"
     inkscape:cx="14.729629"
     inkscape:cy="66.681494"
     inkscape:window-x="0"
     inkscape:window-y="0"
     inkscape:window-maximized="1"
     inkscape:current-layer="svg2921"
     inkscape:snap-global="true">
    <inkscape:grid
       type="xygrid"
       id="grid7289"
       spacingx="8"
       spacingy="8"
       empspacing="1" />
  </sodipodi:namedview>
  <linearGradient
     id="a"
     gradientUnits="userSpaceOnUse"
     x1="85.219681"
     x2="61.336319"
     y1="93.219681"
     y2="69.336319">
    <stop
       offset="0"
       id="stop2826" />
    <stop
       offset="1"
       stop-color="#393b38"
       id="stop2828" />
  </linearGradient>
  <linearGradient
     id="b"
     gradientUnits="userSpaceOnUse"
     x1="96"
     x2="88.0002"
     y1="104"
     y2="96.0002">
    <stop
       offset="0"
       stop-color="#888a85"
       id="stop2831" />
    <stop
       offset=".0072"
       stop-color="#8c8e89"
       id="stop2833" />
    <stop
       offset=".0673"
       stop-color="#abaca9"
       id="stop2835" />
    <stop
       offset=".1347"
       stop-color="#c5c6c4"
       id="stop2837" />
    <stop
       offset=".2115"
       stop-color="#dbdbda"
       id="stop2839" />
    <stop
       offset=".3012"
       stop-color="#ebebeb"
       id="stop2841" />
    <stop
       offset=".4122"
       stop-color="#f7f7f6"
       id="stop2843" />
    <stop
       offset=".5679"
       stop-color="#fdfdfd"
       id="stop2845" />
    <stop
       offset="1"
       stop-color="#fff"
       id="stop2847" />
  </linearGradient>
  <radialGradient
     id="c"
     cx="102"
     cy="112.3047"
     gradientTransform="matrix(0.9787234,0,0,0.9818182,-6.6382951,1.163636)"
     gradientUnits="userSpaceOnUse"
     r="139.55859">
    <stop
       offset="0"
       stop-color="#535557"
       id="stop2850" />
    <stop
       offset=".11366145"
       stop-color="#898a8c"
       id="stop2852" />
    <stop
       offset=".20296688"
       stop-color="#ececec"
       id="stop2854" />
    <stop
       offset=".2363"
       stop-color="#fafafa"
       id="stop2856" />
    <stop
       offset=".2722"
       stop-color="#fff"
       id="stop2858" />
    <stop
       offset=".5313"
       stop-color="#fafafa"
       id="stop2860" />
    <stop
       offset=".8449"
       stop-color="#ebecec"
       id="stop2862" />
    <stop
       offset="1"
       stop-color="#e1e2e3"
       id="stop2864" />
  </radialGradient>
  <radialGradient
     id="d"
     cx="102.000002"
     cy="112.3047"
     gradientUnits="userSpaceOnUse"
     r="139.5585"
     gradientTransform="translate(-8.0000001)">
    <stop
       offset="0"
       stop-color="#00537d"
       id="stop2867" />
    <stop
       offset=".0151"
       stop-color="#186389"
       id="stop2869" />
    <stop
       offset=".0558"
       stop-color="#558ca8"
       id="stop2871" />
    <stop
       offset=".0964"
       stop-color="#89afc3"
       id="stop2873" />
    <stop
       offset=".1357"
       stop-color="#b3ccd8"
       id="stop2875" />
    <stop
       offset=".1737"
       stop-color="#d4e2e9"
       id="stop2877" />
    <stop
       offset=".2099"
       stop-color="#ecf2f5"
       id="stop2879" />
    <stop
       offset=".2435"
       stop-color="#fafcfd"
       id="stop2881" />
    <stop
       offset=".2722"
       stop-color="#fff"
       id="stop2883" />
  </radialGradient>
  <filter
     id="e">
    <feGaussianBlur
       stdDeviation="1.0394514"
       id="feGaussianBlur2886" />
  </filter>
  <filter
     id="f">
    <feGaussianBlur
       stdDeviation=".50063244"
       id="feGaussianBlur2889" />
  </filter>
  <filter
     id="g">
    <feGaussianBlur
       stdDeviation=".4901192"
       id="feGaussianBlur2892" />
  </filter>
  <filter
     id="h">
    <feGaussianBlur
       stdDeviation=".90565481"
       id="feGaussianBlur2895" />
  </filter>
  <filter
     id="i"
     height="1.247155"
     width="1.247155"
     x="-.123577"
     y="-.123577">
    <feGaussianBlur
       stdDeviation="1.7720846"
       id="feGaussianBlur2898" />
  </filter>
  <g
     id="g7434"
     transform="matrix(-1,0,0,1,72,24)">
    <path
       sodipodi:nodetypes="ccsssscc"
       id="path2901"
       transform="matrix(1.0416667,0,0,1.0357143,-17.958333,-3.321534)"
       d="m 23,9 0.04082,57.931035 h 32.331177 c 0.53,0 1.081207,-0.172668 1.414,-0.586 l 15.548,-19.310763 c 0.332793,-0.413333 0.586,-0.884 0.586,-1.414 V 9.0000001 Z"
       inkscape:connector-curvature="0"
       style="opacity:0.71506898;filter:url(#e)" />
    <path
       sodipodi:nodetypes="cccccscc"
       id="path2903"
       transform="matrix(1.0416667,0,0,1.0357143,-17.958333,-3.321534)"
       d="m 24.919999,10.931136 -2e-6,54.068969 29.875998,-1e-4 c 0.53,0 1.039,-0.211 1.414,-0.586 L 70.413997,46.165306 c 0.375,-0.375 0.586,-0.884 0.586,-1.414 v -33.82017 z"
       inkscape:connector-curvature="0"
       style="opacity:0.89589;filter:url(#f)" />
    <path
       sodipodi:nodetypes="ccsccscc"
       id="path2905"
       transform="matrix(1.0416667,0,0,1.0357143,-17.958333,-3.321534)"
       d="m 23,9.9655172 0.04082,56.9655178 h 32.331181 c 0.53,0 1.039,-0.211 1.414,-0.586 12.209338,-9.10602 5.06945,-7.225478 15.548002,-19.310763 0.375,-0.375 0.586,-0.884 0.586,-1.414 V 9.9655173 Z"
       inkscape:connector-curvature="0"
       style="opacity:0.83561599;filter:url(#e)" />
    <path
       sodipodi:nodetypes="ccsssscc"
       id="path2907"
       d="M 8.0000019,8 8,64 h 31.171996 c 0.53,0 1.085878,-0.169363 1.414,-0.586 l 14.828,-18.828004 c 0.328122,-0.416636 0.586,-0.884 0.586,-1.414 V 8.0000001 Z"
       style="fill:url(#radialGradient7545)"
       inkscape:connector-curvature="0" />
    <path
       sodipodi:nodetypes="sccssccssss"
       id="path2909"
       d="m 16.678725,16 c -0.539276,0 -0.978723,0.440836 -0.978723,0.981818 L 16,55.01818 C 16,55.56015 16.439447,56 16.978723,56 h 21.913018 c 0.257404,0 0.509915,-0.10407 0.691957,-0.28767 l 8.129528,-12.231134 c 0.18303,-0.1836 0.28677,-0.435927 0.28677,-0.694145 V 16.981818 C 47.999996,16.440836 47.561526,16 47.021276,16 Z"
       style="fill:url(#radialGradient7547)"
       inkscape:connector-curvature="0" />
    <g
       id="g2919"
       transform="matrix(0.56753569,-0.05510502,0.05510502,0.56753569,-12.002745,0.55976746)">
      <path
         id="path2911"
         d="M 111.414,86.586 C 111.664,86.336 85.035,85 80,85 c -1.654,0 -3,1.346 -3,3 0,5.035 1.336,31.664 1.586,31.414 z"
         inkscape:connector-curvature="0"
         style="opacity:0.90684904;filter:url(#i)" />
      <path
         id="path2913"
         d="M 111.414,86.586 C 111.789,86.211 89.444,86 80,86 c -1.103,0 -2,0.897 -2,2 0,9.444 0.211,31.789 0.586,31.414 z"
         inkscape:connector-curvature="0"
         style="opacity:0.2;filter:url(#h)" />
      <path
         id="path2915"
         d="M 111.414,86.586 C 111.653,86.347 89.807,87 80,87 c -0.553,0 -1,0.447 -1,1 0,9.807 -0.653,31.653 -0.414,31.414 z"
         style="opacity:0.1;fill:url(#linearGradient7549);filter:url(#g)"
         inkscape:connector-curvature="0" />
      <path
         id="path2917"
         d="m 78.586,119.414 c 0,0 11.914,-9.914 17.414,-15.414 5.5,-5.5 15.414,-17.414 15.414,-17.414 0,0 -21.164,1.414 -31.414,1.414 0,10.25 -1.414,31.414 -1.414,31.414 z"
         style="fill:url(#linearGradient7551)"
         inkscape:connector-curvature="0" />
    </g>
  </g>
  <g
     id="g7456"
     transform="translate(56,24)">
    <path
       style="opacity:0.71506898;filter:url(#e)"
       inkscape:connector-curvature="0"
       d="m 23,9 0.04082,57.931035 h 32.331177 c 0.53,0 1.081207,-0.172668 1.414,-0.586 l 15.548,-19.310763 c 0.332793,-0.413333 0.586,-0.884 0.586,-1.414 V 9.0000001 Z"
       transform="matrix(1.0416667,0,0,1.0357143,-17.958333,-3.321534)"
       id="path7436"
       sodipodi:nodetypes="ccsssscc" />
    <path
       style="opacity:0.89589;filter:url(#f)"
       inkscape:connector-curvature="0"
       d="m 24.919999,10.931136 -2e-6,54.068969 29.875998,-1e-4 c 0.53,0 1.039,-0.211 1.414,-0.586 L 70.413997,46.165306 c 0.375,-0.375 0.586,-0.884 0.586,-1.414 v -33.82017 z"
       transform="matrix(1.0416667,0,0,1.0357143,-17.958333,-3.321534)"
       id="path7438"
       sodipodi:nodetypes="cccccscc" />
    <path
       style="opacity:0.83561599;filter:url(#e)"
       inkscape:connector-curvature="0"
       d="m 23,9.9655172 0.04082,56.9655178 h 32.331181 c 0.53,0 1.039,-0.211 1.414,-0.586 12.209338,-9.10602 5.06945,-7.225478 15.548002,-19.310763 0.375,-0.375 0.586,-0.884 0.586,-1.414 V 9.9655173 Z"
       transform="matrix(1.0416667,0,0,1.0357143,-17.958333,-3.321534)"
       id="path7440"
       sodipodi:nodetypes="ccsccscc" />
    <path
       inkscape:connector-curvature="0"
       style="fill:url(#radialGradient7458)"
       d="M 8.0000019,8 8,64 h 31.171996 c 0.53,0 1.085878,-0.169363 1.414,-0.586 l 14.828,-18.828004 c 0.328122,-0.416636 0.586,-0.884 0.586,-1.414 V 8.0000001 Z"
       id="path7442"
       sodipodi:nodetypes="ccsssscc" />
    <path
       inkscape:connector-curvature="0"
       style="fill:url(#radialGradient7460)"
       d="m 16.678725,16 c -0.539276,0 -0.978723,0.440836 -0.978723,0.981818 L 16,55.01818 C 16,55.56015 16.439447,56 16.978723,56 h 21.913018 c 0.257404,0 0.509915,-0.10407 0.691957,-0.28767 l 8.129528,-12.231134 c 0.18303,-0.1836 0.28677,-0.435927 0.28677,-0.694145 V 16.981818 C 47.999996,16.440836 47.561526,16 47.021276,16 Z"
       id="path7444"
       sodipodi:nodetypes="sccssccssss" />
    <g
       transform="matrix(0.56753569,-0.05510502,0.05510502,0.56753569,-12.002745,0.55976746)"
       id="g7454">
      <path
         style="opacity:0.90684904;filter:url(#i)"
         inkscape:connector-curvature="0"
         d="M 111.414,86.586 C 111.664,86.336 85.035,85 80,85 c -1.654,0 -3,1.346 -3,3 0,5.035 1.336,31.664 1.586,31.414 z"
         id="path7446" />
      <path
         style="opacity:0.2;filter:url(#h)"
         inkscape:connector-curvature="0"
         d="M 111.414,86.586 C 111.789,86.211 89.444,86 80,86 c -1.103,0 -2,0.897 -2,2 0,9.444 0.211,31.789 0.586,31.414 z"
         id="path7448" />
      <path
         inkscape:connector-curvature="0"
         style="opacity:0.1;fill:url(#linearGradient7462);filter:url(#g)"
         d="M 111.414,86.586 C 111.653,86.347 89.807,87 80,87 c -0.553,0 -1,0.447 -1,1 0,9.807 -0.653,31.653 -0.414,31.414 z"
         id="path7450" />
      <path
         inkscape:connector-curvature="0"
         style="fill:url(#linearGradient7464)"
         d="m 78.586,119.414 c 0,0 11.914,-9.914 17.414,-15.414 5.5,-5.5 15.414,-17.414 15.414,-17.414 0,0 -21.164,1.414 -31.414,1.414 0,10.25 -1.414,31.414 -1.414,31.414 z"
         id="path7452" />
    </g>
  </g>
</svg>
