<svg enable-background="new 0 0 128 128" height="128" viewBox="0 0 128 128" width="128" xmlns="http://www.w3.org/2000/svg" xmlns:xlink="http://www.w3.org/1999/xlink"><radialGradient id="a" cx="102" cy="112.3047" gradientUnits="userSpaceOnUse" r="139.55859"><stop offset="0" stop-color="#fff"/><stop offset=".5313" stop-color="#fafafa"/><stop offset=".8449" stop-color="#ebecec"/><stop offset="1" stop-color="#e1e2e3"/></radialGradient><radialGradient id="b" cx="102" cy="112.3047" gradientUnits="userSpaceOnUse" r="139.5585"><stop offset="0" stop-color="#fcfcfc"/><stop offset=".2722" stop-color="#fff"/></radialGradient><linearGradient id="c" gradientTransform="matrix(0 -.6389833 -.3828125 0 110.375 113.25436)" gradientUnits="userSpaceOnUse" x1="102.31124" x2="74.330322" xlink:href="#k" y1="-5.830213" y2="32"/><linearGradient id="d" gradientTransform="matrix(.2500001 0 0 .5555557 75.999995 24.444446)" gradientUnits="userSpaceOnUse" x1="42.728634" x2="124.09152" xlink:href="#i" y1="99.999985" y2="27.999992"/><linearGradient id="e" gradientTransform="matrix(.04048566 0 0 .09108348 69.372429 -18.052478)" gradientUnits="userSpaceOnUse" x1="399.77466" x2="399.77466" xlink:href="#j" y1="1164.6696" y2="549.06134"/><linearGradient id="f" gradientTransform="matrix(0 -.6389833 -.3828125 0 62.375 113.25436)" gradientUnits="userSpaceOnUse" x1="102.31124" x2="74.330322" xlink:href="#k" y1="-5.830213" y2="32"/><linearGradient id="g" gradientTransform="matrix(.2500001 0 0 .5555557 27.999995 24.444446)" gradientUnits="userSpaceOnUse" x1="42.728634" x2="124.09152" xlink:href="#i" y1="99.999985" y2="27.999992"/><linearGradient id="h" gradientTransform="matrix(.04048566 0 0 .09108348 21.372429 -18.052478)" gradientUnits="userSpaceOnUse" x1="399.77466" x2="399.77466" xlink:href="#j" y1="1164.6696" y2="549.06134"/><linearGradient id="i"><stop offset="0" stop-color="#fff"/><stop offset=".42597079" stop-color="#fff"/><stop offset=".5892781" stop-color="#f1f1f1"/><stop offset=".80219781" stop-color="#eaeaea"/><stop offset="1" stop-color="#dfdfdf"/></linearGradient><linearGradient id="j"><stop offset="0" stop-color="#b4b4b6"/><stop offset=".5" stop-color="#9c9ca1"/><stop offset="1" stop-color="#cdcdd1"/></linearGradient><linearGradient id="k"><stop offset="0" stop-color="#fff"/><stop offset="1" stop-color="#fff" stop-opacity="0"/></linearGradient><linearGradient id="l" gradientUnits="userSpaceOnUse" x1="21.25416370158" x2="5.61951788876" y1="274.91695924767" y2="293.1711342005"><stop offset="0" stop-color="#717174"/><stop offset=".5" stop-color="#9c9ca1"/><stop offset="1" stop-color="#cdcdd1"/></linearGradient><linearGradient id="m" gradientUnits="userSpaceOnUse" x1="6.186009" x2="18.558023" y1="292.12616" y2="279.94159"><stop offset="0" stop-color="#a9cbfc"/><stop offset="1" stop-color="#aecffc"/></linearGradient><linearGradient id="n" gradientTransform="matrix(0 -1.5947083 -1.9964998 0 111.85052 219.94979)" gradientUnits="userSpaceOnUse" x1="102.31124" x2="74.330322" y1="-5.830213" y2="32"><stop offset="0" stop-color="#8fbcff"/><stop offset="1" stop-color="#80b3ff"/></linearGradient><g fill="none" stroke="#000" stroke-linejoin="round"><path d="m16 8v2 108 2h2 59.1875 34.8125v-34.8125-42.375-34.8125h-34.8125-59.1875z" opacity=".1" stroke-width="16"/><path d="m16 8v2 108 2h2 59.1875 34.8125v-34.8125-42.375-34.8125h-34.8125-59.1875z" opacity=".15" stroke-width="12"/><path d="m16 8v2 108 2h2 59.1875 34.8125v-34.8125-42.375-34.8125h-34.8125-59.1875z" opacity=".2" stroke-width="8"/><path d="m16 8v2 108 2h2 59.1875 34.8125v-34.8125-42.375-34.8125h-34.8125-59.1875z" opacity=".25" stroke-width="4"/></g><path d="m16 8v2 108 2h2 59.171875 34.828125v-34.828125-42.34375-34.828125h-34.828125-59.171875z" fill="url(#b)"/><path d="m25 16c-.551 0-1 .449-1 1v95c0 .552.449 1 1 1h78c.552 0 1-.449 1-1v-21.828125-51.34375-21.828125c0-.551-.448-1-1-1z" fill="url(#a)" opacity=".546816"/><g transform="translate(393 108)"><rect fill="url(#h)" height="56" rx="3.823639" width="40" x="24" y="32"/><rect fill="url(#g)" fill-rule="evenodd" height="40" rx="2.180037" width="24" x="32" y="40"/><path d="m56.25 54.787385c-3.60919 6.826621-7.51293 13.225947-12.25 17.212614v-17.392328c4.53517-.974111 8.6321-4.015013 12.25-8.206942z" fill="url(#f)" fill-rule="evenodd"/><rect fill="url(#e)" height="56" rx="3.823639" width="40" x="72" y="32"/><g fill-rule="evenodd"><rect fill="url(#d)" height="40" rx="2.180037" width="24" x="80" y="40"/><path d="m104.25 54.787385c-3.60919 6.826621-7.51293 13.225947-12.25 17.212614v-17.392328c4.53517-.974111 8.6321-4.015013 12.25-8.206942z" fill="url(#c)"/></g></g><path d="m32 16h64v8.292975h-64z" fill="#555753"/><path d="m32 64h48v8.292975h-48z" fill="#555753"/><path d="m32 88h64v8.3181h-64z" fill="#555753"/><path d="m32 40h48v8.3181h-48z" fill="#555753"/><g transform="matrix(3.2757554 0 0 3.2757554 31.30412 -855.61009)"><circle cx="12.372016" cy="285.56525" fill="url(#l)" r="12.262265"/><circle cx="12.372016" cy="285.56525" fill="url(#m)" r="9.935103"/><path d="m72.136719 57.166016c-14.382533 7.100423-41.670301 16.052863-62.103516 19.867187-.06148.288919-.1074919.580963-.1621092.871094a37.549997 37.549997 0 0 0 -.4511719 2.982422c-.0003427.0032.0003418.0065 0 .0098-.016652.157295-.024399.315161-.039063.472657a37.549997 37.549997 0 0 0 -.1699219 3.412109 37.549997 37.549997 0 0 0 .080078 2.291016c.018497.29034.049003.579552.074219.86914a37.549997 37.549997 0 0 0 .3320312 2.742188c.07233.446986.1615881.890073.25 1.333984a37.549997 37.549997 0 0 0 .3964848 1.767578c.193403.774057.41175 1.541908.654297 2.302735a37.549997 37.549997 0 0 0 .375 1.132812c.406033 1.146338.861263 2.276826 1.378906 3.382822.0073.0156.01417.0313.02149.0469l.002.004 3.242187 5.60936c.710251 1.0199 1.47124 2.00081 2.279297 2.94142.807457.93989 1.661954 1.8395 2.556641 2.69726.000664.00064.0013.001.002.002.213129.20306.428639.40359.646484.60157.522255.47757 1.048368.95046 1.597656 1.39843 21.560962-9.99675 39.815742-24.492277 56.806641-39.871092.859707-.445587 1.652522-.876777 2.371094-1.294922a37.549997 37.549997 0 0 0 -2.371193-5.543174c-.0025-.0046-.0053-.0091-.0078-.01367a37.549997 37.549997 0 0 0 -.002-.0039c-.327638-.610333-.672205-1.211476-1.033169-1.802742-.002-.0032-.0039-.0065-.0059-.0098-.377278-.621499-.77336-1.230277-1.185547-1.828125-.230942-.334545-.467301-.665318-.708984-.992187-.483968-.655367-.982163-1.299278-1.507813-1.921875l-.002-.002a37.549997 37.549997 0 0 0 -.0059-.0078c-.06901-.08169-.143175-.159132-.212891-.240234-.955541-1.111603-1.974136-2.170651-3.056641-3.166016l-.02539-.02539a37.549997 37.549997 0 0 0 -.01563-.01563z" fill="url(#n)" fill-rule="evenodd" transform="matrix(.26458333 0 0 .26458333 0 263.13332)"/></g></svg>