<svg height="128" viewBox="0 0 33.866666 33.866668" width="128" xmlns="http://www.w3.org/2000/svg" xmlns:xlink="http://www.w3.org/1999/xlink"><linearGradient id="a" gradientUnits="userSpaceOnUse" x1="18.98182359615" x2="20.2029811282" y1="294.720546641" y2="266.6339107115"><stop offset="0" stop-color="#555"/><stop offset="1"/></linearGradient><linearGradient id="b" gradientUnits="userSpaceOnUse" x1="35.404884" x2="54.657333" y1="7.324325" y2="81.814293"><stop offset="0" stop-color="#3b3e22"/><stop offset="1" stop-color="#454545" stop-opacity="0"/></linearGradient><g transform="translate(0 -263.13332)"><text style="font-size:40.615143;font-family:sans-serif;letter-spacing:0;word-spacing:0;stroke-width:1.015378;fill:url(#a)" x="4.795023" y="294.47021"><tspan fill="url(#a)" font-family="FreeSerif" font-size="42.740532" font-weight="bold" stroke-width="1.015378" x="4.795023" y="294.47021">S</tspan></text><path d="m84.626953 14.119141c.006474.005593.007201.017843.013672.023437.00853.007521.02077.006151.029297.013672zm6.708985 3.285156c-1.083395.331994-2.052411 1.164887-3.085938 1.195312 1.056714 1.230312 2.142768 2.420664 3.085938 3.810547zm-52.566407 5.787109c-3.274856 4.142854-5.33789 9.10515-5.33789 16.417969 0 5.735735 1.614424 10.262578 5.117187 14.542969 3.522335 4.197392 9.74626 8.756962 18.78711 13.125l10.798828 5.160156-.044922-.015625c4.429046 2.080334 8.075519 3.999082 11.091797 6.050781a120 43.999999 0 0 0 14.447265-1.814453c-.477383-1.031149-1.01994-2.062415-1.65039-3.099609-2.790376-4.590614-6.069895-7.637967-10.06836-9.640625l-.015625-.007813-23.732422-11.78125a6.5834891 6.5834891 0 0 1 -.015625-.007812c-6.777025-3.388536-11.606365-6.305268-15.050781-9.90625a6.5834891 6.5834891 0 0 1 -.199219-.212891c-3.333569-3.809801-5.027343-8.866626-5.027343-14.027344 0-1.66337.585794-3.184085.90039-4.783203z" fill="url(#b)" transform="matrix(.26458333 0 0 .26458333 0 263.13332)"/></g></svg>