<?xml version="1.0" encoding="UTF-8" standalone="no"?>
<svg
   xmlns:dc="http://purl.org/dc/elements/1.1/"
   xmlns:cc="http://creativecommons.org/ns#"
   xmlns:rdf="http://www.w3.org/1999/02/22-rdf-syntax-ns#"
   xmlns:svg="http://www.w3.org/2000/svg"
   xmlns="http://www.w3.org/2000/svg"
   xmlns:xlink="http://www.w3.org/1999/xlink"
   xmlns:sodipodi="http://sodipodi.sourceforge.net/DTD/sodipodi-0.dtd"
   xmlns:inkscape="http://www.inkscape.org/namespaces/inkscape"
   height="128"
   viewBox="0 0 128 128"
   width="128"
   version="1.1"
   id="svg13"
   sodipodi:docname="sc_strikeout.svg"
   inkscape:version="0.92.2 (unknown)"
   inkscape:export-filename="/home/rizmut/Dokumen/Rizmut/Github/libreoffice-style-karasa-jaga/build/images_karasa_jaga/cmd/sc_strikeout.png"
   inkscape:export-xdpi="12"
   inkscape:export-ydpi="12"><metadata
   id="metadata19">
  <rdf:RDF>
    <cc:Work
       rdf:about="">
      <dc:format>image/svg+xml</dc:format>
      <dc:type
         rdf:resource="http://purl.org/dc/dcmitype/StillImage" />
      <dc:title></dc:title>
    </cc:Work>
  </rdf:RDF>
</metadata>
<defs
   id="defs17">
  <linearGradient
     inkscape:collect="always"
     xlink:href="#a-7"
     id="linearGradient1983"
     x1="64"
     y1="128"
     x2="64"
     y2="8"
     gradientUnits="userSpaceOnUse"
     gradientTransform="translate(1.4914816,-1.3098347)" />
  <linearGradient
     id="b"
     gradientUnits="userSpaceOnUse"
     x1="35.404884"
     x2="54.657333"
     y1="7.3243251"
     y2="81.814293"
     gradientTransform="scale(0.26458333)">
    <stop
       offset="0"
       stop-color="#3b3e22"
       id="stop7" />
    <stop
       offset="1"
       stop-color="#454545"
       stop-opacity="0"
       id="stop9" />
  </linearGradient>
  <linearGradient
     id="a-7"
     gradientUnits="userSpaceOnUse"
     x1="18.981823"
     x2="20.202982"
     y1="294.72055"
     y2="266.63391"
     gradientTransform="matrix(3.7795275,0,0,3.7795275,-107.15001,-922.35809)">
    <stop
       offset="0"
       stop-color="#555"
       id="stop2-2" />
    <stop
       offset="1"
       id="stop4-5" />
  </linearGradient>
  <linearGradient
     id="linearGradient849"
     gradientUnits="userSpaceOnUse"
     x1="18.981823"
     x2="20.202982"
     y1="294.72055"
     y2="266.63391"
     gradientTransform="translate(-0.83344086,-263.09059)">
    <stop
       offset="0"
       stop-color="#555"
       id="stop845" />
    <stop
       offset="1"
       id="stop847" />
  </linearGradient>
  <linearGradient
     inkscape:collect="always"
     xlink:href="#b"
     id="linearGradient2034"
     x1="24"
     y1="0"
     x2="92.371094"
     y2="44.521484"
     gradientUnits="userSpaceOnUse" />
</defs>
<sodipodi:namedview
   pagecolor="#ffffff"
   bordercolor="#666666"
   borderopacity="1"
   objecttolerance="10"
   gridtolerance="10"
   guidetolerance="10"
   inkscape:pageopacity="0"
   inkscape:pageshadow="2"
   inkscape:window-width="1366"
   inkscape:window-height="706"
   id="namedview15"
   showgrid="true"
   inkscape:zoom="2.6074563"
   inkscape:cx="78.664644"
   inkscape:cy="72.013705"
   inkscape:window-x="0"
   inkscape:window-y="0"
   inkscape:window-maximized="1"
   inkscape:current-layer="svg13">
  <inkscape:grid
     type="xygrid"
     id="grid826"
     spacingx="8"
     spacingy="8"
     empspacing="1" />
</sodipodi:namedview>
<linearGradient
   id="a"
   gradientUnits="userSpaceOnUse"
   x1="64"
   x2="64"
   y1="92"
   y2="0"
   gradientTransform="translate(96,128)">
  <stop
     offset="0"
     stop-color="#1c1c1c"
     id="stop2" />
  <stop
     offset=".5"
     stop-color="#888"
     id="stop4" />
  <stop
     offset="1"
     id="stop6" />
</linearGradient>






/&amp;amp;gt;<rect
   height="8"
   rx="1.78422"
   ry="2.2950201"
   width="128"
   y="56"
   id="rect11"
   x="0"
   style="fill:#010101" />
<path
   style="font-style:normal;font-variant:normal;font-weight:bold;font-stretch:normal;font-size:167.49630737px;line-height:1.25;font-family:FreeSerif;-inkscape-font-specification:'FreeSerif, Bold';font-variant-ligatures:normal;font-variant-caps:normal;font-variant-numeric:normal;font-feature-settings:normal;text-align:start;letter-spacing:0px;word-spacing:0px;writing-mode:lr-tb;text-anchor:start;fill:url(#linearGradient1983);fill-opacity:1;stroke:none;stroke-width:4.18760586"
   d="M 60.369141 8.3398438 C 52.840252 8.3398438 46.280389 10.921318 40.6875 16.083984 C 35.202167 21.139095 32.458984 27.753512 32.458984 35.927734 C 32.458984 40.344589 33.39404 44.364722 35.236328 48 L 58.642578 48 C 55.834495 45.978584 53.546081 44.050055 51.818359 42.220703 C 48.161471 38.348703 46.333984 34.261206 46.333984 29.958984 C 46.333984 25.549207 47.892608 21.944882 51.011719 19.148438 C 54.13083 16.351993 58.165726 14.955078 63.113281 14.955078 C 69.566614 14.955078 75.427044 17.213136 80.697266 21.730469 C 86.075043 26.247802 90.055385 33.238236 92.636719 42.703125 L 96.669922 42.703125 L 93.121094 8.3398438 L 89.732422 8.3398438 C 89.087089 11.996733 87.366757 13.826172 84.570312 13.826172 C 83.494757 13.826172 80.321003 12.910476 75.050781 11.082031 C 69.780559 9.2535869 64.886474 8.3398438 60.369141 8.3398438 z M 65.574219 72 C 65.613917 72.021967 65.653661 72.044445 65.693359 72.066406 C 70.74847 74.862851 75.052229 78.250913 78.601562 82.230469 C 82.150896 86.102469 83.923828 90.565983 83.923828 95.621094 C 83.923828 100.99887 82.096342 105.40978 78.439453 108.85156 C 74.782564 112.18578 69.995633 113.85156 64.080078 113.85156 C 56.873856 113.85156 50.635456 111.53895 45.365234 106.91406 C 40.095012 102.28917 35.471743 95.08443 31.492188 85.296875 L 27.78125 85.296875 L 32.621094 119.49805 L 36.169922 119.49805 C 36.277477 117.99227 36.760649 116.75511 37.621094 115.78711 C 38.481538 114.71155 39.504389 114.17383 40.6875 114.17383 C 41.978167 114.17383 45.366229 115.08952 50.851562 116.91797 C 56.444451 118.74641 61.928863 119.66016 67.306641 119.66016 C 76.556418 119.66016 84.355394 116.86437 90.701172 111.27148 C 97.046949 105.57104 100.21875 98.578653 100.21875 90.296875 C 100.21875 83.628431 97.853538 77.551739 93.121094 72.066406 C 93.102335 72.044237 93.081352 72.022171 93.0625 72 L 65.574219 72 z "
   id="text3806" />
<path
   style="opacity:1;vector-effect:none;fill:url(#linearGradient2034);fill-opacity:1;stroke:none;stroke-width:1.22834647;stroke-linecap:butt;stroke-linejoin:miter;stroke-miterlimit:4;stroke-dasharray:none;stroke-dashoffset:0;stroke-opacity:1"
   d="M 60.369141 11.578125 C 53.580634 11.578125 47.945547 13.793354 42.884766 18.464844 A 3.2393206 3.2393206 0 0 1 42.882812 18.464844 C 38.037138 22.930465 35.697266 28.478161 35.697266 35.927734 C 35.697266 40.515669 36.775296 44.453659 38.939453 48 L 53.310547 48 C 51.865152 46.804852 50.573045 45.620771 49.462891 44.445312 C 45.394561 40.137668 43.095703 35.178442 43.095703 29.958984 C 43.095703 24.785997 45.09984 20.09819 48.849609 16.736328 C 52.430646 13.525743 57.121722 11.918804 62.369141 11.773438 C 61.715972 11.733491 61.000318 11.578125 60.369141 11.578125 z M 90.490234 14.404297 C 90.419248 14.485926 90.391044 14.594491 90.316406 14.673828 C 88.8562 16.225971 86.674854 17.064453 84.570312 17.064453 C 83.113339 17.064453 82.166403 16.736367 80.486328 16.251953 C 79.210741 15.884165 77.390727 15.271034 75.552734 14.650391 C 78.08378 15.854919 80.531408 17.324882 82.796875 19.265625 C 86.761522 22.600863 89.883137 27.148032 92.371094 32.613281 L 90.490234 14.404297 z M 71.757812 72 C 74.189532 73.660542 76.435585 75.48365 78.490234 77.464844 A 76 40 0 0 0 90.796875 74.341797 C 90.751527 74.288578 90.713839 74.234808 90.667969 74.181641 A 3.2393206 3.2393206 0 0 1 90.648438 74.158203 C 90.04659 73.44693 89.370123 72.726172 88.648438 72 L 71.757812 72 z "
   id="path2019" />
</svg>
