<svg height="128" viewBox="0 0 33.866666 33.866668" width="128" xmlns="http://www.w3.org/2000/svg" xmlns:xlink="http://www.w3.org/1999/xlink"><linearGradient id="a" gradientUnits="userSpaceOnUse" x1="102.30765" x2="106.01008" y1="39.141762" y2="209.45338"><stop offset="0" stop-color="#99999c"/><stop offset=".5" stop-color="#9c9ca1"/><stop offset="1" stop-color="#cdcdd1"/></linearGradient><linearGradient id="b" gradientUnits="userSpaceOnUse" x1="78.61085034347" x2="120.34349451992" y1="88.85241574791" y2="111.54715161013"><stop offset="0" stop-color="#fff"/><stop offset="1" stop-color="#ccc"/></linearGradient><linearGradient id="c" gradientUnits="userSpaceOnUse" x1="88.38102" x2="130.48599" y1="1008.9966" y2="1015.6953"><stop offset="0" stop-color="#7b7b7b"/><stop offset="1" stop-color="#797979" stop-opacity="0"/></linearGradient><clipPath id="d"><path d="m41.355614 933.74432h83.943993v117.52166h-83.943993z"/></clipPath><filter id="e" color-interpolation-filters="sRGB" height="1.073732" width="1.13754" x="-.06877" y="-.036866"><feGaussianBlur stdDeviation="1.0557314"/></filter><linearGradient id="f" gradientUnits="userSpaceOnUse" x1="98.40846912202" x2="115.2552252896" y1="30.75850104895" y2="77.14050006823"><stop offset="0" stop-color="#fff" stop-opacity=".683453"/><stop offset="1" stop-color="#fff" stop-opacity="0"/></linearGradient><linearGradient id="g" gradientTransform="matrix(.58291629 0 0 .66676377 62.177025 -566.68964)" gradientUnits="userSpaceOnUse" x1="63.011921" x2="63.011921" y1="945.89801" y2="1033.1569"><stop offset="0" stop-color="#545454" stop-opacity=".988"/><stop offset="1" stop-color="#ebebeb"/></linearGradient><linearGradient id="h" gradientTransform="matrix(.48045402 0 0 .66178602 128.73476 -578.51587)" gradientUnits="userSpaceOnUse" x1="-60.535713" x2="-60.357143" y1="979.50507" y2="1009.505"><stop offset="0" stop-color="#979797"/><stop offset=".148461" stop-color="#f6f6f6"/><stop offset=".28399727" stop-color="#e2e2e2"/><stop offset=".41198727" stop-color="#dedede"/><stop offset=".41198727" stop-color="#f6f6f6"/><stop offset="1" stop-color="#6b6b6b"/></linearGradient><linearGradient id="i" gradientTransform="matrix(.480454 0 0 .58309338 128.76683 499.76645)" gradientUnits="userSpaceOnUse" x1="-61.078979" x2="-60.6413" y1="-1056.658" y2="-1010.9131"><stop offset="0" stop-color="#777"/><stop offset=".18176934" stop-color="#a8a8a8"/><stop offset=".22864534" stop-color="#cdcdcd"/><stop offset=".34561315" stop-color="#f7f7f7"/><stop offset="1" stop-color="#fff"/></linearGradient><linearGradient id="j" gradientUnits="userSpaceOnUse" x1="7.66860138505" x2="22.22499936" y1="247.17292693441" y2="291.97291297"><stop offset="0" stop-color="#eee"/><stop offset="1" stop-color="#fdfdfd"/></linearGradient><linearGradient id="k" gradientTransform="matrix(.48758173 0 0 .5781989 -9.271018 229.8323)" gradientUnits="userSpaceOnUse" x1="62.41972" x2="71.21479" y1="98.139114" y2="98.139114"><stop offset="0" stop-color="#00f"/><stop offset="1" stop-color="#00f" stop-opacity="0"/></linearGradient><g transform="translate(0 -263.13332)"><path d="m2.116667 265.38226h25.4v29.633333h-25.4z" opacity=".5" stroke="#000" stroke-linecap="round" stroke-linejoin="round" stroke-width="2.116667"/><path d="m2.116667 265.38226h25.4v29.633333h-25.4z" opacity=".5" stroke="#000" stroke-linecap="round" stroke-linejoin="round" stroke-width=".529167"/><path d="m2.116667 265.24997h25.4v29.633333h-25.4z" fill="url(#j)"/><path d="m4.734452 291.53237s9.820839.10461 7.66048-6.67684c-.863329-2.70633-4.1411036.88311-5.0033619 1.47346-.8812242.60333-2.3115043-3.37665.9206323 3.44085 1.4392857 3.03587 6.0159516.40832 7.1875996-1.327 1.217996-1.80397 3.556134-.65686 3.183457-.88978-2.873532-.41051-3.298861 4.60074 3.814525 3.63678 6.083322-.82436 15.541486 1.23991 15.541486 1.23991" fill="none" stroke="url(#k)" stroke-linecap="round" stroke-linejoin="round" stroke-width=".79375"/><g font-family="Bitstream Vera Sans" font-size="3.175" stroke-width=".264583"><text x="4.233333" xml:space="preserve" y="277.46194"><tspan font-size="1.371075" stroke-width=".264583" x="4.233333" y="277.46194">Maecenas convallis dui. Phasel </tspan></text><text x="4.23024" y="273.18091"><tspan font-size="1.354436" stroke-width=".264583" x="4.23024" y="273.18091">Lorem ipsum dolor sit</tspan></text></g></g><g transform="matrix(.28584856 0 0 .28584856 -2.786162 -2.72195)"><path d="m68.985809 46.546616h59.01239v81.453445h-59.01239z" fill="url(#a)"/><path d="m76.390663 53.951469h44.429123v66.643677h-44.429123z" fill="url(#b)"/><path clip-path="url(#d)" d="m92.81509 1029.6319c1.071428 1.4286 10.71429 15.3572 11.78571 13.5715 1.07143-1.7858 26.42857-25.3572 25-26.7858-1.42857-1.4285-33.928567-41.78567-33.928567-41.78567z" fill="url(#c)" fill-rule="evenodd" filter="url(#e)" opacity=".68" transform="matrix(.69309305 0 0 .69309305 41.153912 -600.6251)"/><path d="m72 48v48c14.790777-17.220934 34.04067-23.231931 48-25.4375v-22.5625z" fill="url(#f)" fill-rule="evenodd" transform="matrix(.92560668 0 0 .92560668 9.746984 9.522348)"/><path d="m83.795517 65.058746h29.619415v48.131542h-29.619415z" fill="url(#g)"/><path d="m87.497948 68.761177h22.214558v40.726692h-22.214558z" fill="#535353"/><path d="m91.200371 72.4636h14.809708v14.809709h-14.809708z" fill="url(#h)"/><path d="m91.200371-116.89272h14.809715v29.619408h-14.809715z" fill="url(#i)" transform="scale(1 -1)"/></g></svg>