<?xml version="1.0" encoding="UTF-8" standalone="no"?>
<!-- Created with Inkscape (http://www.inkscape.org/) -->

<svg
   xmlns:dc="http://purl.org/dc/elements/1.1/"
   xmlns:cc="http://creativecommons.org/ns#"
   xmlns:rdf="http://www.w3.org/1999/02/22-rdf-syntax-ns#"
   xmlns:svg="http://www.w3.org/2000/svg"
   xmlns="http://www.w3.org/2000/svg"
   xmlns:xlink="http://www.w3.org/1999/xlink"
   xmlns:sodipodi="http://sodipodi.sourceforge.net/DTD/sodipodi-0.dtd"
   xmlns:inkscape="http://www.inkscape.org/namespaces/inkscape"
   version="1.1"
   id="svg2"
   width="128"
   height="128"
   viewBox="0 0 128 128"
   sodipodi:docname="sc_symbolshapes.puzzle.svg"
   inkscape:export-filename="/home/rizmut/Dokumen/Rizmut/Github/libreoffice-style-karasa-jaga/build/images_karasa_jaga/cmd/sc_symbolshapes.puzzle.png"
   inkscape:export-xdpi="12"
   inkscape:export-ydpi="12"
   inkscape:version="0.92.3 (unknown)">
  <metadata
     id="metadata8">
    <rdf:RDF>
      <cc:Work
         rdf:about="">
        <dc:format>image/svg+xml</dc:format>
        <dc:type
           rdf:resource="http://purl.org/dc/dcmitype/StillImage" />
        <dc:title></dc:title>
      </cc:Work>
    </rdf:RDF>
  </metadata>
  <defs
     id="defs6">
    <linearGradient
       id="linearGradient3369">
      <stop
         id="stop3372"
         offset="0"
         style="stop-color:#ffffff;stop-opacity:1;" />
      <stop
         style="stop-color:#ffffff;stop-opacity:1;"
         offset="0.59375"
         id="stop3374" />
      <stop
         style="stop-color:#f1f1f1;stop-opacity:1;"
         offset="0.84375"
         id="stop3376" />
      <stop
         id="stop3378"
         offset="0.90625"
         style="stop-color:#eaeaea;stop-opacity:1;" />
      <stop
         id="stop3384"
         offset="1"
         style="stop-color:#dfdfdf;stop-opacity:1;" />
    </linearGradient>
    <linearGradient
       id="linearGradient7422">
      <stop
         style="stop-color:#7c9fcf;stop-opacity:1"
         offset="0"
         id="stop7424" />
      <stop
         id="stop5348"
         offset="0.5"
         style="stop-color:#7c9ece;stop-opacity:1" />
      <stop
         id="stop7426"
         offset="1"
         style="stop-color:#7b9dcf;stop-opacity:1" />
    </linearGradient>
    <linearGradient
       inkscape:collect="always"
       xlink:href="#linearGradient3369"
       id="linearGradient1610"
       x1="64"
       y1="128"
       x2="64"
       y2="0"
       gradientUnits="userSpaceOnUse" />
    <linearGradient
       inkscape:collect="always"
       xlink:href="#linearGradient7422"
       id="linearGradient1622"
       x1="0.20703125"
       y1="64.01252"
       x2="127.79297"
       y2="64.01252"
       gradientUnits="userSpaceOnUse" />
  </defs>
  <sodipodi:namedview
     pagecolor="#ffffff"
     bordercolor="#666666"
     borderopacity="1"
     objecttolerance="10"
     gridtolerance="10"
     guidetolerance="10"
     inkscape:pageopacity="0"
     inkscape:pageshadow="2"
     inkscape:window-width="1366"
     inkscape:window-height="706"
     id="namedview4"
     showgrid="true"
     inkscape:snap-page="true"
     inkscape:snap-global="false"
     inkscape:zoom="1.8625617"
     inkscape:cx="130.54135"
     inkscape:cy="94.962807"
     inkscape:window-x="0"
     inkscape:window-y="0"
     inkscape:window-maximized="1"
     inkscape:current-layer="svg2"
     inkscape:snap-smooth-nodes="true"
     showguides="false"
     inkscape:guide-bbox="true">
    <inkscape:grid
       type="xygrid"
       id="grid27"
       spacingx="8"
       spacingy="8"
       empspacing="2" />
    <sodipodi:guide
       position="51.972346,56"
       orientation="0,1"
       id="guide841"
       inkscape:locked="false" />
  </sodipodi:namedview>
  <g
     id="g1645">
    <path
       d="m 54.507812,6.2675781 a 7.4216119,7.4216119 0 0 0 -0.376953,0.00391 C 43.49693,6.6677208 35.353891,7.9137775 25.667969,9.8417969 A 7.4216119,7.4216119 0 0 0 19.9375,18.996094 c 1.841117,7.039249 3.095146,15.369722 4.03125,23.697265 C 21.543909,42.230816 19.16531,41.758365 16.701172,41.320312 8.0346884,39.77966 0.20703125,45.792738 0.20703125,54.441406 v 19.013672 c 0,4.421915 2.00442175,7.747733 4.96874995,10.257813 2.9643283,2.510079 7.7467418,4.096706 12.4257808,2.644531 2.136284,-0.663011 4.380801,-1.094654 6.554688,-1.675781 -0.92973,8.43936 -2.217127,16.688439 -4.21875,24.291019 a 7.4216119,7.4216119 0 0 0 5.710938,9.16406 c 9.568918,1.92778 17.858899,3.18169 28.347656,3.61523 a 7.4216119,7.4216119 0 0 0 7.496094,-5.57226 c 2.605913,-10.17638 -0.117275,-20.365565 -2.041016,-27.699221 0.586994,-0.146283 1.249425,-0.400391 1.472656,-0.400391 h 6.244141 c 0.257926,0 0.859204,0.195158 1.33789,0.265625 -3.270669,11.090661 -1.632112,21.091637 0.07031,27.148437 a 7.4216119,7.4216119 0 0 0 7.457031,5.40625 c 11.111315,-0.46743 16.816465,-1.12586 27.126957,-3.37109 a 7.4216119,7.4216119 0 0 0 5.60937,-9.09766 c -1.87519,-7.29621 -3.09911,-15.171623 -3.99609,-23.222656 1.99425,0.394398 4.51243,0.82014 5.72461,1.177735 4.64716,1.370917 9.35858,-0.188852 12.32031,-2.685547 2.96173,-2.496695 4.97461,-5.837667 4.97461,-10.246094 V 54.441406 c 0,-4.461935 -1.98639,-7.744388 -4.95703,-10.289062 -2.97065,-2.544675 -7.95256,-4.202689 -12.70899,-2.523438 -1.17035,0.413193 -3.26473,0.879059 -5.26367,1.337891 0.91498,-8.204383 2.13302,-16.397597 3.92578,-23.347656 A 7.4216119,7.4216119 0 0 0 103.1875,10.515625 C 93.068973,8.3062151 87.310902,6.7615589 75.634766,6.2988281 a 7.4216119,7.4216119 0 0 0 -7.472657,5.5371099 c -1.591778,6.084822 -3.334665,17.16299 0.01758,28.330078 -0.133852,0.02162 -0.405069,0.128906 -0.47461,0.128906 h -6.246094 c -0.364272,0 -1.659614,-0.3741 -2.773437,-0.667969 0.731465,-3.140557 1.510637,-6.285658 2.197265,-10.277344 0.959104,-5.575707 1.733639,-11.260212 0.853516,-16.822265 A 7.4216119,7.4216119 0 0 0 54.507812,6.2675781 Z"
       id="path1612"
       style="opacity:1;fill:url(#linearGradient1622);fill-opacity:1.0;stroke:none;stroke-width:3.47283912;stroke-linecap:square;stroke-linejoin:bevel;stroke-miterlimit:4;stroke-dasharray:none;stroke-dashoffset:0;stroke-opacity:0.72941176"
       inkscape:original="M 54.40625 13.6875 C 44.195558 14.067966 36.63225 15.225132 27.117188 17.119141 C 29.844012 27.544765 31.635416 40.183019 32.412109 51.841797 C 26.732267 50.76797 21.091611 49.63834 15.402344 48.626953 C 11.161058 47.872974 7.6269531 51.219695 7.6269531 54.441406 L 7.6269531 73.455078 C 7.6269531 76.67679 11.28815 80.546402 15.402344 79.269531 C 21.004678 77.530807 26.735648 76.053361 32.615234 74.869141 C 31.928408 87.449929 30.062572 99.659309 27.113281 110.86133 C 36.489158 112.75022 44.231104 113.92159 54.302734 114.33789 C 56.495338 105.77553 53.075568 94.164669 51.283203 86.488281 C 50.549028 83.343943 56.772375 80.660156 60.923828 80.660156 L 67.167969 80.660156 C 71.319425 80.660156 78.662332 82.735315 77.345703 85.683594 C 72.35747 96.85354 73.996082 107.35056 75.720703 113.48633 C 86.675359 113.02549 91.500392 112.4747 101.58203 110.2793 C 98.821191 99.537094 97.048685 87.893264 96.349609 75.900391 C 100.60396 76.847069 108.16246 77.961138 112.59766 79.269531 C 116.72942 80.488404 120.37305 76.67679 120.37305 73.455078 L 120.37305 54.441406 C 120.37305 51.219695 116.65973 47.192844 112.59766 48.626953 C 108.1367 50.201893 100.60113 51.473095 96.404297 52.505859 C 97.149498 40.853717 98.909696 28.20885 101.60352 17.765625 C 91.345484 15.525753 86.497329 14.156943 75.341797 13.714844 C 73.896554 19.239511 72.322583 32.081563 76.759766 42.017578 C 78.076396 44.965858 71.856534 47.714844 67.705078 47.714844 L 61.458984 47.714844 C 57.307531 47.714844 49.851763 45.161915 50.585938 42.017578 C 52.232565 34.965359 55.62293 21.37647 54.40625 13.6875 z "
       inkscape:radius="7.4208698"
       sodipodi:type="inkscape:offset" />
    <path
       sodipodi:nodetypes="cccsssscccsssscccsssscccssssc"
       id="path2943"
       d="m 54.406701,13.686715 c -10.210692,0.380466 -17.774989,1.537603 -27.290052,3.431612 2.726824,10.425624 4.519104,23.06549 5.295797,34.724268 -5.679842,-1.073827 -11.321411,-2.205126 -17.010678,-3.216513 -4.241286,-0.753979 -7.7753969,2.593904 -7.7753969,5.815615 v 19.012416 c 0,3.221712 3.6612029,7.092487 7.7753969,5.815616 5.602334,-1.738724 11.334239,-3.217324 17.213825,-4.401544 -0.686826,12.580788 -2.553635,24.791056 -5.502926,35.993075 9.375877,1.88889 17.117782,3.06112 27.189412,3.47742 2.192604,-8.56236 -1.226975,-20.173998 -3.01934,-27.850386 -0.734175,-3.144338 5.488711,-5.827566 9.640164,-5.827566 h 6.24581 c 4.151456,0 11.493689,2.073945 10.17706,5.022224 -4.988233,11.169946 -3.349807,21.666808 -1.625186,27.802578 10.954656,-0.46084 15.779314,-1.01043 25.860953,-3.20583 -2.76084,-10.742203 -4.53298,-22.386967 -5.232056,-34.37984 4.254346,0.946678 11.813536,2.061476 16.248736,3.369869 4.13176,1.218873 7.77541,-2.593904 7.77541,-5.815616 V 54.441697 c 0,-3.221711 -3.71334,-7.249724 -7.77541,-5.815615 -4.46096,1.57494 -11.99614,2.846968 -16.192971,3.879732 C 97.15045,40.853672 98.90964,28.208838 101.60346,17.765613 91.345428,15.525741 86.497319,14.156696 75.341787,13.714597 c -1.445243,5.524667 -3.020044,18.367245 1.417139,28.30326 1.31663,2.94828 -4.901862,5.697506 -9.053318,5.697506 h -6.24581 c -4.151453,0 -11.608348,-2.553169 -10.874173,-5.697506 1.646627,-7.052219 5.037756,-20.642172 3.821076,-28.331142 z"
       style="opacity:1;fill:url(#linearGradient1610);fill-opacity:1;stroke:none;stroke-width:3.47283912;stroke-linecap:square;stroke-linejoin:bevel;stroke-miterlimit:4;stroke-dasharray:none;stroke-dashoffset:0;stroke-opacity:0.72941176"
       inkscape:connector-curvature="0" />
  </g>
</svg>
