<?xml version="1.0" encoding="UTF-8" standalone="no"?>
<svg
   xmlns:dc="http://purl.org/dc/elements/1.1/"
   xmlns:cc="http://creativecommons.org/ns#"
   xmlns:rdf="http://www.w3.org/1999/02/22-rdf-syntax-ns#"
   xmlns:svg="http://www.w3.org/2000/svg"
   xmlns="http://www.w3.org/2000/svg"
   xmlns:xlink="http://www.w3.org/1999/xlink"
   xmlns:sodipodi="http://sodipodi.sourceforge.net/DTD/sodipodi-0.dtd"
   xmlns:inkscape="http://www.inkscape.org/namespaces/inkscape"
   height="128"
   width="128"
   version="1.1"
   id="svg207"
   sodipodi:docname="sc_titlepagedialog.svg"
   inkscape:version="0.92.3 (unknown)"
   inkscape:export-filename="/home/rizmut/Dokumen/Rizmut/Github/libreoffice-style-karasa-jaga/build/images_karasa_jaga/cmd/sc_titlepagedialog.png"
   inkscape:export-xdpi="12"
   inkscape:export-ydpi="12">
  <metadata
     id="metadata213">
    <rdf:RDF>
      <cc:Work
         rdf:about="">
        <dc:format>image/svg+xml</dc:format>
        <dc:type
           rdf:resource="http://purl.org/dc/dcmitype/StillImage" />
        <dc:title></dc:title>
      </cc:Work>
    </rdf:RDF>
  </metadata>
  <defs
     id="defs211">
    <linearGradient
       id="linearGradient4882">
      <stop
         id="stop4884"
         offset="0"
         style="stop-color:#0968ef;stop-opacity:1;" />
      <stop
         id="stop4886"
         offset="1"
         style="stop-color:#aecffc;stop-opacity:1;" />
    </linearGradient>
    <linearGradient
       inkscape:collect="always"
       xlink:href="#linearGradient4882"
       id="linearGradient4338"
       x1="72"
       y1="112"
       x2="72"
       y2="16"
       gradientUnits="userSpaceOnUse" />
  </defs>
  <sodipodi:namedview
     pagecolor="#ffffff"
     bordercolor="#666666"
     borderopacity="1"
     objecttolerance="10"
     gridtolerance="10"
     guidetolerance="10"
     inkscape:pageopacity="0"
     inkscape:pageshadow="2"
     inkscape:window-width="1366"
     inkscape:window-height="706"
     id="namedview209"
     showgrid="true"
     inkscape:zoom="5.2149125"
     inkscape:cx="73.575484"
     inkscape:cy="67.813066"
     inkscape:window-x="0"
     inkscape:window-y="0"
     inkscape:window-maximized="1"
     inkscape:current-layer="svg207">
    <inkscape:grid
       type="xygrid"
       id="grid4608"
       spacingx="4"
       spacingy="4"
       empspacing="2" />
  </sodipodi:namedview>
  <filter
     id="a">
    <feGaussianBlur
       stdDeviation="1.0394514"
       id="feGaussianBlur110" />
  </filter>
  <filter
     id="b">
    <feGaussianBlur
       stdDeviation=".50063244"
       id="feGaussianBlur113" />
  </filter>
  <radialGradient
     id="c"
     cx="102.000002"
     cy="112.304695"
     gradientUnits="userSpaceOnUse"
     r="139.5585">
    <stop
       offset="0"
       stop-color="#00537d"
       id="stop116" />
    <stop
       offset=".0151"
       stop-color="#186389"
       id="stop118" />
    <stop
       offset=".0558"
       stop-color="#558ca8"
       id="stop120" />
    <stop
       offset=".0964"
       stop-color="#89afc3"
       id="stop122" />
    <stop
       offset=".1357"
       stop-color="#b3ccd8"
       id="stop124" />
    <stop
       offset=".1737"
       stop-color="#d4e2e9"
       id="stop126" />
    <stop
       offset=".2099"
       stop-color="#ecf2f5"
       id="stop128" />
    <stop
       offset=".2435"
       stop-color="#fafcfd"
       id="stop130" />
    <stop
       offset=".2722"
       stop-color="#fff"
       id="stop132" />
  </radialGradient>
  <radialGradient
     id="d"
     cx="102"
     cy="112.3047"
     gradientTransform="matrix(.9787234 0 0 .9818182 1.361704 1.163632)"
     gradientUnits="userSpaceOnUse"
     r="139.55859">
    <stop
       offset="0"
       stop-color="#535557"
       id="stop135" />
    <stop
       offset=".11366145"
       stop-color="#898a8c"
       id="stop137" />
    <stop
       offset=".20296688"
       stop-color="#ececec"
       id="stop139" />
    <stop
       offset=".2363"
       stop-color="#fafafa"
       id="stop141" />
    <stop
       offset=".2722"
       stop-color="#fff"
       id="stop143" />
    <stop
       offset=".5313"
       stop-color="#fafafa"
       id="stop145" />
    <stop
       offset=".8449"
       stop-color="#ebecec"
       id="stop147" />
    <stop
       offset="1"
       stop-color="#e1e2e3"
       id="stop149" />
  </radialGradient>
  <filter
     id="e"
     height="1.247155"
     width="1.247155"
     x="-.123577"
     y="-.123577">
    <feGaussianBlur
       stdDeviation="1.7720846"
       id="feGaussianBlur152" />
  </filter>
  <filter
     id="f">
    <feGaussianBlur
       stdDeviation=".90565481"
       id="feGaussianBlur155" />
  </filter>
  <linearGradient
     id="g"
     gradientUnits="userSpaceOnUse"
     x1="85.219681"
     x2="61.336319"
     y1="93.219681"
     y2="69.336319">
    <stop
       offset="0"
       id="stop158" />
    <stop
       offset="1"
       stop-color="#393b38"
       id="stop160" />
  </linearGradient>
  <filter
     id="h">
    <feGaussianBlur
       stdDeviation=".4901192"
       id="feGaussianBlur163" />
  </filter>
  <linearGradient
     id="i"
     gradientUnits="userSpaceOnUse"
     x1="96"
     x2="88.000198"
     y1="104"
     y2="96.000198">
    <stop
       offset="0"
       stop-color="#888a85"
       id="stop166" />
    <stop
       offset=".0072"
       stop-color="#8c8e89"
       id="stop168" />
    <stop
       offset=".0673"
       stop-color="#abaca9"
       id="stop170" />
    <stop
       offset=".1347"
       stop-color="#c5c6c4"
       id="stop172" />
    <stop
       offset=".2115"
       stop-color="#dbdbda"
       id="stop174" />
    <stop
       offset=".3012"
       stop-color="#ebebeb"
       id="stop176" />
    <stop
       offset=".4122"
       stop-color="#f7f7f6"
       id="stop178" />
    <stop
       offset=".5679"
       stop-color="#fdfdfd"
       id="stop180" />
    <stop
       offset="1"
       stop-color="#fff"
       id="stop182" />
  </linearGradient>
  <path
     d="m23 9 .04082 112h61.13118c.53 0 1.039-.211 1.414-.586l32.828-32.828c.375-.375.586-.884.586-1.414v-77.172z"
     filter="url(#a)"
     opacity=".715069"
     transform="matrix(1.0416667 0 0 1.0357143 -9.958333 -3.321539)"
     id="path185" />
  <path
     d="m24.919999 10.931136v108.137934l58.676001-.0001c.53 0 1.039-.211 1.414-.586l31.484-31.765936c.375-.375.586-.884.586-1.414v-74.371898z"
     filter="url(#b)"
     opacity=".89589"
     transform="matrix(1.0416667 0 0 1.0357143 -9.958333 -3.321539)"
     id="path187" />
  <path
     d="m23 9.9655172.040816 111.0344828h61.131184c.53 0 1.039-.211 1.414-.586 13.296921-8.21061 24.14086-19.26784 32.828-32.828.375-.375.586-.884.586-1.414v-76.2064828z"
     filter="url(#a)"
     opacity=".835616"
     transform="matrix(1.0416667 0 0 1.0357143 -9.958333 -3.321539)"
     id="path189" />
  <path
     d="m16.000002 7.999995v112.000005h61.172c.53 0 1.039-.211 1.414-.586l32.827998-32.828005c.375-.375.586-.884.586-1.414v-77.172z"
     fill="url(#c)"
     id="path191" />
  <path
     d="m24.678725 15.999995c-.539276 0-.978723.440836-.978723.981818l.3 94.036367c0 .54197.439447.98182.978723.98182h51.913022c.257404 0 .509915-.10407.691957-.28767l26.129526-26.231135c.18303-.1836.28677-.435927.28677-.694145v-67.805237c0-.540982-.43847-.981818-.97872-.981818z"
     fill="url(#d)"
     id="path193"
     style="fill-opacity:1;fill:url(#linearGradient4338)" />
  <path
     d="m 36,40 h 56 v 8 H 36 Z"
     id="path205"
     inkscape:connector-curvature="0"
     style="fill:#ffffff;fill-opacity:1;stroke-width:0.72008228" />
  <g
     transform="translate(.000002 -.000005)"
     id="g203">
    <path
       d="m111.414 86.586c.25-.25-26.379-1.586-31.414-1.586-1.654 0-3 1.346-3 3 0 5.035 1.336 31.664 1.586 31.414z"
       filter="url(#e)"
       opacity=".906849"
       id="path195" />
    <path
       d="m111.414 86.586c.375-.375-21.97-.586-31.414-.586-1.103 0-2 .897-2 2 0 9.444.211 31.789.586 31.414z"
       filter="url(#f)"
       opacity=".2"
       id="path197" />
    <path
       d="m111.414 86.586c.239-.239-21.607.414-31.414.414-.553 0-1 .447-1 1 0 9.807-.653 31.653-.414 31.414z"
       fill="url(#g)"
       filter="url(#h)"
       opacity=".1"
       id="path199" />
    <path
       d="m78.586 119.414s11.914-9.914 17.414-15.414 15.414-17.414 15.414-17.414-21.164 1.414-31.414 1.414c0 10.25-1.414 31.414-1.414 31.414z"
       fill="url(#i)"
       id="path201" />
  </g>
  <path
     style="fill:#ffffff;fill-opacity:1;stroke-width:0.62099421"
     inkscape:connector-curvature="0"
     id="path4340"
     d="m 44,56 h 40 v 8 H 44 Z"
     sodipodi:nodetypes="ccccc" />
</svg>
