<?xml version="1.0" encoding="UTF-8" standalone="no"?>
<svg
   xmlns:dc="http://purl.org/dc/elements/1.1/"
   xmlns:cc="http://creativecommons.org/ns#"
   xmlns:rdf="http://www.w3.org/1999/02/22-rdf-syntax-ns#"
   xmlns:svg="http://www.w3.org/2000/svg"
   xmlns="http://www.w3.org/2000/svg"
   xmlns:xlink="http://www.w3.org/1999/xlink"
   xmlns:sodipodi="http://sodipodi.sourceforge.net/DTD/sodipodi-0.dtd"
   xmlns:inkscape="http://www.inkscape.org/namespaces/inkscape"
   enable-background="new 0 0 128 128"
   height="128"
   viewBox="0 0 128 128"
   width="128"
   version="1.1"
   id="svg2921"
   sodipodi:docname="sc_templatemanager.svg"
   inkscape:version="0.92.3 (unknown)"
   inkscape:export-filename="/home/rizmut/Dokumen/Rizmut/Github/libreoffice-style-karasa-jaga/build/images_karasa_jaga/cmd/sc_templatemanager.png"
   inkscape:export-xdpi="12"
   inkscape:export-ydpi="12">
  <metadata
     id="metadata2927">
    <rdf:RDF>
      <cc:Work
         rdf:about="">
        <dc:format>image/svg+xml</dc:format>
        <dc:type
           rdf:resource="http://purl.org/dc/dcmitype/StillImage" />
        <dc:title></dc:title>
      </cc:Work>
    </rdf:RDF>
  </metadata>
  <defs
     id="defs2925">
    <linearGradient
       y2="29.9995"
       x2="126"
       y1="35.96188"
       x1="126"
       gradientTransform="matrix(-5.8654441e-8,0.99999991,-1.3418571,-4.371139e-8,64.357998,-62.0005)"
       gradientUnits="userSpaceOnUse"
       id="linearGradient3174-3"
       xlink:href="#linearGradient6060-8-8"
       inkscape:collect="always" />
    <linearGradient
       id="linearGradient6060-8-8"
       gradientUnits="userSpaceOnUse"
       x1="126"
       y1="41.9995"
       x2="126"
       y2="29.9995"
       gradientTransform="rotate(90.000003,56.000248,-14.000251)">
      <stop
         offset="0"
         style="stop-color:#A58B5A"
         id="stop6064-7-7" />
      <stop
         offset="0.5444"
         style="stop-color:#C5AB6D"
         id="stop6066-1-0" />
    </linearGradient>
    <linearGradient
       inkscape:collect="always"
       xlink:href="#XMLID_11_"
       id="linearGradient5371"
       gradientUnits="userSpaceOnUse"
       gradientTransform="matrix(0.28796703,0,0,0.47994431,-8.497319,38.078836)"
       x1="236.89662"
       y1="77.834541"
       x2="201.32726"
       y2="-106.94308" />
    <linearGradient
       gradientTransform="matrix(-3.4726201,0,0,-3.472625,1191.8584,127.95525)"
       y2="2.3497"
       x2="141.0177"
       y1="50"
       x1="188.668"
       gradientUnits="userSpaceOnUse"
       id="XMLID_11_">
      <stop
         id="stop10725"
         style="stop-color:#7fa7d9;stop-opacity:1;"
         offset="0" />
      <stop
         id="stop10727"
         style="stop-color:#2c72c7;stop-opacity:1;"
         offset="0.5" />
      <stop
         id="stop10729"
         style="stop-color:#002a59;stop-opacity:1;"
         offset="1" />
    </linearGradient>
  </defs>
  <sodipodi:namedview
     pagecolor="#ffffff"
     bordercolor="#666666"
     borderopacity="1"
     objecttolerance="10"
     gridtolerance="10"
     guidetolerance="10"
     inkscape:pageopacity="0"
     inkscape:pageshadow="2"
     inkscape:window-width="1366"
     inkscape:window-height="706"
     id="namedview2923"
     showgrid="false"
     inkscape:zoom="1.84375"
     inkscape:cx="-115.25424"
     inkscape:cy="64"
     inkscape:window-x="0"
     inkscape:window-y="0"
     inkscape:window-maximized="1"
     inkscape:current-layer="svg2921" />
  <linearGradient
     id="a"
     gradientUnits="userSpaceOnUse"
     x1="85.219681"
     x2="61.336319"
     y1="93.219681"
     y2="69.336319">
    <stop
       offset="0"
       id="stop2826" />
    <stop
       offset="1"
       stop-color="#393b38"
       id="stop2828" />
  </linearGradient>
  <linearGradient
     id="b"
     gradientUnits="userSpaceOnUse"
     x1="96"
     x2="88.0002"
     y1="104"
     y2="96.0002">
    <stop
       offset="0"
       stop-color="#888a85"
       id="stop2831" />
    <stop
       offset=".0072"
       stop-color="#8c8e89"
       id="stop2833" />
    <stop
       offset=".0673"
       stop-color="#abaca9"
       id="stop2835" />
    <stop
       offset=".1347"
       stop-color="#c5c6c4"
       id="stop2837" />
    <stop
       offset=".2115"
       stop-color="#dbdbda"
       id="stop2839" />
    <stop
       offset=".3012"
       stop-color="#ebebeb"
       id="stop2841" />
    <stop
       offset=".4122"
       stop-color="#f7f7f6"
       id="stop2843" />
    <stop
       offset=".5679"
       stop-color="#fdfdfd"
       id="stop2845" />
    <stop
       offset="1"
       stop-color="#fff"
       id="stop2847" />
  </linearGradient>
  <radialGradient
     id="c"
     cx="102"
     cy="112.3047"
     gradientTransform="matrix(.9787234 0 0 .9818182 1.361705 1.163636)"
     gradientUnits="userSpaceOnUse"
     r="139.55859">
    <stop
       offset="0"
       stop-color="#535557"
       id="stop2850" />
    <stop
       offset=".11366145"
       stop-color="#898a8c"
       id="stop2852" />
    <stop
       offset=".20296688"
       stop-color="#ececec"
       id="stop2854" />
    <stop
       offset=".2363"
       stop-color="#fafafa"
       id="stop2856" />
    <stop
       offset=".2722"
       stop-color="#fff"
       id="stop2858" />
    <stop
       offset=".5313"
       stop-color="#fafafa"
       id="stop2860" />
    <stop
       offset=".8449"
       stop-color="#ebecec"
       id="stop2862" />
    <stop
       offset="1"
       stop-color="#e1e2e3"
       id="stop2864" />
  </radialGradient>
  <radialGradient
     id="d"
     cx="102.000002"
     cy="112.3047"
     gradientUnits="userSpaceOnUse"
     r="139.5585">
    <stop
       offset="0"
       stop-color="#00537d"
       id="stop2867" />
    <stop
       offset=".0151"
       stop-color="#186389"
       id="stop2869" />
    <stop
       offset=".0558"
       stop-color="#558ca8"
       id="stop2871" />
    <stop
       offset=".0964"
       stop-color="#89afc3"
       id="stop2873" />
    <stop
       offset=".1357"
       stop-color="#b3ccd8"
       id="stop2875" />
    <stop
       offset=".1737"
       stop-color="#d4e2e9"
       id="stop2877" />
    <stop
       offset=".2099"
       stop-color="#ecf2f5"
       id="stop2879" />
    <stop
       offset=".2435"
       stop-color="#fafcfd"
       id="stop2881" />
    <stop
       offset=".2722"
       stop-color="#fff"
       id="stop2883" />
  </radialGradient>
  <filter
     id="e">
    <feGaussianBlur
       stdDeviation="1.0394514"
       id="feGaussianBlur2886" />
  </filter>
  <filter
     id="f">
    <feGaussianBlur
       stdDeviation=".50063244"
       id="feGaussianBlur2889" />
  </filter>
  <filter
     id="g">
    <feGaussianBlur
       stdDeviation=".4901192"
       id="feGaussianBlur2892" />
  </filter>
  <filter
     id="h">
    <feGaussianBlur
       stdDeviation=".90565481"
       id="feGaussianBlur2895" />
  </filter>
  <filter
     id="i"
     height="1.247155"
     width="1.247155"
     x="-.123577"
     y="-.123577">
    <feGaussianBlur
       stdDeviation="1.7720846"
       id="feGaussianBlur2898" />
  </filter>
  <g
     id="g3482">
    <path
       id="path2901"
       transform="matrix(1.0416667 0 0 1.0357143 -9.958333 -3.321534)"
       opacity=".715069"
       filter="url(#e)"
       d="m23 9 .040816 112h61.131184c.53 0 1.039-.211 1.414-.586l32.828-32.828c.375-.375.586-.884.586-1.414v-77.172z" />
    <path
       id="path2903"
       transform="matrix(1.0416667 0 0 1.0357143 -9.958333 -3.321534)"
       opacity=".89589"
       filter="url(#f)"
       d="m24.919999 10.931136v108.137934l58.676001-.0001c.53 0 1.039-.211 1.414-.586l31.484-31.765936c.375-.375.586-.884.586-1.414v-74.371898z" />
    <path
       id="path2905"
       transform="matrix(1.0416667 0 0 1.0357143 -9.958333 -3.321534)"
       opacity=".835616"
       filter="url(#e)"
       d="m23 9.9655172.040816 111.0344828h61.131184c.53 0 1.039-.211 1.414-.586 13.296921-8.21061 24.14086-19.26784 32.828-32.828.375-.375.586-.884.586-1.414v-76.2064828z" />
    <path
       id="path2907"
       fill="url(#d)"
       d="m16.000002 8v112h61.172c.53 0 1.039-.211 1.414-.586l32.827998-32.828c.375-.375.586-.884.586-1.414v-77.172z" />
    <path
       id="path2909"
       fill="url(#c)"
       d="m24.678725 16c-.539276 0-.978723.440836-.978723.981818l.3 94.036362c0 .54197.439447.98182.978723.98182h51.913022c.257404 0 .509915-.10407.691957-.28767l26.129526-26.23113c.18303-.1836.28677-.435927.28677-.694145v-67.805237c0-.540982-.43847-.981818-.97872-.981818z" />
    <g
       id="g2919"
       transform="translate(.000002)">
      <path
         id="path2911"
         opacity=".906849"
         filter="url(#i)"
         d="m111.414 86.586c.25-.25-26.379-1.586-31.414-1.586-1.654 0-3 1.346-3 3 0 5.035 1.336 31.664 1.586 31.414z" />
      <path
         id="path2913"
         opacity=".2"
         filter="url(#h)"
         d="m111.414 86.586c.375-.375-21.97-.586-31.414-.586-1.103 0-2 .897-2 2 0 9.444.211 31.789.586 31.414z" />
      <path
         id="path2915"
         opacity=".1"
         filter="url(#g)"
         fill="url(#a)"
         d="m111.414 86.586c.239-.239-21.607.414-31.414.414-.553 0-1 .447-1 1 0 9.807-.653 31.653-.414 31.414z" />
      <path
         id="path2917"
         fill="url(#b)"
         d="m78.586 119.414s11.914-9.914 17.414-15.414 15.414-17.414 15.414-17.414-21.164 1.414-31.414 1.414c0 10.25-1.414 31.414-1.414 31.414z" />
    </g>
    <g
       id="g2166"
       transform="translate(8)">
      <rect
         y="8"
         x="8.1022911"
         height="32"
         width="96"
         id="rect6654"
         style="fill:url(#linearGradient5371);fill-opacity:1;stroke:none;stroke-width:0.30784947" />
      <rect
         style="opacity:0.38053098;fill:#2d2d2d;fill-opacity:0.33155081;stroke:none"
         id="rect3841"
         width="8"
         height="8"
         x="16.102287"
         y="112" />
      <rect
         id="rect4046"
         height="112"
         width="16.102285"
         style="fill:url(#linearGradient3174-3);fill-opacity:1"
         x="8"
         y="8" />
      <rect
         style="opacity:0.89380535;fill:#fff492;fill-opacity:0.8930481;stroke:none"
         id="rect3136"
         width="16"
         height="8"
         x="8.1022873"
         y="8" />
      <rect
         style="opacity:0.51769912;fill:#000000;fill-opacity:0.48663103;stroke:none"
         id="rect3906"
         width="8"
         height="112"
         x="24.102287"
         y="8" />
      <rect
         y="16"
         x="8.1022873"
         height="104"
         width="8"
         id="rect3908"
         style="opacity:0.89380535;fill:#fff6b3;fill-opacity:0.79144383;stroke:none" />
    </g>
  </g>
</svg>
