<?xml version="1.0" encoding="UTF-8" standalone="no"?>
<svg
   xmlns:dc="http://purl.org/dc/elements/1.1/"
   xmlns:cc="http://creativecommons.org/ns#"
   xmlns:rdf="http://www.w3.org/1999/02/22-rdf-syntax-ns#"
   xmlns:svg="http://www.w3.org/2000/svg"
   xmlns="http://www.w3.org/2000/svg"
   xmlns:sodipodi="http://sodipodi.sourceforge.net/DTD/sodipodi-0.dtd"
   xmlns:inkscape="http://www.inkscape.org/namespaces/inkscape"
   height="128"
   width="128"
   version="1.1"
   id="svg106"
   sodipodi:docname="sc_vruler.svg"
   inkscape:version="0.92.3 (unknown)"
   inkscape:export-filename="/home/rizmut/Dokumen/Rizmut/Github/libreoffice-style-karasa-jaga/build/images_karasa_jaga/cmd/sc_vruler.png"
   inkscape:export-xdpi="12"
   inkscape:export-ydpi="12">
  <metadata
     id="metadata112">
    <rdf:RDF>
      <cc:Work
         rdf:about="">
        <dc:format>image/svg+xml</dc:format>
        <dc:type
           rdf:resource="http://purl.org/dc/dcmitype/StillImage" />
        <dc:title></dc:title>
      </cc:Work>
    </rdf:RDF>
  </metadata>
  <defs
     id="defs110" />
  <sodipodi:namedview
     pagecolor="#ffffff"
     bordercolor="#666666"
     borderopacity="1"
     objecttolerance="10"
     gridtolerance="10"
     guidetolerance="10"
     inkscape:pageopacity="0"
     inkscape:pageshadow="2"
     inkscape:window-width="1366"
     inkscape:window-height="657"
     id="namedview108"
     showgrid="true"
     inkscape:zoom="1.3037281"
     inkscape:cx="198.75493"
     inkscape:cy="99.424706"
     inkscape:window-x="0"
     inkscape:window-y="30"
     inkscape:window-maximized="1"
     inkscape:current-layer="svg106">
    <inkscape:grid
       type="xygrid"
       id="grid919"
       spacingx="8"
       spacingy="8"
       empspacing="1" />
  </sodipodi:namedview>
  <radialGradient
     id="a"
     cx="64"
     cy="44.604801"
     gradientTransform="matrix(0.9555659,0,0,0.6666666,2.843783,10.263469)"
     gradientUnits="userSpaceOnUse"
     r="60">
    <stop
       offset="0"
       stop-color="#75511a"
       id="stop2" />
    <stop
       offset="1"
       stop-color="#382509"
       id="stop4" />
  </radialGradient>
  <filter
     id="b">
    <feGaussianBlur
       stdDeviation="1.0394514"
       id="feGaussianBlur7" />
  </filter>
  <filter
     id="c">
    <feGaussianBlur
       stdDeviation=".50063244"
       id="feGaussianBlur10" />
  </filter>
  <radialGradient
     id="d"
     cx="102.000002"
     cy="112.304695"
     gradientUnits="userSpaceOnUse"
     r="139.5585">
    <stop
       offset="0"
       stop-color="#00537d"
       id="stop13" />
    <stop
       offset=".0151"
       stop-color="#186389"
       id="stop15" />
    <stop
       offset=".0558"
       stop-color="#558ca8"
       id="stop17" />
    <stop
       offset=".0964"
       stop-color="#89afc3"
       id="stop19" />
    <stop
       offset=".1357"
       stop-color="#b3ccd8"
       id="stop21" />
    <stop
       offset=".1737"
       stop-color="#d4e2e9"
       id="stop23" />
    <stop
       offset=".2099"
       stop-color="#ecf2f5"
       id="stop25" />
    <stop
       offset=".2435"
       stop-color="#fafcfd"
       id="stop27" />
    <stop
       offset=".2722"
       stop-color="#fff"
       id="stop29" />
  </radialGradient>
  <radialGradient
     id="e"
     cx="102"
     cy="112.3047"
     gradientTransform="matrix(.9787234 0 0 .9818182 1.361704 1.163632)"
     gradientUnits="userSpaceOnUse"
     r="139.55859">
    <stop
       offset="0"
       stop-color="#535557"
       id="stop32" />
    <stop
       offset=".11366145"
       stop-color="#898a8c"
       id="stop34" />
    <stop
       offset=".20296688"
       stop-color="#ececec"
       id="stop36" />
    <stop
       offset=".2363"
       stop-color="#fafafa"
       id="stop38" />
    <stop
       offset=".2722"
       stop-color="#fff"
       id="stop40" />
    <stop
       offset=".5313"
       stop-color="#fafafa"
       id="stop42" />
    <stop
       offset=".8449"
       stop-color="#ebecec"
       id="stop44" />
    <stop
       offset="1"
       stop-color="#e1e2e3"
       id="stop46" />
  </radialGradient>
  <filter
     id="f"
     height="1.247155"
     width="1.247155"
     x="-.123577"
     y="-.123577">
    <feGaussianBlur
       stdDeviation="1.7720846"
       id="feGaussianBlur49" />
  </filter>
  <filter
     id="g">
    <feGaussianBlur
       stdDeviation=".90565481"
       id="feGaussianBlur52" />
  </filter>
  <linearGradient
     id="h"
     gradientUnits="userSpaceOnUse"
     x1="85.219681"
     x2="61.336319"
     y1="93.219681"
     y2="69.336319">
    <stop
       offset="0"
       id="stop55" />
    <stop
       offset="1"
       stop-color="#393b38"
       id="stop57" />
  </linearGradient>
  <filter
     id="i">
    <feGaussianBlur
       stdDeviation=".4901192"
       id="feGaussianBlur60" />
  </filter>
  <linearGradient
     id="j"
     gradientUnits="userSpaceOnUse"
     x1="96"
     x2="88.000198"
     y1="104"
     y2="96.000198">
    <stop
       offset="0"
       stop-color="#888a85"
       id="stop63" />
    <stop
       offset=".0072"
       stop-color="#8c8e89"
       id="stop65" />
    <stop
       offset=".0673"
       stop-color="#abaca9"
       id="stop67" />
    <stop
       offset=".1347"
       stop-color="#c5c6c4"
       id="stop69" />
    <stop
       offset=".2115"
       stop-color="#dbdbda"
       id="stop71" />
    <stop
       offset=".3012"
       stop-color="#ebebeb"
       id="stop73" />
    <stop
       offset=".4122"
       stop-color="#f7f7f6"
       id="stop75" />
    <stop
       offset=".5679"
       stop-color="#fdfdfd"
       id="stop77" />
    <stop
       offset="1"
       stop-color="#fff"
       id="stop79" />
  </linearGradient>
  <path
     d="m23 9 .04082 112h61.13118c.53 0 1.039-.211 1.414-.586l32.828-32.828c.375-.375.586-.884.586-1.414v-77.172z"
     filter="url(#b)"
     opacity=".715069"
     transform="matrix(1.0416667 0 0 1.0357143 -9.958333 -3.321539)"
     id="path82" />
  <path
     d="m24.919999 10.931136v108.137934l58.676001-.0001c.53 0 1.039-.211 1.414-.586l31.484-31.765936c.375-.375.586-.884.586-1.414v-74.371898z"
     filter="url(#c)"
     opacity=".89589"
     transform="matrix(1.0416667 0 0 1.0357143 -9.958333 -3.321539)"
     id="path84" />
  <path
     d="m23 9.9655172.040816 111.0344828h61.131184c.53 0 1.039-.211 1.414-.586 13.296921-8.21061 24.14086-19.26784 32.828-32.828.375-.375.586-.884.586-1.414v-76.2064828z"
     filter="url(#b)"
     opacity=".835616"
     transform="matrix(1.0416667 0 0 1.0357143 -9.958333 -3.321539)"
     id="path86" />
  <path
     d="m16.000002 7.999995v112.000005h61.172c.53 0 1.039-.211 1.414-.586l32.827998-32.828005c.375-.375.586-.884.586-1.414v-77.172z"
     fill="url(#d)"
     id="path88" />
  <path
     d="m24.678725 15.999995c-.539276 0-.978723.440836-.978723.981818l.3 94.036367c0 .54197.439447.98182.978723.98182h51.913022c.257404 0 .509915-.10407.691957-.28767l26.129526-26.231135c.18303-.1836.28677-.435927.28677-.694145v-67.805237c0-.540982-.43847-.981818-.97872-.981818z"
     fill="url(#e)"
     id="path90" />
  <g
     transform="translate(.000002 -.000005)"
     id="g100">
    <path
       d="m111.414 86.586c.25-.25-26.379-1.586-31.414-1.586-1.654 0-3 1.346-3 3 0 5.035 1.336 31.664 1.586 31.414z"
       filter="url(#f)"
       opacity=".906849"
       id="path92" />
    <path
       d="m111.414 86.586c.375-.375-21.97-.586-31.414-.586-1.103 0-2 .897-2 2 0 9.444.211 31.789.586 31.414z"
       filter="url(#g)"
       opacity=".2"
       id="path94" />
    <path
       d="m111.414 86.586c.239-.239-21.607.414-31.414.414-.553 0-1 .447-1 1 0 9.807-.653 31.653-.414 31.414z"
       fill="url(#h)"
       filter="url(#i)"
       opacity=".1"
       id="path96" />
    <path
       d="m78.586 119.414s11.914-9.914 17.414-15.414 15.414-17.414 15.414-17.414-21.164 1.414-31.414 1.414c0 10.25-1.414 31.414-1.414 31.414z"
       fill="url(#j)"
       id="path98" />
  </g>
  <g
     id="g923"
     transform="rotate(90,48,48)">
    <rect
       id="rect102"
       y="40"
       width="128"
       rx="12"
       height="24"
       style="fill:url(#a)"
       x="0" />
    <path
       id="path104"
       d="m 8,48 h 112 v 8 H 8 Z"
       inkscape:connector-curvature="0"
       style="fill:#debc85" />
  </g>
</svg>
