<svg height="128" width="128" xmlns="http://www.w3.org/2000/svg" xmlns:xlink="http://www.w3.org/1999/xlink"><linearGradient id="a"><stop offset="0" stop-color="#1c1c1c"/><stop offset=".5" stop-color="#888"/><stop offset="1"/></linearGradient><linearGradient gradientUnits="userSpaceOnUse" x1="37.688" x2="90.312" xlink:href="#a" y1="63.0005" y2="63.0005"/><linearGradient id="b" gradientUnits="userSpaceOnUse" x1="64" x2="64" xlink:href="#a" y1="22.506487" y2="93.317558"/><g transform="matrix(0 1 -1 0 128.000002 -.000002)"><path d="m50.892799 3.2812959v-2.79470843z" fill="#fff" fill-opacity=".756881"/><path d="m38.062 32.688h51.875l.375 15.5h-2.25c-1.07-4.883-.034-7.161465-1.684-8.636465-1.652-1.475-5.125-2.213-10.418-2.213h-5l.216 46.505355c0 3.539 1.359 5.031071 2.445 5.879071 1.084.848 3.459 1.406 7.123 1.672v1.75h-33.488v-1.75c3.908-.295 6.344-.93 7.307-1.902.961-.973 2.261-1.723071 2.261-5.649071l.216-46.505355h-5c-5.072 0-6.127-.170535-7.963 1.288465-1.836 1.461-3.215 4.646-4.139 9.561h-2.25z" fill="url(#b)" transform="matrix(1.6722408 0 0 1.720232 -47.023411 -48.230943)"/><g fill="#a4c0e4"><path d="m29.438 93.030998h69.125v1h-69.125z" transform="matrix(1.8517179 0 0 7.9999983 -54.510869 -632.24782)"/><path d="m104 0h8v127.94262h-8z"/><path d="m35.881001 24.25h1v77.5h-1z" transform="matrix(8.0000031 0 0 1.6516129 -279.04812 -40.051613)"/></g></g></svg>