<svg height="128" width="128" xmlns="http://www.w3.org/2000/svg" xmlns:xlink="http://www.w3.org/1999/xlink"><linearGradient id="a" gradientUnits="userSpaceOnUse" x1="94.343803" x2="86.535599" y1="102.3447" y2="94.536598"><stop offset="0" stop-color="#5c5c5c"/><stop offset=".31394675" stop-color="#eff0ef"/><stop offset=".72916669" stop-color="#aaaba9"/><stop offset="1" stop-color="#535551"/></linearGradient><linearGradient id="b"><stop offset="0" stop-color="#fff"/><stop offset="1" stop-color="#fff" stop-opacity="0"/></linearGradient><filter id="c" color-interpolation-filters="sRGB"><feGaussianBlur stdDeviation=".66771187"/></filter><filter id="d" color-interpolation-filters="sRGB"><feGaussianBlur stdDeviation="2.0893418"/></filter><filter id="e" color-interpolation-filters="sRGB"><feGaussianBlur stdDeviation=".19214062"/></filter><filter id="f" color-interpolation-filters="sRGB"><feGaussianBlur stdDeviation=".15467289"/></filter><linearGradient id="g" gradientTransform="matrix(1.3636204 -.24311453 .24897975 1.3965183 -231.23261 -36.440302)" gradientUnits="userSpaceOnUse" x1="101.5314" x2="101.5314" xlink:href="#b" y1="18.620571" y2="58.619572"/><linearGradient id="h" gradientUnits="userSpaceOnUse" x1="179.293269" x2="184.626469" xlink:href="#a" y1="-50.328096" y2="-50.328096"/><linearGradient id="i" gradientTransform="matrix(1.9999981 0 0 6.9999995 -122.03227 -631.66929)" gradientUnits="userSpaceOnUse" x1="149.32961" x2="154.66281" xlink:href="#a" y1="85.334404" y2="85.334404"/><radialGradient id="j" cx="146.66299" cy="120.00019" gradientTransform="matrix(2.0000008 0 0 2.000001 -146.66311 -117.3337)" gradientUnits="userSpaceOnUse" r="5.3332" xlink:href="#a"/><linearGradient id="k" gradientUnits="userSpaceOnUse" x1="177.079659" x2="188.722489" xlink:href="#b" y1="-52.541746" y2="-9.09009"/><radialGradient id="l" cx="71.998199" cy="40.002201" gradientUnits="userSpaceOnUse" r="5.3332" xlink:href="#b"/><radialGradient id="m" cx="177.12991" cy="42.65752" gradientTransform="matrix(1.7311303 .19371147 -.19380456 1.7319623 -121.23783 -65.55117)" gradientUnits="userSpaceOnUse" r="32.512764"><stop offset="0"/><stop offset="1" stop-opacity="0"/></radialGradient><radialGradient id="n" cx="199.99719" cy="96.868515" gradientTransform="matrix(1 0 0 1.0004806 0 -.035878)" gradientUnits="userSpaceOnUse" r="32.512764" xlink:href="#b"/><linearGradient id="o" gradientUnits="userSpaceOnUse" x1="165.64815" x2="198.18205" y1="33.308235" y2="89.6586"><stop offset="0" stop-color="#fff"/><stop offset="1" stop-color="#555753"/></linearGradient><radialGradient id="p" cx="177.12991" cy="42.65752" gradientTransform="matrix(1 0 0 1.0004806 0 -.035878)" gradientUnits="userSpaceOnUse" r="32.512764" xlink:href="#b"/><linearGradient id="q" gradientUnits="userSpaceOnUse" spreadMethod="reflect" x1="183.60056" x2="205.3282" y1="77.033615" y2="114.667"><stop offset="0" stop-color="#fff"/><stop offset=".19999996" stop-color="#fff" stop-opacity="0"/><stop offset="1" stop-color="#fff" stop-opacity="0"/></linearGradient><radialGradient id="r" cx="87.5" cy="35.875004" fx="89.841835" fy="49.577999" gradientTransform="matrix(.99150354 -.13044703 .1304408 .9914561 -3.936123 11.720628)" gradientUnits="userSpaceOnUse" r="19.872202"><stop offset="0" stop-color="#d3fcff" stop-opacity="0"/><stop offset=".55311084" stop-color="#baf5fc" stop-opacity=".247059"/><stop offset=".75562102" stop-color="#83b5eb" stop-opacity=".498039"/><stop offset="1" stop-color="#537fc6" stop-opacity=".784483"/></radialGradient><linearGradient id="s" gradientUnits="userSpaceOnUse" x1="63.998402" x2="63.998402" xlink:href="#t" y1="37.335602" y2="42.6688"/><linearGradient id="t"><stop offset="0" stop-color="#1b2533"/><stop offset="1" stop-color="#1b2533" stop-opacity="0"/></linearGradient><linearGradient id="u" gradientTransform="matrix(1 0 0 .49999984 0 18.667807)" gradientUnits="userSpaceOnUse" x1="63.998402" x2="63.998402" xlink:href="#t" y1="37.335602" y2="42.6688"/><linearGradient id="v" gradientTransform="matrix(.23076922 0 0 .49999984 -55.181307 23.997808)" gradientUnits="userSpaceOnUse" x1="63.998402" x2="63.998402" xlink:href="#t" y1="37.335602" y2="42.6688"/><linearGradient id="w" gradientTransform="matrix(.23076922 0 0 1.0000004 -55.181307 5.329988)" gradientUnits="userSpaceOnUse" x1="63.998402" x2="63.998402" xlink:href="#t" y1="37.335602" y2="42.6688"/><linearGradient id="x" gradientTransform="matrix(.23076922 0 0 1.0000004 -55.181307 -114.66701)" gradientUnits="userSpaceOnUse" x1="63.998402" x2="63.998402" xlink:href="#t" y1="37.335602" y2="42.6688"/><linearGradient id="y" gradientTransform="matrix(.23076922 0 0 .49999983 -55.181307 -95.99919)" gradientUnits="userSpaceOnUse" x1="63.998402" x2="63.998402" xlink:href="#t" y1="37.335602" y2="42.6688"/><g transform="matrix(1.0217783 0 0 1.0217783 143.94436 35.895017)"><path d="m179.29326-54.244732h5.3332v6.583196h-5.3332z" fill="url(#h)" opacity=".971015" transform="matrix(1.02013930991 -.86474557343 .86976916405 1.01344769682 -200.51744 256.40187)"/><path d="m176.62666-47.66153h10.666389v31.999203h-10.666389z" fill="url(#i)" transform="matrix(1.02013930991 -.86474557343 .86976916405 1.01344769682 -200.51744 256.40187)"/><path d="m157.3294 122.6668a5.3332 5.3332 0 0 1 -2.6666 4.61869 5.3332 5.3332 0 0 1 -5.3332 0 5.3332 5.3332 0 0 1 -2.6666-4.61869h5.3332z" fill="url(#j)" transform="matrix(1.02013930991 -.86474557343 .86976916405 1.01344769682 -290.38774916063 90.1582700191)"/><path d="m179.29326-47.66153h2.66658v31.999199h-2.66658z" fill="url(#k)" opacity=".971015" transform="matrix(1.02013930991 -.86474557343 .86976916405 1.01344769682 -200.51744 256.40187)"/><path d="m107.3722 35.875004a19.872202 19.872202 0 0 1 -19.8722 19.872202 19.872202 19.872202 0 0 1 -19.872202-19.872202 19.872202 19.872202 0 0 1 19.872202-19.872202 19.872202 19.872202 0 0 1 19.8722 19.872202z" fill="url(#r)" transform="matrix(2.1549699 -.06707309 .06707309 2.1549699 -280.96704 -59.16079)"/><g transform="matrix(1.4546882 -.04527691 .04527691 1.4546882 -357.20773 -88.129187)"><path d="m181.34375 43.1875c-17.38944 0-31.46875 14.079306-31.46875 31.46875s14.07931 31.46875 31.46875 31.46875 31.4375-14.078688 31.4375-31.46875-14.04806-31.46875-31.4375-31.46875zm0 1.625c16.48273 0 29.84375 13.361025 29.84375 29.84375s-13.36035 29.875-29.84375 29.875-29.875-13.391601-29.875-29.875 13.39227-29.84375 29.875-29.84375z" fill="url(#m)" filter="url(#c)" transform="matrix(.91617705 0 0 .91617705 15.199521 6.258093)"/><path d="m181.34375 42.09375c-17.97497 0-32.5625 14.587534-32.5625 32.5625s14.58753 32.5625 32.5625 32.5625 32.53125-14.588193 32.53125-32.5625-14.55628-32.5625-32.53125-32.5625zm0 3.8125c15.89813 0 28.75 12.851868 28.75 28.75s-12.85259 28.78125-28.75 28.78125-28.78125-12.883837-28.78125-28.78125 12.88312-28.75 28.78125-28.75z" fill="url(#n)" filter="url(#d)" opacity=".540984" transform="matrix(.81712719 0 0 .81712719 33.160106 13.652997)"/><path d="m181.34375 42.09375c-17.9772 0-32.5625 14.5853-32.5625 32.5625s14.5853 32.5625 32.5625 32.5625 32.53125-14.585964 32.53125-32.5625-14.55405-32.5625-32.53125-32.5625zm0 3.8125c15.8959 0 28.75 12.854098 28.75 28.75s-12.85482 28.78125-28.75 28.78125-28.78125-12.886072-28.78125-28.78125 12.88535-28.75 28.78125-28.75z" fill="url(#o)"/><path d="m181.34375 43.375c-17.28301 0-31.28125 13.998243-31.28125 31.28125s13.99824 31.28125 31.28125 31.28125 31.25-13.997393 31.25-31.28125-13.96699-31.28125-31.25-31.28125zm0 1.25c16.589 0 30.03125 13.442256 30.03125 30.03125s-13.44133 30.0625-30.03125 30.0625-30.0625-13.472579-30.0625-30.0625 13.4735-30.03125 30.0625-30.03125z" fill="url(#p)" opacity=".519126" transform="matrix(1.0317053 0 0 1.0317053 -5.749097 -2.367074)"/><path d="m181.34375 42.96875c-17.49707 0-31.6875 14.190426-31.6875 31.6875s14.19043 31.6875 31.6875 31.6875 31.65625-14.190043 31.65625-31.6875-14.15918-31.6875-31.65625-31.6875zm0 2.0625c16.37527 0 29.625 13.249734 29.625 29.625s-13.24931 29.65625-29.625 29.65625-29.65625-13.280566-29.65625-29.65625 13.28098-29.625 29.65625-29.625z" fill="url(#q)" filter="url(#e)"/><path d="m181.34375 43.71875c-17.09248 0-30.9375 13.845017-30.9375 30.9375s13.84502 30.9375 30.9375 30.9375 30.90625-13.843751 30.90625-30.9375-13.81377-30.9375-30.90625-30.9375zm0 .5625c16.77922 0 30.375 13.595785 30.375 30.375s-13.5944 30.40625-30.375 30.40625-30.40625-13.625654-30.40625-30.40625 13.62703-30.375 30.40625-30.375z" fill="url(#n)" filter="url(#f)" transform="matrix(.95352862 0 0 .95352862 8.426593 3.469478)"/></g><path d="m-96.677842-26.991475c-17.378568 3.098368-33.353998 20.5665869-31.263238 32.2936351 1.52063 8.5291719 21.47487 9.0222139 36.591972 6.3270479 13.238308-2.3602162 37.519365-9.3879087 36.107484-17.3070985-2.276251-12.7673935-24.753028-24.2879655-41.436218-21.3135845z" fill="url(#g)"/><g fill="url(#l)"><path d="m77.331399 40.002201a5.3332 5.3332 0 0 1 -5.3332 5.3332 5.3332 5.3332 0 0 1 -5.3332-5.3332 5.3332 5.3332 0 0 1 5.3332-5.3332 5.3332 5.3332 0 0 1 5.3332 5.3332z" opacity=".52459" transform="matrix(1.9917453 -.36548089 .36548089 1.9917453 -219.98847 -52.693074)"/><path d="m77.331399 40.002201a5.3332 5.3332 0 0 1 -5.3332 5.3332 5.3332 5.3332 0 0 1 -5.3332-5.3332 5.3332 5.3332 0 0 1 5.3332-5.3332 5.3332 5.3332 0 0 1 5.3332 5.3332z" opacity=".52459" transform="matrix(1.3278302 -.24365392 .24365392 1.3278302 -224.75197 .525542)"/></g></g><g fill="#f0ffff" opacity=".497143" transform="matrix(1.6122852 0 0 1 -44.789117 2.664398)"><path d="m42.6656 45.3354h34.733311v8.000202h-34.733311z" opacity=".818182"/><g transform="scale(-1 1)"><path d="m-42.6656 37.335602h4.9619v16h-4.9619z" opacity=".462857"/><path d="m-82.360809 37.335602h4.9619v16h-4.9619z" opacity=".462857"/></g></g><g opacity=".788571" transform="matrix(1.1516327 0 0 1 -33.150661 -5.335603)"><path d="m42.6656 37.335602h34.665798v7.9998h-34.665798z" fill="#3f5e8d" fill-opacity=".797327" opacity=".818182"/><path d="m42.6656 37.335602h34.665798v5.333198h-34.665798z" fill="url(#s)" opacity=".818182"/><path d="m42.6656 37.335602h34.665798v2.666598h-34.665798z" fill="url(#u)" opacity=".818182"/><path d="m-45.3354 42.6656h7.9998v2.666598h-7.9998z" fill="url(#v)" opacity=".818182" transform="rotate(-90)"/><path d="m-45.3354 42.6656h7.9998v5.3332h-7.9998z" fill="url(#w)" opacity=".818182" transform="rotate(-90)"/><path d="m-45.3354-77.331398h7.9998v5.3332h-7.9998z" fill="url(#x)" opacity=".818182" transform="matrix(0 -1 -1 0 0 0)"/><path d="m-45.3354-77.331398h7.9998v2.666598h-7.9998z" fill="url(#y)" opacity=".818182" transform="matrix(0 -1 -1 0 0 0)"/></g><path d="m32 16h8v16h-8z" fill="#6681a3" fill-opacity=".716258"/><path d="m32 40h8v15.990468h-8z" fill="#6681a3" fill-opacity=".716258"/><path d="m48-80h8v8h-8z" fill="#f7ffff" fill-opacity=".970588" transform="scale(1 -1)"/><path d="m32 16h8v8h-8z" fill="#455973" fill-opacity=".716258"/><path d="m32 31.999998h8v8h-8z" fill="#8ca1ba"/><g opacity=".788571" transform="matrix(1.1516327 0 0 1 -1.1351 18.664398)"><path d="m42.6656 37.335602h34.665798v7.9998h-34.665798z" fill="#3f5e8d" fill-opacity=".797327" opacity=".818182"/><path d="m42.6656 37.335602h34.665798v5.333198h-34.665798z" fill="url(#s)" opacity=".818182"/><path d="m42.6656 37.335602h34.665798v2.666598h-34.665798z" fill="url(#u)" opacity=".818182"/><path d="m-45.3354 42.6656h7.9998v2.666598h-7.9998z" fill="url(#v)" opacity=".818182" transform="rotate(-90)"/><path d="m-45.3354 42.6656h7.9998v5.3332h-7.9998z" fill="url(#w)" opacity=".818182" transform="rotate(-90)"/><path d="m-45.3354-77.331398h7.9998v5.3332h-7.9998z" fill="url(#x)" opacity=".818182" transform="matrix(0 -1 -1 0 0 0)"/><path d="m-45.3354-77.331398h7.9998v2.666598h-7.9998z" fill="url(#y)" opacity=".818182" transform="matrix(0 -1 -1 0 0 0)"/></g><path d="m84.883883 19.999997-65.454549 60.000003z" fill="none" stroke="#3c5572" stroke-opacity=".686275" stroke-width="3"/></svg>