<svg height="128" viewBox="0 0 33.866666 33.866668" width="128" xmlns="http://www.w3.org/2000/svg" xmlns:xlink="http://www.w3.org/1999/xlink"><radialGradient id="a" cx="56" cy="66" gradientTransform="matrix(1.3633683 0 0 2.5290688 -28.848628 -99.010812)" gradientUnits="userSpaceOnUse" r="48"><stop offset="0" stop-color="#fff"/><stop offset="1" stop-color="#eee"/></radialGradient><linearGradient id="b" gradientUnits="userSpaceOnUse" x1="87.231171" x2="114.63911" y1="26.212187" y2="128.5"><stop offset="0" stop-color="#2c72c7"/><stop offset="1" stop-color="#00438a"/></linearGradient><linearGradient id="c" gradientUnits="userSpaceOnUse" x1="114.37838" x2="112.9539" y1="42.286964" y2="132.19691"><stop offset="0" stop-color="#bbd6ff"/><stop offset="1" stop-color="#0057ae"/></linearGradient><linearGradient id="d" gradientUnits="userSpaceOnUse" x1="124.5" x2="135.74562" y1="125" y2="2.932803"><stop offset="0" stop-color="#fff"/><stop offset="1" stop-color="#fff" stop-opacity="0"/></linearGradient><filter id="e"><feGaussianBlur stdDeviation=".385"/></filter><linearGradient id="f" gradientUnits="userSpaceOnUse" x1="104" x2="104" y1="124.5" y2="61.61084"><stop offset="0" stop-color="#d4e2f3"/><stop offset="1" stop-color="#fff" stop-opacity="0"/></linearGradient><g transform="matrix(.19352418506 0 0 .23731433596 4.73252183756 .8279061483)"><path d="m-16.5 2.999996h128v130.55357h-128z" style="opacity:.5;fill:none;stroke:#000;stroke-width:7.224297;stroke-linecap:round;stroke-linejoin:round"/><path d="m-16.5 3h128v130.14583h-128z" fill="#fff"/><path d="m-8.5 9.193453h112v117.42857h-112z" fill="url(#a)"/></g><g transform="matrix(.19352418506 0 0 .19352418506 6.95804975 4.4610798729)"><path d="m95.5 124.5-20-20h16v-104h8v104h16z" fill="none" stroke="#fff" stroke-linecap="round" stroke-linejoin="round" stroke-width="16"/><path d="m104 126.5-20-22h16v-104h8v104h16z" fill="none" stroke="url(#b)" stroke-linecap="round" stroke-linejoin="round" stroke-width="16"/><path d="m104 124.5-20-20h16v-104h8v104h16z" fill="url(#c)" fill-rule="evenodd"/><path d="m104 124.5-20-20h16v-64h8v64h16z" fill="none" filter="url(#e)" opacity=".898396" stroke="url(#d)"/><path d="m104 124.5-20-20h16v-55.15625c2.72925.692534 5.40416 1.45519 8 2.28125v52.875h16z" fill="url(#f)" fill-rule="evenodd"/></g><g transform="translate(0 -263.13332)"><g fill="#696969"><rect height="1.539361" rx=".508924" ry=".441607" width="15.393723" x="4.618117" y="269.29129"/><rect height="1.539373" rx=".457761" ry=".441611" transform="rotate(90)" width="6.157474" x="269.29129" y="-20.011841"/></g><g fill="#4d82b8"><rect height="1.539363" rx=".472074" ry=".441608" width="6.35" x="9.043723" y="278.52753"/><rect height="1.539372" rx=".45021" ry=".344412" width="15.393723" x="4.618117" y="281.60626"/><rect height="1.539363" rx=".686644" ry=".441608" width="9.236235" x="7.696862" y="284.68503"/><rect height="1.539363" rx=".686644" ry=".441608" width="9.236235" x="7.696861" y="289.30313"/><g transform="rotate(90)"><rect height="1.539363" rx=".457762" ry=".441608" width="6.157489" x="284.685" y="-9.236224"/><rect height="1.539363" rx=".457762" ry=".441608" width="6.157489" x="284.685" y="-16.933096"/></g></g></g></svg>