<svg height="128" width="128" xmlns="http://www.w3.org/2000/svg" xmlns:xlink="http://www.w3.org/1999/xlink"><linearGradient id="a"><stop offset="0" stop-color="#1c1c1c"/><stop offset=".5" stop-color="#888"/><stop offset="1"/></linearGradient><linearGradient id="b" gradientUnits="userSpaceOnUse" x1="-192.86826546846" x2="-199.26656152752" xlink:href="#a" y1="109.4493765047" y2="-18.51654357678"/><linearGradient id="c" gradientUnits="userSpaceOnUse" x1="69.8172" x2="69.8172" xlink:href="#a" y1="110.5457" y2="-5.8163"/><path d="m54.892799 3.2812959v-2.79470843z" fill="#fff" fill-opacity=".756881"/><text style="font-weight:bold;font-size:111.468521;font-family:FreeSerif;letter-spacing:0;word-spacing:0;stroke-width:2.786845;fill:url(#b)" x="-229.8782" y="100.36"><tspan fill="url(#b)" font-family="UnDotum" font-size="120" font-weight="normal" stroke-width="2.786845" x="-229.8782" y="100.36">기</tspan></text><path d="m96.908203 11.638672-11.636719.001953v43.537109h11.636719zm-81.779297 10.472656v10.472656h47.125c-.135066 5.785893-.609741 14.30633-1.777344 22.59375h10.970704c1.405566-9.659681 1.474758-18.667056 1.279296-25.4375v-7.628906zm40.837891 51.419922c-5.852213 13.496739-20.137193 27.13363-40.837891 27.12305v10.47265c26.353093.01361 42.56611-15.396722 50.009766-32.736325.688896-1.604747 1.298363-3.229564 1.873047-4.859375zm29.304687 0v42.83203l11.636719-.00195v-41.888674h15.708987v-.941406z" fill="url(#c)" fill-rule="evenodd"/><rect fill="#010101" height="11.6362" rx="1.78422" ry="2.29502" width="104.7258" x="11.6362" y="58.1828"/></svg>