<svg height="128" viewBox="0 0 128 128" width="128" xmlns="http://www.w3.org/2000/svg" xmlns:xlink="http://www.w3.org/1999/xlink"><linearGradient id="a" gradientUnits="userSpaceOnUse" x1="69.33333384" x2="69.33333384" y1="110.93333324" y2="-12.2666662"><stop offset="0" stop-color="#1c1c1c"/><stop offset=".5" stop-color="#888"/><stop offset="1"/></linearGradient><linearGradient id="b" gradientTransform="matrix(.00049044 .99999988 -.99999988 .00049044 48.00673 5.961334)" gradientUnits="userSpaceOnUse" x1="113.15723" x2="39.268185" xlink:href="#c" y1="25.786163" y2="25.786163"/><linearGradient id="c"><stop offset="0" stop-color="#0968ef"/><stop offset="1" stop-color="#aecffc"/></linearGradient><linearGradient id="d" gradientTransform="matrix(.00049052 -.99999988 -.99999988 -.00049052 47.952917 119.83956)" gradientUnits="userSpaceOnUse" x1="113.15723" x2="39.268185" xlink:href="#c" y1="25.786163" y2="25.786163"/>


/&amp;amp;gt;<g fill-rule="evenodd"><path d="m104.53333 17.066667v93.866663h11.73334v-41.066663h11.73333v-11.733333h-11.73333v-41.066667zm-70.399997 5.866667v11.733333h46.933334c0 35.2-23.466667 58.666667-46.933334 58.666667v11.733326c35.2 0 58.666667-29.333327 58.666667-73.585418v-8.547908z" fill="url(#a)" stroke-width="5.866667"/><path d="m20.011777-.17415 19.98823 24.00981-3.9768 3.97288-12.02133-7.80464-.0538 27.796996-7.99999-.0039.0538-27.796996-11.82773 7.79292-4.174157-3.97689z" fill="url(#d)"/><path d="m20.06559 125.97505 19.988228-24.00981-3.976796-3.97288-12.021335 7.80464-.0538-29.797-7.999993.004.0538 29.797-11.827726-7.79302-4.174157 3.97689z" fill="url(#b)"/></g><path d="m8.001887 48v28h28v-28zm4 4h20v20h-20z" fill="#797979"/></svg>