<?xml version="1.0" encoding="UTF-8" standalone="no"?>
<svg
   xmlns:dc="http://purl.org/dc/elements/1.1/"
   xmlns:cc="http://creativecommons.org/ns#"
   xmlns:rdf="http://www.w3.org/1999/02/22-rdf-syntax-ns#"
   xmlns:svg="http://www.w3.org/2000/svg"
   xmlns="http://www.w3.org/2000/svg"
   xmlns:xlink="http://www.w3.org/1999/xlink"
   xmlns:sodipodi="http://sodipodi.sourceforge.net/DTD/sodipodi-0.dtd"
   xmlns:inkscape="http://www.inkscape.org/namespaces/inkscape"
   height="128"
   viewBox="0 0 33.866666 33.866668"
   width="128"
   version="1.1"
   id="svg20"
   sodipodi:docname="bold.svg"
   inkscape:version="0.92.4 (unknown)"
   inkscape:export-filename="/home/rizmut/Dokumen/Rizmut/Github/libreoffice-style-karasa-jaga/build/images_karasa_jaga/cmd/32/ru/bold.png"
   inkscape:export-xdpi="24"
   inkscape:export-ydpi="24">
  <metadata
     id="metadata26">
    <rdf:RDF>
      <cc:Work
         rdf:about="">
        <dc:format>image/svg+xml</dc:format>
        <dc:type
           rdf:resource="http://purl.org/dc/dcmitype/StillImage" />
        <dc:title></dc:title>
      </cc:Work>
    </rdf:RDF>
  </metadata>
  <defs
     id="defs24">
    <linearGradient
       inkscape:collect="always"
       xlink:href="#a"
       id="linearGradient827"
       gradientUnits="userSpaceOnUse"
       gradientTransform="matrix(1.2159761,0,0,1.2159761,-8.9946425,-328.21385)"
       x1="18.708686"
       y1="292.76666"
       x2="18.646311"
       y2="276.03159" />
    <linearGradient
       inkscape:collect="always"
       xlink:href="#b"
       id="linearGradient846"
       x1="67.999992"
       y1="20.000004"
       x2="63.999996"
       y2="60"
       gradientUnits="userSpaceOnUse" />
  </defs>
  <sodipodi:namedview
     pagecolor="#ffffff"
     bordercolor="#666666"
     borderopacity="1"
     objecttolerance="10"
     gridtolerance="10"
     guidetolerance="10"
     inkscape:pageopacity="0"
     inkscape:pageshadow="2"
     inkscape:window-width="1366"
     inkscape:window-height="706"
     id="namedview22"
     showgrid="true"
     inkscape:zoom="2.8284271"
     inkscape:cx="69.915398"
     inkscape:cy="55.665268"
     inkscape:window-x="0"
     inkscape:window-y="0"
     inkscape:window-maximized="1"
     inkscape:current-layer="svg20">
    <inkscape:grid
       type="xygrid"
       id="grid821"
       spacingx="1.0583333"
       spacingy="1.0583333" />
  </sodipodi:namedview>
  <linearGradient
     id="a"
     gradientUnits="userSpaceOnUse"
     x1="18.708686"
     x2="19.767019"
     y1="292.76666"
     y2="268.42499"
     gradientTransform="translate(-2.907771,-263.42964)">
    <stop
       offset="0"
       stop-color="#555"
       id="stop2" />
    <stop
       offset="1"
       id="stop4" />
  </linearGradient>
  <linearGradient
     id="b"
     gradientUnits="userSpaceOnUse"
     x1="44.923828"
     x2="44.566963"
     y1="7.581612"
     y2="97.581612"
     gradientTransform="scale(0.26458333)">
    <stop
       offset="0"
       stop-color="#3b3e22"
       id="stop7" />
    <stop
       offset="1"
       stop-color="#454545"
       stop-opacity="0"
       id="stop9" />
  </linearGradient>
  <text
     style="font-size:42.80195618px;font-family:sans-serif;letter-spacing:0;word-spacing:0;fill:url(#linearGradient827);stroke-width:1.07004893"
     x="-1.1959808"
     y="27.519527"
     id="text825">
    <tspan
       font-size="37.041668"
       font-weight="bold"
       x="-1.1959808"
       y="27.519527"
       id="tspan823"
       style="font-weight:bold;font-size:45.04177475px;font-family:FreeSerif;fill:url(#linearGradient827);stroke-width:1.07004893">ж</tspan>
  </text>
  <path
     style="font-size:42.80195618px;font-family:sans-serif;letter-spacing:0;word-spacing:0;fill:url(#linearGradient846);stroke-width:4.04427958;fill-opacity:1"
     d="M 14.71875 25.660156 C 11.459777 25.660156 9.0464533 26.652769 7.0859375 28.701172 C 5.183905 30.808901 4.2890625 33.114733 4.2890625 35.912109 C 4.2890625 39.46234 5.2197014 41.720477 6.9316406 43.162109 C 8.8444625 44.772906 10.745645 45.486328 12.84375 45.486328 C 15.993534 45.486328 17.745875 44.390948 19.001953 41.685547 A 1.6580404 1.6580404 0 0 1 19.023438 41.648438 C 19.149141 41.397031 19.440051 40.621708 19.769531 39.523438 A 1.6580404 1.6580404 0 0 1 19.8125 39.390625 C 20.300647 38.170261 20.79647 37.195817 21.421875 36.414062 C 22.090136 35.578736 23.134333 34.939453 24.25 34.939453 C 25.53648 34.939453 26.768695 35.59199 27.623047 36.5625 C 28.477398 37.53301 29.075593 38.797512 29.572266 40.349609 C 30.59152 43.068046 31.891067 46.549751 33.46875 50.832031 C 34.983261 54.830862 36.992837 57.868972 39.470703 60.037109 A 1.6580404 1.6580404 0 0 1 40.039062 61.285156 L 40.039062 61.962891 A 1.6580404 1.6580404 0 0 1 38.732422 63.580078 C 33.921667 64.629696 30.105476 66.367577 27.162109 68.730469 A 86.000003 29.999998 0 0 0 40.71875 70.671875 C 40.953859 70.301816 41.346369 69.692025 41.324219 69.736328 A 1.6580404 1.6580404 0 0 1 41.634766 69.308594 L 42.71875 68.216797 C 43.336691 67.475269 43.823022 66.934611 44.742188 66.591797 C 45.230113 66.317963 45.745846 66.106241 46.314453 65.986328 C 47.118177 65.731082 47.941786 65.580082 48.765625 65.580078 L 52.167969 65.580078 A 1.6580404 1.6580404 0 0 1 53.828125 67.242188 L 53.828125 71.660156 A 86.000003 29.999998 0 0 0 66 72 A 86.000003 29.999998 0 0 0 74.173828 71.837891 L 74.173828 67.242188 A 1.6580404 1.6580404 0 0 1 75.833984 65.580078 L 79.236328 65.580078 C 79.897768 65.580078 80.521405 65.649724 81.119141 65.794922 C 81.796791 65.932773 82.44054 66.138241 83.039062 66.4375 C 83.540969 66.688453 83.9674 66.975585 84.359375 67.337891 C 84.888656 67.717374 85.332144 68.168597 85.806641 68.761719 C 86.140139 69.178589 86.319348 69.580258 86.537109 69.980469 C 86.544109 69.987468 86.553574 70.002717 86.560547 70.009766 C 86.830465 70.28262 87.100926 70.627182 87.402344 71.03125 A 86.000003 29.999998 0 0 0 101.01953 69.359375 C 100.95923 69.310575 100.90474 69.261686 100.84375 69.212891 A 1.6580404 1.6580404 0 0 1 100.79297 69.175781 C 97.725625 66.531522 93.909494 64.664591 89.246094 63.580078 A 1.6580404 1.6580404 0 0 1 87.962891 61.962891 L 87.962891 61.285156 A 1.6580404 1.6580404 0 0 1 88.53125 60.037109 C 91.009116 57.868972 93.01869 54.830862 94.533203 50.832031 L 94.539062 50.824219 C 96.123248 46.524311 97.423506 43.016036 98.445312 40.291016 L 98.453125 40.267578 C 99.008579 38.730573 99.65667 37.490864 100.5332 36.541016 C 101.41445 35.586064 102.63539 34.939453 103.92188 34.939453 C 104.99193 34.939453 106.04024 35.634745 106.60938 36.496094 C 107.25411 37.327048 107.68315 38.33975 108.04102 39.617188 C 108.43064 40.593174 108.65727 41.193026 108.80859 41.626953 C 110.28323 44.36095 112.14939 45.486328 115.1582 45.486328 C 117.25631 45.486328 119.14825 44.774108 121.0625 43.162109 C 122.77444 41.720477 123.70508 39.462336 123.70508 35.912109 C 123.70508 33.128507 122.77554 30.831403 120.75977 28.714844 C 118.79458 26.651399 116.38299 25.660156 113.11328 25.660156 C 108.3795 25.660156 104.6036 26.970056 101.50781 29.601562 C 98.41202 32.233069 95.968397 36.262884 94.273438 41.839844 A 1.6580404 1.6580404 0 0 1 94.259766 41.884766 C 94.183219 42.114406 94.076469 42.521961 93.970703 43.050781 A 1.6580404 1.6580404 0 0 1 93.933594 43.212891 C 93.020811 46.179423 92.160787 48.810147 91.357422 51.105469 A 1.6580404 1.6580404 0 0 1 91.351562 51.134766 C 90.471084 53.524648 88.990042 55.885339 86.966797 58.265625 C 84.921487 60.69221 82.287134 62.089844 79.40625 62.089844 L 75.833984 62.089844 A 1.6580404 1.6580404 0 0 1 74.173828 60.427734 L 74.173828 39.832031 C 74.173828 35.734542 74.401192 33.010716 75.900391 31.136719 A 1.6580404 1.6580404 0 0 1 75.958984 31.0625 C 77.377252 29.486652 79.803745 28.816974 83.023438 28.273438 L 83.023438 27.195312 L 45.65625 27.195312 L 45.65625 28.353516 C 47.988547 28.833146 50.052439 29.764303 51.421875 31.476562 C 53.09808 33.572389 53.828125 36.41741 53.828125 39.832031 L 53.828125 60.427734 A 1.6580404 1.6580404 0 0 1 52.167969 62.089844 L 48.595703 62.089844 C 45.629001 62.089844 42.921664 60.712882 40.865234 58.279297 L 40.865234 58.273438 C 38.331122 55.336711 36.135065 49.974944 33.728516 41.839844 L 33.728516 41.833984 C 32.034349 36.263118 29.578199 32.240608 26.457031 29.609375 C 23.334516 26.977006 19.512799 25.660156 14.71875 25.660156 z M 108.04102 39.617188 C 108.02971 39.588878 108.03113 39.587592 108.01953 39.558594 L 108.07812 39.736328 C 108.06666 39.69429 108.05263 39.658653 108.04102 39.617188 z "
     transform="scale(0.26458334)"
     id="text831" />
</svg>
