<svg height="128" viewBox="0 0 33.866666 33.866668" width="128" xmlns="http://www.w3.org/2000/svg" xmlns:xlink="http://www.w3.org/1999/xlink"><linearGradient id="a" gradientUnits="userSpaceOnUse" x1="23.55840640687" x2="23.55840640687" y1="291.27707167828" y2="263.25102100016"><stop offset="0" stop-color="#1c1c1c"/><stop offset=".5" stop-color="#888"/><stop offset="1"/></linearGradient><linearGradient id="b" gradientTransform="matrix(0 .13210149 .13210149 0 .00109 279.57977)" gradientUnits="userSpaceOnUse" x1="113.15723" x2="-44.383411" xlink:href="#c" y1="25.786163" y2="32.026646"/><linearGradient id="c"><stop offset="0" stop-color="#0968ef"/><stop offset="1" stop-color="#aecffc"/></linearGradient><linearGradient id="d" gradientTransform="matrix(0 -.13210149 .13210149 0 .00609 280.55354)" gradientUnits="userSpaceOnUse" x1="113.15723" x2="-44.383411" xlink:href="#c" y1="25.786163" y2="32.026646"/><g transform="translate(0 -263.13332)"><g fill-rule="evenodd"><path d="m27.28061 267.45536v25.22301l2.802605-.00048v-10.08915h3.783452v-2.52231h-3.783452v-12.6115zm-16.894101 2.52208v2.5223h11.350356c-.05909 2.53106-.385151 7.23521-1.498409 9.82849-1.400226 3.26175-4.848793 6.56903-9.851947 6.56647v2.5223c6.347203.004 10.252153-3.70836 12.044974-7.88465 1.792823-4.17629 1.911752-8.80539 1.827684-11.71737v-1.83754z" fill="url(#a)"/><path d="m3.6999333 295.43195-2.64203-3.17044.5250801-.52508 1.5885399 1.03023.005-10.58334h1.0568099l-.005 10.58334 1.56195-1.03023.55167.52508-2.6420301 3.17044z" fill="url(#b)"/><path d="m3.7049333 264.70136-2.64203 3.17044.5250801.52508 1.5885399-1.03023v9.525h1.0568099v-9.525l1.56195 1.03023.55167-.52508-2.6420301-3.17044z" fill="url(#d)"/></g><path d="m6.3499998 276.89161h-5.2916665v5.29167h5.2916665zm-1.0583333 1.05834v3.175l-3.1667399-.0165-.00826-3.15846z" fill="#797979"/></g></svg>