<svg height="128" viewBox="0 0 33.866666 33.866668" width="128" xmlns="http://www.w3.org/2000/svg" xmlns:xlink="http://www.w3.org/1999/xlink"><linearGradient id="a" gradientUnits="userSpaceOnUse" x1="18.36515140687" x2="18.36515140687" y1="291.27707167828" y2="263.25102100016"><stop offset="0" stop-color="#1c1c1c"/><stop offset=".5" stop-color="#888"/><stop offset="1"/></linearGradient><g fill-rule="evenodd" transform="translate(0 -263.13332)"><path d="m23.535411 270.78894v25.22301l2.802605-.00048v-10.08915h3.783452v-2.52231h-3.783452v-12.6115zm-16.8941002 2.52208v2.5223h11.3503552c-.05909 2.53106-.385151 7.23521-1.498409 9.82849-1.400226 3.26175-4.848793 6.56903-9.8519462 6.56647v2.5223c6.3472022.004 10.2521522-3.70836 12.0449732-7.88465 1.792823-4.17629 1.911752-8.80539 1.827684-11.71737v-1.83754z" fill="#1c1c1c" fill-opacity=".423529"/><path d="m22.087355 267.45536v25.22301l2.802605-.00048v-10.08915h3.783452v-2.52231h-3.783452v-12.6115zm-16.8941003 2.52208v2.5223h11.3503553c-.05909 2.53106-.385151 7.23521-1.498409 9.82849-1.400226 3.26175-4.848793 6.56903-9.8519463 6.56647v2.5223c6.3472023.004 10.2521523-3.70836 12.0449733-7.88465 1.792823-4.17629 1.911752-8.80539 1.827684-11.71737v-1.83754z" fill="url(#a)"/></g></svg>