<svg height="128" width="128" xmlns="http://www.w3.org/2000/svg" xmlns:xlink="http://www.w3.org/1999/xlink"><linearGradient id="a" gradientTransform="matrix(-.91030776 0 0 -.91030776 122.14355 112.58282)" gradientUnits="userSpaceOnUse" x1="69.8172" x2="69.8172" y1="110.5457" y2="-5.8163"><stop offset="0" stop-color="#1c1c1c"/><stop offset=".5" stop-color="#888"/><stop offset="1"/></linearGradient><g transform="matrix(0 1 -1 0 124.243295 -3.756707)"><path d="m44.52024 101.98702v-95.33106l-10.592523.002v38.132037h-14.29967v9.533141h14.29967v47.665512zm63.85172-9.532266v-9.533103h-42.898983c.223332-9.566211 1.455689-27.345676 5.663278-37.147049 5.292193-12.327874 18.326147-24.82783 37.235705-24.818154v-9.533103c-23.989428-.01512-38.748298 14.015849-45.524311 29.800252-6.776024 15.784404-7.225519 33.280215-6.907782 44.286124v6.945033z" fill="url(#a)" fill-rule="evenodd"/><path d="m54.892799 3.2812959v-2.79470843z" fill="#fff" fill-opacity=".756881"/><g fill="#a4c0e4"><path d="m29.438 94.030998h69.125v1h-69.125z" transform="matrix(1.7359855 0 0 -4.0000011 -47.103939 488.1241)"/><g transform="matrix(4.0000046 0 0 1.6516129 -131.52422 -44.051613)"><path d="m35.881001 31.515625h1.000012v67.8125h-1.000012z"/><path d="m60.881001 31.515625h.999983v67.8125h-.999983z"/></g></g></g></svg>