<svg height="128" viewBox="0 0 33.866666 33.866668" width="128" xmlns="http://www.w3.org/2000/svg" xmlns:xlink="http://www.w3.org/1999/xlink"><linearGradient id="a" gradientUnits="userSpaceOnUse" x1="4.096093" x2="29.047024" y1="10.603659" y2="10.603659"><stop offset="0" stop-color="#3b3e22"/><stop offset="1" stop-color="#454545" stop-opacity="0"/></linearGradient><linearGradient id="b" gradientUnits="userSpaceOnUse" x1="15.626692" x2="16.847849" y1="31.245297" y2="3.158661"><stop offset="0" stop-color="#555"/><stop offset="1"/></linearGradient><g stroke-width="1.015378"><text fill="url(#b)" font-family="sans-serif" font-size="40.615143" letter-spacing="0" word-spacing="0" x="1.439891" y="30.994968"><tspan fill="url(#b)" font-family="FreeSerif" font-size="42.740532" font-weight="bold" stroke-width="1.015378" x="1.439891" y="30.994968">N</tspan></text><path d="m4.0960926 3.0056729c.087177.066597.1989516.051052.283187.1250569.5919224.4898951 1.3354817 1.303015 2.3688477 2.537313a.90395382.90395382 0 0 1 .2113566.5798095v11.8767957a24.323731 12.843503 0 0 0 .072347.0098v-9.6211008a.90395382.90395382 0 0 1 1.6035196-.5741252l8.4330775 10.262424a24.323731 12.843503 0 0 0 5.528862-.954464l-11.58534-14.2415091zm21.0586644 0c.379923.1926339.779283.3651126 1.054714.6681762.806921.8581776 1.05265 2.117212 1.05265 3.7284547v8.3534962a24.323731 12.843503 0 0 0 .07235-.02739v-9.1384596c0-1.3229728.136887-2.3481216.862997-3.0742312.229436-.2294355.55127-.3575957.849558-.5100463z" fill="url(#a)"/></g></svg>