<?xml version="1.0" encoding="UTF-8" standalone="no"?>
<svg
   xmlns:dc="http://purl.org/dc/elements/1.1/"
   xmlns:cc="http://creativecommons.org/ns#"
   xmlns:rdf="http://www.w3.org/1999/02/22-rdf-syntax-ns#"
   xmlns:svg="http://www.w3.org/2000/svg"
   xmlns="http://www.w3.org/2000/svg"
   xmlns:xlink="http://www.w3.org/1999/xlink"
   xmlns:sodipodi="http://sodipodi.sourceforge.net/DTD/sodipodi-0.dtd"
   xmlns:inkscape="http://www.inkscape.org/namespaces/inkscape"
   height="16"
   viewBox="0 0 4.2333333 4.2333335"
   width="16"
   version="1.1"
   id="svg24"
   sodipodi:docname="sc_underlinedouble.svg"
   inkscape:version="0.92.4 (unknown)">
  <metadata
     id="metadata30">
    <rdf:RDF>
      <cc:Work
         rdf:about="">
        <dc:format>image/svg+xml</dc:format>
        <dc:type
           rdf:resource="http://purl.org/dc/dcmitype/StillImage" />
        <dc:title></dc:title>
      </cc:Work>
    </rdf:RDF>
  </metadata>
  <defs
     id="defs28">
    <linearGradient
       inkscape:collect="always"
       xlink:href="#b"
       id="linearGradient856"
       gradientUnits="userSpaceOnUse"
       gradientTransform="matrix(0.93199686,0,0,0.93199687,1.175104,-247.51751)"
       x1="18.981825"
       y1="294.72055"
       x2="20.202982"
       y2="266.63391" />
    <linearGradient
       inkscape:collect="always"
       xlink:href="#b"
       id="linearGradient858"
       gradientUnits="userSpaceOnUse"
       gradientTransform="matrix(0.93199686,0,0,0.93199687,1.175104,-247.51751)"
       x1="18.981825"
       y1="294.72055"
       x2="20.202982"
       y2="266.63391" />
  </defs>
  <sodipodi:namedview
     pagecolor="#ffffff"
     bordercolor="#666666"
     borderopacity="1"
     objecttolerance="10"
     gridtolerance="10"
     guidetolerance="10"
     inkscape:pageopacity="0"
     inkscape:pageshadow="2"
     inkscape:window-width="1366"
     inkscape:window-height="706"
     id="namedview26"
     showgrid="true"
     inkscape:zoom="5.2149125"
     inkscape:cx="-22.503231"
     inkscape:cy="19.767985"
     inkscape:window-x="0"
     inkscape:window-y="0"
     inkscape:window-maximized="1"
     inkscape:current-layer="g854">
    <inkscape:grid
       type="xygrid"
       id="grid843" />
  </sodipodi:namedview>
  <linearGradient
     id="a"
     gradientTransform="matrix(0.26458334,0,0,0.22982191,4.615978,-1.826154)"
     gradientUnits="userSpaceOnUse"
     x1="17.634766"
     x2="76.054688"
     y1="43.589844"
     y2="43.589844">
    <stop
       offset="0"
       stop-color="#3b3e22"
       id="stop2" />
    <stop
       offset="1"
       stop-color="#454545"
       stop-opacity="0"
       id="stop4" />
  </linearGradient>
  <linearGradient
     id="b"
     gradientTransform="matrix(0.93199686,0,0,0.93199687,1.175104,-247.51751)"
     gradientUnits="userSpaceOnUse"
     x1="18.981825"
     x2="20.202982"
     y1="294.72055"
     y2="266.63391">
    <stop
       offset="0"
       stop-color="#555"
       id="stop7" />
    <stop
       offset="1"
       id="stop9" />
  </linearGradient>
  <g
     id="g854"
     transform="scale(0.125)">
    <g
       id="text14"
       style="font-size:37.85318756px;font-family:sans-serif;letter-spacing:0;word-spacing:0;fill:url(#linearGradient858);stroke-width:0.946329"
       transform="scale(1.0729649,0.93199692)"
       aria-label="S">
      <path
         id="path840"
         style="font-size:39.83404541px;font-family:FreeSerif;fill:url(#linearGradient856);stroke-width:0.946329"
         d="m 20.701319,21.550218 q 0,-1.8722 -1.314523,-3.306225 -1.314524,-1.47386 -3.186724,-2.509545 -1.8722,-1.035685 -3.7444,-2.111205 Q 10.623306,12.50789 9.3087823,10.795026 7.9942588,9.0821621 7.9942588,6.8116216 q 0,-3.0273875 2.0315362,-4.8995876 Q 12.097165,-2.1362305e-7 14.885549,-2.1362305e-7 q 1.67303,0 3.624898,0.67717877362305 1.951868,0.67717874 2.350208,0.67717874 1.035686,0 1.27469,-1.35435751362305 H 22.97186 L 23.848209,8.4846515 h -0.995851 q -0.956017,-3.505396 -2.94772,-5.1784259 -1.951868,-1.67303 -4.341911,-1.67303 -1.832366,0 -2.987553,1.0356852 -1.155187,1.0356852 -1.155187,2.6688811 0,1.5933618 1.354357,3.0273874 1.354358,1.4340257 4.501247,3.1867237 3.943571,2.111204 5.696269,4.182575 1.752698,2.031536 1.752698,4.501247 0,3.067221 -2.350209,5.178426 -2.350208,2.07137 -5.775936,2.07137 -1.991703,0 -4.063073,-0.677179 -2.031536,-0.677178 -2.509545,-0.677178 -0.4381744,0 -0.7568467,0.39834 -0.3186724,0.358506 -0.3585065,0.916183 H 8.0340928 L 6.8390715,19.000839 h 0.916183 q 1.4738597,3.624899 3.4257275,5.337763 1.951869,1.712863 4.62075,1.712863 2.190872,0 3.54523,-1.234855 1.354357,-1.274689 1.354357,-3.266392 z"
         inkscape:connector-curvature="0" />
    </g>
    <path
       id="path16"
       d="m 15.971357,0.61166351 c -1.832895,0 -3.370409,0.52672169 -4.736145,1.62177049 -1.3138657,1.0517381 -1.9533692,2.3705088 -1.9533692,4.1143507 0,1.2924742 0.4171926,2.3802897 1.2655562,3.3404975 0.888666,1.0058248 1.945772,1.8290368 3.183785,2.4836028 1.33096,0.664051 2.661314,1.316767 3.992004,1.95618 0.985879,0.473727 1.872677,1.022902 2.659786,1.643765 a 31.963628,18.685739 0 0 0 3.402893,-1.017591 c -1.188473,-1.102482 -3.045708,-2.265558 -5.584155,-3.445981 a 0.70612327,0.61335153 0 0 1 -0.0098,-0.0049 C 15.906952,10.197871 14.249801,9.1899927 13.192217,8.2173182 12.13383,7.2439047 11.547873,6.1388757 11.547873,4.9751237 c 0,-1.1596182 0.510904,-2.1929689 1.474329,-2.9432466 0.964357,-0.7510038 2.231985,-1.12172837 3.675745,-1.12172837 1.874318,0 3.613249,0.58708317 5.117517,1.70705597 1.301225,0.9511005 2.219996,2.397388 2.923336,4.124226 L 24.043733,0.88637239 c -0.09236,0.15368951 -0.111419,0.35413301 -0.248047,0.48029191 -0.358633,0.3311514 -0.888032,0.5072241 -1.412317,0.5072241 -0.342495,0 -0.599622,-0.071056 -1.040763,-0.1813437 C 20.901464,1.5822566 20.334743,1.4229777 19.629532,1.2104573 18.292295,0.80747132 17.072841,0.61166351 15.971357,0.61166351 Z"
       style="fill:url(#a)"
       inkscape:connector-curvature="0" />
    <g
       id="g22"
       style="fill:#010101;stroke-width:0.26458299">
      <rect
         id="rect18"
         y="31.750002"
         width="33.866669"
         ry="0.60722399"
         rx="0.47207499"
         height="2.116667"
         x="0" />
      <rect
         id="rect20"
         y="27.516666"
         width="33.866669"
         ry="0.60722399"
         rx="0.47207499"
         height="2.116667"
         x="0" />
    </g>
  </g>
</svg>
