<svg height="128" viewBox="0 0 33.866666 33.866668" width="128" xmlns="http://www.w3.org/2000/svg" xmlns:xlink="http://www.w3.org/1999/xlink"><linearGradient id="a" gradientTransform="matrix(.26458334 0 0 .22982191 4.615978 -1.826154)" gradientUnits="userSpaceOnUse" x1="17.634766" x2="76.054688" y1="43.589844" y2="43.589844"><stop offset="0" stop-color="#3b3e22"/><stop offset="1" stop-color="#454545" stop-opacity="0"/></linearGradient><linearGradient id="b" gradientTransform="matrix(.93199686 0 0 .93199687 1.175104 -247.51751)" gradientUnits="userSpaceOnUse" x1="18.981824" x2="20.202981" y1="294.720547" y2="266.633911"><stop offset="0" stop-color="#555"/><stop offset="1"/></linearGradient><text style="font-size:37.853188;font-family:sans-serif;letter-spacing:0;word-spacing:0;stroke-width:.946329;fill:url(#b)" transform="scale(1.0729649 .93199692)" x="5.64405" y="26.927814"><tspan fill="url(#b)" font-family="FreeSerif" font-size="39.834045" stroke-width=".946329" x="5.64405" y="26.927814">S</tspan></text><path d="m15.971357.61166351c-1.832895 0-3.370409.52672169-4.736145 1.62177049-1.3138657 1.0517381-1.9533692 2.3705088-1.9533692 4.1143507 0 1.2924742.4171926 2.3802897 1.2655562 3.3404975.888666 1.0058248 1.945772 1.8290368 3.183785 2.4836028 1.33096.664051 2.661314 1.316767 3.992004 1.95618.985879.473727 1.872677 1.022902 2.659786 1.643765a31.963628 18.685739 0 0 0 3.402893-1.017591c-1.188473-1.102482-3.045708-2.265558-5.584155-3.445981a.70612327.61335153 0 0 1 -.0098-.0049c-2.28496-1.105487-3.942111-2.1133653-4.999695-3.0860398-1.058387-.9734135-1.644344-2.0784425-1.644344-3.2421945 0-1.1596182.510904-2.1929689 1.474329-2.9432466.964357-.7510038 2.231985-1.12172837 3.675745-1.12172837 1.874318 0 3.613249.58708317 5.117517 1.70705597 1.301225.9511005 2.219996 2.397388 2.923336 4.124226l-.695067-5.85505831c-.09236.15368951-.111419.35413301-.248047.48029191-.358633.3311514-.888032.5072241-1.412317.5072241-.342495 0-.599622-.071056-1.040763-.1813437-.441142-.1102881-1.007863-.269567-1.713074-.4820874-1.337237-.40298598-2.556691-.59879379-3.658175-.59879379z" fill="url(#a)"/><g fill="#010101" stroke-width=".264583"><rect height="2.116667" rx=".472075" ry=".607224" width="33.866668" y="31.750001"/><rect height="2.116667" rx=".472075" ry=".607224" width="33.866668" y="27.516667"/></g></svg>