<svg height="32" viewBox="0 0 8.4666665 8.4666669" width="32" xmlns="http://www.w3.org/2000/svg" xmlns:xlink="http://www.w3.org/1999/xlink"><linearGradient id="a" gradientUnits="userSpaceOnUse" x1="16" x2="16" y1="9" y2="25"><stop offset="0" stop-color="#fff"/><stop offset=".5" stop-color="#e5e5e5"/><stop offset=".75" stop-color="#fff"/><stop offset="1" stop-color="#fff"/></linearGradient><radialGradient id="b" cx="4.292778" cy="295.10779" gradientTransform="matrix(1.5505424 .00712283 -.0045951 1.0002906 -.991603 -.115357)" gradientUnits="userSpaceOnUse" r="2.910417"><stop offset="0" stop-color="#9ed7f9"/><stop offset=".41496989" stop-color="#2a83e6"/><stop offset="1" stop-color="#1535ae"/></radialGradient><radialGradient id="c" cx="4.233333" cy="292.76666" gradientTransform="matrix(.96891818 0 0 1 .13158 0)" gradientUnits="userSpaceOnUse" r="3.704167"><stop offset="0" stop-color="#fff" stop-opacity=".941176"/><stop offset=".87159902" stop-color="#fdfdfd" stop-opacity=".941176"/><stop offset=".91906315" stop-color="#dedede"/><stop offset="1" stop-color="#fff"/></radialGradient><filter id="d" color-interpolation-filters="sRGB" height="1.048" width="1.048" x="-.024" y="-.024"><feGaussianBlur stdDeviation=".22"/></filter><clipPath id="e"><circle cx="15.999999" cy="16.000034" r="11"/></clipPath><filter id="f" color-interpolation-filters="sRGB" height="1.072" width="1.072" x="-.036" y="-.036"><feGaussianBlur stdDeviation=".111125"/></filter><filter id="g" color-interpolation-filters="sRGB" height="1.096" width="1.096" x="-.048" y="-.048"><feGaussianBlur stdDeviation=".14816667"/></filter><linearGradient id="h" gradientUnits="userSpaceOnUse" x1="17.74828" x2="18.512112" y1="-2.078265" y2="18.655645"><stop offset="0" stop-color="#f1f7fe"/><stop offset="1" stop-color="#f1f7fe" stop-opacity="0"/></linearGradient><filter id="i" color-interpolation-filters="sRGB" height="1.032778" width="1.089616" x="-.044808" y="-.016389"><feGaussianBlur stdDeviation=".1184375"/></filter><filter id="j" color-interpolation-filters="sRGB" height="1.048" width="1.048" x="-.024" y="-.024"><feGaussianBlur stdDeviation=".061977925"/></filter><g transform="translate(0 -288.53332)"><circle cx="4.233333" cy="292.76666" fill="#252525" filter="url(#g)" opacity=".72" r="3.704167" transform="matrix(1.0583827 0 0 1.0583827 -.247153 -17.092488)"/><circle cx="4.233333" cy="292.76666" fill="#252525" filter="url(#f)" opacity=".89" r="3.704167" transform="matrix(1.0205327 0 0 1.0205327 -.086922 -6.011279)"/><circle cx="4.233333" cy="292.76666" fill="url(#c)" r="3.704167"/><circle cx="4.233333" cy="292.76666" fill="#fff" filter="url(#j)" r="3.098896"/><circle cx="4.233333" cy="292.76666" fill="url(#b)" r="2.910417"/><path d="m16 7.828125c-.568649 0-1.133061.2346231-1.535156.6367188-.402096.4020956-.636719.966507-.636719 1.5351562 0 .568649.234623 1.133061.636719 1.535156.402095.402096.966507.636719 1.535156.636719s1.133061-.234623 1.535156-.636719c.402096-.402095.636719-.966507.636719-1.535156 0-.5686492-.234623-1.1330606-.636719-1.5351562-.402095-.4020957-.966507-.6367188-1.535156-.6367188zm1.994141 4a.17209707.17209707 0 0 0 -.08789.02734c-.733591.477039-1.367514.63633-1.998047.720703-.622503.0833-1.245117.08978-1.923828.251953h-1.984376a.17209707.17209707 0 0 0 -.171875.171879v.5a.17209707.17209707 0 0 0 .117187.162109c.41582.140941.882083.252713 1.248047.392579.182983.06993.339505.147707.449219.230468.107279.08092.163003.159847.185547.248047v10.466797a.17209707.17209707 0 0 0 .171875.171875h4a.17209707.17209707 0 0 0 .171875-.171875v-13a.17209707.17209707 0 0 0 -.177734-.171875z" fill="#232a77" filter="url(#i)" opacity=".89" transform="matrix(.26458333 0 0 .26458333 .004428 288.6477)"/><path d="m16 8a1.9999999 1.9999999 0 0 0 -2 2 1.9999999 1.9999999 0 0 0 2 2 1.9999999 1.9999999 0 0 0 2-2 1.9999999 1.9999999 0 0 0 -2-2zm2 4c-1.51453.984869-2.668875.674583-4 1h-2v.5c.808769.274129 1.868785.443616 2 1v10.5h4z" fill="url(#a)" transform="matrix(.26458333 0 0 .26458333 0 288.53332)"/><path clip-path="url(#e)" d="m16 5a11 11 0 0 0 -11 11 11 11 0 0 0 11 11 11 11 0 0 0 11-11 11 11 0 0 0 -11-11zm0 .9003906a10.100583 10.100583 0 0 1 10.099609 10.0996094 10.100583 10.100583 0 0 1 -10.099609 10.101562 10.100583 10.100583 0 0 1 -10.0996094-10.101562 10.100583 10.100583 0 0 1 10.0996094-10.0996094z" fill="#1b285b" filter="url(#d)" transform="matrix(.26458333 0 0 .26458333 0 288.53332)"/><path d="m16 5.5351562a10.464435 10.464435 0 0 0 -10.4648438 10.4648438 10.464435 10.464435 0 0 0 2.1269532 6.308594 11.522721 8.4178558 40.03315 0 1 .7226562-9.646485 11.522721 8.4178558 40.03315 0 1 14.4433594 1.958985 11.522721 8.4178558 40.03315 0 1 3.207031 4.318359 10.464435 10.464435 0 0 0 .429688-2.939453 10.464435 10.464435 0 0 0 -10.464844-10.4648438z" fill="url(#h)" transform="matrix(.26458333 0 0 .26458333 0 288.53332)"/></g></svg>