<svg height="32" viewBox="0 0 8.4666665 8.4666669" width="32" xmlns="http://www.w3.org/2000/svg" xmlns:xlink="http://www.w3.org/1999/xlink"><radialGradient id="a" cx="4.292778" cy="295.10779" gradientTransform="matrix(1.5505424 .00712283 -.0045951 1.0002906 -.991603 -.115357)" gradientUnits="userSpaceOnUse" r="2.910417"><stop offset="0" stop-color="#9ed7f9"/><stop offset=".41496989" stop-color="#2a83e6"/><stop offset="1" stop-color="#1535ae"/></radialGradient><radialGradient id="b" cx="4.233333" cy="292.76666" gradientTransform="matrix(.96891818 0 0 1 .13158 0)" gradientUnits="userSpaceOnUse" r="3.704167"><stop offset="0" stop-color="#fff" stop-opacity=".941176"/><stop offset=".87159902" stop-color="#fdfdfd" stop-opacity=".941176"/><stop offset=".91906315" stop-color="#dedede"/><stop offset="1" stop-color="#fff"/></radialGradient><filter id="c" color-interpolation-filters="sRGB" height="1.048" width="1.048" x="-.024" y="-.024"><feGaussianBlur stdDeviation=".22"/></filter><clipPath id="d"><circle cx="15.999999" cy="16.000034" r="11"/></clipPath><filter id="e" color-interpolation-filters="sRGB" height="1.072" width="1.072" x="-.036" y="-.036"><feGaussianBlur stdDeviation=".111125"/></filter><filter id="f" color-interpolation-filters="sRGB" height="1.096" width="1.096" x="-.048" y="-.048"><feGaussianBlur stdDeviation=".14816667"/></filter><linearGradient id="g" gradientUnits="userSpaceOnUse" x1="17.74828" x2="18.512112" y1="-2.078265" y2="18.655645"><stop offset="0" stop-color="#f1f7fe"/><stop offset="1" stop-color="#f1f7fe" stop-opacity="0"/></linearGradient><filter id="h" color-interpolation-filters="sRGB" height="1.048" width="1.048" x="-.024" y="-.024"><feGaussianBlur stdDeviation=".061977925"/></filter><linearGradient id="i" gradientUnits="userSpaceOnUse" x1="2.798056" x2="5.407559" y1="292.90186" y2="292.90186"><stop offset="0" stop-color="#fff"/><stop offset=".5" stop-color="#e5e5e5"/><stop offset=".75" stop-color="#fff"/><stop offset="1" stop-color="#fff"/></linearGradient><filter id="j" color-interpolation-filters="sRGB" height="1.159484" width="1.24117" x="-.120585" y="-.079742"><feGaussianBlur stdDeviation=".13111126"/></filter><g transform="translate(0 -288.53332)"><circle cx="4.233333" cy="292.76666" fill="#252525" filter="url(#f)" opacity=".72" r="3.704167" transform="matrix(1.0583827 0 0 1.0583827 -.247153 -17.092488)"/><circle cx="4.233333" cy="292.76666" fill="#252525" filter="url(#e)" opacity=".89" r="3.704167" transform="matrix(1.0205327 0 0 1.0205327 -.086922 -6.011279)"/><circle cx="4.233333" cy="292.76666" fill="url(#b)" r="3.704167"/><circle cx="4.233333" cy="292.76666" fill="#fff" filter="url(#h)" r="3.098896"/><circle cx="4.233333" cy="292.76666" fill="url(#a)" r="2.910417"/><path clip-path="url(#d)" d="m16 5a11 11 0 0 0 -11 11 11 11 0 0 0 11 11 11 11 0 0 0 11-11 11 11 0 0 0 -11-11zm0 .9003906a10.100583 10.100583 0 0 1 10.099609 10.0996094 10.100583 10.100583 0 0 1 -10.099609 10.101562 10.100583 10.100583 0 0 1 -10.0996094-10.101562 10.100583 10.100583 0 0 1 10.0996094-10.0996094z" fill="#1b285b" filter="url(#c)" transform="matrix(.26458333 0 0 .26458333 0 288.53332)"/><g fill="#1c215e" filter="url(#j)" opacity=".97" stroke-width=".132597" transform="translate(0 .115849)"><path d="m2.7980562 292.32375q.0053-.34475.090166-.60464.090166-.25989.2174586-.4031.1325967-.14851.3129282-.23867.1803315-.0902.3341437-.11669.159116-.0318.3341436-.0318.5834255 0 .9493924.33945.3712707.33945.3712707.88044 0 .33414-.1325967.5516-.1325967.21746-.5038674.47735-.2386741.16972-.2970166.2705-.058343.10077-.058343.36066h-.6576795v-.0743q0-.2652.090166-.46144.09547-.20155.2280663-.32354.1325967-.12198.2651934-.22806.1325967-.10608.2227625-.24398.09547-.1379.09547-.31293 0-.25989-.1591161-.43492-.159116-.17502-.39779-.17502-.2492818 0-.4190056.20154-.1644199.20155-.1644199.50918v.0477.0106zm1.7025415 1.77679v.77437h-.7955801v-.77437z" fill="#1c215e" stroke-width=".132597"/></g><path d="m2.7980562 292.32375q.0053-.34475.090166-.60464.090166-.25989.2174586-.4031.1325967-.14851.3129282-.23867.1803315-.0902.3341437-.11669.159116-.0318.3341436-.0318.5834255 0 .9493924.33945.3712707.33945.3712707.88044 0 .33414-.1325967.5516-.1325967.21746-.5038674.47735-.2386741.16972-.2970166.2705-.058343.10077-.058343.36066h-.6576795v-.0743q0-.2652.090166-.46144.09547-.20155.2280663-.32354.1325967-.12198.2651934-.22806.1325967-.10608.2227625-.24398.09547-.1379.09547-.31293 0-.25989-.1591161-.43492-.159116-.17502-.39779-.17502-.2492818 0-.4190056.20154-.1644199.20155-.1644199.50918v.0477.0106zm1.7025415 1.77679v.77437h-.7955801v-.77437z" fill="url(#i)"/><path d="m16 5.5351562a10.464435 10.464435 0 0 0 -10.4648438 10.4648438 10.464435 10.464435 0 0 0 2.1269532 6.308594 11.522721 8.4178558 40.03315 0 1 .7226562-9.646485 11.522721 8.4178558 40.03315 0 1 14.4433594 1.958985 11.522721 8.4178558 40.03315 0 1 3.207031 4.318359 10.464435 10.464435 0 0 0 .429688-2.939453 10.464435 10.464435 0 0 0 -10.464844-10.4648438z" fill="url(#g)" transform="matrix(.26458333 0 0 .26458333 0 288.53332)"/></g></svg>