<svg height="32" width="32" xmlns="http://www.w3.org/2000/svg" xmlns:xlink="http://www.w3.org/1999/xlink"><linearGradient id="a"><stop offset="0" stop-color="#90906f"/><stop offset="1" stop-color="#ff0" stop-opacity="0"/></linearGradient><linearGradient id="b"><stop offset="0" stop-color="#fff"/><stop offset="1" stop-color="#fff" stop-opacity="0"/></linearGradient><linearGradient id="c"><stop offset="0" stop-color="#ffd500"/><stop offset="1" stop-color="#ff9" stop-opacity="0"/></linearGradient><filter id="d"><feGaussianBlur stdDeviation=".45503695"/></filter><filter id="e" height="1.143004" width="1.203585" x="-.101793" y="-.071502"><feGaussianBlur stdDeviation=".35786462"/></filter><filter id="f"><feGaussianBlur stdDeviation="1.4432763"/></filter><filter id="g" height="1.060792" width="1.228119" x="-.114059" y="-.030396"><feGaussianBlur stdDeviation=".8554453"/></filter><linearGradient id="h" gradientTransform="matrix(1.0978587 0 0 1.1719753 -5.815305 -5.993361)" gradientUnits="userSpaceOnUse" x1="56.87429" x2="72.923073" xlink:href="#b" y1="22.873119" y2="77.707237"/><linearGradient id="i" gradientUnits="userSpaceOnUse" x1="67.765436" x2="67.765436" y1="33.871536" y2="109.096942"><stop offset="0" stop-color="#161616"/><stop offset="1" stop-color="#505050"/></linearGradient><linearGradient id="j" gradientTransform="matrix(1.0896285 0 0 1.1719753 -5.715232 -6.332342)" gradientUnits="userSpaceOnUse" x1="65.980019" x2="67.189468" xlink:href="#b" y1="15.087444" y2="82.910049"/><radialGradient id="k" cx="63.683678" cy="85.945168" gradientTransform="matrix(4.4272065 -.46531724 .16095984 1.5314308 -231.33258 -4.938616)" gradientUnits="userSpaceOnUse" r="48.004356"><stop offset="0" stop-color="#ff0"/><stop offset="1" stop-color="#ff7e00"/></radialGradient><radialGradient id="l" cx="22.004967" cy="102" gradientTransform="matrix(-8.851893 -5.1108385 -.58362456 1.010906 367.35554 122.33407)" gradientUnits="userSpaceOnUse" r="5.995033" xlink:href="#c"/><radialGradient id="m" cx="22.004967" cy="102" gradientTransform="matrix(8.851893 -5.1108385 .58362456 1.010906 -238.17477 122.33407)" gradientUnits="userSpaceOnUse" r="5.995033" xlink:href="#c"/><radialGradient id="n" cx="64.025276" cy="25.956657" gradientTransform="matrix(1.5031086 -.05248971 .03599485 1.0307571 -32.704205 2.092981)" gradientUnits="userSpaceOnUse" r="52.025276"><stop offset="0" stop-color="#ea3b18"/><stop offset="1" stop-color="#ea3b18" stop-opacity="0"/></radialGradient><linearGradient id="o" gradientTransform="matrix(1.0683803 0 0 1.166327 -3.909281 -5.98269)" gradientUnits="userSpaceOnUse" x1="74.685875" x2="74.685875" y1="37.71302" y2="108.00891"><stop offset="0" stop-color="#fd0"/><stop offset="1" stop-color="#e15800"/></linearGradient><radialGradient id="p" cx="63.75" cy="74.355972" gradientTransform="matrix(4.5093795 0 0 1.3282315 -223.72294 -5.511939)" gradientUnits="userSpaceOnUse" r="9" xlink:href="#a"/><linearGradient id="q" gradientUnits="userSpaceOnUse" x1="72.742889" x2="72.742889" y1="102.71508" y2="42.471062"><stop offset="0" stop-color="#ffffbf"/><stop offset="1" stop-color="#ffffbf" stop-opacity="0"/></linearGradient><radialGradient id="r" cx="63.75" cy="68.477737" gradientTransform="matrix(4.5093795 0 0 4.2142344 -223.72294 -220.10349)" gradientUnits="userSpaceOnUse" r="9" xlink:href="#a"/><radialGradient id="s" cx="64" cy="21.994045" gradientTransform="matrix(-1 0 0 -12.343127 128 293.46933)" gradientUnits="userSpaceOnUse" r="4.21875" xlink:href="#b"/><linearGradient id="t" gradientUnits="userSpaceOnUse" x1="64.653976" x2="82.169357" y1="20.939892" y2="149.0795"><stop offset="0" stop-color="#ffc404"/><stop offset="1" stop-color="#ffc404" stop-opacity="0"/></linearGradient><linearGradient id="u" gradientUnits="userSpaceOnUse" x1="86.821642" x2="61.570547" xlink:href="#b" y1="83.859635" y2="45.553672"/><g transform="scale(.25)"><g fill-rule="evenodd"><path d="m63.594525 15.80685c-2.506042.148021-4.772901 1.659513-6.024187 4.016797l-40.779116 76.319161c-1.324729 2.487114-1.323664 5.551202.0028 8.037242 1.326458 2.48602 3.776617 4.01599 6.426867 4.01315h81.558231c2.65026.003 5.10041-1.52713 6.42686-4.01315 1.32646-2.48604 1.32753-5.550128.003-8.037242l-40.779319-76.319161c-1.395799-2.629717-4.039592-4.183392-6.835136-4.016797z" style="fill:#ffc404;stroke-width:1.820682;stroke-linecap:round;stroke-linejoin:round;stroke:url(#t);filter:url(#f)" transform="matrix(1.1713436 0 0 1.1751209 -10.525947 -6.046408)"/><path d="m63.999633 12.678541c-2.888878.17192-5.502031 1.927442-6.944472 4.665309l-47.008726 88.64085c-1.5271012 2.88866-1.5258738 6.44744.0032 9.33484 1.529093 2.8874 4.353551 4.66437 7.408665 4.66107h94.01745c3.0551.003 5.87956-1.77367 7.40866-4.66107 1.52908-2.8874 1.53031-6.44618.003-9.33484l-47.008474-88.64085c-1.609028-3.054285-4.656699-4.858801-7.879303-4.665309z" fill="url(#o)"/><path d="m63.999633 12.678541c-2.888878.17192-5.502031 1.927442-6.944472 4.665309l-47.008726 88.64085c-1.5271012 2.88866-1.5258738 6.44744.0032 9.33484 1.529093 2.8874 4.353551 4.66437 7.408665 4.66107h94.01745c3.0551.003 5.87956-1.77367 7.40866-4.66107 1.52908-2.8874 1.53031-6.44618.003-9.33484l-47.008474-88.64085c-1.609028-3.054285-4.656699-4.858801-7.879303-4.665309z" fill="url(#n)" opacity=".367347"/><path d="m63.59375 16c-1.389197.08205-2.704285.602887-3.8125 1.4375l4.21875 10.5625 4.21875-10.5625c-1.32888-1.00366-2.94755-1.537464-4.625-1.4375z" fill="url(#s)" filter="url(#e)" opacity=".921951" transform="matrix(1.1662823 0 0 1.166327 -11.659531 -5.98269)"/><path d="m23.132452 105.9847-13.7038167 2.29619c-.5652677 2.34522-.2750579 4.87945.8747117 7.03442 1.540555 2.88741 4.393484 4.6686 7.471496 4.6653h3.025046z" fill="url(#m)" opacity=".80102"/><path d="m106.04833 105.9847 13.70382 2.29619c.56526 2.34522.27505 4.87945-.87473 7.03442-1.54055 2.88741-4.39347 4.6686-7.47149 4.6653h-3.02504z" fill="url(#l)" opacity=".719388"/><path d="m64.207192 17.446164c-1.450839.08662-2.763207.971166-3.487622 2.350677l-47.217052 89.325689c-.766935 1.45548-.766321 3.24864.0016 4.70349.767932 1.45484 2.18642 2.3502 3.720746 2.34854h94.434106c1.53433.002 2.95283-.8937 3.72074-2.34854.76795-1.45485.76857-3.24801.002-4.70349l-47.217405-89.325689c-.808081-1.538941-2.338669-2.448172-3.957113-2.350677z" fill="url(#k)"/><path d="m64.347656 19.791016c-.584266.03488-1.175296.386334-1.548828 1.097656a2.3495336 2.3495336 0 0 1 -.0039.0059l-47.21485 89.324178c-.395657.75087-.394429 1.76076.002 2.51172.396009.75023 1.020926 1.09442 1.640625 1.09375a2.3495336 2.3495336 0 0 1 .002 0h94.433497a2.3495336 2.3495336 0 0 1 .004 0c.61904.00081 1.24263-.34343 1.63867-1.09375a2.3495336 2.3495336 0 0 1 0-.002c.39624-.75066.39764-1.75848.002-2.50977l-47.214979-89.324169a2.3495336 2.3495336 0 0 1 -.0039-.0059c-.417701-.795433-1.082592-1.136996-1.736335-1.097615z" fill="#ffffd6"/></g><path d="m63.40625 36.71875c-3.140028.195138-6.074262 2.545546-5.53125 7.28125l3.375853 37.398575c.751589-.127399 1.524822-.21875 2.3125-.21875.94875 0 1.886426.09799 2.78125.28125l3.749147-37.461075c.690281-4.956492-3.128802-7.502406-6.6875-7.28125z" fill="none" filter="url(#g)" opacity=".75" stroke="url(#r)" stroke-width="4" transform="matrix(1.0732122 0 0 1.0732122 -4.243646 -4.025205)"/><path d="m63.78125 20c-1.351989.0737-2.574941.826287-3.25 2l-44 76c-.714681 1.238357-.714106 2.764.0015 4.00181.715621 1.23782 2.037462 1.9996 3.46725 1.99819h88c1.42979.001 2.75163-.76037 3.46724-1.99819.71562-1.23781.71619-2.763453.002-4.00181l-44-76c-.753022-1.30936-2.179327-2.082949-3.6875-2z" style="fill:none;stroke-width:.954652;stroke-linecap:round;stroke-linejoin:round;stroke:url(#q);filter:url(#d)" transform="matrix(1.0712958 0 0 1.1797008 -4.512361 -6.919472)"/><path d="m63.782641 17.107163c-1.473165.08637-2.805729.968388-3.541292 2.34395l-27.887684 51.823276h.03406l27.853631-50.468181c.735563-1.340908 2.068127-2.186501 3.54129-2.270703 1.643351-.09477 3.197494.774826 4.018007 2.270703l27.070455 49.003213c.01076-.0023.02319.0025.03405 0l-27.104508-50.358308c-.820514-1.534539-2.374658-2.441164-4.018006-2.34395z" fill="url(#j)" fill-rule="evenodd"/><path d="m63.563353 87.929825c-3.864 0-7 3.136-7 7s3.136 7.000005 7 7.000005 7-3.136005 7-7.000005-3.136-7-7-7z" fill="none" filter="url(#g)" opacity=".75" stroke="url(#p)" stroke-width="4" transform="matrix(1.0732122 0 0 1.0732122 -4.243646 -4.025205)"/><path d="m63.804716 35.381806c-3.369916.209425-6.518972 2.73191-5.936205 7.814326l3.623007 40.136609c.806614-.136727 1.636457-.234766 2.481801-.234766 1.018211 0 2.024538.105162 2.984872.301841l4.023631-40.203684c.740819-5.319369-3.357868-8.051675-7.177106-7.814326zm.168603 54.960352c-4.146891 0-7.512485 3.365592-7.512485 7.512488 0 4.146894 3.365594 7.512504 7.512485 7.512504 4.146895 0 7.512488-3.36561 7.512488-7.512504 0-4.146896-3.365593-7.512488-7.512488-7.512488z" fill="url(#i)"/><g fill-rule="evenodd"><path d="m64.207498 17.446143c-1.484292.08638-2.82692.968387-3.56804 2.34395l-28.098326 51.823278c8.617797 1.357834 17.873429 2.087579 27.515088 2.087579 12.69928 0 24.730682-1.262237 35.50887-3.552549l-27.309238-50.358308c-.82671-1.534537-2.392593-2.441164-4.048354-2.34395z" fill="url(#h)" opacity=".867347"/><path d="m64.791947 18.177146c1.263803.187773 2.389932.988416 3.040877 2.19074l26.027298 47.73851c-10.26718 2.170971-21.744841 3.367854-33.842027 3.367853-9.07634 0-17.769886-.703812-25.896508-1.961858l-.78474 1.438696c8.401881 1.323812 17.411945 2.059948 26.812039 2.059948 12.381108.000004 24.118621-1.233017 34.626766-3.465945l-26.615853-49.111809c-.705249-1.309081-1.983182-2.129991-3.367852-2.256135z" fill="url(#u)"/></g></g></svg>