<?xml version="1.0" encoding="UTF-8" standalone="no"?>
<svg
   xmlns:i="http://ns.adobe.com/AdobeIllustrator/10.0/"
   xmlns:dc="http://purl.org/dc/elements/1.1/"
   xmlns:cc="http://creativecommons.org/ns#"
   xmlns:rdf="http://www.w3.org/1999/02/22-rdf-syntax-ns#"
   xmlns:svg="http://www.w3.org/2000/svg"
   xmlns="http://www.w3.org/2000/svg"
   xmlns:xlink="http://www.w3.org/1999/xlink"
   xmlns:sodipodi="http://sodipodi.sourceforge.net/DTD/sodipodi-0.dtd"
   xmlns:inkscape="http://www.inkscape.org/namespaces/inkscape"
   enable-background="new 0 0 128 128"
   height="32"
   viewBox="0 0 32 32"
   width="32"
   version="1.1"
   id="svg134"
   sodipodi:docname="hldocntp.svg"
   inkscape:version="0.92.4 (unknown)"
   inkscape:export-filename="/home/rizmut/Dokumen/Rizmut/Github/libreoffice-style-karasa-jaga/build/next/res/hldocntp.png"
   inkscape:export-xdpi="96"
   inkscape:export-ydpi="96">
  <metadata
     id="metadata140">
    <rdf:RDF>
      <cc:Work
         rdf:about="">
        <dc:format>image/svg+xml</dc:format>
        <dc:type
           rdf:resource="http://purl.org/dc/dcmitype/StillImage" />
        <dc:title></dc:title>
      </cc:Work>
    </rdf:RDF>
  </metadata>
  <defs
     id="defs138">
    <filter
       id="filter4861"
       inkscape:collect="always">
      <feGaussianBlur
         id="feGaussianBlur4863"
         stdDeviation="2.2559242"
         inkscape:collect="always" />
    </filter>
    <filter
       id="filter4843"
       inkscape:collect="always">
      <feGaussianBlur
         id="feGaussianBlur4845"
         stdDeviation="1.0616114"
         inkscape:collect="always" />
    </filter>
    <linearGradient
       inkscape:collect="always"
       xlink:href="#XMLID_2_"
       id="linearGradient5142"
       gradientUnits="userSpaceOnUse"
       x1="28"
       y1="57.5"
       x2="28"
       y2="0" />
    <linearGradient
       id="XMLID_2_"
       gradientUnits="userSpaceOnUse"
       x1="28"
       y1="57.5"
       x2="28"
       y2="0">
      <stop
         offset="0"
         style="stop-color:#FFEA00"
         id="stop12-3" />
      <stop
         offset="1"
         style="stop-color:#FFCC00"
         id="stop14-6" />
    </linearGradient>
    <linearGradient
       inkscape:collect="always"
       xlink:href="#linearGradient18668"
       id="linearGradient4758"
       gradientUnits="userSpaceOnUse"
       gradientTransform="translate(137.76326,-44.632742)"
       x1="-39.53125"
       y1="78"
       x2="-39.53125"
       y2="51.1875" />
    <linearGradient
       y2="0"
       x2="28"
       y1="57.5"
       x1="28"
       gradientUnits="userSpaceOnUse"
       id="linearGradient18668">
      <stop
         id="stop18670"
         style="stop-color:#fff8a8;stop-opacity:1;"
         offset="0" />
      <stop
         id="stop18672"
         style="stop-color:white;stop-opacity:0;"
         offset="1" />
    </linearGradient>
  </defs>
  <sodipodi:namedview
     pagecolor="#ffffff"
     bordercolor="#666666"
     borderopacity="1"
     objecttolerance="10"
     gridtolerance="10"
     guidetolerance="10"
     inkscape:pageopacity="0"
     inkscape:pageshadow="2"
     inkscape:window-width="1366"
     inkscape:window-height="714"
     id="namedview136"
     showgrid="true"
     inkscape:zoom="7.375"
     inkscape:cx="-2.0939084"
     inkscape:cy="19.141286"
     inkscape:window-x="0"
     inkscape:window-y="28"
     inkscape:window-maximized="1"
     inkscape:current-layer="g1538">
    <inkscape:grid
       type="xygrid"
       id="grid142" />
  </sodipodi:namedview>
  <linearGradient
     id="a"
     gradientUnits="userSpaceOnUse"
     x1="88.591797"
     x2="71.262016"
     y1="96.592697"
     y2="79.262917">
    <stop
       offset="0"
       stop-color="#fff"
       id="stop2" />
    <stop
       offset="1"
       stop-color="#555753"
       id="stop4" />
  </linearGradient>
  <linearGradient
     id="b"
     gradientUnits="userSpaceOnUse"
     x1="85.219681"
     x2="61.336319"
     y1="93.219681"
     y2="69.336319">
    <stop
       offset="0"
       id="stop7" />
    <stop
       offset="1"
       stop-color="#393b38"
       id="stop9" />
  </linearGradient>
  <linearGradient
     id="c"
     gradientUnits="userSpaceOnUse"
     x1="96"
     x2="88.000198"
     y1="104"
     y2="96.000198">
    <stop
       offset="0"
       stop-color="#888a85"
       id="stop12" />
    <stop
       offset=".0072"
       stop-color="#8c8e89"
       id="stop14" />
    <stop
       offset=".0673"
       stop-color="#abaca9"
       id="stop16" />
    <stop
       offset=".1347"
       stop-color="#c5c6c4"
       id="stop18" />
    <stop
       offset=".2115"
       stop-color="#dbdbda"
       id="stop20" />
    <stop
       offset=".3012"
       stop-color="#ebebeb"
       id="stop22" />
    <stop
       offset=".4122"
       stop-color="#f7f7f6"
       id="stop24" />
    <stop
       offset=".5679"
       stop-color="#fdfdfd"
       id="stop26" />
    <stop
       offset="1"
       stop-color="#fff"
       id="stop28" />
  </linearGradient>
  <radialGradient
     id="d"
     cx="102"
     cy="112.3047"
     gradientTransform="matrix(0.9787234,0,0,0.9818182,13.361696,1.163636)"
     gradientUnits="userSpaceOnUse"
     r="139.55859">
    <stop
       offset="0"
       stop-color="#535557"
       id="stop31" />
    <stop
       offset=".11366145"
       stop-color="#898a8c"
       id="stop33" />
    <stop
       offset=".20296688"
       stop-color="#ececec"
       id="stop35" />
    <stop
       offset=".2363"
       stop-color="#fafafa"
       id="stop37" />
    <stop
       offset=".2722"
       stop-color="#fff"
       id="stop39" />
    <stop
       offset=".5313"
       stop-color="#fafafa"
       id="stop41" />
    <stop
       offset=".8449"
       stop-color="#ebecec"
       id="stop43" />
    <stop
       offset="1"
       stop-color="#e1e2e3"
       id="stop45" />
  </radialGradient>
  <radialGradient
     id="e"
     cx="113.99999"
     cy="112.3047"
     gradientUnits="userSpaceOnUse"
     r="139.5585">
    <stop
       offset="0"
       stop-color="#00537d"
       id="stop48" />
    <stop
       offset=".0151"
       stop-color="#186389"
       id="stop50" />
    <stop
       offset=".0558"
       stop-color="#558ca8"
       id="stop52" />
    <stop
       offset=".0964"
       stop-color="#89afc3"
       id="stop54" />
    <stop
       offset=".1357"
       stop-color="#b3ccd8"
       id="stop56" />
    <stop
       offset=".1737"
       stop-color="#d4e2e9"
       id="stop58" />
    <stop
       offset=".2099"
       stop-color="#ecf2f5"
       id="stop60" />
    <stop
       offset=".2435"
       stop-color="#fafcfd"
       id="stop62" />
    <stop
       offset=".2722"
       stop-color="#fff"
       id="stop64" />
  </radialGradient>
  <filter
     id="f">
    <feGaussianBlur
       stdDeviation="1.0394514"
       id="feGaussianBlur67" />
  </filter>
  <filter
     id="g">
    <feGaussianBlur
       stdDeviation=".50063244"
       id="feGaussianBlur70" />
  </filter>
  <filter
     id="h">
    <feGaussianBlur
       stdDeviation=".40750996"
       id="feGaussianBlur73" />
  </filter>
  <filter
     id="i">
    <feGaussianBlur
       stdDeviation=".4901192"
       id="feGaussianBlur76" />
  </filter>
  <filter
     id="j">
    <feGaussianBlur
       stdDeviation=".90565481"
       id="feGaussianBlur79" />
  </filter>
  <linearGradient
     id="k"
     gradientTransform="matrix(.75 0 0 .77142856 -31.711139 19.137076)"
     gradientUnits="userSpaceOnUse"
     x1="154.28152"
     x2="154.28152"
     y1="104.82231"
     y2="115.19268">
    <stop
       offset="0"
       stop-color="#f60"
       id="stop82" />
    <stop
       offset="1"
       stop-color="#ffa263"
       id="stop84" />
  </linearGradient>
  <linearGradient
     id="l"
     gradientUnits="userSpaceOnUse"
     x1="24"
     x2="24"
     y1="136"
     y2="-64">
    <stop
       offset="0"
       stop-color="#8e79b9"
       id="stop87" />
    <stop
       offset="1"
       stop-color="#462886"
       id="stop89" />
  </linearGradient>
  <g
     transform="matrix(0.25,0,0,0.25,-3,0)"
     id="g132">
    <path
       d="m 23,9 0.04082,112 h 61.131184 c 0.53,0 1.039,-0.211 1.414,-0.586 L 118.414,87.586 C 118.789,87.211 119,86.702 119,86.172 V 9 Z"
       transform="matrix(1.0416667,0,0,1.0357143,2.041658,-3.321534)"
       id="path92"
       inkscape:connector-curvature="0"
       style="opacity:0.30684904;filter:url(#f)" />
    <path
       d="M 24.919999,10.931136 V 119.06907 l 58.676001,-1e-4 c 0.53,0 1.039,-0.211 1.414,-0.586 l 31.484,-31.765936 c 0.375,-0.375 0.586,-0.884 0.586,-1.414 V 10.931136 Z"
       transform="matrix(1.0416667,0,0,1.0357143,2.041658,-3.321534)"
       id="path94"
       inkscape:connector-curvature="0"
       style="opacity:0.89589;filter:url(#g)" />
    <path
       d="M 23,9.9655172 23.040816,121 H 84.172 c 0.53,0 1.039,-0.211 1.414,-0.586 L 118.414,87.586 C 118.789,87.211 119,86.702 119,86.172 V 9.9655172 Z"
       transform="matrix(1.0416667,0,0,1.0357143,2.041658,-3.321534)"
       id="path96"
       inkscape:connector-curvature="0"
       style="opacity:0.30684904;filter:url(#f)" />
    <path
       d="m 27.999993,8 v 112 h 61.172 c 0.53,0 1.039,-0.211 1.414,-0.586 L 123.41399,86.586 c 0.375,-0.375 0.586,-0.884 0.586,-1.414 V 8 Z"
       id="path98"
       style="fill:url(#e)"
       inkscape:connector-curvature="0" />
    <path
       d="m 31.678716,10.7 c -0.539276,0 -0.978723,0.440836 -0.978723,0.981818 l -0.7,105.336362 c 0,0.54197 0.439447,0.98182 0.978723,0.98182 h 57.913022 c 0.257404,0 0.509915,-0.10407 0.691957,-0.28767 L 121.71322,85.4812 c 0.18303,-0.1836 0.28677,-0.435927 0.28677,-0.694145 V 10.981818 C 121.99999,10.440836 121.56152,10 121.02127,10 Z"
       id="path100"
       style="fill:url(#d)"
       inkscape:connector-curvature="0" />
    <path
       d="M 40.5,84 H 112 v 4.000002 H 40.5 Z"
       id="path102"
       inkscape:connector-curvature="0"
       style="fill:#b3b3b3" />
    <g
       transform="translate(11.999994)"
       id="g114">
      <path
         d="M 111.414,86.586 C 111.664,86.336 85.035,85 80,85 c -1.654,0 -3,1.346 -3,3 0,5.035 1.336,31.664 1.586,31.414 z"
         id="path106"
         style="opacity:0.1;fill:url(#a);filter:url(#h)"
         inkscape:connector-curvature="0" />
      <path
         d="M 111.414,86.586 C 111.789,86.211 89.444,86 80,86 c -1.103,0 -2,0.897 -2,2 0,9.444 0.211,31.789 0.586,31.414 z"
         id="path108"
         inkscape:connector-curvature="0"
         style="opacity:0.2;filter:url(#j)" />
      <path
         d="M 111.414,86.586 C 111.653,86.347 89.807,87 80,87 c -0.553,0 -1,0.447 -1,1 0,9.807 -0.653,31.653 -0.414,31.414 z"
         id="path110"
         style="opacity:0.1;fill:url(#b);filter:url(#i)"
         inkscape:connector-curvature="0" />
      <path
         d="m 78.586,119.414 c 0,0 11.914,-9.914 17.414,-15.414 5.5,-5.5 15.414,-17.414 15.414,-17.414 0,0 -21.164,1.414 -31.414,1.414 0,10.25 -1.414,31.414 -1.414,31.414 z"
         id="path112"
         style="fill:url(#c)"
         inkscape:connector-curvature="0" />
    </g>
    <path
       d="m 40,36 h 72 v 3.999999 H 40 Z"
       id="path116"
       inkscape:connector-curvature="0"
       style="fill:#b3b3b3" />
    <path
       style="fill:#b3b3b3"
       inkscape:connector-curvature="0"
       id="path120"
       d="m 40,51.999996 h 72 v 4.000005 H 40 Z" />
    <path
       style="fill:#b3b3b3"
       inkscape:connector-curvature="0"
       id="path122"
       d="m 40,68 h 72 v 4.000001 H 40 Z" />
    <g
       id="g1538"
       transform="translate(12)">
      <g
         style="fill:none;stroke:#ffc527;stroke-width:2.15384722;stroke-linejoin:round;stroke-miterlimit:4;stroke-dasharray:none;stroke-opacity:1;filter:url(#filter4861)"
         i:extraneous="self"
         id="g4847"
         transform="matrix(0.928571,0,0,0.928571,72.221875,4.556228)">
        <linearGradient
           id="linearGradient4849"
           gradientUnits="userSpaceOnUse"
           x1="28"
           y1="57.5"
           x2="28"
           y2="0">
          <stop
             offset="0"
             style="stop-color:#FFEA00"
             id="stop4851" />
          <stop
             offset="1"
             style="stop-color:#FFCC00"
             id="stop4853" />
        </linearGradient>
        <polygon
           points="24.399,41.438 14,52.249 18.163,37.837 3.751,42 14.562,31.601 0,28 14.562,24.399 3.751,14 18.163,18.163 14,3.751 24.399,14.562 28,0 28,0 31.601,14.562 42,3.751 37.837,18.163 52.249,14 41.438,24.399 56,28 41.438,31.601 52.249,42 37.837,37.837 42,52.249 31.601,41.438 28,56 "
           id="polygon4855"
           style="fill:none;stroke:#ffc527;stroke-width:2.15384722;stroke-linejoin:round;stroke-miterlimit:4;stroke-dasharray:none;stroke-opacity:1" />
      </g>
      <g
         transform="matrix(0.928571,0,0,0.928571,72.221875,4.556228)"
         id="g4253"
         i:extraneous="self"
         style="fill:none;stroke:#bf5e00;stroke-width:2.15384722;stroke-linejoin:round;stroke-miterlimit:4;stroke-dasharray:none;stroke-opacity:1;filter:url(#filter4843)">
        <linearGradient
           y2="0"
           x2="28"
           y1="57.5"
           x1="28"
           gradientUnits="userSpaceOnUse"
           id="linearGradient4255">
          <stop
             id="stop4257"
             style="stop-color:#FFEA00"
             offset="0" />
          <stop
             id="stop4259"
             style="stop-color:#FFCC00"
             offset="1" />
        </linearGradient>
        <polygon
           style="fill:none;stroke:#bf5e00;stroke-width:2.15384722;stroke-linejoin:round;stroke-miterlimit:4;stroke-dasharray:none;stroke-opacity:1"
           id="polygon4261"
           points="24.399,41.438 14,52.249 18.163,37.837 3.751,42 14.562,31.601 0,28 14.562,24.399 3.751,14 18.163,18.163 14,3.751 24.399,14.562 28,0 28,0 31.601,14.562 42,3.751 37.837,18.163 52.249,14 41.438,24.399 56,28 41.438,31.601 52.249,42 37.837,37.837 42,52.249 31.601,41.438 28,56 " />
      </g>
      <g
         i:extraneous="self"
         id="g4263"
         transform="matrix(0.928571,0,0,0.928571,72.221875,4.556228)">
        <linearGradient
           id="linearGradient4265"
           gradientUnits="userSpaceOnUse"
           x1="28"
           y1="57.5"
           x2="28"
           y2="0">
          <stop
             offset="0"
             style="stop-color:#FFEA00"
             id="stop4267" />
          <stop
             offset="1"
             style="stop-color:#FFCC00"
             id="stop4269" />
        </linearGradient>
        <polygon
           points="24.399,41.438 14,52.249 18.163,37.837 3.751,42 14.562,31.601 0,28 14.562,24.399 3.751,14 18.163,18.163 14,3.751 24.399,14.562 28,0 28,0 31.601,14.562 42,3.751 37.837,18.163 52.249,14 41.438,24.399 56,28 41.438,31.601 52.249,42 37.837,37.837 42,52.249 31.601,41.438 28,56 "
           id="polygon4271"
           style="fill:url(#linearGradient5142)" />
      </g>
      <path
         style="fill:url(#linearGradient4758);fill-opacity:1"
         d="m 98.232015,6.554758 -3.09375,12.46875 -8.90625,-9.25 3.5625,12.34375 -12.34375,-3.5625 9.25,8.90625 -7.15625,1.78125 c 4.96948,2.5633 11.51744,4.125 18.6875,4.125 7.170055,0 13.686765,-1.5617 18.656245,-4.125 l -7.15625,-1.78125 9.28125,-8.90625 -12.375,3.5625 3.59375,-12.34375 -8.9375,9.25 z"
         id="path4273"
         inkscape:connector-curvature="0" />
    </g>
  </g>
</svg>
