<?xml version="1.0" encoding="UTF-8" standalone="no"?>
<svg
   xmlns:dc="http://purl.org/dc/elements/1.1/"
   xmlns:cc="http://creativecommons.org/ns#"
   xmlns:rdf="http://www.w3.org/1999/02/22-rdf-syntax-ns#"
   xmlns:svg="http://www.w3.org/2000/svg"
   xmlns="http://www.w3.org/2000/svg"
   xmlns:xlink="http://www.w3.org/1999/xlink"
   xmlns:sodipodi="http://sodipodi.sourceforge.net/DTD/sodipodi-0.dtd"
   xmlns:inkscape="http://www.inkscape.org/namespaces/inkscape"
   height="16"
   width="16"
   version="1.1"
   id="svg272"
   sodipodi:docname="sx03187.svg"
   inkscape:version="0.92.4 (unknown)">
  <metadata
     id="metadata278">
    <rdf:RDF>
      <cc:Work
         rdf:about="">
        <dc:format>image/svg+xml</dc:format>
        <dc:type
           rdf:resource="http://purl.org/dc/dcmitype/StillImage" />
        <dc:title></dc:title>
      </cc:Work>
    </rdf:RDF>
  </metadata>
  <defs
     id="defs276">
    <linearGradient
       inkscape:collect="always"
       xlink:href="#b"
       id="linearGradient5017"
       gradientUnits="userSpaceOnUse"
       gradientTransform="matrix(0.1133598,0,0,0.1691546,-24.087122,-100.95463)"
       x1="347.18839"
       y1="785.99475"
       x2="347.18839"
       y2="644.11273" />
    <linearGradient
       inkscape:collect="always"
       xlink:href="#b"
       id="linearGradient5019"
       gradientUnits="userSpaceOnUse"
       gradientTransform="matrix(0.1133598,0,0,0.1691546,-0.08712168,-68.95463)"
       x1="347.18839"
       y1="785.99475"
       x2="347.18839"
       y2="644.11273" />
  </defs>
  <sodipodi:namedview
     pagecolor="#ffffff"
     bordercolor="#666666"
     borderopacity="1"
     objecttolerance="10"
     gridtolerance="10"
     guidetolerance="10"
     inkscape:pageopacity="0"
     inkscape:pageshadow="2"
     inkscape:window-width="640"
     inkscape:window-height="480"
     id="namedview274"
     showgrid="true"
     inkscape:zoom="15.5"
     inkscape:cx="0.6888771"
     inkscape:cy="10.590029"
     inkscape:current-layer="g5315">
    <inkscape:grid
       type="xygrid"
       id="grid5294" />
  </sodipodi:namedview>
  <filter
     id="a">
    <feGaussianBlur
       stdDeviation="2.4"
       id="feGaussianBlur2" />
  </filter>
  <linearGradient
     id="b"
     gradientTransform="matrix(0.1133598,0,0,0.1691546,80.271445,167.92147)"
     gradientUnits="userSpaceOnUse"
     x1="347.18839"
     x2="347.18839"
     y1="785.99475"
     y2="644.11273">
    <stop
       offset="0"
       stop-color="#cbcbcd"
       id="stop5" />
    <stop
       offset=".5"
       stop-color="#e0e0e2"
       id="stop7" />
    <stop
       offset="1"
       stop-color="#fff"
       id="stop9" />
  </linearGradient>
  <g
     id="g5315"
     transform="matrix(0.125,0,0,0.125,0.09123957,2.4634787e-7)">
    <g
       id="g5283">
      <path
         d="m 109.48062,250.01896 h 92.29606 c 1.02599,0 1.85197,0.97507 1.85197,2.18627 v 89.91317 c 0,1.21119 -0.82598,2.18627 -1.85197,2.18627 h -92.29606 c -1.02599,0 -1.85197,-0.97508 -1.85197,-2.18627 v -89.91317 c 0,-1.2112 0.82598,-2.18627 1.85197,-2.18627 z"
         transform="matrix(1,0,0,0.9333333,-104.35857,-229.35102)"
         id="path12"
         inkscape:connector-curvature="0"
         style="opacity:0.5;filter:url(#a)" />
      <path
         d="M 7.2700833,8 H 95.270083 V 88 H 7.2700833 Z"
         id="path14"
         style="fill:url(#linearGradient5017)"
         inkscape:connector-curvature="0" />
      <path
         d="M 7.2700833,32 H 95.270083 V 88 H 7.2700833 Z"
         id="path16"
         inkscape:connector-curvature="0"
         style="fill:#ffffff" />
      <path
         style="fill:#cacacc"
         inkscape:connector-curvature="0"
         id="path18"
         d="m 39.270088,32.000005 v 56 h -8.00002 v -56 z" />
      <path
         style="fill:#cacacc"
         inkscape:connector-curvature="0"
         id="path20"
         d="M 7.2700833,72 H 95.270083 v 8 H 7.2700833 Z" />
      <path
         style="fill:#cacacc"
         inkscape:connector-curvature="0"
         id="path22"
         d="m 71.270088,32.000005 v 56 h -8 v -56 z" />
      <path
         style="fill:#cacacc"
         inkscape:connector-curvature="0"
         id="path24"
         d="M 7.2700833,48 H 95.270083 v 8 H 7.2700833 Z" />
    </g>
    <g
       id="g5292">
      <path
         style="opacity:0.5;filter:url(#a)"
         inkscape:connector-curvature="0"
         id="path252"
         transform="matrix(1,0,0,0.9333333,-80.358567,-197.35102)"
         d="m 109.48062,250.01896 h 92.29606 c 1.02599,0 1.85197,0.97507 1.85197,2.18627 v 89.91317 c 0,1.21119 -0.82598,2.18627 -1.85197,2.18627 h -92.29606 c -1.02599,0 -1.85197,-0.97508 -1.85197,-2.18627 v -89.91317 c 0,-1.2112 0.82598,-2.18627 1.85197,-2.18627 z" />
      <path
         inkscape:connector-curvature="0"
         style="fill:url(#linearGradient5019)"
         id="path254"
         d="m 31.270083,40 h 87.999997 v 80 H 31.270083 Z" />
      <path
         style="fill:#ffffff"
         inkscape:connector-curvature="0"
         id="path256"
         d="m 31.270083,64 h 87.999997 v 56 H 31.270083 Z" />
      <path
         style="fill:#cacacc"
         d="m 63.270088,64.000005 v 56.000005 h -8.00002 V 64.000005 Z"
         id="path258"
         inkscape:connector-curvature="0" />
      <path
         style="fill:#cacacc"
         d="m 31.270083,104 h 87.999997 v 8 H 31.270083 Z"
         id="path260"
         inkscape:connector-curvature="0" />
      <path
         style="fill:#cacacc"
         d="m 95.270088,64.000005 v 56.000005 h -8 V 64.000005 Z"
         id="path262"
         inkscape:connector-curvature="0" />
      <path
         style="fill:#cacacc"
         d="m 31.270083,80 h 87.999997 v 8 H 31.270083 Z"
         id="path264"
         inkscape:connector-curvature="0" />
    </g>
  </g>
</svg>
