<?xml version="1.0" encoding="UTF-8" standalone="no"?>
<svg
   xmlns:dc="http://purl.org/dc/elements/1.1/"
   xmlns:cc="http://creativecommons.org/ns#"
   xmlns:rdf="http://www.w3.org/1999/02/22-rdf-syntax-ns#"
   xmlns:svg="http://www.w3.org/2000/svg"
   xmlns="http://www.w3.org/2000/svg"
   xmlns:sodipodi="http://sodipodi.sourceforge.net/DTD/sodipodi-0.dtd"
   xmlns:inkscape="http://www.inkscape.org/namespaces/inkscape"
   height="16"
   viewBox="0 0 16 16"
   width="16"
   version="1.1"
   id="svg57"
   sodipodi:docname="sx10144.svg"
   inkscape:version="0.92.4 (unknown)">
  <metadata
     id="metadata63">
    <rdf:RDF>
      <cc:Work
         rdf:about="">
        <dc:format>image/svg+xml</dc:format>
        <dc:type
           rdf:resource="http://purl.org/dc/dcmitype/StillImage" />
        <dc:title></dc:title>
      </cc:Work>
    </rdf:RDF>
  </metadata>
  <defs
     id="defs61" />
  <sodipodi:namedview
     pagecolor="#ffffff"
     bordercolor="#666666"
     borderopacity="1"
     objecttolerance="10"
     gridtolerance="10"
     guidetolerance="10"
     inkscape:pageopacity="0"
     inkscape:pageshadow="2"
     inkscape:window-width="640"
     inkscape:window-height="480"
     id="namedview59"
     showgrid="true"
     inkscape:zoom="15.5"
     inkscape:cx="8.0538402"
     inkscape:cy="4.2621724"
     inkscape:current-layer="g4819">
    <inkscape:grid
       type="xygrid"
       id="grid4802" />
  </sodipodi:namedview>
  <linearGradient
     id="a"
     gradientTransform="rotate(90,65.170062,65.407638)"
     gradientUnits="userSpaceOnUse"
     x1="26.221916"
     x2="96.5784"
     y1="59.536545"
     y2="57.715343">
    <stop
       offset="0"
       stop-color="#fff"
       id="stop2" />
    <stop
       offset="1"
       stop-color="#bbb"
       id="stop4" />
  </linearGradient>
  <filter
     id="b"
     height="1.011497"
     width="1.00824"
     x="-0.0041200002"
     y="-0.005748"
     style="color-interpolation-filters:sRGB">
    <feGaussianBlur
       stdDeviation=".13885547"
       id="feGaussianBlur7" />
  </filter>
  <linearGradient
     id="c"
     gradientTransform="matrix(0.7360636,0,0,0.74188834,28.702246,-22.205208)"
     gradientUnits="userSpaceOnUse"
     x1="72.618614"
     x2="73.819366"
     y1="101.35709"
     y2="47.875233">
    <stop
       offset="0"
       stop-color="#b3b3b7"
       id="stop10" />
    <stop
       offset="1"
       stop-color="#e5e5e5"
       stop-opacity=".996078"
       id="stop12" />
  </linearGradient>
  <filter
     id="d"
     height="1.104996"
     width="1.0547841"
     x="-0.027392"
     y="-0.052498002"
     style="color-interpolation-filters:sRGB">
    <feGaussianBlur
       stdDeviation=".668475"
       id="feGaussianBlur15" />
  </filter>
  <linearGradient
     id="e"
     gradientTransform="matrix(1.9887126,0,0,2.075626,-68.42608,-492.50132)"
     gradientUnits="userSpaceOnUse"
     x1="50.587578"
     x2="54.049843"
     y1="267.47455"
     y2="290.94104">
    <stop
       offset="0"
       stop-color="#c0c0c0"
       id="stop18" />
    <stop
       offset="1"
       stop-color="#f7f7f7"
       id="stop20" />
  </linearGradient>
  <radialGradient
     id="f"
     cx="53.071602"
     cy="283.68246"
     gradientTransform="matrix(2.2924282,0,0,2.3926151,-84.462138,-581.43392)"
     gradientUnits="userSpaceOnUse"
     r="7.4497309">
    <stop
       offset="0"
       stop-color="#666"
       id="stop23" />
    <stop
       offset="1"
       stop-color="#232323"
       stop-opacity=".9375"
       id="stop25" />
  </radialGradient>
  <linearGradient
     id="g"
     gradientTransform="matrix(2.1987695,0,0,2.5134393,-79.63617,-615.55799)"
     gradientUnits="userSpaceOnUse"
     x1="53.51049"
     x2="53.720795"
     y1="264.43698"
     y2="279.9422">
    <stop
       offset="0"
       stop-color="#f8f8f8"
       id="stop28" />
    <stop
       offset="1"
       stop-color="#f8f8f8"
       stop-opacity="0"
       id="stop30" />
  </linearGradient>
  <g
     id="g4819"
     transform="scale(0.125)">
    <path
       id="path33"
       d="m 36.041394,-3.2e-7 v 0.039912 H 33.504888 C 30.062033,0.03991168 24,3.0969522 24,6.8933654 V 57.107988 c 0,3.796428 6.062033,6.852084 9.504888,6.852084 h 2.536506 V 64 H 76.000821 115.9586 v -0.03992 h 2.53651 c 3.44285,0 9.50489,-3.055656 9.50489,-6.852086 V 6.8933606 C 128,3.096949 121.93796,0.03990768 118.49511,0.03990768 H 115.9586 V 3.68e-6 H 76.000821 Z"
       inkscape:connector-curvature="0"
       style="fill:#8b8b91;fill-opacity:0.99586098" />
    <path
       id="path35"
       d="m 40.623023,8.0007155 v 0.030239 h -2.081678 c -2.825247,-3e-6 -6.57138,2.3007335 -6.57138,5.1588275 v 37.803509 c 0,2.858104 3.746133,5.15884 6.57138,5.15884 h 2.081678 v 0.03028 h 33.761167 0.257335 36.705415 v -0.03028 h 2.08169 c 2.82524,0 6.57137,-2.300735 6.57137,-5.15884 V 13.189796 c 0,-2.858095 -3.74613,-5.1588302 -6.57137,-5.1588302 h -2.08169 V 8.0007348 H 74.641525 74.38419 Z"
       style="fill:url(#c)"
       inkscape:connector-curvature="0" />
    <path
       id="path37"
       transform="matrix(0.71822726,0,0,0.57825307,29.923408,-5.197046)"
       d="m 16.195312,22.822266 c -0.105581,1.2e-5 -0.21046,0.01716 -0.310546,0.05078 h -2.517578 c -2.246364,0 -4.6422827,1.070615 -6.5527349,2.777344 -1.9104522,1.706728 -3.3496094,4.11354 -3.3496093,6.857421 V 95.96875 c 0,2.743882 1.4391572,5.15069 3.3496093,6.85742 1.9104521,1.70673 4.3063709,2.77735 6.5527349,2.77735 h 2.517578 c 0.100085,0.0336 0.204964,0.0508 0.310546,0.0508 H 66.0625 66.642578 112.2793 c 0.10558,-2e-5 0.21046,-0.0172 0.31054,-0.0508 h 2.51758 c 2.24637,0 4.64228,-1.07062 6.55274,-2.77735 1.91045,-1.70673 3.34961,-4.113541 3.34961,-6.85742 V 32.507812 c 0,-2.743882 -1.43916,-5.150693 -3.34961,-6.857421 -1.91046,-1.706729 -4.30638,-2.777344 -6.55274,-2.777344 h -2.51758 c -0.10008,-0.03362 -0.20496,-0.05077 -0.31054,-0.05078 H 66.642578 66.0625 Z m 4.552201,9.396938 44.95336,0.288609 h 0.580078 41.256789 c 0.0966,0.03106 0.19739,0.04688 0.29883,0.04687 h 2.73046 c 1.53667,0 1.49189,0.802137 3.04038,2.123046 1.54849,1.32091 2.58478,3.094212 2.61133,4.964844 l 0.70564,49.712112 c 0.0266,1.870631 -1.06284,3.643934 -2.61133,4.964843 -1.54849,1.320901 -1.50371,2.123051 -3.04038,2.123051 h -2.73046 c -0.10351,1e-6 -0.20636,0.01647 -0.30469,0.0488 H 66.986585 66.406507 L 21.457054,96.20277 c -0.09833,-0.03233 -0.201179,-0.0488 -0.304688,-0.0488 h -2.730469 c -1.536659,0 -1.949183,-0.905499 -3.497674,-2.22641 -1.54849,-1.320904 -2.584775,-3.094207 -2.611328,-4.964838 L 11.607261,39.25061 c -0.02655,-1.87063 1.062837,-3.643934 2.611329,-4.964844 1.54849,-1.320909 1.961014,-2.019687 3.497673,-2.019687 h 2.730469 c 0.102096,2.11e-4 0.203591,-0.01561 0.300781,-0.04687 z"
       style="fill:url(#a);filter:url(#b)"
       inkscape:connector-curvature="0" />
    <text
       id="text41"
       y="80.360001"
       x="32.46949"
       transform="matrix(1.0968429,0,0,1.1285888,8.172455,-37.46668)"
       style="font-size:40px;font-family:sans-serif;letter-spacing:0;word-spacing:0;fill:#ebebec;fill-opacity:0.99607801;filter:url(#d)">
      <tspan
         id="tspan39"
         y="80.360001"
         x="32.46949"
         font-weight="600"
         style="font-weight:600;font-family:FreeSans;fill:#ebebec;fill-opacity:0.99607801">OK</tspan>
    </text>
    <text
       id="text45"
       y="48.231995"
       x="44.059826"
       transform="scale(0.98583532,1.0143682)"
       style="font-size:44.50411224px;font-family:sans-serif;letter-spacing:0;word-spacing:0;fill:#47474b;fill-opacity:0.99607801;stroke-width:1.11260295">
      <tspan
         id="tspan43"
         y="48.231995"
         x="44.059826"
         font-weight="600"
         style="font-weight:600;font-family:FreeSans;fill:#47474b;fill-opacity:0.99607801;stroke-width:1.11260295">OK</tspan>
    </text>
    <ellipse
       id="ellipse47"
       ry="38.175652"
       rx="36.577106"
       cy="89.824341"
       cx="36.577106"
       style="fill:#2a2a2a;fill-opacity:0.91911801" />
    <ellipse
       id="ellipse49"
       ry="27.747381"
       rx="26.585505"
       cy="89.824341"
       cx="36.577106"
       style="fill:url(#e)" />
    <path
       id="path51"
       d="M 51.322049,66.753038 C 42.257544,81.081531 27.753881,102.05831 20.766602,112.09117 a 26.585506,27.747382 0 0 0 12.993153,5.31584 c 6.042636,-2.78289 14.884604,-6.89011 24.422163,-11.45332 A 26.585506,27.747382 0 0 0 63.16213,89.824864 26.585506,27.747382 0 0 0 51.322049,66.753038 Z"
       inkscape:connector-curvature="0"
       style="fill:#f7f7f7;fill-opacity:0.65808835;fill-rule:evenodd" />
    <ellipse
       id="ellipse53"
       ry="17.824341"
       rx="17.077974"
       cy="89.824341"
       cx="36.577106"
       style="fill:url(#f)" />
    <ellipse
       id="ellipse55"
       ry="10.349009"
       rx="13.987793"
       cy="83.95742"
       cx="36.457939"
       style="fill:url(#g)" />
  </g>
</svg>
