<?xml version="1.0" encoding="UTF-8" standalone="no"?>
<svg
   xmlns:dc="http://purl.org/dc/elements/1.1/"
   xmlns:cc="http://creativecommons.org/ns#"
   xmlns:rdf="http://www.w3.org/1999/02/22-rdf-syntax-ns#"
   xmlns:svg="http://www.w3.org/2000/svg"
   xmlns="http://www.w3.org/2000/svg"
   xmlns:xlink="http://www.w3.org/1999/xlink"
   xmlns:sodipodi="http://sodipodi.sourceforge.net/DTD/sodipodi-0.dtd"
   xmlns:inkscape="http://www.inkscape.org/namespaces/inkscape"
   height="16"
   width="16"
   version="1.1"
   id="svg111"
   sodipodi:docname="sx16670.svg"
   inkscape:version="0.92.4 (unknown)">
  <metadata
     id="metadata117">
    <rdf:RDF>
      <cc:Work
         rdf:about="">
        <dc:format>image/svg+xml</dc:format>
        <dc:type
           rdf:resource="http://purl.org/dc/dcmitype/StillImage" />
        <dc:title></dc:title>
      </cc:Work>
    </rdf:RDF>
  </metadata>
  <defs
     id="defs115">
    <radialGradient
       inkscape:collect="always"
       xlink:href="#c"
       id="radialGradient4902"
       gradientUnits="userSpaceOnUse"
       cx="173.62866"
       cy="349.18079"
       r="139.5585" />
    <radialGradient
       inkscape:collect="always"
       xlink:href="#d"
       id="radialGradient4904"
       gradientUnits="userSpaceOnUse"
       gradientTransform="matrix(0.30023501,0,0,0.65454548,88.475575,274.98519)"
       cx="102"
       cy="112.3047"
       r="139.55859" />
    <radialGradient
       inkscape:collect="always"
       xlink:href="#c"
       id="radialGradient4906"
       gradientUnits="userSpaceOnUse"
       cx="173.62866"
       cy="349.18079"
       r="139.5585" />
    <radialGradient
       inkscape:collect="always"
       xlink:href="#d"
       id="radialGradient4908"
       gradientUnits="userSpaceOnUse"
       gradientTransform="matrix(0.30023501,0,0,0.65454548,88.475575,274.98519)"
       cx="102"
       cy="112.3047"
       r="139.55859" />
  </defs>
  <sodipodi:namedview
     pagecolor="#ffffff"
     bordercolor="#666666"
     borderopacity="1"
     objecttolerance="10"
     gridtolerance="10"
     guidetolerance="10"
     inkscape:pageopacity="0"
     inkscape:pageshadow="2"
     inkscape:window-width="640"
     inkscape:window-height="480"
     id="namedview113"
     showgrid="true"
     inkscape:zoom="21.92031"
     inkscape:cx="2.1806952"
     inkscape:cy="13.475285"
     inkscape:current-layer="g4900">
    <inkscape:grid
       type="xygrid"
       id="grid4856" />
  </sodipodi:namedview>
  <filter
     id="a">
    <feGaussianBlur
       stdDeviation="1.0394514"
       id="feGaussianBlur2" />
  </filter>
  <filter
     id="b">
    <feGaussianBlur
       stdDeviation=".50063244"
       id="feGaussianBlur5" />
  </filter>
  <radialGradient
     id="c"
     cx="173.62866"
     cy="349.18079"
     gradientUnits="userSpaceOnUse"
     r="139.5585">
    <stop
       offset="0"
       stop-color="#ecf2f5"
       id="stop8" />
    <stop
       offset=".2435"
       stop-color="#fafcfd"
       id="stop10" />
    <stop
       offset=".2722"
       stop-color="#fff"
       id="stop12" />
  </radialGradient>
  <radialGradient
     id="d"
     cx="102"
     cy="112.3047"
     gradientTransform="matrix(0.30023501,0,0,0.65454548,88.475575,274.98519)"
     gradientUnits="userSpaceOnUse"
     r="139.55859">
    <stop
       offset="0"
       stop-color="#ececec"
       id="stop15" />
    <stop
       offset=".2363"
       stop-color="#fafafa"
       id="stop17" />
    <stop
       offset=".2722"
       stop-color="#fff"
       id="stop19" />
    <stop
       offset=".5313"
       stop-color="#fafafa"
       id="stop21" />
    <stop
       offset=".8449"
       stop-color="#ebecec"
       id="stop23" />
    <stop
       offset="1"
       stop-color="#e1e2e3"
       id="stop25" />
  </radialGradient>
  <linearGradient
     id="e"
     gradientUnits="userSpaceOnUse"
     x1="152.75038"
     x2="7.6286492"
     y1="342.66226"
     y2="340.8761">
    <stop
       offset="0"
       stop-color="#0968ef"
       id="stop28" />
    <stop
       offset="1"
       stop-color="#aecffc"
       id="stop30" />
  </linearGradient>
  <g
     id="g4900"
     transform="scale(0.125)">
    <g
       id="g109"
       transform="translate(-79.62865,-236.8761)">
      <g
         id="g65"
         transform="translate(32.000003,-31.999999)">
        <path
           id="path33"
           d="m 85.62865,274.87609 0.02148,26.00001 -0.02148,58 h 0.04297 47.67772 36.2793 v -36.07227 -43.85546 -4.07228 h -36.2793 -47.677723 z"
           inkscape:connector-curvature="0"
           style="opacity:0.71506898;stroke-width:1.03868604;filter:url(#a)" />
        <path
           id="path35"
           d="m 85.62865,275.87609 0.02148,25.50001 -0.02148,57.5 h 0.04297 47.67772 36.2793 v -36.07227 -42.85546 -4.07228 h -36.2793 -47.677723 z"
           inkscape:connector-curvature="0"
           style="opacity:0.83561599;stroke-width:1.03868604;filter:url(#a)" />
        <path
           id="path37"
           transform="matrix(1.0416667,0,0,1.0357143,61.67032,233.55457)"
           d="m 24.919996,41.827682 3e-6,77.241388 43.315999,-1e-4 c 0.53,0 1.039,-0.211 1.414,-0.586 L 101.134,86.717033 c 0.375,-0.375 0.586,-0.884 0.586,-1.414 V 41.827681 Z"
           inkscape:connector-curvature="0"
           style="opacity:0.89589;filter:url(#b)" />
        <path
           id="path39"
           d="m 87.62865,276.87609 3e-6,80.00001 h 45.171867 34.82813 v -34.82813 -42.34374 -2.82814 h -34.82813 z"
           style="fill:url(#radialGradient4902)"
           inkscape:connector-curvature="0" />
        <path
           id="path41"
           d="m 95.62865,284.8761 c -0.165438,0 -0.300777,0.29429 -0.300777,0.65495 l 0.0461,31.34505 -0.0461,31.34505 c 0,0.36066 0.135339,0.65495 0.300777,0.65495 h 0.0917 55.9083 8.01536 c 0.16573,0 0.30017,-0.29429 0.30017,-0.65495 v -17.48698 -27.71614 -17.48698 c 0,-0.36066 -0.13444,-0.65495 -0.30017,-0.65495 h -8.01536 -55.9083 z"
           style="fill:url(#radialGradient4904);stroke-width:0.45222601"
           inkscape:connector-curvature="0" />
        <g
           id="g63"
           style="fill:#2d2d2d">
          <path
             id="path43"
             d="m 95.628647,284.8761 h 32.000003 v 8 H 95.628647 Z"
             inkscape:connector-curvature="0"
             style="opacity:0.38053104" />
          <path
             id="path45"
             d="m 95.628647,300.8761 h 32.000003 v 8 H 95.628647 Z"
             inkscape:connector-curvature="0"
             style="opacity:0.38053104" />
          <path
             id="path47"
             d="m 95.628647,316.8761 h 32.000003 v 8 H 95.628647 Z"
             inkscape:connector-curvature="0"
             style="opacity:0.38053104" />
          <path
             id="path49"
             d="m 95.628647,332.8761 h 32.000003 v 8 H 95.628647 Z"
             inkscape:connector-curvature="0"
             style="opacity:0.38053104" />
          <path
             id="path51"
             d="m 95.628647,348.8761 h 32.000003 v 8 H 95.628647 Z"
             inkscape:connector-curvature="0"
             style="opacity:0.38053104;fill-opacity:0.33155099" />
          <path
             id="path53"
             d="m 135.62865,300.8761 h 16 v 8 h -16 z"
             inkscape:connector-curvature="0"
             style="opacity:0.38053104" />
          <path
             id="path55"
             d="m 135.62865,316.8761 h 16 v 8 h -16 z"
             inkscape:connector-curvature="0"
             style="opacity:0.38053104" />
          <path
             id="path57"
             d="m 135.62865,332.8761 h 16 v 8 h -16 z"
             inkscape:connector-curvature="0"
             style="opacity:0.38053104" />
          <path
             id="path59"
             d="m 135.62865,348.8761 h 15.99998 v 8 h -15.99998 z"
             inkscape:connector-curvature="0"
             style="opacity:0.38053104;fill-opacity:0.33155099" />
          <path
             id="path61"
             d="m 135.62865,284.8761 h 15.99998 v 8 h -15.99998 z"
             inkscape:connector-curvature="0"
             style="opacity:0.38053104" />
        </g>
      </g>
      <path
         id="path67"
         d="m 85.62865,274.87609 0.02148,26.00001 -0.02148,58 h 0.04297 47.67772 36.2793 v -36.07227 -43.85546 -4.07228 h -36.2793 -47.677723 z"
         inkscape:connector-curvature="0"
         style="opacity:0.71506898;stroke-width:1.03868604;filter:url(#a)" />
      <path
         id="path69"
         d="m 85.62865,275.87609 0.02148,25.50001 -0.02148,57.5 h 0.04297 47.67772 36.2793 v -36.07227 -42.85546 -4.07228 h -36.2793 -47.677723 z"
         inkscape:connector-curvature="0"
         style="opacity:0.83561599;stroke-width:1.03868604;filter:url(#a)" />
      <path
         id="path71"
         transform="matrix(1.0416667,0,0,1.0357143,61.67032,233.55457)"
         d="m 24.919996,41.827682 3e-6,77.241388 43.315999,-1e-4 c 0.53,0 1.039,-0.211 1.414,-0.586 L 101.134,86.717033 c 0.375,-0.375 0.586,-0.884 0.586,-1.414 V 41.827681 Z"
         inkscape:connector-curvature="0"
         style="opacity:0.89589;filter:url(#b)" />
      <path
         id="path73"
         d="m 87.62865,276.87609 3e-6,80.00001 h 45.171867 34.82813 v -34.82813 -42.34374 -2.82814 h -34.82813 z"
         style="fill:url(#radialGradient4906)"
         inkscape:connector-curvature="0" />
      <path
         id="path75"
         d="m 95.62865,284.8761 c -0.165438,0 -0.300777,0.29429 -0.300777,0.65495 l 0.0461,31.34505 -0.0461,31.34505 c 0,0.36066 0.135339,0.65495 0.300777,0.65495 h 0.0917 55.9083 8.01536 c 0.16573,0 0.30017,-0.29429 0.30017,-0.65495 v -17.48698 -27.71614 -17.48698 c 0,-0.36066 -0.13444,-0.65495 -0.30017,-0.65495 h -8.01536 -55.9083 z"
         style="fill:url(#radialGradient4908);stroke-width:0.45222601"
         inkscape:connector-curvature="0" />
      <g
         id="g87"
         style="fill:#2d2d2d">
        <path
           id="path77"
           d="m 103.62865,284.8761 h 16.00001 v 8 h -16.00001 z"
           inkscape:connector-curvature="0"
           style="opacity:0.38053104" />
        <path
           id="path79"
           d="m 103.62865,300.8761 h 16.00001 v 8 h -16.00001 z"
           inkscape:connector-curvature="0"
           style="opacity:0.38053104" />
        <path
           id="path81"
           d="m 103.62865,316.8761 h 16.00001 v 8 h -16.00001 z"
           inkscape:connector-curvature="0"
           style="opacity:0.38053104" />
        <path
           id="path83"
           d="m 103.62865,332.8761 h 16.00001 v 8 h -16.00001 z"
           inkscape:connector-curvature="0"
           style="opacity:0.38053104" />
        <path
           id="path85"
           d="m 103.62865,348.8761 h 16.00001 v 8 h -16.00001 z"
           inkscape:connector-curvature="0"
           style="opacity:0.38053104;fill-opacity:0.33155099" />
      </g>
      <path
         id="path89"
         d="m 127.62865,300.8761 h 32 v 8 h -32 z"
         inkscape:connector-curvature="0"
         style="fill:#ff6600" />
      <path
         id="path91"
         d="m 127.62865,316.8761 h 32 v 8 h -32 z"
         inkscape:connector-curvature="0"
         style="fill:#ff6600" />
      <path
         id="path93"
         d="m 127.62865,332.8761 h 32 v 8 h -32 z"
         inkscape:connector-curvature="0"
         style="opacity:0.38053104;fill:#2d2d2d" />
      <path
         id="path95"
         d="m 127.62865,348.8761 h 31.99997 v 8 h -31.99997 z"
         inkscape:connector-curvature="0"
         style="opacity:0.38053104;fill:#2d2d2d;fill-opacity:0.33155099" />
      <path
         id="path97"
         d="m 127.62865,284.8761 h 31.99997 v 8 h -31.99997 z"
         inkscape:connector-curvature="0"
         style="fill:#ff6600" />
      <g
         id="g103"
         transform="translate(8)"
         style="fill-rule:evenodd">
        <path
           id="path99"
           d="m 124.5619,317.0636 c -2.03627,0.004 -4.05843,0.84309 -5.5,2.28125 l -3.96875,3.96875 c -2.50394,2.4945 -2.97037,6.77472 -1.0625,9.75 H 79.593148 c -4.090826,-7.7e-4 -7.813269,3.72167 -7.8125,7.8125 v 8 c -7.69e-4,4.09083 3.721674,7.81327 7.8125,7.8125 H 113.9369 c -1.73134,2.8974 -1.2885,6.92322 1.03125,9.375 l 3.96875,4.1875 c 1.34929,1.4198 3.24939,2.30211 5.20471,2.41679 1.95531,0.11468 3.94553,-0.53945 5.45154,-1.79179 l 24,-20 c 1.75188,-1.46025 2.80981,-3.71934 2.80981,-6 0,-2.28066 -1.05793,-4.53975 -2.80981,-6 l -24,-20 c -1.39719,-1.16533 -3.21188,-1.81907 -5.03125,-1.8125 z"
           inkscape:connector-curvature="0"
           style="opacity:0.74396099;fill:#ffffff" />
        <path
           id="path101"
           d="m 147.74911,344.8761 -24,-20 -3.97484,3.97484 7.79874,12.02516 H 79.62865 v 8 h 47.94436 l -7.79874,11.8239 3.97484,4.1761 z"
           style="fill:url(#e)"
           inkscape:connector-curvature="0" />
      </g>
      <rect
         id="rect105"
         y="276.13422"
         x="117.28209"
         width="2.2980969"
         ry="0.15587801"
         rx="0.32563001"
         height="49.143921"
         style="fill:#151515" />
      <rect
         id="rect107"
         y="-167.62865"
         x="324.8761"
         width="2.2980969"
         transform="rotate(90)"
         ry="0.15587801"
         rx="0.32563001"
         height="49.143921"
         style="fill:#151515" />
    </g>
  </g>
</svg>
