<?xml version="1.0" encoding="UTF-8" standalone="no"?>
<svg
   xmlns:dc="http://purl.org/dc/elements/1.1/"
   xmlns:cc="http://creativecommons.org/ns#"
   xmlns:rdf="http://www.w3.org/1999/02/22-rdf-syntax-ns#"
   xmlns:svg="http://www.w3.org/2000/svg"
   xmlns="http://www.w3.org/2000/svg"
   xmlns:xlink="http://www.w3.org/1999/xlink"
   xmlns:sodipodi="http://sodipodi.sourceforge.net/DTD/sodipodi-0.dtd"
   xmlns:inkscape="http://www.inkscape.org/namespaces/inkscape"
   height="16"
   width="16"
   version="1.1"
   id="svg110"
   sodipodi:docname="tb01.svg"
   inkscape:version="0.92.4 (unknown)">
  <metadata
     id="metadata116">
    <rdf:RDF>
      <cc:Work
         rdf:about="">
        <dc:format>image/svg+xml</dc:format>
        <dc:type
           rdf:resource="http://purl.org/dc/dcmitype/StillImage" />
        <dc:title></dc:title>
      </cc:Work>
    </rdf:RDF>
  </metadata>
  <defs
     id="defs114" />
  <sodipodi:namedview
     pagecolor="#ffffff"
     bordercolor="#666666"
     borderopacity="1"
     objecttolerance="10"
     gridtolerance="10"
     guidetolerance="10"
     inkscape:pageopacity="0"
     inkscape:pageshadow="2"
     inkscape:window-width="640"
     inkscape:window-height="480"
     id="namedview112"
     showgrid="true"
     inkscape:zoom="43.84062"
     inkscape:cx="15.62551"
     inkscape:cy="9.9502247"
     inkscape:current-layer="g4880">
    <inkscape:grid
       type="xygrid"
       id="grid4855" />
  </sodipodi:namedview>
  <filter
     id="a">
    <feGaussianBlur
       stdDeviation="2.0786429"
       id="feGaussianBlur2" />
  </filter>
  <radialGradient
     id="b"
     cx="108"
     cy="128.54001"
     gradientTransform="matrix(0.98281247,0,0,0.98248353,-1.799998,11.962339)"
     gradientUnits="userSpaceOnUse"
     r="139.55859">
    <stop
       offset="0"
       stop-color="#b7b8b9"
       id="stop5" />
    <stop
       offset=".18851049"
       stop-color="#ececec"
       id="stop7" />
    <stop
       offset=".25718147"
       stop-color="#fafafa"
       id="stop9" />
    <stop
       offset=".30111277"
       stop-color="#fff"
       id="stop11" />
    <stop
       offset=".5313"
       stop-color="#fafafa"
       id="stop13" />
    <stop
       offset=".8449"
       stop-color="#ebecec"
       id="stop15" />
    <stop
       offset="1"
       stop-color="#e1e2e3"
       id="stop17" />
  </radialGradient>
  <radialGradient
     id="c"
     cx="84.903702"
     cy="-130.14005"
     gradientTransform="matrix(0.30794145,0.30794145,-0.30794145,0.30794145,46.491338,107.57052)"
     gradientUnits="userSpaceOnUse"
     r="57.039597"
     xlink:href="#d" />
  <linearGradient
     id="d">
    <stop
       offset="0"
       stop-color="#011701"
       id="stop21" />
    <stop
       offset=".80671918"
       stop-color="#145703"
       id="stop23" />
    <stop
       offset="1"
       stop-color="#2fa207"
       stop-opacity=".384314"
       id="stop25" />
  </linearGradient>
  <radialGradient
     id="e"
     cx="43.084476"
     cy="-121.92532"
     gradientTransform="matrix(0.30347528,0.31234377,-0.3628951,0.35259129,39.983519,112.82479)"
     gradientUnits="userSpaceOnUse"
     r="57.039597"
     xlink:href="#d" />
  <radialGradient
     id="f"
     cx="51.991096"
     cy="-78.028419"
     gradientTransform="matrix(0.28232256,0.33158686,-0.56115095,0.47778001,28.065755,119.5934)"
     gradientUnits="userSpaceOnUse"
     r="57.039597"
     xlink:href="#d" />
  <linearGradient
     id="g"
     gradientTransform="scale(1.0975951,0.9110828)"
     gradientUnits="userSpaceOnUse"
     x1="26.091133"
     x2="31.500689"
     xlink:href="#h"
     y1="14.856744"
     y2="14.856744" />
  <linearGradient
     id="h">
    <stop
       offset="0"
       stop-color="#fff"
       id="stop31" />
    <stop
       offset="1"
       stop-color="#fff"
       stop-opacity="0"
       id="stop33" />
  </linearGradient>
  <filter
     id="i"
     height="1.277481"
     width="1.279832"
     x="-0.139916"
     y="-0.138741">
    <feGaussianBlur
       stdDeviation=".28784801"
       id="feGaussianBlur36" />
  </filter>
  <linearGradient
     id="j"
     gradientTransform="scale(1.0975951,0.9110828)"
     gradientUnits="userSpaceOnUse"
     x1="26.091133"
     x2="31.500689"
     xlink:href="#k"
     y1="14.856744"
     y2="14.856744" />
  <linearGradient
     id="k">
    <stop
       offset="0"
       stop-color="#765c44"
       id="stop40" />
    <stop
       offset="1"
       stop-color="#765c44"
       stop-opacity="0"
       id="stop42" />
  </linearGradient>
  <linearGradient
     id="l"
     gradientUnits="userSpaceOnUse"
     x1="304.88663"
     x2="345.62039"
     xlink:href="#k"
     y1="385.86127"
     y2="384.62384" />
  <linearGradient
     id="m"
     gradientUnits="userSpaceOnUse"
     spreadMethod="reflect"
     x1="88.606247"
     x2="91.575104"
     y1="13.510336"
     y2="13.510336">
    <stop
       offset="0"
       stop-color="#c8ff87"
       id="stop46" />
    <stop
       offset="1"
       stop-color="#abff87"
       stop-opacity="0"
       id="stop48" />
  </linearGradient>
  <linearGradient
     id="n"
     gradientUnits="userSpaceOnUse"
     spreadMethod="reflect"
     x1="31.606251"
     x2="34.575108"
     y1="13.510336"
     y2="13.510336">
    <stop
       offset="0"
       stop-color="#fff"
       id="stop51" />
    <stop
       offset="1"
       stop-color="#790000"
       stop-opacity="0"
       id="stop53" />
  </linearGradient>
  <linearGradient
     id="o"
     gradientUnits="userSpaceOnUse"
     spreadMethod="reflect"
     x1="88.606247"
     x2="91.575104"
     y1="13.510336"
     y2="13.510336">
    <stop
       offset="0"
       stop-color="#ff8787"
       id="stop56" />
    <stop
       offset="1"
       stop-color="#ff8787"
       stop-opacity="0"
       id="stop58" />
  </linearGradient>
  <radialGradient
     id="p"
     cx="50.424522"
     cy="-81.945961"
     gradientTransform="matrix(0.30794145,0.30794145,-0.30794145,0.30794145,46.491337,107.57052)"
     gradientUnits="userSpaceOnUse"
     r="50.15279">
    <stop
       offset="0"
       stop-color="#7ae91e"
       stop-opacity=".996078"
       id="stop61" />
    <stop
       offset="1"
       stop-color="#62c916"
       id="stop63" />
  </radialGradient>
  <filter
     id="q"
     height="1.024"
     width="1.024"
     x="-0.012"
     y="-0.012"
     style="color-interpolation-filters:sRGB">
    <feGaussianBlur
       stdDeviation=".28192153"
       id="feGaussianBlur66" />
  </filter>
  <linearGradient
     id="r"
     gradientUnits="userSpaceOnUse"
     x1="84.745605"
     x2="97.636749"
     xlink:href="#h"
     y1="48.278454"
     y2="110.57732" />
  <g
     id="g4880"
     transform="matrix(0.125,0,0,0.125,-0.00390624,0)">
    <path
       id="path70"
       transform="matrix(0.98281249,0,0,0.98281249,2.131251,0.657034)"
       d="m 3.9968244,21.75119 0.00317,86.469 H 121.96502 l -0.003,-86.469 z"
       inkscape:connector-curvature="0"
       style="opacity:0.75836403;filter:url(#a)"
       sodipodi:nodetypes="ccccc" />
    <path
       id="path72"
       d="m 8.0250049,24 0.00312,80.06875 H 119.20513 L 120.03437,103.2395 120.03125,24 Z"
       inkscape:connector-curvature="0"
       style="fill:#ffffff;stroke-width:0.98281199"
       sodipodi:nodetypes="cccccc" />
    <path
       id="path74"
       d="m 16.870317,31.8625 c -0.541529,0 -0.982839,0.441465 -0.982812,0.982812 l 0.0031,63.360938 h 95.052735 c 1.14219,0.0349 1.22852,-1.5726 1.22851,-1.81206 l -0.003,-61.548878 c -3e-5,-0.541347 -0.4403,-0.982812 -0.98281,-0.982812 z"
       style="fill:url(#b);stroke-width:0.98281199"
       inkscape:connector-curvature="0"
       sodipodi:nodetypes="ssccssss" />
    <g
       id="g108"
       transform="matrix(0.75,0,0,0.75,-40.747099,-42.740466)">
      <path
         id="path76"
         transform="translate(-3.64254,-3.336931)"
         d="m 90.896484,60.324219 c -4.022451,-1.17e-4 -7.375114,3.352553 -7.375,7.375 V 83.208984 H 68.013672 c -4.019003,-1.16e-4 -7.375117,3.350604 -7.375,7.373047 v 10.619139 c -1.17e-4,4.02244 3.355991,7.37317 7.375,7.37305 h 15.507812 v 15.50976 c -1.21e-4,4.02245 3.355991,7.37317 7.375,7.37305 h 10.617186 c 4.01901,1.2e-4 7.37512,-3.35059 7.375,-7.37305 v -15.50976 h 15.50781 c 4.01903,1.2e-4 7.37513,-3.3506 7.375,-7.37305 V 90.582031 c 1.3e-4,-4.02246 -3.35599,-7.373163 -7.375,-7.373047 H 108.88867 V 67.699219 c 1.2e-4,-4.022461 -3.35255,-7.375117 -7.375,-7.375 z"
         inkscape:connector-curvature="0"
         style="fill:#067106" />
      <path
         id="path78"
         d="m 123.75362,87.246019 c 5e-5,-1.656397 -1.34274,-2.99918 -2.99913,-2.999132 H 100.87057 V 64.362116 c 5e-5,-1.656396 -1.34274,-2.99918 -2.99913,-2.999132 l -10.617743,5e-6 c -1.656393,-4.8e-5 -2.999178,1.342735 -2.999131,2.999127 v 19.884771 h -19.88392 c -1.656396,-4.8e-5 -2.99918,1.342735 -2.999132,2.999132 v 10.61774 c -4.8e-5,1.6564 1.342736,2.999181 2.999132,2.999131 h 19.88392 v 19.88392 c -5e-5,1.6564 1.342736,2.99918 2.999132,2.99913 H 97.87144 c 1.65639,5e-5 2.99918,-1.34273 2.99913,-2.99913 v -19.88392 h 19.88392 c 1.6564,5e-5 2.99918,-1.342741 2.99913,-2.999131 z"
         inkscape:connector-curvature="0"
         style="fill:#1f5623;fill-opacity:0.90588199" />
      <path
         id="path80"
         d="m 123.75362,87.246019 c 5e-5,-1.656397 -1.34274,-2.99918 -2.99913,-2.999132 H 100.87057 V 64.362116 c 5e-5,-1.656396 -1.34274,-2.99918 -2.99913,-2.999132 l -10.617743,5e-6 c -1.656393,-4.8e-5 -2.999178,1.342735 -2.999131,2.999127 v 19.884771 h -19.88392 c -1.656396,-4.8e-5 -2.99918,1.342735 -2.999132,2.999132 v 10.61774 c -4.8e-5,1.6564 1.342736,2.999181 2.999132,2.999131 h 19.88392 v 19.88392 c -5e-5,1.6564 1.342736,2.99918 2.999132,2.99913 H 97.87144 c 1.65639,5e-5 2.99918,-1.34273 2.99913,-2.99913 v -19.88392 h 19.88392 c 1.6564,5e-5 2.99918,-1.342741 2.99913,-2.999131 z"
         style="fill:url(#c)"
         inkscape:connector-curvature="0" />
      <path
         id="path82"
         d="m 123.75362,87.246019 c 5e-5,-1.656397 -1.34274,-2.99918 -2.99913,-2.999132 H 100.87057 V 64.362116 c 5e-5,-1.656396 -1.34274,-2.99918 -2.99913,-2.999132 l -10.617743,5e-6 c -1.656393,-4.8e-5 -2.999178,1.342735 -2.999131,2.999127 v 19.884771 h -19.88392 c -1.656396,-4.8e-5 -2.99918,1.342735 -2.999132,2.999132 v 10.61774 c -4.8e-5,1.6564 1.342736,2.999181 2.999132,2.999131 h 19.88392 v 19.88392 c -5e-5,1.6564 1.342736,2.99918 2.999132,2.99913 H 97.87144 c 1.65639,5e-5 2.99918,-1.34273 2.99913,-2.99913 v -19.88392 h 19.88392 c 1.6564,5e-5 2.99918,-1.342741 2.99913,-2.999131 z"
         inkscape:connector-curvature="0"
         style="fill:#066704" />
      <path
         id="path84"
         d="m 123.75362,87.246019 c 5e-5,-1.656397 -1.34274,-2.99918 -2.99913,-2.999132 H 100.87057 V 64.362116 c 5e-5,-1.656396 -1.34274,-2.99918 -2.99913,-2.999132 l -10.617743,5e-6 c -1.656393,-4.8e-5 -2.999178,1.342735 -2.999131,2.999127 v 19.884771 h -19.88392 c -1.656396,-4.8e-5 -2.99918,1.342735 -2.999132,2.999132 v 10.61774 c -4.8e-5,1.6564 1.342736,2.999181 2.999132,2.999131 h 19.88392 v 19.88392 c -5e-5,1.6564 1.342736,2.99918 2.999132,2.99913 H 97.87144 c 1.65639,5e-5 2.99918,-1.34273 2.99913,-2.99913 v -19.88392 h 19.88392 c 1.6564,5e-5 2.99918,-1.342741 2.99913,-2.999131 z"
         style="fill:url(#e)"
         inkscape:connector-curvature="0" />
      <path
         id="path86"
         d="m 123.75362,87.246019 c 5e-5,-1.656397 -1.34274,-2.99918 -2.99913,-2.999132 H 100.87057 V 64.362116 c 5e-5,-1.656396 -1.34274,-2.99918 -2.99913,-2.999132 l -10.617743,5e-6 c -1.656393,-4.8e-5 -2.999178,1.342735 -2.999131,2.999127 v 19.884771 h -19.88392 c -1.656396,-4.8e-5 -2.99918,1.342735 -2.999132,2.999132 v 10.61774 c -4.8e-5,1.6564 1.342736,2.999181 2.999132,2.999131 h 19.88392 v 19.88392 c -5e-5,1.6564 1.342736,2.99918 2.999132,2.99913 H 97.87144 c 1.65639,5e-5 2.99918,-1.34273 2.99913,-2.99913 v -19.88392 h 19.88392 c 1.6564,5e-5 2.99918,-1.342741 2.99913,-2.999131 z"
         style="fill:url(#f)"
         inkscape:connector-curvature="0" />
      <g
         id="g100"
         style="fill-rule:evenodd">
        <path
           id="path88"
           transform="matrix(-0.64954358,0.64954358,0.6557809,0.6557809,76.701663,57.763298)"
           d="m 31.7,16 2.875,-3.375 c -1.051205,-1.695758 -3.935136,-2.288018 -5.9375,-0.3125 l 2.8125,3.375 z"
           style="opacity:0.498127;fill:url(#g);filter:url(#i)"
           inkscape:connector-curvature="0" />
        <path
           id="path90"
           transform="matrix(-0.6476361,-0.6476361,0.64147625,-0.64147625,99.166281,149.43433)"
           d="m 31.7,16 2.875,-3.375 c -1.051205,-1.695758 -3.935136,-2.288018 -5.9375,-0.3125 l 2.8125,3.375 z"
           style="opacity:0.79026196;fill:url(#j);filter:url(#i)"
           inkscape:connector-curvature="0" />
        <path
           id="path92"
           transform="matrix(-0.58819378,0.58819378,-0.59384198,-0.59384198,124.77757,109.70474)"
           d="m 31.7,16 2.875,-3.375 c -1.051205,-1.695758 -3.935136,-2.288018 -5.9375,-0.3125 l 2.8125,3.375 z"
           style="opacity:0.498127;fill:url(#l);filter:url(#i)"
           inkscape:connector-curvature="0" />
        <path
           id="path94"
           transform="matrix(-0.59384198,-0.59384198,0.58819378,-0.58819378,109.16011,158.42153)"
           d="m 88.7,16 2.875,-3.375 c -1.051205,-1.695758 -3.935136,-2.288018 -5.9375,-0.3125 l 2.8125,3.375 z"
           style="opacity:0.79026196;fill:url(#m);filter:url(#i)"
           inkscape:connector-curvature="0" />
        <path
           id="path96"
           transform="matrix(-0.54004786,-0.54004786,-0.53491131,0.53491131,144.9962,96.825516)"
           d="m 31.7,16 2.875,-3.375 c -1.051205,-1.695758 -3.935136,-2.288018 -5.9375,-0.3125 l 2.8125,3.375 z"
           style="opacity:0.79026196;fill:url(#n);filter:url(#i)"
           inkscape:connector-curvature="0" />
        <path
           id="path98"
           transform="matrix(-0.55444337,-0.55444337,-0.5491699,0.5491699,154.52391,106.08385)"
           d="m 88.7,16 2.875,-3.375 c -1.051205,-1.695758 -3.935136,-2.288018 -5.9375,-0.3125 l 2.8125,3.375 z"
           style="opacity:0.79026196;fill:url(#o);filter:url(#i)"
           inkscape:connector-curvature="0" />
      </g>
      <path
         id="path102"
         d="M 120.75449,87.246019 H 97.87144 V 64.362121 l -10.617741,-5e-6 -10e-7,22.883903 H 64.370646 v 10.61774 H 87.253698 V 120.74681 H 97.87144 V 97.863759 h 22.88305 z"
         style="fill:url(#p)"
         inkscape:connector-curvature="0" />
      <path
         id="path104"
         d="m 97.87185,64.362208 -10.617965,-5e-6 v 22.884181 l -22.883579,-4.35e-4 v 10.61797 h 22.882977 l 10e-7,22.882971 H 97.87125 V 97.863919 l 22.88298,-10e-6 -1e-5,-10.617956 H 97.87125 Z m -0.75422,0.754216 -6.1e-4,22.129359 c -4e-5,0.41656 0.33766,0.754256 0.75422,0.754217 H 120 v 9.109529 H 97.87124 c -0.41656,-4e-5 -0.75426,0.33766 -0.75422,0.75422 V 119.99251 H 88.00749 V 97.863749 c 4e-5,-0.41656 -0.337657,-0.75426 -0.754216,-0.75422 h -22.12876 v -9.109534 l 22.129362,4.36e-4 c 0.416558,3.9e-5 0.754257,-0.337657 0.754216,-0.754216 V 65.116254 Z"
         inkscape:connector-curvature="0"
         style="fill:#eef4ca;fill-opacity:0.77941165;filter:url(#q)" />
      <path
         id="path106"
         d="M 87.253944,64.362288 V 87.2451 H 64.371132 v 6.925781 a 65.433395,38.789856 0 0 0 17.794922,1.498047 65.433395,38.789856 0 0 0 38.587886,-7.521484 V 87.2451 H 97.87113 V 64.362288 Z"
         style="fill:url(#r)"
         inkscape:connector-curvature="0" />
    </g>
  </g>
</svg>
