<?xml version="1.0" encoding="UTF-8" standalone="no"?>
<svg
   xmlns:dc="http://purl.org/dc/elements/1.1/"
   xmlns:cc="http://creativecommons.org/ns#"
   xmlns:rdf="http://www.w3.org/1999/02/22-rdf-syntax-ns#"
   xmlns:svg="http://www.w3.org/2000/svg"
   xmlns="http://www.w3.org/2000/svg"
   xmlns:xlink="http://www.w3.org/1999/xlink"
   xmlns:sodipodi="http://sodipodi.sourceforge.net/DTD/sodipodi-0.dtd"
   xmlns:inkscape="http://www.inkscape.org/namespaces/inkscape"
   height="16"
   width="16"
   version="1.1"
   id="svg129"
   sodipodi:docname="tb04.svg"
   inkscape:version="0.92.4 (unknown)">
  <metadata
     id="metadata135">
    <rdf:RDF>
      <cc:Work
         rdf:about="">
        <dc:format>image/svg+xml</dc:format>
        <dc:type
           rdf:resource="http://purl.org/dc/dcmitype/StillImage" />
        <dc:title></dc:title>
      </cc:Work>
    </rdf:RDF>
  </metadata>
  <defs
     id="defs133" />
  <sodipodi:namedview
     pagecolor="#ffffff"
     bordercolor="#666666"
     borderopacity="1"
     objecttolerance="10"
     gridtolerance="10"
     guidetolerance="10"
     inkscape:pageopacity="0"
     inkscape:pageshadow="2"
     inkscape:window-width="640"
     inkscape:window-height="480"
     id="namedview131"
     showgrid="true"
     inkscape:zoom="7.75"
     inkscape:cx="14.176884"
     inkscape:cy="0.26001397"
     inkscape:current-layer="g4904">
    <inkscape:grid
       type="xygrid"
       id="grid4874" />
  </sodipodi:namedview>
  <filter
     id="a">
    <feGaussianBlur
       stdDeviation="2.0786429"
       id="feGaussianBlur2" />
  </filter>
  <radialGradient
     id="b"
     cx="108"
     cy="128.54001"
     gradientTransform="matrix(0.98281247,0,0,0.98248353,-1.799998,11.962339)"
     gradientUnits="userSpaceOnUse"
     r="139.55859">
    <stop
       offset="0"
       stop-color="#b7b8b9"
       id="stop5" />
    <stop
       offset=".18851049"
       stop-color="#ececec"
       id="stop7" />
    <stop
       offset=".25718147"
       stop-color="#fafafa"
       id="stop9" />
    <stop
       offset=".30111277"
       stop-color="#fff"
       id="stop11" />
    <stop
       offset=".5313"
       stop-color="#fafafa"
       id="stop13" />
    <stop
       offset=".8449"
       stop-color="#ebecec"
       id="stop15" />
    <stop
       offset="1"
       stop-color="#e1e2e3"
       id="stop17" />
  </radialGradient>
  <radialGradient
     id="c"
     cx="42.617531"
     cy="120.64188"
     gradientTransform="matrix(3.08798,2.950913,-13.94684,12.15631,1594.481,-1491.099)"
     gradientUnits="userSpaceOnUse"
     r="3.406888"
     xlink:href="#d" />
  <linearGradient
     id="d">
    <stop
       offset="0"
       stop-color="#b4942a"
       id="stop21" />
    <stop
       offset="1"
       stop-color="#e4dcc9"
       id="stop23" />
  </linearGradient>
  <radialGradient
     id="e"
     cx="15.727077"
     cy="58.089687"
     gradientTransform="matrix(3.781023,3.445195,-23.38445,26.28997,1364.259,-1515.705)"
     gradientUnits="userSpaceOnUse"
     r="2.614397">
    <stop
       offset="0"
       stop-color="#252525"
       id="stop26" />
    <stop
       offset=".5"
       stop-color="#252525"
       id="stop28" />
    <stop
       offset=".75"
       stop-color="#252525"
       id="stop30" />
    <stop
       offset="1"
       id="stop32" />
  </radialGradient>
  <radialGradient
     id="f"
     cx="36.675648"
     cy="95.769279"
     fx="16.217354"
     fy="64.141281"
     gradientTransform="matrix(0.12897,0.118122,-1.190563,1.280413,187.982,-67.85527)"
     gradientUnits="userSpaceOnUse"
     r="47.746403"
     xlink:href="#g" />
  <linearGradient
     id="g">
    <stop
       offset="0"
       stop-color="#9a7600"
       id="stop36" />
    <stop
       offset=".09292036"
       stop-color="#e3ad00"
       id="stop38" />
    <stop
       offset=".5043171"
       stop-color="#ffcd2c"
       id="stop40" />
    <stop
       offset=".91571385"
       stop-color="#e3ad00"
       id="stop42" />
    <stop
       offset="1"
       stop-color="#b98d00"
       id="stop44" />
  </linearGradient>
  <linearGradient
     id="h"
     gradientTransform="matrix(2.082744,1.883203,-0.88413,0.996848,93.13545,-32.24833)"
     gradientUnits="userSpaceOnUse"
     x1="11.326384"
     x2="14.493531"
     xlink:href="#g"
     y1="57.383999"
     y2="57.383999" />
  <radialGradient
     id="i"
     cx="34.677639"
     cy="7.4622769"
     gradientTransform="matrix(0.999914,-0.00784165,5.6661e-4,0.02048306,-0.001242,7.581357)"
     gradientUnits="userSpaceOnUse"
     r="47.595196">
    <stop
       offset="0"
       stop-color="#fff"
       stop-opacity=".683453"
       id="stop48" />
    <stop
       offset="1"
       stop-color="#fff"
       stop-opacity="0"
       id="stop50" />
  </radialGradient>
  <radialGradient
     id="j"
     cx="34.677639"
     cy="7.4622769"
     gradientTransform="matrix(-1.5103,0.00264127,-1.1671e-4,-0.00911022,87.0522,7.438666)"
     gradientUnits="userSpaceOnUse"
     r="47.595196"
     xlink:href="#k" />
  <linearGradient
     id="k">
    <stop
       offset="0"
       stop-color="#fff"
       id="stop54" />
    <stop
       offset="1"
       stop-color="#fff"
       stop-opacity="0"
       id="stop56" />
  </linearGradient>
  <radialGradient
     id="l"
     cx="49.009884"
     cy="8.4953117"
     fx="47.370888"
     fy="6.7701702"
     gradientTransform="matrix(2.706486,2.437054,-0.914692,1.023285,-21.64178,-101.8762)"
     gradientUnits="userSpaceOnUse"
     r="3.97504">
    <stop
       offset="0"
       stop-color="#fff"
       id="stop59" />
    <stop
       offset="1"
       stop-color="#aeaeae"
       id="stop61" />
  </radialGradient>
  <linearGradient
     id="m"
     gradientUnits="userSpaceOnUse"
     x1="19.235744"
     x2="33.342377"
     y1="114.64716"
     y2="95.181297">
    <stop
       offset="0"
       stop-color="#0057ae"
       id="stop64" />
    <stop
       offset="1"
       stop-color="#0057ae"
       id="stop66" />
  </linearGradient>
  <radialGradient
     id="n"
     cx="49.011971"
     cy="2.6743081"
     gradientTransform="matrix(3.64233,0,0,0.443205,-84.03303,-72.05407)"
     gradientUnits="userSpaceOnUse"
     r="1.724619"
     xlink:href="#o" />
  <linearGradient
     id="o">
    <stop
       offset="0"
       stop-color="#fff"
       id="stop70" />
    <stop
       offset="1"
       stop-color="#252525"
       stop-opacity="0"
       id="stop72" />
  </linearGradient>
  <linearGradient
     id="p"
     gradientUnits="userSpaceOnUse"
     x1="117.53409"
     x2="115.40219"
     xlink:href="#k"
     y1="0.419305"
     y2="10.010333" />
  <linearGradient
     id="q"
     gradientTransform="matrix(1.687832,-0.05261668,0.0315603,1.689761,-36.52006,-50.09175)"
     gradientUnits="userSpaceOnUse"
     x1="49.15303"
     x2="82.484642"
     xlink:href="#d"
     y1="75.310318"
     y2="75.310318" />
  <radialGradient
     id="r"
     cx="49.011971"
     cy="2.6743081"
     gradientTransform="matrix(2.497712,0,0,0.301986,-49.68878,-77.18438)"
     gradientUnits="userSpaceOnUse"
     r="1.724619"
     xlink:href="#o" />
  <radialGradient
     id="s"
     cx="49.011971"
     cy="2.6743081"
     gradientTransform="matrix(2.497714,0,0,0.301986,-234.1773,-70.43848)"
     gradientUnits="userSpaceOnUse"
     r="1.724619"
     xlink:href="#o" />
  <g
     id="g4904"
     transform="matrix(0.125,0,0,0.125,-0.00390624,5.2185865e-4)">
    <path
       id="path79"
       transform="matrix(0.98281249,0,0,0.98281249,2.131251,0.657034)"
       d="M 4.0031786,21.746942 3.999999,108.22019 H 121.96502 l 0.003,-86.473248 z"
       inkscape:connector-curvature="0"
       style="opacity:0.75836403;filter:url(#a)"
       sodipodi:nodetypes="ccccc" />
    <path
       id="path81"
       d="M 8.0312499,23.995825 8.028125,104.06875 H 119.20513 l 0.82924,-0.82925 0.003,-79.243675 z"
       inkscape:connector-curvature="0"
       style="fill:#ffffff;stroke-width:0.98281199"
       sodipodi:nodetypes="cccccc" />
    <path
       id="path83"
       d="m 16.876562,31.858325 c -0.541529,0 -0.982785,0.441465 -0.982812,0.982812 l -0.0031,63.365113 h 95.052735 c 1.14219,0.0349 1.2285,-1.5726 1.22851,-1.81206 l 0.003,-61.553053 c 3e-5,-0.541347 -0.4403,-0.982812 -0.98281,-0.982812 z"
       style="fill:url(#b);stroke-width:0.98281199"
       inkscape:connector-curvature="0"
       sodipodi:nodetypes="ssccssss" />
    <g
       id="g127"
       transform="matrix(0.78735516,0,0,0.78735516,26.251262,-0.016127)">
      <path
         id="path85"
         d="M 50.892799,3.2812959 V 0.48658747 Z"
         inkscape:connector-curvature="0"
         style="fill:#ffffff;fill-opacity:0.756881" />
      <g
         id="g93"
         style="fill-rule:evenodd">
        <path
           id="path87"
           d="m 106.69244,0.47197312 c 0.99259,-1.1104758 7.51939,-0.5825041 14.46769,5.67408158 7.01644,6.3179163 8.4275,12.4314213 7.18413,13.8223303 -0.80925,0.905362 -1.61852,1.810722 -2.4278,2.716085 -7.21732,-6.498805 -14.4346,-12.997608 -21.65189,-19.4964116 0.80927,-0.9053617 1.61855,-1.8107215 2.42787,-2.71608528"
           inkscape:connector-curvature="0" />
        <path
           id="path89"
           d="m 19.236974,121.94767 32.75034,-15.12436 0.152325,-0.17283 -21.463151,-19.709733 -0.206514,0.23409 z"
           inkscape:connector-curvature="0" />
        <path
           id="path91"
           d="m 20.859781,120.36846 30.547528,-14.08732 0.15231,-0.17281 -20.303111,-18.625432 -0.206544,0.23411 z"
           style="fill:url(#c)"
           inkscape:connector-curvature="0" />
      </g>
      <path
         id="path95"
         d="m 40.52949,97.792729 c 2.66726,2.408381 4.457047,2.423581 5.410478,3.284471 0.154077,0.13912 0.283574,0.30245 0.394349,0.46796 L 118.54131,19.290973 108.0588,9.8258483 35.714524,92.235722 c 0.347362,0.09053 0.672661,0.21585 0.974219,0.48813 0.871478,0.78689 1.161093,2.649302 3.840747,5.068877 z"
         style="fill:url(#e)"
         inkscape:connector-curvature="0" />
      <path
         id="path97"
         d="m 48.706586,98.074225 -2.83099,3.211585 c 0.871453,0.85184 0.698216,2.35137 2.300104,3.79775 1.726337,1.55882 2.636879,0.73563 3.755439,1.73998 l 2.865283,-3.25058 z"
         inkscape:connector-curvature="0"
         style="opacity:0.35348804" />
      <path
         id="path99"
         d="M 118.15862,18.945425 46.006528,101.1373 c 0.876032,0.85603 0.836982,2.20998 2.447054,3.66378 1.735155,1.56678 2.515346,0.89254 3.639608,1.90204 l 72.1864,-82.230788 z"
         style="fill:url(#f)"
         inkscape:connector-curvature="0" />
      <path
         id="path101"
         d="m 38.065839,91.164597 -1.45223,1.647483 -0.0558,0.0603 c 0.723868,0.674167 0.6401,2.230247 3.038218,4.590094 l 0.133109,0.120189 0.948418,0.856355 0.133121,0.120203 c 2.614353,2.166189 4.119358,1.872799 5.07276,2.733659 l 1.532869,-1.758229 z"
         inkscape:connector-curvature="0"
         style="opacity:0.386047;fill:#252525" />
      <path
         id="path103"
         d="m 31.989863,85.64705 -1.521784,1.532749 c 0.03339,0.03007 -0.08591,0.167988 -0.05236,0.198281 0.684228,0.617838 0.667761,2.19528 1.924529,3.532836 l 0.116469,0.105146 0.5158,0.465742 0.06656,0.06008 c 1.497465,1.1577 2.753609,0.743778 3.518736,1.330494 l 1.521899,-1.726519 z"
         inkscape:connector-curvature="0"
         style="opacity:0.35348804;fill:#131313" />
      <path
         id="path105"
         d="m 32.988062,90.941604 c 1.669672,1.490892 2.811652,0.979511 3.700681,1.782248 L 108.84086,10.531994 102.65464,4.9461977 30.468213,87.176989 c 0.03391,0.03054 0.06733,0.0608 0.101402,0.09158 0.695072,0.627598 0.736214,2.170723 2.418447,3.673035 z"
         style="fill:url(#h)"
         inkscape:connector-curvature="0" />
      <path
         id="path107"
         transform="rotate(41.957248)"
         d="m 79.685432,-70.876251 h 29.127388 v 6.847253 H 79.685432 Z"
         inkscape:connector-curvature="0" />
      <ellipse
         id="ellipse109"
         transform="matrix(0.623553,-0.706548,-2.80565,-2.52939,75.64589,84.18557)"
         ry="0.97142202"
         rx="47.495197"
         cy="7.4622769"
         cx="34.677639"
         style="fill:url(#i)" />
      <path
         id="path111"
         transform="matrix(0.515167,-0.588073,-2.034286,-1.837523,69.25941,85.81403)"
         d="M 106.56087,7.4622769 A 71.883232,0.4230493 0 0 1 35.242273,7.8853132 71.883232,0.4230493 0 0 1 -37.196723,7.4689227 71.883232,0.4230493 0 0 1 32.983878,7.0393451 71.883232,0.4230493 0 0 1 106.52539,7.448987"
         style="fill:url(#j)"
         inkscape:connector-curvature="0" />
      <path
         id="path113"
         d="m 95.95414,12.504227 c -2.982385,1.940688 -5.684202,5.383951 -7.171888,8.235198 l 17.303898,15.428406 7.27187,-8.135195 z m 15.57448,13.881168 -7.27187,8.135195 6.19789,5.59082 c 2.59902,-1.621453 5.55917,-4.811336 7.27189,-8.13519 z"
         style="fill:url(#l)"
         inkscape:connector-curvature="0" />
      <path
         id="path115"
         d="m 33.342378,115.50314 c -3.065128,-1.24849 -7.22939,-6.3152 -9.362176,-8.14795 l -4.744458,14.58394 z"
         style="fill:url(#m);fill-rule:evenodd"
         inkscape:connector-curvature="0" />
      <path
         id="path117"
         transform="matrix(0.743128,0.669149,-0.666439,0.74556,0,0)"
         d="m 88.199791,-71.972557 h 12.563079 v 2.750383 H 88.199791 Z"
         style="fill:url(#n)"
         inkscape:connector-curvature="0" />
      <path
         id="path119"
         d="m 118.99985,4.7556036 c 4.48599,3.4621827 7.69111,8.2414664 7.86754,8.7004484 0.17638,0.458986 -4.18438,-4.8877218 -7.89076,-7.3360669 -3.67804,-2.4296511 -8.81708,-2.4904645 -9.19684,-2.7862683 -0.37977,-0.2957976 -2.94815,-3.01198338 -0.61824,-2.91170418 2.43698,0.1048863 6.37332,1.66193268 9.8383,4.33359098 z"
         style="fill:url(#p);fill-rule:evenodd"
         inkscape:connector-curvature="0" />
      <path
         id="path121"
         d="m 51.611572,100.3325 c -0.42089,0.47834 -0.655175,0.93092 -0.702919,1.35777 -0.04776,0.42693 0.09559,0.78852 0.43003,1.08487 0.333008,0.29511 0.707608,0.39248 1.123787,0.29212 0.416169,-0.10039 0.834675,-0.38969 1.25555,-0.86803 0.423288,-0.48106 0.658761,-0.93501 0.706527,-1.36189 0.04774,-0.4269 -0.09493,-0.78785 -0.427923,-1.082985 -0.334434,-0.296379 -0.709734,-0.394339 -1.125897,-0.293979 -0.416173,0.100349 -0.835894,0.391077 -1.259155,0.872124 m -0.593035,-0.525584 c 0.860881,-0.978371 1.681167,-1.615433 2.460922,-1.911177 0.779717,-0.295721 1.426813,-0.215646 1.941188,0.240193 0.512971,0.454635 0.671505,1.088434 0.475603,1.901558 -0.195924,0.81313 -0.724315,1.70888 -1.585189,2.68729 -0.85848,0.97563 -1.678764,1.61272 -2.460931,1.91119 -0.779728,0.2957 -1.426076,0.21627 -1.939064,-0.23834 -0.514383,-0.45582 -0.673638,-1.0903 -0.477709,-1.90341 0.198319,-0.81584 0.726696,-1.71159 1.58518,-2.687304 m 8.132288,-5.983472 3.477767,-0.676361 -1.438393,1.63476 -2.335879,0.462028 -0.157037,2.371228 -1.445538,1.642871 0.238304,-3.547032 -3.340105,0.653194 1.441968,-1.638832 2.195335,-0.427005 0.146951,-2.235022 1.449133,-1.646959 z m 0.383166,-3.57836 1.510117,-1.716265 2.35036,-0.383931 0.08877,-2.388188 1.513702,-1.720336 -0.204474,3.947103 1.337009,1.184832 -1.381002,1.56953 -1.336997,-1.184869 -3.877482,0.692124 m 13.806081,-9.748965 c -0.245182,0.479247 -0.528276,0.951473 -0.849325,1.416664 -0.321052,0.46523 -0.678874,0.922048 -1.073427,1.37047 -0.891976,1.013729 -1.745961,1.686211 -2.56202,2.017484 -0.817471,0.330047 -1.479153,0.270864 -1.985052,-0.177437 -0.511589,-0.45335 -0.648585,-1.11167 -0.411031,-1.974938 0.237526,-0.863303 0.81785,-1.819471 1.740868,-2.868519 0.35633,-0.404958 0.716929,-0.774682 1.081829,-1.109118 0.367279,-0.337168 0.734555,-0.635598 1.101842,-0.895439 l 0.656825,0.582089 c -0.399539,0.25056 -0.772361,0.522355 -1.118478,0.815384 -0.34373,0.290335 -0.663875,0.604036 -0.960377,0.941027 -0.550007,0.625066 -0.883058,1.188479 -0.999166,1.690162 -0.115139,0.497783 -0.0034,0.896733 0.335302,1.196832 0.335848,0.29765 0.738662,0.364358 1.208428,0.200244 0.469746,-0.164151 0.968847,-0.546501 1.497332,-1.147147 0.143465,-0.163026 0.271221,-0.318261 0.383265,-0.465686 0.11301,-0.151364 0.207231,-0.292828 0.282571,-0.424344 l -0.616403,-0.546288 -0.842957,0.958041 -0.548383,-0.485989 2.152175,-2.445972 z m -1.725181,-3.981151 3.726862,-4.23563 0.618519,0.548136 -2.345873,2.666119 0.590922,0.523674 2.205996,-2.507148 0.618541,0.548154 -2.205982,2.507128 0.726962,0.644228 2.424787,-2.755783 0.618543,0.548153 -3.805776,4.325313 z m 5.021748,-5.707305 1.542401,-1.75296 4.124334,-0.284744 -2.176606,-1.92888 1.30924,-1.487949 3.173513,2.81233 -1.542402,1.752962 -4.124338,0.284706 2.176613,1.928916 -1.30924,1.487968 z m 8.694814,-9.881778 1.542392,-1.752922 4.124328,-0.284762 -2.176605,-1.928861 1.30924,-1.487987 3.173512,2.812331 -1.542388,1.75296 -4.124349,0.284705 2.176623,1.928917 -1.309241,1.487949 z m 7.482406,-8.619955 c 0.50936,-0.578858 0.989728,-0.965768 1.441156,-1.160672 0.45383,-0.197588 0.81534,-0.177108 1.084595,0.0615 0.269229,0.238601 0.334728,0.594108 0.19648,1.066521 -0.138255,0.47244 -0.463247,0.999446 -0.974988,1.581039 -0.511741,0.581614 -0.993809,0.971857 -1.446221,1.17069 -0.450007,0.196154 -0.809641,0.174934 -1.078869,-0.06366 -0.269255,-0.238605 -0.335438,-0.594746 -0.19861,-1.068429 0.13923,-0.476388 0.46473,-1.005367 0.976457,-1.586984 m 0.53512,3.463429 2.952073,-3.355072 0.42511,0.376722 -2.952078,3.355086 z m -0.173773,-3.143208 c -0.200856,0.228315 -0.311652,0.444524 -0.332388,0.648637 -0.01834,0.201425 0.05469,0.374963 0.219072,0.520632 0.164377,0.145673 0.344297,0.196291 0.53977,0.151849 0.197854,-0.04715 0.397225,-0.184876 0.598079,-0.413191 0.198493,-0.225553 0.307605,-0.438418 0.327363,-0.638585 0.02214,-0.202871 -0.04899,-0.377148 -0.213363,-0.522821 -0.164382,-0.145664 -0.346209,-0.19555 -0.545487,-0.149658 -0.196871,0.04321 -0.394553,0.177584 -0.593046,0.403137 m 9.193251,-8.105073 c 0.41635,-0.361389 0.78653,-0.587174 1.11049,-0.67736 0.32496,-0.09414 0.59301,-0.04766 0.80415,0.139456 0.31458,0.278776 0.3508,0.72201 0.10866,1.329696 -0.24356,0.606437 -0.75512,1.352652 -1.53468,2.238635 -0.27501,0.312546 -0.56465,0.614529 -0.86899,0.905922 -0.3005,0.289944 -0.61207,0.565235 -0.93471,0.825883 l -0.63132,-0.559474 c 0.33479,-0.225684 0.64876,-0.465014 0.94191,-0.717931 0.29413,-0.256896 0.56436,-0.525304 0.81066,-0.805226 0.36586,-0.415815 0.6081,-0.767078 0.7267,-1.053771 0.12096,-0.289419 0.11131,-0.496281 -0.029,-0.620613 -0.14454,-0.128079 -0.35409,-0.110644 -0.62865,0.05235 -0.27359,0.159026 -0.60526,0.460031 -0.99505,0.903028 l -0.55239,0.627798 -0.52714,-0.467147 0.58109,-0.660415 c 0.34673,-0.394072 0.57311,-0.715835 0.67912,-0.965324 0.1046,-0.250717 0.091,-0.434479 -0.0408,-0.551261 -0.1219,-0.108006 -0.29861,-0.09775 -0.53023,0.03075 -0.2316,0.128516 -0.49805,0.363979 -0.79937,0.706404 -0.222363,0.25277 -0.432269,0.521428 -0.629697,0.805964 -0.197412,0.28458 -0.379459,0.580331 -0.54615,0.887276 l -0.599407,-0.531189 c 0.227257,-0.350011 0.463465,-0.687245 0.708618,-1.011745 0.245153,-0.32447 0.496876,-0.633459 0.755125,-0.926994 0.695871,-0.790845 1.283981,-1.321708 1.764381,-1.592507 0.48136,-0.274768 0.85808,-0.291603 1.13016,-0.0505 0.18563,0.164527 0.25548,0.393298 0.20951,0.6863 -0.0474,0.29174 -0.20842,0.642418 -0.48306,1.052002"
         style="fill:url(#q)"
         inkscape:connector-curvature="0" />
      <path
         id="path123"
         transform="matrix(0.697141,0.716934,-0.771888,0.635759,0,0)"
         d="m 68.420525,-77.128746 h 8.615132 v 1.874179 h -8.615132 z"
         style="fill:url(#r)"
         inkscape:connector-curvature="0" />
      <path
         id="path125"
         transform="matrix(-0.754109,-0.656749,-0.592441,0.805614,0,0)"
         d="m -116.07185,-70.382851 h 8.61519 v 1.874149 h -8.61519 z"
         style="fill:url(#s)"
         inkscape:connector-curvature="0" />
    </g>
  </g>
</svg>
