<?xml version="1.0" encoding="UTF-8" standalone="no"?>
<svg
   xmlns:dc="http://purl.org/dc/elements/1.1/"
   xmlns:cc="http://creativecommons.org/ns#"
   xmlns:rdf="http://www.w3.org/1999/02/22-rdf-syntax-ns#"
   xmlns:svg="http://www.w3.org/2000/svg"
   xmlns="http://www.w3.org/2000/svg"
   xmlns:xlink="http://www.w3.org/1999/xlink"
   xmlns:sodipodi="http://sodipodi.sourceforge.net/DTD/sodipodi-0.dtd"
   xmlns:inkscape="http://www.inkscape.org/namespaces/inkscape"
   height="128"
   viewBox="0 0 33.866666 33.866668"
   width="128"
   version="1.1"
   id="svg20"
   sodipodi:docname="italic.svg"
   inkscape:version="0.92.3 (unknown)"
   inkscape:export-filename="/home/rizmut/Dokumen/Rizmut/Github/libreoffice-style-karasa-jaga/build/images_karasa_jaga/cmd/32/ca/italic.png"
   inkscape:export-xdpi="24"
   inkscape:export-ydpi="24">
  <metadata
     id="metadata26">
    <rdf:RDF>
      <cc:Work
         rdf:about="">
        <dc:format>image/svg+xml</dc:format>
        <dc:type
           rdf:resource="http://purl.org/dc/dcmitype/StillImage" />
        <dc:title></dc:title>
      </cc:Work>
    </rdf:RDF>
  </metadata>
  <defs
     id="defs24">
    <linearGradient
       inkscape:collect="always"
       xlink:href="#b"
       id="linearGradient2077"
       x1="21.455078"
       y1="47.673828"
       x2="103.75977"
       y2="47.673828"
       gradientUnits="userSpaceOnUse" />
  </defs>
  <sodipodi:namedview
     pagecolor="#ffffff"
     bordercolor="#666666"
     borderopacity="1"
     objecttolerance="10"
     gridtolerance="10"
     guidetolerance="10"
     inkscape:pageopacity="0"
     inkscape:pageshadow="2"
     inkscape:window-width="1366"
     inkscape:window-height="706"
     id="namedview22"
     showgrid="false"
     inkscape:zoom="1.3037282"
     inkscape:cx="62.666337"
     inkscape:cy="3.9910237"
     inkscape:window-x="0"
     inkscape:window-y="0"
     inkscape:window-maximized="1"
     inkscape:current-layer="svg20" />
  <linearGradient
     id="a"
     gradientUnits="userSpaceOnUse"
     x1="18.708686"
     x2="19.767019"
     y1="292.76666"
     y2="268.42499"
     gradientTransform="translate(-2.907771,-263.42964)">
    <stop
       offset="0"
       stop-color="#555"
       id="stop2" />
    <stop
       offset="1"
       id="stop4" />
  </linearGradient>
  <linearGradient
     id="b"
     gradientUnits="userSpaceOnUse"
     x1="44.923828"
     x2="44.566963"
     y1="7.581612"
     y2="97.581612"
     gradientTransform="scale(0.26458333)">
    <stop
       offset="0"
       stop-color="#3b3e22"
       id="stop7" />
    <stop
       offset="1"
       stop-color="#454545"
       stop-opacity="0"
       id="stop9" />
  </linearGradient>
  <text
     id="text14"
     y="29.120043"
     x="3.505729"
     style="font-size:35.19966888px;font-family:sans-serif;letter-spacing:0;word-spacing:0;fill:url(#a);stroke-width:0.87999201">
    <tspan
       style="font-weight:normal;font-size:37.04166794px;font-family:FreeSerif;fill:url(#a);stroke-width:0.87999201;-inkscape-font-specification:'FreeSerif Italic';font-style:italic;font-stretch:normal;font-variant:normal"
       id="tspan12"
       y="29.120043"
       x="3.505729"
       font-weight="bold"
       font-size="37.041668">C</tspan>
  </text>
  <path
     style="opacity:1;fill:url(#linearGradient2077);fill-opacity:1.0;stroke:none;stroke-width:1.13385832;stroke-linecap:round;stroke-linejoin:round;stroke-miterlimit:4;stroke-dasharray:none;stroke-dashoffset:0;stroke-opacity:1"
     d="M 76.107422 18.994141 C 66.811753 18.994141 57.957399 21.610484 49.392578 26.929688 C 40.922914 32.2488 34.154219 39.288161 29.003906 48.136719 C 24.128252 56.669117 21.626868 65.586126 21.455078 75.001953 A 84.565177 43.91253 0 0 0 32.8125 76.353516 C 32.95754 68.206327 34.524118 60.214452 37.544922 52.433594 A 2.17338 2.17338 0 0 1 37.544922 52.425781 C 40.811761 44.1626 45.30708 37.03904 51.023438 31.128906 A 2.17338 2.17338 0 0 1 51.03125 31.128906 C 58.374554 23.589783 67.301549 19.6875 77.369141 19.6875 C 84.234581 19.6875 89.946541 21.77987 93.964844 26.035156 C 97.151431 29.409675 98.933836 34.317471 100.01758 39.994141 L 103.75977 19.916016 C 102.27288 21.33613 100.43317 22.351562 98.230469 22.351562 C 97.324898 22.351562 96.483749 22.181772 94.931641 21.894531 C 93.379529 21.607291 91.296523 21.187425 88.671875 20.625 A 2.17338 2.17338 0 0 1 88.664062 20.625 C 83.633802 19.527488 79.427094 18.994141 76.107422 18.994141 z "
     transform="scale(0.26458334)"
     id="path2060" />
</svg>
