<?xml version="1.0" encoding="UTF-8" standalone="no"?>
<svg
   xmlns:dc="http://purl.org/dc/elements/1.1/"
   xmlns:cc="http://creativecommons.org/ns#"
   xmlns:rdf="http://www.w3.org/1999/02/22-rdf-syntax-ns#"
   xmlns:svg="http://www.w3.org/2000/svg"
   xmlns="http://www.w3.org/2000/svg"
   xmlns:xlink="http://www.w3.org/1999/xlink"
   xmlns:sodipodi="http://sodipodi.sourceforge.net/DTD/sodipodi-0.dtd"
   xmlns:inkscape="http://www.inkscape.org/namespaces/inkscape"
   height="128"
   viewBox="0 0 33.866666 33.866668"
   width="128"
   version="1.1"
   id="svg20"
   sodipodi:docname="underlinedouble.svg"
   inkscape:version="0.92.3 (unknown)"
   inkscape:export-filename="/home/rizmut/Dokumen/Rizmut/Github/libreoffice-style-karasa-jaga/build/images_karasa_jaga/cmd/32/ca/underlinedouble.png"
   inkscape:export-xdpi="24"
   inkscape:export-ydpi="24">
  <metadata
     id="metadata26">
    <rdf:RDF>
      <cc:Work
         rdf:about="">
        <dc:format>image/svg+xml</dc:format>
        <dc:type
           rdf:resource="http://purl.org/dc/dcmitype/StillImage" />
        <dc:title></dc:title>
      </cc:Work>
    </rdf:RDF>
  </metadata>
  <defs
     id="defs24">
    <linearGradient
       inkscape:collect="always"
       xlink:href="#b"
       id="linearGradient879"
       x1="38.171875"
       y1="45.612305"
       x2="90.634766"
       y2="45.612305"
       gradientUnits="userSpaceOnUse"
       gradientTransform="matrix(0.26458334,0,0,0.23248595,0,-1.083571)" />
  </defs>
  <sodipodi:namedview
     pagecolor="#ffffff"
     bordercolor="#666666"
     borderopacity="1"
     objecttolerance="10"
     gridtolerance="10"
     guidetolerance="10"
     inkscape:pageopacity="0"
     inkscape:pageshadow="2"
     inkscape:window-width="1366"
     inkscape:window-height="706"
     id="namedview22"
     showgrid="false"
     inkscape:zoom="1.84375"
     inkscape:cx="32.999867"
     inkscape:cy="38.654162"
     inkscape:window-x="0"
     inkscape:window-y="0"
     inkscape:window-maximized="1"
     inkscape:current-layer="svg20" />
  <linearGradient
     id="a"
     gradientUnits="userSpaceOnUse"
     x1="18.708686"
     x2="19.767019"
     y1="292.76666"
     y2="268.42499"
     gradientTransform="matrix(0.93738306,0,0,0.93738306,1.0243056,-248.02101)">
    <stop
       offset="0"
       stop-color="#555"
       id="stop2" />
    <stop
       offset="1"
       id="stop4" />
  </linearGradient>
  <linearGradient
     id="b"
     gradientUnits="userSpaceOnUse"
     x1="44.923828"
     x2="44.566963"
     y1="7.581612"
     y2="97.581612"
     gradientTransform="scale(0.26458333)">
    <stop
       offset="0"
       stop-color="#3b3e22"
       id="stop7" />
    <stop
       offset="1"
       stop-color="#454545"
       stop-opacity="0"
       id="stop9" />
  </linearGradient>
  <text
     id="text14"
     y="26.210125"
     x="7.036212"
     style="font-size:32.99557495px;font-family:sans-serif;letter-spacing:0;word-spacing:0;fill:url(#a);stroke-width:0.82488966"
     transform="scale(1.0667997,0.93738307)">
    <tspan
       style="font-style:normal;font-variant:normal;font-weight:normal;font-stretch:normal;font-size:34.72223282px;font-family:FreeSerif;-inkscape-font-specification:FreeSerif;fill:url(#a);stroke-width:0.82488966"
       id="tspan12"
       y="26.210125"
       x="7.036212"
       font-weight="bold"
       font-size="37.041668">S</tspan>
  </text>
  <path
     style="opacity:1;fill:url(#linearGradient879);fill-opacity:1;stroke:none;stroke-width:0.28121492;stroke-linecap:round;stroke-linejoin:round;stroke-miterlimit:4;stroke-dasharray:none;stroke-dashoffset:0;stroke-opacity:1"
     d="m 16.099793,2.9254493 c -1.635486,0 -3.025124,0.4786523 -4.242119,1.4657511 a 0.40791345,0.35842825 0 0 1 0,0.00136 c -1.178773,0.9545353 -1.758032,2.1707634 -1.758032,3.7397542 0,1.1676149 0.376404,2.1634504 1.138432,3.0359384 0.782996,0.896497 1.715647,1.634993 2.804997,2.219061 0.0025,0.0013 0.0052,0.0023 0.0078,0.0036 7.87e-4,4.22e-4 0.0013,9.34e-4 0.0021,0.0013 1.155358,0.583134 2.310967,1.15474 3.466456,1.716401 0.620091,0.301416 1.193609,0.637493 1.720825,1.007135 a 23.462712,8.8896317 0 0 0 4.180623,-0.338284 c -0.03775,-0.04025 -0.07078,-0.08122 -0.11007,-0.121239 a 0.40791345,0.35842825 0 0 1 -0.0021,-0.0019 C 22.275438,14.581566 20.54716,13.459068 18.129126,12.321604 a 0.40791345,0.35842825 0 0 1 -0.0062,-0.0036 c -1.97041,-0.964308 -3.391982,-1.841483 -4.282942,-2.6704097 -0.89148,-0.8294096 -1.370976,-1.7503268 -1.370976,-2.7199032 0,-0.9741478 0.415506,-1.8191369 1.210779,-2.4456431 0.795837,-0.6269511 1.837247,-0.9403875 3.050459,-0.9403875 1.57561,0 3.027405,0.4950428 4.298963,1.451675 1.249938,0.9225764 2.143089,2.3368171 2.752287,4.146604 H 23.98045 L 23.251811,2.9254493 h -0.15813 c -0.09161,0.2627038 -0.170098,0.5370506 -0.363285,0.717437 -0.273146,0.2550473 -0.664356,0.3895955 -1.074353,0.3895955 -0.23967,0 -0.469448,-0.057577 -0.845426,-0.1530228 C 20.434639,3.7840134 19.946804,3.6432678 19.337838,3.4576241 18.162075,3.0991921 17.08214,2.9254493 16.099793,2.9254493 Z"
     id="path862"
     inkscape:connector-curvature="0" />
  <rect
     style="fill:#0e0e0e;stroke-width:1"
     id="rect11"
     y="27.516672"
     x="3.175"
     width="27.516666"
     ry="0.92470002"
     rx="0.47207496"
     height="2.1166739" />
  <rect
     style="fill:#0e0e0e;stroke-width:1"
     id="rect15"
     y="31.750011"
     x="3.175"
     width="27.516666"
     ry="0.92470002"
     rx="0.47207496"
     height="2.1166739" />
</svg>
