<?xml version="1.0" encoding="UTF-8" standalone="no"?>
<svg
   xmlns:dc="http://purl.org/dc/elements/1.1/"
   xmlns:cc="http://creativecommons.org/ns#"
   xmlns:rdf="http://www.w3.org/1999/02/22-rdf-syntax-ns#"
   xmlns:svg="http://www.w3.org/2000/svg"
   xmlns="http://www.w3.org/2000/svg"
   xmlns:xlink="http://www.w3.org/1999/xlink"
   xmlns:sodipodi="http://sodipodi.sourceforge.net/DTD/sodipodi-0.dtd"
   xmlns:inkscape="http://www.inkscape.org/namespaces/inkscape"
   height="128"
   viewBox="0 0 33.866666 33.866668"
   width="128"
   version="1.1"
   id="svg20"
   sodipodi:docname="underline.svg"
   inkscape:version="0.92.3 (unknown)"
   inkscape:export-filename="/home/rizmut/Dokumen/Rizmut/Github/libreoffice-style-karasa-jaga/build/images_karasa_jaga/cmd/32/ca/underline.png"
   inkscape:export-xdpi="24"
   inkscape:export-ydpi="24">
  <metadata
     id="metadata26">
    <rdf:RDF>
      <cc:Work
         rdf:about="">
        <dc:format>image/svg+xml</dc:format>
        <dc:type
           rdf:resource="http://purl.org/dc/dcmitype/StillImage" />
        <dc:title></dc:title>
      </cc:Work>
    </rdf:RDF>
  </metadata>
  <defs
     id="defs24">
    <linearGradient
       inkscape:collect="always"
       xlink:href="#b"
       id="linearGradient879"
       x1="38.171875"
       y1="45.612305"
       x2="90.634766"
       y2="45.612305"
       gradientUnits="userSpaceOnUse"
       gradientTransform="matrix(0.26458334,0,0,0.24882685,0,-1.3401231)" />
  </defs>
  <sodipodi:namedview
     pagecolor="#ffffff"
     bordercolor="#666666"
     borderopacity="1"
     objecttolerance="10"
     gridtolerance="10"
     guidetolerance="10"
     inkscape:pageopacity="0"
     inkscape:pageshadow="2"
     inkscape:window-width="1366"
     inkscape:window-height="706"
     id="namedview22"
     showgrid="false"
     inkscape:zoom="2.6074563"
     inkscape:cx="3.0997933"
     inkscape:cy="29.281895"
     inkscape:window-x="0"
     inkscape:window-y="0"
     inkscape:window-maximized="1"
     inkscape:current-layer="svg20" />
  <linearGradient
     id="a"
     gradientUnits="userSpaceOnUse"
     x1="18.708686"
     x2="19.767019"
     y1="292.76666"
     y2="268.42499"
     gradientTransform="matrix(0.96976693,0,0,0.96976693,1.0596924,-256.77543)">
    <stop
       offset="0"
       stop-color="#555"
       id="stop2" />
    <stop
       offset="1"
       id="stop4" />
  </linearGradient>
  <linearGradient
     id="b"
     gradientUnits="userSpaceOnUse"
     x1="44.923828"
     x2="44.566963"
     y1="7.581612"
     y2="97.581612"
     gradientTransform="scale(0.26458333)">
    <stop
       offset="0"
       stop-color="#3b3e22"
       id="stop7" />
    <stop
       offset="1"
       stop-color="#454545"
       stop-opacity="0"
       id="stop9" />
  </linearGradient>
  <text
     id="text14"
     y="26.929594"
     x="7.2792926"
     style="font-size:34.13547516px;font-family:sans-serif;letter-spacing:0;word-spacing:0;fill:url(#a);stroke-width:0.85338718"
     transform="scale(1.0311756,0.96976693)">
    <tspan
       style="font-style:normal;font-variant:normal;font-weight:normal;font-stretch:normal;font-size:35.92178345px;font-family:FreeSerif;-inkscape-font-specification:FreeSerif;fill:url(#a);stroke-width:0.85338718"
       id="tspan12"
       y="26.929594"
       x="7.2792926"
       font-weight="bold"
       font-size="37.041668">S</tspan>
  </text>
  <path
     style="opacity:1;fill:url(#linearGradient879);fill-opacity:1;stroke:none;stroke-width:0.29093009;stroke-linecap:round;stroke-linejoin:round;stroke-miterlimit:4;stroke-dasharray:none;stroke-dashoffset:0;stroke-opacity:1"
     d="m 16.099793,2.950682 c -1.635486,0 -3.025124,0.5122957 -4.242119,1.5687754 a 0.40791345,0.38362135 0 0 1 0,0.00146 c -1.178773,1.0216273 -1.758032,2.3233413 -1.758032,4.0026129 0,1.2496838 0.376404,2.3155137 1.138432,3.2493277 0.782996,0.959509 1.715647,1.749913 2.804997,2.375033 0.0025,0.0014 0.0052,0.0025 0.0078,0.0039 7.87e-4,4.52e-4 0.0013,0.001 0.0021,0.0014 1.155358,0.624122 2.310967,1.235904 3.466456,1.837043 0.620091,0.322602 1.193609,0.682301 1.720825,1.077925 a 23.462712,9.5144634 0 0 0 4.180623,-0.362062 c -0.03775,-0.04308 -0.07078,-0.08693 -0.11007,-0.12976 a 0.40791345,0.38362135 0 0 1 -0.0021,-0.002 C 22.275438,15.42608 20.54716,14.224684 18.129126,13.007271 a 0.40791345,0.38362135 0 0 1 -0.0062,-0.0039 c -1.97041,-1.032087 -3.391982,-1.970917 -4.282942,-2.858107 -0.89148,-0.8877069 -1.370976,-1.8733532 -1.370976,-2.9110789 0,-1.0426184 0.415506,-1.9469999 1.210779,-2.6175417 0.795837,-0.6710181 1.837247,-1.0064852 3.050459,-1.0064852 1.57561,0 3.027405,0.5298382 4.298963,1.5537099 1.249938,0.9874221 2.143089,2.5010666 2.752287,4.4380592 H 23.98045 L 23.251811,2.950682 h -0.15813 c -0.09161,0.2811686 -0.170098,0.5747987 -0.363285,0.767864 -0.273146,0.272974 -0.664356,0.4169793 -1.074353,0.4169793 -0.23967,0 -0.469448,-0.061624 -0.845426,-0.1637785 C 20.434639,3.8695926 19.946804,3.7189543 19.337838,3.5202621 18.162075,3.1366368 17.08214,2.950682 16.099793,2.950682 Z"
     id="path862"
     inkscape:connector-curvature="0" />
  <rect
     style="fill:#0e0e0e;stroke-width:1"
     id="rect13"
     y="28.574993"
     x="3.175"
     width="27.516666"
     ry="0.92470002"
     rx="0.47207496"
     height="2.1166739" />
</svg>
