<?xml version="1.0" encoding="UTF-8" standalone="no"?>
<svg
   xmlns:dc="http://purl.org/dc/elements/1.1/"
   xmlns:cc="http://creativecommons.org/ns#"
   xmlns:rdf="http://www.w3.org/1999/02/22-rdf-syntax-ns#"
   xmlns:svg="http://www.w3.org/2000/svg"
   xmlns="http://www.w3.org/2000/svg"
   xmlns:xlink="http://www.w3.org/1999/xlink"
   xmlns:sodipodi="http://sodipodi.sourceforge.net/DTD/sodipodi-0.dtd"
   xmlns:inkscape="http://www.inkscape.org/namespaces/inkscape"
   height="128"
   viewBox="0 0 33.866666 33.866668"
   width="128"
   version="1.1"
   id="svg20"
   sodipodi:docname="lc_bold.svg"
   inkscape:version="0.92.3 (unknown)"
   inkscape:export-filename="/home/rizmut/Dokumen/Rizmut/Github/libreoffice-style-karasa-jaga/build/images_karasa_jaga/cmd/nl/lc_bold.png"
   inkscape:export-xdpi="16.5"
   inkscape:export-ydpi="16.5">
  <metadata
     id="metadata26">
    <rdf:RDF>
      <cc:Work
         rdf:about="">
        <dc:format>image/svg+xml</dc:format>
        <dc:type
           rdf:resource="http://purl.org/dc/dcmitype/StillImage" />
        <dc:title></dc:title>
      </cc:Work>
    </rdf:RDF>
  </metadata>
  <defs
     id="defs24">
    <linearGradient
       inkscape:collect="always"
       xlink:href="#b"
       id="linearGradient2273"
       x1="14.136719"
       y1="51.567383"
       x2="102.79297"
       y2="51.567383"
       gradientUnits="userSpaceOnUse"
       gradientTransform="matrix(0.26458334,0,0,0.26458334,1.4645889,-0.24703966)" />
  </defs>
  <sodipodi:namedview
     pagecolor="#ffffff"
     bordercolor="#666666"
     borderopacity="1"
     objecttolerance="10"
     gridtolerance="10"
     guidetolerance="10"
     inkscape:pageopacity="0"
     inkscape:pageshadow="2"
     inkscape:window-width="1366"
     inkscape:window-height="706"
     id="namedview22"
     showgrid="false"
     inkscape:zoom="3.6874999"
     inkscape:cx="8.1698434"
     inkscape:cy="79.372847"
     inkscape:window-x="0"
     inkscape:window-y="0"
     inkscape:window-maximized="1"
     inkscape:current-layer="svg20" />
  <linearGradient
     id="a"
     gradientUnits="userSpaceOnUse"
     x1="18.99608880061"
     x2="20.22575014415"
     y1="294.82258903077"
     y2="266.54036534865"
     gradientTransform="matrix(0.82,0,0,0.82,0.63054628,-213.00366)">
    <stop
       offset="0"
       stop-color="#555"
       id="stop2" />
    <stop
       offset="1"
       id="stop4" />
  </linearGradient>
  <linearGradient
     id="b"
     gradientUnits="userSpaceOnUse"
     x1="53.856667"
     x2="72.864624"
     y1="1.845663"
     y2="61.042988"
     gradientTransform="matrix(0.21695833,0,0,0.21695833,3.048,3.0518754)">
    <stop
       offset="0"
       stop-color="#3b3e22"
       id="stop7" />
    <stop
       offset="1"
       stop-color="#454545"
       stop-opacity="0"
       id="stop9" />
  </linearGradient>
  <text
     id="text14"
     y="28.54417"
     x="4.4931512"
     style="font-size:33.53633881px;font-family:sans-serif;letter-spacing:0;word-spacing:0;fill:url(#a);stroke-width:0.83840817">
    <tspan
       style="font-weight:bold;font-size:35.29129791px;font-family:FreeSerif;fill:url(#a);stroke-width:0.83840817"
       id="tspan12"
       y="28.54417"
       x="4.4931512"
       font-weight="bold"
       font-size="43.038166">V</tspan>
  </text>
  <flowRoot
     xml:space="preserve"
     id="flowRoot2250"
     style="font-style:normal;font-weight:normal;font-size:40px;line-height:125%;font-family:sans-serif;letter-spacing:0px;word-spacing:0px;fill:#000000;fill-opacity:1;stroke:none;stroke-width:1px;stroke-linecap:butt;stroke-linejoin:miter;stroke-opacity:1"
     transform="matrix(0.26458334,0,0,0.26458334,1.4645889,-0.24703966)"><flowRegion
       id="flowRegion2252"><rect
         id="rect2254"
         width="190.99074"
         height="92.427246"
         x="-55.226238"
         y="-10.449114" /></flowRegion><flowPara
       id="flowPara2256"></flowPara></flowRoot>  <path
     style="opacity:1;fill:url(#linearGradient2273);fill-opacity:1;stroke:none;stroke-width:0.30000001;stroke-linecap:round;stroke-linejoin:round;stroke-miterlimit:4;stroke-dasharray:none;stroke-dashoffset:0;stroke-opacity:1"
     d="m 5.2049292,5.0461773 v 0.2340943 c 0.7256953,0.1236083 1.3032855,0.2976613 1.6758667,0.6170166 0.4221422,0.3618362 0.8002678,1.0097879 1.2557374,1.9926433 a 0.35879303,0.35879303 0 0 1 0.00362,0.0093 L 14.051935,21.730947 a 22.425274,12.328827 0 0 0 0.604097,0.01654 22.425274,12.328827 0 0 0 4.439006,-0.256832 0.35879303,0.35879303 0 0 1 -0.07597,-0.114722 L 14.15012,9.59267 14.14802,9.58905 C 13.602547,8.3079567 13.310378,7.4861019 13.310378,6.91118 c 0,-0.4840354 0.229045,-0.9279528 0.624768,-1.1973431 0.395724,-0.2693902 0.923248,-0.394104 1.583883,-0.4314981 a 0.35879303,0.35879303 0 0 1 0.01964,-0.00207 c -0.0041,0 0.131427,-0.00389 0.324528,-0.015503 0.113834,-0.00685 0.312765,-0.02055 0.482141,-0.031522 V 5.0461773 Z m 16.6578988,0 v 0.2010214 c 1.066389,0.090255 1.824274,0.2021031 2.271696,0.4258138 0.504651,0.252326 0.763777,0.8047104 0.763777,1.4490071 0,0.5897568 -0.254283,1.4221743 -0.730704,2.6370487 L 19.685183,21.368179 a 0.35879303,0.35879303 0 0 1 -0.02584,0.05271 22.425274,12.328827 0 0 0 0.805636,-0.09974 L 25.509633,8.3348657 h -0.0021 c 0.431684,-1.127174 0.826965,-1.8874193 1.290878,-2.322339 a 0.35879303,0.35879303 0 0 1 0.0078,-0.00775 c 0.426564,-0.3763954 1.06977,-0.5866132 1.855685,-0.7203709 V 5.0461773 Z"
     id="path2258"
     inkscape:connector-curvature="0" />
</svg>
