<?xml version="1.0" encoding="UTF-8" standalone="no"?>
<svg
   xmlns:dc="http://purl.org/dc/elements/1.1/"
   xmlns:cc="http://creativecommons.org/ns#"
   xmlns:rdf="http://www.w3.org/1999/02/22-rdf-syntax-ns#"
   xmlns:svg="http://www.w3.org/2000/svg"
   xmlns="http://www.w3.org/2000/svg"
   xmlns:xlink="http://www.w3.org/1999/xlink"
   xmlns:sodipodi="http://sodipodi.sourceforge.net/DTD/sodipodi-0.dtd"
   xmlns:inkscape="http://www.inkscape.org/namespaces/inkscape"
   height="128"
   viewBox="0 0 33.866666 33.866668"
   width="128"
   version="1.1"
   id="svg20"
   sodipodi:docname="sc_underlinedouble.svg"
   inkscape:version="0.92.3 (unknown)"
   inkscape:export-filename="/home/rizmut/Dokumen/Rizmut/Github/libreoffice-style-karasa-jaga/build/images_karasa_jaga/cmd/nl/sc_underlinedouble.png"
   inkscape:export-xdpi="12"
   inkscape:export-ydpi="12">
  <metadata
     id="metadata26">
    <rdf:RDF>
      <cc:Work
         rdf:about="">
        <dc:format>image/svg+xml</dc:format>
        <dc:type
           rdf:resource="http://purl.org/dc/dcmitype/StillImage" />
        <dc:title></dc:title>
      </cc:Work>
    </rdf:RDF>
  </metadata>
  <defs
     id="defs24">
    <linearGradient
       inkscape:collect="always"
       xlink:href="#b"
       id="linearGradient2070"
       x1="30.052734"
       y1="42.019531"
       x2="125.08398"
       y2="42.019531"
       gradientUnits="userSpaceOnUse"
       gradientTransform="matrix(0.26458334,0,0,0.25752369,-3.5902046,-2.0462718)" />
  </defs>
  <sodipodi:namedview
     pagecolor="#ffffff"
     bordercolor="#666666"
     borderopacity="1"
     objecttolerance="10"
     gridtolerance="10"
     guidetolerance="10"
     inkscape:pageopacity="0"
     inkscape:pageshadow="2"
     inkscape:window-width="1366"
     inkscape:window-height="706"
     id="namedview22"
     showgrid="false"
     inkscape:zoom="2.6074563"
     inkscape:cx="90.715592"
     inkscape:cy="64.233524"
     inkscape:window-x="0"
     inkscape:window-y="0"
     inkscape:window-maximized="1"
     inkscape:current-layer="svg20" />
  <linearGradient
     id="a"
     gradientUnits="userSpaceOnUse"
     x1="18.98182359615"
     x2="20.2029811282"
     y1="294.720546641"
     y2="266.6339107115"
     gradientTransform="matrix(0.9373338,0,0,0.9373338,-3.1248476,-248.93489)">
    <stop
       offset="0"
       stop-color="#555"
       id="stop2" />
    <stop
       offset="1"
       id="stop4" />
  </linearGradient>
  <linearGradient
     id="b"
     gradientUnits="userSpaceOnUse"
     x1="35.404884"
     x2="54.657333"
     y1="7.324325"
     y2="81.814293"
     gradientTransform="scale(0.26458333)">
    <stop
       offset="0"
       stop-color="#3b3e22"
       id="stop7" />
    <stop
       offset="1"
       stop-color="#454545"
       stop-opacity="0"
       id="stop9" />
  </linearGradient>
  <g
     transform="scale(0.26458334)"
     style="fill:#010101"
     id="g17">
    <rect
       x="0"
       height="8"
       rx="1.78422"
       ry="2.2950201"
       width="128"
       y="120"
       id="rect13-1" />
    <rect
       x="0"
       height="8"
       rx="1.78422"
       ry="2.2950201"
       width="128"
       y="104"
       id="rect15" />
  </g>
  <text
     id="text14"
     y="27.082012"
     x="1.3696893"
     style="font-size:38.0699501px;font-family:sans-serif;letter-spacing:0;word-spacing:0;fill:url(#a);stroke-width:0.95174813"
     transform="scale(1.0668557,0.93733386)">
    <tspan
       style="font-style:normal;font-variant:normal;font-weight:normal;font-stretch:normal;font-size:40.06214905px;font-family:FreeSerif;-inkscape-font-specification:FreeSerif;fill:url(#a);stroke-width:0.95174813"
       id="tspan12"
       y="27.082012"
       x="1.3696893"
       font-weight="bold"
       font-size="42.740532">O</tspan>
  </text>
  <path
     style="opacity:1;fill:url(#linearGradient2070);fill-opacity:1;stroke:none;stroke-width:0.29597062;stroke-linecap:round;stroke-linejoin:round;stroke-miterlimit:4;stroke-dasharray:none;stroke-dashoffset:0;stroke-opacity:1"
     d="m 19.713283,0.46609319 c 0.0023,5.6579e-4 0.0039,0.002949 0.0062,0.003523 0.0019,5.0545e-4 0.0043,-5.0651e-4 0.0062,0 z m 3.992523,2.40221301 c 0.471133,0.4434114 1.002731,0.8207551 1.38131,1.3580353 0.74005,1.0086485 1.29169,2.2487538 1.714624,3.7350995 0.433261,1.5226419 0.639236,3.223828 0.639236,5.106212 0,0.727201 -0.04699,1.451468 -0.137459,2.171851 a 25.687006,11.523095 0 0 0 2.13527,-0.757985 c 0.04275,-0.444671 0.06615,-0.902394 0.06615,-1.376142 0,-3.6631205 -1.181963,-6.4457727 -3.540353,-8.6079316 a 1.4044505,1.2339429 0 0 1 -0.0098,-0.011066 C 25.262738,3.8382834 24.503294,3.3205586 23.705806,2.8683062 Z M 9.2250342,3.6826246 C 8.8040845,3.9833661 8.3002501,4.1298069 7.9093523,4.4919128 5.5382122,6.6884055 4.3612482,9.4259583 4.3612482,12.95549 c 0,1.429406 0.1905643,2.723426 0.5653402,3.902087 a 25.687006,11.523095 0 0 0 1.9673219,0.225836 c -0.00391,-0.01659 -0.00855,-0.0332 -0.012402,-0.04979 -0.3040485,-1.308963 -0.4563028,-2.64669 -0.4563028,-4.00419 0,-1.076632 0.073932,-2.13039 0.2242757,-3.1607022 a 1.4044505,1.2339429 0 0 1 0.00413,-0.025151 C 6.8392127,8.7564791 7.162768,7.6436132 7.6153132,6.5038167 8.0384259,5.4381524 8.5906113,4.5171643 9.2250342,3.6826246 Z"
     id="path2055"
     inkscape:connector-curvature="0" />
</svg>
