<svg height="24" width="24" xmlns="http://www.w3.org/2000/svg" xmlns:xlink="http://www.w3.org/1999/xlink"><linearGradient id="a" gradientUnits="userSpaceOnUse" x1="46.544804" x2="46.544804" y1="110.54575" y2="5.81984"><stop offset="0" stop-color="#1c1c1c"/><stop offset=".5" stop-color="#888"/><stop offset="1"/></linearGradient><g transform="matrix(.171875 0 0 .171875 1 1)"><path d="m89.453125 11.359375a1.7347506 1.7347506 0 0 0 -1.734375 1.734375v101.8125a1.7347506 1.7347506 0 0 0 1.734375 1.73437h15.273435a1.7347506 1.7347506 0 0 0 1.73438-1.73437v-38.990234h8.44726a1.7347506 1.7347506 0 0 0 1.73438-1.734375v-15.271485a1.7347506 1.7347506 0 0 0 -1.73438-1.734375h-8.44726v-44.082031a1.7347506 1.7347506 0 0 0 -1.73438-1.734375zm-76.361328 10.179687a1.7347506 1.7347506 0 0 0 -1.734375 1.734376v15.273437a1.7347506 1.7347506 0 0 0 1.734375 1.734375h43.96875c-.349856 9.776807-1.777671 21.446481-5.878906 31-2.757325 6.423048-6.194513 11.76434-11.279297 15.519531-5.084785 3.755191-11.890889 6.014803-21.71875 6.009766a1.7347506 1.7347506 0 0 0 -1.734375 1.734375v15.271488a1.7347506 1.7347506 0 0 0 1.734375 1.73437c26.297537.0141 42.764781-15.522511 50.214844-32.876952 7.399847-17.23769 7.857381-36.12506 7.517578-47.982422v-.05078-7.367187a1.7347506 1.7347506 0 0 0 -1.734375-1.734376z" fill="url(#a)" fill-rule="evenodd" stroke-width="5.090726"/><path d="m54.892799 3.2812959v-2.79470843z" fill="#fff" fill-opacity=".756881"/></g></svg>