<svg height="24" width="24" xmlns="http://www.w3.org/2000/svg" xmlns:xlink="http://www.w3.org/1999/xlink"><linearGradient id="a" gradientUnits="userSpaceOnUse" x1="64.871498" x2="59.053398" y1="110.5457" y2="-11.6344"><stop offset="0" stop-color="#1c1c1c"/><stop offset=".5" stop-color="#888"/><stop offset="1"/></linearGradient><linearGradient id="b"><stop offset="0" stop-color="#0968ef"/><stop offset="1" stop-color="#aecffc"/></linearGradient><linearGradient id="c" gradientTransform="matrix(0 1.6493491 -2.8863614 0 69.36342 -101.60458)" gradientUnits="userSpaceOnUse" x1="130.70859" x2="103.74631" xlink:href="#b" y1="20.118034" y2="20.118034"/><linearGradient id="d" gradientTransform="matrix(0 -1.6493491 -2.8863614 0 69.36342 235.42448)" gradientUnits="userSpaceOnUse" x1="130.70859" x2="103.74631" xlink:href="#b" y1="20.118034" y2="20.118034"/><g transform="matrix(.171875 0 0 .171875 1 1)"><path d="m54.892799 3.2812959v-2.79470843z" fill="#fff" fill-opacity=".756881"/><path d="m100.0715 11.638v104.724h10.4724v-41.8896h15.7086v-10.4724h-15.7086v-52.362zm-73.3068 10.4724v10.4724h47.1258c-.245316 10.508724-1.59912 30.040032-6.221281 40.807105-5.813632 13.542546-20.131812 27.274115-40.904519 27.263495v10.4724c26.353093.01361 42.566143-15.396873 50.009799-32.736476 7.443662-17.339609 7.937446-36.559285 7.588401-48.649618v-7.629306z" fill="url(#a)" fill-rule="evenodd" stroke-width="5.2362"/><path d="m-.01068526 52.3647.01068526 29.0905h29.0905v-29.0905zm5.82878526 5.8181h17.4543v17.4543h-17.4543z" fill="#797979"/><g fill-rule="evenodd"><path d="m11.6362 81.4552v31.3023l-8.65908-4.94805 11.54544 23.0909 11.54545-23.0909-8.65909 4.94805v-31.3023z" fill="url(#c)"/><path d="m11.6362 52.3647v-31.3023l-8.65908 4.94804 11.54544-23.09089 11.54545 23.09089-8.65909-4.94804v31.3023z" fill="url(#d)"/></g></g></svg>