<?xml version="1.0" encoding="UTF-8" standalone="no"?>
<svg
   xmlns:dc="http://purl.org/dc/elements/1.1/"
   xmlns:cc="http://creativecommons.org/ns#"
   xmlns:rdf="http://www.w3.org/1999/02/22-rdf-syntax-ns#"
   xmlns:svg="http://www.w3.org/2000/svg"
   xmlns="http://www.w3.org/2000/svg"
   xmlns:sodipodi="http://sodipodi.sourceforge.net/DTD/sodipodi-0.dtd"
   xmlns:inkscape="http://www.inkscape.org/namespaces/inkscape"
   height="16"
   viewBox="0 0 16 16"
   width="16"
   version="1.1"
   id="svg41"
   sodipodi:docname="sc_color.svg"
   inkscape:version="0.92.4 (unknown)"><metadata
   id="metadata47">
  <rdf:RDF>
    <cc:Work
       rdf:about="">
      <dc:format>image/svg+xml</dc:format>
      <dc:type
         rdf:resource="http://purl.org/dc/dcmitype/StillImage" />
      <dc:title></dc:title>
    </cc:Work>
  </rdf:RDF>
</metadata>
<defs
   id="defs45" />
<sodipodi:namedview
   pagecolor="#ffffff"
   bordercolor="#666666"
   borderopacity="1"
   objecttolerance="10"
   gridtolerance="10"
   guidetolerance="10"
   inkscape:pageopacity="0"
   inkscape:pageshadow="2"
   inkscape:window-width="1366"
   inkscape:window-height="706"
   id="namedview43"
   showgrid="true"
   inkscape:zoom="11.313709"
   inkscape:cx="-5.2683688"
   inkscape:cy="9.7039034"
   inkscape:window-x="-1"
   inkscape:window-y="-1"
   inkscape:window-maximized="0"
   inkscape:current-layer="g33">
  <inkscape:grid
     type="xygrid"
     id="grid854" />
</sodipodi:namedview>
<linearGradient
   id="a"
   gradientUnits="userSpaceOnUse"
   x1="50.528782"
   x2="50.528782"
   y1="107.88487"
   y2="-33.562916">
  <stop
     offset="0"
     stop-color="#1c1c1c"
     id="stop2" />
  <stop
     offset=".5"
     stop-color="#888"
     id="stop4" />
  <stop
     offset="1"
     id="stop6" />
</linearGradient>


/&amp;amp;gt;<g
   id="g875"
   transform="scale(0.125)">
  <g
     id="g33"
     transform="matrix(3.3012348,0,0,3.3012348,8.124737,-842.88649)">
    <path
       id="path9"
       d="m 18.890121,266.5729 c 2e-6,1.0807 -0.876082,6.71929 -1.956787,6.71929 -1.080705,0 -1.95679,-5.63858 -1.956788,-6.71929 4e-6,-1.0807 0.876087,-1.95678 1.956788,-1.95678 1.080701,0 1.956783,0.87608 1.956787,1.95678 z"
       inkscape:connector-curvature="0"
       style="fill:#ff6600" />
    <path
       id="path11"
       d="m 11.885829,267.40472 c 0.540352,0.93592 2.600936,6.25712 1.665018,6.79747 -0.935918,0.54036 -4.5139198,-3.90475 -5.0542731,-4.84068 -0.5403465,-0.93591 -0.2196764,-2.13266 0.7162381,-2.67301 0.935915,-0.54035 2.132664,-0.21969 2.673017,0.71622 z"
       inkscape:connector-curvature="0"
       style="fill:#cc0000" />
    <path
       id="path13"
       d="m 6.2358445,271.62725 c 0.9359185,0.54035 5.3810365,4.11835 4.8406825,5.05427 -0.540348,0.93592 -5.8615439,-1.12465 -6.7974685,-1.66501 -0.9359088,-0.54035 -1.2565754,-1.7371 -0.7162247,-2.67302 0.5403512,-0.93591 1.7370962,-1.25659 2.6730107,-0.71624 z"
       inkscape:connector-curvature="0"
       style="fill:#730055" />
    <path
       id="path15"
       d="m 3.4540793,278.10906 c 1.0807042,0 6.7192897,0.87608 6.7192887,1.95678 5e-6,1.08071 -5.6385706,1.9568 -6.719285,1.9568 -1.0806958,-1e-5 -1.9567763,-0.87609 -1.9567788,-1.95679 2.8e-6,-1.0807 0.8760744,-1.95679 1.9567751,-1.95679 z"
       inkscape:connector-curvature="0"
       style="fill:#2c0059" />
    <path
       id="path17"
       d="m 4.285905,285.11335 c 0.9359173,-0.54035 6.257116,-2.60093 6.797465,-1.66502 0.540359,0.93592 -3.9047457,4.51392 -4.8406718,5.05428 -0.935915,0.54034 -2.132663,0.21967 -2.6730152,-0.71624 -0.5403475,-0.93591 -0.2196923,-2.13267 0.716222,-2.67302 z"
       inkscape:connector-curvature="0"
       style="fill:#003399" />
    <path
       id="path19"
       d="m 8.5084322,290.76333 c 0.5403532,-0.93591 4.1183568,-5.38103 5.0542678,-4.84068 0.935924,0.54035 -1.124649,5.86154 -1.665005,6.79747 -0.540356,0.93591 -1.737106,1.25657 -2.6730193,0.71623 -0.9359096,-0.54035 -1.2565941,-1.7371 -0.7162435,-2.67302 z"
       inkscape:connector-curvature="0"
       style="fill:#3366cc" />
    <path
       style="fill:#6699ff;stroke-width:0.41265434"
       d="M 8.0097656 13 C 7.5638113 13 7.2011739 15.325529 7.2011719 15.771484 C 7.2011721 15.852507 7.2258416 15.926214 7.2480469 16 L 8.7695312 16 C 8.7917365 15.926214 8.8164057 15.852507 8.8164062 15.771484 C 8.816405 15.325525 8.4557249 12.999996 8.0097656 13 z "
       transform="matrix(2.4233357,0,0,2.4233357,-2.4611206,255.32461)"
       id="path21" />
    <path
       id="path23"
       d="m 21.994532,292.71328 c -0.540346,-0.93592 -2.600932,-6.25712 -1.665021,-6.79747 0.935917,-0.54036 4.51392,3.90475 5.054278,4.84067 0.540344,0.93591 0.219671,2.13266 -0.716233,2.67302 -0.93591,0.54035 -2.132672,0.21969 -2.673024,-0.71622 z"
       inkscape:connector-curvature="0"
       style="fill:#99cc33" />
    <path
       id="path25"
       d="m 27.644518,288.49075 c -0.935913,-0.54036 -5.381033,-4.11836 -4.840685,-5.05427 0.540348,-0.93592 5.861544,1.12465 6.797468,1.66501 0.935906,0.54034 1.25657,1.7371 0.716234,2.67301 -0.540347,0.93592 -1.737103,1.2566 -2.673017,0.71625 z"
       inkscape:connector-curvature="0"
       style="fill:#00cc00" />
    <path
       id="path27"
       d="m 30.519829,282.10248 c -1.080705,-1e-5 -6.719292,-0.87609 -6.719292,-1.95678 -5e-6,-1.08071 5.638571,-1.9568 6.719285,-1.9568 1.080689,0 1.956772,0.87609 1.956782,1.95678 6e-6,1.08071 -0.876075,1.9568 -1.956775,1.9568 z"
       inkscape:connector-curvature="0"
       style="fill:#669900" />
    <path
       id="path29"
       d="m 29.59446,275.00465 c -0.935923,0.54034 -6.257122,2.60093 -6.797467,1.66502 -0.540359,-0.93592 3.904746,-4.51392 4.840671,-5.05428 0.935904,-0.54035 2.13266,-0.21967 2.673013,0.71623 0.54036,0.93592 0.219697,2.13268 -0.716217,2.67303 z"
       inkscape:connector-curvature="0"
       style="fill:#ffcc00" />
    <path
       id="path31"
       d="m 25.371934,269.35466 c -0.540363,0.93591 -4.118362,5.38104 -5.054269,4.84069 -0.935925,-0.54035 1.124649,-5.86154 1.665004,-6.79747 0.540341,-0.93591 1.737103,-1.25657 2.673012,-0.71624 0.935925,0.54035 1.256603,1.73711 0.716253,2.67302 z"
       inkscape:connector-curvature="0"
       style="fill:#ff9900" />
  </g>
  <path
     id="path35"
     transform="matrix(0.8419511,0,0,0.8419511,10.11513,0.11513)"
     d="M 96,-8.796875 A 8.7980189,8.7980189 0 0 0 87.203125,0 V 2.9589844 A 8.7980189,8.7980189 0 0 0 80,-0.796875 H 0 A 8.7980189,8.7980189 0 0 0 -8.796875,8 V 24 A 8.7980189,8.7980189 0 0 0 0,32.796875 H 54.777344 C 51.209324,71.658544 24.345877,95.203125 0,95.203125 A 8.7980189,8.7980189 0 0 0 -8.796875,104 v 16 A 8.7980189,8.7980189 0 0 0 0,128.79688 c 26.443649,0 49.34572,-11.38986 64.876953,-30.851568 C 76.48392,83.400981 84.094199,64.584918 87.203125,42.765625 V 128 A 8.7980189,8.7980189 0 0 0 96,136.79688 h 16 A 8.7980189,8.7980189 0 0 0 120.79688,128 V 80.796875 H 128 A 8.7980189,8.7980189 0 0 0 136.79688,72 V 56 A 8.7980189,8.7980189 0 0 0 128,47.203125 h -7.20312 V 0 A 8.7980189,8.7980189 0 0 0 112,-8.796875 Z"
     inkscape:connector-curvature="0"
     style="fill:#ffffff;fill-opacity:0.827206;fill-rule:evenodd;stroke-width:8" />
  <path
     id="path37"
     d="M 90.942436,0.11513 V 107.88487 H 104.41365 V 60.735609 h 13.47122 V 47.264392 H 104.41365 V 0.11513 Z M 10.11513,6.850739 V 20.321956 H 64 C 64,60.735609 37.057565,87.678044 10.11513,87.678044 v 13.471216 c 40.413653,0 67.356088,-33.678042 67.356088,-84.484537 V 6.850739 Z"
     style="fill:url(#a);fill-rule:evenodd;stroke-width:6.73560905"
     inkscape:connector-curvature="0" />
  <path
     id="path39"
     d="m 0,104.00005 h 127.99821 v 24 H 0 Z"
     inkscape:connector-curvature="0"
     style="opacity:0.98999999;fill:#ff0000" />
</g>
</svg>
