<svg height="128" viewBox="0 0 128 128" width="128" xmlns="http://www.w3.org/2000/svg" xmlns:xlink="http://www.w3.org/1999/xlink"><linearGradient id="a" gradientUnits="userSpaceOnUse" x1="48.266666" x2="48.266666" y1="108.266666" y2="-14.933333"><stop offset="0" stop-color="#1c1c1c"/><stop offset=".5" stop-color="#888"/><stop offset="1"/></linearGradient>


/&amp;amp;amp;gt;<g fill-rule="evenodd" stroke-width="5.866667"><path d="m95.466663 30.4v93.86666h11.733337v-41.066659h11.73333v-11.733334h-11.73333v-41.066667zm-70.399997 5.866667v11.733333h46.933334c0 35.200001-23.466667 58.66667-46.933334 58.66667v11.73332c35.2 0 58.666667-29.333324 58.666667-73.585415v-8.547908z" fill-opacity=".403922"/><path d="m83.466663 14.4v93.86666h11.73334v-41.066659h11.733327v-11.733334h-11.733327v-41.066667zm-70.399997 5.866667v11.733333h46.933334c0 35.200001-23.466667 58.666667-46.933334 58.666667v11.733323c35.2 0 58.666667-29.333324 58.666667-73.585415v-8.547908z" fill="url(#a)"/></g></svg>