<?xml version="1.0" encoding="UTF-8" standalone="no"?>
<svg
   xmlns:dc="http://purl.org/dc/elements/1.1/"
   xmlns:cc="http://creativecommons.org/ns#"
   xmlns:rdf="http://www.w3.org/1999/02/22-rdf-syntax-ns#"
   xmlns:svg="http://www.w3.org/2000/svg"
   xmlns="http://www.w3.org/2000/svg"
   xmlns:xlink="http://www.w3.org/1999/xlink"
   xmlns:sodipodi="http://sodipodi.sourceforge.net/DTD/sodipodi-0.dtd"
   xmlns:inkscape="http://www.inkscape.org/namespaces/inkscape"
   height="32"
   width="32"
   version="1.1"
   id="svg139"
   sodipodi:docname="alignbottom.svg"
   inkscape:version="0.92.4 (unknown)"
   inkscape:export-filename="/home/rizmut/Dokumen/Rizmut/Github/libreoffice-style-karasa-jaga/build/next/cmd/32/alignbottom.png"
   inkscape:export-xdpi="96"
   inkscape:export-ydpi="96">
  <metadata
     id="metadata145">
    <rdf:RDF>
      <cc:Work
         rdf:about="">
        <dc:format>image/svg+xml</dc:format>
        <dc:type
           rdf:resource="http://purl.org/dc/dcmitype/StillImage" />
        <dc:title></dc:title>
      </cc:Work>
    </rdf:RDF>
  </metadata>
  <defs
     id="defs143" />
  <sodipodi:namedview
     pagecolor="#ffffff"
     bordercolor="#666666"
     borderopacity="1"
     objecttolerance="10"
     gridtolerance="10"
     guidetolerance="10"
     inkscape:pageopacity="0"
     inkscape:pageshadow="2"
     inkscape:window-width="1366"
     inkscape:window-height="714"
     id="namedview141"
     showgrid="true"
     inkscape:zoom="5.1130587"
     inkscape:cx="6.5053679"
     inkscape:cy="16.42362"
     inkscape:window-x="0"
     inkscape:window-y="28"
     inkscape:window-maximized="1"
     inkscape:current-layer="g173">
    <inkscape:grid
       type="xygrid"
       id="grid147" />
  </sodipodi:namedview>
  <linearGradient
     id="a">
    <stop
       offset="0"
       stop-color="#fff"
       id="stop2" />
    <stop
       offset="1"
       stop-color="#fff"
       stop-opacity="0"
       id="stop4" />
  </linearGradient>
  <linearGradient
     id="b">
    <stop
       offset="0"
       stop-color="#80f9ff"
       id="stop7" />
    <stop
       offset="1"
       stop-color="#80fff9"
       stop-opacity="0"
       id="stop9" />
  </linearGradient>
  <filter
     id="c"
     height="1.205783"
     width="1.364658"
     x="-0.182329"
     y="-0.102891">
    <feGaussianBlur
       stdDeviation=".45819706"
       id="feGaussianBlur12" />
  </filter>
  <radialGradient
     id="d"
     cx="108"
     cy="88.402061"
     gradientTransform="matrix(4.0041971,0.00681742,-0.00973641,5.7186264,-327.59256,-406.27464)"
     gradientUnits="userSpaceOnUse"
     r="20.003965">
    <stop
       offset="0"
       stop-color="#1552f5"
       id="stop15" />
    <stop
       offset="1"
       stop-color="#071127"
       id="stop17" />
  </radialGradient>
  <linearGradient
     id="e"
     gradientTransform="matrix(1.7391071,0,0,1.7402974,-8.44124,-72.91819)"
     gradientUnits="userSpaceOnUse"
     x1="83.324677"
     x2="83.324677"
     y1="24.0625"
     y2="89.99453">
    <stop
       offset="0"
       stop-color="#bfe7ff"
       id="stop20" />
    <stop
       offset="1"
       stop-color="#bff9ff"
       stop-opacity="0"
       id="stop22" />
  </linearGradient>
  <radialGradient
     id="f"
     cx="104"
     cy="82.008759"
     gradientTransform="matrix(1,0,0,2.2000681,-4,-96.424851)"
     gradientUnits="userSpaceOnUse"
     r="24.764534">
    <stop
       offset="0"
       stop-color="#000914"
       id="stop25" />
    <stop
       offset="1"
       stop-color="#000b14"
       stop-opacity="0"
       id="stop27" />
  </radialGradient>
  <radialGradient
     id="g"
     cx="108"
     cy="60.19125"
     gradientTransform="matrix(1,0,0,2.2000681,-4,-96.424851)"
     gradientUnits="userSpaceOnUse"
     r="24.764534"
     xlink:href="#a" />
  <radialGradient
     id="h"
     cx="104"
     cy="82.008759"
     gradientTransform="matrix(1,0,0,2.2000681,-4,-96.424851)"
     gradientUnits="userSpaceOnUse"
     r="24.764534">
    <stop
       offset="0"
       stop-color="#001331"
       id="stop31" />
    <stop
       offset="1"
       stop-color="#293e63"
       id="stop33" />
  </radialGradient>
  <filter
     id="i"
     height="1.0571229"
     width="1.1427799"
     x="-0.071390003"
     y="-0.028562"
     style="color-interpolation-filters:sRGB">
    <feGaussianBlur
       stdDeviation="1.1900674"
       id="feGaussianBlur36" />
  </filter>
  <linearGradient
     id="j"
     gradientUnits="userSpaceOnUse"
     x1="112"
     x2="100"
     xlink:href="#b"
     y1="128"
     y2="56" />
  <filter
     id="k"
     height="1.016801"
     width="1.041994"
     x="-0.020997001"
     y="-0.0083999997"
     style="color-interpolation-filters:sRGB">
    <feGaussianBlur
       stdDeviation=".35001982"
       id="feGaussianBlur40" />
  </filter>
  <radialGradient
     id="l"
     cx="99.765625"
     cy="29.374895"
     gradientTransform="matrix(1.9646726,3.4e-7,-1.04e-6,5.9752716,-167.24116,-126.14811)"
     gradientUnits="userSpaceOnUse"
     r="3.015625"
     xlink:href="#a" />
  <radialGradient
     id="m"
     cx="106.9857"
     cy="82.090569"
     gradientTransform="matrix(4.0041971,0.00681742,-0.00973641,5.7186264,-327.59256,-406.27464)"
     gradientUnits="userSpaceOnUse"
     r="20.003965">
    <stop
       offset="0"
       stop-color="#9abcee"
       id="stop44" />
    <stop
       offset="1"
       stop-color="#092042"
       id="stop46" />
  </radialGradient>
  <radialGradient
     id="n"
     cx="129.3913"
     cy="145.48148"
     gradientTransform="matrix(1.0832072,0,0,1.0866324,-8.201012,-12.847244)"
     gradientUnits="userSpaceOnUse"
     r="139.55859">
    <stop
       offset="0"
       stop-color="#c3c4c6"
       id="stop49" />
    <stop
       offset=".11366145"
       stop-color="#c5c6c7"
       id="stop51" />
    <stop
       offset=".20296688"
       stop-color="#ececec"
       id="stop53" />
    <stop
       offset=".2363"
       stop-color="#fafafa"
       id="stop55" />
    <stop
       offset=".2722"
       stop-color="#fff"
       id="stop57" />
    <stop
       offset=".5313"
       stop-color="#fafafa"
       id="stop59" />
    <stop
       offset=".8449"
       stop-color="#ebecec"
       id="stop61" />
    <stop
       offset="1"
       stop-color="#e1e2e3"
       id="stop63" />
  </radialGradient>
  <radialGradient
     id="o"
     cx="140.81062"
     cy="140.81062"
     gradientUnits="userSpaceOnUse"
     r="154.45709">
    <stop
       offset="0"
       stop-color="#00537d"
       id="stop66" />
    <stop
       offset=".0151"
       stop-color="#186389"
       id="stop68" />
    <stop
       offset=".0558"
       stop-color="#558ca8"
       id="stop70" />
    <stop
       offset=".0964"
       stop-color="#89afc3"
       id="stop72" />
    <stop
       offset=".1357"
       stop-color="#b3ccd8"
       id="stop74" />
    <stop
       offset=".1737"
       stop-color="#d4e2e9"
       id="stop76" />
    <stop
       offset=".2099"
       stop-color="#ecf2f5"
       id="stop78" />
    <stop
       offset=".2435"
       stop-color="#fafcfd"
       id="stop80" />
    <stop
       offset=".2722"
       stop-color="#fff"
       id="stop82" />
  </radialGradient>
  <filter
     id="p">
    <feGaussianBlur
       stdDeviation="1.0394514"
       id="feGaussianBlur85" />
  </filter>
  <filter
     id="q"
     height="1.025854"
     width="1.026966"
     x="-0.013483"
     y="-0.012927"
     style="color-interpolation-filters:sRGB">
    <feGaussianBlur
       stdDeviation=".52628307"
       id="feGaussianBlur88" />
  </filter>
  <linearGradient
     id="r"
     gradientTransform="matrix(-4.9061e-4,-1.000183,1.000183,-4.9061e-4,-116.73622,100.0372)"
     gradientUnits="userSpaceOnUse"
     x1="113.15723"
     x2="-3.974206"
     y1="25.786163"
     y2="24.729744">
    <stop
       offset="0"
       stop-color="#0a6fc6"
       stop-opacity=".993627"
       id="stop91" />
    <stop
       offset="1"
       stop-color="#006cc9"
       id="stop93" />
  </linearGradient>
  <linearGradient
     id="s"
     gradientUnits="userSpaceOnUse"
     x1="132"
     x2="124.54322"
     xlink:href="#b"
     y1="23.9"
     y2="73.887581" />
  <g
     id="g173"
     transform="scale(0.25)">
    <path
       id="path97"
       transform="matrix(1.1528701,0,0,1.1462822,-20.729523,-17.81123)"
       d="m 23,20.586207 0.04083,101.569063 96.89282,0.186 c 0.37501,-0.375 0.586,-0.884 0.586,-1.414 l -1e-5,-100.341063 z"
       inkscape:connector-curvature="0"
       style="opacity:0.30684904;filter:url(#p)" />
    <path
       id="path99"
       transform="matrix(1.1528701,0,0,1.1462822,-20.729523,-17.81123)"
       d="m 24.919999,22.703606 1e-6,98.676144 h 95.19888 V 22.517343 Z"
       inkscape:connector-curvature="0"
       style="opacity:0.88599997;filter:url(#q)" />
    <path
       id="path101"
       transform="matrix(1.1528701,0,0,1.1462822,-20.729523,-17.81123)"
       d="m 23,21.551724 0.04087,100.603536 96.89282,0.47566 c 0.375,-0.375 0.586,-0.88401 0.586,-1.41401 V 21.551759 H 23.000054 l -5e-5,-3.5e-5 z"
       inkscape:connector-curvature="0"
       style="opacity:0.30684904;filter:url(#p)" />
    <path
       id="path103"
       d="M 8,8 V 120 H 116 V 8 Z"
       style="fill:url(#o);stroke-width:1.10675502"
       inkscape:connector-curvature="0" />
    <path
       id="path105"
       d="m 12.40347,12.435165 c -0.596847,0 -1.083207,0.487898 -1.083207,1.086632 l 3e-6,103.177803 c 0,0.59983 0.486359,1.08663 1.083206,1.08663 l 101.066078,-0.0208 c 0.20256,-0.2032 0.31738,-0.48247 0.31738,-0.76826 V 13.513653 c 0,-0.598735 -0.48528,-1.086632 -1.0832,-1.086632 l -100.30026,0.0082 z"
       style="fill:url(#n);stroke-width:1.10675502"
       inkscape:connector-curvature="0" />
    <g
       id="g113"
       style="fill:#909090">
      <path
         id="path107"
         d="m 24,64 h 68 v 4 H 24 Z"
         inkscape:connector-curvature="0" />
      <path
         id="path109"
         d="m 24,80 h 45.333332 v 4 H 24 Z"
         inkscape:connector-curvature="0" />
      <path
         id="path111"
         d="m 24,96 h 68 v 4 H 24 Z"
         inkscape:connector-curvature="0" />
    </g>
    <g
       id="g137"
       transform="matrix(1,0,0,-1,0,127.9)">
      <g
         id="g125"
         style="stroke-width:7.80000019">
        <path
           id="path117"
           d="m 103.98047,24 -19.99219,24.015625 3.978516,3.974609 12.021484,-7.80664 0.0508,53.384766 L 100,124 h 8.00195 l 0.0352,-24.01367 h 0.006 l -0.002,-2.41797 0.002,-1.55078 h -0.002 l -0.0508,-51.837892 11.83008,7.794921 4.17578,-3.978515 z"
           inkscape:connector-curvature="0"
           style="fill:none;stroke:#001d4d;filter:url(#i)" />
        <path
           id="path119"
           d="m 103.98047,24 -19.99219,24.015625 3.978516,3.974609 12.021484,-7.80664 0.0508,53.384766 L 100,124 h 8.00195 l 0.0352,-24.01367 h 0.006 l -0.002,-2.41797 0.002,-1.55078 h -0.002 l -0.0508,-51.837892 11.83008,7.794921 4.17578,-3.978515 z"
           style="fill:none;stroke:url(#g)"
           inkscape:connector-curvature="0" />
        <path
           id="path121"
           d="m 103.98047,24 -19.99219,24.015625 3.978516,3.974609 12.021484,-7.80664 0.0508,53.384766 L 100,124 h 8.00195 l 0.0352,-24.01367 h 0.006 l -0.002,-2.41797 0.002,-1.55078 h -0.002 l -0.0508,-51.837892 11.83008,7.794921 4.17578,-3.978515 z"
           style="fill:url(#d);fill-rule:evenodd;stroke:url(#h)"
           inkscape:connector-curvature="0" />
        <path
           id="path123"
           d="m 103.98047,24 -19.99219,24.015625 3.978516,3.974609 12.021484,-7.80664 0.0508,53.384766 L 100,124 h 8.00195 l 0.0352,-24.01367 h 0.006 l -0.002,-2.41797 0.002,-1.55078 h -0.002 l -0.0508,-51.837892 11.83008,7.794921 4.17578,-3.978515 z"
           style="fill:none;stroke:url(#f)"
           inkscape:connector-curvature="0" />
      </g>
      <path
         id="path127"
         transform="matrix(0.91994387,0,0,0.92057354,77.867867,-20.534004)"
         d="m 28.406226,44.03125 c -0.149888,-0.0024 -0.286582,0.01658 -0.4375,0.03125 -0.827192,0.08205 -1.59533,0.427082 -2.21875,0.96875 l 1.6875,9.6875 c 0.110915,-0.113676 0.850367,-0.848179 0.9375,-0.9375 l 0.375,0.375 3.03125,-8.34375 -0.5625,-0.5625 c -0.74135,-0.759594 -1.76329,-1.201919 -2.8125,-1.21875 z"
         style="opacity:0.77619001;fill:url(#l);filter:url(#c)"
         inkscape:connector-curvature="0" />
      <path
         id="path129"
         d="m 103.98047,24 -19.99219,24.015625 3.978516,3.974609 12.021484,-7.80664 0.0508,53.384766 L 100,124 h 8.00195 l 0.0352,-24.01367 h 0.006 l -0.002,-2.41797 0.002,-1.55078 h -0.002 l -0.0508,-51.837892 11.83008,7.794921 4.17578,-3.978515 z"
         style="fill:url(#m);fill-rule:evenodd"
         inkscape:connector-curvature="0" />
      <path
         id="path131"
         d="m 103.98047,24 -19.99219,24.015625 3.978516,3.974609 12.021484,-7.80664 0.0508,53.384766 L 100,124 h 8.00195 l 0.0352,-24.01367 h 0.006 l -0.002,-2.41797 0.002,-1.55078 h -0.002 l -0.0508,-51.837892 11.83008,7.794921 4.17578,-3.978515 z"
         style="fill:none;stroke:url(#j);stroke-width:0.80000001;filter:url(#k)"
         inkscape:connector-curvature="0" />
      <path
         id="path133"
         transform="matrix(1,0,0,-1,0,127.9)"
         d="m 100,3.9003906 0.0391,26.4316404 -0.0195,21.207031 c 2.6907,-0.377948 5.35817,-0.786913 8.00391,-1.222656 l 0.0176,-18.433594 h 0.002 l -0.002,-1.550781 0.002,-2.417969 h -0.006 l -0.0352,-24.0136714 z"
         style="fill:url(#e)"
         inkscape:connector-curvature="0" />
      <path
         id="path135"
         d="m 103.98047,24 -19.99219,24.015625 3.978516,3.974609 12.021484,-7.80664 0.0508,53.384766 L 100,124 h 8.00195 l 0.0352,-24.01367 h 0.006 l -0.002,-2.41797 0.002,-1.55078 h -0.002 l -0.0508,-51.837892 11.83008,7.794921 4.17578,-3.978515 z"
         style="fill:none;stroke:url(#s);stroke-width:0.80000001;filter:url(#k)"
         inkscape:connector-curvature="0" />
    </g>
  </g>
</svg>
