<?xml version="1.0" encoding="UTF-8" standalone="no"?>
<svg
   xmlns:dc="http://purl.org/dc/elements/1.1/"
   xmlns:cc="http://creativecommons.org/ns#"
   xmlns:rdf="http://www.w3.org/1999/02/22-rdf-syntax-ns#"
   xmlns:svg="http://www.w3.org/2000/svg"
   xmlns="http://www.w3.org/2000/svg"
   xmlns:xlink="http://www.w3.org/1999/xlink"
   xmlns:sodipodi="http://sodipodi.sourceforge.net/DTD/sodipodi-0.dtd"
   xmlns:inkscape="http://www.inkscape.org/namespaces/inkscape"
   height="32"
   viewBox="0 0 8.4666665 8.466667"
   width="32"
   version="1.1"
   id="svg39"
   sodipodi:docname="alphaliststyle.svg"
   inkscape:version="0.92.4 (unknown)"
   inkscape:export-filename="/home/rizmut/Dokumen/Rizmut/Github/libreoffice-style-karasa-jaga/build/next/cmd/32/alphaliststyle.png"
   inkscape:export-xdpi="96"
   inkscape:export-ydpi="96">
  <metadata
     id="metadata45">
    <rdf:RDF>
      <cc:Work
         rdf:about="">
        <dc:format>image/svg+xml</dc:format>
        <dc:type
           rdf:resource="http://purl.org/dc/dcmitype/StillImage" />
        <dc:title></dc:title>
      </cc:Work>
    </rdf:RDF>
  </metadata>
  <defs
     id="defs43" />
  <sodipodi:namedview
     pagecolor="#ffffff"
     bordercolor="#666666"
     borderopacity="1"
     objecttolerance="10"
     gridtolerance="10"
     guidetolerance="10"
     inkscape:pageopacity="0"
     inkscape:pageshadow="2"
     inkscape:window-width="1366"
     inkscape:window-height="714"
     id="namedview41"
     showgrid="true"
     inkscape:zoom="1.84375"
     inkscape:cx="64"
     inkscape:cy="64"
     inkscape:window-x="0"
     inkscape:window-y="28"
     inkscape:window-maximized="1"
     inkscape:current-layer="g67">
    <inkscape:grid
       type="xygrid"
       id="grid47" />
  </sodipodi:namedview>
  <linearGradient
     id="a">
    <stop
       offset="0"
       stop-color="#06f"
       id="stop2" />
    <stop
       offset="1"
       stop-color="#80b3ff"
       id="stop4" />
  </linearGradient>
  <linearGradient
     id="b"
     gradientUnits="userSpaceOnUse"
     x1="5.7448559"
     x2="6.541121"
     xlink:href="#a"
     y1="288.61456"
     y2="276.18652" />
  <linearGradient
     id="c"
     gradientUnits="userSpaceOnUse"
     x1="6.5407448"
     x2="7.6860299"
     xlink:href="#a"
     y1="271.0806"
     y2="261.5257" />
  <g
     id="g67"
     transform="scale(0.25)">
    <g
       id="g15"
       transform="matrix(1.0000031,0,0,1.0000031,-0.001259,-260.92596)">
      <path
         id="path9"
         d="m 4.8046875,266.2168 a 1.1864935,1.1864935 0 0 0 -1.1152344,0.77929 l -2.390625,6.55469 a 1.1864935,1.1864935 0 0 0 1.1152344,1.5918 H 3.7851562 A 1.1864935,1.1864935 0 0 0 4.90625,274.3457 l 0.3046875,-0.8789 h 0.8085937 l 0.3046876,0.8789 a 1.1864935,1.1864935 0 0 0 1.1210937,0.79688 h 1.359375 a 1.1864935,1.1864935 0 0 0 1.1152344,-1.5918 L 7.5371094,266.99609 A 1.1864935,1.1864935 0 0 0 6.421875,266.2168 Z"
         style="fill:url(#c)"
         inkscape:connector-curvature="0" />
      <text
         id="text13"
         y="273.9563"
         x="2.1764071"
         style="font-size:10.58333302px;font-family:sans-serif;letter-spacing:0;word-spacing:0;fill:#bfd9ff;stroke-width:0.26458299">
        <tspan
           id="tspan11"
           y="273.9563"
           x="2.1764071"
           font-weight="bold"
           font-size="9.525"
           style="font-weight:bold;font-size:9.52499962px;font-family:'Liberation Sans';fill:#bfd9ff;stroke-width:0.26458299">A</tspan>
      </text>
    </g>
    <g
       id="g23"
       transform="matrix(1.0000031,0,0,1.0000031,6.6e-5,-262.92576)">
      <path
         id="path17"
         d="m 2.5371094,283.0332 a 1.3025532,1.3025532 0 0 0 -1.3027344,1.30274 v 6.55273 a 1.3025532,1.3025532 0 0 0 1.3027344,1.30274 h 3.2792968 c 0.4283027,0 0.8502711,-0.0418 1.2597657,-0.13282 a 1.3025532,1.3025532 0 0 0 0.011719,-0.002 c 0.4314308,-0.10023 0.8460988,-0.26609 1.21875,-0.50781 a 1.3025532,1.3025532 0 0 0 0.00391,-0.002 c 0.3966638,-0.25916 0.7351678,-0.6184 0.96875,-1.03126 a 1.3025532,1.3025532 0 0 0 0.00391,-0.006 c 0.2593483,-0.46443 0.3652344,-0.98602 0.3652344,-1.49024 0,-0.6735 -0.2917015,-1.37242 -0.7675781,-1.88867 0.1694231,-0.37927 0.390625,-0.74992 0.390625,-1.14844 0,-0.44256 -0.092445,-0.90498 -0.3125,-1.32422 -0.2102663,-0.4085 -0.5335503,-0.75981 -0.9082032,-1.00586 -0.3732804,-0.24509 -0.7817771,-0.39171 -1.2011718,-0.48242 -0.4128182,-0.0931 -0.8478737,-0.13672 -1.3125,-0.13672 z m 6.2949218,3.97657 0.011719,0.01 c -0.00262,-0.003 -0.00714,-10e-4 -0.00977,-0.004 -0.00152,-10e-4 -4.252e-4,-0.004 -0.00195,-0.006 z"
         style="fill:url(#b)"
         inkscape:connector-curvature="0" />
      <text
         id="text21"
         y="290.88937"
         x="1.899845"
         style="font-size:10.58333302px;font-family:sans-serif;letter-spacing:0;word-spacing:0;fill:#bfd9ff;stroke-width:0.26458299">
        <tspan
           id="tspan19"
           y="290.88937"
           x="1.899845"
           font-weight="bold"
           font-size="9.525"
           style="font-weight:bold;font-size:9.52499962px;font-family:'Liberation Sans';fill:#bfd9ff;stroke-width:0.26458299">B</tspan>
      </text>
    </g>
    <g
       id="g37"
       style="fill:#404040;fill-opacity:0.83921599">
      <path
         id="path25"
         transform="matrix(-0.9,0,0,1,2.116667,-264.19164)"
         d="m -31.749998,273.71664 h 21.166666 v 1.05835 h -21.166666 z"
         inkscape:connector-curvature="0" />
      <path
         id="path27"
         transform="matrix(-0.9,0,0,1,2.116667,-264.19164)"
         d="m -31.749998,269.48331 h 21.166666 v 1.05835 h -21.166666 z"
         inkscape:connector-curvature="0" />
      <path
         id="path29"
         transform="matrix(-0.9,0,0,1,2.116667,-264.19164)"
         d="m -26.458332,277.94998 h 15.875 v 1.05835 h -15.875 z"
         inkscape:connector-curvature="0" />
      <path
         id="path31"
         transform="matrix(-0.9,0,0,1,2.116667,-249.37499)"
         d="m -31.749998,273.71664 h 21.166666 v 1.05835 h -21.166666 z"
         inkscape:connector-curvature="0" />
      <path
         id="path33"
         transform="matrix(-0.9,0,0,1,2.116667,-249.37499)"
         d="m -31.749998,269.48331 h 21.166666 v 1.05835 h -21.166666 z"
         inkscape:connector-curvature="0" />
      <path
         id="path35"
         transform="matrix(-0.9,0,0,1,2.116667,-249.37499)"
         d="m -26.458332,277.94998 h 15.875 v 1.05835 h -15.875 z"
         inkscape:connector-curvature="0" />
    </g>
  </g>
</svg>
