<svg height="128" viewBox="0 0 128 128" width="128" xmlns="http://www.w3.org/2000/svg" xmlns:xlink="http://www.w3.org/1999/xlink"><linearGradient id="a" gradientTransform="matrix(0 -.42447771 .25739099 0 46.260194 111.44171)" gradientUnits="userSpaceOnUse" x1="-39.008621" x2="262.53842" y1="53.381069" y2="53.381069"><stop offset="0" stop-color="#fff"/><stop offset=".5" stop-color="#fff"/><stop offset=".78125" stop-color="#f1f1f1"/><stop offset=".90625" stop-color="#eaeaea"/><stop offset="1" stop-color="#dfdfdf"/></linearGradient><linearGradient id="b" gradientUnits="userSpaceOnUse" x1="33.044144" x2="90.622231" y1="61.999203" y2="61.999203"><stop offset="0" stop-color="#7c9fcf"/><stop offset=".5" stop-color="#7c9ece"/><stop offset="1" stop-color="#7b9dcf"/></linearGradient><g fill-rule="evenodd"><path d="m61.207031-1.5390625c-1.253393.016835-2.504866.5204924-3.435547 1.45117188l-23.257812 23.25781262c-3.066037 3.066036-1.077508 8.90039 3.58789 8.90039h9.828126v29.332032 4.160156l-.000002 22.367188h-9.828126c-4.66541 0-6.653947 5.83435-3.58789 8.900392l23.257812 23.25781c1.498105 1.49811 2.11073 1.21882 2.675782 1.32031s1.038991.12811 1.52539.13086c.486399.003.956994-.0192 1.519532-.11328.562537-.094 1.157383.24131 2.716796-1.31836l22.929688-22.92969c1.717864-1.717854 1.789022-4.471299.998047-6.119136s-2.29765-3.17012-4.88086-3.128906h-9.185547l.000002-22.367188v-4.160156-29.332032h9.185547c2.583179.04122 4.089886-1.481054 4.88086-3.128906.790973-1.647852.719807-4.401292-.998047-6.11914l-22.929688-22.92968788c-1.195684-1.19568332-1.570154-1.00207132-1.882812-1.09179692-.312659-.089726-.509577-.1216955-.695313-.1523437-.371471-.061297-.672823-.090038-.96875-.1152344-.591853-.050393-.715567-.082194-1.455078-.072266z" fill="url(#b)" transform="translate(.000002 4.000005)"/><path d="m61.261719 6.5312207c-.219639.00295-.441178.089616-.611328.2597657l-23.257812 23.2578116c-.741828.741828-.154145 1.951172.708984 1.951172h13.898437v33.402344 4.160156 26.43753h-13.898437c-.863129 0-1.450812 1.20935-.708984 1.95117l23.257812 23.25782c.3403.3403 2.351992.34725 2.679688.0195l22.929687-22.92966c.862133-.86213.0013-2.313835-.939453-2.29883h-13.320313v-26.4375-4.160156-33.402344h13.320313c.940773.01501 1.801586-1.436698.939453-2.298828l-22.929687-22.9296869c-.163848-.1638479-1.848721-.2432133-2.06836-.2402644z" fill="url(#a)"/></g></svg>