<svg height="128" viewBox="0 0 128 128" width="128" xmlns="http://www.w3.org/2000/svg" xmlns:xlink="http://www.w3.org/1999/xlink"><linearGradient id="a" gradientUnits="userSpaceOnUse" x1="64" x2="64" y1="128" y2="12"><stop offset="0" stop-color="#fff"/><stop offset=".58620691" stop-color="#fff"/><stop offset=".86206895" stop-color="#f1f1f1"/><stop offset=".93103451" stop-color="#eaeaea"/><stop offset="1" stop-color="#dfdfdf"/></linearGradient><linearGradient id="b" gradientUnits="userSpaceOnUse" x1="8.030672" x2="119.96933" y1="68.5532" y2="68.5532"><stop offset="0" stop-color="#7c9fcf"/><stop offset=".5" stop-color="#7c9ece"/><stop offset="1" stop-color="#7b9dcf"/></linearGradient><g fill-rule="evenodd"><path d="m27.486328 9.09375c-.547729-.068182-.986414-.032726-1.316406.011719-.147748.012321.150039-.034096-.144531.013672a4.0003859 4.0003859 0 0 0 -.0039.00195c-.558733.091296-.239013.040116-.302734.072266-.289152.065333-.608452.158899-.9375.3046875-.251476.1114648-.316727.1522259-.214844.1015625a4.0003859 4.0003859 0 0 0 -.02148.011719c.273989-.138255.171287-.1005431-.169933.0878928-.304974.1689693-.743603.4546882-1.154297.8652342a4.0003859 4.0003859 0 0 0 -.53125.658203l-13.8027342 21.369141a4.0003859 4.0003859 0 0 0 -.1972657.339844c-.6049028 1.175773-.6513963 1.954026-.6582031 2.867187-.00681.913161.033989 1.907564.8183594 3.214844a4.0003859 4.0003859 0 0 0 .044922.07422l13.4218746 21.304686a4.0003859 4.0003859 0 0 0 .556641.695313c1.695527 1.695532 4.409731 1.765531 6.037109.984375 1.627379-.781157 3.130448-2.26988 3.089844-4.816407v-9.255859h6.792969a4.0003859 4.0003859 0 0 0 .04883 0c1.886442-.02277 6.004778.236678 8.931641 1.482422 1.463431.622872 2.57109 1.427216 3.257812 2.376953s1.129129 2.08907.978516 4.210937a4.0003859 4.0003859 0 0 0 -.009768.283204v.050781 67.595703.0508a4.0003859 4.0003859 0 0 0 4 4h.271484a4.0003859 4.0003859 0 0 0 .01367 0l7.714846-.02541 7.714844.0254a4.0003859 4.0003859 0 0 0 .01367 0h.271486a4.0003859 4.0003859 0 0 0 4-4v-.05079-67.595703-.050781a4.0003859 4.0003859 0 0 0 -.0098-.283204c-.150612-2.121867.291794-3.2612.978516-4.210937s1.794382-1.754081 3.257812-2.376953c2.926896-1.245743 7.045233-1.505194 8.931675-1.482422a4.0003859 4.0003859 0 0 0 .04883 0h6.792967v9.255859c-.0406 2.54653 1.462466 4.035251 3.089844 4.816407 1.627376.781155 4.341586.711158 6.037106-.984375a4.0003859 4.0003859 0 0 0 .55664-.695313l13.42188-21.304687a4.0003859 4.0003859 0 0 0 .0449-.07422c.78437-1.307261.82516-2.301673.81836-3.214844-.007-.913171-.0533-1.691371-.6582-2.867187a4.0003859 4.0003859 0 0 0 -.19727-.339844l-13.80271-21.36914a4.0003859 4.0003859 0 0 0 -.53125-.658203c-.41064-.410489-.84927-.6962353-1.1543-.8652342-.37532-.208134-.45182-.2301347-.16992-.087891a4.0003859 4.0003859 0 0 0 -.0215-.011719c.1023.05087.037.010075-.21484-.1015625-.3276-.1451453-.64355-.2374008-.93164-.3027344-.0605-.03105.25486.019654-.29883-.072266a4.0003859 4.0003859 0 0 0 -.0137-.00391c-.34225-.0555-.0245-.00628-.16797-.015625-.32485-.042736-.75115-.076745-1.29102-.00977a4.0003859 4.0003859 0 0 0 -.004 0c-.645774.0807416-1.148.2679288-1.515486.435556-.464123.2117817-.598701.3238987-.417969.2207031v-.00195c-.23743.1354473-.538754.3273031-.865234.6152341a4.0003859 4.0003859 0 0 0 -.002.002c-.161659.142767-.309273.293963-.423829.421875-.291112.32495-.503604.650158-.658203.929688-.2743.4960429-.638017 1.3447179-.628859 2.4179189v9.865234h-6.679688-7.791015a4.0003859 4.0003859 0 0 0 -.642578.05273c-5.196121.844994-9.32724 2.22587-12.681641 4.720708-1.628181 1.21096-2.991193 2.660999-4.205078 4.292968-1.213885-1.631968-2.576898-3.082008-4.205078-4.292968-3.3544-2.494838-7.485519-3.875714-12.681641-4.720704a4.0003859 4.0003859 0 0 0 -.642578-.052734h-7.791015-6.679688v-9.865234c.0092-1.073258-.354616-1.921952-.628906-2.417969-.153529-.277523-.365972-.600916-.654297-.923828l-.0039-.0059c-.11427-.127593-.26188-.278852-.423829-.421875a4.0003859 4.0003859 0 0 0 -.0039-.002c-.326135-.287455-.625883-.4796943-.863293-.6151471v.0019531c.180639.1031428.04607-.00896-.417969-.2207031-.367519-.1676455-.869696-.3548176-1.515625-.4355469a4.0003859 4.0003859 0 0 0 -.002 0zm33.257813 29.509766h.0039c-.04889.102413-.113643.17792-.162109.28125zm6.507812 0h.0039l.158203.28125c-.04847-.10333-.113216-.178837-.162109-.28125z" fill="url(#b)"/><path d="m26.992188 13.0625c-.0964-.012-.194869-.007351-.292969.005859-.0111.000554-.022103-.0018-.033203 0-.0153.00253-.029822.011025-.044922.015625-.002.0006-.00386.001533-.00586.001954-.0719.015459-.14299.037389-.21289.068359-.0185.0082-.036388.018244-.054688.027344-.0109.0055-.022203.009525-.033203.015625-.0927.05136-.182325.112042-.265625.195312l-13.802734 21.369141c-.26379.512739-.321467 1.602249.033203 2.193359l13.421875 21.304688c.86213.862133 2.313828.0013 2.298828-.939454v-13.320312h10.792969c4.357398-.052599 18.031542.737661 17.207031 12.353516v.050781 67.595703.05078h.271484l7.728516-.02539 7.728516.02539h.271484v-.05078-67.595703-.050781c-.824507-11.615855 12.849633-12.406115 17.207031-12.353516h10.792969v13.320312c-.015.940754 1.4367 1.801587 2.29883.939454l13.42187-21.304688c.35467-.59111.297-1.68062.03321-2.193359l-13.80274-21.369141c-.0833-.08327-.17292-.143952-.26562-.195312-.011-.0061-.02231-.010125-.03321-.015625-.0183-.0091-.03618-.019144-.05468-.027344-.0699-.03097-.14099-.0529-.21289-.068359-.002-.000421-.00386-.001354-.00586-.001954-.0151-.0046-.02963-.013095-.04493-.015625-.0111-.0018-.0221.000554-.0332 0-.0981-.01321-.19657-.017859-.29297-.005859-.12289.01536-.24026.054701-.35156.105469-.0341.01556-.0633.036187-.0957.054687-.0718.04096-.13998.08666-.20117.140625-.0338.02985-.06396.06039-.09376.09375-.0536.05983-.09819.125683-.13671.195313-.0757.136886-.130308.285385-.12891.449218v13.898438h-10.679688-7.791015c-9.699477 1.577322-13.693339 4.847218-17.322266 12.583984-.010679.015983-.020935.031366-.03125.046875l-.027343-.046875c-.050725.07592-.097987.146724-.148438.222657-.050447-.075933-.097716-.146737-.148438-.222657l-.027343.046875c-.010316-.015509-.02057-.030892-.03125-.046875-3.62893-7.736766-7.622787-11.006662-17.322266-12.583984h-7.791015-10.679688v-13.898438c.001398-.163834-.053206-.312332-.128906-.449218-.03852-.06963-.083119-.135483-.136719-.195313-.0298-.03336-.05995-.0639-.09375-.09375-.0612-.053965-.129372-.099665-.201172-.140625-.0324-.0185-.061603-.039127-.095703-.054687-.1113-.050768-.228672-.090109-.351562-.105469z" fill="url(#a)"/></g></svg>