<svg height="128" viewBox="0 0 128 128" width="128" xmlns="http://www.w3.org/2000/svg" xmlns:xlink="http://www.w3.org/1999/xlink"><linearGradient id="a" gradientTransform="matrix(.732958 0 0 .4444445 39.89608 35.863824)" gradientUnits="userSpaceOnUse" x1="21.971136" x2="21.971136" y1="162.30638" y2="-35.6936"><stop offset="0" stop-color="#fff"/><stop offset=".45454547" stop-color="#fff"/><stop offset=".81818181" stop-color="#f1f1f1"/><stop offset=".90909094" stop-color="#eaeaea"/><stop offset="1" stop-color="#dfdfdf"/></linearGradient><linearGradient id="b" gradientUnits="userSpaceOnUse" x1="8.036171" x2="116.00195" y1="63.678944" y2="63.678944"><stop offset="0" stop-color="#7c9fcf"/><stop offset=".5" stop-color="#7c9ece"/><stop offset="1" stop-color="#7b9dcf"/></linearGradient><g fill-rule="evenodd"><path d="m53.050781 18.267578c-1.16722.191365-2.359679.787414-3.25 1.677734l-40.1621091 40.16211c-2.0816738 2.081674-2.1802498 5.604906-.03125 7.753906l39.5917971 39.591792c2.009338 2.00935 5.144397 2.07882 7.113281 1.13477s3.735564-2.7602 3.689453-5.65039v-18.935547h50.498047c2.87682 0 5.50195-2.408979 5.50195-5.439453v-29.125c0-3.030471-2.62514-5.439453-5.50195-5.439453h-50.498047v-19.998047c0-3.922267-3.452436-6.306035-6.951172-5.732422z" fill="url(#b)"/><path d="m52.631102 22.775148-40.162352 40.162352c-.587606.587606-.597092 1.527908-.03125 2.09375l39.59277 39.59277c1.488665 1.48867 3.995647.003 3.96973-1.62146v-23.00256h54.5c.831 0 1.5-.63728 1.5-1.4375v-29.125c0-.800222-.669-1.4375-1.5-1.4375h-54.5v-23.999723c0-1.490389-2.087963-2.506064-3.368898-1.225129z" fill="url(#a)"/></g></svg>