<svg height="128" viewBox="0 0 128 128" width="128" xmlns="http://www.w3.org/2000/svg" xmlns:xlink="http://www.w3.org/1999/xlink"><linearGradient id="a" gradientUnits="userSpaceOnUse" x1="106.04977" x2="60" y1="136.03154" y2="0"><stop offset="0" stop-color="#fff"/><stop offset=".53125" stop-color="#fff"/><stop offset=".78125" stop-color="#f1f1f1"/><stop offset=".875" stop-color="#eaeaea"/><stop offset="1" stop-color="#dfdfdf"/></linearGradient><linearGradient id="b" gradientUnits="userSpaceOnUse" x1="46.638672" x2="127.41211" y1="68.015625" y2="68.015625"><stop offset="0" stop-color="#7c9fcf"/><stop offset=".5" stop-color="#7c9ece"/><stop offset="1" stop-color="#7b9dcf"/></linearGradient><path d="m50.878906 4.2617188a4.2402359 4.2402359 0 0 0 -4.240234 4.2402343v119.0273469a4.2402359 4.2402359 0 0 0 4.240234 4.24023h72.292974a4.2402359 4.2402359 0 0 0 4.24023-4.24023v-119.0273469a4.2402359 4.2402359 0 0 0 -4.24023-4.2402343z" fill="url(#b)" transform="matrix(1 0 -.33852275 .94095821 0 0)"/><path d="m50.878109 8.501971h72.293556v119.0276h-72.293556z" fill="url(#a)" transform="matrix(1 0 -.33852275 .94095821 0 0)"/></svg>