<svg height="128" viewBox="0 0 128 128" width="128" xmlns="http://www.w3.org/2000/svg" xmlns:xlink="http://www.w3.org/1999/xlink"><linearGradient id="a" gradientUnits="userSpaceOnUse" x1="64" x2="64" y1="126.612046" y2="1.387954"><stop offset="0" stop-color="#fff"/><stop offset=".50643778" stop-color="#fff"/><stop offset=".82296139" stop-color="#f1f1f1"/><stop offset=".90625" stop-color="#eaeaea"/><stop offset="1" stop-color="#dfdfdf"/></linearGradient><linearGradient id="b" gradientUnits="userSpaceOnUse" x1="64.000001" x2="64.000001" y1="131.932538" y2="-3.932537"><stop offset="0" stop-color="#7c9fcf"/><stop offset=".5" stop-color="#7c9ece"/><stop offset="1" stop-color="#7b9dcf"/></linearGradient><path d="m64 7.6875a56.312778 56.312778 0 0 0 -56.3125 56.3125 56.312778 56.312778 0 0 0 56.3125 56.3125 56.312778 56.312778 0 0 0 56.3125-56.3125 56.312778 56.312778 0 0 0 -56.3125-56.3125zm0 36.316406a19.996105 19.996105 0 0 1 19.996094 19.996094 19.996105 19.996105 0 0 1 -19.996094 19.996094 19.996105 19.996105 0 0 1 -19.996094-19.996094 19.996105 19.996105 0 0 1 19.996094-19.996094z" fill="url(#b)"/><path d="m64 12.097656a51.902351 51.902351 0 0 0 -51.902344 51.902344 51.902351 51.902351 0 0 0 51.902344 51.90234 51.902351 51.902351 0 0 0 51.90234-51.90234 51.902351 51.902351 0 0 0 -51.90234-51.902344zm0 27.904297a23.9986 23.9986 0 0 1 23.998047 23.998047 23.9986 23.9986 0 0 1 -23.998047 23.998047 23.9986 23.9986 0 0 1 -23.998047-23.998047 23.9986 23.9986 0 0 1 23.998047-23.998047z" fill="url(#a)"/></svg>