<?xml version="1.0" encoding="UTF-8" standalone="no"?>
<!-- Created with Inkscape (http://www.inkscape.org/) -->

<svg
   xmlns:dc="http://purl.org/dc/elements/1.1/"
   xmlns:cc="http://creativecommons.org/ns#"
   xmlns:rdf="http://www.w3.org/1999/02/22-rdf-syntax-ns#"
   xmlns:svg="http://www.w3.org/2000/svg"
   xmlns="http://www.w3.org/2000/svg"
   xmlns:xlink="http://www.w3.org/1999/xlink"
   xmlns:sodipodi="http://sodipodi.sourceforge.net/DTD/sodipodi-0.dtd"
   xmlns:inkscape="http://www.inkscape.org/namespaces/inkscape"
   width="32"
   height="32"
   viewBox="0 0 8.4666665 8.466667"
   version="1.1"
   id="svg3248"
   inkscape:version="0.92.4 (unknown)"
   sodipodi:docname="bold.svg"
   inkscape:export-filename="/home/rizmut/Dokumen/Rizmut/Github/libreoffice-style-karasa-jaga/build/next/cmd/32/bold.png"
   inkscape:export-xdpi="96"
   inkscape:export-ydpi="96">
  <defs
     id="defs3242">
    <linearGradient
       id="b"
       gradientUnits="userSpaceOnUse"
       x1="35.404884"
       x2="54.657333"
       y1="7.3243251"
       y2="81.814293"
       gradientTransform="scale(0.26458333)">
      <stop
         offset="0"
         stop-color="#3b3e22"
         id="stop7" />
      <stop
         offset="1"
         stop-color="#454545"
         stop-opacity="0"
         id="stop9" />
    </linearGradient>
    <linearGradient
       id="a"
       gradientUnits="userSpaceOnUse"
       x1="18.981823"
       x2="20.202982"
       y1="294.72055"
       y2="266.63391"
       gradientTransform="translate(-203.46807,72.616749)">
      <stop
         offset="0"
         stop-color="#555"
         id="stop2" />
      <stop
         offset="1"
         id="stop4" />
    </linearGradient>
    <linearGradient
       id="linearGradient1703"
       gradientUnits="userSpaceOnUse"
       x1="18.981823"
       x2="20.202982"
       y1="294.72055"
       y2="266.63391"
       gradientTransform="translate(3.7611663,-263.57652)">
      <stop
         offset="0"
         stop-color="#555"
         id="stop1699" />
      <stop
         offset="1"
         id="stop1701" />
    </linearGradient>
    <linearGradient
       inkscape:collect="always"
       xlink:href="#a"
       id="linearGradient856"
       x1="17.176908"
       y1="296.97855"
       x2="18.131472"
       y2="263.30258"
       gradientUnits="userSpaceOnUse" />
    <linearGradient
       inkscape:collect="always"
       xlink:href="#b"
       id="linearGradient858"
       x1="68.022903"
       y1="0.97536516"
       x2="58.183594"
       y2="61.429688"
       gradientUnits="userSpaceOnUse" />
    <linearGradient
       inkscape:collect="always"
       xlink:href="#a"
       id="linearGradient4771"
       gradientUnits="userSpaceOnUse"
       x1="17.176908"
       y1="296.97855"
       x2="18.131472"
       y2="263.30258" />
  </defs>
  <sodipodi:namedview
     id="base"
     pagecolor="#ffffff"
     bordercolor="#666666"
     borderopacity="1.0"
     inkscape:pageopacity="0.0"
     inkscape:pageshadow="2"
     inkscape:zoom="3.9597979"
     inkscape:cx="-24.252545"
     inkscape:cy="11.988045"
     inkscape:document-units="mm"
     inkscape:current-layer="g4769"
     showgrid="true"
     units="px"
     inkscape:window-width="1366"
     inkscape:window-height="706"
     inkscape:window-x="0"
     inkscape:window-y="0"
     inkscape:window-maximized="1">
    <inkscape:grid
       type="xygrid"
       id="grid4761" />
  </sodipodi:namedview>
  <metadata
     id="metadata3245">
    <rdf:RDF>
      <cc:Work
         rdf:about="">
        <dc:format>image/svg+xml</dc:format>
        <dc:type
           rdf:resource="http://purl.org/dc/dcmitype/StillImage" />
        <dc:title></dc:title>
      </cc:Work>
    </rdf:RDF>
  </metadata>
  <g
     inkscape:label="Layer 1"
     inkscape:groupmode="layer"
     id="layer1"
     transform="translate(0,-288.53332)">
    <g
       id="g4769"
       transform="matrix(0.25,0,0,0.25,2.2252401e-7,222.74999)">
      <g
         id="text3806"
         style="font-style:normal;font-variant:normal;font-weight:bold;font-stretch:normal;font-size:37.10869598px;line-height:1.25;font-family:FreeSerif;-inkscape-font-specification:'FreeSerif, Bold';font-variant-ligatures:normal;font-variant-caps:normal;font-variant-numeric:normal;font-feature-settings:normal;text-align:start;letter-spacing:0px;word-spacing:0px;writing-mode:lr-tb;text-anchor:start;fill:url(#linearGradient856);fill-opacity:1;stroke:none;stroke-width:0.92776132"
         aria-label="B">
        <path
           id="path4758"
           style="font-style:normal;font-variant:normal;font-weight:bold;font-stretch:normal;font-size:37.04166794px;font-family:FreeSerif;-inkscape-font-specification:'FreeSerif, Bold';font-variant-ligatures:normal;font-variant-caps:normal;font-variant-numeric:normal;font-feature-settings:normal;text-align:start;writing-mode:lr-tb;text-anchor:start;fill:url(#linearGradient4771);fill-opacity:1;stroke-width:0.92776132"
           d="m 21.138672,279.14044 q 7.149042,1.5187 7.149042,6.55637 0,3.14854 -2.852209,5.07471 -2.852208,1.88912 -7.5565,1.88912 H 5.9515878 v -0.92604 q 2.0372917,-0.22225 2.6299584,-0.70379 0.6297083,-0.51858 0.6297083,-1.92617 v -17.92816 q 0,-1.40759 -0.66675,-1.96321 -0.66675,-0.55563 -2.5929167,-0.66675 v -0.92604 H 17.397463 q 4.630209,0 7.112,1.55575 2.518834,1.51871 2.518834,4.37091 0,2.11138 -1.3335,3.40784 -1.3335,1.25941 -4.556125,2.18546 z m -6.000751,0.81491 v 9.26042 q 0,1.22237 0.518584,1.74096 0.518583,0.51858 1.740958,0.51858 4.519084,0 4.519084,-5.44512 0,-6.07484 -5.667376,-6.07484 z m 0,-9.40858 v 8.29733 q 3.407834,-0.0741 4.593167,-1.07421 1.185334,-1.03716 1.185334,-3.96345 0,-2.62996 -0.926042,-3.85234 -0.926042,-1.22237 -2.852209,-1.22237 -1.074208,0 -1.55575,0.40746 -0.4445,0.40745 -0.4445,1.40758 z"
           inkscape:connector-curvature="0" />
      </g>
      <path
         id="path3812"
         transform="matrix(0.26458333,0,0,0.26458333,0,263.13332)"
         d="m 28.626953,19.109375 c 2.02806,0.466469 3.743553,1.141447 5.041016,2.222656 2.365478,1.971213 3.292969,5.179893 3.292969,9.064453 V 75.775391 A 118.92857,62.142853 0 0 0 55.068359,74.677734 V 63.578125 A 2.1473284,2.1473284 0 0 1 56.78125,61.474609 2.1473284,2.1473284 0 0 1 55.068359,59.378906 V 28.019531 c 0,-2.835704 0.602838,-5.281418 2.371094,-6.902343 a 2.1473284,2.1473284 0 0 1 0.06641,-0.05859 c 1.621875,-1.372385 3.836064,-1.846416 6.392579,-1.949219 z m 36.658203,0 c 5.0564,0.123742 9.311896,1.844668 11.980469,5.367187 2.781676,3.671812 3.935547,8.984806 3.935547,15.863282 0,7.663408 -1.473679,13.323879 -5.212891,16.595703 a 2.1473284,2.1473284 0 0 1 -0.0293,0.02148 c -3.58735,3.026797 -9.551652,4.207031 -17.77539,4.472657 h 3.234375 c 7.523463,0 13.578935,2.073528 17.634765,6.421874 0.722183,0.774262 1.371577,1.616584 1.957032,2.515626 a 118.92857,62.142853 0 0 0 11.876953,-3.201172 c -3.603011,-1.882047 -8.066894,-3.422027 -13.435547,-4.5625 A 2.1473284,2.1473284 0 0 1 79.302731,58.43359 c 7.933123,-2.279622 13.387568,-4.980826 16.314454,-7.736328 2.941251,-2.859591 4.384765,-6.470414 4.384765,-11.339844 0,-6.555553 -2.637446,-11.162182 -8.474609,-14.681641 a 2.1473284,2.1473284 0 0 1 -0.0293,-0.02148 C 85.754189,21.053654 77.184492,19.109375 65.757812,19.109375 Z"
         style="font-style:normal;font-variant:normal;font-weight:bold;font-stretch:normal;font-size:37.04166794px;line-height:1.25;font-family:FreeSerif;-inkscape-font-specification:'FreeSerif, Bold';font-variant-ligatures:normal;font-variant-caps:normal;font-variant-numeric:normal;font-feature-settings:normal;text-align:start;letter-spacing:0px;word-spacing:0px;writing-mode:lr-tb;text-anchor:start;fill:url(#linearGradient858);fill-opacity:1;stroke:none;stroke-width:3.50649953"
         inkscape:connector-curvature="0" />
    </g>
  </g>
</svg>
