<svg height="128" viewBox="0 0 128 128" width="128" xmlns="http://www.w3.org/2000/svg" xmlns:xlink="http://www.w3.org/1999/xlink"><linearGradient id="a"><stop offset="0" stop-color="#7c9fcf"/><stop offset=".5" stop-color="#7c9ece"/><stop offset="1" stop-color="#7b9dcf"/></linearGradient><linearGradient id="b" gradientUnits="userSpaceOnUse" x1="32.109856" x2="119.986898" xlink:href="#a" y1="51.951462" y2="51.951462"/><linearGradient id="c" gradientUnits="userSpaceOnUse" x1="80.291107" x2="84.533745" y1="102.509669" y2="-21.234015"><stop offset="0" stop-color="#fff"/><stop offset=".42597079" stop-color="#fff"/><stop offset=".5892781" stop-color="#f1f1f1"/><stop offset=".80219781" stop-color="#eaeaea"/><stop offset="1" stop-color="#dfdfdf"/></linearGradient><linearGradient id="d" gradientUnits="userSpaceOnUse" x1="23.966826" x2="28.386243" xlink:href="#a" y1="77.69539" y2="77.69539"/><linearGradient id="e" gradientTransform="matrix(1 0 0 .23868586 32.575374 -45.454745)" gradientUnits="userSpaceOnUse" x1="7.424621" x2="11.844038" xlink:href="#a" y1="81.507729" y2="81.507729"/><path d="m35.772137 8.0139254a3.6634531 3.6634531 0 0 0 -3.662281 3.6622816v80.550512a3.6634531 3.6634531 0 0 0 3.662281 3.662282h80.552483a3.6634531 3.6634531 0 0 0 3.66228-3.662282v-80.550512a3.6634531 3.6634531 0 0 0 -3.66228-3.6622816z" fill="url(#b)"/><path d="m36.096931 12h79.903069v79.903069h-79.903069z" fill="url(#c)"/><path d="m23.966829 35.799316h4.419417v83.792152h-4.419417z" fill="url(#d)" transform="matrix(.9781476 .20791169 -.20791169 .9781476 0 0)"/><path d="m40-36h4.419417v20.000002h-4.419417z" fill="url(#e)" transform="rotate(90)"/></svg>