<?xml version="1.0" encoding="UTF-8" standalone="no"?>
<!-- Created with Inkscape (http://www.inkscape.org/) -->

<svg
   xmlns:dc="http://purl.org/dc/elements/1.1/"
   xmlns:cc="http://creativecommons.org/ns#"
   xmlns:rdf="http://www.w3.org/1999/02/22-rdf-syntax-ns#"
   xmlns:svg="http://www.w3.org/2000/svg"
   xmlns="http://www.w3.org/2000/svg"
   xmlns:sodipodi="http://sodipodi.sourceforge.net/DTD/sodipodi-0.dtd"
   xmlns:inkscape="http://www.inkscape.org/namespaces/inkscape"
   width="32"
   height="32"
   viewBox="0 0 8.4666665 8.4666669"
   version="1.1"
   id="svg197"
   inkscape:export-filename="/home/rizmut/Dokumen/Rizmut/Github/libreoffice-style-karasa-jaga/build/next/cmd/32/dbtableopen.png"
   inkscape:export-xdpi="96"
   inkscape:export-ydpi="96"
   inkscape:version="0.92.3 (2405546, 2018-03-11)"
   sodipodi:docname="dbtableopen.svg">
  <defs
     id="defs191">
    <linearGradient
       id="j"
       gradientTransform="matrix(0.0564759,0,0,0.03815201,1.2141282,257.44799)"
       gradientUnits="userSpaceOnUse"
       x1="124.01234"
       x2="123.73341"
       y1="966.51019"
       y2="904.93018">
      <stop
         offset="0"
         id="stop47" />
      <stop
         offset="1"
         stop-color="#34608f"
         stop-opacity="0"
         id="stop49" />
    </linearGradient>
    <linearGradient
       gradientTransform="matrix(0.26458333,0,0,0.26458333,0.52916666,293.03123)"
       id="i"
       gradientUnits="userSpaceOnUse"
       x1="0.37740999"
       x2="-1"
       y1="5.2146521"
       y2="-2.999999">
      <stop
         offset="0"
         stop-color="#34608f"
         id="stop42" />
      <stop
         offset="1"
         stop-color="#34608f"
         stop-opacity="0"
         id="stop44" />
    </linearGradient>
    <linearGradient
       id="g"
       gradientTransform="matrix(1.2169765,0,0,1,10.514187,17)"
       gradientUnits="userSpaceOnUse"
       x1="6.5"
       x2="6.5"
       y1="11"
       y2="12">
      <stop
         offset="0"
         stop-color="#2a3674"
         id="stop32" />
      <stop
         offset="1"
         stop-color="#174072"
         stop-opacity="0"
         id="stop34" />
    </linearGradient>
    <linearGradient
       gradientTransform="matrix(0.26458333,0,0,0.26458333,0.52916666,293.03123)"
       id="f"
       gradientUnits="userSpaceOnUse"
       x1="7.7398381"
       x2="8"
       y1="1.357724"
       y2="14">
      <stop
         offset="0"
         stop-color="#587bcb"
         id="stop25" />
      <stop
         offset=".94117647"
         stop-color="#3f59ae"
         id="stop27" />
      <stop
         offset="1"
         stop-color="#3d7cdb"
         id="stop29" />
    </linearGradient>
    <clipPath
       id="b">
      <rect
         height="33.714294"
         rx="4"
         width="128.11432"
         x="18.680351"
         y="938.78137"
         id="rect5" />
    </clipPath>
    <filter
       style="color-interpolation-filters:sRGB"
       id="a"
       height="1.267833"
       width="1.129187"
       x="-0.064594001"
       y="-0.133917">
      <feGaussianBlur
         stdDeviation="3.1247207"
         id="feGaussianBlur2" />
    </filter>
    <linearGradient
       gradientTransform="matrix(0.26458333,0,0,0.26458333,0.52916666,293.03123)"
       id="h"
       gradientUnits="userSpaceOnUse"
       x1="9"
       x2="9"
       y1="-7"
       y2="4">
      <stop
         offset="0"
         stop-color="#102134"
         id="stop37" />
      <stop
         offset="1"
         stop-color="#102134"
         stop-opacity="0"
         id="stop39" />
    </linearGradient>
    <linearGradient
       id="k"
       gradientUnits="userSpaceOnUse"
       x1="55"
       x2="55"
       y1="1036.4132"
       y2="1032.4822">
      <stop
         offset="0"
         stop-color="#003d7b"
         id="stop52" />
      <stop
         offset="1"
         stop-color="#003d7b"
         stop-opacity="0"
         id="stop54" />
    </linearGradient>
    <filter
       style="color-interpolation-filters:sRGB"
       id="l"
       height="1.697208"
       width="1.0278879"
       x="-0.013944"
       y="-0.34860399">
      <feGaussianBlur
         stdDeviation=".70882694"
         id="feGaussianBlur57" />
    </filter>
    <filter
       style="color-interpolation-filters:sRGB"
       id="m"
       height="1.869989"
       width="1.027669"
       x="-0.013834"
       y="-0.43499401">
      <feGaussianBlur
         stdDeviation=".70324038"
         id="feGaussianBlur60" />
    </filter>
    <filter
       id="c">
      <feGaussianBlur
         stdDeviation="1.177891"
         id="feGaussianBlur8" />
    </filter>
    <linearGradient
       id="d"
       gradientTransform="matrix(0.0321355,0,0,0.04647684,-1.027302,241.82648)"
       gradientUnits="userSpaceOnUse"
       x1="399.77466"
       x2="399.77466"
       y1="727.07941"
       y2="480.60214">
      <stop
         offset="0"
         stop-color="#cbcbcd"
         id="stop11" />
      <stop
         offset=".5"
         stop-color="#e0e0e2"
         id="stop13" />
      <stop
         offset="1"
         stop-color="#f2f2f2"
         id="stop15" />
    </linearGradient>
    <linearGradient
       id="e"
       gradientTransform="matrix(0.0321355,0,0,0.04647684,30.575317,335.83667)"
       gradientUnits="userSpaceOnUse"
       x1="-333.0289"
       x2="-333.0289"
       y1="-1473.6504"
       y2="-776.61371">
      <stop
         offset="0"
         stop-color="#fff"
         id="stop18" />
      <stop
         offset=".49140647"
         stop-color="#fff"
         id="stop20" />
      <stop
         offset="1"
         stop-color="#dcdcdc"
         id="stop22" />
    </linearGradient>
  </defs>
  <sodipodi:namedview
     id="base"
     pagecolor="#ffffff"
     bordercolor="#666666"
     borderopacity="1.0"
     inkscape:pageopacity="0.0"
     inkscape:pageshadow="2"
     inkscape:zoom="15.0625"
     inkscape:cx="4.2157676"
     inkscape:cy="16"
     inkscape:document-units="mm"
     inkscape:current-layer="layer1"
     showgrid="false"
     units="px"
     inkscape:window-width="1366"
     inkscape:window-height="714"
     inkscape:window-x="0"
     inkscape:window-y="28"
     inkscape:window-maximized="1" />
  <metadata
     id="metadata194">
    <rdf:RDF>
      <cc:Work
         rdf:about="">
        <dc:format>image/svg+xml</dc:format>
        <dc:type
           rdf:resource="http://purl.org/dc/dcmitype/StillImage" />
        <dc:title></dc:title>
      </cc:Work>
    </rdf:RDF>
  </metadata>
  <g
     inkscape:label="Layer 1"
     inkscape:groupmode="layer"
     id="layer1"
     transform="translate(0,-288.53332)">
    <g
       transform="matrix(0.25,0,0,0.25,1.2101989e-8,222.47218)"
       id="g94">
      <path
         style="opacity:0.5;filter:url(#c)"
         inkscape:connector-curvature="0"
         d="m 83.772,239.27611 h 119.71329 c 1.18742,0 2.14336,1.12849 2.14336,2.53025 v 100.56093 c 0,1.40175 -0.95594,2.53025 -2.14336,2.53025 H 83.772 c -1.187418,0 -2.143353,-1.1285 -2.143353,-2.53025 V 241.80636 c 0,-1.40176 0.955935,-2.53025 2.143353,-2.53025 z"
         transform="matrix(0.26458333,0,0,0.26052164,-21.068414,204.50088)"
         id="path66" />
      <path
         style="fill:url(#d)"
         inkscape:connector-curvature="0"
         d="M 1.6071347,267.36666 H 32.259523 c 0.304038,0 0.548801,0.28894 0.548801,0.64786 v 25.1626 c 0,0.35892 -0.244763,0.64786 -0.548801,0.64786 H 1.6071347 c -0.3040362,0 -0.5488019,-0.28894 -0.5488019,-0.64786 v -25.1626 c 0,-0.35892 0.2447657,-0.64786 0.5488019,-0.64786 z"
         id="path68" />
      <path
         style="fill:url(#e)"
         inkscape:connector-curvature="0"
         d="m 1.6040367,267.36666 c -0.3040364,0 -0.5457031,0.286 -0.5457031,0.64492 v 25.16848 c 0,0.35892 0.2416667,0.64492 0.5457031,0.64492 H 32.262629 c 0.304041,0 0.545703,-0.286 0.545703,-0.64492 v -25.16848 c 0,-0.35892 -0.241662,-0.64492 -0.545703,-0.64492 z m 0.3720703,0.96738 h 29.914452 c 0.288835,0 0.520898,0.27095 0.520898,0.60772 v 23.87864 c 0,0.33676 -0.232063,0.60771 -0.520898,0.60771 H 1.976107 c -0.2888343,0 -0.5208984,-0.27095 -0.5208984,-0.60771 v -23.87864 c 0,-0.33677 0.2320641,-0.60772 0.5208984,-0.60772 z"
         id="path70" />
      <path
         style="fill:#ffffff"
         inkscape:connector-curvature="0"
         d="M 1.0583333,275.83331 H 32.808333 v 16.93334 H 1.0583333 Z"
         id="path72" />
      <g
         style="fill:#cbcbcd"
         id="g92">
        <path
           inkscape:connector-curvature="0"
           d="m 1.455208,275.76715 h 0.661458 v 16.99948 H 1.455208 Z"
           id="path74" />
        <path
           inkscape:connector-curvature="0"
           d="m 31.750006,275.76715 h 0.661458 v 16.99948 h -0.661458 z"
           id="path76" />
        <path
           inkscape:connector-curvature="0"
           d="m 9.657291,275.89944 h 0.661458 v 16.86719 H 9.657291 Z"
           id="path78" />
        <path
           inkscape:connector-curvature="0"
           d="m 17.131769,275.89944 h 0.661458 v 16.86719 h -0.661458 z"
           id="path80" />
        <path
           inkscape:connector-curvature="0"
           d="m 24.606249,275.70102 h 0.661458 v 17.06563 h -0.661458 z"
           id="path82" />
        <path
           inkscape:connector-curvature="0"
           d="m 1.389062,292.10516 h 30.890106 v 0.66146 H 1.389062 Z"
           id="path84" />
        <path
           inkscape:connector-curvature="0"
           d="m 1.389062,287.6734 h 30.890106 v 0.66146 H 1.389062 Z"
           id="path86" />
        <path
           inkscape:connector-curvature="0"
           d="m 1.389062,283.37393 h 30.890106 v 0.66146 H 1.389062 Z"
           id="path88" />
        <path
           inkscape:connector-curvature="0"
           d="m 1.389062,279.20673 h 30.890106 v 0.66146 H 1.389062 Z"
           id="path90" />
      </g>
    </g>
    <g
       id="g305">
      <path
         id="path96"
         d="m 3.4395833,291.9729 c -0.1322917,0 -0.1279022,0.10157 -0.1322917,0.13229 L 3.175,292.50207 v 2.64583 c 0,0.14658 0.1180041,0.26458 0.2645833,0.26458 H 7.9375 c 0.1465792,0 0.2645834,-0.118 0.2645834,-0.26458 v -2.64583 c 0,-0.14658 -0.1180042,-0.26459 -0.2645834,-0.26459 H 5.2663453 C 5.2440673,292.10891 5.2192493,291.9729 5.159375,291.9729 Z"
         style="fill:#3b6ca9;stroke-width:0.26458332"
         inkscape:connector-curvature="0" />
      <path
         id="path98"
         transform="matrix(0.04581412,0,0,0.03307292,2.9645038,296.30082)"
         d="M 10.760243,13.13992 H 113.20997 c 2.216,0 4,0.8652 4,1.94 0,1.0747 -1.78433,1.902 -4,1.94 -36.945184,0.6329 -63.152769,0.7782 -102.449727,0 -2.2155658,-0.044 -3.9999998,-0.8653 -3.9999998,-1.94 0,-1.0748 1.784,-1.94 3.9999998,-1.94 z"
         style="opacity:0.55428598;filter:url(#m)"
         inkscape:connector-curvature="0" />
      <rect
         id="rect100"
         y="1032.4822"
         x="3.0000279"
         width="233.99997"
         transform="matrix(0.02204861,0,0,0.06777243,3.1088536,226.59622)"
         ry="1.926663"
         rx="2.4399951"
         height="4.3919702"
         style="opacity:0.57714299;fill:url(#k);filter:url(#l)" />
      <path
         id="path102"
         d="m 3.7041666,292.50207 h 1.1906251 v 0.26458 H 3.7041666 Z"
         style="fill:#fcf9e9;stroke-width:0.26458332"
         inkscape:connector-curvature="0" />
      <path
         id="path104"
         d="m 3.4395833,291.9729 c -0.1322917,0 -0.1224767,0.10285 -0.1322917,0.13229 L 3.175,292.50207 v 1.71979 c 0,0.14658 0.1180041,0.26458 0.2645833,0.26458 v -1.98437 l 0.1322917,-0.26459 h 1.4242024 c 0.00353,0.0181 0.00635,0.0249 0.00982,0.045 0.021873,0.1268 0.1317832,0.21948 0.2604495,0.21963 h 0.2899045 2.38125 v 2.91041 c 0.1465792,0 0.2645834,-0.118 0.2645834,-0.26458 v -2.64583 c 0,-0.14658 -0.1180042,-0.26459 -0.2645834,-0.26459 H 5.2663453 c -0.022278,-0.12857 -0.047096,-0.26458 -0.1069703,-0.26458 z"
         style="opacity:0.25;fill:url(#h);stroke-width:0.26458332"
         inkscape:connector-curvature="0" />
      <path
         id="path106"
         d="m 3.4395833,292.02914 c -0.1322917,0 -0.1224767,0.10285 -0.1322917,0.13229 L 3.175,292.55831 v 0.13229 l 0.1322916,-0.39688 c 0.00982,-0.0294 0,-0.13229 0.1322917,-0.13229 H 5.159375 c 0.059874,0 0.084692,0.13601 0.1069703,0.26458 H 7.9375 c 0.1465792,0 0.2645834,0.11801 0.2645834,0.26459 v -0.13229 c 0,-0.14658 -0.1180042,-0.26459 -0.2645834,-0.26459 H 5.2663453 c -0.022278,-0.12857 -0.047096,-0.26458 -0.1069703,-0.26458 z"
         style="fill:#a4c0e8;stroke-width:0.26458332"
         inkscape:connector-curvature="0" />
      <path
         id="path108"
         d="m 4.6302083,292.50207 h 0.2645834 v 0.26458 H 4.6302083 Z"
         style="fill:#fbc66d;stroke-width:0.26458332"
         inkscape:connector-curvature="0" />
      <path
         id="path112"
         transform="matrix(0.03923904,0,0,0.03923904,2.4420009,256.72352)"
         d="m 56.98442,959.80974 -38.304068,-0.79978 v 20.22857 l 134.857188,2.95142 v -26.85749 c 0,-2.54081 -2.98842,-7.07787 -5.54823,-7.16756 l -75.366085,-2.64066 c -9.375263,0 -8.70604,14.13424 -15.638805,14.28625 z"
         clip-path="url(#b)"
         style="fill:#16375b;fill-opacity:0.80147101;filter:url(#a)"
         inkscape:connector-curvature="0" />
      <path
         id="path114"
         d="M 3.175,294.61873 H 5.0270833 L 5.55625,294.08957 h 2.6458334 c 0.1465791,0 0.2737268,0.11829 0.2645833,0.26458 l -0.1322917,2.11667 c -0.00563,0.14647 -0.1180041,0.26458 -0.2645833,0.26458 H 3.3072916 c -0.1465791,0 -0.2524105,-0.11851 -0.2645833,-0.26458 l -0.1322916,-1.5875 c -0.012173,-0.14608 0.123644,-0.30486 0.2645833,-0.26459 z"
         style="fill:url(#f);stroke-width:0.26458332"
         inkscape:connector-curvature="0" />
      <g
         id="g122"
         style="stroke-width:0.81941199"
         transform="matrix(0.26458333,0,0,0.26458333,-4.0221069e-8,288.53332)">
        <path
           id="path116"
           d="m 12.333984,28 0.08203,1 h 18.787109 v -1 z"
           inkscape:connector-curvature="0"
           style="fill:#385da4" />
        <path
           id="path118"
           d="m 11.333984,28 0.08203,1 H 31.5625 L 31.613281,28.181641 31.617188,28 Z"
           inkscape:connector-curvature="0"
           style="fill:url(#g)" />
        <path
           id="path120"
           d="m 11.416016,29 0.04297,0.5 H 31.53125 L 31.5625,29 Z"
           inkscape:connector-curvature="0"
           style="fill:#a4c0e8" />
      </g>
      <path
         id="path124"
         d="m 5.55625,294.08957 -0.5291667,0.52916 H 3.175 c -0.1465792,0 -0.2645833,0.11801 -0.2645833,0.26459 v 0.26458 c 0,-0.14658 0.1180042,-0.26458 0.2645833,-0.26458 H 5.0270833 L 5.55625,294.35415 h 2.6458334 c 0.1465791,0 0.2645833,0.118 0.2645833,0.26458 v -0.26458 c 0,-0.14658 -0.1188096,-0.27993 -0.2645833,-0.26458 z"
         style="fill:#a4c0e8;stroke-width:0.26458332"
         inkscape:connector-curvature="0" />
      <path
         id="path126"
         d="m 3.1744832,294.62132 c -0.1456631,0 -0.2626042,0.11669 -0.2640665,0.262 l 0.1328083,1.59008 c 6.09e-5,0.006 0.00316,0.0111 0.00362,0.017 0.010084,0.085 0.1987153,0.24441 0.2604498,0.24495 h 5.292e-4 l -0.1328217,-2.11408 z"
         style="opacity:0.59428603;fill:url(#i);stroke-width:0.26458332"
         inkscape:connector-curvature="0" />
      <path
         id="path128"
         d="m 8.2020834,294.08957 -0.1322917,2.64583 c 0.1465792,0 0.2521781,-0.14989 0.2645833,-0.33514 l 0.1322917,-1.97555 c 0.012405,-0.18526 -0.1180042,-0.33514 -0.2645833,-0.33514 z"
         style="opacity:0.40571403;fill:url(#j);stroke-width:0.26458332"
         inkscape:connector-curvature="0" />
    </g>
  </g>
</svg>
