<?xml version="1.0" encoding="UTF-8" standalone="no"?>
<svg
   xmlns:dc="http://purl.org/dc/elements/1.1/"
   xmlns:cc="http://creativecommons.org/ns#"
   xmlns:rdf="http://www.w3.org/1999/02/22-rdf-syntax-ns#"
   xmlns:svg="http://www.w3.org/2000/svg"
   xmlns="http://www.w3.org/2000/svg"
   xmlns:sodipodi="http://sodipodi.sourceforge.net/DTD/sodipodi-0.dtd"
   xmlns:inkscape="http://www.inkscape.org/namespaces/inkscape"
   height="32"
   width="32"
   version="1.1"
   id="svg1219"
   sodipodi:docname="defineprintarea.svg"
   inkscape:version="0.92.4 (unknown)"
   inkscape:export-filename="/home/rizmut/Dokumen/Rizmut/Github/libreoffice-style-karasa-jaga/build/next/cmd/32/defineprintarea.png"
   inkscape:export-xdpi="96"
   inkscape:export-ydpi="96">
  <metadata
     id="metadata1225">
    <rdf:RDF>
      <cc:Work
         rdf:about="">
        <dc:format>image/svg+xml</dc:format>
        <dc:type
           rdf:resource="http://purl.org/dc/dcmitype/StillImage" />
        <dc:title></dc:title>
      </cc:Work>
    </rdf:RDF>
  </metadata>
  <defs
     id="defs1223" />
  <sodipodi:namedview
     pagecolor="#ffffff"
     bordercolor="#666666"
     borderopacity="1"
     objecttolerance="10"
     gridtolerance="10"
     guidetolerance="10"
     inkscape:pageopacity="0"
     inkscape:pageshadow="2"
     inkscape:window-width="1366"
     inkscape:window-height="714"
     id="namedview1221"
     showgrid="true"
     inkscape:zoom="15.0625"
     inkscape:cx="16"
     inkscape:cy="16"
     inkscape:window-x="0"
     inkscape:window-y="28"
     inkscape:window-maximized="1"
     inkscape:current-layer="g1814">
    <inkscape:grid
       type="xygrid"
       id="grid96" />
  </sodipodi:namedview>
  <linearGradient
     id="a"
     gradientTransform="matrix(1.0384874,0,0,0.91306627,2.461539,10.953601)"
     gradientUnits="userSpaceOnUse"
     x1="46.048"
     x2="46.048"
     y1="128.01709"
     y2="16.6203">
    <stop
       offset="0"
       stop-color="#c7cdd7"
       id="stop1058" />
    <stop
       offset="1"
       stop-color="#fff"
       id="stop1060" />
  </linearGradient>
  <linearGradient
     id="b"
     gradientUnits="userSpaceOnUse"
     x1="120"
     x2="120"
     y1="-32.325989"
     y2="104.05867">
    <stop
       offset="0"
       stop-color="#fff"
       id="stop1063" />
    <stop
       offset="1"
       stop-color="#555"
       id="stop1065" />
  </linearGradient>
  <linearGradient
     id="c"
     gradientTransform="matrix(0.97828535,0,0,1.2273034,3.304344,-7.640296)"
     gradientUnits="userSpaceOnUse"
     x1="58.665199"
     x2="58.665199"
     y1="53.335201"
     y2="48.001999">
    <stop
       offset="0"
       stop-color="#f1f1f1"
       id="stop1068" />
    <stop
       offset="1"
       stop-color="#fff"
       id="stop1070" />
  </linearGradient>
  <linearGradient
     id="d"
     gradientUnits="userSpaceOnUse"
     x1="24"
     x2="24"
     y1="64"
     y2="16">
    <stop
       offset="0"
       stop-color="#0b0b0b"
       id="stop1073" />
    <stop
       offset="1"
       stop-color="#1d1d1d"
       id="stop1075" />
  </linearGradient>
  <linearGradient
     id="e"
     gradientTransform="matrix(1,0,0,1.1111111,-40,-37.777778)"
     gradientUnits="userSpaceOnUse"
     x1="64"
     x2="64"
     y1="88"
     y2="56">
    <stop
       offset="0"
       stop-color="#7f7f81"
       id="stop1078" />
    <stop
       offset=".44999999"
       stop-color="#b6b6b7"
       id="stop1080" />
    <stop
       offset=".67499995"
       stop-color="#f5f5f5"
       id="stop1082" />
    <stop
       offset="1"
       stop-color="#cfcfcf"
       id="stop1084" />
  </linearGradient>
  <linearGradient
     id="f"
     gradientUnits="userSpaceOnUse"
     x1="28"
     x2="28"
     y1="-28"
     y2="16">
    <stop
       offset="0"
       stop-color="#fff"
       id="stop1087" />
    <stop
       offset=".54545456"
       stop-color="#ebebeb"
       id="stop1089" />
    <stop
       offset=".90909094"
       stop-color="#bababa"
       id="stop1091" />
    <stop
       offset="1"
       stop-color="#7e7e7f"
       id="stop1093" />
  </linearGradient>
  <linearGradient
     id="g"
     gradientTransform="matrix(0.90905844,0,0,1,-33.45304,-31.999993)"
     gradientUnits="userSpaceOnUse"
     x1="64"
     x2="64"
     y1="48"
     y2="72">
    <stop
       offset="0"
       stop-color="#6e4388"
       id="stop1096" />
    <stop
       offset=".21062189"
       stop-color="#651d8d"
       id="stop1098" />
    <stop
       offset=".5"
       stop-color="#ac7ec6"
       id="stop1100" />
    <stop
       offset=".66666639"
       stop-color="#ca87dc"
       id="stop1102" />
    <stop
       offset="1"
       stop-color="#ebeaeb"
       id="stop1104" />
  </linearGradient>
  <linearGradient
     id="h"
     gradientUnits="userSpaceOnUse"
     x1="28"
     x2="27.435677"
     y1="88"
     y2="61.627121">
    <stop
       offset="0"
       stop-color="#fefefe"
       id="stop1107" />
    <stop
       offset=".5"
       stop-color="#f7f7f7"
       id="stop1109" />
    <stop
       offset=".91002578"
       stop-color="#8c8c8c"
       id="stop1111" />
    <stop
       offset="1"
       stop-color="#666"
       id="stop1113" />
  </linearGradient>
  <linearGradient
     id="i"
     gradientTransform="matrix(1,0,0,0.62584105,-40,-6.55719)"
     gradientUnits="userSpaceOnUse"
     x1="52"
     x2="76"
     y1="72"
     y2="72">
    <stop
       offset="0"
       id="stop1116" />
    <stop
       offset=".66666669"
       stop-color="#a6a6a6"
       stop-opacity=".866667"
       id="stop1118" />
    <stop
       offset="1"
       stop-opacity=".737089"
       id="stop1120" />
  </linearGradient>
  <linearGradient
     id="j"
     gradientUnits="userSpaceOnUse"
     x1="24.254238"
     x2="24.254238"
     y1="12"
     y2="32">
    <stop
       offset="0"
       stop-color="#baaac4"
       id="stop1123" />
    <stop
       offset="1"
       stop-color="#baaac4"
       stop-opacity="0"
       id="stop1125" />
  </linearGradient>
  <filter
     id="k"
     height="1.12"
     width="1.12"
     x="-0.059999999"
     y="-0.059999999"
     style="color-interpolation-filters:sRGB">
    <feGaussianBlur
       stdDeviation="1.9753136"
       id="feGaussianBlur1128" />
  </filter>
  <radialGradient
     id="l"
     cx="-65.04158"
     cy="84.778641"
     gradientUnits="userSpaceOnUse"
     r="36.458652">
    <stop
       offset="0"
       stop-color="#92e128"
       id="stop1131" />
    <stop
       offset="1"
       stop-color="#569d0a"
       stop-opacity=".996078"
       id="stop1133" />
  </radialGradient>
  <filter
     id="m"
     height="1.048"
     width="1.048"
     x="-0.024"
     y="-0.024"
     style="color-interpolation-filters:sRGB">
    <feGaussianBlur
       stdDeviation=".72917305"
       id="feGaussianBlur1136" />
  </filter>
  <filter
     id="n"
     height="1.096"
     width="1.096"
     x="-0.048"
     y="-0.048"
     style="color-interpolation-filters:sRGB">
    <feGaussianBlur
       stdDeviation=".78129363"
       id="feGaussianBlur1139" />
  </filter>
  <linearGradient
     id="o"
     gradientTransform="matrix(1,0,0,0.80878252,0,0.272859)"
     gradientUnits="userSpaceOnUse"
     x1="-67.976425"
     x2="-66.816696"
     y1="24.103317"
     y2="72.311111">
    <stop
       offset="0"
       stop-color="#fff"
       id="stop1142" />
    <stop
       offset="1"
       stop-color="#fff"
       stop-opacity="0"
       id="stop1144" />
  </linearGradient>
  <g
     id="g139"
     transform="matrix(0.25,0,0,0.25,0.0453625,0)">
    <g
       id="g1814">
      <g
         id="g1775">
        <path
           id="path1147"
           d="m 8,28 h 108 v 76 H 8 Z"
           style="fill:url(#a)"
           inkscape:connector-curvature="0" />
        <path
           id="path1149"
           d="M 32,48 H 92 V 84 H 32 Z"
           style="fill:url(#c)"
           inkscape:connector-curvature="0" />
        <path
           id="path1151"
           d="m 4,24 v 4 16 4 16 4 16 4 16 4 h 4 20 4 28 4 28 4 20 4 V 104 88 84 68 64 48 44 28 24 H 116 96 92 64 60 32 28 8 Z m 4,4 H 28 V 44 H 8 Z m 24,0 h 28 v 8 8 H 32 Z m 32,0 H 92 V 44 H 64 v -8 z m 32,0 h 20 V 44 H 96 Z M 8,48 H 28 V 64 H 8 Z m 24,0 H 60 V 64 H 32 Z m 32,0 H 92 V 64 H 64 Z m 32,0 h 20 V 64 H 96 Z M 8,68 H 28 V 84 H 8 Z m 24,0 H 60 V 84 H 32 Z m 32,0 H 92 V 84 H 64 Z m 32,0 h 20 V 84 H 96 Z M 8,88 h 20 v 16 H 8 Z m 24,0 h 28 v 8 8 H 32 Z m 32,0 h 28 v 16 H 64 v -8 z m 32,0 h 20 v 16 H 96 Z"
           style="fill:url(#b)"
           inkscape:connector-curvature="0" />
        <path
           id="path1153"
           d="m 60,68 v 16 4 8 8 4 h 4 28 4 20 4 V 104 88 84 68 64 H 116 96 92 64 Z"
           inkscape:connector-curvature="0"
           style="fill:#cbffb0" />
        <path
           id="path1155"
           d="m 60,68 v 16 4 8 8 4 h 4 28 4 20 4 V 104 88 84 68 64 H 116 96 92 64 Z m 4,0 H 92 V 84 H 64 Z m 32,0 h 20 V 84 H 96 Z M 64,88 h 28 v 16 H 64 v -8 z m 32,0 h 20 v 16 H 96 Z"
           inkscape:connector-curvature="0"
           style="fill:#59ac17" />
      </g>
      <g
         transform="matrix(0.75,0,0,0.75,25.454975,23.635075)"
         id="g1201">
        <rect
           height="4.037014"
           rx="0.206393"
           ry="0.409933"
           width="88"
           x="-19.273298"
           y="80"
           id="rect1157" />
        <rect
           height="26.181"
           rx="8"
           transform="scale(1,-1)"
           width="117.57526"
           x="-34.1819"
           y="-32.0009"
           id="rect1159"
           style="fill:#1d1d1d" />
        <rect
           height="49.4552"
           rx="0.222269"
           ry="0.30468899"
           width="117.57526"
           x="-34.1819"
           y="20.3647"
           id="rect1161"
           style="fill:url(#d)" />
        <rect
           height="22.180099"
           rx="7.4285722"
           ry="8"
           transform="scale(1,-1)"
           width="106.06004"
           x="-28"
           y="-28"
           id="rect1163"
           style="fill:#b6b6b6" />
        <rect
           height="44.486568"
           rx="0.206393"
           ry="0.27699"
           width="106.06004"
           x="-28"
           y="20"
           id="rect1165"
           style="fill:url(#e)" />
        <rect
           height="32"
           rx="0.206393"
           ry="0.29875401"
           width="85.333336"
           x="-17.939966"
           y="-15.513433"
           id="rect1167"
           style="fill:#111012" />
        <rect
           height="26.666668"
           rx="0.18346"
           ry="0.249291"
           width="74.666664"
           x="-12.606633"
           y="-10.1801"
           id="rect1169"
           style="fill:#3e3c41" />
        <rect
           height="15.2715"
           rx="0.208005"
           ry="0.274643"
           width="93.179428"
           x="-22.5457"
           y="8.7284994"
           id="rect1171"
           style="fill:#28232c" />
        <rect
           height="53.333332"
           rx="0.24079201"
           ry="0.294617"
           width="53.333332"
           x="-1.939967"
           y="-31.513433"
           id="rect1173"
           style="fill:#9f9f9f;fill-opacity:0.99607801" />
        <rect
           height="42.666668"
           rx="0.206393"
           ry="0.249291"
           width="42.666668"
           x="3.3933671"
           y="-26.180099"
           id="rect1175"
           style="fill:url(#f)" />
        <path
           d="m -19.084247,8.835999 h 87.6219 c 0.10394,0 0.18762,0.155157 0.18762,0.347885 v 16.468231 c 0,0.192728 -0.12556,0.264562 -0.18762,0.347885 l -7.44861,9.999997 0.36376,5.999998 H -11.999403 L -11.635637,35.999997 -19.084247,26 c -0.06776,-0.09097 -0.187624,-0.155157 -0.187624,-0.347885 V 9.183884 c 0,-0.192728 0.08368,-0.347885 0.187624,-0.347885 z"
           style="fill:url(#g);stroke:#1f1f1f;stroke-width:3;stroke-linecap:square;stroke-linejoin:round;stroke-opacity:0.92488302"
           id="path1177"
           inkscape:connector-curvature="0" />
        <g
           id="g1185"
           style="fill-rule:evenodd">
          <path
             d="m -17.273299,60 -2,20 h 88 l -2,-20 z"
             id="path1179"
             inkscape:connector-curvature="0"
             style="fill:#424245" />
          <path
             d="m -13.628569,62.561443 -4.311398,28.59179 h 85.333334 l -4.311402,-28.59179 z"
             id="path1181"
             inkscape:connector-curvature="0"
             style="fill:#434343" />
          <path
             d="M -8.6090723,59.82276 -12.606633,85.8199 H 62.060033 L 58.062472,59.82276 Z"
             id="path1183"
             style="fill:url(#h)"
             inkscape:connector-curvature="0" />
        </g>
        <rect
           height="15.999998"
           rx="0.206393"
           ry="0.26632899"
           width="74.666679"
           x="-12.606633"
           y="48.486568"
           id="rect1187" />
        <rect
           height="10.666665"
           rx="0.206393"
           ry="0.15601701"
           width="32"
           x="8.7266998"
           y="32.486568"
           id="rect1189"
           style="fill:url(#i)" />
        <rect
           height="23.2724"
           rx="0.30959001"
           ry="1.007805"
           width="46.5448"
           x="0.72670001"
           y="8.7284994"
           id="rect1191"
           style="opacity:0.92000002;fill:url(#j)" />
        <rect
           height="15.118958"
           rx="0.28118101"
           ry="0.640315"
           width="45.170921"
           x="2.1005781"
           y="8.7284994"
           id="rect1193"
           style="fill:#986aae" />
        <rect
           height="11.6362"
           rx="0.25799099"
           ry="0.52547199"
           width="40.775043"
           x="3.8412859"
           y="8.7284994"
           id="rect1195"
           style="fill:#c9b1d5" />
        <rect
           height="5.8181"
           rx="0.25799099"
           ry="0.26655301"
           width="34.9077"
           x="6.5457001"
           y="8.7284994"
           id="rect1197"
           style="fill:#1d1d1d" />
        <path
           d="M -12,52 -12.537056,41.999995 H 60.91515 L 60,52 Z"
           id="path1199"
           inkscape:connector-curvature="0"
           style="fill:#545156;fill-rule:evenodd" />
      </g>
    </g>
  </g>
</svg>
