<?xml version="1.0" encoding="UTF-8" standalone="no"?>
<svg
   xmlns:dc="http://purl.org/dc/elements/1.1/"
   xmlns:cc="http://creativecommons.org/ns#"
   xmlns:rdf="http://www.w3.org/1999/02/22-rdf-syntax-ns#"
   xmlns:svg="http://www.w3.org/2000/svg"
   xmlns="http://www.w3.org/2000/svg"
   xmlns:xlink="http://www.w3.org/1999/xlink"
   xmlns:sodipodi="http://sodipodi.sourceforge.net/DTD/sodipodi-0.dtd"
   xmlns:inkscape="http://www.inkscape.org/namespaces/inkscape"
   height="32"
   width="32"
   version="1.1"
   id="svg162"
   sodipodi:docname="deleterows.svg"
   inkscape:version="0.92.3 (2405546, 2018-03-11)"
   inkscape:export-filename="/home/rizmut/Dokumen/Rizmut/Github/libreoffice-style-karasa-jaga/build/next/cmd/32/deleterows.png"
   inkscape:export-xdpi="96"
   inkscape:export-ydpi="96">
  <metadata
     id="metadata168">
    <rdf:RDF>
      <cc:Work
         rdf:about="">
        <dc:format>image/svg+xml</dc:format>
        <dc:type
           rdf:resource="http://purl.org/dc/dcmitype/StillImage" />
        <dc:title></dc:title>
      </cc:Work>
    </rdf:RDF>
  </metadata>
  <defs
     id="defs166">
    <radialGradient
       id="h-2"
       cx="84.903702"
       cy="-130.14005"
       gradientTransform="rotate(-45,342.93203,-200.14073)"
       gradientUnits="userSpaceOnUse"
       r="57.039597"
       xlink:href="#i-8" />
    <linearGradient
       id="i-8">
      <stop
         offset="0"
         stop-color="#3a0b02"
         id="stop40-9" />
      <stop
         offset="1"
         stop-color="#a21d07"
         stop-opacity=".382353"
         id="stop42-6" />
    </linearGradient>
    <radialGradient
       id="j-0"
       cx="2.7207029"
       cy="-66.273438"
       gradientTransform="rotate(-45,342.93203,-200.14073)"
       gradientUnits="userSpaceOnUse"
       r="57.039597"
       xlink:href="#i-8" />
    <radialGradient
       id="k-2"
       cx="51.991096"
       cy="-78.028419"
       gradientTransform="rotate(-45,342.93203,-200.14073)"
       gradientUnits="userSpaceOnUse"
       r="57.039597"
       xlink:href="#i-8" />
    <linearGradient
       inkscape:collect="always"
       xlink:href="#d-2"
       id="linearGradient1107"
       gradientUnits="userSpaceOnUse"
       gradientTransform="scale(1.0975951,0.9110828)"
       x1="26.091133"
       y1="14.856744"
       x2="31.500689"
       y2="14.856744" />
    <linearGradient
       id="d-2"
       gradientTransform="scale(1.0975951,0.9110828)"
       gradientUnits="userSpaceOnUse"
       x1="26.091133"
       x2="31.500689"
       y1="14.856744"
       y2="14.856744">
      <stop
         offset="0"
         stop-color="#fff"
         id="stop19-7" />
      <stop
         offset="1"
         stop-color="#fff"
         stop-opacity="0"
         id="stop21" />
    </linearGradient>
    <filter
       id="l-6"
       height="1.277481"
       width="1.279832"
       x="-0.139916"
       y="-0.138741">
      <feGaussianBlur
         stdDeviation=".28784801"
         id="feGaussianBlur47" />
    </filter>
    <filter
       id="filter1190"
       height="1.277481"
       width="1.279832"
       x="-0.139916"
       y="-0.138741">
      <feGaussianBlur
         stdDeviation=".28784801"
         id="feGaussianBlur1188" />
    </filter>
    <linearGradient
       id="e-9"
       gradientUnits="userSpaceOnUse"
       x1="304.88663"
       x2="345.62039"
       y1="385.86127"
       y2="384.62384">
      <stop
         offset="0"
         stop-color="#765c44"
         id="stop24-9" />
      <stop
         offset="1"
         stop-color="#765c44"
         stop-opacity="0"
         id="stop26" />
    </linearGradient>
    <filter
       id="filter1197"
       height="1.277481"
       width="1.279832"
       x="-0.139916"
       y="-0.138741">
      <feGaussianBlur
         stdDeviation=".28784801"
         id="feGaussianBlur1195" />
    </filter>
    <linearGradient
       inkscape:collect="always"
       xlink:href="#f-7"
       id="linearGradient1109"
       gradientUnits="userSpaceOnUse"
       x1="88.606247"
       y1="13.510336"
       x2="91.575104"
       y2="13.510336"
       spreadMethod="reflect" />
    <linearGradient
       id="f-7"
       gradientUnits="userSpaceOnUse"
       spreadMethod="reflect"
       x1="88.606247"
       x2="91.575104"
       y1="13.510336"
       y2="13.510336">
      <stop
         offset="0"
         stop-color="#ff8787"
         id="stop29-3" />
      <stop
         offset="1"
         stop-color="#ff8787"
         stop-opacity="0"
         id="stop31-1" />
    </linearGradient>
    <filter
       id="filter1205"
       height="1.277481"
       width="1.279832"
       x="-0.139916"
       y="-0.138741">
      <feGaussianBlur
         stdDeviation=".28784801"
         id="feGaussianBlur1203" />
    </filter>
    <linearGradient
       id="g-3"
       gradientUnits="userSpaceOnUse"
       spreadMethod="reflect"
       x1="31.606251"
       x2="34.575108"
       y1="13.510336"
       y2="13.510336">
      <stop
         offset="0"
         stop-color="#fff"
         id="stop34" />
      <stop
         offset="1"
         stop-color="#790000"
         stop-opacity="0"
         id="stop36-8" />
    </linearGradient>
    <filter
       id="filter1212"
       height="1.277481"
       width="1.279832"
       x="-0.139916"
       y="-0.138741">
      <feGaussianBlur
         stdDeviation=".28784801"
         id="feGaussianBlur1210" />
    </filter>
    <filter
       id="filter1223"
       height="1.277481"
       width="1.279832"
       x="-0.139916"
       y="-0.138741">
      <feGaussianBlur
         stdDeviation=".28784801"
         id="feGaussianBlur1221" />
    </filter>
    <radialGradient
       id="m-3"
       cx="50.424522"
       cy="-81.945961"
       gradientTransform="rotate(-45,342.93203,-200.14072)"
       gradientUnits="userSpaceOnUse"
       r="50.15279">
      <stop
         offset="0"
         stop-color="#db3424"
         id="stop50-7" />
      <stop
         offset="1"
         stop-color="#b32016"
         id="stop52" />
    </radialGradient>
    <linearGradient
       id="n-2"
       gradientTransform="rotate(-45,342.93203,-200.14073)"
       gradientUnits="userSpaceOnUse"
       x1="50.06789"
       x2="59.441998"
       y1="-154.40843"
       y2="-71.617722">
      <stop
         offset="0"
         stop-color="#fff"
         id="stop55-6" />
      <stop
         offset="1"
         stop-color="#fcf3f3"
         stop-opacity="0"
         id="stop57" />
    </linearGradient>
    <linearGradient
       inkscape:collect="always"
       xlink:href="#d-2"
       id="linearGradient1099"
       gradientUnits="userSpaceOnUse"
       gradientTransform="scale(1.0975951,0.9110828)"
       x1="26.091133"
       y1="14.856744"
       x2="31.500689"
       y2="14.856744" />
    <linearGradient
       inkscape:collect="always"
       xlink:href="#f-7"
       id="linearGradient1101"
       gradientUnits="userSpaceOnUse"
       x1="88.606247"
       y1="13.510336"
       x2="91.575104"
       y2="13.510336"
       spreadMethod="reflect" />
    <linearGradient
       inkscape:collect="always"
       xlink:href="#j"
       id="linearGradient178"
       gradientUnits="userSpaceOnUse"
       x1="42"
       y1="118.03125"
       x2="72.138878"
       y2="5.5514269" />
    <linearGradient
       inkscape:collect="always"
       xlink:href="#j"
       id="linearGradient180"
       gradientUnits="userSpaceOnUse"
       x1="42"
       y1="118.03125"
       x2="72.138878"
       y2="5.5514269" />
  </defs>
  <sodipodi:namedview
     pagecolor="#ffffff"
     bordercolor="#666666"
     borderopacity="1"
     objecttolerance="10"
     gridtolerance="10"
     guidetolerance="10"
     inkscape:pageopacity="0"
     inkscape:pageshadow="2"
     inkscape:window-width="1366"
     inkscape:window-height="714"
     id="namedview164"
     showgrid="true"
     inkscape:zoom="7.375"
     inkscape:cx="32.020725"
     inkscape:cy="24.925287"
     inkscape:window-x="0"
     inkscape:window-y="28"
     inkscape:window-maximized="1"
     inkscape:current-layer="g176">
    <inkscape:grid
       type="xygrid"
       id="grid139" />
  </sodipodi:namedview>
  <linearGradient
     id="a"
     gradientTransform="matrix(1.0384874,0,0,1.2391614,2.461539,4.865601)"
     gradientUnits="userSpaceOnUse"
     x1="46.048"
     x2="46.048"
     y1="128.01709"
     y2="16.6203">
    <stop
       offset="0"
       stop-color="#c7cdd7"
       id="stop2" />
    <stop
       offset="1"
       stop-color="#fff"
       id="stop4" />
  </linearGradient>
  <linearGradient
     id="b"
     gradientUnits="userSpaceOnUse"
     x1="8"
     x2="8"
     y1="88"
     y2="108">
    <stop
       offset="0"
       stop-color="#828282"
       id="stop7" />
    <stop
       offset="1"
       stop-color="#828282"
       stop-opacity="0"
       id="stop9" />
  </linearGradient>
  <linearGradient
     id="c"
     gradientUnits="userSpaceOnUse"
     spreadMethod="reflect"
     x1="88.606247"
     x2="91.575104"
     xlink:href="#k"
     y1="13.510336"
     y2="13.510336" />
  <linearGradient
     id="d"
     gradientUnits="userSpaceOnUse"
     spreadMethod="reflect"
     x1="31.606251"
     x2="34.575108"
     xlink:href="#k"
     y1="13.510336"
     y2="13.510336" />
  <linearGradient
     id="e"
     gradientUnits="userSpaceOnUse"
     spreadMethod="reflect"
     x1="88.606247"
     x2="91.575104"
     y1="13.510336"
     y2="13.510336">
    <stop
       offset="0"
       stop-color="#ff8787"
       id="stop14" />
    <stop
       offset="1"
       stop-color="#ff8787"
       stop-opacity="0"
       id="stop16" />
  </linearGradient>
  <linearGradient
     id="f"
     gradientUnits="userSpaceOnUse"
     x1="304.88663"
     x2="345.62039"
     xlink:href="#l"
     y1="385.86127"
     y2="384.62384" />
  <linearGradient
     id="g"
     gradientTransform="scale(1.0975951,0.9110828)"
     gradientUnits="userSpaceOnUse"
     x1="26.091133"
     x2="31.500689"
     xlink:href="#l"
     y1="14.856744"
     y2="14.856744" />
  <clipPath
     id="h">
    <path
       d="m -23.029324,-146.61201 c -5.531616,-0.24083 -10.64527,3.53552 -12,8.96875 -2.1e-5,0.0104 -2.1e-5,0.0208 0,0.0312 l -2.8125,11.40625 h -6.03125 c -6.441349,0 -11.84375,5.4024 -11.84375,11.84375 v 8 c 0,5.84595 4.517586,10.626564 10.15625,11.5 l -4.125,16.65625 h -6.1875 c -6.441349,0 -11.84375,5.402402 -11.84375,11.84375 v 8 c 0,5.890458 4.58168,10.71459 10.28125,11.53125 l -0.84375,3.4375 c -1.553679,6.23113 2.382454,12.78725 8.625,14.34375 l 7.78125,1.9375 c 6.231123,1.55368 12.818494,-2.3825 14.375,-8.625 2.1e-5,-0.01042 2.1e-5,-0.02083 0,-0.03125 l 2.65625,-10.75 h 14.65625 l -0.78125,3.125 c -1.553681,6.23114 2.382455,12.78725 8.625,14.34375 l 7.78125,1.9375 c 6.213771,1.54936 12.804599,-2.45209 14.34375,-8.625 2.1e-5,-0.01042 2.1e-5,-0.02083 0,-0.03125 l 2.65625,-10.75 h 9.6875 c 6.44135,0 11.84375,-5.402396 11.84375,-11.84375 v -8 c 0,-6.441353 -5.4024,-11.84375 -11.84375,-11.84375 h -1.875 l 4.03125,-16.3125 h 9.84375 c 6.44135,0 11.84375,-5.402396 11.84375,-11.84375 v -8 c 0,-6.44135 -5.4024,-11.84375 -11.84375,-11.84375 h -2.03125 l 0.9375,-3.78125 c 1.55369,-6.23115 -2.3825,-12.78724 -8.625,-14.34375 l -7.78125,-1.9375 c -6.231121,-1.55367 -12.818487,2.38251 -14.375,8.625 -2.1e-5,0.0104 -2.1e-5,0.0208 0,0.0312 l -2.8125,11.40625 h -14.625 l 0.9375,-3.78125 c 1.571025,-6.30072 -2.431097,-12.79157 -8.65625,-14.34375 l -7.75,-1.9375 c -0.677154,-0.16884 -1.43324,-0.30275 -2.375,-0.34375 z m 10.03125,52.09375 h 14.625 l -4.03125,16.3125 h -14.625 z"
       id="path21"
       inkscape:connector-curvature="0" />
  </clipPath>
  <filter
     id="i">
    <feGaussianBlur
       stdDeviation="1.2346784"
       id="feGaussianBlur24" />
  </filter>
  <linearGradient
     gradientUnits="userSpaceOnUse"
     x1="52.126926"
     x2="52.126926"
     y1="-30.362009"
     y2="-142.43341"
     id="linearGradient31">
    <stop
       offset="0"
       stop-color="#403a3a"
       id="stop27" />
    <stop
       offset="1"
       stop-color="#6a5252"
       id="stop29" />
  </linearGradient>
  <linearGradient
     id="j"
     gradientUnits="userSpaceOnUse"
     x1="42"
     x2="72.138878"
     y1="118.03125"
     y2="5.5514269">
    <stop
       offset="0"
       stop-color="#084775"
       id="stop33" />
    <stop
       offset="1"
       stop-color="#084775"
       stop-opacity="0"
       id="stop35" />
  </linearGradient>
  <linearGradient
     id="k">
    <stop
       offset="0"
       stop-color="#fff"
       id="stop38" />
    <stop
       offset="1"
       stop-color="#790000"
       stop-opacity="0"
       id="stop40" />
  </linearGradient>
  <linearGradient
     id="l">
    <stop
       offset="0"
       stop-color="#765c44"
       id="stop43" />
    <stop
       offset="1"
       stop-color="#765c44"
       stop-opacity="0"
       id="stop45" />
  </linearGradient>
  <linearGradient
     id="m"
     gradientTransform="matrix(0.6442951,0,0,1,32.724854,0)"
     gradientUnits="userSpaceOnUse"
     x1="92.000008"
     x2="129.25002"
     y1="69.875"
     y2="69.875">
    <stop
       offset="0"
       stop-color="#fff"
       id="stop48" />
    <stop
       offset="1"
       stop-color="#fff"
       stop-opacity="0"
       id="stop50" />
  </linearGradient>
  <mask
     id="n"
     maskUnits="userSpaceOnUse">
    <path
       d="M 3.750004,11.249995 H 115.99999 V 128.50001 H 3.750004 Z"
       id="path53"
       inkscape:connector-curvature="0"
       style="fill:url(#m)" />
  </mask>
  <mask
     id="o"
     maskUnits="userSpaceOnUse">
    <path
       d="M 3.500004,11.249995 H 115.99999 V 128.50001 H 3.500004 Z"
       id="path56"
       inkscape:connector-curvature="0"
       style="fill:url(#m)" />
  </mask>
  <mask
     id="p"
     maskUnits="userSpaceOnUse">
    <path
       d="M 7.000004,11.249995 H 112.24999 V 128.50001 H 7.000004 Z"
       id="path59"
       inkscape:connector-curvature="0"
       style="fill:url(#m)" />
  </mask>
  <linearGradient
     id="q"
     gradientUnits="userSpaceOnUse"
     x1="120"
     x2="120"
     y1="-32.325989"
     y2="104.05867">
    <stop
       offset="0"
       stop-color="#fff"
       id="stop62" />
    <stop
       offset="1"
       stop-color="#555"
       id="stop64" />
  </linearGradient>
  <linearGradient
     id="r"
     gradientTransform="matrix(0,1,1,0,-29.34375,-5.34375)"
     gradientUnits="userSpaceOnUse"
     x1="64.198212"
     x2="46.393192"
     y1="79.519829"
     y2="79.519829">
    <stop
       offset="0"
       stop-color="#781212"
       id="stop67" />
    <stop
       offset="1"
       stop-color="#d81b1b"
       id="stop69" />
  </linearGradient>
  <radialGradient
     id="s"
     cx="84.903702"
     cy="-130.14005"
     gradientTransform="rotate(-45,342.93203,-200.14073)"
     gradientUnits="userSpaceOnUse"
     r="57.039597"
     xlink:href="#t" />
  <linearGradient
     id="t">
    <stop
       offset="0"
       stop-color="#3a0b02"
       id="stop73" />
    <stop
       offset="1"
       stop-color="#a21d07"
       stop-opacity=".382353"
       id="stop75" />
  </linearGradient>
  <radialGradient
     id="u"
     cx="2.7207029"
     cy="-66.273438"
     gradientTransform="rotate(-45,342.93203,-200.14073)"
     gradientUnits="userSpaceOnUse"
     r="57.039597"
     xlink:href="#t" />
  <radialGradient
     id="v"
     cx="51.991096"
     cy="-78.028419"
     gradientTransform="rotate(-45,342.93203,-200.14073)"
     gradientUnits="userSpaceOnUse"
     r="57.039597"
     xlink:href="#t" />
  <filter
     id="w"
     height="1.277481"
     width="1.279832"
     x="-0.139916"
     y="-0.138741">
    <feGaussianBlur
       stdDeviation=".28784801"
       id="feGaussianBlur80" />
  </filter>
  <radialGradient
     id="x"
     cx="50.424522"
     cy="-81.945961"
     gradientTransform="rotate(-45,342.93203,-200.14072)"
     gradientUnits="userSpaceOnUse"
     r="50.15279">
    <stop
       offset="0"
       stop-color="#db3424"
       id="stop83" />
    <stop
       offset="1"
       stop-color="#b32016"
       id="stop85" />
  </radialGradient>
  <linearGradient
     id="y"
     gradientTransform="rotate(-45,342.93203,-200.14073)"
     gradientUnits="userSpaceOnUse"
     x1="50.06789"
     x2="59.441998"
     y1="-154.40843"
     y2="-71.617722">
    <stop
       offset="0"
       stop-color="#fff"
       id="stop88" />
    <stop
       offset="1"
       stop-color="#fcf3f3"
       stop-opacity="0"
       id="stop90" />
  </linearGradient>
  <linearGradient
     id="z"
     gradientTransform="matrix(0.15384999,0,0,1.5000375,-65.641027,-60.0048)"
     gradientUnits="userSpaceOnUse"
     x1="114.6638"
     x2="114.6638"
     y1="101.334"
     y2="112.0004">
    <stop
       offset="0"
       stop-color="#edd1d3"
       id="stop93" />
    <stop
       offset="1"
       stop-color="#edd1d3"
       stop-opacity="0"
       id="stop95" />
  </linearGradient>
  <g
     id="g176"
     transform="scale(0.25)">
    <path
       id="path98"
       mask="url(#p)"
       d="m 8,28 h 108 v 76 H 8 Z"
       style="fill:url(#a)"
       inkscape:connector-curvature="0" />
    <text
       id="text102"
       y="202.81038"
       x="552.36987">
      <tspan
         id="tspan100"
         y="219.61037"
         x="552.36987"
         style="fill:#555555" />
    </text>
    <path
       id="path104"
       mask="url(#n)"
       d="m 4,24 v 4 16 4 16 4 16 4 16 4 h 4 24 4 24 4 24 4 24 4 v -4 -16 -4 -6.25 h -4 V 84 H 92 V 77.75 68 64 48 44 38 28 h 24 v 10 h 4 V 28 24 H 116 92 88 64 60 36 32 8 Z m 4,4 H 32 V 44 H 8 Z m 28,0 H 60 V 44 H 36 Z m 28,0 H 88 V 44 H 64 Z M 8,48 H 32 V 64 H 8 Z m 28,0 H 60 V 64 H 36 Z m 28,0 H 88 V 64 H 64 Z M 8,68 H 32 V 84 H 8 Z m 28,0 H 60 V 84 H 36 Z m 28,0 H 88 V 84 H 64 Z M 8,88 h 24 v 16 H 8 Z m 28,0 h 24 v 16 H 36 Z m 28,0 h 24 v 16 H 64 Z m 28,0 h 24 v 16 H 92 Z"
       style="fill:url(#q)"
       inkscape:connector-curvature="0" />
    <path
       id="path106"
       d="m 88,24 h 4 v 84 h -4 z"
       inkscape:connector-curvature="0"
       style="opacity:0.26291103;fill:#ffffff" />
    <path
       id="path108"
       d="m 4,88 h 4 v 20 H 4 Z"
       style="fill:url(#b)"
       inkscape:connector-curvature="0" />
    <text
       id="text112"
       y="202.81038"
       x="284.18808">
      <tspan
         id="tspan110"
         y="219.61037"
         x="284.18808"
         style="fill:#555555" />
    </text>
    <text
       id="text116"
       y="133.87732"
       x="-10.252362">
      <tspan
         id="tspan114"
         y="150.67731"
         x="-10.252362"
         style="fill:#555555" />
    </text>
    <text
       id="text120"
       y="-39.856026"
       x="161.66467">
      <tspan
         id="tspan118"
         y="-23.056038"
         x="161.66467"
         style="fill:#555555" />
    </text>
    <path
       id="path122"
       transform="translate(118.47918,-240.81844)"
       d="m 22.5,42.5 -2.25,15.5 14,-11.75 z m 21.75,0.5 12,14.625 11,-0.125 17.25,-12.75 z m 50,2 9.25,12.375 h 6 L 114,46 Z M 10.75,91.75 8.5,105.125 23,94.25 Z m 91,1.25 -18,1 7.75,11.375 7.25,-0.5 z m -31,0.5 -34.5,0.25 8.75,12.8125 10.3125,-0.9375 z"
       clip-path="url(#h)"
       style="fill:url(#linearGradient178);fill-rule:evenodd;filter:url(#i)"
       inkscape:connector-curvature="0" />
    <path
       id="path124"
       transform="translate(118.47918,-240.81844)"
       d="M 22.5,42.5 13.837695,55.249263 20.25,58 34.25,46.25 Z M 94.25,45 103.5,57.375 121.52082,58.43566 114,46 Z M 10.75,91.75 0.54504873,104.41789 23,94.25 Z m 91,1.25 -18,1 7.75,11.375 17.14949,0.38388 z"
       clip-path="url(#h)"
       style="opacity:0.45049504;fill:url(#linearGradient180);fill-rule:evenodd;filter:url(#i)"
       inkscape:connector-curvature="0" />
    <rect
       id="rect126"
       y="8"
       x="-64"
       width="16.000004"
       transform="rotate(-90)"
       ry="0.53583902"
       rx="0.137769"
       height="80"
       style="opacity:0.85;fill:#eececf" />
    <path
       id="path128"
       transform="rotate(-90)"
       d="m -64,92 h 15.999998 v 20 H -64 Z"
       style="opacity:0.764706;fill:url(#z)"
       inkscape:connector-curvature="0" />
    <path
       id="path130"
       mask="url(#o)"
       d="M 4,44 V 68 H 119 V 64 H 91.861328 C 91.937652,64 92,63.761699 92,63.464844 V 48.535156 C 92,48.238301 91.937652,48 91.861328,48 H 119 V 44 H 6.59375 Z m 4,4 H 32.138672 C 32.062348,48 32,48.238301 32,48.535156 V 63.464844 C 32,63.761699 32.062348,64 32.138672,64 H 8 Z m 27.861328,0 H 60.138672 C 60.062348,48 60,48.238301 60,48.535156 V 63.464844 C 60,63.761699 60.062348,64 60.138672,64 H 35.861328 C 35.937652,64 36,63.761699 36,63.464844 V 48.535156 C 36,48.238301 35.937652,48 35.861328,48 Z m 28,0 H 88.138672 C 88.062348,48 88,48.238301 88,48.535156 V 63.464844 C 88,63.761699 88.062348,64 88.138672,64 H 63.861328 C 63.937652,64 64,63.761699 64,63.464844 V 48.535156 C 64,48.238301 63.937652,48 63.861328,48 Z"
       style="fill:url(#r)"
       inkscape:connector-curvature="0" />
    <g
       transform="matrix(0.29628449,0.29628449,-0.29628449,0.29628449,59.456365,-54.404296)"
       id="g114">
      <path
         sodipodi:nodetypes="ccccccccccccccccccccc"
         d="m 195.29345,-8.8169787 c -3.80348,-1.142e-4 -6.88683,3.0832392 -6.88672,6.886715 V 59.002062 l -60.93428,-4e-6 c -3.80348,-1.14e-4 -6.88683,3.083242 -6.88672,6.88672 l 1e-5,24.380857 c -1.1e-4,3.803473 3.08324,6.886827 6.88671,6.886718 l 60.93428,10e-7 v 60.932326 c -1.1e-4,3.80348 3.08324,6.88683 6.88672,6.88672 h 24.38086 c 3.80348,1.1e-4 6.88683,-3.08324 6.88672,-6.88672 V 97.156353 h 60.93232 c 3.80348,1.14e-4 6.88683,-3.083242 6.88672,-6.886719 V 65.888777 c 1.1e-4,-3.803478 -3.08324,-6.886834 -6.88672,-6.88672 l -60.93232,10e-7 V -1.9302657 c 1.1e-4,-3.8034781 -3.08325,-6.8868307 -6.88673,-6.886711 z"
         id="path86"
         style="fill:url(#h-2)"
         inkscape:connector-curvature="0" />
      <path
         sodipodi:nodetypes="ccccccccccccccccccccc"
         d="m 195.29345,-8.8169787 c -3.80348,-1.142e-4 -6.88683,3.0832392 -6.88672,6.886715 V 59.002062 l -60.93428,-4e-6 c -3.80348,-1.14e-4 -6.88683,3.083242 -6.88672,6.88672 l 1e-5,24.380857 c -1.1e-4,3.803473 3.08324,6.886827 6.88671,6.886718 l 60.93428,10e-7 v 60.932326 c -1.1e-4,3.80348 3.08324,6.88683 6.88672,6.88672 h 24.38086 c 3.80348,1.1e-4 6.88683,-3.08324 6.88672,-6.88672 V 97.156353 h 60.93232 c 3.80348,1.14e-4 6.88683,-3.083242 6.88672,-6.886719 V 65.888777 c 1.1e-4,-3.803478 -3.08324,-6.886834 -6.88672,-6.88672 l -60.93232,10e-7 V -1.9302657 c 1.1e-4,-3.8034781 -3.08325,-6.8868307 -6.88673,-6.886711 z"
         id="path88"
         style="fill:url(#j-0)"
         inkscape:connector-curvature="0" />
      <path
         sodipodi:nodetypes="ccccccccccccccccccccc"
         d="m 195.29345,-8.8169787 c -3.80348,-1.142e-4 -6.88683,3.0832392 -6.88672,6.886715 V 59.002062 l -60.93428,-4e-6 c -3.80348,-1.14e-4 -6.88683,3.083242 -6.88672,6.88672 l 1e-5,24.380857 c -1.1e-4,3.803473 3.08324,6.886827 6.88671,6.886718 l 60.93428,10e-7 v 60.932326 c -1.1e-4,3.80348 3.08324,6.88683 6.88672,6.88672 h 24.38086 c 3.80348,1.1e-4 6.88683,-3.08324 6.88672,-6.88672 V 97.156353 h 60.93232 c 3.80348,1.14e-4 6.88683,-3.083242 6.88672,-6.886719 V 65.888777 c 1.1e-4,-3.803478 -3.08324,-6.886834 -6.88672,-6.88672 l -60.93232,10e-7 V -1.9302657 c 1.1e-4,-3.8034781 -3.08325,-6.8868307 -6.88673,-6.886711 z"
         id="path90"
         style="fill:url(#k-2)"
         inkscape:connector-curvature="0" />
      <path
         sodipodi:nodetypes="ccccccccccccccccccccc"
         d="m 195.29345,-8.8169787 c -3.80348,-1.142e-4 -6.88683,3.0832392 -6.88672,6.886715 V 59.002062 l -60.93428,-4e-6 c -3.80348,-1.14e-4 -6.88683,3.083242 -6.88672,6.88672 l 1e-5,24.380857 c -1.1e-4,3.803473 3.08324,6.886827 6.88671,6.886718 l 60.93428,10e-7 v 60.932326 c -1.1e-4,3.80348 3.08324,6.88683 6.88672,6.88672 h 24.38086 c 3.80348,1.1e-4 6.88683,-3.08324 6.88672,-6.88672 V 97.156353 h 60.93232 c 3.80348,1.14e-4 6.88683,-3.083242 6.88672,-6.886719 V 65.888777 c 1.1e-4,-3.803478 -3.08324,-6.886834 -6.88672,-6.88672 l -60.93232,10e-7 V -1.9302657 c 1.1e-4,-3.8034781 -3.08325,-6.8868307 -6.88673,-6.886711 z"
         id="path92"
         inkscape:connector-curvature="0"
         style="fill:#56331f;fill-opacity:0.90588199" />
      <g
         id="g106"
         style="fill-rule:evenodd">
        <path
           d="m 31.7,16 2.875,-3.375 c -1.051205,-1.695758 -3.935136,-2.288018 -5.9375,-0.3125 l 2.8125,3.375 z"
           transform="matrix(1.4915065,1.4915065,1.5058288,-1.5058288,127.59411,129.77373)"
           id="path94"
           style="opacity:0.498127;fill:url(#linearGradient1099);filter:url(#l-6)"
           inkscape:connector-curvature="0" />
        <path
           d="m 31.7,16 2.875,-3.375 c -1.051205,-1.695758 -3.935136,-2.288018 -5.9375,-0.3125 l 2.8125,3.375 z"
           transform="matrix(-1.4871264,1.4871264,-1.472982,-1.472982,353.36672,62.915512)"
           id="path96-8"
           style="opacity:0.79026196;fill:url(#linearGradient1107);filter:url(#l-6)"
           inkscape:connector-curvature="0" />
        <path
           d="m 31.7,16 2.875,-3.375 c -1.051205,-1.695758 -3.935136,-2.288018 -5.9375,-0.3125 l 2.8125,3.375 z"
           transform="matrix(1.3506327,1.3506327,-1.3636023,1.3636023,262.13812,4.1059019)"
           id="path98-8"
           style="opacity:0.498127;fill:url(#e-9);filter:url(#l-6)"
           inkscape:connector-curvature="0" />
        <path
           d="m 88.7,16 2.875,-3.375 c -1.051205,-1.695758 -3.935136,-2.288018 -5.9375,-0.3125 l 2.8125,3.375 z"
           transform="matrix(-1.3636023,1.3636023,-1.3506327,-1.3506327,358.72933,55.241431)"
           id="path100"
           style="opacity:0.79026196;fill:url(#linearGradient1101);filter:url(#l-6)"
           inkscape:connector-curvature="0" />
        <path
           d="m 31.7,16 2.875,-3.375 c -1.051205,-1.695758 -3.935136,-2.288018 -5.9375,-0.3125 l 2.8125,3.375 z"
           transform="matrix(-1.2400782,1.2400782,1.2282835,1.2282835,217.29025,-57.594987)"
           id="path102"
           style="opacity:0.79026196;fill:url(#g-3);filter:url(#l-6)"
           inkscape:connector-curvature="0" />
        <path
           d="m 88.7,16 2.875,-3.375 c -1.051205,-1.695758 -3.935136,-2.288018 -5.9375,-0.3125 l 2.8125,3.375 z"
           transform="matrix(-1.2731338,1.2731338,1.2610246,1.2610246,223.27547,-64.198776)"
           id="path104-3"
           style="opacity:0.79026196;fill:url(#linearGradient1109);filter:url(#l-6)"
           inkscape:connector-curvature="0" />
      </g>
      <path
         sodipodi:nodetypes="ccccccccccccc"
         d="M 195.29345,-1.9302687 V 65.88878 l -67.82099,10e-7 -1e-5,24.38085 67.821,3e-6 v 67.819046 h 24.38086 V 90.269634 h 67.81904 V 65.88878 l -67.81904,-10e-7 -1e-5,-67.8190447 z"
         id="path108-4"
         style="fill:url(#m-3)"
         inkscape:connector-curvature="0" />
      <path
         sodipodi:nodetypes="cccccccccccccccccccccccccccccc"
         d="m 127.47266,65.887832 -1e-5,24.381371 h 67.82164 l -10e-4,67.820257 h 24.38138 V 90.270585 l 67.81887,-10e-7 V 65.889212 l -67.81887,-10e-7 -1e-5,-67.8188687 -24.38136,2e-6 V 65.889212 Z m 1.73186,1.731861 66.08839,0.0014 c 0.95652,9.2e-5 1.73195,-0.775341 1.73186,-1.731859 V -0.19777368 l 20.91765,-4e-6 V 65.88923 c -9e-5,0.956519 0.77534,1.731954 1.73186,1.731862 h 66.08701 v 20.917655 h -66.08701 c -0.95652,-9.2e-5 -1.73195,0.775341 -1.73186,1.731859 v 66.087014 h -20.91766 l 0.001,-66.088395 c 9e-5,-0.956518 -0.77534,-1.731953 -1.73186,-1.731861 l -66.08977,2e-6 z"
         id="path110-3"
         inkscape:connector-curvature="0"
         style="fill:#f4caca;fill-opacity:0.77941165" />
      <path
         sodipodi:nodetypes="cccccccccc"
         d="m 127.47266,65.887832 -1e-5,24.381371 h 67.82164 v 13.963747 c 9.21859,-12.920037 23.72456,-29.858471 27.09896,-38.336918 l -2.71897,-0.0068 -1e-5,-67.8188687 -24.38136,2e-6 V 65.889233 Z"
         id="path112-1"
         style="fill:url(#n-2);fill-rule:evenodd"
         inkscape:connector-curvature="0" />
    </g>
  </g>
</svg>
