<?xml version="1.0" encoding="UTF-8" standalone="no"?>
<!-- Created with Inkscape (http://www.inkscape.org/) -->

<svg
   xmlns:dc="http://purl.org/dc/elements/1.1/"
   xmlns:cc="http://creativecommons.org/ns#"
   xmlns:rdf="http://www.w3.org/1999/02/22-rdf-syntax-ns#"
   xmlns:svg="http://www.w3.org/2000/svg"
   xmlns="http://www.w3.org/2000/svg"
   xmlns:xlink="http://www.w3.org/1999/xlink"
   xmlns:sodipodi="http://sodipodi.sourceforge.net/DTD/sodipodi-0.dtd"
   xmlns:inkscape="http://www.inkscape.org/namespaces/inkscape"
   width="32"
   height="32"
   id="svg2606"
   sodipodi:version="0.32"
   inkscape:version="0.92.4 (unknown)"
   version="1.0"
   sodipodi:docname="drawchart.svg"
   inkscape:output_extension="org.inkscape.output.svgz.inkscape"
   inkscape:export-filename="/home/rizmut/Dokumen/Rizmut/Github/libreoffice-style-karasa-jaga/build/next/cmd/32/drawchart.png"
   inkscape:export-xdpi="96"
   inkscape:export-ydpi="96">
  <defs
     id="defs2608">
    <radialGradient
       gradientUnits="userSpaceOnUse"
       gradientTransform="matrix(0.9792,0,0,0.9725,133.0002,20.8762)"
       r="55.147999"
       cy="-0.2148"
       cx="48"
       id="radialGradient4665">
      <stop
         id="stop4667"
         style="stop-color:#f5c31a;stop-opacity:1"
         offset="0" />
      <stop
         id="stop4669"
         style="stop-color:#e97b00;stop-opacity:1;"
         offset="1" />
    </radialGradient>
    <linearGradient
       inkscape:collect="always"
       id="linearGradient4430">
      <stop
         style="stop-color:#ffffff;stop-opacity:1;"
         offset="0"
         id="stop4432" />
      <stop
         style="stop-color:#ffffff;stop-opacity:0;"
         offset="1"
         id="stop4434" />
    </linearGradient>
    <linearGradient
       inkscape:collect="always"
       id="linearGradient4380">
      <stop
         style="stop-color:#ffffff;stop-opacity:1;"
         offset="0"
         id="stop4382" />
      <stop
         style="stop-color:#ffffff;stop-opacity:0;"
         offset="1"
         id="stop4384" />
    </linearGradient>
    <radialGradient
       gradientUnits="userSpaceOnUse"
       gradientTransform="matrix(0.9792,0,0,0.9725,133.0002,20.8762)"
       r="55.147999"
       cy="-0.2148"
       cx="48"
       id="radialGradient4084">
      <stop
         id="stop4086"
         style="stop-color:#72D13D"
         offset="0" />
      <stop
         id="stop4088"
         style="stop-color:#35AC1C"
         offset="0.3553" />
      <stop
         id="stop4090"
         style="stop-color:#0b6f05;stop-opacity:1"
         offset="0.6194" />
      <stop
         id="stop4092"
         style="stop-color:#006a00;stop-opacity:1"
         offset="0.7574" />
      <stop
         id="stop4094"
         style="stop-color:#003400;stop-opacity:1"
         offset="1" />
    </radialGradient>
    <linearGradient
       inkscape:collect="always"
       id="linearGradient4058">
      <stop
         style="stop-color:#ffff0c;stop-opacity:1;"
         offset="0"
         id="stop4060" />
      <stop
         style="stop-color:#ffff0c;stop-opacity:0;"
         offset="1"
         id="stop4062" />
    </linearGradient>
    <linearGradient
       inkscape:collect="always"
       id="linearGradient3973">
      <stop
         style="stop-color:#ffffff;stop-opacity:1;"
         offset="0"
         id="stop3975" />
      <stop
         style="stop-color:#ffffff;stop-opacity:0;"
         offset="1"
         id="stop3977" />
    </linearGradient>
    <linearGradient
       id="linearGradient3950">
      <stop
         style="stop-color:#e05600;stop-opacity:1;"
         offset="0"
         id="stop3952" />
      <stop
         style="stop-color:#660000;stop-opacity:1;"
         offset="1"
         id="stop3954" />
    </linearGradient>
    <radialGradient
       id="XMLID_4_"
       cx="48"
       cy="-0.2148"
       r="55.147999"
       gradientTransform="matrix(0.9792,0,0,0.9725,133.0002,20.8762)"
       gradientUnits="userSpaceOnUse">
      <stop
         offset="0"
         style="stop-color:#72D13D"
         id="stop3082" />
      <stop
         offset="0.3553"
         style="stop-color:#35AC1C"
         id="stop3084" />
      <stop
         offset="0.6194"
         style="stop-color:#0F9508"
         id="stop3086" />
      <stop
         offset="0.7574"
         style="stop-color:#008C00"
         id="stop3088" />
      <stop
         offset="1"
         style="stop-color:#007A00"
         id="stop3090" />
    </radialGradient>
    <linearGradient
       id="linearGradient3327">
      <stop
         offset="0"
         id="stop3329"
         style="stop-color:#baff63;stop-opacity:1;" />
      <stop
         offset="1"
         id="stop3331"
         style="stop-color:#ffffff;stop-opacity:0;" />
    </linearGradient>
    <linearGradient
       id="linearGradient2919">
      <stop
         style="stop-color:#051327;stop-opacity:1;"
         offset="0"
         id="stop2921" />
      <stop
         style="stop-color:#387de4;stop-opacity:1;"
         offset="1"
         id="stop2923" />
    </linearGradient>
    <linearGradient
       id="linearGradient3800"
       inkscape:collect="always">
      <stop
         id="stop3802"
         offset="0"
         style="stop-color:#64d7eb;stop-opacity:1;" />
      <stop
         id="stop3804"
         offset="1"
         style="stop-color:#64d7eb;stop-opacity:0;" />
    </linearGradient>
    <linearGradient
       id="linearGradient3370">
      <stop
         id="stop3372"
         offset="0"
         style="stop-color:#9fc1f2;stop-opacity:1;" />
      <stop
         style="stop-color:#587eb5;stop-opacity:1;"
         offset="0.5"
         id="stop3374" />
      <stop
         id="stop3376"
         offset="1"
         style="stop-color:#0c2a58;stop-opacity:1;" />
    </linearGradient>
    <linearGradient
       id="linearGradient3234">
      <stop
         id="stop3236"
         offset="0"
         style="stop-color:#63e9ff;stop-opacity:1;" />
      <stop
         id="stop3238"
         offset="1"
         style="stop-color:#ffffff;stop-opacity:0;" />
    </linearGradient>
    <linearGradient
       inkscape:collect="always"
       xlink:href="#linearGradient2919"
       id="linearGradient3920"
       x1="56.207039"
       y1="123.3195"
       x2="56.207039"
       y2="35.510601"
       gradientUnits="userSpaceOnUse"
       gradientTransform="translate(1,-0.9)" />
    <linearGradient
       inkscape:collect="always"
       xlink:href="#radialGradient4084"
       id="linearGradient3928"
       x1="46.117153"
       y1="-44.827198"
       x2="46.117153"
       y2="60.317043"
       gradientUnits="userSpaceOnUse"
       gradientTransform="translate(1,1)" />
    <linearGradient
       inkscape:collect="always"
       xlink:href="#linearGradient3950"
       id="linearGradient3956"
       x1="112.13757"
       y1="24.155968"
       x2="112.13757"
       y2="96.228043"
       gradientUnits="userSpaceOnUse" />
    <linearGradient
       inkscape:collect="always"
       xlink:href="#linearGradient3973"
       id="linearGradient3979"
       x1="51.379715"
       y1="35.236496"
       x2="51.379715"
       y2="108.5285"
       gradientUnits="userSpaceOnUse"
       gradientTransform="translate(1,-0.9)" />
    <linearGradient
       inkscape:collect="always"
       xlink:href="#linearGradient3973"
       id="linearGradient3981"
       x1="116.59375"
       y1="20.306101"
       x2="116.59375"
       y2="73.692665"
       gradientUnits="userSpaceOnUse" />
    <linearGradient
       inkscape:collect="always"
       xlink:href="#linearGradient3973"
       id="linearGradient3983"
       x1="47.136333"
       y1="-9.3432493"
       x2="57.035828"
       y2="50.69762"
       gradientUnits="userSpaceOnUse"
       gradientTransform="translate(1,1)" />
    <radialGradient
       inkscape:collect="always"
       xlink:href="#linearGradient3370"
       id="radialGradient3985"
       gradientUnits="userSpaceOnUse"
       gradientTransform="matrix(1.0823899,4.0435801e-8,-2.1693938e-8,0.5807057,-4.2633051,36.130669)"
       cx="59.269905"
       cy="126.30224"
       fx="62.451874"
       fy="156.61607"
       r="41.734375" />
    <radialGradient
       inkscape:collect="always"
       xlink:href="#radialGradient4665"
       id="radialGradient3987"
       gradientUnits="userSpaceOnUse"
       gradientTransform="matrix(1.9842605,0,0,1.6893064,-96.780792,-40.496749)"
       cx="99.041145"
       cy="81.771805"
       fx="99.041145"
       fy="81.771805"
       r="21.625" />
    <radialGradient
       inkscape:collect="always"
       xlink:href="#XMLID_4_"
       id="radialGradient3989"
       gradientUnits="userSpaceOnUse"
       gradientTransform="matrix(1.5638956,-2.7525695e-8,1.038804e-8,1.0810459,-20.53803,-24.185991)"
       cx="39.191303"
       cy="75.128395"
       fx="38.089832"
       fy="79.916908"
       r="35.96875" />
    <linearGradient
       inkscape:collect="always"
       xlink:href="#linearGradient3973"
       id="linearGradient4028"
       gradientUnits="userSpaceOnUse"
       gradientTransform="translate(0.00693224)"
       x1="116.59375"
       y1="47.169357"
       x2="116.59375"
       y2="73.692665" />
    <linearGradient
       inkscape:collect="always"
       xlink:href="#linearGradient3973"
       id="linearGradient4030"
       gradientUnits="userSpaceOnUse"
       x1="57.035828"
       y1="15.361242"
       x2="57.035828"
       y2="50.69762"
       gradientTransform="translate(1,1)" />
    <linearGradient
       inkscape:collect="always"
       xlink:href="#linearGradient3973"
       id="linearGradient4032"
       gradientUnits="userSpaceOnUse"
       x1="51.379715"
       y1="75.186157"
       x2="51.379715"
       y2="108.5285"
       gradientTransform="translate(0.7,-1.2)" />
    <radialGradient
       inkscape:collect="always"
       xlink:href="#linearGradient3234"
       id="radialGradient4042"
       cx="57.278244"
       cy="131.22166"
       fx="57.278244"
       fy="131.22166"
       r="41.878006"
       gradientTransform="matrix(1,0,0,0.5383567,1,42.441887)"
       gradientUnits="userSpaceOnUse" />
    <filter
       inkscape:collect="always"
       id="filter4044">
      <feGaussianBlur
         inkscape:collect="always"
         stdDeviation="0.32711655"
         id="feGaussianBlur4046" />
    </filter>
    <radialGradient
       inkscape:collect="always"
       xlink:href="#linearGradient4058"
       id="radialGradient4064"
       cx="104.25"
       cy="78.317085"
       fx="104.25"
       fy="78.317085"
       r="22.125"
       gradientTransform="matrix(1.2027022,0,0,2.0129973,-21.131703,-66.152087)"
       gradientUnits="userSpaceOnUse" />
    <filter
       inkscape:collect="always"
       id="filter4066">
      <feGaussianBlur
         inkscape:collect="always"
         stdDeviation="0.29578125"
         id="feGaussianBlur4068" />
    </filter>
    <radialGradient
       inkscape:collect="always"
       xlink:href="#linearGradient3327"
       id="radialGradient4078"
       cx="37.03125"
       cy="67.156921"
       fx="37.03125"
       fy="67.156921"
       r="35.96875"
       gradientTransform="matrix(1,0,0,0.6337967,1,13.170538)"
       gradientUnits="userSpaceOnUse" />
    <filter
       inkscape:collect="always"
       id="filter4080">
      <feGaussianBlur
         inkscape:collect="always"
         stdDeviation="0.29882812"
         id="feGaussianBlur4082" />
    </filter>
    <linearGradient
       inkscape:collect="always"
       xlink:href="#linearGradient3973"
       id="linearGradient4112"
       gradientUnits="userSpaceOnUse"
       gradientTransform="translate(-0.0431799,0.3)"
       x1="93.83374"
       y1="84.017662"
       x2="58.429943"
       y2="22.696486" />
    <linearGradient
       inkscape:collect="always"
       xlink:href="#linearGradient3973"
       id="linearGradient4116"
       gradientUnits="userSpaceOnUse"
       gradientTransform="translate(0.9568201,1.3)"
       x1="73.681198"
       y1="41.237701"
       x2="58.429943"
       y2="22.696486" />
    <radialGradient
       inkscape:collect="always"
       xlink:href="#linearGradient3973"
       id="radialGradient4140"
       cx="87.325798"
       cy="13.060184"
       fx="87.325798"
       fy="13.060184"
       r="3.0757961"
       gradientTransform="matrix(2.3688812,-1.1674228,0.4985261,1.0115864,-125.04949,102.73463)"
       gradientUnits="userSpaceOnUse" />
    <filter
       inkscape:collect="always"
       id="filter4226"
       x="-0.19435702"
       width="1.388714"
       y="-0.16863127"
       height="1.3372625">
      <feGaussianBlur
         inkscape:collect="always"
         stdDeviation="0.41718673"
         id="feGaussianBlur4228" />
    </filter>
    <radialGradient
       inkscape:collect="always"
       xlink:href="#linearGradient3973"
       id="radialGradient4238"
       cx="96.9375"
       cy="17.980104"
       fx="96.9375"
       fy="17.980104"
       r="3.4375"
       gradientTransform="matrix(0.8551174,0,0,1.9745874,14.044558,-17.35343)"
       gradientUnits="userSpaceOnUse" />
    <filter
       inkscape:collect="always"
       id="filter4368"
       x="-0.093172938"
       width="1.1863459"
       y="-0.10567085"
       height="1.2113417">
      <feGaussianBlur
         inkscape:collect="always"
         stdDeviation="0.22807958"
         id="feGaussianBlur4370" />
    </filter>
    <radialGradient
       inkscape:collect="always"
       xlink:href="#linearGradient4380"
       id="radialGradient4386"
       cx="63.4366"
       cy="-0.80576962"
       fx="63.4366"
       fy="-0.80576962"
       r="39.184292"
       gradientTransform="matrix(0.5410048,0,0,0.3716141,29.117098,10.906392)"
       gradientUnits="userSpaceOnUse" />
    <filter
       inkscape:collect="always"
       id="filter4424">
      <feGaussianBlur
         inkscape:collect="always"
         stdDeviation="0.31665616"
         id="feGaussianBlur4426" />
    </filter>
    <radialGradient
       inkscape:collect="always"
       xlink:href="#linearGradient4430"
       id="radialGradient4436"
       cx="61.849747"
       cy="68.749786"
       fx="61.849747"
       fy="68.749786"
       r="2.776"
       gradientTransform="matrix(0.9552014,0.2959566,-0.7323242,2.3635804,54.117914,-113.35996)"
       gradientUnits="userSpaceOnUse" />
    <filter
       inkscape:collect="always"
       id="filter4478">
      <feGaussianBlur
         inkscape:collect="always"
         stdDeviation="0.18027646"
         id="feGaussianBlur4480" />
    </filter>
    <radialGradient
       inkscape:collect="always"
       xlink:href="#linearGradient3800"
       id="radialGradient4490"
       cx="64.686584"
       cy="139.65083"
       fx="64.686584"
       fy="139.65083"
       r="45.01022"
       gradientTransform="matrix(0.4700807,-2.0813009e-8,1.7282799e-8,0.3903477,34.278674,65.800126)"
       gradientUnits="userSpaceOnUse" />
    <filter
       inkscape:collect="always"
       id="filter4516">
      <feGaussianBlur
         inkscape:collect="always"
         stdDeviation="1.029351"
         id="feGaussianBlur4518" />
    </filter>
    <radialGradient
       inkscape:collect="always"
       xlink:href="#linearGradient4058"
       id="radialGradient4522"
       gradientUnits="userSpaceOnUse"
       gradientTransform="matrix(0.8432649,-0.1418808,0.3214122,1.910305,9.3826909,-2.5346134)"
       cx="96.265633"
       cy="18.054264"
       fx="96.265633"
       fy="18.054264"
       r="3.4375" />
    <radialGradient
       inkscape:collect="always"
       xlink:href="#linearGradient3234"
       id="radialGradient4526"
       gradientUnits="userSpaceOnUse"
       gradientTransform="matrix(2.3688812,-1.1674228,0.4985261,1.0115864,-126.04949,101.73463)"
       cx="87.339302"
       cy="12.464132"
       fx="87.339302"
       fy="12.464132"
       r="3.0757961" />
  </defs>
  <sodipodi:namedview
     id="base"
     pagecolor="#ffffff"
     bordercolor="#666666"
     borderopacity="1.0"
     inkscape:pageopacity="0.0"
     inkscape:pageshadow="2"
     inkscape:zoom="5.6568542"
     inkscape:cx="2.0939313"
     inkscape:cy="27.189529"
     inkscape:document-units="px"
     inkscape:current-layer="g4905"
     width="128px"
     height="128px"
     showgrid="true"
     inkscape:grid-points="true"
     showguides="true"
     inkscape:guide-bbox="true"
     inkscape:window-width="1016"
     inkscape:window-height="692"
     inkscape:window-x="334"
     inkscape:window-y="152">
    <inkscape:grid
       type="xygrid"
       id="grid2576"
       spacingx="0.5"
       spacingy="0.5"
       empspacing="2"
       visible="true"
       enabled="true"
       originx="0"
       originy="0" />
    <sodipodi:guide
       orientation="horizontal"
       position="24.994302"
       id="guide2437"
       inkscape:locked="false" />
    <sodipodi:guide
       orientation="-0.70710678,0.70710678"
       position="-22.98097,170.05918"
       id="guide3875"
       inkscape:locked="false" />
  </sodipodi:namedview>
  <metadata
     id="metadata2611">
    <rdf:RDF>
      <cc:Work
         rdf:about="">
        <dc:format>image/svg+xml</dc:format>
        <dc:type
           rdf:resource="http://purl.org/dc/dcmitype/StillImage" />
        <dc:title></dc:title>
      </cc:Work>
    </rdf:RDF>
  </metadata>
  <g
     inkscape:label="Livello 1"
     inkscape:groupmode="layer"
     id="layer1"
     transform="translate(0,-96)">
    <g
       id="g4905"
       transform="matrix(0.25,0,0,0.25,3.9958954e-4,95.9996)">
      <path
         id="path3896"
         d="m 65,7.15625 c -28.8935,0 -52.678461,21.476333 -56.65625,49.28125 -0.1743042,1.223967 0.1901073,2.463431 0.9991238,3.398294 0.8090162,0.934864 1.9833142,1.473464 3.2196262,1.476706 h 47.78125 c 1.526039,-0.0086 2.931613,-0.830541 3.6875,-2.15625 L 88.1875,17.34375 c 0.615689,-1.074146 0.735168,-2.362546 0.327501,-3.531593 C 88.107333,12.64311 87.212609,11.708381 86.0625,11.25 79.556429,8.6725709 72.469609,7.15625 65,7.15625 Z"
         style="opacity:1;fill:url(#linearGradient3928);fill-opacity:1;stroke:none;stroke-width:1;stroke-linecap:round;stroke-linejoin:round;stroke-miterlimit:4;stroke-dashoffset:0;stroke-opacity:1"
         inkscape:connector-curvature="0" />
      <path
         transform="translate(1,1)"
         d="m 64,7.1972656 c -28.376826,0 -51.718165,21.0843934 -55.625,48.3867184 -0.1317508,0.925156 0.1452896,1.872578 0.7558594,2.578125 0.6101449,0.705058 1.4923026,1.106358 2.4316406,1.109375 h 47.775391 c 1.155776,-0.0065 2.216576,-0.626807 2.789062,-1.630859 a 1.0414417,1.0414417 0 0 1 0.002,-0.0059 L 86.283203,15.826172 v -0.002 c 0.46152,-0.806311 0.54531,-1.776315 0.234375,-2.667969 -0.310836,-0.891372 -0.971852,-1.591468 -1.83789,-1.9375 C 78.28433,8.6851809 71.328682,7.1972656 64,7.1972656 Z"
         id="path4376"
         style="opacity:1;fill:url(#radialGradient4386);fill-opacity:1;stroke:none;stroke-width:1;stroke-linecap:round;stroke-linejoin:round;stroke-miterlimit:4;stroke-dashoffset:0;stroke-opacity:1;filter:url(#filter4424)"
         inkscape:original="M 64 6.15625 C 35.1065 6.15625 11.321539 27.632583 7.34375 55.4375 C 7.1694458 56.661467 7.5347335 57.908887 8.34375 58.84375 C 9.1527666 59.778615 10.326188 60.309258 11.5625 60.3125 L 59.34375 60.3125 C 60.869789 60.303862 62.275363 59.481959 63.03125 58.15625 L 87.1875 16.34375 C 87.803189 15.269604 87.907667 13.981547 87.5 12.8125 C 87.092334 11.643453 86.212609 10.708381 85.0625 10.25 C 78.556429 7.6725709 71.469609 6.15625 64 6.15625 z "
         inkscape:radius="-1.0413376"
         sodipodi:type="inkscape:offset" />
      <path
         id="path3894"
         d="m 97.125,17.9375 c -1.492364,0.04152 -2.854822,0.858998 -3.59375,2.15625 L 70.1875,60.5625 c -0.972098,1.669462 -0.703037,3.78351 0.65625,5.15625 L 103.4375,98.3125 c 0.87731,0.87395 2.09064,1.324283 3.3257,1.234351 1.23506,-0.08993 2.37035,-0.71128 3.1118,-1.703101 7.14106,-9.552279 11.53125,-21.396345 11.53125,-34.28125 0,-18.077688 -8.43371,-34.176247 -21.5,-44.6875 -0.787299,-0.631107 -1.772551,-0.963215 -2.78125,-0.9375 z"
         style="opacity:1;fill:url(#linearGradient3956);fill-opacity:1;stroke:none;stroke-width:1;stroke-linecap:round;stroke-linejoin:round;stroke-miterlimit:4;stroke-dashoffset:0;stroke-opacity:1"
         inkscape:connector-curvature="0" />
      <path
         id="path3882"
         d="m 12.6875,66.75625 c -1.248984,5.36e-4 -2.435198,0.547551 -3.24654,1.497122 C 8.6296178,69.202943 8.2743938,70.459981 8.46875,71.69375 12.823275,99.06637 36.413681,120.1 65,120.1 c 12.635824,0 24.24361,-4.24078 33.6875,-11.125 1.00675,-0.73633 1.64148,-1.87581 1.7376,-3.11939 0.0961,-1.24358 -0.35596,-2.46707 -1.2376,-3.34936 l -34.5,-34.5 c -0.803967,-0.803217 -1.894803,-1.253047 -3.03125,-1.25 z"
         style="opacity:1;fill:url(#linearGradient3920);fill-opacity:1;stroke:none;stroke-width:1;stroke-linecap:round;stroke-linejoin:round;stroke-miterlimit:4;stroke-dashoffset:0;stroke-opacity:1"
         inkscape:connector-curvature="0" />
      <path
         transform="translate(1,-1.2)"
         d="M 11.6875,68.96875 C 10.731761,68.969158 9.8188511,69.391655 9.1972656,70.119141 8.5756787,70.84663 8.3077469,71.802346 8.4570312,72.75 12.736006,99.647707 35.90421,120.3125 64,120.3125 c 12.41208,0 23.810994,-4.16399 33.097656,-10.93359 0.772135,-0.56528 1.270608,-1.4463 1.34375,-2.39258 0.07318,-0.94678 -0.280401,-1.87951 -0.960937,-2.56055 l -34.5,-34.499999 C 62.364393,69.310278 61.529058,68.966415 60.658203,68.96875 a 1.0001,1.0001 0 0 1 -0.002,0 z"
         id="path4486"
         style="opacity:1;fill:url(#radialGradient4490);fill-opacity:1;stroke:none;stroke-width:1;stroke-linecap:round;stroke-linejoin:round;stroke-miterlimit:4;stroke-dashoffset:0;stroke-opacity:1;filter:url(#filter4516)"
         inkscape:original="M 11.6875 67.96875 C 10.438516 67.969283 9.2488422 68.519179 8.4375 69.46875 C 7.6261579 70.418324 7.2743938 71.672481 7.46875 72.90625 C 11.823275 100.27887 35.413681 121.3125 64 121.3125 C 76.635824 121.3125 88.24361 117.07172 97.6875 110.1875 C 98.69425 109.45117 99.341378 108.30608 99.4375 107.0625 C 99.533622 105.81892 99.069139 104.60104 98.1875 103.71875 L 63.6875 69.21875 C 62.883533 68.41553 61.792697 67.965703 60.65625 67.96875 L 11.6875 67.96875 z "
         inkscape:radius="-1"
         sodipodi:type="inkscape:offset" />
      <path
         id="path3890"
         d="m 65,11.4375 c -26.783594,0 -48.753346,19.841356 -52.4375,45.59375 H 60.34375 L 84.5,15.21875 C 78.452348,12.822927 71.897538,11.4375 65,11.4375 Z"
         style="opacity:1;fill:url(#radialGradient3989);fill-opacity:1;stroke:none;stroke-width:1;stroke-linecap:round;stroke-linejoin:round;stroke-miterlimit:4;stroke-dashoffset:0;stroke-opacity:1"
         inkscape:connector-curvature="0" />
      <path
         id="path3888"
         d="M 97.21875,22.21875 73.875,62.6875 106.46875,95.28125 C 113.09884,86.412476 117.125,75.485659 117.125,63.5625 c 0,-16.752607 -7.79407,-31.600033 -19.90625,-41.34375 z"
         style="opacity:1;fill:url(#radialGradient3987);fill-opacity:1;stroke:none;stroke-width:1;stroke-linecap:round;stroke-linejoin:round;stroke-miterlimit:4;stroke-dashoffset:0;stroke-opacity:1"
         inkscape:connector-curvature="0" />
      <path
         sodipodi:nodetypes="csccc"
         id="path3880"
         d="M 12.400238,70.790641 C 16.432985,96.140565 38.502277,115.88125 65,115.88125 c 11.68918,0 22.382003,-3.88517 31.15625,-10.28125 l -34.5,-34.5 z"
         style="opacity:1;fill:url(#radialGradient3985);fill-opacity:1;stroke:none;stroke-width:1;stroke-linecap:round;stroke-linejoin:round;stroke-miterlimit:4;stroke-dashoffset:0;stroke-opacity:1"
         inkscape:connector-curvature="0" />
      <path
         id="path3960"
         d="M 97.21875,22.21875 73.875,62.6875 l 2.375,2.375 c 14.843885,-1.527121 28.52955,-4.651325 40.34375,-8.96875 -1.93766,-13.659411 -9.09966,-25.608941 -19.375,-33.875 z"
         style="opacity:1;fill:url(#linearGradient3981);fill-opacity:1;stroke:none;stroke-width:1;stroke-linecap:round;stroke-linejoin:round;stroke-miterlimit:4;stroke-dasharray:none;stroke-dashoffset:0;stroke-opacity:1"
         inkscape:connector-curvature="0" />
      <path
         id="path3962"
         d="m 65,11.4375 c -22.970252,0 -42.390306,14.599843 -49.78125,35 C 40.104109,44.114556 61.894915,37.3797 77.1875,27.90625 L 84.5,15.21875 C 78.452348,12.822927 71.897538,11.4375 65,11.4375 Z"
         style="opacity:1;fill:url(#linearGradient3983);fill-opacity:1;stroke:none;stroke-width:1;stroke-linecap:round;stroke-linejoin:round;stroke-miterlimit:4;stroke-dasharray:none;stroke-dashoffset:0;stroke-opacity:1"
         inkscape:connector-curvature="0" />
      <path
         id="path4010"
         d="m 65,11.4375 c -16.509869,0 -31.18149,7.557727 -40.875,19.375 9.694915,-11.601065 24.22838,-18.96875 40.5625,-18.96875 6.897538,0 13.452348,1.385427 19.5,3.78125 l -7.125,12.34375 c 0.03904,-0.0241 0.08604,-0.03836 0.125,-0.0625 L 84.5,15.21875 C 78.452348,12.822927 71.897538,11.4375 65,11.4375 Z"
         style="opacity:1;fill:url(#linearGradient4030);fill-opacity:1;stroke:none;stroke-width:1;stroke-linecap:round;stroke-linejoin:round;stroke-miterlimit:4;stroke-dasharray:none;stroke-dashoffset:0;stroke-opacity:1"
         inkscape:connector-curvature="0" />
      <path
         id="path4019"
         d="m 97.225682,22.21875 -23.34375,40.46875 0.125,0.125 23.125,-40.09375 c 10.164898,8.177214 17.284808,19.961488 19.312498,33.4375 0.0519,-0.01888 0.10446,-0.04357 0.15625,-0.0625 -1.93766,-13.659411 -9.09966,-25.608941 -19.374998,-33.875 z"
         style="opacity:1;fill:url(#linearGradient4028);fill-opacity:1;stroke:none;stroke-width:1;stroke-linecap:round;stroke-linejoin:round;stroke-miterlimit:4;stroke-dasharray:none;stroke-dashoffset:0;stroke-opacity:1"
         inkscape:connector-curvature="0" />
      <path
         style="opacity:1;fill:none;fill-opacity:1;stroke:url(#radialGradient4042);stroke-width:1;stroke-linecap:round;stroke-linejoin:round;stroke-miterlimit:4;stroke-dashoffset:0;stroke-opacity:1;filter:url(#filter4044)"
         d="M 12.400238,70.790641 C 16.432985,96.140565 38.502277,115.88125 65,115.88125 c 11.68918,0 22.382003,-3.88517 31.15625,-10.28125 l -34.5,-34.5 z"
         id="path4034"
         sodipodi:nodetypes="csccc"
         inkscape:connector-curvature="0" />
      <path
         style="opacity:1;fill:none;fill-opacity:1;stroke:url(#radialGradient4064);stroke-width:1;stroke-linecap:round;stroke-linejoin:round;stroke-miterlimit:4;stroke-dashoffset:0;stroke-opacity:1;filter:url(#filter4066)"
         d="M 97.21875,22.21875 73.875,62.6875 106.46875,95.28125 C 113.09884,86.412476 117.125,75.485659 117.125,63.5625 c 0,-16.752607 -7.79407,-31.600033 -19.90625,-41.34375 z"
         id="path4048"
         inkscape:connector-curvature="0" />
      <path
         style="opacity:1;fill:none;fill-opacity:1;stroke:url(#radialGradient4078);stroke-width:1;stroke-linecap:round;stroke-linejoin:round;stroke-miterlimit:4;stroke-dashoffset:0;stroke-opacity:1;filter:url(#filter4080)"
         d="m 65,11.4375 c -26.783594,0 -48.753346,19.841356 -52.4375,45.59375 H 60.34375 L 84.5,15.21875 C 78.452348,12.822927 71.897538,11.4375 65,11.4375 Z"
         id="path4070"
         inkscape:connector-curvature="0" />
      <path
         sodipodi:nodetypes="ccccccccsscccccccccccccc"
         id="path4096"
         d="m 82.225,13.78125 -7.09375,12.3125 C 60.120636,35.392525 38.850862,42.060748 14.5375,44.5 c -0.11952,0.311443 -0.26116,0.623273 -0.375,0.9375 24.885358,-2.322944 46.676165,-9.0578 61.96875,-18.53125 l 7.3125,-12.6875 C 83.041314,14.059322 82.63188,13.931619 82.225,13.78125 Z m 14.9375,8.4375 c 0.0051,0.0043 -0.0051,0.02696 0,0.03125 0.297907,0.251696 0.613971,0.492019 0.90625,0.75 -0.303523,-0.255371 -0.597031,-0.532497 -0.90625,-0.78125 z M 98.06875,23 c 9.26056,8.173859 15.65219,19.475551 17.46875,32.28125 -11.77208,4.302032 -25.404778,7.404484 -40.1875,8.9375 l 0.84375,0.84375 C 91.037634,63.535379 104.7233,60.411175 116.5375,56.09375 114.65815,42.845396 107.85127,31.230597 98.06875,23 Z m -36.85625,47.9125 11.125,11.125 c -15.17487,5.057047 -33.145297,8.145725 -52.5,8.625 0.16801,0.26925 0.32848,0.547568 0.5,0.8125 19.545404,-0.438219 37.694399,-3.524387 53,-8.625 L 61.4,70.9125 Z"
         style="opacity:1;fill:url(#linearGradient4112);fill-opacity:1;stroke:none;stroke-width:1;stroke-linecap:round;stroke-linejoin:round;stroke-miterlimit:4;stroke-dasharray:none;stroke-dashoffset:0;stroke-opacity:1"
         inkscape:connector-curvature="0" />
      <path
         sodipodi:nodetypes="ccccccc"
         style="opacity:1;fill:url(#linearGradient4116);fill-opacity:1;stroke:none;stroke-width:1;stroke-linecap:round;stroke-linejoin:round;stroke-miterlimit:4;stroke-dasharray:none;stroke-dashoffset:0;stroke-opacity:1"
         d="m 83.225,14.78125 -7.09375,12.3125 C 61.120636,36.392525 39.850862,43.060748 15.5375,45.5 c -0.11952,0.311443 -0.26116,0.623273 -0.375,0.9375 24.885358,-2.322944 46.676165,-9.0578 61.96875,-18.53125 l 7.3125,-12.6875 C 84.041314,15.059322 83.63188,14.931619 83.225,14.78125 Z"
         id="path4114"
         inkscape:connector-curvature="0" />
      <path
         sodipodi:nodetypes="ccccc"
         id="path4118"
         d="m 86.28125,11.5625 -2.875,3.75 0.28125,0.65625 L 87.875,17.5 c 1.248093,-2.302684 0.824176,-4.301365 -1.59375,-5.9375 z"
         style="fill:url(#radialGradient4140);fill-opacity:1;fill-rule:evenodd;stroke:none;stroke-width:1px;stroke-linecap:butt;stroke-linejoin:miter;stroke-opacity:1;filter:url(#filter4226)"
         inkscape:connector-curvature="0" />
      <path
         sodipodi:nodetypes="ccccc"
         id="path4230"
         d="m 94,19.75 3.125,3.6875 0.625,-0.25 L 99.875,19.5 C 98.012018,17.689014 96.184502,17.930501 94,19.75 Z"
         style="fill:url(#radialGradient4238);fill-opacity:1;fill-rule:evenodd;stroke:none;stroke-width:1px;stroke-linecap:butt;stroke-linejoin:miter;stroke-opacity:1;filter:url(#filter4368)"
         inkscape:connector-curvature="0" />
      <path
         sodipodi:nodetypes="ccccc"
         id="path4428"
         d="m 65.125746,68.861438 -3.844893,3.005204 -0.707107,-0.486136 0.30936,-4.375223 c 1.958506,-0.129684 3.221742,0.696628 4.24264,1.856155 z"
         style="opacity:0.64851487;fill:url(#radialGradient4436);fill-opacity:1;fill-rule:evenodd;stroke:none;stroke-width:1px;stroke-linecap:butt;stroke-linejoin:miter;stroke-opacity:1;filter:url(#filter4478)"
         inkscape:connector-curvature="0" />
      <path
         sodipodi:nodetypes="ccccc"
         id="path3958"
         d="m 12.411286,70.812738 c 1.191576,7.490272 4.227889,14.741526 8.182464,20.849762 19.545405,-0.438216 37.694399,-3.524387 53,-8.625 L 61.65625,71.1 Z"
         style="opacity:1;fill:url(#linearGradient3979);fill-opacity:1;stroke:none;stroke-width:1;stroke-linecap:round;stroke-linejoin:round;stroke-miterlimit:4;stroke-dasharray:none;stroke-dashoffset:0;stroke-opacity:1"
         inkscape:connector-curvature="0" />
      <path
         sodipodi:nodetypes="ccccccc"
         id="path4001"
         d="m 12.3875,70.8125 c 0.01,0.06284 0.02103,0.124737 0.03125,0.1875 L 61.2625,71.3 73.075,82.8125 c 0.07159,-0.02373 0.147282,-0.03868 0.21875,-0.0625 L 61.35625,70.8125 Z"
         style="opacity:1;fill:url(#linearGradient4032);fill-opacity:1;stroke:none;stroke-width:1;stroke-linecap:round;stroke-linejoin:round;stroke-miterlimit:4;stroke-dasharray:none;stroke-dashoffset:0;stroke-opacity:1"
         inkscape:connector-curvature="0" />
      <path
         transform="matrix(1,0,0,-1,9.6,117.69485)"
         style="opacity:0.53960416;fill:url(#radialGradient4522);fill-opacity:1;fill-rule:evenodd;stroke:none;stroke-width:1px;stroke-linecap:butt;stroke-linejoin:miter;stroke-opacity:1;filter:url(#filter4368)"
         d="M 93.513864,19.838388 97.125,23.4375 l 0.625,-0.25 2.036612,-3.599112 c -1.862982,-1.810986 -4.088246,-1.569499 -6.272748,0.25 z"
         id="path4520"
         sodipodi:nodetypes="ccccc"
         inkscape:connector-curvature="0" />
      <path
         transform="matrix(1,0,0,-1,12.75,119.6125)"
         style="opacity:0.61386138;fill:url(#radialGradient4526);fill-opacity:1;fill-rule:evenodd;stroke:none;stroke-width:1px;stroke-linecap:butt;stroke-linejoin:miter;stroke-opacity:1;filter:url(#filter4226)"
         d="m 85.458027,10.496209 -3.051777,3.516291 0.28125,0.65625 4.077015,1.809153 c 1.248093,-2.302684 1.111438,-4.345559 -1.306488,-5.981694 z"
         id="path4524"
         sodipodi:nodetypes="ccccc"
         inkscape:connector-curvature="0" />
    </g>
  </g>
</svg>
