<?xml version="1.0" encoding="UTF-8" standalone="no"?>
<svg
   xmlns:dc="http://purl.org/dc/elements/1.1/"
   xmlns:cc="http://creativecommons.org/ns#"
   xmlns:rdf="http://www.w3.org/1999/02/22-rdf-syntax-ns#"
   xmlns:svg="http://www.w3.org/2000/svg"
   xmlns="http://www.w3.org/2000/svg"
   xmlns:xlink="http://www.w3.org/1999/xlink"
   xmlns:sodipodi="http://sodipodi.sourceforge.net/DTD/sodipodi-0.dtd"
   xmlns:inkscape="http://www.inkscape.org/namespaces/inkscape"
   height="32"
   width="32"
   version="1.1"
   id="svg262"
   sodipodi:docname="editprintarea.svg"
   inkscape:version="0.92.4 (unknown)"
   inkscape:export-filename="/home/rizmut/Dokumen/Rizmut/Github/libreoffice-style-karasa-jaga/build/next/cmd/32/editprintarea.png"
   inkscape:export-xdpi="96"
   inkscape:export-ydpi="96">
  <metadata
     id="metadata268">
    <rdf:RDF>
      <cc:Work
         rdf:about="">
        <dc:format>image/svg+xml</dc:format>
        <dc:type
           rdf:resource="http://purl.org/dc/dcmitype/StillImage" />
        <dc:title></dc:title>
      </cc:Work>
    </rdf:RDF>
  </metadata>
  <defs
     id="defs266" />
  <sodipodi:namedview
     pagecolor="#ffffff"
     bordercolor="#666666"
     borderopacity="1"
     objecttolerance="10"
     gridtolerance="10"
     guidetolerance="10"
     inkscape:pageopacity="0"
     inkscape:pageshadow="2"
     inkscape:window-width="1366"
     inkscape:window-height="714"
     id="namedview264"
     showgrid="true"
     inkscape:zoom="1.84375"
     inkscape:cx="64.542373"
     inkscape:cy="64"
     inkscape:window-x="0"
     inkscape:window-y="28"
     inkscape:window-maximized="1"
     inkscape:current-layer="g332">
    <inkscape:grid
       type="xygrid"
       id="grid270" />
  </sodipodi:namedview>
  <linearGradient
     id="a">
    <stop
       offset="0"
       stop-color="#fff"
       id="stop2" />
    <stop
       offset="1"
       stop-color="#fff"
       stop-opacity="0"
       id="stop4" />
  </linearGradient>
  <linearGradient
     id="b"
     gradientTransform="matrix(1.0384874,0,0,0.91306627,2.461539,10.953601)"
     gradientUnits="userSpaceOnUse"
     x1="46.048"
     x2="46.048"
     y1="128.01709"
     y2="16.6203">
    <stop
       offset="0"
       stop-color="#c7cdd7"
       id="stop7" />
    <stop
       offset="1"
       stop-color="#fff"
       id="stop9" />
  </linearGradient>
  <linearGradient
     id="c"
     gradientUnits="userSpaceOnUse"
     x1="120"
     x2="120"
     y1="-32.325989"
     y2="104.05867">
    <stop
       offset="0"
       stop-color="#fff"
       id="stop12" />
    <stop
       offset="1"
       stop-color="#555"
       id="stop14" />
  </linearGradient>
  <linearGradient
     id="d"
     gradientTransform="matrix(0.97828535,0,0,1.2273034,3.304344,-7.640296)"
     gradientUnits="userSpaceOnUse"
     x1="58.665199"
     x2="58.665199"
     y1="53.335201"
     y2="48.001999">
    <stop
       offset="0"
       stop-color="#f1f1f1"
       id="stop17" />
    <stop
       offset="1"
       stop-color="#fff"
       id="stop19" />
  </linearGradient>
  <linearGradient
     id="e"
     gradientUnits="userSpaceOnUse"
     x1="24"
     x2="24"
     y1="64"
     y2="16">
    <stop
       offset="0"
       stop-color="#0b0b0b"
       id="stop22" />
    <stop
       offset="1"
       stop-color="#1d1d1d"
       id="stop24" />
  </linearGradient>
  <linearGradient
     id="f"
     gradientTransform="matrix(1,0,0,1.1111111,-40,-37.777778)"
     gradientUnits="userSpaceOnUse"
     x1="64"
     x2="64"
     y1="88"
     y2="56">
    <stop
       offset="0"
       stop-color="#7f7f81"
       id="stop27" />
    <stop
       offset=".44999999"
       stop-color="#b6b6b7"
       id="stop29" />
    <stop
       offset=".67499995"
       stop-color="#f5f5f5"
       id="stop31" />
    <stop
       offset="1"
       stop-color="#cfcfcf"
       id="stop33" />
  </linearGradient>
  <linearGradient
     id="g"
     gradientUnits="userSpaceOnUse"
     x1="28"
     x2="28"
     y1="-28"
     y2="16">
    <stop
       offset="0"
       stop-color="#fff"
       id="stop36" />
    <stop
       offset=".54545456"
       stop-color="#ebebeb"
       id="stop38" />
    <stop
       offset=".90909094"
       stop-color="#bababa"
       id="stop40" />
    <stop
       offset="1"
       stop-color="#7e7e7f"
       id="stop42" />
  </linearGradient>
  <linearGradient
     id="h"
     gradientTransform="matrix(0.90905844,0,0,1,-33.45304,-31.999993)"
     gradientUnits="userSpaceOnUse"
     x1="64"
     x2="64"
     y1="48"
     y2="72">
    <stop
       offset="0"
       stop-color="#6e4388"
       id="stop45" />
    <stop
       offset=".21062189"
       stop-color="#651d8d"
       id="stop47" />
    <stop
       offset=".5"
       stop-color="#ac7ec6"
       id="stop49" />
    <stop
       offset=".66666639"
       stop-color="#ca87dc"
       id="stop51" />
    <stop
       offset="1"
       stop-color="#ebeaeb"
       id="stop53" />
  </linearGradient>
  <linearGradient
     id="i"
     gradientUnits="userSpaceOnUse"
     x1="28"
     x2="27.435677"
     y1="88"
     y2="61.627121">
    <stop
       offset="0"
       stop-color="#fefefe"
       id="stop56" />
    <stop
       offset=".5"
       stop-color="#f7f7f7"
       id="stop58" />
    <stop
       offset=".91002578"
       stop-color="#8c8c8c"
       id="stop60" />
    <stop
       offset="1"
       stop-color="#666"
       id="stop62" />
  </linearGradient>
  <linearGradient
     id="j"
     gradientTransform="matrix(1,0,0,0.62584105,-40,-6.55719)"
     gradientUnits="userSpaceOnUse"
     x1="52"
     x2="76"
     y1="72"
     y2="72">
    <stop
       offset="0"
       id="stop65" />
    <stop
       offset=".66666669"
       stop-color="#a6a6a6"
       stop-opacity=".866667"
       id="stop67" />
    <stop
       offset="1"
       stop-opacity=".737089"
       id="stop69" />
  </linearGradient>
  <linearGradient
     id="k"
     gradientUnits="userSpaceOnUse"
     x1="24.254238"
     x2="24.254238"
     y1="12"
     y2="32">
    <stop
       offset="0"
       stop-color="#baaac4"
       id="stop72" />
    <stop
       offset="1"
       stop-color="#baaac4"
       stop-opacity="0"
       id="stop74" />
  </linearGradient>
  <linearGradient
     id="l"
     gradientTransform="matrix(1.3755238,0,0,1.8570645,-22.548199,-92.562977)"
     gradientUnits="userSpaceOnUse"
     x1="63.911137"
     x2="87.757362"
     y1="79.998817"
     y2="93.999413">
    <stop
       offset="0"
       id="stop77" />
    <stop
       offset="1"
       stop-opacity="0"
       id="stop79" />
  </linearGradient>
  <filter
     id="m">
    <feGaussianBlur
       stdDeviation=".6715998"
       id="feGaussianBlur82" />
  </filter>
  <radialGradient
     id="n"
     cx="42.617531"
     cy="120.64188"
     gradientTransform="matrix(1.909059,1.8392116,-8.6222515,7.5766472,1009.8522,-881.36145)"
     gradientUnits="userSpaceOnUse"
     r="3.406888">
    <stop
       offset="0"
       stop-color="#b4942a"
       id="stop85" />
    <stop
       offset="1"
       stop-color="#e4dcc9"
       id="stop87" />
  </radialGradient>
  <linearGradient
     id="o"
     gradientTransform="matrix(0.9986497,0,0,0.9998891,0.14044,0.005323)"
     gradientUnits="userSpaceOnUse"
     x1="75.848022"
     x2="81.452583"
     y1="72.804123"
     y2="77.047241">
    <stop
       offset="0"
       stop-color="#252525"
       id="stop90" />
    <stop
       offset=".5"
       stop-color="#252525"
       id="stop92" />
    <stop
       offset=".75"
       stop-color="#252525"
       id="stop94" />
    <stop
       offset="1"
       id="stop96" />
  </linearGradient>
  <linearGradient
     id="p"
     gradientTransform="matrix(0.9986497,0,0,0.9998891,0.14044,0.005323)"
     gradientUnits="userSpaceOnUse"
     x1="76.708534"
     x2="80.579521"
     y1="83.325729"
     y2="87.154587">
    <stop
       offset="0"
       stop-color="#d4a100"
       stop-opacity=".976471"
       id="stop99" />
    <stop
       offset="1"
       stop-color="#ffc712"
       id="stop101" />
  </linearGradient>
  <linearGradient
     id="q"
     gradientTransform="matrix(1.2875994,1.1737414,-0.5465891,0.6213041,81.686465,27.89447)"
     gradientUnits="userSpaceOnUse"
     x1="11.326384"
     x2="14.493531"
     y1="57.383999"
     y2="57.383999">
    <stop
       offset="0"
       stop-color="#9a7600"
       id="stop104" />
    <stop
       offset=".09292036"
       stop-color="#e3ad00"
       id="stop106" />
    <stop
       offset=".5043171"
       stop-color="#ffcd2c"
       id="stop108" />
    <stop
       offset=".91571385"
       stop-color="#e3ad00"
       id="stop110" />
    <stop
       offset="1"
       stop-color="#b98d00"
       id="stop112" />
  </linearGradient>
  <linearGradient
     id="r"
     gradientTransform="matrix(0.9992082,0,0,0.9993395,0.108362,-0.090375)"
     gradientUnits="userSpaceOnUse"
     x1="114.92793"
     x2="100.65602"
     y1="-22.560064"
     y2="-22.052734">
    <stop
       offset="0"
       stop-color="#980000"
       id="stop115" />
    <stop
       offset="1"
       stop-color="#db5c5c"
       id="stop117" />
  </linearGradient>
  <linearGradient
     id="s"
     gradientUnits="userSpaceOnUse"
     x1="-12.817558"
     x2="82.172836"
     y1="7.4622769"
     y2="7.4622769">
    <stop
       offset="0"
       stop-color="#fff"
       stop-opacity=".683453"
       id="stop120" />
    <stop
       offset="1"
       stop-color="#fff"
       stop-opacity="0"
       id="stop122" />
  </linearGradient>
  <filter
     id="t">
    <feGaussianBlur
       stdDeviation=".31468463"
       id="feGaussianBlur125" />
  </filter>
  <radialGradient
     id="u"
     cx="34.677639"
     cy="7.4622769"
     gradientTransform="matrix(-1.5103,0.00264127,-1.1671e-4,-0.00911022,87.0522,7.438666)"
     gradientUnits="userSpaceOnUse"
     r="47.595196"
     xlink:href="#a" />
  <linearGradient
     id="v"
     gradientTransform="matrix(0.6182226,0,0,0.6232687,24.10803,47.993844)"
     gradientUnits="userSpaceOnUse"
     x1="33.342377"
     x2="24.450998"
     y1="117.83894"
     y2="107.35519">
    <stop
       offset="0"
       id="stop129" />
    <stop
       offset="1"
       stop-color="#515151"
       id="stop131" />
  </linearGradient>
  <linearGradient
     id="w"
     gradientTransform="matrix(1.6732108,1.5189394,-1.5009523,1.6928488,18.675678,-24.465565)"
     gradientUnits="userSpaceOnUse"
     x1="48.498562"
     x2="48.732723"
     xlink:href="#a"
     y1="0.81150502"
     y2="2.3657269" />
  <linearGradient
     id="x"
     gradientTransform="matrix(0.9973012,0,0,0.9997782,0.28069,0.010646)"
     gradientUnits="userSpaceOnUse"
     x1="92.226158"
     x2="96.579895"
     y1="54.119438"
     y2="57.15118">
    <stop
       offset="0"
       stop-color="#ea3838"
       id="stop135" />
    <stop
       offset="1"
       stop-color="#c40000"
       id="stop137" />
  </linearGradient>
  <radialGradient
     id="y"
     cx="49.011971"
     cy="2.6743081"
     gradientTransform="matrix(2.2600183,0,0,0.2752449,-2.259041,-25.415382)"
     gradientUnits="userSpaceOnUse"
     r="1.724619"
     xlink:href="#z" />
  <linearGradient
     id="z">
    <stop
       offset="0"
       stop-color="#fff"
       id="stop141" />
    <stop
       offset="1"
       stop-color="#252525"
       stop-opacity="0"
       id="stop143" />
  </linearGradient>
  <radialGradient
     id="A"
     cx="49.011971"
     cy="2.6743081"
     gradientTransform="matrix(1.550633,0,0,0.1873121,21.621938,-31.864287)"
     gradientUnits="userSpaceOnUse"
     r="1.724619"
     xlink:href="#z" />
  <radialGradient
     id="B"
     cx="49.011971"
     cy="2.6743081"
     gradientTransform="matrix(1.5495914,0,0,0.1876849,-193.24041,-23.535874)"
     gradientUnits="userSpaceOnUse"
     r="1.724619"
     xlink:href="#z" />
  <g
     id="g332"
     transform="matrix(0.25,0,0,0.25,0.0453625,2.3078911e-8)">
    <path
       id="path148"
       d="m 8,28 h 108 v 76 H 8 Z"
       style="fill:url(#b)"
       inkscape:connector-curvature="0" />
    <text
       id="text152"
       y="202.81038"
       x="552.36987">
      <tspan
         id="tspan150"
         y="219.61037"
         x="552.36987"
         style="fill:#555555" />
    </text>
    <text
       id="text156"
       y="202.81038"
       x="284.18808">
      <tspan
         id="tspan154"
         y="219.61037"
         x="284.18808"
         style="fill:#555555" />
    </text>
    <text
       id="text160"
       y="133.87732"
       x="-10.252362">
      <tspan
         id="tspan158"
         y="150.67731"
         x="-10.252362"
         style="fill:#555555" />
    </text>
    <text
       id="text164"
       y="-39.856026"
       x="161.66467">
      <tspan
         id="tspan162"
         y="-23.056038"
         x="161.66467"
         style="fill:#555555" />
    </text>
    <path
       id="path166"
       d="M 32,48 H 92 V 84 H 32 Z"
       style="fill:url(#d)"
       inkscape:connector-curvature="0" />
    <path
       id="path168"
       d="m 4,24 v 4 16 4 16 4 16 4 16 4 h 4 20 4 28 4 28 4 20 4 V 104 88 84 68 64 48 44 28 24 H 116 96 92 64 60 32 28 8 Z m 4,4 H 28 V 44 H 8 Z m 24,0 h 28 v 8 8 H 32 Z m 32,0 H 92 V 44 H 64 v -8 z m 32,0 h 20 V 44 H 96 Z M 8,48 H 28 V 64 H 8 Z m 24,0 H 60 V 64 H 32 Z m 32,0 H 92 V 64 H 64 Z m 32,0 h 20 V 64 H 96 Z M 8,68 H 28 V 84 H 8 Z m 24,0 H 60 V 84 H 32 Z m 32,0 H 92 V 84 H 64 Z m 32,0 h 20 V 84 H 96 Z M 8,88 h 20 v 16 H 8 Z m 24,0 h 28 v 8 8 H 32 Z m 32,0 h 28 v 16 H 64 v -8 z m 32,0 h 20 v 16 H 96 Z"
       style="fill:url(#c)"
       inkscape:connector-curvature="0" />
    <path
       id="path170"
       d="m 60,68 v 16 4 8 8 4 h 4 28 4 20 4 V 104 88 84 68 64 H 116 96 92 64 Z"
       inkscape:connector-curvature="0"
       style="fill:#cbffb0" />
    <path
       id="path172"
       d="m 60,68 v 16 4 8 8 4 h 4 28 4 20 4 V 104 88 84 68 64 H 116 96 92 64 Z m 4,0 H 92 V 84 H 64 Z m 32,0 h 20 V 84 H 96 Z M 64,88 h 28 v 16 H 64 v -8 z m 32,0 h 20 v 16 H 96 Z"
       inkscape:connector-curvature="0"
       style="fill:#59ac17" />
    <g
       id="g218"
       transform="matrix(0.75,0,0,0.75,25.454975,23.635075)">
      <rect
         id="rect174"
         y="80"
         x="-19.273298"
         width="88"
         ry="0.409933"
         rx="0.206393"
         height="4.037014" />
      <rect
         id="rect176"
         y="-32.0009"
         x="-34.1819"
         width="117.57526"
         transform="scale(1,-1)"
         rx="8"
         height="26.181"
         style="fill:#1d1d1d" />
      <rect
         id="rect178"
         y="20.3647"
         x="-34.1819"
         width="117.57526"
         ry="0.30468899"
         rx="0.222269"
         height="49.4552"
         style="fill:url(#e)" />
      <rect
         id="rect180"
         y="-28"
         x="-28"
         width="106.06004"
         transform="scale(1,-1)"
         ry="8"
         rx="7.4285722"
         height="22.180099"
         style="fill:#b6b6b6" />
      <rect
         id="rect182"
         y="20"
         x="-28"
         width="106.06004"
         ry="0.27699"
         rx="0.206393"
         height="44.486568"
         style="fill:url(#f)" />
      <rect
         id="rect184"
         y="-15.513433"
         x="-17.939966"
         width="85.333336"
         ry="0.29875401"
         rx="0.206393"
         height="32"
         style="fill:#111012" />
      <rect
         id="rect186"
         y="-10.1801"
         x="-12.606633"
         width="74.666664"
         ry="0.249291"
         rx="0.18346"
         height="26.666668"
         style="fill:#3e3c41" />
      <rect
         id="rect188"
         y="8.7284994"
         x="-22.5457"
         width="93.179428"
         ry="0.274643"
         rx="0.208005"
         height="15.2715"
         style="fill:#28232c" />
      <rect
         id="rect190"
         y="-31.513433"
         x="-1.939967"
         width="53.333332"
         ry="0.294617"
         rx="0.24079201"
         height="53.333332"
         style="fill:#9f9f9f;fill-opacity:0.99607801" />
      <rect
         id="rect192"
         y="-26.180099"
         x="3.3933671"
         width="42.666668"
         ry="0.249291"
         rx="0.206393"
         height="42.666668"
         style="fill:url(#g)" />
      <path
         id="path194"
         style="fill:url(#h);stroke:#1f1f1f;stroke-width:3;stroke-linecap:square;stroke-linejoin:round;stroke-opacity:0.92488302"
         d="m -19.084247,8.835999 h 87.6219 c 0.10394,0 0.18762,0.155157 0.18762,0.347885 v 16.468231 c 0,0.192728 -0.12556,0.264562 -0.18762,0.347885 l -7.44861,9.999997 0.36376,5.999998 H -11.999403 L -11.635637,35.999997 -19.084247,26 c -0.06776,-0.09097 -0.187624,-0.155157 -0.187624,-0.347885 V 9.183884 c 0,-0.192728 0.08368,-0.347885 0.187624,-0.347885 z"
         inkscape:connector-curvature="0" />
      <g
         id="g202"
         style="fill-rule:evenodd">
        <path
           id="path196"
           d="m -17.273299,60 -2,20 h 88 l -2,-20 z"
           inkscape:connector-curvature="0"
           style="fill:#424245" />
        <path
           id="path198"
           d="m -13.628569,62.561443 -4.311398,28.59179 h 85.333334 l -4.311402,-28.59179 z"
           inkscape:connector-curvature="0"
           style="fill:#434343" />
        <path
           id="path200"
           d="M -8.6090723,59.82276 -12.606633,85.8199 H 62.060033 L 58.062472,59.82276 Z"
           style="fill:url(#i)"
           inkscape:connector-curvature="0" />
      </g>
      <rect
         id="rect204"
         y="48.486568"
         x="-12.606633"
         width="74.666679"
         ry="0.26632899"
         rx="0.206393"
         height="15.999998" />
      <rect
         id="rect206"
         y="32.486568"
         x="8.7266998"
         width="32"
         ry="0.15601701"
         rx="0.206393"
         height="10.666665"
         style="fill:url(#j)" />
      <rect
         id="rect208"
         y="8.7284994"
         x="0.72670001"
         width="46.5448"
         ry="1.007805"
         rx="0.30959001"
         height="23.2724"
         style="opacity:0.92000002;fill:url(#k)" />
      <rect
         id="rect210"
         y="8.7284994"
         x="2.1005781"
         width="45.170921"
         ry="0.640315"
         rx="0.28118101"
         height="15.118958"
         style="fill:#986aae" />
      <rect
         id="rect212"
         y="8.7284994"
         x="3.8412859"
         width="40.775043"
         ry="0.52547199"
         rx="0.25799099"
         height="11.6362"
         style="fill:#c9b1d5" />
      <rect
         id="rect214"
         y="8.7284994"
         x="6.5457001"
         width="34.9077"
         ry="0.26655301"
         rx="0.25799099"
         height="5.8181"
         style="fill:#1d1d1d" />
      <path
         id="path216"
         d="M -12,52 -12.537056,41.999995 H 60.91515 L 60,52 Z"
         inkscape:connector-curvature="0"
         style="fill:#545156;fill-rule:evenodd" />
    </g>
    <g
       id="g260"
       transform="matrix(1.0439275,0,0,1.0439275,19.463148,-49.94659)">
      <g
         id="g228"
         style="fill-rule:evenodd">
        <path
           id="path220"
           d="m 90.067703,48.28801 c 0.613642,-0.692125 4.648657,-0.363057 8.944253,3.536477 4.337724,3.937759 5.210074,7.748115 4.441394,8.615025 -0.5003,0.564284 -1.00061,1.128566 -1.50092,1.692851 -4.461914,-4.050501 -8.9238,-8.101002 -13.385691,-12.151503 0.500309,-0.564283 1.000624,-1.128565 1.500964,-1.69285 z"
           inkscape:connector-curvature="0"
           style="fill:#bf0000" />
        <path
           id="path222"
           d="m 36.000762,124 20.247,-9.42653 0.09417,-0.10772 -13.269004,-12.28446 -0.127672,0.1459 z"
           inkscape:connector-curvature="0"
           style="fill:#b3925d" />
        <path
           id="path224"
           d="m 97.750257,56.002191 c -1.025821,-0.04502 -1.882013,0.614542 -2.665637,0.986566 -4.174912,3.698786 -21.569273,21.653428 -22.000397,22.168708 l -17.273332,20.659839 -0.106627,0.116066 -9.682256,17.6334 23.598527,-5.26172 29.942357,-36.049248 3.589728,-4.294461 c 0.64726,-1.199814 1.23861,-7.813473 -1.74155,-12.76732 -1.452992,-2.415269 -2.634989,-3.146806 -3.660813,-3.19183 z m 5.402363,15.95915 c -0.0266,0.04924 -0.0446,0.143824 -0.0711,0.174098 -0.0129,0.01476 1.49247,-1.049396 0.6753,-0.870498 l -0.60421,0.6964 z"
           style="fill:url(#l);filter:url(#m)"
           inkscape:connector-curvature="0" />
        <path
           id="path226"
           d="m 37.004018,123.01573 18.885171,-8.78019 0.09416,-0.10769 -12.551842,-11.60866 -0.12769,0.14592 -6.299801,20.35062 z"
           style="fill:url(#n)"
           inkscape:connector-curvature="0" />
      </g>
      <path
         id="path230"
         d="m 49.164276,108.94499 c 1.648961,1.50106 2.755448,1.51054 3.34488,2.0471 0.09525,0.0867 0.175312,0.18851 0.243795,0.29167 L 97.392942,60.017302 90.912418,54.117987 46.187555,105.48147 c 0.214748,0.0564 0.415855,0.13454 0.602285,0.30424 0.538767,0.49045 0.717813,1.65124 2.374436,3.15928 z"
         style="fill:url(#o)"
         inkscape:connector-curvature="0" />
      <path
         id="path232"
         d="m 54.219542,109.12044 -1.750182,2.00168 c 0.538752,0.53092 0.431653,1.46553 1.421976,2.36702 1.067261,0.97156 1.630178,0.45849 2.321697,1.08447 l 1.771382,-2.02599 z"
         inkscape:connector-curvature="0"
         style="opacity:0.35348804" />
      <path
         id="path234"
         d="M 97.156354,59.801933 52.550305,111.02955 c 0.541583,0.53354 0.517441,1.37742 1.512824,2.28353 1.072712,0.97652 1.555044,0.55628 2.250088,1.18547 L 100.94048,63.246681 Z"
         style="fill:url(#p)"
         inkscape:connector-curvature="0" />
      <path
         id="path236"
         d="m 47.641192,104.81388 -0.897802,1.02682 -0.0345,0.0376 c 0.447512,0.42018 0.395724,1.39005 1.878296,2.86086 l 0.08229,0.0749 0.586334,0.53373 0.0823,0.0749 c 1.616252,1.35012 2.54668,1.16726 3.136095,1.7038 l 0.947655,-1.09585 -5.780669,-5.21679 z"
         inkscape:connector-curvature="0"
         style="opacity:0.386047;fill:#252525" />
      <path
         id="path238"
         d="m 43.884886,101.37497 -0.940801,0.95531 c 0.02064,0.0187 -0.05311,0.1047 -0.03237,0.12358 0.423005,0.38509 0.412824,1.36825 1.189787,2.20191 l 0.072,0.0655 0.318878,0.29029 0.04115,0.0374 c 0.925767,0.72156 1.702344,0.46358 2.175362,0.82926 l 0.940872,-1.07609 -3.764879,-3.42723 z"
         inkscape:connector-curvature="0"
         style="opacity:0.35348804;fill:#131313" />
      <path
         id="path240"
         d="m 44.501995,104.6749 c 1.032229,0.92922 1.738227,0.6105 2.287845,1.11081 L 91.395905,54.558106 87.571444,51.076654 42.944168,102.32853 c 0.02096,0.019 0.04162,0.0379 0.06269,0.0571 0.42971,0.39116 0.455145,1.35294 1.495139,2.28929 z"
         style="fill:url(#q)"
         inkscape:connector-curvature="0" />
      <path
         id="path242"
         transform="matrix(0.7409346,0.6715772,-0.6655662,0.7463388,0,0)"
         d="m 99.380959,-24.64492 h 18.073061 v 4.252269 H 99.380959 Z"
         style="fill:url(#r)"
         inkscape:connector-curvature="0" />
      <ellipse
         id="ellipse244"
         transform="matrix(0.3854946,-0.4403693,-1.7345162,-1.5764895,62.874028,110.46407)"
         ry="0.97142202"
         rx="47.495197"
         cy="7.4622769"
         cx="34.677639"
         style="fill:url(#s);filter:url(#t)" />
      <path
         id="path246"
         transform="matrix(0.3184879,-0.3665274,-1.2576415,-1.1452705,66.925762,101.47904)"
         d="M 106.56087,7.4622769 A 71.883232,0.4230493 0 0 1 35.242273,7.8853132 71.883232,0.4230493 0 0 1 -37.196723,7.4689227 71.883232,0.4230493 0 0 1 32.983878,7.0393451 71.883232,0.4230493 0 0 1 106.52539,7.448987"
         style="fill:url(#u)"
         inkscape:connector-curvature="0" />
      <path
         id="path248"
         d="m 44.721041,119.98334 c -1.894932,-0.77816 -4.469372,-3.93608 -5.787909,-5.07837 l -2.933131,9.08971 z"
         style="fill:url(#v);fill-rule:evenodd"
         inkscape:connector-curvature="0" />
      <path
         id="path250"
         d="m 97.676422,50.957862 c 2.773338,2.157871 4.754818,5.136648 4.863888,5.422718 0.10904,0.286071 -2.586875,-3.046365 -4.878244,-4.572341 -2.273846,-1.514326 -5.450917,-1.552229 -5.685693,-1.736594 -0.234782,-0.184361 -1.822614,-1.877275 -0.38221,-1.814774 1.506596,0.06537 3.94013,1.035831 6.082259,2.700991 z"
         style="fill:url(#w);fill-rule:evenodd"
         inkscape:connector-curvature="0" />
      <path
         id="path252"
         d="m 93.653015,51.592952 -2.773744,3.218036 6.482458,5.873697 2.773741,-3.186793 z"
         style="fill:url(#x)"
         inkscape:connector-curvature="0" />
      <path
         id="path254"
         transform="matrix(0.7404161,0.6721488,-0.6634233,0.7482443,0,0)"
         d="m 104.60918,-25.364759 h 7.79523 v 1.708078 h -7.79523 z"
         style="fill:url(#y)"
         inkscape:connector-curvature="0" />
      <path
         id="path256"
         transform="matrix(0.6942228,0.7197602,-0.7693435,0.6388354,0,0)"
         d="m 94.946716,-31.829779 h 5.348454 v 1.162492 h -5.348454 z"
         style="fill:url(#A)"
         inkscape:connector-curvature="0" />
      <path
         id="path258"
         transform="matrix(-0.7514575,-0.6597815,-0.5893147,0.8079036,0,0)"
         d="m -119.96733,-23.501301 h 5.3449 v 1.164788 h -5.3449 z"
         style="fill:url(#B)"
         inkscape:connector-curvature="0" />
    </g>
  </g>
</svg>
