<?xml version="1.0" encoding="UTF-8" standalone="no"?>
<svg
   xmlns:dc="http://purl.org/dc/elements/1.1/"
   xmlns:cc="http://creativecommons.org/ns#"
   xmlns:rdf="http://www.w3.org/1999/02/22-rdf-syntax-ns#"
   xmlns:svg="http://www.w3.org/2000/svg"
   xmlns="http://www.w3.org/2000/svg"
   xmlns:xlink="http://www.w3.org/1999/xlink"
   xmlns:sodipodi="http://sodipodi.sourceforge.net/DTD/sodipodi-0.dtd"
   xmlns:inkscape="http://www.inkscape.org/namespaces/inkscape"
   height="32"
   width="32"
   version="1.1"
   id="svg64"
   sodipodi:docname="importdialog.svg"
   inkscape:version="0.92.4 (unknown)"
   inkscape:export-filename="/home/rizmut/Dokumen/Rizmut/Github/libreoffice-style-karasa-jaga/build/next/cmd/32/importdialog.png"
   inkscape:export-xdpi="96"
   inkscape:export-ydpi="96">
  <metadata
     id="metadata70">
    <rdf:RDF>
      <cc:Work
         rdf:about="">
        <dc:format>image/svg+xml</dc:format>
        <dc:type
           rdf:resource="http://purl.org/dc/dcmitype/StillImage" />
        <dc:title></dc:title>
      </cc:Work>
    </rdf:RDF>
  </metadata>
  <defs
     id="defs68">
    <linearGradient
       id="n"
       gradientTransform="matrix(1.8263701,0,0,1.8293782,224.68154,-3467.4687)"
       gradientUnits="userSpaceOnUse"
       x1="-97.742668"
       x2="-97.742668"
       y1="1937.9885"
       y2="1895.421">
      <stop
         offset="0"
         stop-color="#2e2a2b"
         id="stop97" />
      <stop
         offset=".33497536"
         stop-color="#4c494a"
         id="stop99" />
      <stop
         offset=".66748768"
         stop-color="#5b595a"
         id="stop101" />
      <stop
         offset="1"
         stop-color="#6b696a"
         id="stop103" />
    </linearGradient>
    <radialGradient
       id="z"
       cx="100.30548"
       cy="42.449028"
       gradientTransform="matrix(3.9033696,-0.08921125,0.03142618,1.3750281,-365.19142,-59.70847)"
       gradientUnits="userSpaceOnUse"
       r="38">
      <stop
         offset="0"
         stop-color="#d0ced9"
         id="stop125" />
      <stop
         offset=".28386873"
         stop-color="#ecf1f9"
         id="stop127" />
      <stop
         offset=".58388489"
         stop-color="#fff"
         id="stop129" />
      <stop
         offset="1"
         stop-color="#c6d5e3"
         id="stop131" />
    </radialGradient>
    <linearGradient
       id="o"
       gradientUnits="userSpaceOnUse"
       x1="65.972267"
       x2="66.079453"
       xlink:href="#b-0"
       y1="31.21278"
       y2="59.869701" />
    <linearGradient
       id="b-0">
      <stop
         offset="0"
         stop-color="#fff"
         id="stop7-6" />
      <stop
         offset="1"
         stop-color="#fff"
         stop-opacity="0"
         id="stop9-2" />
    </linearGradient>
    <filter
       id="A">
      <feGaussianBlur
         stdDeviation=".11145486"
         id="feGaussianBlur134" />
    </filter>
    <linearGradient
       id="p"
       gradientTransform="matrix(0.7134318,0,0,0.7083173,5.052357,-5.237961)"
       gradientUnits="userSpaceOnUse"
       x1="107.06239"
       x2="107.06239"
       xlink:href="#b-0"
       y1="-26.262714"
       y2="134.55173" />
    <linearGradient
       id="q"
       gradientUnits="userSpaceOnUse"
       x1="47.608696"
       x2="47.608696"
       xlink:href="#a-6"
       y1="104.35009"
       y2="176.35008" />
    <linearGradient
       id="a-6">
      <stop
         offset="0"
         id="stop2" />
      <stop
         offset="1"
         stop-opacity="0"
         id="stop4" />
    </linearGradient>
    <clipPath
       id="B">
      <path
         inkscape:connector-curvature="0"
         d="m 18.189713,132.42089 c -1.419208,0 -2.5625,1.1433 -2.5625,2.5625 v 37.18328 h 72.000002 v -37.18328 c 0,-1.4192 -1.14329,-2.5625 -2.5625,-2.5625 z"
         id="path137" />
    </clipPath>
    <filter
       id="C"
       height="1.2405109"
       width="1.138013"
       x="-0.069006003"
       y="-0.120256">
      <feGaussianBlur
         stdDeviation="1.9228365"
         id="feGaussianBlur140" />
    </filter>
    <radialGradient
       id="D"
       cx="84"
       cy="91.983192"
       gradientTransform="matrix(0.7217891,0,0,0.424278,-3.07943,23.252626)"
       gradientUnits="userSpaceOnUse"
       r="32"
       xlink:href="#b-0" />
    <linearGradient
       id="r"
       gradientUnits="userSpaceOnUse"
       x1="68"
       x2="36"
       xlink:href="#a-6"
       y1="120"
       y2="84" />
    <filter
       id="E"
       height="1.185769"
       width="1.247692"
       x="-0.123846"
       y="-0.092885002">
      <feGaussianBlur
         stdDeviation="1.2384615"
         id="feGaussianBlur144" />
    </filter>
    <linearGradient
       id="s"
       gradientUnits="userSpaceOnUse"
       x1="89.604729"
       x2="114.175"
       xlink:href="#b-0"
       y1="42.336197"
       y2="106.7981" />
    <filter
       id="F">
      <feGaussianBlur
         stdDeviation=".0231875"
         id="feGaussianBlur147" />
    </filter>
    <linearGradient
       id="t"
       gradientUnits="userSpaceOnUse"
       x1="87.693916"
       x2="91.051781"
       xlink:href="#a-6"
       y1="100.83184"
       y2="100.83184" />
    <filter
       id="G"
       height="1.045223"
       width="1.5097899"
       x="-0.254895"
       y="-0.022612">
      <feGaussianBlur
         stdDeviation=".35662617"
         id="feGaussianBlur150" />
    </filter>
    <linearGradient
       id="u"
       gradientTransform="matrix(0.7217891,0,0,0.6902605,-3.07943,-3.520608)"
       gradientUnits="userSpaceOnUse"
       x1="64"
       x2="56"
       y1="120.0697"
       y2="96.315643">
      <stop
         offset="0"
         stop-color="#8a8a8a"
         id="stop112" />
      <stop
         offset="1"
         stop-color="#c6c6c6"
         id="stop114" />
    </linearGradient>
    <linearGradient
       id="v"
       gradientTransform="matrix(0.7217891,0,0,0.6902605,3.07943,-3.520608)"
       gradientUnits="userSpaceOnUse"
       x1="-80.095642"
       x2="-89.987785"
       xlink:href="#b-0"
       y1="78.43882"
       y2="115.78114" />
    <clipPath
       id="H">
      <rect
         height="12"
         rx="1.079258"
         width="8"
         x="12"
         y="12"
         id="rect153" />
    </clipPath>
    <filter
       id="I"
       height="1.203077"
       width="1.2933331"
       x="-0.146667"
       y="-0.101538">
      <feGaussianBlur
         stdDeviation=".55"
         id="feGaussianBlur156" />
    </filter>
    <radialGradient
       id="J"
       cx="16"
       cy="18"
       gradientTransform="matrix(1,0,0,1.5,0,-9)"
       gradientUnits="userSpaceOnUse"
       r="4">
      <stop
         offset="0"
         stop-color="#7a7a7a"
         id="stop159" />
      <stop
         offset="1"
         stop-opacity=".490909"
         id="stop161" />
    </radialGradient>
    <linearGradient
       id="w"
       gradientUnits="userSpaceOnUse"
       x1="16"
       x2="16"
       xlink:href="#a-6"
       y1="1.595278"
       y2="18.75548" />
    <clipPath
       id="K">
      <rect
         height="12"
         rx="1.079258"
         width="8"
         x="12"
         y="12"
         id="rect164" />
    </clipPath>
    <filter
       id="filter390"
       height="1.203077"
       width="1.2933331"
       x="-0.146667"
       y="-0.101538">
      <feGaussianBlur
         stdDeviation=".55"
         id="feGaussianBlur388" />
    </filter>
    <radialGradient
       id="L"
       cx="16.03512"
       cy="19.494249"
       fy="18.539074"
       gradientUnits="userSpaceOnUse"
       r="2.3785191">
      <stop
         offset="0"
         stop-color="#868385"
         id="stop167" />
      <stop
         offset="1"
         stop-color="#4a4949"
         id="stop169" />
    </radialGradient>
    <linearGradient
       id="x"
       gradientUnits="userSpaceOnUse"
       x1="13.731525"
       x2="13.731525"
       y1="17.127983"
       y2="19.86887">
      <stop
         offset="0"
         stop-color="#fff"
         id="stop119" />
      <stop
         offset="1"
         id="stop121" />
    </linearGradient>
    <filter
       id="M">
      <feGaussianBlur
         stdDeviation=".04177847"
         id="feGaussianBlur172" />
    </filter>
    <linearGradient
       id="y"
       gradientTransform="matrix(0.7217891,0,0,0.6902605,-3.07943,-3.520608)"
       gradientUnits="userSpaceOnUse"
       x1="60.25"
       x2="60.25"
       xlink:href="#a-6"
       y1="122.00736"
       y2="118.5" />
  </defs>
  <sodipodi:namedview
     pagecolor="#ffffff"
     bordercolor="#666666"
     borderopacity="1"
     objecttolerance="10"
     gridtolerance="10"
     guidetolerance="10"
     inkscape:pageopacity="0"
     inkscape:pageshadow="2"
     inkscape:window-width="1366"
     inkscape:window-height="706"
     id="namedview66"
     showgrid="true"
     inkscape:zoom="14.75"
     inkscape:cx="15.638645"
     inkscape:cy="15.115978"
     inkscape:window-x="0"
     inkscape:window-y="0"
     inkscape:window-maximized="1"
     inkscape:current-layer="svg64">
    <inkscape:grid
       type="xygrid"
       id="grid84" />
  </sodipodi:namedview>
  <filter
     id="a">
    <feGaussianBlur
       stdDeviation="1.177891"
       id="feGaussianBlur2" />
  </filter>
  <linearGradient
     id="b"
     gradientTransform="matrix(0.03036425,0,0,0.04391512,28.890064,66.696083)"
     gradientUnits="userSpaceOnUse"
     x1="-333.0289"
     x2="-333.0289"
     y1="-1473.6504"
     y2="-776.61371">
    <stop
       offset="0"
       stop-color="#fff"
       id="stop5" />
    <stop
       offset=".49140647"
       stop-color="#fff"
       id="stop7" />
    <stop
       offset="1"
       stop-color="#dcdcdc"
       id="stop9" />
  </linearGradient>
  <linearGradient
     id="c"
     gradientTransform="matrix(0.03036425,0,0,0.04391512,-0.9706795,-22.132443)"
     gradientUnits="userSpaceOnUse"
     x1="399.77466"
     x2="399.77466"
     y1="727.07941"
     y2="480.60214">
    <stop
       offset="0"
       stop-color="#cbcbcd"
       id="stop12" />
    <stop
       offset=".5"
       stop-color="#e0e0e2"
       id="stop14" />
    <stop
       offset="1"
       stop-color="#f2f2f2"
       id="stop16" />
  </linearGradient>
  <filter
     id="d"
     color-interpolation-filters="sRGB"
     height="1.12"
     width="1.12"
     x="-.06"
     y="-.06">
    <feGaussianBlur
       stdDeviation="1.9753136"
       id="feGaussianBlur19" />
  </filter>
  <radialGradient
     id="e"
     cx="-65.04158"
     cy="84.778641"
     gradientUnits="userSpaceOnUse"
     r="36.458652">
    <stop
       offset="0"
       stop-color="#92e128"
       id="stop22" />
    <stop
       offset="1"
       stop-color="#569d0a"
       stop-opacity=".996078"
       id="stop24" />
  </radialGradient>
  <filter
     id="f"
     color-interpolation-filters="sRGB"
     height="1.048"
     width="1.048"
     x="-.024"
     y="-.024">
    <feGaussianBlur
       stdDeviation=".72917305"
       id="feGaussianBlur27" />
  </filter>
  <filter
     id="g"
     color-interpolation-filters="sRGB"
     height="1.096"
     width="1.096"
     x="-.048"
     y="-.048">
    <feGaussianBlur
       stdDeviation=".78129363"
       id="feGaussianBlur30" />
  </filter>
  <linearGradient
     id="h"
     gradientTransform="matrix(1,0,0,0.80878252,0,0.272859)"
     gradientUnits="userSpaceOnUse"
     x1="-67.976425"
     x2="-66.816696"
     y1="24.103317"
     y2="72.311111">
    <stop
       offset="0"
       stop-color="#fff"
       id="stop33" />
    <stop
       offset="1"
       stop-color="#fff"
       stop-opacity="0"
       id="stop35" />
  </linearGradient>
  <g
     id="g112">
    <path
       d="m 83.772,239.27611 h 119.71329 c 1.18742,0 2.14336,1.12849 2.14336,2.53025 v 100.56093 c 0,1.40175 -0.95594,2.53025 -2.14336,2.53025 H 83.772 c -1.187418,0 -2.143353,-1.1285 -2.143353,-2.53025 V 241.80636 c 0,-1.40176 0.955935,-2.53025 2.143353,-2.53025 z"
       transform="matrix(0.25,0,0,0.24616218,-19.907163,-57.400725)"
       id="path38"
       inkscape:connector-curvature="0"
       style="opacity:0.5;filter:url(#a)" />
    <path
       d="M 2.0185523,2.000005 H 29.981439 c 0.28728,0 1.018553,0.7730225 1.018553,1.1121575 V 26.387842 C 30.999992,26.726977 30.768719,27 30.481439,27 H 1.5185523 C 1.231274,27 0.99999925,26.726977 0.99999925,26.387842 V 3.1121625 c 0,-0.339135 0.73127475,-1.1121575 1.01855305,-1.1121575 z"
       id="path40"
       style="fill:url(#c);stroke-width:0.25"
       inkscape:connector-curvature="0" />
    <path
       d="M 2.015625,2.0000075 C 1.6570397,1.9387575 0.81177475,2.6085675 1,3.10938 V 26.390625 C 1,26.729763 1.2283465,27 1.515625,27 h 28.968749 c 0.287283,0 0.515625,-0.270237 0.515625,-0.609375 V 3.10938 C 31.078394,2.7179825 30.369582,1.934725 29.984374,2.0000075 Z M 1.8671875,2.91407 H 30.132812 c 0.272915,0 0.492188,0.256015 0.492188,0.57422 v 22.562492 c 0,0.318201 -0.219273,0.574218 -0.492188,0.574218 H 1.8671875 C 1.5942732,26.625 1.375,26.368983 1.375,26.050782 V 3.48829 c 0,-0.318205 0.2192732,-0.57422 0.4921875,-0.57422 z"
       id="path42"
       style="fill:url(#b);stroke-width:0.25"
       inkscape:connector-curvature="0" />
    <path
       d="M 1,11 H 30.999999 V 27 H 1 Z"
       id="path44"
       inkscape:connector-curvature="0"
       style="fill:#ffffff;stroke-width:0.25" />
    <rect
       y="13"
       x="8"
       height="1"
       width="20"
       id="rect86"
       style="opacity:1;fill:#cbcbcd;fill-opacity:1;stroke:none;stroke-width:0.91287088;stroke-miterlimit:4;stroke-dasharray:none;stroke-opacity:1" />
    <rect
       y="13"
       x="4"
       height="2"
       width="2"
       id="rect88"
       style="opacity:1;fill:#cbcbcd;fill-opacity:1;stroke:none;stroke-width:2;stroke-miterlimit:4;stroke-dasharray:none;stroke-opacity:1" />
    <rect
       style="opacity:1;fill:#cbcbcd;fill-opacity:1;stroke:none;stroke-width:0.91287088;stroke-miterlimit:4;stroke-dasharray:none;stroke-opacity:1"
       id="rect90"
       width="20"
       height="1"
       x="8"
       y="17" />
    <rect
       style="opacity:1;fill:#cbcbcd;fill-opacity:1;stroke:none;stroke-width:2;stroke-miterlimit:4;stroke-dasharray:none;stroke-opacity:1"
       id="rect92"
       width="2"
       height="2"
       x="4"
       y="17" />
    <rect
       y="21"
       x="8"
       height="1"
       width="20"
       id="rect94"
       style="opacity:1;fill:#cbcbcd;fill-opacity:1;stroke:none;stroke-width:0.91287088;stroke-miterlimit:4;stroke-dasharray:none;stroke-opacity:1" />
    <rect
       y="21"
       x="4"
       height="2"
       width="2"
       id="rect96"
       style="opacity:1;fill:#cbcbcd;fill-opacity:1;stroke:none;stroke-width:2;stroke-miterlimit:4;stroke-dasharray:none;stroke-opacity:1" />
  </g>
  <g
     transform="matrix(0.2609352,0,0,0.2609352,10.089726,11.161384)"
     id="g277">
    <path
       style="fill:url(#n)"
       inkscape:connector-curvature="0"
       d="m 6.4514143,0.0035867 c -1.2903997,0 -2.3978613,1.1513294 -2.3971907,2.3564583 v 69.075398 l 8.5909414,8.546185 h 68.915744 c 2.107085,0 2.397003,-0.245907 2.397003,-2.356274 V 2.360045 c 0,-1.2841622 -1.11157,-2.3564583 -2.397003,-2.3564583 z"
       id="path221" />
    <rect
       style="fill:url(#z)"
       height="37.706059"
       rx="0.90963399"
       ry="0.91436499"
       width="47.905937"
       x="19.96908"
       y="0.0022799999"
       id="rect223" />
    <rect
       style="opacity:0.61328101;fill:#cfdce7"
       height="37.332691"
       rx="0.96080899"
       ry="0.65489203"
       width="5.3332429"
       x="19.96908"
       y="0.0022799999"
       id="rect225" />
    <rect
       style="opacity:0.546875;fill:#cfdce7"
       height="37.332691"
       rx="0"
       ry="0.69169301"
       width="5.333241"
       x="62.635014"
       y="0.0022799999"
       id="rect227" />
    <path
       style="opacity:0.26953101;fill:url(#o);filter:url(#A)"
       inkscape:connector-curvature="0"
       d="m 100.309,4.9315278 c -0.10113,0 -0.18846,0.03692 -0.28125,0.0625 -0.10429,0.02875 -0.19158,0.06873 -0.28125,0.125 -0.08551,0.05367 -0.15037,0.1133 -0.21875,0.1875 -0.02858,0.03101 -0.06863,0.05969 -0.09375,0.09375 -0.0337,0.0406 -0.06548,0.08064 -0.09375,0.125 -0.09343,0.16901 -0.15625,0.35712 -0.15625,0.5625 V 57.462778 h 0.40625 V 6.0877778 c 0,-0.21142 0.0889,-0.39008 0.1875,-0.5625 h 11.90624 c 2.95345,0 4.375,0.33282 4.375,3.3125 v -0.59375 c 0,-2.60722 -1.31573,-3.17681 -3.375,-3.28125 H 100.559 c 0.0536,-0.00807 0.10032,-0.03125 0.15625,-0.03125 z m -93.218753,0.03125 c -1.625192,0.15371 -2.961966,0.77436 -3,2.875 0.121067,-2.05986 1.759484,-2.3125 4.34375,-2.3125 h 12 c 0.106588,0.1773 0.15625,0.37327 0.15625,0.59375 V 57.494028 h 0.40625 V 6.1190278 c 0,-0.22048 -0.04966,-0.41645 -0.15625,-0.59375 -0.04526,-0.07529 -0.09582,-0.15599 -0.15625,-0.21875 -0.09373,-0.10558 -0.218747,-0.19086 -0.34375,-0.25 -0.116339,-0.05505 -0.234438,-0.09375 -0.375,-0.09375 h -0.5 z m -3,2.875 c -0.00244,0.13474 -0.03125,0.25892 -0.03125,0.40625 v 0.59375 c 0,-0.37246 0.013955,-0.70573 0.03125,-1 z"
       transform="matrix(0.7134318,0,0,0.7083173,1.199826,-3.046065)"
       id="path229" />
    <path
       style="fill:url(#p)"
       inkscape:connector-curvature="0"
       d="m 80.698342,0.4285771 c 2.107085,0 2.693205,0.2357464 2.693205,2.3463011 V 75.930776 c 0,2.110368 -2.012983,3.762937 -4.120068,3.762937 h 0.512778 c 2.107085,0 3.812401,-1.652569 3.812401,-3.762937 V 2.7748782 c 0,-2.1105547 -0.278452,-2.3463011 -2.385537,-2.3463011 z"
       id="path231" />
    <path
       style="fill:url(#q);filter:url(#C)"
       inkscape:connector-curvature="0"
       clip-path="url(#B)"
       d="m 16.78125,130.4375 c -1.48295,0 -2.65625,1.20455 -2.65625,2.6875 v 42.03125 c 0,1.48295 1.173301,2.65625 2.65625,2.65625 H 16.9375 C 16.529729,177.36613 16.25,176.78074 16.25,176.125 v -39.96875 c 0,-1.39131 1.112011,-2.53125 2.5,-2.53125 h 65.59375 c 1.387992,0 2.5,1.13994 2.5,2.53125 V 176.125 c 2e-6,0.65574 -0.248479,1.24113 -0.65625,1.6875 h 0.125 c 1.48295,0 2.687502,-1.1733 2.6875,-2.65625 V 133.125 c 0,-1.48295 -1.204549,-2.6875 -2.6875,-2.6875 z"
       transform="matrix(0.7217891,0,0,0.6831868,8.751635,-38.388554)"
       id="path233" />
    <path
       style="fill-opacity:0.128319"
       inkscape:connector-curvature="0"
       d="M 21.849585,52.036632 C 20.825216,52.036632 20,52.817713 20,53.787298 l 0.01782,25.377821 h 51.968812 l -0.01782,-25.377821 c 0,-0.969585 -0.825215,-1.750666 -1.849585,-1.750666 z"
       id="path235" />
    <path
       style="opacity:0.07421899;fill:url(#D)"
       inkscape:connector-curvature="0"
       d="m 21.880771,52.079644 c -1.024368,0 -1.849584,0.78109 -1.849584,1.750667 V 79.233436 L 71.986633,79.15379 V 53.750665 C 71.986633,52.781086 71.16142,52 70.13705,52 Z"
       id="path237" />
    <path
       style="fill:url(#r);filter:url(#E)"
       inkscape:connector-curvature="0"
       d="M 52.9375,84 C 52.41795,84 52,84.417953 52,84.9375 V 108 H 40.9375 C 40.41795,108 40,108.41795 40,108.9375 v 6.125 C 40,115.58205 40.417949,116 40.9375,116 h 12 10.125 C 63.58205,116 64,115.58205 64,115.0625 v -6.125 -24 C 64,84.41795 63.582051,84 63.0625,84 Z"
       transform="matrix(0.7217891,0,0,0.6902605,-3.07943,-3.520608)"
       id="path239" />
    <path
       inkscape:connector-curvature="0"
       d="m 112.08125,97.375 v 6.71875 h -1.21875 -1.03125 l 4.34375,7.53125 4.34375,-7.53125 h -1.03125 -1.21875 V 97.375 H 114.175 Z"
       style="opacity:0.453125;fill:url(#s);fill-rule:evenodd;stroke:#ffffff;stroke-width:0.204613;filter:url(#F)"
       transform="matrix(0.4266354,0,0,0.5529039,29.37826,10.222563)"
       id="path241" />
    <path
       style="opacity:0.296875;fill:url(#t);filter:url(#G)"
       inkscape:connector-curvature="0"
       d="m 87.693916,81.905701 h 3.357863 v 37.852269 h -3.357863 z"
       transform="matrix(0.7217891,0,0,0.6902605,-3.07943,-3.520608)"
       id="path243" />
    <path
       style="fill:url(#u)"
       inkscape:connector-curvature="0"
       d="m 21.852589,52.25101 c -0.849726,0 -1.533802,0.654194 -1.533802,1.466803 l 0.127596,26.00698 h 43.991625 v -26.10478 c 0,-0.81261 -0.593851,-1.369003 -1.443578,-1.369003 z m 2.898726,3.911286 h 10.19527 c 0.375006,0 0.676676,0.288495 0.676676,0.64712 v 14.75578 c 0,0.358626 -0.301671,0.647121 -0.676676,0.647121 h -10.19527 c -0.375006,0 -0.676678,-0.288495 -0.676678,-0.647121 v -14.75578 c 0,-0.358624 0.301673,-0.64712 0.676678,-0.64712 z"
       id="path245" />
    <path
       style="fill:url(#v)"
       inkscape:connector-curvature="0"
       d="m -60.341511,53.345402 h 0.18253 v 26.141083 h -0.18253 z"
       transform="scale(-1,1)"
       id="path247" />
    <g
       style="opacity:0.78515601;stroke-linecap:round;stroke-linejoin:round;stroke-dashoffset:4.1500001"
       transform="matrix(0.7765389,0,0,0.9603239,-2.268297,-5.285829)"
       id="g255">
      <rect
         height="12"
         rx="1.079258"
         style="opacity:1;fill:none;stroke:#000000;stroke-width:1.26919794;filter:url(#I)"
         transform="matrix(0.6942102,0,0,0.6942102,4.892636,5.504216)"
         width="8"
         x="12"
         y="12"
         clip-path="url(#H)"
         id="rect249" />
      <rect
         height="12"
         rx="1.079258"
         style="opacity:1;fill:url(#J);stroke:url(#w);stroke-width:1.26919794;filter:url(#I)"
         transform="matrix(0.6942102,0,0,0.6942102,4.892636,5.504216)"
         width="8"
         x="12"
         y="12"
         clip-path="url(#K)"
         id="rect251" />
      <rect
         style="opacity:1;fill:url(#L);stroke:url(#x);stroke-width:0.42122999;filter:url(#M)"
         height="3.67592"
         rx="0.452268"
         width="4.3502288"
         x="13.897468"
         y="18.030909"
         id="rect253" />
    </g>
    <path
       style="opacity:0.546875;fill:url(#y)"
       inkscape:connector-curvature="0"
       d="M 20.378714,78.275253 H 60.43801 v 1.725651 H 20.378714 Z"
       id="path257" />
    <path
       style="fill:#343434;fill-opacity:0.82840199"
       inkscape:connector-curvature="0"
       d="M 6.4613852,0.0039191 C 4.9942755,0.0798427 4.053553,1.2117982 4.053553,3.0585371 v 0.4205623 c 0,-2.1105576 1.0141804,-3.054617 3.121264,-3.054617 26.055115,-0.4064623 54.428234,-0.1928614 74.375262,0 1.352675,0 2.407833,0.799205 2.407833,2.3462998 V 2.3502189 c 0,-1.0931946 -1.104749,-2.3462998 -2.407833,-2.3462998 H 7.174817 c -0.2633854,0 -0.5038448,-0.0108449 -0.7134318,0 z"
       id="path259" />
    <path
       inkscape:connector-curvature="0"
       d="M 8.2804401,1.9852146 C 7.0528869,1.9852146 5.9993621,3.0794906 6,4.2249002 V 70.327761 L 13.721239,78 H 79.73187 c 2.004463,0 2.280261,-0.233721 2.280261,-2.23951 V 4.2249002 c 0,-1.2205264 -1.057433,-2.2396856 -2.280261,-2.2396856 z"
       style="opacity:0.4;fill:none;stroke:#000000;stroke-width:4.12498713;stroke-linecap:round;stroke-linejoin:round;stroke-dashoffset:1.08780003"
       id="path261" />
    <path
       style="opacity:0.18719201"
       inkscape:connector-curvature="0"
       d="m 60,52 v 4 h 8 v 20 h 4 V 56 52 h -4 z"
       id="path263" />
    <g
       style="fill:#ffffff"
       id="g275">
      <path
         style="opacity:0.40394102"
         inkscape:connector-curvature="0"
         d="m 20,52 v 4 h 44 v -4 z"
         id="path265" />
      <path
         style="opacity:0.22660104;fill-rule:evenodd"
         inkscape:connector-curvature="0"
         d="M 8,4 V 8 H 80 V 4 Z"
         id="path267" />
      <path
         style="opacity:0.22167502"
         inkscape:connector-curvature="0"
         d="m 20,72 v 4 h 44 v -4 z"
         id="path269" />
      <path
         style="opacity:0.22167502"
         inkscape:connector-curvature="0"
         d="M 16,0 V 4 H 72 V 0 Z"
         id="path271" />
      <path
         style="opacity:0.02000002"
         inkscape:connector-curvature="0"
         d="M 16,0 V 4 H 72 V 0 Z"
         id="path273" />
    </g>
  </g>
</svg>
