<?xml version="1.0" encoding="UTF-8" standalone="no"?>
<svg
   xmlns:dc="http://purl.org/dc/elements/1.1/"
   xmlns:cc="http://creativecommons.org/ns#"
   xmlns:rdf="http://www.w3.org/1999/02/22-rdf-syntax-ns#"
   xmlns:svg="http://www.w3.org/2000/svg"
   xmlns="http://www.w3.org/2000/svg"
   xmlns:xlink="http://www.w3.org/1999/xlink"
   xmlns:sodipodi="http://sodipodi.sourceforge.net/DTD/sodipodi-0.dtd"
   xmlns:inkscape="http://www.inkscape.org/namespaces/inkscape"
   height="32"
   width="32"
   version="1.1"
   id="svg286"
   sodipodi:docname="exporttopdf.svg"
   inkscape:version="0.92.4 (unknown)"
   inkscape:export-filename="/home/rizmut/Dokumen/Rizmut/Github/libreoffice-style-karasa-jaga/build/next/cmd/32/exporttopdf.png"
   inkscape:export-xdpi="96"
   inkscape:export-ydpi="96">
  <metadata
     id="metadata292">
    <rdf:RDF>
      <cc:Work
         rdf:about="">
        <dc:format>image/svg+xml</dc:format>
        <dc:type
           rdf:resource="http://purl.org/dc/dcmitype/StillImage" />
        <dc:title></dc:title>
      </cc:Work>
    </rdf:RDF>
  </metadata>
  <defs
     id="defs290">
    <filter
       inkscape:collect="always"
       style="color-interpolation-filters:sRGB"
       id="filter959"
       x="-0.019440237"
       width="1.0388805"
       y="-0.01675193"
       height="1.0335039">
      <feGaussianBlur
         inkscape:collect="always"
         stdDeviation="0.80871388"
         id="feGaussianBlur961" />
    </filter>
  </defs>
  <sodipodi:namedview
     pagecolor="#ffffff"
     bordercolor="#666666"
     borderopacity="1"
     objecttolerance="10"
     gridtolerance="10"
     guidetolerance="10"
     inkscape:pageopacity="0"
     inkscape:pageshadow="2"
     inkscape:window-width="1366"
     inkscape:window-height="706"
     id="namedview288"
     showgrid="true"
     inkscape:zoom="20.85965"
     inkscape:cx="31.155837"
     inkscape:cy="27.297118"
     inkscape:window-x="0"
     inkscape:window-y="0"
     inkscape:window-maximized="1"
     inkscape:current-layer="g4889"
     showguides="false"
     inkscape:guide-bbox="true">
    <inkscape:grid
       type="xygrid"
       id="grid1099"
       spacingx="0.5"
       spacingy="0.5"
       empspacing="2" />
    <sodipodi:guide
       position="-32,172"
       orientation="0,1"
       id="guide949"
       inkscape:locked="false" />
  </sodipodi:namedview>
  <linearGradient
     id="a"
     gradientUnits="userSpaceOnUse"
     x1="88.591797"
     x2="71.262016"
     y1="96.592697"
     y2="79.262917">
    <stop
       offset="0"
       stop-color="#fff"
       id="stop2" />
    <stop
       offset="1"
       stop-color="#555753"
       id="stop4" />
  </linearGradient>
  <filter
     id="b"
     style="color-interpolation-filters:sRGB">
    <feGaussianBlur
       stdDeviation=".40750996"
       id="feGaussianBlur7" />
  </filter>
  <filter
     id="c"
     style="color-interpolation-filters:sRGB">
    <feGaussianBlur
       stdDeviation=".90565481"
       id="feGaussianBlur10" />
  </filter>
  <linearGradient
     id="d"
     gradientUnits="userSpaceOnUse"
     x1="85.219681"
     x2="61.336319"
     y1="93.219681"
     y2="69.336319">
    <stop
       offset="0"
       id="stop13" />
    <stop
       offset="1"
       stop-color="#393b38"
       id="stop15" />
  </linearGradient>
  <filter
     id="e"
     style="color-interpolation-filters:sRGB">
    <feGaussianBlur
       stdDeviation=".4901192"
       id="feGaussianBlur18" />
  </filter>
  <linearGradient
     id="f"
     gradientUnits="userSpaceOnUse"
     x1="96"
     x2="88.000198"
     y1="104"
     y2="96.000198">
    <stop
       offset="0"
       stop-color="#888a85"
       id="stop21" />
    <stop
       offset=".0072"
       stop-color="#8c8e89"
       id="stop23" />
    <stop
       offset=".0673"
       stop-color="#abaca9"
       id="stop25" />
    <stop
       offset=".1347"
       stop-color="#c5c6c4"
       id="stop27" />
    <stop
       offset=".2115"
       stop-color="#dbdbda"
       id="stop29" />
    <stop
       offset=".3012"
       stop-color="#ebebeb"
       id="stop31" />
    <stop
       offset=".4122"
       stop-color="#f7f7f6"
       id="stop33" />
    <stop
       offset=".5679"
       stop-color="#fdfdfd"
       id="stop35" />
    <stop
       offset="1"
       stop-color="#fff"
       id="stop37" />
  </linearGradient>
  <linearGradient
     id="g"
     gradientUnits="userSpaceOnUse"
     x1="120.92"
     x2="120.92"
     y1="65.000099"
     y2="10.931036">
    <stop
       offset="0"
       id="stop40" />
    <stop
       offset=".1"
       stop-color="#233b00"
       id="stop42" />
    <stop
       offset="1"
       id="stop44" />
  </linearGradient>
  <filter
     id="h"
     style="color-interpolation-filters:sRGB">
    <feGaussianBlur
       stdDeviation="1.0394514"
       id="feGaussianBlur47" />
  </filter>
  <filter
     id="i"
     style="color-interpolation-filters:sRGB">
    <feGaussianBlur
       stdDeviation=".50063244"
       id="feGaussianBlur50" />
  </filter>
  <linearGradient
     id="j"
     gradientUnits="userSpaceOnUse"
     x1="120.92"
     x2="120.92"
     y1="65.000099"
     y2="7.0689669">
    <stop
       offset="0"
       id="stop53" />
    <stop
       offset=".06845312"
       stop-color="#233b00"
       id="stop55" />
    <stop
       offset="1"
       id="stop57" />
  </linearGradient>
  <linearGradient
     id="k"
     gradientTransform="matrix(0.96338458,0,0,1.1424298,-6.289952,-14.21399)"
     gradientUnits="userSpaceOnUse"
     x1="62.41972"
     x2="68.232185"
     y1="98.139114"
     y2="98.139114">
    <stop
       offset="0"
       stop-color="#00f"
       id="stop60" />
    <stop
       offset="1"
       stop-color="#00f"
       stop-opacity="0"
       id="stop62" />
  </linearGradient>
  <linearGradient
     id="l">
    <stop
       offset="0"
       id="stop65" />
    <stop
       offset="1"
       stop-opacity="0"
       id="stop67" />
  </linearGradient>
  <filter
     id="m"
     style="color-interpolation-filters:sRGB">
    <feGaussianBlur
       stdDeviation="1.2466526"
       id="feGaussianBlur70" />
  </filter>
  <linearGradient
     id="n">
    <stop
       offset="0"
       stop-color="#818181"
       id="stop73" />
    <stop
       offset=".16666667"
       stop-color="#fff"
       id="stop75" />
    <stop
       offset=".30087379"
       stop-color="#fafafa"
       id="stop77" />
    <stop
       offset=".41666666"
       stop-color="#d7d7d7"
       id="stop79" />
    <stop
       offset=".44844013"
       id="stop81" />
    <stop
       offset=".59375"
       stop-color="#d5d5d5"
       id="stop83" />
    <stop
       offset=".703125"
       stop-color="#c8c8c8"
       id="stop85" />
    <stop
       offset=".7578125"
       stop-color="#333"
       id="stop87" />
    <stop
       offset=".94971472"
       stop-color="#c1c1c1"
       id="stop89" />
    <stop
       offset="1"
       stop-color="#343434"
       id="stop91" />
  </linearGradient>
  <clipPath
     id="o">
    <path
       d="m 2293.5055,-1105.5521 c -1.4712,14.3773 2.3108,28.8372 9.7339,39.8676 h 4.5462 c 7.4231,-11.0304 11.2051,-25.4903 9.7339,-39.8676 -5.89,-4.6401 -18.318,-4.887 -24.014,0 z"
       id="path94"
       inkscape:connector-curvature="0" />
  </clipPath>
  <filter
     id="p"
     height="1.099961"
     width="1.251677"
     x="-0.125838"
     y="-0.04998"
     style="color-interpolation-filters:sRGB">
    <feGaussianBlur
       stdDeviation=".98477853"
       id="feGaussianBlur97" />
  </filter>
  <filter
     id="q"
     style="color-interpolation-filters:sRGB">
    <feGaussianBlur
       stdDeviation=".45592848"
       id="feGaussianBlur100" />
  </filter>
  <clipPath
     id="r">
    <path
       d="m 2324.2623,-1105.5521 c -1.4712,14.3773 2.3108,28.8372 9.7339,39.8676 h 4.5462 c 7.4231,-11.0304 11.2051,-25.4903 9.7339,-39.8676 -5.89,-4.6401 -18.318,-4.887 -24.014,0 z"
       id="path103"
       inkscape:connector-curvature="0" />
  </clipPath>
  <filter
     id="s"
     height="1.051712"
     width="1.23169"
     x="-0.115845"
     y="-0.025855999"
     style="color-interpolation-filters:sRGB">
    <feGaussianBlur
       stdDeviation=".56878871"
       id="feGaussianBlur106" />
  </filter>
  <clipPath
     id="t">
    <path
       d="m 2410.6562,-1125.5312 -0.125,20.4062 h 0.125 v -0.1875 c 2.1955,-2.1403 6.6911,-3.5937 11.875,-3.5937 5.1841,0 9.6796,1.4533 11.875,3.5937 v 0.1875 h 0.125 l -0.125,-20.4062 z"
       id="path109"
       inkscape:connector-curvature="0" />
  </clipPath>
  <filter
     id="u"
     height="1.739168"
     width="1.157863"
     x="-0.078930996"
     y="-0.36958399"
     style="color-interpolation-filters:sRGB">
    <feGaussianBlur
       stdDeviation=".81808943"
       id="feGaussianBlur112" />
  </filter>
  <filter
     id="v"
     style="color-interpolation-filters:sRGB">
    <feGaussianBlur
       stdDeviation=".068662208"
       id="feGaussianBlur115" />
  </filter>
  <filter
     id="w"
     style="color-interpolation-filters:sRGB">
    <feGaussianBlur
       stdDeviation=".62795755"
       id="feGaussianBlur118" />
  </filter>
  <clipPath
     id="x">
    <path
       d="m 2280.8997,-1313.6542 c 0,-7.6699 16.7006,-8.0051 16.7006,0 l 0.7591,26.4365 h -18.2188 z"
       id="path121"
       inkscape:connector-curvature="0" />
  </clipPath>
  <filter
     id="y"
     style="color-interpolation-filters:sRGB">
    <feGaussianBlur
       stdDeviation=".36237121"
       id="feGaussianBlur124" />
  </filter>
  <linearGradient
     id="z">
    <stop
       offset="0"
       stop-color="#fff"
       id="stop127" />
    <stop
       offset="1"
       stop-color="#fff"
       stop-opacity="0"
       id="stop129" />
  </linearGradient>
  <filter
     id="A"
     style="color-interpolation-filters:sRGB">
    <feGaussianBlur
       stdDeviation=".15038113"
       id="feGaussianBlur132" />
  </filter>
  <filter
     id="B"
     height="1.042192"
     width="1.519834"
     x="-0.25991699"
     y="-0.021096"
     style="color-interpolation-filters:sRGB">
    <feGaussianBlur
       stdDeviation=".27727194"
       id="feGaussianBlur135" />
  </filter>
  <filter
     id="C"
     height="1.62263"
     width="1.709918"
     x="-0.35495901"
     y="-0.311315"
     style="color-interpolation-filters:sRGB">
    <feGaussianBlur
       stdDeviation=".22675612"
       id="feGaussianBlur138" />
  </filter>
  <linearGradient
     id="D"
     gradientUnits="userSpaceOnUse"
     x1="281.56894"
     x2="336.65863"
     xlink:href="#l"
     y1="-42.731258"
     y2="-74.537315" />
  <radialGradient
     id="E"
     cx="2435.4526"
     cy="-1290.9012"
     fx="2435.4968"
     fy="-1289.6638"
     gradientUnits="userSpaceOnUse"
     r="2.032932">
    <stop
       offset="0"
       stop-color="#fff"
       id="stop142" />
    <stop
       offset=".78260869"
       id="stop144" />
    <stop
       offset="1"
       id="stop146" />
  </radialGradient>
  <radialGradient
     id="F"
     cx="2435.4526"
     cy="-1290.9012"
     fx="2435.3201"
     fy="-1292.1829"
     gradientUnits="userSpaceOnUse"
     r="2.032932">
    <stop
       offset="0"
       stop-color="#fff"
       stop-opacity="0"
       id="stop149" />
    <stop
       offset=".71739131"
       stop-color="#fff"
       id="stop151" />
    <stop
       offset="1"
       stop-color="#fff"
       stop-opacity="0"
       id="stop153" />
  </radialGradient>
  <linearGradient
     id="G"
     gradientTransform="matrix(0.30520528,0.1985641,-0.18765191,0.28843258,-570.9762,-187.93906)"
     gradientUnits="userSpaceOnUse"
     x1="2205.9375"
     x2="2229.125"
     xlink:href="#n"
     y1="-1222.1377"
     y2="-1222.1377" />
  <linearGradient
     id="H"
     gradientTransform="matrix(0.40205276,0.26157229,-0.2281823,0.35073029,-850.03812,-249.93185)"
     gradientUnits="userSpaceOnUse"
     x1="2243.146"
     x2="2242.3975"
     y1="-1322.632"
     y2="-1315.5718">
    <stop
       offset="0"
       stop-color="#181818"
       id="stop157" />
    <stop
       offset="1"
       stop-color="#181818"
       stop-opacity="0"
       id="stop159" />
  </linearGradient>
  <linearGradient
     id="I"
     gradientTransform="matrix(0.40205276,0.26157229,-0.2281823,0.35073029,-849.94399,-249.80443)"
     gradientUnits="userSpaceOnUse"
     x1="2237.4534"
     x2="2242.2593"
     y1="-1316.2021"
     y2="-1318.9421">
    <stop
       offset="0"
       stop-color="#fdfdfd"
       id="stop162" />
    <stop
       offset="1"
       stop-color="#fdfdfd"
       stop-opacity="0"
       id="stop164" />
  </linearGradient>
  <linearGradient
     id="J"
     gradientTransform="matrix(0.42256193,0.27491539,-0.297825,0.45777541,-981.0667,-126.91135)"
     gradientUnits="userSpaceOnUse"
     x1="2205.9375"
     x2="2247.4382"
     xlink:href="#n"
     y1="-1222.1377"
     y2="-1222.2168" />
  <radialGradient
     id="K"
     cx="2227.7837"
     cy="-1254.6573"
     gradientTransform="matrix(0.42256193,0.27491539,-1.8905372,2.9058725,-2984.6915,2930.5977)"
     gradientUnits="userSpaceOnUse"
     r="4.7629328">
    <stop
       offset="0"
       stop-color="#5b5b5b"
       id="stop168" />
    <stop
       offset="1"
       stop-color="#202020"
       id="stop170" />
  </radialGradient>
  <linearGradient
     id="L"
     gradientUnits="userSpaceOnUse"
     x1="2227.0715"
     x2="2231.7791"
     xlink:href="#z"
     y1="-1248.1597"
     y2="-1248.9692" />
  <linearGradient
     id="M"
     gradientUnits="userSpaceOnUse"
     x1="2229.0273"
     x2="2231.1499"
     xlink:href="#z"
     y1="-1270.7157"
     y2="-1270.7157" />
  <linearGradient
     id="N"
     gradientTransform="matrix(0.04455011,0.02898394,0.00967158,-0.01486581,210.56658,-120.53934)"
     gradientUnits="userSpaceOnUse"
     x1="2205.9375"
     x2="2229.125"
     xlink:href="#n"
     y1="-1222.1377"
     y2="-1222.1377" />
  <linearGradient
     id="O"
     gradientTransform="matrix(0.62890839,0.40916273,-0.40916273,0.62890839,-1547.8697,-285.68841)"
     gradientUnits="userSpaceOnUse"
     x1="2242.4668"
     x2="2242.4668"
     xlink:href="#l"
     y1="-1066.5438"
     y2="-1065.2577" />
  <linearGradient
     id="P"
     gradientUnits="userSpaceOnUse"
     x1="32"
     x2="165.92857"
     y1="944.36218"
     y2="1062.1765"
     gradientTransform="translate(0,-924.36218)">
    <stop
       offset="0"
       stop-color="#9c0f0f"
       id="stop177" />
    <stop
       offset=".5"
       stop-color="#e81919"
       id="stop179" />
    <stop
       offset="1"
       stop-color="#cd1313"
       id="stop181" />
  </linearGradient>
  <g
     id="g1221"
     transform="translate(7.9999953,-96)">
    <g
       id="g4889"
       transform="matrix(0.25,0,0,0.25,-5.9999965,95.999999)">
      <path
         sodipodi:nodetypes="ccsssscc"
         inkscape:connector-curvature="0"
         style="opacity:0.05100002;fill:url(#j);filter:url(#h)"
         id="path184"
         transform="matrix(1.0416667,0,0,1.0357143,-17.958333,-3.32143)"
         d="M 21.080004,7.0689668 21.185908,122.93103 h 62.986096 c 0.53,0 1.03871,-0.21129 1.414,-0.586 L 120.39908,87.586 c 0.37529,-0.374707 0.58644,-0.884 0.586,-1.414 L 120.92,7.0689668 Z" />
      <path
         sodipodi:nodetypes="ccsssscc"
         inkscape:connector-curvature="0"
         style="opacity:0.42900002;fill:url(#g);filter:url(#filter959)"
         id="path188"
         transform="matrix(1.0416667,0,0,1.0357143,-17.958333,-3.32143)"
         d="M 21.080004,7.0689668 V 122.93103 H 84.26925 c 0.53,0 1.029283,-0.22109 1.414,-0.586 l 34.60993,-32.827996 c 0.38472,-0.364908 0.58574,-0.884 0.586,-1.414 L 120.92,7.0689668 Z" />
      <path
         style="opacity:0.89589;filter:url(#i)"
         inkscape:connector-curvature="0"
         id="path186"
         transform="matrix(1.0416667,0,0,1.0357143,-17.958333,-3.32143)"
         d="M 24.919999,10.931136 V 119.06907 l 58.676001,-1e-4 c 0.53,0 1.039,-0.211 1.414,-0.586 l 31.484,-31.765936 c 0.375,-0.375 0.586,-0.884 0.586,-1.414 V 10.931136 Z" />
      <path
         style="fill:#ad4343;fill-opacity:0.95686298"
         inkscape:connector-curvature="0"
         id="path190"
         d="m 8.000002,8.0001 v 112.00002 h 61.172 c 0.53,0 1.039,-0.211 1.414,-0.586 L 103.414,86.58612 c 0.375,-0.375 0.586,-0.884 0.586,-1.414 V 8.0001 Z" />
      <path
         inkscape:connector-curvature="0"
         style="fill:url(#P)"
         id="path192"
         d="m 11.678725,11.4001 c -0.539276,0 -0.978723,0.44084 -0.978723,0.98182 l -0.7,104.6364 c 0,0.542 0.439447,0.9818 0.978723,0.9818 h 57.913022 c 0.257404,0 0.509915,-0.104 0.691957,-0.2876 L 101.71323,85.48132 C 101.89626,85.29772 102,85.04542 102,84.78722 v -72.6053 c 0,-0.54098 -0.43847,-0.98182 -0.97872,-0.98182 z" />
      <path
         style="fill:#b14646;stroke-width:1.56229305"
         inkscape:connector-curvature="0"
         id="path194"
         d="M 53.544922,8 C 54.507949,13.52643 56.900755,20.264656 60,28 l -0.65625,2.417969 c -1.659238,6.1233 -3.917382,12.299414 -5.898438,17.777343 C 45.263911,70.771592 38.268716,83.275097 32.75,84.779297 l -0.05273,-0.228516 c -0.452683,-2.6316 3.576685,-10.068765 9.513672,-16.322265 0.619647,-0.6458 3.203125,-3.865235 3.203124,-3.865235 0,0 -3.71062,2.600553 -4.535156,3.251953 -7.668875,5.9907 -11.174921,11.467504 -11.435547,14.845704 -0.07687,1.0036 0.205366,2.189871 1.128907,2.576171 l 2.255859,0.802735 c 6.129766,2.17 12.268774,-6.317712 19.632813,-24.044922 9.203659,-4.3511 20.805755,-8.81677 31.507812,-11.78711 7.056993,2.944305 14.59394,4.469164 20.031246,4.634766 V 51.550781 C 100.18668,51.131298 95.406391,50.049398 90.455078,48.347656 95.751068,47.104958 100.44078,46.341804 104,46.220703 v -2.804687 c -1.29015,0.02112 -2.69418,0.110785 -4.220703,0.28125 -4.054052,0.46085 -8.861441,1.422887 -14.037109,2.835937 -2.586869,-1.08701 -5.328026,-2.291194 -7.582032,-3.927734 -5.718687,-4.1468 -10.841312,-10.260187 -14.435547,-17.378907 0.093,-0.73622 0.181732,-1.454887 0.251953,-2.179687 0.324061,-3.42758 -0.523437,-14.515625 -0.523437,-14.515625 0,0 -1.07016,8.543534 -1.246094,9.833984 -0.11317,0.81937 -0.275975,1.698748 -0.470703,2.617188 C 59.780713,16.371365 58.411288,11.819367 57.710938,8 Z m 8.896484,24.03125 c 3.524377,5.31905 8.085606,10.222467 13.720703,13.904297 1.256887,0.82051 2.577057,1.580476 3.927735,2.285156 -9.039409,2.87934 -18.456558,6.518127 -27.015625,11.435547 1.269552,-3.1087 2.64176,-6.492369 4.02539,-10.130859 2.673077,-7.06903 4.157661,-12.453681 5.341797,-17.494141 z" />
      <g
         id="g204"
         transform="translate(-7.999998,1e-4)">
        <path
           inkscape:connector-curvature="0"
           style="opacity:0.1;fill:url(#a);filter:url(#b)"
           id="path196"
           d="M 111.414,86.586 C 111.664,86.336 85.035,85 80,85 c -1.654,0 -3,1.346 -3,3 0,5.035 1.336,31.664 1.586,31.414 z" />
        <path
           style="opacity:0.2;filter:url(#c)"
           inkscape:connector-curvature="0"
           id="path198"
           d="M 111.414,86.586 C 111.789,86.211 89.444,86 80,86 c -1.103,0 -2,0.897 -2,2 0,9.444 0.211,31.789 0.586,31.414 z" />
        <path
           inkscape:connector-curvature="0"
           style="opacity:0.1;fill:url(#d);filter:url(#e)"
           id="path200"
           d="M 111.414,86.586 C 111.653,86.347 89.807,87 80,87 c -0.553,0 -1,0.447 -1,1 0,9.807 -0.653,31.653 -0.414,31.414 z" />
        <path
           inkscape:connector-curvature="0"
           style="fill:url(#f)"
           id="path202"
           d="m 78.586,119.414 c 0,0 11.914,-9.914 17.414,-15.414 5.5,-5.5 15.414,-17.414 15.414,-17.414 0,0 -21.164,1.414 -31.414,1.414 0,10.25 -1.414,31.414 -1.414,31.414 z" />
      </g>
      <g
         style="fill:#313131"
         id="g212"
         transform="translate(0,-924.36218)" />
      <path
         style="fill:#f6dcdc;stroke-width:1.56229305"
         inkscape:connector-curvature="0"
         id="path216"
         d="m 87.731282,63.31817 c -4.054052,0.46085 -8.861581,1.42315 -14.03725,2.8362 -2.586869,-1.08701 -5.326549,-2.29092 -7.580555,-3.92746 -5.718687,-4.1468 -10.842452,-10.2598 -14.436687,-17.37852 0.093,-0.73622 0.181473,-1.45504 0.251694,-2.17984 0.32406,-3.42758 -0.522804,-14.51649 -0.522804,-14.51649 0,0 -1.070115,8.54379 -1.246049,9.83424 -0.11317,0.81937 -0.275836,1.69878 -0.470564,2.61722 -2.326089,-5.48458 -3.837663,-10.89818 -4.360016,-15.07741 -0.147846,-1.18289 -0.333732,-3.49043 -0.226087,-5.35024 3.73e-4,-1.31674 0.388937,-2.04992 0.835473,-2.43648 0.992821,0.11414 2.253657,1.45797 3.688934,3.79237 1.23431,2.0182 1.483917,4.50443 1.675682,6.0387 0,0 0.561739,-3.92848 0.04163,-6.14332 -0.313951,-1.32965 -2.029578,-4.63581 -4.746201,-4.25398 l -0.221672,0.0277 -1.21406,0.1336 c -1.988459,0.24853 -3.726422,1.45668 -3.974851,3.11997 -0.900166,6.37488 2.160969,15.67673 6.764572,27.16677 l -0.656605,2.4179 c -1.659238,6.1233 -3.916323,12.2987 -5.897378,17.77663 -8.181401,22.57629 -15.177506,35.07989 -20.696222,36.58409 l -0.0529,-0.2279 c -0.452683,-2.6316 3.576193,-10.0694 9.51318,-16.3229 0.619647,-0.6458 3.204934,-3.8639 3.204934,-3.8639 0,0 -3.710707,2.6005 -4.535243,3.2519 -7.668875,5.9907 -11.174809,11.4678 -11.435435,14.846 -0.07687,1.0036 0.204909,2.1886 1.12845,2.5749 l 2.254427,0.8022 c 6.129766,2.17 12.270472,-6.3167 19.634511,-24.0439 9.203659,-4.3511 20.80568,-8.81652 31.507737,-11.78686 10.456285,4.36255 21.98302,5.62089 26.139355,3.93509 0.791286,-0.3187 1.573888,-1.06865 1.938728,-1.7165 0.2767,-0.58866 0.48351,-2.8321 0.48351,-2.8321 0,0 -0.668627,1.20836 -1.293681,1.61629 -2.56255,1.62728 -11.422469,0.55421 -20.782161,-2.66267 7.523412,-1.76536 13.874555,-2.59396 17.405022,-1.93186 4.483,0.83858 4.65986,2.25363 4.63878,2.54865 0.0274,-0.24463 0.10519,-1.21697 0.0314,-1.61663 -0.2282,-1.02352 -0.660036,-1.90761 -1.53801,-2.57549 -1.793508,-1.37382 -5.834108,-1.67666 -11.213525,-1.07595 z M 41.025759,79.27762 c 1.269552,-3.1087 2.642636,-6.49301 4.026266,-10.1315 2.673077,-7.06903 4.157784,-12.45371 5.34192,-17.49417 3.524377,5.31905 8.08461,10.22268 13.719707,13.90451 1.256887,0.82051 2.578438,1.58007 3.929116,2.28475 -9.039409,2.87934 -18.457942,6.51899 -27.017009,11.43641 z" />
    </g>
  </g>
</svg>
