<svg height="128" viewBox="0 0 128 128" width="128" xmlns="http://www.w3.org/2000/svg" xmlns:xlink="http://www.w3.org/1999/xlink"><linearGradient id="a"><stop offset="0" stop-color="#fff"/><stop offset=".33333331" stop-color="#fff"/><stop offset=".78125" stop-color="#f1f1f1"/><stop offset=".9375" stop-color="#eaeaea"/><stop offset="1" stop-color="#dfdfdf"/></linearGradient><linearGradient id="b" gradientTransform="matrix(.7213209 .7213209 -.7213209 .7213209 -1.286513 -2.762164)" gradientUnits="userSpaceOnUse" x1=".033456" x2="89.249718" xlink:href="#a" y1="-84.930824" y2="3.30514"/><linearGradient id="c" gradientTransform="matrix(.7213209 .7213209 -.7213209 .7213209 -1.286513 -2.762164)" gradientUnits="userSpaceOnUse" x1="181.44165" x2="25.577682" y1="68.5" y2="-82.5"><stop offset="0" stop-color="#7c9fcf"/><stop offset=".5" stop-color="#7c9ece"/><stop offset="1" stop-color="#7b9dcf"/></linearGradient><linearGradient id="d" gradientTransform="matrix(.7213209 .7213209 -.7213209 .7213209 -1.286513 -2.762164)" gradientUnits="userSpaceOnUse" x1="91.532257" x2="4.151875" xlink:href="#a" y1="6.567978" y2="-83.50386"/><g transform="matrix(1 0 0 -1 0 63.999588)"><path d="m63.941406 0a4.0004 4.0004 0 0 0 -2.769531 1.171875l-56 56a4.0004 4.0004 0 0 0 2.828125 6.828125h112a4.0004 4.0004 0 0 0 2.82812-6.828125l-55.999995-56a4.0004 4.0004 0 0 0 -2.886719-1.171875z" fill="url(#c)"/><path d="m64.000004 3.9999952-56.000004 56.0000048h112z" fill="url(#b)"/></g><g transform="translate(0 60.000412)"><path d="m63.941406 0a4.0004 4.0004 0 0 0 -2.769531 1.171875l-56 56a4.0004 4.0004 0 0 0 2.828125 6.828125h112a4.0004 4.0004 0 0 0 2.82812-6.828125l-55.999995-56a4.0004 4.0004 0 0 0 -2.886719-1.171875z" fill="url(#c)"/><path d="m64.000004 3.9999952-56.000004 56.0000048h112z" fill="url(#d)"/></g></svg>