<svg height="128" viewBox="0 0 128 128" width="128" xmlns="http://www.w3.org/2000/svg" xmlns:xlink="http://www.w3.org/1999/xlink"><linearGradient id="a" gradientUnits="userSpaceOnUse" x1="56" x2="56" y1="128" y2="0"><stop offset="0" stop-color="#fff"/><stop offset=".46428573" stop-color="#fff"/><stop offset=".78125" stop-color="#f1f1f1"/><stop offset=".90625" stop-color="#eaeaea"/><stop offset="1" stop-color="#dfdfdf"/></linearGradient><linearGradient id="b" gradientUnits="userSpaceOnUse" x1="56" x2="56" y1="128" y2="0"><stop offset="0" stop-color="#7c9fcf"/><stop offset=".5" stop-color="#7c9ece"/><stop offset="1" stop-color="#7b9dcf"/></linearGradient><path d="m8.0507812 8.7539062a4.0129721 4.0129721 0 0 0 -4.0625 4.0117188v102.468755a4.0129721 4.0129721 0 0 0 5.2460938 3.81835l112.000005-36.210933a4.0129721 4.0129721 0 0 0 2.77734-3.818359v-30.046876a4.0129721 4.0129721 0 0 0 -2.77734-3.818359l-112.000005-36.2109374a4.0129721 4.0129721 0 0 0 -1.1835938-.1933594z" fill="url(#b)"/><path d="m7.9999925 12.764799 112.0000075 36.212475v30.045459l-112.0000075 36.212467z" fill="url(#a)"/></svg>