<svg height="32" viewBox="0 0 31.999999 31.999999" width="32" xmlns="http://www.w3.org/2000/svg" xmlns:xlink="http://www.w3.org/1999/xlink"><linearGradient id="a" gradientUnits="userSpaceOnUse" x1="121.87097" x2="121.87097" y1="-34.455017" y2="101.92964"><stop offset="0" stop-color="#fff"/><stop offset="1" stop-color="#555"/></linearGradient><linearGradient id="b" gradientTransform="matrix(1.0384874 0 0 .91306627 4.332511 8.824573)" gradientUnits="userSpaceOnUse" x1="46.048" x2="46.048" y1="128.01709" y2="16.6203"><stop offset="0" stop-color="#c7cdd7"/><stop offset="1" stop-color="#fff"/></linearGradient><linearGradient id="c" gradientUnits="userSpaceOnUse" x1="56" x2="60" y1="27.741945" y2="11.741946"><stop offset="0" stop-color="#1f620a"/><stop offset="1" stop-color="#3d9c10" stop-opacity=".94902"/></linearGradient><g transform="matrix(.25 0 0 .25 0 .064514)"><g transform="translate(-1.870975 5.870972)"><path d="m9.870972 25.870972h107.999998v75.999998h-107.999998z" fill="url(#b)"/><path d="m5.8709716 21.870974v4 16 4 16 4 16 4 15.999996 4h4 20.0000004 4 28 4 28 4 19.999998 4v-4-15.999996-4-16-4-16-4-16-4h-4-19.999998-4-28-4-28-4-20.0000004zm4 4h20.0000004v16h-20.0000004zm24.0000004 0h28v16h-28zm32 0h28v16h-28zm32 0h19.999998v16h-19.999998zm-88.0000004 20h20.0000004v16h-20.0000004zm24.0000004 0h28v16h-28zm32 0h28v16h-28zm32 0h19.999998v16h-19.999998zm-88.0000004 20h20.0000004v16h-20.0000004zm24.0000004 0h28v16h-28zm32 0h28v16h-28zm32 0h19.999998v16h-19.999998zm-88.0000004 20h20.0000004v15.999996h-20.0000004zm24.0000004 0h28v15.999996h-28zm32 0h28v15.999996h-28zm32 0h19.999998v15.999996h-19.999998z" fill="url(#a)"/></g><path d="m4.765625 11.742188c-.268152.263043-.5270435.535245-.765625.826171v15.173829 4 16 4 16 4 16 4 16.000002 4h4 20 4 11.1875c10.042783-30.977254 22.441891-68.455844 32.8125-99.644534v-.355468z" fill="#525252" opacity=".57"/><path d="m4 11.741946h116v16h-116z" fill="url(#c)"/><path d="m75.80571-22.517h4v120h-4z" fill="#7e7f80" fill-opacity=".496324" transform="matrix(.95080754 .30978221 -.30978221 .95080754 0 0)"/></g></svg>