<svg height="32" viewBox="0 0 8.4666665 8.466667" width="32" xmlns="http://www.w3.org/2000/svg" xmlns:xlink="http://www.w3.org/1999/xlink"><filter id="a" color-interpolation-filters="sRGB" height="1.181595" width="1.156657" x="-.078329" y="-.090798"><feGaussianBlur stdDeviation="1.0075893"/></filter><filter id="b" color-interpolation-filters="sRGB" height="1.06144" width="1.079914" x="-.039957" y="-.03072"><feGaussianBlur stdDeviation=".2678767"/></filter><radialGradient id="c" cx="50.269897" cy="47.169552" gradientUnits="userSpaceOnUse" r="15.723184"><stop offset="0" stop-color="#fff8de"/><stop offset="1" stop-color="#ff0"/></radialGradient><filter id="d"><feGaussianBlur stdDeviation="2.0786429"/></filter><radialGradient id="e" cx="96.675285" cy="93.389153" gradientTransform="matrix(1.9592408 0 0 .7057335 -92.63189 3.684153)" gradientUnits="userSpaceOnUse" r="63.998783"><stop offset="0" stop-color="#ff7e00"/><stop offset="1" stop-color="#ffd500"/></radialGradient><linearGradient id="f" gradientTransform="matrix(.4103611 0 0 .4330773 11.197909 27.054412)" gradientUnits="userSpaceOnUse" x1="190.0625" x2="193" y1="187.73239" y2="122.8568"><stop offset="0" stop-color="#323232"/><stop offset="1" stop-color="#101010"/></linearGradient><filter id="g"><feGaussianBlur stdDeviation=".61145714"/></filter><filter id="h" height="1.333333" width="1.333333" x="-.166667" y="-.166667"><feGaussianBlur stdDeviation="2.1837755"/></filter><filter id="i" height="1.546667" width="1.546667" x="-.273333" y="-.273333"><feGaussianBlur stdDeviation="3.5813918"/></filter><filter id="j" height="1.48" width="1.48" x="-.24" y="-.24"><feGaussianBlur stdDeviation="3.1446367"/></filter><linearGradient id="k"><stop offset="0" stop-color="#555"/><stop offset="1" stop-color="#555" stop-opacity="0"/></linearGradient><linearGradient id="l" gradientTransform="matrix(.2763587 0 0 .09333054 72.6955 93.389689)" gradientUnits="userSpaceOnUse" x1="82.802177" x2="83.742836" xlink:href="#k" y1="154.27817" y2="167.16171"/><linearGradient id="m" gradientTransform="matrix(.2763587 0 0 .09333054 49.3108 93.389689)" gradientUnits="userSpaceOnUse" x1="82.802177" x2="83.742836" xlink:href="#k" y1="154.27817" y2="167.16171"/><linearGradient id="n" gradientTransform="matrix(.2763587 0 0 .09333054 32.31791 93.718746)" gradientUnits="userSpaceOnUse" x1="82.802177" x2="83.742836" xlink:href="#k" y1="154.27817" y2="167.16171"/><filter id="o" height="1.983171" width="1.071516" x="-.035758" y="-.491585"><feGaussianBlur stdDeviation="3.8156296"/></filter><linearGradient id="p" gradientTransform="matrix(.26458333 0 0 -.26458333 0 298.91594)" gradientUnits="userSpaceOnUse" x1="61.555904" x2="61.959053" y1="36.454987" y2="77.103714"><stop offset="0" stop-color="#803f00"/><stop offset="1" stop-opacity="0"/></linearGradient><g transform="matrix(.25 0 0 .25 0 -65.78333)"><path d="m12.08086 9.4654293v94.6542907h85.177735.03516 35.595705v-35.044916-.033203-24.498047-.033203-35.0449217h-35.595709z" filter="url(#d)" opacity=".5" stroke-width="1.076414" transform="matrix(.26458333 0 0 .26458333 -2.245031 266.28439)"/><path d="m2.1166666 269.48332v23.28333h20.9408404 8.692494v-8.69249-5.89835-8.69249h-8.692494z" fill="#fff" stroke-width=".264583"/><g transform="matrix(.24545338 0 0 .23812503 1.211373 264.83223)"><path d="m11.223557 27.0802h105.026793v40.601517h-105.026793z" fill="url(#e)"/><path d="m11.223557 67.755539h105.026793v40.601521h-105.026793z" fill="url(#f)"/><circle cx="50.269897" cy="47.169552" fill="url(#c)" filter="url(#g)" r="15.723184" transform="matrix(.6022433 0 0 .6355815 11.185916 27.042353)"/><circle cx="50.269897" cy="47.169552" fill="url(#c)" filter="url(#h)" r="15.723184" transform="matrix(.6022433 0 0 .6355815 11.185916 27.042353)"/><circle cx="50.269897" cy="47.169552" fill="#ff7e00" filter="url(#i)" opacity=".627778" r="15.723184" transform="matrix(2.7604692 0 0 .9533723 -78.809706 15.60179)"/><circle cx="50.269897" cy="47.169552" fill="url(#c)" filter="url(#j)" r="15.723184" transform="matrix(.709197 0 0 .7484557 5.809368 21.718126)"/><circle cx="50.269897" cy="47.169552" fill="#ffeb55" filter="url(#i)" opacity=".627778" r="15.723184" transform="matrix(.903365 0 0 .9533723 -3.95144 12.052305)"/><path d="m11.179582 64.099911 8.432228-2.154496 4.260493-.09367 2.574046-1.873476 4.970576 2.248171 4.793056-1.686128 2.574046 2.810212 11.006277 3.372256 1.775205-.936737 11.538832 1.217758 1.331404-.655716 1.331409 1.030411 26.273041-6.088794 2.041485.562043 11.1838-.281022 2.84032 1.592454 5.41438-1.49878 2.75157.281021v12.833303h-105.092168z" fill="#3b2611"/><path d="m11.715254 72.275512 6.984155-3.290561 7.889509 2.60503 19.529768-.137108 5.173448-4.113201 2.716061 3.016347 19.012419-6.169799 9.95889 1.782383 4.268096-1.919492 2.328052 2.193706 11.510918 1.371068 4.26809 1.371066 10.34691.137108v6.444013h-104.503661z" fill="#131617"/><path d="m11.512042 74.085325 4.869068-3.619621 2.356001 1.316226 6.125601.987169 5.968535-2.138865 16.177871 1.151696 12.565334 2.467921h14.450135l5.968534-1.645282 3.769602.16453 6.439735 1.645278 15.706672-1.809808 6.5968-2.303392 2.04187-1.645282 1.41359.987169v7.239234h-104.763481z"/><path d="m87.27218 108.99099c3.65907-.47638 7.85922-.72435 10.499-1.63101 3.6819.89802 8.2071 1.08406 12.38881 1.56009-4.19959-.17728-8.3992-.91837-12.59879-.53185-3.2097-.0962-6.82754.35889-10.28902.60277z" fill="url(#l)" opacity=".533333"/><path d="m63.88747 108.99099c3.65908-.47638 7.85922-.72435 10.499-1.63101 3.6819.89802 8.2071 1.08406 12.38882 1.56009-4.1996-.17728-8.3992-.91837-12.5988-.53185-3.2097-.0962-6.82754.35889-10.28902.60277z" fill="url(#m)" opacity=".533333"/><path d="m46.89459 109.32004c3.65907-.47637 7.85921-.72434 10.49899-1.631 3.68191.89802 8.20711 1.08405 12.38882 1.56009-4.1996-.17728-8.3992-.91838-12.5988-.53185-3.2097-.0962-6.82754.35888-10.28901.60276z" fill="url(#n)" opacity=".533333"/><path d="m-.04466021 80.174298 20.54831121-2.711748 10.382302-.117902 6.272637-2.358042 12.112688 2.82965 11.680094-2.122236 6.272637 3.53706 26.820955 4.244475 4.325959-1.179019 28.118727 1.532725 3.24447-.825313 3.24448 1.296921 64.0242-7.663634 4.97485.707413 27.25356-.353707 6.92152 2.004336 13.19417-1.886433 6.70524.353706v16.152584h-256.09680021z" fill="#ff7e00" filter="url(#o)" opacity=".488889" transform="matrix(.4037181 0 0 .4330773 12.048239 26.156697)"/><path d="m37.232132 77.773416s-20.601874-.217499-17.708034-.217499 21.84209 2.774272 21.84209 2.774272l-13.993467.421692s20.607958 2.348139 19.574444 2.774272c-1.033513.426133-16.665915.395844-16.665915.395844l16.252509 5.356889s-17.279939 1.27395-16.246424 2.33927c1.033513 1.065319 17.279937 2.774271 17.279937 2.774271l-8.474815 4.90048 8.888222 3.622083s-2.893839-1.27838-1.44692-3.195959c1.44692-1.917573 8.681521-6.391924 8.681521-6.391924s-9.508333-.852257-6.201084-2.130639c3.307245-1.278387 11.988762-3.622093 10.335142-3.622093-1.653625 0-13.228985.852257-9.715035-1.491449 3.513946-2.343706 9.48147-4.338829 9.48147-4.338829l-13.408826-1.413904 11.517341-2.842944z" fill="#e3ad00" filter="url(#a)"/><path d="m44.914062 79.117188-3.547874 1.213001c.931847.678245 1.591172.945604.514671 1.357309l-.341797.128906c1.384914.0045 2.790934.01188 3.792969.04492.622788.02053 1.111404.04361 1.503907.08984.196251.02312.281925-.021.720703.173828.109694.04871.261628.106292.484375.337891.222746.231598.498043.843814.371093 1.367187-.126949.523373-.413333.734956-.570312.84961-.156979.114653-.259105.155358-.341797.189453-.542069.223503-1.275992.421476-2.457031.763671-1.108842.321277-5.409758-1.099099-6.761111-.721971l8.540408 2.944628c1.658292.333074 1.505395 2.751473-.181641 2.873047 0 0-4.305579.315961-8.462891.763672-.351831.03789-.58846.08529-.935546.125.789166.116021 1.455061.239207 2.265624.347656 4.00608.53599 7.60762.914523 7.898438.945312-.09116-.08942-.177697-.113054-.267578-.251953-.232814-.359783-.351124-1.040405-.16211-1.527344.37803-.973876.96585-1.077307 1.513672-1.289062.666428-.257602 1.763742-.575684 2.673828-.873047-.777713-.05811-1.601467-.04708-2.271484-.318359-.266748-.108001-.550268-.24425-.84375-.542969s-.565793-.870287-.521484-1.408203c.08862-1.075833.725305-1.442346 1.300781-1.826172 1.357948-.905714 2.964789-1.583038 4.503906-2.277344l-7.777343-.820312c-1.354456-.1472-1.779327-1.910153-.640626-2.658203zm3.873047 14.488281c.449794.697626.224575 1.629658-.49414 2.044922l-5.90625 3.416015 2.402343.978514c.112106-.42164.307923-.835309.583985-1.20117.548663-.727132 1.311085-1.357975 2.232422-2.078125.921336-.72015 1.981487-1.47201 2.992187-2.162109.290915-.198635.276523-.175584.554688-.361328-.259003-.04267-.294748-.02603-.548828-.07422-.680058-.128978-1.234896-.358966-1.816407-.562499z" fill="#ffd54d" filter="url(#b)"/></g><path d="m4.2333333 271.49973v19.05h25.4000007v-19.05z" fill="none" opacity=".245" stroke="url(#p)" stroke-linecap="round" stroke-width="2.116667"/><path d="m3.9178036 291.09532v-.36972z" fill="#fff" fill-opacity=".756881"/><path d="m14.816666 263.13332v19.05h19.05v-19.05zm1.058333 1.05833h16.933333v16.93334h-16.933333z" opacity=".77"/><path d="m15.874998 264.19168h16.933332v16.93339h-16.933332z" fill="#fff" opacity=".77"/></g></svg>