<?xml version="1.0" encoding="UTF-8" standalone="no"?>
<svg
   xmlns:dc="http://purl.org/dc/elements/1.1/"
   xmlns:cc="http://creativecommons.org/ns#"
   xmlns:rdf="http://www.w3.org/1999/02/22-rdf-syntax-ns#"
   xmlns:svg="http://www.w3.org/2000/svg"
   xmlns="http://www.w3.org/2000/svg"
   xmlns:xlink="http://www.w3.org/1999/xlink"
   xmlns:sodipodi="http://sodipodi.sourceforge.net/DTD/sodipodi-0.dtd"
   xmlns:inkscape="http://www.inkscape.org/namespaces/inkscape"
   height="32"
   viewBox="0 0 31.999999 31.999999"
   width="32"
   version="1.1"
   id="svg24"
   sodipodi:docname="inscellsctrl.svg"
   inkscape:version="0.92.4 (unknown)"
   inkscape:export-filename="/home/rizmut/Dokumen/Rizmut/Github/libreoffice-style-karasa-jaga/build/next/cmd/32/inscellsctrl.png"
   inkscape:export-xdpi="96"
   inkscape:export-ydpi="96">
  <metadata
     id="metadata30">
    <rdf:RDF>
      <cc:Work
         rdf:about="">
        <dc:format>image/svg+xml</dc:format>
        <dc:type
           rdf:resource="http://purl.org/dc/dcmitype/StillImage" />
        <dc:title></dc:title>
      </cc:Work>
    </rdf:RDF>
  </metadata>
  <defs
     id="defs28">
    <filter
       style="color-interpolation-filters:sRGB"
       id="k"
       height="1.12"
       width="1.12"
       x="-0.059999999"
       y="-0.059999999">
      <feGaussianBlur
         stdDeviation="1.9753136"
         id="feGaussianBlur48" />
    </filter>
    <radialGradient
       id="l"
       cx="-65.04158"
       cy="84.778641"
       gradientUnits="userSpaceOnUse"
       r="36.458652">
      <stop
         offset="0"
         stop-color="#92e128"
         id="stop51" />
      <stop
         offset="1"
         stop-color="#569d0a"
         stop-opacity=".996078"
         id="stop53" />
    </radialGradient>
    <filter
       style="color-interpolation-filters:sRGB"
       id="m"
       height="1.048"
       width="1.048"
       x="-0.024"
       y="-0.024">
      <feGaussianBlur
         stdDeviation=".72917305"
         id="feGaussianBlur56" />
    </filter>
    <filter
       style="color-interpolation-filters:sRGB"
       id="n"
       height="1.096"
       width="1.096"
       x="-0.048"
       y="-0.048">
      <feGaussianBlur
         stdDeviation=".78129363"
         id="feGaussianBlur59" />
    </filter>
    <linearGradient
       id="o"
       gradientTransform="matrix(1,0,0,0.80878252,0,0.272859)"
       gradientUnits="userSpaceOnUse"
       x1="-67.976425"
       x2="-66.816696"
       xlink:href="#a-3"
       y1="24.103317"
       y2="72.311111" />
    <linearGradient
       id="a-3">
      <stop
         offset="0"
         stop-color="#fff"
         id="stop2-6" />
      <stop
         offset="1"
         stop-color="#fff"
         stop-opacity="0"
         id="stop4-7" />
    </linearGradient>
  </defs>
  <sodipodi:namedview
     pagecolor="#ffffff"
     bordercolor="#666666"
     borderopacity="1"
     objecttolerance="10"
     gridtolerance="10"
     guidetolerance="10"
     inkscape:pageopacity="0"
     inkscape:pageshadow="2"
     inkscape:window-width="1366"
     inkscape:window-height="706"
     id="namedview26"
     showgrid="true"
     inkscape:zoom="14.75"
     inkscape:cx="7.6847359"
     inkscape:cy="16.958246"
     inkscape:window-x="0"
     inkscape:window-y="0"
     inkscape:window-maximized="1"
     inkscape:current-layer="svg24">
    <inkscape:grid
       type="xygrid"
       id="grid840" />
  </sodipodi:namedview>
  <linearGradient
     id="a"
     gradientUnits="userSpaceOnUse"
     x1="120"
     x2="120"
     y1="-36.584044"
     y2="99.800615"
     gradientTransform="matrix(0.25,0,0,0.25,0,0.064513)">
    <stop
       offset="0"
       stop-color="#fff"
       id="stop2" />
    <stop
       offset="1"
       stop-color="#555"
       id="stop4" />
  </linearGradient>
  <linearGradient
     id="b"
     gradientTransform="matrix(1.0384874 0 0 .91306627 2.461539 6.695545)"
     gradientUnits="userSpaceOnUse"
     x1="46.048"
     x2="46.048"
     y1="128.01709"
     y2="16.6203">
    <stop
       offset="0"
       stop-color="#c7cdd7"
       id="stop7" />
    <stop
       offset="1"
       stop-color="#fff"
       id="stop9" />
  </linearGradient>
  <g
     transform="matrix(.25 0 0 .25 0 .064513)"
     id="g22">
    <path
       d="M 8,39.741948 H 116 V 99.741943 H 8 Z"
       id="path12"
       inkscape:connector-curvature="0"
       style="fill:url(#b)"
       sodipodi:nodetypes="ccccc" />
    <path
       style="fill:url(#a);stroke-width:0.25"
       d="M 1 10 L 1 11 L 1 15 L 1 16 L 1 20 L 1 21 L 1 25 L 1 26 L 2 26 L 7 26 L 8 26 L 15 26 L 16 26 L 23 26 L 24 26 L 29 26 L 30 26 L 30 25 L 30 21 L 30 20 L 30 16 L 30 15 L 30 11 L 30 10 L 29 10 L 24 10 L 23 10 L 16 10 L 15 10 L 8 10 L 7 10 L 2 10 L 1 10 z M 2 11 L 7 11 L 7 15 L 2 15 L 2 11 z M 8 11 L 15 11 L 15 15 L 8 15 L 8 11 z M 16 11 L 23 11 L 23 15 L 16 15 L 16 11 z M 24 11 L 29 11 L 29 15 L 24 15 L 24 11 z M 2 16 L 7 16 L 7 20 L 2 20 L 2 16 z M 8 16 L 15 16 L 15 20 L 8 20 L 8 16 z M 16 16 L 23 16 L 23 20 L 16 20 L 16 16 z M 24 16 L 29 16 L 29 20 L 24 20 L 24 16 z M 2 21 L 7 21 L 7 25 L 2 25 L 2 21 z M 8 21 L 15 21 L 15 25 L 8 25 L 8 21 z M 16 21 L 23 21 L 23 25 L 16 25 L 16 21 z M 24 21 L 29 21 L 29 25 L 24 25 L 24 21 z "
       transform="matrix(4,0,0,4,0,-0.258052)"
       id="path14" />
    <path
       d="m 56,55.741948 h 44 v 32 l -44,0 z"
       id="path16"
       inkscape:connector-curvature="0"
       style="opacity:0.85;fill:#ffffff"
       sodipodi:nodetypes="ccccc" />
    <path
       d="m 60.000122,59.742067 v 4 16 4 h 4 L 92,83.741948 h 4 v -4 -16 -4 h -4 l -27.999878,1.19e-4 z m 4,4 L 92,63.741948 v 16 l -27.999878,1.19e-4 z"
       id="path18"
       inkscape:connector-curvature="0"
       style="fill:#1a508f"
       sodipodi:nodetypes="cccccccccccccccccc" />
    <path
       d="m 64.000122,63.742066 27.999758,-1.19e-4 v 15.99988 l -27.999758,1.19e-4 z"
       id="path20"
       inkscape:connector-curvature="0"
       style="opacity:0.85;fill:#3ea6ff"
       sodipodi:nodetypes="ccccc" />
  </g>
  <g
     transform="matrix(0.16460593,0,0,0.16460593,17.489552,-3.7157327)"
     id="g93">
    <circle
       style="opacity:0.75899999;fill:#858585;filter:url(#k)"
       cx="-65.04158"
       cy="63.78297"
       r="39.506271"
       id="circle79" />
    <circle
       style="fill:#588429"
       cx="-65.04158"
       cy="61.78297"
       r="38.398045"
       id="circle81" />
    <circle
       style="fill:url(#l);filter:url(#m)"
       cx="-65.04158"
       cy="61.78297"
       r="36.458652"
       id="circle83" />
    <g
       transform="translate(-44.687018,0.853764)"
       id="g89">
      <path
         style="fill:#4d7424;filter:url(#n)"
         inkscape:connector-curvature="0"
         d="m -24.261029,43.91386 v 15.625872 h -15.625873 v 7.812937 h 15.625873 v 15.625872 h 7.812936 V 67.352669 H -0.82221985 V 59.539732 H -16.448093 V 43.91386 Z"
         transform="matrix(1.2,0,0,1.2,4.070912,-12.585841)"
         id="path85" />
      <path
         style="fill:#ffffff"
         inkscape:connector-curvature="0"
         d="M -25.042322,36.619882 V 55.370928 H -43.79337 v 9.375524 h 18.751048 v 18.751047 h 9.375523 V 64.746452 H 3.0842485 V 55.370928 H -15.666799 V 36.619882 Z"
         id="path87" />
    </g>
    <ellipse
       style="fill:url(#o)"
       cx="-65.04158"
       cy="50.241848"
       rx="28.978132"
       ry="23.437006"
       id="ellipse91" />
  </g>
</svg>
