<?xml version="1.0" encoding="UTF-8" standalone="no"?>
<svg
   xmlns:dc="http://purl.org/dc/elements/1.1/"
   xmlns:cc="http://creativecommons.org/ns#"
   xmlns:rdf="http://www.w3.org/1999/02/22-rdf-syntax-ns#"
   xmlns:svg="http://www.w3.org/2000/svg"
   xmlns="http://www.w3.org/2000/svg"
   xmlns:xlink="http://www.w3.org/1999/xlink"
   xmlns:sodipodi="http://sodipodi.sourceforge.net/DTD/sodipodi-0.dtd"
   xmlns:inkscape="http://www.inkscape.org/namespaces/inkscape"
   enable-background="new 0 0 128 128"
   height="32"
   viewBox="0 0 32 32"
   width="32"
   version="1.1"
   id="svg219"
   sodipodi:docname="insertbookmark.svg"
   inkscape:version="0.92.4 (unknown)"
   inkscape:export-filename="/home/rizmut/Dokumen/Rizmut/Github/libreoffice-style-karasa-jaga/build/next/cmd/32/insertbookmark.png"
   inkscape:export-xdpi="96"
   inkscape:export-ydpi="96">
  <metadata
     id="metadata225">
    <rdf:RDF>
      <cc:Work
         rdf:about="">
        <dc:format>image/svg+xml</dc:format>
        <dc:type
           rdf:resource="http://purl.org/dc/dcmitype/StillImage" />
        <dc:title></dc:title>
      </cc:Work>
    </rdf:RDF>
  </metadata>
  <defs
     id="defs223">
    <linearGradient
       inkscape:collect="always"
       xlink:href="#a"
       id="linearGradient5003"
       gradientUnits="userSpaceOnUse"
       gradientTransform="scale(1.0975951,0.9110828)"
       x1="26.091133"
       y1="14.856744"
       x2="31.500689"
       y2="14.856744" />
    <linearGradient
       inkscape:collect="always"
       xlink:href="#D"
       id="linearGradient5005"
       gradientUnits="userSpaceOnUse"
       x1="88.606247"
       y1="13.510336"
       x2="91.575104"
       y2="13.510336"
       spreadMethod="reflect" />
    <linearGradient
       inkscape:collect="always"
       xlink:href="#E"
       id="linearGradient5007"
       gradientUnits="userSpaceOnUse"
       x1="31.606251"
       y1="13.510336"
       x2="34.575108"
       y2="13.510336"
       spreadMethod="reflect" />
    <linearGradient
       inkscape:collect="always"
       xlink:href="#D"
       id="linearGradient5009"
       gradientUnits="userSpaceOnUse"
       x1="88.606247"
       y1="13.510336"
       x2="91.575104"
       y2="13.510336"
       spreadMethod="reflect" />
    <linearGradient
       inkscape:collect="always"
       xlink:href="#D"
       id="linearGradient5011"
       gradientUnits="userSpaceOnUse"
       x1="88.606247"
       y1="13.510336"
       x2="91.575104"
       y2="13.510336"
       spreadMethod="reflect" />
    <linearGradient
       inkscape:collect="always"
       xlink:href="#E"
       id="linearGradient5013"
       gradientUnits="userSpaceOnUse"
       x1="31.606251"
       y1="13.510336"
       x2="34.575108"
       y2="13.510336"
       spreadMethod="reflect" />
  </defs>
  <sodipodi:namedview
     pagecolor="#ffffff"
     bordercolor="#666666"
     borderopacity="1"
     objecttolerance="10"
     gridtolerance="10"
     guidetolerance="10"
     inkscape:pageopacity="0"
     inkscape:pageshadow="2"
     inkscape:window-width="640"
     inkscape:window-height="480"
     id="namedview221"
     showgrid="true"
     inkscape:zoom="59.5"
     inkscape:cx="27.040871"
     inkscape:cy="29.687873"
     inkscape:current-layer="g5001">
    <inkscape:grid
       type="xygrid"
       id="grid4964" />
  </sodipodi:namedview>
  <linearGradient
     id="a">
    <stop
       offset="0"
       stop-color="#fff"
       id="stop2" />
    <stop
       offset="1"
       stop-color="#fff"
       stop-opacity="0"
       id="stop4" />
  </linearGradient>
  <linearGradient
     id="b"
     gradientUnits="userSpaceOnUse"
     x1="88.591797"
     x2="71.262016"
     y1="96.592697"
     y2="79.262917">
    <stop
       offset="0"
       stop-color="#fff"
       id="stop7" />
    <stop
       offset="1"
       stop-color="#555753"
       id="stop9" />
  </linearGradient>
  <linearGradient
     id="c"
     gradientUnits="userSpaceOnUse"
     x1="85.219681"
     x2="61.336319"
     y1="93.219681"
     y2="69.336319">
    <stop
       offset="0"
       id="stop12" />
    <stop
       offset="1"
       stop-color="#393b38"
       id="stop14" />
  </linearGradient>
  <linearGradient
     id="d"
     gradientUnits="userSpaceOnUse"
     x1="96"
     x2="88.000198"
     y1="104"
     y2="96.000198">
    <stop
       offset="0"
       stop-color="#888a85"
       id="stop17" />
    <stop
       offset=".0072"
       stop-color="#8c8e89"
       id="stop19" />
    <stop
       offset=".0673"
       stop-color="#abaca9"
       id="stop21" />
    <stop
       offset=".1347"
       stop-color="#c5c6c4"
       id="stop23" />
    <stop
       offset=".2115"
       stop-color="#dbdbda"
       id="stop25" />
    <stop
       offset=".3012"
       stop-color="#ebebeb"
       id="stop27" />
    <stop
       offset=".4122"
       stop-color="#f7f7f6"
       id="stop29" />
    <stop
       offset=".5679"
       stop-color="#fdfdfd"
       id="stop31" />
    <stop
       offset="1"
       stop-color="#fff"
       id="stop33" />
  </linearGradient>
  <radialGradient
     id="e"
     cx="102"
     cy="112.3047"
     gradientTransform="matrix(0.9787234,0,0,0.9818182,1.361705,1.163636)"
     gradientUnits="userSpaceOnUse"
     r="139.55859">
    <stop
       offset="0"
       stop-color="#535557"
       id="stop36" />
    <stop
       offset=".11366145"
       stop-color="#898a8c"
       id="stop38" />
    <stop
       offset=".20296688"
       stop-color="#ececec"
       id="stop40" />
    <stop
       offset=".2363"
       stop-color="#fafafa"
       id="stop42" />
    <stop
       offset=".2722"
       stop-color="#fff"
       id="stop44" />
    <stop
       offset=".5313"
       stop-color="#fafafa"
       id="stop46" />
    <stop
       offset=".8449"
       stop-color="#ebecec"
       id="stop48" />
    <stop
       offset="1"
       stop-color="#e1e2e3"
       id="stop50" />
  </radialGradient>
  <radialGradient
     id="f"
     cx="102"
     cy="112.3047"
     gradientUnits="userSpaceOnUse"
     r="139.5585">
    <stop
       offset="0"
       stop-color="#00537d"
       id="stop53" />
    <stop
       offset=".0151"
       stop-color="#186389"
       id="stop55" />
    <stop
       offset=".0558"
       stop-color="#558ca8"
       id="stop57" />
    <stop
       offset=".0964"
       stop-color="#89afc3"
       id="stop59" />
    <stop
       offset=".1357"
       stop-color="#b3ccd8"
       id="stop61" />
    <stop
       offset=".1737"
       stop-color="#d4e2e9"
       id="stop63" />
    <stop
       offset=".2099"
       stop-color="#ecf2f5"
       id="stop65" />
    <stop
       offset=".2435"
       stop-color="#fafcfd"
       id="stop67" />
    <stop
       offset=".2722"
       stop-color="#fff"
       id="stop69" />
  </radialGradient>
  <filter
     id="g">
    <feGaussianBlur
       stdDeviation="1.0394514"
       id="feGaussianBlur72" />
  </filter>
  <filter
     id="h">
    <feGaussianBlur
       stdDeviation=".50063244"
       id="feGaussianBlur75" />
  </filter>
  <filter
     id="i">
    <feGaussianBlur
       stdDeviation=".40750996"
       id="feGaussianBlur78" />
  </filter>
  <filter
     id="j">
    <feGaussianBlur
       stdDeviation=".4901192"
       id="feGaussianBlur81" />
  </filter>
  <filter
     id="k">
    <feGaussianBlur
       stdDeviation=".90565481"
       id="feGaussianBlur84" />
  </filter>
  <filter
     id="l"
     height="1.083722"
     width="1.5857511"
     x="-0.29287601"
     y="-0.041861001">
    <feGaussianBlur
       stdDeviation=".97625222"
       id="feGaussianBlur87" />
  </filter>
  <linearGradient
     id="m"
     gradientUnits="userSpaceOnUse"
     x1="32"
     x2="32"
     y1="22.51432"
     y2="73.918198">
    <stop
       offset="0"
       stop-color="#e00000"
       id="stop90" />
    <stop
       offset="1"
       stop-color="#f00"
       stop-opacity=".407895"
       id="stop92" />
  </linearGradient>
  <linearGradient
     id="n"
     gradientUnits="userSpaceOnUse"
     spreadMethod="reflect"
     x1="32"
     x2="32"
     y1="71.92112"
     y2="42.556587">
    <stop
       offset="0"
       stop-color="#e20800"
       id="stop95" />
    <stop
       offset="1"
       stop-color="#9c0f0f"
       id="stop97" />
  </linearGradient>
  <linearGradient
     id="o"
     gradientUnits="userSpaceOnUse"
     spreadMethod="reflect"
     x1="32"
     x2="32"
     xlink:href="#p"
     y1="17.963892"
     y2="41.469219" />
  <linearGradient
     id="p">
    <stop
       offset="0"
       stop-color="#f9ccca"
       id="stop101" />
    <stop
       offset="1"
       stop-color="#f9ccca"
       stop-opacity="0"
       id="stop103" />
  </linearGradient>
  <clipPath
     id="q">
    <path
       d="M 33.6875,23.03125 C 31.691577,23.052949 29.800974,23.086795 28,23.125 V 80 l 4,-4 4,4 V 23.03125 c -0.759566,0.0053 -1.581338,-0.0079 -2.3125,0 z"
       id="path106"
       inkscape:connector-curvature="0" />
  </clipPath>
  <filter
     id="r">
    <feGaussianBlur
       stdDeviation=".32485683"
       id="feGaussianBlur109" />
  </filter>
  <linearGradient
     id="s"
     gradientTransform="matrix(1,0,0,0.4938097,0,10.744937)"
     gradientUnits="userSpaceOnUse"
     x1="32"
     x2="32"
     xlink:href="#p"
     y1="23.028635"
     y2="26.986135" />
  <linearGradient
     id="t"
     gradientUnits="userSpaceOnUse"
     x1="70"
     x2="130"
     y1="98"
     y2="98">
    <stop
       offset="0"
       stop-color="#066704"
       id="stop113" />
    <stop
       offset="1"
       stop-color="#077d05"
       stop-opacity=".839216"
       id="stop115" />
  </linearGradient>
  <radialGradient
     id="u"
     cx="108.95794"
     cy="91.491646"
     gradientTransform="matrix(1.0783631,-0.16325698,0.14968763,0.98873334,-23.191389,17.327301)"
     gradientUnits="userSpaceOnUse"
     r="30"
     xlink:href="#v" />
  <linearGradient
     id="v">
    <stop
       offset="0"
       stop-color="#011701"
       id="stop119" />
    <stop
       offset=".80671918"
       stop-color="#145703"
       id="stop121" />
    <stop
       offset="1"
       stop-color="#2fa207"
       stop-opacity=".384314"
       id="stop123" />
  </linearGradient>
  <radialGradient
     id="w"
     cx="92.257149"
     cy="104.91638"
     gradientTransform="matrix(1.0783631,-0.16325698,0.14968763,0.98873334,-23.191389,17.327301)"
     gradientUnits="userSpaceOnUse"
     r="30"
     xlink:href="#v" />
  <linearGradient
     id="x"
     gradientTransform="scale(1.0975951,0.9110828)"
     gradientUnits="userSpaceOnUse"
     x1="26.091133"
     x2="31.500689"
     xlink:href="#a"
     y1="14.856744"
     y2="14.856744" />
  <filter
     id="y"
     height="1.277481"
     width="1.279832"
     x="-0.139916"
     y="-0.138741">
    <feGaussianBlur
       stdDeviation=".28784801"
       id="feGaussianBlur128" />
  </filter>
  <linearGradient
     id="z"
     gradientUnits="userSpaceOnUse"
     x1="304.88663"
     x2="345.62039"
     y1="385.86127"
     y2="384.62384">
    <stop
       offset="0"
       stop-color="#fff"
       stop-opacity=".683453"
       id="stop131" />
    <stop
       offset="1"
       stop-color="#fff"
       stop-opacity="0"
       id="stop133" />
  </linearGradient>
  <radialGradient
     id="A"
     cx="96"
     cy="102"
     gradientUnits="userSpaceOnUse"
     r="26">
    <stop
       offset="0"
       stop-color="#7ae91e"
       stop-opacity=".996078"
       id="stop136" />
    <stop
       offset="1"
       stop-color="#62c916"
       id="stop138" />
  </radialGradient>
  <linearGradient
     id="B"
     gradientUnits="userSpaceOnUse"
     x1="93.673332"
     x2="105.63081"
     xlink:href="#a"
     y1="57.081059"
     y2="114.86784" />
  <filter
     id="C"
     height="1.048"
     width="1.048"
     x="-0.024"
     y="-0.024"
     style="color-interpolation-filters:sRGB">
    <feGaussianBlur
       stdDeviation=".52"
       id="feGaussianBlur142" />
  </filter>
  <linearGradient
     id="D"
     gradientUnits="userSpaceOnUse"
     spreadMethod="reflect"
     x1="88.606247"
     x2="91.575104"
     y1="13.510336"
     y2="13.510336">
    <stop
       offset="0"
       stop-color="#c8ff87"
       id="stop145" />
    <stop
       offset="1"
       stop-color="#abff87"
       stop-opacity="0"
       id="stop147" />
  </linearGradient>
  <linearGradient
     id="E"
     gradientUnits="userSpaceOnUse"
     spreadMethod="reflect"
     x1="31.606251"
     x2="34.575108"
     y1="13.510336"
     y2="13.510336">
    <stop
       offset="0"
       stop-color="#fff"
       id="stop150" />
    <stop
       offset="1"
       stop-color="#790000"
       stop-opacity="0"
       id="stop152" />
  </linearGradient>
  <g
     id="g5001"
     transform="matrix(0.25,0,0,0.25,0,2.4890332e-5)">
    <path
       id="path155"
       transform="matrix(1.0416667,0,0,1.0357143,-9.958333,-3.321534)"
       d="m 23,9 0.04082,112 H 84.172 c 0.53,0 1.039,-0.211 1.414,-0.586 L 118.414,87.586 C 118.789,87.211 119,86.702 119,86.172 V 9 Z"
       inkscape:connector-curvature="0"
       style="opacity:0.30684904;filter:url(#g)" />
    <path
       id="path157"
       transform="matrix(1.0416667,0,0,1.0357143,-9.958333,-3.321534)"
       d="M 24.919999,10.931136 V 119.06907 l 58.676001,-1e-4 c 0.53,0 1.039,-0.211 1.414,-0.586 l 31.484,-31.765936 c 0.375,-0.375 0.586,-0.884 0.586,-1.414 V 10.931136 Z"
       inkscape:connector-curvature="0"
       style="opacity:0.89589;filter:url(#h)" />
    <path
       id="path159"
       transform="matrix(1.0416667,0,0,1.0357143,-9.958333,-3.321534)"
       d="M 23,9.9655172 23.040816,121 H 84.172 c 0.53,0 1.039,-0.211 1.414,-0.586 L 118.414,87.586 C 118.789,87.211 119,86.702 119,86.172 V 9.9655172 Z"
       inkscape:connector-curvature="0"
       style="opacity:0.30684904;filter:url(#g)" />
    <path
       id="path161"
       d="m 16.000002,8 v 112 h 61.172 c 0.53,0 1.039,-0.211 1.414,-0.586 L 111.414,86.586 C 111.789,86.211 112,85.702 112,85.172 V 8 Z"
       style="fill:url(#f)"
       inkscape:connector-curvature="0" />
    <path
       id="path163"
       d="m 19.678725,10.7 c -0.539276,0 -0.978723,0.440836 -0.978723,0.981818 l -0.7,105.336362 c 0,0.54197 0.439447,0.98182 0.978723,0.98182 h 57.913022 c 0.257404,0 0.509915,-0.10407 0.691957,-0.28767 L 109.71323,85.4812 C 109.89626,85.2976 110,85.045273 110,84.787055 V 10.981818 C 110,10.440836 109.56153,10 109.02128,10 Z"
       style="fill:url(#e)"
       inkscape:connector-curvature="0" />
    <g
       id="g173"
       transform="translate(2e-6)">
      <path
         id="path165"
         d="M 111.414,86.586 C 111.664,86.336 85.035,85 80,85 c -1.654,0 -3,1.346 -3,3 0,5.035 1.336,31.664 1.586,31.414 z"
         style="opacity:0.1;fill:url(#b);filter:url(#i)"
         inkscape:connector-curvature="0" />
      <path
         id="path167"
         d="M 111.414,86.586 C 111.789,86.211 89.444,86 80,86 c -1.103,0 -2,0.897 -2,2 0,9.444 0.211,31.789 0.586,31.414 z"
         inkscape:connector-curvature="0"
         style="opacity:0.2;filter:url(#k)" />
      <path
         id="path169"
         d="M 111.414,86.586 C 111.653,86.347 89.807,87 80,87 c -0.553,0 -1,0.447 -1,1 0,9.807 -0.653,31.653 -0.414,31.414 z"
         style="opacity:0.1;fill:url(#c);filter:url(#j)"
         inkscape:connector-curvature="0" />
      <path
         id="path171"
         d="m 78.586,119.414 c 0,0 11.914,-9.914 17.414,-15.414 5.5,-5.5 15.414,-17.414 15.414,-17.414 0,0 -21.164,1.414 -31.414,1.414 0,10.25 -1.414,31.414 -1.414,31.414 z"
         style="fill:url(#d)"
         inkscape:connector-curvature="0" />
    </g>
    <g
       id="g185"
       transform="matrix(2.122563,0,0,1.5742416,-25.966863,-26.708061)">
      <path
         id="path175"
         transform="matrix(1.1473488,0,0,1.0535988,-4.775548,-6.091506)"
         d="m 33.6875,26.929506 c -1.995923,0.0217 -3.886526,0.05554 -5.6875,0.09375 V 81 l 4,-4 4,4 V 26.929506 c -0.759566,0.0053 -1.581338,-0.0079 -2.3125,0 z"
         inkscape:connector-curvature="0"
         style="opacity:0.772201;filter:url(#l)" />
      <path
         id="path177"
         d="M 33.6875,20.53125 C 31.691577,20.552949 29.800974,20.586795 28,20.625 V 77.5 l 4,-4 4,4 V 20.53125 c -0.759566,0.0053 -1.581338,-0.0079 -2.3125,0 z"
         style="fill:none;stroke:url(#m);stroke-width:1.45899796;stroke-linecap:round;stroke-linejoin:round"
         inkscape:connector-curvature="0" />
      <path
         id="path179"
         d="M 33.6875,20.03125 C 31.691577,20.052949 29.800974,20.086795 28,20.125 V 77 l 4,-4 4,4 V 20.03125 c -0.759566,0.0053 -1.581338,-0.0079 -2.3125,0 z"
         style="fill:url(#n)"
         inkscape:connector-curvature="0" />
      <path
         id="path181"
         clip-path="url(#q)"
         transform="translate(0,-3)"
         style="opacity:0.61389998;fill:none;stroke:url(#o);stroke-width:1.58806598;stroke-linecap:round;stroke-linejoin:round;filter:url(#r)"
         d="m 33.6875,25.254543 c -1.995923,0.0217 -3.886526,0.05554 -5.6875,0.09375 V 80 l 4,-4 4,4 V 25.254543 c -0.759566,0.0053 -1.581338,-0.0079 -2.3125,0 z"
         inkscape:connector-curvature="0" />
      <path
         id="path183"
         d="m 33.6875,22.117991 c -1.995923,0.01072 -3.886526,0.02743 -5.6875,0.0463 v 2.469048 c 1.800974,-0.01887 3.691577,-0.03558 5.6875,-0.04629 0.731162,-0.0039 1.552934,0.0026 2.3125,0 V 22.118 c -0.759566,0.0026 -1.581338,-0.0039 -2.3125,0 z"
         style="fill:url(#s)"
         inkscape:connector-curvature="0" />
    </g>
    <g
       id="g217"
       transform="translate(-4,-2)">
      <path
         id="path187"
         d="m 96,68 a 4.0004,4.0004 0 0 0 -4,4 V 90 H 74 a 4.0004,4.0004 0 0 0 -4,4 v 8 a 4.0004,4.0004 0 0 0 4,4 h 18 v 18 a 4.0004,4.0004 0 0 0 4,4 h 8 a 4.0004,4.0004 0 0 0 4,-4 v -18 h 18 a 4.0004,4.0004 0 0 0 4,-4 v -8 a 4.0004,4.0004 0 0 0 -4,-4 H 108 V 72 a 4.0004,4.0004 0 0 0 -4,-4 z"
         style="fill:url(#t)"
         inkscape:connector-curvature="0" />
      <path
         id="path189"
         d="m 96,68 a 4.0004,4.0004 0 0 0 -4,4 V 90 H 74 a 4.0004,4.0004 0 0 0 -4,4 v 8 a 4.0004,4.0004 0 0 0 4,4 h 18 v 18 a 4.0004,4.0004 0 0 0 4,4 h 8 a 4.0004,4.0004 0 0 0 4,-4 v -18 h 18 a 4.0004,4.0004 0 0 0 4,-4 v -8 a 4.0004,4.0004 0 0 0 -4,-4 H 108 V 72 a 4.0004,4.0004 0 0 0 -4,-4 z"
         style="fill:url(#u)"
         inkscape:connector-curvature="0" />
      <path
         id="path191"
         d="m 96,68 a 4.0004,4.0004 0 0 0 -4,4 V 90 H 74 a 4.0004,4.0004 0 0 0 -4,4 v 8 a 4.0004,4.0004 0 0 0 4,4 h 18 v 18 a 4.0004,4.0004 0 0 0 4,4 h 8 a 4.0004,4.0004 0 0 0 4,-4 v -18 h 18 a 4.0004,4.0004 0 0 0 4,-4 v -8 a 4.0004,4.0004 0 0 0 -4,-4 H 108 V 72 a 4.0004,4.0004 0 0 0 -4,-4 z"
         style="fill:url(#w)"
         inkscape:connector-curvature="0" />
      <path
         id="path193"
         transform="matrix(-0.60073019,-0.60073019,0.59501648,-0.59501648,106.15853,151.49848)"
         d="m 31.7,16 2.875,-3.375 c -1.051205,-1.695758 -3.935136,-2.288018 -5.9375,-0.3125 l 2.8125,3.375 z"
         style="opacity:0.79026196;fill:url(#linearGradient5003);fill-rule:evenodd;filter:url(#y)"
         inkscape:connector-curvature="0" />
      <path
         id="path195"
         transform="matrix(-0.54559305,0.54559305,-0.55083218,-0.55083218,129.81694,114.94021)"
         d="m 31.7,16 2.875,-3.375 c -1.051205,-1.695758 -3.935136,-2.288018 -5.9375,-0.3125 l 2.8125,3.375 z"
         style="opacity:0.498127;fill:url(#z);fill-rule:evenodd;filter:url(#y)"
         inkscape:connector-curvature="0" />
      <path
         id="path197"
         d="M 96,72 V 94 H 74 v 8 h 22 v 22 h 8 v -22 h 22 V 94 H 104 V 72 Z"
         style="fill:url(#A)"
         inkscape:connector-curvature="0" />
      <path
         id="path199"
         d="M 96,72 V 93.224609 94 H 74 v 5.835938 c 5.252313,0.784812 12.103279,1.193282 17.28125,1.203122 12.42654,-0.0162 24.54521,-2.29327 34.71875,-6.523435 V 94 H 104 V 72 Z"
         style="fill:url(#B)"
         inkscape:connector-curvature="0" />
      <path
         id="path201"
         style="fill:none;stroke:#eef4ca;stroke-width:0.80000001;stroke-linecap:square;stroke-linejoin:round;stroke-opacity:0.78039198;filter:url(#C)"
         d="M 96,72 V 94 H 74 v 8 h 22 v 22 h 8 v -22 h 22 V 94 H 104 V 72 Z"
         inkscape:connector-curvature="0" />
      <g
         id="g215"
         style="fill-rule:evenodd">
        <path
           id="path203"
           transform="matrix(-0.60249952,0.60249952,0.60828509,0.60828509,83.418893,65.879107)"
           d="m 31.7,16 2.875,-3.375 c -1.051205,-1.695758 -3.935136,-2.288018 -5.9375,-0.3125 l 2.8125,3.375 z"
           style="opacity:0.498127;fill:url(#x);filter:url(#y)"
           inkscape:connector-curvature="0" />
        <path
           id="path205"
           transform="matrix(-0.55083218,-0.55083218,0.54559305,-0.54559305,113.52649,159.24703)"
           d="m 88.7,16 2.875,-3.375 c -1.051205,-1.695758 -3.935136,-2.288018 -5.9375,-0.3125 l 2.8125,3.375 z"
           style="opacity:0.79026196;fill:url(#linearGradient5005);filter:url(#y)"
           inkscape:connector-curvature="0" />
        <path
           id="path207"
           transform="matrix(-0.50093417,-0.50093417,-0.49616964,0.49616964,149.45278,101.72037)"
           d="m 31.7,16 2.875,-3.375 c -1.051205,-1.695758 -3.935136,-2.288018 -5.9375,-0.3125 l 2.8125,3.375 z"
           style="opacity:0.79026196;fill:url(#linearGradient5007);filter:url(#y)"
           inkscape:connector-curvature="0" />
        <path
           id="path209"
           transform="matrix(-0.51428706,-0.51428706,-0.50939554,0.50939554,157.72648,109.73028)"
           d="m 88.7,16 2.875,-3.375 c -1.051205,-1.695758 -3.935136,-2.288018 -5.9375,-0.3125 l 2.8125,3.375 z"
           style="opacity:0.79026196;fill:url(#linearGradient5009);filter:url(#y)"
           inkscape:connector-curvature="0" />
        <path
           id="path211"
           transform="matrix(0.51428706,-0.51428706,0.50939554,0.50939554,42.798309,109.73028)"
           d="m 88.7,16 2.875,-3.375 c -1.051205,-1.695758 -3.935136,-2.288018 -5.9375,-0.3125 l 2.8125,3.375 z"
           style="opacity:0.79026196;fill:url(#linearGradient5011);filter:url(#y)"
           inkscape:connector-curvature="0" />
        <path
           id="path213"
           transform="matrix(-0.50093417,0.50093417,-0.49616964,-0.49616964,149.45278,94.179741)"
           d="m 31.7,16 2.875,-3.375 c -1.051205,-1.695758 -3.935136,-2.288018 -5.9375,-0.3125 l 2.8125,3.375 z"
           style="opacity:0.79026196;fill:url(#linearGradient5013);filter:url(#y)"
           inkscape:connector-curvature="0" />
      </g>
    </g>
  </g>
</svg>
