<?xml version="1.0" encoding="UTF-8" standalone="no"?>
<svg
   xmlns:dc="http://purl.org/dc/elements/1.1/"
   xmlns:cc="http://creativecommons.org/ns#"
   xmlns:rdf="http://www.w3.org/1999/02/22-rdf-syntax-ns#"
   xmlns:svg="http://www.w3.org/2000/svg"
   xmlns="http://www.w3.org/2000/svg"
   xmlns:xlink="http://www.w3.org/1999/xlink"
   xmlns:sodipodi="http://sodipodi.sourceforge.net/DTD/sodipodi-0.dtd"
   xmlns:inkscape="http://www.inkscape.org/namespaces/inkscape"
   enable-background="new 0 0 128 128"
   height="32"
   viewBox="0 0 32 32"
   width="32"
   version="1.1"
   id="svg144"
   sodipodi:docname="insertbreak.svg"
   inkscape:version="0.92.4 (unknown)"
   inkscape:export-filename="/home/rizmut/Dokumen/Rizmut/Github/libreoffice-style-karasa-jaga/build/next/cmd/32/insertbreak.png"
   inkscape:export-xdpi="96"
   inkscape:export-ydpi="96">
  <metadata
     id="metadata150">
    <rdf:RDF>
      <cc:Work
         rdf:about="">
        <dc:format>image/svg+xml</dc:format>
        <dc:type
           rdf:resource="http://purl.org/dc/dcmitype/StillImage" />
        <dc:title></dc:title>
      </cc:Work>
    </rdf:RDF>
  </metadata>
  <defs
     id="defs148">
    <linearGradient
       inkscape:collect="always"
       id="linearGradient4372">
      <stop
         style="stop-color:#0066ff;stop-opacity:1;"
         offset="0"
         id="stop4374" />
      <stop
         style="stop-color:#80b3ff;stop-opacity:1"
         offset="1"
         id="stop4376" />
    </linearGradient>
    <linearGradient
       inkscape:collect="always"
       xlink:href="#linearGradient4372"
       id="linearGradient991"
       x1="13.436937"
       y1="77.973312"
       x2="13.436937"
       y2="46.034309"
       gradientUnits="userSpaceOnUse" />
    <linearGradient
       inkscape:collect="always"
       xlink:href="#linearGradient4372"
       id="linearGradient999"
       x1="40"
       y1="64"
       x2="40"
       y2="48"
       gradientUnits="userSpaceOnUse" />
    <linearGradient
       inkscape:collect="always"
       xlink:href="#linearGradient4372"
       id="linearGradient1003"
       gradientUnits="userSpaceOnUse"
       x1="40"
       y1="64"
       x2="40"
       y2="48"
       gradientTransform="translate(24)" />
    <linearGradient
       inkscape:collect="always"
       xlink:href="#linearGradient4372"
       id="linearGradient1007"
       gradientUnits="userSpaceOnUse"
       gradientTransform="translate(48)"
       x1="40"
       y1="64"
       x2="40"
       y2="48" />
    <linearGradient
       inkscape:collect="always"
       xlink:href="#linearGradient4372"
       id="linearGradient1011"
       gradientUnits="userSpaceOnUse"
       gradientTransform="translate(72)"
       x1="40"
       y1="64"
       x2="40"
       y2="48" />
    <linearGradient
       id="b-3"
       gradientUnits="userSpaceOnUse"
       x1="88.591797"
       x2="71.262016"
       y1="96.592697"
       y2="79.262917">
      <stop
         offset="0"
         stop-color="#fff"
         id="stop1609" />
      <stop
         offset="1"
         stop-color="#555753"
         id="stop1611" />
    </linearGradient>
    <filter
       id="h-6">
      <feGaussianBlur
         stdDeviation=".40750996"
         id="feGaussianBlur1661" />
    </filter>
    <filter
       id="j-7">
      <feGaussianBlur
         stdDeviation=".90565481"
         id="feGaussianBlur1667" />
    </filter>
    <linearGradient
       id="c-5"
       gradientUnits="userSpaceOnUse"
       x1="85.219681"
       x2="61.336319"
       y1="93.219681"
       y2="69.336319">
      <stop
         offset="0"
         id="stop1614" />
      <stop
         offset="1"
         stop-color="#393b38"
         id="stop1616" />
    </linearGradient>
    <filter
       id="i-3">
      <feGaussianBlur
         stdDeviation=".4901192"
         id="feGaussianBlur1664" />
    </filter>
    <linearGradient
       id="a-5"
       gradientUnits="userSpaceOnUse"
       x1="96"
       x2="88.000198"
       y1="104"
       y2="96.000198">
      <stop
         offset="0"
         stop-color="#888a85"
         id="stop1590" />
      <stop
         offset=".0072"
         stop-color="#8c8e89"
         id="stop1592" />
      <stop
         offset=".0673"
         stop-color="#abaca9"
         id="stop1594" />
      <stop
         offset=".1347"
         stop-color="#c5c6c4"
         id="stop1596" />
      <stop
         offset=".2115"
         stop-color="#dbdbda"
         id="stop1598" />
      <stop
         offset=".3012"
         stop-color="#ebebeb"
         id="stop1600" />
      <stop
         offset=".4122"
         stop-color="#f7f7f6"
         id="stop1602" />
      <stop
         offset=".5679"
         stop-color="#fdfdfd"
         id="stop1604" />
      <stop
         offset="1"
         stop-color="#fff"
         id="stop1606" />
    </linearGradient>
    <linearGradient
       id="k-6"
       gradientUnits="userSpaceOnUse"
       x1="78.610847"
       x2="120.3435"
       y1="88.852417"
       y2="111.54715">
      <stop
         offset="0"
         stop-color="#fff"
         id="stop1670" />
      <stop
         offset="1"
         stop-color="#ccc"
         id="stop1672" />
    </linearGradient>
    <linearGradient
       id="l-2"
       gradientUnits="userSpaceOnUse"
       x1="100.83452"
       x2="116.42799"
       y1="37.992622"
       y2="80.92411">
      <stop
         offset="0"
         stop-color="#fff"
         stop-opacity=".55036"
         id="stop1675" />
      <stop
         offset="1"
         stop-color="#fff"
         stop-opacity="0"
         id="stop1677" />
    </linearGradient>
    <linearGradient
       id="m"
       gradientTransform="matrix(0.5963646,0,0,0.63697579,63.973141,-536.55347)"
       gradientUnits="userSpaceOnUse"
       x1="65.456863"
       x2="65.985519"
       y1="947.38373"
       y2="1011.6694">
      <stop
         offset="0"
         stop-color="#363636"
         id="stop1680" />
      <stop
         offset="1"
         stop-color="#cdcdcd"
         id="stop1682" />
    </linearGradient>
    <linearGradient
       id="n"
       gradientUnits="userSpaceOnUse"
       x1="88.38102"
       x2="130.48599"
       y1="1008.9966"
       y2="1015.6953">
      <stop
         offset="0"
         stop-color="#5e5e5e"
         id="stop1685" />
      <stop
         offset="1"
         stop-color="#5e5e5e"
         stop-opacity="0"
         id="stop1687" />
    </linearGradient>
    <clipPath
       id="o">
      <path
         inkscape:connector-curvature="0"
         d="M 50.951443,938.9306 H 124.81513 V 1051.152 H 50.951443 Z"
         id="path1690" />
    </clipPath>
    <filter
       style="color-interpolation-filters:sRGB"
       id="p"
       height="1.12903"
       width="1.240695"
       x="-0.120348"
       y="-0.064515002">
      <feGaussianBlur
         stdDeviation="1.8475301"
         id="feGaussianBlur1693" />
    </filter>
    <linearGradient
       id="q"
       gradientUnits="userSpaceOnUse"
       x1="102.76811"
       x2="102.87246"
       y1="74.232597"
       y2="91.763733">
      <stop
         offset="0"
         stop-color="#979797"
         id="stop1696" />
      <stop
         offset=".148461"
         stop-color="#f6f6f6"
         id="stop1698" />
      <stop
         offset=".28399727"
         stop-color="#e2e2e2"
         id="stop1700" />
      <stop
         offset=".59572202"
         stop-color="#dedede"
         id="stop1702" />
      <stop
         offset=".73809379"
         stop-color="#f6f6f6"
         id="stop1704" />
      <stop
         offset="1"
         stop-color="#6b6b6b"
         id="stop1706" />
    </linearGradient>
    <linearGradient
       id="r"
       gradientUnits="userSpaceOnUse"
       x1="102.65403"
       x2="102.70641"
       y1="-113.35273"
       y2="-92.586586">
      <stop
         offset="0"
         stop-color="#777"
         id="stop1709" />
      <stop
         offset=".07421063"
         stop-color="#a8a8a8"
         id="stop1711" />
      <stop
         offset=".22864534"
         stop-color="#cdcdcd"
         id="stop1713" />
      <stop
         offset=".34561315"
         stop-color="#f7f7f7"
         id="stop1715" />
      <stop
         offset="1"
         stop-color="#fff"
         id="stop1717" />
    </linearGradient>
    <radialGradient
       inkscape:collect="always"
       xlink:href="#e"
       id="radialGradient4897"
       gradientUnits="userSpaceOnUse"
       cx="102"
       cy="112.3047"
       r="139.5585" />
    <radialGradient
       inkscape:collect="always"
       xlink:href="#d"
       id="radialGradient4899"
       gradientUnits="userSpaceOnUse"
       gradientTransform="matrix(0.9787234,0,0,0.9818182,1.361705,1.163636)"
       cx="102"
       cy="112.3047"
       r="139.55859" />
    <linearGradient
       inkscape:collect="always"
       xlink:href="#a"
       id="linearGradient4901"
       gradientUnits="userSpaceOnUse"
       x1="88.591797"
       y1="96.592697"
       x2="71.262016"
       y2="79.262917" />
    <linearGradient
       inkscape:collect="always"
       xlink:href="#b"
       id="linearGradient4903"
       gradientUnits="userSpaceOnUse"
       x1="85.219681"
       y1="93.219681"
       x2="61.336319"
       y2="69.336319" />
    <linearGradient
       inkscape:collect="always"
       xlink:href="#c"
       id="linearGradient4905"
       gradientUnits="userSpaceOnUse"
       x1="96"
       y1="104"
       x2="88.000198"
       y2="96.000198" />
    <radialGradient
       inkscape:collect="always"
       xlink:href="#e"
       id="radialGradient4907"
       gradientUnits="userSpaceOnUse"
       cx="102"
       cy="112.3047"
       r="139.5585" />
    <radialGradient
       inkscape:collect="always"
       xlink:href="#d"
       id="radialGradient4909"
       gradientUnits="userSpaceOnUse"
       gradientTransform="matrix(0.9787234,0,0,0.9818182,1.361705,1.163636)"
       cx="102"
       cy="112.3047"
       r="139.55859" />
    <linearGradient
       inkscape:collect="always"
       xlink:href="#a"
       id="linearGradient4911"
       gradientUnits="userSpaceOnUse"
       x1="88.591797"
       y1="96.592697"
       x2="71.262016"
       y2="79.262917" />
    <linearGradient
       inkscape:collect="always"
       xlink:href="#b"
       id="linearGradient4913"
       gradientUnits="userSpaceOnUse"
       x1="85.219681"
       y1="93.219681"
       x2="61.336319"
       y2="69.336319" />
    <linearGradient
       inkscape:collect="always"
       xlink:href="#c"
       id="linearGradient4915"
       gradientUnits="userSpaceOnUse"
       x1="96"
       y1="104"
       x2="88.000198"
       y2="96.000198" />
  </defs>
  <sodipodi:namedview
     pagecolor="#ffffff"
     bordercolor="#666666"
     borderopacity="1"
     objecttolerance="10"
     gridtolerance="10"
     guidetolerance="10"
     inkscape:pageopacity="0"
     inkscape:pageshadow="2"
     inkscape:window-width="1366"
     inkscape:window-height="706"
     id="namedview146"
     showgrid="true"
     inkscape:zoom="1.84375"
     inkscape:cx="29.476202"
     inkscape:cy="51.032809"
     inkscape:window-x="0"
     inkscape:window-y="0"
     inkscape:window-maximized="1"
     inkscape:current-layer="svg144">
    <inkscape:grid
       type="xygrid"
       id="grid983"
       spacingx="0.5"
       spacingy="0.5"
       empspacing="2" />
  </sodipodi:namedview>
  <linearGradient
     id="a"
     gradientUnits="userSpaceOnUse"
     x1="88.591797"
     x2="71.262016"
     y1="96.592697"
     y2="79.262917">
    <stop
       offset="0"
       stop-color="#fff"
       id="stop2" />
    <stop
       offset="1"
       stop-color="#555753"
       id="stop4" />
  </linearGradient>
  <linearGradient
     id="b"
     gradientUnits="userSpaceOnUse"
     x1="85.219681"
     x2="61.336319"
     y1="93.219681"
     y2="69.336319">
    <stop
       offset="0"
       id="stop7" />
    <stop
       offset="1"
       stop-color="#393b38"
       id="stop9" />
  </linearGradient>
  <linearGradient
     id="c"
     gradientUnits="userSpaceOnUse"
     x1="96"
     x2="88.000198"
     y1="104"
     y2="96.000198">
    <stop
       offset="0"
       stop-color="#888a85"
       id="stop12" />
    <stop
       offset=".0072"
       stop-color="#8c8e89"
       id="stop14" />
    <stop
       offset=".0673"
       stop-color="#abaca9"
       id="stop16" />
    <stop
       offset=".1347"
       stop-color="#c5c6c4"
       id="stop18" />
    <stop
       offset=".2115"
       stop-color="#dbdbda"
       id="stop20" />
    <stop
       offset=".3012"
       stop-color="#ebebeb"
       id="stop22" />
    <stop
       offset=".4122"
       stop-color="#f7f7f6"
       id="stop24" />
    <stop
       offset=".5679"
       stop-color="#fdfdfd"
       id="stop26" />
    <stop
       offset="1"
       stop-color="#fff"
       id="stop28" />
  </linearGradient>
  <radialGradient
     id="d"
     cx="102"
     cy="112.3047"
     gradientTransform="matrix(0.9787234,0,0,0.9818182,1.361705,1.163636)"
     gradientUnits="userSpaceOnUse"
     r="139.55859">
    <stop
       offset="0"
       stop-color="#535557"
       id="stop31" />
    <stop
       offset=".11366145"
       stop-color="#898a8c"
       id="stop33" />
    <stop
       offset=".20296688"
       stop-color="#ececec"
       id="stop35" />
    <stop
       offset=".2363"
       stop-color="#fafafa"
       id="stop37" />
    <stop
       offset=".2722"
       stop-color="#fff"
       id="stop39" />
    <stop
       offset=".5313"
       stop-color="#fafafa"
       id="stop41" />
    <stop
       offset=".8449"
       stop-color="#ebecec"
       id="stop43" />
    <stop
       offset="1"
       stop-color="#e1e2e3"
       id="stop45" />
  </radialGradient>
  <radialGradient
     id="e"
     cx="102"
     cy="112.3047"
     gradientUnits="userSpaceOnUse"
     r="139.5585">
    <stop
       offset="0"
       stop-color="#00537d"
       id="stop48" />
    <stop
       offset=".0151"
       stop-color="#186389"
       id="stop50" />
    <stop
       offset=".0558"
       stop-color="#558ca8"
       id="stop52" />
    <stop
       offset=".0964"
       stop-color="#89afc3"
       id="stop54" />
    <stop
       offset=".1357"
       stop-color="#b3ccd8"
       id="stop56" />
    <stop
       offset=".1737"
       stop-color="#d4e2e9"
       id="stop58" />
    <stop
       offset=".2099"
       stop-color="#ecf2f5"
       id="stop60" />
    <stop
       offset=".2435"
       stop-color="#fafcfd"
       id="stop62" />
    <stop
       offset=".2722"
       stop-color="#fff"
       id="stop64" />
  </radialGradient>
  <filter
     id="f">
    <feGaussianBlur
       stdDeviation="1.0394514"
       id="feGaussianBlur67" />
  </filter>
  <filter
     id="g">
    <feGaussianBlur
       stdDeviation=".50063244"
       id="feGaussianBlur70" />
  </filter>
  <filter
     id="h">
    <feGaussianBlur
       stdDeviation=".40750996"
       id="feGaussianBlur73" />
  </filter>
  <filter
     id="i">
    <feGaussianBlur
       stdDeviation=".4901192"
       id="feGaussianBlur76" />
  </filter>
  <filter
     id="j">
    <feGaussianBlur
       stdDeviation=".90565481"
       id="feGaussianBlur79" />
  </filter>
  <clipPath
     id="k">
    <path
       d="M 12.000002,4 H 116 V 60 H 12.000002 Z"
       id="path82"
       inkscape:connector-curvature="0" />
  </clipPath>
  <clipPath
     id="l">
    <path
       d="M 12,76.000008 H 116 V 124.00001 H 12 Z"
       id="path85"
       inkscape:connector-curvature="0" />
  </clipPath>
  <g
     id="g1235"
     transform="matrix(0.25,0,0,0.25,0.04513797,-5e-7)">
    <g
       id="g1189">
      <g
         clip-path="url(#l)"
         transform="translate(0,-76.000004)"
         id="g108">
        <path
           d="m 23,9 0.04082,112 h 61.131184 c 0.53,0 1.039,-0.211 1.414,-0.586 L 118.414,87.586 C 118.789,87.211 119,86.702 119,86.172 V 9 Z"
           transform="matrix(1.0416667,0,0,1.0357143,-9.958333,-3.321534)"
           id="path88"
           inkscape:connector-curvature="0"
           style="opacity:0.30684904;filter:url(#f)" />
        <path
           d="M 24.919999,10.931136 V 119.06907 l 58.676001,-1e-4 c 0.53,0 1.039,-0.211 1.414,-0.586 l 31.484,-31.765936 c 0.375,-0.375 0.586,-0.884 0.586,-1.414 V 10.931136 Z"
           transform="matrix(1.0416667,0,0,1.0357143,-9.958333,-3.321534)"
           id="path90"
           inkscape:connector-curvature="0"
           style="opacity:0.89589;filter:url(#g)" />
        <path
           d="M 23,9.9655172 23.040816,121 H 84.172 c 0.53,0 1.039,-0.211 1.414,-0.586 L 118.414,87.586 C 118.789,87.211 119,86.702 119,86.172 V 9.9655172 Z"
           transform="matrix(1.0416667,0,0,1.0357143,-9.958333,-3.321534)"
           id="path92"
           inkscape:connector-curvature="0"
           style="opacity:0.30684904;filter:url(#f)" />
        <path
           d="m 16.000002,8 v 112 h 61.172 c 0.53,0 1.039,-0.211 1.414,-0.586 L 111.414,86.586 C 111.789,86.211 112,85.702 112,85.172 V 8 Z"
           id="path94"
           inkscape:connector-curvature="0"
           style="fill:url(#radialGradient4897)" />
        <path
           d="m 19.678725,10.7 c -0.539276,0 -0.978723,0.440836 -0.978723,0.981818 l -0.7,105.336362 c 0,0.54197 0.439447,0.98182 0.978723,0.98182 h 57.913022 c 0.257404,0 0.509915,-0.10407 0.691957,-0.28767 L 109.71323,85.4812 C 109.89626,85.2976 110,85.045273 110,84.787055 V 10.981818 C 110,10.440836 109.56153,10 109.02128,10 Z"
           id="path96"
           inkscape:connector-curvature="0"
           style="fill:url(#radialGradient4899)" />
        <g
           transform="translate(2e-6)"
           id="g106">
          <path
             d="M 111.414,86.586 C 111.664,86.336 85.035,85 80,85 c -1.654,0 -3,1.346 -3,3 0,5.035 1.336,31.664 1.586,31.414 z"
             id="path98"
             inkscape:connector-curvature="0"
             style="opacity:0.1;fill:url(#linearGradient4901);filter:url(#h)" />
          <path
             d="M 111.414,86.586 C 111.789,86.211 89.444,86 80,86 c -1.103,0 -2,0.897 -2,2 0,9.444 0.211,31.789 0.586,31.414 z"
             id="path100"
             inkscape:connector-curvature="0"
             style="opacity:0.2;filter:url(#j)" />
          <path
             d="M 111.414,86.586 C 111.653,86.347 89.807,87 80,87 c -0.553,0 -1,0.447 -1,1 0,9.807 -0.653,31.653 -0.414,31.414 z"
             id="path102"
             inkscape:connector-curvature="0"
             style="opacity:0.1;fill:url(#linearGradient4903);filter:url(#i)" />
          <path
             d="m 78.586,119.414 c 0,0 11.914,-9.914 17.414,-15.414 5.5,-5.5 15.414,-17.414 15.414,-17.414 0,0 -21.164,1.414 -31.414,1.414 0,10.25 -1.414,31.414 -1.414,31.414 z"
             id="path104"
             inkscape:connector-curvature="0"
             style="fill:url(#linearGradient4905)" />
        </g>
      </g>
      <g
         clip-path="url(#k)"
         transform="translate(-2e-6,68)"
         id="g130">
        <path
           d="m 23,9 0.04082,112 h 61.131184 c 0.53,0 1.039,-0.211 1.414,-0.586 L 118.414,87.586 C 118.789,87.211 119,86.702 119,86.172 V 9 Z"
           transform="matrix(1.0416667,0,0,1.0357143,-9.958333,-3.321534)"
           id="path110"
           inkscape:connector-curvature="0"
           style="opacity:0.30684904;filter:url(#f)" />
        <path
           d="M 24.919999,10.931136 V 119.06907 l 58.676001,-1e-4 c 0.53,0 1.039,-0.211 1.414,-0.586 l 31.484,-31.765936 c 0.375,-0.375 0.586,-0.884 0.586,-1.414 V 10.931136 Z"
           transform="matrix(1.0416667,0,0,1.0357143,-9.958333,-3.321534)"
           id="path112"
           inkscape:connector-curvature="0"
           style="opacity:0.89589;filter:url(#g)" />
        <path
           d="M 23,9.9655172 23.040816,121 H 84.172 c 0.53,0 1.039,-0.211 1.414,-0.586 L 118.414,87.586 C 118.789,87.211 119,86.702 119,86.172 V 9.9655172 Z"
           transform="matrix(1.0416667,0,0,1.0357143,-9.958333,-3.321534)"
           id="path114"
           inkscape:connector-curvature="0"
           style="opacity:0.30684904;filter:url(#f)" />
        <path
           d="m 16.000002,8 v 112 h 61.172 c 0.53,0 1.039,-0.211 1.414,-0.586 L 111.414,86.586 C 111.789,86.211 112,85.702 112,85.172 V 8 Z"
           id="path116"
           inkscape:connector-curvature="0"
           style="fill:url(#radialGradient4907)" />
        <path
           d="m 19.678725,10.7 c -0.539276,0 -0.978723,0.440836 -0.978723,0.981818 l -0.7,105.336362 c 0,0.54197 0.439447,0.98182 0.978723,0.98182 h 57.913022 c 0.257404,0 0.509915,-0.10407 0.691957,-0.28767 L 109.71323,85.4812 C 109.89626,85.2976 110,85.045273 110,84.787055 V 10.981818 C 110,10.440836 109.56153,10 109.02128,10 Z"
           id="path118"
           inkscape:connector-curvature="0"
           style="fill:url(#radialGradient4909)" />
        <g
           transform="translate(2e-6)"
           id="g128">
          <path
             d="M 111.414,86.586 C 111.664,86.336 85.035,85 80,85 c -1.654,0 -3,1.346 -3,3 0,5.035 1.336,31.664 1.586,31.414 z"
             id="path120"
             inkscape:connector-curvature="0"
             style="opacity:0.1;fill:url(#linearGradient4911);filter:url(#h)" />
          <path
             d="M 111.414,86.586 C 111.789,86.211 89.444,86 80,86 c -1.103,0 -2,0.897 -2,2 0,9.444 0.211,31.789 0.586,31.414 z"
             id="path122"
             inkscape:connector-curvature="0"
             style="opacity:0.2;filter:url(#j)" />
          <path
             d="M 111.414,86.586 C 111.653,86.347 89.807,87 80,87 c -0.553,0 -1,0.447 -1,1 0,9.807 -0.653,31.653 -0.414,31.414 z"
             id="path124"
             inkscape:connector-curvature="0"
             style="opacity:0.1;fill:url(#linearGradient4913);filter:url(#i)" />
          <path
             d="m 78.586,119.414 c 0,0 11.914,-9.914 17.414,-15.414 5.5,-5.5 15.414,-17.414 15.414,-17.414 0,0 -21.164,1.414 -31.414,1.414 0,10.25 -1.414,31.414 -1.414,31.414 z"
             id="path126"
             inkscape:connector-curvature="0"
             style="fill:url(#linearGradient4915)" />
        </g>
      </g>
      <g
         id="g142"
         style="fill:#1d60bf">
        <path
           transform="matrix(0.89079669,0,0,1.0019098,0.030421,-2.122227)"
           style="fill:url(#linearGradient991);fill-opacity:1;stroke:none;stroke-width:0.69967699"
           d="m 0.359375,47.302734 a 0.40976813,0.40976813 0 0 0 -0.41992187,0.410157 V 64 80.287109 A 0.40976813,0.40976813 0 0 0 0.5546875,80.642578 L 14.660156,72.5 28.765625,64.355469 a 0.40976813,0.40976813 0 0 0 0,-0.710938 L 14.660156,55.5 0.5546875,47.357422 A 0.40976813,0.40976813 0 0 0 0.359375,47.302734 Z"
           id="path132"
           inkscape:connector-curvature="0" />
        <path
           d="m 32,56 h 16 v 8 H 32 Z"
           id="path134"
           style="fill:url(#linearGradient999);fill-opacity:1"
           inkscape:connector-curvature="0" />
        <path
           style="fill:url(#linearGradient1003);fill-opacity:1"
           id="path1001"
           d="m 56,56 h 16 v 8 H 56 Z"
           inkscape:connector-curvature="0" />
        <path
           inkscape:connector-curvature="0"
           d="m 80,56 h 16 v 8 H 80 Z"
           id="path1005"
           style="fill:url(#linearGradient1007);fill-opacity:1" />
        <path
           style="fill:url(#linearGradient1011);fill-opacity:1"
           id="path1009"
           d="m 104,56 h 16 v 8 h -16 z"
           inkscape:connector-curvature="0" />
        <path
           transform="matrix(0.89079669,0,0,1.0019098,0.030421,-2.122227)"
           style="fill:#bfd9ff;fill-opacity:1;stroke:none;stroke-width:0.69967699"
           d="M 4.4570312,54.826172 V 64 73.173828 L 12.400391,68.587891 20.345703,64 12.400391,59.412109 Z"
           id="path1013"
           inkscape:connector-curvature="0" />
      </g>
    </g>
    <g
       id="g1808">
      <g
         id="g1790"
         transform="translate(2e-6)">
        <path
           id="path1782"
           d="M 111.414,86.586 C 111.664,86.336 85.035,85 80,85 c -1.654,0 -3,1.346 -3,3 0,5.035 1.336,31.664 1.586,31.414 z"
           inkscape:connector-curvature="0"
           style="opacity:0.1;fill:url(#b-3);filter:url(#h-6)" />
        <path
           id="path1784"
           d="M 111.414,86.586 C 111.789,86.211 89.444,86 80,86 c -1.103,0 -2,0.897 -2,2 0,9.444 0.211,31.789 0.586,31.414 z"
           inkscape:connector-curvature="0"
           style="opacity:0.2;filter:url(#j-7)" />
        <path
           id="path1786"
           d="M 111.414,86.586 C 111.653,86.347 89.807,87 80,87 c -0.553,0 -1,0.447 -1,1 0,9.807 -0.653,31.653 -0.414,31.414 z"
           inkscape:connector-curvature="0"
           style="opacity:0.1;fill:url(#c-5);filter:url(#i-3)" />
        <path
           id="path1788"
           d="m 78.586,119.414 c 0,0 11.914,-9.914 17.414,-15.414 5.5,-5.5 15.414,-17.414 15.414,-17.414 0,0 -21.164,1.414 -31.414,1.414 0,10.25 -1.414,31.414 -1.414,31.414 z"
           inkscape:connector-curvature="0"
           style="fill:url(#a-5)" />
      </g>
      <path
         id="path1792"
         d="M 76.468002,50.141159 H 127.66241 V 127.92101 H 76.468002 Z"
         inkscape:connector-curvature="0"
         style="fill:#4d4d4d" />
      <path
         id="path1794"
         d="M 78.610855,51.745529 H 125.51955 V 125.95928 H 78.610855 Z"
         inkscape:connector-curvature="0"
         style="fill:url(#k-6)" />
      <path
         id="path1796"
         d="M 78.611158,51.745994 V 103.03115 C 95.040557,82.469532 110.63648,75.486083 125.51936,74.234275 V 51.745994 Z"
         inkscape:connector-curvature="0"
         style="fill:url(#l-2);fill-rule:evenodd" />
      <path
         id="path1798"
         d="M 90.869019,66.535934 H 113.76095 V 108.68143 H 90.869019 Z"
         inkscape:connector-curvature="0"
         style="fill:url(#m)" />
      <path
         id="path1800"
         transform="matrix(0.69309305,0,0,0.69309305,41.153912,-600.6251)"
         d="m 92.81509,1029.6319 c 1.071428,1.4286 10.71429,15.3572 11.78571,13.5715 1.07143,-1.7858 26.42857,-25.3572 25,-26.7858 -1.42857,-1.4285 -33.928567,-41.78567 -33.928567,-41.78567 z"
         clip-path="url(#o)"
         inkscape:connector-curvature="0"
         style="fill:url(#n);fill-rule:evenodd;filter:url(#p)" />
      <path
         id="path1802"
         d="M 92.998886,69.547226 H 111.63107 V 105.67019 H 92.998886 Z"
         inkscape:connector-curvature="0"
         style="fill:#171717" />
      <path
         id="path1804"
         d="M 94.788589,74.331589 H 109.84138 V 92.040753 H 94.788589 Z"
         inkscape:connector-curvature="0"
         style="fill:url(#q)" />
      <path
         id="path1806"
         transform="scale(1,-1)"
         d="m 94.827606,-113.59648 h 14.974744 v 21.984106 H 94.827606 Z"
         inkscape:connector-curvature="0"
         style="fill:url(#r)" />
    </g>
  </g>
</svg>
