<?xml version="1.0" encoding="UTF-8" standalone="no"?>
<!-- Created with Inkscape (http://www.inkscape.org/) -->

<svg
   xmlns:dc="http://purl.org/dc/elements/1.1/"
   xmlns:cc="http://creativecommons.org/ns#"
   xmlns:rdf="http://www.w3.org/1999/02/22-rdf-syntax-ns#"
   xmlns:svg="http://www.w3.org/2000/svg"
   xmlns="http://www.w3.org/2000/svg"
   xmlns:xlink="http://www.w3.org/1999/xlink"
   xmlns:sodipodi="http://sodipodi.sourceforge.net/DTD/sodipodi-0.dtd"
   xmlns:inkscape="http://www.inkscape.org/namespaces/inkscape"
   width="32"
   height="32"
   id="svg2606"
   sodipodi:version="0.32"
   inkscape:version="0.92.3 (2405546, 2018-03-11)"
   version="1.0"
   sodipodi:docname="insertscript.svg"
   inkscape:output_extension="org.inkscape.output.svgz.inkscape"
   inkscape:export-filename="/home/rizmut/Dokumen/Rizmut/Github/libreoffice-style-karasa-jaga/build/next/cmd/32/insertscript.png"
   inkscape:export-xdpi="96"
   inkscape:export-ydpi="96">
  <defs
     id="defs2608">
    <linearGradient
       id="linearGradient6131">
      <stop
         id="stop6133"
         offset="0"
         style="stop-color:#fcfcfc;stop-opacity:1" />
      <stop
         style="stop-color:#f8f8f8;stop-opacity:1"
         offset="0.52275378"
         id="stop6135" />
      <stop
         id="stop6141"
         offset="0.77457333"
         style="stop-color:#f0efef;stop-opacity:1;" />
      <stop
         id="stop6139"
         offset="0.90122044"
         style="stop-color:#e3e1e1;stop-opacity:1;" />
      <stop
         id="stop6137"
         offset="1"
         style="stop-color:#cecbcb;stop-opacity:1" />
    </linearGradient>
    <linearGradient
       inkscape:collect="always"
       xlink:href="#linearGradient6131"
       id="linearGradient3893"
       gradientUnits="userSpaceOnUse"
       gradientTransform="matrix(1.0119858,0,0,1.0119858,-0.89554075,-0.9871566)"
       x1="86.73793"
       y1="93.621468"
       x2="95.460213"
       y2="102.34375" />
    <radialGradient
       inkscape:collect="always"
       xlink:href="#linearGradient3913-5"
       id="radialGradient3919-5"
       cx="90.75"
       cy="110.25299"
       fx="90.75"
       fy="110.25299"
       r="18.750002"
       gradientTransform="matrix(1.3067347,0,0,1.3067347,-27.83617,-33.818441)"
       gradientUnits="userSpaceOnUse" />
    <linearGradient
       inkscape:collect="always"
       id="linearGradient3913-5">
      <stop
         style="stop-color:#ffffff;stop-opacity:1;"
         offset="0"
         id="stop3915-4" />
      <stop
         style="stop-color:#ffffff;stop-opacity:0;"
         offset="1"
         id="stop3917-7" />
    </linearGradient>
    <clipPath
       clipPathUnits="userSpaceOnUse"
       id="clipPath3889-6">
      <path
         sodipodi:nodetypes="cscscssc"
         inkscape:connector-curvature="0"
         id="path3891-5"
         d="m 112,82.502986 c 0,4.465301 -2.79749,6.409952 -5.27972,8.093625 -5.10854,3.46508 -14.939114,3.32536 -20.720284,3.40638 -0.081,5.781159 0.16586,15.504599 -3.29922,20.613139 -1.68367,2.48224 -5.29051,5.38687 -8.20078,5.38687 2.31803,0 4.74284,-1.33476 7.58402,-4.08481 9.14197,-8.84873 17.36714,-16.13535 25.673154,-25.297529 C 109.67612,88.503916 112,86.97878 112,82.502986 Z"
         style="fill:url(#linearGradient3893);fill-opacity:1;stroke:none" />
    </clipPath>
    <filter
       inkscape:collect="always"
       id="filter3909-6"
       style="color-interpolation-filters:sRGB">
      <feGaussianBlur
         inkscape:collect="always"
         stdDeviation="0.43040059"
         id="feGaussianBlur3911-9" />
    </filter>
    <linearGradient
       inkscape:collect="always"
       xlink:href="#linearGradient3897-7"
       id="linearGradient3895-3"
       gradientUnits="userSpaceOnUse"
       gradientTransform="matrix(1.3731411,0,0,1.4035776,-41.378546,-43.42319)"
       x1="82.15696"
       y1="90.381706"
       x2="94.220871"
       y2="102.18401" />
    <linearGradient
       id="linearGradient3897-7">
      <stop
         style="stop-color:#fcfcfc;stop-opacity:1"
         offset="0"
         id="stop3899-4" />
      <stop
         id="stop3901-5"
         offset="0.52275378"
         style="stop-color:#f8f8f8;stop-opacity:1" />
      <stop
         style="stop-color:#f0efef;stop-opacity:1;"
         offset="0.72337759"
         id="stop3903-2" />
      <stop
         style="stop-color:#e3e1e1;stop-opacity:1;"
         offset="0.89024991"
         id="stop3905-5" />
      <stop
         style="stop-color:#cecbcb;stop-opacity:1"
         offset="1"
         id="stop3907-4" />
    </linearGradient>
    <clipPath
       clipPathUnits="userSpaceOnUse"
       id="clipPath6093-7">
      <path
         inkscape:connector-curvature="0"
         sodipodi:nodetypes="cccssccc"
         id="path6095-4"
         d="m 17.000001,8 0.782827,110 h 57.5 c 1.675283,0 3.119418,0.18058 4.9,-1.6 C 88.980763,107.60206 99.94047,96.548195 107.19904,89.224043 109.6396,86.761431 110,84.752873 110,82.5 V 8 Z"
         style="fill:#ffffff;fill-opacity:1" />
    </clipPath>
    <radialGradient
       inkscape:collect="always"
       xlink:href="#linearGradient5982-7"
       id="radialGradient5988-0"
       cx="64"
       cy="64.004021"
       fx="63.793392"
       fy="47.274845"
       r="47.5"
       gradientTransform="matrix(1.7069944,-0.08541345,0.06979496,1.3941371,-50.362376,-20.218185)"
       gradientUnits="userSpaceOnUse" />
    <linearGradient
       inkscape:collect="always"
       id="linearGradient5982-7">
      <stop
         style="stop-color:#ffffff;stop-opacity:1;"
         offset="0"
         id="stop5984-8" />
      <stop
         style="stop-color:#ffffff;stop-opacity:0;"
         offset="1"
         id="stop5986-6" />
    </linearGradient>
    <filter
       inkscape:collect="always"
       id="filter6171-8"
       x="-0.47870937"
       width="1.9574188"
       y="-0.51275069"
       height="2.0255013"
       style="color-interpolation-filters:sRGB">
      <feGaussianBlur
         inkscape:collect="always"
         stdDeviation="10.140743"
         id="feGaussianBlur6173-8" />
    </filter>
    <linearGradient
       inkscape:collect="always"
       xlink:href="#linearGradient4518-3"
       id="linearGradient4524-4"
       x1="72"
       y1="0"
       x2="72"
       y2="116.40091"
       gradientUnits="userSpaceOnUse"
       gradientTransform="matrix(1.013528,0,0,1.013266,-1.5133685,-1.3073648)" />
    <linearGradient
       id="linearGradient4518-3">
      <stop
         style="stop-color:#eeecec;stop-opacity:1"
         offset="0"
         id="stop4520-1" />
      <stop
         id="stop5969-4"
         offset="0.40000001"
         style="stop-color:#f4f4f4;stop-opacity:1" />
      <stop
         style="stop-color:#f6f5f5;stop-opacity:1"
         offset="1"
         id="stop4522-9" />
    </linearGradient>
    <filter
       inkscape:collect="always"
       id="filter4123">
      <feGaussianBlur
         inkscape:collect="always"
         stdDeviation="2.028"
         id="feGaussianBlur4125" />
    </filter>
    <filter
       inkscape:collect="always"
       id="filter4087"
       x="-0.16465071"
       width="1.3293014"
       y="-0.2041295"
       height="1.408259">
      <feGaussianBlur
         inkscape:collect="always"
         stdDeviation="4.2234282"
         id="feGaussianBlur4089" />
    </filter>
    <filter
       inkscape:collect="always"
       id="filter4084">
      <feGaussianBlur
         inkscape:collect="always"
         stdDeviation="1.4598961"
         id="feGaussianBlur4086" />
    </filter>
    <clipPath
       clipPathUnits="userSpaceOnUse"
       id="clipPath8205">
      <path
         style="opacity:0.84653476;fill:url(#radialGradient8209);fill-opacity:1"
         d="m 18.5,10.000003 c -0.339844,0 -0.5,0.234618 -0.5,0.5 V 120.21876 c 0,0.82158 0.679616,1.47823 1.5,1.5 l 55.5,1.47255 c 0.05305,0.001 3.273884,-0.008 3.9635,5e-5 6.540972,-4.50366 20.6373,-19.95333 29.58253,-28.955137 1.47685,-1.65649 0.4576,-0.37007 1.45391,-1.60746 L 110,10.500003 c 0,-0.322717 -0.16322,-0.5 -0.5,-0.5 z"
         id="path8207"
         inkscape:connector-curvature="0"
         sodipodi:nodetypes="ccssscccccc" />
    </clipPath>
    <filter
       inkscape:collect="always"
       id="filter3542-2"
       style="color-interpolation-filters:sRGB">
      <feGaussianBlur
         inkscape:collect="always"
         stdDeviation="1.56"
         id="feGaussianBlur3544-0" />
    </filter>
    <linearGradient
       inkscape:collect="always"
       xlink:href="#radialGradient9766-6"
       id="linearGradient15284"
       gradientUnits="userSpaceOnUse"
       gradientTransform="matrix(0.6785714,0,0,0.7083335,17.857477,26.780105)"
       x1="45.123108"
       y1="21.220039"
       x2="94.190605"
       y2="114.55814" />
    <radialGradient
       id="radialGradient9766-6"
       cx="52"
       cy="-31"
       r="136.00369"
       gradientUnits="userSpaceOnUse">
      <stop
         offset="0"
         style="stop-color:#8e8e8e;stop-opacity:1;"
         id="stop9768-8" />
      <stop
         id="stop9774-9"
         style="stop-color:#ababab;stop-opacity:1;"
         offset="0.5" />
      <stop
         offset="1"
         style="stop-color:#9d9d9d;stop-opacity:1;"
         id="stop9772-2" />
    </radialGradient>
    <linearGradient
       inkscape:collect="always"
       xlink:href="#radialGradient5295-6"
       id="linearGradient15286"
       gradientUnits="userSpaceOnUse"
       gradientTransform="matrix(0.6428571,0,0,0.6666667,20.143197,29.446773)"
       x1="8"
       y1="40.665478"
       x2="120"
       y2="64" />
    <radialGradient
       gradientUnits="userSpaceOnUse"
       r="136.00369"
       cy="-31"
       cx="52"
       id="radialGradient5295-6">
      <stop
         id="stop5297-6"
         style="stop-color:#c6c6c6;stop-opacity:1;"
         offset="0" />
      <stop
         id="stop5299-4"
         style="stop-color:#EEEEEE"
         offset="0.52140325" />
      <stop
         id="stop5301-9"
         style="stop-color:#c6c6c6;stop-opacity:1;"
         offset="1" />
    </radialGradient>
    <linearGradient
       inkscape:collect="always"
       xlink:href="#XMLID_94_-5"
       id="linearGradient15288"
       gradientUnits="userSpaceOnUse"
       gradientTransform="matrix(0.9867021,0,0,1,1.61969,0)"
       x1="9"
       y1="24.324116"
       x2="106.55763"
       y2="53.655067" />
    <linearGradient
       id="XMLID_94_-5"
       gradientUnits="userSpaceOnUse"
       x1="9"
       y1="24.324116"
       x2="106.55763"
       y2="53.655067">
      <stop
         offset="0"
         style="stop-color:#555753"
         id="stop35-6-0" />
      <stop
         offset="0.6272"
         style="stop-color:#2E2E2E"
         id="stop37-4" />
      <stop
         offset="1"
         style="stop-color:#2E2E2E"
         id="stop39-8" />
    </linearGradient>
  </defs>
  <sodipodi:namedview
     id="base"
     pagecolor="#ffffff"
     bordercolor="#666666"
     borderopacity="1.0"
     inkscape:pageopacity="0.0"
     inkscape:pageshadow="2"
     inkscape:zoom="15"
     inkscape:cx="16"
     inkscape:cy="18.666667"
     inkscape:document-units="px"
     inkscape:current-layer="g945"
     width="128px"
     height="128px"
     showgrid="true"
     inkscape:grid-points="true"
     showguides="true"
     inkscape:guide-bbox="true"
     inkscape:window-width="1224"
     inkscape:window-height="710"
     inkscape:window-x="0"
     inkscape:window-y="28"
     inkscape:snap-global="true"
     inkscape:window-maximized="0"
     inkscape:snap-page="true">
    <inkscape:grid
       id="GridFromPre046Settings"
       type="xygrid"
       originx="0"
       originy="0"
       spacingx="0.5"
       spacingy="0.5"
       color="#0000ff"
       empcolor="#0000ff"
       opacity="0.2"
       empopacity="0.4"
       empspacing="2"
       visible="true"
       enabled="true"
       snapvisiblegridlinesonly="true" />
    <sodipodi:guide
       orientation="1,0"
       position="-68,29.325902"
       id="guide4564"
       inkscape:locked="false" />
    <sodipodi:guide
       orientation="1,0"
       position="-121.62237,135.0574"
       id="guide3859"
       inkscape:locked="false" />
    <sodipodi:guide
       orientation="0,1"
       position="38.581514,-74.688154"
       id="guide4360"
       inkscape:locked="false" />
  </sodipodi:namedview>
  <metadata
     id="metadata2611">
    <rdf:RDF>
      <cc:Work
         rdf:about="">
        <dc:format>image/svg+xml</dc:format>
        <dc:type
           rdf:resource="http://purl.org/dc/dcmitype/StillImage" />
        <dc:title></dc:title>
      </cc:Work>
    </rdf:RDF>
  </metadata>
  <g
     inkscape:label="Livello 1"
     inkscape:groupmode="layer"
     id="layer1"
     transform="translate(0,-96)">
    <g
       id="g945"
       transform="matrix(0.25,0,0,0.25,0,95.986305)">
      <path
         transform="matrix(1.013528,0,0,1.013266,-1.5133689,-1.3073677)"
         sodipodi:nodetypes="ccsssccccccc"
         inkscape:connector-curvature="0"
         id="path5990"
         d="M 13.333,5.3364 V 123.6668 L 63.1875,123.6 c 2.115554,-0.003 4.528919,-1.77169 7,-4.25 0.71234,-0.71442 1.440746,-1.39395 2.15625,-2.09375 0.415612,-0.40649 0.832187,-0.81443 1.25,-1.21875 7.773958,-7.40962 26.98341,-25.122599 34.21875,-33.099999 0.42065,-0.42064 0.81207,-0.8111 1.15625,-1.1875 1.46444,-1.49766 2.76158,-2.8378 2.99375,-5.8625 L 112,75.156251 111.9972,5.3364 Z"
         style="opacity:0.45606695;fill:#000000;fill-opacity:1;filter:url(#filter4123)" />
      <path
         transform="matrix(1.013528,0,0,1.013266,-1.5133689,-1.3073677)"
         d="m 13.246094,4.84375 c -0.208011,0.048165 -0.401122,0.2851257 -0.400391,0.4980469 a 0.31469455,0.31469455 0 0 1 0,0.00195 v 118.30664 c 0.0043,0.23765 0.266208,0.49961 0.503906,0.50391 H 62.15625 c 1.805649,0 3.560459,0.28929 6.349609,-1.59766 0.03711,-0.0388 0.07201,-0.0851 0.121094,-0.12891 0.08359,-0.0745 0.188131,-0.16299 0.306641,-0.25976 0.23702,-0.19354 0.528336,-0.42124 0.792968,-0.62891 0.217665,-0.17081 0.382332,-0.30341 0.513672,-0.41015 a 0.31469455,0.31469455 0 0 1 0.07422,-0.10743 c 9.63616,-9.15378 27.613554,-28.820625 38.804687,-40.148433 a 0.31469455,0.31469455 0 0 1 0.002,-0.002 c 1.72022,-1.720217 3.37696,-3.28053 3.37696,-7.558594 V 5.3496094 C 112.49374,5.111926 112.2318,4.8499975 111.99414,4.8457031 H 13.34375 a 0.31469455,0.31469455 0 0 1 -0.0293,-0.00195 c -0.0225,-0.00213 -0.04572,-8.527e-4 -0.06836,0 z"
         id="path3314"
         style="fill:#000000;fill-opacity:1;filter:url(#filter4084)"
         inkscape:original="M 13.1875 4.53125 C 12.818918 4.609246 12.529956 4.967008 12.53125 5.34375 L 12.53125 123.65625 C 12.53885 124.07954 12.920464 124.4611 13.34375 124.46875 L 62.15625 124.46875 C 63.930251 124.46875 65.829207 124.74865 68.6875 122.8125 C 68.829003 122.58432 71.218784 120.82456 70.53125 121.25 C 80.188854 112.07585 98.162197 92.41186 109.34375 81.09375 C 111.06182 79.375681 112.8125 77.674752 112.8125 73.3125 L 112.8125 5.34375 C 112.80483 4.9204809 112.42327 4.5388981 112 4.53125 L 13.34375 4.53125 C 13.29182 4.52633 13.239428 4.52633 13.1875 4.53125 z "
         inkscape:radius="-0.31466308"
         sodipodi:type="inkscape:offset" />
      <path
         inkscape:connector-curvature="0"
         sodipodi:nodetypes="cccssccc"
         id="path34"
         d="m 12,4 v 120 h 49.999784 c 1.697965,0 3.967298,-0.57754 7.094784,-3.68191 8.990151,-8.92376 32.510002,-32.235741 39.866862,-39.726545 2.47359,-2.518643 3.04157,-4.572903 3.04157,-6.87703 L 112,4 Z"
         style="fill:#ffffff;fill-opacity:1" />
      <path
         sodipodi:nodetypes="ccsssccscccc"
         inkscape:connector-curvature="0"
         id="path3967"
         d="M 15.506762,7 C 15.162322,7 15,7.2377304 15,7.5066333 V 119.48009 c 0,0.83248 0.688512,1.5205 1.520292,1.51991 l 44.959416,-0.0317 c 0.05379,-4e-5 0.821348,0.0237 1.520292,0.0317 1.801712,-0.0406 3.174343,-0.76374 4.414963,-1.61442 C 68.481059,119.09069 97.540465,90.697457 106.78496,81.385896 108.1658,79.995068 109,77.38535 109,76.425341 V 7.5066332 C 109,7.179635 108.83457,7 108.49323,7 Z"
         style="fill:url(#linearGradient4524-4);fill-opacity:1" />
      <path
         style="opacity:0.84653476;fill:url(#radialGradient5988-0);fill-opacity:1"
         d="M 15.506762,7 C 15.162322,7 15,7.2377304 15,7.5066333 V 119.48009 c 0,0.83249 0.688527,1.51486 1.520292,1.51991 l 46.845657,0.2846 c 0.05379,3.3e-4 3.318172,-0.008 4.017117,5e-5 6.629458,-4.5634 31.077115,-31.337425 40.143354,-40.458653 0.66623,-0.74707 0.46379,-0.37498 1.47358,-1.628786 V 7.5066332 C 109,7.179635 108.83457,7 108.49323,7 Z"
         id="path5980"
         inkscape:connector-curvature="0"
         sodipodi:nodetypes="ccssscccccc" />
      <g
         clip-path="url(#clipPath8205)"
         id="g8179"
         transform="matrix(1.3762387,0,0,1.387681,-40.784426,-49.847743)">
        <g
           id="g5785"
           transform="matrix(0.75658149,0,0,0.75658149,32.429012,30.656003)"
           clip-path="none">
          <g
             style="opacity:0.6;fill:#000000;fill-opacity:1;filter:url(#filter3542-2)"
             id="g4493"
             transform="matrix(0.6785714,0,0,0.7291667,28.036047,38.113447)">
            <radialGradient
               id="radialGradient4495"
               cx="52"
               cy="-31"
               r="136.00369"
               gradientUnits="userSpaceOnUse">
              <stop
                 offset="0"
                 style="stop-color:#BBBBBB"
                 id="stop4497" />
              <stop
                 offset="0.3077"
                 style="stop-color:#EEEEEE"
                 id="stop4499" />
              <stop
                 offset="0.7811"
                 style="stop-color:#BBBBBB"
                 id="stop4501" />
              <stop
                 offset="1"
                 style="stop-color:#DBDBDB"
                 id="stop4503" />
            </radialGradient>
            <path
               d="m -4.1301005,0.19589042 c -1.6499999,0 -3.0023903,1.35000148 -2.9999999,2.99999988 l 0.1301008,89.8041037 c 0.00239,1.649999 1.35,3 2.9999999,3 H 102.88237 c 1.65,0 3,-1.35 3,-3 V 3.1958903 c 0,-1.6499999 -1.35,-2.99999988 -3,-2.99999988 z"
               id="path4505"
               style="fill:#000000;fill-opacity:1"
               inkscape:connector-curvature="0"
               sodipodi:nodetypes="sssssssss" />
          </g>
          <path
             d="m 25.233475,37.463243 c -1.11964,0 -2.03571,0.956249 -2.03571,2.125 v 64.304137 c 0,1.16876 0.91607,2.125 2.03571,2.125 h 72.760292 c 1.11964,0 2.038343,-0.95624 2.035713,-2.125 L 99.884796,39.588243 c -0.0026,-1.168748 -0.91607,-2.125 -2.03571,-2.125 z"
             id="path19"
             style="fill:url(#linearGradient15284);fill-opacity:1"
             inkscape:connector-curvature="0"
             sodipodi:nodetypes="sssssssss" />
          <path
             style="fill:url(#linearGradient15286);fill-opacity:1"
             d="m 27.013196,39.49027 c -1.644046,0 -2.96875,1.383256 -2.96875,3.03125 V 102.125 c 0,1.64799 1.324704,3.03125 2.96875,3.03125 h 69.128873 c 1.644041,0 2.96875,-1.38325 2.96875,-3.03125 V 42.52152 c 0,-1.648 -1.324709,-3.03125 -2.96875,-3.03125 z"
             id="path5816"
             inkscape:connector-curvature="0"
             sodipodi:nodetypes="sssssssss" />
          <rect
             id="rect30"
             height="41.909004"
             width="76.831711"
             y="48.868744"
             x="23.197765" />
          <g
             transform="matrix(0.7762804,0,0,0.6857143,17.135107,41.942017)"
             id="g32">
            <linearGradient
               y2="83"
               x2="55.9995"
               y1="7"
               x1="55.9995"
               gradientUnits="userSpaceOnUse"
               id="linearGradient3040">
              <stop
                 id="stop3042-2"
                 style="stop-color:#555753"
                 offset="0" />
              <stop
                 id="stop3044-7"
                 style="stop-color:#2E2E2E"
                 offset="0.6272" />
              <stop
                 id="stop3046"
                 style="stop-color:#2E2E2E"
                 offset="1" />
            </linearGradient>
            <path
               style="fill:url(#linearGradient15288)"
               id="path41"
               d="m 104.27839,67.488077 c 0,1.65 -1.33204,3 -2.9601,3 H 13.460115 c -1.628058,0 -2.960106,-1.35 -2.960106,-3 V 15.855059 c 0,-1.65 1.332048,-3 2.960106,-3 h 87.858175 c 1.62806,0 2.9601,1.35 2.9601,3 z"
               inkscape:connector-curvature="0"
               sodipodi:nodetypes="sssssssss" />
          </g>
          <path
             style="opacity:0.1;fill:#ffffff"
             id="path43"
             d="M 23.286047,79.566364 C 54.509107,64.486469 85.149696,60.983688 99.884796,60.216896 L 100.02948,48.868745 H 23.197765 Z"
             inkscape:connector-curvature="0"
             sodipodi:nodetypes="ccccc" />
        </g>
        <g
           transform="translate(-13.999998,-9.0000012)"
           style="font-style:normal;font-variant:normal;font-weight:normal;font-stretch:normal;font-size:30px;line-height:125%;font-family:'Liberation Sans';-inkscape-font-specification:'Liberation Sans';letter-spacing:0px;word-spacing:0px;fill:#000000;fill-opacity:1;stroke:none"
           id="text4329">
          <path
             d="M 68.079512,95.744141 V 93.50293 L 80.147871,88.126953 68.079512,82.765625 v -2.255859 l 14.075195,6.123046 v 3.00293 l -14.075195,6.108399"
             id="path4334"
             inkscape:connector-curvature="0"
             sodipodi:nodetypes="cccccccc"
             style="fill:#ffffff;fill-opacity:1" />
          <path
             d="M 84.325317,99.689247 84.642246,96.85349 98.85768,96.80674 v 2.882507 H 84.325317"
             id="path4336"
             inkscape:connector-curvature="0"
             sodipodi:nodetypes="ccccc"
             style="fill:#ffffff;fill-opacity:1" />
        </g>
      </g>
      <path
         id="path2197"
         d=""
         style="fill:#000000"
         inkscape:connector-curvature="0" />
      <path
         transform="matrix(1.2713893,0,0,1.3008089,-31.411352,-31.072453)"
         sodipodi:nodetypes="cscscssc"
         inkscape:connector-curvature="0"
         id="path6153"
         d="m 114.4,82.502986 c 0,4.465301 -6.19771,3.506816 -8.67994,5.190489 -5.10854,3.46508 -20.174689,2.225237 -25.955859,2.306257 -0.081,5.781159 0.786541,16.143798 0.786541,22.293818 0,2.97817 -3.440475,11.20945 -6.350745,11.20945 -2.091359,1.5337 3.488204,8.21101 6.734971,5.31989 9.501888,-8.46107 35.131682,-30.022704 43.350822,-39.262889 2.04044,-2.29392 -4.90514,-9.844666 -9.88579,-7.057015 z"
         style="opacity:0.34728035;fill:#000000;fill-opacity:1;stroke:none;filter:url(#filter6171-8)"
         clip-path="url(#clipPath6093-7)" />
      <path
         transform="matrix(1.323697,0,0,1.3543271,-37.27081,-37.383179)"
         clip-path="url(#clipPath6093-7)"
         style="opacity:0.49295774;fill:#000000;fill-opacity:1;stroke:none;filter:url(#filter4087)"
         d="m 113.9,82.502986 c 0,4.465301 -7.96273,11.129672 -10.95287,11.553449 -6.394981,0.906328 -15.824979,-3.47754 -21.606149,-3.39652 -0.081,5.781159 3.918356,18.962455 0.453276,24.070995 -1.68367,2.48224 -3.883991,8.07209 -6.794261,8.07209 -2.091359,1.5337 3.488204,11.21101 6.734971,8.31989 9.501888,-8.46107 45.998943,-30.20138 54.218083,-39.441569 2.04044,-2.29392 -17.0724,-11.965986 -22.05305,-9.178335 z"
         id="path6081"
         inkscape:connector-curvature="0"
         sodipodi:nodetypes="cscscssc" />
      <path
         sodipodi:nodetypes="cscscssc"
         inkscape:connector-curvature="0"
         id="path6011"
         d="m 111.80692,72.373791 c 0,6.193164 -3.79585,8.890306 -7.16393,11.225476 C 97.711316,88.405175 83.444341,87.387629 75.6,87.5 c -0.109909,8.0182 0.701692,21.4147 -4,28.5 -2.284534,3.44276 -6.727129,8.38457 -10.67601,8.38457 3.145284,0 6.435454,-1.85125 10.290589,-5.66544 12.404537,-12.27278 23.56509,-22.378984 34.835341,-35.086504 2.60379,-2.935824 5.757,-5.051122 5.757,-11.258835 z"
         style="fill:url(#linearGradient3895-3);fill-opacity:1;stroke:none" />
      <path
         sodipodi:nodetypes="cscsccccsscccc"
         inkscape:connector-curvature="0"
         id="path6122"
         d="m 111.83234,71.941762 c -0.42932,5.407885 -4.39696,7.298568 -6.55729,8.796367 C 100.15305,84.28932 93.349113,84 72,84 c 0,19.65502 0.5,28.4 -3.219913,33.20293 -2.21447,2.85919 -6.648335,6.04727 -10.26176,6.86542 4.951272,0 8.407066,-1.08166 11.641616,-4.28186 0.460141,-0.53889 1.37925,-1.54169 2.101048,-2.68043 C 76.100178,111.32051 76,99.904353 76,88 c 7.844341,-0.112342 21.630842,1.155905 28.5625,-3.65 0.63154,-0.437847 2.56984,-2.009889 3.13546,-2.57551 3.14173,-3.14173 3.82294,-5.144366 4.13438,-9.832728 z M 58.518327,124.06835 c -0.213922,0.0483 -0.425295,0.0575 -0.636038,0.0866 0.213019,-0.0234 0.421235,-0.0465 0.636038,-0.0866 z"
         style="fill:#ffffff;fill-opacity:1;stroke:none" />
      <path
         transform="matrix(1.3568778,0,0,1.3869539,-40.163409,-42.054049)"
         clip-path="url(#clipPath3889-6)"
         sodipodi:nodetypes="cc"
         inkscape:connector-curvature="0"
         id="path3873"
         d="M 108.97651,89.508691 79.934895,118.21077"
         style="fill:none;stroke:url(#radialGradient3919-5);stroke-width:1.85605633;stroke-linecap:butt;stroke-linejoin:miter;stroke-miterlimit:4;stroke-dasharray:none;stroke-opacity:1;filter:url(#filter3909-6)" />
    </g>
  </g>
</svg>
