<?xml version="1.0" encoding="UTF-8" standalone="no"?>
<svg
   xmlns:dc="http://purl.org/dc/elements/1.1/"
   xmlns:cc="http://creativecommons.org/ns#"
   xmlns:rdf="http://www.w3.org/1999/02/22-rdf-syntax-ns#"
   xmlns:svg="http://www.w3.org/2000/svg"
   xmlns="http://www.w3.org/2000/svg"
   xmlns:xlink="http://www.w3.org/1999/xlink"
   xmlns:sodipodi="http://sodipodi.sourceforge.net/DTD/sodipodi-0.dtd"
   xmlns:inkscape="http://www.inkscape.org/namespaces/inkscape"
   enable-background="new 0 0 128 128"
   height="32"
   viewBox="0 0 32 32"
   width="32"
   version="1.1"
   id="svg104"
   sodipodi:docname="insertpage.svg"
   inkscape:version="0.92.3 (2405546, 2018-03-11)"
   inkscape:export-filename="/home/rizmut/Dokumen/Rizmut/Github/libreoffice-style-karasa-jaga/build/next/cmd/32/insertpage.png"
   inkscape:export-xdpi="96"
   inkscape:export-ydpi="96">
  <metadata
     id="metadata110">
    <rdf:RDF>
      <cc:Work
         rdf:about="">
        <dc:format>image/svg+xml</dc:format>
        <dc:type
           rdf:resource="http://purl.org/dc/dcmitype/StillImage" />
        <dc:title></dc:title>
      </cc:Work>
    </rdf:RDF>
  </metadata>
  <defs
     id="defs108">
    <linearGradient
       id="o"
       gradientUnits="userSpaceOnUse"
       x1="70"
       x2="130"
       y1="98"
       y2="98">
      <stop
         offset="0"
         stop-color="#066704"
         id="stop1474" />
      <stop
         offset="1"
         stop-color="#077d05"
         stop-opacity=".839216"
         id="stop1476" />
    </linearGradient>
    <radialGradient
       id="p"
       cx="108.95794"
       cy="91.491646"
       gradientTransform="matrix(1.0783631,-0.16325698,0.14968763,0.98873334,-23.191389,17.327301)"
       gradientUnits="userSpaceOnUse"
       r="30"
       xlink:href="#f-3" />
    <linearGradient
       id="f-3">
      <stop
         offset="0"
         stop-color="#011701"
         id="stop1441" />
      <stop
         offset=".80671918"
         stop-color="#145703"
         id="stop1443" />
      <stop
         offset="1"
         stop-color="#2fa207"
         stop-opacity=".384314"
         id="stop1445" />
    </linearGradient>
    <radialGradient
       id="n"
       cx="92.257149"
       cy="104.91638"
       gradientTransform="matrix(1.0783631,-0.16325698,0.14968763,0.98873334,-23.191389,17.327301)"
       gradientUnits="userSpaceOnUse"
       r="30"
       xlink:href="#f-3" />
    <linearGradient
       id="g-6"
       gradientTransform="scale(1.0975951,0.9110828)"
       gradientUnits="userSpaceOnUse"
       x1="26.091133"
       x2="31.500689"
       xlink:href="#a-7"
       y1="14.856744"
       y2="14.856744" />
    <linearGradient
       id="a-7">
      <stop
         offset="0"
         stop-color="#fff"
         id="stop1410" />
      <stop
         offset="1"
         stop-color="#fff"
         stop-opacity="0"
         id="stop1412" />
    </linearGradient>
    <filter
       id="h-5"
       height="1.277481"
       width="1.279832"
       x="-0.139916"
       y="-0.138741">
      <feGaussianBlur
         stdDeviation=".28784801"
         id="feGaussianBlur1449" />
    </filter>
    <linearGradient
       id="i-3"
       gradientUnits="userSpaceOnUse"
       x1="304.88663"
       x2="345.62039"
       y1="385.86127"
       y2="384.62384">
      <stop
         offset="0"
         stop-color="#fff"
         stop-opacity=".683453"
         id="stop1452" />
      <stop
         offset="1"
         stop-color="#fff"
         stop-opacity="0"
         id="stop1454" />
    </linearGradient>
    <filter
       id="filter2285"
       height="1.277481"
       width="1.279832"
       x="-0.139916"
       y="-0.138741">
      <feGaussianBlur
         stdDeviation=".28784801"
         id="feGaussianBlur2283" />
    </filter>
    <radialGradient
       id="m"
       cx="96"
       cy="102"
       gradientUnits="userSpaceOnUse"
       r="26">
      <stop
         offset="0"
         stop-color="#7ae91e"
         stop-opacity=".996078"
         id="stop1468" />
      <stop
         offset="1"
         stop-color="#62c916"
         id="stop1470" />
    </radialGradient>
    <linearGradient
       id="l"
       gradientUnits="userSpaceOnUse"
       x1="93.673332"
       x2="105.63081"
       xlink:href="#a-7"
       y1="57.081059"
       y2="114.86784" />
    <filter
       style="color-interpolation-filters:sRGB"
       id="q"
       height="1.048"
       width="1.048"
       x="-0.024"
       y="-0.024">
      <feGaussianBlur
         stdDeviation=".52"
         id="feGaussianBlur1480" />
    </filter>
    <filter
       id="filter2309"
       height="1.277481"
       width="1.279832"
       x="-0.139916"
       y="-0.138741">
      <feGaussianBlur
         stdDeviation=".28784801"
         id="feGaussianBlur2307" />
    </filter>
    <linearGradient
       id="j-5"
       gradientUnits="userSpaceOnUse"
       spreadMethod="reflect"
       x1="88.606247"
       x2="91.575104"
       y1="13.510336"
       y2="13.510336">
      <stop
         offset="0"
         stop-color="#c8ff87"
         id="stop1457" />
      <stop
         offset="1"
         stop-color="#abff87"
         stop-opacity="0"
         id="stop1459" />
    </linearGradient>
    <filter
       id="filter2316"
       height="1.277481"
       width="1.279832"
       x="-0.139916"
       y="-0.138741">
      <feGaussianBlur
         stdDeviation=".28784801"
         id="feGaussianBlur2314" />
    </filter>
    <linearGradient
       id="k"
       gradientUnits="userSpaceOnUse"
       spreadMethod="reflect"
       x1="31.606251"
       x2="34.575108"
       y1="13.510336"
       y2="13.510336">
      <stop
         offset="0"
         stop-color="#fff"
         id="stop1462" />
      <stop
         offset="1"
         stop-color="#790000"
         stop-opacity="0"
         id="stop1464" />
    </linearGradient>
    <filter
       id="filter2323"
       height="1.277481"
       width="1.279832"
       x="-0.139916"
       y="-0.138741">
      <feGaussianBlur
         stdDeviation=".28784801"
         id="feGaussianBlur2321" />
    </filter>
    <filter
       id="filter2333"
       height="1.277481"
       width="1.279832"
       x="-0.139916"
       y="-0.138741">
      <feGaussianBlur
         stdDeviation=".28784801"
         id="feGaussianBlur2331" />
    </filter>
    <filter
       id="filter2343"
       height="1.277481"
       width="1.279832"
       x="-0.139916"
       y="-0.138741">
      <feGaussianBlur
         stdDeviation=".28784801"
         id="feGaussianBlur2341" />
    </filter>
    <filter
       id="filter2353"
       height="1.277481"
       width="1.279832"
       x="-0.139916"
       y="-0.138741">
      <feGaussianBlur
         stdDeviation=".28784801"
         id="feGaussianBlur2351" />
    </filter>
    <linearGradient
       spreadMethod="reflect"
       y2="13.510336"
       x2="91.575104"
       y1="13.510336"
       x1="88.606247"
       gradientUnits="userSpaceOnUse"
       id="linearGradient2373"
       xlink:href="#j-5"
       inkscape:collect="always" />
    <linearGradient
       spreadMethod="reflect"
       y2="13.510336"
       x2="34.575108"
       y1="13.510336"
       x1="31.606251"
       gradientUnits="userSpaceOnUse"
       id="linearGradient2375"
       xlink:href="#k"
       inkscape:collect="always" />
    <linearGradient
       inkscape:collect="always"
       xlink:href="#a-7"
       id="linearGradient2535"
       gradientUnits="userSpaceOnUse"
       gradientTransform="scale(1.0975951,0.9110828)"
       x1="26.091133"
       y1="14.856744"
       x2="31.500689"
       y2="14.856744" />
    <linearGradient
       inkscape:collect="always"
       xlink:href="#j-5"
       id="linearGradient2537"
       gradientUnits="userSpaceOnUse"
       x1="88.606247"
       y1="13.510336"
       x2="91.575104"
       y2="13.510336"
       spreadMethod="reflect" />
    <linearGradient
       inkscape:collect="always"
       xlink:href="#k"
       id="linearGradient2539"
       gradientUnits="userSpaceOnUse"
       x1="31.606251"
       y1="13.510336"
       x2="34.575108"
       y2="13.510336"
       spreadMethod="reflect" />
    <linearGradient
       inkscape:collect="always"
       xlink:href="#j-5"
       id="linearGradient2541"
       gradientUnits="userSpaceOnUse"
       x1="88.606247"
       y1="13.510336"
       x2="91.575104"
       y2="13.510336"
       spreadMethod="reflect" />
  </defs>
  <sodipodi:namedview
     pagecolor="#ffffff"
     bordercolor="#666666"
     borderopacity="1"
     objecttolerance="10"
     gridtolerance="10"
     guidetolerance="10"
     inkscape:pageopacity="0"
     inkscape:pageshadow="2"
     inkscape:window-width="1366"
     inkscape:window-height="714"
     id="namedview106"
     showgrid="false"
     inkscape:zoom="7.375"
     inkscape:cx="-1.4237288"
     inkscape:cy="16"
     inkscape:window-x="0"
     inkscape:window-y="28"
     inkscape:window-maximized="1"
     inkscape:current-layer="svg104" />
  <linearGradient
     id="a"
     gradientUnits="userSpaceOnUse"
     x1="88.591797"
     x2="71.262016"
     y1="96.592697"
     y2="79.262917">
    <stop
       offset="0"
       stop-color="#fff"
       id="stop2" />
    <stop
       offset="1"
       stop-color="#555753"
       id="stop4" />
  </linearGradient>
  <linearGradient
     id="b"
     gradientUnits="userSpaceOnUse"
     x1="85.219681"
     x2="61.336319"
     y1="93.219681"
     y2="69.336319">
    <stop
       offset="0"
       id="stop7" />
    <stop
       offset="1"
       stop-color="#393b38"
       id="stop9" />
  </linearGradient>
  <linearGradient
     id="c"
     gradientUnits="userSpaceOnUse"
     x1="96"
     x2="88.000198"
     y1="104"
     y2="96.000198">
    <stop
       offset="0"
       stop-color="#888a85"
       id="stop12" />
    <stop
       offset=".0072"
       stop-color="#8c8e89"
       id="stop14" />
    <stop
       offset=".0673"
       stop-color="#abaca9"
       id="stop16" />
    <stop
       offset=".1347"
       stop-color="#c5c6c4"
       id="stop18" />
    <stop
       offset=".2115"
       stop-color="#dbdbda"
       id="stop20" />
    <stop
       offset=".3012"
       stop-color="#ebebeb"
       id="stop22" />
    <stop
       offset=".4122"
       stop-color="#f7f7f6"
       id="stop24" />
    <stop
       offset=".5679"
       stop-color="#fdfdfd"
       id="stop26" />
    <stop
       offset="1"
       stop-color="#fff"
       id="stop28" />
  </linearGradient>
  <radialGradient
     id="d"
     cx="102"
     cy="112.3047"
     gradientTransform="matrix(.9787234 0 0 .9818182 1.361705 1.163636)"
     gradientUnits="userSpaceOnUse"
     r="139.55859">
    <stop
       offset="0"
       stop-color="#535557"
       id="stop31" />
    <stop
       offset=".11366145"
       stop-color="#898a8c"
       id="stop33" />
    <stop
       offset=".20296688"
       stop-color="#ececec"
       id="stop35" />
    <stop
       offset=".2363"
       stop-color="#fafafa"
       id="stop37" />
    <stop
       offset=".2722"
       stop-color="#fff"
       id="stop39" />
    <stop
       offset=".5313"
       stop-color="#fafafa"
       id="stop41" />
    <stop
       offset=".8449"
       stop-color="#ebecec"
       id="stop43" />
    <stop
       offset="1"
       stop-color="#e1e2e3"
       id="stop45" />
  </radialGradient>
  <radialGradient
     id="e"
     cx="102"
     cy="112.3047"
     gradientUnits="userSpaceOnUse"
     r="139.5585">
    <stop
       offset="0"
       stop-color="#00537d"
       id="stop48" />
    <stop
       offset=".0151"
       stop-color="#186389"
       id="stop50" />
    <stop
       offset=".0558"
       stop-color="#558ca8"
       id="stop52" />
    <stop
       offset=".0964"
       stop-color="#89afc3"
       id="stop54" />
    <stop
       offset=".1357"
       stop-color="#b3ccd8"
       id="stop56" />
    <stop
       offset=".1737"
       stop-color="#d4e2e9"
       id="stop58" />
    <stop
       offset=".2099"
       stop-color="#ecf2f5"
       id="stop60" />
    <stop
       offset=".2435"
       stop-color="#fafcfd"
       id="stop62" />
    <stop
       offset=".2722"
       stop-color="#fff"
       id="stop64" />
  </radialGradient>
  <filter
     id="f">
    <feGaussianBlur
       stdDeviation="1.0394514"
       id="feGaussianBlur67" />
  </filter>
  <filter
     id="g">
    <feGaussianBlur
       stdDeviation=".50063244"
       id="feGaussianBlur70" />
  </filter>
  <filter
     id="h">
    <feGaussianBlur
       stdDeviation=".40750996"
       id="feGaussianBlur73" />
  </filter>
  <filter
     id="i">
    <feGaussianBlur
       stdDeviation=".4901192"
       id="feGaussianBlur76" />
  </filter>
  <filter
     id="j">
    <feGaussianBlur
       stdDeviation=".90565481"
       id="feGaussianBlur79" />
  </filter>
  <g
     transform="matrix(.25 0 0 .25 0 .000025)"
     id="g92">
    <path
       d="m23 9 .04082 112h61.13118c.53 0 1.039-.211 1.414-.586l32.828-32.828c.375-.375.586-.884.586-1.414v-77.172z"
       filter="url(#f)"
       opacity=".306849"
       transform="matrix(1.0416667 0 0 1.0357143 -9.958333 -3.321534)"
       id="path82" />
    <path
       d="m24.919999 10.931136v108.137934l58.676001-.0001c.53 0 1.039-.211 1.414-.586l31.484-31.765936c.375-.375.586-.884.586-1.414v-74.371898z"
       filter="url(#g)"
       opacity=".89589"
       transform="matrix(1.0416667 0 0 1.0357143 -9.958333 -3.321534)"
       id="path84" />
    <path
       d="m23 9.9655172.040816 111.0344828h61.131184c.53 0 1.039-.211 1.414-.586l32.828-32.828c.375-.375.586-.884.586-1.414v-76.2064828z"
       filter="url(#f)"
       opacity=".306849"
       transform="matrix(1.0416667 0 0 1.0357143 -9.958333 -3.321534)"
       id="path86" />
    <path
       d="m16.000002 8v112h61.172c.53 0 1.039-.211 1.414-.586l32.827998-32.828c.375-.375.586-.884.586-1.414v-77.172z"
       fill="url(#e)"
       id="path88" />
    <path
       d="m19.678725 10.7c-.539276 0-.978723.440836-.978723.981818l-.7 105.336362c0 .54197.439447.98182.978723.98182h57.913022c.257404 0 .509915-.10407.691957-.28767l32.129526-32.23113c.18303-.1836.28677-.435927.28677-.694145v-73.805237c0-.540982-.43847-.981818-.97872-.981818z"
       fill="url(#d)"
       id="path90" />
  </g>
  <g
     transform="matrix(.25 0 0 .25 .000001 .000025)"
     id="g102">
    <path
       d="m111.414 86.586c.25-.25-26.379-1.586-31.414-1.586-1.654 0-3 1.346-3 3 0 5.035 1.336 31.664 1.586 31.414z"
       fill="url(#a)"
       filter="url(#h)"
       opacity=".1"
       id="path94" />
    <path
       d="m111.414 86.586c.375-.375-21.97-.586-31.414-.586-1.103 0-2 .897-2 2 0 9.444.211 31.789.586 31.414z"
       filter="url(#j)"
       opacity=".2"
       id="path96" />
    <path
       d="m111.414 86.586c.239-.239-21.607.414-31.414.414-.553 0-1 .447-1 1 0 9.807-.653 31.653-.414 31.414z"
       fill="url(#b)"
       filter="url(#i)"
       opacity=".1"
       id="path98" />
    <path
       d="m78.586 119.414s11.914-9.914 17.414-15.414 15.414-17.414 15.414-17.414-21.164 1.414-31.414 1.414c0 10.25-1.414 31.414-1.414 31.414z"
       fill="url(#c)"
       id="path100" />
  </g>
  <g
     transform="matrix(0.25,0,0,0.25,-1.0000014,-0.49999989)"
     id="g1696">
    <path
       style="fill:url(#o)"
       inkscape:connector-curvature="0"
       d="m 96,68 a 4.0004,4.0004 0 0 0 -4,4 V 90 H 74 a 4.0004,4.0004 0 0 0 -4,4 v 8 a 4.0004,4.0004 0 0 0 4,4 h 18 v 18 a 4.0004,4.0004 0 0 0 4,4 h 8 a 4.0004,4.0004 0 0 0 4,-4 v -18 h 18 a 4.0004,4.0004 0 0 0 4,-4 v -8 a 4.0004,4.0004 0 0 0 -4,-4 H 108 V 72 a 4.0004,4.0004 0 0 0 -4,-4 z"
       id="path1666" />
    <path
       style="fill:url(#p)"
       inkscape:connector-curvature="0"
       d="m 96,68 a 4.0004,4.0004 0 0 0 -4,4 V 90 H 74 a 4.0004,4.0004 0 0 0 -4,4 v 8 a 4.0004,4.0004 0 0 0 4,4 h 18 v 18 a 4.0004,4.0004 0 0 0 4,4 h 8 a 4.0004,4.0004 0 0 0 4,-4 v -18 h 18 a 4.0004,4.0004 0 0 0 4,-4 v -8 a 4.0004,4.0004 0 0 0 -4,-4 H 108 V 72 a 4.0004,4.0004 0 0 0 -4,-4 z"
       id="path1668" />
    <path
       style="fill:url(#n)"
       inkscape:connector-curvature="0"
       d="m 96,68 a 4.0004,4.0004 0 0 0 -4,4 V 90 H 74 a 4.0004,4.0004 0 0 0 -4,4 v 8 a 4.0004,4.0004 0 0 0 4,4 h 18 v 18 a 4.0004,4.0004 0 0 0 4,4 h 8 a 4.0004,4.0004 0 0 0 4,-4 v -18 h 18 a 4.0004,4.0004 0 0 0 4,-4 v -8 a 4.0004,4.0004 0 0 0 -4,-4 H 108 V 72 a 4.0004,4.0004 0 0 0 -4,-4 z"
       id="path1670" />
    <path
       style="opacity:0.79026196;fill:url(#linearGradient2535);fill-rule:evenodd;filter:url(#h-5)"
       inkscape:connector-curvature="0"
       d="m 31.7,16 2.875,-3.375 c -1.051205,-1.695758 -3.935136,-2.288018 -5.9375,-0.3125 l 2.8125,3.375 z"
       transform="matrix(-0.60073019,-0.60073019,0.59501648,-0.59501648,106.15853,151.49848)"
       id="path1672" />
    <path
       style="opacity:0.498127;fill:url(#i-3);fill-rule:evenodd;filter:url(#h-5)"
       inkscape:connector-curvature="0"
       d="m 31.7,16 2.875,-3.375 c -1.051205,-1.695758 -3.935136,-2.288018 -5.9375,-0.3125 l 2.8125,3.375 z"
       transform="matrix(-0.54559305,0.54559305,-0.55083218,-0.55083218,129.81694,114.94021)"
       id="path1674" />
    <path
       style="fill:url(#m)"
       inkscape:connector-curvature="0"
       d="M 96,72 V 94 H 74 v 8 h 22 v 22 h 8 v -22 h 22 V 94 H 104 V 72 Z"
       id="path1676" />
    <path
       style="fill:url(#l)"
       inkscape:connector-curvature="0"
       d="M 96,72 V 93.224609 94 H 74 v 5.835938 c 5.252313,0.784812 12.103279,1.193282 17.28125,1.203122 12.42654,-0.0162 24.54521,-2.29327 34.71875,-6.523435 V 94 H 104 V 72 Z"
       id="path1678" />
    <path
       inkscape:connector-curvature="0"
       d="M 96,72 V 94 H 74 v 8 h 22 v 22 h 8 v -22 h 22 V 94 H 104 V 72 Z"
       style="fill:none;stroke:#eef4ca;stroke-width:0.80000001;stroke-linecap:square;stroke-linejoin:round;stroke-opacity:0.78039198;filter:url(#q)"
       id="path1680" />
    <g
       style="fill-rule:evenodd"
       id="g1694">
      <path
         style="opacity:0.498127;fill:url(#g-6);filter:url(#h-5)"
         inkscape:connector-curvature="0"
         d="m 31.7,16 2.875,-3.375 c -1.051205,-1.695758 -3.935136,-2.288018 -5.9375,-0.3125 l 2.8125,3.375 z"
         transform="matrix(-0.60249952,0.60249952,0.60828509,0.60828509,83.418893,65.879107)"
         id="path1682" />
      <path
         style="opacity:0.79026196;fill:url(#linearGradient2537);filter:url(#h-5)"
         inkscape:connector-curvature="0"
         d="m 88.7,16 2.875,-3.375 c -1.051205,-1.695758 -3.935136,-2.288018 -5.9375,-0.3125 l 2.8125,3.375 z"
         transform="matrix(-0.55083218,-0.55083218,0.54559305,-0.54559305,113.52649,159.24703)"
         id="path1684" />
      <path
         style="opacity:0.79026196;fill:url(#linearGradient2539);filter:url(#h-5)"
         inkscape:connector-curvature="0"
         d="m 31.7,16 2.875,-3.375 c -1.051205,-1.695758 -3.935136,-2.288018 -5.9375,-0.3125 l 2.8125,3.375 z"
         transform="matrix(-0.50093417,-0.50093417,-0.49616964,0.49616964,149.45278,101.72037)"
         id="path1686" />
      <path
         style="opacity:0.79026196;fill:url(#linearGradient2541);filter:url(#h-5)"
         inkscape:connector-curvature="0"
         d="m 88.7,16 2.875,-3.375 c -1.051205,-1.695758 -3.935136,-2.288018 -5.9375,-0.3125 l 2.8125,3.375 z"
         transform="matrix(-0.51428706,-0.51428706,-0.50939554,0.50939554,157.72648,109.73028)"
         id="path1688" />
      <path
         style="opacity:0.79026196;fill:url(#linearGradient2373);filter:url(#h-5)"
         inkscape:connector-curvature="0"
         d="m 88.7,16 2.875,-3.375 c -1.051205,-1.695758 -3.935136,-2.288018 -5.9375,-0.3125 l 2.8125,3.375 z"
         transform="matrix(0.51428706,-0.51428706,0.50939554,0.50939554,42.798309,109.73028)"
         id="path1690" />
      <path
         style="opacity:0.79026196;fill:url(#linearGradient2375);filter:url(#h-5)"
         inkscape:connector-curvature="0"
         d="m 31.7,16 2.875,-3.375 c -1.051205,-1.695758 -3.935136,-2.288018 -5.9375,-0.3125 l 2.8125,3.375 z"
         transform="matrix(-0.50093417,0.50093417,-0.49616964,-0.49616964,149.45278,94.179741)"
         id="path1692" />
    </g>
  </g>
</svg>
