<?xml version="1.0" encoding="UTF-8" standalone="no"?>
<svg
   xmlns:dc="http://purl.org/dc/elements/1.1/"
   xmlns:cc="http://creativecommons.org/ns#"
   xmlns:rdf="http://www.w3.org/1999/02/22-rdf-syntax-ns#"
   xmlns:svg="http://www.w3.org/2000/svg"
   xmlns="http://www.w3.org/2000/svg"
   xmlns:xlink="http://www.w3.org/1999/xlink"
   xmlns:sodipodi="http://sodipodi.sourceforge.net/DTD/sodipodi-0.dtd"
   xmlns:inkscape="http://www.inkscape.org/namespaces/inkscape"
   height="32"
   width="32"
   version="1.1"
   id="svg133"
   sodipodi:docname="inserthyperlink.svg"
   inkscape:version="0.92.4 (unknown)"
   inkscape:export-filename="/home/rizmut/Dokumen/Rizmut/Github/libreoffice-style-karasa-jaga/build/next/cmd/inserthyperlink.png"
   inkscape:export-xdpi="96"
   inkscape:export-ydpi="96">
  <metadata
     id="metadata139">
    <rdf:RDF>
      <cc:Work
         rdf:about="">
        <dc:format>image/svg+xml</dc:format>
        <dc:type
           rdf:resource="http://purl.org/dc/dcmitype/StillImage" />
        <dc:title></dc:title>
      </cc:Work>
    </rdf:RDF>
  </metadata>
  <defs
     id="defs137">
    <linearGradient
       inkscape:collect="always"
       xlink:href="#b"
       id="linearGradient4916"
       gradientUnits="userSpaceOnUse"
       gradientTransform="scale(1.0975951,0.9110828)"
       x1="26.091133"
       y1="14.856744"
       x2="31.500689"
       y2="14.856744" />
    <linearGradient
       inkscape:collect="always"
       xlink:href="#u"
       id="linearGradient4918"
       gradientUnits="userSpaceOnUse"
       x1="88.606247"
       y1="13.510336"
       x2="91.575104"
       y2="13.510336"
       spreadMethod="reflect" />
    <linearGradient
       inkscape:collect="always"
       xlink:href="#v"
       id="linearGradient4920"
       gradientUnits="userSpaceOnUse"
       x1="31.606251"
       y1="13.510336"
       x2="34.575108"
       y2="13.510336"
       spreadMethod="reflect" />
    <linearGradient
       inkscape:collect="always"
       xlink:href="#u"
       id="linearGradient4922"
       gradientUnits="userSpaceOnUse"
       x1="88.606247"
       y1="13.510336"
       x2="91.575104"
       y2="13.510336"
       spreadMethod="reflect" />
    <linearGradient
       inkscape:collect="always"
       xlink:href="#u"
       id="linearGradient4924"
       gradientUnits="userSpaceOnUse"
       x1="88.606247"
       y1="13.510336"
       x2="91.575104"
       y2="13.510336"
       spreadMethod="reflect" />
    <linearGradient
       inkscape:collect="always"
       xlink:href="#v"
       id="linearGradient4926"
       gradientUnits="userSpaceOnUse"
       x1="31.606251"
       y1="13.510336"
       x2="34.575108"
       y2="13.510336"
       spreadMethod="reflect" />
    <linearGradient
       inkscape:collect="always"
       xlink:href="#c"
       id="linearGradient4946"
       gradientUnits="userSpaceOnUse"
       x1="64"
       y1="83.729706"
       x2="64"
       y2="-62.169582" />
    <linearGradient
       inkscape:collect="always"
       xlink:href="#a"
       id="linearGradient4948"
       gradientUnits="userSpaceOnUse"
       x1="64"
       y1="24"
       x2="64"
       y2="-52" />
    <radialGradient
       inkscape:collect="always"
       xlink:href="#b"
       id="radialGradient4950"
       gradientUnits="userSpaceOnUse"
       gradientTransform="matrix(23,-1e-6,6.1e-7,14.035669,-1452,156.4281)"
       cx="66"
       cy="-10.851176"
       r="2"
       spreadMethod="reflect" />
  </defs>
  <sodipodi:namedview
     pagecolor="#ffffff"
     bordercolor="#666666"
     borderopacity="1"
     objecttolerance="10"
     gridtolerance="10"
     guidetolerance="10"
     inkscape:pageopacity="0"
     inkscape:pageshadow="2"
     inkscape:window-width="640"
     inkscape:window-height="480"
     id="namedview135"
     showgrid="true"
     inkscape:zoom="3.71875"
     inkscape:cx="26.650233"
     inkscape:cy="52.31648"
     inkscape:current-layer="g4908">
    <inkscape:grid
       type="xygrid"
       id="grid4878" />
  </sodipodi:namedview>
  <linearGradient
     id="a">
    <stop
       offset="0"
       stop-color="#c8c8c8"
       id="stop2" />
    <stop
       offset="1"
       stop-color="#e4e4e4"
       id="stop4" />
  </linearGradient>
  <linearGradient
     id="b">
    <stop
       offset="0"
       stop-color="#fff"
       id="stop7" />
    <stop
       offset="1"
       stop-color="#fff"
       stop-opacity="0"
       id="stop9" />
  </linearGradient>
  <linearGradient
     id="c">
    <stop
       offset="0"
       id="stop12" />
    <stop
       offset="1"
       stop-color="#7c7c7c"
       id="stop14" />
  </linearGradient>
  <filter
     id="d">
    <feGaussianBlur
       stdDeviation="1.36"
       id="feGaussianBlur17" />
  </filter>
  <filter
     id="e"
     height="1.05568"
     width="1.348"
     x="-0.17399999"
     y="-0.02784">
    <feGaussianBlur
       stdDeviation="1.16"
       id="feGaussianBlur20" />
  </filter>
  <linearGradient
     id="f"
     gradientUnits="userSpaceOnUse"
     x1="70"
     x2="70"
     xlink:href="#c"
     y1="127"
     y2="32.952141" />
  <linearGradient
     id="g"
     gradientTransform="matrix(1.1428572,0,0,1,-7.142858,0)"
     gradientUnits="userSpaceOnUse"
     x1="64"
     x2="64"
     xlink:href="#a"
     y1="100"
     y2="28" />
  <radialGradient
     id="h"
     cx="64"
     cy="54.400002"
     gradientTransform="matrix(7.7142861,0,0,1.7500001,-427.71431,-43.200007)"
     gradientUnits="userSpaceOnUse"
     r="16"
     spreadMethod="reflect"
     xlink:href="#b" />
  <radialGradient
     id="i"
     cx="89.923889"
     cy="-1.4142076"
     gradientUnits="userSpaceOnUse"
     r="113.80746">
    <stop
       offset="0"
       stop-color="#fff"
       id="stop26" />
    <stop
       offset=".5"
       stop-color="#fff"
       id="stop28" />
    <stop
       offset="1"
       stop-opacity="0"
       id="stop30" />
  </radialGradient>
  <mask
     id="j"
     maskUnits="userSpaceOnUse">
    <path
       d="M 9.923884,-81.414215 H 169.92388 v 160 H 9.923884 Z"
       transform="rotate(44.999996)"
       id="path33"
       inkscape:connector-curvature="0"
       style="opacity:0.6;fill:url(#i)" />
  </mask>
  <linearGradient
     id="k"
     gradientUnits="userSpaceOnUse"
     x1="70"
     x2="130"
     y1="98"
     y2="98">
    <stop
       offset="0"
       stop-color="#066704"
       id="stop36" />
    <stop
       offset="1"
       stop-color="#077d05"
       stop-opacity=".839216"
       id="stop38" />
  </linearGradient>
  <radialGradient
     id="l"
     cx="108.95794"
     cy="91.491646"
     gradientTransform="matrix(1.0783631,-0.16325698,0.14968763,0.98873334,-23.191389,17.327301)"
     gradientUnits="userSpaceOnUse"
     r="30"
     xlink:href="#m" />
  <linearGradient
     id="m">
    <stop
       offset="0"
       stop-color="#011701"
       id="stop42" />
    <stop
       offset=".80671918"
       stop-color="#145703"
       id="stop44" />
    <stop
       offset="1"
       stop-color="#2fa207"
       stop-opacity=".384314"
       id="stop46" />
  </linearGradient>
  <radialGradient
     id="n"
     cx="92.257149"
     cy="104.91638"
     gradientTransform="matrix(1.0783631,-0.16325698,0.14968763,0.98873334,-23.191389,17.327301)"
     gradientUnits="userSpaceOnUse"
     r="30"
     xlink:href="#m" />
  <linearGradient
     id="o"
     gradientTransform="scale(1.0975951,0.9110828)"
     gradientUnits="userSpaceOnUse"
     x1="26.091133"
     x2="31.500689"
     xlink:href="#b"
     y1="14.856744"
     y2="14.856744" />
  <filter
     id="p"
     height="1.277481"
     width="1.279832"
     x="-0.139916"
     y="-0.138741">
    <feGaussianBlur
       stdDeviation=".28784801"
       id="feGaussianBlur51" />
  </filter>
  <linearGradient
     id="q"
     gradientUnits="userSpaceOnUse"
     x1="304.88663"
     x2="345.62039"
     y1="385.86127"
     y2="384.62384">
    <stop
       offset="0"
       stop-color="#fff"
       stop-opacity=".683453"
       id="stop54" />
    <stop
       offset="1"
       stop-color="#fff"
       stop-opacity="0"
       id="stop56" />
  </linearGradient>
  <radialGradient
     id="r"
     cx="96"
     cy="102"
     gradientUnits="userSpaceOnUse"
     r="26">
    <stop
       offset="0"
       stop-color="#7ae91e"
       stop-opacity=".996078"
       id="stop59" />
    <stop
       offset="1"
       stop-color="#62c916"
       id="stop61" />
  </radialGradient>
  <linearGradient
     id="s"
     gradientUnits="userSpaceOnUse"
     x1="93.673332"
     x2="105.63081"
     xlink:href="#b"
     y1="57.081059"
     y2="114.86784" />
  <filter
     id="t"
     height="1.048"
     width="1.048"
     x="-0.024"
     y="-0.024"
     style="color-interpolation-filters:sRGB">
    <feGaussianBlur
       stdDeviation=".52"
       id="feGaussianBlur65" />
  </filter>
  <linearGradient
     id="u"
     gradientUnits="userSpaceOnUse"
     spreadMethod="reflect"
     x1="88.606247"
     x2="91.575104"
     y1="13.510336"
     y2="13.510336">
    <stop
       offset="0"
       stop-color="#c8ff87"
       id="stop68" />
    <stop
       offset="1"
       stop-color="#abff87"
       stop-opacity="0"
       id="stop70" />
  </linearGradient>
  <linearGradient
     id="v"
     gradientUnits="userSpaceOnUse"
     spreadMethod="reflect"
     x1="31.606251"
     x2="34.575108"
     y1="13.510336"
     y2="13.510336">
    <stop
       offset="0"
       stop-color="#fff"
       id="stop73" />
    <stop
       offset="1"
       stop-color="#790000"
       stop-opacity="0"
       id="stop75" />
  </linearGradient>
  <linearGradient
     id="w"
     gradientUnits="userSpaceOnUse"
     x1="64"
     x2="64"
     xlink:href="#c"
     y1="83.729706"
     y2="-62.169582" />
  <linearGradient
     id="x"
     gradientUnits="userSpaceOnUse"
     x1="64"
     x2="64"
     xlink:href="#a"
     y1="24"
     y2="-52" />
  <radialGradient
     id="y"
     cx="66"
     cy="-10.851176"
     gradientTransform="matrix(23,-1e-6,6.1e-7,14.035669,-1452,156.4281)"
     gradientUnits="userSpaceOnUse"
     r="2"
     spreadMethod="reflect"
     xlink:href="#b" />
  <clipPath
     id="z">
    <path
       d="M -149.21053,-56.964901 H -38.10914 V 54.136489 H -149.21053 Z"
       transform="matrix(-0.70710683,-0.70710673,-0.70710673,0.70710683,0,0)"
       id="path81"
       inkscape:connector-curvature="0" />
  </clipPath>
  <g
     id="g4908"
     transform="scale(0.25)">
    <g
       id="g99"
       transform="matrix(-0.81465838,-0.81465827,-0.81465827,0.81465838,171.90558,65.629312)"
       mask="url(#j)"
       clip-path="url(#z)">
      <rect
         id="rect84"
         y="22"
         x="50"
         width="28"
         transform="matrix(1.1428572,0,0,1,-7.14286,0)"
         style="opacity:0.6;fill:none;stroke:url(#f);stroke-width:11.22497177;stroke-linecap:round;stroke-linejoin:round;filter:url(#d)"
         rx="14"
         height="84" />
      <rect
         id="rect86"
         y="22"
         x="50.000004"
         width="32"
         rx="16"
         height="84"
         style="fill:none;stroke:url(#g);stroke-width:4;stroke-linecap:round;stroke-linejoin:round" />
      <rect
         id="rect88"
         y="22"
         x="50.000004"
         width="32"
         rx="16"
         height="84"
         style="fill:none;stroke:url(#h);stroke-width:6.23525476;stroke-linecap:round;stroke-linejoin:round" />
      <g
         transform="translate(0,4)"
         id="A">
        <rect
           id="rect90"
           y="-56"
           x="64"
           width="4"
           style="opacity:0.6;fill:none;stroke:url(#linearGradient4946);stroke-width:8;stroke-linecap:round;stroke-linejoin:round;filter:url(#e)"
           rx="2"
           height="88" />
        <rect
           id="rect92"
           y="-54.675007"
           x="62.051483"
           width="5.9485168"
           ry="1.532357"
           rx="2"
           height="86.674995"
           style="fill:url(#linearGradient4948)" />
        <rect
           id="rect94"
           y="-20.291105"
           x="64.353554"
           width="3.6464441"
           ry="2"
           rx="1.204504"
           height="52.291073"
           style="fill:url(#radialGradient4950)" />
      </g>
      <use
         id="use97"
         xlink:href="#A"
         width="128"
         transform="translate(0,144)"
         height="128"
         x="0"
         y="0" />
    </g>
    <g
       id="g131"
       transform="translate(-4,-2)">
      <path
         id="path101"
         d="m 96,68 a 4.0004,4.0004 0 0 0 -4,4 V 90 H 74 a 4.0004,4.0004 0 0 0 -4,4 v 8 a 4.0004,4.0004 0 0 0 4,4 h 18 v 18 a 4.0004,4.0004 0 0 0 4,4 h 8 a 4.0004,4.0004 0 0 0 4,-4 v -18 h 18 a 4.0004,4.0004 0 0 0 4,-4 v -8 a 4.0004,4.0004 0 0 0 -4,-4 H 108 V 72 a 4.0004,4.0004 0 0 0 -4,-4 z"
         style="fill:url(#k)"
         inkscape:connector-curvature="0" />
      <path
         id="path103"
         d="m 96,68 a 4.0004,4.0004 0 0 0 -4,4 V 90 H 74 a 4.0004,4.0004 0 0 0 -4,4 v 8 a 4.0004,4.0004 0 0 0 4,4 h 18 v 18 a 4.0004,4.0004 0 0 0 4,4 h 8 a 4.0004,4.0004 0 0 0 4,-4 v -18 h 18 a 4.0004,4.0004 0 0 0 4,-4 v -8 a 4.0004,4.0004 0 0 0 -4,-4 H 108 V 72 a 4.0004,4.0004 0 0 0 -4,-4 z"
         style="fill:url(#l)"
         inkscape:connector-curvature="0" />
      <path
         id="path105"
         d="m 96,68 a 4.0004,4.0004 0 0 0 -4,4 V 90 H 74 a 4.0004,4.0004 0 0 0 -4,4 v 8 a 4.0004,4.0004 0 0 0 4,4 h 18 v 18 a 4.0004,4.0004 0 0 0 4,4 h 8 a 4.0004,4.0004 0 0 0 4,-4 v -18 h 18 a 4.0004,4.0004 0 0 0 4,-4 v -8 a 4.0004,4.0004 0 0 0 -4,-4 H 108 V 72 a 4.0004,4.0004 0 0 0 -4,-4 z"
         style="fill:url(#n)"
         inkscape:connector-curvature="0" />
      <path
         id="path107"
         transform="matrix(-0.60073019,-0.60073019,0.59501648,-0.59501648,106.15853,151.49848)"
         d="m 31.7,16 2.875,-3.375 c -1.051205,-1.695758 -3.935136,-2.288018 -5.9375,-0.3125 l 2.8125,3.375 z"
         style="opacity:0.79026196;fill:url(#linearGradient4916);fill-rule:evenodd;filter:url(#p)"
         inkscape:connector-curvature="0" />
      <path
         id="path109"
         transform="matrix(-0.54559305,0.54559305,-0.55083218,-0.55083218,129.81694,114.94021)"
         d="m 31.7,16 2.875,-3.375 c -1.051205,-1.695758 -3.935136,-2.288018 -5.9375,-0.3125 l 2.8125,3.375 z"
         style="opacity:0.498127;fill:url(#q);fill-rule:evenodd;filter:url(#p)"
         inkscape:connector-curvature="0" />
      <path
         id="path111"
         d="M 96,72 V 94 H 74 v 8 h 22 v 22 h 8 v -22 h 22 V 94 H 104 V 72 Z"
         style="fill:url(#r)"
         inkscape:connector-curvature="0" />
      <path
         id="path113"
         d="M 96,72 V 93.224609 94 H 74 v 5.835938 c 5.252313,0.784812 12.103279,1.193282 17.28125,1.203122 12.42654,-0.0162 24.54521,-2.29327 34.71875,-6.523435 V 94 H 104 V 72 Z"
         style="fill:url(#s)"
         inkscape:connector-curvature="0" />
      <path
         id="path115"
         style="fill:none;stroke:#eef4ca;stroke-width:0.80000001;stroke-linecap:square;stroke-linejoin:round;stroke-opacity:0.78039198;filter:url(#t)"
         d="M 96,72 V 94 H 74 v 8 h 22 v 22 h 8 v -22 h 22 V 94 H 104 V 72 Z"
         inkscape:connector-curvature="0" />
      <g
         id="g129"
         style="fill-rule:evenodd">
        <path
           id="path117"
           transform="matrix(-0.60249952,0.60249952,0.60828509,0.60828509,83.418893,65.879107)"
           d="m 31.7,16 2.875,-3.375 c -1.051205,-1.695758 -3.935136,-2.288018 -5.9375,-0.3125 l 2.8125,3.375 z"
           style="opacity:0.498127;fill:url(#o);filter:url(#p)"
           inkscape:connector-curvature="0" />
        <path
           id="path119"
           transform="matrix(-0.55083218,-0.55083218,0.54559305,-0.54559305,113.52649,159.24703)"
           d="m 88.7,16 2.875,-3.375 c -1.051205,-1.695758 -3.935136,-2.288018 -5.9375,-0.3125 l 2.8125,3.375 z"
           style="opacity:0.79026196;fill:url(#linearGradient4918);filter:url(#p)"
           inkscape:connector-curvature="0" />
        <path
           id="path121"
           transform="matrix(-0.50093417,-0.50093417,-0.49616964,0.49616964,149.45278,101.72037)"
           d="m 31.7,16 2.875,-3.375 c -1.051205,-1.695758 -3.935136,-2.288018 -5.9375,-0.3125 l 2.8125,3.375 z"
           style="opacity:0.79026196;fill:url(#linearGradient4920);filter:url(#p)"
           inkscape:connector-curvature="0" />
        <path
           id="path123"
           transform="matrix(-0.51428706,-0.51428706,-0.50939554,0.50939554,157.72648,109.73028)"
           d="m 88.7,16 2.875,-3.375 c -1.051205,-1.695758 -3.935136,-2.288018 -5.9375,-0.3125 l 2.8125,3.375 z"
           style="opacity:0.79026196;fill:url(#linearGradient4922);filter:url(#p)"
           inkscape:connector-curvature="0" />
        <path
           id="path125"
           transform="matrix(0.51428706,-0.51428706,0.50939554,0.50939554,42.798309,109.73028)"
           d="m 88.7,16 2.875,-3.375 c -1.051205,-1.695758 -3.935136,-2.288018 -5.9375,-0.3125 l 2.8125,3.375 z"
           style="opacity:0.79026196;fill:url(#linearGradient4924);filter:url(#p)"
           inkscape:connector-curvature="0" />
        <path
           id="path127"
           transform="matrix(-0.50093417,0.50093417,-0.49616964,-0.49616964,149.45278,94.179741)"
           d="m 31.7,16 2.875,-3.375 c -1.051205,-1.695758 -3.935136,-2.288018 -5.9375,-0.3125 l 2.8125,3.375 z"
           style="opacity:0.79026196;fill:url(#linearGradient4926);filter:url(#p)"
           inkscape:connector-curvature="0" />
      </g>
    </g>
  </g>
</svg>
