<svg height="128" viewBox="0 0 128 128" width="128" xmlns="http://www.w3.org/2000/svg" xmlns:xlink="http://www.w3.org/1999/xlink"><linearGradient id="a" gradientTransform="matrix(-.42447773 0 0 .25739099 111.32434 47.691243)" gradientUnits="userSpaceOnUse" x1="-38.725571" x2="262.81723" y1="62.4501" y2="62.4501"><stop offset="0" stop-color="#fff"/><stop offset=".49999997" stop-color="#fff"/><stop offset=".6875" stop-color="#f1f1f1"/><stop offset=".75" stop-color="#eaeaea"/><stop offset="1" stop-color="#dfdfdf"/></linearGradient><linearGradient id="b" gradientUnits="userSpaceOnUse" x1="-.478942" x2="128.00586" y1="64.000977" y2="64.000977"><stop offset="0" stop-color="#7c9fcf"/><stop offset=".5" stop-color="#7c9ece"/><stop offset="1" stop-color="#7b9dcf"/></linearGradient><g fill-rule="evenodd" transform="matrix(0 1 1 0 .233764 .237517)"><path d="m64 29.083984a5.8261937 5.8261937 0 0 0 -5.826172 5.826172v17.447266h-.664062-22.638672l-.07227-9.21875a5.8261937 5.8261937 0 0 0 -.002-.101563c-.153878-6.137372-7.865946-8.710164-11.89448-4.68164l-21.6757815 21.675781a5.8261937 5.8261937 0 0 0 -1.66992188 4.761719l.003906.03516a5.8261937 5.8261937 0 0 0 1.66992218 3.476559l21.3242192 21.324218c2.272624 2.272606 5.962956 2.374821 8.11914 1.339844s4.178795-2.998124 4.123047-6.492188l.002.140626.07031-8.972657h22.640625.664062v17.447266a5.8261937 5.8261937 0 0 0 5.826128 5.826172h58.17969a5.8261937 5.8261937 0 0 0 5.82617-5.826172v-58.181641a5.8261937 5.8261937 0 0 0 -5.82617-5.826172z" fill="url(#b)"/><path d="m122.1801 34.9104v58.181h-58.181v-23.2724h-6.490234-28.418366l-.117039 14.751954c.01501.940773-1.436693 1.801586-2.298833.939453l-21.324158-21.324165-.0039822-.036623 21.6758002-21.675802c.74183-.741828 1.929532-.153874 1.951173.708984l.117039 14.999999h28.418366 6.490234v-23.2724z" fill="url(#a)"/></g></svg>