<?xml version="1.0" encoding="UTF-8" standalone="no"?>
<!-- Created with Inkscape (http://www.inkscape.org/) -->

<svg
   xmlns:dc="http://purl.org/dc/elements/1.1/"
   xmlns:cc="http://creativecommons.org/ns#"
   xmlns:rdf="http://www.w3.org/1999/02/22-rdf-syntax-ns#"
   xmlns:svg="http://www.w3.org/2000/svg"
   xmlns="http://www.w3.org/2000/svg"
   xmlns:xlink="http://www.w3.org/1999/xlink"
   xmlns:sodipodi="http://sodipodi.sourceforge.net/DTD/sodipodi-0.dtd"
   xmlns:inkscape="http://www.inkscape.org/namespaces/inkscape"
   width="32"
   height="32"
   viewBox="0 0 8.4666665 8.466667"
   version="1.1"
   id="svg1140"
   sodipodi:docname="morecontrols.svg"
   inkscape:export-filename="/home/rizmut/Dokumen/Rizmut/Github/libreoffice-style-karasa-jaga/build/next/cmd/32/morecontrols.png"
   inkscape:export-xdpi="96"
   inkscape:export-ydpi="96"
   inkscape:version="0.92.3 (2405546, 2018-03-11)">
  <defs
     id="defs1134">
    <linearGradient
       inkscape:collect="always"
       id="linearGradient1731">
      <stop
         style="stop-color:#f8f8f8;stop-opacity:1;"
         offset="0"
         id="stop1727" />
      <stop
         style="stop-color:#f8f8f8;stop-opacity:0;"
         offset="1"
         id="stop1729" />
    </linearGradient>
    <linearGradient
       inkscape:collect="always"
       id="linearGradient1719">
      <stop
         style="stop-color:#666666;stop-opacity:1"
         offset="0"
         id="stop1715" />
      <stop
         style="stop-color:#232323;stop-opacity:0.9375"
         offset="1"
         id="stop1717" />
    </linearGradient>
    <linearGradient
       inkscape:collect="always"
       id="linearGradient1704">
      <stop
         style="stop-color:#c0c0c0;stop-opacity:1;"
         offset="0"
         id="stop1700" />
      <stop
         style="stop-color:#f7f7f7;stop-opacity:1"
         offset="1"
         id="stop1702" />
    </linearGradient>
    <linearGradient
       inkscape:collect="always"
       xlink:href="#linearGradient1704"
       id="linearGradient1706"
       x1="50.587578"
       y1="267.47455"
       x2="54.049843"
       y2="290.94104"
       gradientUnits="userSpaceOnUse"
       gradientTransform="matrix(0.92507478,0,0,0.92507478,3.9560202,21.020588)" />
    <radialGradient
       inkscape:collect="always"
       xlink:href="#linearGradient1719"
       id="radialGradient1721"
       cx="53.071602"
       cy="283.68246"
       fx="53.071602"
       fy="283.68246"
       r="7.4497313"
       gradientUnits="userSpaceOnUse"
       gradientTransform="matrix(0.92507478,0,0,0.92507478,3.9560202,21.020588)" />
    <linearGradient
       inkscape:collect="always"
       xlink:href="#linearGradient1731"
       id="linearGradient1733"
       x1="53.51049"
       y1="264.43698"
       x2="53.720795"
       y2="279.9422"
       gradientUnits="userSpaceOnUse"
       gradientTransform="matrix(0.88728028,0,0,0.97178995,5.903467,7.8269425)" />
    <filter
       inkscape:collect="always"
       style="color-interpolation-filters:sRGB"
       id="filter1111"
       x="-0.02739184"
       width="1.0547837"
       y="-0.052498039"
       height="1.1049961">
      <feGaussianBlur
         inkscape:collect="always"
         stdDeviation="0.668475"
         id="feGaussianBlur1113" />
    </filter>
    <linearGradient
       inkscape:collect="always"
       xlink:href="#linearGradient838"
       id="linearGradient840"
       x1="26.221916"
       y1="59.536545"
       x2="96.5784"
       y2="57.715343"
       gradientUnits="userSpaceOnUse"
       gradientTransform="rotate(90,65.170062,65.407638)" />
    <linearGradient
       inkscape:collect="always"
       id="linearGradient838">
      <stop
         style="stop-color:#ffffff;stop-opacity:1;"
         offset="0"
         id="stop834" />
      <stop
         style="stop-color:#bbbbbb;stop-opacity:1"
         offset="1"
         id="stop836" />
    </linearGradient>
    <filter
       inkscape:collect="always"
       style="color-interpolation-filters:sRGB"
       id="filter894"
       x="-0.0041201971"
       width="1.0082403"
       y="-0.005748454"
       height="1.0114969">
      <feGaussianBlur
         inkscape:collect="always"
         stdDeviation="0.13885547"
         id="feGaussianBlur896" />
    </filter>
    <linearGradient
       inkscape:collect="always"
       xlink:href="#linearGradient1084"
       id="linearGradient1086"
       x1="72.618614"
       y1="101.35709"
       x2="73.819366"
       y2="47.875233"
       gradientUnits="userSpaceOnUse"
       gradientTransform="matrix(0.21878561,0,0,0.22843911,5.6507842,257.00744)" />
    <linearGradient
       inkscape:collect="always"
       id="linearGradient1084">
      <stop
         style="stop-color:#b3b3b7;stop-opacity:1;"
         offset="0"
         id="stop1080" />
      <stop
         style="stop-color:#e5e5e5;stop-opacity:0.99607843"
         offset="1"
         id="stop1082" />
    </linearGradient>
    <linearGradient
       id="linearGradient3303">
      <stop
         style="stop-color:#ffffff;stop-opacity:0.68345326;"
         offset="0"
         id="stop3305" />
      <stop
         style="stop-color:#ffffff;stop-opacity:0;"
         offset="1"
         id="stop3307" />
    </linearGradient>
  </defs>
  <sodipodi:namedview
     id="base"
     pagecolor="#ffffff"
     bordercolor="#666666"
     borderopacity="1.0"
     inkscape:pageopacity="0.0"
     inkscape:pageshadow="2"
     inkscape:zoom="8"
     inkscape:cx="20.397905"
     inkscape:cy="0.94588812"
     inkscape:document-units="mm"
     inkscape:current-layer="g888"
     showgrid="true"
     units="px"
     inkscape:window-width="1366"
     inkscape:window-height="714"
     inkscape:window-x="0"
     inkscape:window-y="28"
     inkscape:window-maximized="1"
     inkscape:snap-global="false">
    <inkscape:grid
       type="xygrid"
       id="grid895"
       spacingx="0.13229167"
       spacingy="0.13229167"
       empspacing="2" />
  </sodipodi:namedview>
  <metadata
     id="metadata1137">
    <rdf:RDF>
      <cc:Work
         rdf:about="">
        <dc:format>image/svg+xml</dc:format>
        <dc:type
           rdf:resource="http://purl.org/dc/dcmitype/StillImage" />
        <dc:title></dc:title>
      </cc:Work>
    </rdf:RDF>
  </metadata>
  <g
     inkscape:label="Layer 1"
     inkscape:groupmode="layer"
     id="layer1"
     transform="translate(0,-288.53332)">
    <g
       id="g888"
       transform="matrix(0.25,0,0,0.25,0.00271395,222.74749)">
      <g
         id="g911">
        <path
           style="opacity:1;fill:#8b8b91;fill-opacity:0.99586056;stroke:none;stroke-width:0.23954175;stroke-linecap:round;stroke-linejoin:bevel;stroke-miterlimit:4;stroke-dasharray:none;stroke-dashoffset:0;stroke-opacity:1"
           d="m 8.5962495,265.24999 v 0.0106 H 7.8991563 c -0.9461793,-3e-5 -2.6121719,0.81195 -2.6121719,1.82033 v 13.33753 c 0,1.00837 1.6659926,1.81998 2.6121719,1.81998 h 0.6970932 v 0.0106 H 19.578064 30.559427 v -0.0106 h 0.697092 c 0.946179,0 2.612174,-0.81161 2.612174,-1.81998 v -13.3375 c 0,-1.00837 -1.665995,-1.82036 -2.612174,-1.82036 h -0.697092 v -0.0106 H 19.578064 Z"
           id="path827"
           inkscape:connector-curvature="0"
           sodipodi:nodetypes="cccssscccccsssscccc" />
        <path
           style="opacity:1;fill:url(#linearGradient1086);fill-opacity:1;stroke:none;stroke-width:0.21082382;stroke-linecap:round;stroke-linejoin:bevel;stroke-miterlimit:4;stroke-dasharray:none;stroke-dashoffset:0;stroke-opacity:1"
           d="m 8.9296069,266.30832 v 0.01 H 8.3108533 c -0.8397685,0 -1.9532598,0.70842 -1.9532598,1.58848 v 11.64029 c 0,0.88007 1.1134913,1.58849 1.9532598,1.58849 h 0.6187536 v 0.01 h 10.2995581 0.07649 10.910224 v -0.01 h 0.618752 c 0.83977,0 1.953261,-0.70842 1.953261,-1.58849 V 267.9068 c 0,-0.88006 -1.113491,-1.58848 -1.953261,-1.58848 h -0.618752 v -0.01 h -10.910224 -0.07649 z"
           id="path904"
           inkscape:connector-curvature="0"
           sodipodi:nodetypes="ccssssccccccssssccccc" />
        <path
           transform="matrix(0.2156881,0,0,0.17631912,5.7227331,262.40876)"
           style="opacity:1;fill:url(#linearGradient840);fill-opacity:1;stroke:none;stroke-width:1.05240166;stroke-linecap:round;stroke-linejoin:bevel;stroke-miterlimit:4;stroke-dasharray:none;stroke-dashoffset:0;stroke-opacity:1;filter:url(#filter894)"
           d="m 15.643546,22.822266 c -0.105581,1.2e-5 -0.21046,0.01716 -0.310546,0.05078 h -2.517578 c -2.246364,0 -4.6422828,1.070615 -6.552735,2.777344 -1.9104522,1.706728 -3.3496093,4.11354 -3.3496093,6.857421 V 95.96875 c 0,2.743882 1.4391572,5.15069 3.3496093,6.85742 1.9104521,1.70673 4.306371,2.77735 6.552735,2.77735 H 15.333 c 0.100085,0.0336 0.204964,0.0508 0.310546,0.0508 H 66.0625 66.642578 112.2793 c 0.10558,-2e-5 0.21046,-0.0172 0.31054,-0.0508 h 2.51758 c 2.24637,0 4.64228,-1.07062 6.55274,-2.77735 1.91045,-1.70673 3.34961,-4.113541 3.34961,-6.85742 V 32.507812 c 0,-2.743882 -1.43916,-5.150693 -3.34961,-6.857421 -1.91046,-1.706729 -4.30638,-2.777344 -6.55274,-2.777344 h -2.51758 c -0.10008,-0.03362 -0.20496,-0.05077 -0.31054,-0.05078 H 66.642578 66.0625 Z m 1.982422,5.171875 H 66.0625 66.642578 110.29883 c 0.0966,0.03106 0.19739,0.04688 0.29883,0.04687 h 2.73046 c 1.53667,0 3.55112,0.802137 5.09961,2.123046 1.54849,1.32091 2.61133,3.093934 2.61133,4.964844 v 59.083985 c 0,1.87091 -1.06284,3.643934 -2.61133,4.964843 -1.54849,1.320901 -3.56294,2.123051 -5.09961,2.123051 h -2.73046 c -0.10351,0 -0.20636,0.0165 -0.30469,0.0488 H 66.642578 66.0625 17.629875 c -0.09833,-0.0323 -0.20118,-0.0488 -0.304688,-0.0488 h -2.730469 c -1.536659,0 -3.551118,-0.80214 -5.0996091,-2.123051 C 7.9466183,97.856825 6.8837808,96.0838 6.8837808,94.212891 V 35.128906 c 0,-1.870909 1.0628374,-3.643934 2.6113281,-4.964844 1.5484911,-1.320909 3.5629501,-2.123046 5.0996091,-2.123046 h 2.730469 c 0.102095,2.11e-4 0.203591,-0.01561 0.300781,-0.04687 z"
           id="path829"
           inkscape:connector-curvature="0"
           sodipodi:nodetypes="ccssssssccccccscsscsccccccccccsssscsccccccscssssccc" />
        <g
           id="text1097"
           style="font-style:normal;font-weight:normal;font-size:40px;line-height:125%;font-family:sans-serif;letter-spacing:0px;word-spacing:0px;fill:#ebebec;fill-opacity:0.99607843;stroke:none;stroke-width:1px;stroke-linecap:butt;stroke-linejoin:miter;stroke-opacity:1;filter:url(#filter1111)"
           transform="matrix(0.22739172,0,0,0.22853944,5.2849591,265.81434)"
           aria-label="OK">
          <path
             id="path858"
             style="font-style:normal;font-variant:normal;font-weight:600;font-stretch:normal;font-family:FreeSans;-inkscape-font-specification:'FreeSans Semi-Bold';fill:#ebebec;fill-opacity:0.99607843"
             d="m 36.756339,50.190674 q -3.84,-4.28 -3.84,-11 0,-6.72 3.84,-11 3.88,-4.28 10.16,-4.28 6.32,0 10.2,4.28 3.88,4.24 3.88,11.2 0,6.48 -3.84,10.8 -3.8,4.28 -10.2,4.28 -6.36,0 -10.2,-4.28 z m 10.2,-21.16 q -3.64,0 -5.84,2.8 -2.2,2.76 -2.2,7.36 0,4.6 2.2,7.4 2.2,2.76 5.84,2.76 3.6,0 5.8,-2.76 2.24,-2.76 2.24,-7.24 0,-4.72 -2.2,-7.52 -2.16,-2.8 -5.84,-2.8 z"
             inkscape:connector-curvature="0" />
          <path
             id="path860"
             style="font-style:normal;font-variant:normal;font-weight:600;font-stretch:normal;font-family:FreeSans;-inkscape-font-specification:'FreeSans Semi-Bold';fill:#ebebec;fill-opacity:0.99607843"
             d="m 71.766339,43.790674 v 9.76 h -6 v -29.16 h 6 v 12.8 l 11.4,-12.8 h 7.08 l -11.64,12.56 12.88,16.6 h -7.16 l -9.56,-12.88 z"
             inkscape:connector-curvature="0" />
        </g>
        <g
           id="text1093"
           style="font-style:normal;font-weight:normal;font-size:9.11859417px;line-height:125%;font-family:sans-serif;letter-spacing:0px;word-spacing:0px;fill:#47474b;fill-opacity:0.99607843;stroke:none;stroke-width:0.22796485px;stroke-linecap:butt;stroke-linejoin:miter;stroke-opacity:1"
           transform="scale(0.99748585,1.0025205)"
           aria-label="OK">
          <path
             id="path863"
             style="font-style:normal;font-variant:normal;font-weight:600;font-stretch:normal;font-family:FreeSans;-inkscape-font-specification:'FreeSans Semi-Bold';fill:#47474b;fill-opacity:0.99607843;stroke-width:0.22796485px"
             d="m 13.677434,276.13183 q -0.875385,-0.97568 -0.875385,-2.50761 0,-1.53192 0.875385,-2.50761 0.884504,-0.97569 2.316123,-0.97569 1.440738,0 2.325242,0.97569 0.884503,0.96657 0.884503,2.5532 0,1.47722 -0.875385,2.46202 -0.866266,0.97569 -2.325241,0.97569 -1.449857,0 -2.325242,-0.97569 z m 2.325242,-4.82373 q -0.829792,0 -1.331315,0.6383 -0.501523,0.62918 -0.501523,1.67782 0,1.04864 0.501523,1.68694 0.501523,0.62918 1.331315,0.62918 0.820673,0 1.322196,-0.62918 0.510641,-0.62918 0.510641,-1.65046 0,-1.076 -0.501522,-1.7143 -0.492405,-0.6383 -1.331315,-0.6383 z"
             inkscape:connector-curvature="0" />
          <path
             id="path865"
             style="font-style:normal;font-variant:normal;font-weight:600;font-stretch:normal;font-family:FreeSans;-inkscape-font-specification:'FreeSans Semi-Bold';fill:#47474b;fill-opacity:0.99607843;stroke-width:0.22796485px"
             d="m 21.658484,274.67286 v 2.22494 h -1.367789 v -6.64746 h 1.367789 v 2.91795 l 2.598799,-2.91795 h 1.613991 l -2.65351,2.86324 2.936187,3.78422 h -1.632228 l -2.179344,-2.93619 z"
             inkscape:connector-curvature="0" />
        </g>
      </g>
      <g
         transform="matrix(0.63734476,0,0,0.63734476,-24.666743,109.20457)"
         id="g1740">
        <circle
           r="14.114256"
           cy="280.55423"
           cx="52.79958"
           id="circle1698"
           style="opacity:1;fill:#2a2a2a;fill-opacity:0.91911765;stroke:none;stroke-width:0.31674251;stroke-linecap:round;stroke-linejoin:bevel;stroke-miterlimit:4;stroke-dasharray:none;stroke-dashoffset:0;stroke-opacity:1" />
        <circle
           style="opacity:1;fill:url(#linearGradient1706);fill-opacity:1;stroke:none;stroke-width:0.27752244;stroke-linecap:round;stroke-linejoin:bevel;stroke-miterlimit:4;stroke-dasharray:none;stroke-dashoffset:0;stroke-opacity:1"
           id="path1696"
           cx="52.79958"
           cy="280.55423"
           r="12.366584" />
        <path
           style="fill:#f7f7f7;fill-opacity:0.65808835;fill-rule:evenodd;stroke:none;stroke-width:0.24475935px;stroke-linecap:butt;stroke-linejoin:miter;stroke-opacity:1"
           d="m 59.658376,270.2717 c -4.216469,6.38599 -10.963031,15.73502 -14.213252,20.20651 a 12.366584,12.366584 0 0 0 6.043929,2.36919 c 2.810809,-1.24029 6.923762,-3.07082 11.360278,-5.10457 a 12.366584,12.366584 0 0 0 2.316608,-7.18837 12.366584,12.366584 0 0 0 -5.507563,-10.28276 z"
           id="path1708"
           inkscape:connector-curvature="0" />
        <circle
           style="opacity:1;fill:url(#radialGradient1721);fill-opacity:1;stroke:none;stroke-width:0.15465567;stroke-linecap:round;stroke-linejoin:bevel;stroke-miterlimit:4;stroke-dasharray:none;stroke-dashoffset:0;stroke-opacity:1"
           id="circle1713"
           cx="52.79958"
           cy="280.55423"
           r="6.8915586" />
        <ellipse
           cy="278.28586"
           cx="52.751492"
           id="circle1723"
           style="opacity:1;fill:url(#linearGradient1733);fill-opacity:1;stroke:none;stroke-width:0.10665098;stroke-linecap:round;stroke-linejoin:bevel;stroke-miterlimit:4;stroke-dasharray:none;stroke-dashoffset:0;stroke-opacity:1"
           rx="5.6445627"
           ry="4.0013146" />
      </g>
      <path
         id="rect3609"
         d="m 23.595986,285.85493 c -0.113486,0 -0.227234,0.0433 -0.314192,0.13022 l -0.33383,0.33383 c -0.173917,0.17392 -0.17392,0.45395 0,0.62787 l 7.839832,7.83984 -7.03213,5.2e-4 c -0.123008,-2e-5 -0.23343,0.0495 -0.313676,0.12971 -0.08025,0.0802 -0.12968,0.19073 -0.129707,0.31368 l -5.3e-4,0.47232 c 2e-6,0.24596 0.197944,0.4439 0.443901,0.4439 h 8.904882 c 0.124304,1e-5 0.236345,-0.051 0.316778,-0.13281 0.08178,-0.0804 0.132302,-0.19194 0.132292,-0.31626 v -8.90489 c -3e-6,-0.24595 -0.197943,-0.44389 -0.443903,-0.4439 h -0.471805 c -0.245951,1e-5 -0.443896,0.19795 -0.443899,0.4439 v 7.03213 l -7.840337,-7.83984 c -0.08696,-0.087 -0.20019,-0.13022 -0.313676,-0.13022 z"
         style="opacity:1;fill:#0066ff;fill-opacity:0.90588235;stroke:none;stroke-width:0.30000001;stroke-linecap:round;stroke-linejoin:bevel;stroke-miterlimit:4;stroke-dasharray:none;stroke-dashoffset:0;stroke-opacity:1"
         inkscape:connector-curvature="0" />
    </g>
  </g>
</svg>
