<svg height="32" viewBox="0 0 8.4666665 8.4666669" width="32" xmlns="http://www.w3.org/2000/svg" xmlns:xlink="http://www.w3.org/1999/xlink"><linearGradient id="a" gradientUnits="userSpaceOnUse" x1="3.533261" x2="3.178232" xlink:href="#b" y1="6.536628" y2="1.266435"/><linearGradient id="b" gradientUnits="userSpaceOnUse" x1="3.825946" x2="3.825946" y1="295.92435" y2="291.72922"><stop offset="0" stop-color="#555"/><stop offset="1"/></linearGradient><linearGradient id="c" gradientUnits="userSpaceOnUse" x1="4.616495" x2="4.616495" xlink:href="#b" y1="295.942539" y2="290.182205"/><g transform="translate(0 -288.53332)"><g fill="url(#a)" stroke-width=".132303" transform="translate(12.7 287.47499)"><path d="m2.0583612 4.2774857q-.3281119.5080442-.8679088.5080442-.53979699 0-.86790887-.5186285-.32811188-.5186285-.32811188-1.333616 0-.7673585.32811188-1.2806948.32811188-.5186285.88907737-.5186285.5186284 0 .8467403.5080442.3281119.5080443.3281119 1.3230318 0 .8044034-.3281119 1.3124476zm-.8626167-3.0059282q-.69326865 0-.69326865 1.709357 0 1.6670201.68797655 1.6670201.6879765 0 .6879765-1.6723122 0-.830864-.1746402-1.2648184-.1746402-.4392465-.5080442-.4392465z"/><path d="m3.2649662 4.7220243q0 0-.042337.010584-.047629.010584-.1005504.010584-.1428874 0-.2275615-.068798-.084674-.07409-.084674-.2011008 0-.1323032.084674-.2169772.089966-.084674.2275615-.084674.1799323 0 .3016512.1375953.121719.1323032.121719.333404 0 .2381458-.164056.4604151-.1640559.2222701-.4286623.3545733l-.0476291-.1005504q.4339544-.2963591.4339544-.5609655 0-.07409-.07409-.07409z"/><path d="m6.0274565 4.2774857q-.3281119.5080442-.8679089.5080442-.539797 0-.8679088-.5186285-.3281119-.5186285-.3281119-1.333616 0-.7673585.3281119-1.2806948.3281118-.5186285.8890773-.5186285.5186285 0 .8467404.5080442.3281118.5080443.3281118 1.3230318 0 .8044034-.3281118 1.3124476zm-.8626168-3.0059282q-.6932686 0-.6932686 1.709357 0 1.6670201.6879765 1.6670201.6879765 0 .6879765-1.6723122 0-.830864-.1746402-1.2648184-.1746402-.4392465-.5080442-.4392465z"/></g><text style="font-size:7.680444;font-family:sans-serif;letter-spacing:0;word-spacing:0;stroke-width:.192011;fill:url(#c)" x="-.183784" y="295.30887"><tspan fill="url(#c)" font-family="FreeSerif" letter-spacing="-.38316053" stroke-width=".192011" x="-.183784" y="295.30887">0.0</tspan></text></g></svg>