<svg height="32" viewBox="0 0 8.4666665 8.4666669" width="32" xmlns="http://www.w3.org/2000/svg" xmlns:xlink="http://www.w3.org/1999/xlink"><linearGradient id="a" gradientUnits="userSpaceOnUse" x1="3.533261" x2="3.178232" xlink:href="#b" y1="6.536628" y2="1.266435"/><linearGradient id="b" gradientUnits="userSpaceOnUse" x1="3.825946" x2="3.825946" y1="295.92435" y2="291.72922"><stop offset="0" stop-color="#555"/><stop offset="1"/></linearGradient><linearGradient id="c" gradientUnits="userSpaceOnUse" x1="4.175537" x2="4.175537" xlink:href="#b" y1="295.654386" y2="290.273599"/><g transform="translate(0 -288.53332)"><g fill="url(#a)" stroke-width=".132303" transform="translate(12.7 287.47499)"><path d="m2.0583612 4.2774857q-.3281119.5080442-.8679088.5080442-.53979699 0-.86790887-.5186285-.32811188-.5186285-.32811188-1.333616 0-.7673585.32811188-1.2806948.32811188-.5186285.88907737-.5186285.5186284 0 .8467403.5080442.3281119.5080443.3281119 1.3230318 0 .8044034-.3281119 1.3124476zm-.8626167-3.0059282q-.69326865 0-.69326865 1.709357 0 1.6670201.68797655 1.6670201.6879765 0 .6879765-1.6723122 0-.830864-.1746402-1.2648184-.1746402-.4392465-.5080442-.4392465z"/><path d="m3.2649662 4.7220243q0 0-.042337.010584-.047629.010584-.1005504.010584-.1428874 0-.2275615-.068798-.084674-.07409-.084674-.2011008 0-.1323032.084674-.2169772.089966-.084674.2275615-.084674.1799323 0 .3016512.1375953.121719.1323032.121719.333404 0 .2381458-.164056.4604151-.1640559.2222701-.4286623.3545733l-.0476291-.1005504q.4339544-.2963591.4339544-.5609655 0-.07409-.07409-.07409z"/><path d="m6.0274565 4.2774857q-.3281119.5080442-.8679089.5080442-.539797 0-.8679088-.5186285-.3281119-.5186285-.3281119-1.333616 0-.7673585.3281119-1.2806948.3281118-.5186285.8890773-.5186285.5186285 0 .8467404.5080442.3281118.5080443.3281118 1.3230318 0 .8044034-.3281118 1.3124476zm-.8626168-3.0059282q-.6932686 0-.6932686 1.709357 0 1.6670201.6879765 1.6670201.6879765 0 .6879765-1.6723122 0-.830864-.1746402-1.2648184-.1746402-.4392465-.5080442-.4392465z"/></g><g fill="url(#c)" stroke-width=".17936"><path d="m.0646157 291.38919q0-.45916.32284714-.73896.32284713-.27981.95419266-.35155v-.45199h.2439289v.45199q.8107051.0933 1.1550753.38024v.79636h-.1076157q-.093267-.45916-.3443703-.68874-.2511033-.23676-.7030893-.29415v1.7649q.071744.043.2726265.15783.208057.11479.2726265.15784.071744.043.2295802.15066.1578363.10044.2152314.16501.057395.0646.1578364.17936.1004413.11479.1363132.22241.035872.10044.064569.24393.035872.14348.035872.30849 0 .53808-.3515446.82506-.3443703.2798-1.0331109.39459v.62417h-.2439286v-.62417q-.45198601-.0144-.73178686-.0861-.27980085-.0789-.60264799-.2798v-.93267h.10761572q.12913885.56677.42328846.83222.29414961.25828.80353067.26546v-2.02318q-.71026372-.39458-.99723895-.70308-.27980085-.31567-.27980085-.74613zm1.2698654.75331v-1.65011q-.73896122.15066-.73896122.73896 0 .2511.14348761.43046.150662.17936.59547361.48069zm.2511033.81788v1.90121q.8178794-.15784.8178794-.84658 0-.33002-.1578363-.5309-.1578364-.20806-.6600431-.52373z"/><path d="m7.7204848 292.40077q.3515447 0 .545253.20089.1937082.20088.1937082.56677 0 .41612-.1650107.82506-.1650108.40894-.451986.70309-.3658934.36589-.8394026.36589-.3874165 0-.6241711-.2511-.2367545-.25828-.2367545-.6744 0-.67439.4806835-1.20529.4878579-.53091 1.0976802-.53091zm-.5954736 2.44647q.3084984 0 .5811249-.27263.2726264-.27262.416114-.64569.150662-.38024.150662-.72462 0-.23675-.150662-.40176-.1434876-.17219-.3515446-.17219-.3300215 0-.5954736.37307-.2654521.37307-.3802422.76766-.1076157.38742-.1076157.617 0 .20088.1219645.33002.1219644.12914.3156727.12914zm-2.1810117-4.53421q.2224058 0 .358719.10044.1363132.0933.301324.19371.1721851.0933.4663347.0933.3371959 0 .5811249-.10762.2511033-.10762.5380785-.38024h.2798009l-2.7621366 4.94315h-.3443703l2.5182077-4.49117q-.3730678.21524-.7891819.21524-.2798009 0-.4663348-.0718.050221.17936.050221.31567 0 .66722-.4304628 1.26987-.4232885.59547-1.0402853.59547-.3515446 0-.6026479-.26545-.243929-.27263-.243929-.64569 0-.68157.4806835-1.21965.4878579-.54525 1.1048547-.54525zm0 .21523q-.3443703 0-.695915.63135-.3443703.62417-.3443703 1.1479 0 .19371.1147901.31567.1219645.12196.3084984.12196.4376372 0 .8035307-.50938.3658934-.51655.3658934-1.12637 0-.13632-.064569-.35155-.1434877-.0359-.243929-.0789-.093267-.0502-.1291388-.0789-.028698-.0287-.057395-.0502-.028697-.0215-.057395-.0215z"/></g></g></svg>