<svg height="32" viewBox="0 0 8.4666665 8.466667" width="32" xmlns="http://www.w3.org/2000/svg" xmlns:xlink="http://www.w3.org/1999/xlink"><linearGradient id="a" gradientUnits="userSpaceOnUse" x1="1.72204" x2="1.72204" y1="290.708971" y2="288.503525"><stop offset="0" stop-color="#06f"/><stop offset="1" stop-color="#80b3ff"/></linearGradient><linearGradient id="b" gradientUnits="userSpaceOnUse" x1="1.367333" x2="1.367333" y1="294.597863" y2="292.422316"><stop offset="0" stop-color="#777e88"/><stop offset="1" stop-color="#bfbfbf"/></linearGradient><g fill="#404040" fill-opacity=".839216" transform="matrix(-.225 0 0 .25 .529167 -66.04791)"><path d="m-31.749998 273.71664h21.166666v1.058347h-21.166666z"/><path d="m-31.749998 269.48331h21.166666v1.058347h-21.166666z"/><path d="m-26.458332 277.94998h15.875v1.058347h-15.875z"/></g><g font-family="Bitstream Vera Sans" font-size="3.175" transform="matrix(1.02 0 0 1.02 -.098107 -297.685273)"><text fill="none" stroke="url(#b)" stroke-linejoin="round" stroke-width=".529167" x=".948377" y="294.59787"><tspan style="font-weight:bold;font-size:1.897312;font-family:Liberation Sans;fill:none;stroke-width:.529167;stroke-linejoin:round;stroke:url(#b)" x=".948377" y="294.59787">2</tspan></text><text fill="#dfdfdf" stroke-width=".264583" x=".948377" y="294.59784"><tspan fill="#dfdfdf" font-family="Liberation Sans" font-size="1.897312" font-weight="bold" stroke-width=".264583" x=".948377" y="294.59784">2</tspan></text></g><g font-family="Bitstream Vera Sans" font-size="3.175" transform="matrix(1.02 0 0 1.02 -.1485 -290.201618)"><text stroke="url(#a)" stroke-linejoin="round" stroke-width=".529167" x=".916063" y="290.89249"><tspan style="font-weight:bold;font-size:1.905007;font-family:Liberation Sans;stroke-width:.529167;stroke-linejoin:round;stroke:url(#a)" x=".916063" y="290.89249">1</tspan></text><text fill="#bfd9ff" stroke-width=".264583" x=".916079" y="290.89252"><tspan fill="#bfd9ff" font-family="Liberation Sans" font-size="1.905007" font-weight="bold" stroke-width=".264583" x=".916079" y="290.89252">1</tspan></text></g><g fill="#404040" fill-opacity=".839216" transform="matrix(-.225 0 0 .25 .529167 -62.343747)"><path d="m-31.749998 273.71664h21.166666v1.058347h-21.166666z"/><path d="m-31.749998 269.48331h21.166666v1.058347h-21.166666z"/><path d="m-26.458332 277.94998h15.875v1.058347h-15.875z"/></g></svg>