<?xml version="1.0" encoding="UTF-8" standalone="no"?>
<svg
   xmlns:dc="http://purl.org/dc/elements/1.1/"
   xmlns:cc="http://creativecommons.org/ns#"
   xmlns:rdf="http://www.w3.org/1999/02/22-rdf-syntax-ns#"
   xmlns:svg="http://www.w3.org/2000/svg"
   xmlns="http://www.w3.org/2000/svg"
   xmlns:xlink="http://www.w3.org/1999/xlink"
   xmlns:sodipodi="http://sodipodi.sourceforge.net/DTD/sodipodi-0.dtd"
   xmlns:inkscape="http://www.inkscape.org/namespaces/inkscape"
   height="32"
   width="32"
   version="1.1"
   id="svg133"
   sodipodi:docname="removehyperlink.svg"
   inkscape:version="0.92.3 (2405546, 2018-03-11)"
   inkscape:export-filename="/home/rizmut/Dokumen/Rizmut/Github/libreoffice-style-karasa-jaga/build/next/cmd/32/removehyperlink.png"
   inkscape:export-xdpi="96"
   inkscape:export-ydpi="96">
  <metadata
     id="metadata139">
    <rdf:RDF>
      <cc:Work
         rdf:about="">
        <dc:format>image/svg+xml</dc:format>
        <dc:type
           rdf:resource="http://purl.org/dc/dcmitype/StillImage" />
        <dc:title></dc:title>
      </cc:Work>
    </rdf:RDF>
  </metadata>
  <defs
     id="defs137">
    <radialGradient
       id="h-2"
       cx="84.903702"
       cy="-130.14005"
       gradientTransform="rotate(-45,342.93203,-200.14073)"
       gradientUnits="userSpaceOnUse"
       r="57.039597"
       xlink:href="#i-8" />
    <linearGradient
       id="i-8">
      <stop
         offset="0"
         stop-color="#3a0b02"
         id="stop40-9" />
      <stop
         offset="1"
         stop-color="#a21d07"
         stop-opacity=".382353"
         id="stop42-6" />
    </linearGradient>
    <radialGradient
       id="j-0"
       cx="2.7207029"
       cy="-66.273438"
       gradientTransform="rotate(-45,342.93203,-200.14073)"
       gradientUnits="userSpaceOnUse"
       r="57.039597"
       xlink:href="#i-8" />
    <radialGradient
       id="k-2"
       cx="51.991096"
       cy="-78.028419"
       gradientTransform="rotate(-45,342.93203,-200.14073)"
       gradientUnits="userSpaceOnUse"
       r="57.039597"
       xlink:href="#i-8" />
    <linearGradient
       inkscape:collect="always"
       xlink:href="#linearGradient3499"
       id="linearGradient3269"
       gradientUnits="userSpaceOnUse"
       gradientTransform="scale(1.0975951,0.9110828)"
       x1="26.091133"
       y1="14.856744"
       x2="31.500689"
       y2="14.856744" />
    <linearGradient
       id="linearGradient3499">
      <stop
         id="stop3501"
         style="stop-color:#ffffff;stop-opacity:1"
         offset="0" />
      <stop
         id="stop3503"
         style="stop-color:#ffffff;stop-opacity:0"
         offset="1" />
    </linearGradient>
    <filter
       id="l-6"
       height="1.277481"
       width="1.279832"
       x="-0.139916"
       y="-0.138741">
      <feGaussianBlur
         stdDeviation=".28784801"
         id="feGaussianBlur47" />
    </filter>
    <filter
       id="filter3333"
       height="1.277481"
       width="1.279832"
       x="-0.139916"
       y="-0.138741">
      <feGaussianBlur
         stdDeviation=".28784801"
         id="feGaussianBlur3331" />
    </filter>
    <linearGradient
       id="e-9"
       gradientUnits="userSpaceOnUse"
       x1="304.88663"
       x2="345.62039"
       y1="385.86127"
       y2="384.62384">
      <stop
         offset="0"
         stop-color="#765c44"
         id="stop24-9" />
      <stop
         offset="1"
         stop-color="#765c44"
         stop-opacity="0"
         id="stop26-3" />
    </linearGradient>
    <filter
       id="filter3340"
       height="1.277481"
       width="1.279832"
       x="-0.139916"
       y="-0.138741">
      <feGaussianBlur
         stdDeviation=".28784801"
         id="feGaussianBlur3338" />
    </filter>
    <linearGradient
       inkscape:collect="always"
       xlink:href="#f-7"
       id="linearGradient3271"
       gradientUnits="userSpaceOnUse"
       x1="88.606247"
       y1="13.510336"
       x2="91.575104"
       y2="13.510336"
       spreadMethod="reflect" />
    <linearGradient
       id="f-7"
       gradientUnits="userSpaceOnUse"
       spreadMethod="reflect"
       x1="88.606247"
       x2="91.575104"
       y1="13.510336"
       y2="13.510336">
      <stop
         offset="0"
         stop-color="#ff8787"
         id="stop29-3" />
      <stop
         offset="1"
         stop-color="#ff8787"
         stop-opacity="0"
         id="stop31-1" />
    </linearGradient>
    <filter
       id="filter3348"
       height="1.277481"
       width="1.279832"
       x="-0.139916"
       y="-0.138741">
      <feGaussianBlur
         stdDeviation=".28784801"
         id="feGaussianBlur3346" />
    </filter>
    <linearGradient
       id="g-3"
       gradientUnits="userSpaceOnUse"
       spreadMethod="reflect"
       x1="31.606251"
       x2="34.575108"
       y1="13.510336"
       y2="13.510336">
      <stop
         offset="0"
         stop-color="#fff"
         id="stop34-6" />
      <stop
         offset="1"
         stop-color="#790000"
         stop-opacity="0"
         id="stop36-3" />
    </linearGradient>
    <filter
       id="filter3355"
       height="1.277481"
       width="1.279832"
       x="-0.139916"
       y="-0.138741">
      <feGaussianBlur
         stdDeviation=".28784801"
         id="feGaussianBlur3353" />
    </filter>
    <filter
       id="filter3366"
       height="1.277481"
       width="1.279832"
       x="-0.139916"
       y="-0.138741">
      <feGaussianBlur
         stdDeviation=".28784801"
         id="feGaussianBlur3364" />
    </filter>
    <radialGradient
       id="m-3"
       cx="50.424522"
       cy="-81.945961"
       gradientTransform="rotate(-45,342.93203,-200.14072)"
       gradientUnits="userSpaceOnUse"
       r="50.15279">
      <stop
         offset="0"
         stop-color="#db3424"
         id="stop50" />
      <stop
         offset="1"
         stop-color="#b32016"
         id="stop52" />
    </radialGradient>
    <linearGradient
       id="n-2"
       gradientTransform="rotate(-45,342.93203,-200.14073)"
       gradientUnits="userSpaceOnUse"
       x1="50.06789"
       x2="59.441998"
       y1="-154.40843"
       y2="-71.617722">
      <stop
         offset="0"
         stop-color="#fff"
         id="stop55-7" />
      <stop
         offset="1"
         stop-color="#fcf3f3"
         stop-opacity="0"
         id="stop57-5" />
    </linearGradient>
    <linearGradient
       inkscape:collect="always"
       xlink:href="#linearGradient3499"
       id="linearGradient1070"
       gradientUnits="userSpaceOnUse"
       gradientTransform="scale(1.0975951,0.9110828)"
       x1="26.091133"
       y1="14.856744"
       x2="31.500689"
       y2="14.856744" />
    <linearGradient
       inkscape:collect="always"
       xlink:href="#f-7"
       id="linearGradient1072"
       gradientUnits="userSpaceOnUse"
       x1="88.606247"
       y1="13.510336"
       x2="91.575104"
       y2="13.510336"
       spreadMethod="reflect" />
    <linearGradient
       inkscape:collect="always"
       xlink:href="#c"
       id="linearGradient984"
       gradientUnits="userSpaceOnUse"
       x1="64"
       y1="83.729706"
       x2="64"
       y2="-62.169582" />
    <linearGradient
       inkscape:collect="always"
       xlink:href="#a"
       id="linearGradient986"
       gradientUnits="userSpaceOnUse"
       x1="64"
       y1="24"
       x2="64"
       y2="-52" />
    <radialGradient
       inkscape:collect="always"
       xlink:href="#b"
       id="radialGradient988"
       gradientUnits="userSpaceOnUse"
       gradientTransform="matrix(23,-1e-6,6.1e-7,14.035669,-1452,156.4281)"
       cx="66"
       cy="-10.851176"
       r="2"
       spreadMethod="reflect" />
  </defs>
  <sodipodi:namedview
     pagecolor="#ffffff"
     bordercolor="#666666"
     borderopacity="1"
     objecttolerance="10"
     gridtolerance="10"
     guidetolerance="10"
     inkscape:pageopacity="0"
     inkscape:pageshadow="2"
     inkscape:window-width="1366"
     inkscape:window-height="714"
     id="namedview135"
     showgrid="true"
     inkscape:zoom="14.75"
     inkscape:cx="15.088466"
     inkscape:cy="10.37248"
     inkscape:window-x="0"
     inkscape:window-y="28"
     inkscape:window-maximized="1"
     inkscape:current-layer="g958">
    <inkscape:grid
       type="xygrid"
       id="grid929" />
  </sodipodi:namedview>
  <linearGradient
     id="a">
    <stop
       offset="0"
       stop-color="#c8c8c8"
       id="stop2" />
    <stop
       offset="1"
       stop-color="#e4e4e4"
       id="stop4" />
  </linearGradient>
  <linearGradient
     id="b">
    <stop
       offset="0"
       stop-color="#fff"
       id="stop7" />
    <stop
       offset="1"
       stop-color="#fff"
       stop-opacity="0"
       id="stop9" />
  </linearGradient>
  <linearGradient
     id="c">
    <stop
       offset="0"
       id="stop12" />
    <stop
       offset="1"
       stop-color="#7c7c7c"
       id="stop14" />
  </linearGradient>
  <filter
     id="d">
    <feGaussianBlur
       stdDeviation="1.36"
       id="feGaussianBlur17" />
  </filter>
  <filter
     id="e"
     height="1.05568"
     width="1.348"
     x="-0.17399999"
     y="-0.02784">
    <feGaussianBlur
       stdDeviation="1.16"
       id="feGaussianBlur20" />
  </filter>
  <linearGradient
     id="f"
     gradientUnits="userSpaceOnUse"
     x1="70"
     x2="70"
     xlink:href="#c"
     y1="127"
     y2="32.952141" />
  <linearGradient
     id="g"
     gradientTransform="matrix(1.1428572,0,0,1,-7.142858,0)"
     gradientUnits="userSpaceOnUse"
     x1="64"
     x2="64"
     xlink:href="#a"
     y1="100"
     y2="28" />
  <radialGradient
     id="h"
     cx="64"
     cy="54.400002"
     gradientTransform="matrix(7.7142861,0,0,1.7500001,-427.71431,-43.200007)"
     gradientUnits="userSpaceOnUse"
     r="16"
     spreadMethod="reflect"
     xlink:href="#b" />
  <radialGradient
     id="i"
     cx="89.923889"
     cy="-1.4142076"
     gradientUnits="userSpaceOnUse"
     r="113.80746">
    <stop
       offset="0"
       stop-color="#fff"
       id="stop26" />
    <stop
       offset=".5"
       stop-color="#fff"
       id="stop28" />
    <stop
       offset="1"
       stop-opacity="0"
       id="stop30" />
  </radialGradient>
  <mask
     id="j"
     maskUnits="userSpaceOnUse">
    <path
       d="M 9.923884,-81.414215 H 169.92388 v 160 H 9.923884 Z"
       transform="rotate(44.999996)"
       id="path33"
       inkscape:connector-curvature="0"
       style="opacity:0.6;fill:url(#i)" />
  </mask>
  <linearGradient
     id="k"
     gradientUnits="userSpaceOnUse"
     x1="70"
     x2="130"
     y1="98"
     y2="98">
    <stop
       offset="0"
       stop-color="#066704"
       id="stop36" />
    <stop
       offset="1"
       stop-color="#077d05"
       stop-opacity=".839216"
       id="stop38" />
  </linearGradient>
  <radialGradient
     id="l"
     cx="108.95794"
     cy="91.491646"
     gradientTransform="matrix(1.0783631,-0.16325698,0.14968763,0.98873334,-23.191389,17.327301)"
     gradientUnits="userSpaceOnUse"
     r="30"
     xlink:href="#m" />
  <linearGradient
     id="m">
    <stop
       offset="0"
       stop-color="#011701"
       id="stop42" />
    <stop
       offset=".80671918"
       stop-color="#145703"
       id="stop44" />
    <stop
       offset="1"
       stop-color="#2fa207"
       stop-opacity=".384314"
       id="stop46" />
  </linearGradient>
  <radialGradient
     id="n"
     cx="92.257149"
     cy="104.91638"
     gradientTransform="matrix(1.0783631,-0.16325698,0.14968763,0.98873334,-23.191389,17.327301)"
     gradientUnits="userSpaceOnUse"
     r="30"
     xlink:href="#m" />
  <linearGradient
     id="o"
     gradientTransform="scale(1.0975951,0.9110828)"
     gradientUnits="userSpaceOnUse"
     x1="26.091133"
     x2="31.500689"
     xlink:href="#b"
     y1="14.856744"
     y2="14.856744" />
  <filter
     id="p"
     height="1.277481"
     width="1.279832"
     x="-0.139916"
     y="-0.138741">
    <feGaussianBlur
       stdDeviation=".28784801"
       id="feGaussianBlur51" />
  </filter>
  <linearGradient
     id="q"
     gradientUnits="userSpaceOnUse"
     x1="304.88663"
     x2="345.62039"
     y1="385.86127"
     y2="384.62384">
    <stop
       offset="0"
       stop-color="#fff"
       stop-opacity=".683453"
       id="stop54" />
    <stop
       offset="1"
       stop-color="#fff"
       stop-opacity="0"
       id="stop56" />
  </linearGradient>
  <radialGradient
     id="r"
     cx="96"
     cy="102"
     gradientUnits="userSpaceOnUse"
     r="26">
    <stop
       offset="0"
       stop-color="#7ae91e"
       stop-opacity=".996078"
       id="stop59" />
    <stop
       offset="1"
       stop-color="#62c916"
       id="stop61" />
  </radialGradient>
  <linearGradient
     id="s"
     gradientUnits="userSpaceOnUse"
     x1="93.673332"
     x2="105.63081"
     xlink:href="#b"
     y1="57.081059"
     y2="114.86784" />
  <filter
     id="t"
     height="1.048"
     width="1.048"
     x="-0.024"
     y="-0.024"
     style="color-interpolation-filters:sRGB">
    <feGaussianBlur
       stdDeviation=".52"
       id="feGaussianBlur65" />
  </filter>
  <linearGradient
     id="u"
     gradientUnits="userSpaceOnUse"
     spreadMethod="reflect"
     x1="88.606247"
     x2="91.575104"
     y1="13.510336"
     y2="13.510336">
    <stop
       offset="0"
       stop-color="#c8ff87"
       id="stop68" />
    <stop
       offset="1"
       stop-color="#abff87"
       stop-opacity="0"
       id="stop70" />
  </linearGradient>
  <linearGradient
     id="v"
     gradientUnits="userSpaceOnUse"
     spreadMethod="reflect"
     x1="31.606251"
     x2="34.575108"
     y1="13.510336"
     y2="13.510336">
    <stop
       offset="0"
       stop-color="#fff"
       id="stop73" />
    <stop
       offset="1"
       stop-color="#790000"
       stop-opacity="0"
       id="stop75" />
  </linearGradient>
  <linearGradient
     id="w"
     gradientUnits="userSpaceOnUse"
     x1="64"
     x2="64"
     xlink:href="#c"
     y1="83.729706"
     y2="-62.169582" />
  <linearGradient
     id="x"
     gradientUnits="userSpaceOnUse"
     x1="64"
     x2="64"
     xlink:href="#a"
     y1="24"
     y2="-52" />
  <radialGradient
     id="y"
     cx="66"
     cy="-10.851176"
     gradientTransform="matrix(23,-1e-6,6.1e-7,14.035669,-1452,156.4281)"
     gradientUnits="userSpaceOnUse"
     r="2"
     spreadMethod="reflect"
     xlink:href="#b" />
  <clipPath
     id="z">
    <path
       d="M -149.21053,-56.964901 H -38.10914 V 54.136489 H -149.21053 Z"
       transform="matrix(-0.70710683,-0.70710673,-0.70710673,0.70710683,0,0)"
       id="path81"
       inkscape:connector-curvature="0" />
  </clipPath>
  <g
     id="g958"
     transform="scale(0.25)">
    <g
       id="g99"
       transform="matrix(-0.81465838,-0.81465827,-0.81465827,0.81465838,171.90558,65.629312)"
       mask="url(#j)"
       clip-path="url(#z)">
      <rect
         id="rect84"
         y="22"
         x="50"
         width="28"
         transform="matrix(1.1428572,0,0,1,-7.14286,0)"
         style="opacity:0.6;fill:none;stroke:url(#f);stroke-width:11.22497177;stroke-linecap:round;stroke-linejoin:round;filter:url(#d)"
         rx="14"
         height="84" />
      <rect
         id="rect86"
         y="22"
         x="50.000004"
         width="32"
         rx="16"
         height="84"
         style="fill:none;stroke:url(#g);stroke-width:4;stroke-linecap:round;stroke-linejoin:round" />
      <rect
         id="rect88"
         y="22"
         x="50.000004"
         width="32"
         rx="16"
         height="84"
         style="fill:none;stroke:url(#h);stroke-width:6.23525476;stroke-linecap:round;stroke-linejoin:round" />
      <g
         transform="translate(0,4)"
         id="A">
        <rect
           id="rect90"
           y="-56"
           x="64"
           width="4"
           style="opacity:0.6;fill:none;stroke:url(#linearGradient984);stroke-width:8;stroke-linecap:round;stroke-linejoin:round;filter:url(#e)"
           rx="2"
           height="88" />
        <rect
           id="rect92"
           y="-54.675007"
           x="62.051483"
           width="5.9485168"
           ry="1.532357"
           rx="2"
           height="86.674995"
           style="fill:url(#linearGradient986)" />
        <rect
           id="rect94"
           y="-20.291105"
           x="64.353554"
           width="3.6464441"
           ry="2"
           rx="1.204504"
           height="52.291073"
           style="fill:url(#radialGradient988)" />
      </g>
      <use
         id="use97"
         xlink:href="#A"
         width="128"
         transform="translate(0,144)"
         height="128"
         x="0"
         y="0" />
    </g>
    <g
       transform="matrix(0.29628449,0.29628449,-0.29628449,0.29628449,59.456364,13.189048)"
       id="g114"
       style="overflow:visible">
      <path
         sodipodi:nodetypes="ccccccccccccccccccccc"
         d="m 195.29345,-8.8169787 c -3.80348,-1.142e-4 -6.88683,3.0832392 -6.88672,6.886715 V 59.002062 l -60.93428,-4e-6 c -3.80348,-1.14e-4 -6.88683,3.083242 -6.88672,6.88672 l 1e-5,24.380857 c -1.1e-4,3.803473 3.08324,6.886827 6.88671,6.886718 l 60.93428,10e-7 v 60.932326 c -1.1e-4,3.80348 3.08324,6.88683 6.88672,6.88672 h 24.38086 c 3.80348,1.1e-4 6.88683,-3.08324 6.88672,-6.88672 V 97.156353 h 60.93232 c 3.80348,1.14e-4 6.88683,-3.083242 6.88672,-6.886719 V 65.888777 c 1.1e-4,-3.803478 -3.08324,-6.886834 -6.88672,-6.88672 l -60.93232,10e-7 V -1.9302657 c 1.1e-4,-3.8034781 -3.08325,-6.8868307 -6.88673,-6.886711 z"
         id="path86"
         style="fill:url(#h-2)"
         inkscape:connector-curvature="0" />
      <path
         sodipodi:nodetypes="ccccccccccccccccccccc"
         d="m 195.29345,-8.8169787 c -3.80348,-1.142e-4 -6.88683,3.0832392 -6.88672,6.886715 V 59.002062 l -60.93428,-4e-6 c -3.80348,-1.14e-4 -6.88683,3.083242 -6.88672,6.88672 l 1e-5,24.380857 c -1.1e-4,3.803473 3.08324,6.886827 6.88671,6.886718 l 60.93428,10e-7 v 60.932326 c -1.1e-4,3.80348 3.08324,6.88683 6.88672,6.88672 h 24.38086 c 3.80348,1.1e-4 6.88683,-3.08324 6.88672,-6.88672 V 97.156353 h 60.93232 c 3.80348,1.14e-4 6.88683,-3.083242 6.88672,-6.886719 V 65.888777 c 1.1e-4,-3.803478 -3.08324,-6.886834 -6.88672,-6.88672 l -60.93232,10e-7 V -1.9302657 c 1.1e-4,-3.8034781 -3.08325,-6.8868307 -6.88673,-6.886711 z"
         id="path88"
         style="fill:url(#j-0)"
         inkscape:connector-curvature="0" />
      <path
         sodipodi:nodetypes="ccccccccccccccccccccc"
         d="m 195.29345,-8.8169787 c -3.80348,-1.142e-4 -6.88683,3.0832392 -6.88672,6.886715 V 59.002062 l -60.93428,-4e-6 c -3.80348,-1.14e-4 -6.88683,3.083242 -6.88672,6.88672 l 1e-5,24.380857 c -1.1e-4,3.803473 3.08324,6.886827 6.88671,6.886718 l 60.93428,10e-7 v 60.932326 c -1.1e-4,3.80348 3.08324,6.88683 6.88672,6.88672 h 24.38086 c 3.80348,1.1e-4 6.88683,-3.08324 6.88672,-6.88672 V 97.156353 h 60.93232 c 3.80348,1.14e-4 6.88683,-3.083242 6.88672,-6.886719 V 65.888777 c 1.1e-4,-3.803478 -3.08324,-6.886834 -6.88672,-6.88672 l -60.93232,10e-7 V -1.9302657 c 1.1e-4,-3.8034781 -3.08325,-6.8868307 -6.88673,-6.886711 z"
         id="path90"
         style="fill:url(#k-2)"
         inkscape:connector-curvature="0" />
      <path
         sodipodi:nodetypes="ccccccccccccccccccccc"
         d="m 195.29345,-8.8169787 c -3.80348,-1.142e-4 -6.88683,3.0832392 -6.88672,6.886715 V 59.002062 l -60.93428,-4e-6 c -3.80348,-1.14e-4 -6.88683,3.083242 -6.88672,6.88672 l 1e-5,24.380857 c -1.1e-4,3.803473 3.08324,6.886827 6.88671,6.886718 l 60.93428,10e-7 v 60.932326 c -1.1e-4,3.80348 3.08324,6.88683 6.88672,6.88672 h 24.38086 c 3.80348,1.1e-4 6.88683,-3.08324 6.88672,-6.88672 V 97.156353 h 60.93232 c 3.80348,1.14e-4 6.88683,-3.083242 6.88672,-6.886719 V 65.888777 c 1.1e-4,-3.803478 -3.08324,-6.886834 -6.88672,-6.88672 l -60.93232,10e-7 V -1.9302657 c 1.1e-4,-3.8034781 -3.08325,-6.8868307 -6.88673,-6.886711 z"
         id="path92"
         inkscape:connector-curvature="0"
         style="fill:#56331f;fill-opacity:0.90588199" />
      <g
         id="g106"
         style="fill-rule:evenodd">
        <path
           d="m 31.7,16 2.875,-3.375 c -1.051205,-1.695758 -3.935136,-2.288018 -5.9375,-0.3125 l 2.8125,3.375 z"
           transform="matrix(1.4915065,1.4915065,1.5058288,-1.5058288,127.59411,129.77373)"
           id="path94"
           style="opacity:0.498127;fill:url(#linearGradient1070);filter:url(#l-6)"
           inkscape:connector-curvature="0" />
        <path
           d="m 31.7,16 2.875,-3.375 c -1.051205,-1.695758 -3.935136,-2.288018 -5.9375,-0.3125 l 2.8125,3.375 z"
           transform="matrix(-1.4871264,1.4871264,-1.472982,-1.472982,353.36672,62.915512)"
           id="path96"
           style="opacity:0.79026196;fill:url(#linearGradient3269);filter:url(#l-6)"
           inkscape:connector-curvature="0" />
        <path
           d="m 31.7,16 2.875,-3.375 c -1.051205,-1.695758 -3.935136,-2.288018 -5.9375,-0.3125 l 2.8125,3.375 z"
           transform="matrix(1.3506327,1.3506327,-1.3636023,1.3636023,262.13812,4.1059019)"
           id="path98"
           style="opacity:0.498127;fill:url(#e-9);filter:url(#l-6)"
           inkscape:connector-curvature="0" />
        <path
           d="m 88.7,16 2.875,-3.375 c -1.051205,-1.695758 -3.935136,-2.288018 -5.9375,-0.3125 l 2.8125,3.375 z"
           transform="matrix(-1.3636023,1.3636023,-1.3506327,-1.3506327,358.72933,55.241431)"
           id="path100"
           style="opacity:0.79026196;fill:url(#linearGradient1072);filter:url(#l-6)"
           inkscape:connector-curvature="0" />
        <path
           d="m 31.7,16 2.875,-3.375 c -1.051205,-1.695758 -3.935136,-2.288018 -5.9375,-0.3125 l 2.8125,3.375 z"
           transform="matrix(-1.2400782,1.2400782,1.2282835,1.2282835,217.29025,-57.594987)"
           id="path102"
           style="opacity:0.79026196;fill:url(#g-3);filter:url(#l-6)"
           inkscape:connector-curvature="0" />
        <path
           d="m 88.7,16 2.875,-3.375 c -1.051205,-1.695758 -3.935136,-2.288018 -5.9375,-0.3125 l 2.8125,3.375 z"
           transform="matrix(-1.2731338,1.2731338,1.2610246,1.2610246,223.27547,-64.198776)"
           id="path104"
           style="opacity:0.79026196;fill:url(#linearGradient3271);filter:url(#l-6)"
           inkscape:connector-curvature="0" />
      </g>
      <path
         sodipodi:nodetypes="ccccccccccccc"
         d="M 195.29345,-1.9302687 V 65.88878 l -67.82099,10e-7 -1e-5,24.38085 67.821,3e-6 v 67.819046 h 24.38086 V 90.269634 h 67.81904 V 65.88878 l -67.81904,-10e-7 -1e-5,-67.8190447 z"
         id="path108"
         style="fill:url(#m-3)"
         inkscape:connector-curvature="0" />
      <path
         sodipodi:nodetypes="cccccccccccccccccccccccccccccc"
         d="m 127.47266,65.887832 -1e-5,24.381371 h 67.82164 l -10e-4,67.820257 h 24.38138 V 90.270585 l 67.81887,-10e-7 V 65.889212 l -67.81887,-10e-7 -1e-5,-67.8188687 -24.38136,2e-6 V 65.889212 Z m 1.73186,1.731861 66.08839,0.0014 c 0.95652,9.2e-5 1.73195,-0.775341 1.73186,-1.731859 V -0.19777368 l 20.91765,-4e-6 V 65.88923 c -9e-5,0.956519 0.77534,1.731954 1.73186,1.731862 h 66.08701 v 20.917655 h -66.08701 c -0.95652,-9.2e-5 -1.73195,0.775341 -1.73186,1.731859 v 66.087014 h -20.91766 l 0.001,-66.088395 c 9e-5,-0.956518 -0.77534,-1.731953 -1.73186,-1.731861 l -66.08977,2e-6 z"
         id="path110"
         inkscape:connector-curvature="0"
         style="fill:#f4caca;fill-opacity:0.77941165" />
      <path
         sodipodi:nodetypes="cccccccccc"
         d="m 127.47266,65.887832 -1e-5,24.381371 h 67.82164 v 13.963747 c 9.21859,-12.920037 23.72456,-29.858471 27.09896,-38.336918 l -2.71897,-0.0068 -1e-5,-67.8188687 -24.38136,2e-6 V 65.889233 Z"
         id="path112"
         style="fill:url(#n-2);fill-rule:evenodd"
         inkscape:connector-curvature="0" />
    </g>
  </g>
</svg>
