<?xml version="1.0" encoding="UTF-8" standalone="no"?>
<svg
   xmlns:dc="http://purl.org/dc/elements/1.1/"
   xmlns:cc="http://creativecommons.org/ns#"
   xmlns:rdf="http://www.w3.org/1999/02/22-rdf-syntax-ns#"
   xmlns:svg="http://www.w3.org/2000/svg"
   xmlns="http://www.w3.org/2000/svg"
   xmlns:xlink="http://www.w3.org/1999/xlink"
   xmlns:sodipodi="http://sodipodi.sourceforge.net/DTD/sodipodi-0.dtd"
   xmlns:inkscape="http://www.inkscape.org/namespaces/inkscape"
   enable-background="new 0 0 128 128"
   height="32"
   viewBox="0 0 32 32"
   width="32"
   version="1.1"
   id="svg3005"
   sodipodi:docname="showtwopages.svg"
   inkscape:version="0.92.4 (unknown)"
   inkscape:export-filename="/home/rizmut/Dokumen/Rizmut/Github/libreoffice-style-karasa-jaga/build/next/cmd/32/showtwopages.png"
   inkscape:export-xdpi="96"
   inkscape:export-ydpi="96">
  <metadata
     id="metadata3011">
    <rdf:RDF>
      <cc:Work
         rdf:about="">
        <dc:format>image/svg+xml</dc:format>
        <dc:type
           rdf:resource="http://purl.org/dc/dcmitype/StillImage" />
        <dc:title></dc:title>
      </cc:Work>
    </rdf:RDF>
  </metadata>
  <defs
     id="defs3009">
    <radialGradient
       inkscape:collect="always"
       xlink:href="#e"
       id="radialGradient3782"
       gradientUnits="userSpaceOnUse"
       gradientTransform="translate(52,28.000104)"
       cx="102"
       cy="112.3047"
       r="139.5585" />
    <radialGradient
       inkscape:collect="always"
       xlink:href="#d"
       id="radialGradient3784"
       gradientUnits="userSpaceOnUse"
       gradientTransform="matrix(0.9787234,0,0,0.9818182,53.361705,29.16374)"
       cx="102"
       cy="112.3047"
       r="139.55859" />
    <linearGradient
       inkscape:collect="always"
       xlink:href="#a"
       id="linearGradient3786"
       gradientUnits="userSpaceOnUse"
       x1="88.591797"
       y1="96.592697"
       x2="71.262016"
       y2="79.262917" />
    <linearGradient
       inkscape:collect="always"
       xlink:href="#b"
       id="linearGradient3788"
       gradientUnits="userSpaceOnUse"
       x1="85.219681"
       y1="93.219681"
       x2="61.336319"
       y2="69.336319" />
    <linearGradient
       inkscape:collect="always"
       xlink:href="#c"
       id="linearGradient3790"
       gradientUnits="userSpaceOnUse"
       x1="96"
       y1="104"
       x2="88.000198"
       y2="96.000198" />
    <radialGradient
       inkscape:collect="always"
       xlink:href="#e"
       id="radialGradient3792"
       gradientUnits="userSpaceOnUse"
       gradientTransform="translate(-8,28.000104)"
       cx="102"
       cy="112.3047"
       r="139.5585" />
    <radialGradient
       inkscape:collect="always"
       xlink:href="#d"
       id="radialGradient3794"
       gradientUnits="userSpaceOnUse"
       gradientTransform="matrix(0.9787234,0,0,0.9818182,-6.638295,29.16374)"
       cx="102"
       cy="112.3047"
       r="139.55859" />
    <linearGradient
       inkscape:collect="always"
       xlink:href="#a"
       id="linearGradient3796"
       gradientUnits="userSpaceOnUse"
       x1="88.591797"
       y1="96.592697"
       x2="71.262016"
       y2="79.262917" />
    <linearGradient
       inkscape:collect="always"
       xlink:href="#b"
       id="linearGradient3798"
       gradientUnits="userSpaceOnUse"
       x1="85.219681"
       y1="93.219681"
       x2="61.336319"
       y2="69.336319" />
    <linearGradient
       inkscape:collect="always"
       xlink:href="#c"
       id="linearGradient3800"
       gradientUnits="userSpaceOnUse"
       x1="96"
       y1="104"
       x2="88.000198"
       y2="96.000198" />
  </defs>
  <sodipodi:namedview
     pagecolor="#ffffff"
     bordercolor="#666666"
     borderopacity="1"
     objecttolerance="10"
     gridtolerance="10"
     guidetolerance="10"
     inkscape:pageopacity="0"
     inkscape:pageshadow="2"
     inkscape:window-width="1366"
     inkscape:window-height="706"
     id="namedview3007"
     showgrid="true"
     inkscape:zoom="7.375"
     inkscape:cx="10.416041"
     inkscape:cy="19.193901"
     inkscape:window-x="0"
     inkscape:window-y="0"
     inkscape:window-maximized="1"
     inkscape:current-layer="g917"
     inkscape:snap-global="true">
    <inkscape:grid
       type="xygrid"
       id="grid3556"
       spacingx="0.5"
       spacingy="0.5"
       empspacing="2" />
  </sodipodi:namedview>
  <linearGradient
     id="a"
     gradientUnits="userSpaceOnUse"
     x1="88.591797"
     x2="71.262016"
     y1="96.592697"
     y2="79.262917">
    <stop
       offset="0"
       stop-color="#fff"
       id="stop2905" />
    <stop
       offset="1"
       stop-color="#555753"
       id="stop2907" />
  </linearGradient>
  <linearGradient
     id="b"
     gradientUnits="userSpaceOnUse"
     x1="85.219681"
     x2="61.336319"
     y1="93.219681"
     y2="69.336319">
    <stop
       offset="0"
       id="stop2910" />
    <stop
       offset="1"
       stop-color="#393b38"
       id="stop2912" />
  </linearGradient>
  <linearGradient
     id="c"
     gradientUnits="userSpaceOnUse"
     x1="96"
     x2="88.000198"
     y1="104"
     y2="96.000198">
    <stop
       offset="0"
       stop-color="#888a85"
       id="stop2915" />
    <stop
       offset=".0072"
       stop-color="#8c8e89"
       id="stop2917" />
    <stop
       offset=".0673"
       stop-color="#abaca9"
       id="stop2919" />
    <stop
       offset=".1347"
       stop-color="#c5c6c4"
       id="stop2921" />
    <stop
       offset=".2115"
       stop-color="#dbdbda"
       id="stop2923" />
    <stop
       offset=".3012"
       stop-color="#ebebeb"
       id="stop2925" />
    <stop
       offset=".4122"
       stop-color="#f7f7f6"
       id="stop2927" />
    <stop
       offset=".5679"
       stop-color="#fdfdfd"
       id="stop2929" />
    <stop
       offset="1"
       stop-color="#fff"
       id="stop2931" />
  </linearGradient>
  <radialGradient
     id="d"
     cx="102"
     cy="112.3047"
     gradientTransform="matrix(0.9787234,0,0,0.9818182,-10.638295,-2.8363639)"
     gradientUnits="userSpaceOnUse"
     r="139.55859">
    <stop
       offset="0"
       stop-color="#535557"
       id="stop2934" />
    <stop
       offset=".11366145"
       stop-color="#898a8c"
       id="stop2936" />
    <stop
       offset=".20296688"
       stop-color="#ececec"
       id="stop2938" />
    <stop
       offset=".2363"
       stop-color="#fafafa"
       id="stop2940" />
    <stop
       offset=".2722"
       stop-color="#fff"
       id="stop2942" />
    <stop
       offset=".5313"
       stop-color="#fafafa"
       id="stop2944" />
    <stop
       offset=".8449"
       stop-color="#ebecec"
       id="stop2946" />
    <stop
       offset="1"
       stop-color="#e1e2e3"
       id="stop2948" />
  </radialGradient>
  <radialGradient
     id="e"
     cx="102"
     cy="112.3047"
     gradientUnits="userSpaceOnUse"
     r="139.5585"
     gradientTransform="translate(-12,-3.9999999)">
    <stop
       offset="0"
       stop-color="#00537d"
       id="stop2951" />
    <stop
       offset=".0151"
       stop-color="#186389"
       id="stop2953" />
    <stop
       offset=".0558"
       stop-color="#558ca8"
       id="stop2955" />
    <stop
       offset=".0964"
       stop-color="#89afc3"
       id="stop2957" />
    <stop
       offset=".1357"
       stop-color="#b3ccd8"
       id="stop2959" />
    <stop
       offset=".1737"
       stop-color="#d4e2e9"
       id="stop2961" />
    <stop
       offset=".2099"
       stop-color="#ecf2f5"
       id="stop2963" />
    <stop
       offset=".2435"
       stop-color="#fafcfd"
       id="stop2965" />
    <stop
       offset=".2722"
       stop-color="#fff"
       id="stop2967" />
  </radialGradient>
  <filter
     id="f">
    <feGaussianBlur
       stdDeviation="1.0394514"
       id="feGaussianBlur2970" />
  </filter>
  <filter
     id="g">
    <feGaussianBlur
       stdDeviation=".50063244"
       id="feGaussianBlur2973" />
  </filter>
  <filter
     id="h">
    <feGaussianBlur
       stdDeviation=".40750996"
       id="feGaussianBlur2976" />
  </filter>
  <filter
     id="i">
    <feGaussianBlur
       stdDeviation=".4901192"
       id="feGaussianBlur2979" />
  </filter>
  <filter
     id="j">
    <feGaussianBlur
       stdDeviation=".90565481"
       id="feGaussianBlur2982" />
  </filter>
  <g
     id="g917"
     transform="scale(0.25)">
    <g
       id="g7621">
      <path
         d="m 23,5.1378308 0.04082,61.7932002 h 34.251177 c 0.53,0 1.046457,-0.203604 1.414,-0.586 L 76.174001,48.17113 c 0.367542,-0.382395 0.589522,-0.884012 0.586,-1.414 V 5.1378307 Z"
         transform="matrix(1.0416667,0,0,1.0357143,-17.958333,24.67857)"
         id="path2985"
         inkscape:connector-curvature="0"
         style="opacity:0.30684904;filter:url(#f)"
         sodipodi:nodetypes="ccsssscc" />
      <path
         d="M 24.919999,7.0689668 V 65.000101 l 31.795998,-1e-4 c 0.53,0 1.039,-0.211 1.414,-0.586 L 74.254001,47.302164 c 0.375,-0.375 0.586,-0.884 0.586,-1.414 V 7.0689668 Z"
         transform="matrix(1.0416667,0,0,1.0357143,-17.958333,24.67857)"
         id="path2987"
         inkscape:connector-curvature="0"
         style="opacity:0.89589;filter:url(#g)"
         sodipodi:nodetypes="cccccscc" />
      <path
         d="m 23,6.103348 0.04082,60.827683 h 34.251181 c 0.53,0 1.046457,-0.203604 1.414,-0.586 L 76.174005,48.17113 c 0.367542,-0.382395 0.589615,-0.884013 0.586,-1.414 V 6.1033479 Z"
         transform="matrix(1.0416667,0,0,1.0357143,-17.958333,24.67857)"
         id="path2989"
         inkscape:connector-curvature="0"
         style="opacity:0.30684904;filter:url(#f)"
         sodipodi:nodetypes="ccsssscc" />
      <path
         d="m 8.0000018,32 -10e-8,60.0001 H 41.171998 c 0.53,0 1.04805,-0.202163 1.414,-0.586 L 59.414,73.763559 c 0.365949,-0.383837 0.586,-0.884 0.586,-1.414 V 32 Z"
         id="path2991"
         style="fill:url(#radialGradient3792)"
         inkscape:connector-curvature="0"
         sodipodi:nodetypes="ccsssscc" />
      <path
         d="m 11.678725,34.7 c -0.539276,0 -0.978723,0.440836 -0.978723,0.981818 l -0.7,53.336462 c 0,0.54197 0.439447,0.98182 0.978723,0.98182 h 29.913018 c 0.257404,0 0.509915,-0.10407 0.691957,-0.28767 L 57.71323,72.658759 C 57.89626,72.475159 58,72.222832 58,71.964614 V 34.981818 C 58,34.440836 57.56153,34 57.02128,34 Z"
         id="path2993"
         style="fill:url(#radialGradient3794)"
         inkscape:connector-curvature="0"
         sodipodi:nodetypes="cccssccsscc" />
      <g
         transform="matrix(0.57284286,-0.01669599,0.01669599,0.57284286,-5.593249,24.843056)"
         id="g3003">
        <path
           d="M 111.414,86.586 C 111.664,86.336 85.035,85 80,85 c -1.654,0 -3,1.346 -3,3 0,5.035 1.336,31.664 1.586,31.414 z"
           id="path2995"
           style="opacity:0.1;fill:url(#linearGradient3796);filter:url(#h)"
           inkscape:connector-curvature="0" />
        <path
           d="M 111.414,86.586 C 111.789,86.211 89.444,86 80,86 c -1.103,0 -2,0.897 -2,2 0,9.444 0.211,31.789 0.586,31.414 z"
           id="path2997"
           inkscape:connector-curvature="0"
           style="opacity:0.49300005;filter:url(#j)" />
        <path
           d="M 111.414,86.586 C 111.653,86.347 89.807,87 80,87 c -0.553,0 -1,0.447 -1,1 0,9.807 -0.653,31.653 -0.414,31.414 z"
           id="path2999"
           style="opacity:0.1;fill:url(#linearGradient3798);filter:url(#i)"
           inkscape:connector-curvature="0" />
        <path
           d="m 78.586,119.414 c 0,0 11.914,-9.914 17.414,-15.414 5.5,-5.5 15.414,-17.414 15.414,-17.414 0,0 -21.164,1.414 -31.414,1.414 0,10.25 -1.414,31.414 -1.414,31.414 z"
           id="path3001"
           style="fill:url(#linearGradient3800)"
           inkscape:connector-curvature="0" />
      </g>
    </g>
    <g
       id="g7633">
      <path
         sodipodi:nodetypes="ccsssscc"
         style="opacity:0.30684904;filter:url(#f)"
         inkscape:connector-curvature="0"
         id="path3760"
         transform="matrix(1.0416667,0,0,1.0357143,42.041667,24.67857)"
         d="m 23,5.1378308 0.04082,61.7932002 h 34.251177 c 0.53,0 1.046457,-0.203604 1.414,-0.586 L 76.174001,48.17113 c 0.367542,-0.382395 0.589522,-0.884012 0.586,-1.414 V 5.1378307 Z" />
      <path
         sodipodi:nodetypes="cccccscc"
         style="opacity:0.89589;filter:url(#g)"
         inkscape:connector-curvature="0"
         id="path3762"
         transform="matrix(1.0416667,0,0,1.0357143,42.041667,24.67857)"
         d="M 24.919999,7.0689668 V 65.000101 l 31.795998,-1e-4 c 0.53,0 1.039,-0.211 1.414,-0.586 L 74.254001,47.302164 c 0.375,-0.375 0.586,-0.884 0.586,-1.414 V 7.0689668 Z" />
      <path
         sodipodi:nodetypes="ccsssscc"
         style="opacity:0.30684904;filter:url(#f)"
         inkscape:connector-curvature="0"
         id="path3764"
         transform="matrix(1.0416667,0,0,1.0357143,42.041667,24.67857)"
         d="m 23,6.103348 0.04082,60.827683 h 34.251181 c 0.53,0 1.046457,-0.203604 1.414,-0.586 L 76.174005,48.17113 c 0.367542,-0.382395 0.589615,-0.884013 0.586,-1.414 V 6.1033479 Z" />
      <path
         sodipodi:nodetypes="ccsssscc"
         inkscape:connector-curvature="0"
         style="fill:url(#radialGradient3782)"
         id="path3766"
         d="M 68.000002,32 V 92.0001 H 101.172 c 0.53,0 1.04805,-0.202163 1.414,-0.586 l 16.828,-17.650541 c 0.36595,-0.383837 0.586,-0.884 0.586,-1.414 V 32 Z" />
      <path
         sodipodi:nodetypes="cccssccsscc"
         inkscape:connector-curvature="0"
         style="fill:url(#radialGradient3784)"
         id="path3768"
         d="m 71.678725,34.7 c -0.539276,0 -0.978723,0.440836 -0.978723,0.981818 l -0.7,53.336462 c 0,0.54197 0.439447,0.98182 0.978723,0.98182 h 29.913015 c 0.25741,0 0.50992,-0.10407 0.69196,-0.28767 L 117.71323,72.658759 C 117.89626,72.475159 118,72.222832 118,71.964614 V 34.981818 C 118,34.440836 117.56153,34 117.02128,34 Z" />
      <g
         id="g3778"
         transform="matrix(0.57284286,-0.01669599,0.01669599,0.57284286,54.406751,24.843056)">
        <path
           inkscape:connector-curvature="0"
           style="opacity:0.1;fill:url(#linearGradient3786);filter:url(#h)"
           id="path3770"
           d="M 111.414,86.586 C 111.664,86.336 85.035,85 80,85 c -1.654,0 -3,1.346 -3,3 0,5.035 1.336,31.664 1.586,31.414 z" />
        <path
           style="opacity:0.49300005;filter:url(#j)"
           inkscape:connector-curvature="0"
           id="path3772"
           d="M 111.414,86.586 C 111.789,86.211 89.444,86 80,86 c -1.103,0 -2,0.897 -2,2 0,9.444 0.211,31.789 0.586,31.414 z" />
        <path
           inkscape:connector-curvature="0"
           style="opacity:0.1;fill:url(#linearGradient3788);filter:url(#i)"
           id="path3774"
           d="M 111.414,86.586 C 111.653,86.347 89.807,87 80,87 c -0.553,0 -1,0.447 -1,1 0,9.807 -0.653,31.653 -0.414,31.414 z" />
        <path
           inkscape:connector-curvature="0"
           style="fill:url(#linearGradient3790)"
           id="path3776"
           d="m 78.586,119.414 c 0,0 11.914,-9.914 17.414,-15.414 5.5,-5.5 15.414,-17.414 15.414,-17.414 0,0 -21.164,1.414 -31.414,1.414 0,10.25 -1.414,31.414 -1.414,31.414 z" />
      </g>
    </g>
  </g>
</svg>
