<?xml version="1.0" encoding="UTF-8" standalone="no"?>
<svg
   xmlns:dc="http://purl.org/dc/elements/1.1/"
   xmlns:cc="http://creativecommons.org/ns#"
   xmlns:rdf="http://www.w3.org/1999/02/22-rdf-syntax-ns#"
   xmlns:svg="http://www.w3.org/2000/svg"
   xmlns="http://www.w3.org/2000/svg"
   xmlns:xlink="http://www.w3.org/1999/xlink"
   xmlns:sodipodi="http://sodipodi.sourceforge.net/DTD/sodipodi-0.dtd"
   xmlns:inkscape="http://www.inkscape.org/namespaces/inkscape"
   height="32"
   width="32"
   version="1.1"
   id="svg286"
   sodipodi:docname="signpdf.svg"
   inkscape:version="0.92.4 (unknown)"
   inkscape:export-filename="/home/rizmut/Dokumen/Rizmut/Github/libreoffice-style-karasa-jaga/build/next/cmd/32/signpdf.png"
   inkscape:export-xdpi="96"
   inkscape:export-ydpi="96">
  <metadata
     id="metadata292">
    <rdf:RDF>
      <cc:Work
         rdf:about="">
        <dc:format>image/svg+xml</dc:format>
        <dc:type
           rdf:resource="http://purl.org/dc/dcmitype/StillImage" />
        <dc:title></dc:title>
      </cc:Work>
    </rdf:RDF>
  </metadata>
  <defs
     id="defs290">
    <filter
       inkscape:collect="always"
       style="color-interpolation-filters:sRGB"
       id="filter959"
       x="-0.019440237"
       width="1.0388805"
       y="-0.01675193"
       height="1.0335039">
      <feGaussianBlur
         inkscape:collect="always"
         stdDeviation="0.80871388"
         id="feGaussianBlur961" />
    </filter>
    <linearGradient
       id="linearGradient1390"
       gradientUnits="userSpaceOnUse"
       x1="281.56894"
       x2="336.65863"
       xlink:href="#l"
       y1="-42.731258"
       y2="-74.537315" />
    <linearGradient
       id="linearGradient1394">
      <stop
         offset="0"
         id="stop65-3" />
      <stop
         offset="1"
         stop-opacity="0"
         id="stop67-6" />
    </linearGradient>
    <filter
       style="color-interpolation-filters:sRGB"
       id="m-7">
      <feGaussianBlur
         stdDeviation="1.2466526"
         id="feGaussianBlur70-5" />
    </filter>
    <radialGradient
       id="E-3"
       cx="2435.4526"
       cy="-1290.9012"
       fx="2435.4968"
       fy="-1289.6638"
       gradientUnits="userSpaceOnUse"
       r="2.032932">
      <stop
         offset="0"
         stop-color="#fff"
         id="stop142-5" />
      <stop
         offset=".78260869"
         id="stop144-6" />
      <stop
         offset="1"
         id="stop146-2" />
    </radialGradient>
    <radialGradient
       id="F-9"
       cx="2435.4526"
       cy="-1290.9012"
       fx="2435.3201"
       fy="-1292.1829"
       gradientUnits="userSpaceOnUse"
       r="2.032932">
      <stop
         offset="0"
         stop-color="#fff"
         stop-opacity="0"
         id="stop149-1" />
      <stop
         offset=".71739131"
         stop-color="#fff"
         id="stop151-2" />
      <stop
         offset="1"
         stop-color="#fff"
         stop-opacity="0"
         id="stop153-7" />
    </radialGradient>
    <linearGradient
       inkscape:collect="always"
       xlink:href="#n"
       id="linearGradient1099"
       gradientUnits="userSpaceOnUse"
       gradientTransform="matrix(0.30520528,0.1985641,-0.18765191,0.28843258,-570.9762,-187.93906)"
       x1="2205.9375"
       y1="-1222.1377"
       x2="2229.125"
       y2="-1222.1377" />
    <linearGradient
       id="linearGradient1417">
      <stop
         offset="0"
         stop-color="#818181"
         id="stop73-0" />
      <stop
         offset=".16666667"
         stop-color="#fff"
         id="stop75-9" />
      <stop
         offset=".30087379"
         stop-color="#fafafa"
         id="stop77-3" />
      <stop
         offset=".41666666"
         stop-color="#d7d7d7"
         id="stop79-6" />
      <stop
         offset=".44844013"
         id="stop81-0" />
      <stop
         offset=".59375"
         stop-color="#d5d5d5"
         id="stop83-6" />
      <stop
         offset=".703125"
         stop-color="#c8c8c8"
         id="stop85-2" />
      <stop
         offset=".7578125"
         stop-color="#333"
         id="stop87-6" />
      <stop
         offset=".94971472"
         stop-color="#c1c1c1"
         id="stop89-1" />
      <stop
         offset="1"
         stop-color="#343434"
         id="stop91-8" />
    </linearGradient>
    <linearGradient
       id="linearGradient1421"
       gradientTransform="matrix(0.40205276,0.26157229,-0.2281823,0.35073029,-850.03812,-249.93185)"
       gradientUnits="userSpaceOnUse"
       x1="2243.146"
       x2="2242.3975"
       y1="-1322.632"
       y2="-1315.5718">
      <stop
         offset="0"
         stop-color="#181818"
         id="stop157-7" />
      <stop
         offset="1"
         stop-color="#181818"
         stop-opacity="0"
         id="stop159-9" />
    </linearGradient>
    <linearGradient
       id="linearGradient1425"
       gradientTransform="matrix(0.40205276,0.26157229,-0.2281823,0.35073029,-849.94399,-249.80443)"
       gradientUnits="userSpaceOnUse"
       x1="2237.4534"
       x2="2242.2593"
       y1="-1316.2021"
       y2="-1318.9421">
      <stop
         offset="0"
         stop-color="#fdfdfd"
         id="stop162-2" />
      <stop
         offset="1"
         stop-color="#fdfdfd"
         stop-opacity="0"
         id="stop164-0" />
    </linearGradient>
    <linearGradient
       id="linearGradient1427"
       gradientTransform="matrix(0.42256193,0.27491539,-0.297825,0.45777541,-981.0667,-126.91135)"
       gradientUnits="userSpaceOnUse"
       x1="2205.9375"
       x2="2247.4382"
       xlink:href="#n"
       y1="-1222.1377"
       y2="-1222.2168" />
    <clipPath
       id="o-2">
      <path
         inkscape:connector-curvature="0"
         d="m 2293.5055,-1105.5521 c -1.4712,14.3773 2.3108,28.8372 9.7339,39.8676 h 4.5462 c 7.4231,-11.0304 11.2051,-25.4903 9.7339,-39.8676 -5.89,-4.6401 -18.318,-4.887 -24.014,0 z"
         id="path94-3" />
    </clipPath>
    <filter
       style="color-interpolation-filters:sRGB"
       id="p-7"
       height="1.099961"
       width="1.251677"
       x="-0.125838"
       y="-0.04998">
      <feGaussianBlur
         stdDeviation=".98477853"
         id="feGaussianBlur97-5" />
    </filter>
    <filter
       style="color-interpolation-filters:sRGB"
       id="q-9">
      <feGaussianBlur
         stdDeviation=".45592848"
         id="feGaussianBlur100-2" />
    </filter>
    <filter
       style="color-interpolation-filters:sRGB"
       id="filter1245"
       height="1.099961"
       width="1.251677"
       x="-0.125838"
       y="-0.04998">
      <feGaussianBlur
         stdDeviation=".98477853"
         id="feGaussianBlur1243" />
    </filter>
    <clipPath
       id="r-2">
      <path
         inkscape:connector-curvature="0"
         d="m 2324.2623,-1105.5521 c -1.4712,14.3773 2.3108,28.8372 9.7339,39.8676 h 4.5462 c 7.4231,-11.0304 11.2051,-25.4903 9.7339,-39.8676 -5.89,-4.6401 -18.318,-4.887 -24.014,0 z"
         id="path103-8" />
    </clipPath>
    <filter
       style="color-interpolation-filters:sRGB"
       id="s-9"
       height="1.051712"
       width="1.23169"
       x="-0.115845"
       y="-0.025855999">
      <feGaussianBlur
         stdDeviation=".56878871"
         id="feGaussianBlur106-7" />
    </filter>
    <clipPath
       id="t-3">
      <path
         inkscape:connector-curvature="0"
         d="m 2410.6562,-1125.5312 -0.125,20.4062 h 0.125 v -0.1875 c 2.1955,-2.1403 6.6911,-3.5937 11.875,-3.5937 5.1841,0 9.6796,1.4533 11.875,3.5937 v 0.1875 h 0.125 l -0.125,-20.4062 z"
         id="path109-6" />
    </clipPath>
    <filter
       style="color-interpolation-filters:sRGB"
       id="u-1"
       height="1.739168"
       width="1.157863"
       x="-0.078930996"
       y="-0.36958399">
      <feGaussianBlur
         stdDeviation=".81808943"
         id="feGaussianBlur112-2" />
    </filter>
    <filter
       style="color-interpolation-filters:sRGB"
       id="v-9">
      <feGaussianBlur
         stdDeviation=".068662208"
         id="feGaussianBlur115-3" />
    </filter>
    <filter
       style="color-interpolation-filters:sRGB"
       id="w-1">
      <feGaussianBlur
         stdDeviation=".62795755"
         id="feGaussianBlur118-9" />
    </filter>
    <radialGradient
       id="K-4"
       cx="2227.7837"
       cy="-1254.6573"
       gradientTransform="matrix(0.42256193,0.27491539,-1.8905372,2.9058725,-2984.6915,2930.5977)"
       gradientUnits="userSpaceOnUse"
       r="4.7629328">
      <stop
         offset="0"
         stop-color="#5b5b5b"
         id="stop168-7" />
      <stop
         offset="1"
         stop-color="#202020"
         id="stop170-8" />
    </radialGradient>
    <clipPath
       id="x-4">
      <path
         inkscape:connector-curvature="0"
         d="m 2280.8997,-1313.6542 c 0,-7.6699 16.7006,-8.0051 16.7006,0 l 0.7591,26.4365 h -18.2188 z"
         id="path121-5" />
    </clipPath>
    <filter
       style="color-interpolation-filters:sRGB"
       id="y-0">
      <feGaussianBlur
         stdDeviation=".36237121"
         id="feGaussianBlur124-3" />
    </filter>
    <linearGradient
       id="linearGradient1456"
       gradientUnits="userSpaceOnUse"
       x1="2227.0715"
       x2="2231.7791"
       xlink:href="#z"
       y1="-1248.1597"
       y2="-1248.9692" />
    <linearGradient
       id="linearGradient1460">
      <stop
         offset="0"
         stop-color="#fff"
         id="stop127-6" />
      <stop
         offset="1"
         stop-color="#fff"
         stop-opacity="0"
         id="stop129-1" />
    </linearGradient>
    <filter
       style="color-interpolation-filters:sRGB"
       id="A-0">
      <feGaussianBlur
         stdDeviation=".15038113"
         id="feGaussianBlur132-6" />
    </filter>
    <linearGradient
       id="linearGradient1464"
       gradientUnits="userSpaceOnUse"
       x1="2229.0273"
       x2="2231.1499"
       xlink:href="#z"
       y1="-1270.7157"
       y2="-1270.7157" />
    <filter
       style="color-interpolation-filters:sRGB"
       id="B-3"
       height="1.042192"
       width="1.519834"
       x="-0.25991699"
       y="-0.021096">
      <feGaussianBlur
         stdDeviation=".27727194"
         id="feGaussianBlur135-2" />
    </filter>
    <filter
       style="color-interpolation-filters:sRGB"
       id="C-0"
       height="1.62263"
       width="1.709918"
       x="-0.35495901"
       y="-0.311315">
      <feGaussianBlur
         stdDeviation=".22675612"
         id="feGaussianBlur138-6" />
    </filter>
    <linearGradient
       id="linearGradient1470"
       gradientTransform="matrix(0.04455011,0.02898394,0.00967158,-0.01486581,210.56658,-120.53934)"
       gradientUnits="userSpaceOnUse"
       x1="2205.9375"
       x2="2229.125"
       xlink:href="#n"
       y1="-1222.1377"
       y2="-1222.1377" />
    <linearGradient
       id="linearGradient1472"
       gradientTransform="matrix(0.62890839,0.40916273,-0.40916273,0.62890839,-1547.8697,-285.68841)"
       gradientUnits="userSpaceOnUse"
       x1="2242.4668"
       x2="2242.4668"
       xlink:href="#l"
       y1="-1066.5438"
       y2="-1065.2577" />
    <clipPath
       id="clipPath1315">
      <path
         inkscape:connector-curvature="0"
         d="m 2324.2623,-1105.5521 c -1.4712,14.3773 2.3108,28.8372 9.7339,39.8676 h 4.5462 c 7.4231,-11.0304 11.2051,-25.4903 9.7339,-39.8676 -5.89,-4.6401 -18.318,-4.887 -24.014,0 z"
         id="path1313" />
    </clipPath>
    <filter
       style="color-interpolation-filters:sRGB"
       id="filter1319"
       height="1.051712"
       width="1.23169"
       x="-0.115845"
       y="-0.025855999">
      <feGaussianBlur
         stdDeviation=".56878871"
         id="feGaussianBlur1317" />
    </filter>
    <linearGradient
       id="k-1"
       gradientTransform="matrix(0.96338458,0,0,1.1424298,-14.289947,-14.213982)"
       gradientUnits="userSpaceOnUse"
       x1="62.41972"
       x2="68.232185"
       y1="98.139114"
       y2="98.139114">
      <stop
         offset="0"
         stop-color="#00f"
         id="stop60-5" />
      <stop
         offset="1"
         stop-color="#00f"
         stop-opacity="0"
         id="stop62-5" />
    </linearGradient>
    <linearGradient
       inkscape:collect="always"
       xlink:href="#n"
       id="linearGradient1515"
       gradientUnits="userSpaceOnUse"
       gradientTransform="matrix(0.30520528,0.1985641,-0.18765191,0.28843258,-570.9762,-187.93906)"
       x1="2205.9375"
       y1="-1222.1377"
       x2="2229.125"
       y2="-1222.1377" />
  </defs>
  <sodipodi:namedview
     pagecolor="#ffffff"
     bordercolor="#666666"
     borderopacity="1"
     objecttolerance="10"
     gridtolerance="10"
     guidetolerance="10"
     inkscape:pageopacity="0"
     inkscape:pageshadow="2"
     inkscape:window-width="1366"
     inkscape:window-height="706"
     id="namedview288"
     showgrid="true"
     inkscape:zoom="10.429825"
     inkscape:cx="-0.60865788"
     inkscape:cy="34.146089"
     inkscape:window-x="0"
     inkscape:window-y="0"
     inkscape:window-maximized="1"
     inkscape:current-layer="g5042"
     showguides="false"
     inkscape:guide-bbox="true">
    <inkscape:grid
       type="xygrid"
       id="grid1099"
       spacingx="0.5"
       spacingy="0.5"
       empspacing="2" />
    <sodipodi:guide
       position="-32,172"
       orientation="0,1"
       id="guide949"
       inkscape:locked="false" />
  </sodipodi:namedview>
  <linearGradient
     id="a"
     gradientUnits="userSpaceOnUse"
     x1="88.591797"
     x2="71.262016"
     y1="96.592697"
     y2="79.262917">
    <stop
       offset="0"
       stop-color="#fff"
       id="stop2" />
    <stop
       offset="1"
       stop-color="#555753"
       id="stop4" />
  </linearGradient>
  <filter
     id="b"
     style="color-interpolation-filters:sRGB">
    <feGaussianBlur
       stdDeviation=".40750996"
       id="feGaussianBlur7" />
  </filter>
  <filter
     id="c"
     style="color-interpolation-filters:sRGB">
    <feGaussianBlur
       stdDeviation=".90565481"
       id="feGaussianBlur10" />
  </filter>
  <linearGradient
     id="d"
     gradientUnits="userSpaceOnUse"
     x1="85.219681"
     x2="61.336319"
     y1="93.219681"
     y2="69.336319">
    <stop
       offset="0"
       id="stop13" />
    <stop
       offset="1"
       stop-color="#393b38"
       id="stop15" />
  </linearGradient>
  <filter
     id="e"
     style="color-interpolation-filters:sRGB">
    <feGaussianBlur
       stdDeviation=".4901192"
       id="feGaussianBlur18" />
  </filter>
  <linearGradient
     id="f"
     gradientUnits="userSpaceOnUse"
     x1="96"
     x2="88.000198"
     y1="104"
     y2="96.000198">
    <stop
       offset="0"
       stop-color="#888a85"
       id="stop21" />
    <stop
       offset=".0072"
       stop-color="#8c8e89"
       id="stop23" />
    <stop
       offset=".0673"
       stop-color="#abaca9"
       id="stop25" />
    <stop
       offset=".1347"
       stop-color="#c5c6c4"
       id="stop27" />
    <stop
       offset=".2115"
       stop-color="#dbdbda"
       id="stop29" />
    <stop
       offset=".3012"
       stop-color="#ebebeb"
       id="stop31" />
    <stop
       offset=".4122"
       stop-color="#f7f7f6"
       id="stop33" />
    <stop
       offset=".5679"
       stop-color="#fdfdfd"
       id="stop35" />
    <stop
       offset="1"
       stop-color="#fff"
       id="stop37" />
  </linearGradient>
  <linearGradient
     id="g"
     gradientUnits="userSpaceOnUse"
     x1="120.92"
     x2="120.92"
     y1="65.000099"
     y2="10.931036">
    <stop
       offset="0"
       id="stop40" />
    <stop
       offset=".1"
       stop-color="#233b00"
       id="stop42" />
    <stop
       offset="1"
       id="stop44" />
  </linearGradient>
  <filter
     id="h"
     style="color-interpolation-filters:sRGB">
    <feGaussianBlur
       stdDeviation="1.0394514"
       id="feGaussianBlur47" />
  </filter>
  <filter
     id="i"
     style="color-interpolation-filters:sRGB">
    <feGaussianBlur
       stdDeviation=".50063244"
       id="feGaussianBlur50" />
  </filter>
  <linearGradient
     id="j"
     gradientUnits="userSpaceOnUse"
     x1="120.92"
     x2="120.92"
     y1="65.000099"
     y2="7.0689669">
    <stop
       offset="0"
       id="stop53" />
    <stop
       offset=".06845312"
       stop-color="#233b00"
       id="stop55" />
    <stop
       offset="1"
       id="stop57" />
  </linearGradient>
  <linearGradient
     id="k"
     gradientTransform="matrix(0.96338458,0,0,1.1424298,-6.289952,-14.21399)"
     gradientUnits="userSpaceOnUse"
     x1="62.41972"
     x2="68.232185"
     y1="98.139114"
     y2="98.139114">
    <stop
       offset="0"
       stop-color="#00f"
       id="stop60" />
    <stop
       offset="1"
       stop-color="#00f"
       stop-opacity="0"
       id="stop62" />
  </linearGradient>
  <linearGradient
     id="l">
    <stop
       offset="0"
       id="stop65" />
    <stop
       offset="1"
       stop-opacity="0"
       id="stop67" />
  </linearGradient>
  <filter
     id="m"
     style="color-interpolation-filters:sRGB">
    <feGaussianBlur
       stdDeviation="1.2466526"
       id="feGaussianBlur70" />
  </filter>
  <linearGradient
     id="n">
    <stop
       offset="0"
       stop-color="#818181"
       id="stop73" />
    <stop
       offset=".16666667"
       stop-color="#fff"
       id="stop75" />
    <stop
       offset=".30087379"
       stop-color="#fafafa"
       id="stop77" />
    <stop
       offset=".41666666"
       stop-color="#d7d7d7"
       id="stop79" />
    <stop
       offset=".44844013"
       id="stop81" />
    <stop
       offset=".59375"
       stop-color="#d5d5d5"
       id="stop83" />
    <stop
       offset=".703125"
       stop-color="#c8c8c8"
       id="stop85" />
    <stop
       offset=".7578125"
       stop-color="#333"
       id="stop87" />
    <stop
       offset=".94971472"
       stop-color="#c1c1c1"
       id="stop89" />
    <stop
       offset="1"
       stop-color="#343434"
       id="stop91" />
  </linearGradient>
  <clipPath
     id="o">
    <path
       d="m 2293.5055,-1105.5521 c -1.4712,14.3773 2.3108,28.8372 9.7339,39.8676 h 4.5462 c 7.4231,-11.0304 11.2051,-25.4903 9.7339,-39.8676 -5.89,-4.6401 -18.318,-4.887 -24.014,0 z"
       id="path94"
       inkscape:connector-curvature="0" />
  </clipPath>
  <filter
     id="p"
     height="1.099961"
     width="1.251677"
     x="-0.125838"
     y="-0.04998"
     style="color-interpolation-filters:sRGB">
    <feGaussianBlur
       stdDeviation=".98477853"
       id="feGaussianBlur97" />
  </filter>
  <filter
     id="q"
     style="color-interpolation-filters:sRGB">
    <feGaussianBlur
       stdDeviation=".45592848"
       id="feGaussianBlur100" />
  </filter>
  <clipPath
     id="r">
    <path
       d="m 2324.2623,-1105.5521 c -1.4712,14.3773 2.3108,28.8372 9.7339,39.8676 h 4.5462 c 7.4231,-11.0304 11.2051,-25.4903 9.7339,-39.8676 -5.89,-4.6401 -18.318,-4.887 -24.014,0 z"
       id="path103"
       inkscape:connector-curvature="0" />
  </clipPath>
  <filter
     id="s"
     height="1.051712"
     width="1.23169"
     x="-0.115845"
     y="-0.025855999"
     style="color-interpolation-filters:sRGB">
    <feGaussianBlur
       stdDeviation=".56878871"
       id="feGaussianBlur106" />
  </filter>
  <clipPath
     id="t">
    <path
       d="m 2410.6562,-1125.5312 -0.125,20.4062 h 0.125 v -0.1875 c 2.1955,-2.1403 6.6911,-3.5937 11.875,-3.5937 5.1841,0 9.6796,1.4533 11.875,3.5937 v 0.1875 h 0.125 l -0.125,-20.4062 z"
       id="path109"
       inkscape:connector-curvature="0" />
  </clipPath>
  <filter
     id="u"
     height="1.739168"
     width="1.157863"
     x="-0.078930996"
     y="-0.36958399"
     style="color-interpolation-filters:sRGB">
    <feGaussianBlur
       stdDeviation=".81808943"
       id="feGaussianBlur112" />
  </filter>
  <filter
     id="v"
     style="color-interpolation-filters:sRGB">
    <feGaussianBlur
       stdDeviation=".068662208"
       id="feGaussianBlur115" />
  </filter>
  <filter
     id="w"
     style="color-interpolation-filters:sRGB">
    <feGaussianBlur
       stdDeviation=".62795755"
       id="feGaussianBlur118" />
  </filter>
  <clipPath
     id="x">
    <path
       d="m 2280.8997,-1313.6542 c 0,-7.6699 16.7006,-8.0051 16.7006,0 l 0.7591,26.4365 h -18.2188 z"
       id="path121"
       inkscape:connector-curvature="0" />
  </clipPath>
  <filter
     id="y"
     style="color-interpolation-filters:sRGB">
    <feGaussianBlur
       stdDeviation=".36237121"
       id="feGaussianBlur124" />
  </filter>
  <linearGradient
     id="z">
    <stop
       offset="0"
       stop-color="#fff"
       id="stop127" />
    <stop
       offset="1"
       stop-color="#fff"
       stop-opacity="0"
       id="stop129" />
  </linearGradient>
  <filter
     id="A"
     style="color-interpolation-filters:sRGB">
    <feGaussianBlur
       stdDeviation=".15038113"
       id="feGaussianBlur132" />
  </filter>
  <filter
     id="B"
     height="1.042192"
     width="1.519834"
     x="-0.25991699"
     y="-0.021096"
     style="color-interpolation-filters:sRGB">
    <feGaussianBlur
       stdDeviation=".27727194"
       id="feGaussianBlur135" />
  </filter>
  <filter
     id="C"
     height="1.62263"
     width="1.709918"
     x="-0.35495901"
     y="-0.311315"
     style="color-interpolation-filters:sRGB">
    <feGaussianBlur
       stdDeviation=".22675612"
       id="feGaussianBlur138" />
  </filter>
  <linearGradient
     id="D"
     gradientUnits="userSpaceOnUse"
     x1="281.56894"
     x2="336.65863"
     xlink:href="#l"
     y1="-42.731258"
     y2="-74.537315" />
  <radialGradient
     id="E"
     cx="2435.4526"
     cy="-1290.9012"
     fx="2435.4968"
     fy="-1289.6638"
     gradientUnits="userSpaceOnUse"
     r="2.032932">
    <stop
       offset="0"
       stop-color="#fff"
       id="stop142" />
    <stop
       offset=".78260869"
       id="stop144" />
    <stop
       offset="1"
       id="stop146" />
  </radialGradient>
  <radialGradient
     id="F"
     cx="2435.4526"
     cy="-1290.9012"
     fx="2435.3201"
     fy="-1292.1829"
     gradientUnits="userSpaceOnUse"
     r="2.032932">
    <stop
       offset="0"
       stop-color="#fff"
       stop-opacity="0"
       id="stop149" />
    <stop
       offset=".71739131"
       stop-color="#fff"
       id="stop151" />
    <stop
       offset="1"
       stop-color="#fff"
       stop-opacity="0"
       id="stop153" />
  </radialGradient>
  <linearGradient
     id="G"
     gradientTransform="matrix(0.30520528,0.1985641,-0.18765191,0.28843258,-570.9762,-187.93906)"
     gradientUnits="userSpaceOnUse"
     x1="2205.9375"
     x2="2229.125"
     xlink:href="#n"
     y1="-1222.1377"
     y2="-1222.1377" />
  <linearGradient
     id="H"
     gradientTransform="matrix(0.40205276,0.26157229,-0.2281823,0.35073029,-850.03812,-249.93185)"
     gradientUnits="userSpaceOnUse"
     x1="2243.146"
     x2="2242.3975"
     y1="-1322.632"
     y2="-1315.5718">
    <stop
       offset="0"
       stop-color="#181818"
       id="stop157" />
    <stop
       offset="1"
       stop-color="#181818"
       stop-opacity="0"
       id="stop159" />
  </linearGradient>
  <linearGradient
     id="I"
     gradientTransform="matrix(0.40205276,0.26157229,-0.2281823,0.35073029,-849.94399,-249.80443)"
     gradientUnits="userSpaceOnUse"
     x1="2237.4534"
     x2="2242.2593"
     y1="-1316.2021"
     y2="-1318.9421">
    <stop
       offset="0"
       stop-color="#fdfdfd"
       id="stop162" />
    <stop
       offset="1"
       stop-color="#fdfdfd"
       stop-opacity="0"
       id="stop164" />
  </linearGradient>
  <linearGradient
     id="J"
     gradientTransform="matrix(0.42256193,0.27491539,-0.297825,0.45777541,-981.0667,-126.91135)"
     gradientUnits="userSpaceOnUse"
     x1="2205.9375"
     x2="2247.4382"
     xlink:href="#n"
     y1="-1222.1377"
     y2="-1222.2168" />
  <radialGradient
     id="K"
     cx="2227.7837"
     cy="-1254.6573"
     gradientTransform="matrix(0.42256193,0.27491539,-1.8905372,2.9058725,-2984.6915,2930.5977)"
     gradientUnits="userSpaceOnUse"
     r="4.7629328">
    <stop
       offset="0"
       stop-color="#5b5b5b"
       id="stop168" />
    <stop
       offset="1"
       stop-color="#202020"
       id="stop170" />
  </radialGradient>
  <linearGradient
     id="L"
     gradientUnits="userSpaceOnUse"
     x1="2227.0715"
     x2="2231.7791"
     xlink:href="#z"
     y1="-1248.1597"
     y2="-1248.9692" />
  <linearGradient
     id="M"
     gradientUnits="userSpaceOnUse"
     x1="2229.0273"
     x2="2231.1499"
     xlink:href="#z"
     y1="-1270.7157"
     y2="-1270.7157" />
  <linearGradient
     id="N"
     gradientTransform="matrix(0.04455011,0.02898394,0.00967158,-0.01486581,210.56658,-120.53934)"
     gradientUnits="userSpaceOnUse"
     x1="2205.9375"
     x2="2229.125"
     xlink:href="#n"
     y1="-1222.1377"
     y2="-1222.1377" />
  <linearGradient
     id="O"
     gradientTransform="matrix(0.62890839,0.40916273,-0.40916273,0.62890839,-1547.8697,-285.68841)"
     gradientUnits="userSpaceOnUse"
     x1="2242.4668"
     x2="2242.4668"
     xlink:href="#l"
     y1="-1066.5438"
     y2="-1065.2577" />
  <linearGradient
     id="P"
     gradientUnits="userSpaceOnUse"
     x1="32"
     x2="165.92857"
     y1="944.36218"
     y2="1062.1765"
     gradientTransform="translate(0,-924.36218)">
    <stop
       offset="0"
       stop-color="#9c0f0f"
       id="stop177" />
    <stop
       offset=".5"
       stop-color="#e81919"
       id="stop179" />
    <stop
       offset="1"
       stop-color="#cd1313"
       id="stop181" />
  </linearGradient>
  <g
     id="g1221"
     transform="translate(7.9999953,-96)">
    <g
       id="g5042"
       transform="matrix(0.25,0,0,0.25,-5.9999965,96)">
      <g
         transform="translate(-7.9999954,-1.0387044e-4)"
         id="g1230">
        <path
           d="M 21.080004,7.0689668 21.185908,122.93103 h 62.986096 c 0.53,0 1.03871,-0.21129 1.414,-0.586 L 120.39908,87.586 c 0.37529,-0.374707 0.58644,-0.884 0.586,-1.414 L 120.92,7.0689668 Z"
           transform="matrix(1.0416667,0,0,1.0357143,-17.958333,-3.32143)"
           id="path184"
           style="opacity:0.05100002;fill:url(#j);filter:url(#h)"
           inkscape:connector-curvature="0"
           sodipodi:nodetypes="ccsssscc" />
        <path
           d="M 21.080004,7.0689668 V 122.93103 H 84.26925 c 0.53,0 1.029283,-0.22109 1.414,-0.586 l 34.60993,-32.827996 c 0.38472,-0.364908 0.58574,-0.884 0.586,-1.414 L 120.92,7.0689668 Z"
           transform="matrix(1.0416667,0,0,1.0357143,-17.958333,-3.32143)"
           id="path188"
           style="opacity:0.42900002;fill:url(#g);filter:url(#filter959)"
           inkscape:connector-curvature="0"
           sodipodi:nodetypes="ccsssscc" />
        <path
           d="M 24.919999,10.931136 V 119.06907 l 58.676001,-1e-4 c 0.53,0 1.039,-0.211 1.414,-0.586 l 31.484,-31.765936 c 0.375,-0.375 0.586,-0.884 0.586,-1.414 V 10.931136 Z"
           transform="matrix(1.0416667,0,0,1.0357143,-17.958333,-3.32143)"
           id="path186"
           inkscape:connector-curvature="0"
           style="opacity:0.89589;filter:url(#i)" />
        <path
           d="m 8.000002,8.0001 v 112.00002 h 61.172 c 0.53,0 1.039,-0.211 1.414,-0.586 L 103.414,86.58612 c 0.375,-0.375 0.586,-0.884 0.586,-1.414 V 8.0001 Z"
           id="path190"
           inkscape:connector-curvature="0"
           style="fill:#ad4343;fill-opacity:0.95686298" />
        <path
           d="m 11.678725,11.4001 c -0.539276,0 -0.978723,0.44084 -0.978723,0.98182 l -0.7,104.6364 c 0,0.542 0.439447,0.9818 0.978723,0.9818 h 57.913022 c 0.257404,0 0.509915,-0.104 0.691957,-0.2876 L 101.71323,85.48132 C 101.89626,85.29772 102,85.04542 102,84.78722 v -72.6053 c 0,-0.54098 -0.43847,-0.98182 -0.97872,-0.98182 z"
           id="path192"
           style="fill:url(#P)"
           inkscape:connector-curvature="0" />
        <path
           d="M 53.544922,8 C 54.507949,13.52643 56.900755,20.264656 60,28 l -0.65625,2.417969 c -1.659238,6.1233 -3.917382,12.299414 -5.898438,17.777343 C 45.263911,70.771592 38.268716,83.275097 32.75,84.779297 l -0.05273,-0.228516 c -0.452683,-2.6316 3.576685,-10.068765 9.513672,-16.322265 0.619647,-0.6458 3.203125,-3.865235 3.203124,-3.865235 0,0 -3.71062,2.600553 -4.535156,3.251953 -7.668875,5.9907 -11.174921,11.467504 -11.435547,14.845704 -0.07687,1.0036 0.205366,2.189871 1.128907,2.576171 l 2.255859,0.802735 c 6.129766,2.17 12.268774,-6.317712 19.632813,-24.044922 9.203659,-4.3511 20.805755,-8.81677 31.507812,-11.78711 7.056993,2.944305 14.59394,4.469164 20.031246,4.634766 V 51.550781 C 100.18668,51.131298 95.406391,50.049398 90.455078,48.347656 95.751068,47.104958 100.44078,46.341804 104,46.220703 v -2.804687 c -1.29015,0.02112 -2.69418,0.110785 -4.220703,0.28125 -4.054052,0.46085 -8.861441,1.422887 -14.037109,2.835937 -2.586869,-1.08701 -5.328026,-2.291194 -7.582032,-3.927734 -5.718687,-4.1468 -10.841312,-10.260187 -14.435547,-17.378907 0.093,-0.73622 0.181732,-1.454887 0.251953,-2.179687 0.324061,-3.42758 -0.523437,-14.515625 -0.523437,-14.515625 0,0 -1.07016,8.543534 -1.246094,9.833984 -0.11317,0.81937 -0.275975,1.698748 -0.470703,2.617188 C 59.780713,16.371365 58.411288,11.819367 57.710938,8 Z m 8.896484,24.03125 c 3.524377,5.31905 8.085606,10.222467 13.720703,13.904297 1.256887,0.82051 2.577057,1.580476 3.927735,2.285156 -9.039409,2.87934 -18.456558,6.518127 -27.015625,11.435547 1.269552,-3.1087 2.64176,-6.492369 4.02539,-10.130859 2.673077,-7.06903 4.157661,-12.453681 5.341797,-17.494141 z"
           id="path194"
           inkscape:connector-curvature="0"
           style="fill:#b14646;stroke-width:1.56229305" />
        <g
           transform="translate(-7.999998,1e-4)"
           id="g204">
          <path
             d="M 111.414,86.586 C 111.664,86.336 85.035,85 80,85 c -1.654,0 -3,1.346 -3,3 0,5.035 1.336,31.664 1.586,31.414 z"
             id="path196"
             style="opacity:0.1;fill:url(#a);filter:url(#b)"
             inkscape:connector-curvature="0" />
          <path
             d="M 111.414,86.586 C 111.789,86.211 89.444,86 80,86 c -1.103,0 -2,0.897 -2,2 0,9.444 0.211,31.789 0.586,31.414 z"
             id="path198"
             inkscape:connector-curvature="0"
             style="opacity:0.2;filter:url(#c)" />
          <path
             d="M 111.414,86.586 C 111.653,86.347 89.807,87 80,87 c -0.553,0 -1,0.447 -1,1 0,9.807 -0.653,31.653 -0.414,31.414 z"
             id="path200"
             style="opacity:0.1;fill:url(#d);filter:url(#e)"
             inkscape:connector-curvature="0" />
          <path
             d="m 78.586,119.414 c 0,0 11.914,-9.914 17.414,-15.414 5.5,-5.5 15.414,-17.414 15.414,-17.414 0,0 -21.164,1.414 -31.414,1.414 0,10.25 -1.414,31.414 -1.414,31.414 z"
             id="path202"
             style="fill:url(#f)"
             inkscape:connector-curvature="0" />
        </g>
        <g
           transform="translate(0,-924.36218)"
           id="g212"
           style="fill:#313131" />
        <path
           d="m 87.731282,63.31817 c -4.054052,0.46085 -8.861581,1.42315 -14.03725,2.8362 -2.586869,-1.08701 -5.326549,-2.29092 -7.580555,-3.92746 -5.718687,-4.1468 -10.842452,-10.2598 -14.436687,-17.37852 0.093,-0.73622 0.181473,-1.45504 0.251694,-2.17984 0.32406,-3.42758 -0.522804,-14.51649 -0.522804,-14.51649 0,0 -1.070115,8.54379 -1.246049,9.83424 -0.11317,0.81937 -0.275836,1.69878 -0.470564,2.61722 -2.326089,-5.48458 -3.837663,-10.89818 -4.360016,-15.07741 -0.147846,-1.18289 -0.333732,-3.49043 -0.226087,-5.35024 3.73e-4,-1.31674 0.388937,-2.04992 0.835473,-2.43648 0.992821,0.11414 2.253657,1.45797 3.688934,3.79237 1.23431,2.0182 1.483917,4.50443 1.675682,6.0387 0,0 0.561739,-3.92848 0.04163,-6.14332 -0.313951,-1.32965 -2.029578,-4.63581 -4.746201,-4.25398 l -0.221672,0.0277 -1.21406,0.1336 c -1.988459,0.24853 -3.726422,1.45668 -3.974851,3.11997 -0.900166,6.37488 2.160969,15.67673 6.764572,27.16677 l -0.656605,2.4179 c -1.659238,6.1233 -3.916323,12.2987 -5.897378,17.77663 -8.181401,22.57629 -15.177506,35.07989 -20.696222,36.58409 l -0.0529,-0.2279 c -0.452683,-2.6316 3.576193,-10.0694 9.51318,-16.3229 0.619647,-0.6458 3.204934,-3.8639 3.204934,-3.8639 0,0 -3.710707,2.6005 -4.535243,3.2519 -7.668875,5.9907 -11.174809,11.4678 -11.435435,14.846 -0.07687,1.0036 0.204909,2.1886 1.12845,2.5749 l 2.254427,0.8022 c 6.129766,2.17 12.270472,-6.3167 19.634511,-24.0439 9.203659,-4.3511 20.80568,-8.81652 31.507737,-11.78686 10.456285,4.36255 21.98302,5.62089 26.139355,3.93509 0.791286,-0.3187 1.573888,-1.06865 1.938728,-1.7165 0.2767,-0.58866 0.48351,-2.8321 0.48351,-2.8321 0,0 -0.668627,1.20836 -1.293681,1.61629 -2.56255,1.62728 -11.422469,0.55421 -20.782161,-2.66267 7.523412,-1.76536 13.874555,-2.59396 17.405022,-1.93186 4.483,0.83858 4.65986,2.25363 4.63878,2.54865 0.0274,-0.24463 0.10519,-1.21697 0.0314,-1.61663 -0.2282,-1.02352 -0.660036,-1.90761 -1.53801,-2.57549 -1.793508,-1.37382 -5.834108,-1.67666 -11.213525,-1.07595 z M 41.025759,79.27762 c 1.269552,-3.1087 2.642636,-6.49301 4.026266,-10.1315 2.673077,-7.06903 4.157784,-12.45371 5.34192,-17.49417 3.524377,5.31905 8.08461,10.22268 13.719707,13.90451 1.256887,0.82051 2.578438,1.58007 3.929116,2.28475 -9.039409,2.87934 -18.457942,6.51899 -27.017009,11.43641 z"
           id="path216"
           inkscape:connector-curvature="0"
           style="fill:#f6dcdc;stroke-width:1.56229305" />
      </g>
      <g
         id="g1551">
        <path
           style="opacity:0.55399104;stroke:#000000;stroke-width:1.81983101"
           inkscape:connector-curvature="0"
           id="path214"
           d="m 10.382653,110.73652 h 44" />
        <path
           inkscape:connector-curvature="0"
           style="fill:none;stroke:url(#k-1);stroke-linecap:round;stroke-linejoin:round"
           id="path218"
           d="m 13.382653,107.69562 c 0,0 19.40443,0.2067 15.1359,-13.192392 -1.7058,-5.3472 -7.57696,0.4916 -6.9286,2.9114 0.25388,0.9474 -7.52443,-6.6718 -1.13824,6.798592 2.84381,5.9983 11.88659,0.8067 14.20157,-2.622 2.40657,-3.564392 7.02636,-1.29779 6.29002,-1.758092 -5.67766,-0.8111 -6.51804,9.090392 7.53689,7.185792 12.01968,-1.6289 30.70752,2.4498 30.70752,2.4498" />
        <g
           id="g282"
           transform="matrix(1.1701128,0,0,1.1701128,-298.45116,149.69792)">
          <path
             inkscape:connector-curvature="0"
             style="fill:url(#D);filter:url(#m-7)"
             id="path220"
             d="m 296,-36 c 18.08511,-6.82983 36.93997,-26.55811 43.13351,-34.29467 l -4.94974,-10.25305 C 322.5921,-68.07663 302.54597,-50.99394 296,-36 Z" />
          <g
             id="g226"
             transform="matrix(0.08212343,0.05342884,-0.05342884,0.08212343,27.700593,-60.947751)">
            <path
               inkscape:connector-curvature="0"
               style="fill:url(#E-3)"
               id="path222"
               d="m 2437.4856,-1290.9012 a 2.032932,2.032932 0 0 1 -2.033,2.0329 2.032932,2.032932 0 0 1 -2.0329,-2.0329 2.032932,2.032932 0 0 1 2.0329,-2.033 2.032932,2.032932 0 0 1 2.033,2.033 z" />
            <path
               inkscape:connector-curvature="0"
               style="fill:url(#F-9)"
               id="path224"
               d="m 2437.4856,-1290.9012 a 2.032932,2.032932 0 0 1 -2.033,2.0329 2.032932,2.032932 0 0 1 -2.0329,-2.0329 2.032932,2.032932 0 0 1 2.0329,-2.033 2.032932,2.032932 0 0 1 2.033,2.033 z" />
          </g>
          <path
             inkscape:connector-curvature="0"
             style="fill:url(#linearGradient1515)"
             id="path228"
             d="m 347.55847,-126.54009 c 1.75014,-2.69007 8.54109,1.56075 6.71447,4.36838 l -5.72712,9.47064 -7.3249,-4.76552 z" />
          <path
             inkscape:connector-curvature="0"
             style="fill:url(#linearGradient1099)"
             id="path230"
             d="m 347.55847,-126.54009 c 1.75014,-2.69007 8.54109,1.56075 6.71447,4.36838 l -5.72712,9.47064 -7.3249,-4.76552 z" />
          <path
             inkscape:connector-curvature="0"
             style="fill:url(#H)"
             id="path232"
             d="m 347.55847,-126.54009 c 1.75014,-2.69007 8.54109,1.56075 6.71447,4.36838 l -5.72712,9.47064 -7.3249,-4.76552 z" />
          <path
             inkscape:connector-curvature="0"
             style="fill:url(#I);fill-rule:evenodd"
             id="path234"
             d="m 349.36364,-125.09153 c 0.99824,-1.53437 5.18469,0.76157 4.6775,1.09623 -0.65963,0.43521 -1.04601,-1.8207 -1.79839,-2.29317 -0.82208,-0.51619 -2.65331,-1.19698 -3.01921,-0.65583 -0.36596,0.54123 0.1401,1.85277 0.1401,1.85277 z" />
          <path
             inkscape:connector-curvature="0"
             style="fill:url(#J)"
             id="path236"
             d="m 345.88062,-116.61181 c -2.03159,-1.32174 -4.16136,-1.89014 -5.56744,-1.61111 l -36.45718,59.63135 0.0528,0.03436 0.0516,-0.07923 c 1.51609,-0.30086 3.81532,0.320898 6.00589,1.746059 2.19056,1.425162 3.69069,3.275181 4.02995,4.783181 l -0.0515,0.07923 0.0528,0.03436 35.61205,-60.18118 c -0.31467,-1.39854 -1.69733,-3.11529 -3.72892,-4.43703 z" />
          <path
             style="opacity:0.80274"
             inkscape:connector-curvature="0"
             id="path238"
             d="m 345.67244,-116.32066 c -2.06202,-1.34154 -4.22347,-1.91846 -5.65049,-1.63525 l -0.21804,0.33513 c 1.42706,-0.28325 3.58856,0.29359 5.65055,1.63517 2.06189,1.34144 3.46519,3.08378 3.78458,4.50325 l 0.21804,-0.33513 c -0.31942,-1.41943 -1.72275,-3.16172 -3.78464,-4.50317 z" />
          <path
             style="opacity:0.80274;fill:#ffffff;fill-opacity:0.50304901"
             inkscape:connector-curvature="0"
             id="path240"
             d="m 345.47714,-116.02048 c -2.06202,-1.34153 -4.22349,-1.91841 -5.65055,-1.63516 l -0.21798,0.33505 c 1.42703,-0.28321 3.58856,0.29359 5.65052,1.63521 2.06189,1.34145 3.46519,3.08378 3.78461,4.50321 l 0.21798,-0.33505 c -0.31939,-1.41947 -1.72269,-3.16181 -3.78458,-4.50326 z" />
          <path
             style="fill:#fefefe;fill-rule:evenodd"
             inkscape:connector-curvature="0"
             id="path242"
             d="m 303.901,-59.071806 c -4.57422,5.670844 -6.95134,12.820778 -6.84704,19.522529 l 1.92105,1.249821 c 6.16914,-2.620303 11.74252,-7.690776 15.07339,-14.170531 -1.21326,-3.579982 -6.39698,-7.100961 -10.1474,-6.601819 z" />
          <path
             inkscape:connector-curvature="0"
             id="path244"
             transform="matrix(0.55950331,0.36400835,-0.27491539,0.42256193,-1248.7515,-404.31428)"
             d="m 2242.6875,-1065.7003 a 1.6875,0.84375 0 0 1 -1.6875,0.8437 1.6875,0.84375 0 0 1 -1.6875,-0.8437 1.6875,0.84375 0 0 1 1.6875,-0.8438 1.6875,0.84375 0 0 1 1.6875,0.8438 z" />
          <g
             style="fill-rule:evenodd"
             id="g252"
             transform="matrix(0.42256193,0.27491539,-0.27491539,0.42256193,-969.13813,-222.40003)"
             clip-path="url(#o-2)">
            <path
               style="opacity:0.57487901;fill:#323232;filter:url(#p-7)"
               inkscape:connector-curvature="0"
               id="path246"
               d="m 2308.1733,-1063.7432 c -8.5093,-0.3737 -16.541,-36.7035 -11.3137,-47.2878 -28.0887,-0.8751 -15.7848,51.1325 11.3137,47.2878 z" />
            <path
               style="filter:url(#q-9)"
               inkscape:connector-curvature="0"
               id="path248"
               transform="matrix(-1,0,0,1,4612.2339,0)"
               d="m 2308.1733,-1063.7432 c -9.5993,-0.9965 -17.7823,-37.4128 -11.3137,-47.2878 -28.0887,-0.8751 -15.7848,51.1325 11.3137,47.2878 z" />
            <path
               style="opacity:0.36231899;fill:#323232;filter:url(#p-7)"
               inkscape:connector-curvature="0"
               id="path250"
               d="m 2308.1733,-1063.7432 c -8.5093,-0.3737 -13.5645,-37.5941 -8.3372,-48.1784 -28.0887,-0.8751 -18.7613,52.0231 8.3372,48.1784 z" />
          </g>
          <path
             style="opacity:0.68115934;fill:#2b2b2b;fill-rule:evenodd;filter:url(#s-9)"
             inkscape:connector-curvature="0"
             id="path254"
             transform="matrix(0.42256193,0.27491539,-0.27491539,0.42256193,-982.10333,-230.83509)"
             d="m 2342.4819,-1110.013 c 0.7213,2.72 0.3139,29.6197 -6.5547,48.6563 8.9201,-14.9168 12.0986,-28.5895 10.9687,-48.9664 -1.5814,0.5236 -1.2143,-2.4088 -4.414,0.3101 z"
             clip-path="url(#r-2)" />
          <path
             style="filter:url(#u-1)"
             inkscape:connector-curvature="0"
             id="path256"
             transform="matrix(0.42256193,0.27491539,-0.27491539,0.42256193,-1018.568,-254.67902)"
             d="m 2422.5312,-1109.6875 c -5.3743,0 -10.0363,1.4997 -12.3124,3.7187 v 0.1876 h -0.125 v 1.4062 h 0.125 v -0.1875 c 2.2761,-2.2189 6.9381,-3.7187 12.3124,-3.7187 5.3746,-1e-4 10.0366,1.4996 12.3126,3.7187 v 0.1875 h 0.125 v -1.4062 h -0.125 v -0.1876 c -2.276,-2.2191 -6.938,-3.7187 -12.3126,-3.7187 z"
             clip-path="url(#t-3)" />
          <g
             style="fill-rule:evenodd"
             id="g264">
            <path
               style="fill:#fefefe;fill-opacity:0.64024401;filter:url(#v-9)"
               inkscape:connector-curvature="0"
               id="path258"
               transform="matrix(0.42256193,0.27491539,-0.27491539,0.42256193,-942.13931,-204.83482)"
               d="m 2241.4375,-1109.125 c -4.5552,-0.031 -9.0895,1.119 -11.9375,3.5625 -0.01,0.093 -0.022,0.188 -0.031,0.2813 5.9106,-4.6994 18.186,-4.3795 24.0624,0.25 0.1814,1.7721 0.2855,3.5442 0.3126,5.3124 -0.011,-1.9377 -0.1137,-3.9003 -0.3126,-5.8437 -2.945,-2.32 -7.5385,-3.5316 -12.0937,-3.5625 z" />
            <path
               style="opacity:0.39613504;stroke:#000000;filter:url(#w-1)"
               inkscape:connector-curvature="0"
               id="path260"
               transform="matrix(0.42256193,0.27491539,-0.27491539,0.42256193,-956.06168,-187.53167)"
               d="m 2230.8619,-1284.8946 -0.8239,59.8426 c 0.1273,1.0308 0.5799,1.0312 1.4142,-0.1768 4.216,-12.2345 0.8873,-37.9431 1.9446,-59.9273 0.028,-0.5838 0.1588,-2.0699 0.6471,-2.567 -1.6146,0.5763 -2.1665,1.7796 -3.182,2.8285 z" />
            <path
               inkscape:connector-curvature="0"
               style="fill:url(#K-4)"
               id="path262"
               d="m 342.72033,-117.41632 c -0.54084,-0.0539 -0.72009,-0.0972 -1.28592,-0.1487 -0.1696,-0.0154 -0.75749,0.0774 -1.12011,0.55572 -7.78663,10.27064 -13.85496,24.061688 -17.48624,25.142096 -0.75411,0.224347 -1.56335,0.362312 -1.23618,-0.353185 5.0998,-11.152751 14.93639,-23.205241 16.62479,-25.473831 0.24812,-0.3333 0.88171,-0.38497 1.24896,-0.37308 1.15371,0.0374 2.27708,0.28956 3.25461,0.65093 z" />
          </g>
          <path
             inkscape:connector-curvature="0"
             id="path266"
             clip-path="url(#x-4)"
             transform="matrix(0.40205276,0.26157229,-0.2281823,0.35073029,-869.23614,-262.42193)"
             style="fill:none;stroke:#000000;stroke-width:0.954;stroke-linecap:round;stroke-linejoin:round;filter:url(#y-0)"
             d="m 2280.8997,-1313.6542 c 0,-7.6699 15.9536,-7.9702 16.7006,0 l 2.7591,29.4365 h -22.2188 z" />
          <path
             inkscape:connector-curvature="0"
             style="fill:url(#L);fill-rule:evenodd;filter:url(#A-0)"
             id="path268"
             transform="matrix(0.42256193,0.27491539,-0.27491539,0.42256193,-956.06168,-187.53167)"
             d="m 2227.8951,-1269.7063 c -0.099,-0.01 -0.2065,0.01 -0.3125,0.063 2.0913,30.5486 0.7811,41.3359 0.7811,41.3359 -0.8127,-4.1473 -1.1988,-29.2734 -1.1829,-38.3658 -0.9758,0.9169 -0.4945,40.7685 0.7033,43.2691 0.1553,0.3242 0.8289,-0.2733 0.875,-0.5937 1.5548,-10.7986 1.7726,-45.4959 -0.864,-45.7081 z" />
          <path
             inkscape:connector-curvature="0"
             style="fill:url(#M);fill-rule:evenodd;filter:url(#B-3)"
             id="path270"
             transform="matrix(0.42256193,0.27491539,-0.27491539,0.42256193,-956.06168,-187.53167)"
             d="m 2231.15,-1286.4878 c 0,0 -2.2733,1.0741 -2.375,2 -0.9783,8.9087 2.2368,29.5442 2.2368,29.5442 0,0 -1.8379,-21.762 -0.118,-30.8428 0.042,-0.2201 0.1708,-0.4676 0.2562,-0.7014 z" />
          <path
             style="fill:#ffffff;filter:url(#C-0)"
             inkscape:connector-curvature="0"
             id="path272"
             transform="matrix(0.21132701,0.45768763,-0.45768763,0.21132701,-709.12168,-853.80813)"
             d="m 2229.9375,-1225.3253 a 0.6875,0.9375 0 0 1 -0.6875,0.9375 0.6875,0.9375 0 0 1 -0.6875,-0.9375 0.6875,0.9375 0 0 1 0.6875,-0.9375 0.6875,0.9375 0 0 1 0.6875,0.9375 z" />
          <path
             inkscape:connector-curvature="0"
             style="fill:url(#N)"
             id="path274"
             d="m 296.51997,-36.971922 0.32985,-1.241554 0.88276,-1.356847 0.005,0.0036 -0.003,0.0042 c 0.14081,0.06755 0.32276,0.155252 0.55502,0.303353 0.24639,0.160303 0.37937,0.268464 0.50308,0.385035 l 0.003,-0.0042 0.005,0.0036 -0.91858,1.411906 -1.01936,0.704801 c -0.0953,-0.02653 -0.28585,-0.162517 -0.34375,-0.214023 z" />
          <path
             inkscape:connector-curvature="0"
             id="path276"
             d="m 298.33707,-39.283856 c -0.52119,-0.339081 -1.05465,-0.458873 -1.18271,-0.262044 -0.096,0.147601 0.0712,0.420345 0.37484,0.69493 -0.21035,-0.208416 -0.31041,-0.41846 -0.23756,-0.530439 0.10642,-0.163392 0.53534,-0.06519 0.96813,0.216378 0.43283,0.281595 0.69645,0.633953 0.59011,0.7974 -0.0728,0.111979 -0.30543,0.105609 -0.5812,-0.0022 0.37407,0.166324 0.678,0.200111 0.77403,0.05251 0.12805,-0.196829 -0.18445,-0.627417 -0.70564,-0.966498 z" />
          <path
             inkscape:connector-curvature="0"
             style="fill:url(#O)"
             id="path278"
             d="m 296.51997,-36.971922 0.32985,-1.241554 0.88276,-1.356847 0.005,0.0036 -0.003,0.0042 c 0.14081,0.06755 0.32276,0.155252 0.55502,0.303353 0.24639,0.160303 0.37937,0.268464 0.50308,0.385035 l 0.003,-0.0042 0.005,0.0036 -0.91858,1.411906 -1.01936,0.704801 c -0.0953,-0.02653 -0.28585,-0.162517 -0.34375,-0.214023 z" />
          <path
             style="opacity:0.68115934;fill:#2b2b2b;fill-rule:evenodd;filter:url(#s-9)"
             inkscape:connector-curvature="0"
             id="path280"
             transform="matrix(0.42256193,0.27491539,-0.27491539,0.42256193,-982.10333,-230.83509)"
             d="m 2342.4819,-1110.013 c 0.7213,2.72 0.1926,29.594 -6.5547,48.6563 6.728,-18.9292 8.6732,-28.8711 7.5433,-49.248 -1.5814,0.5236 2.2111,-2.1272 -0.9886,0.5917 z"
             clip-path="url(#r-2)" />
        </g>
      </g>
    </g>
  </g>
</svg>
