<svg height="128" viewBox="0 0 128 128" width="128" xmlns="http://www.w3.org/2000/svg" xmlns:xlink="http://www.w3.org/1999/xlink"><linearGradient id="a" gradientUnits="userSpaceOnUse" x1="117.46856" x2="13.177806" y1="100.92413" y2="36.143909"><stop offset="0" stop-color="#fff"/><stop offset=".51373518" stop-color="#fff"/><stop offset=".8125" stop-color="#f1f1f1"/><stop offset=".90625" stop-color="#eaeaea"/><stop offset="1" stop-color="#dfdfdf"/></linearGradient><path d="m105.73509 107.38825-25.294721-15.503249-.172989 29.718989-14.154248-26.073565-15.009308 25.650905.778845-29.657493-25.823896 14.709683 15.503247-25.294722-29.718991-.17299 26.073567-14.154247-25.650906-15.009309 29.657495.778845-14.709683-25.823895 25.294722 15.503247.172989-29.718991 14.154248 26.073566 15.009308-25.650906-.778845 29.657495 25.823896-14.709682-15.503247 25.294721 29.718987.172989-26.073563 14.154248 25.650903 15.009309-29.657491-.778845z" style="stroke:#507dbe;stroke-width:3.826648;stroke-linecap:round;stroke-linejoin:bevel;stroke-opacity:.730392;fill:url(#a)" transform="matrix(.54901497 .88951507 -.88951507 .54901497 87.077864 -31.898917)"/><text fill="#ae1010" font-family="sans-serif" font-size="40" letter-spacing="0" word-spacing="0" x="40.607189" y="78.18"><tspan fill="#ae1010" font-family="FreeSans" x="40.607189" y="78.18">12</tspan></text></svg>