<svg height="128" viewBox="0 0 128 128" width="128" xmlns="http://www.w3.org/2000/svg" xmlns:xlink="http://www.w3.org/1999/xlink"><linearGradient id="a" gradientUnits="userSpaceOnUse" x1="64" x2="64" y1="128" y2="0"><stop offset="0" stop-color="#fff"/><stop offset=".46428573" stop-color="#fff"/><stop offset=".77777779" stop-color="#f1f1f1"/><stop offset=".90625" stop-color="#eaeaea"/><stop offset="1" stop-color="#dfdfdf"/></linearGradient><linearGradient id="b" gradientUnits="userSpaceOnUse" x1="3.440861" x2="124.55913" y1="63.999092" y2="63.999092"><stop offset="0" stop-color="#7c9fcf"/><stop offset=".5" stop-color="#7c9ece"/><stop offset="1" stop-color="#7b9dcf"/></linearGradient><path d="m63.941406 3.4394531a3.9925111 3.9925111 0 0 0 -2.763672 1.1699219l-15.40039 15.398437h-21.777344a3.9925111 3.9925111 0 0 0 -3.992188 3.992188v21.777344l-15.398437 15.40039a3.9925111 3.9925111 0 0 0 0 5.644532l15.398437 15.40039v21.777344a3.9925111 3.9925111 0 0 0 3.992188 3.99219h21.777344l15.40039 15.39843a3.9925111 3.9925111 0 0 0 5.644532 0l15.40039-15.39843h21.777344a3.9925111 3.9925111 0 0 0 3.99219-3.99219v-21.777344l15.39843-15.40039a3.9925111 3.9925111 0 0 0 0-5.644532l-15.39843-15.40039v-21.777344a3.9925111 3.9925111 0 0 0 -3.99219-3.992188h-21.777344l-15.40039-15.398437a3.9925111 3.9925111 0 0 0 -2.88086-1.1699219z" fill="url(#b)"/><path d="m24.402023 24.402025h79.195953v79.195953h-79.195953z" fill="#e8b7d7"/><path d="m64 7.4316406-16.568359 16.5683594h-23.431641v23.431641l-16.5683594 16.568359 16.5683594 16.568359v23.431641h23.431641l16.568359 16.56836 16.568359-16.56836h23.431641v-23.431641l16.56836-16.568359-16.56836-16.568359v-23.431641h-23.431641z" fill="url(#a)"/></svg>