<?xml version="1.0" encoding="UTF-8" standalone="no"?>
<!-- Created with Inkscape (http://www.inkscape.org/) -->

<svg
   xmlns:dc="http://purl.org/dc/elements/1.1/"
   xmlns:cc="http://creativecommons.org/ns#"
   xmlns:rdf="http://www.w3.org/1999/02/22-rdf-syntax-ns#"
   xmlns:svg="http://www.w3.org/2000/svg"
   xmlns="http://www.w3.org/2000/svg"
   xmlns:xlink="http://www.w3.org/1999/xlink"
   xmlns:sodipodi="http://sodipodi.sourceforge.net/DTD/sodipodi-0.dtd"
   xmlns:inkscape="http://www.inkscape.org/namespaces/inkscape"
   width="32"
   height="32"
   viewBox="0 0 8.4666665 8.466667"
   version="1.1"
   id="svg3248"
   inkscape:version="0.92.4 (unknown)"
   sodipodi:docname="strikeout.svg"
   inkscape:export-filename="/home/rizmut/Dokumen/Rizmut/Github/libreoffice-style-karasa-jaga/build/next/cmd/32/strikeout.png"
   inkscape:export-xdpi="96"
   inkscape:export-ydpi="96">
  <defs
     id="defs3242">
    <linearGradient
       inkscape:collect="always"
       xlink:href="#b"
       id="linearGradient4629"
       x1="60"
       y1="8.0000038"
       x2="60"
       y2="48.000004"
       gradientUnits="userSpaceOnUse" />
    <linearGradient
       id="a"
       gradientUnits="userSpaceOnUse"
       x1="18.981823"
       x2="20.202982"
       y1="294.72055"
       y2="266.63391"
       gradientTransform="translate(-12.113833,-69.234856)">
      <stop
         offset="0"
         stop-color="#555"
         id="stop2" />
      <stop
         offset="1"
         id="stop4" />
    </linearGradient>
    <linearGradient
       id="linearGradient1806"
       gradientUnits="userSpaceOnUse"
       x1="18.981823"
       x2="20.202982"
       y1="294.72055"
       y2="266.63391"
       gradientTransform="translate(3.7611663,-263.57652)">
      <stop
         offset="0"
         stop-color="#555"
         id="stop1802" />
      <stop
         offset="1"
         id="stop1804" />
    </linearGradient>
    <linearGradient
       id="b"
       gradientUnits="userSpaceOnUse"
       x1="35.404884"
       x2="54.657333"
       y1="7.3243251"
       y2="81.814293"
       gradientTransform="scale(0.26458333)">
      <stop
         offset="0"
         stop-color="#3b3e22"
         id="stop7" />
      <stop
         offset="1"
         stop-color="#454545"
         stop-opacity="0"
         id="stop9" />
    </linearGradient>
    <linearGradient
       inkscape:collect="always"
       xlink:href="#a"
       id="linearGradient856"
       x1="60"
       y1="128"
       x2="60"
       y2="8.0000038"
       gradientUnits="userSpaceOnUse" />
  </defs>
  <sodipodi:namedview
     id="base"
     pagecolor="#ffffff"
     bordercolor="#666666"
     borderopacity="1.0"
     inkscape:pageopacity="0.0"
     inkscape:pageshadow="2"
     inkscape:zoom="2.8"
     inkscape:cx="93.410602"
     inkscape:cy="52.413152"
     inkscape:document-units="mm"
     inkscape:current-layer="g4767"
     showgrid="true"
     units="px"
     inkscape:window-width="1366"
     inkscape:window-height="706"
     inkscape:window-x="0"
     inkscape:window-y="0"
     inkscape:window-maximized="1"
     showguides="false">
    <inkscape:grid
       type="xygrid"
       id="grid823"
       spacingx="0.13229167"
       spacingy="0.13229167"
       empspacing="2" />
  </sodipodi:namedview>
  <metadata
     id="metadata3245">
    <rdf:RDF>
      <cc:Work
         rdf:about="">
        <dc:format>image/svg+xml</dc:format>
        <dc:type
           rdf:resource="http://purl.org/dc/dcmitype/StillImage" />
        <dc:title></dc:title>
      </cc:Work>
    </rdf:RDF>
  </metadata>
  <g
     inkscape:label="Layer 1"
     inkscape:groupmode="layer"
     id="layer1"
     transform="translate(0,-288.53332)">
    <g
       id="g4767"
       transform="matrix(0.25,0,0,0.25,2.2252401e-7,222.74999)">
      <path
         id="text3806"
         transform="matrix(0.26458333,0,0,0.26458333,0,263.13332)"
         d="m 60.849609,15.070312 c -6.533333,0 -12.226744,2.238751 -17.080078,6.71875 -4.76,4.386667 -7.138672,10.12737 -7.138672,17.220704 0,5.32 1.539141,9.986666 4.619141,14 0.801918,1.044923 1.647082,2.040215 2.53125,2.990234 H 69.845703 C 69.6425,55.889898 69.455749,55.78007 69.25,55.669922 61.876666,51.563255 56.60302,47.830703 53.429688,44.470703 c -3.173334,-3.36 -4.759766,-6.907291 -4.759766,-10.640625 0,-3.826667 1.35388,-6.954193 4.060547,-9.380859 2.706667,-2.426667 6.206666,-3.638672 10.5,-3.638672 5.6,0 10.686432,1.958906 15.259765,5.878906 4.666667,3.92 8.119375,9.987838 10.359375,18.201172 h 3.5 L 89.269531,15.070312 h -2.939453 c -0.56,3.173334 -2.053802,4.759766 -4.480469,4.759766 -0.933333,0 -3.686432,-0.794193 -8.259765,-2.380859 C 69.01651,15.862552 64.76961,15.070312 60.849609,15.070312 Z M 68.1875,72 c 3.229518,2.080701 6.060588,4.474064 8.482422,7.189453 3.08,3.36 4.61914,7.234427 4.61914,11.621094 0,4.666667 -1.586432,8.491852 -4.759765,11.478513 -3.173334,2.89334 -7.325651,4.3418 -12.458985,4.3418 -6.253332,0 -11.6669,-2.00816 -16.240234,-6.02148 C 43.256745,96.596037 39.242396,90.342943 35.789062,81.849609 h -3.21875 l 4.199219,29.679691 h 3.080078 c 0.09333,-1.30667 0.513099,-2.37875 1.259766,-3.21875 0.746667,-0.93334 1.63349,-1.40039 2.660156,-1.40039 1.12,0 4.060313,0.79224 8.820313,2.3789 4.853333,1.58667 9.61263,2.38086 14.279297,2.38086 8.026667,0 14.794114,-2.42596 20.300781,-7.2793 5.506667,-4.946657 8.259764,-11.0145 8.259766,-18.201167 0,-5.13456 -1.626099,-9.863149 -4.859376,-14.189453 z"
         style="font-style:normal;font-variant:normal;font-weight:bold;font-stretch:normal;font-size:37.10869598px;line-height:1.25;font-family:FreeSerif;-inkscape-font-specification:'FreeSerif, Bold';font-variant-ligatures:normal;font-variant-caps:normal;font-variant-numeric:normal;font-feature-settings:normal;text-align:start;letter-spacing:0px;word-spacing:0px;writing-mode:lr-tb;text-anchor:start;fill:url(#linearGradient856);fill-opacity:1;stroke:none;stroke-width:3.50649953"
         inkscape:connector-curvature="0" />
      <path
         id="path4610"
         transform="matrix(0.26458333,0,0,0.26458333,0,263.13332)"
         d="m 60.849609,17.005859 c -6.091891,0 -11.232398,2.014816 -15.767578,6.201172 a 1.9336364,1.9336364 0 0 1 -0.0078,0.0078 c -4.377721,4.034381 -6.511719,9.135684 -6.511719,15.796875 0,4.946608 1.393366,9.135601 4.222656,12.822265 1.14632,1.49368 2.379586,2.879645 3.697266,4.166016 H 65.923828 C 59.686536,52.370431 55.065825,49.012144 52.027344,45.794922 48.609105,42.175608 46.734375,38.111716 46.734375,33.830078 c 0,-4.282507 1.619896,-8.057957 4.703125,-10.822266 3.085909,-2.76665 7.137531,-4.134765 11.794922,-4.134765 6.051912,0 11.644869,2.176368 16.513672,6.349609 4.728472,3.978369 8.087088,10.053871 10.402344,17.730469 h 0.05078 L 87.527344,17.005859 c -3.33e-4,9.83e-4 -0.0075,-9.82e-4 -0.0078,0 -0.356644,1.05566 -0.602448,2.198078 -1.320312,2.960938 -1.104938,1.174148 -2.714541,1.800781 -4.34961,1.800781 -1.017467,0 -1.866553,-0.258054 -3.298828,-0.671875 C 77.11852,20.68192 75.260497,20.071346 72.955091,19.271484 68.54419,17.741154 64.509762,17.005859 60.849622,17.005859 Z"
         style="opacity:1;fill:url(#linearGradient4629);fill-opacity:1;stroke:none;stroke-width:0.99999994;stroke-opacity:1"
         inkscape:connector-curvature="0" />
      <rect
         ry="0"
         rx="0.14996053"
         y="279.00833"
         x="2.1166666"
         height="2.1166558"
         width="29.633333"
         id="rect3931"
         style="opacity:1;fill:#0b0b0b;fill-opacity:1;stroke:none;stroke-width:0.20463981;stroke-opacity:1" />
    </g>
  </g>
</svg>
