<svg height="128" viewBox="0 0 128 128" width="128" xmlns="http://www.w3.org/2000/svg" xmlns:xlink="http://www.w3.org/1999/xlink"><linearGradient id="a" gradientUnits="userSpaceOnUse" x1="12.438266" x2="-55.016076" y1="16.031899" y2="81.500801"><stop offset="0" stop-color="#f9f9fa"/><stop offset="1" stop-color="#f9f9fa" stop-opacity="0"/></linearGradient><linearGradient id="b" gradientUnits="userSpaceOnUse" x1="65.878095" x2="64.000001" y1="127.035966" y2="8"><stop offset="0" stop-color="#fff"/><stop offset=".53340602" stop-color="#fff"/><stop offset=".83333331" stop-color="#f1f1f1"/><stop offset=".89999998" stop-color="#eaeaea"/><stop offset="1" stop-color="#dfdfdf"/></linearGradient><linearGradient id="c" gradientUnits="userSpaceOnUse" x1="65.878095" x2="68.000004" y1="127.035966" y2="12"><stop offset="0" stop-color="#7c9fcf"/><stop offset=".5" stop-color="#7c9ece"/><stop offset="1" stop-color="#7b9dcf"/></linearGradient><path d="m64 4c-15.707959.0000123-31.318577 6.467014-42.425781 17.574219-11.107205 11.107204-17.5742067 26.717822-17.574219 42.425781.0000123 15.707959 6.467014 31.318578 17.574219 42.42578 11.107204 11.10721 26.717822 17.57421 42.425781 17.57422 15.707959-.00001 31.318578-6.46701 42.42578-17.57422 11.10721-11.107202 17.57421-26.717821 17.57422-42.42578-.00001-15.707959-6.46701-31.318577-17.57422-42.425781-11.107202-11.107205-26.717821-17.5742067-42.42578-17.574219zm-19.222656 36.306641a4.7428226 10.816517 0 0 1 4.742187 10.816406 4.7428226 10.816517 0 0 1 -4.742187 10.816406 4.7428226 10.816517 0 0 1 -4.742188-10.816406 4.7428226 10.816517 0 0 1 4.742188-10.816406zm38.68164 0a4.7428226 10.816517 0 0 1 4.744141 10.816406 4.7428226 10.816517 0 0 1 -4.744141 10.816406 4.7428226 10.816517 0 0 1 -4.742187-10.816406 4.7428226 10.816517 0 0 1 4.742187-10.816406z" fill="url(#c)"/><path d="m-77.435478 25.282259h77.435478v77.435478h-77.435478z" fill="url(#a)"/><path d="m64 8a56.000044 56.000044 0 0 0 -56 56 56.000044 56.000044 0 0 0 56 56 56.000044 56.000044 0 0 0 56-56 56.000044 56.000044 0 0 0 -56-56zm-19.319453 29.260292a7.7573985 13.613444 0 0 1 7.757968 13.614177 7.7573985 13.613444 0 0 1 -7.757968 13.612291 7.7573985 13.613444 0 0 1 -7.757968-13.612291 7.7573985 13.613444 0 0 1 7.757968-13.614177zm38.638906 0a7.7573985 13.613444 0 0 1 7.757968 13.614177 7.7573985 13.613444 0 0 1 -7.757968 13.612291 7.7573985 13.613444 0 0 1 -7.757967-13.612291 7.7573985 13.613444 0 0 1 7.757967-13.614177zm-54.573682 42.195271c34.098069 26.481837 52.404671 13.485002 70.516007 0l.965972 1.931944c-19.396532 21.387543-41.249768 31.719913-72.447951 0z" fill="url(#b)"/></svg>