<svg height="128" viewBox="0 0 128 128" width="128" xmlns="http://www.w3.org/2000/svg" xmlns:xlink="http://www.w3.org/1999/xlink"><linearGradient id="a"><stop offset="0" stop-color="#ededed"/><stop offset="1" stop-color="#fcfcfc"/></linearGradient><linearGradient id="b" gradientUnits="userSpaceOnUse" x1="62.380198" x2="61.96743" xlink:href="#a" y1="50.347371" y2="80.066714"/><linearGradient id="c" gradientUnits="userSpaceOnUse" x1="8.62407" x2="119.37593" xlink:href="#a" y1="64" y2="64"/><g stroke="#507dbe" stroke-linecap="square" stroke-linejoin="bevel" stroke-opacity=".729412" stroke-width="4"><path d="m102.3938 103.33024-29.631859-17.30088-9.4241 32.92984-8.719323-33.186463-29.948755 16.621063 17.300877-29.631859-32.9298356-9.4241 33.1864586-8.719323-16.621066-29.948755 29.631862 17.300877 9.4241-32.9298356 8.719323 33.1864586 29.948758-16.621066-17.30088 29.631862 32.92984 9.4241-33.186463 8.719323z" fill="url(#c)" transform="matrix(.99996333 -.00856374 .00856374 .99996333 -.545733 .550426)"/><path d="m64.000001 43.277141c-11.444916.000009-20.722851 9.277944-20.72286 20.72286.000008 11.444916 9.277944 20.722855 20.72286 20.722863 11.444917-.000008 20.722855-9.277946 20.722863-20.722863-.000008-11.444916-9.277947-20.722852-20.722863-20.72286z" fill="url(#b)"/></g></svg>