<?xml version="1.0" encoding="UTF-8" standalone="no"?>
<svg
   xmlns:dc="http://purl.org/dc/elements/1.1/"
   xmlns:cc="http://creativecommons.org/ns#"
   xmlns:rdf="http://www.w3.org/1999/02/22-rdf-syntax-ns#"
   xmlns:svg="http://www.w3.org/2000/svg"
   xmlns="http://www.w3.org/2000/svg"
   xmlns:xlink="http://www.w3.org/1999/xlink"
   xmlns:sodipodi="http://sodipodi.sourceforge.net/DTD/sodipodi-0.dtd"
   xmlns:inkscape="http://www.inkscape.org/namespaces/inkscape"
   enable-background="new 0 0 128 128"
   height="32"
   viewBox="0 0 32 32"
   width="32"
   version="1.1"
   id="svg158"
   sodipodi:docname="versiondialog.svg"
   inkscape:version="0.92.4 (unknown)"
   inkscape:export-filename="/home/rizmut/Dokumen/Rizmut/Github/libreoffice-style-karasa-jaga/build/next/cmd/32/versiondialog.png"
   inkscape:export-xdpi="96"
   inkscape:export-ydpi="96">
  <metadata
     id="metadata164">
    <rdf:RDF>
      <cc:Work
         rdf:about="">
        <dc:format>image/svg+xml</dc:format>
        <dc:type
           rdf:resource="http://purl.org/dc/dcmitype/StillImage" />
        <dc:title></dc:title>
      </cc:Work>
    </rdf:RDF>
  </metadata>
  <defs
     id="defs162">
    <radialGradient
       inkscape:collect="always"
       xlink:href="#e"
       id="radialGradient995"
       gradientUnits="userSpaceOnUse"
       cx="102.000002"
       cy="112.3047"
       r="139.5585" />
    <radialGradient
       inkscape:collect="always"
       xlink:href="#d"
       id="radialGradient997"
       gradientUnits="userSpaceOnUse"
       gradientTransform="matrix(0.9787234,0,0,0.9818182,1.361705,1.163636)"
       cx="102"
       cy="112.3047"
       r="139.55859" />
    <linearGradient
       inkscape:collect="always"
       xlink:href="#a"
       id="linearGradient999"
       gradientUnits="userSpaceOnUse"
       x1="88.591797"
       y1="96.592697"
       x2="71.262016"
       y2="79.262917" />
    <linearGradient
       inkscape:collect="always"
       xlink:href="#b"
       id="linearGradient1001"
       gradientUnits="userSpaceOnUse"
       x1="85.219681"
       y1="93.219681"
       x2="61.336319"
       y2="69.336319" />
    <linearGradient
       inkscape:collect="always"
       xlink:href="#c"
       id="linearGradient1003"
       gradientUnits="userSpaceOnUse"
       x1="96"
       y1="104"
       x2="88.000198"
       y2="96.000198" />
    <radialGradient
       inkscape:collect="always"
       xlink:href="#e"
       id="radialGradient1027"
       gradientUnits="userSpaceOnUse"
       cx="102.000002"
       cy="112.3047"
       r="139.5585" />
    <radialGradient
       inkscape:collect="always"
       xlink:href="#d"
       id="radialGradient1029"
       gradientUnits="userSpaceOnUse"
       gradientTransform="matrix(0.9787234,0,0,0.9818182,1.361705,1.163636)"
       cx="102"
       cy="112.3047"
       r="139.55859" />
    <linearGradient
       inkscape:collect="always"
       xlink:href="#a"
       id="linearGradient1031"
       gradientUnits="userSpaceOnUse"
       x1="88.591797"
       y1="96.592697"
       x2="71.262016"
       y2="79.262917" />
    <linearGradient
       inkscape:collect="always"
       xlink:href="#b"
       id="linearGradient1033"
       gradientUnits="userSpaceOnUse"
       x1="85.219681"
       y1="93.219681"
       x2="61.336319"
       y2="69.336319" />
    <linearGradient
       inkscape:collect="always"
       xlink:href="#c"
       id="linearGradient1035"
       gradientUnits="userSpaceOnUse"
       x1="96"
       y1="104"
       x2="88.000198"
       y2="96.000198" />
    <radialGradient
       inkscape:collect="always"
       xlink:href="#e"
       id="radialGradient1037"
       gradientUnits="userSpaceOnUse"
       cx="102.000002"
       cy="112.3047"
       r="139.5585" />
    <radialGradient
       inkscape:collect="always"
       xlink:href="#d"
       id="radialGradient1039"
       gradientUnits="userSpaceOnUse"
       gradientTransform="matrix(0.9787234,0,0,0.9818182,1.361705,1.163636)"
       cx="102"
       cy="112.3047"
       r="139.55859" />
    <linearGradient
       inkscape:collect="always"
       xlink:href="#a"
       id="linearGradient1041"
       gradientUnits="userSpaceOnUse"
       x1="88.591797"
       y1="96.592697"
       x2="71.262016"
       y2="79.262917" />
    <linearGradient
       inkscape:collect="always"
       xlink:href="#b"
       id="linearGradient1043"
       gradientUnits="userSpaceOnUse"
       x1="85.219681"
       y1="93.219681"
       x2="61.336319"
       y2="69.336319" />
    <linearGradient
       inkscape:collect="always"
       xlink:href="#c"
       id="linearGradient1045"
       gradientUnits="userSpaceOnUse"
       x1="96"
       y1="104"
       x2="88.000198"
       y2="96.000198" />
  </defs>
  <sodipodi:namedview
     pagecolor="#ffffff"
     bordercolor="#666666"
     borderopacity="1"
     objecttolerance="10"
     gridtolerance="10"
     guidetolerance="10"
     inkscape:pageopacity="0"
     inkscape:pageshadow="2"
     inkscape:window-width="1366"
     inkscape:window-height="706"
     id="namedview160"
     showgrid="true"
     inkscape:zoom="10.429825"
     inkscape:cx="19.268301"
     inkscape:cy="20.417704"
     inkscape:window-x="0"
     inkscape:window-y="0"
     inkscape:window-maximized="1"
     inkscape:current-layer="svg158">
    <inkscape:grid
       type="xygrid"
       id="grid971"
       spacingx="0.5"
       spacingy="0.5"
       empspacing="2" />
  </sodipodi:namedview>
  <linearGradient
     id="a"
     gradientUnits="userSpaceOnUse"
     x1="88.591797"
     x2="71.262016"
     y1="96.592697"
     y2="79.262917">
    <stop
       offset="0"
       stop-color="#fff"
       id="stop2" />
    <stop
       offset="1"
       stop-color="#555753"
       id="stop4" />
  </linearGradient>
  <linearGradient
     id="b"
     gradientUnits="userSpaceOnUse"
     x1="85.219681"
     x2="61.336319"
     y1="93.219681"
     y2="69.336319">
    <stop
       offset="0"
       id="stop7" />
    <stop
       offset="1"
       stop-color="#393b38"
       id="stop9" />
  </linearGradient>
  <linearGradient
     id="c"
     gradientUnits="userSpaceOnUse"
     x1="96"
     x2="88.000198"
     y1="104"
     y2="96.000198">
    <stop
       offset="0"
       stop-color="#888a85"
       id="stop12" />
    <stop
       offset=".0072"
       stop-color="#8c8e89"
       id="stop14" />
    <stop
       offset=".0673"
       stop-color="#abaca9"
       id="stop16" />
    <stop
       offset=".1347"
       stop-color="#c5c6c4"
       id="stop18" />
    <stop
       offset=".2115"
       stop-color="#dbdbda"
       id="stop20" />
    <stop
       offset=".3012"
       stop-color="#ebebeb"
       id="stop22" />
    <stop
       offset=".4122"
       stop-color="#f7f7f6"
       id="stop24" />
    <stop
       offset=".5679"
       stop-color="#fdfdfd"
       id="stop26" />
    <stop
       offset="1"
       stop-color="#fff"
       id="stop28" />
  </linearGradient>
  <radialGradient
     id="d"
     cx="102"
     cy="112.3047"
     gradientTransform="matrix(.9787234 0 0 .9818182 1.361705 1.163636)"
     gradientUnits="userSpaceOnUse"
     r="139.55859">
    <stop
       offset="0"
       stop-color="#535557"
       id="stop31" />
    <stop
       offset=".11366145"
       stop-color="#898a8c"
       id="stop33" />
    <stop
       offset=".20296688"
       stop-color="#ececec"
       id="stop35" />
    <stop
       offset=".2363"
       stop-color="#fafafa"
       id="stop37" />
    <stop
       offset=".2722"
       stop-color="#fff"
       id="stop39" />
    <stop
       offset=".5313"
       stop-color="#fafafa"
       id="stop41" />
    <stop
       offset=".8449"
       stop-color="#ebecec"
       id="stop43" />
    <stop
       offset="1"
       stop-color="#e1e2e3"
       id="stop45" />
  </radialGradient>
  <radialGradient
     id="e"
     cx="102.000002"
     cy="112.3047"
     gradientUnits="userSpaceOnUse"
     r="139.5585">
    <stop
       offset="0"
       stop-color="#00537d"
       id="stop48" />
    <stop
       offset=".0151"
       stop-color="#186389"
       id="stop50" />
    <stop
       offset=".0558"
       stop-color="#558ca8"
       id="stop52" />
    <stop
       offset=".0964"
       stop-color="#89afc3"
       id="stop54" />
    <stop
       offset=".1357"
       stop-color="#b3ccd8"
       id="stop56" />
    <stop
       offset=".1737"
       stop-color="#d4e2e9"
       id="stop58" />
    <stop
       offset=".2099"
       stop-color="#ecf2f5"
       id="stop60" />
    <stop
       offset=".2435"
       stop-color="#fafcfd"
       id="stop62" />
    <stop
       offset=".2722"
       stop-color="#fff"
       id="stop64" />
  </radialGradient>
  <filter
     id="f">
    <feGaussianBlur
       stdDeviation="1.0394514"
       id="feGaussianBlur67" />
  </filter>
  <filter
     id="g">
    <feGaussianBlur
       stdDeviation=".50063244"
       id="feGaussianBlur70" />
  </filter>
  <filter
     id="h">
    <feGaussianBlur
       stdDeviation=".40750996"
       id="feGaussianBlur73" />
  </filter>
  <filter
     id="i">
    <feGaussianBlur
       stdDeviation=".4901192"
       id="feGaussianBlur76" />
  </filter>
  <filter
     id="j">
    <feGaussianBlur
       stdDeviation=".90565481"
       id="feGaussianBlur79" />
  </filter>
  <g
     transform="matrix(0.25,0,0,0.25,-6.9999994,-6.0000001)"
     id="g1025">
    <path
       d="M 46.039997,36.034483 46.080819,121 H 84.172 c 0.53,0 1.039,-0.211 1.414,-0.586 L 118.414,87.586 C 118.789,87.211 119,86.702 119,86.172 V 36.034483 Z"
       transform="matrix(1.0416667,0,0,1.0357143,-9.958333,-3.321534)"
       id="path1005"
       inkscape:connector-curvature="0"
       style="opacity:0.30684904;filter:url(#f)"
       sodipodi:nodetypes="ccsssscc" />
    <path
       d="m 47.959996,37.965619 2e-6,81.103451 35.636002,-1e-4 c 0.53,0 1.039,-0.211 1.414,-0.586 l 31.484,-31.765936 c 0.375,-0.375 0.586,-0.884 0.586,-1.414 V 37.965619 Z"
       transform="matrix(1.0416667,0,0,1.0357143,-9.958333,-3.321534)"
       id="path1007"
       inkscape:connector-curvature="0"
       style="opacity:0.89589;filter:url(#g)"
       sodipodi:nodetypes="cccccscc" />
    <path
       d="m 46.039997,37 0.04082,84 H 84.172 c 0.53,0 1.039,-0.211 1.414,-0.586 L 118.414,87.586 C 118.789,87.211 119,86.702 119,86.172 V 37 Z"
       transform="matrix(1.0416667,0,0,1.0357143,-9.958333,-3.321534)"
       id="path1009"
       inkscape:connector-curvature="0"
       style="opacity:0.30684904;filter:url(#f)"
       sodipodi:nodetypes="ccsssscc" />
    <path
       d="m 40,36 2e-6,84 h 37.172 c 0.53,0 1.039,-0.211 1.414,-0.586 L 111.414,86.586 C 111.789,86.211 112,85.702 112,85.172 V 36 Z"
       id="path1011"
       inkscape:connector-curvature="0"
       style="fill:url(#radialGradient1027)"
       sodipodi:nodetypes="ccsssscc" />
    <path
       d="M 43.678723,38.7 C 43.139447,38.7 42.7,39.140836 42.7,39.681818 l -0.699998,77.336362 c 0,0.54197 0.439447,0.98182 0.978723,0.98182 h 33.913022 c 0.257404,0 0.509915,-0.10407 0.691957,-0.28767 L 109.71323,85.4812 C 109.89626,85.2976 110,85.045273 110,84.787055 V 38.981818 C 110,38.440836 109.56153,38 109.02128,38 Z"
       id="path1013"
       inkscape:connector-curvature="0"
       style="fill:url(#radialGradient1029)"
       sodipodi:nodetypes="cccssccsscc" />
    <g
       transform="translate(2e-6)"
       id="g1023">
      <path
         inkscape:connector-curvature="0"
         style="opacity:0.1;fill:url(#linearGradient1031);filter:url(#h)"
         d="M 111.414,86.586 C 111.664,86.336 85.035,85 80,85 c -1.654,0 -3,1.346 -3,3 0,5.035 1.336,31.664 1.586,31.414 z"
         id="path1015" />
      <path
         style="opacity:0.2;filter:url(#j)"
         inkscape:connector-curvature="0"
         d="M 111.414,86.586 C 111.789,86.211 89.444,86 80,86 c -1.103,0 -2,0.897 -2,2 0,9.444 0.211,31.789 0.586,31.414 z"
         id="path1017" />
      <path
         inkscape:connector-curvature="0"
         style="opacity:0.1;fill:url(#linearGradient1033);filter:url(#i)"
         d="M 111.414,86.586 C 111.653,86.347 89.807,87 80,87 c -0.553,0 -1,0.447 -1,1 0,9.807 -0.653,31.653 -0.414,31.414 z"
         id="path1019" />
      <path
         inkscape:connector-curvature="0"
         style="fill:url(#linearGradient1035)"
         d="m 78.586,119.414 c 0,0 11.914,-9.914 17.414,-15.414 5.5,-5.5 15.414,-17.414 15.414,-17.414 0,0 -21.164,1.414 -31.414,1.414 0,10.25 -1.414,31.414 -1.414,31.414 z"
         id="path1021" />
    </g>
  </g>
  <g
     id="g993"
     transform="matrix(0.25,0,0,0.25,-2.9999988,-3.0000002)">
    <path
       sodipodi:nodetypes="ccsssscc"
       style="opacity:0.30684904;filter:url(#f)"
       inkscape:connector-curvature="0"
       id="path973"
       transform="matrix(1.0416667,0,0,1.0357143,-9.958333,-3.321534)"
       d="M 46.039997,36.034483 46.080819,121 H 84.172 c 0.53,0 1.039,-0.211 1.414,-0.586 L 118.414,87.586 C 118.789,87.211 119,86.702 119,86.172 V 36.034483 Z" />
    <path
       sodipodi:nodetypes="cccccscc"
       style="opacity:0.89589;filter:url(#g)"
       inkscape:connector-curvature="0"
       id="path975"
       transform="matrix(1.0416667,0,0,1.0357143,-9.958333,-3.321534)"
       d="m 47.959996,37.965619 2e-6,81.103451 35.636002,-1e-4 c 0.53,0 1.039,-0.211 1.414,-0.586 l 31.484,-31.765936 c 0.375,-0.375 0.586,-0.884 0.586,-1.414 V 37.965619 Z" />
    <path
       sodipodi:nodetypes="ccsssscc"
       style="opacity:0.30684904;filter:url(#f)"
       inkscape:connector-curvature="0"
       id="path977"
       transform="matrix(1.0416667,0,0,1.0357143,-9.958333,-3.321534)"
       d="m 46.039997,37 0.04082,84 H 84.172 c 0.53,0 1.039,-0.211 1.414,-0.586 L 118.414,87.586 C 118.789,87.211 119,86.702 119,86.172 V 37 Z" />
    <path
       sodipodi:nodetypes="ccsssscc"
       style="fill:url(#radialGradient995)"
       inkscape:connector-curvature="0"
       id="path979"
       d="m 40,36 2e-6,84 h 37.172 c 0.53,0 1.039,-0.211 1.414,-0.586 L 111.414,86.586 C 111.789,86.211 112,85.702 112,85.172 V 36 Z" />
    <path
       sodipodi:nodetypes="cccssccsscc"
       style="fill:url(#radialGradient997)"
       inkscape:connector-curvature="0"
       id="path981"
       d="M 43.678723,38.7 C 43.139447,38.7 42.7,39.140836 42.7,39.681818 l -0.699998,77.336362 c 0,0.54197 0.439447,0.98182 0.978723,0.98182 h 33.913022 c 0.257404,0 0.509915,-0.10407 0.691957,-0.28767 L 109.71323,85.4812 C 109.89626,85.2976 110,85.045273 110,84.787055 V 38.981818 C 110,38.440836 109.56153,38 109.02128,38 Z" />
    <g
       id="g991"
       transform="translate(2e-6)">
      <path
         id="path983"
         d="M 111.414,86.586 C 111.664,86.336 85.035,85 80,85 c -1.654,0 -3,1.346 -3,3 0,5.035 1.336,31.664 1.586,31.414 z"
         style="opacity:0.1;fill:url(#linearGradient999);filter:url(#h)"
         inkscape:connector-curvature="0" />
      <path
         id="path985"
         d="M 111.414,86.586 C 111.789,86.211 89.444,86 80,86 c -1.103,0 -2,0.897 -2,2 0,9.444 0.211,31.789 0.586,31.414 z"
         inkscape:connector-curvature="0"
         style="opacity:0.2;filter:url(#j)" />
      <path
         id="path987"
         d="M 111.414,86.586 C 111.653,86.347 89.807,87 80,87 c -0.553,0 -1,0.447 -1,1 0,9.807 -0.653,31.653 -0.414,31.414 z"
         style="opacity:0.1;fill:url(#linearGradient1001);filter:url(#i)"
         inkscape:connector-curvature="0" />
      <path
         id="path989"
         d="m 78.586,119.414 c 0,0 11.914,-9.914 17.414,-15.414 5.5,-5.5 15.414,-17.414 15.414,-17.414 0,0 -21.164,1.414 -31.414,1.414 0,10.25 -1.414,31.414 -1.414,31.414 z"
         style="fill:url(#linearGradient1003)"
         inkscape:connector-curvature="0" />
    </g>
  </g>
  <g
     transform="matrix(0.25,0,0,0.25,1.0000006,-1.2666293e-7)"
     id="g156">
    <path
       d="M 46.039997,36.034483 46.080819,121 H 84.172 c 0.53,0 1.039,-0.211 1.414,-0.586 L 118.414,87.586 C 118.789,87.211 119,86.702 119,86.172 V 36.034483 Z"
       transform="matrix(1.0416667,0,0,1.0357143,-9.958333,-3.321534)"
       id="path120"
       inkscape:connector-curvature="0"
       style="opacity:0.30684904;filter:url(#f)"
       sodipodi:nodetypes="ccsssscc" />
    <path
       d="m 47.959996,37.965619 2e-6,81.103451 35.636002,-1e-4 c 0.53,0 1.039,-0.211 1.414,-0.586 l 31.484,-31.765936 c 0.375,-0.375 0.586,-0.884 0.586,-1.414 V 37.965619 Z"
       transform="matrix(1.0416667,0,0,1.0357143,-9.958333,-3.321534)"
       id="path122"
       inkscape:connector-curvature="0"
       style="opacity:0.89589;filter:url(#g)"
       sodipodi:nodetypes="cccccscc" />
    <path
       d="m 46.039997,37 0.04082,84 H 84.172 c 0.53,0 1.039,-0.211 1.414,-0.586 L 118.414,87.586 C 118.789,87.211 119,86.702 119,86.172 V 37 Z"
       transform="matrix(1.0416667,0,0,1.0357143,-9.958333,-3.321534)"
       id="path124"
       inkscape:connector-curvature="0"
       style="opacity:0.30684904;filter:url(#f)"
       sodipodi:nodetypes="ccsssscc" />
    <path
       d="m 40,36 2e-6,84 h 37.172 c 0.53,0 1.039,-0.211 1.414,-0.586 L 111.414,86.586 C 111.789,86.211 112,85.702 112,85.172 V 36 Z"
       id="path126"
       inkscape:connector-curvature="0"
       style="fill:url(#radialGradient1037)"
       sodipodi:nodetypes="ccsssscc" />
    <path
       d="M 43.678723,38.7 C 43.139447,38.7 42.7,39.140836 42.7,39.681818 l -0.699998,77.336362 c 0,0.54197 0.439447,0.98182 0.978723,0.98182 h 33.913022 c 0.257404,0 0.509915,-0.10407 0.691957,-0.28767 L 109.71323,85.4812 C 109.89626,85.2976 110,85.045273 110,84.787055 V 38.981818 C 110,38.440836 109.56153,38 109.02128,38 Z"
       id="path128"
       inkscape:connector-curvature="0"
       style="fill:url(#radialGradient1039)"
       sodipodi:nodetypes="cccssccsscc" />
    <g
       transform="translate(2e-6)"
       id="g154">
      <path
         d="M 111.414,86.586 C 111.664,86.336 85.035,85 80,85 c -1.654,0 -3,1.346 -3,3 0,5.035 1.336,31.664 1.586,31.414 z"
         id="path146"
         style="opacity:0.1;fill:url(#linearGradient1041);filter:url(#h)"
         inkscape:connector-curvature="0" />
      <path
         d="M 111.414,86.586 C 111.789,86.211 89.444,86 80,86 c -1.103,0 -2,0.897 -2,2 0,9.444 0.211,31.789 0.586,31.414 z"
         id="path148"
         inkscape:connector-curvature="0"
         style="opacity:0.2;filter:url(#j)" />
      <path
         d="M 111.414,86.586 C 111.653,86.347 89.807,87 80,87 c -0.553,0 -1,0.447 -1,1 0,9.807 -0.653,31.653 -0.414,31.414 z"
         id="path150"
         style="opacity:0.1;fill:url(#linearGradient1043);filter:url(#i)"
         inkscape:connector-curvature="0" />
      <path
         d="m 78.586,119.414 c 0,0 11.914,-9.914 17.414,-15.414 5.5,-5.5 15.414,-17.414 15.414,-17.414 0,0 -21.164,1.414 -31.414,1.414 0,10.25 -1.414,31.414 -1.414,31.414 z"
         id="path152"
         style="fill:url(#linearGradient1045)"
         inkscape:connector-curvature="0" />
    </g>
  </g>
</svg>
