<?xml version="1.0" encoding="UTF-8" standalone="no"?>
<svg
   xmlns:dc="http://purl.org/dc/elements/1.1/"
   xmlns:cc="http://creativecommons.org/ns#"
   xmlns:rdf="http://www.w3.org/1999/02/22-rdf-syntax-ns#"
   xmlns:svg="http://www.w3.org/2000/svg"
   xmlns="http://www.w3.org/2000/svg"
   xmlns:xlink="http://www.w3.org/1999/xlink"
   xmlns:sodipodi="http://sodipodi.sourceforge.net/DTD/sodipodi-0.dtd"
   xmlns:inkscape="http://www.inkscape.org/namespaces/inkscape"
   enable-background="new 0 0 121 120"
   height="32"
   viewBox="0 0 30.25 30"
   width="32"
   version="1.1"
   id="svg80"
   sodipodi:docname="yes.svg"
   inkscape:export-filename="/home/rizmut/Dokumen/Rizmut/Github/libreoffice-style-karasa-jaga/build/next/cmd/32/yes.png"
   inkscape:export-xdpi="96"
   inkscape:export-ydpi="96"
   inkscape:version="0.92.4 (unknown)">
  <metadata
     id="metadata86">
    <rdf:RDF>
      <cc:Work
         rdf:about="">
        <dc:format>image/svg+xml</dc:format>
        <dc:type
           rdf:resource="http://purl.org/dc/dcmitype/StillImage" />
        <dc:title></dc:title>
      </cc:Work>
    </rdf:RDF>
  </metadata>
  <defs
     id="defs84">
    <linearGradient
       gradientTransform="rotate(90,-90.0007,50.0022)"
       y2="-383.9971"
       x2="-12.0029"
       y1="-383.9971"
       x1="-84.002403"
       gradientUnits="userSpaceOnUse"
       id="linearGradient26907-8">
      <stop
         id="stop26909-4"
         style="stop-color:#b0d81d;stop-opacity:1;"
         offset="0" />
      <stop
         id="stop26911-3"
         style="stop-color:#50740e;stop-opacity:1;"
         offset="1" />
    </linearGradient>
    <radialGradient
       inkscape:collect="always"
       xlink:href="#linearGradient26907-8"
       id="radialGradient940"
       cx="-170.70689"
       cy="120.05368"
       fx="-170.70689"
       fy="120.05368"
       r="30.690229"
       gradientUnits="userSpaceOnUse"
       gradientTransform="matrix(0.99824555,0.05920991,-0.04439296,0.74843997,5.0300413,40.308247)" />
    <linearGradient
       id="linearGradient4117-1">
      <stop
         style="stop-color:#81c837;stop-opacity:1;"
         offset="0"
         id="stop4119-4" />
      <stop
         style="stop-color:#2a3d0c;stop-opacity:1;"
         offset="1"
         id="stop4121-9" />
    </linearGradient>
    <linearGradient
       inkscape:collect="always"
       xlink:href="#linearGradient4117-1"
       id="linearGradient979"
       x1="-184.98027"
       y1="45.768158"
       x2="-181.11258"
       y2="97.875252"
       gradientUnits="userSpaceOnUse" />
    <radialGradient
       id="f-3"
       cx="-166.53223"
       cy="65.938202"
       gradientTransform="matrix(1,0,0,0.6578174,0,22.562908)"
       gradientUnits="userSpaceOnUse"
       r="31.190229"
       xlink:href="#b" />
    <linearGradient
       id="linearGradient997">
      <stop
         offset="0"
         stop-color="#fff"
         id="stop7-6" />
      <stop
         offset="1"
         stop-color="#fff"
         stop-opacity="0"
         id="stop9-7" />
    </linearGradient>
    <clipPath
       id="e-5">
      <circle
         style="filter:url(#d-5)"
         cx="-166.53223"
         cy="93.331604"
         r="30.690229"
         id="circle18-3" />
    </clipPath>
    <filter
       id="d-5">
      <feGaussianBlur
         stdDeviation="1.9142018"
         id="feGaussianBlur15-6" />
    </filter>
    <radialGradient
       id="f-3-2"
       cx="-166.53223"
       cy="65.938202"
       gradientTransform="matrix(1,0,0,0.6578174,0,22.562908)"
       gradientUnits="userSpaceOnUse"
       r="31.190229"
       xlink:href="#linearGradient997" />
    <clipPath
       id="e-5-2">
      <circle
         style="filter:url(#d-5-0)"
         cx="-166.53223"
         cy="93.331604"
         r="30.690229"
         id="circle18-3-7" />
    </clipPath>
    <filter
       id="d-5-0">
      <feGaussianBlur
         stdDeviation="1.9142018"
         id="feGaussianBlur15-6-9" />
    </filter>
  </defs>
  <sodipodi:namedview
     pagecolor="#ffffff"
     bordercolor="#666666"
     borderopacity="1"
     objecttolerance="10"
     gridtolerance="10"
     guidetolerance="10"
     inkscape:pageopacity="0"
     inkscape:pageshadow="2"
     inkscape:window-width="1366"
     inkscape:window-height="714"
     id="namedview82"
     showgrid="false"
     inkscape:zoom="1.3037281"
     inkscape:cx="-39.081242"
     inkscape:cy="-35.182189"
     inkscape:window-x="0"
     inkscape:window-y="28"
     inkscape:window-maximized="1"
     inkscape:current-layer="g78" />
  <linearGradient
     id="a">
    <stop
       offset="0"
       stop-color="#00316e"
       id="stop2" />
    <stop
       offset="1"
       stop-color="#00316e"
       stop-opacity="0"
       id="stop4" />
  </linearGradient>
  <linearGradient
     id="b">
    <stop
       offset="0"
       stop-color="#fff"
       id="stop7" />
    <stop
       offset="1"
       stop-color="#fff"
       stop-opacity="0"
       id="stop9" />
  </linearGradient>
  <filter
     id="c">
    <feGaussianBlur
       stdDeviation=".55418773"
       id="feGaussianBlur12" />
  </filter>
  <filter
     id="d">
    <feGaussianBlur
       stdDeviation="1.9142018"
       id="feGaussianBlur15" />
  </filter>
  <clipPath
     id="e">
    <circle
       cx="-166.53223"
       cy="93.331604"
       filter="url(#d)"
       r="30.690229"
       id="circle18" />
  </clipPath>
  <radialGradient
     id="f"
     cx="-166.53223"
     cy="65.938202"
     gradientTransform="matrix(1 0 0 .6578174 0 22.562908)"
     gradientUnits="userSpaceOnUse"
     r="31.190229"
     xlink:href="#b" />
  <radialGradient
     id="g"
     cx="-166.53223"
     cy="65.938202"
     gradientTransform="matrix(.5375647 0 0 .6578174 -77.010381 22.562908)"
     gradientUnits="userSpaceOnUse"
     r="31.190229">
    <stop
       offset="0"
       stop-color="#00c4cc"
       id="stop22" />
    <stop
       offset="1"
       stop-color="#fff"
       stop-opacity="0"
       id="stop24" />
  </radialGradient>
  <radialGradient
     id="h"
     cx="-166.53223"
     cy="84.275475"
     gradientTransform="rotate(90,-90.0007,50.0022)"
     gradientUnits="userSpaceOnUse"
     r="31.190229"
     xlink:href="#linearGradient4117-1">
    <stop
       offset="0"
       stop-color="#0081ec"
       id="stop27" />
    <stop
       offset="1"
       stop-color="#003871"
       id="stop29" />
  </radialGradient>
  <radialGradient
     id="i"
     cx="-166.53223"
     cy="116.62209"
     gradientTransform="rotate(90,-90.0007,50.0022)"
     gradientUnits="userSpaceOnUse"
     r="31.190229"
     fx="-166.53223"
     fy="116.62209"
     fr="0"
     spreadMethod="pad">
    <stop
       offset="0"
       stop-color="#0081ec"
       id="stop32" />
    <stop
       offset="1"
       stop-color="#004c98"
       id="stop34" />
  </radialGradient>
  <linearGradient
     id="j"
     gradientUnits="userSpaceOnUse"
     x1="55.862407"
     x2="57.005705"
     xlink:href="#b"
     y1="10.817883"
     y2="50.319413" />
  <linearGradient
     id="k"
     gradientUnits="userSpaceOnUse"
     x1="55.862407"
     x2="55.862407"
     xlink:href="#b"
     y1="-101.13454"
     y2="72.673974" />
  <linearGradient
     id="l"
     gradientUnits="userSpaceOnUse"
     x1="94.799639"
     x2="94.799639"
     y1="10.792293"
     y2="99.466079">
    <stop
       offset="0"
       stop-color="#a4c0e4"
       id="stop39"
       style="stop-color:#d8e4a4;stop-opacity:1" />
    <stop
       offset="1"
       stop-color="#a4c0e4"
       stop-opacity="0"
       id="stop41"
       style="stop-color:#d4e4a4;stop-opacity:0" />
  </linearGradient>
  <filter
     id="m">
    <feGaussianBlur
       stdDeviation=".61380459"
       id="feGaussianBlur44" />
  </filter>
  <linearGradient
     id="n"
     gradientUnits="userSpaceOnUse"
     x1="-175.8602"
     x2="-174.98068"
     xlink:href="#a"
     y1="125.05635"
     y2="67.385735" />
  <radialGradient
     id="o"
     cx="61.882538"
     cy="66.868767"
     gradientTransform="matrix(1,0,0,0.76333329,0,15.825611)"
     gradientUnits="userSpaceOnUse"
     r="34.853588"
     xlink:href="#a" />
  <filter
     id="p"
     color-interpolation-filters="sRGB"
     height="1.111158"
     width="1.08448"
     x="-.04224"
     y="-.055579">
    <feGaussianBlur
       stdDeviation="1.21"
       id="feGaussianBlur49" />
  </filter>
  <g
     transform="matrix(.25 0 0 .25 .000002 0)"
     id="g78">
    <circle
       cx="-166.53223"
       cy="93.331604"
       fill="url(#n)"
       filter="url(#m)"
       r="30.690229"
       transform="matrix(-1.7332269 0 0 1.7332269 -228.13814 -101.76485)"
       id="circle52" />
    <circle
       cx="-166.53223"
       cy="93.331604"
       fill="url(#f)"
       filter="url(#d)"
       r="30.690229"
       transform="matrix(-1.7332269 0 0 1.7332269 -228.13814 -101.76485)"
       id="circle54" />
    <circle
       clip-path="url(#e)"
       cx="-166.53223"
       cy="93.331604"
       fill="url(#g)"
       filter="url(#d)"
       r="30.690229"
       transform="matrix(-1.7208092 0 0 -1.7208092 -226.07019 220.60588)"
       id="circle56" />
    <circle
       cx="-166.53223"
       cy="93.331604"
       fill="url(#h)"
       r="30.690229"
       transform="matrix(-1.7208092 0 0 1.7208092 -226.07019 -100.60589)"
       id="circle58"
       style="fill-opacity:1;fill:url(#linearGradient979)" />
    <circle
       style="fill:url(#f-3-2);filter:url(#d-5-0)"
       clip-path="url(#e-5-2)"
       cx="-166.53223"
       cy="93.331604"
       r="30.690229"
       transform="matrix(-1.7208092,0,0,1.7208092,-226.07019,-100.60589)"
       id="circle60" />
    <circle
       cx="-166.53223"
       cy="93.331604"
       fill="url(#i)"
       r="30.690229"
       transform="matrix(-1.5965972 0 0 1.5965972 -205.38489 -89.237223)"
       id="circle62"
       style="fill-opacity:1;fill:url(#radialGradient940)" />
    <path
       d="m60.495147 10.793348c-27.047973 0-48.979325 21.931365-48.979325 48.979332 0 2.518056.159743 5.009786.526661 7.425899.0026.01697-.0026.03569 0 .05267 10.298567 1.647223 21.265668 2.475302 32.652871 2.475302 24.327728 0 46.783563-4.065224 64.779116-10.901855-.50596-26.61086-22.248191-48.03134-48.979323-48.031344z"
       fill="url(#l)"
       opacity=".892193"
       id="path64" />
    <path
       d="m-134.09375 98.625c-.003.166656-.0312.332675-.0312.5 0 16.04925 13.0445 29.0625 29.09375 29.0625 16.049249 0 29.062503-13.01325 29.0625-29.0625 0-.167107.0028-.33356 0-.5-.267346 15.81875-13.180358 28.5625-29.0625 28.5625-15.88193 0-28.79481-12.74404-29.0625-28.5625z"
       fill="#007fea"
       filter="url(#c)"
       transform="matrix(-1.6853103 0 0 1.6853103 -116.5417 -106.76838)"
       id="path66"
       style="fill:#a8d01c;fill-opacity:1" />
    <path
       d="m60.465731 10.828158c-27.047955 0-48.979323 21.931368-48.979323 48.979341 0 .24806-.0032.489808 0 .737316.505496-26.610383 22.248191-48.031351 48.979323-48.031334 26.162666 0 47.554629 20.524341 48.926669 46.346027.0152-.0058.0374.0058.0527 0-.50599-26.610863-22.248237-48.031332-48.979369-48.03135z"
       fill="url(#k)"
       id="path68" />
    <path
       d="m60.465731 10.828158c-27.047955 0-48.979323 21.931368-48.979323 48.979341 0 .24806-.0032.489808 0 .737316.505496-26.610383 22.248191-48.705476 48.979323-48.705458 26.162666 0 47.554629 21.198465 48.926669 47.020151.0152-.0058.0374.0058.0527 0-.50599-26.610863-22.248237-48.031332-48.979369-48.03135z"
       fill="url(#j)"
       opacity=".8"
       id="path70" />
    <g
       transform="matrix(0.91666436,0,0,0.91666436,2.520961,1.218974)"
       id="g76"
       style="fill:#eeeeee">
      <path
         d="m 37.124916,54.499929 -11,13.75 28.875073,24.750062 45.375111,-45.375114 -10.999998,-11 -34.375113,34.37512 z"
         id="path72"
         inkscape:connector-curvature="0" />
      <path
         d="m 37.124916,54.499929 -11,13.75 28.875073,24.750062 45.375111,-45.375114 -10.999998,-11 -34.375113,34.37512 z"
         id="path74"
         style="opacity:0.5;stroke:url(#o);stroke-width:0.6875;filter:url(#p)"
         inkscape:connector-curvature="0" />
    </g>
  </g>
</svg>
