<svg height="128" width="128" xmlns="http://www.w3.org/2000/svg" xmlns:xlink="http://www.w3.org/1999/xlink"><linearGradient id="a"><stop offset="0" stop-color="#cbcbcd"/><stop offset=".5" stop-color="#e0e0e2"/><stop offset="1" stop-color="#fff"/></linearGradient><filter id="b"><feGaussianBlur stdDeviation="2.4"/></filter><linearGradient id="c" gradientTransform="matrix(.1133598 0 0 .1691546 80.271448 159.92147)" gradientUnits="userSpaceOnUse" x1="399.77466" x2="399.77466" xlink:href="#a" y1="681.00012" y2="549.33234"/><linearGradient id="d" gradientUnits="userSpaceOnUse" x1="143.628653" x2="143.628653" xlink:href="#a" y1="268.876101" y2="252.876101"/><g transform="translate(-79.62865 -236.8761)"><path d="m91.480617 232.8761h104.296063c1.02599 0 7.85197 7.40364 7.85197 8.61484v100.62746c0 1.21119-.82598 2.18627-1.85197 2.18627h-116.296063c-1.025991 0-1.85197-.97508-1.85197-2.18627v-100.62746c0-1.2112 6.825979-8.61484 7.85197-8.61484z" filter="url(#b)" opacity=".5" transform="matrix(1 0 0 .9333333 .000003 31.525086)"/><path d="m127.09452-1.378991v-2.744803z" fill="#fff" fill-opacity=".756881"/><path d="m-3.5199651 6.004538v-2.744801z" fill="#fff" fill-opacity=".756881"/><path d="m-157.72449-62.387047v-2.744801z" fill="#fff" fill-opacity=".756881"/><path d="m-275.09267-147.47029v-2.74481z" fill="#fff" fill-opacity=".756881"/><path d="m-32.904785-82.88925v-2.7448z" fill="#fff" fill-opacity=".756881"/><path d="m-123.87519-10.315129v-1.499471z" fill="#fff" fill-opacity=".756881"/><path d="m-370.93212-164.84903v-2.74481z" fill="#fff" fill-opacity=".756881"/><path d="m134.39748 159.99333v-2.7448z" fill="#fff" fill-opacity=".756881"/><path d="m-19.807041 91.601739v-2.744814z" fill="#fff" fill-opacity=".756881"/><path d="m-137.17523 6.518495v-2.744815z" fill="#fff" fill-opacity=".756881"/><path d="m105.01266 71.099525v-2.7448z" fill="#fff" fill-opacity=".756881"/><path d="m14.042254 143.67365v-1.49947z" fill="#fff" fill-opacity=".756881"/><path d="m-233.01467-10.860247v-2.744803z" fill="#fff" fill-opacity=".756881"/><path d="m85.781427 108.92191v-2.7448z" fill="#fff" fill-opacity=".756881"/><path d="m-68.423094 40.530324v-2.7448z" fill="#fff" fill-opacity=".756881"/><path d="m-185.79129-44.552919v-2.744805z" fill="#fff" fill-opacity=".756881"/><path d="m56.396609 20.028124v-2.744801z" fill="#fff" fill-opacity=".756881"/><path d="m-34.573799 92.60224v-1.499472z" fill="#fff" fill-opacity=".756881"/><path d="m-281.63073-61.931657v-2.744803z" fill="#fff" fill-opacity=".756881"/><path d="m-294.55324 230.46206v-2.74482z" fill="#fff" fill-opacity=".756881"/><path d="m-448.75778 162.07046v-2.7448z" fill="#fff" fill-opacity=".756881"/><path d="m-566.12597 76.987211v-2.7448z" fill="#fff" fill-opacity=".756881"/><path d="m-323.93807 141.56825v-2.7448z" fill="#fff" fill-opacity=".756881"/><path d="m-414.90848 214.14239v-1.49949z" fill="#fff" fill-opacity=".756881"/><path d="m-661.96541 59.608482v-2.744815z" fill="#fff" fill-opacity=".756881"/><path d="m-46.668198 403.70423v-2.7448z" fill="#fff" fill-opacity=".756881"/><path d="m-200.87271 335.31263v-2.7448z" fill="#fff" fill-opacity=".756881"/><path d="m-318.2409 250.22939v-2.7448z" fill="#fff" fill-opacity=".756881"/><path d="m-76.053015 314.81043v-2.7448z" fill="#fff" fill-opacity=".756881"/><path d="m-167.02342 387.38456v-1.49949z" fill="#fff" fill-opacity=".756881"/><path d="m-414.08035 232.85066v-2.74482z" fill="#fff" fill-opacity=".756881"/><path d="m-145.52043 174.31147v-2.74481z" fill="#fff" fill-opacity=".756881"/><path d="m-299.72496 105.91987v-2.7448z" fill="#fff" fill-opacity=".756881"/><path d="m-417.09315 20.836638v-2.744814z" fill="#fff" fill-opacity=".756881"/><path d="m-174.90526 85.417668v-2.7448z" fill="#fff" fill-opacity=".756881"/><path d="m-265.87566 157.9918v-1.49949z" fill="#fff" fill-opacity=".756881"/><path d="m-512.93259 3.457895v-2.7448z" fill="#fff" fill-opacity=".756881"/><rect fill="url(#d)" height="40" rx="6.45639" ry="8.000001" width="112" x="87.628647" y="252.8761"/><path d="m87.62865 284.8761h112v64h-112z" fill="url(#c)"/><g fill="#fff"><path d="m-143.54882 173.40321v-2.74481z" fill-opacity=".756881"/><path d="m-297.75334 105.01161v-2.7448z" fill-opacity=".756881"/><path d="m-415.12153 19.928366v-2.7448z" fill-opacity=".756881"/><path d="m-172.93364 84.509411v-2.7448z" fill-opacity=".756881"/><path d="m-263.90404 157.08354v-1.49948z" fill-opacity=".756881"/><path d="m-510.96098 2.549632v-2.744803z" fill-opacity=".756881"/><path d="m150.52834 121.12275v-2.7448z" fill-opacity=".756881"/><path d="m19.913855 128.5063v-2.74482z" fill-opacity=".756881"/><path d="m-134.29067 60.114696v-2.7448z" fill-opacity=".756881"/><path d="m-251.65886-24.968537v-2.744813z" fill-opacity=".756881"/><path d="m-9.470964 39.612495v-2.7448z" fill-opacity=".756881"/><path d="m-100.44137 112.18663v-1.49948z" fill-opacity=".756881"/><path d="m-347.4983-42.347284v-2.744803z" fill-opacity=".756881"/><path d="m157.83131 274.49507v-2.7448z" fill-opacity=".756881"/><path d="m3.6267808 214.10347v-2.74478z" fill-opacity=".756881"/><path d="m-113.74141 129.02024v-2.7448z" fill-opacity=".756881"/><path d="m128.44648 193.60127v-2.74479z" fill-opacity=".756881"/><path d="m37.476076 266.1754v-1.49947z" fill-opacity=".756881"/><path d="m-209.58086 111.6415v-2.7448z" fill-opacity=".756881"/><path d="m-206.82354-122.97944v-3.72627z" fill-opacity=".756881"/><path d="m-384.14266-112.95572v-3.72628z" fill-opacity=".756881"/><path d="m-593.48705-205.80252v-3.72628z" fill-opacity=".756881"/><path d="m-752.82333-321.3095v-3.7263z" fill-opacity=".756881"/><path d="m-424.03479-233.63583v-3.72628z" fill-opacity=".756881"/><path d="m-547.53406-135.11092v-2.03565z" fill-opacity=".756881"/><path d="m-882.93269-344.90247v-3.72629z" fill-opacity=".756881"/><path d="m-196.9092 96.095797v-3.726272z" fill-opacity=".756881"/><path d="m-406.2536 3.24899v-3.726278z" fill-opacity=".756881"/><path d="m-565.58987-112.258v-3.72628z" fill-opacity=".756881"/><path d="m-236.80134-24.584316v-3.726279z" fill-opacity=".756881"/><path d="m-360.3006 73.940596v-2.035643z" fill-opacity=".756881"/><path d="m-695.69923-135.85096v-3.72628z" fill-opacity=".756881"/><path d="m-262.9092 26.762467v-3.726286z" fill-opacity=".756881"/><path d="m-472.25361-66.084343v-3.726278z" fill-opacity=".756881"/><path d="m-631.58987-181.59134v-3.72628z" fill-opacity=".756881"/><path d="m-302.80133-93.91765v-3.72628z" fill-opacity=".756881"/><path d="m-426.3006 4.607256v-2.035647z" fill-opacity=".756881"/><path d="m-761.69923-205.1843v-3.72628z" fill-opacity=".756881"/><path d="m-779.24254 191.76247v-3.72629z" fill-opacity=".756881"/><path d="m-988.58693 98.91567v-3.726288z" fill-opacity=".756881"/><path d="m-1147.9232-16.591337v-3.726279z" fill-opacity=".756881"/><path d="m-819.13467 71.082368v-3.726286z" fill-opacity=".756881"/><path d="m-942.63393 169.60727v-2.03566z" fill-opacity=".756881"/><path d="m-1278.0326-40.184296v-3.72628z" fill-opacity=".756881"/><path d="m-442.71968 426.95193v-3.72627z" fill-opacity=".756881"/><path d="m-652.06407 334.10512v-3.72626z" fill-opacity=".756881"/><path d="m-811.40034 218.59813v-3.72627z" fill-opacity=".756881"/><path d="m-482.61181 306.27183v-3.72629z" fill-opacity=".756881"/><path d="m-606.11107 404.79673v-2.03565z" fill-opacity=".756881"/><path d="m-941.5097 195.00517v-3.72627z" fill-opacity=".756881"/><path d="m-576.91912 115.53377v-3.72629z" fill-opacity=".756881"/><path d="m-786.26353 22.686967v-3.726286z" fill-opacity=".756881"/><path d="m-945.59979-92.82003v-3.72628z" fill-opacity=".756881"/><path d="m-616.81125-5.146348v-3.726279z" fill-opacity=".756881"/><path d="m-740.31053 93.378568v-2.035657z" fill-opacity=".756881"/><path d="m-1075.7091-116.41299v-3.72628z" fill-opacity=".756881"/><path d="m-574.24251 114.30074v-3.72629z" fill-opacity=".756881"/><path d="m-783.58691 21.453924v-3.726279z" fill-opacity=".756881"/><path d="m-942.92317-94.05307v-3.72628z" fill-opacity=".756881"/><path d="m-614.13465-6.379383v-3.726278z" fill-opacity=".756881"/><path d="m-737.63391 92.14554v-2.035658z" fill-opacity=".756881"/><path d="m-1073.0325-117.64603v-3.72628z" fill-opacity=".756881"/><path d="m-175.01034 43.326038v-12.164228 8.437943z" fill-opacity=".756881"/><path d="m-352.32946 53.349753v-3.726286z" fill-opacity=".756881"/><path d="m-561.67387-39.497056v-3.726279z" fill-opacity=".756881"/><path d="m-721.01013-155.00404v-3.7263z" fill-opacity=".756881"/><path d="m-392.22159-67.330363v-3.72628z" fill-opacity=".756881"/><path d="m-515.72085 31.194552v-2.035657z" fill-opacity=".756881"/><path d="m-851.11949-178.59702v-3.72628z" fill-opacity=".756881"/><path d="m-165.09601 262.40127v-3.72628z" fill-opacity=".756881"/><path d="m-374.4404 169.55446v-3.72628z" fill-opacity=".756881"/><path d="m-533.77668 54.047467v-3.726271z" fill-opacity=".756881"/><path d="m-204.98814 141.72115v-3.72627z" fill-opacity=".756881"/><path d="m-328.4874 240.24607v-2.03566z" fill-opacity=".756881"/><path d="m-663.88602 30.45451v-3.726286z" fill-opacity=".756881"/><path d="m87.628653 284.8761h111.999997v64h-111.999997z"/></g><ellipse cx="-248.22359" cy="269.24872" fill="none" rx="37.090855" ry="37.090832" stroke-width="1.030301" transform="matrix(-.96592587 -.25881889 -.25881914 .9659258 0 0)"/><path d="m151.62865 332.8761v-40l-13.19238 23.35009-29.19241-29.19239-3.45756 3.45757 29.19241 29.19238-23.35006 13.19235z" fill="#06f"/></g></svg>