<?xml version="1.0" encoding="UTF-8" standalone="no"?>
<svg
   xmlns:dc="http://purl.org/dc/elements/1.1/"
   xmlns:cc="http://creativecommons.org/ns#"
   xmlns:rdf="http://www.w3.org/1999/02/22-rdf-syntax-ns#"
   xmlns:svg="http://www.w3.org/2000/svg"
   xmlns="http://www.w3.org/2000/svg"
   xmlns:xlink="http://www.w3.org/1999/xlink"
   xmlns:sodipodi="http://sodipodi.sourceforge.net/DTD/sodipodi-0.dtd"
   xmlns:inkscape="http://www.inkscape.org/namespaces/inkscape"
   height="128"
   viewBox="0 0 33.866666 33.866668"
   width="128"
   version="1.1"
   id="svg20"
   sodipodi:docname="autosum.svg"
   inkscape:version="0.92.3 (unknown)"
   inkscape:export-filename="/home/rizmut/Dokumen/Rizmut/Github/libreoffice-style-karasa-jaga/build/images_karasa_jaga/cmd/32/autosum.png"
   inkscape:export-xdpi="24"
   inkscape:export-ydpi="24">
  <metadata
     id="metadata26">
    <rdf:RDF>
      <cc:Work
         rdf:about="">
        <dc:format>image/svg+xml</dc:format>
        <dc:type
           rdf:resource="http://purl.org/dc/dcmitype/StillImage" />
        <dc:title></dc:title>
      </cc:Work>
    </rdf:RDF>
  </metadata>
  <defs
     id="defs24">
    <linearGradient
       inkscape:collect="always"
       xlink:href="#b"
       id="linearGradient851"
       x1="57.83276"
       y1="3.4458096"
       x2="80.163864"
       y2="83.445808"
       gradientUnits="userSpaceOnUse" />
  </defs>
  <sodipodi:namedview
     pagecolor="#ffffff"
     bordercolor="#666666"
     borderopacity="1"
     objecttolerance="10"
     gridtolerance="10"
     guidetolerance="10"
     inkscape:pageopacity="0"
     inkscape:pageshadow="2"
     inkscape:window-width="1366"
     inkscape:window-height="706"
     id="namedview22"
     showgrid="false"
     inkscape:zoom="1.84375"
     inkscape:cx="47.988297"
     inkscape:cy="82.208248"
     inkscape:window-x="0"
     inkscape:window-y="0"
     inkscape:window-maximized="1"
     inkscape:current-layer="svg20" />
  <linearGradient
     id="a"
     gradientUnits="userSpaceOnUse"
     x1="18.708686"
     x2="19.767019"
     y1="292.76666"
     y2="268.42499"
     gradientTransform="translate(-0.18520837,-263.37408)">
    <stop
       offset="0"
       stop-color="#555"
       id="stop2" />
    <stop
       offset="1"
       id="stop4" />
  </linearGradient>
  <linearGradient
     id="b"
     gradientUnits="userSpaceOnUse"
     x1="44.923828"
     x2="44.566963"
     y1="7.581612"
     y2="97.581612"
     gradientTransform="scale(0.26458333)">
    <stop
       offset="0"
       stop-color="#3b3e22"
       id="stop7" />
    <stop
       offset="1"
       stop-color="#454545"
       stop-opacity="0"
       id="stop9" />
  </linearGradient>
  <text
     id="text14"
     y="29.175604"
     x="6.2282915"
     style="font-size:35.19966888px;font-family:sans-serif;letter-spacing:0;word-spacing:0;fill:url(#a);stroke-width:0.87999201">
    <tspan
       style="font-style:normal;font-variant:normal;font-weight:normal;font-stretch:normal;font-size:37.04166794px;font-family:FreeSerif;-inkscape-font-specification:FreeSerif;fill:url(#a);stroke-width:0.87999201"
       id="tspan12"
       y="29.175604"
       x="6.2282915"
       font-weight="bold"
       font-size="37.041668">Σ</tspan>
  </text>
  <path
     style="font-size:35.19966888px;font-family:sans-serif;letter-spacing:0;word-spacing:0;fill:url(#linearGradient851);stroke-width:3.32595396;fill-opacity:1"
     d="M 28.273438 18.705078 L 72.806641 63.099609 A 0.97275722 0.97275722 0 0 1 72.806641 64.472656 L 62.855469 74.423828 A 98.947008 46.021865 0 0 0 70.578125 72.726562 L 82.625 60.722656 C 81.879775 59.999039 80.619122 58.799295 78.033203 56.375 A 0.97275722 0.97275722 0 0 1 78.011719 56.353516 C 75.122686 53.464486 72.088664 50.491501 68.917969 47.414062 A 0.97275722 0.97275722 0 0 1 68.910156 47.398438 C 65.739681 44.227958 62.477462 41.007275 59.121094 37.744141 A 0.97275722 0.97275722 0 0 1 59.107422 37.728516 C 55.839642 34.367373 53.127566 31.562802 50.978516 29.320312 A 0.97275722 0.97275722 0 0 1 50.964844 29.306641 C 49.882682 28.130378 49.069266 27.197213 48.505859 26.486328 C 48.22416 26.130885 48.001183 25.833712 47.833984 25.564453 C 47.666786 25.295194 47.488281 25.148593 47.488281 24.589844 C 47.488281 23.461493 48.115112 22.404516 49.103516 21.849609 C 50.091915 21.294703 51.359144 21.097656 52.943359 21.097656 L 75.900391 21.097656 C 82.261354 21.097657 87.932507 23.094734 92.761719 27.054688 C 97.366914 30.830947 100.06731 35.735207 100.91016 41.537109 L 101.31641 41.537109 L 99.773438 18.705078 L 28.273438 18.705078 z "
     transform="scale(0.26458334)"
     id="text838" />
</svg>
