<svg height="128" width="128" xmlns="http://www.w3.org/2000/svg" xmlns:xlink="http://www.w3.org/1999/xlink"><linearGradient id="a"><stop offset="0"/><stop offset="1" stop-opacity="0"/></linearGradient><linearGradient id="b"><stop offset="0" stop-color="#fff"/><stop offset="1" stop-color="#fff" stop-opacity="0"/></linearGradient><linearGradient id="c"><stop offset="0" stop-color="#fff" stop-opacity=".537906"/><stop offset=".21464799" stop-color="#fff"/><stop offset=".66342056" stop-color="#fff" stop-opacity=".415162"/><stop offset="1" stop-color="#fff" stop-opacity="0"/></linearGradient><radialGradient id="d" cx="63.912209" cy="115.70919" fy="115.7093" gradientTransform="matrix(1 0 0 .197802 0 92.82166)" gradientUnits="userSpaceOnUse" r="63.912209" xlink:href="#a"/><radialGradient id="e" cx="63.816387" cy="120.57538" gradientTransform="matrix(1 0 0 .289157 0 85.71021)" gradientUnits="userSpaceOnUse" r="14.672465"><stop offset="0"/><stop offset=".5714286"/><stop offset="1" stop-opacity="0"/></radialGradient><linearGradient id="f" gradientTransform="matrix(.9384891 0 0 .9797769 5.360263 -.11023)" gradientUnits="userSpaceOnUse" x1="48.648247" x2="63.212357" xlink:href="#a" y1="123.09119" y2="60.341194"/><linearGradient id="g" gradientTransform="matrix(.8342942 0 0 .6237166 10.813747 4.972114)" gradientUnits="userSpaceOnUse" x1="27.080584" x2="59.768688" xlink:href="#b" y1="-14.285192" y2="17.40625"/><linearGradient id="h" gradientTransform="matrix(.8332988 -.04074194 .0435632 .8910022 10.908193 1.296071)" gradientUnits="userSpaceOnUse" x1="26.516504" x2="67.55307" xlink:href="#b" y1="6.289245" y2="6.289245"/><linearGradient id="i" gradientTransform="matrix(.8342942 0 0 1.0210988 10.813747 -1.944822)" gradientUnits="userSpaceOnUse" x1="55.875" x2="70.71875" xlink:href="#c" y1="91.296875" y2="91.296875"/><radialGradient id="j" cx="63.462833" cy="66.417244" gradientTransform="matrix(.9021317 0 0 .2520869 6.569572 47.48181)" gradientUnits="userSpaceOnUse" r="13.788582" xlink:href="#a"/><radialGradient id="k" cx="52.715279" cy="41.561275" gradientTransform="matrix(1.6417463 -.8079979 1.3565327 2.8660381 -96.448304 -52.309632)" gradientUnits="userSpaceOnUse" r="15.995545" xlink:href="#c"/><radialGradient id="l" cx="63.462833" cy="66.417244" gradientTransform="matrix(.9021317 0 0 .1440028 6.569572 54.660582)" gradientUnits="userSpaceOnUse" r="13.788582" xlink:href="#a"/><radialGradient id="m" cx="51.78791" cy="41.299831" gradientTransform="matrix(1.6417463 -.8125119 1.3565327 2.88205 -96.448304 -52.949828)" gradientUnits="userSpaceOnUse" r="15.995545" xlink:href="#c"/><linearGradient id="n" gradientTransform="matrix(.8342942 0 0 1.0210978 10.813748 -1.944821)" gradientUnits="userSpaceOnUse" spreadMethod="reflect" x1="55.826965" x2="121.36113" y1="61.3554" y2="52.6054"><stop offset="0" stop-color="#bdbdbd"/><stop offset="1" stop-color="#bdbdbd" stop-opacity="0"/></linearGradient><linearGradient id="o" gradientTransform="matrix(.8342942 0 0 .8975001 10.813747 5.940948)" gradientUnits="userSpaceOnUse" x1="94.42218" x2="100.78125" xlink:href="#a" y1="30.355696" y2="35.359375"/><radialGradient id="p" cx="57.214077" cy="124.00706" fx="49.233025" fy="124.00705" gradientTransform="matrix(.556928 -.00000003 0 .138799 37.13478 97.17706)" gradientUnits="userSpaceOnUse" r="11.383312" xlink:href="#b"/><path d="m127.82442 115.70919a63.912209 12.641975 0 1 1 -127.82442 0 63.912209 12.641975 0 1 1 127.82442 0z" fill="url(#d)" opacity=".381395" transform="matrix(.6102121 0 0 .416667 24.999997 74.520305)"/><path d="m78.488853 120.57538a14.672465 4.2426405 0 1 1 -29.344931 0 14.672465 4.2426405 0 1 1 29.344931 0z" fill="url(#e)" opacity=".413934" transform="matrix(.9702784 0 0 .9820563 2.080338 1.421678)"/><path d="m53.349575 3.2933654v-2.79415759z" fill="#fff" fill-opacity=".756881"/><path d="m102.76856 18.730326c-10.743867 15.154665-23.320525 29.317723-30.651309 44.47239l1.171186-.039665 35.685193-46.171632c-2.28657.97088-4.33545 1.51561-6.20507 1.738907z" fill="url(#o)" opacity=".42"/><path d="m64.07844.4721712c-26.48883 0-47.986141 5.2410524-47.986141 11.2462638 0 12.378012 37.304851 50.534456 37.304851 50.534456.15424.220906.33787.586613.32471 1.012938v54.463801c0 1.34296 1.8583 2.17807 9.16761 2.17807 7.15307 0 11.54554-.64365 11.54554-2.17807 0-.00854.00072-.02546 0-.03399l-.05511-54.429802c0-.25001.03393-.533963.15023-.746911 0 0 37.37801-38.768103 37.37801-51.267003 0-4.2571568-21.34088-10.7797527-47.8297-10.7797528z" style="stroke:#000;stroke-width:.184596;stroke-linecap:round;stroke-linejoin:round;stroke-dashoffset:4;fill:url(#n)"/><path d="m64.077815 9.398298c-19.533714 0-35.708795 3.958045-38.285978 9.08667 8.417987 3.30255 22.417904 5.515032 38.285978 5.515032 15.850743 0 29.839638-2.166048 38.260675-5.462505-2.527458-5.142725-18.69015-9.139197-38.260675-9.139197z"/><path d="m57.429913 63.660786v55.608734c1.785083.37543 4.003191.63818 6.648277.63818 2.20064 0 4.105219-.18266 5.735768-.44674v-55.800174c-4.128014.921909-8.25603 1.458575-12.384045 0z" fill="url(#i)" opacity=".614754"/><path d="m54.05364 62.480138c-.003267.022862-.023379.04079-.023379.063819 0 1.220585 4.615845 3.226439 10.309993 3.226439 5.694143 0 10.333367-2.005853 10.333371-3.226439 0-.022359-.020299-.041617-.02338-.063819-2.270886.514645-6.041741.829643-10.309991.829643-4.267242-.000001-8.015554-.315203-10.286614-.829643z" fill="url(#l)" opacity=".11"/><path d="m57.429913 63.807359-12.831081-39.807359c8.82615 1.007037 17.831686.599508 26.689963.160406l-1.474837 39.646953c-4.128014.772391-8.25603 1.222019-12.384045 0z" fill="url(#m)" opacity=".758197"/><path d="m54.05364 62.480138c-.003267.022862-.023379.04079-.023379.063819 0 1.220585 4.615845 2.414162 10.309993 2.414162 5.694143 0 10.333367-1.193576 10.333371-2.414162 0-.022359-.020299-.041617-.02338-.063819-2.270886.514645-6.107865 1.371162-10.376117 1.371162-4.267242-.000001-7.949428-.856722-10.220488-1.371162z" fill="url(#l)" opacity=".11"/><path d="m79.338449 112.83906a11.285211 1.4818963 0 1 1 -22.570422 0 11.285211 1.4818963 0 1 1 22.570422 0z" style="fill:none;stroke:#5b5b5b;stroke-width:.196203;stroke-linecap:round;stroke-linejoin:round;stroke-dashoffset:4" transform="matrix(4.2019807 0 0 7.7206883 -221.93924 -859.19522)"/><path d="m56.729366 63.68609-14.841989-39.68609c8.826152 1.001442 22.837449.808862 31.695727.3722l-3.21608 39.426685c-4.128018.7681-9.509643 1.102435-13.637658-.112795z" fill="url(#k)" opacity=".758197"/><path d="m79.338449 112.83906a11.285211 1.4818963 0 1 1 -22.570422 0 11.285211 1.4818963 0 1 1 22.570422 0z" style="fill:none;stroke-width:.137008;stroke-linecap:round;stroke-linejoin:round;stroke-dashoffset:4;stroke:url(#p)" transform="matrix(4.2043803 0 0 7.832456 -222.10254 -871.80695)"/><path d="m54.05364 62.480138c-.003267.022862-.023379.04079-.023379.063819 0 1.220585 4.648908 4.128971 10.343053 4.128971 5.694144 0 10.300307-2.908385 10.300311-4.128971 0-.022359-.020299-.041617-.02338-.063819-2.270886.514645-6.30624 1.596795-10.574491 1.596795-4.267244-.000001-7.751054-1.082355-10.022114-1.596795z" fill="url(#j)" opacity=".11"/><path d="m56.752048 63.49897.677865 55.77055c1.785083.37543 4.003191.63818 6.648277.63818 2.20064 0 4.105219-.18266 5.735768-.44674l.469291-55.800174c-4.128015.921909-9.403184 1.29676-13.531201-.161816z" fill="url(#i)" opacity=".614754"/><path d="m72.189405 63.195363h1.042865v55.645727l-1.07974.39388z" opacity=".213115"/><path d="m33.561894 4.0688722c5.152843-.9966745 10.276942-1.7833941 15.357326-2.2507631l.118128 7.0750915c-4.218239.2927382-7.930747 1.4689904-11.927639 2.2754524z" fill="url(#h)" opacity=".836066"/><path d="m45.279272 11.288602c-4.44982.186297-5.271609.256128-8.680632.583377 3.214297 1.364021 6.904683 2.48046 9.985452 3.664336 4.097528.166059 8.479256.248852 13.061913.292368-2.943282-1.466769-6.600453-5.154562-10.976177-5.699554-3.072748-.3827076-3.322993 1.188573-3.390556 1.159473z" fill="url(#g)" opacity=".836066"/><path d="m30.931641 77.591797a4.4198588 4.4198588 0 0 0 -4.25586 3.226562c-.388437 1.384863-.888173 2.140695-.978515 2.357422.366596-.312724-1.030982.393215-3.646485.726563a4.4198588 4.4198588 0 0 0 -3.861328 4.384765v2.804688a4.4198588 4.4198588 0 0 0 4.419922 4.419922h2.566406v18.052731a4.4198588 4.4198588 0 0 0 4.419922 4.41993h3.917969a4.4198588 4.4198588 0 0 0 4.419922-4.41993v-31.552731a4.4198588 4.4198588 0 0 0 -4.419922-4.419922zm32.548828 0c-4.165941 0-8.138735 1.253938-10.857422 4.113281s-3.849508 6.803083-3.972656 11.13086a4.4198588 4.4198588 0 0 0 4.417968 4.544921h3.916016a4.4198588 4.4198588 0 0 0 .0918-.0039c-2.631684 1.700376-4.870438 3.498277-6.335938 5.779297-1.839635 2.83218-2.596761 6.24132-2.798828 10.18164a4.4198588 4.4198588 0 0 0 4.414063 4.64649h21.005859a4.4198588 4.4198588 0 0 0 4.419922-4.41993v-3.87109a4.4198588 4.4198588 0 0 0 -4.419922-4.41992h-5.449219l1.095703-.5918a4.4198588 4.4198588 0 0 0 .01953-.0117c5.325899-2.9115 8.976562-7.809857 8.976562-13.400389 0-3.739373-1.505089-7.418655-4.230468-9.927734-2.734568-2.517538-6.44963-3.75-10.292969-3.75zm32.105469 0c-3.996405 0-7.822523 1.160493-10.470704 3.892578-2.64818 2.732085-3.736775 6.528674-3.826172 10.623047a4.4198588 4.4198588 0 0 0 4.417969 4.515625h3.322266v2.478515a4.4198588 4.4198588 0 0 0 .08984.884766 4.4198588 4.4198588 0 0 0 -.164063-.0078h-3.916016a4.4198588 4.4198588 0 0 0 -4.408203 4.728514c.28599 4.09323 1.561031 7.83592 4.277344 10.49414s6.537251 3.8086 10.544922 3.8086c4.037911 0 7.890915-1.22764 10.720705-3.83008 2.866-2.60964 4.3789-6.46965 4.3789-10.42578 0-2.61541-.53775-5.175247-2.0664-7.31641-.19544-.277404-.49205-.439399-.71094-.691406 1.13995-1.814333 1.84375-3.90969 1.84375-6.054688 0-3.634521-1.37529-7.246018-4.04297-9.644531-2.64923-2.40685-6.243371-3.455077-9.990232-3.455078zm-.982422 12.228515c-.165759.230184-.399818.03906 1.027343.03906.882371 0 .858991.108991.923829.173828a4.4198588 4.4198588 0 0 0 .0957.09375c.07271.06843.123046-.06876.123047.697266 0 .08682.01422.01794.01562.08008-.158277.03227-1.221465.183277-2.5.322265.115954-.497503.198707-1.234286.314454-1.40625zm-31.25586.03906c.846661 0 1.02192.10764 1.408203.474609.387207.367847.402344.36466.402344 1.023438 0 .858481-.05474 1.252751-2.046875 2.394531-.0012.000709-.000715.0012-.002.002l-2.205031 1.24605a4.4198588 4.4198588 0 0 0 .492187-1.777344c.114235-1.930574.58757-2.826803.775391-3.048828s.138923-.314453 1.175781-.314453zm32.246094 13.619148c1.519295.003 1.991291.342 1.984375.33593-.0069-.006.130859-.0895.130859.98438 0 1.10454-.171288 1.25707-.392578 1.47265-.211926.19877-.497983.42579-1.730468.42579-1.379304 0-1.597927-.26672-1.638672-.3086-.07146-.0734-.475136-.63115-.582032-2.27734a4.4198588 4.4198588 0 0 0 -.08594-.59571 4.4198588 4.4198588 0 0 0 .169922.006h.490234a4.4198588 4.4198588 0 0 0 .121094-.002z" fill="#fff" fill-opacity=".871324"/><path d="m53.730639 62.885731-.016396-.015309.161302 55.327158c.148106.6005.650298.68958 1.07974.88376.739628-22.806225-.504757-38.570056-1.224646-56.195609z" fill="url(#f)" opacity=".532787"/><text style="font-size:44.503113;font-family:sans-serif;letter-spacing:8;word-spacing:0;fill:#4d4d4d;stroke-width:1.112578" x="18.070223" y="113.5654"><tspan fill="#4d4d4d" font-family="FreeSans" letter-spacing="8" stroke-width="1.112578" x="18.070223" y="113.5654">123</tspan></text></svg>