<?xml version="1.0" encoding="UTF-8" standalone="no"?>
<svg
   xmlns:dc="http://purl.org/dc/elements/1.1/"
   xmlns:cc="http://creativecommons.org/ns#"
   xmlns:rdf="http://www.w3.org/1999/02/22-rdf-syntax-ns#"
   xmlns:svg="http://www.w3.org/2000/svg"
   xmlns="http://www.w3.org/2000/svg"
   xmlns:sodipodi="http://sodipodi.sourceforge.net/DTD/sodipodi-0.dtd"
   xmlns:inkscape="http://www.inkscape.org/namespaces/inkscape"
   height="128"
   width="128"
   version="1.1"
   id="svg59"
   sodipodi:docname="dbqueryrename.svg"
   inkscape:version="0.92.3 (unknown)">
  <metadata
     id="metadata65">
    <rdf:RDF>
      <cc:Work
         rdf:about="">
        <dc:format>image/svg+xml</dc:format>
        <dc:type
           rdf:resource="http://purl.org/dc/dcmitype/StillImage" />
      </cc:Work>
    </rdf:RDF>
  </metadata>
  <defs
     id="defs63" />
  <sodipodi:namedview
     pagecolor="#ffffff"
     bordercolor="#666666"
     borderopacity="1"
     objecttolerance="10"
     gridtolerance="10"
     guidetolerance="10"
     inkscape:pageopacity="0"
     inkscape:pageshadow="2"
     inkscape:window-width="1366"
     inkscape:window-height="699"
     id="namedview61"
     showgrid="false"
     inkscape:zoom="1.84375"
     inkscape:cx="-92.685148"
     inkscape:cy="61.573643"
     inkscape:window-x="0"
     inkscape:window-y="0"
     inkscape:window-maximized="1"
     inkscape:current-layer="svg59" />
  <filter
     id="a">
    <feGaussianBlur
       stdDeviation="1.177891"
       id="feGaussianBlur2" />
  </filter>
  <linearGradient
     id="b"
     gradientTransform="matrix(0.121457,0,0,0.1756605,115.56026,274.78433)"
     gradientUnits="userSpaceOnUse"
     x1="-333.0289"
     x2="-333.0289"
     y1="-1473.6504"
     y2="-776.61371">
    <stop
       offset="0"
       stop-color="#fff"
       id="stop5" />
    <stop
       offset=".49140647"
       stop-color="#fff"
       id="stop7" />
    <stop
       offset="1"
       stop-color="#dcdcdc"
       id="stop9" />
  </linearGradient>
  <linearGradient
     id="c"
     gradientTransform="matrix(0.121457,0,0,0.1756605,-3.882718,-80.52977)"
     gradientUnits="userSpaceOnUse"
     x1="399.77466"
     x2="399.77466"
     y1="727.07941"
     y2="480.60214">
    <stop
       offset="0"
       stop-color="#cbcbcd"
       id="stop12" />
    <stop
       offset=".5"
       stop-color="#e0e0e2"
       id="stop14" />
    <stop
       offset="1"
       stop-color="#f2f2f2"
       id="stop16" />
  </linearGradient>
  <path
     style="opacity:0.5;filter:url(#a)"
     inkscape:connector-curvature="0"
     id="path19"
     transform="matrix(1,0,0,0.9846487,-79.62865,-221.6029)"
     d="m 83.772,239.27611 h 119.71329 c 1.18742,0 2.14336,1.12849 2.14336,2.53025 v 100.56093 c 0,1.40175 -0.95594,2.53025 -2.14336,2.53025 H 83.772 c -1.187418,0 -2.143353,-1.1285 -2.143353,-2.53025 V 241.80636 c 0,-1.40176 0.955935,-2.53025 2.143353,-2.53025 z" />
  <path
     inkscape:connector-curvature="0"
     style="fill:url(#c)"
     id="path21"
     d="M 6.074209,16.00002 H 121.92576 c 1.14912,0 2.07421,1.09209 2.07421,2.44863 v 95.10272 c 0,1.35654 -0.92509,2.44863 -2.07421,2.44863 H 6.074209 c -1.149113,0 -2.074212,-1.09209 -2.074212,-2.44863 V 18.44865 c 0,-1.35654 0.925099,-2.44863 2.074212,-2.44863 z" />
  <path
     inkscape:connector-curvature="0"
     style="fill:url(#b)"
     id="path23"
     d="M 6.0625,16.00003 C 4.913386,16.00003 4,17.08099 4,18.43752 V 113.5625 C 4,114.91905 4.913386,116 6.0625,116 h 115.875 C 123.08663,116 124,114.91905 124,113.5625 V 18.43752 c 0,-1.35653 -0.91337,-2.43749 -2.0625,-2.43749 z m 1.40625,3.65625 h 113.0625 c 1.09166,0 1.96875,1.02406 1.96875,2.29688 v 90.24997 c 0,1.2728 -0.87709,2.29687 -1.96875,2.29687 H 7.46875 C 6.377093,114.5 5.5,113.47593 5.5,112.20313 V 21.95316 c 0,-1.27282 0.877093,-2.29688 1.96875,-2.29688 z" />
  <path
     style="fill:#ffffff"
     inkscape:connector-curvature="0"
     id="path25"
     d="m 4,52 h 120 v 64 H 4 Z" />
  <g
     style="fill:#bcbcbc"
     id="g43"
     transform="translate(-79.62865,-236.8761)">
    <rect
       id="rect27"
       y="336.875"
       x="91.624268"
       width="47.999458"
       ry="1.998696"
       rx="1.142843"
       height="3.9973919" />
    <rect
       id="rect29"
       y="324.87769"
       x="91.624268"
       width="47.999458"
       ry="2.0014579"
       rx="1.142843"
       height="4.0029159" />
    <rect
       id="rect31"
       y="312.86475"
       x="91.624268"
       width="47.999458"
       ry="2.0069821"
       rx="1.142843"
       height="4.0139651" />
    <rect
       id="rect33"
       y="300.86475"
       x="91.624268"
       width="47.999458"
       ry="2.0069821"
       rx="1.142843"
       height="4.0139651" />
    <rect
       id="rect35"
       y="336.875"
       x="147.62427"
       width="47.999458"
       ry="1.998696"
       rx="1.142843"
       height="3.9973919" />
    <rect
       id="rect37"
       y="324.87769"
       x="147.62427"
       width="47.999458"
       ry="2.0014579"
       rx="1.142843"
       height="4.0029159" />
    <rect
       id="rect39"
       y="312.86475"
       x="147.62427"
       width="47.999458"
       ry="2.0069821"
       rx="1.142843"
       height="4.0139651" />
    <rect
       id="rect41"
       y="300.86475"
       x="147.62427"
       width="47.999458"
       ry="2.0069821"
       rx="1.142843"
       height="4.0139651" />
  </g>
  <g
     id="g911">
    <path
       d="M 36,64 H 80 V 96 H 36 Z"
       id="path45"
       inkscape:connector-curvature="0"
       style="fill:#55acd1" />
    <text
       style="font-size:27.0153141px;font-family:sans-serif;letter-spacing:0;word-spacing:0;fill:#ffffff;stroke-width:1.57129502"
       x="41.107861"
       y="88.670715"
       id="text49">
      <tspan
         font-weight="500"
         x="41.107861"
         y="88.670715"
         id="tspan47"
         style="font-weight:500;font-family:Roboto;fill:#ffffff;stroke-width:1.57129502">AB</tspan>
    </text>
    <path
       d="m 84,56 h 4 v 50.55814 h -4 z"
       id="path51"
       inkscape:connector-curvature="0" />
    <path
       d="m 96.000005,56.000005 v 3.86485 h -20 v -3.86485 z"
       id="path53"
       inkscape:connector-curvature="0" />
    <path
       d="m 96.000005,104.00001 v 3.86485 h -20 v -3.86485 z"
       id="path55"
       inkscape:connector-curvature="0" />
  </g>
</svg>
