<?xml version="1.0" encoding="UTF-8" standalone="no"?>
<svg
   xmlns:dc="http://purl.org/dc/elements/1.1/"
   xmlns:cc="http://creativecommons.org/ns#"
   xmlns:rdf="http://www.w3.org/1999/02/22-rdf-syntax-ns#"
   xmlns:svg="http://www.w3.org/2000/svg"
   xmlns="http://www.w3.org/2000/svg"
   xmlns:xlink="http://www.w3.org/1999/xlink"
   xmlns:sodipodi="http://sodipodi.sourceforge.net/DTD/sodipodi-0.dtd"
   xmlns:inkscape="http://www.inkscape.org/namespaces/inkscape"
   enable-background="new 0 0 128 128"
   height="128"
   viewBox="0 0 186.18182 186.18182"
   width="128"
   version="1.1"
   id="svg95"
   sodipodi:docname="deleteslide.svg"
   inkscape:version="0.92.3 (unknown)"
   inkscape:export-filename="/home/rizmut/Dokumen/Rizmut/Github/libreoffice-style-karasa-jaga/build/images_karasa_Jaga/cmd/32/deleteslide.png"
   inkscape:export-xdpi="24"
   inkscape:export-ydpi="24">
  <metadata
     id="metadata101">
    <rdf:RDF>
      <cc:Work
         rdf:about="">
        <dc:format>image/svg+xml</dc:format>
        <dc:type
           rdf:resource="http://purl.org/dc/dcmitype/StillImage" />
        <dc:title></dc:title>
      </cc:Work>
    </rdf:RDF>
  </metadata>
  <defs
     id="defs99">
    <radialGradient
       id="h-2"
       cx="84.903702"
       cy="-130.14005"
       gradientTransform="rotate(-45,342.93203,-200.14073)"
       gradientUnits="userSpaceOnUse"
       r="57.039597"
       xlink:href="#i-8" />
    <linearGradient
       id="i-8">
      <stop
         offset="0"
         stop-color="#3a0b02"
         id="stop40-9" />
      <stop
         offset="1"
         stop-color="#a21d07"
         stop-opacity=".382353"
         id="stop42-6" />
    </linearGradient>
    <radialGradient
       id="j-0"
       cx="2.7207029"
       cy="-66.273438"
       gradientTransform="rotate(-45,342.93203,-200.14073)"
       gradientUnits="userSpaceOnUse"
       r="57.039597"
       xlink:href="#i-8" />
    <radialGradient
       id="k-2"
       cx="51.991096"
       cy="-78.028419"
       gradientTransform="rotate(-45,342.93203,-200.14073)"
       gradientUnits="userSpaceOnUse"
       r="57.039597"
       xlink:href="#i-8" />
    <linearGradient
       inkscape:collect="always"
       xlink:href="#d-2"
       id="linearGradient1797"
       gradientUnits="userSpaceOnUse"
       gradientTransform="scale(1.0975951,0.9110828)"
       x1="26.091133"
       y1="14.856744"
       x2="31.500689"
       y2="14.856744" />
    <linearGradient
       id="d-2"
       gradientTransform="scale(1.0975951,0.9110828)"
       gradientUnits="userSpaceOnUse"
       x1="26.091133"
       x2="31.500689"
       y1="14.856744"
       y2="14.856744">
      <stop
         offset="0"
         stop-color="#fff"
         id="stop19" />
      <stop
         offset="1"
         stop-color="#fff"
         stop-opacity="0"
         id="stop21" />
    </linearGradient>
    <filter
       id="l-6"
       height="1.277481"
       width="1.279832"
       x="-0.139916"
       y="-0.138741">
      <feGaussianBlur
         stdDeviation=".28784801"
         id="feGaussianBlur47" />
    </filter>
    <filter
       id="filter1861"
       height="1.277481"
       width="1.279832"
       x="-0.139916"
       y="-0.138741">
      <feGaussianBlur
         stdDeviation=".28784801"
         id="feGaussianBlur1859" />
    </filter>
    <linearGradient
       id="e-9"
       gradientUnits="userSpaceOnUse"
       x1="304.88663"
       x2="345.62039"
       y1="385.86127"
       y2="384.62384">
      <stop
         offset="0"
         stop-color="#765c44"
         id="stop24-9" />
      <stop
         offset="1"
         stop-color="#765c44"
         stop-opacity="0"
         id="stop26" />
    </linearGradient>
    <filter
       id="filter1868"
       height="1.277481"
       width="1.279832"
       x="-0.139916"
       y="-0.138741">
      <feGaussianBlur
         stdDeviation=".28784801"
         id="feGaussianBlur1866" />
    </filter>
    <linearGradient
       inkscape:collect="always"
       xlink:href="#f-7"
       id="linearGradient1799"
       gradientUnits="userSpaceOnUse"
       x1="88.606247"
       y1="13.510336"
       x2="91.575104"
       y2="13.510336"
       spreadMethod="reflect" />
    <linearGradient
       id="f-7"
       gradientUnits="userSpaceOnUse"
       spreadMethod="reflect"
       x1="88.606247"
       x2="91.575104"
       y1="13.510336"
       y2="13.510336">
      <stop
         offset="0"
         stop-color="#ff8787"
         id="stop29-3" />
      <stop
         offset="1"
         stop-color="#ff8787"
         stop-opacity="0"
         id="stop31-1" />
    </linearGradient>
    <filter
       id="filter1876"
       height="1.277481"
       width="1.279832"
       x="-0.139916"
       y="-0.138741">
      <feGaussianBlur
         stdDeviation=".28784801"
         id="feGaussianBlur1874" />
    </filter>
    <linearGradient
       id="g-3"
       gradientUnits="userSpaceOnUse"
       spreadMethod="reflect"
       x1="31.606251"
       x2="34.575108"
       y1="13.510336"
       y2="13.510336">
      <stop
         offset="0"
         stop-color="#fff"
         id="stop34" />
      <stop
         offset="1"
         stop-color="#790000"
         stop-opacity="0"
         id="stop36" />
    </linearGradient>
    <filter
       id="filter1883"
       height="1.277481"
       width="1.279832"
       x="-0.139916"
       y="-0.138741">
      <feGaussianBlur
         stdDeviation=".28784801"
         id="feGaussianBlur1881" />
    </filter>
    <filter
       id="filter1894"
       height="1.277481"
       width="1.279832"
       x="-0.139916"
       y="-0.138741">
      <feGaussianBlur
         stdDeviation=".28784801"
         id="feGaussianBlur1892" />
    </filter>
    <radialGradient
       id="m-3"
       cx="50.424522"
       cy="-81.945961"
       gradientTransform="rotate(-45,342.93203,-200.14072)"
       gradientUnits="userSpaceOnUse"
       r="50.15279">
      <stop
         offset="0"
         stop-color="#db3424"
         id="stop50" />
      <stop
         offset="1"
         stop-color="#b32016"
         id="stop52" />
    </radialGradient>
    <linearGradient
       id="n-2"
       gradientTransform="rotate(-45,342.93203,-200.14073)"
       gradientUnits="userSpaceOnUse"
       x1="50.06789"
       x2="59.441998"
       y1="-154.40843"
       y2="-71.617722">
      <stop
         offset="0"
         stop-color="#fff"
         id="stop55-1" />
      <stop
         offset="1"
         stop-color="#fcf3f3"
         stop-opacity="0"
         id="stop57" />
    </linearGradient>
    <linearGradient
       inkscape:collect="always"
       xlink:href="#d-2"
       id="linearGradient1229"
       gradientUnits="userSpaceOnUse"
       gradientTransform="scale(1.0975951,0.9110828)"
       x1="26.091133"
       y1="14.856744"
       x2="31.500689"
       y2="14.856744" />
    <linearGradient
       inkscape:collect="always"
       xlink:href="#f-7"
       id="linearGradient1231"
       gradientUnits="userSpaceOnUse"
       x1="88.606247"
       y1="13.510336"
       x2="91.575104"
       y2="13.510336"
       spreadMethod="reflect" />
  </defs>
  <sodipodi:namedview
     pagecolor="#ffffff"
     bordercolor="#666666"
     borderopacity="1"
     objecttolerance="10"
     gridtolerance="10"
     guidetolerance="10"
     inkscape:pageopacity="0"
     inkscape:pageshadow="2"
     inkscape:window-width="1366"
     inkscape:window-height="699"
     id="namedview97"
     showgrid="false"
     inkscape:zoom="2.6818182"
     inkscape:cx="-8.0169492"
     inkscape:cy="44"
     inkscape:window-x="0"
     inkscape:window-y="0"
     inkscape:window-maximized="1"
     inkscape:current-layer="svg95"
     inkscape:snap-page="true" />
  <linearGradient
     id="a">
    <stop
       offset="0"
       stop-color="#fff"
       id="stop2" />
    <stop
       offset="1"
       stop-color="#fff"
       stop-opacity="0"
       id="stop4" />
  </linearGradient>
  <linearGradient
     id="b"
     gradientUnits="userSpaceOnUse"
     x1="28"
     x2="28"
     xlink:href="#a"
     y1="57.5"
     y2="0" />
  <filter
     id="c"
     height="1.294962"
     width="1.106002"
     x="-0.053001001"
     y="-0.14748099">
    <feGaussianBlur
       stdDeviation="1.4133574"
       id="feGaussianBlur8" />
  </filter>
  <clipPath
     id="d">
    <path
       d="M 18.1875,56 C 16.967826,56 16,56.967827 16,58.1875 V 75.25 C 25.640301,77.646967 36.509296,79 48,79 59.490704,79 70.359699,77.646967 80,75.25 V 58.1875 C 80,56.967826 79.032173,56 77.8125,56 Z"
       id="path11"
       inkscape:connector-curvature="0"
       style="filter:url(#c)" />
  </clipPath>
  <linearGradient
     gradientUnits="userSpaceOnUse"
     x1="56"
     x2="56"
     xlink:href="#b"
     y1="20"
     y2="88.117546"
     id="linearGradient14" />
  <filter
     id="e">
    <feGaussianBlur
       stdDeviation="1.9"
       id="feGaussianBlur16" />
  </filter>
  <filter
     id="f">
    <feGaussianBlur
       stdDeviation="1.1263538"
       id="feGaussianBlur19" />
  </filter>
  <linearGradient
     id="g"
     gradientUnits="userSpaceOnUse"
     x1="56"
     x2="56"
     xlink:href="#a"
     y1="32"
     y2="88.117546" />
  <linearGradient
     id="h"
     gradientUnits="userSpaceOnUse"
     x1="52"
     x2="52"
     y1="64"
     y2="68">
    <stop
       offset="0"
       id="stop23" />
    <stop
       offset="1"
       stop-opacity="0"
       id="stop25" />
  </linearGradient>
  <radialGradient
     id="i"
     cx="48"
     cy="112"
     gradientTransform="matrix(1.3998291,0,0,1.0280753,-2.906808,-12.986839)"
     gradientUnits="userSpaceOnUse"
     r="32">
    <stop
       offset="0"
       stop-color="#ffea00"
       id="stop28" />
    <stop
       offset="1"
       stop-color="#ffa000"
       id="stop30" />
  </radialGradient>
  <radialGradient
     id="j"
     cx="100.88867"
     cy="155.99673"
     gradientTransform="matrix(5.8172522,0,0,5.1765744,-450.23524,-615.02583)"
     gradientUnits="userSpaceOnUse"
     r="40">
    <stop
       offset="0"
       stop-color="#fff"
       id="stop33" />
    <stop
       offset=".11366145"
       stop-color="#bdbebf"
       id="stop35" />
    <stop
       offset=".20296688"
       stop-color="#ececec"
       id="stop37" />
    <stop
       offset=".2363"
       stop-color="#fafafa"
       id="stop39" />
    <stop
       offset=".38818121"
       stop-color="#fff"
       id="stop41" />
    <stop
       offset=".5313"
       stop-color="#fafafa"
       id="stop43" />
    <stop
       offset=".8449"
       stop-color="#ebecec"
       id="stop45" />
    <stop
       offset="1"
       stop-color="#e1e2e3"
       id="stop47" />
  </radialGradient>
  <filter
     id="k"
     height="1.12"
     width="1.12"
     x="-0.059999999"
     y="-0.059999999"
     style="color-interpolation-filters:sRGB">
    <feGaussianBlur
       stdDeviation="1.9753136"
       id="feGaussianBlur50" />
  </filter>
  <radialGradient
     id="l"
     cx="-65.04158"
     cy="84.778641"
     gradientUnits="userSpaceOnUse"
     r="36.458652">
    <stop
       offset="0"
       stop-color="#92e128"
       id="stop53" />
    <stop
       offset="1"
       stop-color="#569d0a"
       stop-opacity=".996078"
       id="stop55" />
  </radialGradient>
  <filter
     id="m"
     height="1.048"
     width="1.048"
     x="-0.024"
     y="-0.024"
     style="color-interpolation-filters:sRGB">
    <feGaussianBlur
       stdDeviation=".72917305"
       id="feGaussianBlur58" />
  </filter>
  <filter
     id="n"
     height="1.096"
     width="1.096"
     x="-0.048"
     y="-0.048"
     style="color-interpolation-filters:sRGB">
    <feGaussianBlur
       stdDeviation=".78129363"
       id="feGaussianBlur61" />
  </filter>
  <linearGradient
     id="o"
     gradientTransform="matrix(1,0,0,0.80878252,0,0.272859)"
     gradientUnits="userSpaceOnUse"
     x1="-67.976425"
     x2="-66.816696"
     xlink:href="#a"
     y1="24.103317"
     y2="72.311111" />
  <g
     id="g915"
     transform="matrix(1.45455,0,0,1.45455,-2.9e-4,-2.9e-4)">
    <path
       inkscape:connector-curvature="0"
       id="path65"
       transform="matrix(1.2962495,0,0,1.3017032,2.059823,-46.237988)"
       style="fill:#020202;stroke:#000000;stroke-width:2;stroke-linecap:round;stroke-linejoin:round;stroke-dashoffset:1.08780003;filter:url(#e)"
       d="m 14.56829,48.6875 c -3.884437,0 -6.9999997,3.146813 -6.9999997,7.03125 v 57.96875 c 0,3.88444 3.1155627,7 6.9999997,7 H 81 c 3.884437,0 7,-3.11556 7,-7 V 55.71875 C 88,51.834313 84.884437,48.6875 81,48.6875 h -8.6 v 4.392592 c 0,0.95614 -0.762611,1.71875 -1.71875,1.71875 H 59.562621 c -0.95614,0 -1.71875,-0.762611 -1.71875,-1.71875 V 48.6875 Z" />
    <path
       style="fill:#ffffff"
       inkscape:connector-curvature="0"
       id="path67"
       d="m 19.650502,15.358263 c -4.842843,0 -8.746884,3.920466 -8.746884,8.783687 v 77.89306 c 0,4.86324 3.904041,8.7837 8.746884,8.7837 h 88.698978 c 4.84284,0 8.74689,-3.92046 8.74689,-8.7837 V 24.14195 c 0,-4.863221 -3.90405,-8.783687 -8.74689,-8.783687 H 94.831856 v 4.879211 c 0,1.267689 -1.006861,2.278788 -2.269241,2.278788 H 81.598991 c -1.262376,0 -2.269238,-1.0111 -2.269238,-2.278788 v -4.879211 z" />
    <path
       style="fill:url(#j)"
       inkscape:connector-curvature="0"
       id="path69"
       d="m 19.547931,16.499312 c -3.849102,0 -6.959096,3.123078 -6.959096,6.988378 v 79.20158 c 0,3.86532 3.109992,6.98839 6.959096,6.98839 h 89.474089 c 3.84911,0 6.95911,-3.12307 6.95911,-6.98839 V 23.48769 c 0,-3.865299 -3.11,-6.988378 -6.95911,-6.988378 H 94.943794 v 4.316277 c 0,1.590917 -1.273951,2.870226 -2.858206,2.870226 h -9.828019 c -1.584256,0 -2.8582,-1.279306 -2.8582,-2.870226 v -4.316277 z" />
    <rect
       style="fill:url(#i)"
       id="rect71"
       y="36.360786"
       x="19.490458"
       width="89.589066"
       ry="3.0178499"
       rx="3.081831"
       height="65.796837" />
    <rect
       style="fill:url(#h);filter:url(#f)"
       id="rect73"
       y="64"
       x="16"
       width="64"
       transform="matrix(1.3998291,0,0,1.3707673,-2.906808,-51.368322)"
       rx="2.2015769"
       height="32" />
    <path
       style="fill:url(#g);filter:url(#c)"
       inkscape:connector-curvature="0"
       id="path75"
       transform="matrix(1.3998291,0,0,1.3707673,-2.906808,-40.402183)"
       d="M 18.1875,56 C 16.967826,56 16,56.967827 16,58.1875 V 75.25 C 25.640301,77.646967 36.509296,79 48,79 59.490704,79 70.359699,77.646967 80,75.25 V 58.1875 C 80,56.967826 79.032173,56 77.8125,56 Z"
       clip-path="url(#d)" />
    <path
       style="fill:#ffffff"
       inkscape:connector-curvature="0"
       id="path77"
       d="m 19.515748,99.296144 v 1.370766 c 0,1.67187 1.354793,2.99854 3.062126,2.99854 h 83.464796 c 1.70735,0 3.06213,-1.32667 3.06213,-2.99854 v -1.370766 c 0,1.671876 -1.35478,2.998556 -3.06213,2.998556 H 22.577874 c -1.707333,0 -3.062126,-1.32668 -3.062126,-2.998556 z" />
  </g>
  <g
     id="g114"
     transform="matrix(0.43095926,0.43095926,-0.43095926,0.43095926,-11.835613,-79.133521)">
    <path
       inkscape:connector-curvature="0"
       style="fill:url(#h-2)"
       id="path86"
       d="m 195.29345,-8.8169787 c -3.80348,-1.142e-4 -6.88683,3.0832392 -6.88672,6.886715 V 59.002062 l -60.93428,-4e-6 c -3.80348,-1.14e-4 -6.88683,3.083242 -6.88672,6.88672 l 1e-5,24.380857 c -1.1e-4,3.803473 3.08324,6.886827 6.88671,6.886718 l 60.93428,10e-7 v 60.932326 c -1.1e-4,3.80348 3.08324,6.88683 6.88672,6.88672 h 24.38086 c 3.80348,1.1e-4 6.88683,-3.08324 6.88672,-6.88672 V 97.156353 h 60.93232 c 3.80348,1.14e-4 6.88683,-3.083242 6.88672,-6.886719 V 65.888777 c 1.1e-4,-3.803478 -3.08324,-6.886834 -6.88672,-6.88672 l -60.93232,10e-7 V -1.9302657 c 1.1e-4,-3.8034781 -3.08325,-6.8868307 -6.88673,-6.886711 z"
       sodipodi:nodetypes="ccccccccccccccccccccc" />
    <path
       inkscape:connector-curvature="0"
       style="fill:url(#j-0)"
       id="path88"
       d="m 195.29345,-8.8169787 c -3.80348,-1.142e-4 -6.88683,3.0832392 -6.88672,6.886715 V 59.002062 l -60.93428,-4e-6 c -3.80348,-1.14e-4 -6.88683,3.083242 -6.88672,6.88672 l 1e-5,24.380857 c -1.1e-4,3.803473 3.08324,6.886827 6.88671,6.886718 l 60.93428,10e-7 v 60.932326 c -1.1e-4,3.80348 3.08324,6.88683 6.88672,6.88672 h 24.38086 c 3.80348,1.1e-4 6.88683,-3.08324 6.88672,-6.88672 V 97.156353 h 60.93232 c 3.80348,1.14e-4 6.88683,-3.083242 6.88672,-6.886719 V 65.888777 c 1.1e-4,-3.803478 -3.08324,-6.886834 -6.88672,-6.88672 l -60.93232,10e-7 V -1.9302657 c 1.1e-4,-3.8034781 -3.08325,-6.8868307 -6.88673,-6.886711 z"
       sodipodi:nodetypes="ccccccccccccccccccccc" />
    <path
       inkscape:connector-curvature="0"
       style="fill:url(#k-2)"
       id="path90"
       d="m 195.29345,-8.8169787 c -3.80348,-1.142e-4 -6.88683,3.0832392 -6.88672,6.886715 V 59.002062 l -60.93428,-4e-6 c -3.80348,-1.14e-4 -6.88683,3.083242 -6.88672,6.88672 l 1e-5,24.380857 c -1.1e-4,3.803473 3.08324,6.886827 6.88671,6.886718 l 60.93428,10e-7 v 60.932326 c -1.1e-4,3.80348 3.08324,6.88683 6.88672,6.88672 h 24.38086 c 3.80348,1.1e-4 6.88683,-3.08324 6.88672,-6.88672 V 97.156353 h 60.93232 c 3.80348,1.14e-4 6.88683,-3.083242 6.88672,-6.886719 V 65.888777 c 1.1e-4,-3.803478 -3.08324,-6.886834 -6.88672,-6.88672 l -60.93232,10e-7 V -1.9302657 c 1.1e-4,-3.8034781 -3.08325,-6.8868307 -6.88673,-6.886711 z"
       sodipodi:nodetypes="ccccccccccccccccccccc" />
    <path
       style="fill:#56331f;fill-opacity:0.90588199"
       inkscape:connector-curvature="0"
       id="path92"
       d="m 195.29345,-8.8169787 c -3.80348,-1.142e-4 -6.88683,3.0832392 -6.88672,6.886715 V 59.002062 l -60.93428,-4e-6 c -3.80348,-1.14e-4 -6.88683,3.083242 -6.88672,6.88672 l 1e-5,24.380857 c -1.1e-4,3.803473 3.08324,6.886827 6.88671,6.886718 l 60.93428,10e-7 v 60.932326 c -1.1e-4,3.80348 3.08324,6.88683 6.88672,6.88672 h 24.38086 c 3.80348,1.1e-4 6.88683,-3.08324 6.88672,-6.88672 V 97.156353 h 60.93232 c 3.80348,1.14e-4 6.88683,-3.083242 6.88672,-6.886719 V 65.888777 c 1.1e-4,-3.803478 -3.08324,-6.886834 -6.88672,-6.88672 l -60.93232,10e-7 V -1.9302657 c 1.1e-4,-3.8034781 -3.08325,-6.8868307 -6.88673,-6.886711 z"
       sodipodi:nodetypes="ccccccccccccccccccccc" />
    <g
       style="fill-rule:evenodd"
       id="g106">
      <path
         inkscape:connector-curvature="0"
         style="opacity:0.498127;fill:url(#linearGradient1229);filter:url(#l-6)"
         id="path94"
         transform="matrix(1.4915065,1.4915065,1.5058288,-1.5058288,127.59411,129.77373)"
         d="m 31.7,16 2.875,-3.375 c -1.051205,-1.695758 -3.935136,-2.288018 -5.9375,-0.3125 l 2.8125,3.375 z" />
      <path
         inkscape:connector-curvature="0"
         style="opacity:0.79026196;fill:url(#linearGradient1797);filter:url(#l-6)"
         id="path96"
         transform="matrix(-1.4871264,1.4871264,-1.472982,-1.472982,353.36672,62.915512)"
         d="m 31.7,16 2.875,-3.375 c -1.051205,-1.695758 -3.935136,-2.288018 -5.9375,-0.3125 l 2.8125,3.375 z" />
      <path
         inkscape:connector-curvature="0"
         style="opacity:0.498127;fill:url(#e-9);filter:url(#l-6)"
         id="path98"
         transform="matrix(1.3506327,1.3506327,-1.3636023,1.3636023,262.13812,4.1059019)"
         d="m 31.7,16 2.875,-3.375 c -1.051205,-1.695758 -3.935136,-2.288018 -5.9375,-0.3125 l 2.8125,3.375 z" />
      <path
         inkscape:connector-curvature="0"
         style="opacity:0.79026196;fill:url(#linearGradient1231);filter:url(#l-6)"
         id="path100"
         transform="matrix(-1.3636023,1.3636023,-1.3506327,-1.3506327,358.72933,55.241431)"
         d="m 88.7,16 2.875,-3.375 c -1.051205,-1.695758 -3.935136,-2.288018 -5.9375,-0.3125 l 2.8125,3.375 z" />
      <path
         inkscape:connector-curvature="0"
         style="opacity:0.79026196;fill:url(#g-3);filter:url(#l-6)"
         id="path102"
         transform="matrix(-1.2400782,1.2400782,1.2282835,1.2282835,217.29025,-57.594987)"
         d="m 31.7,16 2.875,-3.375 c -1.051205,-1.695758 -3.935136,-2.288018 -5.9375,-0.3125 l 2.8125,3.375 z" />
      <path
         inkscape:connector-curvature="0"
         style="opacity:0.79026196;fill:url(#linearGradient1799);filter:url(#l-6)"
         id="path104"
         transform="matrix(-1.2731338,1.2731338,1.2610246,1.2610246,223.27547,-64.198776)"
         d="m 88.7,16 2.875,-3.375 c -1.051205,-1.695758 -3.935136,-2.288018 -5.9375,-0.3125 l 2.8125,3.375 z" />
    </g>
    <path
       inkscape:connector-curvature="0"
       style="fill:url(#m-3)"
       id="path108"
       d="M 195.29345,-1.9302687 V 65.88878 l -67.82099,10e-7 -1e-5,24.38085 67.821,3e-6 v 67.819046 h 24.38086 V 90.269634 h 67.81904 V 65.88878 l -67.81904,-10e-7 -1e-5,-67.8190447 z"
       sodipodi:nodetypes="ccccccccccccc" />
    <path
       style="fill:#f4caca;fill-opacity:0.77941165"
       inkscape:connector-curvature="0"
       id="path110"
       d="m 127.47266,65.887832 -1e-5,24.381371 h 67.82164 l -10e-4,67.820257 h 24.38138 V 90.270585 l 67.81887,-10e-7 V 65.889212 l -67.81887,-10e-7 -1e-5,-67.8188687 -24.38136,2e-6 V 65.889212 Z m 1.73186,1.731861 66.08839,0.0014 c 0.95652,9.2e-5 1.73195,-0.775341 1.73186,-1.731859 V -0.19777368 l 20.91765,-4e-6 V 65.88923 c -9e-5,0.956519 0.77534,1.731954 1.73186,1.731862 h 66.08701 v 20.917655 h -66.08701 c -0.95652,-9.2e-5 -1.73195,0.775341 -1.73186,1.731859 v 66.087014 h -20.91766 l 0.001,-66.088395 c 9e-5,-0.956518 -0.77534,-1.731953 -1.73186,-1.731861 l -66.08977,2e-6 z"
       sodipodi:nodetypes="cccccccccccccccccccccccccccccc" />
    <path
       inkscape:connector-curvature="0"
       style="fill:url(#n-2);fill-rule:evenodd"
       id="path112"
       d="m 127.47266,65.887832 -1e-5,24.381371 h 67.82164 v 13.963747 c 9.21859,-12.920037 23.72456,-29.858471 27.09896,-38.336918 l -2.71897,-0.0068 -1e-5,-67.8188687 -24.38136,2e-6 V 65.889233 Z"
       sodipodi:nodetypes="cccccccccc" />
  </g>
</svg>
