<?xml version="1.0" encoding="UTF-8" standalone="no"?>
<!-- Created with Inkscape (http://www.inkscape.org/) -->

<svg
   xmlns:dc="http://purl.org/dc/elements/1.1/"
   xmlns:cc="http://creativecommons.org/ns#"
   xmlns:rdf="http://www.w3.org/1999/02/22-rdf-syntax-ns#"
   xmlns:svg="http://www.w3.org/2000/svg"
   xmlns="http://www.w3.org/2000/svg"
   xmlns:xlink="http://www.w3.org/1999/xlink"
   xmlns:sodipodi="http://sodipodi.sourceforge.net/DTD/sodipodi-0.dtd"
   xmlns:inkscape="http://www.inkscape.org/namespaces/inkscape"
   version="1.1"
   id="svg2"
   width="128"
   height="128"
   viewBox="0 0 128 128"
   sodipodi:docname="flowchartshapes.flowchart-display.svg"
   inkscape:export-filename="/home/rizmut/Dokumen/Rizmut/Github/libreoffice-style-karasa-jaga/build/images_karasa_jaga/cmd/32/flowchartshapes.flowchart-display.png"
   inkscape:export-xdpi="24"
   inkscape:export-ydpi="24"
   inkscape:version="0.92.3 (unknown)">
  <metadata
     id="metadata8">
    <rdf:RDF>
      <cc:Work
         rdf:about="">
        <dc:format>image/svg+xml</dc:format>
        <dc:type
           rdf:resource="http://purl.org/dc/dcmitype/StillImage" />
        <dc:title />
      </cc:Work>
    </rdf:RDF>
  </metadata>
  <defs
     id="defs6">
    <inkscape:perspective
       id="perspective27"
       inkscape:persp3d-origin="64 : 42.666667 : 1"
       inkscape:vp_z="128 : 64 : 1"
       inkscape:vp_y="0 : 1000 : 0"
       inkscape:vp_x="0 : 64 : 1"
       sodipodi:type="inkscape:persp3d" />
    <linearGradient
       id="linearGradient3369">
      <stop
         id="stop3372"
         offset="0"
         style="stop-color:#ffffff;stop-opacity:1;" />
      <stop
         style="stop-color:#ffffff;stop-opacity:1;"
         offset="0.39276761"
         id="stop3374" />
      <stop
         style="stop-color:#f1f1f1;stop-opacity:1;"
         offset="0.78260624"
         id="stop3376" />
      <stop
         id="stop3378"
         offset="0.9391275"
         style="stop-color:#eaeaea;stop-opacity:1;" />
      <stop
         id="stop3384"
         offset="1"
         style="stop-color:#dfdfdf;stop-opacity:1;" />
    </linearGradient>
    <linearGradient
       id="linearGradient7422">
      <stop
         style="stop-color:#7c9fcf;stop-opacity:1"
         offset="0"
         id="stop7424" />
      <stop
         id="stop5348"
         offset="0.5"
         style="stop-color:#7c9ece;stop-opacity:1" />
      <stop
         id="stop7426"
         offset="1"
         style="stop-color:#7b9dcf;stop-opacity:1" />
    </linearGradient>
    <linearGradient
       y2="388.95178"
       x2="399.77466"
       y1="1324.7792"
       x1="405.94968"
       gradientTransform="matrix(0.08097132,0,0,0.07807154,182.74486,-6.9021226)"
       gradientUnits="userSpaceOnUse"
       id="linearGradient2330"
       xlink:href="#linearGradient7422"
       inkscape:collect="always" />
    <linearGradient
       inkscape:collect="always"
       xlink:href="#linearGradient3369"
       id="linearGradient38869"
       x1="128.63477"
       y1="66.465042"
       x2="-2.5749507"
       y2="66.465042"
       gradientUnits="userSpaceOnUse"
       gradientTransform="matrix(0,0.97384689,-1,0,126.46504,2.7294333)" />
    <linearGradient
       inkscape:collect="always"
       xlink:href="#linearGradient3369"
       id="linearGradient42982"
       x1="54.063766"
       y1="82.953201"
       x2="126.61692"
       y2="-37.254951"
       gradientUnits="userSpaceOnUse"
       gradientTransform="translate(-1.0453119e-6,5.2714856)" />
    <linearGradient
       inkscape:collect="always"
       xlink:href="#linearGradient7422"
       id="linearGradient839"
       gradientUnits="userSpaceOnUse"
       gradientTransform="matrix(0,0.97384689,-1,0,126.46504,2.7294333)"
       x1="164.67596"
       y1="79.935867"
       x2="-29.985672"
       y2="32.944592" />
  </defs>
  <sodipodi:namedview
     pagecolor="#ffffff"
     bordercolor="#666666"
     borderopacity="1"
     objecttolerance="10"
     gridtolerance="10"
     guidetolerance="10"
     inkscape:pageopacity="0"
     inkscape:pageshadow="2"
     inkscape:window-width="1366"
     inkscape:window-height="657"
     id="namedview4"
     showgrid="true"
     inkscape:snap-page="true"
     inkscape:snap-global="true"
     inkscape:zoom="1.4142136"
     inkscape:cx="-117.24971"
     inkscape:cy="100.05158"
     inkscape:window-x="0"
     inkscape:window-y="30"
     inkscape:window-maximized="1"
     inkscape:current-layer="svg2"
     showguides="false"
     inkscape:guide-bbox="true">
    <inkscape:grid
       type="xygrid"
       id="grid837"
       spacingx="4"
       spacingy="4"
       empspacing="1" />
    <sodipodi:guide
       position="136,86"
       orientation="-0.70710678,0.70710678"
       id="guide1537"
       inkscape:locked="false" />
    <sodipodi:guide
       position="128.69343,131.52186"
       orientation="0,1"
       id="guide1569"
       inkscape:locked="false" />
  </sodipodi:namedview>
  <path
     sodipodi:type="inkscape:offset"
     inkscape:radius="4.0001602"
     inkscape:original="M 28 16 L 8 64 L 28 112 L 28.21875 112 L 29.058594 112 C 29.061594 112.00063 29.067312 112.00087 29.070312 112.00195 C 29.075312 112.00133 29.079314 112.00107 29.083984 112 L 106.2207 112 L 106.2207 111.76562 C 107.80117 111.31628 109.2267 109.94136 110.66602 107.64453 C 112.46132 104.77963 114.08456 100.77255 115.45312 95.5 C 118.17921 84.997489 119.77353 79.925646 119.77344 65.054688 C 119.7734 50.184015 118.17921 43.168122 115.45312 32.666016 C 114.08455 27.393639 112.46903 23.222087 110.67383 20.357422 C 109.23479 18.061091 107.8086 16.685949 106.22852 16.236328 L 106.22852 16 L 46.568359 16 L 30.677734 16 L 29.076172 16 L 28.226562 16 L 28 16 z "
     style="fill:url(#linearGradient839);fill-opacity:1;fill-rule:evenodd;stroke:none;stroke-width:4.4132638;stroke-linecap:round;stroke-linejoin:round;stroke-miterlimit:4;stroke-dasharray:none;stroke-opacity:1"
     id="path837"
     d="m 28,12 a 4.0005602,4.0005602 0 0 0 -3.693359,2.460938 l -20.0000004,48 a 4.0005602,4.0005602 0 0 0 0,3.078124 L 24.306641,113.53906 A 4.0005602,4.0005602 0 0 0 28,116 h 0.21875 0.839844 l -0.02539,-0.002 a 4.0005602,4.0005602 0 0 0 0.07813,-0.002 L 29.083984,116 H 106.2207 a 4.0005602,4.0005602 0 0 0 2.73633,-1.08984 c 2.14206,-1.11107 3.7393,-2.973 5.09766,-5.14063 2.11039,-3.36772 3.83154,-7.72365 5.26953,-13.263671 2.70948,-10.438534 4.44931,-16.294302 4.44922,-31.451171 -4e-5,-15.156558 -1.70957,-22.840163 -4.44922,-33.394532 -1.43199,-5.516709 -3.11205,-9.99743 -5.26172,-13.427734 -1.35601,-2.16383 -2.95001,-4.022805 -5.08594,-5.134766 A 4.0005602,4.0005602 0 0 0 106.22852,12 H 46.568359 30.677734 29.076172 28.226562 Z m 0.318359,103.92773 c 0.07434,0.0132 0.09679,0.0191 0.111329,0.0195 a 4.0005602,4.0005602 0 0 0 0.04883,0.01 c -0.03744,-0.005 -0.05914,-0.008 -0.132813,-0.0215 -0.0053,-9.8e-4 -0.02063,-0.006 -0.02734,-0.008 z" />
  <g
     transform="matrix(0,0.57912965,0.57912965,0,27.114229,-2.9133545)"
     inkscape:label="Livello 1"
     id="g1544" />
  <g
     transform="matrix(0,-0.57912965,0.57912965,0,27.114229,130.91165)"
     inkscape:label="Livello 1"
     id="g1599" />
  <g
     id="g42964"
     transform="translate(0,88)" />
  <path
     sodipodi:nodetypes="cccccccccccscsscccccc"
     inkscape:connector-curvature="0"
     id="path37359"
     d="M 28.227529,16 H 28 L 8,64 28,112 h 0.219716 0.839843 c 0.003,6.3e-4 0.0068,9.2e-4 0.0098,0.002 0.005,-6.2e-4 0.009,-9.3e-4 0.01367,-0.002 h 77.136721 v -0.23395 c 1.58047,-0.44934 3.00599,-1.8249 4.44531,-4.12173 1.7953,-2.8649 3.41854,-6.87201 4.78711,-12.144556 2.72609,-10.502511 4.3204,-15.573171 4.32031,-30.444129 -4e-5,-14.870673 -1.59423,-21.887813 -4.32031,-32.389919 -1.36857,-5.272377 -2.9841,-9.443467 -4.7793,-12.308132 -1.43904,-2.296331 -2.86523,-3.672109 -4.44531,-4.12173 V 16 H 46.569326 30.6787 29.077138 Z"
     style="fill:url(#linearGradient38869);fill-opacity:1;fill-rule:evenodd;stroke:none;stroke-width:4.4132638;stroke-linecap:round;stroke-linejoin:round;stroke-miterlimit:4;stroke-dasharray:none;stroke-opacity:1" />
</svg>
