<?xml version="1.0" encoding="UTF-8" standalone="no"?>
<!-- Created with Inkscape (http://www.inkscape.org/) -->

<svg
   xmlns:dc="http://purl.org/dc/elements/1.1/"
   xmlns:cc="http://creativecommons.org/ns#"
   xmlns:rdf="http://www.w3.org/1999/02/22-rdf-syntax-ns#"
   xmlns:svg="http://www.w3.org/2000/svg"
   xmlns="http://www.w3.org/2000/svg"
   xmlns:xlink="http://www.w3.org/1999/xlink"
   xmlns:sodipodi="http://sodipodi.sourceforge.net/DTD/sodipodi-0.dtd"
   xmlns:inkscape="http://www.inkscape.org/namespaces/inkscape"
   version="1.1"
   id="svg2"
   width="128"
   height="128"
   viewBox="0 0 128 128"
   sodipodi:docname="flowchartshapes.flowchart-magnetic-disk.svg"
   inkscape:export-filename="/home/rizmut/Dokumen/Rizmut/Github/libreoffice-style-karasa-jaga/build/images_karasa_jaga/cmd/32/flowchartshapes.flowchart-magnetic-disk.png"
   inkscape:export-xdpi="24"
   inkscape:export-ydpi="24"
   inkscape:version="0.92.3 (unknown)">
  <metadata
     id="metadata8">
    <rdf:RDF>
      <cc:Work
         rdf:about="">
        <dc:format>image/svg+xml</dc:format>
        <dc:type
           rdf:resource="http://purl.org/dc/dcmitype/StillImage" />
        <dc:title></dc:title>
      </cc:Work>
    </rdf:RDF>
  </metadata>
  <defs
     id="defs6">
    <inkscape:perspective
       id="perspective27"
       inkscape:persp3d-origin="64 : 42.666667 : 1"
       inkscape:vp_z="128 : 64 : 1"
       inkscape:vp_y="0 : 1000 : 0"
       inkscape:vp_x="0 : 64 : 1"
       sodipodi:type="inkscape:persp3d" />
    <linearGradient
       id="linearGradient3369">
      <stop
         id="stop3372"
         offset="0"
         style="stop-color:#ffffff;stop-opacity:1;" />
      <stop
         style="stop-color:#ffffff;stop-opacity:1;"
         offset="0.42597079"
         id="stop3374" />
      <stop
         style="stop-color:#f1f1f1;stop-opacity:1;"
         offset="0.5892781"
         id="stop3376" />
      <stop
         id="stop3378"
         offset="0.80219781"
         style="stop-color:#eaeaea;stop-opacity:1;" />
      <stop
         id="stop3384"
         offset="1"
         style="stop-color:#dfdfdf;stop-opacity:1;" />
    </linearGradient>
    <linearGradient
       id="linearGradient7422">
      <stop
         style="stop-color:#7c9fcf;stop-opacity:1"
         offset="0"
         id="stop7424" />
      <stop
         id="stop5348"
         offset="0.5"
         style="stop-color:#7c9ece;stop-opacity:1" />
      <stop
         id="stop7426"
         offset="1"
         style="stop-color:#7b9dcf;stop-opacity:1" />
    </linearGradient>
    <linearGradient
       y2="388.95178"
       x2="399.77466"
       y1="1324.7792"
       x1="405.94968"
       gradientTransform="matrix(0.08097132,0,0,0.07807154,182.74486,-6.9021226)"
       gradientUnits="userSpaceOnUse"
       id="linearGradient2330"
       xlink:href="#linearGradient7422"
       inkscape:collect="always" />
    <linearGradient
       inkscape:collect="always"
       xlink:href="#linearGradient3369"
       id="linearGradient38869"
       x1="-26.824043"
       y1="96.435867"
       x2="185.51433"
       y2="47.444592"
       gradientUnits="userSpaceOnUse"
       gradientTransform="translate(-3.1357603e-6,4.6121011)" />
    <linearGradient
       inkscape:collect="always"
       xlink:href="#linearGradient3369"
       id="linearGradient42982"
       x1="54.063766"
       y1="82.953201"
       x2="126.61692"
       y2="-37.254951"
       gradientUnits="userSpaceOnUse"
       gradientTransform="translate(-1.0453119e-6,5.2714856)" />
    <linearGradient
       inkscape:collect="always"
       xlink:href="#linearGradient3369"
       id="linearGradient857"
       x1="5.6875"
       y1="20.728516"
       x2="122.31445"
       y2="20.728516"
       gradientUnits="userSpaceOnUse"
       gradientTransform="translate(-1.0453119e-6,5.2714856)" />
    <linearGradient
       inkscape:collect="always"
       xlink:href="#linearGradient7422"
       id="linearGradient838"
       gradientUnits="userSpaceOnUse"
       gradientTransform="translate(-1.0453119e-6,5.2714856)"
       x1="5.6875"
       y1="20.728516"
       x2="122.31445"
       y2="20.728516" />
    <linearGradient
       inkscape:collect="always"
       xlink:href="#linearGradient7422"
       id="linearGradient863"
       gradientUnits="userSpaceOnUse"
       gradientTransform="translate(-3.1357603e-6,4.6121011)"
       x1="-26.824043"
       y1="96.435867"
       x2="185.51433"
       y2="47.444592" />
  </defs>
  <sodipodi:namedview
     pagecolor="#ffffff"
     bordercolor="#666666"
     borderopacity="1"
     objecttolerance="10"
     gridtolerance="10"
     guidetolerance="10"
     inkscape:pageopacity="0"
     inkscape:pageshadow="2"
     inkscape:window-width="1366"
     inkscape:window-height="706"
     id="namedview4"
     showgrid="true"
     inkscape:snap-page="true"
     inkscape:snap-global="false"
     inkscape:zoom="2"
     inkscape:cx="20.905169"
     inkscape:cy="43.127927"
     inkscape:window-x="0"
     inkscape:window-y="0"
     inkscape:window-maximized="1"
     inkscape:current-layer="svg2"
     showguides="false"
     inkscape:snap-smooth-nodes="true">
    <inkscape:grid
       type="xygrid"
       id="grid837"
       spacingx="4"
       spacingy="4"
       empspacing="1" />
  </sodipodi:namedview>
  <path
     sodipodi:type="inkscape:offset"
     inkscape:radius="3.9933574"
     inkscape:original="M 124 25.632812 L 4 25.638672 L 4 84.601562 L 4 100.49219 L 4 102.09375 L 4 102.94336 L 4.1191406 102.94336 C 5.8995415 110.74755 33.075439 116.75279 64 116.75586 C 94.905712 116.74586 122.05273 110.73694 123.83203 102.9375 L 124 102.9375 L 124 102.09766 C 124.00065 102.09466 124.00095 102.09089 124.00195 102.08789 C 124.00131 102.08289 124.001 102.07892 124 102.07422 L 124 25.632812 z "
     style="fill:url(#linearGradient863);fill-opacity:1;fill-rule:evenodd;stroke:none;stroke-width:4.47213125;stroke-linecap:round;stroke-linejoin:round;stroke-miterlimit:4;stroke-dasharray:none;stroke-opacity:1"
     id="path861"
     d="m 124,21.638672 -120,0.0059 a 3.9937568,3.9937568 0 0 0 -3.99414062,3.994141 v 58.96289 15.890628 1.60156 0.84961 a 3.9937568,3.9937568 0 0 0 0.85351562,2.45898 c 1.3150237,2.9954 4.0145561,4.93519 7.2148438,6.55469 3.7482242,1.89679 8.5242602,3.42575 14.1699222,4.71094 C 33.535463,119.23834 48.279346,120.74844 64,120.75 a 3.9937568,3.9937568 0 0 0 0.002,0 c 15.711284,-0.005 30.442906,-1.51617 41.724607,-4.08789 5.64085,-1.28586 10.41126,-2.81811 14.15625,-4.71484 3.15494,-1.59789 5.825,-3.50511 7.16016,-6.42969 a 3.9937568,3.9937568 0 0 0 0.95117,-2.58008 v -0.76367 -0.0762 l -0.002,0.0156 a 3.9937568,3.9937568 0 0 0 -0.002,-0.0781 l 0.004,0.0391 V 25.632812 A 3.9937568,3.9937568 0 0 0 124,21.638672 Z" />
  <path
     style="fill:url(#linearGradient38869);fill-opacity:1;fill-rule:evenodd;stroke:none;stroke-width:4.47213125;stroke-linecap:round;stroke-linejoin:round;stroke-miterlimit:4;stroke-dasharray:none;stroke-opacity:1"
     d="M 4.000001,25.638442 4,84.601334 v 15.890626 1.60157 0.8496 h 0.1191407 c 1.7804009,7.80419 28.9562973,13.80967 59.8808583,13.81274 30.905712,-0.01 58.052731,-6.01843 59.832031,-13.81787 H 124 v -0.83984 c 6.5e-4,-0.003 0.001,-0.007 0.002,-0.01 -6.4e-4,-0.005 -10e-4,-0.009 -0.002,-0.0137 l 0,-76.44115 z"
     id="path37359"
     inkscape:connector-curvature="0"
     sodipodi:nodetypes="cccccccccccccc" />
  <g
     transform="matrix(0,0.57912965,0.57912965,0,27.114229,-2.9133545)"
     inkscape:label="Livello 1"
     id="g1544" />
  <g
     transform="matrix(0,-0.57912965,0.57912965,0,27.114229,130.91165)"
     inkscape:label="Livello 1"
     id="g1599" />
  <g
     id="g42964"
     transform="translate(0,88)" />
  <path
     sodipodi:type="inkscape:offset"
     inkscape:radius="4"
     inkscape:original="M 64 12 C 48.729968 12.000041 33.444301 13.555174 22.660156 16.28125 C 17.246188 17.649822 12.96308 19.265352 10.021484 21.060547 C 7.1038727 22.841107 5.6073817 24.59663 5.6074219 26.65625 C 5.6073821 28.715869 7.1038728 30.471394 10.021484 32.251953 C 12.96308 34.047148 17.246188 35.662677 22.660156 37.03125 C 33.444301 39.757325 48.729969 41.390585 64 41.390625 C 79.270323 41.390715 96.104112 39.884291 106.88867 37.158203 C 112.30281 35.789633 116.58551 34.174207 119.52734 32.378906 C 122.44508 30.598311 123.94145 28.843036 123.94141 26.783203 C 123.94145 24.72338 122.44508 22.968097 119.52734 21.1875 C 116.58551 19.3922 112.30281 17.776773 106.88867 16.408203 C 96.104112 13.682114 79.270325 11.999911 64 12 z "
     style="opacity:1;fill:url(#linearGradient838);fill-opacity:1;stroke:none;stroke-width:5.16429853;stroke-linecap:square;stroke-linejoin:bevel;stroke-miterlimit:4;stroke-dasharray:none;stroke-dashoffset:0;stroke-opacity:0.73039216"
     id="path836"
     d="M 64,8 C 48.458396,8.0000417 32.984103,9.5447508 21.679688,12.402344 16.026562,13.831371 11.441999,15.507762 7.9375,17.646484 6.2393029,18.68286 4.7761079,19.78964 3.6035156,21.248047 c -1.1725923,1.458407 -1.9961327,3.40959 -1.9960937,5.408203 -3.86e-5,1.998613 0.8235016,3.949796 1.9960937,5.408203 1.1725921,1.458407 2.6357865,2.565187 4.3339844,3.601563 3.504499,2.138723 8.089063,3.815112 13.742188,5.24414 11.28681,2.853142 26.765065,4.480428 42.320312,4.480469 15.533408,9.2e-5 32.465204,-1.470863 43.86914,-4.353516 5.65331,-1.429026 10.2376,-3.105408 13.74219,-5.24414 1.69821,-1.03636 3.16135,-2.143131 4.33398,-3.601563 1.17263,-1.458432 1.99614,-3.409662 1.9961,-5.408203 4e-5,-1.998541 -0.82347,-3.949772 -1.9961,-5.408203 -1.17263,-1.458431 -2.63577,-2.5652 -4.33398,-3.601562 -3.50459,-2.13873 -8.08888,-3.815115 -13.74219,-5.244141 C 96.504812,9.6566552 79.564106,7.9999093 64,8 Z" />
  <path
     style="opacity:1;fill:url(#linearGradient857);fill-opacity:1;stroke:none;stroke-width:5.16429853;stroke-linecap:square;stroke-linejoin:bevel;stroke-miterlimit:4;stroke-dasharray:none;stroke-dashoffset:0;stroke-opacity:0.73039216"
     d="m 64,12 c -15.270032,4.1e-5 -30.555777,1.555174 -41.339922,4.28125 -5.413968,1.368572 -9.697076,2.984101 -12.638672,4.779296 -2.9176117,1.78056 -4.4141022,3.536084 -4.414062,5.595704 -3.98e-5,2.059619 1.4964504,3.815144 4.414062,5.595703 2.941596,1.795195 7.224704,3.410724 12.638672,4.779297 10.784145,2.726075 26.069891,4.359335 41.339922,4.359375 15.270323,9e-5 32.10411,-1.505836 42.88867,-4.231924 5.41414,-1.36857 9.69684,-2.983996 12.63867,-4.779297 2.91774,-1.780595 4.4141,-3.53587 4.41406,-5.595703 4e-5,-2.059823 -1.49632,-3.815107 -4.41406,-5.595704 -2.94183,-1.7953 -7.22453,-3.410726 -12.63867,-4.779296 C 96.10411,13.682612 79.270325,11.999911 64,12 Z"
     id="path846"
     inkscape:connector-curvature="0"
     sodipodi:nodetypes="csscsscsccssc" />
</svg>
