<svg height="128" width="128" xmlns="http://www.w3.org/2000/svg" xmlns:xlink="http://www.w3.org/1999/xlink"><linearGradient id="a" gradientTransform="matrix(0 .129048 -.07807154 0 146.90212 -7.875381)" gradientUnits="userSpaceOnUse" x1="399.77466" x2="399.77466" y1="1164.6696" y2="549.06134"><stop offset="0" stop-color="#b4b4b6"/><stop offset=".5" stop-color="#9c9ca1"/><stop offset="1" stop-color="#cdcdd1"/></linearGradient><linearGradient id="b" gradientTransform="matrix(0 1.1666667 -.4444445 0 108.44444 -10.666665)" gradientUnits="userSpaceOnUse" x1="11.523571" x2="119.74484" y1="251.25061" y2="-32.830193"><stop offset="0" stop-color="#fff"/><stop offset=".42597079" stop-color="#fff"/><stop offset=".5892781" stop-color="#f1f1f1"/><stop offset=".80219781" stop-color="#eaeaea"/><stop offset="1" stop-color="#dfdfdf"/></linearGradient><linearGradient id="c" gradientTransform="matrix(0 1.3706519 -1.3706519 0 134.74104 -39.404461)" gradientUnits="userSpaceOnUse" x1="97.382973" x2="72.265488" y1="20.757973" y2="45.875454"><stop offset="0" stop-color="#fff"/><stop offset="1" stop-color="#fff" stop-opacity="0"/></linearGradient><linearGradient id="d"><stop offset="0" stop-color="#0968ef"/><stop offset="1" stop-color="#aecffc"/></linearGradient><linearGradient id="e" gradientTransform="matrix(0 -.49928123 .49928123 0 .023019 65.840198)" gradientUnits="userSpaceOnUse" x1="113.15723" x2="-44.383411" xlink:href="#d" y1="25.786163" y2="32.026646"/><linearGradient id="f" gradientTransform="matrix(0 .49928123 .49928123 0 .004121 62.159807)" gradientUnits="userSpaceOnUse" x1="113.15723" x2="-44.383411" xlink:href="#d" y1="25.786163" y2="32.026646"/><g transform="translate(24 .000164)"><path d="m13.984 122.07356-8.0010706-13.96732 6.0039306 3.89379.018898-40.00003h3.994242l-.0189 40.00003 5.903433-3.89379-7.900573 13.96732z" fill="url(#f)" fill-rule="evenodd"/><path d="m14.002898 5.92645-8.0010709 13.96732 6.0039309-3.893783v36.000001h3.994242v-36.000001l5.903433 3.893783-7.900574-13.96732z" fill="url(#e)" fill-rule="evenodd"/><path d="m24 51.999836h-20.0000001v20.000013h20.0000001zm-4 4.000026v12l-11.9687813-.062363-.0312189-11.937486z" fill="#797979"/></g><path d="m100 44v-37.40625c0-1.5828572-1.247097-2.84375-2.78125-2.84375l-34.4375.25c-1.534154 0-2.78125 1.2608929-2.78125 2.84375v37.15625 40 37.15625c0 1.58286 1.247093 2.84375 2.78125 2.84375l34.4375.05c1.534154 0 2.78125-1.26089 2.78125-2.84375v-37.20625z" fill="url(#a)"/><g fill-rule="evenodd"><path d="m96 48v-38.5c0-.8309999-.63728-1.5-1.4375-1.5h-29.125c-.800222 0-1.4375.6689999-1.4375 1.5v38.5 32 38.5c0 .831.63728 1.5 1.4375 1.5h29.125c.800222 0 1.4375-.669 1.4375-1.5v-38.5z" fill="url(#b)"/><path d="m96 68.537109c-8.259531-7.680674-17.150647-14.445872-27.0625-19.443359l-4.9375 38.90625c9.569615 1.231419 23.550225 2.403626 32 6.3125v-14.3125z" fill="url(#c)"/></g></svg>