<svg height="128" viewBox="0 0 33.866666 33.866668" width="128" xmlns="http://www.w3.org/2000/svg" xmlns:xlink="http://www.w3.org/1999/xlink"><linearGradient id="a"><stop offset="0" stop-color="#555"/><stop offset="1"/></linearGradient><linearGradient id="b" gradientUnits="userSpaceOnUse" x1="12.7" x2="12.7" xlink:href="#a" y1="292.76666" y2="280.06665"/><linearGradient id="c" gradientUnits="userSpaceOnUse" x1="12.7" x2="12.7" xlink:href="#a" y1="277.94998" y2="265.25"/><linearGradient id="d" gradientUnits="userSpaceOnUse" x1="88.591797" x2="71.262016" y1="96.592697" y2="79.262917"><stop offset="0" stop-color="#fff"/><stop offset="1" stop-color="#555753"/></linearGradient><filter id="e"><feGaussianBlur stdDeviation=".40750996"/></filter><filter id="f"><feGaussianBlur stdDeviation=".90565481"/></filter><linearGradient id="g" gradientUnits="userSpaceOnUse" x1="85.219681" x2="61.336319" y1="93.219681" y2="69.336319"><stop offset="0"/><stop offset="1" stop-color="#393b38"/></linearGradient><filter id="h"><feGaussianBlur stdDeviation=".4901192"/></filter><linearGradient id="i" gradientUnits="userSpaceOnUse" x1="96" x2="88.000198" y1="104" y2="96.000198"><stop offset="0" stop-color="#888a85"/><stop offset=".0072" stop-color="#8c8e89"/><stop offset=".0673" stop-color="#abaca9"/><stop offset=".1347" stop-color="#c5c6c4"/><stop offset=".2115" stop-color="#dbdbda"/><stop offset=".3012" stop-color="#ebebeb"/><stop offset=".4122" stop-color="#f7f7f6"/><stop offset=".5679" stop-color="#fdfdfd"/><stop offset="1" stop-color="#fff"/></linearGradient><linearGradient id="j" gradientUnits="userSpaceOnUse" x1="78.61085034347" x2="120.34349451992" y1="88.85241574791" y2="111.54715161013"><stop offset="0" stop-color="#fff"/><stop offset="1" stop-color="#ccc"/></linearGradient><linearGradient id="k" gradientUnits="userSpaceOnUse" x1="100.83452" x2="116.42799" y1="37.992622" y2="80.92411"><stop offset="0" stop-color="#fff" stop-opacity=".55036"/><stop offset="1" stop-color="#fff" stop-opacity="0"/></linearGradient><linearGradient id="l" gradientTransform="matrix(.5963646 0 0 .63697579 63.973141 -536.55347)" gradientUnits="userSpaceOnUse" x1="65.456863" x2="65.985519" y1="947.38373" y2="1011.6694"><stop offset="0" stop-color="#363636"/><stop offset="1" stop-color="#cdcdcd"/></linearGradient><linearGradient id="m" gradientUnits="userSpaceOnUse" x1="88.38102" x2="130.48599" y1="1008.9966" y2="1015.6953"><stop offset="0" stop-color="#5e5e5e"/><stop offset="1" stop-color="#5e5e5e" stop-opacity="0"/></linearGradient><clipPath id="n"><path d="m50.951443 938.9306h73.863686v112.22136h-73.863686z"/></clipPath><filter id="o" color-interpolation-filters="sRGB" height="1.12903" width="1.240695" x="-.120348" y="-.064515"><feGaussianBlur stdDeviation="1.8475301"/></filter><linearGradient id="p" gradientUnits="userSpaceOnUse" x1="102.76810981741" x2="102.87246122723" y1="74.23259508393" y2="91.76373127785"><stop offset="0" stop-color="#979797"/><stop offset=".148461" stop-color="#f6f6f6"/><stop offset=".28399727" stop-color="#e2e2e2"/><stop offset=".59572202" stop-color="#dedede"/><stop offset=".73809379" stop-color="#f6f6f6"/><stop offset="1" stop-color="#6b6b6b"/></linearGradient><linearGradient id="q" gradientUnits="userSpaceOnUse" x1="102.65403035741" x2="102.70640767086" y1="-113.35273306667" y2="-92.58658629367"><stop offset="0" stop-color="#777"/><stop offset=".07421063" stop-color="#a8a8a8"/><stop offset=".22864534" stop-color="#cdcdcd"/><stop offset=".34561315" stop-color="#f7f7f7"/><stop offset="1" stop-color="#fff"/></linearGradient><g transform="translate(0 -263.13332)"><text style="font-size:18.749088;font-family:sans-serif;letter-spacing:0;word-spacing:0;stroke-width:.468727;fill:url(#c)" x="2.865673" y="278.99606"><tspan fill="url(#c)" font-family="FreeSans" stroke-width=".468727" x="2.865673" y="278.99606">AB</tspan></text><path d="m28.574999 269.48331h5.291666v2.116667h-5.291666z" fill="#252525" fill-opacity=".942892"/><text style="font-size:18.749088;font-family:sans-serif;letter-spacing:0;word-spacing:0;stroke-width:.468727;fill:url(#b)" x="2.865673" y="294.34213"><tspan fill="url(#b)" font-family="FreeSans" stroke-width=".468727" x="2.865673" y="294.34213">CD</tspan></text><g transform="matrix(.26458333 0 0 .26458333 0 263.13332)"><g transform="translate(.000002)"><path d="m111.414 86.586c.25-.25-26.379-1.586-31.414-1.586-1.654 0-3 1.346-3 3 0 5.035 1.336 31.664 1.586 31.414z" fill="url(#d)" filter="url(#e)" opacity=".1"/><path d="m111.414 86.586c.375-.375-21.97-.586-31.414-.586-1.103 0-2 .897-2 2 0 9.444.211 31.789.586 31.414z" filter="url(#f)" opacity=".2"/><path d="m111.414 86.586c.239-.239-21.607.414-31.414.414-.553 0-1 .447-1 1 0 9.807-.653 31.653-.414 31.414z" fill="url(#g)" filter="url(#h)" opacity=".1"/><path d="m78.586 119.414s11.914-9.914 17.414-15.414 15.414-17.414 15.414-17.414-21.164 1.414-31.414 1.414c0 10.25-1.414 31.414-1.414 31.414z" fill="url(#i)"/></g><path d="m76.468002 50.141159h51.194408v77.779846h-51.194408z" fill="#4d4d4d"/><path d="m78.610855 51.745529h46.908691v74.213753h-46.908691z" fill="url(#j)"/><path d="m78.611158 51.745994v51.285156c16.429399-20.561618 32.025322-27.545067 46.908202-28.796875v-22.488281z" fill="url(#k)" fill-rule="evenodd"/><path d="m90.869019 66.535934h22.89193v42.1455h-22.89193z" fill="url(#l)"/><path clip-path="url(#n)" d="m92.81509 1029.6319c1.071428 1.4286 10.71429 15.3572 11.78571 13.5715 1.07143-1.7858 26.42857-25.3572 25-26.7858-1.42857-1.4285-33.928567-41.78567-33.928567-41.78567z" fill="url(#m)" fill-rule="evenodd" filter="url(#o)" transform="matrix(.69309305 0 0 .69309305 41.153912 -600.6251)"/><path d="m92.998886 69.547226h18.632183v36.122967h-18.632183z" fill="#171717"/><path d="m94.788589 74.331589h15.05279v17.709164h-15.05279z" fill="url(#p)"/><path d="m94.827606-113.59648h14.974748v21.984106h-14.974748z" fill="url(#q)" transform="scale(1 -1)"/></g></g></svg>