<?xml version="1.0" encoding="UTF-8" standalone="no"?>
<svg
   xmlns:dc="http://purl.org/dc/elements/1.1/"
   xmlns:cc="http://creativecommons.org/ns#"
   xmlns:rdf="http://www.w3.org/1999/02/22-rdf-syntax-ns#"
   xmlns:svg="http://www.w3.org/2000/svg"
   xmlns="http://www.w3.org/2000/svg"
   xmlns:sodipodi="http://sodipodi.sourceforge.net/DTD/sodipodi-0.dtd"
   xmlns:inkscape="http://www.inkscape.org/namespaces/inkscape"
   height="128"
   width="128"
   version="1.1"
   id="svg42"
   sodipodi:docname="insertcellsright.svg"
   inkscape:export-filename="/home/rizmut/Dokumen/Rizmut/Github/libreoffice-style-karasa-jaga/build/images_karasa_jaga/cmd/32/insertcellsright.png"
   inkscape:export-xdpi="24"
   inkscape:export-ydpi="24"
   inkscape:version="0.92.3 (unknown)">
  <metadata
     id="metadata48">
    <rdf:RDF>
      <cc:Work
         rdf:about="">
        <dc:format>image/svg+xml</dc:format>
        <dc:type
           rdf:resource="http://purl.org/dc/dcmitype/StillImage" />
        <dc:title></dc:title>
      </cc:Work>
    </rdf:RDF>
  </metadata>
  <defs
     id="defs46" />
  <sodipodi:namedview
     pagecolor="#ffffff"
     bordercolor="#666666"
     borderopacity="1"
     objecttolerance="10"
     gridtolerance="10"
     guidetolerance="10"
     inkscape:pageopacity="0"
     inkscape:pageshadow="2"
     inkscape:window-width="1366"
     inkscape:window-height="706"
     id="namedview44"
     showgrid="true"
     inkscape:zoom="7.375"
     inkscape:cx="42.392369"
     inkscape:cy="56.418969"
     inkscape:window-x="0"
     inkscape:window-y="0"
     inkscape:window-maximized="1"
     inkscape:current-layer="svg42">
    <inkscape:grid
       type="xygrid"
       id="grid858"
       spacingx="4"
       spacingy="4"
       empspacing="2" />
  </sodipodi:namedview>
  <linearGradient
     id="a"
     gradientTransform="matrix(1.0384874 0 0 .67879268 2.461539 34.827349)"
     gradientUnits="userSpaceOnUse"
     x1="46.048"
     x2="46.048"
     y1="128.01709"
     y2="16.6203">
    <stop
       offset="0"
       stop-color="#c7cdd7"
       id="stop2" />
    <stop
       offset="1"
       stop-color="#fff"
       id="stop4" />
  </linearGradient>
  <linearGradient
     id="b"
     gradientUnits="userSpaceOnUse"
     x1="120"
     x2="120"
     y1="-32.325989"
     y2="104.05867">
    <stop
       offset="0"
       stop-color="#fff"
       id="stop7" />
    <stop
       offset="1"
       stop-color="#555"
       id="stop9" />
  </linearGradient>
  <path
     d="m8 28h108v76h-108z"
     fill="url(#a)"
     id="path12" />
  <text
     x="552.36987"
     y="202.81038"
     id="text16">
    <tspan
       fill="#555"
       x="552.36987"
       y="219.61037"
       id="tspan14" />
  </text>
  <text
     x="284.18808"
     y="202.81038"
     id="text20">
    <tspan
       fill="#555"
       x="284.18808"
       y="219.61037"
       id="tspan18" />
  </text>
  <text
     x="-10.252362"
     y="133.87732"
     id="text24">
    <tspan
       fill="#555"
       x="-10.252362"
       y="150.67731"
       id="tspan22" />
  </text>
  <text
     x="161.66467"
     y="-39.856026"
     id="text28">
    <tspan
       fill="#555"
       x="161.66467"
       y="-23.056038"
       id="tspan26" />
  </text>
  <path
     d="m4 24v20 4 16 4 16 4 16 4h4 20 4 28 4 28 4 20 4v-4-16-4-16-4-16-4-16-4h-112zm4 4h20v16h-20zm24 0h28v16h-28zm32 0h28v16h-28zm32 0h20v16h-20zm-88 20h20v16h-20zm24 0h28v16h-28zm32 0h28v16h-28zm32 0h20v16h-20zm-88 20h20v16h-20zm24 0h28v16h-28zm32 0h28v16h-28zm32 0h20v16h-20zm-88 20h20v16h-20zm24 0h28v8 8h-28zm32 0h28v16h-28v-8zm32 0h20v16h-20z"
     fill="url(#b)"
     id="path30" />
  <path
     d="m92 64v4 16 4h28v-4-20h-4-20zm4 4h20v16h-20z"
     fill="#0d3eab"
     id="path32" />
  <path
     d="m96 68h20v16h-20z"
     fill="#c7d9f2"
     id="path34" />
  <g
     transform="matrix(0 1 1 0 .000435 32)"
     id="g40">
    <path
       style="fill:#ffffff;fill-opacity:0.77647101"
       d="m 40,39.998047 c -1.047519,2.18e-4 -2.087417,0.43312 -2.828125,1.173828 C 36.431167,41.912583 35.998265,42.952481 35.998047,44 v 11.292969 a 0.70579255,0.70579255 0 0 1 -0.705078,0.705078 H 24 c -1.510882,2.23e-4 -2.982052,0.936517 -3.623047,2.304687 -0.640995,1.368171 -0.417996,3.098725 0.548828,4.259766 l 20,24 c 0.748208,0.898087 1.905299,1.439453 3.074219,1.439453 1.16892,0 2.326011,-0.541366 3.074219,-1.439453 l 20,-24 c 0.966824,-1.161041 1.189823,-2.891595 0.548828,-4.259766 C 66.982052,56.934564 65.510882,55.99827 64,55.998047 H 52.707031 A 0.70579255,0.70579255 0 0 1 52.001953,55.292969 V 44 C 52.001735,42.952481 51.568833,41.912583 50.828125,41.171875 50.087417,40.431167 49.047519,39.998265 48,39.998047 Z"
       id="path36" />
    <path
       d="m40 43.999565v16.000435h-16l20 24 20-24h-16v-16.000435z"
       fill="#2871d7"
       stroke="#2a5695"
       stroke-linecap="square"
       stroke-linejoin="round"
       stroke-width="2"
       id="path38"
       style="stroke:none" />
  </g>
</svg>
