<?xml version="1.0" encoding="UTF-8" standalone="no"?>
<!-- Created with Inkscape (http://www.inkscape.org/) -->

<svg
   xmlns:dc="http://purl.org/dc/elements/1.1/"
   xmlns:cc="http://creativecommons.org/ns#"
   xmlns:rdf="http://www.w3.org/1999/02/22-rdf-syntax-ns#"
   xmlns:svg="http://www.w3.org/2000/svg"
   xmlns="http://www.w3.org/2000/svg"
   xmlns:xlink="http://www.w3.org/1999/xlink"
   xmlns:sodipodi="http://sodipodi.sourceforge.net/DTD/sodipodi-0.dtd"
   xmlns:inkscape="http://www.inkscape.org/namespaces/inkscape"
   version="1.1"
   id="svg2"
   width="128"
   height="128"
   viewBox="0 0 128 128"
   sodipodi:docname="pushbutton.svg"
   inkscape:version="0.92.3 (unknown)"
   inkscape:export-filename="/home/rizmut/Dokumen/Rizmut/Github/libreoffice-style-karasa-jaga/build/images_karasa_jaga/cmd/32/pushbutton.png"
   inkscape:export-xdpi="24"
   inkscape:export-ydpi="24">
  <metadata
     id="metadata8">
    <rdf:RDF>
      <cc:Work
         rdf:about="">
        <dc:format>image/svg+xml</dc:format>
        <dc:type
           rdf:resource="http://purl.org/dc/dcmitype/StillImage" />
        <dc:title></dc:title>
      </cc:Work>
    </rdf:RDF>
  </metadata>
  <defs
     id="defs6">
    <linearGradient
       inkscape:collect="always"
       id="linearGradient1084">
      <stop
         style="stop-color:#b3b3b7;stop-opacity:1;"
         offset="0"
         id="stop1080" />
      <stop
         style="stop-color:#e5e5e5;stop-opacity:0.99607843"
         offset="1"
         id="stop1082" />
    </linearGradient>
    <linearGradient
       inkscape:collect="always"
       id="linearGradient838">
      <stop
         style="stop-color:#ffffff;stop-opacity:1;"
         offset="0"
         id="stop834" />
      <stop
         style="stop-color:#bbbbbb;stop-opacity:1"
         offset="1"
         id="stop836" />
    </linearGradient>
    <linearGradient
       inkscape:collect="always"
       xlink:href="#linearGradient838"
       id="linearGradient840"
       x1="26.221916"
       y1="59.536545"
       x2="96.5784"
       y2="57.715343"
       gradientUnits="userSpaceOnUse"
       gradientTransform="rotate(90,65.170062,65.407638)" />
    <filter
       inkscape:collect="always"
       style="color-interpolation-filters:sRGB"
       id="filter894"
       x="-0.004120197"
       width="1.0082404"
       y="-0.0057484538"
       height="1.0114969">
      <feGaussianBlur
         inkscape:collect="always"
         stdDeviation="0.13885547"
         id="feGaussianBlur896" />
    </filter>
    <linearGradient
       inkscape:collect="always"
       xlink:href="#linearGradient1084"
       id="linearGradient1086"
       x1="72.618614"
       y1="101.35709"
       x2="73.819366"
       y2="47.875233"
       gradientUnits="userSpaceOnUse"
       gradientTransform="matrix(0.93648849,0,0,0.98545416,3.8425034,-8.1226928)" />
    <filter
       inkscape:collect="always"
       style="color-interpolation-filters:sRGB"
       id="filter1111"
       x="-0.027391839"
       width="1.0547837"
       y="-0.052498037"
       height="1.1049961">
      <feGaussianBlur
         inkscape:collect="always"
         stdDeviation="0.668475"
         id="feGaussianBlur1113" />
    </filter>
  </defs>
  <sodipodi:namedview
     pagecolor="#ffffff"
     bordercolor="#666666"
     borderopacity="1"
     objecttolerance="10"
     gridtolerance="10"
     guidetolerance="10"
     inkscape:pageopacity="0"
     inkscape:pageshadow="2"
     inkscape:window-width="1366"
     inkscape:window-height="706"
     id="namedview4"
     showgrid="true"
     inkscape:snap-page="true"
     inkscape:snap-global="true"
     inkscape:zoom="2.4494288"
     inkscape:cx="107.28813"
     inkscape:cy="92.95714"
     inkscape:window-x="0"
     inkscape:window-y="0"
     inkscape:window-maximized="1"
     inkscape:current-layer="svg2"
     inkscape:snap-smooth-nodes="true">
    <inkscape:grid
       type="xygrid"
       id="grid834"
       spacingx="4"
       spacingy="4"
       empspacing="1" />
  </sodipodi:namedview>
  <g
     id="g843">
    <path
       inkscape:connector-curvature="0"
       id="path827"
       d="m 17.745478,27.999997 v 0.0449 h -2.936159 c -3.985315,0 -11.002488,3.439171 -11.002488,7.710136 v 56.491455 c 0,4.27098 7.017173,7.708598 11.002488,7.708598 h 2.936159 V 100 h 46.255472 46.25357 v -0.04492 h 2.93616 c 3.98531,0 11.00249,-3.437618 11.00249,-7.708598 V 35.75503 c 0,-4.270964 -7.01718,-7.710136 -11.00249,-7.710136 h -2.93616 V 28 H 64.00095 Z"
       style="opacity:1;fill:#8b8b91;fill-opacity:0.99586056;stroke:none;stroke-width:1.01176429;stroke-linecap:round;stroke-linejoin:bevel;stroke-miterlimit:4;stroke-dasharray:none;stroke-dashoffset:0;stroke-opacity:1" />
    <path
       inkscape:connector-curvature="0"
       id="path904"
       d="m 19.009226,31.999992 v 0.04018 H 16.36072 C 12.766178,32.040169 8,35.096247 8,38.89267 v 50.214598 c 0,3.796433 4.766178,6.852514 8.36072,6.852514 h 2.648506 V 96 h 42.954093 0.327404 46.700047 v -0.04022 h 2.64851 c 3.59454,0 8.36072,-3.056081 8.36072,-6.852514 v -50.21459 c 0,-3.796423 -4.76618,-6.852501 -8.36072,-6.852501 h -2.64851 V 32 H 62.290723 61.963319 Z"
       style="opacity:1;fill:url(#linearGradient1086);fill-opacity:1;stroke:none;stroke-width:0.90592974;stroke-linecap:round;stroke-linejoin:bevel;stroke-miterlimit:4;stroke-dasharray:none;stroke-dashoffset:0;stroke-opacity:1" />
    <path
       inkscape:connector-curvature="0"
       id="path829"
       d="m 16.195312,22.822266 a 0.97562317,0.97562317 0 0 0 -0.310546,0.05078 h -2.517578 c -2.246364,0 -4.6422827,1.070615 -6.5527349,2.777344 -1.9104522,1.706728 -3.3496094,4.11354 -3.3496093,6.857421 V 95.96875 c 0,2.743882 1.4391572,5.15069 3.3496093,6.85742 1.9104521,1.70673 4.3063709,2.77735 6.5527349,2.77735 h 2.517578 a 0.97562317,0.97562317 0 0 0 0.310546,0.0508 H 66.0625 66.642578 112.2793 a 0.97562317,0.97562317 0 0 0 0.31054,-0.0508 h 2.51758 c 2.24637,0 4.64228,-1.07062 6.55274,-2.77735 1.91045,-1.70673 3.34961,-4.113541 3.34961,-6.85742 V 32.507812 c 0,-2.743882 -1.43916,-5.150693 -3.34961,-6.857421 -1.91046,-1.706729 -4.30638,-2.777344 -6.55274,-2.777344 h -2.51758 a 0.97562317,0.97562317 0 0 0 -0.31054,-0.05078 H 66.642578 66.0625 Z m 1.982422,5.171875 H 66.0625 66.642578 110.29883 a 0.97562317,0.97562317 0 0 0 0.29883,0.04687 h 2.73046 c 1.53667,0 3.55112,0.802137 5.09961,2.123046 1.54849,1.32091 2.61133,3.093934 2.61133,4.964844 v 59.083985 c 0,1.87091 -1.06284,3.643934 -2.61133,4.964843 -1.54849,1.320901 -3.56294,2.123051 -5.09961,2.123051 h -2.73046 a 0.97562317,0.97562317 0 0 0 -0.30469,0.0488 H 66.642578 66.0625 18.181641 a 0.97562317,0.97562317 0 0 0 -0.304688,-0.0488 h -2.730469 c -1.536659,0 -3.551118,-0.80214 -5.099609,-2.123051 C 8.4983844,97.856825 7.4355469,96.0838 7.4355469,94.212891 V 35.128906 c -1e-7,-1.870909 1.0628374,-3.643934 2.6113281,-4.964844 1.548491,-1.320909 3.56295,-2.123046 5.099609,-2.123046 h 2.730469 a 0.97562317,0.97562317 0 0 0 0.300781,-0.04687 z"
       style="opacity:1;fill:url(#linearGradient840);fill-opacity:1;stroke:none;stroke-width:1.05240166;stroke-linecap:round;stroke-linejoin:bevel;stroke-miterlimit:4;stroke-dasharray:none;stroke-dashoffset:0;stroke-opacity:1;filter:url(#filter894)"
       transform="matrix(0.91379548,0,0,0.76809658,5.3961792,14.469338)" />
    <text
       transform="matrix(0.95777545,0,0,0.95777545,3.9271466,2.7023713)"
       xml:space="preserve"
       style="font-style:normal;font-weight:normal;font-size:40px;line-height:125%;font-family:sans-serif;letter-spacing:0px;word-spacing:0px;fill:#ebebec;fill-opacity:0.99607843;stroke:none;stroke-width:1px;stroke-linecap:butt;stroke-linejoin:miter;stroke-opacity:1;filter:url(#filter1111)"
       x="32.46949"
       y="80.360001"
       id="text1097"><tspan
         sodipodi:role="line"
         id="tspan1095"
         x="32.46949"
         y="80.360001"
         style="font-style:normal;font-variant:normal;font-weight:600;font-stretch:normal;font-family:FreeSans;-inkscape-font-specification:'FreeSans Semi-Bold';fill:#ebebec;fill-opacity:0.99607843">OK</tspan></text>
    <text
       id="text1093"
       y="76.018555"
       x="34.719433"
       style="font-style:normal;font-weight:normal;font-size:38.3110199px;line-height:125%;font-family:sans-serif;letter-spacing:0px;word-spacing:0px;fill:#47474b;fill-opacity:0.99607843;stroke:none;stroke-width:0.95777547px;stroke-linecap:butt;stroke-linejoin:miter;stroke-opacity:1"
       xml:space="preserve"><tspan
         style="font-style:normal;font-variant:normal;font-weight:600;font-stretch:normal;font-family:FreeSans;-inkscape-font-specification:'FreeSans Semi-Bold';fill:#47474b;fill-opacity:0.99607843;stroke-width:0.95777547px"
         y="76.018555"
         x="34.719433"
         id="tspan1091"
         sodipodi:role="line">OK</tspan></text>
  </g>
</svg>
