<svg height="128" viewBox="0 0 33.866666 33.866668" width="128" xmlns="http://www.w3.org/2000/svg" xmlns:xlink="http://www.w3.org/1999/xlink"><linearGradient id="a" gradientUnits="userSpaceOnUse" x1="15.874999" x2="16.933332" y1="292.76666" y2="268.42499"><stop offset="0" stop-color="#555"/><stop offset="1"/></linearGradient><linearGradient id="b" gradientUnits="userSpaceOnUse" x1="19.576172" x2="108.8457" y1="47.831055" y2="47.831055"><stop offset="0" stop-color="#3b3e22"/><stop offset="1" stop-color="#454545" stop-opacity="0"/></linearGradient><g transform="translate(-.296333 -266.392974)"><text style="font-size:35.199669;font-family:sans-serif;letter-spacing:0;word-spacing:0;stroke-width:.879992;fill:url(#a)" x="3.579812" y="292.54968"><tspan fill="url(#a)" font-family="FreeSerif" font-size="37.041668" stroke-width=".879992" x="3.579812" y="292.54968">Q</tspan></text><path d="m64.207031 17.685547c-13.085843 0-23.682137 4.422492-32.066406 13.353515a1.143002 1.143002 0 0 1 -.0078.0078c-8.381229 8.836724-12.55664 20.117822-12.55664 34.074219 0 1.25443.03998 2.47413.09961 3.673828a70.963216 40.658641 0 0 0 14.173828 6.197266c-.395407-3.356358-.601562-6.920073-.601562-10.712891 0-3.781153.235595-7.466645.708984-11.064453a1.143002 1.143002 0 0 1 .0078-.0293c.572334-3.720151 1.566742-7.566541 2.988281-11.546875a1.143002 1.143002 0 0 1 .0078-.02148c1.521808-3.994734 3.381841-7.495008 5.595703-10.482422l.01563-.01367c2.254692-3.130961 5.293391-5.670363 9.05664-7.603516 3.819848-2.056819 8.173661-3.078125 13-3.078125 9.20346 0 16.74082 4.17547 22.226563 12.259766 5.579864 7.992378 8.318359 18.644169 8.318359 31.861328 0 3.882784-.28702 7.718193-.855469 11.507812-.07921.630558-.189934 1.270589-.294921 1.908203a70.963216 40.658641 0 0 0 14.177729-4.066406c.0001-.000634-.00009-.0013 0-.002.42861-2.891411.64453-5.912933.64453-9.068359 0-13.861153-4.18164-25.095207-12.564447-33.933594-8.383027-8.838595-18.985689-13.220646-32.074212-13.220646z" fill="url(#b)" transform="matrix(.26458333 0 0 .26458333 0 263.13332)"/></g></svg>