<svg height="128" viewBox="0 0 33.866666 33.866668" width="128" xmlns="http://www.w3.org/2000/svg" xmlns:xlink="http://www.w3.org/1999/xlink"><linearGradient id="a" gradientTransform="matrix(.06071576 0 0 .09758953 24.201706 -45.627655)" gradientUnits="userSpaceOnUse" x1="399.77466" x2="399.77466" y1="1164.6696" y2="549.06134"><stop offset="0" stop-color="#b4b4b6"/><stop offset=".5" stop-color="#9c9ca1"/><stop offset="1" stop-color="#cdcdd1"/></linearGradient><linearGradient id="b" gradientTransform="matrix(.5415355 0 0 .7222225 23.477667 -8.222219)" gradientUnits="userSpaceOnUse" x1="119.57646" x2="21.94787" y1="23.792561" y2="66.056725"><stop offset="0" stop-color="#fff"/><stop offset=".42597079" stop-color="#fff"/><stop offset=".5892781" stop-color="#f1f1f1"/><stop offset=".80219781" stop-color="#eaeaea"/><stop offset="1" stop-color="#dfdfdf"/></linearGradient><linearGradient id="c" gradientTransform="matrix(0 -1.5975038 -2 0 96 199.26848)" gradientUnits="userSpaceOnUse" x1="102.31124" x2="57.639416" y1="-5.830213" y2="55.972313"><stop offset="0" stop-color="#fff"/><stop offset="1" stop-color="#fff" stop-opacity="0"/></linearGradient><linearGradient id="d" gradientUnits="userSpaceOnUse" x1="2.7162084544" x2="2.7162084544" y1="-269.82111413405" y2="-265.71313341879"><stop offset="0" stop-color="#06f"/><stop offset="1" stop-color="#80b3ff"/></linearGradient><filter id="e" color-interpolation-filters="sRGB" height="1.041167" width="1.057553" x="-.028776" y="-.020584"><feGaussianBlur stdDeviation=".64701605"/></filter><linearGradient id="f" gradientTransform="matrix(.95940355 0 0 -.95940355 4.47639 -1.169343)" gradientUnits="userSpaceOnUse" x1="79.930611" x2="81.106064" y1="-60.215706" y2="-22.683981"><stop offset="0" stop-color="#e05f5b"/><stop offset="1" stop-color="#b83b2e" stop-opacity=".98848"/></linearGradient><linearGradient id="g" gradientTransform="scale(1 -1)" gradientUnits="userSpaceOnUse" x1="79.930611" x2="81.106064" y1="-60.215706" y2="-22.683981"><stop offset="0" stop-color="#eda4a2"/><stop offset="1" stop-color="#db8f87" stop-opacity=".988235"/></linearGradient><filter id="h" color-interpolation-filters="sRGB" height="1.039911" width="1.060203" x="-.030101" y="-.019955"><feGaussianBlur stdDeviation=".529834"/></filter><filter id="i" color-interpolation-filters="sRGB" height="1.127648" width="1.060204" x="-.030102" y="-.063824"><feGaussianBlur stdDeviation=".5298428"/></filter><g transform="translate(0 -263.13332)"><g transform="matrix(.33441913 0 0 .33441913 5.477946 259.72704)"><rect fill="url(#a)" height="69.623207" opacity=".75" rx="3.961678" transform="matrix(0 1 1 0 0 0)" width="69.623192" x="29.173832" y="-3.721716"/><g fill-rule="evenodd"><rect fill="url(#b)" height="63.293827" rx="1.199764" ry="1.444445" transform="matrix(0 1 1 0 0 0)" width="63.293823" x="32.338524" y="-.557025"/><path d="m62.736801 54.491362c-18.856166 17.067037-38.545057 28.00934-63.29382565 37.976295v-43.482059c23.69395965-2.435347 44.39213565-4.981352 63.29382565-15.461473z" fill="url(#c)"/></g></g><use height="128" transform="translate(26.458337)" width="128" xlink:href="#j"/><use height="128" transform="matrix(.9999993 0 0 1.012156 .000007 23.182493)" width="128" xlink:href="#j"/><use height="128" transform="translate(26.458337 26.458332)" width="128" xlink:href="#j"/><rect id="j" fill="url(#d)" height="5.291587" rx=".068258" ry=".082446" transform="scale(1 -1)" width="5.291587" x=".000037" y="-270.5416"/><rect id="k" fill="#bfd9ff" height="3.175002" rx=".122867" ry=".148404" transform="scale(1 -1)" width="3.175002" x="1.058331" y="-269.48334"/><g fill="#a4c0e4"><use height="88" transform="translate(26.458335 -.000014)" width="88" xlink:href="#k"/><use height="88" transform="matrix(.9999625 0 0 .9999623 .000079 26.468438)" width="88" xlink:href="#k"/><use height="88" transform="translate(26.458335 26.458318)" width="88" xlink:href="#k"/></g><g transform="matrix(.26458333 0 0 .26458333 0 263.13332)"><g fill="#121212" fill-opacity=".816176" filter="url(#e)" stroke-width="2.408786" transform="matrix(.95940357 0 0 -.95940357 3.568427 -.56031)"><path d="m124.58116-76.265448v50.835401c0 5.081031-1.08207 9.487729-3.24622 13.220092-2.16414 3.7009981-5.26921 6.5237934-9.31522 8.4683858s-8.82908 2.91688865-14.349213 2.91688865c-8.342929 0-14.913769-2.16414315-19.712521-6.49242955-4.798753-4.3282869-7.245176-10.2561569-7.339269-17.7836109v-51.164727l20.607989.000176v51.494053c.10799 4.301616 1.300456 5.368995 3.577398 7.202138 2.286838 3.103044 3.684997 2.096236 6.850696-1.171842 1.75641-1.881864 2.63461-2.939893 2.63461-7.174086v-50.741307z" fill="#121212" fill-opacity=".816176" stroke-width="2.408786"/></g><path d="m124.58116-76.265448v50.835401c0 5.081031-1.08207 9.487729-3.24622 13.220092-2.16414 3.7009981-5.26921 6.5237934-9.31522 8.4683858s-8.82908 2.91688865-14.349213 2.91688865c-8.342929 0-14.913769-2.16414315-19.712521-6.49242955-4.798753-4.3282869-7.245176-10.2561569-7.339269-17.7836109v-51.164727h20.608387v51.494053c.10799 4.301616 1.196702 5.505918 3.577398 7.202138 3.449189 3.357523 2.230423.697507 6.295768-.780798 1.75641-1.881864 2.58055-2.940238 2.63461-7.174086v-50.741307z" fill="#a51e1e" transform="matrix(.95940357 0 0 -.95940357 4.47639 -1.169343)"/><path d="m75.236151 68.992664v-46.042003c.08238-6.590544 2.079993-11.289043 6.046867-14.867007 3.960201-3.5719468 9.414007-5.4547339 16.898245-5.4547339 4.942507 0 9.063937.867076 12.464747 2.5015699 3.39777 1.6330327 5.85996 3.8860904 7.63963 6.927568 1.77767 3.068043 2.70769 6.725264 2.70769 11.169931v45.764675l-14.05583.069836v-45.674731c0-4.478197-.8847-6.306669-3.33729-8.934445-5.22788-3.575274-7.226937-2.825273-11.163606-.0756-2.331789 2.510705-3.340604 4.095379-3.442235 8.143687-.000952.02497-.0016.04996-.0019.07496v46.396157z" fill="url(#f)"/><path d="m72.228647 48.112519v23.88765l19.771353-.000169v-23.88765zm31.771353-.000169v23.88765l20.00083.000169-.00083-24.000169z" fill="#7c3530" fill-opacity=".98848"/><path d="m97.669922 6.6835938c-7.343937 0-12.231581 1.7756652-15.789063 4.9843752-3.591571 3.239456-5.323152 7.170735-5.402343 13.505859v45.232422h4.888672c0-15.211589 0-45.655599 0-45.666016.000498-.0433.0025-.0853.0039-.126953.119558-4.646418 1.763982-7.515552 4.314453-10.261719 3.059964-3.294752 7.471277-4.6835932 11.984375-4.6835932 4.536768 0 8.967268 1.3840072 12.046878 4.6835932 2.76356 2.960955 4.21093 6.145311 4.21093 11.171876v44.882812h4.79493v-44.976562c0-4.246992-.86459-7.52601-2.44922-10.265626l-.002-.0039c-1.597584-2.728849-3.667674-4.6385-6.789014-6.1386776-3.10912-1.4943018-6.97954-2.3378906-11.812498-2.3378906z" fill="url(#g)" filter="url(#h)" transform="matrix(.95940357 0 0 .95940357 2.295128 -2.412264)"/><g fill-opacity=".98848"><path d="m75.236151 48.112519v2.971903h-.0356v17.943845l13.827549-.000169v-17.943845h-.0356v-2.971903zm31.771349-.000169v2.971903h-.0356v17.943845l14.05703.000169v-17.943845h-.0356v-2.971903z" fill="#f2e5e3"/><path d="m76.782121 51.10174v19.923828h4.888672v-19.923828zm33.115739-.000176v19.923828l9.1284.000176v-19.923828z" fill="#fffbfb" filter="url(#i)" transform="matrix(.95940357 0 0 .95940357 1.805781 -1.027192)"/></g></g></g></svg>