<?xml version="1.0" encoding="UTF-8" standalone="no"?>
<!-- Created with Inkscape (http://www.inkscape.org/) -->

<svg
   xmlns:dc="http://purl.org/dc/elements/1.1/"
   xmlns:cc="http://creativecommons.org/ns#"
   xmlns:rdf="http://www.w3.org/1999/02/22-rdf-syntax-ns#"
   xmlns:svg="http://www.w3.org/2000/svg"
   xmlns="http://www.w3.org/2000/svg"
   xmlns:xlink="http://www.w3.org/1999/xlink"
   xmlns:sodipodi="http://sodipodi.sourceforge.net/DTD/sodipodi-0.dtd"
   xmlns:inkscape="http://www.inkscape.org/namespaces/inkscape"
   version="1.1"
   id="svg2"
   width="128"
   height="128"
   viewBox="0 0 128 128"
   sodipodi:docname="starshapes.star24.svg"
   inkscape:export-filename="/home/rizmut/Dokumen/Rizmut/Github/libreoffice-style-karasa-jaga/build/images_karasa_jaga/cmd/32/starshapes.star24.png"
   inkscape:export-xdpi="24"
   inkscape:export-ydpi="24"
   inkscape:version="0.92.3 (unknown)">
  <metadata
     id="metadata8">
    <rdf:RDF>
      <cc:Work
         rdf:about="">
        <dc:format>image/svg+xml</dc:format>
        <dc:type
           rdf:resource="http://purl.org/dc/dcmitype/StillImage" />
        <dc:title />
      </cc:Work>
    </rdf:RDF>
  </metadata>
  <defs
     id="defs6">
    <linearGradient
       inkscape:collect="always"
       id="linearGradient825">
      <stop
         style="stop-color:#f9f9fa;stop-opacity:1;"
         offset="0"
         id="stop821" />
      <stop
         style="stop-color:#f9f9fa;stop-opacity:0;"
         offset="1"
         id="stop823" />
    </linearGradient>
    <linearGradient
       inkscape:collect="always"
       xlink:href="#linearGradient825"
       id="linearGradient983"
       gradientUnits="userSpaceOnUse"
       x1="57.991291"
       y1="-44.160942"
       x2="89.858658"
       y2="102.4722" />
    <linearGradient
       id="linearGradient3369">
      <stop
         id="stop3372"
         offset="0"
         style="stop-color:#ffffff;stop-opacity:1;" />
      <stop
         style="stop-color:#ffffff;stop-opacity:1;"
         offset="0.51373518"
         id="stop3374" />
      <stop
         style="stop-color:#f1f1f1;stop-opacity:1;"
         offset="0.8125"
         id="stop3376" />
      <stop
         id="stop3378"
         offset="0.90625"
         style="stop-color:#eaeaea;stop-opacity:1;" />
      <stop
         id="stop3384"
         offset="1"
         style="stop-color:#dfdfdf;stop-opacity:1;" />
    </linearGradient>
    <linearGradient
       inkscape:collect="always"
       xlink:href="#linearGradient3369"
       id="linearGradient849"
       x1="118.94735"
       y1="98.358978"
       x2="13.874024"
       y2="35.048981"
       gradientUnits="userSpaceOnUse" />
  </defs>
  <sodipodi:namedview
     pagecolor="#ffffff"
     bordercolor="#666666"
     borderopacity="1"
     objecttolerance="10"
     gridtolerance="10"
     guidetolerance="10"
     inkscape:pageopacity="0"
     inkscape:pageshadow="2"
     inkscape:window-width="1366"
     inkscape:window-height="706"
     id="namedview4"
     showgrid="false"
     inkscape:snap-page="true"
     inkscape:snap-global="false"
     inkscape:zoom="0.86600386"
     inkscape:cx="197.01757"
     inkscape:cy="-64.605791"
     inkscape:window-x="0"
     inkscape:window-y="0"
     inkscape:window-maximized="1"
     inkscape:current-layer="svg2" />
  <path
     sodipodi:type="star"
     style="opacity:1;fill:url(#linearGradient849);fill-opacity:1;stroke:#507dbe;stroke-width:3.82664847;stroke-linecap:round;stroke-linejoin:bevel;stroke-miterlimit:4;stroke-dasharray:none;stroke-dashoffset:0;stroke-opacity:0.73039216"
     id="path829"
     sodipodi:sides="24"
     sodipodi:cx="66.474297"
     sodipodi:cy="66.972725"
     sodipodi:r1="56.345581"
     sodipodi:r2="40.995985"
     sodipodi:arg1="0.7998899"
     sodipodi:arg2="0.89267475"
     inkscape:flatsided="false"
     inkscape:rounded="0"
     inkscape:randomized="0"
     d="m 105.73509,107.38825 -13.54273,-8.489801 1.744645,17.274111 -10.883952,-11.70563 -2.785673,17.13706 -7.483449,-14.12375 -7.126151,15.83215 -3.572962,-15.57935 -10.980994,13.44829 0.581017,-15.97325 -14.087501,10.14797 4.6954,-15.2786 -16.233967,6.15607 8.4898,-13.542731 L 17.274457,94.435433 28.980091,83.551481 11.843029,80.765808 25.966777,73.282359 10.134632,66.156208 25.713984,62.583246 12.26569,51.602252 28.238938,52.183269 18.090974,38.095768 l 15.278595,4.6954 -6.156067,-16.233966 13.542731,8.489799 -1.744644,-17.274115 10.883951,11.705633 2.785673,-17.137061 7.483449,14.123747 7.126151,-15.832145 3.572962,15.579352 10.980994,-13.448294 -0.581016,15.973249 14.0875,-10.147964 -4.6954,15.278595 16.233967,-6.156067 -8.4898,13.54273 17.27412,-1.744644 -11.70564,10.883951 17.13706,2.785673 -14.12374,7.483449 15.83214,7.126152 -15.57935,3.572962 13.44829,10.980994 -15.97325,-0.581017 10.14797,14.0875 -15.278596,-4.6954 z"
     transform="matrix(0.54901497,0.88951507,-0.88951507,0.54901497,87.077864,-31.898917)" />
  <text
     xml:space="preserve"
     style="font-style:normal;font-weight:normal;font-size:40px;line-height:125%;font-family:sans-serif;letter-spacing:0px;word-spacing:0px;fill:#ae1010;fill-opacity:1;stroke:none;stroke-width:1px;stroke-linecap:butt;stroke-linejoin:miter;stroke-opacity:1"
     x="40.607189"
     y="78.18"
     id="text960"><tspan
       sodipodi:role="line"
       id="tspan958"
       x="40.607189"
       y="78.18"
       style="font-style:normal;font-variant:normal;font-weight:normal;font-stretch:normal;font-family:FreeSans;-inkscape-font-specification:FreeSans;fill:#ae1010;fill-opacity:1">24</tspan></text>
  <path
     sodipodi:type="star"
     style="opacity:1;fill:url(#linearGradient983);fill-opacity:1;stroke:none;stroke-width:5;stroke-linecap:round;stroke-linejoin:bevel;stroke-miterlimit:4;stroke-dasharray:none;stroke-dashoffset:0;stroke-opacity:0.73039216"
     id="path981"
     sodipodi:sides="12"
     sodipodi:cx="66.474297"
     sodipodi:cy="66.972725"
     sodipodi:r1="56.345581"
     sodipodi:r2="37.865093"
     sodipodi:arg1="0.7998899"
     sodipodi:arg2="0.97804368"
     inkscape:flatsided="false"
     inkscape:rounded="0"
     inkscape:randomized="0"
     d="M 105.73509,107.38825 87.627487,98.378263 80.26738,121.60399 69.090728,104.74731 51.103824,121.18133 49.852898,100.99469 26.058773,106.23352 35.068758,88.125915 11.843029,80.765808 28.699708,69.589156 12.26569,51.602252 32.452327,50.351326 27.213502,26.557202 l 18.107604,9.009985 7.360107,-23.225729 11.176652,16.856678 17.986904,-16.434018 1.250926,20.186638 23.794125,-5.238825 -9.009985,18.107604 23.225725,7.360106 -16.85667,11.176653 16.43401,17.986904 -20.18663,1.250926 z"
     transform="matrix(0.31875684,0.51645045,-0.51645045,0.31875684,174.55794,8.3213049)" />
</svg>
