<svg height="128" width="128" xmlns="http://www.w3.org/2000/svg" xmlns:xlink="http://www.w3.org/1999/xlink"><linearGradient id="a"><stop offset="0" stop-color="#fd0000"/><stop offset="1" stop-color="#8f0000"/></linearGradient><linearGradient id="b"><stop offset="0" stop-color="#fff"/><stop offset="1" stop-color="#fff" stop-opacity="0"/></linearGradient><linearGradient id="c" gradientUnits="userSpaceOnUse" x1="42" x2="72.138878" y1="118.03125" y2="5.551427"><stop offset="0" stop-color="#084775"/><stop offset="1" stop-color="#084775" stop-opacity="0"/></linearGradient><linearGradient gradientUnits="userSpaceOnUse" x1="52.126926" x2="52.126926" y1="-30.36201" y2="-142.433416"><stop offset="0" stop-color="#403a3a"/><stop offset="1" stop-color="#6a5252"/></linearGradient><filter id="d"><feGaussianBlur stdDeviation="1.2346784"/></filter><clipPath id="e"><path d="m-23.029324-146.61201c-5.531616-.24083-10.64527 3.53552-12 8.96875-.000021.01042-.000021.02083 0 .03125l-2.8125 11.40625h-6.03125c-6.441349 0-11.84375 5.4024-11.84375 11.84375v8c0 5.84595 4.517586 10.626564 10.15625 11.5l-4.125 16.65625h-6.1875c-6.441349 0-11.84375 5.402402-11.84375 11.84375v8c0 5.890458 4.58168 10.71459 10.28125 11.53125l-.84375 3.4375c-1.553679 6.23113 2.382454 12.78725 8.625 14.34375l7.78125 1.9375c6.231123 1.55368 12.818494-2.3825 14.375-8.625.000021-.01042.000021-.02083 0-.03125l2.65625-10.75h14.65625l-.78125 3.125c-1.553681 6.23114 2.382455 12.78725 8.625 14.34375l7.78125 1.9375c6.213771 1.54936 12.804599-2.45209 14.34375-8.625.000021-.01042.000021-.02083 0-.03125l2.65625-10.75h9.6875c6.44135 0 11.84375-5.402396 11.84375-11.84375v-8c0-6.441353-5.4024-11.84375-11.84375-11.84375h-1.875l4.03125-16.3125h9.84375c6.44135 0 11.84375-5.402396 11.84375-11.84375v-8c0-6.44135-5.4024-11.84375-11.84375-11.84375h-2.03125l.9375-3.78125c1.55369-6.23115-2.3825-12.78724-8.625-14.34375l-7.78125-1.9375c-6.231121-1.55367-12.818487 2.38251-14.375 8.625-.000021.01042-.000021.02083 0 .03125l-2.8125 11.40625h-14.625l.9375-3.78125c1.571025-6.30072-2.431097-12.79157-8.65625-14.34375l-7.75-1.9375c-.677154-.16884-1.43324-.30275-2.375-.34375zm10.03125 52.09375h14.625l-4.03125 16.3125h-14.625z"/></clipPath><linearGradient id="f" gradientUnits="userSpaceOnUse" x1="14.21454876022" x2="17.8811901954" xlink:href="#a" y1="13.67840919166" y2="46.67840815291"/><radialGradient id="g" cx="72.631729" cy="22.787588" gradientTransform="matrix(7.0638773 0 0 7.0638919 -501.13873 -120.26981)" gradientUnits="userSpaceOnUse" r="1.265237" xlink:href="#a"/><linearGradient id="h" gradientUnits="userSpaceOnUse" x1="8.65403825092" x2="12.78683765101" xlink:href="#b" y1="25.942007738" y2="41.36582556233"/><filter id="i" color-interpolation-filters="sRGB" height="1.123846" width="1.171988" x="-.085994" y="-.061923"><feGaussianBlur stdDeviation="1.7347784"/></filter><radialGradient id="j" cx="72.631729" cy="22.787588" gradientTransform="matrix(7.8874774 0 0 7.8874937 -560.9604 -138.69036)" gradientUnits="userSpaceOnUse" r="1.265237" xlink:href="#a"/><linearGradient id="k" gradientUnits="userSpaceOnUse" x1="8.27074337561" x2="12.88539908464" xlink:href="#b" y1="24.56876354387" y2="41.79089365171"/><path d="m-378.73128 170.7101v-2.79471z" fill="#fff" fill-opacity=".756881"/><path clip-path="url(#e)" d="m22.5 42.5-2.25 15.5 14-11.75zm21.75.5 12 14.625 11-.125 17.25-12.75zm50 2 9.25 12.375h6l4.5-11.375zm-83.5 46.75-2.25 13.375 14.5-10.875zm91 1.25-18 1 7.75 11.375 7.25-.5zm-31 .5-34.5.25 8.75 12.8125 10.3125-.9375z" fill="url(#c)" fill-rule="evenodd" filter="url(#d)" transform="translate(142.57778 -94.108338)"/><path clip-path="url(#e)" d="m22.5 42.5-8.662305 12.749263 6.412305 2.750737 14-11.75zm71.75 2.5 9.25 12.375 18.02082 1.06066-7.52082-12.43566zm-83.5 46.75-10.20495127 12.66789 22.45495127-10.16789zm91 1.25-18 1 7.75 11.375 17.14949.38388z" fill="url(#c)" fill-rule="evenodd" filter="url(#d)" opacity=".450495" transform="translate(142.57778 -94.108338)"/><path d="m96.759766 22.566406-16.038746.029219c-42.664343 1.555213-60.194181 30.937255-60.206487 65.210014l.02258 18.420921 4.017579-.0293.0072-18.391447c-1.158296-37.363242 25.256863-62.518298 56.159188-61.084475l15.99767.0091z" fill="#4d4d4d"/><g transform="translate(10.407193 66.852569)"><rect fill="url(#f)" height="16" rx="1.546875" width="16" x="3.8812" y="29.678408"/><rect fill="url(#g)" height="11.916666" rx=".837891" width="11.916671" x="5.964551" y="31.761745"/><path d="m7.1189636 31.761745c-.61893 0-1.11719.498267-1.11719 1.117188v5.632487c.90549.0861 1.83761.13965 2.79297.13965 3.4383604 0 6.6018004-.57984 9.1236904-1.55941v-4.212727c0-.618921-.49826-1.117188-1.11719-1.117188z" fill="url(#h)"/></g><g transform="translate(91.94415 -13.63353)"><rect fill="url(#f)" height="16" rx="1.546875" width="16" x="3.8812" y="29.678408"/><rect fill="url(#g)" height="11.916666" rx=".837891" width="11.916671" x="5.964551" y="31.761745"/><path d="m7.1189636 31.761745c-.61893 0-1.11719.498267-1.11719 1.117188v5.632487c.90549.0861 1.83761.13965 2.79297.13965 3.4383604 0 6.6018004-.57984 9.1236904-1.55941v-4.212727c0-.618921-.49826-1.117188-1.11719-1.117188z" fill="url(#h)"/></g><g transform="matrix(1.7536286 0 0 1.7536286 17.144165 -28.000028)"><rect fill="url(#f)" height="16" rx="1.546875" width="16" x="3.8812" y="29.678408"/><g stroke-width="1.116593"><rect fill="url(#j)" height="13.306068" rx=".935583" width="13.306074" x="5.267681" y="31.067043"/><path d="m6.5566893 31.067044c-.6910931 0-1.2474468.556361-1.2474468 1.247444v6.289197c1.011064.09614 2.0518629.155932 3.1186114.155932 3.8392501 0 7.3715261-.647445 10.1874511-1.741226v-4.703903c0-.691083-.556354-1.247444-1.247447-1.247444z" fill="url(#k)"/></g></g><g fill-rule="evenodd"><path d="m51.202156 43.382184c-1.986284.0172-3.952729.863732-5.328126 2.296875s-2.142586 3.432658-2.078125 5.417968l20.994141 53.910213h.002c.455233.90897 1.098397 1.7252 1.876954 2.3789 4.610887 3.87448 11.214747 4.32955 15.847657 1.01758 4.67443-3.34163 14.455158-14.504914 12.026258-20.090334-.16002-.36796-.34944-.72301-.5664-1.06055l-.002-.002-37.942281-42.153808c-1.34368-1.111954-3.086036-1.730106-4.830078-1.714844z" fill="#333" fill-opacity=".772059" filter="url(#i)" transform="matrix(1.04339 -.16365769 .16365769 1.04339 -14.818566 1.646031)"/><path d="m46.103274 40.936507c-3.022092.500865-5.039238 3.391537-4.466595 6.400854l30.318247 51.852508c.432512.60598.984499 1.117011 1.621966 1.501601 4.525623 2.73402 10.329859 2.15822 13.733082-1.183131 3.403232-3.34136 12.147772-15.28502 9.309343-19.754778-.157418-.247874-.334593-.482632-.5298-.701986l-46.309497-37.424352c-1.105838-.656466-2.40806-.901103-3.676746-.690716z" fill="#fff"/><path d="m76.395338 96.022819-29.399711-49.705495 44.816314 35.067481c3.417294 5.381292-9.901498 17.969794-15.416603 14.638014z"/></g></svg>