<?xml version="1.0" encoding="UTF-8" standalone="no"?>
<svg
   xmlns:dc="http://purl.org/dc/elements/1.1/"
   xmlns:cc="http://creativecommons.org/ns#"
   xmlns:rdf="http://www.w3.org/1999/02/22-rdf-syntax-ns#"
   xmlns:svg="http://www.w3.org/2000/svg"
   xmlns="http://www.w3.org/2000/svg"
   xmlns:xlink="http://www.w3.org/1999/xlink"
   xmlns:sodipodi="http://sodipodi.sourceforge.net/DTD/sodipodi-0.dtd"
   xmlns:inkscape="http://www.inkscape.org/namespaces/inkscape"
   height="16"
   viewBox="0 0 4.2333333 4.2333335"
   width="16"
   version="1.1"
   id="svg18"
   sodipodi:docname="sc_bold.svg"
   inkscape:version="0.92.4 (unknown)"
   inkscape:export-filename="/home/rizmut/Dokumen/Rizmut/Github/libreoffice-style-karasa-jaga/src/next/cmd/de/sc_bold.png"
   inkscape:export-xdpi="96"
   inkscape:export-ydpi="96">
  <metadata
     id="metadata24">
    <rdf:RDF>
      <cc:Work
         rdf:about="">
        <dc:format>image/svg+xml</dc:format>
        <dc:type
           rdf:resource="http://purl.org/dc/dcmitype/StillImage" />
        <dc:title></dc:title>
      </cc:Work>
    </rdf:RDF>
  </metadata>
  <defs
     id="defs22">
    <linearGradient
       inkscape:collect="always"
       xlink:href="#b"
       id="linearGradient847"
       gradientUnits="userSpaceOnUse"
       x1="18.148382"
       y1="31.629957"
       x2="19.369539"
       y2="3.5433209" />
    <linearGradient
       inkscape:collect="always"
       xlink:href="#b"
       id="linearGradient849"
       gradientUnits="userSpaceOnUse"
       x1="18.148382"
       y1="31.629957"
       x2="19.369539"
       y2="3.5433209" />
  </defs>
  <sodipodi:namedview
     pagecolor="#ffffff"
     bordercolor="#666666"
     borderopacity="1"
     objecttolerance="10"
     gridtolerance="10"
     guidetolerance="10"
     inkscape:pageopacity="0"
     inkscape:pageshadow="2"
     inkscape:window-width="1366"
     inkscape:window-height="706"
     id="namedview20"
     showgrid="true"
     inkscape:zoom="10.429825"
     inkscape:cx="10.589733"
     inkscape:cy="12.396175"
     inkscape:window-x="0"
     inkscape:window-y="0"
     inkscape:window-maximized="1"
     inkscape:current-layer="g845">
    <inkscape:grid
       type="xygrid"
       id="grid837" />
  </sodipodi:namedview>
  <linearGradient
     id="a"
     gradientUnits="userSpaceOnUse"
     x1="8.8479204"
     x2="27.359451"
     y1="11.564345"
     y2="11.564345">
    <stop
       offset="0"
       stop-color="#3b3e22"
       id="stop2" />
    <stop
       offset="1"
       stop-color="#454545"
       stop-opacity="0"
       id="stop4" />
  </linearGradient>
  <linearGradient
     id="b"
     gradientUnits="userSpaceOnUse"
     x1="18.148382"
     x2="19.369539"
     y1="31.629957"
     y2="3.5433209">
    <stop
       offset="0"
       stop-color="#555"
       id="stop7" />
    <stop
       offset="1"
       id="stop9" />
  </linearGradient>
  <g
     id="g845"
     transform="scale(0.125)">
    <g
       id="text14"
       style="font-size:40.61514282px;font-family:sans-serif;letter-spacing:0;word-spacing:0;fill:url(#linearGradient849);stroke-width:1.015378"
       aria-label="F">
      <path
         id="path834"
         style="font-weight:bold;font-size:42.74053192px;font-family:FreeSerif;fill:url(#linearGradient847);stroke-width:1.015378"
         d="M 28.024501,11.07788 Q 27.768058,9.9238859 27.639837,9.4537401 27.511615,8.9408537 27.169691,8.000562 26.827767,7.0175298 26.443102,6.5901244 26.058437,6.1627191 25.331848,5.5643517 24.605259,4.9232437 23.664967,4.6668005 22.724675,4.3676168 21.356978,4.1539141 19.989281,3.9402115 18.23692,3.9402115 q -1.624141,0 -2.179768,0.4274053 -0.555626,0.3846648 -0.555626,1.5813997 V 15.86482 q 3.205539,0 4.573236,-1.324957 1.367698,-1.367697 1.966065,-5.0433824 H 23.10934 V 23.94278 h -1.068513 q -0.427405,-3.718426 -1.837843,-5.128863 -1.410437,-1.410438 -4.701458,-1.495919 v 9.958544 q 0,1.752362 0.85481,2.350729 0.897551,0.555627 3.846648,0.683849 v 1.068513 H 4.8163926 V 30.31112 Q 7.2098624,30.054676 7.8937109,29.49905 8.5775594,28.943423 8.5775594,27.276542 V 6.5901244 q 0,-1.6668807 -0.7693296,-2.2652482 Q 7.0389002,3.6837683 4.8163926,3.5555467 V 2.4870334 H 29.050274 V 11.07788 Z"
         inkscape:connector-curvature="0" />
    </g>
    <path
       id="path16"
       d="m 15.094051,2.9762381 -0.06821,0.05116 c 0.01473,-0.01133 0.02972,-0.00863 0.04444,-0.019637 0.01175,-0.0084 0.01181,-0.023241 0.02377,-0.031523 z m -6.2461306,0.011885 c 0.00829,0.00645 0.00937,0.016752 0.01757,0.023254 0.00788,0.00647 0.017462,0.0074 0.025322,0.013953 z m 15.2616016,0.047026 c 0.0051,0.0014 0.0088,0.00634 0.01395,0.00775 0.01594,0.00499 0.03841,0.00684 0.05426,0.011886 z M 9.6819781,4.1777153 C 10.052261,4.9135049 10.269539,5.7246999 10.269539,6.589971 v 13.438457 a 40.037288,16.072317 0 0 0 3.541386,0.124023 v -2.833936 a 1.6915579,1.6915579 0 0 1 0.165882,-0.72657 1.6915579,1.6915579 0 0 1 -0.165882,-0.726571 V 5.9491833 c 0,-0.5912499 0.121322,-1.2022223 0.36897,-1.771468 z m 16.5488609,0 c 0.06336,0.051181 0.151674,0.061375 0.212907,0.1152382 0.366855,0.3034607 0.640061,0.5746678 0.915706,0.8495607 V 4.1777153 Z M 21.418213,15.497955 c -0.06101,0.06688 -0.08422,0.17207 -0.148311,0.236161 a 1.6915579,1.6915579 0 0 1 -0.01757,0.01964 c -0.427554,0.414192 -1.010527,0.608457 -1.547193,0.867131 0.598217,0.288112 1.22843,0.533381 1.693437,0.998388 0.0085,0.0085 0.01116,0.02242 0.01964,0.03101 z"
       style="fill:url(#a)"
       inkscape:connector-curvature="0" />
  </g>
</svg>
