<?xml version="1.0" encoding="UTF-8" standalone="no"?>
<svg
   xmlns:dc="http://purl.org/dc/elements/1.1/"
   xmlns:cc="http://creativecommons.org/ns#"
   xmlns:rdf="http://www.w3.org/1999/02/22-rdf-syntax-ns#"
   xmlns:svg="http://www.w3.org/2000/svg"
   xmlns="http://www.w3.org/2000/svg"
   xmlns:xlink="http://www.w3.org/1999/xlink"
   xmlns:sodipodi="http://sodipodi.sourceforge.net/DTD/sodipodi-0.dtd"
   xmlns:inkscape="http://www.inkscape.org/namespaces/inkscape"
   height="16"
   viewBox="0 0 4.2333333 4.2333335"
   width="16"
   version="1.1"
   id="svg18"
   sodipodi:docname="sc_italic.svg"
   inkscape:version="0.92.4 (unknown)">
  <metadata
     id="metadata24">
    <rdf:RDF>
      <cc:Work
         rdf:about="">
        <dc:format>image/svg+xml</dc:format>
        <dc:type
           rdf:resource="http://purl.org/dc/dcmitype/StillImage" />
        <dc:title></dc:title>
      </cc:Work>
    </rdf:RDF>
  </metadata>
  <defs
     id="defs22">
    <linearGradient
       inkscape:collect="always"
       xlink:href="#b"
       id="linearGradient847"
       gradientUnits="userSpaceOnUse"
       x1="15.840394"
       y1="31.138447"
       x2="17.06155"
       y2="3.051811" />
    <linearGradient
       inkscape:collect="always"
       xlink:href="#b"
       id="linearGradient849"
       gradientUnits="userSpaceOnUse"
       x1="15.840394"
       y1="31.138447"
       x2="17.06155"
       y2="3.051811" />
  </defs>
  <sodipodi:namedview
     pagecolor="#ffffff"
     bordercolor="#666666"
     borderopacity="1"
     objecttolerance="10"
     gridtolerance="10"
     guidetolerance="10"
     inkscape:pageopacity="0"
     inkscape:pageshadow="2"
     inkscape:window-width="1366"
     inkscape:window-height="706"
     id="namedview20"
     showgrid="true"
     inkscape:zoom="5.2149125"
     inkscape:cx="-2.3213344"
     inkscape:cy="34.608487"
     inkscape:window-x="0"
     inkscape:window-y="0"
     inkscape:window-maximized="1"
     inkscape:current-layer="svg18">
    <inkscape:grid
       type="xygrid"
       id="grid837" />
  </sodipodi:namedview>
  <linearGradient
     id="a"
     gradientUnits="userSpaceOnUse"
     x1="9.2188377"
     x2="27.168648"
     y1="11.553161"
     y2="11.553161">
    <stop
       offset="0"
       stop-color="#3b3e22"
       id="stop2" />
    <stop
       offset="1"
       stop-color="#454545"
       stop-opacity="0"
       id="stop4" />
  </linearGradient>
  <linearGradient
     id="b"
     gradientUnits="userSpaceOnUse"
     x1="15.840394"
     x2="17.06155"
     y1="31.138447"
     y2="3.051811">
    <stop
       offset="0"
       stop-color="#555"
       id="stop7" />
    <stop
       offset="1"
       id="stop9" />
  </linearGradient>
  <g
     id="g845"
     transform="scale(0.125)">
    <g
       id="text14"
       style="font-size:40.61514282px;font-family:sans-serif;letter-spacing:0;word-spacing:0;fill:url(#linearGradient849);stroke-width:1.015378"
       aria-label="K">
      <path
         id="path834"
         style="font-style:italic;font-size:42.74053192px;font-family:FreeSerif;fill:url(#linearGradient847);stroke-width:1.015378"
         d="M 32.213073,2.9785495 V 3.662398 q -1.495918,0.2564432 -3.20554,1.5386592 l -12.822159,9.6593598 7.436852,12.950382 q 0.897552,1.495918 1.495919,1.837842 0.641108,0.341925 2.649913,0.555627 v 0.683849 H 16.014412 v -0.683849 q 0.85481,-0.128221 1.239475,-0.128221 1.966065,-0.170962 1.966065,-1.111254 0,-1.282216 -1.624141,-4.060351 l -5.171604,-8.89003 -2.9063562,10.642392 q -0.3419242,1.153995 -0.3419242,1.666881 0,0.983032 0.5128863,1.324956 0.5556271,0.341925 2.5644321,0.555627 v 0.683849 H 1.6535929 v -0.683849 q 1.8805834,-0.299183 2.3934698,-0.769329 0.5556269,-0.470146 1.1112539,-2.39347 L 10.415402,8.1501539 q 0.470146,-1.6668808 0.470146,-2.649913 0,-0.9402917 -0.641108,-1.282216 Q 9.6033319,3.8761007 7.5945269,3.662398 V 2.9785495 H 19.262692 V 3.662398 q -1.880583,0.1282216 -2.906356,0.8548106 -0.983032,0.7265891 -1.410438,2.3079888 l -2.265248,8.2916636 6.496561,-4.530497 q 2.820875,-1.9660643 4.487756,-3.5902045 1.666881,-1.6241402 1.666881,-2.3934698 0,-0.6838485 -1.453178,-0.8120701 -0.08548,0 -0.512887,-0.04274 -0.384665,-0.042741 -0.641108,-0.085481 V 2.9785495 Z"
         inkscape:connector-curvature="0" />
    </g>
    <path
       id="path16"
       d="m 12.256896,4.5807181 c 0.09277,0.3110982 0.230476,0.6212084 0.230476,0.9198404 0,0.9100021 -0.195154,1.8927816 -0.529683,3.0799155 l -2.738851,9.845394 a 30.637854,9.9016955 0 0 0 0.875399,0.04289 l 0.785482,-2.87631 a 1.6023391,1.6023391 0 0 1 0.201021,-0.447518 1.6023391,1.6023391 0 0 1 0.05478,-0.449068 l 2.263945,-8.2889006 0.0015,-0.00413 c 0.178869,-0.6603923 0.43927,-1.2747453 0.781348,-1.8221111 z m 14.667839,0 c 1.08e-4,0.00751 0.0078,0.013678 0.0078,0.021187 0,0.095222 -0.07185,0.1292289 -0.0801,0.2170412 l 0.316259,-0.2382285 z m -12.152231,11.0313689 -0.517798,0.361218 1.484665,2.552299 a 30.637854,9.9016955 0 0 0 0.690396,-0.02119 l -1.634008,-2.845822 a 1.6023391,1.6023391 0 0 1 -0.02326,-0.04651 z"
       style="fill:url(#a)"
       inkscape:connector-curvature="0" />
  </g>
</svg>
