<?xml version="1.0" encoding="UTF-8" standalone="no"?>
<svg
   xmlns:dc="http://purl.org/dc/elements/1.1/"
   xmlns:cc="http://creativecommons.org/ns#"
   xmlns:rdf="http://www.w3.org/1999/02/22-rdf-syntax-ns#"
   xmlns:svg="http://www.w3.org/2000/svg"
   xmlns="http://www.w3.org/2000/svg"
   xmlns:xlink="http://www.w3.org/1999/xlink"
   xmlns:sodipodi="http://sodipodi.sourceforge.net/DTD/sodipodi-0.dtd"
   xmlns:inkscape="http://www.inkscape.org/namespaces/inkscape"
   height="128"
   viewBox="0 0 33.866666 33.866668"
   width="128"
   version="1.1"
   id="svg20"
   sodipodi:docname="sc_italic.svg"
   inkscape:version="0.92.3 (unknown)"
   inkscape:export-filename="/home/rizmut/Dokumen/Rizmut/Github/libreoffice-style-karasa-jaga/build/images_karasa_jaga/cmd/ca/sc_italic.png"
   inkscape:export-xdpi="12"
   inkscape:export-ydpi="12">
  <metadata
     id="metadata26">
    <rdf:RDF>
      <cc:Work
         rdf:about="">
        <dc:format>image/svg+xml</dc:format>
        <dc:type
           rdf:resource="http://purl.org/dc/dcmitype/StillImage" />
        <dc:title></dc:title>
      </cc:Work>
    </rdf:RDF>
  </metadata>
  <defs
     id="defs24">
    <linearGradient
       inkscape:collect="always"
       xlink:href="#b"
       id="linearGradient887"
       x1="15.896484"
       y1="43.587891"
       x2="108.7207"
       y2="43.587891"
       gradientUnits="userSpaceOnUse" />
  </defs>
  <sodipodi:namedview
     pagecolor="#ffffff"
     bordercolor="#666666"
     borderopacity="1"
     objecttolerance="10"
     gridtolerance="10"
     guidetolerance="10"
     inkscape:pageopacity="0"
     inkscape:pageshadow="2"
     inkscape:window-width="1366"
     inkscape:window-height="706"
     id="namedview22"
     showgrid="false"
     inkscape:zoom="0.65186406"
     inkscape:cx="-282.12594"
     inkscape:cy="-66.058428"
     inkscape:window-x="0"
     inkscape:window-y="0"
     inkscape:window-maximized="1"
     inkscape:current-layer="svg20" />
  <linearGradient
     id="a"
     gradientUnits="userSpaceOnUse"
     x1="18.98182359615"
     x2="20.2029811282"
     y1="294.720546641"
     y2="266.6339107115"
     gradientTransform="translate(-3.3551323,-263.47525)">
    <stop
       offset="0"
       stop-color="#555"
       id="stop2" />
    <stop
       offset="1"
       id="stop4" />
  </linearGradient>
  <linearGradient
     id="b"
     gradientUnits="userSpaceOnUse"
     x1="35.404884"
     x2="54.657333"
     y1="7.324325"
     y2="81.814293"
     gradientTransform="scale(0.26458333)">
    <stop
       offset="0"
       stop-color="#3b3e22"
       id="stop7" />
    <stop
       offset="1"
       stop-color="#454545"
       stop-opacity="0"
       id="stop9" />
  </linearGradient>
  <text
     id="text14"
     y="30.994968"
     x="1.4398906"
     style="font-size:40.61514282px;font-family:sans-serif;letter-spacing:0;word-spacing:0;fill:url(#a);stroke-width:1.015378">
    <tspan
       style="font-weight:normal;font-size:42.74053192px;font-family:FreeSerif;fill:url(#a);stroke-width:1.015378;-inkscape-font-specification:'FreeSerif Italic';font-style:italic;font-stretch:normal;font-variant:normal"
       id="tspan12"
       y="30.994968"
       x="1.4398906"
       font-weight="bold"
       font-size="42.740532">C</tspan>
  </text>
  <path
     style="opacity:1;fill:url(#linearGradient887);fill-opacity:1.0;stroke:none;stroke-width:1.13385832;stroke-linecap:round;stroke-linejoin:round;stroke-miterlimit:4;stroke-dasharray:none;stroke-dashoffset:0;stroke-opacity:1"
     d="M 91.298828 14.535156 C 94.236757 15.78147 96.937027 17.387308 99.109375 19.6875 C 102.2137 22.974512 104.11848 27.515276 105.50977 32.583984 L 108.7207 15.273438 C 107.15969 16.163187 105.35362 16.683594 103.49414 16.683594 C 102.29345 16.683594 101.36088 16.476266 99.558594 16.144531 C 97.756307 15.812796 95.351797 15.325803 92.318359 14.675781 A 3.2448407 3.2448407 0 0 1 92.302734 14.667969 C 91.898166 14.5797 91.693898 14.617036 91.298828 14.535156 z M 65.876953 14.548828 C 59.640449 15.973337 53.507889 18.136794 47.539062 21.84375 C 37.865539 27.918473 30.144621 35.949498 24.257812 46.0625 C 24.256642 46.064549 24.258982 46.068264 24.257812 46.070312 C 19.483854 54.426602 16.713317 63.084657 15.896484 72.154297 A 93.559317 47.186441 0 0 0 27.550781 72.640625 C 28.219905 65.085683 29.962066 57.655238 32.783203 50.388672 A 3.2448407 3.2448407 0 0 1 32.791016 50.367188 C 36.591941 40.753086 41.830711 32.449986 48.498047 25.556641 A 3.2448407 3.2448407 0 0 1 48.505859 25.548828 C 53.630328 20.287709 59.513903 16.726055 65.876953 14.548828 z "
     transform="scale(0.26458334)"
     id="path872" />
</svg>
