<?xml version="1.0" encoding="UTF-8" standalone="no"?>
<svg
   xmlns:dc="http://purl.org/dc/elements/1.1/"
   xmlns:cc="http://creativecommons.org/ns#"
   xmlns:rdf="http://www.w3.org/1999/02/22-rdf-syntax-ns#"
   xmlns:svg="http://www.w3.org/2000/svg"
   xmlns="http://www.w3.org/2000/svg"
   xmlns:xlink="http://www.w3.org/1999/xlink"
   xmlns:sodipodi="http://sodipodi.sourceforge.net/DTD/sodipodi-0.dtd"
   xmlns:inkscape="http://www.inkscape.org/namespaces/inkscape"
   height="128"
   viewBox="0 0 33.866666 33.866668"
   width="128"
   version="1.1"
   id="svg20"
   sodipodi:docname="sc_underlinedouble.svg"
   inkscape:version="0.92.3 (unknown)"
   inkscape:export-filename="/home/rizmut/Dokumen/Rizmut/Github/libreoffice-style-karasa-jaga/build/images_karasa_jaga/cmd/ca/sc_underlinedouble.png"
   inkscape:export-xdpi="12"
   inkscape:export-ydpi="12">
  <metadata
     id="metadata26">
    <rdf:RDF>
      <cc:Work
         rdf:about="">
        <dc:format>image/svg+xml</dc:format>
        <dc:type
           rdf:resource="http://purl.org/dc/dcmitype/StillImage" />
        <dc:title></dc:title>
      </cc:Work>
    </rdf:RDF>
  </metadata>
  <defs
     id="defs24">
    <linearGradient
       inkscape:collect="always"
       xlink:href="#b"
       id="linearGradient2775"
       x1="17.634766"
       y1="43.589844"
       x2="76.054688"
       y2="43.589844"
       gradientUnits="userSpaceOnUse"
       gradientTransform="matrix(0.26458334,0,0,0.23883413,4.6159775,-1.8977651)" />
  </defs>
  <sodipodi:namedview
     pagecolor="#ffffff"
     bordercolor="#666666"
     borderopacity="1"
     objecttolerance="10"
     gridtolerance="10"
     guidetolerance="10"
     inkscape:pageopacity="0"
     inkscape:pageshadow="2"
     inkscape:window-width="1366"
     inkscape:window-height="706"
     id="namedview22"
     showgrid="false"
     inkscape:zoom="1.84375"
     inkscape:cx="2.5819644"
     inkscape:cy="70.319679"
     inkscape:window-x="0"
     inkscape:window-y="0"
     inkscape:window-maximized="1"
     inkscape:current-layer="svg20" />
  <linearGradient
     id="a"
     gradientUnits="userSpaceOnUse"
     x1="18.98182359615"
     x2="20.2029811282"
     y1="294.720546641"
     y2="266.6339107115"
     gradientTransform="matrix(0.95009479,0,0,0.95009479,1.1979225,-252.32391)">
    <stop
       offset="0"
       stop-color="#555"
       id="stop2" />
    <stop
       offset="1"
       id="stop4" />
  </linearGradient>
  <linearGradient
     id="b"
     gradientUnits="userSpaceOnUse"
     x1="35.404884"
     x2="54.657333"
     y1="7.324325"
     y2="81.814293"
     gradientTransform="scale(0.26458333)">
    <stop
       offset="0"
       stop-color="#3b3e22"
       id="stop7" />
    <stop
       offset="1"
       stop-color="#454545"
       stop-opacity="0"
       id="stop9" />
  </linearGradient>
  <text
     id="text14"
     y="27.45071"
     x="5.7536488"
     style="font-size:38.58823776px;font-family:sans-serif;letter-spacing:0;word-spacing:0;fill:url(#a);stroke-width:0.96470535"
     transform="scale(1.0525265,0.95009483)">
    <tspan
       style="font-style:normal;font-variant:normal;font-weight:normal;font-stretch:normal;font-size:40.6075592px;font-family:FreeSerif;-inkscape-font-specification:FreeSerif;fill:url(#a);stroke-width:0.96470535"
       id="tspan12"
       y="27.45071"
       x="5.7536488"
       font-weight="bold"
       font-size="42.740532">S</tspan>
  </text>
  <path
     style="opacity:1;fill:url(#linearGradient2775);fill-opacity:1;stroke:none;stroke-width:0.28502846;stroke-linecap:round;stroke-linejoin:round;stroke-miterlimit:4;stroke-dasharray:none;stroke-dashoffset:0;stroke-opacity:1"
     d="m 15.971357,0.63564924 c -1.832895,0 -3.370409,0.54737656 -4.736145,1.68536646 -1.3138657,1.0929809 -1.9533692,2.4634658 -1.9533692,4.2756907 0,1.3431572 0.4171926,2.4736302 1.2655562,3.4714916 0.888666,1.045267 1.945772,1.900761 3.183785,2.580995 1.33096,0.690091 2.661314,1.368402 3.992004,2.032889 0.985879,0.492304 1.872677,1.063014 2.659786,1.708224 a 31.963628,19.418481 0 0 0 3.402893,-1.057495 c -1.188473,-1.145715 -3.045708,-2.3544 -5.584155,-3.581112 a 0.70612327,0.63740346 0 0 1 -0.0098,-0.0051 C 15.906952,10.59777 14.249801,9.5503686 13.192217,8.5395516 12.13383,7.5279668 11.547873,6.3796052 11.547873,5.1702179 c 0,-1.2050914 0.510904,-2.2789638 1.474329,-3.0586629 0.964357,-0.7804536 2.231985,-1.16571576 3.675745,-1.16571576 1.874318,0 3.613249,0.61010506 5.117517,1.77399636 1.301225,0.9883969 2.219996,2.4913991 2.923336,4.2859532 L 24.043733,0.92113054 c -0.09236,0.15971626 -0.111419,0.36801996 -0.248047,0.49912606 -0.358633,0.3441371 -0.888032,0.5271143 -1.412317,0.5271143 -0.342495,0 -0.599622,-0.073842 -1.040763,-0.1884549 C 20.901464,1.6443031 20.334743,1.4787783 19.629532,1.2579241 18.292295,0.83913544 17.072841,0.63564924 15.971357,0.63564924 Z"
     id="path2760"
     inkscape:connector-curvature="0" />
  <g
     transform="scale(0.26458334)"
     style="fill:#010101"
     id="g17">
    <rect
       x="0"
       height="8"
       rx="1.78422"
       ry="2.2950201"
       width="128"
       y="120"
       id="rect13" />
    <rect
       x="0"
       height="8"
       rx="1.78422"
       ry="2.2950201"
       width="128"
       y="104"
       id="rect15" />
  </g>
</svg>
