<svg height="128" viewBox="0 0 33.866666 33.866668" width="128" xmlns="http://www.w3.org/2000/svg" xmlns:xlink="http://www.w3.org/1999/xlink"><linearGradient id="a" gradientUnits="userSpaceOnUse" x1="11.860789" x2="18.659341" y1="11.511959" y2="11.511959"><stop offset="0" stop-color="#3b3e22"/><stop offset="1" stop-color="#454545" stop-opacity="0"/></linearGradient><linearGradient id="b" gradientUnits="userSpaceOnUse" x1="19.003194" x2="20.224351" y1="31.138447" y2="3.051811"><stop offset="0" stop-color="#555"/><stop offset="1"/></linearGradient><g stroke-width="1.015378"><text fill="url(#b)" font-family="sans-serif" font-size="40.615143" letter-spacing="0" word-spacing="0" x="4.816393" y="30.888117"><tspan fill="url(#b)" font-family="FreeSerif" font-size="42.740532" font-style="italic" stroke-width="1.015378" x="4.816393" y="30.888117">L</tspan></text><path d="m18.659341 3.3439824-.03307.023254c.0063-.00465.01488-.0052.02119-.00982.005-.00349.0069-.00997.01189-.013436zm-3.495911 1.0640176c.135672.3614735.271302.7331927.271302 1.091923 0 .8811903-.189795 1.856013-.523483 3.0390913l-3.05046 10.9595377a21.512028 13.242073 0 0 0 1.153418.181384l3.66851-13.217281.0021-.00362c.205322-.7785248.555451-1.4521429.988054-2.0510376z" fill="url(#a)"/></g></svg>