<svg height="32" viewBox="0 0 32 32" width="32" xmlns="http://www.w3.org/2000/svg" xmlns:xlink="http://www.w3.org/1999/xlink"><linearGradient id="a" gradientUnits="userSpaceOnUse" x1="7.739838" x2="8" y1="1.357724" y2="14"><stop offset="0" stop-color="#587bcb"/><stop offset=".94117647" stop-color="#3f59ae"/><stop offset="1" stop-color="#3d7cdb"/></linearGradient><linearGradient id="b" gradientTransform="matrix(1.8125 0 0 1 -.8125 12)" gradientUnits="userSpaceOnUse" x1="6.5" x2="6.5" y1="11" y2="12"><stop offset="0" stop-color="#2a3674"/><stop offset="1" stop-color="#174072" stop-opacity="0"/></linearGradient><linearGradient id="c" gradientUnits="userSpaceOnUse" x1="9" x2="9" y1="-7" y2="4"><stop offset="0" stop-color="#102134"/><stop offset="1" stop-color="#102134" stop-opacity="0"/></linearGradient><filter id="d" color-interpolation-filters="sRGB" height="1.267833" width="1.129187" x="-.064594" y="-.133917"><feGaussianBlur stdDeviation="3.1247207"/></filter><linearGradient id="e" gradientUnits="userSpaceOnUse" x1=".37741" x2="-1" y1="5.214652" y2="-2.999999"><stop offset="0" stop-color="#34608f"/><stop offset="1" stop-color="#34608f" stop-opacity="0"/></linearGradient><linearGradient id="f" gradientTransform="matrix(.21345221 0 0 .14419658 2.588831 -134.48784)" gradientUnits="userSpaceOnUse" x1="124.01234" x2="123.73341" y1="966.51019" y2="904.93018"><stop offset="0"/><stop offset="1" stop-color="#34608f" stop-opacity="0"/></linearGradient><linearGradient id="g" gradientUnits="userSpaceOnUse" x1="55" x2="55" y1="1036.4132" y2="1032.4822"><stop offset="0" stop-color="#003d7b"/><stop offset="1" stop-color="#003d7b" stop-opacity="0"/></linearGradient><filter id="h" color-interpolation-filters="sRGB" height="1.697208" width="1.027888" x="-.013944" y="-.348604"><feGaussianBlur stdDeviation=".70882694"/></filter><filter id="i" color-interpolation-filters="sRGB" height="1.869989" width="1.027669" x="-.013834" y="-.434994"><feGaussianBlur stdDeviation=".70324038"/></filter><clipPath id="j"><rect height="31.444271" rx="4" width="195.54292" x="4" y="941.36218"/></clipPath><filter id="k"><feGaussianBlur stdDeviation="1.177891"/></filter><linearGradient id="l" gradientTransform="matrix(.0321355 0 0 .04647684 -1.027302 241.82648)" gradientUnits="userSpaceOnUse" x1="399.77466" x2="399.77466" y1="727.07941" y2="480.60214"><stop offset="0" stop-color="#cbcbcd"/><stop offset=".5" stop-color="#e0e0e2"/><stop offset="1" stop-color="#f2f2f2"/></linearGradient><linearGradient id="m" gradientTransform="matrix(.0321355 0 0 .04647684 30.575317 335.83667)" gradientUnits="userSpaceOnUse" x1="-333.0289" x2="-333.0289" y1="-1473.6504" y2="-776.61371"><stop offset="0" stop-color="#fff"/><stop offset=".49140647" stop-color="#fff"/><stop offset="1" stop-color="#dcdcdc"/></linearGradient><clipPath id="n"><path d="m0 269.53625h29.633333v25.4h-29.633333z"/></clipPath><g transform="translate(1 14)"><path d="m-46.991242 13.13992h160.201212c2.216 0 4 .8652 4 1.94 0 1.0747-1.78433 1.902-4 1.94-36.945184.6329-120.9042545.7782-160.201212 0-2.215566-.044-4-.8653-4-1.94 0-1.0748 1.784-1.94 4-1.94z" filter="url(#i)" opacity=".554286" transform="matrix(.17315572 0 0 .125 9.204424 12.35751)"/><rect fill="url(#g)" filter="url(#h)" height="4.39197" opacity=".577143" rx="2.439995" ry="1.926663" transform="matrix(.125 0 0 .25614775 -.125 -251.09298)" width="233.99997" x="3.000028" y="1032.4822"/><path d="m1-11c-.5 0-.48341039.383873-.5.5l-.5 1.5v13c0 .554.446 1 1 1h27c.554 0 1-.446 1-1v-13c0-.554-.446-1-1-1h-20.0957031c-.0842007-.485951-.178001-1-.4042969-1z" fill="#3b6ca9"/><path d="m2-9h4.5v.9999999h-4.5z" fill="#fcf9e9"/><path d="m1-11c-.5 0-.4629045.388713-.5.5l-.5 1.5v7.5c0 .554.446 1 1 1v-8.5l.5-1h5.3828125c.013345.068527.023996.094239.037109.1699219.0826732.4792195.4980774.8295107.9843754.8300781h1.0957031 19v12c.554 0 1-.446 1-1v-11c0-.554-.446-1-1-1h-20.0957031c-.0842007-.485951-.178001-1-.4042969-1z" fill="url(#c)" opacity=".25"/><path d="m2 3.2125582c-.5 0-.4629045.388713-.5.5l-.5 1.5v.5l.5-1.5c.037095-.111287 0-.5.5-.5h6.5c.2262959 0 .3200962.514049.4042969 1h20.0957031c.554 0 1 .446 1 1v-.5c0-.554-.446-1-1-1h-20.0957031c-.084201-.485951-.178001-1-.4042969-1z" fill="#a4c0e8" transform="translate(-1 -14)"/><path d="m5.5-8.9999999h1v.9999999h-1z" fill="#fbc66d"/><g clip-path="url(#n)" transform="matrix(.94488188 0 0 .94488188 3 -268.67991)"><path d="m83.772 239.27611h119.71329c1.18742 0 2.14336 1.12849 2.14336 2.53025v100.56093c0 1.40175-.95594 2.53025-2.14336 2.53025h-119.71329c-1.187418 0-2.143353-1.1285-2.143353-2.53025v-100.56093c0-1.40176.955935-2.53025 2.143353-2.53025z" filter="url(#k)" opacity=".5" transform="matrix(.26458333 0 0 .26052164 -21.068414 204.50088)"/><path d="m1.6071347 267.36666h30.6523883c.304038 0 .548801.28894.548801.64786v25.1626c0 .35892-.244763.64786-.548801.64786h-30.6523883c-.3040362 0-.5488019-.28894-.5488019-.64786v-25.1626c0-.35892.2447657-.64786.5488019-.64786z" fill="url(#l)"/><path d="m1.6040367 267.36666c-.3040364 0-.5457031.286-.5457031.64492v25.16848c0 .35892.2416667.64492.5457031.64492h30.6585923c.304041 0 .545703-.286.545703-.64492v-25.16848c0-.35892-.241662-.64492-.545703-.64492zm.3720703.96738h29.914452c.288835 0 .520898.27095.520898.60772v23.87864c0 .33676-.232063.60771-.520898.60771h-29.914452c-.2888343 0-.5208984-.27095-.5208984-.60771v-23.87864c0-.33677.2320641-.60772.5208984-.60772z" fill="url(#m)"/><path d="m1.0583333 275.83331h31.7499997v16.93334h-31.7499997z" fill="#fff"/><g fill="#cbcbcd"><path d="m1.455208 275.76715h.661458v16.99948h-.661458z"/><path d="m31.750006 275.76715h.661458v16.99948h-.661458z"/><path d="m9.657291 275.89944h.661458v16.86719h-.661458z"/><path d="m17.131769 275.89944h.661458v16.86719h-.661458z"/><path d="m24.606249 275.70102h.661458v17.06563h-.661458z"/><path d="m1.389062 292.10516h30.890106v.66146h-30.890106z"/><path d="m1.389062 287.6734h30.890106v.66146h-30.890106z"/><path d="m1.389062 283.37393h30.890106v.66146h-30.890106z"/><path d="m1.389062 279.20673h30.890106v.66146h-30.890106z"/></g></g><path clip-path="url(#j)" d="m56.984419 956.41796-52.9844191-.46865.0000002 23.62035 195.5429199-.0204v-26.85749c0-2.54081-2.98686-7.17388-5.54823-7.16756l-125.937528.31081c-9.375263 0-4.139978 10.43168-11.072743 10.58369z" fill="#16375b" fill-opacity=".801471" filter="url(#d)" transform="matrix(.14830504 0 0 .14830504 -.59322 -142.2721)"/><path d="m1 1h7l2-2h19c.554 0 1.021292.44640937 1 1l-.5 13c-.02129.55359-.446 1-1 1h-27c-.554 0-.97484416-.446571-1-1l-.5-11c-.02515585-.5534286.46731572-1.15219551 1-1z" fill="url(#a)"/><g transform="translate(-1 -14)"><path d="m1.3671875 23 .0332031 1h28.5996094v-1z" fill="#385da4"/><path d="m1.3671875 23 .0332031 1h29.1875004l.029297-1z" fill="url(#b)"/><path d="m1.4003906 24 .015625.5h29.1582034l.013672-.5z" fill="#a4c0e8"/></g><path d="m10-1-2 2h-7c-.554 0-1 .446-1 1v1c0-.554.44600003-1 1-1h7l2-2h19c.554 0 1 .446 1 1v-1c0-.554-.449044-1.0579954-1-1z" fill="#a4c0e8"/><path d="m.9980469 1.0097656c-.5505375 0-.9925198.4410516-.9980469.9902344l.5019531 11.009766c.00023.02285.011948.042.013672.06445.0381089.321065.7510483.923754.9843749.925784h.00195l-.5019531-12.9902344z" fill="url(#e)" opacity=".594286"/><path d="m29-1-.5 15c.554 0 .971878-.565496 1-1.266667l.5-12.4666663c.028122-.70116971-.446-1.2666667-1-1.2666667z" fill="url(#f)" opacity=".405714"/></g></svg>