<?xml version="1.0" encoding="UTF-8" standalone="no"?>
<svg
   xmlns:dc="http://purl.org/dc/elements/1.1/"
   xmlns:cc="http://creativecommons.org/ns#"
   xmlns:rdf="http://www.w3.org/1999/02/22-rdf-syntax-ns#"
   xmlns:svg="http://www.w3.org/2000/svg"
   xmlns="http://www.w3.org/2000/svg"
   xmlns:xlink="http://www.w3.org/1999/xlink"
   xmlns:sodipodi="http://sodipodi.sourceforge.net/DTD/sodipodi-0.dtd"
   xmlns:inkscape="http://www.inkscape.org/namespaces/inkscape"
   height="128"
   viewBox="0 0 128 128"
   width="128"
   version="1.1"
   id="svg48"
   sodipodi:docname="rotateright.svg"
   inkscape:version="0.92.3 (unknown)"
   inkscape:export-filename="/home/rizmut/Dokumen/Rizmut/Github/libreoffice-style-karasa-jaga/build/images_karasa_jaga/cmd/32/rotateright.png"
   inkscape:export-xdpi="24"
   inkscape:export-ydpi="24">
  <metadata
     id="metadata54">
    <rdf:RDF>
      <cc:Work
         rdf:about="">
        <dc:format>image/svg+xml</dc:format>
        <dc:type
           rdf:resource="http://purl.org/dc/dcmitype/StillImage" />
      </cc:Work>
    </rdf:RDF>
  </metadata>
  <defs
     id="defs52">
    <linearGradient
       id="linearGradient2399">
      <stop
         style="stop-color:#0968ef;stop-opacity:1;"
         offset="0"
         id="stop2401" />
      <stop
         style="stop-color:#aecffc;stop-opacity:1;"
         offset="1"
         id="stop2403" />
    </linearGradient>
    <linearGradient
       inkscape:collect="always"
       xlink:href="#linearGradient2399"
       id="linearGradient3554"
       gradientUnits="userSpaceOnUse"
       gradientTransform="matrix(0.40909845,1.2328831,1.2328831,-0.40909845,17.031,-48.08573)"
       x1="113.15723"
       y1="25.786163"
       x2="39.268185"
       y2="25.786163" />
  </defs>
  <sodipodi:namedview
     pagecolor="#ffffff"
     bordercolor="#666666"
     borderopacity="1"
     objecttolerance="10"
     gridtolerance="10"
     guidetolerance="10"
     inkscape:pageopacity="0"
     inkscape:pageshadow="2"
     inkscape:window-width="1366"
     inkscape:window-height="706"
     id="namedview50"
     showgrid="false"
     inkscape:zoom="1.84375"
     inkscape:cx="-81.674116"
     inkscape:cy="92.101313"
     inkscape:window-x="0"
     inkscape:window-y="0"
     inkscape:window-maximized="1"
     inkscape:current-layer="svg48" />
  <linearGradient
     id="a">
    <stop
       offset="0"
       stop-color="#eeeeec"
       id="stop2" />
    <stop
       offset="1"
       stop-color="#eeeeec"
       stop-opacity="0"
       id="stop4" />
  </linearGradient>
  <linearGradient
     id="b"
     gradientUnits="userSpaceOnUse"
     x1="68"
     x2="48"
     xlink:href="#a"
     y1="64"
     y2="120" />
  <linearGradient
     id="c"
     gradientUnits="userSpaceOnUse"
     x1="48"
     x2="48"
     y1="44"
     y2="128">
    <stop
       offset="0"
       stop-color="#7d5cbe"
       id="stop8" />
    <stop
       offset="1"
       stop-color="#7055a2"
       id="stop10" />
  </linearGradient>
  <linearGradient
     id="d"
     gradientUnits="userSpaceOnUse"
     x1="48"
     x2="48"
     y1="44"
     y2="128">
    <stop
       offset="0"
       stop-color="#8d8d8d"
       id="stop13" />
    <stop
       offset="1"
       stop-color="#7c7c7c"
       id="stop15" />
  </linearGradient>
  <filter
     id="e"
     color-interpolation-filters="sRGB"
     height="1.059975"
     width="1.090058"
     x="-.045029"
     y="-.029987">
    <feGaussianBlur
       stdDeviation="1.200767"
       id="feGaussianBlur18" />
  </filter>
  <linearGradient
     id="f"
     gradientUnits="userSpaceOnUse"
     x1="40"
     x2="46.921875"
     xlink:href="#a"
     y1="-8"
     y2="89.300781" />
  <g
     id="g849">
    <g
       id="g28"
       fill-rule="evenodd">
      <path
         id="path22"
         fill-opacity=".870588"
         fill="#6a6a6a"
         d="m4 120h52v-116z" />
      <path
         id="path24"
         fill="url(#d)"
         d="m54.119141 12.791016-47.2167972 105.328124h47.2167972z" />
      <path
         id="path26"
         fill="url(#f)"
         d="m54.119141 12.791016-22.947266 51.1875a72 36 0 0 0 .828125.021484 72 36 0 0 0 22.119141-1.787109z" />
    </g>
    <g
       id="g40"
       transform="matrix(0 1 -1 0 124 64)"
       fill-rule="evenodd">
      <path
         id="path34"
         fill-opacity=".870588"
         fill="#7219bb"
         d="m4 120h52v-116z" />
      <path
         id="path36"
         fill="url(#c)"
         d="m54.119141 12.791016-47.2167972 105.328124h47.2167972z" />
      <path
         id="path38"
         transform="matrix(0 -1 1 0 -64 124)"
         fill="url(#b)"
         d="m46.921875 89.300781c-4.049638 3.851616-6.921875 6.699219-6.921875 6.699219l-27.648438 22.11914h49.294922l10.107422-17.6875z" />
    </g>
    <rect
       id="rect46"
       width="128"
       rx=".000001"
       height="128"
       fill="none" />
    <path
       sodipodi:nodetypes="ccccccccccccccc"
       inkscape:connector-curvature="0"
       id="path3575"
       d="m 73.346503,25.991341 -3.085548,4.26662 c 8.501689,5.895879 19.100826,18.79925 20.729155,39.609341 l 2.32e-4,0.002 c -0.544987,1.876713 -1.104319,2.314191 -2.584577,1.947972 l -11.33392,-5.312913 -1.386363,2.766927 23.868443,15.65342 10.404105,-24.975405 -3.08565,-1.455411 -6.48959,9.681331 c -0.0297,0.0445 -0.0622,0.08704 -0.0973,0.127344 -0.654164,0.74677 -1.701639,0.948478 -2.518757,0.659207 C 95.433675,60.037498 93.196416,51.010441 88.70804,43.041007 84.566253,35.793425 79.063329,29.576645 73.346499,25.991354 Z"
       style="fill:url(#linearGradient3554);fill-opacity:1;fill-rule:evenodd;stroke:none;stroke-width:5.19999981;stroke-linecap:round;stroke-linejoin:round;stroke-miterlimit:4;stroke-dasharray:none;stroke-opacity:1" />
  </g>
</svg>
