<?xml version="1.0" encoding="UTF-8" standalone="no"?>
<svg
   xmlns:dc="http://purl.org/dc/elements/1.1/"
   xmlns:cc="http://creativecommons.org/ns#"
   xmlns:rdf="http://www.w3.org/1999/02/22-rdf-syntax-ns#"
   xmlns:svg="http://www.w3.org/2000/svg"
   xmlns="http://www.w3.org/2000/svg"
   xmlns:xlink="http://www.w3.org/1999/xlink"
   xmlns:sodipodi="http://sodipodi.sourceforge.net/DTD/sodipodi-0.dtd"
   xmlns:inkscape="http://www.inkscape.org/namespaces/inkscape"
   enable-background="new 0 0 128 128"
   height="128"
   viewBox="0 0 186.18182 186.18182"
   width="128"
   version="1.1"
   id="svg119"
   sodipodi:docname="absoluterecord.svg"
   inkscape:version="0.92.3 (unknown)"
   inkscape:export-filename="/home/rizmut/Dokumen/Rizmut/Github/libreoffice-style-karasa-jaga/build/images_karasa_jaga/cmd/32/absoluterecord.png"
   inkscape:export-xdpi="24"
   inkscape:export-ydpi="24">
  <metadata
     id="metadata125">
    <rdf:RDF>
      <cc:Work
         rdf:about="">
        <dc:format>image/svg+xml</dc:format>
        <dc:type
           rdf:resource="http://purl.org/dc/dcmitype/StillImage" />
        <dc:title />
      </cc:Work>
    </rdf:RDF>
  </metadata>
  <defs
     id="defs123">
    <clipPath
       clipPathUnits="userSpaceOnUse"
       id="clipPath956">
      <rect
         ry="4.6231799"
         rx="4.8334599"
         y="236.8761"
         x="123.62864"
         height="88"
         width="88"
         id="rect958"
         style="opacity:0.3;fill:#fdfdfd;fill-opacity:1;stroke:none;stroke-width:10;stroke-linecap:round;stroke-linejoin:round;stroke-miterlimit:4;stroke-dasharray:none;stroke-dashoffset:0;stroke-opacity:1" />
    </clipPath>
    <linearGradient
       id="linearGradient3489">
      <stop
         style="stop-color:#765c44;stop-opacity:1"
         offset="0"
         id="stop3491" />
      <stop
         style="stop-color:#765c44;stop-opacity:0"
         offset="1"
         id="stop3493" />
    </linearGradient>
    <filter
       id="filter3477-3-7"
       height="1.2774813"
       y="-0.13874064"
       width="1.279832"
       x="-0.13991599">
      <feGaussianBlur
         id="feGaussianBlur3479-6-5"
         stdDeviation="0.28784801"
         inkscape:collect="always" />
    </filter>
    <filter
       id="filter3618"
       height="1.2774813"
       y="-0.13874064"
       width="1.279832"
       x="-0.13991599">
      <feGaussianBlur
         id="feGaussianBlur3616"
         stdDeviation="0.28784801"
         inkscape:collect="always" />
    </filter>
    <linearGradient
       x1="304.88663"
       y1="385.86127"
       x2="345.62039"
       y2="384.62384"
       id="linearGradient3298-9"
       xlink:href="#linearGradient3489"
       gradientUnits="userSpaceOnUse" />
    <filter
       id="filter3629"
       height="1.2774813"
       y="-0.13874064"
       width="1.279832"
       x="-0.13991599">
      <feGaussianBlur
         id="feGaussianBlur3627"
         stdDeviation="0.28784801"
         inkscape:collect="always" />
    </filter>
    <linearGradient
       id="linearGradient3366">
      <stop
         style="stop-color:#ff8787;stop-opacity:1"
         offset="0"
         id="stop3368" />
      <stop
         style="stop-color:#ff8787;stop-opacity:0"
         offset="1"
         id="stop4472" />
    </linearGradient>
    <filter
       id="filter3637"
       height="1.2774813"
       y="-0.13874064"
       width="1.279832"
       x="-0.13991599">
      <feGaussianBlur
         id="feGaussianBlur3635"
         stdDeviation="0.28784801"
         inkscape:collect="always" />
    </filter>
    <linearGradient
       x1="31.90625"
       y1="13.510336"
       x2="34.875107"
       y2="13.510336"
       id="linearGradient3310-2"
       xlink:href="#linearGradient3207"
       gradientUnits="userSpaceOnUse"
       gradientTransform="translate(-0.3)"
       spreadMethod="reflect" />
    <linearGradient
       id="linearGradient3207">
      <stop
         style="stop-color:#ffffff;stop-opacity:1"
         offset="0"
         id="stop3209" />
      <stop
         style="stop-color:#790000;stop-opacity:0"
         offset="1"
         id="stop3211" />
    </linearGradient>
    <filter
       id="filter3645"
       height="1.2774813"
       y="-0.13874064"
       width="1.279832"
       x="-0.13991599">
      <feGaussianBlur
         id="feGaussianBlur3643"
         stdDeviation="0.28784801"
         inkscape:collect="always" />
    </filter>
    <filter
       id="filter3656"
       height="1.2774813"
       y="-0.13874064"
       width="1.279832"
       x="-0.13991599">
      <feGaussianBlur
         id="feGaussianBlur3654"
         stdDeviation="0.28784801"
         inkscape:collect="always" />
    </filter>
    <filter
       id="filter3533"
       inkscape:collect="always">
      <feGaussianBlur
         id="feGaussianBlur3535"
         stdDeviation="1.0600355"
         inkscape:collect="always" />
    </filter>
    <linearGradient
       y2="28.942928"
       x2="46.225941"
       y1="123.73875"
       x1="71.626404"
       gradientTransform="matrix(-1.1130409,0,0,1.0184613,112.45815,5.2330091)"
       gradientUnits="userSpaceOnUse"
       id="linearGradient2360"
       xlink:href="#linearGradient3503"
       inkscape:collect="always" />
    <linearGradient
       inkscape:collect="always"
       id="linearGradient3503">
      <stop
         style="stop-color:#005f1e;stop-opacity:1"
         offset="0"
         id="stop3505" />
      <stop
         style="stop-color:#43943c;stop-opacity:1"
         offset="1"
         id="stop3507" />
    </linearGradient>
    <radialGradient
       r="3.15625"
       fy="16.0865"
       fx="71.775223"
       cy="16.0865"
       cx="71.775223"
       gradientTransform="matrix(0.9650814,0.2619502,-0.9201984,3.3902106,33.309062,-57.693239)"
       gradientUnits="userSpaceOnUse"
       id="radialGradient2362"
       xlink:href="#linearGradient3669"
       inkscape:collect="always" />
    <linearGradient
       id="linearGradient3669"
       inkscape:collect="always">
      <stop
         id="stop3671"
         offset="0"
         style="stop-color:#ffffff;stop-opacity:1;" />
      <stop
         id="stop3673"
         offset="1"
         style="stop-color:#ffffff;stop-opacity:0;" />
    </linearGradient>
    <filter
       id="filter3681"
       height="1.1579429"
       y="-0.07897146"
       width="1.2447821"
       x="-0.12239107"
       inkscape:collect="always">
      <feGaussianBlur
         id="feGaussianBlur3683"
         stdDeviation="0.321914"
         inkscape:collect="always" />
    </filter>
    <linearGradient
       y2="46.089832"
       x2="96.373123"
       y1="120.42788"
       x1="96.373123"
       gradientTransform="matrix(-1.1130409,0,0,1.0184613,108.00599,5.2330091)"
       gradientUnits="userSpaceOnUse"
       id="linearGradient2364"
       xlink:href="#linearGradient3511"
       inkscape:collect="always" />
    <linearGradient
       id="linearGradient3511"
       inkscape:collect="always">
      <stop
         id="stop3513"
         offset="0"
         style="stop-color:#002a0d;stop-opacity:1;" />
      <stop
         id="stop3515"
         offset="1"
         style="stop-color:#002a0d;stop-opacity:0;" />
    </linearGradient>
    <radialGradient
       r="3.15625"
       fy="16.0865"
       fx="71.775223"
       cy="16.0865"
       cx="71.775223"
       gradientTransform="matrix(0.9650814,0.2619502,-0.9201984,3.3902106,17.309062,-57.693239)"
       gradientUnits="userSpaceOnUse"
       id="radialGradient2366"
       xlink:href="#linearGradient3689"
       inkscape:collect="always" />
    <linearGradient
       inkscape:collect="always"
       id="linearGradient3689">
      <stop
         style="stop-color:#f0ff80;stop-opacity:1"
         offset="0"
         id="stop3691" />
      <stop
         style="stop-color:#f0ff80;stop-opacity:0"
         offset="1"
         id="stop3693" />
    </linearGradient>
    <linearGradient
       y2="96.363052"
       x2="58.606159"
       y1="32.051865"
       x1="43.799026"
       gradientTransform="matrix(-0.99587876,0,0,0.8717039,107.06869,14.625246)"
       gradientUnits="userSpaceOnUse"
       id="linearGradient2368"
       xlink:href="#linearGradient3294"
       inkscape:collect="always" />
    <linearGradient
       id="linearGradient3294"
       inkscape:collect="always">
      <stop
         id="stop3296"
         offset="0"
         style="stop-color:#37a42c;stop-opacity:1;" />
      <stop
         id="stop3298"
         offset="1"
         style="stop-color:#bff500;stop-opacity:1" />
    </linearGradient>
    <radialGradient
       r="3.578125"
       fy="64.53125"
       fx="11.578125"
       cy="64.53125"
       cx="11.578125"
       gradientTransform="matrix(6.5079869,0,0,1.510917,-63.772161,-32.970115)"
       gradientUnits="userSpaceOnUse"
       id="radialGradient2370"
       xlink:href="#linearGradient3669"
       inkscape:collect="always" />
    <filter
       id="filter3722"
       height="1.5982659"
       y="-0.29913294"
       width="1.9039301"
       x="-0.45196506"
       inkscape:collect="always">
      <feGaussianBlur
         id="feGaussianBlur3724"
         stdDeviation="1.3476562"
         inkscape:collect="always" />
    </filter>
    <radialGradient
       r="50"
       fy="91.805016"
       fx="57.058514"
       cy="79.055809"
       cx="53.630272"
       gradientTransform="matrix(-1.4370427,6.9509099e-8,7.6234303e-8,1.2075453,133.32528,-12.782598)"
       gradientUnits="userSpaceOnUse"
       id="radialGradient2372"
       xlink:href="#linearGradient3348"
       inkscape:collect="always" />
    <linearGradient
       id="linearGradient3348"
       inkscape:collect="always">
      <stop
         id="stop3350"
         offset="0"
         style="stop-color:#cbff10;stop-opacity:1" />
      <stop
         id="stop3352"
         offset="1"
         style="stop-color:#004d00;stop-opacity:1" />
    </linearGradient>
    <linearGradient
       y2="44.287056"
       x2="91.992706"
       y1="112.5"
       x1="91.785248"
       gradientTransform="translate(20)"
       gradientUnits="userSpaceOnUse"
       id="linearGradient2374"
       xlink:href="#linearGradient3400"
       inkscape:collect="always" />
    <linearGradient
       id="linearGradient3400"
       inkscape:collect="always">
      <stop
         id="stop3402"
         offset="0"
         style="stop-color:#e5ff00;stop-opacity:1;" />
      <stop
         id="stop3404"
         offset="1"
         style="stop-color:#e5ff00;stop-opacity:0;" />
    </linearGradient>
    <filter
       id="filter3396"
       inkscape:collect="always">
      <feGaussianBlur
         id="feGaussianBlur3398"
         stdDeviation="0.495"
         inkscape:collect="always" />
    </filter>
    <linearGradient
       y2="80.12056"
       x2="63.159035"
       y1="21.171064"
       x1="63.159035"
       gradientTransform="matrix(-0.99587876,0,0,0.8717039,103.08517,14.625246)"
       gradientUnits="userSpaceOnUse"
       id="linearGradient2378"
       xlink:href="#linearGradient3361"
       inkscape:collect="always" />
    <linearGradient
       id="linearGradient3361"
       inkscape:collect="always">
      <stop
         id="stop3363"
         offset="0"
         style="stop-color:#edffbf;stop-opacity:1;" />
      <stop
         id="stop3365"
         offset="1"
         style="stop-color:#edffbf;stop-opacity:0;" />
    </linearGradient>
    <linearGradient
       y2="48.212151"
       x2="35.568035"
       y1="69.923088"
       x1="73.739265"
       gradientTransform="matrix(-0.99587876,0,0,0.8717039,103.08517,14.625246)"
       gradientUnits="userSpaceOnUse"
       id="linearGradient2380"
       xlink:href="#linearGradient3669"
       inkscape:collect="always" />
    <linearGradient
       y2="80.12056"
       x2="63.159035"
       y1="21.171064"
       x1="63.159035"
       gradientTransform="matrix(-0.99587876,0,0,0.8717039,103.08517,14.625246)"
       gradientUnits="userSpaceOnUse"
       id="linearGradient2382"
       xlink:href="#linearGradient3669"
       inkscape:collect="always" />
    <linearGradient
       inkscape:collect="always"
       xlink:href="#linearGradient3400"
       id="linearGradient23339"
       gradientUnits="userSpaceOnUse"
       gradientTransform="translate(20)"
       x1="91.785248"
       y1="112.5"
       x2="91.992706"
       y2="44.287056" />
    <radialGradient
       inkscape:collect="always"
       xlink:href="#linearGradient4126"
       id="radialGradient4128"
       cx="499.27826"
       cy="92.140617"
       fx="499.27826"
       fy="92.140617"
       r="29.834906"
       gradientTransform="matrix(0.9546372,-0.06061994,0.07329472,1.1542384,15.89524,16.054601)"
       gradientUnits="userSpaceOnUse" />
    <linearGradient
       inkscape:collect="always"
       id="linearGradient4126">
      <stop
         style="stop-color:#0069c4;stop-opacity:1"
         offset="0"
         id="stop4122" />
      <stop
         style="stop-color:#0059a7;stop-opacity:1"
         offset="1"
         id="stop4124" />
    </linearGradient>
    <linearGradient
       inkscape:collect="always"
       xlink:href="#linearGradient1791"
       id="linearGradient4147"
       x1="503.24423"
       y1="47.628471"
       x2="497.52887"
       y2="86.970459"
       gradientUnits="userSpaceOnUse" />
    <linearGradient
       inkscape:collect="always"
       id="linearGradient1791">
      <stop
         style="stop-color:#ffffff;stop-opacity:1"
         offset="0"
         id="stop1787" />
      <stop
         style="stop-color:#fcf3f3;stop-opacity:0;"
         offset="1"
         id="stop1789" />
    </linearGradient>
    <linearGradient
       inkscape:collect="always"
       xlink:href="#linearGradient1791"
       id="linearGradient4160"
       x1="497.28656"
       y1="138.79289"
       x2="496.11801"
       y2="155.81139"
       gradientUnits="userSpaceOnUse" />
  </defs>
  <sodipodi:namedview
     pagecolor="#ffffff"
     bordercolor="#666666"
     borderopacity="1"
     objecttolerance="10"
     gridtolerance="10"
     guidetolerance="10"
     inkscape:pageopacity="0"
     inkscape:pageshadow="2"
     inkscape:window-width="1366"
     inkscape:window-height="706"
     id="namedview121"
     showgrid="true"
     inkscape:snap-page="true"
     inkscape:zoom="1.8963319"
     inkscape:cx="-82.096602"
     inkscape:cy="128.87638"
     inkscape:window-x="0"
     inkscape:window-y="0"
     inkscape:window-maximized="1"
     inkscape:current-layer="svg119"
     inkscape:snap-global="false">
    <inkscape:grid
       type="xygrid"
       id="grid979"
       spacingx="5.8181819"
       spacingy="5.8181819"
       empspacing="2" />
  </sodipodi:namedview>
  <linearGradient
     id="a">
    <stop
       offset="0"
       stop-color="#fff"
       id="stop2" />
    <stop
       offset="1"
       stop-color="#fff"
       stop-opacity="0"
       id="stop4" />
  </linearGradient>
  <linearGradient
     id="b"
     gradientUnits="userSpaceOnUse"
     x1="28"
     x2="28"
     xlink:href="#a"
     y1="57.5"
     y2="0" />
  <filter
     id="c"
     height="1.294962"
     width="1.106002"
     x="-0.053001001"
     y="-0.14748099">
    <feGaussianBlur
       stdDeviation="1.4133574"
       id="feGaussianBlur8" />
  </filter>
  <clipPath
     id="d">
    <path
       d="M 18.1875,56 C 16.967826,56 16,56.967827 16,58.1875 V 75.25 C 25.640301,77.646967 36.509296,79 48,79 59.490704,79 70.359699,77.646967 80,75.25 V 58.1875 C 80,56.967826 79.032173,56 77.8125,56 Z"
       id="path11"
       inkscape:connector-curvature="0"
       style="filter:url(#c)" />
  </clipPath>
  <linearGradient
     gradientUnits="userSpaceOnUse"
     x1="56"
     x2="56"
     xlink:href="#b"
     y1="20"
     y2="88.117546"
     id="linearGradient14" />
  <filter
     id="e">
    <feGaussianBlur
       stdDeviation="1.9"
       id="feGaussianBlur16" />
  </filter>
  <filter
     id="f">
    <feGaussianBlur
       stdDeviation="1.1263538"
       id="feGaussianBlur19" />
  </filter>
  <linearGradient
     id="g"
     gradientUnits="userSpaceOnUse"
     x1="56"
     x2="56"
     xlink:href="#a"
     y1="32"
     y2="88.117546" />
  <linearGradient
     id="h"
     gradientUnits="userSpaceOnUse"
     x1="52"
     x2="52"
     y1="64"
     y2="68">
    <stop
       offset="0"
       id="stop23" />
    <stop
       offset="1"
       stop-opacity="0"
       id="stop25" />
  </linearGradient>
  <radialGradient
     id="i"
     cx="48"
     cy="112"
     gradientTransform="matrix(1.0107803,0,0,0.7798658,30.921447,25.75368)"
     gradientUnits="userSpaceOnUse"
     r="32">
    <stop
       offset="0"
       stop-color="#ffea00"
       id="stop28" />
    <stop
       offset="1"
       stop-color="#ffa000"
       id="stop30" />
  </radialGradient>
  <radialGradient
     id="j"
     cx="100.88867"
     cy="155.99673"
     gradientTransform="matrix(4.4358932,0,0,4.0437488,-312.90386,-445.7342)"
     gradientUnits="userSpaceOnUse"
     r="40">
    <stop
       offset="0"
       stop-color="#fff"
       id="stop33" />
    <stop
       offset=".11366145"
       stop-color="#bdbebf"
       id="stop35" />
    <stop
       offset=".20296688"
       stop-color="#ececec"
       id="stop37" />
    <stop
       offset=".2363"
       stop-color="#fafafa"
       id="stop39" />
    <stop
       offset=".38818121"
       stop-color="#fff"
       id="stop41" />
    <stop
       offset=".5313"
       stop-color="#fafafa"
       id="stop43" />
    <stop
       offset=".8449"
       stop-color="#ebecec"
       id="stop45" />
    <stop
       offset="1"
       stop-color="#e1e2e3"
       id="stop47" />
  </radialGradient>
  <filter
     id="k"
     height="1.072142"
     width="1.071866"
     x="-0.035932999"
     y="-0.036070999"
     style="color-interpolation-filters:sRGB">
    <feGaussianBlur
       stdDeviation=".66434216"
       id="feGaussianBlur50" />
  </filter>
  <radialGradient
     id="l"
     cx="-55.685837"
     cy="-347.11612"
     gradientTransform="matrix(-0.89528211,-0.23989009,0.26001404,-0.9703857,-29.034684,-654.02683)"
     gradientUnits="userSpaceOnUse"
     r="22.14249">
    <stop
       offset="0"
       stop-color="#82c133"
       id="stop53" />
    <stop
       offset="1"
       stop-color="#72b028"
       id="stop55" />
  </radialGradient>
  <linearGradient
     id="m"
     gradientUnits="userSpaceOnUse"
     x1="328.12448"
     x2="336.98077"
     y1="120.81158"
     y2="87.759453">
    <stop
       offset="0"
       stop-color="#96ff00"
       id="stop58" />
    <stop
       offset="1"
       stop-color="#609800"
       id="stop60" />
  </linearGradient>
  <clipPath
     id="n">
    <circle
       cx="343.91208"
       cy="92.325096"
       r="36"
       transform="matrix(0.86602539,0.50000002,0.49999965,-0.86602561,0,0)"
       id="circle63" />
  </clipPath>
  <filter
     id="o">
    <feGaussianBlur
       stdDeviation="2.8805897"
       id="feGaussianBlur66" />
  </filter>
  <radialGradient
     id="p"
     cx="343.99899"
     cy="92"
     gradientTransform="matrix(0.47032074,0,0,0.4703204,-235.54627,-330.99181)"
     gradientUnits="userSpaceOnUse"
     r="36">
    <stop
       offset="0"
       stop-color="#e5ff00"
       id="stop69" />
    <stop
       offset="1"
       stop-color="#bff500"
       stop-opacity="0"
       id="stop71" />
  </radialGradient>
  <linearGradient
     id="q"
     gradientUnits="userSpaceOnUse"
     x1="122.00004"
     x2="122.00004"
     y1="61.999996"
     y2="9.9328432">
    <stop
       offset="0"
       stop-color="#004d00"
       stop-opacity="0"
       id="stop74" />
    <stop
       offset=".5"
       stop-color="#004d00"
       id="stop76" />
    <stop
       offset="1"
       stop-color="#004d00"
       stop-opacity="0"
       id="stop78" />
  </linearGradient>
  <filter
     id="r">
    <feGaussianBlur
       stdDeviation="1.04"
       id="feGaussianBlur81" />
  </filter>
  <linearGradient
     id="s"
     gradientTransform="matrix(0,0.47393418,-0.47393451,0,83.152635,278.87871)"
     gradientUnits="userSpaceOnUse"
     x1="-80.00296"
     x2="-45.096584"
     xlink:href="#a"
     y1="-131.93112"
     y2="-131.93112" />
  <g
     id="g171">
    <path
       transform="matrix(-0.99587876,0,0,0.96188012,119.01924,8.8539655)"
       id="path3519"
       d="m 87.875,12 c -0.865503,0.02693 -1.698899,0.333976 -2.375,0.875 l -60,48 C 24.550144,61.634129 24,62.784063 24,64 c 0,1.215937 0.550144,2.365871 1.5,3.125 l 60,48 c 1.200963,0.96113 2.832437,1.13525 4.21875,0.46875 C 91.105067,114.92725 92.000642,113.53821 92,112 V 88.3125 78.0625 L 90.5,76.875 C 89.299037,75.91387 87.667563,75.739753 86.28125,76.40625 84.894933,77.072748 83.999358,78.461793 84,80 v 23.6875 L 34.40625,64 84,24.3125 V 48 c -6.42e-4,1.538207 0.894936,2.927253 2.28125,3.59375 1.38631,0.666496 3.017787,0.49238 4.21875,-0.46875 L 92,49.9375 V 39.6875 16 C 92.000417,14.917152 91.558627,13.878821 90.78125,13.125 90.003873,12.37118 88.957323,11.966273 87.875,12 Z"
       style="opacity:0.90526321;fill:none;fill-opacity:1;fill-rule:evenodd;stroke:#638000;stroke-width:0.9659996;stroke-linecap:butt;stroke-linejoin:round;stroke-miterlimit:4;stroke-dasharray:none;stroke-opacity:1;filter:url(#filter3533)"
       inkscape:connector-curvature="0" />
    <path
       id="path3302"
       d="m 28.006165,17.454545 c 0.96334,0.02743 1.890944,0.340142 2.643472,0.891154 l 66.782461,48.886143 c 1.057229,0.773143 1.669562,1.944306 1.669562,3.182692 0,1.238385 -0.612333,2.409548 -1.669562,3.182691 L 30.649637,122.48337 c -1.33672,0.97887 -3.152618,1.1562 -4.69564,0.4774 -1.543029,-0.6788 -2.539843,-2.09349 -2.539126,-3.66009 V 95.175874 90.656452 84.736646 56.092422 51.063769 45.653193 21.52839 c -4.68e-4,-1.102839 0.491266,-2.160339 1.356519,-2.928076 0.865253,-0.767737 2.030106,-1.180119 3.234775,-1.145769 z M 32.3192,29.994349 v 20.050958 h 16.695614 c 0.616625,0 1.113042,0.454235 1.113042,1.018462 v 39.592683 c 0,0.564228 -0.496417,1.018462 -1.113042,1.018462 H 32.3192 V 110.83472 L 87.519077,70.414534 Z"
       style="fill:url(#linearGradient2360);fill-opacity:1;fill-rule:evenodd;stroke:none;stroke-width:7.5636363;stroke-linecap:butt;stroke-linejoin:round;stroke-miterlimit:4;stroke-dasharray:none;stroke-opacity:1"
       inkscape:connector-curvature="0" />
    <path
       transform="matrix(-0.99587876,0,0,0.96188012,116.17178,10.074304)"
       id="path3651"
       d="m 87.875,12 c -0.799041,0.02487 -1.572946,0.283948 -2.21875,0.75 L 86.625,21.78125 91.96875,15.625 c -0.08779,-0.946211 -0.499493,-1.832841 -1.1875,-2.5 C 90.003873,12.37118 88.957323,11.966273 87.875,12 Z"
       style="opacity:0.85;fill:url(#radialGradient2362);fill-opacity:1;fill-rule:evenodd;stroke:none;stroke-width:8;stroke-linecap:butt;stroke-linejoin:round;stroke-miterlimit:4;stroke-dasharray:none;stroke-opacity:1;filter:url(#filter3681)"
       inkscape:connector-curvature="0" />
    <path
       id="path3509"
       d="m 28.006165,17.454545 c 0.96334,0.02743 1.890944,0.340142 2.643472,0.891154 l 66.782461,48.886143 c 1.057229,0.773143 1.669562,1.944306 1.669562,3.182692 0,1.238385 -0.612333,2.409548 -1.669562,3.182691 L 30.649637,122.48337 c -1.33672,0.97887 -3.152618,1.1562 -4.69564,0.4774 -1.543029,-0.6788 -2.539843,-2.09349 -2.539126,-3.66009 V 95.175874 90.656452 89.95626 84.736646 56.092422 51.063769 50.872806 45.653193 21.52839 c -4.68e-4,-1.102839 0.491266,-2.160339 1.356519,-2.928076 0.865253,-0.767737 2.030106,-1.180119 3.234775,-1.145769 z M 32.3192,29.994349 v 20.050958 h 16.695614 c 0.616625,0 1.113042,0.454235 1.113042,1.018462 v 39.592683 c 0,0.564228 -0.496417,1.018462 -1.113042,1.018462 H 32.3192 V 110.83472 L 87.519077,70.414534 Z"
       style="opacity:0.90526321;fill:url(#linearGradient2364);fill-opacity:1;fill-rule:evenodd;stroke:none;stroke-width:7.5636363;stroke-linecap:butt;stroke-linejoin:round;stroke-miterlimit:4;stroke-dasharray:none;stroke-opacity:1"
       inkscape:connector-curvature="0" />
    <path
       transform="matrix(-0.99587876,0,0,-0.96188012,100.23771,132.98268)"
       style="opacity:0.35;fill:url(#radialGradient2366);fill-opacity:1;fill-rule:evenodd;stroke:none;stroke-width:8;stroke-linecap:butt;stroke-linejoin:round;stroke-miterlimit:4;stroke-dasharray:none;stroke-opacity:1;filter:url(#filter3681)"
       d="m 71.875,12 c -0.799041,0.02487 -1.572946,0.283948 -2.21875,0.75 L 70.625,21.78125 75.96875,15.625 c -0.08779,-0.946211 -0.499493,-1.832841 -1.1875,-2.5 C 74.003873,12.37118 72.957323,11.966273 71.875,12 Z"
       id="path3685"
       inkscape:connector-curvature="0" />
    <path
       transform="matrix(-0.99587876,0,0,-0.96188012,103.08517,132.51568)"
       id="path3705"
       d="M 11.6875,59.125 9.5,60.875 C 8.5501441,61.634129 8,62.784063 8,64 c 10e-8,1.215937 0.5501441,2.365871 1.5,3.125 l 3.53125,2.8125 2.125,-5.625 z"
       style="opacity:0.5;fill:url(#radialGradient2370);fill-opacity:1;fill-rule:evenodd;stroke:none;stroke-width:8;stroke-linecap:butt;stroke-linejoin:round;stroke-miterlimit:4;stroke-dasharray:none;stroke-opacity:1;filter:url(#filter3722)"
       inkscape:connector-curvature="0" />
    <path
       transform="matrix(-0.99587876,0,0,0.8717039,123.00275,14.625246)"
       id="path3394"
       d="M 92,16 32,64 92,112 V 80 48 Z"
       style="fill:none;fill-opacity:1;fill-rule:evenodd;stroke:url(#linearGradient23339);stroke-width:1.0147357px;stroke-linecap:butt;stroke-linejoin:miter;stroke-opacity:1;filter:url(#filter3396)"
       inkscape:connector-curvature="0" />
    <path
       transform="matrix(-0.99587876,0,0,0.8717039,123.00275,14.625246)"
       style="fill:none;fill-opacity:1;fill-rule:evenodd;stroke:url(#linearGradient2374);stroke-width:1.0147357px;stroke-linecap:butt;stroke-linejoin:miter;stroke-opacity:1;filter:url(#filter3396)"
       d="M 92,16 32,64 92,112 V 80 48 Z"
       id="path3895"
       inkscape:connector-curvature="0" />
    <g
       transform="matrix(1.075,0,0,1.075,-4.5943699,-5.2810721)"
       id="g1013">
      <path
         inkscape:connector-curvature="0"
         style="fill:url(#linearGradient2368);fill-opacity:1;fill-rule:evenodd;stroke:none;stroke-width:0.94545454px;stroke-linecap:butt;stroke-linejoin:miter;stroke-opacity:1"
         d="M 91.134629,70.414294 31.381901,28.572509 v 83.683571 z"
         id="path2323"
         sodipodi:nodetypes="cccc" />
      <path
         inkscape:connector-curvature="0"
         style="fill:url(#radialGradient2372);fill-opacity:1;fill-rule:evenodd;stroke:none;stroke-width:0.94545454px;stroke-linecap:butt;stroke-linejoin:miter;stroke-opacity:1"
         d="M 31.381901,28.572509 91.134629,70.414294 31.381901,112.25608 V 84.361556 56.467032 Z"
         id="path3320" />
      <path
         inkscape:connector-curvature="0"
         style="fill:url(#linearGradient2378);fill-opacity:1;fill-rule:evenodd;stroke:none;stroke-width:0.94545454px;stroke-linecap:butt;stroke-linejoin:miter;stroke-opacity:1"
         d="m 31.381901,28.572509 59.628243,41.760063 c -6.423282,0.81199 -13.252352,1.253075 -20.353273,1.253074 -14.667455,0 -28.241722,-1.869181 -39.27497,-5.039538 V 56.467032 Z"
         id="path3897" />
      <path
         inkscape:connector-curvature="0"
         style="fill:url(#linearGradient2380);fill-opacity:1;fill-rule:evenodd;stroke:none;stroke-width:0.94545454px;stroke-linecap:butt;stroke-linejoin:miter;stroke-opacity:1"
         d="m 31.381901,28.572509 0.840273,0.599296 v 26.913858 9.942871 c 10.880336,3.126419 24.250612,4.957817 38.714788,4.957817 6.742491,0 13.229898,-0.399355 19.357394,-1.144113 l 0.715788,0.490334 c -6.423282,0.81199 -13.252352,1.253075 -20.353273,1.253074 -14.667455,0 -28.241722,-1.869181 -39.27497,-5.039538 V 56.467032 Z"
         id="path3910" />
      <path
         inkscape:connector-curvature="0"
         style="fill:url(#linearGradient2382);fill-opacity:1;fill-rule:evenodd;stroke:none;stroke-width:0.94545454px;stroke-linecap:butt;stroke-linejoin:miter;stroke-opacity:1"
         d="m 31.381901,28.572509 59.628243,41.760063 c -3.395424,0.429227 -6.91655,0.74185 -10.51897,0.953426 3.297796,-0.205537 6.530454,-0.532138 9.647577,-0.926186 L 32.253296,29.825582 v 27.077302 9.779427 c 4.015702,1.153897 8.373438,2.145123 13.008666,2.914761 -4.946427,-0.804213 -9.610698,-1.824181 -13.880061,-3.050964 V 56.467032 Z m 49.109273,42.713489 c -1.649821,0.0969 -3.323328,0.16985 -5.010514,0.217926 1.687972,-0.05244 3.361617,-0.115158 5.010514,-0.217926 z"
         id="path3919" />
    </g>
  </g>
  <g
     id="g4168"
     transform="matrix(1.4545455,0,0,1.4545455,-589.07925,-64.07557)">
    <path
       sodipodi:nodetypes="sccscscscsccccccccsccscscs"
       d="m 481.87149,66.760151 c 0,1.454219 0.82087,3.076234 2.46262,4.866043 1.98141,2.125398 3.19856,4.055036 3.65145,5.788913 0.22645,0.950836 0.33968,1.957603 0.33968,3.020302 0,4.530454 -1.75497,7.746517 -5.2649,9.648189 -1.69835,0.894905 -3.59485,1.342357 -5.68949,1.342357 -4.24589,0 -7.50107,-1.789809 -9.76554,-5.369427 -1.35868,-2.237261 -2.03802,-4.782145 -2.03802,-7.634653 0,-7.382963 3.17026,-13.395602 9.51078,-18.037919 6.11408,-4.474522 13.8416,-6.711783 23.18255,-6.711783 11.54881,0 20.52178,3.132166 26.91892,9.396497 5.15167,5.089769 7.75582,11.465963 7.81243,19.128583 0,6.655852 -2.00972,12.276971 -6.02917,16.863356 -3.17026,3.579621 -6.1521,7.466861 -12.94552,11.661721 -5.03845,3.07623 -8.29362,5.64908 -9.76553,7.71855 -1.64175,2.34913 -2.51923,6.12451 -2.63245,11.32614 v 2.60082 h -7.17998 c -0.22645,-3.46775 -0.33968,-6.09654 -0.33968,-7.88635 0,-4.19486 1.4153,-8.94904 4.24589,-14.26254 3.00043,-5.64908 4.75539,-9.08887 5.2649,-10.319372 2.32109,-5.59315 3.48163,-11.493925 3.48163,-17.702325 0,-10.459196 -2.66075,-17.310809 -7.98226,-20.554838 -1.98142,-1.174561 -4.18928,-1.761842 -6.62359,-1.761842 -4.75539,0 -7.98227,1.286425 -9.68062,3.859275 -0.62273,0.950836 -0.9341,1.957604 -0.9341,3.020303 z"
       style="font-style:normal;font-variant:normal;font-weight:bold;font-stretch:normal;font-size:172.86343384px;line-height:125%;font-family:KacstOne;-inkscape-font-specification:'KacstOne, Bold';font-variant-ligatures:normal;font-variant-caps:normal;font-variant-numeric:normal;font-feature-settings:normal;text-align:start;letter-spacing:0px;word-spacing:0px;writing-mode:lr-tb;text-anchor:start;fill:#0a4786;fill-opacity:0.88627451;stroke:none;stroke-width:4.32169867px;stroke-linecap:butt;stroke-linejoin:miter;stroke-opacity:1"
       id="path4094"
       inkscape:connector-curvature="0" />
    <path
       id="path4098"
       d="m 499.47852,57.634766 c 0.53005,0.240672 1.10426,0.373611 1.60742,0.671875 a 3.8779596,3.8779596 0 0 1 0.041,0.02539 c 6.90286,4.208038 9.8418,12.748378 9.8418,23.865235 0,6.691141 -1.25939,13.126635 -3.77539,19.189454 -0.73732,1.78042 -2.41199,4.97983 -5.42383,10.65039 a 3.8779596,3.8779596 0 0 1 -0.002,0.004 c -2.63144,4.93966 -3.79102,9.11883 -3.79102,12.4414 0,0.46101 0.0762,1.55202 0.0937,2.16406 0.35029,-4.10603 1.09673,-7.69686 3.00391,-10.42578 a 3.8779596,3.8779596 0 0 1 0.0176,-0.0273 c 2.15462,-3.02934 5.67342,-5.58441 10.88867,-8.76953 l 0.0156,-0.01 c 6.29244,-3.88881 8.76629,-7.20016 12.05079,-10.910154 3.40348,-3.883537 5.06328,-8.42379 5.0664,-14.291015 -0.0532,-6.789217 -2.19582,-11.972632 -6.65234,-16.378907 -5.33945,-5.225828 -12.80852,-7.980298 -22.98242,-8.199218 z m -20.29688,4.787109 c -0.59815,0.371636 -1.24934,0.678229 -1.81445,1.091797 -5.54938,4.063504 -7.92383,8.636071 -7.92383,14.908203 0,2.225797 0.49601,3.990485 1.4668,5.597656 1.66993,2.621849 3.32125,3.529297 6.46093,3.529297 1.53135,0 2.74623,-0.305397 3.85547,-0.884766 2.36356,-1.284984 3.22266,-2.707982 3.22266,-6.228515 0,-0.766594 -0.0846,-1.444535 -0.22852,-2.066406 -0.20947,-0.775439 -1.01337,-2.264158 -2.72265,-4.097657 a 3.8779596,3.8779596 0 0 1 -0.0215,-0.02344 c -1.99579,-2.175778 -3.48242,-4.574388 -3.48242,-7.488281 0,-1.52005 0.47879,-3.000878 1.1875,-4.337891 z"
       style="font-style:normal;font-variant:normal;font-weight:bold;font-stretch:normal;font-size:172.86343384px;line-height:125%;font-family:KacstOne;-inkscape-font-specification:'KacstOne, Bold';font-variant-ligatures:normal;font-variant-caps:normal;font-variant-numeric:normal;font-feature-settings:normal;text-align:start;letter-spacing:0px;word-spacing:0px;writing-mode:lr-tb;text-anchor:start;fill:url(#radialGradient4128);fill-opacity:1;stroke:none;stroke-width:4.32169867px;stroke-linecap:butt;stroke-linejoin:miter;stroke-opacity:1"
       inkscape:connector-curvature="0" />
    <circle
       r="15.653679"
       cy="156.39827"
       cx="498.28571"
       id="path4132"
       style="opacity:1;fill:#094786;fill-opacity:1;stroke:none;stroke-width:6.30981588;stroke-linecap:square;stroke-linejoin:bevel;stroke-miterlimit:4;stroke-dasharray:none;stroke-dashoffset:0;stroke-opacity:0.73039216" />
    <circle
       style="opacity:1;fill:#006ac5;fill-opacity:0.98039216;stroke:none;stroke-width:4.96967793;stroke-linecap:square;stroke-linejoin:bevel;stroke-miterlimit:4;stroke-dasharray:none;stroke-dashoffset:0;stroke-opacity:0.73039216"
       id="circle4134"
       cx="498.28571"
       cy="156.39827"
       r="12.329003" />
    <path
       id="path4136"
       d="m 499.47852,57.634766 c 0.53005,0.240672 1.10426,0.373611 1.60742,0.671875 a 3.8779596,3.8779596 0 0 1 0.041,0.02539 c 6.90286,4.208038 9.8418,12.748378 9.8418,23.865235 0,3.11842 -0.28522,6.178309 -0.83203,9.173828 a 91.151512,37.125542 0 0 0 17.62305,-1.039063 c 0.8984,-2.415709 1.3519,-5.087224 1.35351,-8.11914 -0.0532,-6.789217 -2.19582,-11.972632 -6.65234,-16.378907 -5.33945,-5.225828 -12.80852,-7.980298 -22.98242,-8.199218 z m -20.29688,4.787109 c -0.59815,0.371636 -1.24934,0.678229 -1.81445,1.091797 -5.54938,4.063504 -7.92383,8.636071 -7.92383,14.908203 0,2.225797 0.49601,3.990485 1.4668,5.597656 1.66993,2.621849 3.32125,3.529297 6.46093,3.529297 1.53135,0 2.74623,-0.305397 3.85547,-0.884766 2.36356,-1.284983 3.22266,-2.707982 3.22266,-6.228515 0,-0.766594 -0.0846,-1.444535 -0.22852,-2.066406 -0.20947,-0.775439 -1.01337,-2.264158 -2.72265,-4.097657 a 3.8779596,3.8779596 0 0 1 -0.0215,-0.02344 c -1.99579,-2.175778 -3.48242,-4.574388 -3.48242,-7.488281 0,-1.52005 0.47879,-3.000878 1.1875,-4.337891 z"
       style="opacity:1;fill:url(#linearGradient4147);fill-opacity:1;stroke:none;stroke-width:4.8579998;stroke-linecap:square;stroke-linejoin:bevel;stroke-miterlimit:4;stroke-dasharray:none;stroke-dashoffset:0;stroke-opacity:0.73039216"
       inkscape:connector-curvature="0" />
    <path
       id="path4149"
       d="m 498.28516,144.06836 a 12.329003,12.329003 0 0 0 -12.32813,12.33008 12.329003,12.329003 0 0 0 0.0195,0.54492 38.372295,8.727273 0 0 0 11.75586,0.42383 38.372295,8.727273 0 0 0 12.85938,-0.51367 12.329003,12.329003 0 0 0 0.0234,-0.45508 12.329003,12.329003 0 0 0 -12.33007,-12.33008 z"
       style="opacity:1;fill:url(#linearGradient4160);fill-opacity:1;stroke:none;stroke-width:4.8579998;stroke-linecap:square;stroke-linejoin:bevel;stroke-miterlimit:4;stroke-dasharray:none;stroke-dashoffset:0;stroke-opacity:0.73039216"
       inkscape:connector-curvature="0" />
  </g>
</svg>
