<?xml version="1.0" encoding="UTF-8" standalone="no"?>
<!-- Created with Inkscape (http://www.inkscape.org/) -->

<svg
   xmlns:dc="http://purl.org/dc/elements/1.1/"
   xmlns:cc="http://creativecommons.org/ns#"
   xmlns:rdf="http://www.w3.org/1999/02/22-rdf-syntax-ns#"
   xmlns:svg="http://www.w3.org/2000/svg"
   xmlns="http://www.w3.org/2000/svg"
   xmlns:xlink="http://www.w3.org/1999/xlink"
   xmlns:sodipodi="http://sodipodi.sourceforge.net/DTD/sodipodi-0.dtd"
   xmlns:inkscape="http://www.inkscape.org/namespaces/inkscape"
   version="1.1"
   id="svg2"
   width="128"
   height="128"
   viewBox="0 0 128 128"
   sodipodi:docname="arrowshapes.split-round-arrow.svg"
   inkscape:export-filename="/home/rizmut/Dokumen/Rizmut/Github/libreoffice-style-karasa-jaga/build/images_karasa_jaga/cmd/32/arrowshapes.split-round-arrow.png"
   inkscape:export-xdpi="24"
   inkscape:export-ydpi="24"
   inkscape:version="0.92.3 (unknown)">
  <metadata
     id="metadata8">
    <rdf:RDF>
      <cc:Work
         rdf:about="">
        <dc:format>image/svg+xml</dc:format>
        <dc:type
           rdf:resource="http://purl.org/dc/dcmitype/StillImage" />
        <dc:title></dc:title>
      </cc:Work>
    </rdf:RDF>
  </metadata>
  <defs
     id="defs6">
    <inkscape:perspective
       id="perspective27"
       inkscape:persp3d-origin="64 : 42.666667 : 1"
       inkscape:vp_z="128 : 64 : 1"
       inkscape:vp_y="0 : 1000 : 0"
       inkscape:vp_x="0 : 64 : 1"
       sodipodi:type="inkscape:persp3d" />
    <linearGradient
       id="linearGradient3369">
      <stop
         id="stop3372"
         offset="0"
         style="stop-color:#ffffff;stop-opacity:1;" />
      <stop
         style="stop-color:#ffffff;stop-opacity:1;"
         offset="0.58620691"
         id="stop3374" />
      <stop
         style="stop-color:#f1f1f1;stop-opacity:1;"
         offset="0.86206895"
         id="stop3376" />
      <stop
         id="stop3378"
         offset="0.93103451"
         style="stop-color:#eaeaea;stop-opacity:1;" />
      <stop
         id="stop3384"
         offset="1"
         style="stop-color:#dfdfdf;stop-opacity:1;" />
    </linearGradient>
    <linearGradient
       id="linearGradient7422">
      <stop
         style="stop-color:#7c9fcf;stop-opacity:1"
         offset="0"
         id="stop7424" />
      <stop
         id="stop5348"
         offset="0.5"
         style="stop-color:#7c9ece;stop-opacity:1" />
      <stop
         id="stop7426"
         offset="1"
         style="stop-color:#7b9dcf;stop-opacity:1" />
    </linearGradient>
    <linearGradient
       y2="388.95178"
       x2="399.77466"
       y1="1324.7792"
       x1="405.94968"
       gradientTransform="matrix(0.08097132,0,0,0.07807154,182.74486,-6.9021226)"
       gradientUnits="userSpaceOnUse"
       id="linearGradient2330"
       xlink:href="#linearGradient7422"
       inkscape:collect="always" />
    <linearGradient
       inkscape:collect="always"
       xlink:href="#linearGradient3369"
       id="linearGradient32736"
       x1="64"
       y1="128"
       x2="64"
       y2="12"
       gradientUnits="userSpaceOnUse" />
    <linearGradient
       inkscape:collect="always"
       xlink:href="#linearGradient7422"
       id="linearGradient849"
       x1="8.0306721"
       y1="68.5532"
       x2="119.96933"
       y2="68.5532"
       gradientUnits="userSpaceOnUse" />
  </defs>
  <sodipodi:namedview
     pagecolor="#ffffff"
     bordercolor="#666666"
     borderopacity="1"
     objecttolerance="10"
     gridtolerance="10"
     guidetolerance="10"
     inkscape:pageopacity="0"
     inkscape:pageshadow="2"
     inkscape:window-width="1366"
     inkscape:window-height="706"
     id="namedview4"
     showgrid="true"
     inkscape:snap-page="true"
     inkscape:snap-global="true"
     inkscape:zoom="1.7320077"
     inkscape:cx="33.003401"
     inkscape:cy="53.762689"
     inkscape:window-x="0"
     inkscape:window-y="0"
     inkscape:window-maximized="1"
     inkscape:current-layer="svg2"
     showguides="true">
    <inkscape:grid
       type="xygrid"
       id="grid837"
       spacingx="4"
       spacingy="4"
       empspacing="1" />
  </sodipodi:namedview>
  <path
     style="fill:url(#linearGradient849);fill-opacity:1;fill-rule:evenodd;stroke:none;stroke-width:4.6329999;stroke-linecap:round;stroke-linejoin:round;stroke-miterlimit:4;stroke-dasharray:none;stroke-opacity:1"
     d="m 27.486328,9.09375 c -0.547729,-0.068182 -0.986414,-0.032726 -1.316406,0.011719 -0.147748,0.012321 0.150039,-0.034096 -0.144531,0.013672 a 4.0003859,4.0003859 0 0 0 -0.0039,0.00195 c -0.558733,0.091296 -0.239013,0.040116 -0.302734,0.072266 -0.289152,0.065333 -0.608452,0.158899 -0.9375,0.3046875 -0.251476,0.1114648 -0.316727,0.1522259 -0.214844,0.1015625 a 4.0003859,4.0003859 0 0 0 -0.02148,0.011719 C 24.818922,9.473071 24.71622,9.5107829 24.375,9.6992188 24.070026,9.8681881 23.631397,10.153907 23.220703,10.564453 a 4.0003859,4.0003859 0 0 0 -0.53125,0.658203 L 8.8867188,32.591797 a 4.0003859,4.0003859 0 0 0 -0.1972657,0.339844 c -0.6049028,1.175773 -0.6513963,1.954026 -0.6582031,2.867187 -0.00681,0.913161 0.033989,1.907564 0.8183594,3.214844 a 4.0003859,4.0003859 0 0 0 0.044922,0.07422 L 22.316406,60.392578 a 4.0003859,4.0003859 0 0 0 0.556641,0.695313 c 1.695527,1.695532 4.409731,1.765531 6.037109,0.984375 C 30.537535,61.291109 32.040604,59.802386 32,57.255859 V 48 h 6.792969 a 4.0003859,4.0003859 0 0 0 0.04883,0 c 1.886442,-0.02277 6.004778,0.236678 8.931641,1.482422 1.463431,0.622872 2.57109,1.427216 3.257812,2.376953 0.686722,0.949737 1.129129,2.08907 0.978516,4.210937 A 4.0003859,4.0003859 0 0 0 52,56.353516 V 56.404297 124 v 0.0508 a 4.0003859,4.0003859 0 0 0 4,4 h 0.271484 a 4.0003859,4.0003859 0 0 0 0.01367,0 L 64,128.02539 l 7.714844,0.0254 a 4.0003859,4.0003859 0 0 0 0.01367,0 H 72 a 4.0003859,4.0003859 0 0 0 4,-4 V 124 56.404297 56.353516 a 4.0003859,4.0003859 0 0 0 -0.0098,-0.283204 c -0.150612,-2.121867 0.291794,-3.2612 0.978516,-4.210937 0.686722,-0.949737 1.794382,-1.754081 3.257812,-2.376953 C 83.153424,48.236679 87.271761,47.977228 89.158203,48 a 4.0003859,4.0003859 0 0 0 0.04883,0 H 96 v 9.255859 c -0.0406,2.54653 1.462466,4.035251 3.089844,4.816407 1.627376,0.781155 4.341586,0.711158 6.037106,-0.984375 a 4.0003859,4.0003859 0 0 0 0.55664,-0.695313 l 13.42188,-21.304687 a 4.0003859,4.0003859 0 0 0 0.0449,-0.07422 c 0.78437,-1.307261 0.82516,-2.301673 0.81836,-3.214844 -0.007,-0.913171 -0.0533,-1.691371 -0.6582,-2.867187 a 4.0003859,4.0003859 0 0 0 -0.19727,-0.339844 L 105.31055,11.222656 a 4.0003859,4.0003859 0 0 0 -0.53125,-0.658203 c -0.41064,-0.410489 -0.84927,-0.6962353 -1.1543,-0.8652342 -0.37532,-0.208134 -0.45182,-0.2301347 -0.16992,-0.087891 a 4.0003859,4.0003859 0 0 0 -0.0215,-0.011719 c 0.1023,0.05087 0.037,0.010075 -0.21484,-0.1015625 -0.3276,-0.1451453 -0.64355,-0.2374008 -0.93164,-0.3027344 -0.0605,-0.03105 0.25486,0.019654 -0.29883,-0.072266 a 4.0003859,4.0003859 0 0 0 -0.0137,-0.00391 c -0.34225,-0.0555 -0.0245,-0.00628 -0.16797,-0.015625 -0.32485,-0.042736 -0.75115,-0.076745 -1.29102,-0.00977 a 4.0003859,4.0003859 0 0 0 -0.004,0 C 99.865806,9.1744825 99.36358,9.3616697 98.996094,9.5292969 98.531971,9.7410786 98.397393,9.8531956 98.578125,9.75 v -0.00195 c -0.23743,0.1354473 -0.538754,0.3273031 -0.865234,0.6152341 a 4.0003859,4.0003859 0 0 0 -0.002,0.002 c -0.161659,0.142767 -0.309273,0.293963 -0.423829,0.421875 -0.291112,0.32495 -0.503604,0.650158 -0.658203,0.929688 C 96.354559,12.21289 95.990842,13.061565 96,14.134766 V 24 h -6.679688 -7.791015 a 4.0003859,4.0003859 0 0 0 -0.642578,0.05273 C 75.690598,24.897724 71.559479,26.2786 68.205078,28.773438 66.576897,29.984398 65.213885,31.434437 64,33.066406 62.786115,31.434438 61.423102,29.984398 59.794922,28.773438 56.440522,26.2786 52.309403,24.897724 47.113281,24.052734 A 4.0003859,4.0003859 0 0 0 46.470703,24 H 38.679688 32 v -9.865234 c 0.0092,-1.073258 -0.354616,-1.921952 -0.628906,-2.417969 -0.153529,-0.277523 -0.365972,-0.600916 -0.654297,-0.923828 l -0.0039,-0.0059 c -0.11427,-0.127593 -0.26188,-0.278852 -0.423829,-0.421875 a 4.0003859,4.0003859 0 0 0 -0.0039,-0.002 C 29.959033,10.075739 29.659285,9.8834997 29.421875,9.7480469 V 9.75 c 0.180639,0.1031428 0.04607,-0.00896 -0.417969,-0.2207031 C 28.636387,9.3616514 28.13421,9.1744793 27.488281,9.09375 a 4.0003859,4.0003859 0 0 0 -0.002,0 z m 33.257813,29.509766 h 0.0039 c -0.04889,0.102413 -0.113643,0.17792 -0.162109,0.28125 z m 6.507812,0 h 0.0039 l 0.158203,0.28125 c -0.04847,-0.10333 -0.113216,-0.178837 -0.162109,-0.28125 z"
     id="path839" />
  <path
     style="fill:url(#linearGradient32736);fill-opacity:1;fill-rule:evenodd;stroke:none;stroke-width:4.6329999;stroke-linecap:round;stroke-linejoin:round;stroke-miterlimit:4;stroke-dasharray:none;stroke-opacity:1"
     d="M 26.992188 13.0625 C 26.895788 13.0505 26.797319 13.055149 26.699219 13.068359 C 26.688119 13.068913 26.677116 13.066559 26.666016 13.068359 C 26.650716 13.070889 26.636194 13.079384 26.621094 13.083984 C 26.619094 13.084584 26.617234 13.085517 26.615234 13.085938 C 26.543334 13.101397 26.472244 13.123327 26.402344 13.154297 C 26.383844 13.162497 26.365956 13.172541 26.347656 13.181641 C 26.336756 13.187141 26.325453 13.191166 26.314453 13.197266 C 26.221753 13.248626 26.132128 13.309308 26.048828 13.392578 L 12.246094 34.761719 C 11.982304 35.274458 11.924627 36.363968 12.279297 36.955078 L 25.701172 58.259766 C 26.563302 59.121899 28.015 58.261066 28 57.320312 L 28 44 L 38.792969 44 C 43.150367 43.947401 56.824511 44.737661 56 56.353516 L 56 56.404297 L 56 124 L 56 124.05078 L 56.271484 124.05078 L 64 124.02539 L 71.728516 124.05078 L 72 124.05078 L 72 124 L 72 56.404297 L 72 56.353516 C 71.175493 44.737661 84.849633 43.947401 89.207031 44 L 100 44 L 100 57.320312 C 99.985 58.261066 101.4367 59.121899 102.29883 58.259766 L 115.7207 36.955078 C 116.07537 36.363968 116.0177 35.274458 115.75391 34.761719 L 101.95117 13.392578 C 101.86787 13.309308 101.77825 13.248626 101.68555 13.197266 C 101.67455 13.191166 101.66324 13.187141 101.65234 13.181641 C 101.63404 13.172541 101.61616 13.162497 101.59766 13.154297 C 101.52776 13.123327 101.45667 13.101397 101.38477 13.085938 C 101.38277 13.085517 101.38091 13.084584 101.37891 13.083984 C 101.36381 13.079384 101.34928 13.070889 101.33398 13.068359 C 101.32288 13.066559 101.31188 13.068913 101.30078 13.068359 C 101.20268 13.055149 101.10421 13.0505 101.00781 13.0625 C 100.88492 13.07786 100.76755 13.117201 100.65625 13.167969 C 100.62215 13.183529 100.59295 13.204156 100.56055 13.222656 C 100.48875 13.263616 100.42057 13.309316 100.35938 13.363281 C 100.32558 13.393131 100.29542 13.423671 100.26562 13.457031 C 100.21202 13.516861 100.16743 13.582714 100.12891 13.652344 C 100.05321 13.78923 99.998602 13.937729 100 14.101562 L 100 28 L 89.320312 28 L 81.529297 28 C 71.82982 29.577322 67.835958 32.847218 64.207031 40.583984 C 64.196352 40.599967 64.186096 40.61535 64.175781 40.630859 L 64.148438 40.583984 C 64.097713 40.659904 64.050451 40.730708 64 40.806641 C 63.949553 40.730708 63.902284 40.659904 63.851562 40.583984 L 63.824219 40.630859 C 63.813903 40.61535 63.803649 40.599967 63.792969 40.583984 C 60.164039 32.847218 56.170182 29.577322 46.470703 28 L 38.679688 28 L 28 28 L 28 14.101562 C 28.001398 13.937728 27.946794 13.78923 27.871094 13.652344 C 27.832574 13.582714 27.787975 13.516861 27.734375 13.457031 C 27.704575 13.423671 27.674425 13.393131 27.640625 13.363281 C 27.579425 13.309316 27.511253 13.263616 27.439453 13.222656 C 27.407053 13.204156 27.37785 13.183529 27.34375 13.167969 C 27.23245 13.117201 27.115078 13.07786 26.992188 13.0625 z "
     id="path32691" />
</svg>
