<?xml version="1.0" encoding="UTF-8" standalone="no"?>
<svg
   xmlns:dc="http://purl.org/dc/elements/1.1/"
   xmlns:cc="http://creativecommons.org/ns#"
   xmlns:rdf="http://www.w3.org/1999/02/22-rdf-syntax-ns#"
   xmlns:svg="http://www.w3.org/2000/svg"
   xmlns="http://www.w3.org/2000/svg"
   xmlns:xlink="http://www.w3.org/1999/xlink"
   xmlns:sodipodi="http://sodipodi.sourceforge.net/DTD/sodipodi-0.dtd"
   xmlns:inkscape="http://www.inkscape.org/namespaces/inkscape"
   height="128"
   viewBox="0 0 33.866666 33.866668"
   width="128"
   version="1.1"
   id="svg36"
   sodipodi:docname="assignmacro.svg"
   inkscape:version="0.92.3 (unknown)"
   inkscape:export-filename="/home/rizmut/Dokumen/Rizmut/Github/libreoffice-style-karasa-jaga/build/images_karasa_jaga/cmd/32/assignmacro.png"
   inkscape:export-xdpi="24"
   inkscape:export-ydpi="24">
  <metadata
     id="metadata42">
    <rdf:RDF>
      <cc:Work
         rdf:about="">
        <dc:format>image/svg+xml</dc:format>
        <dc:type
           rdf:resource="http://purl.org/dc/dcmitype/StillImage" />
        <dc:title></dc:title>
      </cc:Work>
    </rdf:RDF>
  </metadata>
  <defs
     id="defs40">
    <linearGradient
       inkscape:collect="always"
       xlink:href="#b"
       id="linearGradient841"
       x1="65"
       y1="33"
       x2="65"
       y2="93"
       gradientUnits="userSpaceOnUse" />
    <filter
       inkscape:collect="always"
       style="color-interpolation-filters:sRGB"
       id="filter870"
       x="-0.0036001072"
       width="1.0072002"
       y="-0.0035998928"
       height="1.0071998">
      <feGaussianBlur
         inkscape:collect="always"
         stdDeviation="0.049226075"
         id="feGaussianBlur872" />
    </filter>
    <filter
       inkscape:collect="always"
       style="color-interpolation-filters:sRGB"
       id="filter880"
       x="-0.024000727"
       width="1.0480015"
       y="-0.023999273"
       height="1.0479985">
      <feGaussianBlur
         inkscape:collect="always"
         stdDeviation="0.32278322"
         id="feGaussianBlur882" />
    </filter>
    <filter
       inkscape:collect="always"
       style="color-interpolation-filters:sRGB"
       id="filter890"
       x="-0.036001091"
       width="1.0720022"
       y="-0.035998909"
       height="1.0719978">
      <feGaussianBlur
         inkscape:collect="always"
         stdDeviation="0.48417483"
         id="feGaussianBlur892" />
    </filter>
    <filter
       inkscape:collect="always"
       style="color-interpolation-filters:sRGB"
       id="filter904"
       x="-0.060001798"
       width="1.1200036"
       y="-0.059998202"
       height="1.1199964">
      <feGaussianBlur
         inkscape:collect="always"
         stdDeviation="0.81496583"
         id="feGaussianBlur906" />
    </filter>
    <filter
       inkscape:collect="always"
       style="color-interpolation-filters:sRGB"
       id="filter921"
       x="-0.0023204624"
       width="1.0046409"
       y="-0.0024851837"
       height="1.0049704">
      <feGaussianBlur
         inkscape:collect="always"
         stdDeviation="0.11795118"
         id="feGaussianBlur923" />
    </filter>
    <filter
       style="color-interpolation-filters:sRGB"
       id="k"
       height="1.12"
       width="1.12"
       x="-0.059999999"
       y="-0.059999999">
      <feGaussianBlur
         stdDeviation="1.9753136"
         id="feGaussianBlur1128" />
    </filter>
    <radialGradient
       id="l"
       cx="-65.04158"
       cy="84.778641"
       gradientUnits="userSpaceOnUse"
       r="36.458652">
      <stop
         offset="0"
         stop-color="#92e128"
         id="stop1131" />
      <stop
         offset="1"
         stop-color="#569d0a"
         stop-opacity=".996078"
         id="stop1133" />
    </radialGradient>
    <filter
       style="color-interpolation-filters:sRGB"
       id="m"
       height="1.048"
       width="1.048"
       x="-0.024"
       y="-0.024">
      <feGaussianBlur
         stdDeviation=".72917305"
         id="feGaussianBlur1136" />
    </filter>
    <filter
       style="color-interpolation-filters:sRGB"
       id="n"
       height="1.096"
       width="1.096"
       x="-0.048"
       y="-0.048">
      <feGaussianBlur
         stdDeviation=".78129363"
         id="feGaussianBlur1139" />
    </filter>
    <linearGradient
       id="o"
       gradientTransform="matrix(1,0,0,0.80878252,0,0.272859)"
       gradientUnits="userSpaceOnUse"
       x1="-67.976425"
       x2="-66.816696"
       y1="24.103317"
       y2="72.311111">
      <stop
         offset="0"
         stop-color="#fff"
         id="stop1142" />
      <stop
         offset="1"
         stop-color="#fff"
         stop-opacity="0"
         id="stop1144" />
    </linearGradient>
  </defs>
  <sodipodi:namedview
     pagecolor="#ffffff"
     bordercolor="#666666"
     borderopacity="1"
     objecttolerance="10"
     gridtolerance="10"
     guidetolerance="10"
     inkscape:pageopacity="0"
     inkscape:pageshadow="2"
     inkscape:window-width="1366"
     inkscape:window-height="706"
     id="namedview38"
     showgrid="true"
     inkscape:zoom="5.2149125"
     inkscape:cx="103.74325"
     inkscape:cy="15.282234"
     inkscape:window-x="0"
     inkscape:window-y="0"
     inkscape:window-maximized="1"
     inkscape:current-layer="g34"
     inkscape:snap-global="false">
    <inkscape:grid
       type="xygrid"
       id="grid873" />
  </sodipodi:namedview>
  <linearGradient
     id="a"
     gradientUnits="userSpaceOnUse"
     x1="138.23625056043"
     x2="162.81162860395"
     y1="71.00747"
     y2="72.42168362658"
     gradientTransform="matrix(1.0491129,0,0,1.048098,-140.43358,205.6517)">
    <stop
       offset="0"
       stop-color="#aeaeae"
       id="stop2" />
    <stop
       offset=".20022914"
       stop-color="#dedede"
       id="stop4" />
    <stop
       offset=".35514116"
       stop-color="#c4c4c4"
       id="stop6" />
    <stop
       offset=".52539963"
       stop-color="#ececec"
       id="stop8" />
    <stop
       offset=".73511833"
       stop-color="#cdcdcd"
       id="stop10" />
    <stop
       offset=".875"
       stop-color="#d8d8d8"
       id="stop12" />
    <stop
       offset="1"
       stop-color="#bebebe"
       id="stop14" />
  </linearGradient>
  <linearGradient
     id="b"
     gradientUnits="userSpaceOnUse"
     x1="77.628502"
     x2="77.628502"
     y1="44.746105"
     y2="104.81113"
     gradientTransform="matrix(0.19124227,0,0,0.19105726,2.0875052,265.97433)">
    <stop
       offset="0"
       stop-color="#c0c0c0"
       id="stop17" />
    <stop
       offset="1"
       stop-color="#fff"
       id="stop19" />
  </linearGradient>
  <g
     transform="translate(0 -263.13332)"
     id="g34">
    <g
       id="g933">
      <path
         sodipodi:type="inkscape:offset"
         inkscape:radius="-0.10971656"
         inkscape:original="M 15.867188 263.6582 L 15.080078 266.11328 L 15.080078 266.31055 L 15.376953 268.43945 L 12.458984 269.22461 L 11.638672 267.25977 L 11.541016 267.06445 L 9.6054688 265.36133 L 7.8027344 266.375 L 8.328125 268.89844 L 8.4589844 269.09375 L 9.7695312 270.76562 L 7.6054688 272.92578 L 5.9335938 271.61719 L 5.7382812 271.48633 L 3.2460938 270.96094 L 2.1972656 272.76367 L 3.9023438 274.69531 L 4.0976562 274.79297 L 6.0644531 275.61133 L 5.2792969 278.52734 L 3.1464844 278.23242 L 2.9511719 278.23242 L 0.52539062 279.01953 L 0.52539062 281.11523 L 2.9511719 281.90039 L 3.1464844 281.90039 L 5.2792969 281.63867 L 6.0644531 284.55469 L 4.0976562 285.37305 L 3.9023438 285.4707 L 2.1972656 287.37109 L 3.2460938 289.17188 L 5.7382812 288.64844 L 5.9335938 288.54883 L 7.6054688 287.24023 L 9.7695312 289.36914 L 8.4589844 291.07227 L 8.328125 291.23633 L 7.8027344 293.75781 L 9.6054688 294.80469 L 11.541016 293.10156 L 11.638672 292.90625 L 12.458984 290.94141 L 15.376953 291.69336 L 15.080078 293.82227 L 15.080078 294.05273 L 15.867188 296.47656 L 17.966797 296.47656 L 18.751953 294.05273 L 18.751953 293.82227 L 18.490234 291.69336 L 21.408203 290.94141 L 22.228516 292.90625 L 22.326172 293.10156 L 24.228516 294.80469 L 26.03125 293.75781 L 25.505859 291.23633 L 25.408203 291.07227 L 24.097656 289.36914 L 26.228516 287.24023 L 27.931641 288.54883 L 28.095703 288.64844 L 30.621094 289.17188 L 31.669922 287.37109 L 29.964844 285.4707 L 29.767578 285.37305 L 27.800781 284.55469 L 28.587891 281.63867 L 30.685547 281.90039 L 30.916016 281.90039 L 33.341797 281.11523 L 33.341797 279.01953 L 30.916016 278.23242 L 30.685547 278.23242 L 28.587891 278.52734 L 27.800781 275.61133 L 29.767578 274.79297 L 29.964844 274.69531 L 31.669922 272.76367 L 30.621094 270.96094 L 28.095703 271.48633 L 27.931641 271.61719 L 26.228516 272.92578 L 24.097656 270.76562 L 25.408203 269.09375 L 25.505859 268.89844 L 26.03125 266.375 L 24.228516 265.36133 L 22.326172 267.06445 L 22.228516 267.25977 L 21.408203 269.22461 L 18.490234 268.43945 L 18.751953 266.31055 L 18.751953 266.11328 L 17.966797 263.6582 L 15.867188 263.6582 z M 16.916016 273.64648 C 20.467137 273.64648 23.375 276.51871 23.375 280.06641 C 23.375 283.6141 20.467148 286.48633 16.916016 286.48633 C 13.364874 286.48633 10.490234 283.6141 10.490234 280.06641 C 10.490234 276.51871 13.364874 273.64648 16.916016 273.64648 z "
         style="opacity:0.18;fill:#323232;fill-opacity:1;stroke:none;stroke-width:0.50000018;filter:url(#filter904)"
         id="path894"
         d="m 15.947266,263.76758 -0.757813,2.36328 v 0.17187 l 0.296875,2.1211 a 0.10972754,0.10972754 0 0 1 -0.08008,0.12109 l -2.917969,0.78516 a 0.10972754,0.10972754 0 0 1 -0.130859,-0.0625 l -0.81836,-1.96289 -0.08594,-0.17188 -1.8613281,-1.63867 -1.6660157,0.9375 0.5058594,2.42383 0.1171875,0.17383 1.3066407,1.66797 a 0.10972754,0.10972754 0 0 1 -0.00781,0.14648 l -2.1640624,2.16016 a 0.10972754,0.10972754 0 0 1 -0.1464844,0.008 l -1.6679688,-1.30469 -0.1738281,-0.11719 -2.3945313,-0.50586 -0.96875,1.66602 1.6386719,1.85742 0.171875,0.0859 1.9648438,0.81641 a 0.10972754,0.10972754 0 0 1 0.0625,0.13085 l -0.7851563,2.91602 a 0.10972754,0.10972754 0 0 1 -0.1210937,0.0801 l -2.125,-0.29492 H 2.96875 l -2.33398438,0.75781 v 1.93555 L 2.96875,281.79102 h 0.171875 l 2.125,-0.26172 a 0.10972754,0.10972754 0 0 1 0.1191406,0.0801 l 0.7851563,2.91601 a 0.10972754,0.10972754 0 0 1 -0.0625,0.13086 l -1.9648438,0.81641 -0.171875,0.0859 -1.6386719,1.82618 0.96875,1.66406 2.4003907,-0.50391 0.1738281,-0.0898 1.6621094,-1.30078 a 0.10972754,0.10972754 0 0 1 0.1445312,0.008 l 2.1640625,2.12891 a 0.10972754,0.10972754 0 0 1 0.011719,0.14453 l -1.3105469,1.70312 a 0.10972754,0.10972754 0 0 1 -0.00195,0.002 l -0.1152344,0.14454 -0.5039063,2.41796 1.6660157,0.9668 1.8613281,-1.63672 0.08594,-0.17187 0.81836,-1.96289 a 0.10972754,0.10972754 0 0 1 0.128906,-0.0625 l 2.917969,0.75195 a 0.10972754,0.10972754 0 0 1 0.08203,0.12109 l -0.296875,2.1211 v 0.20508 l 0.757813,2.33203 h 1.939453 l 0.755859,-2.33203 v -0.20704 l -0.261719,-2.12109 a 0.10972754,0.10972754 0 0 1 0.08203,-0.11914 l 2.917968,-0.75195 a 0.10972754,0.10972754 0 0 1 0.128907,0.0625 l 0.818359,1.96289 0.08594,0.17187 1.828126,1.63672 1.666015,-0.9668 -0.505859,-2.42578 -0.08594,-0.14257 -1.30664,-1.69922 a 0.10972754,0.10972754 0 0 1 0.0098,-0.14453 l 2.13086,-2.12891 a 0.10972754,0.10972754 0 0 1 0.144531,-0.01 l 1.699219,1.30664 0.142578,0.0859 2.429687,0.50391 0.96875,-1.66406 -1.638672,-1.82422 -0.173828,-0.0879 -1.964844,-0.81641 a 0.10972754,0.10972754 0 0 1 -0.0625,-0.13086 l 0.78711,-2.91601 a 0.10972754,0.10972754 0 0 1 0.11914,-0.0801 l 2.089844,0.26172 h 0.207032 l 2.333984,-0.75586 v -1.93555 l -2.333984,-0.75781 h -0.205079 l -2.089843,0.29492 a 0.10972754,0.10972754 0 0 1 -0.121094,-0.0801 l -0.78711,-2.91602 a 0.10972754,0.10972754 0 0 1 0.0625,-0.13085 l 1.964844,-0.81641 0.173828,-0.0859 1.638672,-1.85742 -0.96875,-1.66602 -2.421875,0.50391 L 28,271.70312 a 0.10972754,0.10972754 0 0 1 -0.002,0.002 l -1.703125,1.30859 a 0.10972754,0.10972754 0 0 1 -0.144531,-0.0117 l -2.13086,-2.16015 a 0.10972754,0.10972754 0 0 1 -0.0078,-0.14453 l 1.302734,-1.66211 0.08594,-0.17383 0.507812,-2.42969 -1.664062,-0.93555 -1.830079,1.63672 -0.08594,0.17188 -0.818359,1.96289 a 0.10972754,0.10972754 0 0 1 -0.13086,0.0625 l -2.917968,-0.78516 a 0.10972754,0.10972754 0 0 1 -0.08008,-0.11914 l 0.261719,-2.12109 v -0.17383 l -0.755859,-2.36328 z m 0.96875,9.76953 c 3.610282,0 6.568359,2.92164 6.568359,6.5293 0,3.60764 -2.958067,6.52929 -6.568359,6.52929 -3.610303,0 -6.535157,-2.92234 -6.535157,-6.52929 0,-3.60697 2.924854,-6.5293 6.535157,-6.5293 z" />
      <path
         d="m 16.0625,263.92773 -0.712891,2.22852 v 0.13477 l 0.292969,2.11132 a 0.26901697,0.26901697 0 0 1 -0.195312,0.29688 l -2.917969,0.78516 a 0.26901697,0.26901697 0 0 1 -0.318359,-0.15626 l -0.816407,-1.95703 -0.07031,-0.13867 -1.7539065,-1.54297 -1.4648437,0.82422 0.4746093,2.2793 0.097656,0.14258 1.3027344,1.66406 a 0.26901697,0.26901697 0 0 1 -0.021484,0.35547 l -2.1640625,2.16015 a 0.26901697,0.26901697 0 0 1 -0.3554688,0.0215 l -1.6640625,-1.30078 -0.1445312,-0.0977 -2.25,-0.47461 -0.8535156,1.4668 1.5429687,1.74805 0.1386719,0.0703 1.9589844,0.81445 a 0.26901697,0.26901697 0 0 1 0.15625,0.31836 l -0.7851563,2.91602 a 0.26901697,0.26901697 0 0 1 -0.296875,0.19531 L 3.1289062,278.50195 H 2.9941406 l -2.19921872,0.71289 v 1.70508 l 2.19921872,0.71094 h 0.1367188 l 2.1152344,-0.25977 a 0.26901697,0.26901697 0 0 1 0.2929687,0.19727 l 0.7851563,2.91602 a 0.26901697,0.26901697 0 0 1 -0.15625,0.31835 l -1.9589844,0.81446 -0.140625,0.0703 -1.5410156,1.7168 0.8535156,1.46484 2.2675781,-0.47656 0.140625,-0.0723 1.6503906,-1.29101 a 0.26901697,0.26901697 0 0 1 0.3554688,0.0195 l 2.1640625,2.1289 a 0.26901697,0.26901697 0 0 1 0.023437,0.35547 l -1.3105469,1.70313 a 0.26901697,0.26901697 0 0 1 -0.00195,0.004 l -0.091797,0.11329 -0.4726562,2.26953 1.4667968,0.85156 1.7519534,-1.54102 0.07031,-0.13867 0.816407,-1.95703 a 0.26901697,0.26901697 0 0 1 0.314453,-0.15625 l 2.917968,0.75195 a 0.26901697,0.26901697 0 0 1 0.199219,0.29688 l -0.292969,2.11133 v 0.16797 l 0.712891,2.19726 h 1.708984 l 0.710938,-2.19726 v -0.17188 l -0.259766,-2.11133 a 0.26901697,0.26901697 0 0 1 0.201172,-0.29297 l 2.917969,-0.75195 a 0.26901697,0.26901697 0 0 1 0.314453,0.15625 l 0.816406,1.95703 0.07031,0.14063 1.71875,1.53906 1.466797,-0.85156 -0.476563,-2.28711 -0.06641,-0.11328 -1.300781,-1.68946 a 0.26901697,0.26901697 0 0 1 0.02344,-0.35351 l 2.130859,-2.12891 a 0.26901697,0.26901697 0 0 1 0.353516,-0.0234 l 1.691406,1.29883 0.111328,0.0684 2.291016,0.47461 0.853516,-1.46484 -1.541016,-1.71485 -0.142578,-0.0723 -1.958984,-0.81446 a 0.26901697,0.26901697 0 0 1 -0.15625,-0.31835 l 0.787109,-2.91602 a 0.26901697,0.26901697 0 0 1 0.292969,-0.19727 l 2.082031,0.25977 h 0.169922 l 2.199219,-0.71094 v -1.70508 l -2.199219,-0.71289 H 30.705078 L 28.625,278.79297 a 0.26901697,0.26901697 0 0 1 -0.296875,-0.19531 l -0.787109,-2.91602 a 0.26901697,0.26901697 0 0 1 0.15625,-0.31836 l 1.958984,-0.81445 0.142578,-0.0703 1.541016,-1.74805 -0.853516,-1.4668 -2.273437,0.47266 -0.113282,0.0918 a 0.26901697,0.26901697 0 0 1 -0.0039,0.002 l -1.703125,1.30859 a 0.26901697,0.26901697 0 0 1 -0.355469,-0.0234 l -2.130859,-2.16015 a 0.26901697,0.26901697 0 0 1 -0.01953,-0.35547 l 1.292969,-1.65039 0.07031,-0.14063 0.478516,-2.29492 -1.464844,-0.82422 -1.720703,1.54102 -0.07031,0.14062 -0.816406,1.95703 a 0.26901697,0.26901697 0 0 1 -0.318359,0.15626 l -2.917969,-0.78516 a 0.26901697,0.26901697 0 0 1 -0.197266,-0.29297 l 0.259766,-2.11133 v -0.14062 l -0.712891,-2.22657 z m 0.853516,9.44922 c 3.696164,0 6.728515,2.99477 6.728515,6.68946 0,3.69467 -3.03234,6.68945 -6.728515,6.68945 -3.696185,0 -6.695313,-2.99646 -6.695313,-6.68945 0,-3.69301 2.999128,-6.68946 6.695313,-6.68946 z"
         id="path884"
         style="fill:#323232;stroke:none;stroke-width:0.50000018;fill-opacity:1;opacity:0.47999999;filter:url(#filter890)"
         inkscape:original="M 15.867188 263.6582 L 15.080078 266.11328 L 15.080078 266.31055 L 15.376953 268.43945 L 12.458984 269.22461 L 11.638672 267.25977 L 11.541016 267.06445 L 9.6054688 265.36133 L 7.8027344 266.375 L 8.328125 268.89844 L 8.4589844 269.09375 L 9.7695312 270.76562 L 7.6054688 272.92578 L 5.9335938 271.61719 L 5.7382812 271.48633 L 3.2460938 270.96094 L 2.1972656 272.76367 L 3.9023438 274.69531 L 4.0976562 274.79297 L 6.0644531 275.61133 L 5.2792969 278.52734 L 3.1464844 278.23242 L 2.9511719 278.23242 L 0.52539062 279.01953 L 0.52539062 281.11523 L 2.9511719 281.90039 L 3.1464844 281.90039 L 5.2792969 281.63867 L 6.0644531 284.55469 L 4.0976562 285.37305 L 3.9023438 285.4707 L 2.1972656 287.37109 L 3.2460938 289.17188 L 5.7382812 288.64844 L 5.9335938 288.54883 L 7.6054688 287.24023 L 9.7695312 289.36914 L 8.4589844 291.07227 L 8.328125 291.23633 L 7.8027344 293.75781 L 9.6054688 294.80469 L 11.541016 293.10156 L 11.638672 292.90625 L 12.458984 290.94141 L 15.376953 291.69336 L 15.080078 293.82227 L 15.080078 294.05273 L 15.867188 296.47656 L 17.966797 296.47656 L 18.751953 294.05273 L 18.751953 293.82227 L 18.490234 291.69336 L 21.408203 290.94141 L 22.228516 292.90625 L 22.326172 293.10156 L 24.228516 294.80469 L 26.03125 293.75781 L 25.505859 291.23633 L 25.408203 291.07227 L 24.097656 289.36914 L 26.228516 287.24023 L 27.931641 288.54883 L 28.095703 288.64844 L 30.621094 289.17188 L 31.669922 287.37109 L 29.964844 285.4707 L 29.767578 285.37305 L 27.800781 284.55469 L 28.587891 281.63867 L 30.685547 281.90039 L 30.916016 281.90039 L 33.341797 281.11523 L 33.341797 279.01953 L 30.916016 278.23242 L 30.685547 278.23242 L 28.587891 278.52734 L 27.800781 275.61133 L 29.767578 274.79297 L 29.964844 274.69531 L 31.669922 272.76367 L 30.621094 270.96094 L 28.095703 271.48633 L 27.931641 271.61719 L 26.228516 272.92578 L 24.097656 270.76562 L 25.408203 269.09375 L 25.505859 268.89844 L 26.03125 266.375 L 24.228516 265.36133 L 22.326172 267.06445 L 22.228516 267.25977 L 21.408203 269.22461 L 18.490234 268.43945 L 18.751953 266.31055 L 18.751953 266.11328 L 17.966797 263.6582 L 15.867188 263.6582 z M 16.916016 273.64648 C 20.467137 273.64648 23.375 276.51871 23.375 280.06641 C 23.375 283.6141 20.467148 286.48633 16.916016 286.48633 C 13.364874 286.48633 10.490234 283.6141 10.490234 280.06641 C 10.490234 276.51871 13.364874 273.64648 16.916016 273.64648 z "
         inkscape:radius="-0.26899007"
         sodipodi:type="inkscape:offset" />
      <path
         sodipodi:type="inkscape:offset"
         inkscape:radius="-0.26899007"
         inkscape:original="M 15.867188 263.6582 L 15.080078 266.11328 L 15.080078 266.31055 L 15.376953 268.43945 L 12.458984 269.22461 L 11.638672 267.25977 L 11.541016 267.06445 L 9.6054688 265.36133 L 7.8027344 266.375 L 8.328125 268.89844 L 8.4589844 269.09375 L 9.7695312 270.76562 L 7.6054688 272.92578 L 5.9335938 271.61719 L 5.7382812 271.48633 L 3.2460938 270.96094 L 2.1972656 272.76367 L 3.9023438 274.69531 L 4.0976562 274.79297 L 6.0644531 275.61133 L 5.2792969 278.52734 L 3.1464844 278.23242 L 2.9511719 278.23242 L 0.52539062 279.01953 L 0.52539062 281.11523 L 2.9511719 281.90039 L 3.1464844 281.90039 L 5.2792969 281.63867 L 6.0644531 284.55469 L 4.0976562 285.37305 L 3.9023438 285.4707 L 2.1972656 287.37109 L 3.2460938 289.17188 L 5.7382812 288.64844 L 5.9335938 288.54883 L 7.6054688 287.24023 L 9.7695312 289.36914 L 8.4589844 291.07227 L 8.328125 291.23633 L 7.8027344 293.75781 L 9.6054688 294.80469 L 11.541016 293.10156 L 11.638672 292.90625 L 12.458984 290.94141 L 15.376953 291.69336 L 15.080078 293.82227 L 15.080078 294.05273 L 15.867188 296.47656 L 17.966797 296.47656 L 18.751953 294.05273 L 18.751953 293.82227 L 18.490234 291.69336 L 21.408203 290.94141 L 22.228516 292.90625 L 22.326172 293.10156 L 24.228516 294.80469 L 26.03125 293.75781 L 25.505859 291.23633 L 25.408203 291.07227 L 24.097656 289.36914 L 26.228516 287.24023 L 27.931641 288.54883 L 28.095703 288.64844 L 30.621094 289.17188 L 31.669922 287.37109 L 29.964844 285.4707 L 29.767578 285.37305 L 27.800781 284.55469 L 28.587891 281.63867 L 30.685547 281.90039 L 30.916016 281.90039 L 33.341797 281.11523 L 33.341797 279.01953 L 30.916016 278.23242 L 30.685547 278.23242 L 28.587891 278.52734 L 27.800781 275.61133 L 29.767578 274.79297 L 29.964844 274.69531 L 31.669922 272.76367 L 30.621094 270.96094 L 28.095703 271.48633 L 27.931641 271.61719 L 26.228516 272.92578 L 24.097656 270.76562 L 25.408203 269.09375 L 25.505859 268.89844 L 26.03125 266.375 L 24.228516 265.36133 L 22.326172 267.06445 L 22.228516 267.25977 L 21.408203 269.22461 L 18.490234 268.43945 L 18.751953 266.31055 L 18.751953 266.11328 L 17.966797 263.6582 L 15.867188 263.6582 z M 16.916016 273.64648 C 20.467137 273.64648 23.375 276.51871 23.375 280.06641 C 23.375 283.6141 20.467148 286.48633 16.916016 286.48633 C 13.364874 286.48633 10.490234 283.6141 10.490234 280.06641 C 10.490234 276.51871 13.364874 273.64648 16.916016 273.64648 z "
         style="fill:#323232;stroke:none;stroke-width:0.50000018;fill-opacity:1;filter:url(#filter880);opacity:0.74999999"
         id="path874"
         d="m 16.0625,263.92773 -0.712891,2.22852 v 0.13477 l 0.292969,2.11132 a 0.26901697,0.26901697 0 0 1 -0.195312,0.29688 l -2.917969,0.78516 a 0.26901697,0.26901697 0 0 1 -0.318359,-0.15626 l -0.816407,-1.95703 -0.07031,-0.13867 -1.7539065,-1.54297 -1.4648437,0.82422 0.4746093,2.2793 0.097656,0.14258 1.3027344,1.66406 a 0.26901697,0.26901697 0 0 1 -0.021484,0.35547 l -2.1640625,2.16015 a 0.26901697,0.26901697 0 0 1 -0.3554688,0.0215 l -1.6640625,-1.30078 -0.1445312,-0.0977 -2.25,-0.47461 -0.8535156,1.4668 1.5429687,1.74805 0.1386719,0.0703 1.9589844,0.81445 a 0.26901697,0.26901697 0 0 1 0.15625,0.31836 l -0.7851563,2.91602 a 0.26901697,0.26901697 0 0 1 -0.296875,0.19531 L 3.1289062,278.50195 H 2.9941406 l -2.19921872,0.71289 v 1.70508 l 2.19921872,0.71094 h 0.1367188 l 2.1152344,-0.25977 a 0.26901697,0.26901697 0 0 1 0.2929687,0.19727 l 0.7851563,2.91602 a 0.26901697,0.26901697 0 0 1 -0.15625,0.31835 l -1.9589844,0.81446 -0.140625,0.0703 -1.5410156,1.7168 0.8535156,1.46484 2.2675781,-0.47656 0.140625,-0.0723 1.6503906,-1.29101 a 0.26901697,0.26901697 0 0 1 0.3554688,0.0195 l 2.1640625,2.1289 a 0.26901697,0.26901697 0 0 1 0.023437,0.35547 l -1.3105469,1.70313 a 0.26901697,0.26901697 0 0 1 -0.00195,0.004 l -0.091797,0.11329 -0.4726562,2.26953 1.4667968,0.85156 1.7519534,-1.54102 0.07031,-0.13867 0.816407,-1.95703 a 0.26901697,0.26901697 0 0 1 0.314453,-0.15625 l 2.917968,0.75195 a 0.26901697,0.26901697 0 0 1 0.199219,0.29688 l -0.292969,2.11133 v 0.16797 l 0.712891,2.19726 h 1.708984 l 0.710938,-2.19726 v -0.17188 l -0.259766,-2.11133 a 0.26901697,0.26901697 0 0 1 0.201172,-0.29297 l 2.917969,-0.75195 a 0.26901697,0.26901697 0 0 1 0.314453,0.15625 l 0.816406,1.95703 0.07031,0.14063 1.71875,1.53906 1.466797,-0.85156 -0.476563,-2.28711 -0.06641,-0.11328 -1.300781,-1.68946 a 0.26901697,0.26901697 0 0 1 0.02344,-0.35351 l 2.130859,-2.12891 a 0.26901697,0.26901697 0 0 1 0.353516,-0.0234 l 1.691406,1.29883 0.111328,0.0684 2.291016,0.47461 0.853516,-1.46484 -1.541016,-1.71485 -0.142578,-0.0723 -1.958984,-0.81446 a 0.26901697,0.26901697 0 0 1 -0.15625,-0.31835 l 0.787109,-2.91602 a 0.26901697,0.26901697 0 0 1 0.292969,-0.19727 l 2.082031,0.25977 h 0.169922 l 2.199219,-0.71094 v -1.70508 l -2.199219,-0.71289 H 30.705078 L 28.625,278.79297 a 0.26901697,0.26901697 0 0 1 -0.296875,-0.19531 l -0.787109,-2.91602 a 0.26901697,0.26901697 0 0 1 0.15625,-0.31836 l 1.958984,-0.81445 0.142578,-0.0703 1.541016,-1.74805 -0.853516,-1.4668 -2.273437,0.47266 -0.113282,0.0918 a 0.26901697,0.26901697 0 0 1 -0.0039,0.002 l -1.703125,1.30859 a 0.26901697,0.26901697 0 0 1 -0.355469,-0.0234 l -2.130859,-2.16015 a 0.26901697,0.26901697 0 0 1 -0.01953,-0.35547 l 1.292969,-1.65039 0.07031,-0.14063 0.478516,-2.29492 -1.464844,-0.82422 -1.720703,1.54102 -0.07031,0.14062 -0.816406,1.95703 a 0.26901697,0.26901697 0 0 1 -0.318359,0.15626 l -2.917969,-0.78516 a 0.26901697,0.26901697 0 0 1 -0.197266,-0.29297 l 0.259766,-2.11133 v -0.14062 l -0.712891,-2.22657 z m 0.853516,9.44922 c 3.696164,0 6.728515,2.99477 6.728515,6.68946 0,3.69467 -3.03234,6.68945 -6.728515,6.68945 -3.696185,0 -6.695313,-2.99646 -6.695313,-6.68945 0,-3.69301 2.999128,-6.68946 6.695313,-6.68946 z" />
      <path
         sodipodi:type="inkscape:offset"
         inkscape:radius="0.0044295406"
         inkscape:original="M 15.867188 263.6582 L 15.080078 266.11328 L 15.080078 266.31055 L 15.376953 268.43945 L 12.458984 269.22461 L 11.638672 267.25977 L 11.541016 267.06445 L 9.6054688 265.36133 L 7.8027344 266.375 L 8.328125 268.89844 L 8.4589844 269.09375 L 9.7695312 270.76562 L 7.6054688 272.92578 L 5.9335938 271.61719 L 5.7382812 271.48633 L 3.2460938 270.96094 L 2.1972656 272.76367 L 3.9023438 274.69531 L 4.0976562 274.79297 L 6.0644531 275.61133 L 5.2792969 278.52734 L 3.1464844 278.23242 L 2.9511719 278.23242 L 0.52539062 279.01953 L 0.52539062 281.11523 L 2.9511719 281.90039 L 3.1464844 281.90039 L 5.2792969 281.63867 L 6.0644531 284.55469 L 4.0976562 285.37305 L 3.9023438 285.4707 L 2.1972656 287.37109 L 3.2460938 289.17188 L 5.7382812 288.64844 L 5.9335938 288.54883 L 7.6054688 287.24023 L 9.7695312 289.36914 L 8.4589844 291.07227 L 8.328125 291.23633 L 7.8027344 293.75781 L 9.6054688 294.80469 L 11.541016 293.10156 L 11.638672 292.90625 L 12.458984 290.94141 L 15.376953 291.69336 L 15.080078 293.82227 L 15.080078 294.05273 L 15.867188 296.47656 L 17.966797 296.47656 L 18.751953 294.05273 L 18.751953 293.82227 L 18.490234 291.69336 L 21.408203 290.94141 L 22.228516 292.90625 L 22.326172 293.10156 L 24.228516 294.80469 L 26.03125 293.75781 L 25.505859 291.23633 L 25.408203 291.07227 L 24.097656 289.36914 L 26.228516 287.24023 L 27.931641 288.54883 L 28.095703 288.64844 L 30.621094 289.17188 L 31.669922 287.37109 L 29.964844 285.4707 L 29.767578 285.37305 L 27.800781 284.55469 L 28.587891 281.63867 L 30.685547 281.90039 L 30.916016 281.90039 L 33.341797 281.11523 L 33.341797 279.01953 L 30.916016 278.23242 L 30.685547 278.23242 L 28.587891 278.52734 L 27.800781 275.61133 L 29.767578 274.79297 L 29.964844 274.69531 L 31.669922 272.76367 L 30.621094 270.96094 L 28.095703 271.48633 L 27.931641 271.61719 L 26.228516 272.92578 L 24.097656 270.76562 L 25.408203 269.09375 L 25.505859 268.89844 L 26.03125 266.375 L 24.228516 265.36133 L 22.326172 267.06445 L 22.228516 267.25977 L 21.408203 269.22461 L 18.490234 268.43945 L 18.751953 266.31055 L 18.751953 266.11328 L 17.966797 263.6582 L 15.867188 263.6582 z M 16.916016 273.64648 C 20.467137 273.64648 23.375 276.51871 23.375 280.06641 C 23.375 283.6141 20.467148 286.48633 16.916016 286.48633 C 13.364874 286.48633 10.490234 283.6141 10.490234 280.06641 C 10.490234 276.51871 13.364874 273.64648 16.916016 273.64648 z "
         style="fill:#838383;fill-opacity:1;stroke:none;stroke-width:0.50000018;filter:url(#filter870)"
         id="path864"
         d="m 15.867188,263.6582 -0.78711,2.45508 v 0.19727 l 0.296875,2.1289 -2.917969,0.78516 -0.820312,-1.96484 -0.09766,-0.19532 -1.9355472,-1.70312 -1.8027344,1.01367 0.5253906,2.52344 0.1308594,0.19531 1.3105468,1.67187 -2.1640624,2.16016 -1.671875,-1.30859 -0.1953126,-0.13086 -2.4921874,-0.52539 -1.0488282,1.80273 1.7050782,1.93164 0.1953124,0.0977 1.9667969,0.81836 -0.7851562,2.91601 -2.1328125,-0.29492 H 2.9511719 l -2.42578128,0.78711 v 2.0957 l 2.42578128,0.78516 h 0.1953125 l 2.1328125,-0.26172 0.7851562,2.91602 -1.9667969,0.81836 -0.1953124,0.0977 -1.7050782,1.90039 1.0488282,1.80079 2.4921874,-0.52344 0.1953126,-0.0996 1.671875,-1.3086 2.1640624,2.12891 -1.3105468,1.70313 -0.1308594,0.16406 -0.5253906,2.52148 1.8027344,1.04688 1.9355472,-1.70313 0.09766,-0.19531 0.820312,-1.96484 2.917969,0.75195 -0.296875,2.12891 v 0.23046 l 0.78711,2.42383 h 2.099609 l 0.785156,-2.42383 v -0.23046 l -0.261719,-2.12891 2.917969,-0.75195 0.820313,1.96484 0.09766,0.19531 1.902344,1.70313 1.802734,-1.04688 -0.525391,-2.52148 -0.09766,-0.16406 -1.310547,-1.70313 2.13086,-2.12891 1.703125,1.3086 0.164062,0.0996 2.525391,0.52344 1.048828,-1.80079 -1.705078,-1.90039 -0.197266,-0.0977 -1.966797,-0.81836 0.78711,-2.91602 2.097656,0.26172 h 0.230469 l 2.425781,-0.78516 v -2.0957 l -2.425781,-0.78711 h -0.230469 l -2.097656,0.29492 -0.78711,-2.91601 1.966797,-0.81836 0.197266,-0.0977 1.705078,-1.93164 -1.048828,-1.80273 -2.525391,0.52539 -0.164062,0.13086 -1.703125,1.30859 -2.13086,-2.16016 1.310547,-1.67187 0.09766,-0.19531 0.525391,-2.52344 -1.802734,-1.01367 -1.902344,1.70312 -0.09766,0.19532 -0.820313,1.96484 -2.917969,-0.78516 0.261719,-2.1289 v -0.19727 l -0.785156,-2.45508 z m 1.048828,9.98828 c 3.551121,0 6.458984,2.87223 6.458984,6.41993 0,3.54769 -2.907852,6.41992 -6.458984,6.41992 -3.551142,0 -6.425782,-2.87223 -6.425782,-6.41992 0,-3.5477 2.87464,-6.41993 6.425782,-6.41993 z" />
      <path
         d="m 16.0625,263.92773 -0.712891,2.22852 v 0.13477 l 0.292969,2.11132 a 0.26901697,0.26901697 0 0 1 -0.195312,0.29688 l -2.917969,0.78516 a 0.26901697,0.26901697 0 0 1 -0.318359,-0.15626 l -0.816407,-1.95703 -0.07031,-0.13867 -1.7539065,-1.54297 -1.4648437,0.82422 0.4746093,2.2793 0.097656,0.14258 1.3027344,1.66406 a 0.26901697,0.26901697 0 0 1 -0.021484,0.35547 l -2.1640625,2.16015 a 0.26901697,0.26901697 0 0 1 -0.3554688,0.0215 l -1.6640625,-1.30078 -0.1445312,-0.0977 -2.25,-0.47461 -0.8535156,1.4668 1.5429687,1.74805 0.1386719,0.0703 1.9589844,0.81445 a 0.26901697,0.26901697 0 0 1 0.15625,0.31836 l -0.7851563,2.91602 a 0.26901697,0.26901697 0 0 1 -0.296875,0.19531 L 3.1289062,278.50195 H 2.9941406 l -2.19921872,0.71289 v 1.70508 l 2.19921872,0.71094 h 0.1367188 l 2.1152344,-0.25977 a 0.26901697,0.26901697 0 0 1 0.2929687,0.19727 l 0.7851563,2.91602 a 0.26901697,0.26901697 0 0 1 -0.15625,0.31835 l -1.9589844,0.81446 -0.140625,0.0703 -1.5410156,1.7168 0.8535156,1.46484 2.2675781,-0.47656 0.140625,-0.0723 1.6503906,-1.29101 a 0.26901697,0.26901697 0 0 1 0.3554688,0.0195 l 2.1640625,2.1289 a 0.26901697,0.26901697 0 0 1 0.023437,0.35547 l -1.3105469,1.70313 a 0.26901697,0.26901697 0 0 1 -0.00195,0.004 l -0.091797,0.11329 -0.4726562,2.26953 1.4667968,0.85156 1.7519534,-1.54102 0.07031,-0.13867 0.816407,-1.95703 a 0.26901697,0.26901697 0 0 1 0.314453,-0.15625 l 2.917968,0.75195 a 0.26901697,0.26901697 0 0 1 0.199219,0.29688 l -0.292969,2.11133 v 0.16797 l 0.712891,2.19726 h 1.708984 l 0.710938,-2.19726 v -0.17188 l -0.259766,-2.11133 a 0.26901697,0.26901697 0 0 1 0.201172,-0.29297 l 2.917969,-0.75195 a 0.26901697,0.26901697 0 0 1 0.314453,0.15625 l 0.816406,1.95703 0.07031,0.14063 1.71875,1.53906 1.466797,-0.85156 -0.476563,-2.28711 -0.06641,-0.11328 -1.300781,-1.68946 a 0.26901697,0.26901697 0 0 1 0.02344,-0.35351 l 2.130859,-2.12891 a 0.26901697,0.26901697 0 0 1 0.353516,-0.0234 l 1.691406,1.29883 0.111328,0.0684 2.291016,0.47461 0.853516,-1.46484 -1.541016,-1.71485 -0.142578,-0.0723 -1.958984,-0.81446 a 0.26901697,0.26901697 0 0 1 -0.15625,-0.31835 l 0.787109,-2.91602 a 0.26901697,0.26901697 0 0 1 0.292969,-0.19727 l 2.082031,0.25977 h 0.169922 l 2.199219,-0.71094 v -1.70508 l -2.199219,-0.71289 H 30.705078 L 28.625,278.79297 a 0.26901697,0.26901697 0 0 1 -0.296875,-0.19531 l -0.787109,-2.91602 a 0.26901697,0.26901697 0 0 1 0.15625,-0.31836 l 1.958984,-0.81445 0.142578,-0.0703 1.541016,-1.74805 -0.853516,-1.4668 -2.273437,0.47266 -0.113282,0.0918 a 0.26901697,0.26901697 0 0 1 -0.0039,0.002 l -1.703125,1.30859 a 0.26901697,0.26901697 0 0 1 -0.355469,-0.0234 l -2.130859,-2.16015 a 0.26901697,0.26901697 0 0 1 -0.01953,-0.35547 l 1.292969,-1.65039 0.07031,-0.14063 0.478516,-2.29492 -1.464844,-0.82422 -1.720703,1.54102 -0.07031,0.14062 -0.816406,1.95703 a 0.26901697,0.26901697 0 0 1 -0.318359,0.15626 l -2.917969,-0.78516 a 0.26901697,0.26901697 0 0 1 -0.197266,-0.29297 l 0.259766,-2.11133 v -0.14062 l -0.712891,-2.22657 z m 0.853516,9.44922 c 3.696164,0 6.728515,2.99477 6.728515,6.68946 0,3.69467 -3.03234,6.68945 -6.728515,6.68945 -3.696185,0 -6.695313,-2.99646 -6.695313,-6.68945 0,-3.69301 2.999128,-6.68946 6.695313,-6.68946 z"
         id="path22"
         style="fill:url(#a);stroke:none;stroke-width:0.50000018"
         inkscape:original="M 15.867188 263.6582 L 15.080078 266.11328 L 15.080078 266.31055 L 15.376953 268.43945 L 12.458984 269.22461 L 11.638672 267.25977 L 11.541016 267.06445 L 9.6054688 265.36133 L 7.8027344 266.375 L 8.328125 268.89844 L 8.4589844 269.09375 L 9.7695312 270.76562 L 7.6054688 272.92578 L 5.9335938 271.61719 L 5.7382812 271.48633 L 3.2460938 270.96094 L 2.1972656 272.76367 L 3.9023438 274.69531 L 4.0976562 274.79297 L 6.0644531 275.61133 L 5.2792969 278.52734 L 3.1464844 278.23242 L 2.9511719 278.23242 L 0.52539062 279.01953 L 0.52539062 281.11523 L 2.9511719 281.90039 L 3.1464844 281.90039 L 5.2792969 281.63867 L 6.0644531 284.55469 L 4.0976562 285.37305 L 3.9023438 285.4707 L 2.1972656 287.37109 L 3.2460938 289.17188 L 5.7382812 288.64844 L 5.9335938 288.54883 L 7.6054688 287.24023 L 9.7695312 289.36914 L 8.4589844 291.07227 L 8.328125 291.23633 L 7.8027344 293.75781 L 9.6054688 294.80469 L 11.541016 293.10156 L 11.638672 292.90625 L 12.458984 290.94141 L 15.376953 291.69336 L 15.080078 293.82227 L 15.080078 294.05273 L 15.867188 296.47656 L 17.966797 296.47656 L 18.751953 294.05273 L 18.751953 293.82227 L 18.490234 291.69336 L 21.408203 290.94141 L 22.228516 292.90625 L 22.326172 293.10156 L 24.228516 294.80469 L 26.03125 293.75781 L 25.505859 291.23633 L 25.408203 291.07227 L 24.097656 289.36914 L 26.228516 287.24023 L 27.931641 288.54883 L 28.095703 288.64844 L 30.621094 289.17188 L 31.669922 287.37109 L 29.964844 285.4707 L 29.767578 285.37305 L 27.800781 284.55469 L 28.587891 281.63867 L 30.685547 281.90039 L 30.916016 281.90039 L 33.341797 281.11523 L 33.341797 279.01953 L 30.916016 278.23242 L 30.685547 278.23242 L 28.587891 278.52734 L 27.800781 275.61133 L 29.767578 274.79297 L 29.964844 274.69531 L 31.669922 272.76367 L 30.621094 270.96094 L 28.095703 271.48633 L 27.931641 271.61719 L 26.228516 272.92578 L 24.097656 270.76562 L 25.408203 269.09375 L 25.505859 268.89844 L 26.03125 266.375 L 24.228516 265.36133 L 22.326172 267.06445 L 22.228516 267.25977 L 21.408203 269.22461 L 18.490234 268.43945 L 18.751953 266.31055 L 18.751953 266.11328 L 17.966797 263.6582 L 15.867188 263.6582 z M 16.916016 273.64648 C 20.467137 273.64648 23.375 276.51871 23.375 280.06641 C 23.375 283.6141 20.467148 286.48633 16.916016 286.48633 C 13.364874 286.48633 10.490234 283.6141 10.490234 280.06641 C 10.490234 276.51871 13.364874 273.64648 16.916016 273.64648 z "
         inkscape:radius="-0.26899007"
         sodipodi:type="inkscape:offset" />
      <path
         id="circle829"
         transform="matrix(0.26458334,0,0,0.26458334,0,263.13332)"
         d="M 64 32.923828 A 31.076271 31.076271 0 0 0 32.923828 64 A 31.076271 31.076271 0 0 0 64 95.076172 A 31.076271 31.076271 0 0 0 95.076172 64 A 31.076271 31.076271 0 0 0 64 32.923828 z M 64 47.703125 A 16.29661 16.29661 0 0 1 80.296875 64 A 16.29661 16.29661 0 0 1 64 80.296875 A 16.29661 16.29661 0 0 1 47.703125 64 A 16.29661 16.29661 0 0 1 64 47.703125 z "
         style="opacity:1;fill:#838383;fill-opacity:1;stroke:none;stroke-width:1.90684021;stroke-linecap:round;stroke-linejoin:round;stroke-miterlimit:4;stroke-dasharray:none;stroke-dashoffset:0;stroke-opacity:1" />
      <path
         id="circle857"
         transform="matrix(0.26458334,0,0,0.26458334,0,263.13332)"
         d="M 64 34.291016 C 47.592277 34.291242 34.291247 47.592277 34.291016 64 C 34.291247 80.407723 47.592277 93.70872 64 93.708984 C 80.407723 93.70872 93.708754 80.407723 93.708984 64 C 93.708754 47.592277 80.407723 34.291242 64 34.291016 z M 64 46 C 73.941061 46.000151 81.99986 54.058936 82 64 C 81.99986 73.941064 73.941061 81.999811 64 82 C 54.058939 81.999811 46.000144 73.941064 46 64 C 46.000144 54.058936 54.058939 46.000151 64 46 z "
         style="opacity:1;fill:url(#linearGradient841);fill-opacity:1;stroke:none;stroke-width:0.96965653;stroke-linecap:round;stroke-linejoin:round;stroke-miterlimit:4;stroke-dasharray:none;stroke-dashoffset:0;stroke-opacity:1" />
      <path
         id="path908"
         transform="matrix(0.26458334,0,0,0.26458334,0,263.13332)"
         d="M 60.708984 3.0019531 L 58.013672 11.425781 L 58.013672 11.935547 L 58.09375 12.515625 L 60.708984 4.3457031 L 67.160156 4.3457031 L 69.783203 12.535156 L 69.855469 11.949219 L 69.855469 11.417969 L 67.160156 3.0019531 L 60.708984 3.0019531 z M 36.171875 9.6601562 L 30.634766 12.775391 L 30.884766 13.978516 L 36.171875 11.003906 L 42.800781 16.835938 L 43.066406 17.359375 L 46.152344 24.755859 A 1.016757 1.016757 0 0 0 47.355469 25.345703 L 58.382812 22.378906 A 1.016757 1.016757 0 0 0 59.121094 21.255859 L 59.019531 20.519531 A 1.016757 1.016757 0 0 1 58.382812 21.037109 L 47.355469 24.003906 A 1.016757 1.016757 0 0 1 46.152344 23.414062 L 43.066406 16.017578 L 42.800781 15.492188 L 36.171875 9.6601562 z M 91.705078 9.6601562 L 85.201172 15.484375 L 84.935547 16.017578 L 81.849609 23.414062 A 1.016757 1.016757 0 0 1 80.646484 24.003906 L 69.619141 21.037109 A 1.016757 1.016757 0 0 1 68.96875 20.498047 L 68.873047 21.271484 A 1.016757 1.016757 0 0 0 69.619141 22.378906 L 80.646484 25.345703 A 1.016757 1.016757 0 0 0 81.849609 24.755859 L 84.935547 17.359375 L 85.201172 16.828125 L 91.705078 11.003906 L 96.992188 13.978516 L 97.242188 12.775391 L 91.705078 9.6601562 z M 37.683594 29.513672 A 1.016757 1.016757 0 0 1 37.640625 29.5625 L 29.460938 37.726562 A 1.016757 1.016757 0 0 1 28.117188 37.808594 L 21.828125 32.892578 L 21.28125 32.523438 L 12.777344 30.728516 L 9.5527344 36.273438 L 10.023438 36.806641 L 12.777344 32.070312 L 21.28125 33.865234 L 21.828125 34.234375 L 28.117188 39.150391 A 1.016757 1.016757 0 0 0 29.460938 39.068359 L 37.640625 30.904297 A 1.016757 1.016757 0 0 0 37.720703 29.560547 L 37.683594 29.513672 z M 90.314453 29.517578 L 90.28125 29.560547 A 1.016757 1.016757 0 0 0 90.353516 30.904297 L 98.408203 39.068359 A 1.016757 1.016757 0 0 0 99.751953 39.158203 L 106.18945 34.212891 A 1.016757 1.016757 0 0 0 106.20312 34.205078 L 106.63086 33.857422 L 115.22461 32.070312 L 117.97852 36.806641 L 118.44922 36.273438 L 115.22461 30.728516 L 106.63086 32.515625 L 106.20312 32.861328 A 1.016757 1.016757 0 0 1 106.18945 32.869141 L 99.751953 37.816406 A 1.016757 1.016757 0 0 1 98.408203 37.726562 L 90.353516 29.5625 A 1.016757 1.016757 0 0 1 90.314453 29.517578 z M 23.763672 47.9375 L 20.935547 58.447266 A 1.016757 1.016757 0 0 1 19.8125 59.185547 L 11.826172 58.085938 L 11.316406 58.085938 L 3.0039062 60.78125 L 3.0039062 62.123047 L 11.316406 59.427734 L 11.826172 59.427734 L 19.8125 60.529297 A 1.016757 1.016757 0 0 0 20.935547 59.791016 L 23.902344 48.769531 A 1.016757 1.016757 0 0 0 23.763672 47.9375 z M 104.23047 47.939453 A 1.016757 1.016757 0 0 0 104.0918 48.769531 L 107.06641 59.791016 A 1.016757 1.016757 0 0 0 108.18945 60.529297 L 116.05078 59.427734 L 116.68555 59.427734 L 124.99805 62.123047 L 124.99805 60.78125 L 116.68555 58.085938 L 116.05078 58.085938 L 108.18945 59.185547 A 1.016757 1.016757 0 0 1 107.06641 58.447266 L 104.23047 47.939453 z M 38.646484 64.669922 C 38.640614 64.893812 38.628906 65.116498 38.628906 65.341797 C 38.628906 79.299554 49.963761 90.625 63.933594 90.625 C 77.903389 90.625 89.365234 79.305904 89.365234 65.341797 C 89.365234 65.11705 89.353556 64.895215 89.347656 64.671875 C 88.985936 78.32434 77.677897 89.28125 63.933594 89.28125 C 50.188936 89.28125 39.00379 78.316978 38.646484 64.669922 z M 23.763672 81.527344 A 1.016757 1.016757 0 0 1 23.3125 81.900391 L 15.908203 84.978516 L 15.376953 85.244141 L 9.5527344 91.732422 L 10.027344 92.546875 L 15.376953 86.585938 L 15.908203 86.320312 L 23.3125 83.242188 A 1.016757 1.016757 0 0 0 23.902344 82.039062 L 23.763672 81.527344 z M 104.23047 81.527344 L 104.0918 82.039062 A 1.016757 1.016757 0 0 0 104.68164 83.242188 L 112.08594 86.320312 L 112.625 86.59375 L 117.97461 92.546875 L 118.44922 91.732422 L 112.625 85.251953 L 112.08594 84.978516 L 104.68164 81.900391 A 1.016757 1.016757 0 0 1 104.23047 81.527344 z M 37.689453 99.830078 L 32.775391 106.2168 A 1.016757 1.016757 0 0 1 32.767578 106.23047 L 32.421875 106.6582 L 30.634766 115.23633 L 30.884766 115.38086 L 32.421875 108.00195 L 32.767578 107.57227 A 1.016757 1.016757 0 0 0 32.775391 107.55859 L 37.728516 101.12109 A 1.016757 1.016757 0 0 0 37.689453 99.830078 z M 90.316406 99.835938 A 1.016757 1.016757 0 0 0 90.273438 101.12109 L 95.189453 107.50586 L 95.441406 107.93555 L 96.992188 115.38086 L 97.242188 115.23633 L 95.441406 106.5918 L 95.189453 106.16406 L 90.316406 99.835938 z M 59.017578 108.82617 L 58.013672 116.06445 L 58.013672 116.69922 L 58.082031 116.91016 L 59.121094 109.42578 A 1.016757 1.016757 0 0 0 59.017578 108.82617 z M 68.96875 108.8457 A 1.016757 1.016757 0 0 0 68.873047 109.41211 L 69.792969 116.89062 L 69.855469 116.69922 L 69.855469 116.04883 L 68.96875 108.8457 z "
         style="fill:#ffffff;stroke:none;stroke-width:1.88976443;fill-opacity:1;filter:url(#filter921)" />
    </g>
    <g
       id="g1217"
       transform="matrix(0.17420794,0,0,0.17420794,36.269776,279.3093)">
      <circle
         style="opacity:0.75899999;fill:#858585;filter:url(#k)"
         id="circle1203"
         r="39.506271"
         cy="63.78297"
         cx="-65.04158" />
      <circle
         style="fill:#588429"
         id="circle1205"
         r="38.398045"
         cy="61.78297"
         cx="-65.04158" />
      <circle
         style="fill:url(#l);filter:url(#m)"
         id="circle1207"
         r="36.458652"
         cy="61.78297"
         cx="-65.04158" />
      <g
         id="g1213"
         transform="translate(-44.687018,0.853764)">
        <path
           style="fill:#4d7424;filter:url(#n)"
           inkscape:connector-curvature="0"
           id="path1209"
           transform="matrix(1.2,0,0,1.2,4.070912,-12.585841)"
           d="m -24.261029,43.91386 v 15.625872 h -15.625873 v 7.812937 h 15.625873 v 15.625872 h 7.812936 V 67.352669 H -0.82221985 V 59.539732 H -16.448093 V 43.91386 Z" />
        <path
           style="fill:#ffffff"
           inkscape:connector-curvature="0"
           id="path1211"
           d="M -25.042322,36.619882 V 55.370928 H -43.79337 v 9.375524 h 18.751048 v 18.751047 h 9.375523 V 64.746452 H 3.0842485 V 55.370928 H -15.666799 V 36.619882 Z" />
      </g>
      <ellipse
         style="fill:url(#o)"
         id="ellipse1215"
         ry="23.437006"
         rx="28.978132"
         cy="50.241848"
         cx="-65.04158" />
    </g>
  </g>
</svg>
