<?xml version="1.0" encoding="UTF-8" standalone="no"?>
<svg
   xmlns:dc="http://purl.org/dc/elements/1.1/"
   xmlns:cc="http://creativecommons.org/ns#"
   xmlns:rdf="http://www.w3.org/1999/02/22-rdf-syntax-ns#"
   xmlns:svg="http://www.w3.org/2000/svg"
   xmlns="http://www.w3.org/2000/svg"
   xmlns:xlink="http://www.w3.org/1999/xlink"
   xmlns:sodipodi="http://sodipodi.sourceforge.net/DTD/sodipodi-0.dtd"
   xmlns:inkscape="http://www.inkscape.org/namespaces/inkscape"
   height="128"
   viewBox="0 0 128 128"
   width="128"
   version="1.1"
   id="svg6"
   sodipodi:docname="basicshapes.block-arc.svg"
   inkscape:version="0.92.3 (unknown)"
   inkscape:export-filename="/home/rizmut/Dokumen/Rizmut/Github/libreoffice-style-karasa-jaga/build/images_karasa_jaga/cmd/32/basicshapes.block-arc.png"
   inkscape:export-xdpi="24"
   inkscape:export-ydpi="24">
  <metadata
     id="metadata12">
    <rdf:RDF>
      <cc:Work
         rdf:about="">
        <dc:format>image/svg+xml</dc:format>
        <dc:type
           rdf:resource="http://purl.org/dc/dcmitype/StillImage" />
        <dc:title></dc:title>
      </cc:Work>
    </rdf:RDF>
  </metadata>
  <defs
     id="defs10">
    <linearGradient
       inkscape:collect="always"
       xlink:href="#linearGradient7422"
       id="linearGradient1503"
       x1="4.0195312"
       y1="80"
       x2="83.980469"
       y2="80"
       gradientUnits="userSpaceOnUse" />
    <linearGradient
       id="linearGradient7422">
      <stop
         style="stop-color:#7c9fcf;stop-opacity:1"
         offset="0"
         id="stop7424" />
      <stop
         id="stop5348"
         offset="0.5"
         style="stop-color:#7c9ece;stop-opacity:1" />
      <stop
         id="stop7426"
         offset="1"
         style="stop-color:#7b9dcf;stop-opacity:1" />
    </linearGradient>
    <linearGradient
       gradientTransform="translate(-80,-240)"
       inkscape:collect="always"
       xlink:href="#linearGradient3369"
       id="linearGradient1483"
       x1="7.9999995"
       y1="80"
       x2="93.788582"
       y2="81.414215"
       gradientUnits="userSpaceOnUse" />
    <linearGradient
       id="linearGradient3369">
      <stop
         id="stop3372"
         offset="0"
         style="stop-color:#ffffff;stop-opacity:1;" />
      <stop
         style="stop-color:#ffffff;stop-opacity:1;"
         offset="0.39715832"
         id="stop3374" />
      <stop
         style="stop-color:#f1f1f1;stop-opacity:1;"
         offset="0.79970485"
         id="stop3376" />
      <stop
         id="stop3378"
         offset="0.90234375"
         style="stop-color:#eaeaea;stop-opacity:1;" />
      <stop
         id="stop3384"
         offset="1"
         style="stop-color:#dfdfdf;stop-opacity:1;" />
    </linearGradient>
    <linearGradient
       inkscape:collect="always"
       xlink:href="#linearGradient3369"
       id="linearGradient1460"
       x1="64"
       y1="88"
       x2="64"
       y2="16"
       gradientUnits="userSpaceOnUse"
       gradientTransform="matrix(1,0,0,0.99268106,-0.004883,-1.5231503)" />
    <linearGradient
       inkscape:collect="always"
       xlink:href="#linearGradient7422"
       id="linearGradient1472"
       x1="6.9235263"
       y1="62.008789"
       x2="121.06671"
       y2="62.008789"
       gradientUnits="userSpaceOnUse" />
  </defs>
  <sodipodi:namedview
     pagecolor="#ffffff"
     bordercolor="#666666"
     borderopacity="1"
     objecttolerance="10"
     gridtolerance="10"
     guidetolerance="10"
     inkscape:pageopacity="0"
     inkscape:pageshadow="2"
     inkscape:window-width="1366"
     inkscape:window-height="706"
     id="namedview8"
     showgrid="true"
     inkscape:snap-global="false"
     inkscape:zoom="3.6875"
     inkscape:cx="65.483856"
     inkscape:cy="51.726612"
     inkscape:window-x="0"
     inkscape:window-y="0"
     inkscape:window-maximized="1"
     inkscape:current-layer="svg6">
    <inkscape:grid
       type="xygrid"
       id="grid822"
       spacingx="4"
       spacingy="4"
       empspacing="2" />
  </sodipodi:namedview>
  <path
     style="fill:url(#linearGradient1472);fill-opacity:1;stroke:none;stroke-width:4.84010792;stroke-linecap:round;stroke-linejoin:bevel;stroke-opacity:0.73039198"
     d="M 63.998047,31.953125 C 49.177252,31.95856 34.444768,37.965499 23.894531,48.314453 13.344295,58.663407 7.1061987,73.232509 6.9238281,87.966797 c -0.027541,2.254528 1.7921793,4.097082 4.0468749,4.097656 H 30.5 35.160156 C 34.645614,91.63825 34.348189,90.983481 34.355469,90.292969 34.45018,82.212631 37.69078,74.22228 43.169922,68.546875 48.649064,62.87147 56.299087,59.577219 63.996094,59.574219 h 0.002 c 7.696096,0.0045 15.346222,3.299347 20.824219,8.974609 5.477996,5.675265 8.71783,13.664764 8.8125,21.744141 0.0068,0.690867 -0.291366,1.345702 -0.806641,1.771484 h 4.681641 19.509764 c 2.2547,-5.71e-4 4.07442,-1.843126 4.04688,-4.097656 -0.18239,-14.732548 -6.41877,-29.29974 -16.9668,-39.648438 C 93.551577,37.969662 78.820996,31.961267 64.001953,31.953125 Z"
     id="path1462"
     inkscape:connector-curvature="0"
     sodipodi:nodetypes="cscccccsccscccccscc" />
  <path
     d="M 64,36 A 53.052898,52.664607 0 0 0 10.970703,88.016874 H 30.5 A 33.533642,33.288211 0 0 1 64,55.376669 33.533642,33.288211 0 0 1 97.509766,88.016874 H 117.01953 A 53.052898,52.664607 0 0 0 64,36 Z"
     style="fill:url(#linearGradient1460);fill-opacity:1;stroke:none;stroke-width:4.84010792;stroke-linecap:round;stroke-linejoin:bevel;stroke-opacity:0.73039198"
     id="path2"
     inkscape:connector-curvature="0" />
  <path
     transform="translate(-80,-240)"
     sodipodi:type="inkscape:offset"
     inkscape:radius="3.980695"
     inkscape:original="M 8 44 L 8 116 L 80 116 L 80 44 L 8 44 z "
     style="opacity:1;fill:url(#linearGradient1503);fill-opacity:1;stroke:none;stroke-width:3.61812878;stroke-linecap:round;stroke-linejoin:bevel;stroke-miterlimit:4;stroke-dasharray:none;stroke-dashoffset:0;stroke-opacity:1"
     id="path1493"
     d="M 8,40.019531 A 3.9810931,3.9810931 0 0 0 4.0195312,44 v 72 A 3.9810931,3.9810931 0 0 0 8,119.98047 H 80 A 3.9810931,3.9810931 0 0 0 83.980469,116 V 44 A 3.9810931,3.9810931 0 0 0 80,40.019531 Z" />
  <path
     inkscape:connector-curvature="0"
     style="opacity:1;fill:url(#linearGradient1483);fill-opacity:1;stroke:none;stroke-width:3.61812878;stroke-linecap:round;stroke-linejoin:bevel;stroke-miterlimit:4;stroke-dasharray:none;stroke-dashoffset:0;stroke-opacity:1"
     d="M -72,-196 H 2.2e-6 v 72 H -72 Z"
     id="rect852"
     sodipodi:nodetypes="ccccc" />
</svg>
