<svg height="128" width="128" xmlns="http://www.w3.org/2000/svg" xmlns:xlink="http://www.w3.org/1999/xlink"><linearGradient id="a"><stop offset="0" stop-color="#fd0000"/><stop offset="1" stop-color="#8f0000"/></linearGradient><linearGradient id="b" gradientUnits="userSpaceOnUse" x1="42" x2="72.138878" y1="118.03125" y2="5.551427"><stop offset="0" stop-color="#084775"/><stop offset="1" stop-color="#084775" stop-opacity="0"/></linearGradient><linearGradient gradientUnits="userSpaceOnUse" x1="52.126926" x2="52.126926" y1="-30.36201" y2="-142.433416"><stop offset="0" stop-color="#403a3a"/><stop offset="1" stop-color="#6a5252"/></linearGradient><filter id="c"><feGaussianBlur stdDeviation="1.2346784"/></filter><clipPath id="d"><path d="m-23.029324-146.61201c-5.531616-.24083-10.64527 3.53552-12 8.96875-.000021.01042-.000021.02083 0 .03125l-2.8125 11.40625h-6.03125c-6.441349 0-11.84375 5.4024-11.84375 11.84375v8c0 5.84595 4.517586 10.626564 10.15625 11.5l-4.125 16.65625h-6.1875c-6.441349 0-11.84375 5.402402-11.84375 11.84375v8c0 5.890458 4.58168 10.71459 10.28125 11.53125l-.84375 3.4375c-1.553679 6.23113 2.382454 12.78725 8.625 14.34375l7.78125 1.9375c6.231123 1.55368 12.818494-2.3825 14.375-8.625.000021-.01042.000021-.02083 0-.03125l2.65625-10.75h14.65625l-.78125 3.125c-1.553681 6.23114 2.382455 12.78725 8.625 14.34375l7.78125 1.9375c6.213771 1.54936 12.804599-2.45209 14.34375-8.625.000021-.01042.000021-.02083 0-.03125l2.65625-10.75h9.6875c6.44135 0 11.84375-5.402396 11.84375-11.84375v-8c0-6.441353-5.4024-11.84375-11.84375-11.84375h-1.875l4.03125-16.3125h9.84375c6.44135 0 11.84375-5.402396 11.84375-11.84375v-8c0-6.44135-5.4024-11.84375-11.84375-11.84375h-2.03125l.9375-3.78125c1.55369-6.23115-2.3825-12.78724-8.625-14.34375l-7.78125-1.9375c-6.231121-1.55367-12.818487 2.38251-14.375 8.625-.000021.01042-.000021.02083 0 .03125l-2.8125 11.40625h-14.625l.9375-3.78125c1.571025-6.30072-2.431097-12.79157-8.65625-14.34375l-7.75-1.9375c-.677154-.16884-1.43324-.30275-2.375-.34375zm10.03125 52.09375h14.625l-4.03125 16.3125h-14.625z"/></clipPath><linearGradient id="e" gradientUnits="userSpaceOnUse" x1="14.21454876022" x2="17.8811901954" xlink:href="#a" y1="13.67840919166" y2="46.67840815291"/><radialGradient id="f" cx="72.631729" cy="22.787588" gradientTransform="matrix(7.0638773 0 0 7.0638919 -501.13873 -120.26981)" gradientUnits="userSpaceOnUse" r="1.265237" xlink:href="#a"/><linearGradient id="g" gradientUnits="userSpaceOnUse" x1="8.65403825092" x2="12.78683765101" y1="25.942007738" y2="41.36582556233"><stop offset="0" stop-color="#fff"/><stop offset="1" stop-color="#fff" stop-opacity="0"/></linearGradient><linearGradient id="h" gradientUnits="userSpaceOnUse" x1="114.33333876022" x2="117.9999801954" xlink:href="#a" y1="-8.00007080834" y2="24.99992815291"/><path d="m39.093624 107.79942-23.856012-88.890558 3.885188-1.022529 23.979722 88.782147z" fill="#4d4d4d"/><path d="m106.01302 38.941428-88.890554-23.856012-1.022529 3.885188 88.782143 23.979722z" fill="#4d4d4d"/><path d="m-378.73128 170.7101v-2.79471z" fill="#fff" fill-opacity=".756881"/><path clip-path="url(#d)" d="m22.5 42.5-2.25 15.5 14-11.75zm21.75.5 12 14.625 11-.125 17.25-12.75zm50 2 9.25 12.375h6l4.5-11.375zm-83.5 46.75-2.25 13.375 14.5-10.875zm91 1.25-18 1 7.75 11.375 7.25-.5zm-31 .5-34.5.25 8.75 12.8125 10.3125-.9375z" fill="url(#b)" fill-rule="evenodd" filter="url(#c)" transform="translate(142.57778 -94.108338)"/><path clip-path="url(#d)" d="m22.5 42.5-8.662305 12.749263 6.412305 2.750737 14-11.75zm71.75 2.5 9.25 12.375 18.02082 1.06066-7.52082-12.43566zm-83.5 46.75-10.20495127 12.66789 22.45495127-10.16789zm91 1.25-18 1 7.75 11.375 17.14949.38388z" fill="url(#b)" fill-rule="evenodd" filter="url(#c)" opacity=".450495" transform="translate(142.57778 -94.108338)"/><g transform="matrix(0 1 1 0 -.04105 -4)"><path d="m24 16.04105v3.95895h80v-3.95895z" fill="#a00"/><path d="m105.54688 7.9999211c-.85697 0-1.54688.689907-1.54688 1.546875v12.9062459c0 .85697.68991 1.54688 1.54688 1.54688h12.90624c.85697 0 1.54688-.68991 1.54688-1.54688v-12.9062459c0-.856968-.68991-1.546875-1.54688-1.546875zm1.375 2.0839839h10.24023c.46419 0 .83789.3737.83789.837891v10.240236c0 .46419-.3737.83789-.83789.83789h-10.24023c-.4642 0-.8379-.3737-.8379-.83789v-10.240236c0-.464191.3737-.837891.8379-.837891z" fill="url(#h)"/></g><path d="m24 16.04105v3.95895h80v-3.95895z" fill="#a00"/><g transform="translate(28.1188 70.321592)"><rect fill="url(#e)" height="16" rx="1.546875" width="16" x="3.8812" y="29.678408"/><rect fill="url(#f)" height="11.916666" rx=".837891" width="11.916671" x="5.964551" y="31.761745"/><path d="m7.1189636 31.761745c-.61893 0-1.11719.498267-1.11719 1.117188v5.632487c.90549.0861 1.83761.13965 2.79297.13965 3.4383604 0 6.6018004-.57984 9.1236904-1.55941v-4.212727c0-.618921-.49826-1.117188-1.11719-1.117188z" fill="url(#g)"/></g><g transform="translate(100.1188 6.321592)"><rect fill="url(#e)" height="16" rx="1.546875" width="16" x="3.8812" y="29.678408"/><rect fill="url(#f)" height="11.916666" rx=".837891" width="11.916671" x="5.964551" y="31.761745"/><path d="m7.1189636 31.761745c-.61893 0-1.11719.498267-1.11719 1.117188v5.632487c.90549.0861 1.83761.13965 2.79297.13965 3.4383604 0 6.6018004-.57984 9.1236904-1.55941v-4.212727c0-.618921-.49826-1.117188-1.11719-1.117188z" fill="url(#g)"/></g><path d="m105.54688 7.9999211c-.85697 0-1.54688.689907-1.54688 1.546875v12.9062459c0 .85697.68991 1.54688 1.54688 1.54688h12.90624c.85697 0 1.54688-.68991 1.54688-1.54688v-12.9062459c0-.856968-.68991-1.546875-1.54688-1.546875zm1.375 2.0839839h10.24023c.46419 0 .83789.3737.83789.837891v10.240236c0 .46419-.3737.83789-.83789.83789h-10.24023c-.4642 0-.8379-.3737-.8379-.83789v-10.240236c0-.464191.3737-.837891.8379-.837891z" fill="url(#h)"/><g transform="translate(8.130495 -17.621651)"><rect fill="url(#e)" height="16" rx="1.546875" width="16" x="3.8812" y="29.678408"/><rect fill="url(#f)" height="11.916666" rx=".837891" width="11.916671" x="5.964551" y="31.761745"/><path d="m7.1189636 31.761745c-.61893 0-1.11719.498267-1.11719 1.117188v5.632487c.90549.0861 1.83761.13965 2.79297.13965 3.4383604 0 6.6018004-.57984 9.1236904-1.55941v-4.212727c0-.618921-.49826-1.117188-1.11719-1.117188z" fill="url(#g)"/></g></svg>