<?xml version="1.0" encoding="UTF-8" standalone="no"?>
<svg
   xmlns:dc="http://purl.org/dc/elements/1.1/"
   xmlns:cc="http://creativecommons.org/ns#"
   xmlns:rdf="http://www.w3.org/1999/02/22-rdf-syntax-ns#"
   xmlns:svg="http://www.w3.org/2000/svg"
   xmlns="http://www.w3.org/2000/svg"
   xmlns:xlink="http://www.w3.org/1999/xlink"
   xmlns:sodipodi="http://sodipodi.sourceforge.net/DTD/sodipodi-0.dtd"
   xmlns:inkscape="http://www.inkscape.org/namespaces/inkscape"
   enable-background="new 0 0 128 128"
   height="128"
   viewBox="0 0 128 128"
   width="128"
   version="1.1"
   id="svg2022"
   sodipodi:docname="closemasterview.svg"
   inkscape:version="0.92.3 (unknown)"
   inkscape:export-filename="/home/rizmut/Dokumen/Rizmut/Github/libreoffice-style-karasa-jaga/build/images_karasa_jaga/cmd/32/closemasterview.png"
   inkscape:export-xdpi="24"
   inkscape:export-ydpi="24">
  <metadata
     id="metadata2028">
    <rdf:RDF>
      <cc:Work
         rdf:about="">
        <dc:format>image/svg+xml</dc:format>
        <dc:type
           rdf:resource="http://purl.org/dc/dcmitype/StillImage" />
        <dc:title></dc:title>
      </cc:Work>
    </rdf:RDF>
  </metadata>
  <defs
     id="defs2026">
    <filter
       inkscape:collect="always"
       style="color-interpolation-filters:sRGB"
       id="filter16674"
       x="-0.059999999"
       width="1.12"
       y="-0.059999999"
       height="1.12">
      <feGaussianBlur
         inkscape:collect="always"
         stdDeviation="1.9753136"
         id="feGaussianBlur16676" />
    </filter>
    <radialGradient
       inkscape:collect="always"
       xlink:href="#linearGradient1598"
       id="radialGradient1600"
       cx="-65.04158"
       cy="84.778641"
       fx="-65.04158"
       fy="84.778641"
       r="36.458652"
       gradientUnits="userSpaceOnUse" />
    <linearGradient
       inkscape:collect="always"
       id="linearGradient1598">
      <stop
         style="stop-color:#e18a28;stop-opacity:1"
         offset="0"
         id="stop1594" />
      <stop
         style="stop-color:#9b0a0a;stop-opacity:0.99607843"
         offset="1"
         id="stop1596" />
    </linearGradient>
    <filter
       inkscape:collect="always"
       style="color-interpolation-filters:sRGB"
       id="filter1639"
       x="-0.024"
       width="1.048"
       y="-0.024"
       height="1.048">
      <feGaussianBlur
         inkscape:collect="always"
         stdDeviation="0.72917305"
         id="feGaussianBlur1641" />
    </filter>
    <filter
       inkscape:collect="always"
       style="color-interpolation-filters:sRGB"
       id="filter1627"
       x="-0.048"
       width="1.096"
       y="-0.048"
       height="1.096">
      <feGaussianBlur
         inkscape:collect="always"
         stdDeviation="0.78129363"
         id="feGaussianBlur1629" />
    </filter>
    <linearGradient
       inkscape:collect="always"
       xlink:href="#linearGradient3494"
       id="linearGradient1606"
       x1="-67.976425"
       y1="24.103317"
       x2="-66.816696"
       y2="72.311111"
       gradientUnits="userSpaceOnUse"
       gradientTransform="matrix(0.65842372,0,0,0.5325216,222.71127,293.93821)" />
    <linearGradient
       id="linearGradient3494">
      <stop
         style="stop-color:#ffffff;stop-opacity:1;"
         offset="0"
         id="stop3496" />
      <stop
         style="stop-color:#ffffff;stop-opacity:0;"
         offset="1"
         id="stop3498" />
    </linearGradient>
  </defs>
  <sodipodi:namedview
     pagecolor="#ffffff"
     bordercolor="#666666"
     borderopacity="1"
     objecttolerance="10"
     gridtolerance="10"
     guidetolerance="10"
     inkscape:pageopacity="0"
     inkscape:pageshadow="2"
     inkscape:window-width="1366"
     inkscape:window-height="706"
     id="namedview2024"
     showgrid="false"
     inkscape:zoom="1.84375"
     inkscape:cx="-5.6949153"
     inkscape:cy="64"
     inkscape:window-x="0"
     inkscape:window-y="0"
     inkscape:window-maximized="1"
     inkscape:current-layer="svg2022" />
  <filter
     id="a">
    <feGaussianBlur
       stdDeviation="1.0394514"
       id="feGaussianBlur1956" />
  </filter>
  <filter
     id="b">
    <feGaussianBlur
       stdDeviation=".50063244"
       id="feGaussianBlur1959" />
  </filter>
  <linearGradient
     id="c"
     gradientUnits="userSpaceOnUse"
     x1="42"
     x2="72.138878"
     y1="118.03125"
     y2="5.551427">
    <stop
       offset="0"
       stop-color="#084775"
       id="stop1962" />
    <stop
       offset="1"
       stop-color="#084775"
       stop-opacity="0"
       id="stop1964" />
  </linearGradient>
  <linearGradient
     gradientUnits="userSpaceOnUse"
     x1="52.126926"
     x2="52.126926"
     y1="-30.36201"
     y2="-142.433416"
     id="linearGradient1971">
    <stop
       offset="0"
       stop-color="#403a3a"
       id="stop1967" />
    <stop
       offset="1"
       stop-color="#6a5252"
       id="stop1969" />
  </linearGradient>
  <filter
     id="d">
    <feGaussianBlur
       stdDeviation="1.2346784"
       id="feGaussianBlur1973" />
  </filter>
  <clipPath
     id="e">
    <path
       d="m-23.029324-146.61201c-5.531616-.24083-10.64527 3.53552-12 8.96875-.000021.01042-.000021.02083 0 .03125l-2.8125 11.40625h-6.03125c-6.441349 0-11.84375 5.4024-11.84375 11.84375v8c0 5.84595 4.517586 10.626564 10.15625 11.5l-4.125 16.65625h-6.1875c-6.441349 0-11.84375 5.402402-11.84375 11.84375v8c0 5.890458 4.58168 10.71459 10.28125 11.53125l-.84375 3.4375c-1.553679 6.23113 2.382454 12.78725 8.625 14.34375l7.78125 1.9375c6.231123 1.55368 12.818494-2.3825 14.375-8.625.000021-.01042.000021-.02083 0-.03125l2.65625-10.75h14.65625l-.78125 3.125c-1.553681 6.23114 2.382455 12.78725 8.625 14.34375l7.78125 1.9375c6.213771 1.54936 12.804599-2.45209 14.34375-8.625.000021-.01042.000021-.02083 0-.03125l2.65625-10.75h9.6875c6.44135 0 11.84375-5.402396 11.84375-11.84375v-8c0-6.441353-5.4024-11.84375-11.84375-11.84375h-1.875l4.03125-16.3125h9.84375c6.44135 0 11.84375-5.402396 11.84375-11.84375v-8c0-6.44135-5.4024-11.84375-11.84375-11.84375h-2.03125l.9375-3.78125c1.55369-6.23115-2.3825-12.78724-8.625-14.34375l-7.78125-1.9375c-6.231121-1.55367-12.818487 2.38251-14.375 8.625-.000021.01042-.000021.02083 0 .03125l-2.8125 11.40625h-14.625l.9375-3.78125c1.571025-6.30072-2.431097-12.79157-8.65625-14.34375l-7.75-1.9375c-.677154-.16884-1.43324-.30275-2.375-.34375zm10.03125 52.09375h14.625l-4.03125 16.3125h-14.625z"
       id="path1976" />
  </clipPath>
  <linearGradient
     id="f"
     gradientTransform="matrix(-3.1980625 0 0 -3.2594209 118.15388 991.37507)"
     gradientUnits="userSpaceOnUse"
     x1="0"
     x2="31.942419"
     y1="294.88333"
     y2="274.79138">
    <stop
       offset="0"
       stop-color="#5499ff"
       id="stop1979" />
    <stop
       offset=".11366145"
       stop-color="#5a9cff"
       id="stop1981" />
    <stop
       offset=".20296694"
       stop-color="#80b3ff"
       id="stop1983" />
    <stop
       offset=".21468808"
       stop-color="#7aafff"
       id="stop1985" />
    <stop
       offset=".2560246"
       stop-color="#80b3ff"
       id="stop1987" />
    <stop
       offset=".5313"
       stop-color="#80b3ff"
       id="stop1989" />
    <stop
       offset=".8449"
       stop-color="#80b3ff"
       id="stop1991" />
    <stop
       offset="1"
       stop-color="#80b3ff"
       id="stop1993" />
  </linearGradient>
  <path
     d="m26.84 12.862069.04082 104.275861 84.02324.0272v-104.303031h-84.064056z"
     filter="url(#a)"
     opacity=".306849"
     transform="matrix(0 .93986309 -1.0357143 0 131.32153 4.969537)"
     id="path1996" />
  <path
     d="m28.759999 14.793205v100.413795h80.224061v-100.413795z"
     filter="url(#b)"
     opacity=".89589"
     transform="matrix(0 .93986309 -1.0357143 0 131.32153 4.969537)"
     id="path1998" />
  <path
     d="m26.84 13.827586.04082 103.310344 84.02324.0272v-103.337514h-84.064056z"
     filter="url(#a)"
     opacity=".698"
     transform="matrix(0 .93986309 -1.0357143 0 131.32153 4.969537)"
     id="path2000" />
  <path
     d="m116 32h-104v75.39963h104z"
     fill="#81b4ff"
     stroke-width=".949878"
     id="path2002" />
  <path
     d="m108.00003 100h-88.00003v-60h88.00003z"
     fill="url(#f)"
     opacity=".99"
     id="path2004" />
  <path
     clip-path="url(#e)"
     d="m22.5 42.5-2.25 15.5 14-11.75zm21.75.5 12 14.625 11-.125 17.25-12.75zm50 2 9.25 12.375h6l4.5-11.375zm-83.5 46.75-2.25 13.375 14.5-10.875zm91 1.25-18 1 7.75 11.375 7.25-.5zm-31 .5-34.5.25 8.75 12.8125 10.3125-.9375z"
     fill="url(#c)"
     fill-rule="evenodd"
     filter="url(#d)"
     transform="matrix(0 .90226854 -1 0 197.85875 310.08844)"
     id="path2006" />
  <path
     clip-path="url(#e)"
     d="m22.5 42.5-8.662305 12.749263 6.412305 2.750737 14-11.75zm71.75 2.5 9.25 12.375 18.02082 1.06066-7.52082-12.43566zm-83.5 46.75-10.20495127 12.66789 22.45495127-10.16789zm91 1.25-18 1 7.75 11.375 17.14949.38388z"
     fill="url(#c)"
     fill-rule="evenodd"
     filter="url(#d)"
     opacity=".450495"
     transform="matrix(0 .90226854 -1 0 197.85875 310.08844)"
     id="path2008" />
  <g
     fill="#eee"
     id="g2016">
    <path
       d="m16 36h96v4h-96z"
       id="path2010" />
    <path
       d="m16 100h96v4h-96z"
       id="path2012" />
    <path
       d="m40-20h60v4h-60z"
       transform="rotate(90)"
       id="path2014" />
  </g>
  <path
     d="m40-112h60v4h-60z"
     fill="#cacaca"
     fill-opacity=".992157"
     transform="rotate(90)"
     id="path2018" />
  <path
     d="m16 56h96v4h-96z"
     fill="#eee"
     id="path2020" />
  <g
     transform="translate(-79.62865,-236.8761)"
     id="g1215">
    <circle
       r="39.506271"
       cy="63.78297"
       cx="-65.04158"
       id="circle1643"
       style="opacity:0.75899999;fill:#858585;fill-opacity:1;stroke:none;stroke-width:5.90149975;stroke-linecap:square;stroke-linejoin:bevel;stroke-miterlimit:4;stroke-dasharray:none;stroke-dashoffset:0;stroke-opacity:0.73039216;filter:url(#filter16674)"
       transform="matrix(0.65842372,0,0,0.65842372,222.71127,293.75855)" />
    <circle
       style="opacity:1;fill:#844329;fill-opacity:1;stroke:none;stroke-width:3.77668643;stroke-linecap:square;stroke-linejoin:bevel;stroke-miterlimit:4;stroke-dasharray:none;stroke-dashoffset:0;stroke-opacity:0.73039216"
       id="path1582"
       cx="179.88635"
       cy="334.43793"
       r="25.282183" />
    <circle
       r="36.458652"
       cy="61.78297"
       cx="-65.04158"
       id="circle1584"
       style="opacity:1;fill:url(#radialGradient1600);fill-opacity:1;stroke:none;stroke-width:5.44624233;stroke-linecap:square;stroke-linejoin:bevel;stroke-miterlimit:4;stroke-dasharray:none;stroke-dashoffset:0;stroke-opacity:0.73039216;filter:url(#filter1639)"
       transform="matrix(0.65842372,0,0,0.65842372,222.71127,293.75855)" />
    <g
       id="g1633"
       transform="matrix(0.46557588,-0.46557588,0.46557588,0.46557588,160.06463,296.97986)">
      <path
         transform="matrix(1.2,0,0,1.2,4.0709124,-12.585841)"
         style="opacity:1;fill:#742424;fill-opacity:1;stroke:none;stroke-width:5.15079451;stroke-linecap:square;stroke-linejoin:bevel;stroke-miterlimit:4;stroke-dasharray:none;stroke-dashoffset:0;stroke-opacity:0.73039216;filter:url(#filter1627)"
         d="m -24.261029,43.91386 v 15.625872 h -15.625873 v 7.812937 h 15.625873 v 15.625872 h 7.812936 V 67.352669 H -0.82221985 V 59.539732 H -16.448093 V 43.91386 Z"
         id="path1613"
         inkscape:connector-curvature="0" />
      <path
         inkscape:connector-curvature="0"
         id="rect1608"
         d="m -23.628113,38.076173 v 18.751046 h -18.751048 v 9.375524 h 18.751048 V 84.95379 h 9.375523 V 66.202743 H 4.498457 V 56.827219 H -14.25259 V 38.076173 Z"
         style="opacity:1;fill:#ffffff;fill-opacity:1;stroke:none;stroke-width:6.1809535;stroke-linecap:square;stroke-linejoin:bevel;stroke-miterlimit:4;stroke-dasharray:none;stroke-dashoffset:0;stroke-opacity:0.73039216" />
    </g>
    <ellipse
       style="opacity:1;fill:url(#linearGradient1606);fill-opacity:1;stroke:none;stroke-width:2.5632329;stroke-linecap:square;stroke-linejoin:bevel;stroke-miterlimit:4;stroke-dasharray:none;stroke-dashoffset:0;stroke-opacity:0.73039216"
       id="circle1602"
       cx="179.88635"
       cy="326.83899"
       rx="19.079889"
       ry="15.43148" />
  </g>
</svg>
