<svg height="128" width="128" xmlns="http://www.w3.org/2000/svg" xmlns:xlink="http://www.w3.org/1999/xlink"><filter id="a"><feGaussianBlur stdDeviation="1.177891"/></filter><linearGradient id="b" gradientTransform="matrix(.121457 0 0 .1756605 195.18891 511.66043)" gradientUnits="userSpaceOnUse" x1="-333.0289" x2="-333.0289" y1="-1473.6504" y2="-776.61371"><stop offset="0" stop-color="#fff"/><stop offset=".49140647" stop-color="#fff"/><stop offset="1" stop-color="#dcdcdc"/></linearGradient><linearGradient id="c" gradientTransform="matrix(.121457 0 0 .1756605 75.745932 156.34633)" gradientUnits="userSpaceOnUse" x1="399.77466" x2="399.77466" y1="727.07941" y2="480.60214"><stop offset="0" stop-color="#cbcbcd"/><stop offset=".5" stop-color="#e0e0e2"/><stop offset="1" stop-color="#f2f2f2"/></linearGradient><linearGradient id="d" gradientTransform="scale(1.0975951 .9110828)" gradientUnits="userSpaceOnUse" x1="26.091133" x2="31.500689" y1="14.856744" y2="14.856744"><stop offset="0" stop-color="#fff"/><stop offset="1" stop-color="#fff" stop-opacity="0"/></linearGradient><linearGradient id="e" gradientUnits="userSpaceOnUse" x1="304.88663" x2="345.62039" y1="385.86127" y2="384.62384"><stop offset="0" stop-color="#765c44"/><stop offset="1" stop-color="#765c44" stop-opacity="0"/></linearGradient><linearGradient id="f" gradientUnits="userSpaceOnUse" spreadMethod="reflect" x1="88.60625" x2="91.575107" y1="13.510336" y2="13.510336"><stop offset="0" stop-color="#ff8787"/><stop offset="1" stop-color="#ff8787" stop-opacity="0"/></linearGradient><linearGradient id="g" gradientUnits="userSpaceOnUse" spreadMethod="reflect" x1="31.60625" x2="34.575107" y1="13.510336" y2="13.510336"><stop offset="0" stop-color="#fff"/><stop offset="1" stop-color="#790000" stop-opacity="0"/></linearGradient><radialGradient id="h" cx="84.903702" cy="-130.14005" gradientTransform="matrix(.70710678 -.70710678 .70710678 .70710678 241.963333 183.869701)" gradientUnits="userSpaceOnUse" r="57.039597" xlink:href="#i"/><linearGradient id="i"><stop offset="0" stop-color="#3a0b02"/><stop offset="1" stop-color="#a21d07" stop-opacity=".382353"/></linearGradient><radialGradient id="j" cx="2.720703" cy="-66.273438" gradientTransform="matrix(.70710678 -.70710678 .70710678 .70710678 241.963333 183.869701)" gradientUnits="userSpaceOnUse" r="57.039597" xlink:href="#i"/><radialGradient id="k" cx="51.991096" cy="-78.028419" gradientTransform="matrix(.70710678 -.70710678 .70710678 .70710678 241.963333 183.869701)" gradientUnits="userSpaceOnUse" r="57.039597" xlink:href="#i"/><filter id="l" height="1.277481" width="1.279832" x="-.139916" y="-.138741"><feGaussianBlur stdDeviation=".28784801"/></filter><radialGradient id="m" cx="50.424522" cy="-81.945961" gradientTransform="matrix(.70710678 -.70710678 .70710678 .70710678 241.963326 183.869704)" gradientUnits="userSpaceOnUse" r="50.15279"><stop offset="0" stop-color="#db3424"/><stop offset="1" stop-color="#b32016"/></radialGradient><linearGradient id="n" gradientTransform="matrix(.70710678 -.70710678 .70710678 .70710678 241.963333 183.869701)" gradientUnits="userSpaceOnUse" x1="50.06789" x2="59.441998" y1="-154.40843" y2="-71.617722"><stop offset="0" stop-color="#fff"/><stop offset="1" stop-color="#fcf3f3" stop-opacity="0"/></linearGradient><g transform="translate(-79.62865 -236.8761)"><path d="m83.772 239.27611h119.71329c1.18742 0 2.14336 1.12849 2.14336 2.53025v100.56093c0 1.40175-.95594 2.53025-2.14336 2.53025h-119.71329c-1.187418 0-2.143353-1.1285-2.143353-2.53025v-100.56093c0-1.40176.955935-2.53025 2.143353-2.53025z" filter="url(#a)" opacity=".5" transform="matrix(1 0 0 .9846487 0 15.273201)"/><path d="m85.702859 252.87612h115.851551c1.14912 0 2.07421 1.09209 2.07421 2.44863v95.10272c0 1.35654-.92509 2.44863-2.07421 2.44863h-115.851551c-1.149113 0-2.074212-1.09209-2.074212-2.44863v-95.10272c0-1.35654.925099-2.44863 2.074212-2.44863z" fill="url(#c)"/><path d="m85.69115 252.87613c-1.149114 0-2.0625 1.08096-2.0625 2.43749v95.12498c0 1.35655.913386 2.4375 2.0625 2.4375h115.875c1.14913 0 2.0625-1.08095 2.0625-2.4375v-95.12498c0-1.35653-.91337-2.43749-2.0625-2.43749zm1.40625 3.65625h113.0625c1.09166 0 1.96875 1.02406 1.96875 2.29688v90.24997c0 1.2728-.87709 2.29687-1.96875 2.29687h-113.0625c-1.091657 0-1.96875-1.02407-1.96875-2.29687v-90.24997c0-1.27282.877093-2.29688 1.96875-2.29688z" fill="url(#b)"/><path d="m83.62865 288.8761h120v64h-120z" fill="#fff"/><g fill="#bcbcbc"><rect height="3.997392" rx="1.142843" ry="1.998696" width="47.999458" x="91.624268" y="336.875"/><rect height="4.002916" rx="1.142843" ry="2.001458" width="47.999458" x="91.624268" y="324.87769"/><rect height="4.013965" rx="1.142843" ry="2.006982" width="47.999458" x="91.624268" y="312.86475"/><rect height="4.013965" rx="1.142843" ry="2.006982" width="47.999458" x="91.624268" y="300.86475"/><rect height="3.997392" rx="1.142843" ry="1.998696" width="47.999458" x="147.62427" y="336.875"/><rect height="4.002916" rx="1.142843" ry="2.001458" width="47.999458" x="147.62427" y="324.87769"/><rect height="4.013965" rx="1.142843" ry="2.006982" width="47.999458" x="147.62427" y="312.86475"/><rect height="4.013965" rx="1.142843" ry="2.006982" width="47.999458" x="147.62427" y="300.86475"/></g><g transform="matrix(.3703556 .3703556 -.3703556 .3703556 127.60597 163.21388)"><path d="m195.29345 6.457137c-3.80348-.0001142-6.88683 3.0832392-6.88672 6.886715v45.65821l-45.66016-.000004c-3.80348-.000114-6.88683 3.083242-6.88672 6.88672l.00001 24.380857c-.00011 3.803473 3.08324 6.886827 6.88671 6.886718l45.66016.000001v45.658206c-.00011 3.80348 3.08324 6.88683 6.88672 6.88672h24.38086c3.80348.00011 6.88683-3.08324 6.88672-6.88672v-45.658207h45.6582c3.80348.000114 6.88683-3.083242 6.88672-6.886719v-24.380857c.00011-3.803478-3.08324-6.886834-6.88672-6.88672l-45.6582.000001v-45.658208c.00011-3.8034781-3.08325-6.8868307-6.88673-6.886711z" fill="url(#h)"/><path d="m195.29345 6.457137c-3.80348-.0001142-6.88683 3.0832392-6.88672 6.886715v45.65821l-45.66016-.000004c-3.80348-.000114-6.88683 3.083242-6.88672 6.88672l.00001 24.380857c-.00011 3.803473 3.08324 6.886827 6.88671 6.886718l45.66016.000001v45.658206c-.00011 3.80348 3.08324 6.88683 6.88672 6.88672h24.38086c3.80348.00011 6.88683-3.08324 6.88672-6.88672v-45.658207h45.6582c3.80348.000114 6.88683-3.083242 6.88672-6.886719v-24.380857c.00011-3.803478-3.08324-6.886834-6.88672-6.88672l-45.6582.000001v-45.658208c.00011-3.8034781-3.08325-6.8868307-6.88673-6.886711z" fill="url(#j)"/><path d="m195.29345 6.457137c-3.80348-.0001142-6.88683 3.0832392-6.88672 6.886715v45.65821l-45.66016-.000004c-3.80348-.000114-6.88683 3.083242-6.88672 6.88672l.00001 24.380857c-.00011 3.803473 3.08324 6.886827 6.88671 6.886718l45.66016.000001v45.658206c-.00011 3.80348 3.08324 6.88683 6.88672 6.88672h24.38086c3.80348.00011 6.88683-3.08324 6.88672-6.88672v-45.658207h45.6582c3.80348.000114 6.88683-3.083242 6.88672-6.886719v-24.380857c.00011-3.803478-3.08324-6.886834-6.88672-6.88672l-45.6582.000001v-45.658208c.00011-3.8034781-3.08325-6.8868307-6.88673-6.886711z" fill="url(#k)"/><path d="m195.29345 6.457137c-3.80348-.0001142-6.88683 3.0832392-6.88672 6.886715v45.65821l-45.66016-.000004c-3.80348-.000114-6.88683 3.083242-6.88672 6.88672l.00001 24.380857c-.00011 3.803473 3.08324 6.886827 6.88671 6.886718l45.66016.000001v45.658206c-.00011 3.80348 3.08324 6.88683 6.88672 6.88672h24.38086c3.80348.00011 6.88683-3.08324 6.88672-6.88672v-45.658207h45.6582c3.80348.000114 6.88683-3.083242 6.88672-6.886719v-24.380857c.00011-3.803478-3.08324-6.886834-6.88672-6.88672l-45.6582.000001v-45.658208c.00011-3.8034781-3.08325-6.8868307-6.88673-6.886711z" fill="#56331f" fill-opacity=".905882"/><g fill-rule="evenodd"><path d="m31.7 16 2.875-3.375c-1.051205-1.695758-3.935136-2.288018-5.9375-.3125l2.8125 3.375z" fill="url(#d)" filter="url(#l)" opacity=".498127" transform="matrix(1.49150645925 1.49150645925 1.50582882345 -1.50582882345 127.59410641529 114.49961392987)"/><path d="m31.7 16 2.875-3.375c-1.051205-1.695758-3.935136-2.288018-5.9375-.3125l2.8125 3.375z" fill="url(#d)" filter="url(#l)" opacity=".790262" transform="matrix(-1.48712642488 1.48712642488 -1.47298195916 -1.47298195916 338.09259810467 62.91551197261)"/><path d="m31.7 16 2.875-3.375c-1.051205-1.695758-3.935136-2.288018-5.9375-.3125l2.8125 3.375z" fill="url(#e)" filter="url(#l)" opacity=".498127" transform="matrix(1.35063272642 1.35063272642 -1.36360233704 1.36360233704 246.86399537429 4.10590192922)"/><path d="m88.7 16 2.875-3.375c-1.051205-1.695758-3.935136-2.288018-5.9375-.3125l2.8125 3.375z" fill="url(#f)" filter="url(#l)" opacity=".790262" transform="matrix(-1.36360233704 1.36360233704 -1.35063272642 -1.35063272642 358.72933039044 39.96731534031)"/><path d="m31.7 16 2.875-3.375c-1.051205-1.695758-3.935136-2.288018-5.9375-.3125l2.8125 3.375z" fill="url(#g)" filter="url(#l)" opacity=".790262" transform="matrix(-1.24007824919 1.24007824919 1.22828351578 1.22828351578 217.29024648555 -42.32087066452)"/><path d="m88.7 16 2.875-3.375c-1.051205-1.695758-3.935136-2.288018-5.9375-.3125l2.8125 3.375z" fill="url(#f)" filter="url(#l)" opacity=".790262" transform="matrix(-1.2731337634 1.2731337634 1.26102464024 1.26102464024 238.54958587277 -64.19877591516)"/></g><path d="m195.29345 13.343847v52.544933l-52.54687.000001-.00001 24.38085 52.54688.000003v52.544926h24.38086v-52.544926h52.54492v-24.380854l-52.54492-.000001-.00001-52.544929z" fill="url(#m)"/><path d="m142.74678 65.887832-.00001 24.381371h52.54752l-.001 52.546137h24.38138v-52.544755l52.54475-.000001v-24.381372l-52.54475-.000001-.00001-52.544753-24.38136.000002v52.544752zm1.73186 1.731861 50.81427.0014c.95652.000092 1.73195-.775341 1.73186-1.731859v-50.812892l20.91765-.000004v50.812892c-.00009.956519.77534 1.731954 1.73186 1.731862h50.81289v20.917655h-50.81289c-.95652-.000092-1.73195.775341-1.73186 1.731859v50.812894h-20.91766l.001-50.814275c.00009-.956518-.77534-1.731953-1.73186-1.731861l-50.81565.000002z" fill="#f4caca" fill-opacity=".779412"/><path d="m142.74678 65.887832-.00001 24.381371h52.54752v13.963747c9.21859-12.920037 23.72456-29.858471 27.09896-38.336918l-2.71897-.0068-.00001-52.544753-24.38136.000002v52.544752z" fill="url(#n)" fill-rule="evenodd"/></g></g></svg>