<svg height="128" width="128" xmlns="http://www.w3.org/2000/svg" xmlns:xlink="http://www.w3.org/1999/xlink"><linearGradient id="a" gradientTransform="matrix(1.0384874 0 0 1.2391614 2.461539 4.865601)" gradientUnits="userSpaceOnUse" x1="46.048" x2="46.048" y1="128.01709" y2="16.6203"><stop offset="0" stop-color="#c7cdd7"/><stop offset="1" stop-color="#fff"/></linearGradient><linearGradient id="b" gradientUnits="userSpaceOnUse" x1="8" x2="8" y1="88" y2="108"><stop offset="0" stop-color="#828282"/><stop offset="1" stop-color="#828282" stop-opacity="0"/></linearGradient><linearGradient id="c" gradientUnits="userSpaceOnUse" spreadMethod="reflect" x1="88.60625" x2="91.575107" xlink:href="#k" y1="13.510336" y2="13.510336"/><linearGradient id="d" gradientUnits="userSpaceOnUse" spreadMethod="reflect" x1="31.60625" x2="34.575107" xlink:href="#k" y1="13.510336" y2="13.510336"/><linearGradient id="e" gradientUnits="userSpaceOnUse" spreadMethod="reflect" x1="88.60625" x2="91.575107" y1="13.510336" y2="13.510336"><stop offset="0" stop-color="#ff8787"/><stop offset="1" stop-color="#ff8787" stop-opacity="0"/></linearGradient><linearGradient id="f" gradientUnits="userSpaceOnUse" x1="304.88663" x2="345.62039" xlink:href="#l" y1="385.86127" y2="384.62384"/><linearGradient id="g" gradientTransform="scale(1.0975951 .9110828)" gradientUnits="userSpaceOnUse" x1="26.091133" x2="31.500689" xlink:href="#l" y1="14.856744" y2="14.856744"/><clipPath id="h"><path d="m-23.029324-146.61201c-5.531616-.24083-10.64527 3.53552-12 8.96875-.000021.01042-.000021.02083 0 .03125l-2.8125 11.40625h-6.03125c-6.441349 0-11.84375 5.4024-11.84375 11.84375v8c0 5.84595 4.517586 10.626564 10.15625 11.5l-4.125 16.65625h-6.1875c-6.441349 0-11.84375 5.402402-11.84375 11.84375v8c0 5.890458 4.58168 10.71459 10.28125 11.53125l-.84375 3.4375c-1.553679 6.23113 2.382454 12.78725 8.625 14.34375l7.78125 1.9375c6.231123 1.55368 12.818494-2.3825 14.375-8.625.000021-.01042.000021-.02083 0-.03125l2.65625-10.75h14.65625l-.78125 3.125c-1.553681 6.23114 2.382455 12.78725 8.625 14.34375l7.78125 1.9375c6.213771 1.54936 12.804599-2.45209 14.34375-8.625.000021-.01042.000021-.02083 0-.03125l2.65625-10.75h9.6875c6.44135 0 11.84375-5.402396 11.84375-11.84375v-8c0-6.441353-5.4024-11.84375-11.84375-11.84375h-1.875l4.03125-16.3125h9.84375c6.44135 0 11.84375-5.402396 11.84375-11.84375v-8c0-6.44135-5.4024-11.84375-11.84375-11.84375h-2.03125l.9375-3.78125c1.55369-6.23115-2.3825-12.78724-8.625-14.34375l-7.78125-1.9375c-6.231121-1.55367-12.818487 2.38251-14.375 8.625-.000021.01042-.000021.02083 0 .03125l-2.8125 11.40625h-14.625l.9375-3.78125c1.571025-6.30072-2.431097-12.79157-8.65625-14.34375l-7.75-1.9375c-.677154-.16884-1.43324-.30275-2.375-.34375zm10.03125 52.09375h14.625l-4.03125 16.3125h-14.625z"/></clipPath><filter id="i"><feGaussianBlur stdDeviation="1.2346784"/></filter><linearGradient gradientUnits="userSpaceOnUse" x1="52.126926" x2="52.126926" y1="-30.36201" y2="-142.433416"><stop offset="0" stop-color="#403a3a"/><stop offset="1" stop-color="#6a5252"/></linearGradient><linearGradient id="j" gradientUnits="userSpaceOnUse" x1="42" x2="72.138878" y1="118.03125" y2="5.551427"><stop offset="0" stop-color="#084775"/><stop offset="1" stop-color="#084775" stop-opacity="0"/></linearGradient><linearGradient id="k"><stop offset="0" stop-color="#fff"/><stop offset="1" stop-color="#790000" stop-opacity="0"/></linearGradient><linearGradient id="l"><stop offset="0" stop-color="#765c44"/><stop offset="1" stop-color="#765c44" stop-opacity="0"/></linearGradient><linearGradient id="m" gradientTransform="matrix(.6442951 0 0 1 32.724854 0)" gradientUnits="userSpaceOnUse" x1="92.000008" x2="129.25001" y1="69.874999" y2="69.874999"><stop offset="0" stop-color="#fff"/><stop offset="1" stop-color="#fff" stop-opacity="0"/></linearGradient><mask id="n" maskUnits="userSpaceOnUse"><path d="m3.750004 11.249995h112.24999v117.25001h-112.24999z" fill="url(#m)"/></mask><mask id="o" maskUnits="userSpaceOnUse"><path d="m3.500004 11.249995h112.49999v117.25001h-112.49999z" fill="url(#m)"/></mask><mask id="p" maskUnits="userSpaceOnUse"><path d="m7.000004 11.249995h105.24999v117.25001h-105.24999z" fill="url(#m)"/></mask><linearGradient id="q" gradientUnits="userSpaceOnUse" x1="120" x2="120" y1="-32.325989" y2="104.05867"><stop offset="0" stop-color="#fff"/><stop offset="1" stop-color="#555"/></linearGradient><linearGradient id="r" gradientTransform="matrix(0 1 1 0 -29.34375 -5.34375)" gradientUnits="userSpaceOnUse" x1="64.198212" x2="46.393192" y1="79.519829" y2="79.519829"><stop offset="0" stop-color="#781212"/><stop offset="1" stop-color="#d81b1b"/></linearGradient><radialGradient id="s" cx="84.903702" cy="-130.14005" gradientTransform="matrix(.70710678 -.70710678 .70710678 .70710678 241.963333 183.869701)" gradientUnits="userSpaceOnUse" r="57.039597" xlink:href="#t"/><linearGradient id="t"><stop offset="0" stop-color="#3a0b02"/><stop offset="1" stop-color="#a21d07" stop-opacity=".382353"/></linearGradient><radialGradient id="u" cx="2.720703" cy="-66.273438" gradientTransform="matrix(.70710678 -.70710678 .70710678 .70710678 241.963333 183.869701)" gradientUnits="userSpaceOnUse" r="57.039597" xlink:href="#t"/><radialGradient id="v" cx="51.991096" cy="-78.028419" gradientTransform="matrix(.70710678 -.70710678 .70710678 .70710678 241.963333 183.869701)" gradientUnits="userSpaceOnUse" r="57.039597" xlink:href="#t"/><filter id="w" height="1.277481" width="1.279832" x="-.139916" y="-.138741"><feGaussianBlur stdDeviation=".28784801"/></filter><radialGradient id="x" cx="50.424522" cy="-81.945961" gradientTransform="matrix(.70710678 -.70710678 .70710678 .70710678 241.963326 183.869704)" gradientUnits="userSpaceOnUse" r="50.15279"><stop offset="0" stop-color="#db3424"/><stop offset="1" stop-color="#b32016"/></radialGradient><linearGradient id="y" gradientTransform="matrix(.70710678 -.70710678 .70710678 .70710678 241.963333 183.869701)" gradientUnits="userSpaceOnUse" x1="50.06789" x2="59.441998" y1="-154.40843" y2="-71.617722"><stop offset="0" stop-color="#fff"/><stop offset="1" stop-color="#fcf3f3" stop-opacity="0"/></linearGradient><linearGradient id="z" gradientTransform="matrix(.15384999 0 0 1.5000375 -65.641027 -60.0048)" gradientUnits="userSpaceOnUse" x1="114.6638" x2="114.6638" y1="101.334" y2="112.0004"><stop offset="0" stop-color="#edd1d3"/><stop offset="1" stop-color="#edd1d3" stop-opacity="0"/></linearGradient><path d="m8 28h108v76h-108z" fill="url(#a)" mask="url(#p)"/><text x="552.36987" y="202.81038"><tspan fill="#555" x="552.36987" y="219.61037"/></text><path d="m4 24v4 16 4 16 4 16 4 16 4h4 24 4 24 4 24 4 24 4v-4-16-4-6.25h-4v6.25h-24v-6.25-9.75-4-16-4-6-10h24v10h4v-10-4h-4-24-4-24-4-24-4-24zm4 4h24v16h-24zm28 0h24v16h-24zm28 0h24v16h-24zm-56 20h24v16h-24zm28 0h24v16h-24zm28 0h24v16h-24zm-56 20h24v16h-24zm28 0h24v16h-24zm28 0h24v16h-24zm-56 20h24v16h-24zm28 0h24v16h-24zm28 0h24v16h-24zm28 0h24v16h-24z" fill="url(#q)" mask="url(#n)"/><path d="m88 24h4v84h-4z" fill="#fff" opacity=".262911"/><path d="m4 88h4v20h-4z" fill="url(#b)"/><text x="284.18808" y="202.81038"><tspan fill="#555" x="284.18808" y="219.61037"/></text><text x="-10.252362" y="133.87732"><tspan fill="#555" x="-10.252362" y="150.67731"/></text><text x="161.66467" y="-39.856026"><tspan fill="#555" x="161.66467" y="-23.056038"/></text><path clip-path="url(#h)" d="m22.5 42.5-2.25 15.5 14-11.75zm21.75.5 12 14.625 11-.125 17.25-12.75zm50 2 9.25 12.375h6l4.5-11.375zm-83.5 46.75-2.25 13.375 14.5-10.875zm91 1.25-18 1 7.75 11.375 7.25-.5zm-31 .5-34.5.25 8.75 12.8125 10.3125-.9375z" fill="url(#j)" fill-rule="evenodd" filter="url(#i)" transform="translate(118.47918 -240.81844)"/><path clip-path="url(#h)" d="m22.5 42.5-8.662305 12.749263 6.412305 2.750737 14-11.75zm71.75 2.5 9.25 12.375 18.02082 1.06066-7.52082-12.43566zm-83.5 46.75-10.20495127 12.66789 22.45495127-10.16789zm91 1.25-18 1 7.75 11.375 17.14949.38388z" fill="url(#j)" fill-rule="evenodd" filter="url(#i)" opacity=".450495" transform="translate(118.47918 -240.81844)"/><rect fill="#eececf" height="80" opacity=".85" rx=".137769" ry=".535839" transform="rotate(-90)" width="16.000004" x="-64" y="8"/><path d="m-64 92h15.999998v20h-15.999998z" fill="url(#z)" opacity=".764706" transform="rotate(-90)"/><path d="m4 44v24h115v-4h-27.138672c.076324 0 .138672-.238301.138672-.535156v-14.929688c0-.296855-.062348-.535156-.138672-.535156h27.138672v-4h-112.40625zm4 4h24.138672c-.076324 0-.138672.238301-.138672.535156v14.929688c0 .296855.062348.535156.138672.535156h-24.138672zm27.861328 0h24.277344c-.076324 0-.138672.238301-.138672.535156v14.929688c0 .296855.062348.535156.138672.535156h-24.277344c.076324 0 .138672-.238301.138672-.535156v-14.929688c0-.296855-.062348-.535156-.138672-.535156zm28 0h24.277344c-.076324 0-.138672.238301-.138672.535156v14.929688c0 .296855.062348.535156.138672.535156h-24.277344c.076324 0 .138672-.238301.138672-.535156v-14.929688c0-.296855-.062348-.535156-.138672-.535156z" fill="url(#r)" mask="url(#o)"/><g transform="matrix(.2777667 .2777667 -.2777667 .2777667 59.958666 -47.222341)"><path d="m195.29345 6.457137c-3.80348-.0001142-6.88683 3.0832392-6.88672 6.886715v45.65821l-45.66016-.000004c-3.80348-.000114-6.88683 3.083242-6.88672 6.88672l.00001 24.380857c-.00011 3.803473 3.08324 6.886827 6.88671 6.886718l45.66016.000001v45.658206c-.00011 3.80348 3.08324 6.88683 6.88672 6.88672h24.38086c3.80348.00011 6.88683-3.08324 6.88672-6.88672v-45.658207h45.6582c3.80348.000114 6.88683-3.083242 6.88672-6.886719v-24.380857c.00011-3.803478-3.08324-6.886834-6.88672-6.88672l-45.6582.000001v-45.658208c.00011-3.8034781-3.08325-6.8868307-6.88673-6.886711z" fill="url(#s)"/><path d="m195.29345 6.457137c-3.80348-.0001142-6.88683 3.0832392-6.88672 6.886715v45.65821l-45.66016-.000004c-3.80348-.000114-6.88683 3.083242-6.88672 6.88672l.00001 24.380857c-.00011 3.803473 3.08324 6.886827 6.88671 6.886718l45.66016.000001v45.658206c-.00011 3.80348 3.08324 6.88683 6.88672 6.88672h24.38086c3.80348.00011 6.88683-3.08324 6.88672-6.88672v-45.658207h45.6582c3.80348.000114 6.88683-3.083242 6.88672-6.886719v-24.380857c.00011-3.803478-3.08324-6.886834-6.88672-6.88672l-45.6582.000001v-45.658208c.00011-3.8034781-3.08325-6.8868307-6.88673-6.886711z" fill="url(#u)"/><path d="m195.29345 6.457137c-3.80348-.0001142-6.88683 3.0832392-6.88672 6.886715v45.65821l-45.66016-.000004c-3.80348-.000114-6.88683 3.083242-6.88672 6.88672l.00001 24.380857c-.00011 3.803473 3.08324 6.886827 6.88671 6.886718l45.66016.000001v45.658206c-.00011 3.80348 3.08324 6.88683 6.88672 6.88672h24.38086c3.80348.00011 6.88683-3.08324 6.88672-6.88672v-45.658207h45.6582c3.80348.000114 6.88683-3.083242 6.88672-6.886719v-24.380857c.00011-3.803478-3.08324-6.886834-6.88672-6.88672l-45.6582.000001v-45.658208c.00011-3.8034781-3.08325-6.8868307-6.88673-6.886711z" fill="url(#v)"/><path d="m195.29345 6.457137c-3.80348-.0001142-6.88683 3.0832392-6.88672 6.886715v45.65821l-45.66016-.000004c-3.80348-.000114-6.88683 3.083242-6.88672 6.88672l.00001 24.380857c-.00011 3.803473 3.08324 6.886827 6.88671 6.886718l45.66016.000001v45.658206c-.00011 3.80348 3.08324 6.88683 6.88672 6.88672h24.38086c3.80348.00011 6.88683-3.08324 6.88672-6.88672v-45.658207h45.6582c3.80348.000114 6.88683-3.083242 6.88672-6.886719v-24.380857c.00011-3.803478-3.08324-6.886834-6.88672-6.88672l-45.6582.000001v-45.658208c.00011-3.8034781-3.08325-6.8868307-6.88673-6.886711z" fill="#56331f" fill-opacity=".905882"/><g fill-rule="evenodd"><path d="m31.7 16 2.875-3.375c-1.051205-1.695758-3.935136-2.288018-5.9375-.3125l2.8125 3.375z" fill="url(#g)" filter="url(#w)" opacity=".498127" transform="matrix(1.49150645925 1.49150645925 1.50582882345 -1.50582882345 127.59410641529 114.49961392987)"/><path d="m31.7 16 2.875-3.375c-1.051205-1.695758-3.935136-2.288018-5.9375-.3125l2.8125 3.375z" fill="url(#g)" filter="url(#w)" opacity=".790262" transform="matrix(-1.48712642488 1.48712642488 -1.47298195916 -1.47298195916 338.09259810467 62.91551197261)"/><path d="m31.7 16 2.875-3.375c-1.051205-1.695758-3.935136-2.288018-5.9375-.3125l2.8125 3.375z" fill="url(#f)" filter="url(#w)" opacity=".498127" transform="matrix(1.35063272642 1.35063272642 -1.36360233704 1.36360233704 246.86399537429 4.10590192922)"/><path d="m88.7 16 2.875-3.375c-1.051205-1.695758-3.935136-2.288018-5.9375-.3125l2.8125 3.375z" fill="url(#e)" filter="url(#w)" opacity=".790262" transform="matrix(-1.36360233704 1.36360233704 -1.35063272642 -1.35063272642 358.72933039044 39.96731534031)"/><path d="m31.7 16 2.875-3.375c-1.051205-1.695758-3.935136-2.288018-5.9375-.3125l2.8125 3.375z" fill="url(#d)" filter="url(#w)" opacity=".790262" transform="matrix(-1.24007824919 1.24007824919 1.22828351578 1.22828351578 217.29024648555 -42.32087066452)"/><path d="m88.7 16 2.875-3.375c-1.051205-1.695758-3.935136-2.288018-5.9375-.3125l2.8125 3.375z" fill="url(#c)" filter="url(#w)" opacity=".790262" transform="matrix(-1.2731337634 1.2731337634 1.26102464024 1.26102464024 238.54958587277 -64.19877591516)"/></g><path d="m195.29345 13.343847v52.544933l-52.54687.000001-.00001 24.38085 52.54688.000003v52.544926h24.38086v-52.544926h52.54492v-24.380854l-52.54492-.000001-.00001-52.544929z" fill="url(#x)"/><path d="m142.74678 65.887832-.00001 24.381371h52.54752l-.001 52.546137h24.38138v-52.544755l52.54475-.000001v-24.381372l-52.54475-.000001-.00001-52.544753-24.38136.000002v52.544752zm1.73186 1.731861 50.81427.0014c.95652.000092 1.73195-.775341 1.73186-1.731859v-50.812892l20.91765-.000004v50.812892c-.00009.956519.77534 1.731954 1.73186 1.731862h50.81289v20.917655h-50.81289c-.95652-.000092-1.73195.775341-1.73186 1.731859v50.812894h-20.91766l.001-50.814275c.00009-.956518-.77534-1.731953-1.73186-1.731861l-50.81565.000002z" fill="#f4caca" fill-opacity=".779412"/><path d="m142.74678 65.887832-.00001 24.381371h52.54752v13.963747c9.21859-12.920037 23.72456-29.858471 27.09896-38.336918l-2.71897-.0068-.00001-52.544753-24.38136.000002v52.544752z" fill="url(#y)" fill-rule="evenodd"/></g></svg>