<svg height="127.74194" viewBox="0 0 127.74194 127.74194" width="127.74194" xmlns="http://www.w3.org/2000/svg" xmlns:xlink="http://www.w3.org/1999/xlink"><linearGradient id="a" gradientUnits="userSpaceOnUse" x1="121.870972" x2="121.870972" y1="-34.455016" y2="101.929643"><stop offset="0" stop-color="#fff"/><stop offset="1" stop-color="#555"/></linearGradient><linearGradient id="b" gradientTransform="matrix(1.0384874 0 0 .91306627 4.332511 8.824573)" gradientUnits="userSpaceOnUse" x1="46.048" x2="46.048" y1="128.01709" y2="16.6203"><stop offset="0" stop-color="#c7cdd7"/><stop offset="1" stop-color="#fff"/></linearGradient><radialGradient id="c" cx="84.903702" cy="-130.14005" gradientTransform="matrix(.70710678 -.70710678 .70710678 .70710678 241.963333 183.869701)" gradientUnits="userSpaceOnUse" r="57.039597" xlink:href="#d"/><linearGradient id="d"><stop offset="0" stop-color="#3a0b02"/><stop offset="1" stop-color="#a21d07" stop-opacity=".382353"/></linearGradient><radialGradient id="e" cx="2.720703" cy="-66.273438" gradientTransform="matrix(.70710678 -.70710678 .70710678 .70710678 241.963333 183.869701)" gradientUnits="userSpaceOnUse" r="57.039597" xlink:href="#d"/><radialGradient id="f" cx="51.991096" cy="-78.028419" gradientTransform="matrix(.70710678 -.70710678 .70710678 .70710678 241.963333 183.869701)" gradientUnits="userSpaceOnUse" r="57.039597" xlink:href="#d"/><linearGradient id="g" gradientTransform="scale(1.0975951 .9110828)" gradientUnits="userSpaceOnUse" x1="26.091133" x2="31.500689" xlink:href="#h" y1="14.856744" y2="14.856744"/><linearGradient id="h"><stop offset="0" stop-color="#765c44"/><stop offset="1" stop-color="#765c44" stop-opacity="0"/></linearGradient><filter id="i" height="1.277481" width="1.279832" x="-.139916" y="-.138741"><feGaussianBlur stdDeviation=".28784801"/></filter><linearGradient id="j" gradientUnits="userSpaceOnUse" x1="304.88663" x2="345.62039" xlink:href="#h" y1="385.86127" y2="384.62384"/><linearGradient id="k" gradientUnits="userSpaceOnUse" spreadMethod="reflect" x1="88.60625" x2="91.575107" y1="13.510336" y2="13.510336"><stop offset="0" stop-color="#ff8787"/><stop offset="1" stop-color="#ff8787" stop-opacity="0"/></linearGradient><linearGradient id="l" gradientUnits="userSpaceOnUse" spreadMethod="reflect" x1="31.60625" x2="34.575107" xlink:href="#m" y1="13.510336" y2="13.510336"/><linearGradient id="m"><stop offset="0" stop-color="#fff"/><stop offset="1" stop-color="#790000" stop-opacity="0"/></linearGradient><linearGradient id="n" gradientUnits="userSpaceOnUse" spreadMethod="reflect" x1="88.60625" x2="91.575107" xlink:href="#m" y1="13.510336" y2="13.510336"/><radialGradient id="o" cx="50.424522" cy="-81.945961" gradientTransform="matrix(.70710678 -.70710678 .70710678 .70710678 241.963326 183.869704)" gradientUnits="userSpaceOnUse" r="50.15279"><stop offset="0" stop-color="#db3424"/><stop offset="1" stop-color="#b32016"/></radialGradient><linearGradient id="p" gradientTransform="matrix(.70710678 -.70710678 .70710678 .70710678 241.963333 183.869701)" gradientUnits="userSpaceOnUse" x1="50.06789" x2="59.441998" y1="-154.40843" y2="-71.617722"><stop offset="0" stop-color="#fff"/><stop offset="1" stop-color="#fcf3f3" stop-opacity="0"/></linearGradient><g transform="translate(-1.870972 -2.129028)"><path d="m9.870972 25.870972h108v76h-108z" fill="url(#b)"/><path d="m5.8709716 21.870974v4 16 4 16 4 16 4 15.999996 4h4 20.0000004 4 28 4 28 4 19.999998 4v-4-15.999996-4-16-4-16-4-16-4h-4-19.999998-4-28-4-28-4-20.0000004zm4 4h20.0000004v16h-20.0000004zm24.0000004 0h28v16h-28zm32 0h28v16h-28zm32 0h19.999998v16h-19.999998zm-88.0000004 20h20.0000004v16h-20.0000004zm24.0000004 0h28v16h-28zm32 0h28v16h-28zm32 0h19.999998v16h-19.999998zm-88.0000004 20h20.0000004v16h-20.0000004zm24.0000004 0h28v16h-28zm32 0h28v16h-28zm32 0h19.999998v16h-19.999998zm-88.0000004 20h20.0000004v15.999996h-20.0000004zm24.0000004 0h28v15.999996h-28zm32 0h28v15.999996h-28zm32 0h19.999998v15.999996h-19.999998z" fill="url(#a)"/></g><g transform="matrix(.3703556 .3703556 -.3703556 .3703556 47.97732 -73.92028)"><path d="m195.29345 6.457137c-3.80348-.0001142-6.88683 3.0832392-6.88672 6.886715v45.65821l-45.66016-.000004c-3.80348-.000114-6.88683 3.083242-6.88672 6.88672l.00001 24.380857c-.00011 3.803473 3.08324 6.886827 6.88671 6.886718l45.66016.000001v45.658206c-.00011 3.80348 3.08324 6.88683 6.88672 6.88672h24.38086c3.80348.00011 6.88683-3.08324 6.88672-6.88672v-45.658207h45.6582c3.80348.000114 6.88683-3.083242 6.88672-6.886719v-24.380857c.00011-3.803478-3.08324-6.886834-6.88672-6.88672l-45.6582.000001v-45.658208c.00011-3.8034781-3.08325-6.8868307-6.88673-6.886711z" fill="url(#c)"/><path d="m195.29345 6.457137c-3.80348-.0001142-6.88683 3.0832392-6.88672 6.886715v45.65821l-45.66016-.000004c-3.80348-.000114-6.88683 3.083242-6.88672 6.88672l.00001 24.380857c-.00011 3.803473 3.08324 6.886827 6.88671 6.886718l45.66016.000001v45.658206c-.00011 3.80348 3.08324 6.88683 6.88672 6.88672h24.38086c3.80348.00011 6.88683-3.08324 6.88672-6.88672v-45.658207h45.6582c3.80348.000114 6.88683-3.083242 6.88672-6.886719v-24.380857c.00011-3.803478-3.08324-6.886834-6.88672-6.88672l-45.6582.000001v-45.658208c.00011-3.8034781-3.08325-6.8868307-6.88673-6.886711z" fill="url(#e)"/><path d="m195.29345 6.457137c-3.80348-.0001142-6.88683 3.0832392-6.88672 6.886715v45.65821l-45.66016-.000004c-3.80348-.000114-6.88683 3.083242-6.88672 6.88672l.00001 24.380857c-.00011 3.803473 3.08324 6.886827 6.88671 6.886718l45.66016.000001v45.658206c-.00011 3.80348 3.08324 6.88683 6.88672 6.88672h24.38086c3.80348.00011 6.88683-3.08324 6.88672-6.88672v-45.658207h45.6582c3.80348.000114 6.88683-3.083242 6.88672-6.886719v-24.380857c.00011-3.803478-3.08324-6.886834-6.88672-6.88672l-45.6582.000001v-45.658208c.00011-3.8034781-3.08325-6.8868307-6.88673-6.886711z" fill="url(#f)"/><path d="m195.29345 6.457137c-3.80348-.0001142-6.88683 3.0832392-6.88672 6.886715v45.65821l-45.66016-.000004c-3.80348-.000114-6.88683 3.083242-6.88672 6.88672l.00001 24.380857c-.00011 3.803473 3.08324 6.886827 6.88671 6.886718l45.66016.000001v45.658206c-.00011 3.80348 3.08324 6.88683 6.88672 6.88672h24.38086c3.80348.00011 6.88683-3.08324 6.88672-6.88672v-45.658207h45.6582c3.80348.000114 6.88683-3.083242 6.88672-6.886719v-24.380857c.00011-3.803478-3.08324-6.886834-6.88672-6.88672l-45.6582.000001v-45.658208c.00011-3.8034781-3.08325-6.8868307-6.88673-6.886711z" fill="#56331f" fill-opacity=".905882"/><g fill-rule="evenodd"><path d="m31.7 16 2.875-3.375c-1.051205-1.695758-3.935136-2.288018-5.9375-.3125l2.8125 3.375z" fill="url(#g)" filter="url(#i)" opacity=".498127" transform="matrix(1.49150645925 1.49150645925 1.50582882345 -1.50582882345 127.59410641529 114.49961392987)"/><path d="m31.7 16 2.875-3.375c-1.051205-1.695758-3.935136-2.288018-5.9375-.3125l2.8125 3.375z" fill="url(#g)" filter="url(#i)" opacity=".790262" transform="matrix(-1.48712642488 1.48712642488 -1.47298195916 -1.47298195916 338.09259810467 62.91551197261)"/><path d="m31.7 16 2.875-3.375c-1.051205-1.695758-3.935136-2.288018-5.9375-.3125l2.8125 3.375z" fill="url(#j)" filter="url(#i)" opacity=".498127" transform="matrix(1.35063272642 1.35063272642 -1.36360233704 1.36360233704 246.86399537429 4.10590192922)"/><path d="m88.7 16 2.875-3.375c-1.051205-1.695758-3.935136-2.288018-5.9375-.3125l2.8125 3.375z" fill="url(#k)" filter="url(#i)" opacity=".790262" transform="matrix(-1.36360233704 1.36360233704 -1.35063272642 -1.35063272642 358.72933039044 39.96731534031)"/><path d="m31.7 16 2.875-3.375c-1.051205-1.695758-3.935136-2.288018-5.9375-.3125l2.8125 3.375z" fill="url(#l)" filter="url(#i)" opacity=".790262" transform="matrix(-1.24007824919 1.24007824919 1.22828351578 1.22828351578 217.29024648555 -42.32087066452)"/><path d="m88.7 16 2.875-3.375c-1.051205-1.695758-3.935136-2.288018-5.9375-.3125l2.8125 3.375z" fill="url(#n)" filter="url(#i)" opacity=".790262" transform="matrix(-1.2731337634 1.2731337634 1.26102464024 1.26102464024 238.54958587277 -64.19877591516)"/></g><path d="m195.29345 13.343847v52.544933l-52.54687.000001-.00001 24.38085 52.54688.000003v52.544926h24.38086v-52.544926h52.54492v-24.380854l-52.54492-.000001-.00001-52.544929z" fill="url(#o)"/><path d="m142.74678 65.887832-.00001 24.381371h52.54752l-.001 52.546137h24.38138v-52.544755l52.54475-.000001v-24.381372l-52.54475-.000001-.00001-52.544753-24.38136.000002v52.544752zm1.73186 1.731861 50.81427.0014c.95652.000092 1.73195-.775341 1.73186-1.731859v-50.812892l20.91765-.000004v50.812892c-.00009.956519.77534 1.731954 1.73186 1.731862h50.81289v20.917655h-50.81289c-.95652-.000092-1.73195.775341-1.73186 1.731859v50.812894h-20.91766l.001-50.814275c.00009-.956518-.77534-1.731953-1.73186-1.731861l-50.81565.000002z" fill="#f4caca" fill-opacity=".779412"/><path d="m142.74678 65.887832-.00001 24.381371h52.54752v13.963747c9.21859-12.920037 23.72456-29.858471 27.09896-38.336918l-2.71897-.0068-.00001-52.544753-24.38136.000002v52.544752z" fill="url(#p)" fill-rule="evenodd"/></g></svg>