<svg height="128" viewBox="0 0 128 128" width="128" xmlns="http://www.w3.org/2000/svg" xmlns:xlink="http://www.w3.org/1999/xlink"><radialGradient id="a" cx="8" cy="8.201889" gradientTransform="matrix(2.4327881 0 0 2.4240172 -3.821134 920.00488)" gradientUnits="userSpaceOnUse" r="56"><stop offset=".0765" stop-color="#f3c300"/><stop offset=".1887" stop-color="#f7d21f"/><stop offset=".3467" stop-color="#fde446"/><stop offset=".4294" stop-color="#ffeb55"/><stop offset=".6882" stop-color="#ffeb55"/><stop offset=".7281" stop-color="#fee951"/><stop offset=".7641" stop-color="#fde446"/><stop offset=".7987" stop-color="#fadb34"/><stop offset=".8322" stop-color="#f7cf1a"/><stop offset=".8588" stop-color="#f3c300"/><stop offset=".9208" stop-color="#fbd400"/><stop offset=".9706" stop-color="#fd0"/></radialGradient><linearGradient id="b" gradientUnits="userSpaceOnUse" x1="69.62727669262" x2="96.71061456325" y1="933.27746162271" y2="976.61078969532"><stop offset="0" stop-color="#fff" stop-opacity=".462094"/><stop offset=".5" stop-color="#fff"/><stop offset="1" stop-color="#fff" stop-opacity=".350181"/></linearGradient><filter id="c" color-interpolation-filters="sRGB" height="1.048087" width="1.047914" x="-.023957" y="-.024043"><feGaussianBlur stdDeviation="1.1727546"/></filter><filter id="d" color-interpolation-filters="sRGB" height="1.07213" width="1.07187" x="-.035935" y="-.036065"><feGaussianBlur stdDeviation="1.657823"/></filter><radialGradient id="e" cx="84.903702" cy="-130.14005" gradientTransform="matrix(.70710678 -.70710678 .70710678 .70710678 241.963333 183.869701)" gradientUnits="userSpaceOnUse" r="57.039597" xlink:href="#f"/><linearGradient id="f"><stop offset="0" stop-color="#3a0b02"/><stop offset="1" stop-color="#a21d07" stop-opacity=".382353"/></linearGradient><radialGradient id="g" cx="2.720703" cy="-66.273438" gradientTransform="matrix(.70710678 -.70710678 .70710678 .70710678 241.963333 183.869701)" gradientUnits="userSpaceOnUse" r="57.039597" xlink:href="#f"/><radialGradient id="h" cx="51.991096" cy="-78.028419" gradientTransform="matrix(.70710678 -.70710678 .70710678 .70710678 241.963333 183.869701)" gradientUnits="userSpaceOnUse" r="57.039597" xlink:href="#f"/><linearGradient id="i" gradientTransform="scale(1.0975951 .9110828)" gradientUnits="userSpaceOnUse" x1="26.091133" x2="31.500689" y1="14.856744" y2="14.856744"><stop offset="0" stop-color="#fff"/><stop offset="1" stop-color="#fff" stop-opacity="0"/></linearGradient><filter id="j" height="1.277481" width="1.279832" x="-.139916" y="-.138741"><feGaussianBlur stdDeviation=".28784801"/></filter><linearGradient id="k" gradientUnits="userSpaceOnUse" x1="304.88663" x2="345.62039" y1="385.86127" y2="384.62384"><stop offset="0" stop-color="#765c44"/><stop offset="1" stop-color="#765c44" stop-opacity="0"/></linearGradient><linearGradient id="l" gradientUnits="userSpaceOnUse" spreadMethod="reflect" x1="88.60625" x2="91.575107" y1="13.510336" y2="13.510336"><stop offset="0" stop-color="#ff8787"/><stop offset="1" stop-color="#ff8787" stop-opacity="0"/></linearGradient><linearGradient id="m" gradientUnits="userSpaceOnUse" spreadMethod="reflect" x1="31.60625" x2="34.575107" y1="13.510336" y2="13.510336"><stop offset="0" stop-color="#fff"/><stop offset="1" stop-color="#790000" stop-opacity="0"/></linearGradient><radialGradient id="n" cx="50.424522" cy="-81.945961" gradientTransform="matrix(.70710678 -.70710678 .70710678 .70710678 241.963326 183.869704)" gradientUnits="userSpaceOnUse" r="50.15279"><stop offset="0" stop-color="#db3424"/><stop offset="1" stop-color="#b32016"/></radialGradient><linearGradient id="o" gradientTransform="matrix(.70710678 -.70710678 .70710678 .70710678 241.963333 183.869701)" gradientUnits="userSpaceOnUse" x1="47.681309" x2="58.010048" y1="-164.43207" y2="-92.619629"><stop offset="0" stop-color="#fff"/><stop offset="1" stop-color="#fcf3f3" stop-opacity="0"/></linearGradient><g transform="translate(0 -924.36216)"><path d="m10.76134 931.03388h110.55338v110.52542h-110.55338z" fill="#453500" filter="url(#d)" transform="matrix(.93196255 0 0 .93196255 4.45503 67.170662)"/><path d="m6.8689672 2.9363508 117.3047628-.0000002v117.2850194h-117.3047628z" filter="url(#c)" opacity=".77" transform="matrix(.85262441 0 0 .85262441 10.134893 933.85856)"/><path d="m16 936.36216h100v100.00004h-100z" fill="#e3ad00"/><path d="m16.855659 937.2502h98.288681v98.224h-98.288681z" fill="#fff"/><path d="m17.083333 937.63958 97.833317-.19796v97.84118h-97.833317z" fill="url(#a)"/><path d="m16 936.24936h99.68402v21.30556h-99.68402z" fill="url(#b)"/><path d="m62.383255 1016.6146v-2.4994z" fill="#fff" fill-opacity=".756881"/><path d="m102.37121 933.16372v-2.49935z" fill="#fff" fill-opacity=".756881"/><g transform="matrix(.3703556 .3703556 -.3703556 .3703556 -15.828086 850.60226)"><path d="m195.29345 6.457137c-3.80348-.0001142-6.88683 3.0832392-6.88672 6.886715v45.65821l-45.66016-.000004c-3.80348-.000114-6.88683 3.083242-6.88672 6.88672l.00001 24.380857c-.00011 3.803473 3.08324 6.886827 6.88671 6.886718l45.66016.000001v45.658206c-.00011 3.80348 3.08324 6.88683 6.88672 6.88672h24.38086c3.80348.00011 6.88683-3.08324 6.88672-6.88672v-45.658207h45.6582c3.80348.000114 6.88683-3.083242 6.88672-6.886719v-24.380857c.00011-3.803478-3.08324-6.886834-6.88672-6.88672l-45.6582.000001v-45.658208c.00011-3.8034781-3.08325-6.8868307-6.88673-6.886711z" fill="url(#e)"/><path d="m195.29345 6.457137c-3.80348-.0001142-6.88683 3.0832392-6.88672 6.886715v45.65821l-45.66016-.000004c-3.80348-.000114-6.88683 3.083242-6.88672 6.88672l.00001 24.380857c-.00011 3.803473 3.08324 6.886827 6.88671 6.886718l45.66016.000001v45.658206c-.00011 3.80348 3.08324 6.88683 6.88672 6.88672h24.38086c3.80348.00011 6.88683-3.08324 6.88672-6.88672v-45.658207h45.6582c3.80348.000114 6.88683-3.083242 6.88672-6.886719v-24.380857c.00011-3.803478-3.08324-6.886834-6.88672-6.88672l-45.6582.000001v-45.658208c.00011-3.8034781-3.08325-6.8868307-6.88673-6.886711z" fill="url(#g)"/><path d="m195.29345 6.457137c-3.80348-.0001142-6.88683 3.0832392-6.88672 6.886715v45.65821l-45.66016-.000004c-3.80348-.000114-6.88683 3.083242-6.88672 6.88672l.00001 24.380857c-.00011 3.803473 3.08324 6.886827 6.88671 6.886718l45.66016.000001v45.658206c-.00011 3.80348 3.08324 6.88683 6.88672 6.88672h24.38086c3.80348.00011 6.88683-3.08324 6.88672-6.88672v-45.658207h45.6582c3.80348.000114 6.88683-3.083242 6.88672-6.886719v-24.380857c.00011-3.803478-3.08324-6.886834-6.88672-6.88672l-45.6582.000001v-45.658208c.00011-3.8034781-3.08325-6.8868307-6.88673-6.886711z" fill="url(#h)"/><path d="m195.29345 6.457137c-3.80348-.0001142-6.88683 3.0832392-6.88672 6.886715v45.65821l-45.66016-.000004c-3.80348-.000114-6.88683 3.083242-6.88672 6.88672l.00001 24.380857c-.00011 3.803473 3.08324 6.886827 6.88671 6.886718l45.66016.000001v45.658206c-.00011 3.80348 3.08324 6.88683 6.88672 6.88672h24.38086c3.80348.00011 6.88683-3.08324 6.88672-6.88672v-45.658207h45.6582c3.80348.000114 6.88683-3.083242 6.88672-6.886719v-24.380857c.00011-3.803478-3.08324-6.886834-6.88672-6.88672l-45.6582.000001v-45.658208c.00011-3.8034781-3.08325-6.8868307-6.88673-6.886711z" fill="#56331f" fill-opacity=".905882"/><g fill-rule="evenodd"><path d="m31.7 16 2.875-3.375c-1.051205-1.695758-3.935136-2.288018-5.9375-.3125l2.8125 3.375z" fill="url(#i)" filter="url(#j)" opacity=".498127" transform="matrix(1.49150645925 1.49150645925 1.50582882345 -1.50582882345 127.59410641529 114.49961392987)"/><path d="m31.7 16 2.875-3.375c-1.051205-1.695758-3.935136-2.288018-5.9375-.3125l2.8125 3.375z" fill="url(#i)" filter="url(#j)" opacity=".790262" transform="matrix(-1.48712642488 1.48712642488 -1.47298195916 -1.47298195916 338.09259810467 62.91551197261)"/><path d="m31.7 16 2.875-3.375c-1.051205-1.695758-3.935136-2.288018-5.9375-.3125l2.8125 3.375z" fill="url(#k)" filter="url(#j)" opacity=".498127" transform="matrix(1.35063272642 1.35063272642 -1.36360233704 1.36360233704 246.86399537429 4.10590192922)"/><path d="m88.7 16 2.875-3.375c-1.051205-1.695758-3.935136-2.288018-5.9375-.3125l2.8125 3.375z" fill="url(#l)" filter="url(#j)" opacity=".790262" transform="matrix(-1.36360233704 1.36360233704 -1.35063272642 -1.35063272642 358.72933039044 39.96731534031)"/><path d="m31.7 16 2.875-3.375c-1.051205-1.695758-3.935136-2.288018-5.9375-.3125l2.8125 3.375z" fill="url(#m)" filter="url(#j)" opacity=".790262" transform="matrix(-1.24007824919 1.24007824919 1.22828351578 1.22828351578 217.29024648555 -42.32087066452)"/><path d="m88.7 16 2.875-3.375c-1.051205-1.695758-3.935136-2.288018-5.9375-.3125l2.8125 3.375z" fill="url(#l)" filter="url(#j)" opacity=".790262" transform="matrix(-1.2731337634 1.2731337634 1.26102464024 1.26102464024 238.54958587277 -64.19877591516)"/></g><path d="m195.29345 13.343847v52.544933l-52.54687.000001-.00001 24.38085 52.54688.000003v52.544926h24.38086v-52.544926h52.54492v-24.380854l-52.54492-.000001-.00001-52.544929z" fill="url(#n)"/><path d="m142.74678 65.887832-.00001 24.381371h52.54752l-.001 52.546137h24.38138v-52.544755l52.54475-.000001v-24.381372l-52.54475-.000001-.00001-52.544753-24.38136.000002v52.544752zm1.73186 1.731861 50.81427.0014c.95652.000092 1.73195-.775341 1.73186-1.731859v-50.812892l20.91765-.000004v50.812892c-.00009.956519.77534 1.731954 1.73186 1.731862h50.81289v20.917655h-50.81289c-.95652-.000092-1.73195.775341-1.73186 1.731859v50.812894h-20.91766l.001-50.814275c.00009-.956518-.77534-1.731953-1.73186-1.731861l-50.81565.000002z" fill="#f4caca" fill-opacity=".779412"/><path d="m142.74678 65.887832-.00001 24.381371h52.54752v13.963747c9.21859-12.920037 23.72456-29.858471 27.09896-38.336918l-2.71897-.0068-.00001-52.544753-24.38136.000002v52.544752z" fill="url(#o)" fill-rule="evenodd"/></g></g></svg>