<svg height="128" width="128" xmlns="http://www.w3.org/2000/svg" xmlns:xlink="http://www.w3.org/1999/xlink"><linearGradient id="a" gradientUnits="userSpaceOnUse" x1="42" x2="72.138878" y1="118.03125" y2="5.551427"><stop offset="0" stop-color="#084775"/><stop offset="1" stop-color="#084775" stop-opacity="0"/></linearGradient><linearGradient gradientUnits="userSpaceOnUse" x1="52.126926" x2="52.126926" y1="-30.36201" y2="-142.433416"><stop offset="0" stop-color="#403a3a"/><stop offset="1" stop-color="#6a5252"/></linearGradient><filter id="b"><feGaussianBlur stdDeviation="1.2346784"/></filter><clipPath id="c"><path d="m-23.029324-146.61201c-5.531616-.24083-10.64527 3.53552-12 8.96875-.000021.01042-.000021.02083 0 .03125l-2.8125 11.40625h-6.03125c-6.441349 0-11.84375 5.4024-11.84375 11.84375v8c0 5.84595 4.517586 10.626564 10.15625 11.5l-4.125 16.65625h-6.1875c-6.441349 0-11.84375 5.402402-11.84375 11.84375v8c0 5.890458 4.58168 10.71459 10.28125 11.53125l-.84375 3.4375c-1.553679 6.23113 2.382454 12.78725 8.625 14.34375l7.78125 1.9375c6.231123 1.55368 12.818494-2.3825 14.375-8.625.000021-.01042.000021-.02083 0-.03125l2.65625-10.75h14.65625l-.78125 3.125c-1.553681 6.23114 2.382455 12.78725 8.625 14.34375l7.78125 1.9375c6.213771 1.54936 12.804599-2.45209 14.34375-8.625.000021-.01042.000021-.02083 0-.03125l2.65625-10.75h9.6875c6.44135 0 11.84375-5.402396 11.84375-11.84375v-8c0-6.441353-5.4024-11.84375-11.84375-11.84375h-1.875l4.03125-16.3125h9.84375c6.44135 0 11.84375-5.402396 11.84375-11.84375v-8c0-6.44135-5.4024-11.84375-11.84375-11.84375h-2.03125l.9375-3.78125c1.55369-6.23115-2.3825-12.78724-8.625-14.34375l-7.78125-1.9375c-6.231121-1.55367-12.818487 2.38251-14.375 8.625-.000021.01042-.000021.02083 0 .03125l-2.8125 11.40625h-14.625l.9375-3.78125c1.571025-6.30072-2.431097-12.79157-8.65625-14.34375l-7.75-1.9375c-.677154-.16884-1.43324-.30275-2.375-.34375zm10.03125 52.09375h14.625l-4.03125 16.3125h-14.625z"/></clipPath><filter id="d" color-interpolation-filters="sRGB" height="1.064552" width="1.1872" x="-.0936" y="-.032276"><feGaussianBlur stdDeviation="1.56"/></filter><filter id="e" color-interpolation-filters="sRGB" height="1.185769" width="1.257983" x="-.128991" y="-.092885"><feGaussianBlur stdDeviation="2.6021677"/></filter><path d="m32 6.1621094a5.8383476 5.8383476 0 0 0 -5.837891 5.8378906v4a5.8383476 5.8383476 0 0 0 5.837891 5.837891h2.162109v80.324219h-2.162109a5.8383476 5.8383476 0 0 0 -5.837891 5.83789v4a5.8383476 5.8383476 0 0 0 5.837891 5.83789h24a5.8383476 5.8383476 0 0 0 5.837891-5.83789v-4a5.8383476 5.8383476 0 0 0 -5.837891-5.83789h-2.162109v-80.324219h2.162109a5.8383476 5.8383476 0 0 0 5.837891-5.837891v-4a5.8383476 5.8383476 0 0 0 -5.837891-5.8378906z" fill="#626262" filter="url(#d)"/><path d="m32 8a4.0004 4.0004 0 0 0 -4 4v4a4.0004 4.0004 0 0 0 4 4h4v84h-4a4.0004 4.0004 0 0 0 -4 4v4a4.0004 4.0004 0 0 0 4 4h24a4.0004 4.0004 0 0 0 4-4v-4a4.0004 4.0004 0 0 0 -4-4h-4v-84h4a4.0004 4.0004 0 0 0 4-4v-4a4.0004 4.0004 0 0 0 -4-4z" fill="#fff"/><path d="m84.230469 58.171876c-1.986283.0172-3.952728.863732-5.328125 2.296875s-2.142586 3.432658-2.078125 5.417968l1.443359 44.312501a2.3096921 2.3096921 0 0 0 0 .002c.0958 2.93581 2.093802 5.71952 4.84375 6.75195 2.749948 1.03244 6.085624.2509 8.089844-1.89648l2.765625-2.96289 3.851562 7.70313a2.3096921 2.3096921 0 0 0 .002 0c.455233.90897 1.098397 1.7252 1.876954 2.3789 4.610887 3.87448 11.214747 4.32955 15.847657 1.01758 4.67443-3.34163 6.32343-9.90872 3.89453-15.49414-.16002-.36796-.34944-.72301-.5664-1.06055l-.002-.002-3.59961-5.59961 3.06446-.22656a2.3096921 2.3096921 0 0 0 .002 0c2.95151-.21949 5.66748-2.363749 6.56641-5.183597.89892-2.819848-.0755-6.140156-2.35547-8.027344l-33.488343-27.712889c-1.34368-1.111954-3.086036-1.730106-4.830078-1.714844z" fill="#5a5a5a" fill-opacity=".772059" fill-rule="evenodd" filter="url(#e)" transform="matrix(1.1489699 0 0 1.1489699 -18.656415 -18.68198)"/><path d="m-378.73128 170.7101v-2.79471z" fill="#fff" fill-opacity=".756881"/><g fill-rule="evenodd"><path clip-path="url(#c)" d="m22.5 42.5-2.25 15.5 14-11.75zm21.75.5 12 14.625 11-.125 17.25-12.75zm50 2 9.25 12.375h6l4.5-11.375zm-83.5 46.75-2.25 13.375 14.5-10.875zm91 1.25-18 1 7.75 11.375 7.25-.5zm-31 .5-34.5.25 8.75 12.8125 10.3125-.9375z" fill="url(#a)" filter="url(#b)" transform="translate(142.57778 -94.108338)"/><path clip-path="url(#c)" d="m22.5 42.5-8.662305 12.749263 6.412305 2.750737 14-11.75zm71.75 2.5 9.25 12.375 18.02082 1.06066-7.52082-12.43566zm-83.5 46.75-10.20495127 12.66789 22.45495127-10.16789zm91 1.25-18 1 7.75 11.375 17.14949.38388z" fill="url(#a)" filter="url(#b)" opacity=".450495" transform="translate(142.57778 -94.108338)"/><path d="m78.15625 52.203125c-1.206313.01056-2.399152.526021-3.234375 1.396484s-1.300992 2.085296-1.261719 3.291016l1.658203 50.912105c.05855 1.78256 1.271722 3.47265 2.941407 4.09961 1.669684.62697 3.694765.15307 4.912109-1.15039l5.783203-6.19531a1.3949796 1.3949796 0 0 1 2.267578.32813l6.132813 12.26562c.276345.55188.666076 1.04639 1.138672 1.44336a1.3949796 1.3949796 0 0 1 .002 0c3.932576 3.30583 9.608866 3.57953 13.249996.97656 3.61647-2.58532 5.15483-8.20689 3.11719-12.89258-.0974-.22395-.21355-.44109-.3457-.64648l-6.54688-10.1875a1.3949796 1.3949796 0 0 1 1.07032-2.144531l7.96875-.589844c1.79232-.13345 3.44236-1.436066 3.98828-3.148437.54591-1.712372-.0453-3.728796-1.42969-4.875l-38.478563-31.841797c-.815906-.674897-1.874773-1.050255-2.933594-1.041016z" fill="#fff"/><path d="m101.41438 115.11867-9.950616-19.901238-11.609054 12.438268-1.658437-50.913992 38.475717 31.841979-17.911108 1.32675 11.940748 18.574483c2.76557 6.35961-3.92156 11.14429-9.28725 6.63375z"/></g><path d="m32 12v4h8v92h-8v4h24v-4h-8v-92h8v-4z"/></svg>