<?xml version="1.0" encoding="UTF-8" standalone="no"?>
<svg
   xmlns:dc="http://purl.org/dc/elements/1.1/"
   xmlns:cc="http://creativecommons.org/ns#"
   xmlns:rdf="http://www.w3.org/1999/02/22-rdf-syntax-ns#"
   xmlns:svg="http://www.w3.org/2000/svg"
   xmlns="http://www.w3.org/2000/svg"
   xmlns:sodipodi="http://sodipodi.sourceforge.net/DTD/sodipodi-0.dtd"
   xmlns:inkscape="http://www.inkscape.org/namespaces/inkscape"
   height="128"
   viewBox="0 0 128 128"
   width="128"
   version="1.1"
   id="svg31"
   sodipodi:docname="drawcaption.svg"
   inkscape:export-filename="/home/rizmut/Dokumen/Rizmut/Github/libreoffice-style-karasa-jaga/build/images_karasa_jaga/cmd/32/drawcaption.png"
   inkscape:export-xdpi="24"
   inkscape:export-ydpi="24"
   inkscape:version="0.92.3 (unknown)">
  <metadata
     id="metadata37">
    <rdf:RDF>
      <cc:Work
         rdf:about="">
        <dc:format>image/svg+xml</dc:format>
        <dc:type
           rdf:resource="http://purl.org/dc/dcmitype/StillImage" />
        <dc:title></dc:title>
      </cc:Work>
    </rdf:RDF>
  </metadata>
  <defs
     id="defs35" />
  <sodipodi:namedview
     pagecolor="#ffffff"
     bordercolor="#666666"
     borderopacity="1"
     objecttolerance="10"
     gridtolerance="10"
     guidetolerance="10"
     inkscape:pageopacity="0"
     inkscape:pageshadow="2"
     inkscape:window-width="1366"
     inkscape:window-height="706"
     id="namedview33"
     showgrid="true"
     inkscape:zoom="5.2149125"
     inkscape:cx="41.254148"
     inkscape:cy="85.356471"
     inkscape:window-x="0"
     inkscape:window-y="0"
     inkscape:window-maximized="1"
     inkscape:current-layer="svg31">
    <inkscape:grid
       type="xygrid"
       id="grid3559"
       spacingx="4"
       spacingy="4"
       empspacing="2" />
  </sodipodi:namedview>
  <linearGradient
     id="a"
     gradientTransform="matrix(0,1,-1.0760584,0,135.56824,0)"
     gradientUnits="userSpaceOnUse"
     x1="53.92849"
     x2="87.71418"
     y1="194.47232"
     y2="-39.260796">
    <stop
       offset="0"
       stop-color="#fff"
       id="stop2" />
    <stop
       offset=".42597079"
       stop-color="#fff"
       id="stop4" />
    <stop
       offset=".5892781"
       stop-color="#f1f1f1"
       id="stop6" />
    <stop
       offset=".80219781"
       stop-color="#eaeaea"
       id="stop8" />
    <stop
       offset="1"
       stop-color="#dfdfdf"
       id="stop10" />
  </linearGradient>
  <g
     transform="rotate(-90,64,64)"
     id="g17">
    <path
       style="fill:#666666"
       inkscape:connector-curvature="0"
       d="M 120.61271,64 C 120.61267,47.864918 116.10286,31.808762 108.01106,20.060547 99.919256,8.3123317 87.989582,0.87688545 75.529648,0.87695301 c -0.0035,-3.86e-6 -0.007,-3.86e-6 -0.01055,0 C 66.596301,0.89456511 57.836181,4.6874949 50.740337,11.201172 44.870051,16.589839 40.138036,23.874736 36.696935,32.164062 25.976931,28.207559 17.635291,23.656464 14.433881,17.820312 c -4.18874,-2.694351 -9.18393,2.186944 -6.07804,5.939454 4.21887,8.858538 12.49752,24.714223 23.05962,27.800781 -0.59482,4.092287 -0.95507,8.250408 -0.96888,12.425781 -10e-6,0.0046 -10e-6,0.0091 0,0.01367 5e-5,16.135082 4.509856,32.191239 12.601656,43.939452 8.091802,11.74822 20.021477,19.18366 32.481411,19.1836 12.459934,6e-5 24.389608,-7.43538 32.481412,-19.1836 C 116.10286,96.191239 120.61267,80.135082 120.61271,64 Z"
       id="path13" />
    <path
       inkscape:connector-curvature="0"
       style="fill:url(#a)"
       d="M 116.15085,64 C 116.15077,31.428023 97.964036,5.0233163 75.529648,5.0234374 59.883756,5.0543198 45.640787,18.128746 38.912138,38.636719 28.661591,37.186092 20.307211,29.098889 11.890881,21.228516 17.519741,36.398335 26.736441,43.495498 36.055959,50.361328 35.308762,54.827112 34.923644,59.404392 34.908444,64 c 8.4e-5,32.571976 18.186817,58.97668 40.621204,58.97656 C 97.964035,122.97668 116.15077,96.571975 116.15085,64 Z"
       id="path15" />
  </g>
  <g
     style="fill:#91bdff"
     transform="translate(0.132339,127.94836)"
     id="g29">
    <path
       inkscape:connector-curvature="0"
       d="m 31.867661,-100 h 57.912491 v 4.051645 H 31.867661 Z"
       id="path19"
       style="fill:#0066ff" />
    <path
       inkscape:connector-curvature="0"
       d="m 32,-88 h 68.13234 v 4.170364 H 32 Z"
       id="path21"
       style="fill:#0066ff" />
    <path
       inkscape:connector-curvature="0"
       d="m 31.867661,-76 h 57.912483 v 3.999997 H 31.867661 Z"
       id="path23"
       style="fill:#0066ff" />
    <path
       inkscape:connector-curvature="0"
       d="m 32,-64 h 68 v 4 H 32 Z"
       id="path25"
       style="fill:#0066ff" />
    <path
       inkscape:connector-curvature="0"
       d="m 32,-52 h 57.912483 v 3.999997 H 32 Z"
       id="path27"
       style="fill:#0066ff" />
  </g>
</svg>
