<?xml version="1.0" encoding="UTF-8" standalone="no"?>
<svg
   xmlns:dc="http://purl.org/dc/elements/1.1/"
   xmlns:cc="http://creativecommons.org/ns#"
   xmlns:rdf="http://www.w3.org/1999/02/22-rdf-syntax-ns#"
   xmlns:svg="http://www.w3.org/2000/svg"
   xmlns="http://www.w3.org/2000/svg"
   xmlns:sodipodi="http://sodipodi.sourceforge.net/DTD/sodipodi-0.dtd"
   xmlns:inkscape="http://www.inkscape.org/namespaces/inkscape"
   height="128"
   viewBox="0 0 128 128"
   width="128"
   version="1.1"
   id="svg8"
   sodipodi:docname="ellipsecut_unfilled.svg"
   inkscape:version="0.92.3 (unknown)"
   inkscape:export-filename="/home/rizmut/Dokumen/Rizmut/Github/libreoffice-style-karasa-jaga/build/images_karasa_jaga/cmd/32/ellipsecut_unfilled.png"
   inkscape:export-xdpi="24"
   inkscape:export-ydpi="24">
  <metadata
     id="metadata14">
    <rdf:RDF>
      <cc:Work
         rdf:about="">
        <dc:format>image/svg+xml</dc:format>
        <dc:type
           rdf:resource="http://purl.org/dc/dcmitype/StillImage" />
        <dc:title></dc:title>
      </cc:Work>
    </rdf:RDF>
  </metadata>
  <defs
     id="defs12" />
  <sodipodi:namedview
     pagecolor="#ffffff"
     bordercolor="#666666"
     borderopacity="1"
     objecttolerance="10"
     gridtolerance="10"
     guidetolerance="10"
     inkscape:pageopacity="0"
     inkscape:pageshadow="2"
     inkscape:window-width="1366"
     inkscape:window-height="706"
     id="namedview10"
     showgrid="false"
     inkscape:zoom="5.2149125"
     inkscape:cx="80.566259"
     inkscape:cy="57.463577"
     inkscape:window-x="0"
     inkscape:window-y="0"
     inkscape:window-maximized="1"
     inkscape:current-layer="svg8" />
  <path
     d="m64 21.160156c-15.417514.000035-30.765655 4.347308-41.951172 12.101563s-18.1290396 19.073481-18.1289061 30.738281c-.0001343 11.6648 6.9433891 22.984026 18.1289061 30.738281 11.185517 7.754259 26.533657 12.101529 41.951172 12.101559 15.417514-.00003 30.76566-4.3473 41.95117-12.101559 11.1223-7.710428 18.04326-18.94613 18.1211-30.541015h.008v-2.028941l-58.332872-41.008169h-1.675132v.002c-.02411-.000021-.04816-.002-.07227-.002zm0 4.585938.07227.002 55.0957 38.449219c-.15591 21.046348-24.807794 38.052017-55.16797 38.056597-30.476294.00036-55.1823003-17.126741-55.1816406-38.25391-.0006565-21.127168 24.7053486-38.254262 55.1816406-38.253906z"
     id="path4"
     clip-path="none"
     mask="none"
     fill-opacity=".796078"
     fill="#5d86c3" />
</svg>
