<svg height="128" viewBox="0 0 33.866666 33.866668" width="128" xmlns="http://www.w3.org/2000/svg" xmlns:xlink="http://www.w3.org/1999/xlink"><linearGradient id="a" gradientUnits="userSpaceOnUse" x1="15.874999" x2="16.933332" y1="292.76666" y2="268.42499"><stop offset="0" stop-color="#555"/><stop offset="1"/></linearGradient><linearGradient id="b" gradientUnits="userSpaceOnUse" x1="34.601562" x2="99.869141" y1="46.854492" y2="46.854492"><stop offset="0" stop-color="#3b3e22"/><stop offset="1" stop-color="#454545" stop-opacity="0"/></linearGradient><g transform="translate(0 -263.13332)"><text style="font-size:35.199669;font-family:sans-serif;letter-spacing:0;word-spacing:0;stroke-width:.879992;fill:url(#a)" x="3.579812" y="292.54968"><tspan fill="url(#a)" font-family="FreeSerif" font-size="37.041668" font-style="italic" stroke-width=".879992" x="3.579812" y="292.54968">E</tspan></text><path d="m41.996094 21.855469c.109837.058015.277273.078792.382812.140625 2.078068 1.074028 3.337891 3.345551 3.337891 5.742187 0 2.556851-.553874 5.677439-1.609375 9.515625a2.0929692 2.0929692 0 0 1 0 .007813l-9.50586 34.15625a99.999995 35.999999 0 0 0 9.246094.435547c.640454-2.305548 1.284969-4.637101 1.957032-7.138672a2.0929692 2.0929692 0 0 1 2.140624-1.542969c4.92827.278929 8.55749.421875 10.806641.421875h1.115235c4.422704 0 7.440317.261618 9.662109 1.726562 1.925422 1.212899 2.917077 3.396701 3.121094 5.861329a99.999995 35.999999 0 0 0 .261718-.021485l4.56836-15.583984c-1.168732 1.833486-2.358595 3.245584-3.712891 4.148437-2.771459 1.847622-7.05153 2.438726-13.53125 2.72461a2.0929692 2.0929692 0 0 1 -.08789.007812c-.684129 0-4.469102.084927-11 .271485a2.0929692 2.0929692 0 0 1 -2.074219-2.65625l9.242187-32.621094a2.0929692 2.0929692 0 0 1 .007813-.021484c.585811-1.991774 1.955411-3.698856 3.859375-4.3125 1.909394-.716372 4.403613-.833985 8.365234-.833985 11.095616 0 18.295814.529833 22.439453 2.097656 3.987152 1.508674 6.224038 5.207521 6.400391 9.728516l2.480469-12.253906z" fill="url(#b)" transform="matrix(.26458333 0 0 .26458333 0 263.13332)"/></g></svg>