<?xml version="1.0" encoding="UTF-8" standalone="no"?>
<!-- Created with Inkscape (http://www.inkscape.org/) -->

<svg
   xmlns:dc="http://purl.org/dc/elements/1.1/"
   xmlns:cc="http://creativecommons.org/ns#"
   xmlns:rdf="http://www.w3.org/1999/02/22-rdf-syntax-ns#"
   xmlns:svg="http://www.w3.org/2000/svg"
   xmlns="http://www.w3.org/2000/svg"
   xmlns:xlink="http://www.w3.org/1999/xlink"
   xmlns:sodipodi="http://sodipodi.sourceforge.net/DTD/sodipodi-0.dtd"
   xmlns:inkscape="http://www.inkscape.org/namespaces/inkscape"
   version="1.1"
   id="svg2"
   width="128"
   height="128"
   viewBox="0 0 128 128"
   sodipodi:docname="equalizewidth.svg"
   inkscape:version="0.92.3 (unknown)"
   inkscape:export-filename="/home/rizmut/Dokumen/Rizmut/Github/libreoffice-style-karasa-jaga/build/images_karasa_jaga/cmd/32/equalizewidth.png"
   inkscape:export-xdpi="24"
   inkscape:export-ydpi="24">
  <metadata
     id="metadata8">
    <rdf:RDF>
      <cc:Work
         rdf:about="">
        <dc:format>image/svg+xml</dc:format>
        <dc:type
           rdf:resource="http://purl.org/dc/dcmitype/StillImage" />
        <dc:title />
      </cc:Work>
    </rdf:RDF>
  </metadata>
  <defs
     id="defs6">
    <linearGradient
       id="linearGradient4112">
      <stop
         id="stop4114"
         offset="0"
         style="stop-color:#bbf10e;stop-opacity:1" />
      <stop
         id="stop4116"
         offset="1"
         style="stop-color:#5f9207;stop-opacity:1" />
    </linearGradient>
    <linearGradient
       id="linearGradient4105">
      <stop
         id="stop4107"
         offset="0"
         style="stop-color:#033a13;stop-opacity:1" />
      <stop
         id="stop4109"
         offset="1"
         style="stop-color:#398c37;stop-opacity:1" />
    </linearGradient>
    <linearGradient
       inkscape:collect="always"
       xlink:href="#linearGradient4373"
       id="linearGradient10248"
       gradientUnits="userSpaceOnUse"
       gradientTransform="matrix(0.17638886,0,0,0.17638871,11.288891,263.13331)"
       x1="122.70804"
       y1="2.1668341"
       x2="132"
       y2="37.94305" />
    <linearGradient
       id="linearGradient4373">
      <stop
         id="stop4375"
         style="stop-color:#717174;stop-opacity:1"
         offset="0" />
      <stop
         id="stop4377"
         style="stop-color:#9c9ca1;stop-opacity:1"
         offset="0.5" />
      <stop
         id="stop4379"
         style="stop-color:#bdbdc2;stop-opacity:1"
         offset="1" />
    </linearGradient>
    <linearGradient
       id="linearGradient2431">
      <stop
         id="stop2433"
         style="stop-color:#ffffff;stop-opacity:1"
         offset="0" />
      <stop
         id="stop2435"
         style="stop-color:#ffffff;stop-opacity:1"
         offset="0.42597079" />
      <stop
         id="stop2437"
         style="stop-color:#e5e5e5;stop-opacity:1"
         offset="0.5892781" />
      <stop
         id="stop2439"
         style="stop-color:#eaeaea;stop-opacity:1"
         offset="0.80219781" />
      <stop
         id="stop2441"
         style="stop-color:#eeeeee;stop-opacity:1"
         offset="1" />
    </linearGradient>
    <linearGradient
       id="linearGradient3310">
      <stop
         id="stop3312"
         style="stop-color:#ffffff;stop-opacity:1"
         offset="0" />
      <stop
         id="stop3314"
         style="stop-color:#ffffff;stop-opacity:0"
         offset="1" />
    </linearGradient>
    <linearGradient
       id="linearGradient7422-6">
      <stop
         style="stop-color:#b4b4b6;stop-opacity:1;"
         offset="0"
         id="stop7424-3" />
      <stop
         id="stop5367"
         offset="0.5"
         style="stop-color:#9c9ca1;stop-opacity:1;" />
      <stop
         id="stop7426-2"
         offset="1"
         style="stop-color:#cdcdd1;stop-opacity:1;" />
    </linearGradient>
    <linearGradient
       x1="399.77466"
       y1="1164.6696"
       x2="399.77466"
       y2="549.06134"
       id="linearGradient5501-5"
       xlink:href="#linearGradient4373"
       gradientUnits="userSpaceOnUse"
       gradientTransform="matrix(0.09253752,0,0,0.14870594,-6.0048599,-81.716489)" />
    <linearGradient
       x1="119.57646"
       y1="23.792561"
       x2="15.999996"
       y2="109.6508"
       id="linearGradient5503-3"
       xlink:href="#linearGradient2431"
       gradientUnits="userSpaceOnUse"
       gradientTransform="matrix(0.76189483,0,0,1.0158609,-3.0467262,-19.300523)" />
    <linearGradient
       x1="102.31124"
       y1="-5.8302126"
       x2="74.330322"
       y2="32"
       id="linearGradient5505-2"
       xlink:href="#linearGradient3310"
       gradientUnits="userSpaceOnUse"
       gradientTransform="matrix(0,-1.8256937,-2.2856842,0,113.52307,200.15701)" />
    <linearGradient
       inkscape:collect="always"
       xlink:href="#linearGradient2413"
       id="linearGradient3697"
       gradientUnits="userSpaceOnUse"
       gradientTransform="matrix(0.1295541,0,0,0.01301192,-8.40824,-111.15035)"
       x1="433.9509"
       y1="549.52295"
       x2="433.9509"
       y2="857.27325" />
    <linearGradient
       id="linearGradient2413">
      <stop
         style="stop-color:black;stop-opacity:1"
         offset="0"
         id="stop2415" />
      <stop
         style="stop-color:black;stop-opacity:0"
         offset="1"
         id="stop2417" />
    </linearGradient>
    <linearGradient
       inkscape:collect="always"
       xlink:href="#linearGradient3369"
       id="linearGradient3693"
       gradientUnits="userSpaceOnUse"
       gradientTransform="matrix(0.1295541,0,0,-0.00650596,-8.609498,79.55002)"
       x1="399.77466"
       y1="1322.7012"
       x2="399.77466"
       y2="-687.91089" />
    <linearGradient
       id="linearGradient3369">
      <stop
         id="stop3372"
         offset="0"
         style="stop-color:#ffffff;stop-opacity:1;" />
      <stop
         style="stop-color:#ffffff;stop-opacity:1;"
         offset="0.42597079"
         id="stop3374" />
      <stop
         style="stop-color:#f1f1f1;stop-opacity:1;"
         offset="0.5892781"
         id="stop3376" />
      <stop
         id="stop3378"
         offset="0.80219781"
         style="stop-color:#eaeaea;stop-opacity:1;" />
      <stop
         id="stop3384"
         offset="1"
         style="stop-color:#dfdfdf;stop-opacity:1;" />
    </linearGradient>
    <linearGradient
       inkscape:collect="always"
       xlink:href="#XMLID_4_"
       id="linearGradient2519"
       gradientUnits="userSpaceOnUse"
       gradientTransform="matrix(0.1295541,0,0,0.06505961,-8.40824,36.248233)"
       x1="435.40298"
       y1="733.96948"
       x2="466.27811"
       y2="1225.826" />
    <linearGradient
       id="linearGradient7422">
      <stop
         style="stop-color:#b4b4b6;stop-opacity:1;"
         offset="0"
         id="stop7424" />
      <stop
         id="stop5348"
         offset="0.5"
         style="stop-color:#9696a7;stop-opacity:1;" />
      <stop
         id="stop7426"
         offset="1"
         style="stop-color:#eaecec;stop-opacity:1" />
    </linearGradient>
    <linearGradient
       id="linearGradient7422-6-6">
      <stop
         style="stop-color:#d3a55c;stop-opacity:1"
         offset="0"
         id="stop7424-2" />
      <stop
         id="stop5348-9"
         offset="0.5"
         style="stop-color:#d5a962;stop-opacity:1" />
      <stop
         id="stop7426-1"
         offset="1"
         style="stop-color:#debc85;stop-opacity:1" />
    </linearGradient>
    <linearGradient
       id="linearGradient7422-6-3">
      <stop
         style="stop-color:#debc85;stop-opacity:1"
         offset="0"
         id="stop7424-2-5" />
      <stop
         id="stop5348-9-6"
         offset="0.5"
         style="stop-color:#debc85;stop-opacity:1" />
      <stop
         id="stop7426-1-2"
         offset="1"
         style="stop-color:#debc85;stop-opacity:1" />
    </linearGradient>
    <linearGradient
       inkscape:collect="always"
       xlink:href="#linearGradient2413"
       id="linearGradient2542"
       gradientUnits="userSpaceOnUse"
       gradientTransform="matrix(0.1295541,0,0,0.01301192,-8.40824,60.84965)"
       x1="433.9509"
       y1="549.52295"
       x2="433.9509"
       y2="857.27325" />
    <linearGradient
       y2="0"
       x2="28"
       y1="57.5"
       x1="28"
       gradientUnits="userSpaceOnUse"
       id="XMLID_2_">
      <stop
         id="stop12"
         style="stop-color:#FFEA00"
         offset="0" />
      <stop
         id="stop14"
         style="stop-color:#FFCC00"
         offset="1" />
    </linearGradient>
    <radialGradient
       id="XMLID_4_"
       cx="48"
       cy="-0.2148"
       r="55.147999"
       gradientTransform="matrix(0.9792,0,0,0.9725,133.0002,20.8762)"
       gradientUnits="userSpaceOnUse">
      <stop
         offset="0"
         style="stop-color:#fff718;stop-opacity:1;"
         id="stop3082" />
      <stop
         offset="1"
         style="stop-color:#e77100;stop-opacity:1;"
         id="stop3090" />
    </radialGradient>
    <linearGradient
       id="linearGradient3875"
       inkscape:collect="always">
      <stop
         id="stop3877"
         offset="0"
         style="stop-color:#753919;stop-opacity:1;" />
      <stop
         id="stop3879"
         offset="1"
         style="stop-color:#753919;stop-opacity:0;" />
    </linearGradient>
    <linearGradient
       id="linearGradient4056"
       inkscape:collect="always">
      <stop
         id="stop4058"
         offset="0"
         style="stop-color:#31170a;stop-opacity:1" />
      <stop
         id="stop4060"
         offset="1"
         style="stop-color:#542912;stop-opacity:0;" />
    </linearGradient>
    <linearGradient
       id="linearGradient3711"
       gradientUnits="userSpaceOnUse"
       x1="-84.002403"
       y1="-383.9971"
       x2="-23.516129"
       y2="-383.9975"
       gradientTransform="rotate(90,-90.0007,50.0022)">
      <stop
         offset="0"
         style="stop-color:white;stop-opacity:1;"
         id="stop3713" />
      <stop
         offset="1"
         style="stop-color:white;stop-opacity:0"
         id="stop3715" />
    </linearGradient>
    <radialGradient
       inkscape:collect="always"
       xlink:href="#XMLID_4_"
       id="radialGradient1022"
       cx="60"
       cy="59.333332"
       fx="60"
       fy="59.333332"
       r="48"
       gradientTransform="matrix(1,0,0,0.375,0,53.75)"
       gradientUnits="userSpaceOnUse" />
    <linearGradient
       inkscape:collect="always"
       xlink:href="#linearGradient3875"
       id="linearGradient1028"
       x1="84"
       y1="52"
       x2="84"
       y2="92"
       gradientUnits="userSpaceOnUse" />
    <radialGradient
       inkscape:collect="always"
       xlink:href="#linearGradient4056"
       id="radialGradient1034"
       cx="64"
       cy="38"
       fx="64"
       fy="38"
       r="48"
       gradientTransform="matrix(1,0,0,0.375,0,53.75)"
       gradientUnits="userSpaceOnUse" />
    <linearGradient
       inkscape:collect="always"
       xlink:href="#linearGradient3711"
       id="linearGradient1148-2"
       x1="69.817207"
       y1="61.226936"
       x2="69.817207"
       y2="97.608772"
       gradientUnits="userSpaceOnUse"
       gradientTransform="matrix(1.0083477,0,0,1,-13.600265,-11.636725)" />
    <linearGradient
       inkscape:collect="always"
       xlink:href="#linearGradient4373"
       id="linearGradient1157"
       gradientUnits="userSpaceOnUse"
       gradientTransform="matrix(0.09253752,0,0,0.14870594,-6.0048599,-81.716489)"
       x1="399.77466"
       y1="1164.6696"
       x2="399.77466"
       y2="549.06134" />
    <linearGradient
       inkscape:collect="always"
       xlink:href="#linearGradient2431"
       id="linearGradient1159"
       gradientUnits="userSpaceOnUse"
       gradientTransform="matrix(0.76189483,0,0,1.0158609,-3.0467262,-19.300523)"
       x1="119.57646"
       y1="23.792561"
       x2="15.999996"
       y2="109.6508" />
    <linearGradient
       inkscape:collect="always"
       xlink:href="#linearGradient3310"
       id="linearGradient1161"
       gradientUnits="userSpaceOnUse"
       gradientTransform="matrix(0,-1.8256937,-2.2856842,0,113.52307,200.15701)"
       x1="102.31124"
       y1="-5.8302126"
       x2="74.330322"
       y2="32" />
    <linearGradient
       inkscape:collect="always"
       xlink:href="#XMLID_4_"
       id="linearGradient1163"
       gradientUnits="userSpaceOnUse"
       gradientTransform="matrix(0.1295541,0,0,0.06505961,-8.40824,36.248233)"
       x1="435.40298"
       y1="733.96948"
       x2="466.27811"
       y2="1225.826" />
    <linearGradient
       inkscape:collect="always"
       xlink:href="#linearGradient3369"
       id="linearGradient1165"
       gradientUnits="userSpaceOnUse"
       gradientTransform="matrix(0.1295541,0,0,-0.00650596,-8.609498,79.55002)"
       x1="399.77466"
       y1="1322.7012"
       x2="399.77466"
       y2="-687.91089" />
    <linearGradient
       inkscape:collect="always"
       xlink:href="#linearGradient3711"
       id="linearGradient1167"
       gradientUnits="userSpaceOnUse"
       gradientTransform="matrix(1.0083477,0,0,1,-13.600265,-11.636725)"
       x1="69.817207"
       y1="61.226936"
       x2="69.817207"
       y2="97.608772" />
    <radialGradient
       inkscape:collect="always"
       xlink:href="#XMLID_4_"
       id="radialGradient1169"
       gradientUnits="userSpaceOnUse"
       gradientTransform="matrix(1,0,0,0.375,0,53.75)"
       cx="60"
       cy="59.333332"
       fx="60"
       fy="59.333332"
       r="48" />
    <linearGradient
       inkscape:collect="always"
       xlink:href="#linearGradient2413"
       id="linearGradient1171"
       gradientUnits="userSpaceOnUse"
       gradientTransform="matrix(0.1295541,0,0,0.01301192,-8.40824,60.84965)"
       x1="433.9509"
       y1="549.52295"
       x2="433.9509"
       y2="857.27325" />
    <linearGradient
       inkscape:collect="always"
       xlink:href="#linearGradient3875"
       id="linearGradient1173"
       gradientUnits="userSpaceOnUse"
       x1="84"
       y1="52"
       x2="84"
       y2="92" />
    <radialGradient
       inkscape:collect="always"
       xlink:href="#linearGradient4056"
       id="radialGradient1175"
       gradientUnits="userSpaceOnUse"
       gradientTransform="matrix(1,0,0,0.375,0,53.75)"
       cx="64"
       cy="38"
       fx="64"
       fy="38"
       r="48" />
    <linearGradient
       inkscape:collect="always"
       xlink:href="#linearGradient2413"
       id="linearGradient1177"
       gradientUnits="userSpaceOnUse"
       gradientTransform="matrix(0.1295541,0,0,0.01301192,-8.40824,-111.15035)"
       x1="433.9509"
       y1="549.52295"
       x2="433.9509"
       y2="857.27325" />
  </defs>
  <sodipodi:namedview
     pagecolor="#ffffff"
     bordercolor="#666666"
     borderopacity="1"
     objecttolerance="10"
     gridtolerance="10"
     guidetolerance="10"
     inkscape:pageopacity="0"
     inkscape:pageshadow="2"
     inkscape:window-width="1366"
     inkscape:window-height="707"
     id="namedview4"
     showgrid="true"
     inkscape:snap-page="true"
     inkscape:zoom="2.4444903"
     inkscape:cx="137.69885"
     inkscape:cy="56.260681"
     inkscape:window-x="0"
     inkscape:window-y="0"
     inkscape:window-maximized="1"
     inkscape:current-layer="g1015"
     inkscape:snap-global="true">
    <inkscape:grid
       type="xygrid"
       id="grid977"
       spacingx="4"
       spacingy="4"
       empspacing="1" />
  </sodipodi:namedview>
  <g
     id="g1015">
    <g
       transform="translate(32,-16)"
       id="g1155">
      <g
         transform="matrix(0.74999785,0,0,0.74999785,15.999376,25.269893)"
         id="g1119">
        <rect
           width="117.33367"
           height="96.000275"
           rx="3.628262"
           ry="4.219727"
           x="-1.6931961"
           y="-5.3325162"
           transform="matrix(0,1,1,0,0,0)"
           id="rect1113"
           style="opacity:0.75;fill:url(#linearGradient1157);fill-opacity:1;fill-rule:nonzero;stroke:none;stroke-width:18.2854805;stroke-linecap:round;stroke-linejoin:round;stroke-miterlimit:4;stroke-dasharray:none;stroke-dashoffset:4;stroke-opacity:1" />
        <rect
           width="106.66697"
           height="85.33358"
           rx="1.6879668"
           ry="2.0317206"
           x="3.6401525"
           y="0.00083250634"
           transform="matrix(0,1,1,0,0,0)"
           id="rect1115"
           style="fill:url(#linearGradient1159);fill-opacity:1;fill-rule:evenodd;stroke:none;stroke-width:73.141922;stroke-linecap:round;stroke-linejoin:round;stroke-miterlimit:4;stroke-dasharray:none;stroke-opacity:1" />
        <path
           sodipodi:nodetypes="ccccc"
           d="M 85.334421,30.306916 C 63.784753,49.811947 22.9514,66.916386 -5.3325039,78.307052 V 28.61388 C 21.745955,25.830647 63.732822,22.284089 85.334421,10.306916 Z"
           id="path1117"
           style="fill:url(#linearGradient1161);fill-opacity:1;fill-rule:evenodd;stroke:none;stroke-width:9.14274025px;stroke-linecap:butt;stroke-linejoin:miter;stroke-opacity:1"
           inkscape:connector-curvature="0" />
      </g>
      <g
         id="g1153"
         transform="translate(-12,-8)">
        <rect
           rx="4"
           ry="4"
           inkscape:r_cy="true"
           inkscape:r_cx="true"
           y="72"
           x="16"
           height="32"
           width="88"
           id="rect1121"
           style="opacity:0.85;fill:url(#linearGradient1163);fill-opacity:1;fill-rule:nonzero;stroke:none"
           inkscape:export-filename="/home/pinheiro/Desktop/mock2.png"
           inkscape:export-xdpi="90"
           inkscape:export-ydpi="90" />
        <path
           sodipodi:nodetypes="ccccccc"
           id="path1123"
           d="m 20,71.96875 c -2.216,0 -4,1.784 -4,4 V 76 l 92,0.03125 V 76 c 0,-2.216 -1.784,-4 -4,-4 z"
           style="fill:url(#linearGradient1165);fill-opacity:1;fill-rule:nonzero;stroke:none"
           inkscape:connector-curvature="0" />
        <rect
           style="opacity:1;fill:#000000;fill-opacity:0.2857143;stroke:none"
           id="rect1125"
           width="4"
           height="12"
           x="104"
           y="72" />
        <path
           inkscape:connector-curvature="0"
           id="path1127"
           transform="translate(12,8)"
           d="M 8,64 C 5.784,64 4,65.784 4,68 V 78.380859 A 67.640373,21.037075 0 0 0 39.041016,81.455078 67.640373,21.037075 0 0 0 92,73.484375 V 68 c 0,-2.216 -1.784,-4 -4,-4 z"
           style="fill:url(#linearGradient1167);fill-opacity:1;stroke:none;stroke-width:1.00416517" />
        <path
           sodipodi:nodetypes="ccccccccccccccccc"
           id="path1129"
           d="m 16,68 c -2.216,0 -4,1.784 -4,4 v 28 c 0,2.216 1.784,4 4,4 h 4 c -2.216,0 -4,-1.784 -4,-4 V 76 c 0,-2.216 1.784,-4 4,-4 h 80 c 2.216,0 4,1.784 4,4 v 24 c 0,2.216 -1.784,4 -4,4 h 4 c 2.216,0 4,-1.784 4,-4 V 72 c 0,-2.216 -1.784,-4 -4,-4 z"
           style="opacity:0.87128709;fill:url(#radialGradient1169);fill-opacity:1;stroke:none"
           inkscape:connector-curvature="0" />
        <rect
           inkscape:export-ydpi="90"
           inkscape:export-xdpi="90"
           inkscape:export-filename="/home/pinheiro/Desktop/mock2.png"
           style="opacity:0.70297032;fill:url(#linearGradient1171);fill-opacity:1;fill-rule:nonzero;stroke:none"
           id="rect1131"
           width="96"
           height="8"
           x="12"
           y="68"
           inkscape:r_cx="true"
           inkscape:r_cy="true"
           ry="3.4696662"
           rx="3.9999964" />
        <path
           inkscape:connector-curvature="0"
           style="opacity:0.87128709;fill:url(#linearGradient1173);fill-opacity:1;stroke:none"
           d="m 16,68 c -2.216,0 -4,1.784 -4,4 v 28 c 0,2.216 1.784,4 4,4 h 4 c -2.216,0 -4,-1.784 -4,-4 V 76 c 0,-2.216 1.784,-4 4,-4 h 80 c 2.216,0 4,1.784 4,4 v 24 c 0,2.216 -1.784,4 -4,4 h 4 c 2.216,0 4,-1.784 4,-4 V 72 c 0,-2.216 -1.784,-4 -4,-4 z"
           id="path1133"
           sodipodi:nodetypes="ccccccccccccccccc" />
        <path
           sodipodi:nodetypes="ccccccccccccccccc"
           id="path1135"
           d="m 16,68 c -2.216,0 -4,1.784 -4,4 v 28 c 0,2.216 1.784,4 4,4 h 4 c -2.216,0 -4,-1.784 -4,-4 V 76 c 0,-2.216 1.784,-4 4,-4 h 80 c 2.216,0 4,1.784 4,4 v 24 c 0,2.216 -1.784,4 -4,4 h 4 c 2.216,0 4,-1.784 4,-4 V 72 c 0,-2.216 -1.784,-4 -4,-4 z"
           style="opacity:0.87128709;fill:url(#radialGradient1175);fill-opacity:1;stroke:none"
           inkscape:connector-curvature="0" />
        <rect
           y="72"
           x="20"
           height="16"
           width="4"
           id="rect1137"
           style="opacity:1;fill:#ce6d11;fill-opacity:1;stroke:none" />
        <rect
           style="opacity:1;fill:#ce6d11;fill-opacity:1;stroke:none"
           id="rect1139"
           width="4"
           height="12"
           x="32"
           y="72" />
        <rect
           y="72"
           x="44"
           height="12"
           width="4"
           id="rect1141"
           style="opacity:1;fill:#ce6d11;fill-opacity:1;stroke:none" />
        <rect
           style="opacity:1;fill:#ce6d11;fill-opacity:1;stroke:none"
           id="rect1143"
           width="4"
           height="16"
           x="56"
           y="72" />
        <rect
           y="72"
           x="68"
           height="12"
           width="4"
           id="rect1145"
           style="opacity:1;fill:#ce6d11;fill-opacity:1;stroke:none" />
        <rect
           style="opacity:1;fill:#ce6d11;fill-opacity:1;stroke:none"
           id="rect1147"
           width="4"
           height="12"
           x="80"
           y="72" />
        <rect
           y="72"
           x="92"
           height="16"
           width="4"
           id="rect1149"
           style="opacity:1;fill:#ce6d11;fill-opacity:1;stroke:none" />
        <rect
           rx="3.9999964"
           ry="3.4696662"
           inkscape:r_cy="true"
           inkscape:r_cx="true"
           y="-104"
           x="12"
           height="8"
           width="96"
           id="rect1151"
           style="opacity:0.70297032;fill:url(#linearGradient1177);fill-opacity:1;fill-rule:nonzero;stroke:none"
           inkscape:export-filename="/home/pinheiro/Desktop/mock2.png"
           inkscape:export-xdpi="90"
           inkscape:export-ydpi="90"
           transform="scale(1,-1)" />
      </g>
    </g>
    <g
       id="g1661"
       transform="translate(-3.7796441e-7,8.0000032)">
      <g
         id="g32319"
         transform="matrix(0.74999785,0,0,0.74999785,15.999376,25.269893)">
        <rect
           style="opacity:0.75;fill:url(#linearGradient5501-5);fill-opacity:1;fill-rule:nonzero;stroke:none;stroke-width:18.2854805;stroke-linecap:round;stroke-linejoin:round;stroke-miterlimit:4;stroke-dasharray:none;stroke-dashoffset:4;stroke-opacity:1"
           id="rect5489"
           transform="matrix(0,1,1,0,0,0)"
           y="-5.3325162"
           x="-1.6931961"
           ry="4.219727"
           rx="3.628262"
           height="96.000275"
           width="117.33367" />
        <rect
           style="fill:url(#linearGradient5503-3);fill-opacity:1;fill-rule:evenodd;stroke:none;stroke-width:73.141922;stroke-linecap:round;stroke-linejoin:round;stroke-miterlimit:4;stroke-dasharray:none;stroke-opacity:1"
           id="rect5491"
           transform="matrix(0,1,1,0,0,0)"
           y="0.00083250634"
           x="3.6401525"
           ry="2.0317206"
           rx="1.6879668"
           height="85.33358"
           width="106.66697" />
        <path
           inkscape:connector-curvature="0"
           style="fill:url(#linearGradient5505-2);fill-opacity:1;fill-rule:evenodd;stroke:none;stroke-width:9.14274025px;stroke-linecap:butt;stroke-linejoin:miter;stroke-opacity:1"
           id="path5493"
           d="M 85.334421,30.306916 C 63.784753,49.811947 22.9514,66.916386 -5.3325039,78.307052 V 28.61388 C 21.745955,25.830647 63.732822,22.284089 85.334421,10.306916 Z"
           sodipodi:nodetypes="ccccc" />
      </g>
      <g
         transform="translate(-12,-8)"
         id="g931">
        <rect
           inkscape:export-ydpi="90"
           inkscape:export-xdpi="90"
           inkscape:export-filename="/home/pinheiro/Desktop/mock2.png"
           style="opacity:0.85;fill:url(#linearGradient2519);fill-opacity:1;fill-rule:nonzero;stroke:none"
           id="rect3294"
           width="88"
           height="32"
           x="16"
           y="72"
           inkscape:r_cx="true"
           inkscape:r_cy="true"
           ry="4"
           rx="4" />
        <path
           inkscape:connector-curvature="0"
           style="fill:url(#linearGradient3693);fill-opacity:1;fill-rule:nonzero;stroke:none"
           d="m 20,71.96875 c -2.216,0 -4,1.784 -4,4 V 76 l 92,0.03125 V 76 c 0,-2.216 -1.784,-4 -4,-4 z"
           id="rect3691"
           sodipodi:nodetypes="ccccccc" />
        <rect
           y="72"
           x="104"
           height="12"
           width="4"
           id="rect3629"
           style="opacity:1;fill:#000000;fill-opacity:0.2857143;stroke:none" />
        <path
           style="fill:url(#linearGradient1148-2);fill-opacity:1;stroke:none;stroke-width:1.00416517"
           d="M 8,64 C 5.784,64 4,65.784 4,68 V 78.380859 A 67.640373,21.037075 0 0 0 39.041016,81.455078 67.640373,21.037075 0 0 0 92,73.484375 V 68 c 0,-2.216 -1.784,-4 -4,-4 z"
           transform="translate(12,8)"
           id="path1132-5"
           inkscape:connector-curvature="0" />
        <path
           inkscape:connector-curvature="0"
           style="opacity:0.87128709;fill:url(#radialGradient1022);fill-opacity:1;stroke:none"
           d="m 16,68 c -2.216,0 -4,1.784 -4,4 v 28 c 0,2.216 1.784,4 4,4 h 4 c -2.216,0 -4,-1.784 -4,-4 V 76 c 0,-2.216 1.784,-4 4,-4 h 80 c 2.216,0 4,1.784 4,4 v 24 c 0,2.216 -1.784,4 -4,4 h 4 c 2.216,0 4,-1.784 4,-4 V 72 c 0,-2.216 -1.784,-4 -4,-4 z"
           id="rect3657"
           sodipodi:nodetypes="ccccccccccccccccc" />
        <rect
           rx="3.9999964"
           ry="3.4696662"
           inkscape:r_cy="true"
           inkscape:r_cx="true"
           y="68"
           x="12"
           height="8"
           width="96"
           id="rect2540"
           style="opacity:0.70297032;fill:url(#linearGradient2542);fill-opacity:1;fill-rule:nonzero;stroke:none"
           inkscape:export-filename="/home/pinheiro/Desktop/mock2.png"
           inkscape:export-xdpi="90"
           inkscape:export-ydpi="90" />
        <path
           sodipodi:nodetypes="ccccccccccccccccc"
           id="path1024"
           d="m 16,68 c -2.216,0 -4,1.784 -4,4 v 28 c 0,2.216 1.784,4 4,4 h 4 c -2.216,0 -4,-1.784 -4,-4 V 76 c 0,-2.216 1.784,-4 4,-4 h 80 c 2.216,0 4,1.784 4,4 v 24 c 0,2.216 -1.784,4 -4,4 h 4 c 2.216,0 4,-1.784 4,-4 V 72 c 0,-2.216 -1.784,-4 -4,-4 z"
           style="opacity:0.87128709;fill:url(#linearGradient1028);fill-opacity:1;stroke:none"
           inkscape:connector-curvature="0" />
        <path
           inkscape:connector-curvature="0"
           style="opacity:0.87128709;fill:url(#radialGradient1034);fill-opacity:1;stroke:none"
           d="m 16,68 c -2.216,0 -4,1.784 -4,4 v 28 c 0,2.216 1.784,4 4,4 h 4 c -2.216,0 -4,-1.784 -4,-4 V 76 c 0,-2.216 1.784,-4 4,-4 h 80 c 2.216,0 4,1.784 4,4 v 24 c 0,2.216 -1.784,4 -4,4 h 4 c 2.216,0 4,-1.784 4,-4 V 72 c 0,-2.216 -1.784,-4 -4,-4 z"
           id="path1030"
           sodipodi:nodetypes="ccccccccccccccccc" />
        <rect
           style="opacity:1;fill:#ce6d11;fill-opacity:1;stroke:none"
           id="rect3615"
           width="4"
           height="16"
           x="20"
           y="72" />
        <rect
           y="72"
           x="32"
           height="12"
           width="4"
           id="rect3617"
           style="opacity:1;fill:#ce6d11;fill-opacity:1;stroke:none" />
        <rect
           style="opacity:1;fill:#ce6d11;fill-opacity:1;stroke:none"
           id="rect3619"
           width="4"
           height="12"
           x="44"
           y="72" />
        <rect
           y="72"
           x="56"
           height="16"
           width="4"
           id="rect3621"
           style="opacity:1;fill:#ce6d11;fill-opacity:1;stroke:none" />
        <rect
           style="opacity:1;fill:#ce6d11;fill-opacity:1;stroke:none"
           id="rect3623"
           width="4"
           height="12"
           x="68"
           y="72" />
        <rect
           y="72"
           x="80"
           height="12"
           width="4"
           id="rect3625"
           style="opacity:1;fill:#ce6d11;fill-opacity:1;stroke:none" />
        <rect
           style="opacity:1;fill:#ce6d11;fill-opacity:1;stroke:none"
           id="rect3627"
           width="4"
           height="16"
           x="92"
           y="72" />
        <rect
           transform="scale(1,-1)"
           inkscape:export-ydpi="90"
           inkscape:export-xdpi="90"
           inkscape:export-filename="/home/pinheiro/Desktop/mock2.png"
           style="opacity:0.70297032;fill:url(#linearGradient3697);fill-opacity:1;fill-rule:nonzero;stroke:none"
           id="rect3695"
           width="96"
           height="8"
           x="12"
           y="-104"
           inkscape:r_cx="true"
           inkscape:r_cy="true"
           ry="3.4696662"
           rx="3.9999964" />
      </g>
    </g>
  </g>
</svg>
