<?xml version="1.0" encoding="UTF-8" standalone="no"?>
<!-- Created with Inkscape (http://www.inkscape.org/) -->

<svg
   xmlns:dc="http://purl.org/dc/elements/1.1/"
   xmlns:cc="http://creativecommons.org/ns#"
   xmlns:rdf="http://www.w3.org/1999/02/22-rdf-syntax-ns#"
   xmlns:svg="http://www.w3.org/2000/svg"
   xmlns="http://www.w3.org/2000/svg"
   xmlns:xlink="http://www.w3.org/1999/xlink"
   xmlns:sodipodi="http://sodipodi.sourceforge.net/DTD/sodipodi-0.dtd"
   xmlns:inkscape="http://www.inkscape.org/namespaces/inkscape"
   width="128"
   height="128"
   viewBox="0 0 33.866666 33.866668"
   version="1.1"
   id="svg8"
   inkscape:version="0.92.3 (unknown)"
   sodipodi:docname="formatpaintbrush.svg"
   inkscape:export-filename="/home/rizmut/Dokumen/Rizmut/Github/libreoffice-style-karasa-jaga/build/images_karasa_jaga/cmd/32/formatpaintbrush.png"
   inkscape:export-xdpi="24"
   inkscape:export-ydpi="24">
  <defs
     id="defs2">
    <linearGradient
       inkscape:collect="always"
       id="linearGradient892">
      <stop
         style="stop-color:#333333;stop-opacity:0.97794116"
         offset="0"
         id="stop888" />
      <stop
         style="stop-color:#050505;stop-opacity:1"
         offset="1"
         id="stop890" />
    </linearGradient>
    <linearGradient
       inkscape:collect="always"
       id="linearGradient1566">
      <stop
         style="stop-color:#b79d6c;stop-opacity:1"
         offset="0"
         id="stop1562" />
      <stop
         style="stop-color:#8e7155;stop-opacity:1"
         offset="1"
         id="stop1564" />
    </linearGradient>
    <clipPath
       clipPathUnits="userSpaceOnUse"
       id="clipPath1403">
      <circle
         style="opacity:0.68000034;fill:#ffffff;fill-opacity:1;stroke:none;stroke-width:3.96875;stroke-linecap:round;stroke-linejoin:round;stroke-miterlimit:4;stroke-dasharray:none;stroke-dashoffset:0;stroke-opacity:1"
         id="circle1405"
         cx="-73.516373"
         cy="148.73883"
         r="3.3072915" />
    </clipPath>
    <clipPath
       clipPathUnits="userSpaceOnUse"
       id="clipPath1409">
      <circle
         style="opacity:0.68000034;fill:#ffffff;fill-opacity:1;stroke:none;stroke-width:3.96875;stroke-linecap:round;stroke-linejoin:round;stroke-miterlimit:4;stroke-dasharray:none;stroke-dashoffset:0;stroke-opacity:1"
         id="circle1411"
         cx="-28.915178"
         cy="291.70831"
         r="5.1026788" />
    </clipPath>
    <clipPath
       clipPathUnits="userSpaceOnUse"
       id="clipPath1426">
      <circle
         style="opacity:0.68000034;fill:#ffffff;fill-opacity:1;stroke:none;stroke-width:3.96875;stroke-linecap:round;stroke-linejoin:round;stroke-miterlimit:4;stroke-dasharray:none;stroke-dashoffset:0;stroke-opacity:1"
         id="circle1428"
         cx="-52.39695"
         cy="267.84857"
         r="3.9215028" />
    </clipPath>
    <clipPath
       clipPathUnits="userSpaceOnUse"
       id="clipPath1443">
      <circle
         style="opacity:0.68000034;fill:#ffffff;fill-opacity:1;stroke:none;stroke-width:3.96875;stroke-linecap:round;stroke-linejoin:round;stroke-miterlimit:4;stroke-dasharray:none;stroke-dashoffset:0;stroke-opacity:1"
         id="circle1445"
         cx="-91.47023"
         cy="270.73065"
         r="9.0714283" />
    </clipPath>
    <linearGradient
       inkscape:collect="always"
       xlink:href="#linearGradient12192"
       id="linearGradient12198"
       x1="17.921068"
       y1="-43.164703"
       x2="73.562057"
       y2="-33.862148"
       gradientUnits="userSpaceOnUse"
       gradientTransform="matrix(0.22816756,0.16942979,-0.16942979,0.22816756,-0.84124884,280.42732)" />
    <linearGradient
       inkscape:collect="always"
       id="linearGradient12192">
      <stop
         style="stop-color:#bdbdbe;stop-opacity:1;"
         offset="0"
         id="stop12194" />
      <stop
         id="stop12200"
         offset="0.06657774"
         style="stop-color:#bdbdbe;stop-opacity:1" />
      <stop
         style="stop-color:#f3f3f3;stop-opacity:0.99607843"
         offset="0.21500437"
         id="stop12202" />
      <stop
         id="stop12204"
         offset="0.38446414"
         style="stop-color:#a7a7a9;stop-opacity:1" />
      <stop
         style="stop-color:#8e8e91;stop-opacity:1"
         offset="0.58162361"
         id="stop12206" />
      <stop
         id="stop12208"
         offset="0.80252987"
         style="stop-color:#dcdcdc;stop-opacity:0.99215686" />
      <stop
         style="stop-color:#a7a7aa;stop-opacity:0.96862745"
         offset="1"
         id="stop12196" />
    </linearGradient>
    <filter
       inkscape:collect="always"
       style="color-interpolation-filters:sRGB"
       id="filter1524"
       x="-0.036155343"
       width="1.0723107"
       y="-0.071386571"
       height="1.1427731">
      <feGaussianBlur
         inkscape:collect="always"
         stdDeviation="0.25836763"
         id="feGaussianBlur1526" />
    </filter>
    <filter
       inkscape:collect="always"
       style="color-interpolation-filters:sRGB"
       id="filter1532"
       x="-0.011104667"
       width="1.0222093"
       y="-0.01305237"
       height="1.0261047">
      <feGaussianBlur
         inkscape:collect="always"
         stdDeviation="0.080745593"
         id="feGaussianBlur1534" />
    </filter>
    <linearGradient
       inkscape:collect="always"
       xlink:href="#linearGradient1566"
       id="linearGradient1568"
       x1="20.088888"
       y1="273.06342"
       x2="25.738007"
       y2="279.95581"
       gradientUnits="userSpaceOnUse" />
    <filter
       inkscape:collect="always"
       style="color-interpolation-filters:sRGB"
       id="filter1607"
       x="-0.054302512"
       width="1.108605"
       y="-0.026925002"
       height="1.05385">
      <feGaussianBlur
         inkscape:collect="always"
         stdDeviation="0.13545845"
         id="feGaussianBlur1609" />
    </filter>
    <filter
       inkscape:collect="always"
       style="color-interpolation-filters:sRGB"
       id="filter1652"
       x="-0.015323309"
       width="1.0306466"
       y="-0.015886867"
       height="1.0317737">
      <feGaussianBlur
         inkscape:collect="always"
         stdDeviation="0.70863818"
         id="feGaussianBlur1654" />
    </filter>
    <filter
       inkscape:collect="always"
       style="color-interpolation-filters:sRGB"
       id="filter1678"
       x="-0.038897631"
       width="1.0777953"
       y="-0.040328201"
       height="1.0806564">
      <feGaussianBlur
         inkscape:collect="always"
         stdDeviation="1.7988508"
         id="feGaussianBlur1680" />
    </filter>
    <radialGradient
       inkscape:collect="always"
       xlink:href="#linearGradient892"
       id="radialGradient894"
       cx="9.6305676"
       cy="284.93066"
       fx="9.6305676"
       fy="284.93066"
       r="9.4021579"
       gradientTransform="matrix(1.4173665,-0.0107017,0.0075502,0.9999715,-6.5365392,0.12033365)"
       gradientUnits="userSpaceOnUse" />
    <linearGradient
       id="linearGradient3196">
      <stop
         style="stop-color:#bea57f;stop-opacity:1;"
         offset="0"
         id="stop3198" />
      <stop
         id="stop3241"
         offset="0.5"
         style="stop-color:#a6865c;stop-opacity:1" />
      <stop
         style="stop-color:#d8ac6e;stop-opacity:1"
         offset="1"
         id="stop3200" />
    </linearGradient>
  </defs>
  <sodipodi:namedview
     id="base"
     pagecolor="#ffffff"
     bordercolor="#666666"
     borderopacity="1.0"
     inkscape:pageopacity="0.0"
     inkscape:pageshadow="2"
     inkscape:zoom="0.65738834"
     inkscape:cx="211.37274"
     inkscape:cy="142.00486"
     inkscape:document-units="mm"
     inkscape:current-layer="layer1"
     showgrid="false"
     units="px"
     inkscape:window-width="1366"
     inkscape:window-height="706"
     inkscape:window-x="0"
     inkscape:window-y="0"
     inkscape:window-maximized="1"
     inkscape:snap-global="true" />
  <metadata
     id="metadata5">
    <rdf:RDF>
      <cc:Work
         rdf:about="">
        <dc:format>image/svg+xml</dc:format>
        <dc:type
           rdf:resource="http://purl.org/dc/dcmitype/StillImage" />
        <dc:title />
      </cc:Work>
    </rdf:RDF>
  </metadata>
  <g
     inkscape:label="Layer 1"
     inkscape:groupmode="layer"
     id="layer1"
     transform="translate(0,-263.13332)">
    <g
       id="g912">
      <path
         sodipodi:nodetypes="sccccccccccccccccccccccccs"
         inkscape:connector-curvature="0"
         style="opacity:0.56999984;fill:#000000;fill-opacity:1;fill-rule:evenodd;stroke:none;stroke-width:0.99999994px;stroke-linecap:butt;stroke-linejoin:miter;stroke-opacity:1;filter:url(#filter1678)"
         d="m 100.77344,14.990234 c -3.321509,0.06823 -6.886159,1.988607 -10.820315,6.345704 -4.634476,3.842493 -8.131683,9.294432 -14.238281,10.236328 -13.626429,-0.681298 -17.370025,-4.190803 -29.261719,3.070312 l 0.04492,0.04297 L 30.515625,48.214844 30.552734,48.25 2.1425781,68 l -0.4648437,3.818359 2.359375,2.472657 1.0136718,2.876953 2.7617188,0.726562 2.923828,3.542969 2.253906,5.289062 3.597657,3.003907 2.789062,3.8125 20.978516,21.294921 7.891187,9.46974 c 1.785717,-2.50001 26.776782,-31.678724 26.776782,-31.678724 l -0.09375,-0.09375 14.121093,-16.460937 c 8.351569,-12.643616 7.610217,-14.085354 6.558594,-23.197266 0,-8.758375 1.844896,-6.764651 8.882815,-12.878906 5.34747,-3.819619 7.82102,-7.970895 7.8164,-12.054688 0.82418,-2.28154 0.28133,-4.827252 -2.17187,-8.189453 -2.96365,-3.049833 -6.04178,-4.831902 -9.36328,-4.763672 z"
         transform="matrix(0.26458333,0,0,0.26458333,0,263.13332)"
         id="path1656" />
      <path
         style="fill:#5a5c5a;fill-opacity:1;fill-rule:evenodd;stroke:none;stroke-width:0.26458332px;stroke-linecap:butt;stroke-linejoin:miter;stroke-opacity:1"
         d="m 12.315963,272.81678 c 3.146344,-1.92117 4.178267,-0.97591 7.783593,-0.79565 1.615704,-0.24921 2.541307,-1.69173 3.767512,-2.70839 2.081824,-2.30563 3.967697,-2.01417 5.535961,-0.4003 0.723402,2.31396 0.22818,3.38632 -1.756199,4.80373 -1.862115,1.61773 -2.350102,1.09033 -2.350102,3.40765 0.278242,2.41086 0.474328,2.79206 -1.735358,6.13735 z"
         id="path1528"
         inkscape:connector-curvature="0"
         sodipodi:nodetypes="cccccccc" />
      <path
         sodipodi:nodetypes="cccccccc"
         inkscape:connector-curvature="0"
         id="path1530"
         d="m 12.249146,272.61633 c 3.146344,-1.92117 4.178267,-0.97591 7.783593,-0.79565 1.615704,-0.24921 2.541307,-1.69173 3.767512,-2.70839 2.081824,-2.30563 3.772039,-2.03196 5.340303,-0.41809 0.723402,2.31396 0.423838,3.40411 -1.560541,4.82152 -1.862115,1.61773 -2.350102,1.09033 -2.350102,3.40765 0.278242,2.41086 0.474328,2.26289 -1.735358,5.60818 z"
         style="fill:#7c7f7c;fill-opacity:1;fill-rule:evenodd;stroke:none;stroke-width:0.26458332px;stroke-linecap:butt;stroke-linejoin:miter;stroke-opacity:1;filter:url(#filter1532)" />
      <path
         sodipodi:nodetypes="sccccccccccccccccccccccccs"
         inkscape:connector-curvature="0"
         id="path1611"
         transform="matrix(0.26458333,0,0,0.26458333,0,263.13332)"
         d="m 100.77344,14.990234 c -3.321509,0.06823 -6.886159,1.988607 -10.820315,6.345704 -4.634476,3.842493 -8.131683,9.294432 -14.238281,10.236328 -13.626429,-0.681298 -17.370025,-4.190803 -29.261719,3.070312 l 0.04492,0.04297 L 30.515625,48.214844 30.552734,48.25 2.1425781,68 l -0.4648437,3.818359 2.359375,2.472657 1.0136718,2.876953 2.7617188,0.726562 2.923828,3.542969 2.253906,5.289062 3.597657,3.003907 2.789062,3.8125 20.978516,21.294921 7.891187,9.46974 c 1.785717,-2.50001 26.776782,-31.678724 26.776782,-31.678724 l -0.09375,-0.09375 14.121093,-16.460937 c 8.351569,-12.643616 7.610217,-14.085354 6.558594,-23.197266 0,-8.758375 1.844896,-6.764651 8.882815,-12.878906 5.34747,-3.819619 7.82102,-7.970895 7.8164,-12.054688 0.82418,-2.28154 0.28133,-4.827252 -2.17187,-8.189453 -2.96365,-3.049833 -6.04178,-4.831902 -9.36328,-4.763672 z"
         style="opacity:0.91000001;fill:#6c583f;fill-opacity:1;fill-rule:evenodd;stroke:none;stroke-width:0.99999994px;stroke-linecap:butt;stroke-linejoin:miter;stroke-opacity:1;filter:url(#filter1652)" />
      <path
         sodipodi:nodetypes="cccccccc"
         inkscape:connector-curvature="0"
         id="path1504"
         d="m 12.290906,272.29894 c 3.146344,-1.92117 4.136506,-0.99261 7.741832,-0.81235 1.615704,-0.24921 2.541307,-1.69173 3.767512,-2.70839 2.081824,-2.30563 3.772039,-2.03196 5.340303,-0.41809 1.430424,1.96045 0.423838,2.87494 -1.560541,4.29235 -1.862115,1.61773 -2.350102,1.6195 -2.350102,3.93682 0.278242,2.41086 0.07783,2.68635 -2.131855,6.03164 z"
         style="fill:url(#linearGradient1568);fill-opacity:1;fill-rule:evenodd;stroke:none;stroke-width:0.26458332px;stroke-linecap:butt;stroke-linejoin:miter;stroke-opacity:1" />
      <path
         style="fill:#7f7f81;fill-opacity:1;stroke:none;stroke-width:0.31750003;stroke-miterlimit:4;stroke-dasharray:none;stroke-opacity:1"
         d="m 12.542355,272.75174 10.5557,9.86918 0.463315,0.64025 -3.887368,4.53108 -11.373451,-11.4492 z"
         id="path1558"
         inkscape:connector-curvature="0"
         sodipodi:nodetypes="cccccc" />
      <path
         style="fill:#0a0a0a;fill-opacity:1;fill-rule:evenodd;stroke:none;stroke-width:0.26458332px;stroke-linecap:butt;stroke-linejoin:miter;stroke-opacity:1"
         d="m 8.315476,275.73883 -7.74851173,5.38616 -0.12304841,1.01022 0.62401044,0.65449 0.2682681,0.7612 0.7307331,0.19202 0.773915,0.93722 0.5960438,1.39968 0.9517862,0.79493 0.7383408,1.00836 5.5502817,5.63432 2.088011,2.50583 c 0.472471,-0.66146 7.084779,-8.38194 7.084779,-8.38194 z"
         id="path1556"
         inkscape:connector-curvature="0"
         sodipodi:nodetypes="cccccccccccccc" />
      <path
         sodipodi:nodetypes="cccccccccccc"
         inkscape:connector-curvature="0"
         id="path1506"
         d="m 12.583232,272.28224 4.423032,3.90722 2.03669,-2.24147 3.139631,-1.32063 4.075859,-2.47224 2.004523,-1.73725 -1.804069,-0.66818 -2.204975,1.40317 -1.870886,1.73725 -2.67191,1.38745 c -2.842944,-0.59313 -4.330394,-0.57005 -7.127895,0.005 z"
         style="fill:#cbab73;fill-opacity:1;fill-rule:evenodd;stroke:none;stroke-width:0.26458332px;stroke-linecap:butt;stroke-linejoin:miter;stroke-opacity:1;filter:url(#filter1524)" />
      <path
         sodipodi:nodetypes="ccccc"
         inkscape:connector-curvature="0"
         id="rect12160"
         d="m 12.315962,272.29895 10.782093,10.32197 -3.904646,4.32824 -11.119251,-11.0589 z"
         style="fill:url(#linearGradient12198);fill-opacity:1;stroke:none;stroke-width:0.31750003;stroke-miterlimit:4;stroke-dasharray:none;stroke-opacity:1" />
      <path
         sodipodi:nodetypes="ccccccccccccccccccccccccccc"
         inkscape:connector-curvature="0"
         id="path1536"
         d="m 8.315476,275.73883 -7.74851173,5.38616 0.80037773,0.71506 0.4708953,1.08464 0.9236591,0.44269 1.0238461,0.18963 0.067741,1.13452 0.9801503,-0.35941 -0.6297555,1.45173 1.1657017,0.61504 1.2574026,-0.24213 -0.5549478,1.20173 0.3933038,0.46333 1.0261677,1.20887 1.2274939,-1.09982 -0.6191651,1.79987 0.9124169,1.03869 1.307503,-0.61634 -0.384339,1.72525 0.384339,-1.72525 -0.384339,1.72525 1.463966,1.01237 1.423459,-0.87579 -0.536701,1.92087 0.56505,0.60735 6.342219,-7.59398 z"
         style="fill:url(#radialGradient894);fill-opacity:1;fill-rule:evenodd;stroke:none;stroke-width:0.26458332px;stroke-linecap:butt;stroke-linejoin:miter;stroke-opacity:1" />
      <path
         sodipodi:nodetypes="ccccccccccccccc"
         inkscape:connector-curvature="0"
         id="path1589"
         d="m 28.827378,270.03406 0.05031,0.60372 c 0,0 -0.955882,0.85526 -1.157119,1.0565 -0.201239,0.20124 -2.113002,1.6099 -2.113002,1.6099 0,0 -0.804953,0.90558 -0.855263,1.10681 -0.05031,0.20124 -0.150928,2.01239 -0.150928,2.01239 l 0.201238,2.76702 -1.308049,2.36455 -0.603714,-0.20124 1.257738,-2.16331 c 0,0 -0.301857,-4.77941 0,-5.03095 0.301858,-0.25155 2.867646,-3.01858 2.867646,-3.01858 l 1.358358,-1.15712 -0.05031,-0.50309 z"
         style="fill:#856c4f;fill-opacity:1;fill-rule:evenodd;stroke:none;stroke-width:0.26458332px;stroke-linecap:butt;stroke-linejoin:miter;stroke-opacity:1;filter:url(#filter1607)" />
      <path
         style="fill:#848486;fill-opacity:1;stroke:none;stroke-width:0.31750003;stroke-miterlimit:4;stroke-dasharray:none;stroke-opacity:1"
         d="M 10.670654,273.69524 21.54151,284.3345 21.295251,284.61556 10.447863,273.88398 Z"
         id="path876"
         inkscape:connector-curvature="0"
         sodipodi:nodetypes="ccccc" />
    </g>
  </g>
</svg>
