<svg enable-background="new 0 0 128 128" height="128" viewBox="0 0 128 128" width="128" xmlns="http://www.w3.org/2000/svg" xmlns:xlink="http://www.w3.org/1999/xlink"><radialGradient id="a" cx="121.21739" cy="133.25926" gradientTransform="matrix(.9787234 0 0 .9818182 1.361705 1.163636)" gradientUnits="userSpaceOnUse" r="139.55859"><stop offset="0" stop-color="#c3c4c6"/><stop offset=".11366145" stop-color="#c5c6c7"/><stop offset=".20296688" stop-color="#ececec"/><stop offset=".2363" stop-color="#fafafa"/><stop offset=".2722" stop-color="#fff"/><stop offset=".5313" stop-color="#fafafa"/><stop offset=".8449" stop-color="#ebecec"/><stop offset="1" stop-color="#e1e2e3"/></radialGradient><radialGradient id="b" cx="136.000002" cy="140" gradientUnits="userSpaceOnUse" r="139.5585"><stop offset="0" stop-color="#00537d"/><stop offset=".0151" stop-color="#186389"/><stop offset=".0558" stop-color="#558ca8"/><stop offset=".0964" stop-color="#89afc3"/><stop offset=".1357" stop-color="#b3ccd8"/><stop offset=".1737" stop-color="#d4e2e9"/><stop offset=".2099" stop-color="#ecf2f5"/><stop offset=".2435" stop-color="#fafcfd"/><stop offset=".2722" stop-color="#fff"/></radialGradient><filter id="c"><feGaussianBlur stdDeviation="1.0394514"/></filter><filter id="d"><feGaussianBlur stdDeviation=".50063244"/></filter><filter id="e"><feGaussianBlur stdDeviation="1.1826484"/></filter><filter id="f" color-interpolation-filters="sRGB" height="1.041167" width="1.057553" x="-.028776" y="-.020584"><feGaussianBlur stdDeviation=".64701605"/></filter><linearGradient id="g" gradientTransform="matrix(.95940355 0 0 -.95940355 4.47639 -1.169343)" gradientUnits="userSpaceOnUse" x1="79.930611" x2="81.106064" y1="-60.215706" y2="-22.683981"><stop offset="0" stop-color="#e05f5b"/><stop offset="1" stop-color="#b83b2e" stop-opacity=".98848"/></linearGradient><linearGradient id="h" gradientTransform="scale(1 -1)" gradientUnits="userSpaceOnUse" x1="79.930611" x2="81.106064" y1="-60.215706" y2="-22.683981"><stop offset="0" stop-color="#eda4a2"/><stop offset="1" stop-color="#db8f87" stop-opacity=".988235"/></linearGradient><filter id="i" color-interpolation-filters="sRGB" height="1.039911" width="1.060203" x="-.030101" y="-.019955"><feGaussianBlur stdDeviation=".529834"/></filter><filter id="j" color-interpolation-filters="sRGB" height="1.127648" width="1.060204" x="-.030102" y="-.063824"><feGaussianBlur stdDeviation=".5298428"/></filter><path d="m23 9 .04083 112.00004 95.373185.186c.375-.375.586-.884.586-1.414l-.000015-110.77204z" filter="url(#c)" opacity=".306849" transform="matrix(1.0416667 0 0 1.0357143 -9.958333 -3.321534)"/><path d="m24.919999 10.931136v108.137934h91.574001c.375-.375.586-.884.586-1.414v-106.723934z" filter="url(#d)" opacity=".89589" transform="matrix(1.0416667 0 0 1.0357143 -9.958333 -3.321534)"/><path d="m23 9.9655172.04087 111.0345128 95.373184.47566c.375-.375.586-.88401.586-1.41401v-110.0961278h-96l-.00005-.000035z" filter="url(#c)" opacity=".306849" transform="matrix(1.0416667 0 0 1.0357143 -9.958333 -3.321534)"/><path d="m16.000002 8v112h95.413998c.375-.375.586-.884.586-1.414v-110.586z" fill="url(#b)"/><path d="m19.978723 12.007359c-.539276 0-.978723.440836-.978723.981818l.000002 104.029003c0 .54197.439447.98182.978723.98182l89.734505-.0188c.18303-.1836.28677-.43593.28677-.69415v-104.305232c0-.540982-.43847-.981818-.97872-.981818l-89.042557.0074z" fill="url(#a)"/><path d="m300.35749-97.97384h-2.61968z" fill="#fff" fill-opacity=".756881"/><path d="m222.13378 224.25649h-2.61968z" fill="#fff" fill-opacity=".756881"/><g fill-rule="evenodd"><path d="m33.567267 12v104h2.432733v-104z" fill="#258aff" fill-opacity=".454902"/><path d="m52 12v104h2.432733v-104z" fill="#258aff" fill-opacity=".454902"/><path d="m73.567267 12v104h2.432733v-104z" fill="#258aff" fill-opacity=".454902"/><path d="m92 12v104h2.43273v-104z" fill="#258aff" fill-opacity=".454902"/><path d="m108 25.567267h-87.999997v2.432733h87.999997z" fill="#258aff" fill-opacity=".454902"/><path d="m108 44h-87.999997v2.432733h87.999997z" fill="#258aff" fill-opacity=".454902"/><path d="m108 65.567267h-87.999997v2.432733h87.999997z" fill="#258aff" fill-opacity=".454902"/><path d="m108 84h-87.999997v2.43273h87.999997z" fill="#258aff" fill-opacity=".454902"/><path d="m108 104h-88v2.43273h88z" fill="#258aff" fill-opacity=".454902"/><g fill="#fff" filter="url(#e)" stroke="#fff" stroke-width="2.9"><path d="m36 104h-4v4h4z"/><path d="m36 88h-4v-4h4z"/><path d="m36 68h-4v-4h4z"/><path d="m36 48h-4v-4h4z"/><path d="m36 28h-4v-4h4z"/><path d="m56 104h-4v4h4z"/><path d="m56 88h-4v-4h4z"/><path d="m56 68h-4v-4h4z"/><path d="m56 48h-4v-4h4z"/><path d="m56 28h-4v-4h4z"/><path d="m76 104h-4v4h4z"/><path d="m76 88h-4v-4h4z"/><path d="m76 68h-4v-4h4z"/><path d="m76 48h-4v-4h4z"/><path d="m76 28h-4v-4h4z"/><path d="m96 104h-4v4h4z"/><path d="m96 88h-4v-4h4z"/><path d="m96 68h-4v-4h4z"/><path d="m96 48h-4v-4h4z"/><path d="m96 28h-4v-4h4z"/></g><path d="m36 104h-4v4h4z" fill="#258aff"/><path d="m36 88h-4v-4h4z" fill="#258aff"/><path d="m36 68h-4v-4h4z" fill="#258aff"/><path d="m36 48h-4v-4h4z" fill="#258aff"/><path d="m36 28h-4v-4h4z" fill="#258aff"/><path d="m56 104h-4v4h4z" fill="#258aff"/><path d="m56 88h-4v-4h4z" fill="#258aff"/><path d="m56 68h-4v-4h4z" fill="#258aff"/><path d="m56 48h-4v-4h4z" fill="#258aff"/><path d="m56 28h-4v-4h4z" fill="#258aff"/><path d="m76 104h-4v4h4z" fill="#258aff"/><path d="m76 88h-4v-4h4z" fill="#258aff"/><path d="m76 68h-4v-4h4z" fill="#258aff"/><path d="m76 48h-4v-4h4z" fill="#258aff"/><path d="m76 28h-4v-4h4z" fill="#258aff"/><path d="m96 104h-4v4h4z" fill="#258aff"/><path d="m96 88h-4v-4h4z" fill="#258aff"/><path d="m96 68h-4v-4h4z" fill="#258aff"/><path d="m96 48h-4v-4h4z" fill="#258aff"/><path d="m96 28h-4v-4h4z" fill="#258aff"/></g><g fill="#121212" fill-opacity=".816176" filter="url(#f)" stroke-width="2.408786" transform="matrix(.95940357 0 0 -.95940357 3.568427 -.56031)"><path d="m124.58116-76.265448v50.835401c0 5.081031-1.08207 9.487729-3.24622 13.220092-2.16414 3.7009981-5.26921 6.5237934-9.31522 8.4683858s-8.82908 2.91688865-14.349213 2.91688865c-8.342929 0-14.913769-2.16414315-19.712521-6.49242955-4.798753-4.3282869-7.245176-10.2561569-7.339269-17.7836109v-51.164727l20.607989.000176v51.494053c.10799 4.301616 1.300456 5.368995 3.577398 7.202138 2.286838 3.103044 3.684997 2.096236 6.850696-1.171842 1.75641-1.881864 2.63461-2.939893 2.63461-7.174086v-50.741307z" fill="#121212" fill-opacity=".816176" stroke-width="2.408786"/></g><path d="m124.58116-76.265448v50.835401c0 5.081031-1.08207 9.487729-3.24622 13.220092-2.16414 3.7009981-5.26921 6.5237934-9.31522 8.4683858s-8.82908 2.91688865-14.349213 2.91688865c-8.342929 0-14.913769-2.16414315-19.712521-6.49242955-4.798753-4.3282869-7.245176-10.2561569-7.339269-17.7836109v-51.164727h20.608387v51.494053c.10799 4.301616 1.196702 5.505918 3.577398 7.202138 3.449189 3.357523 2.230423.697507 6.295768-.780798 1.75641-1.881864 2.58055-2.940238 2.63461-7.174086v-50.741307z" fill="#a51e1e" transform="matrix(.95940357 0 0 -.95940357 4.47639 -1.169343)"/><path d="m75.236151 68.992664v-46.042003c.08238-6.590544 2.079993-11.289043 6.046867-14.867007 3.960201-3.5719468 9.414007-5.4547339 16.898245-5.4547339 4.942507 0 9.063937.867076 12.464747 2.5015699 3.39777 1.6330327 5.85996 3.8860904 7.63963 6.927568 1.77767 3.068043 2.70769 6.725264 2.70769 11.169931v45.764675l-14.05583.069836v-45.674731c0-4.478197-.8847-6.306669-3.33729-8.934445-5.22788-3.575274-7.226937-2.825273-11.163606-.0756-2.331789 2.510705-3.340604 4.095379-3.442235 8.143687-.000952.02497-.0016.04996-.0019.07496v46.396157z" fill="url(#g)"/><path d="m72.228647 48.112519v23.88765l19.771353-.000169v-23.88765zm31.771353-.000169v23.88765l20.00083.000169-.00083-24.000169z" fill="#7c3530" fill-opacity=".98848"/><path d="m97.669922 6.6835938c-7.343937 0-12.231581 1.7756652-15.789063 4.9843752-3.591571 3.239456-5.323152 7.170735-5.402343 13.505859v45.232422h4.888672c0-15.211589 0-45.655599 0-45.666016.000498-.0433.0025-.0853.0039-.126953.119558-4.646418 1.763982-7.515552 4.314453-10.261719 3.059964-3.294752 7.471277-4.6835932 11.984375-4.6835932 4.536768 0 8.967268 1.3840072 12.046878 4.6835932 2.76356 2.960955 4.21093 6.145311 4.21093 11.171876v44.882812h4.79493v-44.976562c0-4.246992-.86459-7.52601-2.44922-10.265626l-.002-.0039c-1.597584-2.728849-3.667674-4.6385-6.789014-6.1386776-3.10912-1.4943018-6.97954-2.3378906-11.812498-2.3378906z" fill="url(#h)" filter="url(#i)" transform="matrix(.95940357 0 0 .95940357 2.295128 -2.412264)"/><path d="m75.236151 48.112519v2.971903h-.0356v17.943845l13.827549-.000169v-17.943845h-.0356v-2.971903zm31.771349-.000169v2.971903h-.0356v17.943845l14.05703.000169v-17.943845h-.0356v-2.971903z" fill="#f2e5e3" fill-opacity=".98848"/><path d="m76.782121 51.10174v19.923828h4.888672v-19.923828zm33.115739-.000176v19.923828l9.1284.000176v-19.923828z" fill="#fffbfb" fill-opacity=".98848" filter="url(#j)" transform="matrix(.95940357 0 0 .95940357 1.805781 -1.027192)"/></svg>