<?xml version="1.0" encoding="UTF-8" standalone="no"?>
<svg
   xmlns:dc="http://purl.org/dc/elements/1.1/"
   xmlns:cc="http://creativecommons.org/ns#"
   xmlns:rdf="http://www.w3.org/1999/02/22-rdf-syntax-ns#"
   xmlns:svg="http://www.w3.org/2000/svg"
   xmlns="http://www.w3.org/2000/svg"
   xmlns:xlink="http://www.w3.org/1999/xlink"
   xmlns:sodipodi="http://sodipodi.sourceforge.net/DTD/sodipodi-0.dtd"
   xmlns:inkscape="http://www.inkscape.org/namespaces/inkscape"
   height="128"
   viewBox="0 0 33.866666 33.866668"
   width="128"
   version="1.1"
   id="svg188"
   sodipodi:docname="heading6parastyle.svg"
   inkscape:export-filename="/home/rizmut/Dokumen/Rizmut/Github/libreoffice-style-karasa-jaga/build/images_karasa_jaga/cmd/32/heading6parastyle.png"
   inkscape:export-xdpi="24"
   inkscape:export-ydpi="24"
   inkscape:version="0.92.3 (unknown)">
  <metadata
     id="metadata194">
    <rdf:RDF>
      <cc:Work
         rdf:about="">
        <dc:format>image/svg+xml</dc:format>
        <dc:type
           rdf:resource="http://purl.org/dc/dcmitype/StillImage" />
        <dc:title></dc:title>
      </cc:Work>
    </rdf:RDF>
  </metadata>
  <defs
     id="defs192">
    <linearGradient
       id="a-3"
       gradientUnits="userSpaceOnUse"
       x1="15.874999"
       x2="16.933332"
       y1="292.76666"
       y2="268.42499">
      <stop
         offset="0"
         stop-color="#555"
         id="stop2" />
      <stop
         offset="1"
         id="stop4" />
    </linearGradient>
    <linearGradient
       id="b"
       gradientUnits="userSpaceOnUse"
       x1="60"
       x2="64"
       y1="8.0000038"
       y2="92"
       gradientTransform="matrix(0.21702136,0,0,0.2614866,-3.3920436,0.55956552)">
      <stop
         offset="0"
         stop-color="#3b3e22"
         id="stop7" />
      <stop
         offset="1"
         stop-color="#454545"
         stop-opacity="0"
         id="stop9" />
    </linearGradient>
    <linearGradient
       inkscape:collect="always"
       xlink:href="#a-3"
       id="linearGradient4325"
       gradientUnits="userSpaceOnUse"
       x1="15.874999"
       y1="292.76666"
       x2="16.933332"
       y2="268.42499" />
    <linearGradient
       inkscape:collect="always"
       xlink:href="#a-3"
       id="linearGradient4327"
       gradientUnits="userSpaceOnUse"
       x1="15.874999"
       y1="292.76666"
       x2="16.933332"
       y2="268.42499" />
    <linearGradient
       inkscape:collect="always"
       xlink:href="#b"
       id="linearGradient4345"
       x1="37.670307"
       y1="8.9436417"
       x2="36.798912"
       y2="84.496201"
       gradientUnits="userSpaceOnUse" />
  </defs>
  <sodipodi:namedview
     pagecolor="#ffffff"
     bordercolor="#666666"
     borderopacity="1"
     objecttolerance="10"
     gridtolerance="10"
     guidetolerance="10"
     inkscape:pageopacity="0"
     inkscape:pageshadow="2"
     inkscape:window-width="1366"
     inkscape:window-height="706"
     id="namedview190"
     showgrid="true"
     inkscape:snap-global="false"
     inkscape:zoom="2.6074563"
     inkscape:cx="52.896142"
     inkscape:cy="82.981178"
     inkscape:window-x="0"
     inkscape:window-y="0"
     inkscape:window-maximized="1"
     inkscape:current-layer="svg188">
    <inkscape:grid
       type="xygrid"
       id="grid4283"
       spacingx="1.0583333"
       spacingy="1.0583333"
       empspacing="1" />
  </sodipodi:namedview>
  <linearGradient
     id="a"
     gradientUnits="userSpaceOnUse"
     x1="105.35139"
     x2="111.41898"
     y1="102.10476"
     y2="33.939384">
    <stop
       offset="0"
       stop-color="#06f"
       id="stop171" />
    <stop
       offset="1"
       stop-color="#80b3ff"
       id="stop173" />
  </linearGradient>
  <g
     id="g4350">
    <g
       transform="matrix(0.82023822,0,0,0.98829584,-3.3920436,-259.494)"
       aria-label="H"
       style="font-size:35.19966888px;font-family:sans-serif;letter-spacing:0;word-spacing:0;fill:url(#linearGradient4327);stroke-width:0.87999201"
       id="text14">
      <path
         d="m 11.873164,279.23357 10.523815,0.0181 v -7.18608 c 0,-1.3335 -0.185208,-2.18546 -0.555625,-2.55587 -0.370417,-0.39511 -1.271764,-0.65441 -2.704041,-0.77788 v -0.70379 h 10.297583 v 0.70379 c -1.432277,0.12347 -2.333624,0.38277 -2.704041,0.77788 -0.370417,0.37041 -0.555626,1.22237 -0.555626,2.55587 v 16.4465 c 0,1.30881 0.197556,2.16077 0.592667,2.55588 0.395111,0.39511 1.284111,0.6544 2.667,0.77787 v 0.70379 H 19.137313 v -0.70379 c 1.432277,-0.0988 2.333624,-0.35807 2.704041,-0.77787 0.370417,-0.41981 0.555625,-1.40759 0.555625,-2.96334 v -7.22312 l -10.523815,-0.0181 v 7.63058 c 0,1.30881 0.197556,2.16077 0.592667,2.55588 0.395111,0.39511 1.284111,0.6544 2.667,0.77787 v 0.70379 H 4.8352476 v -0.70379 c 1.4322778,-0.0988 2.333625,-0.35807 2.7040417,-0.77787 0.3704167,-0.41981 0.555625,-1.40759 0.555625,-2.96334 v -16.03904 c 0,-1.3335 -0.1852083,-2.18546 -0.555625,-2.55587 -0.3704167,-0.39511 -1.2717639,-0.65441 -2.7040417,-0.77788 v -0.70379 H 15.132831 v 0.70379 c -1.432278,0.12347 -2.333625,0.38277 -2.704042,0.77788 -0.370416,0.37041 -0.555625,1.22237 -0.555625,2.55587 z"
         style="font-size:37.04166794px;font-family:FreeSerif;fill:url(#linearGradient4325);stroke-width:0.87999201"
         id="path4312"
         inkscape:connector-curvature="0"
         sodipodi:nodetypes="ccsccccccssccccccsccsccccccssccccccsc" />
    </g>
    <path
       id="path4315"
       transform="scale(0.26458334)"
       d="M 10.824219 23.058594 C 11.242968 23.400448 11.820403 23.528787 12.173828 23.978516 C 14.254044 26.51575 14.541016 30.199051 14.541016 35.410156 L 14.541016 69.167969 A 58.44068 40.81356 0 0 0 21.722656 71.402344 L 21.722656 68.341797 A 2.2665299 2.7309164 0 0 1 23.994141 65.613281 L 56.617188 65.677734 A 2.2665299 2.7309164 0 0 1 58.875 68.40625 L 58.875 72.298828 A 58.44068 40.81356 0 0 0 66.0625 70.410156 L 66.0625 35.482422 C 66.0625 30.274006 66.338122 26.586926 68.423828 24.042969 C 68.77894 23.591111 69.360667 23.465573 69.78125 23.123047 L 55.158203 23.123047 C 55.578789 23.465573 56.15856 23.591111 56.513672 24.042969 C 58.599381 26.586964 58.875 30.274006 58.875 35.482422 L 58.875 62.322266 A 2.2665299 2.7309164 0 0 1 56.605469 65.050781 L 23.980469 64.986328 A 2.2665299 2.7309164 0 0 1 21.722656 62.257812 L 21.722656 35.410156 C 21.722656 30.199051 22.009628 26.51575 24.089844 23.978516 C 24.443269 23.528787 25.022658 23.400448 25.441406 23.058594 L 10.824219 23.058594 z "
       style="opacity:0.75;fill:url(#linearGradient4345);fill-opacity:1;stroke:none;stroke-width:6.94748163;stroke-linecap:round;stroke-linejoin:round;stroke-miterlimit:4;stroke-dasharray:none;stroke-dashoffset:0;stroke-opacity:1" />
  </g>
  <path
     d="m97.976562 55.869141c-8.450221 0-17.080671 4.130713-21.99414 11.03125a10.722883 10.722883 0 0 0 -.0059.0078c-5.015316 7.058594-6.595703 15.719278-6.595703 25.587891 0 9.200008 1.658777 17.516168 6.730469 24.189458a10.722883 10.722883 0 0 0 .04297.0527c5.010708 6.50644 13.410424 10.12891 21.582031 10.12891 3.737851 0 7.450241-.56003 10.962891-1.94141a10.722883 10.722883 0 0 0 .0957-.0391c3.27755-1.32576 6.37665-3.33682 8.86524-5.99414 2.42902-2.59253 4.26651-5.74218 5.39843-9.0625a10.722883 10.722883 0 0 0 .0117-.0352c1.09492-3.24823 1.58789-6.66092 1.58789-10.087891 0-3.369429-.47432-6.72387-1.59375-9.927734-.60283-1.725354-1.44244-3.387352-2.43164-4.974609a10.722883 10.722883 0 0 0 2.37696-9.851563c-.73367-2.807086-1.77918-5.4987-3.33985-8.013672-1.52043-2.472256-3.54368-4.747052-5.98437-6.509765-2.37122-1.712554-5.08984-2.924982-7.86328-3.615235-2.57132-.661565-5.19636-.945312-7.845707-.945312zm11.660158 19.68164.1582.06445c-.0266-.01099-.0554-.01255-.082-.02344-.0266-.01061-.0496-.03051-.0762-.04102zm8.2539 5.607422.13086.140625c-.0215-.0235-.0507-.03909-.0723-.0625-.0225-.02397-.036-.05425-.0586-.07813zm-20.460932 16.779297c.422432 0 1.318778.156625 2.076171.564453l.183594.101563c.436147.246029.846467.645472 1.042967.902343-.0389.168465.0198.06503-.11719.376953-.10147.231128-.44814.781848-.984371 1.294918-.42588.37603-1.073221.77972-1.662109.97071-.155232.0503-.462492.11328-.779297.11328-.09107 0-.651548-.0823-1.287109-.33984-.536158-.25131-1.208542-.74219-1.666016-1.27735-.201133-.25781-.242588-.3991-.349609-.61328.06361-.106154.04364-.125021.142578-.251953l.04883-.06055c.725268-.916845 2.997158-1.78125 3.351563-1.78125z"
     fill="url(#a)"
     transform="matrix(.1609198424 0 0 .16098788565 8.793557 13.28776)"
     id="path176" />
  <path
     d="m113.93472 99.70641q0 3.62239-1.0252 6.66383-1.02521 3.00727-3.07562 5.19437-2.01623 2.15293-5.05767 3.38318-3.04144 1.19607-7.039743 1.19607-8.509199 0-13.088446-5.94619-4.545074-5.98036-4.545074-17.701866 0-12.883405 4.613421-19.376368 4.647594-6.527137 13.259313-6.527137 2.870569 0 5.228549.615123 2.35797.58095 4.20333 1.913716 1.84537 1.332766 3.14397 3.451522 1.29859 2.084583 2.08458 5.09185l-9.05598 1.264419q-.68347-2.528838-2.22127-3.62239-1.53781-1.127725-3.58822-1.127725-3.861604 0-6.082881 3.861604-2.187103 3.861604-2.187103 11.721507 1.537807-2.563012 4.271686-3.929951 2.733879-1.36694 6.185402-1.36694 3.178136 0 5.741146 1.059378 2.59718 1.025205 4.40838 3.007267 1.84537 1.947889 2.8364 4.784289.99103 2.836399.99103 6.390442zm-9.63692.273388q0-1.947889-.44426-3.485696-.44425-1.57198-1.36694-2.665532-.88851-1.093552-2.22127-1.674501-1.332771-.615123-3.075619-.615123-1.264419 0-2.528838.410082-1.264419.410082-2.25545 1.332766-.991031.888511-1.606154 2.289624-.615123 1.401113-.615123 3.383175 0 2.050407.512602 3.827427.512603 1.77703 1.435287 3.10979.956857 1.29859 2.289624 2.05041 1.332766.71764 3.007267.71764 3.246484 0 5.057674-2.28962 1.8112-2.3238 1.8112-6.390442z"
     fill="#ddebff"
     transform="matrix(.1609198424 0 0 .16098788565 8.793557 13.28776)"
     id="path178" />
  <g
     transform="matrix(0.82023822,0,0,0.98829584,-3.3920436,-259.494)"
     aria-label="H"
     style="font-size:35.19966888px;font-family:sans-serif;letter-spacing:0;word-spacing:0;fill:#34176e;stroke-width:0.87999201"
     id="g4334" />
</svg>
