<svg height="128" width="128" xmlns="http://www.w3.org/2000/svg" xmlns:xlink="http://www.w3.org/1999/xlink"><linearGradient id="a"><stop offset="0" stop-color="#c8c8c8"/><stop offset="1" stop-color="#e4e4e4"/></linearGradient><linearGradient id="b"><stop offset="0" stop-color="#fff"/><stop offset="1" stop-color="#fff" stop-opacity="0"/></linearGradient><linearGradient id="c"><stop offset="0"/><stop offset="1" stop-color="#7c7c7c"/></linearGradient><filter id="d"><feGaussianBlur stdDeviation="1.36"/></filter><filter id="e" height="1.05568" width="1.348" x="-.174" y="-.02784"><feGaussianBlur stdDeviation="1.16"/></filter><linearGradient id="f" gradientUnits="userSpaceOnUse" x1="70" x2="70" xlink:href="#c" y1="127" y2="32.952141"/><linearGradient id="g" gradientTransform="matrix(1.1428572 0 0 1 -7.142858 0)" gradientUnits="userSpaceOnUse" x1="64" x2="64" xlink:href="#a" y1="100" y2="28"/><radialGradient id="h" cx="64" cy="54.400002" gradientTransform="matrix(7.7142861 0 0 1.7500001 -427.71431 -43.200007)" gradientUnits="userSpaceOnUse" r="16" spreadMethod="reflect" xlink:href="#b"/><radialGradient id="i" cx="89.9238914" cy="-1.4142076" gradientUnits="userSpaceOnUse" r="113.8074624"><stop offset="0" stop-color="#fff"/><stop offset=".5" stop-color="#fff"/><stop offset="1" stop-opacity="0"/></radialGradient><mask id="j" maskUnits="userSpaceOnUse"><path d="m9.923884-81.414215h160v160h-160z" fill="url(#i)" opacity=".6" transform="matrix(.7071068 .7071067 -.7071067 .7071068 0 0)"/></mask><linearGradient id="k" gradientUnits="userSpaceOnUse" x1="70" x2="130" y1="98" y2="98"><stop offset="0" stop-color="#066704"/><stop offset="1" stop-color="#077d05" stop-opacity=".839216"/></linearGradient><radialGradient id="l" cx="108.95794" cy="91.491646" gradientTransform="matrix(1.0783631 -.16325698 .14968763 .98873334 -23.191389 17.327301)" gradientUnits="userSpaceOnUse" r="30" xlink:href="#m"/><linearGradient id="m"><stop offset="0" stop-color="#011701"/><stop offset=".80671918" stop-color="#145703"/><stop offset="1" stop-color="#2fa207" stop-opacity=".384314"/></linearGradient><radialGradient id="n" cx="92.257149" cy="104.91638" gradientTransform="matrix(1.0783631 -.16325698 .14968763 .98873334 -23.191389 17.327301)" gradientUnits="userSpaceOnUse" r="30" xlink:href="#m"/><linearGradient id="o" gradientTransform="scale(1.0975951 .9110828)" gradientUnits="userSpaceOnUse" x1="26.091133" x2="31.500689" xlink:href="#b" y1="14.856744" y2="14.856744"/><filter id="p" height="1.277481" width="1.279832" x="-.139916" y="-.138741"><feGaussianBlur stdDeviation=".28784801"/></filter><linearGradient id="q" gradientUnits="userSpaceOnUse" x1="304.88663" x2="345.62039" y1="385.86127" y2="384.62384"><stop offset="0" stop-color="#fff" stop-opacity=".683453"/><stop offset="1" stop-color="#fff" stop-opacity="0"/></linearGradient><radialGradient id="r" cx="96" cy="102" gradientUnits="userSpaceOnUse" r="26"><stop offset="0" stop-color="#7ae91e" stop-opacity=".996078"/><stop offset="1" stop-color="#62c916"/></radialGradient><linearGradient id="s" gradientUnits="userSpaceOnUse" x1="93.67332915826" x2="105.6308157075" xlink:href="#b" y1="57.08105772161" y2="114.86784579865"/><filter id="t" color-interpolation-filters="sRGB" height="1.048" width="1.048" x="-.024" y="-.024"><feGaussianBlur stdDeviation=".52"/></filter><linearGradient id="u" gradientUnits="userSpaceOnUse" spreadMethod="reflect" x1="88.60625" x2="91.575107" y1="13.510336" y2="13.510336"><stop offset="0" stop-color="#c8ff87"/><stop offset="1" stop-color="#abff87" stop-opacity="0"/></linearGradient><linearGradient id="v" gradientUnits="userSpaceOnUse" spreadMethod="reflect" x1="31.60625" x2="34.575107" y1="13.510336" y2="13.510336"><stop offset="0" stop-color="#fff"/><stop offset="1" stop-color="#790000" stop-opacity="0"/></linearGradient><linearGradient id="w" gradientUnits="userSpaceOnUse" x1="64" x2="64" xlink:href="#c" y1="83.729706" y2="-62.169582"/><linearGradient id="x" gradientUnits="userSpaceOnUse" x1="64" x2="64" xlink:href="#a" y1="24" y2="-52"/><radialGradient id="y" cx="66" cy="-10.851176" gradientTransform="matrix(23 -.000001 .00000061 14.035669 -1452 156.4281)" gradientUnits="userSpaceOnUse" r="2" spreadMethod="reflect" xlink:href="#b"/><clipPath id="z"><path d="m-149.21053-56.964901h111.10139v111.10139h-111.10139z" transform="matrix(-.70710683 -.70710673 -.70710673 .70710683 0 0)"/></clipPath><g clip-path="url(#z)" mask="url(#j)" transform="matrix(-.81465838 -.81465827 -.81465827 .81465838 171.90558 65.629312)"><rect height="84" rx="14" style="opacity:.6;fill:none;stroke-width:11.224972;stroke-linecap:round;stroke-linejoin:round;stroke:url(#f);filter:url(#d)" transform="matrix(1.1428572 0 0 1 -7.14286 0)" width="28" x="50" y="22"/><rect fill="none" height="84" rx="16" stroke="url(#g)" stroke-linecap="round" stroke-linejoin="round" stroke-width="4" width="32" x="50.000004" y="22"/><rect fill="none" height="84" rx="16" stroke="url(#h)" stroke-linecap="round" stroke-linejoin="round" stroke-width="6.235255" width="32" x="50.000004" y="22"/><g id="A" transform="translate(0 4)"><rect height="88" rx="2" style="opacity:.6;fill:none;stroke-width:8;stroke-linecap:round;stroke-linejoin:round;stroke:url(#w);filter:url(#e)" width="4" x="64" y="-56"/><rect fill="url(#x)" height="86.674995" rx="2" ry="1.532357" width="5.948517" x="62.051483" y="-54.675007"/><rect fill="url(#y)" height="52.291073" rx="1.204504" ry="2" width="3.646444" x="64.353554" y="-20.291105"/></g><use height="128" transform="translate(0 144)" width="128" xlink:href="#A"/></g><g transform="translate(-4 -2)"><path d="m96 68a4.0004 4.0004 0 0 0 -4 4v18h-18a4.0004 4.0004 0 0 0 -4 4v8a4.0004 4.0004 0 0 0 4 4h18v18a4.0004 4.0004 0 0 0 4 4h8a4.0004 4.0004 0 0 0 4-4v-18h18a4.0004 4.0004 0 0 0 4-4v-8a4.0004 4.0004 0 0 0 -4-4h-18v-18a4.0004 4.0004 0 0 0 -4-4z" fill="url(#k)"/><path d="m96 68a4.0004 4.0004 0 0 0 -4 4v18h-18a4.0004 4.0004 0 0 0 -4 4v8a4.0004 4.0004 0 0 0 4 4h18v18a4.0004 4.0004 0 0 0 4 4h8a4.0004 4.0004 0 0 0 4-4v-18h18a4.0004 4.0004 0 0 0 4-4v-8a4.0004 4.0004 0 0 0 -4-4h-18v-18a4.0004 4.0004 0 0 0 -4-4z" fill="url(#l)"/><path d="m96 68a4.0004 4.0004 0 0 0 -4 4v18h-18a4.0004 4.0004 0 0 0 -4 4v8a4.0004 4.0004 0 0 0 4 4h18v18a4.0004 4.0004 0 0 0 4 4h8a4.0004 4.0004 0 0 0 4-4v-18h18a4.0004 4.0004 0 0 0 4-4v-8a4.0004 4.0004 0 0 0 -4-4h-18v-18a4.0004 4.0004 0 0 0 -4-4z" fill="url(#n)"/><path d="m31.7 16 2.875-3.375c-1.051205-1.695758-3.935136-2.288018-5.9375-.3125l2.8125 3.375z" fill="url(#o)" fill-rule="evenodd" filter="url(#p)" opacity=".790262" transform="matrix(-.60073019 -.60073019 .59501648 -.59501648 106.15853 151.49848)"/><path d="m31.7 16 2.875-3.375c-1.051205-1.695758-3.935136-2.288018-5.9375-.3125l2.8125 3.375z" fill="url(#q)" fill-rule="evenodd" filter="url(#p)" opacity=".498127" transform="matrix(-.54559305 .54559305 -.55083218 -.55083218 129.81694 114.94021)"/><path d="m96 72v22h-22v8h22v22h8v-22h22v-8h-22v-22z" fill="url(#r)"/><path d="m96 72v21.224609.775391h-22v5.835938c5.252313.784812 12.103279 1.193282 17.28125 1.203122 12.42654-.0162 24.54521-2.29327 34.71875-6.523435v-.515625h-22v-22z" fill="url(#s)"/><path d="m96 72v22h-22v8h22v22h8v-22h22v-8h-22v-22z" style="fill:none;stroke:#eef4ca;stroke-width:.8;stroke-linecap:square;stroke-linejoin:round;stroke-opacity:.780392;filter:url(#t)"/><g fill-rule="evenodd"><path d="m31.7 16 2.875-3.375c-1.051205-1.695758-3.935136-2.288018-5.9375-.3125l2.8125 3.375z" fill="url(#o)" filter="url(#p)" opacity=".498127" transform="matrix(-.60249952 .60249952 .60828509 .60828509 83.418893 65.879107)"/><path d="m88.7 16 2.875-3.375c-1.051205-1.695758-3.935136-2.288018-5.9375-.3125l2.8125 3.375z" fill="url(#u)" filter="url(#p)" opacity=".790262" transform="matrix(-.55083218 -.55083218 .54559305 -.54559305 113.52649 159.24703)"/><path d="m31.7 16 2.875-3.375c-1.051205-1.695758-3.935136-2.288018-5.9375-.3125l2.8125 3.375z" fill="url(#v)" filter="url(#p)" opacity=".790262" transform="matrix(-.50093417 -.50093417 -.49616964 .49616964 149.45278 101.72037)"/><path d="m88.7 16 2.875-3.375c-1.051205-1.695758-3.935136-2.288018-5.9375-.3125l2.8125 3.375z" fill="url(#u)" filter="url(#p)" opacity=".790262" transform="matrix(-.51428706 -.51428706 -.50939554 .50939554 157.72648 109.73028)"/><path d="m88.7 16 2.875-3.375c-1.051205-1.695758-3.935136-2.288018-5.9375-.3125l2.8125 3.375z" fill="url(#u)" filter="url(#p)" opacity=".790262" transform="matrix(.51428706 -.51428706 .50939554 .50939554 42.798309 109.73028)"/><path d="m31.7 16 2.875-3.375c-1.051205-1.695758-3.935136-2.288018-5.9375-.3125l2.8125 3.375z" fill="url(#v)" filter="url(#p)" opacity=".790262" transform="matrix(-.50093417 .50093417 -.49616964 -.49616964 149.45278 94.179741)"/></g></g></svg>