<svg height="128" width="128" xmlns="http://www.w3.org/2000/svg" xmlns:xlink="http://www.w3.org/1999/xlink"><linearGradient id="a"><stop offset="0" stop-color="#dee1e5"/><stop offset="1" stop-color="#fafafa"/></linearGradient><linearGradient id="b"><stop offset="0" stop-color="#e0e0e0"/><stop offset="1" stop-color="#fff"/></linearGradient><clipPath id="c"><path d="m8 30.477533h112v71.191017h-112z"/></clipPath><linearGradient gradientTransform="matrix(1 0 0 .9887641 0 2.792131)" gradientUnits="userSpaceOnUse" x1="101.09873" x2="101.09873" y1="31.740467" y2="95.845909"><stop offset="0" stop-color="#eee"/><stop offset="1" stop-color="#fafafa"/></linearGradient><filter id="d"><feGaussianBlur stdDeviation="1.0251142"/></filter><linearGradient id="e" gradientTransform="matrix(1 0 0 .9280118 0 12.031338)" gradientUnits="userSpaceOnUse" x1="68.019264" x2="68.019264" xlink:href="#b" y1="50.058746" y2="119.35289"/><linearGradient id="f" gradientUnits="userSpaceOnUse" x1="101.09873" x2="101.09873" xlink:href="#a" y1="47.709396" y2="112.20206"/><linearGradient id="g" gradientTransform="matrix(1 0 0 .9090909 0 6.545454)" gradientUnits="userSpaceOnUse" x1="87.53772" x2="87.53772" xlink:href="#b" y1="86.377098" y2="-16.000978"/><linearGradient id="h" gradientUnits="userSpaceOnUse" x1="101.09873" x2="101.09873" xlink:href="#a" y1="36.7673" y2="88.340691"/><linearGradient id="i" gradientUnits="userSpaceOnUse" x1="101.09873" x2="101.09873" y1="35.740467" y2="99.845909"><stop offset="0" stop-color="#e5edf8"/><stop offset="1" stop-color="#fafafa"/></linearGradient><filter id="j"><feGaussianBlur stdDeviation="1.5398218"/></filter><linearGradient id="k" gradientTransform="matrix(1 0 0 -.9280118 0 124.41583)" gradientUnits="userSpaceOnUse" x1="68.019264" x2="68.019264" xlink:href="#b" y1="47.688831" y2="102.47923"/><linearGradient id="l" gradientUnits="userSpaceOnUse" x1="88.591797" x2="71.262016" y1="96.592697" y2="79.262917"><stop offset="0" stop-color="#fff"/><stop offset="1" stop-color="#555753"/></linearGradient><filter id="m"><feGaussianBlur stdDeviation=".40750996"/></filter><filter id="n"><feGaussianBlur stdDeviation=".90565481"/></filter><linearGradient id="o" gradientUnits="userSpaceOnUse" x1="85.219681" x2="61.336319" y1="93.219681" y2="69.336319"><stop offset="0"/><stop offset="1" stop-color="#393b38"/></linearGradient><filter id="p"><feGaussianBlur stdDeviation=".4901192"/></filter><linearGradient id="q" gradientUnits="userSpaceOnUse" x1="96" x2="88.000198" y1="104" y2="96.000198"><stop offset="0" stop-color="#888a85"/><stop offset=".0072" stop-color="#8c8e89"/><stop offset=".0673" stop-color="#abaca9"/><stop offset=".1347" stop-color="#c5c6c4"/><stop offset=".2115" stop-color="#dbdbda"/><stop offset=".3012" stop-color="#ebebeb"/><stop offset=".4122" stop-color="#f7f7f6"/><stop offset=".5679" stop-color="#fdfdfd"/><stop offset="1" stop-color="#fff"/></linearGradient><linearGradient id="r" gradientUnits="userSpaceOnUse" x1="78.61085034347" x2="120.34349451992" y1="88.85241574791" y2="111.54715161013"><stop offset="0" stop-color="#fff"/><stop offset="1" stop-color="#ccc"/></linearGradient><linearGradient id="s" gradientUnits="userSpaceOnUse" x1="100.83452" x2="116.42799" y1="37.992622" y2="80.92411"><stop offset="0" stop-color="#fff" stop-opacity=".55036"/><stop offset="1" stop-color="#fff" stop-opacity="0"/></linearGradient><linearGradient id="t" gradientTransform="matrix(.5963646 0 0 .63697579 63.973141 -536.55347)" gradientUnits="userSpaceOnUse" x1="65.456863" x2="65.985519" y1="947.38373" y2="1011.6694"><stop offset="0" stop-color="#363636"/><stop offset="1" stop-color="#cdcdcd"/></linearGradient><linearGradient id="u" gradientUnits="userSpaceOnUse" x1="88.38102" x2="130.48599" y1="1008.9966" y2="1015.6953"><stop offset="0" stop-color="#5e5e5e"/><stop offset="1" stop-color="#5e5e5e" stop-opacity="0"/></linearGradient><clipPath id="v"><path d="m50.951443 938.9306h73.863686v112.22136h-73.863686z"/></clipPath><filter id="w" color-interpolation-filters="sRGB" height="1.12903" width="1.240695" x="-.120348" y="-.064515"><feGaussianBlur stdDeviation="1.8475301"/></filter><linearGradient id="x" gradientUnits="userSpaceOnUse" x1="102.76810981741" x2="102.87246122723" y1="74.23259508393" y2="91.76373127785"><stop offset="0" stop-color="#979797"/><stop offset=".148461" stop-color="#f6f6f6"/><stop offset=".28399727" stop-color="#e2e2e2"/><stop offset=".59572202" stop-color="#dedede"/><stop offset=".73809379" stop-color="#f6f6f6"/><stop offset="1" stop-color="#6b6b6b"/></linearGradient><linearGradient id="y" gradientUnits="userSpaceOnUse" x1="102.65403035741" x2="102.70640767086" y1="-113.35273306667" y2="-92.58658629367"><stop offset="0" stop-color="#777"/><stop offset=".07421063" stop-color="#a8a8a8"/><stop offset=".22864534" stop-color="#cdcdcd"/><stop offset=".34561315" stop-color="#f7f7f7"/><stop offset="1" stop-color="#fff"/></linearGradient><path d="m8 31.375v3.625 3.625l56 36.375 56-36.375v-3.625-3.625z" fill="#fff" opacity=".5"/><path d="m8 32.575v1.625.5 1.525 66.18486 1.29014h1.0377086.4198446.022097 110.5203498v-67.475-1.525-.5-1.625z" style="opacity:.688372;stroke:#000;stroke-width:3;stroke-linecap:round;stroke-linejoin:round;filter:url(#d)"/><path d="m8 32h112v72h-112z" fill="url(#i)"/><path d="m8 32h112v72h-112z" fill="url(#h)"/><path d="m8 32v3.625l56 36.375 56-36.375v-3.625z" fill="url(#g)"/><path d="m8 35.625v68.375h112v-68.375l-56 36.375z" fill="url(#f)"/><path d="m8 35.625 56 38.375 56-38.375-56 36.375z" fill="#fff"/><path clip-path="url(#c)" d="m8 33.000267 47.420173 34.356424 8.579827-6.063681 8.652644 6.014271 47.347356-34.307014v-2.499197h-112z" fill="#2d2d2d" filter="url(#j)" opacity=".5" transform="matrix(1 0 0 -.9994652 0 134.46123)"/><path d="m8 101.12047 56-37.12047 56 37.12047v2.06703c0 .46607-.27261.8127-.76875.8127h-110.496875c-.4101346 0-.7324931-.28054-.734518-.82051z" fill="url(#e)"/><path d="m64 64-56 37.125v1l56-32.125 56 32.125v-1z" fill="#fff"/><path clip-path="url(#c)" d="m8 35.001337 56 42.300234 56-42.300234v-4.500267h-112z" fill="#2d2d2d" filter="url(#j)" opacity=".5" transform="matrix(1 0 0 .9994652 0 1.985936)"/><path d="m8 35.326696 56 39.120474 56-39.120474v-2.511996c0-.46607-.27261-.8127-.76875-.8127h-110.496875c-.4101346 0-.7324931.28054-.734518.82051z" fill="url(#k)"/><path d="m64 74.44717-56-39.125004v-1l56 34.125004 56-34.225004v1z" fill="#fff"/><rect fill="#fff" height="4" opacity=".832558" rx="2.721268" ry="2.6666" width="112" x="8" y="32"/><g transform="translate(.000002)"><path d="m111.414 86.586c.25-.25-26.379-1.586-31.414-1.586-1.654 0-3 1.346-3 3 0 5.035 1.336 31.664 1.586 31.414z" fill="url(#l)" filter="url(#m)" opacity=".1"/><path d="m111.414 86.586c.375-.375-21.97-.586-31.414-.586-1.103 0-2 .897-2 2 0 9.444.211 31.789.586 31.414z" filter="url(#n)" opacity=".2"/><path d="m111.414 86.586c.239-.239-21.607.414-31.414.414-.553 0-1 .447-1 1 0 9.807-.653 31.653-.414 31.414z" fill="url(#o)" filter="url(#p)" opacity=".1"/><path d="m78.586 119.414s11.914-9.914 17.414-15.414 15.414-17.414 15.414-17.414-21.164 1.414-31.414 1.414c0 10.25-1.414 31.414-1.414 31.414z" fill="url(#q)"/></g><path d="m76.468002 50.141159h51.194408v77.779846h-51.194408z" fill="#4d4d4d"/><path d="m78.610855 51.745529h46.908691v74.213753h-46.908691z" fill="url(#r)"/><path d="m78.611158 51.745994v51.285156c16.429399-20.561618 32.025322-27.545067 46.908202-28.796875v-22.488281z" fill="url(#s)" fill-rule="evenodd"/><path d="m90.869019 66.535934h22.89193v42.1455h-22.89193z" fill="url(#t)"/><path clip-path="url(#v)" d="m92.81509 1029.6319c1.071428 1.4286 10.71429 15.3572 11.78571 13.5715 1.07143-1.7858 26.42857-25.3572 25-26.7858-1.42857-1.4285-33.928567-41.78567-33.928567-41.78567z" fill="url(#u)" fill-rule="evenodd" filter="url(#w)" transform="matrix(.69309305 0 0 .69309305 41.153912 -600.6251)"/><path d="m92.998886 69.547226h18.632183v36.122967h-18.632183z" fill="#171717"/><path d="m94.788589 74.331589h15.05279v17.709164h-15.05279z" fill="url(#x)"/><path d="m94.827606-113.59648h14.974748v21.984106h-14.974748z" fill="url(#y)" transform="scale(1 -1)"/></svg>