<svg enable-background="new 0 0 128 128" height="128" viewBox="0 0 128 128" width="128" xmlns="http://www.w3.org/2000/svg" xmlns:xlink="http://www.w3.org/1999/xlink"><linearGradient id="a"><stop offset="0" stop-color="#fff"/><stop offset="1" stop-color="#fff" stop-opacity="0"/></linearGradient><linearGradient id="b" gradientUnits="userSpaceOnUse" x1="88.591797" x2="71.262016" y1="96.592697" y2="79.262917"><stop offset="0" stop-color="#fff"/><stop offset="1" stop-color="#555753"/></linearGradient><linearGradient id="c" gradientUnits="userSpaceOnUse" x1="85.219681" x2="61.336319" y1="93.219681" y2="69.336319"><stop offset="0"/><stop offset="1" stop-color="#393b38"/></linearGradient><linearGradient id="d" gradientUnits="userSpaceOnUse" x1="96" x2="88.0002" y1="104" y2="96.0002"><stop offset="0" stop-color="#888a85"/><stop offset=".0072" stop-color="#8c8e89"/><stop offset=".0673" stop-color="#abaca9"/><stop offset=".1347" stop-color="#c5c6c4"/><stop offset=".2115" stop-color="#dbdbda"/><stop offset=".3012" stop-color="#ebebeb"/><stop offset=".4122" stop-color="#f7f7f6"/><stop offset=".5679" stop-color="#fdfdfd"/><stop offset="1" stop-color="#fff"/></linearGradient><radialGradient id="e" cx="102" cy="112.3047" gradientTransform="matrix(.9787234 0 0 .9818182 1.361705 1.163636)" gradientUnits="userSpaceOnUse" r="139.55859"><stop offset="0" stop-color="#535557"/><stop offset=".11366145" stop-color="#898a8c"/><stop offset=".20296688" stop-color="#ececec"/><stop offset=".2363" stop-color="#fafafa"/><stop offset=".2722" stop-color="#fff"/><stop offset=".5313" stop-color="#fafafa"/><stop offset=".8449" stop-color="#ebecec"/><stop offset="1" stop-color="#e1e2e3"/></radialGradient><radialGradient id="f" cx="102.000002" cy="112.3047" gradientUnits="userSpaceOnUse" r="139.5585"><stop offset="0" stop-color="#00537d"/><stop offset=".0151" stop-color="#186389"/><stop offset=".0558" stop-color="#558ca8"/><stop offset=".0964" stop-color="#89afc3"/><stop offset=".1357" stop-color="#b3ccd8"/><stop offset=".1737" stop-color="#d4e2e9"/><stop offset=".2099" stop-color="#ecf2f5"/><stop offset=".2435" stop-color="#fafcfd"/><stop offset=".2722" stop-color="#fff"/></radialGradient><filter id="g"><feGaussianBlur stdDeviation="1.0394514"/></filter><filter id="h"><feGaussianBlur stdDeviation=".50063244"/></filter><filter id="i"><feGaussianBlur stdDeviation=".40750996"/></filter><filter id="j"><feGaussianBlur stdDeviation=".4901192"/></filter><filter id="k"><feGaussianBlur stdDeviation=".90565481"/></filter><clipPath id="l"><path d="m236.74922 2.290147c0 8.971924-14.3372 16.254104-32.00119 16.254104-17.57201-.000002-31.84899-7.205862-31.99725-16.113393l.12664 6.4646545c0 8.9719285 14.21056 16.2541055 31.87458 16.2541045 17.66399 0 31.87058-7.282176 31.87058-16.2541045z"/></clipPath><filter id="m" color-interpolation-filters="sRGB"><feGaussianBlur stdDeviation=".80423991"/></filter><filter id="n" color-interpolation-filters="sRGB"><feGaussianBlur stdDeviation=".26807997"/></filter><radialGradient id="o" cx="949.33209" cy="517.87024" fx="941.93115" fy="440.16125" gradientTransform="matrix(.216526 .00830156 -.00660672 .1269813 2.61637 -83.321545)" gradientUnits="userSpaceOnUse" r="119.39729" xlink:href="#a"/><linearGradient id="p" gradientUnits="userSpaceOnUse" spreadMethod="reflect" x1="341.5318" x2="341.5318" y1="452.76285" y2="668.31335"><stop offset="0" stop-color="#d3d3d3"/><stop offset=".26213592" stop-color="#e4e4e4"/><stop offset=".63106799" stop-color="#dfdfdf"/><stop offset="1" stop-color="#c0c0c0"/></linearGradient><radialGradient id="q" cx="902.44019" cy="521.14673" fy="725.48541" gradientTransform="matrix(.12657425 .00418448 -.00349815 .10581386 92.347345 -74.637287)" gradientUnits="userSpaceOnUse" r="252.67184"><stop offset="0" stop-color="#a7a7a7"/><stop offset=".28746885" stop-color="#b7b7b7"/><stop offset=".35849056" stop-color="#f2f2f2"/><stop offset=".69134921" stop-color="#858585"/><stop offset=".76705599" stop-color="#8f8f8f"/><stop offset=".84946543" stop-color="#a4a4a4"/><stop offset=".88352799" stop-color="#757575"/><stop offset=".912646" stop-color="#989898"/><stop offset="1" stop-color="#acacac"/></radialGradient><radialGradient id="r" cx="1304.4258" cy="438.30466" gradientTransform="matrix(1.4615497 0 0 .7922186 -1517.0981 316.29645)" gradientUnits="userSpaceOnUse" r="252.67184" xlink:href="#a"/><filter id="s" color-interpolation-filters="sRGB"><feGaussianBlur stdDeviation=".6301309"/></filter><linearGradient id="t" gradientUnits="userSpaceOnUse" x1="1228.4824" x2="1228.4824" y1="349.26135" y2="687.31006"><stop offset="0" stop-color="#474747"/><stop offset="1" stop-color="#474747" stop-opacity="0"/></linearGradient><filter id="u" color-interpolation-filters="sRGB"><feGaussianBlur stdDeviation="4.7167893"/></filter><linearGradient id="v" gradientUnits="userSpaceOnUse" x1="154.53911" x2="154.03125" y1="13.390625" y2="47.890625"><stop offset="0"/><stop offset="1" stop-opacity="0"/></linearGradient><clipPath id="w"><ellipse cx="341.5318" cy="637.24835" rx="252.67799" ry="126.339" transform="matrix(.1266434 0 0 .139849 119.28636 -49.149663)"/></clipPath><filter id="x" color-interpolation-filters="sRGB"><feGaussianBlur stdDeviation=".33781807"/></filter><radialGradient id="y" cx="921.0246" cy="489.46097" fx="924.29492" fy="456.94849" gradientTransform="matrix(.42030766 0 -.00520448 .19359874 -191.396 -121.09596)" gradientUnits="userSpaceOnUse" r="119.39729" xlink:href="#a"/><filter id="z" color-interpolation-filters="sRGB"><feGaussianBlur stdDeviation=".057694406"/></filter><clipPath id="A"><path d="m236.74922 21.040147c0 8.971924-14.3372 16.254104-32.00119 16.254104-17.57201-.000002-31.84899-7.205862-31.99725-16.113393l.12664 6.464655c0 8.971928 14.21056 16.254105 31.87458 16.254104 17.66399 0 31.87058-7.282176 31.87058-16.254104z"/></clipPath><filter id="B" color-interpolation-filters="sRGB" height="1.300219" width="1.107235" x="-.053617" y="-.15011"><feGaussianBlur stdDeviation="1.4297598"/></filter><filter id="C" color-interpolation-filters="sRGB"><feGaussianBlur stdDeviation="1.5753272"/></filter><linearGradient id="D" gradientUnits="userSpaceOnUse" x1="10" x2="10" y1="15.556602" y2="12.444199"><stop offset="0" stop-color="#fff"/><stop offset="1" stop-color="#ddd"/></linearGradient><linearGradient id="E" gradientUnits="userSpaceOnUse" x1="11.1006" x2="8.9005" y1="15.100601" y2="12.900497"><stop offset="0" stop-color="#eaeaea"/><stop offset="1" stop-color="#616161"/></linearGradient><path d="m23 9 .040816 112h61.131184c.53 0 1.039-.211 1.414-.586l32.828-32.828c.375-.375.586-.884.586-1.414v-77.172z" filter="url(#g)" opacity=".306849" transform="matrix(1.0416667 0 0 1.0357143 -9.958333 -3.321534)"/><path d="m24.919999 10.931136v108.137934l58.676001-.0001c.53 0 1.039-.211 1.414-.586l31.484-31.765936c.375-.375.586-.884.586-1.414v-74.371898z" filter="url(#h)" opacity=".89589" transform="matrix(1.0416667 0 0 1.0357143 -9.958333 -3.321534)"/><path d="m23 9.9655172.040816 111.0344828h61.131184c.53 0 1.039-.211 1.414-.586l32.828-32.828c.375-.375.586-.884.586-1.414v-76.2064828z" filter="url(#g)" opacity=".306849" transform="matrix(1.0416667 0 0 1.0357143 -9.958333 -3.321534)"/><path d="m16.000002 8v112h61.172c.53 0 1.039-.211 1.414-.586l32.827998-32.828c.375-.375.586-.884.586-1.414v-77.172z" fill="url(#f)"/><path d="m19.678725 10.7c-.539276 0-.978723.440836-.978723.981818l-.7 105.336362c0 .54197.439447.98182.978723.98182h57.913022c.257404 0 .509915-.10407.691957-.28767l32.129526-32.23113c.18303-.1836.28677-.435927.28677-.694145v-73.805237c0-.540982-.43847-.981818-.97872-.981818z" fill="url(#e)"/><g transform="matrix(1.24914818813 0 0 1.28559010436 -187.98974214166 90.62050618908)"><path clip-path="url(#l)" d="m236.74922-2.959853c0 8.971924-14.3372 16.254104-32.00119 16.254104-17.57201-.000002-31.84899-7.205862-31.99725-16.113393l.12664 6.4646545c0 8.9719285 14.21056 16.2541055 31.87458 16.2541045 17.66399 0 31.87058-7.282176 31.87058-16.2541045z" filter="url(#m)" transform="translate(0 -11.6)"/><path clip-path="url(#l)" d="m236.74922-2.959853c0 8.971924-14.3372 16.254104-32.00119 16.254104-17.57201-.000002-31.84899-7.205862-31.99725-16.113393l.12664 6.4646545c0 8.9719285 14.21056 16.2541055 31.87458 16.2541045 17.66399 0 31.87058-7.282176 31.87058-16.2541045z" filter="url(#n)" transform="translate(0 -11.6)"/><path d="m227.5058-9.6807605c1.621 5.193172-8.05623 9.73979599-22.69227 9.73979599-15.34334 0-24.84902-4.69226019-22.69226-9.73979599 2.81318-6.5838215 12.97932-9.7397965 22.69226-9.7397965 9.3613 0 20.86556 3.887588 22.69227 9.7397965z" fill="url(#o)"/><ellipse cx="341.5318" cy="637.24835" fill="url(#p)" rx="252.67799" ry="126.339" transform="matrix(.1266434 0 0 .12864985 161.49725 -96.94021)"/><path d="m236.74922-14.959853c0 8.9719242-14.3372 16.2541042-32.00119 16.2541042-17.57201-.0000027-31.84899-7.2058625-31.99725-16.1133932l.12664 6.4646545c0 8.97192897 14.21056 16.2541053 31.87458 16.2541043 17.66399 0 31.87058-7.28217533 31.87058-16.2541043z" fill="url(#q)"/><path d="m134.39008 526.22954c-.2863 2.46133-.4688 4.94049-.4687 7.4375 10.36375 61.48028 113.23091 122.54765 252.6874 120.12532 140.89896-2.44738 242.96054-57.02666 252.6563-118.57071.38874-2.46752-.1512-4.97617-.4375-7.4375-7.7085 66.28118-117.7345 122.79277-252.2188 122.79277-134.4842 0-244.5102-58.0662-252.2187-124.34738z" fill="url(#r)" filter="url(#s)" transform="matrix(.1266434 0 0 .12864985 155.79052 -82.328538)"/><path d="m1050.3125 441.16063c-.2863 2.46133-.4688 4.94049-.4687 7.4375 0 69.73913 113.2092 126.34374 252.6874 126.34375 139.4783 0 252.6563-56.60463 252.6563-126.34375 0-2.49701-.1512-4.97617-.4375-7.4375-7.7085 66.28118-117.7345 124.90625-252.2188 124.90625-134.4842 0-244.5102-58.62507-252.2187-124.90625z" fill="url(#t)" filter="url(#u)" opacity=".505535" transform="matrix(.1240149 0 0 .12597969 43.2187 -72.010816)"/><path clip-path="url(#w)" d="m162.53125 21.442859c-17.664 0-32 8.229416-32 17.982365 0 .16808.0228.333043.0313.5.4824-9.520852 14.60917-17.482365 31.96875-17.482365 17.35915 0 31.48569 7.961843 31.96875 17.482365.008-.167191.0313-.331684.0313-.5 0-9.752947-14.336-17.982365-32-17.982365z" fill="url(#v)" filter="url(#x)" transform="matrix(1 0 0 .9199197 42.21284 -51.733938)"/><path d="m205-30.625c-12.42716 0-26.05067 4.05435-29.64997 10.665133-1.74801 3.210518 4.27872 7.867459 11.46247 7.209867 15.58759-2.332403 32.32326-5.259529 47.21875-8.03125-.007-.01854.007-.04394 0-.0625-2.33716-5.876175-17.05401-9.78125-29.03125-9.78125z" fill="url(#y)" filter="url(#z)"/><path clip-path="url(#A)" d="m236.74922 26.665147c0 8.971924-14.3372 16.254104-32.00119 16.254104-17.57201-.000002-31.84899-7.205862-31.99725-16.113393l.12664 6.464655c0 8.971928 14.21056 16.254105 31.87458 16.254104 17.66399 0 31.87058-7.282176 31.87058-16.254104z" fill="#fff" filter="url(#B)" opacity=".660167" transform="translate(0 -36.05)"/><path d="m134.39008 526.22954c-.2863 2.46133-.4688 4.94049-.4687 7.4375 10.36375 61.48028 113.21652 121.53213 252.6874 120.12532 137.13634-1.38326 235.20153-53.21417 252.6563-118.57071.64496-2.41495-.1512-4.97617-.4375-7.4375-7.7085 66.28118-117.7345 122.79277-252.2188 122.79277-134.4842 0-244.5102-58.0662-252.2187-124.34738z" fill="url(#r)" filter="url(#C)" transform="matrix(.1266434 0 0 .12864985 155.79052 -82.328538)"/></g><g transform="matrix(1.24914818813 0 0 1.28559010436 -187.98974214166 79.25738817769)"><path clip-path="url(#l)" d="m236.74922-2.959853c0 8.971924-14.3372 16.254104-32.00119 16.254104-17.57201-.000002-31.84899-7.205862-31.99725-16.113393l.12664 6.4646545c0 8.9719285 14.21056 16.2541055 31.87458 16.2541045 17.66399 0 31.87058-7.282176 31.87058-16.2541045z" filter="url(#n)" transform="translate(0 -11.6)"/><path d="m227.5058-9.6807605c1.621 5.193172-8.05623 9.73979599-22.69227 9.73979599-15.34334 0-24.84902-4.69226019-22.69226-9.73979599 2.81318-6.5838215 12.97932-9.7397965 22.69226-9.7397965 9.3613 0 20.86556 3.887588 22.69227 9.7397965z" fill="url(#o)"/><ellipse cx="341.5318" cy="637.24835" fill="url(#p)" rx="252.67799" ry="126.339" transform="matrix(.1266434 0 0 .12864985 161.49725 -96.94021)"/><path d="m236.74922-14.959853c0 8.9719242-14.3372 16.2541042-32.00119 16.2541042-17.57201-.0000027-31.84899-7.2058625-31.99725-16.1133932l.12664 6.4646545c0 8.97192897 14.21056 16.2541053 31.87458 16.2541043 17.66399 0 31.87058-7.28217533 31.87058-16.2541043z" fill="url(#q)"/><path d="m134.39008 526.22954c-.2863 2.46133-.4688 4.94049-.4687 7.4375 10.36375 61.48028 113.23091 122.54765 252.6874 120.12532 140.89896-2.44738 242.96054-57.02666 252.6563-118.57071.38874-2.46752-.1512-4.97617-.4375-7.4375-7.7085 66.28118-117.7345 122.79277-252.2188 122.79277-134.4842 0-244.5102-58.0662-252.2187-124.34738z" fill="url(#r)" filter="url(#s)" transform="matrix(.1266434 0 0 .12864985 155.79052 -82.328538)"/><path d="m1050.3125 441.16063c-.2863 2.46133-.4688 4.94049-.4687 7.4375 0 69.73913 113.2092 126.34374 252.6874 126.34375 139.4783 0 252.6563-56.60463 252.6563-126.34375 0-2.49701-.1512-4.97617-.4375-7.4375-7.7085 66.28118-117.7345 124.90625-252.2188 124.90625-134.4842 0-244.5102-58.62507-252.2187-124.90625z" fill="url(#t)" filter="url(#u)" opacity=".505535" transform="matrix(.1240149 0 0 .12597969 43.2187 -72.010816)"/><path clip-path="url(#w)" d="m162.53125 21.442859c-17.664 0-32 8.229416-32 17.982365 0 .16808.0228.333043.0313.5.4824-9.520852 14.60917-17.482365 31.96875-17.482365 17.35915 0 31.48569 7.961843 31.96875 17.482365.008-.167191.0313-.331684.0313-.5 0-9.752947-14.336-17.982365-32-17.982365z" fill="url(#v)" filter="url(#x)" transform="matrix(1 0 0 .9199197 42.21284 -51.733938)"/><path d="m205-30.625c-12.42716 0-26.05067 4.05435-29.64997 10.665133-1.74801 3.210518 4.27872 7.867459 11.46247 7.209867 15.58759-2.332403 32.32326-5.259529 47.21875-8.03125-.007-.01854.007-.04394 0-.0625-2.33716-5.876175-17.05401-9.78125-29.03125-9.78125z" fill="url(#y)" filter="url(#z)"/><path clip-path="url(#A)" d="m236.74922 26.665147c0 8.971924-14.3372 16.254104-32.00119 16.254104-17.57201-.000002-31.84899-7.205862-31.99725-16.113393l.12664 6.464655c0 8.971928 14.21056 16.254105 31.87458 16.254104 17.66399 0 31.87058-7.282176 31.87058-16.254104z" fill="#fff" filter="url(#B)" opacity=".660167" transform="translate(0 -36.05)"/><path d="m134.39008 526.22954c-.2863 2.46133-.4688 4.94049-.4687 7.4375 10.36375 61.48028 113.21652 121.53213 252.6874 120.12532 137.13634-1.38326 235.20153-53.21417 252.6563-118.57071.64496-2.41495-.1512-4.97617-.4375-7.4375-7.7085 66.28118-117.7345 122.79277-252.2188 122.79277-134.4842 0-244.5102-58.0662-252.2187-124.34738z" fill="url(#r)" filter="url(#C)" transform="matrix(.1266434 0 0 .12864985 155.79052 -82.328538)"/></g><g transform="matrix(1.24914818813 0 0 1.28559010436 -187.98974214166 67.96198100873)"><path clip-path="url(#l)" d="m236.74922-2.959853c0 8.971924-14.3372 16.254104-32.00119 16.254104-17.57201-.000002-31.84899-7.205862-31.99725-16.113393l.12664 6.4646545c0 8.9719285 14.21056 16.2541055 31.87458 16.2541045 17.66399 0 31.87058-7.282176 31.87058-16.2541045z" filter="url(#n)" transform="translate(0 -11.6)"/><path d="m227.5058-9.6807605c1.621 5.193172-8.05623 9.73979599-22.69227 9.73979599-15.34334 0-24.84902-4.69226019-22.69226-9.73979599 2.81318-6.5838215 12.97932-9.7397965 22.69226-9.7397965 9.3613 0 20.86556 3.887588 22.69227 9.7397965z" fill="url(#o)"/><ellipse cx="341.5318" cy="637.24835" fill="url(#p)" rx="252.67799" ry="126.339" transform="matrix(.1266434 0 0 .12864985 161.49725 -96.94021)"/><path d="m236.74922-14.959853c0 8.9719242-14.3372 16.2541042-32.00119 16.2541042-17.57201-.0000027-31.84899-7.2058625-31.99725-16.1133932l.12664 6.4646545c0 8.97192897 14.21056 16.2541053 31.87458 16.2541043 17.66399 0 31.87058-7.28217533 31.87058-16.2541043z" fill="url(#q)"/><path d="m134.39008 526.22954c-.2863 2.46133-.4688 4.94049-.4687 7.4375 10.36375 61.48028 113.23091 122.54765 252.6874 120.12532 140.89896-2.44738 242.96054-57.02666 252.6563-118.57071.38874-2.46752-.1512-4.97617-.4375-7.4375-7.7085 66.28118-117.7345 122.79277-252.2188 122.79277-134.4842 0-244.5102-58.0662-252.2187-124.34738z" fill="url(#r)" filter="url(#s)" transform="matrix(.1266434 0 0 .12864985 155.79052 -82.328538)"/><path d="m1050.3125 441.16063c-.2863 2.46133-.4688 4.94049-.4687 7.4375 0 69.73913 113.2092 126.34374 252.6874 126.34375 139.4783 0 252.6563-56.60463 252.6563-126.34375 0-2.49701-.1512-4.97617-.4375-7.4375-7.7085 66.28118-117.7345 124.90625-252.2188 124.90625-134.4842 0-244.5102-58.62507-252.2187-124.90625z" fill="url(#t)" filter="url(#u)" opacity=".505535" transform="matrix(.1240149 0 0 .12597969 43.2187 -72.010816)"/><path clip-path="url(#w)" d="m162.53125 21.442859c-17.664 0-32 8.229416-32 17.982365 0 .16808.0228.333043.0313.5.4824-9.520852 14.60917-17.482365 31.96875-17.482365 17.35915 0 31.48569 7.961843 31.96875 17.482365.008-.167191.0313-.331684.0313-.5 0-9.752947-14.336-17.982365-32-17.982365z" fill="url(#v)" filter="url(#x)" transform="matrix(1 0 0 .9199197 42.21284 -51.733938)"/><path d="m205-30.625c-12.42716 0-26.05067 4.05435-29.64997 10.665133-1.74801 3.210518 4.27872 7.867459 11.46247 7.209867 15.58759-2.332403 32.32326-5.259529 47.21875-8.03125-.007-.01854.007-.04394 0-.0625-2.33716-5.876175-17.05401-9.78125-29.03125-9.78125z" fill="url(#y)" filter="url(#z)"/><path clip-path="url(#A)" d="m236.74922 26.665147c0 8.971924-14.3372 16.254104-32.00119 16.254104-17.57201-.000002-31.84899-7.205862-31.99725-16.113393l.12664 6.464655c0 8.971928 14.21056 16.254105 31.87458 16.254104 17.66399 0 31.87058-7.282176 31.87058-16.254104z" fill="#fff" filter="url(#B)" opacity=".660167" transform="translate(0 -36.05)"/><path d="m134.39008 526.22954c-.2863 2.46133-.4688 4.94049-.4687 7.4375 10.36375 61.48028 113.21652 121.53213 252.6874 120.12532 137.13634-1.38326 235.20153-53.21417 252.6563-118.57071.64496-2.41495-.1512-4.97617-.4375-7.4375-7.7085 66.28118-117.7345 122.79277-252.2188 122.79277-134.4842 0-244.5102-58.0662-252.2187-124.34738z" fill="url(#r)" filter="url(#C)" transform="matrix(.1266434 0 0 .12864985 155.79052 -82.328538)"/></g><g transform="matrix(1.24914818813 0 0 1.28559010436 -187.98974214166 56.59886140155)"><path clip-path="url(#l)" d="m236.74922-2.959853c0 8.971924-14.3372 16.254104-32.00119 16.254104-17.57201-.000002-31.84899-7.205862-31.99725-16.113393l.12664 6.4646545c0 8.9719285 14.21056 16.2541055 31.87458 16.2541045 17.66399 0 31.87058-7.282176 31.87058-16.2541045z" filter="url(#n)" transform="translate(0 -11.6)"/><path d="m227.5058-9.6807605c1.621 5.193172-8.05623 9.73979599-22.69227 9.73979599-15.34334 0-24.84902-4.69226019-22.69226-9.73979599 2.81318-6.5838215 12.97932-9.7397965 22.69226-9.7397965 9.3613 0 20.86556 3.887588 22.69227 9.7397965z" fill="url(#o)"/><ellipse cx="341.5318" cy="637.24835" fill="url(#p)" rx="252.67799" ry="126.339" transform="matrix(.1266434 0 0 .12864985 161.49725 -96.94021)"/><path d="m236.74922-14.959853c0 8.9719242-14.3372 16.2541042-32.00119 16.2541042-17.57201-.0000027-31.84899-7.2058625-31.99725-16.1133932l.12664 6.4646545c0 8.97192897 14.21056 16.2541053 31.87458 16.2541043 17.66399 0 31.87058-7.28217533 31.87058-16.2541043z" fill="url(#q)"/><path d="m134.39008 526.22954c-.2863 2.46133-.4688 4.94049-.4687 7.4375 10.36375 61.48028 113.23091 122.54765 252.6874 120.12532 140.89896-2.44738 242.96054-57.02666 252.6563-118.57071.38874-2.46752-.1512-4.97617-.4375-7.4375-7.7085 66.28118-117.7345 122.79277-252.2188 122.79277-134.4842 0-244.5102-58.0662-252.2187-124.34738z" fill="url(#r)" filter="url(#s)" transform="matrix(.1266434 0 0 .12864985 155.79052 -82.328538)"/><path d="m1050.3125 441.16063c-.2863 2.46133-.4688 4.94049-.4687 7.4375 0 69.73913 113.2092 126.34374 252.6874 126.34375 139.4783 0 252.6563-56.60463 252.6563-126.34375 0-2.49701-.1512-4.97617-.4375-7.4375-7.7085 66.28118-117.7345 124.90625-252.2188 124.90625-134.4842 0-244.5102-58.62507-252.2187-124.90625z" fill="url(#t)" filter="url(#u)" opacity=".505535" transform="matrix(.1240149 0 0 .12597969 43.2187 -72.010816)"/><path clip-path="url(#w)" d="m162.53125 21.442859c-17.664 0-32 8.229416-32 17.982365 0 .16808.0228.333043.0313.5.4824-9.520852 14.60917-17.482365 31.96875-17.482365 17.35915 0 31.48569 7.961843 31.96875 17.482365.008-.167191.0313-.331684.0313-.5 0-9.752947-14.336-17.982365-32-17.982365z" fill="url(#v)" filter="url(#x)" transform="matrix(1 0 0 .9199197 42.21284 -51.733938)"/><path d="m205-30.625c-12.42716 0-26.05067 4.05435-29.64997 10.665133-1.74801 3.210518 4.27872 7.867459 11.46247 7.209867 15.58759-2.332403 32.32326-5.259529 47.21875-8.03125-.007-.01854.007-.04394 0-.0625-2.33716-5.876175-17.05401-9.78125-29.03125-9.78125z" fill="url(#y)" filter="url(#z)"/><path clip-path="url(#A)" d="m236.74922 26.665147c0 8.971924-14.3372 16.254104-32.00119 16.254104-17.57201-.000002-31.84899-7.205862-31.99725-16.113393l.12664 6.464655c0 8.971928 14.21056 16.254105 31.87458 16.254104 17.66399 0 31.87058-7.282176 31.87058-16.254104z" fill="#fff" filter="url(#B)" opacity=".660167" transform="translate(0 -36.05)"/><path d="m134.39008 526.22954c-.2863 2.46133-.4688 4.94049-.4687 7.4375 10.36375 61.48028 113.21652 121.53213 252.6874 120.12532 137.13634-1.38326 235.20153-53.21417 252.6563-118.57071.64496-2.41495-.1512-4.97617-.4375-7.4375-7.7085 66.28118-117.7345 122.79277-252.2188 122.79277-134.4842 0-244.5102-58.0662-252.2187-124.34738z" fill="url(#r)" filter="url(#C)" transform="matrix(.1266434 0 0 .12864985 155.79052 -82.328538)"/></g><g stroke-width=".1"><circle cx="10" cy="14" fill="url(#D)" r="2" transform="matrix(1.42288859368 0 0 1.42288859368 8.0791204116 -5.85458915131)"/><circle cx="10" cy="14" fill="url(#E)" r="1.556" transform="matrix(1.63445163683 0 0 1.63445163683 5.96348442705 -8.81647463001)"/><circle cx="10" cy="14" fill="url(#D)" r="2" transform="matrix(1.66818996044 0 0 1.66819039605 5.62610080185 -9.52032548584)"/><circle cx="10" cy="14" fill="url(#E)" r="1.556" transform="matrix(1.91622578431 0 0 1.91622628469 3.14573605293 -12.99283129673)"/><circle cx="10" cy="14" fill="url(#D)" r="2" transform="matrix(1.66818996044 0 0 1.66819039605 5.52610080185 6.76157651416)"/><circle cx="10" cy="14" fill="url(#E)" r="1.556" transform="matrix(1.91622578431 0 0 1.91622628469 3.04573605293 3.28907070327)"/><circle cx="10" cy="14" fill="url(#D)" r="2" transform="matrix(1.66818996044 0 0 1.66819039605 5.52610080185 23.14347951416)"/><circle cx="10" cy="14" fill="url(#E)" r="1.556" transform="matrix(1.91622578431 0 0 1.91622628469 3.04573605293 19.67097370327)"/><circle cx="10" cy="14" fill="url(#D)" r="2" transform="matrix(1.66818996044 0 0 1.66819039605 5.42610080185 38.82538251416)"/><circle cx="10" cy="14" fill="url(#E)" r="1.556" transform="matrix(1.91622578431 0 0 1.91622628469 2.94573605293 35.35287670327)"/><circle cx="10" cy="14" fill="url(#D)" r="2" transform="matrix(1.66818996044 0 0 1.66819039605 5.32610080185 55.10728551416)"/><circle cx="10" cy="14" fill="url(#E)" r="1.556" transform="matrix(1.91622578431 0 0 1.91622628469 2.84573605293 51.63477970327)"/><circle cx="10" cy="14" fill="url(#D)" r="2" transform="matrix(1.66818996044 0 0 1.66819039605 5.62610080185 70.88918751416)"/><circle cx="10" cy="14" fill="url(#E)" r="1.556" transform="matrix(1.91622578431 0 0 1.91622628469 3.14573605293 67.41668170327)"/><circle cx="10" cy="14" fill="url(#D)" r="2" transform="matrix(1.66818996044 0 0 1.66819039605 5.52610080185 87.07109151416)"/><circle cx="10" cy="14" fill="url(#E)" r="1.556" transform="matrix(1.91622578431 0 0 1.91622628469 3.04573605293 83.59858570327)"/></g><g transform="translate(.000002)"><path d="m111.414 86.586c.25-.25-26.379-1.586-31.414-1.586-1.654 0-3 1.346-3 3 0 5.035 1.336 31.664 1.586 31.414z" fill="url(#b)" filter="url(#i)" opacity=".1"/><path d="m111.414 86.586c.375-.375-21.97-.586-31.414-.586-1.103 0-2 .897-2 2 0 9.444.211 31.789.586 31.414z" filter="url(#k)" opacity=".2"/><path d="m111.414 86.586c.239-.239-21.607.414-31.414.414-.553 0-1 .447-1 1 0 9.807-.653 31.653-.414 31.414z" fill="url(#c)" filter="url(#j)" opacity=".1"/><path d="m78.586 119.414s11.914-9.914 17.414-15.414 15.414-17.414 15.414-17.414-21.164 1.414-31.414 1.414c0 10.25-1.414 31.414-1.414 31.414z" fill="url(#d)"/></g></svg>