<?xml version="1.0" encoding="UTF-8" standalone="no"?>
<!-- Created with Inkscape (http://www.inkscape.org/) -->

<svg
   xmlns:dc="http://purl.org/dc/elements/1.1/"
   xmlns:cc="http://creativecommons.org/ns#"
   xmlns:rdf="http://www.w3.org/1999/02/22-rdf-syntax-ns#"
   xmlns:svg="http://www.w3.org/2000/svg"
   xmlns="http://www.w3.org/2000/svg"
   xmlns:xlink="http://www.w3.org/1999/xlink"
   xmlns:sodipodi="http://sodipodi.sourceforge.net/DTD/sodipodi-0.dtd"
   xmlns:inkscape="http://www.inkscape.org/namespaces/inkscape"
   width="128"
   height="128"
   viewBox="0 0 33.866666 33.866668"
   version="1.1"
   id="svg8"
   inkscape:version="0.92.3 (unknown)"
   sodipodi:docname="insertlayer.svg"
   inkscape:export-filename="/home/rizmut/Dokumen/Rizmut/Github/libreoffice-style-karasa-jaga/build/images_karasa_jaga/cmd/32/insertlayer.png"
   inkscape:export-xdpi="24"
   inkscape:export-ydpi="24">
  <defs
     id="defs2">
    <linearGradient
       inkscape:collect="always"
       xlink:href="#linearGradient1414"
       id="linearGradient1416"
       x1="56"
       y1="52.000004"
       x2="88"
       y2="96"
       gradientUnits="userSpaceOnUse"
       gradientTransform="matrix(0.26458333,0,0,0.26458333,0,263.13332)" />
    <linearGradient
       inkscape:collect="always"
       id="linearGradient1414">
      <stop
         style="stop-color:#dfe2e8;stop-opacity:1"
         offset="0"
         id="stop1410" />
      <stop
         style="stop-color:#fefefe;stop-opacity:1"
         offset="1"
         id="stop1412" />
    </linearGradient>
    <linearGradient
       inkscape:collect="always"
       xlink:href="#linearGradient1427"
       id="linearGradient1429"
       x1="16"
       y1="16.000004"
       x2="88"
       y2="72"
       gradientUnits="userSpaceOnUse" />
    <linearGradient
       inkscape:collect="always"
       id="linearGradient1427">
      <stop
         style="stop-color:#fefefe;stop-opacity:1;"
         offset="0"
         id="stop1423" />
      <stop
         style="stop-color:#fefefe;stop-opacity:0;"
         offset="1"
         id="stop1425" />
    </linearGradient>
    <linearGradient
       inkscape:collect="always"
       xlink:href="#linearGradient1414"
       id="linearGradient3140"
       gradientUnits="userSpaceOnUse"
       gradientTransform="matrix(0.26458333,0,0,0.26458333,0,263.13332)"
       x1="56"
       y1="52.000004"
       x2="88"
       y2="96" />
    <linearGradient
       inkscape:collect="always"
       xlink:href="#linearGradient1427"
       id="linearGradient3142"
       gradientUnits="userSpaceOnUse"
       x1="16"
       y1="16.000004"
       x2="88"
       y2="72" />
    <linearGradient
       inkscape:collect="always"
       xlink:href="#linearGradient3362"
       id="linearGradient3364"
       x1="70"
       y1="98"
       x2="130"
       y2="98"
       gradientUnits="userSpaceOnUse" />
    <linearGradient
       inkscape:collect="always"
       id="linearGradient3362">
      <stop
         style="stop-color:#066704;stop-opacity:1;"
         offset="0"
         id="stop3358" />
      <stop
         style="stop-color:#077d05;stop-opacity:0.8392157"
         offset="1"
         id="stop3360" />
    </linearGradient>
    <radialGradient
       inkscape:collect="always"
       xlink:href="#linearGradient1752"
       id="radialGradient3368"
       gradientUnits="userSpaceOnUse"
       gradientTransform="matrix(1.0783631,-0.16325698,0.14968763,0.98873334,-23.191389,17.327301)"
       cx="108.95794"
       cy="91.491646"
       fx="108.95794"
       fy="91.491646"
       r="30" />
    <linearGradient
       inkscape:collect="always"
       id="linearGradient1752">
      <stop
         style="stop-color:#011701;stop-opacity:1"
         offset="0"
         id="stop1748" />
      <stop
         id="stop1288"
         offset="0.80671918"
         style="stop-color:#145703;stop-opacity:1" />
      <stop
         style="stop-color:#2fa207;stop-opacity:0.38431373"
         offset="1"
         id="stop1750" />
    </linearGradient>
    <radialGradient
       inkscape:collect="always"
       xlink:href="#linearGradient1752"
       id="radialGradient3351"
       cx="92.257149"
       cy="104.91638"
       fx="92.257149"
       fy="104.91638"
       r="30"
       gradientUnits="userSpaceOnUse"
       gradientTransform="matrix(1.0783631,-0.16325698,0.14968763,0.98873334,-23.191389,17.327301)" />
    <linearGradient
       inkscape:collect="always"
       xlink:href="#linearGradient3310"
       id="linearGradient20845"
       gradientUnits="userSpaceOnUse"
       gradientTransform="scale(1.0975951,0.9110828)"
       x1="26.091133"
       y1="14.856744"
       x2="31.500689"
       y2="14.856744" />
    <linearGradient
       inkscape:collect="always"
       id="linearGradient3310">
      <stop
         style="stop-color:#ffffff;stop-opacity:1;"
         offset="0"
         id="stop3312" />
      <stop
         style="stop-color:#ffffff;stop-opacity:0;"
         offset="1"
         id="stop3314" />
    </linearGradient>
    <filter
       id="filter3477-6-2-5"
       height="1.2774813"
       y="-0.13874064"
       width="1.279832"
       x="-0.13991599">
      <feGaussianBlur
         id="feGaussianBlur3479-7-7-3"
         stdDeviation="0.28784801"
         inkscape:collect="always" />
    </filter>
    <linearGradient
       x1="304.88663"
       y1="385.86127"
       x2="345.62039"
       y2="384.62384"
       id="linearGradient3298-9-5"
       xlink:href="#linearGradient4675"
       gradientUnits="userSpaceOnUse" />
    <linearGradient
       id="linearGradient4675">
      <stop
         id="stop4677"
         offset="0"
         style="stop-color:#ffffff;stop-opacity:0.68345326;" />
      <stop
         id="stop4679"
         offset="1"
         style="stop-color:#ffffff;stop-opacity:0;" />
    </linearGradient>
    <filter
       id="filter1155"
       height="1.2774813"
       y="-0.13874064"
       width="1.279832"
       x="-0.13991599">
      <feGaussianBlur
         id="feGaussianBlur1153"
         stdDeviation="0.28784801"
         inkscape:collect="always" />
    </filter>
    <radialGradient
       inkscape:collect="always"
       xlink:href="#linearGradient1737"
       id="radialGradient3343"
       cx="96"
       cy="102"
       fx="96"
       fy="102"
       r="26"
       gradientUnits="userSpaceOnUse" />
    <linearGradient
       inkscape:collect="always"
       id="linearGradient1737">
      <stop
         style="stop-color:#7ae91e;stop-opacity:0.99607843"
         offset="0"
         id="stop1733" />
      <stop
         style="stop-color:#62c916;stop-opacity:1"
         offset="1"
         id="stop1735" />
    </linearGradient>
    <linearGradient
       inkscape:collect="always"
       xlink:href="#linearGradient3310"
       id="linearGradient1286"
       x1="88.388145"
       y1="51.615383"
       x2="101.27929"
       y2="113.91425"
       gradientUnits="userSpaceOnUse"
       gradientTransform="matrix(0.92757366,0,0,0.92757366,11.686814,9.203988)" />
    <filter
       inkscape:collect="always"
       style="color-interpolation-filters:sRGB"
       id="filter3376"
       x="-0.024"
       width="1.048"
       y="-0.024"
       height="1.048">
      <feGaussianBlur
         inkscape:collect="always"
         stdDeviation="0.52"
         id="feGaussianBlur3378" />
    </filter>
    <filter
       id="filter1179"
       height="1.2774813"
       y="-0.13874064"
       width="1.279832"
       x="-0.13991599">
      <feGaussianBlur
         id="feGaussianBlur1177"
         stdDeviation="0.28784801"
         inkscape:collect="always" />
    </filter>
    <linearGradient
       inkscape:collect="always"
       xlink:href="#linearGradient3366"
       id="linearGradient3279"
       gradientUnits="userSpaceOnUse"
       gradientTransform="translate(56.7)"
       x1="31.90625"
       y1="13.510336"
       x2="34.875107"
       y2="13.510336"
       spreadMethod="reflect" />
    <linearGradient
       id="linearGradient3366">
      <stop
         style="stop-color:#c8ff87;stop-opacity:1"
         offset="0"
         id="stop3368" />
      <stop
         style="stop-color:#abff87;stop-opacity:0"
         offset="1"
         id="stop4472" />
    </linearGradient>
    <filter
       id="filter1187"
       height="1.2774813"
       y="-0.13874064"
       width="1.279832"
       x="-0.13991599">
      <feGaussianBlur
         id="feGaussianBlur1185"
         stdDeviation="0.28784801"
         inkscape:collect="always" />
    </filter>
    <linearGradient
       inkscape:collect="always"
       xlink:href="#linearGradient3207"
       id="linearGradient20847"
       gradientUnits="userSpaceOnUse"
       gradientTransform="translate(-0.3)"
       x1="31.90625"
       y1="13.510336"
       x2="34.875107"
       y2="13.510336"
       spreadMethod="reflect" />
    <linearGradient
       id="linearGradient3207">
      <stop
         style="stop-color:#ffffff;stop-opacity:1"
         offset="0"
         id="stop3209" />
      <stop
         style="stop-color:#790000;stop-opacity:0"
         offset="1"
         id="stop3211" />
    </linearGradient>
    <filter
       id="filter1195"
       height="1.2774813"
       y="-0.13874064"
       width="1.279832"
       x="-0.13991599">
      <feGaussianBlur
         id="feGaussianBlur1193"
         stdDeviation="0.28784801"
         inkscape:collect="always" />
    </filter>
    <linearGradient
       inkscape:collect="always"
       xlink:href="#linearGradient3207"
       id="linearGradient20849"
       gradientUnits="userSpaceOnUse"
       gradientTransform="translate(56.7)"
       x1="31.90625"
       y1="13.510336"
       x2="34.875107"
       y2="13.510336"
       spreadMethod="reflect" />
    <filter
       id="filter1206"
       height="1.2774813"
       y="-0.13874064"
       width="1.279832"
       x="-0.13991599">
      <feGaussianBlur
         id="feGaussianBlur1204"
         stdDeviation="0.28784801"
         inkscape:collect="always" />
    </filter>
    <filter
       id="filter1217"
       height="1.2774813"
       y="-0.13874064"
       width="1.279832"
       x="-0.13991599">
      <feGaussianBlur
         id="feGaussianBlur1215"
         stdDeviation="0.28784801"
         inkscape:collect="always" />
    </filter>
    <filter
       id="filter1228"
       height="1.2774813"
       y="-0.13874064"
       width="1.279832"
       x="-0.13991599">
      <feGaussianBlur
         id="feGaussianBlur1226"
         stdDeviation="0.28784801"
         inkscape:collect="always" />
    </filter>
    <linearGradient
       inkscape:collect="always"
       xlink:href="#linearGradient3310"
       id="linearGradient3300"
       gradientUnits="userSpaceOnUse"
       gradientTransform="scale(1.0975951,0.9110828)"
       x1="26.091133"
       y1="14.856744"
       x2="31.500689"
       y2="14.856744" />
    <linearGradient
       inkscape:collect="always"
       xlink:href="#linearGradient3207"
       id="linearGradient3302"
       gradientUnits="userSpaceOnUse"
       gradientTransform="translate(-0.3)"
       x1="31.90625"
       y1="13.510336"
       x2="34.875107"
       y2="13.510336"
       spreadMethod="reflect" />
    <linearGradient
       inkscape:collect="always"
       xlink:href="#linearGradient3207"
       id="linearGradient3304"
       gradientUnits="userSpaceOnUse"
       gradientTransform="translate(56.7)"
       x1="31.90625"
       y1="13.510336"
       x2="34.875107"
       y2="13.510336"
       spreadMethod="reflect" />
  </defs>
  <sodipodi:namedview
     id="base"
     pagecolor="#ffffff"
     bordercolor="#666666"
     borderopacity="1.0"
     inkscape:pageopacity="0.0"
     inkscape:pageshadow="2"
     inkscape:zoom="1.979899"
     inkscape:cx="8.9983644"
     inkscape:cy="24.037664"
     inkscape:document-units="mm"
     inkscape:current-layer="layer1"
     showgrid="true"
     units="px"
     inkscape:window-width="1366"
     inkscape:window-height="706"
     inkscape:window-x="0"
     inkscape:window-y="0"
     inkscape:window-maximized="1">
    <inkscape:grid
       type="xygrid"
       id="grid3086"
       spacingx="1.0583333"
       spacingy="1.0583333"
       empspacing="1" />
  </sodipodi:namedview>
  <metadata
     id="metadata5">
    <rdf:RDF>
      <cc:Work
         rdf:about="">
        <dc:format>image/svg+xml</dc:format>
        <dc:type
           rdf:resource="http://purl.org/dc/dcmitype/StillImage" />
        <dc:title></dc:title>
      </cc:Work>
    </rdf:RDF>
  </metadata>
  <g
     inkscape:label="Layer 1"
     inkscape:groupmode="layer"
     id="layer1"
     transform="translate(0,-263.13332)">
    <g
       id="g3138"
       transform="translate(-3.3333334e-7,5.2916701)"
       style="opacity:0.75">
      <path
         sodipodi:nodetypes="ccccccccccccccccccccc"
         inkscape:connector-curvature="0"
         style="opacity:1;fill:#555555;fill-opacity:1;stroke:none;stroke-width:1.19062495;stroke-linecap:round;stroke-linejoin:round;stroke-miterlimit:4;stroke-dasharray:none;stroke-dashoffset:0;stroke-opacity:1"
         d="m 0,276.89165 v 1.02733 l 0.0144694,0.0165 L 0,277.94998 l 8.4666666,11.64167 0.01447,-0.0145 0.049609,0.0145 h 24.2775874 0.994254 l 0.06408,-0.031 v -0.99632 l -0.01447,-0.0165 0.01447,-0.0145 -8.466666,-11.64167 h -0.06408 z m 1.7637166,1.05833 H 24.341666 l 7.761282,10.58334 H 9.5249999 Z"
         id="path3132" />
      <path
         style="fill:url(#linearGradient3140);fill-opacity:1;fill-rule:evenodd;stroke:none;stroke-width:0.26458332px;stroke-linecap:butt;stroke-linejoin:miter;stroke-opacity:1"
         d="M 25.335921,276.89165 H 25.4 Z m -23.5722044,1.05833 7.7612833,10.58334 H 32.102948 l -7.761282,-10.58334 z"
         id="path3134"
         inkscape:connector-curvature="0"
         sodipodi:nodetypes="cccccccc" />
      <path
         style="opacity:1;fill:url(#linearGradient3142);fill-opacity:1;stroke:none;stroke-width:4.5;stroke-linecap:round;stroke-linejoin:round;stroke-miterlimit:4;stroke-dasharray:none;stroke-dashoffset:0;stroke-opacity:1"
         d="M 6.6660156,56 21.332031,76 H 106.66797 L 92,56 Z"
         transform="matrix(0.26458333,0,0,0.26458333,0,263.13332)"
         id="path3136"
         inkscape:connector-curvature="0" />
    </g>
    <g
       id="g3130"
       transform="translate(-3.3333334e-7,-2.1166637)">
      <path
         id="rect1392"
         d="m 0,276.89165 v 1.02733 l 0.0144694,0.0165 L 0,277.94998 l 8.4666666,11.64167 0.01447,-0.0145 0.049609,0.0145 h 24.2775874 0.994254 l 0.06408,-0.031 v -0.99632 l -0.01447,-0.0165 0.01447,-0.0145 -8.466666,-11.64167 h -0.06408 z m 1.7637166,1.05833 H 24.341666 l 7.761282,10.58334 H 9.5249999 Z"
         style="opacity:1;fill:#555555;fill-opacity:1;stroke:none;stroke-width:1.19062495;stroke-linecap:round;stroke-linejoin:round;stroke-miterlimit:4;stroke-dasharray:none;stroke-dashoffset:0;stroke-opacity:1"
         inkscape:connector-curvature="0"
         sodipodi:nodetypes="ccccccccccccccccccccc" />
      <path
         sodipodi:nodetypes="cccccccc"
         inkscape:connector-curvature="0"
         id="path1405"
         d="M 25.335921,276.89165 H 25.4 Z m -23.5722044,1.05833 7.7612833,10.58334 H 32.102948 l -7.761282,-10.58334 z"
         style="fill:url(#linearGradient1416);fill-opacity:1;fill-rule:evenodd;stroke:none;stroke-width:0.26458332px;stroke-linecap:butt;stroke-linejoin:miter;stroke-opacity:1" />
      <path
         id="rect1418"
         transform="matrix(0.26458333,0,0,0.26458333,0,263.13332)"
         d="M 6.6660156,56 21.332031,76 H 106.66797 L 92,56 Z"
         style="opacity:1;fill:url(#linearGradient1429);fill-opacity:1;stroke:none;stroke-width:4.5;stroke-linecap:round;stroke-linejoin:round;stroke-miterlimit:4;stroke-dasharray:none;stroke-dashoffset:0;stroke-opacity:1"
         inkscape:connector-curvature="0" />
    </g>
    <g
       id="g3408"
       transform="matrix(0.26458333,0,0,0.26458333,-18.069418,245.27431)">
      <path
         style="opacity:1;fill:url(#linearGradient3364);fill-opacity:1;stroke:none;stroke-width:2;stroke-linecap:square;stroke-linejoin:round;stroke-miterlimit:4;stroke-dasharray:none;stroke-dashoffset:0;stroke-opacity:1"
         d="m 96,68 a 4.0004,4.0004 0 0 0 -4,4 V 90 H 74 a 4.0004,4.0004 0 0 0 -4,4 v 8 a 4.0004,4.0004 0 0 0 4,4 h 18 v 18 a 4.0004,4.0004 0 0 0 4,4 h 8 a 4.0004,4.0004 0 0 0 4,-4 v -18 h 18 a 4.0004,4.0004 0 0 0 4,-4 v -8 a 4.0004,4.0004 0 0 0 -4,-4 H 108 V 72 a 4.0004,4.0004 0 0 0 -4,-4 z"
         id="path3353"
         inkscape:connector-curvature="0" />
      <path
         style="opacity:1;fill:url(#radialGradient3368);fill-opacity:1;stroke:none;stroke-width:2;stroke-linecap:square;stroke-linejoin:round;stroke-miterlimit:4;stroke-dasharray:none;stroke-dashoffset:0;stroke-opacity:1"
         d="m 96,68 a 4.0004,4.0004 0 0 0 -4,4 V 90 H 74 a 4.0004,4.0004 0 0 0 -4,4 v 8 a 4.0004,4.0004 0 0 0 4,4 h 18 v 18 a 4.0004,4.0004 0 0 0 4,4 h 8 a 4.0004,4.0004 0 0 0 4,-4 v -18 h 18 a 4.0004,4.0004 0 0 0 4,-4 v -8 a 4.0004,4.0004 0 0 0 -4,-4 H 108 V 72 a 4.0004,4.0004 0 0 0 -4,-4 z"
         id="path3366"
         inkscape:connector-curvature="0" />
      <path
         id="path3314"
         d="m 96,68 a 4.0004,4.0004 0 0 0 -4,4 V 90 H 74 a 4.0004,4.0004 0 0 0 -4,4 v 8 a 4.0004,4.0004 0 0 0 4,4 h 18 v 18 a 4.0004,4.0004 0 0 0 4,4 h 8 a 4.0004,4.0004 0 0 0 4,-4 v -18 h 18 a 4.0004,4.0004 0 0 0 4,-4 v -8 a 4.0004,4.0004 0 0 0 -4,-4 H 108 V 72 a 4.0004,4.0004 0 0 0 -4,-4 z"
         style="opacity:1;fill:url(#radialGradient3351);fill-opacity:1;stroke:none;stroke-width:2;stroke-linecap:square;stroke-linejoin:round;stroke-miterlimit:4;stroke-dasharray:none;stroke-dashoffset:0;stroke-opacity:1"
         inkscape:connector-curvature="0" />
      <path
         d="m 31.7,16 2.875,-3.375 c -1.051205,-1.695758 -3.935136,-2.288018 -5.9375,-0.3125 l 2.8125,3.375 z"
         transform="matrix(-0.60073019,-0.60073019,0.59501648,-0.59501648,106.15853,151.49848)"
         style="opacity:0.79026214;fill:url(#linearGradient3300);fill-opacity:1;fill-rule:evenodd;stroke:none;filter:url(#filter3477-6-2-5)"
         id="path3485"
         inkscape:connector-curvature="0" />
      <path
         d="m 31.7,16 2.875,-3.375 c -1.051205,-1.695758 -3.935136,-2.288018 -5.9375,-0.3125 l 2.8125,3.375 z"
         transform="matrix(-0.54559305,0.54559305,-0.55083218,-0.55083218,129.81694,114.94021)"
         style="opacity:0.49812736;fill:url(#linearGradient3298-9-5);fill-opacity:1;fill-rule:evenodd;stroke:none;filter:url(#filter3477-6-2-5)"
         id="path3493"
         inkscape:connector-curvature="0" />
      <path
         id="rect3309"
         d="M 96,72 V 94 H 74 v 8 h 22 v 22 h 8 v -22 h 22 V 94 H 104 V 72 Z"
         style="opacity:1;fill:url(#radialGradient3343);fill-opacity:1;stroke:none;stroke-width:2;stroke-linecap:square;stroke-linejoin:round;stroke-miterlimit:4;stroke-dasharray:none;stroke-dashoffset:0;stroke-opacity:1"
         inkscape:connector-curvature="0" />
      <path
         id="path1275"
         d="M 96,72 V 93.224609 94 H 74 v 5.835938 c 5.252313,0.784812 12.103279,1.193282 17.28125,1.203122 12.42654,-0.0162 24.54521,-2.29327 34.71875,-6.523435 V 94 H 104 V 72 Z"
         style="opacity:1;fill:url(#linearGradient1286);fill-opacity:1;stroke:none;stroke-width:1.85514736;stroke-linecap:square;stroke-linejoin:round;stroke-miterlimit:4;stroke-dasharray:none;stroke-dashoffset:0;stroke-opacity:1"
         inkscape:connector-curvature="0" />
      <path
         style="opacity:1;fill:none;fill-opacity:1;stroke:#eef4ca;stroke-width:0.80000001;stroke-linecap:square;stroke-linejoin:round;stroke-miterlimit:4;stroke-dasharray:none;stroke-dashoffset:0;stroke-opacity:0.78039216;filter:url(#filter3376)"
         d="M 96,72 V 94 H 74 v 8 h 22 v 22 h 8 v -22 h 22 V 94 H 104 V 72 Z"
         id="path3370"
         inkscape:connector-curvature="0" />
      <path
         d="m 31.7,16 2.875,-3.375 c -1.051205,-1.695758 -3.935136,-2.288018 -5.9375,-0.3125 l 2.8125,3.375 z"
         transform="matrix(-0.60249952,0.60249952,0.60828509,0.60828509,83.418893,65.879107)"
         style="opacity:0.49812736;fill:url(#linearGradient20845);fill-opacity:1;fill-rule:evenodd;stroke:none;filter:url(#filter3477-6-2-5)"
         id="path5159"
         inkscape:connector-curvature="0" />
      <path
         d="m 88.7,16 2.875,-3.375 c -1.051205,-1.695758 -3.935136,-2.288018 -5.9375,-0.3125 l 2.8125,3.375 z"
         transform="matrix(-0.55083218,-0.55083218,0.54559305,-0.54559305,113.52649,159.24703)"
         style="opacity:0.79026214;fill:url(#linearGradient3279);fill-opacity:1;fill-rule:evenodd;stroke:none;filter:url(#filter3477-6-2-5)"
         id="path3487"
         inkscape:connector-curvature="0" />
      <path
         d="m 31.7,16 2.875,-3.375 c -1.051205,-1.695758 -3.935136,-2.288018 -5.9375,-0.3125 l 2.8125,3.375 z"
         transform="matrix(-0.50093417,-0.50093417,-0.49616964,0.49616964,149.45278,101.72037)"
         style="opacity:0.79026214;fill:url(#linearGradient3302);fill-opacity:1;fill-rule:evenodd;stroke:none;filter:url(#filter3477-6-2-5)"
         id="path3403"
         inkscape:connector-curvature="0" />
      <path
         d="m 88.7,16 2.875,-3.375 c -1.051205,-1.695758 -3.935136,-2.288018 -5.9375,-0.3125 l 2.8125,3.375 z"
         transform="matrix(-0.51428706,-0.51428706,-0.50939554,0.50939554,157.72648,109.73028)"
         style="opacity:0.79026214;fill:url(#linearGradient3304);fill-opacity:1;fill-rule:evenodd;stroke:none;filter:url(#filter3477-6-2-5)"
         id="path3481"
         inkscape:connector-curvature="0" />
      <path
         inkscape:connector-curvature="0"
         id="path3386"
         style="opacity:0.79026214;fill:url(#linearGradient20849);fill-opacity:1;fill-rule:evenodd;stroke:none;filter:url(#filter3477-6-2-5)"
         transform="matrix(0.51428706,-0.51428706,0.50939554,0.50939554,42.798309,109.73028)"
         d="m 88.7,16 2.875,-3.375 c -1.051205,-1.695758 -3.935136,-2.288018 -5.9375,-0.3125 l 2.8125,3.375 z" />
      <path
         inkscape:connector-curvature="0"
         id="path3390"
         style="opacity:0.79026214;fill:url(#linearGradient20847);fill-opacity:1;fill-rule:evenodd;stroke:none;filter:url(#filter3477-6-2-5)"
         transform="matrix(-0.50093417,0.50093417,-0.49616964,-0.49616964,149.45278,94.179741)"
         d="m 31.7,16 2.875,-3.375 c -1.051205,-1.695758 -3.935136,-2.288018 -5.9375,-0.3125 l 2.8125,3.375 z" />
    </g>
  </g>
</svg>
