<?xml version="1.0" encoding="UTF-8" standalone="no"?>
<!-- Created with Inkscape (http://www.inkscape.org/) -->

<svg
   xmlns:dc="http://purl.org/dc/elements/1.1/"
   xmlns:cc="http://creativecommons.org/ns#"
   xmlns:rdf="http://www.w3.org/1999/02/22-rdf-syntax-ns#"
   xmlns:svg="http://www.w3.org/2000/svg"
   xmlns="http://www.w3.org/2000/svg"
   xmlns:xlink="http://www.w3.org/1999/xlink"
   xmlns:sodipodi="http://sodipodi.sourceforge.net/DTD/sodipodi-0.dtd"
   xmlns:inkscape="http://www.inkscape.org/namespaces/inkscape"
   version="1.1"
   id="svg2"
   width="128"
   height="128"
   viewBox="0 0 128 128"
   sodipodi:docname="intersect.svg"
   inkscape:version="0.92.3 (unknown)"
   inkscape:export-filename="/home/rizmut/Dokumen/Rizmut/Github/libreoffice-style-karasa-jaga/build/images_karasa_jaga/cmd/32/intersect.png"
   inkscape:export-xdpi="24"
   inkscape:export-ydpi="24">
  <metadata
     id="metadata8">
    <rdf:RDF>
      <cc:Work
         rdf:about="">
        <dc:format>image/svg+xml</dc:format>
        <dc:type
           rdf:resource="http://purl.org/dc/dcmitype/StillImage" />
        <dc:title />
      </cc:Work>
    </rdf:RDF>
  </metadata>
  <defs
     id="defs6">
    <linearGradient
       id="linearGradient4112">
      <stop
         id="stop4114"
         offset="0"
         style="stop-color:#bbf10e;stop-opacity:1" />
      <stop
         id="stop4116"
         offset="1"
         style="stop-color:#5f9207;stop-opacity:1" />
    </linearGradient>
    <linearGradient
       id="linearGradient4105">
      <stop
         id="stop4107"
         offset="0"
         style="stop-color:#033a13;stop-opacity:1" />
      <stop
         id="stop4109"
         offset="1"
         style="stop-color:#398c37;stop-opacity:1" />
    </linearGradient>
    <linearGradient
       inkscape:collect="always"
       xlink:href="#linearGradient4373"
       id="linearGradient10248"
       gradientUnits="userSpaceOnUse"
       gradientTransform="matrix(0.17638886,0,0,0.17638871,11.288891,263.13331)"
       x1="122.70804"
       y1="2.1668341"
       x2="132"
       y2="37.94305" />
    <linearGradient
       id="linearGradient4373">
      <stop
         id="stop4375"
         style="stop-color:#717174;stop-opacity:1"
         offset="0" />
      <stop
         id="stop4377"
         style="stop-color:#9c9ca1;stop-opacity:1"
         offset="0.5" />
      <stop
         id="stop4379"
         style="stop-color:#bdbdc2;stop-opacity:1"
         offset="1" />
    </linearGradient>
    <linearGradient
       id="linearGradient2431">
      <stop
         id="stop2433"
         style="stop-color:#ffffff;stop-opacity:1"
         offset="0" />
      <stop
         id="stop2435"
         style="stop-color:#ffffff;stop-opacity:1"
         offset="0.42597079" />
      <stop
         id="stop2437"
         style="stop-color:#e5e5e5;stop-opacity:1"
         offset="0.5892781" />
      <stop
         id="stop2439"
         style="stop-color:#eaeaea;stop-opacity:1"
         offset="0.80219781" />
      <stop
         id="stop2441"
         style="stop-color:#eeeeee;stop-opacity:1"
         offset="1" />
    </linearGradient>
    <linearGradient
       id="linearGradient3310">
      <stop
         id="stop3312"
         style="stop-color:#ffffff;stop-opacity:1"
         offset="0" />
      <stop
         id="stop3314"
         style="stop-color:#ffffff;stop-opacity:0"
         offset="1" />
    </linearGradient>
    <linearGradient
       id="linearGradient7422-6">
      <stop
         style="stop-color:#b4b4b6;stop-opacity:1;"
         offset="0"
         id="stop7424-3" />
      <stop
         id="stop5367"
         offset="0.5"
         style="stop-color:#9c9ca1;stop-opacity:1;" />
      <stop
         id="stop7426-2"
         offset="1"
         style="stop-color:#cdcdd1;stop-opacity:1;" />
    </linearGradient>
    <linearGradient
       x1="399.77466"
       y1="1164.6696"
       x2="399.77466"
       y2="549.06134"
       id="linearGradient5501-5"
       xlink:href="#linearGradient4373"
       gradientUnits="userSpaceOnUse"
       gradientTransform="matrix(0,0.06940294,0.11152914,0,-45.287823,40.766246)" />
    <linearGradient
       x1="50.777336"
       y1="71.500786"
       x2="15.776781"
       y2="103.00125"
       id="linearGradient5503-3"
       xlink:href="#linearGradient2431"
       gradientUnits="userSpaceOnUse"
       gradientTransform="matrix(0,0.57141948,0.76189349,0,1.5240172,42.98484)" />
    <linearGradient
       x1="102.31124"
       y1="-5.8302126"
       x2="74.330322"
       y2="32"
       id="linearGradient5505-2"
       xlink:href="#linearGradient3310"
       gradientUnits="userSpaceOnUse"
       gradientTransform="matrix(0,-1.3692663,-1.7142582,0,105.14142,195.38719)" />
    <linearGradient
       inkscape:collect="always"
       xlink:href="#linearGradient4373"
       id="linearGradient887"
       gradientUnits="userSpaceOnUse"
       gradientTransform="matrix(0,0.06940294,0.11152914,0,-45.287823,40.766246)"
       x1="399.77466"
       y1="1164.6696"
       x2="399.77466"
       y2="549.06134" />
    <linearGradient
       inkscape:collect="always"
       xlink:href="#linearGradient7422-6"
       id="linearGradient1705"
       x1="53.544228"
       y1="38.029163"
       x2="121.03486"
       y2="38.029163"
       gradientUnits="userSpaceOnUse"
       gradientTransform="matrix(1.1267809,0,0,1.1267809,-12.377813,-0.8269622)" />
  </defs>
  <sodipodi:namedview
     pagecolor="#ffffff"
     bordercolor="#666666"
     borderopacity="1"
     objecttolerance="10"
     gridtolerance="10"
     guidetolerance="10"
     inkscape:pageopacity="0"
     inkscape:pageshadow="2"
     inkscape:window-width="1366"
     inkscape:window-height="706"
     id="namedview4"
     showgrid="true"
     inkscape:snap-page="true"
     inkscape:zoom="2.4444903"
     inkscape:cx="83.500165"
     inkscape:cy="18.176054"
     inkscape:window-x="0"
     inkscape:window-y="0"
     inkscape:window-maximized="1"
     inkscape:current-layer="g1015"
     inkscape:snap-global="true">
    <inkscape:grid
       type="xygrid"
       id="grid977"
       spacingx="4"
       spacingy="4"
       empspacing="1" />
  </sodipodi:namedview>
  <g
     id="g1015">
    <path
       style="opacity:0.75;fill:url(#linearGradient5501-5);fill-opacity:1;fill-rule:nonzero;stroke:none;stroke-width:13.71407127;stroke-linecap:round;stroke-linejoin:round;stroke-miterlimit:4;stroke-dasharray:none;stroke-dashoffset:4;stroke-opacity:1"
       d="M 15.164062 44 C 13.410773 44 12 45.213165 12 46.720703 L 12 52 L 16 52 L 16 49.265625 L 16 44 L 15.164062 44 z M 20 44 L 20 48 L 24 48 L 24 44 L 20 44 z M 28 44 L 28 48 L 32 48 L 32 44 L 28 44 z M 36 44 L 36 48 L 40 48 L 40 44 L 36 44 z M 44 44 L 44 48 L 48 48 L 48 44 L 44 44 z M 12 56 L 12 60 L 16 60 L 16 56 L 12 56 z M 12 64 L 12 68 L 16 68 L 16 64 L 12 64 z M 12 72 L 12 76 L 16 76 L 16 72 L 12 72 z M 12 80 L 12 84 L 16 84 L 16 80.472656 L 16 80 L 12 80 z M 80 80 L 80 84 L 84 84 L 84 80 L 80 80 z M 12 88 L 12 92 L 16 92 L 16 88 L 12 88 z M 80 88 L 80 92 L 84 92 L 84 88 L 80 88 z M 12 96 L 12 100 L 16 100 L 16 96 L 12 96 z M 80 96 L 80 100 L 84 100 L 84 96 L 80 96 z M 12 104 L 12 108 L 16 108 L 16 104 L 12 104 z M 80 104 L 80 108 L 84 108 L 84 104 L 80 104 z M 12 112 L 12 113.2793 C 12 114.78684 13.410773 116 15.164062 116 L 16 116 L 16 112 L 12 112 z M 20 112 L 20 116 L 24 116 L 24 112 L 20 112 z M 28 112 L 28 116 L 32 116 L 32 112 L 28 112 z M 36 112 L 36 116 L 40 116 L 40 112 L 36 112 z M 44 112 L 44 116 L 48 116 L 48 112 L 47.550781 112 L 44 112 z M 52 112 L 52 116 L 56 116 L 56 112 L 52 112 z M 60 112 L 60 116 L 64 116 L 64 112 L 60 112 z M 68 112 L 68 116 L 72 116 L 72 112 L 68 112 z M 76 112 L 76 116 L 80.835938 116 C 82.589229 116 84 114.78684 84 113.2793 L 84 112 L 78.476562 112 L 76 112 z "
       id="rect5489" />
    <path
       style="fill:url(#linearGradient5503-3);fill-opacity:1;fill-rule:evenodd;stroke:none;stroke-width:54.8562851;stroke-linecap:round;stroke-linejoin:round;stroke-miterlimit:4;stroke-dasharray:none;stroke-opacity:1"
       d="M 52.554688 48 A 34.021244 34.021244 0 0 0 80 75.466797 L 80 49.265625 C 80 48.564285 79.32074 48 78.476562 48 L 52.554688 48 z "
       id="path861" />
    <path
       style="opacity:0.75;fill:url(#linearGradient887);fill-opacity:1;fill-rule:nonzero;stroke:none;stroke-width:13.71407127;stroke-linecap:round;stroke-linejoin:round;stroke-miterlimit:4;stroke-dasharray:none;stroke-dashoffset:4;stroke-opacity:1"
       d="M 48.025391 44 A 38.023575 38.023575 0 0 0 84 79.947266 L 84 46.720703 C 84 45.213165 82.589229 44 80.835938 44 L 48.025391 44 z M 52.496094 48 L 78.476562 48 C 79.32074 48 80 48.564277 80 49.265625 L 80 75.482422 A 34.021244 34.021244 0 0 1 52.496094 48 z "
       id="rect883" />
    <path
       inkscape:connector-curvature="0"
       style="opacity:1;vector-effect:none;fill:url(#linearGradient1705);fill-opacity:1;stroke:none;stroke-width:6.91337776;stroke-linecap:butt;stroke-linejoin:miter;stroke-miterlimit:4;stroke-dasharray:none;stroke-dashoffset:0;stroke-opacity:1"
       d="m 88,4.07227 v 4.0292969 a 34.021244,34.021244 0 0 1 4.849609,0.6054687 L 93.876953,4.8750044 A 38.023575,38.023575 0 0 0 88,4.07227 Z m -4,0.027344 a 38.023575,38.023575 0 0 0 -5.886719,0.7382812 l 1.042969,3.890625 A 34.021244,34.021244 0 0 1 84,8.0703169 Z m -9.75,1.7792968 a 38.023575,38.023575 0 0 0 -5.478516,2.28125 l 1.990235,3.4453132 a 34.021244,34.021244 0 0 1 4.53125,-1.8378913 z m 23.490234,0.035156 -1.03125,3.8515625 a 34.021244,34.021244 0 0 1 4.505856,1.8808587 l 2.02344,-3.5039056 A 38.023575,38.023575 0 0 0 97.740234,5.9140668 Z m -29.941406,2.716797 a 38.023575,38.023575 0 0 0 -0.177734,0.1015625 z m 38.898442,1.5214842 -2.00977,3.482422 a 34.021244,34.021244 0 0 1 3.86914,2.980468 l 2.82422,-2.826172 a 38.023575,38.023575 0 0 0 -4.68359,-3.636718 z m -41.394536,0.002 a 38.023575,38.023575 0 0 0 -4.705078,3.613281 l 2.832032,2.833984 a 34.021244,34.021244 0 0 1 3.867187,-2.996093 z m -6.228515,5.03125 a 38.023575,38.023575 0 0 0 -0.556641,0.556641 z m -1.306641,1.412109 a 38.023575,38.023575 0 0 0 -3.646484,4.6875 l 3.482422,2.009766 a 34.021244,34.021244 0 0 1 2.988281,-3.873047 z m 56.445312,0.01953 -2.83398,2.833984 a 34.021244,34.021244 0 0 1 2.99218,3.857422 l 3.45508,-1.994141 a 38.023575,38.023575 0 0 0 -3.61328,-4.697265 z m -62.103515,8.125 a 38.023575,38.023575 0 0 0 -2.236328,5.505859 l 3.853515,1.033203 a 34.021244,34.021244 0 0 1 1.884766,-4.515625 z m 67.714845,0.03906 -3.44531,1.988281 a 34.021244,34.021244 0 0 1 1.84179,4.525391 l 3.88672,-1.041016 a 38.023575,38.023575 0 0 0 -2.2832,-5.472656 z m -70.283204,6.468707 a 38.023575,38.023575 0 0 0 -0.402344,1.5 z m -0.708985,2.863281 a 38.023575,38.023575 0 0 0 -0.804687,5.886719 h 4.03125 a 34.021244,34.021244 0 0 1 0.607422,-4.861328 z m 74.322269,0.002 -3.89063,1.042969 a 34.021244,34.021244 0 0 1 0.66406,4.84175 h 3.97266 A 38.023575,38.023575 0 0 0 123.1543,34.115238 Z M 48,40.761723 A 38.023575,38.023575 0 0 0 47.955078,42.023442 38.023575,38.023575 0 0 0 48,43.287113 Z m 76,1.222656 v 0.09375 a 38.023575,38.023575 0 0 0 0.002,-0.05469 38.023575,38.023575 0 0 0 -0.002,-0.03906 z m -4.09961,2.015625 a 34.021244,34.021244 0 0 1 -0.5957,4.851562 l 3.83203,1.027344 a 38.023575,38.023575 0 0 0 0.79492,-5.878906 z m 2.76172,7.998047 -0.0898,0.330078 a 38.023575,38.023575 0 0 0 0.0898,-0.330078 z m -4.41406,0.714844 a 34.021244,34.021244 0 0 1 -1.87696,4.511718 l 3.50391,2.023438 a 38.023575,38.023575 0 0 0 2.22656,-5.503906 z m -3.86328,7.984375 a 34.021244,34.021244 0 0 1 -2.97852,3.878906 l 2.82617,2.826172 a 38.023575,38.023575 0 0 0 3.64063,-4.691406 z m -5.8125,6.705078 a 34.021244,34.021244 0 0 1 -3.86329,3 l 1.9961,3.458984 a 38.023575,38.023575 0 0 0 4.70117,-3.625 z m 4.89453,0.871094 -0.64063,0.640624 a 38.023575,38.023575 0 0 0 0.64063,-0.640624 z M 101.25,72.414066 a 34.021244,34.021244 0 0 1 -4.535156,1.845704 l 1.042968,3.890625 a 38.023575,38.023575 0 0 0 5.482418,-2.291016 z m 3.70117,2.521485 -1.02734,0.59375 a 38.023575,38.023575 0 0 0 1.02734,-0.59375 z M 92.851562,75.302738 A 34.021244,34.021244 0 0 1 88,75.970707 v 3.974609 a 38.023575,38.023575 0 0 0 5.894531,-0.748046 z m 4.488282,3 -1.126953,0.300782 a 38.023575,38.023575 0 0 0 1.126953,-0.300782 z m -12.292969,1.697266 a 38.023575,38.023575 0 0 0 0.931641,0.04687 38.023575,38.023575 0 0 0 0.939453,-0.04687 z"
       id="path1671" />
  </g>
</svg>
