<?xml version="1.0" encoding="UTF-8" standalone="no"?>
<!-- Created with Inkscape (http://www.inkscape.org/) -->

<svg
   xmlns:dc="http://purl.org/dc/elements/1.1/"
   xmlns:cc="http://creativecommons.org/ns#"
   xmlns:rdf="http://www.w3.org/1999/02/22-rdf-syntax-ns#"
   xmlns:svg="http://www.w3.org/2000/svg"
   xmlns="http://www.w3.org/2000/svg"
   xmlns:xlink="http://www.w3.org/1999/xlink"
   xmlns:sodipodi="http://sodipodi.sourceforge.net/DTD/sodipodi-0.dtd"
   xmlns:inkscape="http://www.inkscape.org/namespaces/inkscape"
   version="1.1"
   id="svg2"
   width="128"
   height="128"
   viewBox="0 0 128 128"
   sodipodi:docname="lc_arrowshapes.up-right-arrow-callout.svg"
   inkscape:export-filename="/home/rizmut/Dokumen/Rizmut/Github/libreoffice-style-karasa-jaga/build/images_karasa_jaga/cmd/lc_arrowshapes.up-right-arrow-callout.png"
   inkscape:export-xdpi="16.5"
   inkscape:export-ydpi="16.5"
   inkscape:version="0.92.3 (unknown)">
  <metadata
     id="metadata8">
    <rdf:RDF>
      <cc:Work
         rdf:about="">
        <dc:format>image/svg+xml</dc:format>
        <dc:type
           rdf:resource="http://purl.org/dc/dcmitype/StillImage" />
        <dc:title></dc:title>
      </cc:Work>
    </rdf:RDF>
  </metadata>
  <defs
     id="defs6">
    <inkscape:perspective
       id="perspective27"
       inkscape:persp3d-origin="64 : 42.666667 : 1"
       inkscape:vp_z="128 : 64 : 1"
       inkscape:vp_y="0 : 1000 : 0"
       inkscape:vp_x="0 : 64 : 1"
       sodipodi:type="inkscape:persp3d" />
    <linearGradient
       id="linearGradient3369">
      <stop
         id="stop3372"
         offset="0"
         style="stop-color:#ffffff;stop-opacity:1;" />
      <stop
         style="stop-color:#ffffff;stop-opacity:1;"
         offset="0.63636363"
         id="stop3374" />
      <stop
         style="stop-color:#f1f1f1;stop-opacity:1;"
         offset="0.81818181"
         id="stop3376" />
      <stop
         id="stop3378"
         offset="0.90909094"
         style="stop-color:#eaeaea;stop-opacity:1;" />
      <stop
         id="stop3384"
         offset="1"
         style="stop-color:#dfdfdf;stop-opacity:1;" />
    </linearGradient>
    <linearGradient
       id="linearGradient7422">
      <stop
         style="stop-color:#7c9fcf;stop-opacity:1"
         offset="0"
         id="stop7424" />
      <stop
         id="stop5348"
         offset="0.5"
         style="stop-color:#7c9ece;stop-opacity:1" />
      <stop
         id="stop7426"
         offset="1"
         style="stop-color:#7b9dcf;stop-opacity:1" />
    </linearGradient>
    <linearGradient
       y2="388.95178"
       x2="399.77466"
       y1="1324.7792"
       x1="405.94968"
       gradientTransform="matrix(0.08097132,0,0,0.07807154,182.74486,-6.9021226)"
       gradientUnits="userSpaceOnUse"
       id="linearGradient2330"
       xlink:href="#linearGradient7422"
       inkscape:collect="always" />
    <linearGradient
       y2="63.332989"
       x2="262.24194"
       y1="63.332989"
       x1="-39.300838"
       gradientTransform="matrix(0,-0.42447773,0.25739099,0,18.607259,111.31767)"
       gradientUnits="userSpaceOnUse"
       id="linearGradient2360"
       xlink:href="#linearGradient3369"
       inkscape:collect="always" />
    <linearGradient
       inkscape:collect="always"
       xlink:href="#linearGradient7422"
       id="linearGradient846"
       x1="-0.47894183"
       y1="64.000977"
       x2="128.00586"
       y2="64.000977"
       gradientUnits="userSpaceOnUse" />
    <linearGradient
       inkscape:collect="always"
       xlink:href="#linearGradient7422"
       id="linearGradient940"
       gradientUnits="userSpaceOnUse"
       x1="-0.47894183"
       y1="64.000977"
       x2="128.00586"
       y2="64.000977" />
    <linearGradient
       inkscape:collect="always"
       xlink:href="#linearGradient3369"
       id="linearGradient942"
       gradientUnits="userSpaceOnUse"
       gradientTransform="matrix(0.42447773,0,0,0.25739099,16.68217,76.773274)"
       x1="125.17743"
       y1="199.02299"
       x2="125.17743"
       y2="-298.26791" />
  </defs>
  <sodipodi:namedview
     pagecolor="#ffffff"
     bordercolor="#666666"
     borderopacity="1"
     objecttolerance="10"
     gridtolerance="10"
     guidetolerance="10"
     inkscape:pageopacity="0"
     inkscape:pageshadow="2"
     inkscape:window-width="1366"
     inkscape:window-height="706"
     id="namedview4"
     showgrid="true"
     inkscape:snap-page="true"
     inkscape:snap-global="true"
     inkscape:zoom="2"
     inkscape:cx="92.481769"
     inkscape:cy="77.803816"
     inkscape:window-x="0"
     inkscape:window-y="0"
     inkscape:window-maximized="1"
     inkscape:current-layer="svg2"
     showguides="true">
    <inkscape:grid
       type="xygrid"
       id="grid837"
       spacingx="5.8181"
       spacingy="5.8181"
       empspacing="1" />
  </sodipodi:namedview>
  <path
     d="m 64,29.083984 a 5.8261937,5.8261937 0 0 0 -5.826172,5.826172 V 52.357422 H 57.509766 34.871094 l -0.07227,-9.21875 a 5.8261937,5.8261937 0 0 0 -0.002,-0.101563 C 34.642946,36.899737 26.930878,34.326945 22.902344,38.355469 L 1.2265625,60.03125 a 5.8261937,5.8261937 0 0 0 -1.66992188,4.761719 l 0.003906,0.03516 A 5.8261937,5.8261937 0 0 0 1.2304688,68.304688 L 22.554688,89.628906 c 2.272624,2.272606 5.962956,2.374821 8.11914,1.339844 2.156184,-1.034977 4.178795,-2.998124 4.123047,-6.492188 l 0.002,0.140626 0.07031,-8.972657 h 22.640625 0.664062 V 93.091797 A 5.8261937,5.8261937 0 0 0 64,98.917969 h 58.17969 a 5.8261937,5.8261937 0 0 0 5.82617,-5.826172 V 34.910156 a 5.8261937,5.8261937 0 0 0 -5.82617,-5.826172 z"
     id="path930"
     style="fill:url(#linearGradient940);fill-opacity:1;fill-rule:evenodd;stroke:none;stroke-width:4.6329999;stroke-linecap:round;stroke-linejoin:round;stroke-miterlimit:4;stroke-dasharray:none;stroke-opacity:1"
     inkscape:original="M 64 34.910156 L 64 58.183594 L 57.509766 58.183594 L 29.089844 58.183594 L 28.972656 43.183594 C 28.951015 42.320736 27.763314 41.732781 27.021484 42.474609 L 5.3457031 64.150391 L 5.3496094 64.185547 L 26.673828 85.509766 C 27.535968 86.371899 28.987666 85.511085 28.972656 84.570312 L 29.089844 69.818359 L 57.509766 69.818359 L 64 69.818359 L 64 93.091797 L 122.17969 93.091797 L 122.17969 34.910156 L 64 34.910156 z "
     inkscape:radius="5.8256111"
     sodipodi:type="inkscape:offset"
     transform="matrix(-1,0,0,1,128.00651,29.082031)" />
  <path
     sodipodi:type="inkscape:offset"
     inkscape:radius="5.8256111"
     inkscape:original="M 64 34.910156 L 64 58.183594 L 57.509766 58.183594 L 29.089844 58.183594 L 28.972656 43.183594 C 28.951015 42.320736 27.763314 41.732781 27.021484 42.474609 L 5.3457031 64.150391 L 5.3496094 64.185547 L 26.673828 85.509766 C 27.535968 86.371899 28.987666 85.511085 28.972656 84.570312 L 29.089844 69.818359 L 57.509766 69.818359 L 64 69.818359 L 64 93.091797 L 122.17969 93.091797 L 122.17969 34.910156 L 64 34.910156 z "
     style="fill:url(#linearGradient846);fill-opacity:1;fill-rule:evenodd;stroke:none;stroke-width:4.6329999;stroke-linecap:round;stroke-linejoin:round;stroke-miterlimit:4;stroke-dasharray:none;stroke-opacity:1"
     id="path836"
     d="m 64,29.083984 a 5.8261937,5.8261937 0 0 0 -5.826172,5.826172 V 52.357422 H 57.509766 34.871094 l -0.07227,-9.21875 a 5.8261937,5.8261937 0 0 0 -0.002,-0.101563 C 34.642946,36.899737 26.930878,34.326945 22.902344,38.355469 L 1.2265625,60.03125 a 5.8261937,5.8261937 0 0 0 -1.66992188,4.761719 l 0.003906,0.03516 A 5.8261937,5.8261937 0 0 0 1.2304688,68.304688 L 22.554688,89.628906 c 2.272624,2.272606 5.962956,2.374821 8.11914,1.339844 2.156184,-1.034977 4.178795,-2.998124 4.123047,-6.492188 l 0.002,0.140626 0.07031,-8.972657 h 22.640625 0.664062 V 93.091797 A 5.8261937,5.8261937 0 0 0 64,98.917969 h 58.17969 a 5.8261937,5.8261937 0 0 0 5.82617,-5.826172 V 34.910156 a 5.8261937,5.8261937 0 0 0 -5.82617,-5.826172 z"
     transform="matrix(0,1,1,0,-29.083984,-0.00666917)" />
  <path
     sodipodi:nodetypes="cccccccccccsccccc"
     inkscape:connector-curvature="0"
     id="rect2326"
     d="m 5.826416,122.17343 h 58.181 V 63.992431 h -23.2724 V 57.502197 29.083831 L 55.48697,28.966792 c 0.940773,0.01501 1.801586,-1.436693 0.939453,-2.298833 L 35.102258,5.3438008 35.065635,5.3398186 13.389833,27.015619 c -0.741828,0.74183 -0.153874,1.929532 0.708984,1.951173 l 14.999999,0.117039 v 28.418366 6.490234 h -23.2724 z"
     style="fill:url(#linearGradient2360);fill-opacity:1;fill-rule:evenodd;stroke:none;stroke-width:4.6329999;stroke-linecap:round;stroke-linejoin:round;stroke-miterlimit:4;stroke-dasharray:none;stroke-opacity:1" />
  <g
     transform="matrix(0.57912965,0,0,0.57912965,-31.997339,27.10756)"
     inkscape:label="Livello 1"
     id="g1544" />
  <g
     transform="matrix(-0.57912965,0,0,0.57912965,101.82767,27.10756)"
     inkscape:label="Livello 1"
     id="g1599" />
  <path
     style="fill:url(#linearGradient942);fill-opacity:1;fill-rule:evenodd;stroke:none;stroke-width:4.6329999;stroke-linecap:round;stroke-linejoin:round;stroke-miterlimit:4;stroke-dasharray:none;stroke-opacity:1"
     d="m 5.82641,63.992431 v 58.180999 h 58.181 V 98.901031 h 6.490234 28.418366 l 0.117039,14.751959 c -0.01501,0.94077 1.436691,1.80158 2.298831,0.93945 l 21.32416,-21.324167 0.004,-0.03662 -21.6758,-21.675802 c -0.74183,-0.741828 -1.92953,-0.153874 -1.951171,0.708984 L 98.91601,87.264831 H 70.497644 64.00741 v -23.2724 z"
     id="path932"
     inkscape:connector-curvature="0"
     sodipodi:nodetypes="cccccccccccsccccc" />
  <g
     id="g934"
     inkscape:label="Livello 1"
     transform="matrix(0,0.57912965,-0.57912965,0,100.89228,26.168676)" />
  <g
     id="g936"
     inkscape:label="Livello 1"
     transform="matrix(0,-0.57912965,-0.57912965,0,100.89228,159.99368)" />
</svg>
