<svg height="128" viewBox="0 0 33.866666 33.866668" width="128" xmlns="http://www.w3.org/2000/svg" xmlns:xlink="http://www.w3.org/1999/xlink"><linearGradient id="a" gradientUnits="userSpaceOnUse" x1="13.649093" x2="12.590761" xlink:href="#b" y1="258.910179" y2="292.776849"/><linearGradient id="b"><stop offset="0"/><stop offset="1" stop-color="#333"/></linearGradient><linearGradient id="c" gradientUnits="userSpaceOnUse" x1="24.393694" x2="32.237583" xlink:href="#b" y1="275.843538" y2="275.843538"/><linearGradient id="d" gradientUnits="userSpaceOnUse" x1="70" x2="130" y1="98" y2="98"><stop offset="0" stop-color="#066704"/><stop offset="1" stop-color="#077d05" stop-opacity=".839216"/></linearGradient><radialGradient id="e" cx="108.95794" cy="91.491646" gradientTransform="matrix(1.0783631 -.16325698 .14968763 .98873334 -23.191389 17.327301)" gradientUnits="userSpaceOnUse" r="30" xlink:href="#f"/><linearGradient id="f"><stop offset="0" stop-color="#011701"/><stop offset=".80671918" stop-color="#145703"/><stop offset="1" stop-color="#2fa207" stop-opacity=".384314"/></linearGradient><radialGradient id="g" cx="92.257149" cy="104.91638" gradientTransform="matrix(1.0783631 -.16325698 .14968763 .98873334 -23.191389 17.327301)" gradientUnits="userSpaceOnUse" r="30" xlink:href="#f"/><linearGradient id="h" gradientTransform="scale(1.0975951 .9110828)" gradientUnits="userSpaceOnUse" x1="26.091133" x2="31.500689" xlink:href="#i" y1="14.856744" y2="14.856744"/><linearGradient id="i"><stop offset="0" stop-color="#fff"/><stop offset="1" stop-color="#fff" stop-opacity="0"/></linearGradient><filter id="j" height="1.277481" width="1.279832" x="-.139916" y="-.138741"><feGaussianBlur stdDeviation=".28784801"/></filter><linearGradient id="k" gradientUnits="userSpaceOnUse" x1="304.88663" x2="345.62039" y1="385.86127" y2="384.62384"><stop offset="0" stop-color="#fff" stop-opacity=".683453"/><stop offset="1" stop-color="#fff" stop-opacity="0"/></linearGradient><radialGradient id="l" cx="96" cy="102" gradientUnits="userSpaceOnUse" r="26"><stop offset="0" stop-color="#7ae91e" stop-opacity=".996078"/><stop offset="1" stop-color="#62c916"/></radialGradient><linearGradient id="m" gradientUnits="userSpaceOnUse" x1="93.67332915826" x2="105.6308157075" xlink:href="#i" y1="57.08105772161" y2="114.86784579865"/><filter id="n" color-interpolation-filters="sRGB" height="1.048" width="1.048" x="-.024" y="-.024"><feGaussianBlur stdDeviation=".52"/></filter><linearGradient id="o" gradientUnits="userSpaceOnUse" spreadMethod="reflect" x1="88.60625" x2="91.575107" y1="13.510336" y2="13.510336"><stop offset="0" stop-color="#c8ff87"/><stop offset="1" stop-color="#abff87" stop-opacity="0"/></linearGradient><linearGradient id="p" gradientUnits="userSpaceOnUse" spreadMethod="reflect" x1="31.60625" x2="34.575107" y1="13.510336" y2="13.510336"><stop offset="0" stop-color="#fff"/><stop offset="1" stop-color="#790000" stop-opacity="0"/></linearGradient><g transform="translate(0 -263.13332)"><text style="font-size:16.904934;font-family:sans-serif;letter-spacing:0;word-spacing:0;stroke-width:.422623;fill:url(#a)" x=".158356" y="281.64188"><tspan fill="url(#a)" font-family="FreeSans" stroke-width=".422623" x=".158356" y="281.64188">.00</tspan></text><text style="font-size:16.904934;font-family:sans-serif;letter-spacing:0;word-spacing:0;opacity:.5;stroke-width:.422623;fill:url(#c)" x="23.66678" y="281.64188"><tspan fill="url(#c)" font-family="FreeSans" stroke-width=".422623" x="23.66678" y="281.64188">0</tspan></text><g transform="matrix(.1984375 0 0 .1984375 5.51204 269.09014)"><path d="m96 68a4.0004 4.0004 0 0 0 -4 4v18h-18a4.0004 4.0004 0 0 0 -4 4v8a4.0004 4.0004 0 0 0 4 4h18v18a4.0004 4.0004 0 0 0 4 4h8a4.0004 4.0004 0 0 0 4-4v-18h18a4.0004 4.0004 0 0 0 4-4v-8a4.0004 4.0004 0 0 0 -4-4h-18v-18a4.0004 4.0004 0 0 0 -4-4z" fill="url(#d)"/><path d="m96 68a4.0004 4.0004 0 0 0 -4 4v18h-18a4.0004 4.0004 0 0 0 -4 4v8a4.0004 4.0004 0 0 0 4 4h18v18a4.0004 4.0004 0 0 0 4 4h8a4.0004 4.0004 0 0 0 4-4v-18h18a4.0004 4.0004 0 0 0 4-4v-8a4.0004 4.0004 0 0 0 -4-4h-18v-18a4.0004 4.0004 0 0 0 -4-4z" fill="url(#e)"/><path d="m96 68a4.0004 4.0004 0 0 0 -4 4v18h-18a4.0004 4.0004 0 0 0 -4 4v8a4.0004 4.0004 0 0 0 4 4h18v18a4.0004 4.0004 0 0 0 4 4h8a4.0004 4.0004 0 0 0 4-4v-18h18a4.0004 4.0004 0 0 0 4-4v-8a4.0004 4.0004 0 0 0 -4-4h-18v-18a4.0004 4.0004 0 0 0 -4-4z" fill="url(#g)"/><path d="m31.7 16 2.875-3.375c-1.051205-1.695758-3.935136-2.288018-5.9375-.3125l2.8125 3.375z" fill="url(#h)" fill-rule="evenodd" filter="url(#j)" opacity=".790262" transform="matrix(-.60073019 -.60073019 .59501648 -.59501648 106.15853 151.49848)"/><path d="m31.7 16 2.875-3.375c-1.051205-1.695758-3.935136-2.288018-5.9375-.3125l2.8125 3.375z" fill="url(#k)" fill-rule="evenodd" filter="url(#j)" opacity=".498127" transform="matrix(-.54559305 .54559305 -.55083218 -.55083218 129.81694 114.94021)"/><path d="m96 72v22h-22v8h22v22h8v-22h22v-8h-22v-22z" fill="url(#l)"/><path d="m96 72v21.224609.775391h-22v5.835938c5.252313.784812 12.103279 1.193282 17.28125 1.203122 12.42654-.0162 24.54521-2.29327 34.71875-6.523435v-.515625h-22v-22z" fill="url(#m)"/><path d="m96 72v22h-22v8h22v22h8v-22h22v-8h-22v-22z" style="fill:none;stroke:#eef4ca;stroke-width:.8;stroke-linecap:square;stroke-linejoin:round;stroke-opacity:.780392;filter:url(#n)"/><g fill-rule="evenodd"><path d="m31.7 16 2.875-3.375c-1.051205-1.695758-3.935136-2.288018-5.9375-.3125l2.8125 3.375z" fill="url(#h)" filter="url(#j)" opacity=".498127" transform="matrix(-.60249952 .60249952 .60828509 .60828509 83.418893 65.879107)"/><path d="m88.7 16 2.875-3.375c-1.051205-1.695758-3.935136-2.288018-5.9375-.3125l2.8125 3.375z" fill="url(#o)" filter="url(#j)" opacity=".790262" transform="matrix(-.55083218 -.55083218 .54559305 -.54559305 113.52649 159.24703)"/><path d="m31.7 16 2.875-3.375c-1.051205-1.695758-3.935136-2.288018-5.9375-.3125l2.8125 3.375z" fill="url(#p)" filter="url(#j)" opacity=".790262" transform="matrix(-.50093417 -.50093417 -.49616964 .49616964 149.45278 101.72037)"/><path d="m88.7 16 2.875-3.375c-1.051205-1.695758-3.935136-2.288018-5.9375-.3125l2.8125 3.375z" fill="url(#o)" filter="url(#j)" opacity=".790262" transform="matrix(-.51428706 -.51428706 -.50939554 .50939554 157.72648 109.73028)"/><path d="m88.7 16 2.875-3.375c-1.051205-1.695758-3.935136-2.288018-5.9375-.3125l2.8125 3.375z" fill="url(#o)" filter="url(#j)" opacity=".790262" transform="matrix(.51428706 -.51428706 .50939554 .50939554 42.798309 109.73028)"/><path d="m31.7 16 2.875-3.375c-1.051205-1.695758-3.935136-2.288018-5.9375-.3125l2.8125 3.375z" fill="url(#p)" filter="url(#j)" opacity=".790262" transform="matrix(-.50093417 .50093417 -.49616964 -.49616964 149.45278 94.179741)"/></g></g></g></svg>