<svg enable-background="new 0 0 128 128" height="128" viewBox="0 0 128 128" width="128" xmlns="http://www.w3.org/2000/svg" xmlns:xlink="http://www.w3.org/1999/xlink"><linearGradient id="a"><stop offset="0" stop-color="#fff"/><stop offset="1" stop-color="#fff" stop-opacity="0"/></linearGradient><linearGradient id="b" gradientUnits="userSpaceOnUse" x1="88.591797" x2="71.262016" y1="96.592697" y2="79.262917"><stop offset="0" stop-color="#fff"/><stop offset="1" stop-color="#555753"/></linearGradient><linearGradient id="c" gradientUnits="userSpaceOnUse" x1="85.219681" x2="61.336319" y1="93.219681" y2="69.336319"><stop offset="0"/><stop offset="1" stop-color="#393b38"/></linearGradient><linearGradient id="d" gradientUnits="userSpaceOnUse" x1="96" x2="88.0002" y1="104" y2="96.0002"><stop offset="0" stop-color="#888a85"/><stop offset=".0072" stop-color="#8c8e89"/><stop offset=".0673" stop-color="#abaca9"/><stop offset=".1347" stop-color="#c5c6c4"/><stop offset=".2115" stop-color="#dbdbda"/><stop offset=".3012" stop-color="#ebebeb"/><stop offset=".4122" stop-color="#f7f7f6"/><stop offset=".5679" stop-color="#fdfdfd"/><stop offset="1" stop-color="#fff"/></linearGradient><radialGradient id="e" cx="102" cy="112.3047" gradientTransform="matrix(.9787234 0 0 .9818182 1.361705 1.163636)" gradientUnits="userSpaceOnUse" r="139.55859" xlink:href="#t"/><radialGradient id="f" cx="102.000002" cy="112.3047" gradientUnits="userSpaceOnUse" r="139.5585"><stop offset="0" stop-color="#00537d"/><stop offset=".0151" stop-color="#186389"/><stop offset=".0558" stop-color="#558ca8"/><stop offset=".0964" stop-color="#89afc3"/><stop offset=".1357" stop-color="#b3ccd8"/><stop offset=".1737" stop-color="#d4e2e9"/><stop offset=".2099" stop-color="#ecf2f5"/><stop offset=".2435" stop-color="#fafcfd"/><stop offset=".2722" stop-color="#fff"/></radialGradient><filter id="g"><feGaussianBlur stdDeviation="1.0394514"/></filter><filter id="h"><feGaussianBlur stdDeviation=".50063244"/></filter><filter id="i"><feGaussianBlur stdDeviation=".40750996"/></filter><filter id="j"><feGaussianBlur stdDeviation=".4901192"/></filter><filter id="k"><feGaussianBlur stdDeviation=".90565481"/></filter><filter id="l" color-interpolation-filters="sRGB" height="1.189904" width="1.222089" x="-.111044" y="-.094952"><feGaussianBlur stdDeviation="1.5842793"/></filter><linearGradient id="m" gradientUnits="userSpaceOnUse" x1="179.29326" x2="184.62646" y1="-50.953133" y2="-50.953133"><stop offset="0" stop-color="#535557"/><stop offset=".08652561" stop-color="#898a8c"/><stop offset=".20296688" stop-color="#ececec"/><stop offset=".2363" stop-color="#fafafa"/><stop offset=".2722" stop-color="#fff"/><stop offset=".5313" stop-color="#fafafa"/><stop offset=".8449" stop-color="#ebecec"/><stop offset="1" stop-color="#e1e2e3"/></linearGradient><linearGradient id="n" gradientUnits="userSpaceOnUse" x1="176.62666" x2="187.29305" xlink:href="#o" y1="-31.661928" y2="-31.661928"/><radialGradient id="o" cx="102" cy="112.3047" gradientUnits="userSpaceOnUse" r="139.55859"><stop offset="0" stop-color="#535557"/><stop offset=".08652561" stop-color="#898a8c"/><stop offset=".20296688" stop-color="#ececec"/><stop offset=".2363" stop-color="#fafafa"/><stop offset=".2722" stop-color="#fff"/><stop offset=".5313" stop-color="#fafafa"/><stop offset=".8449" stop-color="#c1c4c4"/><stop offset="1" stop-color="#8d9195"/></radialGradient><radialGradient id="p" cx="146.62447" cy="120.09646" fx="146.62447" fy="120.09646" gradientTransform="matrix(2.0074197 -.0088698 .09949973 2.0498941 -159.66194 -122.16955)" gradientUnits="userSpaceOnUse" r="5.3332" xlink:href="#o"/><linearGradient id="q" gradientUnits="userSpaceOnUse" x1="180.386125" x2="192.028955" xlink:href="#a" y1="-52.262746" y2="-8.81109"/><filter id="r" color-interpolation-filters="sRGB" height="1.14218" width="1.568721" x="-.28436" y="-.07109"><feGaussianBlur stdDeviation=".6318957"/></filter><radialGradient id="s" cx="102" cy="112.3047" gradientTransform="matrix(2.1532881 0 0 2.1600971 -135.30525 -50.799054)" gradientUnits="userSpaceOnUse" r="139.55859" xlink:href="#t"/><radialGradient id="t" cx="102" cy="112.3047" gradientUnits="userSpaceOnUse" r="139.55859"><stop offset="0" stop-color="#535557"/><stop offset=".11366145" stop-color="#898a8c"/><stop offset=".20296688" stop-color="#ececec"/><stop offset=".2363" stop-color="#fafafa"/><stop offset=".2722" stop-color="#fff"/><stop offset=".5313" stop-color="#fafafa"/><stop offset=".8449" stop-color="#ebecec"/><stop offset="1" stop-color="#e1e2e3"/></radialGradient><radialGradient id="u" cx="87.5" cy="35.875004" fx="87.162483" fy="49.122643" gradientUnits="userSpaceOnUse" r="19.872202"><stop offset="0" stop-color="#fff" stop-opacity="0"/><stop offset=".41984501" stop-color="#bff1f7" stop-opacity=".247059"/><stop offset=".75562102" stop-color="#7fb5ef" stop-opacity=".498039"/><stop offset="1" stop-color="#1a71ff" stop-opacity=".784483"/></radialGradient><filter id="v"><feGaussianBlur stdDeviation="2.2743261"/></filter><linearGradient id="w" gradientUnits="userSpaceOnUse" spreadMethod="reflect" x1="183.60056" x2="205.3282" y1="77.033615" y2="114.667"><stop offset="0" stop-color="#fff"/><stop offset="1" stop-color="#aeaeae"/></linearGradient><filter id="x" color-interpolation-filters="sRGB"><feGaussianBlur stdDeviation=".19214062"/></filter><linearGradient id="y" gradientUnits="userSpaceOnUse" x1="85.331199" x2="85.331199" xlink:href="#a" y1="32.0024" y2="72.001401"/><path d="m23 9 .040816 112h61.131184c.53 0 1.039-.211 1.414-.586l32.828-32.828c.375-.375.586-.884.586-1.414v-77.172z" filter="url(#g)" opacity=".306849" transform="matrix(1.0416667 0 0 1.0357143 -9.958333 -3.321534)"/><path d="m24.919999 10.931136v108.137934l58.676001-.0001c.53 0 1.039-.211 1.414-.586l31.484-31.765936c.375-.375.586-.884.586-1.414v-74.371898z" filter="url(#h)" opacity=".89589" transform="matrix(1.0416667 0 0 1.0357143 -9.958333 -3.321534)"/><path d="m23 9.9655172.040816 111.0344828h61.131184c.53 0 1.039-.211 1.414-.586l32.828-32.828c.375-.375.586-.884.586-1.414v-76.2064828z" filter="url(#g)" opacity=".306849" transform="matrix(1.0416667 0 0 1.0357143 -9.958333 -3.321534)"/><path d="m16.000002 8v112h61.172c.53 0 1.039-.211 1.414-.586l32.827998-32.828c.375-.375.586-.884.586-1.414v-77.172z" fill="url(#f)"/><path d="m19.678725 10.7c-.539276 0-.978723.440836-.978723.981818l-.7 105.336362c0 .54197.439447.98182.978723.98182h57.913022c.257404 0 .509915-.10407.691957-.28767l32.129526-32.23113c.18303-.1836.28677-.435927.28677-.694145v-73.805237c0-.540982-.43847-.981818-.97872-.981818z" fill="url(#e)"/><g transform="translate(.000002)"><path d="m111.414 86.586c.25-.25-26.379-1.586-31.414-1.586-1.654 0-3 1.346-3 3 0 5.035 1.336 31.664 1.586 31.414z" fill="url(#b)" filter="url(#i)" opacity=".1"/><path d="m111.414 86.586c.375-.375-21.97-.586-31.414-.586-1.103 0-2 .897-2 2 0 9.444.211 31.789.586 31.414z" filter="url(#k)" opacity=".2"/><path d="m111.414 86.586c.239-.239-21.607.414-31.414.414-.553 0-1 .447-1 1 0 9.807-.653 31.653-.414 31.414z" fill="url(#c)" filter="url(#j)" opacity=".1"/><path d="m78.586 119.414s11.914-9.914 17.414-15.414 15.414-17.414 15.414-17.414-21.164 1.414-31.414 1.414c0 10.25-1.414 31.414-1.414 31.414z" fill="url(#d)"/></g><path d="m98.3125 88-4.53125 3.59375 4.46875 5.5625-2.25 1.8125 21.6875 26.90625c.0339.0421.0589.0841.0937.125 2.02424 2.3762 5.6015 2.73912 8.0625.78125 2.46308-1.95952 2.89568-5.51682 1-8l-.0937-.125-21.6875-26.90625-2.28125 1.8125z" filter="url(#l)" opacity=".908213" transform="matrix(1.00000000031 .00000000517 .00000000471 1.00000000343 -.78125144968 -15.46250023692)"/><path d="m179.29326-54.244732h5.3332v6.583196h-5.3332z" fill="url(#m)" opacity=".971015" transform="matrix(.84989960496 -.67614558638 .68039232121 .84459488282 -21.47004 242.18768)"/><path d="m176.62666-47.66153h10.666389v31.999203h-10.666389z" fill="url(#n)" transform="matrix(.84989960496 -.67614558638 .68039232121 .84459488282 -21.47004 242.18768)"/><path d="m157.3294 122.6668a5.3332 5.3332 0 0 1 -2.6666 4.61869 5.3332 5.3332 0 0 1 -5.3332 0 5.3332 5.3332 0 0 1 -2.6666-4.61869h5.3332z" fill="url(#p)" transform="matrix(.84989960496 -.67614558638 .68039232121 .84459488282 -90.21823667863 104.9763664806)"/><path d="m182.59973-47.382515h2.66658v31.999199h-2.66658z" fill="url(#q)" opacity=".971015" transform="matrix(.84989960496 -.67614558638 .68039232121 .84459488282 -21.47004 242.18768)"/><g transform="translate(-.78125 -13.46251)"><circle cx="78.79739482131" cy="64.0504287097" fill="#fff" r="29.33392199938"/><path d="m238.49397 42.6688h5.333199v21.3328h-5.333199z" filter="url(#r)" opacity=".478261" transform="matrix(1.0298818 0 0 1 -145.94511 10.713907)"/><path d="m78.792449 34.713907c-16.20067 0-29.28125 13.143072-29.28125 29.34375 0 16.200679 13.08058 29.3125 29.28125 29.3125 8.9704 0 16.9668-4.060621 22.343751-10.40625v-37.9375c-5.380521-6.31988-13.392031-10.3125-22.343751-10.3125z" fill="url(#s)"/><path d="m101.1362 45.057657v38c.97017-1.139862 1.86736-2.344777 2.65625-3.625v-30.75c-.78889-1.280223-1.68608-2.485138-2.65625-3.625z" fill="#fff"/><circle cx="87.5" cy="35.875004" fill="url(#u)" r="19.872202" transform="matrix(1.4813961 0 0 1.4813961 -51.385356 10.905339)"/><g transform="translate(-103.125744 -10.618891)"><path d="m181.34375 44.65625c-17.67267 0-32 14.327329-32 32s14.32733 32 32 32 31.96875-14.327329 31.96875-32-14.29608-32-31.96875-32zm0 2.6875c16.19995 0 29.3125 13.112552 29.3125 29.3125s-13.11255 29.34375-29.3125 29.34375-29.34375-13.143802-29.34375-29.34375 13.1438-29.3125 29.34375-29.3125z" filter="url(#v)" transform="matrix(1.0333704 0 0 1.0333704 -6.050986 -2.558047)"/><path d="m181.34375 42.09375c-17.9772 0-32.5625 14.5853-32.5625 32.5625s14.5853 32.5625 32.5625 32.5625 32.53125-14.585964 32.53125-32.5625-14.55405-32.5625-32.53125-32.5625zm0 3.8125c15.8959 0 28.75 12.854098 28.75 28.75s-12.85482 28.78125-28.75 28.78125-28.78125-12.886072-28.78125-28.78125 12.88535-28.75 28.78125-28.75z" fill="#a9adad"/><path d="m181.34375 42.638672c-17.68236 0-32.01758 14.335217-32.01758 32.017578s14.33522 32.01758 32.01758 32.01758 31.98633-14.335241 31.98633-32.01758-14.30397-32.017578-31.98633-32.017578zm0 2.722656c16.19028 0 29.29492 13.104648 29.29492 29.294922s-13.10467 29.32617-29.29492 29.32617-29.32617-13.135919-29.32617-29.32617 13.13589-29.294922 29.32617-29.294922z" fill="url(#w)" filter="url(#x)"/></g><path d="m78.237299 36.588079c-12.744438 0-26.3125 10.146402-26.3125 18.54375 0 6.107452 14.120003 8.9186 25.206 8.9186 9.70821 0 27.856501-1.872935 27.856501-7.5436 0-9.142303-14.515521-19.91875-26.750001-19.91875z" fill="url(#y)"/></g></svg>