<svg height="128" width="128" xmlns="http://www.w3.org/2000/svg"><rect fill="#618fd2" fill-opacity=".091954" height="84" rx=".146842" ry=".170785" width="87.862419" x="20" y="20"/><g fill="#7193c6"><path d="m-108-44.002289h4.00229v4.002287h-4.00229z" transform="scale(-1)"/><path d="m-107.99834-36.0233h3.998341v4.023301h-3.998341z" transform="scale(-1)"/><path d="m-108.00228-28h4.000621v4.002904h-4.000621z" transform="scale(-1)"/><path d="m-108-52h4.000005v3.999998h-4.000005z" transform="scale(-1)"/><path d="m-108-60.805695h4.000005v4.805693h-4.000005z" transform="scale(-1)"/><path d="m-108-68h4.000005v3.999998h-4.000005z" transform="scale(-1)"/><path d="m-108.00395-100h4.00229v4.002287h-4.00229z" transform="scale(-1)"/><path d="m-108-76h4.000005v3.999998h-4.000005z" transform="scale(-1)"/><path d="m-108-84h4.000005v3.999998h-4.000005z" transform="scale(-1)"/><path d="m-108.00001-92h4.000005v3.999998h-4.000005z" transform="scale(-1)"/><path d="m-108-44.002289h4.00229v4.002287h-4.00229z" transform="matrix(-1 0 0 -1 -84.001663 0)"/><path d="m-107.99834-36.0233h3.998341v4.023301h-3.998341z" transform="matrix(-1 0 0 -1 -84.001663 0)"/><path d="m-108.00228-28h4.000621v4.002904h-4.000621z" transform="matrix(-1 0 0 -1 -84.001663 0)"/><path d="m-108-52h4.000005v3.999998h-4.000005z" transform="matrix(-1 0 0 -1 -84.001663 0)"/><path d="m-108-60.805695h4.000005v4.805693h-4.000005z" transform="matrix(-1 0 0 -1 -84.001663 0)"/><path d="m-108-68h4.000005v3.999998h-4.000005z" transform="matrix(-1 0 0 -1 -84.001663 0)"/><path d="m-108.00395-100h4.00229v4.002287h-4.00229z" transform="matrix(-1 0 0 -1 -84.001663 0)"/><path d="m-108-76h4.000005v3.999998h-4.000005z" transform="matrix(-1 0 0 -1 -84.001663 0)"/><path d="m-108-84h4.000005v3.999998h-4.000005z" transform="matrix(-1 0 0 -1 -84.001663 0)"/><path d="m-108.00001-92h4.000005v3.999998h-4.000005z" transform="matrix(-1 0 0 -1 -84.001663 0)"/><path d="m-108-44.002289h4.00229v4.002287h-4.00229z" transform="matrix(0 -1 1 0 124.000004 -83.999996)"/><path d="m-107.99834-36.0233h3.998341v4.023301h-3.998341z" transform="matrix(0 -1 1 0 124.000004 -83.999996)"/><path d="m-108.00228-28h4.000621v4.002904h-4.000621z" transform="matrix(0 -1 1 0 124.000004 -83.999996)"/><path d="m-108-52h4.000005v3.999998h-4.000005z" transform="matrix(0 -1 1 0 124.000004 -83.999996)"/><path d="m-108-60.805695h4.000005v4.805693h-4.000005z" transform="matrix(0 -1 1 0 124.000004 -83.999996)"/><path d="m-108-68h4.000005v3.999998h-4.000005z" transform="matrix(0 -1 1 0 124.000004 -83.999996)"/><path d="m-108.00395-100h4.00229v4.002287h-4.00229z" transform="matrix(0 -1 1 0 124.000004 -83.999996)"/><path d="m-108-76h4.000005v3.999998h-4.000005z" transform="matrix(0 -1 1 0 124.000004 -83.999996)"/><path d="m-108-84h4.000005v3.999998h-4.000005z" transform="matrix(0 -1 1 0 124.000004 -83.999996)"/><path d="m-108.00001-92h4.000005v3.999998h-4.000005z" transform="matrix(0 -1 1 0 124.000004 -83.999996)"/><path d="m-108-44.002289h4.00229v4.002287h-4.00229z" transform="matrix(0 -1 1 0 124 -4)"/><path d="m-107.99834-36.0233h3.998341v4.023301h-3.998341z" transform="matrix(0 -1 1 0 124 -4)"/><path d="m-108.00228-28h4.000621v4.002904h-4.000621z" transform="matrix(0 -1 1 0 124 -4)"/><path d="m-108-52h4.000005v3.999998h-4.000005z" transform="matrix(0 -1 1 0 124 -4)"/><path d="m-108-60.805695h4.000005v4.805693h-4.000005z" transform="matrix(0 -1 1 0 124 -4)"/><path d="m-108-68h4.000005v3.999998h-4.000005z" transform="matrix(0 -1 1 0 124 -4)"/><path d="m-108.00395-100h4.00229v4.002287h-4.00229z" transform="matrix(0 -1 1 0 124 -4)"/><path d="m-108-76h4.000005v3.999998h-4.000005z" transform="matrix(0 -1 1 0 124 -4)"/><path d="m-108-84h4.000005v3.999998h-4.000005z" transform="matrix(0 -1 1 0 124 -4)"/><path d="m-108.00001-92h4.000005v3.999998h-4.000005z" transform="matrix(0 -1 1 0 124 -4)"/></g><text font-family="sans-serif" font-size="51.976086" letter-spacing="0" stroke-width="1.299402" word-spacing="0" x="31.600229" y="66.966103"><tspan font-family="Liberation Sans" stroke-width="1.299402" x="31.600229" y="66.966103">AB</tspan></text></svg>