<svg height="128" viewBox="0 0 128 128" width="128" xmlns="http://www.w3.org/2000/svg" xmlns:xlink="http://www.w3.org/1999/xlink"><linearGradient id="a" gradientUnits="userSpaceOnUse" x1="1.789204" x2="1.376028" y1="56.265892" y2="104.97279"><stop offset="0" stop-color="#f9f9fa"/><stop offset="1" stop-color="#f9f9fa" stop-opacity="0"/></linearGradient><path d="m22.023438 28.574219c-10.220556 0-18.7597661 7.535862-18.7597661 17.126953v36.597656c0 9.591091 8.5392091 17.126953 18.7597661 17.126953h82.320312c10.22056 0 18.75977-7.535862 18.75977-17.126953v-36.597656c0-9.591091-8.53921-17.126953-18.75977-17.126953zm0 4.853515h82.320312c7.87662 0 13.90625 5.576015 13.90625 12.273438v36.597656c0 6.697423-6.02963 12.273438-13.90625 12.273438h-82.320312c-7.876615 0-13.9062505-5.576015-13.9062505-12.273438v-36.597656c0-6.697423 6.0296355-12.273438 13.9062505-12.273438z" fill="#7d9ece"/><rect height="65.99055264775" rx="16.33033740801" ry="14.69730862833" style="fill:#f7f8f9;fill-opacity:.996078;stroke:#507dbe;stroke-linecap:round;stroke-linejoin:bevel;stroke-opacity:.730392;stroke-width:4.8401167763" width="114.98154914141" x="130.42005712412" y="31.00472248713"/><rect fill="url(#a)" height="35.653488" rx="9.447075" ry="10.121866" transform="matrix(1.21002919408 0 0 1.21002919408 188.72736 -45.51934)" width="78.165321" x="-39.420063" y="72.682922"/></svg>