<svg height="128" viewBox="0 0 33.866666 33.866668" width="128" xmlns="http://www.w3.org/2000/svg" xmlns:xlink="http://www.w3.org/1999/xlink"><linearGradient id="a"><stop offset="0" stop-color="#06f"/><stop offset="1" stop-color="#80b3ff"/></linearGradient><linearGradient id="b" gradientUnits="userSpaceOnUse" x1="4.166527" x2="10.263362" xlink:href="#a" y1="287.60455" y2="274.30789"/><linearGradient id="c" gradientUnits="userSpaceOnUse" x1="1.650391" x2="5.401786" xlink:href="#a" y1="269.86914" y2="259.09683"/><g transform="matrix(.6875 0 0 .6875 4.413229 -177.019372)"><path d="m3.0253906 264.35352a1.3759905 1.3759905 0 0 0 -1.375 1.375v1.15429a1.3759905 1.3759905 0 0 0 .1132813.54492 1.3759905 1.3759905 0 0 0 -.1132813.54493v6.03711a1.3759905 1.3759905 0 0 0 1.375 1.375h1.5683594a1.3759905 1.3759905 0 0 0 1.375-1.375v-6.03711a1.3759905 1.3759905 0 0 0 -.1132812-.54493 1.3759905 1.3759905 0 0 0 .1132812-.54492v-1.15429a1.3759905 1.3759905 0 0 0 -1.375-1.375z" fill="url(#c)"/><text style="font-size:12.7;font-family:sans-serif;letter-spacing:0;word-spacing:0;fill:#bfd9ff;stroke-width:.3175" x="2.228001" y="274.01065"><tspan fill="#bfd9ff" font-family="Liberation Sans" font-size="11.429999" font-weight="bold" stroke-width=".3175" x="2.228001" y="274.01065">i</tspan></text></g><g transform="matrix(.6875 0 0 .6875 2.549269 -173.815678)"><path d="m2.6074219 281.28125a1.3812549 1.3812549 0 0 0 -1.3808594 1.38086v1.1543a1.3812549 1.3812549 0 0 0 .1132813.54492 1.3812549 1.3812549 0 0 0 -.1132813.54297v6.03906a1.3812549 1.3812549 0 0 0 1.3808594 1.38086h1.5664062a1.3812549 1.3812549 0 0 0 .8027344-.25781 1.3812549 1.3812549 0 0 0 .8007813.25781h1.5683593a1.3812549 1.3812549 0 0 0 1.3808594-1.38086v-6.03906a1.3812549 1.3812549 0 0 0 -.1132813-.54492 1.3812549 1.3812549 0 0 0 .1132813-.54297v-1.1543a1.3812549 1.3812549 0 0 0 -1.3808594-1.38086h-1.5683593a1.3812549 1.3812549 0 0 0 -.8027344.25781 1.3812549 1.3812549 0 0 0 -.8007813-.25781z" fill="url(#b)"/><text style="font-size:12.7;font-family:sans-serif;letter-spacing:0;word-spacing:0;fill:#bfd9ff;stroke-width:.3175" x="1.808365" y="290.94373"><tspan fill="#bfd9ff" font-family="Liberation Sans" font-size="11.429999" font-weight="bold" stroke-width=".3175" x="1.808365" y="290.94373">ii</tspan></text></g><g fill="#404040" fill-opacity=".839216"><path d="m-31.749998 273.71664h21.166666v1.058347h-21.166666z" transform="matrix(-.9 0 0 1 2.116667 -264.191639)"/><path d="m-31.749998 269.48331h21.166666v1.058347h-21.166666z" transform="matrix(-.9 0 0 1 2.116667 -264.191639)"/><path d="m-26.458332 277.94998h15.875v1.058347h-15.875z" transform="matrix(-.9 0 0 1 2.116667 -264.191639)"/><path d="m-31.749998 273.71664h21.166666v1.058347h-21.166666z" transform="matrix(-.9 0 0 1 2.116667 -249.374989)"/><path d="m-31.749998 269.48331h21.166666v1.058347h-21.166666z" transform="matrix(-.9 0 0 1 2.116667 -249.374989)"/><path d="m-26.458332 277.94998h15.875v1.058347h-15.875z" transform="matrix(-.9 0 0 1 2.116667 -249.374989)"/></g></svg>