<svg height="128" viewBox="0 0 33.866666 33.866668" width="128" xmlns="http://www.w3.org/2000/svg" xmlns:xlink="http://www.w3.org/1999/xlink"><linearGradient id="a" gradientUnits="userSpaceOnUse" x1="50.75331258908" x2="53.95616662226" y1="268.45454849685" y2="290.16280657097"><stop offset="0" stop-color="#c0c0c0"/><stop offset="1" stop-color="#f7f7f7"/></linearGradient><radialGradient id="b" cx="53.0512205444" cy="283.44807727436" gradientUnits="userSpaceOnUse" r="6.89155826588"><stop offset="0" stop-color="#666"/><stop offset="1" stop-color="#232323" stop-opacity=".9375"/></radialGradient><linearGradient id="c" gradientTransform="matrix(.88728028 0 0 .97178995 5.903467 7.826943)" gradientUnits="userSpaceOnUse" x1="53.51049" x2="53.720795" y1="264.43698" y2="279.9422"><stop offset="0" stop-color="#f8f8f8"/><stop offset="1" stop-color="#f8f8f8" stop-opacity="0"/></linearGradient><filter id="d" color-interpolation-filters="sRGB" height="1.104996" width="1.054784" x="-.027392" y="-.052498"><feGaussianBlur stdDeviation=".668475"/></filter><linearGradient id="e" gradientTransform="matrix(0 1 -1 0 130.5777 .237576)" gradientUnits="userSpaceOnUse" x1="26.221916" x2="96.5784" y1="59.536545" y2="57.715343"><stop offset="0" stop-color="#fff"/><stop offset="1" stop-color="#bbb"/></linearGradient><filter id="f" color-interpolation-filters="sRGB" height="1.011497" width="1.00824" x="-.00412" y="-.005748"><feGaussianBlur stdDeviation=".13885547"/></filter><linearGradient id="g" gradientUnits="userSpaceOnUse" x1="46.60093078443" x2="46.90141903247" y1="265.42035684035" y2="252.03651945201"><stop offset="0" stop-color="#b3b3b7"/><stop offset="1" stop-color="#e5e5e5" stop-opacity=".996078"/></linearGradient><filter id="h" color-interpolation-filters="sRGB" height="1.306617" width="1.43589" x="-.217945" y="-.153309"><feGaussianBlur stdDeviation="3.1542391"/></filter><linearGradient id="i" gradientUnits="userSpaceOnUse" x1="27.118645" x2="23.050846" y1="48" y2="22.779661"><stop offset="0" stop-color="#070707"/><stop offset="1" stop-color="#474747"/></linearGradient><g transform="matrix(.84362031 0 0 .84362031 -17.796423 -206.589823)"><path d="m31.833804 248.53292v.0123h-.811108c-1.100934-.00003-3.039412.94001-3.039412 2.10742v15.44105c0 1.1674 1.938478 2.10702 3.039412 2.10702h.811108v.0123h12.777971 12.777446v-.0123h.811107c1.100934 0 3.039414-.93962 3.039414-2.10702v-15.44105c0-1.1674-1.93848-2.10745-3.039414-2.10745h-.811107v-.0123h-12.777446z" fill="#8b8b91" fill-opacity=".995861"/><path d="m32.480997 250.24465v.0102h-.707739c-.960539 0-2.234166.77607-2.234166 1.74015v12.75169c0 .96408 1.273627 1.74015 2.234166 1.74015h.707739v.0102h11.478266.08749 12.479268v-.0102h.707736c.960541 0 2.234168-.77607 2.234168-1.74015v-12.75169c0-.96408-1.273627-1.74015-2.234168-1.74015h-.707736v-.0102h-12.479268-.08749z" fill="url(#g)"/><path d="m16.195312 22.822266a.97562317.97562317 0 0 0 -.310546.05078h-2.517578c-2.246364 0-4.6422827 1.070615-6.5527349 2.777344-1.9104522 1.706728-3.3496094 4.11354-3.3496093 6.857421v63.460939c0 2.743882 1.4391572 5.15069 3.3496093 6.85742s4.3063709 2.77735 6.5527349 2.77735h2.517578a.97562317.97562317 0 0 0 .310546.0508h49.867188.580078 45.636722a.97562317.97562317 0 0 0 .31054-.0508h2.51758c2.24637 0 4.64228-1.07062 6.55274-2.77735 1.91045-1.70673 3.34961-4.113541 3.34961-6.85742v-63.460938c0-2.743882-1.43916-5.150693-3.34961-6.857421-1.91046-1.706729-4.30638-2.777344-6.55274-2.777344h-2.51758a.97562317.97562317 0 0 0 -.31054-.05078h-45.636722-.580078zm1.982422 5.171875h47.884766.580078 43.656252a.97562317.97562317 0 0 0 .29883.04687h2.73046c1.53667 0 3.55112.802137 5.09961 2.123046 1.54849 1.32091 2.61133 3.093934 2.61133 4.964844v59.083985c0 1.87091-1.06284 3.643934-2.61133 4.964843-1.54849 1.320901-3.56294 2.123051-5.09961 2.123051h-2.73046a.97562317.97562317 0 0 0 -.30469.0488h-43.650392-.580078-47.880859a.97562317.97562317 0 0 0 -.304688-.0488h-2.730469c-1.536659 0-3.551118-.80214-5.099609-2.123051-1.5484906-1.320904-2.6113281-3.093929-2.6113281-4.964838v-59.083985c-.0000001-1.870909 1.0628374-3.643934 2.6113281-4.964844 1.548491-1.320909 3.56295-2.123046 5.099609-2.123046h2.730469a.97562317.97562317 0 0 0 .300781-.04687z" fill="url(#e)" filter="url(#f)" transform="matrix(.2502152 0 0 .20885557 28.430358 244.63258)"/><g fill-opacity=".996078" font-family="sans-serif" letter-spacing="0" word-spacing="0"><text fill="#ebebec" filter="url(#d)" font-size="40" transform="matrix(.26458333 0 0 .26458333 27.983284 248.53292)" x="31.316339" y="53.550674"><tspan fill="#ebebec" fill-opacity=".996078" font-family="FreeSans" font-weight="600" x="31.316339" y="53.550674">OK</tspan></text><text fill="#47474b" font-size="10.583333" stroke-width=".264583" x="36.269066" y="262.17236"><tspan fill="#47474b" fill-opacity=".996078" font-family="FreeSans" font-weight="600" stroke-width=".264583" x="36.269066" y="262.17236">OK</tspan></text></g></g><g transform="matrix(.62791234 0 0 .62791234 -23.588583 -151.33255)"><circle cx="52.79958" cy="280.55423" fill="#2a2a2a" fill-opacity=".919118" r="14.114256"/><circle cx="52.79958" cy="280.55423" fill="url(#a)" r="12.366584"/><path d="m59.658376 270.2717c-4.216469 6.38599-10.963031 15.73502-14.213252 20.20651a12.366584 12.366584 0 0 0 6.043929 2.36919c2.810809-1.24029 6.923762-3.07082 11.360278-5.10457a12.366584 12.366584 0 0 0 2.316608-7.18837 12.366584 12.366584 0 0 0 -5.507563-10.28276z" fill="#f7f7f7" fill-opacity=".658088" fill-rule="evenodd"/><circle cx="52.79958" cy="280.55423" fill="url(#b)" r="6.891559"/><ellipse cx="52.751492" cy="278.28586" fill="url(#c)" rx="5.644563" ry="4.001315"/></g><g transform="matrix(.37703125 0 0 .37703125 14.281155 10.34668)"><path d="m17.060547 12.158203a2.3165482 2.3165482 0 0 0 -2.292969 2.316406v43.931641a2.3165482 2.3165482 0 0 0 2.789063 2.267578l12.017578-2.501953 4.052734 2.925781a2.3165482 2.3165482 0 0 0 2.1875.285156s.994873-.375522 2.029297-.955078c.517212-.289778 1.056187-.616741 1.599609-1.136718.271711-.259989.557908-.570762.802735-1.060547.244826-.489785.429144-1.250221.238281-2.013672-.143844-.575376-.480314-2.249138-.744141-3.541016l8.742188-5.908203a2.3165482 2.3165482 0 0 0 .347656-3.550781l-30.101562-30.373047a2.3165482 2.3165482 0 0 0 -1.667969-.685547z" filter="url(#h)" opacity=".76"/><path d="m17.060547 10.158203a2.3165482 2.3165482 0 0 0 -2.292969 2.316406v43.931641a2.3165482 2.3165482 0 0 0 2.789063 2.267578l12.017578-2.501953 4.052734 2.925781a2.3165482 2.3165482 0 0 0 2.1875.285156s.994873-.375522 2.029297-.955078c.517212-.289778 1.056187-.616741 1.599609-1.136718.271711-.259989.557908-.570762.802735-1.060547.244826-.489785.429144-1.250221.238281-2.013672-.143844-.575376-.480314-2.249138-.744141-3.541016l8.742188-5.908203a2.3165482 2.3165482 0 0 0 .347656-3.550781l-30.101562-30.373047a2.3165482 2.3165482 0 0 0 -1.667969-.685547z" fill="#fff"/><path d="m18.757812 16.544922v37.800781l11.001954-2.291015c.783411-.07693 1.014571.122272 1.322265.283203l4.083985 2.951171c.205739-.08636.376081-.147386.726562-.34375.257288-.144149.430719-.278581.585938-.396484-.358612-1.585341-.966797-4.59375-.966797-4.59375-.244571-.620166.125465-1.178871.703126-1.716813l8.357422-5.646484z" fill="url(#i)"/></g></svg>