<?xml version="1.0" encoding="UTF-8" standalone="no"?>
<svg
   xmlns:dc="http://purl.org/dc/elements/1.1/"
   xmlns:cc="http://creativecommons.org/ns#"
   xmlns:rdf="http://www.w3.org/1999/02/22-rdf-syntax-ns#"
   xmlns:svg="http://www.w3.org/2000/svg"
   xmlns="http://www.w3.org/2000/svg"
   xmlns:sodipodi="http://sodipodi.sourceforge.net/DTD/sodipodi-0.dtd"
   xmlns:inkscape="http://www.inkscape.org/namespaces/inkscape"
   enable-background="new 0 0 128 128"
   height="128"
   viewBox="0 0 128 128"
   width="128"
   version="1.1"
   id="svg1172"
   sodipodi:docname="showsinglepage.svg"
   inkscape:version="0.92.3 (unknown)">
  <metadata
     id="metadata1178">
    <rdf:RDF>
      <cc:Work
         rdf:about="">
        <dc:format>image/svg+xml</dc:format>
        <dc:type
           rdf:resource="http://purl.org/dc/dcmitype/StillImage" />
        <dc:title></dc:title>
      </cc:Work>
    </rdf:RDF>
  </metadata>
  <defs
     id="defs1176" />
  <sodipodi:namedview
     pagecolor="#ffffff"
     bordercolor="#666666"
     borderopacity="1"
     objecttolerance="10"
     gridtolerance="10"
     guidetolerance="10"
     inkscape:pageopacity="0"
     inkscape:pageshadow="2"
     inkscape:window-width="1366"
     inkscape:window-height="706"
     id="namedview1174"
     showgrid="true"
     inkscape:zoom="5.2149125"
     inkscape:cx="80.862598"
     inkscape:cy="65.618374"
     inkscape:window-x="0"
     inkscape:window-y="0"
     inkscape:window-maximized="1"
     inkscape:current-layer="g1808">
    <inkscape:grid
       type="xygrid"
       id="grid6762"
       spacingx="4"
       spacingy="4"
       empspacing="2" />
  </sodipodi:namedview>
  <linearGradient
     id="a"
     gradientUnits="userSpaceOnUse"
     x1="88.591797"
     x2="71.262016"
     y1="96.592697"
     y2="79.262917">
    <stop
       offset="0"
       stop-color="#fff"
       id="stop1072" />
    <stop
       offset="1"
       stop-color="#555753"
       id="stop1074" />
  </linearGradient>
  <linearGradient
     id="b"
     gradientUnits="userSpaceOnUse"
     x1="85.219681"
     x2="61.336319"
     y1="93.219681"
     y2="69.336319">
    <stop
       offset="0"
       id="stop1077" />
    <stop
       offset="1"
       stop-color="#393b38"
       id="stop1079" />
  </linearGradient>
  <linearGradient
     id="c"
     gradientUnits="userSpaceOnUse"
     x1="96"
     x2="88.0002"
     y1="104"
     y2="96.0002">
    <stop
       offset="0"
       stop-color="#888a85"
       id="stop1082" />
    <stop
       offset=".0072"
       stop-color="#8c8e89"
       id="stop1084" />
    <stop
       offset=".0673"
       stop-color="#abaca9"
       id="stop1086" />
    <stop
       offset=".1347"
       stop-color="#c5c6c4"
       id="stop1088" />
    <stop
       offset=".2115"
       stop-color="#dbdbda"
       id="stop1090" />
    <stop
       offset=".3012"
       stop-color="#ebebeb"
       id="stop1092" />
    <stop
       offset=".4122"
       stop-color="#f7f7f6"
       id="stop1094" />
    <stop
       offset=".5679"
       stop-color="#fdfdfd"
       id="stop1096" />
    <stop
       offset="1"
       stop-color="#fff"
       id="stop1098" />
  </linearGradient>
  <radialGradient
     id="d"
     cx="102"
     cy="112.3047"
     gradientTransform="matrix(.9787234 0 0 .9818182 1.361705 1.163636)"
     gradientUnits="userSpaceOnUse"
     r="139.55859">
    <stop
       offset="0"
       stop-color="#535557"
       id="stop1101" />
    <stop
       offset=".11366145"
       stop-color="#898a8c"
       id="stop1103" />
    <stop
       offset=".20296688"
       stop-color="#ececec"
       id="stop1105" />
    <stop
       offset=".2363"
       stop-color="#fafafa"
       id="stop1107" />
    <stop
       offset=".2722"
       stop-color="#fff"
       id="stop1109" />
    <stop
       offset=".5313"
       stop-color="#fafafa"
       id="stop1111" />
    <stop
       offset=".8449"
       stop-color="#ebecec"
       id="stop1113" />
    <stop
       offset="1"
       stop-color="#e1e2e3"
       id="stop1115" />
  </radialGradient>
  <radialGradient
     id="e"
     cx="102.000002"
     cy="112.3047"
     gradientUnits="userSpaceOnUse"
     r="139.5585">
    <stop
       offset="0"
       stop-color="#00537d"
       id="stop1118" />
    <stop
       offset=".0151"
       stop-color="#186389"
       id="stop1120" />
    <stop
       offset=".0558"
       stop-color="#558ca8"
       id="stop1122" />
    <stop
       offset=".0964"
       stop-color="#89afc3"
       id="stop1124" />
    <stop
       offset=".1357"
       stop-color="#b3ccd8"
       id="stop1126" />
    <stop
       offset=".1737"
       stop-color="#d4e2e9"
       id="stop1128" />
    <stop
       offset=".2099"
       stop-color="#ecf2f5"
       id="stop1130" />
    <stop
       offset=".2435"
       stop-color="#fafcfd"
       id="stop1132" />
    <stop
       offset=".2722"
       stop-color="#fff"
       id="stop1134" />
  </radialGradient>
  <filter
     id="f">
    <feGaussianBlur
       stdDeviation="1.0394514"
       id="feGaussianBlur1137" />
  </filter>
  <filter
     id="g">
    <feGaussianBlur
       stdDeviation=".50063244"
       id="feGaussianBlur1140" />
  </filter>
  <filter
     id="h">
    <feGaussianBlur
       stdDeviation=".40750996"
       id="feGaussianBlur1143" />
  </filter>
  <filter
     id="i">
    <feGaussianBlur
       stdDeviation=".4901192"
       id="feGaussianBlur1146" />
  </filter>
  <filter
     id="j">
    <feGaussianBlur
       stdDeviation=".90565481"
       id="feGaussianBlur1149" />
  </filter>
  <g
     id="g1808">
    <g
       id="g1795">
      <path
         d="m23 9 .040816 112h61.131184c.53 0 1.039-.211 1.414-.586l32.828-32.828c.375-.375.586-.884.586-1.414v-77.172z"
         filter="url(#f)"
         opacity=".306849"
         transform="matrix(1.0416667 0 0 1.0357143 -9.958333 -3.321534)"
         id="path1152" />
      <path
         d="m24.919999 10.931136v108.137934l58.676001-.0001c.53 0 1.039-.211 1.414-.586l31.484-31.765936c.375-.375.586-.884.586-1.414v-74.371898z"
         filter="url(#g)"
         opacity=".89589"
         transform="matrix(1.0416667 0 0 1.0357143 -9.958333 -3.321534)"
         id="path1154" />
      <path
         d="m23 9.9655172.040816 111.0344828h61.131184c.53 0 1.039-.211 1.414-.586l32.828-32.828c.375-.375.586-.884.586-1.414v-76.2064828z"
         filter="url(#f)"
         opacity=".306849"
         transform="matrix(1.0416667 0 0 1.0357143 -9.958333 -3.321534)"
         id="path1156" />
      <path
         d="m16.000002 8v112h61.172c.53 0 1.039-.211 1.414-.586l32.827998-32.828c.375-.375.586-.884.586-1.414v-77.172z"
         fill="url(#e)"
         id="path1158" />
      <path
         d="m19.678725 10.7c-.539276 0-.978723.440836-.978723.981818l-.7 105.336362c0 .54197.439447.98182.978723.98182h57.913022c.257404 0 .509915-.10407.691957-.28767l32.129526-32.23113c.18303-.1836.28677-.435927.28677-.694145v-73.805237c0-.540982-.43847-.981818-.97872-.981818z"
         fill="url(#d)"
         id="path1160" />
    </g>
    <g
       id="g1170"
       transform="translate(.000002)">
      <path
         id="path1162"
         opacity=".1"
         filter="url(#h)"
         fill="url(#a)"
         d="m111.414 86.586c.25-.25-26.379-1.586-31.414-1.586-1.654 0-3 1.346-3 3 0 5.035 1.336 31.664 1.586 31.414z" />
      <path
         id="path1164"
         opacity=".2"
         filter="url(#j)"
         d="m111.414 86.586c.375-.375-21.97-.586-31.414-.586-1.103 0-2 .897-2 2 0 9.444.211 31.789.586 31.414z" />
      <path
         id="path1166"
         opacity=".1"
         filter="url(#i)"
         fill="url(#b)"
         d="m111.414 86.586c.239-.239-21.607.414-31.414.414-.553 0-1 .447-1 1 0 9.807-.653 31.653-.414 31.414z" />
      <path
         id="path1168"
         fill="url(#c)"
         d="m78.586 119.414s11.914-9.914 17.414-15.414 15.414-17.414 15.414-17.414-21.164 1.414-31.414 1.414c0 10.25-1.414 31.414-1.414 31.414z" />
    </g>
    <path
       d="m 104,20 v 4 H 24 v -4 z"
       id="path67"
       inkscape:connector-curvature="0"
       style="fill:#7e7e7e;fill-opacity:1;stroke-width:1.58113897" />
    <path
       d="m 104,32 v 4 H 24 v -4 z"
       id="path69"
       inkscape:connector-curvature="0"
       style="fill:#7e7e7e;fill-opacity:1;stroke-width:1.58113897" />
    <path
       d="m 104,44 v 4 H 24 v -4 z"
       id="path71"
       inkscape:connector-curvature="0"
       style="fill:#7e7e7e;fill-opacity:1;stroke-width:1.58113897" />
    <path
       style="fill:#ff6600;fill-opacity:1;stroke-width:3.01159978"
       inkscape:connector-curvature="0"
       id="path148"
       d="m 40,60 h 64 v 4 H 40 Z"
       sodipodi:nodetypes="ccccc" />
    <path
       sodipodi:nodetypes="ccccc"
       d="m 24,72 h 80 v 4 H 24 Z"
       id="path8454"
       inkscape:connector-curvature="0"
       style="fill:#ff6600;fill-opacity:1;stroke-width:3.36707091" />
  </g>
</svg>
