<?xml version="1.0" encoding="UTF-8" standalone="no"?>
<svg
   xmlns:dc="http://purl.org/dc/elements/1.1/"
   xmlns:cc="http://creativecommons.org/ns#"
   xmlns:rdf="http://www.w3.org/1999/02/22-rdf-syntax-ns#"
   xmlns:svg="http://www.w3.org/2000/svg"
   xmlns="http://www.w3.org/2000/svg"
   xmlns:xlink="http://www.w3.org/1999/xlink"
   xmlns:sodipodi="http://sodipodi.sourceforge.net/DTD/sodipodi-0.dtd"
   xmlns:inkscape="http://www.inkscape.org/namespaces/inkscape"
   height="128"
   width="128"
   version="1.1"
   id="svg128"
   sodipodi:docname="showfmexplorer.svg"
   inkscape:version="0.92.3 (unknown)"
   inkscape:export-filename="/home/rizmut/Dokumen/Rizmut/Github/libreoffice-style-karasa-jaga/build/images_karasa_jaga/cmd/32/showfmexplorer.png"
   inkscape:export-xdpi="24"
   inkscape:export-ydpi="24">
  <metadata
     id="metadata134">
    <rdf:RDF>
      <cc:Work
         rdf:about="">
        <dc:format>image/svg+xml</dc:format>
        <dc:type
           rdf:resource="http://purl.org/dc/dcmitype/StillImage" />
      </cc:Work>
    </rdf:RDF>
  </metadata>
  <defs
     id="defs132">
    <filter
       id="g-3">
      <feGaussianBlur
         stdDeviation="1.177891"
         id="feGaussianBlur34" />
    </filter>
    <linearGradient
       id="f-6"
       gradientTransform="matrix(0.0321355,0,0,0.04647684,-1.027302,241.82648)"
       gradientUnits="userSpaceOnUse"
       x1="399.77466"
       x2="399.77466"
       y1="727.07941"
       y2="480.60214">
      <stop
         offset="0"
         stop-color="#cbcbcd"
         id="stop27-7" />
      <stop
         offset=".5"
         stop-color="#e0e0e2"
         id="stop29" />
      <stop
         offset="1"
         stop-color="#f2f2f2"
         id="stop31" />
    </linearGradient>
    <linearGradient
       id="e-5"
       gradientTransform="matrix(0.0321355,0,0,0.04647684,30.575317,335.83667)"
       gradientUnits="userSpaceOnUse"
       x1="-333.0289"
       x2="-333.0289"
       y1="-1473.6504"
       y2="-776.61371">
      <stop
         offset="0"
         stop-color="#fff"
         id="stop20" />
      <stop
         offset=".49140647"
         stop-color="#fff"
         id="stop22" />
      <stop
         offset="1"
         stop-color="#dcdcdc"
         id="stop24" />
    </linearGradient>
    <linearGradient
       id="d-3"
       gradientUnits="userSpaceOnUse"
       x1="16.933334"
       x2="16.933334"
       y1="272.65829"
       y2="279.0083">
      <stop
         offset="0"
         stop-color="#535353"
         id="stop9" />
      <stop
         offset=".10625"
         stop-color="#a9a9a9"
         id="stop11-5" />
      <stop
         offset=".21249999"
         stop-color="#fff"
         id="stop13-6" />
      <stop
         offset=".83083332"
         stop-color="#fff"
         id="stop15-2" />
      <stop
         offset="1"
         stop-color="#e6e6e6"
         id="stop17-9" />
    </linearGradient>
    <linearGradient
       id="c-1"
       gradientUnits="userSpaceOnUse"
       x1="3.1054807"
       x2="5.3647146"
       xlink:href="#b-2"
       y1="275.00192"
       y2="275.6073" />
    <linearGradient
       id="b-2">
      <stop
         offset="0"
         stop-color="#5e5e5e"
         id="stop3" />
      <stop
         offset="1"
         stop-color="#5e5e5e"
         stop-opacity="0"
         id="stop5" />
    </linearGradient>
    <linearGradient
       id="a-7"
       gradientUnits="userSpaceOnUse"
       x1="-30.76119"
       x2="-28.501957"
       xlink:href="#b-2"
       y1="275.00192"
       y2="275.6073" />
    <filter
       style="color-interpolation-filters:sRGB"
       id="i-0"
       height="1.156"
       width="1.0468"
       x="-0.023399999"
       y="-0.078000002">
      <feGaussianBlur
         stdDeviation=".20637505"
         id="feGaussianBlur44" />
    </filter>
    <linearGradient
       id="h-9"
       gradientTransform="matrix(0.44151224,0,0,0.41568081,-24.172459,-311.89243)"
       gradientUnits="userSpaceOnUse"
       x1="101.3308"
       x2="101.3308"
       y1="51.34185"
       y2="66.668198">
      <stop
         offset="0"
         stop-color="#cbcbcd"
         id="stop37" />
      <stop
         offset=".66545075"
         stop-color="#e0e0e2"
         id="stop39" />
      <stop
         offset="1"
         stop-color="#fff"
         id="stop41-3" />
    </linearGradient>
  </defs>
  <sodipodi:namedview
     pagecolor="#ffffff"
     bordercolor="#666666"
     borderopacity="1"
     objecttolerance="10"
     gridtolerance="10"
     guidetolerance="10"
     inkscape:pageopacity="0"
     inkscape:pageshadow="2"
     inkscape:window-width="1366"
     inkscape:window-height="706"
     id="namedview130"
     showgrid="false"
     inkscape:zoom="1.84375"
     inkscape:cx="-100.61017"
     inkscape:cy="64"
     inkscape:window-x="0"
     inkscape:window-y="0"
     inkscape:window-maximized="1"
     inkscape:current-layer="svg128" />
  <filter
     id="a"
     color-interpolation-filters="sRGB"
     height="1.12069"
     width="1.119315"
     x="-.059658"
     y="-.060345">
    <feGaussianBlur
       stdDeviation=".82504758"
       id="feGaussianBlur2" />
  </filter>
  <linearGradient
     id="b"
     gradientUnits="userSpaceOnUse"
     x1="98.12942231565"
     x2="98.12942231565"
     xlink:href="#c"
     y1="90.0675831177"
     y2="-21.72680444971" />
  <linearGradient
     id="c">
    <stop
       offset="0"
       stop-color="#525252"
       id="stop6" />
    <stop
       offset="1"
       stop-color="#d8d8d8"
       id="stop8" />
  </linearGradient>
  <linearGradient
     id="d"
     gradientUnits="userSpaceOnUse"
     x1="39.22499258738"
     x2="152.77500137866"
     y1="27.11667940147"
     y2="27.11667940147">
    <stop
       offset="0"
       stop-color="#ebebeb"
       id="stop11" />
    <stop
       offset=".3164545"
       stop-color="#cacaca"
       id="stop13" />
    <stop
       offset=".58694273"
       stop-color="#c7c7c7"
       stop-opacity=".955882"
       id="stop15" />
    <stop
       offset=".84601915"
       stop-color="#cacaca"
       id="stop17" />
    <stop
       offset="1"
       stop-color="#dedede"
       id="stop19" />
  </linearGradient>
  <filter
     id="e"
     color-interpolation-filters="sRGB"
     height="1.024"
     width="1.024"
     x="-.012"
     y="-.012">
    <feGaussianBlur
       stdDeviation=".12785668"
       id="feGaussianBlur22" />
  </filter>
  <linearGradient
     id="f"
     gradientUnits="userSpaceOnUse"
     x1="97.90108806125"
     x2="98.13722176407"
     y1="-19.07210793693"
     y2="75.33769315672">
    <stop
       offset="0"
       stop-color="#171a1c"
       id="stop25" />
    <stop
       offset="1"
       stop-color="#8ca0ac"
       id="stop27" />
  </linearGradient>
  <radialGradient
     id="g"
     cx="63.02887"
     cy="288.18738"
     gradientUnits="userSpaceOnUse"
     r="11.437257">
    <stop
       offset="0"
       stop-color="#7cb5fc"
       id="stop30" />
    <stop
       offset="1"
       stop-color="#0d5bab"
       id="stop32" />
  </radialGradient>
  <filter
     id="h"
     color-interpolation-filters="sRGB"
     height="1.024"
     width="1.024"
     x="-.012"
     y="-.012">
    <feGaussianBlur
       stdDeviation=".11169196"
       id="feGaussianBlur35" />
  </filter>
  <filter
     id="i"
     color-interpolation-filters="sRGB"
     height="1.023839"
     width="1.024163"
     x="-.012082"
     y="-.01192">
    <feGaussianBlur
       stdDeviation=".087289468"
       id="feGaussianBlur38" />
  </filter>
  <linearGradient
     id="j"
     gradientTransform="matrix(3.1220474 0 0 3.3307435 -99.682263 -910.34368)"
     gradientUnits="userSpaceOnUse"
     x1="63.499996"
     x2="63.499996"
     y1="269.89706"
     y2="286.49451">
    <stop
       offset="0"
       stop-color="#e3f3fd"
       id="stop41" />
    <stop
       offset="1"
       stop-color="#a3d8f9"
       stop-opacity="0"
       id="stop43" />
  </linearGradient>
  <linearGradient
     id="k"
     gradientUnits="userSpaceOnUse"
     x1="96.18578806681"
     x2="97.51016365119"
     y1="-31.97836608486"
     y2="4.39422726081">
    <stop
       offset="0"
       stop-color="#fcfcfc"
       id="stop46" />
    <stop
       offset="1"
       stop-color="#fcfcfc"
       stop-opacity="0"
       id="stop48" />
  </linearGradient>
  <radialGradient
     id="l"
     cx="67.73333"
     cy="277.9501"
     gradientTransform="matrix(-3.3904774 0 0 -3.3904774 310.92706 979.89649)"
     gradientUnits="userSpaceOnUse"
     r="7.574691">
    <stop
       offset="0"
       stop-color="#bfbfbf"
       id="stop51" />
    <stop
       offset="1"
       stop-color="#dfdfdf"
       stop-opacity="0"
       id="stop53" />
  </radialGradient>
  <filter
     id="m"
     color-interpolation-filters="sRGB"
     height="1.047739"
     width="1.048264"
     x="-.024132"
     y="-.02387">
    <feGaussianBlur
       stdDeviation=".9480859"
       id="feGaussianBlur56" />
  </filter>
  <radialGradient
     id="n"
     cx="21.27340907379"
     cy="276.88302469588"
     gradientUnits="userSpaceOnUse"
     r="6.79498116803">
    <stop
       offset="0"
       stop-color="#e10000"
       id="stop59" />
    <stop
       offset="1"
       stop-color="#851400"
       id="stop61" />
  </radialGradient>
  <radialGradient
     id="o"
     cx="21.27340907379"
     cy="276.88302469588"
     gradientUnits="userSpaceOnUse"
     r="6.79498116803">
    <stop
       offset="0"
       stop-color="#ffbfbf"
       id="stop64" />
    <stop
       offset="1"
       stop-color="#ffbfbf"
       stop-opacity="0"
       id="stop66" />
  </radialGradient>
  <linearGradient
     id="p"
     gradientUnits="userSpaceOnUse"
     x1="16.52645280471"
     x2="17.47584234674"
     xlink:href="#c"
     y1="277.83243853154"
     y2="281.63001464096" />
  <radialGradient
     id="q"
     cx="17.52717078726"
     cy="278.6823772404"
     gradientUnits="userSpaceOnUse"
     r="2.42715944662">
    <stop
       offset="0"
       stop-color="#e8e8e8"
       id="stop70" />
    <stop
       offset="1"
       stop-color="#c7c7c7"
       id="stop72" />
  </radialGradient>
  <filter
     id="r"
     color-interpolation-filters="sRGB"
     height="1.08803"
     width="1.060909"
     x="-.030454"
     y="-.044015">
    <feGaussianBlur
       stdDeviation=".61981931"
       id="feGaussianBlur75" />
  </filter>
  <g
     transform="matrix(3.7795275,0,0,3.7795275,-3.7954091e-7,-994.51962)"
     id="g67">
    <path
       style="opacity:0.5;filter:url(#g-3)"
       inkscape:connector-curvature="0"
       d="m 83.772,239.27611 h 119.71329 c 1.18742,0 2.14336,1.12849 2.14336,2.53025 v 100.56093 c 0,1.40175 -0.95594,2.53025 -2.14336,2.53025 H 83.772 c -1.187418,0 -2.143353,-1.1285 -2.143353,-2.53025 V 241.80636 c 0,-1.40176 0.955935,-2.53025 2.143353,-2.53025 z"
       transform="matrix(0.26458333,0,0,0.26052164,-21.068414,204.50088)"
       id="path47" />
    <path
       style="fill:url(#f-6)"
       inkscape:connector-curvature="0"
       d="M 1.6071347,267.36666 H 32.259523 c 0.304038,0 0.548801,0.28894 0.548801,0.64786 v 25.1626 c 0,0.35892 -0.244763,0.64786 -0.548801,0.64786 H 1.6071347 c -0.3040362,0 -0.5488019,-0.28894 -0.5488019,-0.64786 v -25.1626 c 0,-0.35892 0.2447657,-0.64786 0.5488019,-0.64786 z"
       id="path49" />
    <path
       style="fill:url(#e-5)"
       inkscape:connector-curvature="0"
       d="m 1.6040367,267.36666 c -0.3040364,0 -0.5457031,0.286 -0.5457031,0.64492 v 25.16848 c 0,0.35892 0.2416667,0.64492 0.5457031,0.64492 H 32.262629 c 0.304041,0 0.545703,-0.286 0.545703,-0.64492 v -25.16848 c 0,-0.35892 -0.241662,-0.64492 -0.545703,-0.64492 z m 0.3720703,0.96738 h 29.914452 c 0.288835,0 0.520898,0.27095 0.520898,0.60772 v 23.87864 c 0,0.33676 -0.232063,0.60771 -0.520898,0.60771 H 1.976107 c -0.2888343,0 -0.5208984,-0.27095 -0.5208984,-0.60771 v -23.87864 c 0,-0.33677 0.2320641,-0.60772 0.5208984,-0.60772 z"
       id="path51" />
    <rect
       style="fill:url(#d-3)"
       height="6.3499951"
       rx="2.116667"
       width="25.4"
       x="4.2333331"
       y="272.65833"
       id="rect53" />
    <rect
       style="fill:url(#c-1)"
       height="6.3499999"
       rx="2.116667"
       width="4.2333331"
       x="4.2333331"
       y="272.65833"
       id="rect55" />
    <rect
       style="fill:url(#a-7)"
       height="6.3499999"
       rx="2.116667"
       transform="scale(-1,1)"
       width="4.2333331"
       x="-29.633337"
       y="272.65833"
       id="rect57" />
    <rect
       style="fill-opacity:0.92549002;filter:url(#i-0)"
       height="6.3500071"
       rx="1.2788531"
       ry="1.223218"
       transform="matrix(1,0,0,-1,0,0.529167)"
       width="21.166666"
       x="6.3499999"
       y="-290.64999"
       id="rect59" />
    <rect
       style="fill:url(#h-9)"
       height="6.3500071"
       rx="1.2788531"
       ry="1.223218"
       transform="scale(1,-1)"
       width="21.166666"
       x="6.3499999"
       y="-290.64999"
       id="rect61" />
    <text
       style="font-size:5.3886342px;font-family:sans-serif;letter-spacing:0;word-spacing:0;stroke-width:0.134716"
       font-size="5.388634"
       letter-spacing="0"
       word-spacing="0"
       x="12.772635"
       y="289.40952"
       id="text65">
      <tspan
         style="font-weight:600;font-family:FreeSans;stroke-width:0.134716"
         font-weight="600"
         x="12.772635"
         y="289.40952"
         id="tspan63">OK</tspan>
    </text>
  </g>
  <g
     transform="matrix(.52413124 0 0 .52413124 46.026698 19.45106)"
     id="g126">
    <ellipse
       cx="62.895233"
       cy="281.04938"
       fill="#5a5a5a"
       filter="url(#a)"
       rx="16.59565"
       ry="16.406662"
       transform="matrix(3.4973155 0 0 3.5176096 -123.96447 -958.622)"
       id="ellipse80" />
    <circle
       cx="96"
       cy="27.116606"
       fill="url(#b)"
       r="57.769276"
       id="circle82" />
    <circle
       cx="96"
       cy="27.116606"
       fill="url(#d)"
       r="56.774998"
       id="circle84" />
    <circle
       cx="62.895233"
       cy="281.23837"
       fill="#f0f3f4"
       filter="url(#e)"
       r="12.785668"
       transform="matrix(3.6412308 0 0 3.6412308 -133.01607 -996.9372)"
       id="circle86" />
    <circle
       cx="96"
       cy="27.116606"
       fill="url(#f)"
       r="43.97504"
       id="circle88" />
    <circle
       cx="96"
       cy="27.116606"
       fill="#032668"
       r="39.82795"
       id="circle90" />
    <circle
       cx="62.895233"
       cy="281.23837"
       fill="url(#g)"
       filter="url(#h)"
       r="11.169196"
       transform="matrix(3.3425285 0 0 3.3425285 -114.22911 -912.93062)"
       id="circle92" />
    <path
       d="m68.953232 290.2807-1.443425-4.75293c1.416094-1.66975 1.823029-3.9728 1.064875-6.02671l2.979396-3.96944-4.746321 1.45286c-1.669825-1.41586-3.972826-1.82258-6.026605-1.06431l-4.134512-3.21514 1.617929 4.98206c-1.41584 1.66963-1.822725 3.9724-1.064771 6.02613l-2.985837 3.96023 4.752927-1.44343c1.669699 1.41602 3.972653 1.82293 6.02652 1.06485zm-3.668966-5.25007c-1.890643 1.32376-4.496438.8642-5.820182-1.02645-1.323703-1.89056-.864252-4.49622 1.026222-5.82003 1.890562-1.32389 4.496384-.8645 5.820259 1.02606 1.323953 1.89065.864456 4.49661-1.026299 5.82042z"
       fill="#326fb6"
       filter="url(#i)"
       transform="matrix(3.3904774 0 0 3.3904774 -117.24487 -926.41571)"
       id="path94" />
    <g
       transform="matrix(1.3038578 1.3038578 -1.3038578 1.3038578 260.21962 -528.13141)"
       id="g100">
      <path
         d="m169.10577 279.56256-8.05633-4.30293c-.32979-4.01212-2.79507-7.53557-6.45124-9.22028l-1.28722-9.03467-4.28206 8.06c-4.01193.33019-7.53503 2.79568-9.21941 6.45183l-9.55581 1.19534 8.58112 4.37395c.32997 4.01164 2.79494 7.53465 6.45062 9.21939l1.26687 9.03107 4.30292-8.05632c4.01196-.32983 7.53525-2.79501 9.21999-6.45103zm-11.59628-2.05571c-.73704 4.17928-4.72253 6.96975-8.9018 6.23267-4.17909-.73701-6.96953-4.72218-6.23277-8.9013.73677-4.17934 4.72207-6.97007 8.90139-6.23328 4.17954.73681 6.97031 4.72243 6.23318 8.90191z"
         fill="#dbe8f9"
         id="path96" />
      <path
         d="m566.44336 16.882812a31.567267 31.567267 0 0 0 -31.56836 31.56836 31.567267 31.567267 0 0 0 31.56836 31.566406 31.567267 31.567267 0 0 0 31.56641-31.566406 31.567267 31.567267 0 0 0 -31.56641-31.56836zm0 2.525391a29.041884 29.041884 0 0 1 29.04102 29.042969 29.041884 29.041884 0 0 1 -29.04102 29.041016 29.041884 29.041884 0 0 1 -29.04297-29.041016 29.041884 29.041884 0 0 1 29.04297-29.042969z"
         fill="#f7fcfe"
         transform="matrix(.26458333 0 0 .26458333 0 263.13332)"
         id="path98" />
    </g>
    <ellipse
       cx="96.679634"
       cy="23.718515"
       fill="url(#j)"
       rx="33.425331"
       ry="32.989063"
       id="ellipse102" />
    <path
       d="m96.000544-28.944925a46.594666 24.187068 0 0 0 -14.993288 1.312252 56.774998 56.774998 0 0 0 -31.563155 22.2949803 46.594666 24.187068 0 0 0 -.03935.58114 46.594666 24.187068 0 0 0 6.150658 11.948901 45.140334 45.140334 0 0 1 40.445146-25.2156483 45.140334 45.140334 0 0 1 40.475145 25.2119063 46.594666 24.187068 0 0 0 6.1188-11.945159 46.594666 24.187068 0 0 0 -.0506-.523011 56.774998 56.774998 0 0 0 -32.14241-22.4505833 46.594666 24.187068 0 0 0 -14.400919-1.214778z"
       fill="url(#k)"
       id="path104" />
    <path
       d="m54.548273 69.497632 51.363637-34.903898-7.861471-7.861455z"
       fill="url(#l)"
       id="path106" />
    <g
       transform="matrix(4.0794043 0 0 4.0794043 26.909745 -1114.6013)"
       id="g124">
      <path
         d="m285.0332 23.582031-57.25586 38.908203 10.08985 10.091797-47.125 46.326169 57.25781-38.9082-.77734-.777344z"
         fill="#4a2828"
         filter="url(#m)"
         transform="matrix(.23734813 0 0 .23734813 -39.487706 263.59154)"
         id="path108" />
      <path
         d="m28.345842 268.42042-13.589964 9.23498 4.354979 4.35499z"
         fill="url(#n)"
         id="path110" />
      <path
         d="m5.5208237 291.24544 9.2349853-13.58997 4.354978 4.35498z"
         fill="#e8e8e8"
         id="path112" />
      <path
         d="m26.656733 269.80571-11.593498 7.87909 1.774854 1.7731z"
         fill="url(#o)"
         id="path114" />
      <circle
         cx="16.933331"
         cy="279.83292"
         fill="url(#p)"
         r="2.598824"
         id="circle116" />
      <circle
         cx="16.933331"
         cy="279.83292"
         fill="url(#q)"
         r="2.427159"
         id="circle118" />
      <circle
         cx="16.933331"
         cy="279.83292"
         fill="#555"
         r="1.1984"
         id="circle120" />
      <path
         d="m278.68164 26.181641-48.8457 33.197265.60156.59961 44.91797-30.527344z"
         fill="#fefefe"
         filter="url(#r)"
         transform="matrix(.23734813 0 0 .23734813 -39.487706 263.59154)"
         id="path122" />
    </g>
  </g>
</svg>
