<?xml version="1.0" encoding="UTF-8" standalone="no"?>
<svg
   xmlns:dc="http://purl.org/dc/elements/1.1/"
   xmlns:cc="http://creativecommons.org/ns#"
   xmlns:rdf="http://www.w3.org/1999/02/22-rdf-syntax-ns#"
   xmlns:svg="http://www.w3.org/2000/svg"
   xmlns="http://www.w3.org/2000/svg"
   xmlns:xlink="http://www.w3.org/1999/xlink"
   xmlns:sodipodi="http://sodipodi.sourceforge.net/DTD/sodipodi-0.dtd"
   xmlns:inkscape="http://www.inkscape.org/namespaces/inkscape"
   height="128"
   viewBox="0 0 128 128"
   width="128"
   version="1.1"
   id="svg3255"
   sodipodi:docname="solverdialog.svg"
   inkscape:version="0.92.3 (unknown)"
   inkscape:export-filename="/home/rizmut/Dokumen/Rizmut/Github/libreoffice-style-karasa-jaga/build/images_karasa_jaga/cmd/32/solverdialog.png"
   inkscape:export-xdpi="24"
   inkscape:export-ydpi="24">
  <metadata
     id="metadata3261">
    <rdf:RDF>
      <cc:Work
         rdf:about="">
        <dc:format>image/svg+xml</dc:format>
        <dc:type
           rdf:resource="http://purl.org/dc/dcmitype/StillImage" />
        <dc:title></dc:title>
      </cc:Work>
    </rdf:RDF>
  </metadata>
  <defs
     id="defs3259">
    <linearGradient
       inkscape:collect="always"
       xlink:href="#linearGradient4118"
       id="linearGradient4756"
       gradientUnits="userSpaceOnUse"
       gradientTransform="matrix(2.2222222,0,0,2.3333333,-464.77778,-914.33333)"
       x1="430"
       y1="269"
       x2="430"
       y2="275.0867" />
    <linearGradient
       id="linearGradient4118">
      <stop
         id="stop4120"
         offset="0"
         style="stop-color:#e0f4b8;stop-opacity:1" />
      <stop
         id="stop4122"
         offset="1"
         style="stop-color:#92c441;stop-opacity:0.21459228" />
    </linearGradient>
    <linearGradient
       inkscape:collect="always"
       xlink:href="#linearGradient4112"
       id="linearGradient4754"
       gradientUnits="userSpaceOnUse"
       gradientTransform="matrix(2.2222222,0,0,2.3333333,-464.77778,-914.33333)"
       x1="429.30026"
       y1="273.82983"
       x2="429.30026"
       y2="271.99973" />
    <linearGradient
       id="linearGradient4112">
      <stop
         id="stop4114"
         offset="0"
         style="stop-color:#bbf10e;stop-opacity:1" />
      <stop
         id="stop4116"
         offset="1"
         style="stop-color:#5f9207;stop-opacity:1" />
    </linearGradient>
    <radialGradient
       inkscape:collect="always"
       xlink:href="#linearGradient4105"
       id="radialGradient4752"
       gradientUnits="userSpaceOnUse"
       gradientTransform="matrix(2.8400251,0,0,2.9820263,-729.8152,-1090.7778)"
       cx="429"
       cy="272"
       fx="429"
       fy="272"
       r="4" />
    <linearGradient
       id="linearGradient4105">
      <stop
         id="stop4107"
         offset="0"
         style="stop-color:#033a13;stop-opacity:1" />
      <stop
         id="stop4109"
         offset="1"
         style="stop-color:#398c37;stop-opacity:1" />
    </linearGradient>
    <radialGradient
       inkscape:collect="always"
       xlink:href="#linearGradient4126"
       id="radialGradient4128"
       cx="499.27826"
       cy="92.140617"
       fx="499.27826"
       fy="92.140617"
       r="29.834906"
       gradientTransform="matrix(0.9546372,-0.06061994,0.07329472,1.1542384,15.89524,16.054601)"
       gradientUnits="userSpaceOnUse" />
    <linearGradient
       inkscape:collect="always"
       id="linearGradient4126">
      <stop
         style="stop-color:#0069c4;stop-opacity:1"
         offset="0"
         id="stop4122-3" />
      <stop
         style="stop-color:#0059a7;stop-opacity:1"
         offset="1"
         id="stop4124" />
    </linearGradient>
    <linearGradient
       inkscape:collect="always"
       xlink:href="#linearGradient1791"
       id="linearGradient4147"
       x1="503.24423"
       y1="47.628471"
       x2="497.52887"
       y2="86.970459"
       gradientUnits="userSpaceOnUse" />
    <linearGradient
       inkscape:collect="always"
       id="linearGradient1791">
      <stop
         style="stop-color:#ffffff;stop-opacity:1"
         offset="0"
         id="stop1787" />
      <stop
         style="stop-color:#fcf3f3;stop-opacity:0;"
         offset="1"
         id="stop1789" />
    </linearGradient>
    <linearGradient
       inkscape:collect="always"
       xlink:href="#linearGradient1791"
       id="linearGradient4160"
       x1="497.28656"
       y1="138.79289"
       x2="496.11801"
       y2="155.81139"
       gradientUnits="userSpaceOnUse" />
  </defs>
  <sodipodi:namedview
     pagecolor="#ffffff"
     bordercolor="#666666"
     borderopacity="1"
     objecttolerance="10"
     gridtolerance="10"
     guidetolerance="10"
     inkscape:pageopacity="0"
     inkscape:pageshadow="2"
     inkscape:window-width="1366"
     inkscape:window-height="706"
     id="namedview3257"
     showgrid="true"
     inkscape:zoom="2.6074563"
     inkscape:cx="45.768852"
     inkscape:cy="82.303443"
     inkscape:window-x="0"
     inkscape:window-y="0"
     inkscape:window-maximized="1"
     inkscape:current-layer="svg3255">
    <inkscape:grid
       type="xygrid"
       id="grid3806"
       spacingx="4"
       spacingy="4"
       empspacing="2" />
  </sodipodi:namedview>
  <linearGradient
     id="a">
    <stop
       offset="0"
       stop-color="#fff"
       id="stop3220" />
    <stop
       offset="1"
       stop-color="#fff"
       stop-opacity="0"
       id="stop3222" />
  </linearGradient>
  <linearGradient
     id="b"
     gradientUnits="userSpaceOnUse"
     x1="25.515633"
     x2="82.713895"
     xlink:href="#a"
     y1="-93.07647"
     y2="59.479324" />
  <linearGradient
     id="c"
     gradientUnits="userSpaceOnUse"
     x1="78.22366"
     x2="95.309598"
     y1="119.987135"
     y2="62.626804">
    <stop
       offset="0"
       stop-color="#5e5e5e"
       id="stop3226" />
    <stop
       offset="1"
       stop-opacity="0"
       id="stop3228" />
  </linearGradient>
  <linearGradient
     id="d"
     gradientUnits="userSpaceOnUse"
     x1="90.739544"
     x2="96.131237"
     xlink:href="#a"
     y1="12.071719"
     y2="2.349" />
  <filter
     id="e"
     height="1.317541"
     width="1.244662"
     x="-.122331"
     y="-.15877">
    <feGaussianBlur
       stdDeviation=".27482165"
       id="feGaussianBlur3232" />
  </filter>
  <radialGradient
     id="f"
     cx="72.309822"
     cy="22.770975"
     gradientTransform="matrix(1.2890806,0.00623099,-3.9589e-4,0.08190326,-20.745443,3.152109)"
     gradientUnits="userSpaceOnUse"
     r="35.712891"
     xlink:href="#a" />
  <linearGradient
     id="g"
     gradientUnits="userSpaceOnUse"
     x1="101.043449"
     x2="64.526082"
     xlink:href="#a"
     y1="72.676467"
     y2="-60.538037" />
  <linearGradient
     id="h"
     gradientUnits="userSpaceOnUse"
     x1="88.00948"
     x2="95.68755"
     xlink:href="#a"
     y1="145.503265"
     y2="62.626804" />
  <filter
     id="i"
     color-interpolation-filters="sRGB"
     height="1.005726"
     width="1.009696"
     x="-.004848"
     y="-.002863">
    <feGaussianBlur
       stdDeviation=".12613919"
       id="feGaussianBlur3238" />
  </filter>
  <g
     id="g3920"
     transform="matrix(4,0,0,4,-1848,1212)">
    <path
       style="display:inline;fill:none;fill-opacity:1;fill-rule:evenodd;stroke:url(#radialGradient4752);stroke-width:2;stroke-linecap:round;stroke-linejoin:round;stroke-miterlimit:4;stroke-dasharray:none;stroke-opacity:1"
       d="m 473,-282 v 5 h 13 v 4 l 6.5,-6.5 -6.5,-6.5 v 4 z"
       id="path4737"
       sodipodi:nodetypes="cccccccc"
       inkscape:connector-curvature="0" />
    <path
       sodipodi:nodetypes="cccccccc"
       id="path4740"
       d="m 473,-282 v 5 h 13 v 4 l 6.5,-6.5 -6.5,-6.5 v 4 z"
       style="display:inline;fill:url(#linearGradient4754);fill-opacity:1;fill-rule:evenodd;stroke:none;stroke-width:1px;stroke-linecap:butt;stroke-linejoin:miter;stroke-opacity:1"
       inkscape:connector-curvature="0" />
    <path
       style="display:inline;fill:url(#linearGradient4756);fill-opacity:1;fill-rule:evenodd;stroke:none;stroke-width:1px;stroke-linecap:butt;stroke-linejoin:miter;stroke-opacity:1"
       d="m 473,-282 v 2 h 19 l -6,-6 v 4 z"
       id="path4744"
       sodipodi:nodetypes="cccccc"
       inkscape:connector-curvature="0" />
  </g>
  <g
     id="g4168"
     transform="matrix(0.79956504,0,0,0.79956504,-372.25133,-42.914393)">
    <path
       sodipodi:nodetypes="sccscscscsccccccccsccscscs"
       d="m 481.87149,66.760151 c 0,1.454219 0.82087,3.076234 2.46262,4.866043 1.98141,2.125398 3.19856,4.055036 3.65145,5.788913 0.22645,0.950836 0.33968,1.957603 0.33968,3.020302 0,4.530454 -1.75497,7.746517 -5.2649,9.648189 -1.69835,0.894905 -3.59485,1.342357 -5.68949,1.342357 -4.24589,0 -7.50107,-1.789809 -9.76554,-5.369427 -1.35868,-2.237261 -2.03802,-4.782145 -2.03802,-7.634653 0,-7.382963 3.17026,-13.395602 9.51078,-18.037919 6.11408,-4.474522 13.8416,-6.711783 23.18255,-6.711783 11.54881,0 20.52178,3.132166 26.91892,9.396497 5.15167,5.089769 7.75582,11.465963 7.81243,19.128583 0,6.655852 -2.00972,12.276971 -6.02917,16.863356 -3.17026,3.579621 -6.1521,7.466861 -12.94552,11.661721 -5.03845,3.07623 -8.29362,5.64908 -9.76553,7.71855 -1.64175,2.34913 -2.51923,6.12451 -2.63245,11.32614 v 2.60082 h -7.17998 c -0.22645,-3.46775 -0.33968,-6.09654 -0.33968,-7.88635 0,-4.19486 1.4153,-8.94904 4.24589,-14.26254 3.00043,-5.64908 4.75539,-9.08887 5.2649,-10.319372 2.32109,-5.59315 3.48163,-11.493925 3.48163,-17.702325 0,-10.459196 -2.66075,-17.310809 -7.98226,-20.554838 -1.98142,-1.174561 -4.18928,-1.761842 -6.62359,-1.761842 -4.75539,0 -7.98227,1.286425 -9.68062,3.859275 -0.62273,0.950836 -0.9341,1.957604 -0.9341,3.020303 z"
       style="font-style:normal;font-variant:normal;font-weight:bold;font-stretch:normal;font-size:172.86343384px;line-height:125%;font-family:KacstOne;-inkscape-font-specification:'KacstOne, Bold';font-variant-ligatures:normal;font-variant-caps:normal;font-variant-numeric:normal;font-feature-settings:normal;text-align:start;letter-spacing:0px;word-spacing:0px;writing-mode:lr-tb;text-anchor:start;fill:#0a4786;fill-opacity:0.88627451;stroke:none;stroke-width:4.32169867px;stroke-linecap:butt;stroke-linejoin:miter;stroke-opacity:1"
       id="path4094"
       inkscape:connector-curvature="0" />
    <path
       id="path4098"
       d="m 499.47852,57.634766 c 0.53005,0.240672 1.10426,0.373611 1.60742,0.671875 a 3.8779596,3.8779596 0 0 1 0.041,0.02539 c 6.90286,4.208038 9.8418,12.748378 9.8418,23.865235 0,6.691141 -1.25939,13.126635 -3.77539,19.189454 -0.73732,1.78042 -2.41199,4.97983 -5.42383,10.65039 a 3.8779596,3.8779596 0 0 1 -0.002,0.004 c -2.63144,4.93966 -3.79102,9.11883 -3.79102,12.4414 0,0.46101 0.0762,1.55202 0.0937,2.16406 0.35029,-4.10603 1.09673,-7.69686 3.00391,-10.42578 a 3.8779596,3.8779596 0 0 1 0.0176,-0.0273 c 2.15462,-3.02934 5.67342,-5.58441 10.88867,-8.76953 l 0.0156,-0.01 c 6.29244,-3.88881 8.76629,-7.20016 12.05079,-10.910154 3.40348,-3.883537 5.06328,-8.42379 5.0664,-14.291015 -0.0532,-6.789217 -2.19582,-11.972632 -6.65234,-16.378907 -5.33945,-5.225828 -12.80852,-7.980298 -22.98242,-8.199218 z m -20.29688,4.787109 c -0.59815,0.371636 -1.24934,0.678229 -1.81445,1.091797 -5.54938,4.063504 -7.92383,8.636071 -7.92383,14.908203 0,2.225797 0.49601,3.990485 1.4668,5.597656 1.66993,2.621849 3.32125,3.529297 6.46093,3.529297 1.53135,0 2.74623,-0.305397 3.85547,-0.884766 2.36356,-1.284984 3.22266,-2.707982 3.22266,-6.228515 0,-0.766594 -0.0846,-1.444535 -0.22852,-2.066406 -0.20947,-0.775439 -1.01337,-2.264158 -2.72265,-4.097657 a 3.8779596,3.8779596 0 0 1 -0.0215,-0.02344 c -1.99579,-2.175778 -3.48242,-4.574388 -3.48242,-7.488281 0,-1.52005 0.47879,-3.000878 1.1875,-4.337891 z"
       style="font-style:normal;font-variant:normal;font-weight:bold;font-stretch:normal;font-size:172.86343384px;line-height:125%;font-family:KacstOne;-inkscape-font-specification:'KacstOne, Bold';font-variant-ligatures:normal;font-variant-caps:normal;font-variant-numeric:normal;font-feature-settings:normal;text-align:start;letter-spacing:0px;word-spacing:0px;writing-mode:lr-tb;text-anchor:start;fill:url(#radialGradient4128);fill-opacity:1;stroke:none;stroke-width:4.32169867px;stroke-linecap:butt;stroke-linejoin:miter;stroke-opacity:1"
       inkscape:connector-curvature="0" />
    <circle
       r="15.653679"
       cy="156.39827"
       cx="498.28571"
       id="path4132"
       style="opacity:1;fill:#094786;fill-opacity:1;stroke:none;stroke-width:6.30981588;stroke-linecap:square;stroke-linejoin:bevel;stroke-miterlimit:4;stroke-dasharray:none;stroke-dashoffset:0;stroke-opacity:0.73039216" />
    <circle
       style="opacity:1;fill:#006ac5;fill-opacity:0.98039216;stroke:none;stroke-width:4.96967793;stroke-linecap:square;stroke-linejoin:bevel;stroke-miterlimit:4;stroke-dasharray:none;stroke-dashoffset:0;stroke-opacity:0.73039216"
       id="circle4134"
       cx="498.28571"
       cy="156.39827"
       r="12.329003" />
    <path
       id="path4136"
       d="m 499.47852,57.634766 c 0.53005,0.240672 1.10426,0.373611 1.60742,0.671875 a 3.8779596,3.8779596 0 0 1 0.041,0.02539 c 6.90286,4.208038 9.8418,12.748378 9.8418,23.865235 0,3.11842 -0.28522,6.178309 -0.83203,9.173828 a 91.151512,37.125542 0 0 0 17.62305,-1.039063 c 0.8984,-2.415709 1.3519,-5.087224 1.35351,-8.11914 -0.0532,-6.789217 -2.19582,-11.972632 -6.65234,-16.378907 -5.33945,-5.225828 -12.80852,-7.980298 -22.98242,-8.199218 z m -20.29688,4.787109 c -0.59815,0.371636 -1.24934,0.678229 -1.81445,1.091797 -5.54938,4.063504 -7.92383,8.636071 -7.92383,14.908203 0,2.225797 0.49601,3.990485 1.4668,5.597656 1.66993,2.621849 3.32125,3.529297 6.46093,3.529297 1.53135,0 2.74623,-0.305397 3.85547,-0.884766 2.36356,-1.284983 3.22266,-2.707982 3.22266,-6.228515 0,-0.766594 -0.0846,-1.444535 -0.22852,-2.066406 -0.20947,-0.775439 -1.01337,-2.264158 -2.72265,-4.097657 a 3.8779596,3.8779596 0 0 1 -0.0215,-0.02344 c -1.99579,-2.175778 -3.48242,-4.574388 -3.48242,-7.488281 0,-1.52005 0.47879,-3.000878 1.1875,-4.337891 z"
       style="opacity:1;fill:url(#linearGradient4147);fill-opacity:1;stroke:none;stroke-width:4.8579998;stroke-linecap:square;stroke-linejoin:bevel;stroke-miterlimit:4;stroke-dasharray:none;stroke-dashoffset:0;stroke-opacity:0.73039216"
       inkscape:connector-curvature="0" />
    <path
       id="path4149"
       d="m 498.28516,144.06836 a 12.329003,12.329003 0 0 0 -12.32813,12.33008 12.329003,12.329003 0 0 0 0.0195,0.54492 38.372295,8.727273 0 0 0 11.75586,0.42383 38.372295,8.727273 0 0 0 12.85938,-0.51367 12.329003,12.329003 0 0 0 0.0234,-0.45508 12.329003,12.329003 0 0 0 -12.33007,-12.33008 z"
       style="opacity:1;fill:url(#linearGradient4160);fill-opacity:1;stroke:none;stroke-width:4.8579998;stroke-linecap:square;stroke-linejoin:bevel;stroke-miterlimit:4;stroke-dasharray:none;stroke-dashoffset:0;stroke-opacity:0.73039216"
       inkscape:connector-curvature="0" />
  </g>
</svg>
