<?xml version="1.0" encoding="UTF-8" standalone="no"?>
<!-- Created with Inkscape (http://www.inkscape.org/) -->

<svg
   xmlns:dc="http://purl.org/dc/elements/1.1/"
   xmlns:cc="http://creativecommons.org/ns#"
   xmlns:rdf="http://www.w3.org/1999/02/22-rdf-syntax-ns#"
   xmlns:svg="http://www.w3.org/2000/svg"
   xmlns="http://www.w3.org/2000/svg"
   xmlns:xlink="http://www.w3.org/1999/xlink"
   xmlns:sodipodi="http://sodipodi.sourceforge.net/DTD/sodipodi-0.dtd"
   xmlns:inkscape="http://www.inkscape.org/namespaces/inkscape"
   version="1.1"
   id="svg2"
   width="128"
   height="128"
   viewBox="0 0 128 128"
   sodipodi:docname="starshapes.signet.svg"
   inkscape:export-filename="/home/rizmut/Dokumen/Rizmut/Github/libreoffice-style-karasa-jaga/build/images_karasa_jaga/cmd/32/starshapes.signet.png"
   inkscape:export-xdpi="24"
   inkscape:export-ydpi="24"
   inkscape:version="0.92.3 (unknown)">
  <metadata
     id="metadata8">
    <rdf:RDF>
      <cc:Work
         rdf:about="">
        <dc:format>image/svg+xml</dc:format>
        <dc:type
           rdf:resource="http://purl.org/dc/dcmitype/StillImage" />
        <dc:title />
      </cc:Work>
    </rdf:RDF>
  </metadata>
  <defs
     id="defs6">
    <linearGradient
       id="linearGradient3369">
      <stop
         id="stop3372"
         offset="0"
         style="stop-color:#ffffff;stop-opacity:1;" />
      <stop
         style="stop-color:#ffffff;stop-opacity:1;"
         offset="0.51373518"
         id="stop3374" />
      <stop
         style="stop-color:#f1f1f1;stop-opacity:1;"
         offset="0.8125"
         id="stop3376" />
      <stop
         id="stop3378"
         offset="0.90625"
         style="stop-color:#eaeaea;stop-opacity:1;" />
      <stop
         id="stop3384"
         offset="1"
         style="stop-color:#dfdfdf;stop-opacity:1;" />
    </linearGradient>
    <linearGradient
       inkscape:collect="always"
       xlink:href="#linearGradient3369"
       id="linearGradient841"
       x1="54.478691"
       y1="128"
       x2="54.668182"
       y2="0"
       gradientUnits="userSpaceOnUse" />
    <linearGradient
       inkscape:collect="always"
       xlink:href="#linearGradient3369"
       id="linearGradient849"
       x1="62.025475"
       y1="128"
       x2="55.995438"
       y2="0"
       gradientUnits="userSpaceOnUse" />
  </defs>
  <sodipodi:namedview
     pagecolor="#ffffff"
     bordercolor="#666666"
     borderopacity="1"
     objecttolerance="10"
     gridtolerance="10"
     guidetolerance="10"
     inkscape:pageopacity="0"
     inkscape:pageshadow="2"
     inkscape:window-width="1366"
     inkscape:window-height="706"
     id="namedview4"
     showgrid="false"
     inkscape:snap-page="true"
     inkscape:snap-global="true"
     inkscape:zoom="2.8284271"
     inkscape:cx="80.036877"
     inkscape:cy="2.1708539"
     inkscape:window-x="0"
     inkscape:window-y="0"
     inkscape:window-maximized="1"
     inkscape:current-layer="svg2" />
  <path
     style="opacity:1;fill:url(#linearGradient841);fill-opacity:1;stroke:#507dbe;stroke-width:3.5;stroke-linecap:round;stroke-linejoin:bevel;stroke-miterlimit:4;stroke-dasharray:none;stroke-dashoffset:0;stroke-opacity:0.72941178"
     d="M 35.5 5.5 A 17 17 0 0 0 18.982422 18.564453 A 17 17 0 0 0 12.039062 22.046875 A 17 17 0 0 0 9.9453125 45.998047 A 17 17 0 0 0 10.960938 47.087891 A 17 17 0 0 0 6.7089844 59.337891 A 17 17 0 0 0 24.667969 75.320312 A 17 17 0 0 0 26.148438 75.15625 A 17 17 0 0 0 33.435547 85.882812 A 17 17 0 0 0 56.980469 81.019531 A 17 17 0 0 0 57.734375 79.734375 A 17 17 0 0 0 70.689453 80.294922 A 17 17 0 0 0 80.849609 58.505859 A 17 17 0 0 0 80.267578 57.132812 A 17 17 0 0 0 88.453125 47.078125 A 17 17 0 0 0 77.042969 25.916016 A 17 17 0 0 0 75.595703 25.5625 A 17 17 0 0 0 72.417969 12.992188 A 17 17 0 0 0 48.628906 9.5078125 A 17 17 0 0 0 47.482422 10.457031 A 17 17 0 0 0 35.5 5.5 z M 47.574219 19.880859 A 27.204609 27.204609 0 0 1 74.777344 47.085938 A 27.204609 27.204609 0 0 1 47.574219 74.289062 A 27.204609 27.204609 0 0 1 20.369141 47.085938 A 27.204609 27.204609 0 0 1 47.574219 19.880859 z "
     id="path1518" />
  <path
     style="fill:url(#linearGradient849);fill-opacity:1;fill-rule:evenodd;stroke:#507dbe;stroke-width:3.5;stroke-linecap:butt;stroke-linejoin:miter;stroke-miterlimit:4;stroke-dasharray:none;stroke-opacity:0.72941178"
     d="m 58.86664,72.138565 c -1.178229,15.826486 -2.250971,30.240705 -4.419418,45.961945 0,0 -6.071068,11.78858 -4.656854,7.89949 1.414213,-3.88909 18.091883,-5.42462 18.091883,-5.42462 1.077165,-16.01534 0.906354,-30.901625 -3.217515,-46.108388 5.114258,11.654674 19.32693,23.136432 25.844932,32.673358 C 91.570328,108.90812 119.8546,95.119535 119.8546,95.119535 97.438391,91.7082 84.065591,78.158823 65.404166,68.102339 c -0.933213,-0.5029 -1.783823,1.035227 -3.013533,1.811539 z"
     id="path1536"
     inkscape:connector-curvature="0"
     sodipodi:nodetypes="ccsccccssc" />
</svg>
