<?xml version="1.0" encoding="UTF-8" standalone="no"?>
<!-- Created with Inkscape (http://www.inkscape.org/) -->

<svg
   xmlns:dc="http://purl.org/dc/elements/1.1/"
   xmlns:cc="http://creativecommons.org/ns#"
   xmlns:rdf="http://www.w3.org/1999/02/22-rdf-syntax-ns#"
   xmlns:svg="http://www.w3.org/2000/svg"
   xmlns="http://www.w3.org/2000/svg"
   xmlns:xlink="http://www.w3.org/1999/xlink"
   xmlns:sodipodi="http://sodipodi.sourceforge.net/DTD/sodipodi-0.dtd"
   xmlns:inkscape="http://www.inkscape.org/namespaces/inkscape"
   version="1.1"
   id="svg2"
   width="128"
   height="128"
   viewBox="0 0 128 128"
   sodipodi:docname="substract.svg"
   inkscape:version="0.92.3 (unknown)"
   inkscape:export-filename="/home/rizmut/Dokumen/Rizmut/Github/libreoffice-style-karasa-jaga/build/images_karasa_jaga/cmd/32/substract.png"
   inkscape:export-xdpi="24"
   inkscape:export-ydpi="24">
  <metadata
     id="metadata8">
    <rdf:RDF>
      <cc:Work
         rdf:about="">
        <dc:format>image/svg+xml</dc:format>
        <dc:type
           rdf:resource="http://purl.org/dc/dcmitype/StillImage" />
        <dc:title></dc:title>
      </cc:Work>
    </rdf:RDF>
  </metadata>
  <defs
     id="defs6">
    <linearGradient
       id="linearGradient4112">
      <stop
         id="stop4114"
         offset="0"
         style="stop-color:#bbf10e;stop-opacity:1" />
      <stop
         id="stop4116"
         offset="1"
         style="stop-color:#5f9207;stop-opacity:1" />
    </linearGradient>
    <linearGradient
       id="linearGradient4105">
      <stop
         id="stop4107"
         offset="0"
         style="stop-color:#033a13;stop-opacity:1" />
      <stop
         id="stop4109"
         offset="1"
         style="stop-color:#398c37;stop-opacity:1" />
    </linearGradient>
    <linearGradient
       inkscape:collect="always"
       xlink:href="#linearGradient4373"
       id="linearGradient10248"
       gradientUnits="userSpaceOnUse"
       gradientTransform="matrix(0.17638886,0,0,0.17638871,11.288891,263.13331)"
       x1="122.70804"
       y1="2.1668341"
       x2="132"
       y2="37.94305" />
    <linearGradient
       id="linearGradient4373">
      <stop
         id="stop4375"
         style="stop-color:#717174;stop-opacity:1"
         offset="0" />
      <stop
         id="stop4377"
         style="stop-color:#9c9ca1;stop-opacity:1"
         offset="0.5" />
      <stop
         id="stop4379"
         style="stop-color:#bdbdc2;stop-opacity:1"
         offset="1" />
    </linearGradient>
    <linearGradient
       id="linearGradient2431">
      <stop
         id="stop2433"
         style="stop-color:#ffffff;stop-opacity:1"
         offset="0" />
      <stop
         id="stop2435"
         style="stop-color:#ffffff;stop-opacity:1"
         offset="0.42597079" />
      <stop
         id="stop2437"
         style="stop-color:#e5e5e5;stop-opacity:1"
         offset="0.5892781" />
      <stop
         id="stop2439"
         style="stop-color:#eaeaea;stop-opacity:1"
         offset="0.80219781" />
      <stop
         id="stop2441"
         style="stop-color:#eeeeee;stop-opacity:1"
         offset="1" />
    </linearGradient>
    <linearGradient
       id="linearGradient3310">
      <stop
         id="stop3312"
         style="stop-color:#ffffff;stop-opacity:1"
         offset="0" />
      <stop
         id="stop3314"
         style="stop-color:#ffffff;stop-opacity:0"
         offset="1" />
    </linearGradient>
    <linearGradient
       inkscape:collect="always"
       xlink:href="#linearGradient7422-6"
       id="linearGradient1705"
       x1="53.544228"
       y1="38.029163"
       x2="121.03486"
       y2="38.029163"
       gradientUnits="userSpaceOnUse"
       gradientTransform="matrix(1.1267809,0,0,1.1267809,-12.377813,-0.82696664)" />
    <linearGradient
       id="linearGradient7422-6">
      <stop
         style="stop-color:#b4b4b6;stop-opacity:1;"
         offset="0"
         id="stop7424-3" />
      <stop
         id="stop5367"
         offset="0.5"
         style="stop-color:#9c9ca1;stop-opacity:1;" />
      <stop
         id="stop7426-2"
         offset="1"
         style="stop-color:#cdcdd1;stop-opacity:1;" />
    </linearGradient>
    <linearGradient
       x1="399.77466"
       y1="1164.6696"
       x2="399.77466"
       y2="549.06134"
       id="linearGradient5501-5"
       xlink:href="#linearGradient4373"
       gradientUnits="userSpaceOnUse"
       gradientTransform="matrix(0,0.06940294,0.11152914,0,-45.287823,40.766246)" />
    <linearGradient
       x1="119.57646"
       y1="23.792561"
       x2="15.999996"
       y2="109.6508"
       id="linearGradient5503-3"
       xlink:href="#linearGradient2431"
       gradientUnits="userSpaceOnUse"
       gradientTransform="matrix(0,0.57141948,0.76189349,0,1.5240172,42.98484)" />
    <linearGradient
       x1="102.31124"
       y1="-5.8302126"
       x2="74.330322"
       y2="32"
       id="linearGradient5505-2"
       xlink:href="#linearGradient3310"
       gradientUnits="userSpaceOnUse"
       gradientTransform="matrix(0,-1.3692663,-1.7142582,0,105.14142,195.38719)" />
    <linearGradient
       inkscape:collect="always"
       xlink:href="#linearGradient4373"
       id="linearGradient887"
       gradientUnits="userSpaceOnUse"
       gradientTransform="matrix(0,0.06940294,0.11152914,0,-45.287823,40.766246)"
       x1="399.77466"
       y1="1164.6696"
       x2="399.77466"
       y2="549.06134" />
  </defs>
  <sodipodi:namedview
     pagecolor="#ffffff"
     bordercolor="#666666"
     borderopacity="1"
     objecttolerance="10"
     gridtolerance="10"
     guidetolerance="10"
     inkscape:pageopacity="0"
     inkscape:pageshadow="2"
     inkscape:window-width="1366"
     inkscape:window-height="706"
     id="namedview4"
     showgrid="true"
     inkscape:snap-page="true"
     inkscape:zoom="1.7285157"
     inkscape:cx="166.49903"
     inkscape:cy="14.846883"
     inkscape:window-x="0"
     inkscape:window-y="0"
     inkscape:window-maximized="1"
     inkscape:current-layer="g1015"
     inkscape:snap-global="true">
    <inkscape:grid
       type="xygrid"
       id="grid977"
       spacingx="4"
       spacingy="4"
       empspacing="1" />
  </sodipodi:namedview>
  <g
     id="g1015">
    <path
       style="opacity:0.75;fill:url(#linearGradient5501-5);fill-opacity:1;fill-rule:nonzero;stroke:none;stroke-width:13.71407127;stroke-linecap:round;stroke-linejoin:round;stroke-miterlimit:4;stroke-dasharray:none;stroke-dashoffset:4;stroke-opacity:1"
       d="M 15.164062 44 C 13.410771 44 12 45.213165 12 46.720703 L 12 113.2793 C 12 114.78684 13.410771 116 15.164062 116 L 80.835938 116 C 82.589229 116 84 114.78684 84 113.2793 L 84 79.947266 A 38.023575 38.023575 0 0 1 48.025391 44 L 15.164062 44 z "
       id="rect5489" />
    <path
       style="fill:url(#linearGradient5503-3);fill-opacity:1;fill-rule:evenodd;stroke:none;stroke-width:54.8562851;stroke-linecap:round;stroke-linejoin:round;stroke-miterlimit:4;stroke-dasharray:none;stroke-opacity:1"
       d="M 17.523438 48 C 16.67926 48 16 48.564277 16 49.265625 L 16 110.73438 C 16 111.43572 16.67926 112 17.523438 112 L 78.476562 112 C 79.32074 112 80 111.43572 80 110.73438 L 80 79.527344 A 38.023575 38.023575 0 0 1 48.449219 48 L 17.523438 48 z "
       id="rect5491" />
    <path
       style="fill:url(#linearGradient5505-2);fill-opacity:1;fill-rule:evenodd;stroke:none;stroke-width:6.85703564px;stroke-linecap:butt;stroke-linejoin:miter;stroke-opacity:1"
       d="M 53.699219 62.074219 C 40.613966 64.351079 26.745668 65.625986 16 66.730469 L 16 104 C 32.614895 97.308751 54.976825 87.981692 71.667969 77.226562 A 38.023575 38.023575 0 0 1 53.699219 62.074219 z "
       id="path5493" />
    <path
       style="opacity:1;vector-effect:none;fill:url(#linearGradient1705);fill-opacity:1;stroke:none;stroke-width:6.91337776;stroke-linecap:butt;stroke-linejoin:miter;stroke-miterlimit:4;stroke-dasharray:none;stroke-dashoffset:0;stroke-opacity:1"
       d="M 88 4.0722656 L 88 8.1015625 A 34.021244 34.021244 0 0 1 92.849609 8.7070312 L 93.876953 4.875 A 38.023575 38.023575 0 0 0 88 4.0722656 z M 84 4.0996094 A 38.023575 38.023575 0 0 0 78.113281 4.8378906 L 79.15625 8.7285156 A 34.021244 34.021244 0 0 1 84 8.0703125 L 84 4.0996094 z M 74.25 5.8789062 A 38.023575 38.023575 0 0 0 68.771484 8.1601562 L 70.761719 11.605469 A 34.021244 34.021244 0 0 1 75.292969 9.7675781 L 74.25 5.8789062 z M 97.740234 5.9140625 L 96.708984 9.765625 A 34.021244 34.021244 0 0 1 101.21484 11.646484 L 103.23828 8.1425781 A 38.023575 38.023575 0 0 0 97.740234 5.9140625 z M 67.798828 8.6308594 A 38.023575 38.023575 0 0 0 67.621094 8.7324219 L 67.798828 8.6308594 z M 106.69727 10.152344 L 104.6875 13.634766 A 34.021244 34.021244 0 0 1 108.55664 16.615234 L 111.38086 13.789062 A 38.023575 38.023575 0 0 0 106.69727 10.152344 z M 65.302734 10.154297 A 38.023575 38.023575 0 0 0 60.597656 13.767578 L 63.429688 16.601562 A 34.021244 34.021244 0 0 1 67.296875 13.605469 L 65.302734 10.154297 z M 59.074219 15.185547 A 38.023575 38.023575 0 0 0 58.517578 15.742188 L 59.074219 15.185547 z M 57.767578 16.597656 A 38.023575 38.023575 0 0 0 54.121094 21.285156 L 57.603516 23.294922 A 34.021244 34.021244 0 0 1 60.591797 19.421875 L 57.767578 16.597656 z M 114.21289 16.617188 L 111.37891 19.451172 A 34.021244 34.021244 0 0 1 114.37109 23.308594 L 117.82617 21.314453 A 38.023575 38.023575 0 0 0 114.21289 16.617188 z M 52.109375 24.742188 A 38.023575 38.023575 0 0 0 49.873047 30.248047 L 53.726562 31.28125 A 34.021244 34.021244 0 0 1 55.611328 26.765625 L 52.109375 24.742188 z M 119.82422 24.78125 L 116.37891 26.769531 A 34.021244 34.021244 0 0 1 118.2207 31.294922 L 122.10742 30.253906 A 38.023575 38.023575 0 0 0 119.82422 24.78125 z M 49.541016 31.25 A 38.023575 38.023575 0 0 0 49.138672 32.75 L 49.541016 31.25 z M 48.832031 34.113281 A 38.023575 38.023575 0 0 0 48.027344 40 L 52.058594 40 A 34.021244 34.021244 0 0 1 52.666016 35.138672 L 48.832031 34.113281 z M 123.1543 34.115234 L 119.26367 35.158203 A 34.021244 34.021244 0 0 1 119.92773 40 L 123.90039 40 A 38.023575 38.023575 0 0 0 123.1543 34.115234 z M 48 40.761719 A 38.023575 38.023575 0 0 0 47.955078 42.023438 A 38.023575 38.023575 0 0 0 48 43.287109 L 48 40.761719 z M 124 41.984375 L 124 42.078125 A 38.023575 38.023575 0 0 0 124.00195 42.023438 A 38.023575 38.023575 0 0 0 124 41.984375 z M 119.90039 44 A 34.021244 34.021244 0 0 1 119.30469 48.851562 L 123.13672 49.878906 A 38.023575 38.023575 0 0 0 123.93164 44 L 119.90039 44 z M 122.66211 51.998047 L 122.57227 52.328125 A 38.023575 38.023575 0 0 0 122.66211 51.998047 z M 118.24805 52.712891 A 34.021244 34.021244 0 0 1 116.37109 57.224609 L 119.875 59.248047 A 38.023575 38.023575 0 0 0 122.10156 53.744141 L 118.24805 52.712891 z M 114.38477 60.697266 A 34.021244 34.021244 0 0 1 111.40625 64.576172 L 114.23242 67.402344 A 38.023575 38.023575 0 0 0 117.87305 62.710938 L 114.38477 60.697266 z M 108.57227 67.402344 A 34.021244 34.021244 0 0 1 104.70898 70.402344 L 106.70508 73.861328 A 38.023575 38.023575 0 0 0 111.40625 70.236328 L 108.57227 67.402344 z M 113.4668 68.273438 L 112.82617 68.914062 A 38.023575 38.023575 0 0 0 113.4668 68.273438 z M 101.25 72.414062 A 34.021244 34.021244 0 0 1 96.714844 74.259766 L 97.757812 78.150391 A 38.023575 38.023575 0 0 0 103.24023 75.859375 L 101.25 72.414062 z M 104.95117 74.935547 L 103.92383 75.529297 A 38.023575 38.023575 0 0 0 104.95117 74.935547 z M 92.851562 75.302734 A 34.021244 34.021244 0 0 1 88 75.970703 L 88 79.945312 A 38.023575 38.023575 0 0 0 93.894531 79.197266 L 92.851562 75.302734 z M 97.339844 78.302734 L 96.212891 78.603516 A 38.023575 38.023575 0 0 0 97.339844 78.302734 z M 85.046875 80 A 38.023575 38.023575 0 0 0 85.978516 80.046875 A 38.023575 38.023575 0 0 0 86.917969 80 L 85.046875 80 z "
       id="path1671" />
    <path
       style="opacity:0.75;fill:url(#linearGradient887);fill-opacity:1;fill-rule:nonzero;stroke:none;stroke-width:13.71407127;stroke-linecap:round;stroke-linejoin:round;stroke-miterlimit:4;stroke-dasharray:none;stroke-dashoffset:4;stroke-opacity:1"
       d="M 48.025391 44 A 38.023575 38.023575 0 0 0 84 79.947266 L 84 75.958984 A 34.021244 34.021244 0 0 1 56 58.107422 A 34.021244 34.021244 0 0 1 54.683594 55.294922 A 34.021244 34.021244 0 0 1 54.335938 54.404297 A 34.021244 34.021244 0 0 1 53.517578 52.121094 A 34.021244 34.021244 0 0 1 53.240234 51.119141 A 34.021244 34.021244 0 0 1 52.681641 48.876953 A 34.021244 34.021244 0 0 1 52.496094 48 L 52.529297 48 A 34.021244 34.021244 0 0 1 52.054688 44 L 48.025391 44 z "
       id="rect883" />
  </g>
</svg>
