<?xml version="1.0" encoding="UTF-8" standalone="no"?>
<!-- Created with Inkscape (http://www.inkscape.org/) -->

<svg
   xmlns:dc="http://purl.org/dc/elements/1.1/"
   xmlns:cc="http://creativecommons.org/ns#"
   xmlns:rdf="http://www.w3.org/1999/02/22-rdf-syntax-ns#"
   xmlns:svg="http://www.w3.org/2000/svg"
   xmlns="http://www.w3.org/2000/svg"
   xmlns:xlink="http://www.w3.org/1999/xlink"
   xmlns:sodipodi="http://sodipodi.sourceforge.net/DTD/sodipodi-0.dtd"
   xmlns:inkscape="http://www.inkscape.org/namespaces/inkscape"
   version="1.1"
   id="svg2"
   width="128"
   height="128"
   viewBox="0 0 128 128"
   sodipodi:docname="symbolshapes.cloud.svg"
   inkscape:export-filename="/home/rizmut/Dokumen/Rizmut/Github/libreoffice-style-karasa-jaga/build/images_karasa_jaga/cmd/32/symbolshapes.cloud.png"
   inkscape:export-xdpi="24"
   inkscape:export-ydpi="24"
   inkscape:version="0.92.3 (unknown)">
  <metadata
     id="metadata8">
    <rdf:RDF>
      <cc:Work
         rdf:about="">
        <dc:format>image/svg+xml</dc:format>
        <dc:type
           rdf:resource="http://purl.org/dc/dcmitype/StillImage" />
        <dc:title></dc:title>
      </cc:Work>
    </rdf:RDF>
  </metadata>
  <defs
     id="defs6">
    <linearGradient
       inkscape:collect="always"
       xlink:href="#linearGradient3369"
       id="linearGradient2241"
       x1="60"
       y1="128"
       x2="60"
       y2="8"
       gradientUnits="userSpaceOnUse" />
    <linearGradient
       id="linearGradient3369">
      <stop
         id="stop3372"
         offset="0"
         style="stop-color:#ffffff;stop-opacity:1;" />
      <stop
         style="stop-color:#ffffff;stop-opacity:1;"
         offset="0.53340602"
         id="stop3374" />
      <stop
         style="stop-color:#f1f1f1;stop-opacity:1;"
         offset="0.83333331"
         id="stop3376" />
      <stop
         id="stop3378"
         offset="0.89999998"
         style="stop-color:#eaeaea;stop-opacity:1;" />
      <stop
         id="stop3384"
         offset="1"
         style="stop-color:#dfdfdf;stop-opacity:1;" />
    </linearGradient>
  </defs>
  <sodipodi:namedview
     pagecolor="#ffffff"
     bordercolor="#666666"
     borderopacity="1"
     objecttolerance="10"
     gridtolerance="10"
     guidetolerance="10"
     inkscape:pageopacity="0"
     inkscape:pageshadow="2"
     inkscape:window-width="1366"
     inkscape:window-height="706"
     id="namedview4"
     showgrid="true"
     inkscape:snap-page="true"
     inkscape:snap-global="true"
     inkscape:zoom="1.7320077"
     inkscape:cx="53.908671"
     inkscape:cy="112.5407"
     inkscape:window-x="0"
     inkscape:window-y="0"
     inkscape:window-maximized="1"
     inkscape:current-layer="svg2">
    <inkscape:grid
       type="xygrid"
       id="grid837"
       spacingx="4"
       spacingy="4"
       empspacing="1" />
  </sodipodi:namedview>
  <path
     style="opacity:1;fill:url(#linearGradient2241);fill-opacity:1;stroke:#507dbe;stroke-width:4;stroke-linecap:square;stroke-linejoin:bevel;stroke-miterlimit:4;stroke-dasharray:none;stroke-dashoffset:0;stroke-opacity:0.72941176"
     d="m 90.837891,14.007812 c -3.519239,0.0027 -6.863863,1.53352 -9.166016,4.195313 -2.288764,-2.415467 -5.469276,-3.784698 -8.796875,-3.787109 -4.94916,0.0037 -9.399817,3.013577 -11.246094,7.605468 -1.760241,-0.64498 -3.619465,-0.978094 -5.49414,-0.984375 -5.206322,0.005 -10.089971,2.523157 -13.113282,6.761719 -1.443472,-0.418826 -2.938408,-0.633797 -4.441406,-0.638672 -8.906078,6.68e-4 -16.125411,7.220875 -16.125,16.126953 0.0058,0.726176 0.06058,1.451134 0.164063,2.169922 -7.663235,1.484168 -13.200227,8.190463 -13.2070316,15.996094 0.00271,3.068823 0.8712696,6.074607 2.5058596,8.671875 -1.895243,2.728524 -2.911948,5.970803 -2.9140628,9.292969 6.495e-4,9.006403 7.3021908,16.30707 16.3085938,16.30664 1.76819,-0.0067 3.523525,-0.300888 5.197266,-0.871093 -0.0014,0.02604 -0.0027,0.05208 -0.0039,0.07813 7.62e-4,8.404449 6.814298,15.217119 15.21875,15.216799 3.753266,-0.007 7.371738,-1.39979 10.160157,-3.91211 3.009578,2.95385 7.056474,4.61131 11.273437,4.61719 6.532603,-0.003 12.417874,-3.94738 14.904297,-9.98829 1.394424,0.39063 2.83511,0.59166 4.283203,0.59766 8.906079,4.1e-4 16.126287,-7.21892 16.126957,-16.124999 -0.002,-2.579142 -0.62184,-5.120273 -1.8086,-7.410157 0.9337,0.171673 1.88074,0.26056 2.83008,0.265625 8.90608,-6.68e-4 16.12541,-7.220875 16.125,-16.126953 -0.005,-6.374327 -3.76422,-12.147565 -9.5918,-14.730468 2.02134,-2.226928 3.14339,-5.125321 3.14844,-8.132813 -0.008,-5.972229 -4.36081,-11.050491 -10.26172,-11.970703 0.0347,-0.363574 0.0529,-0.728529 0.0547,-1.09375 -1e-5,-6.699685 -5.431174,-12.130851 -12.130859,-12.13086 z"
     id="path2212"
     inkscape:connector-curvature="0"
     sodipodi:nodetypes="ccccccccccccccccccccccccccccc" />
</svg>
