<?xml version="1.0" encoding="UTF-8" standalone="no"?>
<svg
   xmlns:dc="http://purl.org/dc/elements/1.1/"
   xmlns:cc="http://creativecommons.org/ns#"
   xmlns:rdf="http://www.w3.org/1999/02/22-rdf-syntax-ns#"
   xmlns:svg="http://www.w3.org/2000/svg"
   xmlns="http://www.w3.org/2000/svg"
   xmlns:xlink="http://www.w3.org/1999/xlink"
   xmlns:sodipodi="http://sodipodi.sourceforge.net/DTD/sodipodi-0.dtd"
   xmlns:inkscape="http://www.inkscape.org/namespaces/inkscape"
   enable-background="new 0 0 128 128"
   height="128"
   viewBox="0 0 128 128"
   width="128"
   version="1.1"
   id="svg1172"
   sodipodi:docname="templatemanager.svg"
   inkscape:version="0.92.3 (unknown)"
   inkscape:export-filename="/home/rizmut/Dokumen/Rizmut/Github/libreoffice-style-karasa-jaga/build/images_karasa_jaga/cmd/32/templatemanager.png"
   inkscape:export-xdpi="24"
   inkscape:export-ydpi="24">
  <metadata
     id="metadata1178">
    <rdf:RDF>
      <cc:Work
         rdf:about="">
        <dc:format>image/svg+xml</dc:format>
        <dc:type
           rdf:resource="http://purl.org/dc/dcmitype/StillImage" />
        <dc:title></dc:title>
      </cc:Work>
    </rdf:RDF>
  </metadata>
  <defs
     id="defs1176">
    <linearGradient
       y2="-106.94308"
       x2="201.32726"
       y1="114.62769"
       x1="244.81837"
       gradientTransform="matrix(0.14039405,0,0,0.19197773,2.9158535,19.99403)"
       gradientUnits="userSpaceOnUse"
       id="linearGradient3491"
       xlink:href="#linearGradient12118-9"
       inkscape:collect="always" />
    <linearGradient
       gradientTransform="matrix(-3.4726201,0,0,-3.472625,1191.8584,127.95525)"
       y2="2.3497"
       x2="141.0177"
       y1="50"
       x1="188.668"
       gradientUnits="userSpaceOnUse"
       id="linearGradient12118-9">
      <stop
         id="stop12120-6"
         style="stop-color:#80a8da;stop-opacity:1"
         offset="0" />
      <stop
         id="stop12122-9"
         style="stop-color:#4d81c0;stop-opacity:1"
         offset="0.5" />
      <stop
         id="stop12124-3"
         style="stop-color:#38608f;stop-opacity:1"
         offset="1" />
    </linearGradient>
    <filter
       style="color-interpolation-filters:sRGB"
       height="1.0271842"
       y="-0.013592145"
       width="1.2935903"
       x="-0.14679517"
       id="filter5394"
       inkscape:collect="always">
      <feGaussianBlur
         id="feGaussianBlur5396"
         stdDeviation="0.61164653"
         inkscape:collect="always" />
    </filter>
    <linearGradient
       inkscape:collect="always"
       xlink:href="#linearGradient6060-8-8"
       id="linearGradient7198"
       gradientUnits="userSpaceOnUse"
       gradientTransform="matrix(-5.8654441e-8,1.071378,-1.3418571,-4.6831426e-8,64.357993,-70.997008)"
       x1="126"
       y1="41.9995"
       x2="126"
       y2="29.9995" />
    <linearGradient
       id="linearGradient6060-8-8"
       gradientUnits="userSpaceOnUse"
       x1="126"
       y1="41.9995"
       x2="126"
       y2="29.9995"
       gradientTransform="rotate(90.000003,56.000248,-14.000251)">
      <stop
         offset="0"
         style="stop-color:#A58B5A"
         id="stop6064-7-7" />
      <stop
         offset="0.5444"
         style="stop-color:#C5AB6D"
         id="stop6066-1-0" />
    </linearGradient>
    <linearGradient
       inkscape:collect="always"
       xlink:href="#linearGradient13867-5-0"
       id="linearGradient7261"
       gradientUnits="userSpaceOnUse"
       gradientTransform="rotate(90.000003,56.000248,-14.000251)"
       x1="126"
       y1="30.0005"
       x2="126"
       y2="34.0005" />
    <linearGradient
       id="linearGradient13867-5-0"
       gradientUnits="userSpaceOnUse"
       x1="126"
       y1="30.0005"
       x2="126"
       y2="34.0005"
       gradientTransform="rotate(90.000003,56.000248,-14.000251)">
      <stop
         offset="0"
         style="stop-color:#ddc98f;stop-opacity:1;"
         id="stop13869-0-7" />
      <stop
         offset="1"
         style="stop-color:#f4eab9;stop-opacity:1;"
         id="stop13871-4-5" />
    </linearGradient>
    <linearGradient
       inkscape:collect="always"
       xlink:href="#linearGradient4098-8-3"
       id="linearGradient5248"
       gradientUnits="userSpaceOnUse"
       gradientTransform="matrix(-5.7802923e-8,1.071378,-1.3223767,-4.6831425e-8,69.100203,-69.797006)"
       x1="74.001999"
       y1="38.799301"
       x2="74.001999"
       y2="35.901901" />
    <linearGradient
       gradientTransform="rotate(90.000003,56.000248,-14.000251)"
       y2="29.9995"
       x2="82"
       y1="31.9995"
       x1="82"
       gradientUnits="userSpaceOnUse"
       id="linearGradient4098-8-3">
      <stop
         id="stop4100-9-2"
         style="stop-color:#4E3E27;fill-opacity:1.0;fill:url(#linearGradient20844)"
         offset="0" />
      <stop
         id="stop4102-2-1"
         style="stop-color:#816840;fill-opacity:1.0;fill:url(#linearGradient20844)"
         offset="1" />
    </linearGradient>
    <linearGradient
       inkscape:collect="always"
       xlink:href="#linearGradient4108-2-7"
       id="linearGradient5246"
       gradientUnits="userSpaceOnUse"
       gradientTransform="matrix(-5.7802923e-8,1.071378,-1.3223767,-4.6831425e-8,68.617123,-70.997006)"
       x1="93.830101"
       y1="38.5513"
       x2="93.830101"
       y2="35.964401" />
    <linearGradient
       gradientTransform="rotate(90.000003,56.000248,-14.000251)"
       y2="29.9995"
       x2="86"
       y1="31.9995"
       x1="86"
       gradientUnits="userSpaceOnUse"
       id="linearGradient4108-2-7">
      <stop
         id="stop4110-0-6"
         style="stop-color:#4E3E27;fill-opacity:1.0;fill:url(#linearGradient20836)"
         offset="0" />
      <stop
         id="stop4112-6-1"
         style="stop-color:#816840;fill-opacity:1.0;fill:url(#linearGradient20836)"
         offset="1" />
    </linearGradient>
    <linearGradient
       inkscape:collect="always"
       xlink:href="#linearGradient4108-2-7"
       id="linearGradient5244"
       gradientUnits="userSpaceOnUse"
       gradientTransform="matrix(-5.7802923e-8,1.071378,-1.3223767,-4.6831425e-8,68.737893,-71.887924)"
       x1="114.0479"
       y1="38.901901"
       x2="114.0479"
       y2="35.901901" />
    <linearGradient
       inkscape:collect="always"
       xlink:href="#linearGradient4108-2-7"
       id="linearGradient5242"
       gradientUnits="userSpaceOnUse"
       gradientTransform="matrix(-5.7802923e-8,1.071378,-1.3223767,-4.6831425e-8,68.737893,-69.974302)"
       x1="134.0137"
       y1="38.964401"
       x2="134.0137"
       y2="35.964401" />
    <linearGradient
       inkscape:collect="always"
       xlink:href="#linearGradient4108-2-7"
       id="linearGradient5240"
       gradientUnits="userSpaceOnUse"
       gradientTransform="matrix(-5.7802923e-8,1.071378,-1.3223767,-4.6831425e-8,68.858663,-69.769761)"
       x1="154.08009"
       y1="38.964401"
       x2="154.08009"
       y2="35.964401" />
  </defs>
  <sodipodi:namedview
     pagecolor="#ffffff"
     bordercolor="#666666"
     borderopacity="1"
     objecttolerance="10"
     gridtolerance="10"
     guidetolerance="10"
     inkscape:pageopacity="0"
     inkscape:pageshadow="2"
     inkscape:window-width="1366"
     inkscape:window-height="706"
     id="namedview1174"
     showgrid="true"
     inkscape:zoom="3.6874999"
     inkscape:cx="-2.7034433"
     inkscape:cy="90.843339"
     inkscape:window-x="0"
     inkscape:window-y="0"
     inkscape:window-maximized="1"
     inkscape:current-layer="g5239">
    <inkscape:grid
       type="xygrid"
       id="grid6762"
       spacingx="4"
       spacingy="4"
       empspacing="2" />
  </sodipodi:namedview>
  <linearGradient
     id="a"
     gradientUnits="userSpaceOnUse"
     x1="88.591797"
     x2="71.262016"
     y1="96.592697"
     y2="79.262917">
    <stop
       offset="0"
       stop-color="#fff"
       id="stop1072" />
    <stop
       offset="1"
       stop-color="#555753"
       id="stop1074" />
  </linearGradient>
  <linearGradient
     id="b"
     gradientUnits="userSpaceOnUse"
     x1="85.219681"
     x2="61.336319"
     y1="93.219681"
     y2="69.336319">
    <stop
       offset="0"
       id="stop1077" />
    <stop
       offset="1"
       stop-color="#393b38"
       id="stop1079" />
  </linearGradient>
  <linearGradient
     id="c"
     gradientUnits="userSpaceOnUse"
     x1="96"
     x2="88.0002"
     y1="104"
     y2="96.0002">
    <stop
       offset="0"
       stop-color="#888a85"
       id="stop1082" />
    <stop
       offset=".0072"
       stop-color="#8c8e89"
       id="stop1084" />
    <stop
       offset=".0673"
       stop-color="#abaca9"
       id="stop1086" />
    <stop
       offset=".1347"
       stop-color="#c5c6c4"
       id="stop1088" />
    <stop
       offset=".2115"
       stop-color="#dbdbda"
       id="stop1090" />
    <stop
       offset=".3012"
       stop-color="#ebebeb"
       id="stop1092" />
    <stop
       offset=".4122"
       stop-color="#f7f7f6"
       id="stop1094" />
    <stop
       offset=".5679"
       stop-color="#fdfdfd"
       id="stop1096" />
    <stop
       offset="1"
       stop-color="#fff"
       id="stop1098" />
  </linearGradient>
  <radialGradient
     id="d"
     cx="102"
     cy="112.3047"
     gradientTransform="matrix(.9787234 0 0 .9818182 1.361705 1.163636)"
     gradientUnits="userSpaceOnUse"
     r="139.55859">
    <stop
       offset="0"
       stop-color="#535557"
       id="stop1101" />
    <stop
       offset=".11366145"
       stop-color="#898a8c"
       id="stop1103" />
    <stop
       offset=".20296688"
       stop-color="#ececec"
       id="stop1105" />
    <stop
       offset=".2363"
       stop-color="#fafafa"
       id="stop1107" />
    <stop
       offset=".2722"
       stop-color="#fff"
       id="stop1109" />
    <stop
       offset=".5313"
       stop-color="#fafafa"
       id="stop1111" />
    <stop
       offset=".8449"
       stop-color="#ebecec"
       id="stop1113" />
    <stop
       offset="1"
       stop-color="#e1e2e3"
       id="stop1115" />
  </radialGradient>
  <radialGradient
     id="e"
     cx="102.000002"
     cy="112.3047"
     gradientUnits="userSpaceOnUse"
     r="139.5585">
    <stop
       offset="0"
       stop-color="#00537d"
       id="stop1118" />
    <stop
       offset=".0151"
       stop-color="#186389"
       id="stop1120" />
    <stop
       offset=".0558"
       stop-color="#558ca8"
       id="stop1122" />
    <stop
       offset=".0964"
       stop-color="#89afc3"
       id="stop1124" />
    <stop
       offset=".1357"
       stop-color="#b3ccd8"
       id="stop1126" />
    <stop
       offset=".1737"
       stop-color="#d4e2e9"
       id="stop1128" />
    <stop
       offset=".2099"
       stop-color="#ecf2f5"
       id="stop1130" />
    <stop
       offset=".2435"
       stop-color="#fafcfd"
       id="stop1132" />
    <stop
       offset=".2722"
       stop-color="#fff"
       id="stop1134" />
  </radialGradient>
  <filter
     id="f">
    <feGaussianBlur
       stdDeviation="1.0394514"
       id="feGaussianBlur1137" />
  </filter>
  <filter
     id="g">
    <feGaussianBlur
       stdDeviation=".50063244"
       id="feGaussianBlur1140" />
  </filter>
  <filter
     id="h">
    <feGaussianBlur
       stdDeviation=".40750996"
       id="feGaussianBlur1143" />
  </filter>
  <filter
     id="i">
    <feGaussianBlur
       stdDeviation=".4901192"
       id="feGaussianBlur1146" />
  </filter>
  <filter
     id="j">
    <feGaussianBlur
       stdDeviation=".90565481"
       id="feGaussianBlur1149" />
  </filter>
  <g
     id="g1808">
    <g
       id="g1795">
      <path
         d="m23 9 .040816 112h61.131184c.53 0 1.039-.211 1.414-.586l32.828-32.828c.375-.375.586-.884.586-1.414v-77.172z"
         filter="url(#f)"
         opacity=".306849"
         transform="matrix(1.0416667 0 0 1.0357143 -9.958333 -3.321534)"
         id="path1152" />
      <path
         d="m24.919999 10.931136v108.137934l58.676001-.0001c.53 0 1.039-.211 1.414-.586l31.484-31.765936c.375-.375.586-.884.586-1.414v-74.371898z"
         filter="url(#g)"
         opacity=".89589"
         transform="matrix(1.0416667 0 0 1.0357143 -9.958333 -3.321534)"
         id="path1154" />
      <path
         d="m23 9.9655172.040816 111.0344828h61.131184c.53 0 1.039-.211 1.414-.586l32.828-32.828c.375-.375.586-.884.586-1.414v-76.2064828z"
         filter="url(#f)"
         opacity=".306849"
         transform="matrix(1.0416667 0 0 1.0357143 -9.958333 -3.321534)"
         id="path1156" />
      <path
         d="m16.000002 8v112h61.172c.53 0 1.039-.211 1.414-.586l32.827998-32.828c.375-.375.586-.884.586-1.414v-77.172z"
         fill="url(#e)"
         id="path1158" />
      <path
         d="m19.678725 10.7c-.539276 0-.978723.440836-.978723.981818l-.7 105.336362c0 .54197.439447.98182.978723.98182h57.913022c.257404 0 .509915-.10407.691957-.28767l32.129526-32.23113c.18303-.1836.28677-.435927.28677-.694145v-73.805237c0-.540982-.43847-.981818-.97872-.981818z"
         fill="url(#d)"
         id="path1160" />
    </g>
    <g
       id="g1170"
       transform="translate(.000002)">
      <path
         id="path1162"
         opacity=".1"
         filter="url(#h)"
         fill="url(#a)"
         d="m111.414 86.586c.25-.25-26.379-1.586-31.414-1.586-1.654 0-3 1.346-3 3 0 5.035 1.336 31.664 1.586 31.414z" />
      <path
         id="path1164"
         opacity=".2"
         filter="url(#j)"
         d="m111.414 86.586c.375-.375-21.97-.586-31.414-.586-1.103 0-2 .897-2 2 0 9.444.211 31.789.586 31.414z" />
      <path
         id="path1166"
         opacity=".1"
         filter="url(#i)"
         fill="url(#b)"
         d="m111.414 86.586c.239-.239-21.607.414-31.414.414-.553 0-1 .447-1 1 0 9.807-.653 31.653-.414 31.414z" />
      <path
         id="path1168"
         fill="url(#c)"
         d="m78.586 119.414s11.914-9.914 17.414-15.414 15.414-17.414 15.414-17.414-21.164 1.414-31.414 1.414c0 10.25-1.414 31.414-1.414 31.414z" />
    </g>
    <g
       id="g5239"
       transform="translate(8,4)">
      <path
         sodipodi:nodetypes="ssccsss"
         inkscape:connector-curvature="0"
         id="rect6654"
         d="m 9.9422693,5.1015593 c -0.2363376,0 -0.4265933,0.223 -0.4265933,0.5 V 32.00156 H 104 V 5.6015593 c 0,-0.277 -0.19026,-0.5 -0.42659,-0.5 z"
         style="opacity:0.8;fill:url(#linearGradient3491);fill-opacity:1;stroke:none;stroke-width:0.9874565" />
      <path
         transform="matrix(1.3875024,0,0,1.0912184,-14.234691,-6.9320365)"
         style="fill:#000000;fill-opacity:1;stroke:none;filter:url(#filter5394)"
         d="M 18,11 H 28.176779 V 113.50156 H 18 Z"
         id="rect6905"
         inkscape:connector-curvature="0"
         sodipodi:nodetypes="ccccc" />
      <path
         style="fill:url(#linearGradient7198);fill-opacity:1"
         d="M 8,3.9999924 H 24.102285 L 24,116 H 7.897715 Z"
         id="rect4046"
         inkscape:connector-curvature="0"
         sodipodi:nodetypes="ccccc" />
      <path
         transform="matrix(1.0272654,0,0,1.0713781,11.775103,3.999992)"
         style="opacity:0.8;fill:url(#linearGradient7261);fill-opacity:1"
         d="m 11.90043,104.53826 -4.0000002,-1 L 8,1 12,0 Z"
         id="polygon4054"
         inkscape:connector-curvature="0"
         sodipodi:nodetypes="ccccc" />
      <path
         inkscape:connector-curvature="0"
         id="path4604"
         d="m 21.624243,9.482291 c 0,0.326775 -0.16795,0.587115 -0.50119,0.783178 -0.33456,0.196062 -0.82516,0.293557 -1.47312,0.293557 -0.56598,0 -1.01823,-0.09746 -1.35279,-0.292484 -0.33721,-0.196062 -0.50515,-0.452128 -0.50515,-0.769248 0,-0.232491 0.0886,-0.433913 0.26844,-0.606402 0.18116,-0.17249 0.42052,-0.295705 0.71805,-0.367489 0.29886,-0.07067 0.61755,-0.107128 0.95872,-0.107128 0.57127,0 1.02749,0.09961 1.37131,0.297842 0.34382,0.1982 0.51573,0.454265 0.51573,0.768174 z m -0.68632,0.0082 c 0,-0.117846 -0.1005,-0.207844 -0.30018,-0.266772 -0.19835,-0.06003 -0.49721,-0.09 -0.89525,-0.09 -0.42051,0 -0.73656,0.02996 -0.94682,0.08897 -0.20761,0.05891 -0.3134,0.146778 -0.3134,0.263561 0,0.115709 0.10182,0.201422 0.30547,0.259276 0.20232,0.05788 0.50911,0.0857 0.9164,0.0857 0.41126,0 0.71938,-0.02782 0.92435,-0.08468 0.20496,-0.05676 0.30943,-0.14143 0.30943,-0.256065 z"
         style="fill:url(#linearGradient5248);fill-opacity:1" />
      <path
         inkscape:connector-curvature="0"
         id="path4614"
         d="m 21.057853,29.52129 v 0.545337 h -3.42099 v -0.634261 h 2.17398 v -0.437125 h 0.59111 v 0.10176 c 0,0.133923 0.045,0.23785 0.1362,0.312845 0.0899,0.07394 0.22613,0.111424 0.40597,0.111424 h 0.11373 z"
         style="fill:url(#linearGradient5246);fill-opacity:1"
         sodipodi:nodetypes="cccccccscscc" />
      <path
         inkscape:connector-curvature="0"
         style="fill:url(#linearGradient5244);fill-opacity:1"
         d="m 21.037123,49.376539 c 0.14943,0.238914 0.2248,0.487472 0.2248,0.745675 0,0.157496 -0.0344,0.309634 -0.10315,0.455338 -0.0701,0.145705 -0.17852,0.263562 -0.32794,0.356771 -0.14943,0.09317 -0.32531,0.138208 -0.52499,0.138208 -0.19439,0 -0.36762,-0.04398 -0.51705,-0.131785 -0.14943,-0.08785 -0.27373,-0.221774 -0.37555,-0.398548 -0.0476,0.227132 -0.14811,0.398548 -0.3015,0.512119 -0.15208,0.113561 -0.35837,0.170352 -0.61755,0.170352 -0.34911,0 -0.63475,-0.102854 -0.86087,-0.307487 -0.22613,-0.204633 -0.33985,-0.471405 -0.33985,-0.799253 0,-0.233556 0.0688,-0.48105 0.20364,-0.74139 h 0.845 c -0.19306,0.21213 -0.28828,0.423195 -0.28828,0.629966 0,0.1275 0.0503,0.235703 0.15076,0.324627 0.1005,0.08898 0.22216,0.133923 0.36629,0.133923 0.13753,0 0.24993,-0.04285 0.33853,-0.129638 0.0886,-0.08683 0.13092,-0.1982 0.13092,-0.332123 v -0.325701 h 0.6678 v 0.214277 c 0,0.124279 0.0344,0.226059 0.10315,0.306412 0.0701,0.08141 0.16529,0.121068 0.29224,0.121068 0.11638,0 0.21158,-0.03641 0.28828,-0.107138 0.0754,-0.07179 0.1124,-0.160708 0.1124,-0.269984 0,-0.161782 -0.0979,-0.350348 -0.29489,-0.565689 z"
         id="path4624" />
      <path
         inkscape:connector-curvature="0"
         id="path4634"
         d="m 21.178623,73.590892 v 0.768184 h -2.14358 v 0.374974 h -0.68763 v -0.374974 h -1.13593 v -0.768184 h 1.13593 v -1.113163 h 0.74185 z m -1.13725,0 -1.00633,-0.528186 v 0.528186 z"
         style="fill:url(#linearGradient5242);fill-opacity:1"
         sodipodi:nodetypes="cccccccccccccccc" />
      <path
         inkscape:connector-curvature="0"
         id="path4644"
         d="m 21.299383,94.381971 v 1.65206 h -0.73656 v -0.90424 h -0.71012 c 0.12431,0.12428 0.18646,0.24748 0.18646,0.37391 0,0.17141 -0.1005,0.33534 -0.30282,0.4939 -0.20233,0.16071 -0.50251,0.23892 -0.90054,0.23892 -0.44168,0 -0.80136,-0.10286 -1.08171,-0.31177 -0.28034,-0.20892 -0.42051,-0.47891 -0.42051,-0.8121 0,-0.21749 0.0727,-0.4607 0.21687,-0.73068 h 0.87673 c -0.21422,0.23462 -0.32133,0.44354 -0.32133,0.62354 0,0.12964 0.0661,0.23891 0.19703,0.32676 0.13091,0.0879 0.29621,0.13393 0.49325,0.13393 0.14281,0 0.25918,-0.0225 0.35307,-0.0707 0.0926,-0.0461 0.13885,-0.10714 0.13885,-0.17785 0,-0.075 -0.0608,-0.13821 -0.17984,-0.18642 v -0.64818 h 2.19117 v -10e-4 z"
         style="fill:url(#linearGradient5240);fill-opacity:1" />
      <path
         style="opacity:0.53556483;fill:#ffffff;fill-opacity:1;stroke:none"
         d="M 8,3.9999924 H 24.102285 V 6.1130412 H 8 Z"
         id="rect5402" />
      <path
         transform="scale(1,-1)"
         style="opacity:0.53556483;fill:#ffffff;fill-opacity:1;stroke:none"
         d="m 7.897715,-115.99998 h 2.608086 L 10.608086,-6.1130219 H 8 Z"
         id="rect5404"
         inkscape:connector-curvature="0"
         sodipodi:nodetypes="ccccc" />
    </g>
  </g>
</svg>
