<svg height="128" viewBox="0 0 33.866666 33.866668" width="128" xmlns="http://www.w3.org/2000/svg" xmlns:xlink="http://www.w3.org/1999/xlink"><linearGradient id="a" gradientUnits="userSpaceOnUse" x1="29.27801968727" x2="8.46666627562" xlink:href="#b" y1="267.60061055368" y2="268.4249876563"/><linearGradient id="b"><stop offset="0" stop-color="#0968ef"/><stop offset="1" stop-color="#aecffc"/></linearGradient><linearGradient id="c" gradientUnits="userSpaceOnUse" x1="29.27801968727" x2="14.81666653698" xlink:href="#b" y1="275.00895055368" y2="274.77147461134"/><linearGradient id="d" gradientUnits="userSpaceOnUse" x1="29.27801968727" x2="-7.76760802602" xlink:href="#b" y1="282.41728055368" y2="282.58070898733"/><linearGradient id="e" gradientUnits="userSpaceOnUse" x1="29.27801968727" x2="-7.76760802602" xlink:href="#b" y1="288.76880055368" y2="288.93222898733"/><g transform="translate(0 -263.13332)"><text font-family="sans-serif" font-size="18.614901" letter-spacing="0" stroke-width=".465373" word-spacing="0" x="2.734117" y="280.15753"><tspan font-family="FreeSans" stroke-width=".465373" x="2.734117" y="280.15753">A</tspan></text><g fill-rule="evenodd"><path d="m30.18196 267.89306-3.170436-2.64203-.525082.52508 1.030224 1.58854-13.758333.004v1.05681l13.758333-.004-1.030224 1.56195.525082.55167 3.170436-2.64203z" fill="url(#a)"/><path d="m30.18196 275.3014-3.170436-2.64203-.525082.52508 1.030224 1.58854-11.641667.004v1.05681l11.641667-.004-1.030224 1.56195.525082.55167 3.170436-2.64203z" fill="url(#c)"/><path d="m30.18196 282.70973-3.170436-2.64203-.525082.52508 1.030224 1.58854-25.3999994.002v1.05681l25.3999994-.002-1.030224 1.56195.525082.55167 3.170436-2.64203z" fill="url(#d)"/><path d="m30.18196 289.06125-3.170436-2.64203-.525082.52508 1.030224 1.58854-25.3999994.002v1.05681l25.3999994-.002-1.030224 1.56195.525082.55167 3.170436-2.64203z" fill="url(#e)"/></g></g></svg>