<svg height="128" width="128" xmlns="http://www.w3.org/2000/svg"><path d="m13.99395 5.8653902 2.054882 5.8180998 4.109768 11.6362h-4.109768v93.0896h-4.109764v-93.0896h-4.109768l4.109768-11.6362z" fill="#797979"/><path d="m121.8163 114.02276-5.87868 2.02274-11.75737 4.04547v-4.04547h-88.18025v-4.0455h88.18025v-4.04546l11.75737 4.04546z" fill="#797979"/><g fill="#5a5a5a" fill-opacity=".772059"><rect height="4" rx=".000001" width="4" x="8" y="32"/><rect height="4" rx=".000001" width="4" x="8" y="48"/><rect height="4" rx=".000001" width="4" x="8" y="64"/><rect height="4" rx=".000001" width="4" x="8" y="80"/><rect height="4" rx=".000001" width="4" x="8" y="96"/><rect height="4" rx=".000001" width="4" x="8" y="112"/><rect height="4" rx=".000001" width="4" x="24" y="116"/><rect height="4" rx=".000001" width="4" x="40" y="116"/><rect height="4" rx=".000001" width="4" x="56" y="116"/><rect height="4" rx=".000001" width="4" x="72" y="116"/><rect height="4" rx=".000001" width="4" x="88" y="116"/></g></svg>