<svg height="128" viewBox="0 0 33.866666 33.866668" width="128" xmlns="http://www.w3.org/2000/svg" xmlns:xlink="http://www.w3.org/1999/xlink"><linearGradient id="a" gradientUnits="userSpaceOnUse" x1="5.514072" x2="28.219147" y1="12.561531" y2="12.561531"><stop offset="0" stop-color="#3b3e22"/><stop offset="1" stop-color="#454545" stop-opacity="0"/></linearGradient><linearGradient id="b" gradientUnits="userSpaceOnUse" x1="16.054097" x2="17.275254" y1="31.245297" y2="3.158661"><stop offset="0" stop-color="#555"/><stop offset="1"/></linearGradient><text style="font-size:40.615143;font-family:sans-serif;letter-spacing:0;word-spacing:0;stroke-width:1.015378;fill:url(#b)" x="1.867296" y="30.994968"><tspan fill="url(#b)" font-family="FreeSerif" font-size="42.740532" font-weight="bold" stroke-width="1.015378" x="1.867296" y="30.994968">V</tspan></text><path d="m5.5140724 3.3336705c.5572358.5841202.9964722 1.2491813 1.4882813 2.3104534a1.2312165 1.2312165 0 0 1 .015503.033073l6.7293053 15.7478761a20.903197 12.937658 0 0 0 4.633309.364319l-5.550049-13.4343226c-.674849-1.5844266-1.080038-2.524242-1.080038-3.5605062 0-.5192683.228649-1.0197465.541053-1.4608927zm21.2302296 0c.340714.4656358.561005.9929676.591695 1.5585613.272277-.5374026.522793-1.1843057.88315-1.5585613z" fill="url(#a)"/></svg>