<svg height="128" viewBox="0 0 33.866666 33.866668" width="128" xmlns="http://www.w3.org/2000/svg" xmlns:xlink="http://www.w3.org/1999/xlink"><linearGradient id="a" gradientUnits="userSpaceOnUse" x1="4.361248" x2="29.504932" y1="11.117668" y2="11.117668"><stop offset="0" stop-color="#3b3e22"/><stop offset="1" stop-color="#454545" stop-opacity="0"/></linearGradient><linearGradient id="b" gradientUnits="userSpaceOnUse" x1="14.867142" x2="16.027357" y1="29.901333" y2="3.216367"><stop offset="0" stop-color="#555"/><stop offset="1"/></linearGradient><text style="font-size:38.588238;font-family:sans-serif;letter-spacing:0;word-spacing:0;stroke-width:.964705;fill:url(#b)" transform="scale(1.0525265 .95009484)" x="1.388336" y="29.663507"><tspan fill="url(#b)" font-family="FreeSerif" font-size="40.607559" stroke-width=".964705" x="1.388336" y="29.663507">O</tspan></text><rect fill="#010101" height="2.116667" rx=".472075" ry=".607224" stroke-width=".264583" width="33.866669" x=".000002" y="31.75"/><path d="m19.713283 2.5812379c.0023.0005813.0039.00303.0062.00362.0019.0005193.0043-.0005204.0062 0zm3.992523 2.4680663c.471133.4555668 1.002731.8432549 1.38131 1.3952639.74005 1.0362991 1.29169 2.3104002 1.714624 3.8374919.433261 1.564383.639236 3.312204.639236 5.246191 0 .747136-.04699 1.491258-.137459 2.231389a25.687006 11.838984 0 0 0 2.13527-.778764c.04275-.456861.06615-.927131.06615-1.413867 0-3.763539-1.181963-6.6224737-3.540353-8.8439051a1.4044505 1.2677697 0 0 1 -.0098-.011369c-.692046-.665863-1.45149-1.1977805-2.248978-1.6624307zm-14.4807718.8366417c-.4209497.3089859-.9247841.4594412-1.3156819.8314737-2.3711401 2.2567065-3.5481041 5.0693054-3.5481041 8.6955934 0 1.468592.1905643 2.798085.5653402 4.009058a25.687006 11.838984 0 0 0 1.9673219.232027c-.00391-.01705-.00855-.03411-.012402-.05116-.3040485-1.344847-.4563028-2.719246-.4563028-4.11396 0-1.106146.073932-2.188791.2242757-3.247348a1.4044505 1.2677697 0 0 1 .00413-.02584c.1856015-1.116897.5091568-2.2602706.961702-3.431313.4231127-1.0948779.9752981-2.0411136 1.609721-2.8985311z" fill="url(#a)"/></svg>