<?xml version="1.0" encoding="UTF-8" standalone="no"?>
<svg
   xmlns:dc="http://purl.org/dc/elements/1.1/"
   xmlns:cc="http://creativecommons.org/ns#"
   xmlns:rdf="http://www.w3.org/1999/02/22-rdf-syntax-ns#"
   xmlns:svg="http://www.w3.org/2000/svg"
   xmlns="http://www.w3.org/2000/svg"
   xmlns:xlink="http://www.w3.org/1999/xlink"
   xmlns:sodipodi="http://sodipodi.sourceforge.net/DTD/sodipodi-0.dtd"
   xmlns:inkscape="http://www.inkscape.org/namespaces/inkscape"
   height="128"
   viewBox="0 0 33.866666 33.866668"
   width="128"
   version="1.1"
   id="svg20"
   sodipodi:docname="lc_italic.svg"
   inkscape:version="0.92.3 (unknown)"
   inkscape:export-filename="/home/rizmut/Dokumen/Rizmut/Github/libreoffice-style-karasa-jaga/build/images_karasa_jaga/cmd/hu/lc_italic.png"
   inkscape:export-xdpi="16.5"
   inkscape:export-ydpi="16.5">
  <metadata
     id="metadata26">
    <rdf:RDF>
      <cc:Work
         rdf:about="">
        <dc:format>image/svg+xml</dc:format>
        <dc:type
           rdf:resource="http://purl.org/dc/dcmitype/StillImage" />
        <dc:title></dc:title>
      </cc:Work>
    </rdf:RDF>
  </metadata>
  <defs
     id="defs24">
    <linearGradient
       inkscape:collect="always"
       xlink:href="#b"
       id="linearGradient838"
       x1="34.480469"
       y1="49.443359"
       x2="108.18945"
       y2="49.443359"
       gradientUnits="userSpaceOnUse"
       gradientTransform="matrix(0.26458334,0,0,0.26458334,0.29997623,-0.08822811)" />
  </defs>
  <sodipodi:namedview
     pagecolor="#ffffff"
     bordercolor="#666666"
     borderopacity="1"
     objecttolerance="10"
     gridtolerance="10"
     guidetolerance="10"
     inkscape:pageopacity="0"
     inkscape:pageshadow="2"
     inkscape:window-width="1366"
     inkscape:window-height="706"
     id="namedview22"
     showgrid="false"
     inkscape:zoom="2.6074562"
     inkscape:cx="56.084012"
     inkscape:cy="42.770237"
     inkscape:window-x="0"
     inkscape:window-y="0"
     inkscape:window-maximized="1"
     inkscape:current-layer="svg20" />
  <linearGradient
     id="a"
     gradientUnits="userSpaceOnUse"
     x1="18.99608880061"
     x2="20.22575014415"
     y1="294.82258903077"
     y2="266.54036534865"
     gradientTransform="matrix(0.82,0,0,0.82,0.57760928,-213.09189)">
    <stop
       offset="0"
       stop-color="#555"
       id="stop2" />
    <stop
       offset="1"
       id="stop4" />
  </linearGradient>
  <linearGradient
     id="b"
     gradientUnits="userSpaceOnUse"
     x1="53.856667"
     x2="72.864624"
     y1="1.845663"
     y2="61.042988"
     gradientTransform="matrix(0.21695833,0,0,0.21695833,3.048,3.0518754)">
    <stop
       offset="0"
       stop-color="#3b3e22"
       id="stop7" />
    <stop
       offset="1"
       stop-color="#454545"
       stop-opacity="0"
       id="stop9" />
  </linearGradient>
  <text
     id="text14"
     y="28.455942"
     x="4.4402142"
     style="font-size:33.53633881px;font-family:sans-serif;letter-spacing:0;word-spacing:0;fill:url(#a);stroke-width:0.83840817">
    <tspan
       style="font-style:italic;font-variant:normal;font-weight:normal;font-stretch:normal;font-size:35.29129791px;font-family:FreeSerif;-inkscape-font-specification:'FreeSerif Italic';fill:url(#a);stroke-width:0.83840817"
       id="tspan12"
       y="28.455942"
       x="4.4402142"
       font-weight="bold"
       font-size="43.038166">D</tspan>
  </text>
  <path
     style="opacity:1;fill:url(#linearGradient838);fill-opacity:1;stroke:none;stroke-width:0.30000001;stroke-linecap:round;stroke-linejoin:round;stroke-miterlimit:4;stroke-dasharray:none;stroke-dashoffset:0;stroke-opacity:1"
     d="m 11.469837,5.9119225 c 0.06891,0.031399 0.165967,0.045116 0.22841,0.081649 0.518703,0.2659375 0.831991,0.8283594 0.831991,1.4278198 0,0.6621195 -0.139777,1.4522421 -0.406177,2.3967531 L 9.4229339,19.520911 a 21.106138,10.654542 0 0 0 2.3192381,0.482142 l 3.54242,-12.6441904 -0.0021,0.013953 c 0.120867,-0.4834683 0.429454,-0.9017706 0.869197,-1.107426 0.457386,-0.2267656 1.028275,-0.2971395 1.769401,-0.2971395 1.579962,0 2.946006,0.254299 4.087606,0.7854818 1.12767,0.5016905 1.995841,1.2162047 2.549199,2.1347534 0.539406,0.8356216 0.916042,1.6825427 1.118794,2.5409307 0.222545,0.82019 0.334347,1.696907 0.334347,2.626713 0,2.226628 -0.356473,4.237156 -1.064534,6.019271 a 21.106138,10.654542 0 0 0 3.164664,-0.641305 c 0.543862,-1.386509 0.813903,-2.892564 0.813903,-4.529956 0,-2.786236 -0.873225,-4.9246681 -2.628779,-6.5468873 -1.754943,-1.6216559 -4.112954,-2.445329 -7.174239,-2.445329 z"
     id="path821"
     inkscape:connector-curvature="0" />
</svg>
