<svg height="111" viewBox="0 0 33.866666 29.368751" width="128" xmlns="http://www.w3.org/2000/svg" xmlns:xlink="http://www.w3.org/1999/xlink"><linearGradient id="a" gradientUnits="userSpaceOnUse" x1="3.9985" x2="47.998501" y1="60" y2="60"><stop offset="0" stop-color="#1c4373"/><stop offset="1" stop-color="#a2b9d3"/></linearGradient><linearGradient id="b"><stop offset="0" stop-color="#90a3ba"/><stop offset="1" stop-color="#fff"/></linearGradient><linearGradient id="c"><stop offset="0" stop-color="#6696d1"/><stop offset="1" stop-color="#fff"/></linearGradient><linearGradient id="d" gradientUnits="userSpaceOnUse" x1="3.9985" x2="47.998501" y1="60" y2="60"><stop offset="0" stop-color="#153256"/><stop offset="1" stop-color="#76b5ff"/></linearGradient><linearGradient id="e" gradientUnits="userSpaceOnUse" x1="-291.35563370499" x2="-282.88909912192" xlink:href="#h" y1="-7.90209897385" y2="-7.90209897385"/><linearGradient id="f" gradientUnits="userSpaceOnUse" x1="-290.22676251434" x2="-284.01797043433" xlink:href="#j" y1="-7.90209893508" y2="-7.90209893508"/><linearGradient id="g" gradientTransform="matrix(.03889732 0 0 .07055446 17.631625 280.70457)" gradientUnits="userSpaceOnUse" x1="25.638855" x2="39.999996" xlink:href="#l" y1="16.000917" y2="144.00003"/><linearGradient id="h" gradientUnits="userSpaceOnUse" x1="3.9985" x2="47.998501" y1="60" y2="60"><stop offset="0" stop-color="#245795"/><stop offset="1" stop-color="#afd4ff"/></linearGradient><linearGradient id="i" gradientUnits="userSpaceOnUse" x1="-291.35563375697" x2="-283.45353521474" xlink:href="#d" y1="-13.54645520496" y2="-13.54645520496"/><linearGradient id="j"><stop offset="0" stop-color="#9fbde2"/><stop offset="1" stop-color="#fff"/></linearGradient><linearGradient id="k" gradientUnits="userSpaceOnUse" x1="-289.66232681257" x2="-283.45353499471" xlink:href="#c" y1="-14.1108901943" y2="-14.1108901943"/><linearGradient id="l"><stop offset="0" stop-color="#fff"/><stop offset="1" stop-color="#fff" stop-opacity="0"/></linearGradient><linearGradient id="m" gradientTransform="matrix(.59753465 0 0 .15654834 -4.239537 273.21473)" gradientUnits="userSpaceOnUse" x1="6.441925" x2="39.339169" xlink:href="#l" y1="25.87571" y2="119.48439"/><linearGradient id="n" gradientUnits="userSpaceOnUse" x1="-291.35563358482" x2="-282.88909908913" xlink:href="#a" y1="-20.31968267603" y2="-20.31968267603"/><linearGradient id="o" gradientUnits="userSpaceOnUse" x1="-289.66232685925" x2="-282.88909895685" xlink:href="#b" y1="-19.75524706757" y2="-19.75524706757"/><linearGradient id="p" gradientTransform="matrix(.0853223 0 0 .15654835 4.022462 277.09575)" gradientUnits="userSpaceOnUse" x1="6.441925" x2="40" xlink:href="#l" y1="25.87571" y2="84"/><linearGradient id="q" gradientUnits="userSpaceOnUse" x1="4.515485" x2="40.639366" y1="274.42258" y2="308.2887"><stop offset="0" stop-color="#fff"/><stop offset="1" stop-color="#e6e9ef"/></linearGradient><linearGradient id="r" gradientUnits="userSpaceOnUse" x1="-281.19579239421" x2="-273.29369385198" xlink:href="#h" y1="-8.4665343537" y2="-8.4665343537"/><linearGradient id="s" gradientUnits="userSpaceOnUse" x1="-280.06692100695" x2="-273.29369395656" xlink:href="#j" y1="-8.46653466448" y2="-8.46653466448"/><linearGradient id="t" gradientTransform="matrix(.04010128 0 0 .13199479 20.921661 267.03331)" gradientUnits="userSpaceOnUse" x1="27.281374" x2="39.999996" xlink:href="#l" y1="13.237132" y2="144.00003"/><linearGradient id="u" gradientUnits="userSpaceOnUse" x1="-281.1957924081" x2="-273.29369316679" xlink:href="#d" y1="-15.80419765872" y2="-15.80419765872"/><linearGradient id="v" gradientUnits="userSpaceOnUse" x1="-280.06692109844" x2="-272.7292577669" xlink:href="#c" y1="-15.80419730343" y2="-15.80419730343"/><linearGradient id="w" gradientTransform="matrix(.74697814 0 0 .15654834 -6.289361 263.05486)" gradientUnits="userSpaceOnUse" x1="6.441925" x2="39.339169" xlink:href="#l" y1="25.87571" y2="119.48439"/><linearGradient id="x" gradientUnits="userSpaceOnUse" x1="-281.19579218665" x2="-272.23794293046" xlink:href="#a" y1="-23.70629631932" y2="-24.84049828407"/><linearGradient id="y" gradientUnits="userSpaceOnUse" x1="-280.06692118432" x2="-273.29369360962" xlink:href="#b" y1="-23.70629629797" y2="-23.70629629797"/><linearGradient id="z" gradientTransform="matrix(.12801658 0 0 .15654835 2.927134 266.9359)" gradientUnits="userSpaceOnUse" x1="6.441925" x2="40" xlink:href="#l" y1="25.87571" y2="84"/><linearGradient id="A" gradientTransform="matrix(.07596105 0 0 .06553887 -326.8227 -189.88496)" gradientUnits="userSpaceOnUse" x1="-74.138161" x2="-5.240342" xlink:href="#c" y1="117.50086" y2="123.42244"/><linearGradient id="B" gradientTransform="matrix(.10502309 0 0 .08738516 -335.69935 -205.71687)" gradientUnits="userSpaceOnUse" x1="35.803963" x2="42.000004" xlink:href="#a" y1="116.09032" y2="-62.361141"/><linearGradient id="C" gradientTransform="matrix(.07776401 0 0 .06553887 -338.51457 -207.27846)" gradientUnits="userSpaceOnUse" x1="45.994617" x2="48" xlink:href="#b" y1="139.50992" y2="28"/><linearGradient id="D" gradientTransform="matrix(.08205588 0 0 .06553887 -357.88759 -227.2875)" gradientUnits="userSpaceOnUse" x1="45.076267" x2="53.688496" xlink:href="#j" y1="99.430367" y2="30.532547"/><linearGradient id="E" gradientTransform="matrix(.05825532 -.08738516 -.08738516 0 19.4644 286.01339)" gradientUnits="userSpaceOnUse" x1="-48.21611" x2="31.456636" xlink:href="#a" y1="-74.226631" y2="-19.944626"/><linearGradient id="F" gradientTransform="matrix(.07596105 0 0 .06553887 -315.04765 -187.12937)" gradientUnits="userSpaceOnUse" x1="-125.80575" x2="36.306118" xlink:href="#c" y1="101.56255" y2="-24.122206"/><linearGradient id="G" gradientTransform="matrix(.10502309 0 0 .08738516 -323.48928 -202.14138)" gradientUnits="userSpaceOnUse" x1="35.803963" x2="42.000004" xlink:href="#a" y1="116.09032" y2="-62.361141"/><linearGradient id="H" gradientTransform="matrix(.07776401 0 0 .06553887 -326.46003 -203.98754)" gradientUnits="userSpaceOnUse" x1="45.994617" x2="48" xlink:href="#b" y1="139.50992" y2="28"/><linearGradient id="I" gradientTransform="matrix(.08205588 0 0 .06553887 -345.16775 -222.83108)" gradientUnits="userSpaceOnUse" x1="45.076267" x2="53.688496" xlink:href="#j" y1="99.430367" y2="30.532547"/><linearGradient id="J" gradientTransform="matrix(.05825532 -.08738516 -.08738516 0 22.81034 275.85004)" gradientUnits="userSpaceOnUse" x1="-48.25626" x2="42.172123" xlink:href="#a" y1="-74.718849" y2="-7.975593"/><g transform="translate(0 -267.63124)"><rect fill="#c4cfe0" height="27.65732" rx=".055424" ry=".057719" width="32.172832" x=".564436" y="268.21378"/><path d="m123.73047 2.2011719v2.1347656c-.0667.0000007-.13463-.000001-.20117 0 .11216.00256.20117.096133.20117.2128906v101.9707019c0 .11838-.0907.21289-.20508.21289h-119.0527338c-.1143416 0-.2070312-.0945-.2070312-.21289v-1.61328l-2.1328125 1.82813 2.1328125 4.04296.2148438.22266h123.3046912l.21289-.22266v-106.2206994l-.21289-.2207031h.21289z" fill="#b6c2d4" fill-opacity=".916667" transform="matrix(.26458333 0 0 .26458333 0 267.63124)"/><rect fill="url(#q)" height="27.092916" rx=".054608" ry=".056536" width="31.608395" x="1.128871" y="268.7782"/><g transform="matrix(0 -1 -1 0 298.69589 298.69588)"><path d="m3.6724693 271.42369-.2811634.52526-.5625301.78568h.5623269l.0002032 20.88134h.5623266l-.0002032-20.88134h.5623269l-.5621237-.78568z" fill="#797979" opacity=".613861"/><path d="m29.741699 293.33176-.524312.28163-1.04862.5633v-.5633l-24.2151345.003v-.56329l24.2151345-.003v-.56328l1.04862.56328z" fill="#797979" opacity=".613861"/><g fill="#acacac"><rect height="23.141863" rx=".054608" ry=".078792" transform="rotate(-90)" width=".567015" x="-290.79379" y="6.211375"/><path d="m27.092909 293.04895 2.257745-2.25774h-.564438l-2.257741 2.25774z" fill-rule="evenodd"/><path d="m3.9536324 272.73185 2.2577426-2.25774h-.5644356l-2.2577426 2.25774z" fill-rule="evenodd"/><path d="m3.9536324 293.05153 2.2577426-2.25774h-.5644356l-2.2577426 2.25774z" fill-rule="evenodd"/><rect height="20.319681" rx=".054608" ry=".065958" width=".564436" x="5.64694" y="270.47412"/><rect height="24.273315" rx=".054608" ry=".078792" transform="rotate(-90)" width=".564436" x="-271.03595" y="5.07992"/><rect height="20.319681" rx=".054608" ry=".065958" width=".564436" x="28.788801" y="270.47412"/></g></g><rect fill="url(#e)" height="4.515481" rx=".417087" transform="matrix(0 -1 -1 0 0 0)" width="7.337663" x="-291.35822" y="-10.162443"/><rect fill="url(#f)" height="3.386619" rx=".115857" transform="matrix(0 -1 -1 0 0 0)" width="6.138253" x="-290.79379" y="-9.598021"/><rect fill="url(#i)" height="7.902103" rx=".417087" transform="matrix(0 -1 -1 0 0 0)" width="7.337663" x="-291.35822" y="-18.064543"/><rect fill="url(#k)" height="6.773215" rx=".115857" transform="matrix(0 -1 -1 0 0 0)" width="6.208793" x="-290.79379" y="-17.50012"/><path d="m10.853147 284.58505c-.07001 0-.126242.0516-.126242.11575v2.70319c2.501532-.15842 4.799741-.45398 6.7706-.85472v-1.84847c0-.0321-.01385-.0613-.03664-.0822s-.05464-.0336-.08964-.0336z" fill="url(#m)"/><rect fill="url(#n)" height="4.515489" rx=".417087" transform="matrix(0 -1 -1 0 0 0)" width="7.337663" x="-291.35822" y="-22.580046"/><rect fill="url(#o)" height="3.386613" rx=".115857" transform="matrix(0 -1 -1 0 0 0)" width="6.208793" x="-290.7912" y="-22.012989"/><path d="m6.2680131 284.65554c-.031775.006-.056611.0537-.056611.11368v1.73943c.5796092-.20646 3.0620595-.51632 3.384004-1.11466v-.48834c0-.0642-.028123-.11433-.063092-.11576z" fill="url(#p)"/><rect fill="url(#r)" height="6.208784" rx=".417087" transform="matrix(0 -1 -1 0 0 0)" width="7.337663" x="-281.19836" y="-11.855742"/><rect fill="url(#s)" height="5.079926" rx=".115857" transform="matrix(0 -1 -1 0 0 0)" width="6.138254" x="-280.63394" y="-11.291319"/><rect fill="url(#u)" height="9.595415" rx=".417087" transform="matrix(0 -1 -1 0 0 0)" width="7.337664" x="-281.19836" y="-21.45117"/><rect fill="url(#v)" height="8.463413" rx=".115857" transform="matrix(0 -1 -1 0 0 0)" width="6.208924" x="-280.63406" y="-20.883604"/><path d="m12.577993 274.42518c-.08752 0-.157802.0516-.157802.11576v2.70319c3.127166-.15843 6.000157-.45399 8.463927-.85473v-1.84846c0-.0321-.01731-.0613-.04581-.0822-.02849-.0209-.0683-.0336-.112063-.0336z" fill="url(#w)"/><rect fill="url(#x)" height="4.515489" rx=".417087" transform="matrix(0 -1 -1 0 0 0)" width="7.337663" x="-281.19836" y="-25.966642"/><rect fill="url(#y)" height="3.38661" rx=".115857" transform="matrix(0 -1 -1 0 0 0)" width="6.208792" x="-280.63394" y="-25.40222"/><path d="m6.296332 274.49569c-.047674.006-.084939.0537-.084939.11369v1.73943c.8696388-.20646 4.59427-.51633 5.07732-1.11466v-.48835c0-.0642-.0422-.11432-.09466-.11575z" fill="url(#z)"/><rect fill="#5f97d8" height="7.902103" rx=".115679" ry=".417087" transform="matrix(.55470333 -.8320482 -1 0 0 0)" width="2.035106" x="-342.06088" y="-207.78323"/><rect fill="url(#A)" height="6.208801" rx=".134281" ry=".115857" transform="matrix(.50555276 -.86279569 -1 0 0 0)" width=".654194" x="-329.21664" y="-184.1255"/><path d="m23.549962 285.25209c.002 1.52362-.0037 3.25603-.04978 4.17774-.0196.39204-.08607.4756-.102977.50097l-.709959 1.11193c-.0408.0612-.11492.11473-.20051.15916.0576-.0715.0935-.16159.0935-.26096v-6.50348l.993326-1.34928zm-5.332192 6.00975c-.036-.0197-.0611-.0455-.0729-.076.0208.0286.0456.0536.0729.076z" fill="url(#E)"/><rect fill="url(#B)" height="4.515499" rx=".313855" ry=".417087" transform="matrix(.55469062 -.83205668 -1 0 0 0)" width="2.035086" x="-342.0574" y="-212.2925"/><rect fill="url(#C)" height="3.273192" rx=".137469" ry=".115857" transform="matrix(.53823975 -.84279177 -1 0 0 0)" width=".66972" x="-337.0307" y="-203.66602"/><rect fill="#8ab3e3" height="4.747889" rx=".477635" ry=".417087" transform="matrix(.4873027 -.87323312 -1 0 0 0)" width="1.979705" x="-325.9686" y="-169.0787"/><rect fill="url(#D)" height="3.50985" rx=".145056" ry=".115857" transform="matrix(.60171593 -.79871017 -1 0 0 0)" width=".717141" x="-355.61267" y="-223.71634"/><rect fill="#5f97d8" height="9.605949" rx=".115679" ry=".417087" transform="matrix(.55470333 -.8320482 -1 0 0 0)" width="2.035106" x="-329.85071" y="-204.20752"/><rect fill="url(#F)" height="8.240989" rx=".134281" ry=".115857" transform="matrix(.50555276 -.86279569 -1 0 0 0)" width=".576751" x="-317.44159" y="-181.36993"/><rect fill="#8ab3e3" height="6.260836" rx=".477635" ry=".417087" transform="matrix(.4873027 -.87323312 -1 0 0 0)" width="1.979305" x="-314.33389" y="-164.9445"/><rect fill="url(#I)" height="5.121715" rx=".145056" ry=".115857" transform="matrix(.60171593 -.79871017 -1 0 0 0)" width=".675312" x="-342.93463" y="-217.81511"/><path d="m26.743616 275.40742.0091 4.32283-.03555.0885c-.09981.24856-.574465.78635-.683993 1.0606-.0408.0612-.11492.11473-.2005.15916.0576-.0715.0935-.16159.0935-.26096v-6.50348c0-.23107-.18648-.41703-.41755-.41703.23107 0 .49474-.11629.59118-.26097l.540406-.62057c.0313-.0469.0389-.0902.03-.12815.0708.0577.07145 1.1034.07337 2.56004zm-5.179906 5.69107c-.036-.0197-.0611-.0455-.0729-.076.0208.0286.0456.0536.0729.076z" fill="url(#J)"/><path d="m22.079424 274.42515c-.03539 0-.06381.0516-.06381.11575v1.6521c.475834-.23253 2.735887-.0353 3.383993-.62477v-1.02733c0-.0642-.02845-.11575-.06381-.11575z" fill="url(#t)"/><path d="m18.692802 284.65553c-.03539 0-.06382.0516-.06382.11575v1.69448c.339436-.10285 2.783477-.60726 3.384008-.93432v-.76016c0-.0642-.02845-.11575-.06382-.11575z" fill="url(#g)"/><rect fill="url(#G)" height="4.515499" rx=".313855" ry=".417087" transform="matrix(.55469062 -.83205668 -1 0 0 0)" width="2.035086" x="-329.84735" y="-208.71703"/><rect fill="url(#H)" height="3.273192" rx=".137469" ry=".115857" transform="matrix(.53823975 -.84279177 -1 0 0 0)" width=".66972" x="-324.97617" y="-200.37509"/></g></svg>