<svg height="111" viewBox="0 0 33.866666 29.368751" width="128" xmlns="http://www.w3.org/2000/svg" xmlns:xlink="http://www.w3.org/1999/xlink"><linearGradient id="a" gradientUnits="userSpaceOnUse" x1="3.9985" x2="47.998501" y1="60" y2="60"><stop offset="0" stop-color="#1c4373"/><stop offset="1" stop-color="#a2b9d3"/></linearGradient><linearGradient id="b"><stop offset="0" stop-color="#90a3ba"/><stop offset="1" stop-color="#fff"/></linearGradient><linearGradient id="c" gradientUnits="userSpaceOnUse" x1="7.92509303539" x2="7.9020990287" xlink:href="#f" y1="292.79902118765" y2="281.19301665183"/><linearGradient id="d" gradientUnits="userSpaceOnUse" x1="8.46653475569" x2="8.46653475569" xlink:href="#g" y1="289.65955112074" y2="277.80640271755"/><linearGradient id="e" gradientUnits="userSpaceOnUse" x1="29.86620042667" x2="31.99950013335" xlink:href="#h" y1="55.5341997008" y2="82.85674731988"/><linearGradient id="f" gradientUnits="userSpaceOnUse" x1="3.9985" x2="47.998501" y1="60" y2="60"><stop offset="0" stop-color="#245795"/><stop offset="1" stop-color="#afd4ff"/></linearGradient><linearGradient id="g"><stop offset="0" stop-color="#9fbde2"/><stop offset="1" stop-color="#fff"/></linearGradient><linearGradient id="h"><stop offset="0" stop-color="#fff"/><stop offset="1" stop-color="#fff" stop-opacity="0"/></linearGradient><linearGradient id="i" gradientUnits="userSpaceOnUse" x1="11.87626703539" x2="12.41770906954" xlink:href="#a" y1="292.26949118765" y2="276.67548171593"/><linearGradient id="j" gradientUnits="userSpaceOnUse" x1="11.85327294781" x2="12.61967676" xlink:href="#b" y1="287.4025236714" y2="276.70489836"/><linearGradient id="k" gradientUnits="userSpaceOnUse" x1="11.28877437432" x2="13.085657" xlink:href="#h" y1="285.68047741419" y2="292.4326014"/><linearGradient id="l" gradientUnits="userSpaceOnUse" x1="15.82744403539" x2="15.80444898008" xlink:href="#f" y1="292.80167118765" y2="280.06679544399"/><linearGradient id="m" gradientUnits="userSpaceOnUse" x1="16.36888477261" x2="16.36888477261" xlink:href="#g" y1="288.53332993475" y2="277.24461755056"/><linearGradient id="n" gradientUnits="userSpaceOnUse" x1="59.73335029337" x2="61.86665026671" xlink:href="#h" y1="26.47773970376" y2="58.47724010381"/><linearGradient id="o" gradientUnits="userSpaceOnUse" x1="19.77797503539" x2="20.31941706954" xlink:href="#a" y1="292.26955118765" y2="276.67554171593"/><linearGradient id="p" gradientUnits="userSpaceOnUse" x1="20.88385213379" x2="20.31941591818" xlink:href="#b" y1="287.96425571964" y2="272.16004659788"/><linearGradient id="q" gradientUnits="userSpaceOnUse" x1="19.75524719492" x2="20.987304" xlink:href="#h" y1="280.63135670799" y2="292.9926314"/><linearGradient id="r" gradientUnits="userSpaceOnUse" x1="4.515485" x2="40.639366" y1="274.42258" y2="308.2887"><stop offset="0" stop-color="#fff"/><stop offset="1" stop-color="#e6e9ef"/></linearGradient><linearGradient id="s" gradientUnits="userSpaceOnUse" x1="23.72929103539" x2="23.70629598008" xlink:href="#f" y1="292.80181118765" y2="280.06693544399"/><linearGradient id="t" gradientUnits="userSpaceOnUse" x1="24.27073177261" x2="24.27073177261" xlink:href="#g" y1="288.53346993475" y2="277.24475755056"/><linearGradient id="u" gradientUnits="userSpaceOnUse" x1="89.59859929337" x2="91.73189926671" xlink:href="#h" y1="46.47839470376" y2="78.47789510381"/><linearGradient id="v" gradientUnits="userSpaceOnUse" x1="27.67982203539" x2="28.22126406954" xlink:href="#a" y1="292.26969118765" y2="276.67568171593"/><linearGradient id="w" gradientUnits="userSpaceOnUse" x1="28.78569913379" x2="28.22126291818" xlink:href="#b" y1="287.96439571964" y2="272.16018659788"/><linearGradient id="x" gradientUnits="userSpaceOnUse" x1="106.66500166699" x2="109.187342" xlink:href="#h" y1="38.46779989331" y2="81.8545182"/><linearGradient id="y" gradientUnits="userSpaceOnUse" x1="13.66387320702" x2="24.26466229222" y1="287.29205460355" y2="268.93094913696"><stop offset="0" stop-color="#b900c4"/><stop offset="1" stop-color="#ae4300"/></linearGradient><g transform="translate(0 -267.63124)"><rect fill="#c4cfe0" height="27.65732" rx=".055424" ry=".057719" width="32.172832" x=".564436" y="268.21378"/><path d="m123.73047 2.2011719v2.1347656c-.0667.0000007-.13463-.000001-.20117 0 .11216.00256.20117.096133.20117.2128906v101.9707019c0 .11838-.0907.21289-.20508.21289h-119.0527338c-.1143416 0-.2070312-.0945-.2070312-.21289v-1.61328l-2.1328125 1.82813 2.1328125 4.04296.2148438.22266h123.3046912l.21289-.22266v-106.2206994l-.21289-.2207031h.21289z" fill="#b6c2d4" fill-opacity=".916667" transform="matrix(.26458333 0 0 .26458333 0 267.63124)"/><rect fill="url(#r)" height="27.092916" rx=".054608" ry=".056536" width="31.608395" x="1.128871" y="268.7782"/><path d="m3.6721981 270.85388-.2811634.52526-.5623269 1.05052h.5623269v20.6165h.5623266v-20.6165h.5623269l-.5623269-1.05052z" fill="#797979" opacity=".613861"/><path d="m30.87057 292.76731-.524311.28163-1.048622.5633v-.5633h-25.3465876v-.56329h25.3465876v-.56328l1.048622.56328z" fill="#797979" opacity=".613861"/><rect fill="url(#c)" height="9.592651" rx=".417087" width="3.386614" x="6.773228" y="282.8891"/><rect fill="url(#d)" height="8.463701" rx=".115857" width="2.257742" x="7.337663" y="283.45352"/><path d="m28.169922 59.800781c-.242589 0-.4375.194911-.4375.4375v18.052735c1.667697-.33978 7.418241-2.764832 8.533203-3.966797v-14.085938c0-.242589-.194911-.4375-.4375-.4375z" fill="url(#e)" transform="matrix(.26458333 0 0 .26458333 0 267.63124)"/><rect fill="url(#i)" height="6.203962" rx=".417087" width="3.386738" x="10.159842" y="286.27573"/><rect fill="url(#j)" height="5.075043" rx=".115857" width="2.257866" x="10.724277" y="286.84015"/><path d="m10.840093 286.84015c-.06419 0-.115755.0516-.115755.11575v2.81688c.870986-.2064 1.649336-.65393 2.257743-1.2702v-1.54668c0-.0642-.05157-.11575-.115755-.11575z" fill="url(#k)"/><rect fill="url(#l)" height="16.368504" rx=".417087" width="3.386865" x="14.675326" y="276.11588"/><rect fill="url(#m)" height="15.239614" rx=".115857" width="2.257993" x="15.239762" y="276.6803"/><path d="m58.037109 34.201172c-.242589 0-.4375.194911-.4375.4375v25.662109c1.667698-.339779 7.418243-2.764831 8.533203-3.966797v-21.695312c0-.242589-.194911-.4375-.4375-.4375z" fill="url(#n)" transform="matrix(.26458333 0 0 .26458333 0 267.63124)"/><rect fill="url(#o)" height="10.155073" rx=".417087" width="3.386344" x="18.061939" y="282.32468"/><rect fill="url(#p)" height="9.026245" rx=".115857" width="2.257478" x="18.626375" y="282.8891"/><path d="m18.742131 282.88463c-.06326 0-.114301.0503-.115755.11317v4.68911c.870741-.20634 1.648896-.65368 2.257226-1.26969v-3.41683c0-.0642-.05157-.11576-.115755-.11576z" fill="url(#q)"/><rect fill="url(#s)" height="11.288705" rx=".417087" width="3.386614" x="22.577425" y="281.1958"/><rect fill="url(#t)" height="10.159846" rx=".115857" width="2.25774" x="23.141861" y="281.76022"/><path d="m87.902344 53.400391c-.242589 0-.4375.194911-.4375.4375v16.46289c1.667697-.339779 7.418242-2.764831 8.533203-3.966797v-12.496093c0-.242589-.194911-.4375-.4375-.4375z" fill="url(#u)" transform="matrix(.26458333 0 0 .26458333 0 267.63124)"/><rect fill="url(#v)" height="13.541869" rx=".417087" width="3.386097" x="25.964039" y="278.93805"/><rect fill="url(#w)" height="12.412981" rx=".115857" width="2.257227" x="26.528475" y="279.50247"/><path d="m100.70312 44.867188c-.24258 0-.4375.19491-.4375.4375v20.496093c3.29025-.780062 6.23053-2.471036 8.5293-4.798828v-15.707031c-.005-.237741-.19644-.427734-.43554-.427734z" fill="url(#x)" transform="matrix(.26458333 0 0 .26458333 0 267.63124)"/><path d="m10.159841 278.40888 7.902099-6.77323 7.902099 4.51549" fill="none" stroke="url(#y)" stroke-linecap="round" stroke-linejoin="round" stroke-width=".7"/></g></svg>