<svg height="111" viewBox="0 0 33.866666 29.368751" width="128" xmlns="http://www.w3.org/2000/svg" xmlns:xlink="http://www.w3.org/1999/xlink"><linearGradient id="a" gradientUnits="userSpaceOnUse" x1="3.9985" x2="47.998501" y1="60" y2="60"><stop offset="0" stop-color="#1c4373"/><stop offset="1" stop-color="#a2b9d3"/></linearGradient><linearGradient id="b"><stop offset="0" stop-color="#90a3ba"/><stop offset="1" stop-color="#fff"/></linearGradient><linearGradient id="c"><stop offset="0" stop-color="#6696d1"/><stop offset="1" stop-color="#fff"/></linearGradient><linearGradient id="d" gradientUnits="userSpaceOnUse" x1="3.9985" x2="47.998501" y1="60" y2="60"><stop offset="0" stop-color="#153256"/><stop offset="1" stop-color="#76b5ff"/></linearGradient><linearGradient id="e" gradientUnits="userSpaceOnUse" x1="3.9985" x2="47.998501" y1="60" y2="60"><stop offset="0" stop-color="#245795"/><stop offset="1" stop-color="#afd4ff"/></linearGradient><linearGradient id="f"><stop offset="0" stop-color="#9fbde2"/><stop offset="1" stop-color="#fff"/></linearGradient><linearGradient id="g"><stop offset="0" stop-color="#fff"/><stop offset="1" stop-color="#fff" stop-opacity="0"/></linearGradient><linearGradient id="h" gradientUnits="userSpaceOnUse" x1="4.515485" x2="40.639366" y1="274.42258" y2="308.2887"><stop offset="0" stop-color="#fff"/><stop offset="1" stop-color="#e6e9ef"/></linearGradient><linearGradient id="i" gradientTransform="matrix(.09783249 0 0 .15654834 6.030377 269.80189)" gradientUnits="userSpaceOnUse" x1="28.321793" x2="13.535054" xlink:href="#g" y1="110.75331" y2="143.28598"/><linearGradient id="j" gradientTransform="matrix(.40131685 0 0 .33027462 23.385095 43.515742)" gradientUnits="userSpaceOnUse" x1="35.803963" x2="35.28537" xlink:href="#d" y1="116.09032" y2="25.545019"/><linearGradient id="k" gradientTransform="matrix(.30963247 0 0 .24770597 26.09677 16.094854)" gradientUnits="userSpaceOnUse" x1="36.286621" x2="36.286621" xlink:href="#c" y1="243.26083" y2="144.75937"/><linearGradient id="l" gradientTransform="matrix(.09783249 0 0 .15654834 6.559544 266.27897)" gradientUnits="userSpaceOnUse" x1="28.321793" x2="13.535054" xlink:href="#g" y1="94.697304" y2="143.28598"/><linearGradient id="m" gradientTransform="matrix(.40131685 0 0 .33027462 23.385095 18.267024)" gradientUnits="userSpaceOnUse" x1="35.803963" x2="35.28537" xlink:href="#a" y1="116.09032" y2="67.125267"/><linearGradient id="n" gradientTransform="matrix(.30963247 0 0 .24770597 26.09677 -9.153865)" gradientUnits="userSpaceOnUse" x1="36.286621" x2="36.286621" xlink:href="#b" y1="243.26083" y2="208.81192"/><linearGradient id="o" gradientTransform="matrix(.09783249 0 0 .15654834 6.559544 259.59858)" gradientUnits="userSpaceOnUse" x1="30.012075" x2="13.535054" xlink:href="#g" y1="104.83794" y2="143.28598"/><linearGradient id="p" gradientTransform="matrix(.40131685 0 0 .33027462 61.784795 56.830753)" gradientUnits="userSpaceOnUse" x1="35.803963" x2="32.113831" xlink:href="#e" y1="116.09032" y2="-21.724829"/><linearGradient id="q" gradientTransform="matrix(.09783249 0 0 .15654834 16.190317 269.8019)" gradientUnits="userSpaceOnUse" x1="29.9781" x2="53.298069" xlink:href="#g" y1="115.77023" y2="122.93586"/><linearGradient id="r" gradientTransform="matrix(.40131685 0 0 .33027462 61.781182 22.279408)" gradientUnits="userSpaceOnUse" x1="35.803963" x2="35.813961" xlink:href="#d" y1="116.09032" y2="29.65836"/><linearGradient id="s" gradientTransform="matrix(.30963247 0 0 .24770597 64.492857 -5.14148)" gradientUnits="userSpaceOnUse" x1="36.286621" x2="32.004688" xlink:href="#c" y1="243.26083" y2="134.59175"/><linearGradient id="t" gradientTransform="matrix(.09783249 0 0 .15654834 17.942207 261.09014)" gradientUnits="userSpaceOnUse" x1="13.278275" x2="35.84679" xlink:href="#g" y1="116.45742" y2="126.59618"/><linearGradient id="u" gradientTransform="matrix(.40131685 0 0 .33027462 61.784867 16.830728)" gradientUnits="userSpaceOnUse" x1="40.032681" x2="38.456909" xlink:href="#a" y1="62.030922" y2="3.431524"/><linearGradient id="v" gradientTransform="matrix(.30963247 0 0 .24770597 64.496542 -10.590161)" gradientUnits="userSpaceOnUse" x1="34.85931" x2="31.291033" xlink:href="#b" y1="175.46358" y2="125.31424"/><linearGradient id="w" gradientTransform="matrix(.09783249 0 0 .15654834 16.190317 259.21856)" gradientUnits="userSpaceOnUse" x1="42.520168" x2="53.425728" xlink:href="#g" y1="96.7043" y2="105.46986"/><linearGradient id="x" gradientTransform="matrix(.30963247 0 0 .24770597 64.496542 29.409865)" gradientUnits="userSpaceOnUse" x1="27.722757" x2="27.722755" xlink:href="#f" y1="230.41504" y2="57.516983"/><linearGradient id="y" gradientTransform="matrix(.40131685 0 0 .33027462 23.385095 56.830715)" gradientUnits="userSpaceOnUse" x1="35.803963" x2="35.28537" xlink:href="#e" y1="116.09032" y2="67.125267"/><linearGradient id="z" gradientTransform="matrix(.30963247 0 0 .24770597 26.09677 29.409827)" gradientUnits="userSpaceOnUse" x1="36.286621" x2="36.286621" xlink:href="#f" y1="243.26083" y2="208.81192"/><g transform="translate(0 -267.63124)"><rect fill="#c4cfe0" height="27.65732" rx=".055424" ry=".057719" width="32.172832" x=".564436" y="268.21378"/><path d="m123.73047 2.2011719v2.1347656c-.0667.0000007-.13463-.000001-.20117 0 .11216.00256.20117.096133.20117.2128906v101.9707019c0 .11838-.0907.21289-.20508.21289h-119.0527338c-.1143416 0-.2070312-.0945-.2070312-.21289v-1.61328l-2.1328125 1.82813 2.1328125 4.04296.2148438.22266h123.3046912l.21289-.22266v-106.2206994l-.21289-.2207031h.21289z" fill="#b6c2d4" fill-opacity=".916667" transform="matrix(.26458333 0 0 .26458333 0 267.63124)"/><rect fill="url(#h)" height="27.092916" rx=".054608" ry=".056536" width="31.608395" x="1.128871" y="268.7782"/><path d="m2.5433268 271.41832-.2811634.52526-.5625301.78568h.5623269l.0002032 20.88134h.5623266l-.0002032-20.88134h.5623269l-.5621237-.78568z" fill="#797979" opacity=".613861"/><path d="m29.741699 293.33175-.524311.28163-1.048622.5633v-.5633h-25.3465879v-.56329h25.3465879v-.56328l1.048622.56328z" fill="#797979" opacity=".613861"/><rect fill="#acacac" height="25.399603" rx=".054608" ry=".082448" transform="rotate(-90)" width=".564436" x="-290.7912" y="5.07992"/><path d="m28.680411 293.04894 2.257743-2.25774h-.564436l-2.257742 2.25774z" fill="#acacac" fill-rule="evenodd"/><path d="m2.822178 272.72926 2.2577426-2.25774h-.5644356l-2.2577426 2.25774z" fill="#acacac" fill-rule="evenodd"/><path d="m2.822178 293.04894 2.2577426-2.25774h-.5644356l-2.2577426 2.25774z" fill="#acacac" fill-rule="evenodd"/><rect fill="#acacac" height="20.319681" rx=".054608" ry=".065958" width=".564436" x="4.515485" y="270.4715"/><rect fill="#acacac" height="25.399603" rx=".054608" ry=".082448" transform="rotate(-90)" width=".564436" x="-271.03595" y="5.07992"/><rect fill="#acacac" height="20.319681" rx=".054608" ry=".065958" width=".564436" x="30.479523" y="270.4715"/><path d="m32.707031 78.5-2.835937 13.757812c.000014.113386.015291.223496.042968.330079-.025436.083905-.039801.167669-.042968.251953.000005.002041.003883.004033.003906.007812-.001586.007559-.004422.010019-.005859.017578-.002728 1.767723 5.729948 3.201097 12.800781 3.201172.883969.000029 1.746546-.021825 2.580078-.064453.833532-.042627 1.63642-.104557 2.402344-.185547.765924-.080989 1.494638-.181817 2.175781-.296875 1.702858-.287645 3.114449-.673343 4.099609-1.126953.197032-.090722.377178-.1855.539063-.28125.647538-.383001 1.004587-.804106 1.003906-1.246094-.000733-.003779-.001122-.009892-.001953-.013672.000038-.002645.001946-.004032.001953-.007812-.00133-.087307-.01374-.17479-.039062-.261719.026078-.103559.039062-.210706.039062-.320312l-2.839844-13.757813z" fill="url(#y)" transform="matrix(.26458333 0 0 .26458333 0 267.63124)"/><path d="m51.671875 83.322266c-2.434859.538812-5.631199.850198-9.001953.851562-3.360808-.001057-6.549431-.310091-8.982422-.845703l-1.681641 8.082031c-.005215.026457-.010837.049652-.013671.074219.000089.06652.027412.13188.058593.197266-.03685.065385-.054166.131501-.054687.197265.002499 1.061443 4.630052 1.928521 10.425781 1.953125.026835.000076.057301.001953.083984.001953.013229 0 .027788-.001839.041016-.001953.04063.000681.082341.001235.123047.001953 5.897352.000152 10.677554-.875342 10.675781-1.955078-.003001-.058204-.01994-.116001-.050781-.173828.039685-.071433.06434-.143474.064453-.216797-.000499-.048756-.004664-.099681-.015625-.148437z" fill="url(#z)" transform="matrix(.26458333 0 0 .26458333 0 267.63124)"/><path d="m8.4680671 291.934c.5443084-.2064 1.5597179.93356 1.9399319.31729l.130292-2.36936c-.6696626-.0349-1.0839993-.0498-1.5650193-.16691z" fill="url(#i)"/><g transform="matrix(.26458333 0 0 .26458333 0 267.63124)"><path d="m37.927734 53.185547-5.810546 28.173828c2.306711.840032 6.168904 1.392531 10.552734 1.392578 4.383387.000141 8.24338-.552824 10.550781-1.392578l-5.814453-28.171875z" fill="url(#j)"/><path d="m74.130859 55.414062-5.859375 36.84375c.000015.113386.015152.223496.042969.330079-.025323.083905-.039832.167669-.042969.251953.000004.002041.001931.004033.001954.007812-.001584.007559-.002467.010019-.003907.017578-.002725 1.767723 5.727994 3.201097 12.798828 3.201172.883969.000029 1.746546-.021825 2.580079-.064453.833532-.042627 1.638373-.104557 2.404296-.185547.765924-.080989 1.492685-.181817 2.173828-.296875 1.702859-.287645 3.11445-.673343 4.09961-1.126953.197032-.090722.377178-.1855.539062-.28125.647539-.383001 1.006541-.804106 1.00586-1.246094-.000737-.003779-.003109-.009892-.003906-.013672.00003-.002645.003894-.004032.003906-.007812-.001334-.087307-.015693-.17479-.041016-.261719.026079-.103559.041016-.210706.041016-.320312l-5.871094-36.84375-6.939453-.001953z" fill="url(#p)"/><path d="m77.863281 31.949219-4.287109 26.951172c2.109602.382906 4.681825.615204 7.488281.615234 2.805945.00009 5.380583-.23256 7.490235-.615234l-4.292969-26.949219z" fill="url(#r)"/><path d="m80.175781 17.414062-2.941406 18.490235c1.217946.096197 2.488807.162095 3.833984.162109 1.34067.000043 2.607815-.064632 3.822266-.160156l-2.945313-18.488281-.884765-.001953z" fill="url(#u)"/><path d="m81.064453 19.087891-2.166015 14.699218c.624747.023704 1.263696.04212 1.923828.044922.026834.000076.057301.001953.083984.001953.013228 0 .027787-.001839.041016-.001953.04063.000681.080388.001235.121093.001953.743615.000019 1.469166-.014536 2.169922-.041015z" fill="url(#v)"/><path d="m87.216797 60.720703c-1.875696.235447-3.978132.366308-6.152344.367188-2.168173-.000683-4.264631-.129252-6.136719-.363282l-4.523437 30.685547c-.005291.026457-.008695.049652-.011719.074219.000091.06652.027602.13188.058594.197266-.036662.065385-.056112.131501-.056641.197265.002502 1.061443 4.632007 1.928521 10.427735 1.953125.026834.000076.057301.001953.083984.001953.013228 0 .027787-.001839.041016-.001953.04063.000681.080388.001235.121093.001953 5.897352.000152 10.679507-.875342 10.677735-1.955078-.003005-.058204-.021894-.116001-.052735-.173828.039685-.071433.066293-.143474.066407-.216797-.000507-.048756-.006618-.099681-.017578-.148437z" fill="url(#x)"/><path d="m78.34375 37.542969-2.865234 19.441406c1.562707.177007 3.373358.286574 5.339843.294922.026835.000075.057301.001953.083985.001953.013228 0 .027787-.00184.041015-.001953.04063.00068.080389.001235.121094.001953 2.060741.000053 3.967979-.111735 5.599609-.296875l-2.873046-19.441406c-.890993.045201-1.798414.077749-2.726563.078125-.926534-.000292-1.831115-.033155-2.720703-.078125z" fill="url(#s)"/></g><path d="m20.910038 276.47241.534334-.03-.08468-3.24579z" fill="url(#w)"/><path d="m20.214532 282.69308 1.046964-.0465.194075-4.89218-.526804-.0238z" fill="url(#t)"/><path d="m18.628032 291.93401 1.609203.44958.460021-8.60956-.822219-.12885z" fill="url(#q)"/><path d="m46.535156 58.701172c-1.246185.091826-2.530588.15571-3.865234.15625-1.330702-.000419-2.612473-.063107-3.855469-.154297l-4.390625 21.085937c1.906219.428856 4.750212.712775 7.998047.726563.026835.000076.057301.001953.083984.001953.013229 0 .027788-.00184.041016-.001953.04063.00068.082341.001235.123047.001953 3.352553.000086 6.306352-.287933 8.263672-.730469z" fill="url(#k)" transform="matrix(.26458333 0 0 .26458333 0 267.63124)"/><path d="m41.779297 34.5-4.673828 22.673828c1.688437.205175 3.560923.330057 5.564453.330078 2.002024.000064 3.870981-.125272 5.558594-.330078l-4.679688-22.669922z" fill="url(#m)" transform="matrix(.26458333 0 0 .26458333 0 267.63124)"/><path d="m42.669922 40.173828-3.123047 15c.918099.051704 1.868385.089477 2.875.09375.026835.000076.057301.001953.083984.001953.013229 0 .027788-.001839.041016-.001953.04063.00068.082341.001235.123047.001953 1.096423.000028 2.133236-.039512 3.128906-.095703z" fill="url(#n)" transform="matrix(.26458333 0 0 .26458333 0 267.63124)"/><path d="m9.2544805 288.64494 1.3238695.23246.430643-5.58815-.617539-.0577z" fill="url(#l)"/><path d="m10.657646 282.10487.458584-.0248.06816-2.76693.10743-.74755z" fill="url(#o)"/></g></svg>