<?xml version="1.0" encoding="UTF-8" standalone="no"?>
<svg
   xmlns:dc="http://purl.org/dc/elements/1.1/"
   xmlns:cc="http://creativecommons.org/ns#"
   xmlns:rdf="http://www.w3.org/1999/02/22-rdf-syntax-ns#"
   xmlns:svg="http://www.w3.org/2000/svg"
   xmlns="http://www.w3.org/2000/svg"
   xmlns:sodipodi="http://sodipodi.sourceforge.net/DTD/sodipodi-0.dtd"
   xmlns:inkscape="http://www.inkscape.org/namespaces/inkscape"
   height="111"
   viewBox="0 0 33.866666 29.368751"
   width="128"
   version="1.1"
   id="svg49"
   sodipodi:docname="netlinepointstack_52x60.svg"
   inkscape:version="0.92.3 (unknown)"
   inkscape:export-filename="/home/rizmut/Dokumen/Rizmut/Github/libreoffice-style-karasa-jaga/build/images_karasa_jaga/chart2/res/netlinepointstack_52x60.png"
   inkscape:export-xdpi="45"
   inkscape:export-ydpi="45">
  <metadata
     id="metadata55">
    <rdf:RDF>
      <cc:Work
         rdf:about="">
        <dc:format>image/svg+xml</dc:format>
        <dc:type
           rdf:resource="http://purl.org/dc/dcmitype/StillImage" />
        <dc:title></dc:title>
      </cc:Work>
    </rdf:RDF>
  </metadata>
  <defs
     id="defs53">
    <linearGradient
       gradientTransform="matrix(0.26458334,0,0,0.26458334,-3.5747467e-8,283.24166)"
       id="b-6"
       gradientUnits="userSpaceOnUse"
       x1="33.110069"
       x2="33.110069"
       y1="45.033348"
       y2="9.2875652">
      <stop
         offset="0"
         stop-color="#06f"
         id="stop7-2" />
      <stop
         offset="1"
         stop-color="#80b3ff"
         id="stop9-9" />
    </linearGradient>
    <linearGradient
       gradientTransform="matrix(0.26458334,0,0,0.26458334,-3.5747467e-8,283.24166)"
       id="a-1"
       gradientUnits="userSpaceOnUse"
       x1="33.110069"
       x2="36.510574"
       y1="43.333092"
       y2="11.028277">
      <stop
         offset="0"
         stop-color="#b900c4"
         id="stop2-2" />
      <stop
         offset="1"
         stop-color="#fb5800"
         id="stop4-7" />
    </linearGradient>
    <linearGradient
       gradientTransform="matrix(0.26458334,0,0,0.26458334,-3.5747467e-8,283.24166)"
       id="a-1-0"
       gradientUnits="userSpaceOnUse"
       x1="33.110069"
       x2="36.510574"
       y1="43.333092"
       y2="11.028277">
      <stop
         offset="0"
         stop-color="#b900c4"
         id="stop2-2-9" />
      <stop
         offset="1"
         stop-color="#fb5800"
         id="stop4-7-3" />
    </linearGradient>
    <linearGradient
       gradientTransform="matrix(0.26458334,0,0,0.26458334,0.56668227,283.83988)"
       id="b-6-6"
       gradientUnits="userSpaceOnUse"
       x1="33.110069"
       x2="33.110069"
       y1="45.033348"
       y2="9.2875652">
      <stop
         offset="0"
         stop-color="#06f"
         id="stop7-2-0" />
      <stop
         offset="1"
         stop-color="#80b3ff"
         id="stop9-9-6" />
    </linearGradient>
    <linearGradient
       gradientTransform="matrix(0.11220822,0,0,0.11220822,1.128063,282.5646)"
       id="b-3"
       gradientUnits="userSpaceOnUse"
       x1="68"
       x2="68"
       y1="112"
       y2="27.904816">
      <stop
         offset="0"
         stop-color="#06f"
         id="stop7-6" />
      <stop
         offset="1"
         stop-color="#80b3ff"
         id="stop9-7" />
    </linearGradient>
    <linearGradient
       gradientTransform="matrix(0.11220822,0,0,0.11220822,1.128063,282.5646)"
       id="a-19"
       gradientUnits="userSpaceOnUse"
       x1="68"
       x2="76"
       y1="108"
       y2="32">
      <stop
         offset="0"
         stop-color="#b900c4"
         id="stop2-4" />
      <stop
         offset="1"
         stop-color="#fb5800"
         id="stop4-78" />
    </linearGradient>
  </defs>
  <sodipodi:namedview
     pagecolor="#ffffff"
     bordercolor="#666666"
     borderopacity="1"
     objecttolerance="10"
     gridtolerance="10"
     guidetolerance="10"
     inkscape:pageopacity="0"
     inkscape:pageshadow="2"
     inkscape:window-width="1366"
     inkscape:window-height="706"
     id="namedview51"
     showgrid="false"
     inkscape:zoom="3.0067964"
     inkscape:cx="82.493955"
     inkscape:cy="21.734865"
     inkscape:window-x="0"
     inkscape:window-y="0"
     inkscape:window-maximized="1"
     inkscape:current-layer="g1184">
    <inkscape:grid
       type="xygrid"
       id="grid898" />
  </sodipodi:namedview>
  <linearGradient
     id="a"
     gradientUnits="userSpaceOnUse"
     x1="4.515485"
     x2="40.639366"
     y1="274.42258"
     y2="308.2887">
    <stop
       offset="0"
       stop-color="#fff"
       id="stop2" />
    <stop
       offset="1"
       stop-color="#e6e9ef"
       id="stop4" />
  </linearGradient>
  <linearGradient
     id="b"
     gradientUnits="userSpaceOnUse"
     x1="68"
     x2="68"
     y1="112"
     y2="27.904816">
    <stop
       offset="0"
       stop-color="#06f"
       id="stop7" />
    <stop
       offset="1"
       stop-color="#80b3ff"
       id="stop9" />
  </linearGradient>
  <linearGradient
     id="c"
     gradientUnits="userSpaceOnUse"
     x1="68"
     x2="76"
     y1="108"
     y2="32">
    <stop
       offset="0"
       stop-color="#b900c4"
       id="stop12" />
    <stop
       offset="1"
       stop-color="#fb5800"
       id="stop14" />
  </linearGradient>
  <g
     transform="translate(0 -267.63124)"
     id="g47">
    <rect
       fill="#c4cfe0"
       height="27.65732"
       rx=".055424"
       ry=".057719"
       width="32.172832"
       x=".564436"
       y="268.21378"
       id="rect17" />
    <path
       d="m123.73047 2.2011719v2.1347656c-.0667.0000007-.13463-.000001-.20117 0 .11216.00256.20117.096133.20117.2128906v101.9707019c0 .11838-.0907.21289-.20508.21289h-119.0527338c-.1143416 0-.2070312-.0945-.2070312-.21289v-1.61328l-2.1328125 1.82813 2.1328125 4.04296.2148438.22266h123.3046912l.21289-.22266v-106.2206994l-.21289-.2207031h.21289z"
       fill="#b6c2d4"
       fill-opacity=".916667"
       transform="matrix(.26458333 0 0 .26458333 0 267.63124)"
       id="path19" />
    <rect
       fill="url(#a)"
       height="27.092916"
       rx=".054608"
       ry=".056536"
       width="31.608395"
       x="1.128871"
       y="268.7782"
       id="rect21" />
    <g
       id="g1184"
       transform="matrix(2.036135,0,0,2.036135,0.78830951,-308.36272)">
      <g
         id="g1042">
        <path
           style="fill:none;stroke:url(#a-19);stroke-width:0.44883287;stroke-linejoin:round"
           inkscape:connector-curvature="0"
           d="m 3.8210605,289.95631 2.2441644,-4.69872 6.2836601,1.3465 1.103167,7.76839 -6.4891614,-0.35895 z"
           id="path26-5"
           sodipodi:nodetypes="cccccc" />
        <path
           style="fill:none;stroke:url(#b-3);stroke-width:0.44883287;stroke-linecap:round;stroke-linejoin:round"
           inkscape:connector-curvature="0"
           d="m 6.0652249,289.96332 1.3464986,-2.22353 3.4554405,0.18903 0.4539,4.59039 -3.9093405,0.14043 z"
           id="path28-3" />
      </g>
      <g
         id="g24"
         style="fill:#797979"
         transform="matrix(0.26458334,0,0,0.26458334,-3.5747468e-8,283.24166)">
        <path
           id="path14"
           d="m 7.5,24.630305 v 1.700253 h 3.506773 v -1.700253 z m 5.10076,0 v 1.700253 h 3.506773 v -1.700253 z m 5.207027,0 v 1.700253 h 3.400506 v -1.700253 z m 5.10076,0 v 1.700253 h 3.400507 v -1.700253 z m 5.10076,0 v 1.700253 h 3.400507 v -1.700253 z"
           inkscape:connector-curvature="0"
           style="opacity:0.61386102" />
        <path
           id="path16"
           d="m 52.219195,8.4088284 -1.174208,-1.2296777 -2.536209,2.4217947 1.174204,1.2296776 z m -3.689036,3.5226106 -1.174204,-1.229678 -2.536211,2.421795 1.174203,1.229678 z m -3.765889,3.595999 -1.174204,-1.229678 -2.53621,2.421795 1.174204,1.229678 z m -3.689033,3.522611 -1.174204,-1.229679 -2.536211,2.421796 1.174204,1.229678 z m -3.689034,3.522611 -1.174204,-1.229678 -2.53621,2.421795 1.174203,1.229678 z"
           inkscape:connector-curvature="0"
           style="opacity:0.61386102" />
        <path
           id="path18"
           d="m 21.041265,2.8763997 -1.472463,0.8501262 1.753387,3.0369545 1.472462,-0.8501267 z m 2.55038,4.4173876 -1.472462,0.8501272 1.753386,3.0369535 1.472462,-0.850126 z m 2.603513,4.5094177 -1.472462,0.850126 1.753386,3.036954 1.472462,-0.850126 z m 2.55038,4.417387 -1.472462,0.850127 1.753386,3.036954 1.472463,-0.850126 z m 2.55038,4.417388 -1.472462,0.850127 1.753386,3.036954 1.472463,-0.850126 z"
           inkscape:connector-curvature="0"
           style="opacity:0.61386102" />
        <path
           id="path20"
           d="M 51.346374,43.481414 52.5,42.232413 49.923929,39.853058 48.770303,41.102067 Z m -3.74701,-3.460874 1.153626,-1.249003 -2.576072,-2.379353 -1.153625,1.249003 z m -3.825075,-3.532979 1.153625,-1.249003 -2.57607,-2.379352 -1.153625,1.249004 z m -3.747012,-3.460875 1.153626,-1.249004 -2.57607,-2.379352 -1.153626,1.249004 z m -3.747011,-3.460876 1.153625,-1.249004 -2.57607,-2.379352 -1.153625,1.249004 z"
           inkscape:connector-curvature="0"
           style="opacity:0.61386102" />
        <path
           id="path22"
           d="m 21.684644,48.416387 1.546197,0.707208 1.458617,-3.189025 -1.546201,-0.707208 z m 2.121624,-4.638584 1.546195,0.707207 1.458618,-3.189025 -1.546194,-0.707207 z m 2.165827,-4.735223 1.546194,0.707209 1.458618,-3.189027 -1.546195,-0.707208 z m 2.121624,-4.638584 1.546196,0.707209 1.458617,-3.189027 -1.546195,-0.707209 z m 2.121626,-4.638584 1.546194,0.707208 1.458617,-3.189027 -1.546194,-0.707207 z"
           inkscape:connector-curvature="0"
           style="opacity:0.61386102" />
      </g>
      <g
         id="g34"
         transform="matrix(0.4019931,0,0,0.4019931,-18.846037,-125.80863)">
        <path
           id="path30"
           d="m 73.720339,1038.9385 h 3 v 3 h -3 z"
           inkscape:connector-curvature="0"
           style="fill:#22a7f0" />
        <path
           id="path32"
           d="m 74.720339,1039.9385 h 1 v 1 h -1 z"
           inkscape:connector-curvature="0"
           style="fill:#ffffff" />
      </g>
      <g
         id="g40"
         transform="matrix(0.4019931,0,0,0.4019931,-16.988272,-120.66885)">
        <path
           id="path36"
           d="m 67.720339,1014.9385 h 3 v 3 h -3 z"
           inkscape:connector-curvature="0"
           style="fill:#22a7f0" />
        <path
           id="path38"
           d="m 68.720339,1015.9385 h 1 v 1 h -1 z"
           inkscape:connector-curvature="0"
           style="fill:#ffffff" />
      </g>
      <g
         id="g46"
         transform="matrix(0.40199308,0,0,0.40199308,-22.697001,-125.55459)">
        <path
           id="path42"
           d="m 73.720339,1038.9385 h 3 v 3 h -3 z"
           inkscape:connector-curvature="0"
           style="fill:#22a7f0" />
        <path
           id="path44"
           d="m 74.720339,1039.9385 h 1 v 1 h -1 z"
           inkscape:connector-curvature="0"
           style="fill:#ffffff" />
      </g>
      <g
         id="g52"
         transform="matrix(0.4019931,0,0,0.4019931,-24.204213,-128.23027)">
        <path
           id="path48"
           d="m 73.720339,1038.9385 h 3 v 3 h -3 z"
           inkscape:connector-curvature="0"
           style="fill:#22a7f0" />
        <path
           id="path50"
           d="m 74.720339,1039.9385 h 1 v 1 h -1 z"
           inkscape:connector-curvature="0"
           style="fill:#ffffff" />
      </g>
      <g
         id="g58"
         transform="matrix(0.4019931,0,0,0.4019931,-22.732187,-130.46021)">
        <path
           id="path54"
           d="m 73.720339,1038.9385 h 3 v 3 h -3 z"
           inkscape:connector-curvature="0"
           style="fill:#22a7f0" />
        <path
           id="path56"
           d="m 74.720339,1039.9385 h 1 v 1 h -1 z"
           inkscape:connector-curvature="0"
           style="fill:#ffffff" />
      </g>
      <g
         id="g86"
         transform="matrix(0.44321603,0,0,0.44321603,-23.668125,-171.85676)">
        <g
           id="g82"
           style="fill:#7a36b1">
          <path
             id="path74"
             d="m 80.720339,1034.9385 h 1 v 1 h -1 z"
             inkscape:connector-curvature="0" />
          <path
             id="path76"
             d="m 81.720339,1033.9385 h 1 v 1 h -1 z"
             inkscape:connector-curvature="0" />
          <path
             id="path78"
             d="m 80.720339,1032.9385 h 1 v 1 h -1 z"
             inkscape:connector-curvature="0" />
          <path
             id="path80"
             d="m 79.720339,1033.9385 h 1 v 1 h -1 z"
             inkscape:connector-curvature="0" />
        </g>
        <path
           id="path84"
           d="m 80.720339,1033.9385 h 1 v 1 h -1 z"
           inkscape:connector-curvature="0"
           style="fill:#ffffff" />
      </g>
      <g
         id="g100"
         transform="matrix(0.44321603,0,0,0.44321603,-29.964309,-173.13932)">
        <g
           id="g96"
           style="fill:#7a36b1">
          <path
             id="path88"
             d="m 80.720339,1034.9385 h 1 v 1 h -1 z"
             inkscape:connector-curvature="0" />
          <path
             id="path90"
             d="m 81.720339,1033.9385 h 1 v 1 h -1 z"
             inkscape:connector-curvature="0" />
          <path
             id="path92"
             d="m 80.720339,1032.9385 h 1 v 1 h -1 z"
             inkscape:connector-curvature="0" />
          <path
             id="path94"
             d="m 79.720339,1033.9385 h 1 v 1 h -1 z"
             inkscape:connector-curvature="0" />
        </g>
        <path
           id="path98"
           d="m 80.720339,1033.9385 h 1 v 1 h -1 z"
           inkscape:connector-curvature="0"
           style="fill:#ffffff" />
      </g>
      <g
         id="g114"
         transform="matrix(0.44321603,0,0,0.44321603,-32.237934,-168.5192)">
        <g
           id="g110"
           style="fill:#7a36b1">
          <path
             id="path102"
             d="m 80.720339,1034.9385 h 1 v 1 h -1 z"
             inkscape:connector-curvature="0" />
          <path
             id="path104"
             d="m 81.720339,1033.9385 h 1 v 1 h -1 z"
             inkscape:connector-curvature="0" />
          <path
             id="path106"
             d="m 80.720339,1032.9385 h 1 v 1 h -1 z"
             inkscape:connector-curvature="0" />
          <path
             id="path108"
             d="m 79.720339,1033.9385 h 1 v 1 h -1 z"
             inkscape:connector-curvature="0" />
        </g>
        <path
           id="path112"
           d="m 80.720339,1033.9385 h 1 v 1 h -1 z"
           inkscape:connector-curvature="0"
           style="fill:#ffffff" />
      </g>
      <g
         id="g128"
         transform="matrix(0.44321603,0,0,0.44321603,-29.031541,-164.40918)">
        <g
           id="g124"
           style="fill:#7a36b1">
          <path
             id="path116"
             d="m 80.720339,1034.9385 h 1 v 1 h -1 z"
             inkscape:connector-curvature="0" />
          <path
             id="path118"
             d="m 81.720339,1033.9385 h 1 v 1 h -1 z"
             inkscape:connector-curvature="0" />
          <path
             id="path120"
             d="m 80.720339,1032.9385 h 1 v 1 h -1 z"
             inkscape:connector-curvature="0" />
          <path
             id="path122"
             d="m 79.720339,1033.9385 h 1 v 1 h -1 z"
             inkscape:connector-curvature="0" />
        </g>
        <path
           id="path126"
           d="m 80.720339,1033.9385 h 1 v 1 h -1 z"
           inkscape:connector-curvature="0"
           style="fill:#ffffff" />
      </g>
      <g
         transform="matrix(0.44097223,0,0,0.44097223,-22.049733,-161.46815)"
         id="g1056">
        <g
           style="fill:#7a36b1"
           id="g1052">
          <path
             inkscape:connector-curvature="0"
             d="m 80.720339,1034.9385 h 1 v 1 h -1 z"
             id="path1044" />
          <path
             inkscape:connector-curvature="0"
             d="m 81.720339,1033.9385 h 1 v 1 h -1 z"
             id="path1046" />
          <path
             inkscape:connector-curvature="0"
             d="m 80.720339,1032.9385 h 1 v 1 h -1 z"
             id="path1048" />
          <path
             inkscape:connector-curvature="0"
             d="m 79.720339,1033.9385 h 1 v 1 h -1 z"
             id="path1050" />
        </g>
        <path
           style="fill:#ffffff"
           inkscape:connector-curvature="0"
           d="m 80.720339,1033.9385 h 1 v 1 h -1 z"
           id="path1054" />
      </g>
    </g>
  </g>
</svg>
