<svg height="111" viewBox="0 0 33.866666 29.368751" width="128" xmlns="http://www.w3.org/2000/svg" xmlns:xlink="http://www.w3.org/1999/xlink"><linearGradient id="a" gradientUnits="userSpaceOnUse" x1="4.515485" x2="40.639366" y1="274.42258" y2="308.2887"><stop offset="0" stop-color="#fff"/><stop offset="1" stop-color="#e6e9ef"/></linearGradient><linearGradient id="b" gradientUnits="userSpaceOnUse" x1="68" x2="68" y1="112" y2="27.904816"><stop offset="0" stop-color="#06f"/><stop offset="1" stop-color="#80b3ff"/></linearGradient><linearGradient id="c" gradientUnits="userSpaceOnUse" x1="68" x2="76" y1="108" y2="32"><stop offset="0" stop-color="#b900c4"/><stop offset="1" stop-color="#fb5800"/></linearGradient><g transform="translate(0 -267.63124)"><rect fill="#c4cfe0" height="27.65732" rx=".055424" ry=".057719" width="32.172832" x=".564436" y="268.21378"/><path d="m123.73047 2.2011719v2.1347656c-.0667.0000007-.13463-.000001-.20117 0 .11216.00256.20117.096133.20117.2128906v101.9707019c0 .11838-.0907.21289-.20508.21289h-119.0527338c-.1143416 0-.2070312-.0945-.2070312-.21289v-1.61328l-2.1328125 1.82813 2.1328125 4.04296.2148438.22266h123.3046912l.21289-.22266v-106.2206994l-.21289-.2207031h.21289z" fill="#b6c2d4" fill-opacity=".916667" transform="matrix(.26458333 0 0 .26458333 0 267.63124)"/><rect fill="url(#a)" height="27.092916" rx=".054608" ry=".056536" width="31.608395" x="1.128871" y="268.7782"/><g transform="matrix(.22800231 0 0 .22800231 3.097404 266.98877)"><path d="m24 65.875 20-41.875 56 12 4 66.56326-52-.61872z" fill="none"/><path d="m44 66 12-20h26l8.1875 43.8125-34.1875 2.1875z" fill="none"/><path d="m44 24-20 41.875 3.15625 3.84375c8.990629 3.954815 19.975755 6.28125 31.84375 6.28125 17.224852 0 32.629059-4.895588 42.71875-12.5625l-1.71875-27.4375z" fill="none"/><g fill="#797979"><path d="m7.75 64v4h8.25v-4zm12 0v4h8.25v-4zm12.25 0v4h8v-4zm12 0v4h8v-4zm12 0v4h8v-4z" opacity=".613861"/><path d="m112.95595 25.837509-2.76243-2.892928-5.96666 5.697491 2.76242 2.892929zm-8.67879 8.287261-2.76242-2.892929-5.966667 5.697492 2.76242 2.892928zm-8.859595 8.459911-2.76242-2.892928-5.966665 5.697492 2.762421 2.892928zm-8.678784 8.287262-2.762421-2.89293-5.966665 5.697492 2.762421 2.89293zm-8.678786 8.28726-2.76242-2.892928-5.966665 5.697492 2.76242 2.892928z" opacity=".613861"/><path d="m39.60705 12.82197-3.464101 1.999999 4.125 7.14471 3.464101-2zm6.000001 10.392304-3.464102 2.000001 4.125 7.144709 3.464101-2zm6.124999 10.608812-3.464101 1.999999 4.125 7.14471 3.464101-2zm6 10.392304-3.464101 2.000001 4.125 7.144709 3.464102-2zm6 10.392305-3.464101 2 4.125 7.14471 3.464101-2z" opacity=".613861"/><path d="m110.90256 108.34894 2.71401-2.93839-6.06044-5.597646-2.71401 2.938406zm-8.81518-8.14202 2.71401-2.938393-6.060443-5.597644-2.714007 2.938394zm-8.998835-8.311652 2.714007-2.938393-6.060438-5.597641-2.714007 2.938394zm-8.815184-8.142022 2.71401-2.938396-6.060439-5.59764-2.714009 2.938394zm-8.815182-8.142025 2.714007-2.938393-6.060438-5.597642-2.714007 2.938395z" opacity=".613861"/><path d="m41.120658 119.95891 3.637567 1.66377 3.431529-7.50247-3.637577-1.66377zm4.991313-10.91269 3.637563 1.66377 3.431531-7.50247-3.637562-1.66377zm5.095304-11.140039 3.637561 1.663772 3.431529-7.502474-3.637562-1.66377zm4.991312-10.912689 3.637566 1.663773 3.431528-7.502474-3.637564-1.663773zm4.991317-10.912688 3.637561 1.663771 3.431529-7.502474-3.637562-1.66377z" opacity=".613861"/></g><path d="m24 65.875 20-41.875 56 12 4 66.03293h-52z" fill="none" stroke="url(#c)" stroke-linejoin="round" stroke-width="4"/><path d="m44 65.9375 12-19.81618h26l8.0625 43.890165-34.0625-.044417z" fill="none" stroke="url(#b)" stroke-linecap="round" stroke-linejoin="round" stroke-width="4"/></g></g></svg>