<svg height="111" viewBox="0 0 33.866666 29.368751" width="128" xmlns="http://www.w3.org/2000/svg" xmlns:xlink="http://www.w3.org/1999/xlink"><linearGradient id="a" gradientUnits="userSpaceOnUse" x1="4.515485" x2="40.639366" y1="274.42258" y2="308.2887"><stop offset="0" stop-color="#fff"/><stop offset="1" stop-color="#e6e9ef"/></linearGradient><linearGradient id="b" gradientTransform="matrix(.375 0 0 .375 -67.313287 1006.4756)" gradientUnits="userSpaceOnUse" x1="66.530014" x2="66.530014" y1="96.098755" y2="63.6422"><stop offset="0" stop-color="#fbaeff"/><stop offset="1" stop-color="#ffd7d7"/></linearGradient><linearGradient id="c" gradientTransform="matrix(.375 0 0 .375 -67.313287 1006.4756)" gradientUnits="userSpaceOnUse" x1="65.684731" x2="65.684731" y1="68.059006" y2="35.955765"><stop offset="0" stop-color="#99c2fc"/><stop offset="1" stop-color="#dceafe"/></linearGradient><linearGradient id="d" gradientUnits="userSpaceOnUse" x1="7.7994679252" x2="38.62818988858" y1="284.1187405214" y2="282.0473837579"><stop offset="0" stop-color="#0968ef"/><stop offset="1" stop-color="#aecffc"/></linearGradient><linearGradient id="e" gradientUnits="userSpaceOnUse" spreadMethod="pad" x1="8.11975971837" x2="39.94314012442" y1="281.54302692358" y2="276.43419181767"><stop offset="0" stop-color="#b900c4"/><stop offset="1" stop-color="#ae4300"/></linearGradient><linearGradient id="f" gradientTransform="matrix(.56444356 0 0 .56444356 -1.110801 -301.8197)" gradientUnits="userSpaceOnUse" x1="11.72953" x2="34.010265" xlink:href="#b" y1="1027.1261" y2="1055.8752"/><linearGradient id="g" gradientTransform="matrix(.56444356 0 0 .56444356 -.556987 -297.12976)" gradientUnits="userSpaceOnUse" x1="4.40678" x2="52.550846" xlink:href="#b" y1="1007.0275" y2="1046.1376"/><linearGradient id="h" gradientTransform="matrix(.56444356 0 0 .56444356 10.892586 -311.0002)" gradientUnits="userSpaceOnUse" x1="11.72953" x2="32.062725" xlink:href="#b" y1="1027.1261" y2="1041.3856"/><linearGradient id="i" gradientTransform="matrix(.56444356 0 0 .56444356 11.146055 -314.1625)" gradientUnits="userSpaceOnUse" x1="11.72953" x2="34.010265" xlink:href="#b" y1="1027.1261" y2="1055.8752"/><linearGradient id="j" gradientTransform="matrix(.56444356 0 0 .56444356 11.957208 -295.0653)" gradientUnits="userSpaceOnUse" x1="9.254238" x2="27.538736" xlink:href="#c" y1="1030.9343" y2="1032.0254"/><linearGradient id="k" gradientTransform="matrix(0 .58708451 .56444356 0 -557.2588 271.51901)" gradientUnits="userSpaceOnUse" x1="15.864408" x2="23.589865" xlink:href="#c" y1="1032.5868" y2="1041.5031"/><linearGradient id="l" gradientTransform="matrix(.56444356 0 0 .56444356 -.291196 -307.20796)" gradientUnits="userSpaceOnUse" x1="15.864408" x2="47.813557" xlink:href="#c" y1="1032.5868" y2="1046.3579"/><linearGradient id="m" gradientTransform="matrix(.56444356 0 0 .56444356 -.591908 -308.85696)" gradientUnits="userSpaceOnUse" x1="25.008476" x2="20.050846" xlink:href="#c" y1="1054.6208" y2="1031.485"/><linearGradient id="n" gradientTransform="matrix(.56444356 0 0 .56444356 11.858451 -307.28316)" gradientUnits="userSpaceOnUse" x1="25.008476" x2="20.050846" xlink:href="#c" y1="1054.6208" y2="1031.485"/><g transform="translate(0 -267.63124)"><rect fill="#c4cfe0" height="27.65732" rx=".055424" ry=".057719" width="32.172832" x=".564436" y="268.21378"/><path d="m123.73047 2.2011719v2.1347656c-.0667.0000007-.13463-.000001-.20117 0 .11216.00256.20117.096133.20117.2128906v101.9707019c0 .11838-.0907.21289-.20508.21289h-119.0527338c-.1143416 0-.2070312-.0945-.2070312-.21289v-1.61328l-2.1328125 1.82813 2.1328125 4.04296.2148438.22266h123.3046912l.21289-.22266v-106.2206994l-.21289-.2207031h.21289z" fill="#b6c2d4" fill-opacity=".916667" transform="matrix(.26458333 0 0 .26458333 0 267.63124)"/><rect fill="url(#a)" height="27.092916" rx=".054608" ry=".056536" width="31.608395" x="1.128871" y="268.7782"/><path d="m5.3808193 269.47764-.297842.56122-.595684 1.12245h.595684l-.0000223 21.88681h.595684l.0000223-21.88681h.5956841l-.5956841-1.12245z" fill="#797979" opacity=".613861"/><path d="m3.951049 289.10114h1.693307v.5612h-1.693307z" fill="#787878" fill-opacity=".615686"/><path d="m3.951049 284.58566h1.755803v.5612h-1.755803z" fill="#787878" fill-opacity=".615686"/><path d="m3.951049 280.07016h1.755803v.5612h-1.755803z" fill="#787878" fill-opacity=".615686"/><path d="m28.51338 293.32868-.595684.28061-1.191368.56122v-.56122l-21.6433061.00002v-.56122l21.6433061-.00002v-.56122l1.191368.56122z" fill="#797979" opacity=".613861"/><g fill="#787878" fill-opacity=".615686"><path d="m-294.74225-10.724277h1.686864v.595661h-1.686864z" transform="matrix(0 -1 -1 0 0 0)"/><path d="m-294.74225-19.755247h1.686864v.564436h-1.686864z" transform="matrix(0 -1 -1 0 0 0)"/><path d="m-294.74225-24.270733h1.670629v.589686h-1.670629z" transform="matrix(0 -1 -1 0 0 0)"/><path d="m-294.73581-15.239762h1.686864v.564436h-1.686864z" transform="matrix(0 -1 -1 0 0 0)"/><path d="m3.951049 275.55142h1.755803v.5612h-1.755803z"/></g><path d="m8.4807739 281.0281-.042361 4.93312 2.2386411-3.91764.104545-5.05752z" fill="url(#m)" fill-rule="evenodd" stroke-width=".564444"/><path d="m7.8485075 279.95082 12.7716245.18436 2.502467-3.91763-12.26973-.30884z" fill="url(#l)" fill-rule="evenodd" stroke-width=".564444"/><path d="m20.458266 288.39992 5.676999-.0997 2.238641-3.91763-5.614815-.0247z" fill="url(#j)" fill-rule="evenodd" stroke-width=".564444"/><path d="m28.19909 280.85867.120787 3.79094-2.122253 3.72223-.285831-4.20327z" fill="url(#k)" fill-rule="evenodd" stroke-width=".575653"/><path d="m8.2410542 285.43215.055725-5.31679 6.9511606.0616 5.249798.0553.0054 7.82741 5.403618-.0313.0051-3.40125" fill="none" stroke="url(#d)" stroke-linecap="round" stroke-linejoin="round" stroke-width=".875861"/><path d="m20.457279 279.87567.431492 7.65932 2.23864-3.91763-.115308-7.78373z" fill="url(#n)" fill-rule="evenodd" stroke-width=".564444"/><path d="m20.401173 277.29914.332329 11.55942 2.408359-4.27615v-11.85315z" fill="url(#i)" fill-rule="evenodd" stroke-width=".564444"/><path d="m7.592302 288.40212 13.291816.13134 2.257743-3.95105h-13.5464553z" fill="url(#g)" fill-rule="evenodd" stroke-width=".564444"/><path d="m8.3136489 289.07669-.042361 1.61883 2.2386401-3.91763.104547-1.74324z" fill="url(#f)" fill-rule="evenodd" stroke-width=".564444"/><path d="m20.05321 276.11464 5.910829.001 2.257743-3.95105h-5.644357z" fill="url(#h)" fill-rule="evenodd" stroke-width=".564444"/><path d="m8.2292426 290.3016-.053894-1.84687 7.0607794.0952 5.219127.003.03604-10.51367-.03668-1.79104 5.29184.0393" fill="none" stroke="url(#e)" stroke-linecap="round" stroke-linejoin="round" stroke-width=".875861"/></g></svg>