<svg height="111" viewBox="0 0 33.866666 29.368751" width="128" xmlns="http://www.w3.org/2000/svg" xmlns:xlink="http://www.w3.org/1999/xlink"><linearGradient id="a" gradientUnits="userSpaceOnUse" x1="4.515485" x2="40.639366" y1="274.42258" y2="308.2887"><stop offset="0" stop-color="#fff"/><stop offset="1" stop-color="#e6e9ef"/></linearGradient><linearGradient id="b" gradientUnits="userSpaceOnUse" x1="7.7994679252" x2="26.20015597408" y1="284.1187405214" y2="284.1187405214"><stop offset="0" stop-color="#0968ef"/><stop offset="1" stop-color="#aecffc"/></linearGradient><linearGradient id="c" gradientUnits="userSpaceOnUse" spreadMethod="pad" x1="8.11975971837" x2="33.67261751879" y1="281.54302692358" y2="274.69615720772"><stop offset="0" stop-color="#b900c4"/><stop offset="1" stop-color="#ae4300"/></linearGradient><linearGradient id="d" gradientUnits="userSpaceOnUse" x1="16.88573644" x2="25.62995091317" y1="296.23045296" y2="279.65015258347"><stop offset="0" stop-color="#99c2fc"/><stop offset="1" stop-color="#dceafe"/></linearGradient><linearGradient id="e" gradientUnits="userSpaceOnUse" x1="21.89809729297" x2="29.8001946205" y1="285.59426137953" y2="265.27457966469"><stop offset="0" stop-color="#fbaeff"/><stop offset="1" stop-color="#ffd7d7"/></linearGradient><g transform="translate(0 -267.63124)"><rect fill="#c4cfe0" height="27.65732" rx=".055424" ry=".057719" width="32.172832" x=".564436" y="268.21378"/><path d="m123.73047 2.2011719v2.1347656c-.0667.0000007-.13463-.000001-.20117 0 .11216.00256.20117.096133.20117.2128906v101.9707019c0 .11838-.0907.21289-.20508.21289h-119.0527338c-.1143416 0-.2070312-.0945-.2070312-.21289v-1.61328l-2.1328125 1.82813 2.1328125 4.04296.2148438.22266h123.3046912l.21289-.22266v-106.2206994l-.21289-.2207031h.21289z" fill="#b6c2d4" fill-opacity=".916667" transform="matrix(.26458333 0 0 .26458333 0 267.63124)"/><rect fill="url(#a)" height="27.092916" rx=".054608" ry=".056536" width="31.608395" x="1.128871" y="268.7782"/><path d="m5.3808193 269.47764-.297842.56122-.595684 1.12245h.595684l-.0000223 21.88681h.595684l.0000223-21.88681h.5956841l-.5956841-1.12245z" fill="#797979" opacity=".613861"/><path d="m3.951049 289.10114h1.693307v.5612h-1.693307z" fill="#787878" fill-opacity=".615686"/><path d="m3.951049 284.58566h1.755803v.5612h-1.755803z" fill="#787878" fill-opacity=".615686"/><path d="m3.951049 280.07016h1.755803v.5612h-1.755803z" fill="#787878" fill-opacity=".615686"/><path d="m28.51338 293.32868-.595684.28061-1.191368.56122v-.56122l-21.6433061.00002v-.56122l21.6433061-.00002v-.56122l1.191368.56122z" fill="#797979" opacity=".613861"/><g fill="#787878" fill-opacity=".615686"><path d="m-294.74225-10.724277h1.686864v.595661h-1.686864z" transform="matrix(0 -1 -1 0 0 0)"/><path d="m-294.74225-19.755247h1.686864v.564436h-1.686864z" transform="matrix(0 -1 -1 0 0 0)"/><path d="m-294.74225-24.270733h1.670629v.589686h-1.670629z" transform="matrix(0 -1 -1 0 0 0)"/><path d="m-294.73581-15.239762h1.686864v.564436h-1.686864z" transform="matrix(0 -1 -1 0 0 0)"/><path d="m3.951049 275.55142h1.755803v.5612h-1.755803z"/></g><path d="m11.121669 279.86642-3.2138382 5.5081 7.2787982-5.72767 5.316156 7.95014 5.689383-2.88559 2.233074-4.04991-.108967-.33545-6.072937 3.27518-5.219133-8.04716z" fill="url(#d)" fill-rule="evenodd"/><path d="m8.2410542 285.43215 7.0068858-5.25518 5.255164 7.88272 5.255165-3.50344" fill="none" stroke="url(#b)" stroke-linecap="round" stroke-linejoin="round" stroke-width=".875861"/><path d="m8.0551495 290.02043 2.4916025-4.41526 7.19633-1.83081 2.461707-6.12963 2.057292-3.34619 5.540618-1.73022-2.050266 3.78049-5.748096 2.0608-4.815489 9.73111z" fill="url(#e)" fill-rule="evenodd"/><path d="m8.2292426 290.3016 7.0068854-1.7517 5.255164-10.51034 5.255165-1.75174" fill="none" stroke="url(#c)" stroke-linecap="round" stroke-linejoin="round" stroke-width=".875861"/></g></svg>