<svg height="111" viewBox="0 0 33.866666 29.368751" width="128" xmlns="http://www.w3.org/2000/svg" xmlns:xlink="http://www.w3.org/1999/xlink"><linearGradient id="a" gradientUnits="userSpaceOnUse" x1="4.515485" x2="40.639366" y1="274.42258" y2="308.2887"><stop offset="0" stop-color="#fff"/><stop offset="1" stop-color="#e6e9ef"/></linearGradient><linearGradient id="b" gradientUnits="userSpaceOnUse" x1="11.70553137961" x2="4.72600543213" y1="295.53111170767" y2="285.26710386407"><stop offset="0" stop-color="#b900c4"/><stop offset="1" stop-color="#ae4300"/></linearGradient><linearGradient id="c" gradientUnits="userSpaceOnUse" x1="3.8535649202" x2="15.8314856318" y1="289.78326746342" y2="286.57379335385"><stop offset="0" stop-color="#0968ef"/><stop offset="1" stop-color="#aecffc"/></linearGradient><g transform="translate(0 -267.63124)"><rect fill="#c4cfe0" height="27.65732" rx=".055424" ry=".057719" width="32.172832" x=".564436" y="268.21378"/><path d="m123.73047 2.2011719v2.1347656c-.0667.0000007-.13463-.000001-.20117 0 .11216.00256.20117.096133.20117.2128906v101.9707019c0 .11838-.0907.21289-.20508.21289h-119.0527338c-.1143416 0-.2070312-.0945-.2070312-.21289v-1.61328l-2.1328125 1.82813 2.1328125 4.04296.2148438.22266h123.3046912l.21289-.22266v-106.2206994l-.21289-.2207031h.21289z" fill="#b6c2d4" fill-opacity=".916667" transform="matrix(.26458333 0 0 .26458333 0 267.63124)"/><rect fill="url(#a)" height="27.092916" rx=".054608" ry=".056536" width="31.608395" x="1.128871" y="268.7782"/><path d="m5.3808193 269.47764-.297842.56122-.595684 1.12245h.595684l-.0000223 21.88681h.595684l.0000223-21.88681h.5956841l-.5956841-1.12245z" fill="#797979" opacity=".613861"/><path d="m3.951049 289.10114h1.693307v.5612h-1.693307z" fill="#787878" fill-opacity=".615686"/><path d="m3.951049 284.58566h1.755803v.5612h-1.755803z" fill="#787878" fill-opacity=".615686"/><path d="m3.951049 280.07016h1.755803v.5612h-1.755803z" fill="#787878" fill-opacity=".615686"/><path d="m28.51338 293.32868-.595684.28061-1.191368.56122v-.56122l-21.6433061.00002v-.56122l21.6433061-.00002v-.56122l1.191368.56122z" fill="#797979" opacity=".613861"/><g fill="#787878" fill-opacity=".615686"><path d="m-294.74225-10.724277h1.686864v.595661h-1.686864z" transform="matrix(0 -1 -1 0 0 0)"/><path d="m-294.74225-19.755247h1.686864v.564436h-1.686864z" transform="matrix(0 -1 -1 0 0 0)"/><path d="m-294.74225-24.270733h1.670629v.589686h-1.670629z" transform="matrix(0 -1 -1 0 0 0)"/><path d="m-294.73581-15.239762h1.686864v.564436h-1.686864z" transform="matrix(0 -1 -1 0 0 0)"/><path d="m3.951049 275.55142h1.755803v.5612h-1.755803z"/></g><g fill="none" stroke-linecap="round" stroke-linejoin="round" stroke-width=".41056" transform="matrix(2.13333 0 0 2.13333 -.217054 -336.65685)"><path d="m3.9048851 293.88887s2.0537093-1.20132 2.9055455-2.01623c1.1298478-1.08088 1.5407306-2.86515 2.8422991-3.73162 1.1089973-.73827 2.9861583-2.00635 3.8677213-1.00747.992516 1.1246-1.6667 4.17977-1.6667 4.17977" stroke="url(#c)"/><path d="m5.8287197 285.80717s-2.4022052 2.43426-1.8133499 3.66278c.3865861.80654 1.8628802.10225 2.6201667.57813 1.3784773.86624 1.4095336 3.58389 3.0171932 3.84079.9745003.15572 2.4633623-1.64225 2.4633623-1.64225" stroke="url(#b)"/></g></g></svg>