<svg height="128" viewBox="0 0 33.866666 33.866668" width="128" xmlns="http://www.w3.org/2000/svg" xmlns:xlink="http://www.w3.org/1999/xlink"><linearGradient id="a" gradientUnits="userSpaceOnUse" x1="8.129229" x2="31.000186" y1="12.132454" y2="12.132454"><stop offset="0" stop-color="#3b3e22"/><stop offset="1" stop-color="#454545" stop-opacity="0"/></linearGradient><linearGradient id="b" gradientUnits="userSpaceOnUse" x1="15.989986" x2="17.211143" y1="31.138447" y2="3.051811"><stop offset="0" stop-color="#555"/><stop offset="1"/></linearGradient><text style="font-size:40.615143;font-family:sans-serif;letter-spacing:0;word-spacing:0;stroke-width:1.015378;fill:url(#b)" x="1.803185" y="30.888117"><tspan fill="url(#b)" font-family="FreeSerif" font-size="42.740532" font-style="italic" stroke-width="1.015378" x="1.803185" y="30.888117">D</tspan></text><path d="m10.783331 3.2660697c.01283.00641.01833.022758.03101.029456.01052.00615.03087.00354.04134.00982zm5.021399.3281452c-.0098.00456-.01491.011121-.0078.00982.0039-.00183.0038-.00801.0078-.00982zm-4.224549.4475181c.281884.4151323.47439.887208.47439 1.3730428 0 .8688229-.180035 1.8569287-.50953 3.0251383l-3.4158121 12.2741869a24.201031 11.872204 0 0 0 1.9487181.284737l4.414201-15.7561448c.125372-.5014844.553791-.857073.957048-1.2009602zm12.55479.679545c.995078.5912443 1.858312 1.3003663 2.41794 2.2267374.672885 1.0435109 1.150894 2.1131549 1.410249 3.2049726.281011 1.036774.417547 2.137645.417547 3.296957 0 2.368967-.33165 4.55232-.988055 6.533451a24.201031 11.872204 0 0 0 2.915068-.903304c.463577-1.423686.692465-2.953579.692465-4.604887 0-3.277417-1.001143-5.7180047-3.033408-7.5959191-1.06594-.9849835-2.353374-1.6842828-3.831806-2.1580079z" fill="url(#a)"/></svg>