<?xml version="1.0" encoding="UTF-8" standalone="no"?>
<svg
   xmlns:dc="http://purl.org/dc/elements/1.1/"
   xmlns:cc="http://creativecommons.org/ns#"
   xmlns:rdf="http://www.w3.org/1999/02/22-rdf-syntax-ns#"
   xmlns:svg="http://www.w3.org/2000/svg"
   xmlns="http://www.w3.org/2000/svg"
   xmlns:xlink="http://www.w3.org/1999/xlink"
   xmlns:sodipodi="http://sodipodi.sourceforge.net/DTD/sodipodi-0.dtd"
   xmlns:inkscape="http://www.inkscape.org/namespaces/inkscape"
   height="16"
   viewBox="0 0 4.2333333 4.2333335"
   width="16"
   version="1.1"
   id="svg20"
   sodipodi:docname="sc_underline.svg"
   inkscape:version="0.92.4 (unknown)">
  <metadata
     id="metadata26">
    <rdf:RDF>
      <cc:Work
         rdf:about="">
        <dc:format>image/svg+xml</dc:format>
        <dc:type
           rdf:resource="http://purl.org/dc/dcmitype/StillImage" />
        <dc:title></dc:title>
      </cc:Work>
    </rdf:RDF>
  </metadata>
  <defs
     id="defs24">
    <linearGradient
       inkscape:collect="always"
       xlink:href="#b"
       id="linearGradient847"
       gradientUnits="userSpaceOnUse"
       x1="14.928053"
       y1="29.901337"
       x2="16.088268"
       y2="3.2163701" />
    <linearGradient
       inkscape:collect="always"
       xlink:href="#b"
       id="linearGradient849"
       gradientUnits="userSpaceOnUse"
       x1="14.928053"
       y1="29.901337"
       x2="16.088268"
       y2="3.2163701" />
  </defs>
  <sodipodi:namedview
     pagecolor="#ffffff"
     bordercolor="#666666"
     borderopacity="1"
     objecttolerance="10"
     gridtolerance="10"
     guidetolerance="10"
     inkscape:pageopacity="0"
     inkscape:pageshadow="2"
     inkscape:window-width="1366"
     inkscape:window-height="706"
     id="namedview22"
     showgrid="true"
     inkscape:zoom="5.2149125"
     inkscape:cx="-7.8911781"
     inkscape:cy="20.482843"
     inkscape:window-x="0"
     inkscape:window-y="0"
     inkscape:window-maximized="1"
     inkscape:current-layer="g845">
    <inkscape:grid
       type="xygrid"
       id="grid836" />
  </sodipodi:namedview>
  <linearGradient
     id="a"
     gradientUnits="userSpaceOnUse"
     x1="9.5368633"
     x2="24.128222"
     y1="11.442713"
     y2="11.442713">
    <stop
       offset="0"
       stop-color="#3b3e22"
       id="stop2" />
    <stop
       offset="1"
       stop-color="#454545"
       stop-opacity="0"
       id="stop4" />
  </linearGradient>
  <linearGradient
     id="b"
     gradientUnits="userSpaceOnUse"
     x1="14.928053"
     x2="16.088268"
     y1="29.901337"
     y2="3.2163701">
    <stop
       offset="0"
       stop-color="#555"
       id="stop7" />
    <stop
       offset="1"
       id="stop9" />
  </linearGradient>
  <g
     id="g845"
     transform="scale(0.125)">
    <g
       id="text14"
       style="font-size:38.58823776px;font-family:sans-serif;letter-spacing:0;word-spacing:0;fill:url(#linearGradient849);stroke-width:0.96470499"
       transform="scale(1.0525265,0.95009483)"
       aria-label="A">
      <path
         id="path833"
         style="font-size:40.6075592px;font-family:FreeSerif;fill:url(#linearGradient847);stroke-width:0.96470499"
         d="m 30.118185,28.891964 v 0.771543 H 19.763257 v -0.771543 q 1.624303,-0.04061 2.233416,-0.324861 0.609113,-0.284253 0.609113,-1.055796 0,-0.974582 -0.771543,-2.720707 l -1.66491,-3.898325 H 9.5301522 l -1.8679477,4.751084 q -0.3248605,0.852759 -0.3248605,1.583695 0,1.66491 2.761314,1.66491 v 0.771543 H 2.0583613 V 28.891964 Q 3.560841,28.810749 4.3729922,27.754952 5.225751,26.658548 7.0936987,22.232324 L 15.540071,2.2940126 h 0.812151 L 26.463504,25.359106 q 0.974582,2.233416 1.624303,2.842529 0.649721,0.609114 2.030378,0.690329 z M 10.220481,19.227365 h 9.380346 L 14.89035,8.060286 Z"
         inkscape:connector-curvature="0" />
    </g>
    <rect
       id="rect16"
       y="31.75"
       x="2e-06"
       width="33.866669"
       ry="0.60722399"
       rx="0.47207499"
       height="2.116667"
       style="fill:#010101;stroke-width:0.26458299" />
    <path
       id="path18"
       d="M 16.7912,3.5925457 15.278631,6.819739 a 1.0125134,0.91397576 0 0 1 1.327568,0.4842082 l 4.956287,10.6086548 a 1.0125134,0.91397576 0 0 1 -0.248564,1.027845 1.0125134,0.91397576 0 0 1 0.716236,0.352433 24.251978,13.058757 0 0 0 2.098063,-0.593763 z M 9.7854263,18.522901 9.5368627,19.053618 a 1.0125134,0.91397576 0 0 1 0.4935103,-0.116789 h 0.04082 A 1.0125134,0.91397576 0 0 1 9.7854263,18.522901 Z"
       style="fill:url(#a)"
       inkscape:connector-curvature="0" />
  </g>
</svg>
