<svg height="24" viewBox="0 0 24 24" width="24" xmlns="http://www.w3.org/2000/svg" xmlns:xlink="http://www.w3.org/1999/xlink"><linearGradient id="a" gradientUnits="userSpaceOnUse" x1="7.739838" x2="8" y1="1.357724" y2="14"><stop offset="0" stop-color="#587bcb"/><stop offset=".94117647" stop-color="#3f59ae"/><stop offset="1" stop-color="#3d7cdb"/></linearGradient><linearGradient id="b" gradientTransform="matrix(1.375 0 0 1 -1.375 0)" gradientUnits="userSpaceOnUse" x1="6.5" x2="6.5" y1="11" y2="12"><stop offset="0" stop-color="#2a3674"/><stop offset="1" stop-color="#174072" stop-opacity="0"/></linearGradient><linearGradient id="c" gradientUnits="userSpaceOnUse" x1="9" x2="9" y1="-7" y2="4"><stop offset="0" stop-color="#102134"/><stop offset="1" stop-color="#102134" stop-opacity="0"/></linearGradient><filter id="d" color-interpolation-filters="sRGB" height="1.267833" width="1.129187" x="-.064594" y="-.133917"><feGaussianBlur stdDeviation="3.1247207"/></filter><linearGradient id="e" gradientUnits="userSpaceOnUse" x1=".37741" x2=".37741" y1="5.214652" y2="3.309088"><stop offset="0" stop-color="#34608f"/><stop offset="1" stop-color="#34608f" stop-opacity="0"/></linearGradient><linearGradient id="f" gradientTransform="matrix(.21345221 0 0 .1138394 -5.411169 -103.22724)" gradientUnits="userSpaceOnUse" x1="124.01234" x2="124.01234" y1="966.51019" y2="935.34326"><stop offset="0"/><stop offset="1" stop-color="#34608f" stop-opacity="0"/></linearGradient><linearGradient id="g" gradientUnits="userSpaceOnUse" x1="55" x2="55" y1="1036.4132" y2="1032.4822"><stop offset="0" stop-color="#003d7b"/><stop offset="1" stop-color="#003d7b" stop-opacity="0"/></linearGradient><filter id="h" color-interpolation-filters="sRGB" height="1.697208" width="1.027888" x="-.013944" y="-.348604"><feGaussianBlur stdDeviation=".70882694"/></filter><filter id="i" color-interpolation-filters="sRGB" height="1.869989" width="1.027669" x="-.013834" y="-.434994"><feGaussianBlur stdDeviation=".70324038"/></filter><clipPath id="j"><rect height="31.444271" rx="4" width="141.60004" x="4" y="941.36218"/></clipPath><filter id="k"><feGaussianBlur stdDeviation="1.5999062"/></filter><linearGradient id="l" gradientTransform="matrix(.11777685 0 0 .17033799 -1.341286 -69.362806)" gradientUnits="userSpaceOnUse" x1="399.77466" x2="399.77466" y1="731.09662" y2="480.60214"><stop offset="0" stop-color="#cbcbcd"/><stop offset=".5" stop-color="#e0e0e2"/><stop offset="1" stop-color="#f2f2f2"/></linearGradient><linearGradient id="m" gradientTransform="matrix(.11777685 0 0 .17033799 114.48257 275.18533)" gradientUnits="userSpaceOnUse" x1="-333.0289" x2="-333.0289" y1="-1473.6504" y2="-776.61371"><stop offset="0" stop-color="#fff"/><stop offset=".49140647" stop-color="#fff"/><stop offset="1" stop-color="#dcdcdc"/></linearGradient><clipPath id="n"><path d="m-.001498 37.33334h101.33334v85.333336h-101.33334z"/></clipPath><g transform="translate(1 7)"><rect fill="url(#g)" filter="url(#h)" height="4.39197" opacity=".577143" rx="2.439995" ry="2.195984" transform="matrix(.125 0 0 .25614775 -.125 -251.09298)" width="169.99997" x="3.000028" y="1032.4822"/><path d="m-46.991242 13.13992h114.000023c2.216 0 4 .8652 4 1.94 0 1.0747-1.78433 1.902-4 1.94-36.945183.6329-74.7030655.7782-114.000023 0-2.215566-.044-4-.8653-4-1.94 0-1.0748 1.784-1.94 4-1.94z" filter="url(#i)" opacity=".554286" transform="matrix(.17315572 0 0 .125 9.204424 12.35751)"/><path d="m1-5c-.5 0-.46290449.3887135-.5.5l-.5 1.5v9c0 .554.446 1 1 1h19c.554 0 1-.446 1-1v-9c0-.554-.446-1-1-1h-12.0957031c-.0842007-.4859507-.178001-1-.4042969-1z" fill="#3b6ca9"/><path d="m1-5c-.5 0-.46290449.3887135-.5.5l-.5 1.5v9c0 .554.446 1 1 1v-10l.5-1h5.3828125c.013345.068527.023996.094239.037109.1699219.0826732.4792195.4980774.8295107.9843754.8300781h1.0957031 11v10c.554 0 1-.446 1-1v-9c0-.554-.446-1-1-1h-12.0957031c-.0842007-.4859507-.178001-1-.4042969-1z" fill="url(#c)" opacity=".25"/><g clip-path="url(#n)" transform="matrix(.1875 0 0 .1875 4.000281 -14.000001)"><path d="m84.34813 250.87833h77.88965c.76597 0 1.38257.72808 1.38261 1.63246l.003 62.7339c.00004.90439-.61664 1.63247-1.38261 1.63247h-77.890137c-.765966 0-1.382574-.72808-1.38261-1.63247l-.0025-62.7339c-.000037-.90438.616644-1.63246 1.38261-1.63246z" style="opacity:.4;fill:none;stroke:#000;stroke-width:4;stroke-linecap:round;stroke-linejoin:round;stroke-dashoffset:4;filter:url(#k)" transform="matrix(1.45455 0 0 1.45455 -115.33946 -343.57879)"/><g stroke-width="1.45455"><path d="m7.3410335 21.337806h113.3105365c1.11428 0 2.01131 1.059 2.01136 2.374437l.004 91.246657h-117.3336044l-.00366-91.246657c-.0000527-1.315437.8970675-2.374437 2.0113634-2.374437z" fill="url(#l)"/><path d="m76.905499 43.059009v-2.794715z" fill="#fff" fill-opacity=".756881"/><path d="m7.3296807 21.337806c-1.1142958 0-2.0000589 1.048207-2.0000062 2.363644l.00366 91.26825c.0000527 1.31543.8857104 2.36364 2.0000062 2.36364h113.3332493c1.1143 0 2.00005-1.04821 2-2.36364l-.004-91.26825c-.00005-1.315437-.8857-2.363644-2-2.363644zm1.3636406 3.545466h110.6059687c1.05857 0 1.90904.993036 1.90909 2.22728l.004 86.540958c.00005 1.23425-.85052 2.22728-1.90909 2.22728h-110.6059732c-1.0585807 0-1.9090447-.99303-1.9090968-2.22728l-.00366-86.540958c-.0000521-1.234244.8505161-2.22728 1.9090968-2.22728z" fill="url(#m)"/><path d="m5.331835 48h117.333345v69.33334h-117.333345z" fill="#fff" fill-opacity=".988235"/><g fill="#cfcfd1" transform="matrix(5.0393858 0 0 5.0393858 -.001544 -1374.0306)"><path d="m3.174999 285.35831h8.466632v1.05833h-8.466632z"/><path d="m13.758299 285.35831h8.466641v1.05833h-8.466641z"/><path d="m3.174999 289.59164h8.466632v1.05833h-8.466632z"/><path d="m13.758299 289.59164h8.466641v1.05833h-8.466641z"/><path d="m3.174999 291.70831h8.466632v1.05833h-8.466632z"/><path d="m13.758299 291.70831h8.466641v1.05833h-8.466641z"/><path d="m3.174999 287.47498h8.466632v1.05833h-8.466632z"/><path d="m13.758299 287.47498h8.466641v1.05833h-8.466641z"/></g></g></g><path clip-path="url(#j)" d="m30.012982 956.41796-26.0129821-.46865.0000002 50.59179 144.9714699-.02v-53.82893c0-2.54081-2.0596-4.59164-4.62097-4.58387l-102.337518.31046c-9.375263 0-5.067235 7.84799-12 8z" fill="#16375b" fill-opacity=".801471" filter="url(#d)" transform="matrix(.14830504 0 0 .14830504 -.59322 -138.2721)"/><path d="m1 5h4.5l1-1h14.5c.554 0 1 .446 1 1v8c0 .554-.446 1-1 1h-20c-.554 0-1-.446-1-1v-7c0-.554.4937484-.7749993 1-1z" fill="url(#a)"/><path d="m0 11h22v1h-22z" fill="#385da4"/><path d="m0 11h22v1h-22z" fill="url(#b)"/><path d="m0 12h22v.5h-22z" fill="#a4c0e8"/><path d="m6.5 4-1 1h-4.5c-.554 0-1 .446-1 1v1c0-.554.49374843-.7749993 1-1h4.5l1-1h14.5c.554 0 1 .446 1 1v-1c0-.554-.451196-.9243029-1-1z" fill="#a4c0e8"/><path d="m5-3h1v.9999999h-1z" fill="#fbc66d"/><path d="m2-3h4v.9999999h-4z" fill="#fcf9e9"/><path d="m1 4c-.5505375 0-.9925198.4410516-.9980469.9902344v8.0195316c.00023.02285.0119482.042.0136719.06445.038109.321065.7510484.923754.984375.925784.0003916.000003.00156 0 .00195 0v-10z" fill="url(#e)" opacity=".594286"/><path d="m21 3v11c.554 0 1-.446 1-1v-9c0-.554-.446-1-1-1z" fill="url(#f)" opacity=".405714"/></g></svg>