<svg height="24" viewBox="0 0 24 24" width="24" xmlns="http://www.w3.org/2000/svg" xmlns:xlink="http://www.w3.org/1999/xlink"><linearGradient id="a" gradientUnits="userSpaceOnUse" x1="7.739838" x2="8" y1="1.357724" y2="14"><stop offset="0" stop-color="#587bcb"/><stop offset=".94117647" stop-color="#3f59ae"/><stop offset="1" stop-color="#3d7cdb"/></linearGradient><linearGradient id="b" gradientTransform="matrix(1.375 0 0 1 -1.375 0)" gradientUnits="userSpaceOnUse" x1="6.5" x2="6.5" y1="11" y2="12"><stop offset="0" stop-color="#2a3674"/><stop offset="1" stop-color="#174072" stop-opacity="0"/></linearGradient><linearGradient id="c" gradientUnits="userSpaceOnUse" x1="9" x2="9" y1="-7" y2="4"><stop offset="0" stop-color="#102134"/><stop offset="1" stop-color="#102134" stop-opacity="0"/></linearGradient><filter id="d" color-interpolation-filters="sRGB" height="1.267833" width="1.129187" x="-.064594" y="-.133917"><feGaussianBlur stdDeviation="3.1247207"/></filter><linearGradient id="e" gradientUnits="userSpaceOnUse" x1=".37741" x2=".37741" y1="5.214652" y2="3.309088"><stop offset="0" stop-color="#34608f"/><stop offset="1" stop-color="#34608f" stop-opacity="0"/></linearGradient><linearGradient id="f" gradientTransform="matrix(.21345221 0 0 .1138394 -5.411169 -103.22724)" gradientUnits="userSpaceOnUse" x1="124.01234" x2="124.01234" y1="966.51019" y2="935.34326"><stop offset="0"/><stop offset="1" stop-color="#34608f" stop-opacity="0"/></linearGradient><linearGradient id="g" gradientUnits="userSpaceOnUse" x1="55" x2="55" y1="1036.4132" y2="1032.4822"><stop offset="0" stop-color="#003d7b"/><stop offset="1" stop-color="#003d7b" stop-opacity="0"/></linearGradient><filter id="h" color-interpolation-filters="sRGB" height="1.697208" width="1.027888" x="-.013944" y="-.348604"><feGaussianBlur stdDeviation=".70882694"/></filter><filter id="i" color-interpolation-filters="sRGB" height="1.869989" width="1.027669" x="-.013834" y="-.434994"><feGaussianBlur stdDeviation=".70324038"/></filter><clipPath id="j"><rect height="31.444271" rx="4" width="141.60004" x="4" y="941.36218"/></clipPath><filter id="k"><feGaussianBlur stdDeviation="1.5999062"/></filter><linearGradient id="l" gradientTransform="matrix(.03116178 0 0 .04506859 -.483098 242.98515)" gradientUnits="userSpaceOnUse" x1="399.77466" x2="399.77466" y1="731.09662" y2="480.60214"><stop offset="0" stop-color="#cbcbcd"/><stop offset=".5" stop-color="#e0e0e2"/><stop offset="1" stop-color="#f2f2f2"/></linearGradient><linearGradient id="m" gradientTransform="matrix(.03116178 0 0 .04506859 30.161964 334.14685)" gradientUnits="userSpaceOnUse" x1="-333.0289" x2="-333.0289" y1="-1473.6504" y2="-776.61371"><stop offset="0" stop-color="#fff"/><stop offset=".49140647" stop-color="#fff"/><stop offset="1" stop-color="#dcdcdc"/></linearGradient><linearGradient id="n" gradientUnits="userSpaceOnUse" x1="20.012131" x2="20.012131" y1="281.60605" y2="275.44846"><stop offset="0" stop-color="#e8e8e8"/><stop offset=".234375" stop-color="#fff"/><stop offset=".69675177" stop-color="#ededed"/><stop offset=".90625" stop-color="#6c6c6c"/><stop offset="1" stop-color="#2b2b2b"/></linearGradient><linearGradient id="o" gradientUnits="userSpaceOnUse" x1="10.775769" x2="12.315168" xlink:href="#p" y1="278.52701" y2="278.52701"/><linearGradient id="p"><stop offset="0" stop-color="#aaa"/><stop offset="1" stop-color="#aaa" stop-opacity="0"/></linearGradient><linearGradient id="q" gradientUnits="userSpaceOnUse" x1="-30.788231" x2="-29.248831" xlink:href="#p" y1="278.52701" y2="278.52701"/><filter id="r"><feGaussianBlur stdDeviation=".50622511"/></filter><linearGradient id="s" gradientTransform="matrix(.35316395 0 0 .33250146 -16.730027 -307.465)" gradientUnits="userSpaceOnUse" x1="101.3308" x2="101.3308" y1="51.34185" y2="66.668198"><stop offset="0" stop-color="#cbcbcd"/><stop offset=".66545075" stop-color="#e0e0e2"/><stop offset="1" stop-color="#fff"/></linearGradient><clipPath id="t"><path d="m-.000004 270.83029h29.248487v24.630302h-29.248487z"/></clipPath><g transform="translate(1 7)"><rect fill="url(#g)" filter="url(#h)" height="4.39197" opacity=".577143" rx="2.439995" ry="2.195984" transform="matrix(.125 0 0 .25614775 -.125 -251.09298)" width="169.99997" x="3.000028" y="1032.4822"/><path d="m-46.991242 13.13992h114.000023c2.216 0 4 .8652 4 1.94 0 1.0747-1.78433 1.902-4 1.94-36.945183.6329-74.7030655.7782-114.000023 0-2.215566-.044-4-.8653-4-1.94 0-1.0748 1.784-1.94 4-1.94z" filter="url(#i)" opacity=".554286" transform="matrix(.17315572 0 0 .125 9.204424 12.35751)"/><path d="m1-5c-.5 0-.46290449.3887135-.5.5l-.5 1.5v9c0 .554.446 1 1 1h19c.554 0 1-.446 1-1v-9c0-.554-.446-1-1-1h-12.0957031c-.0842007-.4859507-.178001-1-.4042969-1z" fill="#3b6ca9"/><path d="m5-3h1v.9999999h-1z" fill="#fbc66d"/><path d="m1-5c-.5 0-.46290449.3887135-.5.5l-.5 1.5v9c0 .554.446 1 1 1v-10l.5-1h5.3828125c.013345.068527.023996.094239.037109.1699219.0826732.4792195.4980774.8295107.9843754.8300781h1.0957031 11v10c.554 0 1-.446 1-1v-9c0-.554-.446-1-1-1h-12.0957031c-.0842007-.4859507-.178001-1-.4042969-1z" fill="url(#c)" opacity=".25"/><path d="m2-3h4v.9999999h-4z" fill="#fcf9e9"/><g clip-path="url(#t)" transform="matrix(.64960629 0 0 .64960629 4.000003 -182.93306)"><path d="m9.3814569 6.4002115 77.2233121-.0000003c.76597 0 1.413822.7286187 1.38261 1.63246l.0056 22.3686248-.0056 42.368543c-.000119.90439-.616639 1.632491-1.38261 1.63247l-40.61166-.0011-36.6116521.0011c-.765966.000023-1.38249-.72808-1.38261-1.63247l-.00562-42.368543.00562-22.3686245c.0002273-.90438.616644-1.63246 1.38261-1.63246z" style="opacity:.4;fill:none;stroke:#000;stroke-width:4;stroke-linecap:round;stroke-linejoin:round;stroke-dashoffset:4;filter:url(#k)" transform="matrix(.38484968 0 0 .38484968 -1.536797 265.28794)"/><path d="m2.0715161 267.75147h29.7236409c.294822 0 .532174.28019.532174.62823v24.9133h-30.7879881v-24.9133c0-.34804.2373492-.62823.5321732-.62823z" fill="url(#l)"/><path d="m2.0685125 267.75147c-.2948242 0-.5291684.27734-.5291684.62537v24.91901c0 .34804.2343442.62538.5291684.62538h29.7296505c.294826 0 .529168-.27734.529168-.62538v-24.91901c0-.34803-.234342-.62537-.529168-.62537zm.3607964.93807h29.0080571c.280083 0 .505116.26273.505116.58929v23.66825c0 .32656-.225033.58931-.505116.58931h-29.0080571c-.2800827 0-.5051152-.26275-.5051152-.58931v-23.66825c0-.32656.2250325-.58929.5051152-.58929z" fill="url(#m)"/><g transform="matrix(1.3845916 0 0 .99998322 -11.841249 -1.5344)"><rect fill="url(#n)" height="6.157693" rx="1.078735" ry="1.539399" width="20.012465" x="10.775767" y="275.44809"/><rect fill="url(#o)" height="6.157596" rx="1.040345" ry="1.539399" width="4.618197" x="10.775767" y="275.44818"/><rect fill="url(#q)" height="6.157596" rx=".963569" ry="1.539399" transform="scale(-1 1)" width="4.618195" x="-30.788233" y="275.44818"/></g><rect fill-opacity=".924855" filter="url(#r)" height="12.74204" rx="1.998241" ry="2.747028" transform="matrix(.35105195 0 0 -.31938175 -43.618298 181.34637)" width="47.998806" x="146.29366" y="-344.5433"/><rect fill="url(#s)" height="4.542318" rx="1.022949" ry=".978447" stroke-width="1.310991" transform="scale(1 -1)" width="16.951447" x="7.687686" y="-290.79892"/><g stroke-width=".115906" transform="translate(0 1.539394)"><path d="m13.358016 288.26333q-.445079-.49608-.445079-1.27497 0-.77889.445079-1.27496.449715-.49608 1.177604-.49608.732525 0 1.18224.49608.449715.49144.449715 1.29814 0 .75107-.445079 1.25179-.440442.49607-1.18224.49607-.737162 0-1.18224-.49607zm1.18224-2.45257q-.421898 0-.676891.32453-.254993.31991-.254993.85307 0 .53317.254993.85771.254993.3199.676891.3199.417261 0 .672254-.3199.259629-.3199.259629-.83916 0-.54708-.254993-.87162-.250356-.32453-.67689-.32453z"/><path d="m17.415881 287.52153v1.13124h-.695435v-3.37982h.695435v1.4836l1.321328-1.4836h.820614l-1.349145 1.45578 1.492868 1.92404h-.829886l-1.108061-1.49287z"/></g></g><path clip-path="url(#j)" d="m30.012982 956.41796-26.0129821-.46865.0000002 50.59179 144.9714699-.02v-53.82893c0-2.54081-2.0596-4.59164-4.62097-4.58387l-102.337518.31046c-9.375263 0-5.067235 7.84799-12 8z" fill="#16375b" fill-opacity=".801471" filter="url(#d)" transform="matrix(.14830504 0 0 .14830504 -.59322 -138.2721)"/><path d="m1 5h4.5l1-1h14.5c.554 0 1 .446 1 1v8c0 .554-.446 1-1 1h-20c-.554 0-1-.446-1-1v-7c0-.554.4937484-.7749993 1-1z" fill="url(#a)"/><path d="m0 11h22v1h-22z" fill="#385da4"/><path d="m0 11h22v1h-22z" fill="url(#b)"/><path d="m0 12h22v.5h-22z" fill="#a4c0e8"/><path d="m6.5 4-1 1h-4.5c-.554 0-1 .446-1 1v1c0-.554.49374843-.7749993 1-1h4.5l1-1h14.5c.554 0 1 .446 1 1v-1c0-.554-.451196-.9243029-1-1z" fill="#a4c0e8"/><path d="m1 4c-.5505375 0-.9925198.4410516-.9980469.9902344v8.0195316c.00023.02285.0119482.042.0136719.06445.038109.321065.7510484.923754.984375.925784.0003916.000003.00156 0 .00195 0v-10z" fill="url(#e)" opacity=".594286"/><path d="m21 3v11c.554 0 1-.446 1-1v-9c0-.554-.446-1-1-1z" fill="url(#f)" opacity=".405714"/></g></svg>