<?xml version="1.0" encoding="UTF-8" standalone="no"?>
<!-- Created with Inkscape (http://www.inkscape.org/) -->

<svg
   xmlns:dc="http://purl.org/dc/elements/1.1/"
   xmlns:cc="http://creativecommons.org/ns#"
   xmlns:rdf="http://www.w3.org/1999/02/22-rdf-syntax-ns#"
   xmlns:svg="http://www.w3.org/2000/svg"
   xmlns="http://www.w3.org/2000/svg"
   xmlns:xlink="http://www.w3.org/1999/xlink"
   xmlns:sodipodi="http://sodipodi.sourceforge.net/DTD/sodipodi-0.dtd"
   xmlns:inkscape="http://www.inkscape.org/namespaces/inkscape"
   version="1.1"
   id="svg2"
   width="32"
   height="32"
   viewBox="0 0 32 32"
   sodipodi:docname="transition-tile-flip.svg"
   inkscape:version="0.92.3 (unknown)"
   inkscape:export-filename="/home/rizmut/Dokumen/Rizmut/Github/libreoffice-style-karasa-jaga/build/images_karasa_jaga/sd/cmd/transition-tile-flip.png"
   inkscape:export-xdpi="96"
   inkscape:export-ydpi="96">
  <metadata
     id="metadata8">
    <rdf:RDF>
      <cc:Work
         rdf:about="">
        <dc:format>image/svg+xml</dc:format>
        <dc:type
           rdf:resource="http://purl.org/dc/dcmitype/StillImage" />
        <dc:title></dc:title>
      </cc:Work>
    </rdf:RDF>
  </metadata>
  <defs
     id="defs6">
    <linearGradient
       inkscape:collect="always"
       id="linearGradient1205">
      <stop
         style="stop-color:#ffffff;stop-opacity:1"
         offset="0"
         id="stop1201" />
      <stop
         id="stop1209"
         offset="0.75112468"
         style="stop-color:#e7e7e7;stop-opacity:0.49803922" />
      <stop
         style="stop-color:#ffffff;stop-opacity:0"
         offset="1"
         id="stop1203" />
    </linearGradient>
    <linearGradient
       inkscape:collect="always"
       id="linearGradient2334">
      <stop
         style="stop-color:#e9eaea;stop-opacity:1;"
         offset="0"
         id="stop2330" />
      <stop
         id="stop2338"
         offset="0.5"
         style="stop-color:#ffffff;stop-opacity:1" />
      <stop
         style="stop-color:#fefefe;stop-opacity:1"
         offset="1"
         id="stop2332" />
    </linearGradient>
    <linearGradient
       y2="0"
       x2="28"
       y1="57.5"
       x1="28"
       gradientUnits="userSpaceOnUse"
       id="linearGradient15967">
      <stop
         id="stop15969"
         style="stop-color:white;stop-opacity:1;"
         offset="0" />
      <stop
         id="stop15971"
         style="stop-color:white;stop-opacity:0;"
         offset="1" />
    </linearGradient>
    <linearGradient
       y2="0"
       x2="28"
       y1="57.5"
       x1="28"
       gradientUnits="userSpaceOnUse"
       id="linearGradient3287">
      <stop
         id="stop3289"
         style="stop-color:#FFEA00"
         offset="0" />
      <stop
         id="stop3291"
         style="stop-color:#ffa000;stop-opacity:1;"
         offset="1" />
    </linearGradient>
    <radialGradient
       inkscape:collect="always"
       xlink:href="#XMLID_8_"
       id="radialGradient3726"
       gradientUnits="userSpaceOnUse"
       gradientTransform="matrix(4.3885832,0,0,3.8888885,-340.15832,-521.43169)"
       cx="100.88867"
       cy="155.99673"
       fx="100.88867"
       fy="155.99673"
       r="40" />
    <radialGradient
       id="XMLID_8_"
       cx="102"
       cy="112.3047"
       r="139.55859"
       gradientUnits="userSpaceOnUse">
      <stop
         offset="0"
         style="stop-color:#ffffff;stop-opacity:1;"
         id="stop37" />
      <stop
         offset="0.11366145"
         style="stop-color:#bdbebf;stop-opacity:1;"
         id="stop41" />
      <stop
         offset="0.20296688"
         style="stop-color:#ECECEC"
         id="stop47" />
      <stop
         offset="0.2363"
         style="stop-color:#FAFAFA"
         id="stop49" />
      <stop
         offset="0.38818121"
         style="stop-color:#FFFFFF"
         id="stop51" />
      <stop
         offset="0.5313"
         style="stop-color:#FAFAFA"
         id="stop53" />
      <stop
         offset="0.8449"
         style="stop-color:#EBECEC"
         id="stop55" />
      <stop
         offset="1"
         style="stop-color:#E1E2E3"
         id="stop57" />
    </radialGradient>
    <clipPath
       clipPathUnits="userSpaceOnUse"
       id="clipPath3826">
      <path
         inkscape:connector-curvature="0"
         style="fill:none;fill-opacity:0.75;fill-rule:evenodd;stroke:#000000;stroke-width:1px;stroke-linecap:butt;stroke-linejoin:miter;stroke-opacity:1"
         d="M 39.881057,36 40,80 H 96 V 36 Z"
         id="path3828"
         sodipodi:nodetypes="ccccc" />
    </clipPath>
    <filter
       inkscape:collect="always"
       style="color-interpolation-filters:sRGB"
       id="filter939"
       x="-0.027542715"
       width="1.0550854"
       y="-0.032938699"
       height="1.0658774">
      <feGaussianBlur
         inkscape:collect="always"
         stdDeviation="1.3760599"
         id="feGaussianBlur941" />
    </filter>
    <linearGradient
       inkscape:collect="always"
       xlink:href="#linearGradient2334"
       id="linearGradient2336"
       x1="67.903954"
       y1="31.783545"
       x2="67.903954"
       y2="-32.216457"
       gradientUnits="userSpaceOnUse" />
    <radialGradient
       inkscape:collect="always"
       xlink:href="#linearGradient3287"
       id="radialGradient901"
       cx="-125.21604"
       cy="-19.496462"
       fx="-125.21604"
       fy="-19.496462"
       r="34.560001"
       gradientTransform="matrix(1,0,0,1.7152778,0,13.945385)"
       gradientUnits="userSpaceOnUse" />
    <radialGradient
       inkscape:collect="always"
       xlink:href="#linearGradient3287"
       id="radialGradient1049"
       cx="15.803572"
       cy="27.911764"
       fx="15.803572"
       fy="27.911764"
       r="11.25"
       gradientTransform="matrix(1.2444444,2.7636806e-8,-1.677949e-8,0.75555556,-3.6666662,3.9111107)"
       gradientUnits="userSpaceOnUse" />
    <linearGradient
       inkscape:collect="always"
       xlink:href="#linearGradient15967"
       id="linearGradient3412"
       gradientUnits="userSpaceOnUse"
       x1="56.278961"
       y1="54.089115"
       x2="56.091454"
       y2="106.03355"
       gradientTransform="matrix(0.25,0,0,0.25,-6.06974,-9.5222785)" />
    <filter
       inkscape:collect="always"
       id="filter3176"
       x="-0.053000905"
       width="1.1060019"
       y="-0.14748077"
       height="1.2949615">
      <feGaussianBlur
         inkscape:collect="always"
         stdDeviation="1.4133574"
         id="feGaussianBlur3178" />
    </filter>
    <filter
       inkscape:collect="always"
       style="color-interpolation-filters:sRGB"
       id="filter1197"
       x="-0.048541019"
       width="1.097082"
       y="-0.078541021"
       height="1.157082">
      <feGaussianBlur
         inkscape:collect="always"
         stdDeviation="1.5708204"
         id="feGaussianBlur1199" />
    </filter>
    <radialGradient
       inkscape:collect="always"
       xlink:href="#linearGradient1205"
       id="radialGradient1207"
       cx="67.903953"
       cy="-0.21645778"
       fx="67.903953"
       fy="-0.21645778"
       r="42.602785"
       gradientTransform="matrix(1,0,0,0.65183454,0,-0.07536312)"
       gradientUnits="userSpaceOnUse" />
    <radialGradient
       inkscape:collect="always"
       xlink:href="#linearGradient1205"
       id="radialGradient1242"
       gradientUnits="userSpaceOnUse"
       gradientTransform="matrix(1,0,0,0.65183454,0,-0.07536312)"
       cx="67.903953"
       cy="-0.21645778"
       fx="67.903953"
       fy="-0.21645778"
       r="42.602785" />
  </defs>
  <sodipodi:namedview
     pagecolor="#ffffff"
     bordercolor="#666666"
     borderopacity="1"
     objecttolerance="10"
     gridtolerance="10"
     guidetolerance="10"
     inkscape:pageopacity="0"
     inkscape:pageshadow="2"
     inkscape:window-width="1366"
     inkscape:window-height="706"
     id="namedview4"
     showgrid="true"
     inkscape:snap-page="true"
     inkscape:snap-global="true"
     inkscape:zoom="8"
     inkscape:cx="16.222284"
     inkscape:cy="13.037687"
     inkscape:window-x="0"
     inkscape:window-y="0"
     inkscape:window-maximized="1"
     inkscape:current-layer="g2568"
     inkscape:snap-smooth-nodes="true"
     inkscape:snap-grids="true">
    <inkscape:grid
       type="xygrid"
       id="grid817"
       spacingx="0.5"
       spacingy="0.5"
       empspacing="2" />
  </sodipodi:namedview>
  <g
     id="g915"
     transform="matrix(0.25,0,0,0.25,-0.97598871,16.054114)">
    <g
       id="g2568">
      <ellipse
         ry="24"
         rx="38.832817"
         cy="-0.216456"
         cx="67.903954"
         id="ellipse1211"
         style="opacity:1;fill:url(#radialGradient1207);fill-opacity:1;stroke:none;stroke-width:4;stroke-linecap:square;stroke-linejoin:round;stroke-miterlimit:4;stroke-dasharray:none;stroke-dashoffset:0;stroke-opacity:1;filter:url(#filter1197)" />
      <path
         sodipodi:nodetypes="cccssccccccccc"
         inkscape:connector-curvature="0"
         id="rect3077"
         d="m 91.808594,-48.839841 h -0.002 l -76.810547,0.240235 c -4.577647,0.0022 -8.2824795,3.747105 -8.2832034,8.318359 L 6.6998784,41.59286 c -7.241e-4,4.572585 3.7145276,8.287109 8.2871096,8.287109 0.0013,2e-6 0.0026,2e-6 0.0039,0 L 120.89328,49.616298 c 4.57258,0 8.28711,-3.714526 8.28711,-8.28711 l -0.002,-13.640625 0.013,-47.90536 0.002,-20.328125 c 0,-4.572582 -3.70762,-8.318359 -8.28711,-8.318359 z"
         style="fill:#141414;fill-opacity:1;stroke:none;stroke-width:0.69999999;stroke-linecap:round;stroke-linejoin:round;stroke-miterlimit:4;stroke-dasharray:none;stroke-dashoffset:1.08780003;stroke-opacity:1;filter:url(#filter939)" />
      <path
         sodipodi:nodetypes="sscsscsssscccs"
         inkscape:connector-curvature="0"
         style="fill:#ffffff;fill-opacity:1;stroke:none;stroke-width:0.69999999;stroke-linecap:round;stroke-linejoin:round;stroke-miterlimit:4;stroke-dasharray:none;stroke-dashoffset:1.08780003;stroke-opacity:1"
         d="M 14.625,-48 C 10.95699,-47.987486 8,-45.043031 8,-41.375 L 7.903955,-8.216456 7.987035,41.28036 c 0.00616,3.668025 2.95698,6.634065 6.625,6.625 l 49.29192,-0.121816 57.364325,-0.141515 c 3.66802,-0.009 6.62443,-2.95697 6.625,-6.625 l 0.013,-82.65536 c 5.8e-4,-3.668031 -2.95697,-6.625 -6.625,-6.625 h -9.375 -8 -12.096075 z"
         id="rect2484" />
      <path
         sodipodi:nodetypes="cccssccsssc"
         inkscape:connector-curvature="0"
         id="rect3135"
         d="m 115.69727,-44.224609 -15.58008,0.0078 -85.857424,0.255859 c -1.278069,0.0038 -2.220507,0.943724 -2.220704,2.210938 l -0.01296,83.40536 c -1.97e-4,1.267223 0.944877,2.214022 2.203126,2.210938 L 121.63547,43.602626 c 1.27618,-0.0031 2.21856,-0.943712 2.21875,-2.210938 l 0.013,-83.40536 c 2e-4,-1.267225 -0.94371,-2.210937 -2.21094,-2.210937 z"
         style="fill:url(#radialGradient3726);fill-opacity:1;stroke:none;stroke-width:0.69999999;stroke-linecap:round;stroke-linejoin:round;stroke-miterlimit:4;stroke-dasharray:none;stroke-dashoffset:1.08780003;stroke-opacity:1" />
      <rect
         rx="3.9999988"
         ry="4.0000014"
         y="-36.216457"
         x="15.903955"
         height="72"
         width="104"
         id="rect2326"
         style="opacity:1;fill:#8c8c8c;fill-opacity:1;stroke:none;stroke-width:4;stroke-linecap:square;stroke-linejoin:round;stroke-miterlimit:4;stroke-dasharray:none;stroke-dashoffset:0;stroke-opacity:1" />
      <rect
         style="opacity:1;fill:url(#linearGradient2336);fill-opacity:1;stroke:none;stroke-width:4;stroke-linecap:square;stroke-linejoin:round;stroke-miterlimit:4;stroke-dasharray:none;stroke-dashoffset:0;stroke-opacity:1"
         id="rect2328"
         width="100"
         height="68"
         x="17.903955"
         y="-34.216457"
         ry="4.0000014"
         rx="3.9999988" />
      <path
         style="opacity:1;fill:url(#radialGradient1049);fill-opacity:1;stroke:none;stroke-width:1;stroke-linecap:square;stroke-linejoin:round;stroke-miterlimit:4;stroke-dasharray:none;stroke-dashoffset:0;stroke-opacity:1"
         d="M 4.5 7.5 C 4.2076995 7.5 3.9520564 7.6294541 3.7695312 7.828125 L 5.9140625 7.828125 L 5.921875 7.5 L 4.5 7.5 z M 6.1875 7.5 L 6.1992188 7.9140625 L 10.085938 7.8574219 L 10.091797 7.5 L 6.1875 7.5 z M 10.345703 7.5 L 10.34375 7.8574219 L 14 8 L 14.015625 7.5 L 10.345703 7.5 z M 14.228516 7.5 L 14.199219 7.9707031 L 17.384766 7.8574219 L 17.441406 7.5 L 14.228516 7.5 z M 17.722656 7.5 L 17.642578 7.8574219 L 20.771484 7.5566406 L 20.785156 7.5 L 17.722656 7.5 z M 22.791016 7.5 L 20.970703 7.8574219 L 20.142578 10.785156 L 23 10 L 23.814453 7.5 L 22.791016 7.5 z M 24.099609 7.5 L 23.386719 9.8789062 L 25.873047 8.7207031 L 26.408203 7.5 L 24.099609 7.5 z M 20.714844 7.828125 L 17.599609 8.171875 L 17.115234 11.443359 L 19.884766 10.884766 L 20.714844 7.828125 z M 6.2285156 8.0292969 L 6.2578125 11.685547 L 9.9707031 11.742188 L 10.029297 8.1425781 L 6.2285156 8.0292969 z M 3.6054688 8.0683594 C 3.5420196 8.1999081 3.5 8.3436492 3.5 8.5 L 3.5 11.75 L 5.9433594 11.714844 L 6 8.0859375 L 3.6054688 8.0683594 z M 10.501953 8.1425781 L 10.371094 11.742188 L 13.527344 11.742188 L 13.857422 8.1425781 L 10.501953 8.1425781 z M 17.300781 8.171875 L 14.228516 8.2714844 L 13.871094 11.685547 L 16.800781 11.5 L 17.300781 8.171875 z M 25.730469 9.1777344 L 23.244141 10.234375 L 22.1875 12.677734 L 24.671875 11.378906 L 25.730469 9.1777344 z M 22.828125 10.371094 L 20.142578 11.142578 L 19.34375 13.814453 L 21.828125 12.714844 L 22.828125 10.371094 z M 19.800781 11.199219 L 17.085938 11.742188 L 16.257812 14.927734 L 19 14 L 19.800781 11.199219 z M 16.742188 11.742188 L 13.828125 12.056641 L 12.943359 15.556641 L 16 15 L 16.742188 11.742188 z M 24.501953 11.863281 L 22.044922 13.064453 L 21.158203 15.421875 L 23.472656 14.207031 L 24.501953 11.863281 z M 3.5 12 L 3.5 15.845703 L 5.8847656 15.828125 L 6 12 L 3.5 12 z M 10 12 L 6.3300781 12.056641 L 6.171875 15.914062 L 9.4707031 15.857422 L 10 12 z M 13.5 12.085938 L 10.34375 12.099609 L 9.8144531 15.828125 L 12.771484 15.642578 L 13.5 12.085938 z M 21.685547 13.171875 L 19.199219 14.171875 L 18.314453 16.529297 L 20.742188 15.513672 L 21.685547 13.171875 z M 18.800781 14.314453 L 16.199219 15.171875 L 15.34375 17.814453 L 17.943359 16.65625 L 18.800781 14.314453 z M 23.15625 14.75 L 20.841797 15.892578 L 19.869141 17.994141 L 22.470703 16.693359 L 23.15625 14.75 z M 15.857422 15.285156 L 12.914062 15.857422 L 12.142578 18.84375 L 15 18 L 15.857422 15.285156 z M 12.65625 15.884766 L 9.7714844 16.171875 L 9.1152344 19.357422 L 11.943359 18.857422 L 12.65625 15.884766 z M 20.486328 16 L 18 17 L 17.115234 19.357422 L 19.427734 18.142578 L 20.486328 16 z M 3.5 16.107422 L 3.5 19.917969 L 5.4414062 19.884766 L 5.9433594 16.142578 L 3.5 16.107422 z M 9.4707031 16.171875 L 6.2578125 16.242188 L 5.6992188 19.914062 L 8.8007812 19.5 L 9.4707031 16.171875 z M 22.242188 17.150391 L 19.785156 18.378906 L 18.957031 20.392578 L 21.556641 19.09375 L 22.242188 17.150391 z M 17.685547 17.171875 L 15.199219 18.171875 L 14.314453 20.529297 L 16.742188 19.427734 L 17.685547 17.171875 z M 14.828125 18.371094 L 12.199219 19.171875 L 11.34375 21.814453 L 13.828125 20.65625 L 14.828125 18.371094 z M 19.339844 18.542969 L 17.025391 19.6875 L 16.226562 21.728516 L 18.654297 20.486328 L 19.339844 18.542969 z M 11.857422 19.228516 L 9 19.714844 L 8.2578125 22.728516 L 11 22 L 11.857422 19.228516 z M 16.619141 19.779297 L 14.248047 20.865234 L 13.361328 23.25 L 15.791016 21.951172 L 16.619141 19.779297 z M 8.65625 19.800781 L 5.7421875 20.199219 L 5.1425781 23.529297 L 8 22.771484 L 8.65625 19.800781 z M 5.4433594 20.257812 L 3.5 20.283203 L 3.5 23.5 C 3.5 23.567918 3.5262787 23.627357 3.5390625 23.691406 L 4.8007812 23.5 L 5.4433594 20.257812 z M 13.761719 21.089844 L 11.361328 22.089844 L 10.580078 24.5 L 10.941406 24.5 L 12.933594 23.433594 L 13.761719 21.089844 z M 10.933594 22.292969 L 8.1621094 23.121094 L 7.7460938 24.5 L 10.255859 24.5 L 10.933594 22.292969 z M 7.9433594 23.142578 L 5.0566406 23.857422 L 4.8867188 24.5 L 7.4960938 24.5 L 7.9433594 23.142578 z M 4.7128906 23.828125 L 3.6601562 24.011719 C 3.8354745 24.298981 4.1374671 24.5 4.5 24.5 L 4.5625 24.5 L 4.7128906 23.828125 z "
         transform="matrix(4,0,0,4,3.9039548,-64.216456)"
         id="rect1027" />
      <path
         style="fill:url(#linearGradient3412);fill-opacity:1;stroke:none;stroke-width:0.175;stroke-linecap:round;stroke-linejoin:round;stroke-miterlimit:4;stroke-dasharray:none;stroke-dashoffset:1.08780003;stroke-opacity:1;filter:url(#filter3176)"
         clip-path="none"
         d="M 4.4316406 7.5136719 C 4.173017 7.5319204 3.9537668 7.6525049 3.7910156 7.828125 L 5.9140625 7.828125 L 5.921875 7.5136719 L 4.4316406 7.5136719 z M 6.1875 7.5136719 L 6.1992188 7.9140625 L 10.085938 7.8574219 L 10.091797 7.5136719 L 6.1875 7.5136719 z M 10.345703 7.5136719 L 10.34375 7.8574219 L 14 8 L 14.013672 7.5136719 L 10.345703 7.5136719 z M 14.228516 7.5136719 L 14.199219 7.9707031 L 17.384766 7.8574219 L 17.439453 7.5136719 L 14.228516 7.5136719 z M 17.720703 7.5136719 L 17.642578 7.8574219 L 20.771484 7.5566406 L 20.78125 7.5136719 L 17.720703 7.5136719 z M 22.720703 7.5136719 L 20.970703 7.8574219 L 20.142578 10.785156 L 23 10 L 23.810547 7.5136719 L 22.720703 7.5136719 z M 24.095703 7.5136719 L 23.386719 9.8789062 L 25.873047 8.7207031 L 26.400391 7.5136719 L 24.095703 7.5136719 z M 20.714844 7.828125 L 17.599609 8.171875 L 17.115234 11.443359 L 19.884766 10.884766 L 20.714844 7.828125 z M 6.2285156 8.0292969 L 6.2578125 11.685547 L 9.9707031 11.742188 L 10.029297 8.1425781 L 6.2285156 8.0292969 z M 3.625 8.0683594 C 3.5880783 8.1450376 3.5542063 8.2238468 3.5371094 8.3105469 L 3.7011719 11.748047 L 5.9433594 11.714844 L 6 8.0859375 L 3.625 8.0683594 z M 10.501953 8.1425781 L 10.371094 11.742188 L 13.527344 11.742188 L 13.857422 8.1425781 L 10.501953 8.1425781 z M 17.300781 8.171875 L 14.228516 8.2714844 L 13.871094 11.685547 L 16.800781 11.5 L 17.300781 8.171875 z M 25.730469 9.1777344 L 23.244141 10.234375 L 22.1875 12.677734 L 24.671875 11.378906 L 25.730469 9.1777344 z M 22.828125 10.371094 L 20.142578 11.142578 L 19.34375 13.814453 L 21.828125 12.714844 L 22.828125 10.371094 z M 19.800781 11.199219 L 17.085938 11.742188 L 16.257812 14.927734 L 19 14 L 19.800781 11.199219 z M 16.742188 11.742188 L 13.828125 12.056641 L 12.943359 15.556641 L 16 15 L 16.742188 11.742188 z M 24.501953 11.863281 L 22.044922 13.064453 L 21.158203 15.421875 L 23.472656 14.207031 L 24.501953 11.863281 z M 3.7128906 12 L 3.8964844 15.84375 L 5.8847656 15.828125 L 6 12 L 3.7128906 12 z M 10 12 L 6.3300781 12.056641 L 6.171875 15.914062 L 9.4707031 15.857422 L 10 12 z M 13.5 12.085938 L 10.34375 12.099609 L 9.8144531 15.828125 L 12.771484 15.642578 L 13.5 12.085938 z M 21.685547 13.171875 L 19.199219 14.171875 L 18.314453 16.529297 L 20.742188 15.513672 L 21.685547 13.171875 z M 18.800781 14.314453 L 16.199219 15.171875 L 15.34375 17.814453 L 17.943359 16.65625 L 18.800781 14.314453 z M 23.15625 14.75 L 20.841797 15.892578 L 19.869141 17.994141 L 22.470703 16.693359 L 23.15625 14.75 z M 15.857422 15.285156 L 12.914062 15.857422 L 12.142578 18.84375 L 15 18 L 15.857422 15.285156 z M 12.65625 15.884766 L 9.7714844 16.171875 L 9.2441406 18.730469 C 9.8963852 18.836787 10.517647 18.927195 11.074219 19.011719 L 11.943359 18.857422 L 12.65625 15.884766 z M 20.486328 16 L 18 17 L 17.185547 19.167969 C 17.308119 19.154512 17.423519 19.144309 17.550781 19.128906 L 19.427734 18.142578 L 20.486328 16 z M 3.9101562 16.113281 L 4 18 C 4.6441804 18.071071 5.1100192 18.142634 5.6660156 18.214844 L 5.9433594 16.142578 L 3.9101562 16.113281 z M 9.4707031 16.171875 L 6.2578125 16.242188 L 5.9511719 18.251953 C 7.0934858 18.403964 8.1079535 18.546841 8.9648438 18.685547 L 9.4707031 16.171875 z M 22.242188 17.150391 L 19.785156 18.378906 L 19.601562 18.828125 C 20.24001 18.722416 21.036503 18.563873 21.794922 18.417969 L 22.242188 17.150391 z M 17.685547 17.171875 L 15.199219 18.171875 L 14.767578 19.322266 C 15.395013 19.317288 16.07525 19.279914 16.835938 19.205078 L 17.685547 17.171875 z M 14.828125 18.371094 L 12.199219 19.171875 L 12.197266 19.177734 C 12.927334 19.266255 13.642683 19.315834 14.410156 19.324219 L 14.828125 18.371094 z M 19.339844 18.542969 L 18.382812 19.015625 C 18.655602 18.976894 18.92131 18.941627 19.216797 18.894531 L 19.339844 18.542969 z "
         transform="matrix(4,0,0,4,3.9039548,-64.216456)"
         id="path3180" />
    </g>
  </g>
</svg>
