<?xml version="1.0" encoding="UTF-8" standalone="no"?>
<svg
   xmlns:dc="http://purl.org/dc/elements/1.1/"
   xmlns:cc="http://creativecommons.org/ns#"
   xmlns:rdf="http://www.w3.org/1999/02/22-rdf-syntax-ns#"
   xmlns:svg="http://www.w3.org/2000/svg"
   xmlns="http://www.w3.org/2000/svg"
   xmlns:sodipodi="http://sodipodi.sourceforge.net/DTD/sodipodi-0.dtd"
   xmlns:inkscape="http://www.inkscape.org/namespaces/inkscape"
   enable-background="new 0 0 128 128"
   height="128"
   viewBox="0 0 128 128"
   width="128"
   version="1.1"
   id="svg80"
   sodipodi:docname="report_16.svg"
   inkscape:version="0.92.3 (unknown)">
  <metadata
     id="metadata86">
    <rdf:RDF>
      <cc:Work
         rdf:about="">
        <dc:format>image/svg+xml</dc:format>
        <dc:type
           rdf:resource="http://purl.org/dc/dcmitype/StillImage" />
      </cc:Work>
    </rdf:RDF>
  </metadata>
  <defs
     id="defs84" />
  <sodipodi:namedview
     pagecolor="#ffffff"
     bordercolor="#666666"
     borderopacity="1"
     objecttolerance="10"
     gridtolerance="10"
     guidetolerance="10"
     inkscape:pageopacity="0"
     inkscape:pageshadow="2"
     inkscape:window-width="1366"
     inkscape:window-height="699"
     id="namedview82"
     showgrid="false"
     inkscape:zoom="1.84375"
     inkscape:cx="-11.661017"
     inkscape:cy="64"
     inkscape:window-x="0"
     inkscape:window-y="0"
     inkscape:window-maximized="1"
     inkscape:current-layer="svg80" />
  <radialGradient
     id="a"
     cx="102"
     cy="112.3047"
     gradientTransform="matrix(.9787234 0 0 .9818182 1.361705 1.163636)"
     gradientUnits="userSpaceOnUse"
     r="139.55859">
    <stop
       offset="0"
       stop-color="#ececec"
       id="stop2" />
    <stop
       offset=".2363"
       stop-color="#fafafa"
       id="stop4" />
    <stop
       offset=".2722"
       stop-color="#fff"
       id="stop6" />
    <stop
       offset=".5313"
       stop-color="#fafafa"
       id="stop8" />
    <stop
       offset=".8449"
       stop-color="#ebecec"
       id="stop10" />
    <stop
       offset="1"
       stop-color="#e1e2e3"
       id="stop12" />
  </radialGradient>
  <radialGradient
     id="b"
     cx="102.000002"
     cy="112.3047"
     gradientUnits="userSpaceOnUse"
     r="139.5585">
    <stop
       offset="0"
       stop-color="#ecf2f5"
       id="stop15" />
    <stop
       offset=".2435"
       stop-color="#fafcfd"
       id="stop17" />
    <stop
       offset=".2722"
       stop-color="#fff"
       id="stop19" />
  </radialGradient>
  <filter
     id="c">
    <feGaussianBlur
       stdDeviation="1.0394514"
       id="feGaussianBlur22" />
  </filter>
  <filter
     id="d">
    <feGaussianBlur
       stdDeviation=".50063244"
       id="feGaussianBlur25" />
  </filter>
  <g
     id="g919">
    <path
       id="path28"
       stroke-width="1.038686"
       opacity=".715069"
       filter="url(#c)"
       d="m14 6 .021484 58-.021484 58h.042969 63.677734 36.279297v-36.072266-43.855468-36.072266h-36.279297-63.677734z" />
    <path
       id="path30"
       stroke-width="1.038686"
       opacity=".835616"
       filter="url(#c)"
       d="m14 7 .021484 57.5-.021484 57.5h.042969 63.677734 36.279297v-36.072266-42.855468-36.072266h-36.279297-63.677734z" />
    <path
       id="path32"
       transform="matrix(1.0416667 0 0 1.0357143 -9.958333 -3.321534)"
       opacity=".89589"
       filter="url(#d)"
       d="m24.919999 10.931136v108.137934l58.676001-.0001c.53 0 1.039-.211 1.414-.586l31.484-31.765936c.375-.375.586-.884.586-1.414v-74.371898z" />
    <path
       id="path34"
       fill="url(#b)"
       d="m16 8v112h61.171875 34.828125v-34.828125-42.34375-34.828125h-34.828125z" />
    <path
       id="path36"
       fill="url(#a)"
       d="m24.679688 16c-.539277 0-.980469.44144-.980469.982422l.15039 47.017578-.15039 47.01758c0 .54098.441192.98242.980469.98242h.298828 51.914062 26.128902c.54025 0 .97852-.44144.97852-.98242v-26.230471-41.574218-26.230469c0-.540982-.43827-.982422-.97852-.982422h-26.128902-51.914062z" />
    <path
       id="path38"
       opacity=".367257"
       fill-rule="evenodd"
       fill-opacity=".508571"
       fill="#4c9ac3"
       d="m40 96h48v8h-48z" />
    <path
       id="path40"
       opacity=".367257"
       fill-rule="evenodd"
       fill-opacity=".508571"
       fill="#4c9ac3"
       d="m40 80h48v8h-48z" />
    <g
       id="g56"
       fill="#2d2d2d">
      <path
         id="path42"
         opacity=".380531"
         d="m24 15.999997h8v8h-8z" />
      <path
         id="path44"
         opacity=".380531"
         d="m24 31.999998h8v8h-8z" />
      <path
         id="path46"
         opacity=".380531"
         d="m24 47.999996h8v8h-8z" />
      <path
         id="path48"
         opacity=".380531"
         d="m24 63.999996h8v8h-8z" />
      <path
         id="path50"
         opacity=".380531"
         d="m24 80h8v8h-8z" />
      <path
         id="path52"
         opacity=".380531"
         d="m24 96h8v8h-8z" />
      <path
         id="path54"
         opacity=".380531"
         fill-opacity=".331551"
         d="m24 112h8v8h-8z" />
    </g>
    <path
       id="path58"
       opacity=".367257"
       fill-rule="evenodd"
       fill-opacity=".508571"
       fill="#4c9ac3"
       d="m40 15.999997h48v8h-48z" />
    <path
       id="path60"
       opacity=".367257"
       fill-rule="evenodd"
       fill-opacity=".508571"
       fill="#4c9ac3"
       d="m40 31.999998h48v8h-48z" />
    <path
       id="path62"
       opacity=".367257"
       fill-rule="evenodd"
       fill-opacity=".508571"
       fill="#4c9ac3"
       d="m40 47.999996h48v8h-48z" />
    <path
       id="path64"
       opacity=".367257"
       fill-rule="evenodd"
       fill-opacity=".508571"
       fill="#4c9ac3"
       d="m40 63.999996h48v8h-48z" />
    <path
       id="path66"
       opacity=".380531"
       fill="#2d2d2d"
       d="m96 16h8v8h-8z" />
    <path
       id="path68"
       opacity=".380531"
       fill="#2d2d2d"
       d="m96 32h8v8h-8z" />
    <path
       id="path70"
       opacity=".380531"
       fill="#2d2d2d"
       d="m96 48h8v8h-8z" />
    <path
       id="path72"
       opacity=".380531"
       fill="#2d2d2d"
       d="m96 64h8v8h-8z" />
    <path
       id="path74"
       opacity=".380531"
       fill="#2d2d2d"
       d="m96 80h8v8h-8z" />
    <path
       id="path76"
       opacity=".380531"
       fill="#2d2d2d"
       d="m96 96h8v8h-8z" />
    <path
       id="path78"
       opacity=".380531"
       fill-opacity=".331551"
       fill="#2d2d2d"
       d="m96 112h8v8h-8z" />
  </g>
</svg>
