<?xml version="1.0" encoding="UTF-8" standalone="no"?>
<svg
   xmlns:dc="http://purl.org/dc/elements/1.1/"
   xmlns:cc="http://creativecommons.org/ns#"
   xmlns:rdf="http://www.w3.org/1999/02/22-rdf-syntax-ns#"
   xmlns:svg="http://www.w3.org/2000/svg"
   xmlns="http://www.w3.org/2000/svg"
   xmlns:xlink="http://www.w3.org/1999/xlink"
   xmlns:sodipodi="http://sodipodi.sourceforge.net/DTD/sodipodi-0.dtd"
   xmlns:inkscape="http://www.inkscape.org/namespaces/inkscape"
   height="128"
   viewBox="0 0 33.866666 33.866668"
   width="128"
   version="1.1"
   id="svg20"
   sodipodi:docname="bold.svg"
   inkscape:version="0.92.3 (unknown)"
   inkscape:export-filename="/home/rizmut/Dokumen/Rizmut/Github/libreoffice-style-karasa-jaga/build/images_karasa_jaga/cmd/32/de/bold.png"
   inkscape:export-xdpi="24"
   inkscape:export-ydpi="24">
  <metadata
     id="metadata26">
    <rdf:RDF>
      <cc:Work
         rdf:about="">
        <dc:format>image/svg+xml</dc:format>
        <dc:type
           rdf:resource="http://purl.org/dc/dcmitype/StillImage" />
        <dc:title></dc:title>
      </cc:Work>
    </rdf:RDF>
  </metadata>
  <defs
     id="defs24">
    <linearGradient
       inkscape:collect="always"
       xlink:href="#b"
       id="linearGradient4033"
       x1="22.521484"
       y1="49.189453"
       x2="93.263672"
       y2="49.189453"
       gradientUnits="userSpaceOnUse"
       gradientTransform="matrix(0.26458334,0,0,0.26458334,2.1854583,0.33337446)" />
  </defs>
  <sodipodi:namedview
     pagecolor="#ffffff"
     bordercolor="#666666"
     borderopacity="1"
     objecttolerance="10"
     gridtolerance="10"
     guidetolerance="10"
     inkscape:pageopacity="0"
     inkscape:pageshadow="2"
     inkscape:window-width="1366"
     inkscape:window-height="706"
     id="namedview22"
     showgrid="false"
     inkscape:zoom="3.6875001"
     inkscape:cx="-4.7664733"
     inkscape:cy="78.018586"
     inkscape:window-x="0"
     inkscape:window-y="0"
     inkscape:window-maximized="1"
     inkscape:current-layer="svg20" />
  <linearGradient
     id="a"
     gradientUnits="userSpaceOnUse"
     x1="18.708686"
     x2="19.767019"
     y1="292.76666"
     y2="268.42499"
     gradientTransform="translate(-0.72231268,-263.09627)">
    <stop
       offset="0"
       stop-color="#555"
       id="stop2" />
    <stop
       offset="1"
       id="stop4" />
  </linearGradient>
  <linearGradient
     id="b"
     gradientUnits="userSpaceOnUse"
     x1="44.923828"
     x2="44.566963"
     y1="7.581612"
     y2="97.581612"
     gradientTransform="scale(0.26458333)">
    <stop
       offset="0"
       stop-color="#3b3e22"
       id="stop7" />
    <stop
       offset="1"
       stop-color="#454545"
       stop-opacity="0"
       id="stop9" />
  </linearGradient>
  <text
     id="text14"
     y="29.453417"
     x="5.6911874"
     style="font-size:35.19966888px;font-family:sans-serif;letter-spacing:0;word-spacing:0;fill:url(#a);stroke-width:0.87999201">
    <tspan
       style="font-weight:bold;font-size:37.04166794px;font-family:FreeSerif;fill:url(#a);stroke-width:0.87999201"
       id="tspan12"
       y="29.453417"
       x="5.6911874"
       font-weight="bold"
       font-size="37.041668">F</tspan>
  </text>
  <path
     style="opacity:1;fill:url(#linearGradient4033);fill-opacity:1;stroke:none;stroke-width:0.30000001;stroke-linecap:round;stroke-linejoin:round;stroke-miterlimit:4;stroke-dasharray:none;stroke-dashoffset:0;stroke-opacity:1"
     d="M 8.1442678,4.9878709 C 8.643645,5.110573 9.0573817,5.2893559 9.3845022,5.5599289 10.028197,6.0659803 10.265586,6.9231226 10.265585,7.9701178 V 21.708297 a 26.045763,12.843503 0 0 0 4.853451,-0.271818 v -4.169255 a 0.57477804,0.57477804 0 0 1 0.589628,-0.574641 c 1.981448,0.05147 3.496123,0.496303 4.464844,1.465027 0.530715,0.530714 0.903779,1.298652 1.18184,2.231388 a 26.045763,12.843503 0 0 0 0.355534,-0.0801 V 11.42727 c -0.358765,1.692755 -0.848068,3.037081 -1.648478,3.837492 a 0.57477804,0.57477804 0 0 1 -0.0057,0.0062 c -0.951261,0.921533 -2.43226,1.310514 -4.363558,1.310514 a 0.57477804,0.57477804 0 0 1 -0.57411,-0.574123 V 7.4135628 c 1e-6,-0.7740934 0.179117,-1.448752 0.720886,-1.8319296 0.534617,-0.403643 1.242326,-0.4826579 2.222604,-0.4826579 1.035963,0 1.965982,0.061964 2.793111,0.1912027 0.804172,0.125652 1.489944,0.2773693 2.070158,0.4609537 0.617613,0.1697966 1.179575,0.4709842 1.659847,0.8929687 0.429041,0.3538514 0.767566,0.662739 1.018026,0.941028 0.311768,0.3464094 0.533149,0.8098528 0.74414,1.4164511 0.199152,0.5481543 0.338776,0.9788991 0.42168,1.3105145 0.02183,0.08034 0.06572,0.280161 0.09198,0.386539 V 4.9878709 Z"
     id="path4018"
     inkscape:connector-curvature="0" />
</svg>
