<?xml version="1.0" encoding="UTF-8" standalone="no"?>
<svg
   xmlns:dc="http://purl.org/dc/elements/1.1/"
   xmlns:cc="http://creativecommons.org/ns#"
   xmlns:rdf="http://www.w3.org/1999/02/22-rdf-syntax-ns#"
   xmlns:svg="http://www.w3.org/2000/svg"
   xmlns="http://www.w3.org/2000/svg"
   xmlns:xlink="http://www.w3.org/1999/xlink"
   xmlns:sodipodi="http://sodipodi.sourceforge.net/DTD/sodipodi-0.dtd"
   xmlns:inkscape="http://www.inkscape.org/namespaces/inkscape"
   height="128"
   viewBox="0 0 33.866666 33.866668"
   width="128"
   version="1.1"
   id="svg20"
   sodipodi:docname="lc_bold.svg"
   inkscape:version="0.92.4 (unknown)"
   inkscape:export-filename="/home/rizmut/Dokumen/Rizmut/Github/libreoffice-style-karasa-jaga/build/images_karasa_jaga/cmd/ru/lc_bold.png"
   inkscape:export-xdpi="16.5"
   inkscape:export-ydpi="16.5">
  <metadata
     id="metadata26">
    <rdf:RDF>
      <cc:Work
         rdf:about="">
        <dc:format>image/svg+xml</dc:format>
        <dc:type
           rdf:resource="http://purl.org/dc/dcmitype/StillImage" />
        <dc:title></dc:title>
      </cc:Work>
    </rdf:RDF>
  </metadata>
  <defs
     id="defs24">
    <linearGradient
       inkscape:collect="always"
       xlink:href="#a"
       id="linearGradient22"
       gradientUnits="userSpaceOnUse"
       gradientTransform="matrix(1.0085453,0,0,1.0085453,-5.2883039,-270.51672)"
       x1="18.99608880061"
       y1="294.82258903077"
       x2="20.50679"
       y2="274.33044" />
    <linearGradient
       inkscape:collect="always"
       xlink:href="#b"
       id="linearGradient847"
       x1="75.6353"
       y1="11.638"
       x2="63.9991"
       y2="75.6371"
       gradientUnits="userSpaceOnUse" />
  </defs>
  <sodipodi:namedview
     pagecolor="#ffffff"
     bordercolor="#666666"
     borderopacity="1"
     objecttolerance="10"
     gridtolerance="10"
     guidetolerance="10"
     inkscape:pageopacity="0"
     inkscape:pageshadow="2"
     inkscape:window-width="1366"
     inkscape:window-height="706"
     id="namedview22"
     showgrid="true"
     inkscape:zoom="0.92187498"
     inkscape:cx="67.760445"
     inkscape:cy="-4.3366994"
     inkscape:window-x="0"
     inkscape:window-y="0"
     inkscape:window-maximized="1"
     inkscape:current-layer="svg20">
    <inkscape:grid
       type="xygrid"
       id="grid16"
       spacingx="0.76968615"
       spacingy="0.76968615" />
  </sodipodi:namedview>
  <linearGradient
     id="a"
     gradientUnits="userSpaceOnUse"
     x1="18.99608880061"
     x2="20.22575014415"
     y1="294.82258903077"
     y2="266.54036534865"
     gradientTransform="matrix(0.82,0,0,0.82,0.27763305,-213.00366)">
    <stop
       offset="0"
       stop-color="#555"
       id="stop2" />
    <stop
       offset="1"
       id="stop4" />
  </linearGradient>
  <linearGradient
     id="b"
     gradientUnits="userSpaceOnUse"
     x1="53.856667"
     x2="72.864624"
     y1="1.845663"
     y2="61.042988"
     gradientTransform="matrix(0.21695833,0,0,0.21695833,3.048,3.0518754)">
    <stop
       offset="0"
       stop-color="#3b3e22"
       id="stop7" />
    <stop
       offset="1"
       stop-color="#454545"
       stop-opacity="0"
       id="stop9" />
  </linearGradient>
  <text
     style="font-size:41.24745941px;font-family:sans-serif;letter-spacing:0;word-spacing:0;fill:url(#linearGradient22);stroke-width:1.03118622"
     x="-0.53755796"
     y="26.571007"
     id="text20">
    <tspan
       font-size="43.038166"
       font-weight="bold"
       x="-0.53755796"
       y="26.571007"
       id="tspan18"
       style="font-weight:bold;font-size:43.40594101px;font-family:FreeSerif;fill:url(#linearGradient22);stroke-width:1.03118622">ж</tspan>
  </text>
  <path
     style="font-size:41.24745941px;font-family:sans-serif;letter-spacing:0;word-spacing:0;fill:url(#linearGradient847);stroke-width:3.8973968;fill-opacity:1"
     d="M 16.505859 26.005859 C 13.616937 26.005859 11.644405 26.839212 9.9589844 28.589844 C 8.2922702 30.439681 7.5449219 32.357185 7.5449219 34.804688 C 7.5449219 38.023951 8.3380975 39.808872 9.6992188 40.955078 C 11.38586 42.375406 12.952216 42.947266 14.705078 42.947266 C 17.418939 42.947266 18.582354 42.206633 19.650391 39.90625 A 2.6854929 2.6854929 0 0 1 19.6875 39.832031 C 19.745554 39.715924 20.028408 38.996454 20.337891 37.964844 A 2.6854929 2.6854929 0 0 1 20.410156 37.744141 C 20.906294 36.503749 21.417372 35.487561 22.123047 34.605469 C 22.902212 33.631512 24.258225 32.775391 25.697266 32.775391 C 27.259452 32.775391 28.787837 33.602122 29.763672 34.708984 C 30.739507 35.815847 31.352432 37.156037 31.859375 38.740234 L 31.824219 38.615234 C 32.809593 41.242898 34.060242 44.632906 35.587891 48.779297 C 36.748036 51.845397 38.386192 53.873112 40.105469 55.71875 C 37.811201 52.529475 35.872885 47.884295 33.787109 40.835938 L 33.779297 40.814453 C 32.18954 35.595681 29.923251 31.919164 27.121094 29.556641 C 24.31447 27.190351 20.920156 26.005859 16.505859 26.005859 z M 111.32617 26.005859 C 106.97226 26.005859 103.62407 27.184147 100.84375 29.548828 C 98.063428 31.913509 95.806263 35.59966 94.214844 40.835938 A 2.6854929 2.6854929 0 0 1 94.193359 40.902344 C 94.135079 41.077222 94.042762 41.424873 93.949219 41.892578 A 2.6854929 2.6854929 0 0 1 93.882812 42.158203 C 93.000365 45.026158 92.16724 47.568759 91.386719 49.798828 A 2.6854929 2.6854929 0 0 1 91.373047 49.841797 C 90.470088 52.292692 88.973227 54.676128 86.966797 57.039062 C 84.84421 59.559629 81.950831 61.115234 78.845703 61.115234 L 75.398438 61.115234 A 2.6854929 2.6854929 0 0 1 72.710938 58.427734 L 72.710938 38.578125 C 72.710938 34.54489 72.786861 31.80499 74.615234 29.519531 A 2.6854929 2.6854929 0 0 1 74.71875 29.402344 C 75.558735 28.469029 76.633724 27.946259 77.791016 27.482422 L 49.695312 27.482422 C 50.846387 28.092709 51.915158 28.828435 52.728516 29.845703 C 54.54888 32.122439 55.283203 35.132985 55.283203 38.578125 L 55.283203 58.427734 A 2.6854929 2.6854929 0 0 1 52.595703 61.115234 L 49.15625 61.115234 C 46.179931 61.115234 43.417033 59.725903 41.316406 57.462891 A 2.6854929 2.6854929 0 0 1 41.996094 59.246094 L 41.996094 59.904297 A 2.6854929 2.6854929 0 0 1 39.884766 62.525391 C 34.256112 63.753461 30.15617 65.936019 27.320312 68.960938 A 2.6854929 2.6854929 0 0 1 27.291016 68.990234 C 26.421689 69.888539 25.571783 70.897582 24.738281 71.992188 A 75.635303 34.9086 0 0 0 37.103516 74.228516 L 38.673828 70.769531 A 2.6854929 2.6854929 0 0 1 38.880859 70.386719 L 40.1875 68.421875 C 40.831377 67.456066 41.310159 66.633589 41.175781 66.902344 A 2.6854929 2.6854929 0 0 1 41.685547 66.201172 L 42.748047 65.146484 C 43.332809 64.44304 43.834808 63.840193 45.037109 63.380859 C 45.56715 63.102044 46.105454 62.860916 46.667969 62.738281 C 47.536591 62.4671 48.429815 62.302734 49.318359 62.302734 L 52.595703 62.302734 A 2.6854929 2.6854929 0 0 1 55.283203 64.990234 L 55.283203 75.570312 A 75.635303 34.9086 0 0 0 58.181641 75.636719 A 75.635303 34.9086 0 0 0 72.710938 74.955078 L 72.710938 64.990234 A 2.6854929 2.6854929 0 0 1 75.398438 62.302734 L 78.683594 62.302734 C 79.38402 62.302734 80.069999 62.374955 80.75 62.539062 C 81.481618 62.691037 82.190067 62.923155 82.839844 63.248047 C 83.374269 63.515259 83.853448 63.845319 84.324219 64.273438 C 84.90746 64.706269 85.389902 65.179273 85.865234 65.773438 C 86.173606 66.158915 86.363178 66.60501 86.597656 67.005859 C 87.057916 67.486472 87.392433 67.934957 87.925781 68.681641 C 88.482286 69.460752 88.870462 70.010765 89.121094 70.386719 A 2.6854929 2.6854929 0 0 1 89.328125 70.769531 L 90.042969 72.345703 A 75.635303 34.9086 0 0 0 100.86328 69.503906 C 100.2401 68.91987 99.564413 68.333172 98.828125 67.744141 A 2.6854929 2.6854929 0 0 1 98.748047 67.683594 C 95.938853 65.261907 92.439132 63.529494 88.087891 62.517578 A 2.6854929 2.6854929 0 0 1 86.005859 59.904297 L 86.005859 59.246094 A 2.6854929 2.6854929 0 0 1 86.921875 57.224609 C 89.152314 55.272975 91.002602 52.509588 92.414062 48.779297 C 93.94171 44.632902 95.192362 41.242894 96.177734 38.615234 L 96.171875 38.652344 C 96.739239 37.076344 97.403404 35.748423 98.400391 34.666016 C 99.397377 33.583608 100.90657 32.775391 102.46875 32.775391 C 103.86915 32.775391 105.29376 33.762546 105.98828 34.841797 C 106.68047 35.777995 107.12477 36.797927 107.47461 38.029297 C 107.79836 38.84313 107.99637 39.365328 108.15234 39.802734 C 109.42175 42.148173 110.73647 42.947266 113.29688 42.947266 C 115.04974 42.947266 116.60589 42.377424 118.29492 40.955078 C 119.65844 39.806854 120.45703 38.022352 120.45703 34.806641 C 120.45703 32.385895 119.69534 30.485381 117.91797 28.619141 C 116.22398 26.840459 114.23747 26.005859 111.32617 26.005859 z M 107.47461 38.029297 C 107.45216 37.972853 107.45167 37.96609 107.42773 37.90625 L 107.52539 38.193359 C 107.50977 38.136076 107.49062 38.085654 107.47461 38.029297 z M 42.748047 65.146484 C 42.721271 65.178695 42.695169 65.207594 42.667969 65.240234 L 42.837891 65.056641 L 42.748047 65.146484 z M 41.316406 57.462891 A 2.6854929 2.6854929 0 0 0 41.179688 57.320312 C 41.224019 57.369541 41.271457 57.414466 41.316406 57.462891 z M 41.179688 57.320312 C 41.14063 57.27694 41.097165 57.239302 41.058594 57.195312 C 41.066909 57.202494 41.071763 57.217428 41.080078 57.224609 A 2.6854929 2.6854929 0 0 1 41.179688 57.320312 z "
     transform="scale(0.26458334)"
     id="text26" />
</svg>
