<?xml version="1.0" encoding="UTF-8" standalone="no"?>
<svg
   xmlns:dc="http://purl.org/dc/elements/1.1/"
   xmlns:cc="http://creativecommons.org/ns#"
   xmlns:rdf="http://www.w3.org/1999/02/22-rdf-syntax-ns#"
   xmlns:svg="http://www.w3.org/2000/svg"
   xmlns="http://www.w3.org/2000/svg"
   xmlns:xlink="http://www.w3.org/1999/xlink"
   xmlns:sodipodi="http://sodipodi.sourceforge.net/DTD/sodipodi-0.dtd"
   xmlns:inkscape="http://www.inkscape.org/namespaces/inkscape"
   height="128"
   viewBox="0 0 33.866666 33.866668"
   width="128"
   version="1.1"
   id="svg20"
   sodipodi:docname="lc_underline.svg"
   inkscape:version="0.92.4 (unknown)"
   inkscape:export-filename="/home/rizmut/Dokumen/Rizmut/Github/libreoffice-style-karasa-jaga/build/images_karasa_jaga/cmd/ru/lc_underline.png"
   inkscape:export-xdpi="16.5"
   inkscape:export-ydpi="16.5">
  <metadata
     id="metadata26">
    <rdf:RDF>
      <cc:Work
         rdf:about="">
        <dc:format>image/svg+xml</dc:format>
        <dc:type
           rdf:resource="http://purl.org/dc/dcmitype/StillImage" />
        <dc:title></dc:title>
      </cc:Work>
    </rdf:RDF>
  </metadata>
  <defs
     id="defs24">
    <linearGradient
       inkscape:collect="always"
       xlink:href="#a"
       id="linearGradient23"
       gradientUnits="userSpaceOnUse"
       gradientTransform="matrix(1.203077,0,0,1.203077,-2.632215,-326.19925)"
       x1="18.99608880061"
       y1="294.82258903077"
       x2="19.304316"
       y2="276.49432" />
    <linearGradient
       inkscape:collect="always"
       xlink:href="#b"
       id="linearGradient845"
       x1="69.8172"
       y1="5.8199005"
       x2="69.8172"
       y2="58.1828"
       gradientUnits="userSpaceOnUse" />
  </defs>
  <sodipodi:namedview
     pagecolor="#ffffff"
     bordercolor="#666666"
     borderopacity="1"
     objecttolerance="10"
     gridtolerance="10"
     guidetolerance="10"
     inkscape:pageopacity="0"
     inkscape:pageshadow="2"
     inkscape:window-width="1366"
     inkscape:window-height="706"
     id="namedview22"
     showgrid="true"
     inkscape:zoom="1.3037281"
     inkscape:cx="105.20527"
     inkscape:cy="-36.605807"
     inkscape:window-x="0"
     inkscape:window-y="0"
     inkscape:window-maximized="1"
     inkscape:current-layer="svg20">
    <inkscape:grid
       type="xygrid"
       id="grid17"
       spacingx="0.76968615"
       spacingy="0.76968615" />
  </sodipodi:namedview>
  <linearGradient
     id="a"
     gradientUnits="userSpaceOnUse"
     x1="18.99608880061"
     x2="20.22575014415"
     y1="294.82258903077"
     y2="266.54036534865"
     gradientTransform="matrix(0.7835169,0,0,0.7835169,2.9123897,-203.09999)">
    <stop
       offset="0"
       stop-color="#555"
       id="stop2" />
    <stop
       offset="1"
       id="stop4" />
  </linearGradient>
  <linearGradient
     id="b"
     gradientUnits="userSpaceOnUse"
     x1="53.856667"
     x2="72.864624"
     y1="1.845663"
     y2="61.042988"
     gradientTransform="matrix(0.21695833,0,0,0.21695833,3.048,3.0518754)">
    <stop
       offset="0"
       stop-color="#3b3e22"
       id="stop7" />
    <stop
       offset="1"
       stop-color="#454545"
       stop-opacity="0"
       id="stop9" />
  </linearGradient>
  <text
     transform="scale(1.0465633,0.95550838)"
     style="font-size:49.20341492px;font-family:sans-serif;letter-spacing:0;word-spacing:0;fill:url(#linearGradient23);stroke-width:1.2300849"
     x="3.0348721"
     y="28.191761"
     id="text21">
    <tspan
       font-size="43.038166"
       font-weight="bold"
       x="3.0348721"
       y="28.191761"
       id="tspan19"
       style="font-style:normal;font-variant:normal;font-weight:normal;font-stretch:normal;font-size:51.77822495px;font-family:FreeSerif;-inkscape-font-specification:FreeSerif;fill:url(#linearGradient23);stroke-width:1.2300849">ч</tspan>
  </text>
  <rect
     style="fill:#010101;stroke-width:0.26458335"
     height="1.5393723"
     rx="0.47207487"
     ry="0.60722405"
     width="27.708702"
     x="3.0787446"
     y="29.24855"
     id="rect21" />
  <path
     style="font-size:49.20341492px;font-family:sans-serif;letter-spacing:0;word-spacing:0;fill:url(#linearGradient845);stroke-width:4.64913988;fill-opacity:1"
     d="M 24.367188 20.25 C 25.523113 20.790953 26.766298 21.250051 27.603516 22.078125 C 30.248469 24.694193 30.874824 28.580655 31.017578 34.054688 A 2.8332525 2.5867489 0 0 1 31.017578 34.117188 L 31.017578 49.451172 C 31.017578 52.771885 31.840444 55.461548 33.421875 57.746094 C 35.203776 60.120382 37.3695 61.831681 40.041016 63.001953 C 43.002921 64.173294 45.80925 65.041206 48.455078 65.619141 C 51.13155 66.080226 53.725017 66.308594 56.242188 66.308594 C 57.765191 66.308594 59.101393 65.905728 60.568359 65.787109 C 55.365105 65.672163 50.788568 64.207952 47.482422 61.189453 A 2.8332525 2.5867489 0 0 1 47.388672 61.103516 C 44.183364 57.884441 42.552738 53.713817 42.552734 49.078125 L 42.552734 34.117188 C 42.552734 28.754076 43.121526 24.882805 45.765625 22.267578 A 2.8332525 2.5867489 0 0 1 45.765625 22.259766 C 46.674531 21.366107 48.003136 20.835465 49.273438 20.25 L 24.367188 20.25 z M 77.935547 20.25 C 79.181989 20.863258 80.494699 21.413189 81.351562 22.380859 C 83.88882 25.085384 84.679688 28.993575 84.679688 34.117188 L 84.679688 57.492188 A 2.8332525 2.5867489 0 0 1 83.111328 59.806641 L 82.833984 59.933594 A 2.8332525 2.5867489 0 0 1 84.679688 62.353516 L 84.679688 74.224609 A 84.362449 34.9086 0 0 0 96.214844 72.421875 L 96.214844 34.117188 C 96.214844 28.777404 96.791643 24.925267 99.40625 22.310547 C 100.2881 21.381989 101.60141 20.841482 102.86719 20.25 L 77.935547 20.25 z M 71.625 64.257812 C 71.621104 64.258907 71.621084 64.262578 71.617188 64.263672 L 71.646484 64.257812 C 71.63866 64.260098 71.632824 64.25553 71.625 64.257812 z M 69.361328 64.609375 C 68.854785 64.728203 68.358679 64.803128 67.865234 64.875 C 68.374487 64.81055 68.880511 64.737304 69.361328 64.609375 z M 67.865234 64.875 C 67.206658 64.958349 66.54116 65.025237 65.900391 65.146484 C 66.556675 65.053776 67.208067 64.970719 67.865234 64.875 z "
     transform="scale(0.26458334)"
     id="text27" />
</svg>
