<?xml version="1.0" encoding="UTF-8" standalone="no"?>
<!-- Created with Inkscape (http://www.inkscape.org/) -->

<svg
   xmlns:dc="http://purl.org/dc/elements/1.1/"
   xmlns:cc="http://creativecommons.org/ns#"
   xmlns:rdf="http://www.w3.org/1999/02/22-rdf-syntax-ns#"
   xmlns:svg="http://www.w3.org/2000/svg"
   xmlns="http://www.w3.org/2000/svg"
   xmlns:xlink="http://www.w3.org/1999/xlink"
   xmlns:sodipodi="http://sodipodi.sourceforge.net/DTD/sodipodi-0.dtd"
   xmlns:inkscape="http://www.inkscape.org/namespaces/inkscape"
   version="1.1"
   id="svg2"
   width="32"
   height="32"
   viewBox="0 0 32 32"
   sodipodi:docname="templates_32-2.svg"
   inkscape:version="0.92.4 (unknown)">
  <metadata
     id="metadata8">
    <rdf:RDF>
      <cc:Work
         rdf:about="">
        <dc:format>image/svg+xml</dc:format>
        <dc:type
           rdf:resource="http://purl.org/dc/dcmitype/StillImage" />
        <dc:title></dc:title>
      </cc:Work>
    </rdf:RDF>
  </metadata>
  <defs
     id="defs6">
    <linearGradient
       inkscape:collect="always"
       id="linearGradient854">
      <stop
         style="stop-color:#2a3674;stop-opacity:1"
         offset="0"
         id="stop850" />
      <stop
         style="stop-color:#174072;stop-opacity:0;"
         offset="1"
         id="stop852" />
    </linearGradient>
    <linearGradient
       inkscape:collect="always"
       id="linearGradient838">
      <stop
         style="stop-color:#587bcb;stop-opacity:1"
         offset="0"
         id="stop834" />
      <stop
         id="stop985"
         offset="0.94117647"
         style="stop-color:#3f59ae;stop-opacity:1" />
      <stop
         style="stop-color:#3d7cdb;stop-opacity:1"
         offset="1"
         id="stop836" />
    </linearGradient>
    <linearGradient
       inkscape:collect="always"
       xlink:href="#linearGradient838"
       id="linearGradient840"
       x1="8.7398376"
       y1="1.3577236"
       x2="9"
       y2="14"
       gradientUnits="userSpaceOnUse"
       gradientTransform="translate(-1)" />
    <linearGradient
       inkscape:collect="always"
       xlink:href="#linearGradient854"
       id="linearGradient856"
       x1="6.5"
       y1="11"
       x2="6.5"
       y2="12"
       gradientUnits="userSpaceOnUse"
       gradientTransform="matrix(1.8125,0,0,1,-0.8125,12)" />
    <linearGradient
       inkscape:collect="always"
       id="linearGradient4716">
      <stop
         style="stop-color:#102134;stop-opacity:1;"
         offset="0"
         id="stop4718" />
      <stop
         style="stop-color:#102134;stop-opacity:0;"
         offset="1"
         id="stop4720" />
    </linearGradient>
    <linearGradient
       inkscape:collect="always"
       xlink:href="#linearGradient4716"
       id="linearGradient906"
       x1="10"
       y1="-1"
       x2="10"
       y2="10"
       gradientUnits="userSpaceOnUse"
       gradientTransform="translate(-1,-6)" />
    <filter
       style="color-interpolation-filters:sRGB"
       inkscape:collect="always"
       id="filter4747"
       x="-0.06459371"
       width="1.1291873"
       y="-0.1339166"
       height="1.2678332">
      <feGaussianBlur
         inkscape:collect="always"
         stdDeviation="3.1247207"
         id="feGaussianBlur4749" />
    </filter>
    <linearGradient
       inkscape:collect="always"
       xlink:href="#linearGradient4608"
       id="linearGradient4614"
       x1="3"
       y1="968.26129"
       x2="-8.0192804"
       y2="902.54407"
       gradientUnits="userSpaceOnUse"
       gradientTransform="matrix(0.12499998,0,0,0.12499998,0.0024099,-115.81799)" />
    <linearGradient
       inkscape:collect="always"
       id="linearGradient4608">
      <stop
         style="stop-color:#34608f;stop-opacity:1;"
         offset="0"
         id="stop4610" />
      <stop
         style="stop-color:#34608f;stop-opacity:0;"
         offset="1"
         id="stop4612" />
    </linearGradient>
    <linearGradient
       inkscape:collect="always"
       xlink:href="#linearGradient4616"
       id="linearGradient4622"
       x1="124.01234"
       y1="966.51019"
       x2="123.73341"
       y2="904.93018"
       gradientUnits="userSpaceOnUse"
       gradientTransform="matrix(0.21345221,0,0,0.14419658,2.588831,-134.48784)" />
    <linearGradient
       id="linearGradient4616">
      <stop
         style="stop-color:#000000;stop-opacity:1;"
         offset="0"
         id="stop4618" />
      <stop
         style="stop-color:#34608f;stop-opacity:0;"
         offset="1"
         id="stop4620" />
    </linearGradient>
    <linearGradient
       inkscape:collect="always"
       xlink:href="#linearGradient4624"
       id="linearGradient4630"
       x1="55"
       y1="1036.4132"
       x2="55"
       y2="1032.4822"
       gradientUnits="userSpaceOnUse" />
    <linearGradient
       inkscape:collect="always"
       id="linearGradient4624">
      <stop
         style="stop-color:#003d7b;stop-opacity:1;"
         offset="0"
         id="stop4626" />
      <stop
         style="stop-color:#003d7b;stop-opacity:0;"
         offset="1"
         id="stop4628" />
    </linearGradient>
    <filter
       style="color-interpolation-filters:sRGB"
       inkscape:collect="always"
       id="filter4584"
       x="-0.013944133"
       width="1.0278883"
       y="-0.34860396"
       height="1.6972079">
      <feGaussianBlur
         inkscape:collect="always"
         stdDeviation="0.70882694"
         id="feGaussianBlur4586" />
    </filter>
    <filter
       style="color-interpolation-filters:sRGB"
       inkscape:collect="always"
       id="filter4724"
       x="-0.013834233"
       width="1.0276685"
       y="-0.43499437"
       height="1.8699887">
      <feGaussianBlur
         inkscape:collect="always"
         stdDeviation="0.70324038"
         id="feGaussianBlur4726" />
    </filter>
    <clipPath
       clipPathUnits="userSpaceOnUse"
       id="clipPath1180">
      <rect
         style="opacity:0.6457142;fill:#155293;fill-opacity:1;stroke:none;stroke-width:1"
         id="rect1182"
         width="195.54292"
         height="31.444271"
         x="4"
         y="941.36218"
         rx="4"
         ry="4" />
    </clipPath>
    <filter
       style="color-interpolation-filters:sRGB"
       inkscape:collect="always"
       id="filter2770-9-8">
      <feGaussianBlur
         inkscape:collect="always"
         stdDeviation="2.0786429"
         id="feGaussianBlur2772-0-6" />
    </filter>
    <linearGradient
       inkscape:collect="always"
       xlink:href="#linearGradient3180-8-4"
       id="linearGradient6355"
       gradientUnits="userSpaceOnUse"
       x1="37.688"
       y1="63.0005"
       x2="90.311996"
       y2="63.0005" />
    <linearGradient
       id="linearGradient3180-8-4">
      <stop
         id="stop3182-5-8"
         offset="0"
         style="stop-color:#f4f4f4;stop-opacity:1" />
      <stop
         style="stop-color:#f7f7f7;stop-opacity:1"
         offset="0.5"
         id="stop3188-0-8" />
      <stop
         id="stop3184-9-8"
         offset="1"
         style="stop-color:#eeeeee;stop-opacity:1" />
    </linearGradient>
    <linearGradient
       inkscape:collect="always"
       xlink:href="#linearGradient3180-8-4"
       id="linearGradient6353"
       gradientUnits="userSpaceOnUse"
       x1="64"
       y1="22.506487"
       x2="64"
       y2="93.317558" />
    <linearGradient
       inkscape:collect="always"
       xlink:href="#linearGradient3248-8-7"
       id="linearGradient6343"
       gradientUnits="userSpaceOnUse"
       gradientTransform="matrix(0.09346641,0.13189946,-0.12187869,0.10604217,147.9258,61.792642)"
       x1="37.744732"
       y1="45.218086"
       x2="49.066868"
       y2="37.536259" />
    <linearGradient
       id="linearGradient3248-8-7">
      <stop
         style="stop-color:#ffffff;stop-opacity:1"
         offset="0"
         id="stop3250-5-6" />
      <stop
         style="stop-color:#f4f4f4;stop-opacity:0"
         offset="1"
         id="stop3252-6-4" />
    </linearGradient>
    <linearGradient
       inkscape:collect="always"
       xlink:href="#linearGradient3270-1-0"
       id="linearGradient6340"
       gradientUnits="userSpaceOnUse"
       gradientTransform="matrix(0.15145598,0,0,0.16782457,140.14587,65.328947)"
       spreadMethod="reflect"
       x1="64.018799"
       y1="24.784855"
       x2="105.72495"
       y2="24.784855" />
    <linearGradient
       id="linearGradient3270-1-0">
      <stop
         style="stop-color:#ffffff;stop-opacity:0.58431375"
         offset="0"
         id="stop3272-5-3" />
      <stop
         id="stop3312-9-0"
         offset="0.74876845"
         style="stop-color:#ffffff;stop-opacity:0.49803922" />
      <stop
         style="stop-color:#ffffff;stop-opacity:0"
         offset="1"
         id="stop3274-8-9" />
    </linearGradient>
    <linearGradient
       inkscape:collect="always"
       xlink:href="#linearGradient3270-1-0"
       id="linearGradient6337"
       gradientUnits="userSpaceOnUse"
       gradientTransform="matrix(0.1097709,0,0,0.16782457,142.81272,77.578909)"
       spreadMethod="reflect"
       x1="64.018799"
       y1="24.784855"
       x2="105.72495"
       y2="24.784855" />
    <linearGradient
       inkscape:collect="always"
       xlink:href="#linearGradient3270-1-0"
       id="linearGradient6334"
       gradientUnits="userSpaceOnUse"
       gradientTransform="matrix(0.0017168,0.0891951,-0.12457848,0.00369095,157.76292,65.93852)"
       spreadMethod="reflect"
       x1="63.803757"
       y1="23.682602"
       x2="109.94408"
       y2="24.784855" />
    <linearGradient
       inkscape:collect="always"
       xlink:href="#linearGradient3270-1-0"
       id="linearGradient6331"
       gradientUnits="userSpaceOnUse"
       gradientTransform="matrix(-0.0017168,0.0891951,0.12457848,0.00369095,142.11388,66.106373)"
       spreadMethod="reflect"
       x1="64.009895"
       y1="24.974937"
       x2="106.13834"
       y2="25.555504" />
    <linearGradient
       inkscape:collect="always"
       xlink:href="#linearGradient3270-1-0"
       id="linearGradient6328"
       gradientUnits="userSpaceOnUse"
       gradientTransform="matrix(0.15145598,0,0,0.16782457,140.14764,66.16807)"
       spreadMethod="reflect"
       x1="64.018799"
       y1="24.784855"
       x2="109.94408"
       y2="24.784855" />
    <linearGradient
       inkscape:collect="always"
       xlink:href="#linearGradient3270-1-0"
       id="linearGradient6325"
       gradientUnits="userSpaceOnUse"
       gradientTransform="matrix(0,0.17226593,-0.15145598,0,153.01256,64.132985)"
       spreadMethod="reflect"
       x1="64.018799"
       y1="24.784855"
       x2="105.72495"
       y2="24.784855" />
    <linearGradient
       inkscape:collect="always"
       xlink:href="#linearGradient3270-1-0"
       id="linearGradient6322"
       gradientUnits="userSpaceOnUse"
       gradientTransform="matrix(0,0.17226593,-0.15145598,0,154.37209,64.132985)"
       spreadMethod="reflect"
       x1="64.018799"
       y1="24.784855"
       x2="105.72495"
       y2="24.784855" />
    <linearGradient
       inkscape:collect="always"
       xlink:href="#linearGradient3248-8-7"
       id="linearGradient6319"
       gradientUnits="userSpaceOnUse"
       gradientTransform="matrix(-0.11464371,0,0,0.13006884,153.24549,74.477918)"
       x1="42.093998"
       y1="44.211128"
       x2="53.124798"
       y2="36.833477" />
    <linearGradient
       inkscape:collect="always"
       xlink:href="#linearGradient3248-8-7"
       id="linearGradient6316"
       gradientUnits="userSpaceOnUse"
       gradientTransform="matrix(-0.07567241,0.14523365,0.13419986,0.085854,150.58473,61.960258)"
       x1="28.098803"
       y1="44.257614"
       x2="49.066868"
       y2="37.536259" />
    <linearGradient
       inkscape:collect="always"
       xlink:href="#linearGradient3248-8-7"
       id="linearGradient6313"
       gradientUnits="userSpaceOnUse"
       gradientTransform="matrix(0.08938591,-0.0795451,0.07350184,0.10141265,144.71178,79.38031)"
       x1="33.189358"
       y1="45.569305"
       x2="53.124798"
       y2="36.833477" />
  </defs>
  <sodipodi:namedview
     pagecolor="#ffffff"
     bordercolor="#666666"
     borderopacity="1"
     objecttolerance="10"
     gridtolerance="10"
     guidetolerance="10"
     inkscape:pageopacity="0"
     inkscape:pageshadow="2"
     inkscape:window-width="1366"
     inkscape:window-height="706"
     id="namedview4"
     showgrid="true"
     inkscape:zoom="7.6875002"
     inkscape:cx="32.928799"
     inkscape:cy="13.479536"
     inkscape:window-x="0"
     inkscape:window-y="0"
     inkscape:window-maximized="1"
     inkscape:current-layer="g1029"
     inkscape:snap-page="true"
     inkscape:snap-smooth-nodes="true"
     inkscape:snap-global="true">
    <inkscape:grid
       type="xygrid"
       id="grid828" />
  </sodipodi:namedview>
  <g
     id="g1029"
     transform="translate(1,14)"
     style="opacity:1">
    <path
       transform="matrix(0.17315572,0,0,0.125,9.2044236,12.35751)"
       sodipodi:nodetypes="sssssss"
       inkscape:connector-curvature="0"
       id="rect4554"
       d="M -46.991242,13.13992 H 113.20997 c 2.216,0 4,0.8652 4,1.94 0,1.0747 -1.78433,1.902 -4,1.94 -36.945184,0.6329 -120.9042545,0.7782 -160.201212,0 -2.215566,-0.044 -4,-0.8653 -4,-1.94 0,-1.0748 1.784,-1.94 4,-1.94 z"
       style="display:inline;opacity:0.55428569;fill:#000000;fill-opacity:1;stroke:none;filter:url(#filter4724);enable-background:new" />
    <rect
       transform="matrix(0.125,0,0,0.25614775,-0.125,-251.09298)"
       style="display:inline;opacity:0.57714281;fill:url(#linearGradient4630);fill-opacity:1;stroke:none;filter:url(#filter4584);enable-background:new"
       id="rect4578"
       width="233.99997"
       height="4.3919702"
       x="3.0000281"
       y="1032.4822"
       rx="2.4399951"
       ry="1.9266627" />
    <path
       sodipodi:nodetypes="sscsssssscss"
       inkscape:connector-curvature="0"
       id="rect832"
       d="m 1,-11 c -0.5,0 -0.48341039,0.383873 -0.5,0.5 L 0,-9 v 7.5 c 0,0.554 0.45059681,0.92878107 1,1 L 28,3 c 0.549403,0.071219 1,-0.446 1,-1 V -9 c 0,-0.554 -0.446,-1 -1,-1 H 7.9042969 C 7.8200962,-10.485951 7.7262959,-11 7.5,-11 Z"
       style="opacity:1;fill:#3b6ca9;fill-opacity:1;stroke:none;stroke-width:1;stroke-miterlimit:4;stroke-dasharray:none;stroke-opacity:1" />
    <path
       sodipodi:nodetypes="sscscccccccccssscss"
       inkscape:connector-curvature="0"
       id="path875"
       d="m 1,-11 c -0.5,0 -0.4629045,0.388713 -0.5,0.5 L 0,-9 v 7.5 c 0,0.554 0.446,1 1,1 V -9 l 0.5,-1 h 5.3828125 c 0.013345,0.068527 0.023996,0.094239 0.037109,0.1699219 C 7.0025947,-9.3508586 7.4179989,-9.0005674 7.9042969,-9 H 9 28 V 3 c 0.554,0 1,-0.446 1,-1 V -9 c 0,-0.554 -0.446,-1 -1,-1 H 7.9042969 C 7.8200962,-10.485951 7.7262959,-11 7.5,-11 Z"
       style="opacity:0.25;fill:url(#linearGradient906);fill-opacity:1;stroke:none;stroke-width:1;stroke-miterlimit:4;stroke-dasharray:none;stroke-opacity:1" />
    <path
       mask="none"
       transform="matrix(0.14830504,0,0,0.14830504,-0.59322015,-146.2721)"
       clip-path="url(#clipPath1180)"
       sodipodi:nodetypes="ccccssccc"
       inkscape:connector-curvature="0"
       id="path3822"
       d="m 56.984419,956.41796 -52.9844191,-0.46865 2e-7,23.62035 195.5429199,-0.0204 v -26.85749 c 0,-2.54081 -2.98686,-7.17388 -5.54823,-7.16756 l -125.937528,0.31081 c -9.375263,0 -4.139978,10.43168 -11.072743,10.58369 z"
       style="display:inline;fill:#16375b;fill-opacity:0.80147059;fill-rule:nonzero;stroke:none;filter:url(#filter4747);enable-background:new" />
    <path
       sodipodi:nodetypes="sccssssssss"
       inkscape:connector-curvature="0"
       id="rect830"
       d="m 1,-3 h 7 l 2,-2 h 19 c 0.554,0 1.016287,0.4462395 1,1 l -0.5,17 c -0.01629,0.55376 -0.446,1 -1,1 H 1.5 C 0.946,14 0.51845639,13.553692 0.5,13 L 0,-2 c -0.01845642,-0.5536925 0.44599999,-1 1,-1 z"
       style="opacity:1;fill:url(#linearGradient840);fill-opacity:1;stroke:none;stroke-width:1;stroke-miterlimit:4;stroke-dasharray:none;stroke-opacity:1" />
    <path
       style="opacity:1;fill:#385da4;fill-opacity:1;stroke:none;stroke-width:1.34629118;stroke-miterlimit:4;stroke-dasharray:none;stroke-opacity:1"
       d="M 1.3671875 23 L 1.4003906 24 L 30 24 L 30 23 L 1.3671875 23 z "
       transform="translate(-1,-14)"
       id="rect846" />
    <path
       style="opacity:1;fill:url(#linearGradient856);fill-opacity:1;stroke:none;stroke-width:1.34629118;stroke-miterlimit:4;stroke-dasharray:none;stroke-opacity:1"
       d="M 1.3671875 23 L 1.4003906 24 L 30.587891 24 L 30.617188 23 L 1.3671875 23 z "
       transform="translate(-1,-14)"
       id="rect848" />
    <path
       style="opacity:1;fill:#a4c0e8;fill-opacity:1;stroke:none;stroke-width:1.34629118;stroke-miterlimit:4;stroke-dasharray:none;stroke-opacity:1"
       d="M 1.4003906 24 L 1.4160156 24.5 L 30.574219 24.5 L 30.587891 24 L 1.4003906 24 z "
       transform="translate(-1,-14)"
       id="rect858" />
    <path
       sodipodi:nodetypes="ccsscsccscssc"
       inkscape:connector-curvature="0"
       id="path860"
       d="M 10,-5 8,-3 H 1 c -0.554,0 -1,0.446 -1,1 v 1 c 0,-0.554 0.44600003,-1 1,-1 h 7 l 2,-2 h 19 c 0.554,0 1,0.446 1,1 v -1 c 0,-0.554 -0.446,-1 -1,-1 z"
       style="opacity:1;fill:#a4c0e8;fill-opacity:1;stroke:none;stroke-width:1;stroke-miterlimit:4;stroke-dasharray:none;stroke-opacity:1" />
    <path
       sodipodi:nodetypes="ccccc"
       inkscape:connector-curvature="0"
       id="rect869"
       d="m 2,-9 h 4.5 v 0.9999999 H 2 Z"
       style="opacity:1;fill:#fcf9e9;fill-opacity:1;stroke:none;stroke-width:1.02169669;stroke-miterlimit:4;stroke-dasharray:none;stroke-opacity:1" />
    <path
       sodipodi:nodetypes="ccccc"
       inkscape:connector-curvature="0"
       id="rect871"
       d="m 5.5,-8.9999999 h 1 V -8 h -1 z"
       style="opacity:1;fill:#fbc66d;fill-opacity:1;stroke:none;stroke-width:0.48163241;stroke-miterlimit:4;stroke-dasharray:none;stroke-opacity:1" />
    <path
       sodipodi:nodetypes="sccccccs"
       inkscape:connector-curvature="0"
       id="rect4652"
       d="M 0.9980469,-2.9902344 C 0.4475094,-2.9902344 0.0055271,-2.5491828 0,-2 l 0.5019531,15.009766 c 2.3e-4,0.02285 0.011948,0.042 0.013672,0.06445 C 0.553734,13.395281 1.2666734,13.99797 1.5,14 H 1.50195 L 0.9999969,-2.9902344 Z"
       style="display:inline;opacity:0.59428573;fill:url(#linearGradient4614);fill-opacity:1;stroke:none;stroke-width:0.12499997;enable-background:new" />
    <path
       id="rect4654"
       d="m 29,-5 -0.5,19 c 0.554,0 0.978702,-0.565256 1,-1.266667 L 30,-3.7333333 C 30.021298,-4.4347434 29.554,-5 29,-5 Z"
       style="display:inline;opacity:0.40571433;fill:url(#linearGradient4622);fill-opacity:1;stroke:none;stroke-width:0.12812202;enable-background:new"
       inkscape:connector-curvature="0"
       sodipodi:nodetypes="ccssc" />
    <path
       style="opacity:1;fill:#a4c0e8;fill-opacity:1;stroke:none;stroke-width:1;stroke-miterlimit:4;stroke-dasharray:none;stroke-opacity:1"
       d="m 2,3.2125582 c -0.5,0 -0.4629045,0.388713 -0.5,0.5 l -0.5,1.5 v 0.5 l 0.5,-1.5 c 0.037095,-0.111287 0,-0.5 0.5,-0.5 h 6.5 c 0.2262959,0 0.3200962,0.514049 0.4042969,1 H 29 c 0.554,0 1,0.446 1,1 v -0.5 c 0,-0.554 -0.446,-1 -1,-1 H 8.9042969 c -0.084201,-0.485951 -0.178001,-1 -0.4042969,-1 z"
       transform="translate(-1,-14)"
       id="path1174"
       inkscape:connector-curvature="0"
       sodipodi:nodetypes="sccccsscscsscss" />
    <g
       style="display:inline;enable-background:new"
       id="g6690"
       transform="matrix(0.98584851,0,0,0.98584851,-131.88766,-67.750998)">
      <path
         style="opacity:0.5;fill:#000000;fill-opacity:1;filter:url(#filter2770-9-8)"
         d="M 15.499666,11.236218 12.446182,118.38869 c 35.593463,0.77632 71.245772,3.13598 106.690248,-0.15535 L 113.14397,11.069812 Z"
         id="path2857-6-7"
         sodipodi:nodetypes="ccccc"
         transform="matrix(0.15776665,0,0,0.17231987,139.64987,64.718331)"
         inkscape:connector-curvature="0" />
      <path
         style="fill:#578dfe;fill-opacity:1"
         d="m 141.8957,65.680472 -0.004,19.278858 16.30269,0.06164 c 0.003,-0.203506 -0.1739,-18.123694 -0.19171,-19.251575 l -16.10698,-0.08892 z"
         id="path2861-3-7"
         sodipodi:nodetypes="cccccc"
         inkscape:connector-curvature="0" />
      <g
         id="g6357">
        <path
           style="fill:#ffffff;fill-opacity:0.75688076;fill-rule:nonzero;stroke:none"
           d="M 149.04687,69.015316 V 68.686952 Z"
           id="path2863-1-5"
           sodipodi:nodetypes="ccc"
           inkscape:connector-curvature="0" />
        <g
           style="fill:url(#linearGradient6355);fill-opacity:1"
           transform="matrix(0.18419699,0,0,0.19931331,138.14583,63.059755)"
           id="g2865-7-4">
          <radialGradient
             gradientUnits="userSpaceOnUse"
             r="154.149"
             cy="103.667"
             cx="98.125"
             id="radialGradient2867-5-8">
            <stop
               id="stop2869-9-1"
               style="stop-color:#A4C0E4;fill-opacity:1.0;fill:url(#linearGradient3186)"
               offset="0" />
            <stop
               id="stop2871-6-2"
               style="stop-color:#00438A;fill-opacity:1.0;fill:url(#linearGradient3186)"
               offset="1" />
          </radialGradient>
          <path
             sodipodi:nodetypes="ccccscccsccccscccsccc"
             id="path2873-2-8"
             d="m 38.062,32.688 h 51.875 l 0.375,15.5 h -2.25 C 86.992,43.305 85.63,40.126 83.98,38.651 82.328,37.176 78.855,36.438 73.562,36.438 h -5.905749 v 46.875 c 0,3.539 1.446749,5.73 2.532749,6.578 1.084,0.848 3.459,1.406 7.123,1.672 v 1.75 H 50.688 v -1.75 c 3.908,-0.295 6.344,-0.93 7.307,-1.902 0.961,-0.973 2.348749,-3.20173 2.348749,-7.12773 v -45.875 L 54.438,36.438 c -6.974072,-0.09146 -8.492502,0.772697 -10.361,2.189 -3.013473,2.284183 -4.483048,5.286253 -4.139,9.561 h -2.25 z"
             style="fill:url(#linearGradient6353)"
             inkscape:connector-curvature="0" />
        </g>
        <path
           id="path2875-1-9"
           d="m 148.66377,70.871936 c -0.65223,-0.721566 -1.71541,-0.794625 -2.47299,-0.135482 -0.81691,0.710761 -0.97294,2.006869 -0.34455,2.893651 0.50394,0.71116 1.36095,0.942095 2.10148,0.638757 0.0304,-0.0057 0.0547,-0.03122 0.0613,-0.06457 0.007,-0.03335 -0.006,-0.06785 -0.0309,-0.08725 -0.0254,-0.0194 -0.0588,-0.01983 -0.0846,-0.0011 -0.68156,0.27918 -1.46593,0.06283 -1.92818,-0.589505 -0.57646,-0.813503 -0.43524,-2.001808 0.31896,-2.658011 0.69935,-0.608475 1.67417,-0.537781 2.27203,0.123629 0.0299,0.03287 0.0783,0.03263 0.10793,-5.54e-4 0.0297,-0.03318 0.0294,-0.08672 -5e-4,-0.119592 z"
           style="opacity:0.59851302;fill:url(#linearGradient6343);fill-opacity:1;stroke:none"
           inkscape:connector-curvature="0" />
        <path
           id="path2877-7-3"
           d="m 143.57715,69.407084 c -0.0418,0.0072 -0.0704,0.05068 -0.0639,0.09702 0.007,0.04634 0.0457,0.07804 0.0876,0.0708 h 12.48092 c 0.0273,4.19e-4 0.0527,-0.01547 0.0665,-0.04161 0.0138,-0.02614 0.0138,-0.05847 0,-0.0846 -0.0138,-0.02614 -0.0392,-0.04204 -0.0665,-0.04161 h -12.48092 c -0.008,-0.0014 -0.0158,-0.0014 -0.0237,0 z"
           style="opacity:0.89444448;fill:url(#linearGradient6340);fill-opacity:1;stroke:none"
           inkscape:connector-curvature="0" />
        <path
           style="opacity:0.89444448;fill:url(#linearGradient6337);fill-opacity:1;stroke:none"
           d="m 145.29961,81.657046 c -0.0303,0.0072 -0.051,0.05068 -0.0463,0.09702 0.005,0.04634 0.0332,0.07804 0.0635,0.0708 h 9.0458 c 0.0198,4.2e-4 0.0382,-0.01547 0.0482,-0.04161 0.01,-0.02614 0.01,-0.05847 0,-0.08461 -0.01,-0.02614 -0.0284,-0.04204 -0.0482,-0.04161 h -9.0458 c -0.006,-0.0014 -0.0115,-0.0014 -0.0172,0 z"
           id="path2879-8-6"
           inkscape:connector-curvature="0" />
        <path
           id="path2885-5-8"
           d="m 154.71442,68.064459 0.1415,7.351406"
           style="opacity:0.65427509;fill:none;stroke:url(#linearGradient6334);stroke-width:0.15943034;stroke-linecap:round;stroke-linejoin:round;stroke-miterlimit:4;stroke-dasharray:none;stroke-opacity:1"
           inkscape:connector-curvature="0" />
        <path
           style="opacity:0.81040889;fill:none;stroke:url(#linearGradient6331);stroke-width:0.15943034;stroke-linecap:round;stroke-linejoin:round;stroke-miterlimit:4;stroke-dasharray:none;stroke-opacity:1"
           d="m 145.16238,68.232312 -0.1415,7.351406"
           id="path2887-7-0"
           inkscape:connector-curvature="0" />
        <path
           style="opacity:0.89444448;fill:url(#linearGradient6328);fill-opacity:1;stroke:none"
           d="m 143.57893,70.246207 c -0.0418,0.0072 -0.0704,0.05068 -0.0639,0.09702 0.007,0.04634 0.0457,0.07804 0.0876,0.0708 h 12.48092 c 0.0273,4.19e-4 0.0527,-0.01547 0.0665,-0.04161 0.0138,-0.02614 0.0138,-0.05847 0,-0.0846 -0.0138,-0.02614 -0.0392,-0.04204 -0.0665,-0.04161 h -12.48092 c -0.008,-0.0014 -0.0158,-0.0014 -0.0237,0 z"
           id="path2889-4-2"
           inkscape:connector-curvature="0" />
        <path
           style="opacity:0.89444448;fill:url(#linearGradient6325);fill-opacity:1;stroke:none"
           d="m 149.33218,68.035726 c -0.007,-0.04757 -0.0457,-0.08011 -0.0876,-0.07267 -0.0418,0.0074 -0.0704,0.05202 -0.0639,0.09959 v 14.195788 c -3.8e-4,0.03106 0.014,0.05996 0.0375,0.07562 0.0236,0.01566 0.0528,0.01566 0.0764,0 0.0236,-0.01566 0.0379,-0.04455 0.0375,-0.07562 V 68.062646 c 0.001,-0.0089 0.001,-0.018 0,-0.02692 z"
           id="path2891-1-1"
           inkscape:connector-curvature="0" />
        <path
           id="path2893-8-0"
           d="m 150.69171,68.035726 c -0.007,-0.04757 -0.0457,-0.08011 -0.0876,-0.07267 -0.0418,0.0074 -0.0704,0.05202 -0.0639,0.09959 v 14.195788 c -3.8e-4,0.03106 0.014,0.05996 0.0376,0.07562 0.0236,0.01566 0.0528,0.01566 0.0763,0 0.0236,-0.01566 0.0379,-0.04455 0.0376,-0.07562 V 68.062646 c 0.001,-0.0089 0.001,-0.018 0,-0.02692 z"
           style="opacity:0.89444448;fill:url(#linearGradient6322);fill-opacity:1;stroke:none"
           inkscape:connector-curvature="0" />
        <path
           style="opacity:0.67286245;fill:url(#linearGradient6319);fill-opacity:1;stroke:none"
           d="m 148.01855,78.238129 c 0.69309,0.09303 1.22974,0.760736 1.22974,1.569226 0,0.871803 -0.6239,1.581144 -1.39466,1.581143 -0.61813,0 -1.14321,-0.457742 -1.32655,-1.088526 -0.0112,-0.02273 -0.009,-0.05068 0.006,-0.07069 0.0148,-0.02001 0.0391,-0.02808 0.0614,-0.0204 0.0223,0.0077 0.0382,0.02956 0.0401,0.05534 0.16873,0.580549 0.652,0.997153 1.21899,0.997153 0.70707,0 1.27993,-0.649133 1.27993,-1.454016 0,-0.746341 -0.49405,-1.356824 -1.12935,-1.442099 -0.0317,-0.0044 -0.0542,-0.0364 -0.0502,-0.07151 0.004,-0.03511 0.0329,-0.06001 0.0645,-0.05562 z"
           id="path2895-5-5"
           inkscape:connector-curvature="0" />
        <path
           id="path2897-9-1"
           d="m 151.01424,71.063869 c 0.55347,-0.816619 1.59661,-1.055731 2.43078,-0.522074 0.89949,0.575447 1.21955,1.834022 0.71079,2.810452 -0.408,0.783054 -1.22688,1.146108 -1.9987,0.961999 -0.0308,-8.56e-4 -0.0581,-0.02234 -0.069,-0.0543 -0.0109,-0.03196 -0.003,-0.06804 0.0195,-0.09122 0.0226,-0.02319 0.0557,-0.02886 0.0836,-0.01434 0.71036,0.169447 1.45918,-0.167777 1.83343,-0.886055 0.46672,-0.895742 0.17509,-2.049924 -0.65535,-2.5812 -0.77005,-0.492633 -1.72602,-0.269723 -2.23335,0.478814 -0.0254,0.03724 -0.0733,0.04457 -0.10691,0.01639 -0.0336,-0.02819 -0.0402,-0.08123 -0.0148,-0.118466 z"
           style="opacity:0.59851302;fill:url(#linearGradient6316);fill-opacity:1;stroke:none"
           inkscape:connector-curvature="0" />
        <path
           style="opacity:0.67286245;fill:url(#linearGradient6313);fill-opacity:1;stroke:none"
           d="m 150.91204,78.685396 c -0.48782,0.553432 -0.52892,1.446385 -0.072,2.076751 0.49265,0.679732 1.37994,0.799908 1.9809,0.265113 0.48194,-0.428882 0.63267,-1.150107 0.41916,-1.769123 -0.004,-0.02546 -0.0218,-0.04561 -0.0446,-0.05093 -0.0229,-0.0053 -0.0463,0.0052 -0.0594,0.02668 -0.013,0.02146 -0.0131,0.04953 -3e-5,0.071 0.19651,0.569719 0.0551,1.229849 -0.38693,1.623253 -0.5513,0.490602 -1.36477,0.381958 -1.81961,-0.245597 -0.42176,-0.58191 -0.38154,-1.400687 0.0656,-1.907979 0.0222,-0.0254 0.0216,-0.06596 -10e-4,-0.09058 -0.0229,-0.02462 -0.0595,-0.02399 -0.0817,0.0014 z"
           id="path2899-7-1"
           inkscape:connector-curvature="0" />
      </g>
      <path
         style="fill:#ffffff;fill-opacity:1;stroke:none"
         d="m 143.09915,66.762552 -0.0951,17.406107 0.69361,-0.106395 0.007,-17.131573 -0.60523,-0.168139 z"
         id="path5480-5-0"
         sodipodi:nodetypes="ccccc"
         inkscape:connector-curvature="0" />
      <path
         style="display:inline;fill:#ffffff;fill-opacity:1;stroke:none;enable-background:new"
         d="m 156.99595,83.240378 -14.37088,0.122727 -0.0437,0.50474 14.37087,-0.122728 0.0437,-0.504739 z"
         id="path5480-4-8-3-8"
         sodipodi:nodetypes="ccccc"
         inkscape:connector-curvature="0" />
      <path
         style="display:inline;fill:#ffffff;fill-opacity:1;stroke:none;enable-background:new"
         d="m 157.44378,68.123647 -14.51035,-0.122727 -0.10963,-0.723491 14.51034,0.122728 z"
         id="path5480-4-8-1-8-5"
         sodipodi:nodetypes="ccccc"
         inkscape:connector-curvature="0" />
      <path
         style="display:inline;fill:#ffffff;fill-opacity:1;stroke:none;enable-background:new"
         d="m 156.87618,67.010755 0.271,16.972078 -0.62667,-0.118693 -0.271,-16.972077 z"
         id="path5480-2-8-0"
         sodipodi:nodetypes="ccccc"
         inkscape:connector-curvature="0" />
    </g>
    <path
       inkscape:connector-curvature="0"
       id="path7309"
       d="m 16.139558,-6.33433 10,10.90625 -0.09375,-10.90625 z m 4.15625,1.6875 h 4.125 l 0.0312,4.5625 z"
       style="display:inline;fill:#d9d9d9;fill-opacity:1;stroke:#979797;stroke-width:0.5;stroke-linecap:butt;stroke-linejoin:miter;stroke-miterlimit:4;stroke-dasharray:none;stroke-opacity:1;enable-background:new" />
  </g>
</svg>
