<?xml version="1.0" encoding="UTF-8" standalone="no"?>
<svg
   xmlns:dc="http://purl.org/dc/elements/1.1/"
   xmlns:cc="http://creativecommons.org/ns#"
   xmlns:rdf="http://www.w3.org/1999/02/22-rdf-syntax-ns#"
   xmlns:svg="http://www.w3.org/2000/svg"
   xmlns="http://www.w3.org/2000/svg"
   xmlns:xlink="http://www.w3.org/1999/xlink"
   xmlns:sodipodi="http://sodipodi.sourceforge.net/DTD/sodipodi-0.dtd"
   xmlns:inkscape="http://www.inkscape.org/namespaces/inkscape"
   height="128"
   viewBox="0 0 33.866666 33.866668"
   width="128"
   version="1.1"
   id="svg20"
   sodipodi:docname="sc_underline.svg"
   inkscape:version="0.92.3 (unknown)"
   inkscape:export-filename="/home/rizmut/Dokumen/Rizmut/Github/libreoffice-style-karasa-jaga/build/images_karasa_jaga/cmd/pl/sc_underline.png"
   inkscape:export-xdpi="12"
   inkscape:export-ydpi="12">
  <metadata
     id="metadata26">
    <rdf:RDF>
      <cc:Work
         rdf:about="">
        <dc:format>image/svg+xml</dc:format>
        <dc:type
           rdf:resource="http://purl.org/dc/dcmitype/StillImage" />
        <dc:title></dc:title>
      </cc:Work>
    </rdf:RDF>
  </metadata>
  <defs
     id="defs24">
    <linearGradient
       inkscape:collect="always"
       xlink:href="#b"
       id="linearGradient2034"
       x1="41.03125"
       y1="42.734375"
       x2="105.41016"
       y2="42.734375"
       gradientUnits="userSpaceOnUse"
       gradientTransform="matrix(0.26458334,0,0,0.26458334,-1.0044022,0)" />
  </defs>
  <sodipodi:namedview
     pagecolor="#ffffff"
     bordercolor="#666666"
     borderopacity="1"
     objecttolerance="10"
     gridtolerance="10"
     guidetolerance="10"
     inkscape:pageopacity="0"
     inkscape:pageshadow="2"
     inkscape:window-width="1366"
     inkscape:window-height="706"
     id="namedview22"
     showgrid="false"
     inkscape:zoom="1.84375"
     inkscape:cx="81.134913"
     inkscape:cy="46.32226"
     inkscape:window-x="0"
     inkscape:window-y="0"
     inkscape:window-maximized="1"
     inkscape:current-layer="svg20" />
  <linearGradient
     id="a"
     gradientUnits="userSpaceOnUse"
     x1="18.98182359615"
     x2="20.2029811282"
     y1="294.720546641"
     y2="266.6339107115"
     gradientTransform="matrix(0.95009479,0,0,0.95009479,0.24364512,-250.11112)">
    <stop
       offset="0"
       stop-color="#555"
       id="stop2" />
    <stop
       offset="1"
       id="stop4" />
  </linearGradient>
  <linearGradient
     id="b"
     gradientUnits="userSpaceOnUse"
     x1="35.404884"
     x2="54.657333"
     y1="7.324325"
     y2="81.814293"
     gradientTransform="scale(0.26458333)">
    <stop
       offset="0"
       stop-color="#3b3e22"
       id="stop7" />
    <stop
       offset="1"
       stop-color="#454545"
       stop-opacity="0"
       id="stop9" />
  </linearGradient>
  <text
     id="text14"
     y="29.663507"
     x="4.7993712"
     style="font-size:38.58823776px;font-family:sans-serif;letter-spacing:0;word-spacing:0;fill:url(#a);stroke-width:0.96470535"
     transform="scale(1.0525265,0.95009483)">
    <tspan
       style="font-style:normal;font-variant:normal;font-weight:normal;font-stretch:normal;font-size:40.6075592px;font-family:FreeSerif;-inkscape-font-specification:FreeSerif;fill:url(#a);stroke-width:0.96470535"
       id="tspan12"
       y="29.663507"
       x="4.7993712"
       font-weight="bold"
       font-size="42.740532">P</tspan>
  </text>
  <rect
     x="1.7011719e-06"
     style="fill:#010101;stroke-width:0.26458335"
     height="2.1166668"
     rx="0.47207487"
     ry="0.60722405"
     width="33.866669"
     y="31.75"
     id="rect13" />
  <path
     style="opacity:1;fill:url(#linearGradient2034);fill-opacity:1;stroke:none;stroke-width:0.30000001;stroke-linecap:round;stroke-linejoin:round;stroke-miterlimit:4;stroke-dasharray:none;stroke-dashoffset:0;stroke-opacity:1"
     d="m 9.8517829,3.8059694 c 0.5978551,0.81753 0.7193361,1.7563193 0.7193361,3.041158 V 18.691883 a 21.71497,14.206056 0 0 0 1.78232,0.115755 v -1.850533 a 1.2899453,1.164408 0 0 1 0.325045,-0.772046 1.2899453,1.164408 0 0 1 -0.325045,-0.772046 V 5.3815839 c 0,-0.5447486 0.104426,-1.0772598 0.489376,-1.5756145 z M 22.237591,4.5666465 c 0.002,0.00137 0.0021,0.00432 0.0041,0.00568 0.0028,0.00194 0.0075,0.00167 0.01034,0.00362 z m 0.104903,0.122473 c 1.627534,1.1719124 2.462382,3.0061684 2.462382,5.1681601 0,2.1124224 -0.75246,3.9329894 -2.304252,5.1252684 0.597421,-0.205052 1.329535,-0.395524 1.704288,-0.615983 0.693173,-0.43358 1.212748,-0.91561 1.595251,-1.463993 a 1.2899453,1.164408 0 0 1 0.0186,-0.02635 c 0.451951,-0.611951 0.722077,-1.152025 0.846977,-1.603003 0.14447,-0.521631 0.21963,-1.069334 0.21963,-1.6479665 0,-1.1506494 -0.293312,-2.0393005 -0.849045,-2.7817425 C 25.454363,6.0660287 24.707503,5.5013531 23.709335,5.093746 A 1.2899453,1.164408 0 0 1 23.699,5.0880617 C 23.248045,4.8994204 22.794432,4.8311788 22.342494,4.6891195 Z"
     id="path2019"
     inkscape:connector-curvature="0" />
</svg>
