<?xml version="1.0" encoding="UTF-8" standalone="no"?>
<svg
   xmlns:dc="http://purl.org/dc/elements/1.1/"
   xmlns:cc="http://creativecommons.org/ns#"
   xmlns:rdf="http://www.w3.org/1999/02/22-rdf-syntax-ns#"
   xmlns:svg="http://www.w3.org/2000/svg"
   xmlns="http://www.w3.org/2000/svg"
   xmlns:xlink="http://www.w3.org/1999/xlink"
   xmlns:sodipodi="http://sodipodi.sourceforge.net/DTD/sodipodi-0.dtd"
   xmlns:inkscape="http://www.inkscape.org/namespaces/inkscape"
   height="24"
   viewBox="0 0 6.3499999 6.3500002"
   width="24"
   version="1.1"
   id="svg96"
   sodipodi:docname="lc_alignverticalcenter.svg"
   inkscape:version="0.92.4 (unknown)"
   inkscape:export-filename="/home/rizmut/Dokumen/Rizmut/Github/libreoffice-style-karasa-jaga/build/next/cmd/lc_alignverticalcenter.png"
   inkscape:export-xdpi="96"
   inkscape:export-ydpi="96">
  <metadata
     id="metadata102">
    <rdf:RDF>
      <cc:Work
         rdf:about="">
        <dc:format>image/svg+xml</dc:format>
        <dc:type
           rdf:resource="http://purl.org/dc/dcmitype/StillImage" />
        <dc:title></dc:title>
      </cc:Work>
    </rdf:RDF>
  </metadata>
  <defs
     id="defs100" />
  <sodipodi:namedview
     pagecolor="#ffffff"
     bordercolor="#666666"
     borderopacity="1"
     objecttolerance="10"
     gridtolerance="10"
     guidetolerance="10"
     inkscape:pageopacity="0"
     inkscape:pageshadow="2"
     inkscape:window-width="1366"
     inkscape:window-height="714"
     id="namedview98"
     showgrid="true"
     inkscape:zoom="10.705467"
     inkscape:cx="7.3152592"
     inkscape:cy="10.961252"
     inkscape:window-x="0"
     inkscape:window-y="28"
     inkscape:window-maximized="1"
     inkscape:current-layer="g94">
    <inkscape:grid
       type="xygrid"
       id="grid104" />
  </sodipodi:namedview>
  <filter
     id="a">
    <feGaussianBlur
       stdDeviation="2.0786429"
       id="feGaussianBlur2" />
  </filter>
  <radialGradient
     id="b"
     cx="27.708702"
     cy="301.6181"
     gradientTransform="matrix(3.5555559,1.8e-7,-1.5e-7,3.0000008,-70.811094,-603.23643)"
     gradientUnits="userSpaceOnUse"
     r="13.85435">
    <stop
       offset="0"
       stop-color="#b7b8b9"
       id="stop5" />
    <stop
       offset=".18851049"
       stop-color="#ececec"
       id="stop7" />
    <stop
       offset=".25718147"
       stop-color="#fafafa"
       id="stop9" />
    <stop
       offset=".30111277"
       stop-color="#fff"
       id="stop11" />
    <stop
       offset=".5313"
       stop-color="#fafafa"
       id="stop13" />
    <stop
       offset=".8449"
       stop-color="#ebecec"
       id="stop15" />
    <stop
       offset="1"
       stop-color="#e1e2e3"
       id="stop17" />
  </radialGradient>
  <linearGradient
     id="c">
    <stop
       offset="0"
       stop-color="#80f9ff"
       id="stop20" />
    <stop
       offset="1"
       stop-color="#80fff9"
       stop-opacity="0"
       id="stop22" />
  </linearGradient>
  <radialGradient
     id="d"
     cx="26.169329"
     cy="287.06024"
     gradientTransform="matrix(6.0343759,-3.66e-6,6.85e-6,11.314473,-58.987816,-3158.2208)"
     gradientUnits="userSpaceOnUse"
     r="7.713275">
    <stop
       offset="0"
       stop-color="#9abcee"
       id="stop25" />
    <stop
       offset="1"
       stop-color="#092042"
       id="stop27" />
  </radialGradient>
  <radialGradient
     id="e"
     cx="26.191305"
     cy="282.65869"
     gradientTransform="matrix(3.7795276,0,0,7.0272794,0.022025,-1927.5382)"
     gradientUnits="userSpaceOnUse"
     r="7.713275">
    <stop
       offset="0"
       stop-color="#000914"
       id="stop30" />
    <stop
       offset="1"
       stop-color="#000b14"
       stop-opacity="0"
       id="stop32" />
  </radialGradient>
  <radialGradient
     id="f"
     cx="26.191305"
     cy="282.65869"
     gradientTransform="matrix(3.7795276,0,0,7.0272794,0.022025,-1927.5382)"
     gradientUnits="userSpaceOnUse"
     r="7.713275">
    <stop
       offset="0"
       stop-color="#001331"
       id="stop35" />
    <stop
       offset="1"
       stop-color="#293e63"
       id="stop37" />
  </radialGradient>
  <radialGradient
     id="g"
     cx="26.169329"
     cy="277.12506"
     gradientTransform="matrix(3.7795276,0,0,7.0272794,0.022025,-1927.5382)"
     gradientUnits="userSpaceOnUse"
     r="7.713275">
    <stop
       offset="0"
       stop-color="#fff"
       id="stop40" />
    <stop
       offset="1"
       stop-color="#fff"
       stop-opacity="0"
       id="stop42" />
  </radialGradient>
  <linearGradient
     id="h"
     gradientUnits="userSpaceOnUse"
     x1="27.714529"
     x2="27.714529"
     y1="263.77966"
     y2="286.87024">
    <stop
       offset="0"
       stop-color="#bfe7ff"
       id="stop45" />
    <stop
       offset="1"
       stop-color="#bff9ff"
       stop-opacity="0"
       id="stop47" />
  </linearGradient>
  <linearGradient
     gradientUnits="userSpaceOnUse"
     x1="27.714529"
     x2="34.431171"
     xlink:href="#c"
     y1="294.56711"
     y2="278.58978"
     id="linearGradient50" />
  <filter
     id="i"
     height="1.018454"
     width="1.034312"
     x="-0.017155999"
     y="-0.0092270002"
     style="color-interpolation-filters:sRGB">
    <feGaussianBlur
       stdDeviation=".11027288"
       id="feGaussianBlur52" />
  </filter>
  <linearGradient
     id="j"
     gradientUnits="userSpaceOnUse"
     x1="104.74783"
     x2="116.38403"
     xlink:href="#c"
     y1="112.98679"
     y2="48.98764" />
  <linearGradient
     gradientUnits="userSpaceOnUse"
     x1="27.708702"
     x2="34.425343"
     xlink:href="#c"
     y1="298.53937"
     y2="282.56204"
     id="linearGradient56" />
  <g
     id="g128"
     transform="matrix(0.171875,0,0,0.171875,3.7385417e-6,0.52916375)">
    <g
       id="g94"
       transform="translate(0,-263.13332)">
      <g
         id="g72"
         transform="translate(1.539394,-1.539394)">
        <path
           id="path58"
           transform="matrix(0.2699708,0,0,0.2699708,-2.121455,261.22293)"
           d="m 11.599999,11.8 8.9e-5,118.71995 118.739972,-0.02 -9e-5,-118.719951 z"
           inkscape:connector-curvature="0"
           style="opacity:0.55390296;filter:url(#a)" />
        <path
           id="path60"
           d="m 1.5501472,264.67856 -0.010775,30.78205 30.5704718,-0.005 0.227788,-0.22779 -0.01081,-30.55426 z"
           inkscape:connector-curvature="0"
           style="fill:#ffffff;stroke-width:0.26997101" />
        <rect
           id="rect62"
           y="266.21255"
           x="3.0787449"
           width="27.7087"
           ry="0.190964"
           rx="0.17989001"
           height="27.7087"
           style="fill:url(#b)" />
        <g
           id="g70"
           transform="scale(-1,1)"
           style="fill:#404040;fill-opacity:0.83921599">
          <path
             id="path64"
             d="m -21.55121,273.90939 h 15.393722 v 1.53937 H -21.55121 Z"
             inkscape:connector-curvature="0" />
          <path
             id="path66"
             d="m -18.472467,278.52753 h 12.314979 v 1.53935 h -12.314979 z"
             inkscape:connector-curvature="0" />
          <path
             id="path68"
             d="m -21.55121,283.14563 h 15.393722 v 1.53936 H -21.55121 Z"
             inkscape:connector-curvature="0" />
        </g>
      </g>
      <g
         id="g92"
         transform="translate(1.539394,-1.539394)">
        <g
           id="g80"
           style="fill:none">
          <path
             id="path74"
             transform="matrix(0.26458333,0,0,0.26458333,0,263.13332)"
             d="M 99.03125,4.5800781 69.859375,37.734375 93.105469,32.513672 93.144531,64 93.105469,95.486328 69.859375,90.265625 99.03125,123.41992 128.16602,90.238281 104.84766,95.533203 104.80859,64 l 0.0391,-31.533203 23.31836,5.294922 z"
             style="stroke:url(#g);stroke-width:6.04724407"
             inkscape:connector-curvature="0" />
          <path
             id="path76"
             transform="matrix(0.26458333,0,0,0.26458333,0,263.13332)"
             d="M 99.03125,4.5800781 69.859375,37.734375 93.105469,32.513672 93.144531,64 93.105469,95.486328 69.859375,90.265625 99.03125,123.41992 128.16602,90.238281 104.84766,95.533203 104.80859,64 l 0.0391,-31.533203 23.31836,5.294922 z"
             style="stroke:url(#e);stroke-width:6.04724407"
             inkscape:connector-curvature="0" />
          <path
             id="path78"
             transform="matrix(0.26458333,0,0,0.26458333,0,263.13332)"
             d="M 99.03125,4.5800781 69.859375,37.734375 93.105469,32.513672 93.144531,64 93.105469,95.486328 69.859375,90.265625 99.03125,123.41992 128.16602,90.238281 104.84766,95.533203 104.80859,64 l 0.0391,-31.533203 23.31836,5.294922 z"
             style="stroke:url(#f);stroke-width:6.04724407;stroke-linecap:round;stroke-linejoin:round"
             inkscape:connector-curvature="0" />
        </g>
        <path
           id="path82"
           transform="matrix(0.26458333,0,0,0.26458333,0,263.13332)"
           d="M 99.03125,4.5800781 69.859375,37.734375 93.105469,32.513672 93.144531,64 93.105469,95.486328 69.859375,90.265625 99.03125,123.41992 128.16602,90.238281 104.84766,95.533203 104.80859,64 l 0.0391,-31.533203 23.31836,5.294922 z"
           style="fill:url(#d);fill-rule:evenodd"
           inkscape:connector-curvature="0" />
        <path
           id="path84"
           d="m 26.201783,264.34513 7.708624,8.77942 -6.169289,-1.40089 -0.02659,21.30407 h -3.085693 l -7.07e-4,-0.56691 h 7.07e-4 l 0.02659,-20.73858 -6.171568,1.39516 z"
           inkscape:connector-curvature="0"
           style="fill:none;filter:url(#i)" />
        <path
           id="path86"
           transform="matrix(0.26458333,0,0,0.26458333,0,263.13332)"
           d="M 99.03125,4.5800781 69.859375,37.734375 93.105469,32.513672 93.144531,64 93.105469,95.486328 69.859375,90.265625 99.03125,123.41992 128.16602,90.238281 104.84766,95.533203 104.80859,64 l 0.0391,-31.533203 23.31836,5.294922 z"
           style="fill:none;stroke:url(#j);stroke-width:1.13385797;filter:url(#i)"
           inkscape:connector-curvature="0" />
        <path
           id="path88"
           transform="matrix(1,0,0,-1,0.005827,564.10557)"
           d="m 26.195956,268.31739 7.708624,8.77942 -6.169289,-1.40089 -0.02659,21.30407 h -3.085693 l -7.07e-4,-0.56691 h 7.07e-4 l 0.02659,-20.73858 -6.171568,1.39516 z"
           inkscape:connector-curvature="0"
           style="fill:none;filter:url(#i)" />
        <path
           id="path90"
           d="m 26.201644,264.34524 -7.717875,8.77207 6.171716,-1.39526 -0.0072,5.44566 c 1.041032,-0.0386 2.074255,-0.13774 3.086632,-0.2961 l 0.0062,-5.14801 6.169133,1.40095 z"
           style="fill:url(#h)"
           inkscape:connector-curvature="0" />
      </g>
    </g>
  </g>
</svg>
