<?xml version="1.0" encoding="UTF-8" standalone="no"?>
<svg
   xmlns:dc="http://purl.org/dc/elements/1.1/"
   xmlns:cc="http://creativecommons.org/ns#"
   xmlns:rdf="http://www.w3.org/1999/02/22-rdf-syntax-ns#"
   xmlns:svg="http://www.w3.org/2000/svg"
   xmlns="http://www.w3.org/2000/svg"
   xmlns:sodipodi="http://sodipodi.sourceforge.net/DTD/sodipodi-0.dtd"
   xmlns:inkscape="http://www.inkscape.org/namespaces/inkscape"
   height="24"
   viewBox="0 0 6.3499999 6.3500002"
   width="24"
   version="1.1"
   id="svg2452"
   sodipodi:docname="lc_addprintarea.svg"
   inkscape:version="0.92.4 (unknown)"
   inkscape:export-filename="/home/rizmut/Dokumen/Rizmut/Github/libreoffice-style-karasa-jaga/build/next/cmd/lc_addprintarea.png"
   inkscape:export-xdpi="18"
   inkscape:export-ydpi="18">
  <metadata
     id="metadata2458">
    <rdf:RDF>
      <cc:Work
         rdf:about="">
        <dc:format>image/svg+xml</dc:format>
        <dc:type
           rdf:resource="http://purl.org/dc/dcmitype/StillImage" />
        <dc:title></dc:title>
      </cc:Work>
    </rdf:RDF>
  </metadata>
  <defs
     id="defs2456">
    <clipPath
       clipPathUnits="userSpaceOnUse"
       id="clipPath3045">
      <circle
         style="opacity:1;fill:#ffdfbf;fill-opacity:1;stroke:none;stroke-width:0.75365359;stroke-linecap:round;stroke-linejoin:round;stroke-miterlimit:4;stroke-dasharray:none;stroke-dashoffset:0;stroke-opacity:1"
         id="circle3047"
         cx="145.57193"
         cy="259.62421"
         r="23.042246" />
    </clipPath>
  </defs>
  <sodipodi:namedview
     pagecolor="#ffffff"
     bordercolor="#666666"
     borderopacity="1"
     objecttolerance="10"
     gridtolerance="10"
     guidetolerance="10"
     inkscape:pageopacity="0"
     inkscape:pageshadow="2"
     inkscape:window-width="1366"
     inkscape:window-height="706"
     id="namedview2454"
     showgrid="true"
     inkscape:zoom="7.375"
     inkscape:cx="24.821035"
     inkscape:cy="19.059863"
     inkscape:window-x="0"
     inkscape:window-y="0"
     inkscape:window-maximized="1"
     inkscape:current-layer="svg2452">
    <inkscape:grid
       type="xygrid"
       id="grid3003"
       spacingx="0.13229167"
       spacingy="0.13229167" />
  </sodipodi:namedview>
  <linearGradient
     id="a"
     gradientUnits="userSpaceOnUse"
     x1="32.028248"
     x2="32.028248"
     y1="256.97659"
     y2="292.38217"
     gradientTransform="matrix(0.91667,0,0,0.91667,1.4111243,-235.56215)">
    <stop
       offset="0"
       stop-color="#fff"
       id="stop2274" />
    <stop
       offset="1"
       stop-color="#555"
       id="stop2276" />
  </linearGradient>
  <linearGradient
     id="b"
     gradientTransform="matrix(0.25780288,0,0,0.34511371,1.4473062,3.4349232)"
     gradientUnits="userSpaceOnUse"
     x1="46.048"
     x2="46.048"
     y1="128.01709"
     y2="16.6203">
    <stop
       offset="0"
       stop-color="#c7cdd7"
       id="stop2279" />
    <stop
       offset="1"
       stop-color="#fff"
       id="stop2281" />
  </linearGradient>
  <linearGradient
     id="c"
     gradientUnits="userSpaceOnUse"
     x1="16.933332"
     x2="16.933332"
     y1="288.53329"
     y2="275.83331">
    <stop
       offset="0"
       stop-color="#0b0b0b"
       id="stop2284" />
    <stop
       offset="1"
       stop-color="#1d1d1d"
       id="stop2286" />
  </linearGradient>
  <linearGradient
     id="d"
     gradientTransform="matrix(0.26458333,0,0,0.29398147,0,261.6046)"
     gradientUnits="userSpaceOnUse"
     x1="64"
     x2="64"
     y1="88"
     y2="56">
    <stop
       offset="0"
       stop-color="#7f7f81"
       id="stop2289" />
    <stop
       offset=".44999999"
       stop-color="#b6b6b7"
       id="stop2291" />
    <stop
       offset=".67499995"
       stop-color="#f5f5f5"
       id="stop2293" />
    <stop
       offset="1"
       stop-color="#cfcfcf"
       id="stop2295" />
  </linearGradient>
  <linearGradient
     id="e"
     gradientUnits="userSpaceOnUse"
     x1="17.991667"
     x2="17.991667"
     y1="264.19162"
     y2="275.83331">
    <stop
       offset="0"
       stop-color="#fff"
       id="stop2298" />
    <stop
       offset=".54545456"
       stop-color="#ebebeb"
       id="stop2300" />
    <stop
       offset=".90909094"
       stop-color="#bababa"
       id="stop2302" />
    <stop
       offset="1"
       stop-color="#7e7e7f"
       id="stop2304" />
  </linearGradient>
  <linearGradient
     id="f"
     gradientTransform="matrix(0.24052171,0,0,0.26458333,1.589963,263.13331)"
     gradientUnits="userSpaceOnUse"
     x1="64"
     x2="64"
     y1="48"
     y2="72">
    <stop
       offset="0"
       stop-color="#6e4388"
       id="stop2307" />
    <stop
       offset=".21062189"
       stop-color="#651d8d"
       id="stop2309" />
    <stop
       offset=".5"
       stop-color="#ac7ec6"
       id="stop2311" />
    <stop
       offset=".66666639"
       stop-color="#ca87dc"
       id="stop2313" />
    <stop
       offset="1"
       stop-color="#ebeaeb"
       id="stop2315" />
  </linearGradient>
  <linearGradient
     id="g"
     gradientUnits="userSpaceOnUse"
     x1="17.991667"
     x2="17.842356"
     y1="294.8833"
     y2="287.90549">
    <stop
       offset="0"
       stop-color="#fefefe"
       id="stop2318" />
    <stop
       offset=".5"
       stop-color="#f7f7f7"
       id="stop2320" />
    <stop
       offset=".91002578"
       stop-color="#8c8c8c"
       id="stop2322" />
    <stop
       offset="1"
       stop-color="#666"
       id="stop2324" />
  </linearGradient>
  <linearGradient
     id="h"
     gradientTransform="matrix(0.26458333,0,0,0.16558711,0,269.86505)"
     gradientUnits="userSpaceOnUse"
     x1="52"
     x2="76"
     y1="72"
     y2="72">
    <stop
       offset="0"
       id="stop2327" />
    <stop
       offset=".66666669"
       stop-color="#a6a6a6"
       stop-opacity=".866667"
       id="stop2329" />
    <stop
       offset="1"
       stop-opacity=".737089"
       id="stop2331" />
  </linearGradient>
  <linearGradient
     id="i"
     gradientUnits="userSpaceOnUse"
     x1="17.000601"
     x2="17.000601"
     y1="274.77496"
     y2="280.06662">
    <stop
       offset="0"
       stop-color="#baaac4"
       id="stop2334" />
    <stop
       offset="1"
       stop-color="#baaac4"
       stop-opacity="0"
       id="stop2336" />
  </linearGradient>
  <filter
     id="j"
     height="1.072142"
     width="1.071866"
     x="-0.035932999"
     y="-0.036070999"
     style="color-interpolation-filters:sRGB">
    <feGaussianBlur
       stdDeviation=".66434216"
       id="feGaussianBlur2339" />
  </filter>
  <radialGradient
     id="k"
     cx="-55.685837"
     cy="-347.11612"
     gradientTransform="matrix(-0.89528211,-0.23989009,0.26001404,-0.9703857,-29.034684,-654.02683)"
     gradientUnits="userSpaceOnUse"
     r="22.14249">
    <stop
       offset="0"
       stop-color="#82c133"
       id="stop2342" />
    <stop
       offset="1"
       stop-color="#72b028"
       id="stop2344" />
  </radialGradient>
  <linearGradient
     id="l"
     gradientUnits="userSpaceOnUse"
     x1="328.12448"
     x2="336.98077"
     y1="120.81158"
     y2="87.759453">
    <stop
       offset="0"
       stop-color="#96ff00"
       id="stop2347" />
    <stop
       offset="1"
       stop-color="#609800"
       id="stop2349" />
  </linearGradient>
  <clipPath
     id="m">
    <circle
       cx="343.91208"
       cy="92.325096"
       r="36"
       transform="matrix(0.86602539,0.50000002,0.49999965,-0.86602561,0,0)"
       id="circle2352" />
  </clipPath>
  <filter
     id="n">
    <feGaussianBlur
       stdDeviation="2.8805897"
       id="feGaussianBlur2355" />
  </filter>
  <radialGradient
     id="o"
     cx="343.99899"
     cy="92"
     gradientTransform="matrix(0.47032074,0,0,0.4703204,-235.54627,-330.99181)"
     gradientUnits="userSpaceOnUse"
     r="36">
    <stop
       offset="0"
       stop-color="#e5ff00"
       id="stop2358" />
    <stop
       offset="1"
       stop-color="#bff500"
       stop-opacity="0"
       id="stop2360" />
  </radialGradient>
  <linearGradient
     id="p"
     gradientUnits="userSpaceOnUse"
     x1="122.00004"
     x2="122.00004"
     y1="61.999996"
     y2="9.9328432">
    <stop
       offset="0"
       stop-color="#004d00"
       stop-opacity="0"
       id="stop2363" />
    <stop
       offset=".5"
       stop-color="#004d00"
       id="stop2365" />
    <stop
       offset="1"
       stop-color="#004d00"
       stop-opacity="0"
       id="stop2367" />
  </linearGradient>
  <filter
     id="q">
    <feGaussianBlur
       stdDeviation="1.04"
       id="feGaussianBlur2370" />
  </filter>
  <linearGradient
     id="r"
     gradientTransform="matrix(0,0.47393418,-0.47393451,0,83.152635,278.87871)"
     gradientUnits="userSpaceOnUse"
     x1="-80.00296"
     x2="-45.096584"
     y1="-131.93112"
     y2="-131.93112">
    <stop
       offset="0"
       stop-color="#fff"
       id="stop2373" />
    <stop
       offset="1"
       stop-color="#fff"
       stop-opacity="0"
       id="stop2375" />
  </linearGradient>
  <g
     id="g4882"
     transform="scale(0.1875)">
    <path
       d="M 2.8222204,9.8780042 H 31.044148 V 31.044447 H 2.8222204 Z"
       id="path2378"
       style="fill:url(#b);stroke-width:0.91667002"
       inkscape:connector-curvature="0" />
    <path
       d="m 1.4111243,8.471594 v 1.4097377 4.2292133 1.409738 4.236793 1.409738 4.229222 0.0073 1.402166 0.01512 4.221642 1.417318 h 1.4097382 4.2367938 1.4097383 8.4660084 1.409739 7.05627 1.409738 4.236794 1.409738 V 31.042302 26.82066 14.110279 8.4713282 H 26.80915 25.399412 18.343142 16.933403 8.4673946 7.0576563 2.8208625 Z M 2.8208625,9.8813317 H 7.0576563 V 14.110545 H 2.8208625 Z m 5.6465321,0 H 16.933403 V 14.110545 H 8.4673946 Z m 9.8757474,0 h 7.05627 v 4.2292133 h -7.05627 z m 8.466008,0 h 4.236794 V 14.110545 H 26.80915 Z M 2.8208625,15.520283 h 4.2367938 v 4.236793 H 2.8208625 Z m 5.6465321,0 h 8.4660084 1.409739 7.05627 v 4.236793 0.05784 c -7.27e-4,-0.03272 -0.02247,-0.05876 -0.04974,-0.05876 h -7.005584 v -4.172847 c 0,-0.03346 -0.02201,-0.06059 -0.04974,-0.06059 H 16.98314 c -0.02773,0 -0.04974,0.02713 -0.04974,0.06059 v 4.172847 H 8.5166595 c -0.026811,0 -0.047849,0.02539 -0.049265,0.05729 v -0.05638 z m 18.3417554,0 h 4.236794 v 4.236793 H 26.80915 Z m -1.409738,5.587791 v 0.05876 4.229222 0.0073 H 8.4673946 v -0.0073 -4.229222 -0.05729 c 0.0014,0.0319 0.022454,0.05729 0.049265,0.05729 h 8.4167434 v 4.172847 c 0,0.03346 0.02201,0.06059 0.04974,0.06059 h 1.311207 c 0.02773,0 0.04974,-0.02713 0.04974,-0.06059 v -4.172847 h 7.005584 c 0.02727,0 0.04901,-0.02603 0.04974,-0.05876 z m -22.5785495,0.05876 h 4.2367938 v 4.229222 H 2.8208625 Z m 23.9882875,0 h 4.236794 v 4.229222 H 26.80915 Z M 2.8208625,26.820945 h 4.2367938 v 4.221641 H 2.8208625 Z m 5.6465321,0 h 8.4660084 v 4.221641 H 8.4673946 Z m 9.8757474,0 h 7.05627 v 4.221641 h -7.05627 z m 8.466008,0 h 4.236794 v 4.221641 H 26.80915 Z"
       id="path2380"
       style="fill:url(#a);stroke-width:0.91667002"
       inkscape:connector-curvature="0" />
    <rect
       height="9.8776751"
       rx="0.056314707"
       ry="0.060461722"
       width="12.699869"
       x="18.34428"
       y="21.166771"
       id="rect2382"
       style="fill:#cbffb0;stroke-width:0.91667002" />
    <path
       d="m 16.983142,19.755866 c -0.02773,0 -0.04974,0.02667 -0.04974,0.06013 v 1.350997 4.172847 c 0,0.03346 0.02201,0.06059 0.04974,0.06059 h 1.311208 c 0.02773,0 0.04974,-0.02713 0.04974,-0.06059 v -4.172847 h 7.005584 c 0.02727,0 0.04901,-0.02603 0.04974,-0.05876 v 0.05876 4.229213 0.0073 h -8.466009 v 1.417795 4.221632 1.352427 c 0,0.03346 0.02201,0.06013 0.04974,0.06013 H 32.405 c 0.02773,0 0.05022,-0.02668 0.05022,-0.06013 V 19.816229 c 0,-0.03346 -0.02249,-0.06013 -0.05022,-0.06013 h -1.359053 v 0.0018 H 26.80915 v -0.0018 h -1.409738 v 0.0018 0.05775 c -7.28e-4,-0.03273 -0.02247,-0.05876 -0.04974,-0.05876 h -7.005584 v -4.85e-4 z m 9.826008,1.411159 h 4.236794 v 4.229213 H 26.80915 Z m -8.466008,5.654112 h 7.05627 v 4.221632 h -7.05627 z m 8.466008,0 h 4.236794 v 4.221632 H 26.80915 Z"
       id="path2384"
       inkscape:connector-curvature="0"
       style="fill:#59ac17;stroke-width:0.91667002" />
    <g
       transform="matrix(0.6875025,0,0,0.6875025,0.35285698,-179.14121)"
       id="g2430">
      <rect
         height="1.068127"
         rx="0.054607999"
         ry="0.108462"
         width="23.283333"
         x="5.291667"
         y="292.76663"
         id="rect2386" />
      <rect
         height="7.1837349"
         rx="2.116667"
         transform="scale(1,-1)"
         width="30.787445"
         x="1.539372"
         y="-280.06686"
         id="rect2388"
         style="fill:#1d1d1d" />
      <rect
         height="12.314979"
         rx="0.058809001"
         ry="0.080615997"
         width="30.787445"
         x="1.539372"
         y="276.98813"
         id="rect2390"
         style="fill:url(#c)" />
      <rect
         height="5.1312251"
         rx="1.965476"
         ry="2.116667"
         transform="scale(1,-1)"
         width="27.195576"
         x="3.5918691"
         y="-279.04062"
         id="rect2392"
         style="fill:#b6b6b6" />
      <rect
         height="10.262475"
         rx="0.054607999"
         ry="0.073287003"
         width="26.682453"
         x="3.5918691"
         y="276.98813"
         id="rect2394"
         style="fill:url(#d)" />
      <rect
         height="8.7231216"
         rx="0.054607999"
         ry="0.079044998"
         width="22.064337"
         x="5.6443648"
         y="266.72565"
         id="rect2396"
         style="fill:#111012" />
      <rect
         height="6.9720469"
         rx="0.048540998"
         ry="0.065958001"
         width="18.472469"
         x="7.6968608"
         y="268.77814"
         id="rect2398"
         style="fill:#3e3c41" />
      <rect
         height="4.0405841"
         rx="0.055034999"
         ry="0.072665997"
         width="24.653723"
         x="4.6181169"
         y="273.90939"
         id="rect2400"
         style="fill:#28232c" />
      <rect
         height="14.367486"
         rx="0.063709997"
         ry="0.077950999"
         width="14.367475"
         x="9.7493582"
         y="262.62064"
         id="rect2402"
         style="fill:#9f9f9f;fill-opacity:0.99607801" />
      <rect
         height="10.262468"
         rx="0.054607999"
         ry="0.065958001"
         width="10.262482"
         x="11.801854"
         y="264.67316"
         id="rect2404"
         style="fill:url(#e)" />
      <path
         d="M 5.3917056,273.93783 H 28.575 c 0.0275,0 0.04964,0.0411 0.04964,0.092 v 4.35722 c 0,0.051 -0.03322,0.07 -0.04964,0.092 l -1.970778,2.64583 0.09624,1.5875 H 7.2662373 l 0.096246,-1.5875 -1.9707781,-2.64583 c -0.017928,-0.0241 -0.049642,-0.041 -0.049642,-0.092 v -4.35722 c 0,-0.051 0.02214,-0.092 0.049642,-0.092 z"
         style="fill:url(#f);stroke:#1f1f1f;stroke-width:0.79374999;stroke-linecap:square;stroke-linejoin:round;stroke-opacity:0.92488302"
         id="path2406"
         inkscape:connector-curvature="0" />
      <g
         id="g2414"
         style="fill-rule:evenodd">
        <path
           d="m 5.8208333,287.47497 -0.5291666,5.29167 H 28.575 l -0.529167,-5.29167 z"
           id="path2408"
           inkscape:connector-curvature="0"
           style="fill:#424245" />
        <path
           d="m 7.9212326,287.47983 -2.2768675,7.98076 H 28.221825 l -2.049007,-7.98076 z"
           id="path2410"
           inkscape:connector-curvature="0"
           style="fill:#434343" />
        <path
           d="m 8.471829,287.47983 -1.0576881,6.87841 H 26.452525 l -1.057688,-6.87841 z"
           id="path2412"
           style="fill:url(#g)"
           inkscape:connector-curvature="0" />
      </g>
      <rect
         height="2.261332"
         rx="0.054607999"
         ry="0.070465997"
         width="19.049999"
         x="7.4083328"
         y="285.35873"
         id="rect2416" />
      <rect
         height="1.963572"
         rx="0.054607999"
         ry="0.041278999"
         width="6.1574888"
         x="13.854351"
         y="281.18204"
         id="rect2418"
         style="fill:url(#h)" />
      <rect
         height="6.1574888"
         rx="0.081912003"
         ry="0.26664799"
         width="12.314979"
         x="10.775606"
         y="273.90939"
         id="rect2420"
         style="opacity:0.92000002;fill:url(#i)" />
      <rect
         height="4.0002251"
         rx="0.074395999"
         ry="0.16941699"
         width="11.951473"
         x="11.139112"
         y="273.90939"
         id="rect2422"
         style="fill:#986aae" />
      <rect
         height="3.0787449"
         rx="0.068259999"
         ry="0.13903099"
         width="10.788397"
         x="11.599673"
         y="273.90939"
         id="rect2424"
         style="fill:#c9b1d5" />
      <rect
         height="1.539372"
         rx="0.068259999"
         ry="0.070524998"
         width="9.2359953"
         x="12.315217"
         y="273.90939"
         id="rect2426"
         style="fill:#1d1d1d" />
      <path
         d="m 7.4083333,285.3583 -0.142096,-2.64583 H 26.700466 l -0.242133,2.64583 z"
         id="path2428"
         inkscape:connector-curvature="0"
         style="fill:#545156;fill-rule:evenodd" />
    </g>
    <g
       clip-path="url(#clipPath3045)"
       transform="matrix(0.35278017,0,0,0.35278017,-25.617071,-83.461424)"
       id="g2448">
      <ellipse
         cx="-207.73613"
         cy="212.29665"
         rx="20.523085"
         ry="20.523069"
         transform="matrix(-0.96592587,-0.2588189,-0.25881915,0.9659258,0,0)"
         id="ellipse2432"
         style="fill:none;stroke-width:0.57008499" />
      <ellipse
         cx="-59.830322"
         cy="-331.66757"
         rx="22.14249"
         ry="22.142477"
         transform="matrix(-0.89809327,0.23387197,-0.24064319,-0.8728227,12.164424,-15.390993)"
         id="ellipse2434"
         style="fill:#292929;filter:url(#j)" />
      <ellipse
         cx="-73.756378"
         cy="-287.72238"
         rx="20.523085"
         ry="20.523069"
         transform="rotate(165.00001)"
         id="ellipse2436"
         style="fill:url(#k)" />
      <circle
         cx="343.99899"
         cy="92"
         r="36"
         style="opacity:0.8;fill:none;stroke:url(#l);stroke-width:6.75138187;filter:url(#n)"
         transform="matrix(-0.55066046,-0.14754894,-0.14754899,0.55066008,348.7124,258.92482)"
         clip-path="url(#m)"
         id="circle2438" />
      <ellipse
         cx="-73.756401"
         cy="-287.72238"
         rx="16.931545"
         ry="16.931536"
         transform="rotate(165)"
         id="ellipse2440"
         style="fill:url(#o);stroke-width:0.470321" />
      <path
         d="m 120.01465,24.819615 v 9.194998 h -7.32125 v 3.970777 h 7.32125 v 9.194998 h 3.97076 V 37.98539 h 7.32126 v -3.970777 h -7.32126 v -9.194998 z"
         style="fill:none;stroke:url(#p);stroke-width:4;stroke-linecap:round;stroke-linejoin:round;filter:url(#q)"
         transform="matrix(1.2017106,0,0,1.2017106,-0.897549,217.33317)"
         id="path2442"
         inkscape:connector-curvature="0" />
      <path
         d="m 141.84828,244.34507 v 10.13508 h -10.13507 v 7.72576 h 10.13507 v 10.13508 h 7.7258 v -10.13508 h 10.13506 v -7.72576 h -10.13506 v -10.13508 z"
         id="path2444"
         inkscape:connector-curvature="0"
         style="fill:#ffffff;fill-rule:evenodd" />
      <path
         d="m 145.71127,240.96258 c -7.27803,0 -13.35947,5.13926 -14.82526,11.98165 2.92172,2.72366 8.46549,4.56161 14.82526,4.56161 6.35977,0 11.90353,-1.83795 14.82523,-4.56161 -1.46576,-6.84239 -7.54721,-11.98165 -14.82523,-11.98165 z"
         id="path2446"
         style="opacity:0.8;fill:url(#r);stroke-width:0.78978503"
         inkscape:connector-curvature="0" />
    </g>
  </g>
</svg>
