<?xml version="1.0" encoding="UTF-8" standalone="no"?>
<svg
   xmlns:dc="http://purl.org/dc/elements/1.1/"
   xmlns:cc="http://creativecommons.org/ns#"
   xmlns:rdf="http://www.w3.org/1999/02/22-rdf-syntax-ns#"
   xmlns:svg="http://www.w3.org/2000/svg"
   xmlns="http://www.w3.org/2000/svg"
   xmlns:xlink="http://www.w3.org/1999/xlink"
   xmlns:sodipodi="http://sodipodi.sourceforge.net/DTD/sodipodi-0.dtd"
   xmlns:inkscape="http://www.inkscape.org/namespaces/inkscape"
   height="128"
   viewBox="0 0 33.866666 33.866668"
   width="128"
   version="1.1"
   id="svg61"
   sodipodi:docname="lc_alphaliststyle.svg"
   inkscape:version="0.92.3 (unknown)"
   inkscape:export-filename="/home/rizmut/Dokumen/Rizmut/Github/libreoffice-style-karasa-jaga/build/next/cmd/lc_alphaliststyle.png"
   inkscape:export-xdpi="18"
   inkscape:export-ydpi="18">
  <metadata
     id="metadata67">
    <rdf:RDF>
      <cc:Work
         rdf:about="">
        <dc:format>image/svg+xml</dc:format>
        <dc:type
           rdf:resource="http://purl.org/dc/dcmitype/StillImage" />
        <dc:title></dc:title>
      </cc:Work>
    </rdf:RDF>
  </metadata>
  <defs
     id="defs65" />
  <sodipodi:namedview
     pagecolor="#ffffff"
     bordercolor="#666666"
     borderopacity="1"
     objecttolerance="10"
     gridtolerance="10"
     guidetolerance="10"
     inkscape:pageopacity="0"
     inkscape:pageshadow="2"
     inkscape:window-width="1366"
     inkscape:window-height="706"
     id="namedview63"
     showgrid="true"
     inkscape:zoom="2.6074563"
     inkscape:cx="116.5958"
     inkscape:cy="29.173463"
     inkscape:window-x="0"
     inkscape:window-y="0"
     inkscape:window-maximized="1"
     inkscape:current-layer="svg61">
    <inkscape:grid
       type="xygrid"
       id="grid877"
       spacingx="1.4111102"
       spacingy="1.4111102"
       empspacing="1" />
  </sodipodi:namedview>
  <linearGradient
     id="a"
     gradientUnits="userSpaceOnUse"
     x1="5.744856"
     x2="6.541121"
     xlink:href="#b"
     y1="288.61456"
     y2="276.18652" />
  <linearGradient
     id="b">
    <stop
       offset="0"
       stop-color="#06f"
       id="stop3" />
    <stop
       offset="1"
       stop-color="#80b3ff"
       id="stop5" />
  </linearGradient>
  <linearGradient
     id="c"
     gradientUnits="userSpaceOnUse"
     x1="6.540745"
     x2="7.68603"
     xlink:href="#b"
     y1="271.0806"
     y2="261.5257" />
  <linearGradient
     id="d"
     gradientUnits="userSpaceOnUse"
     x1="4.8909636"
     x2="4.8909636"
     xlink:href="#b"
     y1="289.019339"
     y2="280.556658" />
  <linearGradient
     id="e"
     gradientUnits="userSpaceOnUse"
     x1="6.74257172322"
     x2="6.74257172322"
     xlink:href="#b"
     y1="281.54529393406"
     y2="270.07014160935" />
  <g
     fill="#555"
     id="g43">
    <path
       d="M 12.699992,2.8222426 H 31.044424 V 4.2333528 H 12.699992 Z"
       id="path31"
       inkscape:connector-curvature="0"
       sodipodi:nodetypes="ccccc" />
    <path
       d="M 12.699992,7.0555732 H 31.044424 V 8.4666834 H 12.699992 Z"
       id="path33"
       inkscape:connector-curvature="0"
       sodipodi:nodetypes="ccccc" />
    <path
       d="m 12.699992,11.288904 h 14.111102 v 1.41111 H 12.699992 Z"
       id="path35"
       inkscape:connector-curvature="0"
       sodipodi:nodetypes="ccccc" />
    <path
       sodipodi:nodetypes="ccccc"
       inkscape:connector-curvature="0"
       id="path879"
       d="m 12.699992,19.755565 h 18.344432 v 1.41111 H 12.699992 Z" />
    <path
       sodipodi:nodetypes="ccccc"
       inkscape:connector-curvature="0"
       id="path881"
       d="m 12.699992,23.988896 h 18.344432 v 1.41111 H 12.699992 Z" />
    <path
       sodipodi:nodetypes="ccccc"
       inkscape:connector-curvature="0"
       id="path883"
       d="m 12.699992,28.222226 h 14.111102 v 1.41111 H 12.699992 Z" />
  </g>
  <g
     transform="matrix(1.2 0 0 1.2 -1.121999 -317.269257)"
     id="g51">
    <path
       d="m4.8046875 265.98828a1.4134104 1.4134104 0 0 0 -1.328125.92969l-2.390625 6.55469a1.4134104 1.4134104 0 0 0 1.328125 1.89843h1.3710937a1.4134104 1.4134104 0 0 0 1.3359376-.95117l.2519531-.72461h.4863281l.25.72461a1.4134104 1.4134104 0 0 0 1.3359375.95117h1.359375a1.4134104 1.4134104 0 0 0 1.3281245-1.89648l-2.382812-6.55469a1.4134104 1.4134104 0 0 0 -1.328125-.93164z"
       fill="url(#c)"
       id="path45" />
    <text
       style="font-size:10.583333;font-family:sans-serif;letter-spacing:0;word-spacing:0;fill:#bfd9ff;stroke-width:.264583"
       x="2.176407"
       y="273.95627"
       id="text49">
      <tspan
         fill="#bfd9ff"
         font-family="Liberation Sans"
         font-size="9.525"
         font-weight="bold"
         stroke-width=".264583"
         x="2.176407"
         y="273.95627"
         id="tspan47">A</tspan>
    </text>
  </g>
  <g
     transform="matrix(1.2 0 0 1.2 -1.088199 -320.655279)"
     id="g59">
    <path
       d="m2.5371094 282.82422a1.5125787 1.5125787 0 0 0 -1.5117188 1.51172v6.55273a1.5125787 1.5125787 0 0 0 1.5117188 1.51172h3.2792968c.4418691 0 .8786599-.0421 1.3046876-.13672a1.5125787 1.5125787 0 0 0 .013672-.004c.4515009-.10489.889414-.27651 1.2851563-.53321a1.5125787 1.5125787 0 0 0 .00586-.004c.4231267-.27645.7873616-.66209 1.0371094-1.10352a1.5125787 1.5125787 0 0 0 .00391-.006c.2796684-.50081.390625-1.06173.390625-1.59375 0-.66403-.3235038-1.34231-.7675781-1.88867.1580271-.3855.390625-.75402.390625-1.14844 0-.46812-.096949-.96679-.3339844-1.41992-.2271814-.44119-.5786607-.82206-.9804688-1.08594-.4005609-.263-.8345744-.41887-1.2734375-.51367-.4299337-.0966-.8794987-.13867-1.3554687-.13867zm6.4414062 4.0332.011719.0117c-.00221-.002-.0056-.002-.00781-.004-.00215-.002-.00174-.006-.00391-.008z"
       fill="url(#a)"
       id="path53" />
    <text
       style="font-size:10.583333;font-family:sans-serif;letter-spacing:0;word-spacing:0;fill:#bfd9ff;stroke-width:.264583"
       x="1.899845"
       y="290.88937"
       id="text57">
      <tspan
         fill="#bfd9ff"
         font-family="Liberation Sans"
         font-size="9.525"
         font-weight="bold"
         stroke-width=".264583"
         x="1.899845"
         y="290.88937"
         id="tspan55">B</tspan>
    </text>
  </g>
</svg>
