<?xml version="1.0" encoding="UTF-8" standalone="no"?>
<svg
   xmlns:dc="http://purl.org/dc/elements/1.1/"
   xmlns:cc="http://creativecommons.org/ns#"
   xmlns:rdf="http://www.w3.org/1999/02/22-rdf-syntax-ns#"
   xmlns:svg="http://www.w3.org/2000/svg"
   xmlns="http://www.w3.org/2000/svg"
   xmlns:sodipodi="http://sodipodi.sourceforge.net/DTD/sodipodi-0.dtd"
   xmlns:inkscape="http://www.inkscape.org/namespaces/inkscape"
   height="24"
   viewBox="0 0 24 24"
   width="24"
   version="1.1"
   id="svg24"
   sodipodi:docname="lc_basicshapes.block-arc.svg"
   inkscape:export-filename="/home/rizmut/Dokumen/Rizmut/Github/libreoffice-style-karasa-jaga/build/next/cmd/lc_basicshapes.block-arc.png"
   inkscape:export-xdpi="96"
   inkscape:export-ydpi="96"
   inkscape:version="0.92.4 (unknown)">
  <metadata
     id="metadata30">
    <rdf:RDF>
      <cc:Work
         rdf:about="">
        <dc:format>image/svg+xml</dc:format>
        <dc:type
           rdf:resource="http://purl.org/dc/dcmitype/StillImage" />
      </cc:Work>
    </rdf:RDF>
  </metadata>
  <defs
     id="defs28" />
  <sodipodi:namedview
     pagecolor="#ffffff"
     bordercolor="#666666"
     borderopacity="1"
     objecttolerance="10"
     gridtolerance="10"
     guidetolerance="10"
     inkscape:pageopacity="0"
     inkscape:pageshadow="2"
     inkscape:window-width="1366"
     inkscape:window-height="706"
     id="namedview26"
     showgrid="false"
     inkscape:zoom="9.8333333"
     inkscape:cx="-1.0677966"
     inkscape:cy="12"
     inkscape:window-x="0"
     inkscape:window-y="0"
     inkscape:window-maximized="1"
     inkscape:current-layer="svg24" />
  <linearGradient
     id="a"
     gradientUnits="userSpaceOnUse"
     x1="12"
     x2="12"
     y1="16"
     y2="4">
    <stop
       offset="0"
       stop-color="#fff"
       id="stop2" />
    <stop
       offset=".39715832"
       stop-color="#fff"
       id="stop4" />
    <stop
       offset=".79970485"
       stop-color="#f1f1f1"
       id="stop6" />
    <stop
       offset=".90234375"
       stop-color="#eaeaea"
       id="stop8" />
    <stop
       offset="1"
       stop-color="#dfdfdf"
       id="stop10" />
  </linearGradient>
  <linearGradient
     id="b"
     gradientUnits="userSpaceOnUse"
     x1="1"
     x2="23"
     y1="11"
     y2="11">
    <stop
       offset="0"
       stop-color="#7c9fcf"
       id="stop13" />
    <stop
       offset=".5"
       stop-color="#7c9ece"
       id="stop15" />
    <stop
       offset="1"
       stop-color="#7b9dcf"
       id="stop17" />
  </linearGradient>
  <path
     d="m12 5c-6.0751322 0-11 4.9248678-11 11v1h.0507812 1.0097657 4.0292969.9101562v-1c0-2.761424 2.2385763-5 5-5 2.761424 0 5 2.238576 5 5v1h.914062 4.035157.996093.054688v-1c0-6.0751322-4.924868-11-11-11zm0 1c5.522847 0 10 4.477153 10 10h-4c0-3.313708-2.686292-6-6-6-3.3137085 0-6 2.686292-6 6h-4c0-5.522847 4.4771525-10 10-10z"
     fill="url(#b)"
     id="path20" />
  <path
     d="m12 6a10 10 0 0 0 -10 10h4c0-3.313708 2.6862915-6 6-6 3.313708 0 6 2.686292 6 6h4a10 10 0 0 0 -10-10z"
     fill="url(#a)"
     id="path22" />
</svg>
