<svg height="24" viewBox="0 0 24 24" width="24" xmlns="http://www.w3.org/2000/svg" xmlns:xlink="http://www.w3.org/1999/xlink"><linearGradient id="a" gradientUnits="userSpaceOnUse" x1="59.971829" x2="59.971829" y1="128.4507394" y2="-.450739"><stop offset="0" stop-color="#fff"/><stop offset=".46428573" stop-color="#fff"/><stop offset=".78125" stop-color="#f1f1f1"/><stop offset=".90625" stop-color="#eaeaea"/><stop offset="1" stop-color="#dfdfdf"/></linearGradient><linearGradient id="b" gradientUnits="userSpaceOnUse" x1="15.6619458" x2="112.3380546" y1="64.0000002" y2="64.0000002"><stop offset="0" stop-color="#7c9fcf"/><stop offset=".5" stop-color="#7c9ece"/><stop offset="1" stop-color="#7b9dcf"/></linearGradient><g stroke-width="1.157932"><path d="m9.8439272 5.8165842c-2.2244323-.000464-4.027807 1.8029107-4.027343 4.027343l.0006976 42.5206088-.0006976 65.791534c-.0004624 2.22443 1.8029118 4.02781 4.027343 4.02734l13.4278998-.00069 94.884243.00069c2.22443.00046 4.0278-1.80291 4.02734-4.02734l-.002-48.336988.002-59.9751548c.00047-2.2244312-1.80291-4.0278054-4.02734-4.027343l-94.884243.0025z" fill="url(#b)" transform="matrix(.17187499928 0 0 .17187499928 1.00015504567 .99984504567)"/><path d="m11.635464 11.637263v104.727277h104.727276v-104.727277z" fill="url(#a)" transform="matrix(.17187499928 0 0 .17187499928 1.00015504567 .99984504567)"/></g></svg>