<?xml version="1.0" encoding="UTF-8" standalone="no"?>
<svg
   xmlns:dc="http://purl.org/dc/elements/1.1/"
   xmlns:cc="http://creativecommons.org/ns#"
   xmlns:rdf="http://www.w3.org/1999/02/22-rdf-syntax-ns#"
   xmlns:svg="http://www.w3.org/2000/svg"
   xmlns="http://www.w3.org/2000/svg"
   xmlns:xlink="http://www.w3.org/1999/xlink"
   xmlns:sodipodi="http://sodipodi.sourceforge.net/DTD/sodipodi-0.dtd"
   xmlns:inkscape="http://www.inkscape.org/namespaces/inkscape"
   height="24"
   viewBox="0 0 6.3499999 6.3500002"
   width="24"
   version="1.1"
   id="svg36"
   sodipodi:docname="lc_bezierconvert.svg"
   inkscape:version="0.92.4 (unknown)"
   inkscape:export-filename="/home/rizmut/Dokumen/Rizmut/Github/libreoffice-style-karasa-jaga/src/next/cmd/lc_bezierconvert.png"
   inkscape:export-xdpi="96"
   inkscape:export-ydpi="96">
  <metadata
     id="metadata42">
    <rdf:RDF>
      <cc:Work
         rdf:about="">
        <dc:format>image/svg+xml</dc:format>
        <dc:type
           rdf:resource="http://purl.org/dc/dcmitype/StillImage" />
        <dc:title></dc:title>
      </cc:Work>
    </rdf:RDF>
  </metadata>
  <defs
     id="defs40">
    <linearGradient
       inkscape:collect="always"
       xlink:href="#a"
       id="linearGradient851"
       gradientUnits="userSpaceOnUse"
       x1="31.750008"
       y1="48.000015"
       x2="34.499989"
       y2="72.750015" />
    <radialGradient
       inkscape:collect="always"
       xlink:href="#a"
       id="radialGradient853"
       gradientUnits="userSpaceOnUse"
       gradientTransform="matrix(5.297908,0,0,5.2979189,-354.76495,-52.461151)"
       cx="72.631729"
       cy="22.787588"
       r="1.265237" />
    <linearGradient
       inkscape:collect="always"
       xlink:href="#d"
       id="linearGradient855"
       gradientUnits="userSpaceOnUse"
       x1="27.579626"
       y1="57.197716"
       x2="30.679226"
       y2="68.765579" />
    <linearGradient
       inkscape:collect="always"
       xlink:href="#d"
       id="linearGradient857"
       gradientUnits="userSpaceOnUse"
       x1="27.579626"
       y1="57.197716"
       x2="30.679226"
       y2="68.765579" />
  </defs>
  <sodipodi:namedview
     pagecolor="#ffffff"
     bordercolor="#666666"
     borderopacity="1"
     objecttolerance="10"
     gridtolerance="10"
     guidetolerance="10"
     inkscape:pageopacity="0"
     inkscape:pageshadow="2"
     inkscape:window-width="1366"
     inkscape:window-height="714"
     id="namedview38"
     showgrid="true"
     inkscape:zoom="10.226117"
     inkscape:cx="11.539215"
     inkscape:cy="-1.4821147"
     inkscape:window-x="0"
     inkscape:window-y="28"
     inkscape:window-maximized="1"
     inkscape:current-layer="g881">
    <inkscape:grid
       type="xygrid"
       id="grid849" />
  </sodipodi:namedview>
  <linearGradient
     id="a">
    <stop
       offset="0"
       stop-color="#fd0000"
       id="stop2" />
    <stop
       offset="1"
       stop-color="#8f0000"
       id="stop4" />
  </linearGradient>
  <linearGradient
     id="b"
     gradientUnits="userSpaceOnUse"
     x1="31.750008"
     x2="34.499989"
     xlink:href="#a"
     y1="48.000015"
     y2="72.750015" />
  <radialGradient
     id="c"
     cx="72.631729"
     cy="22.787588"
     gradientTransform="matrix(5.297908,0,0,5.2979189,-354.76495,-52.461151)"
     gradientUnits="userSpaceOnUse"
     r="1.265237"
     xlink:href="#a" />
  <linearGradient
     id="d"
     gradientUnits="userSpaceOnUse"
     x1="27.579626"
     x2="30.679226"
     y1="57.197716"
     y2="68.765579">
    <stop
       offset="0"
       stop-color="#fff"
       id="stop9" />
    <stop
       offset="1"
       stop-color="#fff"
       stop-opacity="0"
       id="stop11" />
  </linearGradient>
  <g
     id="g881"
     transform="matrix(0.171875,0,0,0.171875,0.26458318,0.26458318)">
    <path
       style="opacity:1;fill:#4c4c4c;fill-opacity:0.97647059;stroke:none;stroke-width:0.2;stroke-miterlimit:4;stroke-dasharray:none;stroke-opacity:1"
       d="M 16 5 A 12.000001 12.000001 0 0 0 4 17 L 4 19 L 5 19 L 5 17 A 11.000001 11.000001 0 0 1 16 6 L 18 6 L 18 5 L 16 5 z "
       transform="matrix(1.539394,0,0,1.539394,-1.539393,-1.539393)"
       id="path891" />
    <g
       transform="matrix(0.38484967,0,0,0.38484967,-6.146922,3.0764579)"
       id="g20">
      <rect
         height="12"
         rx="1.546875"
         width="12"
         x="24"
         y="60"
         id="rect14"
         style="fill:url(#linearGradient851)" />
      <rect
         height="8.937499"
         rx="0.83789098"
         width="8.9375029"
         x="25.562511"
         y="61.5625"
         id="rect16"
         style="fill:url(#radialGradient853)" />
      <path
         d="m 26.428317,61.562516 c -0.464192,0 -0.837891,0.3737 -0.837891,0.837891 v 4.224364 c 0.679121,0.06455 1.378207,0.104736 2.094726,0.104736 2.578772,0 4.95135,-0.434878 6.842772,-1.169555 v -3.159545 c 0,-0.464191 -0.373698,-0.837891 -0.837891,-0.837891 z"
         id="path18"
         style="fill:url(#linearGradient855)"
         inkscape:connector-curvature="0" />
    </g>
    <g
       transform="matrix(0.38484967,0,0,0.38484967,16.932976,-18.47242)"
       id="g30">
      <rect
         height="12"
         rx="1.546875"
         width="12"
         x="24"
         y="60"
         id="rect24"
         style="fill:url(#b)" />
      <rect
         height="8.937499"
         rx="0.83789098"
         width="8.9375029"
         x="25.562511"
         y="61.5625"
         id="rect26"
         style="fill:url(#c)" />
      <path
         d="m 26.428317,61.562516 c -0.464192,0 -0.837891,0.3737 -0.837891,0.837891 v 4.224364 c 0.679121,0.06455 1.378207,0.104736 2.094726,0.104736 2.578772,0 4.95135,-0.434878 6.842772,-1.169555 v -3.159545 c 0,-0.464191 -0.373698,-0.837891 -0.837891,-0.837891 z"
         id="path28"
         style="fill:url(#linearGradient857)"
         inkscape:connector-curvature="0" />
    </g>
  </g>
</svg>
