<?xml version="1.0" encoding="UTF-8" standalone="no"?>
<svg
   xmlns:dc="http://purl.org/dc/elements/1.1/"
   xmlns:cc="http://creativecommons.org/ns#"
   xmlns:rdf="http://www.w3.org/1999/02/22-rdf-syntax-ns#"
   xmlns:svg="http://www.w3.org/2000/svg"
   xmlns="http://www.w3.org/2000/svg"
   xmlns:xlink="http://www.w3.org/1999/xlink"
   xmlns:sodipodi="http://sodipodi.sourceforge.net/DTD/sodipodi-0.dtd"
   xmlns:inkscape="http://www.inkscape.org/namespaces/inkscape"
   height="24"
   viewBox="0 0 6.3499999 6.3500002"
   width="24"
   version="1.1"
   id="svg98"
   sodipodi:docname="lc_bezierinsert.svg"
   inkscape:export-filename="/home/rizmut/Dokumen/Rizmut/Github/libreoffice-style-karasa-jaga/src/next/cmd/lc_bezierinsert.png"
   inkscape:export-xdpi="96"
   inkscape:export-ydpi="96"
   inkscape:version="0.92.4 (unknown)">
  <metadata
     id="metadata104">
    <rdf:RDF>
      <cc:Work
         rdf:about="">
        <dc:format>image/svg+xml</dc:format>
        <dc:type
           rdf:resource="http://purl.org/dc/dcmitype/StillImage" />
        <dc:title></dc:title>
      </cc:Work>
    </rdf:RDF>
  </metadata>
  <defs
     id="defs102">
    <radialGradient
       id="J"
       cx="84.903702"
       cy="-130.14005"
       gradientTransform="matrix(0.30794145,0.30794145,-0.30794145,0.30794145,49.969462,110.90745)"
       gradientUnits="userSpaceOnUse"
       r="57.039597"
       xlink:href="#K" />
    <linearGradient
       id="K">
      <stop
         offset="0"
         stop-color="#011701"
         id="stop4118" />
      <stop
         offset=".80671918"
         stop-color="#145703"
         id="stop4120" />
      <stop
         offset="1"
         stop-color="#2fa207"
         stop-opacity=".384314"
         id="stop4122" />
    </linearGradient>
    <radialGradient
       id="L"
       cx="43.084476"
       cy="-121.92532"
       gradientTransform="matrix(0.30347528,0.31234377,-0.3628951,0.35259129,43.461643,116.16172)"
       gradientUnits="userSpaceOnUse"
       r="57.039597"
       xlink:href="#K" />
    <radialGradient
       id="M"
       cx="51.991096"
       cy="-78.028419"
       gradientTransform="matrix(0.28232256,0.33158686,-0.56115095,0.47778001,31.543879,122.93033)"
       gradientUnits="userSpaceOnUse"
       r="57.039597"
       xlink:href="#K" />
    <linearGradient
       id="N"
       gradientTransform="scale(1.0975951,0.9110828)"
       gradientUnits="userSpaceOnUse"
       x1="26.091133"
       x2="31.500689"
       xlink:href="#e"
       y1="14.856744"
       y2="14.856744" />
    <linearGradient
       id="linearGradient1083">
      <stop
         offset="0"
         stop-color="#fff"
         id="stop4018" />
      <stop
         offset="1"
         stop-color="#fff"
         stop-opacity="0"
         id="stop4020" />
    </linearGradient>
    <filter
       id="O"
       height="1.277481"
       width="1.279832"
       x="-0.139916"
       y="-0.138741">
      <feGaussianBlur
         stdDeviation=".28784801"
         id="feGaussianBlur4128" />
    </filter>
    <filter
       id="filter4696"
       height="1.277481"
       width="1.279832"
       x="-0.139916"
       y="-0.138741">
      <feGaussianBlur
         stdDeviation=".28784801"
         id="feGaussianBlur4694" />
    </filter>
    <linearGradient
       id="P"
       gradientUnits="userSpaceOnUse"
       spreadMethod="pad"
       x1="33.346737"
       x2="32.553017"
       xlink:href="#e"
       y1="11.842831"
       y2="16.361324" />
    <filter
       id="filter4707"
       height="1.277481"
       width="1.279832"
       x="-0.139916"
       y="-0.138741">
      <feGaussianBlur
         stdDeviation=".28784801"
         id="feGaussianBlur4705" />
    </filter>
    <linearGradient
       id="Q"
       gradientUnits="userSpaceOnUse"
       spreadMethod="reflect"
       x1="88.606247"
       x2="91.575104"
       y1="13.510336"
       y2="13.510336">
      <stop
         offset="0"
         stop-color="#c8ff87"
         id="stop4132" />
      <stop
         offset="1"
         stop-color="#abff87"
         stop-opacity="0"
         id="stop4134" />
    </linearGradient>
    <filter
       id="filter4714"
       height="1.277481"
       width="1.279832"
       x="-0.139916"
       y="-0.138741">
      <feGaussianBlur
         stdDeviation=".28784801"
         id="feGaussianBlur4712" />
    </filter>
    <linearGradient
       id="R"
       gradientUnits="userSpaceOnUse"
       spreadMethod="reflect"
       x1="31.606251"
       x2="34.575108"
       y1="13.510336"
       y2="13.510336">
      <stop
         offset="0"
         stop-color="#fff"
         id="stop4137" />
      <stop
         offset="1"
         stop-color="#790000"
         stop-opacity="0"
         id="stop4139" />
    </linearGradient>
    <filter
       id="filter4721"
       height="1.277481"
       width="1.279832"
       x="-0.139916"
       y="-0.138741">
      <feGaussianBlur
         stdDeviation=".28784801"
         id="feGaussianBlur4719" />
    </filter>
    <filter
       id="filter4731"
       height="1.277481"
       width="1.279832"
       x="-0.139916"
       y="-0.138741">
      <feGaussianBlur
         stdDeviation=".28784801"
         id="feGaussianBlur4729" />
    </filter>
    <filter
       id="filter4741"
       height="1.277481"
       width="1.279832"
       x="-0.139916"
       y="-0.138741">
      <feGaussianBlur
         stdDeviation=".28784801"
         id="feGaussianBlur4739" />
    </filter>
    <filter
       id="filter4751"
       height="1.277481"
       width="1.279832"
       x="-0.139916"
       y="-0.138741">
      <feGaussianBlur
         stdDeviation=".28784801"
         id="feGaussianBlur4749" />
    </filter>
    <radialGradient
       id="S"
       cx="50.424522"
       cy="-81.945961"
       gradientTransform="matrix(0.30794145,0.30794145,-0.30794145,0.30794145,49.969461,110.90745)"
       gradientUnits="userSpaceOnUse"
       r="50.15279">
      <stop
         offset="0"
         stop-color="#7ae91e"
         stop-opacity=".996078"
         id="stop4142" />
      <stop
         offset="1"
         stop-color="#62c916"
         id="stop4144" />
    </radialGradient>
    <filter
       style="color-interpolation-filters:sRGB"
       id="T"
       height="1.024"
       width="1.024"
       x="-0.012"
       y="-0.012">
      <feGaussianBlur
         stdDeviation=".28192153"
         id="feGaussianBlur4147" />
    </filter>
    <linearGradient
       id="U"
       gradientUnits="userSpaceOnUse"
       x1="88.223732"
       x2="101.11488"
       xlink:href="#e"
       y1="51.615383"
       y2="113.91425" />
    <linearGradient
       spreadMethod="reflect"
       y2="13.510336"
       x2="91.575104"
       y1="13.510336"
       x1="88.606247"
       gradientUnits="userSpaceOnUse"
       id="linearGradient4785"
       xlink:href="#Q"
       inkscape:collect="always" />
    <linearGradient
       spreadMethod="reflect"
       y2="13.510336"
       x2="34.575108"
       y1="13.510336"
       x1="31.606251"
       gradientUnits="userSpaceOnUse"
       id="linearGradient4787"
       xlink:href="#R"
       inkscape:collect="always" />
    <linearGradient
       inkscape:collect="always"
       xlink:href="#e"
       id="linearGradient1134"
       gradientUnits="userSpaceOnUse"
       gradientTransform="scale(1.0975951,0.9110828)"
       x1="26.091133"
       y1="14.856744"
       x2="31.500689"
       y2="14.856744" />
    <linearGradient
       inkscape:collect="always"
       xlink:href="#Q"
       id="linearGradient1136"
       gradientUnits="userSpaceOnUse"
       x1="88.606247"
       y1="13.510336"
       x2="91.575104"
       y2="13.510336"
       spreadMethod="reflect" />
    <linearGradient
       inkscape:collect="always"
       xlink:href="#R"
       id="linearGradient1138"
       gradientUnits="userSpaceOnUse"
       x1="31.606251"
       y1="13.510336"
       x2="34.575108"
       y2="13.510336"
       spreadMethod="reflect" />
    <linearGradient
       inkscape:collect="always"
       xlink:href="#Q"
       id="linearGradient1140"
       gradientUnits="userSpaceOnUse"
       x1="88.606247"
       y1="13.510336"
       x2="91.575104"
       y2="13.510336"
       spreadMethod="reflect" />
  </defs>
  <sodipodi:namedview
     pagecolor="#ffffff"
     bordercolor="#666666"
     borderopacity="1"
     objecttolerance="10"
     gridtolerance="10"
     guidetolerance="10"
     inkscape:pageopacity="0"
     inkscape:pageshadow="2"
     inkscape:window-width="1366"
     inkscape:window-height="714"
     id="namedview100"
     showgrid="true"
     inkscape:snap-global="false"
     inkscape:zoom="14.461914"
     inkscape:cx="10.790536"
     inkscape:cy="7.6842954"
     inkscape:window-x="0"
     inkscape:window-y="28"
     inkscape:window-maximized="1"
     inkscape:current-layer="g976">
    <inkscape:grid
       type="xygrid"
       id="grid911" />
  </sodipodi:namedview>
  <linearGradient
     id="a"
     gradientUnits="userSpaceOnUse"
     x1="31.750008"
     x2="34.499989"
     xlink:href="#b"
     y1="48.000015"
     y2="72.750015" />
  <linearGradient
     id="b">
    <stop
       offset="0"
       stop-color="#fd0000"
       id="stop3" />
    <stop
       offset="1"
       stop-color="#8f0000"
       id="stop5" />
  </linearGradient>
  <radialGradient
     id="c"
     cx="72.631729"
     cy="22.787588"
     gradientTransform="matrix(5.297908,0,0,5.2979189,-354.76495,-52.461151)"
     gradientUnits="userSpaceOnUse"
     r="1.265237"
     xlink:href="#b" />
  <linearGradient
     id="d"
     gradientUnits="userSpaceOnUse"
     x1="27.579626"
     x2="30.679226"
     xlink:href="#e"
     y1="57.197716"
     y2="68.765579" />
  <linearGradient
     id="e">
    <stop
       offset="0"
       stop-color="#fff"
       id="stop10" />
    <stop
       offset="1"
       stop-color="#fff"
       stop-opacity="0"
       id="stop12" />
  </linearGradient>
  <linearGradient
     id="f">
    <stop
       offset="0"
       stop-color="#765c44"
       id="stop15" />
    <stop
       offset="1"
       stop-color="#765c44"
       stop-opacity="0"
       id="stop17" />
  </linearGradient>
  <radialGradient
     id="g"
     cx="84.903702"
     cy="-130.14005"
     gradientTransform="matrix(0.04899496,-0.04899496,0.04899496,0.04899496,27.763383,298.48358)"
     gradientUnits="userSpaceOnUse"
     r="57.039597"
     xlink:href="#h" />
  <linearGradient
     id="h">
    <stop
       offset="0"
       stop-color="#3a0b02"
       id="stop21" />
    <stop
       offset="1"
       stop-color="#a21d07"
       stop-opacity=".382353"
       id="stop23" />
  </linearGradient>
  <radialGradient
     id="i"
     cx="2.7207029"
     cy="-66.273438"
     gradientTransform="matrix(0.04899496,-0.04899496,0.04899496,0.04899496,27.763383,298.48358)"
     gradientUnits="userSpaceOnUse"
     r="57.039597"
     xlink:href="#h" />
  <radialGradient
     id="j"
     cx="51.991096"
     cy="-78.028419"
     gradientTransform="matrix(0.04899496,-0.04899496,0.04899496,0.04899496,27.763383,298.48358)"
     gradientUnits="userSpaceOnUse"
     r="57.039597"
     xlink:href="#h" />
  <linearGradient
     id="k"
     gradientTransform="scale(1.0975951,0.9110828)"
     gradientUnits="userSpaceOnUse"
     x1="26.091133"
     x2="31.500689"
     xlink:href="#f"
     y1="14.856744"
     y2="14.856744" />
  <filter
     id="l"
     height="1.277481"
     width="1.279832"
     x="-0.139916"
     y="-0.138741">
    <feGaussianBlur
       stdDeviation=".28784801"
       id="feGaussianBlur29" />
  </filter>
  <linearGradient
     id="m"
     gradientUnits="userSpaceOnUse"
     spreadMethod="reflect"
     x1="88.606247"
     x2="91.575104"
     y1="13.510336"
     y2="13.510336">
    <stop
       offset="0"
       stop-color="#ff8787"
       id="stop32" />
    <stop
       offset="1"
       stop-color="#ff8787"
       stop-opacity="0"
       id="stop34" />
  </linearGradient>
  <radialGradient
     id="n"
     cx="50.424522"
     cy="-81.945961"
     gradientTransform="matrix(0.04899496,-0.04899496,0.04899496,0.04899496,27.763382,298.48358)"
     gradientUnits="userSpaceOnUse"
     r="50.15279">
    <stop
       offset="0"
       stop-color="#db3424"
       id="stop37" />
    <stop
       offset="1"
       stop-color="#b32016"
       id="stop39" />
  </radialGradient>
  <linearGradient
     id="o"
     gradientTransform="matrix(0.04899496,-0.04899496,0.04899496,0.04899496,27.763383,298.48358)"
     gradientUnits="userSpaceOnUse"
     x1="50.06789"
     x2="59.441998"
     y1="-154.40843"
     y2="-71.617722">
    <stop
       offset="0"
       stop-color="#fff"
       id="stop42" />
    <stop
       offset="1"
       stop-color="#fcf3f3"
       stop-opacity="0"
       id="stop44" />
  </linearGradient>
  <linearGradient
     id="p"
     gradientTransform="scale(1.0975951,0.9110828)"
     gradientUnits="userSpaceOnUse"
     x1="26.091133"
     x2="31.500689"
     xlink:href="#e"
     y1="14.856744"
     y2="14.856744" />
  <linearGradient
     id="q"
     gradientUnits="userSpaceOnUse"
     x1="304.88663"
     x2="345.62039"
     xlink:href="#f"
     y1="385.86127"
     y2="384.62384" />
  <linearGradient
     id="r"
     gradientUnits="userSpaceOnUse"
     spreadMethod="reflect"
     x1="31.606251"
     x2="34.575108"
     y1="13.510336"
     y2="13.510336">
    <stop
       offset="0"
       stop-color="#fff"
       id="stop49" />
    <stop
       offset="1"
       stop-color="#790000"
       stop-opacity="0"
       id="stop51" />
  </linearGradient>
  <g
     id="g976"
     transform="matrix(0.171875,0,0,0.171875,0.26458318,0.26458318)">
    <path
       d="m -1.539393,12.315156 h 36.945455 v 1.53939 H -1.539393 Z"
       id="path56"
       inkscape:connector-curvature="0"
       style="opacity:0.98999999;fill:#4d4d4d;fill-opacity:0.99215698;stroke-width:1.04447329" />
    <g
       transform="matrix(0.38484968,0,0,0.38484968,4.6237978,-12.310264)"
       id="g64">
      <rect
         height="12"
         rx="1.546875"
         width="12"
         x="24"
         y="60"
         id="rect58"
         style="fill:url(#a)" />
      <rect
         height="8.937499"
         rx="0.83789098"
         width="8.9375029"
         x="25.562511"
         y="61.5625"
         id="rect60"
         style="fill:url(#c)" />
      <path
         d="m 26.428317,61.562516 c -0.464192,0 -0.837891,0.3737 -0.837891,0.837891 v 4.224364 c 0.679121,0.06455 1.378207,0.104736 2.094726,0.104736 2.578772,0 4.95135,-0.434878 6.842772,-1.169555 v -3.159545 c 0,-0.464191 -0.373698,-0.837891 -0.837891,-0.837891 z"
         id="path62"
         style="fill:url(#d)"
         inkscape:connector-curvature="0" />
    </g>
    <g
       transform="matrix(0.28863726,0,0,0.28863726,-1.5578638,-1.5681326)"
       id="g4273">
      <path
         style="fill:#1f5623;fill-opacity:0.90588199"
         inkscape:connector-curvature="0"
         d="m 125.7311,90.766045 c 5e-5,-1.656397 -1.34274,-2.99918 -2.99913,-2.999132 l -18.38328,-0.183095 0.0485,-18.151185 c 5e-5,-1.656396 -1.34274,-2.99918 -2.99913,-2.999132 l -10.617739,5e-6 c -1.656393,-4.8e-5 -2.999178,1.342735 -2.999131,2.999127 l -0.04848,18.151185 -18.333781,0.183099 c -1.656396,-4.8e-5 -2.99918,1.342735 -2.999132,2.999132 v 10.617741 c -4.8e-5,1.6564 1.342736,2.99918 2.999132,2.99913 l 18.333781,-0.1831 0.04908,18.56596 c -5e-5,1.6564 1.342736,2.99918 2.999132,2.99913 h 10.617738 c 1.65639,5e-5 2.99918,-1.34273 2.99913,-2.99913 l -0.0491,-18.56596 18.38328,0.18309 c 1.6564,5e-5 2.99918,-1.34274 2.99913,-2.99913 z"
         id="path4239" />
      <path
         style="fill:url(#J)"
         inkscape:connector-curvature="0"
         d="m 125.7311,90.766045 c 5e-5,-1.656397 -1.34274,-2.99918 -2.99913,-2.999132 l -18.38328,-0.183095 0.0485,-18.151185 c 5e-5,-1.656396 -1.34274,-2.99918 -2.99913,-2.999132 l -10.617739,5e-6 c -1.656393,-4.8e-5 -2.999178,1.342735 -2.999131,2.999127 l -0.04848,18.151185 -18.333781,0.183099 c -1.656396,-4.8e-5 -2.99918,1.342735 -2.999132,2.999132 v 10.617741 c -4.8e-5,1.6564 1.342736,2.99918 2.999132,2.99913 l 18.333781,-0.1831 0.04908,18.56596 c -5e-5,1.6564 1.342736,2.99918 2.999132,2.99913 h 10.617738 c 1.65639,5e-5 2.99918,-1.34273 2.99913,-2.99913 l -0.0491,-18.56596 18.38328,0.18309 c 1.6564,5e-5 2.99918,-1.34274 2.99913,-2.99913 z"
         id="path4241" />
      <path
         style="fill:#066704"
         inkscape:connector-curvature="0"
         d="m 125.7311,90.766045 c 5e-5,-1.656397 -1.34274,-2.99918 -2.99913,-2.999132 l -18.38328,-0.183095 0.0485,-18.151185 c 5e-5,-1.656396 -1.34274,-2.99918 -2.99913,-2.999132 l -10.617739,5e-6 c -1.656393,-4.8e-5 -2.999178,1.342735 -2.999131,2.999127 l -0.04848,18.151185 -18.333781,0.183099 c -1.656396,-4.8e-5 -2.99918,1.342735 -2.999132,2.999132 v 10.617741 c -4.8e-5,1.6564 1.342736,2.99918 2.999132,2.99913 l 18.333781,-0.1831 0.04908,18.56596 c -5e-5,1.6564 1.342736,2.99918 2.999132,2.99913 h 10.617738 c 1.65639,5e-5 2.99918,-1.34273 2.99913,-2.99913 l -0.0491,-18.56596 18.38328,0.18309 c 1.6564,5e-5 2.99918,-1.34274 2.99913,-2.99913 z"
         id="path4243" />
      <path
         style="fill:url(#L)"
         inkscape:connector-curvature="0"
         d="m 125.7311,90.766045 c 5e-5,-1.656397 -1.34274,-2.99918 -2.99913,-2.999132 l -18.38328,-0.183095 0.0485,-18.151185 c 5e-5,-1.656396 -1.34274,-2.99918 -2.99913,-2.999132 l -10.617739,5e-6 c -1.656393,-4.8e-5 -2.999178,1.342735 -2.999131,2.999127 l -0.04848,18.151185 -18.333781,0.183099 c -1.656396,-4.8e-5 -2.99918,1.342735 -2.999132,2.999132 v 10.617741 c -4.8e-5,1.6564 1.342736,2.99918 2.999132,2.99913 l 18.333781,-0.1831 0.04908,18.56596 c -5e-5,1.6564 1.342736,2.99918 2.999132,2.99913 h 10.617738 c 1.65639,5e-5 2.99918,-1.34273 2.99913,-2.99913 l -0.0491,-18.56596 18.38328,0.18309 c 1.6564,5e-5 2.99918,-1.34274 2.99913,-2.99913 z"
         id="path4245" />
      <path
         style="fill:url(#M)"
         inkscape:connector-curvature="0"
         d="m 125.7311,90.766045 c 5e-5,-1.656397 -1.34274,-2.99918 -2.99913,-2.999132 l -18.38328,-0.183095 0.0485,-18.151185 c 5e-5,-1.656396 -1.34274,-2.99918 -2.99913,-2.999132 l -10.617739,5e-6 c -1.656393,-4.8e-5 -2.999178,1.342735 -2.999131,2.999127 l -0.04848,18.151185 -18.333781,0.183099 c -1.656396,-4.8e-5 -2.99918,1.342735 -2.999132,2.999132 v 10.617741 c -4.8e-5,1.6564 1.342736,2.99918 2.999132,2.99913 l 18.333781,-0.1831 0.04908,18.56596 c -5e-5,1.6564 1.342736,2.99918 2.999132,2.99913 h 10.617738 c 1.65639,5e-5 2.99918,-1.34273 2.99913,-2.99913 l -0.0491,-18.56596 18.38328,0.18309 c 1.6564,5e-5 2.99918,-1.34274 2.99913,-2.99913 z"
         id="path4247" />
      <g
         style="fill-rule:evenodd"
         transform="translate(-0.164416)"
         id="g4265">
        <path
           style="opacity:0.498127;fill:url(#linearGradient1134);filter:url(#O)"
           inkscape:connector-curvature="0"
           d="m 31.7,16 2.875,-3.375 c -1.051205,-1.695758 -3.935136,-2.288018 -5.9375,-0.3125 l 2.8125,3.375 z"
           transform="matrix(-0.64954358,0.64954358,0.6557809,0.6557809,81.289533,61.297978)"
           id="path4249" />
        <path
           style="opacity:0.79026196;fill:url(#N);filter:url(#O)"
           inkscape:connector-curvature="0"
           d="m 31.7,16 2.875,-3.375 c -1.051205,-1.695758 -3.935136,-2.288018 -5.9375,-0.3125 l 2.8125,3.375 z"
           transform="matrix(-0.6476361,-0.6476361,0.64147625,-0.64147625,102.80882,152.77126)"
           id="path4251" />
        <path
           style="opacity:0.498127;fill:url(#P);filter:url(#O)"
           inkscape:connector-curvature="0"
           d="m 31.7,16 2.875,-3.375 c -1.051205,-1.695758 -3.935136,-2.288018 -5.9375,-0.3125 l 2.8125,3.375 z"
           transform="matrix(-0.58819378,0.58819378,-0.59384198,-0.59384198,128.42011,113.04167)"
           id="path4253" />
        <path
           style="opacity:0.79026196;fill:url(#linearGradient1136);filter:url(#O)"
           inkscape:connector-curvature="0"
           d="m 88.7,16 2.875,-3.375 c -1.051205,-1.695758 -3.935136,-2.288018 -5.9375,-0.3125 l 2.8125,3.375 z"
           transform="matrix(-0.59384198,-0.59384198,0.58819378,-0.58819378,113.74798,161.95621)"
           id="path4255" />
        <path
           style="opacity:0.79026196;fill:url(#linearGradient1138);filter:url(#O)"
           inkscape:connector-curvature="0"
           d="m 31.7,16 2.875,-3.375 c -1.051205,-1.695758 -3.935136,-2.288018 -5.9375,-0.3125 l 2.8125,3.375 z"
           transform="matrix(-0.54004786,-0.54004786,-0.53491131,0.53491131,147.78183,100.09653)"
           id="path4257" />
        <path
           style="opacity:0.79026196;fill:url(#linearGradient1140);filter:url(#O)"
           inkscape:connector-curvature="0"
           d="m 88.7,16 2.875,-3.375 c -1.051205,-1.695758 -3.935136,-2.288018 -5.9375,-0.3125 l 2.8125,3.375 z"
           transform="matrix(-0.55444337,-0.55444337,-0.5491699,0.5491699,158.58595,110.58603)"
           id="path4259" />
        <path
           style="opacity:0.79026196;fill:url(#linearGradient4787);filter:url(#O)"
           inkscape:connector-curvature="0"
           d="m 31.7,16 2.875,-3.375 c -1.051205,-1.695758 -3.935136,-2.288018 -5.9375,-0.3125 l 2.8125,3.375 z"
           transform="matrix(-0.54004786,0.54004786,-0.53491131,-0.53491131,147.68861,92.185302)"
           id="path4261" />
        <path
           style="opacity:0.79026196;fill:url(#linearGradient4785);filter:url(#O)"
           inkscape:connector-curvature="0"
           d="m 88.7,16 2.875,-3.375 c -1.051205,-1.695758 -3.935136,-2.288018 -5.9375,-0.3125 l 2.8125,3.375 z"
           transform="matrix(0.55444337,-0.55444337,0.5491699,0.5491699,34.12719,110.58603)"
           id="path4263" />
      </g>
      <path
         style="fill:url(#S)"
         inkscape:connector-curvature="0"
         d="m 122.73197,90.766045 -21.38241,-0.183095 0.0485,-21.150312 -10.617737,-5e-6 -0.04848,21.150317 -21.332913,0.183099 v 10.617741 l 21.332913,-0.1831 0.04908,21.56509 h 10.617737 l -0.0491,-21.56509 21.38241,0.18309 z"
         id="path4267" />
      <path
         style="fill:#eef4ca;fill-opacity:0.77941176;filter:url(#T)"
         inkscape:connector-curvature="0"
         d="m 101.39845,69.432725 -10.617961,-5e-6 -0.04848,21.150595 -21.33344,0.182664 v 10.617971 l 21.332838,-0.1831 0.04908,21.56501 h 10.617963 l -0.0491,-21.56501 21.38234,0.18308 -1e-5,-10.617951 -21.38233,-0.183095 z m -0.75422,0.754216 -0.0491,20.395773 c -4e-5,0.41656 0.33766,0.754256 0.75422,0.754217 l 20.62812,0.183095 v 9.109524 l -20.62812,-0.18309 c -0.41656,-4e-5 -0.75426,0.33766 -0.75422,0.75422 l 0.0491,20.8108 h -9.109526 l -0.04908,-20.8108 c 4e-5,-0.41656 -0.337657,-0.75426 -0.754216,-0.75422 l -20.578621,0.1831 V 91.520025 L 90.732,91.337362 c 0.416558,3.9e-5 0.754257,-0.337657 0.754216,-0.754216 l 0.04848,-20.396375 z"
         id="path4269" />
      <path
         style="fill:url(#U)"
         inkscape:connector-curvature="0"
         d="m 90.780548,69.432805 -0.04848,21.149226 -21.332673,0.183099 v 6.925781 c 5.787164,0.982213 10.225142,1.303218 16.244783,1.314948 13.882903,-0.01695 25.896292,-2.467983 37.087242,-7.338389 v -0.902344 l -21.38217,-0.183095 0.0485,-21.149226 z"
         id="path4271" />
    </g>
  </g>
</svg>
