<?xml version="1.0" encoding="UTF-8" standalone="no"?>
<!-- Created with Inkscape (http://www.inkscape.org/) -->

<svg
   xmlns:dc="http://purl.org/dc/elements/1.1/"
   xmlns:cc="http://creativecommons.org/ns#"
   xmlns:rdf="http://www.w3.org/1999/02/22-rdf-syntax-ns#"
   xmlns:svg="http://www.w3.org/2000/svg"
   xmlns="http://www.w3.org/2000/svg"
   xmlns:xlink="http://www.w3.org/1999/xlink"
   xmlns:sodipodi="http://sodipodi.sourceforge.net/DTD/sodipodi-0.dtd"
   xmlns:inkscape="http://www.inkscape.org/namespaces/inkscape"
   width="24"
   height="24"
   viewBox="0 0 6.3499999 6.3500002"
   version="1.1"
   id="svg144"
   inkscape:version="0.92.4 (unknown)"
   sodipodi:docname="lc_cut.svg"
   inkscape:export-filename="/home/rizmut/Dokumen/Rizmut/Github/libreoffice-style-karasa-jaga/build/next/cmd/lc_cut.png"
   inkscape:export-xdpi="96"
   inkscape:export-ydpi="96">
  <defs
     id="defs138">
    <linearGradient
       inkscape:collect="always"
       xlink:href="#linearGradient3340"
       id="linearGradient3354"
       gradientUnits="userSpaceOnUse"
       gradientTransform="matrix(-0.26458333,0,0,0.26458333,5.8208334,291.21607)"
       x1="8.021718"
       y1="7.6777563"
       x2="9.614707"
       y2="6.7119026" />
    <linearGradient
       inkscape:collect="always"
       id="linearGradient3340">
      <stop
         style="stop-color:#eeeeee;stop-opacity:1;"
         offset="0"
         id="stop3342" />
      <stop
         style="stop-color:#fefefe;stop-opacity:1"
         offset="1"
         id="stop3344" />
    </linearGradient>
    <linearGradient
       inkscape:collect="always"
       xlink:href="#linearGradient3340"
       id="linearGradient3346"
       x1="8.021718"
       y1="7.6777563"
       x2="9.614707"
       y2="6.7119026"
       gradientUnits="userSpaceOnUse"
       gradientTransform="matrix(0.26458333,0,0,0.26458333,9.9821474e-8,291.21607)" />
  </defs>
  <sodipodi:namedview
     id="base"
     pagecolor="#ffffff"
     bordercolor="#666666"
     borderopacity="1.0"
     inkscape:pageopacity="0.0"
     inkscape:pageshadow="2"
     inkscape:zoom="20.083333"
     inkscape:cx="11.950207"
     inkscape:cy="12"
     inkscape:document-units="mm"
     inkscape:current-layer="layer1"
     showgrid="true"
     units="px"
     inkscape:window-width="1366"
     inkscape:window-height="714"
     inkscape:window-x="0"
     inkscape:window-y="28"
     inkscape:window-maximized="1">
    <inkscape:grid
       type="xygrid"
       id="grid181" />
  </sodipodi:namedview>
  <metadata
     id="metadata141">
    <rdf:RDF>
      <cc:Work
         rdf:about="">
        <dc:format>image/svg+xml</dc:format>
        <dc:type
           rdf:resource="http://purl.org/dc/dcmitype/StillImage" />
        <dc:title></dc:title>
      </cc:Work>
    </rdf:RDF>
  </metadata>
  <g
     inkscape:label="Layer 1"
     inkscape:groupmode="layer"
     id="layer1"
     transform="translate(0,-290.64998)">
    <path
       style="opacity:0.40099009;fill:none;fill-opacity:1;fill-rule:evenodd;stroke:#000000;stroke-width:0.52916664;stroke-linecap:round;stroke-linejoin:round;stroke-miterlimit:4;stroke-dasharray:none;stroke-opacity:1"
       d="m 1.6159179,291.51477 c -0.033969,0.19264 0.4678151,1.73078 0.9458336,2.69845 l -0.00281,0.26256 -0.2145176,0.40753 0.3959167,-0.0482 c 0.037195,-0.006 0.097752,-0.27458 0.1700806,-0.3834 0.072329,0.10882 0.1328856,0.3772 0.1700805,0.3834 l 0.3959164,0.0482 -0.2806634,-0.40753 0.063331,-0.26256 c 0.4780185,-0.96767 0.9742516,-2.50491 0.9458335,-2.69845 l -1.2944985,2.11944 z"
       id="path3356"
       sodipodi:nodetypes="ccccccccccccc"
       inkscape:connector-curvature="0" />
    <path
       sodipodi:nodetypes="ccccc"
       id="path3352"
       d="m 4.2333334,291.34707 -2.0543041,3.5862 0.3065081,0.21462 0.2605641,-0.0459 c 0.2605635,-0.046 1.5791207,-3.23376 1.4872319,-3.75488 z"
       style="fill:url(#linearGradient3354);fill-opacity:1;fill-rule:evenodd;stroke:none;stroke-width:0.26458332px;stroke-linecap:butt;stroke-linejoin:miter;stroke-opacity:1"
       inkscape:connector-curvature="0" />
    <path
       id="path3385"
       d="m 4.229229,291.34451 c 0.019463,0.11037 -0.032127,0.35875 -0.1157552,0.65319 l -1.8934248,2.96829 -0.041341,-0.0331 z"
       style="fill:#ffffff;fill-opacity:1;fill-rule:evenodd;stroke:none;stroke-width:0.26458332px;stroke-linecap:butt;stroke-linejoin:miter;stroke-opacity:1"
       inkscape:connector-curvature="0" />
    <path
       style="opacity:0.51980196;fill:none;fill-opacity:1;fill-rule:evenodd;stroke:#000000;stroke-width:0.52916664;stroke-linecap:round;stroke-linejoin:round;stroke-miterlimit:4;stroke-dasharray:none;stroke-opacity:1"
       d="m 2.9104168,293.65961 -0.14056,0.52917 c 0.1264484,0.27068 0.1133753,0.43855 0.2067058,0.58704 0.09333,-0.14849 0.1464032,-0.25021 0.2728516,-0.5209 z"
       id="path3363"
       sodipodi:nodetypes="ccccc"
       inkscape:connector-curvature="0" />
    <path
       style="fill:url(#linearGradient3346);fill-opacity:1;fill-rule:evenodd;stroke:none;stroke-width:0.26458332px;stroke-linecap:butt;stroke-linejoin:miter;stroke-opacity:1"
       d="m 1.5875001,291.34707 2.0543044,3.5862 -0.3065082,0.21462 -0.2605637,-0.0459 c -0.2605639,-0.046 -1.5791213,-3.23376 -1.4872325,-3.75488 z"
       id="path3312"
       sodipodi:nodetypes="ccccc"
       inkscape:connector-curvature="0" />
    <path
       style="fill:#000000;fill-opacity:1;fill-rule:evenodd;stroke:none;stroke-width:0.26458332px;stroke-linecap:butt;stroke-linejoin:miter;stroke-opacity:1"
       d="m 3.6380209,294.89985 -0.3059244,0.21497 1.2071614,1.55443 0.3638021,0.0579 c 0.00829,0.002 0.016547,0.006 0.024805,0.008 0.1326237,0.0308 0.2641925,0.0246 0.3720703,-0.0331 0.3055879,-0.16331 0.337629,-0.65528 0.066146,-1.09141 -0.1756447,-0.28216 -0.4349329,-0.47279 -0.6779948,-0.52916 -0.03257,-0.006 -0.064973,-0.009 -0.099219,-0.008 -0.00537,-4.2e-4 -0.011195,-0.008 -0.016536,-0.008 -0.062964,-0.003 -0.1251384,0.007 -0.181901,0.0248 -0.200451,0.0229 -0.4425315,0.0397 -0.7524089,-0.19017 z m 1.0417969,0.45475 c 0.1846482,-0.001 0.3881279,0.12877 0.5126302,0.339 0.1660033,0.2803 0.1310804,0.59904 -0.082682,0.71933 -0.2137627,0.12029 -0.5202597,-0.009 -0.686263,-0.28939 -0.166003,-0.2803 -0.1310804,-0.60731 0.082682,-0.7276 0.053441,-0.0301 0.1120833,-0.041 0.1736328,-0.0413 z"
       id="path3316"
       inkscape:connector-curvature="0" />
    <path
       style="fill:#000000;fill-opacity:1;fill-rule:evenodd;stroke:none;stroke-width:0.26458332px;stroke-linecap:butt;stroke-linejoin:miter;stroke-opacity:1"
       d="m 2.1662761,294.89985 c -0.3098774,0.22984 -0.5436894,0.21311 -0.7441406,0.19017 -0.056763,-0.0181 -0.1189363,-0.028 -0.181901,-0.0248 -0.00534,2.7e-4 -0.011165,0.008 -0.016536,0.008 -0.034246,-7.9e-4 -0.066648,0.003 -0.099219,0.008 -0.2430619,0.0564 -0.50234986,0.247 -0.67799482,0.52916 -0.27148314,0.43613 -0.2394421,0.9281 0.0661458,1.09141 0.10787776,0.0576 0.2311786,0.0638 0.36380208,0.0331 0.008259,-0.002 0.0165153,-0.006 0.0248047,-0.008 l 0.36380204,-0.0579 1.2071615,-1.55443 z m -1.0417969,0.45475 c 0.061549,3.7e-4 0.1201922,0.0113 0.1736328,0.0413 0.2137629,0.12029 0.2569538,0.4473 0.090951,0.7276 -0.1660033,0.28031 -0.47250021,0.40968 -0.68626303,0.28939 -0.21376282,-0.12029 -0.25695375,-0.43903 -0.0909505,-0.71933 0.12450241,-0.21023 0.32798189,-0.34008 0.51263023,-0.339 z"
       id="path3321"
       inkscape:connector-curvature="0" />
    <circle
       style="opacity:1;fill:#bebebe;fill-opacity:1;fill-rule:evenodd;stroke:none;stroke-width:0.32094175;stroke-linecap:round;stroke-linejoin:round;stroke-miterlimit:4;stroke-dasharray:none;stroke-opacity:1"
       id="path3368"
       cx="2.9104168"
       cy="294.35416"
       r="0.16047087" />
    <path
       style="fill:#ffffff;fill-opacity:1;fill-rule:evenodd;stroke:none;stroke-width:0.26458332px;stroke-linecap:butt;stroke-linejoin:miter;stroke-opacity:1"
       d="m 1.5875001,291.34451 c -0.019462,0.11037 0.032126,0.35875 0.1157552,0.65319 l 1.8934245,2.96829 0.041341,-0.0331 z"
       id="path3370"
       inkscape:connector-curvature="0" />
  </g>
</svg>
