<?xml version="1.0" encoding="UTF-8" standalone="no"?>
<svg
   xmlns:dc="http://purl.org/dc/elements/1.1/"
   xmlns:cc="http://creativecommons.org/ns#"
   xmlns:rdf="http://www.w3.org/1999/02/22-rdf-syntax-ns#"
   xmlns:svg="http://www.w3.org/2000/svg"
   xmlns="http://www.w3.org/2000/svg"
   xmlns:sodipodi="http://sodipodi.sourceforge.net/DTD/sodipodi-0.dtd"
   xmlns:inkscape="http://www.inkscape.org/namespaces/inkscape"
   height="24"
   width="24"
   version="1.1"
   id="svg125"
   sodipodi:docname="lc_contourdialog.svg"
   inkscape:version="0.92.4 (unknown)">
  <metadata
     id="metadata131">
    <rdf:RDF>
      <cc:Work
         rdf:about="">
        <dc:format>image/svg+xml</dc:format>
        <dc:type
           rdf:resource="http://purl.org/dc/dcmitype/StillImage" />
        <dc:title></dc:title>
      </cc:Work>
    </rdf:RDF>
  </metadata>
  <defs
     id="defs129" />
  <sodipodi:namedview
     pagecolor="#ffffff"
     bordercolor="#666666"
     borderopacity="1"
     objecttolerance="10"
     gridtolerance="10"
     guidetolerance="10"
     inkscape:pageopacity="0"
     inkscape:pageshadow="2"
     inkscape:window-width="1366"
     inkscape:window-height="714"
     id="namedview127"
     showgrid="false"
     inkscape:zoom="9.641276"
     inkscape:cx="-0.73011786"
     inkscape:cy="7.7439786"
     inkscape:window-x="0"
     inkscape:window-y="28"
     inkscape:window-maximized="1"
     inkscape:current-layer="svg125" />
  <filter
     id="a">
    <feGaussianBlur
       stdDeviation="2.0786429"
       id="feGaussianBlur2" />
  </filter>
  <radialGradient
     id="b"
     cx="109.42462"
     cy="127.15892"
     gradientTransform="matrix(1,0,0,0.9996653,-8.000004,3.603016)"
     gradientUnits="userSpaceOnUse"
     r="139.55859">
    <stop
       offset="0"
       stop-color="#b7b8b9"
       id="stop5" />
    <stop
       offset=".18851049"
       stop-color="#ececec"
       id="stop7" />
    <stop
       offset=".25718147"
       stop-color="#fafafa"
       id="stop9" />
    <stop
       offset=".30111277"
       stop-color="#fff"
       id="stop11" />
    <stop
       offset=".5313"
       stop-color="#fafafa"
       id="stop13" />
    <stop
       offset=".8449"
       stop-color="#ebecec"
       id="stop15" />
    <stop
       offset="1"
       stop-color="#e1e2e3"
       id="stop17" />
  </radialGradient>
  <linearGradient
     id="d"
     gradientUnits="userSpaceOnUse"
     x1="104.00008076097"
     x2="104.00008076097"
     y1="55.6008062392"
     y2="162.26589184034">
    <stop
       offset="0"
       stop-color="#99999c"
       id="stop23" />
    <stop
       offset=".5"
       stop-color="#9c9ca1"
       id="stop25" />
    <stop
       offset="1"
       stop-color="#cdcdd1"
       id="stop27" />
  </linearGradient>
  <linearGradient
     id="e"
     gradientUnits="userSpaceOnUse"
     x1="85.39464631778"
     x2="123.6495491607"
     y1="94.38110901615"
     y2="115.18459845549">
    <stop
       offset="0"
       stop-color="#fff"
       id="stop30" />
    <stop
       offset="1"
       stop-color="#ccc"
       id="stop32" />
  </linearGradient>
  <linearGradient
     id="f"
     gradientUnits="userSpaceOnUse"
     x1="88.38102"
     x2="130.48599"
     y1="1008.9966"
     y2="1015.6953">
    <stop
       offset="0"
       stop-color="#7b7b7b"
       id="stop35" />
    <stop
       offset="1"
       stop-color="#797979"
       stop-opacity="0"
       id="stop37" />
  </linearGradient>
  <filter
     id="g"
     color-interpolation-filters="sRGB"
     height="1.073732"
     width="1.13754"
     x="-.06877"
     y="-.036866">
    <feGaussianBlur
       stdDeviation="1.0557314"
       id="feGaussianBlur40" />
  </filter>
  <linearGradient
     id="h"
     gradientUnits="userSpaceOnUse"
     x1="105.76633108528"
     x2="120.0603343885"
     y1="47.75966569847"
     y2="87.11349978954">
    <stop
       offset="0"
       stop-color="#fff"
       stop-opacity=".683453"
       id="stop43" />
    <stop
       offset="1"
       stop-color="#fff"
       stop-opacity="0"
       id="stop45" />
  </linearGradient>
  <linearGradient
     id="i"
     gradientTransform="matrix(0.53433953,0,0,0.61119966,70.330321,-506.53199)"
     gradientUnits="userSpaceOnUse"
     x1="63.011921"
     x2="63.011921"
     y1="945.89801"
     y2="1033.1569">
    <stop
       offset="0"
       stop-color="#545454"
       stop-opacity=".988"
       id="stop48" />
    <stop
       offset="1"
       stop-color="#ebebeb"
       id="stop50" />
  </linearGradient>
  <linearGradient
     id="j"
     gradientTransform="matrix(0.44041585,0,0,0.60663672,131.34153,-517.37269)"
     gradientUnits="userSpaceOnUse"
     x1="-60.535713"
     x2="-60.357143"
     y1="979.50507"
     y2="1009.505">
    <stop
       offset="0"
       stop-color="#979797"
       id="stop53" />
    <stop
       offset=".148461"
       stop-color="#f6f6f6"
       id="stop55" />
    <stop
       offset=".28399727"
       stop-color="#e2e2e2"
       id="stop57" />
    <stop
       offset=".41198727"
       stop-color="#dedede"
       id="stop59" />
    <stop
       offset=".41198727"
       stop-color="#f6f6f6"
       id="stop61" />
    <stop
       offset="1"
       stop-color="#6b6b6b"
       id="stop63" />
  </linearGradient>
  <linearGradient
     id="k"
     gradientTransform="matrix(0.44041583,0,0,-0.53450186,131.37093,-445.18578)"
     gradientUnits="userSpaceOnUse"
     x1="-61.078979"
     x2="-60.6413"
     y1="-1056.658"
     y2="-1010.9131">
    <stop
       offset="0"
       stop-color="#777"
       id="stop66" />
    <stop
       offset=".18176934"
       stop-color="#a8a8a8"
       id="stop68" />
    <stop
       offset=".22864534"
       stop-color="#cdcdcd"
       id="stop70" />
    <stop
       offset=".34561315"
       stop-color="#f7f7f7"
       id="stop72" />
    <stop
       offset="1"
       stop-color="#fff"
       id="stop74" />
  </linearGradient>
  <g
     clip-path="none"
     transform="translate(-2.666664 -106.26659)"
     id="g123">
    <g
       id="g99"
       clip-path="none"
       transform="matrix(0.1875,0,0,0.1875,2.166665,105.84159)">
      <path
         style="opacity:0.55390296;filter:url(#a)"
         inkscape:connector-curvature="0"
         id="path77"
         d="m 5.9999943,6.6 0.04,116.69993 H 122.77992 L 122.73992,6.6 Z"
         clip-path="none" />
      <path
         style="fill:#ffffff"
         inkscape:connector-curvature="0"
         id="path79"
         d="M 7.9999943,7.6 V 119.59993 H 119.23617 l 0.83598,-0.004 0.008,-0.8398 L 119.99992,7.6 Z"
         clip-path="none" />
      <path
         inkscape:connector-curvature="0"
         style="fill:url(#b)"
         id="path81"
         d="m 14.999994,13.2 c -0.551,0 -1,0.449185 -1,1 l -0.18,99.57993 99.109926,0.02 c 0.69134,0 1.35,-1.06653 1.35,-1.84375 L 114.13992,14.4 c 0,-0.550815 -0.448,-1 -1,-1 z"
         clip-path="none" />
      <g
         style="fill:#404040;fill-opacity:0.83921599"
         id="g95">
        <path
           inkscape:connector-curvature="0"
           id="path83"
           transform="scale(-1,1)"
           d="m -109.33327,18.266661 h 90.666611 v 5.333331 h -90.666611 z"
           clip-path="none" />
        <path
           inkscape:connector-curvature="0"
           id="path85"
           d="m 18.666664,98.26659 v 5.33398 h 54.3125 a 9.0631907,9.0631907 0 0 1 -6.054688,-5.33398 z m 77.890625,0 a 9.0631907,9.0631907 0 0 1 -6.085937,5.33398 h 18.861328 v -5.33398 z"
           clip-path="none" />
        <path
           inkscape:connector-curvature="0"
           id="path87"
           d="m 18.666664,34.26659 v 5.333984 h 13.189453 c 0.508715,-1.796546 1.180113,-3.575207 2.023438,-5.333984 z m 35.666016,0 c 0.07673,0.554484 0.0868,0.584544 0.173828,1.255859 0.172345,1.329387 0.283805,2.676297 0.382812,4.078125 h 15.6875 a 9.0631907,9.0631907 0 0 1 16.177735,0 H 109.33268 V 34.26659 Z"
           clip-path="none" />
        <path
           inkscape:connector-curvature="0"
           id="path89"
           d="m 18.666664,50.26659 v 5.333984 H 31.680336 C 31.310991,53.823697 31.037284,52.05341 30.88932,50.26659 Z m 39.972656,0 c 1.162004,1.981571 2.53573,3.707588 4.105469,5.333984 h 7.044922 c -0.221531,-0.759067 -0.428026,-1.5501 -0.601563,-2.417968 -0.185527,-0.927832 -0.306187,-1.906443 -0.363281,-2.916016 z m 32.958985,0 c 0.578309,1.439674 1.233037,3.203523 1.972656,5.333984 H 109.33268 V 50.26659 Z"
           clip-path="none" />
        <path
           inkscape:connector-curvature="0"
           id="path91"
           d="m 18.666664,66.26659 v 5.333984 H 37.131508 C 36.311472,69.9308 35.551558,68.143679 34.828773,66.26659 Z m 77.666016,0 c 0.161525,1.667784 0.248785,3.465731 0.316406,5.333984 H 109.33268 V 66.26659 Z"
           clip-path="none" />
        <path
           inkscape:connector-curvature="0"
           id="path93"
           d="m 18.666664,82.26659 v 5.333984 h 32.054688 c -1.348729,-0.8988 -2.661738,-1.871321 -3.925782,-2.972656 -0.851923,-0.742263 -1.665234,-1.532785 -2.447265,-2.361328 z m 78.244141,0 c 0.03491,1.812888 0.07161,3.60728 0.109375,5.333984 h 12.3125 V 82.26659 Z"
           clip-path="none" />
      </g>
      <path
         style="fill:#0066ff;fill-rule:evenodd"
         inkscape:connector-curvature="0"
         id="path97"
         d="M 88.174619,94.846118 C 87.74685,85.327008 87.913248,69.81468 86.955874,64.432306 80.764205,44.986723 80.687458,50.802596 78.668519,43.680309 c -1.94666,6.292789 -0.29165,9.293039 1.94997,15.037659 1.021633,6.786647 -1.874818,14.713931 -2.924971,17.744533 C 62.58783,68.475672 49.790785,60.938807 46.006575,41.575024 c 0,-1.80456 -0.974986,-8.421142 -0.974986,-8.421142 -6.452409,9.178232 -6.151639,15.157635 -3.168691,25.864881 5.952573,18.465901 13.401143,22.276736 29.026358,27.970166 0.969211,0.288544 3.866985,0.402874 4.387429,1.503765 0.522797,0.851616 0.02813,4.216563 0.03034,6.353424 z"
         clip-path="none" />
    </g>
    <g
       id="g119"
       clip-path="none"
       transform="matrix(0.1875,0,0,0.1875,2.166665,105.84159)">
      <path
         inkscape:connector-curvature="0"
         style="fill:url(#d);stroke-width:0.91666597"
         id="path101"
         d="M 77.333809,55.600821 H 130.66635 V 130.26642 H 77.333809 Z"
         clip-path="none" />
      <path
         inkscape:connector-curvature="0"
         style="fill:url(#e);stroke-width:0.91666597"
         id="path103"
         d="M 82.667064,60.934061 H 125.33309 V 124.93313 H 82.667064 Z"
         clip-path="none" />
      <path
         inkscape:connector-curvature="0"
         style="opacity:0.6800001;fill:url(#f);fill-rule:evenodd;filter:url(#g)"
         id="path105"
         transform="matrix(0.63533481,0,0,0.63533481,51.059149,-537.63947)"
         d="m 92.81509,1029.6319 c 1.071428,1.4286 10.71429,15.3572 11.78571,13.5715 1.07143,-1.7858 22.1275,-24.0868 20.69893,-25.5154 -1.42857,-1.4285 -29.627497,-43.05607 -29.627497,-43.05607 z"
         clip-path="none" />
      <g
         style="stroke-width:0.91666597"
         id="g117">
        <path
           inkscape:connector-curvature="0"
           style="fill:url(#h);fill-rule:evenodd"
           id="path107"
           d="M 82.667064,60.934061 V 104.27461 C 95.657743,89.149529 113.41064,83.047058 125.33272,81.33753 V 60.93455 Z"
           clip-path="none" />
        <path
           inkscape:connector-curvature="0"
           style="fill:url(#i)"
           id="path109"
           d="M 93.333572,71.600569 H 114.66659 V 114.2666 H 93.333572 Z"
           clip-path="none" />
        <path
           style="fill:#535353"
           inkscape:connector-curvature="0"
           id="path111"
           d="M 95.766494,74.165334 H 111.97931 V 111.8996 H 95.766494 Z"
           clip-path="none" />
        <path
           inkscape:connector-curvature="0"
           style="fill:url(#j)"
           id="path113"
           d="M 98.666826,76.933823 H 109.33333 V 92.933586 H 98.666826 Z"
           clip-path="none" />
        <path
           inkscape:connector-curvature="0"
           style="fill:url(#k)"
           id="path115"
           d="M 98.666826,119.59986 H 109.33333 V 92.933586 H 98.666826 Z"
           clip-path="none" />
      </g>
    </g>
  </g>
</svg>
