<svg height="24" width="24" xmlns="http://www.w3.org/2000/svg" xmlns:xlink="http://www.w3.org/1999/xlink"><linearGradient id="a"><stop offset="0" stop-color="#cbff10"/><stop offset="1" stop-color="#004d00"/></linearGradient><linearGradient id="b" gradientUnits="userSpaceOnUse" x1="64" x2="64" xlink:href="#a" y1="4" y2="44"/><linearGradient id="c" gradientUnits="userSpaceOnUse" x1="128" x2="20" xlink:href="#a" y1="8" y2="68"/><radialGradient id="d" cx="63.999996" cy="68.103012" gradientTransform="matrix(1 0 0 .50035854 .000004 3.924075)" gradientUnits="userSpaceOnUse" r="55.834961"><stop offset="0" stop-color="#fff"/><stop offset="1" stop-color="#fff" stop-opacity="0"/></radialGradient><filter id="e" color-interpolation-filters="sRGB" height="1.0452" width="1.046007" x="-.023004" y="-.0226"><feGaussianBlur stdDeviation="1.0735001"/></filter><linearGradient id="f" gradientUnits="userSpaceOnUse" x1="48" x2="48" y1="112" y2="-48"><stop offset="0" stop-color="#1d3c12"/><stop offset="1" stop-color="#1d3c12" stop-opacity="0"/></linearGradient><mask id="g" maskUnits="userSpaceOnUse"><path d="m63.919922 8c-30.895906.0096981-55.918002 5.379442-55.9179689 12h-.0019531v.011719 90.000001 1.98828h.7949219c4.5553721 5.77499 27.9001851 10.00164 55.2324221 10 27.292366-.009 50.578256-4.23343 55.126956-10h.8457v-2-.0234-89.9766-.02344c-.06035-6.624964-25.163541-11.9860461-56.080078-11.97656z" style="fill:none;stroke-width:6;stroke-linecap:square;stroke-linejoin:round;stroke:url(#f);filter:url(#e)"/></mask><filter id="h" color-interpolation-filters="sRGB" height="1.07553" width="1.068786" x="-.034393" y="-.037765"><feGaussianBlur stdDeviation="1.605"/></filter><g transform="matrix(.1791128 0 0 .1791128 .572596 .60557)"><path d="m8 22v.01172c.0006421-.0039.00129-.0078.00195-.01172zm0 .01172v87.29721l.7949219 1.98828c4.5553721 5.77499 27.9001851 10.00164 55.2324221 10 27.292366-.009 50.578256-4.23343 55.126956-10l.8457-2v-.02344-87.27377c0 6.625129-25.055389 11.996765-55.972656 12-30.917277.003238-55.9971544-5.363153-56.027344-11.988281z" fill="#373737" fill-opacity=".731618" filter="url(#h)"/><path d="m8 20v.01172c.0006421-.0039.00129-.0078.00195-.01172zm0 .01172v87.29721l.7949219 1.98828c4.5553721 5.77499 27.9001851 10.00164 55.2324221 10 27.292366-.009 50.578256-4.23343 55.126956-10l.8457-2v-.02344-87.27377c0 6.625129-25.055389 11.996765-55.972656 12-30.917277.003238-55.9971544-5.363153-56.027344-11.988281z" fill="url(#c)"/><path d="m120 20a56 12 0 0 1 -55.973277 11.999999 56 12 0 0 1 -56.0266975-11.988546 56 12 0 0 1 55.9198045-12.0114407 56 12 0 0 1 56.08007 11.9770817l-55.9999.022906z" fill="url(#b)"/><path d="m119.85156 21.976562-55.851557.023438h55.552727l.29883-.02148zm-.041.833985c-.0006.0019-.001.004-.002.0059zm-111.6250094.121094-.00391-.0078zm109.1464794 2.691406c-7.19364 4.876933-28.4708 10.368495-53.33203 10.376953-24.635171.0011-44.587262-3.187672-52-8 30.625496 12.182728 62.057892 16.919837 105.33203-2.376953z" fill="url(#d)"/><path d="m63.919922 8c-30.895906.0096981-55.918002 5.379442-55.9179689 12h-.0019531v.01172 87.29721l.7949219 1.98828c4.5553721 5.77499 27.9001851 10.00164 55.2324221 10 27.292366-.009 50.578256-4.23343 55.126956-10l.8457-2v-.02344-87.27377h-56l56-.02344c-.06035-6.624964-25.163541-11.9860461-56.080078-11.97656zm-47.027344 18.488281c2.020251.673818 4.350228 1.302605 6.955078 1.876953-2.60485-.574348-4.934827-1.203135-6.955078-1.876953z" fill="url(#b)" mask="url(#g)"/></g></svg>