<?xml version="1.0" encoding="UTF-8" standalone="no"?>
<svg
   xmlns:dc="http://purl.org/dc/elements/1.1/"
   xmlns:cc="http://creativecommons.org/ns#"
   xmlns:rdf="http://www.w3.org/1999/02/22-rdf-syntax-ns#"
   xmlns:svg="http://www.w3.org/2000/svg"
   xmlns="http://www.w3.org/2000/svg"
   xmlns:xlink="http://www.w3.org/1999/xlink"
   xmlns:sodipodi="http://sodipodi.sourceforge.net/DTD/sodipodi-0.dtd"
   xmlns:inkscape="http://www.inkscape.org/namespaces/inkscape"
   height="24"
   viewBox="0 0 6.3499999 6.3500002"
   width="24"
   version="1.1"
   id="svg93"
   sodipodi:docname="lc_changedatabasefield.svg"
   inkscape:version="0.92.4 (unknown)"
   inkscape:export-filename="/home/rizmut/Dokumen/Rizmut/Github/libreoffice-style-karasa-jaga/build/next/cmd/lc_changedatabasefield.png"
   inkscape:export-xdpi="96"
   inkscape:export-ydpi="96">
  <metadata
     id="metadata99">
    <rdf:RDF>
      <cc:Work
         rdf:about="">
        <dc:format>image/svg+xml</dc:format>
        <dc:type
           rdf:resource="http://purl.org/dc/dcmitype/StillImage" />
        <dc:title></dc:title>
      </cc:Work>
    </rdf:RDF>
  </metadata>
  <defs
     id="defs97">
    <filter
       inkscape:collect="always"
       id="filter3514">
      <feGaussianBlur
         inkscape:collect="always"
         stdDeviation="4.19576"
         id="feGaussianBlur3516" />
    </filter>
    <linearGradient
       inkscape:collect="always"
       xlink:href="#linearGradient3184"
       id="linearGradient5051"
       gradientUnits="userSpaceOnUse"
       spreadMethod="reflect"
       x1="341.5318"
       y1="528.58008"
       x2="341.5318"
       y2="700.07751" />
    <linearGradient
       id="linearGradient3184">
      <stop
         style="stop-color:#fcfcfc;stop-opacity:1;"
         offset="0"
         id="stop3186" />
      <stop
         style="stop-color:#c0c0c0;stop-opacity:1;"
         offset="1"
         id="stop3188" />
    </linearGradient>
    <radialGradient
       inkscape:collect="always"
       xlink:href="#linearGradient3152"
       id="radialGradient5000"
       gradientUnits="userSpaceOnUse"
       gradientTransform="matrix(0.2216259,0,0,0.1778449,-136.00416,-61.563674)"
       cx="902.44019"
       cy="573.33636"
       fx="902.44019"
       fy="777.67505"
       r="252.67184" />
    <linearGradient
       id="linearGradient3152">
      <stop
         style="stop-color:#ffffff;stop-opacity:1;"
         offset="0"
         id="stop3154" />
      <stop
         id="stop3678"
         offset="0.13883302"
         style="stop-color:#bcbcbc;stop-opacity:1;" />
      <stop
         id="stop3166"
         offset="0.27766603"
         style="stop-color:#8f8f8f;stop-opacity:1;" />
      <stop
         id="stop3160"
         offset="0.34831479"
         style="stop-color:#f2f2f2;stop-opacity:1;" />
      <stop
         style="stop-color:#bbbbbb;stop-opacity:1;"
         offset="0.51983202"
         id="stop3505" />
      <stop
         style="stop-color:#3f3f3f;stop-opacity:1;"
         offset="0.69134921"
         id="stop3162" />
      <stop
         id="stop3164"
         offset="0.71995538"
         style="stop-color:#8f8f8f;stop-opacity:1;" />
      <stop
         style="stop-color:#a4a4a4;stop-opacity:1;"
         offset="0.82474411"
         id="stop3182" />
      <stop
         style="stop-color:#5e5e5e;stop-opacity:1;"
         offset="0.91127253"
         id="stop3178" />
      <stop
         style="stop-color:#acacac;stop-opacity:1;"
         offset="1"
         id="stop3156" />
    </linearGradient>
    <radialGradient
       inkscape:collect="always"
       xlink:href="#linearGradient4091"
       id="radialGradient4997"
       gradientUnits="userSpaceOnUse"
       gradientTransform="matrix(0.3791376,-0.00599606,-6.7153707e-8,0.2162218,-295.92749,-82.282556)"
       cx="949.33209"
       cy="517.87024"
       fx="941.93115"
       fy="440.16125"
       r="119.39729" />
    <linearGradient
       id="linearGradient4091">
      <stop
         id="stop4093"
         offset="0"
         style="stop-color:#ffffff;stop-opacity:1;" />
      <stop
         id="stop4095"
         offset="1"
         style="stop-color:#ffffff;stop-opacity:0;" />
    </linearGradient>
    <radialGradient
       inkscape:collect="always"
       xlink:href="#linearGradient4091"
       id="radialGradient5049"
       gradientUnits="userSpaceOnUse"
       gradientTransform="matrix(1.4615497,0,0,0.7922186,-1517.0981,316.29645)"
       cx="1302.5156"
       cy="396.677"
       fx="1302.5156"
       fy="396.677"
       r="252.67184" />
    <filter
       inkscape:collect="always"
       id="filter3480">
      <feGaussianBlur
         inkscape:collect="always"
         stdDeviation="4.7167893"
         id="feGaussianBlur3482" />
    </filter>
    <linearGradient
       inkscape:collect="always"
       xlink:href="#linearGradient3285"
       id="linearGradient5047"
       gradientUnits="userSpaceOnUse"
       x1="1228.4824"
       y1="349.26135"
       x2="1228.4824"
       y2="687.31006" />
    <linearGradient
       id="linearGradient3285">
      <stop
         style="stop-color:#000000;stop-opacity:1;"
         offset="0"
         id="stop3287" />
      <stop
         style="stop-color:#474747;stop-opacity:0;"
         offset="1"
         id="stop3289" />
    </linearGradient>
    <linearGradient
       inkscape:collect="always"
       xlink:href="#linearGradient3714"
       id="linearGradient5045"
       gradientUnits="userSpaceOnUse"
       gradientTransform="matrix(2.0346473,0,0,2.0346473,-136.84824,-131.61855)"
       x1="90"
       y1="84"
       x2="90"
       y2="76" />
    <linearGradient
       id="linearGradient3714">
      <stop
         style="stop-color:#222222;stop-opacity:1;"
         offset="0"
         id="stop3716" />
      <stop
         style="stop-color:#000000;stop-opacity:0;"
         offset="1"
         id="stop3718" />
    </linearGradient>
    <filter
       inkscape:collect="always"
       id="filter3412">
      <feGaussianBlur
         inkscape:collect="always"
         stdDeviation="0.46407361"
         id="feGaussianBlur3414" />
    </filter>
    <radialGradient
       inkscape:collect="always"
       xlink:href="#linearGradient3152"
       id="radialGradient5073"
       gradientUnits="userSpaceOnUse"
       gradientTransform="matrix(1.0000001,0,0,0.7898656,-515.84706,106.14197)"
       cx="902.44019"
       cy="573.33636"
       fx="902.44019"
       fy="777.67505"
       r="252.67184" />
    <radialGradient
       inkscape:collect="always"
       xlink:href="#linearGradient4091"
       id="radialGradient5075"
       gradientUnits="userSpaceOnUse"
       gradientTransform="matrix(1.7097296,0.06452833,-0.05216787,0.9870304,-1209.4918,-86.255073)"
       cx="949.33209"
       cy="517.87024"
       fx="941.93115"
       fy="440.16125"
       r="119.39729" />
    <radialGradient
       inkscape:collect="always"
       xlink:href="#linearGradient4091"
       id="radialGradient5077"
       gradientUnits="userSpaceOnUse"
       gradientTransform="matrix(1.4615497,0,0,0.7922186,-1517.0981,316.29645)"
       cx="1302.5156"
       cy="396.677"
       fx="1302.5156"
       fy="396.677"
       r="252.67184" />
    <radialGradient
       inkscape:collect="always"
       xlink:href="#linearGradient3152"
       id="radialGradient5099"
       gradientUnits="userSpaceOnUse"
       gradientTransform="matrix(1.0000001,0,0,0.7898656,-515.84706,106.14197)"
       cx="902.44019"
       cy="573.33636"
       fx="902.44019"
       fy="777.67505"
       r="252.67184" />
    <radialGradient
       inkscape:collect="always"
       xlink:href="#linearGradient4091"
       id="radialGradient5101"
       gradientUnits="userSpaceOnUse"
       gradientTransform="matrix(1.7097296,0.06452833,-0.05216787,0.9870304,-1209.4918,-86.255073)"
       cx="949.33209"
       cy="517.87024"
       fx="941.93115"
       fy="440.16125"
       r="119.39729" />
    <radialGradient
       inkscape:collect="always"
       xlink:href="#linearGradient4091"
       id="radialGradient5103"
       gradientUnits="userSpaceOnUse"
       gradientTransform="matrix(1.4615497,0,0,0.7922186,-1517.0981,316.29645)"
       cx="1302.5156"
       cy="396.677"
       fx="1302.5156"
       fy="396.677"
       r="252.67184" />
    <radialGradient
       inkscape:collect="always"
       xlink:href="#linearGradient3152"
       id="radialGradient5125"
       gradientUnits="userSpaceOnUse"
       gradientTransform="matrix(1.0000001,0,0,0.7898656,-515.84706,106.14197)"
       cx="902.44019"
       cy="573.33636"
       fx="902.44019"
       fy="777.67505"
       r="252.67184" />
    <radialGradient
       inkscape:collect="always"
       xlink:href="#linearGradient4091"
       id="radialGradient5127"
       gradientUnits="userSpaceOnUse"
       gradientTransform="matrix(1.7097296,0.06452833,-0.05216787,0.9870304,-1209.4918,-86.255073)"
       cx="949.33209"
       cy="517.87024"
       fx="941.93115"
       fy="440.16125"
       r="119.39729" />
    <radialGradient
       inkscape:collect="always"
       xlink:href="#linearGradient4091"
       id="radialGradient5129"
       gradientUnits="userSpaceOnUse"
       gradientTransform="matrix(1.4615497,0,0,0.7922186,-1517.0981,316.29645)"
       cx="1302.5156"
       cy="396.677"
       fx="1302.5156"
       fy="396.677"
       r="252.67184" />
    <linearGradient
       inkscape:collect="always"
       xlink:href="#linearGradient3416"
       id="linearGradient4842"
       gradientUnits="userSpaceOnUse"
       x1="99.465668"
       y1="120.62987"
       x2="99.465668"
       y2="90.83989" />
    <linearGradient
       inkscape:collect="always"
       id="linearGradient3416">
      <stop
         style="stop-color:#000000;stop-opacity:1;"
         offset="0"
         id="stop3418" />
      <stop
         style="stop-color:#000000;stop-opacity:0;"
         offset="1"
         id="stop3420" />
    </linearGradient>
    <filter
       inkscape:collect="always"
       id="filter3519">
      <feGaussianBlur
         inkscape:collect="always"
         stdDeviation="1.6009629"
         id="feGaussianBlur3521" />
    </filter>
    <filter
       inkscape:collect="always"
       id="filter4480">
      <feGaussianBlur
         inkscape:collect="always"
         stdDeviation="6.421369"
         id="feGaussianBlur4482" />
    </filter>
    <linearGradient
       inkscape:collect="always"
       xlink:href="#linearGradient3184"
       id="linearGradient1148"
       gradientUnits="userSpaceOnUse"
       x1="341.5318"
       y1="528.58008"
       x2="341.5318"
       y2="700.07751"
       spreadMethod="reflect" />
    <linearGradient
       inkscape:collect="always"
       xlink:href="#linearGradient3285"
       id="linearGradient1150"
       gradientUnits="userSpaceOnUse"
       x1="1228.4824"
       y1="349.26135"
       x2="1228.4824"
       y2="687.31006" />
    <linearGradient
       inkscape:collect="always"
       xlink:href="#linearGradient3184"
       id="linearGradient1152"
       gradientUnits="userSpaceOnUse"
       x1="341.5318"
       y1="528.58008"
       x2="341.5318"
       y2="700.07751"
       spreadMethod="reflect" />
    <linearGradient
       inkscape:collect="always"
       xlink:href="#linearGradient3285"
       id="linearGradient1154"
       gradientUnits="userSpaceOnUse"
       x1="1228.4824"
       y1="349.26135"
       x2="1228.4824"
       y2="687.31006" />
    <linearGradient
       inkscape:collect="always"
       xlink:href="#linearGradient3184"
       id="linearGradient1156"
       gradientUnits="userSpaceOnUse"
       x1="341.5318"
       y1="528.58008"
       x2="341.5318"
       y2="700.07751"
       spreadMethod="reflect" />
    <linearGradient
       inkscape:collect="always"
       xlink:href="#linearGradient3285"
       id="linearGradient1158"
       gradientUnits="userSpaceOnUse"
       x1="1228.4824"
       y1="349.26135"
       x2="1228.4824"
       y2="687.31006" />
  </defs>
  <sodipodi:namedview
     pagecolor="#ffffff"
     bordercolor="#666666"
     borderopacity="1"
     objecttolerance="10"
     gridtolerance="10"
     guidetolerance="10"
     inkscape:pageopacity="0"
     inkscape:pageshadow="2"
     inkscape:window-width="1366"
     inkscape:window-height="714"
     id="namedview95"
     showgrid="true"
     inkscape:zoom="11.313709"
     inkscape:cx="23.245813"
     inkscape:cy="5.7776606"
     inkscape:window-x="0"
     inkscape:window-y="28"
     inkscape:window-maximized="1"
     inkscape:current-layer="g73">
    <inkscape:grid
       spacingx="0.13229167"
       spacingy="0.13229167"
       empspacing="2"
       type="xygrid"
       id="grid1196" />
  </sodipodi:namedview>
  <linearGradient
     id="a"
     gradientUnits="userSpaceOnUse"
     x1="98.9077"
     x2="98.9077"
     y1="46.5466"
     y2="162.9086">
    <stop
       offset="0"
       stop-color="#99999c"
       id="stop2" />
    <stop
       offset=".5"
       stop-color="#9c9ca1"
       id="stop4" />
    <stop
       offset="1"
       stop-color="#cdcdd1"
       id="stop6" />
  </linearGradient>
  <linearGradient
     id="b"
     gradientUnits="userSpaceOnUse"
     x1="78.610847"
     x2="120.3435"
     y1="88.852417"
     y2="111.54715">
    <stop
       offset="0"
       stop-color="#fff"
       id="stop9" />
    <stop
       offset="1"
       stop-color="#ccc"
       id="stop11" />
  </linearGradient>
  <linearGradient
     id="c"
     gradientUnits="userSpaceOnUse"
     x1="88.38102"
     x2="130.48599"
     y1="1008.9966"
     y2="1015.6953">
    <stop
       offset="0"
       stop-color="#7b7b7b"
       id="stop14" />
    <stop
       offset="1"
       stop-color="#797979"
       stop-opacity="0"
       id="stop16" />
  </linearGradient>
  <clipPath
     id="d">
    <path
       d="M 41.355614,933.74432 H 125.29961 V 1051.266 H 41.355614 Z"
       id="path19"
       inkscape:connector-curvature="0" />
  </clipPath>
  <filter
     id="e"
     height="1.073732"
     width="1.13754"
     x="-0.068769999"
     y="-0.036866002"
     style="color-interpolation-filters:sRGB">
    <feGaussianBlur
       stdDeviation="1.0557314"
       id="feGaussianBlur22" />
  </filter>
  <linearGradient
     id="f"
     gradientUnits="userSpaceOnUse"
     x1="100.83452"
     x2="116.42799"
     y1="37.992622"
     y2="80.92411">
    <stop
       offset="0"
       stop-color="#fff"
       stop-opacity=".683453"
       id="stop25" />
    <stop
       offset="1"
       stop-color="#fff"
       stop-opacity="0"
       id="stop27" />
  </linearGradient>
  <linearGradient
     id="g"
     gradientTransform="matrix(0.58291629,0,0,0.66676377,62.177025,-566.68964)"
     gradientUnits="userSpaceOnUse"
     x1="63.011921"
     x2="63.011921"
     y1="945.89801"
     y2="1033.1569">
    <stop
       offset="0"
       stop-color="#545454"
       stop-opacity=".988"
       id="stop30" />
    <stop
       offset="1"
       stop-color="#ebebeb"
       id="stop32" />
  </linearGradient>
  <linearGradient
     id="h"
     gradientTransform="matrix(0.48045402,0,0,0.66178602,128.73476,-578.51587)"
     gradientUnits="userSpaceOnUse"
     x1="-60.535713"
     x2="-60.357143"
     y1="979.50507"
     y2="1009.505">
    <stop
       offset="0"
       stop-color="#979797"
       id="stop35" />
    <stop
       offset=".148461"
       stop-color="#f6f6f6"
       id="stop37" />
    <stop
       offset=".28399727"
       stop-color="#e2e2e2"
       id="stop39" />
    <stop
       offset=".41198727"
       stop-color="#dedede"
       id="stop41" />
    <stop
       offset=".41198727"
       stop-color="#f6f6f6"
       id="stop43" />
    <stop
       offset="1"
       stop-color="#6b6b6b"
       id="stop45" />
  </linearGradient>
  <linearGradient
     id="i"
     gradientTransform="matrix(0.480454,0,0,0.58309338,128.76683,499.76645)"
     gradientUnits="userSpaceOnUse"
     x1="-61.078979"
     x2="-60.6413"
     y1="-1056.658"
     y2="-1010.9131">
    <stop
       offset="0"
       stop-color="#777"
       id="stop48" />
    <stop
       offset=".18176934"
       stop-color="#a8a8a8"
       id="stop50" />
    <stop
       offset=".22864534"
       stop-color="#cdcdcd"
       id="stop52" />
    <stop
       offset=".34561315"
       stop-color="#f7f7f7"
       id="stop54" />
    <stop
       offset="1"
       stop-color="#fff"
       id="stop56" />
  </linearGradient>
  <linearGradient
     id="j"
     gradientUnits="userSpaceOnUse"
     x1="32.028248"
     x2="32.028248"
     y1="256.97659"
     y2="292.38217">
    <stop
       offset="0"
       stop-color="#fff"
       id="stop59" />
    <stop
       offset="1"
       stop-color="#555"
       id="stop61" />
  </linearGradient>
  <linearGradient
     id="k"
     gradientTransform="matrix(0.28123848,0,0,0.37648631,0.039471,260.72313)"
     gradientUnits="userSpaceOnUse"
     x1="46.048"
     x2="46.048"
     y1="128.01709"
     y2="16.6203">
    <stop
       offset="0"
       stop-color="#c7cdd7"
       id="stop64" />
    <stop
       offset="1"
       stop-color="#fff"
       id="stop66" />
  </linearGradient>
  <g
     id="g183"
     transform="matrix(0.171875,0,0,0.171875,0.52488311,0.52916637)">
    <g
       id="g73"
       transform="translate(0,-263.13332)">
      <path
         id="path69"
         d="m -1.5144934,264.66758 33.8662334,2.9e-4 -0.02492,26.17463 -33.8662335,-2.9e-4 z"
         style="fill:url(#k)"
         inkscape:connector-curvature="0"
         sodipodi:nodetypes="ccccc" />
      <path
         id="path71"
         d="m -3.0538654,263.13332 v 1.53789 6.15908 1.53789 l -0.00226,4.6194 v 1.53789 l -0.022668,6.15486 v 0.008 1.52963 0.0165 4.60541 1.54616 h 1.5378906 l 6.1605826,2.9e-4 h 1.5378907 9.2363636 1.537891 7.698473 1.537891 6.160582 1.537891 v -1.54616 -4.60541 l 0.02492,-15.40446 v -7.69697 H 26.193117 24.655226 16.956753 15.418862 6.1824985 4.6446078 l -6.1605826,-2.9e-4 z m 1.5378906,1.53789 6.1605826,2.9e-4 v 6.15908 l -6.1605826,-2.9e-4 z m 7.6984733,2.9e-4 h 9.2363635 v 6.15908 H 6.1824985 Z m 10.7742545,0 h 7.698473 v 6.15908 h -7.698473 z m 9.236364,0 h 6.160582 v 6.15908 h -6.160582 z m -27.7090918,7.69668 6.1605826,2.9e-4 -0.00226,4.6194 -6.1605826,-2.9e-4 z m 7.6984733,2.9e-4 h 9.2363635 1.537891 7.698473 l -0.0023,4.6194 v 0.0631 c -7.93e-4,-0.0357 -0.02451,-0.0641 -0.05426,-0.0641 h -7.64318 l 0.0023,-4.54964 c 1.8e-5,-0.0365 -0.02401,-0.0661 -0.05426,-0.0661 h -1.430403 c -0.03025,0 -0.05424,0.0296 -0.05426,0.0661 l -0.0023,4.54964 H 6.2339866 c -0.029248,0 -0.052199,0.0277 -0.053743,0.0625 v -0.0615 z m 20.0106185,0 h 6.160582 l -0.0023,4.6194 h -6.160582 z m -1.540146,6.09321 v 0.0641 l -0.02267,6.15486 v 0.008 H 6.1575754 v -0.008 l 0.022668,-6.15486 v -0.0625 c 0.00153,0.0348 0.024495,0.0625 0.053743,0.0625 h 9.1826208 l -0.02267,6.09336 c -1.36e-4,0.0365 0.02401,0.0661 0.05426,0.0661 h 1.430403 c 0.03025,0 0.05412,-0.0296 0.05426,-0.0661 l 0.02267,-6.09336 h 7.64318 c 0.02975,0 0.05347,-0.0284 0.05426,-0.0641 z m -26.1712011,0.0638 6.1605826,2.9e-4 -0.022668,6.15486 -6.1605826,-2.9e-4 z m 27.7090921,2.9e-4 h 6.160582 l -0.02267,6.15486 h -6.160582 z m -27.7317599,7.70899 6.1605826,2.9e-4 v 4.60541 l -6.1605826,-2.9e-4 z m 7.6984733,2.9e-4 h 9.2363636 v 4.60541 H 6.1575754 Z m 10.7742546,0 h 7.698473 v 4.60541 H 16.93183 Z m 9.236364,0 h 6.160582 v 4.60541 h -6.160582 z"
         style="fill:url(#j)"
         inkscape:connector-curvature="0"
         sodipodi:nodetypes="ccccccccccccccccccccccccccccccccccccccccccccccccccccccccccccccccscsssscsccccccccccccccccscsssscscccccccccccccccccccccccccccccccc" />
    </g>
    <g
       transform="matrix(0.76045909,0,0,0.76045909,7.6054221,7.806839)"
       id="g1194">
      <path
         inkscape:connector-curvature="0"
         transform="matrix(0.05863852,0,0,0.05965685,-3.0935904,-29.685472)"
         style="fill:#000000;fill-opacity:1;stroke:none;stroke-width:1.125;stroke-linecap:round;stroke-linejoin:round;stroke-miterlimit:4;stroke-dashoffset:1.08780003;stroke-opacity:1;filter:url(#filter4480)"
         d="m 594.20979,637.24835 c 0,303.86445 8e-4,275.30281 -397.06542,275.30281 -108.848745,0 -108.290564,-77.88045 -108.290564,-275.30281 0,-69.73912 113.199744,-126.33899 252.677994,-126.33899 139.47825,0 252.67799,56.59987 252.67799,126.33899 z"
         id="path3424"
         sodipodi:nodetypes="csssc" />
      <path
         inkscape:connector-curvature="0"
         style="fill:url(#linearGradient4842);fill-opacity:1;stroke:none;stroke-width:1.125;stroke-linecap:round;stroke-linejoin:round;stroke-miterlimit:4;stroke-dasharray:none;stroke-dashoffset:1.08780003;stroke-opacity:1;filter:url(#filter3519)"
         d="m 82.30409,50.818968 c -19.50589,0 -34.606025,7.274788 -34.606015,17.027734 0,0.03149 -3.3e-4,0.0623 0,0.09375 -9e-4,0.02034 7.4e-4,0.04214 0,0.0625 7e-4,0.04154 -0.0013,0.08353 0,0.125 v 0.09375 c -1.7e-4,0.02045 0,0.04203 0,0.0625 0,0.30478 7e-4,0.605244 0.03125,0.90625 l -0.09068,5.5 c -0.07319,0.464007 -0.125,0.932891 -0.125,1.40625 0,0.463152 0.0549,0.920786 0.125,1.375 -0.0701,0.454214 -0.125,0.911848 -0.125,1.375 0,0.03149 -3.3e-4,0.0623 0,0.09375 -8.7e-4,0.02096 7e-4,0.04152 0,0.0625 7.3e-4,0.04301 -0.0013,0.08207 0,0.125 v 0.0625 c -1.8e-4,0.02107 0,0.04141 0,0.0625 0,0.30478 7e-4,0.605244 0.03125,0.90625 l -0.09068,5.53125 c -0.07319,0.464007 -0.125,0.932891 -0.125,1.40625 0,0.458111 0.0564,0.894377 0.125,1.34375 -0.0701,0.454214 -0.125,0.911848 -0.125,1.375 0,0.03149 -3.3e-4,0.0623 0,0.09375 -9e-4,0.02034 7.4e-4,0.04214 0,0.0625 7e-4,0.04154 -0.0013,0.08353 0,0.125 v 0.09375 c -1.7e-4,0.02045 0,0.04203 0,0.0625 0,0.30478 7e-4,0.605243 0.03125,0.90625 l -0.09068,5.5 c -0.07319,0.464007 -0.125,0.932891 -0.125,1.40625 0,0.367777 0.01813,0.731525 0.0625,1.09375 -0.04437,0.362225 -0.0625,0.725973 -0.0625,1.093748 0,0.0315 -3.3e-4,0.0623 0,0.0937 -8.7e-4,0.021 7e-4,0.0415 0,0.0625 7e-4,0.0415 -0.0013,0.0835 0,0.125 v 0.0625 c -1.8e-4,0.0211 0,0.0414 0,0.0625 0,0.30478 7e-4,0.63649 0.03125,0.9375 l -0.09068,5.5 c -0.07319,0.46401 -0.125,0.93289 -0.125,1.40625 0,8.08635 15.83785,16.21067 35.34375,16.21067 19.505895,0 35.312505,-8.23543 35.312505,-16.21067 0,-0.51532 -0.0384,-1.02709 -0.125,-1.53125 l -0.0907,-5.375 c 0.0305,-0.30101 0.0312,-0.63272 0.0312,-0.9375 0,-0.0527 9.6e-4,-0.10365 0,-0.15625 0.002,-0.0837 0,-0.16602 0,-0.25 0,-0.368081 -0.0181,-0.731227 -0.0625,-1.093748 0.0444,-0.362521 0.0625,-0.725667 0.0625,-1.09375 0,-0.515316 -0.0384,-1.02709 -0.125,-1.53125 l -0.0907,-5.375 c 0.0305,-0.301006 0.0312,-0.60147 0.0312,-0.90625 0,-0.05118 9e-4,-0.105181 0,-0.15625 0.003,-0.09412 0,-0.186776 0,-0.28125 0,-0.462326 -0.0239,-0.92158 -0.0937,-1.375 0.0683,-0.448468 0.0937,-0.886581 0.0937,-1.34375 0,-0.515316 -0.0384,-1.02709 -0.125,-1.53125 l -0.0907,-5.40625 c 0.0305,-0.301006 0.0312,-0.60147 0.0312,-0.90625 0,-0.05272 9.6e-4,-0.103647 0,-0.15625 0.002,-0.0837 0,-0.166023 0,-0.25 0,-0.462326 -0.0239,-0.92158 -0.0937,-1.375 0.0699,-0.45342 0.0937,-0.912674 0.0937,-1.375 0,-0.515316 -0.0384,-1.02709 -0.125,-1.53125 l -0.0907,-5.375 c 0.0305,-0.301006 0.0312,-0.60147 0.0312,-0.90625 0,-0.05118 9e-4,-0.105181 0,-0.15625 0.003,-0.09412 0,-0.186776 0,-0.28125 0,-9.752947 -15.06888,-17.027735 -34.574775,-17.027734 z"
         id="path2560"
         transform="matrix(0.419299,0,0,0.42096534,-17.570311,-19.909252)"
         sodipodi:nodetypes="csssccsccscsssccsccscsssccsccscsssccsccsssccssscsccssscsccssscsccsssc" />
      <g
         id="g5107"
         transform="matrix(0.26458334,0,0,0.2530928,-4.3496069e-8,9.0336234)">
        <g
           transform="matrix(0.2216259,0,0,0.2254747,-21.67909,-67.880417)"
           id="g5109">
          <ellipse
             ry="126.339"
             rx="252.67799"
             cy="637.24835"
             cx="341.5318"
             transform="translate(45.061429,-54.602901)"
             id="path5111"
             style="opacity:1;fill:#343434;fill-opacity:1;stroke:none;stroke-width:1.125;stroke-linecap:round;stroke-linejoin:round;stroke-miterlimit:4;stroke-dasharray:none;stroke-dashoffset:1.08780003;stroke-opacity:1;filter:url(#filter3514)" />
          <ellipse
             ry="126.339"
             rx="252.67799"
             cy="637.24835"
             cx="341.5318"
             style="opacity:1;fill:url(#linearGradient1148);fill-opacity:1;stroke:none;stroke-width:1.125;stroke-linecap:round;stroke-linejoin:round;stroke-miterlimit:4;stroke-dasharray:none;stroke-dashoffset:1.08780003;stroke-opacity:1"
             id="path5113"
             transform="translate(45.061429,-113.57703)" />
          <path
             inkscape:connector-curvature="0"
             sodipodi:nodetypes="csccscc"
             id="path5115"
             d="m 639.26508,523.65926 c 0,69.7391 -113.2092,126.34375 -252.6874,126.34375 -138.7519,-2e-5 -251.4856,-56.01143 -252.6563,-125.25 l 1,50.25 c 0,69.73913 112.2092,126.34376 251.6876,126.34375 139.4782,0 251.6561,-56.60462 251.6561,-126.34375 z"
             style="opacity:1;fill:url(#radialGradient5125);fill-opacity:1;stroke:none;stroke-width:1.125;stroke-linecap:round;stroke-linejoin:round;stroke-miterlimit:4;stroke-dasharray:none;stroke-dashoffset:1.08780003;stroke-opacity:1" />
          <path
             inkscape:connector-curvature="0"
             sodipodi:nodetypes="csszs"
             id="path5117"
             d="m 566.27727,486.15744 c 12.7997,40.36672 -63.6135,75.70779 -179.1824,75.70779 -121.1539,0 -196.2125,-36.47311 -179.1823,-75.70779 22.2134,-51.17628 102.4871,-75.70779 179.1823,-75.70779 73.9186,0 164.7584,30.21836 179.1824,75.70779 z"
             style="fill:url(#radialGradient5127);fill-opacity:1;stroke:none;stroke-width:2.5999999;stroke-linecap:round;stroke-linejoin:round;stroke-miterlimit:4;stroke-dashoffset:1.08780003;stroke-opacity:1" />
          <path
             inkscape:connector-curvature="0"
             id="path5119"
             d="m 134.39008,519.23381 c -0.2863,2.46133 -0.4688,4.94049 -0.4687,7.4375 0,69.73913 113.2092,126.34374 252.6874,126.34375 139.4783,0 252.6563,-56.60463 252.6563,-126.34375 0,-2.49701 -0.1512,-4.97617 -0.4375,-7.4375 -7.7085,66.28118 -117.7345,118.90625 -252.2188,118.90625 -134.4842,0 -244.5102,-52.62507 -252.2187,-118.90625 z"
             style="opacity:1;fill:url(#radialGradient5129);fill-opacity:1;stroke:none;stroke-width:1.125;stroke-linecap:round;stroke-linejoin:round;stroke-miterlimit:4;stroke-dasharray:none;stroke-dashoffset:1.08780003;stroke-opacity:1;filter:url(#filter3480)" />
          <path
             inkscape:connector-curvature="0"
             transform="matrix(0.9792446,0,0,0.9792446,-888.88819,80.200032)"
             sodipodi:nodetypes="cssscsc"
             style="opacity:0.50553505;fill:url(#linearGradient1150);fill-opacity:1;stroke:none;stroke-width:1.125;stroke-linecap:round;stroke-linejoin:round;stroke-miterlimit:4;stroke-dasharray:none;stroke-dashoffset:1.08780003;stroke-opacity:1;filter:url(#filter3480)"
             d="m 1050.3125,441.16063 c -0.2863,2.46133 -0.4688,4.94049 -0.4687,7.4375 0,69.73913 113.2092,126.34374 252.6874,126.34375 139.4783,0 252.6563,-56.60463 252.6563,-126.34375 0,-2.49701 -0.1512,-4.97617 -0.4375,-7.4375 -7.7085,66.28118 -117.7345,124.90625 -252.2188,124.90625 -134.4842,0 -244.5102,-58.62507 -252.2187,-124.90625 z"
             id="path5121" />
        </g>
      </g>
      <g
         transform="matrix(0.26458334,0,0,0.2530928,-4.3496069e-8,4.6679983)"
         id="g5081">
        <g
           id="g5083"
           transform="matrix(0.2216259,0,0,0.2254747,-21.67909,-67.880417)">
          <ellipse
             ry="126.339"
             rx="252.67799"
             cy="637.24835"
             cx="341.5318"
             style="opacity:1;fill:#343434;fill-opacity:1;stroke:none;stroke-width:1.125;stroke-linecap:round;stroke-linejoin:round;stroke-miterlimit:4;stroke-dasharray:none;stroke-dashoffset:1.08780003;stroke-opacity:1;filter:url(#filter3514)"
             id="path5085"
             transform="translate(45.061429,-54.602901)" />
          <ellipse
             ry="126.339"
             rx="252.67799"
             cy="637.24835"
             cx="341.5318"
             transform="translate(45.061429,-113.57703)"
             id="path5087"
             style="opacity:1;fill:url(#linearGradient1152);fill-opacity:1;stroke:none;stroke-width:1.125;stroke-linecap:round;stroke-linejoin:round;stroke-miterlimit:4;stroke-dasharray:none;stroke-dashoffset:1.08780003;stroke-opacity:1" />
          <path
             inkscape:connector-curvature="0"
             style="opacity:1;fill:url(#radialGradient5099);fill-opacity:1;stroke:none;stroke-width:1.125;stroke-linecap:round;stroke-linejoin:round;stroke-miterlimit:4;stroke-dasharray:none;stroke-dashoffset:1.08780003;stroke-opacity:1"
             d="m 639.26508,523.65926 c 0,69.7391 -113.2092,126.34375 -252.6874,126.34375 -138.7519,-2e-5 -251.4856,-56.01143 -252.6563,-125.25 l 1,50.25 c 0,69.73913 112.2092,126.34376 251.6876,126.34375 139.4782,0 251.6561,-56.60462 251.6561,-126.34375 z"
             id="path5089"
             sodipodi:nodetypes="csccscc" />
          <path
             inkscape:connector-curvature="0"
             style="fill:url(#radialGradient5101);fill-opacity:1;stroke:none;stroke-width:2.5999999;stroke-linecap:round;stroke-linejoin:round;stroke-miterlimit:4;stroke-dashoffset:1.08780003;stroke-opacity:1"
             d="m 566.27727,486.15744 c 12.7997,40.36672 -63.6135,75.70779 -179.1824,75.70779 -121.1539,0 -196.2125,-36.47311 -179.1823,-75.70779 22.2134,-51.17628 102.4871,-75.70779 179.1823,-75.70779 73.9186,0 164.7584,30.21836 179.1824,75.70779 z"
             id="path5091"
             sodipodi:nodetypes="csszs" />
          <path
             inkscape:connector-curvature="0"
             style="opacity:1;fill:url(#radialGradient5103);fill-opacity:1;stroke:none;stroke-width:1.125;stroke-linecap:round;stroke-linejoin:round;stroke-miterlimit:4;stroke-dasharray:none;stroke-dashoffset:1.08780003;stroke-opacity:1;filter:url(#filter3480)"
             d="m 134.39008,519.23381 c -0.2863,2.46133 -0.4688,4.94049 -0.4687,7.4375 0,69.73913 113.2092,126.34374 252.6874,126.34375 139.4783,0 252.6563,-56.60463 252.6563,-126.34375 0,-2.49701 -0.1512,-4.97617 -0.4375,-7.4375 -7.7085,66.28118 -117.7345,118.90625 -252.2188,118.90625 -134.4842,0 -244.5102,-52.62507 -252.2187,-118.90625 z"
             id="path5093" />
          <path
             inkscape:connector-curvature="0"
             id="path5095"
             d="m 1050.3125,441.16063 c -0.2863,2.46133 -0.4688,4.94049 -0.4687,7.4375 0,69.73913 113.2092,126.34374 252.6874,126.34375 139.4783,0 252.6563,-56.60463 252.6563,-126.34375 0,-2.49701 -0.1512,-4.97617 -0.4375,-7.4375 -7.7085,66.28118 -117.7345,124.90625 -252.2188,124.90625 -134.4842,0 -244.5102,-58.62507 -252.2187,-124.90625 z"
             style="opacity:0.50553505;fill:url(#linearGradient1154);fill-opacity:1;stroke:none;stroke-width:1.125;stroke-linecap:round;stroke-linejoin:round;stroke-miterlimit:4;stroke-dasharray:none;stroke-dashoffset:1.08780003;stroke-opacity:1;filter:url(#filter3480)"
             sodipodi:nodetypes="cssscsc"
             transform="matrix(0.9792446,0,0,0.9792446,-888.88819,80.200032)" />
        </g>
      </g>
      <g
         id="g5062"
         transform="matrix(0.26458334,0,0,0.2530928,-4.3496069e-8,0.51403996)">
        <g
           transform="matrix(0.2216259,0,0,0.2254747,-21.67909,-67.880417)"
           id="g3550">
          <ellipse
             ry="126.339"
             rx="252.67799"
             cy="637.24835"
             cx="341.5318"
             transform="translate(45.061429,-54.602901)"
             id="path3552"
             style="opacity:1;fill:#343434;fill-opacity:1;stroke:none;stroke-width:1.125;stroke-linecap:round;stroke-linejoin:round;stroke-miterlimit:4;stroke-dasharray:none;stroke-dashoffset:1.08780003;stroke-opacity:1;filter:url(#filter3514)" />
          <ellipse
             ry="126.339"
             rx="252.67799"
             cy="637.24835"
             cx="341.5318"
             style="opacity:1;fill:url(#linearGradient1156);fill-opacity:1;stroke:none;stroke-width:1.125;stroke-linecap:round;stroke-linejoin:round;stroke-miterlimit:4;stroke-dasharray:none;stroke-dashoffset:1.08780003;stroke-opacity:1"
             id="path3554"
             transform="translate(45.061429,-113.57703)" />
          <path
             inkscape:connector-curvature="0"
             sodipodi:nodetypes="csccscc"
             id="path3556"
             d="m 639.26508,523.65926 c 0,69.7391 -113.2092,126.34375 -252.6874,126.34375 -138.7519,-2e-5 -251.4856,-56.01143 -252.6563,-125.25 l 1,50.25 c 0,69.73913 112.2092,126.34376 251.6876,126.34375 139.4782,0 251.6561,-56.60462 251.6561,-126.34375 z"
             style="opacity:1;fill:url(#radialGradient5073);fill-opacity:1;stroke:none;stroke-width:1.125;stroke-linecap:round;stroke-linejoin:round;stroke-miterlimit:4;stroke-dasharray:none;stroke-dashoffset:1.08780003;stroke-opacity:1" />
          <path
             inkscape:connector-curvature="0"
             sodipodi:nodetypes="csszs"
             id="path3558"
             d="m 566.27727,486.15744 c 12.7997,40.36672 -63.6135,75.70779 -179.1824,75.70779 -121.1539,0 -196.2125,-36.47311 -179.1823,-75.70779 22.2134,-51.17628 102.4871,-75.70779 179.1823,-75.70779 73.9186,0 164.7584,30.21836 179.1824,75.70779 z"
             style="fill:url(#radialGradient5075);fill-opacity:1;stroke:none;stroke-width:2.5999999;stroke-linecap:round;stroke-linejoin:round;stroke-miterlimit:4;stroke-dashoffset:1.08780003;stroke-opacity:1" />
          <path
             inkscape:connector-curvature="0"
             id="path3560"
             d="m 134.39008,519.23381 c -0.2863,2.46133 -0.4688,4.94049 -0.4687,7.4375 0,69.73913 113.2092,126.34374 252.6874,126.34375 139.4783,0 252.6563,-56.60463 252.6563,-126.34375 0,-2.49701 -0.1512,-4.97617 -0.4375,-7.4375 -7.7085,66.28118 -117.7345,118.90625 -252.2188,118.90625 -134.4842,0 -244.5102,-52.62507 -252.2187,-118.90625 z"
             style="opacity:1;fill:url(#radialGradient5077);fill-opacity:1;stroke:none;stroke-width:1.125;stroke-linecap:round;stroke-linejoin:round;stroke-miterlimit:4;stroke-dasharray:none;stroke-dashoffset:1.08780003;stroke-opacity:1;filter:url(#filter3480)" />
          <path
             inkscape:connector-curvature="0"
             transform="matrix(0.9792446,0,0,0.9792446,-888.88819,80.200032)"
             sodipodi:nodetypes="cssscsc"
             style="opacity:0.50553505;fill:url(#linearGradient1158);fill-opacity:1;stroke:none;stroke-width:1.125;stroke-linecap:round;stroke-linejoin:round;stroke-miterlimit:4;stroke-dasharray:none;stroke-dashoffset:1.08780003;stroke-opacity:1;filter:url(#filter3480)"
             d="m 1050.3125,441.16063 c -0.2863,2.46133 -0.4688,4.94049 -0.4687,7.4375 0,69.73913 113.2092,126.34374 252.6874,126.34375 139.4783,0 252.6563,-56.60463 252.6563,-126.34375 0,-2.49701 -0.1512,-4.97617 -0.4375,-7.4375 -7.7085,66.28118 -117.7345,124.90625 -252.2188,124.90625 -134.4842,0 -244.5102,-58.62507 -252.2187,-124.90625 z"
             id="path3562" />
        </g>
      </g>
      <g
         transform="matrix(0.26458334,0,0,0.26458334,-4.3496069e-8,2.0463101e-5)"
         id="g5053">
        <ellipse
           ry="126.339"
           rx="252.67799"
           cy="637.24835"
           cx="341.5318"
           transform="matrix(0.2216259,0,0,0.2251584,-11.69231,-97.756732)"
           id="path3590"
           style="fill:#2a2a2a;fill-opacity:1;stroke:none;stroke-width:1.125;stroke-linecap:round;stroke-linejoin:round;stroke-miterlimit:4;stroke-dasharray:none;stroke-dashoffset:1.08780003;stroke-opacity:1;filter:url(#filter3514)" />
        <ellipse
           ry="126.339"
           rx="252.67799"
           cy="637.24835"
           cx="341.5318"
           style="fill:url(#linearGradient5051);fill-opacity:1;stroke:none;stroke-width:1.125;stroke-linecap:round;stroke-linejoin:round;stroke-miterlimit:4;stroke-dasharray:none;stroke-dashoffset:1.08780003;stroke-opacity:1"
           id="path3592"
           transform="matrix(0.2216259,0,0,0.2251584,-11.69231,-110.83553)" />
        <path
           inkscape:connector-curvature="0"
           sodipodi:nodetypes="csccscc"
           id="path3594"
           d="m 119.99861,32.44385 c 0,15.702343 -25.090092,28.447356 -56.002074,28.447356 C 33.245522,60.891201 8.2608138,48.279762 8.0013564,32.690117 l 0.2216259,11.314209 c 0,15.702351 24.8684647,28.447359 55.7804907,28.447356 30.911982,0 55.773507,-12.745005 55.773507,-28.447356 z"
           style="fill:url(#radialGradient5000);fill-opacity:1;stroke:none;stroke-width:1.125;stroke-linecap:round;stroke-linejoin:round;stroke-miterlimit:4;stroke-dasharray:none;stroke-dashoffset:1.08780003;stroke-opacity:1" />
        <path
           inkscape:connector-curvature="0"
           sodipodi:nodetypes="csszs"
           id="path3596"
           d="M 103.82262,24 C 106.65936,33.088906 89.72422,22.760109 64.111159,22.760109 37.260317,22.760109 20.625387,32.834018 24.39972,24 29.322785,12.477231 47.113516,6.9537552 64.111159,6.9537552 80.493435,6.9537552 100.62589,13.757672 103.82262,24 Z"
           style="fill:url(#radialGradient4997);fill-opacity:1;stroke:none;stroke-width:2.5999999;stroke-linecap:round;stroke-linejoin:round;stroke-miterlimit:4;stroke-dashoffset:1.08780003;stroke-opacity:1" />
        <path
           inkscape:connector-curvature="0"
           transform="matrix(0.2216259,0,0,0.2251584,-21.67909,-85.46243)"
           id="path3598"
           d="m 134.39008,519.23381 c -0.2863,2.46133 -0.4688,4.94049 -0.4687,7.4375 0,69.73913 113.2092,126.34374 252.6874,126.34375 139.4783,0 252.6563,-56.60463 252.6563,-126.34375 0,-2.49701 -0.1512,-4.97617 -0.4375,-7.4375 -7.7085,66.28118 -117.7345,118.90625 -252.2188,118.90625 -134.4842,0 -244.5102,-52.62507 -252.2187,-118.90625 z"
           style="fill:url(#radialGradient5049);fill-opacity:1;stroke:none;stroke-width:1.125;stroke-linecap:round;stroke-linejoin:round;stroke-miterlimit:4;stroke-dasharray:none;stroke-dashoffset:1.08780003;stroke-opacity:1;filter:url(#filter3480)" />
        <path
           inkscape:connector-curvature="0"
           transform="matrix(0.217026,0,0,0.2204852,-218.67974,-67.40472)"
           sodipodi:nodetypes="cssscsc"
           style="opacity:0.50553505;fill:url(#linearGradient5047);fill-opacity:1;stroke:none;stroke-width:1.125;stroke-linecap:round;stroke-linejoin:round;stroke-miterlimit:4;stroke-dasharray:none;stroke-dashoffset:1.08780003;stroke-opacity:1;filter:url(#filter3480)"
           d="m 1050.3125,441.16063 c -0.2863,2.46133 -0.4688,4.94049 -0.4687,7.4375 0,69.73913 113.2092,126.34374 252.6874,126.34375 139.4783,0 252.6563,-56.60463 252.6563,-126.34375 0,-2.49701 -0.1512,-4.97617 -0.4375,-7.4375 -7.7085,66.28118 -117.7345,124.90625 -252.2188,124.90625 -134.4842,0 -244.5102,-58.62507 -252.2187,-124.90625 z"
           id="path3600" />
        <path
           inkscape:connector-curvature="0"
           transform="matrix(0.9742725,0,0,0.9985972,4.548712,-0.6959463)"
           sodipodi:nodetypes="ccccc"
           id="path3684"
           d="m 11.172353,47.430418 c 37.178071,-20.550502 69.990301,-17.88445 100.198467,-0.593047 2.17056,-1.824202 3.57671,-3.453897 4.33225,-4.930038 C 79.358573,22.970685 43.014069,26.372789 6.669573,42.367874 c 0.970108,1.713789 2.724006,3.354706 4.50278,5.062544 z"
           style="opacity:0.03465349;fill:url(#linearGradient5045);fill-opacity:1;fill-rule:evenodd;stroke:none;stroke-width:1px;stroke-linecap:butt;stroke-linejoin:miter;stroke-opacity:1;filter:url(#filter3412)" />
      </g>
    </g>
  </g>
</svg>
