<?xml version="1.0" encoding="UTF-8" standalone="no"?>
<!-- Created with Inkscape (http://www.inkscape.org/) -->

<svg
   xmlns:dc="http://purl.org/dc/elements/1.1/"
   xmlns:cc="http://creativecommons.org/ns#"
   xmlns:rdf="http://www.w3.org/1999/02/22-rdf-syntax-ns#"
   xmlns:svg="http://www.w3.org/2000/svg"
   xmlns="http://www.w3.org/2000/svg"
   xmlns:xlink="http://www.w3.org/1999/xlink"
   xmlns:sodipodi="http://sodipodi.sourceforge.net/DTD/sodipodi-0.dtd"
   xmlns:inkscape="http://www.inkscape.org/namespaces/inkscape"
   width="24"
   height="24"
   viewBox="0 0 6.3499999 6.3500002"
   version="1.1"
   id="svg2414"
   inkscape:version="0.92.4 (unknown)"
   sodipodi:docname="lc_changecasetolower.svg"
   inkscape:export-filename="/home/rizmut/Dokumen/Rizmut/Github/libreoffice-style-karasa-jaga/build/next/cmd/lc_changecasetolower.png"
   inkscape:export-xdpi="96"
   inkscape:export-ydpi="96">
  <defs
     id="defs2408">
    <linearGradient
       inkscape:collect="always"
       xlink:href="#linearGradient3783"
       id="linearGradient3801"
       gradientUnits="userSpaceOnUse"
       x1="418"
       y1="529"
       x2="419.31973"
       y2="533.92529"
       gradientTransform="matrix(0.37041666,0,0,0.37041666,-144.17614,80.303581)" />
    <linearGradient
       id="linearGradient3783">
      <stop
         style="stop-color:#ffbfbf;stop-opacity:1;"
         offset="0"
         id="stop3785" />
      <stop
         style="stop-color:#ffbfbf;stop-opacity:0;"
         offset="1"
         id="stop3787" />
    </linearGradient>
    <radialGradient
       inkscape:collect="always"
       xlink:href="#linearGradient3763"
       id="radialGradient3799"
       gradientUnits="userSpaceOnUse"
       gradientTransform="matrix(0.55562499,0,0,0.51858333,-221.77843,2.4419992)"
       cx="419.15976"
       cy="531.81116"
       fx="419.15976"
       fy="531.81116"
       r="2.5" />
    <linearGradient
       id="linearGradient3763">
      <stop
         style="stop-color:#ff2222;stop-opacity:1;"
         offset="0"
         id="stop3765" />
      <stop
         style="stop-color:#cd1f00;stop-opacity:1;"
         offset="1"
         id="stop3767" />
    </linearGradient>
    <linearGradient
       inkscape:collect="always"
       xlink:href="#linearGradient3773"
       id="linearGradient3797"
       gradientUnits="userSpaceOnUse"
       gradientTransform="matrix(0.37041695,0,0,0.37797536,-144.17626,77.034532)"
       x1="418"
       y1="535"
       x2="418"
       y2="528" />
    <linearGradient
       id="linearGradient3773">
      <stop
         style="stop-color:#590000;stop-opacity:1"
         offset="0"
         id="stop3775" />
      <stop
         style="stop-color:#bf0000;stop-opacity:1"
         offset="1"
         id="stop3777" />
    </linearGradient>
  </defs>
  <sodipodi:namedview
     id="base"
     pagecolor="#ffffff"
     bordercolor="#666666"
     borderopacity="1.0"
     inkscape:pageopacity="0.0"
     inkscape:pageshadow="2"
     inkscape:zoom="10.871767"
     inkscape:cx="25.248238"
     inkscape:cy="8.3528907"
     inkscape:document-units="mm"
     inkscape:current-layer="g1425"
     showgrid="true"
     units="px"
     inkscape:window-width="1366"
     inkscape:window-height="714"
     inkscape:window-x="0"
     inkscape:window-y="28"
     inkscape:window-maximized="1">
    <inkscape:grid
       type="xygrid"
       id="grid843"
       spacingx="0.13229167"
       spacingy="0.13229167"
       empspacing="2" />
  </sodipodi:namedview>
  <metadata
     id="metadata2411">
    <rdf:RDF>
      <cc:Work
         rdf:about="">
        <dc:format>image/svg+xml</dc:format>
        <dc:type
           rdf:resource="http://purl.org/dc/dcmitype/StillImage" />
        <dc:title></dc:title>
      </cc:Work>
    </rdf:RDF>
  </metadata>
  <g
     inkscape:label="Layer 1"
     inkscape:groupmode="layer"
     id="layer1"
     transform="translate(0,-290.64999)">
    <g
       id="g1425"
       transform="matrix(0.171875,0,0,0.171875,0.26462446,245.68849)">
      <g
         transform="matrix(0,-4.4352168,5.8181074,0,-1597.8853,317.79077)"
         id="g3019">
        <path
           inkscape:connector-curvature="0"
           sodipodi:nodetypes="cccc"
           id="path3986"
           d="m 11.398858,276.22754 -1.8520859,1.32292 1.8520859,1.32291 z"
           style="display:inline;fill:none;fill-opacity:1;fill-rule:evenodd;stroke:url(#linearGradient3797);stroke-width:0.52916664;stroke-linecap:butt;stroke-linejoin:round;stroke-miterlimit:4;stroke-dasharray:none;stroke-opacity:1" />
        <path
           inkscape:connector-curvature="0"
           style="display:inline;fill:url(#radialGradient3799);fill-opacity:1;fill-rule:evenodd;stroke:none;stroke-width:0.26458332px;stroke-linecap:butt;stroke-linejoin:miter;stroke-opacity:1"
           d="m 11.398853,276.25399 -1.8520836,1.29646 1.8520836,1.29646 z"
           id="path3988"
           sodipodi:nodetypes="cccc" />
        <path
           inkscape:connector-curvature="0"
           sodipodi:nodetypes="cccc"
           id="path3990"
           d="m 11.398853,276.25399 -1.8520836,1.29646 h 1.8479476 z"
           style="display:inline;fill:url(#linearGradient3801);fill-opacity:1;fill-rule:evenodd;stroke:none;stroke-width:0.26458332px;stroke-linecap:butt;stroke-linejoin:miter;stroke-opacity:1" />
      </g>
      <g
         aria-label="abc"
         style="font-style:normal;font-weight:normal;font-size:10.58333302px;line-height:125%;font-family:sans-serif;letter-spacing:0px;word-spacing:0px;fill:#000000;fill-opacity:1;stroke:none;stroke-width:0.26458332px;stroke-linecap:butt;stroke-linejoin:miter;stroke-opacity:1"
         id="text857">
        <path
           d="m 4.2744672,288.39179 q 0.1058333,-2.99861 3.7041667,-2.99861 1.7109723,0 2.5929171,0.65264 0.881944,0.635 0.881944,1.86972 v 5.43278 q 0,0.7232 0.79375,0.7232 0.15875,0 0.3175,-0.0353 v 1.11125 q -0.617361,0.15875 -1.005417,0.15875 -0.705555,0 -1.075972,-0.33514 -0.352778,-0.3175 -0.440972,-1.02306 -1.4816667,1.3582 -3.1397223,1.3582 -1.3934723,0 -2.2225001,-0.74084 -0.8113889,-0.74083 -0.8113889,-1.99319 0,-0.40569 0.070556,-0.74083 0.088194,-0.33514 0.1763889,-0.58209 0.1058333,-0.26458 0.3527778,-0.47625 0.2469444,-0.2293 0.4056944,-0.37041 0.1763889,-0.14111 0.5644445,-0.26459 0.4056944,-0.14111 0.6173611,-0.19402 0.2116667,-0.0706 0.7408334,-0.15875 0.5291666,-0.0882 0.7761111,-0.12348 0.2469444,-0.0353 0.8819444,-0.12347 0.8643056,-0.10583 1.1994445,-0.33514 0.3351389,-0.2293 0.3351389,-0.68791 v -0.38806 q 0,-0.67028 -0.5468056,-1.02306 -0.5291666,-0.35277 -1.5169444,-0.35277 -1.0230556,0 -1.5522223,0.40569 -0.5291667,0.38806 -0.6173611,1.23472 z m 2.9456945,5.62681 q 1.2170834,0 1.9931945,-0.635 0.7761111,-0.65264 0.7761111,-1.39347 v -1.65806 q -0.4409722,0.21167 -1.3405556,0.35278 -0.8819444,0.14111 -1.5345833,0.24694 -0.6526389,0.10584 -1.1818056,0.51153 -0.5291667,0.38806 -0.5291667,1.09361 0,0.70556 0.47625,1.09361 0.47625,0.38806 1.3405556,0.38806 z"
           style="font-style:normal;font-variant:normal;font-weight:normal;font-stretch:normal;font-size:17.63888931px;font-family:FreeSans;-inkscape-font-specification:FreeSans;stroke-width:0.26458332px"
           id="path1427" />
        <path
           d="m 13.975305,282.04179 h 1.464028 v 4.86834 q 1.005417,-1.51695 2.8575,-1.51695 1.834445,0 2.892778,1.30528 1.058333,1.30528 1.058333,3.54542 0,2.29305 -1.093611,3.68652 -1.093611,1.37584 -2.928055,1.37584 -1.887362,0 -2.928056,-1.5875 v 1.1818 h -1.322917 z m 4.039306,4.72723 q -1.164167,0 -1.869722,0.98777 -0.705556,0.97014 -0.705556,2.59292 0,1.62278 0.705556,2.61056 0.705555,0.97013 1.869722,0.97013 1.199444,0 1.940278,-0.97013 0.758472,-0.98778 0.758472,-2.55764 0,-1.65806 -0.740833,-2.64584 -0.723195,-0.98777 -1.957917,-0.98777 z"
           style="font-style:normal;font-variant:normal;font-weight:normal;font-stretch:normal;font-size:17.63888931px;font-family:FreeSans;-inkscape-font-specification:FreeSans;stroke-width:0.26458332px"
           id="path1429" />
        <path
           d="m 31.060224,288.76221 h -1.481667 q -0.141111,-0.97014 -0.705555,-1.48167 -0.564445,-0.52916 -1.481667,-0.52916 -1.199445,0 -1.887361,0.98777 -0.670278,0.97014 -0.670278,2.69875 0,1.64042 0.687917,2.57528 0.687916,0.93486 1.905,0.93486 1.887361,0 2.257777,-2.2225 h 1.481667 q -0.141111,1.69334 -1.128889,2.64584 -0.987778,0.93486 -2.645833,0.93486 -1.887361,0 -2.998611,-1.30528 -1.093611,-1.32292 -1.093611,-3.56306 0,-2.29305 1.11125,-3.66888 1.128888,-1.37584 2.998611,-1.37584 1.605139,0 2.557639,0.86431 0.970139,0.8643 1.093611,2.50472 z"
           style="font-style:normal;font-variant:normal;font-weight:normal;font-stretch:normal;font-size:17.63888931px;font-family:FreeSans;-inkscape-font-specification:FreeSans;stroke-width:0.26458332px"
           id="path1431" />
      </g>
    </g>
  </g>
</svg>
