<?xml version="1.0" encoding="UTF-8" standalone="no"?>
<svg
   xmlns:dc="http://purl.org/dc/elements/1.1/"
   xmlns:cc="http://creativecommons.org/ns#"
   xmlns:rdf="http://www.w3.org/1999/02/22-rdf-syntax-ns#"
   xmlns:svg="http://www.w3.org/2000/svg"
   xmlns="http://www.w3.org/2000/svg"
   xmlns:xlink="http://www.w3.org/1999/xlink"
   xmlns:sodipodi="http://sodipodi.sourceforge.net/DTD/sodipodi-0.dtd"
   xmlns:inkscape="http://www.inkscape.org/namespaces/inkscape"
   height="24"
   viewBox="0 0 6.3499999 6.3500002"
   width="24"
   version="1.1"
   id="svg36"
   sodipodi:docname="lc_controlcodes.svg"
   inkscape:version="0.92.4 (unknown)"
   inkscape:export-filename="/home/rizmut/Dokumen/Rizmut/Github/libreoffice-style-karasa-jaga/build/next/cmd/lc_controlcodes.png"
   inkscape:export-xdpi="18"
   inkscape:export-ydpi="18">
  <metadata
     id="metadata42">
    <rdf:RDF>
      <cc:Work
         rdf:about="">
        <dc:format>image/svg+xml</dc:format>
        <dc:type
           rdf:resource="http://purl.org/dc/dcmitype/StillImage" />
        <dc:title></dc:title>
      </cc:Work>
    </rdf:RDF>
  </metadata>
  <defs
     id="defs40" />
  <sodipodi:namedview
     pagecolor="#ffffff"
     bordercolor="#666666"
     borderopacity="1"
     objecttolerance="10"
     gridtolerance="10"
     guidetolerance="10"
     inkscape:pageopacity="0"
     inkscape:pageshadow="2"
     inkscape:window-width="1366"
     inkscape:window-height="706"
     id="namedview38"
     showgrid="true"
     inkscape:zoom="5.6568542"
     inkscape:cx="10.09235"
     inkscape:cy="-1.1814975"
     inkscape:window-x="0"
     inkscape:window-y="0"
     inkscape:window-maximized="1"
     inkscape:current-layer="g34">
    <inkscape:grid
       type="xygrid"
       id="grid849"
       spacingx="0.13229167"
       spacingy="0.13229167"
       empspacing="2" />
  </sodipodi:namedview>
  <linearGradient
     id="a"
     gradientUnits="userSpaceOnUse"
     x1="59.635429"
     x2="67.313499"
     xlink:href="#b"
     y1="141.06953"
     y2="58.193066" />
  <linearGradient
     id="b">
    <stop
       offset="0"
       stop-color="#fff"
       id="stop3" />
    <stop
       offset="1"
       stop-color="#fff"
       stop-opacity="0"
       id="stop5" />
  </linearGradient>
  <filter
     id="c"
     height="1.005726"
     width="1.009696"
     x="-0.0048480001"
     y="-0.0028629999"
     style="color-interpolation-filters:sRGB">
    <feGaussianBlur
       stdDeviation=".12613919"
       id="feGaussianBlur8" />
  </filter>
  <linearGradient
     id="d"
     gradientUnits="userSpaceOnUse"
     x1="66.564514"
     x2="71.956207"
     xlink:href="#b"
     y1="6.6257858"
     y2="-3.0969329" />
  <filter
     id="e"
     height="1.317541"
     width="1.244662"
     x="-0.122331"
     y="-0.15876999">
    <feGaussianBlur
       stdDeviation=".27482165"
       id="feGaussianBlur12" />
  </filter>
  <linearGradient
     id="f"
     gradientUnits="userSpaceOnUse"
     x1="13.952092"
     x2="22.12657"
     xlink:href="#b"
     y1="246.20529"
     y2="279.25595"
     gradientTransform="translate(2.274e-4,0.1282668)" />
  <linearGradient
     id="g"
     gradientUnits="userSpaceOnUse"
     x1="20.924042"
     x2="25.499817"
     y1="295.46051"
     y2="280.09888"
     gradientTransform="translate(2.274e-4,0.1282668)">
    <stop
       offset="0"
       stop-color="#5e5e5e"
       id="stop16" />
    <stop
       offset="1"
       stop-opacity="0"
       id="stop18" />
  </linearGradient>
  <radialGradient
     id="h"
     cx="72.309822"
     cy="22.770975"
     gradientTransform="matrix(0.34522779,0.00166873,-1.0602e-4,0.02193446,-5.5805786,264.29927)"
     gradientUnits="userSpaceOnUse"
     r="35.712891"
     xlink:href="#b" />
  <g
     transform="translate(0,-290.64999)"
     id="g34">
    <g
       id="g4776"
       transform="matrix(0.1875,0,0,0.1875,0,241.31249)">
      <path
         sodipodi:nodetypes="ccccccccccccccccccccccc"
         inkscape:connector-curvature="0"
         id="path22"
         transform="matrix(0.2678093,0,0,0.2678093,7.5740794,264.64249)"
         style="opacity:0.56000001;fill:none;stroke:url(#a);stroke-width:1.13385797;stroke-linecap:round;stroke-linejoin:bevel;filter:url(#c)"
         d="m 29.284036,4.1842705 c -0.304465,0.1057656 -0.61943,0.17845 -0.939453,0.2167969 C 14.721673,5.965408 4.512278,18.554955 4.490234,32.266289 c 2e-6,0.002 -2e-6,0.0039 0,0.0059 -2e-6,0.0013 2e-6,0.0026 0,0.0039 -1.9586684,15.841977 13.825294,27.702387 29.798819,26.742187 2.266784,0.260505 3.978015,2.179234 3.978516,4.460937 V 111.0632 l 3.899561,-10e-6 V 27.418621 c 5.84e-4,-2.479646 2.010588,-4.489651 4.490234,-4.490235 h 3.731362 c 2.479647,5.83e-4 4.489652,2.010588 4.490235,4.490235 v 83.644539 h 3.899559 l 10e-7,-95.622414 c 5.84e-4,-2.479646 3.929852,-4.55663 6.409498,-4.557214 h 3.248047 l 0.0064,-6.7662534 h -3.248047 l -12.822447,0.06698 -12.701226,1.19e-5 z" />
      <path
         sodipodi:nodetypes="cccccccccccsssscccc"
         inkscape:connector-curvature="0"
         style="opacity:0.73999999;fill:url(#h)"
         id="path24"
         d="m 15.027981,264.56056 v 0.066 c -4.24608,0.4876 -7.4485632,4.38432 -7.4539013,8.65831 0.00294,4.27577 5.1113793,7.87026 9.3592423,8.35805 v 13.94596 h 2.822221 v -23.60332 h 1.41111 v 23.60332 h 2.82222 v -26.8111 l 2.137068,-0.0179 c 0.248945,-0.002 0.449183,-0.20036 0.449312,-0.44931 l 0.0017,-3.31798 c 1.29e-4,-0.24895 -0.200366,-0.45191 -0.449312,-0.44983 l -2.143268,0.0179 h -2.913771 -2.872341 z" />
      <path
         sodipodi:nodetypes="cccccccccccsssscccc"
         inkscape:connector-curvature="0"
         id="path26"
         d="m 15.802702,264.54887 -0.28049,-0.004 c -5.184976,0.59192 -7.9427942,4.46643 -7.9481323,8.74042 0.048868,6.23947 5.0196283,8.10353 9.3592423,8.35805 v 13.94596 h 2.822221 v -23.60332 h 1.41111 v 23.60332 h 2.82222 v -26.8111 l 2.370929,-0.0179 c 0.248947,-0.002 0.449183,-0.20036 0.449312,-0.44931 l 0.0017,-3.31798 c 1.29e-4,-0.24895 -0.200358,-0.44983 -0.449312,-0.44983 h -1.623071 l -3.667829,0.0179 h -2.872341 z" />
      <path
         sodipodi:nodetypes="ccccccccccccccccccccccc"
         inkscape:connector-curvature="0"
         style="fill:url(#g)"
         id="path28"
         d="m 15.416617,265.76309 c -0.08154,0.0283 -0.165887,0.0478 -0.251593,0.0581 -3.648342,0.41895 -6.3825142,3.79053 -6.3884179,7.46256 v 0.002 9.1e-4 c 0.00384,3.67359 4.3305129,6.74269 7.9804019,7.1618 0.607069,0.0698 1.065354,0.58363 1.065483,1.19469 v 12.74343 h 1.044338 v -22.40079 c 1.49e-4,-0.66408 0.538449,-1.20238 1.202527,-1.20254 h 0.999294 c 0.664077,1.6e-4 1.202377,0.53846 1.202526,1.20254 v 22.40078 h 1.044339 V 268.778 c 1.6e-4,-0.66407 1.052453,-1.22029 1.716522,-1.22045 h 0.869857 l 0.0017,-1.81207 h -0.869857 l -3.433968,0.0179 h -3.401508 z" />
      <path
         sodipodi:nodetypes="cccccccccccccccccccccc"
         inkscape:connector-curvature="0"
         style="fill:url(#f)"
         id="path30"
         d="m 15.416617,265.76309 c -0.08154,0.0283 -0.165887,0.0478 -0.251593,0.0581 -3.648342,0.41895 -6.3825142,3.79053 -6.3884179,7.46256 v 0.002 9.1e-4 c -0.4820925,4.3804 3.8364709,7.4613 7.9804019,7.1618 0.345495,0.0403 0.656623,0.22821 0.853119,0.51523 0.509085,-0.0623 0.75743,-0.13907 1.256702,-0.23015 v -8.74775 c 1.49e-4,-0.66408 0.538449,-1.20238 1.202527,-1.20254 l 1.206789,0.0117 c 0.664077,1.6e-4 1.202376,0.53846 1.202525,1.20254 v 7.39875 c 0.446192,-0.18438 0.623695,-0.38158 1.044339,-0.59106 V 268.7897 c 1.6e-4,-0.66407 1.052453,-1.22029 1.716523,-1.22045 h 0.869857 l 0.0017,-1.81207 h -0.869857 l -3.433968,0.0179 -3.609003,-0.0117 z" />
      <path
         sodipodi:nodetypes="cccc"
         inkscape:connector-curvature="0"
         style="fill:url(#d);fill-rule:evenodd;filter:url(#e)"
         id="path32"
         transform="matrix(0.2678093,0,0,0.2678093,7.5740794,264.64249)"
         d="M 71.487228,-0.54607905 67.951694,3.6081734 66.095544,3.3430074 Z" />
    </g>
  </g>
</svg>
