<?xml version="1.0" encoding="UTF-8" standalone="no"?>
<svg
   xmlns:dc="http://purl.org/dc/elements/1.1/"
   xmlns:cc="http://creativecommons.org/ns#"
   xmlns:rdf="http://www.w3.org/1999/02/22-rdf-syntax-ns#"
   xmlns:svg="http://www.w3.org/2000/svg"
   xmlns="http://www.w3.org/2000/svg"
   xmlns:sodipodi="http://sodipodi.sourceforge.net/DTD/sodipodi-0.dtd"
   xmlns:inkscape="http://www.inkscape.org/namespaces/inkscape"
   height="24"
   width="24"
   version="1.1"
   id="svg125"
   sodipodi:docname="lc_contourdialog.svg"
   inkscape:version="0.92.4 (unknown)">
  <metadata
     id="metadata131">
    <rdf:RDF>
      <cc:Work
         rdf:about="">
        <dc:format>image/svg+xml</dc:format>
        <dc:type
           rdf:resource="http://purl.org/dc/dcmitype/StillImage" />
      </cc:Work>
    </rdf:RDF>
  </metadata>
  <defs
     id="defs129" />
  <sodipodi:namedview
     pagecolor="#ffffff"
     bordercolor="#666666"
     borderopacity="1"
     objecttolerance="10"
     gridtolerance="10"
     guidetolerance="10"
     inkscape:pageopacity="0"
     inkscape:pageshadow="2"
     inkscape:window-width="1366"
     inkscape:window-height="714"
     id="namedview127"
     showgrid="false"
     inkscape:zoom="9.8333333"
     inkscape:cx="-0.81355932"
     inkscape:cy="12"
     inkscape:window-x="0"
     inkscape:window-y="28"
     inkscape:window-maximized="1"
     inkscape:current-layer="svg125" />
  <filter
     id="a">
    <feGaussianBlur
       stdDeviation="2.0786429"
       id="feGaussianBlur2" />
  </filter>
  <radialGradient
     id="b"
     cx="109.42462"
     cy="127.15892"
     gradientTransform="matrix(1 0 0 .9996653 -8.000004 3.603016)"
     gradientUnits="userSpaceOnUse"
     r="139.55859">
    <stop
       offset="0"
       stop-color="#b7b8b9"
       id="stop5" />
    <stop
       offset=".18851049"
       stop-color="#ececec"
       id="stop7" />
    <stop
       offset=".25718147"
       stop-color="#fafafa"
       id="stop9" />
    <stop
       offset=".30111277"
       stop-color="#fff"
       id="stop11" />
    <stop
       offset=".5313"
       stop-color="#fafafa"
       id="stop13" />
    <stop
       offset=".8449"
       stop-color="#ebecec"
       id="stop15" />
    <stop
       offset="1"
       stop-color="#e1e2e3"
       id="stop17" />
  </radialGradient>
  <linearGradient
     id="d"
     gradientUnits="userSpaceOnUse"
     x1="104.00008076097"
     x2="104.00008076097"
     y1="55.6008062392"
     y2="162.26589184034">
    <stop
       offset="0"
       stop-color="#99999c"
       id="stop23" />
    <stop
       offset=".5"
       stop-color="#9c9ca1"
       id="stop25" />
    <stop
       offset="1"
       stop-color="#cdcdd1"
       id="stop27" />
  </linearGradient>
  <linearGradient
     id="e"
     gradientUnits="userSpaceOnUse"
     x1="85.39464631778"
     x2="123.6495491607"
     y1="94.38110901615"
     y2="115.18459845549">
    <stop
       offset="0"
       stop-color="#fff"
       id="stop30" />
    <stop
       offset="1"
       stop-color="#ccc"
       id="stop32" />
  </linearGradient>
  <linearGradient
     id="f"
     gradientUnits="userSpaceOnUse"
     x1="88.38102"
     x2="130.48599"
     y1="1008.9966"
     y2="1015.6953">
    <stop
       offset="0"
       stop-color="#7b7b7b"
       id="stop35" />
    <stop
       offset="1"
       stop-color="#797979"
       stop-opacity="0"
       id="stop37" />
  </linearGradient>
  <filter
     id="g"
     color-interpolation-filters="sRGB"
     height="1.073732"
     width="1.13754"
     x="-.06877"
     y="-.036866">
    <feGaussianBlur
       stdDeviation="1.0557314"
       id="feGaussianBlur40" />
  </filter>
  <linearGradient
     id="h"
     gradientUnits="userSpaceOnUse"
     x1="105.76633108528"
     x2="120.0603343885"
     y1="47.75966569847"
     y2="87.11349978954">
    <stop
       offset="0"
       stop-color="#fff"
       stop-opacity=".683453"
       id="stop43" />
    <stop
       offset="1"
       stop-color="#fff"
       stop-opacity="0"
       id="stop45" />
  </linearGradient>
  <linearGradient
     id="i"
     gradientTransform="matrix(.53433953 0 0 .61119966 70.330321 -506.53199)"
     gradientUnits="userSpaceOnUse"
     x1="63.011921"
     x2="63.011921"
     y1="945.89801"
     y2="1033.1569">
    <stop
       offset="0"
       stop-color="#545454"
       stop-opacity=".988"
       id="stop48" />
    <stop
       offset="1"
       stop-color="#ebebeb"
       id="stop50" />
  </linearGradient>
  <linearGradient
     id="j"
     gradientTransform="matrix(.44041585 0 0 .60663672 131.34153 -517.37269)"
     gradientUnits="userSpaceOnUse"
     x1="-60.535713"
     x2="-60.357143"
     y1="979.50507"
     y2="1009.505">
    <stop
       offset="0"
       stop-color="#979797"
       id="stop53" />
    <stop
       offset=".148461"
       stop-color="#f6f6f6"
       id="stop55" />
    <stop
       offset=".28399727"
       stop-color="#e2e2e2"
       id="stop57" />
    <stop
       offset=".41198727"
       stop-color="#dedede"
       id="stop59" />
    <stop
       offset=".41198727"
       stop-color="#f6f6f6"
       id="stop61" />
    <stop
       offset="1"
       stop-color="#6b6b6b"
       id="stop63" />
  </linearGradient>
  <linearGradient
     id="k"
     gradientTransform="matrix(.44041583 0 0 -.53450186 131.37093 -445.18578)"
     gradientUnits="userSpaceOnUse"
     x1="-61.078979"
     x2="-60.6413"
     y1="-1056.658"
     y2="-1010.9131">
    <stop
       offset="0"
       stop-color="#777"
       id="stop66" />
    <stop
       offset=".18176934"
       stop-color="#a8a8a8"
       id="stop68" />
    <stop
       offset=".22864534"
       stop-color="#cdcdcd"
       id="stop70" />
    <stop
       offset=".34561315"
       stop-color="#f7f7f7"
       id="stop72" />
    <stop
       offset="1"
       stop-color="#fff"
       id="stop74" />
  </linearGradient>
  <g
     clip-path="none"
     transform="translate(-2.666664 -106.26659)"
     id="g123">
    <g
       transform="matrix(.1875 0 0 .1875 2.166665 105.84159)"
       id="g121">
      <g
         clip-path="none"
         id="g99">
        <path
           clip-path="none"
           d="m5.9999943 6.6.04 116.69993h116.7399257l-.04-116.69993z"
           filter="url(#a)"
           opacity=".553903"
           id="path77" />
        <path
           clip-path="none"
           d="m7.9999943 7.6v111.99993h111.2361757l.83598-.004.008-.8398-.08023-111.15613z"
           fill="#fff"
           id="path79" />
        <path
           clip-path="none"
           d="m14.999994 13.2c-.551 0-1 .449185-1 1l-.18 99.57993 99.109926.02c.69134 0 1.35-1.06653 1.35-1.84375l-.14-97.55618c0-.550815-.448-1-1-1z"
           fill="url(#b)"
           id="path81" />
        <g
           fill="#404040"
           fill-opacity=".839216"
           id="g95">
          <path
             clip-path="none"
             d="m-109.33327 18.266661h90.666611v5.333331h-90.666611z"
             transform="scale(-1 1)"
             id="path83" />
          <path
             clip-path="none"
             d="m18.666664 98.26659v5.33398h54.3125a9.0631907 9.0631907 0 0 1 -6.054688-5.33398zm77.890625 0a9.0631907 9.0631907 0 0 1 -6.085937 5.33398h18.861328v-5.33398z"
             id="path85" />
          <path
             clip-path="none"
             d="m18.666664 34.26659v5.333984h13.189453c.508715-1.796546 1.180113-3.575207 2.023438-5.333984zm35.666016 0c.07673.554484.0868.584544.173828 1.255859.172345 1.329387.283805 2.676297.382812 4.078125h15.6875a9.0631907 9.0631907 0 0 1 16.177735 0h22.578125v-5.333984z"
             id="path87" />
          <path
             clip-path="none"
             d="m18.666664 50.26659v5.333984h13.013672c-.369345-1.776877-.643052-3.547164-.791016-5.333984zm39.972656 0c1.162004 1.981571 2.53573 3.707588 4.105469 5.333984h7.044922c-.221531-.759067-.428026-1.5501-.601563-2.417968-.185527-.927832-.306187-1.906443-.363281-2.916016zm32.958985 0c.578309 1.439674 1.233037 3.203523 1.972656 5.333984h15.761719v-5.333984z"
             id="path89" />
          <path
             clip-path="none"
             d="m18.666664 66.26659v5.333984h18.464844c-.820036-1.669774-1.57995-3.456895-2.302735-5.333984zm77.666016 0c.161525 1.667784.248785 3.465731.316406 5.333984h12.683594v-5.333984z"
             id="path91" />
          <path
             clip-path="none"
             d="m18.666664 82.26659v5.333984h32.054688c-1.348729-.8988-2.661738-1.871321-3.925782-2.972656-.851923-.742263-1.665234-1.532785-2.447265-2.361328zm78.244141 0c.03491 1.812888.07161 3.60728.109375 5.333984h12.3125v-5.333984z"
             id="path93" />
        </g>
        <path
           clip-path="none"
           d="m88.174619 94.846118c-.427769-9.51911-.261371-25.031438-1.218745-30.413812-6.191669-19.445583-6.268416-13.62971-8.287355-20.751997-1.94666 6.292789-.29165 9.293039 1.94997 15.037659 1.021633 6.786647-1.874818 14.713931-2.924971 17.744533-15.105688-7.986829-27.902733-15.523694-31.686943-34.887477 0-1.80456-.974986-8.421142-.974986-8.421142-6.452409 9.178232-6.151639 15.157635-3.168691 25.864881 5.952573 18.465901 13.401143 22.276736 29.026358 27.970166.969211.288544 3.866985.402874 4.387429 1.503765.522797.851616.02813 4.216563.03034 6.353424z"
           fill="#06f"
           fill-rule="evenodd"
           id="path97" />
      </g>
      <g
         clip-path="none"
         id="g119">
        <path
           clip-path="none"
           d="m77.333809 55.600821h53.332541v74.665599h-53.332541z"
           fill="url(#d)"
           stroke-width=".916666"
           id="path101" />
        <path
           clip-path="none"
           d="m82.667064 60.934061h42.666026v63.999069h-42.666026z"
           fill="url(#e)"
           stroke-width=".916666"
           id="path103" />
        <path
           clip-path="none"
           d="m92.81509 1029.6319c1.071428 1.4286 10.71429 15.3572 11.78571 13.5715 1.07143-1.7858 22.1275-24.0868 20.69893-25.5154-1.42857-1.4285-29.627497-43.05607-29.627497-43.05607z"
           fill="url(#f)"
           fill-rule="evenodd"
           filter="url(#g)"
           opacity=".68"
           transform="matrix(.63533481 0 0 .63533481 51.059149 -537.63947)"
           id="path105" />
        <g
           stroke-width=".916666"
           id="g117">
          <path
             clip-path="none"
             d="m82.667064 60.934061v43.340549c12.990679-15.125081 30.743576-21.227552 42.665656-22.93708v-20.40298z"
             fill="url(#h)"
             fill-rule="evenodd"
             id="path107" />
          <path
             clip-path="none"
             d="m93.333572 71.600569h21.333018v42.666031h-21.333018z"
             fill="url(#i)"
             id="path109" />
          <path
             clip-path="none"
             d="m95.766494 74.165334h16.212816v37.734266h-16.212816z"
             fill="#535353"
             id="path111" />
          <path
             clip-path="none"
             d="m98.666826 76.933823h10.666504v15.999763h-10.666504z"
             fill="url(#j)"
             id="path113" />
          <path
             clip-path="none"
             d="m98.666826 119.59986h10.666504v-26.666274h-10.666504z"
             fill="url(#k)"
             id="path115" />
        </g>
      </g>
    </g>
  </g>
</svg>
