<?xml version="1.0" encoding="UTF-8" standalone="no"?>
<svg
   xmlns:dc="http://purl.org/dc/elements/1.1/"
   xmlns:cc="http://creativecommons.org/ns#"
   xmlns:rdf="http://www.w3.org/1999/02/22-rdf-syntax-ns#"
   xmlns:svg="http://www.w3.org/2000/svg"
   xmlns="http://www.w3.org/2000/svg"
   xmlns:sodipodi="http://sodipodi.sourceforge.net/DTD/sodipodi-0.dtd"
   xmlns:inkscape="http://www.inkscape.org/namespaces/inkscape"
   enable-background="new 0 0 128 128"
   height="24"
   viewBox="0 0 24 24"
   width="24"
   version="1.1"
   id="svg32"
   sodipodi:docname="lc_closemasterview.svg"
   inkscape:version="0.92.4 (unknown)"
   inkscape:export-filename="/home/rizmut/Dokumen/Rizmut/Github/libreoffice-style-karasa-jaga/build/next/cmd/lc_closemasterview.png"
   inkscape:export-xdpi="96"
   inkscape:export-ydpi="96">
  <metadata
     id="metadata38">
    <rdf:RDF>
      <cc:Work
         rdf:about="">
        <dc:format>image/svg+xml</dc:format>
        <dc:type
           rdf:resource="http://purl.org/dc/dcmitype/StillImage" />
        <dc:title></dc:title>
      </cc:Work>
    </rdf:RDF>
  </metadata>
  <defs
     id="defs36">
    <filter
       style="color-interpolation-filters:sRGB"
       id="a-5"
       height="1.072142"
       width="1.071866"
       x="-0.035932999"
       y="-0.036070999">
      <feGaussianBlur
         stdDeviation=".66434216"
         id="feGaussianBlur2-3" />
    </filter>
    <radialGradient
       id="b-5"
       cx="-55.685837"
       cy="-347.11612"
       gradientTransform="matrix(-0.86504954,-0.23178932,0.25123373,-0.93761707,-20.024968,-685.26085)"
       gradientUnits="userSpaceOnUse"
       r="22.14249">
      <stop
         offset="0"
         stop-color="#f00d0d"
         id="stop5" />
      <stop
         offset="1"
         stop-color="#8e0c0c"
         id="stop7" />
    </radialGradient>
    <linearGradient
       id="c"
       gradientUnits="userSpaceOnUse"
       x1="328.12448"
       x2="336.98077"
       y1="120.81158"
       y2="87.759453">
      <stop
         offset="0"
         stop-color="#ff5a00"
         id="stop10" />
      <stop
         offset="1"
         stop-color="#983d00"
         id="stop12" />
    </linearGradient>
    <clipPath
       id="d">
      <circle
         cx="343.91208"
         cy="92.325096"
         r="36"
         transform="matrix(0.86602539,0.50000002,0.49999965,-0.86602561,0,0)"
         id="circle15" />
    </clipPath>
    <filter
       id="e">
      <feGaussianBlur
         stdDeviation="2.8805897"
         id="feGaussianBlur18" />
    </filter>
    <radialGradient
       id="f"
       cx="343.99899"
       cy="92"
       gradientTransform="matrix(0.41312598,0,0,0.41312571,-205.35142,-369.33358)"
       gradientUnits="userSpaceOnUse"
       r="36">
      <stop
         offset="0"
         stop-color="#ff9800"
         id="stop21" />
      <stop
         offset="1"
         stop-color="#f5a800"
         stop-opacity="0"
         id="stop23" />
    </radialGradient>
    <linearGradient
       id="g"
       gradientTransform="matrix(0,0.45792999,-0.45793032,0,86.389161,323.04227)"
       gradientUnits="userSpaceOnUse"
       x1="-80.00296"
       x2="-45.096584"
       y1="-131.93112"
       y2="-131.93112">
      <stop
         offset="0"
         stop-color="#fff"
         id="stop26" />
      <stop
         offset="1"
         stop-color="#fff"
         stop-opacity="0"
         id="stop28" />
    </linearGradient>
    <linearGradient
       id="h"
       gradientUnits="userSpaceOnUse"
       x1="122.00004"
       x2="122.00004"
       y1="61.999996"
       y2="9.9328432">
      <stop
         offset="0"
         stop-color="#4d2000"
         stop-opacity="0"
         id="stop31" />
      <stop
         offset=".5"
         stop-color="#4d0f00"
         id="stop33" />
      <stop
         offset="1"
         stop-color="#4d1d00"
         stop-opacity="0"
         id="stop35" />
    </linearGradient>
    <filter
       id="i">
      <feGaussianBlur
         stdDeviation="1.04"
         id="feGaussianBlur38" />
    </filter>
  </defs>
  <sodipodi:namedview
     pagecolor="#ffffff"
     bordercolor="#666666"
     borderopacity="1"
     objecttolerance="10"
     gridtolerance="10"
     guidetolerance="10"
     inkscape:pageopacity="0"
     inkscape:pageshadow="2"
     inkscape:window-width="1366"
     inkscape:window-height="714"
     id="namedview34"
     showgrid="true"
     inkscape:zoom="10.429825"
     inkscape:cx="12.20969"
     inkscape:cy="6.4079345"
     inkscape:window-x="0"
     inkscape:window-y="28"
     inkscape:window-maximized="1"
     inkscape:current-layer="svg32">
    <inkscape:grid
       type="xygrid"
       id="grid845" />
  </sodipodi:namedview>
  <filter
     id="a">
    <feGaussianBlur
       stdDeviation="1.0394514"
       id="feGaussianBlur2" />
  </filter>
  <filter
     id="b">
    <feGaussianBlur
       stdDeviation=".50063244"
       id="feGaussianBlur5" />
  </filter>
  <g
     id="g861"
     transform="matrix(0.171875,0,0,0.171875,1,2)">
    <path
       id="path8"
       transform="matrix(0,1.0090419,-1.003276,0,127.07723,-1.871126)"
       d="m 17.231041,2.9481715 0.04228,120.0452085 91.230293,0.0764 c 0.375,-0.375 0.586,-0.884 0.586,-1.414 l -0.001,-118.7075092 z"
       inkscape:connector-curvature="0"
       style="opacity:0.30684904;filter:url(#a)"
       sodipodi:nodetypes="cccscc" />
    <path
       id="path10"
       transform="matrix(0,1.0090419,-1.003276,0,127.07723,-1.871126)"
       d="m 17.231041,3.9136887 0.04228,119.0796913 91.230293,0.0764 c 0.375,-0.375 0.586,-0.884 0.586,-1.414 l -0.001,-117.741972 -91.857105,-8.93e-5 z"
       inkscape:connector-curvature="0"
       style="opacity:0.30684904;filter:url(#a)"
       sodipodi:nodetypes="cccsccc" />
    <path
       id="path12"
       transform="matrix(0,1.0090419,-1.003276,0,127.07723,-1.871126)"
       d="m 17.231041,2.916954 4e-6,120.076426 H 109.08815 V 2.916974 H 17.231045 Z"
       inkscape:connector-curvature="0"
       style="opacity:0.55342503;filter:url(#a)"
       sodipodi:nodetypes="cccccc" />
    <path
       id="path14"
       transform="matrix(0,1.0090419,-1.003276,0,127.07723,-1.871126)"
       d="m 19.15104,4.8793075 0.0015,115.9837925 88.01611,-0.0577 V 4.8794368 l -88.017106,-8.93e-5 z"
       inkscape:connector-curvature="0"
       style="opacity:0.89589;filter:url(#b)"
       sodipodi:nodetypes="cccccc" />
    <path
       id="path16"
       d="m 122.18193,17.453078 -116.3637404,0.0015 -7.8e-6,87.272722 116.3636382,0 1.3e-4,-87.273722 z"
       inkscape:connector-curvature="0"
       style="fill:#80b3ff"
       sodipodi:nodetypes="cccccc" />
    <g
       id="g30"
       style="fill:#eeeeee">
      <path
         id="path20"
         d="m 110.54545,23.272727 5.81819,0 v 75.561805 h -5.67844 z"
         inkscape:connector-curvature="0"
         style="stroke-width:1.04087579"
         sodipodi:nodetypes="ccccc" />
      <path
         id="path22"
         d="m 11.646499,23.272727 h 5.8181 l -0.01005,75.636364 h -5.818181 z"
         inkscape:connector-curvature="0"
         style="stroke-width:1.03933132"
         sodipodi:nodetypes="ccccc" />
      <path
         id="path24"
         d="m 17.454545,93.090909 h 93.090905 v 5.818182 H 17.454545 Z"
         inkscape:connector-curvature="0"
         style="stroke-width:1.03280413"
         sodipodi:nodetypes="ccccc" />
      <path
         id="path26"
         d="m 17.454561,23.272727 h 93.091159 v 5.8181 H 17.454561 Z"
         inkscape:connector-curvature="0"
         style="stroke-width:1.03280413" />
      <path
         id="path28"
         d="m 17.4543,46.5466 h 93.09115 v 5.8181 H 17.4543 Z"
         inkscape:connector-curvature="0"
         style="stroke-width:1.03280413" />
    </g>
  </g>
  <g
     transform="matrix(0.27273195,0,0,0.27273195,-21.668759,-64.776653)"
     id="g86">
    <ellipse
       style="fill:none;stroke-width:0.550834"
       cx="-220.42743"
       cy="255.3185"
       rx="19.830044"
       ry="19.830032"
       transform="matrix(-0.96592587,-0.2588189,-0.25881915,0.9659258,0,0)"
       id="ellipse70" />
    <ellipse
       style="fill:#292929;filter:url(#a-5)"
       cx="-59.830322"
       cy="-331.66757"
       rx="22.14249"
       ry="22.142477"
       transform="matrix(-0.86776569,0.22597441,-0.23251696,-0.84334855,17.798137,38.709723)"
       id="ellipse72" />
    <ellipse
       style="fill:url(#b-5)"
       cx="-63.236477"
       cy="-331.32599"
       rx="19.830044"
       ry="19.830032"
       transform="rotate(165.00001)"
       id="ellipse74" />
    <circle
       cx="343.99899"
       cy="92"
       r="36"
       style="opacity:0.8;fill:none;stroke:url(#c);stroke-width:6.75138187;filter:url(#e)"
       transform="matrix(-0.53206533,-0.14256639,-0.14256644,0.53206495,342.9813,303.76222)"
       clip-path="url(#d)"
       id="circle76" />
    <ellipse
       style="fill:url(#f);stroke-width:0.41312599"
       cx="-63.2365"
       cy="-331.32602"
       rx="14.872535"
       ry="14.872525"
       transform="rotate(165)"
       id="ellipse78" />
    <path
       style="opacity:0.8;fill:url(#g);stroke-width:0.76311499"
       inkscape:connector-curvature="0"
       d="m 146.83527,286.40654 c -7.03226,0 -12.90835,4.96571 -14.32464,11.57705 2.82305,2.63167 8.17963,4.40756 14.32464,4.40756 6.14499,0 11.50156,-1.77589 14.32461,-4.40756 -1.41629,-6.61134 -7.29237,-11.57705 -14.32461,-11.57705 z"
       id="path80" />
    <path
       inkscape:connector-curvature="0"
       d="m 120.01465,21.014613 v 13 H 108.8884 v 3.970777 h 11.12625 v 13 h 3.97076 v -13 h 11.12626 v -3.970777 h -11.12626 v -13 z"
       style="fill:none;stroke:url(#h);stroke-width:4;stroke-linecap:round;stroke-linejoin:round;filter:url(#i)"
       transform="matrix(0.67592846,-0.67592846,0.67592846,0.67592846,40.038528,363.59052)"
       id="path82" />
    <path
       style="fill:#ffffff;fill-rule:evenodd"
       inkscape:connector-curvature="0"
       d="m 135.36421,296.14896 7.52056,7.52055 -7.52055,7.52055 3.95048,3.95048 7.52054,-7.52055 7.52055,7.52055 3.95048,-3.95048 -7.52055,-7.52055 7.52056,-7.52055 -3.95048,-3.95048 -7.52056,7.52055 -7.52055,-7.52055 z"
       id="path84" />
  </g>
</svg>
