<?xml version="1.0" encoding="UTF-8" standalone="no"?>
<svg
   xmlns:dc="http://purl.org/dc/elements/1.1/"
   xmlns:cc="http://creativecommons.org/ns#"
   xmlns:rdf="http://www.w3.org/1999/02/22-rdf-syntax-ns#"
   xmlns:svg="http://www.w3.org/2000/svg"
   xmlns="http://www.w3.org/2000/svg"
   xmlns:xlink="http://www.w3.org/1999/xlink"
   xmlns:sodipodi="http://sodipodi.sourceforge.net/DTD/sodipodi-0.dtd"
   xmlns:inkscape="http://www.inkscape.org/namespaces/inkscape"
   height="24"
   viewBox="0 0 24 24"
   width="24"
   version="1.1"
   id="svg147"
   sodipodi:docname="lc_dbreportopen.svg"
   inkscape:version="0.92.3 (2405546, 2018-03-11)"
   inkscape:export-filename="/home/rizmut/Dokumen/Rizmut/Github/libreoffice-style-karasa-jaga/build/next/cmd/lc_dbreportopen.png"
   inkscape:export-xdpi="96"
   inkscape:export-ydpi="96">
  <metadata
     id="metadata153">
    <rdf:RDF>
      <cc:Work
         rdf:about="">
        <dc:format>image/svg+xml</dc:format>
        <dc:type
           rdf:resource="http://purl.org/dc/dcmitype/StillImage" />
        <dc:title></dc:title>
      </cc:Work>
    </rdf:RDF>
  </metadata>
  <defs
     id="defs151">
    <clipPath
       clipPathUnits="userSpaceOnUse"
       id="clipPath963">
      <rect
         id="rect965"
         y="942.46356"
         x="30.971436"
         width="114.62861"
         rx="4"
         height="50.571445"
         style="stroke-width:1" />
    </clipPath>
    <filter
       id="m-3">
      <feGaussianBlur
         stdDeviation="1.5999062"
         id="feGaussianBlur40-6" />
    </filter>
    <linearGradient
       id="o-7"
       gradientTransform="matrix(0.11777685,0,0,0.17033799,-1.341286,-69.362806)"
       gradientUnits="userSpaceOnUse"
       x1="399.77466"
       x2="399.77466"
       y1="731.09662"
       y2="480.60214">
      <stop
         offset="0"
         stop-color="#cbcbcd"
         id="stop50" />
      <stop
         offset=".5"
         stop-color="#e0e0e2"
         id="stop52" />
      <stop
         offset="1"
         stop-color="#f2f2f2"
         id="stop54" />
    </linearGradient>
    <linearGradient
       id="n-5"
       gradientTransform="matrix(0.11777685,0,0,0.17033799,114.48257,275.18533)"
       gradientUnits="userSpaceOnUse"
       x1="-333.0289"
       x2="-333.0289"
       y1="-1473.6504"
       y2="-776.61371">
      <stop
         offset="0"
         stop-color="#fff"
         id="stop43" />
      <stop
         offset=".49140647"
         stop-color="#fff"
         id="stop45" />
      <stop
         offset="1"
         stop-color="#dcdcdc"
         id="stop47" />
    </linearGradient>
    <filter
       id="s-3">
      <feGaussianBlur
         stdDeviation="1.5999062"
         id="feGaussianBlur78" />
    </filter>
    <linearGradient
       id="t-6"
       gradientTransform="matrix(0.03116178,0,0,0.04506859,-0.483098,242.98515)"
       gradientUnits="userSpaceOnUse"
       x1="399.77466"
       x2="399.77466"
       y1="731.09662"
       y2="480.60214">
      <stop
         offset="0"
         stop-color="#cbcbcd"
         id="stop81-7" />
      <stop
         offset=".5"
         stop-color="#e0e0e2"
         id="stop83-5" />
      <stop
         offset="1"
         stop-color="#f2f2f2"
         id="stop85-3" />
    </linearGradient>
    <linearGradient
       id="u-5"
       gradientTransform="matrix(0.03116178,0,0,0.04506859,30.161964,334.14685)"
       gradientUnits="userSpaceOnUse"
       x1="-333.0289"
       x2="-333.0289"
       y1="-1473.6504"
       y2="-776.61371">
      <stop
         offset="0"
         stop-color="#fff"
         id="stop88" />
      <stop
         offset=".49140647"
         stop-color="#fff"
         id="stop90" />
      <stop
         offset="1"
         stop-color="#dcdcdc"
         id="stop92" />
    </linearGradient>
    <linearGradient
       id="v-6"
       gradientUnits="userSpaceOnUse"
       x1="20.012131"
       x2="20.012131"
       y1="281.60605"
       y2="275.44846">
      <stop
         offset="0"
         stop-color="#e8e8e8"
         id="stop95" />
      <stop
         offset=".234375"
         stop-color="#fff"
         id="stop97" />
      <stop
         offset=".69675177"
         stop-color="#ededed"
         id="stop99" />
      <stop
         offset=".90625"
         stop-color="#6c6c6c"
         id="stop101" />
      <stop
         offset="1"
         stop-color="#2b2b2b"
         id="stop103" />
    </linearGradient>
    <linearGradient
       id="w-2"
       gradientUnits="userSpaceOnUse"
       x1="10.775769"
       x2="12.315168"
       xlink:href="#x"
       y1="278.52701"
       y2="278.52701" />
    <linearGradient
       id="x">
      <stop
         offset="0"
         stop-color="#aaa"
         id="stop107" />
      <stop
         offset="1"
         stop-color="#aaa"
         stop-opacity="0"
         id="stop109" />
    </linearGradient>
    <linearGradient
       id="y"
       gradientUnits="userSpaceOnUse"
       x1="-30.788231"
       x2="-29.248831"
       xlink:href="#x"
       y1="278.52701"
       y2="278.52701" />
    <filter
       id="A">
      <feGaussianBlur
         stdDeviation=".50622511"
         id="feGaussianBlur120" />
    </filter>
    <linearGradient
       id="z"
       gradientTransform="matrix(0.35316395,0,0,0.33250146,-16.730027,-307.465)"
       gradientUnits="userSpaceOnUse"
       x1="101.3308"
       x2="101.3308"
       y1="51.34185"
       y2="66.668198">
      <stop
         offset="0"
         stop-color="#cbcbcd"
         id="stop113" />
      <stop
         offset=".66545075"
         stop-color="#e0e0e2"
         id="stop115" />
      <stop
         offset="1"
         stop-color="#fff"
         id="stop117" />
    </linearGradient>
    <filter
       id="s-9">
      <feGaussianBlur
         stdDeviation="1.5999062"
         id="feGaussianBlur78-3" />
    </filter>
    <filter
       id="o-3">
      <feGaussianBlur
         stdDeviation="1.0394514"
         id="feGaussianBlur60" />
    </filter>
    <filter
       id="filter176">
      <feGaussianBlur
         stdDeviation="1.0394514"
         id="feGaussianBlur174" />
    </filter>
    <filter
       id="filter180">
      <feGaussianBlur
         stdDeviation="1.0394514"
         id="feGaussianBlur178" />
    </filter>
    <filter
       id="p-7">
      <feGaussianBlur
         stdDeviation=".50063244"
         id="feGaussianBlur63" />
    </filter>
    <radialGradient
       id="n-59"
       cx="100.80984"
       cy="112.93461"
       gradientUnits="userSpaceOnUse"
       r="135.18756">
      <stop
         offset="0"
         stop-color="#f1f1f1"
         id="stop53" />
      <stop
         offset=".24349999"
         stop-color="#fcfcfc"
         id="stop55-2" />
      <stop
         offset=".2722"
         stop-color="#fff"
         id="stop57-2" />
    </radialGradient>
    <radialGradient
       id="m-8"
       cx="102"
       cy="112.3047"
       gradientTransform="matrix(0.94807,0,0,0.9510679,3.32352,5.274458)"
       gradientUnits="userSpaceOnUse"
       r="139.55859">
      <stop
         offset="0"
         stop-color="#ececec"
         id="stop40" />
      <stop
         offset=".2363"
         stop-color="#fafafa"
         id="stop42" />
      <stop
         offset=".2722"
         stop-color="#fff"
         id="stop44" />
      <stop
         offset=".5313"
         stop-color="#fafafa"
         id="stop46" />
      <stop
         offset=".8449"
         stop-color="#ebecec"
         id="stop48" />
      <stop
         offset="1"
         stop-color="#e1e2e3"
         id="stop50-9" />
    </radialGradient>
  </defs>
  <sodipodi:namedview
     pagecolor="#ffffff"
     bordercolor="#666666"
     borderopacity="1"
     objecttolerance="10"
     gridtolerance="10"
     guidetolerance="10"
     inkscape:pageopacity="0"
     inkscape:pageshadow="2"
     inkscape:window-width="1366"
     inkscape:window-height="714"
     id="namedview149"
     showgrid="true"
     inkscape:snap-smooth-nodes="true"
     inkscape:zoom="20.083333"
     inkscape:cx="3.0124475"
     inkscape:cy="12"
     inkscape:window-x="0"
     inkscape:window-y="28"
     inkscape:window-maximized="1"
     inkscape:current-layer="svg147">
    <inkscape:grid
       type="xygrid"
       id="grid960" />
  </sodipodi:namedview>
  <linearGradient
     id="a"
     gradientUnits="userSpaceOnUse"
     x1="7.739838"
     x2="8"
     y1="1.357724"
     y2="14">
    <stop
       offset="0"
       stop-color="#587bcb"
       id="stop2" />
    <stop
       offset=".94117647"
       stop-color="#3f59ae"
       id="stop4" />
    <stop
       offset="1"
       stop-color="#3d7cdb"
       id="stop6" />
  </linearGradient>
  <linearGradient
     id="b"
     gradientTransform="matrix(1.375,0,0,1,-1.375,0)"
     gradientUnits="userSpaceOnUse"
     x1="6.5"
     x2="6.5"
     y1="11"
     y2="12">
    <stop
       offset="0"
       stop-color="#2a3674"
       id="stop9" />
    <stop
       offset="1"
       stop-color="#174072"
       stop-opacity="0"
       id="stop11" />
  </linearGradient>
  <linearGradient
     id="c"
     gradientUnits="userSpaceOnUse"
     x1="9"
     x2="9"
     y1="-7"
     y2="4">
    <stop
       offset="0"
       stop-color="#102134"
       id="stop14" />
    <stop
       offset="1"
       stop-color="#102134"
       stop-opacity="0"
       id="stop16" />
  </linearGradient>
  <filter
     id="d"
     color-interpolation-filters="sRGB"
     height="1.267833"
     width="1.129187"
     x="-.064594"
     y="-.133917">
    <feGaussianBlur
       stdDeviation="3.1247207"
       id="feGaussianBlur19" />
  </filter>
  <linearGradient
     id="e"
     gradientUnits="userSpaceOnUse"
     x1="0.5"
     x2=".37741"
     y1="9"
     y2="3.309088">
    <stop
       offset="0"
       stop-color="#34608f"
       id="stop22" />
    <stop
       offset="1"
       stop-color="#34608f"
       stop-opacity="0"
       id="stop24" />
  </linearGradient>
  <linearGradient
     id="f"
     gradientTransform="matrix(0.21345221,0,0,0.1138394,-5.411169,-103.22724)"
     gradientUnits="userSpaceOnUse"
     x1="121.39096"
     x2="124.01234"
     y1="994.62262"
     y2="935.34326">
    <stop
       offset="0"
       id="stop27" />
    <stop
       offset="1"
       stop-color="#34608f"
       stop-opacity="0"
       id="stop29" />
  </linearGradient>
  <linearGradient
     id="g"
     gradientUnits="userSpaceOnUse"
     x1="55"
     x2="55"
     y1="1036.4132"
     y2="1032.4822">
    <stop
       offset="0"
       stop-color="#003d7b"
       id="stop32" />
    <stop
       offset="1"
       stop-color="#003d7b"
       stop-opacity="0"
       id="stop34" />
  </linearGradient>
  <filter
     id="h"
     color-interpolation-filters="sRGB"
     height="1.697208"
     width="1.027888"
     x="-.013944"
     y="-.348604">
    <feGaussianBlur
       stdDeviation=".70882694"
       id="feGaussianBlur37" />
  </filter>
  <filter
     id="i"
     color-interpolation-filters="sRGB"
     height="1.869989"
     width="1.027669"
     x="-.013834"
     y="-.434994">
    <feGaussianBlur
       stdDeviation=".70324038"
       id="feGaussianBlur40" />
  </filter>
  <clipPath
     id="k">
    <rect
       height="174.543"
       rx="2.439995"
       ry="4.499993"
       width="232.724"
       x="-75.676788"
       y="52.349762"
       id="rect46" />
  </clipPath>
  <filter
     id="l">
    <feGaussianBlur
       stdDeviation="2.028"
       id="feGaussianBlur49" />
  </filter>
  <filter
     id="m">
    <feGaussianBlur
       stdDeviation="1.8077645"
       id="feGaussianBlur52" />
  </filter>
  <linearGradient
     id="n"
     gradientTransform="matrix(1.003095 0 0 .98228452 -1.76555 .690988)"
     gradientUnits="userSpaceOnUse"
     x1="72"
     x2="72"
     y1="0"
     y2="116.40091">
    <stop
       offset="0"
       stop-color="#eeecec"
       id="stop55" />
    <stop
       offset=".40000001"
       stop-color="#f4f4f4"
       id="stop57" />
    <stop
       offset="1"
       stop-color="#f6f5f5"
       id="stop59" />
  </linearGradient>
  <radialGradient
     id="o"
     cx="64"
     cy="64.004021"
     fx="63.793392"
     fy="47.274845"
     gradientTransform="matrix(1.689423 -.08280186 .06907651 1.3515102 -50.111719 -17.741619)"
     gradientUnits="userSpaceOnUse"
     r="47.5"
     xlink:href="#p" />
  <linearGradient
     id="p">
    <stop
       offset="0"
       stop-color="#fff"
       id="stop63" />
    <stop
       offset="1"
       stop-color="#fff"
       stop-opacity="0"
       id="stop65" />
  </linearGradient>
  <clipPath
     id="q">
    <path
       d="m17.000001 8 .782827 110h57.5c1.675283 0 3.119418.18058 4.9-1.6 8.797935-8.79794 19.757642-19.851805 27.016212-27.175957 2.44056-2.462612 2.80096-4.47117 2.80096-6.724043v-74.5z"
       id="path68" />
  </clipPath>
  <filter
     id="r"
     color-interpolation-filters="sRGB"
     height="2.025501"
     width="1.957419"
     x="-.478709"
     y="-.512751">
    <feGaussianBlur
       stdDeviation="10.140743"
       id="feGaussianBlur71" />
  </filter>
  <filter
     id="s"
     height="1.408259"
     width="1.329301"
     x="-.164651"
     y="-.20413">
    <feGaussianBlur
       stdDeviation="4.2234282"
       id="feGaussianBlur74" />
  </filter>
  <linearGradient
     id="t"
     gradientTransform="matrix(1.4094273 0 0 1.4111689 -46.598939 -46.228314)"
     gradientUnits="userSpaceOnUse"
     x1="82.15696"
     x2="94.220871"
     y1="90.381706"
     y2="102.18401">
    <stop
       offset="0"
       stop-color="#fcfcfc"
       id="stop77" />
    <stop
       offset=".52275378"
       stop-color="#f8f8f8"
       id="stop79" />
    <stop
       offset=".72337759"
       stop-color="#f0efef"
       id="stop81" />
    <stop
       offset=".89024991"
       stop-color="#e3e1e1"
       id="stop83" />
    <stop
       offset="1"
       stop-color="#cecbcb"
       id="stop85" />
  </linearGradient>
  <radialGradient
     id="u"
     cx="90.750004"
     cy="110.252967"
     gradientUnits="userSpaceOnUse"
     r="24.501278"
     xlink:href="#p" />
  <clipPath
     id="v">
    <path
       d="m112 82.502986c0 4.465301-2.79749 6.409952-5.27972 8.093625-5.10854 3.46508-14.939114 3.32536-20.720284 3.40638-.081 5.781159.16586 15.504599-3.29922 20.613139-1.68367 2.48224-5.29051 5.38687-8.20078 5.38687 2.31803 0 4.74284-1.33476 7.58402-4.08481 9.14197-8.84873 17.36714-16.13535 25.673154-25.297529 1.91895-2.116745 4.24283-3.641881 4.24283-8.117675z"
       id="path89" />
  </clipPath>
  <filter
     id="w"
     color-interpolation-filters="sRGB">
    <feGaussianBlur
       stdDeviation=".43040059"
       id="feGaussianBlur92" />
  </filter>
  <g
     transform="matrix(0.171875,0,0,0.171875,-1.005914,-1.0002814)"
     id="g124">
    <g
       style="stroke-width:1.00615501"
       id="g72">
      <path
         style="opacity:0.30684904;filter:url(#o-3)"
         inkscape:connector-curvature="0"
         d="m 15.566406,10.927734 0.01953,56.699219 -0.0689,62.509767 h 0.04102 61.683594 35.14257 l 0.0494,-40.751954 V 45.869141 10.927734 H 77.291016 15.607422 Z"
         id="path66" />
      <path
         style="opacity:0.30684904;filter:url(#o-3)"
         inkscape:connector-curvature="0"
         d="m 15.566406,9.9589844 0.02149,57.4277346 -0.07086,62.750001 h 0.04102 61.683594 35.14257 l 0.0494,-40.751954 V 45.869141 9.9589844 Z"
         id="path68-7" />
      <path
         style="opacity:0.55342503;filter:url(#o-3)"
         inkscape:connector-curvature="0"
         d="m 15.566406,9.9277344 0.01953,57.1992186 -0.0689,63.009767 h 0.04102 61.683594 35.14257 l 0.0494,-40.751954 V 44.869141 9.9277344 H 77.291016 15.607422 Z"
         id="path70" />
    </g>
    <path
       style="opacity:0.89589;filter:url(#p-7)"
       inkscape:connector-curvature="0"
       d="m 24.905735,10.673272 -0.03466,115.981498 58.676001,-1e-4 c 0.53,0 1.039,-0.211 1.414,-0.586 L 116.494,88.511156 c 0.375,-0.375 0.586,-0.884 0.586,-1.414 l 0.0812,-76.423884 z"
       transform="matrix(1.0090419,0,0,1.003276,-7.641977,0.929762)"
       id="path74" />
    <path
       style="fill:url(#n-59)"
       inkscape:connector-curvature="0"
       d="m 17.488281,11.638672 0.0078,55.27539 L 17.438915,128 h 0.01563 59.25586 33.818355 l -0.009,-61.085938 0.0586,-55.27539 H 76.759766 17.503906 Z"
       id="path76" />
    <path
       style="fill:url(#m-8)"
       inkscape:connector-curvature="0"
       d="m 24.066406,17.511719 c -0.522387,0 -0.947265,0.427133 -0.947265,0.951172 l 0.162109,48.36914 0.201527,54.415849 c 0,0.52404 0.623389,0.54131 0.947265,0.95117 h 0.322266 52.099609 c 1.116539,3.12203 0.230569,6.03112 0.07422,-0.0156 l 27.349613,-0.008 c 0.52333,0 0.94727,-0.42714 0.94727,-0.95118 l -0.098,-32.421706 0.15625,-0.152343 c 0.17729,-0.17785 0.27734,-0.421743 0.27734,-0.671875 l -0.21289,-21.146485 0.21289,-21.146484 c 0,-0.250132 -0.10005,-0.495978 -0.27734,-0.673828 l -0.15625,-0.152344 -0.26562,-26.375 c 0,-0.524039 -0.42394,-0.951172 -0.94727,-0.951172 l -27.353515,-0.0078 c -0.02409,-0.0019 -0.04608,-0.01367 -0.07031,-0.01367 H 24.388672 Z"
       id="path78" />
    <g
       style="fill:#4c9ac3;fill-opacity:0.50857101;fill-rule:evenodd"
       id="g86">
      <path
         style="opacity:0.26760601"
         inkscape:connector-curvature="0"
         d="m 34.944481,75.638572 h 58.181004 v 5.8181 H 34.944481 Z"
         id="path80" />
      <path
         style="opacity:0.26760601"
         inkscape:connector-curvature="0"
         d="m 34.944481,93.092872 h 58.181 v 5.8181 h -58.181 z"
         id="path82" />
      <path
         style="opacity:0.26760601"
         inkscape:connector-curvature="0"
         d="m 34.944481,110.54717 h 58.181 v 5.8181 h -58.181 z"
         id="path84" />
    </g>
    <g
       style="fill:#2d2d2d;fill-opacity:0.72000002"
       id="g100">
      <rect
         height="5.8181"
         rx="0.94964701"
         ry="1.0811321"
         width="5.8598962"
         x="23.266485"
         y="23.275673"
         id="rect88" />
      <rect
         height="5.8181"
         rx="0.94964701"
         ry="1.0811321"
         width="5.8598962"
         x="23.266485"
         y="40.729973"
         id="rect90" />
      <rect
         height="5.8181"
         rx="0.94964701"
         ry="1.0811321"
         width="5.8598962"
         x="23.266485"
         y="58.184273"
         id="rect92" />
      <rect
         height="5.8181"
         rx="0.94964701"
         ry="1.0811321"
         width="5.8598962"
         x="23.266485"
         y="75.638565"
         id="rect94" />
      <rect
         height="5.8181"
         rx="0.94964701"
         ry="1.0811321"
         width="5.8598962"
         x="23.266485"
         y="93.092873"
         id="rect96" />
      <rect
         height="5.8181"
         rx="0.94964701"
         ry="1.0811321"
         width="5.8598962"
         x="23.266485"
         y="110.54717"
         id="rect98" />
    </g>
    <g
       style="fill:#4c9ac3;fill-opacity:0.50857101;fill-rule:evenodd"
       id="g108">
      <path
         style="opacity:0.26760601"
         inkscape:connector-curvature="0"
         d="m 34.944481,23.275676 h 58.181 v 5.8181 h -58.181 z"
         id="path102" />
      <path
         style="opacity:0.26760601"
         inkscape:connector-curvature="0"
         d="m 34.944481,40.729976 h 58.181 v 5.8181 h -58.181 z"
         id="path104" />
      <path
         style="opacity:0.26760601"
         inkscape:connector-curvature="0"
         d="m 34.944481,58.184276 h 58.181 v 5.8181 h -58.181 z"
         id="path106" />
    </g>
    <g
       style="fill:#2d2d2d;fill-opacity:0.72000002"
       id="g122">
      <rect
         height="5.8181"
         rx="0.94964701"
         ry="1.0811321"
         width="5.8598962"
         x="98.901787"
         y="23.275673"
         id="rect110" />
      <rect
         height="5.8181"
         rx="0.94964701"
         ry="1.0811321"
         width="5.8598962"
         x="98.901787"
         y="40.729973"
         id="rect112" />
      <rect
         height="5.8181"
         rx="0.94964701"
         ry="1.0811321"
         width="5.8598962"
         x="98.901787"
         y="58.184273"
         id="rect114" />
      <rect
         height="5.8181"
         rx="0.94964701"
         ry="1.0811321"
         width="5.8598962"
         x="98.901787"
         y="75.638565"
         id="rect116" />
      <rect
         height="5.8181"
         rx="0.94964701"
         ry="1.0811321"
         width="5.8598962"
         x="98.901787"
         y="93.092873"
         id="rect118" />
      <rect
         height="5.8181"
         rx="0.94964701"
         ry="1.0811321"
         width="5.8598962"
         x="98.901787"
         y="110.54717"
         id="rect120" />
    </g>
  </g>
  <g
     transform="translate(2,8)"
     id="g145">
    <rect
       height="3.9039946"
       rx="2.4399951"
       ry="1.8072041"
       transform="matrix(0.125,0,0,0.25614775,-0.125,-251.09298)"
       width="140"
       x="33"
       y="1032.9701"
       id="rect95"
       style="opacity:0.57714299;fill:url(#g);filter:url(#h)" />
    <path
       d="m -23.890648,13.13992 h 90.899429 c 2.216,0 4,0.8652 4,1.94 0,1.0747 -1.78433,1.902 -4,1.94 -36.945183,0.6329 -51.602471,0.7782 -90.899429,0 -2.215566,-0.044 -4,-0.8653 -4,-1.94 0,-1.0748 1.784,-1.94 4,-1.94 z"
       transform="matrix(0.17315572,0,0,0.125,9.204424,12.35751)"
       id="path97"
       inkscape:connector-curvature="0"
       style="opacity:0.55428598;filter:url(#i)"
       sodipodi:nodetypes="sssccss" />
    <path
       d="M 5,-1 C 4.5,-1 4.5314205,-0.61301997 4.5,-0.5 L 4,1 v 7 c 0,0.554 0.446,1 1,1 h 15 c 0.554,0 1,-0.446 1,-1 V 1 C 21,0.446 20.554,0 20,0 H 11.904297 C 11.820096,-0.4859507 11.726296,-1 11.5,-1 Z"
       id="path99"
       inkscape:connector-curvature="0"
       style="fill:#3b6ca9"
       sodipodi:nodetypes="sscsssssscss" />
    <path
       d="M 5,-1 C 4.5,-1 4.5370955,-0.6112865 4.5,-0.5 L 4,1 V 8 C 4,8.554 4.446,9 5,9 V 1 L 5.5,0 h 5.382813 c 0.01334,0.068527 0.024,0.094239 0.03711,0.1699219 C 11.002595,0.6491414 11.417999,0.9994326 11.904297,1 H 13 20 v 8 c 0.554,0 1,-0.446 1,-1 V 1 C 21,0.446 20.554,0 20,0 H 11.904297 C 11.820096,-0.4859507 11.726296,-1 11.5,-1 Z"
       id="path101"
       style="opacity:0.25;fill:url(#c)"
       inkscape:connector-curvature="0"
       sodipodi:nodetypes="sscscccccccccssscss" />
    <path
       clip-path="url(#clipPath963)"
       d="m 56.984419,969.90368 -26.012982,-0.46865 0,37.10607 118.000033,-0.02 v -40.34321 c 0,-2.54081 -2.05961,-4.59442 -4.62097,-4.58387 l -75.366081,0.31046 c -9.375263,0 -5.067235,7.84799 -12,8 z"
       transform="matrix(0.14830504,0,0,0.14830504,-0.59322,-138.2721)"
       id="path125"
       inkscape:connector-curvature="0"
       style="fill:#16375b;fill-opacity:0.80147101;filter:url(#d)"
       sodipodi:nodetypes="ccccssccc" />
    <path
       d="m 5,7 h 4.5 l 1,-1 H 21 c 0.554,0 1,0.446 1,1 v 6 c 0,0.554 -0.446,1 -1,1 H 5 C 4.446,14 4,13.554 4,13 V 8 C 4,7.446 4.4937484,7.2250007 5,7 Z"
       id="path127"
       style="fill:url(#a)"
       inkscape:connector-curvature="0"
       sodipodi:nodetypes="cccsssssssc" />
    <path
       d="m 4,11 h 18 v 1 H 4 Z"
       id="path129"
       inkscape:connector-curvature="0"
       style="fill:#385da4"
       sodipodi:nodetypes="ccccc" />
    <path
       d="m 4,11 h 18 v 1 H 4 Z"
       id="path131"
       style="fill:url(#b)"
       inkscape:connector-curvature="0"
       sodipodi:nodetypes="ccccc" />
    <path
       d="m 4,12 h 18 v 0.5 H 4 Z"
       id="path133"
       inkscape:connector-curvature="0"
       style="fill:#a4c0e8"
       sodipodi:nodetypes="ccccc" />
    <path
       d="m 10.5,6 -1,1 H 5 C 4.446,7 4,8 4,8 V 9 C 4,8.446 4.4937484,8.2250007 5,8 h 4.5 l 1,-1 H 21 c 0.554,0 1,0.446 1,1 V 7 C 22,7 21.548804,6.0756971 21,6 Z"
       id="path135"
       inkscape:connector-curvature="0"
       style="fill:#a4c0e8"
       sodipodi:nodetypes="ccssccccscscc" />
    <path
       d="m 6,1 h 4 V 1.9999999 H 6 Z"
       id="path139"
       inkscape:connector-curvature="0"
       style="fill:#fcf9e9"
       sodipodi:nodetypes="ccccc" />
    <path
       d="m 9,1 h 1 V 1.9999999 H 9 Z"
       id="path137"
       inkscape:connector-curvature="0"
       style="fill:#fbc66d"
       sodipodi:nodetypes="ccccc" />
    <path
       d="M 4.99805,7 C 4.4475125,7 4.0055302,7.4410516 4.0000031,7.9902344 l 0.00195,5.0195316 c 2.3e-4,0.02285 0.011948,0.042 0.013672,0.06445 C 4.053734,13.395281 4.7666734,13.99797 5,14 c 3.916e-4,3e-6 0.00156,0 0.00195,0 L 5,7 Z"
       id="path141"
       style="opacity:0.59428603;fill:url(#e)"
       inkscape:connector-curvature="0"
       sodipodi:nodetypes="sccccccs" />
    <path
       d="m 21,6 v 8 c 0.554,0 1,-0.446 1,-1 V 7 C 22,6.446 21.554,6 21,6 Z"
       id="path143"
       style="opacity:0.40571403;fill:url(#f)"
       inkscape:connector-curvature="0"
       sodipodi:nodetypes="ccssc" />
  </g>
</svg>
