<?xml version="1.0" encoding="UTF-8" standalone="no"?>
<svg
   xmlns:dc="http://purl.org/dc/elements/1.1/"
   xmlns:cc="http://creativecommons.org/ns#"
   xmlns:rdf="http://www.w3.org/1999/02/22-rdf-syntax-ns#"
   xmlns:svg="http://www.w3.org/2000/svg"
   xmlns="http://www.w3.org/2000/svg"
   xmlns:xlink="http://www.w3.org/1999/xlink"
   xmlns:sodipodi="http://sodipodi.sourceforge.net/DTD/sodipodi-0.dtd"
   xmlns:inkscape="http://www.inkscape.org/namespaces/inkscape"
   height="24"
   viewBox="0 0 6.3499999 6.3500003"
   width="24"
   version="1.1"
   id="svg210"
   sodipodi:docname="lc_datafilterstandardfilter.svg"
   inkscape:version="0.92.4 (unknown)"
   inkscape:export-filename="/home/rizmut/Dokumen/Rizmut/Github/libreoffice-style-karasa-jaga/build/next/cmd/lc_datafilterstandardfilter.png"
   inkscape:export-xdpi="96"
   inkscape:export-ydpi="96">
  <metadata
     id="metadata216">
    <rdf:RDF>
      <cc:Work
         rdf:about="">
        <dc:format>image/svg+xml</dc:format>
        <dc:type
           rdf:resource="http://purl.org/dc/dcmitype/StillImage" />
        <dc:title></dc:title>
      </cc:Work>
    </rdf:RDF>
  </metadata>
  <defs
     id="defs214">
    <linearGradient
       id="linearGradient3489">
      <stop
         style="stop-color:#765c44;stop-opacity:1"
         offset="0"
         id="stop3491" />
      <stop
         style="stop-color:#765c44;stop-opacity:0"
         offset="1"
         id="stop3493" />
    </linearGradient>
    <filter
       id="filter3477-3-7"
       height="1.2774813"
       y="-0.13874064"
       width="1.279832"
       x="-0.13991599">
      <feGaussianBlur
         id="feGaussianBlur3479-6-5"
         stdDeviation="0.28784801"
         inkscape:collect="always" />
    </filter>
    <filter
       id="filter926"
       height="1.2774813"
       y="-0.13874064"
       width="1.279832"
       x="-0.13991599">
      <feGaussianBlur
         id="feGaussianBlur924"
         stdDeviation="0.28784801"
         inkscape:collect="always" />
    </filter>
    <linearGradient
       x1="304.88663"
       y1="385.86127"
       x2="345.62039"
       y2="384.62384"
       id="linearGradient3298-9"
       xlink:href="#linearGradient3489"
       gradientUnits="userSpaceOnUse" />
    <filter
       id="filter937"
       height="1.2774813"
       y="-0.13874064"
       width="1.279832"
       x="-0.13991599">
      <feGaussianBlur
         id="feGaussianBlur935"
         stdDeviation="0.28784801"
         inkscape:collect="always" />
    </filter>
    <linearGradient
       id="linearGradient3366">
      <stop
         style="stop-color:#ff8787;stop-opacity:1"
         offset="0"
         id="stop3368" />
      <stop
         style="stop-color:#ff8787;stop-opacity:0"
         offset="1"
         id="stop4472" />
    </linearGradient>
    <filter
       id="filter945"
       height="1.2774813"
       y="-0.13874064"
       width="1.279832"
       x="-0.13991599">
      <feGaussianBlur
         id="feGaussianBlur943"
         stdDeviation="0.28784801"
         inkscape:collect="always" />
    </filter>
    <linearGradient
       x1="31.90625"
       y1="13.510336"
       x2="34.875107"
       y2="13.510336"
       id="linearGradient3310-2"
       xlink:href="#linearGradient3207"
       gradientUnits="userSpaceOnUse"
       gradientTransform="translate(-0.3)"
       spreadMethod="reflect" />
    <linearGradient
       id="linearGradient3207">
      <stop
         style="stop-color:#ffffff;stop-opacity:1"
         offset="0"
         id="stop3209" />
      <stop
         style="stop-color:#790000;stop-opacity:0"
         offset="1"
         id="stop3211" />
    </linearGradient>
    <filter
       id="filter953"
       height="1.2774813"
       y="-0.13874064"
       width="1.279832"
       x="-0.13991599">
      <feGaussianBlur
         id="feGaussianBlur951"
         stdDeviation="0.28784801"
         inkscape:collect="always" />
    </filter>
    <filter
       id="filter960"
       height="1.2774813"
       y="-0.13874064"
       width="1.279832"
       x="-0.13991599">
      <feGaussianBlur
         id="feGaussianBlur958"
         stdDeviation="0.28784801"
         inkscape:collect="always" />
    </filter>
    <linearGradient
       inkscape:collect="always"
       xlink:href="#g"
       id="linearGradient1156"
       gradientUnits="userSpaceOnUse"
       gradientTransform="matrix(0.22074034,0,0,0.27016572,2.861137,262.5662)"
       x1="55.875"
       y1="91.296875"
       x2="70.71875"
       y2="91.296875" />
    <radialGradient
       inkscape:collect="always"
       xlink:href="#b"
       id="radialGradient1158"
       gradientUnits="userSpaceOnUse"
       gradientTransform="matrix(0.23868901,0,0,0.03810074,1.738199,277.54305)"
       cx="63.462833"
       cy="66.417244"
       r="13.788582" />
  </defs>
  <sodipodi:namedview
     pagecolor="#ffffff"
     bordercolor="#666666"
     borderopacity="1"
     objecttolerance="10"
     gridtolerance="10"
     guidetolerance="10"
     inkscape:pageopacity="0"
     inkscape:pageshadow="2"
     inkscape:window-width="1366"
     inkscape:window-height="714"
     id="namedview212"
     showgrid="true"
     inkscape:zoom="14.75"
     inkscape:cx="6.8653063"
     inkscape:cy="15.817832"
     inkscape:window-x="0"
     inkscape:window-y="28"
     inkscape:window-maximized="1"
     inkscape:current-layer="svg210"
     scale-x="0.06458"
     inkscape:pagecheckerboard="false">
    <inkscape:grid
       type="xygrid"
       id="grid967" />
  </sodipodi:namedview>
  <radialGradient
     id="a"
     cx="63.912209"
     cy="115.70919"
     fy="115.7093"
     gradientTransform="matrix(0.16145195,0,0,0.02180632,6.614583,294.56994)"
     gradientUnits="userSpaceOnUse"
     r="63.912209"
     xlink:href="#b" />
  <linearGradient
     id="b">
    <stop
       offset="0"
       id="stop3" />
    <stop
       offset="1"
       stop-opacity="0"
       id="stop5" />
  </linearGradient>
  <radialGradient
     id="c"
     cx="63.816387"
     cy="120.57538"
     gradientTransform="matrix(0.25671949,0,0,0.07513332,0.550423,287.26689)"
     gradientUnits="userSpaceOnUse"
     r="14.672465">
    <stop
       offset="0"
       id="stop8" />
    <stop
       offset=".5714286"
       id="stop10" />
    <stop
       offset="1"
       stop-opacity="0"
       id="stop12" />
  </radialGradient>
  <linearGradient
     id="d"
     gradientTransform="matrix(0.22074034,0,0,0.23746357,2.861137,264.65265)"
     gradientUnits="userSpaceOnUse"
     x1="94.42218"
     x2="100.78125"
     xlink:href="#b"
     y1="30.355696"
     y2="35.359375" />
  <linearGradient
     id="e"
     gradientTransform="matrix(0.22074034,0,0,0.27016546,2.861138,262.5662)"
     gradientUnits="userSpaceOnUse"
     spreadMethod="reflect"
     x1="55.826965"
     x2="121.36113"
     y1="61.3554"
     y2="52.6054">
    <stop
       offset="0"
       stop-color="#bdbdbd"
       id="stop16" />
    <stop
       offset="1"
       stop-color="#bdbdbd"
       stop-opacity="0"
       id="stop18" />
  </linearGradient>
  <linearGradient
     id="f"
     gradientTransform="matrix(0.22074034,0,0,0.27016572,2.861137,262.5662)"
     gradientUnits="userSpaceOnUse"
     x1="55.875"
     x2="70.71875"
     xlink:href="#g"
     y1="91.296875"
     y2="91.296875" />
  <linearGradient
     id="g">
    <stop
       offset="0"
       stop-color="#fff"
       stop-opacity=".537906"
       id="stop22" />
    <stop
       offset=".21464799"
       stop-color="#fff"
       id="stop24" />
    <stop
       offset=".66342056"
       stop-color="#fff"
       stop-opacity=".415162"
       id="stop26" />
    <stop
       offset="1"
       stop-color="#fff"
       stop-opacity="0"
       id="stop28" />
  </linearGradient>
  <radialGradient
     id="h"
     cx="63.462833"
     cy="66.417244"
     gradientTransform="matrix(0.23868901,0,0,0.03810074,1.738199,277.54305)"
     gradientUnits="userSpaceOnUse"
     r="13.788582"
     xlink:href="#b" />
  <radialGradient
     id="i"
     cx="51.78791"
     cy="41.299831"
     gradientTransform="matrix(0.4343787,-0.2149771,0.35891594,0.76254239,-25.518612,249.07113)"
     gradientUnits="userSpaceOnUse"
     r="15.995545"
     xlink:href="#g" />
  <radialGradient
     id="j"
     cx="52.715279"
     cy="41.561275"
     gradientTransform="matrix(0.4343787,-0.21378278,0.35891594,0.7583059,-25.518612,249.24051)"
     gradientUnits="userSpaceOnUse"
     r="15.995545"
     xlink:href="#g" />
  <radialGradient
     id="k"
     cx="57.214077"
     cy="124.00706"
     fx="49.233025"
     fy="124.00705"
     gradientTransform="matrix(0.61953168,-6e-8,0,0.28763835,-17.455568,233.79883)"
     gradientUnits="userSpaceOnUse"
     r="11.383312"
     xlink:href="#l" />
  <linearGradient
     id="l">
    <stop
       offset="0"
       stop-color="#fff"
       id="stop35" />
    <stop
       offset="1"
       stop-color="#fff"
       stop-opacity="0"
       id="stop37" />
  </linearGradient>
  <radialGradient
     id="m"
     cx="63.462833"
     cy="66.417244"
     gradientTransform="matrix(0.23868901,0,0,0.06669799,1.738199,275.64367)"
     gradientUnits="userSpaceOnUse"
     r="13.788582"
     xlink:href="#b" />
  <linearGradient
     id="n"
     gradientTransform="matrix(0.22047697,-0.01077964,0.0115261,0.23574433,2.886126,263.42369)"
     gradientUnits="userSpaceOnUse"
     x1="26.516504"
     x2="67.55307"
     xlink:href="#l"
     y1="6.2892451"
     y2="6.2892451" />
  <linearGradient
     id="o"
     gradientTransform="matrix(0.22074034,0,0,0.16502502,2.861137,264.39631)"
     gradientUnits="userSpaceOnUse"
     x1="27.080584"
     x2="59.768688"
     xlink:href="#l"
     y1="-14.285192"
     y2="17.40625" />
  <linearGradient
     id="p"
     gradientTransform="matrix(0.24830857,0,0,0.25923263,1.418237,263.05161)"
     gradientUnits="userSpaceOnUse"
     x1="48.648247"
     x2="63.212357"
     xlink:href="#b"
     y1="123.09119"
     y2="60.341194" />
  <filter
     id="q"
     height="1.12069"
     width="1.119315"
     x="-0.059657998"
     y="-0.060345002"
     style="color-interpolation-filters:sRGB">
    <feGaussianBlur
       stdDeviation=".82504758"
       id="feGaussianBlur44" />
  </filter>
  <linearGradient
     id="r"
     gradientUnits="userSpaceOnUse"
     x1="24.78186"
     x2="24.78186"
     xlink:href="#s"
     y1="297.65903"
     y2="279.82874" />
  <linearGradient
     id="s">
    <stop
       offset="0"
       stop-color="#525252"
       id="stop48" />
    <stop
       offset="1"
       stop-color="#d8d8d8"
       id="stop50" />
  </linearGradient>
  <linearGradient
     id="t"
     gradientUnits="userSpaceOnUse"
     x1="15.8973"
     x2="32.987171"
     y1="287.61887"
     y2="287.61887">
    <stop
       offset="0"
       stop-color="#ebebeb"
       id="stop53" />
    <stop
       offset=".3164545"
       stop-color="#cacaca"
       id="stop55" />
    <stop
       offset=".58694273"
       stop-color="#c7c7c7"
       stop-opacity=".955882"
       id="stop57" />
    <stop
       offset=".84601915"
       stop-color="#cacaca"
       id="stop59" />
    <stop
       offset="1"
       stop-color="#dedede"
       id="stop61" />
  </linearGradient>
  <filter
     id="u"
     height="1.024"
     width="1.024"
     x="-0.012"
     y="-0.012"
     style="color-interpolation-filters:sRGB">
    <feGaussianBlur
       stdDeviation=".12785668"
       id="feGaussianBlur64" />
  </filter>
  <linearGradient
     id="v"
     gradientUnits="userSpaceOnUse"
     x1="24.701073"
     x2="24.733223"
     y1="281.36441"
     y2="294.21851">
    <stop
       offset="0"
       stop-color="#171a1c"
       id="stop67" />
    <stop
       offset="1"
       stop-color="#8ca0ac"
       id="stop69" />
  </linearGradient>
  <radialGradient
     id="w"
     cx="63.02887"
     cy="288.18738"
     gradientUnits="userSpaceOnUse"
     r="11.437257">
    <stop
       offset="0"
       stop-color="#7cb5fc"
       id="stop72" />
    <stop
       offset="1"
       stop-color="#0d5bab"
       id="stop74" />
  </radialGradient>
  <filter
     id="x"
     height="1.024"
     width="1.024"
     x="-0.012"
     y="-0.012"
     style="color-interpolation-filters:sRGB">
    <feGaussianBlur
       stdDeviation=".11169196"
       id="feGaussianBlur77" />
  </filter>
  <filter
     id="y"
     height="1.023839"
     width="1.024163"
     x="-0.012082"
     y="-0.01192"
     style="color-interpolation-filters:sRGB">
    <feGaussianBlur
       stdDeviation=".087289468"
       id="feGaussianBlur80" />
  </filter>
  <linearGradient
     id="z"
     gradientTransform="matrix(0.40992622,0,0,0.43732811,-1.243719,164.52807)"
     gradientUnits="userSpaceOnUse"
     x1="63.499996"
     x2="63.499996"
     y1="269.89706"
     y2="286.49451">
    <stop
       offset="0"
       stop-color="#e3f3fd"
       id="stop83" />
    <stop
       offset="1"
       stop-color="#a3d8f9"
       stop-opacity="0"
       id="stop85" />
  </linearGradient>
  <linearGradient
     id="A"
     gradientUnits="userSpaceOnUse"
     x1="24.470198"
     x2="24.669523"
     y1="278.72476"
     y2="284.19904">
    <stop
       offset="0"
       stop-color="#fcfcfc"
       id="stop88" />
    <stop
       offset="1"
       stop-color="#fcfcfc"
       stop-opacity="0"
       id="stop90" />
  </linearGradient>
  <radialGradient
     id="B"
     cx="67.73333"
     cy="277.9501"
     gradientTransform="matrix(-0.48115879,0,0,-0.48115879,54.943559,422.86662)"
     gradientUnits="userSpaceOnUse"
     r="7.5746908">
    <stop
       offset="0"
       stop-color="#bfbfbf"
       id="stop93" />
    <stop
       offset="1"
       stop-color="#dfdfdf"
       stop-opacity="0"
       id="stop95" />
  </radialGradient>
  <filter
     id="C"
     height="1.047739"
     width="1.048264"
     x="-0.024132"
     y="-0.023870001"
     style="color-interpolation-filters:sRGB">
    <feGaussianBlur
       stdDeviation=".9480859"
       id="feGaussianBlur98" />
  </filter>
  <radialGradient
     id="D"
     cx="21.273409"
     cy="276.88303"
     gradientUnits="userSpaceOnUse"
     r="6.794981">
    <stop
       offset="0"
       stop-color="#e10000"
       id="stop101" />
    <stop
       offset="1"
       stop-color="#851400"
       id="stop103" />
  </radialGradient>
  <radialGradient
     id="E"
     cx="21.273409"
     cy="276.88303"
     gradientUnits="userSpaceOnUse"
     r="6.794981">
    <stop
       offset="0"
       stop-color="#ffbfbf"
       id="stop106" />
    <stop
       offset="1"
       stop-color="#ffbfbf"
       stop-opacity="0"
       id="stop108" />
  </radialGradient>
  <linearGradient
     id="F"
     gradientUnits="userSpaceOnUse"
     x1="16.526453"
     x2="17.475842"
     xlink:href="#s"
     y1="277.83243"
     y2="281.63" />
  <radialGradient
     id="G"
     cx="17.52717"
     cy="278.68237"
     gradientUnits="userSpaceOnUse"
     r="2.4271595">
    <stop
       offset="0"
       stop-color="#e8e8e8"
       id="stop112" />
    <stop
       offset="1"
       stop-color="#c7c7c7"
       id="stop114" />
  </radialGradient>
  <filter
     id="H"
     height="1.08803"
     width="1.060909"
     x="-0.030454"
     y="-0.044015002"
     style="color-interpolation-filters:sRGB">
    <feGaussianBlur
       stdDeviation=".61981931"
       id="feGaussianBlur117" />
  </filter>
  <g
     id="g158"
     transform="matrix(0.171875,0,0,0.171875,0.26457346,-44.95694)">
    <path
       inkscape:connector-curvature="0"
       id="path1143"
       transform="matrix(1.539394,0,0,1.539394,-1.5393365,261.56765)"
       d="M 12.003906,1.0507812 A 8.155008,1.9949337 0 0 0 6.3222656,1.6152344 C 6.1531254,1.6536812 6.0064743,1.6967245 5.8515625,1.7382812 A 8.155008,1.9949337 0 0 0 5.703125,1.7792969 c -1.1917061,0.337941 -1.9375,0.762077 -1.9375,1.2167969 0,2.1274735 6.1777344,8.6738282 6.1777344,8.6738282 0.025624,0.03667 0.054728,0.09978 0.054687,0.169922 l -0.00391,0.802734 -0.066406,9.917969 c -1.019e-4,0.01509 0.022653,0.02659 0.027344,0.04102 v 0.03906 c 0.025458,0.103209 0.1117366,0.118967 0.1855466,0.152344 3.79e-4,-0.01168 -3.74e-4,-0.02348 0,-0.03516 0.256311,0.114873 0.756539,0.189454 1.595703,0.189454 0.0445,0 0.08121,-0.0035 0.125,-0.0039 0.02531,3.24e-4 0.05562,0.0039 0.08008,0.0039 0.06536,0 0.147699,-0.01021 0.220703,-0.01367 0.0019,-9.2e-5 0.0039,9.3e-5 0.0059,0 0.584154,-0.01809 1.063503,-0.07287 1.376953,-0.160156 v 0.02344 l 0.185547,-0.06836 v -0.0059 c 0.127297,-0.05329 0.207031,-0.112458 0.207031,-0.183594 0,-0.0013 1.24e-4,-0.0046 0,-0.0059 L 14,11.822266 c 0,-0.01055 0.005,-0.02026 0.0059,-0.03125 0.02947,-0.03467 0.04492,-0.06557 0.04492,-0.0918 0,-0.0039 -0.0034,-0.0079 -0.0039,-0.01172 -0.0035,7.97e-4 -0.01203,0.0012 -0.01563,0.002 0.01773,-0.01894 6.203125,-6.6282657 6.203125,-8.7734374 0,-0.1697853 -0.215949,-0.3598897 -0.576172,-0.5527344 a 8.155008,1.9949337 0 0 0 -7.654297,-1.3125 z"
       style="fill:#d0d0d0;fill-opacity:1;stroke:none;stroke-width:0.64960629" />
    <ellipse
       style="opacity:0.38139505;fill:url(#a)"
       id="ellipse120"
       ry="1.3936909"
       rx="10.318751"
       cy="297.09317"
       cx="16.933334" />
    <ellipse
       style="opacity:0.41393403;fill:url(#c)"
       id="ellipse122"
       ry="1.1023901"
       rx="3.7667079"
       cy="296.32614"
       cx="16.933334" />
    <path
       sodipodi:nodetypes="ccc"
       style="fill:#ffffff;fill-opacity:0.756881"
       inkscape:connector-curvature="0"
       id="path124"
       d="m 14.115408,263.95214 v -0.73929 z" />
    <path
       sodipodi:nodetypes="ccccc"
       inkscape:connector-curvature="0"
       style="opacity:0.42000002;fill:url(#d)"
       id="path126"
       d="m 27.190849,268.0365 c -2.842649,4.00968 -5.837781,7.7048 -7.777384,11.71448 l 0.309876,-0.0105 9.109266,-12.16406 c -0.604989,0.25688 -1.147088,0.401 -1.641758,0.46008 z" />
    <path
       sodipodi:nodetypes="csccssscccsc"
       inkscape:connector-curvature="0"
       id="path128"
       style="fill:url(#e);stroke:#575757;stroke-width:0.30787879;stroke-linecap:round;stroke-linejoin:round;stroke-miterlimit:4;stroke-dasharray:none;stroke-dashoffset:4;stroke-opacity:1"
       d="m 16.954088,263.2057 c -7.0085037,0 -12.6963338,1.3867 -12.6963338,2.97557 0,3.27502 9.5108818,13.35213 9.5108818,13.35213 0.04081,0.0584 0.08939,0.15521 0.08591,0.26801 l -0.110697,16.49499 c -0.0024,0.35533 0.851035,0.59473 2.784957,0.59473 1.892583,0 3.387199,-0.22248 3.387199,-0.62846 0,-0.002 1.91e-4,-0.007 0,-0.009 l 0.09612,-16.48599 c 0,-0.0661 0.009,-0.14128 0.03975,-0.19762 0,0 9.557156,-10.20522 9.557156,-13.51222 0,-1.12637 -5.646441,-2.85214 -12.65494,-2.85214 z" />
    <path
       sodipodi:nodetypes="scscs"
       inkscape:connector-curvature="0"
       id="path130"
       d="m 16.953922,266.15778 c -5.168295,0 -9.3341621,0.50788 -10.0160417,1.86483 2.227259,0.8738 5.8176137,1.40816 10.0160417,1.40816 4.193843,0 8.008861,-0.52206 10.236927,-1.39427 -0.668723,-1.36068 -5.058892,-1.87872 -10.236927,-1.87872 z" />
    <path
       sodipodi:nodetypes="ccscccc"
       inkscape:connector-curvature="0"
       style="opacity:0.61475375;fill:url(#linearGradient1156)"
       id="path132"
       d="m 14.835638,279.9059 -0.110697,16.79793 c 0.472303,0.0993 1.418538,0.1873 2.118384,0.1873 0.582252,0 1.418614,-0.10048 1.85003,-0.17038 l 0.110697,-16.84858 c -1.092204,0.24393 -2.87621,0.41965 -3.968414,0.0337 z" />
    <path
       sodipodi:nodetypes="cssccscc"
       inkscape:connector-curvature="0"
       style="opacity:0.11000001;fill:url(#radialGradient1158)"
       id="path134"
       d="m 13.942333,279.59352 c -8.73e-4,0.006 -0.0062,0.0108 -0.0062,0.0169 0,0.32295 1.580635,0.87211 3.087212,0.87211 1.506575,0 3.066479,-0.58289 3.06648,-0.90584 0,-0.006 -0.0054,-0.011 -0.0062,-0.0169 -0.600839,0.13617 -1.930986,0.27169 -3.060294,0.27169 -1.129041,0 -2.480142,-0.10185 -3.081026,-0.23796 z" />
    <path
       sodipodi:nodetypes="cccccc"
       inkscape:connector-curvature="0"
       style="opacity:0.75819702;fill:url(#i)"
       id="path136"
       d="m 14.835638,279.94469 -3.03553,-10.51392 c 2.335252,0.26645 4.717967,0.15862 7.061719,0.0424 l -0.05778,10.43775 c -1.092204,0.20436 -2.87621,0.35705 -3.968414,0.0337 z" />
    <path
       sodipodi:nodetypes="cssccscc"
       inkscape:connector-curvature="0"
       style="opacity:0.11000001;fill:url(#h)"
       id="path138"
       d="m 13.942333,279.59352 c -8.73e-4,0.006 -0.0062,0.0108 -0.0062,0.0169 0,0.32295 1.580635,0.6572 3.087212,0.6572 1.506575,0 3.066479,-0.36798 3.06648,-0.69093 0,-0.006 -0.0054,-0.011 -0.0062,-0.0169 -0.600839,0.13617 -1.948481,0.41497 -3.07779,0.41497 -1.129041,0 -2.462646,-0.24512 -3.06353,-0.38124 z" />
    <ellipse
       id="ellipse140"
       style="fill:none;stroke:#5b5b5b;stroke-width:0.29567999;stroke-linecap:round;stroke-linejoin:round;stroke-dashoffset:4"
       ry="3.0271671"
       rx="12.546605"
       cy="266.25577"
       cx="16.9384" />
    <path
       sodipodi:nodetypes="cccccc"
       inkscape:connector-curvature="0"
       style="opacity:0.75819702;fill:url(#j)"
       id="path142"
       d="m 14.650285,279.9126 -3.567583,-10.48183 c 2.335252,0.26497 6.042409,0.21401 8.386161,0.0985 l -0.518479,10.37946 c -1.092205,0.20323 -3.207895,0.32542 -4.300099,0.004 z" />
    <ellipse
       id="ellipse144"
       style="fill:none;stroke:url(#k);stroke-width:0.208022;stroke-linecap:round;stroke-linejoin:round;stroke-dashoffset:4"
       ry="3.0709889"
       rx="12.55377"
       cy="266.2558"
       cx="16.938402" />
    <path
       sodipodi:nodetypes="cssccscc"
       inkscape:connector-curvature="0"
       style="opacity:0.11000001;fill:url(#m)"
       id="path146"
       d="m 13.942333,279.59352 c -8.73e-4,0.006 -0.0062,0.0108 -0.0062,0.0169 0,0.32295 1.589383,1.11091 3.095959,1.11091 1.506576,0 3.057732,-0.82169 3.057733,-1.14464 0,-0.006 -0.0054,-0.011 -0.0062,-0.0169 -0.600839,0.13617 -2.000968,0.47467 -3.130276,0.47467 -1.129042,0 -2.41016,-0.30482 -3.011045,-0.44094 z" />
    <path
       sodipodi:nodetypes="ccscccc"
       inkscape:connector-curvature="0"
       style="opacity:0.61475375;fill:url(#f)"
       id="path148"
       d="m 14.656286,279.86309 0.06865,16.84074 c 0.472303,0.0993 1.418538,0.1873 2.118384,0.1873 0.582252,0 1.418614,-0.10048 1.85003,-0.17038 l 0.234864,-16.84858 c -1.092204,0.24393 -3.179728,0.37684 -4.271933,-0.009 z" />
    <path
       sodipodi:nodetypes="ccccc"
       style="opacity:0.21311502"
       inkscape:connector-curvature="0"
       id="path150"
       d="m 19.432556,279.74903 h 0.275925 l -0.110697,16.80771 -0.285682,0.10422 z" />
    <path
       sodipodi:nodetypes="ccccc"
       inkscape:connector-curvature="0"
       style="opacity:0.83606603;fill:url(#n)"
       id="path152"
       d="m 8.8799178,264.15733 c 1.3633562,-0.26371 2.7191072,-0.47186 4.0632922,-0.59552 l 0.141696,2.62403 c -1.116075,0.0775 -2.098343,0.38867 -3.155854,0.60205 z" />
    <path
       sodipodi:nodetypes="ccccccc"
       inkscape:connector-curvature="0"
       style="opacity:0.83606603;fill:url(#o)"
       id="path154"
       d="m 11.980141,266.65793 c -1.177349,0.0493 -1.39478,0.0678 -2.2967508,0.15435 0.8504498,0.3609 1.8268638,0.65629 2.6419838,0.96952 1.084138,0.0439 2.243471,0.0658 3.455965,0.0774 -0.778743,-0.38809 -1.74637,-1.36381 -2.904114,-1.50801 -0.812998,-0.10126 -0.879208,0.31448 -0.897084,0.30678 z" />
    <path
       sodipodi:nodetypes="cccccc"
       inkscape:connector-curvature="0"
       style="opacity:0.53278701;fill:url(#p)"
       id="path156"
       d="m 13.856872,279.70084 -0.0043,-0.004 -0.06802,16.72342 c 0.03919,0.15888 0.172058,0.18245 0.285681,0.23383 0.195693,-6.03415 -0.02285,-12.28977 -0.213325,-16.9532 z" />
  </g>
</svg>
