<?xml version="1.0" encoding="UTF-8" standalone="no"?>
<svg
   xmlns:dc="http://purl.org/dc/elements/1.1/"
   xmlns:cc="http://creativecommons.org/ns#"
   xmlns:rdf="http://www.w3.org/1999/02/22-rdf-syntax-ns#"
   xmlns:svg="http://www.w3.org/2000/svg"
   xmlns="http://www.w3.org/2000/svg"
   xmlns:xlink="http://www.w3.org/1999/xlink"
   xmlns:sodipodi="http://sodipodi.sourceforge.net/DTD/sodipodi-0.dtd"
   xmlns:inkscape="http://www.inkscape.org/namespaces/inkscape"
   height="24"
   viewBox="0 0 6.3499999 6.3500003"
   width="24"
   version="1.1"
   id="svg210"
   sodipodi:docname="lc_datafilterautofilter.svg"
   inkscape:version="0.92.4 (unknown)"
   inkscape:export-filename="/home/rizmut/Dokumen/Rizmut/Github/libreoffice-style-karasa-jaga/build/next/cmd/lc_datafilterautofilter.png"
   inkscape:export-xdpi="96"
   inkscape:export-ydpi="96">
  <metadata
     id="metadata216">
    <rdf:RDF>
      <cc:Work
         rdf:about="">
        <dc:format>image/svg+xml</dc:format>
        <dc:type
           rdf:resource="http://purl.org/dc/dcmitype/StillImage" />
        <dc:title></dc:title>
      </cc:Work>
    </rdf:RDF>
  </metadata>
  <defs
     id="defs214">
    <linearGradient
       id="linearGradient3489">
      <stop
         style="stop-color:#765c44;stop-opacity:1"
         offset="0"
         id="stop3491" />
      <stop
         style="stop-color:#765c44;stop-opacity:0"
         offset="1"
         id="stop3493" />
    </linearGradient>
    <filter
       id="filter3477-3-7"
       height="1.2774813"
       y="-0.13874064"
       width="1.279832"
       x="-0.13991599">
      <feGaussianBlur
         id="feGaussianBlur3479-6-5"
         stdDeviation="0.28784801"
         inkscape:collect="always" />
    </filter>
    <filter
       id="filter926"
       height="1.2774813"
       y="-0.13874064"
       width="1.279832"
       x="-0.13991599">
      <feGaussianBlur
         id="feGaussianBlur924"
         stdDeviation="0.28784801"
         inkscape:collect="always" />
    </filter>
    <linearGradient
       x1="304.88663"
       y1="385.86127"
       x2="345.62039"
       y2="384.62384"
       id="linearGradient3298-9"
       xlink:href="#linearGradient3489"
       gradientUnits="userSpaceOnUse" />
    <filter
       id="filter937"
       height="1.2774813"
       y="-0.13874064"
       width="1.279832"
       x="-0.13991599">
      <feGaussianBlur
         id="feGaussianBlur935"
         stdDeviation="0.28784801"
         inkscape:collect="always" />
    </filter>
    <linearGradient
       id="linearGradient3366">
      <stop
         style="stop-color:#ff8787;stop-opacity:1"
         offset="0"
         id="stop3368" />
      <stop
         style="stop-color:#ff8787;stop-opacity:0"
         offset="1"
         id="stop4472" />
    </linearGradient>
    <filter
       id="filter945"
       height="1.2774813"
       y="-0.13874064"
       width="1.279832"
       x="-0.13991599">
      <feGaussianBlur
         id="feGaussianBlur943"
         stdDeviation="0.28784801"
         inkscape:collect="always" />
    </filter>
    <linearGradient
       x1="31.90625"
       y1="13.510336"
       x2="34.875107"
       y2="13.510336"
       id="linearGradient3310-2"
       xlink:href="#linearGradient3207"
       gradientUnits="userSpaceOnUse"
       gradientTransform="translate(-0.3)"
       spreadMethod="reflect" />
    <linearGradient
       id="linearGradient3207">
      <stop
         style="stop-color:#ffffff;stop-opacity:1"
         offset="0"
         id="stop3209" />
      <stop
         style="stop-color:#790000;stop-opacity:0"
         offset="1"
         id="stop3211" />
    </linearGradient>
    <filter
       id="filter953"
       height="1.2774813"
       y="-0.13874064"
       width="1.279832"
       x="-0.13991599">
      <feGaussianBlur
         id="feGaussianBlur951"
         stdDeviation="0.28784801"
         inkscape:collect="always" />
    </filter>
    <filter
       id="filter960"
       height="1.2774813"
       y="-0.13874064"
       width="1.279832"
       x="-0.13991599">
      <feGaussianBlur
         id="feGaussianBlur958"
         stdDeviation="0.28784801"
         inkscape:collect="always" />
    </filter>
    <linearGradient
       inkscape:collect="always"
       xlink:href="#g"
       id="linearGradient1156"
       gradientUnits="userSpaceOnUse"
       gradientTransform="matrix(0.22074034,0,0,0.27016572,2.861137,262.5662)"
       x1="55.875"
       y1="91.296875"
       x2="70.71875"
       y2="91.296875" />
    <radialGradient
       inkscape:collect="always"
       xlink:href="#b"
       id="radialGradient1158"
       gradientUnits="userSpaceOnUse"
       gradientTransform="matrix(0.23868901,0,0,0.03810074,1.738199,277.54305)"
       cx="63.462833"
       cy="66.417244"
       r="13.788582" />
    <linearGradient
       id="k-3"
       gradientTransform="matrix(0.99823,-0.06168429,0.02721908,0.849126,7.509698,12.850212)"
       gradientUnits="userSpaceOnUse"
       spreadMethod="reflect"
       x1="55.743965"
       x2="121.51667"
       y1="46.374126"
       y2="11.318704">
      <stop
         offset="0"
         stop-color="#ff5900"
         id="stop38" />
      <stop
         offset="1"
         stop-color="#ff0"
         id="stop40" />
    </linearGradient>
    <radialGradient
       id="l-6"
       cx="49.009884"
       cy="8.4953117"
       fx="47.370888"
       fy="6.7701702"
       gradientTransform="matrix(0.769753,1.181802,-7.650992,7.762471,62.39291,-29.03898)"
       gradientUnits="userSpaceOnUse"
       r="3.97504">
      <stop
         offset="0"
         stop-color="#fff"
         id="stop43" />
      <stop
         offset="1"
         stop-color="#aeaeae"
         id="stop45" />
    </radialGradient>
    <linearGradient
       id="m-7"
       gradientTransform="matrix(0.981227,0.967355,-1.189872,1.227494,77.89405,-44.83244)"
       gradientUnits="userSpaceOnUse"
       x1="48.498562"
       x2="48.732723"
       xlink:href="#b-5"
       y1="0.81150502"
       y2="2.3657269" />
    <linearGradient
       id="b-5">
      <stop
         offset="0"
         stop-color="#fff"
         id="stop3-3" />
      <stop
         offset="1"
         stop-color="#fff"
         stop-opacity="0"
         id="stop5-5" />
    </linearGradient>
    <radialGradient
       id="n-6"
       cx="49.011971"
       cy="2.6743081"
       gradientTransform="matrix(0.913761,0,0,0.207981,43.52233,-82.64466)"
       gradientUnits="userSpaceOnUse"
       r="1.724619"
       xlink:href="#b-5" />
    <radialGradient
       id="o-2"
       cx="49.011971"
       cy="2.6743081"
       gradientTransform="matrix(3.15491,0,0,0.208011,-61.469,-82.65113)"
       gradientUnits="userSpaceOnUse"
       r="1.724619"
       xlink:href="#i-9" />
    <linearGradient
       id="i-9">
      <stop
         offset="0"
         stop-color="#fff"
         id="stop28-1" />
      <stop
         offset="1"
         stop-color="#252525"
         stop-opacity="0"
         id="stop30" />
    </linearGradient>
    <radialGradient
       id="p-2"
       cx="49.011971"
       cy="2.6743081"
       gradientTransform="matrix(0.906625,0,0,0.207981,-140.6272,-82.64466)"
       gradientUnits="userSpaceOnUse"
       r="1.724619"
       xlink:href="#j-7" />
    <linearGradient
       id="j-7">
      <stop
         offset="0"
         stop-color="#fff"
         stop-opacity=".55036"
         id="stop33" />
      <stop
         offset="1"
         stop-opacity="0"
         id="stop35-0" />
    </linearGradient>
    <radialGradient
       id="q-9"
       cx="34.677639"
       cy="7.4622769"
       fx="11.254922"
       fy="18.452005"
       gradientTransform="matrix(1.135556,0.00325649,-1.156e-5,0.02608447,-4.700669,7.1547)"
       gradientUnits="userSpaceOnUse"
       r="47.595196"
       xlink:href="#b-5" />
    <linearGradient
       id="r-3"
       gradientTransform="matrix(1.37789,1.263e-4,0.01423919,1.378513,65.76164,-93.88427)"
       gradientUnits="userSpaceOnUse"
       x1="48.498562"
       x2="48.732723"
       xlink:href="#b-5"
       y1="0.81150502"
       y2="2.3657269" />
    <radialGradient
       id="s-6"
       cx="49.011971"
       cy="2.6743081"
       gradientTransform="matrix(0.913761,0,0,0.167717,85.52731,-90.69359)"
       gradientUnits="userSpaceOnUse"
       r="1.724619"
       xlink:href="#b-5" />
    <radialGradient
       id="t-0"
       cx="49.011971"
       cy="2.6743081"
       gradientTransform="matrix(3.15491,0,0,0.167755,-19.14379,-90.70726)"
       gradientUnits="userSpaceOnUse"
       r="1.724619"
       xlink:href="#i-9" />
    <radialGradient
       id="u-6"
       cx="49.011971"
       cy="2.6743081"
       gradientTransform="matrix(0.906625,0,0,0.167717,-182.6324,-90.69359)"
       gradientUnits="userSpaceOnUse"
       r="1.724619"
       xlink:href="#j-7" />
    <radialGradient
       id="v-2"
       cx="67.497665"
       cy="36.571056"
       fx="51.110146"
       fy="38.92115"
       gradientTransform="matrix(1.143352,-0.288983,0.145436,0.486936,-6.906086,43.29656)"
       gradientUnits="userSpaceOnUse"
       r="59.66724">
      <stop
         offset="0"
         stop-opacity="0"
         id="stop57-6" />
      <stop
         offset=".87912089"
         stop-opacity="0"
         id="stop59-1" />
      <stop
         offset="1"
         id="stop61-8" />
    </radialGradient>
    <radialGradient
       id="w-7"
       cx="10.502676"
       cy="43.419136"
       gradientTransform="matrix(1.182169,-0.07305034,0.0190782,0.595163,5.960047,24.89229)"
       gradientUnits="userSpaceOnUse"
       r="29.231159"
       spreadMethod="reflect"
       xlink:href="#b-5" />
    <linearGradient
       id="x-9"
       gradientTransform="matrix(0.99823,-0.06168429,0.02721908,0.849126,7.509698,12.850212)"
       gradientUnits="userSpaceOnUse"
       x1="92.518745"
       x2="95.046997"
       xlink:href="#b-5"
       y1="5.8790212"
       y2="19.529158" />
    <linearGradient
       id="y-2"
       gradientTransform="matrix(-12.72707,0.492126,-0.05364729,3.971548,275.61158,-231.94983)"
       gradientUnits="userSpaceOnUse"
       spreadMethod="pad"
       x1="18.704878"
       x2="13.317425"
       xlink:href="#b-5"
       y1="74.448128"
       y2="64.212517" />
    <radialGradient
       id="z-0"
       cx="123.62269"
       cy="35.345421"
       fx="125.26403"
       fy="34.200359"
       gradientTransform="matrix(0.64563816,0,0,1.3102233,48.801686,-4.037653)"
       gradientUnits="userSpaceOnUse"
       r="3.2466559"
       xlink:href="#b-5" />
    <radialGradient
       id="A-2"
       cx="123.62269"
       cy="35.345421"
       fx="125.26403"
       fy="34.200359"
       gradientTransform="matrix(0.64563816,0,0,1.3102233,-92.924101,9.164842)"
       gradientUnits="userSpaceOnUse"
       r="3.2466559"
       xlink:href="#b-5" />
    <linearGradient
       id="B-3"
       gradientUnits="userSpaceOnUse"
       x1="154.5867"
       x2="61.973328"
       xlink:href="#b-5"
       y1="48.224529"
       y2="28.799097" />
    <radialGradient
       id="C-7"
       cx="103.12353"
       cy="24.956741"
       fx="101.56755"
       fy="22.07275"
       gradientTransform="matrix(1.015732,0.401466,-0.180613,0.456961,10.559896,-23.83122)"
       gradientUnits="userSpaceOnUse"
       r="12.241624">
      <stop
         offset="0"
         id="stop70" />
      <stop
         offset="1"
         stop-opacity="0"
         id="stop72-5" />
    </radialGradient>
    <radialGradient
       id="D-9"
       cx="80.292313"
       cy="39.653671"
       gradientTransform="matrix(10.43391,-2.24727,0.122988,0.315112,-762.94462,214.34307)"
       gradientUnits="userSpaceOnUse"
       r="9.0409994">
      <stop
         offset="0"
         stop-color="#ff5f00"
         id="stop75" />
      <stop
         offset="1"
         stop-color="#ff5f00"
         stop-opacity="0"
         id="stop77" />
    </radialGradient>
    <linearGradient
       spreadMethod="reflect"
       y2="11.318704"
       x2="121.51667"
       y1="46.374126"
       x1="55.743965"
       gradientTransform="matrix(0.99823,-0.06168429,0.02721908,0.849126,7.509698,12.850212)"
       gradientUnits="userSpaceOnUse"
       id="linearGradient1199"
       xlink:href="#k-3"
       inkscape:collect="always" />
    <linearGradient
       inkscape:collect="always"
       xlink:href="#k-3"
       id="linearGradient1443"
       gradientUnits="userSpaceOnUse"
       gradientTransform="matrix(0.99823,-0.06168429,0.02721908,0.849126,7.509698,12.850212)"
       x1="55.743965"
       y1="46.374126"
       x2="121.51667"
       y2="11.318704"
       spreadMethod="reflect" />
    <linearGradient
       inkscape:collect="always"
       xlink:href="#k-3"
       id="linearGradient1445"
       gradientUnits="userSpaceOnUse"
       gradientTransform="matrix(0.99823,-0.06168429,0.02721908,0.849126,7.509698,12.850212)"
       x1="55.743965"
       y1="46.374126"
       x2="121.51667"
       y2="11.318704"
       spreadMethod="reflect" />
  </defs>
  <sodipodi:namedview
     pagecolor="#ffffff"
     bordercolor="#666666"
     borderopacity="1"
     objecttolerance="10"
     gridtolerance="10"
     guidetolerance="10"
     inkscape:pageopacity="0"
     inkscape:pageshadow="2"
     inkscape:window-width="1366"
     inkscape:window-height="714"
     id="namedview212"
     showgrid="true"
     inkscape:zoom="14.75"
     inkscape:cx="6.8653063"
     inkscape:cy="20.100132"
     inkscape:window-x="0"
     inkscape:window-y="28"
     inkscape:window-maximized="1"
     inkscape:current-layer="svg210"
     scale-x="0.06458"
     inkscape:pagecheckerboard="false">
    <inkscape:grid
       type="xygrid"
       id="grid967" />
  </sodipodi:namedview>
  <radialGradient
     id="a"
     cx="63.912209"
     cy="115.70919"
     fy="115.7093"
     gradientTransform="matrix(0.16145195,0,0,0.02180632,6.614583,294.56994)"
     gradientUnits="userSpaceOnUse"
     r="63.912209"
     xlink:href="#b" />
  <linearGradient
     id="b">
    <stop
       offset="0"
       id="stop3" />
    <stop
       offset="1"
       stop-opacity="0"
       id="stop5" />
  </linearGradient>
  <radialGradient
     id="c"
     cx="63.816387"
     cy="120.57538"
     gradientTransform="matrix(0.25671949,0,0,0.07513332,0.550423,287.26689)"
     gradientUnits="userSpaceOnUse"
     r="14.672465">
    <stop
       offset="0"
       id="stop8" />
    <stop
       offset=".5714286"
       id="stop10" />
    <stop
       offset="1"
       stop-opacity="0"
       id="stop12" />
  </radialGradient>
  <linearGradient
     id="d"
     gradientTransform="matrix(0.22074034,0,0,0.23746357,2.861137,264.65265)"
     gradientUnits="userSpaceOnUse"
     x1="94.42218"
     x2="100.78125"
     xlink:href="#b"
     y1="30.355696"
     y2="35.359375" />
  <linearGradient
     id="e"
     gradientTransform="matrix(0.22074034,0,0,0.27016546,2.861138,262.5662)"
     gradientUnits="userSpaceOnUse"
     spreadMethod="reflect"
     x1="55.826965"
     x2="121.36113"
     y1="61.3554"
     y2="52.6054">
    <stop
       offset="0"
       stop-color="#bdbdbd"
       id="stop16" />
    <stop
       offset="1"
       stop-color="#bdbdbd"
       stop-opacity="0"
       id="stop18" />
  </linearGradient>
  <linearGradient
     id="f"
     gradientTransform="matrix(0.22074034,0,0,0.27016572,2.861137,262.5662)"
     gradientUnits="userSpaceOnUse"
     x1="55.875"
     x2="70.71875"
     xlink:href="#g"
     y1="91.296875"
     y2="91.296875" />
  <linearGradient
     id="g">
    <stop
       offset="0"
       stop-color="#fff"
       stop-opacity=".537906"
       id="stop22" />
    <stop
       offset=".21464799"
       stop-color="#fff"
       id="stop24" />
    <stop
       offset=".66342056"
       stop-color="#fff"
       stop-opacity=".415162"
       id="stop26" />
    <stop
       offset="1"
       stop-color="#fff"
       stop-opacity="0"
       id="stop28" />
  </linearGradient>
  <radialGradient
     id="h"
     cx="63.462833"
     cy="66.417244"
     gradientTransform="matrix(0.23868901,0,0,0.03810074,1.738199,277.54305)"
     gradientUnits="userSpaceOnUse"
     r="13.788582"
     xlink:href="#b" />
  <radialGradient
     id="i"
     cx="51.78791"
     cy="41.299831"
     gradientTransform="matrix(0.4343787,-0.2149771,0.35891594,0.76254239,-25.518612,249.07113)"
     gradientUnits="userSpaceOnUse"
     r="15.995545"
     xlink:href="#g" />
  <radialGradient
     id="j"
     cx="52.715279"
     cy="41.561275"
     gradientTransform="matrix(0.4343787,-0.21378278,0.35891594,0.7583059,-25.518612,249.24051)"
     gradientUnits="userSpaceOnUse"
     r="15.995545"
     xlink:href="#g" />
  <radialGradient
     id="k"
     cx="57.214077"
     cy="124.00706"
     fx="49.233025"
     fy="124.00705"
     gradientTransform="matrix(0.61953168,-6e-8,0,0.28763835,-17.455568,233.79883)"
     gradientUnits="userSpaceOnUse"
     r="11.383312"
     xlink:href="#l" />
  <linearGradient
     id="l">
    <stop
       offset="0"
       stop-color="#fff"
       id="stop35" />
    <stop
       offset="1"
       stop-color="#fff"
       stop-opacity="0"
       id="stop37" />
  </linearGradient>
  <radialGradient
     id="m"
     cx="63.462833"
     cy="66.417244"
     gradientTransform="matrix(0.23868901,0,0,0.06669799,1.738199,275.64367)"
     gradientUnits="userSpaceOnUse"
     r="13.788582"
     xlink:href="#b" />
  <linearGradient
     id="n"
     gradientTransform="matrix(0.22047697,-0.01077964,0.0115261,0.23574433,2.886126,263.42369)"
     gradientUnits="userSpaceOnUse"
     x1="26.516504"
     x2="67.55307"
     xlink:href="#l"
     y1="6.2892451"
     y2="6.2892451" />
  <linearGradient
     id="o"
     gradientTransform="matrix(0.22074034,0,0,0.16502502,2.861137,264.39631)"
     gradientUnits="userSpaceOnUse"
     x1="27.080584"
     x2="59.768688"
     xlink:href="#l"
     y1="-14.285192"
     y2="17.40625" />
  <linearGradient
     id="p"
     gradientTransform="matrix(0.24830857,0,0,0.25923263,1.418237,263.05161)"
     gradientUnits="userSpaceOnUse"
     x1="48.648247"
     x2="63.212357"
     xlink:href="#b"
     y1="123.09119"
     y2="60.341194" />
  <filter
     id="q"
     height="1.12069"
     width="1.119315"
     x="-0.059657998"
     y="-0.060345002"
     style="color-interpolation-filters:sRGB">
    <feGaussianBlur
       stdDeviation=".82504758"
       id="feGaussianBlur44" />
  </filter>
  <linearGradient
     id="r"
     gradientUnits="userSpaceOnUse"
     x1="24.78186"
     x2="24.78186"
     xlink:href="#s"
     y1="297.65903"
     y2="279.82874" />
  <linearGradient
     id="s">
    <stop
       offset="0"
       stop-color="#525252"
       id="stop48" />
    <stop
       offset="1"
       stop-color="#d8d8d8"
       id="stop50" />
  </linearGradient>
  <linearGradient
     id="t"
     gradientUnits="userSpaceOnUse"
     x1="15.8973"
     x2="32.987171"
     y1="287.61887"
     y2="287.61887">
    <stop
       offset="0"
       stop-color="#ebebeb"
       id="stop53" />
    <stop
       offset=".3164545"
       stop-color="#cacaca"
       id="stop55" />
    <stop
       offset=".58694273"
       stop-color="#c7c7c7"
       stop-opacity=".955882"
       id="stop57" />
    <stop
       offset=".84601915"
       stop-color="#cacaca"
       id="stop59" />
    <stop
       offset="1"
       stop-color="#dedede"
       id="stop61" />
  </linearGradient>
  <filter
     id="u"
     height="1.024"
     width="1.024"
     x="-0.012"
     y="-0.012"
     style="color-interpolation-filters:sRGB">
    <feGaussianBlur
       stdDeviation=".12785668"
       id="feGaussianBlur64" />
  </filter>
  <linearGradient
     id="v"
     gradientUnits="userSpaceOnUse"
     x1="24.701073"
     x2="24.733223"
     y1="281.36441"
     y2="294.21851">
    <stop
       offset="0"
       stop-color="#171a1c"
       id="stop67" />
    <stop
       offset="1"
       stop-color="#8ca0ac"
       id="stop69" />
  </linearGradient>
  <radialGradient
     id="w"
     cx="63.02887"
     cy="288.18738"
     gradientUnits="userSpaceOnUse"
     r="11.437257">
    <stop
       offset="0"
       stop-color="#7cb5fc"
       id="stop72" />
    <stop
       offset="1"
       stop-color="#0d5bab"
       id="stop74" />
  </radialGradient>
  <filter
     id="x"
     height="1.024"
     width="1.024"
     x="-0.012"
     y="-0.012"
     style="color-interpolation-filters:sRGB">
    <feGaussianBlur
       stdDeviation=".11169196"
       id="feGaussianBlur77" />
  </filter>
  <filter
     id="y"
     height="1.023839"
     width="1.024163"
     x="-0.012082"
     y="-0.01192"
     style="color-interpolation-filters:sRGB">
    <feGaussianBlur
       stdDeviation=".087289468"
       id="feGaussianBlur80" />
  </filter>
  <linearGradient
     id="z"
     gradientTransform="matrix(0.40992622,0,0,0.43732811,-1.243719,164.52807)"
     gradientUnits="userSpaceOnUse"
     x1="63.499996"
     x2="63.499996"
     y1="269.89706"
     y2="286.49451">
    <stop
       offset="0"
       stop-color="#e3f3fd"
       id="stop83" />
    <stop
       offset="1"
       stop-color="#a3d8f9"
       stop-opacity="0"
       id="stop85" />
  </linearGradient>
  <linearGradient
     id="A"
     gradientUnits="userSpaceOnUse"
     x1="24.470198"
     x2="24.669523"
     y1="278.72476"
     y2="284.19904">
    <stop
       offset="0"
       stop-color="#fcfcfc"
       id="stop88" />
    <stop
       offset="1"
       stop-color="#fcfcfc"
       stop-opacity="0"
       id="stop90" />
  </linearGradient>
  <radialGradient
     id="B"
     cx="67.73333"
     cy="277.9501"
     gradientTransform="matrix(-0.48115879,0,0,-0.48115879,54.943559,422.86662)"
     gradientUnits="userSpaceOnUse"
     r="7.5746908">
    <stop
       offset="0"
       stop-color="#bfbfbf"
       id="stop93" />
    <stop
       offset="1"
       stop-color="#dfdfdf"
       stop-opacity="0"
       id="stop95" />
  </radialGradient>
  <filter
     id="C"
     height="1.047739"
     width="1.048264"
     x="-0.024132"
     y="-0.023870001"
     style="color-interpolation-filters:sRGB">
    <feGaussianBlur
       stdDeviation=".9480859"
       id="feGaussianBlur98" />
  </filter>
  <radialGradient
     id="D"
     cx="21.273409"
     cy="276.88303"
     gradientUnits="userSpaceOnUse"
     r="6.794981">
    <stop
       offset="0"
       stop-color="#e10000"
       id="stop101" />
    <stop
       offset="1"
       stop-color="#851400"
       id="stop103" />
  </radialGradient>
  <radialGradient
     id="E"
     cx="21.273409"
     cy="276.88303"
     gradientUnits="userSpaceOnUse"
     r="6.794981">
    <stop
       offset="0"
       stop-color="#ffbfbf"
       id="stop106" />
    <stop
       offset="1"
       stop-color="#ffbfbf"
       stop-opacity="0"
       id="stop108" />
  </radialGradient>
  <linearGradient
     id="F"
     gradientUnits="userSpaceOnUse"
     x1="16.526453"
     x2="17.475842"
     xlink:href="#s"
     y1="277.83243"
     y2="281.63" />
  <radialGradient
     id="G"
     cx="17.52717"
     cy="278.68237"
     gradientUnits="userSpaceOnUse"
     r="2.4271595">
    <stop
       offset="0"
       stop-color="#e8e8e8"
       id="stop112" />
    <stop
       offset="1"
       stop-color="#c7c7c7"
       id="stop114" />
  </radialGradient>
  <filter
     id="H"
     height="1.08803"
     width="1.060909"
     x="-0.030454"
     y="-0.044015002"
     style="color-interpolation-filters:sRGB">
    <feGaussianBlur
       stdDeviation=".61981931"
       id="feGaussianBlur117" />
  </filter>
  <g
     id="g158"
     transform="matrix(0.171875,0,0,0.171875,0.26457346,-44.95694)">
    <path
       inkscape:connector-curvature="0"
       id="path1143"
       transform="matrix(1.539394,0,0,1.539394,-1.5393365,261.56765)"
       d="M 12.003906,1.0507812 A 8.155008,1.9949337 0 0 0 6.3222656,1.6152344 C 6.1531254,1.6536812 6.0064743,1.6967245 5.8515625,1.7382812 A 8.155008,1.9949337 0 0 0 5.703125,1.7792969 c -1.1917061,0.337941 -1.9375,0.762077 -1.9375,1.2167969 0,2.1274735 6.1777344,8.6738282 6.1777344,8.6738282 0.025624,0.03667 0.054728,0.09978 0.054687,0.169922 l -0.00391,0.802734 -0.066406,9.917969 c -1.019e-4,0.01509 0.022653,0.02659 0.027344,0.04102 v 0.03906 c 0.025458,0.103209 0.1117366,0.118967 0.1855466,0.152344 3.79e-4,-0.01168 -3.74e-4,-0.02348 0,-0.03516 0.256311,0.114873 0.756539,0.189454 1.595703,0.189454 0.0445,0 0.08121,-0.0035 0.125,-0.0039 0.02531,3.24e-4 0.05562,0.0039 0.08008,0.0039 0.06536,0 0.147699,-0.01021 0.220703,-0.01367 0.0019,-9.2e-5 0.0039,9.3e-5 0.0059,0 0.584154,-0.01809 1.063503,-0.07287 1.376953,-0.160156 v 0.02344 l 0.185547,-0.06836 v -0.0059 c 0.127297,-0.05329 0.207031,-0.112458 0.207031,-0.183594 0,-0.0013 1.24e-4,-0.0046 0,-0.0059 L 14,11.822266 c 0,-0.01055 0.005,-0.02026 0.0059,-0.03125 0.02947,-0.03467 0.04492,-0.06557 0.04492,-0.0918 0,-0.0039 -0.0034,-0.0079 -0.0039,-0.01172 -0.0035,7.97e-4 -0.01203,0.0012 -0.01563,0.002 0.01773,-0.01894 6.203125,-6.6282657 6.203125,-8.7734374 0,-0.1697853 -0.215949,-0.3598897 -0.576172,-0.5527344 a 8.155008,1.9949337 0 0 0 -7.654297,-1.3125 z"
       style="fill:#d0d0d0;fill-opacity:1;stroke:none;stroke-width:0.64960629" />
    <ellipse
       style="opacity:0.38139505;fill:url(#a)"
       id="ellipse120"
       ry="1.3936909"
       rx="10.318751"
       cy="297.09317"
       cx="16.933334" />
    <ellipse
       style="opacity:0.41393403;fill:url(#c)"
       id="ellipse122"
       ry="1.1023901"
       rx="3.7667079"
       cy="296.32614"
       cx="16.933334" />
    <path
       sodipodi:nodetypes="ccc"
       style="fill:#ffffff;fill-opacity:0.756881"
       inkscape:connector-curvature="0"
       id="path124"
       d="m 14.115408,263.95214 v -0.73929 z" />
    <path
       sodipodi:nodetypes="ccccc"
       inkscape:connector-curvature="0"
       style="opacity:0.42000002;fill:url(#d)"
       id="path126"
       d="m 27.190849,268.0365 c -2.842649,4.00968 -5.837781,7.7048 -7.777384,11.71448 l 0.309876,-0.0105 9.109266,-12.16406 c -0.604989,0.25688 -1.147088,0.401 -1.641758,0.46008 z" />
    <path
       sodipodi:nodetypes="csccssscccsc"
       inkscape:connector-curvature="0"
       id="path128"
       style="fill:url(#e);stroke:#575757;stroke-width:0.30787879;stroke-linecap:round;stroke-linejoin:round;stroke-miterlimit:4;stroke-dasharray:none;stroke-dashoffset:4;stroke-opacity:1"
       d="m 16.954088,263.2057 c -7.0085037,0 -12.6963338,1.3867 -12.6963338,2.97557 0,3.27502 9.5108818,13.35213 9.5108818,13.35213 0.04081,0.0584 0.08939,0.15521 0.08591,0.26801 l -0.110697,16.49499 c -0.0024,0.35533 0.851035,0.59473 2.784957,0.59473 1.892583,0 3.387199,-0.22248 3.387199,-0.62846 0,-0.002 1.91e-4,-0.007 0,-0.009 l 0.09612,-16.48599 c 0,-0.0661 0.009,-0.14128 0.03975,-0.19762 0,0 9.557156,-10.20522 9.557156,-13.51222 0,-1.12637 -5.646441,-2.85214 -12.65494,-2.85214 z" />
    <path
       sodipodi:nodetypes="scscs"
       inkscape:connector-curvature="0"
       id="path130"
       d="m 16.953922,266.15778 c -5.168295,0 -9.3341621,0.50788 -10.0160417,1.86483 2.227259,0.8738 5.8176137,1.40816 10.0160417,1.40816 4.193843,0 8.008861,-0.52206 10.236927,-1.39427 -0.668723,-1.36068 -5.058892,-1.87872 -10.236927,-1.87872 z" />
    <path
       sodipodi:nodetypes="ccscccc"
       inkscape:connector-curvature="0"
       style="opacity:0.61475375;fill:url(#linearGradient1156)"
       id="path132"
       d="m 14.835638,279.9059 -0.110697,16.79793 c 0.472303,0.0993 1.418538,0.1873 2.118384,0.1873 0.582252,0 1.418614,-0.10048 1.85003,-0.17038 l 0.110697,-16.84858 c -1.092204,0.24393 -2.87621,0.41965 -3.968414,0.0337 z" />
    <path
       sodipodi:nodetypes="cssccscc"
       inkscape:connector-curvature="0"
       style="opacity:0.11000001;fill:url(#radialGradient1158)"
       id="path134"
       d="m 13.942333,279.59352 c -8.73e-4,0.006 -0.0062,0.0108 -0.0062,0.0169 0,0.32295 1.580635,0.87211 3.087212,0.87211 1.506575,0 3.066479,-0.58289 3.06648,-0.90584 0,-0.006 -0.0054,-0.011 -0.0062,-0.0169 -0.600839,0.13617 -1.930986,0.27169 -3.060294,0.27169 -1.129041,0 -2.480142,-0.10185 -3.081026,-0.23796 z" />
    <path
       sodipodi:nodetypes="cccccc"
       inkscape:connector-curvature="0"
       style="opacity:0.75819702;fill:url(#i)"
       id="path136"
       d="m 14.835638,279.94469 -3.03553,-10.51392 c 2.335252,0.26645 4.717967,0.15862 7.061719,0.0424 l -0.05778,10.43775 c -1.092204,0.20436 -2.87621,0.35705 -3.968414,0.0337 z" />
    <path
       sodipodi:nodetypes="cssccscc"
       inkscape:connector-curvature="0"
       style="opacity:0.11000001;fill:url(#h)"
       id="path138"
       d="m 13.942333,279.59352 c -8.73e-4,0.006 -0.0062,0.0108 -0.0062,0.0169 0,0.32295 1.580635,0.6572 3.087212,0.6572 1.506575,0 3.066479,-0.36798 3.06648,-0.69093 0,-0.006 -0.0054,-0.011 -0.0062,-0.0169 -0.600839,0.13617 -1.948481,0.41497 -3.07779,0.41497 -1.129041,0 -2.462646,-0.24512 -3.06353,-0.38124 z" />
    <ellipse
       id="ellipse140"
       style="fill:none;stroke:#5b5b5b;stroke-width:0.29567999;stroke-linecap:round;stroke-linejoin:round;stroke-dashoffset:4"
       ry="3.0271671"
       rx="12.546605"
       cy="266.25577"
       cx="16.9384" />
    <path
       sodipodi:nodetypes="cccccc"
       inkscape:connector-curvature="0"
       style="opacity:0.75819702;fill:url(#j)"
       id="path142"
       d="m 14.650285,279.9126 -3.567583,-10.48183 c 2.335252,0.26497 6.042409,0.21401 8.386161,0.0985 l -0.518479,10.37946 c -1.092205,0.20323 -3.207895,0.32542 -4.300099,0.004 z" />
    <ellipse
       id="ellipse144"
       style="fill:none;stroke:url(#k);stroke-width:0.208022;stroke-linecap:round;stroke-linejoin:round;stroke-dashoffset:4"
       ry="3.0709889"
       rx="12.55377"
       cy="266.2558"
       cx="16.938402" />
    <path
       sodipodi:nodetypes="cssccscc"
       inkscape:connector-curvature="0"
       style="opacity:0.11000001;fill:url(#m)"
       id="path146"
       d="m 13.942333,279.59352 c -8.73e-4,0.006 -0.0062,0.0108 -0.0062,0.0169 0,0.32295 1.589383,1.11091 3.095959,1.11091 1.506576,0 3.057732,-0.82169 3.057733,-1.14464 0,-0.006 -0.0054,-0.011 -0.0062,-0.0169 -0.600839,0.13617 -2.000968,0.47467 -3.130276,0.47467 -1.129042,0 -2.41016,-0.30482 -3.011045,-0.44094 z" />
    <path
       sodipodi:nodetypes="ccscccc"
       inkscape:connector-curvature="0"
       style="opacity:0.61475375;fill:url(#f)"
       id="path148"
       d="m 14.656286,279.86309 0.06865,16.84074 c 0.472303,0.0993 1.418538,0.1873 2.118384,0.1873 0.582252,0 1.418614,-0.10048 1.85003,-0.17038 l 0.234864,-16.84858 c -1.092204,0.24393 -3.179728,0.37684 -4.271933,-0.009 z" />
    <path
       sodipodi:nodetypes="ccccc"
       style="opacity:0.21311502"
       inkscape:connector-curvature="0"
       id="path150"
       d="m 19.432556,279.74903 h 0.275925 l -0.110697,16.80771 -0.285682,0.10422 z" />
    <path
       sodipodi:nodetypes="ccccc"
       inkscape:connector-curvature="0"
       style="opacity:0.83606603;fill:url(#n)"
       id="path152"
       d="m 8.8799178,264.15733 c 1.3633562,-0.26371 2.7191072,-0.47186 4.0632922,-0.59552 l 0.141696,2.62403 c -1.116075,0.0775 -2.098343,0.38867 -3.155854,0.60205 z" />
    <path
       sodipodi:nodetypes="ccccccc"
       inkscape:connector-curvature="0"
       style="opacity:0.83606603;fill:url(#o)"
       id="path154"
       d="m 11.980141,266.65793 c -1.177349,0.0493 -1.39478,0.0678 -2.2967508,0.15435 0.8504498,0.3609 1.8268638,0.65629 2.6419838,0.96952 1.084138,0.0439 2.243471,0.0658 3.455965,0.0774 -0.778743,-0.38809 -1.74637,-1.36381 -2.904114,-1.50801 -0.812998,-0.10126 -0.879208,0.31448 -0.897084,0.30678 z" />
    <path
       sodipodi:nodetypes="cccccc"
       inkscape:connector-curvature="0"
       style="opacity:0.53278701;fill:url(#p)"
       id="path156"
       d="m 13.856872,279.70084 -0.0043,-0.004 -0.06802,16.72342 c 0.03919,0.15888 0.172058,0.18245 0.285681,0.23383 0.195693,-6.03415 -0.02285,-12.28977 -0.213325,-16.9532 z" />
  </g>
  <g
     transform="matrix(0.04419259,0,0,0.04419259,0.36101993,0.33010202)"
     id="g210">
    <path
       style="fill:url(#linearGradient1443)"
       inkscape:connector-curvature="0"
       d="m 107.94864,20.043953 c -0.30371,0.553577 -0.62308,1.109263 -1.04163,1.633044 0.0823,0.0094 0.16968,0.02801 0.25126,0.03765 10.16858,1.201931 15.71739,7.049222 16.96927,11.607185 1.25187,4.557962 -2.87457,9.171649 -11.18651,14.7296 -8.31194,5.557949 -20.928879,10.890624 -35.609969,14.351084 -14.681087,3.46046 -28.519377,4.363649 -38.687968,3.161719 C 28.4745,64.362304 22.479021,62.131963 21.227144,57.574001 19.975267,53.016039 21.786515,45.408061 30.098461,39.85011 38.410405,34.292159 52.544549,27.536342 67.225639,24.075882 c 3.771104,-0.04608 2.764391,-1.98099 -0.16714,-1.313743 -16.43817,3.87462 -31.549301,9.115033 -41.594996,15.83229 -10.045695,6.717259 -15.9763622,14.465857 -14.10184,21.290814 1.874523,6.824957 11.084213,11.035006 23.373826,12.487638 12.28961,1.452637 28.173664,1.224238 44.611838,-2.650381 16.438171,-3.874618 30.498153,-10.703836 40.543863,-17.421096 10.04567,-6.717256 10.89077,-14.178187 9.01625,-21.003145 -1.84405,-6.713987 -8.85327,-11.015762 -20.9588,-11.254306 z"
       id="path132-2" />
    <path
       style="fill:#ffffff;fill-opacity:0.756881"
       inkscape:connector-curvature="0"
       d="M 59.258983,10.920266 V 8.1255573 Z"
       id="path134-2" />
    <path
       style="fill:#eb7331"
       inkscape:connector-curvature="0"
       d="m 40.123774,40.507884 c 0.147209,0.736045 -1.617347,1.187712 -1.930889,1.869713 -0.313542,0.682 0.492414,2.315431 -0.162117,2.682885 -0.65453,0.367455 -1.629369,-1.171165 -2.37488,-1.258611 -0.745511,-0.08745 -2.049941,1.183821 -2.601672,0.674875 -0.551732,-0.508946 0.610341,-1.911532 0.463132,-2.647577 -0.147209,-0.736046 -1.759348,-1.583789 -1.445806,-2.26579 0.313542,-0.682001 2.006581,-0.01023 2.661112,-0.377681 0.654531,-0.367455 0.962604,-2.162657 1.708115,-2.075211 0.745511,0.08745 0.629794,1.905212 1.181525,2.414158 0.551732,0.508946 2.354271,0.247193 2.50148,0.983239 z"
       transform="matrix(0.99823,-0.06168429,0.02721908,0.849126,29.326154,-10.58347)"
       id="path136-8" />
    <path
       style="fill:#ffffff;fill-opacity:0.756881"
       inkscape:connector-curvature="0"
       d="M 148.2043,23.112736 V 20.318027 Z"
       id="path138-9" />
    <path
       style="fill:#eb7331"
       inkscape:connector-curvature="0"
       d="m -43.86199,91.807774 c -5.746548,-2.915528 0.576848,-17.216398 -2.358502,-22.952846 -2.935351,-5.736449 -18.233065,-8.973759 -17.236014,-15.34 0.997051,-6.36624 16.552023,-4.771544 21.100637,-9.335889 4.548613,-4.564344 2.900225,-20.113718 9.262985,-21.132743 6.36276,-1.019024 9.652865,14.267421 15.399413,17.18295 5.746549,2.915528 20.0255027,-3.457203 22.9608536,2.279245 2.9353508,5.736449 -10.5862245,13.589296 -11.5832757,19.955536 -0.9970512,6.36624 9.4762156,17.97705 4.9276022,22.541395 -4.5486132,4.564344 -16.1955121,-5.868775 -22.5582711,-4.84975 -6.36276,1.019024 -14.168879,14.56763 -19.915428,11.652102 z"
       transform="matrix(0.233515,-0.103209,0.103209,0.233515,114.12828,77.91657)"
       id="path140" />
    <path
       inkscape:connector-curvature="0"
       d="m 96.890193,15.337539 c -6.511935,0.100995 -8.484115,2.17986 -8.805059,5.262831 -0.361726,3.474737 5.404548,5.520445 9.365158,4.273978 9.434128,-2.969073 23.185548,1.739048 26.095608,9.565393 1.65441,4.449383 -2.27388,8.648129 -10.58582,14.206079 C 104.64814,54.20377 92.033926,59.621358 77.352836,63.081818 62.671749,66.542278 48.83346,67.445466 38.664869,66.243537 28.496274,65.041604 21.680436,62.181311 20.428559,57.623349 19.915293,55.754595 19.461526,53.400485 20.211656,50.85687 l 1.789136,-7.472731 c -2.827076,2.645124 -6.861873,5.493987 -8.021839,7.857874 -1.540822,2.923613 -2.873934,5.86074 -2.118174,8.612389 1.874522,6.824956 10.585097,11.065847 22.87471,12.518479 12.28961,1.452637 28.173664,1.224238 44.611838,-2.650381 16.438171,-3.874618 31.252903,-10.966868 41.298613,-17.68413 10.04567,-6.717255 13.32583,-13.246688 11.4513,-20.071646 -1.87453,-6.824957 -8.49302,-11.440437 -20.81964,-14.387577 -6.53265,-1.56188 -11.721644,-2.28295 -14.387407,-2.241608 z"
       style="opacity:0.36885304;fill:none;stroke:#000000;stroke-width:2.76472998;stroke-linecap:round;stroke-linejoin:round;stroke-dashoffset:4;stroke-opacity:0.044898"
       id="path142-7" />
    <path
       inkscape:connector-curvature="0"
       d="m 96.879306,14.997889 c -6.511937,0.100994 -8.783585,2.198364 -9.104528,5.281336 -0.361727,3.474736 5.714904,5.84159 9.675514,4.595123 9.434128,-2.969073 24.697018,3.67225 25.895958,9.57773 0.93391,4.624626 -2.07967,8.465966 -10.39161,14.023918 C 104.6427,54.033944 92.02576,59.36662 77.344671,62.827079 62.663583,66.287539 48.825295,67.190728 38.656703,65.988798 28.488108,64.786867 21.979905,62.162805 20.728028,57.604844 20.214762,55.73609 19.860818,53.375811 20.610949,50.832196 l -6.931465,0.428322 c -1.540822,2.923613 -2.873934,5.860741 -2.118175,8.612389 1.874523,6.824956 10.884567,11.047342 23.17418,12.499974 12.28961,1.452637 28.173664,1.224238 44.611838,-2.650381 C 95.785498,65.847882 110.60023,58.755632 120.64594,52.03837 130.69161,45.321115 134.17141,38.779344 132.29689,31.954386 130.42236,25.12943 123.59334,20.186635 111.26672,17.239495 104.73405,15.677618 99.545069,14.956546 96.879306,14.997889 Z"
       style="opacity:0.58196698;fill:none;stroke:#000000;stroke-width:1.84315002;stroke-linecap:round;stroke-linejoin:round;stroke-dashoffset:4;stroke-opacity:0.065306"
       id="path144" />
    <g
       transform="matrix(-0.54205,0.865155,-0.96558,-0.334369,183.19578,28.07353)"
       id="g174">
      <path
         style="fill-rule:evenodd"
         inkscape:connector-curvature="0"
         d="m 118.78907,2.0588973 c 0.53184,-0.547895 3.35709,-0.6241909 5.87615,1.8593065 2.54375,2.5078422 2.63975,5.1933474 1.97354,5.8796153 C 126.20515,10.244528 30.668446,107.18002 30.234832,107.62671 27.618242,105.04707 25.001673,102.46745 22.385097,99.887812 22.818716,99.441109 118.35543,2.5056202 118.78907,2.0588973 Z"
         id="path146-3" />
      <path
         style="fill:url(#l-6)"
         inkscape:connector-curvature="0"
         d="M 42.529815,79.422833 C 41.154594,80.330809 30.189224,91.548774 29.382098,92.806737 l 6.297737,6.180851 13.147692,-13.383895 z m 5.636697,5.524761 -13.147697,13.383884 2.203352,2.187022 C 38.416108,99.757068 49.437991,88.600492 50.36985,87.134608 Z"
         id="path148-6" />
      <path
         style="fill:url(#m-7);fill-rule:evenodd"
         inkscape:connector-curvature="0"
         d="m 123.84698,3.3831922 c 1.66285,1.3566771 2.70525,3.3114393 2.75025,3.5027664 0.045,0.1913336 -1.44629,-1.9742288 -2.84619,-2.9189915 -1.38919,-0.9375217 -3.54078,-0.82251 -3.68139,-0.9385225 -0.14059,-0.1160052 -1.04625,-1.2064534 -0.0754,-1.2275181 1.0155,-0.022039 2.56815,0.5354505 3.8527,1.5822657 z"
         id="path150-1" />
      <path
         style="fill:url(#n-6)"
         inkscape:connector-curvature="0"
         d="m 86.731697,-82.606361 h 3.151786 v 1.290741 h -3.151786 z"
         transform="matrix(0.712123,0.702055,-0.696017,0.718025,0,0)"
         id="path152-2" />
      <path
         style="fill:url(#o-2)"
         inkscape:connector-curvature="0"
         d="m 87.71843,-82.612938 h 10.88204 v 1.290935 H 87.71843 Z"
         transform="matrix(0.712168,0.702009,-0.688266,0.725459,0,0)"
         id="path154-9" />
      <path
         style="fill:url(#p-2)"
         inkscape:connector-curvature="0"
         d="m -97.754829,-82.606361 h 3.127172 v 1.290741 h -3.127172 z"
         transform="matrix(-0.712123,-0.702055,-0.696017,0.718025,0,0)"
         id="path156-3" />
      <path
         style="fill:#999999"
         inkscape:connector-curvature="0"
         d="m 39.4289,97.1653 c -0.05449,0.05527 -0.08604,0.108899 -0.09468,0.160888 -0.0086,0.052 0.0065,0.09754 0.0453,0.13663 0.03867,0.03893 0.08372,0.05393 0.135138,0.045 0.05142,-0.0089 0.104373,-0.04102 0.158857,-0.09629 0.0548,-0.05558 0.08651,-0.10937 0.09515,-0.161365 0.0086,-0.052 -0.0064,-0.09745 -0.04506,-0.136379 -0.03884,-0.03909 -0.08396,-0.05417 -0.135385,-0.04525 -0.05142,0.0089 -0.104526,0.04118 -0.159321,0.09676 m -0.06887,-0.06933 c 0.111446,-0.113044 0.215692,-0.184537 0.312744,-0.214473 0.09705,-0.02994 0.175443,-0.01484 0.235176,0.04529 0.05957,0.05996 0.07473,0.139035 0.04548,0.237216 -0.02925,0.09818 -0.0996,0.203796 -0.211049,0.316844 -0.111135,0.112729 -0.215381,0.184222 -0.312744,0.214475 -0.09705,0.02993 -0.175359,0.01492 -0.234931,-0.04504 -0.05973,-0.06013 -0.07497,-0.139284 -0.04572,-0.237463 0.02956,-0.0985 0.09991,-0.20411 0.211047,-0.316846 m 1.031296,-0.667986 0.428626,-0.05466 -0.186208,0.188884 -0.287944,0.03767 -0.03478,0.289695 -0.187133,0.189821 0.05244,-0.433319 -0.411684,0.05294 0.18667,-0.189353 0.270571,-0.03451 0.03265,-0.273067 0.1876,-0.190294 -0.05081,0.416197 m 0.07031,-0.435981 0.195492,-0.198301 0.289196,-0.02797 0.02656,-0.292333 0.195956,-0.198771 -0.05095,0.482687 0.155263,0.156284 -0.178779,0.181349 -0.15526,-0.15629 -0.477483,0.05334 m 1.748121,-1.083825 c -0.03306,0.05681 -0.0707,0.112452 -0.112926,0.166922 -0.04222,0.05447 -0.08888,0.107615 -0.139954,0.159425 -0.11547,0.11713 -0.22406,0.192692 -0.325775,0.226696 -0.101877,0.03384 -0.182191,0.02119 -0.240939,-0.03795 -0.05941,-0.0598 -0.07178,-0.141698 -0.03712,-0.245695 0.03466,-0.104004 0.11174,-0.216606 0.231231,-0.337817 0.04613,-0.04679 0.09255,-0.08922 0.139254,-0.127286 0.04702,-0.03838 0.09378,-0.07201 0.140289,-0.100905 l 0.07627,0.07678 c -0.05038,0.02749 -0.09764,0.05781 -0.14179,0.09095 -0.04384,0.03282 -0.08495,0.06871 -0.123335,0.107648 -0.0712,0.07222 -0.115533,0.138644 -0.133003,0.199263 -0.01732,0.06014 -0.0063,0.110011 0.03301,0.149595 0.039,0.03926 0.08769,0.05073 0.146067,0.03442 0.05837,-0.01631 0.121768,-0.05917 0.190185,-0.128569 0.01857,-0.01884 0.03518,-0.03684 0.04981,-0.05402 0.01478,-0.01765 0.0272,-0.03424 0.03726,-0.04977 l -0.07158,-0.07206 -0.109125,0.110694 -0.06368,-0.0641 0.278612,-0.282614 0.17723,0.178399 m -0.184179,-0.502587 0.482463,-0.489396 0.07183,0.0723 -0.303687,0.308052 0.06862,0.06907 0.285578,-0.289681 0.07183,0.0723 -0.285578,0.289681 0.08442,0.08498 0.313903,-0.318412 0.07183,0.0723 -0.492681,0.49976 -0.368527,-0.370961 m 0.650096,-0.659438 0.199671,-0.202541 0.504906,-0.0013 -0.252761,-0.254428 0.169488,-0.171924 0.368529,0.370961 -0.199673,0.202542 -0.504906,0.0013 0.252762,0.254432 -0.169489,0.171922 -0.368527,-0.37096 m 1.125593,-1.141765 0.199671,-0.202539 0.504905,-0.0013 -0.252761,-0.254426 0.169489,-0.171926 0.368528,0.37096 -0.199671,0.202542 -0.504908,0.0013 0.252763,0.254432 -0.169489,0.171923 -0.368527,-0.37096 m 0.969405,-0.996805 c 0.06594,-0.06688 0.127078,-0.110447 0.183422,-0.130686 0.05665,-0.02055 0.100611,-0.01509 0.131878,0.01638 0.03126,0.03147 0.03691,0.07563 0.01693,0.132475 -0.01997,0.05685 -0.06309,0.118869 -0.129334,0.186068 -0.06625,0.0672 -0.127616,0.111159 -0.184105,0.131875 -0.05618,0.0204 -0.0999,0.01487 -0.131166,-0.0166 -0.03127,-0.03147 -0.03699,-0.07571 -0.01718,-0.132726 0.02012,-0.05732 0.06331,-0.119583 0.129552,-0.186785 m 0.04244,0.429361 0.382163,-0.387653 0.04937,0.04969 -0.382163,0.387655 -0.04937,-0.04969 m -4.81e-4,-0.387122 c -0.026,0.02638 -0.04094,0.05201 -0.04481,0.07689 -0.0036,0.02457 0.0042,0.04646 0.02329,0.06567 0.01909,0.01922 0.0407,0.02689 0.06483,0.02303 0.02444,-0.0042 0.04967,-0.01945 0.07567,-0.04583 0.0257,-0.02606 0.04041,-0.05129 0.04414,-0.07569 0.004,-0.02472 -0.0035,-0.04668 -0.02258,-0.06589 -0.01909,-0.01921 -0.04094,-0.02682 -0.06555,-0.02281 -0.0243,0.0037 -0.04929,0.01858 -0.07499,0.04464 m 1.174679,-0.919683 c 0.05316,-0.04095 0.0998,-0.06564 0.139906,-0.07407 0.04025,-0.0089 0.07264,-0.001 0.09716,0.02367 0.03653,0.03677 0.03803,0.09146 0.0045,0.164054 -0.0337,0.07243 -0.101015,0.159833 -0.201934,0.262202 -0.0356,0.03611 -0.07292,0.07081 -0.111956,0.104087 -0.03856,0.03313 -0.07838,0.06437 -0.119445,0.09373 l -0.07331,-0.0738 c 0.04232,-0.02497 0.08219,-0.05178 0.119613,-0.08042 0.03757,-0.02913 0.07229,-0.05986 0.104179,-0.0922 0.04736,-0.04805 0.07922,-0.08917 0.09558,-0.123389 0.01666,-0.03453 0.01685,-0.05999 5.55e-4,-0.07639 -0.01678,-0.01689 -0.04246,-0.01646 -0.07702,0.0013 -0.03442,0.01729 -0.07685,0.05152 -0.127313,0.102705 l -0.07151,0.07254 -0.06121,-0.06162 0.07522,-0.07631 c 0.04489,-0.04553 0.07462,-0.08317 0.08919,-0.112923 0.01441,-0.02991 0.01396,-0.05257 -0.0013,-0.06798 -0.01416,-0.01425 -0.03578,-0.01443 -0.06487,-5.47e-4 -0.02909,0.01388 -0.06314,0.04061 -0.10215,0.08017 -0.02879,0.02921 -0.05616,0.06046 -0.08212,0.09377 -0.02595,0.03331 -0.05011,0.06812 -0.07246,0.104429 l -0.06961,-0.07007 c 0.03002,-0.0411 0.06106,-0.08056 0.09309,-0.118379 0.03204,-0.03782 0.06478,-0.07368 0.09821,-0.107601 0.09009,-0.09137 0.165313,-0.151727 0.22569,-0.181043 0.06052,-0.02979 0.106578,-0.02879 0.138173,0.003 0.02156,0.0217 0.02857,0.05034 0.02103,0.08592 -0.0077,0.03541 -0.02965,0.07713 -0.06585,0.125157"
         id="path158" />
      <ellipse
         style="fill:url(#q-9)"
         cx="34.677639"
         cy="7.4622769"
         rx="47.495197"
         ry="1.1412899"
         transform="matrix(1.032406,-1.036404,-1.861463,-1.9626,52.02282,103.6246)"
         id="ellipse160" />
      <g
         transform="matrix(0.712202,0.701974,0.870513,-0.883197,9.637176,-69.26202)"
         id="g172">
        <path
           style="fill-rule:evenodd"
           inkscape:connector-curvature="0"
           d="m 127.80368,-90.294455 c -0.006,-0.563594 1.95277,-2.067585 5.4902,-2.067265 3.5721,3.32e-4 5.52563,1.362339 5.5329,2.068292 0.005,0.459498 0.01,-0.08101 0.0143,0.378492 -3.67438,-3.28e-4 -7.34874,-6.64e-4 -11.02311,-9.99e-4 -0.005,-0.459504 -0.01,0.081 -0.0143,-0.37852"
           id="path162" />
        <path
           style="fill:url(#r-3);fill-rule:evenodd"
           inkscape:connector-curvature="0"
           d="m 132.33556,-92.205799 c 2.13664,-0.162122 4.25123,0.370455 4.41759,0.454862 0.16635,0.08442 -2.41591,-0.315135 -4.07612,-0.06529 -1.6475,0.247939 -3.09913,1.531941 -3.28071,1.544898 -0.18157,0.01297 -1.59205,-0.100623 -0.91537,-0.662315 0.70777,-0.587493 2.20492,-1.146223 3.85461,-1.272157 z"
           id="path164" />
        <path
           style="fill:url(#s-6)"
           inkscape:connector-curvature="0"
           d="m 128.73668,-90.662788 h 3.15179 v 1.040863 h -3.15179 z"
           transform="matrix(1,9.167e-5,0.01032906,0.999947,0,0)"
           id="path166" />
        <path
           style="fill:url(#t-0)"
           inkscape:connector-curvature="0"
           d="m 130.04366,-90.676453 h 10.88204 v 1.041099 h -10.88204 z"
           transform="matrix(1,4.003e-5,0.02364474,0.99972,0,0)"
           id="path168" />
        <path
           style="fill:url(#u-6)"
           inkscape:connector-curvature="0"
           d="m -139.75981,-90.662788 h 3.12717 v 1.040863 h -3.12717 z"
           transform="matrix(-1,-9.167e-5,0.01032906,0.999947,0,0)"
           id="path170" />
      </g>
    </g>
    <path
       inkscape:connector-curvature="0"
       d="m 96.865696,14.573325 c -6.511935,0.100995 -9.072167,2.556522 -9.39311,5.639493 -0.361726,3.474736 6.017096,5.907997 9.977706,4.66153 9.434128,-2.969073 24.587268,4.35898 25.876198,9.691637 1.23828,5.12312 -2.06536,8.182235 -10.37729,13.740184 C 104.63726,53.86412 92.020316,59.196795 77.339227,62.657255 62.658139,66.117714 48.81985,67.020903 38.651259,65.818973 28.482665,64.617041 22.179551,62.150468 20.927675,57.592507 20.414409,55.723754 20.459757,53.338801 21.209887,50.795186 l 0.477603,-7.541934 c -4.648418,2.791383 -6.851113,5.13114 -9.006237,8.06895 -1.540822,2.923614 -2.075349,5.811394 -1.31959,8.563041 1.874523,6.824957 11.084213,11.035006 23.373826,12.487638 12.28961,1.452637 28.173664,1.224238 44.611838,-2.650381 C 95.785498,65.847882 110.60023,58.755632 120.64594,52.03837 130.69161,45.321115 134.37106,38.767008 132.49654,31.942049 130.622,25.117093 123.57973,19.76207 111.25312,16.814932 104.72044,15.253054 99.531459,14.531983 96.865696,14.573325 Z"
       style="opacity:0.52999998;fill:none;stroke:#000000;stroke-width:0.92157698;stroke-linecap:round;stroke-linejoin:round;stroke-dashoffset:4;stroke-opacity:0.110204"
       id="path176" />
    <path
       style="fill:url(#linearGradient1445)"
       inkscape:connector-curvature="0"
       d="m 32.246107,34.692309 c -2.450515,1.229353 -4.726153,2.527034 -6.782604,3.90212 -5.936372,3.969477 -10.416336,8.295455 -12.705407,12.579584 -1.001391,1.874161 1.38545,3.822455 1.284124,5.647248 1.999644,0.631646 1.196705,0.856897 3.464246,0.716777 1.231283,-0.07609 2.426473,-0.288992 3.575485,-0.593171 -0.931013,-4.604706 1.072302,-11.782702 9.01651,-17.094757 1.02828,-0.687583 2.144135,-1.369575 3.341532,-2.041043 -0.273454,-1.091423 -0.686021,-2.1374 -1.193886,-3.116758 z"
       id="path178" />
    <path
       style="opacity:0.93000022;fill:url(#linearGradient1199)"
       inkscape:connector-curvature="0"
       d="m 96.860253,14.4035 c -6.511936,0.100995 -9.269092,2.65377 -9.590035,5.736742 -0.361725,3.474736 6.219464,5.980573 10.180074,4.734106 9.434128,-2.969073 23.912068,3.765868 25.696328,9.590066 1.38618,4.524799 -1.89365,8.029067 -10.20559,13.587018 -8.31194,5.557949 -20.928879,10.890624 -35.609969,14.351084 -14.681087,3.46046 -28.519377,4.363649 -38.687968,3.161719 C 28.4745,64.362304 22.479021,62.131963 21.227144,57.574001 20.713877,55.705247 20.759227,53.320294 21.509357,50.77668 l -8.828104,0.545522 c -1.540822,2.923614 -2.075349,5.811394 -1.31959,8.563041 1.874523,6.824957 11.084213,11.035006 23.373826,12.487638 12.28961,1.452637 28.173664,1.224238 44.611838,-2.650381 C 95.785498,65.847882 110.60023,58.755632 120.64594,52.03837 130.69161,45.321115 134.37106,38.767008 132.49654,31.942049 130.622,25.117093 123.57428,19.592247 111.24767,16.645106 104.71501,15.083228 99.526015,14.362157 96.860253,14.4035 Z"
       id="path180" />
    <path
       style="opacity:0.55;fill:url(#v-2)"
       inkscape:connector-curvature="0"
       d="m 64.690047,28.83225 c -15.441122,3.776513 -29.54035,8.489275 -39.063229,14.85694 -6.206739,4.150262 -10.385097,4.282985 -12.648078,7.162637 -1.399686,1.781105 -2.464957,5.672138 -1.617077,9.033416 1.7256,6.858835 11.084213,11.035006 23.373826,12.487638 12.28961,1.452637 28.173664,1.224238 44.611838,-2.650381 16.438171,-3.874618 30.725883,-10.425443 40.771573,-17.142702 10.04568,-6.717254 14.14101,-12.634171 12.26648,-19.459128 -1.26135,-4.592419 -5.17425,-6.226215 -11.05567,-7.123701 1.97527,1.571804 3.10929,3.390075 3.17332,5.387339 0.0227,0.708458 -0.10018,1.427925 -0.33833,2.121341 1.09486,4.499348 -3.02222,9.061709 -11.22367,14.545783 -8.31194,5.557949 -20.928879,10.890624 -35.609969,14.351084 -14.681087,3.46046 -28.519377,4.363649 -38.687968,3.161719 C 28.4745,64.362304 22.479021,62.131963 21.227144,57.574001 c -1.251877,-4.557962 0.722685,-7.07118 9.034631,-12.629131 7.243312,-4.843389 18.932774,-9.308829 31.538203,-12.663736 0.61124,-1.193654 1.592941,-2.353909 2.890069,-3.448884 z"
       id="path182" />
    <g
       style="fill-rule:evenodd"
       id="g190">
      <path
         style="opacity:0.52049202;fill:url(#w-7)"
         inkscape:connector-curvature="0"
         d="m 42.957491,33.170436 c -9.721594,3.91872 -22.194184,10.075975 -22.105935,21.198799 0.10957,13.81025 34.765624,13.064723 54.517819,8.438531 C 62.117921,68.639416 17.4983,70.454174 16.282632,55.102311 15.438518,44.442543 34.790141,33.687648 42.957491,33.170436 Z"
         id="path184" />
      <path
         style="fill:url(#x-9)"
         inkscape:connector-curvature="0"
         d="m 94.843484,14.470729 c -2.151504,0.06538 -5.736,1.411604 -6.36692,3.120826 -0.64173,1.738507 3.190107,3.166618 5.145181,2.904757 3.75989,-0.503596 4.413704,-1.272502 5.283495,-2.716926 1.21104,-2.01112 18.52983,1.404773 18.52983,1.404773 0,0 -11.67165,-5.045282 -22.591586,-4.71343 z"
         id="path186" />
      <path
         style="opacity:0.51010102;fill:url(#y-2)"
         inkscape:connector-curvature="0"
         d="M 20.940865,42.521682 C 10.92961,51.843901 6.9347207,60.965366 24.749074,67.200567 52.072827,75.443073 91.981124,68.980427 116.94953,53.065773 92.413411,71.10464 49.275314,77.798786 22.546851,69.098095 3.5169067,62.437447 9.5169442,52.224339 20.940865,42.521682 Z"
         id="path188" />
    </g>
    <ellipse
       style="fill:url(#z-0)"
       cx="128.61722"
       cy="42.272724"
       rx="2.0961649"
       ry="4.2538428"
       transform="matrix(0.99809622,-0.06167611,0.03203892,0.99948662,0,0)"
       id="ellipse192" />
    <ellipse
       style="fill:url(#A-2)"
       cx="-13.108577"
       cy="55.475216"
       rx="2.0961649"
       ry="4.2538428"
       transform="matrix(-0.99809622,0.06167611,0.03203892,0.99948662,0,0)"
       id="ellipse194" />
    <g
       style="fill:#eb7331"
       transform="matrix(0.99823,-0.06520605,0.02721908,0.897605,22.602694,-7.62869)"
       id="g202">
      <path
         inkscape:connector-curvature="0"
         d="m 28.699643,66.421154 c -0.981394,1.079533 -3.723873,-1.159259 -5.152371,-0.862747 -1.428499,0.296512 -3.053401,3.441837 -4.383366,2.84207 -1.329965,-0.599767 -0.04822,-3.899844 -0.771649,-5.166799 -0.72343,-1.266956 -4.216935,-1.840371 -4.057504,-3.290581 0.15943,-1.45021 3.694072,-1.250977 4.675466,-2.33051 0.981394,-1.079534 0.447192,-4.57925 1.87569,-4.875762 1.428498,-0.296512 2.331281,3.126699 3.661246,3.726466 1.329964,0.599767 4.493315,-0.989762 5.216744,0.277194 0.72343,1.266955 -2.253261,3.183382 -2.412691,4.633592 -0.159431,1.45021 2.329829,3.967544 1.348435,5.047077 z"
         id="path196" />
      <path
         inkscape:connector-curvature="0"
         d="M 7.8018446,39.950608 C 7.2620779,40.441305 6.0034111,39.196675 5.2783062,39.27639 4.5532013,39.356105 3.5949876,40.844451 2.9615099,40.482736 2.3280323,40.121021 3.1227963,38.539346 2.8229128,37.874364 2.5230293,37.209381 0.8114243,36.75799 0.95968028,36.043741 1.1079363,35.329492 2.8577942,35.596593 3.3975609,35.105896 c 0.5397668,-0.490697 0.4401504,-2.258018 1.1652553,-2.337733 0.7251049,-0.07972 1.0118125,1.667037 1.6452902,2.028752 0.6334777,0.361715 2.2835164,-0.279158 2.5833999,0.385824 0.2998835,0.664983 -1.2727794,1.477434 -1.4210354,2.191683 -0.148256,0.714249 0.9711404,2.085489 0.4313737,2.576186 z"
         id="path198" />
      <path
         inkscape:connector-curvature="0"
         d="m 10.588219,92.891701 c -0.9813944,-1.226743 1.864575,-3.763067 1.791672,-5.332372 -0.0729,-1.569305 -3.1417619,-3.830851 -2.278328,-5.143297 0.863434,-1.312446 4.155075,0.610465 5.625044,0.05619 1.469969,-0.554277 2.672499,-4.171791 4.187524,-3.756185 1.515026,0.415607 0.703403,4.140356 1.684797,5.367098 0.981394,1.226743 4.793456,1.252543 4.86636,2.821848 0.0729,1.569304 -3.720349,1.948415 -4.583783,3.26086 -0.863434,1.312446 0.290021,4.945906 -1.179948,5.500183 -1.469969,0.554277 -3.002705,-2.936169 -4.51773,-3.351775 -1.515026,-0.415607 -4.614214,1.804194 -5.595608,0.577452 z"
         id="path200" />
    </g>
    <path
       style="fill:url(#B-3);fill-rule:evenodd"
       inkscape:connector-curvature="0"
       d="M 71.940323,63.588279 C 107.70692,64.31131 149.44531,30.987259 118.38476,19.439572 146.95037,34.054664 101.36951,64.689577 71.940323,63.588279 Z"
       id="path204" />
    <path
       style="opacity:0.54917997;fill:url(#C-7)"
       inkscape:connector-curvature="0"
       d="m 105.89743,21.01397 c -3.65651,-0.0079 -6.057597,1.271028 -6.281246,3.375 9.137216,-1.443516 21.338326,4.411691 23.406246,9.71875 1.03089,-0.880284 1.36551,-2.133869 0.8125,-3.65625 -1.38711,-3.818587 -7.88209,-7.891936 -14.5,-9.09375 -1.24085,-0.22534 -2.38495,-0.34149 -3.4375,-0.34375 z"
       id="path206" />
    <path
       style="opacity:0.33606603;fill:url(#D-9)"
       inkscape:connector-curvature="0"
       d="m 72.563215,44.992431 c 4.514598,-0.33584 8.411715,-1.381698 12.273604,-2.468067 l 1.787175,4.745222 c -3.660487,1.594383 -7.842043,2.255185 -12.273601,2.468069 z"
       id="path208" />
  </g>
</svg>
