<?xml version="1.0" encoding="UTF-8" standalone="no"?>
<svg
   xmlns:dc="http://purl.org/dc/elements/1.1/"
   xmlns:cc="http://creativecommons.org/ns#"
   xmlns:rdf="http://www.w3.org/1999/02/22-rdf-syntax-ns#"
   xmlns:svg="http://www.w3.org/2000/svg"
   xmlns="http://www.w3.org/2000/svg"
   xmlns:xlink="http://www.w3.org/1999/xlink"
   xmlns:sodipodi="http://sodipodi.sourceforge.net/DTD/sodipodi-0.dtd"
   xmlns:inkscape="http://www.inkscape.org/namespaces/inkscape"
   height="24"
   viewBox="0 0 6.3499999 6.3500002"
   width="24"
   version="1.1"
   id="svg197"
   sodipodi:docname="lc_dbformdelete.svg"
   inkscape:export-filename="/home/rizmut/Dokumen/Rizmut/Github/libreoffice-style-karasa-jaga/build/next/cmd/lc_dbformdelete.png"
   inkscape:export-xdpi="96"
   inkscape:export-ydpi="96"
   inkscape:version="0.92.4 (unknown)">
  <metadata
     id="metadata203">
    <rdf:RDF>
      <cc:Work
         rdf:about="">
        <dc:format>image/svg+xml</dc:format>
        <dc:type
           rdf:resource="http://purl.org/dc/dcmitype/StillImage" />
        <dc:title></dc:title>
      </cc:Work>
    </rdf:RDF>
  </metadata>
  <defs
     id="defs201">
    <radialGradient
       id="a-1"
       cx="84.903702"
       cy="-130.14005"
       gradientTransform="matrix(0.04899496,-0.04899496,0.04899496,0.04899496,27.763383,298.48358)"
       gradientUnits="userSpaceOnUse"
       r="57.039597"
       xlink:href="#b-7" />
    <linearGradient
       id="b-7">
      <stop
         offset="0"
         stop-color="#3a0b02"
         id="stop3" />
      <stop
         offset="1"
         stop-color="#a21d07"
         stop-opacity=".382353"
         id="stop5-7" />
    </linearGradient>
    <radialGradient
       id="c-1"
       cx="2.7207029"
       cy="-66.273438"
       gradientTransform="matrix(0.04899496,-0.04899496,0.04899496,0.04899496,27.763383,298.48358)"
       gradientUnits="userSpaceOnUse"
       r="57.039597"
       xlink:href="#b-7" />
    <radialGradient
       id="d-5"
       cx="51.991096"
       cy="-78.028419"
       gradientTransform="matrix(0.04899496,-0.04899496,0.04899496,0.04899496,27.763383,298.48358)"
       gradientUnits="userSpaceOnUse"
       r="57.039597"
       xlink:href="#b-7" />
    <linearGradient
       id="e-9"
       gradientTransform="scale(1.0975951,0.9110828)"
       gradientUnits="userSpaceOnUse"
       x1="26.091133"
       x2="31.500689"
       xlink:href="#f-7"
       y1="14.856744"
       y2="14.856744" />
    <linearGradient
       id="f-7">
      <stop
         offset="0"
         stop-color="#765c44"
         id="stop11" />
      <stop
         offset="1"
         stop-color="#765c44"
         stop-opacity="0"
         id="stop13" />
    </linearGradient>
    <filter
       id="g-7"
       height="1.277481"
       width="1.279832"
       x="-0.139916"
       y="-0.138741">
      <feGaussianBlur
         stdDeviation=".28784801"
         id="feGaussianBlur16" />
    </filter>
    <filter
       id="filter136"
       height="1.277481"
       width="1.279832"
       x="-0.139916"
       y="-0.138741">
      <feGaussianBlur
         stdDeviation=".28784801"
         id="feGaussianBlur134" />
    </filter>
    <linearGradient
       id="h-6"
       gradientUnits="userSpaceOnUse"
       x1="304.88663"
       x2="345.62039"
       xlink:href="#f-7"
       y1="385.86127"
       y2="384.62384" />
    <filter
       id="filter147"
       height="1.277481"
       width="1.279832"
       x="-0.139916"
       y="-0.138741">
      <feGaussianBlur
         stdDeviation=".28784801"
         id="feGaussianBlur145" />
    </filter>
    <linearGradient
       id="l-7"
       gradientUnits="userSpaceOnUse"
       spreadMethod="reflect"
       x1="88.606247"
       x2="91.575104"
       y1="13.510336"
       y2="13.510336">
      <stop
         offset="0"
         stop-color="#ff8787"
         id="stop35" />
      <stop
         offset="1"
         stop-color="#ff8787"
         stop-opacity="0"
         id="stop37-3" />
    </linearGradient>
    <filter
       id="filter154"
       height="1.277481"
       width="1.279832"
       x="-0.139916"
       y="-0.138741">
      <feGaussianBlur
         stdDeviation=".28784801"
         id="feGaussianBlur152" />
    </filter>
    <linearGradient
       id="i-6"
       gradientUnits="userSpaceOnUse"
       spreadMethod="reflect"
       x1="31.606251"
       x2="34.575108"
       y1="13.510336"
       y2="13.510336">
      <stop
         offset="0"
         stop-color="#fff"
         id="stop20" />
      <stop
         offset="1"
         stop-color="#790000"
         stop-opacity="0"
         id="stop22" />
    </linearGradient>
    <filter
       id="filter161"
       height="1.277481"
       width="1.279832"
       x="-0.139916"
       y="-0.138741">
      <feGaussianBlur
         stdDeviation=".28784801"
         id="feGaussianBlur159" />
    </filter>
    <filter
       id="filter171"
       height="1.277481"
       width="1.279832"
       x="-0.139916"
       y="-0.138741">
      <feGaussianBlur
         stdDeviation=".28784801"
         id="feGaussianBlur169" />
    </filter>
    <radialGradient
       id="j-5"
       cx="50.424522"
       cy="-81.945961"
       gradientTransform="matrix(0.04899496,-0.04899496,0.04899496,0.04899496,27.763382,298.48358)"
       gradientUnits="userSpaceOnUse"
       r="50.15279">
      <stop
         offset="0"
         stop-color="#db3424"
         id="stop25-6" />
      <stop
         offset="1"
         stop-color="#b32016"
         id="stop27-3" />
    </radialGradient>
    <linearGradient
       id="k-9"
       gradientTransform="matrix(0.04899496,-0.04899496,0.04899496,0.04899496,27.763383,298.48358)"
       gradientUnits="userSpaceOnUse"
       x1="50.06789"
       x2="59.441998"
       y1="-154.40843"
       y2="-71.617722">
      <stop
         offset="0"
         stop-color="#fff"
         id="stop30" />
      <stop
         offset="1"
         stop-color="#fcf3f3"
         stop-opacity="0"
         id="stop32" />
    </linearGradient>
    <linearGradient
       spreadMethod="reflect"
       y2="13.510336"
       x2="91.575104"
       y1="13.510336"
       x1="88.606247"
       gradientUnits="userSpaceOnUse"
       id="linearGradient196"
       xlink:href="#l-7"
       inkscape:collect="always" />
    <linearGradient
       inkscape:collect="always"
       xlink:href="#f-7"
       id="linearGradient6007"
       gradientUnits="userSpaceOnUse"
       gradientTransform="scale(1.0975951,0.9110828)"
       x1="26.091133"
       y1="14.856744"
       x2="31.500689"
       y2="14.856744" />
    <linearGradient
       inkscape:collect="always"
       xlink:href="#l-7"
       id="linearGradient6009"
       gradientUnits="userSpaceOnUse"
       x1="88.606247"
       y1="13.510336"
       x2="91.575104"
       y2="13.510336"
       spreadMethod="reflect" />
  </defs>
  <sodipodi:namedview
     pagecolor="#ffffff"
     bordercolor="#666666"
     borderopacity="1"
     objecttolerance="10"
     gridtolerance="10"
     guidetolerance="10"
     inkscape:pageopacity="0"
     inkscape:pageshadow="2"
     inkscape:window-width="1366"
     inkscape:window-height="706"
     id="namedview199"
     showgrid="true"
     inkscape:zoom="20.207786"
     inkscape:cx="9.3361889"
     inkscape:cy="12.450799"
     inkscape:window-x="0"
     inkscape:window-y="0"
     inkscape:window-maximized="1"
     inkscape:current-layer="g245">
    <inkscape:grid
       type="xygrid"
       id="grid205" />
  </sodipodi:namedview>
  <filter
     id="a">
    <feGaussianBlur
       stdDeviation="1.5999062"
       id="feGaussianBlur2" />
  </filter>
  <linearGradient
     id="b"
     gradientTransform="matrix(0.03116178,0,0,0.04506859,-0.483098,242.98515)"
     gradientUnits="userSpaceOnUse"
     x1="399.77466"
     x2="399.77466"
     y1="731.09662"
     y2="480.60214">
    <stop
       offset="0"
       stop-color="#cbcbcd"
       id="stop5" />
    <stop
       offset=".5"
       stop-color="#e0e0e2"
       id="stop7" />
    <stop
       offset="1"
       stop-color="#f2f2f2"
       id="stop9" />
  </linearGradient>
  <linearGradient
     id="c"
     gradientTransform="matrix(0.03116178,0,0,0.04506859,30.161964,334.14685)"
     gradientUnits="userSpaceOnUse"
     x1="-333.0289"
     x2="-333.0289"
     y1="-1473.6504"
     y2="-776.61371">
    <stop
       offset="0"
       stop-color="#fff"
       id="stop12" />
    <stop
       offset=".49140647"
       stop-color="#fff"
       id="stop14" />
    <stop
       offset="1"
       stop-color="#dcdcdc"
       id="stop16" />
  </linearGradient>
  <linearGradient
     id="d"
     gradientUnits="userSpaceOnUse"
     x1="20.012131"
     x2="20.012131"
     y1="281.60605"
     y2="275.44846">
    <stop
       offset="0"
       stop-color="#e8e8e8"
       id="stop19" />
    <stop
       offset=".234375"
       stop-color="#fff"
       id="stop21" />
    <stop
       offset=".69675177"
       stop-color="#ededed"
       id="stop23" />
    <stop
       offset=".90625"
       stop-color="#6c6c6c"
       id="stop25" />
    <stop
       offset="1"
       stop-color="#2b2b2b"
       id="stop27" />
  </linearGradient>
  <linearGradient
     id="e"
     gradientUnits="userSpaceOnUse"
     x1="10.775738"
     x2="12.315137"
     xlink:href="#f"
     y1="278.52725"
     y2="278.52725"
     gradientTransform="translate(3.1318854e-5,-2.3566683e-4)" />
  <linearGradient
     id="f">
    <stop
       offset="0"
       stop-color="#aaa"
       id="stop31" />
    <stop
       offset="1"
       stop-color="#aaa"
       stop-opacity="0"
       id="stop33" />
  </linearGradient>
  <linearGradient
     id="g"
     gradientUnits="userSpaceOnUse"
     x1="-30.787918"
     x2="-29.248518"
     xlink:href="#f"
     y1="278.52725"
     y2="278.52725"
     gradientTransform="translate(-3.1238115e-4,-2.3566683e-4)" />
  <linearGradient
     id="h"
     gradientTransform="matrix(0.35316395,0,0,0.33250146,-16.730027,-307.465)"
     gradientUnits="userSpaceOnUse"
     x1="101.3308"
     x2="101.3308"
     y1="51.34185"
     y2="66.668198">
    <stop
       offset="0"
       stop-color="#cbcbcd"
       id="stop37" />
    <stop
       offset=".66545075"
       stop-color="#e0e0e2"
       id="stop39" />
    <stop
       offset="1"
       stop-color="#fff"
       id="stop41" />
  </linearGradient>
  <filter
     id="i">
    <feGaussianBlur
       stdDeviation=".50622511"
       id="feGaussianBlur44" />
  </filter>
  <filter
     id="j"
     height="1.12069"
     width="1.119315"
     x="-0.059657998"
     y="-0.060345002"
     style="color-interpolation-filters:sRGB">
    <feGaussianBlur
       stdDeviation=".82504758"
       id="feGaussianBlur47" />
  </filter>
  <linearGradient
     id="k"
     gradientUnits="userSpaceOnUse"
     x1="24.78186"
     x2="24.78186"
     xlink:href="#l"
     y1="297.65903"
     y2="279.82874" />
  <linearGradient
     id="l">
    <stop
       offset="0"
       stop-color="#525252"
       id="stop51" />
    <stop
       offset="1"
       stop-color="#d8d8d8"
       id="stop53" />
  </linearGradient>
  <linearGradient
     id="m"
     gradientUnits="userSpaceOnUse"
     x1="15.8973"
     x2="32.987171"
     y1="287.61887"
     y2="287.61887">
    <stop
       offset="0"
       stop-color="#ebebeb"
       id="stop56" />
    <stop
       offset=".3164545"
       stop-color="#cacaca"
       id="stop58" />
    <stop
       offset=".58694273"
       stop-color="#c7c7c7"
       stop-opacity=".955882"
       id="stop60" />
    <stop
       offset=".84601915"
       stop-color="#cacaca"
       id="stop62" />
    <stop
       offset="1"
       stop-color="#dedede"
       id="stop64" />
  </linearGradient>
  <filter
     id="n"
     height="1.024"
     width="1.024"
     x="-0.012"
     y="-0.012"
     style="color-interpolation-filters:sRGB">
    <feGaussianBlur
       stdDeviation=".12785668"
       id="feGaussianBlur67" />
  </filter>
  <linearGradient
     id="o"
     gradientUnits="userSpaceOnUse"
     x1="24.701073"
     x2="24.733223"
     y1="281.36441"
     y2="294.21851">
    <stop
       offset="0"
       stop-color="#171a1c"
       id="stop70" />
    <stop
       offset="1"
       stop-color="#8ca0ac"
       id="stop72" />
  </linearGradient>
  <radialGradient
     id="p"
     cx="63.02887"
     cy="288.18738"
     gradientUnits="userSpaceOnUse"
     r="11.437257">
    <stop
       offset="0"
       stop-color="#7cb5fc"
       id="stop75" />
    <stop
       offset="1"
       stop-color="#0d5bab"
       id="stop77" />
  </radialGradient>
  <filter
     id="q"
     height="1.024"
     width="1.024"
     x="-0.012"
     y="-0.012"
     style="color-interpolation-filters:sRGB">
    <feGaussianBlur
       stdDeviation=".11169196"
       id="feGaussianBlur80" />
  </filter>
  <filter
     id="r"
     height="1.023839"
     width="1.024163"
     x="-0.012082"
     y="-0.01192"
     style="color-interpolation-filters:sRGB">
    <feGaussianBlur
       stdDeviation=".087289468"
       id="feGaussianBlur83" />
  </filter>
  <linearGradient
     id="s"
     gradientTransform="matrix(0.40992622,0,0,0.43732811,-1.243719,164.52807)"
     gradientUnits="userSpaceOnUse"
     x1="63.499996"
     x2="63.499996"
     y1="269.89706"
     y2="286.49451">
    <stop
       offset="0"
       stop-color="#e3f3fd"
       id="stop86" />
    <stop
       offset="1"
       stop-color="#a3d8f9"
       stop-opacity="0"
       id="stop88" />
  </linearGradient>
  <linearGradient
     id="t"
     gradientUnits="userSpaceOnUse"
     x1="24.470198"
     x2="24.669523"
     y1="278.72476"
     y2="284.19904">
    <stop
       offset="0"
       stop-color="#fcfcfc"
       id="stop91" />
    <stop
       offset="1"
       stop-color="#fcfcfc"
       stop-opacity="0"
       id="stop93" />
  </linearGradient>
  <radialGradient
     id="u"
     cx="67.73333"
     cy="277.9501"
     gradientTransform="matrix(-0.48115879,0,0,-0.48115879,54.943559,422.86662)"
     gradientUnits="userSpaceOnUse"
     r="7.5746908">
    <stop
       offset="0"
       stop-color="#bfbfbf"
       id="stop96" />
    <stop
       offset="1"
       stop-color="#dfdfdf"
       stop-opacity="0"
       id="stop98" />
  </radialGradient>
  <filter
     id="v"
     height="1.047739"
     width="1.048264"
     x="-0.024132"
     y="-0.023870001"
     style="color-interpolation-filters:sRGB">
    <feGaussianBlur
       stdDeviation=".9480859"
       id="feGaussianBlur101" />
  </filter>
  <radialGradient
     id="w"
     cx="21.273409"
     cy="276.88303"
     gradientUnits="userSpaceOnUse"
     r="6.794981">
    <stop
       offset="0"
       stop-color="#e10000"
       id="stop104" />
    <stop
       offset="1"
       stop-color="#851400"
       id="stop106" />
  </radialGradient>
  <radialGradient
     id="x"
     cx="21.273409"
     cy="276.88303"
     gradientUnits="userSpaceOnUse"
     r="6.794981">
    <stop
       offset="0"
       stop-color="#ffbfbf"
       id="stop109" />
    <stop
       offset="1"
       stop-color="#ffbfbf"
       stop-opacity="0"
       id="stop111" />
  </radialGradient>
  <linearGradient
     id="y"
     gradientUnits="userSpaceOnUse"
     x1="16.526453"
     x2="17.475842"
     xlink:href="#l"
     y1="277.83243"
     y2="281.63" />
  <radialGradient
     id="z"
     cx="17.52717"
     cy="278.68237"
     gradientUnits="userSpaceOnUse"
     r="2.4271595">
    <stop
       offset="0"
       stop-color="#e8e8e8"
       id="stop115" />
    <stop
       offset="1"
       stop-color="#c7c7c7"
       id="stop117" />
  </radialGradient>
  <filter
     id="A"
     height="1.08803"
     width="1.060909"
     x="-0.030454"
     y="-0.044015002"
     style="color-interpolation-filters:sRGB">
    <feGaussianBlur
       stdDeviation=".61981931"
       id="feGaussianBlur120" />
  </filter>
  <g
     transform="translate(0,-290.64999)"
     id="g195">
    <g
       id="g245"
       transform="matrix(0.171875,0,0,0.171875,0.5291667,245.42395)">
      <g
         id="g258"
         transform="translate(-1.539394,1.539394)">
        <path
           inkscape:connector-curvature="0"
           d="m 9.3814569,6.4002115 77.2233121,-3e-7 c 0.76597,0 1.413822,0.7286187 1.38261,1.63246 l 0.0056,22.3686248 -0.0056,42.368543 c -1.19e-4,0.90439 -0.616639,1.632491 -1.38261,1.63247 l -40.61166,-0.0011 -36.6116521,0.0011 c -0.765966,2.3e-5 -1.38249,-0.72808 -1.38261,-1.63247 l -0.00562,-42.368543 0.00562,-22.3686245 c 2.273e-4,-0.90438 0.616644,-1.63246 1.38261,-1.63246 z"
           style="opacity:0.4;fill:none;stroke:#000000;stroke-width:4;stroke-linecap:round;stroke-linejoin:round;stroke-dashoffset:4;filter:url(#a)"
           transform="matrix(0.38484968,0,0,0.38484968,-1.536797,265.28794)"
           id="path123"
           sodipodi:nodetypes="ssscsscsscss" />
        <path
           inkscape:connector-curvature="0"
           style="fill:url(#b)"
           d="M 2.0715161,267.75147 H 31.795157 c 0.294822,0 0.532174,0.28019 0.532174,0.62823 V 293.293 H 1.5393429 v -24.9133 c 0,-0.34804 0.2373492,-0.62823 0.5321732,-0.62823 z"
           id="path125"
           sodipodi:nodetypes="sssccss" />
        <path
           inkscape:connector-curvature="0"
           style="fill:url(#c)"
           d="m 2.0685125,267.75147 c -0.2948242,0 -0.5291684,0.27734 -0.5291684,0.62537 v 24.91901 c 0,0.34804 0.2343442,0.62538 0.5291684,0.62538 H 31.798163 c 0.294826,0 0.529168,-0.27734 0.529168,-0.62538 v -24.91901 c 0,-0.34803 -0.234342,-0.62537 -0.529168,-0.62537 z m 0.3607964,0.93807 H 31.437366 c 0.280083,0 0.505116,0.26273 0.505116,0.58929 v 23.66825 c 0,0.32656 -0.225033,0.58931 -0.505116,0.58931 H 2.4293089 c -0.2800827,0 -0.5051152,-0.26275 -0.5051152,-0.58931 v -23.66825 c 0,-0.32656 0.2250325,-0.58929 0.5051152,-0.58929 z"
           id="path127"
           sodipodi:nodetypes="ssssssssssssssssss" />
        <g
           transform="matrix(1.3845916,0,0,0.99998322,-11.841249,-1.5344)"
           id="g135">
          <rect
             style="fill:url(#d)"
             height="6.1576929"
             rx="1.078735"
             ry="1.539399"
             width="20.012465"
             x="10.775767"
             y="275.44809"
             id="rect129" />
          <rect
             style="fill:url(#e)"
             height="6.1575961"
             rx="1.040345"
             ry="1.539399"
             width="4.618197"
             x="10.775767"
             y="275.44818"
             id="rect131" />
          <rect
             style="fill:url(#g)"
             height="6.1575961"
             rx="0.96356899"
             ry="1.539399"
             transform="scale(-1,1)"
             width="4.6181951"
             x="-30.788233"
             y="275.44818"
             id="rect133" />
        </g>
        <rect
           style="fill-opacity:0.92485501;filter:url(#i)"
           height="12.74204"
           rx="1.9982409"
           ry="2.7470281"
           transform="matrix(0.35105195,0,0,-0.31938175,-43.618298,181.34637)"
           width="47.998806"
           x="146.29366"
           y="-344.5433"
           id="rect137" />
        <rect
           style="fill:url(#h);stroke-width:1.31099093"
           height="4.5423179"
           rx="1.0229492"
           ry="0.97844708"
           transform="scale(1,-1)"
           width="16.951447"
           x="7.687686"
           y="-290.79892"
           id="rect139" />
        <g
           aria-label="OK"
           style="font-size:4.63623619px;font-family:sans-serif;letter-spacing:0;word-spacing:0;stroke-width:0.115906"
           id="text143"
           transform="translate(0,1.539394)">
          <path
             d="m 13.358016,288.26333 q -0.445079,-0.49608 -0.445079,-1.27497 0,-0.77889 0.445079,-1.27496 0.449715,-0.49608 1.177604,-0.49608 0.732525,0 1.18224,0.49608 0.449715,0.49144 0.449715,1.29814 0,0.75107 -0.445079,1.25179 -0.440442,0.49607 -1.18224,0.49607 -0.737162,0 -1.18224,-0.49607 z m 1.18224,-2.45257 q -0.421898,0 -0.676891,0.32453 -0.254993,0.31991 -0.254993,0.85307 0,0.53317 0.254993,0.85771 0.254993,0.3199 0.676891,0.3199 0.417261,0 0.672254,-0.3199 0.259629,-0.3199 0.259629,-0.83916 0,-0.54708 -0.254993,-0.87162 -0.250356,-0.32453 -0.67689,-0.32453 z"
             style="font-weight:600;font-family:FreeSans;stroke-width:0.115906"
             id="path345"
             inkscape:connector-curvature="0" />
          <path
             d="m 17.415881,287.52153 v 1.13124 h -0.695435 v -3.37982 h 0.695435 v 1.4836 l 1.321328,-1.4836 h 0.820614 l -1.349145,1.45578 1.492868,1.92404 H 18.87166 l -1.108061,-1.49287 z"
             style="font-weight:600;font-family:FreeSans;stroke-width:0.115906"
             id="path347"
             inkscape:connector-curvature="0" />
        </g>
      </g>
      <g
         transform="matrix(1.0855445,1.0855445,-1.0855445,1.0855445,314.71418,-72.80394)"
         id="g84">
        <path
           style="fill:url(#a-1)"
           inkscape:connector-curvature="0"
           d="m 24.529657,285.13245 c -0.26354,-1e-5 -0.477184,0.21364 -0.477176,0.47718 v 4.22195 h -4.222095 c -0.263541,0 -0.477184,0.21364 -0.477177,0.47718 l 1e-6,1.68933 c -8e-6,0.26354 0.213636,0.47719 0.477176,0.47718 h 4.222095 v 4.22196 c -8e-6,0.26354 0.213636,0.47718 0.477176,0.47717 h 1.689334 c 0.263541,1e-5 0.477184,-0.21363 0.477176,-0.47717 v -4.22196 h 4.22196 c 0.26354,10e-6 0.477184,-0.21364 0.477176,-0.47718 v -1.68933 c 8e-6,-0.26354 -0.213636,-0.47718 -0.477176,-0.47718 h -4.22196 v -4.22195 c 8e-6,-0.26354 -0.213636,-0.47719 -0.477177,-0.47718 z"
           id="path56" />
        <path
           style="fill:url(#c-1)"
           inkscape:connector-curvature="0"
           d="m 24.529657,285.13245 c -0.26354,-1e-5 -0.477184,0.21364 -0.477176,0.47718 v 4.22195 h -4.222095 c -0.263541,0 -0.477184,0.21364 -0.477177,0.47718 l 1e-6,1.68933 c -8e-6,0.26354 0.213636,0.47719 0.477176,0.47718 h 4.222095 v 4.22196 c -8e-6,0.26354 0.213636,0.47718 0.477176,0.47717 h 1.689334 c 0.263541,1e-5 0.477184,-0.21363 0.477176,-0.47717 v -4.22196 h 4.22196 c 0.26354,10e-6 0.477184,-0.21364 0.477176,-0.47718 v -1.68933 c 8e-6,-0.26354 -0.213636,-0.47718 -0.477176,-0.47718 h -4.22196 v -4.22195 c 8e-6,-0.26354 -0.213636,-0.47719 -0.477177,-0.47718 z"
           id="path58" />
        <path
           style="fill:url(#d-5)"
           inkscape:connector-curvature="0"
           d="m 24.529657,285.13245 c -0.26354,-1e-5 -0.477184,0.21364 -0.477176,0.47718 v 4.22195 h -4.222095 c -0.263541,0 -0.477184,0.21364 -0.477177,0.47718 l 1e-6,1.68933 c -8e-6,0.26354 0.213636,0.47719 0.477176,0.47718 h 4.222095 v 4.22196 c -8e-6,0.26354 0.213636,0.47718 0.477176,0.47717 h 1.689334 c 0.263541,1e-5 0.477184,-0.21363 0.477176,-0.47717 v -4.22196 h 4.22196 c 0.26354,10e-6 0.477184,-0.21364 0.477176,-0.47718 v -1.68933 c 8e-6,-0.26354 -0.213636,-0.47718 -0.477176,-0.47718 h -4.22196 v -4.22195 c 8e-6,-0.26354 -0.213636,-0.47719 -0.477177,-0.47718 z"
           id="path60" />
        <path
           style="fill:#56331f;fill-opacity:0.90588199"
           inkscape:connector-curvature="0"
           d="m 24.529657,285.13245 c -0.26354,-1e-5 -0.477184,0.21364 -0.477176,0.47718 v 4.22195 h -4.222095 c -0.263541,0 -0.477184,0.21364 -0.477177,0.47718 l 1e-6,1.68933 c -8e-6,0.26354 0.213636,0.47719 0.477176,0.47718 h 4.222095 v 4.22196 c -8e-6,0.26354 0.213636,0.47718 0.477176,0.47717 h 1.689334 c 0.263541,1e-5 0.477184,-0.21363 0.477176,-0.47717 v -4.22196 h 4.22196 c 0.26354,10e-6 0.477184,-0.21364 0.477176,-0.47718 v -1.68933 c 8e-6,-0.26354 -0.213636,-0.47718 -0.477176,-0.47718 h -4.22196 v -4.22195 c 8e-6,-0.26354 -0.213636,-0.47719 -0.477177,-0.47718 z"
           id="path62" />
        <g
           style="fill-rule:evenodd"
           id="g76">
          <path
             style="opacity:0.498127;fill:url(#linearGradient6007);filter:url(#g-7)"
             inkscape:connector-curvature="0"
             d="m 31.7,16 2.875,-3.375 c -1.051205,-1.695758 -3.935136,-2.288018 -5.9375,-0.3125 l 2.8125,3.375 z"
             transform="matrix(0.1033455,0.1033455,0.10433789,-0.10433789,19.918099,294.97177)"
             id="path64" />
          <path
             style="opacity:0.79026196;fill:url(#e-9);filter:url(#g-7)"
             inkscape:connector-curvature="0"
             d="m 31.7,16 2.875,-3.375 c -1.051205,-1.695758 -3.935136,-2.288018 -5.9375,-0.3125 l 2.8125,3.375 z"
             transform="matrix(-0.10304201,0.10304201,-0.10206195,-0.10206195,35.578528,290.16173)"
             id="path66" />
          <path
             style="opacity:0.498127;fill:url(#h-6);filter:url(#g-7)"
             inkscape:connector-curvature="0"
             d="m 31.7,16 2.875,-3.375 c -1.051205,-1.695758 -3.935136,-2.288018 -5.9375,-0.3125 l 2.8125,3.375 z"
             transform="matrix(0.09358445,0.09358445,-0.09448311,0.09448311,29.31017,286.13876)"
             id="path68" />
          <path
             style="opacity:0.79026196;fill:url(#linearGradient6009);filter:url(#g-7)"
             inkscape:connector-curvature="0"
             d="m 88.7,16 2.875,-3.375 c -1.051205,-1.695758 -3.935136,-2.288018 -5.9375,-0.3125 l 2.8125,3.375 z"
             transform="matrix(-0.09448311,0.09448311,-0.09358445,-0.09358445,35.976992,289.69398)"
             id="path70" />
          <path
             style="opacity:0.79026196;fill:url(#i-6);filter:url(#g-7)"
             inkscape:connector-curvature="0"
             d="m 31.7,16 2.875,-3.375 c -1.051205,-1.695758 -3.935136,-2.288018 -5.9375,-0.3125 l 2.8125,3.375 z"
             transform="matrix(-0.08592421,0.08592421,0.08510696,0.08510696,25.942432,281.62392)"
             id="path72" />
          <path
             style="opacity:0.79026196;fill:url(#linearGradient196);filter:url(#g-7)"
             inkscape:connector-curvature="0"
             d="m 88.7,16 2.875,-3.375 c -1.051205,-1.695758 -3.935136,-2.288018 -5.9375,-0.3125 l 2.8125,3.375 z"
             transform="matrix(-0.0882146,0.0882146,0.08737557,0.08737557,26.377026,281.20605)"
             id="path74" />
        </g>
        <path
           style="fill:url(#j-5)"
           inkscape:connector-curvature="0"
           d="m 24.529657,285.60963 v 4.69913 h -4.699271 v 1.68933 h 4.699271 v 4.69914 h 1.689334 v -4.69914 h 4.699136 v -1.68933 h -4.699136 l -10e-7,-4.69913 z"
           id="path78" />
        <path
           style="fill:#f4caca;fill-opacity:0.77941176"
           inkscape:connector-curvature="0"
           d="m 19.8304,290.30869 -1e-6,1.68937 h 4.699316 l -6.9e-5,4.69922 h 1.68937 v -4.69912 h 4.699124 v -1.68937 h -4.699124 l -1e-6,-4.69912 h -1.689368 v 4.69912 z m 0.12,0.12 4.57922,10e-5 c 0.06628,1e-5 0.120006,-0.0537 0.119999,-0.12 v -4.57912 h 1.44937 v 4.57912 c -6e-6,0.0663 0.05372,0.12001 0.12,0.12 h 4.579124 v 1.44937 h -4.579124 c -0.06628,-10e-6 -0.120006,0.0537 -0.12,0.12 v 4.57912 h -1.44937 l 6.9e-5,-4.57921 c 6e-6,-0.0663 -0.05372,-0.12001 -0.12,-0.12 h -4.579315 z"
           id="path80" />
        <path
           style="fill:url(#k-9);fill-rule:evenodd"
           inkscape:connector-curvature="0"
           d="m 19.8304,290.30869 -1e-6,1.68937 h 4.699316 v 0.96754 c 0.63875,-0.89522 1.64386,-2.06887 1.87767,-2.65634 l -0.188396,-4.7e-4 -1e-6,-4.69912 H 24.52962 v 4.69912 z"
           id="path82" />
      </g>
    </g>
  </g>
</svg>
