<?xml version="1.0" encoding="UTF-8" standalone="no"?>
<svg
   xmlns:dc="http://purl.org/dc/elements/1.1/"
   xmlns:cc="http://creativecommons.org/ns#"
   xmlns:rdf="http://www.w3.org/1999/02/22-rdf-syntax-ns#"
   xmlns:svg="http://www.w3.org/2000/svg"
   xmlns="http://www.w3.org/2000/svg"
   xmlns:xlink="http://www.w3.org/1999/xlink"
   xmlns:sodipodi="http://sodipodi.sourceforge.net/DTD/sodipodi-0.dtd"
   xmlns:inkscape="http://www.inkscape.org/namespaces/inkscape"
   enable-background="new 0 0 128 128"
   height="128"
   viewBox="0 0 128 128"
   width="128"
   version="1.1"
   id="svg3195"
   sodipodi:docname="lc_exporttopdf.svg"
   inkscape:version="0.92.3 (unknown)"
   inkscape:export-filename="/home/rizmut/Dokumen/Rizmut/Github/libreoffice-style-karasa-jaga/build/next/cmd/lc_exporttopdf.png"
   inkscape:export-xdpi="18"
   inkscape:export-ydpi="18">
  <metadata
     id="metadata3201">
    <rdf:RDF>
      <cc:Work
         rdf:about="">
        <dc:format>image/svg+xml</dc:format>
        <dc:type
           rdf:resource="http://purl.org/dc/dcmitype/StillImage" />
        <dc:title />
      </cc:Work>
    </rdf:RDF>
  </metadata>
  <defs
     id="defs3199">
    <linearGradient
       inkscape:collect="always"
       xlink:href="#linearGradient6111"
       id="linearGradient1248"
       x1="11.433537"
       y1="66.573135"
       x2="139.6344"
       y2="139.6362"
       gradientUnits="userSpaceOnUse"
       gradientTransform="matrix(0.91666666,0,0,0.91666666,18.377698,6.7490445)" />
    <linearGradient
       id="linearGradient6111">
      <stop
         style="stop-color:#9c0f0f;stop-opacity:1;"
         offset="0"
         id="stop6113" />
      <stop
         id="stop7088"
         offset="0.5"
         style="stop-color:#e81919;stop-opacity:1;" />
      <stop
         style="stop-color:#cd1313;stop-opacity:1;"
         offset="1"
         id="stop6115" />
    </linearGradient>
    <filter
       inkscape:collect="always"
       style="color-interpolation-filters:sRGB"
       id="filter1089"
       x="-0.065198183"
       width="1.1303964"
       y="-0.055546355"
       height="1.1110927">
      <feGaussianBlur
         inkscape:collect="always"
         stdDeviation="2.8200964"
         id="feGaussianBlur1091" />
    </filter>
  </defs>
  <sodipodi:namedview
     pagecolor="#ffffff"
     bordercolor="#666666"
     borderopacity="1"
     objecttolerance="10"
     gridtolerance="10"
     guidetolerance="10"
     inkscape:pageopacity="0"
     inkscape:pageshadow="2"
     inkscape:window-width="1366"
     inkscape:window-height="706"
     id="namedview3197"
     showgrid="true"
     inkscape:zoom="2.6295533"
     inkscape:cx="1.0852425"
     inkscape:cy="103.21125"
     inkscape:window-x="0"
     inkscape:window-y="0"
     inkscape:window-maximized="1"
     inkscape:current-layer="g3216"
     inkscape:snap-global="true">
    <inkscape:grid
       type="xygrid"
       id="grid3203"
       spacingx="5.33333"
       spacingy="5.33333" />
  </sodipodi:namedview>
  <linearGradient
     id="a"
     gradientUnits="userSpaceOnUse"
     x1="88.591797"
     x2="71.262016"
     y1="96.592697"
     y2="79.262917">
    <stop
       offset="0"
       stop-color="#fff"
       id="stop3097" />
    <stop
       offset="1"
       stop-color="#555753"
       id="stop3099" />
  </linearGradient>
  <linearGradient
     id="b"
     gradientUnits="userSpaceOnUse"
     x1="85.219681"
     x2="61.336319"
     y1="93.219681"
     y2="69.336319">
    <stop
       offset="0"
       id="stop3102" />
    <stop
       offset="1"
       stop-color="#393b38"
       id="stop3104" />
  </linearGradient>
  <linearGradient
     id="c"
     gradientUnits="userSpaceOnUse"
     x1="96"
     x2="88.0002"
     y1="104"
     y2="96.0002">
    <stop
       offset="0"
       stop-color="#888a85"
       id="stop3107" />
    <stop
       offset=".0072"
       stop-color="#8c8e89"
       id="stop3109" />
    <stop
       offset=".0673"
       stop-color="#abaca9"
       id="stop3111" />
    <stop
       offset=".1347"
       stop-color="#c5c6c4"
       id="stop3113" />
    <stop
       offset=".2115"
       stop-color="#dbdbda"
       id="stop3115" />
    <stop
       offset=".3012"
       stop-color="#ebebeb"
       id="stop3117" />
    <stop
       offset=".4122"
       stop-color="#f7f7f6"
       id="stop3119" />
    <stop
       offset=".5679"
       stop-color="#fdfdfd"
       id="stop3121" />
    <stop
       offset="1"
       stop-color="#fff"
       id="stop3123" />
  </linearGradient>
  <radialGradient
     id="d"
     cx="102"
     cy="112.3047"
     gradientTransform="matrix(0.94807,0,0,0.9510679,3.32352,5.274458)"
     gradientUnits="userSpaceOnUse"
     r="139.55859">
    <stop
       offset="0"
       stop-color="#535557"
       id="stop3126" />
    <stop
       offset=".11366145"
       stop-color="#898a8c"
       id="stop3128" />
    <stop
       offset=".20296688"
       stop-color="#ececec"
       id="stop3130" />
    <stop
       offset=".2363"
       stop-color="#fafafa"
       id="stop3132" />
    <stop
       offset=".2722"
       stop-color="#fff"
       id="stop3134" />
    <stop
       offset=".5313"
       stop-color="#fafafa"
       id="stop3136" />
    <stop
       offset=".8449"
       stop-color="#ebecec"
       id="stop3138" />
    <stop
       offset="1"
       stop-color="#e1e2e3"
       id="stop3140" />
  </radialGradient>
  <radialGradient
     id="e"
     cx="100.8098464"
     cy="112.93460525694"
     gradientUnits="userSpaceOnUse"
     r="135.1875556917">
    <stop
       offset="0"
       stop-color="#3e3e3e"
       id="stop3143" />
    <stop
       offset=".0151"
       stop-color="#505050"
       id="stop3145" />
    <stop
       offset=".0558"
       stop-color="#7e7e7e"
       id="stop3147" />
    <stop
       offset=".1357"
       stop-color="#c6c6c6"
       id="stop3149" />
    <stop
       offset=".20990001"
       stop-color="#f1f1f1"
       id="stop3151" />
    <stop
       offset=".24349999"
       stop-color="#fcfcfc"
       id="stop3153" />
    <stop
       offset=".2722"
       stop-color="#fff"
       id="stop3155" />
  </radialGradient>
  <filter
     id="f">
    <feGaussianBlur
       stdDeviation="1.0394514"
       id="feGaussianBlur3158" />
  </filter>
  <filter
     id="g">
    <feGaussianBlur
       stdDeviation=".50063244"
       id="feGaussianBlur3161" />
  </filter>
  <filter
     id="h">
    <feGaussianBlur
       stdDeviation=".40750996"
       id="feGaussianBlur3164" />
  </filter>
  <filter
     id="i">
    <feGaussianBlur
       stdDeviation=".4901192"
       id="feGaussianBlur3167" />
  </filter>
  <filter
     id="j">
    <feGaussianBlur
       stdDeviation=".90565481"
       id="feGaussianBlur3170" />
  </filter>
  <g
     id="g3216"
     transform="matrix(1.0909091,0,0,1.0909091,-8.412198,-7.3625901)">
    <g
       id="g889">
      <g
         id="g650">
        <path
           inkscape:connector-curvature="0"
           id="path4253"
           d="m 18.193185,4.6471269 0,122.2660431 h 66.498509 c 0.53,0 1.039,-0.211 1.414,-0.586 L 123.34072,89.094563 c 0.375,-0.375 0.586,-0.884 0.586,-1.414 l -0.0228,-83.0334361 z"
           style="opacity:0.68000034;fill:#530000;fill-opacity:1;filter:url(#filter1089)"
           transform="matrix(0.92495507,0,0,0.91966966,0.66107428,7.3641784)"
           sodipodi:nodetypes="cccccccc" />
        <path
           id="path3177"
           transform="matrix(1.0090419,0,0,1.003276,-7.641977,0.929762)"
           d="m 29.750812,15.546194 -1.1e-5,102.331376 53.830924,-1e-4 c 0.53,0 1.039,-0.211 1.414,-0.586 L 116.494,88.511156 c 0.375,-0.375 0.586,-0.884 0.586,-1.414 l 0.0812,-71.550962 z"
           inkscape:connector-curvature="0"
           style="opacity:0.89589;filter:url(#g)"
           sodipodi:nodetypes="cccccccc" />
        <path
           id="path3181"
           d="m 22.377839,16.526886 0,102.666604 h 54.36722 c 0.513401,0 1.006458,-0.20439 1.369714,-0.56765 L 109.929,89.821411 c 0.36326,-0.363255 0.56764,-0.856313 0.56764,-1.369714 l 0.0819,-71.924811 z"
           style="fill:#c15e5e;fill-opacity:0.98823529"
           inkscape:connector-curvature="0"
           sodipodi:nodetypes="ccsccccc" />
      </g>
      <path
         inkscape:connector-curvature="0"
         sodipodi:nodetypes="cccccccccccc"
         id="path59"
         d="m 28.180905,21.41576 c -0.478854,0 -0.91418,0.402338 -0.91418,0.882707 l -4e-6,91.134303 c 0,0.48125 0.390211,0.87183 0.869064,0.87183 l 49.295808,-0.0436 c 0.228564,0 0.452782,-0.0924 0.614427,-0.25545 L 105.4176,88.124109 c 0.16252,-0.16303 0.25463,-0.387084 0.25463,-0.616372 L 105.4889,22.287584 c 0,-0.480369 -0.38934,-0.871812 -0.86906,-0.871812 H 28.180905 Z"
         style="fill:url(#linearGradient1248);fill-opacity:1;stroke-width:0.91666669" />
      <g
         transform="matrix(1.1080161,0,0,1.1080161,-12.744784,-10.01667)"
         id="g3193">
        <path
           sodipodi:nodetypes="sssss"
           inkscape:connector-curvature="0"
           style="opacity:0.75068497;fill:url(#a);filter:url(#h)"
           d="m 111.52523,88.365747 c 0.26305,-0.236238 -24.821717,-1.141063 -29.856717,-1.141063 -1.654,0 -3,1.346 -3,3 0,5.035 1.211722,26.561276 1.474766,26.325036 z"
           id="path3185" />
        <path
           sodipodi:nodetypes="sssss"
           style="opacity:0.2;filter:url(#j)"
           inkscape:connector-curvature="0"
           d="m 111.52523,88.365747 c 0.39457,-0.354357 -20.412717,-0.141063 -29.856717,-0.141063 -1.103,0 -2,0.897 -2,2 0,9.444 0.0802,26.679386 0.474766,26.325036 z"
           id="path3187" />
        <path
           sodipodi:nodetypes="sssss"
           inkscape:connector-curvature="0"
           style="opacity:0.1;fill:url(#b);filter:url(#i)"
           d="m 111.52523,88.365747 c 0.25147,-0.225842 -20.049717,0.858937 -29.856717,0.858937 -0.553,0 -1,0.447 -1,1 0,9.806996 -0.776705,26.550876 -0.525234,26.325036 z"
           id="path3189" />
        <path
           sodipodi:nodetypes="cccc"
           inkscape:connector-curvature="0"
           style="fill:url(#c)"
           d="M 81.278898,116.44678 111.33835,89.585303 81.390132,90.03024 Z"
           id="path3191" />
      </g>
      <g
         transform="translate(1.4237531,-1.2233729)"
         id="g1702">
        <path
           style="fill:#b14646;fill-opacity:1;stroke-width:1.43210208"
           d="m 67.46054,17.749041 c 0.882775,5.065894 3.07618,11.242601 5.917155,18.333333 l -0.601563,2.216472 c -1.520968,5.613025 -3.590933,11.274462 -5.406901,16.295897 -7.499618,20.694923 -13.91188,32.15647 -18.970703,33.53532 l -0.04834,-0.209473 c -0.414959,-2.4123 3.278628,-9.229702 8.720866,-14.962077 0.56801,-0.591983 2.936198,-3.543132 2.936197,-3.543132 0,0 -3.401401,2.383841 -4.157226,2.980957 -7.029802,5.491475 -10.243678,10.511879 -10.482585,13.608562 -0.07046,0.919967 0.188252,2.007382 1.034832,2.36149 l 2.06787,0.735841 c 5.618953,1.989166 11.246376,-5.791236 17.996746,-22.041179 8.436687,-3.988508 19.071941,-8.082038 28.88216,-10.80485 4.600087,1.919238 9.410232,3.167044 13.604982,3.790202 v -3.185059 c -2.40916,-0.516254 -4.99424,-1.211023 -7.65918,-2.126953 2.77547,-0.651262 5.3368,-1.139196 7.65918,-1.475261 v -2.664062 c -3.5282,0.454713 -7.59681,1.279569 -11.97933,2.476074 -2.371298,-0.996426 -4.884024,-2.100261 -6.950196,-3.600422 -5.24213,-3.801234 -9.937869,-9.405172 -13.232585,-15.930665 0.08525,-0.674868 0.166589,-1.333647 0.230957,-1.998046 0.297057,-3.141949 -0.479817,-13.30599 -0.479817,-13.30599 0,0 -0.98098,7.831573 -1.142253,9.014485 -0.103739,0.751089 -0.252977,1.557186 -0.431478,2.399089 -1.792646,-4.226802 -3.047954,-8.399467 -3.68994,-11.900553 z m 8.15511,22.028646 c 3.230679,4.875795 7.411806,9.370594 12.577311,12.745605 1.152146,0.752134 2.362302,1.44877 3.600424,2.094726 -8.286125,2.639395 -16.918512,5.97495 -24.764323,10.482585 1.163756,-2.849642 2.421613,-5.951338 3.689941,-9.286621 2.45032,-6.479944 3.811189,-11.415874 4.896647,-16.036295 z"
           id="path1318"
           inkscape:connector-curvature="0" />
        <path
           style="fill:#f6dcdc;fill-opacity:1;stroke-width:1.43210208"
           d="m 61.548756,22.463071 c -0.148382,-0.0033 -0.300903,0.0068 -0.456543,0.02865 l -0.202311,0.02506 -1.113607,0.121744 c -1.822754,0.22782 -3.415665,1.336321 -3.643392,2.861003 -0.825152,5.84364 1.981854,14.369645 6.201823,24.902181 L 61.731373,52.61818 C 60.210405,58.231203 58.14223,63.89264 56.326263,68.914076 48.826644,89.609008 42.414383,101.07055 37.35556,102.4494 l -0.05013,-0.20947 c -0.41496,-2.412309 3.278627,-9.22971 8.720865,-14.962085 0.56801,-0.591983 2.937989,-3.543131 2.937989,-3.543131 0,0 -3.401402,2.38384 -4.157227,2.980957 -7.029802,5.491475 -10.243678,10.513668 -10.482585,13.610349 -0.07046,0.91997 0.188252,2.00559 1.034832,2.3597 l 2.06608,0.73585 c 5.618952,1.98916 11.248165,-5.791252 17.998535,-22.041185 8.436688,-3.988509 19.071942,-8.082039 28.882161,-10.804851 9.584928,3.999004 20.15049,5.152901 23.96045,3.607585 0.23593,-0.09502 0.46617,-0.240994 0.6875,-0.402832 v -2.112631 c -2.71249,1.225626 -10.490047,0.208527 -18.702149,-2.613932 6.896461,-1.618246 12.717679,-2.377596 15.953939,-1.770671 1.26349,0.236346 2.12156,0.523564 2.74821,0.814616 v -2.393717 c -1.6953,-1.1906 -5.33229,-1.451823 -10.156739,-0.913086 -3.716214,0.422446 -8.122987,1.304314 -12.86735,2.59961 -2.371297,-0.996426 -4.882233,-2.100262 -6.948405,-3.600424 -5.24213,-3.801232 -9.93787,-9.40517 -13.232585,-15.930664 0.08525,-0.674868 0.164798,-1.333646 0.229167,-1.998046 0.297055,-3.141948 -0.478027,-13.30599 -0.478027,-13.30599 0,0 -0.98098,7.831573 -1.142253,9.014486 -0.103739,0.751089 -0.252977,1.557185 -0.431478,2.399089 -2.132248,-5.027532 -3.51906,-9.990654 -3.997884,-13.821615 -0.135525,-1.084316 -0.304566,-3.198983 -0.205891,-4.903809 3.42e-4,-1.207012 0.35516,-1.878238 0.764485,-2.232585 0.910086,0.104629 2.066328,1.335232 3.381999,3.475098 1.13145,1.850017 1.360348,4.129393 1.536132,5.535807 0,0 0.514365,-3.600426 0.0376,-5.630696 -0.269802,-1.142668 -1.668319,-3.879039 -3.894043,-3.92806 z m 3.023925,31.633952 c 3.230679,4.875795 7.410016,9.370594 12.575521,12.745605 1.152147,0.752134 2.364093,1.44877 3.602214,2.094726 -8.286125,2.639395 -16.920301,5.97495 -24.766113,10.482585 1.163756,-2.849642 2.423404,-5.951339 3.691731,-9.286622 2.450321,-6.479944 3.811189,-11.415873 4.896647,-16.036294 z"
           id="path16"
           inkscape:connector-curvature="0" />
      </g>
    </g>
  </g>
</svg>
