<?xml version="1.0" encoding="UTF-8" standalone="no"?>
<svg
   xmlns:dc="http://purl.org/dc/elements/1.1/"
   xmlns:cc="http://creativecommons.org/ns#"
   xmlns:rdf="http://www.w3.org/1999/02/22-rdf-syntax-ns#"
   xmlns:svg="http://www.w3.org/2000/svg"
   xmlns="http://www.w3.org/2000/svg"
   xmlns:xlink="http://www.w3.org/1999/xlink"
   xmlns:sodipodi="http://sodipodi.sourceforge.net/DTD/sodipodi-0.dtd"
   xmlns:inkscape="http://www.inkscape.org/namespaces/inkscape"
   enable-background="new 0 0 128 128"
   height="24"
   viewBox="0 0 24 24"
   width="24"
   version="1.1"
   id="svg176"
   sodipodi:docname="lc_editstyle.svg"
   inkscape:version="0.92.4 (unknown)"
   inkscape:export-filename="/home/rizmut/Dokumen/Rizmut/Github/libreoffice-style-karasa-jaga/build/next/cmd/lc_editstyle.png"
   inkscape:export-xdpi="96"
   inkscape:export-ydpi="96">
  <metadata
     id="metadata182">
    <rdf:RDF>
      <cc:Work
         rdf:about="">
        <dc:format>image/svg+xml</dc:format>
        <dc:type
           rdf:resource="http://purl.org/dc/dcmitype/StillImage" />
        <dc:title></dc:title>
      </cc:Work>
    </rdf:RDF>
  </metadata>
  <defs
     id="defs180">
    <linearGradient
       id="a-3"
       gradientTransform="matrix(1.3755238,0,0,1.8570645,-21.763731,-96.765704)"
       gradientUnits="userSpaceOnUse"
       x1="59.925762"
       x2="100.4067"
       y1="101.12862"
       y2="77.702431">
      <stop
         offset="0"
         id="stop2-6" />
      <stop
         offset="1"
         stop-opacity="0"
         id="stop4-7" />
    </linearGradient>
    <filter
       id="b-5">
      <feGaussianBlur
         stdDeviation=".6715998"
         id="feGaussianBlur7-3" />
    </filter>
    <radialGradient
       id="c-5"
       cx="42.617531"
       cy="120.64188"
       gradientTransform="matrix(1.909059,1.8392116,-8.6222515,7.5766472,1009.8522,-881.36145)"
       gradientUnits="userSpaceOnUse"
       r="3.406888">
      <stop
         offset="0"
         stop-color="#b4942a"
         id="stop10-6" />
      <stop
         offset="1"
         stop-color="#e4dcc9"
         id="stop12-2" />
    </radialGradient>
    <linearGradient
       id="d-9"
       gradientTransform="matrix(0.9986497,0,0,0.9998891,0.14044,0.005323)"
       gradientUnits="userSpaceOnUse"
       x1="75.848022"
       x2="81.452583"
       y1="72.804123"
       y2="77.047241">
      <stop
         offset="0"
         stop-color="#252525"
         id="stop15-1" />
      <stop
         offset=".5"
         stop-color="#252525"
         id="stop17-2" />
      <stop
         offset=".75"
         stop-color="#252525"
         id="stop19" />
      <stop
         offset="1"
         id="stop21-7" />
    </linearGradient>
    <linearGradient
       id="e-0"
       gradientTransform="matrix(0.9986497,0,0,0.9998891,0.14044,0.005323)"
       gradientUnits="userSpaceOnUse"
       x1="76.708534"
       x2="80.579521"
       y1="83.325729"
       y2="87.154587">
      <stop
         offset="0"
         stop-color="#d4a100"
         stop-opacity=".976471"
         id="stop24" />
      <stop
         offset="1"
         stop-color="#ffc712"
         id="stop26" />
    </linearGradient>
    <linearGradient
       id="f-9"
       gradientTransform="matrix(1.2875994,1.1737414,-0.5465891,0.6213041,81.686465,27.89447)"
       gradientUnits="userSpaceOnUse"
       x1="11.326384"
       x2="14.493531"
       y1="57.383999"
       y2="57.383999">
      <stop
         offset="0"
         stop-color="#9a7600"
         id="stop29" />
      <stop
         offset=".09292036"
         stop-color="#e3ad00"
         id="stop31" />
      <stop
         offset=".5043171"
         stop-color="#ffcd2c"
         id="stop33-3" />
      <stop
         offset=".91571385"
         stop-color="#e3ad00"
         id="stop35-6" />
      <stop
         offset="1"
         stop-color="#b98d00"
         id="stop37" />
    </linearGradient>
    <linearGradient
       id="g-0"
       gradientTransform="matrix(0.9992082,0,0,0.9993395,0.108362,-0.090375)"
       gradientUnits="userSpaceOnUse"
       x1="114.92793"
       x2="100.65602"
       y1="-22.560064"
       y2="-22.052734">
      <stop
         offset="0"
         stop-color="#980000"
         id="stop40-6" />
      <stop
         offset="1"
         stop-color="#db5c5c"
         id="stop42" />
    </linearGradient>
    <linearGradient
       id="h-2"
       gradientUnits="userSpaceOnUse"
       x1="-12.817558"
       x2="82.172836"
       y1="7.4622769"
       y2="7.4622769">
      <stop
         offset="0"
         stop-color="#fff"
         stop-opacity=".683453"
         id="stop45" />
      <stop
         offset="1"
         stop-color="#fff"
         stop-opacity="0"
         id="stop47-6" />
    </linearGradient>
    <filter
       id="i-1">
      <feGaussianBlur
         stdDeviation=".31468463"
         id="feGaussianBlur50" />
    </filter>
    <radialGradient
       id="j-8"
       cx="34.677639"
       cy="7.4622769"
       gradientTransform="matrix(-1.5103,0.00264127,-1.1671e-4,-0.00911022,87.0522,7.438666)"
       gradientUnits="userSpaceOnUse"
       r="47.595196"
       xlink:href="#k-7" />
    <linearGradient
       id="k-7">
      <stop
         offset="0"
         stop-color="#fff"
         id="stop54-9" />
      <stop
         offset="1"
         stop-color="#fff"
         stop-opacity="0"
         id="stop56" />
    </linearGradient>
    <linearGradient
       id="l-2"
       gradientTransform="matrix(0.6182226,0,0,0.6232687,24.10803,47.993844)"
       gradientUnits="userSpaceOnUse"
       x1="33.342377"
       x2="24.450998"
       y1="117.83894"
       y2="107.35519">
      <stop
         offset="0"
         id="stop59-0" />
      <stop
         offset="1"
         stop-color="#515151"
         id="stop61" />
    </linearGradient>
    <linearGradient
       id="m-2"
       gradientTransform="matrix(1.6732108,1.5189394,-1.5009523,1.6928488,18.675678,-24.465565)"
       gradientUnits="userSpaceOnUse"
       x1="48.498562"
       x2="48.732723"
       xlink:href="#k-7"
       y1="0.81150502"
       y2="2.3657269" />
    <linearGradient
       id="n-3"
       gradientTransform="matrix(0.9973012,0,0,0.9997782,0.28069,0.010646)"
       gradientUnits="userSpaceOnUse"
       x1="92.226158"
       x2="96.579895"
       y1="54.119438"
       y2="57.15118">
      <stop
         offset="0"
         stop-color="#ea3838"
         id="stop65" />
      <stop
         offset="1"
         stop-color="#c40000"
         id="stop67" />
    </linearGradient>
    <radialGradient
       id="o-7"
       cx="49.011971"
       cy="2.6743081"
       gradientTransform="matrix(2.2600183,0,0,0.2752449,-2.259041,-25.415382)"
       gradientUnits="userSpaceOnUse"
       r="1.724619"
       xlink:href="#p-5" />
    <linearGradient
       id="p-5">
      <stop
         offset="0"
         stop-color="#fff"
         id="stop71" />
      <stop
         offset="1"
         stop-color="#252525"
         stop-opacity="0"
         id="stop73" />
    </linearGradient>
    <radialGradient
       id="q-9"
       cx="49.011971"
       cy="2.6743081"
       gradientTransform="matrix(1.550633,0,0,0.1873121,21.621938,-31.864287)"
       gradientUnits="userSpaceOnUse"
       r="1.724619"
       xlink:href="#p-5" />
    <radialGradient
       id="r-2"
       cx="49.011971"
       cy="2.6743081"
       gradientTransform="matrix(1.5495914,0,0,0.1876849,-193.24041,-23.535874)"
       gradientUnits="userSpaceOnUse"
       r="1.724619"
       xlink:href="#p-5" />
  </defs>
  <sodipodi:namedview
     pagecolor="#ffffff"
     bordercolor="#666666"
     borderopacity="1"
     objecttolerance="10"
     gridtolerance="10"
     guidetolerance="10"
     inkscape:pageopacity="0"
     inkscape:pageshadow="2"
     inkscape:window-width="1366"
     inkscape:window-height="714"
     id="namedview178"
     showgrid="false"
     inkscape:zoom="9.8333333"
     inkscape:cx="-0.81355932"
     inkscape:cy="12"
     inkscape:window-x="0"
     inkscape:window-y="28"
     inkscape:window-maximized="1"
     inkscape:current-layer="svg176" />
  <linearGradient
     id="a"
     gradientUnits="userSpaceOnUse"
     x1="65.918158"
     x2="95.469008"
     y1="92.505587"
     y2="72.005587">
    <stop
       offset="0"
       stop-color="#382a23"
       id="stop2" />
    <stop
       offset="1"
       stop-color="#753919"
       stop-opacity="0"
       id="stop4" />
  </linearGradient>
  <filter
     id="b"
     color-interpolation-filters="sRGB"
     height="1.116259"
     width="1.118972"
     x="-.059486"
     y="-.058129">
    <feGaussianBlur
       stdDeviation="2.3063507"
       id="feGaussianBlur7" />
  </filter>
  <radialGradient
     id="c"
     cx="30.826572"
     cy="86.85881"
     gradientTransform="matrix(.97177617 0 0 .99360916 2.808391 -1.052321)"
     gradientUnits="userSpaceOnUse"
     r="48.221165">
    <stop
       offset="0"
       stop-color="#fff718"
       id="stop10" />
    <stop
       offset="1"
       stop-color="#e77100"
       id="stop12" />
  </radialGradient>
  <linearGradient
     id="d"
     gradientUnits="userSpaceOnUse"
     x1="-6.953438"
     x2="66.845506"
     y1="100.303807"
     y2="77.467066">
    <stop
       offset="0"
       stop-color="#753919"
       id="stop15" />
    <stop
       offset="1"
       stop-color="#753919"
       stop-opacity="0"
       id="stop17" />
  </linearGradient>
  <radialGradient
     id="e"
     cx="45.885448"
     cy="75.050514"
     gradientTransform="matrix(.97177617 0 0 .99360916 2.808391 -1.052321)"
     gradientUnits="userSpaceOnUse"
     r="48.221165"
     xlink:href="#f" />
  <linearGradient
     id="f">
    <stop
       offset="0"
       stop-color="#31170a"
       id="stop21" />
    <stop
       offset="1"
       stop-color="#542912"
       stop-opacity="0"
       id="stop23" />
  </linearGradient>
  <radialGradient
     id="g"
     cx="-3.114552"
     cy="128.35297"
     gradientTransform="matrix(.97177617 0 0 .99360916 2.808391 -1.052321)"
     gradientUnits="userSpaceOnUse"
     r="48.221165"
     xlink:href="#f" />
  <linearGradient
     id="h"
     gradientUnits="userSpaceOnUse"
     x1="11.554377"
     x2="74.575579"
     xlink:href="#i"
     y1="103.219135"
     y2="90.586044" />
  <linearGradient
     id="i"
     gradientUnits="userSpaceOnUse"
     x1="28"
     x2="28"
     y1="57.5"
     y2="0">
    <stop
       offset="0"
       stop-color="#ffea00"
       id="stop28" />
    <stop
       offset="1"
       stop-color="#fc0"
       id="stop30" />
  </linearGradient>
  <linearGradient
     id="j"
     gradientUnits="userSpaceOnUse"
     x1="4.266055"
     x2="89.204306"
     y1="115.055971"
     y2="115.055971">
    <stop
       offset="0"
       stop-color="#ffea00"
       id="stop33" />
    <stop
       offset="1"
       stop-color="#dea200"
       id="stop35" />
  </linearGradient>
  <linearGradient
     id="k"
     gradientUnits="userSpaceOnUse"
     x1="2.814214"
     x2="68.147888"
     y1="124.73762"
     y2="62.865772">
    <stop
       offset="0"
       stop-color="#ffeb4a"
       id="stop38" />
    <stop
       offset="1"
       stop-color="#ffeb4a"
       stop-opacity="0"
       id="stop40" />
  </linearGradient>
  <filter
     id="l"
     color-interpolation-filters="sRGB"
     height="1.035563"
     width="1.036448"
     x="-.018224"
     y="-.017782">
    <feGaussianBlur
       stdDeviation=".66328126"
       id="feGaussianBlur43" />
  </filter>
  <linearGradient
     id="m"
     gradientUnits="userSpaceOnUse"
     x1="9.610824"
     x2="2.222648"
     xlink:href="#i"
     y1="58.780281"
     y2="105.911422" />
  <linearGradient
     id="n"
     gradientUnits="userSpaceOnUse"
     x1="1.90311"
     x2="32.767336"
     y1="44.651196"
     y2="82.160849">
    <stop
       offset="0"
       stop-color="#fff"
       id="stop47" />
    <stop
       offset="1"
       stop-color="#fff"
       stop-opacity="0"
       id="stop49" />
  </linearGradient>
  <linearGradient
     id="o"
     gradientUnits="userSpaceOnUse"
     x1="88.591797"
     x2="71.262016"
     y1="96.592697"
     y2="79.262917">
    <stop
       offset="0"
       stop-color="#fff"
       id="stop52" />
    <stop
       offset="1"
       stop-color="#555753"
       id="stop54" />
  </linearGradient>
  <linearGradient
     id="p"
     gradientUnits="userSpaceOnUse"
     x1="85.219681"
     x2="61.336319"
     y1="93.219681"
     y2="69.336319">
    <stop
       offset="0"
       id="stop57" />
    <stop
       offset="1"
       stop-color="#393b38"
       id="stop59" />
  </linearGradient>
  <linearGradient
     id="q"
     gradientUnits="userSpaceOnUse"
     x1="96"
     x2="88.000198"
     y1="104"
     y2="96.000198">
    <stop
       offset="0"
       stop-color="#888a85"
       id="stop62" />
    <stop
       offset=".0072"
       stop-color="#8c8e89"
       id="stop64" />
    <stop
       offset=".0673"
       stop-color="#abaca9"
       id="stop66" />
    <stop
       offset=".1347"
       stop-color="#c5c6c4"
       id="stop68" />
    <stop
       offset=".2115"
       stop-color="#dbdbda"
       id="stop70" />
    <stop
       offset=".3012"
       stop-color="#ebebeb"
       id="stop72" />
    <stop
       offset=".4122"
       stop-color="#f7f7f6"
       id="stop74" />
    <stop
       offset=".5679"
       stop-color="#fdfdfd"
       id="stop76" />
    <stop
       offset="1"
       stop-color="#fff"
       id="stop78" />
  </linearGradient>
  <radialGradient
     id="r"
     cx="102"
     cy="112.3047"
     gradientTransform="matrix(.94807 0 0 .9510679 3.32352 5.274458)"
     gradientUnits="userSpaceOnUse"
     r="139.55859">
    <stop
       offset="0"
       stop-color="#535557"
       id="stop81" />
    <stop
       offset=".11366145"
       stop-color="#898a8c"
       id="stop83" />
    <stop
       offset=".20296688"
       stop-color="#ececec"
       id="stop85" />
    <stop
       offset=".2363"
       stop-color="#fafafa"
       id="stop87" />
    <stop
       offset=".2722"
       stop-color="#fff"
       id="stop89" />
    <stop
       offset=".5313"
       stop-color="#fafafa"
       id="stop91" />
    <stop
       offset=".8449"
       stop-color="#ebecec"
       id="stop93" />
    <stop
       offset="1"
       stop-color="#e1e2e3"
       id="stop95" />
  </radialGradient>
  <radialGradient
     id="s"
     cx="100.80984"
     cy="112.93461"
     gradientUnits="userSpaceOnUse"
     r="135.18756">
    <stop
       offset="0"
       stop-color="#3e3e3e"
       id="stop98" />
    <stop
       offset=".0151"
       stop-color="#505050"
       id="stop100" />
    <stop
       offset=".0558"
       stop-color="#7e7e7e"
       id="stop102" />
    <stop
       offset=".1357"
       stop-color="#c6c6c6"
       id="stop104" />
    <stop
       offset=".20990001"
       stop-color="#f1f1f1"
       id="stop106" />
    <stop
       offset=".24349999"
       stop-color="#fcfcfc"
       id="stop108" />
    <stop
       offset=".2722"
       stop-color="#fff"
       id="stop110" />
  </radialGradient>
  <filter
     id="t">
    <feGaussianBlur
       stdDeviation="1.0394514"
       id="feGaussianBlur113" />
  </filter>
  <filter
     id="u">
    <feGaussianBlur
       stdDeviation=".50063244"
       id="feGaussianBlur116" />
  </filter>
  <filter
     id="v">
    <feGaussianBlur
       stdDeviation=".40750996"
       id="feGaussianBlur119" />
  </filter>
  <filter
     id="w">
    <feGaussianBlur
       stdDeviation=".4901192"
       id="feGaussianBlur122" />
  </filter>
  <filter
     id="x">
    <feGaussianBlur
       stdDeviation=".90565481"
       id="feGaussianBlur125" />
  </filter>
  <g
     transform="matrix(.171875 0 0 .171875 .985857 1.99985)"
     id="g140">
    <path
       d="m17.199693 8.9687825-.0078 96.6204175h71.298783c.53 0 1.04361-.2064 1.414-.586l34.480514-35.338176c.37039-.379601.58814-.884005.586-1.414l-.23956-59.2822415z"
       transform="matrix(1.0090419 0 0 1.003276 -7.641977 .929762)"
       id="path128"
       filter="url(#t)"
       opacity=".553425" />
    <path
       d="m17.199693 9-.0078 96.5892h71.298779c.53 0 1.04361-.2064 1.414-.586l34.480518-35.338176c.37039-.379601.58815-.884005.586-1.414l-.23956-59.251024z"
       transform="matrix(1.0090419 0 0 1.003276 -7.641977 .929762)"
       id="path130"
       filter="url(#t)"
       opacity=".306849" />
    <path
       d="m19.105428 10.673272-.03435 92.785648 68.8436-.0001c.53 0 1.039-.211 1.414-.586l33.136502-34.276109c.375-.375.586-.884.586-1.414l-.15836-56.509439z"
       transform="matrix(1.0090419 0 0 1.003276 -7.641977 .929762)"
       id="path132"
       filter="url(#u)"
       opacity=".89589" />
    <path
       d="m17.199693 9.9655172-.0078 95.6236828h71.298783c.53 0 1.04361-.2064 1.414-.586l34.480514-35.338176c.37039-.379601.58818-.884005.586-1.414l-.23956-58.2855068z"
       transform="matrix(1.0090419 0 0 1.003276 -7.641977 .929762)"
       id="path134"
       filter="url(#t)"
       opacity=".306849" />
    <path
       d="m11.6362 11.638-.03465 93.0896h69.515639c.513401 0 1.006458-.20439 1.369714-.56765l33.467277-34.318224c.36326-.363255.56764-.856313.56764-1.369714l-.15982-56.834012z"
       id="path136"
       fill="url(#s)" />
    <path
       d="m18.214103 17.512144c-.522387 0-.94807.42703-.94807.951069l.27287 79.275957c0 .525.425684.95108.94807.95108h62.358732c.249342 0 .493944-.10082.670284-.27867l29.790691-29.740052c.17729-.17785.27778-.422273.27778-.672405l-.94173-49.513987c0-.524039-.42473-.951068-.94806-.951068z"
       id="path138"
       fill="url(#r)" />
  </g>
  <g
     transform="matrix(.171875 0 0 .171875 1.169103 .827658)"
     id="g164">
    <path
       d="m3.7599545 30.894267c-1.5704891.0049-2.8411906 1.279112-2.84179695 2.849609v89.523444c.00061456 1.57354 1.27606815 2.849 2.84960945 2.84961h87.351562c2.521216-.00092 3.800225-3.03383 2.041016-4.83985l-87.3515624-89.523438c-.5386162-.551753-1.2777681-.861789-2.0488281-.859375zm14.1807005 42.435114 35.028717 35.643949h-35.028717z"
       fill="url(#a)"
       filter="url(#b)"
       transform="matrix(.97177617 0 0 .97177617 2.808391 .715728)"
       id="path142" />
    <path
       d="m4.7443515 33.143064c-1.5261642.0048-2.7610017 1.243011-2.7615905 2.769183v86.996743c.0005934 1.52913 1.2400499 2.76859 2.7691825 2.76919h84.8861665c2.450068-.00089 3.692983-2.94821 1.983411-4.70326l-84.8861672-86.996735c-.5234143-.536181-1.2417045-.837466-1.9910023-.835121zm13.7804665 41.237433 34.040073 34.637943h-34.040073z"
       fill="url(#c)"
       id="path144" />
    <path
       d="m4.7443515 33.143064c-1.5261642.0048-2.7610017 1.243011-2.7615905 2.769183v86.996743c.0005934 1.52913 1.2400499 2.76859 2.7691825 2.76919h84.8861665c2.450068-.00089 3.692983-2.94821 1.983411-4.70326l-84.8861672-86.996735c-.5234143-.536181-1.2417045-.837466-1.9910023-.835121zm13.7804665 41.237433 34.040073 34.637943h-34.040073z"
       fill="url(#d)"
       id="path146" />
    <path
       d="m4.7443515 33.143064c-1.5261642.0048-2.7610017 1.243011-2.7615905 2.769183v86.996743c.0005934 1.52913 1.2400499 2.76859 2.7691825 2.76919h84.8861665c2.450068-.00089 3.692983-2.94821 1.983411-4.70326l-84.8861672-86.996735c-.5234143-.536181-1.2417045-.837466-1.9910023-.835121zm13.7804665 41.237433 34.040073 34.637943h-34.040073z"
       fill="url(#e)"
       id="path148" />
    <path
       d="m4.7443515 33.143064c-1.5261642.0048-2.7610017 1.243011-2.7615905 2.769183v86.996743c.0005934 1.52913 1.2400499 2.76859 2.7691825 2.76919h84.8861665c2.450068-.00089 3.692983-2.94821 1.983411-4.70326l-84.8861672-86.996735c-.5234143-.536181-1.2417045-.837466-1.9910023-.835121zm9.7804665 33.237433 46.040073 46.637943h-46.040073z"
       fill="url(#g)"
       id="path150" />
    <path
       d="m4.7519435 35.912247v86.996743h84.8861665zm11.0036925 31.663918 43.38203 44.211455h-43.38203z"
       fill="url(#h)"
       id="path152" />
    <path
       d="m58.528407 111.16318.609259.62444h-38.934101l-15.4516215 10.76455v.35682h84.2598265z"
       fill="url(#j)"
       fill-rule="evenodd"
       id="path154" />
    <path
       d="m2 36.21875v89.52344h87.351562zm11.323279 32.583551 44.641998 45.495509h-44.641998z"
       fill="none"
       filter="url(#l)"
       stroke="url(#k)"
       stroke-width="1.2"
       transform="matrix(.97177617 0 0 .97177617 2.808391 .715728)"
       id="path156" />
    <path
       d="m4.7519435 36.608813v86.300177h.6624021l10.6127044-15.12137h-.271414v-34.033043c-2.961766-5.421563-6.9528377-26.361977-11.0036925-37.145764z"
       fill="url(#m)"
       fill-rule="evenodd"
       id="path158" />
    <path
       d="m4.7519435 37.170224v53.896014l10.6614815-6.189167v-16.901984l14.001841 12.150217 4.776487-12.782659z"
       fill="url(#n)"
       fill-rule="evenodd"
       id="path160" />
    <path
       d="m4.7519435 35.912247v86.996743h.7288321v-86.248932zm11.7325245 32.149806v.261925l42.653198 43.463642h-42.653198v.48589h43.38203z"
       fill="#fff"
       id="path162" />
  </g>
  <g
     transform="matrix(.19044027 0 0 .19044027 -.204667 -2.720984)"
     id="g174">
    <path
       d="m111.414 86.586c.25-.25-26.379-1.586-31.414-1.586-1.654 0-3 1.346-3 3 0 5.035 1.336 31.664 1.586 31.414z"
       fill="url(#o)"
       filter="url(#v)"
       opacity=".750685"
       id="path166" />
    <path
       d="m111.414 86.586c.375-.375-21.97-.586-31.414-.586-1.103 0-2 .897-2 2 0 9.444.211 31.789.586 31.414z"
       filter="url(#x)"
       opacity=".2"
       id="path168" />
    <path
       d="m111.414 86.586c.239-.239-21.607.414-31.414.414-.553 0-1 .447-1 1 0 9.807-.653 31.653-.414 31.414z"
       fill="url(#p)"
       filter="url(#w)"
       opacity=".1"
       id="path170" />
    <path
       d="m79.721619 119.31106 31.505501-31.505504h-31.505501z"
       fill="url(#q)"
       id="path172" />
  </g>
  <g
     transform="matrix(0.20956487,0,0,0.20956487,2.184791,-9.9822206)"
     id="g175">
    <g
       style="fill-rule:evenodd"
       id="g143">
      <path
         style="fill:#bf0000"
         inkscape:connector-curvature="0"
         d="m 90.067703,48.28801 c 0.613642,-0.692125 4.648657,-0.363057 8.944253,3.536477 4.337724,3.937759 5.210074,7.748115 4.441394,8.615025 -0.5003,0.564284 -1.00061,1.128566 -1.50092,1.692851 -4.461914,-4.050501 -8.9238,-8.101002 -13.385691,-12.151503 0.500309,-0.564283 1.000624,-1.128565 1.500964,-1.69285 z"
         id="path135" />
      <path
         style="fill:#b3925d"
         inkscape:connector-curvature="0"
         d="m 36.000762,124 20.247,-9.42653 0.09417,-0.10772 -13.269004,-12.28446 -0.127672,0.1459 z"
         id="path137" />
      <path
         style="fill:url(#a-3);filter:url(#b-5)"
         inkscape:connector-curvature="0"
         d="m 98.534725,51.799464 c -1.025821,-0.04502 -1.882013,0.614542 -2.665637,0.986566 -4.174912,3.698786 -21.569273,21.653428 -22.000397,22.168708 l -17.273332,20.659839 -0.106627,0.116066 -9.682256,17.633397 23.598527,-5.26172 29.942357,-36.049245 3.58973,-4.294461 c 0.64726,-1.199814 1.23861,-7.813473 -1.74155,-12.76732 -1.45299,-2.415269 -2.634991,-3.146806 -3.660815,-3.19183 z m 5.402365,15.95915 c -0.0266,0.04924 -0.0446,0.143824 -0.0711,0.174098 -0.0129,0.01476 1.49247,-1.049396 0.6753,-0.870498 z"
         id="path139" />
      <path
         style="fill:url(#c-5)"
         inkscape:connector-curvature="0"
         d="m 37.004018,123.01573 18.885171,-8.78019 0.09416,-0.10769 -12.551842,-11.60866 -0.12769,0.14592 z"
         id="path141" />
    </g>
    <path
       style="fill:url(#d-9)"
       inkscape:connector-curvature="0"
       d="m 49.164276,108.94499 c 1.648961,1.50106 2.755448,1.51054 3.34488,2.0471 0.09525,0.0867 0.175312,0.18851 0.243795,0.29167 L 97.392942,60.017302 90.912418,54.117987 46.187555,105.48147 c 0.214748,0.0564 0.415855,0.13454 0.602285,0.30424 0.538767,0.49045 0.717813,1.65124 2.374436,3.15928 z"
       id="path145" />
    <path
       style="opacity:0.35348804"
       inkscape:connector-curvature="0"
       d="m 54.219542,109.12044 -1.750182,2.00168 c 0.538752,0.53092 0.431653,1.46553 1.421976,2.36702 1.067261,0.97156 1.630178,0.45849 2.321697,1.08447 l 1.771382,-2.02599 z"
       id="path147" />
    <path
       style="fill:url(#e-0)"
       inkscape:connector-curvature="0"
       d="M 97.156354,59.801933 52.550305,111.02955 c 0.541583,0.53354 0.517441,1.37742 1.512824,2.28353 1.072712,0.97652 1.555044,0.55628 2.250088,1.18547 L 100.94048,63.246681 Z"
       id="path149" />
    <path
       style="opacity:0.386047;fill:#252525"
       inkscape:connector-curvature="0"
       d="m 47.641192,104.81388 -0.897802,1.02682 -0.0345,0.0376 c 0.447512,0.42018 0.395724,1.39005 1.878296,2.86086 l 0.08229,0.0749 0.586334,0.53373 0.0823,0.0749 c 1.616252,1.35012 2.54668,1.16726 3.136095,1.7038 l 0.947655,-1.09585 z"
       id="path151" />
    <path
       style="opacity:0.35348804;fill:#131313"
       inkscape:connector-curvature="0"
       d="m 43.884886,101.37497 -0.940801,0.95531 c 0.02064,0.0187 -0.05311,0.1047 -0.03237,0.12358 0.423005,0.38509 0.412824,1.36825 1.189787,2.20191 l 0.072,0.0655 0.318878,0.29029 0.04115,0.0374 c 0.925767,0.72156 1.702344,0.46358 2.175362,0.82926 l 0.940872,-1.07609 z"
       id="path153" />
    <path
       style="fill:url(#f-9)"
       inkscape:connector-curvature="0"
       d="m 44.501995,104.6749 c 1.032229,0.92922 1.738227,0.6105 2.287845,1.11081 L 91.395905,54.558106 87.571444,51.076654 42.944168,102.32853 c 0.02096,0.019 0.04162,0.0379 0.06269,0.0571 0.42971,0.39116 0.455145,1.35294 1.495139,2.28929 z"
       id="path155" />
    <path
       style="fill:url(#g-0)"
       inkscape:connector-curvature="0"
       d="m 99.380959,-24.64492 h 18.073061 v 4.252269 H 99.380959 Z"
       transform="matrix(0.7409346,0.6715772,-0.6655662,0.7463388,0,0)"
       id="path157" />
    <path
       style="fill:url(#h-2);filter:url(#i-1)"
       inkscape:connector-curvature="0"
       d="m 82.172836,7.4622769 c 0,0.5365014 -21.264324,0.9714217 -47.495197,0.9714217 -26.2308732,0 -47.495197,-0.4349203 -47.495197,-0.9714217 0,-0.5365014 21.2643238,-0.9714217 47.495197,-0.9714217 26.230873,0 47.495197,0.4349203 47.495197,0.9714217 z"
       transform="matrix(0.3854946,-0.4403693,-1.7345162,-1.5764895,62.874028,110.46407)"
       id="path159" />
    <path
       style="fill:url(#j-8)"
       inkscape:connector-curvature="0"
       d="m 106.56087,7.4622769 c 2e-5,0.232347 -31.840086,0.4212113 -71.318555,0.4230365 -39.478469,0.00183 -71.818819,-0.1840719 -72.439038,-0.4163902 -0.62022,-0.2323183 30.7118344,-0.424103 70.18056,-0.4295779 39.468725,-0.00547 72.301293,0.1774094 73.541553,0.4096417"
       transform="matrix(0.3184879,-0.3665274,-1.2576415,-1.1452705,66.925762,101.47904)"
       id="path161" />
    <path
       style="fill:url(#l-2);fill-rule:evenodd"
       inkscape:connector-curvature="0"
       d="m 44.721041,119.98334 c -1.894932,-0.77816 -4.469372,-3.93608 -5.787909,-5.07837 l -2.933131,9.08971 z"
       id="path163" />
    <path
       style="fill:url(#m-2);fill-rule:evenodd"
       inkscape:connector-curvature="0"
       d="m 97.676422,50.957862 c 2.773338,2.157871 4.754818,5.136648 4.863888,5.422718 0.10904,0.286071 -2.586875,-3.046365 -4.878244,-4.572341 -2.273846,-1.514326 -5.450917,-1.552229 -5.685693,-1.736594 -0.234782,-0.184361 -1.822614,-1.877275 -0.38221,-1.814774 1.506596,0.06537 3.94013,1.035831 6.082259,2.700991 z"
       id="path165" />
    <path
       style="fill:url(#n-3)"
       inkscape:connector-curvature="0"
       d="m 93.653015,51.592952 -2.773744,3.218036 6.482458,5.873697 2.773741,-3.186793 z"
       id="path167" />
    <path
       style="fill:url(#o-7)"
       inkscape:connector-curvature="0"
       d="m 104.60918,-25.364759 h 7.79523 v 1.708078 h -7.79523 z"
       transform="matrix(0.7404161,0.6721488,-0.6634233,0.7482443,0,0)"
       id="path169" />
    <path
       style="fill:url(#q-9)"
       inkscape:connector-curvature="0"
       d="m 94.946716,-31.829779 h 5.348454 v 1.162492 h -5.348454 z"
       transform="matrix(0.6942228,0.7197602,-0.7693435,0.6388354,0,0)"
       id="path171" />
    <path
       style="fill:url(#r-2)"
       inkscape:connector-curvature="0"
       d="m -119.96733,-23.501301 h 5.3449 v 1.164788 h -5.3449 z"
       transform="matrix(-0.7514575,-0.6597815,-0.5893147,0.8079036,0,0)"
       id="path173" />
  </g>
</svg>
