<?xml version="1.0" encoding="UTF-8" standalone="no"?>
<svg
   xmlns:dc="http://purl.org/dc/elements/1.1/"
   xmlns:cc="http://creativecommons.org/ns#"
   xmlns:rdf="http://www.w3.org/1999/02/22-rdf-syntax-ns#"
   xmlns:svg="http://www.w3.org/2000/svg"
   xmlns="http://www.w3.org/2000/svg"
   xmlns:sodipodi="http://sodipodi.sourceforge.net/DTD/sodipodi-0.dtd"
   xmlns:inkscape="http://www.inkscape.org/namespaces/inkscape"
   enable-background="new 0 0 128 128"
   height="24"
   viewBox="0 0 24 24"
   width="24"
   version="1.1"
   id="svg213"
   sodipodi:docname="lc_footnotedialog.svg"
   inkscape:version="0.92.4 (unknown)">
  <metadata
     id="metadata219">
    <rdf:RDF>
      <cc:Work
         rdf:about="">
        <dc:format>image/svg+xml</dc:format>
        <dc:type
           rdf:resource="http://purl.org/dc/dcmitype/StillImage" />
        <dc:title></dc:title>
      </cc:Work>
    </rdf:RDF>
  </metadata>
  <defs
     id="defs217" />
  <sodipodi:namedview
     pagecolor="#ffffff"
     bordercolor="#666666"
     borderopacity="1"
     objecttolerance="10"
     gridtolerance="10"
     guidetolerance="10"
     inkscape:pageopacity="0"
     inkscape:pageshadow="2"
     inkscape:window-width="1366"
     inkscape:window-height="706"
     id="namedview215"
     showgrid="false"
     inkscape:zoom="14.666941"
     inkscape:cx="11.028375"
     inkscape:cy="9.081774"
     inkscape:window-x="0"
     inkscape:window-y="0"
     inkscape:window-maximized="1"
     inkscape:current-layer="svg213" />
  <linearGradient
     id="a"
     gradientTransform="matrix(0 -.91666666 .91666666 0 -222.46483 182.99649)"
     gradientUnits="userSpaceOnUse"
     x1="182.28288"
     x2="182.28288"
     y1="238.96916"
     y2="344.42404">
    <stop
       offset="0"
       stop-color="#8e79b9"
       id="stop2" />
    <stop
       offset="1"
       stop-color="#462886"
       id="stop4" />
  </linearGradient>
  <linearGradient
     id="b"
     gradientTransform="matrix(.91666666 0 0 .70714284 -70.880812 26.624918)"
     gradientUnits="userSpaceOnUse"
     x1="154.28152"
     x2="154.28152"
     y1="104.82231"
     y2="115.19268">
    <stop
       offset="0"
       stop-color="#4c78fd"
       id="stop7" />
    <stop
       offset="1"
       stop-color="#85a2fe"
       id="stop9" />
  </linearGradient>
  <linearGradient
     id="c"
     gradientUnits="userSpaceOnUse"
     x1="98.9077"
     x2="98.9077"
     y1="46.5466"
     y2="162.9086">
    <stop
       offset="0"
       stop-color="#99999c"
       id="stop12" />
    <stop
       offset=".5"
       stop-color="#9c9ca1"
       id="stop14" />
    <stop
       offset="1"
       stop-color="#cdcdd1"
       id="stop16" />
  </linearGradient>
  <linearGradient
     id="d"
     gradientUnits="userSpaceOnUse"
     x1="78.610847"
     x2="120.3435"
     y1="88.852417"
     y2="111.54715">
    <stop
       offset="0"
       stop-color="#fff"
       id="stop19" />
    <stop
       offset="1"
       stop-color="#ccc"
       id="stop21" />
  </linearGradient>
  <linearGradient
     id="e"
     gradientUnits="userSpaceOnUse"
     x1="88.38102"
     x2="130.48599"
     y1="1008.9966"
     y2="1015.6953">
    <stop
       offset="0"
       stop-color="#7b7b7b"
       id="stop24" />
    <stop
       offset="1"
       stop-color="#797979"
       stop-opacity="0"
       id="stop26" />
  </linearGradient>
  <clipPath
     id="f">
    <path
       d="m41.355614 933.74432h83.943996v117.52168h-83.943996z"
       id="path29" />
  </clipPath>
  <filter
     id="g"
     color-interpolation-filters="sRGB"
     height="1.073732"
     width="1.13754"
     x="-.06877"
     y="-.036866">
    <feGaussianBlur
       stdDeviation="1.0557314"
       id="feGaussianBlur32" />
  </filter>
  <linearGradient
     id="h"
     gradientUnits="userSpaceOnUse"
     x1="100.83452"
     x2="116.42799"
     y1="37.992622"
     y2="80.92411">
    <stop
       offset="0"
       stop-color="#fff"
       stop-opacity=".683453"
       id="stop35" />
    <stop
       offset="1"
       stop-color="#fff"
       stop-opacity="0"
       id="stop37" />
  </linearGradient>
  <linearGradient
     id="i"
     gradientTransform="matrix(0.58291629,0,0,0.66676377,62.177025,-566.68964)"
     gradientUnits="userSpaceOnUse"
     x1="63.011921"
     x2="63.011921"
     y1="945.89801"
     y2="1033.1569">
    <stop
       offset="0"
       stop-color="#545454"
       stop-opacity=".988"
       id="stop40" />
    <stop
       offset="1"
       stop-color="#ebebeb"
       id="stop42" />
  </linearGradient>
  <linearGradient
     id="j"
     gradientTransform="matrix(0.48045402,0,0,0.66178602,128.73476,-578.51587)"
     gradientUnits="userSpaceOnUse"
     x1="-60.535713"
     x2="-60.357143"
     y1="979.50507"
     y2="1009.505">
    <stop
       offset="0"
       stop-color="#979797"
       id="stop45" />
    <stop
       offset=".148461"
       stop-color="#f6f6f6"
       id="stop47" />
    <stop
       offset=".28399727"
       stop-color="#e2e2e2"
       id="stop49" />
    <stop
       offset=".41198727"
       stop-color="#dedede"
       id="stop51" />
    <stop
       offset=".41198727"
       stop-color="#f6f6f6"
       id="stop53" />
    <stop
       offset="1"
       stop-color="#6b6b6b"
       id="stop55" />
  </linearGradient>
  <linearGradient
     id="k"
     gradientTransform="matrix(0.480454,0,0,0.58309338,128.76683,499.76645)"
     gradientUnits="userSpaceOnUse"
     x1="-61.078979"
     x2="-60.6413"
     y1="-1056.658"
     y2="-1010.9131">
    <stop
       offset="0"
       stop-color="#777"
       id="stop58" />
    <stop
       offset=".18176934"
       stop-color="#a8a8a8"
       id="stop60" />
    <stop
       offset=".22864534"
       stop-color="#cdcdcd"
       id="stop62" />
    <stop
       offset=".34561315"
       stop-color="#f7f7f7"
       id="stop64" />
    <stop
       offset="1"
       stop-color="#fff"
       id="stop66" />
  </linearGradient>
  <linearGradient
     id="l"
     gradientUnits="userSpaceOnUse"
     x1="88.591797"
     x2="71.262016"
     y1="96.592697"
     y2="79.262917">
    <stop
       offset="0"
       stop-color="#fff"
       id="stop69" />
    <stop
       offset="1"
       stop-color="#555753"
       id="stop71" />
  </linearGradient>
  <linearGradient
     id="m"
     gradientUnits="userSpaceOnUse"
     x1="85.219681"
     x2="61.336319"
     y1="93.219681"
     y2="69.336319">
    <stop
       offset="0"
       id="stop74" />
    <stop
       offset="1"
       stop-color="#393b38"
       id="stop76" />
  </linearGradient>
  <linearGradient
     id="n"
     gradientUnits="userSpaceOnUse"
     x1="96"
     x2="88.000198"
     y1="104"
     y2="96.000198">
    <stop
       offset="0"
       stop-color="#888a85"
       id="stop79" />
    <stop
       offset=".0072"
       stop-color="#8c8e89"
       id="stop81" />
    <stop
       offset=".0673"
       stop-color="#abaca9"
       id="stop83" />
    <stop
       offset=".1347"
       stop-color="#c5c6c4"
       id="stop85" />
    <stop
       offset=".2115"
       stop-color="#dbdbda"
       id="stop87" />
    <stop
       offset=".3012"
       stop-color="#ebebeb"
       id="stop89" />
    <stop
       offset=".4122"
       stop-color="#f7f7f6"
       id="stop91" />
    <stop
       offset=".5679"
       stop-color="#fdfdfd"
       id="stop93" />
    <stop
       offset="1"
       stop-color="#fff"
       id="stop95" />
  </linearGradient>
  <radialGradient
     id="o"
     cx="102"
     cy="112.3047"
     gradientTransform="matrix(.94807 0 0 .9510679 3.32352 5.274458)"
     gradientUnits="userSpaceOnUse"
     r="139.55859">
    <stop
       offset="0"
       stop-color="#535557"
       id="stop98" />
    <stop
       offset=".11366145"
       stop-color="#898a8c"
       id="stop100" />
    <stop
       offset=".20296688"
       stop-color="#ececec"
       id="stop102" />
    <stop
       offset=".2363"
       stop-color="#fafafa"
       id="stop104" />
    <stop
       offset=".2722"
       stop-color="#fff"
       id="stop106" />
    <stop
       offset=".5313"
       stop-color="#fafafa"
       id="stop108" />
    <stop
       offset=".8449"
       stop-color="#ebecec"
       id="stop110" />
    <stop
       offset="1"
       stop-color="#e1e2e3"
       id="stop112" />
  </radialGradient>
  <radialGradient
     id="p"
     cx="100.80984"
     cy="112.93461"
     gradientUnits="userSpaceOnUse"
     r="135.18756">
    <stop
       offset="0"
       stop-color="#3e3e3e"
       id="stop115" />
    <stop
       offset=".0151"
       stop-color="#505050"
       id="stop117" />
    <stop
       offset=".0558"
       stop-color="#7e7e7e"
       id="stop119" />
    <stop
       offset=".1357"
       stop-color="#c6c6c6"
       id="stop121" />
    <stop
       offset=".20990001"
       stop-color="#f1f1f1"
       id="stop123" />
    <stop
       offset=".24349999"
       stop-color="#fcfcfc"
       id="stop125" />
    <stop
       offset=".2722"
       stop-color="#fff"
       id="stop127" />
  </radialGradient>
  <filter
     id="q">
    <feGaussianBlur
       stdDeviation="1.0394514"
       id="feGaussianBlur130" />
  </filter>
  <filter
     id="r">
    <feGaussianBlur
       stdDeviation=".50063244"
       id="feGaussianBlur133" />
  </filter>
  <filter
     id="s">
    <feGaussianBlur
       stdDeviation=".40750996"
       id="feGaussianBlur136" />
  </filter>
  <filter
     id="t">
    <feGaussianBlur
       stdDeviation=".4901192"
       id="feGaussianBlur139" />
  </filter>
  <filter
     id="u">
    <feGaussianBlur
       stdDeviation=".90565481"
       id="feGaussianBlur142" />
  </filter>
  <g
     transform="matrix(.20454546 0 0 .20454546 -1.577287 -1.380451)"
     id="g193">
    <g
       transform="translate(4.888583)"
       id="g157">
      <path
         d="m27.845077 13.841705.02654 106.166145h56.286107c.53 0 1.02161-.22945 1.414-.586l32.842276-29.842381c.39239-.356548.586-.884.586-1.414v-74.323764z"
         filter="url(#q)"
         opacity=".553425"
         transform="matrix(1.0090419 0 0 1.003276 -7.641977 .929762)"
         id="path145" />
      <path
         d="m27.845077 13.872922.02655 106.134928h56.286103c.53 0 1.02161-.22945 1.414-.586l32.84227-29.842381c.39239-.356548.586-.884.586-1.414v-74.292547z"
         filter="url(#q)"
         opacity=".306849"
         transform="matrix(1.0090419 0 0 1.003276 -7.641977 .929762)"
         id="path147" />
      <path
         d="m29.750812 15.546194-.000011 102.331376 53.830924-.0001c.53 0 1.039-.211 1.414-.586l31.498275-28.780314c.375-.375.586-.884.586-1.414l.0812-71.550962z"
         filter="url(#r)"
         opacity=".89589"
         transform="matrix(1.0090419 0 0 1.003276 -7.641977 .929762)"
         id="path149" />
      <path
         d="m27.845077 14.838439.02654 105.169411h56.286107c.53 0 1.02161-.22945 1.414-.586l32.842276-29.842381c.39239-.356548.586-.884.586-1.414v-73.32703z"
         filter="url(#q)"
         opacity=".306849"
         transform="matrix(1.0090419 0 0 1.003276 -7.641977 .929762)"
         id="path151" />
      <path
         d="m22.377839 16.526886v102.666604h54.36722c.513401 0 1.006458-.20439 1.369714-.56765l31.814227-28.804429c.36326-.363255.56764-.856313.56764-1.369714l.0819-71.924811z"
         fill="url(#p)"
         id="path153" />
      <path
         d="m28.955742 22.40103c-.522387 0-.94807.42703-.94807.951069l.307523 88.852961c0 .525.425684.95108.94807.95108h47.210313c.249342 0 .493944-.10082.670284-.27867l28.137638-24.226257c.17729-.17785.27778-.422273.27778-.672405l-.7-64.604786c0-.524039-.42473-.951068-.94806-.951068z"
         fill="url(#o)"
         id="path155" />
    </g>
    <g
       fill="#b3b3b3"
       stroke-width=".990113"
       id="g175">
      <path
         d="m37.044565 26.304474h68.444515v4.888895h-68.444515z"
         id="path159" />
      <path
         d="m37.044555 36.082264h68.444525v4.888895h-68.444525z"
         id="path161" />
      <path
         d="m37.04456 45.860054h68.44452v4.888895h-68.44452z"
         id="path163" />
      <path
         d="m37.044551 55.637844h68.444529v4.888895h-68.444529z"
         id="path165" />
      <path
         d="m37.044555 65.415634h68.444525v4.888895h-68.444525z"
         id="path167" />
      <path
         d="m37.044546 75.193424h68.444534v4.888895h-68.444534z"
         id="path169" />
      <path
         d="m37.044551 84.971214h68.444529v4.888895h-68.444529z"
         id="path171" />
      <path
         d="m37.044541 94.749004h68.444539v4.888895h-68.444539z"
         id="path173" />
    </g>
    <path
       d="m56.600131 97.193451h24.444475v12.222239h-24.444475z"
       fill="url(#b)"
       stroke-width=".916667"
       id="path177" />
    <g
       transform="matrix(1.1080161 0 0 1.1080161 -7.856201 -10.01667)"
       id="g187">
      <path
         d="m111.52523 88.365747c.26305-.236238-24.821717-1.141063-29.856717-1.141063-1.654 0-3 1.346-3 3 0 5.035 1.211722 26.561276 1.474766 26.325036z"
         fill="url(#l)"
         filter="url(#s)"
         opacity=".750685"
         id="path179" />
      <path
         d="m111.52523 88.365747c.39457-.354357-20.412717-.141063-29.856717-.141063-1.103 0-2 .897-2 2 0 9.444.0802 26.679386.474766 26.325036z"
         filter="url(#u)"
         opacity=".2"
         id="path181" />
      <path
         d="m111.52523 88.365747c.25147-.225842-20.049717.858937-29.856717.858937-.553 0-1 .447-1 1 0 9.806996-.776705 26.550876-.525234 26.325036z"
         fill="url(#m)"
         filter="url(#t)"
         opacity=".1"
         id="path183" />
      <path
         d="m81.278898 116.44678 30.059452-26.861477-29.948218.444937z"
         fill="url(#n)"
         id="path185" />
    </g>
    <path
       d="m46.822341 31.193369h44.000055v9.77779h-44.000055z"
       fill="#f60"
       id="path189" />
    <path
       d="m7.6766708 47.784675c0-8.935325 6.9164082-16.607443 15.9345072-16.602688l21.586422.01138c.808326-.000917 1.691369.882521 1.690104 1.690104l-.06536 6.659038c.0011.808289-.882515 1.691369-1.690104 1.690104l-21.521062-.199829c-1.468716-.01364-2.865577.292453-4.010416 1.21637-1.144839.923909-2.070809 2.395501-2.058696 4.116886l.297621 42.295417c.01033 1.468743.475931 2.86557 1.399842 4.010414.923911 1.144843 2.21224 2.298455 3.933416 2.269483l11.427159-.192351v-8.075719c.001-.812445.332205-1.340584.744791-1.546875.540916-.270456 1.27247-.183396 1.747396.171875l14.361008 12.967694.02865.02869.114584.08589c.04591.0495.09369.09732.143229.14323.888235-1.077864.351217.0794-.257142.893915-.04954.04592-.09732.09369-.143229.143229-.03896.02759-.07717.05628-.114584.08589l-.02865.02869-14.021998 14.334318h-.02865c-.24765.18061-.548098.30156-.916666.3151-.825274.0268-1.548724-.72621-1.546875-1.69011l-.08186-8.10803-11.427155.19235c-8.934063.15039-15.4962822-9.030734-15.4962822-18.048834z"
       fill="url(#a)"
       stroke-width=".916667"
       id="path191" />
  </g>
  <g
     transform="matrix(0.17187487,0,0,0.17187487,1.999999,1.996443)"
     id="g211">
    <path
       d="m 69.8172,46.546616 h 58.181 v 81.453444 h -58.181 z"
       id="path195"
       style="fill:url(#c)"
       inkscape:connector-curvature="0" />
    <path
       d="m 75.6353,52.3647 h 46.5448 v 69.81722 H 75.6353 Z"
       id="path197"
       style="fill:url(#d)"
       inkscape:connector-curvature="0" />
    <path
       clip-path="url(#f)"
       d="m 92.81509,1029.6319 c 1.071428,1.4286 10.71429,15.3572 11.78571,13.5715 1.07143,-1.7858 26.42857,-25.3572 25,-26.7858 -1.42857,-1.4285 -33.928567,-41.78567 -33.928567,-41.78567 z"
       transform="matrix(0.69309305,0,0,0.69309305,41.153912,-600.6251)"
       id="path199"
       style="opacity:0.6800001;fill:url(#e);fill-rule:evenodd;filter:url(#g)"
       inkscape:connector-curvature="0" />
    <path
       d="M 75.6353,52.3647 V 99.64533 C 89.806961,83.145235 109.17378,76.487988 122.17969,74.623047 V 52.365234 Z"
       id="path201"
       style="fill:url(#h);fill-rule:evenodd"
       inkscape:connector-curvature="0" />
    <path
       d="m 87.2715,64.0009 h 23.2724 v 46.5448 H 87.2715 Z"
       id="path203"
       style="fill:url(#i)"
       inkscape:connector-curvature="0" />
    <path
       d="M 89.925598,66.798828 H 107.61233 V 107.96351 H 89.925598 Z"
       id="path205"
       inkscape:connector-curvature="0"
       style="fill:#535353" />
    <path
       d="m 93.0896,69.819 h 11.6362 V 87.2733 H 93.0896 Z"
       id="path207"
       style="fill:url(#j)"
       inkscape:connector-curvature="0" />
    <path
       d="m 93.0896,-116.3638 h 11.6362 v 29.0905 H 93.0896 Z"
       transform="scale(1,-1)"
       id="path209"
       style="fill:url(#k)"
       inkscape:connector-curvature="0" />
  </g>
</svg>
