<?xml version="1.0" encoding="UTF-8" standalone="no"?>
<!-- Created with Inkscape (http://www.inkscape.org/) -->

<svg
   xmlns:dc="http://purl.org/dc/elements/1.1/"
   xmlns:cc="http://creativecommons.org/ns#"
   xmlns:rdf="http://www.w3.org/1999/02/22-rdf-syntax-ns#"
   xmlns:svg="http://www.w3.org/2000/svg"
   xmlns="http://www.w3.org/2000/svg"
   xmlns:xlink="http://www.w3.org/1999/xlink"
   xmlns:sodipodi="http://sodipodi.sourceforge.net/DTD/sodipodi-0.dtd"
   xmlns:inkscape="http://www.inkscape.org/namespaces/inkscape"
   width="24"
   height="24"
   id="svg3408"
   sodipodi:version="0.32"
   inkscape:version="0.92.4 (unknown)"
   version="1.0"
   sodipodi:docname="lc_fontworkshapetype.svg"
   inkscape:output_extension="org.inkscape.output.svgz.inkscape"
   inkscape:export-filename="/home/rizmut/Dokumen/Rizmut/Github/libreoffice-style-karasa-jaga/build/next/cmd/lc_fontworkshapetype.png"
   inkscape:export-xdpi="96"
   inkscape:export-ydpi="96">
  <defs
     id="defs3410">
    <linearGradient
       id="linearGradient6955">
      <stop
         style="stop-color:#fd0000;stop-opacity:1;"
         offset="0"
         id="stop6957" />
      <stop
         style="stop-color:#8f0000;stop-opacity:1;"
         offset="1"
         id="stop6959" />
    </linearGradient>
    <linearGradient
       id="linearGradient3225">
      <stop
         id="stop3227"
         offset="0"
         style="stop-color:#ffffff;stop-opacity:1;" />
      <stop
         id="stop3229"
         offset="1"
         style="stop-color:#aeaeae;stop-opacity:1;" />
    </linearGradient>
    <linearGradient
       id="linearGradient3272"
       inkscape:collect="always">
      <stop
         id="stop3274"
         offset="0"
         style="stop-color:white;stop-opacity:1;" />
      <stop
         id="stop3276"
         offset="1"
         style="stop-color:white;stop-opacity:0;" />
    </linearGradient>
    <linearGradient
       inkscape:collect="always"
       id="linearGradient3030">
      <stop
         style="stop-color:#000000;stop-opacity:0.77902622"
         offset="0"
         id="stop3032" />
      <stop
         style="stop-color:#000000;stop-opacity:0;"
         offset="1"
         id="stop3034" />
    </linearGradient>
    <linearGradient
       inkscape:collect="always"
       id="linearGradient3260-0">
      <stop
         style="stop-color:#ffffff;stop-opacity:1;"
         offset="0"
         id="stop3262-6" />
      <stop
         style="stop-color:#ffffff;stop-opacity:0;"
         offset="1"
         id="stop3264-3" />
    </linearGradient>
    <radialGradient
       id="XMLID_4_"
       cx="48"
       cy="-0.2148"
       r="55.147999"
       gradientTransform="matrix(0.9792,0,0,0.9725,133.0002,20.8762)"
       gradientUnits="userSpaceOnUse">
      <stop
         offset="0"
         style="stop-color:#72D13D"
         id="stop3082" />
      <stop
         offset="0.3553"
         style="stop-color:#35AC1C"
         id="stop3084" />
      <stop
         offset="0.6194"
         style="stop-color:#0F9508"
         id="stop3086" />
      <stop
         offset="0.7574"
         style="stop-color:#008C00"
         id="stop3088" />
      <stop
         offset="1"
         style="stop-color:#007A00"
         id="stop3090" />
    </radialGradient>
    <linearGradient
       y2="0"
       x2="28"
       y1="57.5"
       x1="28"
       gradientUnits="userSpaceOnUse"
       id="linearGradient5412">
      <stop
         id="stop5414"
         style="stop-color:#fff14d;stop-opacity:1;"
         offset="0" />
      <stop
         id="stop5416"
         style="stop-color:#f8ffa0;stop-opacity:0;"
         offset="1" />
    </linearGradient>
    <linearGradient
       id="linearGradient4770"
       gradientUnits="userSpaceOnUse"
       x1="-84.002403"
       y1="-383.9971"
       x2="-12.0029"
       y2="-383.9971"
       gradientTransform="rotate(90,-90.0007,50.0022)">
      <stop
         offset="0"
         style="stop-color:#e5ff00;stop-opacity:1"
         id="stop4772" />
      <stop
         offset="1"
         style="stop-color:#bff500;stop-opacity:0;"
         id="stop4774" />
    </linearGradient>
    <linearGradient
       inkscape:collect="always"
       xlink:href="#XMLID_4_"
       id="linearGradient5186"
       gradientUnits="userSpaceOnUse"
       gradientTransform="translate(148,19.999992)"
       x1="-13.757333"
       y1="76.708466"
       x2="-62.424866"
       y2="104.80668" />
    <linearGradient
       inkscape:collect="always"
       xlink:href="#linearGradient3260-0"
       id="linearGradient5188"
       gradientUnits="userSpaceOnUse"
       spreadMethod="reflect"
       x1="73.742638"
       y1="15.336544"
       x2="80"
       y2="19.281664" />
    <linearGradient
       inkscape:collect="always"
       xlink:href="#linearGradient3260-0"
       id="linearGradient5190"
       gradientUnits="userSpaceOnUse"
       spreadMethod="reflect"
       x1="73.742638"
       y1="15.336544"
       x2="80"
       y2="19.281664" />
    <radialGradient
       inkscape:collect="always"
       xlink:href="#linearGradient5412"
       id="radialGradient5192"
       gradientUnits="userSpaceOnUse"
       gradientTransform="matrix(1,0,0,0.8708964,0,2.3028957)"
       cx="73.656624"
       cy="17.83758"
       fx="73.656624"
       fy="17.83758"
       r="6.7806501" />
    <radialGradient
       inkscape:collect="always"
       xlink:href="#linearGradient4770"
       id="radialGradient5194"
       gradientUnits="userSpaceOnUse"
       gradientTransform="matrix(1,0,0,0.9256542,0,1.3235438)"
       cx="73.082359"
       cy="17.802542"
       fx="73.082359"
       fy="17.802542"
       r="6.2063885" />
    <linearGradient
       inkscape:collect="always"
       xlink:href="#linearGradient3260-0"
       id="linearGradient5196"
       gradientUnits="userSpaceOnUse"
       spreadMethod="reflect"
       x1="73.742638"
       y1="15.336544"
       x2="80"
       y2="19.281664" />
    <radialGradient
       inkscape:collect="always"
       xlink:href="#linearGradient3030"
       id="radialGradient5198"
       gradientUnits="userSpaceOnUse"
       gradientTransform="translate(0,-1.3e-5)"
       cx="104"
       cy="104"
       fx="104"
       fy="104"
       r="24" />
    <linearGradient
       inkscape:collect="always"
       xlink:href="#linearGradient3260-0"
       id="linearGradient5200"
       gradientUnits="userSpaceOnUse"
       spreadMethod="reflect"
       x1="73.742638"
       y1="15.336544"
       x2="80"
       y2="19.281664" />
    <radialGradient
       inkscape:collect="always"
       xlink:href="#XMLID_4_"
       id="radialGradient5202"
       gradientUnits="userSpaceOnUse"
       gradientTransform="translate(148,19.999992)"
       cx="-44"
       cy="84"
       fx="-40"
       fy="96"
       r="20" />
    <linearGradient
       inkscape:collect="always"
       xlink:href="#linearGradient3272"
       id="linearGradient5204"
       gradientUnits="userSpaceOnUse"
       gradientTransform="translate(85.3125,19.999992)"
       x1="11.68106"
       y1="60.539303"
       x2="11.68106"
       y2="108.0104" />
    <linearGradient
       inkscape:collect="always"
       xlink:href="#linearGradient3260-0"
       id="linearGradient5206"
       gradientUnits="userSpaceOnUse"
       gradientTransform="translate(85.30236,19.999992)"
       x1="6.6976352"
       y1="52"
       x2="11.68106"
       y2="96.001434" />
    <linearGradient
       inkscape:collect="always"
       xlink:href="#linearGradient3260-0"
       id="linearGradient5208"
       gradientUnits="userSpaceOnUse"
       gradientTransform="translate(85.30236,19.999992)"
       x1="26.697636"
       y1="96"
       x2="14.697635"
       y2="72" />
    <linearGradient
       inkscape:collect="always"
       xlink:href="#linearGradient3225"
       id="linearGradient5210"
       gradientUnits="userSpaceOnUse"
       gradientTransform="translate(3.99999,19.999992)"
       x1="79.75"
       y1="84"
       x2="120.25"
       y2="84" />
    <linearGradient
       id="linearGradient6330">
      <stop
         style="stop-color:#0968ef;stop-opacity:1;"
         offset="0"
         id="stop6332" />
      <stop
         style="stop-color:#aecffc;stop-opacity:1;"
         offset="1"
         id="stop6334" />
    </linearGradient>
    <linearGradient
       id="linearGradient4179">
      <stop
         style="stop-color:#ffffff;stop-opacity:0"
         offset="0"
         id="stop4181" />
      <stop
         style="stop-color:#ffffff;stop-opacity:1"
         offset="1"
         id="stop4183" />
    </linearGradient>
    <linearGradient
       id="linearGradient3489">
      <stop
         style="stop-color:#765c44;stop-opacity:1"
         offset="0"
         id="stop3491" />
      <stop
         style="stop-color:#765c44;stop-opacity:0"
         offset="1"
         id="stop3493" />
    </linearGradient>
    <linearGradient
       id="linearGradient3499">
      <stop
         style="stop-color:#ffffff;stop-opacity:1"
         offset="0"
         id="stop3501" />
      <stop
         style="stop-color:#ffffff;stop-opacity:0"
         offset="1"
         id="stop3503" />
    </linearGradient>
    <linearGradient
       id="linearGradient3397">
      <stop
         style="stop-color:#f4f5f8;stop-opacity:1"
         offset="0"
         id="stop3399" />
      <stop
         style="stop-color:#fdfdfe;stop-opacity:1"
         offset="1"
         id="stop3401" />
    </linearGradient>
    <linearGradient
       id="linearGradient3163">
      <stop
         style="stop-color:#fff5e4;stop-opacity:1"
         offset="0"
         id="stop3165" />
      <stop
         style="stop-color:#ffecd0;stop-opacity:1"
         offset="0.25"
         id="stop3173" />
      <stop
         style="stop-color:#ffd390;stop-opacity:1"
         offset="0.5"
         id="stop3171" />
      <stop
         style="stop-color:#ffc46a;stop-opacity:1"
         offset="1"
         id="stop3167" />
    </linearGradient>
    <linearGradient
       id="linearGradient3207">
      <stop
         style="stop-color:#ffffff;stop-opacity:1"
         offset="0"
         id="stop3209" />
      <stop
         style="stop-color:#790000;stop-opacity:0"
         offset="1"
         id="stop3211" />
    </linearGradient>
    <linearGradient
       x1="58.743717"
       y1="78.411346"
       x2="58.743717"
       y2="-15.688621"
       id="linearGradient3563"
       xlink:href="#linearGradient5826"
       gradientUnits="userSpaceOnUse"
       gradientTransform="translate(-96.166522)" />
    <clipPath
       id="clipPath3559">
      <path
         d="m -64.510272,10.75 c -1.042316,0.0084 -2.040208,0.423209 -2.78125,1.15625 L -84.260272,28.875 c -1.561474,1.562119 -1.561474,4.094131 0,5.65625 L -58.822772,60 l -25.4375,25.46875 c -1.561474,1.562119 -1.561474,4.094131 0,5.65625 l 16.96875,16.96875 c 1.562119,1.56147 4.094131,1.56147 5.65625,0 l 25.46875,-25.4375 25.46875,25.4375 c 1.5621191,1.56147 4.0941311,1.56147 5.6562501,0 L 11.927228,91.125 c 1.56147,-1.562119 1.56147,-4.094131 0,-5.65625 L -13.510272,60 11.927228,34.53125 c 1.56147,-1.562119 1.56147,-4.094131 0,-5.65625 L -5.0415219,11.90625 c -1.562119,-1.561474 -4.094131,-1.561474 -5.6562501,0 l -25.46875,25.4375 -25.46875,-25.4375 c -0.764077,-0.756011 -1.800247,-1.172731 -2.875,-1.15625 z m 31.1875,63.40625 c -0.751409,-0.759464 -1.775386,-1.18681 -2.84375,-1.18681 -1.068364,0 -2.092341,0.427346 -2.84375,1.18681 z"
         style="fill:url(#linearGradient3563);fill-opacity:1;stroke:none;stroke-width:8;stroke-linecap:round;stroke-linejoin:round;stroke-miterlimit:4;stroke-dashoffset:1.08780003;stroke-opacity:1"
         id="path3561"
         inkscape:connector-curvature="0" />
    </clipPath>
    <filter
       x="-0.11641854"
       width="1.2328371"
       y="-0.14803563"
       height="1.2960713"
       id="filter3549">
      <feGaussianBlur
         inkscape:collect="always"
         stdDeviation="2.5695681"
         id="feGaussianBlur3551" />
    </filter>
    <filter
       x="-0.13991599"
       width="1.279832"
       y="-0.13874064"
       height="1.2774813"
       id="filter3477">
      <feGaussianBlur
         inkscape:collect="always"
         stdDeviation="0.28784801"
         id="feGaussianBlur3479" />
    </filter>
    <filter
       id="filter3354">
      <feGaussianBlur
         inkscape:collect="always"
         stdDeviation="0.45754832"
         id="feGaussianBlur3356" />
    </filter>
    <linearGradient
       id="linearGradient5433">
      <stop
         style="stop-color:#ff0000;stop-opacity:1"
         offset="0"
         id="stop5435" />
      <stop
         style="stop-color:#7f0000;stop-opacity:1"
         offset="1"
         id="stop5437" />
    </linearGradient>
    <linearGradient
       id="linearGradient5826">
      <stop
         style="stop-color:#810000;stop-opacity:1"
         offset="0"
         id="stop5828" />
      <stop
         style="stop-color:#c50000;stop-opacity:1"
         offset="1"
         id="stop5830" />
    </linearGradient>
    <linearGradient
       id="linearGradient3366">
      <stop
         style="stop-color:#ff8787;stop-opacity:1"
         offset="0"
         id="stop3368" />
      <stop
         style="stop-color:#ff8787;stop-opacity:0"
         offset="1"
         id="stop4472" />
    </linearGradient>
    <linearGradient
       id="linearGradient3575">
      <stop
         style="stop-color:#000000;stop-opacity:1"
         offset="0"
         id="stop3577" />
      <stop
         style="stop-color:#000000;stop-opacity:0"
         offset="1"
         id="stop3579" />
    </linearGradient>
    <linearGradient
       x1="58.743717"
       y1="78.411346"
       x2="58.743717"
       y2="-15.688621"
       id="linearGradient3292"
       xlink:href="#linearGradient5826"
       gradientUnits="userSpaceOnUse"
       gradientTransform="matrix(0.9743255,0,0,0.9743255,5.5404775,5.5404852)" />
    <linearGradient
       x1="26.091133"
       y1="14.856744"
       x2="31.500689"
       y2="14.856744"
       id="linearGradient3294"
       xlink:href="#linearGradient3499"
       gradientUnits="userSpaceOnUse"
       gradientTransform="scale(1.0975951,0.9110828)" />
    <linearGradient
       x1="26.091133"
       y1="14.856744"
       x2="31.500689"
       y2="14.856744"
       id="linearGradient3296"
       xlink:href="#linearGradient3489"
       gradientUnits="userSpaceOnUse"
       gradientTransform="scale(1.0975951,0.9110828)" />
    <linearGradient
       x1="304.88663"
       y1="385.86127"
       x2="345.62039"
       y2="384.62384"
       id="linearGradient3298"
       xlink:href="#linearGradient3489"
       gradientUnits="userSpaceOnUse" />
    <linearGradient
       x1="55.007042"
       y1="88.460976"
       x2="55.007042"
       y2="36.655769"
       id="linearGradient3301"
       xlink:href="#linearGradient5433"
       gradientUnits="userSpaceOnUse"
       gradientTransform="matrix(0.9743255,0,0,0.9743255,5.5404775,5.5404852)" />
    <linearGradient
       x1="31.90625"
       y1="13.510336"
       x2="34.875107"
       y2="13.510336"
       id="linearGradient3304"
       xlink:href="#linearGradient3366"
       gradientUnits="userSpaceOnUse"
       gradientTransform="translate(56.7)"
       spreadMethod="reflect" />
    <radialGradient
       cx="-36.592777"
       cy="90.072952"
       r="25.986174"
       fx="-36.592777"
       fy="90.072952"
       id="radialGradient3306"
       xlink:href="#linearGradient3575"
       gradientUnits="userSpaceOnUse"
       gradientTransform="matrix(0.4576062,0,0,0.782313,-19.847694,18.82067)" />
    <linearGradient
       x1="31.90625"
       y1="13.510336"
       x2="34.875107"
       y2="13.510336"
       id="linearGradient3310"
       xlink:href="#linearGradient3207"
       gradientUnits="userSpaceOnUse"
       gradientTransform="translate(-0.3)"
       spreadMethod="reflect" />
    <linearGradient
       x1="31.90625"
       y1="13.510336"
       x2="34.875107"
       y2="13.510336"
       id="linearGradient3312"
       xlink:href="#linearGradient3207"
       gradientUnits="userSpaceOnUse"
       gradientTransform="translate(56.7)"
       spreadMethod="reflect" />
    <linearGradient
       x1="59.999996"
       y1="92.973083"
       x2="57.434441"
       y2="55.07938"
       id="linearGradient3314"
       xlink:href="#linearGradient3163"
       gradientUnits="userSpaceOnUse" />
    <linearGradient
       x1="68.313011"
       y1="109.97649"
       x2="51.544849"
       y2="32.750854"
       id="linearGradient3316"
       xlink:href="#linearGradient3397"
       gradientUnits="userSpaceOnUse"
       gradientTransform="matrix(1.381268,0,0,0.6872743,5.5404775,5.5404852)" />
    <linearGradient
       x1="47.264141"
       y1="21.738457"
       x2="47.264141"
       y2="70.357269"
       id="linearGradient3318"
       xlink:href="#linearGradient3366"
       gradientUnits="userSpaceOnUse"
       gradientTransform="matrix(0.9743255,0,0,0.9743255,5.5404775,5.5404852)" />
    <linearGradient
       x1="57.654171"
       y1="71.824867"
       x2="56.770992"
       y2="20.362558"
       id="linearGradient3320"
       xlink:href="#linearGradient4179"
       gradientUnits="userSpaceOnUse"
       gradientTransform="matrix(0.9743255,0,0,0.9743255,5.5526549,6.7583898)" />
    <radialGradient
       r="29.958668"
       fy="18.270697"
       fx="54.83873"
       cy="36.077316"
       cx="55.369141"
       gradientTransform="matrix(1.0732128,0,0,1.0016658,-3.0892676,-0.94553)"
       gradientUnits="userSpaceOnUse"
       id="radialGradient4105"
       xlink:href="#linearGradient3637"
       inkscape:collect="always" />
    <radialGradient
       r="29.958668"
       fy="32.667538"
       fx="59.612423"
       cy="32.667538"
       cx="59.612423"
       gradientTransform="matrix(1.0732128,0,0,1.0016658,-3.0892676,-0.94553)"
       gradientUnits="userSpaceOnUse"
       id="radialGradient4103"
       xlink:href="#linearGradient3637"
       inkscape:collect="always" />
    <radialGradient
       r="3.8909853"
       fy="25.895178"
       fx="76.61216"
       cy="25.895178"
       cx="76.61216"
       gradientUnits="userSpaceOnUse"
       id="radialGradient4101"
       xlink:href="#linearGradient3353"
       inkscape:collect="always" />
    <radialGradient
       r="29.958668"
       fy="16.636555"
       fx="71.005272"
       cy="32.737198"
       cx="63.491623"
       gradientTransform="matrix(0.8355412,0,0,0.8355412,9.54541,6.1308791)"
       gradientUnits="userSpaceOnUse"
       id="radialGradient4099"
       xlink:href="#linearGradient3649"
       inkscape:collect="always" />
    <linearGradient
       y2="46.802841"
       x2="63.060799"
       y1="48.852509"
       x1="63.060799"
       gradientTransform="matrix(1.1244522,0,0,1.1796394,-6.8636617,0.8722514)"
       gradientUnits="userSpaceOnUse"
       id="linearGradient4097"
       xlink:href="#linearGradient3784"
       inkscape:collect="always" />
    <linearGradient
       y2="46.289307"
       x2="63.060799"
       y1="49.136856"
       x1="63.060799"
       gradientUnits="userSpaceOnUse"
       id="linearGradient4015"
       xlink:href="#linearGradient3784"
       inkscape:collect="always" />
    <radialGradient
       r="37.245823"
       fy="79.677887"
       fx="64.195038"
       cy="79.677887"
       cx="64.195038"
       gradientTransform="matrix(0.8587942,-4.751994e-8,6.9369213e-8,1.2536606,-118.09908,-11.053045)"
       gradientUnits="userSpaceOnUse"
       id="radialGradient4011"
       xlink:href="#linearGradient3983"
       inkscape:collect="always" />
    <linearGradient
       y2="36.603489"
       x2="75.630875"
       y1="115.03548"
       x1="75.630875"
       gradientUnits="userSpaceOnUse"
       id="linearGradient4009"
       xlink:href="#linearGradient3993"
       inkscape:collect="always" />
    <radialGradient
       r="2.951782"
       fy="73.794548"
       fx="78.624741"
       cy="73.794548"
       cx="78.624741"
       gradientTransform="matrix(1,0,0,1.4545454,0,-33.542972)"
       gradientUnits="userSpaceOnUse"
       id="radialGradient4007"
       xlink:href="#linearGradient3680"
       inkscape:collect="always" />
    <radialGradient
       r="37.245823"
       fy="68.984039"
       fx="73.474037"
       cy="72.806175"
       cx="65.091911"
       gradientTransform="matrix(0.8857833,-5.6346668e-8,9.0898957e-8,1.2349439,7.3855409,-16.106235)"
       gradientUnits="userSpaceOnUse"
       id="radialGradient4002"
       xlink:href="#linearGradient3649"
       inkscape:collect="always" />
    <radialGradient
       r="37.245823"
       fy="72.806175"
       fx="65.091911"
       cy="72.806175"
       cx="65.091911"
       gradientTransform="matrix(0.9604149,-9.1487252e-8,2.27387e-7,2.3870633,187.82913,-102.1632)"
       gradientUnits="userSpaceOnUse"
       id="radialGradient3676"
       xlink:href="#linearGradient3649"
       inkscape:collect="always" />
    <radialGradient
       r="37.245823"
       fy="79.677887"
       fx="64.195038"
       cy="79.677887"
       cx="64.195038"
       gradientTransform="matrix(0.8145193,-4.5070062e-8,6.5792902e-8,1.1890285,-115.25685,-4.1095347)"
       gradientUnits="userSpaceOnUse"
       id="radialGradient3981"
       xlink:href="#linearGradient3649"
       inkscape:collect="always" />
    <radialGradient
       r="29.958668"
       fy="16.636555"
       fx="71.005272"
       cy="32.737198"
       cx="63.491623"
       gradientTransform="matrix(0.8355412,0,0,0.8355412,9.54541,6.1308791)"
       gradientUnits="userSpaceOnUse"
       id="radialGradient3743"
       xlink:href="#linearGradient3649"
       inkscape:collect="always" />
    <linearGradient
       y2="7.9285941"
       x2="120"
       y1="120"
       x1="120"
       gradientTransform="translate(-67.873074,-150.36201)"
       gradientUnits="userSpaceOnUse"
       id="linearGradient9730"
       xlink:href="#linearGradient3517"
       inkscape:collect="always" />
    <linearGradient
       id="linearGradient3517">
      <stop
         style="stop-color:#403a3a;stop-opacity:1;"
         offset="0"
         id="stop3519" />
      <stop
         style="stop-color:#6a5252;stop-opacity:1;"
         offset="1"
         id="stop3521" />
    </linearGradient>
    <clipPath
       clipPathUnits="userSpaceOnUse"
       id="clipPath3662">
      <path
         sodipodi:nodetypes="ccccccccccccccccccccccccccccccccccccccccccccccccccccc"
         id="use3664"
         d="m -23.029324,-146.61201 c -5.531616,-0.24083 -10.64527,3.53552 -12,8.96875 -2.1e-5,0.0104 -2.1e-5,0.0208 0,0.0312 l -2.8125,11.40625 h -6.03125 c -6.441349,0 -11.84375,5.4024 -11.84375,11.84375 v 8 c 0,5.84595 4.517586,10.626564 10.15625,11.5 l -4.125,16.65625 h -6.1875 c -6.441349,0 -11.84375,5.402402 -11.84375,11.84375 v 8 c 0,5.890458 4.58168,10.71459 10.28125,11.53125 l -0.84375,3.4375 c -1.553679,6.23113 2.382454,12.78725 8.625,14.34375 l 7.78125,1.9375 c 6.231123,1.55368 12.818494,-2.3825 14.375,-8.625 2.1e-5,-0.01042 2.1e-5,-0.02083 0,-0.03125 l 2.65625,-10.75 h 14.65625 l -0.78125,3.125 c -1.553681,6.23114 2.382455,12.78725 8.625,14.34375 l 7.78125,1.9375 c 6.213771,1.54936 12.804599,-2.45209 14.34375,-8.625 2.1e-5,-0.01042 2.1e-5,-0.02083 0,-0.03125 l 2.65625,-10.75 h 9.6875 c 6.44135,0 11.84375,-5.402396 11.84375,-11.84375 v -8 c 0,-6.441353 -5.4024,-11.84375 -11.84375,-11.84375 h -1.875 l 4.03125,-16.3125 h 9.84375 c 6.44135,0 11.84375,-5.402396 11.84375,-11.84375 v -8 c 0,-6.44135 -5.4024,-11.84375 -11.84375,-11.84375 h -2.03125 l 0.9375,-3.78125 c 1.55369,-6.23115 -2.3825,-12.78724 -8.625,-14.34375 l -7.78125,-1.9375 c -6.231121,-1.55367 -12.818487,2.38251 -14.375,8.625 -2.1e-5,0.0104 -2.1e-5,0.0208 0,0.0312 l -2.8125,11.40625 h -14.625 l 0.9375,-3.78125 c 1.571025,-6.30072 -2.431097,-12.79157 -8.65625,-14.34375 l -7.75,-1.9375 c -0.677154,-0.16884 -1.43324,-0.30275 -2.375,-0.34375 z m 10.03125,52.09375 h 14.625 l -4.03125,16.3125 h -14.625 z"
         style="fill:url(#linearGradient9730);fill-opacity:1;stroke:none;stroke-width:1.20000005;stroke-linecap:round;stroke-linejoin:round;stroke-miterlimit:4;stroke-dashoffset:0;stroke-opacity:1"
         inkscape:connector-curvature="0" />
    </clipPath>
    <linearGradient
       id="linearGradient3353"
       inkscape:collect="always">
      <stop
         id="stop3355"
         offset="0"
         style="stop-color:#ffffff;stop-opacity:1;" />
      <stop
         id="stop3357"
         offset="1"
         style="stop-color:#ffffff;stop-opacity:0;" />
    </linearGradient>
    <linearGradient
       id="linearGradient3637">
      <stop
         id="stop3639"
         offset="0"
         style="stop-color:#ffffff;stop-opacity:0;" />
      <stop
         style="stop-color:#f2efef;stop-opacity:0;"
         offset="0.5"
         id="stop3645" />
      <stop
         id="stop3647"
         offset="0.81488997"
         style="stop-color:#5d4a4a;stop-opacity:0;" />
      <stop
         style="stop-color:#b6a1a1;stop-opacity:0.49803922;"
         offset="0.89840978"
         id="stop3657" />
      <stop
         id="stop3641"
         offset="1"
         style="stop-color:#e6e0e0;stop-opacity:1;" />
    </linearGradient>
    <linearGradient
       id="linearGradient3649">
      <stop
         id="stop3651"
         offset="0"
         style="stop-color:#f7f4f4;stop-opacity:1;" />
      <stop
         id="stop3653"
         offset="1"
         style="stop-color:#5c4a4a;stop-opacity:1" />
    </linearGradient>
    <linearGradient
       id="linearGradient3983">
      <stop
         style="stop-color:#f7f4f4;stop-opacity:1;"
         offset="0"
         id="stop3985" />
      <stop
         style="stop-color:#4d3e3e;stop-opacity:1;"
         offset="1"
         id="stop3987" />
    </linearGradient>
    <linearGradient
       id="linearGradient3993">
      <stop
         id="stop3995"
         offset="0"
         style="stop-color:#362b2b;stop-opacity:1;" />
      <stop
         id="stop3997"
         offset="1"
         style="stop-color:#5f5151;stop-opacity:1" />
    </linearGradient>
    <linearGradient
       id="linearGradient3680"
       inkscape:collect="always">
      <stop
         id="stop3682"
         offset="0"
         style="stop-color:#f3f0f0;stop-opacity:1;" />
      <stop
         id="stop3684"
         offset="1"
         style="stop-color:#f3f0f0;stop-opacity:0;" />
    </linearGradient>
    <linearGradient
       id="linearGradient3784"
       inkscape:collect="always">
      <stop
         id="stop3786"
         offset="0"
         style="stop-color:#5c4f4f;stop-opacity:1" />
      <stop
         id="stop3788"
         offset="1"
         style="stop-color:#af9f9f;stop-opacity:1" />
    </linearGradient>
    <radialGradient
       inkscape:collect="always"
       xlink:href="#linearGradient3649"
       id="radialGradient5455"
       gradientUnits="userSpaceOnUse"
       gradientTransform="matrix(0.8857833,-5.6346668e-8,9.0898957e-8,1.2349439,151.21332,-34.464573)"
       cx="65.091911"
       cy="72.806175"
       fx="73.474037"
       fy="68.984039"
       r="37.245823" />
  </defs>
  <sodipodi:namedview
     id="base"
     pagecolor="#ffffff"
     bordercolor="#666666"
     borderopacity="1.0"
     inkscape:pageopacity="0.0"
     inkscape:pageshadow="2"
     inkscape:zoom="15.999999"
     inkscape:cx="13.632579"
     inkscape:cy="18.267092"
     inkscape:document-units="px"
     inkscape:current-layer="g200"
     height="88px"
     width="88px"
     showborder="true"
     inkscape:showpageshadow="false"
     showgrid="true"
     inkscape:window-width="1366"
     inkscape:window-height="706"
     inkscape:window-x="0"
     inkscape:window-y="0"
     showguides="true"
     inkscape:guide-bbox="true"
     inkscape:object-paths="false"
     inkscape:object-nodes="true"
     objecttolerance="1"
     gridtolerance="18"
     inkscape:snap-bbox="true"
     inkscape:window-maximized="1"
     inkscape:snap-global="true">
    <inkscape:grid
       type="xygrid"
       id="grid2445"
       spacingx="0.5"
       spacingy="0.5"
       empspacing="2"
       visible="true"
       enabled="true"
       originx="0"
       originy="0" />
  </sodipodi:namedview>
  <metadata
     id="metadata3413">
    <rdf:RDF>
      <cc:Work
         rdf:about="">
        <dc:format>image/svg+xml</dc:format>
        <dc:type
           rdf:resource="http://purl.org/dc/dcmitype/StillImage" />
        <dc:title></dc:title>
      </cc:Work>
    </rdf:RDF>
  </metadata>
  <g
     inkscape:label="Livello 1"
     inkscape:groupmode="layer"
     id="layer1"
     transform="translate(0,-104)">
    <g
       id="g200"
       transform="matrix(0.171875,0,0,0.171875,2,106)">
      <path
         style="opacity:1;fill:#0968ef;fill-opacity:1;stroke:none;stroke-width:1.07605731;stroke-linecap:square;stroke-linejoin:bevel;stroke-miterlimit:4;stroke-dasharray:none;stroke-dashoffset:0;stroke-opacity:1"
         d="m 23.994141,10.015625 c -3.660694,-0.0021 -7.299395,1.504071 -9.888672,4.091797 -2.58937,2.587805 -4.097636,6.225902 -4.097657,9.886719 -1.8e-5,0.002 -1.8e-5,0.0039 0,0.0059 h 1.056641 l -0.0059,-0.0059 0.0059,-0.31836 c -0.01725,0.702795 0.04427,-1.018566 0.0098,-0.316406 -0.0345,0.702161 0.07126,-1.017508 0.01953,-0.316406 -0.05173,0.701102 0.09627,-1.016027 0.02734,-0.316407 -0.06893,0.699621 0.121239,-1.014124 0.03516,-0.316406 -0.08608,0.697717 0.146154,-1.009846 0.04297,-0.314453 -0.103186,0.695395 0.171008,-1.005151 0.05078,-0.3125 -0.120227,0.692651 0.195789,-1.00199 0.05859,-0.3125 -0.137195,0.68949 0.218534,-0.996461 0.06445,-0.310547 -0.154081,0.685916 0.245092,-0.990519 0.07422,-0.308594 -0.170874,0.681926 0.267641,-0.984165 0.08008,-0.30664 -0.187564,0.677526 0.293984,-0.977403 0.08984,-0.304688 -0.204141,0.672716 0.316297,-0.970237 0.0957,-0.302734 -0.220594,0.667501 0.34043,-0.962665 0.103515,-0.300781 -0.236915,0.661885 0.362468,-0.952745 0.109375,-0.296875 -0.253093,0.655868 0.388259,-0.94438 0.119141,-0.294922 -0.269119,0.649458 0.409982,-0.933671 0.125,-0.291016 -0.284982,0.642654 0.431532,-0.924527 0.130859,-0.289062 -0.300673,0.635465 0.456808,-0.913048 0.140625,-0.285156 -0.316183,0.627891 0.477987,-0.901191 0.146485,-0.28125 -0.331503,0.61994 0.498966,-0.890912 0.152343,-0.279297 -0.346622,0.611615 0.52169,-0.876359 0.160157,-0.273438 -0.361533,0.602921 0.542241,-0.863395 0.166015,-0.269531 -0.376226,0.593863 0.56452,-0.852026 0.173828,-0.267578 -0.390692,0.584448 0.584611,-0.834446 0.179688,-0.259766 -0.404923,0.57468 0.604456,-0.822379 0.185547,-0.257812 -0.418909,0.564566 0.624049,-0.806065 0.191406,-0.251954 -0.432643,0.554112 0.645335,-0.79137 0.199219,-0.248046 -0.446117,0.543323 0.664398,-0.776348 0.205078,-0.244141 -0.459321,0.532207 0.681232,-0.757099 0.208984,-0.236328 -0.472248,0.52077 0.701688,-0.741442 0.216797,-0.232422 -0.48489,0.50902 0.717944,-0.725478 0.220703,-0.228516 -0.497254,0.496961 0.737819,-0.705306 0.228516,-0.220703 -0.509304,0.484604 0.753468,-0.688752 0.232422,-0.216797 -0.521047,0.471955 0.770756,-0.668006 0.238281,-0.208984 -0.532475,0.459022 0.78577,-0.650891 0.242187,-0.205078 -0.543582,0.445812 0.80241,-0.6296 0.248047,-0.197266 -0.554362,0.432334 0.816762,-0.611954 0.251953,-0.193359 -0.564808,0.418595 0.832727,-0.590151 0.257813,-0.185547 -0.574914,0.404604 0.846392,-0.570056 0.261719,-0.179687 -0.584674,0.390368 0.859705,-0.547774 0.265625,-0.171876 -0.59408,0.375899 0.874613,-0.527217 0.271484,-0.166015 -0.603129,0.361201 0.885251,-0.506443 0.273438,-0.160156 -0.611814,0.346286 0.897474,-0.485461 0.277343,-0.154297 -0.62013,0.331163 0.911276,-0.460372 0.283204,-0.144532 -0.628073,0.315841 0.920792,-0.438998 0.285156,-0.138671 -0.635637,0.300327 0.929927,-0.417446 0.287109,-0.132813 -0.642818,0.284633 0.94258,-0.393767 0.292969,-0.125 -0.649612,0.268767 0.950935,-0.369926 0.294922,-0.117187 -0.656014,0.252739 0.958895,-0.347887 0.296875,-0.111329 -0.662021,0.236559 0.96841,-0.323751 0.300781,-0.103515 -0.667627,0.220236 0.975568,-0.299484 0.302734,-0.0957 -0.672833,0.203781 0.982321,-0.275093 0.304688,-0.08789 -0.677633,0.187202 0.988665,-0.250589 0.30664,-0.08008 -0.682023,0.170511 0.994598,-0.227936 0.308594,-0.07422 -0.686005,0.153717 1.000119,-0.201284 0.310547,-0.06445 -0.68957,0.136831 1.005221,-0.178455 0.3125,-0.05859 -0.692723,0.119862 1.007956,-0.153601 0.3125,-0.05078 -0.695456,0.102821 1.012224,-0.126733 0.314453,-0.04102 -0.697769,0.08572 1.016071,-0.103718 0.316406,-0.03516 -0.699664,0.06856 1.017544,-0.07871 0.316407,-0.02734 -0.701135,0.05137 1.018592,-0.05367 0.316406,-0.01953 -0.702186,0.03414 1.019219,-0.02861 0.316406,-0.01172 L 24,11.078136 l 0.0058,-1.050792 z"
         transform="matrix(5.8181818,0,0,5.8181818,-11.636364,-11.636364)"
         id="path3558"
         inkscape:connector-curvature="0"
         sodipodi:nodetypes="cccccccssccsssscssssccsssccssssssccsccsssssssccccssssssssssssssccscccccc" />
      <text
         transform="rotate(-42.461646)"
         x="-35.979313"
         y="83.927818"
         id="text4875"
         style="font-style:normal;font-weight:normal;font-size:103.66881561px;line-height:125%;font-family:sans-serif;letter-spacing:0px;word-spacing:0px;fill:#000000;fill-opacity:1;stroke:none;stroke-width:2.5917201px;stroke-linecap:butt;stroke-linejoin:miter;stroke-opacity:1"
         xml:space="preserve"><tspan
           style="font-style:normal;font-variant:normal;font-weight:normal;font-stretch:normal;font-family:FreeSerif;-inkscape-font-specification:FreeSerif;stroke-width:2.5917201px"
           y="83.927818"
           x="-35.979313"
           id="tspan4873"
           sodipodi:role="line">A</tspan></text>
    </g>
  </g>
</svg>
