<?xml version="1.0" encoding="UTF-8" standalone="no"?>
<svg
   xmlns:dc="http://purl.org/dc/elements/1.1/"
   xmlns:cc="http://creativecommons.org/ns#"
   xmlns:rdf="http://www.w3.org/1999/02/22-rdf-syntax-ns#"
   xmlns:svg="http://www.w3.org/2000/svg"
   xmlns="http://www.w3.org/2000/svg"
   xmlns:sodipodi="http://sodipodi.sourceforge.net/DTD/sodipodi-0.dtd"
   xmlns:inkscape="http://www.inkscape.org/namespaces/inkscape"
   enable-background="new 0 0 128 128"
   height="24"
   viewBox="0 0 24 24"
   width="24"
   version="1.1"
   id="svg3195"
   sodipodi:docname="lc_footnotedialog.svg"
   inkscape:version="0.92.4 (unknown)"
   inkscape:export-filename="/home/rizmut/Dokumen/Rizmut/Github/libreoffice-style-karasa-jaga/build/next/cmd/lc_footnotedialog.png"
   inkscape:export-xdpi="18"
   inkscape:export-ydpi="18">
  <metadata
     id="metadata3201">
    <rdf:RDF>
      <cc:Work
         rdf:about="">
        <dc:format>image/svg+xml</dc:format>
        <dc:type
           rdf:resource="http://purl.org/dc/dcmitype/StillImage" />
        <dc:title></dc:title>
      </cc:Work>
    </rdf:RDF>
  </metadata>
  <defs
     id="defs3199">
    <linearGradient
       id="l"
       gradientTransform="matrix(0,-0.91666666,0.91666666,0,-222.46483,182.99649)"
       gradientUnits="userSpaceOnUse"
       x1="182.28288"
       x2="182.28288"
       y1="238.96916"
       y2="344.42404">
      <stop
         offset="0"
         stop-color="#8e79b9"
         id="stop83" />
      <stop
         offset="1"
         stop-color="#462886"
         id="stop85" />
    </linearGradient>
    <linearGradient
       id="k"
       gradientTransform="matrix(0.91666666,0,0,0.70714284,-70.880812,26.624918)"
       gradientUnits="userSpaceOnUse"
       x1="154.28152"
       x2="154.28152"
       y1="104.82231"
       y2="115.19268">
      <stop
         offset="0"
         stop-color="#4c78fd"
         id="stop78" />
      <stop
         offset="1"
         stop-color="#85a2fe"
         id="stop80" />
    </linearGradient>
    <linearGradient
       id="a-4"
       gradientUnits="userSpaceOnUse"
       x1="98.9077"
       x2="98.9077"
       y1="46.5466"
       y2="162.9086">
      <stop
         offset="0"
         stop-color="#99999c"
         id="stop23494" />
      <stop
         offset=".5"
         stop-color="#9c9ca1"
         id="stop23496" />
      <stop
         offset="1"
         stop-color="#cdcdd1"
         id="stop23498" />
    </linearGradient>
    <linearGradient
       id="b-6"
       gradientUnits="userSpaceOnUse"
       x1="78.610847"
       x2="120.3435"
       y1="88.852417"
       y2="111.54715">
      <stop
         offset="0"
         stop-color="#fff"
         id="stop23501" />
      <stop
         offset="1"
         stop-color="#ccc"
         id="stop23503" />
    </linearGradient>
    <linearGradient
       id="c-9"
       gradientUnits="userSpaceOnUse"
       x1="88.38102"
       x2="130.48599"
       y1="1008.9966"
       y2="1015.6953">
      <stop
         offset="0"
         stop-color="#7b7b7b"
         id="stop23506" />
      <stop
         offset="1"
         stop-color="#797979"
         stop-opacity="0"
         id="stop23508" />
    </linearGradient>
    <clipPath
       id="d-4">
      <path
         inkscape:connector-curvature="0"
         d="M 41.355614,933.74432 H 125.29961 V 1051.266 H 41.355614 Z"
         id="path23511" />
    </clipPath>
    <filter
       style="color-interpolation-filters:sRGB"
       id="e-2"
       height="1.073732"
       width="1.13754"
       x="-0.068769999"
       y="-0.036866002">
      <feGaussianBlur
         stdDeviation="1.0557314"
         id="feGaussianBlur23514" />
    </filter>
    <linearGradient
       id="f-2"
       gradientUnits="userSpaceOnUse"
       x1="100.83452"
       x2="116.42799"
       y1="37.992622"
       y2="80.92411">
      <stop
         offset="0"
         stop-color="#fff"
         stop-opacity=".683453"
         id="stop23517" />
      <stop
         offset="1"
         stop-color="#fff"
         stop-opacity="0"
         id="stop23519" />
    </linearGradient>
    <linearGradient
       id="g-6"
       gradientTransform="matrix(0.58291629,0,0,0.66676377,62.177025,-566.68964)"
       gradientUnits="userSpaceOnUse"
       x1="63.011921"
       x2="63.011921"
       y1="945.89801"
       y2="1033.1569">
      <stop
         offset="0"
         stop-color="#545454"
         stop-opacity=".988"
         id="stop23522" />
      <stop
         offset="1"
         stop-color="#ebebeb"
         id="stop23524" />
    </linearGradient>
    <linearGradient
       id="h-3"
       gradientTransform="matrix(0.48045402,0,0,0.66178602,128.73476,-578.51587)"
       gradientUnits="userSpaceOnUse"
       x1="-60.535713"
       x2="-60.357143"
       y1="979.50507"
       y2="1009.505">
      <stop
         offset="0"
         stop-color="#979797"
         id="stop23527" />
      <stop
         offset=".148461"
         stop-color="#f6f6f6"
         id="stop23529" />
      <stop
         offset=".28399727"
         stop-color="#e2e2e2"
         id="stop23531" />
      <stop
         offset=".41198727"
         stop-color="#dedede"
         id="stop23533" />
      <stop
         offset=".41198727"
         stop-color="#f6f6f6"
         id="stop23535" />
      <stop
         offset="1"
         stop-color="#6b6b6b"
         id="stop23537" />
    </linearGradient>
    <linearGradient
       id="i-6"
       gradientTransform="matrix(0.480454,0,0,0.58309338,128.76683,499.76645)"
       gradientUnits="userSpaceOnUse"
       x1="-61.078979"
       x2="-60.6413"
       y1="-1056.658"
       y2="-1010.9131">
      <stop
         offset="0"
         stop-color="#777"
         id="stop23540" />
      <stop
         offset=".18176934"
         stop-color="#a8a8a8"
         id="stop23542" />
      <stop
         offset=".22864534"
         stop-color="#cdcdcd"
         id="stop23544" />
      <stop
         offset=".34561315"
         stop-color="#f7f7f7"
         id="stop23546" />
      <stop
         offset="1"
         stop-color="#fff"
         id="stop23548" />
    </linearGradient>
  </defs>
  <sodipodi:namedview
     pagecolor="#ffffff"
     bordercolor="#666666"
     borderopacity="1"
     objecttolerance="10"
     gridtolerance="10"
     guidetolerance="10"
     inkscape:pageopacity="0"
     inkscape:pageshadow="2"
     inkscape:window-width="1366"
     inkscape:window-height="714"
     id="namedview3197"
     showgrid="true"
     inkscape:zoom="42.072853"
     inkscape:cx="1.04568"
     inkscape:cy="26.797094"
     inkscape:window-x="0"
     inkscape:window-y="28"
     inkscape:window-maximized="1"
     inkscape:current-layer="g159"
     inkscape:snap-global="true">
    <inkscape:grid
       type="xygrid"
       id="grid3203"
       spacingx="0.5"
       spacingy="0.5" />
  </sodipodi:namedview>
  <linearGradient
     id="a"
     gradientUnits="userSpaceOnUse"
     x1="88.591797"
     x2="71.262016"
     y1="96.592697"
     y2="79.262917">
    <stop
       offset="0"
       stop-color="#fff"
       id="stop3097" />
    <stop
       offset="1"
       stop-color="#555753"
       id="stop3099" />
  </linearGradient>
  <linearGradient
     id="b"
     gradientUnits="userSpaceOnUse"
     x1="85.219681"
     x2="61.336319"
     y1="93.219681"
     y2="69.336319">
    <stop
       offset="0"
       id="stop3102" />
    <stop
       offset="1"
       stop-color="#393b38"
       id="stop3104" />
  </linearGradient>
  <linearGradient
     id="c"
     gradientUnits="userSpaceOnUse"
     x1="96"
     x2="88.000198"
     y1="104"
     y2="96.000198">
    <stop
       offset="0"
       stop-color="#888a85"
       id="stop3107" />
    <stop
       offset=".0072"
       stop-color="#8c8e89"
       id="stop3109" />
    <stop
       offset=".0673"
       stop-color="#abaca9"
       id="stop3111" />
    <stop
       offset=".1347"
       stop-color="#c5c6c4"
       id="stop3113" />
    <stop
       offset=".2115"
       stop-color="#dbdbda"
       id="stop3115" />
    <stop
       offset=".3012"
       stop-color="#ebebeb"
       id="stop3117" />
    <stop
       offset=".4122"
       stop-color="#f7f7f6"
       id="stop3119" />
    <stop
       offset=".5679"
       stop-color="#fdfdfd"
       id="stop3121" />
    <stop
       offset="1"
       stop-color="#fff"
       id="stop3123" />
  </linearGradient>
  <radialGradient
     id="d"
     cx="102"
     cy="112.3047"
     gradientTransform="matrix(0.94807,0,0,0.9510679,3.32352,5.274458)"
     gradientUnits="userSpaceOnUse"
     r="139.55859">
    <stop
       offset="0"
       stop-color="#535557"
       id="stop3126" />
    <stop
       offset=".11366145"
       stop-color="#898a8c"
       id="stop3128" />
    <stop
       offset=".20296688"
       stop-color="#ececec"
       id="stop3130" />
    <stop
       offset=".2363"
       stop-color="#fafafa"
       id="stop3132" />
    <stop
       offset=".2722"
       stop-color="#fff"
       id="stop3134" />
    <stop
       offset=".5313"
       stop-color="#fafafa"
       id="stop3136" />
    <stop
       offset=".8449"
       stop-color="#ebecec"
       id="stop3138" />
    <stop
       offset="1"
       stop-color="#e1e2e3"
       id="stop3140" />
  </radialGradient>
  <radialGradient
     id="e"
     cx="100.80984"
     cy="112.93461"
     gradientUnits="userSpaceOnUse"
     r="135.18756">
    <stop
       offset="0"
       stop-color="#3e3e3e"
       id="stop3143" />
    <stop
       offset=".0151"
       stop-color="#505050"
       id="stop3145" />
    <stop
       offset=".0558"
       stop-color="#7e7e7e"
       id="stop3147" />
    <stop
       offset=".1357"
       stop-color="#c6c6c6"
       id="stop3149" />
    <stop
       offset=".20990001"
       stop-color="#f1f1f1"
       id="stop3151" />
    <stop
       offset=".24349999"
       stop-color="#fcfcfc"
       id="stop3153" />
    <stop
       offset=".2722"
       stop-color="#fff"
       id="stop3155" />
  </radialGradient>
  <filter
     id="f">
    <feGaussianBlur
       stdDeviation="1.0394514"
       id="feGaussianBlur3158" />
  </filter>
  <filter
     id="g">
    <feGaussianBlur
       stdDeviation=".50063244"
       id="feGaussianBlur3161" />
  </filter>
  <filter
     id="h">
    <feGaussianBlur
       stdDeviation=".40750996"
       id="feGaussianBlur3164" />
  </filter>
  <filter
     id="i">
    <feGaussianBlur
       stdDeviation=".4901192"
       id="feGaussianBlur3167" />
  </filter>
  <filter
     id="j">
    <feGaussianBlur
       stdDeviation=".90565481"
       id="feGaussianBlur3170" />
  </filter>
  <g
     id="g3216"
     transform="matrix(1.0909091,0,0,1.0909091,-8.412198,-111.36259)">
    <g
       id="g159"
       transform="matrix(0.1875,0,0,0.1875,6.265335,100.81696)">
      <g
         id="g14267">
        <g
           id="g650"
           transform="translate(4.8885833)">
          <path
             sodipodi:nodetypes="ccsssscc"
             style="opacity:0.55342503;filter:url(#f)"
             inkscape:connector-curvature="0"
             d="m 27.845077,13.841705 0.02654,106.166145 h 56.286107 c 0.53,0 1.02161,-0.22945 1.414,-0.586 L 118.414,89.579469 c 0.39239,-0.356548 0.586,-0.884 0.586,-1.414 V 13.841705 Z"
             transform="matrix(1.0090419,0,0,1.003276,-7.641977,0.929762)"
             id="path3173" />
          <path
             sodipodi:nodetypes="ccsssscc"
             style="opacity:0.30684904;filter:url(#f)"
             inkscape:connector-curvature="0"
             d="m 27.845077,13.872922 0.02655,106.134928 H 84.15773 c 0.53,0 1.02161,-0.22945 1.414,-0.586 L 118.414,89.579469 c 0.39239,-0.356548 0.586,-0.884 0.586,-1.414 V 13.872922 Z"
             transform="matrix(1.0090419,0,0,1.003276,-7.641977,0.929762)"
             id="path3175" />
          <path
             sodipodi:nodetypes="cccccccc"
             style="opacity:0.89589;filter:url(#g)"
             inkscape:connector-curvature="0"
             d="m 29.750812,15.546194 -1.1e-5,102.331376 53.830924,-1e-4 c 0.53,0 1.039,-0.211 1.414,-0.586 L 116.494,88.511156 c 0.375,-0.375 0.586,-0.884 0.586,-1.414 l 0.0812,-71.550962 z"
             transform="matrix(1.0090419,0,0,1.003276,-7.641977,0.929762)"
             id="path3177" />
          <path
             sodipodi:nodetypes="ccsssscc"
             style="opacity:0.30684904;filter:url(#f)"
             inkscape:connector-curvature="0"
             d="m 27.845077,14.838439 0.02654,105.169411 h 56.286107 c 0.53,0 1.02161,-0.22945 1.414,-0.586 L 118.414,89.579469 c 0.39239,-0.356548 0.586,-0.884 0.586,-1.414 v -73.32703 z"
             transform="matrix(1.0090419,0,0,1.003276,-7.641977,0.929762)"
             id="path3179" />
          <path
             sodipodi:nodetypes="ccsccccc"
             inkscape:connector-curvature="0"
             style="fill:url(#e)"
             d="M 22.377839,16.526886 V 119.19349 h 54.36722 c 0.513401,0 1.006458,-0.20439 1.369714,-0.56765 L 109.929,89.821411 c 0.36326,-0.363255 0.56764,-0.856313 0.56764,-1.369714 l 0.0819,-71.924811 z"
             id="path3181" />
          <path
             sodipodi:nodetypes="cccsscccccc"
             inkscape:connector-curvature="0"
             style="fill:url(#d)"
             d="m 28.955742,22.40103 c -0.522387,0 -0.94807,0.42703 -0.94807,0.951069 l 0.307523,88.852961 c 0,0.525 0.425684,0.95108 0.94807,0.95108 h 47.210313 c 0.249342,0 0.493944,-0.10082 0.670284,-0.27867 L 105.2815,88.651213 c 0.17729,-0.17785 0.27778,-0.422273 0.27778,-0.672405 l -0.7,-64.604786 c 0,-0.524039 -0.42473,-0.951068 -0.94806,-0.951068 z"
             id="path3183" />
        </g>
        <path
           style="fill:#b3b3b3;stroke-width:0.99011308"
           sodipodi:nodetypes="ccccc"
           id="path114"
           d="m 37.044565,26.304474 h 68.444515 v 4.888895 H 37.044565 Z"
           inkscape:connector-curvature="0" />
        <path
           inkscape:connector-curvature="0"
           d="m 37.044555,36.082264 h 68.444525 v 4.888895 H 37.044555 Z"
           id="path14218"
           sodipodi:nodetypes="ccccc"
           style="fill:#b3b3b3;stroke-width:0.99011308" />
        <path
           inkscape:connector-curvature="0"
           d="m 37.04456,45.860054 h 68.44452 v 4.888895 H 37.04456 Z"
           id="path14220"
           sodipodi:nodetypes="ccccc"
           style="fill:#b3b3b3;stroke-width:0.99011308" />
        <path
           style="fill:#b3b3b3;stroke-width:0.99011308"
           sodipodi:nodetypes="ccccc"
           id="path14222"
           d="m 37.044551,55.637844 h 68.444529 v 4.888895 H 37.044551 Z"
           inkscape:connector-curvature="0" />
        <path
           style="fill:#b3b3b3;stroke-width:0.99011308"
           sodipodi:nodetypes="ccccc"
           id="path14224"
           d="m 37.044555,65.415634 h 68.444525 v 4.888895 H 37.044555 Z"
           inkscape:connector-curvature="0" />
        <path
           inkscape:connector-curvature="0"
           d="m 37.044546,75.193424 h 68.444534 v 4.888895 H 37.044546 Z"
           id="path14226"
           sodipodi:nodetypes="ccccc"
           style="fill:#b3b3b3;stroke-width:0.99011308" />
        <path
           inkscape:connector-curvature="0"
           d="m 37.044551,84.971214 h 68.444529 v 4.888895 H 37.044551 Z"
           id="path14228"
           sodipodi:nodetypes="ccccc"
           style="fill:#b3b3b3;stroke-width:0.99011308" />
        <path
           style="fill:#b3b3b3;stroke-width:0.99011308"
           sodipodi:nodetypes="ccccc"
           id="path14230"
           d="m 37.044541,94.749004 h 68.444539 v 4.888895 H 37.044541 Z"
           inkscape:connector-curvature="0" />
        <path
           inkscape:connector-curvature="0"
           style="fill:url(#k);stroke-width:0.91666669"
           d="M 56.600131,97.193451 H 81.044606 V 109.41569 H 56.600131 Z"
           id="path126"
           sodipodi:nodetypes="ccccc" />
        <g
           id="g3193"
           transform="matrix(1.1080161,0,0,1.1080161,-7.8562007,-10.01667)">
          <path
             id="path3185"
             d="m 111.52523,88.365747 c 0.26305,-0.236238 -24.821717,-1.141063 -29.856717,-1.141063 -1.654,0 -3,1.346 -3,3 0,5.035 1.211722,26.561276 1.474766,26.325036 z"
             style="opacity:0.75068497;fill:url(#a);filter:url(#h)"
             inkscape:connector-curvature="0"
             sodipodi:nodetypes="sssss" />
          <path
             id="path3187"
             d="m 111.52523,88.365747 c 0.39457,-0.354357 -20.412717,-0.141063 -29.856717,-0.141063 -1.103,0 -2,0.897 -2,2 0,9.444 0.0802,26.679386 0.474766,26.325036 z"
             inkscape:connector-curvature="0"
             style="opacity:0.2;filter:url(#j)"
             sodipodi:nodetypes="sssss" />
          <path
             id="path3189"
             d="m 111.52523,88.365747 c 0.25147,-0.225842 -20.049717,0.858937 -29.856717,0.858937 -0.553,0 -1,0.447 -1,1 0,9.806996 -0.776705,26.550876 -0.525234,26.325036 z"
             style="opacity:0.1;fill:url(#b);filter:url(#i)"
             inkscape:connector-curvature="0"
             sodipodi:nodetypes="sssss" />
          <path
             id="path3191"
             d="M 81.278898,116.44678 111.33835,89.585303 81.390132,90.03024 Z"
             style="fill:url(#c)"
             inkscape:connector-curvature="0"
             sodipodi:nodetypes="cccc" />
        </g>
        <path
           inkscape:connector-curvature="0"
           style="fill:#ff6600;stroke:none;stroke-width:0.69008499"
           d="m 46.822341,31.193369 h 44.000055 v 9.77779 H 46.822341 Z"
           id="path130"
           sodipodi:nodetypes="ccccc" />
        <path
           inkscape:connector-curvature="0"
           style="fill:url(#l);stroke-width:0.91666669"
           d="m 7.6766708,47.784675 c 0,-8.935325 6.9164082,-16.607443 15.9345072,-16.602688 l 21.586422,0.01138 c 0.808326,-9.17e-4 1.691369,0.882521 1.690104,1.690104 l -0.06536,6.659038 c 0.0011,0.808289 -0.882515,1.691369 -1.690104,1.690104 L 23.611178,41.032784 c -1.468716,-0.01364 -2.865577,0.292453 -4.010416,1.21637 -1.144839,0.923909 -2.070809,2.395501 -2.058696,4.116886 l 0.297621,42.295417 c 0.01033,1.468743 0.475931,2.86557 1.399842,4.010414 0.923911,1.144843 2.21224,2.298455 3.933416,2.269483 l 11.427159,-0.192351 v -8.075719 c 10e-4,-0.812445 0.332205,-1.340584 0.744791,-1.546875 0.540916,-0.270456 1.27247,-0.183396 1.747396,0.171875 l 14.361008,12.967694 0.02865,0.02869 0.114584,0.08589 c 0.04591,0.0495 0.09369,0.09732 0.143229,0.14323 0.888235,-1.077864 0.351217,0.0794 -0.257142,0.893915 -0.04954,0.04592 -0.09732,0.09369 -0.143229,0.143229 -0.03896,0.02759 -0.07717,0.05628 -0.114584,0.08589 l -0.02865,0.02869 -14.021998,14.334318 h -0.02865 c -0.24765,0.18061 -0.548098,0.30156 -0.916666,0.3151 -0.825274,0.0268 -1.548724,-0.72621 -1.546875,-1.69011 l -0.08186,-8.10803 -11.427155,0.19235 C 14.23889,104.86953 7.6766708,95.688406 7.6766708,86.670306 Z"
           id="path128"
           sodipodi:nodetypes="ssccccscssssccsccccccccccccccsss" />
      </g>
      <g
         id="g23583"
         transform="matrix(0.84027713,0,0,0.84027713,12.600067,11.620372)">
        <path
           id="path23567"
           d="m 69.8172,46.546616 h 58.181 v 81.453444 h -58.181 z"
           style="fill:url(#a-4)"
           inkscape:connector-curvature="0" />
        <path
           id="path23569"
           d="m 75.6353,52.3647 h 46.5448 v 69.81722 H 75.6353 Z"
           style="fill:url(#b-6)"
           inkscape:connector-curvature="0" />
        <path
           id="path23571"
           transform="matrix(0.69309305,0,0,0.69309305,41.153912,-600.6251)"
           d="m 92.81509,1029.6319 c 1.071428,1.4286 10.71429,15.3572 11.78571,13.5715 1.07143,-1.7858 26.42857,-25.3572 25,-26.7858 -1.42857,-1.4285 -33.928567,-41.78567 -33.928567,-41.78567 z"
           clip-path="url(#d-4)"
           style="opacity:0.68000034;fill:url(#c-9);fill-rule:evenodd;filter:url(#e-2)"
           inkscape:connector-curvature="0" />
        <path
           id="path23573"
           d="M 75.6353,52.3647 V 99.64533 C 89.806961,83.145235 109.17378,76.487988 122.17969,74.623047 V 52.365234 Z"
           style="fill:url(#f-2);fill-rule:evenodd"
           inkscape:connector-curvature="0" />
        <path
           id="path23575"
           d="m 87.2715,64.0009 h 23.2724 v 46.5448 H 87.2715 Z"
           style="fill:url(#g-6)"
           inkscape:connector-curvature="0" />
        <path
           id="path23577"
           d="M 89.925598,66.798828 H 107.61233 V 107.96351 H 89.925598 Z"
           inkscape:connector-curvature="0"
           style="fill:#535353" />
        <path
           id="path23579"
           d="m 93.0896,69.819 h 11.6362 V 87.2733 H 93.0896 Z"
           style="fill:url(#h-3)"
           inkscape:connector-curvature="0" />
        <path
           id="path23581"
           transform="scale(1,-1)"
           d="m 93.0896,-116.3638 h 11.6362 v 29.0905 H 93.0896 Z"
           style="fill:url(#i-6)"
           inkscape:connector-curvature="0" />
      </g>
    </g>
  </g>
</svg>
