<?xml version="1.0" encoding="UTF-8" standalone="no"?>
<svg
   xmlns:dc="http://purl.org/dc/elements/1.1/"
   xmlns:cc="http://creativecommons.org/ns#"
   xmlns:rdf="http://www.w3.org/1999/02/22-rdf-syntax-ns#"
   xmlns:svg="http://www.w3.org/2000/svg"
   xmlns="http://www.w3.org/2000/svg"
   xmlns:xlink="http://www.w3.org/1999/xlink"
   xmlns:sodipodi="http://sodipodi.sourceforge.net/DTD/sodipodi-0.dtd"
   xmlns:inkscape="http://www.inkscape.org/namespaces/inkscape"
   height="24"
   viewBox="0 0 6.3499999 6.3500002"
   width="24"
   version="1.1"
   id="svg197"
   sodipodi:docname="lc_formdesigntools.svg"
   inkscape:export-filename="/home/rizmut/Dokumen/Rizmut/Github/libreoffice-style-karasa-jaga/build/next/cmd/lc_formdesigntools.png"
   inkscape:export-xdpi="96"
   inkscape:export-ydpi="96"
   inkscape:version="0.92.4 (unknown)">
  <metadata
     id="metadata203">
    <rdf:RDF>
      <cc:Work
         rdf:about="">
        <dc:format>image/svg+xml</dc:format>
        <dc:type
           rdf:resource="http://purl.org/dc/dcmitype/StillImage" />
        <dc:title></dc:title>
      </cc:Work>
    </rdf:RDF>
  </metadata>
  <defs
     id="defs201">
    <linearGradient
       id="a-3"
       gradientUnits="userSpaceOnUse"
       x1="65.918159"
       x2="95.469009"
       y1="92.505585"
       y2="72.005585">
      <stop
         offset="0"
         stop-color="#382a23"
         id="stop2822" />
      <stop
         offset="1"
         stop-color="#753919"
         stop-opacity="0"
         id="stop2824" />
    </linearGradient>
    <filter
       style="color-interpolation-filters:sRGB"
       id="b-7"
       height="1.116259"
       width="1.1189719"
       x="-0.059486002"
       y="-0.058129001">
      <feGaussianBlur
         stdDeviation="2.3063507"
         id="feGaussianBlur2827" />
    </filter>
    <radialGradient
       id="c-4"
       cx="30.826572"
       cy="86.85881"
       gradientTransform="matrix(0.97177617,0,0,0.99360916,2.808391,-1.052321)"
       gradientUnits="userSpaceOnUse"
       r="48.221165">
      <stop
         offset="0"
         stop-color="#fff718"
         id="stop2830" />
      <stop
         offset="1"
         stop-color="#e77100"
         id="stop2832" />
    </radialGradient>
    <linearGradient
       id="d-5"
       gradientUnits="userSpaceOnUse"
       x1="-6.9534378"
       x2="66.845505"
       y1="100.30381"
       y2="77.467064">
      <stop
         offset="0"
         stop-color="#753919"
         id="stop2835" />
      <stop
         offset="1"
         stop-color="#753919"
         stop-opacity="0"
         id="stop2837" />
    </linearGradient>
    <radialGradient
       id="e-2"
       cx="45.885448"
       cy="75.050514"
       gradientTransform="matrix(0.97177617,0,0,0.99360916,2.808391,-1.052321)"
       gradientUnits="userSpaceOnUse"
       r="48.221165"
       xlink:href="#f-5" />
    <linearGradient
       id="f-5">
      <stop
         offset="0"
         stop-color="#31170a"
         id="stop2841" />
      <stop
         offset="1"
         stop-color="#542912"
         stop-opacity="0"
         id="stop2843" />
    </linearGradient>
    <radialGradient
       id="g-4"
       cx="-3.114552"
       cy="128.35297"
       gradientTransform="matrix(0.97177617,0,0,0.99360916,2.808391,-1.052321)"
       gradientUnits="userSpaceOnUse"
       r="48.221165"
       xlink:href="#f-5" />
    <linearGradient
       id="h-7"
       gradientUnits="userSpaceOnUse"
       x1="11.554377"
       x2="74.575577"
       xlink:href="#i-4"
       y1="103.21913"
       y2="90.586044" />
    <linearGradient
       id="i-4"
       gradientUnits="userSpaceOnUse"
       x1="28"
       x2="28"
       y1="57.5"
       y2="0">
      <stop
         offset="0"
         stop-color="#ffea00"
         id="stop2848" />
      <stop
         offset="1"
         stop-color="#fc0"
         id="stop2850" />
    </linearGradient>
    <linearGradient
       id="j-4"
       gradientUnits="userSpaceOnUse"
       x1="4.2660551"
       x2="89.204308"
       y1="115.05597"
       y2="115.05597">
      <stop
         offset="0"
         stop-color="#ffea00"
         id="stop2853" />
      <stop
         offset="1"
         stop-color="#dea200"
         id="stop2855" />
    </linearGradient>
    <linearGradient
       id="k-3"
       gradientUnits="userSpaceOnUse"
       x1="2.814214"
       x2="68.147888"
       y1="124.73762"
       y2="62.865772">
      <stop
         offset="0"
         stop-color="#ffeb4a"
         id="stop2858" />
      <stop
         offset="1"
         stop-color="#ffeb4a"
         stop-opacity="0"
         id="stop2860" />
    </linearGradient>
    <filter
       style="color-interpolation-filters:sRGB"
       id="l-0"
       height="1.035563"
       width="1.036448"
       x="-0.018224001"
       y="-0.017782001">
      <feGaussianBlur
         stdDeviation=".66328126"
         id="feGaussianBlur2863" />
    </filter>
    <linearGradient
       id="m-7"
       gradientUnits="userSpaceOnUse"
       x1="9.6108236"
       x2="2.2226479"
       xlink:href="#i-4"
       y1="58.780281"
       y2="105.91142" />
    <linearGradient
       id="n-8"
       gradientUnits="userSpaceOnUse"
       x1="1.90311"
       x2="32.767338"
       y1="44.651196"
       y2="82.160851">
      <stop
         offset="0"
         stop-color="#fff"
         id="stop2867" />
      <stop
         offset="1"
         stop-color="#fff"
         stop-opacity="0"
         id="stop2869" />
    </linearGradient>
  </defs>
  <sodipodi:namedview
     pagecolor="#ffffff"
     bordercolor="#666666"
     borderopacity="1"
     objecttolerance="10"
     gridtolerance="10"
     guidetolerance="10"
     inkscape:pageopacity="0"
     inkscape:pageshadow="2"
     inkscape:window-width="1366"
     inkscape:window-height="706"
     id="namedview199"
     showgrid="true"
     inkscape:zoom="14.289062"
     inkscape:cx="12.164551"
     inkscape:cy="6.609028"
     inkscape:window-x="0"
     inkscape:window-y="0"
     inkscape:window-maximized="1"
     inkscape:current-layer="g245">
    <inkscape:grid
       type="xygrid"
       id="grid205" />
  </sodipodi:namedview>
  <filter
     id="a">
    <feGaussianBlur
       stdDeviation="1.5999062"
       id="feGaussianBlur2" />
  </filter>
  <linearGradient
     id="b"
     gradientTransform="matrix(0.03116178,0,0,0.04506859,-0.483098,242.98515)"
     gradientUnits="userSpaceOnUse"
     x1="399.77466"
     x2="399.77466"
     y1="731.09662"
     y2="480.60214">
    <stop
       offset="0"
       stop-color="#cbcbcd"
       id="stop5" />
    <stop
       offset=".5"
       stop-color="#e0e0e2"
       id="stop7" />
    <stop
       offset="1"
       stop-color="#f2f2f2"
       id="stop9" />
  </linearGradient>
  <linearGradient
     id="c"
     gradientTransform="matrix(0.03116178,0,0,0.04506859,30.161964,334.14685)"
     gradientUnits="userSpaceOnUse"
     x1="-333.0289"
     x2="-333.0289"
     y1="-1473.6504"
     y2="-776.61371">
    <stop
       offset="0"
       stop-color="#fff"
       id="stop12" />
    <stop
       offset=".49140647"
       stop-color="#fff"
       id="stop14" />
    <stop
       offset="1"
       stop-color="#dcdcdc"
       id="stop16" />
  </linearGradient>
  <linearGradient
     id="d"
     gradientUnits="userSpaceOnUse"
     x1="20.012131"
     x2="20.012131"
     y1="281.60605"
     y2="275.44846">
    <stop
       offset="0"
       stop-color="#e8e8e8"
       id="stop19" />
    <stop
       offset=".234375"
       stop-color="#fff"
       id="stop21" />
    <stop
       offset=".69675177"
       stop-color="#ededed"
       id="stop23" />
    <stop
       offset=".90625"
       stop-color="#6c6c6c"
       id="stop25" />
    <stop
       offset="1"
       stop-color="#2b2b2b"
       id="stop27" />
  </linearGradient>
  <linearGradient
     id="e"
     gradientUnits="userSpaceOnUse"
     x1="10.775738"
     x2="12.315137"
     xlink:href="#f"
     y1="278.52725"
     y2="278.52725"
     gradientTransform="translate(3.1318854e-5,-2.3566683e-4)" />
  <linearGradient
     id="f">
    <stop
       offset="0"
       stop-color="#aaa"
       id="stop31" />
    <stop
       offset="1"
       stop-color="#aaa"
       stop-opacity="0"
       id="stop33" />
  </linearGradient>
  <linearGradient
     id="g"
     gradientUnits="userSpaceOnUse"
     x1="-30.787918"
     x2="-29.248518"
     xlink:href="#f"
     y1="278.52725"
     y2="278.52725"
     gradientTransform="translate(-3.1238115e-4,-2.3566683e-4)" />
  <linearGradient
     id="h"
     gradientTransform="matrix(0.35316395,0,0,0.33250146,-16.730027,-307.465)"
     gradientUnits="userSpaceOnUse"
     x1="101.3308"
     x2="101.3308"
     y1="51.34185"
     y2="66.668198">
    <stop
       offset="0"
       stop-color="#cbcbcd"
       id="stop37" />
    <stop
       offset=".66545075"
       stop-color="#e0e0e2"
       id="stop39" />
    <stop
       offset="1"
       stop-color="#fff"
       id="stop41" />
  </linearGradient>
  <filter
     id="i">
    <feGaussianBlur
       stdDeviation=".50622511"
       id="feGaussianBlur44" />
  </filter>
  <filter
     id="j"
     height="1.12069"
     width="1.119315"
     x="-0.059657998"
     y="-0.060345002"
     style="color-interpolation-filters:sRGB">
    <feGaussianBlur
       stdDeviation=".82504758"
       id="feGaussianBlur47" />
  </filter>
  <linearGradient
     id="k"
     gradientUnits="userSpaceOnUse"
     x1="24.78186"
     x2="24.78186"
     xlink:href="#l"
     y1="297.65903"
     y2="279.82874" />
  <linearGradient
     id="l">
    <stop
       offset="0"
       stop-color="#525252"
       id="stop51" />
    <stop
       offset="1"
       stop-color="#d8d8d8"
       id="stop53" />
  </linearGradient>
  <linearGradient
     id="m"
     gradientUnits="userSpaceOnUse"
     x1="15.8973"
     x2="32.987171"
     y1="287.61887"
     y2="287.61887">
    <stop
       offset="0"
       stop-color="#ebebeb"
       id="stop56" />
    <stop
       offset=".3164545"
       stop-color="#cacaca"
       id="stop58" />
    <stop
       offset=".58694273"
       stop-color="#c7c7c7"
       stop-opacity=".955882"
       id="stop60" />
    <stop
       offset=".84601915"
       stop-color="#cacaca"
       id="stop62" />
    <stop
       offset="1"
       stop-color="#dedede"
       id="stop64" />
  </linearGradient>
  <filter
     id="n"
     height="1.024"
     width="1.024"
     x="-0.012"
     y="-0.012"
     style="color-interpolation-filters:sRGB">
    <feGaussianBlur
       stdDeviation=".12785668"
       id="feGaussianBlur67" />
  </filter>
  <linearGradient
     id="o"
     gradientUnits="userSpaceOnUse"
     x1="24.701073"
     x2="24.733223"
     y1="281.36441"
     y2="294.21851">
    <stop
       offset="0"
       stop-color="#171a1c"
       id="stop70" />
    <stop
       offset="1"
       stop-color="#8ca0ac"
       id="stop72" />
  </linearGradient>
  <radialGradient
     id="p"
     cx="63.02887"
     cy="288.18738"
     gradientUnits="userSpaceOnUse"
     r="11.437257">
    <stop
       offset="0"
       stop-color="#7cb5fc"
       id="stop75" />
    <stop
       offset="1"
       stop-color="#0d5bab"
       id="stop77" />
  </radialGradient>
  <filter
     id="q"
     height="1.024"
     width="1.024"
     x="-0.012"
     y="-0.012"
     style="color-interpolation-filters:sRGB">
    <feGaussianBlur
       stdDeviation=".11169196"
       id="feGaussianBlur80" />
  </filter>
  <filter
     id="r"
     height="1.023839"
     width="1.024163"
     x="-0.012082"
     y="-0.01192"
     style="color-interpolation-filters:sRGB">
    <feGaussianBlur
       stdDeviation=".087289468"
       id="feGaussianBlur83" />
  </filter>
  <linearGradient
     id="s"
     gradientTransform="matrix(0.40992622,0,0,0.43732811,-1.243719,164.52807)"
     gradientUnits="userSpaceOnUse"
     x1="63.499996"
     x2="63.499996"
     y1="269.89706"
     y2="286.49451">
    <stop
       offset="0"
       stop-color="#e3f3fd"
       id="stop86" />
    <stop
       offset="1"
       stop-color="#a3d8f9"
       stop-opacity="0"
       id="stop88" />
  </linearGradient>
  <linearGradient
     id="t"
     gradientUnits="userSpaceOnUse"
     x1="24.470198"
     x2="24.669523"
     y1="278.72476"
     y2="284.19904">
    <stop
       offset="0"
       stop-color="#fcfcfc"
       id="stop91" />
    <stop
       offset="1"
       stop-color="#fcfcfc"
       stop-opacity="0"
       id="stop93" />
  </linearGradient>
  <radialGradient
     id="u"
     cx="67.73333"
     cy="277.9501"
     gradientTransform="matrix(-0.48115879,0,0,-0.48115879,54.943559,422.86662)"
     gradientUnits="userSpaceOnUse"
     r="7.5746908">
    <stop
       offset="0"
       stop-color="#bfbfbf"
       id="stop96" />
    <stop
       offset="1"
       stop-color="#dfdfdf"
       stop-opacity="0"
       id="stop98" />
  </radialGradient>
  <filter
     id="v"
     height="1.047739"
     width="1.048264"
     x="-0.024132"
     y="-0.023870001"
     style="color-interpolation-filters:sRGB">
    <feGaussianBlur
       stdDeviation=".9480859"
       id="feGaussianBlur101" />
  </filter>
  <radialGradient
     id="w"
     cx="21.273409"
     cy="276.88303"
     gradientUnits="userSpaceOnUse"
     r="6.794981">
    <stop
       offset="0"
       stop-color="#e10000"
       id="stop104" />
    <stop
       offset="1"
       stop-color="#851400"
       id="stop106" />
  </radialGradient>
  <radialGradient
     id="x"
     cx="21.273409"
     cy="276.88303"
     gradientUnits="userSpaceOnUse"
     r="6.794981">
    <stop
       offset="0"
       stop-color="#ffbfbf"
       id="stop109" />
    <stop
       offset="1"
       stop-color="#ffbfbf"
       stop-opacity="0"
       id="stop111" />
  </radialGradient>
  <linearGradient
     id="y"
     gradientUnits="userSpaceOnUse"
     x1="16.526453"
     x2="17.475842"
     xlink:href="#l"
     y1="277.83243"
     y2="281.63" />
  <radialGradient
     id="z"
     cx="17.52717"
     cy="278.68237"
     gradientUnits="userSpaceOnUse"
     r="2.4271595">
    <stop
       offset="0"
       stop-color="#e8e8e8"
       id="stop115" />
    <stop
       offset="1"
       stop-color="#c7c7c7"
       id="stop117" />
  </radialGradient>
  <filter
     id="A"
     height="1.08803"
     width="1.060909"
     x="-0.030454"
     y="-0.044015002"
     style="color-interpolation-filters:sRGB">
    <feGaussianBlur
       stdDeviation=".61981931"
       id="feGaussianBlur120" />
  </filter>
  <g
     transform="translate(0,-290.64999)"
     id="g195">
    <g
       id="g245"
       transform="matrix(0.171875,0,0,0.171875,0.5291667,245.42395)">
      <g
         id="g258"
         transform="translate(-1.539394,1.539394)">
        <path
           inkscape:connector-curvature="0"
           d="m 9.3814569,6.4002115 77.2233121,-3e-7 c 0.76597,0 1.413822,0.7286187 1.38261,1.63246 l 0.0056,22.3686248 -0.0056,42.368543 c -1.19e-4,0.90439 -0.616639,1.632491 -1.38261,1.63247 l -40.61166,-0.0011 -36.6116521,0.0011 c -0.765966,2.3e-5 -1.38249,-0.72808 -1.38261,-1.63247 l -0.00562,-42.368543 0.00562,-22.3686245 c 2.273e-4,-0.90438 0.616644,-1.63246 1.38261,-1.63246 z"
           style="opacity:0.4;fill:none;stroke:#000000;stroke-width:4;stroke-linecap:round;stroke-linejoin:round;stroke-dashoffset:4;filter:url(#a)"
           transform="matrix(0.38484968,0,0,0.38484968,-1.536797,265.28794)"
           id="path123"
           sodipodi:nodetypes="ssscsscsscss" />
        <path
           inkscape:connector-curvature="0"
           style="fill:url(#b)"
           d="M 2.0715161,267.75147 H 31.795157 c 0.294822,0 0.532174,0.28019 0.532174,0.62823 V 293.293 H 1.5393429 v -24.9133 c 0,-0.34804 0.2373492,-0.62823 0.5321732,-0.62823 z"
           id="path125"
           sodipodi:nodetypes="sssccss" />
        <path
           inkscape:connector-curvature="0"
           style="fill:url(#c)"
           d="m 2.0685125,267.75147 c -0.2948242,0 -0.5291684,0.27734 -0.5291684,0.62537 v 24.91901 c 0,0.34804 0.2343442,0.62538 0.5291684,0.62538 H 31.798163 c 0.294826,0 0.529168,-0.27734 0.529168,-0.62538 v -24.91901 c 0,-0.34803 -0.234342,-0.62537 -0.529168,-0.62537 z m 0.3607964,0.93807 H 31.437366 c 0.280083,0 0.505116,0.26273 0.505116,0.58929 v 23.66825 c 0,0.32656 -0.225033,0.58931 -0.505116,0.58931 H 2.4293089 c -0.2800827,0 -0.5051152,-0.26275 -0.5051152,-0.58931 v -23.66825 c 0,-0.32656 0.2250325,-0.58929 0.5051152,-0.58929 z"
           id="path127"
           sodipodi:nodetypes="ssssssssssssssssss" />
        <g
           transform="matrix(1.3845916,0,0,0.99998322,-11.841249,-1.5344)"
           id="g135">
          <rect
             style="fill:url(#d)"
             height="6.1576929"
             rx="1.078735"
             ry="1.539399"
             width="20.012465"
             x="10.775767"
             y="275.44809"
             id="rect129" />
          <rect
             style="fill:url(#e)"
             height="6.1575961"
             rx="1.040345"
             ry="1.539399"
             width="4.618197"
             x="10.775767"
             y="275.44818"
             id="rect131" />
          <rect
             style="fill:url(#g)"
             height="6.1575961"
             rx="0.96356899"
             ry="1.539399"
             transform="scale(-1,1)"
             width="4.6181951"
             x="-30.788233"
             y="275.44818"
             id="rect133" />
        </g>
        <rect
           style="fill-opacity:0.92485501;filter:url(#i)"
           height="12.74204"
           rx="1.9982409"
           ry="2.7470281"
           transform="matrix(0.35105195,0,0,-0.31938175,-43.618298,181.34637)"
           width="47.998806"
           x="146.29366"
           y="-344.5433"
           id="rect137" />
        <rect
           style="fill:url(#h);stroke-width:1.31099093"
           height="4.5423179"
           rx="1.0229492"
           ry="0.97844708"
           transform="scale(1,-1)"
           width="16.951447"
           x="7.687686"
           y="-290.79892"
           id="rect139" />
        <g
           aria-label="OK"
           style="font-size:4.63623619px;font-family:sans-serif;letter-spacing:0;word-spacing:0;stroke-width:0.115906"
           id="text143"
           transform="translate(0,1.539394)">
          <path
             d="m 13.358016,288.26333 q -0.445079,-0.49608 -0.445079,-1.27497 0,-0.77889 0.445079,-1.27496 0.449715,-0.49608 1.177604,-0.49608 0.732525,0 1.18224,0.49608 0.449715,0.49144 0.449715,1.29814 0,0.75107 -0.445079,1.25179 -0.440442,0.49607 -1.18224,0.49607 -0.737162,0 -1.18224,-0.49607 z m 1.18224,-2.45257 q -0.421898,0 -0.676891,0.32453 -0.254993,0.31991 -0.254993,0.85307 0,0.53317 0.254993,0.85771 0.254993,0.3199 0.676891,0.3199 0.417261,0 0.672254,-0.3199 0.259629,-0.3199 0.259629,-0.83916 0,-0.54708 -0.254993,-0.87162 -0.250356,-0.32453 -0.67689,-0.32453 z"
             style="font-weight:600;font-family:FreeSans;stroke-width:0.115906"
             id="path345"
             inkscape:connector-curvature="0" />
          <path
             d="m 17.415881,287.52153 v 1.13124 h -0.695435 v -3.37982 h 0.695435 v 1.4836 l 1.321328,-1.4836 h 0.820614 l -1.349145,1.45578 1.492868,1.92404 H 18.87166 l -1.108061,-1.49287 z"
             style="font-weight:600;font-family:FreeSans;stroke-width:0.115906"
             id="path347"
             inkscape:connector-curvature="0" />
        </g>
      </g>
      <g
         transform="matrix(0.26458334,0,0,0.26458334,-1.279078,264.40742)"
         id="g2984">
        <path
           style="fill:url(#a-3);filter:url(#b-7)"
           inkscape:connector-curvature="0"
           d="m 3.7599545,30.894267 c -1.5704891,0.0049 -2.8411906,1.279112 -2.84179695,2.849609 v 89.523444 c 6.1456e-4,1.57354 1.27606815,2.849 2.84960945,2.84961 h 87.351562 c 2.521216,-9.2e-4 3.800225,-3.03383 2.041016,-4.83985 L 5.8087826,31.753642 C 5.2701664,31.201889 4.5310145,30.891853 3.7599545,30.894267 Z M 17.940655,73.329381 52.969372,108.97333 H 17.940655 Z"
           transform="matrix(0.97177617,0,0,0.97177617,2.808391,0.715728)"
           id="path2962" />
        <path
           style="fill:url(#c-4)"
           inkscape:connector-curvature="0"
           d="m 4.7443515,33.143064 c -1.5261642,0.0048 -2.7610017,1.243011 -2.7615905,2.769183 v 86.996743 c 5.934e-4,1.52913 1.2400499,2.76859 2.7691825,2.76919 H 89.63811 c 2.450068,-8.9e-4 3.692983,-2.94821 1.983411,-4.70326 L 6.7353538,33.978185 C 6.2119395,33.442004 5.4936493,33.140719 4.7443515,33.143064 Z M 18.524818,74.380497 52.564891,109.01844 H 18.524818 Z"
           id="path2964" />
        <path
           style="fill:url(#d-5)"
           inkscape:connector-curvature="0"
           d="m 4.7443515,33.143064 c -1.5261642,0.0048 -2.7610017,1.243011 -2.7615905,2.769183 v 86.996743 c 5.934e-4,1.52913 1.2400499,2.76859 2.7691825,2.76919 H 89.63811 c 2.450068,-8.9e-4 3.692983,-2.94821 1.983411,-4.70326 L 6.7353538,33.978185 C 6.2119395,33.442004 5.4936493,33.140719 4.7443515,33.143064 Z M 18.524818,74.380497 52.564891,109.01844 H 18.524818 Z"
           id="path2966" />
        <path
           style="fill:url(#e-2)"
           inkscape:connector-curvature="0"
           d="m 4.7443515,33.143064 c -1.5261642,0.0048 -2.7610017,1.243011 -2.7615905,2.769183 v 86.996743 c 5.934e-4,1.52913 1.2400499,2.76859 2.7691825,2.76919 H 89.63811 c 2.450068,-8.9e-4 3.692983,-2.94821 1.983411,-4.70326 L 6.7353538,33.978185 C 6.2119395,33.442004 5.4936493,33.140719 4.7443515,33.143064 Z M 18.524818,74.380497 52.564891,109.01844 H 18.524818 Z"
           id="path2968" />
        <path
           style="fill:url(#g-4)"
           inkscape:connector-curvature="0"
           d="m 4.7443515,33.143064 c -1.5261642,0.0048 -2.7610017,1.243011 -2.7615905,2.769183 v 86.996743 c 5.934e-4,1.52913 1.2400499,2.76859 2.7691825,2.76919 H 89.63811 c 2.450068,-8.9e-4 3.692983,-2.94821 1.983411,-4.70326 L 6.7353538,33.978185 C 6.2119395,33.442004 5.4936493,33.140719 4.7443515,33.143064 Z M 14.524818,66.380497 60.564891,113.01844 H 14.524818 Z"
           id="path2970" />
        <path
           style="fill:url(#h-7)"
           inkscape:connector-curvature="0"
           d="M 4.7519435,35.912247 V 122.90899 H 89.63811 Z m 11.0036925,31.663918 43.38203,44.211455 h -43.38203 z"
           id="path2972" />
        <path
           style="fill:url(#j-4);fill-rule:evenodd"
           inkscape:connector-curvature="0"
           d="m 58.528407,111.16318 0.609259,0.62444 H 20.203565 L 4.7519435,122.55217 v 0.35682 H 89.01177 Z"
           id="path2974" />
        <path
           style="fill:none;stroke:url(#k-3);stroke-width:1.20000005;filter:url(#l-0)"
           inkscape:connector-curvature="0"
           d="m 2,36.21875 v 89.52344 H 89.351562 Z M 13.323279,68.802301 57.965277,114.29781 H 13.323279 Z"
           transform="matrix(0.97177617,0,0,0.97177617,2.808391,0.715728)"
           id="path2976" />
        <path
           style="fill:url(#m-7);fill-rule:evenodd"
           inkscape:connector-curvature="0"
           d="M 4.7519435,36.608813 V 122.90899 H 5.4143456 L 16.02705,107.78762 H 15.755636 V 73.754577 C 12.79387,68.333014 8.8027983,47.3926 4.7519435,36.608813 Z"
           id="path2978" />
        <path
           style="fill:url(#n-8);fill-rule:evenodd"
           inkscape:connector-curvature="0"
           d="M 4.7519435,37.170224 V 91.066238 L 15.413425,84.877071 V 67.975087 l 14.001841,12.150217 4.776487,-12.782659 z"
           id="path2980" />
        <path
           style="fill:#ffffff"
           inkscape:connector-curvature="0"
           d="M 4.7519435,35.912247 V 122.90899 H 5.4807756 V 36.660058 Z M 16.484468,68.062053 v 0.261925 L 59.137666,111.78762 H 16.484468 v 0.48589 h 43.38203 z"
           id="path2982" />
      </g>
    </g>
  </g>
</svg>
