<?xml version="1.0" encoding="UTF-8" standalone="no"?>
<svg
   xmlns:dc="http://purl.org/dc/elements/1.1/"
   xmlns:cc="http://creativecommons.org/ns#"
   xmlns:rdf="http://www.w3.org/1999/02/22-rdf-syntax-ns#"
   xmlns:svg="http://www.w3.org/2000/svg"
   xmlns="http://www.w3.org/2000/svg"
   xmlns:sodipodi="http://sodipodi.sourceforge.net/DTD/sodipodi-0.dtd"
   xmlns:inkscape="http://www.inkscape.org/namespaces/inkscape"
   enable-background="new 0 0 128 128"
   height="24"
   viewBox="0 0 24 24"
   width="24"
   version="1.1"
   id="svg72"
   sodipodi:docname="lc_formatcolumns.svg"
   inkscape:version="0.92.4 (unknown)"
   inkscape:export-filename="/home/rizmut/Dokumen/Rizmut/Github/libreoffice-style-karasa-jaga/build/next/cmd/lc_formatcolumns.png"
   inkscape:export-xdpi="95.800003"
   inkscape:export-ydpi="95.800003">
  <metadata
     id="metadata78">
    <rdf:RDF>
      <cc:Work
         rdf:about="">
        <dc:format>image/svg+xml</dc:format>
        <dc:type
           rdf:resource="http://purl.org/dc/dcmitype/StillImage" />
        <dc:title></dc:title>
      </cc:Work>
    </rdf:RDF>
  </metadata>
  <defs
     id="defs76" />
  <sodipodi:namedview
     pagecolor="#ffffff"
     bordercolor="#666666"
     borderopacity="1"
     objecttolerance="10"
     gridtolerance="10"
     guidetolerance="10"
     inkscape:pageopacity="0"
     inkscape:pageshadow="2"
     inkscape:window-width="1366"
     inkscape:window-height="714"
     id="namedview74"
     showgrid="true"
     inkscape:zoom="13.906433"
     inkscape:cx="4.3691614"
     inkscape:cy="13.608431"
     inkscape:window-x="0"
     inkscape:window-y="28"
     inkscape:window-maximized="1"
     inkscape:current-layer="g62">
    <inkscape:grid
       type="xygrid"
       id="grid80" />
  </sodipodi:namedview>
  <radialGradient
     id="a"
     cx="102"
     cy="112.3047"
     gradientTransform="matrix(.94807 0 0 .9510679 3.32352 5.274458)"
     gradientUnits="userSpaceOnUse"
     r="139.55859">
    <stop
       offset="0"
       stop-color="#fafafa"
       id="stop2" />
    <stop
       offset=".2722"
       stop-color="#fff"
       id="stop4" />
    <stop
       offset=".5313"
       stop-color="#fafafa"
       id="stop6" />
    <stop
       offset=".8449"
       stop-color="#ebecec"
       id="stop8" />
    <stop
       offset="1"
       stop-color="#e1e2e3"
       id="stop10" />
  </radialGradient>
  <radialGradient
     id="b"
     cx="100.80984"
     cy="112.93461"
     gradientUnits="userSpaceOnUse"
     r="135.18756">
    <stop
       offset="0"
       stop-color="#f1f1f1"
       id="stop13" />
    <stop
       offset=".24349999"
       stop-color="#fcfcfc"
       id="stop15" />
    <stop
       offset=".2722"
       stop-color="#fff"
       id="stop17" />
  </radialGradient>
  <filter
     id="c">
    <feGaussianBlur
       stdDeviation="1.0394514"
       id="feGaussianBlur20" />
  </filter>
  <filter
     id="d">
    <feGaussianBlur
       stdDeviation=".50063244"
       id="feGaussianBlur23" />
  </filter>
  <g
     transform="matrix(.171875 0 0 .171875 0 2)"
     id="g70">
    <g
       stroke-width="1.006155"
       id="g32">
      <path
         d="m15.531998-1.7102652.05394 68.8372182-.01953 57.199217h.04102 61.683594l40.92808-.008v-34.941036-44.515625l-.0344-46.5794061-40.928082.00763h-61.683606z"
         filter="url(#c)"
         opacity=".553425"
         id="path26" />
      <path
         d="m15.531998-1.6790152.05394 68.8215932-.01953 57.183592h.04102 61.683594l40.92808-.008v-34.941036-44.484375l-.0344-46.5794061-40.928082.00763h-61.683606z"
         filter="url(#c)"
         opacity=".306849"
         id="path28" />
      <path
         d="m15.531998-.71026564.05394 68.33721864-.01953 56.699217h.04102 61.683594l40.92808-.008v-34.941036-43.515625l-.0344-46.57940646-40.928082.007632h-61.683606z"
         filter="url(#c)"
         opacity=".306849"
         id="path30" />
    </g>
    <path
       d="m24.871636-.92672605.04836 121.78991605 58.676001-.0001c.53 0 1.039-.211 1.414-.586l37.217663-31.773541c.375-.375.586-.884.586-1.414l.0471-88.02388194z"
       filter="url(#d)"
       opacity=".89589"
       transform="matrix(1.0090419 0 0 1.003276 -7.641977 .929762)"
       id="path34" />
    <path
       d="m17.453873.00067236.042208 66.91338964-.0078 55.275388h.01563 59.25586l39.603869-.008-.0586-55.27539.0242-66.91338946-39.603872.00763182h-59.25586z"
       fill="url(#b)"
       id="path36" />
    <path
       d="m24.031998 5.8737194c-.522387 0-.947265.427133-.947265.951172l.196517 60.0071396-.162109 48.369139c0 .52404.424878.95117.947265.95117h.322266 52.099609c.02563 0 .04875-.0135.07422-.0156l33.135119-.0156c.52333 0 .94727-.42714.94727-.95118l.26562-26.374998.15625-.152343c.17729-.17785.27734-.421743.27734-.671875l-.21289-21.146485.21289-21.146484c0-.250132-.10005-.495978-.27734-.673828l-.15625-.152344-.30003-38.0129995c0-.524039-.42394-.951172-.94727-.951172l-33.139023-.0001981c-.02409-.0019-.04608-.013652-.07031-.01367h-52.099613z"
       fill="url(#a)"
       id="path38" />
    <g
       fill="#7e7e7e"
       stroke-width="1.054979"
       id="g62">
      <path
         d="m58.182776 17.45513v5.8181h-29.0905v-5.8181z"
         id="path40" />
      <path
         d="m 104.69591,17.445154 -0.001,5.819573 -29.058546,0.008 v -5.8181 z"
         id="path42"
         inkscape:connector-curvature="0" />
      <path
         d="m58.182776 34.90943v5.8181h-29.0905v-5.8181z"
         id="path44" />
      <path
         d="m 104.69444,34.900927 v 5.8181 l -29.058546,0.008 v -5.8181 z"
         id="path46"
         inkscape:connector-curvature="0" />
      <path
         d="m58.182776 52.36373v5.8181h-29.0905v-5.8181z"
         id="path48" />
      <path
         d="m 104.69444,52.355227 v 5.8181 l -29.058546,0.008 v -5.8181 z"
         id="path50"
         inkscape:connector-curvature="0" />
      <path
         d="m58.182776 69.81803v5.8181h-29.0905v-5.8181z"
         id="path52" />
      <path
         d="m 104.69444,69.809527 v 5.8181 l -29.058546,0.008 v -5.8181 z"
         id="path54"
         inkscape:connector-curvature="0" />
      <path
         d="m58.182776 87.27233v5.8181h-29.0905v-5.8181z"
         id="path56" />
      <path
         d="m 104.69444,87.263827 v 5.8181 l -29.058546,0.008 v -5.8181 z"
         id="path58"
         inkscape:connector-curvature="0" />
      <path
         d="m 104.69444,104.71813 v 5.8181 l -29.058546,0.008 v -5.8181 z"
         id="path60"
         inkscape:connector-curvature="0" />
      <path
         id="path82"
         d="m 58.181818,104.72727 v 5.8181 h -29.0905 v -5.8181 z"
         inkscape:connector-curvature="0" />
    </g>
  </g>
</svg>
