<?xml version="1.0" encoding="UTF-8" standalone="no"?>
<svg
   xmlns:dc="http://purl.org/dc/elements/1.1/"
   xmlns:cc="http://creativecommons.org/ns#"
   xmlns:rdf="http://www.w3.org/1999/02/22-rdf-syntax-ns#"
   xmlns:svg="http://www.w3.org/2000/svg"
   xmlns="http://www.w3.org/2000/svg"
   xmlns:xlink="http://www.w3.org/1999/xlink"
   xmlns:sodipodi="http://sodipodi.sourceforge.net/DTD/sodipodi-0.dtd"
   xmlns:inkscape="http://www.inkscape.org/namespaces/inkscape"
   height="24"
   viewBox="0 0 6.3499999 6.3500002"
   width="24"
   version="1.1"
   id="svg21"
   sodipodi:docname="lc_hyphenate.svg"
   inkscape:version="0.92.4 (unknown)">
  <metadata
     id="metadata27">
    <rdf:RDF>
      <cc:Work
         rdf:about="">
        <dc:format>image/svg+xml</dc:format>
        <dc:type
           rdf:resource="http://purl.org/dc/dcmitype/StillImage" />
        <dc:title></dc:title>
        <dc:title></dc:title>
      </cc:Work>
    </rdf:RDF>
  </metadata>
  <defs
     id="defs25">
    <linearGradient
       inkscape:collect="always"
       xlink:href="#a"
       id="linearGradient52"
       gradientUnits="userSpaceOnUse"
       x1="12.315148"
       y1="276.98788"
       x2="13.854542"
       y2="264.67273" />
    <linearGradient
       inkscape:collect="always"
       xlink:href="#a"
       id="linearGradient54"
       gradientUnits="userSpaceOnUse"
       x1="13.379665"
       y1="278.72879"
       x2="13.854542"
       y2="264.67273" />
    <linearGradient
       inkscape:collect="always"
       xlink:href="#a"
       id="linearGradient56"
       gradientUnits="userSpaceOnUse"
       x1="14.224941"
       y1="295.17612"
       x2="14.224941"
       y2="281.32159" />
    <linearGradient
       inkscape:collect="always"
       xlink:href="#a"
       id="linearGradient58"
       gradientUnits="userSpaceOnUse"
       x1="13.854542"
       y1="295.4606"
       x2="15.393935"
       y2="283.14545" />
  </defs>
  <sodipodi:namedview
     pagecolor="#ffffff"
     bordercolor="#666666"
     borderopacity="1"
     objecttolerance="10"
     gridtolerance="10"
     guidetolerance="10"
     inkscape:pageopacity="0"
     inkscape:pageshadow="2"
     inkscape:window-width="1366"
     inkscape:window-height="706"
     id="namedview23"
     showgrid="true"
     inkscape:zoom="22.000412"
     inkscape:cx="9.1185306"
     inkscape:cy="12.351229"
     inkscape:window-x="0"
     inkscape:window-y="0"
     inkscape:window-maximized="1"
     inkscape:current-layer="svg21">
    <inkscape:grid
       type="xygrid"
       id="grid29" />
  </sodipodi:namedview>
  <linearGradient
     id="a">
    <stop
       offset="0"
       stop-color="#555"
       id="stop2" />
    <stop
       offset="1"
       id="stop4" />
  </linearGradient>
  <linearGradient
     id="b"
     gradientUnits="userSpaceOnUse"
     x1="12.315148"
     x2="13.854542"
     xlink:href="#a"
     y1="276.98788"
     y2="264.67273" />
  <linearGradient
     id="c"
     gradientUnits="userSpaceOnUse"
     x1="13.854542"
     x2="15.393935"
     xlink:href="#a"
     y1="295.4606"
     y2="283.14545" />
  <g
     id="g40"
     transform="matrix(0.171875,0,0,0.171875,0.52916637,0.52916637)">
    <g
       id="g19"
       transform="translate(0,-263.13332)">
      <g
         aria-label="AB"
         style="font-size:19.67188644px;font-family:sans-serif;letter-spacing:0;word-spacing:0;fill:url(#b);stroke-width:0.491797"
         id="text11"
         transform="translate(-2.6039057,-1.7409227)">
        <path
           d="M 11.068048,274.42065 H 5.5402483 L 4.025513,278.72879 H 2.0779963 l 5.1146904,-14.3408 h 2.3606264 l 5.0360029,14.3408 H 12.54344 Z m -0.511469,-1.53441 -2.203251,-6.53107 -2.3606263,6.53107 z"
           style="font-family:FreeSans;fill:url(#linearGradient52);stroke-width:0.491797"
           id="path47"
           inkscape:connector-curvature="0" />
        <path
           d="m 27.159959,274.63704 q 0,1.84916 -1.160641,2.97045 -1.160642,1.1213 -3.068815,1.1213 h -6.47205 v -14.3408 h 5.822878 q 1.199985,0 2.08522,0.35409 0.885235,0.35409 1.318016,0.94425 0.452454,0.57048 0.649173,1.16064 0.196719,0.57049 0.196719,1.18031 0,2.20326 -1.986861,3.12783 1.377032,0.53114 1.986861,1.35736 0.6295,0.82622 0.6295,2.12457 z m -5.331081,-4.07208 q 2.872095,0 2.872095,-2.28194 0,-2.28194 -2.872095,-2.28194 h -3.54094 v 4.56388 z m 0.924578,6.55074 q 0.963923,0 1.573751,-0.41311 0.609829,-0.43279 0.806548,-0.94425 0.196718,-0.51147 0.196718,-1.10163 0,-1.1213 -0.668844,-1.79014 -0.668844,-0.68852 -1.908173,-0.68852 h -4.465518 v 4.93765 z"
           style="font-family:FreeSans;fill:url(#linearGradient54);stroke-width:0.491797"
           id="path49"
           inkscape:connector-curvature="0" />
      </g>
      <path
         id="path13"
         d="m 26.169699,267.7515 h 6.157573 v 1.5394 h -6.157573 z"
         inkscape:connector-curvature="0"
         style="fill:#252525;fill-opacity:0.94289204" />
      <g
         aria-label="CD"
         style="font-size:19.67188644px;font-family:sans-serif;letter-spacing:0;word-spacing:0;fill:url(#c);stroke-width:0.491797"
         id="text17"
         transform="translate(-3.4491817,-1.2549248)">
        <path
           d="m 2.5697934,288.65919 q 0,-0.98359 0.1573751,-1.94751 0.177047,-0.96393 0.6491723,-2.00654 0.4721253,-1.04261 1.1606413,-1.80981 0.7081879,-0.78688 1.8885011,-1.29834 1.1999851,-0.51147 2.6950484,-0.51147 4.6819094,0 5.5278004,4.68191 h -1.86883 q -0.31475,-1.53441 -1.239328,-2.30162 -0.924579,-0.7672 -2.6360331,-0.7672 -2.08522,0 -3.304877,1.59342 -1.199985,1.59343 -1.199985,4.34749 0,2.69505 1.2590007,4.28847 1.2590007,1.57375 3.4032364,1.57375 1.77047,0 2.71472,-0.98359 0.944251,-1.00327 1.278673,-3.08849 h 1.888501 q -0.649172,5.68518 -5.9015659,5.68518 -1.4753915,0 -2.6557047,-0.4918 -1.1606413,-0.51147 -1.8688292,-1.27867 -0.688516,-0.76721 -1.1606413,-1.79014 -0.4524534,-1.04261 -0.6295004,-1.98686 -0.1573751,-0.94426 -0.1573751,-1.90818 z"
           style="font-family:FreeSans;fill:url(#linearGradient56);stroke-width:0.491797"
           id="path42"
           inkscape:connector-curvature="0" />
        <path
           d="m 17.303729,295.66238 v -14.3408 h 5.527801 q 2.734392,0 4.288471,1.90817 1.554079,1.90817 1.554079,5.2524 0,3.34422 -1.573751,5.27206 -1.554079,1.90817 -4.268799,1.90817 z m 1.829486,-1.61309 h 3.383564 q 2.124564,0 3.22619,-1.41638 1.101625,-1.41637 1.101625,-4.13109 0,-2.73439 -1.101625,-4.15077 -1.101626,-1.41638 -3.22619,-1.41638 h -3.383564 z"
           style="font-family:FreeSans;fill:url(#linearGradient58);stroke-width:0.491797"
           id="path44"
           inkscape:connector-curvature="0" />
      </g>
    </g>
  </g>
</svg>
