<svg height="24" viewBox="0 0 6.3499999 6.3500002" width="24" xmlns="http://www.w3.org/2000/svg" xmlns:xlink="http://www.w3.org/1999/xlink"><linearGradient id="a" gradientUnits="userSpaceOnUse" x1="12.315148" x2="13.854542" xlink:href="#e" y1="276.98788" y2="264.67273"/><linearGradient id="b" gradientUnits="userSpaceOnUse" x1="13.379665" x2="13.854542" xlink:href="#e" y1="278.72879" y2="264.67273"/><linearGradient id="c" gradientUnits="userSpaceOnUse" x1="14.224941" x2="14.224941" xlink:href="#e" y1="295.17612" y2="281.32159"/><linearGradient id="d" gradientUnits="userSpaceOnUse" x1="13.854542" x2="15.393935" xlink:href="#e" y1="295.4606" y2="283.14545"/><linearGradient id="e"><stop offset="0" stop-color="#555"/><stop offset="1"/></linearGradient><g transform="matrix(.171875 0 0 .171875 .529166 -44.696873)"><g fill="url(#a)" stroke-width=".491797" transform="translate(-2.603906 -1.740923)"><path d="m11.068048 274.42065h-5.5277997l-1.5147353 4.30814h-1.9475167l5.1146904-14.3408h2.3606264l5.0360029 14.3408h-2.045876zm-.511469-1.53441-2.203251-6.53107-2.3606263 6.53107z" fill="url(#a)"/><path d="m27.159959 274.63704q0 1.84916-1.160641 2.97045-1.160642 1.1213-3.068815 1.1213h-6.47205v-14.3408h5.822878q1.199985 0 2.08522.35409.885235.35409 1.318016.94425.452454.57048.649173 1.16064.196719.57049.196719 1.18031 0 2.20326-1.986861 3.12783 1.377032.53114 1.986861 1.35736.6295.82622.6295 2.12457zm-5.331081-4.07208q2.872095 0 2.872095-2.28194 0-2.28194-2.872095-2.28194h-3.54094v4.56388zm.924578 6.55074q.963923 0 1.573751-.41311.609829-.43279.806548-.94425.196718-.51147.196718-1.10163 0-1.1213-.668844-1.79014-.668844-.68852-1.908173-.68852h-4.465518v4.93765z" fill="url(#b)"/></g><path d="m26.169699 267.7515h6.157573v1.5394h-6.157573z" fill="#252525" fill-opacity=".942892"/><g fill="url(#d)" stroke-width=".491797" transform="translate(-3.449182 -1.254925)"><path d="m2.5697934 288.65919q0-.98359.1573751-1.94751.177047-.96393.6491723-2.00654.4721253-1.04261 1.1606413-1.80981.7081879-.78688 1.8885011-1.29834 1.1999851-.51147 2.6950484-.51147 4.6819094 0 5.5278004 4.68191h-1.86883q-.31475-1.53441-1.239328-2.30162-.924579-.7672-2.6360331-.7672-2.08522 0-3.304877 1.59342-1.199985 1.59343-1.199985 4.34749 0 2.69505 1.2590007 4.28847 1.2590007 1.57375 3.4032364 1.57375 1.77047 0 2.71472-.98359.944251-1.00327 1.278673-3.08849h1.888501q-.649172 5.68518-5.9015659 5.68518-1.4753915 0-2.6557047-.4918-1.1606413-.51147-1.8688292-1.27867-.688516-.76721-1.1606413-1.79014-.4524534-1.04261-.6295004-1.98686-.1573751-.94426-.1573751-1.90818z" fill="url(#c)"/><path d="m17.303729 295.66238v-14.3408h5.527801q2.734392 0 4.288471 1.90817 1.554079 1.90817 1.554079 5.2524 0 3.34422-1.573751 5.27206-1.554079 1.90817-4.268799 1.90817zm1.829486-1.61309h3.383564q2.124564 0 3.22619-1.41638 1.101625-1.41637 1.101625-4.13109 0-2.73439-1.101625-4.15077-1.101626-1.41638-3.22619-1.41638h-3.383564z" fill="url(#d)"/></g></g></svg>