<?xml version="1.0" encoding="UTF-8" standalone="no"?>
<svg
   xmlns:dc="http://purl.org/dc/elements/1.1/"
   xmlns:cc="http://creativecommons.org/ns#"
   xmlns:rdf="http://www.w3.org/1999/02/22-rdf-syntax-ns#"
   xmlns:svg="http://www.w3.org/2000/svg"
   xmlns="http://www.w3.org/2000/svg"
   xmlns:xlink="http://www.w3.org/1999/xlink"
   xmlns:sodipodi="http://sodipodi.sourceforge.net/DTD/sodipodi-0.dtd"
   xmlns:inkscape="http://www.inkscape.org/namespaces/inkscape"
   enable-background="new 0 0 128 128"
   height="128"
   viewBox="0 0 128 128"
   width="128"
   version="1.1"
   id="svg3195"
   sodipodi:docname="lc_insertbreak.svg"
   inkscape:version="0.92.4 (unknown)"
   inkscape:export-filename="/home/rizmut/Dokumen/Rizmut/Github/libreoffice-style-karasa-jaga/build/next/cmd/lc_insertbreak.png"
   inkscape:export-xdpi="18"
   inkscape:export-ydpi="18">
  <metadata
     id="metadata3201">
    <rdf:RDF>
      <cc:Work
         rdf:about="">
        <dc:format>image/svg+xml</dc:format>
        <dc:type
           rdf:resource="http://purl.org/dc/dcmitype/StillImage" />
        <dc:title></dc:title>
      </cc:Work>
    </rdf:RDF>
  </metadata>
  <defs
     id="defs3199">
    <radialGradient
       inkscape:collect="always"
       xlink:href="#e"
       id="radialGradient4843"
       gradientUnits="userSpaceOnUse"
       cx="100.8098464"
       cy="112.93460525694"
       r="135.1875556917" />
    <radialGradient
       inkscape:collect="always"
       xlink:href="#d"
       id="radialGradient4845"
       gradientUnits="userSpaceOnUse"
       gradientTransform="matrix(0.94807,0,0,0.9510679,3.32352,5.274458)"
       cx="102"
       cy="112.3047"
       r="139.55859" />
    <linearGradient
       inkscape:collect="always"
       xlink:href="#a"
       id="linearGradient4847"
       gradientUnits="userSpaceOnUse"
       x1="88.591797"
       y1="96.592697"
       x2="71.262016"
       y2="79.262917" />
    <linearGradient
       inkscape:collect="always"
       xlink:href="#b"
       id="linearGradient4849"
       gradientUnits="userSpaceOnUse"
       x1="85.219681"
       y1="93.219681"
       x2="61.336319"
       y2="69.336319" />
    <linearGradient
       inkscape:collect="always"
       xlink:href="#c"
       id="linearGradient4851"
       gradientUnits="userSpaceOnUse"
       x1="96"
       y1="104"
       x2="88.0002"
       y2="96.0002" />
    <linearGradient
       gradientTransform="matrix(0.84029068,0,0,0.84029086,12.600067,11.636265)"
       inkscape:collect="always"
       xlink:href="#linearGradient4372"
       id="linearGradient927"
       x1="46.5448"
       y1="69.819"
       x2="46.5448"
       y2="46.5466"
       gradientUnits="userSpaceOnUse" />
    <linearGradient
       inkscape:collect="always"
       id="linearGradient4372">
      <stop
         style="stop-color:#0066ff;stop-opacity:1;"
         offset="0"
         id="stop4374" />
      <stop
         style="stop-color:#80b3ff;stop-opacity:1"
         offset="1"
         id="stop4376" />
    </linearGradient>
    <linearGradient
       inkscape:collect="always"
       xlink:href="#linearGradient4372"
       id="linearGradient931"
       gradientUnits="userSpaceOnUse"
       x1="46.5448"
       y1="69.819"
       x2="46.5448"
       y2="46.5466"
       gradientTransform="matrix(0.8402905,0,0,0.84029086,32.155654,11.636265)" />
    <linearGradient
       inkscape:collect="always"
       xlink:href="#linearGradient4372"
       id="linearGradient935"
       gradientUnits="userSpaceOnUse"
       gradientTransform="matrix(0.84029082,0,0,0.84029086,51.71122,11.636263)"
       x1="46.5448"
       y1="69.819"
       x2="46.5448"
       y2="46.5466" />
    <linearGradient
       gradientTransform="matrix(0.91666666,0,0,0.91666666,7.7111814,6.749041)"
       inkscape:collect="always"
       xlink:href="#linearGradient4372"
       id="linearGradient919"
       x1="11.6362"
       y1="87.2733"
       x2="11.6362"
       y2="34.9104"
       gradientUnits="userSpaceOnUse" />
    <linearGradient
       inkscape:collect="always"
       xlink:href="#linearGradient4372"
       id="linearGradient939"
       gradientUnits="userSpaceOnUse"
       gradientTransform="matrix(0.84029097,0,0,0.84029086,71.266793,11.636263)"
       x1="46.5448"
       y1="69.819"
       x2="46.5448"
       y2="46.5466" />
    <clipPath
       clipPathUnits="userSpaceOnUse"
       id="clipPath4902">
      <rect
         style="opacity:1;vector-effect:none;fill:#ff00bf;fill-opacity:1;stroke:none;stroke-width:0.99145305"
         id="rect4904"
         width="97.777885"
         height="39.11116"
         x="17.488972"
         y="84.966225" />
    </clipPath>
    <clipPath
       clipPathUnits="userSpaceOnUse"
       id="clipPath4906">
      <rect
         y="11.642161"
         x="17.488972"
         height="44.000053"
         width="97.777885"
         id="rect4908"
         style="opacity:1;vector-effect:none;fill:#ff00bf;fill-opacity:1;stroke:none;stroke-width:1.05159473" />
    </clipPath>
    <linearGradient
       id="a-4"
       gradientUnits="userSpaceOnUse"
       x1="98.9077"
       x2="98.9077"
       y1="46.5466"
       y2="162.9086">
      <stop
         offset="0"
         stop-color="#99999c"
         id="stop23494" />
      <stop
         offset=".5"
         stop-color="#9c9ca1"
         id="stop23496" />
      <stop
         offset="1"
         stop-color="#cdcdd1"
         id="stop23498" />
    </linearGradient>
    <linearGradient
       id="b-6"
       gradientUnits="userSpaceOnUse"
       x1="78.610847"
       x2="120.3435"
       y1="88.852417"
       y2="111.54715">
      <stop
         offset="0"
         stop-color="#fff"
         id="stop23501" />
      <stop
         offset="1"
         stop-color="#ccc"
         id="stop23503" />
    </linearGradient>
    <linearGradient
       id="c-9"
       gradientUnits="userSpaceOnUse"
       x1="88.38102"
       x2="130.48599"
       y1="1008.9966"
       y2="1015.6953">
      <stop
         offset="0"
         stop-color="#7b7b7b"
         id="stop23506" />
      <stop
         offset="1"
         stop-color="#797979"
         stop-opacity="0"
         id="stop23508" />
    </linearGradient>
    <clipPath
       id="d-4">
      <path
         inkscape:connector-curvature="0"
         d="M 41.355614,933.74432 H 125.29961 V 1051.266 H 41.355614 Z"
         id="path23511" />
    </clipPath>
    <filter
       style="color-interpolation-filters:sRGB"
       id="e-2"
       height="1.073732"
       width="1.13754"
       x="-0.068769999"
       y="-0.036866002">
      <feGaussianBlur
         stdDeviation="1.0557314"
         id="feGaussianBlur23514" />
    </filter>
    <linearGradient
       id="f-2"
       gradientUnits="userSpaceOnUse"
       x1="100.83452"
       x2="116.42799"
       y1="37.992622"
       y2="80.92411">
      <stop
         offset="0"
         stop-color="#fff"
         stop-opacity=".683453"
         id="stop23517" />
      <stop
         offset="1"
         stop-color="#fff"
         stop-opacity="0"
         id="stop23519" />
    </linearGradient>
    <linearGradient
       id="g-6"
       gradientTransform="matrix(0.58291629,0,0,0.66676377,62.177025,-566.68964)"
       gradientUnits="userSpaceOnUse"
       x1="63.011921"
       x2="63.011921"
       y1="945.89801"
       y2="1033.1569">
      <stop
         offset="0"
         stop-color="#545454"
         stop-opacity=".988"
         id="stop23522" />
      <stop
         offset="1"
         stop-color="#ebebeb"
         id="stop23524" />
    </linearGradient>
    <linearGradient
       id="h-3"
       gradientTransform="matrix(0.48045402,0,0,0.66178602,128.73476,-578.51587)"
       gradientUnits="userSpaceOnUse"
       x1="-60.535713"
       x2="-60.357143"
       y1="979.50507"
       y2="1009.505">
      <stop
         offset="0"
         stop-color="#979797"
         id="stop23527" />
      <stop
         offset=".148461"
         stop-color="#f6f6f6"
         id="stop23529" />
      <stop
         offset=".28399727"
         stop-color="#e2e2e2"
         id="stop23531" />
      <stop
         offset=".41198727"
         stop-color="#dedede"
         id="stop23533" />
      <stop
         offset=".41198727"
         stop-color="#f6f6f6"
         id="stop23535" />
      <stop
         offset="1"
         stop-color="#6b6b6b"
         id="stop23537" />
    </linearGradient>
    <linearGradient
       id="i-6"
       gradientTransform="matrix(0.480454,0,0,0.58309338,128.76683,499.76645)"
       gradientUnits="userSpaceOnUse"
       x1="-61.078979"
       x2="-60.6413"
       y1="-1056.658"
       y2="-1010.9131">
      <stop
         offset="0"
         stop-color="#777"
         id="stop23540" />
      <stop
         offset=".18176934"
         stop-color="#a8a8a8"
         id="stop23542" />
      <stop
         offset=".22864534"
         stop-color="#cdcdcd"
         id="stop23544" />
      <stop
         offset=".34561315"
         stop-color="#f7f7f7"
         id="stop23546" />
      <stop
         offset="1"
         stop-color="#fff"
         id="stop23548" />
    </linearGradient>
  </defs>
  <sodipodi:namedview
     pagecolor="#ffffff"
     bordercolor="#666666"
     borderopacity="1"
     objecttolerance="10"
     gridtolerance="10"
     guidetolerance="10"
     inkscape:pageopacity="0"
     inkscape:pageshadow="2"
     inkscape:window-width="1366"
     inkscape:window-height="706"
     id="namedview3197"
     showgrid="true"
     inkscape:zoom="1.859375"
     inkscape:cx="-43.0148"
     inkscape:cy="79.401439"
     inkscape:window-x="0"
     inkscape:window-y="0"
     inkscape:window-maximized="1"
     inkscape:current-layer="g3216"
     inkscape:snap-global="true">
    <inkscape:grid
       type="xygrid"
       id="grid3203"
       spacingx="2.66667"
       spacingy="2.66667" />
  </sodipodi:namedview>
  <linearGradient
     id="a"
     gradientUnits="userSpaceOnUse"
     x1="88.591797"
     x2="71.262016"
     y1="96.592697"
     y2="79.262917">
    <stop
       offset="0"
       stop-color="#fff"
       id="stop3097" />
    <stop
       offset="1"
       stop-color="#555753"
       id="stop3099" />
  </linearGradient>
  <linearGradient
     id="b"
     gradientUnits="userSpaceOnUse"
     x1="85.219681"
     x2="61.336319"
     y1="93.219681"
     y2="69.336319">
    <stop
       offset="0"
       id="stop3102" />
    <stop
       offset="1"
       stop-color="#393b38"
       id="stop3104" />
  </linearGradient>
  <linearGradient
     id="c"
     gradientUnits="userSpaceOnUse"
     x1="96"
     x2="88.0002"
     y1="104"
     y2="96.0002">
    <stop
       offset="0"
       stop-color="#888a85"
       id="stop3107" />
    <stop
       offset=".0072"
       stop-color="#8c8e89"
       id="stop3109" />
    <stop
       offset=".0673"
       stop-color="#abaca9"
       id="stop3111" />
    <stop
       offset=".1347"
       stop-color="#c5c6c4"
       id="stop3113" />
    <stop
       offset=".2115"
       stop-color="#dbdbda"
       id="stop3115" />
    <stop
       offset=".3012"
       stop-color="#ebebeb"
       id="stop3117" />
    <stop
       offset=".4122"
       stop-color="#f7f7f6"
       id="stop3119" />
    <stop
       offset=".5679"
       stop-color="#fdfdfd"
       id="stop3121" />
    <stop
       offset="1"
       stop-color="#fff"
       id="stop3123" />
  </linearGradient>
  <radialGradient
     id="d"
     cx="102"
     cy="112.3047"
     gradientTransform="matrix(0.94807,0,0,0.9510679,3.32352,5.274458)"
     gradientUnits="userSpaceOnUse"
     r="139.55859">
    <stop
       offset="0"
       stop-color="#535557"
       id="stop3126" />
    <stop
       offset=".11366145"
       stop-color="#898a8c"
       id="stop3128" />
    <stop
       offset=".20296688"
       stop-color="#ececec"
       id="stop3130" />
    <stop
       offset=".2363"
       stop-color="#fafafa"
       id="stop3132" />
    <stop
       offset=".2722"
       stop-color="#fff"
       id="stop3134" />
    <stop
       offset=".5313"
       stop-color="#fafafa"
       id="stop3136" />
    <stop
       offset=".8449"
       stop-color="#ebecec"
       id="stop3138" />
    <stop
       offset="1"
       stop-color="#e1e2e3"
       id="stop3140" />
  </radialGradient>
  <radialGradient
     id="e"
     cx="100.8098464"
     cy="112.93460525694"
     gradientUnits="userSpaceOnUse"
     r="135.1875556917">
    <stop
       offset="0"
       stop-color="#3e3e3e"
       id="stop3143" />
    <stop
       offset=".0151"
       stop-color="#505050"
       id="stop3145" />
    <stop
       offset=".0558"
       stop-color="#7e7e7e"
       id="stop3147" />
    <stop
       offset=".1357"
       stop-color="#c6c6c6"
       id="stop3149" />
    <stop
       offset=".20990001"
       stop-color="#f1f1f1"
       id="stop3151" />
    <stop
       offset=".24349999"
       stop-color="#fcfcfc"
       id="stop3153" />
    <stop
       offset=".2722"
       stop-color="#fff"
       id="stop3155" />
  </radialGradient>
  <filter
     id="f">
    <feGaussianBlur
       stdDeviation="1.0394514"
       id="feGaussianBlur3158" />
  </filter>
  <filter
     id="g">
    <feGaussianBlur
       stdDeviation=".50063244"
       id="feGaussianBlur3161" />
  </filter>
  <filter
     id="h">
    <feGaussianBlur
       stdDeviation=".40750996"
       id="feGaussianBlur3164" />
  </filter>
  <filter
     id="i">
    <feGaussianBlur
       stdDeviation=".4901192"
       id="feGaussianBlur3167" />
  </filter>
  <filter
     id="j">
    <feGaussianBlur
       stdDeviation=".90565481"
       id="feGaussianBlur3170" />
  </filter>
  <g
     id="g3216"
     transform="matrix(1.0909091,0,0,1.0909091,-8.412198,-7.3625901)">
    <g
       id="g4815"
       transform="translate(0,-78.217329)"
       clip-path="url(#clipPath4902)">
      <g
         id="g650">
        <path
           id="path3173"
           transform="matrix(1.0090419,0,0,1.003276,-7.641977,0.929762)"
           d="m 27.845077,13.841705 0.02654,106.166145 h 56.286107 c 0.53,0 1.02161,-0.22945 1.414,-0.586 L 118.414,89.579469 c 0.39239,-0.356548 0.586,-0.884 0.586,-1.414 V 13.841705 Z"
           inkscape:connector-curvature="0"
           style="opacity:0.55342503;filter:url(#f)"
           sodipodi:nodetypes="ccsssscc" />
        <path
           id="path3175"
           transform="matrix(1.0090419,0,0,1.003276,-7.641977,0.929762)"
           d="m 27.845077,13.872922 0.02655,106.134928 H 84.15773 c 0.53,0 1.02161,-0.22945 1.414,-0.586 L 118.414,89.579469 c 0.39239,-0.356548 0.586,-0.884 0.586,-1.414 V 13.872922 Z"
           inkscape:connector-curvature="0"
           style="opacity:0.30684904;filter:url(#f)"
           sodipodi:nodetypes="ccsssscc" />
        <path
           id="path3177"
           transform="matrix(1.0090419,0,0,1.003276,-7.641977,0.929762)"
           d="m 29.750812,15.546194 -1.1e-5,102.331376 53.830924,-1e-4 c 0.53,0 1.039,-0.211 1.414,-0.586 L 116.494,88.511156 c 0.375,-0.375 0.586,-0.884 0.586,-1.414 l 0.0812,-71.550962 z"
           inkscape:connector-curvature="0"
           style="opacity:0.89589;filter:url(#g)"
           sodipodi:nodetypes="cccccccc" />
        <path
           id="path3179"
           transform="matrix(1.0090419,0,0,1.003276,-7.641977,0.929762)"
           d="m 27.845077,14.838439 0.02654,105.169411 h 56.286107 c 0.53,0 1.02161,-0.22945 1.414,-0.586 L 118.414,89.579469 c 0.39239,-0.356548 0.586,-0.884 0.586,-1.414 v -73.32703 z"
           inkscape:connector-curvature="0"
           style="opacity:0.30684904;filter:url(#f)"
           sodipodi:nodetypes="ccsssscc" />
        <path
           id="path3181"
           d="M 22.377839,16.526886 V 119.19349 h 54.36722 c 0.513401,0 1.006458,-0.20439 1.369714,-0.56765 L 109.929,89.821411 c 0.36326,-0.363255 0.56764,-0.856313 0.56764,-1.369714 l 0.0819,-71.924811 z"
           style="fill:url(#e)"
           inkscape:connector-curvature="0"
           sodipodi:nodetypes="ccsccccc" />
        <path
           id="path3183"
           d="m 28.955742,22.40103 c -0.522387,0 -0.94807,0.42703 -0.94807,0.951069 l 0.307523,88.852961 c 0,0.525 0.425684,0.95108 0.94807,0.95108 h 47.210313 c 0.249342,0 0.493944,-0.10082 0.670284,-0.27867 L 105.2815,88.651213 c 0.17729,-0.17785 0.27778,-0.422273 0.27778,-0.672405 l -0.7,-64.604786 c 0,-0.524039 -0.42473,-0.951068 -0.94806,-0.951068 z"
           style="fill:url(#d)"
           inkscape:connector-curvature="0"
           sodipodi:nodetypes="cccsscccccc" />
      </g>
      <g
         transform="matrix(1.1080161,0,0,1.1080161,-12.744784,-10.01667)"
         id="g3193">
        <path
           sodipodi:nodetypes="sssss"
           inkscape:connector-curvature="0"
           style="opacity:0.75068497;fill:url(#a);filter:url(#h)"
           d="m 111.52523,88.365747 c 0.26305,-0.236238 -24.821717,-1.141063 -29.856717,-1.141063 -1.654,0 -3,1.346 -3,3 0,5.035 1.211722,26.561276 1.474766,26.325036 z"
           id="path3185" />
        <path
           sodipodi:nodetypes="sssss"
           style="opacity:0.2;filter:url(#j)"
           inkscape:connector-curvature="0"
           d="m 111.52523,88.365747 c 0.39457,-0.354357 -20.412717,-0.141063 -29.856717,-0.141063 -1.103,0 -2,0.897 -2,2 0,9.444 0.0802,26.679386 0.474766,26.325036 z"
           id="path3187" />
        <path
           sodipodi:nodetypes="sssss"
           inkscape:connector-curvature="0"
           style="opacity:0.1;fill:url(#b);filter:url(#i)"
           d="m 111.52523,88.365747 c 0.25147,-0.225842 -20.049717,0.858937 -29.856717,0.858937 -0.553,0 -1,0.447 -1,1 0,9.806996 -0.776705,26.550876 -0.525234,26.325036 z"
           id="path3189" />
        <path
           sodipodi:nodetypes="cccc"
           inkscape:connector-curvature="0"
           style="fill:url(#c)"
           d="M 81.278898,116.44678 111.33835,89.585303 81.390132,90.03024 Z"
           id="path3191" />
      </g>
    </g>
    <g
       id="g4841"
       transform="translate(0,68.440163)"
       clip-path="url(#clipPath4906)">
      <g
         id="g4829">
        <path
           sodipodi:nodetypes="ccsssscc"
           style="opacity:0.55342503;filter:url(#f)"
           inkscape:connector-curvature="0"
           d="m 27.845077,13.841705 0.02654,106.166145 h 56.286107 c 0.53,0 1.02161,-0.22945 1.414,-0.586 L 118.414,89.579469 c 0.39239,-0.356548 0.586,-0.884 0.586,-1.414 V 13.841705 Z"
           transform="matrix(1.0090419,0,0,1.003276,-7.641977,0.929762)"
           id="path4817" />
        <path
           sodipodi:nodetypes="ccsssscc"
           style="opacity:0.30684904;filter:url(#f)"
           inkscape:connector-curvature="0"
           d="m 27.845077,13.872922 0.02655,106.134928 H 84.15773 c 0.53,0 1.02161,-0.22945 1.414,-0.586 L 118.414,89.579469 c 0.39239,-0.356548 0.586,-0.884 0.586,-1.414 V 13.872922 Z"
           transform="matrix(1.0090419,0,0,1.003276,-7.641977,0.929762)"
           id="path4819" />
        <path
           sodipodi:nodetypes="cccccccc"
           style="opacity:0.89589;filter:url(#g)"
           inkscape:connector-curvature="0"
           d="m 29.750812,15.546194 -1.1e-5,102.331376 53.830924,-1e-4 c 0.53,0 1.039,-0.211 1.414,-0.586 L 116.494,88.511156 c 0.375,-0.375 0.586,-0.884 0.586,-1.414 l 0.0812,-71.550962 z"
           transform="matrix(1.0090419,0,0,1.003276,-7.641977,0.929762)"
           id="path4821" />
        <path
           sodipodi:nodetypes="ccsssscc"
           style="opacity:0.30684904;filter:url(#f)"
           inkscape:connector-curvature="0"
           d="m 27.845077,14.838439 0.02654,105.169411 h 56.286107 c 0.53,0 1.02161,-0.22945 1.414,-0.586 L 118.414,89.579469 c 0.39239,-0.356548 0.586,-0.884 0.586,-1.414 v -73.32703 z"
           transform="matrix(1.0090419,0,0,1.003276,-7.641977,0.929762)"
           id="path4823" />
        <path
           sodipodi:nodetypes="ccsccccc"
           inkscape:connector-curvature="0"
           style="fill:url(#radialGradient4843)"
           d="M 22.377839,16.526886 V 119.19349 h 54.36722 c 0.513401,0 1.006458,-0.20439 1.369714,-0.56765 L 109.929,89.821411 c 0.36326,-0.363255 0.56764,-0.856313 0.56764,-1.369714 l 0.0819,-71.924811 z"
           id="path4825" />
        <path
           sodipodi:nodetypes="cccsscccccc"
           inkscape:connector-curvature="0"
           style="fill:url(#radialGradient4845)"
           d="m 28.955742,22.40103 c -0.522387,0 -0.94807,0.42703 -0.94807,0.951069 l 0.307523,88.852961 c 0,0.525 0.425684,0.95108 0.94807,0.95108 h 47.210313 c 0.249342,0 0.493944,-0.10082 0.670284,-0.27867 L 105.2815,88.651213 c 0.17729,-0.17785 0.27778,-0.422273 0.27778,-0.672405 l -0.7,-64.604786 c 0,-0.524039 -0.42473,-0.951068 -0.94806,-0.951068 z"
           id="path4827" />
      </g>
      <g
         id="g4839"
         transform="matrix(1.1080161,0,0,1.1080161,-12.744784,-10.01667)">
        <path
           id="path4831"
           d="m 111.52523,88.365747 c 0.26305,-0.236238 -24.821717,-1.141063 -29.856717,-1.141063 -1.654,0 -3,1.346 -3,3 0,5.035 1.211722,26.561276 1.474766,26.325036 z"
           style="opacity:0.75068497;fill:url(#linearGradient4847);filter:url(#h)"
           inkscape:connector-curvature="0"
           sodipodi:nodetypes="sssss" />
        <path
           id="path4833"
           d="m 111.52523,88.365747 c 0.39457,-0.354357 -20.412717,-0.141063 -29.856717,-0.141063 -1.103,0 -2,0.897 -2,2 0,9.444 0.0802,26.679386 0.474766,26.325036 z"
           inkscape:connector-curvature="0"
           style="opacity:0.2;filter:url(#j)"
           sodipodi:nodetypes="sssss" />
        <path
           id="path4835"
           d="m 111.52523,88.365747 c 0.25147,-0.225842 -20.049717,0.858937 -29.856717,0.858937 -0.553,0 -1,0.447 -1,1 0,9.806996 -0.776705,26.550876 -0.525234,26.325036 z"
           style="opacity:0.1;fill:url(#linearGradient4849);filter:url(#i)"
           inkscape:connector-curvature="0"
           sodipodi:nodetypes="sssss" />
        <path
           id="path4837"
           d="M 81.278898,116.44678 111.33835,89.585303 81.390132,90.03024 Z"
           style="fill:url(#linearGradient4851)"
           inkscape:connector-curvature="0"
           sodipodi:nodetypes="cccc" />
      </g>
    </g>
    <path
       sodipodi:nodetypes="cccc"
       style="fill:url(#linearGradient919);fill-opacity:1;stroke:none;stroke-width:0.60591626"
       inkscape:connector-curvature="0"
       d="M 41.933446,65.415634 C 34.254806,70.401879 15.38982,84.873863 7.7111814,89.860109 V 40.971159 C 15.38982,45.957405 34.254807,60.429388 41.933446,65.415634 Z"
       id="path132" />
    <rect
       y="60.526737"
       x="105.48908"
       height="9.777792"
       width="14.666691"
       id="rect937"
       style="opacity:1;fill:url(#linearGradient939);fill-opacity:1;stroke:none;stroke-width:4.88881254;stroke-linecap:round;stroke-linejoin:round;stroke-miterlimit:4;stroke-dasharray:none;stroke-dashoffset:0;stroke-opacity:1" />
    <rect
       style="opacity:1;fill:url(#linearGradient935);fill-opacity:1;stroke:none;stroke-width:4.88881254;stroke-linecap:round;stroke-linejoin:round;stroke-miterlimit:4;stroke-dasharray:none;stroke-dashoffset:0;stroke-opacity:1"
       id="rect933"
       width="14.666689"
       height="9.777792"
       x="85.933495"
       y="60.526737" />
    <rect
       y="60.526737"
       x="66.377914"
       height="9.777792"
       width="14.666682"
       id="rect929"
       style="opacity:1;fill:url(#linearGradient931);fill-opacity:1;stroke:none;stroke-width:4.88881159;stroke-linecap:round;stroke-linejoin:round;stroke-miterlimit:4;stroke-dasharray:none;stroke-dashoffset:0;stroke-opacity:1" />
    <rect
       style="opacity:1;fill:url(#linearGradient927);fill-opacity:1;stroke:none;stroke-width:4.88881207;stroke-linecap:round;stroke-linejoin:round;stroke-miterlimit:4;stroke-dasharray:none;stroke-dashoffset:0;stroke-opacity:1"
       id="rect2692"
       width="14.666686"
       height="9.777792"
       x="46.822334"
       y="60.526737" />
    <path
       transform="matrix(0.91666666,0,0,0.91666666,7.7111814,6.749041)"
       style="fill:#bfd9ff;fill-opacity:1;stroke:none;stroke-width:0.6609996"
       d="m 5.33334,50.66657 0,26.6667 C 11.746979,73.045153 17.757954,68.160197 24.00003,63.99992 17.757927,59.839965 11.747182,54.954417 5.33334,50.66657 Z"
       id="path941"
       inkscape:connector-curvature="0"
       sodipodi:nodetypes="cccc" />
    <g
       transform="matrix(0.84027713,0,0,0.84027713,12.600067,11.620372)"
       id="g23583">
      <path
         inkscape:connector-curvature="0"
         style="fill:url(#a-4)"
         d="m 69.8172,46.546616 h 58.181 v 81.453444 h -58.181 z"
         id="path23567" />
      <path
         inkscape:connector-curvature="0"
         style="fill:url(#b-6)"
         d="m 75.6353,52.3647 h 46.5448 v 69.81722 H 75.6353 Z"
         id="path23569" />
      <path
         inkscape:connector-curvature="0"
         style="opacity:0.68000034;fill:url(#c-9);fill-rule:evenodd;filter:url(#e-2)"
         clip-path="url(#d-4)"
         d="m 92.81509,1029.6319 c 1.071428,1.4286 10.71429,15.3572 11.78571,13.5715 1.07143,-1.7858 26.42857,-25.3572 25,-26.7858 -1.42857,-1.4285 -33.928567,-41.78567 -33.928567,-41.78567 z"
         transform="matrix(0.69309305,0,0,0.69309305,41.153912,-600.6251)"
         id="path23571" />
      <path
         inkscape:connector-curvature="0"
         style="fill:url(#f-2);fill-rule:evenodd"
         d="M 75.6353,52.3647 V 99.64533 C 89.806961,83.145235 109.17378,76.487988 122.17969,74.623047 V 52.365234 Z"
         id="path23573" />
      <path
         inkscape:connector-curvature="0"
         style="fill:url(#g-6)"
         d="m 87.2715,64.0009 h 23.2724 v 46.5448 H 87.2715 Z"
         id="path23575" />
      <path
         style="fill:#535353"
         inkscape:connector-curvature="0"
         d="M 89.925598,66.798828 H 107.61233 V 107.96351 H 89.925598 Z"
         id="path23577" />
      <path
         inkscape:connector-curvature="0"
         style="fill:url(#h-3)"
         d="m 93.0896,69.819 h 11.6362 V 87.2733 H 93.0896 Z"
         id="path23579" />
      <path
         inkscape:connector-curvature="0"
         style="fill:url(#i-6)"
         d="m 93.0896,-116.3638 h 11.6362 v 29.0905 H 93.0896 Z"
         transform="scale(1,-1)"
         id="path23581" />
    </g>
  </g>
</svg>
