<?xml version="1.0" encoding="UTF-8" standalone="no"?>
<svg
   xmlns:dc="http://purl.org/dc/elements/1.1/"
   xmlns:cc="http://creativecommons.org/ns#"
   xmlns:rdf="http://www.w3.org/1999/02/22-rdf-syntax-ns#"
   xmlns:svg="http://www.w3.org/2000/svg"
   xmlns="http://www.w3.org/2000/svg"
   xmlns:sodipodi="http://sodipodi.sourceforge.net/DTD/sodipodi-0.dtd"
   xmlns:inkscape="http://www.inkscape.org/namespaces/inkscape"
   enable-background="new 0 0 128 128"
   height="24"
   viewBox="0 0 24 24"
   width="24"
   version="1.1"
   id="svg75"
   sodipodi:docname="lc_insertfield.svg"
   inkscape:version="0.92.4 (unknown)"
   inkscape:export-filename="/home/rizmut/Dokumen/Rizmut/Github/libreoffice-style-karasa-jaga/build/next/cmd/lc_insertfield.png"
   inkscape:export-xdpi="96"
   inkscape:export-ydpi="96">
  <metadata
     id="metadata81">
    <rdf:RDF>
      <cc:Work
         rdf:about="">
        <dc:format>image/svg+xml</dc:format>
        <dc:type
           rdf:resource="http://purl.org/dc/dcmitype/StillImage" />
        <dc:title></dc:title>
      </cc:Work>
    </rdf:RDF>
  </metadata>
  <defs
     id="defs79" />
  <sodipodi:namedview
     pagecolor="#ffffff"
     bordercolor="#666666"
     borderopacity="1"
     objecttolerance="10"
     gridtolerance="10"
     guidetolerance="10"
     inkscape:pageopacity="0"
     inkscape:pageshadow="2"
     inkscape:window-width="1366"
     inkscape:window-height="714"
     id="namedview77"
     showgrid="true"
     inkscape:zoom="19.666667"
     inkscape:cx="10.334252"
     inkscape:cy="5.9414117"
     inkscape:window-x="0"
     inkscape:window-y="28"
     inkscape:window-maximized="1"
     inkscape:current-layer="g73">
    <inkscape:grid
       type="xygrid"
       id="grid903" />
  </sodipodi:namedview>
  <radialGradient
     id="a"
     cx="102"
     cy="112.3047"
     gradientTransform="matrix(.94807 0 0 .9510679 4.74553 4.302306)"
     gradientUnits="userSpaceOnUse"
     r="139.55859">
    <stop
       offset="0"
       stop-color="#fafafa"
       id="stop2" />
    <stop
       offset=".2722"
       stop-color="#fff"
       id="stop4" />
    <stop
       offset=".5313"
       stop-color="#fafafa"
       id="stop6" />
    <stop
       offset=".8449"
       stop-color="#ebecec"
       id="stop8" />
    <stop
       offset="1"
       stop-color="#e1e2e3"
       id="stop10" />
  </radialGradient>
  <radialGradient
     id="b"
     cx="102.23185"
     cy="111.962458"
     gradientUnits="userSpaceOnUse"
     r="135.18756">
    <stop
       offset="0"
       stop-color="#f1f1f1"
       id="stop13" />
    <stop
       offset=".24349999"
       stop-color="#fcfcfc"
       id="stop15" />
    <stop
       offset=".2722"
       stop-color="#fff"
       id="stop17" />
  </radialGradient>
  <linearGradient
     id="c"
     gradientTransform="matrix(1.8 0 0 1.4960829 -200.93953 -68.583139)"
     gradientUnits="userSpaceOnUse"
     x1="154.28152"
     x2="154.44292"
     y1="104.82231"
     y2="130.74823">
    <stop
       offset="0"
       stop-color="#4c78fd"
       id="stop20" />
    <stop
       offset="1"
       stop-color="#85a2fe"
       id="stop22" />
  </linearGradient>
  <filter
     id="d">
    <feGaussianBlur
       stdDeviation="1.0394514"
       id="feGaussianBlur25" />
  </filter>
  <filter
     id="e">
    <feGaussianBlur
       stdDeviation=".50063244"
       id="feGaussianBlur28" />
  </filter>
  <g
     transform="matrix(.1875 0 0 .1875 0 .00003)"
     id="g73">
    <g
       stroke-width="1.006155"
       id="g37">
      <path
         d="m14.06252 8.9555824.01953 57.1992186-.01954 58.648579h.04102 64.60949 35.14256l.00001-36.390766v-44.515625-34.9414066h-35.142564-64.60949z"
         filter="url(#d)"
         opacity=".553425"
         id="path31" />
      <path
         d="m14.06252 8.9868324.01953 57.1835936-.01954 58.632954h.04102 64.60949 35.14256l.00001-36.390766v-44.484375-34.9414066h-35.142564-64.60949z"
         filter="url(#d)"
         opacity=".306849"
         id="path33" />
      <path
         d="m14.06252 9.955582.01953 56.699219-.01954 58.148579h.04102 64.60949 35.14256l.00001-36.390766v-43.515625-34.941407h-35.142564-64.60949z"
         filter="url(#d)"
         opacity=".306849"
         id="path35" />
    </g>
    <path
       d="m22.006058 10.673272.01426 111.634548 61.575678-.0001c.53 0 1.039-.211 1.414-.586l31.484004-33.210564c.375-.375.586-.884.586-1.414l.0812-76.423884z"
       filter="url(#e)"
       opacity=".89589"
       transform="matrix(1.0090419 0 0 1.003276 -6.219967 -.04239)"
       id="path39" />
    <path
       d="m15.984395 10.66652.0078 55.27539-.0078 56.72475h.01563 62.181756 33.818359l-.0586-56.72475.0586-55.27539h-33.818364-62.181756z"
       fill="url(#b)"
       id="path41" />
    <path
       d="m22.56252 16.539567c-.522387 0-.947265.427133-.947265.951172l.162109 48.36914-.162114 49.818501c0 .52404.800099 1.4524.947265.95117h.322266 55.025505c.02563 0 .04875-.0135.07422-.0156l27.349604-.008c.52333 0 .94727-.42714.94727-.95118l.26563-27.824358.15625-.152343c.17729-.17785.27734-.421743.27734-.671875l-.21289-21.146485.21289-21.146484c0-.250132-.10005-.495978-.27734-.673828l-.15625-.152344-.26562-26.375c0-.524039-.42394-.951172-.94727-.951172l-27.353515-.0078c-.02409-.0019-.04608-.01367-.07031-.01367h-55.025509z"
       fill="url(#a)"
       id="path43" />
    <g
       fill="#b3b3b3"
       id="g63">
      <path
         d="m26.6667 21.3332h74.66676v5.33334h-74.66676z"
         id="path45" />
      <path
         d="m26.6667 31.99988h74.66676v5.33334h-74.66676z"
         id="path47" />
      <path
         d="m26.6667 42.66656h74.66676v5.33334h-74.66676z"
         id="path49" />
      <path
         d="m26.6667 53.33324h74.66676v5.33334h-74.66676z"
         id="path51" />
      <path
         d="m26.6667 63.99992h74.66676v5.33334h-74.66676z"
         id="path53" />
      <path
         d="m26.6667 74.6666h74.66676v5.33334h-74.66676z"
         id="path55" />
      <path
         d="m26.6667 85.33328h74.66676v5.33334h-74.66676z"
         id="path57" />
      <path
         d="m26.6667 95.99996h74.66676v5.33334h-74.66676z"
         id="path59" />
      <path
         d="m26.6667 106.66664h74.66676v5.33334h-74.66676z"
         id="path61" />
    </g>
    <path
       d="m 42.66672,79.99994 h 58.66674 l -1.3e-4,26.66657 H 42.666593 Z"
       id="path65"
       inkscape:connector-curvature="0"
       style="fill:url(#c);stroke-width:1.868384"
       sodipodi:nodetypes="ccccc" />
    <g
       fill="#333"
       id="g71">
      <path
         d="m26.666705 69.339028c-.000001 15.998097-.000003 31.996192-.000005 47.994292h16.00002v-5.33334h-10.66668v-37.33338h10.66668v-5.33334z"
         id="path67" />
      <path
         d="m117.33347 69.339028c.00001 15.998097.00001 31.996192.00001 47.994292h-16.00002v-5.33334h10.66668v-37.33338h-10.66668v-5.33334z"
         id="path69" />
    </g>
  </g>
</svg>
