<?xml version="1.0" encoding="UTF-8" standalone="no"?>
<!-- Created with Inkscape (http://www.inkscape.org/) -->

<svg
   xmlns:dc="http://purl.org/dc/elements/1.1/"
   xmlns:cc="http://creativecommons.org/ns#"
   xmlns:rdf="http://www.w3.org/1999/02/22-rdf-syntax-ns#"
   xmlns:svg="http://www.w3.org/2000/svg"
   xmlns="http://www.w3.org/2000/svg"
   xmlns:xlink="http://www.w3.org/1999/xlink"
   xmlns:sodipodi="http://sodipodi.sourceforge.net/DTD/sodipodi-0.dtd"
   xmlns:inkscape="http://www.inkscape.org/namespaces/inkscape"
   width="24"
   height="24"
   viewBox="0 0 6.3499999 6.3500003"
   version="1.1"
   id="svg8"
   inkscape:version="0.92.4 (unknown)"
   sodipodi:docname="lc_insertlayer.svg"
   inkscape:export-filename="/home/rizmut/Dokumen/Rizmut/Github/libreoffice-style-karasa-jaga/build/next/cmd/lc_insertlayer.png"
   inkscape:export-xdpi="96"
   inkscape:export-ydpi="96">
  <defs
     id="defs2">
    <linearGradient
       inkscape:collect="always"
       xlink:href="#linearGradient1414"
       id="linearGradient1416"
       x1="56"
       y1="52.000004"
       x2="88"
       y2="96"
       gradientUnits="userSpaceOnUse"
       gradientTransform="matrix(0.26458333,0,0,0.26458333,0,263.13332)" />
    <linearGradient
       inkscape:collect="always"
       id="linearGradient1414">
      <stop
         style="stop-color:#dfe2e8;stop-opacity:1"
         offset="0"
         id="stop1410" />
      <stop
         style="stop-color:#fefefe;stop-opacity:1"
         offset="1"
         id="stop1412" />
    </linearGradient>
    <linearGradient
       inkscape:collect="always"
       xlink:href="#linearGradient1427"
       id="linearGradient1429"
       x1="16"
       y1="16.000004"
       x2="88"
       y2="72"
       gradientUnits="userSpaceOnUse"
       gradientTransform="matrix(0.26458333,0,0,0.26458333,0,263.13332)" />
    <linearGradient
       inkscape:collect="always"
       id="linearGradient1427">
      <stop
         style="stop-color:#fefefe;stop-opacity:1;"
         offset="0"
         id="stop1423" />
      <stop
         style="stop-color:#fefefe;stop-opacity:0;"
         offset="1"
         id="stop1425" />
    </linearGradient>
    <linearGradient
       inkscape:collect="always"
       xlink:href="#linearGradient1414"
       id="linearGradient2335"
       gradientUnits="userSpaceOnUse"
       gradientTransform="matrix(0.26458333,0,0,0.26458333,0,263.13332)"
       x1="56"
       y1="52.000004"
       x2="88"
       y2="96" />
    <linearGradient
       inkscape:collect="always"
       xlink:href="#linearGradient1427"
       id="linearGradient2337"
       gradientUnits="userSpaceOnUse"
       gradientTransform="matrix(0.26458333,0,0,0.26458333,0,263.13332)"
       x1="16"
       y1="16.000004"
       x2="88"
       y2="72" />
    <linearGradient
       id="linearGradient2822">
      <stop
         id="stop2824"
         offset="0"
         style="stop-color:#ffffff;stop-opacity:1;" />
      <stop
         id="stop2826"
         offset="1"
         style="stop-color:#ffffff;stop-opacity:0;" />
    </linearGradient>
    <filter
       id="filter3477-6-2"
       height="1.2774813"
       y="-0.13874064"
       width="1.279832"
       x="-0.13991599">
      <feGaussianBlur
         id="feGaussianBlur3479-7-7"
         stdDeviation="0.28784801"
         inkscape:collect="always" />
    </filter>
    <filter
       id="filter1094"
       height="1.2774813"
       y="-0.13874064"
       width="1.279832"
       x="-0.13991599">
      <feGaussianBlur
         id="feGaussianBlur1092"
         stdDeviation="0.28784801"
         inkscape:collect="always" />
    </filter>
    <linearGradient
       x1="304.88663"
       y1="385.86127"
       x2="345.62039"
       y2="384.62384"
       id="linearGradient3298-9"
       xlink:href="#linearGradient3489"
       gradientUnits="userSpaceOnUse" />
    <linearGradient
       id="linearGradient3489">
      <stop
         style="stop-color:#765c44;stop-opacity:1"
         offset="0"
         id="stop3491" />
      <stop
         style="stop-color:#765c44;stop-opacity:0"
         offset="1"
         id="stop3493" />
    </linearGradient>
    <filter
       id="filter1102"
       height="1.2774813"
       y="-0.13874064"
       width="1.279832"
       x="-0.13991599">
      <feGaussianBlur
         id="feGaussianBlur1100"
         stdDeviation="0.28784801"
         inkscape:collect="always" />
    </filter>
    <linearGradient
       id="linearGradient3366-3">
      <stop
         style="stop-color:#c8ff87;stop-opacity:1"
         offset="0"
         id="stop3368-5" />
      <stop
         style="stop-color:#abff87;stop-opacity:0"
         offset="1"
         id="stop4472-6" />
    </linearGradient>
    <filter
       id="filter1110"
       height="1.2774813"
       y="-0.13874064"
       width="1.279832"
       x="-0.13991599">
      <feGaussianBlur
         id="feGaussianBlur1108"
         stdDeviation="0.28784801"
         inkscape:collect="always" />
    </filter>
    <linearGradient
       x1="31.90625"
       y1="13.510336"
       x2="34.875107"
       y2="13.510336"
       id="linearGradient3310-2"
       xlink:href="#linearGradient3207"
       gradientUnits="userSpaceOnUse"
       gradientTransform="translate(-0.3)"
       spreadMethod="reflect" />
    <linearGradient
       id="linearGradient3207">
      <stop
         style="stop-color:#ffffff;stop-opacity:1"
         offset="0"
         id="stop3209" />
      <stop
         style="stop-color:#790000;stop-opacity:0"
         offset="1"
         id="stop3211" />
    </linearGradient>
    <filter
       id="filter1118"
       height="1.2774813"
       y="-0.13874064"
       width="1.279832"
       x="-0.13991599">
      <feGaussianBlur
         id="feGaussianBlur1116"
         stdDeviation="0.28784801"
         inkscape:collect="always" />
    </filter>
    <filter
       id="filter1129"
       height="1.2774813"
       y="-0.13874064"
       width="1.279832"
       x="-0.13991599">
      <feGaussianBlur
         id="feGaussianBlur1127"
         stdDeviation="0.28784801"
         inkscape:collect="always" />
    </filter>
    <radialGradient
       id="i"
       cx="84.903702"
       cy="-130.14005"
       gradientTransform="matrix(0.30794145,0.30794145,-0.30794145,0.30794145,49.969462,110.90745)"
       gradientUnits="userSpaceOnUse"
       r="57.039597"
       xlink:href="#j" />
    <linearGradient
       id="j">
      <stop
         offset="0"
         stop-color="#011701"
         id="stop29" />
      <stop
         offset=".80671918"
         stop-color="#145703"
         id="stop31" />
      <stop
         offset="1"
         stop-color="#2fa207"
         stop-opacity=".384314"
         id="stop33" />
    </linearGradient>
    <radialGradient
       id="k"
       cx="43.084476"
       cy="-121.92532"
       gradientTransform="matrix(0.30347528,0.31234377,-0.3628951,0.35259129,43.461643,116.16172)"
       gradientUnits="userSpaceOnUse"
       r="57.039597"
       xlink:href="#j" />
    <radialGradient
       id="l"
       cx="51.991096"
       cy="-78.028419"
       gradientTransform="matrix(0.28232256,0.33158686,-0.56115095,0.47778001,31.543879,122.93033)"
       gradientUnits="userSpaceOnUse"
       r="57.039597"
       xlink:href="#j" />
    <linearGradient
       id="m"
       gradientTransform="scale(1.0975951,0.9110828)"
       gradientUnits="userSpaceOnUse"
       x1="26.091133"
       x2="31.500689"
       xlink:href="#linearGradient2822"
       y1="14.856744"
       y2="14.856744" />
    <filter
       id="o"
       height="1.277481"
       width="1.279832"
       x="-0.139916"
       y="-0.138741">
      <feGaussianBlur
         stdDeviation=".28784801"
         id="feGaussianBlur44" />
    </filter>
    <filter
       id="filter1077"
       height="1.277481"
       width="1.279832"
       x="-0.139916"
       y="-0.138741">
      <feGaussianBlur
         stdDeviation=".28784801"
         id="feGaussianBlur1075" />
    </filter>
    <linearGradient
       id="p"
       gradientUnits="userSpaceOnUse"
       spreadMethod="pad"
       x1="33.346737"
       x2="32.553017"
       xlink:href="#linearGradient2822"
       y1="11.842831"
       y2="16.361324" />
    <filter
       id="filter1088"
       height="1.277481"
       width="1.279832"
       x="-0.139916"
       y="-0.138741">
      <feGaussianBlur
         stdDeviation=".28784801"
         id="feGaussianBlur1086" />
    </filter>
    <linearGradient
       id="q"
       gradientUnits="userSpaceOnUse"
       spreadMethod="reflect"
       x1="88.606247"
       x2="91.575104"
       y1="13.510336"
       y2="13.510336">
      <stop
         offset="0"
         stop-color="#c8ff87"
         id="stop48" />
      <stop
         offset="1"
         stop-color="#abff87"
         stop-opacity="0"
         id="stop50" />
    </linearGradient>
    <filter
       id="filter1095"
       height="1.277481"
       width="1.279832"
       x="-0.139916"
       y="-0.138741">
      <feGaussianBlur
         stdDeviation=".28784801"
         id="feGaussianBlur1093" />
    </filter>
    <linearGradient
       id="r"
       gradientUnits="userSpaceOnUse"
       spreadMethod="reflect"
       x1="31.606251"
       x2="34.575108"
       y1="13.510336"
       y2="13.510336">
      <stop
         offset="0"
         stop-color="#fff"
         id="stop53" />
      <stop
         offset="1"
         stop-color="#790000"
         stop-opacity="0"
         id="stop55" />
    </linearGradient>
    <filter
       id="filter1102-3"
       height="1.277481"
       width="1.279832"
       x="-0.139916"
       y="-0.138741">
      <feGaussianBlur
         stdDeviation=".28784801"
         id="feGaussianBlur1100-6" />
    </filter>
    <filter
       id="filter1112"
       height="1.277481"
       width="1.279832"
       x="-0.139916"
       y="-0.138741">
      <feGaussianBlur
         stdDeviation=".28784801"
         id="feGaussianBlur1110" />
    </filter>
    <filter
       id="filter1122"
       height="1.277481"
       width="1.279832"
       x="-0.139916"
       y="-0.138741">
      <feGaussianBlur
         stdDeviation=".28784801"
         id="feGaussianBlur1120" />
    </filter>
    <filter
       id="filter1132"
       height="1.277481"
       width="1.279832"
       x="-0.139916"
       y="-0.138741">
      <feGaussianBlur
         stdDeviation=".28784801"
         id="feGaussianBlur1130" />
    </filter>
    <radialGradient
       id="s"
       cx="50.424522"
       cy="-81.945961"
       gradientTransform="matrix(0.30794145,0.30794145,-0.30794145,0.30794145,49.969461,110.90745)"
       gradientUnits="userSpaceOnUse"
       r="50.15279">
      <stop
         offset="0"
         stop-color="#7ae91e"
         stop-opacity=".996078"
         id="stop58" />
      <stop
         offset="1"
         stop-color="#62c916"
         id="stop60" />
    </radialGradient>
    <filter
       style="color-interpolation-filters:sRGB"
       id="t"
       height="1.024"
       width="1.024"
       x="-0.012"
       y="-0.012">
      <feGaussianBlur
         stdDeviation=".28192153"
         id="feGaussianBlur63" />
    </filter>
    <linearGradient
       id="u"
       gradientUnits="userSpaceOnUse"
       x1="88.223732"
       x2="101.11488"
       xlink:href="#linearGradient2822"
       y1="51.615383"
       y2="113.91425" />
    <linearGradient
       spreadMethod="reflect"
       y2="13.510336"
       x2="91.575104"
       y1="13.510336"
       x1="88.606247"
       gradientUnits="userSpaceOnUse"
       id="linearGradient1166"
       xlink:href="#q"
       inkscape:collect="always" />
    <linearGradient
       spreadMethod="reflect"
       y2="13.510336"
       x2="34.575108"
       y1="13.510336"
       x1="31.606251"
       gradientUnits="userSpaceOnUse"
       id="linearGradient1168"
       xlink:href="#r"
       inkscape:collect="always" />
    <linearGradient
       inkscape:collect="always"
       xlink:href="#linearGradient2822"
       id="linearGradient1072"
       gradientUnits="userSpaceOnUse"
       gradientTransform="scale(1.0975951,0.9110828)"
       x1="26.091133"
       y1="14.856744"
       x2="31.500689"
       y2="14.856744" />
    <linearGradient
       inkscape:collect="always"
       xlink:href="#q"
       id="linearGradient1074"
       gradientUnits="userSpaceOnUse"
       x1="88.606247"
       y1="13.510336"
       x2="91.575104"
       y2="13.510336"
       spreadMethod="reflect" />
    <linearGradient
       inkscape:collect="always"
       xlink:href="#r"
       id="linearGradient1076"
       gradientUnits="userSpaceOnUse"
       x1="31.606251"
       y1="13.510336"
       x2="34.575108"
       y2="13.510336"
       spreadMethod="reflect" />
    <linearGradient
       inkscape:collect="always"
       xlink:href="#q"
       id="linearGradient1078"
       gradientUnits="userSpaceOnUse"
       x1="88.606247"
       y1="13.510336"
       x2="91.575104"
       y2="13.510336"
       spreadMethod="reflect" />
  </defs>
  <sodipodi:namedview
     id="base"
     pagecolor="#ffffff"
     bordercolor="#666666"
     borderopacity="1.0"
     inkscape:pageopacity="0.0"
     inkscape:pageshadow="2"
     inkscape:zoom="15.839192"
     inkscape:cx="14.756533"
     inkscape:cy="11.725267"
     inkscape:document-units="mm"
     inkscape:current-layer="g918"
     showgrid="true"
     units="px"
     inkscape:window-width="1366"
     inkscape:window-height="714"
     inkscape:window-x="0"
     inkscape:window-y="28"
     inkscape:window-maximized="1">
    <inkscape:grid
       type="xygrid"
       id="grid2266"
       spacingx="0.13229167"
       spacingy="0.13229167"
       empspacing="2" />
  </sodipodi:namedview>
  <metadata
     id="metadata5">
    <rdf:RDF>
      <cc:Work
         rdf:about="">
        <dc:format>image/svg+xml</dc:format>
        <dc:type
           rdf:resource="http://purl.org/dc/dcmitype/StillImage" />
        <dc:title></dc:title>
      </cc:Work>
    </rdf:RDF>
  </metadata>
  <g
     inkscape:label="Layer 1"
     inkscape:groupmode="layer"
     id="layer1"
     transform="translate(0,-290.64998)">
    <g
       id="g918"
       transform="matrix(0.171875,0,0,0.171875,1.6207101e-8,245.95311)">
      <g
         style="opacity:0.75"
         transform="translate(4.7667666e-4,7.6008475)"
         id="g2333">
        <path
           id="path2327"
           transform="matrix(0.26458333,0,0,0.26458333,0,263.13332)"
           d="m 0,46.5466 v 5.8181 l 30.908601,46.661989 8.728499,-0.11719 95.99747,0.480018 h 3.75781 l 0.24219,-0.117188 v -5.70091 -0.117188 L 104.72597,46.90943 Z m 6.6660156,5.8181 96.9703544,0.36283 29.33218,40.726701 -98.059949,-0.36283 z"
           style="opacity:1;fill:#555555;fill-opacity:1;stroke:none;stroke-width:4.5;stroke-linecap:round;stroke-linejoin:round;stroke-miterlimit:4;stroke-dasharray:none;stroke-dashoffset:0;stroke-opacity:1"
           inkscape:connector-curvature="0"
           sodipodi:nodetypes="cccccccccccccccc" />
        <path
           sodipodi:nodetypes="ccccccccc"
           inkscape:connector-curvature="0"
           id="path2329"
           d="m 28.41471,275.92932 0.05013,0.0139 0.01395,-0.0139 z m -26.6509934,1.05882 7.4725172,10.77561 25.9450272,0.096 -7.760806,-10.77561 z"
           style="fill:url(#linearGradient2335);fill-opacity:1;fill-rule:evenodd;stroke:none;stroke-width:0.26458332px;stroke-linecap:butt;stroke-linejoin:miter;stroke-opacity:1" />
        <path
           sodipodi:nodetypes="ccccccccc"
           inkscape:connector-curvature="0"
           id="path2331"
           d="m 28.41471,275.92932 0.05013,0.0139 0.01395,-0.0139 z m -26.6509934,1.05882 4.2333334,6.25351 25.656739,0.096 -4.233334,-6.25351 z"
           style="opacity:1;fill:url(#linearGradient2337);fill-opacity:1;stroke:none;stroke-width:1.19062495;stroke-linecap:round;stroke-linejoin:round;stroke-miterlimit:4;stroke-dasharray:none;stroke-dashoffset:0;stroke-opacity:1" />
      </g>
      <g
         id="g1439">
        <path
           sodipodi:nodetypes="cccccccccccccccc"
           inkscape:connector-curvature="0"
           style="opacity:1;fill:#555555;fill-opacity:1;stroke:none;stroke-width:4.5;stroke-linecap:round;stroke-linejoin:round;stroke-miterlimit:4;stroke-dasharray:none;stroke-dashoffset:0;stroke-opacity:1"
           d="m 0.00179856,40.365121 v 5.8181 L 30.9104,92.84521 l 8.728499,-0.11719 95.997471,0.480018 h 3.75781 l 0.24219,-0.117188 v -5.70091 -0.117188 l -34.9086,-46.544801 z m 6.66601564,5.8181 96.9703558,0.36283 29.33218,40.726701 -98.05995,-0.36283 z"
           transform="matrix(0.26458333,0,0,0.26458333,0,263.13332)"
           id="rect1392" />
        <path
           style="fill:url(#linearGradient1416);fill-opacity:1;fill-rule:evenodd;stroke:none;stroke-width:0.26458332px;stroke-linecap:butt;stroke-linejoin:miter;stroke-opacity:1"
           d="m 28.415186,274.2938 0.05013,0.0139 0.01395,-0.0139 z m -26.6509935,1.05882 7.4725172,10.77561 25.9450273,0.096 -7.760806,-10.77561 z"
           id="path1405"
           inkscape:connector-curvature="0"
           sodipodi:nodetypes="ccccccccc" />
        <path
           style="opacity:1;fill:url(#linearGradient1429);fill-opacity:1;stroke:none;stroke-width:1.19062495;stroke-linecap:round;stroke-linejoin:round;stroke-miterlimit:4;stroke-dasharray:none;stroke-dashoffset:0;stroke-opacity:1"
           d="m 28.415186,274.2938 0.05013,0.0139 0.01395,-0.0139 z m -26.6509935,1.05882 4.2333334,6.25351 25.6567391,0.096 -4.233334,-6.25351 z"
           id="rect1418"
           inkscape:connector-curvature="0"
           sodipodi:nodetypes="ccccccccc" />
      </g>
      <g
         transform="matrix(0.28863726,0,0,0.28863726,-18.709209,241.33778)"
         id="g209">
        <path
           style="fill:#1f5623;fill-opacity:0.90588199"
           inkscape:connector-curvature="0"
           d="m 125.7311,90.766045 c 5e-5,-1.656397 -1.34274,-2.99918 -2.99913,-2.999132 l -18.38328,-0.183095 0.0485,-18.151185 c 5e-5,-1.656396 -1.34274,-2.99918 -2.99913,-2.999132 l -10.617739,5e-6 c -1.656393,-4.8e-5 -2.999178,1.342735 -2.999131,2.999127 l -0.04848,18.151185 -18.333781,0.183099 c -1.656396,-4.8e-5 -2.99918,1.342735 -2.999132,2.999132 v 10.617741 c -4.8e-5,1.6564 1.342736,2.99918 2.999132,2.99913 l 18.333781,-0.1831 0.04908,18.56596 c -5e-5,1.6564 1.342736,2.99918 2.999132,2.99913 h 10.617738 c 1.65639,5e-5 2.99918,-1.34273 2.99913,-2.99913 l -0.0491,-18.56596 18.38328,0.18309 c 1.6564,5e-5 2.99918,-1.34274 2.99913,-2.99913 z"
           id="path175" />
        <path
           style="fill:url(#i)"
           inkscape:connector-curvature="0"
           d="m 125.7311,90.766045 c 5e-5,-1.656397 -1.34274,-2.99918 -2.99913,-2.999132 l -18.38328,-0.183095 0.0485,-18.151185 c 5e-5,-1.656396 -1.34274,-2.99918 -2.99913,-2.999132 l -10.617739,5e-6 c -1.656393,-4.8e-5 -2.999178,1.342735 -2.999131,2.999127 l -0.04848,18.151185 -18.333781,0.183099 c -1.656396,-4.8e-5 -2.99918,1.342735 -2.999132,2.999132 v 10.617741 c -4.8e-5,1.6564 1.342736,2.99918 2.999132,2.99913 l 18.333781,-0.1831 0.04908,18.56596 c -5e-5,1.6564 1.342736,2.99918 2.999132,2.99913 h 10.617738 c 1.65639,5e-5 2.99918,-1.34273 2.99913,-2.99913 l -0.0491,-18.56596 18.38328,0.18309 c 1.6564,5e-5 2.99918,-1.34274 2.99913,-2.99913 z"
           id="path177" />
        <path
           style="fill:#066704"
           inkscape:connector-curvature="0"
           d="m 125.7311,90.766045 c 5e-5,-1.656397 -1.34274,-2.99918 -2.99913,-2.999132 l -18.38328,-0.183095 0.0485,-18.151185 c 5e-5,-1.656396 -1.34274,-2.99918 -2.99913,-2.999132 l -10.617739,5e-6 c -1.656393,-4.8e-5 -2.999178,1.342735 -2.999131,2.999127 l -0.04848,18.151185 -18.333781,0.183099 c -1.656396,-4.8e-5 -2.99918,1.342735 -2.999132,2.999132 v 10.617741 c -4.8e-5,1.6564 1.342736,2.99918 2.999132,2.99913 l 18.333781,-0.1831 0.04908,18.56596 c -5e-5,1.6564 1.342736,2.99918 2.999132,2.99913 h 10.617738 c 1.65639,5e-5 2.99918,-1.34273 2.99913,-2.99913 l -0.0491,-18.56596 18.38328,0.18309 c 1.6564,5e-5 2.99918,-1.34274 2.99913,-2.99913 z"
           id="path179" />
        <path
           style="fill:url(#k)"
           inkscape:connector-curvature="0"
           d="m 125.7311,90.766045 c 5e-5,-1.656397 -1.34274,-2.99918 -2.99913,-2.999132 l -18.38328,-0.183095 0.0485,-18.151185 c 5e-5,-1.656396 -1.34274,-2.99918 -2.99913,-2.999132 l -10.617739,5e-6 c -1.656393,-4.8e-5 -2.999178,1.342735 -2.999131,2.999127 l -0.04848,18.151185 -18.333781,0.183099 c -1.656396,-4.8e-5 -2.99918,1.342735 -2.999132,2.999132 v 10.617741 c -4.8e-5,1.6564 1.342736,2.99918 2.999132,2.99913 l 18.333781,-0.1831 0.04908,18.56596 c -5e-5,1.6564 1.342736,2.99918 2.999132,2.99913 h 10.617738 c 1.65639,5e-5 2.99918,-1.34273 2.99913,-2.99913 l -0.0491,-18.56596 18.38328,0.18309 c 1.6564,5e-5 2.99918,-1.34274 2.99913,-2.99913 z"
           id="path181" />
        <path
           style="fill:url(#l)"
           inkscape:connector-curvature="0"
           d="m 125.7311,90.766045 c 5e-5,-1.656397 -1.34274,-2.99918 -2.99913,-2.999132 l -18.38328,-0.183095 0.0485,-18.151185 c 5e-5,-1.656396 -1.34274,-2.99918 -2.99913,-2.999132 l -10.617739,5e-6 c -1.656393,-4.8e-5 -2.999178,1.342735 -2.999131,2.999127 l -0.04848,18.151185 -18.333781,0.183099 c -1.656396,-4.8e-5 -2.99918,1.342735 -2.999132,2.999132 v 10.617741 c -4.8e-5,1.6564 1.342736,2.99918 2.999132,2.99913 l 18.333781,-0.1831 0.04908,18.56596 c -5e-5,1.6564 1.342736,2.99918 2.999132,2.99913 h 10.617738 c 1.65639,5e-5 2.99918,-1.34273 2.99913,-2.99913 l -0.0491,-18.56596 18.38328,0.18309 c 1.6564,5e-5 2.99918,-1.34274 2.99913,-2.99913 z"
           id="path183" />
        <g
           style="fill-rule:evenodd"
           transform="translate(-0.164416)"
           id="g201">
          <path
             style="opacity:0.498127;fill:url(#linearGradient1072);filter:url(#o)"
             inkscape:connector-curvature="0"
             d="m 31.7,16 2.875,-3.375 c -1.051205,-1.695758 -3.935136,-2.288018 -5.9375,-0.3125 l 2.8125,3.375 z"
             transform="matrix(-0.64954358,0.64954358,0.6557809,0.6557809,81.289533,61.297978)"
             id="path185" />
          <path
             style="opacity:0.79026196;fill:url(#m);filter:url(#o)"
             inkscape:connector-curvature="0"
             d="m 31.7,16 2.875,-3.375 c -1.051205,-1.695758 -3.935136,-2.288018 -5.9375,-0.3125 l 2.8125,3.375 z"
             transform="matrix(-0.6476361,-0.6476361,0.64147625,-0.64147625,102.80882,152.77126)"
             id="path187" />
          <path
             style="opacity:0.498127;fill:url(#p);filter:url(#o)"
             inkscape:connector-curvature="0"
             d="m 31.7,16 2.875,-3.375 c -1.051205,-1.695758 -3.935136,-2.288018 -5.9375,-0.3125 l 2.8125,3.375 z"
             transform="matrix(-0.58819378,0.58819378,-0.59384198,-0.59384198,128.42011,113.04167)"
             id="path189" />
          <path
             style="opacity:0.79026196;fill:url(#linearGradient1074);filter:url(#o)"
             inkscape:connector-curvature="0"
             d="m 88.7,16 2.875,-3.375 c -1.051205,-1.695758 -3.935136,-2.288018 -5.9375,-0.3125 l 2.8125,3.375 z"
             transform="matrix(-0.59384198,-0.59384198,0.58819378,-0.58819378,113.74798,161.95621)"
             id="path191" />
          <path
             style="opacity:0.79026196;fill:url(#linearGradient1076);filter:url(#o)"
             inkscape:connector-curvature="0"
             d="m 31.7,16 2.875,-3.375 c -1.051205,-1.695758 -3.935136,-2.288018 -5.9375,-0.3125 l 2.8125,3.375 z"
             transform="matrix(-0.54004786,-0.54004786,-0.53491131,0.53491131,147.78183,100.09653)"
             id="path193" />
          <path
             style="opacity:0.79026196;fill:url(#linearGradient1078);filter:url(#o)"
             inkscape:connector-curvature="0"
             d="m 88.7,16 2.875,-3.375 c -1.051205,-1.695758 -3.935136,-2.288018 -5.9375,-0.3125 l 2.8125,3.375 z"
             transform="matrix(-0.55444337,-0.55444337,-0.5491699,0.5491699,158.58595,110.58603)"
             id="path195" />
          <path
             style="opacity:0.79026196;fill:url(#linearGradient1168);filter:url(#o)"
             inkscape:connector-curvature="0"
             d="m 31.7,16 2.875,-3.375 c -1.051205,-1.695758 -3.935136,-2.288018 -5.9375,-0.3125 l 2.8125,3.375 z"
             transform="matrix(-0.54004786,0.54004786,-0.53491131,-0.53491131,147.68861,92.185302)"
             id="path197" />
          <path
             style="opacity:0.79026196;fill:url(#linearGradient1166);filter:url(#o)"
             inkscape:connector-curvature="0"
             d="m 88.7,16 2.875,-3.375 c -1.051205,-1.695758 -3.935136,-2.288018 -5.9375,-0.3125 l 2.8125,3.375 z"
             transform="matrix(0.55444337,-0.55444337,0.5491699,0.5491699,34.12719,110.58603)"
             id="path199" />
        </g>
        <path
           style="fill:url(#s)"
           inkscape:connector-curvature="0"
           d="m 122.73197,90.766045 -21.38241,-0.183095 0.0485,-21.150312 -10.617737,-5e-6 -0.04848,21.150317 -21.332913,0.183099 v 10.617741 l 21.332913,-0.1831 0.04908,21.56509 h 10.617737 l -0.0491,-21.56509 21.38241,0.18309 z"
           id="path203" />
        <path
           style="fill:#eef4ca;fill-opacity:0.77941165;filter:url(#t)"
           inkscape:connector-curvature="0"
           d="m 101.39845,69.432725 -10.617961,-5e-6 -0.04848,21.150595 -21.33344,0.182664 v 10.617971 l 21.332838,-0.1831 0.04908,21.56501 h 10.617963 l -0.0491,-21.56501 21.38234,0.18308 -1e-5,-10.617951 -21.38233,-0.183095 z m -0.75422,0.754216 -0.0491,20.395773 c -4e-5,0.41656 0.33766,0.754256 0.75422,0.754217 l 20.62812,0.183095 v 9.109524 l -20.62812,-0.18309 c -0.41656,-4e-5 -0.75426,0.33766 -0.75422,0.75422 l 0.0491,20.8108 h -9.109526 l -0.04908,-20.8108 c 4e-5,-0.41656 -0.337657,-0.75426 -0.754216,-0.75422 l -20.578621,0.1831 V 91.520025 L 90.732,91.337362 c 0.416558,3.9e-5 0.754257,-0.337657 0.754216,-0.754216 l 0.04848,-20.396375 z"
           id="path205" />
        <path
           style="fill:url(#u)"
           inkscape:connector-curvature="0"
           d="m 90.780548,69.432805 -0.04848,21.149226 -21.332673,0.183099 v 6.925781 c 5.787164,0.982213 10.225142,1.303218 16.244783,1.314948 13.882903,-0.01695 25.896292,-2.467983 37.087242,-7.338389 v -0.902344 l -21.38217,-0.183095 0.0485,-21.149226 z"
           id="path207" />
      </g>
    </g>
  </g>
</svg>
