<?xml version="1.0" encoding="UTF-8" standalone="no"?>
<svg
   xmlns:dc="http://purl.org/dc/elements/1.1/"
   xmlns:cc="http://creativecommons.org/ns#"
   xmlns:rdf="http://www.w3.org/1999/02/22-rdf-syntax-ns#"
   xmlns:svg="http://www.w3.org/2000/svg"
   xmlns="http://www.w3.org/2000/svg"
   xmlns:xlink="http://www.w3.org/1999/xlink"
   xmlns:sodipodi="http://sodipodi.sourceforge.net/DTD/sodipodi-0.dtd"
   xmlns:inkscape="http://www.inkscape.org/namespaces/inkscape"
   height="24"
   width="24"
   version="1.1"
   id="svg129"
   sodipodi:docname="lc_inserthyperlink.svg"
   inkscape:version="0.92.4 (unknown)"
   inkscape:export-filename="/home/rizmut/Dokumen/Rizmut/Github/libreoffice-style-karasa-jaga/build/next/cmd/lc_inserthyperlink.png"
   inkscape:export-xdpi="96"
   inkscape:export-ydpi="96">
  <metadata
     id="metadata135">
    <rdf:RDF>
      <cc:Work
         rdf:about="">
        <dc:format>image/svg+xml</dc:format>
        <dc:type
           rdf:resource="http://purl.org/dc/dcmitype/StillImage" />
        <dc:title></dc:title>
      </cc:Work>
    </rdf:RDF>
  </metadata>
  <defs
     id="defs133">
    <linearGradient
       inkscape:collect="always"
       xlink:href="#c"
       id="linearGradient4969"
       gradientUnits="userSpaceOnUse"
       x1="64"
       y1="83.729706"
       x2="64"
       y2="-62.169582" />
    <linearGradient
       inkscape:collect="always"
       xlink:href="#a"
       id="linearGradient4971"
       gradientUnits="userSpaceOnUse"
       x1="64"
       y1="24"
       x2="64"
       y2="-52" />
    <radialGradient
       inkscape:collect="always"
       xlink:href="#b"
       id="radialGradient4973"
       gradientUnits="userSpaceOnUse"
       gradientTransform="matrix(23,-1e-6,6.1e-7,14.035669,-1452,156.4281)"
       cx="66"
       cy="-10.851176"
       r="2"
       spreadMethod="reflect" />
    <clipPath
       clipPathUnits="userSpaceOnUse"
       id="clipPath4976">
      <rect
         id="rect4978"
         y="-62.379433"
         x="-156.80151"
         width="125.19099"
         ry="4.1449132"
         rx="4.3334389"
         height="125.19099"
         style="stroke-width:1"
         transform="matrix(-0.70710684,-0.70710672,-0.70710672,0.70710684,0,0)" />
    </clipPath>
    <radialGradient
       id="d-6"
       cx="84.903702"
       cy="-130.14005"
       gradientTransform="matrix(0.30794145,0.30794145,-0.30794145,0.30794145,49.969462,110.90745)"
       gradientUnits="userSpaceOnUse"
       r="57.039597"
       xlink:href="#e-2" />
    <linearGradient
       id="e-2">
      <stop
         offset="0"
         stop-color="#011701"
         id="stop20" />
      <stop
         offset=".80671918"
         stop-color="#145703"
         id="stop22" />
      <stop
         offset="1"
         stop-color="#2fa207"
         stop-opacity=".384314"
         id="stop24" />
    </linearGradient>
    <radialGradient
       id="f-9"
       cx="43.084476"
       cy="-121.92532"
       gradientTransform="matrix(0.30347528,0.31234377,-0.3628951,0.35259129,43.461643,116.16172)"
       gradientUnits="userSpaceOnUse"
       r="57.039597"
       xlink:href="#e-2" />
    <radialGradient
       id="g-1"
       cx="51.991096"
       cy="-78.028419"
       gradientTransform="matrix(0.28232256,0.33158686,-0.56115095,0.47778001,31.543879,122.93033)"
       gradientUnits="userSpaceOnUse"
       r="57.039597"
       xlink:href="#e-2" />
    <linearGradient
       inkscape:collect="always"
       xlink:href="#i-2"
       id="linearGradient2101"
       gradientUnits="userSpaceOnUse"
       gradientTransform="scale(1.0975951,0.9110828)"
       x1="26.091133"
       y1="14.856744"
       x2="31.500689"
       y2="14.856744" />
    <linearGradient
       id="i-2">
      <stop
         offset="0"
         stop-color="#fff"
         id="stop30-3" />
      <stop
         offset="1"
         stop-color="#fff"
         stop-opacity="0"
         id="stop32" />
    </linearGradient>
    <filter
       id="j-6"
       height="1.277481"
       width="1.279832"
       x="-0.139916"
       y="-0.138741">
      <feGaussianBlur
         stdDeviation=".28784801"
         id="feGaussianBlur35" />
    </filter>
    <filter
       id="filter4899"
       height="1.277481"
       width="1.279832"
       x="-0.139916"
       y="-0.138741">
      <feGaussianBlur
         stdDeviation=".28784801"
         id="feGaussianBlur4897" />
    </filter>
    <linearGradient
       inkscape:collect="always"
       xlink:href="#i-2"
       id="linearGradient5760"
       x1="33.346737"
       y1="11.842831"
       x2="32.553017"
       y2="16.361324"
       gradientUnits="userSpaceOnUse"
       spreadMethod="pad" />
    <filter
       id="filter4910"
       height="1.277481"
       width="1.279832"
       x="-0.139916"
       y="-0.138741">
      <feGaussianBlur
         stdDeviation=".28784801"
         id="feGaussianBlur4908" />
    </filter>
    <linearGradient
       inkscape:collect="always"
       xlink:href="#l-7"
       id="linearGradient2103"
       gradientUnits="userSpaceOnUse"
       x1="88.606247"
       y1="13.510336"
       x2="91.575104"
       y2="13.510336"
       spreadMethod="reflect" />
    <linearGradient
       id="l-7"
       gradientUnits="userSpaceOnUse"
       spreadMethod="reflect"
       x1="88.606247"
       x2="91.575104"
       y1="13.510336"
       y2="13.510336">
      <stop
         offset="0"
         stop-color="#c8ff87"
         id="stop43" />
      <stop
         offset="1"
         stop-color="#abff87"
         stop-opacity="0"
         id="stop45" />
    </linearGradient>
    <filter
       id="filter4918"
       height="1.277481"
       width="1.279832"
       x="-0.139916"
       y="-0.138741">
      <feGaussianBlur
         stdDeviation=".28784801"
         id="feGaussianBlur4916" />
    </filter>
    <linearGradient
       inkscape:collect="always"
       xlink:href="#m-5"
       id="linearGradient2105"
       gradientUnits="userSpaceOnUse"
       x1="31.606251"
       y1="13.510336"
       x2="34.575108"
       y2="13.510336"
       spreadMethod="reflect" />
    <linearGradient
       id="m-5"
       gradientUnits="userSpaceOnUse"
       spreadMethod="reflect"
       x1="31.606251"
       x2="34.575108"
       y1="13.510336"
       y2="13.510336">
      <stop
         offset="0"
         stop-color="#fff"
         id="stop48" />
      <stop
         offset="1"
         stop-color="#790000"
         stop-opacity="0"
         id="stop50" />
    </linearGradient>
    <filter
       id="filter4926"
       height="1.277481"
       width="1.279832"
       x="-0.139916"
       y="-0.138741">
      <feGaussianBlur
         stdDeviation=".28784801"
         id="feGaussianBlur4924" />
    </filter>
    <filter
       id="filter4937"
       height="1.277481"
       width="1.279832"
       x="-0.139916"
       y="-0.138741">
      <feGaussianBlur
         stdDeviation=".28784801"
         id="feGaussianBlur4935" />
    </filter>
    <filter
       id="filter4948"
       height="1.277481"
       width="1.279832"
       x="-0.139916"
       y="-0.138741">
      <feGaussianBlur
         stdDeviation=".28784801"
         id="feGaussianBlur4946" />
    </filter>
    <filter
       id="filter4959"
       height="1.277481"
       width="1.279832"
       x="-0.139916"
       y="-0.138741">
      <feGaussianBlur
         stdDeviation=".28784801"
         id="feGaussianBlur4957" />
    </filter>
    <radialGradient
       id="n-3"
       cx="50.424522"
       cy="-81.945961"
       gradientTransform="matrix(0.30794145,0.30794145,-0.30794145,0.30794145,49.969461,110.90745)"
       gradientUnits="userSpaceOnUse"
       r="50.15279">
      <stop
         offset="0"
         stop-color="#7ae91e"
         stop-opacity=".996078"
         id="stop53" />
      <stop
         offset="1"
         stop-color="#62c916"
         id="stop55-5" />
    </radialGradient>
    <filter
       id="o-6"
       height="1.024"
       width="1.024"
       x="-0.012"
       y="-0.012"
       style="color-interpolation-filters:sRGB">
      <feGaussianBlur
         stdDeviation=".28192153"
         id="feGaussianBlur58" />
    </filter>
    <linearGradient
       id="p-2"
       gradientUnits="userSpaceOnUse"
       x1="88.388145"
       x2="101.27929"
       xlink:href="#i-2"
       y1="51.615383"
       y2="113.91425"
       gradientTransform="translate(-0.16441565)" />
    <linearGradient
       inkscape:collect="always"
       xlink:href="#i-2"
       id="linearGradient5153"
       gradientUnits="userSpaceOnUse"
       gradientTransform="scale(1.0975951,0.9110828)"
       x1="26.091133"
       y1="14.856744"
       x2="31.500689"
       y2="14.856744" />
    <linearGradient
       inkscape:collect="always"
       xlink:href="#l-7"
       id="linearGradient5155"
       gradientUnits="userSpaceOnUse"
       x1="88.606247"
       y1="13.510336"
       x2="91.575104"
       y2="13.510336"
       spreadMethod="reflect" />
    <linearGradient
       inkscape:collect="always"
       xlink:href="#m-5"
       id="linearGradient5157"
       gradientUnits="userSpaceOnUse"
       x1="31.606251"
       y1="13.510336"
       x2="34.575108"
       y2="13.510336"
       spreadMethod="reflect" />
    <linearGradient
       inkscape:collect="always"
       xlink:href="#l-7"
       id="linearGradient5159"
       gradientUnits="userSpaceOnUse"
       x1="88.606247"
       y1="13.510336"
       x2="91.575104"
       y2="13.510336"
       spreadMethod="reflect" />
  </defs>
  <sodipodi:namedview
     pagecolor="#ffffff"
     bordercolor="#666666"
     borderopacity="1"
     objecttolerance="10"
     gridtolerance="10"
     guidetolerance="10"
     inkscape:pageopacity="0"
     inkscape:pageshadow="2"
     inkscape:window-width="640"
     inkscape:window-height="480"
     id="namedview131"
     showgrid="true"
     inkscape:zoom="10.518213"
     inkscape:cx="18.644917"
     inkscape:cy="12.726492"
     inkscape:current-layer="g4919">
    <inkscape:grid
       type="xygrid"
       id="grid4874" />
  </sodipodi:namedview>
  <linearGradient
     id="a">
    <stop
       offset="0"
       stop-color="#c8c8c8"
       id="stop2" />
    <stop
       offset="1"
       stop-color="#e4e4e4"
       id="stop4" />
  </linearGradient>
  <linearGradient
     id="b">
    <stop
       offset="0"
       stop-color="#fff"
       id="stop7" />
    <stop
       offset="1"
       stop-color="#fff"
       stop-opacity="0"
       id="stop9" />
  </linearGradient>
  <linearGradient
     id="c">
    <stop
       offset="0"
       id="stop12" />
    <stop
       offset="1"
       stop-color="#7c7c7c"
       id="stop14" />
  </linearGradient>
  <filter
     id="d">
    <feGaussianBlur
       stdDeviation="1.36"
       id="feGaussianBlur17" />
  </filter>
  <filter
     id="e"
     height="1.05568"
     width="1.348"
     x="-0.17399999"
     y="-0.02784">
    <feGaussianBlur
       stdDeviation="1.16"
       id="feGaussianBlur20" />
  </filter>
  <linearGradient
     id="f"
     gradientUnits="userSpaceOnUse"
     x1="70"
     x2="70"
     xlink:href="#c"
     y1="127"
     y2="32.952141" />
  <linearGradient
     id="g"
     gradientTransform="matrix(1.1428572,0,0,1,-7.142858,0)"
     gradientUnits="userSpaceOnUse"
     x1="64"
     x2="64"
     xlink:href="#a"
     y1="100"
     y2="28" />
  <radialGradient
     id="h"
     cx="64"
     cy="54.400002"
     gradientTransform="matrix(7.7142861,0,0,1.7500001,-427.71431,-43.200007)"
     gradientUnits="userSpaceOnUse"
     r="16"
     spreadMethod="reflect"
     xlink:href="#b" />
  <radialGradient
     id="i"
     cx="89.923889"
     cy="-1.4142076"
     gradientUnits="userSpaceOnUse"
     r="113.80746">
    <stop
       offset="0"
       stop-color="#fff"
       id="stop26" />
    <stop
       offset=".5"
       stop-color="#fff"
       id="stop28" />
    <stop
       offset="1"
       stop-opacity="0"
       id="stop30" />
  </radialGradient>
  <mask
     id="j"
     maskUnits="userSpaceOnUse">
    <path
       d="M 9.923884,-81.414215 H 169.92388 v 160 H 9.923884 Z"
       transform="rotate(44.999996)"
       id="path33"
       inkscape:connector-curvature="0"
       style="opacity:0.6;fill:url(#i)" />
  </mask>
  <linearGradient
     id="k"
     gradientUnits="userSpaceOnUse"
     x1="304.88663"
     x2="345.62039"
     y1="385.86127"
     y2="384.62384">
    <stop
       offset="0"
       stop-color="#765c44"
       id="stop36" />
    <stop
       offset="1"
       stop-color="#765c44"
       stop-opacity="0"
       id="stop38" />
  </linearGradient>
  <radialGradient
     id="l"
     cx="84.903702"
     cy="-130.14005"
     gradientTransform="matrix(0.30794145,0.30794145,-0.30794145,0.30794145,50.133878,110.90745)"
     gradientUnits="userSpaceOnUse"
     r="57.039597"
     xlink:href="#m" />
  <linearGradient
     id="m">
    <stop
       offset="0"
       stop-color="#011701"
       id="stop42" />
    <stop
       offset=".80671918"
       stop-color="#145703"
       id="stop44" />
    <stop
       offset="1"
       stop-color="#2fa207"
       stop-opacity=".384314"
       id="stop46" />
  </linearGradient>
  <radialGradient
     id="n"
     cx="43.084476"
     cy="-121.92532"
     gradientTransform="matrix(0.30347528,0.31234377,-0.3628951,0.35259129,43.626059,116.16172)"
     gradientUnits="userSpaceOnUse"
     r="57.039597"
     xlink:href="#m" />
  <radialGradient
     id="o"
     cx="51.991096"
     cy="-78.028419"
     gradientTransform="matrix(0.28232256,0.33158686,-0.56115095,0.47778001,31.708295,122.93033)"
     gradientUnits="userSpaceOnUse"
     r="57.039597"
     xlink:href="#m" />
  <linearGradient
     id="p"
     gradientTransform="scale(1.0975951,0.9110828)"
     gradientUnits="userSpaceOnUse"
     x1="26.091133"
     x2="31.500689"
     xlink:href="#b"
     y1="14.856744"
     y2="14.856744" />
  <filter
     id="q"
     height="1.277481"
     width="1.279832"
     x="-0.139916"
     y="-0.138741">
    <feGaussianBlur
       stdDeviation=".28784801"
       id="feGaussianBlur52" />
  </filter>
  <linearGradient
     id="r"
     gradientUnits="userSpaceOnUse"
     spreadMethod="reflect"
     x1="88.606247"
     x2="91.575104"
     y1="13.510336"
     y2="13.510336">
    <stop
       offset="0"
       stop-color="#c8ff87"
       id="stop55" />
    <stop
       offset="1"
       stop-color="#abff87"
       stop-opacity="0"
       id="stop57" />
  </linearGradient>
  <linearGradient
     id="s"
     gradientUnits="userSpaceOnUse"
     spreadMethod="reflect"
     x1="31.606251"
     x2="34.575108"
     y1="13.510336"
     y2="13.510336">
    <stop
       offset="0"
       stop-color="#fff"
       id="stop60" />
    <stop
       offset="1"
       stop-color="#790000"
       stop-opacity="0"
       id="stop62" />
  </linearGradient>
  <radialGradient
     id="t"
     cx="50.424522"
     cy="-81.945961"
     gradientTransform="matrix(0.30794145,0.30794145,-0.30794145,0.30794145,50.133877,110.90745)"
     gradientUnits="userSpaceOnUse"
     r="50.15279">
    <stop
       offset="0"
       stop-color="#7ae91e"
       stop-opacity=".996078"
       id="stop65" />
    <stop
       offset="1"
       stop-color="#62c916"
       id="stop67" />
  </radialGradient>
  <filter
     id="u"
     height="1.024"
     width="1.024"
     x="-0.012"
     y="-0.012"
     style="color-interpolation-filters:sRGB">
    <feGaussianBlur
       stdDeviation=".28192153"
       id="feGaussianBlur70" />
  </filter>
  <linearGradient
     id="v"
     gradientUnits="userSpaceOnUse"
     x1="88.388145"
     x2="101.27929"
     xlink:href="#b"
     y1="51.615383"
     y2="113.91425" />
  <linearGradient
     id="w"
     gradientUnits="userSpaceOnUse"
     x1="64"
     x2="64"
     xlink:href="#c"
     y1="83.729706"
     y2="-62.169582" />
  <linearGradient
     id="x"
     gradientUnits="userSpaceOnUse"
     x1="64"
     x2="64"
     xlink:href="#a"
     y1="24"
     y2="-52" />
  <radialGradient
     id="y"
     cx="66"
     cy="-10.851176"
     gradientTransform="matrix(23,-1e-6,6.1e-7,14.035669,-1452,156.4281)"
     gradientUnits="userSpaceOnUse"
     r="2"
     spreadMethod="reflect"
     xlink:href="#b" />
  <g
     id="g4919"
     transform="matrix(0.171875,0,0,0.171875,1.000004,0.9999656)">
    <g
       id="g95"
       transform="matrix(-0.78869759,-0.78869745,-0.78869745,0.78869759,169.07612,63.759209)"
       mask="url(#j)"
       clip-path="url(#clipPath4976)">
      <rect
         id="rect80"
         y="22"
         x="50"
         width="28"
         transform="matrix(1.1428572,0,0,1,-7.14286,0)"
         style="opacity:0.85;fill:none;stroke:url(#f);stroke-width:18.2977829;stroke-linecap:round;stroke-linejoin:round;filter:url(#d)"
         rx="18.257076"
         height="84" />
      <rect
         id="rect82"
         y="22"
         x="50.000004"
         width="32"
         rx="20.865231"
         height="84"
         style="fill:none;stroke:url(#g);stroke-width:7.82446098;stroke-linecap:round;stroke-linejoin:round" />
      <rect
         id="rect84"
         y="22"
         x="50.000004"
         width="32"
         rx="20.865231"
         height="84"
         style="fill:none;stroke:url(#h);stroke-width:7.82446098;stroke-linecap:round;stroke-linejoin:round" />
      <g
         transform="translate(0,4)"
         id="A">
        <rect
           id="rect86"
           y="-56"
           x="64"
           width="3.8369911"
           style="opacity:0.6;fill:none;stroke:url(#linearGradient4969);stroke-width:18.25707626;stroke-linecap:round;stroke-linejoin:round;filter:url(#e)"
           ry="2.6081541"
           rx="1.510971"
           height="94.031357" />
        <rect
           id="rect88"
           y="-55.70195"
           x="62.104618"
           width="8.5638618"
           ry="2.6081541"
           rx="2.5763259"
           height="90.650108"
           style="fill:url(#linearGradient4971)" />
        <rect
           id="rect90"
           y="-55.049911"
           x="62.430637"
           width="8.2378426"
           rx="2.6081541"
           height="89.99807"
           style="fill:url(#radialGradient4973)" />
      </g>
      <use
         id="use93"
         xlink:href="#A"
         width="128"
         transform="translate(0,144)"
         height="128"
         x="0"
         y="0" />
    </g>
    <g
       transform="matrix(1.0909125,0,0,1.0909125,-5.8896124,-5.9266405)"
       id="g102">
      <path
         sodipodi:nodetypes="ccccccccccccccccccccc"
         d="m 125.7311,90.766045 c 5e-5,-1.656397 -1.34274,-2.99918 -2.99913,-2.999132 l -18.38328,-0.183095 0.0485,-18.151185 c 5e-5,-1.656396 -1.34274,-2.99918 -2.99913,-2.999132 l -10.617739,5e-6 c -1.656393,-4.8e-5 -2.999178,1.342735 -2.999131,2.999127 l -0.04848,18.151185 -18.333781,0.183099 c -1.656396,-4.8e-5 -2.99918,1.342735 -2.999132,2.999132 v 10.617741 c -4.8e-5,1.6564 1.342736,2.99918 2.999132,2.99913 l 18.333781,-0.1831 0.04908,18.56596 c -5e-5,1.6564 1.342736,2.99918 2.999132,2.99913 h 10.617738 c 1.65639,5e-5 2.99918,-1.34273 2.99913,-2.99913 l -0.0491,-18.56596 18.38328,0.18309 c 1.6564,5e-5 2.99918,-1.34274 2.99913,-2.99913 z"
         id="path72"
         inkscape:connector-curvature="0"
         style="fill:#1f5623;fill-opacity:0.90588199" />
      <path
         sodipodi:nodetypes="ccccccccccccccccccccc"
         d="m 125.7311,90.766045 c 5e-5,-1.656397 -1.34274,-2.99918 -2.99913,-2.999132 l -18.38328,-0.183095 0.0485,-18.151185 c 5e-5,-1.656396 -1.34274,-2.99918 -2.99913,-2.999132 l -10.617739,5e-6 c -1.656393,-4.8e-5 -2.999178,1.342735 -2.999131,2.999127 l -0.04848,18.151185 -18.333781,0.183099 c -1.656396,-4.8e-5 -2.99918,1.342735 -2.999132,2.999132 v 10.617741 c -4.8e-5,1.6564 1.342736,2.99918 2.999132,2.99913 l 18.333781,-0.1831 0.04908,18.56596 c -5e-5,1.6564 1.342736,2.99918 2.999132,2.99913 h 10.617738 c 1.65639,5e-5 2.99918,-1.34273 2.99913,-2.99913 l -0.0491,-18.56596 18.38328,0.18309 c 1.6564,5e-5 2.99918,-1.34274 2.99913,-2.99913 z"
         id="path74"
         inkscape:connector-curvature="0"
         style="fill:url(#d-6)" />
      <path
         sodipodi:nodetypes="ccccccccccccccccccccc"
         d="m 125.7311,90.766045 c 5e-5,-1.656397 -1.34274,-2.99918 -2.99913,-2.999132 l -18.38328,-0.183095 0.0485,-18.151185 c 5e-5,-1.656396 -1.34274,-2.99918 -2.99913,-2.999132 l -10.617739,5e-6 c -1.656393,-4.8e-5 -2.999178,1.342735 -2.999131,2.999127 l -0.04848,18.151185 -18.333781,0.183099 c -1.656396,-4.8e-5 -2.99918,1.342735 -2.999132,2.999132 v 10.617741 c -4.8e-5,1.6564 1.342736,2.99918 2.999132,2.99913 l 18.333781,-0.1831 0.04908,18.56596 c -5e-5,1.6564 1.342736,2.99918 2.999132,2.99913 h 10.617738 c 1.65639,5e-5 2.99918,-1.34273 2.99913,-2.99913 l -0.0491,-18.56596 18.38328,0.18309 c 1.6564,5e-5 2.99918,-1.34274 2.99913,-2.99913 z"
         id="path76"
         inkscape:connector-curvature="0"
         style="fill:#066704" />
      <path
         sodipodi:nodetypes="ccccccccccccccccccccc"
         d="m 125.7311,90.766045 c 5e-5,-1.656397 -1.34274,-2.99918 -2.99913,-2.999132 l -18.38328,-0.183095 0.0485,-18.151185 c 5e-5,-1.656396 -1.34274,-2.99918 -2.99913,-2.999132 l -10.617739,5e-6 c -1.656393,-4.8e-5 -2.999178,1.342735 -2.999131,2.999127 l -0.04848,18.151185 -18.333781,0.183099 c -1.656396,-4.8e-5 -2.99918,1.342735 -2.999132,2.999132 v 10.617741 c -4.8e-5,1.6564 1.342736,2.99918 2.999132,2.99913 l 18.333781,-0.1831 0.04908,18.56596 c -5e-5,1.6564 1.342736,2.99918 2.999132,2.99913 h 10.617738 c 1.65639,5e-5 2.99918,-1.34273 2.99913,-2.99913 l -0.0491,-18.56596 18.38328,0.18309 c 1.6564,5e-5 2.99918,-1.34274 2.99913,-2.99913 z"
         id="path78"
         inkscape:connector-curvature="0"
         style="fill:url(#f-9)" />
      <path
         sodipodi:nodetypes="ccccccccccccccccccccc"
         d="m 125.7311,90.766045 c 5e-5,-1.656397 -1.34274,-2.99918 -2.99913,-2.999132 l -18.38328,-0.183095 0.0485,-18.151185 c 5e-5,-1.656396 -1.34274,-2.99918 -2.99913,-2.999132 l -10.617739,5e-6 c -1.656393,-4.8e-5 -2.999178,1.342735 -2.999131,2.999127 l -0.04848,18.151185 -18.333781,0.183099 c -1.656396,-4.8e-5 -2.99918,1.342735 -2.999132,2.999132 v 10.617741 c -4.8e-5,1.6564 1.342736,2.99918 2.999132,2.99913 l 18.333781,-0.1831 0.04908,18.56596 c -5e-5,1.6564 1.342736,2.99918 2.999132,2.99913 h 10.617738 c 1.65639,5e-5 2.99918,-1.34273 2.99913,-2.99913 l -0.0491,-18.56596 18.38328,0.18309 c 1.6564,5e-5 2.99918,-1.34274 2.99913,-2.99913 z"
         id="path80"
         inkscape:connector-curvature="0"
         style="fill:url(#g-1)" />
      <g
         transform="translate(-0.16441565)"
         id="g94"
         style="fill-rule:evenodd">
        <path
           d="m 31.7,16 2.875,-3.375 c -1.051205,-1.695758 -3.935136,-2.288018 -5.9375,-0.3125 l 2.8125,3.375 z"
           transform="matrix(-0.64954358,0.64954358,0.6557809,0.6557809,81.289533,61.297978)"
           id="path82"
           inkscape:connector-curvature="0"
           style="opacity:0.498127;fill:url(#linearGradient5153);filter:url(#j-6)" />
        <path
           d="m 31.7,16 2.875,-3.375 c -1.051205,-1.695758 -3.935136,-2.288018 -5.9375,-0.3125 l 2.8125,3.375 z"
           transform="matrix(-0.6476361,-0.6476361,0.64147625,-0.64147625,102.80882,152.77126)"
           id="path84"
           inkscape:connector-curvature="0"
           style="opacity:0.79026196;fill:url(#linearGradient2101);filter:url(#j-6)" />
        <path
           d="m 31.7,16 2.875,-3.375 c -1.051205,-1.695758 -3.935136,-2.288018 -5.9375,-0.3125 l 2.8125,3.375 z"
           transform="matrix(-0.58819378,0.58819378,-0.59384198,-0.59384198,128.42011,113.04167)"
           id="path86"
           inkscape:connector-curvature="0"
           style="opacity:0.498127;fill:url(#linearGradient5760);fill-opacity:1;filter:url(#j-6)" />
        <path
           d="m 88.7,16 2.875,-3.375 c -1.051205,-1.695758 -3.935136,-2.288018 -5.9375,-0.3125 l 2.8125,3.375 z"
           transform="matrix(-0.59384198,-0.59384198,0.58819378,-0.58819378,113.74798,161.95621)"
           id="path88"
           inkscape:connector-curvature="0"
           style="opacity:0.79026196;fill:url(#linearGradient5155);filter:url(#j-6)" />
        <path
           d="m 31.7,16 2.875,-3.375 c -1.051205,-1.695758 -3.935136,-2.288018 -5.9375,-0.3125 l 2.8125,3.375 z"
           transform="matrix(-0.54004786,-0.54004786,-0.53491131,0.53491131,147.78183,100.09653)"
           id="path90"
           inkscape:connector-curvature="0"
           style="opacity:0.79026196;fill:url(#linearGradient5157);filter:url(#j-6)" />
        <path
           d="m 88.7,16 2.875,-3.375 c -1.051205,-1.695758 -3.935136,-2.288018 -5.9375,-0.3125 l 2.8125,3.375 z"
           transform="matrix(-0.55444337,-0.55444337,-0.5491699,0.5491699,158.58595,110.58603)"
           id="path92"
           inkscape:connector-curvature="0"
           style="opacity:0.79026196;fill:url(#linearGradient5159);filter:url(#j-6)" />
        <path
           style="opacity:0.79026196;fill:url(#linearGradient2105);filter:url(#j-6)"
           inkscape:connector-curvature="0"
           id="path5762"
           transform="matrix(-0.54004786,0.54004786,-0.53491131,-0.53491131,147.68861,92.185302)"
           d="m 31.7,16 2.875,-3.375 c -1.051205,-1.695758 -3.935136,-2.288018 -5.9375,-0.3125 l 2.8125,3.375 z" />
        <path
           style="opacity:0.79026196;fill:url(#linearGradient2103);filter:url(#j-6)"
           inkscape:connector-curvature="0"
           id="path5766"
           transform="matrix(0.55444337,-0.55444337,0.5491699,0.5491699,34.12719,110.58603)"
           d="m 88.7,16 2.875,-3.375 c -1.051205,-1.695758 -3.935136,-2.288018 -5.9375,-0.3125 l 2.8125,3.375 z" />
      </g>
      <path
         sodipodi:nodetypes="ccccccccccccc"
         d="m 122.73197,90.766045 -21.38241,-0.183095 0.0485,-21.150312 -10.617737,-5e-6 -0.04848,21.150317 -21.332913,0.183099 v 10.617741 l 21.332913,-0.1831 0.04908,21.56509 h 10.617737 l -0.0491,-21.56509 21.38241,0.18309 z"
         id="path96"
         inkscape:connector-curvature="0"
         style="fill:url(#n-3)" />
      <path
         sodipodi:nodetypes="cccccccccccccccccccccccccccccc"
         d="m 101.39845,69.432725 -10.617961,-5e-6 -0.04848,21.150595 -21.33344,0.182664 v 10.617971 l 21.332838,-0.1831 0.04908,21.56501 h 10.617963 l -0.0491,-21.56501 21.38234,0.18308 -1e-5,-10.617951 -21.38233,-0.183095 z m -0.75422,0.754216 -0.0491,20.395773 c -4e-5,0.41656 0.33766,0.754256 0.75422,0.754217 l 20.62812,0.183095 v 9.109524 l -20.62812,-0.18309 c -0.41656,-4e-5 -0.75426,0.33766 -0.75422,0.75422 l 0.0491,20.8108 h -9.109526 l -0.04908,-20.8108 c 4e-5,-0.41656 -0.337657,-0.75426 -0.754216,-0.75422 l -20.578621,0.1831 V 91.520025 L 90.732,91.337362 c 0.416558,3.9e-5 0.754257,-0.337657 0.754216,-0.754216 l 0.04848,-20.396375 z"
         id="path98"
         inkscape:connector-curvature="0"
         style="fill:#eef4ca;fill-opacity:0.77941165;filter:url(#o-6)" />
      <path
         sodipodi:nodetypes="cccccccccc"
         d="m 90.780548,69.432805 -0.04848,21.149226 -21.332673,0.183099 v 6.925781 c 5.787164,0.982213 10.225142,1.303218 16.244783,1.314948 13.882903,-0.01695 25.896292,-2.467983 37.087242,-7.338389 v -0.902344 l -21.38217,-0.183095 0.0485,-21.149226 z"
         id="path100"
         inkscape:connector-curvature="0"
         style="fill:url(#p-2)" />
    </g>
  </g>
</svg>
