<?xml version="1.0" encoding="UTF-8" standalone="no"?>
<!-- Created with Inkscape (http://www.inkscape.org/) -->

<svg
   xmlns:dc="http://purl.org/dc/elements/1.1/"
   xmlns:cc="http://creativecommons.org/ns#"
   xmlns:rdf="http://www.w3.org/1999/02/22-rdf-syntax-ns#"
   xmlns:svg="http://www.w3.org/2000/svg"
   xmlns="http://www.w3.org/2000/svg"
   xmlns:xlink="http://www.w3.org/1999/xlink"
   xmlns:sodipodi="http://sodipodi.sourceforge.net/DTD/sodipodi-0.dtd"
   xmlns:inkscape="http://www.inkscape.org/namespaces/inkscape"
   width="24"
   height="24"
   id="svg2"
   sodipodi:version="0.32"
   inkscape:version="0.92.4 (unknown)"
   version="1.0"
   sodipodi:docname="lc_insertctrl.svg"
   inkscape:output_extension="org.inkscape.output.svgz.inkscape"
   inkscape:export-filename="/home/rizmut/Dokumen/Rizmut/Github/libreoffice-style-karasa-jaga/build/next/cmd/lc_insertctrl.png"
   inkscape:export-xdpi="96"
   inkscape:export-ydpi="96">
  <defs
     id="defs4">
    <radialGradient
       gradientUnits="userSpaceOnUse"
       r="120"
       cy="27.3013"
       cx="232.5"
       id="radialGradient4574">
      <stop
         id="stop4576"
         style="stop-color:#ffee93;stop-opacity:1;"
         offset="0" />
      <stop
         offset="0.3388288"
         style="stop-color:#c57c00;stop-opacity:1"
         id="stop4578" />
      <stop
         offset="0.59700626"
         style="stop-color:#ffff32;stop-opacity:1"
         id="stop4580" />
      <stop
         id="stop4582"
         style="stop-color:#ffe171;stop-opacity:1;"
         offset="1" />
    </radialGradient>
    <inkscape:path-effect
       effect="skeletal"
       id="path-effect24282"
       is_visible="true"
       pattern="M 0,0 V 10 L 10,5 Z"
       copytype="single_stretched"
       prop_scale="1"
       scale_y_rel="false"
       spacing="0"
       normal_offset="0"
       tang_offset="0"
       prop_units="false"
       vertical_pattern="false"
       fuse_tolerance="0" />
    <inkscape:path-effect
       effect="spiro"
       id="path-effect24280"
       is_visible="true" />
    <linearGradient
       inkscape:collect="always"
       id="linearGradient24113">
      <stop
         style="stop-color:#fffbba;stop-opacity:1;"
         offset="0"
         id="stop24115" />
      <stop
         style="stop-color:#fffbba;stop-opacity:0;"
         offset="1"
         id="stop24117" />
    </linearGradient>
    <linearGradient
       inkscape:collect="always"
       id="linearGradient24091">
      <stop
         style="stop-color:#fff201;stop-opacity:1;"
         offset="0"
         id="stop24093" />
      <stop
         style="stop-color:#fff201;stop-opacity:0;"
         offset="1"
         id="stop24095" />
    </linearGradient>
    <radialGradient
       id="radialGradient24014"
       cx="232.5"
       cy="27.3013"
       r="120"
       gradientUnits="userSpaceOnUse">
      <stop
         offset="0"
         style="stop-color:#ffee93;stop-opacity:1;"
         id="stop24016" />
      <stop
         id="stop24018"
         style="stop-color:#c57c00;stop-opacity:1"
         offset="0.49229774" />
      <stop
         id="stop24020"
         style="stop-color:#ffff7d;stop-opacity:1;"
         offset="0.59700626" />
      <stop
         offset="1"
         style="stop-color:#ffe171;stop-opacity:1;"
         id="stop24022" />
    </radialGradient>
    <linearGradient
       id="linearGradient4089">
      <stop
         style="stop-color:#dee1e5;stop-opacity:1;"
         offset="0"
         id="stop4091" />
      <stop
         style="stop-color:#fafafa;stop-opacity:1"
         offset="1"
         id="stop4093" />
    </linearGradient>
    <radialGradient
       gradientUnits="userSpaceOnUse"
       r="120"
       cy="27.3013"
       cx="232.5"
       id="radialGradient2810-3">
      <stop
         id="stop2812-6"
         style="stop-color:#c2c2d0;stop-opacity:1;"
         offset="0" />
      <stop
         offset="0.5"
         style="stop-color:#ffffff;stop-opacity:1;"
         id="stop2816-1" />
      <stop
         id="stop2820-0"
         style="stop-color:#b3b2be;stop-opacity:1;"
         offset="1" />
    </radialGradient>
    <linearGradient
       id="linearGradient2797-3-6">
      <stop
         id="stop2799-7-8"
         offset="0"
         style="stop-color:#ffffff;stop-opacity:1;" />
      <stop
         id="stop2801-4-8"
         offset="1"
         style="stop-color:#ffffff;stop-opacity:0;" />
    </linearGradient>
    <linearGradient
       id="linearGradient3796-9">
      <stop
         id="stop3798-2"
         offset="0"
         style="stop-color:#ffffff;stop-opacity:1;" />
      <stop
         id="stop3800-0"
         offset="1"
         style="stop-color:#ffffff;stop-opacity:0.66071427;" />
    </linearGradient>
    <linearGradient
       inkscape:collect="always"
       xlink:href="#linearGradient2797-3-6"
       id="linearGradient5944-7"
       gradientUnits="userSpaceOnUse"
       x1="109.96723"
       y1="88.015862"
       x2="232"
       y2="88.015862"
       gradientTransform="translate(0,2.1258009)" />
    <linearGradient
       inkscape:collect="always"
       xlink:href="#linearGradient2797-3-6"
       id="linearGradient5948-7"
       gradientUnits="userSpaceOnUse"
       x1="356.38586"
       y1="27"
       x2="232"
       y2="-65.195312"
       gradientTransform="translate(0,2.1258009)" />
    <radialGradient
       gradientUnits="userSpaceOnUse"
       r="120"
       cy="27.3013"
       cx="232.5"
       id="radialGradient2810-4">
      <stop
         id="stop2812-5"
         style="stop-color:#ffee93;stop-opacity:1;"
         offset="0" />
      <stop
         offset="0.3773585"
         style="stop-color:#c57c00;stop-opacity:1;"
         id="stop3686" />
      <stop
         offset="0.49483803"
         style="stop-color:#ffff7d;stop-opacity:1;"
         id="stop2816-0" />
      <stop
         id="stop2820-3"
         style="stop-color:#ffe171;stop-opacity:1;"
         offset="1" />
    </radialGradient>
    <linearGradient
       gradientTransform="translate(0,2.1258009)"
       y2="-65.195312"
       x2="232"
       y1="27"
       x1="356.38586"
       gradientUnits="userSpaceOnUse"
       id="linearGradient5948"
       xlink:href="#linearGradient2797-3"
       inkscape:collect="always" />
    <linearGradient
       gradientTransform="translate(0,2.1258009)"
       y2="88.015862"
       x2="232"
       y1="88.015862"
       x1="109.96723"
       gradientUnits="userSpaceOnUse"
       id="linearGradient5944"
       xlink:href="#linearGradient2797-3"
       inkscape:collect="always" />
    <linearGradient
       id="linearGradient3796">
      <stop
         style="stop-color:#ffffff;stop-opacity:1;"
         offset="0"
         id="stop3798-4" />
      <stop
         style="stop-color:#ffffff;stop-opacity:0.66071427;"
         offset="1"
         id="stop3800" />
    </linearGradient>
    <linearGradient
       id="linearGradient2797-3">
      <stop
         style="stop-color:#ffffff;stop-opacity:1;"
         offset="0"
         id="stop2799-7" />
      <stop
         style="stop-color:#ffffff;stop-opacity:0;"
         offset="1"
         id="stop2801-4" />
    </linearGradient>
    <radialGradient
       id="radialGradient2810"
       cx="232.5"
       cy="27.3013"
       r="120"
       gradientUnits="userSpaceOnUse">
      <stop
         offset="0"
         style="stop-color:#c2c2d0;stop-opacity:1;"
         id="stop2812" />
      <stop
         id="stop2816"
         style="stop-color:#ffffff;stop-opacity:1;"
         offset="0.5" />
      <stop
         offset="1"
         style="stop-color:#b3b2be;stop-opacity:1;"
         id="stop2820-00" />
    </radialGradient>
    <linearGradient
       inkscape:collect="always"
       xlink:href="#radialGradient2810-4"
       id="linearGradient24008"
       x1="89.954811"
       y1="100.94856"
       x2="89.954811"
       y2="61.268738"
       gradientUnits="userSpaceOnUse" />
    <radialGradient
       inkscape:collect="always"
       xlink:href="#radialGradient4574"
       id="radialGradient24040"
       cx="90.121712"
       cy="78.674843"
       fx="90.121712"
       fy="78.674843"
       r="19.575562"
       gradientUnits="userSpaceOnUse"
       gradientTransform="matrix(1.7024894,0,0,1.7024894,-63.192305,-52.615725)" />
    <filter
       inkscape:collect="always"
       id="filter24058">
      <feGaussianBlur
         inkscape:collect="always"
         stdDeviation="1.4657703"
         id="feGaussianBlur24060" />
    </filter>
    <filter
       inkscape:collect="always"
       id="filter24064">
      <feGaussianBlur
         inkscape:collect="always"
         stdDeviation="0.6412745"
         id="feGaussianBlur24066" />
    </filter>
    <clipPath
       clipPathUnits="userSpaceOnUse"
       id="clipPath24074">
      <path
         sodipodi:type="star"
         style="opacity:0.39436634;fill:url(#linearGradient24078);fill-opacity:1;stroke:none"
         id="path24076"
         sodipodi:sides="11"
         sodipodi:cx="90.156113"
         sodipodi:cy="85.220039"
         sodipodi:r1="19.827379"
         sodipodi:r2="16.040688"
         sodipodi:arg1="0.78539816"
         sodipodi:arg2="1.0709975"
         inkscape:flatsided="false"
         inkscape:rounded="0"
         inkscape:randomized="0"
         d="m 104.17619,99.240114 -6.332594,0.0585 -3.472871,5.295686 -5.358942,-3.37444 -5.784629,2.57744 -2.683867,-5.736029 -6.259809,-0.959126 0.843317,-6.27646 -4.747544,-4.191177 4.102754,-4.824162 -1.727967,-6.092558 6.059596,-1.840228 1.840227,-6.059595 6.092558,1.727967 4.824163,-4.102754 4.191176,4.747544 6.276462,-0.843317 0.95912,6.259809 5.73603,2.683866 -2.57744,5.78463 3.37444,5.358942 -5.29568,3.472871 z"
         transform="translate(80,-0.9385641)" />
    </clipPath>
    <linearGradient
       inkscape:collect="always"
       xlink:href="#radialGradient24014"
       id="linearGradient24078"
       gradientUnits="userSpaceOnUse"
       x1="73.711586"
       y1="71.214951"
       x2="89.811958"
       y2="99.101616" />
    <linearGradient
       inkscape:collect="always"
       xlink:href="#linearGradient24091"
       id="linearGradient24097"
       x1="89.953125"
       y1="74.790741"
       x2="89.953125"
       y2="109.35688"
       gradientUnits="userSpaceOnUse"
       gradientTransform="translate(5.5,-1)" />
    <radialGradient
       inkscape:collect="always"
       xlink:href="#linearGradient24113"
       id="radialGradient24119"
       cx="89.095451"
       cy="77.441864"
       fx="89.095451"
       fy="77.441864"
       r="6.5473375"
       gradientUnits="userSpaceOnUse" />
    <filter
       inkscape:collect="always"
       id="filter24121"
       x="-0.192"
       width="1.3839999"
       y="-0.192"
       height="1.3839999">
      <feGaussianBlur
         inkscape:collect="always"
         stdDeviation="0.53740116"
         id="feGaussianBlur24123" />
    </filter>
    <filter
       inkscape:collect="always"
       id="filter24133">
      <feGaussianBlur
         inkscape:collect="always"
         stdDeviation="0.45833333"
         id="feGaussianBlur24135" />
    </filter>
    <filter
       inkscape:collect="always"
       id="filter24274">
      <feGaussianBlur
         inkscape:collect="always"
         stdDeviation="1.3050374"
         id="feGaussianBlur24276" />
    </filter>
    <radialGradient
       r="40.430302"
       fy="176.86684"
       fx="525.14954"
       cy="176.86684"
       cx="525.14954"
       gradientTransform="matrix(1,0,0,0.81521566,-5.6619046,76.876395)"
       gradientUnits="userSpaceOnUse"
       id="radialGradient4805"
       xlink:href="#linearGradient4071"
       inkscape:collect="always" />
    <clipPath
       id="clipPath4801"
       clipPathUnits="userSpaceOnUse">
      <path
         style="fill:url(#radialGradient4805);fill-opacity:1;stroke-width:1px"
         d="m 547.11881,188.10407 c -3.66019,-0.0921 -4.93194,2.4149 -7.60139,2.82843 -20.52671,3.17981 -39.33371,7.57014 -54.09367,22.80419 -4.36635,4.50659 -8.83053,10.73737 -4.77297,16.79379 5.36247,8.00416 11.93814,15.02219 19.62221,20.85965 2.87056,2.18072 5.61456,3.37398 9.01561,2.12132 26.48446,-9.75468 32.49368,-22.65365 42.24963,-45.96194 1.54695,-3.24829 3.90959,-6.04731 5.65686,-9.19239 0,0 3.23895,-3.0503 2.65165,-4.77297 -1.49054,-4.37208 -9.06774,-5.38795 -12.72793,-5.48008 z"
         id="path4803"
         sodipodi:nodetypes="cssssscssz"
         inkscape:connector-curvature="0" />
    </clipPath>
    <radialGradient
       r="31.960064"
       fy="86.769524"
       fx="614.34991"
       cy="86.769524"
       cx="614.34991"
       gradientTransform="matrix(1,0,0,1.1017073,117.04578,111.96651)"
       gradientUnits="userSpaceOnUse"
       id="radialGradient4583"
       xlink:href="#linearGradient4071"
       inkscape:collect="always" />
    <clipPath
       id="clipPath4579"
       clipPathUnits="userSpaceOnUse">
      <path
         sodipodi:nodetypes="cscscsssssccc"
         id="path4581"
         d="m 705.52119,262.24563 c 0,0 17.11346,-6.32016 23.93661,-9.93978 12.28719,-6.51823 23.94098,-13.31539 31.49287,-25.66086 1.69082,-3.17937 3.15945,-5.67423 1.97781,-7.80982 -6.00866,-10.85955 -21.29376,-23.68951 -25.96513,-25.55943 -2.55017,-1.02082 -5.66367,-0.10475 -8.92552,1.21711 -5.88835,2.38626 -11.61159,6.25868 -16.63391,11.76546 -3.43483,3.76616 -6.20577,7.86199 -7.30269,11.9683 -0.85782,3.21124 -0.43306,6.88089 -0.40571,10.75119 0.0435,6.15444 0.67885,12.85077 -2.63708,19.06815 l -1.62282,3.04279 5.07131,12.17115 z"
         style="fill:url(#radialGradient4583);fill-opacity:1;stroke-width:1px"
         inkscape:connector-curvature="0" />
    </clipPath>
    <radialGradient
       r="32.798069"
       fy="210.25783"
       fx="500.9935"
       cy="210.25783"
       cx="500.9935"
       gradientTransform="matrix(0.96769715,-0.2521155,0.56901032,2.1840373,34.078708,-101.20399)"
       gradientUnits="userSpaceOnUse"
       id="radialGradient4360"
       xlink:href="#linearGradient4071"
       inkscape:collect="always" />
    <clipPath
       id="clipPath4356"
       clipPathUnits="userSpaceOnUse">
      <path
         style="fill:url(#radialGradient4360);fill-opacity:1;stroke:none"
         d="m 612.44032,160.09003 a 1.0143645,1.0143645 0 0 0 -0.28125,0.125 c -0.0274,0.0139 -0.0328,0.0115 -0.0625,0.0313 -0.0256,0.0139 -0.0377,0.0149 -0.0625,0.0313 -0.11828,0.0777 -0.24834,0.15209 -0.40625,0.25 -0.30586,0.18965 -0.76518,0.44417 -1.21875,0.71875 -0.45406,0.27488 -0.8712,0.5524 -1.1875,0.75 -0.0995,0.0622 -0.23498,0.12508 -0.46875,0.28125 -0.1126,0.0753 -0.19049,0.13381 -0.25,0.1875 -0.0298,0.0268 -0.0433,0.0748 -0.0625,0.0937 h -0.0313 c -0.005,0.005 -0.0127,0.0107 -0.0313,0.0313 -1.7e-4,1.8e-4 -0.0625,0.0937 -0.0625,0.0937 -6.73849,6.57119 -9.95785,14.7464 -10.84375,23.59375 -0.89117,8.89994 0.57128,18.45681 3.1875,27.84375 5.21447,18.70947 15.00053,36.70704 20.15625,47.125 a 1.0143645,1.0143645 0 0 0 0.78125,0.5625 l 40.0625,5 a 1.0143645,1.0143645 0 0 0 1,-1.53125 c -17.39229,-29.438 -32.51429,-59.83765 -41.375,-92.90625 -0.30238,-1.12853 -1.11502,-1.71711 -1.78125,-2.375 -0.34165,-0.33736 -0.63716,-0.61494 -0.78125,-0.84375 -0.14173,-0.22506 -0.14741,-0.39593 -0.125,-0.5 -0.018,0.0837 0.0581,-0.16178 0.15625,-0.46875 0.0891,-0.27895 0.18524,-0.60405 0.28125,-0.90625 0.10548,-0.33201 0.18169,-0.63051 0.25,-0.875 3.4e-4,-0.001 0.0587,-0.0431 0.125,-0.34375 a 1.0143645,1.0143645 0 0 0 -0.34375,-1 l -5.75,-4.75 a 1.0143645,1.0143645 0 0 0 -0.875,-0.21875 z"
         id="path4358"
         inkscape:connector-curvature="0" />
    </clipPath>
    <radialGradient
       r="43.461857"
       fy="169.382"
       fx="602.01117"
       cy="169.382"
       cx="602.01117"
       gradientTransform="matrix(0.96275605,0,0,0.85313525,22.421273,24.876244)"
       gradientUnits="userSpaceOnUse"
       id="radialGradient4225"
       xlink:href="#linearGradient4071"
       inkscape:collect="always" />
    <clipPath
       id="clipPath4221"
       clipPathUnits="userSpaceOnUse">
      <path
         d="m 582.02539,131.65039 a 0.6623239,0.6623239 0 0 0 -0.35742,0.0898 l -21.84375,12.6875 a 0.6623239,0.6623239 0 0 0 -0.0547,1.10938 c 30.62181,22.01648 51.72598,40.13034 75.22266,61.42187 a 0.6623239,0.6623239 0 0 0 1.0957,-0.36523 c 2.26921,-11.83252 5.69443,-23.01609 8.39258,-32.41016 a 0.6623239,0.6623239 0 0 0 -0.0742,-0.53125 c -0.53017,-0.85768 -1.65572,-2.0449 -3.31055,-3.62109 -1.65483,-1.57619 -3.82088,-3.49642 -6.34765,-5.625 -5.05356,-4.25717 -11.54236,-9.34449 -18.20313,-14.125 -6.66076,-4.78051 -13.48968,-9.2533 -19.24219,-12.28516 -2.87625,-1.51592 -5.48028,-2.67356 -7.68945,-3.32812 -1.95496,-0.57924 -3.55796,-0.70123 -4.87305,-0.29492 l -2.24804,-2.50391 a 0.6623239,0.6623239 0 0 0 -0.4668,-0.21875 z"
         id="path4223"
         style="fill:url(#radialGradient4225);fill-opacity:1;stroke-width:1px"
         inkscape:original="M 582 132.3125 L 560.15625 145 C 590.80076 167.0328 611.93309 185.17021 635.4375 206.46875 C 637.71538 194.59103 641.14817 183.38512 643.84375 174 C 640.3014 168.26935 593.34872 130.89423 584.46875 135.0625 L 582 132.3125 z "
         inkscape:radius="0.66225767"
         sodipodi:type="inkscape:offset"
         transform="translate(0.01792977)" />
    </clipPath>
    <linearGradient
       id="linearGradient3810-3">
      <stop
         id="stop3812-1"
         offset="0"
         style="stop-color:#ebdd91;stop-opacity:1;" />
      <stop
         style="stop-color:#d9b75d;stop-opacity:1"
         offset="0.82156402"
         id="stop3814-4" />
      <stop
         id="stop3816-9"
         offset="0.87242079"
         style="stop-color:#e3bb59;stop-opacity:1" />
      <stop
         id="stop3818-2"
         offset="0.87755108"
         style="stop-color:#d8ae46;stop-opacity:1" />
      <stop
         style="stop-color:#fdf393;stop-opacity:1"
         offset="0.89598852"
         id="stop3820-0" />
      <stop
         id="stop3822-6"
         offset="0.91836739"
         style="stop-color:#fdfa9f;stop-opacity:1" />
      <stop
         style="stop-color:#b58019;stop-opacity:1"
         offset="0.98913205"
         id="stop3824-8" />
      <stop
         id="stop3826-9"
         offset="1"
         style="stop-color:#d2b04c;stop-opacity:1" />
    </linearGradient>
    <filter
       id="filter4225-0"
       inkscape:label="filter6">
      <feBlend
         in2="SourceGraphic"
         blend="normal"
         id="feBlend4227-4"
         mode="multiply" />
    </filter>
    <linearGradient
       id="linearGradient3831">
      <stop
         id="stop3833"
         offset="0"
         style="stop-color:#ff6161;stop-opacity:1;" />
      <stop
         id="stop3835"
         offset="1"
         style="stop-color:#a60000;stop-opacity:1;" />
    </linearGradient>
    <clipPath
       id="clipPath10917"
       clipPathUnits="userSpaceOnUse">
      <rect
         style="opacity:1;fill:#ffffff;fill-opacity:1;stroke:none;stroke-width:4;stroke-miterlimit:4;stroke-dasharray:none;stroke-opacity:1"
         id="rect10919"
         width="185.80646"
         height="54.19355"
         x="-28.903227"
         y="-13.354839" />
    </clipPath>
    <clipPath
       id="clipPath10906"
       clipPathUnits="userSpaceOnUse">
      <rect
         style="fill:#ffffff;fill-opacity:1;stroke:none"
         id="rect10908"
         width="162.3902"
         height="89.032265"
         x="-34.519199"
         y="40.838711" />
    </clipPath>
    <linearGradient
       id="linearGradient10964">
      <stop
         id="stop10966"
         offset="0"
         style="stop-color:#ffffff;stop-opacity:1;" />
      <stop
         id="stop10968"
         offset="1"
         style="stop-color:#eeeeee;stop-opacity:1" />
    </linearGradient>
    <linearGradient
       id="linearGradient10879">
      <stop
         id="stop10881"
         offset="0"
         style="stop-color:#000000;stop-opacity:1;" />
      <stop
         id="stop10883"
         offset="1"
         style="stop-color:#660000;stop-opacity:1;" />
    </linearGradient>
    <linearGradient
       id="linearGradient4035">
      <stop
         style="stop-color:#ff9696;stop-opacity:1;"
         offset="0"
         id="stop4037" />
      <stop
         style="stop-color:#100000;stop-opacity:1;"
         offset="1"
         id="stop4039" />
    </linearGradient>
    <linearGradient
       id="linearGradient4071"
       inkscape:collect="always">
      <stop
         id="stop4073"
         offset="0"
         style="stop-color:#f11a22;stop-opacity:1" />
      <stop
         id="stop4075"
         offset="1"
         style="stop-color:#990509;stop-opacity:1" />
    </linearGradient>
    <linearGradient
       id="linearGradient4173">
      <stop
         id="stop4175"
         offset="0"
         style="stop-color:#4e0202;stop-opacity:1;" />
      <stop
         id="stop4177"
         offset="1"
         style="stop-color:#7e0404;stop-opacity:0.8888889;" />
    </linearGradient>
    <linearGradient
       id="linearGradient4471">
      <stop
         id="stop4473"
         offset="0"
         style="stop-color:#dc0c0c;stop-opacity:1;" />
      <stop
         id="stop4475"
         offset="1"
         style="stop-color:#dc0c0c;stop-opacity:0;" />
    </linearGradient>
    <inkscape:perspective
       id="perspective24550"
       inkscape:persp3d-origin="64 : 42.666667 : 1"
       inkscape:vp_z="128 : 64 : 1"
       inkscape:vp_y="0 : 1000 : 0"
       inkscape:vp_x="0 : 64 : 1"
       sodipodi:type="inkscape:persp3d" />
  </defs>
  <sodipodi:namedview
     id="base"
     pagecolor="#ffffff"
     bordercolor="#666666"
     borderopacity="1.0"
     gridtolerance="10000"
     guidetolerance="10"
     objecttolerance="10"
     inkscape:pageopacity="0.0"
     inkscape:pageshadow="2"
     inkscape:zoom="15.4375"
     inkscape:cx="11.320336"
     inkscape:cy="13.81537"
     inkscape:document-units="px"
     inkscape:current-layer="layer1"
     width="128px"
     height="128px"
     showgrid="true"
     borderlayer="true"
     inkscape:showpageshadow="false"
     showborder="true"
     inkscape:grid-points="true"
     inkscape:window-width="1280"
     inkscape:window-height="704"
     inkscape:window-x="84"
     inkscape:window-y="0"
     inkscape:snap-guide="false"
     showguides="true"
     inkscape:guide-bbox="true"
     inkscape:snap-global="false"
     inkscape:snap-nodes="true"
     inkscape:window-maximized="0">
    <inkscape:grid
       id="GridFromPre046Settings"
       type="xygrid"
       originx="0"
       originy="0"
       spacingx="0.5"
       spacingy="0.5"
       color="#0000ff"
       empcolor="#0000ff"
       opacity="0.2"
       empopacity="0.4"
       empspacing="2"
       visible="true"
       enabled="true"
       dotted="false" />
  </sodipodi:namedview>
  <metadata
     id="metadata7">
    <rdf:RDF>
      <cc:Work
         rdf:about="">
        <dc:format>image/svg+xml</dc:format>
        <dc:type
           rdf:resource="http://purl.org/dc/dcmitype/StillImage" />
        <dc:title></dc:title>
      </cc:Work>
    </rdf:RDF>
  </metadata>
  <g
     inkscape:label="Layer 1"
     inkscape:groupmode="layer"
     id="layer1"
     transform="translate(0,-104)">
    <g
       id="g675"
       transform="matrix(0.20190564,0,0,0.20190564,-0.95168604,103.03956)">
      <path
         d="m 104.17619,99.240114 -6.332594,0.0585 -3.472871,5.295686 -5.358942,-3.37444 -5.784629,2.57744 -2.683867,-5.736029 -6.259809,-0.959126 0.843317,-6.27646 -4.747544,-4.191177 4.102754,-4.824162 -1.727967,-6.092558 6.059596,-1.840228 1.840227,-6.059595 6.092558,1.727967 4.824163,-4.102754 4.191176,4.747544 6.276462,-0.843317 0.95912,6.259809 5.73603,2.683866 -2.57744,5.78463 3.37444,5.358942 -5.29568,3.472871 z"
         inkscape:randomized="0"
         inkscape:rounded="0"
         inkscape:flatsided="false"
         sodipodi:arg2="1.0709975"
         sodipodi:arg1="0.78539816"
         sodipodi:r2="16.040688"
         sodipodi:r1="19.827379"
         sodipodi:cy="85.220039"
         sodipodi:cx="90.156113"
         sodipodi:sides="11"
         id="path24256"
         style="fill:#7c4300;fill-opacity:1;stroke:none;filter:url(#filter24274)"
         sodipodi:type="star"
         transform="matrix(2.4885041,0,0,2.4885041,-157.76868,-144.91948)" />
      <path
         transform="matrix(2.4885041,0,0,2.4885041,-157.76868,-148.0458)"
         d="m 104.17619,99.240114 -6.332594,0.0585 -3.472871,5.295686 -5.358942,-3.37444 -5.784629,2.57744 -2.683867,-5.736029 -6.259809,-0.959126 0.843317,-6.27646 -4.747544,-4.191177 4.102754,-4.824162 -1.727967,-6.092558 6.059596,-1.840228 1.840227,-6.059595 6.092558,1.727967 4.824163,-4.102754 4.191176,4.747544 6.276462,-0.843317 0.95912,6.259809 5.73603,2.683866 -2.57744,5.78463 3.37444,5.358942 -5.29568,3.472871 z"
         inkscape:randomized="0"
         inkscape:rounded="0"
         inkscape:flatsided="false"
         sodipodi:arg2="1.0709975"
         sodipodi:arg1="0.78539816"
         sodipodi:r2="16.040688"
         sodipodi:r1="19.827379"
         sodipodi:cy="85.220039"
         sodipodi:cx="90.156113"
         sodipodi:sides="11"
         id="path23453"
         style="fill:url(#linearGradient24008);fill-opacity:1;stroke:none"
         sodipodi:type="star" />
      <path
         transform="matrix(2.4885041,0,0,2.4885041,-157.76868,-148.0458)"
         sodipodi:type="star"
         style="opacity:0.53465349;fill:url(#radialGradient24040);fill-opacity:1;stroke:none"
         id="path24010"
         sodipodi:sides="11"
         sodipodi:cx="90.156113"
         sodipodi:cy="85.220039"
         sodipodi:r1="19.827379"
         sodipodi:r2="16.040688"
         sodipodi:arg1="0.78539816"
         sodipodi:arg2="1.0709975"
         inkscape:flatsided="false"
         inkscape:rounded="0"
         inkscape:randomized="0"
         d="m 104.17619,99.240114 -6.332594,0.0585 -3.472871,5.295686 -5.358942,-3.37444 -5.784629,2.57744 -2.683867,-5.736029 -6.259809,-0.959126 0.843317,-6.27646 -4.747544,-4.191177 4.102754,-4.824162 -1.727967,-6.092558 6.059596,-1.840228 1.840227,-6.059595 6.092558,1.727967 4.824163,-4.102754 4.191176,4.747544 6.276462,-0.843317 0.95912,6.259809 5.73603,2.683866 -2.57744,5.78463 3.37444,5.358942 -5.29568,3.472871 z" />
      <g
         transform="matrix(2.4885041,0,0,2.4885041,-356.85097,-145.70384)"
         clip-path="url(#clipPath24074)"
         id="g24070">
        <path
           inkscape:connector-curvature="0"
           sodipodi:nodetypes="ccccccccccccccccccccccccccccccccccccccccccccccccccccccccccccccccccccc"
           style="color:#000000;font-style:normal;font-variant:normal;font-weight:normal;font-stretch:normal;font-size:medium;line-height:normal;font-family:'Bitstream Vera Sans';-inkscape-font-specification:'Bitstream Vera Sans';text-indent:0;text-align:start;text-decoration:none;text-decoration-line:none;letter-spacing:normal;word-spacing:normal;text-transform:none;writing-mode:lr-tb;direction:ltr;text-anchor:start;display:inline;overflow:visible;visibility:visible;fill:#ffb212;fill-opacity:1;fill-rule:nonzero;stroke:none;stroke-width:2.0999999;marker:none;filter:url(#filter24058);enable-background:accumulate"
           d="m 171.40625,63.090317 c -0.19593,0.03092 -0.38254,0.118735 -0.53125,0.25 l -4.375,3.71875 -5.5625,-1.5625 c -0.51564,-0.143949 -1.1161,0.178251 -1.28125,0.6875 l -1.6875,5.53125 -5.53125,1.6875 c -0.50925,0.165145 -0.83145,0.765608 -0.6875,1.28125 l 1.5625,5.5625 -3.71875,4.40625 c -0.33713,0.407847 -0.29352,1.076868 0.0937,1.4375 l 4.3438,3.84375 -0.78125,5.71875 c -0.0608,0.530018 0.3484,1.070768 0.875,1.15625 l 5.71875,0.875 2.4375,5.249953 c 0.23533,0.48552 0.88277,0.72096 1.375,0.5 l 5.28125,-2.34375 4.875,3.0625 c 0.45972,0.28948 1.13945,0.14171 1.4375,-0.3125 l 3.15625,-4.812453 5.78125,-0.0625 c 0.53729,-0.0096 1.02169,-0.493961 1.03125,-1.03125 l 0.0625,-5.78125 4.8125,-3.15625 c 0.45421,-0.298049 0.60198,-0.97778 0.3125,-1.4375 l -3.0625,-4.84375 2.34375,-5.3125 c 0.22096,-0.492227 -0.0145,-1.139674 -0.5,-1.375 l -5.25,-2.4375 -0.875,-5.71875 c -0.0855,-0.526603 -0.62623,-0.935819 -1.15625,-0.875 l -5.71875,0.78125 -3.84375,-4.34375 c -0.22973,-0.259884 -0.59423,-0.393534 -0.9375,-0.34375 z m 0.0625,2.5 3.5,3.96875 c 0.22973,0.259884 0.59423,0.393534 0.9375,0.34375 l 5.25,-0.71875 0.8125,5.28125 c 0.0555,0.335787 0.28508,0.637897 0.59375,0.78125 l 4.78125,2.25 -2.15625,4.84375 c -0.12682,0.31258 -0.0907,0.68627 0.0937,0.96875 l 2.8125,4.5 -4.4375,2.90625 c -0.287,0.190796 -0.46891,0.530365 -0.46875,0.875 l -0.0625,5.28125 -5.28125,0.0625 c -0.34464,-1.65e-4 -0.6842,0.181747 -0.875,0.46875 l -2.90625,4.437453 -4.5,-2.812453 c -0.28247,-0.184358 -0.65613,-0.220501 -0.9687,-0.0937 L 163.75,101.09027 161.5,96.309067 c -0.14901,-0.316496 -0.4657,-0.54792 -0.8125,-0.59375 l -5.25,-0.8125 0.71875,-5.25 c 0.0498,-0.343272 -0.0839,-0.707773 -0.34375,-0.9375 l -3.96875,-3.5 3.4375,-4.03125 c 0.22598,-0.260455 0.31088,-0.636464 0.21875,-0.96875 l -1.46875,-5.09375 5.09375,-1.5625 c 0.32149,-0.100891 0.58661,-0.366009 0.6875,-0.6875 l 1.5625,-5.09375 5.09375,1.46875 c 0.33229,0.09213 0.7083,0.0072 0.96875,-0.21875 z"
           id="path24030" />
        <path
           inkscape:connector-curvature="0"
           sodipodi:nodetypes="csssssssccccssssssssssssssssssssssccccsssssssssssssssssssssscccccssssssssssssssssscccccsssssssssssssssssssssssccccsssssssssssssssssssssccccsssssssssssssssssssccccsssssssssssssssssssssssccccsssssssssssssssssssccccsssssssssssssssssssssccccsssssssssssssssssssssssccccsssssssssssscccccssssssssssssccccsssssssssssccccssssssssssssccccssssssssssssccccssssssssssssccccssssssssssssccccsssssssssssssccccssssssssssssccccscccsssssssssssssccccssssssssssssccc"
           id="path24068"
           d="m 171.59375,64.8125 c -0.0304,0.01283 -0.0617,0.02329 -0.0937,0.03125 -0.0393,0.0062 0.007,-0.009 -0.0313,0 -0.0387,0.009 0.007,-0.01168 -0.0313,0 -0.038,0.01168 0.006,0.0169 -0.0313,0.03125 -0.036,0.01693 0.003,0.01181 -0.0313,0.03125 -0.0347,0.01944 0.002,-0.02184 -0.0313,0 -0.0332,0.02184 3.5e-4,0.0071 -0.0313,0.03125 -0.0316,0.02414 -0.001,-0.02632 -0.0313,0 l -4.375,3.71875 c -0.14808,0.137711 -0.36461,0.197858 -0.5625,0.15625 L 160.7809,67.25 c -0.0258,-0.0072 -0.005,-0.02528 -0.0313,-0.03125 -0.0262,-0.006 -0.005,0.0047 -0.0313,0 -0.0266,-0.0034 -0.005,0.0022 -0.0313,0 -0.0267,-0.0022 -0.004,8.92e-4 -0.0313,0 -0.0268,3.9e-4 -0.004,-0.0017 -0.0313,0 -0.0267,0.0029 -0.005,-0.0042 -0.0313,0 -0.0265,0.0042 -0.005,-0.0055 -0.0313,0 -0.026,0.0067 -0.006,0.02329 -0.0313,0.03125 -0.0256,0.008 -0.006,-0.0092 -0.0313,0 -0.0248,0.01037 -0.007,-0.01154 -0.0313,0 -0.0242,0.01154 0.0237,0.01856 0,0.03125 -0.0237,0.01269 -0.008,-0.0138 -0.0313,0 -0.0223,0.01489 -0.01,0.01531 -0.0313,0.03125 -0.0208,0.01695 -0.0113,-0.01793 -0.0313,0 -0.02,0.01793 0.0191,0.01239 0,0.03125 -0.0191,0.01886 -0.0131,-0.01975 -0.0313,0 -0.0182,0.01975 0.0172,0.01066 0,0.03125 -0.0172,0.02059 -0.0151,-0.02139 -0.0313,0 -0.0162,0.02139 0.0152,0.0091 0,0.03125 -0.0141,0.02284 -0.0183,0.0078 -0.0313,0.03125 -0.0118,0.02408 0.0107,0.0066 0,0.03125 -0.0107,0.02462 0.009,0.0061 0,0.03125 -0.009,0.0251 -0.023,-0.02553 -0.0313,0 l -1.6875,5.53125 c -0.0617,0.188938 -0.21731,0.344594 -0.40625,0.40625 L 152.625,75.125 c -0.0255,0.0083 0.0251,0.02176 0,0.03125 -0.0251,0.0095 -0.007,-0.01068 -0.0313,0 -0.0246,0.01068 -0.007,-0.01184 -0.0313,0 -0.0235,0.01298 -0.008,0.01717 -0.0313,0.03125 -0.0221,0.01516 -0.01,-0.0162 -0.0313,0 -0.0214,0.0162 0.0206,0.01405 0,0.03125 -0.0206,0.0172 -0.0115,-0.01817 -0.0313,0 -0.0197,0.01817 0.0189,0.01216 0,0.03125 -0.0189,0.01909 -0.0133,-0.01997 -0.0313,0 -0.0179,0.01997 0.017,0.01045 0,0.03125 -0.0159,0.02159 -0.0164,0.0089 -0.0313,0.03125 -0.0138,0.02301 0.0127,0.0076 0,0.03125 -0.0127,0.02365 -0.0197,-0.02423 -0.0313,0 -0.0115,0.02423 0.0104,0.0065 0,0.03125 -0.009,0.02522 0.008,0.0056 0,0.03125 -0.008,0.02563 -0.0245,0.0053 -0.0313,0.03125 -0.005,0.02627 0.004,0.0047 0,0.03125 -0.004,0.0265 0.003,0.0046 0,0.03125 -0.002,0.02678 3.9e-4,0.0044 0,0.03125 8.9e-4,0.02682 -0.002,0.0045 0,0.03125 0.002,0.02675 -0.003,0.0046 0,0.03125 0.005,0.02642 -0.006,0.0051 0,0.03125 0.006,0.02616 0.024,0.0054 0.0313,0.03125 l 1.5625,5.5625 c 0.0499,0.193042 0.002,0.408747 -0.125,0.5625 l -3.71875,4.40625 h -0.0313 c -0.0159,0.02122 0.0149,0.0093 0,0.03125 -0.0138,0.02263 -0.0185,0.008 -0.0313,0.03125 -0.0128,0.02325 0.0116,0.0074 0,0.03125 -0.0105,0.02435 -0.0219,0.0064 -0.0313,0.03125 -0.008,0.02524 0.007,0.0057 0,0.03125 -0.007,0.02559 0.006,0.0054 0,0.03125 -0.005,0.02614 0.003,0.0049 0,0.03125 -0.002,0.02645 7.8e-4,0.0047 0,0.03125 -7.8e-4,0.02651 -4.7e-4,0.0047 0,0.03125 0.002,0.02647 -0.003,0.0049 0,0.03125 0.003,0.02636 -0.004,0.0051 0,0.03125 0.005,0.02596 -0.007,0.0056 0,0.03125 0.008,0.02533 -0.009,0.0063 0,0.03125 0.009,0.02493 0.021,0.0068 0.0313,0.03125 0.0114,0.02396 -0.0125,0.0079 0,0.03125 0.0136,0.02278 0.0166,0.0091 0.0313,0.03125 0.0157,0.0214 0.0146,0.01061 0.0313,0.03125 0.0176,0.01983 -0.0185,0.01228 0,0.03125 h 0.0313 l 4.3125,3.84375 c 0.1598,0.135728 0.24487,0.354469 0.21875,0.5625 l -0.78125,5.6875 c -0.003,0.02657 0.002,0.0046 0,0.03125 -0.002,0.02668 5.1e-4,0.0045 0,0.03125 7.7e-4,0.02673 -0.002,0.0046 0,0.03125 0.003,0.02654 -0.005,0.0049 0,0.03125 0.005,0.02635 -0.006,0.0051 0,0.03125 0.006,0.0261 0.0242,-0.0258 0.0313,0 0.007,0.0258 -0.008,0.0058 0,0.03125 0.008,0.02543 -0.009,0.0062 0,0.03125 0.0106,0.02453 -0.0118,0.0073 0,0.03125 0.0118,0.02399 0.0183,-0.0234 0.0313,0 0.0129,0.0234 -0.014,0.0085 0,0.03125 0.0151,0.02207 0.0151,0.0099 0.0313,0.03125 0.0171,0.02053 0.0132,0.01156 0.0313,0.03125 0.019,0.01881 -0.0199,0.01337 0,0.03125 0.0199,0.01788 0.0105,-0.01691 0.0313,0 0.0207,0.01691 -0.0215,0.01534 0,0.03125 0.0215,0.01591 0.009,-0.01487 0.0313,0 0.0222,0.01487 0.008,-0.01379 0.0313,0 0.0229,0.01379 -0.0235,0.01856 0,0.03125 0.0235,0.01269 0.007,-0.01155 0.0313,0 0.0246,0.01039 0.006,-0.0092 0.0313,0 0.0251,0.0092 -0.0255,0.02325 0,0.03125 0.0255,0.008 0.005,-0.0068 0.0313,0 0.0259,0.0068 0.005,-0.0055 0.0313,0 l 5.71875,0.875 c 0.19881,0.03143 0.37902,0.163585 0.46875,0.34375 l 2.4375,5.25 c 0.0118,0.0243 0.0183,0.008 0.0313,0.0313 0.0141,0.0231 -0.0152,0.009 0,0.0313 0.0152,0.0224 0.015,-0.0216 0.0313,0 0.0162,0.0216 -0.0173,0.0104 0,0.0313 0.0182,0.02 0.0121,0.0122 0.0313,0.0313 0.0201,0.0181 0.0103,0.0141 0.0313,0.0313 0.0217,0.0161 0.009,-0.015 0.0313,0 0.0225,0.015 -0.0232,0.0173 0,0.0313 0.0232,0.0139 0.007,-0.0128 0.0313,0 0.0238,0.0128 0.007,-0.0116 0.0313,0 0.0244,0.0116 -0.0249,0.0208 0,0.0313 0.0249,0.0105 0.006,-0.009 0.0313,0 0.0258,0.008 0.005,-0.007 0.0313,0 0.0262,0.007 0.005,-0.005 0.0313,0 0.0267,0.004 0.004,0.0283 0.0313,0.0313 0.027,0.002 0.004,-3.1e-4 0.0313,0 0.027,3.1e-4 0.004,9.9e-4 0.0313,0 0.0269,-0.002 0.004,0.004 0.0313,0 0.0268,-0.004 0.005,-0.0264 0.0313,-0.0313 0.0263,-0.006 0.005,0.007 0.0313,0 0.0256,-0.009 0.006,0.01 0.0313,0 0.0252,-0.01 0.007,-0.0202 0.0313,-0.0313 l 5.28125,-2.34375 c 0.19203,-0.0778 0.42214,-0.0536 0.59375,0.0625 l 4.875,3.0625 c 0.0237,0.0134 0.007,-0.0122 0.0313,0 0.0243,0.0122 0.006,0.0202 0.0313,0.0313 0.0254,0.01 0.005,-0.009 0.0313,0 0.0262,0.007 0.005,0.0252 0.0313,0.0313 0.0266,0.006 0.004,-0.005 0.0313,0 0.027,0.003 0.004,-0.002 0.0313,0 0.0272,0.002 0.004,-7.7e-4 0.0313,0 0.0272,-5.5e-4 0.004,0.002 0.0313,0 0.027,-0.003 0.004,0.004 0.0313,0 0.0269,-0.004 0.005,0.006 0.0313,0 0.0266,-0.006 -0.0263,-0.0242 0,-0.0313 0.0263,-0.007 0.005,0.008 0.0313,0 0.0259,-0.008 0.006,0.01 0.0313,0 0.025,-0.0108 0.007,0.012 0.0313,0 0.0244,-0.012 -0.0238,-0.0181 0,-0.0313 0.0238,-0.0132 0.008,0.0143 0.0313,0 0.0224,-0.0154 0.01,-0.0148 0.0313,-0.0313 0.0208,-0.0175 0.0113,-0.0127 0.0313,-0.0313 0.019,-0.0195 0.0132,-0.0109 0.0313,-0.0313 0.0171,-0.0212 0.0152,-0.009 0.0313,-0.0313 l 3.15625,-4.8125 c 0.11619,-0.17342 0.32251,-0.282651 0.53125,-0.28125 l 5.78125,-0.0625 c 0.0269,-0.0018 0.004,0.0031 0.0313,0 0.0268,-0.0031 0.005,0.0043 0.0313,0 0.0266,-0.0043 -0.0264,-0.02564 0,-0.03125 0.0264,-0.0056 0.005,0.0069 0.0313,0 0.0257,-0.0081 0.006,0.0093 0.0313,0 0.0253,-0.0093 0.006,0.01053 0.0313,0 0.0248,-0.01053 -0.0243,-0.01954 0,-0.03125 0.0243,-0.01171 0.008,0.01286 0.0313,0 0.023,-0.01398 0.009,-0.01619 0.0313,-0.03125 0.0216,-0.01612 0.0105,0.01713 0.0313,0 0.0208,-0.01713 -0.0199,-0.01314 0,-0.03125 0.0199,-0.01811 0.0122,0.01905 0.0313,0 0.019,-0.01905 -0.0181,-0.01131 0,-0.03125 0.0181,-0.01994 0.0141,0.02078 0.0313,0 0.0171,-0.02078 -0.0161,-0.0097 0,-0.03125 0.0151,-0.02233 0.0173,-0.0082 0.0313,-0.03125 0.0129,-0.02367 -0.0117,-0.007 0,-0.03125 0.0117,-0.02426 0.0207,0.02479 0.0313,0 0.0105,-0.02479 -0.009,-0.006 0,-0.03125 0.009,-0.02527 -0.008,-0.0056 0,-0.03125 0.007,-0.02605 -0.006,-0.0049 0,-0.03125 0.006,-0.02635 0.0269,0.02658 0.0313,0 0.004,-0.02658 -0.003,-0.0045 0,-0.03125 0.003,-0.02676 -0.002,-0.0044 0,-0.03125 l 0.0625,-5.78125 c -0.002,-0.208299 0.10612,-0.41454 0.2786,-0.53135 l 4.8125,-3.15625 c 0.022,-0.01603 0.01,-0.01417 0.0313,-0.03125 0.0204,-0.01808 0.0118,-0.0122 0.0313,-0.03125 0.0185,-0.01997 0.0137,-0.01041 0.0313,-0.03125 0.0165,-0.02167 0.0158,-0.0088 0.0313,-0.03125 0.0143,-0.02316 -0.0132,-0.0074 0,-0.03125 0.0132,-0.02383 0.0192,0.02444 0.0313,0 0.012,-0.02444 -0.0108,-0.0063 0,-0.03125 0.01,-0.02549 -0.008,-0.0053 0,-0.03125 0.008,-0.02592 -0.007,-0.005 0,-0.03125 0.007,-0.0263 0.0255,0.02661 0.0313,0 0.006,-0.02661 -0.004,-0.0044 0,-0.03125 0.004,-0.02686 -0.003,-0.0042 0,-0.03125 0.002,-0.02717 -5.5e-4,-0.004 0,-0.03125 -7.7e-4,-0.02722 0.002,-0.0041 0,-0.03125 -0.002,-0.02715 0.003,-0.0042 0,-0.03125 -0.005,-0.02682 0.006,-0.0047 0,-0.03125 -0.006,-0.02656 -0.024,-0.005 -0.0313,-0.03125 -0.009,-0.02585 0.01,-0.0058 0,-0.03125 -0.011,-0.0249 -0.019,-0.0069 -0.0313,-0.03125 -0.0122,-0.02434 0.0134,-0.0075 0,-0.03125 l -3.0627,-4.84375 c -0.11611,-0.171612 -0.14033,-0.401723 -0.0625,-0.59375 l 2.34375,-5.3125 c 0.0111,-0.02467 0.0214,-0.0061 0.0313,-0.03125 0.01,-0.02518 -0.009,-0.0056 0,-0.03125 0.007,-0.02601 -0.006,-0.0049 0,-0.03125 0.005,-0.0266 0.0277,-0.0044 0.0313,-0.03125 0.004,-0.02681 -0.002,-0.0043 0,-0.03125 9.9e-4,-0.02703 3.1e-4,-0.0042 0,-0.03125 -3.1e-4,-0.02704 0.002,-0.0043 0,-0.03125 -0.003,-0.02689 -0.0271,-0.0045 -0.0313,-0.03125 -0.005,-0.02648 0.007,-0.0051 0,-0.03125 -0.007,-0.02619 0.008,-0.0054 0,-0.03125 -0.009,-0.02542 0.0105,-0.0063 0,-0.03125 -0.0105,-0.02494 -0.0196,0.02441 -0.0313,0 -0.0116,-0.02441 0.0128,-0.0074 0,-0.03125 -0.0128,-0.02382 0.0139,-0.0081 0,-0.03125 -0.0139,-0.02318 -0.0162,0.02248 -0.0313,0 -0.015,-0.02248 0.0161,-0.0095 0,-0.03125 -0.0171,-0.02093 -0.0131,-0.01117 -0.0313,-0.03125 -0.0191,-0.01918 -0.0113,-0.01301 -0.0313,-0.03125 -0.0208,-0.01726 -0.01,0.01624 -0.0313,0 -0.0216,-0.01624 0.0224,-0.01607 0,-0.03125 -0.0224,-0.01518 -0.008,0.01408 -0.0313,0 -0.0237,-0.01295 -0.007,-0.01945 -0.0313,-0.03125 l -5.25,-2.4375 c -0.18005,-0.08981 -0.31208,-0.270002 -0.34345,-0.46875 l -0.875,-5.71875 c -0.006,-0.02616 0.007,-0.0054 0,-0.03125 -0.007,-0.02587 0.008,-0.0057 0,-0.03125 -0.008,-0.02552 -0.022,0.02511 -0.0313,0 -0.009,-0.02511 0.0104,-0.0066 0,-0.03125 -0.0115,-0.02412 0.0127,-0.0077 0,-0.03125 -0.0127,-0.02354 -0.0175,0.02291 -0.0313,0 -0.0138,-0.02291 0.0149,-0.009 0,-0.03125 -0.0149,-0.02223 0.0159,-0.0098 0,-0.03125 -0.0159,-0.02149 -0.0143,0.02071 -0.0313,0 -0.0169,-0.02071 0.0179,-0.01137 0,-0.03125 -0.0179,-0.01988 -0.0124,0.01901 -0.0313,0 -0.0197,-0.01809 -0.0107,-0.01412 -0.0313,-0.03125 -0.0213,-0.01614 -0.009,-0.01615 -0.0313,-0.03125 -0.0228,-0.01404 -0.008,0.01294 -0.0313,0 -0.0234,-0.01294 0.024,-0.01944 0,-0.03125 -0.024,-0.01181 -0.007,0.01065 -0.0313,0 -0.025,-0.0095 -0.006,0.0083 -0.0313,0 -0.0254,-0.0083 -0.005,0.0071 -0.0313,0 -0.0258,-0.0071 0.0261,-0.02544 0,-0.03125 -0.0261,-0.0058 -0.005,0.0046 -0.0313,0 -0.0264,-0.0046 -0.005,0.0033 -0.0313,0 -0.0267,-0.002 -0.005,7.66e-4 -0.0313,0 -0.0267,5.08e-4 -0.005,-0.0018 -0.0313,0 -0.0267,0.0018 -0.005,-0.003 -0.0313,0 l -5.6875,0.78125 c -0.20803,0.02612 -0.42677,-0.05895 -0.5625,-0.21875 l -3.843,-4.34375 c -0.0104,2.57e-4 -0.0209,2.57e-4 -0.0313,0 -0.0205,-0.02449 0.0219,-0.008 0,-0.03125 -0.0219,-0.02328 -0.008,0.022 -0.0313,0 -0.0232,-0.022 0.0244,-0.0106 0,-0.03125 -0.0244,-0.02065 -0.006,0.01923 -0.0313,0 -0.0266,-0.01775 -0.004,-0.01504 -0.0313,-0.03125 -0.0275,-0.01621 -0.003,0.01461 -0.0313,0 -0.0284,-0.01461 0.0292,-0.01828 0,-0.03125 -0.0292,-0.01297 -0.001,0.01129 -0.0313,0 -0.0299,-0.01129 -7.7e-4,0.0096 -0.0313,0 -0.031,-0.0078 1.2e-4,0.0061 -0.0313,0 -0.0157,-0.003 -0.002,-0.03158 0,-0.03125 0.002,3.34e-4 -0.0154,0.0021 -0.0313,0 z m -0.25,1.28125 c 0.21767,-0.03718 0.45223,0.04924 0.59375,0.21875 l 3.5,3.96875 c 0.023,0.02605 0.007,-0.02458 0.0313,0 0.0246,0.02458 -0.0261,0.0082 0,0.03125 0.0261,0.02301 0.004,-0.02135 0.0313,0 0.0274,0.02135 0.003,0.01164 0.0313,0.03125 0.0299,0.0178 3.3e-4,0.01534 0.0313,0.03125 0.0309,0.01591 -5.9e-4,-0.01397 0.0313,0 0.0318,0.01397 -0.001,-0.01197 0.0313,0 0.0333,0.0099 -0.003,0.0234 0.0313,0.03125 0.0339,0.0078 -0.003,-0.0057 0.0313,0 0.0343,0.0057 -0.003,-0.0036 0.0313,0 0.0346,0.0036 -0.003,-0.0015 0.0313,0 0.0348,-7.01e-4 -0.003,0.0029 0.0313,0 0.0347,-0.0029 -0.003,0.005 0.0313,0 l 5.25,-0.71875 c 0.3271,-0.04783 0.66851,0.204512 0.71875,0.53125 l 0.8125,5.28125 c 0.008,0.03326 -0.01,-0.0015 0,0.03125 0.01,0.03274 0.0197,-8.47e-4 0.0313,0.03125 0.0116,0.0321 -0.0135,-8.5e-5 0,0.03125 0.0135,0.03133 -0.0154,7.93e-4 0,0.03125 0.0154,0.03046 0.014,-0.02947 0.0313,0 0.0172,0.02947 -0.019,0.0029 0,0.03125 0.019,0.02837 0.0106,0.0041 0.0313,0.03125 0.0223,0.02586 0.007,0.0068 0.0313,0.03125 0.0252,0.02297 0.005,0.0099 0.0313,0.03125 0.0278,0.01974 0.002,0.01323 0.0313,0.03125 0.029,0.01802 0.001,-0.01622 0.0313,0 0.03,0.01622 3.1e-4,0.01688 0.0313,0.03125 l 4.78125,2.25 c 0.28832,0.138353 0.4338,0.516603 0.3125,0.8125 l -2.15625,4.84375 c -0.0108,0.03204 -0.0224,-0.0014 -0.0313,0.03125 -0.009,0.03264 0.007,-0.0019 0,0.03125 -0.007,0.03311 0.005,-0.0022 0,0.03125 -0.005,0.03347 0.003,-0.0024 0,0.03125 -8.1e-4,0.03381 -10e-4,-0.0025 0,0.03125 0.001,0.03379 -0.003,-0.0024 0,0.03125 0.003,0.03366 -0.005,-0.0022 0,0.03125 0.007,0.03302 -0.009,-0.0013 0,0.03125 0.009,0.03253 0.0201,-6.61e-4 0.0313,0.03125 0.0112,0.03191 -0.0131,7.1e-5 0,0.03125 0.0131,0.03118 -0.0149,9.16e-4 0,0.03125 0.0149,0.03033 0.0145,-0.02938 0.0313,0 0.0168,0.02938 -0.0185,0.0029 0,0.03125 l 2.8125,4.5 c 0.17918,0.278418 0.09,0.694448 -0.1875,0.875 L 184,92.375 c -0.0275,0.02086 -0.005,0.0087 -0.0313,0.03125 -0.0262,0.02251 -0.006,-0.02408 -0.0313,0 -0.0248,0.02408 0.0232,0.0057 0,0.03125 -0.0232,0.02556 -0.01,0.0043 -0.0313,0.03125 -0.0199,0.02822 -0.0131,0.0019 -0.0313,0.03125 -0.0182,0.02939 0.0163,7.95e-4 0,0.03125 -0.0144,0.0314 -0.0188,-9.77e-4 -0.0313,0.03125 -0.0125,0.03223 0.0104,-0.0017 0,0.03125 -0.0104,0.03293 0.008,-0.0023 0,0.03125 -0.008,0.03351 0.006,-0.0027 0,0.03125 -0.006,0.03397 -0.027,-0.03429 -0.0313,0 -0.004,0.03429 0.002,-0.0032 0,0.03125 -0.002,0.03449 -2e-5,-0.0033 0,0.03125 L 183.75,98 c -0.005,0.325924 -0.29908,0.620239 -0.625,0.625 l -5.28125,0.0625 c -0.0345,-1.7e-5 0.003,-0.0021 -0.0313,0 -0.0345,0.0021 0.003,-0.0042 -0.0313,0 -0.0343,0.0042 0.034,0.02492 0,0.03125 -0.034,0.0063 0.002,-0.0084 -0.0313,0 -0.0335,0.0084 0.002,-0.01045 -0.0313,0 -0.0329,0.01045 9.8e-4,-0.01245 -0.0313,0 -0.0322,0.01245 1.5e-4,0.01684 -0.0313,0.03125 -0.0305,0.01632 -0.002,-0.01816 -0.0313,0 -0.0294,0.01816 -0.003,0.01132 -0.0313,0.03125 -0.0269,0.02163 -0.006,0.008 -0.0313,0.03125 -0.0256,0.02324 -0.007,-0.02477 -0.0313,0 -0.0241,0.02477 0.0225,0.005 0,0.03125 -0.0225,0.02621 -0.0104,0.0037 -0.0313,0.03125 l -2.90625,4.4375 c -0.18055,0.27753 -0.59658,0.36668 -0.875,0.1875 l -4.5,-2.8125 c -0.0283,-0.0185 -0.002,0.0168 -0.0313,0 -0.0294,-0.0168 0.0303,-0.0163 0,-0.0313 -0.0303,-0.0149 -7e-5,0.0131 -0.0313,0 -0.0312,-0.0131 6.6e-4,0.0112 -0.0313,0 -0.0319,-0.0112 0.001,-0.022 -0.0313,-0.0313 -0.0325,-0.009 0.002,0.007 -0.0313,0 -0.0334,-0.005 0.002,0.003 -0.0313,0 -0.0337,-0.003 0.003,0.001 -0.0313,0 -0.0338,-10e-4 0.003,-8.1e-4 -0.0313,0 -0.0337,0.003 0.002,-0.005 -0.0313,0 -0.0335,0.005 0.002,-0.007 -0.0313,0 -0.0331,0.007 0.001,-0.009 -0.0313,0 -0.0326,0.009 8e-4,0.0204 -0.0313,0.0313 L 164,102.8125 c -0.2959,0.1213 -0.67415,-0.0242 -0.8125,-0.3125 l -2.25,-4.78125 c -0.0149,-0.03173 -0.0144,-5.15e-4 -0.0313,-0.03125 -0.0169,-0.03074 0.0188,-0.0016 0,-0.03125 -0.0188,-0.02962 -0.0107,0.02839 -0.0313,0 -0.0206,-0.02839 0.0223,-0.0042 0,-0.03125 -0.0223,-0.02705 -0.007,-0.0056 -0.0313,-0.03125 -0.0255,-0.02406 -0.004,-0.0088 -0.0313,-0.03125 -0.027,-0.02242 -0.003,0.02069 -0.0313,0 -0.0283,-0.02069 0.0296,-0.01237 0,-0.03125 -0.0296,-0.01888 -5.8e-4,0.017 -0.0313,0 -0.0307,-0.017 4.2e-4,-0.01619 -0.0313,-0.03125 -0.0325,-0.01305 0.002,0.01099 -0.0313,0 -0.0333,-0.01099 0.003,-0.02236 -0.0313,-0.03125 -0.0339,-0.0089 0.003,0.0068 -0.0313,0 -0.0344,-0.0068 0.004,0.0046 -0.0313,0 l -5.25,-0.8125 c -0.32654,-0.0505 -0.57855,-0.391809 -0.5307,-0.71875 l 0.71875,-5.25 c 0.005,-0.03441 -0.003,0.0034 0,-0.03125 0.003,-0.03466 -7e-4,0.0035 0,-0.03125 -0.001,-0.03474 0.004,0.0033 0,-0.03125 -0.004,-0.03459 0.006,0.003 0,-0.03125 -0.006,-0.0343 0.008,0.0026 0,-0.03125 -0.008,-0.03388 -0.0213,0.0021 -0.0313,-0.03125 -0.012,-0.03265 0.014,5.94e-4 0,-0.03125 -0.014,-0.03184 0.0159,-3.31e-4 0,-0.03125 -0.0159,-0.03092 -0.0135,-0.0014 -0.0313,-0.03125 -0.0196,-0.02872 -0.01,-0.0038 -0.0313,-0.03125 -0.0214,-0.02745 0.023,-0.0052 0,-0.03125 -0.023,-0.02607 -0.007,0.0246 -0.0313,0 -0.0246,-0.0246 0.026,-0.0082 0,-0.03125 l -3.96875,-3.5 c -0.23931,-0.216753 -0.26857,-0.626434 -0.0625,-0.875 l 3.4375,-4.03125 c 0.12928,-0.15161 0.10298,-0.26708 0.0626,-0.40625 l -1.46875,-5.0625 c -0.0893,-0.319073 0.11876,-0.690708 0.4375,-0.78125 l 5.09375,-1.5625 c 0.0322,-0.01011 -3.1e-4,-0.01922 0.0313,-0.03125 0.0308,-0.01391 10e-4,0.01574 0.0313,0 0.0299,-0.01574 0.002,-0.01375 0.0313,-0.03125 0.0289,-0.0175 0.003,0.01921 0.0313,0 0.0278,-0.01921 -0.0266,-0.0104 0,-0.03125 0.0266,-0.02085 0.006,0.02241 0.0313,0 0.0253,-0.02241 -0.0239,-0.0074 0,-0.03125 0.0239,-0.02389 0.009,0.02528 0.0313,0 0.0224,-0.02528 -0.0208,-0.0047 0,-0.03125 0.0208,-0.02658 0.012,0.02778 0.0313,0 0.0192,-0.02778 -0.0175,-0.0024 0,-0.03125 0.0175,-0.02889 0.0155,-0.0014 0.0313,-0.03125 0.0157,-0.02989 -0.0139,-4.68e-4 0,-0.03125 0.012,-0.03156 0.0211,9.8e-4 0.0313,-0.03125 l 1.5625,-5.09375 c 0.0905,-0.318738 0.46218,-0.526853 0.78125,-0.4375 L 166.625,69.75 c 0.0333,0.0092 -0.003,0.02408 0.0313,0.03125 0.0338,0.0072 -0.003,-0.0051 0.0313,0 0.0342,0.0051 -0.003,-0.003 0.0313,0 0.0344,0.003 -0.003,-8.36e-4 0.0313,0 0.0345,-0.0013 -0.003,0.0034 0.0313,0 0.0344,-0.0034 -0.003,0.0055 0.0313,0 0.0341,-0.0055 -0.002,0.0076 0.0313,0 0.0337,-0.0076 -0.002,-0.02158 0.0313,-0.03125 0.0325,-0.0117 -5e-4,0.01368 0.0313,0 0.0317,-0.01368 4e-4,-0.01565 0.0313,-0.03125 0.0308,-0.0156 0.001,0.01747 0.0313,0 0.0287,-0.01928 0.004,-0.01024 0.0313,-0.03125 0.0275,-0.02101 0.005,0.02265 0.0313,0 l 4.0306,-3.4375 c 0.0783,-0.07497 0.17621,-0.129351 0.28125,-0.15625 z"
           style="color:#000000;font-style:normal;font-variant:normal;font-weight:normal;font-stretch:normal;font-size:medium;line-height:normal;font-family:'Bitstream Vera Sans';-inkscape-font-specification:'Bitstream Vera Sans';text-indent:0;text-align:start;text-decoration:none;text-decoration-line:none;letter-spacing:normal;word-spacing:normal;text-transform:none;writing-mode:lr-tb;direction:ltr;text-anchor:start;display:inline;overflow:visible;visibility:visible;fill:#c46a00;fill-opacity:1;fill-rule:nonzero;stroke:none;stroke-width:1.10000002;marker:none;filter:url(#filter24064);enable-background:accumulate"
           transform="translate(0,-0.7)" />
      </g>
      <path
         inkscape:connector-curvature="0"
         transform="matrix(2.4885041,0,0,2.4885041,-171.45545,-145.5573)"
         id="path24084"
         d="m 96.875,67.25 -3.3125,2.8125 a 2.0032301,2.0032301 0 0 1 -1.84375,0.40625 L 87.5,69.28125 l -1.28125,4.1875 a 2.0032301,2.0032301 0 0 1 -1.3125,1.3125 l -4.1875,1.28125 1.1875,4.21875 A 2.0032301,2.0032301 0 0 1 81.5,82.125 l -2.1875,2.5625 c 3.929307,1.140291 8.528716,1.84375 13.5,1.84375 6.484057,0 12.39199,-1.151923 16.90625,-3 A 2.0032301,2.0032301 0 0 1 109.8125,82.25 l 1.78125,-4 -3.9375,-1.84375 a 2.0032301,2.0032301 0 0 1 -1.125,-1.5 l -0.65625,-4.3125 -4.34375,0.59375 A 2.0032301,2.0032301 0 0 1 99.75,70.5 Z"
         style="opacity:0.39436651;fill:url(#linearGradient24097);fill-opacity:1;stroke:none;filter:url(#filter24133)" />
      <circle
         transform="matrix(2.4885041,0,0,2.4885041,-167.00679,-157.72381)"
         id="path24099"
         style="fill:url(#radialGradient24119);fill-opacity:1;stroke:none;filter:url(#filter24121)"
         cx="89.095451"
         cy="77.441864"
         r="3.3587573" />
    </g>
  </g>
</svg>
