<?xml version="1.0" encoding="UTF-8" standalone="no"?>
<svg
   xmlns:dc="http://purl.org/dc/elements/1.1/"
   xmlns:cc="http://creativecommons.org/ns#"
   xmlns:rdf="http://www.w3.org/1999/02/22-rdf-syntax-ns#"
   xmlns:svg="http://www.w3.org/2000/svg"
   xmlns="http://www.w3.org/2000/svg"
   xmlns:sodipodi="http://sodipodi.sourceforge.net/DTD/sodipodi-0.dtd"
   xmlns:inkscape="http://www.inkscape.org/namespaces/inkscape"
   height="24"
   viewBox="0 0 6.3499999 6.3500002"
   width="24"
   version="1.1"
   id="svg141"
   sodipodi:docname="lc_insertendnote.svg"
   inkscape:export-filename="/home/rizmut/Dokumen/Rizmut/Github/libreoffice-style-karasa-jaga/build/next/cmd/lc_insertendnote.png"
   inkscape:export-xdpi="96"
   inkscape:export-ydpi="96"
   inkscape:version="0.92.4 (unknown)">
  <metadata
     id="metadata147">
    <rdf:RDF>
      <cc:Work
         rdf:about="">
        <dc:format>image/svg+xml</dc:format>
        <dc:type
           rdf:resource="http://purl.org/dc/dcmitype/StillImage" />
        <dc:title></dc:title>
      </cc:Work>
    </rdf:RDF>
  </metadata>
  <defs
     id="defs145" />
  <sodipodi:namedview
     pagecolor="#ffffff"
     bordercolor="#666666"
     borderopacity="1"
     objecttolerance="10"
     gridtolerance="10"
     guidetolerance="10"
     inkscape:pageopacity="0"
     inkscape:pageshadow="2"
     inkscape:window-width="1366"
     inkscape:window-height="706"
     id="namedview143"
     showgrid="true"
     inkscape:zoom="10.429825"
     inkscape:cx="17.62047"
     inkscape:cy="13.793508"
     inkscape:window-x="0"
     inkscape:window-y="0"
     inkscape:window-maximized="1"
     inkscape:current-layer="g139">
    <inkscape:grid
       type="xygrid"
       id="grid954"
       spacingx="0.13229167"
       spacingy="0.13229167"
       empspacing="2" />
  </sodipodi:namedview>
  <filter
     id="a">
    <feGaussianBlur
       stdDeviation="1.0394514"
       id="feGaussianBlur2" />
  </filter>
  <filter
     id="b">
    <feGaussianBlur
       stdDeviation=".50063244"
       id="feGaussianBlur5" />
  </filter>
  <radialGradient
     id="c"
     cx="29.763853"
     cy="291.40613"
     gradientUnits="userSpaceOnUse"
     r="35.768372"
     gradientTransform="translate(1.539394)">
    <stop
       offset="0"
       stop-color="#3e3e3e"
       id="stop8" />
    <stop
       offset=".0151"
       stop-color="#505050"
       id="stop10" />
    <stop
       offset=".0558"
       stop-color="#7e7e7e"
       id="stop12" />
    <stop
       offset=".1357"
       stop-color="#c6c6c6"
       id="stop14" />
    <stop
       offset=".20990001"
       stop-color="#f1f1f1"
       id="stop16" />
    <stop
       offset=".24349999"
       stop-color="#fcfcfc"
       id="stop18" />
    <stop
       offset=".2722"
       stop-color="#fff"
       id="stop20" />
  </radialGradient>
  <radialGradient
     id="d"
     cx="102"
     cy="112.3047"
     gradientTransform="matrix(0.25084352,0,0,0.25163671,5.50999,262.92104)"
     gradientUnits="userSpaceOnUse"
     r="139.55859">
    <stop
       offset="0"
       stop-color="#535557"
       id="stop23" />
    <stop
       offset=".11366145"
       stop-color="#898a8c"
       id="stop25" />
    <stop
       offset=".20296688"
       stop-color="#ececec"
       id="stop27" />
    <stop
       offset=".2363"
       stop-color="#fafafa"
       id="stop29" />
    <stop
       offset=".2722"
       stop-color="#fff"
       id="stop31" />
    <stop
       offset=".5313"
       stop-color="#fafafa"
       id="stop33" />
    <stop
       offset=".8449"
       stop-color="#ebecec"
       id="stop35" />
    <stop
       offset="1"
       stop-color="#e1e2e3"
       id="stop37" />
  </radialGradient>
  <linearGradient
     id="e"
     gradientUnits="userSpaceOnUse"
     x1="88.591797"
     x2="71.262016"
     y1="96.592697"
     y2="79.262917">
    <stop
       offset="0"
       stop-color="#fff"
       id="stop40" />
    <stop
       offset="1"
       stop-color="#555753"
       id="stop42" />
  </linearGradient>
  <filter
     id="f">
    <feGaussianBlur
       stdDeviation=".40750996"
       id="feGaussianBlur45" />
  </filter>
  <filter
     id="g">
    <feGaussianBlur
       stdDeviation=".90565481"
       id="feGaussianBlur48" />
  </filter>
  <linearGradient
     id="h"
     gradientUnits="userSpaceOnUse"
     x1="85.219681"
     x2="61.336319"
     y1="93.219681"
     y2="69.336319">
    <stop
       offset="0"
       id="stop51" />
    <stop
       offset="1"
       stop-color="#393b38"
       id="stop53" />
  </linearGradient>
  <filter
     id="i">
    <feGaussianBlur
       stdDeviation=".4901192"
       id="feGaussianBlur56" />
  </filter>
  <linearGradient
     id="j"
     gradientUnits="userSpaceOnUse"
     x1="96"
     x2="88.000198"
     y1="104"
     y2="96.000198">
    <stop
       offset="0"
       stop-color="#888a85"
       id="stop59" />
    <stop
       offset=".0072"
       stop-color="#8c8e89"
       id="stop61" />
    <stop
       offset=".0673"
       stop-color="#abaca9"
       id="stop63" />
    <stop
       offset=".1347"
       stop-color="#c5c6c4"
       id="stop65" />
    <stop
       offset=".2115"
       stop-color="#dbdbda"
       id="stop67" />
    <stop
       offset=".3012"
       stop-color="#ebebeb"
       id="stop69" />
    <stop
       offset=".4122"
       stop-color="#f7f7f6"
       id="stop71" />
    <stop
       offset=".5679"
       stop-color="#fdfdfd"
       id="stop73" />
    <stop
       offset="1"
       stop-color="#fff"
       id="stop75" />
  </linearGradient>
  <linearGradient
     id="k"
     gradientTransform="matrix(0.26458333,0,0,0.20410714,-21.193262,273.5846)"
     gradientUnits="userSpaceOnUse"
     x1="154.28152"
     x2="154.28152"
     y1="104.82231"
     y2="115.19268">
    <stop
       offset="0"
       stop-color="#4c78fd"
       id="stop78" />
    <stop
       offset="1"
       stop-color="#85a2fe"
       id="stop80" />
  </linearGradient>
  <linearGradient
     id="l"
     gradientTransform="matrix(0,-0.26458333,0.26458333,0,-64.804176,312.44417)"
     gradientUnits="userSpaceOnUse"
     x1="182.28288"
     x2="182.28288"
     y1="238.96916"
     y2="344.42404">
    <stop
       offset="0"
       stop-color="#8e79b9"
       id="stop83" />
    <stop
       offset="1"
       stop-color="#462886"
       id="stop85" />
  </linearGradient>
  <linearGradient
     id="m"
     gradientUnits="userSpaceOnUse"
     x1="40.7267"
     x2="29.0905"
     y1="52.3647"
     y2="52.3647"
     gradientTransform="matrix(0.26458333,0,0,0.26458333,1.539394,263.13332)">
    <stop
       offset="0"
       stop-color="#fff"
       stop-opacity=".683453"
       id="stop88" />
    <stop
       offset="1"
       stop-color="#fff"
       stop-opacity="0"
       id="stop90" />
  </linearGradient>
  <g
     transform="matrix(0.171875,0,0,0.171875,0,-44.696873)"
     id="g139">
    <path
       d="m 15.393723,293.92123 h 10.775606 v 3.07875 H 15.393723 Z"
       id="path121"
       style="fill:url(#k)"
       inkscape:connector-curvature="0" />
    <path
       d="M 28.947936,3.1678803 28.987051,111.03265 H 84.172 c 0.53,0 1.039,-0.211 1.414,-0.586 l 32.828,-32.827997 c 0.375,-0.375 0.586,-0.884 0.586,-1.414 l 0.002,-73.0367727 z"
       transform="matrix(0.26697567,0,0,0.26545011,2.608702,261.7715)"
       id="path93"
       inkscape:connector-curvature="0"
       style="opacity:0.55342503;filter:url(#a)"
       sodipodi:nodetypes="ccsssscc" />
    <path
       d="M 28.947936,3.1990978 28.987055,111.03265 H 84.172 c 0.53,0 1.039,-0.211 1.414,-0.586 l 32.828,-32.827997 c 0.375,-0.375 0.586,-0.884 0.586,-1.414 l 0.002,-73.0055552 z"
       transform="matrix(0.26697567,0,0,0.26545011,2.608702,261.7715)"
       id="path95"
       inkscape:connector-curvature="0"
       style="opacity:0.30684904;filter:url(#a)"
       sodipodi:nodetypes="ccsssscc" />
    <path
       d="m 30.867935,5.1302338 -0.0017,103.7721362 52.729766,-1e-4 c 0.53,0 1.039,-0.211 1.414,-0.586 L 116.494,76.55034 c 0.375,-0.375 0.586,-0.884 0.586,-1.414 l 0.002,-70.0061062 z"
       transform="matrix(0.26697567,0,0,0.26545011,2.608702,261.7715)"
       id="path97"
       inkscape:connector-curvature="0"
       style="opacity:0.89589;filter:url(#b)"
       sodipodi:nodetypes="cccccscc" />
    <path
       d="m 28.947936,4.164615 0.03912,106.868035 H 84.172 c 0.53,0 1.039,-0.211 1.414,-0.586 l 32.828,-32.827997 c 0.375,-0.375 0.586,-0.884 0.586,-1.414 l 0.002,-72.040038 z"
       transform="matrix(0.26697567,0,0,0.26545011,2.608702,261.7715)"
       id="path99"
       inkscape:connector-curvature="0"
       style="opacity:0.30684904;filter:url(#a)"
       sodipodi:nodetypes="ccsssscc" />
    <path
       d="m 10.849691,263.13332 -4.55e-4,27.54633 h 14.090678 c 0.135838,0 0.266292,-0.0541 0.362404,-0.15019 l 8.413706,-8.41371 c 0.09611,-0.0961 0.150188,-0.22657 0.150188,-0.3624 l 4.54e-4,-18.62003 z"
       id="path101"
       style="fill:url(#c);stroke-width:0.26458299"
       inkscape:connector-curvature="0"
       sodipodi:nodetypes="ccsccscc" />
    <path
       d="m 12.586285,264.61907 c -0.138215,0 -0.250843,0.11299 -0.250843,0.25164 l 0.08473,23.95992 c 0,0.1389 0.112628,0.25164 0.250843,0.25164 h 12.19708 c 0.06597,0 0.130689,-0.0267 0.177346,-0.0737 l 7.440941,-7.20239 c 0.04691,-0.0471 0.0735,-0.11173 0.0735,-0.17791 l 4.54e-4,-16.93693 c 4e-6,-0.13865 -0.112376,-0.25163 -0.250841,-0.25163 z"
       id="path103"
       style="fill:url(#d);stroke-width:0.26458299"
       inkscape:connector-curvature="0"
       sodipodi:nodetypes="cccssccsscc" />
    <g
       id="g119"
       style="fill:#b3b3b3"
       transform="translate(1.539394)">
      <path
         d="m 12.315388,283.14524 h 16.933098 v 1.53937 H 12.315388 Z"
         id="path105"
         inkscape:connector-curvature="0" />
      <path
         d="m 12.315388,286.224 h 12.699821 v 1.53937 H 12.315388 Z"
         id="path107"
         inkscape:connector-curvature="0" />
      <path
         d="m 12.315388,267.75153 h 16.933098 v 1.53937 H 12.315388 Z"
         id="path109"
         inkscape:connector-curvature="0" />
      <path
         d="m 12.315388,270.83027 h 16.933098 v 1.53937 H 12.315388 Z"
         id="path111"
         inkscape:connector-curvature="0" />
      <path
         d="m 12.315388,273.909 h 16.933098 v 1.53937 H 12.315388 Z"
         id="path113"
         inkscape:connector-curvature="0" />
      <path
         d="m 12.315388,276.98777 h 16.933098 v 1.53937 H 12.315388 Z"
         id="path115"
         inkscape:connector-curvature="0" />
      <path
         d="m 12.315388,280.0665 h 16.933098 v 1.53937 H 12.315388 Z"
         id="path117"
         inkscape:connector-curvature="0" />
      <path
         inkscape:connector-curvature="0"
         id="path4966"
         d="m 12.315388,264.67272 h 16.933098 v 1.53937 H 12.315388 Z" />
    </g>
    <path
       d="m 13.806247,269.22284 h 13.85435 v 3.07875 h -13.85435 z"
       id="path123"
       inkscape:connector-curvature="0"
       style="fill:#ff6600"
       sodipodi:nodetypes="ccccc" />
    <path
       d="m 9.2619199,267.72632 v 6.29522 h 4.0333461 c 0.698031,10e-4 1.131527,-0.29153 1.462959,-0.62115 0.33106,-0.32925 0.629184,-0.7656 0.628902,-1.46657 v -0.002 -2.11356 -0.002 c 4.24e-4,-0.70111 -0.295549,-1.13524 -0.625285,-1.46503 -0.329734,-0.32979 -0.76383,-0.6254 -1.46451,-0.62529 z m 1.9569861,19.67735 c -0.27821,0.0138 -0.566729,0.0926 -0.86713,0.24288 -0.7309612,0.36547 -1.0425274,1.07907 -1.0898561,1.71101 v 1.32188 h 6.5153641 l -3.150195,-2.75539 c -0.03088,-0.0267 -0.06277,-0.0522 -0.0956,-0.0765 -0.413812,-0.30942 -0.848898,-0.46692 -1.312582,-0.4439 z"
       id="path125"
       style="fill:url(#m);stroke-width:0.26458332"
       inkscape:connector-curvature="0"
       sodipodi:nodetypes="cccscccccccccccccccc" />
    <g
       transform="matrix(0.29316259,0,0,0.29316259,1.258585,256.22941)"
       id="g137">
      <path
         d="M 111.414,86.586 C 111.664,86.336 85.035,85 80,85 c -1.654,0 -3,1.346 -3,3 0,5.035 1.336,31.664 1.586,31.414 z"
         id="path129"
         style="opacity:0.75068497;fill:url(#e);filter:url(#f)"
         inkscape:connector-curvature="0" />
      <path
         d="M 111.414,86.586 C 111.789,86.211 89.444,86 80,86 c -1.103,0 -2,0.897 -2,2 0,9.444 0.211,31.789 0.586,31.414 z"
         id="path131"
         inkscape:connector-curvature="0"
         style="opacity:0.56400003;filter:url(#g)" />
      <path
         d="M 111.414,86.586 C 111.653,86.347 89.807,87 80,87 c -0.553,0 -1,0.447 -1,1 0,9.807 -0.653,31.653 -0.414,31.414 z"
         id="path133"
         style="opacity:0.1;fill:url(#h);filter:url(#i)"
         inkscape:connector-curvature="0" />
      <path
         d="M 79.721619,119.31106 111.22712,87.805556 H 79.721619 Z"
         id="path135"
         style="fill:url(#j)"
         inkscape:connector-curvature="0" />
    </g>
    <path
       d="m 1.5393723,273.9094 c 0,-2.57906 2.2275594,-4.63169 4.8305111,-4.63169 h 5.4572686 c 0.233313,-2.6e-4 0.488191,0.25473 0.487826,0.48783 v 2.11666 c 3.17e-4,0.2333 -0.254726,0.48819 -0.487826,0.48783 H 6.3698834 c -0.4239434,0 -0.8271099,0.0844 -1.157552,0.35109 -0.3304421,0.26667 -0.5942145,0.69141 -0.5942145,1.18828 l 3.17e-5,16.66055 c 0,0.42394 0.1373709,0.82711 0.4040452,1.15755 0.2666743,0.33044 0.6384629,0.65505 1.1353271,0.65505 h 3.0787446 l -0.00554,-2.21775 c 2.911e-4,-0.2345 0.095887,-0.38694 0.214974,-0.44648 0.156128,-0.0781 0.3672811,-0.0529 0.5043623,0.0496 l 4.1506502,3.62975 0.0083,0.008 0.03307,0.0248 c 0.01325,0.0143 0.02704,0.0281 0.04134,0.0413 0.115085,0.0882 0.198437,0.24668 0.198437,0.3886 0,0.14193 -0.08335,0.30044 -0.198437,0.38861 -0.0143,0.0133 -0.02809,0.027 -0.04134,0.0413 -0.01124,0.008 -0.02227,0.0163 -0.03307,0.0248 l -0.0083,0.008 -4.1506502,3.63803 h -0.0083 c -0.071481,0.0521 -0.1582015,0.087 -0.2645836,0.0909 -0.2382041,0.008 -0.447018,-0.20961 -0.4464844,-0.48783 l 0.00554,-2.10357 H 6.1575231 c -2.5790597,6.9e-4 -4.6181169,-2.28771 -4.6181169,-4.89066 z"
       id="path127"
       inkscape:connector-curvature="0"
       style="fill:url(#l)"
       sodipodi:nodetypes="csccccscccssccccccccscccccccccccc" />
  </g>
</svg>
