<?xml version="1.0" encoding="UTF-8" standalone="no"?>
<svg
   xmlns:dc="http://purl.org/dc/elements/1.1/"
   xmlns:cc="http://creativecommons.org/ns#"
   xmlns:rdf="http://www.w3.org/1999/02/22-rdf-syntax-ns#"
   xmlns:svg="http://www.w3.org/2000/svg"
   xmlns="http://www.w3.org/2000/svg"
   xmlns:xlink="http://www.w3.org/1999/xlink"
   xmlns:sodipodi="http://sodipodi.sourceforge.net/DTD/sodipodi-0.dtd"
   xmlns:inkscape="http://www.inkscape.org/namespaces/inkscape"
   height="24"
   width="24"
   version="1.1"
   id="svg90"
   sodipodi:docname="lc_importdialog.svg"
   inkscape:version="0.92.4 (unknown)"
   inkscape:export-filename="/home/rizmut/Dokumen/Rizmut/Github/libreoffice-style-karasa-jaga/build/next/cmd/lc_importdialog.png"
   inkscape:export-xdpi="96"
   inkscape:export-ydpi="96">
  <metadata
     id="metadata96">
    <rdf:RDF>
      <cc:Work
         rdf:about="">
        <dc:format>image/svg+xml</dc:format>
        <dc:type
           rdf:resource="http://purl.org/dc/dcmitype/StillImage" />
        <dc:title></dc:title>
      </cc:Work>
    </rdf:RDF>
  </metadata>
  <defs
     id="defs94">
    <linearGradient
       id="c-3"
       gradientTransform="matrix(1.8263701,0,0,1.8293782,224.68154,-3467.4687)"
       gradientUnits="userSpaceOnUse"
       x1="-97.742668"
       x2="-97.742668"
       y1="1937.9885"
       y2="1895.421">
      <stop
         offset="0"
         stop-color="#2e2a2b"
         id="stop12" />
      <stop
         offset=".33497536"
         stop-color="#4c494a"
         id="stop14" />
      <stop
         offset=".66748768"
         stop-color="#5b595a"
         id="stop16" />
      <stop
         offset="1"
         stop-color="#6b696a"
         id="stop18-6" />
    </linearGradient>
    <radialGradient
       id="d-7"
       cx="100.30548"
       cy="42.449028"
       gradientTransform="matrix(3.9033696,-0.08921125,0.03142618,1.3750281,-365.19142,-59.70847)"
       gradientUnits="userSpaceOnUse"
       r="38">
      <stop
         offset="0"
         stop-color="#d0ced9"
         id="stop21" />
      <stop
         offset=".28386873"
         stop-color="#ecf1f9"
         id="stop23" />
      <stop
         offset=".58388489"
         stop-color="#fff"
         id="stop25-5" />
      <stop
         offset="1"
         stop-color="#c6d5e3"
         id="stop27-3" />
    </radialGradient>
    <linearGradient
       id="f-5"
       gradientUnits="userSpaceOnUse"
       x1="65.972267"
       x2="66.079453"
       xlink:href="#b-6"
       y1="31.21278"
       y2="59.869701" />
    <linearGradient
       id="b-6">
      <stop
         offset="0"
         stop-color="#fff"
         id="stop7" />
      <stop
         offset="1"
         stop-color="#fff"
         stop-opacity="0"
         id="stop9" />
    </linearGradient>
    <filter
       id="e-2">
      <feGaussianBlur
         stdDeviation=".11145486"
         id="feGaussianBlur30" />
    </filter>
    <linearGradient
       id="g-9"
       gradientTransform="matrix(0.7134318,0,0,0.7083173,5.052357,-5.237961)"
       gradientUnits="userSpaceOnUse"
       x1="107.06239"
       x2="107.06239"
       xlink:href="#b-6"
       y1="-26.262714"
       y2="134.55173" />
    <linearGradient
       id="j-1"
       gradientUnits="userSpaceOnUse"
       x1="47.608696"
       x2="47.608696"
       xlink:href="#a-2"
       y1="104.35009"
       y2="176.35008" />
    <linearGradient
       id="a-2">
      <stop
         offset="0"
         id="stop2" />
      <stop
         offset="1"
         stop-opacity="0"
         id="stop4" />
    </linearGradient>
    <clipPath
       id="m">
      <path
         inkscape:connector-curvature="0"
         d="m 18.189713,132.42089 c -1.419208,0 -2.5625,1.1433 -2.5625,2.5625 v 37.18328 h 72.000002 v -37.18328 c 0,-1.4192 -1.14329,-2.5625 -2.5625,-2.5625 z"
         id="path44" />
    </clipPath>
    <filter
       id="h-7"
       height="1.2405109"
       width="1.138013"
       x="-0.069006003"
       y="-0.120256">
      <feGaussianBlur
         stdDeviation="1.9228365"
         id="feGaussianBlur35" />
    </filter>
    <radialGradient
       id="i-0"
       cx="84"
       cy="91.983192"
       gradientTransform="matrix(0.7217891,0,0,0.424278,-3.07943,23.252626)"
       gradientUnits="userSpaceOnUse"
       r="32"
       xlink:href="#b-6" />
    <linearGradient
       id="p"
       gradientUnits="userSpaceOnUse"
       x1="68"
       x2="36"
       xlink:href="#a-2"
       y1="120"
       y2="84" />
    <filter
       id="o"
       height="1.185769"
       width="1.247692"
       x="-0.123846"
       y="-0.092885002">
      <feGaussianBlur
         stdDeviation="1.2384615"
         id="feGaussianBlur52" />
    </filter>
    <linearGradient
       id="k-9"
       gradientUnits="userSpaceOnUse"
       x1="89.604729"
       x2="114.175"
       xlink:href="#b-6"
       y1="42.336197"
       y2="106.7981" />
    <filter
       id="l-3">
      <feGaussianBlur
         stdDeviation=".0231875"
         id="feGaussianBlur41" />
    </filter>
    <linearGradient
       id="r"
       gradientUnits="userSpaceOnUse"
       x1="87.693916"
       x2="91.051781"
       xlink:href="#a-2"
       y1="100.83184"
       y2="100.83184" />
    <filter
       id="s"
       height="1.045223"
       width="1.5097899"
       x="-0.254895"
       y="-0.022612">
      <feGaussianBlur
         stdDeviation=".35662617"
         id="feGaussianBlur58" />
    </filter>
    <linearGradient
       id="n"
       gradientTransform="matrix(0.7217891,0,0,0.6902605,-3.07943,-3.520608)"
       gradientUnits="userSpaceOnUse"
       x1="64"
       x2="56"
       y1="120.0697"
       y2="96.315643">
      <stop
         offset="0"
         stop-color="#8a8a8a"
         id="stop47" />
      <stop
         offset="1"
         stop-color="#c6c6c6"
         id="stop49" />
    </linearGradient>
    <linearGradient
       id="q"
       gradientTransform="matrix(0.7217891,0,0,0.6902605,3.07943,-3.520608)"
       gradientUnits="userSpaceOnUse"
       x1="-80.095642"
       x2="-89.987785"
       xlink:href="#b-6"
       y1="78.43882"
       y2="115.78114" />
    <clipPath
       id="v">
      <rect
         height="12"
         rx="1.079258"
         width="8"
         x="12"
         y="12"
         id="rect67" />
    </clipPath>
    <filter
       id="t"
       height="1.203077"
       width="1.2933331"
       x="-0.146667"
       y="-0.101538">
      <feGaussianBlur
         stdDeviation=".55"
         id="feGaussianBlur61" />
    </filter>
    <radialGradient
       id="x"
       cx="16"
       cy="18"
       gradientTransform="matrix(1,0,0,1.5,0,-9)"
       gradientUnits="userSpaceOnUse"
       r="4">
      <stop
         offset="0"
         stop-color="#7a7a7a"
         id="stop73" />
      <stop
         offset="1"
         stop-opacity=".490909"
         id="stop75" />
    </radialGradient>
    <linearGradient
       id="y"
       gradientUnits="userSpaceOnUse"
       x1="16"
       x2="16"
       xlink:href="#a-2"
       y1="1.595278"
       y2="18.75548" />
    <clipPath
       id="u">
      <rect
         height="12"
         rx="1.079258"
         width="8"
         x="12"
         y="12"
         id="rect64" />
    </clipPath>
    <filter
       id="filter462"
       height="1.203077"
       width="1.2933331"
       x="-0.146667"
       y="-0.101538">
      <feGaussianBlur
         stdDeviation=".55"
         id="feGaussianBlur460" />
    </filter>
    <radialGradient
       id="z"
       cx="16.03512"
       cy="19.494249"
       fy="18.539074"
       gradientUnits="userSpaceOnUse"
       r="2.3785191">
      <stop
         offset="0"
         stop-color="#868385"
         id="stop79" />
      <stop
         offset="1"
         stop-color="#4a4949"
         id="stop81" />
    </radialGradient>
    <linearGradient
       id="A"
       gradientUnits="userSpaceOnUse"
       x1="13.731525"
       x2="13.731525"
       y1="17.127983"
       y2="19.86887">
      <stop
         offset="0"
         stop-color="#fff"
         id="stop84" />
      <stop
         offset="1"
         id="stop86" />
    </linearGradient>
    <filter
       id="w">
      <feGaussianBlur
         stdDeviation=".04177847"
         id="feGaussianBlur70" />
    </filter>
    <linearGradient
       id="B"
       gradientTransform="matrix(0.7217891,0,0,0.6902605,-3.07943,-3.520608)"
       gradientUnits="userSpaceOnUse"
       x1="60.25"
       x2="60.25"
       xlink:href="#a-2"
       y1="122.00736"
       y2="118.5" />
    <radialGradient
       id="d-7-6"
       cx="100.30548"
       cy="42.449028"
       gradientTransform="matrix(3.9033696,-0.08921125,0.03142618,1.3750281,-365.19142,-59.70847)"
       gradientUnits="userSpaceOnUse"
       r="38">
      <stop
         offset="0"
         stop-color="#d0ced9"
         id="stop21-1" />
      <stop
         offset=".28386873"
         stop-color="#ecf1f9"
         id="stop23-8" />
      <stop
         offset=".58388489"
         stop-color="#fff"
         id="stop25-5-7" />
      <stop
         offset="1"
         stop-color="#c6d5e3"
         id="stop27-3-9" />
    </radialGradient>
    <linearGradient
       id="f-5-2"
       gradientUnits="userSpaceOnUse"
       x1="65.972267"
       x2="66.079453"
       xlink:href="#b-6"
       y1="31.21278"
       y2="59.869701" />
    <filter
       id="e-2-3">
      <feGaussianBlur
         stdDeviation=".11145486"
         id="feGaussianBlur30-7" />
    </filter>
    <linearGradient
       id="j-1-5"
       gradientUnits="userSpaceOnUse"
       x1="47.608696"
       x2="47.608696"
       xlink:href="#a-2"
       y1="104.35009"
       y2="176.35008" />
    <clipPath
       id="m-2">
      <path
         inkscape:connector-curvature="0"
         d="m 18.189713,132.42089 c -1.419208,0 -2.5625,1.1433 -2.5625,2.5625 v 37.18328 h 72.000002 v -37.18328 c 0,-1.4192 -1.14329,-2.5625 -2.5625,-2.5625 z"
         id="path44-8" />
    </clipPath>
    <filter
       id="h-7-9"
       height="1.2405109"
       width="1.138013"
       x="-0.069006003"
       y="-0.120256">
      <feGaussianBlur
         stdDeviation="1.9228365"
         id="feGaussianBlur35-7" />
    </filter>
    <radialGradient
       id="i-0-3"
       cx="84"
       cy="91.983192"
       gradientTransform="matrix(0.7217891,0,0,0.424278,-3.07943,23.252626)"
       gradientUnits="userSpaceOnUse"
       r="32"
       xlink:href="#b-6" />
    <linearGradient
       id="p-6"
       gradientUnits="userSpaceOnUse"
       x1="68"
       x2="36"
       xlink:href="#a-2"
       y1="120"
       y2="84" />
    <filter
       id="o-1"
       height="1.185769"
       width="1.247692"
       x="-0.123846"
       y="-0.092885002">
      <feGaussianBlur
         stdDeviation="1.2384615"
         id="feGaussianBlur52-2" />
    </filter>
    <linearGradient
       id="k-9-9"
       gradientUnits="userSpaceOnUse"
       x1="89.604729"
       x2="114.175"
       xlink:href="#b-6"
       y1="42.336197"
       y2="106.7981" />
    <filter
       id="l-3-3">
      <feGaussianBlur
         stdDeviation=".0231875"
         id="feGaussianBlur41-1" />
    </filter>
    <linearGradient
       id="r-9"
       gradientUnits="userSpaceOnUse"
       x1="87.693916"
       x2="91.051781"
       xlink:href="#a-2"
       y1="100.83184"
       y2="100.83184" />
    <filter
       id="s-4"
       height="1.045223"
       width="1.5097899"
       x="-0.254895"
       y="-0.022612">
      <feGaussianBlur
         stdDeviation=".35662617"
         id="feGaussianBlur58-7" />
    </filter>
    <clipPath
       id="v-5">
      <rect
         height="12"
         rx="1.079258"
         width="8"
         x="12"
         y="12"
         id="rect67-0" />
    </clipPath>
    <filter
       id="t-3"
       height="1.203077"
       width="1.2933331"
       x="-0.146667"
       y="-0.101538">
      <feGaussianBlur
         stdDeviation=".55"
         id="feGaussianBlur61-6" />
    </filter>
    <radialGradient
       id="x-1"
       cx="16"
       cy="18"
       gradientTransform="matrix(1,0,0,1.5,0,-9)"
       gradientUnits="userSpaceOnUse"
       r="4">
      <stop
         offset="0"
         stop-color="#7a7a7a"
         id="stop73-0" />
      <stop
         offset="1"
         stop-opacity=".490909"
         id="stop75-6" />
    </radialGradient>
    <linearGradient
       id="y-3"
       gradientUnits="userSpaceOnUse"
       x1="16"
       x2="16"
       xlink:href="#a-2"
       y1="1.595278"
       y2="18.75548" />
    <clipPath
       id="u-2">
      <rect
         height="12"
         rx="1.079258"
         width="8"
         x="12"
         y="12"
         id="rect64-0" />
    </clipPath>
    <filter
       id="filter423"
       height="1.203077"
       width="1.2933331"
       x="-0.146667"
       y="-0.101538">
      <feGaussianBlur
         stdDeviation=".55"
         id="feGaussianBlur421" />
    </filter>
    <radialGradient
       id="z-6"
       cx="16.03512"
       cy="19.494249"
       fy="18.539074"
       gradientUnits="userSpaceOnUse"
       r="2.3785191">
      <stop
         offset="0"
         stop-color="#868385"
         id="stop79-1" />
      <stop
         offset="1"
         stop-color="#4a4949"
         id="stop81-5" />
    </radialGradient>
    <linearGradient
       id="A-5"
       gradientUnits="userSpaceOnUse"
       x1="13.731525"
       x2="13.731525"
       y1="17.127983"
       y2="19.86887">
      <stop
         offset="0"
         stop-color="#fff"
         id="stop84-4" />
      <stop
         offset="1"
         id="stop86-7" />
    </linearGradient>
    <filter
       id="w-6">
      <feGaussianBlur
         stdDeviation=".04177847"
         id="feGaussianBlur70-5" />
    </filter>
    <radialGradient
       id="J"
       cx="84.903702"
       cy="-130.14005"
       gradientTransform="matrix(0.30794145,0.30794145,-0.30794145,0.30794145,49.969462,110.90745)"
       gradientUnits="userSpaceOnUse"
       r="57.039597"
       xlink:href="#K" />
    <linearGradient
       id="K">
      <stop
         offset="0"
         stop-color="#011701"
         id="stop4223" />
      <stop
         offset=".80671918"
         stop-color="#145703"
         id="stop4225" />
      <stop
         offset="1"
         stop-color="#2fa207"
         stop-opacity=".384314"
         id="stop4227" />
    </linearGradient>
    <radialGradient
       id="L"
       cx="43.084476"
       cy="-121.92532"
       gradientTransform="matrix(0.30347528,0.31234377,-0.3628951,0.35259129,43.461643,116.16172)"
       gradientUnits="userSpaceOnUse"
       r="57.039597"
       xlink:href="#K" />
    <radialGradient
       id="M"
       cx="51.991096"
       cy="-78.028419"
       gradientTransform="matrix(0.28232256,0.33158686,-0.56115095,0.47778001,31.543879,122.93033)"
       gradientUnits="userSpaceOnUse"
       r="57.039597"
       xlink:href="#K" />
    <linearGradient
       id="N"
       gradientTransform="scale(1.0975951,0.9110828)"
       gradientUnits="userSpaceOnUse"
       x1="26.091133"
       x2="31.500689"
       xlink:href="#b-6"
       y1="14.856744"
       y2="14.856744" />
    <filter
       id="O"
       height="1.277481"
       width="1.279832"
       x="-0.139916"
       y="-0.138741">
      <feGaussianBlur
         stdDeviation=".28784801"
         id="feGaussianBlur4233" />
    </filter>
    <filter
       id="filter4437"
       height="1.277481"
       width="1.279832"
       x="-0.139916"
       y="-0.138741">
      <feGaussianBlur
         stdDeviation=".28784801"
         id="feGaussianBlur4435" />
    </filter>
    <linearGradient
       id="P"
       gradientUnits="userSpaceOnUse"
       spreadMethod="pad"
       x1="33.346737"
       x2="32.553017"
       xlink:href="#b-6"
       y1="11.842831"
       y2="16.361324" />
    <filter
       id="filter4448"
       height="1.277481"
       width="1.279832"
       x="-0.139916"
       y="-0.138741">
      <feGaussianBlur
         stdDeviation=".28784801"
         id="feGaussianBlur4446" />
    </filter>
    <linearGradient
       id="Q"
       gradientUnits="userSpaceOnUse"
       spreadMethod="reflect"
       x1="88.606247"
       x2="91.575104"
       y1="13.510336"
       y2="13.510336">
      <stop
         offset="0"
         stop-color="#c8ff87"
         id="stop4237" />
      <stop
         offset="1"
         stop-color="#abff87"
         stop-opacity="0"
         id="stop4239" />
    </linearGradient>
    <filter
       id="filter4455"
       height="1.277481"
       width="1.279832"
       x="-0.139916"
       y="-0.138741">
      <feGaussianBlur
         stdDeviation=".28784801"
         id="feGaussianBlur4453" />
    </filter>
    <linearGradient
       id="R"
       gradientUnits="userSpaceOnUse"
       spreadMethod="reflect"
       x1="31.606251"
       x2="34.575108"
       y1="13.510336"
       y2="13.510336">
      <stop
         offset="0"
         stop-color="#fff"
         id="stop4242" />
      <stop
         offset="1"
         stop-color="#790000"
         stop-opacity="0"
         id="stop4244" />
    </linearGradient>
    <filter
       id="filter4462"
       height="1.277481"
       width="1.279832"
       x="-0.139916"
       y="-0.138741">
      <feGaussianBlur
         stdDeviation=".28784801"
         id="feGaussianBlur4460" />
    </filter>
    <filter
       id="filter4472"
       height="1.277481"
       width="1.279832"
       x="-0.139916"
       y="-0.138741">
      <feGaussianBlur
         stdDeviation=".28784801"
         id="feGaussianBlur4470" />
    </filter>
    <filter
       id="filter4482"
       height="1.277481"
       width="1.279832"
       x="-0.139916"
       y="-0.138741">
      <feGaussianBlur
         stdDeviation=".28784801"
         id="feGaussianBlur4480" />
    </filter>
    <filter
       id="filter4492"
       height="1.277481"
       width="1.279832"
       x="-0.139916"
       y="-0.138741">
      <feGaussianBlur
         stdDeviation=".28784801"
         id="feGaussianBlur4490" />
    </filter>
    <radialGradient
       id="S"
       cx="50.424522"
       cy="-81.945961"
       gradientTransform="matrix(0.30794145,0.30794145,-0.30794145,0.30794145,49.969461,110.90745)"
       gradientUnits="userSpaceOnUse"
       r="50.15279">
      <stop
         offset="0"
         stop-color="#7ae91e"
         stop-opacity=".996078"
         id="stop4247" />
      <stop
         offset="1"
         stop-color="#62c916"
         id="stop4249" />
    </radialGradient>
    <filter
       style="color-interpolation-filters:sRGB"
       id="T"
       height="1.024"
       width="1.024"
       x="-0.012"
       y="-0.012">
      <feGaussianBlur
         stdDeviation=".28192153"
         id="feGaussianBlur4252" />
    </filter>
    <linearGradient
       id="U"
       gradientUnits="userSpaceOnUse"
       x1="88.223732"
       x2="101.11488"
       xlink:href="#b-6"
       y1="51.615383"
       y2="113.91425" />
    <linearGradient
       spreadMethod="reflect"
       y2="13.510336"
       x2="91.575104"
       y1="13.510336"
       x1="88.606247"
       gradientUnits="userSpaceOnUse"
       id="linearGradient4526"
       xlink:href="#Q"
       inkscape:collect="always" />
    <linearGradient
       spreadMethod="reflect"
       y2="13.510336"
       x2="34.575108"
       y1="13.510336"
       x1="31.606251"
       gradientUnits="userSpaceOnUse"
       id="linearGradient4528"
       xlink:href="#R"
       inkscape:collect="always" />
    <linearGradient
       inkscape:collect="always"
       xlink:href="#b-6"
       id="linearGradient4688"
       gradientUnits="userSpaceOnUse"
       gradientTransform="scale(1.0975951,0.9110828)"
       x1="26.091133"
       y1="14.856744"
       x2="31.500689"
       y2="14.856744" />
    <linearGradient
       inkscape:collect="always"
       xlink:href="#Q"
       id="linearGradient4690"
       gradientUnits="userSpaceOnUse"
       x1="88.606247"
       y1="13.510336"
       x2="91.575104"
       y2="13.510336"
       spreadMethod="reflect" />
    <linearGradient
       inkscape:collect="always"
       xlink:href="#R"
       id="linearGradient4692"
       gradientUnits="userSpaceOnUse"
       x1="31.606251"
       y1="13.510336"
       x2="34.575108"
       y2="13.510336"
       spreadMethod="reflect" />
    <linearGradient
       inkscape:collect="always"
       xlink:href="#Q"
       id="linearGradient4694"
       gradientUnits="userSpaceOnUse"
       x1="88.606247"
       y1="13.510336"
       x2="91.575104"
       y2="13.510336"
       spreadMethod="reflect" />
  </defs>
  <sodipodi:namedview
     pagecolor="#ffffff"
     bordercolor="#666666"
     borderopacity="1"
     objecttolerance="10"
     gridtolerance="10"
     guidetolerance="10"
     inkscape:pageopacity="0"
     inkscape:pageshadow="2"
     inkscape:window-width="1366"
     inkscape:window-height="706"
     id="namedview92"
     showgrid="true"
     inkscape:zoom="9.5260414"
     inkscape:cx="-5.2088367"
     inkscape:cy="7.8926844"
     inkscape:window-x="0"
     inkscape:window-y="0"
     inkscape:window-maximized="1"
     inkscape:current-layer="svg90">
    <inkscape:grid
       type="xygrid"
       id="grid98" />
  </sodipodi:namedview>
  <filter
     id="a">
    <feGaussianBlur
       stdDeviation="1.04"
       id="feGaussianBlur2" />
  </filter>
  <filter
     id="b">
    <feGaussianBlur
       stdDeviation="2.8805897"
       id="feGaussianBlur5" />
  </filter>
  <filter
     id="c">
    <feGaussianBlur
       stdDeviation="1.5999062"
       id="feGaussianBlur8" />
  </filter>
  <linearGradient
     id="d"
     gradientTransform="matrix(0.08097133,0,0,0.117107,-1.25515,-48.3532)"
     gradientUnits="userSpaceOnUse"
     x1="399.77466"
     x2="399.77466"
     y1="731.09662"
     y2="480.60214">
    <stop
       offset="0"
       stop-color="#cbcbcd"
       id="stop11" />
    <stop
       offset=".5"
       stop-color="#e0e0e2"
       id="stop13" />
    <stop
       offset="1"
       stop-color="#f2f2f2"
       id="stop15" />
  </linearGradient>
  <linearGradient
     id="e"
     gradientTransform="matrix(0.08097133,0,0,0.117107,78.3735,188.5229)"
     gradientUnits="userSpaceOnUse"
     x1="-333.0289"
     x2="-333.0289"
     y1="-1473.6504"
     y2="-776.61371">
    <stop
       offset="0"
       stop-color="#fff"
       id="stop18" />
    <stop
       offset=".49140647"
       stop-color="#fff"
       id="stop20" />
    <stop
       offset="1"
       stop-color="#dcdcdc"
       id="stop22" />
  </linearGradient>
  <radialGradient
     id="f"
     cx="343.99899"
     cy="92"
     gradientTransform="matrix(.48644982 0 0 .48644947 -228.85723 -373.36508)"
     gradientUnits="userSpaceOnUse"
     r="36">
    <stop
       offset="0"
       stop-color="#e5ff00"
       id="stop25" />
    <stop
       offset="1"
       stop-color="#bff500"
       stop-opacity="0"
       id="stop27" />
  </radialGradient>
  <linearGradient
     id="g"
     gradientUnits="userSpaceOnUse"
     x1="328.12448"
     x2="336.98077"
     y1="120.81158"
     y2="87.759453">
    <stop
       offset="0"
       stop-color="#96ff00"
       id="stop30" />
    <stop
       offset="1"
       stop-color="#609800"
       id="stop32" />
  </linearGradient>
  <linearGradient
     id="h"
     gradientTransform="matrix(0 .49018718 -.49018752 0 79.769764 322.22969)"
     gradientUnits="userSpaceOnUse"
     x1="-80.00296"
     x2="-45.096584"
     y1="-131.93112"
     y2="-131.93112">
    <stop
       offset="0"
       stop-color="#fff"
       id="stop35" />
    <stop
       offset="1"
       stop-color="#fff"
       stop-opacity="0"
       id="stop37" />
  </linearGradient>
  <linearGradient
     id="i"
     gradientUnits="userSpaceOnUse"
     x1="122.00004"
     x2="122.00004"
     y1="61.999996"
     y2="9.932843">
    <stop
       offset="0"
       stop-color="#004d00"
       stop-opacity="0"
       id="stop40" />
    <stop
       offset=".5"
       stop-color="#004d00"
       id="stop42" />
    <stop
       offset="1"
       stop-color="#004d00"
       stop-opacity="0"
       id="stop44" />
  </linearGradient>
  <clipPath
     id="j">
    <circle
       cx="343.91208"
       cy="92.325096"
       r="36"
       transform="matrix(.86602539 .50000002 .49999965 -.86602561 0 0)"
       id="circle47" />
  </clipPath>
  <radialGradient
     id="k"
     cx="-55.685837"
     cy="-347.11612"
     gradientTransform="matrix(-.92598472 -.24811683 .26893091 -1.0036639 -15.263579 -707.47819)"
     gradientUnits="userSpaceOnUse"
     r="22.14249">
    <stop
       offset="0"
       stop-color="#82c133"
       id="stop50" />
    <stop
       offset="1"
       stop-color="#72b028"
       id="stop52" />
  </radialGradient>
  <filter
     id="l"
     color-interpolation-filters="sRGB"
     height="1.072142"
     width="1.071866"
     x="-.035933"
     y="-.036071">
    <feGaussianBlur
       stdDeviation=".66434216"
       id="feGaussianBlur55" />
  </filter>
  <g
     transform="matrix(0.25,0,0,0.25,2,-3)"
     id="g68">
    <path
       d="M -2.611641,15.99895 H 82.61164 c 0.76597,0 1.38261,0.72808 1.38261,1.63246 v 66.73718 c 0,0.90439 -0.61664,1.63247 -1.38261,1.63247 H -2.611641 c -0.765966,0 -1.38261,-0.72808 -1.38261,-1.63247 V 17.63141 c 0,-0.90438 0.616644,-1.63246 1.38261,-1.63246 z"
       style="opacity:0.4;fill:none;stroke:#000000;stroke-width:4;stroke-linecap:round;stroke-linejoin:round;stroke-dashoffset:4;filter:url(#c)"
       id="path58"
       inkscape:connector-curvature="0" />
    <path
       d="M -2.617195,16 H 82.61719 C 83.38326,16 84,16.72806 84,17.63242 V 84.36758 H -4.000003 V 17.63242 C -4.000003,16.72806 -3.383271,16 -2.617195,16 Z"
       id="path60"
       style="fill:url(#d)"
       inkscape:connector-curvature="0" />
    <path
       d="M 52.54186,30.93328 V 29.01192 Z"
       id="path62"
       inkscape:connector-curvature="0"
       style="fill:#ffffff;fill-opacity:0.756881" />
    <path
       d="M -2.625,16 C -3.391076,16 -4,16.72064 -4,17.625 v 66.75 C -4,85.27936 -3.391076,86 -2.625,86 h 85.25 C 83.39108,86 84,85.27936 84,84.375 V 17.625 C 84,16.72064 83.39108,16 82.625,16 Z m 0.9375,2.4375 h 83.375 c 0.72777,0 1.3125,0.68271 1.3125,1.53125 v 63.5 C 83,84.31729 82.41527,85 81.6875,85 H -1.6875 C -2.415272,85 -3,84.31729 -3,83.46875 v -63.5 c 0,-0.84854 0.584728,-1.53125 1.3125,-1.53125 z"
       id="path64"
       style="fill:url(#e)"
       inkscape:connector-curvature="0" />
    <path
       d="M -4,36 H 84 V 86 H -4 Z"
       id="path66"
       inkscape:connector-curvature="0"
       style="fill:#ffffff" />
    <rect
       style="opacity:1;fill:#cfcfd1;fill-opacity:1;stroke:none;stroke-width:4;stroke-miterlimit:4;stroke-dasharray:none;stroke-opacity:1"
       id="rect100"
       width="60"
       height="4"
       x="16"
       y="40" />
    <rect
       style="opacity:1;fill:#cfcfd1;fill-opacity:1;stroke:none;stroke-width:4;stroke-miterlimit:4;stroke-dasharray:none;stroke-opacity:1"
       id="rect102"
       width="60"
       height="4"
       x="16"
       y="52" />
    <rect
       style="opacity:1;fill:#cfcfd1;fill-opacity:1;stroke:none;stroke-width:4;stroke-miterlimit:4;stroke-dasharray:none;stroke-opacity:1"
       id="rect104"
       width="60"
       height="4"
       x="16"
       y="64" />
    <rect
       style="opacity:1;fill:#cfcfd1;fill-opacity:1;stroke:none;stroke-width:4;stroke-miterlimit:4;stroke-dasharray:none;stroke-opacity:1"
       id="rect106"
       width="60"
       height="4"
       x="16"
       y="76" />
    <rect
       style="opacity:1;fill:#cfcfd1;fill-opacity:1;stroke:none;stroke-width:4;stroke-miterlimit:4;stroke-dasharray:none;stroke-opacity:1"
       id="rect108"
       width="4"
       height="4"
       x="4"
       y="40" />
    <rect
       style="opacity:1;fill:#cfcfd1;fill-opacity:1;stroke:none;stroke-width:4;stroke-miterlimit:4;stroke-dasharray:none;stroke-opacity:1"
       id="rect110"
       width="4"
       height="4"
       x="4"
       y="52" />
    <rect
       style="opacity:1;fill:#cfcfd1;fill-opacity:1;stroke:none;stroke-width:4;stroke-miterlimit:4;stroke-dasharray:none;stroke-opacity:1"
       id="rect112"
       width="4"
       height="4"
       x="4"
       y="64" />
    <rect
       style="opacity:1;fill:#cfcfd1;fill-opacity:1;stroke:none;stroke-width:4;stroke-miterlimit:4;stroke-dasharray:none;stroke-opacity:1"
       id="rect114"
       width="4"
       height="4"
       x="4"
       y="76" />
  </g>
  <g
     transform="matrix(0.18750058,0,0,0.18750058,-0.01199867,-0.01866935)"
     id="g4378">
    <path
       style="fill:#1f5623;fill-opacity:0.90588199"
       inkscape:connector-curvature="0"
       d="m 125.7311,90.766045 c 5e-5,-1.656397 -1.34274,-2.99918 -2.99913,-2.999132 l -18.38328,-0.183095 0.0485,-18.151185 c 5e-5,-1.656396 -1.34274,-2.99918 -2.99913,-2.999132 l -10.617739,5e-6 c -1.656393,-4.8e-5 -2.999178,1.342735 -2.999131,2.999127 l -0.04848,18.151185 -18.333781,0.183099 c -1.656396,-4.8e-5 -2.99918,1.342735 -2.999132,2.999132 v 10.617741 c -4.8e-5,1.6564 1.342736,2.99918 2.999132,2.99913 l 18.333781,-0.1831 0.04908,18.56596 c -5e-5,1.6564 1.342736,2.99918 2.999132,2.99913 h 10.617738 c 1.65639,5e-5 2.99918,-1.34273 2.99913,-2.99913 l -0.0491,-18.56596 18.38328,0.18309 c 1.6564,5e-5 2.99918,-1.34274 2.99913,-2.99913 z"
       id="path4344" />
    <path
       style="fill:url(#J)"
       inkscape:connector-curvature="0"
       d="m 125.7311,90.766045 c 5e-5,-1.656397 -1.34274,-2.99918 -2.99913,-2.999132 l -18.38328,-0.183095 0.0485,-18.151185 c 5e-5,-1.656396 -1.34274,-2.99918 -2.99913,-2.999132 l -10.617739,5e-6 c -1.656393,-4.8e-5 -2.999178,1.342735 -2.999131,2.999127 l -0.04848,18.151185 -18.333781,0.183099 c -1.656396,-4.8e-5 -2.99918,1.342735 -2.999132,2.999132 v 10.617741 c -4.8e-5,1.6564 1.342736,2.99918 2.999132,2.99913 l 18.333781,-0.1831 0.04908,18.56596 c -5e-5,1.6564 1.342736,2.99918 2.999132,2.99913 h 10.617738 c 1.65639,5e-5 2.99918,-1.34273 2.99913,-2.99913 l -0.0491,-18.56596 18.38328,0.18309 c 1.6564,5e-5 2.99918,-1.34274 2.99913,-2.99913 z"
       id="path4346" />
    <path
       style="fill:#066704"
       inkscape:connector-curvature="0"
       d="m 125.7311,90.766045 c 5e-5,-1.656397 -1.34274,-2.99918 -2.99913,-2.999132 l -18.38328,-0.183095 0.0485,-18.151185 c 5e-5,-1.656396 -1.34274,-2.99918 -2.99913,-2.999132 l -10.617739,5e-6 c -1.656393,-4.8e-5 -2.999178,1.342735 -2.999131,2.999127 l -0.04848,18.151185 -18.333781,0.183099 c -1.656396,-4.8e-5 -2.99918,1.342735 -2.999132,2.999132 v 10.617741 c -4.8e-5,1.6564 1.342736,2.99918 2.999132,2.99913 l 18.333781,-0.1831 0.04908,18.56596 c -5e-5,1.6564 1.342736,2.99918 2.999132,2.99913 h 10.617738 c 1.65639,5e-5 2.99918,-1.34273 2.99913,-2.99913 l -0.0491,-18.56596 18.38328,0.18309 c 1.6564,5e-5 2.99918,-1.34274 2.99913,-2.99913 z"
       id="path4348" />
    <path
       style="fill:url(#L)"
       inkscape:connector-curvature="0"
       d="m 125.7311,90.766045 c 5e-5,-1.656397 -1.34274,-2.99918 -2.99913,-2.999132 l -18.38328,-0.183095 0.0485,-18.151185 c 5e-5,-1.656396 -1.34274,-2.99918 -2.99913,-2.999132 l -10.617739,5e-6 c -1.656393,-4.8e-5 -2.999178,1.342735 -2.999131,2.999127 l -0.04848,18.151185 -18.333781,0.183099 c -1.656396,-4.8e-5 -2.99918,1.342735 -2.999132,2.999132 v 10.617741 c -4.8e-5,1.6564 1.342736,2.99918 2.999132,2.99913 l 18.333781,-0.1831 0.04908,18.56596 c -5e-5,1.6564 1.342736,2.99918 2.999132,2.99913 h 10.617738 c 1.65639,5e-5 2.99918,-1.34273 2.99913,-2.99913 l -0.0491,-18.56596 18.38328,0.18309 c 1.6564,5e-5 2.99918,-1.34274 2.99913,-2.99913 z"
       id="path4350" />
    <path
       style="fill:url(#M)"
       inkscape:connector-curvature="0"
       d="m 125.7311,90.766045 c 5e-5,-1.656397 -1.34274,-2.99918 -2.99913,-2.999132 l -18.38328,-0.183095 0.0485,-18.151185 c 5e-5,-1.656396 -1.34274,-2.99918 -2.99913,-2.999132 l -10.617739,5e-6 c -1.656393,-4.8e-5 -2.999178,1.342735 -2.999131,2.999127 l -0.04848,18.151185 -18.333781,0.183099 c -1.656396,-4.8e-5 -2.99918,1.342735 -2.999132,2.999132 v 10.617741 c -4.8e-5,1.6564 1.342736,2.99918 2.999132,2.99913 l 18.333781,-0.1831 0.04908,18.56596 c -5e-5,1.6564 1.342736,2.99918 2.999132,2.99913 h 10.617738 c 1.65639,5e-5 2.99918,-1.34273 2.99913,-2.99913 l -0.0491,-18.56596 18.38328,0.18309 c 1.6564,5e-5 2.99918,-1.34274 2.99913,-2.99913 z"
       id="path4352" />
    <g
       style="fill-rule:evenodd"
       transform="translate(-0.164416)"
       id="g4370">
      <path
         style="opacity:0.498127;fill:url(#linearGradient4688);filter:url(#O)"
         inkscape:connector-curvature="0"
         d="m 31.7,16 2.875,-3.375 c -1.051205,-1.695758 -3.935136,-2.288018 -5.9375,-0.3125 l 2.8125,3.375 z"
         transform="matrix(-0.64954358,0.64954358,0.6557809,0.6557809,81.289533,61.297978)"
         id="path4354" />
      <path
         style="opacity:0.79026196;fill:url(#N);filter:url(#O)"
         inkscape:connector-curvature="0"
         d="m 31.7,16 2.875,-3.375 c -1.051205,-1.695758 -3.935136,-2.288018 -5.9375,-0.3125 l 2.8125,3.375 z"
         transform="matrix(-0.6476361,-0.6476361,0.64147625,-0.64147625,102.80882,152.77126)"
         id="path4356" />
      <path
         style="opacity:0.498127;fill:url(#P);filter:url(#O)"
         inkscape:connector-curvature="0"
         d="m 31.7,16 2.875,-3.375 c -1.051205,-1.695758 -3.935136,-2.288018 -5.9375,-0.3125 l 2.8125,3.375 z"
         transform="matrix(-0.58819378,0.58819378,-0.59384198,-0.59384198,128.42011,113.04167)"
         id="path4358" />
      <path
         style="opacity:0.79026196;fill:url(#linearGradient4690);filter:url(#O)"
         inkscape:connector-curvature="0"
         d="m 88.7,16 2.875,-3.375 c -1.051205,-1.695758 -3.935136,-2.288018 -5.9375,-0.3125 l 2.8125,3.375 z"
         transform="matrix(-0.59384198,-0.59384198,0.58819378,-0.58819378,113.74798,161.95621)"
         id="path4360" />
      <path
         style="opacity:0.79026196;fill:url(#linearGradient4692);filter:url(#O)"
         inkscape:connector-curvature="0"
         d="m 31.7,16 2.875,-3.375 c -1.051205,-1.695758 -3.935136,-2.288018 -5.9375,-0.3125 l 2.8125,3.375 z"
         transform="matrix(-0.54004786,-0.54004786,-0.53491131,0.53491131,147.78183,100.09653)"
         id="path4362" />
      <path
         style="opacity:0.79026196;fill:url(#linearGradient4694);filter:url(#O)"
         inkscape:connector-curvature="0"
         d="m 88.7,16 2.875,-3.375 c -1.051205,-1.695758 -3.935136,-2.288018 -5.9375,-0.3125 l 2.8125,3.375 z"
         transform="matrix(-0.55444337,-0.55444337,-0.5491699,0.5491699,158.58595,110.58603)"
         id="path4364" />
      <path
         style="opacity:0.79026196;fill:url(#linearGradient4528);filter:url(#O)"
         inkscape:connector-curvature="0"
         d="m 31.7,16 2.875,-3.375 c -1.051205,-1.695758 -3.935136,-2.288018 -5.9375,-0.3125 l 2.8125,3.375 z"
         transform="matrix(-0.54004786,0.54004786,-0.53491131,-0.53491131,147.68861,92.185302)"
         id="path4366" />
      <path
         style="opacity:0.79026196;fill:url(#linearGradient4526);filter:url(#O)"
         inkscape:connector-curvature="0"
         d="m 88.7,16 2.875,-3.375 c -1.051205,-1.695758 -3.935136,-2.288018 -5.9375,-0.3125 l 2.8125,3.375 z"
         transform="matrix(0.55444337,-0.55444337,0.5491699,0.5491699,34.12719,110.58603)"
         id="path4368" />
    </g>
    <path
       style="fill:url(#S)"
       inkscape:connector-curvature="0"
       d="m 122.73197,90.766045 -21.38241,-0.183095 0.0485,-21.150312 -10.617737,-5e-6 -0.04848,21.150317 -21.332913,0.183099 v 10.617741 l 21.332913,-0.1831 0.04908,21.56509 h 10.617737 l -0.0491,-21.56509 21.38241,0.18309 z"
       id="path4372" />
    <path
       style="fill:#eef4ca;fill-opacity:0.77941176;filter:url(#T)"
       inkscape:connector-curvature="0"
       d="m 101.39845,69.432725 -10.617961,-5e-6 -0.04848,21.150595 -21.33344,0.182664 v 10.617971 l 21.332838,-0.1831 0.04908,21.56501 h 10.617963 l -0.0491,-21.56501 21.38234,0.18308 -1e-5,-10.617951 -21.38233,-0.183095 z m -0.75422,0.754216 -0.0491,20.395773 c -4e-5,0.41656 0.33766,0.754256 0.75422,0.754217 l 20.62812,0.183095 v 9.109524 l -20.62812,-0.18309 c -0.41656,-4e-5 -0.75426,0.33766 -0.75422,0.75422 l 0.0491,20.8108 h -9.109526 l -0.04908,-20.8108 c 4e-5,-0.41656 -0.337657,-0.75426 -0.754216,-0.75422 l -20.578621,0.1831 V 91.520025 L 90.732,91.337362 c 0.416558,3.9e-5 0.754257,-0.337657 0.754216,-0.754216 l 0.04848,-20.396375 z"
       id="path4374" />
    <path
       style="fill:url(#U)"
       inkscape:connector-curvature="0"
       d="m 90.780548,69.432805 -0.04848,21.149226 -21.332673,0.183099 v 6.925781 c 5.787164,0.982213 10.225142,1.303218 16.244783,1.314948 13.882903,-0.01695 25.896292,-2.467983 37.087242,-7.338389 v -0.902344 l -21.38217,-0.183095 0.0485,-21.149226 z"
       id="path4376" />
  </g>
</svg>
