<?xml version="1.0" encoding="UTF-8" standalone="no"?>
<svg
   xmlns:dc="http://purl.org/dc/elements/1.1/"
   xmlns:cc="http://creativecommons.org/ns#"
   xmlns:rdf="http://www.w3.org/1999/02/22-rdf-syntax-ns#"
   xmlns:svg="http://www.w3.org/2000/svg"
   xmlns="http://www.w3.org/2000/svg"
   xmlns:xlink="http://www.w3.org/1999/xlink"
   xmlns:sodipodi="http://sodipodi.sourceforge.net/DTD/sodipodi-0.dtd"
   xmlns:inkscape="http://www.inkscape.org/namespaces/inkscape"
   inkscape:export-ydpi="96"
   inkscape:export-xdpi="96"
   inkscape:export-filename="/home/rizmut/Dokumen/Rizmut/Github/libreoffice-style-karasa-jaga/build/next/cmd/lc_insertscript.png"
   inkscape:output_extension="org.inkscape.output.svgz.inkscape"
   sodipodi:docname="lc_insertscript.svg"
   version="1.0"
   inkscape:version="1.0alpha (9dee831, 2019-01-15)"
   sodipodi:version="0.32"
   id="svg2606"
   height="24"
   width="24">
  <defs
     id="defs2608">
    <linearGradient
       id="linearGradient6131">
      <stop
         style="stop-color:#fcfcfc;stop-opacity:1"
         offset="0"
         id="stop6133" />
      <stop
         id="stop6135"
         offset="0.52275378"
         style="stop-color:#f8f8f8;stop-opacity:1" />
      <stop
         style="stop-color:#f0efef;stop-opacity:1;"
         offset="0.77457333"
         id="stop6141" />
      <stop
         style="stop-color:#e3e1e1;stop-opacity:1;"
         offset="0.90122044"
         id="stop6139" />
      <stop
         style="stop-color:#cecbcb;stop-opacity:1"
         offset="1"
         id="stop6137" />
    </linearGradient>
    <linearGradient
       y2="102.34375"
       x2="95.460213"
       y1="93.621468"
       x1="86.73793"
       gradientTransform="matrix(1.0119858,0,0,1.0119858,-0.89554075,-0.9871566)"
       gradientUnits="userSpaceOnUse"
       id="linearGradient3893"
       xlink:href="#linearGradient6131"
       inkscape:collect="always" />
    <radialGradient
       gradientUnits="userSpaceOnUse"
       gradientTransform="matrix(1.3067347,0,0,1.3067347,-27.83617,-33.818441)"
       r="18.750002"
       fy="110.25299"
       fx="90.75"
       cy="110.25299"
       cx="90.75"
       id="radialGradient3919-5"
       xlink:href="#linearGradient3913-5"
       inkscape:collect="always" />
    <linearGradient
       id="linearGradient3913-5"
       inkscape:collect="always">
      <stop
         id="stop3915-4"
         offset="0"
         style="stop-color:#ffffff;stop-opacity:1;" />
      <stop
         id="stop3917-7"
         offset="1"
         style="stop-color:#ffffff;stop-opacity:0;" />
    </linearGradient>
    <clipPath
       id="clipPath3889-6"
       clipPathUnits="userSpaceOnUse">
      <path
         style="fill:url(#linearGradient3893);fill-opacity:1;stroke:none"
         d="m 112,82.502986 c 0,4.465301 -2.79749,6.409952 -5.27972,8.093625 -5.10854,3.46508 -14.939114,3.32536 -20.720284,3.40638 -0.081,5.781159 0.16586,15.504599 -3.29922,20.613139 -1.68367,2.48224 -5.29051,5.38687 -8.20078,5.38687 2.31803,0 4.74284,-1.33476 7.58402,-4.08481 9.14197,-8.84873 17.36714,-16.13535 25.673154,-25.297529 C 109.67612,88.503916 112,86.97878 112,82.502986 Z"
         id="path3891-5"
         inkscape:connector-curvature="0"
         sodipodi:nodetypes="cscscssc" />
    </clipPath>
    <filter
       style="color-interpolation-filters:sRGB"
       id="filter3909-6"
       inkscape:collect="always">
      <feGaussianBlur
         id="feGaussianBlur3911-9"
         stdDeviation="0.43040059"
         inkscape:collect="always" />
    </filter>
    <linearGradient
       y2="102.18401"
       x2="94.220871"
       y1="90.381706"
       x1="82.15696"
       gradientTransform="matrix(1.4094273,0,0,1.4111689,-46.598939,-46.228314)"
       gradientUnits="userSpaceOnUse"
       id="linearGradient3895-3"
       xlink:href="#linearGradient3897-7"
       inkscape:collect="always" />
    <linearGradient
       id="linearGradient3897-7">
      <stop
         id="stop3899-4"
         offset="0"
         style="stop-color:#fcfcfc;stop-opacity:1" />
      <stop
         style="stop-color:#f8f8f8;stop-opacity:1"
         offset="0.52275378"
         id="stop3901-5" />
      <stop
         id="stop3903-2"
         offset="0.72337759"
         style="stop-color:#f0efef;stop-opacity:1;" />
      <stop
         id="stop3905-5"
         offset="0.89024991"
         style="stop-color:#e3e1e1;stop-opacity:1;" />
      <stop
         id="stop3907-4"
         offset="1"
         style="stop-color:#cecbcb;stop-opacity:1" />
    </linearGradient>
    <clipPath
       id="clipPath6093-7"
       clipPathUnits="userSpaceOnUse">
      <path
         style="fill:#ffffff;fill-opacity:1"
         d="m 17.000001,8 0.782827,110 h 57.5 c 1.675283,0 3.119418,0.18058 4.9,-1.6 C 88.980763,107.60206 99.94047,96.548195 107.19904,89.224043 109.6396,86.761431 110,84.752873 110,82.5 V 8 Z"
         id="path6095-4"
         sodipodi:nodetypes="cccssccc"
         inkscape:connector-curvature="0" />
    </clipPath>
    <radialGradient
       gradientUnits="userSpaceOnUse"
       gradientTransform="matrix(1.689423,-0.08280186,0.06907651,1.3515102,-50.111719,-17.641619)"
       r="47.5"
       fy="47.274845"
       fx="63.793392"
       cy="64.004021"
       cx="64"
       id="radialGradient5988-0"
       xlink:href="#linearGradient5982-7"
       inkscape:collect="always" />
    <linearGradient
       id="linearGradient5982-7"
       inkscape:collect="always">
      <stop
         id="stop5984-8"
         offset="0"
         style="stop-color:#ffffff;stop-opacity:1;" />
      <stop
         id="stop5986-6"
         offset="1"
         style="stop-color:#ffffff;stop-opacity:0;" />
    </linearGradient>
    <filter
       style="color-interpolation-filters:sRGB"
       height="2.0255013"
       y="-0.51275069"
       width="1.9574188"
       x="-0.47870937"
       id="filter6171-8"
       inkscape:collect="always">
      <feGaussianBlur
         id="feGaussianBlur6173-8"
         stdDeviation="10.140743"
         inkscape:collect="always" />
    </filter>
    <linearGradient
       gradientTransform="matrix(1.003095,0,0,0.98228452,-1.7655502,0.69098836)"
       gradientUnits="userSpaceOnUse"
       y2="116.40091"
       x2="72"
       y1="0"
       x1="72"
       id="linearGradient4524-4"
       xlink:href="#linearGradient4518-3"
       inkscape:collect="always" />
    <linearGradient
       id="linearGradient4518-3">
      <stop
         id="stop4520-1"
         offset="0"
         style="stop-color:#eeecec;stop-opacity:1" />
      <stop
         style="stop-color:#f4f4f4;stop-opacity:1"
         offset="0.40000001"
         id="stop5969-4" />
      <stop
         id="stop4522-9"
         offset="1"
         style="stop-color:#f6f5f5;stop-opacity:1" />
    </linearGradient>
    <filter
       id="filter4123"
       inkscape:collect="always">
      <feGaussianBlur
         id="feGaussianBlur4125"
         stdDeviation="2.028"
         inkscape:collect="always" />
    </filter>
    <filter
       height="1.408259"
       y="-0.2041295"
       width="1.3293014"
       x="-0.16465071"
       id="filter4087"
       inkscape:collect="always">
      <feGaussianBlur
         id="feGaussianBlur4089"
         stdDeviation="4.2234282"
         inkscape:collect="always" />
    </filter>
    <filter
       id="filter3814"
       inkscape:collect="always">
      <feGaussianBlur
         id="feGaussianBlur3816"
         stdDeviation="1.8077645"
         inkscape:collect="always" />
    </filter>
    <linearGradient
       inkscape:collect="always"
       xlink:href="#linearGradient3206"
       id="linearGradient2437"
       gradientUnits="userSpaceOnUse"
       gradientTransform="translate(-1.6391443,97.31126)"
       x1="85.455536"
       y1="62.643799"
       x2="110.38672"
       y2="62.643799" />
    <linearGradient
       inkscape:collect="always"
       xlink:href="#linearGradient3206"
       id="linearGradient2435"
       gradientUnits="userSpaceOnUse"
       gradientTransform="translate(-1.8036355,9.1854657)"
       x1="85.455536"
       y1="62.643799"
       x2="110.38672"
       y2="62.643799" />
    <linearGradient
       inkscape:collect="always"
       xlink:href="#linearGradient3206"
       id="linearGradient2433"
       gradientUnits="userSpaceOnUse"
       gradientTransform="translate(-1.8036355,-1.2331399)"
       x1="85.455536"
       y1="62.643799"
       x2="110.38672"
       y2="62.643799" />
    <linearGradient
       id="linearGradient3206"
       inkscape:collect="always">
      <stop
         id="stop2466"
         offset="0"
         style="stop-color:#000000;stop-opacity:1;" />
      <stop
         id="stop2468"
         offset="1"
         style="stop-color:#000000;stop-opacity:0;" />
    </linearGradient>
    <linearGradient
       y2="62.643799"
       x2="110.38672"
       y1="62.643799"
       x1="85.455536"
       gradientTransform="translate(-3.75e-8,0.01464844)"
       gradientUnits="userSpaceOnUse"
       id="linearGradient5730"
       xlink:href="#linearGradient3206"
       inkscape:collect="always" />
    <filter
       id="filter3542"
       inkscape:collect="always">
      <feGaussianBlur
         id="feGaussianBlur3544"
         stdDeviation="1.56"
         inkscape:collect="always" />
    </filter>
    <radialGradient
       gradientUnits="userSpaceOnUse"
       r="136.00369"
       cy="-31"
       cx="52"
       id="radialGradient9766">
      <stop
         id="stop9768"
         style="stop-color:#8e8e8e;stop-opacity:1;"
         offset="0" />
      <stop
         offset="0.5"
         style="stop-color:#ababab;stop-opacity:1;"
         id="stop9774" />
      <stop
         id="stop9772"
         style="stop-color:#9d9d9d;stop-opacity:1;"
         offset="1" />
    </radialGradient>
    <radialGradient
       id="radialGradient5295"
       cx="52"
       cy="-31"
       r="136.00369"
       gradientUnits="userSpaceOnUse">
      <stop
         offset="0"
         style="stop-color:#c6c6c6;stop-opacity:1;"
         id="stop5297" />
      <stop
         offset="0.52140325"
         style="stop-color:#EEEEEE"
         id="stop5299" />
      <stop
         offset="1"
         style="stop-color:#c6c6c6;stop-opacity:1;"
         id="stop5301" />
    </radialGradient>
    <linearGradient
       y2="53.655067"
       x2="106.55763"
       y1="24.324116"
       x1="9"
       gradientUnits="userSpaceOnUse"
       id="XMLID_94_">
      <stop
         id="stop35"
         style="stop-color:#555753"
         offset="0" />
      <stop
         id="stop37"
         style="stop-color:#2E2E2E"
         offset="0.6272" />
      <stop
         id="stop39"
         style="stop-color:#2E2E2E"
         offset="1" />
    </linearGradient>
    <linearGradient
       y2="20"
       x2="24"
       y1="40"
       x1="24"
       gradientUnits="userSpaceOnUse"
       id="XMLID_95_">
      <stop
         id="stop2329"
         style="stop-color:#FFFFFF"
         offset="0.5" />
      <stop
         id="stop2331"
         style="stop-color:#EEEEEC"
         offset="1" />
    </linearGradient>
    <linearGradient
       y2="40"
       x2="44"
       y1="44"
       x1="44"
       gradientUnits="userSpaceOnUse"
       id="XMLID_96_">
      <stop
         id="stop4344"
         style="stop-color:#FFFFFF"
         offset="0.5" />
      <stop
         id="stop4346"
         style="stop-color:#EEEEEC"
         offset="1" />
    </linearGradient>
    <radialGradient
       gradientUnits="userSpaceOnUse"
       r="139.55859"
       cy="112.3047"
       cx="102"
       id="XMLID_8_">
      <stop
         id="stop41"
         style="stop-color:#b7b8b9;stop-opacity:1;"
         offset="0" />
      <stop
         id="stop47"
         style="stop-color:#ECECEC"
         offset="0.18851049" />
      <stop
         id="stop49"
         style="stop-color:#FAFAFA"
         offset="0.25718147" />
      <stop
         id="stop51"
         style="stop-color:#FFFFFF"
         offset="0.30111277" />
      <stop
         id="stop53"
         style="stop-color:#FAFAFA"
         offset="0.5313" />
      <stop
         id="stop55"
         style="stop-color:#EBECEC"
         offset="0.8449" />
      <stop
         id="stop57"
         style="stop-color:#E1E2E3"
         offset="1" />
    </radialGradient>
    <clipPath
       id="clipPath7084"
       clipPathUnits="userSpaceOnUse">
      <path
         inkscape:connector-curvature="0"
         id="path7086"
         d="M 72,88 40,120 H 32 V 80 h 40 z"
         style="fill:#000000;fill-opacity:1;fill-rule:evenodd;stroke:none;stroke-width:1px;stroke-linecap:butt;stroke-linejoin:miter;stroke-opacity:1" />
    </clipPath>
    <linearGradient
       id="linearGradient10207">
      <stop
         id="stop10209"
         offset="0"
         style="stop-color:#a2a2a2;stop-opacity:1;" />
      <stop
         id="stop10211"
         offset="1"
         style="stop-color:#ffffff;stop-opacity:1;" />
    </linearGradient>
    <linearGradient
       y2="62.643799"
       x2="110.38672"
       y1="62.643799"
       x1="85.455536"
       gradientTransform="translate(-3.75e-8,8.0146484)"
       gradientUnits="userSpaceOnUse"
       id="linearGradient5537"
       xlink:href="#linearGradient3206"
       inkscape:collect="always" />
    <linearGradient
       y2="62.643799"
       x2="110.38672"
       y1="62.643799"
       x1="85.455536"
       gradientTransform="translate(-3.75e-8,96.01465)"
       gradientUnits="userSpaceOnUse"
       id="linearGradient5543"
       xlink:href="#linearGradient3206"
       inkscape:collect="always" />
    <linearGradient
       gradientTransform="matrix(1,0,0,-1,-281.9995,-305)"
       y2="-363.99991"
       x2="392.9447"
       y1="-369.5"
       x1="398.44479"
       gradientUnits="userSpaceOnUse"
       id="path101_1_">
      <stop
         id="stop74"
         style="stop-color:#888A85"
         offset="0" />
      <stop
         id="stop4208"
         style="stop-color:#8C8E89"
         offset="0.0072" />
      <stop
         id="stop4210"
         style="stop-color:#ABACA9"
         offset="0.0673" />
      <stop
         id="stop80"
         style="stop-color:#C5C6C4"
         offset="0.1347" />
      <stop
         id="stop82"
         style="stop-color:#DBDBDA"
         offset="0.2115" />
      <stop
         id="stop84"
         style="stop-color:#EBEBEB"
         offset="0.3012" />
      <stop
         id="stop86"
         style="stop-color:#F7F7F6"
         offset="0.4122" />
      <stop
         id="stop88"
         style="stop-color:#FDFDFD"
         offset="0.5679" />
      <stop
         id="stop90"
         style="stop-color:#FFFFFF"
         offset="1" />
    </linearGradient>
    <radialGradient
       gradientUnits="userSpaceOnUse"
       gradientTransform="matrix(1,0,0,-1,-281.9995,-305)"
       r="94.664803"
       cy="-375.27051"
       cx="402.76709"
       id="path59_1_">
      <stop
         id="stop38"
         style="stop-color:#535557"
         offset="0" />
      <stop
         id="stop40"
         style="stop-color:#898A8C"
         offset="0.07095145" />
      <stop
         id="stop42"
         style="stop-color:#ECECEC"
         offset="0.203" />
      <stop
         id="stop44"
         style="stop-color:#FAFAFA"
         offset="0.2363" />
      <stop
         id="stop46"
         style="stop-color:#FFFFFF"
         offset="0.2722" />
      <stop
         id="stop48"
         style="stop-color:#FAFAFA"
         offset="0.5313" />
      <stop
         id="stop50"
         style="stop-color:#EBECEC"
         offset="0.8449" />
      <stop
         id="stop52"
         style="stop-color:#E1E2E3"
         offset="1" />
    </radialGradient>
    <linearGradient
       y2="62.643799"
       x2="110.38672"
       y1="62.643799"
       x1="85.455536"
       gradientTransform="translate(-1.8036355,-1.2331399)"
       gradientUnits="userSpaceOnUse"
       id="linearGradient3326"
       xlink:href="#linearGradient3206"
       inkscape:collect="always" />
    <linearGradient
       y2="62.643799"
       x2="110.38672"
       y1="62.643799"
       x1="85.455536"
       gradientTransform="translate(-1.8036355,9.1854657)"
       gradientUnits="userSpaceOnUse"
       id="linearGradient3328"
       xlink:href="#linearGradient3206"
       inkscape:collect="always" />
    <linearGradient
       y2="62.643799"
       x2="110.38672"
       y1="62.643799"
       x1="85.455536"
       gradientTransform="translate(-1.6391443,97.31126)"
       gradientUnits="userSpaceOnUse"
       id="linearGradient3330"
       xlink:href="#linearGradient3206"
       inkscape:collect="always" />
    <linearGradient
       y2="53.655067"
       x2="106.55763"
       y1="24.324116"
       x1="9"
       gradientTransform="matrix(0.9867021,0,0,1,1.61969,0)"
       gradientUnits="userSpaceOnUse"
       id="linearGradient3362"
       xlink:href="#XMLID_94_"
       inkscape:collect="always" />
    <linearGradient
       y2="62.643799"
       x2="110.38672"
       y1="62.643799"
       x1="85.455536"
       gradientTransform="translate(-1.8036355,-1.2331399)"
       gradientUnits="userSpaceOnUse"
       id="linearGradient3368"
       xlink:href="#linearGradient3206"
       inkscape:collect="always" />
    <linearGradient
       y2="62.643799"
       x2="110.38672"
       y1="62.643799"
       x1="85.455536"
       gradientTransform="translate(-1.8036355,9.1854657)"
       gradientUnits="userSpaceOnUse"
       id="linearGradient3370"
       xlink:href="#linearGradient3206"
       inkscape:collect="always" />
    <linearGradient
       y2="62.643799"
       x2="110.38672"
       y1="62.643799"
       x1="85.455536"
       gradientTransform="translate(-1.6391443,97.31126)"
       gradientUnits="userSpaceOnUse"
       id="linearGradient3372"
       xlink:href="#linearGradient3206"
       inkscape:collect="always" />
    <linearGradient
       y2="62.643799"
       x2="110.38672"
       y1="62.643799"
       x1="85.455536"
       gradientTransform="matrix(0.5899621,0,0,0.5899621,-105.98427,53.645916)"
       gradientUnits="userSpaceOnUse"
       id="linearGradient3376"
       xlink:href="#linearGradient3206"
       inkscape:collect="always" />
    <linearGradient
       y2="62.643799"
       x2="110.38672"
       y1="62.643799"
       x1="85.455536"
       gradientTransform="matrix(0.5899621,0,0,0.5899621,-106.08132,1.6550376)"
       gradientUnits="userSpaceOnUse"
       id="linearGradient3380"
       xlink:href="#linearGradient3206"
       inkscape:collect="always" />
    <linearGradient
       y2="62.643799"
       x2="110.38672"
       y1="62.643799"
       x1="85.455536"
       gradientTransform="matrix(0.5899621,0,0,0.5899621,-106.08132,-4.4915448)"
       gradientUnits="userSpaceOnUse"
       id="linearGradient3384"
       xlink:href="#linearGradient3206"
       inkscape:collect="always" />
    <linearGradient
       y2="40"
       x2="44"
       y1="44"
       x1="44"
       gradientTransform="matrix(1.0528457,0,0,0.72097847,9.9414281,32.453874)"
       gradientUnits="userSpaceOnUse"
       id="linearGradient3387"
       xlink:href="#XMLID_96_"
       inkscape:collect="always" />
    <linearGradient
       y2="20"
       x2="24"
       y1="40"
       x1="24"
       gradientTransform="matrix(1.2133439,0,0,1.2112438,13.307679,13.42004)"
       gradientUnits="userSpaceOnUse"
       id="linearGradient3390"
       xlink:href="#XMLID_95_"
       inkscape:collect="always" />
    <linearGradient
       y2="64"
       x2="120"
       y1="40.665478"
       x1="8"
       gradientTransform="matrix(0.68887277,0,0,0.68204965,19.90459,14.48444)"
       gradientUnits="userSpaceOnUse"
       id="linearGradient3401"
       xlink:href="#radialGradient5295"
       inkscape:collect="always" />
    <linearGradient
       y2="114.55814"
       x2="94.190605"
       y1="21.220039"
       x1="45.123108"
       gradientTransform="matrix(0.72714354,0,0,0.72467785,17.455251,11.756238)"
       gradientUnits="userSpaceOnUse"
       id="linearGradient3404"
       xlink:href="#radialGradient9766"
       inkscape:collect="always" />
    <clipPath
       id="clipPath3455"
       clipPathUnits="userSpaceOnUse">
      <path
         style="fill:#ffffff;fill-opacity:1"
         d="M 11.608716,5.836076 V 122.16698 h 49.485099 c 1.680486,0 3.926459,-0.55989 7.021752,-3.56934 8.897609,-8.6509 32.175353,-31.250103 39.456483,-38.511869 2.44813,-2.441635 3.01026,-4.433083 3.01026,-6.66676 l -0.003,-67.582935 z"
         id="path3457"
         sodipodi:nodetypes="cccssccc"
         inkscape:connector-curvature="0" />
    </clipPath>
  </defs>
  <sodipodi:namedview
     inkscape:document-rotation="0"
     inkscape:snap-page="true"
     inkscape:window-maximized="1"
     inkscape:snap-global="true"
     inkscape:window-y="28"
     inkscape:window-x="0"
     inkscape:window-height="714"
     inkscape:window-width="1366"
     inkscape:guide-bbox="true"
     showguides="false"
     inkscape:grid-points="true"
     showgrid="true"
     height="128px"
     width="128px"
     inkscape:current-layer="g1026"
     inkscape:document-units="px"
     inkscape:cy="8.1359831"
     inkscape:cx="19.993905"
     inkscape:zoom="11.313708"
     inkscape:pageshadow="2"
     inkscape:pageopacity="0.0"
     borderopacity="1.0"
     bordercolor="#666666"
     pagecolor="#ffffff"
     id="base">
    <inkscape:grid
       snapvisiblegridlinesonly="true"
       enabled="true"
       visible="true"
       empspacing="2"
       empopacity="0.4"
       opacity="0.2"
       empcolor="#0000ff"
       color="#0000ff"
       spacingy="0.5"
       spacingx="0.5"
       originy="0"
       originx="0"
       type="xygrid"
       id="GridFromPre046Settings" />
    <sodipodi:guide
       inkscape:locked="false"
       id="guide4564"
       position="-68,29.325902"
       orientation="1,0" />
    <sodipodi:guide
       inkscape:locked="false"
       id="guide3859"
       position="-121.62237,135.0574"
       orientation="1,0" />
    <sodipodi:guide
       inkscape:locked="false"
       id="guide4360"
       position="38.581514,-74.688154"
       orientation="0,1" />
  </sodipodi:namedview>
  <metadata
     id="metadata2611">
    <rdf:RDF>
      <cc:Work
         rdf:about="">
        <dc:format>image/svg+xml</dc:format>
        <dc:type
           rdf:resource="http://purl.org/dc/dcmitype/StillImage" />
        <dc:title />
      </cc:Work>
    </rdf:RDF>
  </metadata>
  <g
     transform="translate(0,-104)"
     id="layer1"
     inkscape:groupmode="layer"
     inkscape:label="Livello 1">
    <g
       transform="matrix(0.171875,0,0,0.171875,2.0003095,106)"
       id="g1026">
      <path
         style="opacity:0.456067;fill:#000000;fill-opacity:1;filter:url(#filter4123)"
         d="m 7.5585371,-6.5280421 0,130.2099521 L 63.1875,123.6 c 2.115554,-0.003 4.528919,-1.77169 7,-4.25 0.71234,-0.71442 1.440746,-1.39395 2.15625,-2.09375 0.415612,-0.40649 0.832187,-0.81443 1.25,-1.21875 7.773958,-7.40962 26.98341,-25.122599 34.21875,-33.099999 0.42065,-0.42064 0.81207,-0.8111 1.15625,-1.1875 1.46444,-1.49766 2.76158,-2.8378 2.99375,-5.8625 L 112,75.156251 111.9972,-6.5431479 Z"
         id="path5990"
         inkscape:connector-curvature="0"
         sodipodi:nodetypes="ccsssccccccc"
         transform="matrix(1.003095,0,0,0.98228452,-1.7655506,0.69098557)" />
      <path
         sodipodi:nodetypes="cccccccccsccccccccccccsccccc"
         inkscape:connector-curvature="0"
         id="path3314"
         d="m 7.5692871,-8.3605359 0.09766,0.00391 c -0.116561,-0.011043 -0.234998,-0.011044 -0.351562,0 -0.038713,0.00368 -0.077187,0.00954 -0.115235,0.017578 -0.884985,0.1872727 -1.47381,0.9176866 -1.470703,1.8222656 l 0,130.1881423 c -5.03e-5,0.006 -5.03e-5,0.0117 0,0.0176 0.01849,1.02971 0.790762,1.80366 1.820313,1.82226 0.00651,6e-5 0.01302,6e-5 0.01953,0 l 54.5869629,-0.0151 c 1.665878,-4.6e-4 4.036021,0.24848 7.107422,-1.83203 0.114412,-0.0774 0.212059,-0.17702 0.287109,-0.29297 -0.05475,0.0809 -0.07562,0.0982 -0.03125,0.0586 0.0578,-0.0515 0.151363,-0.13059 0.261719,-0.22071 0.220712,-0.18022 0.508961,-0.40573 0.773438,-0.61328 0.264476,-0.20754 0.497588,-0.39062 0.658203,-0.52539 0.04015,-0.0337 0.07576,-0.0627 0.121093,-0.10547 0.02267,-0.0214 0.04603,-0.0428 0.0918,-0.0957 0.02288,-0.0265 0.05118,-0.0588 0.09766,-0.13281 0.0096,-0.0152 0.01965,-0.0375 0.03516,-0.0684 9.781586,-9.33524 27.455859,-28.656496 38.511713,-39.847658 l 0.004,-0.0039 c 1.71036,-1.710501 3.76562,-3.869783 3.76562,-8.503906 l 0,-79.8482939 c 6e-5,-0.00651 6e-5,-0.013021 0,-0.019531 -0.0186,-1.0295278 -0.79071,-1.8017087 -1.82031,-1.8203126 -0.007,-6.16e-5 -0.013,-6.16e-5 -0.0195,0 z"
         style="fill:#000000;fill-opacity:1;filter:url(#filter3814)"
         transform="matrix(1.003095,0,0,0.98228452,-1.7655506,0.69098557)" />
      <path
         style="fill:#ffffff;fill-opacity:1"
         d="m 5.8163811,-5.8181818 0,128.0000018 55.2774339,-0.0148 c 1.680486,0 3.926459,-0.55989 7.021752,-3.56934 8.897609,-8.6509 32.175353,-31.250103 39.456483,-38.511869 2.44813,-2.441635 3.01026,-4.433083 3.01026,-6.66676 l -0.003,-79.252031 z"
         id="path34"
         sodipodi:nodetypes="cccssccc"
         inkscape:connector-curvature="0" />
      <path
         style="fill:url(#linearGradient4524-4);fill-opacity:1"
         d="m 17.07938,-0.92474702 c -0.340895,0 -0.501546,0.230461 -0.501546,0.491142 l 0,116.21887502 c 0,0.80702 0.681425,1.474 1.504643,1.47343 l 44.496615,-0.0308 c 0.05324,-4e-5 0.812893,0.0229 1.504643,0.0308 1.783165,-0.0393 3.141667,-0.74038 4.369516,-1.56504 1.055122,-0.28588 25.815399,-23.810974 34.964739,-32.837827 1.36662,-1.348301 2.19223,-3.878226 2.19223,-4.808882 l 0,-78.48055602 c 0,-0.317 -0.16372,-0.491143 -0.50156,-0.491143 z"
         id="path3967"
         inkscape:connector-curvature="0"
         sodipodi:nodetypes="ccsssccscccc" />
      <path
         sodipodi:nodetypes="ccssscccccc"
         inkscape:connector-curvature="0"
         id="path5980"
         d="m 17.07938,-0.92474702 c -0.340895,0 -0.501546,0.230461 -0.501546,0.491142 l 0,116.21887502 c 0,0.80703 0.68144,1.46853 1.504643,1.47343 l 46.36344,0.27591 c 0.05324,3.2e-4 3.284015,-0.008 3.975766,5e-5 6.561216,-4.42387 26.757215,-26.379267 35.730127,-35.221607 0.65937,-0.724227 0.45902,-0.363513 1.45841,-1.578984 l 0,-81.16767402 c 0,-0.317 -0.16372,-0.491143 -0.50156,-0.491143 z"
         style="opacity:0.846535;fill:url(#radialGradient5988-0);fill-opacity:1" />
      <g
         id="g3433"
         clip-path="url(#clipPath3455)">
        <g
           style="opacity:0.6;fill:#000000;fill-opacity:1;filter:url(#filter3542)"
           id="g4493"
           transform="matrix(0.72714354,0,0,0.74599173,28.362409,23.351093)">
          <radialGradient
             id="radialGradient4495"
             cx="52"
             cy="-31"
             r="136.00369"
             gradientUnits="userSpaceOnUse">
            <stop
               offset="0"
               style="stop-color:#BBBBBB"
               id="stop4497" />
            <stop
               offset="0.3077"
               style="stop-color:#EEEEEE"
               id="stop4499" />
            <stop
               offset="0.7811"
               style="stop-color:#BBBBBB"
               id="stop4501" />
            <stop
               offset="1"
               style="stop-color:#DBDBDB"
               id="stop4503" />
          </radialGradient>
          <path
             d="M -3.9999997,-6.2999997e-6 C -5.6499996,-6.2999997e-6 -6.9999996,1.3499937 -6.9999996,2.9999936 V 92.999994 c 0,1.65 1.35,3 2.9999999,3 H 102 c 1.65,0 3,-1.35 3,-3 V 2.9999936 C 105,1.3499937 103.65,-6.2999997e-6 102,-6.2999997e-6 Z"
             id="path4505"
             style="fill:#000000;fill-opacity:1"
             inkscape:connector-curvature="0" />
        </g>
        <g
           id="g3413">
          <path
             inkscape:connector-curvature="0"
             style="fill:url(#linearGradient3404);fill-opacity:1"
             id="path19"
             d="m 25.453829,23.351086 c -1.199788,0 -2.181429,0.978314 -2.181429,2.174033 v 65.220995 c 0,1.195709 0.981641,2.174035 2.181429,2.174035 h 77.077221 c 1.19979,0 2.18143,-0.978326 2.18143,-2.174035 V 25.525119 c 0,-1.195719 -0.98164,-2.174033 -2.18143,-2.174033 z" />
          <path
             inkscape:connector-curvature="0"
             d="m 27.48219,25.397234 c -1.136639,0 -2.066617,0.920768 -2.066617,2.04615 v 61.384455 c 0,1.125381 0.929978,2.046158 2.066617,2.046158 h 73.02053 c 1.13663,0 2.06661,-0.920777 2.06661,-2.046158 V 27.443384 c 0,-1.125382 -0.92998,-2.04615 -2.06661,-2.04615 z"
             id="path9762"
             style="fill:url(#linearGradient3401);fill-opacity:1" />
          <rect
             x="23.272409"
             y="34.921974"
             width="81.440071"
             height="46.604069"
             id="rect30" />
          <g
             id="g32"
             transform="matrix(0.83184647,0,0,0.61455912,16.681178,31.183403)">
            <linearGradient
               id="linearGradient3040"
               gradientUnits="userSpaceOnUse"
               x1="55.9995"
               y1="7"
               x2="55.9995"
               y2="83">
              <stop
                 offset="0"
                 style="stop-color:#555753"
                 id="stop3042" />
              <stop
                 offset="0.6272"
                 style="stop-color:#2E2E2E"
                 id="stop3044" />
              <stop
                 offset="1"
                 style="stop-color:#2E2E2E"
                 id="stop3046" />
            </linearGradient>
            <path
               inkscape:connector-curvature="0"
               d="m 103.25,76 c 0,1.65 -1.33204,3 -2.9601,3 H 13.460115 c -1.628058,0 -2.960106,-1.35 -2.960106,-3 V 12 c 0,-1.65 1.332048,-3 2.960106,-3 H 100.2899 c 1.62806,0 2.9601,1.35 2.9601,3 z"
               id="path41"
               style="fill:url(#linearGradient3362)" />
          </g>
          <path
             inkscape:connector-curvature="0"
             d="M 23.272405,57.796064 C 56.730412,44.280979 88.922633,41.141674 104.71248,40.454451 v -4.41218 H 23.272405 Z"
             id="path43"
             style="opacity:0.1;fill:#ffffff" />
          <path
             inkscape:connector-curvature="0"
             d="M 45.663516,51.487708 32.721182,58.4091 v -3.460695 l 9.706751,-5.191048 -9.706751,-5.191045 v -3.460696 l 12.942334,6.921393 z"
             id="path50"
             style="fill:url(#linearGradient3390)"
             sodipodi:nodetypes="cccccccc" />
          <path
             inkscape:connector-curvature="0"
             d="M 64.68941,64.176928 H 47.843878 V 61.293016 H 64.68941 Z"
             id="path57"
             style="opacity:0.9;fill:url(#linearGradient3387)" />
        </g>
      </g>
      <path
         clip-path="url(#clipPath6093-7)"
         style="opacity:0.605634;fill:#000000;fill-opacity:1;stroke:none;filter:url(#filter6171-8)"
         d="m 114.4,82.502986 c 0,4.465301 -9.3766,4.299815 -11.85883,5.983488 -5.108537,3.46508 -16.574334,-0.810699 -22.355504,-0.729679 -0.081,5.781159 0.365076,18.386735 0.365076,24.536755 0,2.97817 -3.440475,11.20945 -6.350745,11.20945 -2.091359,1.5337 3.488204,8.21101 6.734971,5.31989 9.501888,-8.46107 35.131682,-30.022701 43.350822,-39.262886 2.04044,-2.29392 -4.90514,-9.844666 -9.88579,-7.057018 z"
         id="path6153"
         inkscape:connector-curvature="0"
         sodipodi:nodetypes="cscscssc"
         transform="matrix(1.258302,0,0,1.2610357,-31.355772,-28.164007)" />
      <path
         sodipodi:nodetypes="cscscssc"
         inkscape:connector-curvature="0"
         id="path6081"
         d="m 113.9,82.502986 c 0,4.465301 -7.96273,7.457662 -10.95287,7.881439 -6.394981,0.906328 -15.304541,-0.844131 -21.085711,-0.763111 -0.081,5.781159 3.397918,20.001056 -0.06716,25.109596 -1.68367,2.48224 -3.883991,8.07209 -6.794261,8.07209 -2.091359,1.5337 3.488204,11.21101 6.734971,8.31989 9.501888,-8.46107 45.998941,-30.20138 54.218081,-39.441569 2.04044,-2.29392 -17.0724,-11.965986 -22.05305,-9.178335 z"
         style="opacity:0.643192;fill:#000000;fill-opacity:1;stroke:none;filter:url(#filter4087)"
         clip-path="url(#clipPath6093-7)"
         transform="matrix(1.3586765,0,0,1.3616521,-42.382653,-40.155635)" />
      <path
         style="fill:url(#linearGradient3895-3);fill-opacity:1;stroke:none"
         d="m 110.63455,70.194961 c 0,6.22666 -3.89615,8.938389 -7.35324,11.28619 -7.11485,4.831902 -21.758838,3.808851 -29.810472,3.92183 -0.112812,8.061568 0.720236,21.530529 -4.105701,28.654139 -2.344905,3.46138 -6.904898,8.42993 -10.95813,8.42993 3.228399,0 6.605514,-1.86127 10.562523,-5.69609 12.732335,-12.33915 24.187814,-22.50002 35.75589,-35.27627 2.67259,-2.951702 5.90913,-5.078441 5.90913,-11.319729 z"
         id="path6011"
         inkscape:connector-curvature="0"
         sodipodi:nodetypes="cscscssc" />
      <path
         style="fill:#ffffff;fill-opacity:1;stroke:none"
         d="m 110.66063,69.760596 c -0.44065,5.437134 -4.51314,7.338042 -6.73057,8.843942 -5.25734,3.570397 -12.241076,3.279514 -34.154353,3.279514 0,19.761338 0.513212,28.553598 -3.305002,33.382518 -2.272989,2.87466 -6.824021,6.07997 -10.532933,6.90254 5.082113,0 8.629228,-1.08751 11.949253,-4.30502 0.472301,-0.5418 1.415698,-1.55003 2.15657,-2.69493 3.94064,-5.81684 3.837814,-17.294735 3.837814,-29.263474 8.051633,-0.11295 22.202451,1.162156 29.317291,-3.669742 0.64822,-0.440215 2.63774,-2.020759 3.2183,-2.58944 3.22475,-3.158721 3.92397,-5.17219 4.24363,-9.885908 z M 55.937772,122.16911 c -0.219575,0.0485 -0.436533,0.0579 -0.652846,0.087 0.218648,-0.0234 0.432367,-0.0468 0.652846,-0.087 z"
         id="path6122"
         inkscape:connector-curvature="0"
         sodipodi:nodetypes="cscsccccsscccc" />
      <path
         style="fill:none;stroke:url(#radialGradient3919-5);stroke-width:1.82707;stroke-linecap:butt;stroke-linejoin:miter;stroke-miterlimit:4;stroke-dasharray:none;stroke-opacity:1;filter:url(#filter3909-6)"
         d="M 108.97651,89.508691 79.934895,118.21077"
         id="path3873"
         inkscape:connector-curvature="0"
         sodipodi:nodetypes="cc"
         clip-path="url(#clipPath3889-6)"
         transform="matrix(1.3927341,0,0,1.3944553,-45.351691,-44.851769)" />
      <rect
         y="-54.057953"
         x="62.225368"
         height="0"
         width="1"
         id="rect1327"
         style="opacity:0.57786889;fill:#ffffff;fill-opacity:1;fill-rule:nonzero;stroke:none" />
      <g
         id="g4640"
         transform="matrix(-0.782995,0,0,0.650879,-2419.5706,559.24364)"
         style="opacity:0.40163933" />
      <g
         style="opacity:0.40163933"
         transform="matrix(-0.782995,0,0,0.650879,-2419.5706,559.24364)"
         id="g4646" />
      <g
         style="opacity:0.40163933"
         transform="matrix(1,0,0,0.650879,781.39237,566.57144)"
         id="g4730" />
      <g
         id="g4748"
         transform="matrix(1,0,0,0.650879,781.39237,566.57144)"
         style="opacity:0.40163933" />
    </g>
  </g>
</svg>
