<?xml version="1.0" encoding="UTF-8" standalone="no"?>
<!-- Created with Inkscape (http://www.inkscape.org/) -->

<svg
   xmlns:dc="http://purl.org/dc/elements/1.1/"
   xmlns:cc="http://creativecommons.org/ns#"
   xmlns:rdf="http://www.w3.org/1999/02/22-rdf-syntax-ns#"
   xmlns:svg="http://www.w3.org/2000/svg"
   xmlns="http://www.w3.org/2000/svg"
   xmlns:xlink="http://www.w3.org/1999/xlink"
   xmlns:sodipodi="http://sodipodi.sourceforge.net/DTD/sodipodi-0.dtd"
   xmlns:inkscape="http://www.inkscape.org/namespaces/inkscape"
   width="24"
   height="24"
   viewBox="0 0 6.3499999 6.3500001"
   version="1.1"
   id="svg1391"
   inkscape:version="0.92.4 (unknown)"
   sodipodi:docname="lc_moveslidedown.svg"
   inkscape:export-filename="/home/rizmut/Dokumen/Rizmut/Github/libreoffice-style-karasa-jaga/build/next/cmd/lc_moveslidedown.png"
   inkscape:export-xdpi="96"
   inkscape:export-ydpi="96">
  <defs
     id="defs1385">
    <filter
       inkscape:collect="always"
       id="filter3281">
      <feGaussianBlur
         inkscape:collect="always"
         stdDeviation="1.9"
         id="feGaussianBlur3283" />
    </filter>
    <radialGradient
       inkscape:collect="always"
       xlink:href="#XMLID_8_"
       id="radialGradient3726"
       gradientUnits="userSpaceOnUse"
       gradientTransform="matrix(4.4358932,0,0,4.0437488,-312.90386,-445.7342)"
       cx="100.88867"
       cy="155.99673"
       fx="100.88867"
       fy="155.99673"
       r="40" />
    <radialGradient
       id="XMLID_8_"
       cx="102"
       cy="112.3047"
       r="139.55859"
       gradientUnits="userSpaceOnUse">
      <stop
         offset="0"
         style="stop-color:#ffffff;stop-opacity:1;"
         id="stop37" />
      <stop
         offset="0.11366145"
         style="stop-color:#bdbebf;stop-opacity:1;"
         id="stop41" />
      <stop
         offset="0.20296688"
         style="stop-color:#ECECEC"
         id="stop47" />
      <stop
         offset="0.2363"
         style="stop-color:#FAFAFA"
         id="stop49" />
      <stop
         offset="0.38818121"
         style="stop-color:#FFFFFF"
         id="stop51" />
      <stop
         offset="0.5313"
         style="stop-color:#FAFAFA"
         id="stop53" />
      <stop
         offset="0.8449"
         style="stop-color:#EBECEC"
         id="stop55" />
      <stop
         offset="1"
         style="stop-color:#E1E2E3"
         id="stop57" />
    </radialGradient>
    <radialGradient
       inkscape:collect="always"
       xlink:href="#linearGradient3287"
       id="radialGradient3723"
       gradientUnits="userSpaceOnUse"
       gradientTransform="matrix(1.0107803,0,0,0.7798658,30.921447,25.75368)"
       cx="48"
       cy="112"
       fx="48"
       fy="112"
       r="32" />
    <linearGradient
       y2="0"
       x2="28"
       y1="57.5"
       x1="28"
       gradientUnits="userSpaceOnUse"
       id="linearGradient3287">
      <stop
         id="stop3289"
         style="stop-color:#FFEA00"
         offset="0" />
      <stop
         id="stop3291"
         style="stop-color:#ffa000;stop-opacity:1;"
         offset="1" />
    </linearGradient>
    <linearGradient
       inkscape:collect="always"
       xlink:href="#linearGradient3321"
       id="linearGradient3720"
       gradientUnits="userSpaceOnUse"
       x1="52.663445"
       y1="54.977589"
       x2="52.663445"
       y2="59.365891"
       gradientTransform="translate(0,8)" />
    <linearGradient
       inkscape:collect="always"
       id="linearGradient3321">
      <stop
         style="stop-color:#000000;stop-opacity:1;"
         offset="0"
         id="stop3323" />
      <stop
         style="stop-color:#000000;stop-opacity:0;"
         offset="1"
         id="stop3325" />
    </linearGradient>
    <filter
       inkscape:collect="always"
       id="filter3354">
      <feGaussianBlur
         inkscape:collect="always"
         stdDeviation="1.1263538"
         id="feGaussianBlur3356" />
    </filter>
    <linearGradient
       y2="0"
       x2="28"
       y1="57.5"
       x1="28"
       gradientUnits="userSpaceOnUse"
       id="linearGradient15967">
      <stop
         id="stop15969"
         style="stop-color:white;stop-opacity:1;"
         offset="0" />
      <stop
         id="stop15971"
         style="stop-color:white;stop-opacity:0;"
         offset="1" />
    </linearGradient>
    <filter
       inkscape:collect="always"
       id="filter3176"
       x="-0.053000905"
       width="1.1060019"
       y="-0.14748077"
       height="1.2949615">
      <feGaussianBlur
         inkscape:collect="always"
         stdDeviation="1.4133574"
         id="feGaussianBlur3178" />
    </filter>
    <linearGradient
       inkscape:collect="always"
       xlink:href="#linearGradient15967"
       id="linearGradient3412"
       gradientUnits="userSpaceOnUse"
       x1="56"
       y1="32"
       x2="56"
       y2="88.117546" />
    <filter
       inkscape:collect="always"
       id="filter3176-7"
       x="-0.053000905"
       width="1.1060019"
       y="-0.14748077"
       height="1.2949615">
      <feGaussianBlur
         inkscape:collect="always"
         stdDeviation="1.4133574"
         id="feGaussianBlur3178-5" />
    </filter>
    <radialGradient
       id="a"
       cx="84.903702"
       cy="-130.14005"
       gradientTransform="matrix(0.04899496,-0.04899496,0.04899496,0.04899496,27.763383,298.48358)"
       gradientUnits="userSpaceOnUse"
       r="57.039597"
       xlink:href="#b" />
    <linearGradient
       id="b">
      <stop
         offset="0"
         stop-color="#3a0b02"
         id="stop3" />
      <stop
         offset="1"
         stop-color="#a21d07"
         stop-opacity=".382353"
         id="stop5" />
    </linearGradient>
    <radialGradient
       id="c"
       cx="2.7207029"
       cy="-66.273438"
       gradientTransform="matrix(0.04899496,-0.04899496,0.04899496,0.04899496,27.763383,298.48358)"
       gradientUnits="userSpaceOnUse"
       r="57.039597"
       xlink:href="#b" />
    <radialGradient
       id="d"
       cx="51.991096"
       cy="-78.028419"
       gradientTransform="matrix(0.04899496,-0.04899496,0.04899496,0.04899496,27.763383,298.48358)"
       gradientUnits="userSpaceOnUse"
       r="57.039597"
       xlink:href="#b" />
    <linearGradient
       id="e"
       gradientTransform="scale(1.0975951,0.9110828)"
       gradientUnits="userSpaceOnUse"
       x1="26.091133"
       x2="31.500689"
       xlink:href="#f"
       y1="14.856744"
       y2="14.856744" />
    <linearGradient
       id="f">
      <stop
         offset="0"
         stop-color="#765c44"
         id="stop11" />
      <stop
         offset="1"
         stop-color="#765c44"
         stop-opacity="0"
         id="stop13" />
    </linearGradient>
    <filter
       id="g"
       height="1.277481"
       width="1.279832"
       x="-0.139916"
       y="-0.138741">
      <feGaussianBlur
         stdDeviation=".28784801"
         id="feGaussianBlur16" />
    </filter>
    <filter
       id="filter982"
       height="1.277481"
       width="1.279832"
       x="-0.139916"
       y="-0.138741">
      <feGaussianBlur
         stdDeviation=".28784801"
         id="feGaussianBlur980" />
    </filter>
    <linearGradient
       id="h"
       gradientUnits="userSpaceOnUse"
       x1="304.88663"
       x2="345.62039"
       xlink:href="#f"
       y1="385.86127"
       y2="384.62384" />
    <filter
       id="filter993"
       height="1.277481"
       width="1.279832"
       x="-0.139916"
       y="-0.138741">
      <feGaussianBlur
         stdDeviation=".28784801"
         id="feGaussianBlur991" />
    </filter>
    <linearGradient
       id="i"
       gradientUnits="userSpaceOnUse"
       spreadMethod="reflect"
       x1="88.606247"
       x2="91.575104"
       y1="13.510336"
       y2="13.510336">
      <stop
         offset="0"
         stop-color="#ff8787"
         id="stop20" />
      <stop
         offset="1"
         stop-color="#ff8787"
         stop-opacity="0"
         id="stop22" />
    </linearGradient>
    <filter
       id="filter1000"
       height="1.277481"
       width="1.279832"
       x="-0.139916"
       y="-0.138741">
      <feGaussianBlur
         stdDeviation=".28784801"
         id="feGaussianBlur998" />
    </filter>
    <linearGradient
       id="j"
       gradientUnits="userSpaceOnUse"
       spreadMethod="reflect"
       x1="31.606251"
       x2="34.575108"
       y1="13.510336"
       y2="13.510336">
      <stop
         offset="0"
         stop-color="#fff"
         id="stop25" />
      <stop
         offset="1"
         stop-color="#790000"
         stop-opacity="0"
         id="stop27" />
    </linearGradient>
    <filter
       id="filter1007"
       height="1.277481"
       width="1.279832"
       x="-0.139916"
       y="-0.138741">
      <feGaussianBlur
         stdDeviation=".28784801"
         id="feGaussianBlur1005" />
    </filter>
    <filter
       id="filter1017"
       height="1.277481"
       width="1.279832"
       x="-0.139916"
       y="-0.138741">
      <feGaussianBlur
         stdDeviation=".28784801"
         id="feGaussianBlur1015" />
    </filter>
    <radialGradient
       id="k"
       cx="50.424522"
       cy="-81.945961"
       gradientTransform="matrix(0.04899496,-0.04899496,0.04899496,0.04899496,27.763382,298.48358)"
       gradientUnits="userSpaceOnUse"
       r="50.15279">
      <stop
         offset="0"
         stop-color="#db3424"
         id="stop30" />
      <stop
         offset="1"
         stop-color="#b32016"
         id="stop32" />
    </radialGradient>
    <linearGradient
       id="l"
       gradientTransform="matrix(0.04899496,-0.04899496,0.04899496,0.04899496,27.763383,298.48358)"
       gradientUnits="userSpaceOnUse"
       x1="50.06789"
       x2="59.441998"
       y1="-154.40843"
       y2="-71.617722">
      <stop
         offset="0"
         stop-color="#fff"
         id="stop35" />
      <stop
         offset="1"
         stop-color="#fcf3f3"
         stop-opacity="0"
         id="stop37-3" />
    </linearGradient>
    <radialGradient
       inkscape:collect="always"
       xlink:href="#XMLID_8_"
       id="radialGradient973"
       gradientUnits="userSpaceOnUse"
       gradientTransform="matrix(4.4358932,0,0,4.0437488,-312.90386,-445.7342)"
       cx="100.88867"
       cy="155.99673"
       fx="100.88867"
       fy="155.99673"
       r="40" />
    <radialGradient
       inkscape:collect="always"
       xlink:href="#linearGradient3287"
       id="radialGradient975"
       gradientUnits="userSpaceOnUse"
       gradientTransform="matrix(1.0107803,0,0,0.7798658,30.921447,25.75368)"
       cx="48"
       cy="112"
       fx="48"
       fy="112"
       r="32" />
    <linearGradient
       inkscape:collect="always"
       xlink:href="#linearGradient15967"
       id="linearGradient977"
       gradientUnits="userSpaceOnUse"
       x1="56"
       y1="32"
       x2="56"
       y2="88.117546" />
    <linearGradient
       inkscape:collect="always"
       xlink:href="#linearGradient3321"
       id="linearGradient979"
       gradientUnits="userSpaceOnUse"
       gradientTransform="translate(0,8)"
       x1="52.663445"
       y1="54.977589"
       x2="52.663445"
       y2="59.365891" />
    <filter
       id="a-2">
      <feGaussianBlur
         stdDeviation="1.0600355"
         id="feGaussianBlur2" />
    </filter>
    <linearGradient
       id="b-6"
       gradientTransform="matrix(1.1772548,0,0,1.0772187,1.846275,-4.94167)"
       gradientUnits="userSpaceOnUse"
       x1="71.626404"
       x2="46.225941"
       y1="123.73875"
       y2="28.942928">
      <stop
         offset="0"
         stop-color="#005f1e"
         id="stop5-1" />
      <stop
         offset="1"
         stop-color="#43943c"
         id="stop7" />
    </linearGradient>
    <radialGradient
       id="c-8"
       cx="71.775223"
       cy="16.0865"
       gradientTransform="matrix(0.9650814,0.2619502,-0.9201984,3.3902106,33.309062,-57.693239)"
       gradientUnits="userSpaceOnUse"
       r="3.15625"
       xlink:href="#d-7" />
    <linearGradient
       id="d-7">
      <stop
         offset="0"
         stop-color="#fff"
         id="stop11-9" />
      <stop
         offset="1"
         stop-color="#fff"
         stop-opacity="0"
         id="stop13-2" />
    </linearGradient>
    <filter
       id="e-0"
       height="1.157943"
       width="1.244782"
       x="-0.122391"
       y="-0.078970999">
      <feGaussianBlur
         stdDeviation=".321914"
         id="feGaussianBlur16-2" />
    </filter>
    <linearGradient
       id="f-3"
       gradientTransform="matrix(1.1772548,0,0,1.0772187,6.555295,-4.94167)"
       gradientUnits="userSpaceOnUse"
       x1="96.373123"
       x2="96.373123"
       y1="120.42788"
       y2="46.089832">
      <stop
         offset="0"
         stop-color="#002a0d"
         id="stop19" />
      <stop
         offset="1"
         stop-color="#002a0d"
         stop-opacity="0"
         id="stop21" />
    </linearGradient>
    <radialGradient
       id="g-7"
       cx="71.775223"
       cy="16.0865"
       gradientTransform="matrix(0.9650814,0.2619502,-0.9201984,3.3902106,17.309062,-57.693239)"
       gradientUnits="userSpaceOnUse"
       r="3.15625">
      <stop
         offset="0"
         stop-color="#f0ff80"
         id="stop24" />
      <stop
         offset="1"
         stop-color="#f0ff80"
         stop-opacity="0"
         id="stop26" />
    </radialGradient>
    <filter
       id="filter1144"
       height="1.157943"
       width="1.244782"
       x="-0.122391"
       y="-0.078970999">
      <feGaussianBlur
         stdDeviation=".321914"
         id="feGaussianBlur1142" />
    </filter>
    <linearGradient
       id="h-5"
       gradientTransform="matrix(1.0533333,0,0,0.9219945,7.546667,4.992427)"
       gradientUnits="userSpaceOnUse"
       x1="43.799026"
       x2="58.606159"
       y1="32.051865"
       y2="96.363052">
      <stop
         offset="0"
         stop-color="#37a42c"
         id="stop29" />
      <stop
         offset="1"
         stop-color="#bff500"
         id="stop31" />
    </linearGradient>
    <radialGradient
       id="i-9"
       cx="11.578125"
       cy="64.53125"
       gradientTransform="matrix(6.5079869,0,0,1.510917,-63.772161,-32.970115)"
       gradientUnits="userSpaceOnUse"
       r="3.578125"
       xlink:href="#d-7" />
    <filter
       id="j-2"
       height="1.598266"
       width="1.9039299"
       x="-0.451965"
       y="-0.299133">
      <feGaussianBlur
         stdDeviation="1.3476562"
         id="feGaussianBlur35" />
    </filter>
    <radialGradient
       id="k-2"
       cx="53.630272"
       cy="79.055809"
       fx="57.058514"
       fy="91.805016"
       gradientTransform="matrix(1.519949,7e-8,-8e-8,1.2772114,-20.224726,-23.996639)"
       gradientUnits="userSpaceOnUse"
       r="50">
      <stop
         offset="0"
         stop-color="#cbff10"
         id="stop38" />
      <stop
         offset="1"
         stop-color="#004d00"
         id="stop40" />
    </radialGradient>
    <linearGradient
       id="l-8"
       gradientUnits="userSpaceOnUse"
       x1="111.78525"
       x2="111.99271"
       y1="112.5"
       y2="44.287056">
      <stop
         offset="0"
         stop-color="#e5ff00"
         id="stop43" />
      <stop
         offset="1"
         stop-color="#e5ff00"
         stop-opacity="0"
         id="stop45" />
    </linearGradient>
    <filter
       id="m">
      <feGaussianBlur
         stdDeviation=".495"
         id="feGaussianBlur48" />
    </filter>
    <filter
       id="filter1174">
      <feGaussianBlur
         stdDeviation=".495"
         id="feGaussianBlur1172" />
    </filter>
    <linearGradient
       id="n"
       gradientTransform="matrix(1.0533333,0,0,0.9219945,11.76,4.992427)"
       gradientUnits="userSpaceOnUse"
       x1="63.159035"
       x2="63.159035"
       y1="21.171064"
       y2="80.12056">
      <stop
         offset="0"
         stop-color="#edffbf"
         id="stop51-9" />
      <stop
         offset="1"
         stop-color="#edffbf"
         stop-opacity="0"
         id="stop53-7" />
    </linearGradient>
    <linearGradient
       id="o"
       gradientTransform="matrix(1.0533333,0,0,0.9219945,11.76,4.992427)"
       gradientUnits="userSpaceOnUse"
       x1="73.739265"
       x2="35.568035"
       xlink:href="#d-7"
       y1="69.923088"
       y2="48.212151" />
    <linearGradient
       y2="44.287056"
       x2="111.99271"
       y1="112.5"
       x1="111.78525"
       gradientUnits="userSpaceOnUse"
       id="linearGradient1208"
       xlink:href="#l-8"
       inkscape:collect="always" />
    <linearGradient
       y2="80.12056"
       x2="63.159035"
       y1="21.171064"
       x1="63.159035"
       gradientTransform="matrix(1.0533333,0,0,0.9219945,11.76,4.992427)"
       gradientUnits="userSpaceOnUse"
       id="linearGradient1212"
       xlink:href="#n"
       inkscape:collect="always" />
    <linearGradient
       inkscape:collect="always"
       xlink:href="#l-8"
       id="linearGradient1249"
       gradientUnits="userSpaceOnUse"
       x1="111.78525"
       y1="112.5"
       x2="111.99271"
       y2="44.287056" />
    <linearGradient
       inkscape:collect="always"
       xlink:href="#n"
       id="linearGradient1251"
       gradientUnits="userSpaceOnUse"
       gradientTransform="matrix(1.0533333,0,0,0.9219945,11.76,4.992427)"
       x1="63.159035"
       y1="21.171064"
       x2="63.159035"
       y2="80.12056" />
  </defs>
  <sodipodi:namedview
     id="base"
     pagecolor="#ffffff"
     bordercolor="#666666"
     borderopacity="1.0"
     inkscape:pageopacity="0.0"
     inkscape:pageshadow="2"
     inkscape:zoom="16.000001"
     inkscape:cx="7.0483214"
     inkscape:cy="11.226268"
     inkscape:document-units="mm"
     inkscape:current-layer="layer1"
     showgrid="true"
     units="px"
     inkscape:window-width="1366"
     inkscape:window-height="714"
     inkscape:window-x="0"
     inkscape:window-y="28"
     inkscape:window-maximized="1"
     inkscape:snap-global="false"
     inkscape:snap-smooth-nodes="true">
    <inkscape:grid
       type="xygrid"
       id="grid2020" />
  </sodipodi:namedview>
  <metadata
     id="metadata1388">
    <rdf:RDF>
      <cc:Work
         rdf:about="">
        <dc:format>image/svg+xml</dc:format>
        <dc:type
           rdf:resource="http://purl.org/dc/dcmitype/StillImage" />
        <dc:title></dc:title>
      </cc:Work>
    </rdf:RDF>
  </metadata>
  <g
     inkscape:label="Layer 1"
     inkscape:groupmode="layer"
     id="layer1"
     transform="translate(0,-290.64998)">
    <g
       style="overflow:visible"
       id="g1335"
       transform="matrix(0.04547526,0,0,0.04547526,0,291.17915)">
      <g
         transform="matrix(1.3062034,0,0,1.2750649,-40.102253,-26.848647)"
         id="g8696">
        <path
           inkscape:connector-curvature="0"
           style="fill:#020202;fill-opacity:1;stroke:#000000;stroke-width:2;stroke-linecap:round;stroke-linejoin:round;stroke-miterlimit:4;stroke-dasharray:none;stroke-dashoffset:1.08780003;stroke-opacity:1;filter:url(#filter3281)"
           d="m 28.816102,46.069283 c -3.884437,0 -7,3.146813 -7,7.03125 l 0.0068,51.749147 c 0,3.88444 3.115564,7 7.000001,7 l 60.997429,0.0425 c 3.884437,0 7,-3.11556 7,-7 l -0.0068,-51.749148 c 0,-3.884437 -3.115563,-7.03125 -7,-7.03125 h -9.446083 v 3.38205 c 0,0.95614 -0.762611,1.71875 -1.71875,1.71875 H 66.05126 c -0.95614,0 -1.71875,-0.762611 -1.71875,-1.71875 v -3.38205 z"
           id="rect3077"
           sodipodi:nodetypes="ccccccccccccccc"
           transform="matrix(1.0107803,0,0,1.0398212,30.921447,-3.3613122)" />
        <path
           inkscape:connector-curvature="0"
           style="fill:#ffffff;fill-opacity:1;stroke:none;stroke-width:0.69999999;stroke-linecap:round;stroke-linejoin:round;stroke-miterlimit:4;stroke-dasharray:none;stroke-dashoffset:1.08780003;stroke-opacity:1"
           d="m 59.66915,43.827627 c -3.707572,0 -6.696418,3.074719 -6.696418,6.888816 l 10e-7,1.840627 0.0069,52.78159 c 0,3.81411 2.988846,6.88882 6.696418,6.88882 l 62.413079,0.0442 c 3.70757,0 6.69642,-3.07471 6.69642,-6.88882 l -0.007,-54.622213 c 0,-3.814097 -2.98885,-6.888816 -6.69642,-6.888816 h -2.29546 -8.90853 v 2.775853 c 0,0.994216 -0.77083,1.787194 -1.73728,1.787194 h -0.48985 -9.398398 c -0.966447,0 -1.737278,-0.792979 -1.737278,-1.787194 v -2.775853 z"
           id="rect2484"
           sodipodi:nodetypes="cccccccccccccccccc" />
        <path
           inkscape:connector-curvature="0"
           style="fill:url(#radialGradient3726);fill-opacity:1;stroke:none;stroke-width:0.69999999;stroke-linecap:round;stroke-linejoin:round;stroke-miterlimit:4;stroke-dasharray:none;stroke-dashoffset:1.08780003;stroke-opacity:1"
           d="m 59.726472,44.867448 c -2.935098,0 -5.306596,2.439633 -5.306596,5.459062 l 0.0069,55.40208 c 0,3.01945 2.371497,5.45907 5.306596,5.45907 l 62.734798,0.0442 c 2.9351,0 5.3066,-2.43962 5.3066,-5.45907 l -0.007,-55.402076 c 0,-3.019428 -2.3715,-5.459062 -5.3066,-5.459062 h -11.59043 v 2.320932 c 0,1.242766 -0.97144,2.242115 -2.1795,2.242115 h -8.989011 c -1.20806,0 -2.179494,-0.999347 -2.179494,-2.242115 v -2.320932 z"
           id="rect3135"
           sodipodi:nodetypes="ccccccccccccccc" />
        <rect
           style="fill:url(#radialGradient3723);fill-opacity:1;stroke:none;stroke-width:0.69999999;stroke-linecap:round;stroke-linejoin:round;stroke-miterlimit:4;stroke-dasharray:none;stroke-dashoffset:1.08780003;stroke-opacity:1"
           id="rect3139"
           width="57.905502"
           height="45.630474"
           x="61.881271"
           y="57.561016"
           rx="2.2253106"
           ry="2.2892468" />
        <rect
           ry="2.2015772"
           rx="2.2015772"
           y="62.977531"
           x="30.629627"
           height="32.912254"
           width="57.287914"
           id="rect3285"
           style="fill:url(#linearGradient3720);fill-opacity:1;stroke:none;stroke-width:0.69999999;stroke-linecap:round;stroke-linejoin:round;stroke-miterlimit:4;stroke-dasharray:none;stroke-dashoffset:1.08780003;stroke-opacity:1;filter:url(#filter3354)"
           transform="matrix(1.0107803,0,0,1.0398212,30.921446,-7.9243581)"
           clip-path="none" />
        <path
           inkscape:connector-curvature="0"
           sodipodi:nodetypes="cccscccc"
           id="path3180"
           d="m 32.817131,50.59594 c -1.219674,0 -2.1875,0.967827 -2.1875,2.1875 l -9e-6,19.638112 c 9.640301,2.396967 15.09089,3.743293 26.581594,3.743293 11.490704,0 21.066027,-1.237144 30.706328,-3.634111 l 9e-6,-19.638112 c 0,-1.219674 -0.967827,-2.1875 -2.1875,-2.1875 z"
           style="overflow:visible;fill:url(#linearGradient3412);fill-opacity:1;stroke:none;stroke-width:0.69999999;stroke-linecap:round;stroke-linejoin:round;stroke-miterlimit:4;stroke-dasharray:none;stroke-dashoffset:1.08780003;stroke-opacity:1;filter:url(#filter3176-7)"
           clip-path="none"
           transform="matrix(1.0107803,0,0,1.0398212,30.921443,4.9571986)" />
        <path
           inkscape:connector-curvature="0"
           sodipodi:nodetypes="cccscccc"
           id="path895"
           d="m 32.817128,62.984182 c -1.219674,0 -2.1875,0.967827 -2.1875,2.1875 v 17.062499 c 9.640301,2.396966 13.797215,4.240699 25.287919,4.240699 11.490702,0 22.359697,-1.353033 31.999998,-3.749999 l -0.01588,-17.559849 c 0,-1.219674 -0.967827,-2.1875 -2.1875,-2.1875 z"
           style="opacity:1;fill:url(#linearGradient3186);fill-opacity:1;stroke:none;stroke-width:0.69999999;stroke-linecap:round;stroke-linejoin:round;stroke-miterlimit:4;stroke-dasharray:none;stroke-dashoffset:1.08780003;stroke-opacity:1;filter:url(#filter3176)"
           transform="matrix(1.0107803,0,0,1.0398212,30.921446,-7.9243581)" />
        <path
           inkscape:connector-curvature="0"
           style="fill:#ffffff;fill-opacity:1;stroke:none;stroke-width:0.69999999;stroke-linecap:round;stroke-linejoin:round;stroke-miterlimit:4;stroke-dasharray:none;stroke-dashoffset:1.08780003;stroke-opacity:1"
           d="m 61.897322,100.91688 v 1.03982 c 0,1.26823 0.978261,2.27504 2.211082,2.27459 l 53.458136,-0.0194 c 1.23282,-4.5e-4 2.21108,-1.00636 2.21108,-2.27459 v -1.03982 c 0,1.26823 -0.97826,2.27416 -2.21108,2.27461 l -53.458136,0.0194 c -1.232821,4.5e-4 -2.211082,-1.00638 -2.211082,-2.27461 z"
           id="rect3358"
           sodipodi:nodetypes="csssscssc" />
      </g>
      <g
         id="g971"
         transform="matrix(1.3062034,0,0,1.2750649,-57.556799,-55.939557)"
         style="opacity:0.5">
        <path
           transform="matrix(1.0107803,0,0,1.0398212,30.921447,-3.3613122)"
           sodipodi:nodetypes="ccccccccccccccc"
           id="path955"
           d="m 28.816102,46.069283 c -3.884437,0 -7,3.146813 -7,7.03125 l 0.0068,51.749147 c 0,3.88444 3.115564,7 7.000001,7 l 60.997429,0.0425 c 3.884437,0 7,-3.11556 7,-7 l -0.0068,-51.749148 c 0,-3.884437 -3.115563,-7.03125 -7,-7.03125 h -9.446083 v 3.38205 c 0,0.95614 -0.762611,1.71875 -1.71875,1.71875 H 66.05126 c -0.95614,0 -1.71875,-0.762611 -1.71875,-1.71875 v -3.38205 z"
           style="fill:#020202;fill-opacity:1;stroke:#000000;stroke-width:2;stroke-linecap:round;stroke-linejoin:round;stroke-miterlimit:4;stroke-dasharray:none;stroke-dashoffset:1.08780003;stroke-opacity:1;filter:url(#filter3281)"
           inkscape:connector-curvature="0" />
        <path
           sodipodi:nodetypes="cccccccccccccccccc"
           id="path957"
           d="m 59.66915,43.827627 c -3.707572,0 -6.696418,3.074719 -6.696418,6.888816 l 10e-7,1.840627 0.0069,52.78159 c 0,3.81411 2.988846,6.88882 6.696418,6.88882 l 62.413079,0.0442 c 3.70757,0 6.69642,-3.07471 6.69642,-6.88882 l -0.007,-54.622213 c 0,-3.814097 -2.98885,-6.888816 -6.69642,-6.888816 h -2.29546 -8.90853 v 2.775853 c 0,0.994216 -0.77083,1.787194 -1.73728,1.787194 h -0.48985 -9.398398 c -0.966447,0 -1.737278,-0.792979 -1.737278,-1.787194 v -2.775853 z"
           style="fill:#ffffff;fill-opacity:1;stroke:none;stroke-width:0.69999999;stroke-linecap:round;stroke-linejoin:round;stroke-miterlimit:4;stroke-dasharray:none;stroke-dashoffset:1.08780003;stroke-opacity:1"
           inkscape:connector-curvature="0" />
        <path
           sodipodi:nodetypes="ccccccccccccccc"
           id="path959"
           d="m 59.726472,44.867448 c -2.935098,0 -5.306596,2.439633 -5.306596,5.459062 l 0.0069,55.40208 c 0,3.01945 2.371497,5.45907 5.306596,5.45907 l 62.734798,0.0442 c 2.9351,0 5.3066,-2.43962 5.3066,-5.45907 l -0.007,-55.402076 c 0,-3.019428 -2.3715,-5.459062 -5.3066,-5.459062 h -11.59043 v 2.320932 c 0,1.242766 -0.97144,2.242115 -2.1795,2.242115 h -8.989011 c -1.20806,0 -2.179494,-0.999347 -2.179494,-2.242115 v -2.320932 z"
           style="fill:url(#radialGradient973);fill-opacity:1;stroke:none;stroke-width:0.69999999;stroke-linecap:round;stroke-linejoin:round;stroke-miterlimit:4;stroke-dasharray:none;stroke-dashoffset:1.08780003;stroke-opacity:1"
           inkscape:connector-curvature="0" />
        <rect
           ry="2.2892468"
           rx="2.2253106"
           y="57.561016"
           x="61.881271"
           height="45.630474"
           width="57.905502"
           id="rect961"
           style="fill:url(#radialGradient975);fill-opacity:1;stroke:none;stroke-width:0.69999999;stroke-linecap:round;stroke-linejoin:round;stroke-miterlimit:4;stroke-dasharray:none;stroke-dashoffset:1.08780003;stroke-opacity:1" />
        <rect
           clip-path="none"
           transform="matrix(1.0107803,0,0,1.0398212,30.921446,-7.9243581)"
           style="fill:url(#linearGradient979);fill-opacity:1;stroke:none;stroke-width:0.69999999;stroke-linecap:round;stroke-linejoin:round;stroke-miterlimit:4;stroke-dasharray:none;stroke-dashoffset:1.08780003;stroke-opacity:1;filter:url(#filter3354)"
           id="rect965"
           width="57.287914"
           height="32.912254"
           x="30.629627"
           y="62.977531"
           rx="2.2015772"
           ry="2.2015772" />
        <path
           transform="matrix(1.0107803,0,0,1.0398212,30.921443,4.9571986)"
           clip-path="none"
           style="overflow:visible;fill:url(#linearGradient977);fill-opacity:1;stroke:none;stroke-width:0.69999999;stroke-linecap:round;stroke-linejoin:round;stroke-miterlimit:4;stroke-dasharray:none;stroke-dashoffset:1.08780003;stroke-opacity:1;filter:url(#filter3176-7)"
           d="m 32.817131,50.59594 c -1.219674,0 -2.1875,0.967827 -2.1875,2.1875 l -9e-6,19.638112 c 9.640301,2.396967 15.09089,3.743293 26.581594,3.743293 11.490704,0 21.066027,-1.237144 30.706328,-3.634111 l 9e-6,-19.638112 c 0,-1.219674 -0.967827,-2.1875 -2.1875,-2.1875 z"
           id="path963"
           sodipodi:nodetypes="cccscccc"
           inkscape:connector-curvature="0" />
        <path
           transform="matrix(1.0107803,0,0,1.0398212,30.921446,-7.9243581)"
           style="opacity:1;fill:url(#linearGradient3186);fill-opacity:1;stroke:none;stroke-width:0.69999999;stroke-linecap:round;stroke-linejoin:round;stroke-miterlimit:4;stroke-dasharray:none;stroke-dashoffset:1.08780003;stroke-opacity:1;filter:url(#filter3176)"
           d="m 32.817128,62.984182 c -1.219674,0 -2.1875,0.967827 -2.1875,2.1875 v 17.062499 c 9.640301,2.396966 13.797215,4.240699 25.287919,4.240699 11.490702,0 22.359697,-1.353033 31.999998,-3.749999 l -0.01588,-17.559849 c 0,-1.219674 -0.967827,-2.1875 -2.1875,-2.1875 z"
           id="path967"
           sodipodi:nodetypes="cccscccc"
           inkscape:connector-curvature="0" />
        <path
           sodipodi:nodetypes="csssscssc"
           id="path969"
           d="m 61.897322,100.91688 v 1.03982 c 0,1.26823 0.978261,2.27504 2.211082,2.27459 l 53.458136,-0.0194 c 1.23282,-4.5e-4 2.21108,-1.00636 2.21108,-2.27459 v -1.03982 c 0,1.26823 -0.97826,2.27416 -2.21108,2.27461 l -53.458136,0.0194 c -1.232821,4.5e-4 -2.211082,-1.00638 -2.211082,-2.27461 z"
           style="fill:#ffffff;fill-opacity:1;stroke:none;stroke-width:0.69999999;stroke-linecap:round;stroke-linejoin:round;stroke-miterlimit:4;stroke-dasharray:none;stroke-dashoffset:1.08780003;stroke-opacity:1"
           inkscape:connector-curvature="0" />
      </g>
    </g>
    <g
       transform="matrix(0,-0.02273763,-0.02273763,0,4.6301122,296.63955)"
       id="g302">
      <path
         inkscape:connector-curvature="0"
         d="m 87.875,12 c -0.865503,0.02693 -1.698899,0.333976 -2.375,0.875 l -60,48 C 24.550144,61.634129 24,62.784063 24,64 c 0,1.215937 0.550144,2.365871 1.5,3.125 l 60,48 c 1.200963,0.96113 2.832437,1.13525 4.21875,0.46875 C 91.105067,114.92725 92.000642,113.53821 92,112 V 88.3125 78.0625 L 90.5,76.875 C 89.299037,75.91387 87.667563,75.739753 86.28125,76.40625 84.894933,77.072748 83.999358,78.461793 84,80 v 23.6875 L 34.40625,64 84,24.3125 V 48 c -6.42e-4,1.538207 0.894936,2.927253 2.28125,3.59375 1.38631,0.666496 3.017787,0.49238 4.21875,-0.46875 L 92,49.9375 V 39.6875 16 C 92.000417,14.917152 91.558627,13.878821 90.78125,13.125 90.003873,12.37118 88.957323,11.966273 87.875,12 Z"
         style="opacity:0.90526303;fill:none;stroke:#638000;stroke-width:0.96600002;stroke-linejoin:round;filter:url(#a-2)"
         transform="matrix(1.0533333,0,0,1.0173732,-5.093333,-1.111812)"
         id="path272" />
      <g
         style="fill-rule:evenodd"
         id="g288">
        <path
           style="fill:url(#b-6)"
           inkscape:connector-curvature="0"
           d="M 91.044922,4.0644531 C 89.258746,4.1153165 87.50638,4.6925246 86.048828,5.7597656 L 15.425781,57.447266 C 13.366052,58.953529 12.03125,61.361344 12.03125,64 c 0,2.638658 1.334802,5.04647 3.394531,6.552734 l 70.623047,51.687496 c 2.608844,1.91046 5.98005,2.20189 8.88086,0.92579 2.870195,-1.26266 5.039722,-4.11674 5.039062,-7.44727 v -0.002 -25.5293 -4.78125 -6.25 -30.3125 -5.3125 -5.71875 -25.529297 -0.002 C 99.969154,9.9378306 98.903666,7.7476084 97.207031,6.2421875 95.456704,4.6891286 93.239719,4.0018713 91.044922,4.0644531 Z M 82.65625,29.015625 V 38.53125 H 69.662109 Z M 64.041016,42.646484 C 63.97991,42.944567 63.84375,43.215109 63.84375,43.53125 V 85.208984 L 34.884766,64 Z M 70.984375,90.4375 H 82.65625 v 8.546875 z"
           id="path274" />
        <path
           style="opacity:0.85;fill:url(#c-8);filter:url(#e-0)"
           inkscape:connector-curvature="0"
           d="m 87.875,12 c -0.799041,0.02487 -1.572946,0.283948 -2.21875,0.75 L 86.625,21.78125 91.96875,15.625 c -0.08779,-0.946211 -0.499493,-1.832841 -1.1875,-2.5 C 90.003873,12.37118 88.957323,11.966273 87.875,12 Z"
           transform="matrix(1.6242239,0,0,1.5687739,-51.942329,-13.800705)"
           id="path276" />
        <path
           style="opacity:0.90526303;fill:url(#f-3)"
           inkscape:connector-curvature="0"
           d="M 91.039062,3.875 C 89.216063,3.926912 87.426806,4.5169306 85.9375,5.6074219 L 15.314453,57.294922 C 13.209537,58.834229 11.841797,61.297568 11.841797,64 c 0,2.702434 1.36774,5.165769 3.472656,6.705078 L 85.9375,122.39258 c 2.666198,1.95245 6.106657,2.25016 9.068359,0.94726 2.929648,-1.2888 5.153041,-4.2102 5.152341,-7.62109 v -0.002 -25.5293 -4.78125 -0.75 -5.5 -30.3125 -5.3125 -0.1875 -5.53125 -25.529297 -0.002 C 100.15863,9.8813093 99.066195,7.6402828 97.332031,6.1015625 95.541622,4.5129385 93.278045,3.8111583 91.039062,3.875 Z m -8.572265,25.511719 v 8.955078 H 70.240234 Z M 63.751953,43.091797 c -0.01499,0.152982 -0.09766,0.282453 -0.09766,0.439453 V 84.835938 L 35.203125,64 Z M 71.5625,90.626953 h 10.904297 v 7.986328 z"
           id="path278" />
        <path
           style="opacity:0.35;fill:url(#g-7);filter:url(#e-0)"
           inkscape:connector-curvature="0"
           d="m 71.875,12 c -0.799041,0.02487 -1.572946,0.283948 -2.21875,0.75 L 70.625,21.78125 75.96875,15.625 c -0.08779,-0.946211 -0.499493,-1.832841 -1.1875,-2.5 C 74.003873,12.37118 72.957323,11.966273 71.875,12 Z"
           transform="matrix(1.5198093,0,0,-1.467924,-18.580468,138.50508)"
           id="path280" />
        <path
           style="fill:url(#h-5)"
           inkscape:connector-curvature="0"
           d="M 24.4,64.000073 87.6,19.744339 v 88.511471 z"
           id="path282" />
        <path
           style="opacity:0.5;fill:url(#i-9);filter:url(#j-2)"
           inkscape:connector-curvature="0"
           d="M 11.6875,59.125 9.5,60.875 C 8.5501441,61.634129 8,62.784063 8,64 c 10e-8,1.215937 0.5501441,2.365871 1.5,3.125 l 3.53125,2.8125 2.125,-5.625 z"
           transform="matrix(1.6627754,0,0,-1.6060093,2.523144,167.66965)"
           id="path284" />
        <path
           style="fill:url(#k-2)"
           inkscape:connector-curvature="0"
           d="M 87.6,19.744339 24.4,64.000073 87.6,108.25581 V 78.751985 49.248162 Z"
           id="path286" />
      </g>
      <path
         style="fill:none;stroke:url(#linearGradient1249);stroke-width:1.01473606;filter:url(#m)"
         inkscape:connector-curvature="0"
         d="M 92,16 32,64 92,112 V 80 48 Z"
         transform="matrix(1.0533333,0,0,0.9219945,-9.306667,4.992427)"
         id="path290" />
      <path
         style="fill:none;stroke:url(#linearGradient1208);stroke-width:1.01473606;filter:url(#m)"
         inkscape:connector-curvature="0"
         d="M 92,16 32,64 92,112 V 80 48 Z"
         transform="matrix(1.0533333,0,0,0.9219945,-9.306667,4.992427)"
         id="path292" />
      <g
         style="fill-rule:evenodd"
         id="g300">
        <path
           style="fill:url(#linearGradient1251)"
           inkscape:connector-curvature="0"
           d="M 87.6,19.744339 24.531667,63.913636 c 6.793856,0.858836 14.016911,1.325368 21.5275,1.325367 15.513654,0 29.871052,-1.977018 41.540833,-5.33028 V 49.248162 Z"
           id="path294" />
        <path
           style="fill:url(#o)"
           inkscape:connector-curvature="0"
           d="m 87.6,19.744339 -0.88875,0.633871 v 28.46658 10.516499 c -11.508047,3.306789 -25.649685,5.243844 -40.948333,5.243844 -7.131481,0 -13.993161,-0.422394 -20.474167,-1.210119 l -0.757083,0.518622 c 6.793856,0.858836 14.016911,1.325368 21.5275,1.325367 15.513654,0 29.871052,-1.977018 41.540833,-5.33028 V 49.248162 Z"
           id="path296" />
        <path
           style="fill:url(#linearGradient1212)"
           inkscape:connector-curvature="0"
           d="M 87.6,19.744339 24.531667,63.913636 c 3.591314,0.453991 7.315582,0.78465 11.125833,1.008432 -3.488053,-0.217395 -6.90721,-0.562838 -10.204167,-0.97962 l 61.225,-42.872743 v 28.639454 10.343625 c -4.247377,1.220467 -8.856521,2.26888 -13.759166,3.08292 C 78.150964,62.285094 83.084328,61.206282 87.6,59.908723 V 49.248162 Z M 35.6575,64.922068 c 1.745003,0.102487 3.515059,0.179649 5.299583,0.230498 -1.785355,-0.05547 -3.555557,-0.121801 -5.299583,-0.230498 z"
           id="path298" />
      </g>
    </g>
  </g>
</svg>
