<?xml version="1.0" encoding="UTF-8" standalone="no"?>
<svg
   xmlns:dc="http://purl.org/dc/elements/1.1/"
   xmlns:cc="http://creativecommons.org/ns#"
   xmlns:rdf="http://www.w3.org/1999/02/22-rdf-syntax-ns#"
   xmlns:svg="http://www.w3.org/2000/svg"
   xmlns="http://www.w3.org/2000/svg"
   xmlns:sodipodi="http://sodipodi.sourceforge.net/DTD/sodipodi-0.dtd"
   xmlns:inkscape="http://www.inkscape.org/namespaces/inkscape"
   enable-background="new 0 0 128 128"
   height="24"
   viewBox="0 0 24 24"
   width="24"
   version="1.1"
   id="svg32"
   sodipodi:docname="lc_notesmasterpage.svg"
   inkscape:version="0.92.4 (unknown)"
   inkscape:export-filename="/home/rizmut/Dokumen/Rizmut/Github/libreoffice-style-karasa-jaga/build/next/cmd/lc_notesmasterpage.png"
   inkscape:export-xdpi="96"
   inkscape:export-ydpi="96">
  <metadata
     id="metadata38">
    <rdf:RDF>
      <cc:Work
         rdf:about="">
        <dc:format>image/svg+xml</dc:format>
        <dc:type
           rdf:resource="http://purl.org/dc/dcmitype/StillImage" />
        <dc:title></dc:title>
      </cc:Work>
    </rdf:RDF>
  </metadata>
  <defs
     id="defs36" />
  <sodipodi:namedview
     pagecolor="#ffffff"
     bordercolor="#666666"
     borderopacity="1"
     objecttolerance="10"
     gridtolerance="10"
     guidetolerance="10"
     inkscape:pageopacity="0"
     inkscape:pageshadow="2"
     inkscape:window-width="1366"
     inkscape:window-height="714"
     id="namedview34"
     showgrid="true"
     inkscape:zoom="14.75"
     inkscape:cx="10.144031"
     inkscape:cy="8.9853465"
     inkscape:window-x="0"
     inkscape:window-y="28"
     inkscape:window-maximized="1"
     inkscape:current-layer="g30"
     showguides="false">
    <inkscape:grid
       type="xygrid"
       id="grid864"
       spacingx="0.5"
       spacingy="0.5"
       empspacing="2" />
  </sodipodi:namedview>
  <filter
     id="a">
    <feGaussianBlur
       stdDeviation="1.0394514"
       id="feGaussianBlur2" />
  </filter>
  <filter
     id="b">
    <feGaussianBlur
       stdDeviation=".50063244"
       id="feGaussianBlur5" />
  </filter>
  <g
     id="g876"
     transform="matrix(0,0.171875,-0.171875,0,21.96257,2.9982158)">
    <path
       id="path8"
       transform="matrix(0,1.0090419,-1.003276,0,127.07723,-1.871126)"
       d="M 11.467906,9.0000078 11.291446,134.58141 H 106.89025 L 107.10753,9.0000078 Z"
       inkscape:connector-curvature="0"
       style="opacity:0.30684904;filter:url(#a)"
       sodipodi:nodetypes="ccccc" />
    <path
       id="path12"
       transform="matrix(0,1.0090419,-1.003276,0,127.07723,-1.871126)"
       d="M 11.467906,8.9687903 11.291446,134.58141 h 95.598804 l 0.21728,-125.6125975 -95.63962,7.8e-6 z"
       inkscape:connector-curvature="0"
       style="opacity:0.55342503;filter:url(#a)"
       sodipodi:nodetypes="cccccc" />
    <path
       id="path10"
       transform="matrix(0,1.0090419,-1.003276,0,127.07723,-1.871126)"
       d="M 11.467906,9.965525 11.291446,134.58141 H 106.89025 L 107.10753,9.9655472 11.46791,9.965555 Z"
       inkscape:connector-curvature="0"
       style="opacity:0.30684904;filter:url(#a)"
       sodipodi:nodetypes="cccccc" />
    <path
       id="path14"
       transform="matrix(0,1.0090419,-1.003276,0,127.07723,-1.871126)"
       d="m 13.387905,10.931144 -0.21728,121.519986 91.213625,-0.0578 c 0.375,-0.375 0.58504,-0.884 0.586,-1.414 l 0.21728,-120.048154 -91.799625,8e-6 z"
       inkscape:connector-curvature="0"
       style="opacity:0.89589;filter:url(#b)"
       sodipodi:nodetypes="cccsccc" />
    <path
       id="path16"
       d="M 116.11027,11.637834 -5.807801,11.418589 v 92.629671 l 121.918101,0.21924 -10e-6,-92.629666 z"
       inkscape:connector-curvature="0"
       style="fill:#80b3ff"
       sodipodi:nodetypes="cccccc" />
    <g
       id="g30"
       style="fill:#eeeeee">
      <path
         id="path20"
         d="m 29.10129,17.236853 h 5.67844 l 0.13811,81.453156 H 29.2394 Z"
         inkscape:connector-curvature="0"
         sodipodi:nodetypes="ccccc" />
      <path
         id="path22"
         d="m 0.0103808,17.236771 h 5.8181 l 0,81.454545 h -5.8181 z"
         inkscape:connector-curvature="0"
         sodipodi:nodetypes="ccccc" />
      <path
         id="path24"
         d="m 5.8270086,92.871826 23.2727314,8.2e-5 v 5.8181 l -23.2727314,-8.2e-5 z"
         inkscape:connector-curvature="0"
         sodipodi:nodetypes="ccccc" />
      <path
         id="path26"
         d="m 5.8285626,17.236771 23.2727274,8.2e-5 v 5.8181 l -23.2727274,-8.2e-5 z"
         inkscape:connector-curvature="0"
         sodipodi:nodetypes="ccccc" />
      <path
         sodipodi:nodetypes="ccccc"
         inkscape:connector-curvature="0"
         d="m 46.417725,17.23816 h 5.67844 l 0.13811,81.453156 h -5.67844 z"
         id="path874" />
      <path
         id="path876"
         d="m 64.012013,17.23816 h 5.67844 l 0.13811,81.453156 h -5.67844 z"
         inkscape:connector-curvature="0"
         sodipodi:nodetypes="ccccc" />
      <path
         sodipodi:nodetypes="ccccc"
         inkscape:connector-curvature="0"
         d="m 81.466558,17.23816 h 5.67844 l 0.13811,81.453156 h -5.67844 z"
         id="path878" />
      <path
         id="path880"
         d="m 98.921104,17.23816 h 5.678436 l 0.13811,81.453156 h -5.678436 z"
         inkscape:connector-curvature="0"
         sodipodi:nodetypes="ccccc" />
    </g>
  </g>
</svg>
