<?xml version="1.0" encoding="UTF-8" standalone="no"?>
<!-- Created with Inkscape (http://www.inkscape.org/) -->

<svg
   xmlns:dc="http://purl.org/dc/elements/1.1/"
   xmlns:cc="http://creativecommons.org/ns#"
   xmlns:rdf="http://www.w3.org/1999/02/22-rdf-syntax-ns#"
   xmlns:svg="http://www.w3.org/2000/svg"
   xmlns="http://www.w3.org/2000/svg"
   xmlns:xlink="http://www.w3.org/1999/xlink"
   xmlns:sodipodi="http://sodipodi.sourceforge.net/DTD/sodipodi-0.dtd"
   xmlns:inkscape="http://www.inkscape.org/namespaces/inkscape"
   width="24"
   height="24"
   viewBox="0 0 6.3499999 6.3500001"
   version="1.1"
   id="svg8"
   inkscape:version="0.92.4 (unknown)"
   sodipodi:docname="lc_numberformatpercent.svg"
   inkscape:export-filename="/home/rizmut/Dokumen/Rizmut/Github/libreoffice-style-karasa-jaga/build/next/cmd/lc_numberformatpercent.png"
   inkscape:export-xdpi="96"
   inkscape:export-ydpi="96">
  <defs
     id="defs2">
    <linearGradient
       id="b"
       gradientUnits="userSpaceOnUse"
       x1="17.752579"
       x2="18.765741"
       y1="29.207998"
       y2="5.9052682">
      <stop
         offset="0"
         stop-color="#555"
         id="stop1413" />
      <stop
         offset="1"
         id="stop1415" />
    </linearGradient>
    <linearGradient
       id="a"
       gradientTransform="matrix(0.26712903,0,0,0.26458334,-0.271412,0)"
       gradientUnits="userSpaceOnUse"
       x1="19.96508"
       x2="99.980469"
       y1="15.855672"
       y2="50.37207">
      <stop
         offset="0"
         stop-color="#3b3e22"
         id="stop1408" />
      <stop
         offset="1"
         stop-color="#454545"
         stop-opacity="0"
         id="stop1410" />
    </linearGradient>
    <linearGradient
       inkscape:collect="always"
       xlink:href="#b"
       id="linearGradient2034"
       x1="2.9104166"
       y1="296.20624"
       x2="2.9104166"
       y2="291.17914"
       gradientUnits="userSpaceOnUse" />
    <linearGradient
       inkscape:collect="always"
       xlink:href="#a"
       id="linearGradient2054"
       x1="13"
       y1="1"
       x2="13"
       y2="10"
       gradientUnits="userSpaceOnUse" />
  </defs>
  <sodipodi:namedview
     id="base"
     pagecolor="#ffffff"
     bordercolor="#666666"
     borderopacity="1.0"
     inkscape:pageopacity="0.0"
     inkscape:pageshadow="2"
     inkscape:zoom="7.1005306"
     inkscape:cx="22.331146"
     inkscape:cy="1.4216887"
     inkscape:document-units="mm"
     inkscape:current-layer="layer1"
     showgrid="true"
     units="px"
     inkscape:window-width="1366"
     inkscape:window-height="714"
     inkscape:window-x="0"
     inkscape:window-y="28"
     inkscape:window-maximized="1">
    <inkscape:grid
       type="xygrid"
       id="grid815" />
  </sodipodi:namedview>
  <metadata
     id="metadata5">
    <rdf:RDF>
      <cc:Work
         rdf:about="">
        <dc:format>image/svg+xml</dc:format>
        <dc:type
           rdf:resource="http://purl.org/dc/dcmitype/StillImage" />
        <dc:title></dc:title>
      </cc:Work>
    </rdf:RDF>
  </metadata>
  <g
     inkscape:label="Layer 1"
     inkscape:groupmode="layer"
     id="layer1"
     transform="translate(0,-290.64998)">
    <g
       aria-label="%"
       style="font-style:normal;font-weight:normal;font-size:7.00531769px;line-height:1.25;font-family:sans-serif;letter-spacing:0px;word-spacing:0px;fill:url(#linearGradient2034);fill-opacity:1;stroke:none;stroke-width:0.17513295"
       id="text819">
      <path
         d="m 1.4586972,291.43967 q 0.5043829,0 0.8476434,0.35027 0.3502659,0.35026 0.3502659,0.86165 0,0.48337 -0.3502659,0.83363 -0.3502658,0.35027 -0.8406381,0.35027 -0.49037222,0 -0.84764342,-0.35027 -0.35026589,-0.35727 -0.35026589,-0.84764 0,-0.49037 0.35026589,-0.84064 0.35026588,-0.35727 0.84063812,-0.35727 z m 0,0.49037 q -0.287218,0 -0.49737756,0.21016 -0.21015953,0.20316 -0.21015953,0.49738 0,0.28722 0.21015953,0.49738 0.21015956,0.21016 0.50438286,0.21016 0.287218,0 0.4973776,-0.20316 0.2101595,-0.21016 0.2101595,-0.49738 0,-0.30122 -0.2101595,-0.50438 -0.2031542,-0.21016 -0.5043829,-0.21016 z m 2.8721803,-0.6585 h 0.4623509 l -2.7671005,5.10688 H 1.563777 Z m 0.55342,2.71106 q 0.5043829,0 0.8476435,0.35027 0.3502659,0.35026 0.3502659,0.85464 0,0.48337 -0.3572712,0.83364 -0.3502659,0.35026 -0.8336328,0.35026 -0.4973776,0 -0.8476435,-0.35026 -0.3502659,-0.35727 -0.3502659,-0.84765 0,-0.49037 0.3502659,-0.84063 0.3502659,-0.35027 0.8406381,-0.35027 z m 0,0.49037 q -0.287218,0 -0.4973775,0.21016 -0.2101595,0.20316 -0.2101595,0.49037 0,0.29423 0.2101595,0.50439 0.2101595,0.20315 0.5043829,0.20315 0.287218,0 0.4973775,-0.20315 0.2101596,-0.21016 0.2101596,-0.49038 0,-0.30122 -0.2101596,-0.50438 -0.2031542,-0.21016 -0.5043829,-0.21016 z"
         style="font-style:normal;font-variant:normal;font-weight:normal;font-stretch:normal;font-family:FreeSans;-inkscape-font-specification:FreeSans;fill:url(#linearGradient2034);fill-opacity:1;stroke-width:0.17513295"
         id="path2036" />
    </g>
    <g
       id="g2041"
       style="font-style:normal;font-weight:normal;font-size:7.00531769px;line-height:1.25;font-family:sans-serif;letter-spacing:0px;word-spacing:0px;fill:#ff0000;fill-opacity:1;stroke:none;stroke-width:0.17513295"
       aria-label="%">
      <path
         style="font-style:normal;font-variant:normal;font-weight:normal;font-stretch:normal;font-family:FreeSans;-inkscape-font-specification:FreeSans;fill:url(#linearGradient2054);fill-opacity:1;stroke-width:0.66191977"
         d="M 16.623047 2.7773438 L 12.236328 10.880859 A 16.5 5.9999999 0 0 0 12.978516 10.921875 L 17.392578 2.7773438 L 16.623047 2.7773438 z M 5.5136719 3.4121094 C 4.3822011 3.4121094 3.4469757 3.8082841 2.6347656 4.6367188 C 1.822785 5.4487125 1.4394531 6.3755672 1.4394531 7.5097656 C 1.4394531 7.7389231 1.4664395 7.9541734 1.4980469 8.1679688 A 16.5 5.9999999 0 0 0 2.6992188 8.78125 C 2.5165921 8.3855858 2.4140625 7.9604317 2.4140625 7.5097656 C 2.4140625 6.6681782 2.7322779 5.9078156 3.3359375 5.3242188 C 3.9331611 4.7306817 4.6878912 4.4082031 5.5136719 4.4082031 C 6.3733417 4.4082031 7.1440378 4.7332796 7.7285156 5.3378906 C 8.3233619 5.9205426 8.6445312 6.6866656 8.6445312 7.5390625 C 8.6445312 8.3683664 8.3191112 9.1242059 7.7207031 9.7226562 A 0.42817085 0.42817085 0 0 1 7.7148438 9.7304688 C 7.5370955 9.9023017 7.3411223 10.041201 7.1386719 10.164062 A 16.5 5.9999999 0 0 0 8.4140625 10.410156 A 16.5 5.9999999 0 0 0 8.4160156 10.410156 C 9.2293533 9.5968019 9.6113281 8.683509 9.6113281 7.5683594 C 9.6113281 6.3770523 9.223921 5.4153337 8.4160156 4.6074219 C 7.6247643 3.8000392 6.6860099 3.4121094 5.5136719 3.4121094 z "
         transform="matrix(0.26458333,0,0,0.26458333,0,290.64998)"
         id="path2039" />
    </g>
  </g>
</svg>
