<svg height="24" viewBox="0 0 24 24" width="24" xmlns="http://www.w3.org/2000/svg" xmlns:xlink="http://www.w3.org/1999/xlink"><linearGradient id="a" gradientTransform="matrix(1.0185733 0 0 .96145831 -.713472 24.473497)" gradientUnits="userSpaceOnUse" x1="3.587285" x2="107.14484" y1="4.73702" y2="79.217056"><stop offset="0" stop-color="#6fc5dd"/><stop offset="1" stop-color="#042f3a" stop-opacity=".894118"/></linearGradient><filter id="b" color-interpolation-filters="sRGB" height="2.168999" width="1.076726" x="-.038363" y="-.5845"><feGaussianBlur stdDeviation="1.6184007"/></filter><linearGradient id="c" gradientUnits="userSpaceOnUse" x1="64.822234" x2="64.716734" y1="17.727728" y2="25.233469"><stop offset="0" stop-color="#717171"/><stop offset="1" stop-color="#717171" stop-opacity="0"/></linearGradient><g transform="matrix(.25 0 0 .25 0 -8)"><rect fill="url(#a)" height="64" rx="6" width="96" y="48"/><path d="m4.288683 53.834881h87.711319v52.165119h-87.711319z" fill="#fff"/><path d="m8 60h80v40h-80z" fill="#717171"/><path d="m12 64h72v32h-72z" fill="#fff"/><path d="m12 16.312845h110.11765v6.632562h-110.11765z" fill="url(#c)" filter="url(#b)" transform="matrix(.65384615 0 0 .90462804 4.153846 47.242941)"/><g fill="#4d4d4d" stroke-width=".827265"><path d="m19.077426 67.87695v21.40962h11.912617v2.71343h-14.990043v-24.12305z"/><path d="m54.861643 67.87695v24.12305h-3.474513l-12.475157-19.556547v19.556547h-2.911973v-24.12305h3.342151l12.607519 19.721999v-19.721999z"/></g></g></svg>