<svg height="24" width="24" xmlns="http://www.w3.org/2000/svg"><g transform="matrix(.171875 0 0 .171875 1.000362 1.496927)"><rect fill="#618fd2" fill-opacity=".091954" height="110.5439" rx=".194473" ry=".222557" stroke-width="1.313712" width="116.362" x="5.8181" y="5.8199"/><g fill="#232323" stroke-width="1.207356"><path d="m39.670768 43.399539h-13.570684l-3.718657 10.57644h-4.78113l12.556504-35.206506h5.79531l12.363327 35.206506h-5.022602zm-1.255651-3.766951-5.408956-16.03369-5.795309 16.03369z"/><path d="m79.176215 43.930776q0 4.539659-2.84936 7.292431-2.849361 2.752772-7.533903 2.752772h-15.888807v-35.206506h14.295097q2.945949 0 5.11919.869296 2.173242.869297 3.235715 2.318124 1.110768 1.400533 1.59371 2.849361.482943 1.400533.482943 2.897655 0 5.408955-4.877719 7.678785 3.380597 1.303945 4.877719 3.332303 1.545415 2.028358 1.545415 5.215779zm-13.08774-9.99691q7.05096 0 7.05096-5.602132 0-5.602133-7.05096-5.602133h-8.692965v11.204265zm2.269829 16.081985q2.366418 0 3.86354-1.01418 1.497122-1.062473 1.980064-2.318123.482943-1.255651.482943-2.704478 0-2.752772-1.642005-4.394777-1.642004-1.690298-4.684542-1.690298h-10.962794v12.121856z"/><path d="m83.042776 36.783227q0-2.414712.386354-4.78113.434648-2.366418 1.59371-4.926014 1.159062-2.559595 2.84936-4.44307 1.738593-1.93177 4.636248-3.187421 2.945949-1.25565 6.616312-1.25565 11.49403 0 13.57068 11.494031h-4.58795q-.77271-3.766951-3.04254-5.650427-2.26983-1.883476-6.471427-1.883476-5.11919 0-8.113433 3.911834-2.945949 3.911834-2.945949 10.673029 0 6.616312 3.090831 10.528146 3.090832 3.863539 8.354905 3.863539 4.346483 0 6.664603-2.414712 2.31813-2.463007 3.13913-7.582197h4.63625q-1.59371 13.957038-14.488277 13.957038-3.622069 0-6.519723-1.207357-2.849361-1.25565-4.587954-3.139126-1.690299-1.883475-2.84936-4.394776-1.110768-2.559595-1.545416-4.877719-.386354-2.318124-.386354-4.684542z"/></g><g fill="#7193c6" stroke-width="1.453694"><path d="m5.8181001 11.638005v-5.818105h5.8180999v5.818105z"/><path d="m17.417108 11.635591v-5.812362h5.848648v5.812362z"/><path d="m29.08053 11.641319v-5.8156769h5.818997v5.8156769z"/><path d="m81.416835 11.644639h-5.815677v-5.8189969h5.815677z"/><path d="m40.705857 11.638005v-5.818105h5.8181v5.818105z"/><path d="m52.304864 11.635591v-5.812362h5.848653v5.812362z"/><path d="m63.968292 11.641319v-5.8156769h5.818992v5.8156769z"/><path d="m116.362 11.638h-5.81568v-5.8189969h5.81568z"/><path d="m87.250029 11.628952v-5.812362h5.848653v5.812362z"/><path d="m98.913457 11.63468v-5.8156769h5.818993v5.8156769z"/><path d="m23.241852 116.3638v-5.81236h5.848648v5.81236z"/><path d="m34.905274 116.36953v-5.81568h5.818997v5.81568z"/><path d="m87.241579 116.37285h-5.815677v-5.819h5.815677z"/><path d="m46.530601 116.36621v-5.8181h5.8181v5.8181z"/><path d="m58.129608 116.3638v-5.81236h5.848653v5.81236z"/><path d="m69.793036 116.36953v-5.81568h5.818992v5.81568z"/><path d="m122.18674 116.36621h-5.81568v-5.819h5.81568z"/><path d="m93.074773 116.35716v-5.81236h5.848653v5.81236z"/><path d="m104.7382 116.36289v-5.81568h5.81899v5.81568z"/><path d="m11.6362 116.35806v-5.81236h5.848648v5.81236z"/><g transform="matrix(0 1 -1 0 232.72006 -5.8163)"><path d="m23.241852 116.3638v-5.81236h5.848648v5.81236z"/><path d="m34.905274 116.36953v-5.81568h5.818997v5.81568z"/><path d="m87.241579 116.37285h-5.815677v-5.819h5.815677z"/><path d="m46.530601 116.36621v-5.8181h5.8181v5.8181z"/><path d="m58.129608 116.3638v-5.81236h5.848653v5.81236z"/><path d="m69.793036 116.36953v-5.81568h5.818992v5.81568z"/><path d="m122.18674 116.36621h-5.81568v-5.819h5.81568z"/><path d="m93.074773 116.35716v-5.81236h5.848653v5.81236z"/><path d="m104.7382 116.36289v-5.81568h5.81899v5.81568z"/><path d="m11.6362 116.35806v-5.81236h5.848648v5.81236z"/></g><g transform="matrix(0 1 -1 0 122.1819 -5.785752)"><path d="m23.241852 116.3638v-5.81236h5.848648v5.81236z"/><path d="m34.905274 116.36953v-5.81568h5.818997v5.81568z"/><path d="m87.241579 116.37285h-5.815677v-5.819h5.815677z"/><path d="m46.530601 116.36621v-5.8181h5.8181v5.8181z"/><path d="m58.129608 116.3638v-5.81236h5.848653v5.81236z"/><path d="m69.793036 116.36953v-5.81568h5.818992v5.81568z"/><path d="m122.18674 116.36621h-5.81568v-5.819h5.81568z"/><path d="m93.074773 116.35716v-5.81236h5.848653v5.81236z"/><path d="m104.7382 116.36289v-5.81568h5.81899v5.81568z"/><path d="m11.6362 116.35806v-5.81236h5.848648v5.81236z"/></g></g></g></svg>