<?xml version="1.0" encoding="UTF-8" standalone="no"?>
<svg
   xmlns:dc="http://purl.org/dc/elements/1.1/"
   xmlns:cc="http://creativecommons.org/ns#"
   xmlns:rdf="http://www.w3.org/1999/02/22-rdf-syntax-ns#"
   xmlns:svg="http://www.w3.org/2000/svg"
   xmlns="http://www.w3.org/2000/svg"
   xmlns:xlink="http://www.w3.org/1999/xlink"
   xmlns:sodipodi="http://sodipodi.sourceforge.net/DTD/sodipodi-0.dtd"
   xmlns:inkscape="http://www.inkscape.org/namespaces/inkscape"
   height="24"
   viewBox="0 0 6.3499999 6.3500003"
   width="24"
   version="1.1"
   id="svg20"
   sodipodi:docname="lc_resetattributes.svg"
   inkscape:version="0.92.4 (unknown)"
   inkscape:export-filename="/home/rizmut/Dokumen/Rizmut/Github/libreoffice-style-karasa-jaga/build/next/cmd/lc_resetattributes.png"
   inkscape:export-xdpi="96"
   inkscape:export-ydpi="96">
  <metadata
     id="metadata26">
    <rdf:RDF>
      <cc:Work
         rdf:about="">
        <dc:format>image/svg+xml</dc:format>
        <dc:type
           rdf:resource="http://purl.org/dc/dcmitype/StillImage" />
        <dc:title></dc:title>
      </cc:Work>
    </rdf:RDF>
  </metadata>
  <defs
     id="defs24">
    <linearGradient
       inkscape:collect="always"
       xlink:href="#b"
       id="linearGradient1393"
       x1="35.816406"
       y1="48.56543"
       x2="58.066406"
       y2="48.56543"
       gradientUnits="userSpaceOnUse"
       gradientTransform="matrix(0.26458334,0,0,0.26458334,5.8760011,-0.83204363)" />
    <linearGradient
       id="d"
       gradientTransform="matrix(0.2038923,-3.601e-4,-3.601e-4,0.2038923,-283.09723,242.35471)"
       gradientUnits="userSpaceOnUse"
       x1="1520.4941"
       x2="1437.158"
       y1="226.94199"
       y2="143.60587">
      <stop
         offset="0"
         stop-color="#bf0303"
         id="stop19" />
      <stop
         offset="1"
         stop-color="#fe9494"
         id="stop21" />
    </linearGradient>
  </defs>
  <sodipodi:namedview
     pagecolor="#ffffff"
     bordercolor="#666666"
     borderopacity="1"
     objecttolerance="10"
     gridtolerance="10"
     guidetolerance="10"
     inkscape:pageopacity="0"
     inkscape:pageshadow="2"
     inkscape:window-width="1366"
     inkscape:window-height="706"
     id="namedview22"
     showgrid="true"
     inkscape:zoom="21.727273"
     inkscape:cx="9.1589958"
     inkscape:cy="12.841004"
     inkscape:window-x="0"
     inkscape:window-y="0"
     inkscape:window-maximized="1"
     inkscape:current-layer="g4786">
    <inkscape:grid
       type="xygrid"
       id="grid821"
       spacingx="0.13229167"
       spacingy="0.13229167"
       empspacing="2" />
  </sodipodi:namedview>
  <linearGradient
     id="a"
     gradientUnits="userSpaceOnUse"
     x1="18.996088"
     x2="20.22575"
     y1="294.8226"
     y2="266.54037"
     gradientTransform="matrix(0.82,0,0,0.82,6.1536342,-213.8357)">
    <stop
       offset="0"
       stop-color="#555"
       id="stop2" />
    <stop
       offset="1"
       id="stop4" />
  </linearGradient>
  <linearGradient
     id="b"
     gradientUnits="userSpaceOnUse"
     x1="53.856667"
     x2="72.864624"
     y1="1.845663"
     y2="61.042988"
     gradientTransform="matrix(0.21695833,0,0,0.21695833,3.048,3.0518754)">
    <stop
       offset="0"
       stop-color="#3b3e22"
       id="stop7" />
    <stop
       offset="1"
       stop-color="#454545"
       stop-opacity="0"
       id="stop9" />
  </linearGradient>
  <g
     id="g4786"
     transform="matrix(0.171875,0,0,0.171875,0,0.53345016)">
    <g
       id="g4791"
       transform="translate(0,-1.539394)">
      <text
         id="text14"
         y="27.712128"
         x="10.016239"
         style="font-size:33.53633881px;font-family:sans-serif;letter-spacing:0;word-spacing:0;fill:url(#a);stroke-width:0.83840817">
        <tspan
           style="font-style:italic;font-variant:normal;font-weight:normal;font-stretch:normal;font-size:35.29129791px;font-family:FreeSerif;-inkscape-font-specification:'FreeSerif Italic';fill:url(#a);stroke-width:0.83840817"
           id="tspan12"
           y="27.712128"
           x="10.016239"
           font-weight="bold"
           font-size="43.038166">I</tspan>
      </text>
      <path
         style="opacity:1;vector-effect:none;fill:url(#linearGradient1393);fill-opacity:1;stroke:none;stroke-width:0.32500002;stroke-linecap:butt;stroke-linejoin:miter;stroke-miterlimit:4;stroke-dasharray:none;stroke-dashoffset:0;stroke-opacity:1"
         d="m 17.571412,4.9200601 c 0.01316,0.00752 0.01656,0.025209 0.02946,0.033073 0.0103,0.00693 0.02849,0.00271 0.03876,0.00982 z m 3.667993,0.3085084 -0.03152,0.025321 c 0.0062,-0.0057 0.0155,-0.00626 0.0217,-0.011886 0.0045,-0.00382 0.0053,-0.00963 0.0098,-0.013436 z m -3.050977,0.3669028 c 0.209738,0.3556765 0.345716,0.7545655 0.345716,1.1544514 0,0.6898461 -0.152091,1.4765023 -0.423747,2.4396447 l -2.757971,9.9058546 a 20.018645,9.9016955 0 0 0 0.783931,0.01964 20.018645,9.9016955 0 0 0 0.729671,-0.01292 L 20.059632,7.5958661 a 0.92956808,0.92956808 0 0 1 0.0021,-0.00207 C 20.30601,6.7183524 20.553607,6.1058028 20.969654,5.5954713 Z"
         id="path1378"
         inkscape:connector-curvature="0" />
    </g>
    <g
       id="g70"
       transform="matrix(0.73602107,0,0,0.73602107,5.7211327,-184.73438)">
      <g
         id="g60"
         style="fill-rule:evenodd">
        <path
           id="path54"
           d="m 15.978629,296.69414 -7.7113467,-7.71135 4.6394457,-4.63945 9.132992,9.21693 -3.043624,3.04362 z"
           inkscape:connector-curvature="0"
           style="fill:#ffffff;stroke:#000000;stroke-width:0.61167598;stroke-opacity:0.70658701" />
        <path
           id="path56"
           style="fill:url(#d);stroke:#000000;stroke-width:0.61167598;stroke-linecap:round;stroke-linejoin:round;stroke-opacity:0.62275498"
           d="m 22.552832,293.3072 -9.35139,-9.35138 9.384479,-9.38446 9.351369,9.35137 z"
           inkscape:connector-curvature="0" />
        <path
           id="path58"
           d="m 19.379651,290.30188 -3.172885,-3.17288 9.552335,-9.55232 3.172863,3.17288 z"
           inkscape:connector-curvature="0"
           style="fill:#ffffff;stroke:#000000;stroke-width:0.61167598;stroke-opacity:0.48502999" />
      </g>
      <path
         id="path62"
         d="m 20.131423,287.06805 -0.638921,-0.63153 0.658753,-0.65117 0.06776,0.067 -0.491471,0.48581 0.205042,0.20268 0.411818,-0.40708 0.06693,0.0661 -0.411826,0.40707 0.231399,0.22872 0.525745,-0.51969 0.06776,0.067 -0.693009,0.68503 m 0.885827,-0.87558 -0.638983,-0.63152 0.356864,-0.35275 c 0.113098,-0.11182 0.21323,-0.184 0.300288,-0.21658 0.08757,-0.0331 0.157121,-0.0242 0.208657,0.0267 0.08516,0.0842 0.06626,0.22243 -0.05686,0.41465 l 0.692683,-0.0933 -0.205515,0.20314 -0.605591,0.0644 -0.156137,0.15432 0.270256,0.26711 -0.165666,0.16377 m -0.172369,-0.49788 0.05412,-0.0536 c 0.210301,-0.20786 0.270684,-0.35604 0.181189,-0.44451 -0.06588,-0.0651 -0.18701,-0.0106 -0.363318,0.1637 l -0.105179,0.1039 0.233131,0.23042 m 1.557778,-1.35462 -0.476221,-0.0738 0.07393,0.47145 0.402281,-0.39764 m 0.421183,0.0667 -0.305262,-0.0482 -0.499447,0.49369 0.04715,0.30329 -0.155336,0.15352 -0.171396,-1.09372 0.165708,-0.16378 1.099358,0.17642 -0.180798,0.17874 m 0.597473,-0.559 c -0.07914,0.0782 -0.189673,0.16896 -0.331604,0.27225 l -0.08976,-0.0887 c 0.166141,-0.0982 0.291942,-0.18961 0.37744,-0.27412 0.06583,-0.0651 0.109343,-0.12657 0.130468,-0.18443 0.02166,-0.0584 0.01731,-0.10264 -0.01322,-0.13281 -0.02506,-0.0247 -0.05964,-0.0327 -0.103737,-0.0238 -0.04355,0.008 -0.111452,0.0368 -0.203656,0.0853 l -0.106752,0.0551 c -0.131449,0.0685 -0.231553,0.10969 -0.300326,0.12362 -0.06849,0.0131 -0.121035,0.002 -0.15759,-0.0345 -0.04924,-0.0487 -0.05671,-0.12116 -0.02253,-0.21754 0.0339,-0.0967 0.10182,-0.1954 0.203783,-0.29618 0.09084,-0.0898 0.194864,-0.1764 0.312168,-0.25992 l 0.08291,0.0819 c -0.150765,0.0967 -0.256665,0.17517 -0.317733,0.23554 -0.05792,0.0572 -0.09734,0.1127 -0.118328,0.16648 -0.02099,0.0538 -0.01892,0.0932 0.0065,0.1182 0.02131,0.0211 0.05397,0.026 0.09801,0.0149 0.04398,-0.0111 0.114008,-0.0416 0.210047,-0.0916 l 0.110348,-0.0579 c 0.133324,-0.0698 0.234099,-0.11082 0.302404,-0.12312 0.06826,-0.0123 0.121948,8.2e-4 0.161107,0.0396 0.05555,0.0549 0.06219,0.13654 0.01996,0.24488 -0.04176,0.10782 -0.124991,0.22342 -0.249767,0.34677 m 0.632408,-0.65672 -0.638942,-0.63153 0.658761,-0.65117 0.06776,0.067 -0.491462,0.48581 0.205022,0.20269 0.411839,-0.40709 0.06692,0.0661 -0.411799,0.40708 0.231404,0.22872 0.525726,-0.51968 0.06776,0.067 -0.692988,0.68503 m 0.885786,-0.87557 -0.638939,-0.63152 0.356861,-0.35275 c 0.113099,-0.11182 0.213167,-0.184 0.300244,-0.21658 0.08763,-0.0331 0.157141,-0.0242 0.208677,0.0267 0.08516,0.0842 0.06622,0.22242 -0.05686,0.41465 l 0.692684,-0.0933 -0.205515,0.20315 -0.605611,0.0644 -0.156139,0.15432 0.270277,0.26712 -0.165687,0.16377 m -0.172344,-0.49788 0.05413,-0.0536 c 0.210253,-0.20787 0.270684,-0.35604 0.181148,-0.44451 -0.0659,-0.0651 -0.186991,-0.0106 -0.363317,0.1637 l -0.105179,0.1039 0.233152,0.23042"
         inkscape:connector-curvature="0"
         style="fill:#9c0f0f;stroke:#9c0f0f;stroke-width:0.20389199;stroke-opacity:0.652695" />
      <path
         id="path64"
         style="fill:#dddddd;fill-rule:evenodd;stroke:#000000;stroke-width:0.61167598;stroke-linejoin:round;stroke-opacity:0.70059904"
         d="m 25.263625,272.01128 8.436538,8.47851 -0.0064,1.67237 -1.827457,1.79874 -9.30033,-9.3423 2.697626,-2.60732 z"
         inkscape:connector-curvature="0" />
      <path
         id="path66"
         d="m 25.252247,272.51923 -2.265898,2.14044 2.927203,2.92721 2.307938,-2.2243 z"
         inkscape:connector-curvature="0"
         style="opacity:0.177778;fill-rule:evenodd" />
      <path
         id="path68"
         d="m 31.064843,278.33182 -2.265898,2.14045 3.094686,2.9688 1.474401,-1.42098 -0.02415,-1.61937 z"
         inkscape:connector-curvature="0"
         style="opacity:0.65555576;fill:#ffffff;fill-rule:evenodd" />
    </g>
  </g>
</svg>
