<?xml version="1.0" encoding="UTF-8" standalone="no"?>
<svg
   xmlns:dc="http://purl.org/dc/elements/1.1/"
   xmlns:cc="http://creativecommons.org/ns#"
   xmlns:rdf="http://www.w3.org/1999/02/22-rdf-syntax-ns#"
   xmlns:svg="http://www.w3.org/2000/svg"
   xmlns="http://www.w3.org/2000/svg"
   xmlns:sodipodi="http://sodipodi.sourceforge.net/DTD/sodipodi-0.dtd"
   xmlns:inkscape="http://www.inkscape.org/namespaces/inkscape"
   enable-background="new 0 0 128 128"
   height="128"
   viewBox="0 0 128 128"
   width="128"
   version="1.1"
   id="svg111"
   sodipodi:docname="lc_ruler.svg"
   inkscape:version="0.92.3 (unknown)"
   inkscape:export-filename="/home/rizmut/Dokumen/Rizmut/Github/libreoffice-style-karasa-jaga/build/next/cmd/lc_ruler.png"
   inkscape:export-xdpi="18"
   inkscape:export-ydpi="18">
  <metadata
     id="metadata117">
    <rdf:RDF>
      <cc:Work
         rdf:about="">
        <dc:format>image/svg+xml</dc:format>
        <dc:type
           rdf:resource="http://purl.org/dc/dcmitype/StillImage" />
        <dc:title></dc:title>
      </cc:Work>
    </rdf:RDF>
  </metadata>
  <defs
     id="defs115" />
  <sodipodi:namedview
     pagecolor="#ffffff"
     bordercolor="#666666"
     borderopacity="1"
     objecttolerance="10"
     gridtolerance="10"
     guidetolerance="10"
     inkscape:pageopacity="0"
     inkscape:pageshadow="2"
     inkscape:window-width="1366"
     inkscape:window-height="706"
     id="namedview113"
     showgrid="true"
     inkscape:zoom="2.6074563"
     inkscape:cx="50.769932"
     inkscape:cy="53.969113"
     inkscape:window-x="0"
     inkscape:window-y="0"
     inkscape:window-maximized="1"
     inkscape:current-layer="svg111">
    <inkscape:grid
       type="xygrid"
       id="grid924"
       spacingx="5.33333"
       spacingy="5.33333" />
  </sodipodi:namedview>
  <linearGradient
     id="a"
     gradientUnits="userSpaceOnUse"
     x1="88.591797"
     x2="71.262016"
     y1="96.592697"
     y2="79.262917">
    <stop
       offset="0"
       stop-color="#fff"
       id="stop2" />
    <stop
       offset="1"
       stop-color="#555753"
       id="stop4" />
  </linearGradient>
  <linearGradient
     id="b"
     gradientUnits="userSpaceOnUse"
     x1="85.219681"
     x2="61.336319"
     y1="93.219681"
     y2="69.336319">
    <stop
       offset="0"
       id="stop7" />
    <stop
       offset="1"
       stop-color="#393b38"
       id="stop9" />
  </linearGradient>
  <linearGradient
     id="c"
     gradientUnits="userSpaceOnUse"
     x1="96"
     x2="88.0002"
     y1="104"
     y2="96.0002">
    <stop
       offset="0"
       stop-color="#888a85"
       id="stop12" />
    <stop
       offset=".0072"
       stop-color="#8c8e89"
       id="stop14" />
    <stop
       offset=".0673"
       stop-color="#abaca9"
       id="stop16" />
    <stop
       offset=".1347"
       stop-color="#c5c6c4"
       id="stop18" />
    <stop
       offset=".2115"
       stop-color="#dbdbda"
       id="stop20" />
    <stop
       offset=".3012"
       stop-color="#ebebeb"
       id="stop22" />
    <stop
       offset=".4122"
       stop-color="#f7f7f6"
       id="stop24" />
    <stop
       offset=".5679"
       stop-color="#fdfdfd"
       id="stop26" />
    <stop
       offset="1"
       stop-color="#fff"
       id="stop28" />
  </linearGradient>
  <radialGradient
     id="d"
     cx="102"
     cy="112.3047"
     gradientTransform="matrix(0.94807,0,0,0.9510679,3.370767,5.274458)"
     gradientUnits="userSpaceOnUse"
     r="139.55859">
    <stop
       offset="0"
       stop-color="#535557"
       id="stop31" />
    <stop
       offset=".11366145"
       stop-color="#898a8c"
       id="stop33" />
    <stop
       offset=".20296688"
       stop-color="#ececec"
       id="stop35" />
    <stop
       offset=".2363"
       stop-color="#fafafa"
       id="stop37" />
    <stop
       offset=".2722"
       stop-color="#fff"
       id="stop39" />
    <stop
       offset=".5313"
       stop-color="#fafafa"
       id="stop41" />
    <stop
       offset=".8449"
       stop-color="#ebecec"
       id="stop43" />
    <stop
       offset="1"
       stop-color="#e1e2e3"
       id="stop45" />
  </radialGradient>
  <radialGradient
     id="e"
     cx="100.8570934"
     cy="112.93460525694"
     gradientUnits="userSpaceOnUse"
     r="135.1875556917">
    <stop
       offset="0"
       stop-color="#3e3e3e"
       id="stop48" />
    <stop
       offset=".0151"
       stop-color="#505050"
       id="stop50" />
    <stop
       offset=".0558"
       stop-color="#7e7e7e"
       id="stop52" />
    <stop
       offset=".1357"
       stop-color="#c6c6c6"
       id="stop54" />
    <stop
       offset=".20990001"
       stop-color="#f1f1f1"
       id="stop56" />
    <stop
       offset=".24349999"
       stop-color="#fcfcfc"
       id="stop58" />
    <stop
       offset=".2722"
       stop-color="#fff"
       id="stop60" />
  </radialGradient>
  <filter
     id="f">
    <feGaussianBlur
       stdDeviation="1.0394514"
       id="feGaussianBlur63" />
  </filter>
  <filter
     id="g">
    <feGaussianBlur
       stdDeviation=".50063244"
       id="feGaussianBlur66" />
  </filter>
  <filter
     id="h">
    <feGaussianBlur
       stdDeviation=".40750996"
       id="feGaussianBlur69" />
  </filter>
  <filter
     id="i">
    <feGaussianBlur
       stdDeviation=".4901192"
       id="feGaussianBlur72" />
  </filter>
  <filter
     id="j">
    <feGaussianBlur
       stdDeviation=".90565481"
       id="feGaussianBlur75" />
  </filter>
  <radialGradient
     id="k"
     cx="64"
     cy="44.604801"
     gradientTransform="matrix(0.5972287,0,0,0.3333333,5.777365,49.131734)"
     gradientUnits="userSpaceOnUse"
     r="60">
    <stop
       offset="0"
       stop-color="#75511a"
       id="stop78" />
    <stop
       offset="1"
       stop-color="#382509"
       id="stop80" />
  </radialGradient>
  <g
     id="g940"
     transform="matrix(1.0909091,0,0,1.0909091,-8.4794418,-7.6448175)">
    <path
       id="path83"
       transform="matrix(1.0090419,0,0,1.003276,-7.59473,0.929762)"
       d="M 23,8.9687825 23.040816,122.99347 H 84.172 c 0.53,0 1.039,-0.211 1.414,-0.586 l 32.828,-32.828001 c 0.375,-0.375 0.586,-0.884 0.586,-1.414 V 8.9687825 Z"
       inkscape:connector-curvature="0"
       style="opacity:0.55342503;filter:url(#f)" />
    <path
       id="path85"
       transform="matrix(1.0090419,0,0,1.003276,-7.59473,0.929762)"
       d="m 23,9 0.04082,113.99347 H 84.172 c 0.53,0 1.039,-0.211 1.414,-0.586 l 32.828,-32.828001 c 0.375,-0.375 0.586,-0.884 0.586,-1.414 V 9 Z"
       inkscape:connector-curvature="0"
       style="opacity:0.30684904;filter:url(#f)" />
    <path
       id="path87"
       transform="matrix(1.0090419,0,0,1.003276,-7.59473,0.929762)"
       d="M 24.919999,10.931136 V 120.86319 l 58.676001,-1e-4 c 0.53,0 1.039,-0.211 1.414,-0.586 l 31.484,-31.765934 c 0.375,-0.375 0.586,-0.884 0.586,-1.414 v -76.16602 z"
       inkscape:connector-curvature="0"
       style="opacity:0.89589;filter:url(#g)" />
    <path
       id="path89"
       transform="matrix(1.0090419,0,0,1.003276,-7.59473,0.929762)"
       d="M 23,9.9655172 23.040816,122.99347 H 84.172 c 0.53,0 1.039,-0.211 1.414,-0.586 l 32.828,-32.828001 c 0.375,-0.375 0.586,-0.884 0.586,-1.414 V 9.9655172 Z"
       inkscape:connector-curvature="0"
       style="opacity:0.30684904;filter:url(#f)" />
    <path
       id="path91"
       d="M 17.550596,11.896708 V 122.18889 h 59.256106 c 0.513401,0 1.006458,-0.20439 1.369714,-0.56765 L 109.97625,89.821411 c 0.36326,-0.363255 0.56764,-0.856313 0.56764,-1.369714 V 11.896708 Z"
       style="fill:url(#e)"
       inkscape:connector-curvature="0" />
    <path
       id="path93"
       d="m 24.114103,17.512144 c -0.522387,0 -0.94807,0.42703 -0.94807,0.951069 l 0.321923,96.737247 c 0,0.525 0.425684,0.95108 0.94807,0.95108 h 52.099199 c 0.249342,0 0.493944,-0.10082 0.670284,-0.27867 L 105.32875,88.651213 c 0.17729,-0.17785 0.27778,-0.422273 0.27778,-0.672405 V 17.785136 c 0,-0.524039 -0.42473,-0.951068 -0.94806,-0.951068 z"
       style="fill:url(#d)"
       inkscape:connector-curvature="0" />
    <g
       id="g103"
       transform="matrix(1.1080161,0,0,1.1080161,-12.697537,-10.01667)">
      <path
         id="path95"
         d="M 111.414,86.586 C 111.664,86.336 85.035,85 80,85 c -1.654,0 -3,1.346 -3,3 0,5.035 1.336,31.664 1.586,31.414 z"
         style="opacity:0.75068497;fill:url(#a);filter:url(#h)"
         inkscape:connector-curvature="0" />
      <path
         id="path97"
         d="M 111.414,86.586 C 111.789,86.211 89.444,86 80,86 c -1.103,0 -2,0.897 -2,2 0,9.444 0.211,31.789 0.586,31.414 z"
         inkscape:connector-curvature="0"
         style="opacity:0.2;filter:url(#j)" />
      <path
         id="path99"
         d="M 111.414,86.586 C 111.653,86.347 89.807,87 80,87 c -0.553,0 -1,0.447 -1,1 0,9.807 -0.653,31.653 -0.414,31.414 z"
         style="opacity:0.1;fill:url(#b);filter:url(#i)"
         inkscape:connector-curvature="0" />
      <path
         id="path101"
         d="M 79.721619,119.31106 111.22712,87.805556 H 79.721619 Z"
         style="fill:url(#c)"
         inkscape:connector-curvature="0" />
    </g>
    <g
       id="g109"
       transform="matrix(1.45455,0,0,1.45455,-2e-4,-40.7267)">
      <rect
         id="rect105"
         y="63.067268"
         x="5.3439355"
         width="77.305267"
         rx="6"
         height="13.444389"
         style="fill:url(#k)" />
      <path
         id="path107"
         d="M 8.7050341,66.428367 H 79.288102 v 6.722197 H 8.7050341 Z"
         inkscape:connector-curvature="0"
         style="fill:#debc85"
         sodipodi:nodetypes="ccccc" />
    </g>
  </g>
</svg>
