<?xml version="1.0" encoding="UTF-8" standalone="no"?>
<svg
   xmlns:dc="http://purl.org/dc/elements/1.1/"
   xmlns:cc="http://creativecommons.org/ns#"
   xmlns:rdf="http://www.w3.org/1999/02/22-rdf-syntax-ns#"
   xmlns:svg="http://www.w3.org/2000/svg"
   xmlns="http://www.w3.org/2000/svg"
   xmlns:sodipodi="http://sodipodi.sourceforge.net/DTD/sodipodi-0.dtd"
   xmlns:inkscape="http://www.inkscape.org/namespaces/inkscape"
   enable-background="new 0 0 128 128"
   height="24"
   viewBox="0 0 24 24"
   width="24"
   version="1.1"
   id="svg3195"
   sodipodi:docname="lc_ruler.svg"
   inkscape:version="0.92.4 (unknown)"
   inkscape:export-filename="/home/rizmut/Dokumen/Rizmut/Github/libreoffice-style-karasa-jaga/build/next/cmd/lc_ruler.png"
   inkscape:export-xdpi="18"
   inkscape:export-ydpi="18">
  <metadata
     id="metadata3201">
    <rdf:RDF>
      <cc:Work
         rdf:about="">
        <dc:format>image/svg+xml</dc:format>
        <dc:type
           rdf:resource="http://purl.org/dc/dcmitype/StillImage" />
        <dc:title></dc:title>
      </cc:Work>
    </rdf:RDF>
  </metadata>
  <defs
     id="defs3199">
    <radialGradient
       id="k"
       cx="64"
       cy="44.604801"
       gradientTransform="matrix(0.5972287,0,0,0.3333333,5.777365,49.131734)"
       gradientUnits="userSpaceOnUse"
       r="60">
      <stop
         offset="0"
         stop-color="#75511a"
         id="stop78" />
      <stop
         offset="1"
         stop-color="#382509"
         id="stop80" />
    </radialGradient>
  </defs>
  <sodipodi:namedview
     pagecolor="#ffffff"
     bordercolor="#666666"
     borderopacity="1"
     objecttolerance="10"
     gridtolerance="10"
     guidetolerance="10"
     inkscape:pageopacity="0"
     inkscape:pageshadow="2"
     inkscape:window-width="1366"
     inkscape:window-height="714"
     id="namedview3197"
     showgrid="true"
     inkscape:zoom="10.518213"
     inkscape:cx="23.300714"
     inkscape:cy="20.810577"
     inkscape:window-x="0"
     inkscape:window-y="28"
     inkscape:window-maximized="1"
     inkscape:current-layer="svg3195"
     inkscape:snap-global="true">
    <inkscape:grid
       type="xygrid"
       id="grid3203"
       spacingx="0.5"
       spacingy="0.5" />
  </sodipodi:namedview>
  <linearGradient
     id="a"
     gradientUnits="userSpaceOnUse"
     x1="88.591797"
     x2="71.262016"
     y1="96.592697"
     y2="79.262917">
    <stop
       offset="0"
       stop-color="#fff"
       id="stop3097" />
    <stop
       offset="1"
       stop-color="#555753"
       id="stop3099" />
  </linearGradient>
  <linearGradient
     id="b"
     gradientUnits="userSpaceOnUse"
     x1="85.219681"
     x2="61.336319"
     y1="93.219681"
     y2="69.336319">
    <stop
       offset="0"
       id="stop3102" />
    <stop
       offset="1"
       stop-color="#393b38"
       id="stop3104" />
  </linearGradient>
  <linearGradient
     id="c"
     gradientUnits="userSpaceOnUse"
     x1="96"
     x2="88.000198"
     y1="104"
     y2="96.000198">
    <stop
       offset="0"
       stop-color="#888a85"
       id="stop3107" />
    <stop
       offset=".0072"
       stop-color="#8c8e89"
       id="stop3109" />
    <stop
       offset=".0673"
       stop-color="#abaca9"
       id="stop3111" />
    <stop
       offset=".1347"
       stop-color="#c5c6c4"
       id="stop3113" />
    <stop
       offset=".2115"
       stop-color="#dbdbda"
       id="stop3115" />
    <stop
       offset=".3012"
       stop-color="#ebebeb"
       id="stop3117" />
    <stop
       offset=".4122"
       stop-color="#f7f7f6"
       id="stop3119" />
    <stop
       offset=".5679"
       stop-color="#fdfdfd"
       id="stop3121" />
    <stop
       offset="1"
       stop-color="#fff"
       id="stop3123" />
  </linearGradient>
  <radialGradient
     id="d"
     cx="102"
     cy="112.3047"
     gradientTransform="matrix(1.0342582,0,0,1.0375286,-4.7865398,-1.6086359)"
     gradientUnits="userSpaceOnUse"
     r="139.55859">
    <stop
       offset="0"
       stop-color="#535557"
       id="stop3126" />
    <stop
       offset=".11366145"
       stop-color="#898a8c"
       id="stop3128" />
    <stop
       offset=".20296688"
       stop-color="#ececec"
       id="stop3130" />
    <stop
       offset=".2363"
       stop-color="#fafafa"
       id="stop3132" />
    <stop
       offset=".2722"
       stop-color="#fff"
       id="stop3134" />
    <stop
       offset=".5313"
       stop-color="#fafafa"
       id="stop3136" />
    <stop
       offset=".8449"
       stop-color="#ebecec"
       id="stop3138" />
    <stop
       offset="1"
       stop-color="#e1e2e3"
       id="stop3140" />
  </radialGradient>
  <radialGradient
     id="e"
     cx="100.80984"
     cy="112.93461"
     gradientUnits="userSpaceOnUse"
     r="135.18756"
     gradientTransform="matrix(1.0909091,0,0,1.0909091,-8.412198,-7.3625901)">
    <stop
       offset="0"
       stop-color="#3e3e3e"
       id="stop3143" />
    <stop
       offset=".0151"
       stop-color="#505050"
       id="stop3145" />
    <stop
       offset=".0558"
       stop-color="#7e7e7e"
       id="stop3147" />
    <stop
       offset=".1357"
       stop-color="#c6c6c6"
       id="stop3149" />
    <stop
       offset=".20990001"
       stop-color="#f1f1f1"
       id="stop3151" />
    <stop
       offset=".24349999"
       stop-color="#fcfcfc"
       id="stop3153" />
    <stop
       offset=".2722"
       stop-color="#fff"
       id="stop3155" />
  </radialGradient>
  <filter
     id="f">
    <feGaussianBlur
       stdDeviation="1.0394514"
       id="feGaussianBlur3158" />
  </filter>
  <filter
     id="g">
    <feGaussianBlur
       stdDeviation=".50063244"
       id="feGaussianBlur3161" />
  </filter>
  <filter
     id="h">
    <feGaussianBlur
       stdDeviation=".40750996"
       id="feGaussianBlur3164" />
  </filter>
  <filter
     id="i">
    <feGaussianBlur
       stdDeviation=".4901192"
       id="feGaussianBlur3167" />
  </filter>
  <filter
     id="j">
    <feGaussianBlur
       stdDeviation=".90565481"
       id="feGaussianBlur3170" />
  </filter>
  <g
     id="g2018"
     transform="matrix(0.1875,0,0,0.1875,1.8640558e-6,-1.3656782e-5)">
    <path
       id="path3173"
       transform="matrix(1.100773,0,0,1.0944829,-16.7489,-6.3483043)"
       d="m 27.845077,13.841705 0.02654,106.166145 h 56.286107 c 0.53,0 1.02161,-0.22945 1.414,-0.586 L 118.414,89.579469 c 0.39239,-0.356548 0.586,-0.884 0.586,-1.414 V 13.841705 Z"
       inkscape:connector-curvature="0"
       style="opacity:0.55342503;filter:url(#f)"
       sodipodi:nodetypes="ccsssscc" />
    <path
       id="path3175"
       transform="matrix(1.100773,0,0,1.0944829,-16.7489,-6.3483043)"
       d="m 27.845077,13.872922 0.02655,106.134928 H 84.15773 c 0.53,0 1.02161,-0.22945 1.414,-0.586 L 118.414,89.579469 c 0.39239,-0.356548 0.586,-0.884 0.586,-1.414 V 13.872922 Z"
       inkscape:connector-curvature="0"
       style="opacity:0.30684904;filter:url(#f)"
       sodipodi:nodetypes="ccsssscc" />
    <path
       id="path3177"
       transform="matrix(1.100773,0,0,1.0944829,-16.7489,-6.3483043)"
       d="m 29.750812,15.546194 -1.1e-5,102.331376 53.830924,-1e-4 c 0.53,0 1.039,-0.211 1.414,-0.586 L 116.494,88.511156 c 0.375,-0.375 0.586,-0.884 0.586,-1.414 l 0.0812,-71.550962 z"
       inkscape:connector-curvature="0"
       style="opacity:0.89589;filter:url(#g)"
       sodipodi:nodetypes="cccccccc" />
    <path
       id="path3179"
       transform="matrix(1.100773,0,0,1.0944829,-16.7489,-6.3483043)"
       d="m 27.845077,14.838439 0.02654,105.169411 h 56.286107 c 0.53,0 1.02161,-0.22945 1.414,-0.586 L 118.414,89.579469 c 0.39239,-0.356548 0.586,-0.884 0.586,-1.414 v -73.32703 z"
       inkscape:connector-curvature="0"
       style="opacity:0.30684904;filter:url(#f)"
       sodipodi:nodetypes="ccsssscc" />
    <path
       id="path3181"
       d="m 15.99999,10.66674 v 111.99993 h 59.309695 c 0.560074,0 1.097954,-0.22297 1.494234,-0.61925 L 111.51035,90.624405 c 0.39628,-0.396279 0.61924,-0.93416 0.61924,-1.494234 l 0.0894,-78.463431 z"
       style="fill:url(#e);stroke-width:1.09090912"
       inkscape:connector-curvature="0"
       sodipodi:nodetypes="ccsccccc" />
    <path
       id="path3183"
       d="m 23.175884,17.074897 c -0.569876,0 -1.034258,0.465851 -1.034258,1.03753 l 0.33548,96.930503 c 0,0.57273 0.464382,1.03754 1.034258,1.03754 h 51.50216 c 0.27201,0 0.538848,-0.10998 0.731219,-0.304 L 106.44035,89.347825 c 0.19341,-0.194018 0.30303,-0.460662 0.30303,-0.733533 l -0.76364,-70.477949 c 0,-0.571679 -0.46334,-1.037529 -1.03424,-1.037529 z"
       style="fill:url(#d);stroke-width:1.09090912"
       inkscape:connector-curvature="0"
       sodipodi:nodetypes="cccsscccccc" />
    <g
       id="g3193"
       transform="matrix(1.2087448,0,0,1.2087448,-22.315599,-18.289867)">
      <path
         id="path3185"
         d="m 111.52523,88.365747 c 0.26305,-0.236238 -24.821717,-1.141063 -29.856717,-1.141063 -1.654,0 -3,1.346 -3,3 0,5.035 1.211722,26.561276 1.474766,26.325036 z"
         style="opacity:0.75068497;fill:url(#a);filter:url(#h)"
         inkscape:connector-curvature="0"
         sodipodi:nodetypes="sssss" />
      <path
         id="path3187"
         d="m 111.52523,88.365747 c 0.39457,-0.354357 -20.412717,-0.141063 -29.856717,-0.141063 -1.103,0 -2,0.897 -2,2 0,9.444 0.0802,26.679386 0.474766,26.325036 z"
         inkscape:connector-curvature="0"
         style="opacity:0.2;filter:url(#j)"
         sodipodi:nodetypes="sssss" />
      <path
         id="path3189"
         d="m 111.52523,88.365747 c 0.25147,-0.225842 -20.049717,0.858937 -29.856717,0.858937 -0.553,0 -1,0.447 -1,1 0,9.806996 -0.776705,26.550876 -0.525234,26.325036 z"
         style="opacity:0.1;fill:url(#b);filter:url(#i)"
         inkscape:connector-curvature="0"
         sodipodi:nodetypes="sssss" />
      <path
         id="path3191"
         d="M 81.278898,116.44678 111.33835,89.585303 81.390132,90.03024 Z"
         style="fill:url(#c)"
         inkscape:connector-curvature="0"
         sodipodi:nodetypes="cccc" />
      <g
         transform="matrix(1.3127517,0,0,1.3127517,11.446534,-27.949721)"
         id="g109">
        <rect
           style="fill:url(#k)"
           height="10.08329"
           rx="6"
           width="73.944168"
           x="8.7050343"
           y="66.428368"
           id="rect105" />
        <path
           sodipodi:nodetypes="ccccc"
           style="fill:#debc85"
           inkscape:connector-curvature="0"
           d="m 12.066132,69.789467 67.221969,-10e-7 10e-7,3.361098 -67.221969,10e-7 z"
           id="path107" />
      </g>
    </g>
  </g>
</svg>
