<?xml version="1.0" encoding="UTF-8" standalone="no"?>
<svg
   xmlns:dc="http://purl.org/dc/elements/1.1/"
   xmlns:cc="http://creativecommons.org/ns#"
   xmlns:rdf="http://www.w3.org/1999/02/22-rdf-syntax-ns#"
   xmlns:svg="http://www.w3.org/2000/svg"
   xmlns="http://www.w3.org/2000/svg"
   xmlns:sodipodi="http://sodipodi.sourceforge.net/DTD/sodipodi-0.dtd"
   xmlns:inkscape="http://www.inkscape.org/namespaces/inkscape"
   height="24"
   viewBox="0 0 6.3499999 6.3500001"
   width="24"
   version="1.1"
   id="svg74"
   sodipodi:docname="lc_renameslide.svg"
   inkscape:version="0.92.4 (unknown)"
   inkscape:export-filename="/home/rizmut/Dokumen/Rizmut/Github/libreoffice-style-karasa-jaga/build/next/cmd/lc_renameslide.png"
   inkscape:export-xdpi="96"
   inkscape:export-ydpi="96">
  <metadata
     id="metadata80">
    <rdf:RDF>
      <cc:Work
         rdf:about="">
        <dc:format>image/svg+xml</dc:format>
        <dc:type
           rdf:resource="http://purl.org/dc/dcmitype/StillImage" />
        <dc:title></dc:title>
      </cc:Work>
    </rdf:RDF>
  </metadata>
  <defs
     id="defs78" />
  <sodipodi:namedview
     pagecolor="#ffffff"
     bordercolor="#666666"
     borderopacity="1"
     objecttolerance="10"
     gridtolerance="10"
     guidetolerance="10"
     inkscape:pageopacity="0"
     inkscape:pageshadow="2"
     inkscape:window-width="1366"
     inkscape:window-height="706"
     id="namedview76"
     showgrid="false"
     inkscape:zoom="9.8333333"
     inkscape:cx="-15.355932"
     inkscape:cy="11.186441"
     inkscape:window-x="0"
     inkscape:window-y="0"
     inkscape:window-maximized="1"
     inkscape:current-layer="g72" />
  <filter
     id="a">
    <feGaussianBlur
       stdDeviation="1.9"
       id="feGaussianBlur2" />
  </filter>
  <radialGradient
     id="b"
     cx="100.88867"
     cy="155.99673"
     gradientTransform="matrix(4.4358932 0 0 4.0437488 -312.90386 -445.7342)"
     gradientUnits="userSpaceOnUse"
     r="40">
    <stop
       offset="0"
       stop-color="#fff"
       id="stop5" />
    <stop
       offset=".11366145"
       stop-color="#bdbebf"
       id="stop7" />
    <stop
       offset=".20296688"
       stop-color="#ececec"
       id="stop9" />
    <stop
       offset=".2363"
       stop-color="#fafafa"
       id="stop11" />
    <stop
       offset=".38818121"
       stop-color="#fff"
       id="stop13" />
    <stop
       offset=".5313"
       stop-color="#fafafa"
       id="stop15" />
    <stop
       offset=".8449"
       stop-color="#ebecec"
       id="stop17" />
    <stop
       offset="1"
       stop-color="#e1e2e3"
       id="stop19" />
  </radialGradient>
  <radialGradient
     id="c"
     cx="48"
     cy="112"
     gradientTransform="matrix(1.0107803 0 0 .7798658 30.921447 25.75368)"
     gradientUnits="userSpaceOnUse"
     r="32">
    <stop
       offset="0"
       stop-color="#ffea00"
       id="stop22" />
    <stop
       offset="1"
       stop-color="#ffa000"
       id="stop24" />
  </radialGradient>
  <linearGradient
     id="d"
     gradientUnits="userSpaceOnUse"
     x1="52.663445"
     x2="52.663445"
     y1="62.977589"
     y2="67.365891">
    <stop
       offset="0"
       id="stop27" />
    <stop
       offset="1"
       stop-opacity="0"
       id="stop29" />
  </linearGradient>
  <filter
     id="e">
    <feGaussianBlur
       stdDeviation="1.1263538"
       id="feGaussianBlur32" />
  </filter>
  <filter
     id="f"
     height="1.294962"
     width="1.106002"
     x="-.053001"
     y="-.147481">
    <feGaussianBlur
       stdDeviation="1.4133574"
       id="feGaussianBlur35" />
  </filter>
  <linearGradient
     id="g"
     gradientUnits="userSpaceOnUse"
     x1="56"
     x2="56"
     y1="32"
     y2="88.117546">
    <stop
       offset="0"
       stop-color="#fff"
       id="stop38" />
    <stop
       offset="1"
       stop-color="#fff"
       stop-opacity="0"
       id="stop40" />
  </linearGradient>
  <clipPath
     id="h">
    <path
       d="m19.612718 62.977532c-1.219674 0-2.1875.967827-2.1875 2.1875v17.062499c9.640301 2.396967 27.001626 4.247351 38.49233 4.247351 11.490703 0 22.359698-1.353033 31.999999-3.75v-17.062499c0-1.219674-.967827-2.1875-2.1875-2.1875z"
       filter="url(#f)"
       id="path43" />
  </clipPath>
  <g
     transform="matrix(.05939994 0 0 .05798391 -1.82366 -1.485529)"
     id="g60">
    <path
       d="m15.595819 41.723588c-3.884437 0-6.9999996 3.146813-6.9999996 7.03125l-.0000086 64.932662c0 3.88444 3.1155632 7 7.0000002 7l74.217711-.00006c3.884437 0 7-3.11556 7-7l.000008-64.932658c0-3.884437-3.115563-7.03125-7-7.03125h-9.446083v3.38205c0 .95614-.762611 1.71875-1.71875 1.71875h-12.597438c-.95614 0-1.71875-.762611-1.71875-1.71875v-3.38205z"
       style="fill:#020202;stroke:#000;stroke-width:2;stroke-linecap:round;stroke-linejoin:round;stroke-dashoffset:1.0878;filter:url(#a)"
       transform="matrix(1.0107803 0 0 1.0398212 30.921447 -3.361312)"
       id="path46" />
    <path
       d="m46.306348 39.308882c-3.707572 0-6.696418 3.074719-6.696418 6.888816l.000001 1.840627-.000009 66.490085c0 3.81411 2.988846 6.88882 6.696418 6.88882l75.77588-.00006c3.70757 0 6.69642-3.07471 6.69642-6.88882v-68.33071c0-3.814097-2.98885-6.888816-6.69642-6.888816h-2.29546-8.90853v2.775853c0 .994216-.77083 1.787194-1.73728 1.787194h-.48985-9.398397c-.966447 0-1.737278-.792979-1.737278-1.787194v-2.775853z"
       fill="#fff"
       id="path48" />
    <path
       d="m46.36367 40.348703c-2.935098 0-5.306596 2.439633-5.306596 5.459062l-.000009 69.110575c0 3.01945 2.371497 5.45907 5.306596 5.45907l76.097599-.00006c2.9351 0 5.3066-2.43962 5.3066-5.45907v-69.110573c0-3.019428-2.3715-5.459062-5.3066-5.459062h-11.59043v2.320932c0 1.242766-.97144 2.242115-2.1795 2.242115h-8.98901c-1.20806 0-2.179494-.999347-2.179494-2.242115v-2.320932z"
       fill="url(#b)"
       id="path50" />
    <rect
       fill="url(#c)"
       height="59.319614"
       rx="2.225311"
       ry="2.289247"
       width="71.268311"
       x="48.518463"
       y="52.997967"
       id="rect52" />
    <rect
       clip-path="url(#h)"
       fill="url(#d)"
       filter="url(#e)"
       height="32.912197"
       rx="2.201577"
       transform="matrix(1.0107803 0 0 1.0398212 30.921447 -12.487407)"
       width="70.508209"
       x="17.409338"
       y="62.977589"
       id="rect54" />
    <path
       d="m48.52761 110.10663v1.03982c0 1.26823.978261 2.27576 2.211082 2.27459l66.820938-.0637c1.23282-.001 2.21108-1.00636 2.21108-2.27459v-1.03982c0 1.26823-.97826 2.27344-2.21108 2.27461l-66.820938.0637c-1.232821.001-2.211082-1.00638-2.211082-2.27461z"
       fill="#fff"
       id="path56" />
    <path
       d="m19.612723 46.200989c-1.219674 0-2.1875.967827-2.1875 2.1875l-.000008 24.026412c9.640301 2.396967 28.295297 3.749944 39.786001 3.749944s21.066027-1.237144 30.706328-3.634111l.000008-24.026412c0-1.219674-.967827-2.1875-2.1875-2.1875z"
       fill="url(#g)"
       filter="url(#f)"
       transform="matrix(1.0107803 0 0 1.0398212 30.921443 4.957199)"
       id="path58" />
  </g>
  <g
     stroke-width=".999997"
     transform="matrix(.0454754 0 0 .0454754 -.000009 -.000091)"
     id="g72">
    <rect
       fill="#747474"
       height="40.726574"
       ry="1.454523"
       width="93.08931"
       x=".000199"
       y="5.820081"
       id="rect62" />
    <rect
       fill="#fff"
       height="29.090408"
       ry="1.038945"
       width="81.453148"
       x="5.818281"
       y="11.638163"
       id="rect64" />
    <path
       inkscape:connector-curvature="0"
       style="opacity:1;vector-effect:none;fill:#ffffff;fill-opacity:0.87058824;stroke:none;stroke-width:5.81816387;stroke-linecap:butt;stroke-linejoin:miter;stroke-miterlimit:4;stroke-dasharray:none;stroke-dashoffset:0;stroke-opacity:1"
       d="m 40.727347,0.00200108 2e-6,11.63632792 H 52.363675 V 46.547312 H 40.727349 V 64.001805 H 81.454495 V 46.547312 H 69.818166 V 11.638329 h 11.636329 l -2e-6,-11.63632792 z"
       id="rect901"
       sodipodi:nodetypes="ccccccccccccc" />
    <path
       d="m46.544854.00199937h29.09041v5.81808283h-29.09041z"
       id="path66" />
    <path
       d="m46.544854 52.364736h29.090412v5.818084h-29.090412z"
       id="path68" />
    <path
       d="m63.9991 4.3648718v47.9998652h-5.818081v-47.9998652z"
       id="path70" />
  </g>
</svg>
