<?xml version="1.0" encoding="UTF-8" standalone="no"?>
<svg
   xmlns:dc="http://purl.org/dc/elements/1.1/"
   xmlns:cc="http://creativecommons.org/ns#"
   xmlns:rdf="http://www.w3.org/1999/02/22-rdf-syntax-ns#"
   xmlns:svg="http://www.w3.org/2000/svg"
   xmlns="http://www.w3.org/2000/svg"
   xmlns:xlink="http://www.w3.org/1999/xlink"
   xmlns:sodipodi="http://sodipodi.sourceforge.net/DTD/sodipodi-0.dtd"
   xmlns:inkscape="http://www.inkscape.org/namespaces/inkscape"
   height="24"
   viewBox="0 0 6.3499999 6.3500002"
   width="24"
   version="1.1"
   id="svg197"
   sodipodi:docname="lc_showfmexplorer.svg"
   inkscape:export-filename="/home/rizmut/Dokumen/Rizmut/Github/libreoffice-style-karasa-jaga/build/next/cmd/lc_showfmexplorer.png"
   inkscape:export-xdpi="96"
   inkscape:export-ydpi="96"
   inkscape:version="0.92.4 (unknown)">
  <metadata
     id="metadata203">
    <rdf:RDF>
      <cc:Work
         rdf:about="">
        <dc:format>image/svg+xml</dc:format>
        <dc:type
           rdf:resource="http://purl.org/dc/dcmitype/StillImage" />
        <dc:title></dc:title>
      </cc:Work>
    </rdf:RDF>
  </metadata>
  <defs
     id="defs201">
    <filter
       id="j-3"
       height="1.12069"
       width="1.119315"
       x="-0.059657998"
       y="-0.060345002"
       style="color-interpolation-filters:sRGB">
      <feGaussianBlur
         stdDeviation=".82504758"
         id="feGaussianBlur47-6" />
    </filter>
    <linearGradient
       id="k-7"
       gradientUnits="userSpaceOnUse"
       x1="24.78186"
       x2="24.78186"
       xlink:href="#l"
       y1="297.65903"
       y2="279.82874" />
    <linearGradient
       id="linearGradient4693">
      <stop
         offset="0"
         stop-color="#525252"
         id="stop51-6" />
      <stop
         offset="1"
         stop-color="#d8d8d8"
         id="stop53-8" />
    </linearGradient>
    <linearGradient
       id="m-5"
       gradientUnits="userSpaceOnUse"
       x1="15.8973"
       x2="32.987171"
       y1="287.61887"
       y2="287.61887">
      <stop
         offset="0"
         stop-color="#ebebeb"
         id="stop56-6" />
      <stop
         offset=".3164545"
         stop-color="#cacaca"
         id="stop58-2" />
      <stop
         offset=".58694273"
         stop-color="#c7c7c7"
         stop-opacity=".955882"
         id="stop60-9" />
      <stop
         offset=".84601915"
         stop-color="#cacaca"
         id="stop62-1" />
      <stop
         offset="1"
         stop-color="#dedede"
         id="stop64-2" />
    </linearGradient>
    <filter
       id="n-7"
       height="1.024"
       width="1.024"
       x="-0.012"
       y="-0.012"
       style="color-interpolation-filters:sRGB">
      <feGaussianBlur
         stdDeviation=".12785668"
         id="feGaussianBlur67-0" />
    </filter>
    <linearGradient
       id="o-9"
       gradientUnits="userSpaceOnUse"
       x1="24.701073"
       x2="24.733223"
       y1="281.36441"
       y2="294.21851">
      <stop
         offset="0"
         stop-color="#171a1c"
         id="stop70-3" />
      <stop
         offset="1"
         stop-color="#8ca0ac"
         id="stop72-6" />
    </linearGradient>
    <radialGradient
       id="p-0"
       cx="63.02887"
       cy="288.18738"
       gradientUnits="userSpaceOnUse"
       r="11.437257">
      <stop
         offset="0"
         stop-color="#7cb5fc"
         id="stop75-6" />
      <stop
         offset="1"
         stop-color="#0d5bab"
         id="stop77-2" />
    </radialGradient>
    <filter
       id="q-6"
       height="1.024"
       width="1.024"
       x="-0.012"
       y="-0.012"
       style="color-interpolation-filters:sRGB">
      <feGaussianBlur
         stdDeviation=".11169196"
         id="feGaussianBlur80-1" />
    </filter>
    <filter
       id="r-8"
       height="1.023839"
       width="1.024163"
       x="-0.012082"
       y="-0.01192"
       style="color-interpolation-filters:sRGB">
      <feGaussianBlur
         stdDeviation=".087289468"
         id="feGaussianBlur83-7" />
    </filter>
    <linearGradient
       id="linearGradient4715"
       gradientTransform="matrix(0.40992622,0,0,0.43732811,-1.243719,164.52807)"
       gradientUnits="userSpaceOnUse"
       x1="63.499996"
       x2="63.499996"
       y1="269.89706"
       y2="286.49451">
      <stop
         offset="0"
         stop-color="#e3f3fd"
         id="stop86-8" />
      <stop
         offset="1"
         stop-color="#a3d8f9"
         stop-opacity="0"
         id="stop88-4" />
    </linearGradient>
    <linearGradient
       id="t-0"
       gradientUnits="userSpaceOnUse"
       x1="24.470198"
       x2="24.669523"
       y1="278.72476"
       y2="284.19904">
      <stop
         offset="0"
         stop-color="#fcfcfc"
         id="stop91-2" />
      <stop
         offset="1"
         stop-color="#fcfcfc"
         stop-opacity="0"
         id="stop93-3" />
    </linearGradient>
    <radialGradient
       id="u-7"
       cx="67.73333"
       cy="277.9501"
       gradientTransform="matrix(-0.48115879,0,0,-0.48115879,54.943559,422.86662)"
       gradientUnits="userSpaceOnUse"
       r="7.5746908">
      <stop
         offset="0"
         stop-color="#bfbfbf"
         id="stop96-5" />
      <stop
         offset="1"
         stop-color="#dfdfdf"
         stop-opacity="0"
         id="stop98-9" />
    </radialGradient>
    <filter
       id="v-2"
       height="1.047739"
       width="1.048264"
       x="-0.024132"
       y="-0.023870001"
       style="color-interpolation-filters:sRGB">
      <feGaussianBlur
         stdDeviation=".9480859"
         id="feGaussianBlur101-2" />
    </filter>
    <radialGradient
       id="w-8"
       cx="21.273409"
       cy="276.88303"
       gradientUnits="userSpaceOnUse"
       r="6.794981">
      <stop
         offset="0"
         stop-color="#e10000"
         id="stop104-9" />
      <stop
         offset="1"
         stop-color="#851400"
         id="stop106-7" />
    </radialGradient>
    <radialGradient
       id="x-3"
       cx="21.273409"
       cy="276.88303"
       gradientUnits="userSpaceOnUse"
       r="6.794981">
      <stop
         offset="0"
         stop-color="#ffbfbf"
         id="stop109-6" />
      <stop
         offset="1"
         stop-color="#ffbfbf"
         stop-opacity="0"
         id="stop111-1" />
    </radialGradient>
    <linearGradient
       id="y-2"
       gradientUnits="userSpaceOnUse"
       x1="16.526453"
       x2="17.475842"
       xlink:href="#l"
       y1="277.83243"
       y2="281.63" />
    <radialGradient
       id="z-9"
       cx="17.52717"
       cy="278.68237"
       gradientUnits="userSpaceOnUse"
       r="2.4271595">
      <stop
         offset="0"
         stop-color="#e8e8e8"
         id="stop115-3" />
      <stop
         offset="1"
         stop-color="#c7c7c7"
         id="stop117-1" />
    </radialGradient>
    <filter
       id="A-9"
       height="1.08803"
       width="1.060909"
       x="-0.030454"
       y="-0.044015002"
       style="color-interpolation-filters:sRGB">
      <feGaussianBlur
         stdDeviation=".61981931"
         id="feGaussianBlur120-4" />
    </filter>
  </defs>
  <sodipodi:namedview
     pagecolor="#ffffff"
     bordercolor="#666666"
     borderopacity="1"
     objecttolerance="10"
     gridtolerance="10"
     guidetolerance="10"
     inkscape:pageopacity="0"
     inkscape:pageshadow="2"
     inkscape:window-width="1366"
     inkscape:window-height="706"
     id="namedview199"
     showgrid="true"
     inkscape:zoom="14.289062"
     inkscape:cx="12.164551"
     inkscape:cy="6.609028"
     inkscape:window-x="0"
     inkscape:window-y="0"
     inkscape:window-maximized="1"
     inkscape:current-layer="g245">
    <inkscape:grid
       type="xygrid"
       id="grid205" />
  </sodipodi:namedview>
  <filter
     id="a">
    <feGaussianBlur
       stdDeviation="1.5999062"
       id="feGaussianBlur2" />
  </filter>
  <linearGradient
     id="b"
     gradientTransform="matrix(0.03116178,0,0,0.04506859,-0.483098,242.98515)"
     gradientUnits="userSpaceOnUse"
     x1="399.77466"
     x2="399.77466"
     y1="731.09662"
     y2="480.60214">
    <stop
       offset="0"
       stop-color="#cbcbcd"
       id="stop5" />
    <stop
       offset=".5"
       stop-color="#e0e0e2"
       id="stop7" />
    <stop
       offset="1"
       stop-color="#f2f2f2"
       id="stop9" />
  </linearGradient>
  <linearGradient
     id="c"
     gradientTransform="matrix(0.03116178,0,0,0.04506859,30.161964,334.14685)"
     gradientUnits="userSpaceOnUse"
     x1="-333.0289"
     x2="-333.0289"
     y1="-1473.6504"
     y2="-776.61371">
    <stop
       offset="0"
       stop-color="#fff"
       id="stop12" />
    <stop
       offset=".49140647"
       stop-color="#fff"
       id="stop14" />
    <stop
       offset="1"
       stop-color="#dcdcdc"
       id="stop16" />
  </linearGradient>
  <linearGradient
     id="d"
     gradientUnits="userSpaceOnUse"
     x1="20.012131"
     x2="20.012131"
     y1="281.60605"
     y2="275.44846">
    <stop
       offset="0"
       stop-color="#e8e8e8"
       id="stop19" />
    <stop
       offset=".234375"
       stop-color="#fff"
       id="stop21" />
    <stop
       offset=".69675177"
       stop-color="#ededed"
       id="stop23" />
    <stop
       offset=".90625"
       stop-color="#6c6c6c"
       id="stop25" />
    <stop
       offset="1"
       stop-color="#2b2b2b"
       id="stop27" />
  </linearGradient>
  <linearGradient
     id="e"
     gradientUnits="userSpaceOnUse"
     x1="10.775738"
     x2="12.315137"
     xlink:href="#f"
     y1="278.52725"
     y2="278.52725"
     gradientTransform="translate(3.1318854e-5,-2.3566683e-4)" />
  <linearGradient
     id="f">
    <stop
       offset="0"
       stop-color="#aaa"
       id="stop31" />
    <stop
       offset="1"
       stop-color="#aaa"
       stop-opacity="0"
       id="stop33" />
  </linearGradient>
  <linearGradient
     id="g"
     gradientUnits="userSpaceOnUse"
     x1="-30.787918"
     x2="-29.248518"
     xlink:href="#f"
     y1="278.52725"
     y2="278.52725"
     gradientTransform="translate(-3.1238115e-4,-2.3566683e-4)" />
  <linearGradient
     id="h"
     gradientTransform="matrix(0.35316395,0,0,0.33250146,-16.730027,-307.465)"
     gradientUnits="userSpaceOnUse"
     x1="101.3308"
     x2="101.3308"
     y1="51.34185"
     y2="66.668198">
    <stop
       offset="0"
       stop-color="#cbcbcd"
       id="stop37" />
    <stop
       offset=".66545075"
       stop-color="#e0e0e2"
       id="stop39" />
    <stop
       offset="1"
       stop-color="#fff"
       id="stop41" />
  </linearGradient>
  <filter
     id="i">
    <feGaussianBlur
       stdDeviation=".50622511"
       id="feGaussianBlur44" />
  </filter>
  <filter
     id="j"
     height="1.12069"
     width="1.119315"
     x="-0.059657998"
     y="-0.060345002"
     style="color-interpolation-filters:sRGB">
    <feGaussianBlur
       stdDeviation=".82504758"
       id="feGaussianBlur47" />
  </filter>
  <linearGradient
     id="k"
     gradientUnits="userSpaceOnUse"
     x1="24.78186"
     x2="24.78186"
     xlink:href="#l"
     y1="297.65903"
     y2="279.82874" />
  <linearGradient
     id="l">
    <stop
       offset="0"
       stop-color="#525252"
       id="stop51" />
    <stop
       offset="1"
       stop-color="#d8d8d8"
       id="stop53" />
  </linearGradient>
  <linearGradient
     id="m"
     gradientUnits="userSpaceOnUse"
     x1="15.8973"
     x2="32.987171"
     y1="287.61887"
     y2="287.61887">
    <stop
       offset="0"
       stop-color="#ebebeb"
       id="stop56" />
    <stop
       offset=".3164545"
       stop-color="#cacaca"
       id="stop58" />
    <stop
       offset=".58694273"
       stop-color="#c7c7c7"
       stop-opacity=".955882"
       id="stop60" />
    <stop
       offset=".84601915"
       stop-color="#cacaca"
       id="stop62" />
    <stop
       offset="1"
       stop-color="#dedede"
       id="stop64" />
  </linearGradient>
  <filter
     id="n"
     height="1.024"
     width="1.024"
     x="-0.012"
     y="-0.012"
     style="color-interpolation-filters:sRGB">
    <feGaussianBlur
       stdDeviation=".12785668"
       id="feGaussianBlur67" />
  </filter>
  <linearGradient
     id="o"
     gradientUnits="userSpaceOnUse"
     x1="24.701073"
     x2="24.733223"
     y1="281.36441"
     y2="294.21851">
    <stop
       offset="0"
       stop-color="#171a1c"
       id="stop70" />
    <stop
       offset="1"
       stop-color="#8ca0ac"
       id="stop72" />
  </linearGradient>
  <radialGradient
     id="p"
     cx="63.02887"
     cy="288.18738"
     gradientUnits="userSpaceOnUse"
     r="11.437257">
    <stop
       offset="0"
       stop-color="#7cb5fc"
       id="stop75" />
    <stop
       offset="1"
       stop-color="#0d5bab"
       id="stop77" />
  </radialGradient>
  <filter
     id="q"
     height="1.024"
     width="1.024"
     x="-0.012"
     y="-0.012"
     style="color-interpolation-filters:sRGB">
    <feGaussianBlur
       stdDeviation=".11169196"
       id="feGaussianBlur80" />
  </filter>
  <filter
     id="r"
     height="1.023839"
     width="1.024163"
     x="-0.012082"
     y="-0.01192"
     style="color-interpolation-filters:sRGB">
    <feGaussianBlur
       stdDeviation=".087289468"
       id="feGaussianBlur83" />
  </filter>
  <linearGradient
     id="s"
     gradientTransform="matrix(0.40992622,0,0,0.43732811,-1.243719,164.52807)"
     gradientUnits="userSpaceOnUse"
     x1="63.499996"
     x2="63.499996"
     y1="269.89706"
     y2="286.49451">
    <stop
       offset="0"
       stop-color="#e3f3fd"
       id="stop86" />
    <stop
       offset="1"
       stop-color="#a3d8f9"
       stop-opacity="0"
       id="stop88" />
  </linearGradient>
  <linearGradient
     id="t"
     gradientUnits="userSpaceOnUse"
     x1="24.470198"
     x2="24.669523"
     y1="278.72476"
     y2="284.19904">
    <stop
       offset="0"
       stop-color="#fcfcfc"
       id="stop91" />
    <stop
       offset="1"
       stop-color="#fcfcfc"
       stop-opacity="0"
       id="stop93" />
  </linearGradient>
  <radialGradient
     id="u"
     cx="67.73333"
     cy="277.9501"
     gradientTransform="matrix(-0.48115879,0,0,-0.48115879,54.943559,422.86662)"
     gradientUnits="userSpaceOnUse"
     r="7.5746908">
    <stop
       offset="0"
       stop-color="#bfbfbf"
       id="stop96" />
    <stop
       offset="1"
       stop-color="#dfdfdf"
       stop-opacity="0"
       id="stop98" />
  </radialGradient>
  <filter
     id="v"
     height="1.047739"
     width="1.048264"
     x="-0.024132"
     y="-0.023870001"
     style="color-interpolation-filters:sRGB">
    <feGaussianBlur
       stdDeviation=".9480859"
       id="feGaussianBlur101" />
  </filter>
  <radialGradient
     id="w"
     cx="21.273409"
     cy="276.88303"
     gradientUnits="userSpaceOnUse"
     r="6.794981">
    <stop
       offset="0"
       stop-color="#e10000"
       id="stop104" />
    <stop
       offset="1"
       stop-color="#851400"
       id="stop106" />
  </radialGradient>
  <radialGradient
     id="x"
     cx="21.273409"
     cy="276.88303"
     gradientUnits="userSpaceOnUse"
     r="6.794981">
    <stop
       offset="0"
       stop-color="#ffbfbf"
       id="stop109" />
    <stop
       offset="1"
       stop-color="#ffbfbf"
       stop-opacity="0"
       id="stop111" />
  </radialGradient>
  <linearGradient
     id="y"
     gradientUnits="userSpaceOnUse"
     x1="16.526453"
     x2="17.475842"
     xlink:href="#l"
     y1="277.83243"
     y2="281.63" />
  <radialGradient
     id="z"
     cx="17.52717"
     cy="278.68237"
     gradientUnits="userSpaceOnUse"
     r="2.4271595">
    <stop
       offset="0"
       stop-color="#e8e8e8"
       id="stop115" />
    <stop
       offset="1"
       stop-color="#c7c7c7"
       id="stop117" />
  </radialGradient>
  <filter
     id="A"
     height="1.08803"
     width="1.060909"
     x="-0.030454"
     y="-0.044015002"
     style="color-interpolation-filters:sRGB">
    <feGaussianBlur
       stdDeviation=".61981931"
       id="feGaussianBlur120" />
  </filter>
  <g
     transform="translate(0,-290.64999)"
     id="g195">
    <g
       id="g245"
       transform="matrix(0.171875,0,0,0.171875,0.5291667,245.42395)">
      <g
         id="g258"
         transform="translate(-1.539394,1.539394)">
        <path
           inkscape:connector-curvature="0"
           d="m 9.3814569,6.4002115 77.2233121,-3e-7 c 0.76597,0 1.413822,0.7286187 1.38261,1.63246 l 0.0056,22.3686248 -0.0056,42.368543 c -1.19e-4,0.90439 -0.616639,1.632491 -1.38261,1.63247 l -40.61166,-0.0011 -36.6116521,0.0011 c -0.765966,2.3e-5 -1.38249,-0.72808 -1.38261,-1.63247 l -0.00562,-42.368543 0.00562,-22.3686245 c 2.273e-4,-0.90438 0.616644,-1.63246 1.38261,-1.63246 z"
           style="opacity:0.4;fill:none;stroke:#000000;stroke-width:4;stroke-linecap:round;stroke-linejoin:round;stroke-dashoffset:4;filter:url(#a)"
           transform="matrix(0.38484968,0,0,0.38484968,-1.536797,265.28794)"
           id="path123"
           sodipodi:nodetypes="ssscsscsscss" />
        <path
           inkscape:connector-curvature="0"
           style="fill:url(#b)"
           d="M 2.0715161,267.75147 H 31.795157 c 0.294822,0 0.532174,0.28019 0.532174,0.62823 V 293.293 H 1.5393429 v -24.9133 c 0,-0.34804 0.2373492,-0.62823 0.5321732,-0.62823 z"
           id="path125"
           sodipodi:nodetypes="sssccss" />
        <path
           inkscape:connector-curvature="0"
           style="fill:url(#c)"
           d="m 2.0685125,267.75147 c -0.2948242,0 -0.5291684,0.27734 -0.5291684,0.62537 v 24.91901 c 0,0.34804 0.2343442,0.62538 0.5291684,0.62538 H 31.798163 c 0.294826,0 0.529168,-0.27734 0.529168,-0.62538 v -24.91901 c 0,-0.34803 -0.234342,-0.62537 -0.529168,-0.62537 z m 0.3607964,0.93807 H 31.437366 c 0.280083,0 0.505116,0.26273 0.505116,0.58929 v 23.66825 c 0,0.32656 -0.225033,0.58931 -0.505116,0.58931 H 2.4293089 c -0.2800827,0 -0.5051152,-0.26275 -0.5051152,-0.58931 v -23.66825 c 0,-0.32656 0.2250325,-0.58929 0.5051152,-0.58929 z"
           id="path127"
           sodipodi:nodetypes="ssssssssssssssssss" />
        <g
           transform="matrix(1.3845916,0,0,0.99998322,-11.841249,-1.5344)"
           id="g135">
          <rect
             style="fill:url(#d)"
             height="6.1576929"
             rx="1.078735"
             ry="1.539399"
             width="20.012465"
             x="10.775767"
             y="275.44809"
             id="rect129" />
          <rect
             style="fill:url(#e)"
             height="6.1575961"
             rx="1.040345"
             ry="1.539399"
             width="4.618197"
             x="10.775767"
             y="275.44818"
             id="rect131" />
          <rect
             style="fill:url(#g)"
             height="6.1575961"
             rx="0.96356899"
             ry="1.539399"
             transform="scale(-1,1)"
             width="4.6181951"
             x="-30.788233"
             y="275.44818"
             id="rect133" />
        </g>
        <rect
           style="fill-opacity:0.92485501;filter:url(#i)"
           height="12.74204"
           rx="1.9982409"
           ry="2.7470281"
           transform="matrix(0.35105195,0,0,-0.31938175,-43.618298,181.34637)"
           width="47.998806"
           x="146.29366"
           y="-344.5433"
           id="rect137" />
        <rect
           style="fill:url(#h);stroke-width:1.31099093"
           height="4.5423179"
           rx="1.0229492"
           ry="0.97844708"
           transform="scale(1,-1)"
           width="16.951447"
           x="7.687686"
           y="-290.79892"
           id="rect139" />
        <g
           aria-label="OK"
           style="font-size:4.63623619px;font-family:sans-serif;letter-spacing:0;word-spacing:0;stroke-width:0.115906"
           id="text143"
           transform="translate(0,1.539394)">
          <path
             d="m 13.358016,288.26333 q -0.445079,-0.49608 -0.445079,-1.27497 0,-0.77889 0.445079,-1.27496 0.449715,-0.49608 1.177604,-0.49608 0.732525,0 1.18224,0.49608 0.449715,0.49144 0.449715,1.29814 0,0.75107 -0.445079,1.25179 -0.440442,0.49607 -1.18224,0.49607 -0.737162,0 -1.18224,-0.49607 z m 1.18224,-2.45257 q -0.421898,0 -0.676891,0.32453 -0.254993,0.31991 -0.254993,0.85307 0,0.53317 0.254993,0.85771 0.254993,0.3199 0.676891,0.3199 0.417261,0 0.672254,-0.3199 0.259629,-0.3199 0.259629,-0.83916 0,-0.54708 -0.254993,-0.87162 -0.250356,-0.32453 -0.67689,-0.32453 z"
             style="font-weight:600;font-family:FreeSans;stroke-width:0.115906"
             id="path345"
             inkscape:connector-curvature="0" />
          <path
             d="m 17.415881,287.52153 v 1.13124 h -0.695435 v -3.37982 h 0.695435 v 1.4836 l 1.321328,-1.4836 h 0.820614 l -1.349145,1.45578 1.492868,1.92404 H 18.87166 l -1.108061,-1.49287 z"
             style="font-weight:600;font-family:FreeSans;stroke-width:0.115906"
             id="path347"
             inkscape:connector-curvature="0" />
        </g>
      </g>
      <g
         id="g193"
         transform="translate(-5.3985965e-7,-14.438692)">
        <ellipse
           id="ellipse147"
           transform="matrix(0.56724291,0,0,0.57053449,-11.234638,127.71394)"
           ry="16.406662"
           rx="16.59565"
           cy="281.04938"
           cx="62.895233"
           style="fill:#5a5a5a;filter:url(#j-3)" />
        <circle
           id="circle149"
           r="9.2137184"
           cy="287.61887"
           cx="24.442236"
           style="fill:url(#k-7)" />
        <circle
           id="circle151"
           r="8.5449343"
           cy="287.61887"
           cx="24.442236"
           style="fill:url(#m-5)" />
        <circle
           id="circle153"
           transform="matrix(0.51674441,0,0,0.51674441,-8.058525,142.32474)"
           r="12.785668"
           cy="281.23837"
           cx="62.895233"
           style="fill:#f0f3f4;filter:url(#n-7)" />
        <circle
           id="circle155"
           r="5.987288"
           cy="287.65311"
           cx="24.442236"
           style="fill:url(#o-9)" />
        <circle
           id="circle157"
           r="5.60149"
           cy="287.65311"
           cx="24.442236"
           style="fill:#032668" />
        <circle
           id="circle159"
           transform="matrix(0.4654912,0,0,0.4654912,-4.834941,156.73912)"
           r="11.169196"
           cy="281.23837"
           cx="62.895233"
           style="fill:url(#p-0);filter:url(#q-6)" />
        <path
           id="path161"
           transform="matrix(0.4811588,0,0,0.4811588,-5.820358,152.33278)"
           d="m 68.953232,290.2807 -1.443425,-4.75293 c 1.416094,-1.66975 1.823029,-3.9728 1.064875,-6.02671 l 2.979396,-3.96944 -4.746321,1.45286 c -1.669825,-1.41586 -3.972826,-1.82258 -6.026605,-1.06431 l -4.134512,-3.21514 1.617929,4.98206 c -1.41584,1.66963 -1.822725,3.9724 -1.064771,6.02613 l -2.985837,3.96023 4.752927,-1.44343 c 1.669699,1.41602 3.972653,1.82293 6.02652,1.06485 z m -3.668966,-5.25007 c -1.890643,1.32376 -4.496438,0.8642 -5.820182,-1.02645 -1.323703,-1.89056 -0.864252,-4.49622 1.026222,-5.82003 1.890562,-1.32389 4.496384,-0.8645 5.820259,1.02606 1.323953,1.89065 0.864456,4.49661 -1.026299,5.82042 z"
           inkscape:connector-curvature="0"
           style="fill:#326fb6;filter:url(#r-8)" />
        <g
           id="g167"
           transform="matrix(0.18503667,0.18503667,-0.18503667,0.18503667,47.747426,208.85521)">
          <path
             id="path163"
             d="m 169.10577,279.56256 -8.05633,-4.30293 c -0.32979,-4.01212 -2.79507,-7.53557 -6.45124,-9.22028 l -1.28722,-9.03467 -4.28206,8.06 c -4.01193,0.33019 -7.53503,2.79568 -9.21941,6.45183 l -9.55581,1.19534 8.58112,4.37395 c 0.32997,4.01164 2.79494,7.53465 6.45062,9.21939 l 1.26687,9.03107 4.30292,-8.05632 c 4.01196,-0.32983 7.53525,-2.79501 9.21999,-6.45103 z m -11.59628,-2.05571 c -0.73704,4.17928 -4.72253,6.96975 -8.9018,6.23267 -4.17909,-0.73701 -6.96953,-4.72218 -6.23277,-8.9013 0.73677,-4.17934 4.72207,-6.97007 8.90139,-6.23328 4.17954,0.73681 6.97031,4.72243 6.23318,8.90191 z"
             inkscape:connector-curvature="0"
             style="fill:#dbe8f9" />
          <path
             id="path165"
             transform="matrix(0.26458333,0,0,0.26458333,0,263.13332)"
             d="m 566.44336,16.882812 a 31.567267,31.567267 0 0 0 -31.56836,31.56836 31.567267,31.567267 0 0 0 31.56836,31.566406 31.567267,31.567267 0 0 0 31.56641,-31.566406 31.567267,31.567267 0 0 0 -31.56641,-31.56836 z m 0,2.525391 a 29.041884,29.041884 0 0 1 29.04102,29.042969 29.041884,29.041884 0 0 1 -29.04102,29.041016 29.041884,29.041884 0 0 1 -29.04297,-29.041016 29.041884,29.041884 0 0 1 29.04297,-29.042969 z"
             inkscape:connector-curvature="0"
             style="fill:#f7fcfe" />
        </g>
        <ellipse
           id="ellipse169"
           ry="4.3314791"
           rx="4.388761"
           cy="287.17087"
           cx="24.538687"
           style="fill:url(#s)" />
        <path
           id="path171"
           d="m 24.442318,279.18131 a 7.0127417,3.6402806 0 0 0 -2.256567,0.1975 8.5449345,8.5449345 0 0 0 -4.750421,3.35551 7.0127417,3.6402806 0 0 0 -0.006,0.0874 7.0127417,3.6402806 0 0 0 0.925706,1.79838 6.7938567,6.7938567 0 0 1 6.087206,-3.79508 6.7938567,6.7938567 0 0 1 6.091722,3.79452 7.0127417,3.6402806 0 0 0 0.92091,-1.79782 7.0127417,3.6402806 0 0 0 -0.0076,-0.0786 8.5449345,8.5449345 0 0 0 -4.837599,-3.37892 7.0127417,3.6402806 0 0 0 -2.167413,-0.18284 z"
           style="fill:url(#t-0)"
           inkscape:connector-curvature="0" />
        <path
           id="path173"
           d="m 18.559625,293.66759 7.289257,-4.95338 -1.115658,-1.11566 z"
           style="fill:url(#u-7)"
           inkscape:connector-curvature="0" />
        <g
           id="g191"
           transform="matrix(0.73137237,0,0,0.73137237,12.049639,82.882917)">
          <path
             id="path175"
             transform="matrix(0.23734813,0,0,0.23734813,-39.487706,263.59154)"
             d="M 285.0332,23.582031 227.77734,62.490234 237.86719,72.582031 190.74219,118.9082 248,80 247.22266,79.222656 Z"
             inkscape:connector-curvature="0"
             style="fill:#4a2828;filter:url(#v-2)" />
          <path
             id="path177"
             d="m 28.345842,268.42042 -13.589964,9.23498 4.354979,4.35499 z"
             style="fill:url(#w-8)"
             inkscape:connector-curvature="0" />
          <path
             id="path179"
             d="m 5.5208237,291.24544 9.2349853,-13.58997 4.354978,4.35498 z"
             inkscape:connector-curvature="0"
             style="fill:#e8e8e8" />
          <path
             id="path181"
             d="m 26.656733,269.80571 -11.593498,7.87909 1.774854,1.7731 z"
             style="fill:url(#x-3)"
             inkscape:connector-curvature="0" />
          <circle
             id="circle183"
             r="2.598824"
             cy="279.83292"
             cx="16.933331"
             style="fill:url(#y-2)" />
          <circle
             id="circle185"
             r="2.4271591"
             cy="279.83292"
             cx="16.933331"
             style="fill:url(#z-9)" />
          <circle
             id="circle187"
             r="1.1984"
             cy="279.83292"
             cx="16.933331"
             style="fill:#555555" />
          <path
             id="path189"
             transform="matrix(0.23734813,0,0,0.23734813,-39.487706,263.59154)"
             d="m 278.68164,26.181641 -48.8457,33.197265 0.60156,0.59961 44.91797,-30.527344 z"
             inkscape:connector-curvature="0"
             style="fill:#fefefe;filter:url(#A-9)" />
        </g>
      </g>
    </g>
  </g>
</svg>
