<?xml version="1.0" encoding="UTF-8" standalone="no"?>
<svg
   xmlns:dc="http://purl.org/dc/elements/1.1/"
   xmlns:cc="http://creativecommons.org/ns#"
   xmlns:rdf="http://www.w3.org/1999/02/22-rdf-syntax-ns#"
   xmlns:svg="http://www.w3.org/2000/svg"
   xmlns="http://www.w3.org/2000/svg"
   xmlns:xlink="http://www.w3.org/1999/xlink"
   xmlns:sodipodi="http://sodipodi.sourceforge.net/DTD/sodipodi-0.dtd"
   xmlns:inkscape="http://www.inkscape.org/namespaces/inkscape"
   height="24"
   width="24"
   version="1.1"
   id="svg34"
   sodipodi:docname="lc_shell3d.svg"
   inkscape:version="0.92.4 (unknown)"
   inkscape:export-filename="/home/rizmut/Dokumen/Rizmut/Github/libreoffice-style-karasa-jaga/build/next/cmd/lc_shell3d.png"
   inkscape:export-xdpi="96"
   inkscape:export-ydpi="96">
  <metadata
     id="metadata40">
    <rdf:RDF>
      <cc:Work
         rdf:about="">
        <dc:format>image/svg+xml</dc:format>
        <dc:type
           rdf:resource="http://purl.org/dc/dcmitype/StillImage" />
      </cc:Work>
    </rdf:RDF>
  </metadata>
  <defs
     id="defs38">
    <linearGradient
       id="i"
       gradientUnits="userSpaceOnUse"
       x1="-101.26798"
       x2="-101.26798"
       y1="99.718452"
       y2="59.979767">
      <stop
         offset="0"
         stop-color="#1d3c12"
         id="stop1345" />
      <stop
         offset="1"
         stop-color="#1d3c12"
         stop-opacity="0"
         id="stop1347" />
    </linearGradient>
    <clipPath
       id="l">
      <path
         inkscape:connector-curvature="0"
         d="m -95.9375,68 -23.96875,6.40625 h -0.0313 l 0.0313,29.0931 23.9062,12.2194 0.03125,-15.843751 0.03125,15.843751 23.442275,-12.2194 0.07607,-29.115128 z"
         id="path1354" />
    </clipPath>
    <filter
       id="h">
      <feGaussianBlur
         stdDeviation=".45393981"
         id="feGaussianBlur1342" />
    </filter>
    <linearGradient
       inkscape:collect="always"
       xlink:href="#i"
       id="linearGradient2003"
       x1="63.919922"
       y1="97.92601"
       x2="65.71067"
       y2="0.56868213"
       gradientUnits="userSpaceOnUse" />
    <filter
       inkscape:collect="always"
       style="color-interpolation-filters:sRGB"
       id="filter2017"
       x="-0.019325443"
       width="1.0386509"
       y="-0.031657514"
       height="1.063315">
      <feGaussianBlur
         inkscape:collect="always"
         stdDeviation="0.91252666"
         id="feGaussianBlur2019" />
    </filter>
    <clipPath
       clipPathUnits="userSpaceOnUse"
       id="clipPath2021">
      <path
         id="path2023"
         d="M 63.919921,97.926011 A 55.999998,12 0 0 1 7.9999999,85.914288 55.999998,12 0 0 1 8.1816413,85.000228 c 0.015756,-0.95158 0.054535,-1.89668 0.1171868,-2.835938 4.32e-5,-6.5e-4 -4.33e-5,-9.99e-4 0,-0.002 0.06269,-0.939252 0.1493697,-1.873029 0.2578131,-2.798834 7.49e-5,-6.38e-4 -7.49e-5,-9.99e-4 0,-0.002 0.1084766,-0.925789 0.2394886,-1.844625 0.3925753,-2.755856 1.065e-4,-6.32e-4 -1.065e-4,-0.0013 0,-0.002 0.1531201,-0.91122 0.3287976,-1.813452 0.5253904,-2.708988 1.364e-4,-6.21e-4 -1.371e-4,-0.0013 0,-0.002 0.1966205,-0.895525 0.4153381,-1.783393 0.6542961,-2.662108 1.66e-4,-6.1e-4 -1.65e-4,-0.0013 0,-0.002 0.23899,-0.878709 0.499116,-1.748592 0.779297,-2.609376 1.93e-4,-5.88e-4 -1.92e-4,-0.0014 0,-0.002 0.560616,-1.722135 1.203206,-3.407149 1.921875,-5.050781 0.11448,-0.261858 0.242973,-0.515671 0.36133,-0.775392 0.624933,-1.371251 1.291704,-2.720439 2.021486,-4.029293 0.433973,-0.778333 0.885948,-1.544072 1.355468,-2.298831 2.95e-4,-4.77e-4 -2.97e-4,-0.0015 0,-0.002 0.938794,-1.509031 1.947437,-2.968864 3.021485,-4.376951 5.5e-4,-7.22e-4 0.0014,-0.0012 0.002,-0.002 0.822228,-1.077837 1.695033,-2.114869 2.591796,-3.12891 0.274474,-0.310362 0.541058,-0.62749 0.822266,-0.93164 3.31e-4,-3.6e-4 -3.32e-4,-0.0016 0,-0.002 0.599991,-0.6489 1.215904,-1.28259 1.845703,-1.90234 0.630448,-0.6204 1.274419,-1.22635 1.933594,-1.81641 0.658832,-0.58977 1.331189,-1.16431 2.017578,-1.72266 3.85e-4,-3.1e-4 0.0016,3.2e-4 0.002,0 0.299466,-0.243589 0.611457,-0.471532 0.916015,-0.70898 1.090796,-0.85048 2.204124,-1.67434 3.357422,-2.44336 7.55e-4,-5e-4 0.0012,-0.0014 0.002,-0.002 1.475467,-0.98367 3.000689,-1.89982 4.570313,-2.74219 4.99e-4,-2.7e-4 0.0015,2.7e-4 0.002,0 0.784712,-0.421102 1.580183,-0.82488 2.386718,-1.20898 5.26e-4,-2.6e-4 0.0014,2.5e-4 0.002,0 2.420689,-1.15274 4.93647,-2.13627 7.533203,-2.93555 5.91e-4,-1.8e-4 0.0014,1.8e-4 0.002,0 0.865184,-0.266279 1.740599,-0.51349 2.623047,-0.73828 1.632966,-0.415982 3.297851,-0.75107 4.984374,-1.01953 0.136921,-0.0218 0.270956,-0.05148 0.408209,-0.07227 6.38e-4,-1.01e-4 0.0013,9.9e-5 0.002,0 0.913578,-0.13838 1.834289,-0.254119 2.761714,-0.347661 6.49e-4,-6e-5 0.0013,7e-5 0.002,0 1.855515,-0.187078 3.738492,-0.284298 5.642579,-0.285152 4.768174,0.0029 9.39828,0.60418 13.818356,1.73242 0.884807,0.225841 1.759538,0.472691 2.626952,0.74023 0.575804,0.17758 1.141271,0.37673 1.708986,0.57227 1.995049,0.68721 3.946142,1.47131 5.832032,2.37109 1.614939,0.77053 3.187909,1.616579 4.71289,2.53321 0.484215,0.291039 0.955175,0.60107 1.429686,0.90625 0.272843,0.175472 0.552675,0.341407 0.822266,0.521479 7.6e-4,5e-4 0.0012,0.0014 0.002,0.002 0.219084,0.146368 0.429568,0.30376 0.646483,0.45313 1.244577,0.857129 2.461942,1.75427 3.630859,2.707029 1.372535,1.118761 2.691425,2.30266 3.951175,3.54492 6.6e-4,6.51e-4 10e-4,0.0013 0.002,0.002 0.62953,0.620831 1.24412,1.25625 1.84375,1.906241 6.4e-4,6.79e-4 10e-4,0.0013 0.002,0.002 0.60023,0.650699 1.18476,1.31535 1.7539,1.994138 1.70745,2.03636 3.2726,4.196009 4.67968,6.464843 0.46902,0.75628 0.92016,1.524837 1.35352,2.30469 1.29969,2.33882 2.43617,4.781939 3.39454,7.312497 2.8e-4,7.77e-4 0.002,0.0012 0.002,0.002 0.31923,0.843031 0.61743,1.696536 0.89649,2.558591 0.19656,0.607171 0.37076,1.223712 0.54685,1.839843 0.0742,0.259638 0.15989,0.514172 0.23046,0.775392 1.6e-4,6.1e-4 -1.7e-4,0.0013 0,0.002 0.23772,0.880185 0.45514,1.769041 0.65039,2.666014 1.3e-4,6.21e-4 -1.3e-4,0.0013 0,0.002 0.19523,0.896984 0.36982,1.802212 0.5215,2.714846 1.1e-4,6.32e-4 -1e-4,0.0013 0,0.002 0.15162,0.912639 0.27989,1.832591 0.38674,2.759761 8e-5,6.38e-4 -7e-5,9.98e-4 0,0.002 0.10685,0.927181 0.19101,1.86215 0.25198,2.802729 5e-5,6.55e-4 -5e-5,0.001 0,0.002 0.0609,0.940601 0.0994,1.886971 0.11329,2.83985 v 0.002 a 55.999998,12 0 0 1 0.1889,0.810565 h -0.14846 v 0.02164 0.002 h 0.14846 A 55.999998,12 0 0 1 63.919921,97.926011 Z M 8.185547,84.99437 a 55.999998,12 0 0 1 3.246094,-3.173829 c -0.188821,0.111123 -0.404798,0.219527 -0.580079,0.332037 -0.0034,0.002 -0.0083,0.004 -0.01171,0.0061 -1.3879919,0.901078 -2.2962278,1.850611 -2.6542968,2.835938 z M 119.66211,84.769738 c -0.0372,-0.08322 -0.0641,-0.167378 -0.1094,-0.249985 a 55.999998,12 0 0 1 0.1094,0.249985 z m -0.17969,-0.357391 c -0.2172,-0.368209 -0.50724,-0.731292 -0.87501,-1.08789 a 55.999998,12 0 0 1 0.87501,1.08789 z m -0.9668,-1.169937 c -0.38018,-0.356659 -0.83176,-0.70544 -1.35546,-1.048822 a 55.999998,12 0 0 1 1.35546,1.048822 z"
         style="fill:#000000;stroke-width:0.99999994"
         inkscape:connector-curvature="0" />
    </clipPath>
  </defs>
  <sodipodi:namedview
     pagecolor="#ffffff"
     bordercolor="#666666"
     borderopacity="1"
     objecttolerance="10"
     gridtolerance="10"
     guidetolerance="10"
     inkscape:pageopacity="0"
     inkscape:pageshadow="2"
     inkscape:window-width="1366"
     inkscape:window-height="706"
     id="namedview36"
     showgrid="false"
     inkscape:zoom="9.8333333"
     inkscape:cx="18.111313"
     inkscape:cy="5.6673193"
     inkscape:window-x="0"
     inkscape:window-y="0"
     inkscape:window-maximized="1"
     inkscape:current-layer="svg34" />
  <radialGradient
     id="a"
     cx="87.651321"
     cy="93.491234"
     gradientTransform="matrix(1.0147423 0 0 -1.0147423 -.943507 150.86951)"
     gradientUnits="userSpaceOnUse"
     r="55.039619">
    <stop
       offset="0"
       stop-color="#cbff10"
       id="stop2" />
    <stop
       offset="1"
       stop-color="#004d00"
       id="stop4" />
  </radialGradient>
  <filter
     id="b"
     color-interpolation-filters="sRGB"
     height="1.108706"
     width="1.053825"
     x="-.026913"
     y="-.054353">
    <feGaussianBlur
       stdDeviation="1.2525832"
       id="feGaussianBlur7" />
  </filter>
  <radialGradient
     id="c"
     cx="64.405708"
     cy="96.659279"
     gradientTransform="matrix(1 0 0 .52093381 0 46.306194)"
     gradientUnits="userSpaceOnUse"
     r="58.857224">
    <stop
       offset="0"
       stop-color="#272727"
       id="stop10" />
    <stop
       offset="1"
       stop-color="#272727"
       stop-opacity="0"
       id="stop12" />
  </radialGradient>
  <linearGradient
     id="d"
     gradientUnits="userSpaceOnUse"
     x1="56"
     x2="88"
     y1="108"
     y2="-56">
    <stop
       offset="0"
       stop-color="#1d3c12"
       id="stop15" />
    <stop
       offset="1"
       stop-color="#1d3c12"
       stop-opacity="0"
       id="stop17" />
  </linearGradient>
  <filter
     id="e"
     color-interpolation-filters="sRGB"
     height="1.060435"
     width="1.036613"
     x="-.018306"
     y="-.030217">
    <feGaussianBlur
       stdDeviation=".85429734"
       id="feGaussianBlur20" />
  </filter>
  <mask
     id="f"
     maskUnits="userSpaceOnUse">
    <path
       d="m63.919922 97.92601a56 12 0 0 1 -55.919922-12.01172 56 12 0 0 1 .1816406-.91406c.015766-.95158.054528-1.89668.1171875-2.83594.0000431-.00065-.0000431-.001 0-.002.062691-.93925.1493682-1.87303.2578125-2.79883.0000751-.00064-.000075-.001 0-.002.1084754-.92579.2394893-1.844627.3925782-2.755854.0001063-.000633-.0001064-.0013 0-.002.1531194-.911217.3287973-1.813452.5253906-2.708984.0001366-.000622-.0001366-.0013 0-.002.1966236-.895523.4153388-1.783393.6542966-2.662109.000166-.000608-.000165-.0013 0-.002.238988-.878708.499114-1.748595.779297-2.609375.000193-.000591-.000192-.0014 0-.002.560616-1.722132 1.203206-3.407146 1.921875-5.050781.114482-.26183.24297-.515684.361328-.775391.624933-1.371249 1.291704-2.720436 2.021485-4.029296.433972-.77833.885949-1.544066 1.355468-2.298829.000296-.000475-.000296-.0015 0-.002.938794-1.509032 1.947438-2.968869 3.021485-4.376953.000551-.000722.0014-.0012.002-.002.822228-1.077837 1.695034-2.114869 2.591797-3.12891.274474-.31036.541059-.62749.822265-.93164.000332-.00036-.000331-.0016 0-.002.599991-.6489 1.215904-1.28259 1.845703-1.90234.630448-.6204 1.274419-1.22635 1.933594-1.81641.658832-.58977 1.331189-1.16431 2.017578-1.72266.000385-.00031.0016.00032.002 0 .299469-.24359.611457-.47153.916015-.70898 1.090796-.85048 2.204124-1.67434 3.357422-2.44336.000755-.0005.0012-.0014.002-.002 1.475467-.98367 3.000689-1.89982 4.570313-2.74219.000499-.00027.0015.00027.002 0 .784712-.4211 1.580183-.82488 2.386718-1.20898.000526-.00026.0014.00025.002 0 2.420689-1.15274 4.93647-2.13627 7.533203-2.93555.000591-.00018.0014.00018.002 0 .865184-.26628 1.740599-.51349 2.623047-.73828 1.632966-.41598 3.297853-.75107 4.984375-1.01953.136925-.0218.27095-.05148.408203-.07227.000636-.0001.0013.0001.002 0 .913581-.13838 1.834294-.25412 2.761719-.34766.000645-.00006.0013.00007.002 0 1.855516-.18708 3.73849-.2843 5.642578-.28515 4.768176.0029 9.398283.60418 13.818359 1.73242.884804.22584 1.759537.47269 2.626953.74023.5758.17758 1.141267.37673 1.708985.57227 1.99505.68721 3.946141 1.47131 5.832031 2.37109 1.614939.77053 3.187911 1.61658 4.712891 2.53321.48419.29104.955173.60107 1.429687.90625.272855.17547.552687.34141.822266.52148.000755.0005.0012.0014.002.002.219093.14637.429588.30376.646484.45313 1.244577.85713 2.461943 1.75427 3.63086 2.70703 1.37253 1.11876 2.69142 2.30266 3.95117 3.54492.00066.00065.001.0013.002.002.62952.62083 1.24411 1.25625 1.84375 1.90624.00063.00068.001.0013.002.002.60023.6507 1.18476 1.31535 1.7539 1.994139 1.70745 2.03636 3.27261 4.196009 4.67969 6.464843.46903.756279.92015 1.524836 1.35352 2.304688 1.29969 2.338822 2.43616 4.781938 3.39453 7.3125.00029.000774.002.0012.002.002.31923.84303.61742 1.696538.89649 2.558594.19655.60717.37073 1.223711.54687 1.839844.0742.259654.15991.514194.23047.77539.00016.000609-.00017.0013 0 .002.23773.880189.45512 1.769046.65039 2.666016.00013.000622-.00014.0013 0 .002.19524.896979.36985 1.80221.52148 2.714844.00011.000633-.0001.0013 0 .002.1516.912644.27987 1.832592.38672 2.759762.00008.00064-.00007.001 0 .002.10682.92718.19103 1.86215.25196 2.80273.00004.00065-.00005.001 0 .002.0609.9406.0994 1.88697.11328 2.83985v.002a56 12 0 0 1 .18889.810562h-.14844v.0215.002h.14844a56 12 0 0 1 -56.080078 11.9765zm-55.7343751-12.93164a56 12 0 0 1 3.2460941-3.17383c-.188819.11112-.404798.21952-.580079.33203-.0034.002-.0083.004-.01172.006-1.3879923.90108-2.2962283 1.85061-2.6542971 2.83594zm111.4765631-.22461c-.0374-.0832-.0641-.16736-.10938-.25a56 12 0 0 1 .10938.25zm-.17969-.35742c-.21718-.36823-.50722-.73129-.875-1.08789a56 12 0 0 1 .875 1.08789zm-.9668-1.16993c-.38018-.35666-.83176-.70544-1.35546-1.04882a56 12 0 0 1 1.35546 1.04882z"
       fill="url(#a)"
       id="path23" />
  </mask>
  <g
     transform="matrix(.18025074 0 0 .18025074 .466894 .48905)"
     id="g32">
    <ellipse
       cx="64.405708"
       cy="96.659279"
       rx="55.851028"
       ry="27.654516"
       transform="matrix(1.0085407 0 0 .70183342 -.550072 17.543229)"
       id="ellipse26"
       filter="url(#b)"
       fill="url(#c)" />
    <path
       d="m63.919922 97.92601a56 12 0 0 1 -55.919922-12.01172 56 12 0 0 1 .1816406-.91406c.015766-.95158.054528-1.89668.1171875-2.83594.0000431-.00065-.0000431-.001 0-.002.062691-.93925.1493682-1.87303.2578125-2.79883.0000751-.00064-.000075-.001 0-.002.1084754-.92579.2394893-1.844627.3925782-2.755854.0001063-.000633-.0001064-.0013 0-.002.1531194-.911217.3287973-1.813452.5253906-2.708984.0001366-.000622-.0001366-.0013 0-.002.1966236-.895523.4153388-1.783393.6542966-2.662109.000166-.000608-.000165-.0013 0-.002.238988-.878708.499114-1.748595.779297-2.609375.000193-.000591-.000192-.0014 0-.002.560616-1.722132 1.203206-3.407146 1.921875-5.050781.114482-.26183.24297-.515684.361328-.775391.624933-1.371249 1.291704-2.720436 2.021485-4.029296.433972-.77833.885949-1.544066 1.355468-2.298829.000296-.000475-.000296-.0015 0-.002.938794-1.509032 1.947438-2.968869 3.021485-4.376953.000551-.000722.0014-.0012.002-.002.822228-1.077837 1.695034-2.114869 2.591797-3.12891.274474-.31036.541059-.62749.822265-.93164.000332-.00036-.000331-.0016 0-.002.599991-.6489 1.215904-1.28259 1.845703-1.90234.630448-.6204 1.274419-1.22635 1.933594-1.81641.658832-.58977 1.331189-1.16431 2.017578-1.72266.000385-.00031.0016.00032.002 0 .299469-.24359.611457-.47153.916015-.70898 1.090796-.85048 2.204124-1.67434 3.357422-2.44336.000755-.0005.0012-.0014.002-.002 1.475467-.98367 3.000689-1.89982 4.570313-2.74219.000499-.00027.0015.00027.002 0 .784712-.4211 1.580183-.82488 2.386718-1.20898.000526-.00026.0014.00025.002 0 2.420689-1.15274 4.93647-2.13627 7.533203-2.93555.000591-.00018.0014.00018.002 0 .865184-.26628 1.740599-.51349 2.623047-.73828 1.632966-.41598 3.297853-.75107 4.984375-1.01953.136925-.0218.27095-.05148.408203-.07227.000636-.0001.0013.0001.002 0 .913581-.13838 1.834294-.25412 2.761719-.34766.000645-.00006.0013.00007.002 0 1.855516-.18708 3.73849-.2843 5.642578-.28515 4.768176.0029 9.398283.60418 13.818359 1.73242.884804.22584 1.759537.47269 2.626953.74023.5758.17758 1.141267.37673 1.708985.57227 1.99505.68721 3.946141 1.47131 5.832031 2.37109 1.614939.77053 3.187911 1.61658 4.712891 2.53321.48419.29104.955173.60107 1.429687.90625.272855.17547.552687.34141.822266.52148.000755.0005.0012.0014.002.002.219093.14637.429588.30376.646484.45313 1.244577.85713 2.461943 1.75427 3.63086 2.70703 1.37253 1.11876 2.69142 2.30266 3.95117 3.54492.00066.00065.001.0013.002.002.62952.62083 1.24411 1.25625 1.84375 1.90624.00063.00068.001.0013.002.002.60023.6507 1.18476 1.31535 1.7539 1.994139 1.70745 2.03636 3.27261 4.196009 4.67969 6.464843.46903.756279.92015 1.524836 1.35352 2.304688 1.29969 2.338822 2.43616 4.781938 3.39453 7.3125.00029.000774.002.0012.002.002.31923.84303.61742 1.696538.89649 2.558594.19655.60717.37073 1.223711.54687 1.839844.0742.259654.15991.514194.23047.77539.00016.000609-.00017.0013 0 .002.23773.880189.45512 1.769046.65039 2.666016.00013.000622-.00014.0013 0 .002.19524.896979.36985 1.80221.52148 2.714844.00011.000633-.0001.0013 0 .002.1516.912644.27987 1.832592.38672 2.759762.00008.00064-.00007.001 0 .002.10682.92718.19103 1.86215.25196 2.80273.00004.00065-.00005.001 0 .002.0609.9406.0994 1.88697.11328 2.83985v.002a56 12 0 0 1 .18889.810562h-.14844v.0215.002h.14844a56 12 0 0 1 -56.080078 11.9765zm-55.7343751-12.93164a56 12 0 0 1 3.2460941-3.17383c-.188819.11112-.404798.21952-.580079.33203-.0034.002-.0083.004-.01172.006-1.3879923.90108-2.2962283 1.85061-2.6542971 2.83594zm111.4765631-.22461c-.0374-.0832-.0641-.16736-.10938-.25a56 12 0 0 1 .10938.25zm-.17969-.35742c-.21718-.36823-.50722-.73129-.875-1.08789a56 12 0 0 1 .875 1.08789zm-.9668-1.16993c-.38018-.35666-.83176-.70544-1.35546-1.04882a56 12 0 0 1 1.35546 1.04882z"
       id="path28"
       fill="url(#a)" />
    <path
       d="m63.919922 97.92601a56 12 0 0 1 -55.919922-12.01172 56 12 0 0 1 .1816406-.91406c.015766-.95158.054528-1.89668.1171875-2.83594.0000431-.00065-.0000431-.001 0-.002.062691-.93925.1493682-1.87303.2578125-2.79883.0000751-.00064-.000075-.001 0-.002.1084754-.92579.2394893-1.844627.3925782-2.755854.0001063-.000633-.0001064-.0013 0-.002.1531194-.911217.3287973-1.813452.5253906-2.708984.0001366-.000622-.0001366-.0013 0-.002.1966236-.895523.4153388-1.783393.6542966-2.662109.000166-.000608-.000165-.0013 0-.002.238988-.878708.499114-1.748595.779297-2.609375.000193-.000591-.000192-.0014 0-.002.560616-1.722132 1.203206-3.407146 1.921875-5.050781.114482-.26183.24297-.515684.361328-.775391.624933-1.371249 1.291704-2.720436 2.021485-4.029296.433972-.77833.885949-1.544066 1.355468-2.298829.000296-.000475-.000296-.0015 0-.002.938794-1.509032 1.947438-2.968869 3.021485-4.376953.000551-.000722.0014-.0012.002-.002.822228-1.077837 1.695034-2.114869 2.591797-3.12891.274474-.31036.541059-.62749.822265-.93164.000332-.00036-.000331-.0016 0-.002.599991-.6489 1.215904-1.28259 1.845703-1.90234.630448-.6204 1.274419-1.22635 1.933594-1.81641.658832-.58977 1.331189-1.16431 2.017578-1.72266.000385-.00031.0016.00032.002 0 .299469-.24359.611457-.47153.916015-.70898 1.090796-.85048 2.204124-1.67434 3.357422-2.44336.000755-.0005.0012-.0014.002-.002 1.475467-.98367 3.000689-1.89982 4.570313-2.74219.000499-.00027.0015.00027.002 0 .784712-.4211 1.580183-.82488 2.386718-1.20898.000526-.00026.0014.00025.002 0 2.420689-1.15274 4.93647-2.13627 7.533203-2.93555.000591-.00018.0014.00018.002 0 .865184-.26628 1.740599-.51349 2.623047-.73828 1.632966-.41598 3.297853-.75107 4.984375-1.01953.136925-.0218.27095-.05148.408203-.07227.000636-.0001.0013.0001.002 0 .913581-.13838 1.834294-.25412 2.761719-.34766.000645-.00006.0013.00007.002 0 1.855516-.18708 3.73849-.2843 5.642578-.28515 4.768176.0029 9.398283.60418 13.818359 1.73242.884804.22584 1.759537.47269 2.626953.74023.5758.17758 1.141267.37673 1.708985.57227 1.99505.68721 3.946141 1.47131 5.832031 2.37109 1.614939.77053 3.187911 1.61658 4.712891 2.53321.48419.29104.955173.60107 1.429687.90625.272855.17547.552687.34141.822266.52148.000755.0005.0012.0014.002.002.219093.14637.429588.30376.646484.45313 1.244577.85713 2.461943 1.75427 3.63086 2.70703 1.37253 1.11876 2.69142 2.30266 3.95117 3.54492.00066.00065.001.0013.002.002.62952.62083 1.24411 1.25625 1.84375 1.90624.00063.00068.001.0013.002.002.60023.6507 1.18476 1.31535 1.7539 1.994139 1.70745 2.03636 3.27261 4.196009 4.67969 6.464843.46903.756279.92015 1.524836 1.35352 2.304688 1.29969 2.338822 2.43616 4.781938 3.39453 7.3125.00029.000774.002.0012.002.002.31923.84303.61742 1.696538.89649 2.558594.19655.60717.37073 1.223711.54687 1.839844.0742.259654.15991.514194.23047.77539.00016.000609-.00017.0013 0 .002.23773.880189.45512 1.769046.65039 2.666016.00013.000622-.00014.0013 0 .002.19524.896979.36985 1.80221.52148 2.714844.00011.000633-.0001.0013 0 .002.1516.912644.27987 1.832592.38672 2.759762.00008.00064-.00007.001 0 .002.10682.92718.19103 1.86215.25196 2.80273.00004.00065-.00005.001 0 .002.0609.9406.0994 1.88697.11328 2.83985v.002a56 12 0 0 1 .18889.810562h-.14844v.0215.002h.14844a56 12 0 0 1 -56.080078 11.9765zm-55.7343751-12.93164a56 12 0 0 1 3.2460941-3.17383c-.188819.11112-.404798.21952-.580079.33203-.0034.002-.0083.004-.01172.006-1.3879923.90108-2.2962283 1.85061-2.6542971 2.83594zm111.4765631-.22461c-.0374-.0832-.0641-.16736-.10938-.25a56 12 0 0 1 .10938.25zm-.17969-.35742c-.21718-.36823-.50722-.73129-.875-1.08789a56 12 0 0 1 .875 1.08789zm-.9668-1.16993c-.38018-.35666-.83176-.70544-1.35546-1.04882a56 12 0 0 1 1.35546 1.04882z"
       style="fill:none;stroke-width:1.179;stroke-linecap:square;stroke-linejoin:round;mask:url(#f);stroke:url(#d);filter:url(#e)"
       mask="url(#f)"
       id="path30" />
    <path
       style="fill:none;stroke:url(#linearGradient2003);stroke-opacity:1;filter:url(#filter2017)"
       d="m 64,29.410156 c -1.904705,8.51e-4 -3.787865,0.100054 -5.644531,0.285156 a 0.6631526,0.6631526 0 0 0 -0.06641,0.0039 c -0.927674,0.09357 -1.849179,0.209669 -2.763671,0.347656 -0.0013,1.92e-4 -0.0026,-1.92e-4 -0.0039,0 a 0.6631526,0.6631526 0 0 0 -0.02734,0.0039 0.6631526,0.6631526 0 0 0 -0.002,0 c -0.166438,0.02521 -0.301111,0.05655 -0.41211,0.07422 -1.704213,0.271276 -3.390026,0.609684 -5.044922,1.03125 -0.87245,0.222243 -1.736812,0.468362 -2.591797,0.730469 -0.0014,4.17e-4 -0.0025,0.0015 -0.0039,0.002 a 0.6631526,0.6631526 0 0 0 -0.05859,0.01563 0.6631526,0.6631526 0 0 0 -0.002,0 c -2.597641,0.799559 -5.111583,1.786363 -7.535156,2.935547 -0.0069,0.0032 -0.01464,0.0046 -0.02148,0.0078 a 0.6631526,0.6631526 0 0 0 -0.06641,0.02539 0.6631526,0.6631526 0 0 0 -0.002,0 c -0.798166,0.380115 -1.585131,0.781767 -2.361328,1.197265 -0.0051,0.0027 -0.0105,0.0051 -0.01563,0.0078 a 0.6631526,0.6631526 0 0 0 -0.03906,0.01953 0.6631526,0.6631526 0 0 0 -0.002,0 c -1.58843,0.852462 -3.130203,1.780135 -4.623047,2.775391 a 0.6631526,0.6631526 0 0 0 -0.002,0.002 0.6631526,0.6631526 0 0 0 -0.05859,0.04297 c -1.149512,0.769294 -2.25928,1.585232 -3.339844,2.427734 -0.278,0.216744 -0.576814,0.4381 -0.876953,0.679688 a 0.6631526,0.6631526 0 0 0 -0.04883,0.03906 0.6631526,0.6631526 0 0 0 -0.002,0 c -0.694688,0.5651 -1.374596,1.145625 -2.041016,1.742188 -0.667358,0.597384 -1.319534,1.210555 -1.957031,1.83789 -0.636816,0.626655 -1.259721,1.268797 -1.867188,1.925781 a 0.6631526,0.6631526 0 0 0 0,0.002 0.6631526,0.6631526 0 0 0 -0.04297,0.04883 c -0.277606,0.303027 -0.535764,0.606163 -0.789062,0.892578 -0.895692,1.01283 -1.771283,2.052848 -2.599609,3.136719 a 0.6631526,0.6631526 0 0 0 -0.01172,0.01367 c -0.004,0.0052 -0.0078,0.01043 -0.01172,0.01563 a 0.6631526,0.6631526 0 0 0 -0.002,0.002 c -1.086671,1.424634 -2.10664,2.902641 -3.056641,4.429687 a 0.6631526,0.6631526 0 0 0 0,0.002 0.6631526,0.6631526 0 0 0 -0.03516,0.06055 c -0.461756,0.744286 -0.910023,1.498243 -1.337891,2.265625 -0.740508,1.328099 -1.414244,2.692319 -2.044921,4.076172 -0.110878,0.243294 -0.240819,0.500608 -0.365235,0.785156 -0.727187,1.663117 -1.377939,3.368437 -1.945312,5.111328 a 0.6631526,0.6631526 0 0 0 0,0.002 0.6631526,0.6631526 0 0 0 -0.01758,0.0625 c -0.2758825,0.850861 -0.5353006,1.709727 -0.7714848,2.578126 a 0.6631526,0.6631526 0 0 0 0,0.002 0.6631526,0.6631526 0 0 0 -0.00391,0.01172 C 9.2438771,71.953488 9.0243128,72.847566 8.8261719,73.75 a 0.6631526,0.6631526 0 0 0 0,0.002 0.6631526,0.6631526 0 0 0 -0.00195,0.0059 C 8.625893,74.661688 8.4495831,75.573748 8.2949219,76.494141 a 0.6631526,0.6631526 0 0 0 -0.00195,0.01367 0.6631526,0.6631526 0 0 0 -0.00586,0.05078 c -0.1504714,0.9018 -0.2813717,1.808849 -0.3886719,2.724609 a 0.6631526,0.6631526 0 0 0 0,0.0098 c -0.00257,0.02196 -0.00331,0.04443 -0.00586,0.06641 a 0.6631526,0.6631526 0 0 0 0,0.002 c -0.1056923,0.912317 -0.1940704,1.830124 -0.2558593,2.75586 a 0.6631526,0.6631526 0 0 0 -0.00195,0.04492 v 0.002 c -0.061295,0.930086 -0.099359,1.865361 -0.1152344,2.806641 -0.09543,0.305736 -0.175148,0.615426 -0.1816406,0.929688 a 0.6631526,0.6631526 0 0 0 0,0.0098 c -0.00451,0.987636 0.4520662,1.941226 1.2402344,2.794922 0.7881682,0.853696 1.912328,1.639781 3.355469,2.388672 2.886281,1.497782 7.070779,2.835858 12.28125,3.955078 10.420942,2.238441 25.011356,3.536515 39.705078,3.541016 14.693081,0.0045 29.299861,-1.283875 39.749998,-3.515625 5.22507,-1.115875 9.42695,-2.452085 12.33203,-3.947266 1.45255,-0.74759 2.58651,-1.533211 3.38477,-2.384765 0.73244,-0.78134 1.14175,-1.649003 1.21875,-2.548829 a 0.6631526,0.6631526 0 0 0 0.0566,-0.238281 0.6631526,0.6631526 0 0 0 0,-0.08008 c -0.001,-0.01658 -0.0102,-0.03226 -0.0117,-0.04883 -6e-5,-6.27e-4 6e-5,-0.0013 0,-0.002 a 0.6631526,0.6631526 0 0 0 -0.0156,-0.06445 c -0.0267,-0.237806 -0.0868,-0.471688 -0.16407,-0.703125 -0.0144,-0.933964 -0.0504,-1.861538 -0.10937,-2.783203 v -0.002 a 0.6631526,0.6631526 0 0 0 -0.002,-0.04297 c -0.061,-0.941813 -0.14741,-1.877985 -0.25391,-2.806641 a 0.6631526,0.6631526 0 0 0 -0.002,-0.0293 0.6631526,0.6631526 0 0 0 0,-0.002 c -0.10639,-0.923154 -0.23435,-1.839946 -0.38477,-2.75 -1e-4,-6.34e-4 1e-4,-0.0013 0,-0.002 a 0.6631526,0.6631526 0 0 0 -0.006,-0.04102 0.6631526,0.6631526 0 0 0 0,-0.002 c -0.15241,-0.917311 -0.32765,-1.825612 -0.52344,-2.726562 -8.3e-4,-0.0039 -0.001,-0.0079 -0.002,-0.01172 a 0.6631526,0.6631526 0 0 0 -0.002,-0.0098 c -0.19466,-0.894174 -0.41221,-1.781007 -0.64844,-2.658203 a 0.6631526,0.6631526 0 0 0 -0.004,-0.01367 c -0.002,-0.009 -0.003,-0.01838 -0.006,-0.02734 a 0.6631526,0.6631526 0 0 0 0,-0.002 c -0.0775,-0.287001 -0.16578,-0.543179 -0.23437,-0.783203 -0.17576,-0.614808 -0.35103,-1.240184 -0.55274,-1.863281 -0.2822,-0.871712 -0.58491,-1.734131 -0.9082,-2.587891 a 0.6631526,0.6631526 0 0 0 -0.002,-0.002 0.6631526,0.6631526 0 0 0 -0.0449,-0.0957 c -0.96184,-2.525288 -2.09051,-4.968616 -3.38868,-7.304687 -0.43842,-0.788948 -0.89443,-1.566596 -1.36914,-2.332032 -1.42382,-2.295835 -3.00875,-4.48066 -4.73632,-6.541015 -0.57584,-0.686772 -1.1661,-1.35917 -1.77344,-2.017578 a 0.6631526,0.6631526 0 0 0 -0.002,-0.002 l -0.0176,-0.01758 -0.002,-0.002 c -0.59953,-0.649238 -1.21472,-1.285783 -1.84375,-1.90625 l -0.002,-0.002 a 0.6631526,0.6631526 0 0 0 -0.004,-0.0039 C 102.37195,44.428712 101.0373,43.231679 99.648438,42.099609 98.462769,41.133196 97.232797,40.224533 95.976562,39.359375 95.789095,39.230271 95.58816,39.084746 95.371094,38.9375 a 0.6631526,0.6631526 0 0 0 -0.0332,-0.02344 c -0.0058,-0.0039 -0.0098,-0.0078 -0.01563,-0.01172 a 0.6631526,0.6631526 0 0 0 -0.002,-0.002 c -0.289354,-0.19328 -0.572682,-0.362514 -0.832031,-0.529297 -0.470568,-0.302644 -0.947597,-0.615672 -1.447265,-0.916016 -1.543128,-0.927538 -3.135367,-1.782797 -4.769532,-2.5625 -1.911185,-0.911849 -3.884359,-1.705953 -5.90039,-2.40039 -0.564835,-0.194547 -1.138085,-0.395431 -1.730469,-0.578126 -0.877618,-0.270686 -1.76268,-0.521424 -2.658203,-0.75 C 73.509528,30.02234 68.82366,29.415043 64,29.412109 a 0.6631526,0.6631526 0 0 0 0,-0.002 z"
       id="path1992"
       clip-path="url(#clipPath2021)" />
  </g>
</svg>
