<?xml version="1.0" encoding="UTF-8" standalone="no"?>
<svg
   xmlns:dc="http://purl.org/dc/elements/1.1/"
   xmlns:cc="http://creativecommons.org/ns#"
   xmlns:rdf="http://www.w3.org/1999/02/22-rdf-syntax-ns#"
   xmlns:svg="http://www.w3.org/2000/svg"
   xmlns="http://www.w3.org/2000/svg"
   xmlns:xlink="http://www.w3.org/1999/xlink"
   xmlns:sodipodi="http://sodipodi.sourceforge.net/DTD/sodipodi-0.dtd"
   xmlns:inkscape="http://www.inkscape.org/namespaces/inkscape"
   height="24"
   viewBox="0 0 6.3499999 6.3500003"
   width="24"
   version="1.1"
   id="svg172"
   sodipodi:docname="lc_styleapply.svg"
   inkscape:version="0.92.4 (unknown)"
   inkscape:export-filename="/home/rizmut/Dokumen/Rizmut/Github/libreoffice-style-karasa-jaga/build/next/cmd/lc_styleapply.png"
   inkscape:export-xdpi="96"
   inkscape:export-ydpi="96">
  <metadata
     id="metadata178">
    <rdf:RDF>
      <cc:Work
         rdf:about="">
        <dc:format>image/svg+xml</dc:format>
        <dc:type
           rdf:resource="http://purl.org/dc/dcmitype/StillImage" />
        <dc:title></dc:title>
      </cc:Work>
    </rdf:RDF>
  </metadata>
  <defs
     id="defs176">
    <radialGradient
       inkscape:collect="always"
       xlink:href="#b"
       id="radialGradient998"
       gradientUnits="userSpaceOnUse"
       gradientTransform="matrix(0.18778643,-0.00430591,9.7263e-4,0.04241826,2.109254,290.26002)"
       cx="29.962149"
       cy="131.46768"
       r="27.01967" />
    <radialGradient
       inkscape:collect="always"
       xlink:href="#d"
       id="radialGradient1000"
       gradientUnits="userSpaceOnUse"
       gradientTransform="matrix(0.26458333,0,0,0.0741725,0,285.69667)"
       cx="27.565985"
       cy="130.94269"
       r="27.01967" />
    <linearGradient
       inkscape:collect="always"
       xlink:href="#d"
       id="linearGradient1002"
       gradientUnits="userSpaceOnUse"
       x1="6.09146"
       y1="290.848175"
       x2="5.99793"
       y2="299.046853" />
    <linearGradient
       inkscape:collect="always"
       xlink:href="#d"
       id="linearGradient1004"
       gradientUnits="userSpaceOnUse"
       x1="6.09146"
       y1="290.848175"
       x2="5.99793"
       y2="299.046853" />
    <filter
       id="r-3">
      <feGaussianBlur
         stdDeviation="1.5891116"
         id="feGaussianBlur51" />
    </filter>
    <linearGradient
       id="d-5"
       gradientTransform="matrix(1.0320438,0,0,1.0327501,3.9492,21.033265)"
       gradientUnits="userSpaceOnUse"
       x1="89.090881"
       x2="89.090881"
       y1="103.89701"
       y2="30.849478">
      <stop
         offset="0"
         stop-color="#003100"
         id="stop17" />
      <stop
         offset="1"
         stop-color="#008c00"
         id="stop19" />
    </linearGradient>
    <radialGradient
       id="n-6"
       cx="53.633381"
       cy="51.919601"
       gradientTransform="matrix(1.0961401,0.0879121,-0.1002304,1.2497316,1.059933,-18.687387)"
       gradientUnits="userSpaceOnUse"
       r="52.000004"
       xlink:href="#a-2" />
    <linearGradient
       id="a-2">
      <stop
         offset="0"
         stop-color="#fff"
         id="stop2" />
      <stop
         offset="1"
         stop-color="#fff"
         stop-opacity="0"
         id="stop4" />
    </linearGradient>
    <filter
       id="o-9">
      <feBlend
         in2="BackgroundImage"
         mode="lighten"
         id="feBlend42" />
    </filter>
    <radialGradient
       id="m-1"
       cx="99.765625"
       cy="29.374895"
       gradientTransform="matrix(1.9646726,3.4e-7,-1.04e-6,5.9752716,-167.24116,-126.14811)"
       gradientUnits="userSpaceOnUse"
       r="3.015625"
       xlink:href="#b-2" />
    <linearGradient
       id="b-2">
      <stop
         offset="0"
         stop-color="#f0ff80"
         id="stop7" />
      <stop
         offset="1"
         stop-color="#f0ff80"
         stop-opacity="0"
         id="stop9-7" />
    </linearGradient>
    <filter
       id="p-0"
       height="1.205783"
       width="1.364658"
       x="-0.182329"
       y="-0.102891">
      <feGaussianBlur
         stdDeviation=".45819706"
         id="feGaussianBlur45" />
    </filter>
    <radialGradient
       id="g-9"
       cx="99.765625"
       cy="29.374895"
       gradientTransform="matrix(1.9646726,3.4e-7,-1.04e-6,5.9752716,-96.241137,-146.14811)"
       gradientUnits="userSpaceOnUse"
       r="3.015625"
       xlink:href="#a-2" />
    <filter
       id="q-3"
       height="1.37026"
       width="1.20766"
       x="-0.10383"
       y="-0.18513">
      <feGaussianBlur
         stdDeviation=".45819702"
         id="feGaussianBlur48" />
    </filter>
    <radialGradient
       id="h-6"
       cx="99.765625"
       cy="29.374895"
       gradientTransform="matrix(1.9646726,3.4e-7,-1.04e-6,5.9752716,-167.24116,-126.14811)"
       gradientUnits="userSpaceOnUse"
       r="3.015625"
       xlink:href="#a-2" />
    <filter
       id="filter968"
       height="1.205783"
       width="1.364658"
       x="-0.182329"
       y="-0.102891">
      <feGaussianBlur
         stdDeviation=".45819706"
         id="feGaussianBlur966" />
    </filter>
    <radialGradient
       id="radialGradient970"
       cx="99.765625"
       cy="29.374895"
       gradientTransform="matrix(1.9646726,3.4e-7,-1.04e-6,5.9752716,-96.241137,-146.14811)"
       gradientUnits="userSpaceOnUse"
       r="3.015625"
       xlink:href="#a-2" />
    <filter
       id="filter980"
       height="1.37026"
       width="1.20766"
       x="-0.10383"
       y="-0.18513">
      <feGaussianBlur
         stdDeviation=".45819702"
         id="feGaussianBlur978" />
    </filter>
    <radialGradient
       id="radialGradient982"
       cx="99.765625"
       cy="29.374895"
       gradientTransform="matrix(1.9646726,3.4e-7,-1.04e-6,5.9752716,-96.241137,-146.14811)"
       gradientUnits="userSpaceOnUse"
       r="3.015625"
       xlink:href="#a-2" />
    <filter
       id="filter992"
       height="1.205783"
       width="1.364658"
       x="-0.182329"
       y="-0.102891">
      <feGaussianBlur
         stdDeviation=".45819706"
         id="feGaussianBlur990" />
    </filter>
    <radialGradient
       id="f-0"
       cx="52.791927"
       cy="95.459297"
       fx="53.15992"
       fy="87.08094"
       gradientTransform="matrix(0.11213636,1.7318183e-8,-2.6939395e-8,0.18235901,4.0706977,277.19005)"
       gradientUnits="userSpaceOnUse"
       r="52.000004">
      <stop
         offset="0"
         stop-color="#001400"
         id="stop27" />
      <stop
         offset="1"
         stop-color="#001400"
         stop-opacity="0"
         id="stop29" />
    </radialGradient>
    <radialGradient
       id="c-6"
       cx="54.537579"
       cy="77.542084"
       fy="99.883759"
       gradientTransform="matrix(0.26049573,0,0,0.19550545,-4.1370701,277.42252)"
       gradientUnits="userSpaceOnUse"
       r="48.000004">
      <stop
         offset="0"
         stop-color="#66f515"
         id="stop12" />
      <stop
         offset="1"
         stop-color="#002e00"
         id="stop14" />
    </radialGradient>
    <linearGradient
       id="e-2"
       gradientTransform="matrix(0.19859023,0,0,0.19872616,-0.77970884,277.95636)"
       gradientUnits="userSpaceOnUse"
       x1="83.324677"
       x2="83.324677"
       y1="24.0625"
       y2="89.99453">
      <stop
         offset="0"
         stop-color="#bfffbf"
         id="stop22-6" />
      <stop
         offset="1"
         stop-color="#bfffbf"
         stop-opacity="0"
         id="stop24" />
    </linearGradient>
    <linearGradient
       id="i-1"
       gradientUnits="userSpaceOnUse"
       x1="71.603867"
       x2="71.603867"
       xlink:href="#b-2"
       y1="96.884026"
       y2="47.378731" />
    <filter
       id="j-8">
      <feGaussianBlur
         stdDeviation=".425"
         id="feGaussianBlur35" />
    </filter>
    <linearGradient
       id="k-7"
       gradientTransform="matrix(0.19859023,0,0,0.19872616,-0.77970884,277.16145)"
       gradientUnits="userSpaceOnUse"
       x1="87.533279"
       x2="77.137749"
       xlink:href="#a-2"
       y1="74.838577"
       y2="46.277084" />
    <linearGradient
       id="l-9"
       gradientTransform="matrix(0.19859023,0,0,0.19872616,-0.77970884,277.95636)"
       gradientUnits="userSpaceOnUse"
       x1="83.324677"
       x2="83.324677"
       xlink:href="#a-2"
       y1="24.0625"
       y2="69.837845" />
    <radialGradient
       r="3.015625"
       cy="29.374895"
       cx="99.765625"
       gradientTransform="matrix(1.9646726,3.4e-7,-1.04e-6,5.9752716,-96.241137,-146.14811)"
       gradientUnits="userSpaceOnUse"
       id="radialGradient1041"
       xlink:href="#a-2"
       inkscape:collect="always" />
    <radialGradient
       r="3.015625"
       cy="29.374895"
       cx="99.765625"
       gradientTransform="matrix(1.9646726,3.4e-7,-1.04e-6,5.9752716,-96.241137,-146.14811)"
       gradientUnits="userSpaceOnUse"
       id="radialGradient1043"
       xlink:href="#a-2"
       inkscape:collect="always" />
  </defs>
  <sodipodi:namedview
     pagecolor="#ffffff"
     bordercolor="#666666"
     borderopacity="1"
     objecttolerance="10"
     gridtolerance="10"
     guidetolerance="10"
     inkscape:pageopacity="0"
     inkscape:pageshadow="2"
     inkscape:window-width="1366"
     inkscape:window-height="714"
     id="namedview174"
     showgrid="true"
     inkscape:zoom="6.9532167"
     inkscape:cx="6.0801013"
     inkscape:cy="0.18209713"
     inkscape:window-x="0"
     inkscape:window-y="28"
     inkscape:window-maximized="1"
     inkscape:current-layer="g170">
    <inkscape:grid
       type="xygrid"
       id="grid985" />
  </sodipodi:namedview>
  <radialGradient
     id="a"
     cx="29.962149"
     cy="131.46768"
     gradientTransform="matrix(0.18778643,-0.00430591,9.7263e-4,0.04241826,2.109254,290.26002)"
     gradientUnits="userSpaceOnUse"
     r="27.01967"
     xlink:href="#b" />
  <linearGradient
     id="b">
    <stop
       offset="0"
       stop-color="#fff"
       id="stop3" />
    <stop
       offset="1"
       stop-color="#fff"
       stop-opacity="0"
       id="stop5" />
  </linearGradient>
  <radialGradient
     id="c"
     cx="27.565985"
     cy="130.94269"
     gradientTransform="matrix(0.26458333,0,0,0.0741725,0,285.69667)"
     gradientUnits="userSpaceOnUse"
     r="27.01967"
     xlink:href="#d" />
  <linearGradient
     id="d">
    <stop
       offset="0"
       id="stop9" />
    <stop
       offset="1"
       stop-opacity="0"
       id="stop11" />
  </linearGradient>
  <linearGradient
     id="e"
     gradientUnits="userSpaceOnUse"
     x1="6.522222"
     x2="6.600205"
     xlink:href="#b"
     y1="292.512989"
     y2="295.555922" />
  <linearGradient
     id="f"
     gradientUnits="userSpaceOnUse"
     x1="6.09146"
     x2="5.99793"
     xlink:href="#d"
     y1="290.848175"
     y2="299.046853" />
  <linearGradient
     id="g"
     gradientUnits="userSpaceOnUse"
     x1="20.788102"
     x2="10.963702"
     xlink:href="#d"
     y1="268.967757"
     y2="278.9582" />
  <radialGradient
     id="h"
     cx="-16.60284"
     cy="73.863823"
     gradientTransform="matrix(0.25473422,0.02748889,0.02789079,1.846495,8.739394,148.46325)"
     gradientUnits="userSpaceOnUse"
     r="4.390625"
     xlink:href="#b" />
  <linearGradient
     id="i"
     gradientUnits="userSpaceOnUse"
     x1="26.106408"
     x2="19.665187"
     y1="294.20518"
     y2="287.146715">
    <stop
       offset="0"
       stop-opacity=".447653"
       id="stop18" />
    <stop
       offset=".5"
       stop-opacity=".133574"
       id="stop20" />
    <stop
       offset="1"
       stop-opacity="0"
       id="stop22" />
  </linearGradient>
  <linearGradient
     id="j"
     gradientTransform="matrix(0.25473422,0.02748889,0.00409549,0.27114288,0.312576,262.44581)"
     gradientUnits="userSpaceOnUse"
     x1="95.84687"
     x2="76.361786"
     xlink:href="#k"
     y1="117.20569"
     y2="88.409065" />
  <linearGradient
     id="k">
    <stop
       offset="0"
       stop-color="#393a38"
       id="stop26" />
    <stop
       offset="1"
       stop-color="#393a38"
       stop-opacity="0"
       id="stop28" />
  </linearGradient>
  <linearGradient
     id="l"
     gradientTransform="matrix(0.25473422,0.02748889,0.00409549,0.27114288,0.312576,262.44581)"
     gradientUnits="userSpaceOnUse"
     x1="87.068436"
     x2="105.05599"
     xlink:href="#k"
     y1="146.89471"
     y2="58.65321" />
  <radialGradient
     id="m"
     cx="104.66048"
     cy="65.847801"
     fx="115.7285"
     fy="56.281128"
     gradientTransform="matrix(0.12000256,-0.06913218,0.27307381,0.47401268,-5.347457,256.70822)"
     gradientUnits="userSpaceOnUse"
     r="29.998838"
     xlink:href="#b" />
  <linearGradient
     id="n"
     gradientTransform="matrix(0.25438602,-0.01155329,-0.00145997,0.29661167,2.120812,262.343)"
     gradientUnits="userSpaceOnUse"
     spreadMethod="reflect"
     x1="106.2739"
     x2="79.54409"
     y1="52.468563"
     y2="69.991898">
    <stop
       offset="0"
       stop-color="#9a7600"
       id="stop33" />
    <stop
       offset=".09292036"
       stop-color="#e3ad00"
       id="stop35" />
    <stop
       offset=".5043171"
       stop-color="#ffcd2c"
       id="stop37" />
    <stop
       offset=".91571385"
       stop-color="#e3ad00"
       id="stop39" />
    <stop
       offset="1"
       stop-color="#b98d00"
       id="stop41" />
  </linearGradient>
  <linearGradient
     id="o"
     gradientTransform="matrix(0.29713891,0,0,0.20078083,-85.654012,234.56977)"
     gradientUnits="userSpaceOnUse"
     x1="-113.6435"
     x2="-118.30019"
     xlink:href="#d"
     y1="78.293831"
     y2="33.764427" />
  <linearGradient
     id="p"
     gradientTransform="matrix(0.29713891,0,0,0.20078083,-85.654012,234.56977)"
     gradientUnits="userSpaceOnUse"
     x1="-82.509743"
     x2="-118.91476"
     xlink:href="#q"
     y1="64.065186"
     y2="63.447075" />
  <linearGradient
     id="q">
    <stop
       offset="0"
       id="stop46" />
    <stop
       offset=".40659341"
       stop-opacity=".682353"
       id="stop48" />
    <stop
       offset=".45329672"
       stop-opacity=".487365"
       id="stop50" />
    <stop
       offset=".5"
       stop-opacity=".361011"
       id="stop52" />
    <stop
       offset=".70604396"
       stop-opacity=".151625"
       id="stop54" />
    <stop
       offset="1"
       stop-opacity="0"
       id="stop56" />
  </linearGradient>
  <linearGradient
     id="r"
     gradientTransform="matrix(0.29713891,0,0,0.20078083,-85.445361,234.71771)"
     gradientUnits="userSpaceOnUse"
     x1="-146.75171"
     x2="-123.66653"
     xlink:href="#q"
     y1="74.959991"
     y2="73.415115" />
  <linearGradient
     id="s"
     gradientTransform="matrix(0.29885269,0.02243057,0.01404722,0.31925895,39.69721,260.36754)"
     gradientUnits="userSpaceOnUse"
     x1="-116.78745"
     x2="-84.77729"
     xlink:href="#d"
     y1="116.55856"
     y2="93.56797" />
  <radialGradient
     id="t"
     cx="70.623695"
     cy="53.380299"
     fx="70.964447"
     fy="76.702087"
     gradientTransform="matrix(0.29801846,-0.15293049,0.1869776,0.35408102,-14.863487,266.76096)"
     gradientUnits="userSpaceOnUse"
     r="53.565186">
    <stop
       offset="0"
       stop-color="#fff"
       stop-opacity="0"
       id="stop61" />
    <stop
       offset=".5"
       stop-color="#7f7f7f"
       stop-opacity="0"
       id="stop63" />
    <stop
       offset="1"
       id="stop65" />
  </radialGradient>
  <linearGradient
     id="u"
     gradientTransform="matrix(0.29885269,0.02243057,0.01404722,0.31925895,39.69721,260.36754)"
     gradientUnits="userSpaceOnUse"
     x1="-70.057068"
     x2="-27.8897"
     y1="95.781326"
     y2="66.671455">
    <stop
       offset="0"
       stop-color="#fff"
       id="stop68" />
    <stop
       offset=".42597079"
       stop-color="#fff"
       id="stop70" />
    <stop
       offset=".5892781"
       stop-color="#f1f1f1"
       id="stop72" />
    <stop
       offset=".80219781"
       stop-color="#eaeaea"
       id="stop74" />
    <stop
       offset="1"
       stop-color="#dfdfdf"
       id="stop76" />
  </linearGradient>
  <radialGradient
     id="v"
     cx="63.84724"
     cy="121.47017"
     fx="95.480644"
     gradientTransform="matrix(0.26458333,0,0,0.02705973,0,291.98536)"
     gradientUnits="userSpaceOnUse"
     r="63.84724"
     xlink:href="#d" />
  <g
     transform="matrix(.171875 0 0 .171875 .264624 -44.96145)"
     id="g170">
    <g
       transform="matrix(-0.92082225,0,0,0.92082225,33.754408,25.055143)"
       id="g166">
      <path
         d="m 4.0676263,296.38986 c 1.8118029,0.0146 3.339677,-0.18651 3.7127048,-0.1773 2.4676279,0.0609 8.3796839,-1.0841 6.0153279,-2.49164 -2.583029,-1.53773 -9.6826445,-1.49642 -12.4469779,-0.0137 -3.0167706,1.61811 0.9074373,2.66801 2.7189452,2.68265 z"
         id="path106"
         style="opacity:0.37704899;fill:url(#radialGradient998);fill-rule:evenodd;stroke:url(#radialGradient1000);stroke-width:0.56938303"
         inkscape:connector-curvature="0" />
      <ellipse
         cx="16.892916"
         cy="295.27231"
         rx="16.892916"
         ry="1.727685"
         id="ellipse108"
         style="opacity:0.36475399;fill:url(#v)" />
      <path
         d="m 22.776185,266.90831 c 1.296174,2.30773 8.076148,14.37896 9.372315,16.68669 1.296173,2.30774 -1.54641,6.34925 -6.346512,9.02209 -4.800108,2.67283 -9.746603,2.96848 -11.042775,0.66075 -1.296168,-2.30773 -8.0761421,-14.37897 -9.3723173,-16.6867 -1.2961712,-2.30773 1.54641,-6.34925 6.3465193,-9.02208 4.800104,-2.67283 9.746604,-2.96848 11.04277,-0.66075 z"
         style="opacity:0.25;fill:none;stroke:#000000;stroke-width:0.78778899;stroke-linecap:round;stroke-linejoin:round;stroke-dashoffset:4;stroke-opacity:0.33333297"
         id="path110"
         inkscape:connector-curvature="0" />
      <path
         d="m 22.776185,266.90831 c 1.296174,2.30773 8.076148,14.37896 9.372315,16.68669 1.296173,2.30774 -1.54641,6.34925 -6.346512,9.02209 -4.800108,2.67283 -9.746603,2.96848 -11.042775,0.66075 -1.296168,-2.30773 -8.0761421,-14.37897 -9.3723173,-16.6867 -1.2961712,-2.30773 1.54641,-6.34925 6.3465193,-9.02208 4.800104,-2.67283 9.746604,-2.96848 11.04277,-0.66075 z"
         style="opacity:0.3;fill:none;stroke:#000000;stroke-width:0.52519202;stroke-linecap:round;stroke-linejoin:round;stroke-dashoffset:4;stroke-opacity:0.33333297"
         id="path112"
         inkscape:connector-curvature="0" />
      <path
         d="m 22.774958,266.82697 c 1.296175,2.30773 8.076144,14.37896 9.372314,16.68669 1.296173,2.30773 -1.546407,6.34925 -6.346513,9.02208 -4.800108,2.67283 -9.746603,2.96848 -11.042775,0.66075 -1.296168,-2.30773 -8.0761418,-14.37896 -9.3723167,-16.68669 -1.2961716,-2.30773 1.5464096,-6.34925 6.3465187,-9.02208 4.800104,-2.67283 9.746601,-2.96848 11.042772,-0.66075 z"
         id="path114"
         style="fill:url(#u)"
         inkscape:connector-curvature="0" />
      <path
         d="m 22.774958,266.82697 c 1.296175,2.30773 8.076144,14.37896 9.372314,16.68669 1.296173,2.30773 -1.546407,6.34925 -6.346513,9.02208 -4.800108,2.67283 -9.746603,2.96848 -11.042775,0.66075 -1.296168,-2.30773 -8.0761418,-14.37896 -9.3723167,-16.68669 -1.2961716,-2.30773 1.5464096,-6.34925 6.3465187,-9.02208 4.800104,-2.67283 9.746601,-2.96848 11.042772,-0.66075 z"
         id="path116"
         style="opacity:0.40573802;fill:url(#t)"
         inkscape:connector-curvature="0" />
      <path
         d="m 22.774958,266.82697 c 1.296175,2.30773 8.076144,14.37896 9.372314,16.68669 1.296173,2.30773 -1.546407,6.34925 -6.346513,9.02208 -4.800108,2.67283 -9.746603,2.96848 -11.042775,0.66075 -1.296168,-2.30773 -8.0761418,-14.37896 -9.3723167,-16.68669 -1.2961716,-2.30773 1.5464096,-6.34925 6.3465187,-9.02208 4.800104,-2.67283 9.746601,-2.96848 11.042772,-0.66075 z"
         id="path118"
         style="fill:url(#s)"
         inkscape:connector-curvature="0" />
      <ellipse
         cx="-120.46539"
         cy="244.35136"
         rx="9.9530611"
         ry="4.7949748"
         transform="matrix(0.87368565,-0.48649089,0.48970775,0.87188664,0,0)"
         id="ellipse120"
         style="opacity:0.4;fill:url(#r)" />
      <ellipse
         cx="-120.67405"
         cy="244.20343"
         rx="9.9530611"
         ry="4.7949748"
         transform="matrix(0.87368565,-0.48649089,0.48970775,0.87188664,0,0)"
         id="ellipse122"
         style="opacity:0.4;fill:url(#p)" />
      <ellipse
         cx="-120.67405"
         cy="244.20343"
         rx="9.9530611"
         ry="4.7949748"
         transform="matrix(0.87368565,-0.48649089,0.48970775,0.87188664,0,0)"
         id="ellipse124"
         style="opacity:0.4;fill:url(#o)" />
      <path
         d="m 22.800552,266.87572 c 0.07931,0.14121 0.365656,0.64417 0.423851,0.74778 1.296171,2.30773 -1.542221,6.34755 -6.342327,9.02038 -4.800107,2.67283 -9.7422345,2.97082 -11.038406,0.66309 -0.070056,-0.12473 -0.4047868,-0.72435 -0.5051483,-0.90303 0.03325,0.36595 0.1297083,0.70452 0.3053934,1.01731 0.6716337,1.19579 2.2934044,1.71025 4.3330819,1.58809 2.039678,-0.12215 4.516481,-0.87894 6.948143,-2.23296 2.431661,-1.35401 4.372747,-3.04847 5.545085,-4.71485 1.172337,-1.66639 1.571729,-3.31084 0.900092,-4.50663 -0.146415,-0.26069 -0.338874,-0.48321 -0.569765,-0.67918 z"
         id="path126"
         inkscape:connector-curvature="0"
         style="fill:#cacaca" />
      <path
         d="m 20.299004,265.6326 c -2.187856,-0.24169 -5.248382,0.50168 -8.24845,2.1722 -4.8001108,2.67282 -7.6449635,6.71855 -6.3487938,9.02628 0.097252,0.17315 0.2200243,0.32601 0.3567867,0.46993 -0.070966,-0.0916 -0.1379056,-0.1816 -0.1950183,-0.28328 -1.2961697,-2.30773 1.5486829,-6.35346 6.3487934,-9.02629 4.43797,-2.47118 9.000237,-2.91068 10.68803,-1.13913 -0.53333,-0.68612 -1.444542,-1.09192 -2.601348,-1.21971 z"
         id="path128"
         inkscape:connector-curvature="0"
         style="opacity:0.4;fill:#babdb6" />
      <path
         d="m 15.735896,281.12825 6.571483,11.08651 c 3.929309,-1.76535 8.55305,-5.8896 9.302903,-8.62749 l -6.400594,-11.28186 c -0.790049,4.01511 -5.597896,6.96892 -9.473792,8.82284 z"
         id="path130"
         style="fill:url(#n)"
         inkscape:connector-curvature="0" />
      <ellipse
         cx="-120.54996"
         cy="244.10875"
         rx="9.9431353"
         ry="4.793191"
         style="fill:none;stroke:#ffffff;stroke-width:0.393626;stroke-linecap:round;stroke-linejoin:round;stroke-dashoffset:4"
         transform="matrix(0.873335,-0.48712009,0.48922825,0.87215579,0,0)"
         id="ellipse132" />
      <path
         d="m 5.1767295,274.79581 c -0.073241,0.61511 0.00666,1.18659 0.2722203,1.67433 1.2539985,2.30318 5.9057972,1.7353 10.6734392,-0.70602 1.274868,-0.65282 2.328067,-1.44041 2.605625,-1.67214 -1.987096,-1.24736 -12.8167604,-2.36603 -13.5512845,0.70383 z"
         id="path134"
         inkscape:connector-curvature="0"
         style="fill:#b70000" />
      <path
         d="m 20.087009,265.32079 c -0.423109,-0.0459 -0.881213,-0.0499 -1.367276,-0.0207 -1.944249,0.1169 -4.326678,0.8407 -6.683057,2.15502 -2.3563799,1.31432 -4.2260448,2.95894 -5.3435019,4.54977 -0.244044,0.34743 -0.449952,0.69564 -0.6201974,1.0328 0.1553866,-0.2911 0.3414617,-0.58126 0.5509853,-0.87954 1.1174571,-1.59083 2.9869942,-3.24393 5.343373,-4.55824 2.356379,-1.31432 4.738809,-2.03812 6.683058,-2.15502 1.94425,-0.1169 3.442223,0.36141 4.059391,1.46164 0.424301,0.75642 0.384358,1.71936 -0.04572,2.7613 0.488442,-1.0989 0.559307,-2.11411 0.115056,-2.90608 -0.462876,-0.82518 -1.422787,-1.30317 -2.692115,-1.44099 z m 2.774894,4.81676 c -0.164583,0.31021 -0.361212,0.6212 -0.58193,0.93542 -1.177161,1.67582 -3.118218,3.37911 -5.555235,4.7384 -2.437016,1.3593 -4.911758,2.12044 -6.9598811,2.24358 -2.048124,0.12314 -3.6783372,-0.39623 -4.3555901,-1.60358 -0.4656114,-0.83005 -0.416387,-1.87578 0.042258,-2.99007 -0.5187932,1.17214 -0.5985815,2.2667 -0.1115984,3.13486 0.6772527,1.20735 2.3074665,1.72672 4.3555902,1.60358 2.0481244,-0.12315 4.5228654,-0.88428 6.9598814,-2.24358 2.437017,-1.3593 4.378202,-3.05411 5.555361,-4.72993 0.25519,-0.3633 0.471428,-0.73135 0.651144,-1.08868 z"
         id="path136"
         inkscape:connector-curvature="0"
         style="fill-opacity:0.39430901" />
      <path
         d="m 20.228078,265.25917 c -0.423109,-0.0459 -0.881342,-0.0584 -1.367404,-0.0291 -1.944249,0.11689 -4.326679,0.84069 -6.683058,2.15501 -1.507376,0.84077 -2.8108152,1.82059 -3.8514699,2.83279 1.0036048,-0.93845 2.2354729,-1.83526 3.6401219,-2.61873 2.356379,-1.31432 4.738809,-2.03812 6.683058,-2.15502 1.944249,-0.1169 3.472163,0.3686 4.051849,1.48861 0.551404,1.06536 0.123569,2.58844 -0.993887,4.17927 -0.388018,0.55239 -0.823513,1.06473 -1.381129,1.61418 0.652563,-0.6173 1.154363,-1.20453 1.592477,-1.82824 1.117459,-1.59083 1.593428,-3.0447 0.976257,-4.14494 -0.462876,-0.82517 -1.397487,-1.35598 -2.666815,-1.49381 z m -12.3475889,4.91905 c -0.6429287,0.61784 -1.199157,1.25016 -1.6405918,1.8786 -1.1771601,1.67582 -1.5862514,3.33031 -0.9089988,4.53766 0.6772526,1.20735 2.3074662,1.72672 4.3555902,1.60358 2.0481233,-0.12314 4.5308253,-0.88342 6.9678413,-2.24272 1.628509,-0.90833 3.028509,-1.96912 4.13395,-3.07301 -1.070074,1.02681 -2.399465,2.0094 -3.922601,2.85896 -2.437017,1.35929 -4.91163,2.1289 -6.9597534,2.25205 -2.048124,0.12314 -3.6784661,-0.40471 -4.3557182,-1.61206 -0.6772529,-1.20735 -0.2681616,-2.86183 0.9089983,-4.53766 0.3908628,-0.55644 0.8711393,-1.11544 1.4212834,-1.6654 z"
         id="path138"
         inkscape:connector-curvature="0"
         style="fill-opacity:0.39430901" />
      <path
         d="m 15.735896,281.12825 6.571483,11.08651 c 3.92931,-1.76535 8.55305,-5.8896 9.302903,-8.62749 l -6.400594,-11.28186 c -0.790049,4.01511 -5.597896,6.96892 -9.473792,8.82284 z"
         id="path140"
         style="fill:url(#m)"
         inkscape:connector-curvature="0" />
      <path
         d="m 31.757023,283.03166 c 0.07835,0.1395 0.361232,0.63637 0.418721,0.73872 1.280483,2.27981 -1.523555,6.27074 -6.265563,8.91122 -4.742013,2.64048 -9.624326,2.93486 -10.90481,0.65506 -0.06921,-0.12322 -0.399888,-0.71558 -0.499034,-0.89211 0.03285,0.36153 0.128138,0.696 0.301697,1.005 0.663504,1.18133 2.265648,1.68956 4.280639,1.56888 2.014992,-0.12068 4.461818,-0.86831 6.864051,-2.20593 2.402228,-1.33763 4.319822,-3.01158 5.477969,-4.6578 1.15815,-1.64621 1.55271,-3.27076 0.889201,-4.45208 -0.144645,-0.25753 -0.334774,-0.47736 -0.562871,-0.67096 z"
         id="path142"
         style="opacity:0.78278701;fill:url(#l)"
         inkscape:connector-curvature="0" />
      <path
         d="m 31.638963,282.89544 c 0.07835,0.1395 0.361227,0.63637 0.418719,0.73873 1.280483,2.2798 -1.523556,6.27073 -6.265564,8.91121 -4.742013,2.64048 -9.624325,2.93486 -10.90481,0.65506 -0.06921,-0.12322 -0.399888,-0.71558 -0.499034,-0.8921 0.03285,0.36152 0.128138,0.69599 0.301697,1.00499 0.663505,1.18133 2.265648,1.68956 4.280639,1.56888 2.014992,-0.12068 4.461818,-0.86831 6.864051,-2.20593 2.402228,-1.33763 4.319823,-3.01158 5.47797,-4.65779 1.15815,-1.64622 1.552707,-3.27077 0.889198,-4.45209 -0.144642,-0.25753 -0.334774,-0.47735 -0.562866,-0.67096 z"
         id="path144"
         style="opacity:0.78278701;fill:url(#j)"
         inkscape:connector-curvature="0" />
      <path
         d="m 4.0676263,296.38986 c 1.8118029,0.0146 3.339677,-0.18651 3.7127048,-0.1773 2.4676279,0.0609 8.3796839,-1.0841 6.0153279,-2.49164 -2.583029,-1.53773 -9.6826445,-1.49642 -12.4469779,-0.0137 -3.0167706,1.61811 0.9074373,2.66801 2.7189452,2.68265 z"
         id="path146"
         inkscape:connector-curvature="0"
         style="fill:#b90000;fill-rule:evenodd;stroke:#ae0000;stroke-width:0.19899" />
      <path
         d="m 4.0540524,296.48488 c 1.8118029,0.0146 3.3465595,-0.19658 3.7194916,-0.18409 2.490188,0.0834 8.59527,-1.09927 6.089985,-2.64775 -2.557087,-1.58048 -9.7505145,-1.56428 -12.6098658,-1.2e-4 -3.0033333,1.64292 0.9888813,2.81732 2.8003892,2.83196 z"
         id="path148"
         style="opacity:0.88524607;fill:none;stroke:url(#linearGradient1002);stroke-width:0.020373"
         inkscape:connector-curvature="0" />
      <path
         d="m 22.307379,292.21476 c 3.92931,-1.76535 8.55305,-5.8896 9.302903,-8.62749 -4.619546,-8.00069 -13.343735,1.65969 -9.302903,8.62749 z"
         id="path150"
         style="opacity:0.43852503;fill:url(#i)"
         inkscape:connector-curvature="0" />
      <path
         d="m 9.520324,277.88325 c -1.5173159,-0.0363 -2.075357,1.18256 -2.1727936,2.36823 -0.2912411,3.54401 0.3160959,6.02836 0.1130131,8.86394 -0.04119,0.57511 -1.0647836,1.15336 -1.1850912,-0.12789 -0.2791833,-2.97324 0.1953352,-5.05962 -0.1384549,-9.16638 -0.1102506,-1.35646 -0.5265812,-2.65953 -0.8918051,-4.21019"
         id="path152"
         inkscape:connector-curvature="0"
         style="fill:#b70000;fill-rule:evenodd;stroke:#000000;stroke-width:0.026458" />
      <path
         d="m 5.6708751,276.79418 c 0.2910181,1.14473 0.5664335,2.17783 0.6529875,3.24274 0.3337901,4.10676 -0.1407039,6.19478 0.1384794,9.16802 0.016029,0.17069 0.050078,0.30708 0.093708,0.41617 0.1167405,-0.11932 0.1971101,-0.27177 0.2081485,-0.42589 0.2030831,-2.83558 -0.4246012,-5.28508 -0.1333598,-8.82909 0.076221,-0.92752 0.4008115,-2.14073 1.2909979,-2.39851 -0.7531648,-0.39068 -1.5280661,-0.76702 -2.2509615,-1.17344 z"
         id="path154"
         style="fill:url(#h);fill-rule:evenodd"
         inkscape:connector-curvature="0" />
      <path
         d="m 5.1767295,274.79581 c -0.073241,0.61511 0.00666,1.18659 0.2722203,1.67433 1.2539985,2.30318 5.9057972,1.7353 10.6734392,-0.70602 1.274868,-0.65282 2.328067,-1.44041 2.605625,-1.67214 -1.987096,-1.24736 -12.8167604,-2.36603 -13.5512845,0.70383 z"
         id="path156"
         style="fill:url(#g)"
         inkscape:connector-curvature="0" />
      <path
         d="m 4.0540524,296.48488 c 1.8118029,0.0146 3.3465595,-0.19658 3.7194916,-0.18409 2.490188,0.0834 8.574909,-1.07891 6.069624,-2.62739 -2.557087,-1.58048 -9.7165795,-1.56089 -12.5759308,0.003 -3.0033333,1.64292 0.9753073,2.79357 2.7868152,2.80821 z"
         id="path158"
         style="opacity:0.62704905;fill:none;stroke:url(#linearGradient1004);stroke-width:0.07329"
         inkscape:connector-curvature="0" />
      <path
         d="m 4.0540524,296.48488 c 1.8118029,0.0146 3.3465595,-0.19658 3.7194916,-0.18409 2.490188,0.0834 8.528679,-1.008 6.016833,-2.5458 -2.549149,-1.56065 -9.6248869,-1.54042 -12.4943451,-0.002 -3.0168616,1.61795 0.9465126,2.71678 2.7580205,2.73142 z"
         id="path160"
         style="opacity:0.24590203;fill:none;stroke:url(#f);stroke-width:0.25849801"
         inkscape:connector-curvature="0" />
      <path
         d="m 8.564777,292.52927 c -2.0929232,-0.0789 -4.3044943,0.1296 -5.9227281,0.60744 -0.8293857,0.75645 2.2642883,1.49285 4.5409224,1.54901 2.5886312,0.0639 5.5190567,-0.67686 5.0047307,-1.66402 -1.04367,-0.27747 -2.3053598,-0.44278 -3.622925,-0.49243 z"
         id="path162"
         style="opacity:0.81967199;fill:url(#e)"
         inkscape:connector-curvature="0" />
      <path
         d="m 4.0676263,296.38986 c 1.8118029,0.0146 3.339677,-0.18651 3.7127048,-0.1773 2.4676279,0.0609 8.3796839,-1.0841 6.0153279,-2.49164 -2.583029,-1.53773 -9.6826445,-1.49642 -12.4469779,-0.0137 -3.0167706,1.61811 0.9074373,2.66801 2.7189452,2.68265 z"
         id="path164"
         style="opacity:0.70082003;fill:url(#a);fill-rule:evenodd;stroke:url(#c);stroke-width:0.19899"
         inkscape:connector-curvature="0" />
    </g>
    <g
       id="g1184"
       transform="translate(4.6181819,-19.711568)">
      <g
         id="g71"
         style="fill:none;stroke-linecap:round;stroke-linejoin:round"
         transform="matrix(0.19242425,0,0,0.19242425,-1.5396259,273.90905)">
        <path
           id="path65"
           transform="matrix(1.0320437,0,0,1.0327501,3.9492,16.902265)"
           d="M 54.393966,74.154282 C 46.245967,65.803997 28.630827,47.75 28.630827,47.75 L 15.999972,60.697999 54.393966,100.05285 111.99998,41 99.367397,28.05286 c 0,0 -35.262002,36.147423 -44.973431,46.101422 z"
           inkscape:connector-curvature="0"
           style="opacity:0.50276202;stroke:#004d00;stroke-width:11.52657509;filter:url(#r-3)" />
        <path
           id="path67"
           d="M 60.086153,93.485105 C 51.677062,84.861347 33.497467,66.216081 33.497467,66.216081 L 20.461871,79.588127 60.086153,120.23185 119.53808,59.245018 106.5007,45.873858 c 0,0 -36.391927,37.331253 -46.414547,47.611247 z"
           inkscape:connector-curvature="0"
           style="stroke:url(#d-5);stroke-width:8" />
        <path
           id="path69"
           transform="matrix(1.0320437,0,0,1.0327501,3.9492,16.902265)"
           d="M 54.393966,74.154282 C 46.245967,65.803997 28.630827,47.75 28.630827,47.75 L 15.999972,60.697999 54.393966,100.05285 111.99998,41 99.367397,28.05286 c 0,0 -35.262002,36.147423 -44.973431,46.101422 z"
           inkscape:connector-curvature="0"
           style="opacity:0.285714;stroke:url(#n-6);stroke-width:7.74895811;filter:url(#o-9)" />
      </g>
      <path
         id="path73"
         transform="matrix(0.19859023,0,0,-0.19872615,4.3836421,306.5232)"
         d="m 28.406226,44.03125 c -0.149888,-0.0024 -0.286582,0.01658 -0.4375,0.03125 -0.827192,0.08205 -1.59533,0.427082 -2.21875,0.96875 l 1.6875,9.6875 c 0.110915,-0.113676 0.850367,-0.848179 0.9375,-0.9375 l 0.375,0.375 3.03125,-8.34375 -0.5625,-0.5625 c -0.74135,-0.759594 -1.76329,-1.201919 -2.8125,-1.21875 z"
         style="opacity:0.409524;fill:url(#m-1);filter:url(#p-0)"
         inkscape:connector-curvature="0" />
      <path
         id="path75"
         transform="matrix(-0.06792186,0.18674151,0.1866138,0.06796837,4.028128,268.77455)"
         d="m 99.40625,24.03125 c -0.149888,-0.0024 -0.286582,0.01658 -0.4375,0.03125 -0.827192,0.08205 -1.59533,0.427082 -2.21875,0.96875 l 1.6875,9.6875 c 0.110915,-0.113676 0.850367,-0.848179 0.9375,-0.9375 l 0.375,0.375 3.03125,-8.34375 -0.5625,-0.5625 c -0.74135,-0.759594 -1.76329,-1.201919 -2.8125,-1.21875 z"
         style="opacity:0.23809503;fill:url(#radialGradient1041);filter:url(#q-3)"
         inkscape:connector-curvature="0" />
      <path
         id="path77"
         transform="matrix(0.19859023,0,0,0.19872615,-0.77970404,277.16145)"
         d="m 28.406226,44.03125 c -0.149888,-0.0024 -0.286582,0.01658 -0.4375,0.03125 -0.827192,0.08205 -1.59533,0.427082 -2.21875,0.96875 l 1.6875,9.6875 c 0.110915,-0.113676 0.850367,-0.848179 0.9375,-0.9375 l 0.375,0.375 3.03125,-8.34375 -0.5625,-0.5625 c -0.74135,-0.759594 -1.76329,-1.201919 -2.8125,-1.21875 z"
         style="opacity:0.77619001;fill:url(#h-6);filter:url(#p-0)"
         inkscape:connector-curvature="0" />
      <path
         id="path79"
         transform="matrix(0.06792186,0.18674151,-0.1866138,0.06796837,19.979606,264.80003)"
         d="m 99.40625,24.03125 c -0.149888,-0.0024 -0.286582,0.01658 -0.4375,0.03125 -0.827192,0.08205 -1.59533,0.427082 -2.21875,0.96875 l 1.6875,9.6875 c 0.110915,-0.113676 0.850367,-0.848179 0.9375,-0.9375 l 0.375,0.375 3.03125,-8.34375 -0.5625,-0.5625 c -0.74135,-0.759594 -1.76329,-1.201919 -2.8125,-1.21875 z"
         style="opacity:0.37142902;fill:url(#radialGradient1043);filter:url(#q-3)"
         inkscape:connector-curvature="0" />
      <path
         id="path81"
         transform="matrix(0.19859023,0,0,0.19872615,-0.77970884,277.16145)"
         d="m 99.40625,24.03125 c -0.149888,-0.0024 -0.286582,0.01658 -0.4375,0.03125 -0.827192,0.08205 -1.59533,0.427082 -2.21875,0.96875 l 1.6875,9.6875 c 0.110915,-0.113676 0.850367,-0.848179 0.9375,-0.9375 l 0.375,0.375 3.03125,-8.34375 -0.5625,-0.5625 c -0.74135,-0.759594 -1.76329,-1.201919 -2.8125,-1.21875 z"
         style="opacity:0.87142902;fill:url(#g-9);filter:url(#p-0)"
         inkscape:connector-curvature="0" />
      <path
         id="path83"
         style="opacity:0.285714;fill:none;stroke:url(#f-0);stroke-width:1.53939402;stroke-linecap:round;stroke-linejoin:round"
         d="m 10.022407,291.89785 c -1.6181131,-1.65942 -5.116308,-5.24722 -5.116308,-5.24722 l -2.5083648,2.5731 7.6246728,7.82084 11.439992,-11.73535 -2.508709,-2.57293 c 0,0 -7.002688,7.18344 -8.931283,9.16156 z"
         inkscape:connector-curvature="0" />
      <path
         id="path85"
         d="m 10.022407,291.89785 c -1.6181133,-1.65942 -5.116308,-5.24722 -5.116308,-5.24722 l -2.5083648,2.5731 7.6246728,7.82084 11.439992,-11.73535 -2.508709,-2.57293 c 0,0 -7.002688,7.18344 -8.931283,9.16156 z"
         style="fill:url(#c-6);stroke-width:0.19242425"
         inkscape:connector-curvature="0" />
      <path
         id="path87"
         d="m 18.955196,282.7382 c 0,0 -7.001759,7.18192 -8.930354,9.16004 -1.6181134,-1.65942 -5.1199051,-5.24761 -5.1199051,-5.24761 l -2.5072017,2.57102 3.270533,3.3535 c 0.037515,10e-5 0.074149,0 0.1117076,0 3.4812471,0 6.7791342,-0.41596 9.7371272,-1.16131 l 5.945296,-6.10462 z"
         style="fill:url(#e-2);stroke-width:0.19242425"
         inkscape:connector-curvature="0" />
      <path
         id="path89"
         transform="matrix(0.19859023,0,0,0.19872615,-0.77970404,277.16145)"
         d="M 54.393966,74.154282 C 46.245967,65.803997 28.630827,47.75 28.630827,47.75 L 15.999972,60.697999 54.393966,100.05285 111.99998,41 99.367397,28.05286 c 0,0 -35.262002,36.147423 -44.973431,46.101422 z"
         style="fill:none;stroke:url(#i-1);stroke-width:0.96862;filter:url(#j-8)"
         inkscape:connector-curvature="0" />
      <path
         id="path91"
         d="m 18.955196,282.7382 c 0,0 -0.07948,0.0857 -0.08068,0.087 l 2.420322,2.4406 -5.957707,6.00526 c -2.964397,0.73283 -6.1676687,1.23583 -9.6564508,1.23583 -0.025092,0 -0.049666,0 -0.074471,0 l 0.062059,0.0683 c 0.037517,10e-5 0.07415,0 0.1117077,0 3.4812471,0 6.7791341,-0.41596 9.7371271,-1.16131 l 5.945295,-6.10462 z"
         style="fill:url(#k-7);stroke-width:0.19242425"
         inkscape:connector-curvature="0" />
      <path
         id="path93"
         d="m 18.955196,282.7382 c 0,0 -7.001759,7.18192 -8.930354,9.16004 -1.6181134,-1.65942 -5.1199051,-5.24761 -5.1199051,-5.24761 l -2.5072017,2.57102 0.099295,0.0994 2.4079065,-2.47166 c 0,0 3.5017917,3.58819 5.1199053,5.24761 1.928595,-1.97812 8.930354,-9.16003 8.930354,-9.16003 l 2.407906,2.47166 0.09929,-0.0994 z"
         style="fill:url(#l-9);stroke-width:0.19242425"
         inkscape:connector-curvature="0" />
    </g>
  </g>
</svg>
