<?xml version="1.0" encoding="UTF-8" standalone="no"?>
<svg
   xmlns:dc="http://purl.org/dc/elements/1.1/"
   xmlns:cc="http://creativecommons.org/ns#"
   xmlns:rdf="http://www.w3.org/1999/02/22-rdf-syntax-ns#"
   xmlns:svg="http://www.w3.org/2000/svg"
   xmlns="http://www.w3.org/2000/svg"
   xmlns:xlink="http://www.w3.org/1999/xlink"
   xmlns:sodipodi="http://sodipodi.sourceforge.net/DTD/sodipodi-0.dtd"
   xmlns:inkscape="http://www.inkscape.org/namespaces/inkscape"
   enable-background="new 0 0 128 128"
   height="24"
   viewBox="0 0 24 24"
   width="24"
   version="1.1"
   id="svg2559"
   sodipodi:docname="lc_switchcontroldesignmode.svg"
   inkscape:version="0.92.4 (unknown)"
   inkscape:export-filename="/home/rizmut/Dokumen/Rizmut/Github/libreoffice-style-karasa-jaga/build/next/cmd/lc_switchcontroldesignmode.png"
   inkscape:export-xdpi="96"
   inkscape:export-ydpi="96">
  <metadata
     id="metadata2565">
    <rdf:RDF>
      <cc:Work
         rdf:about="">
        <dc:format>image/svg+xml</dc:format>
        <dc:type
           rdf:resource="http://purl.org/dc/dcmitype/StillImage" />
        <dc:title></dc:title>
      </cc:Work>
    </rdf:RDF>
  </metadata>
  <defs
     id="defs2563">
    <linearGradient
       id="a-3"
       gradientUnits="userSpaceOnUse"
       x1="65.918159"
       x2="95.469009"
       y1="92.505585"
       y2="72.005585">
      <stop
         offset="0"
         stop-color="#382a23"
         id="stop3241" />
      <stop
         offset="1"
         stop-color="#753919"
         stop-opacity="0"
         id="stop3243" />
    </linearGradient>
    <filter
       style="color-interpolation-filters:sRGB"
       id="b-6"
       height="1.116259"
       width="1.1189719"
       x="-0.059486002"
       y="-0.058129001">
      <feGaussianBlur
         stdDeviation="2.3063507"
         id="feGaussianBlur3246" />
    </filter>
    <radialGradient
       id="c-7"
       cx="30.826572"
       cy="86.85881"
       gradientTransform="matrix(0.97177617,0,0,0.99360916,2.808391,-1.052321)"
       gradientUnits="userSpaceOnUse"
       r="48.221165">
      <stop
         offset="0"
         stop-color="#fff718"
         id="stop3249" />
      <stop
         offset="1"
         stop-color="#e77100"
         id="stop3251" />
    </radialGradient>
    <linearGradient
       id="d-5"
       gradientUnits="userSpaceOnUse"
       x1="-6.9534378"
       x2="66.845505"
       y1="100.30381"
       y2="77.467064">
      <stop
         offset="0"
         stop-color="#753919"
         id="stop3254" />
      <stop
         offset="1"
         stop-color="#753919"
         stop-opacity="0"
         id="stop3256" />
    </linearGradient>
    <radialGradient
       id="e-3"
       cx="45.885448"
       cy="75.050514"
       gradientTransform="matrix(0.97177617,0,0,0.99360916,2.808391,-1.052321)"
       gradientUnits="userSpaceOnUse"
       r="48.221165"
       xlink:href="#f-5" />
    <linearGradient
       id="f-5">
      <stop
         offset="0"
         stop-color="#31170a"
         id="stop3260" />
      <stop
         offset="1"
         stop-color="#542912"
         stop-opacity="0"
         id="stop3262" />
    </linearGradient>
    <radialGradient
       id="g-6"
       cx="-3.114552"
       cy="128.35297"
       gradientTransform="matrix(0.97177617,0,0,0.99360916,2.808391,-1.052321)"
       gradientUnits="userSpaceOnUse"
       r="48.221165"
       xlink:href="#f-5" />
    <linearGradient
       id="h-2"
       gradientUnits="userSpaceOnUse"
       x1="11.554377"
       x2="74.575577"
       xlink:href="#i-9"
       y1="103.21913"
       y2="90.586044" />
    <linearGradient
       id="i-9"
       gradientUnits="userSpaceOnUse"
       x1="28"
       x2="28"
       y1="57.5"
       y2="0">
      <stop
         offset="0"
         stop-color="#ffea00"
         id="stop3267" />
      <stop
         offset="1"
         stop-color="#fc0"
         id="stop3269" />
    </linearGradient>
    <linearGradient
       id="j-1"
       gradientUnits="userSpaceOnUse"
       x1="4.2660551"
       x2="89.204308"
       y1="115.05597"
       y2="115.05597">
      <stop
         offset="0"
         stop-color="#ffea00"
         id="stop3272" />
      <stop
         offset="1"
         stop-color="#dea200"
         id="stop3274" />
    </linearGradient>
    <linearGradient
       id="k-2"
       gradientUnits="userSpaceOnUse"
       x1="2.814214"
       x2="68.147888"
       y1="124.73762"
       y2="62.865772">
      <stop
         offset="0"
         stop-color="#ffeb4a"
         id="stop3277" />
      <stop
         offset="1"
         stop-color="#ffeb4a"
         stop-opacity="0"
         id="stop3279" />
    </linearGradient>
    <filter
       style="color-interpolation-filters:sRGB"
       id="l-7"
       height="1.035563"
       width="1.036448"
       x="-0.018224001"
       y="-0.017782001">
      <feGaussianBlur
         stdDeviation=".66328126"
         id="feGaussianBlur3282" />
    </filter>
    <linearGradient
       id="m-0"
       gradientUnits="userSpaceOnUse"
       x1="9.6108236"
       x2="2.2226479"
       xlink:href="#i-9"
       y1="58.780281"
       y2="105.91142" />
    <linearGradient
       id="n-9"
       gradientUnits="userSpaceOnUse"
       x1="1.90311"
       x2="32.767338"
       y1="44.651196"
       y2="82.160851">
      <stop
         offset="0"
         stop-color="#fff"
         id="stop3286" />
      <stop
         offset="1"
         stop-color="#fff"
         stop-opacity="0"
         id="stop3288" />
    </linearGradient>
  </defs>
  <sodipodi:namedview
     pagecolor="#ffffff"
     bordercolor="#666666"
     borderopacity="1"
     objecttolerance="10"
     gridtolerance="10"
     guidetolerance="10"
     inkscape:pageopacity="0"
     inkscape:pageshadow="2"
     inkscape:window-width="1366"
     inkscape:window-height="714"
     id="namedview2561"
     showgrid="true"
     inkscape:zoom="6.9532167"
     inkscape:cx="3.3868075"
     inkscape:cy="8.1337149"
     inkscape:window-x="0"
     inkscape:window-y="28"
     inkscape:window-maximized="1"
     inkscape:current-layer="g3618">
    <inkscape:grid
       type="xygrid"
       id="grid3799" />
  </sodipodi:namedview>
  <linearGradient
     id="a"
     gradientTransform="matrix(1.3755238,0,0,1.8570645,-21.763731,-96.765704)"
     gradientUnits="userSpaceOnUse"
     x1="59.925762"
     x2="100.4067"
     y1="101.12862"
     y2="77.702431">
    <stop
       offset="0"
       id="stop2341" />
    <stop
       offset="1"
       stop-opacity="0"
       id="stop2343" />
  </linearGradient>
  <filter
     id="b">
    <feGaussianBlur
       stdDeviation=".6715998"
       id="feGaussianBlur2346" />
  </filter>
  <radialGradient
     id="c"
     cx="42.617531"
     cy="120.64188"
     gradientTransform="matrix(1.909059,1.8392116,-8.6222515,7.5766472,1009.8522,-881.36145)"
     gradientUnits="userSpaceOnUse"
     r="3.406888">
    <stop
       offset="0"
       stop-color="#b4942a"
       id="stop2349" />
    <stop
       offset="1"
       stop-color="#e4dcc9"
       id="stop2351" />
  </radialGradient>
  <linearGradient
     id="d"
     gradientTransform="matrix(0.9986497,0,0,0.9998891,0.14044,0.005323)"
     gradientUnits="userSpaceOnUse"
     x1="75.848022"
     x2="81.452583"
     y1="72.804123"
     y2="77.047241">
    <stop
       offset="0"
       stop-color="#252525"
       id="stop2354" />
    <stop
       offset=".5"
       stop-color="#252525"
       id="stop2356" />
    <stop
       offset=".75"
       stop-color="#252525"
       id="stop2358" />
    <stop
       offset="1"
       id="stop2360" />
  </linearGradient>
  <linearGradient
     id="e"
     gradientTransform="matrix(0.9986497,0,0,0.9998891,0.14044,0.005323)"
     gradientUnits="userSpaceOnUse"
     x1="76.708534"
     x2="80.579521"
     y1="83.325729"
     y2="87.154587">
    <stop
       offset="0"
       stop-color="#d4a100"
       stop-opacity=".976471"
       id="stop2363" />
    <stop
       offset="1"
       stop-color="#ffc712"
       id="stop2365" />
  </linearGradient>
  <linearGradient
     id="f"
     gradientTransform="matrix(1.2875994,1.1737414,-0.5465891,0.6213041,81.686465,27.89447)"
     gradientUnits="userSpaceOnUse"
     x1="11.326384"
     x2="14.493531"
     y1="57.383999"
     y2="57.383999">
    <stop
       offset="0"
       stop-color="#9a7600"
       id="stop2368" />
    <stop
       offset=".09292036"
       stop-color="#e3ad00"
       id="stop2370" />
    <stop
       offset=".5043171"
       stop-color="#ffcd2c"
       id="stop2372" />
    <stop
       offset=".91571385"
       stop-color="#e3ad00"
       id="stop2374" />
    <stop
       offset="1"
       stop-color="#b98d00"
       id="stop2376" />
  </linearGradient>
  <linearGradient
     id="g"
     gradientTransform="matrix(0.9992082,0,0,0.9993395,0.108362,-0.090375)"
     gradientUnits="userSpaceOnUse"
     x1="114.92793"
     x2="100.65602"
     y1="-22.560064"
     y2="-22.052734">
    <stop
       offset="0"
       stop-color="#980000"
       id="stop2379" />
    <stop
       offset="1"
       stop-color="#db5c5c"
       id="stop2381" />
  </linearGradient>
  <linearGradient
     id="h"
     gradientUnits="userSpaceOnUse"
     x1="-12.817558"
     x2="82.172836"
     y1="7.462277"
     y2="7.462277">
    <stop
       offset="0"
       stop-color="#fff"
       stop-opacity=".683453"
       id="stop2384" />
    <stop
       offset="1"
       stop-color="#fff"
       stop-opacity="0"
       id="stop2386" />
  </linearGradient>
  <filter
     id="i">
    <feGaussianBlur
       stdDeviation=".31468463"
       id="feGaussianBlur2389" />
  </filter>
  <radialGradient
     id="j"
     cx="34.677639"
     cy="7.462277"
     gradientTransform="matrix(-1.5103,0.00264127,-1.1671e-4,-0.00911022,87.0522,7.438666)"
     gradientUnits="userSpaceOnUse"
     r="47.595196"
     xlink:href="#k" />
  <linearGradient
     id="k">
    <stop
       offset="0"
       stop-color="#fff"
       id="stop2393" />
    <stop
       offset="1"
       stop-color="#fff"
       stop-opacity="0"
       id="stop2395" />
  </linearGradient>
  <linearGradient
     id="l"
     gradientTransform="matrix(0.6182226,0,0,0.6232687,24.10803,47.993844)"
     gradientUnits="userSpaceOnUse"
     x1="33.342377"
     x2="24.450998"
     y1="117.83894"
     y2="107.35519">
    <stop
       offset="0"
       id="stop2398" />
    <stop
       offset="1"
       stop-color="#515151"
       id="stop2400" />
  </linearGradient>
  <linearGradient
     id="m"
     gradientTransform="matrix(1.6732108,1.5189394,-1.5009523,1.6928488,18.675678,-24.465565)"
     gradientUnits="userSpaceOnUse"
     x1="48.498562"
     x2="48.732723"
     xlink:href="#k"
     y1=".811505"
     y2="2.365727" />
  <linearGradient
     id="n"
     gradientTransform="matrix(0.9973012,0,0,0.9997782,0.28069,0.010646)"
     gradientUnits="userSpaceOnUse"
     x1="92.226158"
     x2="96.579895"
     y1="54.119438"
     y2="57.15118">
    <stop
       offset="0"
       stop-color="#ea3838"
       id="stop2404" />
    <stop
       offset="1"
       stop-color="#c40000"
       id="stop2406" />
  </linearGradient>
  <radialGradient
     id="o"
     cx="49.011971"
     cy="2.674308"
     gradientTransform="matrix(2.2600183,0,0,0.2752449,-2.259041,-25.415382)"
     gradientUnits="userSpaceOnUse"
     r="1.724619"
     xlink:href="#p" />
  <linearGradient
     id="p">
    <stop
       offset="0"
       stop-color="#fff"
       id="stop2410" />
    <stop
       offset="1"
       stop-color="#252525"
       stop-opacity="0"
       id="stop2412" />
  </linearGradient>
  <radialGradient
     id="q"
     cx="49.011971"
     cy="2.674308"
     gradientTransform="matrix(1.550633,0,0,0.1873121,21.621938,-31.864287)"
     gradientUnits="userSpaceOnUse"
     r="1.724619"
     xlink:href="#p" />
  <radialGradient
     id="r"
     cx="49.011971"
     cy="2.674308"
     gradientTransform="matrix(1.5495914,0,0,0.1876849,-193.24041,-23.535874)"
     gradientUnits="userSpaceOnUse"
     r="1.724619"
     xlink:href="#p" />
  <linearGradient
     id="s"
     gradientUnits="userSpaceOnUse"
     x1="88.591797"
     x2="71.262016"
     y1="96.592697"
     y2="79.262917">
    <stop
       offset="0"
       stop-color="#fff"
       id="stop2417" />
    <stop
       offset="1"
       stop-color="#555753"
       id="stop2419" />
  </linearGradient>
  <linearGradient
     id="t"
     gradientUnits="userSpaceOnUse"
     x1="85.219681"
     x2="61.336319"
     y1="93.219681"
     y2="69.336319">
    <stop
       offset="0"
       id="stop2422" />
    <stop
       offset="1"
       stop-color="#393b38"
       id="stop2424" />
  </linearGradient>
  <linearGradient
     id="u"
     gradientUnits="userSpaceOnUse"
     x1="96"
     x2="88.000198"
     y1="104"
     y2="96.000198">
    <stop
       offset="0"
       stop-color="#888a85"
       id="stop2427" />
    <stop
       offset=".0072"
       stop-color="#8c8e89"
       id="stop2429" />
    <stop
       offset=".0673"
       stop-color="#abaca9"
       id="stop2431" />
    <stop
       offset=".1347"
       stop-color="#c5c6c4"
       id="stop2433" />
    <stop
       offset=".2115"
       stop-color="#dbdbda"
       id="stop2435" />
    <stop
       offset=".3012"
       stop-color="#ebebeb"
       id="stop2437" />
    <stop
       offset=".4122"
       stop-color="#f7f7f6"
       id="stop2439" />
    <stop
       offset=".5679"
       stop-color="#fdfdfd"
       id="stop2441" />
    <stop
       offset="1"
       stop-color="#fff"
       id="stop2443" />
  </linearGradient>
  <radialGradient
     id="v"
     cx="102"
     cy="112.3047"
     gradientTransform="matrix(.94807 0 0 .9510679 3.32352 5.274458)"
     gradientUnits="userSpaceOnUse"
     r="139.55859">
    <stop
       offset="0"
       stop-color="#535557"
       id="stop2446" />
    <stop
       offset=".11366145"
       stop-color="#898a8c"
       id="stop2448" />
    <stop
       offset=".20296688"
       stop-color="#ececec"
       id="stop2450" />
    <stop
       offset=".2363"
       stop-color="#fafafa"
       id="stop2452" />
    <stop
       offset=".2722"
       stop-color="#fff"
       id="stop2454" />
    <stop
       offset=".5313"
       stop-color="#fafafa"
       id="stop2456" />
    <stop
       offset=".8449"
       stop-color="#ebecec"
       id="stop2458" />
    <stop
       offset="1"
       stop-color="#e1e2e3"
       id="stop2460" />
  </radialGradient>
  <radialGradient
     id="w"
     cx="100.80984"
     cy="112.93461"
     gradientUnits="userSpaceOnUse"
     r="135.18756">
    <stop
       offset="0"
       stop-color="#3e3e3e"
       id="stop2463" />
    <stop
       offset=".0151"
       stop-color="#505050"
       id="stop2465" />
    <stop
       offset=".0558"
       stop-color="#7e7e7e"
       id="stop2467" />
    <stop
       offset=".1357"
       stop-color="#c6c6c6"
       id="stop2469" />
    <stop
       offset=".20990001"
       stop-color="#f1f1f1"
       id="stop2471" />
    <stop
       offset=".24349999"
       stop-color="#fcfcfc"
       id="stop2473" />
    <stop
       offset=".2722"
       stop-color="#fff"
       id="stop2475" />
  </radialGradient>
  <filter
     id="x">
    <feGaussianBlur
       stdDeviation="1.0394514"
       id="feGaussianBlur2478" />
  </filter>
  <filter
     id="y">
    <feGaussianBlur
       stdDeviation=".50063244"
       id="feGaussianBlur2481" />
  </filter>
  <filter
     id="z">
    <feGaussianBlur
       stdDeviation=".40750996"
       id="feGaussianBlur2484" />
  </filter>
  <filter
     id="A">
    <feGaussianBlur
       stdDeviation=".4901192"
       id="feGaussianBlur2487" />
  </filter>
  <filter
     id="B">
    <feGaussianBlur
       stdDeviation=".90565481"
       id="feGaussianBlur2490" />
  </filter>
  <g
     id="g3618">
    <g
       id="g3403"
       transform="matrix(0.171875,0,0,0.171875,1.169103,0.82765789)">
      <path
         id="path3381"
         transform="matrix(0.97177617,0,0,0.97177617,2.808391,0.715728)"
         d="m 3.7599545,30.894267 c -1.5704891,0.0049 -2.8411906,1.279112 -2.84179695,2.849609 v 89.523444 c 6.1456e-4,1.57354 1.27606815,2.849 2.84960945,2.84961 h 87.351562 c 2.521216,-9.2e-4 3.800225,-3.03383 2.041016,-4.83985 L 5.8087826,31.753642 C 5.2701664,31.201889 4.5310145,30.891853 3.7599545,30.894267 Z M 17.940655,73.329381 52.969372,108.97333 H 17.940655 Z"
         inkscape:connector-curvature="0"
         style="fill:url(#a-3);filter:url(#b-6)" />
      <path
         id="path3383"
         d="m 4.7443515,33.143064 c -1.5261642,0.0048 -2.7610017,1.243011 -2.7615905,2.769183 v 86.996743 c 5.934e-4,1.52913 1.2400499,2.76859 2.7691825,2.76919 H 89.63811 c 2.450068,-8.9e-4 3.692983,-2.94821 1.983411,-4.70326 L 6.7353538,33.978185 C 6.2119395,33.442004 5.4936493,33.140719 4.7443515,33.143064 Z M 18.524818,74.380497 52.564891,109.01844 H 18.524818 Z"
         inkscape:connector-curvature="0"
         style="fill:url(#c-7)" />
      <path
         id="path3385"
         d="m 4.7443515,33.143064 c -1.5261642,0.0048 -2.7610017,1.243011 -2.7615905,2.769183 v 86.996743 c 5.934e-4,1.52913 1.2400499,2.76859 2.7691825,2.76919 H 89.63811 c 2.450068,-8.9e-4 3.692983,-2.94821 1.983411,-4.70326 L 6.7353538,33.978185 C 6.2119395,33.442004 5.4936493,33.140719 4.7443515,33.143064 Z M 18.524818,74.380497 52.564891,109.01844 H 18.524818 Z"
         inkscape:connector-curvature="0"
         style="fill:url(#d-5)" />
      <path
         id="path3387"
         d="m 4.7443515,33.143064 c -1.5261642,0.0048 -2.7610017,1.243011 -2.7615905,2.769183 v 86.996743 c 5.934e-4,1.52913 1.2400499,2.76859 2.7691825,2.76919 H 89.63811 c 2.450068,-8.9e-4 3.692983,-2.94821 1.983411,-4.70326 L 6.7353538,33.978185 C 6.2119395,33.442004 5.4936493,33.140719 4.7443515,33.143064 Z M 18.524818,74.380497 52.564891,109.01844 H 18.524818 Z"
         inkscape:connector-curvature="0"
         style="fill:url(#e-3)" />
      <path
         id="path3389"
         d="m 4.7443515,33.143064 c -1.5261642,0.0048 -2.7610017,1.243011 -2.7615905,2.769183 v 86.996743 c 5.934e-4,1.52913 1.2400499,2.76859 2.7691825,2.76919 H 89.63811 c 2.450068,-8.9e-4 3.692983,-2.94821 1.983411,-4.70326 L 6.7353538,33.978185 C 6.2119395,33.442004 5.4936493,33.140719 4.7443515,33.143064 Z M 14.524818,66.380497 60.564891,113.01844 H 14.524818 Z"
         inkscape:connector-curvature="0"
         style="fill:url(#g-6)" />
      <path
         id="path3391"
         d="M 4.7519435,35.912247 V 122.90899 H 89.63811 Z m 11.0036925,31.663918 43.38203,44.211455 h -43.38203 z"
         inkscape:connector-curvature="0"
         style="fill:url(#h-2)" />
      <path
         id="path3393"
         d="m 58.528407,111.16318 0.609259,0.62444 H 20.203565 L 4.7519435,122.55217 v 0.35682 H 89.01177 Z"
         inkscape:connector-curvature="0"
         style="fill:url(#j-1);fill-rule:evenodd" />
      <path
         id="path3395"
         transform="matrix(0.97177617,0,0,0.97177617,2.808391,0.715728)"
         d="m 2,36.21875 v 89.52344 H 89.351562 Z M 13.323279,68.802301 57.965277,114.29781 H 13.323279 Z"
         inkscape:connector-curvature="0"
         style="fill:none;stroke:url(#k-2);stroke-width:1.20000005;filter:url(#l-7)" />
      <path
         id="path3397"
         d="M 4.7519435,36.608813 V 122.90899 H 5.4143456 L 16.02705,107.78762 H 15.755636 V 73.754577 C 12.79387,68.333014 8.8027983,47.3926 4.7519435,36.608813 Z"
         inkscape:connector-curvature="0"
         style="fill:url(#m-0);fill-rule:evenodd" />
      <path
         id="path3399"
         d="M 4.7519435,37.170224 V 91.066238 L 15.413425,84.877071 V 67.975087 l 14.001841,12.150217 4.776487,-12.782659 z"
         inkscape:connector-curvature="0"
         style="fill:url(#n-9);fill-rule:evenodd" />
      <path
         id="path3401"
         d="M 4.7519435,35.912247 V 122.90899 H 5.4807756 V 36.660058 Z M 16.484468,68.062053 v 0.261925 L 59.137666,111.78762 H 16.484468 v 0.48589 h 43.38203 z"
         inkscape:connector-curvature="0"
         style="fill:#ffffff" />
    </g>
    <g
       id="g2557"
       transform="matrix(0.25029315,0,0,0.25029315,-2.2736271,-12.035019)">
      <g
         id="g2525"
         style="fill-rule:evenodd">
        <path
           id="path2517"
           d="m 90.067703,48.28801 c 0.613642,-0.692125 4.648657,-0.363057 8.944253,3.536477 4.337724,3.937759 5.210074,7.748115 4.441394,8.615025 -0.5003,0.564284 -1.00061,1.128566 -1.50092,1.692851 -4.461914,-4.050501 -8.9238,-8.101002 -13.385691,-12.151503 0.500309,-0.564283 1.000624,-1.128565 1.500964,-1.69285 z"
           inkscape:connector-curvature="0"
           style="fill:#bf0000" />
        <path
           id="path2519"
           d="m 36.000762,124 20.247,-9.42653 0.09417,-0.10772 -13.269004,-12.28446 -0.127672,0.1459 z"
           inkscape:connector-curvature="0"
           style="fill:#b3925d" />
        <path
           id="path2521"
           d="m 98.534725,51.799464 c -1.025821,-0.04502 -1.882013,0.614542 -2.665637,0.986566 -4.174912,3.698786 -21.569273,21.653428 -22.000397,22.168708 l -17.273332,20.659839 -0.106627,0.116066 -9.682256,17.633397 23.598527,-5.26172 29.942357,-36.049245 3.58973,-4.294461 c 0.64726,-1.199814 1.23861,-7.813473 -1.74155,-12.76732 -1.45299,-2.415269 -2.634991,-3.146806 -3.660815,-3.19183 z m 5.402365,15.95915 c -0.0266,0.04924 -0.0446,0.143824 -0.0711,0.174098 -0.0129,0.01476 1.49247,-1.049396 0.6753,-0.870498 z"
           style="fill:url(#a);filter:url(#b)"
           inkscape:connector-curvature="0" />
        <path
           id="path2523"
           d="m 37.004018,123.01573 18.885171,-8.78019 0.09416,-0.10769 -12.551842,-11.60866 -0.12769,0.14592 z"
           style="fill:url(#c)"
           inkscape:connector-curvature="0" />
      </g>
      <path
         id="path2527"
         d="m 49.164276,108.94499 c 1.648961,1.50106 2.755448,1.51054 3.34488,2.0471 0.09525,0.0867 0.175312,0.18851 0.243795,0.29167 L 97.392942,60.017302 90.912418,54.117987 46.187555,105.48147 c 0.214748,0.0564 0.415855,0.13454 0.602285,0.30424 0.538767,0.49045 0.717813,1.65124 2.374436,3.15928 z"
         style="fill:url(#d)"
         inkscape:connector-curvature="0" />
      <path
         id="path2529"
         d="m 54.219542,109.12044 -1.750182,2.00168 c 0.538752,0.53092 0.431653,1.46553 1.421976,2.36702 1.067261,0.97156 1.630178,0.45849 2.321697,1.08447 l 1.771382,-2.02599 z"
         inkscape:connector-curvature="0"
         style="opacity:0.35348804" />
      <path
         id="path2531"
         d="M 97.156354,59.801933 52.550305,111.02955 c 0.541583,0.53354 0.517441,1.37742 1.512824,2.28353 1.072712,0.97652 1.555044,0.55628 2.250088,1.18547 L 100.94048,63.246681 Z"
         style="fill:url(#e)"
         inkscape:connector-curvature="0" />
      <path
         id="path2533"
         d="m 47.641192,104.81388 -0.897802,1.02682 -0.0345,0.0376 c 0.447512,0.42018 0.395724,1.39005 1.878296,2.86086 l 0.08229,0.0749 0.586334,0.53373 0.0823,0.0749 c 1.616252,1.35012 2.54668,1.16726 3.136095,1.7038 l 0.947655,-1.09585 z"
         inkscape:connector-curvature="0"
         style="opacity:0.386047;fill:#252525" />
      <path
         id="path2535"
         d="m 43.884886,101.37497 -0.940801,0.95531 c 0.02064,0.0187 -0.05311,0.1047 -0.03237,0.12358 0.423005,0.38509 0.412824,1.36825 1.189787,2.20191 l 0.072,0.0655 0.318878,0.29029 0.04115,0.0374 c 0.925767,0.72156 1.702344,0.46358 2.175362,0.82926 l 0.940872,-1.07609 z"
         inkscape:connector-curvature="0"
         style="opacity:0.35348804;fill:#131313" />
      <path
         id="path2537"
         d="m 44.501995,104.6749 c 1.032229,0.92922 1.738227,0.6105 2.287845,1.11081 L 91.395905,54.558106 87.571444,51.076654 42.944168,102.32853 c 0.02096,0.019 0.04162,0.0379 0.06269,0.0571 0.42971,0.39116 0.455145,1.35294 1.495139,2.28929 z"
         style="fill:url(#f)"
         inkscape:connector-curvature="0" />
      <path
         id="path2539"
         transform="matrix(0.7409346,0.6715772,-0.6655662,0.7463388,0,0)"
         d="m 99.380959,-24.64492 h 18.073061 v 4.252269 H 99.380959 Z"
         style="fill:url(#g)"
         inkscape:connector-curvature="0" />
      <path
         id="path2541"
         transform="matrix(0.3854946,-0.4403693,-1.7345162,-1.5764895,62.874028,110.46407)"
         d="m 82.172836,7.4622769 c 0,0.5365014 -21.264324,0.9714217 -47.495197,0.9714217 -26.2308732,0 -47.495197,-0.4349203 -47.495197,-0.9714217 0,-0.5365014 21.2643238,-0.9714217 47.495197,-0.9714217 26.230873,0 47.495197,0.4349203 47.495197,0.9714217 z"
         style="fill:url(#h);filter:url(#i)"
         inkscape:connector-curvature="0" />
      <path
         id="path2543"
         transform="matrix(0.3184879,-0.3665274,-1.2576415,-1.1452705,66.925762,101.47904)"
         d="m 106.56087,7.4622769 c 2e-5,0.232347 -31.840086,0.4212113 -71.318555,0.4230365 -39.478469,0.00183 -71.818819,-0.1840719 -72.439038,-0.4163902 -0.62022,-0.2323183 30.7118344,-0.424103 70.18056,-0.4295779 39.468725,-0.00547 72.301293,0.1774094 73.541553,0.4096417"
         style="fill:url(#j)"
         inkscape:connector-curvature="0" />
      <path
         id="path2545"
         d="m 44.721041,119.98334 c -1.894932,-0.77816 -4.469372,-3.93608 -5.787909,-5.07837 l -2.933131,9.08971 z"
         style="fill:url(#l);fill-rule:evenodd"
         inkscape:connector-curvature="0" />
      <path
         id="path2547"
         d="m 97.676422,50.957862 c 2.773338,2.157871 4.754818,5.136648 4.863888,5.422718 0.10904,0.286071 -2.586875,-3.046365 -4.878244,-4.572341 -2.273846,-1.514326 -5.450917,-1.552229 -5.685693,-1.736594 -0.234782,-0.184361 -1.822614,-1.877275 -0.38221,-1.814774 1.506596,0.06537 3.94013,1.035831 6.082259,2.700991 z"
         style="fill:url(#m);fill-rule:evenodd"
         inkscape:connector-curvature="0" />
      <path
         id="path2549"
         d="m 93.653015,51.592952 -2.773744,3.218036 6.482458,5.873697 2.773741,-3.186793 z"
         style="fill:url(#n)"
         inkscape:connector-curvature="0" />
      <path
         id="path2551"
         transform="matrix(0.7404161,0.6721488,-0.6634233,0.7482443,0,0)"
         d="m 104.60918,-25.364759 h 7.79523 v 1.708078 h -7.79523 z"
         style="fill:url(#o)"
         inkscape:connector-curvature="0" />
      <path
         id="path2553"
         transform="matrix(0.6942228,0.7197602,-0.7693435,0.6388354,0,0)"
         d="m 94.946716,-31.829779 h 5.348454 v 1.162492 h -5.348454 z"
         style="fill:url(#q)"
         inkscape:connector-curvature="0" />
      <path
         id="path2555"
         transform="matrix(-0.7514575,-0.6597815,-0.5893147,0.8079036,0,0)"
         d="m -119.96733,-23.501301 h 5.3449 v 1.164788 h -5.3449 z"
         style="fill:url(#r)"
         inkscape:connector-curvature="0" />
    </g>
  </g>
</svg>
