<?xml version="1.0" encoding="UTF-8" standalone="no"?>
<svg
   xmlns:dc="http://purl.org/dc/elements/1.1/"
   xmlns:cc="http://creativecommons.org/ns#"
   xmlns:rdf="http://www.w3.org/1999/02/22-rdf-syntax-ns#"
   xmlns:svg="http://www.w3.org/2000/svg"
   xmlns="http://www.w3.org/2000/svg"
   xmlns:xlink="http://www.w3.org/1999/xlink"
   xmlns:sodipodi="http://sodipodi.sourceforge.net/DTD/sodipodi-0.dtd"
   xmlns:inkscape="http://www.inkscape.org/namespaces/inkscape"
   height="24"
   width="24"
   version="1.1"
   id="svg21"
   sodipodi:docname="lc_strikeout.svg"
   inkscape:export-filename="/home/rizmut/Dokumen/Rizmut/Github/libreoffice-style-karasa-jaga/build/next/cmd/lc_strikeout.png"
   inkscape:export-xdpi="96"
   inkscape:export-ydpi="96"
   inkscape:version="0.92.4 (unknown)">
  <metadata
     id="metadata27">
    <rdf:RDF>
      <cc:Work
         rdf:about="">
        <dc:format>image/svg+xml</dc:format>
        <dc:type
           rdf:resource="http://purl.org/dc/dcmitype/StillImage" />
        <dc:title></dc:title>
      </cc:Work>
    </rdf:RDF>
  </metadata>
  <defs
     id="defs25">
    <linearGradient
       id="a-8"
       gradientUnits="userSpaceOnUse"
       x1="15.70367"
       x2="16.933331"
       y1="294.8226"
       y2="266.54037"
       gradientTransform="matrix(3.0992126,0,0,3.0992126,25.658748,-804.78644)">
      <stop
         offset="0"
         stop-color="#555"
         id="stop2-9" />
      <stop
         offset="1"
         id="stop4-0" />
    </linearGradient>
    <linearGradient
       id="b-2"
       gradientUnits="userSpaceOnUse"
       x1="15.703671"
       x2="16.933332"
       y1="262.85138"
       y2="288.67429"
       gradientTransform="matrix(3.0992126,0,0,3.0992126,-150.91691,-836.68369)">
      <stop
         offset="0"
         stop-color="#3b3e22"
         id="stop7" />
      <stop
         offset="1"
         stop-color="#454545"
         stop-opacity="0"
         id="stop9" />
    </linearGradient>
    <linearGradient
       inkscape:collect="always"
       xlink:href="#b-2"
       id="linearGradient2166"
       x1="17.4543"
       y1="11.638"
       x2="81.4534"
       y2="64.0009"
       gradientUnits="userSpaceOnUse" />
  </defs>
  <sodipodi:namedview
     pagecolor="#ffffff"
     bordercolor="#666666"
     borderopacity="1"
     objecttolerance="10"
     gridtolerance="10"
     guidetolerance="10"
     inkscape:pageopacity="0"
     inkscape:pageshadow="2"
     inkscape:window-width="1366"
     inkscape:window-height="706"
     id="namedview23"
     showgrid="true"
     inkscape:zoom="7.375"
     inkscape:cx="16.773416"
     inkscape:cy="29.714101"
     inkscape:window-x="0"
     inkscape:window-y="0"
     inkscape:window-maximized="1"
     inkscape:current-layer="g4768"
     inkscape:snap-global="true">
    <inkscape:grid
       type="xygrid"
       id="grid837"
       spacingx="0.5"
       spacingy="0.5"
       empspacing="2" />
  </sodipodi:namedview>
  <linearGradient
     id="a">
    <stop
       offset="0"
       stop-color="#1c1c1c"
       id="stop2" />
    <stop
       offset=".5"
       stop-color="#888"
       id="stop4" />
    <stop
       offset="1"
       id="stop6" />
  </linearGradient>
  <linearGradient
     id="b"
     gradientUnits="userSpaceOnUse"
     x1="-192.86827"
     x2="-199.26656"
     xlink:href="#a"
     y1="109.44938"
     y2="-18.516544" />
  <linearGradient
     id="c"
     gradientUnits="userSpaceOnUse"
     x1="69.8172"
     x2="69.8172"
     xlink:href="#a"
     y1="110.5457"
     y2="-5.8162999"
     gradientTransform="translate(2.000016,-0.002625)" />
  <g
     id="g4768"
     transform="matrix(0.171875,0,0,0.171875,1,1.0000001)">
    <path
       id="path11"
       d="M 54.892799,3.2812959 V 0.48658747 Z"
       inkscape:connector-curvature="0"
       style="fill:#ffffff;fill-opacity:0.756881" />
    <rect
       style="fill:#010101;stroke-width:0.70710677"
       id="rect19"
       y="58.1828"
       x="11.6362"
       width="104.7258"
       ry="1.1475101"
       rx="1.78422"
       height="5.8180995" />
    <path
       id="text14"
       d="m 60.998047,17.982422 c -6.224607,0 -11.647491,2.134042 -16.271485,6.402344 -4.53507,4.179378 -6.802734,9.648105 -6.802734,16.40625 0,4.309618 1.06998,8.164599 3.191406,11.574218 H 61.875 c -3.418069,-2.260968 -6.068779,-4.386129 -7.945312,-6.373046 -3.023381,-3.201227 -4.535157,-6.579801 -4.535157,-10.136719 0,-3.645841 1.288422,-6.62355 3.867188,-8.935547 2.578765,-2.311997 5.91345,-3.46875 10.003906,-3.46875 5.335377,0 10.181838,1.866798 14.539063,5.601562 4.446147,3.734764 7.736942,9.514624 9.871093,17.339844 h 3.333985 L 88.076172,17.982422 h -2.800781 c -0.533538,3.02338 -1.957535,4.535156 -4.269532,4.535156 -0.889229,0 -3.511916,-0.755888 -7.86914,-2.267578 -4.357225,-1.51169 -8.403908,-2.267578 -12.138672,-2.267578 z M 63.875,69.818359 c 0.508359,0.282536 1.017031,0.570343 1.525391,0.851563 4.179378,2.311997 7.737417,5.112194 10.671875,8.402344 2.934457,3.201226 4.40039,6.890933 4.40039,11.070312 0,4.446148 -1.511776,8.091966 -4.535156,10.937502 -3.02338,2.75661 -6.980331,4.13476 -11.871094,4.13476 -5.957838,0 -11.115431,-1.91068 -15.472656,-5.734371 -4.357225,-3.823687 -8.180554,-9.781058 -11.470703,-17.873047 h -3.068359 l 4.001953,28.277348 h 2.933593 c 0.08892,-1.24493 0.489789,-2.26806 1.201172,-3.06836 0.711384,-0.88923 1.557004,-1.33399 2.535156,-1.33399 1.067076,0 3.867274,0.75589 8.402344,2.26758 4.623994,1.51169 9.159321,2.26758 13.605469,2.26758 7.647374,0 14.09339,-2.31156 19.339844,-6.93555 5.246454,-4.712915 7.871094,-10.492775 7.871093,-17.339842 0,-5.513224 -1.95653,-10.537196 -5.86914,-15.072266 -0.239792,-0.283391 -0.517229,-0.567838 -0.775391,-0.851563 z"
       style="font-size:126.75152588px;font-family:sans-serif;letter-spacing:0;word-spacing:0;fill:url(#a-8);stroke-width:3.16878676"
       inkscape:connector-curvature="0" />
    <path
       id="text2153"
       d="M 59.152344,21.017578 C 54.418233,21.388826 50.350376,23.10987 46.677734,26.5 c -3.966671,3.655559 -5.876953,8.176621 -5.876953,14.291016 0,4.508634 1.244305,8.240828 3.798828,11.574218 h 12.267579 c -1.975924,-1.486527 -3.660008,-2.946648 -5.029297,-4.396484 -3.38858,-3.587908 -5.320313,-7.740946 -5.320313,-12.113281 0,-4.323837 1.6838,-8.264329 4.822266,-11.078125 2.172343,-1.947619 4.849524,-3.1651 7.8125,-3.759766 z m 26.595703,2.44336 c -1.242733,1.236594 -3.020109,1.933593 -4.742188,1.933593 -1.260032,0 -2.037048,-0.27585 -3.43164,-0.677734 -0.402393,-0.115959 -1.085205,-0.358169 -1.552735,-0.503906 1.2566,0.76703 2.473746,1.645616 3.640625,2.644531 3.049073,2.563216 5.484533,5.997576 7.476563,10.064453 z"
       style="font-size:126.75152588px;font-family:sans-serif;letter-spacing:0;word-spacing:0;fill:url(#linearGradient2166);fill-opacity:1;stroke-width:3.16878676"
       inkscape:connector-curvature="0" />
  </g>
</svg>
