<?xml version="1.0" encoding="UTF-8" standalone="no"?>
<svg
   xmlns:dc="http://purl.org/dc/elements/1.1/"
   xmlns:cc="http://creativecommons.org/ns#"
   xmlns:rdf="http://www.w3.org/1999/02/22-rdf-syntax-ns#"
   xmlns:svg="http://www.w3.org/2000/svg"
   xmlns="http://www.w3.org/2000/svg"
   xmlns:sodipodi="http://sodipodi.sourceforge.net/DTD/sodipodi-0.dtd"
   xmlns:inkscape="http://www.inkscape.org/namespaces/inkscape"
   enable-background="new 0 0 128 128"
   height="128"
   viewBox="0 0 128 128"
   width="128"
   version="1.1"
   id="svg102"
   sodipodi:docname="lc_titlepagedialog.svg"
   inkscape:version="0.92.3 (unknown)"
   inkscape:export-filename="/home/rizmut/Dokumen/Rizmut/Github/libreoffice-style-karasa-jaga/build/next/cmd/lc_titlepagedialog.png"
   inkscape:export-xdpi="18"
   inkscape:export-ydpi="18">
  <metadata
     id="metadata108">
    <rdf:RDF>
      <cc:Work
         rdf:about="">
        <dc:format>image/svg+xml</dc:format>
        <dc:type
           rdf:resource="http://purl.org/dc/dcmitype/StillImage" />
        <dc:title></dc:title>
      </cc:Work>
    </rdf:RDF>
  </metadata>
  <defs
     id="defs106" />
  <sodipodi:namedview
     pagecolor="#ffffff"
     bordercolor="#666666"
     borderopacity="1"
     objecttolerance="10"
     gridtolerance="10"
     guidetolerance="10"
     inkscape:pageopacity="0"
     inkscape:pageshadow="2"
     inkscape:window-width="1366"
     inkscape:window-height="706"
     id="namedview104"
     showgrid="true"
     inkscape:zoom="5.2149125"
     inkscape:cx="56.996234"
     inkscape:cy="91.09899"
     inkscape:window-x="0"
     inkscape:window-y="0"
     inkscape:window-maximized="1"
     inkscape:current-layer="svg102">
    <inkscape:grid
       type="xygrid"
       id="grid915"
       spacingx="5.33333"
       spacingy="5.33333" />
  </sodipodi:namedview>
  <linearGradient
     id="a"
     gradientUnits="userSpaceOnUse"
     x1="88.591797"
     x2="71.262016"
     y1="96.592697"
     y2="79.262917">
    <stop
       offset="0"
       stop-color="#fff"
       id="stop2" />
    <stop
       offset="1"
       stop-color="#555753"
       id="stop4" />
  </linearGradient>
  <linearGradient
     id="b"
     gradientUnits="userSpaceOnUse"
     x1="85.219681"
     x2="61.336319"
     y1="93.219681"
     y2="69.336319">
    <stop
       offset="0"
       id="stop7" />
    <stop
       offset="1"
       stop-color="#393b38"
       id="stop9" />
  </linearGradient>
  <linearGradient
     id="c"
     gradientUnits="userSpaceOnUse"
     x1="96"
     x2="88.0002"
     y1="104"
     y2="96.0002">
    <stop
       offset="0"
       stop-color="#888a85"
       id="stop12" />
    <stop
       offset=".0072"
       stop-color="#8c8e89"
       id="stop14" />
    <stop
       offset=".0673"
       stop-color="#abaca9"
       id="stop16" />
    <stop
       offset=".1347"
       stop-color="#c5c6c4"
       id="stop18" />
    <stop
       offset=".2115"
       stop-color="#dbdbda"
       id="stop20" />
    <stop
       offset=".3012"
       stop-color="#ebebeb"
       id="stop22" />
    <stop
       offset=".4122"
       stop-color="#f7f7f6"
       id="stop24" />
    <stop
       offset=".5679"
       stop-color="#fdfdfd"
       id="stop26" />
    <stop
       offset="1"
       stop-color="#fff"
       id="stop28" />
  </linearGradient>
  <radialGradient
     id="d"
     cx="102"
     cy="112.3047"
     gradientTransform="matrix(1.0342582,0,0,1.0375286,-4.8022445,-1.8908628)"
     gradientUnits="userSpaceOnUse"
     r="139.55859">
    <stop
       offset="0"
       stop-color="#535557"
       id="stop31" />
    <stop
       offset=".11366145"
       stop-color="#898a8c"
       id="stop33" />
    <stop
       offset=".20296688"
       stop-color="#ececec"
       id="stop35" />
    <stop
       offset=".2363"
       stop-color="#fafafa"
       id="stop37" />
    <stop
       offset=".2722"
       stop-color="#fff"
       id="stop39" />
    <stop
       offset=".5313"
       stop-color="#fafafa"
       id="stop41" />
    <stop
       offset=".8449"
       stop-color="#ebecec"
       id="stop43" />
    <stop
       offset="1"
       stop-color="#e1e2e3"
       id="stop45" />
  </radialGradient>
  <radialGradient
     id="e"
     cx="100.8570934"
     cy="112.93460525694"
     gradientUnits="userSpaceOnUse"
     r="135.1875556917"
     gradientTransform="matrix(1.0909091,0,0,1.0909091,-8.4794449,-7.644817)">
    <stop
       offset="0"
       stop-color="#3e3e3e"
       id="stop48" />
    <stop
       offset=".0151"
       stop-color="#505050"
       id="stop50" />
    <stop
       offset=".0558"
       stop-color="#7e7e7e"
       id="stop52" />
    <stop
       offset=".1357"
       stop-color="#c6c6c6"
       id="stop54" />
    <stop
       offset=".20990001"
       stop-color="#f1f1f1"
       id="stop56" />
    <stop
       offset=".24349999"
       stop-color="#fcfcfc"
       id="stop58" />
    <stop
       offset=".2722"
       stop-color="#fff"
       id="stop60" />
  </radialGradient>
  <filter
     id="f">
    <feGaussianBlur
       stdDeviation="1.0394514"
       id="feGaussianBlur63" />
  </filter>
  <filter
     id="g">
    <feGaussianBlur
       stdDeviation=".50063244"
       id="feGaussianBlur66" />
  </filter>
  <filter
     id="h">
    <feGaussianBlur
       stdDeviation=".40750996"
       id="feGaussianBlur69" />
  </filter>
  <filter
     id="i">
    <feGaussianBlur
       stdDeviation=".4901192"
       id="feGaussianBlur72" />
  </filter>
  <filter
     id="j">
    <feGaussianBlur
       stdDeviation=".90565481"
       id="feGaussianBlur75" />
  </filter>
  <path
     style="opacity:0.55342503;filter:url(#f)"
     inkscape:connector-curvature="0"
     d="M 23,8.9687825 23.040816,122.99347 H 84.172 c 0.53,0 1.039,-0.211 1.414,-0.586 l 32.828,-32.828001 c 0.375,-0.375 0.586,-0.884 0.586,-1.414 V 8.9687825 Z"
     transform="matrix(1.100773,0,0,1.0944829,-16.764605,-6.6305312)"
     id="path78" />
  <path
     style="opacity:0.30684904;filter:url(#f)"
     inkscape:connector-curvature="0"
     d="m 23,9 0.04082,113.99347 H 84.172 c 0.53,0 1.039,-0.211 1.414,-0.586 l 32.828,-32.828001 c 0.375,-0.375 0.586,-0.884 0.586,-1.414 V 9 Z"
     transform="matrix(1.100773,0,0,1.0944829,-16.764605,-6.6305312)"
     id="path80" />
  <path
     style="opacity:0.89589;filter:url(#g)"
     inkscape:connector-curvature="0"
     d="M 24.919999,10.931136 V 120.86319 l 58.676001,-1e-4 c 0.53,0 1.039,-0.211 1.414,-0.586 l 31.484,-31.765934 c 0.375,-0.375 0.586,-0.884 0.586,-1.414 v -76.16602 z"
     transform="matrix(1.100773,0,0,1.0944829,-16.764605,-6.6305312)"
     id="path82" />
  <path
     style="opacity:0.30684904;filter:url(#f)"
     inkscape:connector-curvature="0"
     d="M 23,9.9655172 23.040816,122.99347 H 84.172 c 0.53,0 1.039,-0.211 1.414,-0.586 l 32.828,-32.828001 c 0.375,-0.375 0.586,-0.884 0.586,-1.414 V 9.9655172 Z"
     transform="matrix(1.100773,0,0,1.0944829,-16.764605,-6.6305312)"
     id="path84" />
  <path
     inkscape:connector-curvature="0"
     style="fill:url(#e);stroke-width:1.09090912"
     d="m 10.66666,5.33341 v 120.31875 h 64.643025 c 0.560074,0 1.097954,-0.22298 1.494234,-0.61926 L 111.49465,90.342178 c 0.39628,-0.396279 0.61924,-0.93416 0.61924,-1.494234 V 5.33341 Z"
     id="path86" />
  <path
     inkscape:connector-curvature="0"
     style="fill:url(#d);stroke-width:1.09090912"
     d="m 17.82685,11.45934 c -0.569877,0 -1.034259,0.465851 -1.034259,1.03753 l 0.351189,105.53154 c 0,0.57273 0.464383,1.03754 1.034258,1.03754 h 56.835491 c 0.272009,0 0.538848,-0.10998 0.731218,-0.304 L 106.42465,89.065598 c 0.1934,-0.194018 0.30303,-0.460661 0.30303,-0.733533 V 11.75715 c 0,-0.571679 -0.46334,-1.037529 -1.03425,-1.037529 z"
     id="path88" />
  <g
     transform="matrix(1.2087448,0,0,1.2087448,-22.331304,-18.572093)"
     id="g98">
    <path
       inkscape:connector-curvature="0"
       style="opacity:0.75068497;fill:url(#a);filter:url(#h)"
       d="M 111.414,86.586 C 111.664,86.336 85.035,85 80,85 c -1.654,0 -3,1.346 -3,3 0,5.035 1.336,31.664 1.586,31.414 z"
       id="path90" />
    <path
       style="opacity:0.2;filter:url(#j)"
       inkscape:connector-curvature="0"
       d="M 111.414,86.586 C 111.789,86.211 89.444,86 80,86 c -1.103,0 -2,0.897 -2,2 0,9.444 0.211,31.789 0.586,31.414 z"
       id="path92" />
    <path
       inkscape:connector-curvature="0"
       style="opacity:0.1;fill:url(#b);filter:url(#i)"
       d="M 111.414,86.586 C 111.653,86.347 89.807,87 80,87 c -0.553,0 -1,0.447 -1,1 0,9.807 -0.653,31.653 -0.414,31.414 z"
       id="path94" />
    <path
       inkscape:connector-curvature="0"
       style="fill:url(#c)"
       d="M 79.721619,119.31106 111.22712,87.805556 H 79.721619 Z"
       id="path96" />
  </g>
  <path
     style="fill:#ff6600;stroke-width:1.09090912"
     inkscape:connector-curvature="0"
     d="m 21.33332,16.00007 h 79.99995 V 26.66673 H 21.33332 Z"
     id="path100"
     sodipodi:nodetypes="ccccc" />
</svg>
