<svg height="24" width="24" xmlns="http://www.w3.org/2000/svg" xmlns:xlink="http://www.w3.org/1999/xlink"><linearGradient id="a" gradientTransform="matrix(.328808 0 0 .33824438 -9.60445 -10.202286)" gradientUnits="userSpaceOnUse" x1="64" x2="64" y1="22.506487" y2="93.317558"><stop offset="0" stop-color="#1c1c1c"/><stop offset=".5" stop-color="#888"/><stop offset="1"/></linearGradient><path d="m10.4347 2.5639727v-.4803405z" fill="#fff" fill-opacity=".756881" stroke-width=".171875"/><path d="m4.4835752 4.0002813-.4197007 5.711351h.737352c.3038186-1.6624712.9748315-2.5015483 1.5785229-2.9957233.6036915-.4934983 1.5397667-.4362665 3.2074809-.4362665h.1966272v10.5819245c0 1.327947-.7872023 1.581859-1.1031867 1.91097-.3166421.328775-1.0438215.545402-2.3288032.645183v.589882h5.2909624 5.005007v-.589882c-1.284982-.09978-2.012161-.316408-2.328803-.645183-.315985-.329111-1.103187-.583023-1.103187-1.91097v-10.5819245h.196627c1.667715 0 2.60379-.057232 3.207481.4362665.603691.494175 1.274705 1.3332521 1.578523 2.9957233h.737352l-.540882-5.711351h-6.955686z" fill="url(#a)" stroke-width=".196627"/></svg>