<?xml version="1.0" encoding="UTF-8" standalone="no"?>
<svg
   xmlns:dc="http://purl.org/dc/elements/1.1/"
   xmlns:cc="http://creativecommons.org/ns#"
   xmlns:rdf="http://www.w3.org/1999/02/22-rdf-syntax-ns#"
   xmlns:svg="http://www.w3.org/2000/svg"
   xmlns="http://www.w3.org/2000/svg"
   xmlns:sodipodi="http://sodipodi.sourceforge.net/DTD/sodipodi-0.dtd"
   xmlns:inkscape="http://www.inkscape.org/namespaces/inkscape"
   height="24"
   viewBox="0 0 6.3499999 6.3500002"
   width="24"
   version="1.1"
   id="svg23585"
   sodipodi:docname="lc_tabledialog.svg"
   inkscape:version="0.92.4 (unknown)"
   inkscape:export-filename="/home/rizmut/Dokumen/Rizmut/Github/libreoffice-style-karasa-jaga/build/next/cmd/lc_tabledialog.png"
   inkscape:export-xdpi="18"
   inkscape:export-ydpi="18">
  <metadata
     id="metadata23591">
    <rdf:RDF>
      <cc:Work
         rdf:about="">
        <dc:format>image/svg+xml</dc:format>
        <dc:type
           rdf:resource="http://purl.org/dc/dcmitype/StillImage" />
        <dc:title></dc:title>
      </cc:Work>
    </rdf:RDF>
  </metadata>
  <defs
     id="defs23589" />
  <sodipodi:namedview
     pagecolor="#ffffff"
     bordercolor="#666666"
     borderopacity="1"
     objecttolerance="10"
     gridtolerance="10"
     guidetolerance="10"
     inkscape:pageopacity="0"
     inkscape:pageshadow="2"
     inkscape:window-width="1366"
     inkscape:window-height="714"
     id="namedview23587"
     showgrid="true"
     inkscape:zoom="3.6875"
     inkscape:cx="36.405331"
     inkscape:cy="32.632064"
     inkscape:window-x="0"
     inkscape:window-y="28"
     inkscape:window-maximized="1"
     inkscape:current-layer="svg23585">
    <inkscape:grid
       type="xygrid"
       id="grid24136"
       spacingx="0.13229167"
       spacingy="0.13229167" />
  </sodipodi:namedview>
  <linearGradient
     id="a"
     gradientUnits="userSpaceOnUse"
     x1="98.9077"
     x2="98.9077"
     y1="46.5466"
     y2="162.9086">
    <stop
       offset="0"
       stop-color="#99999c"
       id="stop23494" />
    <stop
       offset=".5"
       stop-color="#9c9ca1"
       id="stop23496" />
    <stop
       offset="1"
       stop-color="#cdcdd1"
       id="stop23498" />
  </linearGradient>
  <linearGradient
     id="b"
     gradientUnits="userSpaceOnUse"
     x1="78.610847"
     x2="120.3435"
     y1="88.852417"
     y2="111.54715">
    <stop
       offset="0"
       stop-color="#fff"
       id="stop23501" />
    <stop
       offset="1"
       stop-color="#ccc"
       id="stop23503" />
  </linearGradient>
  <linearGradient
     id="c"
     gradientUnits="userSpaceOnUse"
     x1="88.38102"
     x2="130.48599"
     y1="1008.9966"
     y2="1015.6953">
    <stop
       offset="0"
       stop-color="#7b7b7b"
       id="stop23506" />
    <stop
       offset="1"
       stop-color="#797979"
       stop-opacity="0"
       id="stop23508" />
  </linearGradient>
  <clipPath
     id="d">
    <path
       d="M 41.355614,933.74432 H 125.29961 V 1051.266 H 41.355614 Z"
       id="path23511"
       inkscape:connector-curvature="0" />
  </clipPath>
  <filter
     id="e"
     height="1.073732"
     width="1.13754"
     x="-0.068769999"
     y="-0.036866002"
     style="color-interpolation-filters:sRGB">
    <feGaussianBlur
       stdDeviation="1.0557314"
       id="feGaussianBlur23514" />
  </filter>
  <linearGradient
     id="f"
     gradientUnits="userSpaceOnUse"
     x1="100.83452"
     x2="116.42799"
     y1="37.992622"
     y2="80.92411">
    <stop
       offset="0"
       stop-color="#fff"
       stop-opacity=".683453"
       id="stop23517" />
    <stop
       offset="1"
       stop-color="#fff"
       stop-opacity="0"
       id="stop23519" />
  </linearGradient>
  <linearGradient
     id="g"
     gradientTransform="matrix(0.58291629,0,0,0.66676377,62.177025,-566.68964)"
     gradientUnits="userSpaceOnUse"
     x1="63.011921"
     x2="63.011921"
     y1="945.89801"
     y2="1033.1569">
    <stop
       offset="0"
       stop-color="#545454"
       stop-opacity=".988"
       id="stop23522" />
    <stop
       offset="1"
       stop-color="#ebebeb"
       id="stop23524" />
  </linearGradient>
  <linearGradient
     id="h"
     gradientTransform="matrix(0.48045402,0,0,0.66178602,128.73476,-578.51587)"
     gradientUnits="userSpaceOnUse"
     x1="-60.535713"
     x2="-60.357143"
     y1="979.50507"
     y2="1009.505">
    <stop
       offset="0"
       stop-color="#979797"
       id="stop23527" />
    <stop
       offset=".148461"
       stop-color="#f6f6f6"
       id="stop23529" />
    <stop
       offset=".28399727"
       stop-color="#e2e2e2"
       id="stop23531" />
    <stop
       offset=".41198727"
       stop-color="#dedede"
       id="stop23533" />
    <stop
       offset=".41198727"
       stop-color="#f6f6f6"
       id="stop23535" />
    <stop
       offset="1"
       stop-color="#6b6b6b"
       id="stop23537" />
  </linearGradient>
  <linearGradient
     id="i"
     gradientTransform="matrix(0.480454,0,0,0.58309338,128.76683,499.76645)"
     gradientUnits="userSpaceOnUse"
     x1="-61.078979"
     x2="-60.6413"
     y1="-1056.658"
     y2="-1010.9131">
    <stop
       offset="0"
       stop-color="#777"
       id="stop23540" />
    <stop
       offset=".18176934"
       stop-color="#a8a8a8"
       id="stop23542" />
    <stop
       offset=".22864534"
       stop-color="#cdcdcd"
       id="stop23544" />
    <stop
       offset=".34561315"
       stop-color="#f7f7f7"
       id="stop23546" />
    <stop
       offset="1"
       stop-color="#fff"
       id="stop23548" />
  </linearGradient>
  <linearGradient
     id="j"
     gradientUnits="userSpaceOnUse"
     x1="32.028248"
     x2="32.028248"
     y1="256.97659"
     y2="292.38217">
    <stop
       offset="0"
       stop-color="#fff"
       id="stop23551" />
    <stop
       offset="1"
       stop-color="#555"
       id="stop23553" />
  </linearGradient>
  <linearGradient
     id="k"
     gradientTransform="matrix(0.28123848,0,0,0.37648631,0.039471,260.72313)"
     gradientUnits="userSpaceOnUse"
     x1="46.048"
     x2="46.048"
     y1="128.01709"
     y2="16.6203">
    <stop
       offset="0"
       stop-color="#c7cdd7"
       id="stop23556" />
    <stop
       offset="1"
       stop-color="#fff"
       id="stop23558" />
  </linearGradient>
  <g
     id="g24150"
     transform="matrix(0.17187487,0,0,0.17187487,0.26458514,0.26363092)">
    <g
       id="g23565"
       transform="translate(0,-263.13332)">
      <path
         id="path23561"
         d="M 1.539372,267.75192 H 32.326817 V 290.8425 H 1.539372 Z"
         style="fill:url(#k)"
         inkscape:connector-curvature="0" />
      <path
         id="path23563"
         d="m 0,266.21766 v 1.53789 4.61367 1.53789 4.62194 1.53789 4.61368 0.008 1.52963 0.0165 4.60541 1.54616 h 1.5378906 4.6219401 1.5378907 9.2356116 1.537891 7.697721 1.537891 4.62194 1.537891 v -1.54616 -4.60541 -13.86582 -6.15156 H 27.706836 26.168945 18.471224 16.933333 7.6977214 6.1598307 1.5378906 Z m 1.5378906,1.53789 h 4.6219401 v 4.61367 H 1.5378906 Z m 6.1598308,0 h 9.2356116 v 4.61367 H 7.6977214 Z m 10.7735026,0 h 7.697721 v 4.61367 h -7.697721 z m 9.235612,0 h 4.62194 v 4.61367 h -4.62194 z m -26.1689454,6.15156 h 4.6219401 v 4.62194 H 1.5378906 Z m 6.1598308,0 h 9.2356116 1.537891 7.697721 v 4.62194 0.0631 c -7.93e-4,-0.0357 -0.02451,-0.0641 -0.05426,-0.0641 h -7.642428 v -4.55218 c 0,-0.0365 -0.02401,-0.0661 -0.05426,-0.0661 h -1.430403 c -0.03025,0 -0.05426,0.0296 -0.05426,0.0661 v 4.55218 H 7.7514648 c -0.029248,0 -0.052199,0.0277 -0.053743,0.0625 v -0.0615 z m 20.0091146,0 h 4.62194 v 4.62194 h -4.62194 z m -1.537891,6.09575 v 0.0641 4.61368 0.008 H 7.6977214 v -0.008 -4.61368 -0.0625 c 0.00153,0.0348 0.024495,0.0625 0.053743,0.0625 h 9.1818686 v 4.55218 c 0,0.0365 0.02401,0.0661 0.05426,0.0661 h 1.430403 c 0.03025,0 0.05426,-0.0296 0.05426,-0.0661 v -4.55218 h 7.642428 c 0.02975,0 0.05347,-0.0284 0.05426,-0.0641 z m -24.6310544,0.0641 h 4.6219401 v 4.61368 H 1.5378906 Z m 26.1689454,0 h 4.62194 v 4.61368 h -4.62194 z m -26.1689454,6.1681 h 4.6219401 v 4.60541 H 1.5378906 Z m 6.1598308,0 h 9.2356116 v 4.60541 H 7.6977214 Z m 10.7735026,0 h 7.697721 v 4.60541 h -7.697721 z m 9.235612,0 h 4.62194 v 4.60541 h -4.62194 z"
         style="fill:url(#j)"
         inkscape:connector-curvature="0" />
    </g>
    <g
       id="g23583"
       transform="scale(0.26458333)">
      <path
         id="path23567"
         d="m 69.8172,46.546616 h 58.181 v 81.453444 h -58.181 z"
         style="fill:url(#a)"
         inkscape:connector-curvature="0" />
      <path
         id="path23569"
         d="m 75.6353,52.3647 h 46.5448 v 69.81722 H 75.6353 Z"
         style="fill:url(#b)"
         inkscape:connector-curvature="0" />
      <path
         id="path23571"
         transform="matrix(0.69309305,0,0,0.69309305,41.153912,-600.6251)"
         d="m 92.81509,1029.6319 c 1.071428,1.4286 10.71429,15.3572 11.78571,13.5715 1.07143,-1.7858 26.42857,-25.3572 25,-26.7858 -1.42857,-1.4285 -33.928567,-41.78567 -33.928567,-41.78567 z"
         clip-path="url(#d)"
         style="opacity:0.68000034;fill:url(#c);fill-rule:evenodd;filter:url(#e)"
         inkscape:connector-curvature="0" />
      <path
         id="path23573"
         d="M 75.6353,52.3647 V 99.64533 C 89.806961,83.145235 109.17378,76.487988 122.17969,74.623047 V 52.365234 Z"
         style="fill:url(#f);fill-rule:evenodd"
         inkscape:connector-curvature="0" />
      <path
         id="path23575"
         d="m 87.2715,64.0009 h 23.2724 v 46.5448 H 87.2715 Z"
         style="fill:url(#g)"
         inkscape:connector-curvature="0" />
      <path
         id="path23577"
         d="M 89.925598,66.798828 H 107.61233 V 107.96351 H 89.925598 Z"
         inkscape:connector-curvature="0"
         style="fill:#535353" />
      <path
         id="path23579"
         d="m 93.0896,69.819 h 11.6362 V 87.2733 H 93.0896 Z"
         style="fill:url(#h)"
         inkscape:connector-curvature="0" />
      <path
         id="path23581"
         transform="scale(1,-1)"
         d="m 93.0896,-116.3638 h 11.6362 v 29.0905 H 93.0896 Z"
         style="fill:url(#i)"
         inkscape:connector-curvature="0" />
    </g>
  </g>
</svg>
