<?xml version="1.0" encoding="UTF-8" standalone="no"?>
<svg
   xmlns:dc="http://purl.org/dc/elements/1.1/"
   xmlns:cc="http://creativecommons.org/ns#"
   xmlns:rdf="http://www.w3.org/1999/02/22-rdf-syntax-ns#"
   xmlns:svg="http://www.w3.org/2000/svg"
   xmlns="http://www.w3.org/2000/svg"
   xmlns:xlink="http://www.w3.org/1999/xlink"
   xmlns:sodipodi="http://sodipodi.sourceforge.net/DTD/sodipodi-0.dtd"
   xmlns:inkscape="http://www.inkscape.org/namespaces/inkscape"
   height="24"
   width="24"
   version="1.1"
   id="svg25"
   sodipodi:docname="lc_textdirectiontoptobottom.svg"
   inkscape:version="0.92.4 (unknown)"
   inkscape:export-filename="/home/rizmut/Dokumen/Rizmut/Github/libreoffice-style-karasa-jaga/build/next/cmd/lc_textdirectiontoptobottom.png"
   inkscape:export-xdpi="96"
   inkscape:export-ydpi="96">
  <metadata
     id="metadata31">
    <rdf:RDF>
      <cc:Work
         rdf:about="">
        <dc:format>image/svg+xml</dc:format>
        <dc:type
           rdf:resource="http://purl.org/dc/dcmitype/StillImage" />
        <dc:title></dc:title>
      </cc:Work>
    </rdf:RDF>
  </metadata>
  <defs
     id="defs29" />
  <sodipodi:namedview
     pagecolor="#ffffff"
     bordercolor="#666666"
     borderopacity="1"
     objecttolerance="10"
     gridtolerance="10"
     guidetolerance="10"
     inkscape:pageopacity="0"
     inkscape:pageshadow="2"
     inkscape:window-width="1366"
     inkscape:window-height="714"
     id="namedview27"
     showgrid="true"
     inkscape:zoom="10.429825"
     inkscape:cx="19.050422"
     inkscape:cy="6.1111307"
     inkscape:window-x="0"
     inkscape:window-y="28"
     inkscape:window-maximized="1"
     inkscape:current-layer="g850">
    <inkscape:grid
       type="xygrid"
       id="grid838" />
  </sodipodi:namedview>
  <linearGradient
     id="a"
     gradientUnits="userSpaceOnUse"
     x1="114.43813"
     x2="11.636201"
     xlink:href="#b"
     y1="18.747908"
     y2="17.45612" />
  <linearGradient
     id="b">
    <stop
       offset="0"
       stop-color="#0968ef"
       id="stop3" />
    <stop
       offset="1"
       stop-color="#aecffc"
       id="stop5" />
  </linearGradient>
  <linearGradient
     id="c"
     gradientUnits="userSpaceOnUse"
     x1="114.43813"
     x2="60.615585"
     xlink:href="#b"
     y1="47.838387"
     y2="47.838387" />
  <linearGradient
     id="d"
     gradientUnits="userSpaceOnUse"
     x1="114.43813"
     x2="-29.0905"
     xlink:href="#b"
     y1="76.928886"
     y2="75.646378" />
  <linearGradient
     id="e"
     gradientUnits="userSpaceOnUse"
     x1="114.43813"
     x2="-34.9086"
     xlink:href="#b"
     y1="106.01968"
     y2="104.73718" />
  <g
     id="g850"
     transform="matrix(0.171875,0,0,0.171875,1,1)">
    <g
       id="g19"
       transform="matrix(0,1,1,0,-0.0018,0.0018)"
       style="fill-rule:evenodd">
      <path
         id="path11"
         d="m 119.42255,20.36051 -17.48217,-14.56847 -2.89536,2.89538 5.68078,8.7594 H 75.6353 v 5.82738 h 29.0905 l -5.68078,8.61282 2.89536,3.04197 17.48217,-14.56847 z"
         style="fill:url(#a)"
         inkscape:connector-curvature="0" />
      <path
         id="path13"
         d="m 119.42255,49.45099 -17.48217,-14.56847 -2.89536,2.89538 5.68078,8.7594 -29.0905,0.0093 v 5.82738 l 29.0905,-0.0093 -5.68078,8.61282 2.89536,3.04197 17.48217,-14.56847 z"
         style="fill:url(#c)"
         inkscape:connector-curvature="0" />
      <path
         id="path15"
         d="m 119.42255,78.54149 -17.48217,-14.56847 -2.89536,2.89538 5.68078,8.7594 -93.0896,2e-5 v 5.82738 l 93.0896,-2e-5 -5.68078,8.61282 2.89536,3.04197 17.48217,-14.56847 z"
         style="fill:url(#d)"
         inkscape:connector-curvature="0" />
      <path
         id="path17"
         d="m 119.42255,107.63229 -17.48217,-14.56847 -2.89536,2.89538 5.68078,8.7594 -93.0896,-2.8e-4 v 5.82738 l 93.0896,2.8e-4 -5.68078,8.61282 2.89536,3.04197 17.48217,-14.56847 z"
         style="fill:url(#e)"
         inkscape:connector-curvature="0" />
    </g>
    <g
       aria-label="A"
       style="font-size:75.12039948px;font-family:sans-serif;letter-spacing:0;word-spacing:0;stroke-width:1.87801003"
       id="text23">
      <path
         d="M 44.203797,49.628985 H 23.094965 L 17.310694,66.080353 H 9.8737743 L 29.405078,11.317582 h 9.014448 L 57.650348,66.080353 H 49.837827 Z M 42.250666,43.769594 33.837182,18.829622 24.822734,43.769594 Z"
         style="font-family:FreeSans;stroke-width:1.87801003"
         id="path852" />
    </g>
  </g>
</svg>
