<?xml version="1.0" encoding="UTF-8" standalone="no"?>
<svg
   xmlns:dc="http://purl.org/dc/elements/1.1/"
   xmlns:cc="http://creativecommons.org/ns#"
   xmlns:rdf="http://www.w3.org/1999/02/22-rdf-syntax-ns#"
   xmlns:svg="http://www.w3.org/2000/svg"
   xmlns="http://www.w3.org/2000/svg"
   xmlns:xlink="http://www.w3.org/1999/xlink"
   xmlns:sodipodi="http://sodipodi.sourceforge.net/DTD/sodipodi-0.dtd"
   xmlns:inkscape="http://www.inkscape.org/namespaces/inkscape"
   height="24"
   viewBox="0 0 6.3499999 6.3500002"
   width="24"
   version="1.1"
   id="svg20"
   sodipodi:docname="lc_underlinedouble.svg"
   inkscape:version="0.92.4 (unknown)"
   inkscape:export-filename="/home/rizmut/Dokumen/Rizmut/Github/libreoffice-style-karasa-jaga/build/next/cmd/lc_underlinedouble.png"
   inkscape:export-xdpi="96"
   inkscape:export-ydpi="96">
  <metadata
     id="metadata26">
    <rdf:RDF>
      <cc:Work
         rdf:about="">
        <dc:format>image/svg+xml</dc:format>
        <dc:type
           rdf:resource="http://purl.org/dc/dcmitype/StillImage" />
        <dc:title></dc:title>
      </cc:Work>
    </rdf:RDF>
  </metadata>
  <defs
     id="defs24">
    <linearGradient
       inkscape:collect="always"
       xlink:href="#b"
       id="linearGradient851"
       x1="19.105469"
       y1="41.433594"
       x2="108.89258"
       y2="41.433594"
       gradientUnits="userSpaceOnUse" />
    <linearGradient
       inkscape:collect="always"
       xlink:href="#a"
       id="linearGradient849"
       gradientUnits="userSpaceOnUse"
       gradientTransform="matrix(0.78351691,0,0,0.78351691,0.33272269,-205.00547)"
       x1="18.996088"
       y1="294.8226"
       x2="20.22575"
       y2="266.54037" />
    <linearGradient
       inkscape:collect="always"
       xlink:href="#a"
       id="linearGradient852"
       gradientUnits="userSpaceOnUse"
       gradientTransform="matrix(0.78351691,0,0,0.78351691,0.33272269,-205.00547)"
       x1="18.996088"
       y1="294.8226"
       x2="20.22575"
       y2="266.54037" />
  </defs>
  <sodipodi:namedview
     pagecolor="#ffffff"
     bordercolor="#666666"
     borderopacity="1"
     objecttolerance="10"
     gridtolerance="10"
     guidetolerance="10"
     inkscape:pageopacity="0"
     inkscape:pageshadow="2"
     inkscape:window-width="1366"
     inkscape:window-height="714"
     id="namedview22"
     showgrid="true"
     inkscape:zoom="10.429825"
     inkscape:cx="32.486751"
     inkscape:cy="19.797905"
     inkscape:window-x="0"
     inkscape:window-y="28"
     inkscape:window-maximized="1"
     inkscape:current-layer="g847">
    <inkscape:grid
       type="xygrid"
       id="grid1425"
       spacingx="0.13229167"
       spacingy="0.13229167"
       empspacing="2" />
  </sodipodi:namedview>
  <linearGradient
     id="a"
     gradientUnits="userSpaceOnUse"
     x1="18.996088"
     x2="20.22575"
     y1="294.8226"
     y2="266.54037"
     gradientTransform="matrix(0.78351691,0,0,0.78351691,0.33272269,-205.00547)">
    <stop
       offset="0"
       stop-color="#555"
       id="stop2" />
    <stop
       offset="1"
       id="stop4" />
  </linearGradient>
  <linearGradient
     id="b"
     gradientUnits="userSpaceOnUse"
     x1="53.856667"
     x2="72.864624"
     y1="1.845663"
     y2="61.042988"
     gradientTransform="matrix(0.21695833,0,0,0.21695833,3.048,3.0518754)">
    <stop
       offset="0"
       stop-color="#3b3e22"
       id="stop7" />
    <stop
       offset="1"
       stop-color="#454545"
       stop-opacity="0"
       id="stop9" />
  </linearGradient>
  <g
     id="g847"
     transform="matrix(0.171875,0,0,0.171875,0.26462416,0.26454228)">
    <g
       id="g25"
       style="fill:#010101"
       transform="matrix(0.26458334,0,0,0.26458334,-3.4352957e-8,-3.0787451)">
      <rect
         id="rect21-2"
         y="110.5457"
         x="11.6362"
         width="104.7258"
         ry="2.2950201"
         rx="1.78422"
         height="5.8181" />
      <rect
         id="rect23"
         y="122.1819"
         x="11.6362"
         width="104.7258"
         ry="2.2950201"
         rx="1.78422"
         height="5.8181" />
    </g>
    <flowRoot
       style="font-style:normal;font-weight:normal;font-size:40px;line-height:125%;font-family:sans-serif;letter-spacing:0px;word-spacing:0px;fill:#000000;fill-opacity:1;stroke:none;stroke-width:1px;stroke-linecap:butt;stroke-linejoin:miter;stroke-opacity:1"
       id="flowRoot828"
       xml:space="preserve"><flowRegion
         id="flowRegion830"><rect
           y="-5.8162994"
           x="-5.8181"
           height="63.9991"
           width="116.362"
           id="rect832" /></flowRegion><flowPara
         id="flowPara834" /></flowRoot>    <g
       transform="matrix(1,0,0,0.97859191,0,0.07102462)"
       id="g875">
      <g
         id="text14"
         style="font-size:32.0442543px;font-family:sans-serif;letter-spacing:0;word-spacing:0;fill:url(#linearGradient852);stroke-width:0.80110604"
         transform="scale(1.0465633,0.95550838)"
         aria-label="U">
        <path
           id="path830"
           style="font-style:normal;font-variant:normal;font-weight:normal;font-stretch:normal;font-size:33.72113037px;font-family:FreeSerif;-inkscape-font-specification:FreeSerif;fill:url(#linearGradient849);stroke-width:0.80110604"
           d="m 11.003749,17.938499 q 0,3.372113 1.247682,5.125612 1.281402,1.719778 4.552352,1.719778 1.888383,0 3.405834,-0.708144 1.517451,-0.741865 2.191874,-1.955826 0.775586,-1.450008 0.775586,-4.586073 V 8.4291405 q 0,-2.5290847 -0.606981,-3.3383919 Q 21.963116,4.2477204 20.00729,4.1128359 V 3.4721344 h 7.823303 v 0.6407015 q -2.09071,0.269769 -2.630248,1.0116339 -0.539539,0.7418648 -0.539539,3.3046707 v 8.8012155 q 0,1.989546 -0.370932,3.473276 -0.337211,1.48373 -1.247682,2.832575 -0.876749,1.315124 -2.663969,2.023268 -1.753499,0.708144 -4.350026,0.708144 -4.316305,0 -6.4070147,-2.090711 Q 7.5641934,22.052477 7.5641934,17.66873 V 7.1477376 q 0,-1.8546622 -0.5395381,-2.3604791 Q 6.5188383,4.2814415 4.5292916,4.1128359 V 3.4721344 h 9.5430804 v 0.6407015 q -2.023268,0.1686056 -2.562806,0.7081437 -0.505817,0.505817 -0.505817,2.326758 z"
           inkscape:connector-curvature="0" />
      </g>
      <path
         inkscape:connector-curvature="0"
         style="opacity:1;fill:url(#linearGradient851);fill-opacity:1;stroke:none;stroke-width:8;stroke-linecap:round;stroke-linejoin:round;stroke-miterlimit:4;stroke-dasharray:none;stroke-dashoffset:0;stroke-opacity:1"
         d="m 19.105469,13.626953 v 0.296875 c 4.589459,0.418283 7.801355,1.049968 9.49414,2.574219 1.952469,1.671184 2.511719,4.748202 2.511719,9.318359 v 37.988282 c 0,1.35977 0.04789,2.667715 0.138672,3.929687 a 83.194538,52.981826 0 0 0 11.285156,1.505859 c -0.119718,-1.425546 -0.199218,-2.896696 -0.199218,-4.455078 v -38.96875 c 0,-4.484526 0.510587,-7.498717 2.349609,-9.177734 1.75132,-1.598949 5.072068,-2.285919 9.787109,-2.714844 v -0.296875 z m 61.224609,0 v 0.345703 c 4.638462,0.436319 8.114442,1.514333 9.896484,3.759766 1.957415,2.382814 2.642579,6.534994 2.642579,12.710937 v 32.875 c 0,0.125085 -0.0053,0.239258 -0.0059,0.363282 a 83.194538,52.981826 0 0 0 3.486328,-1.273438 c 1.7e-4,-0.06241 0.0039,-0.119014 0.0039,-0.181641 V 30.443359 c 0,-6.246908 0.56841,-10.304823 2.373046,-12.570312 1.677815,-2.106281 5.199235,-3.201527 10.166015,-3.886719 v -0.359375 z"
         transform="scale(0.26458334)"
         id="path836" />
    </g>
  </g>
</svg>
