<?xml version="1.0" encoding="UTF-8" standalone="no"?>
<!-- Created with Inkscape (http://www.inkscape.org/) -->

<svg
   xmlns:dc="http://purl.org/dc/elements/1.1/"
   xmlns:cc="http://creativecommons.org/ns#"
   xmlns:rdf="http://www.w3.org/1999/02/22-rdf-syntax-ns#"
   xmlns:svg="http://www.w3.org/2000/svg"
   xmlns="http://www.w3.org/2000/svg"
   xmlns:xlink="http://www.w3.org/1999/xlink"
   xmlns:sodipodi="http://sodipodi.sourceforge.net/DTD/sodipodi-0.dtd"
   xmlns:inkscape="http://www.inkscape.org/namespaces/inkscape"
   width="24"
   height="24"
   viewBox="0 0 6.3499999 6.3500002"
   version="1.1"
   id="svg4864"
   inkscape:version="0.92.4 (unknown)"
   sodipodi:docname="lc_undo.svg"
   inkscape:export-filename="/home/rizmut/Dokumen/Rizmut/Github/libreoffice-style-karasa-jaga/build/next/cmd/lc_undo.png"
   inkscape:export-xdpi="18"
   inkscape:export-ydpi="18">
  <defs
     id="defs4858">
    <radialGradient
       gradientUnits="userSpaceOnUse"
       gradientTransform="matrix(0.9792,0,0,0.9725,133.0002,20.8762)"
       r="55.147999"
       cy="-0.2148"
       cx="48"
       id="radialGradient9776">
      <stop
         id="stop9772"
         style="stop-color:#fcff0f;stop-opacity:1"
         offset="0" />
      <stop
         id="stop9774"
         style="stop-color:#db8900;stop-opacity:1;"
         offset="1" />
    </radialGradient>
    <linearGradient
       inkscape:collect="always"
       id="linearGradient3238">
      <stop
         style="stop-color:#be9000;stop-opacity:1"
         offset="0"
         id="stop3240" />
      <stop
         style="stop-color:#7a5d00;stop-opacity:0;"
         offset="1"
         id="stop3242" />
    </linearGradient>
    <linearGradient
       inkscape:collect="always"
       xlink:href="#linearGradient3238"
       id="linearGradient9426"
       x1="7.1572886"
       y1="63.928764"
       x2="7.1867375"
       y2="156.35773"
       gradientUnits="userSpaceOnUse" />
    <radialGradient
       id="XMLID_4_"
       cx="48"
       cy="-0.2148"
       r="55.147999"
       gradientTransform="matrix(0.9792,0,0,0.9725,133.0002,20.8762)"
       gradientUnits="userSpaceOnUse">
      <stop
         offset="0"
         style="stop-color:#cfd13d;stop-opacity:1;"
         id="stop3082" />
      <stop
         offset="1"
         style="stop-color:#db8900;stop-opacity:1;"
         id="stop3090" />
    </radialGradient>
    <linearGradient
       id="linearGradient3751">
      <stop
         style="stop-color:#beba2c;stop-opacity:1;"
         offset="0"
         id="stop3753" />
      <stop
         style="stop-color:#b6be2c;stop-opacity:0;"
         offset="1"
         id="stop3755" />
    </linearGradient>
    <linearGradient
       id="linearGradient3449">
      <stop
         id="stop3451"
         offset="0"
         style="stop-color:#000000;stop-opacity:1;" />
      <stop
         id="stop3453"
         offset="1"
         style="stop-color:#000000;stop-opacity:0;" />
    </linearGradient>
    <linearGradient
       id="linearGradient3260"
       inkscape:collect="always">
      <stop
         id="stop3262"
         offset="0"
         style="stop-color:#ffffff;stop-opacity:1;" />
      <stop
         id="stop3264"
         offset="1"
         style="stop-color:#ffffff;stop-opacity:0;" />
    </linearGradient>
    <linearGradient
       id="linearGradient3344">
      <stop
         id="stop3346"
         offset="0"
         style="stop-color:#fdff63;stop-opacity:1;" />
      <stop
         id="stop3348"
         offset="1"
         style="stop-color:#ffffff;stop-opacity:0;" />
    </linearGradient>
    <radialGradient
       id="radialGradient9493"
       cx="48"
       cy="-0.2148"
       r="55.147999"
       gradientTransform="matrix(0.9792,0,0,0.9725,133.0002,20.8762)"
       gradientUnits="userSpaceOnUse">
      <stop
         offset="0"
         style="stop-color:#cfd13d;stop-opacity:1;"
         id="stop9489" />
      <stop
         offset="1"
         style="stop-color:#db8900;stop-opacity:1;"
         id="stop9491" />
    </radialGradient>
    <linearGradient
       id="linearGradient3528">
      <stop
         style="stop-color:#eaf209;stop-opacity:1;"
         offset="0"
         id="stop3530" />
      <stop
         style="stop-color:#c7c634;stop-opacity:0;"
         offset="1"
         id="stop3532" />
    </linearGradient>
    <linearGradient
       id="linearGradient3295">
      <stop
         style="stop-color:#fffe63;stop-opacity:1;"
         offset="0"
         id="stop3297" />
      <stop
         style="stop-color:#ffffff;stop-opacity:0;"
         offset="1"
         id="stop3299" />
    </linearGradient>
    <linearGradient
       inkscape:collect="always"
       xlink:href="#linearGradient3528"
       id="linearGradient9701"
       x1="71.014435"
       y1="111.32386"
       x2="71.048264"
       y2="64.538147"
       gradientUnits="userSpaceOnUse" />
    <filter
       inkscape:collect="always"
       style="color-interpolation-filters:sRGB"
       id="filter9707"
       x="-0.019989455"
       width="1.0399789"
       y="-0.026530178"
       height="1.0530604">
      <feGaussianBlur
         inkscape:collect="always"
         stdDeviation="0.8843393"
         id="feGaussianBlur9709" />
    </filter>
    <linearGradient
       inkscape:collect="always"
       xlink:href="#linearGradient3295"
       id="linearGradient9717"
       x1="71.809433"
       y1="30.338589"
       x2="72.415733"
       y2="76.767159"
       gradientUnits="userSpaceOnUse" />
    <radialGradient
       inkscape:collect="always"
       xlink:href="#linearGradient3528"
       id="radialGradient9725"
       cx="61.745636"
       cy="81.787704"
       fx="61.745636"
       fy="81.787704"
       r="53.588345"
       gradientTransform="matrix(0.60055947,-0.01380792,0.0138283,0.60144596,23.532724,29.771267)"
       gradientUnits="userSpaceOnUse" />
    <radialGradient
       inkscape:collect="always"
       xlink:href="#radialGradient9776"
       id="radialGradient9729"
       gradientUnits="userSpaceOnUse"
       gradientTransform="matrix(0.89273806,0.02389254,-0.01609512,0.60138957,5.9363591,27.19911)"
       cx="68.344757"
       cy="79.286057"
       fx="68.344757"
       fy="79.286057"
       r="53.588345" />
    <radialGradient
       inkscape:collect="always"
       xlink:href="#linearGradient3260"
       id="radialGradient9739"
       cx="63.53083"
       cy="42.76326"
       fx="63.53083"
       fy="42.76326"
       r="58.68457"
       gradientTransform="matrix(0.56204738,-0.00894808,0.00519341,0.32620801,27.601407,34.713045)"
       gradientUnits="userSpaceOnUse" />
    <radialGradient
       inkscape:collect="always"
       xlink:href="#linearGradient3449"
       id="radialGradient9751"
       cx="64.245117"
       cy="66.666397"
       fx="64.245117"
       fy="66.666397"
       r="55.883793"
       gradientTransform="matrix(0.99799039,0.06336543,-0.01762177,0.27753862,1.3038872,44.092977)"
       gradientUnits="userSpaceOnUse" />
    <radialGradient
       inkscape:collect="always"
       xlink:href="#linearGradient3449"
       id="radialGradient9755"
       gradientUnits="userSpaceOnUse"
       gradientTransform="matrix(-0.04309695,0.99907089,-0.27068507,-0.01167655,118.53146,-6.4346665)"
       cx="79.842957"
       cy="8.71136"
       fx="79.842957"
       fy="8.71136"
       r="55.883793" />
    <radialGradient
       inkscape:collect="always"
       xlink:href="#linearGradient3449"
       id="radialGradient9759"
       gradientUnits="userSpaceOnUse"
       gradientTransform="matrix(-0.50101706,0.39536053,-0.25808676,-0.32705811,153.61276,158.00082)"
       cx="86.40406"
       cy="355.98929"
       fx="86.40406"
       fy="355.98929"
       r="55.883793" />
    <radialGradient
       inkscape:collect="always"
       xlink:href="#linearGradient3449"
       id="radialGradient9780"
       gradientUnits="userSpaceOnUse"
       gradientTransform="matrix(0.01432491,0.45357311,-0.32608676,0.0102986,90.284022,60.900467)"
       cx="34.104187"
       cy="132.8271"
       fx="34.104187"
       fy="132.8271"
       r="58.68457" />
    <radialGradient
       inkscape:collect="always"
       xlink:href="#linearGradient3449"
       id="radialGradient9784"
       gradientUnits="userSpaceOnUse"
       gradientTransform="matrix(0.36292386,0.21526192,-0.19646542,0.33123368,88.402991,105.15478)"
       cx="32.629417"
       cy="-101.06063"
       fx="32.629417"
       fy="-101.06063"
       r="58.68457" />
  </defs>
  <sodipodi:namedview
     id="base"
     pagecolor="#ffffff"
     bordercolor="#666666"
     borderopacity="1.0"
     inkscape:pageopacity="0.0"
     inkscape:pageshadow="2"
     inkscape:zoom="19.916641"
     inkscape:cx="12.000016"
     inkscape:cy="12.000017"
     inkscape:document-units="mm"
     inkscape:current-layer="g4818"
     showgrid="true"
     units="px"
     inkscape:snap-global="true"
     showguides="false">
    <inkscape:grid
       type="xygrid"
       id="grid9341"
       spacingx="0.13229167"
       spacingy="0.13229167" />
  </sodipodi:namedview>
  <metadata
     id="metadata4861">
    <rdf:RDF>
      <cc:Work
         rdf:about="">
        <dc:format>image/svg+xml</dc:format>
        <dc:type
           rdf:resource="http://purl.org/dc/dcmitype/StillImage" />
        <dc:title></dc:title>
      </cc:Work>
    </rdf:RDF>
  </metadata>
  <g
     inkscape:label="Layer 1"
     inkscape:groupmode="layer"
     id="layer1"
     transform="translate(0,-290.64999)">
    <g
       id="g4818"
       transform="matrix(0.1875,0,0,0.1875,0,241.31249)">
      <path
         transform="matrix(0.26458333,0,0,0.26458333,0,263.13332)"
         id="path9418"
         d="m 42.619141,25.070312 a 1.5961061,1.5961061 0 0 0 -1.066407,0.451172 l -30.195312,29.386719 0.05664,-0.05078 c -1.093509,0.965871 -1.8535151,2.250943 -1.8535151,3.660156 0,1.409213 0.6740241,2.690729 1.6875001,3.896484 a 1.5961061,1.5961061 0 0 0 0.111328,0.119141 L 41.554688,91.8125 a 1.5961061,1.5961061 0 0 0 2.707031,-1.146484 V 70.929688 h 46.404297 c 0.801614,0 1.789761,0.450282 2.539062,1.199218 0.749301,0.748936 1.199219,1.735885 1.199219,2.53711 V 95.708984 106.66602 A 1.5961061,1.5961061 0 0 0 96,108.26172 h 21.33398 a 1.5961061,1.5961061 0 0 0 1.59571,-1.5957 V 74.666016 a 1.5961061,1.5961061 0 0 0 -0.125,-0.621094 1.5961061,1.5961061 0 0 0 0,-0.002 c 0.0599,-0.69405 0.12416,-1.386089 0.125,-2.101563 a 1.5961061,1.5961061 0 0 0 0,-0.002 C 118.9294,57.854875 107.47716,46.403444 93.392578,46.404297 c -0.717824,3.18e-4 -1.413277,0.06524 -2.109375,0.125 a 1.5961061,1.5961061 0 0 0 -0.617187,-0.125 H 44.261719 V 26.666016 a 1.5961061,1.5961061 0 0 0 -1.642578,-1.595704 z"
         style="fill:none;stroke:url(#linearGradient9426);stroke-width:8;stroke-linecap:butt;stroke-linejoin:miter;stroke-miterlimit:4;stroke-dasharray:none;stroke-opacity:1"
         inkscape:connector-curvature="0" />
      <path
         id="path9778"
         d="m 42.619141,25.070312 a 1.5961061,1.5961061 0 0 0 -1.066407,0.451172 l -30.195312,29.386719 0.05664,-0.05078 c -1.093509,0.965871 -1.8535151,2.250943 -1.8535151,3.660156 0,1.409213 0.6740241,2.690729 1.6875001,3.896484 a 1.5961061,1.5961061 0 0 0 0.111328,0.119141 L 41.554688,91.8125 a 1.5961061,1.5961061 0 0 0 2.707031,-1.146484 V 70.929688 h 46.404297 c 0.801614,0 1.789761,0.450282 2.539062,1.199218 0.749301,0.748936 1.199219,1.735885 1.199219,2.53711 V 95.708984 106.66602 A 1.5961061,1.5961061 0 0 0 96,108.26172 h 21.33398 a 1.5961061,1.5961061 0 0 0 1.59571,-1.5957 V 74.666016 a 1.5961061,1.5961061 0 0 0 -0.125,-0.621094 1.5961061,1.5961061 0 0 0 0,-0.002 c 0.0599,-0.69405 0.12416,-1.386089 0.125,-2.101563 a 1.5961061,1.5961061 0 0 0 0,-0.002 C 118.9294,57.854875 107.47716,46.403444 93.392578,46.404297 c -0.717824,3.18e-4 -1.413277,0.06524 -2.109375,0.125 a 1.5961061,1.5961061 0 0 0 -0.617187,-0.125 H 44.261719 V 26.666016 a 1.5961061,1.5961061 0 0 0 -1.642578,-1.595704 z"
         style="opacity:0.5;fill:none;stroke:url(#radialGradient9780);stroke-width:8;stroke-linecap:butt;stroke-linejoin:miter;stroke-miterlimit:4;stroke-dasharray:none;stroke-opacity:1"
         transform="matrix(0.26458333,0,0,0.26458333,0,263.13332)"
         inkscape:connector-curvature="0" />
      <path
         transform="matrix(0.26458333,0,0,0.26458333,0,263.13332)"
         d="m 42.583984,23.873047 a 2.7953645,2.7953645 0 0 0 -1.867187,0.789062 l -30.195313,29.386719 0.09961,-0.0918 c -1.2572325,1.110484 -2.2597659,2.753485 -2.2597659,4.560547 0,1.807062 0.8516864,3.338973 1.9687499,4.667969 a 2.7953645,2.7953645 0 0 0 0.195313,0.207031 l 30.195312,29.279297 a 2.7953645,2.7953645 0 0 0 4.740235,-2.005859 v -18.53711 h 45.205078 c 0.402097,0 1.130593,0.287117 1.691406,0.847656 0.560813,0.56054 0.847656,1.288038 0.847656,1.689454 V 95.708984 106.66602 A 2.7953645,2.7953645 0 0 0 96,109.46094 h 21.33398 a 2.7953645,2.7953645 0 0 0 2.79493,-2.79492 V 74.666016 a 2.7953645,2.7953645 0 0 0 -0.11524,-0.789063 c 0.0492,-0.640352 0.11446,-1.271999 0.11524,-1.933594 a 2.7953645,2.7953645 0 0 0 0,-0.0039 c -3e-4,-14.732658 -12.00367,-26.735267 -26.736332,-26.734375 a 2.7953645,2.7953645 0 0 0 -0.002,0 c -0.663074,2.94e-4 -1.295906,0.06631 -1.9375,0.115234 A 2.7953645,2.7953645 0 0 0 90.666016,45.205078 H 45.460938 V 26.666016 a 2.7953645,2.7953645 0 0 0 -2.876954,-2.792969 z"
         id="path9731"
         style="fill:#d3a036;fill-opacity:0.91372549;stroke:none;stroke-width:0.99999994px;stroke-linecap:butt;stroke-linejoin:miter;stroke-opacity:1"
         inkscape:original="M 42.666016 26.666016 L 12.470703 56.052734 C 10.719484 57.599544 10.719484 59.303254 12.470703 61.386719 L 42.666016 90.666016 L 42.666016 69.333984 L 90.666016 69.333984 C 93.332687 69.333984 96 71.999346 96 74.666016 L 96 95.708984 L 96 106.66602 L 117.33398 106.66602 L 117.33398 74.666016 L 117.16992 74.666016 C 117.27297 73.76992 117.3329 72.860935 117.33398 71.939453 C 117.33371 58.717412 106.61462 47.999199 93.392578 48 C 92.470864 48.000408 91.562394 48.05967 90.666016 48.162109 L 90.666016 48 L 42.666016 48 L 42.666016 26.666016 z "
         inkscape:radius="2.795085"
         sodipodi:type="inkscape:offset" />
      <path
         transform="matrix(0.26458333,0,0,0.26458333,0,263.13332)"
         style="opacity:0.5;fill:none;stroke:url(#radialGradient9784);stroke-width:8;stroke-linecap:butt;stroke-linejoin:miter;stroke-miterlimit:4;stroke-dasharray:none;stroke-opacity:1"
         d="m 42.619141,25.070312 a 1.5961061,1.5961061 0 0 0 -1.066407,0.451172 l -30.195312,29.386719 0.05664,-0.05078 c -1.093509,0.965871 -1.8535151,2.250943 -1.8535151,3.660156 0,1.409213 0.6740241,2.690729 1.6875001,3.896484 a 1.5961061,1.5961061 0 0 0 0.111328,0.119141 L 41.554688,91.8125 a 1.5961061,1.5961061 0 0 0 2.707031,-1.146484 V 70.929688 h 46.404297 c 0.801614,0 1.789761,0.450282 2.539062,1.199218 0.749301,0.748936 1.199219,1.735885 1.199219,2.53711 V 95.708984 106.66602 A 1.5961061,1.5961061 0 0 0 96,108.26172 h 21.33398 a 1.5961061,1.5961061 0 0 0 1.59571,-1.5957 V 74.666016 a 1.5961061,1.5961061 0 0 0 -0.125,-0.621094 1.5961061,1.5961061 0 0 0 0,-0.002 c 0.0599,-0.69405 0.12416,-1.386089 0.125,-2.101563 a 1.5961061,1.5961061 0 0 0 0,-0.002 C 118.9294,57.854875 107.47716,46.403444 93.392578,46.404297 c -0.717824,3.18e-4 -1.413277,0.06524 -2.109375,0.125 a 1.5961061,1.5961061 0 0 0 -0.617187,-0.125 H 44.261719 V 26.666016 a 1.5961061,1.5961061 0 0 0 -1.642578,-1.595704 z"
         id="path9782"
         inkscape:connector-curvature="0" />
      <path
         sodipodi:type="inkscape:offset"
         inkscape:radius="2.795085"
         inkscape:original="M 42.666016 26.666016 L 12.470703 56.052734 C 10.719484 57.599544 10.719484 59.303254 12.470703 61.386719 L 42.666016 90.666016 L 42.666016 69.333984 L 90.666016 69.333984 C 93.332687 69.333984 96 71.999346 96 74.666016 L 96 95.708984 L 96 106.66602 L 117.33398 106.66602 L 117.33398 74.666016 L 117.16992 74.666016 C 117.27297 73.76992 117.3329 72.860935 117.33398 71.939453 C 117.33371 58.717412 106.61462 47.999199 93.392578 48 C 92.470864 48.000408 91.562394 48.05967 90.666016 48.162109 L 90.666016 48 L 42.666016 48 L 42.666016 26.666016 z "
         style="opacity:0.5;fill:url(#radialGradient9751);fill-opacity:1;stroke:none;stroke-width:0.99999994px;stroke-linecap:butt;stroke-linejoin:miter;stroke-opacity:1"
         id="path9743"
         d="m 42.583984,23.873047 a 2.7953645,2.7953645 0 0 0 -1.867187,0.789062 l -30.195313,29.386719 0.09961,-0.0918 c -1.2572325,1.110484 -2.2597659,2.753485 -2.2597659,4.560547 0,1.807062 0.8516864,3.338973 1.9687499,4.667969 a 2.7953645,2.7953645 0 0 0 0.195313,0.207031 l 30.195312,29.279297 a 2.7953645,2.7953645 0 0 0 4.740235,-2.005859 v -18.53711 h 45.205078 c 0.402097,0 1.130593,0.287117 1.691406,0.847656 0.560813,0.56054 0.847656,1.288038 0.847656,1.689454 V 95.708984 106.66602 A 2.7953645,2.7953645 0 0 0 96,109.46094 h 21.33398 a 2.7953645,2.7953645 0 0 0 2.79493,-2.79492 V 74.666016 a 2.7953645,2.7953645 0 0 0 -0.11524,-0.789063 c 0.0492,-0.640352 0.11446,-1.271999 0.11524,-1.933594 a 2.7953645,2.7953645 0 0 0 0,-0.0039 c -3e-4,-14.732658 -12.00367,-26.735267 -26.736332,-26.734375 a 2.7953645,2.7953645 0 0 0 -0.002,0 c -0.663074,2.94e-4 -1.295906,0.06631 -1.9375,0.115234 A 2.7953645,2.7953645 0 0 0 90.666016,45.205078 H 45.460938 V 26.666016 a 2.7953645,2.7953645 0 0 0 -2.876954,-2.792969 z"
         transform="matrix(0.26458333,0,0,0.26458333,0,263.13332)" />
      <path
         transform="matrix(0.26458333,0,0,0.26458333,0,263.13332)"
         d="m 42.583984,23.873047 a 2.7953645,2.7953645 0 0 0 -1.867187,0.789062 l -30.195313,29.386719 0.09961,-0.0918 c -1.2572325,1.110484 -2.2597659,2.753485 -2.2597659,4.560547 0,1.807062 0.8516864,3.338973 1.9687499,4.667969 a 2.7953645,2.7953645 0 0 0 0.195313,0.207031 l 30.195312,29.279297 a 2.7953645,2.7953645 0 0 0 4.740235,-2.005859 v -18.53711 h 45.205078 c 0.402097,0 1.130593,0.287117 1.691406,0.847656 0.560813,0.56054 0.847656,1.288038 0.847656,1.689454 V 95.708984 106.66602 A 2.7953645,2.7953645 0 0 0 96,109.46094 h 21.33398 a 2.7953645,2.7953645 0 0 0 2.79493,-2.79492 V 74.666016 a 2.7953645,2.7953645 0 0 0 -0.11524,-0.789063 c 0.0492,-0.640352 0.11446,-1.271999 0.11524,-1.933594 a 2.7953645,2.7953645 0 0 0 0,-0.0039 c -3e-4,-14.732658 -12.00367,-26.735267 -26.736332,-26.734375 a 2.7953645,2.7953645 0 0 0 -0.002,0 c -0.663074,2.94e-4 -1.295906,0.06631 -1.9375,0.115234 A 2.7953645,2.7953645 0 0 0 90.666016,45.205078 H 45.460938 V 26.666016 a 2.7953645,2.7953645 0 0 0 -2.876954,-2.792969 z"
         id="path9753"
         style="opacity:0.5;fill:url(#radialGradient9755);fill-opacity:1;stroke:none;stroke-width:0.99999994px;stroke-linecap:butt;stroke-linejoin:miter;stroke-opacity:1"
         inkscape:original="M 42.666016 26.666016 L 12.470703 56.052734 C 10.719484 57.599544 10.719484 59.303254 12.470703 61.386719 L 42.666016 90.666016 L 42.666016 69.333984 L 90.666016 69.333984 C 93.332687 69.333984 96 71.999346 96 74.666016 L 96 95.708984 L 96 106.66602 L 117.33398 106.66602 L 117.33398 74.666016 L 117.16992 74.666016 C 117.27297 73.76992 117.3329 72.860935 117.33398 71.939453 C 117.33371 58.717412 106.61462 47.999199 93.392578 48 C 92.470864 48.000408 91.562394 48.05967 90.666016 48.162109 L 90.666016 48 L 42.666016 48 L 42.666016 26.666016 z "
         inkscape:radius="2.795085"
         sodipodi:type="inkscape:offset" />
      <path
         transform="matrix(0.26458333,0,0,0.26458333,0,263.13332)"
         id="path9354"
         d="M 42.666016,26.666016 12.470703,56.052734 c -1.751219,1.54681 -1.751219,3.25052 0,5.333985 L 42.666016,90.666016 V 69.333984 h 48 C 93.332687,69.333984 96,71.999346 96,74.666016 v 21.042968 10.957036 h 21.33398 V 74.666016 h -0.16406 c 0.10305,-0.896096 0.16298,-1.805081 0.16406,-2.726563 C 117.33371,58.717412 106.61462,47.999199 93.392578,48 c -0.921714,4.08e-4 -1.830184,0.05967 -2.726562,0.162109 V 48 h -48 z"
         style="fill:url(#radialGradient9725);fill-opacity:1;stroke:none;stroke-width:0.99999994px;stroke-linecap:butt;stroke-linejoin:miter;stroke-opacity:1"
         inkscape:connector-curvature="0" />
      <path
         sodipodi:type="inkscape:offset"
         inkscape:radius="2.795085"
         inkscape:original="M 42.666016 26.666016 L 12.470703 56.052734 C 10.719484 57.599544 10.719484 59.303254 12.470703 61.386719 L 42.666016 90.666016 L 42.666016 69.333984 L 90.666016 69.333984 C 93.332687 69.333984 96 71.999346 96 74.666016 L 96 95.708984 L 96 106.66602 L 117.33398 106.66602 L 117.33398 74.666016 L 117.16992 74.666016 C 117.27297 73.76992 117.3329 72.860935 117.33398 71.939453 C 117.33371 58.717412 106.61462 47.999199 93.392578 48 C 92.470864 48.000408 91.562394 48.05967 90.666016 48.162109 L 90.666016 48 L 42.666016 48 L 42.666016 26.666016 z "
         style="opacity:0.5;fill:url(#radialGradient9759);fill-opacity:1;stroke:none;stroke-width:0.99999994px;stroke-linecap:butt;stroke-linejoin:miter;stroke-opacity:1"
         id="path9757"
         d="m 42.583984,23.873047 a 2.7953645,2.7953645 0 0 0 -1.867187,0.789062 l -30.195313,29.386719 0.09961,-0.0918 c -1.2572325,1.110484 -2.2597659,2.753485 -2.2597659,4.560547 0,1.807062 0.8516864,3.338973 1.9687499,4.667969 a 2.7953645,2.7953645 0 0 0 0.195313,0.207031 l 30.195312,29.279297 a 2.7953645,2.7953645 0 0 0 4.740235,-2.005859 v -18.53711 h 45.205078 c 0.402097,0 1.130593,0.287117 1.691406,0.847656 0.560813,0.56054 0.847656,1.288038 0.847656,1.689454 V 95.708984 106.66602 A 2.7953645,2.7953645 0 0 0 96,109.46094 h 21.33398 a 2.7953645,2.7953645 0 0 0 2.79493,-2.79492 V 74.666016 a 2.7953645,2.7953645 0 0 0 -0.11524,-0.789063 c 0.0492,-0.640352 0.11446,-1.271999 0.11524,-1.933594 a 2.7953645,2.7953645 0 0 0 0,-0.0039 c -3e-4,-14.732658 -12.00367,-26.735267 -26.736332,-26.734375 a 2.7953645,2.7953645 0 0 0 -0.002,0 c -0.663074,2.94e-4 -1.295906,0.06631 -1.9375,0.115234 A 2.7953645,2.7953645 0 0 0 90.666016,45.205078 H 45.460938 V 26.666016 a 2.7953645,2.7953645 0 0 0 -2.876954,-2.792969 z"
         transform="matrix(0.26458333,0,0,0.26458333,0,263.13332)" />
      <path
         transform="matrix(0.26458333,0,0,0.26458333,0,263.13332)"
         style="fill:url(#radialGradient9729);fill-opacity:1;stroke:none;stroke-width:0.99999994px;stroke-linecap:butt;stroke-linejoin:miter;stroke-opacity:1"
         d="M 42.666016,26.666016 12.470703,56.052734 c -1.751219,1.54681 -1.751219,3.25052 0,5.333985 L 42.666016,90.666016 V 69.333984 h 48 C 93.332687,69.333984 96,71.999346 96,74.666016 v 21.042968 10.957036 h 21.33398 V 74.666016 h -0.16406 c 0.10305,-0.896096 0.16298,-1.805081 0.16406,-2.726563 C 117.33371,58.717412 106.61462,47.999199 93.392578,48 c -0.921714,4.08e-4 -1.830184,0.05967 -2.726562,0.162109 V 48 h -48 z"
         id="path9727"
         inkscape:connector-curvature="0" />
      <path
         id="path9687"
         transform="matrix(0.26458333,0,0,0.26458333,0,263.13332)"
         d="M 42.666016,26.666016 12.880859,55.654297 C 28.130583,60.986012 48.973065,64.806978 71.972656,65.875 87.217649,66.582924 102.86128,67.659685 117.05859,68.296875 115.30404,56.803426 105.37638,47.999274 93.392578,48 c -0.921714,4.08e-4 -1.830184,0.05967 -2.726562,0.162109 V 48 h -48 z"
         style="opacity:1;vector-effect:none;fill:url(#linearGradient9717);fill-opacity:1;stroke:none;stroke-width:7.99999952;stroke-miterlimit:4;stroke-dasharray:none"
         inkscape:connector-curvature="0" />
      <path
         sodipodi:nodetypes="cccccssccccccccccc"
         inkscape:connector-curvature="0"
         style="fill:none;stroke:url(#linearGradient9701);stroke-width:0.99999994px;stroke-linecap:butt;stroke-linejoin:miter;stroke-opacity:1;filter:url(#filter9707)"
         d="M 42.666016,26.666016 12.470703,56.052734 c -1.751219,1.54681 -1.751219,3.25052 0,5.333985 L 42.666016,90.666016 V 69.333984 h 48 C 93.332687,69.333984 96,71.999346 96,74.666016 v 21.042968 10.957036 h 21.33398 V 74.666016 h -0.16406 c 0.10305,-0.896096 0.16298,-1.805081 0.16406,-2.726563 C 76.31477,56.809554 106.58339,47.997746 93.392578,48 c -0.921714,4.08e-4 -1.830184,0.05967 -2.726562,0.162109 V 48 h -48 z"
         transform="matrix(0.26458333,0,0,0.26458333,0,263.13332)"
         id="path9693" />
      <path
         transform="matrix(0.26458333,0,0,0.26458333,0,263.13332)"
         style="opacity:0.75;fill:none;stroke:url(#radialGradient9739);stroke-width:8;stroke-linecap:butt;stroke-linejoin:miter;stroke-miterlimit:4;stroke-dasharray:none;stroke-opacity:1"
         d="m 42.619141,25.070312 a 1.5961061,1.5961061 0 0 0 -1.066407,0.451172 l -30.195312,29.386719 0.05664,-0.05078 c -1.093509,0.965871 -1.8535151,2.250943 -1.8535151,3.660156 0,1.409213 0.6740241,2.690729 1.6875001,3.896484 a 1.5961061,1.5961061 0 0 0 0.111328,0.119141 L 41.554688,91.8125 a 1.5961061,1.5961061 0 0 0 2.707031,-1.146484 V 70.929688 h 46.404297 c 0.801614,0 1.789761,0.450282 2.539062,1.199218 0.749301,0.748936 1.199219,1.735885 1.199219,2.53711 V 95.708984 106.66602 A 1.5961061,1.5961061 0 0 0 96,108.26172 h 21.33398 a 1.5961061,1.5961061 0 0 0 1.59571,-1.5957 V 74.666016 a 1.5961061,1.5961061 0 0 0 -0.125,-0.621094 1.5961061,1.5961061 0 0 0 0,-0.002 c 0.0599,-0.69405 0.12416,-1.386089 0.125,-2.101563 a 1.5961061,1.5961061 0 0 0 0,-0.002 C 118.9294,57.854875 107.47716,46.403444 93.392578,46.404297 c -0.717824,3.18e-4 -1.413277,0.06524 -2.109375,0.125 a 1.5961061,1.5961061 0 0 0 -0.617187,-0.125 H 44.261719 V 26.666016 a 1.5961061,1.5961061 0 0 0 -1.642578,-1.595704 z"
         id="path9735"
         inkscape:connector-curvature="0" />
    </g>
  </g>
</svg>
