<?xml version="1.0" encoding="UTF-8" standalone="no"?>
<svg
   xmlns:dc="http://purl.org/dc/elements/1.1/"
   xmlns:cc="http://creativecommons.org/ns#"
   xmlns:rdf="http://www.w3.org/1999/02/22-rdf-syntax-ns#"
   xmlns:svg="http://www.w3.org/2000/svg"
   xmlns="http://www.w3.org/2000/svg"
   xmlns:xlink="http://www.w3.org/1999/xlink"
   xmlns:sodipodi="http://sodipodi.sourceforge.net/DTD/sodipodi-0.dtd"
   xmlns:inkscape="http://www.inkscape.org/namespaces/inkscape"
   enable-background="new 0 0 128 128"
   height="24"
   viewBox="0 0 24 24"
   width="24"
   version="1.1"
   id="svg150"
   sodipodi:docname="lc_versiondialog.svg"
   inkscape:version="0.92.4 (unknown)"
   inkscape:export-filename="/home/rizmut/Dokumen/Rizmut/Github/libreoffice-style-karasa-jaga/build/next/cmd/lc_versiondialog.png"
   inkscape:export-xdpi="96"
   inkscape:export-ydpi="96">
  <metadata
     id="metadata156">
    <rdf:RDF>
      <cc:Work
         rdf:about="">
        <dc:format>image/svg+xml</dc:format>
        <dc:type
           rdf:resource="http://purl.org/dc/dcmitype/StillImage" />
        <dc:title></dc:title>
      </cc:Work>
    </rdf:RDF>
  </metadata>
  <defs
     id="defs154">
    <radialGradient
       inkscape:collect="always"
       xlink:href="#a"
       id="radialGradient1038"
       gradientUnits="userSpaceOnUse"
       cx="100.80984"
       cy="112.93461"
       r="135.18756" />
    <radialGradient
       inkscape:collect="always"
       xlink:href="#b"
       id="radialGradient1040"
       gradientUnits="userSpaceOnUse"
       gradientTransform="matrix(0.94807,0,0,0.9510679,3.32352,5.274458)"
       cx="102"
       cy="112.3047"
       r="139.55859" />
    <linearGradient
       inkscape:collect="always"
       xlink:href="#c"
       id="linearGradient1042"
       gradientUnits="userSpaceOnUse"
       x1="88.591797"
       y1="96.592697"
       x2="71.262016"
       y2="79.262917" />
    <linearGradient
       inkscape:collect="always"
       xlink:href="#d"
       id="linearGradient1044"
       gradientUnits="userSpaceOnUse"
       x1="85.219681"
       y1="93.219681"
       x2="61.336319"
       y2="69.336319" />
    <linearGradient
       inkscape:collect="always"
       xlink:href="#e"
       id="linearGradient1046"
       gradientUnits="userSpaceOnUse"
       x1="96"
       y1="104"
       x2="88.000198"
       y2="96.000198" />
    <radialGradient
       inkscape:collect="always"
       xlink:href="#a"
       id="radialGradient1074"
       gradientUnits="userSpaceOnUse"
       cx="100.80984"
       cy="112.93461"
       r="135.18756" />
    <radialGradient
       inkscape:collect="always"
       xlink:href="#b"
       id="radialGradient1076"
       gradientUnits="userSpaceOnUse"
       gradientTransform="matrix(0.94807,0,0,0.9510679,3.32352,5.274458)"
       cx="102"
       cy="112.3047"
       r="139.55859" />
    <linearGradient
       inkscape:collect="always"
       xlink:href="#c"
       id="linearGradient1078"
       gradientUnits="userSpaceOnUse"
       x1="88.591797"
       y1="96.592697"
       x2="71.262016"
       y2="79.262917" />
    <linearGradient
       inkscape:collect="always"
       xlink:href="#d"
       id="linearGradient1080"
       gradientUnits="userSpaceOnUse"
       x1="85.219681"
       y1="93.219681"
       x2="61.336319"
       y2="69.336319" />
    <linearGradient
       inkscape:collect="always"
       xlink:href="#e"
       id="linearGradient1082"
       gradientUnits="userSpaceOnUse"
       x1="96"
       y1="104"
       x2="88.000198"
       y2="96.000198" />
  </defs>
  <sodipodi:namedview
     pagecolor="#ffffff"
     bordercolor="#666666"
     borderopacity="1"
     objecttolerance="10"
     gridtolerance="10"
     guidetolerance="10"
     inkscape:pageopacity="0"
     inkscape:pageshadow="2"
     inkscape:window-width="1366"
     inkscape:window-height="706"
     id="namedview152"
     showgrid="true"
     inkscape:zoom="9.8333333"
     inkscape:cx="13.84654"
     inkscape:cy="10.664612"
     inkscape:window-x="0"
     inkscape:window-y="0"
     inkscape:window-maximized="1"
     inkscape:current-layer="svg150">
    <inkscape:grid
       type="xygrid"
       id="grid963" />
  </sodipodi:namedview>
  <radialGradient
     id="a"
     cx="100.80984"
     cy="112.93461"
     gradientUnits="userSpaceOnUse"
     r="135.18756">
    <stop
       offset="0"
       stop-color="#3e3e3e"
       id="stop2" />
    <stop
       offset=".0151"
       stop-color="#505050"
       id="stop4" />
    <stop
       offset=".0558"
       stop-color="#7e7e7e"
       id="stop6" />
    <stop
       offset=".1357"
       stop-color="#c6c6c6"
       id="stop8" />
    <stop
       offset=".20990001"
       stop-color="#f1f1f1"
       id="stop10" />
    <stop
       offset=".24349999"
       stop-color="#fcfcfc"
       id="stop12" />
    <stop
       offset=".2722"
       stop-color="#fff"
       id="stop14" />
  </radialGradient>
  <radialGradient
     id="b"
     cx="102"
     cy="112.3047"
     gradientTransform="matrix(.94807 0 0 .9510679 3.32352 5.274458)"
     gradientUnits="userSpaceOnUse"
     r="139.55859">
    <stop
       offset="0"
       stop-color="#535557"
       id="stop17" />
    <stop
       offset=".11366145"
       stop-color="#898a8c"
       id="stop19" />
    <stop
       offset=".20296688"
       stop-color="#ececec"
       id="stop21" />
    <stop
       offset=".2363"
       stop-color="#fafafa"
       id="stop23" />
    <stop
       offset=".2722"
       stop-color="#fff"
       id="stop25" />
    <stop
       offset=".5313"
       stop-color="#fafafa"
       id="stop27" />
    <stop
       offset=".8449"
       stop-color="#ebecec"
       id="stop29" />
    <stop
       offset="1"
       stop-color="#e1e2e3"
       id="stop31" />
  </radialGradient>
  <linearGradient
     id="c"
     gradientUnits="userSpaceOnUse"
     x1="88.591797"
     x2="71.262016"
     y1="96.592697"
     y2="79.262917">
    <stop
       offset="0"
       stop-color="#fff"
       id="stop34" />
    <stop
       offset="1"
       stop-color="#555753"
       id="stop36" />
  </linearGradient>
  <linearGradient
     id="d"
     gradientUnits="userSpaceOnUse"
     x1="85.219681"
     x2="61.336319"
     y1="93.219681"
     y2="69.336319">
    <stop
       offset="0"
       id="stop39" />
    <stop
       offset="1"
       stop-color="#393b38"
       id="stop41" />
  </linearGradient>
  <linearGradient
     id="e"
     gradientUnits="userSpaceOnUse"
     x1="96"
     x2="88.000198"
     y1="104"
     y2="96.000198">
    <stop
       offset="0"
       stop-color="#888a85"
       id="stop44" />
    <stop
       offset=".0072"
       stop-color="#8c8e89"
       id="stop46" />
    <stop
       offset=".0673"
       stop-color="#abaca9"
       id="stop48" />
    <stop
       offset=".1347"
       stop-color="#c5c6c4"
       id="stop50" />
    <stop
       offset=".2115"
       stop-color="#dbdbda"
       id="stop52" />
    <stop
       offset=".3012"
       stop-color="#ebebeb"
       id="stop54" />
    <stop
       offset=".4122"
       stop-color="#f7f7f6"
       id="stop56" />
    <stop
       offset=".5679"
       stop-color="#fdfdfd"
       id="stop58" />
    <stop
       offset="1"
       stop-color="#fff"
       id="stop60" />
  </linearGradient>
  <filter
     id="f">
    <feGaussianBlur
       stdDeviation="1.0394514"
       id="feGaussianBlur63" />
  </filter>
  <filter
     id="g">
    <feGaussianBlur
       stdDeviation=".50063244"
       id="feGaussianBlur66" />
  </filter>
  <filter
     id="h">
    <feGaussianBlur
       stdDeviation=".40750996"
       id="feGaussianBlur69" />
  </filter>
  <filter
     id="i">
    <feGaussianBlur
       stdDeviation=".4901192"
       id="feGaussianBlur72" />
  </filter>
  <filter
     id="j">
    <feGaussianBlur
       stdDeviation=".90565481"
       id="feGaussianBlur75" />
  </filter>
  <g
     transform="translate(-6,-4)"
     id="g1072">
    <g
       id="g1060"
       transform="matrix(0.171875,0,0,0.171875,3.994016,1.999691)">
      <path
         sodipodi:nodetypes="ccsssscc"
         style="opacity:0.55342503;filter:url(#f)"
         inkscape:connector-curvature="0"
         id="path1048"
         transform="matrix(1.0090419,0,0,1.003276,-7.641977,0.929762)"
         d="m 34.532496,20.567311 0.03911,102.426159 H 84.172 c 0.53,0 1.039,-0.211 1.414,-0.586 l 32.828,-32.828001 c 0.375,-0.375 0.586,-0.884 0.586,-1.414 l 0.002,-67.598158 z" />
      <path
         sodipodi:nodetypes="ccsssscc"
         style="opacity:0.30684904;filter:url(#f)"
         inkscape:connector-curvature="0"
         id="path1050"
         transform="matrix(1.0090419,0,0,1.003276,-7.641977,0.929762)"
         d="m 34.532496,20.598528 0.03911,102.394942 H 84.172 c 0.53,0 1.039,-0.211 1.414,-0.586 l 32.828,-32.828001 c 0.375,-0.375 0.586,-0.884 0.586,-1.414 l 0.002,-67.566941 z" />
      <path
         sodipodi:nodetypes="cccccccc"
         style="opacity:0.89589;filter:url(#g)"
         inkscape:connector-curvature="0"
         id="path1052"
         transform="matrix(1.0090419,0,0,1.003276,-7.641977,0.929762)"
         d="m 36.438231,22.2718 0.01255,98.59139 47.14521,-1e-4 c 0.53,0 1.039,-0.211 1.414,-0.586 L 116.494,88.511156 c 0.375,-0.375 0.586,-0.884 0.586,-1.414 L 117.1629,22.2718 Z" />
      <path
         sodipodi:nodetypes="ccsssscc"
         style="opacity:0.30684904;filter:url(#f)"
         inkscape:connector-curvature="0"
         id="path1054"
         transform="matrix(1.0090419,0,0,1.003276,-7.641977,0.929762)"
         d="m 34.532496,21.564046 0.03911,101.429424 H 84.172 c 0.53,0 1.039,-0.211 1.414,-0.586 l 32.828,-32.828001 c 0.375,-0.375 0.586,-0.884 0.586,-1.414 l 0.002,-66.601423 z" />
      <path
         sodipodi:nodetypes="ccsccccc"
         style="fill:url(#radialGradient1074)"
         inkscape:connector-curvature="0"
         id="path1056"
         d="m 29.125725,23.274525 0.01268,98.914365 h 47.621054 c 0.513401,0 1.006458,-0.20439 1.369714,-0.56765 L 109.929,89.821411 c 0.36326,-0.363255 0.56764,-0.856313 0.56764,-1.369714 l 0.0836,-65.177172 z" />
      <path
         sodipodi:nodetypes="cccsscccccc"
         style="fill:url(#radialGradient1076)"
         inkscape:connector-curvature="0"
         id="path1058"
         d="m 35.703628,29.148669 c -0.522387,0 -0.94807,0.42703 -0.94807,0.951069 l 0.320203,85.100722 c 0,0.525 0.425684,0.95108 0.94807,0.95108 h 40.464147 c 0.249342,0 0.493944,-0.10082 0.670284,-0.27867 L 105.2815,88.651213 c 0.17729,-0.17785 0.27778,-0.422273 0.27778,-0.672405 L 104.861,30.121661 c 0,-0.524039 -0.42473,-0.951068 -0.94806,-0.951068 z" />
    </g>
    <g
       id="g1070"
       transform="matrix(0.19044027,0,0,0.19044027,1.803507,0.278076)">
      <path
         inkscape:connector-curvature="0"
         style="opacity:0.75068497;fill:url(#linearGradient1078);filter:url(#h)"
         id="path1062"
         d="M 111.414,86.586 C 111.664,86.336 85.035,85 80,85 c -1.654,0 -3,1.346 -3,3 0,5.035 1.336,31.664 1.586,31.414 z" />
      <path
         style="opacity:0.2;filter:url(#j)"
         inkscape:connector-curvature="0"
         id="path1064"
         d="M 111.414,86.586 C 111.789,86.211 89.444,86 80,86 c -1.103,0 -2,0.897 -2,2 0,9.444 0.211,31.789 0.586,31.414 z" />
      <path
         inkscape:connector-curvature="0"
         style="opacity:0.1;fill:url(#linearGradient1080);filter:url(#i)"
         id="path1066"
         d="M 111.414,86.586 C 111.653,86.347 89.807,87 80,87 c -0.553,0 -1,0.447 -1,1 0,9.807 -0.653,31.653 -0.414,31.414 z" />
      <path
         inkscape:connector-curvature="0"
         style="fill:url(#linearGradient1082)"
         id="path1068"
         d="M 79.721619,119.31106 111.22712,87.805556 H 79.721619 Z" />
    </g>
  </g>
  <g
     id="g1036"
     transform="translate(-3,-2)">
    <g
       transform="matrix(0.171875,0,0,0.171875,3.994016,1.999691)"
       id="g1024">
      <path
         d="m 34.532496,20.567311 0.03911,102.426159 H 84.172 c 0.53,0 1.039,-0.211 1.414,-0.586 l 32.828,-32.828001 c 0.375,-0.375 0.586,-0.884 0.586,-1.414 l 0.002,-67.598158 z"
         transform="matrix(1.0090419,0,0,1.003276,-7.641977,0.929762)"
         id="path1012"
         inkscape:connector-curvature="0"
         style="opacity:0.55342503;filter:url(#f)"
         sodipodi:nodetypes="ccsssscc" />
      <path
         d="m 34.532496,20.598528 0.03911,102.394942 H 84.172 c 0.53,0 1.039,-0.211 1.414,-0.586 l 32.828,-32.828001 c 0.375,-0.375 0.586,-0.884 0.586,-1.414 l 0.002,-67.566941 z"
         transform="matrix(1.0090419,0,0,1.003276,-7.641977,0.929762)"
         id="path1014"
         inkscape:connector-curvature="0"
         style="opacity:0.30684904;filter:url(#f)"
         sodipodi:nodetypes="ccsssscc" />
      <path
         d="m 36.438231,22.2718 0.01255,98.59139 47.14521,-1e-4 c 0.53,0 1.039,-0.211 1.414,-0.586 L 116.494,88.511156 c 0.375,-0.375 0.586,-0.884 0.586,-1.414 L 117.1629,22.2718 Z"
         transform="matrix(1.0090419,0,0,1.003276,-7.641977,0.929762)"
         id="path1016"
         inkscape:connector-curvature="0"
         style="opacity:0.89589;filter:url(#g)"
         sodipodi:nodetypes="cccccccc" />
      <path
         d="m 34.532496,21.564046 0.03911,101.429424 H 84.172 c 0.53,0 1.039,-0.211 1.414,-0.586 l 32.828,-32.828001 c 0.375,-0.375 0.586,-0.884 0.586,-1.414 l 0.002,-66.601423 z"
         transform="matrix(1.0090419,0,0,1.003276,-7.641977,0.929762)"
         id="path1018"
         inkscape:connector-curvature="0"
         style="opacity:0.30684904;filter:url(#f)"
         sodipodi:nodetypes="ccsssscc" />
      <path
         d="m 29.125725,23.274525 0.01268,98.914365 h 47.621054 c 0.513401,0 1.006458,-0.20439 1.369714,-0.56765 L 109.929,89.821411 c 0.36326,-0.363255 0.56764,-0.856313 0.56764,-1.369714 l 0.0836,-65.177172 z"
         id="path1020"
         inkscape:connector-curvature="0"
         style="fill:url(#radialGradient1038)"
         sodipodi:nodetypes="ccsccccc" />
      <path
         d="m 35.703628,29.148669 c -0.522387,0 -0.94807,0.42703 -0.94807,0.951069 l 0.320203,85.100722 c 0,0.525 0.425684,0.95108 0.94807,0.95108 h 40.464147 c 0.249342,0 0.493944,-0.10082 0.670284,-0.27867 L 105.2815,88.651213 c 0.17729,-0.17785 0.27778,-0.422273 0.27778,-0.672405 L 104.861,30.121661 c 0,-0.524039 -0.42473,-0.951068 -0.94806,-0.951068 z"
         id="path1022"
         inkscape:connector-curvature="0"
         style="fill:url(#radialGradient1040)"
         sodipodi:nodetypes="cccsscccccc" />
    </g>
    <g
       transform="matrix(0.19044027,0,0,0.19044027,1.803507,0.278076)"
       id="g1034">
      <path
         d="M 111.414,86.586 C 111.664,86.336 85.035,85 80,85 c -1.654,0 -3,1.346 -3,3 0,5.035 1.336,31.664 1.586,31.414 z"
         id="path1026"
         style="opacity:0.75068497;fill:url(#linearGradient1042);filter:url(#h)"
         inkscape:connector-curvature="0" />
      <path
         d="M 111.414,86.586 C 111.789,86.211 89.444,86 80,86 c -1.103,0 -2,0.897 -2,2 0,9.444 0.211,31.789 0.586,31.414 z"
         id="path1028"
         inkscape:connector-curvature="0"
         style="opacity:0.2;filter:url(#j)" />
      <path
         d="M 111.414,86.586 C 111.653,86.347 89.807,87 80,87 c -0.553,0 -1,0.447 -1,1 0,9.807 -0.653,31.653 -0.414,31.414 z"
         id="path1030"
         style="opacity:0.1;fill:url(#linearGradient1044);filter:url(#i)"
         inkscape:connector-curvature="0" />
      <path
         d="M 79.721619,119.31106 111.22712,87.805556 H 79.721619 Z"
         id="path1032"
         style="fill:url(#linearGradient1046)"
         inkscape:connector-curvature="0" />
    </g>
  </g>
  <g
     id="g1010">
    <g
       id="g126"
       transform="matrix(.171875 0 0 .171875 3.994016 1.999691)">
      <path
         sodipodi:nodetypes="ccsssscc"
         style="opacity:0.55342503;filter:url(#f)"
         inkscape:connector-curvature="0"
         id="path114"
         transform="matrix(1.0090419,0,0,1.003276,-7.641977,0.929762)"
         d="m 34.532496,20.567311 0.03911,102.426159 H 84.172 c 0.53,0 1.039,-0.211 1.414,-0.586 l 32.828,-32.828001 c 0.375,-0.375 0.586,-0.884 0.586,-1.414 l 0.002,-67.598158 z" />
      <path
         sodipodi:nodetypes="ccsssscc"
         style="opacity:0.30684904;filter:url(#f)"
         inkscape:connector-curvature="0"
         id="path116"
         transform="matrix(1.0090419,0,0,1.003276,-7.641977,0.929762)"
         d="m 34.532496,20.598528 0.03911,102.394942 H 84.172 c 0.53,0 1.039,-0.211 1.414,-0.586 l 32.828,-32.828001 c 0.375,-0.375 0.586,-0.884 0.586,-1.414 l 0.002,-67.566941 z" />
      <path
         sodipodi:nodetypes="cccccccc"
         style="opacity:0.89589;filter:url(#g)"
         inkscape:connector-curvature="0"
         id="path118"
         transform="matrix(1.0090419,0,0,1.003276,-7.641977,0.929762)"
         d="m 36.438231,22.2718 0.01255,98.59139 47.14521,-1e-4 c 0.53,0 1.039,-0.211 1.414,-0.586 L 116.494,88.511156 c 0.375,-0.375 0.586,-0.884 0.586,-1.414 l 0.0829,-64.825356 z" />
      <path
         sodipodi:nodetypes="ccsssscc"
         style="opacity:0.30684904;filter:url(#f)"
         inkscape:connector-curvature="0"
         id="path120"
         transform="matrix(1.0090419,0,0,1.003276,-7.641977,0.929762)"
         d="m 34.532496,21.564046 0.03911,101.429424 H 84.172 c 0.53,0 1.039,-0.211 1.414,-0.586 l 32.828,-32.828001 c 0.375,-0.375 0.586,-0.884 0.586,-1.414 l 0.002,-66.601423 z" />
      <path
         sodipodi:nodetypes="ccsccccc"
         style="fill:url(#a)"
         inkscape:connector-curvature="0"
         id="path122"
         d="m 29.125725,23.274525 0.01268,98.914365 h 47.621054 c 0.513401,0 1.006458,-0.20439 1.369714,-0.56765 L 109.929,89.821411 c 0.36326,-0.363255 0.56764,-0.856313 0.56764,-1.369714 l 0.0836,-65.177172 z" />
      <path
         sodipodi:nodetypes="cccsscccccc"
         style="fill:url(#b)"
         inkscape:connector-curvature="0"
         id="path124"
         d="m 35.703628,29.148669 c -0.522387,0 -0.94807,0.42703 -0.94807,0.951069 l 0.320203,85.100722 c 0,0.525 0.425684,0.95108 0.94807,0.95108 h 40.464147 c 0.249342,0 0.493944,-0.10082 0.670284,-0.27867 L 105.2815,88.651213 c 0.17729,-0.17785 0.27778,-0.422273 0.27778,-0.672405 L 104.861,30.121661 c 0,-0.524039 -0.42473,-0.951068 -0.94806,-0.951068 z" />
    </g>
    <g
       id="g138"
       transform="matrix(.19044027 0 0 .19044027 1.803507 .278076)">
      <path
         id="path130"
         opacity=".750685"
         filter="url(#h)"
         fill="url(#c)"
         d="m111.414 86.586c.25-.25-26.379-1.586-31.414-1.586-1.654 0-3 1.346-3 3 0 5.035 1.336 31.664 1.586 31.414z" />
      <path
         id="path132"
         opacity=".2"
         filter="url(#j)"
         d="m111.414 86.586c.375-.375-21.97-.586-31.414-.586-1.103 0-2 .897-2 2 0 9.444.211 31.789.586 31.414z" />
      <path
         id="path134"
         opacity=".1"
         filter="url(#i)"
         fill="url(#d)"
         d="m111.414 86.586c.239-.239-21.607.414-31.414.414-.553 0-1 .447-1 1 0 9.807-.653 31.653-.414 31.414z" />
      <path
         id="path136"
         fill="url(#e)"
         d="m79.721619 119.31106 31.505501-31.505504h-31.505501z" />
    </g>
  </g>
</svg>
