<?xml version="1.0" encoding="UTF-8" standalone="no"?>
<svg
   xmlns:dc="http://purl.org/dc/elements/1.1/"
   xmlns:cc="http://creativecommons.org/ns#"
   xmlns:rdf="http://www.w3.org/1999/02/22-rdf-syntax-ns#"
   xmlns:svg="http://www.w3.org/2000/svg"
   xmlns="http://www.w3.org/2000/svg"
   xmlns:sodipodi="http://sodipodi.sourceforge.net/DTD/sodipodi-0.dtd"
   xmlns:inkscape="http://www.inkscape.org/namespaces/inkscape"
   enable-background="new 0 0 128 128"
   height="24"
   viewBox="0 0 24 24"
   width="24"
   version="1.1"
   id="svg1198"
   sodipodi:docname="lc_vruler.svg"
   inkscape:version="0.92.4 (unknown)"
   inkscape:export-filename="/home/rizmut/Dokumen/Rizmut/Github/libreoffice-style-karasa-jaga/build/next/cmd/lc_vruler.png"
   inkscape:export-xdpi="96"
   inkscape:export-ydpi="96">
  <metadata
     id="metadata1204">
    <rdf:RDF>
      <cc:Work
         rdf:about="">
        <dc:format>image/svg+xml</dc:format>
        <dc:type
           rdf:resource="http://purl.org/dc/dcmitype/StillImage" />
        <dc:title></dc:title>
      </cc:Work>
    </rdf:RDF>
  </metadata>
  <defs
     id="defs1202">
    <radialGradient
       id="k"
       cx="64"
       cy="44.604801"
       gradientTransform="matrix(0.5972287,0,0,0.3333333,5.777365,49.131734)"
       gradientUnits="userSpaceOnUse"
       r="60">
      <stop
         offset="0"
         stop-color="#75511a"
         id="stop78" />
      <stop
         offset="1"
         stop-color="#382509"
         id="stop80" />
    </radialGradient>
  </defs>
  <sodipodi:namedview
     pagecolor="#ffffff"
     bordercolor="#666666"
     borderopacity="1"
     objecttolerance="10"
     gridtolerance="10"
     guidetolerance="10"
     inkscape:pageopacity="0"
     inkscape:pageshadow="2"
     inkscape:window-width="1366"
     inkscape:window-height="714"
     id="namedview1200"
     showgrid="true"
     inkscape:zoom="6.8174117"
     inkscape:cx="17.271666"
     inkscape:cy="11.882814"
     inkscape:window-x="0"
     inkscape:window-y="28"
     inkscape:window-maximized="1"
     inkscape:current-layer="svg1198">
    <inkscape:grid
       type="xygrid"
       id="grid1206" />
  </sodipodi:namedview>
  <linearGradient
     id="a"
     gradientUnits="userSpaceOnUse"
     x1="88.591797"
     x2="71.262016"
     y1="96.592697"
     y2="79.262917">
    <stop
       offset="0"
       stop-color="#fff"
       id="stop1098" />
    <stop
       offset="1"
       stop-color="#555753"
       id="stop1100" />
  </linearGradient>
  <linearGradient
     id="b"
     gradientUnits="userSpaceOnUse"
     x1="85.219681"
     x2="61.336319"
     y1="93.219681"
     y2="69.336319">
    <stop
       offset="0"
       id="stop1103" />
    <stop
       offset="1"
       stop-color="#393b38"
       id="stop1105" />
  </linearGradient>
  <linearGradient
     id="c"
     gradientUnits="userSpaceOnUse"
     x1="96"
     x2="88.000198"
     y1="104"
     y2="96.000198">
    <stop
       offset="0"
       stop-color="#888a85"
       id="stop1108" />
    <stop
       offset=".0072"
       stop-color="#8c8e89"
       id="stop1110" />
    <stop
       offset=".0673"
       stop-color="#abaca9"
       id="stop1112" />
    <stop
       offset=".1347"
       stop-color="#c5c6c4"
       id="stop1114" />
    <stop
       offset=".2115"
       stop-color="#dbdbda"
       id="stop1116" />
    <stop
       offset=".3012"
       stop-color="#ebebeb"
       id="stop1118" />
    <stop
       offset=".4122"
       stop-color="#f7f7f6"
       id="stop1120" />
    <stop
       offset=".5679"
       stop-color="#fdfdfd"
       id="stop1122" />
    <stop
       offset="1"
       stop-color="#fff"
       id="stop1124" />
  </linearGradient>
  <radialGradient
     id="d"
     cx="102"
     cy="112.3047"
     gradientTransform="matrix(.94807 0 0 .9510679 3.32352 5.274458)"
     gradientUnits="userSpaceOnUse"
     r="139.55859">
    <stop
       offset="0"
       stop-color="#535557"
       id="stop1127" />
    <stop
       offset=".11366145"
       stop-color="#898a8c"
       id="stop1129" />
    <stop
       offset=".20296688"
       stop-color="#ececec"
       id="stop1131" />
    <stop
       offset=".2363"
       stop-color="#fafafa"
       id="stop1133" />
    <stop
       offset=".2722"
       stop-color="#fff"
       id="stop1135" />
    <stop
       offset=".5313"
       stop-color="#fafafa"
       id="stop1137" />
    <stop
       offset=".8449"
       stop-color="#ebecec"
       id="stop1139" />
    <stop
       offset="1"
       stop-color="#e1e2e3"
       id="stop1141" />
  </radialGradient>
  <radialGradient
     id="e"
     cx="100.80984"
     cy="112.93461"
     gradientUnits="userSpaceOnUse"
     r="135.18756">
    <stop
       offset="0"
       stop-color="#3e3e3e"
       id="stop1144" />
    <stop
       offset=".0151"
       stop-color="#505050"
       id="stop1146" />
    <stop
       offset=".0558"
       stop-color="#7e7e7e"
       id="stop1148" />
    <stop
       offset=".1357"
       stop-color="#c6c6c6"
       id="stop1150" />
    <stop
       offset=".20990001"
       stop-color="#f1f1f1"
       id="stop1152" />
    <stop
       offset=".24349999"
       stop-color="#fcfcfc"
       id="stop1154" />
    <stop
       offset=".2722"
       stop-color="#fff"
       id="stop1156" />
  </radialGradient>
  <filter
     id="f">
    <feGaussianBlur
       stdDeviation="1.0394514"
       id="feGaussianBlur1159" />
  </filter>
  <filter
     id="g">
    <feGaussianBlur
       stdDeviation=".50063244"
       id="feGaussianBlur1162" />
  </filter>
  <filter
     id="h">
    <feGaussianBlur
       stdDeviation=".40750996"
       id="feGaussianBlur1165" />
  </filter>
  <filter
     id="i">
    <feGaussianBlur
       stdDeviation=".4901192"
       id="feGaussianBlur1168" />
  </filter>
  <filter
     id="j">
    <feGaussianBlur
       stdDeviation=".90565481"
       id="feGaussianBlur1171" />
  </filter>
  <g
     transform="matrix(.20454546 0 0 .20454546 -1.577287 -1.380484)"
     id="g1186">
    <path
       d="m27.845077 13.841705.02654 106.166145h56.286107c.53 0 1.02161-.22945 1.414-.586l32.842276-29.842381c.39239-.356548.586-.884.586-1.414v-74.323764z"
       filter="url(#f)"
       opacity=".553425"
       transform="matrix(1.0090419 0 0 1.003276 -7.641977 .929762)"
       id="path1174" />
    <path
       d="m27.845077 13.872922.02655 106.134928h56.286103c.53 0 1.02161-.22945 1.414-.586l32.84227-29.842381c.39239-.356548.586-.884.586-1.414v-74.292547z"
       filter="url(#f)"
       opacity=".306849"
       transform="matrix(1.0090419 0 0 1.003276 -7.641977 .929762)"
       id="path1176" />
    <path
       d="m29.750812 15.546194-.000011 102.331376 53.830924-.0001c.53 0 1.039-.211 1.414-.586l31.498275-28.780314c.375-.375.586-.884.586-1.414l.0812-71.550962z"
       filter="url(#g)"
       opacity=".89589"
       transform="matrix(1.0090419 0 0 1.003276 -7.641977 .929762)"
       id="path1178" />
    <path
       d="m27.845077 14.838439.02654 105.169411h56.286107c.53 0 1.02161-.22945 1.414-.586l32.842276-29.842381c.39239-.356548.586-.884.586-1.414v-73.32703z"
       filter="url(#f)"
       opacity=".306849"
       transform="matrix(1.0090419 0 0 1.003276 -7.641977 .929762)"
       id="path1180" />
    <path
       d="m22.377839 16.526886v102.666604h54.36722c.513401 0 1.006458-.20439 1.369714-.56765l31.814227-28.804429c.36326-.363255.56764-.856313.56764-1.369714l.0819-71.924811z"
       fill="url(#e)"
       id="path1182" />
    <path
       d="m28.955742 22.40103c-.522387 0-.94807.42703-.94807.951069l.307523 88.852961c0 .525.425684.95108.94807.95108h47.210313c.249342 0 .493944-.10082.670284-.27867l28.137638-24.226257c.17729-.17785.27778-.422273.27778-.672405l-.7-64.604786c0-.524039-.42473-.951068-.94806-.951068z"
       fill="url(#d)"
       id="path1184" />
  </g>
  <g
     transform="matrix(.22663966 0 0 .22663966 -4.184175 -3.429348)"
     id="g1196">
    <path
       d="m111.52523 88.365747c.26305-.236238-24.821717-1.141063-29.856717-1.141063-1.654 0-3 1.346-3 3 0 5.035 1.211722 26.561276 1.474766 26.325036z"
       fill="url(#a)"
       filter="url(#h)"
       opacity=".750685"
       id="path1188" />
    <path
       d="m111.52523 88.365747c.39457-.354357-20.412717-.141063-29.856717-.141063-1.103 0-2 .897-2 2 0 9.444.0802 26.679386.474766 26.325036z"
       filter="url(#j)"
       opacity=".2"
       id="path1190" />
    <path
       d="m111.52523 88.365747c.25147-.225842-20.049717.858937-29.856717.858937-.553 0-1 .447-1 1 0 9.806996-.776705 26.550876-.525234 26.325036z"
       fill="url(#b)"
       filter="url(#i)"
       opacity=".1"
       id="path1192" />
    <path
       d="m81.278898 116.44678 30.059452-26.861477-29.948218.444937z"
       fill="url(#c)"
       id="path1194" />
  </g>
  <g
     id="g109"
     transform="matrix(0,0.25000078,-0.25000078,0,23.999972,1.9999659)">
    <rect
       style="fill:url(#k)"
       id="rect105"
       y="63.999687"
       x="-3.9998512"
       width="91.998474"
       rx="6"
       height="12.000243" />
    <path
       sodipodi:nodetypes="ccccc"
       style="fill:#debc85"
       inkscape:connector-curvature="0"
       id="path107"
       d="M 1.3639957e-4,67.999676 83.998694,68.000069 v 4 L 1.3639957e-4,71.999676 Z" />
  </g>
</svg>
