<?xml version="1.0" encoding="UTF-8" standalone="no"?>
<svg
   xmlns:dc="http://purl.org/dc/elements/1.1/"
   xmlns:cc="http://creativecommons.org/ns#"
   xmlns:rdf="http://www.w3.org/1999/02/22-rdf-syntax-ns#"
   xmlns:svg="http://www.w3.org/2000/svg"
   xmlns="http://www.w3.org/2000/svg"
   xmlns:sodipodi="http://sodipodi.sourceforge.net/DTD/sodipodi-0.dtd"
   xmlns:inkscape="http://www.inkscape.org/namespaces/inkscape"
   height="24"
   width="24"
   version="1.1"
   id="svg49"
   sodipodi:docname="lc_wrapideal.svg"
   inkscape:version="0.92.4 (unknown)">
  <metadata
     id="metadata55">
    <rdf:RDF>
      <cc:Work
         rdf:about="">
        <dc:format>image/svg+xml</dc:format>
        <dc:type
           rdf:resource="http://purl.org/dc/dcmitype/StillImage" />
        <dc:title></dc:title>
      </cc:Work>
    </rdf:RDF>
  </metadata>
  <defs
     id="defs53" />
  <sodipodi:namedview
     pagecolor="#ffffff"
     bordercolor="#666666"
     borderopacity="1"
     objecttolerance="10"
     gridtolerance="10"
     guidetolerance="10"
     inkscape:pageopacity="0"
     inkscape:pageshadow="2"
     inkscape:window-width="1366"
     inkscape:window-height="714"
     id="namedview51"
     showgrid="true"
     inkscape:zoom="1.84375"
     inkscape:cx="-109.28814"
     inkscape:cy="64"
     inkscape:window-x="0"
     inkscape:window-y="28"
     inkscape:window-maximized="1"
     inkscape:current-layer="svg49">
    <inkscape:grid
       type="xygrid"
       id="grid862" />
  </sodipodi:namedview>
  <filter
     id="a">
    <feGaussianBlur
       stdDeviation="2.0786429"
       id="feGaussianBlur2" />
  </filter>
  <radialGradient
     id="b"
     cx="109.42462"
     cy="127.15892"
     gradientTransform="matrix(1,0,0,0.9996653,-10.666668,1.336426)"
     gradientUnits="userSpaceOnUse"
     r="139.55859">
    <stop
       offset="0"
       stop-color="#b7b8b9"
       id="stop5" />
    <stop
       offset=".18851049"
       stop-color="#ececec"
       id="stop7" />
    <stop
       offset=".25718147"
       stop-color="#fafafa"
       id="stop9" />
    <stop
       offset=".30111277"
       stop-color="#fff"
       id="stop11" />
    <stop
       offset=".5313"
       stop-color="#fafafa"
       id="stop13" />
    <stop
       offset=".8449"
       stop-color="#ebecec"
       id="stop15" />
    <stop
       offset="1"
       stop-color="#e1e2e3"
       id="stop17" />
  </radialGradient>
  <clipPath
     id="c">
    <path
       d="M 0,0 H 128 V 128 H 0 Z"
       id="path20"
       inkscape:connector-curvature="0" />
  </clipPath>
  <g
     id="g882"
     transform="scale(0.1875)">
    <path
       style="opacity:0.55390296;filter:url(#a)"
       inkscape:connector-curvature="0"
       d="m 3.3333303,4.33341 0.04,116.69993 H 120.11326 l -0.04,-116.69993 z"
       id="path23" />
    <path
       style="fill:#ffffff"
       inkscape:connector-curvature="0"
       d="M 5.3333303,5.33341 V 117.33334 H 116.56951 l 0.83598,-0.004 0.008,-0.8398 -0.0802,-111.15613 z"
       id="path25" />
    <path
       style="fill:url(#b)"
       inkscape:connector-curvature="0"
       d="m 12.33333,10.93341 c -0.551,0 -1,0.449185 -1,1 l -0.18,99.57993 99.10993,0.02 c 0.69134,0 1.35,-1.06653 1.35,-1.84375 l -0.14,-97.55618 c 0,-0.550815 -0.448,-1 -1,-1 z"
       id="path27" />
    <g
       style="fill:#404040;fill-opacity:0.83921599"
       id="g41"
       transform="translate(-2.666664,-2.26659)">
      <path
         inkscape:connector-curvature="0"
         d="m -109.33327,18.266661 h 90.666611 v 5.333331 h -90.666611 z"
         transform="scale(-1,1)"
         id="path29" />
      <path
         inkscape:connector-curvature="0"
         d="m -109.33327,98.266609 h 90.666611 v 5.333331 h -90.666611 z"
         transform="scale(-1,1)"
         id="path31" />
      <path
         inkscape:connector-curvature="0"
         d="m -109.33327,34.266651 h 90.666611 v 5.333329 h -90.666611 z"
         transform="scale(-1,1)"
         id="path33" />
      <path
         inkscape:connector-curvature="0"
         d="m -109.33327,50.26664 h 90.666611 v 5.333328 h -90.666611 z"
         transform="scale(-1,1)"
         id="path35" />
      <path
         inkscape:connector-curvature="0"
         d="m -109.33327,66.266632 h 90.666611 v 5.333328 h -90.666611 z"
         transform="scale(-1,1)"
         id="path37" />
      <path
         inkscape:connector-curvature="0"
         d="m -109.33327,82.266617 h 90.666611 v 5.333333 h -90.666611 z"
         transform="scale(-1,1)"
         id="path39" />
    </g>
    <path
       style="fill:#ffbf80;fill-rule:evenodd"
       inkscape:connector-curvature="0"
       d="m 42.583336,21.829113 a 9.0631907,9.0631907 0 0 0 -7.632812,3.847656 c -3.796924,5.400937 -6.214554,10.982886 -6.734376,16.757813 -0.519821,5.774927 0.662662,11.052271 2.25,16.75 a 9.0631907,9.0631907 0 0 0 0.105469,0.349609 c 3.259062,10.110169 7.492415,17.542537 13.556641,22.826172 5.647654,4.920685 12.145214,7.557954 19.451172,10.251953 a 9.0631907,9.0631907 0 0 0 9.060547,9.029294 h 12.867187 a 9.0631907,9.0631907 0 0 0 9.052734,-9.468747 C 94.358291,87.686499 94.289027,81.435219 94.155602,75.612316 94.022176,69.789414 93.967704,64.835362 93.210289,60.57716 A 9.0631907,9.0631907 0 0 0 92.92318,59.415051 C 89.744825,49.433097 87.943492,45.339195 86.487633,42.739269 85.031774,40.139344 85.544822,41.851956 84.720055,38.942394 A 9.0631907,9.0631907 0 0 0 67.343102,38.735363 c -1.307993,4.228226 -1.54455,8.567508 -0.822266,12.179688 0.604899,3.025133 1.557909,5.28373 2.464844,7.511718 0.04032,0.574929 0.04112,1.204646 -0.01758,1.914063 -2.978878,-1.885053 -5.598175,-3.804385 -7.775391,-5.88086 -4.411853,-4.207711 -7.381357,-8.866774 -8.949219,-16.853515 -0.103703,-1.502944 -0.22058,-2.934464 -0.404297,-4.351563 -0.255538,-1.971095 -0.509765,-3.6875 -0.509765,-3.6875 a 9.0631907,9.0631907 0 0 0 -8.746092,-7.738281 z m 21.205078,65.970703 c -0.0068,-0.117124 0.0028,0.220285 -0.01953,0.685547 -2.56e-4,0.0053 -0.0017,0.01808 -0.002,0.02344 -0.0855,-0.476719 0.02494,-0.649107 0.02148,-0.708985 z"
       id="path43" />
    <path
       style="fill:#0066ff;fill-rule:evenodd"
       inkscape:connector-curvature="0"
       d="M 85.507955,92.579528 C 85.080186,83.060418 85.246584,67.54809 84.28921,62.165716 78.097541,42.720133 78.020794,48.536006 76.001855,41.413719 c -1.94666,6.292789 -0.29165,9.293039 1.94997,15.037659 1.021633,6.786647 -1.874818,14.713931 -2.924971,17.744533 C 59.921166,66.209082 47.124121,58.672217 43.339911,39.308434 c 0,-1.80456 -0.974986,-8.421142 -0.974986,-8.421142 -6.452409,9.178232 -6.151639,15.157635 -3.168691,25.864881 5.952573,18.465901 13.401143,22.276736 29.026358,27.970166 0.969211,0.288544 3.866985,0.402874 4.387429,1.503765 0.522797,0.851616 0.02813,4.216563 0.03034,6.353424 z"
       id="path45" />
  </g>
</svg>
