<?xml version="1.0" encoding="UTF-8" standalone="no"?>
<svg
   xmlns:dc="http://purl.org/dc/elements/1.1/"
   xmlns:cc="http://creativecommons.org/ns#"
   xmlns:rdf="http://www.w3.org/1999/02/22-rdf-syntax-ns#"
   xmlns:svg="http://www.w3.org/2000/svg"
   xmlns="http://www.w3.org/2000/svg"
   xmlns:xlink="http://www.w3.org/1999/xlink"
   xmlns:sodipodi="http://sodipodi.sourceforge.net/DTD/sodipodi-0.dtd"
   xmlns:inkscape="http://www.inkscape.org/namespaces/inkscape"
   height="24"
   width="24"
   version="1.1"
   id="svg47"
   sodipodi:docname="lc_wraptext.svg"
   inkscape:version="0.92.4 (unknown)"
   inkscape:export-filename="/home/rizmut/Dokumen/Rizmut/Github/libreoffice-style-karasa-jaga/build/next/cmd/lc_wraptext.png"
   inkscape:export-xdpi="96"
   inkscape:export-ydpi="96">
  <metadata
     id="metadata53">
    <rdf:RDF>
      <cc:Work
         rdf:about="">
        <dc:format>image/svg+xml</dc:format>
        <dc:type
           rdf:resource="http://purl.org/dc/dcmitype/StillImage" />
        <dc:title></dc:title>
      </cc:Work>
    </rdf:RDF>
  </metadata>
  <defs
     id="defs51">
    <radialGradient
       id="d"
       cx="26.169329"
       cy="277.12506"
       gradientTransform="matrix(0,-1,1.859301,0,-501.67715,315.00471)"
       gradientUnits="userSpaceOnUse"
       r="7.713275">
      <stop
         offset="0"
         stop-color="#fff"
         id="stop25" />
      <stop
         offset="1"
         stop-color="#fff"
         stop-opacity="0"
         id="stop27" />
    </radialGradient>
    <radialGradient
       id="e"
       cx="26.191305"
       cy="282.65869"
       gradientTransform="matrix(0,-1,1.859301,0,-501.67715,315.00471)"
       gradientUnits="userSpaceOnUse"
       r="7.713275">
      <stop
         offset="0"
         stop-color="#000914"
         id="stop30" />
      <stop
         offset="1"
         stop-color="#000b14"
         stop-opacity="0"
         id="stop32" />
    </radialGradient>
    <radialGradient
       id="f"
       cx="26.191305"
       cy="282.65869"
       gradientTransform="matrix(0,-3.7795276,7.0272794,0,-1896.1027,196.04935)"
       gradientUnits="userSpaceOnUse"
       r="7.713275">
      <stop
         offset="0"
         stop-color="#001331"
         id="stop35" />
      <stop
         offset="1"
         stop-color="#293e63"
         id="stop37" />
    </radialGradient>
    <radialGradient
       id="g"
       cx="23.94796"
       cy="285.60861"
       gradientTransform="matrix(-3.66e-6,-6.0343759,11.314473,-6.85e-6,-3126.7852,255.05919)"
       gradientUnits="userSpaceOnUse"
       r="7.713275">
      <stop
         offset="0"
         stop-color="#9abcee"
         id="stop40" />
      <stop
         offset="1"
         stop-color="#092042"
         id="stop42" />
    </radialGradient>
    <linearGradient
       id="k"
       gradientTransform="matrix(0,-3.7795276,3.7795276,0,-966.35964,203.70952)"
       gradientUnits="userSpaceOnUse"
       x1="21.083328"
       x2="28.78019"
       xlink:href="#i"
       y1="286.49692"
       y2="286.49692" />
    <linearGradient
       id="i">
      <stop
         offset="0"
         stop-color="#80f9ff"
         id="stop52" />
      <stop
         offset="1"
         stop-color="#80fff9"
         stop-opacity="0"
         id="stop54" />
    </linearGradient>
    <filter
       style="color-interpolation-filters:sRGB"
       id="m"
       height="1.032572"
       width="1.0299391"
       x="-0.014969"
       y="-0.016286001">
      <feGaussianBlur
         stdDeviation=".50113476"
         id="feGaussianBlur64" />
    </filter>
    <filter
       style="color-interpolation-filters:sRGB"
       id="j"
       height="1.018454"
       width="1.034312"
       x="-0.017155999"
       y="-0.0092270002">
      <feGaussianBlur
         stdDeviation=".11027288"
         id="feGaussianBlur57" />
    </filter>
    <filter
       style="color-interpolation-filters:sRGB"
       id="filter986"
       height="1.018454"
       width="1.034312"
       x="-0.017155999"
       y="-0.0092270002">
      <feGaussianBlur
         stdDeviation=".11027288"
         id="feGaussianBlur984" />
    </filter>
    <linearGradient
       id="n"
       gradientUnits="userSpaceOnUse"
       x1="104.72576"
       x2="157.08865"
       xlink:href="#h"
       y1="52.365238"
       y2="128.00053" />
    <linearGradient
       id="h">
      <stop
         offset="0"
         stop-color="#bfe7ff"
         id="stop45" />
      <stop
         offset="1"
         stop-color="#bff9ff"
         stop-opacity="0"
         id="stop47" />
    </linearGradient>
  </defs>
  <sodipodi:namedview
     pagecolor="#ffffff"
     bordercolor="#666666"
     borderopacity="1"
     objecttolerance="10"
     gridtolerance="10"
     guidetolerance="10"
     inkscape:pageopacity="0"
     inkscape:pageshadow="2"
     inkscape:window-width="1366"
     inkscape:window-height="714"
     id="namedview49"
     showgrid="true"
     inkscape:zoom="9.8333333"
     inkscape:cx="13.375665"
     inkscape:cy="4.5415361"
     inkscape:window-x="0"
     inkscape:window-y="28"
     inkscape:window-maximized="1"
     inkscape:current-layer="g1060">
    <inkscape:grid
       type="xygrid"
       id="grid860" />
  </sodipodi:namedview>
  <filter
     id="a">
    <feGaussianBlur
       stdDeviation="2.0786429"
       id="feGaussianBlur2" />
  </filter>
  <radialGradient
     id="b"
     cx="109.42462"
     cy="127.15892"
     gradientTransform="matrix(1 0 0 .9996653 -8.000004 3.603016)"
     gradientUnits="userSpaceOnUse"
     r="139.55859">
    <stop
       offset="0"
       stop-color="#b7b8b9"
       id="stop5" />
    <stop
       offset=".18851049"
       stop-color="#ececec"
       id="stop7" />
    <stop
       offset=".25718147"
       stop-color="#fafafa"
       id="stop9" />
    <stop
       offset=".30111277"
       stop-color="#fff"
       id="stop11" />
    <stop
       offset=".5313"
       stop-color="#fafafa"
       id="stop13" />
    <stop
       offset=".8449"
       stop-color="#ebecec"
       id="stop15" />
    <stop
       offset="1"
       stop-color="#e1e2e3"
       id="stop17" />
  </radialGradient>
  <g
     clip-path="none"
     transform="matrix(.1875 0 0 .1875 -.5 -.424986)"
     id="g45">
    <path
       d="m5.9999943 6.6.04 116.69993h116.7399257l-.04-116.69993z"
       filter="url(#a)"
       opacity=".553903"
       id="path23" />
    <path
       d="m7.9999943 7.6v111.99993h111.2361757l.83598-.004.008-.8398-.08023-111.15613z"
       fill="#fff"
       id="path25" />
    <path
       d="m14.999994 13.2c-.551 0-1 .449185-1 1l-.18 99.57993 99.109926.02c.69134 0 1.35-1.06653 1.35-1.84375l-.14-97.55618c0-.550815-.448-1-1-1z"
       fill="url(#b)"
       id="path27" />
    <g
       id="g1060"
       transform="matrix(0.171875,0,0,0.171875,12.874998,106.45557)">
      <g
         transform="matrix(-20.15748,0,0,20.15748,-59.392197,-5910.303)"
         id="g86"
         style="fill:#404040;fill-opacity:0.83921599">
        <path
           d="m -29.248399,269.29129 23.090909,0 v 1.53937 l -23.090909,0 z"
           id="path78"
           inkscape:connector-curvature="0"
           sodipodi:nodetypes="ccccc" />
        <path
           d="m -29.248399,273.90939 23.090909,0 v 1.53936 l -23.090909,0 z"
           id="path80"
           inkscape:connector-curvature="0"
           sodipodi:nodetypes="ccccc" />
        <path
           d="m -24.630281,278.52753 18.472791,0 v 1.53936 l -18.472791,0 z"
           id="path82"
           inkscape:connector-curvature="0"
           sodipodi:nodetypes="ccccc" />
        <path
           d="m -16.93342,283.14566 10.775931,0 v 1.53935 l -10.775931,0 z"
           id="path84"
           inkscape:connector-curvature="0"
           sodipodi:nodetypes="ccccc" />
      </g>
      <g
         transform="matrix(20.15748,0,0,20.15748,33.700117,-5856.5078)"
         id="g110">
        <g
           id="g98"
           style="fill:none">
          <path
             d="m 15.393552,289.30311 6.15766,-6.15747 v 4.61811 l 8.79198,0.004 -0.04204,3.10183 -0.56691,7e-4 v -7e-4 l -8.22649,-0.004 0.04346,4.59503 z"
             id="path92"
             style="stroke:url(#d);stroke-width:1.60000002"
             inkscape:connector-curvature="0" />
          <path
             d="m 15.393552,289.30311 6.15766,-6.15747 v 4.61811 l 8.79198,0.004 -0.04204,3.10183 -0.56691,7e-4 v -7e-4 l -8.22649,-0.004 0.04346,4.59503 z"
             id="path94"
             style="stroke:url(#e);stroke-width:1.60000002;stroke-linecap:round;stroke-linejoin:round"
             inkscape:connector-curvature="0" />
          <path
             d="M 93.089844,52.365234 V 64 h 11.636716 l 0.17969,29.089844 -23.453125,0.002 V 75.636719 l -23.271484,23.273437 23.271484,23.271484 -0.164063,-17.36719 31.091798,0.0156 v 0.002 l 2.14258,-0.002 v -0.10156 h 1.83789 V 64 52.365234 Z"
             transform="matrix(0.26458333,0,0,0.26458333,0,263.13332)"
             id="path96"
             style="stroke:url(#f);stroke-width:7.55905485;stroke-linecap:round;stroke-linejoin:round"
             inkscape:connector-curvature="0" />
        </g>
        <path
           d="M 93.089844,52.365234 V 64 h 11.636716 l 0.17969,29.089844 -23.453125,0.002 V 75.636719 l -23.271484,23.273437 23.271484,23.271484 -0.164063,-17.36719 31.091798,0.0156 v 0.002 l 2.14258,-0.002 v -0.10156 h 1.83789 V 64 52.365234 Z"
           transform="matrix(0.26458333,0,0,0.26458333,0,263.13332)"
           id="path100"
           style="fill:url(#g);fill-rule:evenodd"
           inkscape:connector-curvature="0" />
        <path
           d="m 116.46409,71.66025 0.18051,29.08958 -23.4536,10e-4 2.15e-4,-17.453691 -23.272625,23.272091 23.272151,23.27236 -0.164612,-17.36769 31.093021,0.0157 v 0.002 l 2.14258,-0.002 v -0.10156 h 1.83789 V 71.661624 Z"
           transform="matrix(0.26458333,0,0,0.26458333,-3.105581,261.10657)"
           id="path102"
           style="fill:none;stroke:url(#k);stroke-width:1.13385797;filter:url(#m)"
           inkscape:connector-curvature="0" />
        <path
           d="m 25.701618,274.1818 c -0.0771,5.27178 1.488081,8.50523 6.15746,6.15766 l -1.534042,1.45299 -3.084072,-1.453 -0.0039,8.79198 -3.101821,-0.0419 -7.07e-4,-0.56691 h 7.07e-4 l 0.0039,-8.22649 -2.984946,1.49788 -1.610105,-1.45443 z"
           transform="rotate(-90,28.108237,286.89645)"
           id="path104"
           inkscape:connector-curvature="0"
           style="fill:none;filter:url(#j)" />
        <path
           d="m 30.787194,280.06728 2.8e-4,10.77556 -1.538772,8.2e-4 0.04723,-2.10674 h 7.07e-4 l -1.587593,-8.67037 z"
           id="path106"
           inkscape:connector-curvature="0"
           style="fill:none;filter:url(#j)" />
        <path
           d="M 93.089844,52.365234 V 64 h 11.636716 11.63477 V 52.365234 Z M 104.72656,64 l 0.17969,28.115234 c 2.57628,-0.545877 9.09748,-5.140959 11.61328,-5.77539 l -0.1582,-22.337891 z m -23.273435,11.636719 -23.273437,23.271484 1.986328,1.814457 c 13.460848,0.33488 24.626557,-2.629824 39.892574,-7.648441 l -18.605465,0.01367 z"
           transform="matrix(0.26458333,0,0,0.26458333,0,263.13332)"
           id="path108"
           style="opacity:0.88599997;fill:url(#n)"
           inkscape:connector-curvature="0" />
      </g>
      <path
         d="m 250.91303,-109.71027 -186.185759,0 v 31.029412 l 186.185759,2e-6 z"
         id="path112"
         inkscape:connector-curvature="0"
         style="fill:#404040;fill-opacity:0.83921599;stroke-width:20.15748024"
         sodipodi:nodetypes="ccccc" />
      <path
         sodipodi:nodetypes="ccccc"
         style="fill:#404040;fill-opacity:0.83921599;stroke-width:20.15748024"
         inkscape:connector-curvature="0"
         id="path2323"
         d="M 250.91304,-16.61466 H 64.727284 v 31.029412 l 186.185756,2e-6 z" />
    </g>
  </g>
</svg>
