<?xml version="1.0" encoding="UTF-8" standalone="no"?>
<svg
   xmlns:dc="http://purl.org/dc/elements/1.1/"
   xmlns:cc="http://creativecommons.org/ns#"
   xmlns:rdf="http://www.w3.org/1999/02/22-rdf-syntax-ns#"
   xmlns:svg="http://www.w3.org/2000/svg"
   xmlns="http://www.w3.org/2000/svg"
   xmlns:xlink="http://www.w3.org/1999/xlink"
   xmlns:sodipodi="http://sodipodi.sourceforge.net/DTD/sodipodi-0.dtd"
   xmlns:inkscape="http://www.inkscape.org/namespaces/inkscape"
   enable-background="new 0 0 128 128"
   height="16"
   viewBox="0 0 16 16"
   width="16"
   version="1.1"
   id="svg237"
   sodipodi:docname="sc_accepttrackedchanges.svg"
   inkscape:export-filename="/home/rizmut/Dokumen/Rizmut/Github/libreoffice-style-karasa-jaga/build/next/cmd/sc_accepttrackedchanges.png"
   inkscape:export-xdpi="96"
   inkscape:export-ydpi="96"
   inkscape:version="0.92.4 (unknown)">
  <metadata
     id="metadata243">
    <rdf:RDF>
      <cc:Work
         rdf:about="">
        <dc:format>image/svg+xml</dc:format>
        <dc:type
           rdf:resource="http://purl.org/dc/dcmitype/StillImage" />
        <dc:title></dc:title>
      </cc:Work>
    </rdf:RDF>
  </metadata>
  <defs
     id="defs241">
    <radialGradient
       gradientUnits="userSpaceOnUse"
       gradientTransform="matrix(0.9792,0,0,0.9725,133.0002,20.8762)"
       r="55.147999"
       cy="-0.2148"
       cx="48"
       id="XMLID_4_">
      <stop
         id="stop3082"
         style="stop-color:#72D13D"
         offset="0" />
      <stop
         id="stop3084"
         style="stop-color:#35AC1C"
         offset="0.3553" />
      <stop
         id="stop3086"
         style="stop-color:#0F9508"
         offset="0.6194" />
      <stop
         id="stop3088"
         style="stop-color:#008C00"
         offset="0.7574" />
      <stop
         id="stop3090"
         style="stop-color:#007A00"
         offset="1" />
    </radialGradient>
    <radialGradient
       gradientUnits="userSpaceOnUse"
       gradientTransform="matrix(0.9792,0,0,0.9725,133.0002,20.8762)"
       r="55.147999"
       cy="-0.2148"
       cx="48"
       id="radialGradient980">
      <stop
         id="stop970"
         style="stop-color:#72D13D"
         offset="0" />
      <stop
         id="stop972"
         style="stop-color:#35AC1C"
         offset="0.3553" />
      <stop
         id="stop974"
         style="stop-color:#0F9508"
         offset="0.6194" />
      <stop
         id="stop976"
         style="stop-color:#008C00"
         offset="0.7574" />
      <stop
         id="stop978"
         style="stop-color:#007A00"
         offset="1" />
    </radialGradient>
    <linearGradient
       id="r-3"
       gradientUnits="userSpaceOnUse"
       x1="102.30765"
       x2="106.01008"
       y1="39.141762"
       y2="209.45338">
      <stop
         offset="0"
         stop-color="#99999c"
         id="stop1885" />
      <stop
         offset=".5"
         stop-color="#9c9ca1"
         id="stop1887" />
      <stop
         offset="1"
         stop-color="#cdcdd1"
         id="stop1889" />
    </linearGradient>
    <linearGradient
       id="j-6"
       gradientUnits="userSpaceOnUse"
       x1="78.610847"
       x2="120.3435"
       y1="88.852417"
       y2="111.54715">
      <stop
         offset="0"
         stop-color="#fff"
         id="stop1835" />
      <stop
         offset="1"
         stop-color="#ccc"
         id="stop1837" />
    </linearGradient>
    <linearGradient
       id="k-7"
       gradientUnits="userSpaceOnUse"
       x1="88.38102"
       x2="130.48599"
       y1="1008.9966"
       y2="1015.6953">
      <stop
         offset="0"
         stop-color="#7b7b7b"
         id="stop1840" />
      <stop
         offset="1"
         stop-color="#797979"
         stop-opacity="0"
         id="stop1842" />
    </linearGradient>
    <clipPath
       id="l-5">
      <path
         inkscape:connector-curvature="0"
         d="M 41.355614,933.74432 H 125.29961 V 1051.266 H 41.355614 Z"
         id="path1845" />
    </clipPath>
    <filter
       style="color-interpolation-filters:sRGB"
       id="m-3"
       height="1.073732"
       width="1.13754"
       x="-0.068769999"
       y="-0.036866002">
      <feGaussianBlur
         stdDeviation="1.0557314"
         id="feGaussianBlur1848" />
    </filter>
    <linearGradient
       id="n-5"
       gradientUnits="userSpaceOnUse"
       x1="98.40847"
       x2="115.25523"
       y1="30.758501"
       y2="77.140503">
      <stop
         offset="0"
         stop-color="#fff"
         stop-opacity=".683453"
         id="stop1851" />
      <stop
         offset="1"
         stop-color="#fff"
         stop-opacity="0"
         id="stop1853" />
    </linearGradient>
    <linearGradient
       id="o-6"
       gradientTransform="matrix(0.58291629,0,0,0.66676377,62.177025,-566.68964)"
       gradientUnits="userSpaceOnUse"
       x1="63.011921"
       x2="63.011921"
       y1="945.89801"
       y2="1033.1569">
      <stop
         offset="0"
         stop-color="#545454"
         stop-opacity=".988"
         id="stop1856" />
      <stop
         offset="1"
         stop-color="#ebebeb"
         id="stop1858" />
    </linearGradient>
    <linearGradient
       id="p-2"
       gradientTransform="matrix(0.48045402,0,0,0.66178602,128.73476,-578.51587)"
       gradientUnits="userSpaceOnUse"
       x1="-60.535713"
       x2="-60.357143"
       y1="979.50507"
       y2="1009.505">
      <stop
         offset="0"
         stop-color="#979797"
         id="stop1861" />
      <stop
         offset=".148461"
         stop-color="#f6f6f6"
         id="stop1863" />
      <stop
         offset=".28399727"
         stop-color="#e2e2e2"
         id="stop1865" />
      <stop
         offset=".41198727"
         stop-color="#dedede"
         id="stop1867" />
      <stop
         offset=".41198727"
         stop-color="#f6f6f6"
         id="stop1869" />
      <stop
         offset="1"
         stop-color="#6b6b6b"
         id="stop1871" />
    </linearGradient>
    <linearGradient
       id="q-9"
       gradientTransform="matrix(0.480454,0,0,0.58309338,128.76683,499.76645)"
       gradientUnits="userSpaceOnUse"
       x1="-61.078979"
       x2="-60.6413"
       y1="-1056.658"
       y2="-1010.9131">
      <stop
         offset="0"
         stop-color="#777"
         id="stop1874" />
      <stop
         offset=".18176934"
         stop-color="#a8a8a8"
         id="stop1876" />
      <stop
         offset=".22864534"
         stop-color="#cdcdcd"
         id="stop1878" />
      <stop
         offset=".34561315"
         stop-color="#f7f7f7"
         id="stop1880" />
      <stop
         offset="1"
         stop-color="#fff"
         id="stop1882" />
    </linearGradient>
  </defs>
  <sodipodi:namedview
     pagecolor="#ffffff"
     bordercolor="#666666"
     borderopacity="1"
     objecttolerance="10"
     gridtolerance="10"
     guidetolerance="10"
     inkscape:pageopacity="0"
     inkscape:pageshadow="2"
     inkscape:window-width="1366"
     inkscape:window-height="714"
     id="namedview239"
     showgrid="true"
     inkscape:zoom="30.125"
     inkscape:cx="8"
     inkscape:cy="8"
     inkscape:window-x="0"
     inkscape:window-y="28"
     inkscape:window-maximized="1"
     inkscape:current-layer="g237"
     showguides="false">
    <inkscape:grid
       type="xygrid"
       id="grid1050"
       spacingx="0.5"
       spacingy="0.5" />
  </sodipodi:namedview>
  <linearGradient
     id="a">
    <stop
       offset="0"
       stop-color="#fff"
       id="stop2" />
    <stop
       offset="1"
       stop-color="#fff"
       stop-opacity="0"
       id="stop4" />
  </linearGradient>
  <linearGradient
     id="b">
    <stop
       offset="0"
       stop-color="#fff"
       id="stop7" />
    <stop
       offset="1"
       stop-color="#252525"
       stop-opacity="0"
       id="stop9" />
  </linearGradient>
  <linearGradient
     id="c"
     gradientUnits="userSpaceOnUse"
     x1="85.219681"
     x2="61.336319"
     y1="93.219681"
     y2="69.336319">
    <stop
       offset="0"
       id="stop12" />
    <stop
       offset="1"
       stop-color="#393b38"
       id="stop14" />
  </linearGradient>
  <linearGradient
     id="d"
     gradientUnits="userSpaceOnUse"
     x1="96"
     x2="88.000198"
     y1="104"
     y2="96.000198">
    <stop
       offset="0"
       stop-color="#888a85"
       id="stop17" />
    <stop
       offset=".0072"
       stop-color="#8c8e89"
       id="stop19" />
    <stop
       offset=".0673"
       stop-color="#abaca9"
       id="stop21" />
    <stop
       offset=".1347"
       stop-color="#c5c6c4"
       id="stop23" />
    <stop
       offset=".2115"
       stop-color="#dbdbda"
       id="stop25" />
    <stop
       offset=".3012"
       stop-color="#ebebeb"
       id="stop27" />
    <stop
       offset=".4122"
       stop-color="#f7f7f6"
       id="stop29" />
    <stop
       offset=".5679"
       stop-color="#fdfdfd"
       id="stop31" />
    <stop
       offset="1"
       stop-color="#fff"
       id="stop33" />
  </linearGradient>
  <radialGradient
     id="e"
     cx="102"
     cy="112.3047"
     gradientTransform="matrix(0.9787234,0,0,0.9818182,1.361705,1.163636)"
     gradientUnits="userSpaceOnUse"
     r="139.55859">
    <stop
       offset="0"
       stop-color="#535557"
       id="stop36" />
    <stop
       offset=".11366145"
       stop-color="#898a8c"
       id="stop38" />
    <stop
       offset=".20296688"
       stop-color="#ececec"
       id="stop40" />
    <stop
       offset=".2363"
       stop-color="#fafafa"
       id="stop42" />
    <stop
       offset=".2722"
       stop-color="#fff"
       id="stop44" />
    <stop
       offset=".5313"
       stop-color="#fafafa"
       id="stop46" />
    <stop
       offset=".8449"
       stop-color="#ebecec"
       id="stop48" />
    <stop
       offset="1"
       stop-color="#e1e2e3"
       id="stop50" />
  </radialGradient>
  <radialGradient
     id="f"
     cx="102"
     cy="112.3047"
     gradientUnits="userSpaceOnUse"
     r="139.5585"
     gradientTransform="translate(-2e-6,-0.3638)">
    <stop
       offset="0"
       stop-color="#00537d"
       id="stop53" />
    <stop
       offset=".0151"
       stop-color="#186389"
       id="stop55" />
    <stop
       offset=".0558"
       stop-color="#558ca8"
       id="stop57" />
    <stop
       offset=".0964"
       stop-color="#89afc3"
       id="stop59" />
    <stop
       offset=".1357"
       stop-color="#b3ccd8"
       id="stop61" />
    <stop
       offset=".1737"
       stop-color="#d4e2e9"
       id="stop63" />
    <stop
       offset=".2099"
       stop-color="#ecf2f5"
       id="stop65" />
    <stop
       offset=".2435"
       stop-color="#fafcfd"
       id="stop67" />
    <stop
       offset=".2722"
       stop-color="#fff"
       id="stop69" />
  </radialGradient>
  <filter
     id="g">
    <feGaussianBlur
       stdDeviation="1.0394514"
       id="feGaussianBlur72" />
  </filter>
  <filter
     id="h">
    <feGaussianBlur
       stdDeviation=".50063244"
       id="feGaussianBlur75" />
  </filter>
  <filter
     id="i">
    <feGaussianBlur
       stdDeviation=".4901192"
       id="feGaussianBlur78" />
  </filter>
  <filter
     id="j">
    <feGaussianBlur
       stdDeviation=".90565481"
       id="feGaussianBlur81" />
  </filter>
  <filter
     id="k"
     height="1.247155"
     width="1.247155"
     x="-0.123577"
     y="-0.123577">
    <feGaussianBlur
       stdDeviation="1.7720846"
       id="feGaussianBlur84" />
  </filter>
  <filter
     id="l">
    <feGaussianBlur
       stdDeviation=".6715998"
       id="feGaussianBlur87" />
  </filter>
  <filter
     id="m">
    <feGaussianBlur
       stdDeviation=".31468463"
       id="feGaussianBlur90" />
  </filter>
  <linearGradient
     id="n"
     gradientTransform="matrix(1.3755238,0,0,1.8570645,-22.548199,-92.562977)"
     gradientUnits="userSpaceOnUse"
     x1="-7.734014"
     x2="110.05683"
     y1="105.19644"
     y2="81.818565">
    <stop
       offset="0"
       id="stop93" />
    <stop
       offset="1"
       stop-opacity="0"
       id="stop95" />
  </linearGradient>
  <radialGradient
     id="o"
     cx="42.617531"
     cy="120.64188"
     gradientTransform="matrix(1.909059,1.8392116,-8.6222515,7.5766472,1009.8522,-881.36145)"
     gradientUnits="userSpaceOnUse"
     r="3.406888">
    <stop
       offset="0"
       stop-color="#b4942a"
       id="stop98" />
    <stop
       offset="1"
       stop-color="#e4dcc9"
       id="stop100" />
  </radialGradient>
  <linearGradient
     id="p"
     gradientTransform="matrix(0.9986497,0,0,0.9998891,0.14044,0.005323)"
     gradientUnits="userSpaceOnUse"
     x1="75.848022"
     x2="81.452583"
     y1="72.804123"
     y2="77.047241">
    <stop
       offset="0"
       stop-color="#252525"
       id="stop103" />
    <stop
       offset=".5"
       stop-color="#252525"
       id="stop105" />
    <stop
       offset=".75"
       stop-color="#252525"
       id="stop107" />
    <stop
       offset="1"
       id="stop109" />
  </linearGradient>
  <linearGradient
     id="q"
     gradientTransform="matrix(0.9986497,0,0,0.9998891,0.14044,0.005323)"
     gradientUnits="userSpaceOnUse"
     x1="76.708534"
     x2="80.579521"
     y1="83.325729"
     y2="87.154587">
    <stop
       offset="0"
       stop-color="#d4a100"
       stop-opacity=".976471"
       id="stop112" />
    <stop
       offset="1"
       stop-color="#ffc712"
       id="stop114" />
  </linearGradient>
  <linearGradient
     id="r"
     gradientTransform="matrix(1.2875994,1.1737414,-0.5465891,0.6213041,81.686465,27.89447)"
     gradientUnits="userSpaceOnUse"
     x1="11.326384"
     x2="14.493531"
     y1="57.383999"
     y2="57.383999">
    <stop
       offset="0"
       stop-color="#9a7600"
       id="stop117" />
    <stop
       offset=".09292036"
       stop-color="#e3ad00"
       id="stop119" />
    <stop
       offset=".5043171"
       stop-color="#ffcd2c"
       id="stop121" />
    <stop
       offset=".91571385"
       stop-color="#e3ad00"
       id="stop123" />
    <stop
       offset="1"
       stop-color="#b98d00"
       id="stop125" />
  </linearGradient>
  <linearGradient
     id="s"
     gradientTransform="matrix(0.9992082,0,0,0.9993395,0.108362,-0.090375)"
     gradientUnits="userSpaceOnUse"
     x1="114.92793"
     x2="100.65602"
     y1="-22.560064"
     y2="-22.052734">
    <stop
       offset="0"
       stop-color="#980000"
       id="stop128" />
    <stop
       offset="1"
       stop-color="#db5c5c"
       id="stop130" />
  </linearGradient>
  <linearGradient
     id="t"
     gradientUnits="userSpaceOnUse"
     x1="-12.817558"
     x2="82.172836"
     y1="7.4622769"
     y2="7.4622769">
    <stop
       offset="0"
       stop-color="#fff"
       stop-opacity=".683453"
       id="stop133" />
    <stop
       offset="1"
       stop-color="#fff"
       stop-opacity="0"
       id="stop135" />
  </linearGradient>
  <radialGradient
     id="u"
     cx="34.677639"
     cy="7.4622769"
     gradientTransform="matrix(-1.5103,0.00264127,-1.1671e-4,-0.00911022,87.0522,7.438666)"
     gradientUnits="userSpaceOnUse"
     r="47.595196"
     xlink:href="#a" />
  <linearGradient
     id="v"
     gradientTransform="matrix(0.6182226,0,0,0.6232687,24.10803,47.993844)"
     gradientUnits="userSpaceOnUse"
     x1="33.342377"
     x2="24.450998"
     y1="117.83894"
     y2="107.35519">
    <stop
       offset="0"
       id="stop139" />
    <stop
       offset="1"
       stop-color="#515151"
       id="stop141" />
  </linearGradient>
  <linearGradient
     id="w"
     gradientTransform="matrix(1.6732108,1.5189394,-1.5009523,1.6928488,18.675678,-24.465565)"
     gradientUnits="userSpaceOnUse"
     x1="48.498562"
     x2="48.732723"
     xlink:href="#a"
     y1="0.81150502"
     y2="2.3657269" />
  <linearGradient
     id="x"
     gradientTransform="matrix(0.9973012,0,0,0.9997782,0.28069,0.010646)"
     gradientUnits="userSpaceOnUse"
     x1="92.226158"
     x2="96.579895"
     y1="54.119438"
     y2="57.15118">
    <stop
       offset="0"
       stop-color="#ea3838"
       id="stop145" />
    <stop
       offset="1"
       stop-color="#c40000"
       id="stop147" />
  </linearGradient>
  <radialGradient
     id="y"
     cx="49.011971"
     cy="2.6743081"
     gradientTransform="matrix(2.2600183,0,0,0.2752449,-2.259041,-25.415382)"
     gradientUnits="userSpaceOnUse"
     r="1.724619"
     xlink:href="#b" />
  <radialGradient
     id="z"
     cx="49.011971"
     cy="2.6743081"
     gradientTransform="matrix(1.550633,0,0,0.1873121,21.621938,-31.864287)"
     gradientUnits="userSpaceOnUse"
     r="1.724619"
     xlink:href="#b" />
  <radialGradient
     id="A"
     cx="49.011971"
     cy="2.6743081"
     gradientTransform="matrix(1.5495914,0,0,0.1876849,-193.24041,-23.535874)"
     gradientUnits="userSpaceOnUse"
     r="1.724619"
     xlink:href="#b" />
  <linearGradient
     id="B"
     gradientUnits="userSpaceOnUse"
     x1="86.930298"
     x2="84.432899"
     y1="47.931801"
     y2="132.43291"
     gradientTransform="matrix(0.98184565,0,0,0.98184565,-2.0286653,-2.0286653)">
    <stop
       offset="0"
       stop-color="#696571"
       id="stop153" />
    <stop
       offset="1"
       stop-color="#c7c4cb"
       id="stop155"
       style="stop-color:#958f9d;stop-opacity:1" />
  </linearGradient>
  <radialGradient
     id="C"
     cx="90.182343"
     cy="90.182343"
     gradientUnits="userSpaceOnUse"
     r="31.860937"
     gradientTransform="matrix(1.059302,0,0,1.059302,-9.0138615,-9.0138615)">
    <stop
       offset="0"
       stop-color="#fefefe"
       id="stop158" />
    <stop
       offset=".69008267"
       stop-color="#fefefe"
       stop-opacity=".905882"
       id="stop160" />
    <stop
       offset="1"
       stop-color="#ced0d1"
       stop-opacity=".8125"
       id="stop162" />
  </radialGradient>
  <g
     id="g237"
     transform="scale(0.125)">
    <g
       transform="translate(-4,0.3638)"
       id="g1069">
      <path
         style="opacity:0.71506898;filter:url(#g)"
         inkscape:connector-curvature="0"
         d="m 23,9 0.04082,112 H 84.172 c 0.53,0 1.039,-0.211 1.414,-0.586 L 118.414,87.586 C 118.789,87.211 119,86.702 119,86.172 V 9 Z"
         transform="matrix(1.0416667,0,0,1.0357143,-9.958333,-3.321534)"
         id="path165" />
      <path
         style="opacity:0.89589;filter:url(#h)"
         inkscape:connector-curvature="0"
         d="M 24.919999,10.931136 V 119.06907 l 58.676001,-1e-4 c 0.53,0 1.039,-0.211 1.414,-0.586 l 31.484,-31.765936 c 0.375,-0.375 0.586,-0.884 0.586,-1.414 V 10.931136 Z"
         transform="matrix(1.0416667,0,0,1.0357143,-9.958333,-3.321534)"
         id="path167" />
      <path
         style="opacity:0.83561599;filter:url(#g)"
         inkscape:connector-curvature="0"
         d="M 23,9.9655172 23.040816,121 H 84.172 c 0.53,0 1.039,-0.211 1.414,-0.586 13.296921,-8.21061 24.14086,-19.26784 32.828,-32.828 C 118.789,87.211 119,86.702 119,86.172 V 9.9655172 Z"
         transform="matrix(1.0416667,0,0,1.0357143,-9.958333,-3.321534)"
         id="path169" />
      <path
         inkscape:connector-curvature="0"
         style="fill:url(#f)"
         d="m 16,7.6362 v 112 h 61.172 c 0.53,0 1.039,-0.211 1.414,-0.586 l 32.828,-32.828 c 0.375,-0.375 0.586,-0.884 0.586,-1.414 V 7.6362 Z"
         id="path171" />
      <path
         inkscape:connector-curvature="0"
         style="fill:url(#e)"
         d="m 24.678725,16 c -0.539276,0 -0.978723,0.440836 -0.978723,0.981818 l 0.3,94.036362 c 0,0.54197 0.439447,0.98182 0.978723,0.98182 h 51.913022 c 0.257404,0 0.509915,-0.10407 0.691957,-0.28767 L 103.71323,85.4812 C 103.89626,85.2976 104,85.045273 104,84.787055 V 16.981818 C 104,16.440836 103.56153,16 103.02128,16 Z"
         id="path173" />
      <path
         style="fill:#ff6600"
         inkscape:connector-curvature="0"
         d="M 24,79.6362 H 84 V 95.2724 H 24 Z"
         id="path185" />
    </g>
    <g
       id="g227"
       transform="matrix(1.052736,0,0,1.052736,19.245214,-50.531328)">
      <g
         style="fill-rule:evenodd"
         id="g195">
        <path
           style="fill:#bf0000"
           inkscape:connector-curvature="0"
           id="path187"
           d="m 90.067703,48.28801 c 0.613642,-0.692125 4.648657,-0.363057 8.944253,3.536477 4.337724,3.937759 5.210074,7.748115 4.441394,8.615025 -0.5003,0.564284 -1.00061,1.128566 -1.50092,1.692851 -4.461914,-4.050501 -8.9238,-8.101002 -13.385691,-12.151503 0.500309,-0.564283 1.000624,-1.128565 1.500964,-1.69285 z" />
        <path
           style="fill:#b3925d"
           inkscape:connector-curvature="0"
           id="path189"
           d="m 36.000762,124 20.247,-9.42653 0.09417,-0.10772 -13.269004,-12.28446 -0.127672,0.1459 z" />
        <path
           inkscape:connector-curvature="0"
           style="fill:url(#n);filter:url(#l)"
           id="path191"
           d="m 97.750257,56.002191 c -1.025821,-0.04502 -1.882013,0.614542 -2.665637,0.986566 -4.174912,3.698786 -21.569273,21.653428 -22.000397,22.168708 l -17.273332,20.659839 -0.106627,0.116066 -9.682256,17.6334 23.598527,-5.26172 29.942357,-36.049248 3.589728,-4.294461 c 0.64726,-1.199814 1.23861,-7.813473 -1.74155,-12.76732 -1.452992,-2.415269 -2.634989,-3.146806 -3.660813,-3.19183 z m 5.402363,15.95915 c -0.0266,0.04924 -0.0446,0.143824 -0.0711,0.174098 -0.0129,0.01476 1.49247,-1.049396 0.6753,-0.870498 z" />
        <path
           inkscape:connector-curvature="0"
           style="fill:url(#o)"
           id="path193"
           d="m 37.004018,123.01573 18.885171,-8.78019 0.09416,-0.10769 -12.551842,-11.60866 -0.12769,0.14592 z" />
      </g>
      <path
         inkscape:connector-curvature="0"
         style="fill:url(#p)"
         id="path197"
         d="m 49.164276,108.94499 c 1.648961,1.50106 2.755448,1.51054 3.34488,2.0471 0.09525,0.0867 0.175312,0.18851 0.243795,0.29167 L 97.392942,60.017302 90.912418,54.117987 46.187555,105.48147 c 0.214748,0.0564 0.415855,0.13454 0.602285,0.30424 0.538767,0.49045 0.717813,1.65124 2.374436,3.15928 z" />
      <path
         style="opacity:0.35348804"
         inkscape:connector-curvature="0"
         id="path199"
         d="m 54.219542,109.12044 -1.750182,2.00168 c 0.538752,0.53092 0.431653,1.46553 1.421976,2.36702 1.067261,0.97156 1.630178,0.45849 2.321697,1.08447 l 1.771382,-2.02599 z" />
      <path
         inkscape:connector-curvature="0"
         style="fill:url(#q)"
         id="path201"
         d="M 97.156354,59.801933 52.550305,111.02955 c 0.541583,0.53354 0.517441,1.37742 1.512824,2.28353 1.072712,0.97652 1.555044,0.55628 2.250088,1.18547 L 100.94048,63.246681 Z" />
      <path
         style="opacity:0.386047;fill:#252525"
         inkscape:connector-curvature="0"
         id="path203"
         d="m 47.641192,104.81388 -0.897802,1.02682 -0.0345,0.0376 c 0.447512,0.42018 0.395724,1.39005 1.878296,2.86086 l 0.08229,0.0749 0.586334,0.53373 0.0823,0.0749 c 1.616252,1.35012 2.54668,1.16726 3.136095,1.7038 l 0.947655,-1.09585 z" />
      <path
         style="opacity:0.35348804;fill:#131313"
         inkscape:connector-curvature="0"
         id="path205"
         d="m 43.884886,101.37497 -0.940801,0.95531 c 0.02064,0.0187 -0.05311,0.1047 -0.03237,0.12358 0.423005,0.38509 0.412824,1.36825 1.189787,2.20191 l 0.072,0.0655 0.318878,0.29029 0.04115,0.0374 c 0.925767,0.72156 1.702344,0.46358 2.175362,0.82926 l 0.940872,-1.07609 z" />
      <path
         inkscape:connector-curvature="0"
         style="fill:url(#r)"
         id="path207"
         d="m 44.501995,104.6749 c 1.032229,0.92922 1.738227,0.6105 2.287845,1.11081 L 91.395905,54.558106 87.571444,51.076654 42.944168,102.32853 c 0.02096,0.019 0.04162,0.0379 0.06269,0.0571 0.42971,0.39116 0.455145,1.35294 1.495139,2.28929 z" />
      <path
         inkscape:connector-curvature="0"
         style="fill:url(#s)"
         id="path209"
         transform="matrix(0.7409346,0.6715772,-0.6655662,0.7463388,0,0)"
         d="m 99.380959,-24.64492 h 18.073061 v 4.252269 H 99.380959 Z" />
      <ellipse
         style="fill:url(#t);filter:url(#m)"
         id="ellipse211"
         transform="matrix(0.3854946,-0.4403693,-1.7345162,-1.5764895,62.874028,110.46407)"
         ry="0.97142202"
         rx="47.495197"
         cy="7.4622769"
         cx="34.677639" />
      <path
         inkscape:connector-curvature="0"
         style="fill:url(#u)"
         id="path213"
         transform="matrix(0.3184879,-0.3665274,-1.2576415,-1.1452705,66.925762,101.47904)"
         d="M 106.56087,7.4622769 A 71.883232,0.4230493 0 0 1 35.242273,7.8853132 71.883232,0.4230493 0 0 1 -37.196723,7.4689227 71.883232,0.4230493 0 0 1 32.983878,7.0393451 71.883232,0.4230493 0 0 1 106.52539,7.448987" />
      <path
         inkscape:connector-curvature="0"
         style="fill:url(#v);fill-rule:evenodd"
         id="path215"
         d="m 44.721041,119.98334 c -1.894932,-0.77816 -4.469372,-3.93608 -5.787909,-5.07837 l -2.933131,9.08971 z" />
      <path
         inkscape:connector-curvature="0"
         style="fill:url(#w);fill-rule:evenodd"
         id="path217"
         d="m 97.676422,50.957862 c 2.773338,2.157871 4.754818,5.136648 4.863888,5.422718 0.10904,0.286071 -2.586875,-3.046365 -4.878244,-4.572341 -2.273846,-1.514326 -5.450917,-1.552229 -5.685693,-1.736594 -0.234782,-0.184361 -1.822614,-1.877275 -0.38221,-1.814774 1.506596,0.06537 3.94013,1.035831 6.082259,2.700991 z" />
      <path
         inkscape:connector-curvature="0"
         style="fill:url(#x)"
         id="path219"
         d="m 93.653015,51.592952 -2.773744,3.218036 6.482458,5.873697 2.773741,-3.186793 z" />
      <path
         inkscape:connector-curvature="0"
         style="fill:url(#y)"
         id="path221"
         transform="matrix(0.7404161,0.6721488,-0.6634233,0.7482443,0,0)"
         d="m 104.60918,-25.364759 h 7.79523 v 1.708078 h -7.79523 z" />
      <path
         inkscape:connector-curvature="0"
         style="fill:url(#z)"
         id="path223"
         transform="matrix(0.6942228,0.7197602,-0.7693435,0.6388354,0,0)"
         d="m 94.946716,-31.829779 h 5.348454 v 1.162492 h -5.348454 z" />
      <path
         inkscape:connector-curvature="0"
         style="fill:url(#A)"
         id="path225"
         transform="matrix(-0.7514575,-0.6597815,-0.5893147,0.8079036,0,0)"
         d="m -119.96733,-23.501301 h 5.3449 v 1.164788 h -5.3449 z" />
    </g>
    <g
       id="g183"
       transform="translate(-4.4328975,-2.4328995)">
      <path
         id="path175"
         d="M 111.414,86.586 C 111.664,86.336 85.035,85 80,85 c -1.654,0 -3,1.346 -3,3 0,5.035 1.336,31.664 1.586,31.414 z"
         inkscape:connector-curvature="0"
         style="opacity:0.90684904;filter:url(#k)" />
      <path
         id="path177"
         d="M 111.414,86.586 C 111.789,86.211 89.444,86 80,86 c -1.103,0 -2,0.897 -2,2 0,9.444 0.211,31.789 0.586,31.414 z"
         inkscape:connector-curvature="0"
         style="opacity:0.2;filter:url(#j)" />
      <path
         id="path179"
         d="M 111.414,86.586 C 111.653,86.347 89.807,87 80,87 c -0.553,0 -1,0.447 -1,1 0,9.807 -0.653,31.653 -0.414,31.414 z"
         style="opacity:0.1;fill:url(#c);filter:url(#i)"
         inkscape:connector-curvature="0" />
      <path
         id="path181"
         d="m 78.586,119.414 c 0,0 11.914,-9.914 17.414,-15.414 5.5,-5.5 15.414,-17.414 15.414,-17.414 0,0 -21.164,1.414 -31.414,1.414 0,10.25 -1.414,31.414 -1.414,31.414 z"
         style="fill:url(#d)"
         inkscape:connector-curvature="0" />
    </g>
    <g
       id="g1928"
       transform="matrix(1.0803725,0,0,1.0803725,-10.530373,-10.287683)">
      <path
         id="path1912"
         d="M 68.985809,46.546616 H 127.9982 V 128.00006 H 68.985809 Z"
         inkscape:connector-curvature="0"
         style="fill:url(#r-3)" />
      <path
         id="path1914"
         d="M 76.390663,53.951469 H 120.81979 V 120.59515 H 76.390663 Z"
         inkscape:connector-curvature="0"
         style="fill:url(#j-6)" />
      <path
         id="path1916"
         transform="matrix(0.69309305,0,0,0.69309305,41.153912,-600.6251)"
         d="m 92.81509,1029.6319 c 1.071428,1.4286 10.71429,15.3572 11.78571,13.5715 1.07143,-1.7858 26.42857,-25.3572 25,-26.7858 -1.42857,-1.4285 -33.928567,-41.78567 -33.928567,-41.78567 z"
         clip-path="url(#l-5)"
         inkscape:connector-curvature="0"
         style="opacity:0.68000034;fill:url(#k-7);fill-rule:evenodd;filter:url(#m-3)" />
      <path
         id="path1918"
         transform="matrix(0.92560668,0,0,0.92560668,9.746984,9.522348)"
         d="M 72,48 V 96 C 86.790777,78.779066 106.04067,72.768069 120,70.5625 V 48 Z"
         inkscape:connector-curvature="0"
         style="fill:url(#n-5);fill-rule:evenodd" />
      <path
         id="path1920"
         d="M 83.795517,65.058746 H 113.41493 V 113.19029 H 83.795517 Z"
         inkscape:connector-curvature="0"
         style="fill:url(#o-6)" />
      <path
         id="path1922"
         d="M 87.497948,68.761177 H 109.71251 V 109.48787 H 87.497948 Z"
         inkscape:connector-curvature="0"
         style="fill:#535353" />
      <path
         id="path1924"
         d="M 91.200371,72.4636 H 106.01008 V 87.273309 H 91.200371 Z"
         inkscape:connector-curvature="0"
         style="fill:url(#p-2)" />
      <path
         id="path1926"
         transform="scale(1,-1)"
         d="m 91.200371,-116.89272 h 14.809719 v 29.619408 H 91.200371 Z"
         inkscape:connector-curvature="0"
         style="fill:url(#q-9)" />
    </g>
  </g>
</svg>
