<?xml version="1.0" encoding="UTF-8" standalone="no"?>
<svg
   xmlns:dc="http://purl.org/dc/elements/1.1/"
   xmlns:cc="http://creativecommons.org/ns#"
   xmlns:rdf="http://www.w3.org/1999/02/22-rdf-syntax-ns#"
   xmlns:svg="http://www.w3.org/2000/svg"
   xmlns="http://www.w3.org/2000/svg"
   xmlns:xlink="http://www.w3.org/1999/xlink"
   xmlns:sodipodi="http://sodipodi.sourceforge.net/DTD/sodipodi-0.dtd"
   xmlns:inkscape="http://www.inkscape.org/namespaces/inkscape"
   height="16"
   viewBox="0 0 4.2333333 4.2333335"
   width="16"
   version="1.1"
   id="svg20"
   sodipodi:docname="sc_bold.svg"
   inkscape:version="0.92.4 (unknown)"
   inkscape:export-filename="/home/rizmut/Dokumen/Rizmut/Github/libreoffice-style-karasa-jaga/build/next/cmd/sc_bold.png"
   inkscape:export-xdpi="96"
   inkscape:export-ydpi="96">
  <metadata
     id="metadata26">
    <rdf:RDF>
      <cc:Work
         rdf:about="">
        <dc:format>image/svg+xml</dc:format>
        <dc:type
           rdf:resource="http://purl.org/dc/dcmitype/StillImage" />
        <dc:title></dc:title>
      </cc:Work>
    </rdf:RDF>
  </metadata>
  <defs
     id="defs24">
    <linearGradient
       inkscape:collect="always"
       xlink:href="#b"
       id="linearGradient838"
       x1="62.089916"
       y1="-17.262213"
       x2="74.044228"
       y2="97.79245"
       gradientUnits="userSpaceOnUse" />
  </defs>
  <sodipodi:namedview
     pagecolor="#ffffff"
     bordercolor="#666666"
     borderopacity="1"
     objecttolerance="10"
     gridtolerance="10"
     guidetolerance="10"
     inkscape:pageopacity="0"
     inkscape:pageshadow="2"
     inkscape:window-width="1366"
     inkscape:window-height="706"
     id="namedview22"
     showgrid="true"
     inkscape:zoom="3.6874999"
     inkscape:cx="31.919249"
     inkscape:cy="-10.086444"
     inkscape:window-x="0"
     inkscape:window-y="0"
     inkscape:window-maximized="1"
     inkscape:current-layer="g4761">
    <inkscape:grid
       type="xygrid"
       id="grid4753" />
  </sodipodi:namedview>
  <linearGradient
     id="a"
     gradientUnits="userSpaceOnUse"
     x1="18.981823"
     x2="20.202982"
     y1="294.72055"
     y2="266.63391"
     gradientTransform="translate(-0.83344086,-263.09059)">
    <stop
       offset="0"
       stop-color="#555"
       id="stop2" />
    <stop
       offset="1"
       id="stop4" />
  </linearGradient>
  <linearGradient
     id="b"
     gradientUnits="userSpaceOnUse"
     x1="35.404884"
     x2="54.657333"
     y1="7.3243251"
     y2="81.814293"
     gradientTransform="scale(0.26458333)">
    <stop
       offset="0"
       stop-color="#3b3e22"
       id="stop7" />
    <stop
       offset="1"
       stop-color="#454545"
       stop-opacity="0"
       id="stop9" />
  </linearGradient>
  <g
     id="g4761"
     transform="scale(0.125)">
    <text
       style="font-size:40.61514282px;font-family:sans-serif;letter-spacing:0;word-spacing:0;fill:url(#a);stroke-width:1.015378"
       x="3.9615819"
       y="31.379633"
       id="text14">
      <tspan
         font-size="42.740532"
         font-weight="bold"
         x="3.9615819"
         y="31.379633"
         id="tspan12"
         style="font-weight:bold;font-size:42.74053192px;font-family:FreeSerif;fill:url(#a);stroke-width:1.015378">B</tspan>
    </text>
    <path
       id="path821"
       transform="scale(0.26458334)"
       d="m 37.544922,16.328125 c 1.15459,2.680257 1.808594,5.579512 1.808594,8.578125 v 51.035156 a 83.254235,55.864407 0 0 0 10.816406,0.533203 83.254235,55.864407 0 0 0 1.164062,-0.02734 V 63.189453 a 6.9357161,6.9357161 0 0 1 0.44336,-2.414062 6.9357161,6.9357161 0 0 1 -0.44336,-2.429688 V 22.160156 c 0,-1.933237 0.212644,-3.930714 0.8125,-5.832031 z m 48.896484,2.310547 c 2.647015,4.970071 3.957032,10.747375 3.957032,17.740234 0,5.607644 -0.973885,10.396839 -2.679688,14.666016 5.555762,-2.050129 9.886663,-4.182063 11.773438,-5.949219 2.506832,-2.450959 3.699222,-5.190518 3.699222,-9.847656 0,-6.246965 -1.96219,-9.701233 -7.640629,-13.125 a 6.9357161,6.9357161 0 0 1 -0.103515,-0.06641 c -2.281263,-1.430045 -5.54345,-2.477241 -9.00586,-3.417969 z m 2.007813,49.488281 c 0.37913,0.538123 0.737484,1.092641 1.083984,1.654297 a 83.254235,55.864407 0 0 0 1.832031,-0.705078 c -0.943533,-0.324757 -1.908554,-0.64425 -2.916015,-0.949219 z"
       style="opacity:1;vector-effect:none;fill:url(#linearGradient838);fill-opacity:1;stroke:none;stroke-width:1.22834647;stroke-linecap:butt;stroke-linejoin:miter;stroke-miterlimit:4;stroke-dasharray:none;stroke-dashoffset:0;stroke-opacity:1"
       inkscape:connector-curvature="0" />
  </g>
</svg>
