<svg height="16" viewBox="0 0 16 16" width="16" xmlns="http://www.w3.org/2000/svg" xmlns:xlink="http://www.w3.org/1999/xlink"><linearGradient id="a" gradientUnits="userSpaceOnUse" x1="1.000362" x2="14.999595" y1="7.999978" y2="7.999978"><stop offset="0" stop-color="#7c9fcf"/><stop offset=".5" stop-color="#7c9ece"/><stop offset="1" stop-color="#7b9dcf"/></linearGradient><linearGradient id="b" gradientUnits="userSpaceOnUse" x1="7.496458" x2="7.496458" y1="16.056298" y2="-.056342"><stop offset="0" stop-color="#fff"/><stop offset=".464286" stop-color="#fff"/><stop offset=".78125" stop-color="#f1f1f1"/><stop offset=".90625" stop-color="#eaeaea"/><stop offset="1" stop-color="#dfdfdf"/></linearGradient><path d="m2 1c-.550781 0-1 .449219-1 1v12c0 .550781.449219 1 1 1h12c.550781 0 1-.449219 1-1v-12c0-.550781-.449219-1-1-1zm4.640625 5h2.71875c.355469 0 .640625.316406.640625.707031v2.585938c0 .390625-.285156.707031-.640625.707031h-2.71875c-.355469 0-.640625-.316406-.640625-.707031v-2.585938c0-.390625.285156-.707031.640625-.707031zm0 0" fill="url(#a)"/><path d="m2 2v12h12v-12zm3 3h6v6h-6zm0 0" fill="url(#b)"/></svg>