<svg height="16" viewBox="0 0 16 16" width="16" xmlns="http://www.w3.org/2000/svg" xmlns:xlink="http://www.w3.org/1999/xlink"><filter id="a" height="100%" width="100%" x="0%" y="0%"><feColorMatrix in="SourceGraphic" type="matrix" values="0 0 0 0 1 0 0 0 0 1 0 0 0 0 1 0 0 0 1 0"/></filter><mask id="b"><g filter="url(#a)"><path d="m0 0h16v16h-16z" fill-opacity=".988235"/></g></mask><linearGradient id="c" gradientTransform="matrix(.184256 0 0 .193938 -.040153 -1.531787)" gradientUnits="userSpaceOnUse" x1="48" x2="46.5448" y1="68" y2="28"><stop offset="0" stop-color="#0968ef"/><stop offset="1" stop-color="#aecffc"/></linearGradient><clipPath id="d"><path d="m0 0h16v16h-16z"/></clipPath><mask id="e"><g filter="url(#a)"><path d="m0 0h16v16h-16z" fill-opacity=".988235"/></g></mask><clipPath id="f"><path d="m0 0h16v16h-16z"/></clipPath><linearGradient id="g"><stop offset="0" stop-color="#fd0000"/><stop offset="1" stop-color="#8f0000"/></linearGradient><linearGradient id="h" gradientUnits="userSpaceOnUse" x1="1.500003" x2="2" xlink:href="#g" y1=".605468" y2="5.105469"/><radialGradient id="i" cx="72.631729" cy="22.787588" gradientTransform="matrix(1.185546 0 0 1.185549 -84.608261 -22.910322)" gradientUnits="userSpaceOnUse" r="1.265237" xlink:href="#g"/><linearGradient id="j"><stop offset="0" stop-color="#fff"/><stop offset="1" stop-color="#fff" stop-opacity="0"/></linearGradient><linearGradient id="k" gradientUnits="userSpaceOnUse" x1=".951386" x2="1.645003" xlink:href="#j" y1="1.62873" y2="4.217344"/><linearGradient id="l" gradientUnits="userSpaceOnUse" x1="14.493753" x2="14.99375" xlink:href="#g" y1=".605468" y2="5.105469"/><radialGradient id="m" cx="72.631729" cy="22.787588" gradientTransform="matrix(1.185546 0 0 1.185549 -71.61451 -22.910322)" gradientUnits="userSpaceOnUse" r="1.265237" xlink:href="#g"/><linearGradient id="n" gradientUnits="userSpaceOnUse" x1="13.945136" x2="14.638753" xlink:href="#j" y1="1.62873" y2="4.217344"/><mask id="o"><g filter="url(#a)"><path d="m0 0h16v16h-16z" fill-opacity=".988235"/></g></mask><clipPath id="p"><path d="m0 0h16v16h-16z"/></clipPath><linearGradient id="q" gradientUnits="userSpaceOnUse" x1="8.000002" x2="8.499999" xlink:href="#g" y1="9.499999" y2="14"/><radialGradient id="r" cx="72.631729" cy="22.787588" gradientTransform="matrix(1.185546 0 0 1.185549 -78.108261 -14.015791)" gradientUnits="userSpaceOnUse" r="1.265237" xlink:href="#g"/><linearGradient id="s" gradientUnits="userSpaceOnUse" x1="7.451385" x2="8.145002" xlink:href="#j" y1="10.523261" y2="13.111875"/><mask id="t"><g filter="url(#a)"><path d="m0 0h16v16h-16z" fill-opacity=".988235"/></g></mask><clipPath id="u"><path d="m0 0h16v16h-16z"/></clipPath><mask id="v"><g filter="url(#a)"><path d="m0 0h16v16h-16z" fill-opacity=".988235"/></g></mask><clipPath id="w"><path d="m0 0h16v16h-16z"/></clipPath><g clip-path="url(#d)" mask="url(#b)"><path d="m1.03125 3.5v.011719h.28125c.273438 4.582031 3.214844 8.125 6.753906 8.125 3.539063-.003907 6.480469-3.542969 6.75-8.125h.152344v-.011719zm0 0" fill="url(#c)"/></g><g clip-path="url(#f)" mask="url(#e)"><path d="m.863281 3.515625c-.046875 0-.089843.019531-.121093.054687-.03125.035157-.046876.082032-.042969.132813.121093 2.179687.828125 4.300781 2.019531 5.902344 1.316406 1.761719 3.253906 2.878906 5.28125 2.878906s3.964844-1.117187 5.28125-2.878906c1.191406-1.601563 1.898438-3.722657 2.019531-5.902344.003907-.050781-.011719-.097656-.042969-.132813-.03125-.035156-.074218-.054687-.121093-.054687h-.714844c-.089844 0-.160156.070313-.164063.164063-.253906 4.429687-2.996093 7.816406-6.257812 7.820312-3.265625 0-6.007812-3.386719-6.261719-7.820312-.003906-.09375-.078125-.164063-.164062-.164063zm0 0" fill="#4d4d4d"/></g><path d="m.28125 2.105469h2.4375c.15625 0 .28125.125.28125.28125v2.4375c0 .15625-.125.28125-.28125.28125h-2.4375c-.15625 0-.28125-.125-.28125-.28125v-2.4375c0-.15625.125-.28125.28125-.28125zm0 0" fill="url(#h)"/><path d="m.6875 2.605469h1.625c.105469 0 .1875.082031.1875.1875v1.625c0 .105469-.082031.1875-.1875.1875h-1.625c-.105469 0-.1875-.082031-.1875-.1875v-1.625c0-.105469.082031-.1875.1875-.1875zm0 0" fill="url(#i)"/><path d="m.695312 2.605469c-.105468 0-.1875.082031-.1875.1875v.945312c.152344.015625.308594.023438.46875.023438.574219 0 1.105469-.097657 1.53125-.261719v-.707031c0-.105469-.085937-.1875-.1875-.1875zm0 0" fill="url(#k)"/><path d="m13.273438 2.105469h2.4375c.15625 0 .28125.125.28125.28125v2.4375c0 .15625-.125.28125-.28125.28125h-2.4375c-.152344 0-.28125-.125-.28125-.28125v-2.4375c0-.15625.128906-.28125.28125-.28125zm0 0" fill="url(#l)"/><path d="m13.679688 2.605469h1.625c.105468 0 .1875.082031.1875.1875v1.625c0 .105469-.082032.1875-.1875.1875h-1.625c-.101563 0-.1875-.082031-.1875-.1875v-1.625c0-.105469.085937-.1875.1875-.1875zm0 0" fill="url(#m)"/><path d="m13.6875 2.605469c-.105469 0-.1875.082031-.1875.1875v.945312c.152344.015625.308594.023438.46875.023438.578125 0 1.109375-.097657 1.53125-.261719v-.707031c0-.105469-.082031-.1875-.1875-.1875zm0 0" fill="url(#n)"/><g clip-path="url(#p)" mask="url(#o)"><path d="m3 12.5h10v.5h-10zm0 0" fill="#c80000"/></g><path d="m6.78125 11h2.4375c.15625 0 .28125.125.28125.28125v2.4375c0 .15625-.125.28125-.28125.28125h-2.4375c-.15625 0-.28125-.125-.28125-.28125v-2.4375c0-.15625.125-.28125.28125-.28125zm0 0" fill="url(#q)"/><path d="m7.1875 11.5h1.625c.105469 0 .1875.082031.1875.1875v1.625c0 .105469-.082031.1875-.1875.1875h-1.625c-.105469 0-.1875-.082031-.1875-.1875v-1.625c0-.105469.082031-.1875.1875-.1875zm0 0" fill="url(#r)"/><path d="m7.195312 11.5c-.105468 0-.1875.082031-.1875.1875v.945312c.152344.015626.308594.023438.46875.023438.574219 0 1.105469-.097656 1.53125-.261719v-.707031c0-.105469-.085937-.1875-.1875-.1875zm0 0" fill="url(#s)"/><g clip-path="url(#u)" mask="url(#t)"><path d="m.5 11.5v2.5h2.5v-2.5zm.5.5h1.5v1.5h-1.5zm0 0" fill="#c80000"/></g><g clip-path="url(#w)" mask="url(#v)"><path d="m13 11.5v2.5h2.5v-2.5zm.5.5h1.5v1.5h-1.5zm0 0" fill="#c80000"/></g></svg>