<svg height="16" viewBox="0 0 16 16" width="16" xmlns="http://www.w3.org/2000/svg" xmlns:xlink="http://www.w3.org/1999/xlink"><linearGradient id="a" gradientUnits="userSpaceOnUse" x1=".637644" x2="15.362339" y1="7.953045" y2="7.953045"><stop offset="0" stop-color="#7c9fcf"/><stop offset=".5" stop-color="#7c9ece"/><stop offset="1" stop-color="#7b9dcf"/></linearGradient><linearGradient id="b" gradientUnits="userSpaceOnUse" x1="8.000013" x2="8.000013" y1="14.777348" y2="1.047812"><stop offset="0" stop-color="#fff"/><stop offset=".4375" stop-color="#fff"/><stop offset=".71875" stop-color="#f1f1f1"/><stop offset=".84375" stop-color="#eaeaea"/><stop offset="1" stop-color="#dfdfdf"/></linearGradient><path d="m8.027344.902344c-.21875-.007813-.4375.0625-.617188.191406l-6.359375 4.617188c-.351562.257812-.5.710937-.363281 1.125l2.425781 7.472656c.136719.414062.523438.695312.957031.695312h7.859376c.433593 0 .820312-.28125.953124-.695312l2.429688-7.472656c.136719-.414063-.011719-.867188-.363281-1.121094l-6.359375-4.621094c-.164063-.117188-.359375-.1875-.5625-.191406zm0 0" fill="url(#a)"/><path d="m11.929688 14h-7.859376l-2.429687-7.476562 6.359375-4.617188 6.359375 4.621094zm0 0" fill="url(#b)"/></svg>