<svg height="16" viewBox="0 0 16 16" width="16" xmlns="http://www.w3.org/2000/svg" xmlns:xlink="http://www.w3.org/1999/xlink"><linearGradient id="a"><stop offset="0" stop-color="#7c9fcf"/><stop offset=".5" stop-color="#7c9ece"/><stop offset="1" stop-color="#7b9dcf"/></linearGradient><linearGradient id="b" gradientUnits="userSpaceOnUse" x1="1.958405" x2="13.996101" xlink:href="#a" y1="8.941095" y2="8.941095"/><linearGradient id="c"><stop offset="0" stop-color="#fff"/><stop offset=".464286" stop-color="#fff"/><stop offset=".78125" stop-color="#f1f1f1"/><stop offset=".90625" stop-color="#eaeaea"/><stop offset="1" stop-color="#dfdfdf"/></linearGradient><linearGradient id="d" gradientUnits="userSpaceOnUse" x1="2.954618" x2="13" xlink:href="#c" y1="9.315758" y2="9.315758"/><linearGradient id="e" gradientUnits="userSpaceOnUse" x1="1.983887" x2="14.017823" xlink:href="#a" y1="2.901856" y2="2.901856"/><linearGradient id="f" gradientUnits="userSpaceOnUse" x1="3.001671" x2="13" xlink:href="#c" y1="2.901839" y2="2.901839"/><path d="m12.972656 2.097656c-.371094.007813-.707031.226563-.867187.558594-.003907.003906-.019531.027344-.089844.070312-.15625.085938-.457031.203126-.847656.304688-.777344.195312-1.914063.332031-3.175781.332031-1.261719 0-2.390626-.132812-3.164063-.332031-.386719-.097656-.6875-.214844-.84375-.300781-.070313-.042969-.089844-.070313-.09375-.070313-.464844-.941406-1.878906-.613281-1.886719.4375l-.023437 10.167969c-.007813.039063-.019531.074219-.023438.109375v.0625c.003907.039062.015625.074219.023438.113281v.222657c0 .46875.324219.871093.777343.972656.539063.390625 1.175782.574218 1.945313.738281.933594.195313 2.050781.300781 3.261719.300781 1.214844 0 2.332031-.105468 3.269531-.304687.773437-.160157 1.410156-.34375 1.949219-.734375.457031-.097656.789062-.503906.789062-.972656v-.21875c.003906-.035157.015625-.070313.019532-.105469 0-.023438 0-.042969 0-.0625-.003907-.039063-.015626-.078125-.019532-.113281l.023438-10.179688c0-.5625-.460938-1.011719-1.023438-.996094zm0 0" fill="url(#b)"/><path d="m13 3.839844c-.210938.722656-2.347656 1.269531-5.007812 1.269531-2.65625 0-4.773438-.542969-4.992188-1.261719l-.023438 9.457032c-.015624.035156-.019531.074218-.023437.109374.003906.039063.007813.078126.023437.113282v.246094h.15625c.597657.605468 2.527344 1.015624 4.832032 1.015624 2.308594 0 4.25-.414062 4.847656-1.015624h.164062v-.253907c.011719-.035156.015626-.070312.019532-.109375 0-.039062-.007813-.074218-.019532-.113281zm0 0" fill="url(#d)"/><path d="m7.992188.503906c-1.480469 0-2.796876.15625-3.824219.449219-.511719.144531-.953125.3125-1.347657.574219-.390624.261718-.835937.707031-.835937 1.382812 0 .679688.449219 1.128906.839844 1.386719.394531.257813.835937.425781 1.347656.566406 1.027344.285157 2.34375.4375 3.820313.4375 1.476562 0 2.796874-.15625 3.828124-.4375.511719-.140625.957032-.308593 1.351563-.566406.394531-.261719.847656-.707031.847656-1.386719 0-.679687-.453125-1.128906-.84375-1.386718-.394531-.261719-.839843-.429688-1.355469-.574219-1.027343-.289063-2.347656-.445313-3.828124-.445313zm0 0" fill="url(#e)"/><path d="m13 2.910156c0 .761719-2.203125 1.371094-5.007812 1.371094-2.808594 0-4.992188-.605469-4.992188-1.371094 0-.761718 2.183594-1.386718 4.992188-1.386718 2.804687 0 5.007812.625 5.007812 1.386718zm0 0" fill="url(#f)"/></svg>