<svg height="16" viewBox="0 0 16 16" width="16" xmlns="http://www.w3.org/2000/svg" xmlns:xlink="http://www.w3.org/1999/xlink"><linearGradient id="a" gradientUnits="userSpaceOnUse" x1="1.000488" x2="14.999511" y1="8" y2="8"><stop offset="0" stop-color="#7c9fcf"/><stop offset=".5" stop-color="#7c9ece"/><stop offset="1" stop-color="#7b9dcf"/></linearGradient><linearGradient id="b" gradientUnits="userSpaceOnUse" x1="7.496458" x2="7.320332" y1="16.056298" y2="2.318651"><stop offset="0" stop-color="#fff"/><stop offset=".464286" stop-color="#fff"/><stop offset=".78125" stop-color="#f1f1f1"/><stop offset=".90625" stop-color="#eaeaea"/><stop offset="1" stop-color="#dfdfdf"/></linearGradient><path d="m4 3c-1.644531 0-3 1.355469-3 3v4c0 1.644531 1.355469 3 3 3h8c1.644531 0 3-1.355469 3-3v-4c0-1.644531-1.355469-3-3-3zm0 0" fill="url(#a)"/><path d="m4 4c-1.109375 0-2 .890625-2 2v4c0 1.109375.890625 2 2 2h8c1.109375 0 2-.890625 2-2v-4c0-1.109375-.890625-2-2-2zm0 0" fill="url(#b)"/></svg>