<?xml version="1.0" encoding="UTF-8" standalone="no"?>
<svg
   xmlns:dc="http://purl.org/dc/elements/1.1/"
   xmlns:cc="http://creativecommons.org/ns#"
   xmlns:rdf="http://www.w3.org/1999/02/22-rdf-syntax-ns#"
   xmlns:svg="http://www.w3.org/2000/svg"
   xmlns="http://www.w3.org/2000/svg"
   xmlns:xlink="http://www.w3.org/1999/xlink"
   xmlns:sodipodi="http://sodipodi.sourceforge.net/DTD/sodipodi-0.dtd"
   xmlns:inkscape="http://www.inkscape.org/namespaces/inkscape"
   height="16"
   viewBox="0 0 16 16"
   width="16"
   version="1.1"
   id="svg90"
   sodipodi:docname="sc_bezier_unfilled.svg"
   inkscape:version="0.92.4 (unknown)"
   inkscape:export-filename="/home/rizmut/Dokumen/Rizmut/Github/libreoffice-style-karasa-jaga/build/next/cmd/sc_bezier_unfilled.png"
   inkscape:export-xdpi="96"
   inkscape:export-ydpi="96">
  <metadata
     id="metadata96">
    <rdf:RDF>
      <cc:Work
         rdf:about="">
        <dc:format>image/svg+xml</dc:format>
        <dc:type
           rdf:resource="http://purl.org/dc/dcmitype/StillImage" />
      </cc:Work>
    </rdf:RDF>
  </metadata>
  <defs
     id="defs94" />
  <sodipodi:namedview
     pagecolor="#ffffff"
     bordercolor="#666666"
     borderopacity="1"
     objecttolerance="10"
     gridtolerance="10"
     guidetolerance="10"
     inkscape:pageopacity="0"
     inkscape:pageshadow="2"
     inkscape:window-width="1366"
     inkscape:window-height="706"
     id="namedview92"
     showgrid="true"
     inkscape:snap-global="true"
     inkscape:zoom="32"
     inkscape:cx="8.0066817"
     inkscape:cy="7.9648337"
     inkscape:window-x="-1"
     inkscape:window-y="-1"
     inkscape:window-maximized="0"
     inkscape:current-layer="svg90">
    <inkscape:grid
       type="xygrid"
       id="grid903" />
  </sodipodi:namedview>
  <filter
     id="a"
     height="100%"
     width="100%"
     x="0%"
     y="0%">
    <feColorMatrix
       in="SourceGraphic"
       type="matrix"
       values="0 0 0 0 1 0 0 0 0 1 0 0 0 0 1 0 0 0 1 0"
       id="feColorMatrix2" />
  </filter>
  <mask
     id="b">
    <g
       filter="url(#a)"
       id="g7">
      <path
         d="m0 0h16v16h-16z"
         fill-opacity=".988235"
         id="path5" />
    </g>
  </mask>
  <clipPath
     id="c">
    <path
       d="m0 0h16v16h-16z"
       id="path10" />
  </clipPath>
  <linearGradient
     id="d">
    <stop
       offset="0"
       stop-color="#fd0000"
       id="stop13" />
    <stop
       offset="1"
       stop-color="#8f0000"
       id="stop15" />
  </linearGradient>
  <linearGradient
     id="e"
     gradientUnits="userSpaceOnUse"
     x1="1.500003"
     x2="2"
     xlink:href="#d"
     y1=".605468"
     y2="5.105469"
     gradientTransform="translate(0,-0.10169492)" />
  <radialGradient
     id="f"
     cx="72.631729"
     cy="22.787588"
     gradientTransform="matrix(1.185546,0,0,1.185549,-84.608261,-23.012017)"
     gradientUnits="userSpaceOnUse"
     r="1.265237"
     xlink:href="#d" />
  <linearGradient
     id="g">
    <stop
       offset="0"
       stop-color="#fff"
       id="stop20" />
    <stop
       offset="1"
       stop-color="#fff"
       stop-opacity="0"
       id="stop22" />
  </linearGradient>
  <linearGradient
     id="h"
     gradientUnits="userSpaceOnUse"
     x1=".951386"
     x2="1.645003"
     xlink:href="#g"
     y1="1.62873"
     y2="4.217344"
     gradientTransform="translate(0,-0.10169492)" />
  <linearGradient
     id="i"
     gradientUnits="userSpaceOnUse"
     x1="14.493753"
     x2="14.99375"
     xlink:href="#d"
     y1=".605468"
     y2="5.105469"
     gradientTransform="translate(0,-0.10169492)" />
  <radialGradient
     id="j"
     cx="72.631729"
     cy="22.787588"
     gradientTransform="matrix(1.185546,0,0,1.185549,-71.61451,-23.012017)"
     gradientUnits="userSpaceOnUse"
     r="1.265237"
     xlink:href="#d" />
  <linearGradient
     id="k"
     gradientUnits="userSpaceOnUse"
     x1="13.945136"
     x2="14.638753"
     xlink:href="#g"
     y1="1.62873"
     y2="4.217344"
     gradientTransform="translate(0,-0.10169492)" />
  <mask
     id="l">
    <g
       filter="url(#a)"
       id="g31">
      <path
         d="m0 0h16v16h-16z"
         fill-opacity=".988235"
         id="path29" />
    </g>
  </mask>
  <clipPath
     id="m">
    <path
       d="m0 0h16v16h-16z"
       id="path34" />
  </clipPath>
  <linearGradient
     id="n"
     gradientUnits="userSpaceOnUse"
     x1="8.000002"
     x2="8.499999"
     xlink:href="#d"
     y1="9.499999"
     y2="14"
     gradientTransform="translate(0.486415,-0.04091888)" />
  <radialGradient
     id="o"
     cx="72.631729"
     cy="22.787588"
     gradientTransform="matrix(1.185546,0,0,1.185549,-77.621846,-14.05671)"
     gradientUnits="userSpaceOnUse"
     r="1.265237"
     xlink:href="#d" />
  <linearGradient
     id="p"
     gradientUnits="userSpaceOnUse"
     x1="7.451385"
     x2="8.145002"
     xlink:href="#g"
     y1="10.523261"
     y2="13.111875"
     gradientTransform="translate(0.486415,-0.04091888)" />
  <mask
     id="q">
    <g
       filter="url(#a)"
       id="g42">
      <path
         d="m0 0h16v16h-16z"
         fill-opacity=".988235"
         id="path40" />
    </g>
  </mask>
  <clipPath
     id="r">
    <path
       d="m0 0h16v16h-16z"
       id="path45" />
  </clipPath>
  <mask
     id="s">
    <g
       filter="url(#a)"
       id="g50">
      <path
         d="m0 0h16v16h-16z"
         fill-opacity=".988235"
         id="path48" />
    </g>
  </mask>
  <clipPath
     id="t">
    <path
       d="m0 0h16v16h-16z"
       id="path53" />
  </clipPath>
  <g
     id="g955">
    <rect
       y="12"
       x="4"
       height="1"
       width="9"
       id="rect923"
       style="fill:#c80000;fill-opacity:0.98431373;stroke:none" />
    <path
       sodipodi:nodetypes="cccccccccc"
       inkscape:connector-curvature="0"
       id="rect914"
       d="m 1,11 v 3 h 3 v -3 z m 1,1 h 1 v 1 H 2 Z"
       style="fill:#c80000;fill-opacity:0.98431373;stroke:none" />
    <g
       transform="translate(0,-0.10169492)"
       id="g58"
       mask="url(#b)"
       clip-path="url(#c)">
      <path
         sodipodi:nodetypes="scccscccsscccss"
         style="fill:#4d4d4d"
         inkscape:connector-curvature="0"
         id="path56"
         d="m 1.7494551,3.6044834 c -0.046875,0 -0.089843,0.019531 -0.121093,0.054687 -0.03125,0.035157 -0.046876,0.082032 -0.042969,0.132813 0.121093,2.179687 0.828125,4.300781 2.019531,5.902344 1.316406,1.7617186 2.8471263,2.8619566 4.8744703,2.8619566 2.0273436,0 3.4854496,-1.189096 4.8018556,-2.950815 1.191406,-1.601563 1.898438,-3.722657 2.019531,-5.902344 0.0039,-0.050781 -0.01172,-0.097656 -0.04297,-0.132813 -0.03125,-0.035156 -0.07422,-0.054687 -0.121093,-0.054687 h -0.714844 c -0.08984,0 -0.160156,0.070313 -0.164063,0.164063 -0.253905,4.429687 -2.516698,7.888315 -5.7784166,7.892221 -3.265625,0 -5.6010323,-3.3697696 -5.8549393,-7.8033626 -0.00391,-0.09375 -0.078125,-0.164063 -0.164062,-0.164063 z" />
    </g>
    <g
       transform="translate(1)"
       id="g908">
      <path
         d="m 0.28125,2.0037741 h 2.4375 c 0.15625,0 0.28125,0.125 0.28125,0.28125 v 2.4375 c 0,0.15625 -0.125,0.28125 -0.28125,0.28125 H 0.28125 C 0.125,5.0037741 0,4.8787741 0,4.7225241 v -2.4375 c 0,-0.15625 0.125,-0.28125 0.28125,-0.28125 z m 0,0"
         id="path60"
         style="fill:url(#e)"
         inkscape:connector-curvature="0" />
      <path
         d="m 0.6875,2.5037741 h 1.625 c 0.105469,0 0.1875,0.082031 0.1875,0.1875 v 1.625 c 0,0.105469 -0.082031,0.1875 -0.1875,0.1875 h -1.625 c -0.105469,0 -0.1875,-0.082031 -0.1875,-0.1875 v -1.625 c 0,-0.105469 0.082031,-0.1875 0.1875,-0.1875 z m 0,0"
         id="path62"
         style="fill:url(#f)"
         inkscape:connector-curvature="0" />
      <path
         d="m 0.695312,2.5037741 c -0.105468,0 -0.1875,0.082031 -0.1875,0.1875 v 0.945312 c 0.152344,0.015625 0.308594,0.023438 0.46875,0.023438 0.574219,0 1.105469,-0.097657 1.53125,-0.261719 v -0.707031 c 0,-0.105469 -0.085937,-0.1875 -0.1875,-0.1875 z m 0,0"
         id="path64"
         style="fill:url(#h)"
         inkscape:connector-curvature="0" />
    </g>
    <g
       id="g930">
      <path
         d="m 13.273438,2.0037741 h 2.4375 c 0.15625,0 0.28125,0.125 0.28125,0.28125 v 2.4375 c 0,0.15625 -0.125,0.28125 -0.28125,0.28125 h -2.4375 c -0.152344,0 -0.28125,-0.125 -0.28125,-0.28125 v -2.4375 c 0,-0.15625 0.128906,-0.28125 0.28125,-0.28125 z m 0,0"
         id="path66"
         style="fill:url(#i)"
         inkscape:connector-curvature="0" />
      <path
         d="m 13.679688,2.5037741 h 1.625 c 0.105468,0 0.1875,0.082031 0.1875,0.1875 v 1.625 c 0,0.105469 -0.08203,0.1875 -0.1875,0.1875 h -1.625 c -0.101563,0 -0.1875,-0.082031 -0.1875,-0.1875 v -1.625 c 0,-0.105469 0.08594,-0.1875 0.1875,-0.1875 z m 0,0"
         id="path68"
         style="fill:url(#j)"
         inkscape:connector-curvature="0" />
      <path
         d="m 13.6875,2.5037741 c -0.105469,0 -0.1875,0.082031 -0.1875,0.1875 v 0.945312 c 0.152344,0.015625 0.308594,0.023438 0.46875,0.023438 0.578125,0 1.109375,-0.097657 1.53125,-0.261719 v -0.707031 c 0,-0.105469 -0.08203,-0.1875 -0.1875,-0.1875 z m 0,0"
         id="path70"
         style="fill:url(#k)"
         inkscape:connector-curvature="0" />
    </g>
    <g
       id="g935">
      <path
         d="m 7.2676649,10.959081 h 2.4375 c 0.15625,0 0.28125,0.125 0.28125,0.28125 v 2.4375 c 0,0.15625 -0.125,0.28125 -0.28125,0.28125 h -2.4375 c -0.15625,0 -0.28125,-0.125 -0.28125,-0.28125 v -2.4375 c 0,-0.15625 0.125,-0.28125 0.28125,-0.28125 z m 0,0"
         id="path76"
         style="fill:url(#n)"
         inkscape:connector-curvature="0" />
      <path
         d="m 7.6739149,11.459081 h 1.625 c 0.105469,0 0.1875,0.08203 0.1875,0.1875 v 1.625 c 0,0.105469 -0.082031,0.1875 -0.1875,0.1875 h -1.625 c -0.105469,0 -0.1875,-0.08203 -0.1875,-0.1875 v -1.625 c 0,-0.105469 0.082031,-0.1875 0.1875,-0.1875 z m 0,0"
         id="path78"
         style="fill:url(#o)"
         inkscape:connector-curvature="0" />
      <path
         d="m 7.6817269,11.459081 c -0.105468,0 -0.1875,0.08203 -0.1875,0.1875 v 0.945312 c 0.152344,0.01563 0.308594,0.02344 0.46875,0.02344 0.574219,0 1.105469,-0.09766 1.53125,-0.261719 v -0.707031 c 0,-0.105469 -0.085937,-0.1875 -0.1875,-0.1875 z m 0,0"
         id="path80"
         style="fill:url(#p)"
         inkscape:connector-curvature="0" />
    </g>
    <g
       transform="translate(-0.01694915,-0.01694916)"
       id="g84"
       mask="url(#q)"
       clip-path="url(#r)" />
    <path
       style="fill:#c80000;fill-opacity:0.98431373;stroke:none"
       d="m 13,11 v 3 h 3 v -3 z m 1,1 h 1 v 1 h -1 z"
       id="path925"
       inkscape:connector-curvature="0"
       sodipodi:nodetypes="cccccccccc" />
  </g>
</svg>
