<svg height="16" viewBox="0 0 16 16" width="16" xmlns="http://www.w3.org/2000/svg" xmlns:xlink="http://www.w3.org/1999/xlink"><linearGradient id="a" gradientUnits="userSpaceOnUse" x1=".086765" x2="15.913375" y1="8.001168" y2="8.001168"><stop offset="0" stop-color="#7c9fcf"/><stop offset=".5" stop-color="#7c9ece"/><stop offset="1" stop-color="#7b9dcf"/></linearGradient><linearGradient id="b" gradientUnits="userSpaceOnUse" x1="8" x2="8.034534" y1="16" y2=".222913"><stop offset="0" stop-color="#fff"/><stop offset=".464286" stop-color="#fff"/><stop offset=".78125" stop-color="#f1f1f1"/><stop offset=".90625" stop-color="#eaeaea"/><stop offset="1" stop-color="#dfdfdf"/></linearGradient><path d="m8.042969 1.015625c-.367188-.015625-.714844.171875-.898438.492187l-6.925781 12.003907c-.1757812.304687-.1757812.679687 0 .984375.175781.304687.5.492187.851562.492187l13.859376-.003906c.351562 0 .675781-.1875.851562-.492187.175781-.304688.175781-.679688 0-.984376l-6.929688-12c-.167968-.289062-.472656-.476562-.808593-.492187zm0 0" fill="url(#a)"/><path d="m14.929688 14-13.859376.003906 6.929688-12.003906zm0 0" fill="url(#b)"/></svg>