<svg height="16" viewBox="0 0 16 16" width="16" xmlns="http://www.w3.org/2000/svg" xmlns:xlink="http://www.w3.org/1999/xlink"><linearGradient id="a" gradientUnits="userSpaceOnUse" x1=".076202" x2="15.923798" y1="8" y2="8"><stop offset="0" stop-color="#7c9fcf"/><stop offset=".5" stop-color="#7c9ece"/><stop offset="1" stop-color="#7b9dcf"/></linearGradient><linearGradient id="b" gradientUnits="userSpaceOnUse" x1="8" x2="8" y1="16" y2="0"><stop offset="0" stop-color="#fff"/><stop offset=".464286" stop-color="#fff"/><stop offset=".78125" stop-color="#f1f1f1"/><stop offset=".90625" stop-color="#eaeaea"/><stop offset="1" stop-color="#dfdfdf"/></linearGradient><path d="m4.542969 1c-.355469 0-.683594.191406-.859375.496094l-3.472656 6c-.179688.308594-.179688.683594-.003907.992187l3.460938 6.007813c.175781.304687.503906.496094.859375.496094l6.933594.007812c.351562 0 .679687-.191406.859374-.496094l3.46875-6c.179688-.308594.179688-.683594.003907-.992187l-3.460938-6.007813c-.175781-.304687-.503906-.496094-.859375-.496094zm0 0" fill="url(#a)"/><path d="m11.460938 14.007812-6.933594-.007812-3.460938-6.007812 3.472656-6 6.933594.007812 3.460938 6.007812zm0 0" fill="url(#b)"/></svg>