<svg height="16pt" viewBox="0 0 16 16" width="16pt" xmlns="http://www.w3.org/2000/svg" xmlns:xlink="http://www.w3.org/1999/xlink"><linearGradient id="a" gradientUnits="userSpaceOnUse" x1="8.000031" x2="8.000031" y1="15.237147" y2=".762907"><stop offset="0" stop-color="#7c9fcf"/><stop offset=".5" stop-color="#7c9ece"/><stop offset="1" stop-color="#7b9dcf"/></linearGradient><linearGradient id="b" gradientUnits="userSpaceOnUse" x1="8.000031" x2="8.000031" y1="15.237147" y2=".762907"><stop offset="0" stop-color="#fff"/><stop offset=".506438" stop-color="#fff"/><stop offset=".822961" stop-color="#f1f1f1"/><stop offset=".90625" stop-color="#eaeaea"/><stop offset="1" stop-color="#dfdfdf"/></linearGradient><path d="m8 2c-2.019531 0-4.035156.582031-5.53125 1.652344-1.496094 1.066406-2.46875 2.671875-2.46875 4.347656s.972656 3.277344 2.46875 4.347656c1.496094 1.070313 3.511719 1.652344 5.53125 1.652344s4.035156-.582031 5.53125-1.652344c1.496094-1.070312 2.46875-2.671875 2.46875-4.347656 0-.335938-.042969-.671875-.117188-1h-6.882812v-4.949219c-.332031-.03125-.664062-.050781-1-.050781zm0 0" fill="url(#a)"/><path d="m8 3c-3.867188 0-7 2.238281-7 5s3.132812 5 7 5 7-2.238281 7-5h-7zm0 0" fill="url(#b)"/></svg>