<svg height="16pt" viewBox="0 0 16 16" width="16pt" xmlns="http://www.w3.org/2000/svg" xmlns:xlink="http://www.w3.org/1999/xlink"><linearGradient id="a" gradientUnits="userSpaceOnUse" x1="1" x2="15" y1="8.499907" y2="8.499907"><stop offset="0" stop-color="#7c9fcf"/><stop offset=".5" stop-color="#7c9ece"/><stop offset="1" stop-color="#7b9dcf"/></linearGradient><linearGradient id="b" gradientUnits="userSpaceOnUse" x1="9.833573" x2="9.833573" y1="25.333347" y2="-4.000413"><stop offset="0" stop-color="#fff"/><stop offset=".59375" stop-color="#fff"/><stop offset=".84375" stop-color="#f1f1f1"/><stop offset=".90625" stop-color="#eaeaea"/><stop offset="1" stop-color="#dfdfdf"/></linearGradient><path d="m4 1c-1.644531 0-3 1.355469-3 3v5c0 1.125.644531 2.105469 1.574219 2.617188l-1.46875 2.9375c-.210938.417968-.097657.925781.265625 1.222656.367187.296875.886718.296875 1.253906.003906l4.726562-3.78125h4.648438c1.644531 0 3-1.355469 3-3v-5c0-1.644531-1.355469-3-3-3zm0 0" fill="url(#a)"/><path d="m4 2c-1.109375 0-2 .890625-2 2v5c0 1.109375.890625 2 2 2l-2 4 5-4h5c1.109375 0 2-.890625 2-2v-5c0-1.109375-.890625-2-2-2zm0 0" fill="url(#b)"/></svg>