<svg height="16pt" viewBox="0 0 16 16" width="16pt" xmlns="http://www.w3.org/2000/svg" xmlns:xlink="http://www.w3.org/1999/xlink"><linearGradient id="a" gradientUnits="userSpaceOnUse" x1="0" x2="16" y1="8.499907" y2="8.499907"><stop offset="0" stop-color="#7c9fcf"/><stop offset=".5" stop-color="#7c9ece"/><stop offset="1" stop-color="#7b9dcf"/></linearGradient><linearGradient id="b" gradientUnits="userSpaceOnUse" x1="9.833573" x2="9.833573" y1="25.333347" y2="-4.000413"><stop offset="0" stop-color="#fff"/><stop offset=".59375" stop-color="#fff"/><stop offset=".84375" stop-color="#f1f1f1"/><stop offset=".90625" stop-color="#eaeaea"/><stop offset="1" stop-color="#dfdfdf"/></linearGradient><path d="m8 1c-2 0-3.996094.515625-5.492188 1.476562-1.496093.960938-2.507812 2.4375-2.507812 4.023438 0 1.746094 1.230469 3.316406 2.984375 4.292969l-1.878906 3.761719c-.210938.417968-.097657.925781.265625 1.222656.367187.296875.886718.296875 1.253906.003906l4.769531-3.816406c.203125.011718.402344.035156.601563.035156h.003906c2 0 3.996094-.515625 5.492188-1.476562 1.496093-.960938 2.507812-2.4375 2.507812-4.023438s-1.011719-3.0625-2.507812-4.023438c-1.496094-.960937-3.492188-1.476562-5.492188-1.476562zm0 0" fill="url(#a)"/><path d="m8 2c-3.867188 0-7 2.015625-7 4.5 0 1.472656 1.121094 2.851562 3 3.691406v.808594l-2 4 5-4-.21875-.074219c.402344.046875.808594.074219 1.21875.074219 3.867188 0 7-2.015625 7-4.5s-3.132812-4.5-7-4.5zm0 0" fill="url(#b)"/></svg>