<svg height="16pt" viewBox="0 0 16 16" width="16pt" xmlns="http://www.w3.org/2000/svg" xmlns:xlink="http://www.w3.org/1999/xlink"><linearGradient id="a"><stop offset="0" stop-color="#7c9fcf"/><stop offset=".5" stop-color="#7c9ece"/><stop offset="1" stop-color="#7b9dcf"/></linearGradient><linearGradient id="b" gradientUnits="userSpaceOnUse" x1="4.000008" x2="16.000033" xlink:href="#a" y1="6.000015" y2="6.000015"/><linearGradient id="c" gradientTransform="matrix(.122394 0 0 .124296 -.103237 -1.014585)" gradientUnits="userSpaceOnUse" x1="87.32769" x2="91.570328" y1="106.07969" y2="-17.663994"><stop offset="0" stop-color="#fff"/><stop offset=".425971" stop-color="#fff"/><stop offset=".589278" stop-color="#f1f1f1"/><stop offset=".802198" stop-color="#eaeaea"/><stop offset="1" stop-color="#dfdfdf"/></linearGradient><linearGradient id="d" gradientTransform="matrix(.123101 .021706 -.021706 .123101 2.57043 .049906)" gradientUnits="userSpaceOnUse" x1="0" x2="8" xlink:href="#a" y1="72" y2="72"/><linearGradient id="e" gradientUnits="userSpaceOnUse" x1="2.223133" x2="5" xlink:href="#a" y1="2.509761" y2="2.509761"/><path d="m4.75 0c-.414062 0-.75.335938-.75.75v10.5c0 .414062.335938.75.75.75h10.5c.414062 0 .75-.335938.75-.75v-10.5c0-.414062-.335938-.75-.75-.75zm0 0" fill="url(#b)"/><path d="m5 1h10v10h-10zm0 0" fill="url(#c)"/><path d="m2.222656 2.019531.984375.171875-2.429687 13.789063-.984375-.171875zm0 0" fill="url(#d)"/><path d="m2.222656 2.019531h2.777344v.980469h-2.777344zm0 0" fill="url(#e)"/></svg>