<?xml version="1.0" encoding="UTF-8" standalone="no"?>
<svg
   xmlns:dc="http://purl.org/dc/elements/1.1/"
   xmlns:cc="http://creativecommons.org/ns#"
   xmlns:rdf="http://www.w3.org/1999/02/22-rdf-syntax-ns#"
   xmlns:svg="http://www.w3.org/2000/svg"
   xmlns="http://www.w3.org/2000/svg"
   xmlns:xlink="http://www.w3.org/1999/xlink"
   xmlns:sodipodi="http://sodipodi.sourceforge.net/DTD/sodipodi-0.dtd"
   xmlns:inkscape="http://www.inkscape.org/namespaces/inkscape"
   height="16"
   viewBox="0 0 16 16"
   width="16"
   version="1.1"
   id="svg90"
   sodipodi:docname="sc_changebezier.svg"
   inkscape:version="0.92.4 (unknown)"
   inkscape:export-filename="/home/rizmut/Dokumen/Rizmut/Github/libreoffice-style-karasa-jaga/build/next/cmd/sc_changebezier.png"
   inkscape:export-xdpi="96"
   inkscape:export-ydpi="96">
  <metadata
     id="metadata96">
    <rdf:RDF>
      <cc:Work
         rdf:about="">
        <dc:format>image/svg+xml</dc:format>
        <dc:type
           rdf:resource="http://purl.org/dc/dcmitype/StillImage" />
        <dc:title></dc:title>
      </cc:Work>
    </rdf:RDF>
  </metadata>
  <defs
     id="defs94">
    <filter
       style="color-interpolation-filters:sRGB"
       id="e-3"
       height="1.306617"
       width="1.43589"
       x="-0.21794499"
       y="-0.153309">
      <feGaussianBlur
         stdDeviation="3.1542391"
         id="feGaussianBlur22" />
    </filter>
    <linearGradient
       id="f-6"
       gradientUnits="userSpaceOnUse"
       x1="32.81356"
       x2="28.745762"
       y1="44.474575"
       y2="19.254236">
      <stop
         offset="0"
         stop-color="#070707"
         id="stop25" />
      <stop
         offset="1"
         stop-color="#474747"
         id="stop27" />
    </linearGradient>
  </defs>
  <sodipodi:namedview
     pagecolor="#ffffff"
     bordercolor="#666666"
     borderopacity="1"
     objecttolerance="10"
     gridtolerance="10"
     guidetolerance="10"
     inkscape:pageopacity="0"
     inkscape:pageshadow="2"
     inkscape:window-width="1366"
     inkscape:window-height="706"
     id="namedview92"
     showgrid="true"
     inkscape:snap-global="true"
     inkscape:zoom="22.627417"
     inkscape:cx="10.158182"
     inkscape:cy="10.106359"
     inkscape:window-x="-1"
     inkscape:window-y="-1"
     inkscape:window-maximized="0"
     inkscape:current-layer="svg90">
    <inkscape:grid
       type="xygrid"
       id="grid903" />
  </sodipodi:namedview>
  <filter
     id="a"
     height="100%"
     width="100%"
     x="0%"
     y="0%">
    <feColorMatrix
       in="SourceGraphic"
       type="matrix"
       values="0 0 0 0 1 0 0 0 0 1 0 0 0 0 1 0 0 0 1 0"
       id="feColorMatrix2" />
  </filter>
  <mask
     id="b">
    <g
       filter="url(#a)"
       id="g7">
      <path
         d="m0 0h16v16h-16z"
         fill-opacity=".988235"
         id="path5" />
    </g>
  </mask>
  <clipPath
     id="c">
    <path
       d="m0 0h16v16h-16z"
       id="path10" />
  </clipPath>
  <linearGradient
     id="d">
    <stop
       offset="0"
       stop-color="#fd0000"
       id="stop13" />
    <stop
       offset="1"
       stop-color="#8f0000"
       id="stop15" />
  </linearGradient>
  <linearGradient
     id="e"
     gradientUnits="userSpaceOnUse"
     x1="1.500003"
     x2="2"
     xlink:href="#d"
     y1=".605468"
     y2="5.105469"
     gradientTransform="translate(0,-0.10169492)" />
  <radialGradient
     id="f"
     cx="72.631729"
     cy="22.787588"
     gradientTransform="matrix(1.185546,0,0,1.185549,-84.608261,-23.012017)"
     gradientUnits="userSpaceOnUse"
     r="1.265237"
     xlink:href="#d" />
  <linearGradient
     id="g">
    <stop
       offset="0"
       stop-color="#fff"
       id="stop20" />
    <stop
       offset="1"
       stop-color="#fff"
       stop-opacity="0"
       id="stop22" />
  </linearGradient>
  <linearGradient
     id="h"
     gradientUnits="userSpaceOnUse"
     x1=".951386"
     x2="1.645003"
     xlink:href="#g"
     y1="1.62873"
     y2="4.217344"
     gradientTransform="translate(0,-0.10169492)" />
  <linearGradient
     id="i"
     gradientUnits="userSpaceOnUse"
     x1="14.493753"
     x2="14.99375"
     xlink:href="#d"
     y1=".605468"
     y2="5.105469"
     gradientTransform="translate(0,-0.10169492)" />
  <radialGradient
     id="j"
     cx="72.631729"
     cy="22.787588"
     gradientTransform="matrix(1.185546,0,0,1.185549,-71.61451,-23.012017)"
     gradientUnits="userSpaceOnUse"
     r="1.265237"
     xlink:href="#d" />
  <linearGradient
     id="k"
     gradientUnits="userSpaceOnUse"
     x1="13.945136"
     x2="14.638753"
     xlink:href="#g"
     y1="1.62873"
     y2="4.217344"
     gradientTransform="translate(0,-0.10169492)" />
  <mask
     id="l">
    <g
       filter="url(#a)"
       id="g31">
      <path
         d="m0 0h16v16h-16z"
         fill-opacity=".988235"
         id="path29" />
    </g>
  </mask>
  <clipPath
     id="m">
    <path
       d="m0 0h16v16h-16z"
       id="path34" />
  </clipPath>
  <linearGradient
     id="n"
     gradientUnits="userSpaceOnUse"
     x1="8.000002"
     x2="8.499999"
     xlink:href="#d"
     y1="9.499999"
     y2="14"
     gradientTransform="translate(0.486415,-0.04091888)" />
  <radialGradient
     id="o"
     cx="72.631729"
     cy="22.787588"
     gradientTransform="matrix(1.185546,0,0,1.185549,-77.621846,-14.05671)"
     gradientUnits="userSpaceOnUse"
     r="1.265237"
     xlink:href="#d" />
  <linearGradient
     id="p"
     gradientUnits="userSpaceOnUse"
     x1="7.451385"
     x2="8.145002"
     xlink:href="#g"
     y1="10.523261"
     y2="13.111875"
     gradientTransform="translate(0.486415,-0.04091888)" />
  <mask
     id="q">
    <g
       filter="url(#a)"
       id="g42">
      <path
         d="m0 0h16v16h-16z"
         fill-opacity=".988235"
         id="path40" />
    </g>
  </mask>
  <clipPath
     id="r">
    <path
       d="m0 0h16v16h-16z"
       id="path45" />
  </clipPath>
  <mask
     id="s">
    <g
       filter="url(#a)"
       id="g50">
      <path
         d="m0 0h16v16h-16z"
         fill-opacity=".988235"
         id="path48" />
    </g>
  </mask>
  <clipPath
     id="t">
    <path
       d="m0 0h16v16h-16z"
       id="path53" />
  </clipPath>
  <g
     id="g955"
     transform="translate(-1,-2)">
    <rect
       y="12"
       x="4"
       height="1"
       width="9"
       id="rect923"
       style="fill:#c80000;fill-opacity:0.98431373;stroke:none" />
    <path
       sodipodi:nodetypes="cccccccccc"
       inkscape:connector-curvature="0"
       id="rect914"
       d="m 1,11 v 3 h 3 v -3 z m 1,1 h 1 v 1 H 2 Z"
       style="fill:#c80000;fill-opacity:0.98431373;stroke:none" />
    <g
       transform="translate(0,-0.10169492)"
       id="g58"
       mask="url(#b)"
       clip-path="url(#c)">
      <path
         sodipodi:nodetypes="scccscccsscccss"
         style="fill:#4d4d4d"
         inkscape:connector-curvature="0"
         id="path56"
         d="m 1.7494551,3.6044834 c -0.046875,0 -0.089843,0.019531 -0.121093,0.054687 -0.03125,0.035157 -0.046876,0.082032 -0.042969,0.132813 0.121093,2.179687 0.828125,4.300781 2.019531,5.902344 1.316406,1.7617186 2.8471263,2.8619566 4.8744703,2.8619566 2.0273436,0 3.4854496,-1.189096 4.8018556,-2.950815 1.191406,-1.601563 1.898438,-3.722657 2.019531,-5.902344 0.0039,-0.050781 -0.01172,-0.097656 -0.04297,-0.132813 -0.03125,-0.035156 -0.07422,-0.054687 -0.121093,-0.054687 h -0.714844 c -0.08984,0 -0.160156,0.070313 -0.164063,0.164063 -0.253905,4.429687 -2.516698,7.888315 -5.7784166,7.892221 -3.265625,0 -5.6010323,-3.3697696 -5.8549393,-7.8033626 -0.00391,-0.09375 -0.078125,-0.164063 -0.164062,-0.164063 z" />
    </g>
    <g
       transform="translate(1)"
       id="g908">
      <path
         d="m 0.28125,2.0037741 h 2.4375 c 0.15625,0 0.28125,0.125 0.28125,0.28125 v 2.4375 c 0,0.15625 -0.125,0.28125 -0.28125,0.28125 H 0.28125 C 0.125,5.0037741 0,4.8787741 0,4.7225241 v -2.4375 c 0,-0.15625 0.125,-0.28125 0.28125,-0.28125 z m 0,0"
         id="path60"
         style="fill:url(#e)"
         inkscape:connector-curvature="0" />
      <path
         d="m 0.6875,2.5037741 h 1.625 c 0.105469,0 0.1875,0.082031 0.1875,0.1875 v 1.625 c 0,0.105469 -0.082031,0.1875 -0.1875,0.1875 h -1.625 c -0.105469,0 -0.1875,-0.082031 -0.1875,-0.1875 v -1.625 c 0,-0.105469 0.082031,-0.1875 0.1875,-0.1875 z m 0,0"
         id="path62"
         style="fill:url(#f)"
         inkscape:connector-curvature="0" />
      <path
         d="m 0.695312,2.5037741 c -0.105468,0 -0.1875,0.082031 -0.1875,0.1875 v 0.945312 c 0.152344,0.015625 0.308594,0.023438 0.46875,0.023438 0.574219,0 1.105469,-0.097657 1.53125,-0.261719 v -0.707031 c 0,-0.105469 -0.085937,-0.1875 -0.1875,-0.1875 z m 0,0"
         id="path64"
         style="fill:url(#h)"
         inkscape:connector-curvature="0" />
    </g>
    <g
       id="g930">
      <path
         d="m 13.273438,2.0037741 h 2.4375 c 0.15625,0 0.28125,0.125 0.28125,0.28125 v 2.4375 c 0,0.15625 -0.125,0.28125 -0.28125,0.28125 h -2.4375 c -0.152344,0 -0.28125,-0.125 -0.28125,-0.28125 v -2.4375 c 0,-0.15625 0.128906,-0.28125 0.28125,-0.28125 z m 0,0"
         id="path66"
         style="fill:url(#i)"
         inkscape:connector-curvature="0" />
      <path
         d="m 13.679688,2.5037741 h 1.625 c 0.105468,0 0.1875,0.082031 0.1875,0.1875 v 1.625 c 0,0.105469 -0.08203,0.1875 -0.1875,0.1875 h -1.625 c -0.101563,0 -0.1875,-0.082031 -0.1875,-0.1875 v -1.625 c 0,-0.105469 0.08594,-0.1875 0.1875,-0.1875 z m 0,0"
         id="path68"
         style="fill:url(#j)"
         inkscape:connector-curvature="0" />
      <path
         d="m 13.6875,2.5037741 c -0.105469,0 -0.1875,0.082031 -0.1875,0.1875 v 0.945312 c 0.152344,0.015625 0.308594,0.023438 0.46875,0.023438 0.578125,0 1.109375,-0.097657 1.53125,-0.261719 v -0.707031 c 0,-0.105469 -0.08203,-0.1875 -0.1875,-0.1875 z m 0,0"
         id="path70"
         style="fill:url(#k)"
         inkscape:connector-curvature="0" />
    </g>
    <g
       id="g935">
      <path
         d="m 7.2676649,10.959081 h 2.4375 c 0.15625,0 0.28125,0.125 0.28125,0.28125 v 2.4375 c 0,0.15625 -0.125,0.28125 -0.28125,0.28125 h -2.4375 c -0.15625,0 -0.28125,-0.125 -0.28125,-0.28125 v -2.4375 c 0,-0.15625 0.125,-0.28125 0.28125,-0.28125 z m 0,0"
         id="path76"
         style="fill:url(#n)"
         inkscape:connector-curvature="0" />
      <path
         d="m 7.6739149,11.459081 h 1.625 c 0.105469,0 0.1875,0.08203 0.1875,0.1875 v 1.625 c 0,0.105469 -0.082031,0.1875 -0.1875,0.1875 h -1.625 c -0.105469,0 -0.1875,-0.08203 -0.1875,-0.1875 v -1.625 c 0,-0.105469 0.082031,-0.1875 0.1875,-0.1875 z m 0,0"
         id="path78"
         style="fill:url(#o)"
         inkscape:connector-curvature="0" />
      <path
         d="m 7.6817269,11.459081 c -0.105468,0 -0.1875,0.08203 -0.1875,0.1875 v 0.945312 c 0.152344,0.01563 0.308594,0.02344 0.46875,0.02344 0.574219,0 1.105469,-0.09766 1.53125,-0.261719 v -0.707031 c 0,-0.105469 -0.085937,-0.1875 -0.1875,-0.1875 z m 0,0"
         id="path80"
         style="fill:url(#p)"
         inkscape:connector-curvature="0" />
    </g>
    <g
       transform="translate(-0.01694915,-0.01694916)"
       id="g84"
       mask="url(#q)"
       clip-path="url(#r)" />
    <path
       style="fill:#c80000;fill-opacity:0.98431373;stroke:none"
       d="m 13,11 v 3 h 3 v -3 z m 1,1 h 1 v 1 h -1 z"
       id="path925"
       inkscape:connector-curvature="0"
       sodipodi:nodetypes="cccccccccc" />
  </g>
  <g
     transform="matrix(0.1875,0,0,0.1875,4.6415786,4.1669476)"
     id="g46">
    <path
       style="opacity:0.76000001;filter:url(#e-3)"
       inkscape:connector-curvature="0"
       d="m 22.708984,3.9453125 c -3.643939,0.037094 -6.935512,3.3597782 -6.935546,7.0039065 v 43.93164 c 4.78e-4,4.147308 4.37543,7.703362 8.435546,6.857422 l 9.992188,-2.080078 2.375,1.714844 c 1.876701,1.356544 5.885119,3.607037 8.047558,2.778906 0.01858,-0.0069 1.255573,-0.463996 2.644531,-1.242187 0.617506,-0.345969 1.597838,-0.928014 2.550781,-1.839844 0.431928,-0.413294 1.210343,-1.264146 1.753907,-2.351563 0.691831,-1.384039 -0.303632,-5.000467 -0.844433,-7.163671 -0.0036,-0.01429 -0.05031,-0.245884 -0.05859,-0.283204 l 6.132812,-4.144531 c 3.40028,-2.297728 3.941244,-7.821553 1.052735,-10.736328 l -0.002,-0.002 L 27.753906,6.0175781 C 26.439423,4.6915816 24.576013,3.9269396 22.708984,3.9453125 Z"
       id="path40-7" />
    <path
       style="fill:#ffffff"
       inkscape:connector-curvature="0"
       d="M 17.03125,7.3398438 C 14.359874,7.367036 11.949244,9.8030953 11.949219,12.474609 V 56.40625 c 3.51e-4,3.040395 3.205165,5.647504 6.18164,5.027344 l 10.800782,-2.248047 4.670087,5.587096 c 1.376447,0.994944 3.261915,1.239033 4.847657,0.63086 h 0.002 c 0.01282,-0.0048 1.149662,-0.428397 2.396484,-1.126953 0.577508,-0.32356 1.382234,-0.803021 2.171875,-1.558594 0.368036,-0.352159 0.950562,-0.988787 1.375,-1.837891 0.513582,-1.027443 -0.77469,-5.741835 -1.175947,-7.346862 -0.03825,-0.153003 -0.209942,-0.997624 -0.332031,-1.582031 l 7.173828,-4.847656 c 2.493301,-1.684843 2.890644,-5.734647 0.771484,-7.871094 L 20.730469,8.859375 C 19.76682,7.8872856 18.401924,7.3263746 17.033203,7.3398438 h -0.002 z"
       transform="translate(5.694915,-3.525424)"
       id="path42" />
    <path
       style="fill:url(#f-6)"
       inkscape:connector-curvature="0"
       d="m 23.737884,11.281217 v 40.419921 l 11.863281,-2.470703 c 0.263538,-0.05442 0.537815,0.0044 0.755859,0.16211 l 6.527477,6.654892 c 0.285679,-0.118453 0.599894,-0.234307 1.154297,-0.544922 0.384975,-0.215689 0.749087,-0.464247 0.9375,-0.644531 0.06051,-0.0579 0.06738,-0.07382 0.08789,-0.101562 -0.320785,-1.338154 -3.156382,-8.467393 -3.156382,-8.467393 -0.07594,-0.378615 0.08265,-0.765836 0.402343,-0.982422 l 9.074219,-6.130859 z"
       id="path44" />
  </g>
</svg>
