<?xml version="1.0" encoding="UTF-8" standalone="no"?>
<!-- Created with Inkscape (http://www.inkscape.org/) -->

<svg
   xmlns:dc="http://purl.org/dc/elements/1.1/"
   xmlns:cc="http://creativecommons.org/ns#"
   xmlns:rdf="http://www.w3.org/1999/02/22-rdf-syntax-ns#"
   xmlns:svg="http://www.w3.org/2000/svg"
   xmlns="http://www.w3.org/2000/svg"
   xmlns:xlink="http://www.w3.org/1999/xlink"
   xmlns:sodipodi="http://sodipodi.sourceforge.net/DTD/sodipodi-0.dtd"
   xmlns:inkscape="http://www.inkscape.org/namespaces/inkscape"
   width="16"
   height="16"
   viewBox="0 0 4.2333332 4.2333335"
   version="1.1"
   id="svg117"
   inkscape:version="0.92.4 (unknown)"
   sodipodi:docname="sc_cut.svg"
   inkscape:export-filename="/home/rizmut/Dokumen/Rizmut/Github/libreoffice-style-karasa-jaga/build/next/cmd/sc_cut.png"
   inkscape:export-xdpi="96.000008"
   inkscape:export-ydpi="96.000008">
  <defs
     id="defs111">
    <linearGradient
       gradientTransform="matrix(0.26458333,0,0,0.26458333,3.7784129e-8,292.76665)"
       inkscape:collect="always"
       xlink:href="#linearGradient3237"
       id="linearGradient3243"
       x1="8.5"
       y1="5.9796748"
       x2="9.6991873"
       y2="6.9162602"
       gradientUnits="userSpaceOnUse" />
    <linearGradient
       inkscape:collect="always"
       id="linearGradient3237">
      <stop
         style="stop-color:#ffffff;stop-opacity:1;"
         offset="0"
         id="stop3239" />
      <stop
         style="stop-color:#f4f4f4;stop-opacity:1"
         offset="1"
         id="stop3241" />
    </linearGradient>
    <linearGradient
       inkscape:collect="always"
       xlink:href="#linearGradient3237"
       id="linearGradient3247"
       gradientUnits="userSpaceOnUse"
       x1="8.5"
       y1="5.9796748"
       x2="9.6991873"
       y2="6.9162602"
       gradientTransform="matrix(-0.26458333,0,0,0.26458333,4.2333332,292.76665)" />
  </defs>
  <sodipodi:namedview
     id="base"
     pagecolor="#ffffff"
     bordercolor="#666666"
     borderopacity="1.0"
     inkscape:pageopacity="0.0"
     inkscape:pageshadow="2"
     inkscape:zoom="30.125"
     inkscape:cx="8"
     inkscape:cy="8"
     inkscape:document-units="mm"
     inkscape:current-layer="layer1"
     showgrid="false"
     units="px"
     inkscape:window-width="1366"
     inkscape:window-height="714"
     inkscape:window-x="0"
     inkscape:window-y="28"
     inkscape:window-maximized="1">
    <inkscape:grid
       type="xygrid"
       id="grid170" />
  </sodipodi:namedview>
  <metadata
     id="metadata114">
    <rdf:RDF>
      <cc:Work
         rdf:about="">
        <dc:format>image/svg+xml</dc:format>
        <dc:type
           rdf:resource="http://purl.org/dc/dcmitype/StillImage" />
        <dc:title></dc:title>
      </cc:Work>
    </rdf:RDF>
  </metadata>
  <g
     inkscape:label="Layer 1"
     inkscape:groupmode="layer"
     id="layer1"
     transform="translate(0,-292.76665)">
    <path
       inkscape:connector-curvature="0"
       style="opacity:0.5;fill:#000000;fill-opacity:1;fill-rule:evenodd;stroke:#000000;stroke-width:0.39687499;stroke-linecap:butt;stroke-linejoin:round;stroke-miterlimit:4;stroke-dasharray:none;stroke-opacity:1"
       d="m 1.3229167,293.09738 v 0.79375 l 0.5953125,1.19063 -0.3307292,0.66146 h 0.5291667 0.5291667 l -0.3307292,-0.66146 0.5953125,-1.19063 v -0.79375 l -0.79375,1.5875 z"
       id="path3249"
       sodipodi:nodetypes="ccccccccccc" />
    <path
       inkscape:connector-curvature="0"
       style="fill:#000000;fill-opacity:1;fill-rule:evenodd;stroke:none;stroke-width:0.26458332px;stroke-linecap:butt;stroke-linejoin:miter;stroke-opacity:1"
       d="m 1.5875,295.67707 c -0.2211337,0.16402 -0.3417155,0.15208 -0.4847609,0.13571 -0.040507,-0.0129 -0.084875,-0.02 -0.12980763,-0.0177 -0.003812,1.9e-4 -0.007967,0.006 -0.0118007,0.006 -0.0244385,-5.6e-4 -0.0475613,0.002 -0.0708042,0.006 -0.17345308,0.0402 -0.35848537,0.17626 -0.4838286,0.37762 -0.19373495,0.31123 -0.14191464,0.81549 0.12266869,0.81549 H 1.0583333 l 0.7937501,-1.05834 z m -0.64653048,0.45681 c 0.0362291,2.1e-4 0.070747,0.007 0.10220318,0.0243 0.1258245,0.0708 0.1512474,0.26329 0.053535,0.42828 -0.0977124,0.16499 -0.27812157,0.24114 -0.40394605,0.17033 -0.12582454,-0.0708 -0.15124738,-0.25842 -0.0535351,-0.42341 0.0732842,-0.12374 0.19305579,-0.20018 0.3017429,-0.19954 z"
       id="path3321"
       sodipodi:nodetypes="ccsssscccccssssc" />
    <path
       inkscape:connector-curvature="0"
       sodipodi:nodetypes="ccsssscccccssssc"
       id="path2262"
       d="m 2.6458336,295.67707 c 0.2211335,0.16402 0.3417154,0.15208 0.4847607,0.13571 0.040507,-0.0129 0.084875,-0.02 0.1298075,-0.0177 0.00381,1.9e-4 0.00797,0.006 0.011801,0.006 0.02444,-5.6e-4 0.047562,0.002 0.070804,0.006 0.1734529,0.0402 0.3584853,0.17626 0.4838285,0.37762 0.1937353,0.31123 0.1419151,0.81549 -0.1226683,0.81549 H 3.1750002 L 2.38125,295.94185 Z m 0.6465302,0.45681 c -0.036229,2.1e-4 -0.070747,0.007 -0.102203,0.0243 -0.1258245,0.0708 -0.1512472,0.26329 -0.053535,0.42828 0.097712,0.16499 0.2781215,0.24114 0.403946,0.17033 0.1258244,-0.0708 0.1512472,-0.25842 0.053535,-0.42341 -0.073284,-0.12374 -0.1930562,-0.20018 -0.301743,-0.19954 z"
       style="fill:#000000;fill-opacity:1;fill-rule:evenodd;stroke:none;stroke-width:0.26458332px;stroke-linecap:butt;stroke-linejoin:miter;stroke-opacity:1" />
    <path
       inkscape:connector-curvature="0"
       style="fill:url(#linearGradient3243);fill-opacity:1;fill-rule:evenodd;stroke:none;stroke-width:0.26458332px;stroke-linecap:butt;stroke-linejoin:miter;stroke-opacity:1"
       d="m 1.5875,295.67707 1.3229167,-2.64583 v 0.79375 l -1.0583333,2.11666 z"
       id="path2264" />
    <path
       inkscape:connector-curvature="0"
       id="path3245"
       d="m 2.6458334,295.67707 -1.3229167,-2.64583 v 0.79375 l 1.0583333,2.11666 z"
       style="fill:url(#linearGradient3247);fill-opacity:1;fill-rule:evenodd;stroke:none;stroke-width:0.26458332px;stroke-linecap:butt;stroke-linejoin:miter;stroke-opacity:1" />
  </g>
</svg>
