<svg height="16pt" viewBox="0 0 16 16" width="16pt" xmlns="http://www.w3.org/2000/svg" xmlns:xlink="http://www.w3.org/1999/xlink"><linearGradient id="a" gradientUnits="userSpaceOnUse" x1="1.495576" x2="14.306405" y1="7.858598" y2="7.858598"><stop offset="0" stop-color="#7c9fcf"/><stop offset=".5" stop-color="#7c9ece"/><stop offset="1" stop-color="#7b9dcf"/></linearGradient><linearGradient id="b" gradientUnits="userSpaceOnUse" x1="7" x2="8" y1="16" y2="0"><stop offset="0" stop-color="#fff"/><stop offset=".59375" stop-color="#fff"/><stop offset=".84375" stop-color="#f1f1f1"/><stop offset=".90625" stop-color="#eaeaea"/><stop offset="1" stop-color="#dfdfdf"/></linearGradient><path d="m10.496094.964844c-.289063 0-.574219.054687-.839844.160156-.175781-.054688-.359375-.089844-.550781-.089844-.496094 0-.929688.203125-1.28125.503906-.332031-.039062-.667969-.003906-.992188.089844-.003906 0-.003906 0-.003906 0-.132813.039063-.253906.101563-.378906.160156-.253907-.085937-.515625-.140624-.789063-.15625-.605468-.035156-1.203125.121094-1.679687.488282-.3125.246094-.554688.601562-.683594 1-.367187.351562-.59375.839844-.640625 1.347656-.160156.082031-.316406.175781-.457031.296875-.484375.417969-.777344 1.125-.6875 1.804687v.003907c.046875.34375.171875.652343.347656.925781-.363281.789062-.351563 1.742188.210937 2.453125.296876.375.6875.640625 1.117188.8125.003906.003906.003906.003906.007812.007813-.261718.367187-.378906.875-.304687 1.355468-.066406.0625-.128906.128906-.1875.210938-.269531.371094-.351563.976562-.144531 1.429687.410156.910157 1.230468 1.089844 2.003906.933594.382812-.078125.765625-.269531 1.03125-.640625.046875-.066406.082031-.144531.117188-.222656.050781-.007813.101562 0 .148437-.011719h.003906c.558594-.113281 1.074219-.390625 1.421875-.871094.089844-.121093.160156-.261719.214844-.414062.152344.035156.300781.074219.460938.074219.816406 0 1.539062-.429688 1.960937-1.074219.0625.003906.121094.019531.1875.019531 1.09375 0 2.023437-.777344 2.269531-1.804688.25-.101562.488282-.230468.703125-.390624h.003907c1.214843-.917969 1.648437-2.65625.71875-3.902344.15625-.726563.039062-1.5-.425782-2.121094h-.003906c-.167969-.226562-.375-.417969-.605469-.574219-.246093-1.027343-1.175781-1.804687-2.273437-1.804687zm0 0" fill="url(#a)"/><path d="m10.496094 2.054688c-.292969 0-.582032.105468-.804688.296874-.171875-.148437-.375-.226562-.585937-.226562-.378907 0-.726563.257812-.902344.667969-.296875-.183594-.695313-.226563-1.070313-.117188-.230468.066407-.441406.1875-.605468.34375-.277344-.175781-.601563-.28125-.925782-.296875-.761718-.042968-1.335937.402344-1.324218 1.023438-.402344.199218-.613282.574218-.558594.992187.027344.191407.105469.382813.234375.558594-.015625-.003906-.027344-.003906-.042969-.003906-.816406-.046875-1.40625.464843-1.316406 1.136719.046875.363281.292969.722656.667969.972656-.648438.527344-.785157 1.304687-.335938 1.875.230469.289062.589844.496094 1.019531.585937.042969.140625.117188.277344.210938.398438.261719.332031.695312.550781 1.199219.617187l-.035157.058594c-.164062-.011719-.328124-.003906-.484374.027344-.679688.136718-1.050782.648437-.828126 1.144531.066407.148437.183594.28125.335938.390625-.027344.097656-.054688.179688-.082031.261719-.101563-.019531-.210938-.015625-.308594.003906-.328125.066406-.507813.3125-.398437.554687.105468.238282.460937.378907.792968.3125.328125-.066406.507813-.3125.398438-.554687-.019532-.046875-.050782-.089844-.09375-.128906l.1875-.21875c.261718.070312.546875.078125.808594.027343.679687-.136718 1.050781-.648437.824218-1.144531-.0625-.136719-.164062-.261719-.300781-.367187l.609375-.558594c.175781.503906.648438.839844 1.179688.839844.691406 0 1.25-.558594 1.25-1.25 0-.070313-.003907-.136719-.015626-.207032.234376.253907.566407.398438.914063.402344.691406 0 1.25-.5625 1.25-1.25 0-.109375-.015625-.21875-.042969-.324218.390625-.015626.785156-.15625 1.113282-.40625.808593-.605469 1.03125-1.671876.5-2.378907-.105469-.136719-.234376-.253906-.378907-.34375.339844-.59375.324219-1.28125-.046875-1.769531-.1875-.25-.457031-.433594-.769531-.523438.007813-.054687.011719-.113281.011719-.171874 0-.691407-.558594-1.25-1.25-1.25zm0 0" fill="url(#b)"/></svg>