<?xml version="1.0" encoding="UTF-8" standalone="no"?>
<!-- Created with Inkscape (http://www.inkscape.org/) -->

<svg
   xmlns:dc="http://purl.org/dc/elements/1.1/"
   xmlns:cc="http://creativecommons.org/ns#"
   xmlns:rdf="http://www.w3.org/1999/02/22-rdf-syntax-ns#"
   xmlns:svg="http://www.w3.org/2000/svg"
   xmlns="http://www.w3.org/2000/svg"
   xmlns:xlink="http://www.w3.org/1999/xlink"
   xmlns:sodipodi="http://sodipodi.sourceforge.net/DTD/sodipodi-0.dtd"
   xmlns:inkscape="http://www.inkscape.org/namespaces/inkscape"
   width="16"
   height="16"
   id="svg2"
   sodipodi:version="0.32"
   inkscape:version="0.92.3 (2405546, 2018-03-11)"
   version="1.0"
   sodipodi:docname="sc_convertinto3d.svg"
   inkscape:output_extension="org.inkscape.output.svgz.inkscape"
   inkscape:export-filename="/home/rizmut/Dokumen/Rizmut/Github/libreoffice-style-karasa-jaga/build/next/cmd/sc_convertinto3d.png"
   inkscape:export-xdpi="96"
   inkscape:export-ydpi="96">
  <defs
     id="defs4">
    <linearGradient
       inkscape:collect="always"
       id="linearGradient6026">
      <stop
         style="stop-color:#1d3c12;stop-opacity:1;"
         offset="0"
         id="stop6028" />
      <stop
         style="stop-color:#1d3c12;stop-opacity:0;"
         offset="1"
         id="stop6030" />
    </linearGradient>
    <linearGradient
       id="linearGradient10879">
      <stop
         style="stop-color:#000000;stop-opacity:1;"
         offset="0"
         id="stop10881" />
      <stop
         style="stop-color:#003f66;stop-opacity:1;"
         offset="1"
         id="stop10883" />
    </linearGradient>
    <linearGradient
       id="linearGradient10964">
      <stop
         style="stop-color:#ffffff;stop-opacity:1;"
         offset="0"
         id="stop10966" />
      <stop
         style="stop-color:#eeeeee;stop-opacity:1"
         offset="1"
         id="stop10968" />
    </linearGradient>
    <clipPath
       clipPathUnits="userSpaceOnUse"
       id="clipPath10906">
      <rect
         y="31.658649"
         x="0.12903222"
         height="98.212311"
         width="127.74194"
         id="rect10908"
         style="fill:#ffffff;fill-opacity:1;stroke:none" />
    </clipPath>
    <clipPath
       clipPathUnits="userSpaceOnUse"
       id="clipPath10917">
      <rect
         y="-13.354839"
         x="-28.903227"
         height="46.502346"
         width="185.80646"
         id="rect10919"
         style="fill:#ffffff;fill-opacity:1;stroke:none" />
    </clipPath>
    <radialGradient
       id="radialGradient3827"
       cx="48"
       cy="-0.2148"
       r="55.147999"
       gradientTransform="matrix(0.9792,0,0,0.9725,133.0002,20.8762)"
       gradientUnits="userSpaceOnUse">
      <stop
         offset="0"
         style="stop-color:#3dbcd1;stop-opacity:1;"
         id="stop3829" />
      <stop
         offset="0.35530001"
         style="stop-color:#1c8dac;stop-opacity:1;"
         id="stop3831" />
      <stop
         offset="0.61940002"
         style="stop-color:#087795;stop-opacity:1;"
         id="stop3833" />
      <stop
         offset="0.75739998"
         style="stop-color:#00718c;stop-opacity:1;"
         id="stop3835" />
      <stop
         offset="1"
         style="stop-color:#005d7a;stop-opacity:1;"
         id="stop3837" />
    </radialGradient>
    <radialGradient
       gradientUnits="userSpaceOnUse"
       gradientTransform="matrix(0.9792,0,0,0.9725,133.0002,20.8762)"
       r="55.147999"
       cy="-0.2148"
       cx="48"
       id="radialGradient3839">
      <stop
         id="stop3841"
         style="stop-color:#8dd8e4;stop-opacity:1;"
         offset="0" />
      <stop
         id="stop3843"
         style="stop-color:#a8e2f1;stop-opacity:1;"
         offset="0.35530001" />
      <stop
         id="stop3845"
         style="stop-color:#0a9dc4;stop-opacity:1;"
         offset="0.61940002" />
      <stop
         id="stop3847"
         style="stop-color:#00718c;stop-opacity:1;"
         offset="0.75739998" />
      <stop
         id="stop3849"
         style="stop-color:#005d7a;stop-opacity:1;"
         offset="1" />
    </radialGradient>
    <filter
       height="1.509401"
       y="-0.25470051"
       width="1.128116"
       x="-0.064057983"
       id="filter7279"
       inkscape:collect="always">
      <feGaussianBlur
         id="feGaussianBlur7281"
         stdDeviation="1.2735026"
         inkscape:collect="always" />
    </filter>
    <radialGradient
       r="23.752516"
       fy="48.151859"
       fx="71.30835"
       cy="48.151859"
       cx="71.30835"
       gradientTransform="matrix(1,0,0,0.7462986,0,12.216192)"
       gradientUnits="userSpaceOnUse"
       id="radialGradient4876"
       xlink:href="#linearGradient5789"
       inkscape:collect="always" />
    <linearGradient
       id="linearGradient5789"
       inkscape:collect="always">
      <stop
         id="stop5791"
         offset="0"
         style="stop-color:#c8e1ff;stop-opacity:1" />
      <stop
         id="stop5793"
         offset="1"
         style="stop-color:#ffffff;stop-opacity:1" />
    </linearGradient>
    <linearGradient
       id="linearGradient3348">
      <stop
         id="stop3350"
         offset="0"
         style="stop-color:#cbff10;stop-opacity:1" />
      <stop
         id="stop3352"
         offset="1"
         style="stop-color:#004d00;stop-opacity:1" />
    </linearGradient>
    <radialGradient
       gradientUnits="userSpaceOnUse"
       gradientTransform="matrix(0.9792,0,0,0.9725,133.0002,20.8762)"
       r="55.147999"
       cy="-0.2148"
       cx="48"
       id="radialGradient3827-6">
      <stop
         id="stop3829-56"
         style="stop-color:#3dbcd1;stop-opacity:1;"
         offset="0" />
      <stop
         id="stop3831-9"
         style="stop-color:#1c8dac;stop-opacity:1;"
         offset="0.35530001" />
      <stop
         id="stop3833-3"
         style="stop-color:#087795;stop-opacity:1;"
         offset="0.61940002" />
      <stop
         id="stop3835-7"
         style="stop-color:#00718c;stop-opacity:1;"
         offset="0.75739998" />
      <stop
         id="stop3837-4"
         style="stop-color:#005d7a;stop-opacity:1;"
         offset="1" />
    </radialGradient>
    <radialGradient
       id="radialGradient3839-6"
       cx="48"
       cy="-0.2148"
       r="55.147999"
       gradientTransform="matrix(0.9792,0,0,0.9725,133.0002,20.8762)"
       gradientUnits="userSpaceOnUse">
      <stop
         offset="0"
         style="stop-color:#8dd8e4;stop-opacity:1;"
         id="stop3841-1" />
      <stop
         offset="0.35530001"
         style="stop-color:#a8e2f1;stop-opacity:1;"
         id="stop3843-5" />
      <stop
         offset="0.61940002"
         style="stop-color:#0a9dc4;stop-opacity:1;"
         id="stop3845-5" />
      <stop
         offset="0.75739998"
         style="stop-color:#00718c;stop-opacity:1;"
         id="stop3847-4" />
      <stop
         offset="1"
         style="stop-color:#005d7a;stop-opacity:1;"
         id="stop3849-7" />
    </radialGradient>
    <linearGradient
       id="linearGradient7261"
       inkscape:collect="always">
      <stop
         id="stop7263"
         offset="0"
         style="stop-color:#ffffff;stop-opacity:1;" />
      <stop
         id="stop7265"
         offset="1"
         style="stop-color:#ffffff;stop-opacity:0;" />
    </linearGradient>
    <radialGradient
       inkscape:collect="always"
       xlink:href="#linearGradient7261"
       id="radialGradient4840"
       gradientUnits="userSpaceOnUse"
       gradientTransform="matrix(1,0,0,0.82857145,-0.0266,17.9961)"
       cx="23.961966"
       cy="95.505981"
       fx="23.961966"
       fy="95.505981"
       r="23.961966" />
    <linearGradient
       inkscape:collect="always"
       xlink:href="#linearGradient3348"
       id="linearGradient4843"
       gradientUnits="userSpaceOnUse"
       gradientTransform="matrix(-1,0,0,1,47.91001,2.03502)"
       x1="34.305496"
       y1="86.119057"
       x2="10.116755"
       y2="110.3078" />
    <linearGradient
       inkscape:collect="always"
       xlink:href="#linearGradient3348"
       id="linearGradient4846"
       gradientUnits="userSpaceOnUse"
       gradientTransform="translate(-0.0266,2.03502)"
       x1="30.771965"
       y1="89.652588"
       x2="3.193321"
       y2="105.57513" />
    <linearGradient
       inkscape:collect="always"
       xlink:href="#linearGradient3348"
       id="linearGradient4849"
       gradientUnits="userSpaceOnUse"
       gradientTransform="translate(-0.0266,2.03502)"
       x1="19.772552"
       y1="79.81279"
       x2="19.772552"
       y2="99.99955" />
    <filter
       inkscape:collect="always"
       id="filter6016">
      <feGaussianBlur
         inkscape:collect="always"
         stdDeviation="0.45393981"
         id="feGaussianBlur6018" />
    </filter>
    <clipPath
       clipPathUnits="userSpaceOnUse"
       id="clipPath6020">
      <path
         style="fill:url(#linearGradient6024);fill-opacity:1;stroke-width:1px"
         d="m -95.9375,68 -23.96875,6.40625 h -0.0313 l -0.0625,29.3125 24,12 0.03125,-15.84375 0.03125,15.84375 24,-12 L -72,74.4375 -71.9375,74.40625 -72,74.375 h -0.03125 z"
         id="path6022"
         inkscape:connector-curvature="0" />
    </clipPath>
    <linearGradient
       inkscape:collect="always"
       xlink:href="#linearGradient3348"
       id="linearGradient6024"
       gradientUnits="userSpaceOnUse"
       gradientTransform="translate(-119.9366,-10)"
       x1="19.772552"
       y1="79.81279"
       x2="19.772552"
       y2="99.99955" />
    <linearGradient
       inkscape:collect="always"
       xlink:href="#linearGradient6026"
       id="linearGradient6032"
       x1="-101.26798"
       y1="99.718452"
       x2="-101.26798"
       y2="59.979767"
       gradientUnits="userSpaceOnUse" />
    <filter
       inkscape:collect="always"
       id="filter6052">
      <feGaussianBlur
         inkscape:collect="always"
         stdDeviation="0.80029544"
         id="feGaussianBlur6054" />
    </filter>
    <radialGradient
       inkscape:collect="always"
       xlink:href="#linearGradient7261"
       id="radialGradient6058"
       gradientUnits="userSpaceOnUse"
       gradientTransform="matrix(0.19271654,0,0,0.15967942,19.317499,81.87929)"
       cx="23.961966"
       cy="95.505981"
       fx="23.961966"
       fy="95.505981"
       r="23.961966" />
    <radialGradient
       inkscape:collect="always"
       xlink:href="#linearGradient7261"
       id="radialGradient6060"
       gradientUnits="userSpaceOnUse"
       gradientTransform="matrix(1,0,0,0.82857145,-0.0266,17.9961)"
       cx="23.961966"
       cy="95.505981"
       fx="23.961966"
       fy="95.505981"
       r="23.961966" />
    <linearGradient
       inkscape:collect="always"
       xlink:href="#linearGradient4296-0-7"
       id="linearGradient6682-4"
       gradientUnits="userSpaceOnUse"
       x1="328.12448"
       y1="120.81158"
       x2="336.98077"
       y2="87.759453" />
    <linearGradient
       id="linearGradient4296-0-7">
      <stop
         style="stop-color:#00ff00;stop-opacity:1"
         offset="0"
         id="stop4298-3-6" />
      <stop
         style="stop-color:#006500;stop-opacity:1"
         offset="1"
         id="stop4300-4-5" />
    </linearGradient>
    <linearGradient
       id="linearGradient4095">
      <stop
         id="stop4097"
         offset="0"
         style="stop-color:#3690cf;stop-opacity:1;" />
      <stop
         id="stop4099"
         offset="1"
         style="stop-color:#77b0d9;stop-opacity:1;" />
    </linearGradient>
    <radialGradient
       id="XMLID_4_"
       cx="48"
       cy="-0.2148"
       r="55.147999"
       gradientTransform="matrix(0.9792,0,0,0.9725,133.0002,20.8762)"
       gradientUnits="userSpaceOnUse">
      <stop
         offset="0"
         style="stop-color:#cfd13d;stop-opacity:1;"
         id="stop3082" />
      <stop
         offset="1"
         style="stop-color:#db8900;stop-opacity:1;"
         id="stop3090" />
    </radialGradient>
    <linearGradient
       id="linearGradient3344">
      <stop
         id="stop3346"
         offset="0"
         style="stop-color:#fdff63;stop-opacity:1;" />
      <stop
         id="stop3348"
         offset="1"
         style="stop-color:#ffffff;stop-opacity:0;" />
    </linearGradient>
    <linearGradient
       inkscape:collect="always"
       xlink:href="#XMLID_4_"
       id="linearGradient6073"
       x1="-65.249435"
       y1="6.6999249"
       x2="-2.216598"
       y2="32.435417"
       gradientUnits="userSpaceOnUse"
       gradientTransform="matrix(2.3043855,0,0,2.301606,102.81078,14.683986)" />
    <linearGradient
       inkscape:collect="always"
       xlink:href="#linearGradient3344"
       id="linearGradient6077"
       gradientUnits="userSpaceOnUse"
       gradientTransform="matrix(1.8214896,0,0,1.8214896,-57.528192,-71.472705)"
       x1="12"
       y1="73"
       x2="132.79991"
       y2="45.746693" />
  </defs>
  <sodipodi:namedview
     id="base"
     pagecolor="#ffffff"
     bordercolor="#666666"
     borderopacity="1.0"
     gridtolerance="50"
     guidetolerance="10"
     objecttolerance="10"
     inkscape:pageopacity="0.0"
     inkscape:pageshadow="2"
     inkscape:zoom="22.627417"
     inkscape:cx="4.8252779"
     inkscape:cy="0.9821264"
     inkscape:document-units="px"
     inkscape:current-layer="g1214"
     width="128px"
     height="128px"
     showgrid="true"
     showborder="true"
     inkscape:window-width="1366"
     inkscape:window-height="714"
     inkscape:window-x="0"
     inkscape:window-y="28"
     inkscape:grid-bbox="true"
     inkscape:window-maximized="1"
     inkscape:snap-global="true">
    <inkscape:grid
       id="GridFromPre046Settings"
       type="xygrid"
       originx="0"
       originy="0"
       spacingx="0.5"
       spacingy="0.5"
       color="#0000ff"
       empcolor="#0000ff"
       opacity="0.2"
       empopacity="0.4"
       empspacing="2"
       visible="true"
       enabled="true" />
  </sodipodi:namedview>
  <metadata
     id="metadata7">
    <rdf:RDF>
      <cc:Work
         rdf:about="">
        <dc:format>image/svg+xml</dc:format>
        <dc:type
           rdf:resource="http://purl.org/dc/dcmitype/StillImage" />
        <dc:title></dc:title>
      </cc:Work>
    </rdf:RDF>
  </metadata>
  <g
     inkscape:label="Layer 1"
     inkscape:groupmode="layer"
     id="layer1"
     transform="translate(0,-112)">
    <g
       id="layer2"
       inkscape:label="slice"
       style="display:none;opacity:0.33333333"
       transform="translate(241.74483,-16.00021)">
      <rect
         style="fill:#000000;fill-opacity:1;stroke:none"
         id="rect3535"
         width="128"
         height="128"
         x="0"
         y="0"
         rx="0"
         ry="0"
         inkscape:export-filename="/home/djm/lokalize.png"
         inkscape:export-xdpi="180"
         inkscape:export-ydpi="180" />
      <rect
         ry="0"
         rx="0"
         y="64"
         x="200"
         height="32"
         width="31.999603"
         id="rect3933"
         style="fill:#000000;fill-opacity:1;stroke:none" />
      <rect
         ry="0"
         rx="0"
         y="1.8861262e-14"
         x="200"
         height="15.999993"
         width="16"
         id="rect3537"
         style="fill:#000000;fill-opacity:1;stroke:none" />
      <rect
         ry="0"
         rx="0"
         y="24.000008"
         x="200.00002"
         height="21.99991"
         width="22.00001"
         id="rect3721"
         style="fill:#000000;fill-opacity:1;stroke:none" />
      <rect
         ry="0"
         rx="0"
         y="112.00021"
         x="199.9998"
         height="47.999996"
         width="47.999996"
         id="rect4141"
         style="fill:#000000;fill-opacity:1;stroke:none" />
    </g>
    <g
       id="g1214"
       transform="matrix(0.125,0,0,0.125,9.8567e-4,112.00532)">
      <g
         transform="matrix(2.0582415,0,0,2.0582415,28.185221,-162.7237)"
         id="g1288">
        <path
           inkscape:connector-curvature="0"
           style="stroke:#000000;stroke-width:1px;stroke-opacity:1;filter:url(#filter7279)"
           d="m 0.26028,115.82963 23.71312,11.90539 24,-12"
           id="path7269" />
        <g
           id="layer4"
           inkscape:label="box"
           style="display:inline"
           transform="matrix(0.9821429,0,0,0.9821429,394.70793,-306.34684)" />
        <g
           id="layer5"
           inkscape:label="zip_app"
           style="display:inline"
           transform="matrix(0.9821429,0,0,0.9821429,394.70793,-306.34684)" />
        <rect
           style="opacity:0.57786889;fill:#ffffff;fill-opacity:1;fill-rule:nonzero;stroke:none"
           id="rect1327"
           width="0.98214245"
           height="0"
           x="309.78259"
           y="-366.7807" />
        <rect
           style="opacity:0.57786889;fill:#ffffff;fill-opacity:1;fill-rule:nonzero;stroke:none"
           id="rect2482"
           width="0.98214245"
           height="0"
           x="275.28302"
           y="-393.81671" />
        <g
           style="opacity:0.40163933"
           transform="matrix(-0.7690129,0,0,0.6392557,-2162.1935,208.53294)"
           id="g4640" />
        <g
           id="g4646"
           transform="matrix(-0.7690129,0,0,0.6392557,-2162.1935,208.53294)"
           style="opacity:0.40163933" />
        <g
           id="g4730"
           transform="matrix(0.9821429,0,0,0.6392557,981.60763,215.7298)"
           style="opacity:0.40163933" />
        <g
           style="opacity:0.40163933"
           transform="matrix(0.9821429,0,0,0.6392557,981.60763,215.7298)"
           id="g4748" />
        <g
           id="g6929"
           inkscape:label="box"
           style="display:inline"
           transform="matrix(0.9821429,0,0,0.9821429,532.62529,-152.35807)" />
        <g
           id="g6931"
           inkscape:label="zip_app"
           style="display:inline"
           transform="matrix(0.9821429,0,0,0.9821429,532.62529,-152.35807)" />
        <rect
           style="opacity:0.57786889;fill:#ffffff;fill-opacity:1;fill-rule:nonzero;stroke:none"
           id="rect6937"
           width="0.98214245"
           height="0"
           x="447.70001"
           y="-212.79192" />
        <rect
           style="opacity:0.57786889;fill:#ffffff;fill-opacity:1;fill-rule:nonzero;stroke:none"
           id="rect6939"
           width="0.98214245"
           height="0"
           x="413.2005"
           y="-239.82794" />
        <g
           style="opacity:0.40163933"
           transform="matrix(-0.7690129,0,0,0.6392557,-2024.2763,362.52166)"
           id="g6943" />
        <g
           id="g6945"
           transform="matrix(-0.7690129,0,0,0.6392557,-2024.2763,362.52166)"
           style="opacity:0.40163933" />
        <g
           id="g6947"
           transform="matrix(0.9821429,0,0,0.6392557,1119.525,369.71866)"
           style="opacity:0.40163933" />
        <g
           style="opacity:0.40163933"
           transform="matrix(0.9821429,0,0,0.6392557,1119.525,369.71866)"
           id="g6949" />
        <g
           id="g7565"
           inkscape:label="box"
           style="display:inline"
           transform="matrix(0.9821429,0,0,0.9821429,484.00924,-203.4295)" />
        <g
           id="g7567"
           inkscape:label="zip_app"
           style="display:inline"
           transform="matrix(0.9821429,0,0,0.9821429,484.00924,-203.4295)" />
        <rect
           style="opacity:0.57786889;fill:#ffffff;fill-opacity:1;fill-rule:nonzero;stroke:none"
           id="rect7573"
           width="0.98214245"
           height="0"
           x="399.08398"
           y="-263.86331" />
        <rect
           style="opacity:0.57786889;fill:#ffffff;fill-opacity:1;fill-rule:nonzero;stroke:none"
           id="rect7575"
           width="0.98214245"
           height="0"
           x="364.58441"
           y="-290.89935" />
        <g
           style="opacity:0.40163933"
           transform="matrix(-0.7690129,0,0,0.6392557,-2072.8921,311.45023)"
           id="g7579" />
        <g
           id="g7581"
           transform="matrix(-0.7690129,0,0,0.6392557,-2072.8921,311.45023)"
           style="opacity:0.40163933" />
        <g
           id="g7583"
           transform="matrix(0.9821429,0,0,0.6392557,1070.9089,318.64723)"
           style="opacity:0.40163933" />
        <g
           style="opacity:0.40163933"
           transform="matrix(0.9821429,0,0,0.6392557,1070.9089,318.64723)"
           id="g7585" />
        <g
           id="g8400"
           inkscape:label="box"
           style="display:inline"
           transform="matrix(0.9821429,0,0,0.9821429,103.67455,-81.88935)" />
        <g
           id="g8402"
           inkscape:label="zip_app"
           style="display:inline"
           transform="matrix(0.9821429,0,0,0.9821429,103.67455,-81.88935)" />
        <rect
           style="opacity:0.57786889;fill:#ffffff;fill-opacity:1;fill-rule:nonzero;stroke:none"
           id="rect8408"
           width="0.98214245"
           height="0"
           x="18.749315"
           y="-142.32318" />
        <rect
           style="opacity:0.57786889;fill:#ffffff;fill-opacity:1;fill-rule:nonzero;stroke:none"
           id="rect8410"
           width="0.98214245"
           height="0"
           x="-15.750258"
           y="-169.35922" />
        <g
           style="opacity:0.40163933"
           transform="matrix(-0.7690129,0,0,0.6392557,-2453.2263,432.99037)"
           id="g8414" />
        <g
           id="g8416"
           transform="matrix(-0.7690129,0,0,0.6392557,-2453.2263,432.99037)"
           style="opacity:0.40163933" />
        <g
           id="g8418"
           transform="matrix(0.9821429,0,0,0.6392557,690.57428,440.18737)"
           style="opacity:0.40163933" />
        <g
           style="opacity:0.40163933"
           transform="matrix(0.9821429,0,0,0.6392557,690.57428,440.18737)"
           id="g8420" />
        <g
           id="g9110"
           inkscape:label="box"
           style="display:inline"
           transform="matrix(0.9821429,0,0,0.9821429,351.55967,91.35279)" />
        <g
           id="g9112"
           inkscape:label="zip_app"
           style="display:inline"
           transform="matrix(0.9821429,0,0,0.9821429,351.55967,91.35279)" />
        <rect
           style="opacity:0.57786889;fill:#ffffff;fill-opacity:1;fill-rule:nonzero;stroke:none"
           id="rect9118"
           width="0.98214245"
           height="0"
           x="266.63434"
           y="30.918949" />
        <rect
           style="opacity:0.57786889;fill:#ffffff;fill-opacity:1;fill-rule:nonzero;stroke:none"
           id="rect9120"
           width="0.98214245"
           height="0"
           x="232.1348"
           y="3.8829689" />
        <g
           style="opacity:0.40163933"
           transform="matrix(-0.7690129,0,0,0.6392557,-2205.3421,606.23252)"
           id="g9124" />
        <g
           id="g9126"
           transform="matrix(-0.7690129,0,0,0.6392557,-2205.3421,606.23252)"
           style="opacity:0.40163933" />
        <g
           id="g9128"
           transform="matrix(0.9821429,0,0,0.6392557,938.45933,613.42952)"
           style="opacity:0.40163933" />
        <g
           style="opacity:0.40163933"
           transform="matrix(0.9821429,0,0,0.6392557,938.45933,613.42952)"
           id="g9130" />
        <g
           id="g3639"
           inkscape:label="box"
           style="display:inline"
           transform="matrix(0.9821429,0,0,0.9821429,252.70727,-138.03993)" />
        <g
           id="g3641"
           inkscape:label="zip_app"
           style="display:inline"
           transform="matrix(0.9821429,0,0,0.9821429,252.70727,-138.03993)" />
        <rect
           style="opacity:0.57786889;fill:#ffffff;fill-opacity:1;fill-rule:nonzero;stroke:none"
           id="rect3647"
           width="0.98214245"
           height="0"
           x="167.78207"
           y="-198.47377" />
        <rect
           style="opacity:0.57786889;fill:#ffffff;fill-opacity:1;fill-rule:nonzero;stroke:none"
           id="rect3649"
           width="0.98214245"
           height="0"
           x="133.28253"
           y="-225.50981" />
        <g
           style="opacity:0.40163933"
           transform="matrix(-0.7690129,0,0,0.6392557,-2304.1935,376.8398)"
           id="g3653" />
        <g
           id="g3655"
           transform="matrix(-0.7690129,0,0,0.6392557,-2304.1935,376.8398)"
           style="opacity:0.40163933" />
        <g
           id="g3657"
           transform="matrix(0.9821429,0,0,0.6392557,839.60703,384.0368)"
           style="opacity:0.40163933" />
        <g
           style="opacity:0.40163933"
           transform="matrix(0.9821429,0,0,0.6392557,839.60703,384.0368)"
           id="g3659" />
        <g
           id="g10467"
           inkscape:label="box"
           style="display:inline"
           transform="matrix(0.9821429,0,0,0.9821429,254.67898,-138.94821)" />
        <g
           id="g10469"
           inkscape:label="zip_app"
           style="display:inline"
           transform="matrix(0.9821429,0,0,0.9821429,254.67898,-138.94821)" />
        <rect
           style="opacity:0.57786889;fill:#ffffff;fill-opacity:1;fill-rule:nonzero;stroke:none"
           id="rect10475"
           width="0.98214245"
           height="0"
           x="169.75372"
           y="-199.38203" />
        <rect
           style="opacity:0.57786889;fill:#ffffff;fill-opacity:1;fill-rule:nonzero;stroke:none"
           id="rect10477"
           width="0.98214245"
           height="0"
           x="135.25415"
           y="-226.41806" />
        <g
           style="opacity:0.40163933"
           transform="matrix(-0.7690129,0,0,0.6392557,-2302.2221,375.93151)"
           id="g10481" />
        <g
           id="g10483"
           transform="matrix(-0.7690129,0,0,0.6392557,-2302.2221,375.93151)"
           style="opacity:0.40163933" />
        <g
           id="g10485"
           transform="matrix(0.9821429,0,0,0.6392557,841.57873,383.12851)"
           style="opacity:0.40163933" />
        <g
           style="opacity:0.40163933"
           transform="matrix(0.9821429,0,0,0.6392557,841.57873,383.12851)"
           id="g10487" />
        <g
           id="g2885"
           inkscape:label="box"
           style="display:inline"
           transform="matrix(0.9821429,0,0,0.9821429,418.14175,-183.84507)" />
        <g
           id="g2887"
           inkscape:label="zip_app"
           style="display:inline"
           transform="matrix(0.9821429,0,0,0.9821429,418.14175,-183.84507)" />
        <rect
           style="opacity:0.57786889;fill:#ffffff;fill-opacity:1;fill-rule:nonzero;stroke:none"
           id="rect2893"
           width="0.98214245"
           height="0"
           x="333.21637"
           y="-244.27896" />
        <rect
           style="opacity:0.57786889;fill:#ffffff;fill-opacity:1;fill-rule:nonzero;stroke:none"
           id="rect2895"
           width="0.98214245"
           height="0"
           x="298.71686"
           y="-271.31497" />
        <g
           style="opacity:0.40163933"
           transform="matrix(-0.7690129,0,0,0.6392557,-2138.7592,331.03466)"
           id="g2899" />
        <g
           id="g2901"
           transform="matrix(-0.7690129,0,0,0.6392557,-2138.7592,331.03466)"
           style="opacity:0.40163933" />
        <g
           id="g2903"
           transform="matrix(0.9821429,0,0,0.6392557,1005.0413,338.23151)"
           style="opacity:0.40163933" />
        <g
           style="opacity:0.40163933"
           transform="matrix(0.9821429,0,0,0.6392557,1005.0413,338.23151)"
           id="g2905" />
        <g
           id="g2913"
           inkscape:label="box"
           style="display:inline"
           transform="matrix(0.9821429,0,0,0.9821429,556.05911,-29.85635)" />
        <g
           id="g2915"
           inkscape:label="zip_app"
           style="display:inline"
           transform="matrix(0.9821429,0,0,0.9821429,556.05911,-29.85635)" />
        <rect
           style="opacity:0.57786889;fill:#ffffff;fill-opacity:1;fill-rule:nonzero;stroke:none"
           id="rect2921"
           width="0.98214245"
           height="0"
           x="471.13385"
           y="-90.290176" />
        <rect
           style="opacity:0.57786889;fill:#ffffff;fill-opacity:1;fill-rule:nonzero;stroke:none"
           id="rect2923"
           width="0.98214245"
           height="0"
           x="436.63434"
           y="-117.3262" />
        <g
           style="opacity:0.40163933"
           transform="matrix(-0.7690129,0,0,0.6392557,-2000.8421,485.02337)"
           id="g2927" />
        <g
           id="g2929"
           transform="matrix(-0.7690129,0,0,0.6392557,-2000.8421,485.02337)"
           style="opacity:0.40163933" />
        <g
           id="g2931"
           transform="matrix(0.9821429,0,0,0.6392557,1142.9587,492.22037)"
           style="opacity:0.40163933" />
        <g
           style="opacity:0.40163933"
           transform="matrix(0.9821429,0,0,0.6392557,1142.9587,492.22037)"
           id="g2933" />
        <g
           id="g4117"
           inkscape:label="box"
           style="display:inline"
           transform="matrix(1.3333329,0,0,1.3333329,-18.77174,-429.41033)" />
        <g
           id="g4119"
           inkscape:label="zip_app"
           style="display:inline"
           transform="matrix(1.3333329,0,0,1.3333329,-18.77174,-429.41033)" />
        <rect
           style="opacity:0.57786889;fill:#ffffff;fill-opacity:1;fill-rule:nonzero;stroke:none"
           id="rect4125"
           width="1.3333334"
           height="0"
           x="-134.06438"
           y="-511.45389" />
        <rect
           style="opacity:0.57786889;fill:#ffffff;fill-opacity:1;fill-rule:nonzero;stroke:none"
           id="rect4127"
           width="1.3333334"
           height="0"
           x="-180.90013"
           y="-548.15735" />
        <g
           style="opacity:0.40163933"
           transform="matrix(-1.0439929,0,0,0.8678386,-3489.9607,269.57808)"
           id="g4131" />
        <g
           id="g4133"
           transform="matrix(-1.0439929,0,0,0.8678386,-3489.9607,269.57808)"
           style="opacity:0.40163933" />
        <g
           id="g4135"
           transform="matrix(1.3333329,0,0,0.8678386,777.98913,279.34837)"
           style="opacity:0.40163933" />
        <g
           style="opacity:0.40163933"
           transform="matrix(1.3333329,0,0,0.8678386,777.98913,279.34837)"
           id="g4137" />
        <g
           id="g4145"
           inkscape:label="box"
           style="display:inline"
           transform="matrix(1.3333329,0,0,1.3333329,168.46155,-220.35893)" />
        <g
           id="g4147"
           inkscape:label="zip_app"
           style="display:inline"
           transform="matrix(1.3333329,0,0,1.3333329,168.46155,-220.35893)" />
        <rect
           style="opacity:0.57786889;fill:#ffffff;fill-opacity:1;fill-rule:nonzero;stroke:none"
           id="rect4153"
           width="1.3333334"
           height="0"
           x="53.169067"
           y="-302.40237" />
        <rect
           style="opacity:0.57786889;fill:#ffffff;fill-opacity:1;fill-rule:nonzero;stroke:none"
           id="rect4155"
           width="1.3333334"
           height="0"
           x="6.3333292"
           y="-339.10583" />
        <g
           style="opacity:0.40163933"
           transform="matrix(-1.0439929,0,0,0.8678386,-3302.7278,478.62966)"
           id="g4159" />
        <g
           id="g4161"
           transform="matrix(-1.0439929,0,0,0.8678386,-3302.7278,478.62966)"
           style="opacity:0.40163933" />
        <g
           id="g4163"
           transform="matrix(1.3333329,0,0,0.8678386,965.22263,488.40009)"
           style="opacity:0.40163933" />
        <g
           style="opacity:0.40163933"
           transform="matrix(1.3333329,0,0,0.8678386,965.22263,488.40009)"
           id="g4165" />
        <g
           id="g4173"
           inkscape:label="box"
           style="display:inline"
           transform="matrix(1.3333329,0,0,1.3333329,102.46155,-289.69213)" />
        <g
           id="g4175"
           inkscape:label="zip_app"
           style="display:inline"
           transform="matrix(1.3333329,0,0,1.3333329,102.46155,-289.69213)" />
        <rect
           style="opacity:0.57786889;fill:#ffffff;fill-opacity:1;fill-rule:nonzero;stroke:none"
           id="rect4181"
           width="1.3333334"
           height="0"
           x="-12.830886"
           y="-371.73569" />
        <rect
           style="opacity:0.57786889;fill:#ffffff;fill-opacity:1;fill-rule:nonzero;stroke:none"
           id="rect4184"
           width="1.3333334"
           height="0"
           x="-59.666672"
           y="-408.43918" />
        <g
           style="opacity:0.40163933"
           transform="matrix(-1.0439929,0,0,0.8678386,-3368.7278,409.29623)"
           id="g4188" />
        <g
           id="g4190"
           transform="matrix(-1.0439929,0,0,0.8678386,-3368.7278,409.29623)"
           style="opacity:0.40163933" />
        <g
           id="g4192"
           transform="matrix(1.3333329,0,0,0.8678386,899.22273,419.06666)"
           style="opacity:0.40163933" />
        <g
           style="opacity:0.40163933"
           transform="matrix(1.3333329,0,0,0.8678386,899.22273,419.06666)"
           id="g4194" />
        <g
           id="g4202"
           inkscape:label="box"
           style="display:inline"
           transform="matrix(1.3333329,0,0,1.3333329,-413.87175,-124.69221)" />
        <g
           id="g4204"
           inkscape:label="zip_app"
           style="display:inline"
           transform="matrix(1.3333329,0,0,1.3333329,-413.87175,-124.69221)" />
        <rect
           style="opacity:0.57786889;fill:#ffffff;fill-opacity:1;fill-rule:nonzero;stroke:none"
           id="rect4210"
           width="1.3333334"
           height="0"
           x="-529.16425"
           y="-206.7357" />
        <rect
           style="opacity:0.57786889;fill:#ffffff;fill-opacity:1;fill-rule:nonzero;stroke:none"
           id="rect4212"
           width="1.3333334"
           height="0"
           x="-576"
           y="-243.43916" />
        <g
           style="opacity:0.40163933"
           transform="matrix(-1.0439929,0,0,0.8678386,-3885.0607,574.29623)"
           id="g4216" />
        <g
           id="g4218"
           transform="matrix(-1.0439929,0,0,0.8678386,-3885.0607,574.29623)"
           style="opacity:0.40163933" />
        <g
           id="g4220"
           transform="matrix(1.3333329,0,0,0.8678386,382.88927,584.06666)"
           style="opacity:0.40163933" />
        <g
           style="opacity:0.40163933"
           transform="matrix(1.3333329,0,0,0.8678386,382.88927,584.06666)"
           id="g4222" />
        <g
           id="g4230"
           inkscape:label="box"
           style="display:inline"
           transform="matrix(1.3333329,0,0,1.3333329,-77.34889,110.49722)" />
        <g
           id="g4232"
           inkscape:label="zip_app"
           style="display:inline"
           transform="matrix(1.3333329,0,0,1.3333329,-77.34889,110.49722)" />
        <rect
           style="opacity:0.57786889;fill:#ffffff;fill-opacity:1;fill-rule:nonzero;stroke:none"
           id="rect4238"
           width="1.3333334"
           height="0"
           x="-192.6414"
           y="28.453709" />
        <rect
           style="opacity:0.57786889;fill:#ffffff;fill-opacity:1;fill-rule:nonzero;stroke:none"
           id="rect4240"
           width="1.3333334"
           height="0"
           x="-239.47716"
           y="-8.249752" />
        <g
           style="opacity:0.40163933"
           transform="matrix(-1.0439929,0,0,0.8678386,-3548.5378,809.48579)"
           id="g4244" />
        <g
           id="g4246"
           transform="matrix(-1.0439929,0,0,0.8678386,-3548.5378,809.48579)"
           style="opacity:0.40163933" />
        <g
           id="g4248"
           transform="matrix(1.3333329,0,0,0.8678386,719.41213,819.25609)"
           style="opacity:0.40163933" />
        <g
           style="opacity:0.40163933"
           transform="matrix(1.3333329,0,0,0.8678386,719.41213,819.25609)"
           id="g4250" />
        <g
           id="g4258"
           inkscape:label="box"
           style="display:inline"
           transform="matrix(1.3333329,0,0,1.3333329,-211.54846,-200.92093)" />
        <g
           id="g4260"
           inkscape:label="zip_app"
           style="display:inline"
           transform="matrix(1.3333329,0,0,1.3333329,-211.54846,-200.92093)" />
        <rect
           style="opacity:0.57786889;fill:#ffffff;fill-opacity:1;fill-rule:nonzero;stroke:none"
           id="rect4266"
           width="1.3333334"
           height="0"
           x="-326.84094"
           y="-282.96442" />
        <rect
           style="opacity:0.57786889;fill:#ffffff;fill-opacity:1;fill-rule:nonzero;stroke:none"
           id="rect4268"
           width="1.3333334"
           height="0"
           x="-373.67667"
           y="-319.66788" />
        <g
           style="opacity:0.40163933"
           transform="matrix(-1.0439929,0,0,0.8678386,-3682.7364,498.06766)"
           id="g4272" />
        <g
           id="g4274"
           transform="matrix(-1.0439929,0,0,0.8678386,-3682.7364,498.06766)"
           style="opacity:0.40163933" />
        <g
           id="g4276"
           transform="matrix(1.3333329,0,0,0.8678386,585.2127,507.83809)"
           style="opacity:0.40163933" />
        <g
           style="opacity:0.40163933"
           transform="matrix(1.3333329,0,0,0.8678386,585.2127,507.83809)"
           id="g4278" />
        <g
           id="g4290"
           inkscape:label="box"
           style="display:inline"
           transform="matrix(1.3333329,0,0,1.3333329,-208.87175,-202.15393)" />
        <g
           id="g4292"
           inkscape:label="zip_app"
           style="display:inline"
           transform="matrix(1.3333329,0,0,1.3333329,-208.87175,-202.15393)" />
        <rect
           style="opacity:0.57786889;fill:#ffffff;fill-opacity:1;fill-rule:nonzero;stroke:none"
           id="rect4298"
           width="1.3333334"
           height="0"
           x="-324.16425"
           y="-284.19745" />
        <rect
           style="opacity:0.57786889;fill:#ffffff;fill-opacity:1;fill-rule:nonzero;stroke:none"
           id="rect4300"
           width="1.3333334"
           height="0"
           x="-371.00003"
           y="-320.90091" />
        <g
           style="opacity:0.40163933"
           transform="matrix(-1.0439929,0,0,0.8678386,-3680.0607,496.83452)"
           id="g4304" />
        <g
           id="g4306"
           transform="matrix(-1.0439929,0,0,0.8678386,-3680.0607,496.83452)"
           style="opacity:0.40163933" />
        <g
           id="g4308"
           transform="matrix(1.3333329,0,0,0.8678386,587.88927,506.60495)"
           style="opacity:0.40163933" />
        <g
           style="opacity:0.40163933"
           transform="matrix(1.3333329,0,0,0.8678386,587.88927,506.60495)"
           id="g4310" />
        <g
           id="g4364"
           inkscape:label="box"
           style="display:inline"
           transform="matrix(1.3333329,0,0,1.3333329,13.0414,-263.10494)" />
        <g
           id="g4366"
           inkscape:label="zip_app"
           style="display:inline"
           transform="matrix(1.3333329,0,0,1.3333329,13.0414,-263.10494)" />
        <rect
           style="opacity:0.57786889;fill:#ffffff;fill-opacity:1;fill-rule:nonzero;stroke:none"
           id="rect4372"
           width="1.3333334"
           height="0"
           x="-102.2512"
           y="-345.14841" />
        <rect
           style="opacity:0.57786889;fill:#ffffff;fill-opacity:1;fill-rule:nonzero;stroke:none"
           id="rect4374"
           width="1.3333334"
           height="0"
           x="-149.08696"
           y="-381.8519" />
        <g
           style="opacity:0.40163933"
           transform="matrix(-1.0439929,0,0,0.8678386,-3458.1478,435.88366)"
           id="g4378" />
        <g
           id="g4380"
           transform="matrix(-1.0439929,0,0,0.8678386,-3458.1478,435.88366)"
           style="opacity:0.40163933" />
        <g
           id="g4382"
           transform="matrix(1.3333329,0,0,0.8678386,809.80243,445.65394)"
           style="opacity:0.40163933" />
        <g
           style="opacity:0.40163933"
           transform="matrix(1.3333329,0,0,0.8678386,809.80243,445.65394)"
           id="g4384" />
        <g
           id="g4392"
           inkscape:label="box"
           style="display:inline"
           transform="matrix(1.3333329,0,0,1.3333329,200.27484,-54.0535)" />
        <g
           id="g4394"
           inkscape:label="zip_app"
           style="display:inline"
           transform="matrix(1.3333329,0,0,1.3333329,200.27484,-54.0535)" />
        <rect
           style="opacity:0.57786889;fill:#ffffff;fill-opacity:1;fill-rule:nonzero;stroke:none"
           id="rect4400"
           width="1.3333334"
           height="0"
           x="84.9823"
           y="-136.09691" />
        <rect
           style="opacity:0.57786889;fill:#ffffff;fill-opacity:1;fill-rule:nonzero;stroke:none"
           id="rect4402"
           width="1.3333334"
           height="0"
           x="38.1465"
           y="-172.80037" />
        <g
           style="opacity:0.40163933"
           transform="matrix(-1.0439929,0,0,0.8678386,-3270.9149,644.93509)"
           id="g4406" />
        <g
           id="g4408"
           transform="matrix(-1.0439929,0,0,0.8678386,-3270.9149,644.93509)"
           style="opacity:0.40163933" />
        <g
           id="g4410"
           transform="matrix(1.3333329,0,0,0.8678386,997.03583,654.70552)"
           style="opacity:0.40163933" />
        <g
           style="opacity:0.40163933"
           transform="matrix(1.3333329,0,0,0.8678386,997.03583,654.70552)"
           id="g4412" />
        <g
           transform="matrix(0.1463445,-0.02678525,0.01010528,0.1292785,439.38938,-14.37006)"
           style="fill:url(#radialGradient4876);fill-opacity:1"
           id="g3561" />
        <path
           inkscape:connector-curvature="0"
           style="fill:url(#linearGradient4849);fill-opacity:1;stroke-width:1px"
           d="m -0.0266,86.432484 24,9.596196 24,-9.596196 -24,-6.397464 z"
           id="path5795"
           sodipodi:nodetypes="ccccc" />
        <path
           inkscape:connector-curvature="0"
           style="fill:url(#linearGradient4846);fill-opacity:1;stroke-width:1px"
           d="m -0.08999,115.7561 24,12 0.0634,-31.72108 -24,-9.614372 z"
           id="path5807"
           sodipodi:nodetypes="ccccc" />
        <path
           inkscape:connector-curvature="0"
           sodipodi:nodetypes="ccccc"
           id="path5817"
           d="m 47.9734,115.7561 -24,12 -0.0634,-31.72108 24,-9.614372 z"
           style="fill:url(#linearGradient4843);fill-opacity:1;stroke-width:1px" />
        <path
           inkscape:connector-curvature="0"
           style="fill:url(#radialGradient4840);fill-opacity:1;stroke-width:1px"
           d="m -0.0266,86.403799 24,9.331221 L 47.89733,86.454512 23.96072,96.95213 24.01142,126.1122 23.2,96.8 -0.02662,86.403799 Z"
           id="path5821"
           sodipodi:nodetypes="ccccccc" />
        <path
           inkscape:connector-curvature="0"
           id="path5234"
           d="m -95.9375,67.7 -24.26875,6.40625 h -0.0313 l 0.2375,29.6125 24,12 h 0.0625 l 24,-12 L -71.5,74.1375 -71.4375,74.10625 -71.5,74.075 h -0.03125 z"
           style="fill:none;stroke:url(#linearGradient6032);stroke-width:9.18162441;stroke-miterlimit:4;stroke-dasharray:none;stroke-opacity:1;filter:url(#filter6016)"
           sodipodi:nodetypes="cccccccccccc"
           clip-path="url(#clipPath6020)"
           transform="translate(120.00005,11.98125)" />
        <path
           inkscape:connector-curvature="0"
           sodipodi:nodetypes="ccccccc"
           id="path6034"
           d="m -0.0266,86.403799 24,9.331221 L 47.89733,86.454512 23.96072,96.95213 24.01142,126.1122 23.2,96.8 -0.02662,86.403799 Z"
           style="fill:url(#radialGradient6060);fill-opacity:1;stroke-width:1px;filter:url(#filter6052)" />
        <path
           inkscape:connector-curvature="0"
           style="fill:url(#radialGradient6058);fill-opacity:1;stroke-width:1px;filter:url(#filter6052)"
           d="m -0.0266,86.403799 24,9.331221 L 47.89733,86.454512 23.96072,96.95213 24.01142,126.1122 23.2,96.8 -0.02662,86.403799 Z"
           id="path6056"
           sodipodi:nodetypes="ccccccc" />
      </g>
      <path
         style="fill:url(#linearGradient6073);fill-opacity:1;fill-rule:evenodd;stroke:none;stroke-width:3.1459837;stroke-linecap:butt;stroke-linejoin:round;stroke-miterlimit:4;stroke-dasharray:none;stroke-opacity:1"
         d="m 55.89192,49.681346 c -2.787745,0.117635 -5.291858,1.737406 -6.539595,4.230101 l -4.001169,8.001676 c -1.160134,2.319987 -1.066993,5.068571 0.247541,7.304902 l 3.006505,5.11568 h -4.05968 C 44.188598,74.106514 25.259191,73.7446 25.006264,73.137947 24.519559,71.970573 23.674041,67.463057 23.674041,58.00219 c 1.7e-4,-4.233072 -3.435599,-7.664698 -7.673784,-7.664527 H 7.9979194 c -4.2381844,-1.71e-4 -7.67395402,3.431455 -7.6737835,7.664527 0,20.968407 3.0706559,32.851633 9.6181087,40.269115 5.3839414,6.099365 30.0697794,6.995015 35.0083444,7.228485 l -2.443909,2.71967 c -2.102132,2.3413 -2.558944,5.72761 -1.152193,8.54111 l 3.996669,7.99719 c 2.222886,4.44784 8.031601,5.63776 11.82798,2.42298 L 94.994461,95.15155 c 3.483263,-2.952452 3.62806,-8.272011 0.310553,-11.409133 L 61.490855,51.771672 C 59.984133,50.347684 57.964392,49.593627 55.89192,49.681346 Z"
         id="path4926"
         inkscape:connector-curvature="0"
         sodipodi:nodetypes="ccccccsccccsccccccccc" />
      <path
         inkscape:connector-curvature="0"
         style="fill:#ffdd00;fill-opacity:1;fill-rule:evenodd;stroke:none;stroke-width:3.1459837;stroke-linecap:butt;stroke-linejoin:round;stroke-miterlimit:4;stroke-dasharray:none;stroke-opacity:1"
         d="m 90.028508,89.307551 -33.811804,-31.970018 -4,7.999998 L 62,82.000003 H 24.000001 C 18.463205,78.65741 15.999999,77.563652 15.999999,58.000004 H 8.0000002 C 1.1174437,100.39582 36.446275,99.010144 48.307735,98.19663 L 62,98.000003 48.216703,113.33753 l 4.000001,8 z"
         id="path5228"
         sodipodi:nodetypes="cccccccccccc" />
      <path
         id="path6075"
         d="m 56.216797,57.337891 -4,8 L 62,82 H 24 C 18.463204,78.657407 16,77.563648 16,58 h -4.380859 c -1.108147,15.598938 3.039236,30.491015 11.996093,30.818359 35.441906,0.570208 44.41324,5.961075 62.664063,3.664063 l 3.75,-3.175781 z"
         style="fill:url(#linearGradient6077);fill-opacity:1;fill-rule:evenodd;stroke:none;stroke-width:1.82148957px;stroke-linecap:butt;stroke-linejoin:miter;stroke-opacity:1"
         inkscape:connector-curvature="0" />
    </g>
  </g>
</svg>
