<svg height="16" viewBox="0 0 16 16" width="16" xmlns="http://www.w3.org/2000/svg" xmlns:xlink="http://www.w3.org/1999/xlink"><linearGradient id="a" gradientUnits="userSpaceOnUse" x1="8" x2="8" y1="5" y2="15"><stop offset="0" stop-color="#5678c8"/><stop offset=".94117647" stop-color="#3f59ae"/><stop offset="1" stop-color="#3d7cdb"/></linearGradient><linearGradient id="b" gradientUnits="userSpaceOnUse" x1="5.5" x2="5.5" y1="12" y2="13"><stop offset="0" stop-color="#174072"/><stop offset="1" stop-color="#174072" stop-opacity="0"/></linearGradient><linearGradient id="c" gradientUnits="userSpaceOnUse" x1="9" x2="9" y1="-1" y2="10"><stop offset="0" stop-color="#102134"/><stop offset="1" stop-color="#102134" stop-opacity="0"/></linearGradient><filter id="d" color-interpolation-filters="sRGB" height="1.267833" width="1.129187" x="-.064594" y="-.133917"><feGaussianBlur stdDeviation="3.1247207"/></filter><linearGradient id="e" gradientUnits="userSpaceOnUse" x1=".37741" x2=".37741" y1="5.214652" y2="3.309088"><stop offset="0" stop-color="#34608f"/><stop offset="1" stop-color="#34608f" stop-opacity="0"/></linearGradient><linearGradient id="f" gradientTransform="matrix(.21345221 0 0 .1138394 -11.411169 -103.22724)" gradientUnits="userSpaceOnUse" x1="124.01234" x2="124.01234" y1="966.51019" y2="935.34326"><stop offset="0"/><stop offset="1" stop-color="#34608f" stop-opacity="0"/></linearGradient><linearGradient id="g" gradientUnits="userSpaceOnUse" x1="55" x2="55" y1="1036.4132" y2="1032.4822"><stop offset="0" stop-color="#003d7b"/><stop offset="1" stop-color="#003d7b" stop-opacity="0"/></linearGradient><filter id="h" color-interpolation-filters="sRGB" height="1.697208" width="1.027888" x="-.013944" y="-.348604"><feGaussianBlur stdDeviation=".70882694"/></filter><filter id="i" color-interpolation-filters="sRGB" height="1.869989" width="1.027669" x="-.013834" y="-.434994"><feGaussianBlur stdDeviation=".70324038"/></filter><clipPath id="j"><rect height="28.072842" rx="4" width="101.14289" x="4" y="941.36218"/></clipPath><filter id="k"><feGaussianBlur stdDeviation="2.4"/></filter><linearGradient id="l" gradientTransform="matrix(.1133598 0 0 .1691546 .642795 -76.95463)" gradientUnits="userSpaceOnUse" x1="399.77466" x2="399.77466" y1="681.00012" y2="549.33234"><stop offset="0" stop-color="#cbcbcd"/><stop offset=".5" stop-color="#e0e0e2"/><stop offset="1" stop-color="#fff"/></linearGradient><clipPath id="m"><path d="m-16 16h128v104h-128z"/></clipPath><path d="m-46.991242 21.13992h114.000023c2.216 0 4 .8652 4 1.94 0 1.0747-1.78433 1.902-4 1.94-36.945183.6329-74.7030655.7782-114.000023 0-2.215566-.044-4-.8653-4-1.94 0-1.0748 1.784-1.94 4-1.94z" filter="url(#i)" opacity=".554286" transform="matrix(.125 0 0 .125 6.748904 12.35751)"/><rect fill="url(#g)" filter="url(#h)" height="4.39199" opacity=".577143" rx="2.439995" ry="2.195995" transform="matrix(.125 0 0 .25614775 -.125 -251.09298)" width="121.99997" x="3.000028" y="1032.4822"/><path d="m.5 1c-.5 0-.5.3826937-.5.5v1.5 5c0 .554.446 1 1 1h13c.554 0 1-.446 1-1v-5c0-.554-.446-1-1-1h-8.0957031c-.0842007-.4859507-.178001-1-.4042969-1z" fill="#3b6ca9"/><path d="m1 2h3v.9999999h-3z" fill="#fcf9e9"/><path d="m.5 1c-.5 0-.5.3826937-.5.5v1.5 5c0 .554.446 1 1 1v-6-1h3.8828125c.013345.068527.023996.094239.037109.1699219.0826732.4792195.4980774.8295107.9843754.8300781h1.0957031 7v6c.554 0 1-.446 1-1v-5c0-.554-.446-1-1-1h-8.0957031c-.0842007-.4859507-.178001-1-.4042969-1z" fill="url(#c)" opacity=".25"/><path d="m3 2h1v.9999999h-1z" fill="#fbc66d"/><g clip-path="url(#m)" transform="matrix(.125 0 0 .125 2 -2)"><path d="m85.480617 232.8761h116.296063c1.02599 0 1.85197.97507 1.85197 2.18627v107.05603c0 1.21119-.82598 2.18627-1.85197 2.18627h-116.296063c-1.025991 0-1.85197-.97508-1.85197-2.18627v-107.05603c0-1.2112.825979-2.18627 1.85197-2.18627z" filter="url(#k)" opacity=".5" transform="matrix(1 0 0 .9333333 -79.62865 -205.35102)"/><path d="m7.999997 16h112.000003v96h-112.000003z" fill="url(#l)"/><path d="m78.20266 37.61897v-2.7448z" fill="#fff" fill-opacity=".756881"/><path d="m8 48h112v64h-112z" fill="#fff"/><g fill="#cacacc"><path d="m7.999997 88h112.000003v8h-112.000003z"/><path d="m7.999997 64h112.000003v8h-112.000003z"/><path d="m40 48h8v64h-8z"/><path d="m80 48h8v64h-8z"/></g></g><path clip-path="url(#j)" d="m25.67146 956.10785-21.6714601-.15854.0000002 57.33469 107.8857499-.02v-60.57188c0-2.54081-2.05959-4.58387-4.62097-4.58387h-69.59332c-9.375263 0-5.067235 7.84799-12 8z" fill="#16375b" fill-opacity=".801471" filter="url(#d)" transform="matrix(.14830504 0 0 .14830504 -.59322 -134.2721)"/><path d="m1 8h2.5l1-1h10.5c.554 0 1 .446 1 1v6c0 .554-.446 1-1 1h-14c-.554 0-1-.446-1-1v-5c0-.554.56739868-1.3460811 1-1z" fill="url(#a)"/><path d="m4.5 7-1 1h-2.5c-.554 0-1 .446-1 1v1c0-.554.5673987-1.346081 1-1h2.5l1-1h10.5c.554 0 1 .446 1 1v-1c0-.554-.446-1-1-1z" fill="#a4c0e8"/><path d="m0 12h16v1h-16z" fill="#385da4"/><path d="m0 12h7 9v1h-16z" fill="url(#b)"/><path d="m0 13h16v.5h-16z" fill="#a4c0e8"/><path d="m1 8c-.5505375 0-.9925198.4410516-.9980469.9902344v5.0195316c.00023.02285.0119482.042.0136719.06445.038109.321065.7510484.923754.984375.925784.0003916.000003.00156 0 .00195 0v-7z" fill="url(#e)" opacity=".594286"/><path d="m15 7v8c.554 0 1-.446 1-1v-6c0-.554-.446-1-1-1z" fill="url(#f)" opacity=".405714"/></svg>