<?xml version="1.0" encoding="UTF-8" standalone="no"?>
<svg
   xmlns:dc="http://purl.org/dc/elements/1.1/"
   xmlns:cc="http://creativecommons.org/ns#"
   xmlns:rdf="http://www.w3.org/1999/02/22-rdf-syntax-ns#"
   xmlns:svg="http://www.w3.org/2000/svg"
   xmlns="http://www.w3.org/2000/svg"
   xmlns:xlink="http://www.w3.org/1999/xlink"
   xmlns:sodipodi="http://sodipodi.sourceforge.net/DTD/sodipodi-0.dtd"
   xmlns:inkscape="http://www.inkscape.org/namespaces/inkscape"
   height="16"
   width="16"
   version="1.1"
   id="svg56"
   sodipodi:docname="sc_dismantle.svg"
   inkscape:version="0.92.3 (2405546, 2018-03-11)"
   inkscape:export-filename="/home/rizmut/Dokumen/Rizmut/Github/libreoffice-style-karasa-jaga/build/next/cmd/sc_dismantle.png"
   inkscape:export-xdpi="96"
   inkscape:export-ydpi="96">
  <metadata
     id="metadata62">
    <rdf:RDF>
      <cc:Work
         rdf:about="">
        <dc:format>image/svg+xml</dc:format>
        <dc:type
           rdf:resource="http://purl.org/dc/dcmitype/StillImage" />
        <dc:title></dc:title>
      </cc:Work>
    </rdf:RDF>
  </metadata>
  <defs
     id="defs60">
    <linearGradient
       inkscape:collect="always"
       xlink:href="#h"
       id="linearGradient890"
       gradientUnits="userSpaceOnUse"
       x1="46.591778"
       y1="39.999996"
       x2="118.24603"
       y2="39.999996"
       gradientTransform="scale(0.125)" />
  </defs>
  <sodipodi:namedview
     pagecolor="#ffffff"
     bordercolor="#666666"
     borderopacity="1"
     objecttolerance="10"
     gridtolerance="10"
     guidetolerance="10"
     inkscape:pageopacity="0"
     inkscape:pageshadow="2"
     inkscape:window-width="1366"
     inkscape:window-height="714"
     id="namedview58"
     showgrid="true"
     inkscape:zoom="20.85965"
     inkscape:cx="12.069605"
     inkscape:cy="5.4001445"
     inkscape:window-x="0"
     inkscape:window-y="28"
     inkscape:window-maximized="1"
     inkscape:current-layer="g54">
    <inkscape:grid
       type="xygrid"
       id="grid869" />
  </sodipodi:namedview>
  <linearGradient
     id="a">
    <stop
       offset="0"
       stop-color="#717174"
       id="stop2" />
    <stop
       offset=".5"
       stop-color="#9c9ca1"
       id="stop4" />
    <stop
       offset="1"
       stop-color="#bdbdc2"
       id="stop6" />
  </linearGradient>
  <linearGradient
     id="b"
     gradientTransform="matrix(0,0.07142743,0.09523668,0,-0.30949688,5.3731176)"
     gradientUnits="userSpaceOnUse"
     x1="119.57646"
     x2="15.999996"
     xlink:href="#c"
     y1="23.792561"
     y2="109.6508" />
  <linearGradient
     id="c">
    <stop
       offset="0"
       stop-color="#fff"
       id="stop10" />
    <stop
       offset=".42597079"
       stop-color="#fff"
       id="stop12" />
    <stop
       offset=".5892781"
       stop-color="#e5e5e5"
       id="stop14" />
    <stop
       offset=".80219781"
       stop-color="#eaeaea"
       id="stop16" />
    <stop
       offset="1"
       stop-color="#eee"
       id="stop18" />
  </linearGradient>
  <linearGradient
     id="d"
     gradientTransform="matrix(0,-1.3692663,-1.7142582,0,101.14142,195.38729)"
     gradientUnits="userSpaceOnUse"
     x1="102.31124"
     x2="69.663071"
     xlink:href="#e"
     y1="-5.830213"
     y2="63.666851" />
  <linearGradient
     id="e">
    <stop
       offset="0"
       stop-color="#fff"
       id="stop22" />
    <stop
       offset="1"
       stop-color="#fff"
       stop-opacity="0"
       id="stop24" />
  </linearGradient>
  <linearGradient
     id="f"
     gradientUnits="userSpaceOnUse"
     x1="129.65916"
     x2="99.298172"
     xlink:href="#e"
     y1="16.993765"
     y2="48.481419" />
  <linearGradient
     id="g"
     gradientUnits="userSpaceOnUse"
     x1="43.517578"
     x2="112"
     xlink:href="#a"
     y1="45.241211"
     y2="44.185516" />
  <linearGradient
     id="h"
     gradientUnits="userSpaceOnUse"
     x1="46.591778"
     x2="118.24603"
     y1="39.999996"
     y2="39.999996">
    <stop
       offset="0"
       stop-color="#b4b4b6"
       id="stop29" />
    <stop
       offset=".5"
       stop-color="#9c9ca1"
       id="stop31" />
    <stop
       offset="1"
       stop-color="#cdcdd1"
       id="stop33" />
  </linearGradient>
  <linearGradient
     id="i"
     gradientUnits="userSpaceOnUse"
     x1="61.112431"
     x2="126.06644"
     xlink:href="#c"
     y1="74.825134"
     y2="-16"
     gradientTransform="scale(0.125)" />
  <linearGradient
     id="j"
     gradientTransform="matrix(0.00867537,0,0,-0.01394114,1.0957934,22.160976)"
     gradientUnits="userSpaceOnUse"
     x1="-11.041996"
     x2="1141.647"
     xlink:href="#a"
     y1="904.03656"
     y2="872.30853" />
  <g
     transform="scale(.125)"
     id="g54">
    <path
       style="fill:url(#linearGradient890);stroke-width:0.125"
       d="M 10.025391,0.37695312 C 8.9822312,0.48004843 7.9958026,0.90066099 7.1992188,1.5820312 7.0733593,1.6894117 6.9527752,1.8028258 6.8378906,1.921875 6.7262128,2.0366256 6.6199764,2.1565489 6.5195312,2.28125 5.8895675,3.0589206 5.5011831,4.00408 5.4023438,5 h 0.025391 c -0.015681,0.1564283 -0.024154,0.3134956 -0.025391,0.4707031 -1.66e-5,2.8293877 2.2936595,5.1230639 5.1230472,5.1230469 0.15848,-4.67e-4 0.316854,-0.0083 0.474609,-0.02344 v 0.02344 c 1.039763,-0.102981 2.023179,-0.521427 2.818359,-1.1992188 l 0.0078,-0.00586 c 0.0263,-0.024465 0.05234,-0.049206 0.07813,-0.074219 0.09772,-0.084931 0.192192,-0.1735365 0.283203,-0.265625 0.111678,-0.1147506 0.217914,-0.2346739 0.318359,-0.359375 0.629964,-0.7776705 1.018349,-1.7228299 1.117188,-2.71875 h -0.02539 C 15.613338,5.8142748 15.62181,5.6572075 15.623047,5.5 15.623064,2.6706124 13.329388,0.3769365 10.5,0.37695312 c -0.15848,4.6726e-4 -0.316854,0.008288 -0.474609,0.0234375 z"
       transform="scale(8)"
       id="path884"
       inkscape:connector-curvature="0"
       sodipodi:nodetypes="ccccccccccccccccccccc" />
    <path
       d="m84.001953 3.015625a40.984135 40.984135 0 0 0 -40.783203 36.984375h6.605469 35.455078c1.50754 0 2.720703 1.410773 2.720703 3.164062v35 3.671876 2.912109a40.984135 40.984135 0 0 0 36.98438-40.75 40.984135 40.984135 0 0 0 -40.982427-40.982422z"
       fill="url(#h)"
       id="path38" />
    <path
       style="fill:url(#i);stroke-width:0.125"
       d="M 10.035156,1.1953125 C 9.0764879,1.308375 8.1836365,1.7403555 7.5,2.421875 c -0.034385,0.031996 -0.068243,0.064552 -0.1015625,0.097656 -0.00457,0.0052 -0.00913,0.010406 -0.013672,0.015625 C 6.7428549,3.2100561 6.3371417,4.074938 6.2285156,5 h 0.03125 c -0.0188,0.1542703 -0.029231,0.3094454 -0.03125,0.4648438 1.821e-4,2.3773378 1.9273496,4.3045053 4.3046874,4.3046874 C 10.689182,9.7688799 10.845011,9.7597519 11,9.7421875 v 0.027344 c 0.942987,-0.1116025 1.822619,-0.5318479 2.501953,-1.1953124 0.04587,-0.042634 0.0908,-0.086265 0.134766,-0.1308594 0.649571,-0.6766586 1.060372,-1.5469531 1.169922,-2.4785156 h -0.0332 C 14.79289,5.810609 14.803974,5.6554338 14.806641,5.5 14.806459,3.1218991 12.878101,1.1944155 10.5,1.1953125 c -0.155328,7.219e-4 -0.310503,0.00985 -0.464844,0.027344 z"
       transform="scale(8)"
       id="path40"
       inkscape:connector-curvature="0"
       sodipodi:nodetypes="cccccccccccccccccc" />
    <path
       style="opacity:0.75;fill:url(#j);stroke-width:0.125"
       d="M 1.3398438 5 C 1.1514015 5 1 5.1753699 1 5.3945312 L 1 10.230469 L 1 14.605469 C 1 14.82463 1.1514015 15 1.3398438 15 L 5.7714844 15 L 10.660156 15 C 10.707267 15 10.752252 14.988707 10.792969 14.96875 C 10.915118 14.908879 11 14.76984 11 14.605469 L 11 9.7695312 L 11 5.3945312 C 11 5.17537 10.848599 5 10.660156 5 L 6.2285156 5 L 1.3398438 5 z M 2.1582031 6 L 5.4023438 6 A 5.1230169 5.1230169 0 0 0 10 10.59375 L 10 13.808594 C 10 13.914116 9.9294644 14 9.8417969 14 L 6.5976562 14 A 5.1230169 5.1230169 0 0 0 2 9.40625 L 2 6.1914062 C 2 6.085884 2.0705356 6 2.1582031 6 z M 6.2304688 6 L 9.8417969 6 C 9.9294644 6 10 6.0858838 10 6.1914062 L 10 9.7734375 A 4.3050172 4.3050172 0 0 1 6.2304688 6 z M 2 10.226562 A 4.3050172 4.3050172 0 0 1 5.7695312 14 L 2.1582031 14 C 2.0705356 14 2 13.914116 2 13.808594 L 2 10.226562 z "
       transform="scale(8)"
       id="path42" />
    <path
       style="fill:url(#b);fill-rule:evenodd;stroke-width:0.125"
       d="M 2.1914062 6 C 2.085884 6 2 6.0705346 2 6.1582031 L 2 9.4023438 L 2 13.841797 C 2 13.929464 2.085884 14 2.1914062 14 L 6.59375 14 L 9.8085938 14 C 9.914116 14 10 13.929464 10 13.841797 L 10 10.597656 L 10 6.1582031 C 10 6.0705356 9.914116 6 9.8085938 6 L 5.40625 6 L 2.1914062 6 z "
       transform="scale(8)"
       id="path44" />
    <path
       inkscape:connector-curvature="0"
       style="fill:url(#d);fill-rule:evenodd"
       id="path46"
       d="M 80,56 C 68.982373,57.97927 25.75101,66.997752 16,68 v 37.26953 C 31.53623,99.012686 64.894242,81.969668 80,72 Z"
       sodipodi:nodetypes="ccccc" />
    <path
       inkscape:connector-curvature="0"
       style="fill:url(#f);fill-rule:evenodd"
       id="path48"
       d="M 110.57617,22.123047 C 98.214986,28.61947 83.654987,35.543409 69.390625,40 H 85.279297 C 86.786837,40 88,41.410771 88,43.164062 V 64.322266 C 98.890843,55.701034 109.19992,46.45628 117.99023,38.494141 a 34.440138,34.440138 0 0 0 -7.41406,-16.371094 z" />
  </g>
</svg>
