<?xml version="1.0" encoding="UTF-8" standalone="no"?>
<svg
   xmlns:dc="http://purl.org/dc/elements/1.1/"
   xmlns:cc="http://creativecommons.org/ns#"
   xmlns:rdf="http://www.w3.org/1999/02/22-rdf-syntax-ns#"
   xmlns:svg="http://www.w3.org/2000/svg"
   xmlns="http://www.w3.org/2000/svg"
   xmlns:xlink="http://www.w3.org/1999/xlink"
   xmlns:sodipodi="http://sodipodi.sourceforge.net/DTD/sodipodi-0.dtd"
   xmlns:inkscape="http://www.inkscape.org/namespaces/inkscape"
   height="16"
   viewBox="0 0 4.2333333 4.2333335"
   width="16"
   version="1.1"
   id="svg20"
   sodipodi:docname="sc_euroconverter.svg"
   inkscape:version="0.92.3 (2405546, 2018-03-11)"
   inkscape:export-filename="/home/rizmut/Dokumen/Rizmut/Github/libreoffice-style-karasa-jaga/build/next/cmd/sc_euroconverter.png"
   inkscape:export-xdpi="96"
   inkscape:export-ydpi="96">
  <metadata
     id="metadata26">
    <rdf:RDF>
      <cc:Work
         rdf:about="">
        <dc:format>image/svg+xml</dc:format>
        <dc:type
           rdf:resource="http://purl.org/dc/dcmitype/StillImage" />
        <dc:title></dc:title>
      </cc:Work>
    </rdf:RDF>
  </metadata>
  <defs
     id="defs24">
    <linearGradient
       inkscape:collect="always"
       xlink:href="#b"
       id="linearGradient845"
       x1="14.572266"
       y1="52.029297"
       x2="102.2832"
       y2="52.029297"
       gradientUnits="userSpaceOnUse" />
    <linearGradient
       inkscape:collect="always"
       xlink:href="#a"
       id="linearGradient831"
       gradientUnits="userSpaceOnUse"
       gradientTransform="translate(-3.6970566,-263.38977)"
       x1="18.981823"
       y1="294.72055"
       x2="20.202982"
       y2="266.63391" />
    <linearGradient
       inkscape:collect="always"
       xlink:href="#a"
       id="linearGradient833"
       gradientUnits="userSpaceOnUse"
       gradientTransform="translate(-3.6970566,-263.38977)"
       x1="18.981823"
       y1="294.72055"
       x2="20.202982"
       y2="266.63391" />
  </defs>
  <sodipodi:namedview
     pagecolor="#ffffff"
     bordercolor="#666666"
     borderopacity="1"
     objecttolerance="10"
     gridtolerance="10"
     guidetolerance="10"
     inkscape:pageopacity="0"
     inkscape:pageshadow="2"
     inkscape:window-width="1366"
     inkscape:window-height="714"
     id="namedview22"
     showgrid="true"
     inkscape:zoom="14.75"
     inkscape:cx="16.79952"
     inkscape:cy="11.368132"
     inkscape:window-x="0"
     inkscape:window-y="28"
     inkscape:window-maximized="1"
     inkscape:current-layer="g829"
     showguides="false"
     inkscape:guide-bbox="true">
    <sodipodi:guide
       position="43.328467,5.8853658"
       orientation="1,0"
       id="guide834"
       inkscape:locked="false" />
    <inkscape:grid
       type="xygrid"
       id="grid866"
       spacingx="1.0583333"
       spacingy="1.0583333" />
  </sodipodi:namedview>
  <linearGradient
     id="a"
     gradientUnits="userSpaceOnUse"
     x1="18.981823"
     x2="20.202982"
     y1="294.72055"
     y2="266.63391"
     gradientTransform="translate(-3.6970566,-263.38977)">
    <stop
       offset="0"
       stop-color="#555"
       id="stop2" />
    <stop
       offset="1"
       id="stop4" />
  </linearGradient>
  <linearGradient
     id="b"
     gradientUnits="userSpaceOnUse"
     x1="35.404884"
     x2="54.657333"
     y1="7.3243251"
     y2="81.814293"
     gradientTransform="scale(0.26458333)">
    <stop
       offset="0"
       stop-color="#3b3e22"
       id="stop7" />
    <stop
       offset="1"
       stop-color="#454545"
       stop-opacity="0"
       id="stop9" />
  </linearGradient>
  <g
     id="g829"
     transform="scale(0.125)">
    <g
       id="text14"
       style="font-size:40.61514282px;font-family:sans-serif;letter-spacing:0;word-spacing:0;fill:url(#linearGradient833);stroke-width:1.015378"
       aria-label="€">
      <path
         sodipodi:nodetypes="csssccccscccccscccscccsccccsccccsscc"
         inkscape:connector-curvature="0"
         id="path868"
         style="font-style:normal;font-variant:normal;font-weight:normal;font-stretch:normal;font-size:42.74053192px;font-family:FreeSerif;-inkscape-font-specification:FreeSerif;fill:url(#linearGradient831);stroke-width:1.015378"
         d="m 31.315523,26.25077 c -1.139748,1.681127 -2.806629,3.006084 -5.000643,3.974869 -2.194014,0.968786 -4.388028,1.453179 -6.582042,1.453179 -3.78966,0 -6.909719,-1.025773 -9.360176,-3.077319 C 7.9222047,26.549954 6.4089542,22.554725 5.7820931,19.050001 H 2.5765532 l 1.058334,-2.116667 h 2.094286 c -0.028493,-0.256443 -0.271672,0.655355 -0.271672,0 0,-0.398911 0.033544,-1.432818 0.090532,-2.116666 H 2.5561953 l 1.058333,-2.116667 H 6.0507386 C 6.7915745,9.3662397 8.2213885,7.3167143 10.757327,5.2651688 c 2.564432,-2.0515455 5.64175,-3.0773183 9.231955,-3.0773183 2.051545,0 4.103091,0.455899 6.154636,1.367697 2.080039,0.8833043 3.70418,2.0942861 4.872421,3.6329452 L 30.503452,8.3424871 C 27.426134,5.3791436 24.049632,3.8974718 20.373946,3.8974718 c -0.512886,0 -1.054266,0.056987 -1.62414,0.1709621 -0.569874,0.085481 -1.31071,0.3276774 -2.222508,0.726589 -0.883304,0.3704179 -1.695374,0.8690575 -2.43621,1.4959186 -0.712342,0.6268611 -1.39619,1.552906 -2.051545,2.7781346 -0.655355,1.2252289 -0.902681,2.0067849 -1.159124,3.6309249 h 17.69458 l -1.058333,2.116667 H 10.463194 c -0.02849,0.370418 -0.04779,1.432818 -0.04779,2.202147 0,0.569874 0.243179,-0.370417 0.271673,-0.08548 h 15.771256 l -1.058334,2.116667 H 10.697255 c 0.484393,2.820875 1.555991,6.331711 3.265612,8.09832 1.709621,1.766609 4.017609,2.649913 6.923966,2.649913 3.504723,0 6.72451,-1.438931 9.65936,-4.316794 z" />
    </g>
    <path
       sodipodi:nodetypes="cccscccccccccccccccsccccccccccccccscccccccccccccc"
       inkscape:connector-curvature="0"
       id="text830"
       transform="scale(0.26458334)"
       d="m 75.552734,11.501953 c -0.803881,0 -1.482544,0.216297 -2.207031,0.355469 0.981084,-0.131428 1.960243,-0.252744 2.902344,-0.275391 -0.231039,-0.0032 -0.464293,-0.08008 -0.695313,-0.08008 z m -2.207031,0.355469 c -0.278386,0.03729 -0.555531,0.07137 -0.833984,0.109375 0.289892,-0.01423 0.565202,-0.05774 0.833984,-0.109375 z m -2.958984,0.314453 -0.15625,0.03125 c 0.03308,-0.0066 0.06461,-0.0013 0.09766,-0.0078 0.01715,-0.0026 0.04147,-0.02087 0.05859,-0.02344 z m -0.69336,0.222656 C 59.449547,13.390165 50.316563,16.326574 42.697266,22.417969 33.658937,29.729877 28.687368,36.73054 26.026589,48.704046 c -0.330138,1.479184 -1.642625,2.531122 -3.158203,2.53125 h -7.08789 l -0.419922,0.960937 h 6.376953 c 1.890943,-5.76e-4 2.610351,2.182507 2.457344,4.06725 -0.211161,2.533931 -0.337449,6.387327 -0.337449,7.73847 0,2.429284 0.939147,-1.027642 1.013691,-0.356746 0.209447,1.915799 -1.291536,3.588922 -3.21875,3.587891 h -5.794921 l -1.189143,1.536004 h 7.18164 c 1.568203,-0.0021 2.912211,1.120558 3.189453,2.664062 0.892409,4.989376 2.186983,14.113841 4.06803,18.217227 4.130922,1.164191 8.421008,2.136123 12.828125,2.90625 -2.230681,-4.647535 -3.729509,-14.397153 -4.69303,-20.008242 -0.336184,-1.97478 1.184309,-3.777571 3.1875,-3.779297 H 93.87533 l 1.191096,-1.536004 H 40.394551 c -1.660677,0 -3.051444,-1.257927 -3.21875,-2.910156 -0.128699,-1.287028 -1.041035,2.21188 -1.041035,0.0032 0,-2.948289 0.06824,-7.010198 0.189012,-8.580267 0.133349,-1.68229 2.30626,-3.548911 3.993827,-3.549672 h 62.333985 l 0.41992,-0.960937 H 41.122292 c -1.984977,-0.0014 -3.500885,-1.773059 -3.195312,-3.734375 1.015767,-6.433195 2.04216,-9.752999 4.717551,-14.754827 2.599703,-4.860311 5.369191,-8.66567 8.47461,-11.398438 0.01743,-0.01451 0.03501,-0.02883 0.05273,-0.04297 3.043238,-2.575047 6.396909,-4.636709 10.039063,-6.164063 3.30243,-1.442203 6.009087,-2.297418 8.482421,-2.746094 z"
       style="font-size:40.61514282px;font-family:sans-serif;letter-spacing:0;word-spacing:0;fill:url(#linearGradient845);fill-opacity:1;stroke-width:3.83764911" />
  </g>
</svg>
