<?xml version="1.0" encoding="UTF-8" standalone="no"?>
<svg
   xmlns:dc="http://purl.org/dc/elements/1.1/"
   xmlns:cc="http://creativecommons.org/ns#"
   xmlns:rdf="http://www.w3.org/1999/02/22-rdf-syntax-ns#"
   xmlns:svg="http://www.w3.org/2000/svg"
   xmlns="http://www.w3.org/2000/svg"
   xmlns:xlink="http://www.w3.org/1999/xlink"
   xmlns:sodipodi="http://sodipodi.sourceforge.net/DTD/sodipodi-0.dtd"
   xmlns:inkscape="http://www.inkscape.org/namespaces/inkscape"
   enable-background="new 0 0 128 128"
   height="16"
   viewBox="0 0 16 16"
   width="16"
   version="1.1"
   id="svg175"
   sodipodi:docname="sc_editstyle.svg"
   inkscape:version="0.92.4 (unknown)"
   inkscape:export-filename="/home/rizmut/Dokumen/Rizmut/Github/libreoffice-style-karasa-jaga/build/next/cmd/sc_editstyle.png"
   inkscape:export-xdpi="96"
   inkscape:export-ydpi="96">
  <metadata
     id="metadata181">
    <rdf:RDF>
      <cc:Work
         rdf:about="">
        <dc:format>image/svg+xml</dc:format>
        <dc:type
           rdf:resource="http://purl.org/dc/dcmitype/StillImage" />
        <dc:title></dc:title>
      </cc:Work>
    </rdf:RDF>
  </metadata>
  <defs
     id="defs179">
    <linearGradient
       id="c-3"
       gradientTransform="matrix(1.3755238,0,0,1.8570645,-22.548199,-92.562977)"
       gradientUnits="userSpaceOnUse"
       x1="-7.734014"
       x2="110.05683"
       y1="105.19644"
       y2="81.818565">
      <stop
         offset="0"
         id="stop34" />
      <stop
         offset="1"
         stop-opacity="0"
         id="stop36" />
    </linearGradient>
    <filter
       id="d-6">
      <feGaussianBlur
         stdDeviation=".6715998"
         id="feGaussianBlur39" />
    </filter>
    <radialGradient
       id="e-7"
       cx="42.617531"
       cy="120.64188"
       gradientTransform="matrix(1.909059,1.8392116,-8.6222515,7.5766472,1009.8522,-881.36145)"
       gradientUnits="userSpaceOnUse"
       r="3.406888">
      <stop
         offset="0"
         stop-color="#b4942a"
         id="stop42" />
      <stop
         offset="1"
         stop-color="#e4dcc9"
         id="stop44" />
    </radialGradient>
    <linearGradient
       id="f-5"
       gradientTransform="matrix(0.9986497,0,0,0.9998891,0.14044,0.005323)"
       gradientUnits="userSpaceOnUse"
       x1="75.848022"
       x2="81.452583"
       y1="72.804123"
       y2="77.047241">
      <stop
         offset="0"
         stop-color="#252525"
         id="stop47-3" />
      <stop
         offset=".5"
         stop-color="#252525"
         id="stop49-5" />
      <stop
         offset=".75"
         stop-color="#252525"
         id="stop51" />
      <stop
         offset="1"
         id="stop53" />
    </linearGradient>
    <linearGradient
       id="g-6"
       gradientTransform="matrix(0.9986497,0,0,0.9998891,0.14044,0.005323)"
       gradientUnits="userSpaceOnUse"
       x1="76.708534"
       x2="80.579521"
       y1="83.325729"
       y2="87.154587">
      <stop
         offset="0"
         stop-color="#d4a100"
         stop-opacity=".976471"
         id="stop56" />
      <stop
         offset="1"
         stop-color="#ffc712"
         id="stop58" />
    </linearGradient>
    <linearGradient
       id="h-2"
       gradientTransform="matrix(1.2875994,1.1737414,-0.5465891,0.6213041,81.686465,27.89447)"
       gradientUnits="userSpaceOnUse"
       x1="11.326384"
       x2="14.493531"
       y1="57.383999"
       y2="57.383999">
      <stop
         offset="0"
         stop-color="#9a7600"
         id="stop61-9" />
      <stop
         offset=".09292036"
         stop-color="#e3ad00"
         id="stop63-1" />
      <stop
         offset=".5043171"
         stop-color="#ffcd2c"
         id="stop65-2" />
      <stop
         offset=".91571385"
         stop-color="#e3ad00"
         id="stop67-7" />
      <stop
         offset="1"
         stop-color="#b98d00"
         id="stop69-0" />
    </linearGradient>
    <linearGradient
       id="i-9"
       gradientTransform="matrix(0.9992082,0,0,0.9993395,0.108362,-0.090375)"
       gradientUnits="userSpaceOnUse"
       x1="114.92793"
       x2="100.65602"
       y1="-22.560064"
       y2="-22.052734">
      <stop
         offset="0"
         stop-color="#980000"
         id="stop72" />
      <stop
         offset="1"
         stop-color="#db5c5c"
         id="stop74" />
    </linearGradient>
    <linearGradient
       id="j-3"
       gradientUnits="userSpaceOnUse"
       x1="-12.817558"
       x2="82.172836"
       y1="7.4622769"
       y2="7.4622769">
      <stop
         offset="0"
         stop-color="#fff"
         stop-opacity=".683453"
         id="stop77" />
      <stop
         offset="1"
         stop-color="#fff"
         stop-opacity="0"
         id="stop79" />
    </linearGradient>
    <filter
       id="k-6">
      <feGaussianBlur
         stdDeviation=".31468463"
         id="feGaussianBlur82" />
    </filter>
    <radialGradient
       id="l-0"
       cx="34.677639"
       cy="7.4622769"
       gradientTransform="matrix(-1.5103,0.00264127,-1.1671e-4,-0.00911022,87.0522,7.438666)"
       gradientUnits="userSpaceOnUse"
       r="47.595196"
       xlink:href="#m-6" />
    <linearGradient
       id="m-6">
      <stop
         offset="0"
         stop-color="#fff"
         id="stop86-2" />
      <stop
         offset="1"
         stop-color="#fff"
         stop-opacity="0"
         id="stop88-6" />
    </linearGradient>
    <linearGradient
       id="n-1"
       gradientTransform="matrix(0.6182226,0,0,0.6232687,24.10803,47.993844)"
       gradientUnits="userSpaceOnUse"
       x1="33.342377"
       x2="24.450998"
       y1="117.83894"
       y2="107.35519">
      <stop
         offset="0"
         id="stop91" />
      <stop
         offset="1"
         stop-color="#515151"
         id="stop93-8" />
    </linearGradient>
    <linearGradient
       id="o-7"
       gradientTransform="matrix(1.6732108,1.5189394,-1.5009523,1.6928488,18.675678,-24.465565)"
       gradientUnits="userSpaceOnUse"
       x1="48.498562"
       x2="48.732723"
       xlink:href="#m-6"
       y1="0.81150502"
       y2="2.3657269" />
    <linearGradient
       id="p-9"
       gradientTransform="matrix(0.9973012,0,0,0.9997782,0.28069,0.010646)"
       gradientUnits="userSpaceOnUse"
       x1="92.226158"
       x2="96.579895"
       y1="54.119438"
       y2="57.15118">
      <stop
         offset="0"
         stop-color="#ea3838"
         id="stop97-2" />
      <stop
         offset="1"
         stop-color="#c40000"
         id="stop99-0" />
    </linearGradient>
    <radialGradient
       id="q-2"
       cx="49.011971"
       cy="2.6743081"
       gradientTransform="matrix(2.2600183,0,0,0.2752449,-2.259041,-25.415382)"
       gradientUnits="userSpaceOnUse"
       r="1.724619"
       xlink:href="#r-3" />
    <linearGradient
       id="r-3">
      <stop
         offset="0"
         stop-color="#fff"
         id="stop103-7" />
      <stop
         offset="1"
         stop-color="#252525"
         stop-opacity="0"
         id="stop105-5" />
    </linearGradient>
    <radialGradient
       id="s-9"
       cx="49.011971"
       cy="2.6743081"
       gradientTransform="matrix(1.550633,0,0,0.1873121,21.621938,-31.864287)"
       gradientUnits="userSpaceOnUse"
       r="1.724619"
       xlink:href="#r-3" />
    <radialGradient
       id="t-2"
       cx="49.011971"
       cy="2.6743081"
       gradientTransform="matrix(1.5495914,0,0,0.1876849,-193.24041,-23.535874)"
       gradientUnits="userSpaceOnUse"
       r="1.724619"
       xlink:href="#r-3" />
  </defs>
  <sodipodi:namedview
     pagecolor="#ffffff"
     bordercolor="#666666"
     borderopacity="1"
     objecttolerance="10"
     gridtolerance="10"
     guidetolerance="10"
     inkscape:pageopacity="0"
     inkscape:pageshadow="2"
     inkscape:window-width="1366"
     inkscape:window-height="714"
     id="namedview177"
     showgrid="false"
     inkscape:zoom="14.75"
     inkscape:cx="-0.54237288"
     inkscape:cy="8"
     inkscape:window-x="0"
     inkscape:window-y="28"
     inkscape:window-maximized="1"
     inkscape:current-layer="g173" />
  <linearGradient
     id="a"
     gradientUnits="userSpaceOnUse"
     x1="65.918158"
     x2="95.469008"
     y1="92.505587"
     y2="72.005587">
    <stop
       offset="0"
       stop-color="#382a23"
       id="stop2" />
    <stop
       offset="1"
       stop-color="#753919"
       stop-opacity="0"
       id="stop4" />
  </linearGradient>
  <filter
     id="b"
     color-interpolation-filters="sRGB"
     height="1.116259"
     width="1.118972"
     x="-.059486"
     y="-.058129">
    <feGaussianBlur
       stdDeviation="2.3063507"
       id="feGaussianBlur7" />
  </filter>
  <radialGradient
     id="c"
     cx="30.826572"
     cy="86.85881"
     gradientTransform="matrix(.97177617 0 0 .99360916 2.808391 -1.052321)"
     gradientUnits="userSpaceOnUse"
     r="48.221165">
    <stop
       offset="0"
       stop-color="#fff718"
       id="stop10" />
    <stop
       offset="1"
       stop-color="#e77100"
       id="stop12" />
  </radialGradient>
  <linearGradient
     id="d"
     gradientUnits="userSpaceOnUse"
     x1="-6.953438"
     x2="66.845506"
     y1="100.303807"
     y2="77.467066">
    <stop
       offset="0"
       stop-color="#753919"
       id="stop15" />
    <stop
       offset="1"
       stop-color="#753919"
       stop-opacity="0"
       id="stop17" />
  </linearGradient>
  <radialGradient
     id="e"
     cx="45.885448"
     cy="75.050514"
     gradientTransform="matrix(.97177617 0 0 .99360916 2.808391 -1.052321)"
     gradientUnits="userSpaceOnUse"
     r="48.221165"
     xlink:href="#f" />
  <linearGradient
     id="f">
    <stop
       offset="0"
       stop-color="#31170a"
       id="stop21" />
    <stop
       offset="1"
       stop-color="#542912"
       stop-opacity="0"
       id="stop23" />
  </linearGradient>
  <radialGradient
     id="g"
     cx="-3.114552"
     cy="128.35297"
     gradientTransform="matrix(.97177617 0 0 .99360916 2.808391 -1.052321)"
     gradientUnits="userSpaceOnUse"
     r="48.221165"
     xlink:href="#f" />
  <linearGradient
     id="h"
     gradientUnits="userSpaceOnUse"
     x1="11.554377"
     x2="72.751942"
     xlink:href="#i"
     y1="103.219135"
     y2="78.90899" />
  <linearGradient
     id="i"
     gradientUnits="userSpaceOnUse"
     x1="28"
     x2="28"
     y1="57.5"
     y2="0">
    <stop
       offset="0"
       stop-color="#ffea00"
       id="stop28" />
    <stop
       offset="1"
       stop-color="#fc0"
       id="stop30" />
  </linearGradient>
  <linearGradient
     id="j"
     gradientUnits="userSpaceOnUse"
     x1="4.266055"
     x2="89.204306"
     y1="115.055971"
     y2="115.055971">
    <stop
       offset="0"
       stop-color="#ffea00"
       id="stop33" />
    <stop
       offset="1"
       stop-color="#dea200"
       id="stop35" />
  </linearGradient>
  <linearGradient
     id="k"
     gradientUnits="userSpaceOnUse"
     x1="2.814214"
     x2="68.147888"
     y1="124.73762"
     y2="62.865772">
    <stop
       offset="0"
       stop-color="#ffeb4a"
       id="stop38" />
    <stop
       offset="1"
       stop-color="#ffeb4a"
       stop-opacity="0"
       id="stop40" />
  </linearGradient>
  <filter
     id="l"
     color-interpolation-filters="sRGB"
     height="1.035563"
     width="1.036448"
     x="-.018224"
     y="-.017782">
    <feGaussianBlur
       stdDeviation=".66328126"
       id="feGaussianBlur43" />
  </filter>
  <linearGradient
     id="m"
     gradientUnits="userSpaceOnUse"
     x1="9.610824"
     x2="2.222648"
     xlink:href="#i"
     y1="58.780281"
     y2="105.911422" />
  <linearGradient
     id="n"
     gradientUnits="userSpaceOnUse"
     x1="1.90311"
     x2="32.767336"
     y1="44.651196"
     y2="82.160849">
    <stop
       offset="0"
       stop-color="#fff"
       id="stop47" />
    <stop
       offset="1"
       stop-color="#fff"
       stop-opacity="0"
       id="stop49" />
  </linearGradient>
  <linearGradient
     id="o"
     gradientUnits="userSpaceOnUse"
     x1="85.219681"
     x2="61.336319"
     y1="93.219681"
     y2="69.336319">
    <stop
       offset="0"
       id="stop52" />
    <stop
       offset="1"
       stop-color="#393b38"
       id="stop54" />
  </linearGradient>
  <linearGradient
     id="p"
     gradientUnits="userSpaceOnUse"
     x1="96"
     x2="88.000198"
     y1="104"
     y2="96.000198">
    <stop
       offset="0"
       stop-color="#888a85"
       id="stop57" />
    <stop
       offset=".0072"
       stop-color="#8c8e89"
       id="stop59" />
    <stop
       offset=".0673"
       stop-color="#abaca9"
       id="stop61" />
    <stop
       offset=".1347"
       stop-color="#c5c6c4"
       id="stop63" />
    <stop
       offset=".2115"
       stop-color="#dbdbda"
       id="stop65" />
    <stop
       offset=".3012"
       stop-color="#ebebeb"
       id="stop67" />
    <stop
       offset=".4122"
       stop-color="#f7f7f6"
       id="stop69" />
    <stop
       offset=".5679"
       stop-color="#fdfdfd"
       id="stop71" />
    <stop
       offset="1"
       stop-color="#fff"
       id="stop73" />
  </linearGradient>
  <radialGradient
     id="q"
     cx="102"
     cy="112.3047"
     gradientTransform="matrix(.9787234 0 0 .9818182 1.361705 1.163636)"
     gradientUnits="userSpaceOnUse"
     r="139.55859">
    <stop
       offset="0"
       stop-color="#535557"
       id="stop76" />
    <stop
       offset=".11366145"
       stop-color="#898a8c"
       id="stop78" />
    <stop
       offset=".20296688"
       stop-color="#ececec"
       id="stop80" />
    <stop
       offset=".2363"
       stop-color="#fafafa"
       id="stop82" />
    <stop
       offset=".2722"
       stop-color="#fff"
       id="stop84" />
    <stop
       offset=".5313"
       stop-color="#fafafa"
       id="stop86" />
    <stop
       offset=".8449"
       stop-color="#ebecec"
       id="stop88" />
    <stop
       offset="1"
       stop-color="#e1e2e3"
       id="stop90" />
  </radialGradient>
  <radialGradient
     id="r"
     cx="102"
     cy="112.3047"
     gradientUnits="userSpaceOnUse"
     r="139.5585">
    <stop
       offset="0"
       stop-color="#00537d"
       id="stop93" />
    <stop
       offset=".0151"
       stop-color="#186389"
       id="stop95" />
    <stop
       offset=".0558"
       stop-color="#558ca8"
       id="stop97" />
    <stop
       offset=".0964"
       stop-color="#89afc3"
       id="stop99" />
    <stop
       offset=".1357"
       stop-color="#b3ccd8"
       id="stop101" />
    <stop
       offset=".1737"
       stop-color="#d4e2e9"
       id="stop103" />
    <stop
       offset=".2099"
       stop-color="#ecf2f5"
       id="stop105" />
    <stop
       offset=".2435"
       stop-color="#fafcfd"
       id="stop107" />
    <stop
       offset=".2722"
       stop-color="#fff"
       id="stop109" />
  </radialGradient>
  <filter
     id="s">
    <feGaussianBlur
       stdDeviation="1.0394514"
       id="feGaussianBlur112" />
  </filter>
  <filter
     id="t">
    <feGaussianBlur
       stdDeviation=".50063244"
       id="feGaussianBlur115" />
  </filter>
  <filter
     id="u">
    <feGaussianBlur
       stdDeviation=".4901192"
       id="feGaussianBlur118" />
  </filter>
  <filter
     id="v">
    <feGaussianBlur
       stdDeviation=".90565481"
       id="feGaussianBlur121" />
  </filter>
  <filter
     id="w"
     height="1.247155"
     width="1.247155"
     x="-.123577"
     y="-.123577">
    <feGaussianBlur
       stdDeviation="1.7720846"
       id="feGaussianBlur124" />
  </filter>
  <g
     transform="matrix(.125 0 0 .125 1.5 .5)"
     id="g173">
    <path
       d="m3.8000066 5.137931.0408162 104.275859h80.3311772c.53 0 1.062846-.18833 1.414-.586l28.988-32.827997c.35116-.397671.586-.884.586-1.414v-69.447862z"
       filter="url(#s)"
       opacity=".715069"
       transform="matrix(1.0416667 0 0 1.0357143 -9.958333 -3.321534)"
       id="path127" />
    <path
       d="m5.7200056 7.0690671-.0000038 100.4137929 77.8759982-.0001c.53 0 1.039-.211 1.414-.586l27.644-31.765933c.375-.375.58766-.884003.586-1.414v-66.6477599z"
       filter="url(#t)"
       opacity=".89589"
       transform="matrix(1.0416667 0 0 1.0357143 -9.958333 -3.321534)"
       id="path129" />
    <path
       d="m3.8000066 6.1034482.0408122 103.3103418h80.3311812c.53 0 1.039-.211 1.414-.586 13.296921-8.21061 20.30086-19.267837 28.988-32.827997.375-.375.586-.884.586-1.414v-68.4823448z"
       filter="url(#s)"
       opacity=".835616"
       transform="matrix(1.0416667 0 0 1.0357143 -9.958333 -3.321534)"
       id="path131" />
    <path
       d="m-3.9999918 3.9999999-.000004 104.0000001h81.1719978c.53 0 1.064065-.18751 1.414-.586l28.827998-32.828c.34994-.398493.586-.884.586-1.414v-69.1720001z"
       fill="url(#r)"
       id="path133" />
    <path
       d="m4.6787312 12c-.539276 0-.978723.440836-.978723.981818l.299996 86.036362c0 .54197.439447.98182.978723.98182h71.9130198c.257404 0 .509915-.10407.691957-.28767l22.12953-14.23113c.18303-.1836.286766-.435927.286766-.694145v-71.805237c0-.540982-.438462-.981818-.978712-.981818z"
       fill="url(#q)"
       id="path135" />
    <g
       transform="translate(-3.999998 -12)"
       id="g145">
      <path
         d="m111.414 86.586c.25-.25-26.379-1.586-31.414-1.586-1.654 0-3 1.346-3 3 0 5.035 1.336 31.664 1.586 31.414z"
         filter="url(#w)"
         opacity=".906849"
         id="path137" />
      <path
         d="m111.414 86.586c.375-.375-21.97-.586-31.414-.586-1.103 0-2 .897-2 2 0 9.444.211 31.789.586 31.414z"
         filter="url(#v)"
         opacity=".2"
         id="path139" />
      <path
         d="m111.414 86.586c.239-.239-21.607.414-31.414.414-.553 0-1 .447-1 1 0 9.807-.653 31.653-.414 31.414z"
         fill="url(#o)"
         filter="url(#u)"
         opacity=".1"
         id="path141" />
      <path
         d="m78.586 119.414s11.914-9.914 17.414-15.414 15.414-17.414 15.414-17.414-21.164 1.414-31.414 1.414c0 10.25-1.414 31.414-1.414 31.414z"
         fill="url(#p)"
         id="path143" />
    </g>
    <g
       transform="translate(-8.751939 -2.90899)"
       id="g171">
      <path
         d="m4.7443515 33.143064c-1.5261642.0048-3.99181946 1.243011-3.99240826 2.769183v86.996743c.0005934 1.52913 2.47086736 3.9994 3.99999996 4h84.8861668c2.450068-.00089 3.692983-4.17902 1.983411-5.93407l-84.8861672-86.996735c-.5234143-.536181-1.2417045-.837466-1.9910023-.835121zm12.0075915 37.765926 38.753574 36h-38.753574z"
         fill="url(#c)"
         id="path147" />
      <path
         d="m4.7443515 33.143064c-1.5261642.0048-3.99181946.239754-3.99240826 1.765926v86.99674c.0005934 1.52913 2.47086736 5.00266 3.99999996 5.00326h84.8861668c2.450068-.00089 3.692983-4.17902 1.983411-5.93407l-84.8861672-86.996735c-.5234143-.536181-1.2417045-.837466-1.9910023-.835121zm12.0075915 37.765926 38.753574 36h-38.753574z"
         fill="url(#d)"
         id="path149" />
      <path
         d="m4.7443515 33.143064c-1.5261642.0048-3.99181946 1.378604-3.99240826 2.904776v86.99674c.0005934 1.52913 2.47086736 3.86381 3.99999996 3.86441h84.8861668c2.450068-.00089 3.692983-4.17902 1.983411-5.93407l-84.8861672-86.996735c-.5234143-.536181-1.2417045-.837466-1.9910023-.835121zm12.0075915 37.765926 38.753574 36-38.897392.38467z"
         fill="url(#e)"
         id="path151" />
      <path
         d="m3.7599545 30.894267c-1.5704891.0049-2.8411906 1.279112-2.84179695 2.849609v89.523444c.00061456 1.57354 1.27606815 2.849 2.84960945 2.84961h87.351562c2.521216-.00092 3.800225-3.03383 2.041016-4.83985l-87.3515624-89.523438c-.5386162-.551753-1.2777681-.861789-2.0488281-.859375zm11.3722945 39.373888 40.378015 36.386465-40.874838.148z"
         fill="url(#a)"
         filter="url(#b)"
         transform="matrix(.97177617 0 0 .97177617 2.808391 .715728)"
         id="path153" />
      <path
         d="m4.7443515 33.143064c-1.5261642.0048-3.99181946 1.243011-3.99240826 2.769183v86.996743c.0005934 1.52913 2.47086736 3.9994 3.99999996 4h84.8861668c2.450068-.00089 3.692983-4.17902 1.983411-5.93407l-84.8861672-86.996735c-.5234143-.536181-1.2417045-.837466-1.9910023-.835121zm6.7123425 33.381251 49.012318 45.471675-49.108197.14382z"
         fill="url(#g)"
         id="path155" />
      <path
         d="m4.7519435 36.608813v86.300177h.6624021l7.4487014-16h-.271414l.09588-33.010595c-2.9617673-5.421563-3.8847147-26.505795-7.9355695-37.289582z"
         fill="url(#m)"
         fill-rule="evenodd"
         id="path157" />
      <path
         d="m2 36.21875v89.52344h87.351562zm8.232348 27.780825 50.988826 49.394095-51.153792-.00001z"
         fill="none"
         filter="url(#l)"
         stroke="url(#k)"
         stroke-width="2.058087"
         transform="matrix(.97177617 0 0 .97177617 2.808391 .715728)"
         id="path159" />
      <path
         d="m4.7519435 35.912247v86.996743h2.2203575l.3301734-84zm7.9999995 23.751767v3.244976l49.549726 48h-49.549726v2.59523l56-.007z"
         fill="#fff"
         id="path161" />
      <path
         d="m4.7519435 35.912247v86.996743h84.8861665zm7.9999995 26.996743 49.549726 48h-49.710036z"
         fill="url(#h)"
         id="path163" />
      <g
         fill-rule="evenodd"
         id="g169">
        <path
           d="m4.7519435 35.912247v55.153991l7.9999995-6.093288v-22.06396l16 13.939383 5.53569-9.939383z"
           fill="url(#n)"
           id="path165" />
        <path
           d="m62.301669 110.90899h-1.549726-43.712381l-12.2876185 11.64318v.35682h84.2598265z"
           fill="url(#j)"
           id="path167" />
      </g>
    </g>
    <g
       transform="matrix(1.157999,0,0,1.157999,-3.7021468,-59.583952)"
       id="g168">
      <g
         style="fill-rule:evenodd"
         id="g136">
        <path
           style="fill:#bf0000"
           inkscape:connector-curvature="0"
           d="m 90.067703,48.28801 c 0.613642,-0.692125 4.648657,-0.363057 8.944253,3.536477 4.337724,3.937759 5.210074,7.748115 4.441394,8.615025 -0.5003,0.564284 -1.00061,1.128566 -1.50092,1.692851 -4.461914,-4.050501 -8.9238,-8.101002 -13.385691,-12.151503 0.500309,-0.564283 1.000624,-1.128565 1.500964,-1.69285 z"
           id="path128" />
        <path
           style="fill:#b3925d"
           inkscape:connector-curvature="0"
           d="m 36.000762,124 20.247,-9.42653 0.09417,-0.10772 -13.269004,-12.28446 -0.127672,0.1459 z"
           id="path130" />
        <path
           style="fill:url(#c-3);filter:url(#d-6)"
           inkscape:connector-curvature="0"
           d="m 97.750257,56.002191 c -1.025821,-0.04502 -1.882013,0.614542 -2.665637,0.986566 -4.174912,3.698786 -21.569273,21.653428 -22.000397,22.168708 l -17.273332,20.659839 -0.106627,0.116066 -9.682256,17.6334 23.598527,-5.26172 29.942357,-36.049248 3.589728,-4.294461 c 0.64726,-1.199814 1.23861,-7.813473 -1.74155,-12.76732 -1.452992,-2.415269 -2.634989,-3.146806 -3.660813,-3.19183 z m 5.402363,15.95915 c -0.0266,0.04924 -0.0446,0.143824 -0.0711,0.174098 -0.0129,0.01476 1.49247,-1.049396 0.6753,-0.870498 z"
           id="path132" />
        <path
           style="fill:url(#e-7)"
           inkscape:connector-curvature="0"
           d="m 37.004018,123.01573 18.885171,-8.78019 0.09416,-0.10769 -12.551842,-11.60866 -0.12769,0.14592 z"
           id="path134" />
      </g>
      <path
         style="fill:url(#f-5)"
         inkscape:connector-curvature="0"
         d="m 49.164276,108.94499 c 1.648961,1.50106 2.755448,1.51054 3.34488,2.0471 0.09525,0.0867 0.175312,0.18851 0.243795,0.29167 L 97.392942,60.017302 90.912418,54.117987 46.187555,105.48147 c 0.214748,0.0564 0.415855,0.13454 0.602285,0.30424 0.538767,0.49045 0.717813,1.65124 2.374436,3.15928 z"
         id="path138" />
      <path
         style="opacity:0.35348804"
         inkscape:connector-curvature="0"
         d="m 54.219542,109.12044 -1.750182,2.00168 c 0.538752,0.53092 0.431653,1.46553 1.421976,2.36702 1.067261,0.97156 1.630178,0.45849 2.321697,1.08447 l 1.771382,-2.02599 z"
         id="path140" />
      <path
         style="fill:url(#g-6)"
         inkscape:connector-curvature="0"
         d="M 97.156354,59.801933 52.550305,111.02955 c 0.541583,0.53354 0.517441,1.37742 1.512824,2.28353 1.072712,0.97652 1.555044,0.55628 2.250088,1.18547 L 100.94048,63.246681 Z"
         id="path142" />
      <path
         style="opacity:0.386047;fill:#252525"
         inkscape:connector-curvature="0"
         d="m 47.641192,104.81388 -0.897802,1.02682 -0.0345,0.0376 c 0.447512,0.42018 0.395724,1.39005 1.878296,2.86086 l 0.08229,0.0749 0.586334,0.53373 0.0823,0.0749 c 1.616252,1.35012 2.54668,1.16726 3.136095,1.7038 l 0.947655,-1.09585 z"
         id="path144" />
      <path
         style="opacity:0.35348804;fill:#131313"
         inkscape:connector-curvature="0"
         d="m 43.884886,101.37497 -0.940801,0.95531 c 0.02064,0.0187 -0.05311,0.1047 -0.03237,0.12358 0.423005,0.38509 0.412824,1.36825 1.189787,2.20191 l 0.072,0.0655 0.318878,0.29029 0.04115,0.0374 c 0.925767,0.72156 1.702344,0.46358 2.175362,0.82926 l 0.940872,-1.07609 z"
         id="path146" />
      <path
         style="fill:url(#h-2)"
         inkscape:connector-curvature="0"
         d="m 44.501995,104.6749 c 1.032229,0.92922 1.738227,0.6105 2.287845,1.11081 L 91.395905,54.558106 87.571444,51.076654 42.944168,102.32853 c 0.02096,0.019 0.04162,0.0379 0.06269,0.0571 0.42971,0.39116 0.455145,1.35294 1.495139,2.28929 z"
         id="path148" />
      <path
         style="fill:url(#i-9)"
         inkscape:connector-curvature="0"
         d="m 99.380959,-24.64492 h 18.073061 v 4.252269 H 99.380959 Z"
         transform="matrix(0.7409346,0.6715772,-0.6655662,0.7463388,0,0)"
         id="path150" />
      <ellipse
         style="fill:url(#j-3);filter:url(#k-6)"
         cx="34.677639"
         cy="7.4622769"
         rx="47.495197"
         ry="0.97142202"
         transform="matrix(0.3854946,-0.4403693,-1.7345162,-1.5764895,62.874028,110.46407)"
         id="ellipse152" />
      <path
         style="fill:url(#l-0)"
         inkscape:connector-curvature="0"
         d="M 106.56087,7.4622769 A 71.883232,0.4230493 0 0 1 35.242273,7.8853132 71.883232,0.4230493 0 0 1 -37.196723,7.4689227 71.883232,0.4230493 0 0 1 32.983878,7.0393451 71.883232,0.4230493 0 0 1 106.52539,7.448987"
         transform="matrix(0.3184879,-0.3665274,-1.2576415,-1.1452705,66.925762,101.47904)"
         id="path154" />
      <path
         style="fill:url(#n-1);fill-rule:evenodd"
         inkscape:connector-curvature="0"
         d="m 44.721041,119.98334 c -1.894932,-0.77816 -4.469372,-3.93608 -5.787909,-5.07837 l -2.933131,9.08971 z"
         id="path156" />
      <path
         style="fill:url(#o-7);fill-rule:evenodd"
         inkscape:connector-curvature="0"
         d="m 97.676422,50.957862 c 2.773338,2.157871 4.754818,5.136648 4.863888,5.422718 0.10904,0.286071 -2.586875,-3.046365 -4.878244,-4.572341 -2.273846,-1.514326 -5.450917,-1.552229 -5.685693,-1.736594 -0.234782,-0.184361 -1.822614,-1.877275 -0.38221,-1.814774 1.506596,0.06537 3.94013,1.035831 6.082259,2.700991 z"
         id="path158" />
      <path
         style="fill:url(#p-9)"
         inkscape:connector-curvature="0"
         d="m 93.653015,51.592952 -2.773744,3.218036 6.482458,5.873697 2.773741,-3.186793 z"
         id="path160" />
      <path
         style="fill:url(#q-2)"
         inkscape:connector-curvature="0"
         d="m 104.60918,-25.364759 h 7.79523 v 1.708078 h -7.79523 z"
         transform="matrix(0.7404161,0.6721488,-0.6634233,0.7482443,0,0)"
         id="path162" />
      <path
         style="fill:url(#s-9)"
         inkscape:connector-curvature="0"
         d="m 94.946716,-31.829779 h 5.348454 v 1.162492 h -5.348454 z"
         transform="matrix(0.6942228,0.7197602,-0.7693435,0.6388354,0,0)"
         id="path164" />
      <path
         style="fill:url(#t-2)"
         inkscape:connector-curvature="0"
         d="m -119.96733,-23.501301 h 5.3449 v 1.164788 h -5.3449 z"
         transform="matrix(-0.7514575,-0.6597815,-0.5893147,0.8079036,0,0)"
         id="path166" />
    </g>
  </g>
</svg>
