<?xml version="1.0" encoding="UTF-8" standalone="no"?>
<svg
   xmlns:dc="http://purl.org/dc/elements/1.1/"
   xmlns:cc="http://creativecommons.org/ns#"
   xmlns:rdf="http://www.w3.org/1999/02/22-rdf-syntax-ns#"
   xmlns:svg="http://www.w3.org/2000/svg"
   xmlns="http://www.w3.org/2000/svg"
   xmlns:xlink="http://www.w3.org/1999/xlink"
   xmlns:sodipodi="http://sodipodi.sourceforge.net/DTD/sodipodi-0.dtd"
   xmlns:inkscape="http://www.inkscape.org/namespaces/inkscape"
   height="16"
   viewBox="0 0 16 16"
   width="16"
   version="1.1"
   id="svg32"
   sodipodi:docname="sc_fontworkshapetype.fontwork-open-circle-curve.svg"
   inkscape:version="0.92.3 (2405546, 2018-03-11)"
   inkscape:export-filename="/home/rizmut/Dokumen/Rizmut/Github/libreoffice-style-karasa-jaga/src/next/cmd/sc_fontworkshapetype.fontwork-open-circle-curve.png"
   inkscape:export-xdpi="96"
   inkscape:export-ydpi="96">
  <metadata
     id="metadata38">
    <rdf:RDF>
      <cc:Work
         rdf:about="">
        <dc:format>image/svg+xml</dc:format>
        <dc:type
           rdf:resource="http://purl.org/dc/dcmitype/StillImage" />
        <dc:title></dc:title>
      </cc:Work>
    </rdf:RDF>
  </metadata>
  <defs
     id="defs36" />
  <sodipodi:namedview
     pagecolor="#ffffff"
     bordercolor="#666666"
     borderopacity="1"
     objecttolerance="10"
     gridtolerance="10"
     guidetolerance="10"
     inkscape:pageopacity="0"
     inkscape:pageshadow="2"
     inkscape:window-width="1366"
     inkscape:window-height="714"
     id="namedview34"
     showgrid="false"
     inkscape:zoom="7.375"
     inkscape:cx="15.200978"
     inkscape:cy="-3.5452637"
     inkscape:window-x="0"
     inkscape:window-y="28"
     inkscape:window-maximized="1"
     inkscape:current-layer="svg32" />
  <linearGradient
     id="a">
    <stop
       offset="0"
       stop-color="#7c9fcf"
       id="stop2" />
    <stop
       offset=".5"
       stop-color="#7c9ece"
       id="stop4" />
    <stop
       offset="1"
       stop-color="#7b9dcf"
       id="stop6" />
  </linearGradient>
  <linearGradient
     id="b">
    <stop
       offset="0"
       stop-color="#fff"
       id="stop9" />
    <stop
       offset=".53340602"
       stop-color="#fff"
       id="stop11" />
    <stop
       offset=".9375"
       stop-color="#f1f1f1"
       id="stop13" />
    <stop
       offset=".96875"
       stop-color="#eaeaea"
       id="stop15" />
    <stop
       offset="1"
       stop-color="#dfdfdf"
       id="stop17" />
  </linearGradient>
  <linearGradient
     id="c"
     gradientUnits="userSpaceOnUse"
     x1="0"
     x2="128"
     xlink:href="#a"
     y1="64"
     y2="64" />
  <linearGradient
     id="d"
     gradientUnits="userSpaceOnUse"
     x1="64"
     x2="64"
     xlink:href="#b"
     y1="128"
     y2="0" />
  <linearGradient
     id="e"
     gradientUnits="userSpaceOnUse"
     x1="64"
     x2="64"
     xlink:href="#b"
     y1="88"
     y2="60.090096" />
  <linearGradient
     id="f"
     gradientUnits="userSpaceOnUse"
     x1="64"
     x2="64"
     xlink:href="#a"
     y1="88"
     y2="60.090096" />
  <g
     id="g849"
     transform="scale(0.125)">
    <path
       id="path24"
       d="M 64,0 C 28.653776,0 0,28.653776 0,64 h 24 c 0,-22.09139 17.90861,-40 40,-40 22.09139,0 40,17.90861 40,40 h 24 C 128,28.653776 99.346224,0 64,0 Z"
       style="fill:url(#c)"
       inkscape:connector-curvature="0" />
    <path
       id="path26"
       d="M 64,8 C 36.183871,8.0280592 12.60458,28.469156 8.6308594,56 H 16.724609 C 20.625001,32.924883 40.597577,16.025963 64,16 c 23.419404,0.0041 43.41708,16.908155 47.32031,40 h 8.03516 C 115.3825,28.474286 91.810937,8.0348442 64,8 Z"
       style="fill:url(#d)"
       inkscape:connector-curvature="0" />
    <path
       id="path28"
       d="M 24,63.957031 A 8.0442652,8.0442652 0 0 0 15.957031,72 v 8 A 8.0442652,8.0442652 0 0 0 24,88.042969 h 80 A 8.0442652,8.0442652 0 0 0 112.04297,80 V 72 A 8.0442652,8.0442652 0 0 0 104,63.957031 Z"
       style="fill:url(#f)"
       inkscape:connector-curvature="0" />
    <path
       id="path30"
       d="m 24,72 h 80 v 8 H 24 Z"
       style="fill:url(#e)"
       inkscape:connector-curvature="0" />
  </g>
</svg>
