<svg height="16pt" viewBox="0 0 16 16" width="16pt" xmlns="http://www.w3.org/2000/svg" xmlns:xlink="http://www.w3.org/1999/xlink"><linearGradient id="a" gradientUnits="userSpaceOnUse" x1=".43444" x2="15.56556" y1="8" y2="8"><stop offset="0" stop-color="#7c9fcf"/><stop offset=".5" stop-color="#7c9ece"/><stop offset="1" stop-color="#7b9dcf"/></linearGradient><linearGradient id="b" gradientUnits="userSpaceOnUse" x1="8.000005" x2="8.000005" y1="14.857227" y2="1.142919"><stop offset="0" stop-color="#fff"/><stop offset=".506438" stop-color="#fff"/><stop offset=".822961" stop-color="#f1f1f1"/><stop offset=".90625" stop-color="#eaeaea"/><stop offset="1" stop-color="#dfdfdf"/></linearGradient><path d="m3 1c-.371094 0-.710938.207031-.886719.535156-2.226562 4.242188-2.25 8.6875.003907 12.933594.171874.328125.511718.53125.882812.53125h10c.371094 0 .710938-.203125.882812-.53125 2.253907-4.246094 2.230469-8.691406.003907-12.933594-.175781-.328125-.515625-.535156-.886719-.535156zm0 0" fill="url(#a)"/><path d="m3 2c-2.101562 4-2.125 8 0 12h10c2.125-4 2.101562-8 0-12zm0 0" fill="url(#b)"/></svg>