<?xml version="1.0" encoding="UTF-8" standalone="no"?>
<svg
   xmlns:dc="http://purl.org/dc/elements/1.1/"
   xmlns:cc="http://creativecommons.org/ns#"
   xmlns:rdf="http://www.w3.org/1999/02/22-rdf-syntax-ns#"
   xmlns:svg="http://www.w3.org/2000/svg"
   xmlns="http://www.w3.org/2000/svg"
   xmlns:sodipodi="http://sodipodi.sourceforge.net/DTD/sodipodi-0.dtd"
   xmlns:inkscape="http://www.inkscape.org/namespaces/inkscape"
   height="16"
   viewBox="0 0 16 16"
   width="16"
   version="1.1"
   id="svg26"
   sodipodi:docname="sc_fontworkshapetype.fontwork-curve-up.svg"
   inkscape:version="0.92.3 (2405546, 2018-03-11)"
   inkscape:export-filename="/home/rizmut/Dokumen/Rizmut/Github/libreoffice-style-karasa-jaga/src/next/cmd/sc_fontworkshapetype.fontwork-curve-up.png"
   inkscape:export-xdpi="96"
   inkscape:export-ydpi="96">
  <metadata
     id="metadata32">
    <rdf:RDF>
      <cc:Work
         rdf:about="">
        <dc:format>image/svg+xml</dc:format>
        <dc:type
           rdf:resource="http://purl.org/dc/dcmitype/StillImage" />
        <dc:title></dc:title>
      </cc:Work>
    </rdf:RDF>
  </metadata>
  <defs
     id="defs30" />
  <sodipodi:namedview
     pagecolor="#ffffff"
     bordercolor="#666666"
     borderopacity="1"
     objecttolerance="10"
     gridtolerance="10"
     guidetolerance="10"
     inkscape:pageopacity="0"
     inkscape:pageshadow="2"
     inkscape:window-width="1366"
     inkscape:window-height="714"
     id="namedview28"
     showgrid="true"
     inkscape:zoom="14.75"
     inkscape:cx="-2.6981586"
     inkscape:cy="4.8658398"
     inkscape:window-x="0"
     inkscape:window-y="28"
     inkscape:window-maximized="1"
     inkscape:current-layer="svg26">
    <inkscape:grid
       type="xygrid"
       id="grid839" />
  </sodipodi:namedview>
  <linearGradient
     id="a"
     gradientUnits="userSpaceOnUse"
     x1="64"
     x2="64"
     y1="128"
     y2="0">
    <stop
       offset="0"
       stop-color="#fff"
       id="stop2" />
    <stop
       offset=".46428573"
       stop-color="#fff"
       id="stop4" />
    <stop
       offset=".78125"
       stop-color="#f1f1f1"
       id="stop6" />
    <stop
       offset=".90625"
       stop-color="#eaeaea"
       id="stop8" />
    <stop
       offset="1"
       stop-color="#dfdfdf"
       id="stop10" />
  </linearGradient>
  <linearGradient
     id="b"
     gradientUnits="userSpaceOnUse"
     x1="64"
     x2="64"
     y1="128"
     y2="0">
    <stop
       offset="0"
       stop-color="#7c9fcf"
       id="stop13" />
    <stop
       offset=".5"
       stop-color="#7c9ece"
       id="stop15" />
    <stop
       offset="1"
       stop-color="#7b9dcf"
       id="stop17" />
  </linearGradient>
  <g
     transform="matrix(0.125,0,0,0.125,-4.6817821e-7,0.00132948)"
     id="g24">
    <path
       d="M 119.76562,2.6425781 A 7.8165589,7.8165589 0 0 0 112.5293,8.15625 C 104.88556,33.036685 90.309731,45.907625 67.378906,48.099609 42.546681,50.47335 25.774834,45.541029 14.128906,30.828125 A 7.8165589,7.8165589 0 0 0 0.18359375,35.679688 V 75.275391 A 7.8165589,7.8165589 0 0 0 1.3339844,79.357422 C 24.18423,116.66952 54.243907,126.49915 78.265625,125.23438 c 12.010859,-0.63239 22.522085,-3.73739 30.443355,-6.77344 3.96064,-1.51803 7.28193,-3.02701 9.76954,-4.20117 2.4876,-1.17417 4.78103,-2.16913 4.04492,-1.91797 a 7.8165589,7.8165589 0 0 0 5.29297,-7.39649 V 10.451172 a 7.8165589,7.8165589 0 0 0 -8.05079,-7.8085939 z"
       id="path20"
       style="fill:url(#b)"
       inkscape:connector-curvature="0" />
    <path
       d="M 120,10.452008 C 111.68897,37.504501 93.88907,53.418818 68.123045,55.881823 41.80384,58.397706 21.491547,52.724598 8.0000053,35.680035 V 75.275389 C 51.288241,145.96063 113.65561,107.1096 120,104.94489 Z"
       id="path22"
       style="fill:url(#a)"
       inkscape:connector-curvature="0" />
  </g>
</svg>
