<svg height="16pt" viewBox="0 0 16 16" width="16pt" xmlns="http://www.w3.org/2000/svg" xmlns:xlink="http://www.w3.org/1999/xlink"><linearGradient id="a" gradientUnits="userSpaceOnUse" x1="-.001221" x2="16.001221" y1="8.03479" y2="8.03479"><stop offset="0" stop-color="#7c9fcf"/><stop offset=".5" stop-color="#7c9ece"/><stop offset="1" stop-color="#7b9dcf"/></linearGradient><linearGradient id="b"><stop offset="0" stop-color="#fff"/><stop offset=".425971" stop-color="#fff"/><stop offset=".589278" stop-color="#f1f1f1"/><stop offset=".802198" stop-color="#eaeaea"/><stop offset="1" stop-color="#dfdfdf"/></linearGradient><linearGradient id="c" gradientTransform="matrix(.120315 0 0 .125 .299964 .576513)" gradientUnits="userSpaceOnUse" x1="-26.824043" x2="185.51433" xlink:href="#b" y1="96.435867" y2="47.444592"/><linearGradient id="d" gradientTransform="matrix(.120315 0 0 .137502 .299965 -.300232)" gradientUnits="userSpaceOnUse" x1="5.8181" x2="122.1801" xlink:href="#b" y1="24.00135" y2="24.00135"/><path d="m8 0c-1.90625 0-3.796875.214844-5.222656.625-.714844.203125-1.320313.445312-1.8125.785156-.492188.339844-.964844.871094-.964844 1.589844v1.21875.03125 8.972656.011719.015625.011719c.00390625.089843.0195312.179687.046875.265625.113281.605468.550781 1.019531.980469 1.285156.492187.300781 1.078125.511719 1.769531.691406 1.386719.359375 3.199219.566406 5.203125.566406s3.816406-.207031 5.203125-.566406c.691406-.179687 1.277344-.390625 1.769531-.691406.441406-.273438.894532-.703125.988282-1.339844.019531-.066406.035156-.136718.039062-.210937 0-.003907 0-.007813 0-.011719 0-.007812 0-.015625 0-.023438 0-.011718 0-.019531 0-.027343v-.105469.007812c0-.003906 0-.011718 0-.019531v.007813-8.839844c0-.007812 0-.015625 0-.023438v-1.226562c0-.71875-.472656-1.25-.964844-1.589844-.492187-.339844-1.097656-.582031-1.8125-.785156-1.425781-.410156-3.316406-.625-5.222656-.625zm0 0" fill="url(#a)"/><path d="m15 4.683594c-1.109375.773437-3.144531 1.3125-7 1.316406-3.859375-.003906-6.394531-.640625-7-1.316406v8.539062h.003906c0 .007813-.003906.019532-.003906.027344 0 1.003906 3.132812 1.820312 7 1.820312 3.867188-.003906 7-.816406 7-1.820312 0-.015625-.003906-.035156-.007812-.050781h.007812v-.105469-.003906zm0 0" fill="url(#c)" fill-rule="evenodd"/><path d="m15 3c0-1.105469-3.132812-2-7-2s-7 .894531-7 2 3.132812 2 7 2 7-.894531 7-2zm0 0" fill="url(#d)"/></svg>