<svg height="16pt" viewBox="0 0 16 16" width="16pt" xmlns="http://www.w3.org/2000/svg" xmlns:xlink="http://www.w3.org/1999/xlink"><linearGradient id="a"><stop offset="0" stop-color="#7c9fcf"/><stop offset=".5" stop-color="#7c9ece"/><stop offset="1" stop-color="#7b9dcf"/></linearGradient><linearGradient id="b" gradientUnits="userSpaceOnUse" x1="8.000024" x2="8.000024" xlink:href="#a" y1="14.999911" y2="1.000344"/><linearGradient id="c" gradientUnits="userSpaceOnUse" x1="8.000005" x2="8.000005" y1="14.857224" y2="1.142916"><stop offset="0" stop-color="#fff"/><stop offset=".506438" stop-color="#fff"/><stop offset=".822961" stop-color="#f1f1f1"/><stop offset=".90625" stop-color="#eaeaea"/><stop offset="1" stop-color="#dfdfdf"/></linearGradient><linearGradient id="d" gradientUnits="userSpaceOnUse" x1="4.000001" x2="5.000001" xlink:href="#a" y1="8.000026" y2="8.000026"/><linearGradient id="e" gradientUnits="userSpaceOnUse" x1="1.000001" x2="15.000003" xlink:href="#a" y1="4.500014" y2="4.500014"/><path d="m1.875 1c-.484375 0-.875.390625-.875.875v12.25c0 .484375.390625.875.875.875h12.25c.484375 0 .875-.390625.875-.875v-12.25c0-.484375-.390625-.875-.875-.875zm0 0" fill="url(#b)"/><path d="m2 2h12v12h-12zm0 0" fill="url(#c)"/><path d="m4 1h1v14h-1zm0 0" fill="url(#d)"/><path d="m1 4h14v1h-14zm0 0" fill="url(#e)"/></svg>