<svg height="16pt" viewBox="0 0 16 16" width="16pt" xmlns="http://www.w3.org/2000/svg" xmlns:xlink="http://www.w3.org/1999/xlink"><linearGradient id="a" gradientUnits="userSpaceOnUse" x1="1" x2="15" y1="8" y2="8"><stop offset="0" stop-color="#7c9fcf"/><stop offset=".5" stop-color="#7c9ece"/><stop offset="1" stop-color="#7b9dcf"/></linearGradient><linearGradient id="b" gradientUnits="userSpaceOnUse" x1="9.41291" x2="9.105553" y1="25.125175" y2="-4.28978"><stop offset="0" stop-color="#fff"/><stop offset=".425971" stop-color="#fff"/><stop offset=".589278" stop-color="#f1f1f1"/><stop offset=".802198" stop-color="#eaeaea"/><stop offset="1" stop-color="#dfdfdf"/></linearGradient><path d="m8 1c-1.832031 0-3.652344.753906-4.949219 2.050781s-2.050781 3.117188-2.050781 4.949219.753906 3.652344 2.050781 4.949219 3.117188 2.050781 4.949219 2.050781h6c.550781 0 1-.449219 1-1v-2c0-.449219-.300781-.84375-.734375-.964844.457031-.945312.734375-1.980468.734375-3.035156 0-1.832031-.753906-3.652344-2.050781-4.949219s-3.117188-2.050781-4.949219-2.050781zm0 0" fill="url(#a)"/><path d="m8 2c-3.3125 0-6 2.6875-6 6s2.6875 6 6 6h6v-2h-1.535156c.984375-1.097656 1.53125-2.523438 1.535156-4 0-3.3125-2.6875-6-6-6zm0 0" fill="url(#b)"/></svg>