<svg height="16pt" viewBox="0 0 16 16" width="16pt" xmlns="http://www.w3.org/2000/svg" xmlns:xlink="http://www.w3.org/1999/xlink"><linearGradient id="a" gradientTransform="matrix(0 .125 -.125 0 16.03479 .03479)" gradientUnits="userSpaceOnUse" x1="-.009766" x2="128.00977" y1="64.27832" y2="64.27832"><stop offset="0" stop-color="#7c9fcf"/><stop offset=".5" stop-color="#7c9ece"/><stop offset="1" stop-color="#7b9dcf"/></linearGradient><linearGradient id="b"><stop offset="0" stop-color="#fff"/><stop offset=".425971" stop-color="#fff"/><stop offset=".589278" stop-color="#f1f1f1"/><stop offset=".802198" stop-color="#eaeaea"/><stop offset="1" stop-color="#dfdfdf"/></linearGradient><linearGradient id="c" gradientTransform="matrix(0 .120315 -.125 0 15.458278 .334754)" gradientUnits="userSpaceOnUse" x1="130.20201" x2="-27.716877" xlink:href="#b" y1="67.666222" y2="67.666222"/><linearGradient id="d" gradientTransform="matrix(0 .120315 -.137502 0 16.501795 .33512)" gradientUnits="userSpaceOnUse" x1="5.8181" x2="122.1801" xlink:href="#b" y1="24.00135" y2="24.00135"/><path d="m16.035156 8.035156c0-1.90625-.214844-3.796875-.625-5.226562-.203125-.710938-.445312-1.316406-.785156-1.808594s-.871094-.9648438-1.589844-.9648438h-1.21875c-.011718 0-.023437 0-.03125 0h-8.972656c-.003906 0-.007812 0-.011719 0-.003906 0-.011719 0-.015625 0s-.007812 0-.011718 0c-.089844.0039063-.179688.0195313-.265626.046875-.605468.1132808-1.019531.5507808-1.285156.9804688-.300781.492188-.511718 1.078125-.691406 1.769531-.363281 1.386719-.5664062 3.199219-.5664062 5.203125s.2031252 3.8125.5664062 5.199219c.179688.695313.390625 1.28125.691406 1.773437.269532.441407.703125.894532 1.339844.988282.066406.019531.136719.03125.210938.039062h.011718.023438.027344.105468-.011718.023437-.007813 8.839844.023438 1.226562c.71875 0 1.25-.472656 1.589844-.964844.339844-.492187.582031-1.097656.785156-1.8125.410156-1.425781.625-3.316406.625-5.222656zm0 0" fill="url(#a)"/><path d="m11.351562 15.035156c-.773437-1.109375-1.316406-3.144531-1.316406-7 .003906-3.859375.640625-6.394531 1.316406-7h-8.539062v.003906c-.007812 0-.019531-.003906-.027344-.003906-1.003906 0-1.820312 3.132813-1.820312 7 0 3.867188.816406 7 1.820312 7 .015625 0 .035156-.003906.050782-.007812v.007812h.105468.003906zm0 0" fill="url(#c)" fill-rule="evenodd"/><path d="m13.201562 15.035157c1.105469 0 2.000001-3.132814 2.000001-7.0000017 0-3.8671879-.894532-7.0000001-2.000001-7.0000001s-2 3.1328122-2 7.0000001c0 3.8671877.894531 7.0000017 2 7.0000017zm0 0" fill="url(#d)"/></svg>