<svg height="16pt" viewBox="0 0 16 16" width="16pt" xmlns="http://www.w3.org/2000/svg" xmlns:xlink="http://www.w3.org/1999/xlink"><linearGradient id="a"><stop offset="0" stop-color="#7c9fcf"/><stop offset=".5" stop-color="#7c9ece"/><stop offset="1" stop-color="#7b9dcf"/></linearGradient><linearGradient id="b" gradientUnits="userSpaceOnUse" x1="1.016522" x2="14.982804" xlink:href="#a" y1="12.000371" y2="12.000371"/><linearGradient id="c"><stop offset="0" stop-color="#fff"/><stop offset=".506438" stop-color="#fff"/><stop offset=".822961" stop-color="#f1f1f1"/><stop offset=".90625" stop-color="#eaeaea"/><stop offset="1" stop-color="#dfdfdf"/></linearGradient><linearGradient id="d" gradientUnits="userSpaceOnUse" x1="8.000001" x2="8.000001" xlink:href="#c" y1="16.000028" y2=".000025"/><linearGradient id="e" gradientTransform="matrix(.472441 0 0 -.472441 0 140.35138)" gradientUnits="userSpaceOnUse" x1="2.151637" x2="31.713598" xlink:href="#a" y1="288.53406" y2="288.53406"/><linearGradient id="f" gradientTransform="matrix(.472441 0 0 -.472441 0 140.35138)" gradientUnits="userSpaceOnUse" x1="16.933334" x2="16.933334" xlink:href="#c" y1="263.21042" y2="297.07709"/><g fill-rule="evenodd"><path d="m7.984375 8.019531c-.253906.003907-.5.105469-.679687.285157l-6 6c-.28125.28125-.367188.703124-.214844 1.070312s.511718.609375.910156.609375h12c.398438 0 .757812-.242187.90625-.609375.152344-.367188.070312-.789062-.210938-1.070312l-6-6c-.1875-.1875-.445312-.289063-.710937-.285157zm0 0" fill="url(#b)"/><path d="m2 15 6-6 6 6zm0 0" fill="url(#d)"/><path d="m7.984375 8.019531c-.253906-.003906-.5-.109375-.679687-.289062l-6-6c-.28125-.28125-.367188-.703125-.214844-1.070313.152344-.367187.511718-.6054685.910156-.6054685h12c.398438 0 .757812.2382815.90625.6054685.152344.367188.070312.789063-.210938 1.070313l-6 6c-.1875.1875-.445312.292969-.710937.289062zm0 0" fill="url(#e)"/><path d="m2 1.035156 6 6 6-6zm0 0" fill="url(#f)"/></g></svg>