<svg height="16pt" viewBox="0 0 16 16" width="16pt" xmlns="http://www.w3.org/2000/svg" xmlns:xlink="http://www.w3.org/1999/xlink"><linearGradient id="a"><stop offset="0" stop-color="#7c9fcf"/><stop offset=".5" stop-color="#7c9ece"/><stop offset="1" stop-color="#7b9dcf"/></linearGradient><linearGradient id="b" gradientUnits="userSpaceOnUse" x1="4.99933" x2="19.000009" xlink:href="#a" y1="4.135092" y2="4.135092"/><linearGradient id="c"><stop offset="0" stop-color="#fff"/><stop offset=".506438" stop-color="#fff"/><stop offset=".822961" stop-color="#f1f1f1"/><stop offset=".90625" stop-color="#eaeaea"/><stop offset="1" stop-color="#dfdfdf"/></linearGradient><linearGradient id="d" gradientUnits="userSpaceOnUse" x1="12.000011" x2="12.000011" xlink:href="#c" y1="10.857232" y2="-2.857076"/><linearGradient id="e" gradientUnits="userSpaceOnUse" x1="2.999581" x2="17.00026" xlink:href="#a" y1="6.135078" y2="6.135078"/><linearGradient id="f" gradientUnits="userSpaceOnUse" x1="10.000262" x2="10.000262" xlink:href="#c" y1="12.857218" y2="-.85709"/><linearGradient id="g" gradientUnits="userSpaceOnUse" x1=".999581" x2="15.00026" xlink:href="#a" y1="8.135076" y2="8.135076"/><linearGradient id="h" gradientUnits="userSpaceOnUse" x1="8.000262" x2="8.000262" xlink:href="#c" y1="14.857216" y2="1.142908"/><path d="m6 0c-.554688 0-1 .449219-1 1v9c0 .476562.332031.882812.796875.980469.40625-.03125 2.386719 1.648437 4.09375-1.484375.726563-.644532 1.367187-.914063 2.125-.992188.78125-.078125.578125-.21875 1.730469.105469.636718.175781 1.269531-.304687 1.269531-.964844l-.015625-6.644531c0-.550781-.449219-1-1-1zm0 0" fill="url(#b)"/><path d="m6 1h8l.015625 6.644531c-2.414063-.675781-3.089844-.453125-4.859375 1.148438-1.050781 2.507812-2.007812 1.453125-3.15625 1.207031zm0 0" fill="url(#d)"/><path d="m4 2c-.550781 0-1 .449219-1 1v9c0 .476562.332031.882812.796875.980469.40625-.03125 2.386719 1.648437 4.09375-1.484375.726563-.644532 1.367187-.914063 2.125-.992188.78125-.078125.578125-.21875 1.730469.105469.640625.175781 1.269531-.304687 1.269531-.964844l-.015625-6.644531c0-.550781-.449219-1-1-1zm0 0" fill="url(#e)"/><path d="m4 3h8l.015625 6.644531c-2.414063-.675781-3.089844-.453125-4.859375 1.148438-1.050781 2.507812-2.007812 1.453125-3.15625 1.207031zm0 0" fill="url(#f)"/><path d="m2 4c-.550781 0-1 .449219-1 1v9c0 .476562.332031.882812.796875.980469.40625-.03125 2.386719 1.648437 4.09375-1.484375.726563-.644532 1.367187-.914063 2.125-.992188.78125-.078125.578125-.21875 1.730469.105469.640625.175781 1.269531-.304687 1.269531-.964844l-.015625-6.644531c0-.550781-.449219-1-1-1zm0 0" fill="url(#g)"/><path d="m2 5h8l.015625 6.644531c-2.414063-.675781-3.089844-.453125-4.859375 1.148438-1.050781 2.507812-2.007812 1.453125-3.15625 1.207031zm0 0" fill="url(#h)"/></svg>