<svg height="16pt" viewBox="0 0 16 16" width="16pt" xmlns="http://www.w3.org/2000/svg" xmlns:xlink="http://www.w3.org/1999/xlink"><linearGradient id="a" gradientUnits="userSpaceOnUse" x1=".999323" x2="15.000002" y1="8.135085" y2="8.135085"><stop offset="0" stop-color="#7c9fcf"/><stop offset=".5" stop-color="#7c9ece"/><stop offset="1" stop-color="#7b9dcf"/></linearGradient><linearGradient id="b" gradientUnits="userSpaceOnUse" x1="8.000005" x2="8.000005" y1="14.857224" y2="1.142916"><stop offset="0" stop-color="#fff"/><stop offset=".506438" stop-color="#fff"/><stop offset=".822961" stop-color="#f1f1f1"/><stop offset=".90625" stop-color="#eaeaea"/><stop offset="1" stop-color="#dfdfdf"/></linearGradient><path d="m2 1c-.554688 0-1 .449219-1 1v12c0 .476562.332031.882812.796875.980469 2.171875.449219 3.707031.363281 4.871094-.175781 1.054687-.492188 1.640625-1.328126 2.0625-2.105469.726562-.640625 1.371093-.910157 2.128906-.988281.78125-.078126 1.71875.070312 2.871094.390624.300781.085938.625.023438.875-.167968.25-.1875.394531-.480469.394531-.792969v-9.140625c0-.550781-.449219-1-1-1zm0 0" fill="url(#a)"/><path d="m2 2h12v9.136719c-2.414062-.671875-4.230469-.738281-6 .863281-.785156 1.539062-1.890625 2.851562-6 2zm0 0" fill="url(#b)"/></svg>