<svg height="16pt" viewBox="0 0 16 16" width="16pt" xmlns="http://www.w3.org/2000/svg" xmlns:xlink="http://www.w3.org/1999/xlink"><linearGradient id="a" gradientUnits="userSpaceOnUse" x1=".999323" x2="15.000002" y1="8.00061" y2="8.00061"><stop offset="0" stop-color="#7c9fcf"/><stop offset=".5" stop-color="#7c9ece"/><stop offset="1" stop-color="#7b9dcf"/></linearGradient><linearGradient id="b" gradientUnits="userSpaceOnUse" x1="8.000005" x2="8.000005" y1="14.857224" y2="1.142916"><stop offset="0" stop-color="#fff"/><stop offset=".506438" stop-color="#fff"/><stop offset=".822961" stop-color="#f1f1f1"/><stop offset=".90625" stop-color="#eaeaea"/><stop offset="1" stop-color="#dfdfdf"/></linearGradient><path d="m13.96875 1c-.097656.003906-.191406.019531-.285156.050781l-12 4c-.410156.136719-.683594.519531-.683594.949219v8c0 .554688.445312 1 1 1h12c.550781 0 1-.445312 1-1v-12c0-.269531-.109375-.527344-.304688-.71875-.191406-.1875-.453124-.289062-.726562-.28125zm0 0" fill="url(#a)"/><path d="m14 2v12h-12v-8zm0 0" fill="url(#b)"/></svg>