<svg height="16pt" viewBox="0 0 16 16" width="16pt" xmlns="http://www.w3.org/2000/svg" xmlns:xlink="http://www.w3.org/1999/xlink"><linearGradient id="a" gradientUnits="userSpaceOnUse" x1=".000244" x2="16" y1="8" y2="8"><stop offset="0" stop-color="#7c9fcf"/><stop offset=".5" stop-color="#7c9ece"/><stop offset="1" stop-color="#7b9dcf"/></linearGradient><linearGradient id="b" gradientUnits="userSpaceOnUse" x1="9.001127" x2="9.001127" y1="15.237147" y2=".762907"><stop offset="0" stop-color="#fff"/><stop offset=".506438" stop-color="#fff"/><stop offset=".822961" stop-color="#f1f1f1"/><stop offset=".90625" stop-color="#eaeaea"/><stop offset="1" stop-color="#dfdfdf"/></linearGradient><path d="m1 1c-.550781 0-1 .449219-1 1v12c0 .550781.449219 1 1 1h8.222656c.074219 0 .148438-.007812.21875-.023438 1.722656-.113281 3.398438-.878906 4.597656-2.121093 1.242188-1.289063 1.960938-3.066407 1.960938-4.855469-.003906-1.789062-.722656-3.566406-1.960938-4.851562-1.195312-1.238282-2.859374-2.003907-4.574218-2.117188-.082032-.019531-.160156-.03125-.242188-.03125zm0 0" fill="url(#a)"/><path d="m1 2v12h8.222656v-.007812c3.222656-.121094 5.777344-2.765626 5.777344-5.992188-.003906-3.222656-2.554688-5.867188-5.777344-5.988281v-.011719zm0 0" fill="url(#b)"/></svg>