<?xml version="1.0" encoding="UTF-8" standalone="no"?>
<svg
   xmlns:dc="http://purl.org/dc/elements/1.1/"
   xmlns:cc="http://creativecommons.org/ns#"
   xmlns:rdf="http://www.w3.org/1999/02/22-rdf-syntax-ns#"
   xmlns:svg="http://www.w3.org/2000/svg"
   xmlns="http://www.w3.org/2000/svg"
   xmlns:xlink="http://www.w3.org/1999/xlink"
   xmlns:sodipodi="http://sodipodi.sourceforge.net/DTD/sodipodi-0.dtd"
   xmlns:inkscape="http://www.inkscape.org/namespaces/inkscape"
   height="16"
   width="16"
   version="1.1"
   id="svg491"
   sodipodi:docname="sc_glueinsertpoint.svg"
   inkscape:version="0.92.4 (unknown)"
   inkscape:export-filename="/home/rizmut/Dokumen/Rizmut/Github/libreoffice-style-karasa-jaga/build/next/cmd/sc_glueinsertpoint.png"
   inkscape:export-xdpi="96"
   inkscape:export-ydpi="96">
  <metadata
     id="metadata497">
    <rdf:RDF>
      <cc:Work
         rdf:about="">
        <dc:format>image/svg+xml</dc:format>
        <dc:type
           rdf:resource="http://purl.org/dc/dcmitype/StillImage" />
        <dc:title></dc:title>
      </cc:Work>
    </rdf:RDF>
  </metadata>
  <defs
     id="defs495">
    <linearGradient
       inkscape:collect="always"
       xlink:href="#a"
       id="linearGradient943"
       gradientUnits="userSpaceOnUse"
       gradientTransform="scale(1.0975951,0.9110828)"
       x1="26.091133"
       y1="14.856744"
       x2="31.500689"
       y2="14.856744" />
    <linearGradient
       inkscape:collect="always"
       xlink:href="#m"
       id="linearGradient945"
       gradientUnits="userSpaceOnUse"
       x1="88.606247"
       y1="13.510336"
       x2="91.575104"
       y2="13.510336"
       spreadMethod="reflect" />
    <linearGradient
       inkscape:collect="always"
       xlink:href="#m"
       id="linearGradient947"
       gradientUnits="userSpaceOnUse"
       x1="88.606247"
       y1="13.510336"
       x2="91.575104"
       y2="13.510336"
       spreadMethod="reflect" />
  </defs>
  <sodipodi:namedview
     pagecolor="#ffffff"
     bordercolor="#666666"
     borderopacity="1"
     objecttolerance="10"
     gridtolerance="10"
     guidetolerance="10"
     inkscape:pageopacity="0"
     inkscape:pageshadow="2"
     inkscape:window-width="1366"
     inkscape:window-height="714"
     id="namedview493"
     showgrid="true"
     inkscape:zoom="14.461914"
     inkscape:cx="0.78920798"
     inkscape:cy="10.700513"
     inkscape:window-x="0"
     inkscape:window-y="28"
     inkscape:window-maximized="1"
     inkscape:current-layer="g941">
    <inkscape:grid
       type="xygrid"
       id="grid914" />
  </sodipodi:namedview>
  <linearGradient
     id="a">
    <stop
       offset="0"
       stop-color="#fff"
       id="stop380" />
    <stop
       offset="1"
       stop-color="#fff"
       stop-opacity="0"
       id="stop382" />
  </linearGradient>
  <linearGradient
     id="b"
     gradientTransform="matrix(0.06477706,0,0,0.1431311,-68.204115,-54.65389)"
     gradientUnits="userSpaceOnUse"
     x1="399.77466"
     x2="399.77466"
     y1="1164.6696"
     y2="549.06134">
    <stop
       offset="0"
       stop-color="#a7a7a9"
       id="stop385" />
    <stop
       offset=".5"
       stop-color="#7d7d83"
       id="stop387" />
    <stop
       offset="1"
       stop-color="#aaaab1"
       id="stop389" />
  </linearGradient>
  <linearGradient
     id="c"
     gradientTransform="matrix(0.5000001,0,0,1.0000001,-64.000001,-132)"
     gradientUnits="userSpaceOnUse"
     x1="-63.999985"
     x2="124.09152"
     y1="135.99998"
     y2="27.999992">
    <stop
       offset="0"
       stop-color="#fff"
       id="stop392" />
    <stop
       offset=".42597079"
       stop-color="#fff"
       id="stop394" />
    <stop
       offset=".5892781"
       stop-color="#f1f1f1"
       id="stop396" />
    <stop
       offset=".80219781"
       stop-color="#eaeaea"
       id="stop398" />
    <stop
       offset="1"
       stop-color="#dfdfdf"
       id="stop400" />
  </linearGradient>
  <linearGradient
     id="d"
     gradientTransform="matrix(1.9227921,0,0,2.0000003,-98.656196,-16)"
     gradientUnits="userSpaceOnUse"
     x1="102.31124"
     x2="74.330322"
     xlink:href="#a"
     y1="-5.8302131"
     y2="32" />
  <linearGradient
     id="e"
     gradientTransform="matrix(0.540151,0.540151,0.48613592,-0.48613592,113.29919,30.671584)"
     gradientUnits="userSpaceOnUse"
     x1="-21.213205"
     x2="48.161743"
     y1="-80.024391"
     y2="-154.92334">
    <stop
       offset="0"
       stop-color="#0968ef"
       id="stop404" />
    <stop
       offset="1"
       stop-color="#aecffc"
       id="stop406" />
  </linearGradient>
  <radialGradient
     id="f"
     cx="84.903702"
     cy="-130.14005"
     gradientTransform="matrix(0.30794145,0.30794145,-0.30794145,0.30794145,46.491338,107.57052)"
     gradientUnits="userSpaceOnUse"
     r="57.039597"
     xlink:href="#g" />
  <linearGradient
     id="g">
    <stop
       offset="0"
       stop-color="#011701"
       id="stop410" />
    <stop
       offset=".80671918"
       stop-color="#145703"
       id="stop412" />
    <stop
       offset="1"
       stop-color="#2fa207"
       stop-opacity=".384314"
       id="stop414" />
  </linearGradient>
  <radialGradient
     id="h"
     cx="43.084476"
     cy="-121.92532"
     gradientTransform="matrix(0.30347528,0.31234377,-0.3628951,0.35259129,39.983519,112.82479)"
     gradientUnits="userSpaceOnUse"
     r="57.039597"
     xlink:href="#g" />
  <radialGradient
     id="i"
     cx="51.991096"
     cy="-78.028419"
     gradientTransform="matrix(0.28232256,0.33158686,-0.56115095,0.47778001,28.065755,119.5934)"
     gradientUnits="userSpaceOnUse"
     r="57.039597"
     xlink:href="#g" />
  <linearGradient
     id="j"
     gradientTransform="scale(1.0975951,0.9110828)"
     gradientUnits="userSpaceOnUse"
     x1="26.091133"
     x2="31.500689"
     xlink:href="#a"
     y1="14.856744"
     y2="14.856744" />
  <filter
     id="k"
     height="1.277481"
     width="1.279832"
     x="-0.139916"
     y="-0.138741">
    <feGaussianBlur
       stdDeviation=".28784801"
       id="feGaussianBlur420" />
  </filter>
  <linearGradient
     id="l"
     gradientUnits="userSpaceOnUse"
     x1="304.88663"
     x2="345.62039"
     y1="385.86127"
     y2="384.62384">
    <stop
       offset="0"
       stop-color="#765c44"
       id="stop423" />
    <stop
       offset="1"
       stop-color="#765c44"
       stop-opacity="0"
       id="stop425" />
  </linearGradient>
  <linearGradient
     id="m"
     gradientUnits="userSpaceOnUse"
     spreadMethod="reflect"
     x1="88.606247"
     x2="91.575104"
     y1="13.510336"
     y2="13.510336">
    <stop
       offset="0"
       stop-color="#c8ff87"
       id="stop428" />
    <stop
       offset="1"
       stop-color="#abff87"
       stop-opacity="0"
       id="stop430" />
  </linearGradient>
  <linearGradient
     id="n"
     gradientUnits="userSpaceOnUse"
     spreadMethod="reflect"
     x1="31.606251"
     x2="34.575108"
     y1="13.510336"
     y2="13.510336">
    <stop
       offset="0"
       stop-color="#fff"
       id="stop433" />
    <stop
       offset="1"
       stop-color="#790000"
       stop-opacity="0"
       id="stop435" />
  </linearGradient>
  <radialGradient
     id="o"
     cx="50.424522"
     cy="-81.945961"
     gradientTransform="matrix(0.30794145,0.30794145,-0.30794145,0.30794145,46.491337,107.57052)"
     gradientUnits="userSpaceOnUse"
     r="50.15279">
    <stop
       offset="0"
       stop-color="#7ae91e"
       stop-opacity=".996078"
       id="stop438" />
    <stop
       offset="1"
       stop-color="#62c916"
       id="stop440" />
  </radialGradient>
  <filter
     id="p"
     height="1.024"
     width="1.024"
     x="-0.012"
     y="-0.012"
     style="color-interpolation-filters:sRGB">
    <feGaussianBlur
       stdDeviation=".28192153"
       id="feGaussianBlur443" />
  </filter>
  <linearGradient
     id="q"
     gradientUnits="userSpaceOnUse"
     x1="84.745605"
     x2="97.636749"
     xlink:href="#a"
     y1="48.278454"
     y2="110.57732" />
  <g
     id="g941"
     transform="scale(0.125)">
    <rect
       id="rect447"
       y="8"
       x="-120"
       width="112"
       transform="rotate(-90)"
       rx="3.632653"
       height="112"
       style="fill:url(#b)" />
    <rect
       id="rect449"
       y="-112"
       x="-112"
       width="96"
       transform="matrix(0,-1,-1,0,0,0)"
       rx="1.6"
       height="96"
       style="fill:url(#c);fill-rule:evenodd" />
    <path
       id="path451"
       d="M 77.279287,16 C 56.737011,34.856164 37.480525,55.251232 25.484076,80 H 77.820073 C 80.751312,56.306039 89.901821,34.901688 102.51592,16 Z"
       inkscape:connector-curvature="0"
       style="fill:url(#d);fill-rule:evenodd" />
    <path
       id="path453"
       d="m 46.939453,35.205078 a 6.168783,6.168783 0 0 0 -4.271484,1.806641 l -5.65625,5.65625 a 6.168783,6.168783 0 0 0 0,8.722656 L 49.621094,64 37.011719,76.609375 a 6.168783,6.168783 0 0 0 0,8.722656 l 5.65625,5.65625 a 6.168783,6.168783 0 0 0 8.722656,0 L 64,78.378906 76.609375,90.988281 a 6.168783,6.168783 0 0 0 8.722656,0 l 5.65625,-5.65625 a 6.168783,6.168783 0 0 0 0,-8.722656 L 78.378906,64 90.988281,51.390625 a 6.168783,6.168783 0 0 0 0,-8.722656 l -5.65625,-5.65625 a 6.168783,6.168783 0 0 0 -8.722656,0 L 64,49.621094 51.390625,37.011719 a 6.168783,6.168783 0 0 0 -4.451172,-1.806641 z"
       inkscape:connector-curvature="0"
       style="fill:#ffffff" />
    <path
       id="path455"
       d="M 80.97056,41.372584 63.999996,58.343146 47.029436,41.372583 41.37258,47.029438 58.343142,64.000001 41.37258,80.970564 47.029436,86.627418 63.999996,69.656855 80.97056,86.627418 86.62742,80.970562 69.656851,64.000001 86.62742,47.02944 Z"
       inkscape:connector-curvature="0"
       style="fill:url(#e)" />
    <g
       id="g489"
       transform="translate(-0.12894,-0.120099)">
      <path
         id="path457"
         transform="translate(-3.64254,-3.336931)"
         d="m 90.896484,60.324219 c -4.022451,-1.17e-4 -7.375114,3.352553 -7.375,7.375 V 83.208984 H 68.013672 c -4.019003,-1.16e-4 -7.375117,3.350604 -7.375,7.373047 v 10.619139 c -1.17e-4,4.02244 3.355991,7.37317 7.375,7.37305 h 15.507812 v 15.50976 c -1.21e-4,4.02245 3.355991,7.37317 7.375,7.37305 h 10.617186 c 4.01901,1.2e-4 7.37512,-3.35059 7.375,-7.37305 v -15.50976 h 15.50781 c 4.01903,1.2e-4 7.37513,-3.3506 7.375,-7.37305 V 90.582031 c 1.3e-4,-4.02246 -3.35599,-7.373163 -7.375,-7.373047 H 108.88867 V 67.699219 c 1.2e-4,-4.022461 -3.35255,-7.375117 -7.375,-7.375 z"
         inkscape:connector-curvature="0"
         style="fill:#033d03" />
      <path
         id="path459"
         d="m 123.75362,87.246019 c 5e-5,-1.656397 -1.34274,-2.99918 -2.99913,-2.999132 H 100.87057 V 64.362116 c 5e-5,-1.656396 -1.34274,-2.99918 -2.99913,-2.999132 l -10.617743,5e-6 c -1.656393,-4.8e-5 -2.999178,1.342735 -2.999131,2.999127 v 19.884771 h -19.88392 c -1.656396,-4.8e-5 -2.99918,1.342735 -2.999132,2.999132 v 10.61774 c -4.8e-5,1.6564 1.342736,2.999181 2.999132,2.999131 h 19.88392 v 19.88392 c -5e-5,1.6564 1.342736,2.99918 2.999132,2.99913 H 97.87144 c 1.65639,5e-5 2.99918,-1.34273 2.99913,-2.99913 v -19.88392 h 19.88392 c 1.6564,5e-5 2.99918,-1.342741 2.99913,-2.999131 z"
         inkscape:connector-curvature="0"
         style="fill:#1f5623;fill-opacity:0.90588199" />
      <path
         id="path461"
         d="m 123.75362,87.246019 c 5e-5,-1.656397 -1.34274,-2.99918 -2.99913,-2.999132 H 100.87057 V 64.362116 c 5e-5,-1.656396 -1.34274,-2.99918 -2.99913,-2.999132 l -10.617743,5e-6 c -1.656393,-4.8e-5 -2.999178,1.342735 -2.999131,2.999127 v 19.884771 h -19.88392 c -1.656396,-4.8e-5 -2.99918,1.342735 -2.999132,2.999132 v 10.61774 c -4.8e-5,1.6564 1.342736,2.999181 2.999132,2.999131 h 19.88392 v 19.88392 c -5e-5,1.6564 1.342736,2.99918 2.999132,2.99913 H 97.87144 c 1.65639,5e-5 2.99918,-1.34273 2.99913,-2.99913 v -19.88392 h 19.88392 c 1.6564,5e-5 2.99918,-1.342741 2.99913,-2.999131 z"
         inkscape:connector-curvature="0"
         style="fill:url(#f)" />
      <path
         id="path463"
         d="m 123.75362,87.246019 c 5e-5,-1.656397 -1.34274,-2.99918 -2.99913,-2.999132 H 100.87057 V 64.362116 c 5e-5,-1.656396 -1.34274,-2.99918 -2.99913,-2.999132 l -10.617743,5e-6 c -1.656393,-4.8e-5 -2.999178,1.342735 -2.999131,2.999127 v 19.884771 h -19.88392 c -1.656396,-4.8e-5 -2.99918,1.342735 -2.999132,2.999132 v 10.61774 c -4.8e-5,1.6564 1.342736,2.999181 2.999132,2.999131 h 19.88392 v 19.88392 c -5e-5,1.6564 1.342736,2.99918 2.999132,2.99913 H 97.87144 c 1.65639,5e-5 2.99918,-1.34273 2.99913,-2.99913 v -19.88392 h 19.88392 c 1.6564,5e-5 2.99918,-1.342741 2.99913,-2.999131 z"
         inkscape:connector-curvature="0"
         style="fill:#066704" />
      <path
         id="path465"
         d="m 123.75362,87.246019 c 5e-5,-1.656397 -1.34274,-2.99918 -2.99913,-2.999132 H 100.87057 V 64.362116 c 5e-5,-1.656396 -1.34274,-2.99918 -2.99913,-2.999132 l -10.617743,5e-6 c -1.656393,-4.8e-5 -2.999178,1.342735 -2.999131,2.999127 v 19.884771 h -19.88392 c -1.656396,-4.8e-5 -2.99918,1.342735 -2.999132,2.999132 v 10.61774 c -4.8e-5,1.6564 1.342736,2.999181 2.999132,2.999131 h 19.88392 v 19.88392 c -5e-5,1.6564 1.342736,2.99918 2.999132,2.99913 H 97.87144 c 1.65639,5e-5 2.99918,-1.34273 2.99913,-2.99913 v -19.88392 h 19.88392 c 1.6564,5e-5 2.99918,-1.342741 2.99913,-2.999131 z"
         inkscape:connector-curvature="0"
         style="fill:url(#h)" />
      <path
         id="path467"
         d="m 123.75362,87.246019 c 5e-5,-1.656397 -1.34274,-2.99918 -2.99913,-2.999132 H 100.87057 V 64.362116 c 5e-5,-1.656396 -1.34274,-2.99918 -2.99913,-2.999132 l -10.617743,5e-6 c -1.656393,-4.8e-5 -2.999178,1.342735 -2.999131,2.999127 v 19.884771 h -19.88392 c -1.656396,-4.8e-5 -2.99918,1.342735 -2.999132,2.999132 v 10.61774 c -4.8e-5,1.6564 1.342736,2.999181 2.999132,2.999131 h 19.88392 v 19.88392 c -5e-5,1.6564 1.342736,2.99918 2.999132,2.99913 H 97.87144 c 1.65639,5e-5 2.99918,-1.34273 2.99913,-2.99913 v -19.88392 h 19.88392 c 1.6564,5e-5 2.99918,-1.342741 2.99913,-2.999131 z"
         inkscape:connector-curvature="0"
         style="fill:url(#i)" />
      <g
         id="g481"
         style="fill-rule:evenodd">
        <path
           id="path469"
           transform="matrix(-0.64954358,0.64954358,0.6557809,0.6557809,76.701663,57.763298)"
           d="m 31.7,16 2.875,-3.375 c -1.051205,-1.695758 -3.935136,-2.288018 -5.9375,-0.3125 l 2.8125,3.375 z"
           inkscape:connector-curvature="0"
           style="opacity:0.498127;fill:url(#linearGradient943);filter:url(#k)" />
        <path
           id="path471"
           transform="matrix(-0.6476361,-0.6476361,0.64147625,-0.64147625,99.166281,149.43433)"
           d="m 31.7,16 2.875,-3.375 c -1.051205,-1.695758 -3.935136,-2.288018 -5.9375,-0.3125 l 2.8125,3.375 z"
           inkscape:connector-curvature="0"
           style="opacity:0.79026196;fill:url(#j);filter:url(#k)" />
        <path
           id="path473"
           transform="matrix(-0.58819378,0.58819378,-0.59384198,-0.59384198,124.77757,109.70474)"
           d="m 31.7,16 2.875,-3.375 c -1.051205,-1.695758 -3.935136,-2.288018 -5.9375,-0.3125 l 2.8125,3.375 z"
           inkscape:connector-curvature="0"
           style="opacity:0.498127;fill:url(#l);filter:url(#k)" />
        <path
           id="path475"
           transform="matrix(-0.59384198,-0.59384198,0.58819378,-0.58819378,109.16011,158.42153)"
           d="m 88.7,16 2.875,-3.375 c -1.051205,-1.695758 -3.935136,-2.288018 -5.9375,-0.3125 l 2.8125,3.375 z"
           inkscape:connector-curvature="0"
           style="opacity:0.79026196;fill:url(#linearGradient945);filter:url(#k)" />
        <path
           id="path477"
           transform="matrix(-0.54004786,-0.54004786,-0.53491131,0.53491131,144.9962,96.825516)"
           d="m 31.7,16 2.875,-3.375 c -1.051205,-1.695758 -3.935136,-2.288018 -5.9375,-0.3125 l 2.8125,3.375 z"
           inkscape:connector-curvature="0"
           style="opacity:0.79026196;fill:url(#n);filter:url(#k)" />
        <path
           id="path479"
           transform="matrix(-0.55444337,-0.55444337,-0.5491699,0.5491699,154.52392,106.08385)"
           d="m 88.7,16 2.875,-3.375 c -1.051205,-1.695758 -3.935136,-2.288018 -5.9375,-0.3125 l 2.8125,3.375 z"
           inkscape:connector-curvature="0"
           style="opacity:0.79026196;fill:url(#linearGradient947);filter:url(#k)" />
      </g>
      <path
         id="path483"
         d="M 120.75449,87.246019 H 97.87144 V 64.362121 l -10.617741,-5e-6 -10e-7,22.883903 H 64.370646 v 10.61774 H 87.253698 V 120.74681 H 97.87144 V 97.863759 h 22.88305 z"
         inkscape:connector-curvature="0"
         style="fill:url(#o)" />
      <path
         id="path485"
         d="m 97.87185,64.362208 -10.617965,-5e-6 v 22.884181 l -22.883579,-4.35e-4 v 10.61797 h 22.882977 l 10e-7,22.882971 H 97.87125 V 97.863919 l 22.88298,-10e-6 -1e-5,-10.617956 H 97.87125 Z m -0.75422,0.754216 -6.1e-4,22.129359 c -4e-5,0.41656 0.33766,0.754256 0.75422,0.754217 H 120 v 9.109529 H 97.87124 c -0.41656,-4e-5 -0.75426,0.33766 -0.75422,0.75422 V 119.99251 H 88.00749 V 97.863749 c 4e-5,-0.41656 -0.337657,-0.75426 -0.754216,-0.75422 h -22.12876 v -9.109534 l 22.129362,4.36e-4 c 0.416558,3.9e-5 0.754257,-0.337657 0.754216,-0.754216 V 65.116254 Z"
         inkscape:connector-curvature="0"
         style="fill:#eef4ca;fill-opacity:0.77941165;filter:url(#p)" />
      <path
         id="path487"
         d="M 87.253944,64.362288 V 87.2451 H 64.371132 v 6.925781 a 65.433395,38.789856 0 0 0 17.794922,1.498047 65.433395,38.789856 0 0 0 38.587886,-7.521484 V 87.2451 H 97.87113 V 64.362288 Z"
         inkscape:connector-curvature="0"
         style="fill:url(#q)" />
    </g>
  </g>
</svg>
