<svg height="16" viewBox="0 0 4.2333333 4.2333335" width="16" xmlns="http://www.w3.org/2000/svg"><g transform="scale(.125)"><g stroke-width=".468727" transform="translate(0 -263.13332)"><path d="m8.9749147 273.11349h-5.2684938l-1.4436798 4.10605h-1.85615977l4.87476297-13.66808h2.2498906l4.7997661 13.66808h-1.949905zm-.4874763-1.46243-2.0998979-6.22469-2.2498906 6.22469z"/><path d="m25.370295 273.31973q0 1.76242-1.106196 2.83112-1.106196 1.06869-2.924858 1.06869h-6.16845v-13.66808h5.54973q1.143694 0 1.987403.33748.843709.33749 1.256189.89996.431229.54372.61872 1.10619.187491.54373.187491 1.12495 0 2.0999-1.893658 2.9811 1.312436.50623 1.893658 1.29369.599971.78746.599971 2.0249zm-5.081003-3.88106q2.737367 0 2.737367-2.17489 0-2.1749-2.737367-2.1749h-3.374836v4.34979zm.881207 6.24345q.918706 0 1.499927-.39373.581222-.41248.768713-.89996.187491-.48748.187491-1.04995 0-1.0687-.637469-1.70616-.637469-.65622-1.818662-.65622h-4.256043v4.70602z"/></g><path d="m27.516666 8.46666h6.35v2.11667h-6.35z" fill="#252525" fill-opacity=".942892"/><g stroke-width=".468727" transform="translate(0 -263.13332)"><path d="m.19495154 289.00928q0-.93745.14999271-1.85616.16874179-.9187.61871991-1.9124.44997814-.9937 1.10619624-1.72492.6749672-.74996 1.7999124-1.23744 1.1436944-.48747 2.5686251-.48747 4.4622831 0 5.2684941 4.46228h-1.7811636q-.2999854-1.46243-1.1811926-2.19364-.8812071-.73122-2.5123778-.73122-1.9874034 0-3.1498469 1.51868-1.1436943 1.51867-1.1436943 4.14355 0 2.56862 1.1999416 4.0873 1.1999417 1.49992 3.2435923 1.49992 1.6874179 0 2.5873742-.93745.8999562-.9562 1.2186911-2.94361h1.799912q-.61872 5.41849-5.6247264 5.41849-1.4061816 0-2.5311269-.46873-1.1061962-.48747-1.7811634-1.21869-.6562181-.73121-1.10619622-1.70617-.43122904-.9937-.59997083-1.89365-.14999271-.89996-.14999271-1.81867z"/><path d="m15.296059 295.68396v-13.66809h5.268494q2.606123 0 4.087301 1.81867 1.481178 1.81866 1.481178 5.006 0 3.18735-1.499927 5.02476-1.481178 1.81866-4.068552 1.81866zm1.743665-1.53743h3.224843q2.024902 0 3.074851-1.34993 1.049949-1.34993 1.049949-3.93731 0-2.60612-1.049949-3.95606-1.049949-1.34993-3.074851-1.34993h-3.224843z"/></g></g></svg>