<?xml version="1.0" encoding="UTF-8" standalone="no"?>
<svg
   xmlns:dc="http://purl.org/dc/elements/1.1/"
   xmlns:cc="http://creativecommons.org/ns#"
   xmlns:rdf="http://www.w3.org/1999/02/22-rdf-syntax-ns#"
   xmlns:svg="http://www.w3.org/2000/svg"
   xmlns="http://www.w3.org/2000/svg"
   xmlns:sodipodi="http://sodipodi.sourceforge.net/DTD/sodipodi-0.dtd"
   xmlns:inkscape="http://www.inkscape.org/namespaces/inkscape"
   enable-background="new 0 0 128 128"
   height="16"
   viewBox="0 0 16 16"
   width="16"
   version="1.1"
   id="svg69"
   sodipodi:docname="sc_insertfield.svg"
   inkscape:version="0.92.4 (unknown)"
   inkscape:export-filename="/home/rizmut/Dokumen/Rizmut/Github/libreoffice-style-karasa-jaga/build/next/cmd/sc_insertfield.png"
   inkscape:export-xdpi="96"
   inkscape:export-ydpi="96">
  <metadata
     id="metadata75">
    <rdf:RDF>
      <cc:Work
         rdf:about="">
        <dc:format>image/svg+xml</dc:format>
        <dc:type
           rdf:resource="http://purl.org/dc/dcmitype/StillImage" />
        <dc:title></dc:title>
      </cc:Work>
    </rdf:RDF>
  </metadata>
  <defs
     id="defs73" />
  <sodipodi:namedview
     pagecolor="#ffffff"
     bordercolor="#666666"
     borderopacity="1"
     objecttolerance="10"
     gridtolerance="10"
     guidetolerance="10"
     inkscape:pageopacity="0"
     inkscape:pageshadow="2"
     inkscape:window-width="1366"
     inkscape:window-height="706"
     id="namedview71"
     showgrid="true"
     inkscape:zoom="29.5"
     inkscape:cx="5.1081846"
     inkscape:cy="6.0999828"
     inkscape:window-x="0"
     inkscape:window-y="0"
     inkscape:window-maximized="1"
     inkscape:current-layer="g67">
    <inkscape:grid
       type="xygrid"
       id="grid93" />
  </sodipodi:namedview>
  <radialGradient
     id="a"
     cx="102"
     cy="112.3047"
     gradientTransform="matrix(.9787234 0 0 .9818182 1.904079 .621263)"
     gradientUnits="userSpaceOnUse"
     r="139.55859">
    <stop
       offset="0"
       stop-color="#ececec"
       id="stop2" />
    <stop
       offset=".2363"
       stop-color="#fafafa"
       id="stop4" />
    <stop
       offset=".2722"
       stop-color="#fff"
       id="stop6" />
    <stop
       offset=".5313"
       stop-color="#fafafa"
       id="stop8" />
    <stop
       offset=".8449"
       stop-color="#ebecec"
       id="stop10" />
    <stop
       offset="1"
       stop-color="#e1e2e3"
       id="stop12" />
  </radialGradient>
  <radialGradient
     id="b"
     cx="102.542374"
     cy="111.762327"
     gradientUnits="userSpaceOnUse"
     r="139.5585">
    <stop
       offset="0"
       stop-color="#ecf2f5"
       id="stop15" />
    <stop
       offset=".2435"
       stop-color="#fafcfd"
       id="stop17" />
    <stop
       offset=".2722"
       stop-color="#fff"
       id="stop19" />
  </radialGradient>
  <linearGradient
     id="c"
     gradientTransform="matrix(1.8 0 0 1.4960829 -206.36154 -67.61099)"
     gradientUnits="userSpaceOnUse"
     x1="154.64529"
     x2="154.44292"
     y1="106.68593"
     y2="130.74823">
    <stop
       offset="0"
       stop-color="#4c78fd"
       id="stop22" />
    <stop
       offset="1"
       stop-color="#85a2fe"
       id="stop24" />
  </linearGradient>
  <filter
     id="d">
    <feGaussianBlur
       stdDeviation="1.0394514"
       id="feGaussianBlur27" />
  </filter>
  <filter
     id="e">
    <feGaussianBlur
       stdDeviation=".50063244"
       id="feGaussianBlur30" />
  </filter>
  <g
     transform="matrix(.125 0 0 .125 -.067797 .067797)"
     id="g67">
    <path
       d="m14.542374 5.4576272.02148 57.9999998-.02148 58.000003h.04297 63.677734 36.279293v-36.072269-43.855468-36.0722658h-36.279294-63.677734z"
       filter="url(#d)"
       opacity=".715069"
       stroke-width="1.038686"
       id="path33" />
    <path
       d="m14.542374 6.4576272.02148 57.4999998-.02148 57.500003h.04297 63.677734 36.279293v-36.072269-42.855468-36.0722658h-36.279294-63.677734z"
       filter="url(#d)"
       opacity=".835616"
       stroke-width="1.038686"
       id="path35" />
    <path
       d="m24.919999 10.931136v108.137934l58.676001-.0001c.53 0 1.039-.211 1.414-.586l31.484-31.765936c.375-.375.586-.884.586-1.414v-74.371898z"
       filter="url(#e)"
       opacity=".89589"
       transform="matrix(1.0416667 0 0 1.0357143 -9.415959 -3.863907)"
       id="path37" />
    <path
       d="m16.542374 7.4576272v112.0000028h61.171875 34.828121v-34.828128-42.34375-34.8281248h-34.828121z"
       fill="url(#b)"
       id="path39" />
    <path
       d="m25.222062 15.457627c-.539277 0-.980469.44144-.980469.982422l.15039 47.017578-.15039 47.017583c0 .54098.441192.98242.980469.98242h.298828 51.914062 26.128898c.54025 0 .97852-.44144.97852-.98242v-26.230474-41.574218-26.230469c0-.540982-.43827-.982422-.97852-.982422h-26.128898-51.914062z"
       fill="url(#a)"
       id="path41" />
    <g
       fill="#8e8e8e"
       stroke-width="1.722773"
       transform="translate(.542374 -.542373)"
       id="g55">
      <path
         d="m96 24v8h-64v-8z"
         id="path43" />
      <path
         d="m96 40v8h-64v-8z"
         id="path45" />
      <path
         d="m96 56v8h-64v-8z"
         id="path47" />
      <path
         d="m96 72v8h-64v-8z"
         id="path49" />
      <path
         d="m96 88v8h-64v-8z"
         id="path51" />
      <path
         d="m96 104v8h-64v-8z"
         id="path53" />
    </g>
    <g
       transform="translate(8.542374 -12.542373)"
       id="g65">
      <path
         d="m 24,64 c -2.209048,2.21e-4 -3.999779,1.790952 -4,4 v 1.453125 53.091795 c 2.21e-4,2.20905 1.790952,3.99978 4,4 5.880122,0 10.243404,-0.13476 16,-0.13476 2.209048,-2.2e-4 3.999779,-1.79095 4,-4 V 116 h 48 v 6.41016 c 2.21e-4,2.20905 1.790952,3.99978 4,4 5.7566,0 10.11988,0.13476 16,0.13476 2.20905,-2.2e-4 3.99978,-1.79095 4,-4 V 69.453125 68 c -2.2e-4,-2.209048 -1.79095,-3.999779 -4,-4 H 106.18164 96 c -2.209048,2.21e-4 -3.999779,1.790952 -4,4 v 8 H 44 v -8 c -2.21e-4,-2.209048 -1.790952,-3.999779 -4,-4 H 29.818359 Z"
         id="path57"
         inkscape:connector-curvature="0"
         style="fill:#ffffff;fill-opacity:0.89338199;stroke-width:1.868384"
         sodipodi:nodetypes="ccccccccccccccccccccccccc" />
      <path
         d="m24 68v1.453125 53.091805c5.818359 0 10.181641-.13559 16-.13559v-6.40934h-8v-40h8v-8h-10.181641z"
         fill="#333"
         id="path59" />
      <path
         d="m112 68v1.453125 53.091805c-5.81836 0-10.18164-.13559-16-.13559v-6.40934h8v-40h-8v-8h10.18164z"
         fill="#333"
         id="path61" />
      <path
         d="m 40.000002,83.999997 h 56 V 108 h -56 z"
         id="path63"
         inkscape:connector-curvature="0"
         style="fill:url(#c);stroke-width:1.868384"
         sodipodi:nodetypes="ccccc" />
    </g>
  </g>
</svg>
