<svg height="16" width="16" xmlns="http://www.w3.org/2000/svg" xmlns:xlink="http://www.w3.org/1999/xlink"><linearGradient id="a"><stop offset="0" stop-color="#828282"/><stop offset="1" stop-color="#828282" stop-opacity="0"/></linearGradient><linearGradient id="b" gradientTransform="matrix(1.0769499 0 0 1.3043803 2.256411 -.351998)" gradientUnits="userSpaceOnUse" x1="46.048" x2="46.048" y1="128.01709" y2="16.6203"><stop offset="0" stop-color="#c7cdd7"/><stop offset="1" stop-color="#fff"/></linearGradient><linearGradient id="c" gradientTransform="matrix(1.07695 0 0 1.3091052 -3.487181 -28.656871)" gradientUnits="userSpaceOnUse" x1="114.6638" x2="114.6638" y1="101.334" y2="112.0004"><stop offset="0" stop-color="#c9d1dc"/><stop offset="1" stop-color="#c9d1dc" stop-opacity="0"/></linearGradient><linearGradient id="d" gradientTransform="matrix(2 0 0 1.2 -8 -1.599999)" gradientUnits="userSpaceOnUse" x1="8" x2="8" xlink:href="#a" y1="88" y2="108"/><linearGradient id="e" gradientUnits="userSpaceOnUse" x1="67.266975" x2="67.266975" y1="288.20084" y2="-27.950958"><stop offset="0"/><stop offset="1" stop-color="#fff"/></linearGradient><linearGradient id="f" gradientTransform="matrix(2 0 0 1.2 32.000001 -1.599999)" gradientUnits="userSpaceOnUse" x1="8" x2="8" xlink:href="#a" y1="88" y2="108"/><linearGradient id="g" gradientTransform="matrix(2 0 0 1.2 72.000001 -5.599999)" gradientUnits="userSpaceOnUse" x1="8" x2="8" xlink:href="#a" y1="88" y2="108"/><linearGradient id="h" gradientTransform="matrix(2 0 0 1.2 112 -1.599999)" gradientUnits="userSpaceOnUse" x1="8" x2="8" xlink:href="#a" y1="88" y2="108"/><linearGradient id="i" gradientTransform="matrix(.68965515 0 0 1.5254237 -2.758621 -30.11483)" gradientUnits="userSpaceOnUse" x1="56" x2="56.200001" y1="35.741943" y2="30.230833"><stop offset="0" stop-color="#1f620a"/><stop offset="1" stop-color="#3d9c10" stop-opacity=".94902"/></linearGradient><g transform="matrix(.125 0 0 .125 0 .05085)"><path d="m8 104h112v17.4543h-112z" fill="url(#c)" opacity=".764706"/><path d="m8 24h112v80h-112z" fill="url(#b)"/><path d="m0 104h8v24h-8z" fill="url(#d)"/><path d="m0 24v4 20 4 20 4 26.3125 1.6875h8 32 8 32 8 32 8v-1.6875-78.3125h-120zm8 4h32v20h-32zm40 0h32v20h-32zm40 0h32v20h-32zm-80 24h32v20h-32zm40 0h32v20h-32zm40 0h32v20h-32zm-80 24h32v26.3125h-32zm40 0h32v26.3125h-32zm40 0h32v26.3125h-32z" fill="url(#e)"/><path d="m40 104h8v24h-8z" fill="url(#f)"/><path d="m80 100h8v24h-8z" fill="url(#g)"/><path d="m120 104h8v24h-8z" fill="url(#h)"/><path d="m0 0 128-.40678v24.40678l-128 .40678z" fill="url(#i)" stroke-width="1.025679"/><path d="m8 47.5932h80v48h-80z" fill="#55acd1" stroke-width="1.58115"/><g fill="#fff" stroke-width="1.263114"><path d="m49.507572 86.334039v1.263114h-16.369958v-1.263114q1.061015-.151574 1.616786-.151574 2.425179-.151574 2.425179-1.667311 0-1.515737-2.32413-6.87134h-11.368027l-.757868 1.970458q-1.465213 3.789342-1.465213 4.64826 0 .959966.959967 1.465212.959967.454721 3.183048.606295v1.263114h-10.256487v-1.263114q1.818885-.353672 2.627278-1.364164.858917-1.010491 2.324129-4.54721l11.216453-27.687461h1.414688l11.266978 26.57592q1.869408 4.446162 2.829375 5.759801 1.010491 1.263114 2.475704 1.263114zm-25.262281-10.660683h9.852289l-5.102981-12.277469z"/><path d="m72.279152 69.155687q9.75124 2.071507 9.75124 8.942848 0 4.294588-3.890391 6.921865-3.890391 2.576753-10.307011 2.576753h-16.268909v-1.263114q2.778851-.303148 3.587244-.959967.858918-.707344.858918-2.627277v-24.453889q0-1.919933-.909443-2.677802-.909442-.757868-3.536719-.909442v-1.263114h15.61209q6.31557 0 9.700716 2.122032 3.43567 2.071507 3.43567 5.961898 0 2.8799-1.818884 4.64826-1.818884 1.717835-6.214521 2.980949zm-8.184979 1.111541v12.63114q0 1.667311.707344 2.374655.707343.707344 2.374654.707344 6.163997 0 6.163997-7.427111 0-8.286028-7.730258-8.286028zm0-12.833239v11.317502q4.648259-.101049 6.265045-1.465213 1.616786-1.414687 1.616786-5.406128 0-3.587244-1.263114-5.254554-1.263114-1.667311-3.890391-1.667311-1.465212 0-2.122032.55577-.606294.555771-.606294 1.919934z"/></g><path d="m72 35.5932v16h16v56h-16v16h48v-16h-16v-56h16v-16z" fill="#fff" fill-opacity=".941176"/><g stroke-width="2"><path d="m76 39.5932h40v8h-40z"/><path d="m76 111.5932h40v7.99996h-40z"/><path d="m100 47.5932v64h-8v-64z"/></g></g></svg>