<svg height="16" width="16" xmlns="http://www.w3.org/2000/svg" xmlns:xlink="http://www.w3.org/1999/xlink"><linearGradient id="a"><stop offset="0"/><stop offset="1" stop-opacity="0"/></linearGradient><radialGradient id="b" cx="5" cy="11.818009" gradientTransform="matrix(2.4993469 .00000008 -.00000005 1.470204 -7.496734 -6.374886)" gradientUnits="userSpaceOnUse" r="6.801777"><stop offset="0" stop-color="#83fc28"/><stop offset="1" stop-color="#102c07"/></radialGradient><radialGradient id="c" cx="6.5" cy="9.859921" gradientTransform="matrix(.57622679 .07202834 -.06452346 .51618768 3.390722 3.942246)" gradientUnits="userSpaceOnUse" r="7.74912" xlink:href="#a"/><radialGradient id="d" cx="6.713591" cy="4.018276" gradientTransform="matrix(.57622679 .07202834 -.06452346 .51618768 3.390722 3.942246)" gradientUnits="userSpaceOnUse" r="7.74912" xlink:href="#a"/><linearGradient id="e" gradientUnits="userSpaceOnUse" x1="24.999807" x2="23.999807" y1="10.768957" y2="-4.231043"><stop offset="0" stop-color="#005f1e"/><stop offset="1" stop-color="#43943c"/></linearGradient><linearGradient id="f" gradientUnits="userSpaceOnUse" x1="10.001761" x2="12.001761" y1="0" y2="11"><stop offset="0" stop-color="#edffbf"/><stop offset="1" stop-color="#edffbf" stop-opacity="0"/></linearGradient><radialGradient id="g" cx="21.664968" cy="5.806535" gradientTransform="matrix(.57622679 .07202834 -.06452346 .51618768 3.390722 3.942246)" gradientUnits="userSpaceOnUse" r="7.74912" xlink:href="#a"/><linearGradient id="h" gradientUnits="userSpaceOnUse" x1="19.499807" x2="19.999807" y1="9.268957" y2="-1.231043"><stop offset="0" stop-color="#b2ff00"/><stop offset="1" stop-color="#acff00" stop-opacity="0"/></linearGradient><filter id="i" color-interpolation-filters="sRGB" height="1.0552" width="1.042461" x="-.021231" y="-.0276"><feGaussianBlur stdDeviation=".115"/></filter><g transform="matrix(-1 0 0 1 16.001761 0)"><path d="m6.484375 2a1.0001 1.0001 0 0 0 -.6542969.2558594l-4.99999998 4.5a1.0001 1.0001 0 0 0 -.0371094.037109l-.5.5a1.0001 1.0001 0 0 0 0 1.4140624l.5.5a1.0001 1.0001 0 0 0 .0371094.037109l4.99999998 4.5000012a1.0001 1.0001 0 0 0 1.3769531-.03711l1-1a1.0001 1.0001 0 0 0 .060547-1.347656l-1.1328126-1.359375h6.8652344a1.0001 1.0001 0 0 0 1-1v-2a1.0001 1.0001 0 0 0 -1-1h-6.8652344l1.1328125-1.359375a1.0001 1.0001 0 0 0 -.0605469-1.3476562l-1-1a1.0001 1.0001 0 0 0 -.7226562-.2929688z" fill="url(#e)"/><path d="m6.484375 2a1.0001 1.0001 0 0 0 -.6542969.2558594l-4.99999998 4.5a1.0001 1.0001 0 0 0 -.0371094.037109l-.5.5a1.0001 1.0001 0 0 0 0 1.4140624l.5.5a1.0001 1.0001 0 0 0 .0371094.037109l4.99999998 4.5000012a1.0001 1.0001 0 0 0 1.3769531-.03711l1-1a1.0001 1.0001 0 0 0 .060547-1.347656l-1.1328126-1.359375h6.8652344a1.0001 1.0001 0 0 0 1-1v-2a1.0001 1.0001 0 0 0 -1-1h-6.8652344l1.1328125-1.359375a1.0001 1.0001 0 0 0 -.0605469-1.3476562l-1-1a1.0001 1.0001 0 0 0 -.7226562-.2929688z" fill="url(#g)"/><path d="m6.484375 2a1.0001 1.0001 0 0 0 -.6542969.2558594l-4.99999998 4.5a1.0001 1.0001 0 0 0 -.0371094.037109l-.5.5a1.0001 1.0001 0 0 0 0 1.4140624l.5.5a1.0001 1.0001 0 0 0 .0371094.037109l4.99999998 4.5000012a1.0001 1.0001 0 0 0 1.3769531-.03711l1-1a1.0001 1.0001 0 0 0 .060547-1.347656l-1.1328126-1.359375h6.8652344a1.0001 1.0001 0 0 0 1-1v-2a1.0001 1.0001 0 0 0 -1-1h-6.8652344l1.1328125-1.359375a1.0001 1.0001 0 0 0 -.0605469-1.3476562l-1-1a1.0001 1.0001 0 0 0 -.7226562-.2929688z" fill="url(#c)"/><path d="m6.484375 2a1.0001 1.0001 0 0 0 -.6542969.2558594l-4.99999998 4.5a1.0001 1.0001 0 0 0 -.0371094.037109l-.5.5a1.0001 1.0001 0 0 0 0 1.4140624l.5.5a1.0001 1.0001 0 0 0 .0371094.037109l4.99999998 4.5000012a1.0001 1.0001 0 0 0 1.3769531-.03711l1-1a1.0001 1.0001 0 0 0 .060547-1.347656l-1.1328126-1.359375h6.8652344a1.0001 1.0001 0 0 0 1-1v-2a1.0001 1.0001 0 0 0 -1-1h-6.8652344l1.1328125-1.359375a1.0001 1.0001 0 0 0 -.0605469-1.3476562l-1-1a1.0001 1.0001 0 0 0 -.7226562-.2929688z" fill="url(#d)"/><path d="m6.5 3-5 4.5-.5.5.5.5 5 4.5 1-1-2.5-3h9v-2h-9l2.5-3z" fill="url(#b)"/><path d="m9.5019531 3-1 1 2.4999999 3h-8.9999999v1l.5.5h-.5v.0429688c1.27178.0562656 2.9650856.0969138 3.8554688.0976562 3.1557821-.0023309 6.2229991-.3399754 8.8300781-.9550781l-.185547-.1855469z" fill="url(#f)" transform="matrix(-1 0 0 1 16.001761 0)"/><path d="m6.5 3-5 4.5-.5.5.5.5 5 4.5 1-1-2.5-3h9v-2h-9l2.5-3z" fill="none" filter="url(#i)" stroke="url(#h)" stroke-width=".5"/></g></svg>