<?xml version="1.0" encoding="UTF-8" standalone="no"?>
<svg
   xmlns:dc="http://purl.org/dc/elements/1.1/"
   xmlns:cc="http://creativecommons.org/ns#"
   xmlns:rdf="http://www.w3.org/1999/02/22-rdf-syntax-ns#"
   xmlns:svg="http://www.w3.org/2000/svg"
   xmlns="http://www.w3.org/2000/svg"
   xmlns:sodipodi="http://sodipodi.sourceforge.net/DTD/sodipodi-0.dtd"
   xmlns:inkscape="http://www.inkscape.org/namespaces/inkscape"
   height="16"
   viewBox="0 0 4.2333333 4.2333335"
   width="16"
   version="1.1"
   id="svg35"
   sodipodi:docname="sc_notesmasterpage.svg"
   inkscape:version="0.92.3 (2405546, 2018-03-11)"
   inkscape:export-filename="/home/rizmut/Dokumen/Rizmut/Github/libreoffice-style-karasa-jaga/build/next/cmd/sc_notesmasterpage.png"
   inkscape:export-xdpi="96"
   inkscape:export-ydpi="96">
  <metadata
     id="metadata41">
    <rdf:RDF>
      <cc:Work
         rdf:about="">
        <dc:format>image/svg+xml</dc:format>
        <dc:type
           rdf:resource="http://purl.org/dc/dcmitype/StillImage" />
        <dc:title></dc:title>
      </cc:Work>
    </rdf:RDF>
  </metadata>
  <defs
     id="defs39" />
  <sodipodi:namedview
     pagecolor="#ffffff"
     bordercolor="#666666"
     borderopacity="1"
     objecttolerance="10"
     gridtolerance="10"
     guidetolerance="10"
     inkscape:pageopacity="0"
     inkscape:pageshadow="2"
     inkscape:window-width="1366"
     inkscape:window-height="714"
     id="namedview37"
     showgrid="true"
     inkscape:zoom="41.7193"
     inkscape:cx="10.054188"
     inkscape:cy="13.640655"
     inkscape:window-x="0"
     inkscape:window-y="28"
     inkscape:window-maximized="1"
     inkscape:current-layer="svg35">
    <inkscape:grid
       type="xygrid"
       id="grid848" />
  </sodipodi:namedview>
  <filter
     id="a"
     height="1.0264"
     width="1.022"
     x="-0.011"
     y="-0.0132"
     style="color-interpolation-filters:sRGB">
    <feGaussianBlur
       stdDeviation=".1200918"
       id="feGaussianBlur2" />
  </filter>
  <filter
     id="b"
     height="1.132"
     width="1.11"
     x="-0.055"
     y="-0.066"
     style="color-interpolation-filters:sRGB">
    <feGaussianBlur
       stdDeviation=".600459"
       id="feGaussianBlur5" />
  </filter>
  <filter
     id="c"
     height="1.0528001"
     width="1.044"
     x="-0.022"
     y="-0.0264"
     style="color-interpolation-filters:sRGB">
    <feGaussianBlur
       stdDeviation=".2401836"
       id="feGaussianBlur8" />
  </filter>
  <g
     transform="matrix(0.125,0,0,0.125,-1.0715132e-6,-32.891665)"
     id="g33">
    <path
       d="M 2.4287318,271.26587 H 31.437937 v 21.83486 H 2.4287318 Z"
       transform="matrix(0,1.09448,-1.09448,0,325.77732,261.53346)"
       id="path11"
       inkscape:connector-curvature="0"
       style="fill:#a4a4a4;filter:url(#b)" />
    <path
       d="M 1.8599554,271.26588 H 32.006711 v 21.83486 H 1.8599554 Z"
       transform="matrix(0,1.0531812,-1.0531812,0,314.12348,262.23278)"
       id="path13"
       inkscape:connector-curvature="0"
       style="fill:#949494;filter:url(#a)" />
    <path
       d="M 1.7325692,271.26588 H 32.134098 v 21.83486 H 1.7325692 Z"
       transform="matrix(0,1.0080161,-1.0080161,0,301.37865,262.99758)"
       id="path15"
       inkscape:connector-curvature="0"
       style="fill:#313131;filter:url(#c)" />
    <path
       d="m 27.516653,265.24998 v 29.63334 H 6.350013 v -29.63334 z"
       id="path17"
       inkscape:connector-curvature="0"
       style="opacity:0.98999999;fill:#80b3ff" />
    <path
       d="m 24.341653,268.42498 v 23.28334 H 9.524993 v -23.28334 z"
       id="path19"
       inkscape:connector-curvature="0"
       style="opacity:0.98999999;fill:#80b3ff" />
    <g
       id="g31"
       style="fill:#eeeeee">
      <path
         d="m 25.399996,267.36665 v 1.05833 H 8.4666664 v -1.05833 z"
         id="path21"
         inkscape:connector-curvature="0" />
      <path
         d="m 24.341673,268.42499 h 1.05833 v 7.40833 h -1.05833 z"
         id="path23"
         inkscape:connector-curvature="0" />
      <path
         d="m 8.4666434,268.42499 h 1.05833 v 7.40833 h -1.05833 z"
         id="path25"
         inkscape:connector-curvature="0" />
      <path
         d="m 25.400006,274.77499 v 1.05833 H 8.4666764 v -1.05833 z"
         id="path27"
         inkscape:connector-curvature="0" />
      <path
         d="m 25.399999,277.94998 v 2.11667 H 12.7 v -2.11667 z m -12.699999,0 v 2.11667 H 8.4666666 v -2.11667 z m 12.699999,4.23333 v 2.11667 H 12.7 v -2.11667 z m -12.699999,0 v 2.11667 H 8.4666666 v -2.11667 z m 12.699999,4.23334 v 2.11666 H 12.7 v -2.11666 z m -12.699999,0 v 2.11666 H 8.4666666 v -2.11666 z m 12.699999,4.23333 v 2.11667 H 12.7 v -2.11667 z m -12.699999,0 v 2.11667 H 8.4666666 v -2.11667 z"
         id="path29"
         inkscape:connector-curvature="0"
         style="fill-rule:evenodd" />
    </g>
  </g>
</svg>
