<?xml version="1.0" encoding="UTF-8" standalone="no"?>
<svg
   xmlns:dc="http://purl.org/dc/elements/1.1/"
   xmlns:cc="http://creativecommons.org/ns#"
   xmlns:rdf="http://www.w3.org/1999/02/22-rdf-syntax-ns#"
   xmlns:svg="http://www.w3.org/2000/svg"
   xmlns="http://www.w3.org/2000/svg"
   xmlns:xlink="http://www.w3.org/1999/xlink"
   xmlns:sodipodi="http://sodipodi.sourceforge.net/DTD/sodipodi-0.dtd"
   xmlns:inkscape="http://www.inkscape.org/namespaces/inkscape"
   height="16"
   viewBox="0 0 4.2333333 4.2333335"
   width="16"
   version="1.1"
   id="svg126"
   sodipodi:docname="sc_navigator.svg"
   inkscape:version="0.92.4 (unknown)"
   inkscape:export-filename="/home/rizmut/Dokumen/Rizmut/Github/libreoffice-style-karasa-jaga/build/next/cmd/sc_navigator.png"
   inkscape:export-xdpi="96"
   inkscape:export-ydpi="96">
  <metadata
     id="metadata132">
    <rdf:RDF>
      <cc:Work
         rdf:about="">
        <dc:format>image/svg+xml</dc:format>
        <dc:type
           rdf:resource="http://purl.org/dc/dcmitype/StillImage" />
        <dc:title></dc:title>
      </cc:Work>
    </rdf:RDF>
  </metadata>
  <defs
     id="defs130" />
  <sodipodi:namedview
     pagecolor="#ffffff"
     bordercolor="#666666"
     borderopacity="1"
     objecttolerance="10"
     gridtolerance="10"
     guidetolerance="10"
     inkscape:pageopacity="0"
     inkscape:pageshadow="2"
     inkscape:window-width="640"
     inkscape:window-height="480"
     id="namedview128"
     showgrid="true"
     inkscape:zoom="29.875"
     inkscape:cx="9.2867063"
     inkscape:cy="17.571071"
     inkscape:current-layer="g4900">
    <inkscape:grid
       type="xygrid"
       id="grid4871" />
  </sodipodi:namedview>
  <linearGradient
     id="a">
    <stop
       offset="0"
       stop-color="#525252"
       id="stop2" />
    <stop
       offset="1"
       stop-color="#d8d8d8"
       id="stop4" />
  </linearGradient>
  <linearGradient
     id="b"
     gradientTransform="matrix(0.76425909,0,0,0.81534667,-30.955103,50.280829)"
     gradientUnits="userSpaceOnUse"
     x1="63.499996"
     x2="63.499996"
     y1="269.89706"
     y2="286.49451">
    <stop
       offset="0"
       stop-color="#e3f3fd"
       id="stop7" />
    <stop
       offset="1"
       stop-color="#a3d8f9"
       stop-opacity="0"
       id="stop9" />
  </linearGradient>
  <linearGradient
     id="c"
     gradientUnits="userSpaceOnUse"
     x1="17.415903"
     x2="17.475842"
     y1="268.1084"
     y2="292.07333">
    <stop
       offset="0"
       stop-color="#171a1c"
       id="stop12" />
    <stop
       offset="1"
       stop-color="#8ca0ac"
       id="stop14" />
  </linearGradient>
  <linearGradient
     id="d"
     gradientUnits="userSpaceOnUse"
     x1="2.2321887"
     x2="31.634476"
     y1="279.83295"
     y2="279.83295">
    <stop
       offset="0"
       stop-color="#ebebeb"
       id="stop17" />
    <stop
       offset=".3164545"
       stop-color="#cacaca"
       id="stop19" />
    <stop
       offset=".58694273"
       stop-color="#c7c7c7"
       stop-opacity=".955882"
       id="stop21" />
    <stop
       offset=".84601915"
       stop-color="#cacaca"
       id="stop23" />
    <stop
       offset="1"
       stop-color="#dedede"
       id="stop25" />
  </linearGradient>
  <linearGradient
     id="e"
     gradientUnits="userSpaceOnUse"
     x1="17.517639"
     x2="17.517639"
     xlink:href="#a"
     y1="297.10651"
     y2="266.43039" />
  <radialGradient
     id="f"
     cx="17.52717"
     cy="278.68237"
     gradientUnits="userSpaceOnUse"
     r="2.4271595">
    <stop
       offset="0"
       stop-color="#e8e8e8"
       id="stop29" />
    <stop
       offset="1"
       stop-color="#c7c7c7"
       id="stop31" />
  </radialGradient>
  <linearGradient
     id="g"
     gradientUnits="userSpaceOnUse"
     x1="16.526453"
     x2="17.475842"
     xlink:href="#a"
     y1="277.83243"
     y2="281.63" />
  <radialGradient
     id="h"
     cx="21.273409"
     cy="276.88303"
     gradientUnits="userSpaceOnUse"
     r="6.794981">
    <stop
       offset="0"
       stop-color="#e10000"
       id="stop35" />
    <stop
       offset="1"
       stop-color="#851400"
       id="stop37" />
  </radialGradient>
  <radialGradient
     id="i"
     cx="21.273409"
     cy="276.88303"
     gradientUnits="userSpaceOnUse"
     r="6.794981">
    <stop
       offset="0"
       stop-color="#ffbfbf"
       id="stop40" />
    <stop
       offset="1"
       stop-color="#ffbfbf"
       stop-opacity="0"
       id="stop42" />
  </radialGradient>
  <radialGradient
     id="j"
     cx="67.73333"
     cy="277.9501"
     gradientTransform="matrix(-0.89706381,0,0,-0.89706381,73.799449,531.92258)"
     gradientUnits="userSpaceOnUse"
     r="7.5746908">
    <stop
       offset="0"
       stop-color="#bfbfbf"
       id="stop45" />
    <stop
       offset="1"
       stop-color="#dfdfdf"
       stop-opacity="0"
       id="stop47" />
  </radialGradient>
  <filter
     id="k"
     height="1.047739"
     width="1.048264"
     x="-0.024132"
     y="-0.023870001"
     style="color-interpolation-filters:sRGB">
    <feGaussianBlur
       stdDeviation=".9480859"
       id="feGaussianBlur50" />
  </filter>
  <filter
     id="l"
     height="1.08803"
     width="1.060909"
     x="-0.030454"
     y="-0.044015002"
     style="color-interpolation-filters:sRGB">
    <feGaussianBlur
       stdDeviation=".61981931"
       id="feGaussianBlur53" />
  </filter>
  <filter
     id="m"
     height="1.024"
     width="1.024"
     x="-0.012"
     y="-0.012"
     style="color-interpolation-filters:sRGB">
    <feGaussianBlur
       stdDeviation=".12785668"
       id="feGaussianBlur56" />
  </filter>
  <linearGradient
     id="n"
     gradientUnits="userSpaceOnUse"
     x1="16.98144"
     x2="17.324369"
     y1="264.53104"
     y2="273.94925">
    <stop
       offset="0"
       stop-color="#fcfcfc"
       id="stop59" />
    <stop
       offset="1"
       stop-color="#fcfcfc"
       stop-opacity="0"
       id="stop61" />
  </linearGradient>
  <filter
     id="o"
     height="1.024"
     width="1.024"
     x="-0.012"
     y="-0.012"
     style="color-interpolation-filters:sRGB">
    <feGaussianBlur
       stdDeviation=".11169196"
       id="feGaussianBlur64" />
  </filter>
  <radialGradient
     id="p"
     cx="63.02887"
     cy="288.18738"
     gradientUnits="userSpaceOnUse"
     r="11.437257">
    <stop
       offset="0"
       stop-color="#7cb5fc"
       id="stop67" />
    <stop
       offset="1"
       stop-color="#0d5bab"
       id="stop69" />
  </radialGradient>
  <filter
     id="q"
     height="1.023839"
     width="1.024163"
     x="-0.012082"
     y="-0.01192"
     style="color-interpolation-filters:sRGB">
    <feGaussianBlur
       stdDeviation=".087289468"
       id="feGaussianBlur72" />
  </filter>
  <filter
     id="r"
     height="1.12069"
     width="1.119315"
     x="-0.059657998"
     y="-0.060345002"
     style="color-interpolation-filters:sRGB">
    <feGaussianBlur
       stdDeviation=".82504758"
       id="feGaussianBlur75" />
  </filter>
  <g
     id="g4900"
     transform="scale(0.125)">
    <g
       id="g124"
       transform="translate(0,-263.13332)">
      <ellipse
         id="ellipse78"
         transform="matrix(0.97591374,0,0,0.98157676,-44.446989,4.724283)"
         ry="16.406662"
         rx="16.59565"
         cy="281.04938"
         cx="62.895233"
         style="fill:#5a5a5a;filter:url(#r)" />
      <circle
         id="circle80"
         r="15.851751"
         cy="279.83292"
         cx="16.933331"
         style="fill:url(#e)" />
      <circle
         id="circle82"
         r="14.701143"
         cy="279.83292"
         cx="16.933331"
         style="fill:url(#d)" />
      <circle
         id="circle84"
         transform="matrix(0.96340899,0,0,0.96340899,-43.660502,8.885352)"
         r="12.785668"
         cy="281.23837"
         cx="62.895233"
         style="fill:#f0f3f4;filter:url(#m)" />
      <circle
         id="circle86"
         r="11.162592"
         cy="279.83292"
         cx="16.933331"
         style="fill:url(#c)" />
      <circle
         id="circle88"
         r="10.443317"
         cy="279.83292"
         cx="16.933331"
         style="fill:#032668" />
      <circle
         id="circle90"
         transform="matrix(0.86785341,0,0,0.86785341,-37.650511,35.759249)"
         r="11.169196"
         cy="281.23837"
         cx="62.895233"
         style="fill:url(#p);filter:url(#o)" />
      <path
         id="path92"
         transform="matrix(0.89706381,0,0,0.89706381,-39.487706,27.544163)"
         d="m 68.953232,290.2807 -1.443425,-4.75293 c 1.416094,-1.66975 1.823029,-3.9728 1.064875,-6.02671 l 2.979396,-3.96944 -4.746321,1.45286 c -1.669825,-1.41586 -3.972826,-1.82258 -6.026605,-1.06431 l -4.134512,-3.21514 1.617929,4.98206 c -1.41584,1.66963 -1.822725,3.9724 -1.064771,6.02613 l -2.985837,3.96023 4.752927,-1.44343 c 1.669699,1.41602 3.972653,1.82293 6.02652,1.06485 z m -3.668966,-5.25007 c -1.890643,1.32376 -4.496438,0.8642 -5.820182,-1.02645 -1.323703,-1.89056 -0.864252,-4.49622 1.026222,-5.82003 1.890562,-1.32389 4.496384,-0.8645 5.820259,1.02606 1.323953,1.89065 0.864456,4.49661 -1.026299,5.82042 z"
         inkscape:connector-curvature="0"
         style="fill:#326fb6;filter:url(#q)" />
      <g
         id="g98"
         transform="matrix(0.34497904,0.34497904,-0.34497904,0.34497904,60.383108,132.92355)">
        <path
           id="path94"
           d="m 169.10577,279.56256 -8.05633,-4.30293 c -0.32979,-4.01212 -2.79507,-7.53557 -6.45124,-9.22028 l -1.28722,-9.03467 -4.28206,8.06 c -4.01193,0.33019 -7.53503,2.79568 -9.21941,6.45183 l -9.55581,1.19534 8.58112,4.37395 c 0.32997,4.01164 2.79494,7.53465 6.45062,9.21939 l 1.26687,9.03107 4.30292,-8.05632 c 4.01196,-0.32983 7.53525,-2.79501 9.21999,-6.45103 z m -11.59628,-2.05571 c -0.73704,4.17928 -4.72253,6.96975 -8.9018,6.23267 -4.17909,-0.73701 -6.96953,-4.72218 -6.23277,-8.9013 0.73677,-4.17934 4.72207,-6.97007 8.90139,-6.23328 4.17954,0.73681 6.97031,4.72243 6.23318,8.90191 z"
           inkscape:connector-curvature="0"
           style="fill:#dbe8f9" />
        <path
           id="path96"
           transform="matrix(0.26458333,0,0,0.26458333,0,263.13332)"
           d="m 566.44336,16.882812 a 31.567267,31.567267 0 0 0 -31.56836,31.56836 31.567267,31.567267 0 0 0 31.56836,31.566406 31.567267,31.567267 0 0 0 31.56641,-31.566406 31.567267,31.567267 0 0 0 -31.56641,-31.56836 z m 0,2.525391 a 29.041884,29.041884 0 0 1 29.04102,29.042969 29.041884,29.041884 0 0 1 -29.04102,29.041016 29.041884,29.041884 0 0 1 -29.04297,-29.041016 29.041884,29.041884 0 0 1 29.04297,-29.042969 z"
           inkscape:connector-curvature="0"
           style="fill:#f7fcfe" />
      </g>
      <ellipse
         id="ellipse100"
         ry="8.075531"
         rx="8.1823273"
         cy="278.93384"
         cx="17.11315"
         style="fill:url(#b)" />
      <path
         id="path102"
         d="m 16.933473,265.31651 a 12.06508,6.2629249 0 0 0 -3.882316,0.33979 14.701143,14.701143 0 0 0 -8.1728658,5.77299 12.06508,6.2629249 0 0 0 -0.010188,0.15048 12.06508,6.2629249 0 0 0 1.5926327,3.09401 11.688499,11.688499 0 0 1 10.4727411,-6.52926 11.688499,11.688499 0 0 1 10.48051,6.52829 12.06508,6.2629249 0 0 0 1.584381,-3.09304 12.06508,6.2629249 0 0 0 -0.0131,-0.13543 14.701143,14.701143 0 0 0 -8.322856,-5.81328 12.06508,6.2629249 0 0 0 -3.728928,-0.31455 z"
         style="fill:url(#n)"
         inkscape:connector-curvature="0" />
      <path
         id="path104"
         d="m 5.9658965,291.04622 13.5899605,-9.23499 -2.080013,-2.08001 z"
         style="fill:url(#j)"
         inkscape:connector-curvature="0" />
      <g
         id="g122"
         transform="matrix(1.3635575,0,0,1.3635575,-6.171204,-101.93691)">
        <path
           id="path106"
           transform="matrix(0.23734813,0,0,0.23734813,-39.487706,263.59154)"
           d="M 285.0332,23.582031 227.77734,62.490234 237.86719,72.582031 190.74219,118.9082 248,80 247.22266,79.222656 Z"
           inkscape:connector-curvature="0"
           style="fill:#4a2828;filter:url(#k)" />
        <path
           id="path108"
           d="m 28.345842,268.42042 -13.589964,9.23498 4.354979,4.35499 z"
           style="fill:url(#h)"
           inkscape:connector-curvature="0" />
        <path
           id="path110"
           d="m 5.5208237,291.24544 9.2349853,-13.58997 4.354978,4.35498 z"
           inkscape:connector-curvature="0"
           style="fill:#e8e8e8" />
        <path
           id="path112"
           d="m 26.656733,269.80571 -11.593498,7.87909 1.774854,1.7731 z"
           style="fill:url(#i)"
           inkscape:connector-curvature="0" />
        <circle
           id="circle114"
           r="2.598824"
           cy="279.83292"
           cx="16.933331"
           style="fill:url(#g)" />
        <circle
           id="circle116"
           r="2.4271591"
           cy="279.83292"
           cx="16.933331"
           style="fill:url(#f)" />
        <circle
           id="circle118"
           r="1.1984"
           cy="279.83292"
           cx="16.933331"
           style="fill:#555555" />
        <path
           id="path120"
           transform="matrix(0.23734813,0,0,0.23734813,-39.487706,263.59154)"
           d="m 278.68164,26.181641 -48.8457,33.197265 0.60156,0.59961 44.91797,-30.527344 z"
           inkscape:connector-curvature="0"
           style="fill:#fefefe;filter:url(#l)" />
      </g>
    </g>
  </g>
</svg>
