<svg height="16" viewBox="0 0 4.2333333 4.2333334" width="16" xmlns="http://www.w3.org/2000/svg" xmlns:xlink="http://www.w3.org/1999/xlink"><linearGradient id="a" gradientTransform="matrix(.5991784 0 0 .5991784 .52054 1.780271)" gradientUnits="userSpaceOnUse" x1="1.984375" x2="1.984375" xlink:href="#e" y1="3.704167" y2=".661458"/><linearGradient id="b" gradientTransform="matrix(.5991784 0 0 .5991784 .52054 -.08346)" gradientUnits="userSpaceOnUse" x1="1.984375" x2="1.984375" xlink:href="#e" y1="3.704167" y2=".661458"/><radialGradient id="c" cx="-32" cy="9.6" gradientTransform="matrix(.11920158 .11920158 -.59600792 .59600792 13.024494 -1.468809)" gradientUnits="userSpaceOnUse" r="5.6"><stop offset="0" stop-color="#a50606"/><stop offset="1" stop-color="#f20909"/></radialGradient><linearGradient id="d" gradientTransform="matrix(.5991784 0 0 .5991784 .52054 1.780271)" gradientUnits="userSpaceOnUse" x1="1.984375" x2="1.984375" xlink:href="#c" y1="3.704167" y2=".661458"/><linearGradient id="e" gradientTransform="matrix(.70334532 0 0 .70334532 -.08266 -204.41091)" gradientUnits="userSpaceOnUse" x1="3.825946" x2="3.825946" y1="295.92435" y2="291.72922"><stop offset="0" stop-color="#555"/><stop offset="1"/></linearGradient><g fill="url(#a)" stroke-width=".066682"><path d="m1.5594141 3.7126893q-.1653724.2560605-.4374367.2560605-.27206426 0-.43743667-.261395-.16537241-.2613951-.16537241-.6721589 0-.386758.16537241-.6454858.16537241-.2613951.44810587-.2613951.2613951 0 .4267675.2560605.1653724.2560605.1653724.6668242 0 .4054291-.1653724.6614896zm-.4347694-1.5150246q-.34941588 0-.34941588.8615369 0 .8401985.34674858.8401985.3467486 0 .3467486-.8428658 0-.4187656-.088021-.6374839-.0880206-.2213857-.2560603-.2213857z" fill="url(#a)"/><path d="m2.8136875 3.7126893q-.1653724.2560605-.4374367.2560605-.2720642 0-.4374367-.261395-.1653724-.2613951-.1653724-.6721589 0-.386758.1653724-.6454858.1653725-.2613951.4481059-.2613951.2613951 0 .4267675.2560605.1653724.2560605.1653724.6668242 0 .4054291-.1653724.6614896zm-.4347694-1.5150246q-.3494159 0-.3494159.8615369 0 .8401985.3467486.8401985.3467486 0 .3467486-.8428658 0-.4187656-.088021-.6374839-.0880206-.2213857-.2560603-.2213857z" fill="url(#a)"/><path d="m4.0679609 3.7126893q-.1653724.2560605-.4374367.2560605-.2720642 0-.4374366-.261395-.1653724-.2613951-.1653724-.6721589 0-.386758.1653724-.6454858.1653724-.2613951.4481058-.2613951.2613951 0 .4267675.2560605.1653724.2560605.1653724.6668242 0 .4054291-.1653724.6614896zm-.4347694-1.5150246q-.3494158 0-.3494158.8615369 0 .8401985.3467485.8401985.3467486 0 .3467486-.8428658 0-.4187656-.088021-.6374839-.0880206-.2213857-.2560603-.2213857z" fill="url(#d)"/></g><path d="m1.5594141 1.8489577q-.1653724.2560605-.4374367.2560605-.27206426 0-.43743667-.2613951-.16537241-.2613951-.16537241-.6721588 0-.38675804.16537241-.64548583.16537241-.2613951.44810587-.2613951.2613951 0 .4267675.2560605.1653724.2560605.1653724.66682423 0 .4054291-.1653724.6614896zm-.4347694-1.51502461q-.34941588 0-.34941588.86153691 0 .8401985.34674858.8401985.3467486 0 .3467486-.8428658 0-.41876562-.088021-.63748397-.0880206-.22138564-.2560603-.22138564z" fill="url(#b)"/><circle cx=".264583" cy="3.704167" fill="#1c1c1c" r=".264583"/><path d="m3.9267842-.00000023-.613955.6139547-.6139548-.6139547-.3065492.30654921.6139548.61395472-.6139548.613955.3065492.3065493.6139548-.6139548.613955.6139548.3065492-.3065493-.6139548-.613955.6139548-.61395472z" fill="url(#c)" stroke-width=".033073"/></svg>