<?xml version="1.0" encoding="UTF-8" standalone="no"?>
<svg
   xmlns:dc="http://purl.org/dc/elements/1.1/"
   xmlns:cc="http://creativecommons.org/ns#"
   xmlns:rdf="http://www.w3.org/1999/02/22-rdf-syntax-ns#"
   xmlns:svg="http://www.w3.org/2000/svg"
   xmlns="http://www.w3.org/2000/svg"
   xmlns:xlink="http://www.w3.org/1999/xlink"
   xmlns:sodipodi="http://sodipodi.sourceforge.net/DTD/sodipodi-0.dtd"
   xmlns:inkscape="http://www.inkscape.org/namespaces/inkscape"
   height="16"
   viewBox="0 0 4.2333333 4.2333335"
   width="16"
   version="1.1"
   id="svg99"
   sodipodi:docname="sc_printpreview.svg"
   inkscape:version="0.92.4 (unknown)"
   inkscape:export-filename="/home/rizmut/Dokumen/Rizmut/Github/libreoffice-style-karasa-jaga/build/next/cmd/sc_printpreview.png"
   inkscape:export-xdpi="96"
   inkscape:export-ydpi="96">
  <metadata
     id="metadata105">
    <rdf:RDF>
      <cc:Work
         rdf:about="">
        <dc:format>image/svg+xml</dc:format>
        <dc:type
           rdf:resource="http://purl.org/dc/dcmitype/StillImage" />
        <dc:title></dc:title>
      </cc:Work>
    </rdf:RDF>
  </metadata>
  <defs
     id="defs103">
    <linearGradient
       gradientTransform="matrix(0.26458334,0,0,0.26458334,-31.226854,10.674615)"
       gradientUnits="userSpaceOnUse"
       y2="118.73044"
       x2="114.41652"
       y1="55.401756"
       x1="113.42517"
       id="linearGradient4502"
       xlink:href="#linearGradient4496"
       inkscape:collect="always" />
    <linearGradient
       id="linearGradient4496">
      <stop
         id="stop4498"
         offset="0"
         style="stop-color:#caecf3;stop-opacity:0.98431373;" />
      <stop
         id="stop4500"
         offset="1"
         style="stop-color:#0e5268;stop-opacity:0;" />
    </linearGradient>
    <radialGradient
       r="21.345785"
       fy="-62.783859"
       fx="461.54532"
       cy="-50.078033"
       cx="461.9838"
       gradientTransform="matrix(1.9245079,8.8832287e-7,-2.1962546e-7,0.9889928,-427.1077,-0.5516314)"
       gradientUnits="userSpaceOnUse"
       id="radialGradient3883"
       xlink:href="#linearGradient3750"
       inkscape:collect="always" />
    <linearGradient
       inkscape:collect="always"
       id="linearGradient3750">
      <stop
         style="stop-color:#ffffff;stop-opacity:1;"
         offset="0"
         id="stop3752" />
      <stop
         style="stop-color:#ffffff;stop-opacity:0;"
         offset="1"
         id="stop3754" />
    </linearGradient>
    <filter
       inkscape:collect="always"
       id="filter3746">
      <feGaussianBlur
         inkscape:collect="always"
         stdDeviation="0.23930338"
         id="feGaussianBlur3748" />
    </filter>
    <radialGradient
       r="38.290279"
       fy="3.2766333"
       fx="653.77338"
       cy="-20.356201"
       cx="654.53571"
       gradientTransform="matrix(0.6356659,0,0,0.6356659,-387.74409,35.510682)"
       gradientUnits="userSpaceOnUse"
       id="radialGradient3885"
       xlink:href="#linearGradient3497"
       inkscape:collect="always" />
    <linearGradient
       id="linearGradient3497">
      <stop
         style="stop-color:#a2f3ff;stop-opacity:0.30909091;"
         offset="0"
         id="stop3499" />
      <stop
         id="stop3509"
         offset="0.57963896"
         style="stop-color:#51d2f4;stop-opacity:0.46545455;" />
      <stop
         style="stop-color:#388bc9;stop-opacity:0.6627451;"
         offset="0.88229889"
         id="stop4484" />
      <stop
         style="stop-color:#1f449e;stop-opacity:0.86181819;"
         offset="1"
         id="stop3501" />
    </linearGradient>
    <linearGradient
       y2="-2.0318813"
       x2="529.13055"
       y1="-49.408035"
       x1="529.51709"
       gradientUnits="userSpaceOnUse"
       id="linearGradient3889"
       xlink:href="#linearGradient3467"
       inkscape:collect="always" />
    <linearGradient
       inkscape:collect="always"
       id="linearGradient3467">
      <stop
         style="stop-color:#000000;stop-opacity:1;"
         offset="0"
         id="stop3469" />
      <stop
         style="stop-color:#000000;stop-opacity:0;"
         offset="1"
         id="stop3471" />
    </linearGradient>
    <filter
       inkscape:collect="always"
       id="filter3475">
      <feGaussianBlur
         inkscape:collect="always"
         stdDeviation="0.31492188"
         id="feGaussianBlur3477" />
    </filter>
    <linearGradient
       y2="-21.585129"
       x2="426.27026"
       y1="7.40625"
       x1="425.9068"
       gradientUnits="userSpaceOnUse"
       id="linearGradient3893"
       xlink:href="#linearGradient3750"
       inkscape:collect="always" />
    <filter
       inkscape:collect="always"
       id="filter3448">
      <feGaussianBlur
         inkscape:collect="always"
         stdDeviation="0.29695312"
         id="feGaussianBlur3450" />
    </filter>
    <linearGradient
       y2="12.002443"
       x2="424.85605"
       y1="35.690521"
       x1="425.19971"
       gradientUnits="userSpaceOnUse"
       id="linearGradient3895"
       xlink:href="#linearGradient3750"
       inkscape:collect="always" />
    <linearGradient
       y2="-22.281881"
       x2="529.63055"
       y1="-49.408035"
       x1="529.51709"
       gradientUnits="userSpaceOnUse"
       id="linearGradient3897"
       xlink:href="#linearGradient3467"
       inkscape:collect="always" />
    <linearGradient
       y2="-34.051758"
       x2="452.66089"
       y1="-91.461914"
       x1="455.33936"
       gradientTransform="matrix(0.6517223,0,0,0.6517223,-266.59097,35.22272)"
       gradientUnits="userSpaceOnUse"
       id="linearGradient3899"
       xlink:href="#linearGradient3750"
       inkscape:collect="always" />
    <radialGradient
       r="34.640625"
       fy="15.369064"
       fx="549.10938"
       cy="-5.5"
       cx="549.10938"
       gradientTransform="matrix(1,0,0,0.9995489,0,-0.00248083)"
       gradientUnits="userSpaceOnUse"
       id="radialGradient3901"
       xlink:href="#linearGradient3524"
       inkscape:collect="always" />
    <linearGradient
       id="linearGradient3524">
      <stop
         style="stop-color:#16367a;stop-opacity:0;"
         offset="0"
         id="stop3526" />
      <stop
         id="stop3532"
         offset="0.79500002"
         style="stop-color:#16367a;stop-opacity:0;" />
      <stop
         style="stop-color:#16367a;stop-opacity:1;"
         offset="1"
         id="stop3528" />
    </linearGradient>
    <clipPath
       clipPathUnits="userSpaceOnUse"
       id="clipPath3598">
      <path
         inkscape:connector-curvature="0"
         sodipodi:nodetypes="csssc"
         id="path3600"
         d="m 549.13821,-40.478552 c -19.31962,0 -35.0096,15.689963 -35.0096,35.009573 0,19.31961 15.68997,34.978781 35.0096,34.978782 19.31959,0 34.97878,-15.659172 34.97878,-34.978782 0,-19.31961 -15.6592,-35.009573 -34.97878,-35.009573 z"
         style="opacity:1;fill:#aac0ef;fill-opacity:1;stroke:none;stroke-width:3.42052293;stroke-linecap:round;stroke-linejoin:round;stroke-miterlimit:4;stroke-dasharray:none;stroke-dashoffset:4.1500001;stroke-opacity:1" />
    </clipPath>
    <filter
       inkscape:collect="always"
       id="filter3594">
      <feGaussianBlur
         inkscape:collect="always"
         stdDeviation="0.66601563"
         id="feGaussianBlur3596" />
    </filter>
    <radialGradient
       r="14.103466"
       fy="-32.883251"
       fx="455.50381"
       cy="-40.349792"
       cx="455.50381"
       gradientTransform="matrix(1.4864865,-8.4172741e-7,1.0406811e-6,1.8378378,-221.5964,32.464567)"
       gradientUnits="userSpaceOnUse"
       id="radialGradient3903"
       xlink:href="#linearGradient3604"
       inkscape:collect="always" />
    <linearGradient
       id="linearGradient3604">
      <stop
         style="stop-color:#56e4fd;stop-opacity:0.68727273;"
         offset="0"
         id="stop3606" />
      <stop
         style="stop-color:#ffffff;stop-opacity:0.70909089;"
         offset="1"
         id="stop3608" />
    </linearGradient>
    <filter
       inkscape:collect="always"
       id="filter3740">
      <feGaussianBlur
         inkscape:collect="always"
         stdDeviation="0.60528572"
         id="feGaussianBlur3742" />
    </filter>
    <radialGradient
       r="27.472944"
       fy="-24.165377"
       fx="419.65628"
       cy="-24.165377"
       cx="419.65628"
       gradientTransform="matrix(0.7195272,0,0,0.6485209,-273.74451,28.176702)"
       gradientUnits="userSpaceOnUse"
       id="radialGradient3905"
       xlink:href="#linearGradient3750"
       inkscape:collect="always" />
    <linearGradient
       y2="38.36776"
       x2="71.473473"
       y1="38.36776"
       x1="13.644914"
       gradientUnits="userSpaceOnUse"
       id="linearGradient5810"
       xlink:href="#linearGradient3350"
       inkscape:collect="always"
       gradientTransform="matrix(0.29264142,0,0,0.30139489,-2.0094853,-1.7114894)" />
    <linearGradient
       id="linearGradient3350">
      <stop
         style="stop-color:#a3a5a8;stop-opacity:1;"
         offset="0"
         id="stop3352" />
      <stop
         style="stop-color:white;stop-opacity:1;"
         offset="1"
         id="stop3354" />
    </linearGradient>
    <radialGradient
       gradientUnits="userSpaceOnUse"
       gradientTransform="matrix(1,0,0,0.7625717,0.9708933,7.247287)"
       r="31.965544"
       fy="10.615251"
       fx="33.483532"
       cy="9.5791206"
       cx="39.409458"
       id="radialGradient3466"
       xlink:href="#linearGradient3750"
       inkscape:collect="always" />
    <filter
       id="filter3492"
       inkscape:collect="always">
      <feGaussianBlur
         id="feGaussianBlur3494"
         stdDeviation="1.9719547"
         inkscape:collect="always" />
    </filter>
    <radialGradient
       r="6.6921635"
       fy="-5.4772639"
       fx="28.54949"
       cy="-5.4772639"
       cx="28.54949"
       gradientTransform="matrix(-1.423307,-2.9038815e-7,-1.5828079e-6,7.7579698,50.842839,52.546622)"
       gradientUnits="userSpaceOnUse"
       id="radialGradient4851"
       xlink:href="#linearGradient4840"
       inkscape:collect="always" />
    <linearGradient
       id="linearGradient4840">
      <stop
         id="stop4842"
         offset="0"
         style="stop-color:white;stop-opacity:0;" />
      <stop
         style="stop-color:#818181;stop-opacity:1;"
         offset="1"
         id="stop4844" />
    </linearGradient>
    <linearGradient
       y2="-0.85402471"
       x2="28.54949"
       y1="-10.100503"
       x1="28.54949"
       gradientUnits="userSpaceOnUse"
       id="linearGradient2161"
       xlink:href="#linearGradient3945"
       inkscape:collect="always"
       gradientTransform="matrix(1.4096405,0,0,2.0602438,-50.452684,21.338667)" />
    <linearGradient
       id="linearGradient3945">
      <stop
         style="stop-color:#c9cacc;stop-opacity:1;"
         offset="0"
         id="stop3949" />
      <stop
         id="stop3951"
         offset="1"
         style="stop-color:#acaeb1;stop-opacity:1;" />
    </linearGradient>
    <linearGradient
       y2="69.377663"
       x2="108.60656"
       y1="47.035709"
       x1="113.91756"
       gradientTransform="matrix(0.26458334,0,0,0.26458334,-31.300532,8.1170991)"
       gradientUnits="userSpaceOnUse"
       id="linearGradient3542"
       xlink:href="#linearGradient3604"
       inkscape:collect="always" />
    <radialGradient
       r="9.725522"
       fy="56.998898"
       fx="56.256771"
       cy="56.998898"
       cx="56.256771"
       gradientTransform="matrix(0.26458334,0,0,0.24481552,1.2123237,2.1850847)"
       gradientUnits="userSpaceOnUse"
       id="radialGradient23095"
       xlink:href="#linearGradient2599"
       inkscape:collect="always" />
    <linearGradient
       id="linearGradient2599">
      <stop
         id="stop2601"
         offset="0"
         style="stop-color:black;stop-opacity:1;" />
      <stop
         style="stop-color:black;stop-opacity:0.23843417;"
         offset="0.66371679"
         id="stop2603" />
      <stop
         id="stop2605"
         offset="1"
         style="stop-color:black;stop-opacity:0;" />
    </linearGradient>
    <radialGradient
       r="3.3125"
       fy="69.914368"
       fx="-24.225885"
       cy="69.921875"
       cx="-22.1875"
       gradientTransform="matrix(-0.23602644,0.27490138,-5.6179592,-4.823508,413.50572,366.98278)"
       gradientUnits="userSpaceOnUse"
       id="radialGradient23098"
       xlink:href="#linearGradient3750"
       inkscape:collect="always" />
    <linearGradient
       y2="61.357201"
       x2="63.401665"
       y1="86.706062"
       x1="67.515175"
       gradientTransform="matrix(0.26596023,0.00980716,-0.00981511,0.2661756,0.6861336,-0.11970104)"
       gradientUnits="userSpaceOnUse"
       id="linearGradient23101"
       xlink:href="#linearGradient3467"
       inkscape:collect="always" />
    <linearGradient
       y2="20.20463"
       x2="40.198689"
       y1="20.204628"
       x1="28.071711"
       spreadMethod="reflect"
       gradientTransform="matrix(-0.09477058,0.10640986,0.10499328,0.09513491,18.463636,11.829264)"
       gradientUnits="userSpaceOnUse"
       id="linearGradient23104"
       xlink:href="#linearGradient3225"
       inkscape:collect="always" />
    <linearGradient
       id="linearGradient3225">
      <stop
         id="stop3227"
         offset="0"
         style="stop-color:#ffffff;stop-opacity:1;" />
      <stop
         id="stop3229"
         offset="1"
         style="stop-color:#aeaeae;stop-opacity:1;" />
    </linearGradient>
    <radialGradient
       r="5.2844129"
       fy="53.704475"
       fx="53.363365"
       cy="51.796238"
       cx="53.82272"
       gradientTransform="matrix(0.27683744,0,0,0.02322395,-16.754911,42.632994)"
       gradientUnits="userSpaceOnUse"
       id="radialGradient2414"
       xlink:href="#linearGradient3750"
       inkscape:collect="always" />
    <radialGradient
       r="5.2844129"
       fy="53.704475"
       fx="53.363365"
       cy="51.796238"
       cx="53.82272"
       gradientTransform="matrix(0.27683626,0,0,0.02322399,-15.723651,24.753748)"
       gradientUnits="userSpaceOnUse"
       id="radialGradient2412"
       xlink:href="#linearGradient3750"
       inkscape:collect="always" />
    <radialGradient
       r="8.3332367"
       fy="69.152916"
       fx="36.285576"
       cy="69.152916"
       cx="39.036491"
       gradientTransform="matrix(0.16585301,-0.18622222,2.0123465,1.8233906,-114.19728,-87.426299)"
       gradientUnits="userSpaceOnUse"
       id="radialGradient23110"
       xlink:href="#linearGradient3750"
       inkscape:collect="always" />
    <radialGradient
       r="8.3332367"
       fy="62.298256"
       fx="45.900455"
       cy="62.380642"
       cx="49.157429"
       gradientTransform="matrix(0.16585301,-0.18622222,2.0123465,1.8233906,-113.97554,-87.352388)"
       gradientUnits="userSpaceOnUse"
       id="radialGradient23113"
       xlink:href="#linearGradient3750"
       inkscape:collect="always" />
    <radialGradient
       r="6.9319901"
       fy="73.295685"
       fx="0.90558416"
       cy="74.833298"
       cx="3.953125"
       gradientTransform="matrix(0.11534934,-0.14978116,1.5004283,1.3847488,-87.327873,-78.977386)"
       gradientUnits="userSpaceOnUse"
       id="radialGradient23116"
       xlink:href="#linearGradient2599"
       inkscape:collect="always" />
    <linearGradient
       gradientUnits="userSpaceOnUse"
       y2="87.578102"
       x2="102.63839"
       y1="98.322968"
       x1="91.893524"
       id="linearGradient3522"
       xlink:href="#linearGradient3516"
       inkscape:collect="always"
       gradientTransform="translate(0.9708933,-0.43921243)" />
    <linearGradient
       id="linearGradient3516"
       inkscape:collect="always">
      <stop
         id="stop3518"
         offset="0"
         style="stop-color:#363636;stop-opacity:1" />
      <stop
         id="stop3520"
         offset="1"
         style="stop-color:#b3b3b3;stop-opacity:1" />
    </linearGradient>
    <filter
       id="filter3512"
       inkscape:collect="always">
      <feGaussianBlur
         id="feGaussianBlur3514"
         stdDeviation="0.59409265"
         inkscape:collect="always" />
    </filter>
    <linearGradient
       y2="11.415728"
       x2="35.561386"
       y1="-7.142458"
       x1="34.841892"
       gradientUnits="userSpaceOnUse"
       id="linearGradient2380"
       xlink:href="#linearGradient3750"
       inkscape:collect="always" />
    <filter
       id="filter3538"
       inkscape:collect="always">
      <feGaussianBlur
         id="feGaussianBlur3540"
         stdDeviation="1.0977778"
         inkscape:collect="always" />
    </filter>
    <linearGradient
       inkscape:collect="always"
       xlink:href="#linearGradient3750"
       id="linearGradient1255"
       gradientUnits="userSpaceOnUse"
       x1="34.841892"
       y1="-7.142458"
       x2="35.561386"
       y2="11.415728" />
    <linearGradient
       inkscape:collect="always"
       xlink:href="#linearGradient3750"
       id="linearGradient1257"
       gradientUnits="userSpaceOnUse"
       x1="34.841892"
       y1="-7.142458"
       x2="35.561386"
       y2="11.415728" />
  </defs>
  <sodipodi:namedview
     pagecolor="#ffffff"
     bordercolor="#666666"
     borderopacity="1"
     objecttolerance="10"
     gridtolerance="10"
     guidetolerance="10"
     inkscape:pageopacity="0"
     inkscape:pageshadow="2"
     inkscape:window-width="1366"
     inkscape:window-height="714"
     id="namedview101"
     showgrid="true"
     inkscape:zoom="30.125"
     inkscape:cx="8"
     inkscape:cy="10.655602"
     inkscape:window-x="0"
     inkscape:window-y="28"
     inkscape:window-maximized="1"
     inkscape:current-layer="g1042">
    <inkscape:grid
       type="xygrid"
       id="grid983" />
  </sodipodi:namedview>
  <linearGradient
     id="a"
     gradientTransform="matrix(0.29104575,0,0,0.33313079,-1.693333,-5.80263)"
     gradientUnits="userSpaceOnUse"
     x1="64"
     x2="63.9991"
     y1="96"
     y2="52.364712">
    <stop
       offset="0"
       stop-color="#080808"
       id="stop2" />
    <stop
       offset="1"
       stop-color="#232323"
       id="stop4" />
  </linearGradient>
  <linearGradient
     id="b"
     gradientTransform="matrix(0.28394756,0,0,0.28836258,-1.290704,-0.25915)"
     gradientUnits="userSpaceOnUse"
     x1="64"
     x2="64"
     y1="88"
     y2="56">
    <stop
       offset="0"
       stop-color="#7f7f81"
       id="stop7" />
    <stop
       offset=".44999999"
       stop-color="#b6b6b7"
       id="stop9" />
    <stop
       offset=".67499995"
       stop-color="#f5f5f5"
       id="stop11" />
    <stop
       offset="1"
       stop-color="#cfcfcf"
       id="stop13" />
  </linearGradient>
  <linearGradient
     id="c"
     gradientTransform="matrix(0.22737947,0,0,0.30040476,2.381251,-0.69)"
     gradientUnits="userSpaceOnUse"
     x1="68"
     x2="68"
     y1="4"
     y2="48">
    <stop
       offset="0"
       stop-color="#fff"
       id="stop16" />
    <stop
       offset=".54545456"
       stop-color="#ebebeb"
       id="stop18" />
    <stop
       offset=".90909094"
       stop-color="#bababa"
       id="stop20" />
    <stop
       offset="1"
       stop-color="#7e7e7f"
       id="stop22" />
  </linearGradient>
  <linearGradient
     id="d"
     gradientTransform="matrix(0.24052171,0,0,0.26458333,1.590201,0.97738)"
     gradientUnits="userSpaceOnUse"
     x1="64"
     x2="64"
     y1="48"
     y2="72">
    <stop
       offset="0"
       stop-color="#6e4388"
       id="stop25" />
    <stop
       offset=".21062189"
       stop-color="#651d8d"
       id="stop27" />
    <stop
       offset=".346082"
       stop-color="#ac7ec6"
       id="stop29" />
    <stop
       offset=".51274866"
       stop-color="#ca87dc"
       id="stop31" />
    <stop
       offset="1"
       stop-color="#ebeaeb"
       id="stop33" />
  </linearGradient>
  <linearGradient
     id="e"
     gradientUnits="userSpaceOnUse"
     x1="17.991905"
     x2="17.842594"
     y1="295.86069"
     y2="288.88287"
     gradientTransform="translate(0,-263.13332)">
    <stop
       offset="0"
       stop-color="#fefefe"
       id="stop36" />
    <stop
       offset=".5"
       stop-color="#f7f7f7"
       id="stop38" />
    <stop
       offset=".91002578"
       stop-color="#8c8c8c"
       id="stop40" />
    <stop
       offset="1"
       stop-color="#666"
       id="stop42" />
  </linearGradient>
  <linearGradient
     id="f"
     gradientTransform="matrix(0.27285534,0,0,0.17849961,-0.529165,5.79217)"
     gradientUnits="userSpaceOnUse"
     x1="52"
     x2="76"
     y1="72"
     y2="72">
    <stop
       offset="0"
       id="stop45" />
    <stop
       offset=".66666669"
       stop-color="#a6a6a6"
       stop-opacity=".866667"
       id="stop47" />
    <stop
       offset="1"
       stop-opacity=".737089"
       id="stop49" />
  </linearGradient>
  <linearGradient
     id="g"
     gradientUnits="userSpaceOnUse"
     x1="17.000839"
     x2="17.000839"
     y1="275.75235"
     y2="281.04404"
     gradientTransform="translate(0,-263.13332)">
    <stop
       offset="0"
       stop-color="#baaac4"
       id="stop52" />
    <stop
       offset="1"
       stop-color="#baaac4"
       stop-opacity="0"
       id="stop54" />
  </linearGradient>
  <g
     id="g1042"
     transform="scale(0.125)">
    <g
       id="g951">
      <rect
         style="fill:#111012"
         id="rect57"
         y="4.2333488"
         x="6.3499999"
         width="21.166666"
         ry="0.093038999"
         rx="0.053633999"
         height="9.0594854" />
      <rect
         style="fill:#3e3c41"
         id="rect59"
         y="6.349987"
         x="8.4666662"
         width="16.933334"
         ry="0.073977999"
         rx="0.044496"
         height="7.2442598" />
      <rect
         style="fill:#636363;fill-opacity:0.99607801"
         id="rect61"
         y="1.1298828e-05"
         x="10.583333"
         width="12.7"
         ry="0.083452001"
         rx="0.052561"
         height="14.832205" />
      <rect
         style="fill:#1d1d1d"
         id="rect63"
         y="-17.910931"
         x="1.539611"
         width="30.103001"
         transform="scale(1,-1)"
         rx="2.116667"
         height="6.1574888" />
      <rect
         x="0"
         style="fill:url(#a)"
         id="rect65"
         y="11.641674"
         width="33.866665"
         ry="0.101501"
         rx="0.064691"
         height="15.505507" />
      <rect
         style="fill:#b6b6b6"
         id="rect67"
         y="-16.933331"
         x="1.058333"
         width="31.749998"
         transform="scale(1,-1)"
         ry="0.97736698"
         rx="2.0339921"
         height="5.2916632" />
      <rect
         style="fill:url(#b)"
         id="rect69"
         y="14.816662"
         x="1.058333"
         width="31.749998"
         ry="0.071886003"
         rx="0.058605"
         height="10.583338" />
      <rect
         style="fill:#28232c"
         id="rect71"
         y="11.75346"
         x="3.175"
         width="27.516665"
         ry="0.093154997"
         rx="0.061425999"
         height="5.1798692" />
      <rect
         style="fill:url(#c)"
         id="rect73"
         y="1.0583304"
         x="11.641666"
         width="10.583332"
         ry="0.074887998"
         rx="0.04693"
         height="12.234495" />
      <path
         inkscape:connector-curvature="0"
         id="path75"
         style="fill:url(#d);stroke:#1f1f1f;stroke-width:0.79374999;stroke-linecap:square;stroke-linejoin:round;stroke-opacity:0.92488302"
         d="M 5.3919441,11.7819 H 28.575239 c 0.0275,0 0.04964,0.0411 0.04964,0.092 v 4.35722 c 0,0.051 -0.03322,0.07 -0.04964,0.092 l -1.970778,2.64583 0.09624,1.5875 H 7.2664758 l 0.096246,-1.5875 -1.9707781,-2.64583 c -0.017928,-0.0241 -0.049642,-0.041 -0.049642,-0.092 V 11.8739 c 0,-0.051 0.02214,-0.092 0.049642,-0.092 z" />
      <path
         style="fill:#222222;fill-rule:evenodd"
         inkscape:connector-curvature="0"
         id="path77"
         d="m 6.3499998,25.4 v 8.46667 H 27.516666 V 25.4 Z" />
      <path
         inkscape:connector-curvature="0"
         style="fill:url(#e);fill-rule:evenodd"
         id="path79"
         d="m 7.4083331,25.4 v 7.40833 H 26.458332 l 1e-6,-7.40833 z" />
      <rect
         id="rect81"
         y="20.108349"
         x="6.3499999"
         width="21.166662"
         ry="0.070465997"
         rx="0.054607999"
         height="5.2916708" />
      <rect
         style="fill:url(#f)"
         id="rect83"
         y="17.99168"
         x="13.758333"
         width="6.349999"
         ry="0.044498"
         rx="0.056315001"
         height="2.1166911" />
      <rect
         style="fill:#986aae"
         id="rect85"
         y="11.641674"
         x="9.5249996"
         width="14.816668"
         ry="0.169416"
         rx="0.074395999"
         height="4.2333331" />
      <rect
         style="opacity:0.92000002;fill:url(#g)"
         id="rect87"
         y="11.641674"
         x="10.583333"
         width="12.7"
         ry="0.26664799"
         rx="0.081912003"
         height="7.4083271" />
      <rect
         style="fill:#c9b1d5"
         id="rect91"
         y="11.641674"
         x="10.583333"
         width="12.7"
         ry="0.13903099"
         rx="0.068259999"
         height="3.174994" />
      <rect
         style="fill:#0c0c0c"
         id="rect93"
         y="11.641674"
         x="11.641666"
         width="10.583333"
         ry="0.070524998"
         rx="0.068259999"
         height="2.1166601" />
      <path
         style="fill:#545156;fill-rule:evenodd"
         inkscape:connector-curvature="0"
         id="path95"
         d="m 7.4085718,23.20237 -2.387e-4,-2.0357 H 26.458332 l 2.4e-4,2.0357 z" />
    </g>
    <g
       id="g1292">
      <path
         inkscape:connector-curvature="0"
         id="path3524"
         d="m 5.4074474,40.999996 c 0,19.095111 15.4974836,34.592592 34.5925936,34.592592 19.095109,0 34.592594,-15.497481 34.592594,-34.592592 0,-19.09511 -15.497485,-34.5925916 -34.592594,-34.5925916 -19.09511,0 -34.5925936,15.4974816 -34.5925936,34.5925916 z"
         style="opacity:0.75543476;fill:none;fill-opacity:1;fill-rule:evenodd;stroke:#000000;stroke-width:4.96460915;stroke-linecap:round;stroke-linejoin:round;stroke-miterlimit:4;stroke-dasharray:none;stroke-opacity:1;filter:url(#filter3538)"
         transform="matrix(0.26114034,0,0,0.25892885,-0.23745674,-0.28061418)" />
      <g
         transform="matrix(-0.27281479,-0.01003564,0.01314078,-0.3555037,20.207615,19.412553)"
         id="g5150">
        <path
           inkscape:connector-curvature="0"
           style="fill:none;fill-opacity:0.75;fill-rule:evenodd;stroke:url(#linearGradient1255);stroke-width:0.414;stroke-linecap:butt;stroke-linejoin:miter;stroke-miterlimit:4;stroke-dasharray:none;stroke-opacity:1"
           d="M 9.622763,14.273311 C 16.523861,6.0826761 26.348399,1.7526092 37.116371,1.7526092 c 10.767972,0 21.292506,5.4482232 27.297226,13.2275148 0,0 0,0 0,0"
           id="path5152"
           sodipodi:nodetypes="czcc" />
        <path
           inkscape:connector-curvature="0"
           sodipodi:nodetypes="czcc"
           id="path5154"
           d="M 9.622763,14.573311 C 16.523861,6.3826761 26.348399,2.0526092 37.116371,2.0526092 c 10.767972,0 21.292506,5.4482232 27.297226,13.2275148 0,0 0,0 0,0"
           style="fill:none;fill-opacity:0.75;fill-rule:evenodd;stroke:url(#linearGradient1257);stroke-width:0.91399997;stroke-linecap:butt;stroke-linejoin:miter;stroke-miterlimit:4;stroke-dasharray:none;stroke-opacity:1" />
        <path
           inkscape:connector-curvature="0"
           style="fill:none;fill-opacity:0.75;fill-rule:evenodd;stroke:url(#linearGradient2380);stroke-width:0.61400002;stroke-linecap:butt;stroke-linejoin:miter;stroke-miterlimit:4;stroke-dasharray:none;stroke-opacity:1"
           d="M 9.622763,14.473311 C 16.523861,6.2826761 26.348399,1.9526092 37.116371,1.9526092 c 10.767972,0 21.292506,5.4482232 27.297226,13.2275148 0,0 0,0 0,0"
           id="path5156"
           sodipodi:nodetypes="czcc" />
      </g>
      <path
         inkscape:connector-curvature="0"
         style="fill:url(#linearGradient3522);fill-opacity:1;fill-rule:nonzero;stroke:#171717;stroke-width:1;stroke-linecap:round;stroke-linejoin:round;stroke-miterlimit:4;stroke-dasharray:none;stroke-dashoffset:4;stroke-opacity:0.4425287;filter:url(#filter3512)"
         d="m 67.777999,74.906869 c 3.938334,-3.297353 7.160469,-6.918787 9.77163,-10.971747 21.401882,18.549048 33.855041,30.311758 51.421241,45.682708 -3.29968,4.59409 -7.13218,8.36421 -10.86499,11.94294 C 101.26597,105.37468 94.306229,100.62836 67.777999,74.906869 Z"
         id="rect1410"
         sodipodi:nodetypes="ccccc"
         transform="matrix(0.26458334,0,0,0.26458334,-0.6320585,-0.41295638)" />
      <path
         inkscape:connector-curvature="0"
         style="fill:url(#radialGradient23116);fill-opacity:1;stroke:none;stroke-width:1.02182078;stroke-linecap:round;stroke-linejoin:round;stroke-miterlimit:4;stroke-dasharray:none;stroke-dashoffset:4;stroke-opacity:1"
         d="M 19.273801,17.366072 18.31183,18.45545 c 1.005381,1.656471 3.245101,4.154048 6.398817,7.120715 2.581374,2.428272 4.938164,4.282837 6.660879,5.395143 0.603962,-0.540186 0.959718,-0.951378 1.373484,-1.427427 -1.241184,-1.682798 -3.378481,-3.964647 -5.98051,-6.412346 -3.132583,-2.946792 -5.812454,-4.889726 -7.490699,-5.765463 z"
         id="path2854"
         sodipodi:nodetypes="ccsccsc" />
      <path
         inkscape:connector-curvature="0"
         sodipodi:nodetypes="ccccc"
         id="path2286"
         d="m 17.466426,19.333547 c 0.854098,-0.786472 1.677353,-1.722526 2.38813,-2.681432 4.449355,3.80196 9.093252,8.166741 13.320989,11.88636 -0.907013,1.198396 -1.224346,1.77668 -2.516804,2.932459 C 26.263927,27.246403 21.689464,23.38949 17.466426,19.333547 Z"
         style="opacity:0.73260073;fill:url(#radialGradient23113);fill-opacity:1;fill-rule:nonzero;stroke:none;stroke-width:1.56277049;stroke-linecap:round;stroke-linejoin:round;stroke-miterlimit:4;stroke-dashoffset:4;stroke-opacity:1" />
      <path
         inkscape:connector-curvature="0"
         style="opacity:0.74418604;fill:url(#radialGradient23110);fill-opacity:1;fill-rule:nonzero;stroke:none;stroke-width:1.56277049;stroke-linecap:round;stroke-linejoin:round;stroke-miterlimit:4;stroke-dashoffset:4;stroke-opacity:1"
         d="m 17.747297,19.450922 2.082329,-1.061904 c 4.449355,3.80196 8.337507,6.858404 12.905798,10.414376 -0.674838,1.381398 -1.127117,1.453899 -2.298417,2.593629 -4.325781,-4.186743 -8.466671,-7.890159 -12.68971,-11.946101 z"
         id="path2296"
         sodipodi:nodetypes="ccccc" />
      <path
         inkscape:connector-curvature="0"
         style="fill:#5c5c5c;fill-opacity:1;fill-rule:nonzero;stroke:none;stroke-width:1.56277049;stroke-linecap:round;stroke-linejoin:round;stroke-miterlimit:4;stroke-dashoffset:4;stroke-opacity:1"
         d="m 19.845826,16.469447 c -1.042017,0.872426 -1.89647,1.832763 -2.587341,2.905109 l 0.04655,0.04218 c 1.042017,-0.872425 1.89647,-1.832762 2.58734,-2.905108 z"
         id="path2300" />
      <ellipse
         ry="0.12272495"
         rx="1.4629171"
         cy="25.956659"
         cx="-0.82357073"
         style="fill:url(#radialGradient2412);fill-opacity:1;fill-rule:nonzero;stroke:none;stroke-width:0.5151428;stroke-linecap:round;stroke-linejoin:round;stroke-miterlimit:4;stroke-dasharray:none;stroke-dashoffset:4;stroke-opacity:1"
         id="path3199"
         transform="matrix(0.65341804,-0.75699727,0.75510059,0.65560896,0,0)" />
      <ellipse
         ry="0.12272475"
         rx="1.4629233"
         cy="43.835907"
         cx="-1.854766"
         transform="matrix(0.64249313,-0.76629145,0.76779759,0.64069249,0,0)"
         id="path3209"
         style="opacity:0.65116278;fill:url(#radialGradient2414);fill-opacity:1;fill-rule:nonzero;stroke:none;stroke-width:0.51514345;stroke-linecap:round;stroke-linejoin:round;stroke-miterlimit:4;stroke-dasharray:none;stroke-dashoffset:4;stroke-opacity:1" />
      <path
         inkscape:connector-curvature="0"
         style="fill:url(#linearGradient23104);fill-opacity:1;fill-rule:nonzero;stroke:none;stroke-width:1.00673962;stroke-linecap:round;stroke-linejoin:round;stroke-miterlimit:4;stroke-dashoffset:4;stroke-opacity:1"
         d="m 17.637894,15.394223 c -0.569978,0.693634 -1.094595,1.287639 -1.608908,1.815845 l 1.728555,1.590236 c 0.639874,-0.59528 1.224837,-1.163668 1.658091,-1.784267 z"
         id="rect3213"
         sodipodi:nodetypes="ccccc" />
      <path
         inkscape:connector-curvature="0"
         sodipodi:nodetypes="ccccc"
         id="path3296"
         d="m 17.702238,15.698913 c -0.569979,0.693634 -1.060064,1.096529 -1.574378,1.624735 l 1.629681,1.476656 c 0.639874,-0.59528 1.224837,-1.163668 1.658091,-1.784267 z"
         style="fill:url(#linearGradient23101);fill-opacity:1;fill-rule:nonzero;stroke:none;stroke-width:1.00673962;stroke-linecap:round;stroke-linejoin:round;stroke-miterlimit:4;stroke-dashoffset:4;stroke-opacity:1" />
      <path
         inkscape:connector-curvature="0"
         style="fill:url(#radialGradient23098);fill-opacity:1;stroke:none;stroke-width:1.02182078;stroke-linecap:round;stroke-linejoin:round;stroke-miterlimit:4;stroke-dasharray:none;stroke-dashoffset:4;stroke-opacity:1"
         d="m 33.356123,28.565343 c -1.615524,-1.518737 -4.220474,-3.665376 -7.244207,-6.39909 -2.338051,-2.113801 -4.561162,-4.063868 -6.263857,-5.323144 l -1.261954,1.217702 c 1.424004,1.567529 3.577961,3.772226 5.916012,5.886025 3.02373,2.733711 5.836981,4.981346 7.612801,6.149953 z"
         id="path2906"
         sodipodi:nodetypes="csccscc" />
      <path
         inkscape:connector-curvature="0"
         style="opacity:0.8;fill:url(#radialGradient23095);fill-opacity:1;fill-rule:evenodd;stroke:none;stroke-width:0.16431282;stroke-linecap:round;stroke-linejoin:round;stroke-miterlimit:4;stroke-opacity:1"
         d="m 17.674368,15.42025 c -0.256498,0.341607 -0.537046,0.669337 -0.84336,0.975651 -0.109187,0.109187 -0.224084,0.218586 -0.338997,0.322461 -0.0057,0.0052 -0.01078,0.01136 -0.01654,0.01654 -0.150219,0.163333 -0.298794,0.31961 -0.446484,0.47129 l 0.603581,0.562239 c 0.567338,-0.358634 1.057528,-0.837842 1.422135,-1.430404 0.07719,-0.125442 0.144546,-0.2511 0.206706,-0.380338 z"
         id="path3358" />
      <rect
         transform="rotate(-48.368341)"
         ry="0"
         rx="0"
         y="23.585413"
         x="-0.95909858"
         height="2.217731"
         width="0.43709973"
         id="rect3540"
         style="opacity:0.1875;fill:url(#linearGradient3542);fill-opacity:1;stroke:none;stroke-width:0.02645833;stroke-linecap:round;stroke-linejoin:round;stroke-miterlimit:4;stroke-dasharray:none;stroke-dashoffset:4.1500001;stroke-opacity:1" />
      <circle
         cy="10.054168"
         cx="-10.208168"
         style="fill:none;fill-opacity:1;fill-rule:evenodd;stroke:url(#linearGradient2161);stroke-width:1.05833328;stroke-linecap:round;stroke-linejoin:round;stroke-miterlimit:4;stroke-dasharray:none;stroke-opacity:1"
         id="path3328"
         transform="scale(-1,1)"
         r="8.9958334" />
      <path
         inkscape:connector-curvature="0"
         style="fill:none;fill-opacity:1;fill-rule:evenodd;stroke:url(#radialGradient4851);stroke-width:1.05833328;stroke-linecap:round;stroke-linejoin:round;stroke-miterlimit:4;stroke-opacity:1"
         d="m 1.2123343,10.054168 c 0,4.9657 4.0301338,8.995833 8.9958327,8.995833 4.9657,0 8.995834,-4.030133 8.995834,-8.995833 0,-4.9657 -4.030134,-8.9958335 -8.995834,-8.9958335 -4.9656989,0 -8.9958327,4.0301335 -8.9958327,8.9958335 z"
         id="path3953" />
      <path
         inkscape:connector-curvature="0"
         style="opacity:0.70999995;fill:url(#radialGradient3466);fill-opacity:1;fill-rule:nonzero;stroke:none;stroke-width:0.25;stroke-linecap:round;stroke-linejoin:round;stroke-miterlimit:4;stroke-dasharray:none;stroke-dashoffset:4;stroke-opacity:0.05963302;filter:url(#filter3492)"
         d="m 40.814643,7.5607876 c -0.545821,-0.00869 -1.104678,0.012053 -1.65625,0.03125 C 21.508089,8.2063537 7.7499823,23.032664 8.4396433,40.685788 c 0.2241221,5.736814 1.9511697,11.060414 4.7812497,15.625 -0.01764,-0.273621 -0.02049,-0.536975 -0.03125,-0.8125 -0.689661,-17.653124 13.068449,-32.479434 30.71875,-33.09375 11.914406,-0.414679 22.558955,5.737349 28.4375,15.21875 C 71.268865,20.913604 57.462498,7.8257576 40.814643,7.5607876 Z"
         id="path3445"
         transform="matrix(0.26458334,0,0,0.26458334,-0.6320585,-0.41295638)" />
      <ellipse
         ry="8.2113028"
         rx="8.2087021"
         cy="9.8523569"
         cx="10.445097"
         transform="matrix(0.0347838,0.99939486,0.99923774,-0.0390376,0,0)"
         id="path3340"
         style="fill:none;fill-opacity:1;fill-rule:nonzero;stroke:url(#linearGradient5810);stroke-width:0.51313359;stroke-linecap:round;stroke-linejoin:round;stroke-miterlimit:4;stroke-dasharray:none;stroke-dashoffset:4;stroke-opacity:1" />
      <g
         transform="matrix(0.33667317,0,0,0.33667317,0.7837502,2.4857049)"
         id="g5118">
        <ellipse
           ry="20.067993"
           rx="21.345785"
           cy="-50.078033"
           cx="461.9838"
           style="opacity:0.40625;fill:url(#radialGradient3883);fill-opacity:1;stroke:none;stroke-width:2.5999999;stroke-linecap:round;stroke-linejoin:round;stroke-miterlimit:4;stroke-dasharray:none;stroke-dashoffset:4.1500001;stroke-opacity:1;filter:url(#filter3746)"
           id="path5122"
           transform="matrix(0.9136751,0,0,0.6306345,-393.98727,40.721129)" />
        <path
           inkscape:connector-curvature="0"
           sodipodi:nodetypes="csssc"
           id="path5124"
           d="m 28.332723,-1.7688984 c -13.43755,0 -24.350546,10.9129884 -24.350546,24.3505414 0,13.437551 10.912996,24.329122 24.350546,24.329122 13.437552,0 24.329122,-10.891571 24.329122,-24.329122 0,-13.437553 -10.89159,-24.3505414 -24.329122,-24.3505414 z"
           style="opacity:1;fill:url(#radialGradient3885);fill-opacity:1;stroke:none;stroke-width:3.42052293;stroke-linecap:round;stroke-linejoin:round;stroke-miterlimit:4;stroke-dasharray:none;stroke-dashoffset:4.1500001;stroke-opacity:1" />
        <path
           inkscape:connector-curvature="0"
           style="opacity:0.390625;fill:url(#linearGradient3889);fill-opacity:1;stroke:none;stroke-width:3.42052293;stroke-linecap:round;stroke-linejoin:round;stroke-miterlimit:4;stroke-dasharray:none;stroke-dashoffset:4.1500001;stroke-opacity:1;filter:url(#filter3475)"
           d="m 514.84375,-41.875 c -19.60749,0 -35.53126,15.923759 -35.53125,35.53125 0,3.4031029 0.47963,6.69688157 1.375,9.8125 -0.68406,-2.72914083 -1.0625,-5.5909893 -1.0625,-8.53125 -10e-6,-19.314748 15.68525,-35 35,-35 19.31474,10e-7 35,15.685252 35,35 0,6.6394446 -1.8468,12.8344745 -5.0625,18.125 3.65212,-5.5796481 5.78125,-12.23913019 5.78125,-19.40625 0,-19.607491 -15.89252,-35.53125 -35.5,-35.53125 z"
           transform="matrix(0.7026384,0,0,0.7026384,-333.2755,26.424467)"
           id="path5128" />
        <path
           inkscape:connector-curvature="0"
           style="opacity:0.5703125;fill:url(#linearGradient3893);fill-opacity:1;stroke:none;stroke-width:3.45748949;stroke-linecap:round;stroke-linejoin:round;stroke-miterlimit:4;stroke-dasharray:none;stroke-dashoffset:4.1500001;stroke-opacity:1;filter:url(#filter3448)"
           d="m 385.9375,-16.09375 c -1.14062,3.501591 -1.75,7.2131372 -1.75,11.09375 0,19.819394 16.08685,35.906249 35.90625,35.90625 19.81939,0 35.875,-16.086856 35.875,-35.90625 0,-3.8806127 -0.60938,-7.592159 -1.75,-11.09375 0.88419,3.099513 1.375,6.3679653 1.375,9.75 10e-6,19.607491 -15.89251,35.5 -35.5,35.5 -19.60749,-1e-6 -35.53125,-15.892509 -35.53125,-35.5 0,-3.3820347 0.49081,-6.650487 1.375,-9.75 z"
           transform="matrix(0.7026384,0,0,0.7026384,-266.59097,26.424467)"
           id="path5132" />
        <path
           inkscape:connector-curvature="0"
           id="path5134"
           transform="matrix(0.7026384,0,0,0.7026384,-266.59097,26.424467)"
           d="m 385.9375,-16.09375 c -1.14062,3.501591 -1.75,7.2131372 -1.75,11.09375 0,19.819394 16.08685,34.906249 35.90625,34.90625 19.81939,0 35.875,-15.086856 35.875,-34.90625 0,-3.8806127 -0.60938,-7.592159 -1.75,-11.09375 0.88419,3.099513 1.375,6.3679653 1.375,9.75 10e-6,19.607491 -15.89251,35.5 -35.5,35.5 -19.60749,-1e-6 -35.53125,-15.892509 -35.53125,-35.5 0,-3.3820347 0.49081,-6.650487 1.375,-9.75 z"
           style="opacity:1;fill:url(#linearGradient3895);fill-opacity:1;stroke:none;stroke-width:3.45748949;stroke-linecap:round;stroke-linejoin:round;stroke-miterlimit:4;stroke-dasharray:none;stroke-dashoffset:4.1500001;stroke-opacity:1;filter:url(#filter3448)"
           sodipodi:nodetypes="cssscsssc" />
        <path
           inkscape:connector-curvature="0"
           id="path5136"
           transform="matrix(0.7026384,0,0,0.7026384,-333.2755,26.424467)"
           d="m 514.84375,-40.875 c -19.60749,0 -35.53126,14.923759 -35.53125,34.53125 0,3.4031029 0.47963,6.69688157 1.375,9.8125 -0.68406,-2.72914083 -1.0625,-5.5909893 -1.0625,-8.53125 -10e-6,-19.314748 15.68525,-35 35,-35 19.31474,10e-7 35,15.685252 35,35 0,6.6394446 -1.8468,12.8344745 -5.0625,18.125 3.65212,-5.5796481 5.78125,-12.23913019 5.78125,-19.40625 0,-19.607491 -15.89252,-34.53125 -35.5,-34.53125 z"
           style="opacity:1;fill:url(#linearGradient3897);fill-opacity:1;stroke:none;stroke-width:3.42052293;stroke-linecap:round;stroke-linejoin:round;stroke-miterlimit:4;stroke-dasharray:none;stroke-dashoffset:4.1500001;stroke-opacity:1;filter:url(#filter3475)"
           sodipodi:nodetypes="cscssscsc" />
        <path
           inkscape:connector-curvature="0"
           style="opacity:1;fill:url(#linearGradient3899);fill-opacity:1;stroke:none;stroke-width:3.42052293;stroke-linecap:round;stroke-linejoin:round;stroke-miterlimit:4;stroke-dasharray:none;stroke-dashoffset:4.1500001;stroke-opacity:1"
           d="m 28.429343,-3.5254954 c -13.970941,0 -25.3169586,11.2279851 -25.31694,25.0534514 0,5.358272 1.7102223,10.310646 4.6110517,14.382129 -2.6932745,-3.981007 -4.2597462,-8.776616 -4.2597462,-13.942981 0,-13.7769783 11.1886445,-24.9656204 24.9656345,-24.9656204 13.776952,0 24.94368,11.1886421 24.943647,24.9656204 0,5.166365 -1.57032,9.961974 -4.259745,13.942981 2.89674,-4.071483 4.611061,-9.023857 4.611061,-14.382129 C 53.724318,7.7024897 42.400244,-3.5254954 28.429343,-3.5254954 Z"
           id="path5138" />
        <path
           inkscape:connector-curvature="0"
           style="opacity:1;fill:url(#radialGradient3901);fill-opacity:1;stroke:none;stroke-width:3.42052293;stroke-linecap:round;stroke-linejoin:round;stroke-miterlimit:4;stroke-dasharray:none;stroke-dashoffset:4.1500001;stroke-opacity:1;filter:url(#filter3594)"
           d="m 549.125,-40.125 c -19.12444,10e-7 -34.65625,15.531828 -34.65625,34.65625 -10e-6,17.548086 13.10106,32.010578 30.03125,34.28125 -14.58963,-2.228339 -25.78123,-14.822437 -25.78125,-30.03125 0,-16.782142 13.62412,-30.406251 30.40625,-30.40625 16.78212,0 30.40623,13.624108 30.40625,30.40625 0,15.733255 -11.95878,28.66288 -27.28125,30.21875 17.66635,-1.573028 31.5,-16.393027 31.5,-34.46875 0,-19.124422 -15.5006,-34.65625 -34.625,-34.65625 z M 552.25,29 c -0.51075,0.05186 -1.04459,0.09875 -1.5625,0.125 0.51874,-0.02306 1.04995,-0.07936 1.5625,-0.125 z m -7.75,-0.1875 c 0.51156,0.06861 1.01291,0.141469 1.53125,0.1875 C 545.5204,28.94814 545.00309,28.889339 544.5,28.8125 Z M 546.03125,29 c 0.51014,0.0453 1.01503,0.102054 1.53125,0.125 -0.51796,-0.02625 -1.0204,-0.07314 -1.53125,-0.125 z"
           transform="matrix(0.7026384,0,0,0.7026384,-357.76115,26.424467)"
           id="path5140"
           clip-path="url(#clipPath3598)" />
        <ellipse
           ry="17.534039"
           rx="14.103466"
           cy="-34.831043"
           cx="455.50381"
           style="opacity:0.40625;fill:url(#radialGradient3903);fill-opacity:1;stroke:none;stroke-width:2.5999999;stroke-linecap:round;stroke-linejoin:round;stroke-miterlimit:4;stroke-dasharray:none;stroke-dashoffset:4.1500001;stroke-opacity:1;filter:url(#filter3740)"
           id="path5142"
           transform="matrix(0.737306,0,0,0.6411355,-307.5619,33.860288)" />
        <path
           inkscape:connector-curvature="0"
           style="opacity:0.58984375;fill:url(#radialGradient3905);fill-opacity:1;stroke:none;stroke-width:2.5999999;stroke-linecap:round;stroke-linejoin:round;stroke-miterlimit:4;stroke-dasharray:none;stroke-dashoffset:4.1500001;stroke-opacity:1"
           d="m 29.44629,0.21256398 0.202353,4.22667322 c 1.675856,0.030091 3.308374,0.1875932 4.87931,0.4354759 C 34.201627,3.4994919 33.879107,2.1244318 33.538581,0.75050808 32.228887,0.45357358 30.861169,0.28435408 29.44629,0.21256398 Z m -3.102962,0.0256184 C 24.984998,0.34143148 23.662796,0.56568258 22.4084,0.87858708 22.046771,2.3356559 21.696699,3.7993238 21.351604,5.2589562 22.968073,4.8954456 24.65706,4.6671684 26.41077,4.5417024 l 0.202375,-4.30352002 c -0.09236,0.00597 -0.177863,-0.00699 -0.269817,0 z m 9.668641,1.22957692 c 0.416346,1.3118346 0.826993,2.6272945 1.236672,3.944893 2.95595,0.7252991 5.63874,1.8110111 7.892321,3.2020244 C 43.389898,5.4700695 40.122685,2.9145108 36.011969,1.4677593 Z M 19.575256,1.7751533 C 15.17321,3.5408686 11.842925,6.6214756 10.513713,10.305347 12.572208,8.5971523 15.186,7.1941731 18.158703,6.1811387 18.628277,4.7133964 19.097062,3.2452434 19.575256,1.7751533 Z m 10.140852,4.0729749 0.314784,6.1735038 c 2.154877,0.05604 4.259565,0.249514 6.250894,0.614788 C 35.830016,10.538348 35.355489,8.4357434 34.865215,6.3348367 33.210039,6.0564179 31.49036,5.8831794 29.716108,5.8481282 Z m -3.37278,0.076849 c -1.862784,0.1366568 -3.646241,0.440994 -5.351501,0.8453358 -0.487677,2.0996038 -0.943333,4.198211 -1.394077,6.301585 2.046207,-0.493072 4.199932,-0.817608 6.453266,-0.973417 z M 37.720854,6.949625 c 0.665983,2.1592065 1.332411,4.337395 1.978681,6.506515 2.414079,0.68476 4.624374,1.573902 6.588184,2.664086 0.163675,-0.738306 0.247335,-1.481512 0.247335,-2.254226 0,-1.129632 -0.195036,-2.203428 -0.53965,-3.253258 -2.31005,-1.5808838 -5.118001,-2.8373885 -8.27455,-3.663117 z M 17.641543,7.7437272 c -2.984505,1.0802894 -5.589579,2.5677048 -7.600019,4.3547538 -0.1005736,0.58046 -0.1573842,1.166847 -0.1573842,1.767519 0,1.032075 0.1579672,2.029623 0.4496952,2.997097 1.571398,-0.994899 3.335645,-1.868194 5.261542,-2.587237 0.66951,-2.17399 1.354323,-4.3554419 2.046166,-6.5321328 z"
           id="path5144" />
      </g>
      <rect
         style="opacity:0.45652173;fill:url(#linearGradient4502);fill-opacity:1;stroke:none;stroke-width:0.02645833;stroke-linecap:round;stroke-linejoin:round;stroke-miterlimit:4;stroke-dasharray:none;stroke-dashoffset:4.1500001;stroke-opacity:1"
         id="rect4486"
         width="0.19999032"
         height="17.54027"
         x="-0.61198789"
         y="26.214548"
         rx="0"
         ry="0"
         transform="rotate(-48.368341)" />
    </g>
  </g>
</svg>
