<?xml version="1.0" encoding="UTF-8" standalone="no"?>
<svg
   xmlns:dc="http://purl.org/dc/elements/1.1/"
   xmlns:cc="http://creativecommons.org/ns#"
   xmlns:rdf="http://www.w3.org/1999/02/22-rdf-syntax-ns#"
   xmlns:svg="http://www.w3.org/2000/svg"
   xmlns="http://www.w3.org/2000/svg"
   xmlns:xlink="http://www.w3.org/1999/xlink"
   xmlns:sodipodi="http://sodipodi.sourceforge.net/DTD/sodipodi-0.dtd"
   xmlns:inkscape="http://www.inkscape.org/namespaces/inkscape"
   height="16"
   viewBox="0 0 4.2333333 4.2333335"
   width="16"
   id="svg6763"
   version="1.1"
   inkscape:version="0.92.4 (unknown)"
   sodipodi:docname="sc_printdefault.svg"
   inkscape:export-filename="/home/rizmut/Dokumen/Rizmut/Github/libreoffice-style-karasa-jaga/build/next/cmd/sc_printdefault.png"
   inkscape:export-xdpi="96"
   inkscape:export-ydpi="96">
  <metadata
     id="metadata6866">
    <rdf:RDF>
      <cc:Work
         rdf:about="">
        <dc:format>image/svg+xml</dc:format>
        <dc:type
           rdf:resource="http://purl.org/dc/dcmitype/StillImage" />
        <dc:title></dc:title>
      </cc:Work>
    </rdf:RDF>
  </metadata>
  <defs
     id="defs6864">
    <linearGradient
       y2="72"
       x2="105"
       y1="44"
       x1="61"
       gradientUnits="userSpaceOnUse"
       id="linearGradient4024"
       xlink:href="#linearGradient3895"
       inkscape:collect="always" />
    <linearGradient
       id="linearGradient3895">
      <stop
         style="stop-color:#382a23;stop-opacity:1;"
         offset="0"
         id="stop3897" />
      <stop
         style="stop-color:#753919;stop-opacity:0;"
         offset="1"
         id="stop3899" />
    </linearGradient>
    <filter
       id="filter3891"
       inkscape:collect="always">
      <feGaussianBlur
         id="feGaussianBlur3893"
         stdDeviation="1.5750545"
         inkscape:collect="always" />
    </filter>
    <radialGradient
       r="24.090857"
       fy="56.035801"
       fx="59.940041"
       cy="56.035801"
       cx="59.940041"
       gradientTransform="matrix(1,0,0,1.8330946,0,-46.683121)"
       gradientUnits="userSpaceOnUse"
       id="radialGradient5616"
       xlink:href="#XMLID_4_-3"
       inkscape:collect="always" />
    <radialGradient
       id="XMLID_4_-3"
       cx="48"
       cy="-0.2148"
       r="55.147999"
       gradientTransform="matrix(0.9792,0,0,0.9725,133.0002,20.8762)"
       gradientUnits="userSpaceOnUse">
      <stop
         offset="0"
         style="stop-color:#fff718;stop-opacity:1;"
         id="stop3082-9" />
      <stop
         offset="1"
         style="stop-color:#e77100;stop-opacity:1;"
         id="stop3090-0" />
    </radialGradient>
    <radialGradient
       r="1.515625"
       fy="2.3848805"
       fx="92.609375"
       cy="2.3848805"
       cx="92.609375"
       gradientTransform="matrix(3.49562,-2.4342373,0.6597955,0.94748129,-257.69134,225.62669)"
       gradientUnits="userSpaceOnUse"
       id="radialGradient4028"
       xlink:href="#linearGradient3260-7"
       inkscape:collect="always" />
    <linearGradient
       id="linearGradient3260-7"
       inkscape:collect="always">
      <stop
         id="stop3262-2"
         offset="0"
         style="stop-color:#ffffff;stop-opacity:1;" />
      <stop
         id="stop3264-7"
         offset="1"
         style="stop-color:#ffffff;stop-opacity:0;" />
    </linearGradient>
    <filter
       height="1.2956814"
       y="-0.14784063"
       width="1.2651987"
       x="-0.13259934"
       id="filter3957"
       inkscape:collect="always">
      <feGaussianBlur
         id="feGaussianBlur3959"
         stdDeviation="0.16747573"
         inkscape:collect="always" />
    </filter>
    <linearGradient
       y2="55.986382"
       x2="82.901695"
       y1="55.986382"
       x1="37.013638"
       gradientUnits="userSpaceOnUse"
       id="linearGradient5612"
       xlink:href="#linearGradient3875"
       inkscape:collect="always" />
    <linearGradient
       id="linearGradient3875"
       inkscape:collect="always">
      <stop
         id="stop3877"
         offset="0"
         style="stop-color:#753919;stop-opacity:1;" />
      <stop
         id="stop3879"
         offset="1"
         style="stop-color:#753919;stop-opacity:0;" />
    </linearGradient>
    <radialGradient
       r="1.515625"
       fy="1.9914972"
       fx="92.504089"
       cy="1.9914972"
       cx="92.504089"
       gradientTransform="matrix(1.6002822,-3.1923724,1.0321559,0.51740226,-58.053329,296.8628)"
       gradientUnits="userSpaceOnUse"
       id="radialGradient4032"
       xlink:href="#linearGradient3344"
       inkscape:collect="always" />
    <linearGradient
       id="linearGradient3344">
      <stop
         id="stop3346"
         offset="0"
         style="stop-color:#fdff63;stop-opacity:1;" />
      <stop
         id="stop3348"
         offset="1"
         style="stop-color:#ffffff;stop-opacity:0;" />
    </linearGradient>
    <radialGradient
       r="1.515625"
       fy="2.3848805"
       fx="92.609375"
       cy="2.3848805"
       cx="92.609375"
       gradientTransform="matrix(3.49562,-2.4342373,0.6597955,0.94748129,-265.30336,257.27635)"
       gradientUnits="userSpaceOnUse"
       id="radialGradient4034"
       xlink:href="#linearGradient3260-7"
       inkscape:collect="always" />
    <radialGradient
       r="22.407845"
       fy="43.625381"
       fx="45.620869"
       cy="64.88855"
       cx="47.98196"
       gradientTransform="matrix(0.25568275,0.1196198,-0.40782751,0.87171573,60.011076,12.507468)"
       gradientUnits="userSpaceOnUse"
       id="radialGradient5608"
       xlink:href="#linearGradient4056"
       inkscape:collect="always" />
    <linearGradient
       id="linearGradient4056"
       inkscape:collect="always">
      <stop
         id="stop4058"
         offset="0"
         style="stop-color:#31170a;stop-opacity:1" />
      <stop
         id="stop4060"
         offset="1"
         style="stop-color:#542912;stop-opacity:0;" />
    </linearGradient>
    <radialGradient
       r="19.958006"
       fy="40.033596"
       fx="77"
       cy="40.033596"
       cx="77"
       gradientTransform="matrix(1.8469014,0,0,3.7015753,-79.21141,-136.18737)"
       gradientUnits="userSpaceOnUse"
       id="radialGradient4036"
       xlink:href="#XMLID_2_"
       inkscape:collect="always" />
    <linearGradient
       y2="0"
       x2="28"
       y1="57.5"
       x1="28"
       gradientUnits="userSpaceOnUse"
       id="XMLID_2_">
      <stop
         id="stop12-2"
         style="stop-color:#FFEA00"
         offset="0" />
      <stop
         id="stop14-0"
         style="stop-color:#FFCC00"
         offset="1" />
    </linearGradient>
    <radialGradient
       r="1.515625"
       fy="2.3848805"
       fx="92.609375"
       cy="2.3848805"
       cx="92.609375"
       gradientTransform="matrix(3.49562,-2.4342373,0.6597955,0.94748129,-232.69134,225.62669)"
       gradientUnits="userSpaceOnUse"
       id="radialGradient4038"
       xlink:href="#linearGradient3344"
       inkscape:collect="always" />
    <radialGradient
       r="19.958006"
       fy="43.275459"
       fx="77"
       cy="43.275459"
       cx="77"
       gradientTransform="matrix(1.8469014,0,0,3.7015753,-79.21141,-136.18737)"
       gradientUnits="userSpaceOnUse"
       id="radialGradient4040"
       xlink:href="#linearGradient3919"
       inkscape:collect="always" />
    <linearGradient
       id="linearGradient3919"
       gradientUnits="userSpaceOnUse"
       x1="28"
       y1="57.5"
       x2="28"
       y2="0">
      <stop
         offset="0"
         style="stop-color:#FFEA00"
         id="stop3921" />
      <stop
         offset="1"
         style="stop-color:#dea200;stop-opacity:1"
         id="stop3923" />
    </linearGradient>
    <radialGradient
       r="14.0625"
       fy="46.739941"
       fx="59.98452"
       cy="56"
       cx="54.0625"
       gradientTransform="matrix(1.631111,0.28444492,-0.80286938,4.6039467,-3.158749,-229.19883)"
       gradientUnits="userSpaceOnUse"
       id="radialGradient4042"
       xlink:href="#XMLID_4_-3"
       inkscape:collect="always" />
    <radialGradient
       id="radialGradient6013"
       cx="48"
       cy="-0.2148"
       r="55.147999"
       gradientTransform="matrix(0.9792,0,0,0.9725,133.0002,20.8762)"
       gradientUnits="userSpaceOnUse">
      <stop
         offset="0"
         style="stop-color:#fff718;stop-opacity:1;"
         id="stop6015" />
      <stop
         offset="1"
         style="stop-color:#e77100;stop-opacity:1;"
         id="stop6017" />
    </radialGradient>
    <linearGradient
       y2="58.741943"
       x2="-20.055338"
       y1="88"
       x1="-24.299999"
       gradientTransform="translate(67.3,-12)"
       gradientUnits="userSpaceOnUse"
       id="linearGradient4044"
       xlink:href="#linearGradient18668"
       inkscape:collect="always" />
    <linearGradient
       id="linearGradient18668"
       gradientUnits="userSpaceOnUse"
       x1="28"
       y1="57.5"
       x2="28"
       y2="0">
      <stop
         offset="0"
         style="stop-color:#fffccf;stop-opacity:1;"
         id="stop18670" />
      <stop
         offset="1"
         style="stop-color:white;stop-opacity:0;"
         id="stop18672" />
    </linearGradient>
    <linearGradient
       y2="14.036914"
       x2="-19.069578"
       y1="43.368244"
       x1="-26.928885"
       gradientTransform="translate(67.3,-12)"
       gradientUnits="userSpaceOnUse"
       id="linearGradient4046"
       xlink:href="#linearGradient3825"
       inkscape:collect="always" />
    <linearGradient
       id="linearGradient3825">
      <stop
         style="stop-color:#ffffff;stop-opacity:0;"
         offset="0"
         id="stop3827" />
      <stop
         id="stop3833"
         offset="0.5"
         style="stop-color:#ffffff;stop-opacity:0.18705036;" />
      <stop
         style="stop-color:#ffffff;stop-opacity:1;"
         offset="1"
         id="stop3829" />
    </linearGradient>
    <linearGradient
       y2="42.272415"
       x2="-27.925625"
       y1="56"
       x1="-20"
       gradientTransform="translate(67.3,-12)"
       gradientUnits="userSpaceOnUse"
       id="linearGradient4048"
       xlink:href="#linearGradient3260-7"
       inkscape:collect="always" />
    <linearGradient
       y2="40.488441"
       x2="66.028702"
       y1="79.965019"
       x1="55.450985"
       gradientTransform="translate(-25)"
       gradientUnits="userSpaceOnUse"
       id="linearGradient4050"
       xlink:href="#linearGradient3903"
       inkscape:collect="always" />
    <linearGradient
       id="linearGradient3903"
       inkscape:collect="always">
      <stop
         id="stop3905"
         offset="0"
         style="stop-color:#ffeb4a;stop-opacity:1;" />
      <stop
         id="stop3907"
         offset="1"
         style="stop-color:#ffeb4a;stop-opacity:0;" />
    </linearGradient>
    <filter
       id="filter3911"
       inkscape:collect="always">
      <feGaussianBlur
         id="feGaussianBlur3913"
         stdDeviation="0.43658741"
         inkscape:collect="always" />
    </filter>
    <radialGradient
       inkscape:collect="always"
       xlink:href="#linearGradient3711-6"
       id="radialGradient4693"
       gradientUnits="userSpaceOnUse"
       gradientTransform="matrix(2.1582105,2.7612836,-0.9564263,0.74753972,-100.66778,-185.24544)"
       cx="67.273438"
       cy="2.3514786"
       fx="67.273438"
       fy="2.3514786"
       r="1.3515625" />
    <linearGradient
       id="linearGradient3711-6"
       gradientUnits="userSpaceOnUse"
       x1="-84.002403"
       y1="-383.9971"
       x2="-23.516129"
       y2="-383.9975"
       gradientTransform="rotate(90,-90.0007,50.0022)">
      <stop
         offset="0"
         style="stop-color:white;stop-opacity:1;"
         id="stop3713-1" />
      <stop
         offset="1"
         style="stop-color:white;stop-opacity:0"
         id="stop3715-5" />
    </linearGradient>
    <filter
       height="1.2840828"
       y="-0.14204141"
       width="1.3244158"
       x="-0.16220789"
       id="filter3991"
       inkscape:collect="always">
      <feGaussianBlur
         id="feGaussianBlur3993"
         stdDeviation="0.17107863"
         inkscape:collect="always" />
    </filter>
  </defs>
  <sodipodi:namedview
     pagecolor="#ffffff"
     bordercolor="#666666"
     borderopacity="1"
     objecttolerance="10"
     gridtolerance="10"
     guidetolerance="10"
     inkscape:pageopacity="0"
     inkscape:pageshadow="2"
     inkscape:window-width="1366"
     inkscape:window-height="714"
     id="namedview6862"
     showgrid="true"
     showguides="false"
     inkscape:zoom="30.125"
     inkscape:cx="8"
     inkscape:cy="10.655602"
     inkscape:window-x="0"
     inkscape:window-y="28"
     inkscape:window-maximized="1"
     inkscape:current-layer="g985">
    <inkscape:grid
       type="xygrid"
       id="grid943" />
  </sodipodi:namedview>
  <linearGradient
     id="a"
     gradientTransform="matrix(0.29104575,0,0,0.33313079,-1.693333,-5.80263)"
     gradientUnits="userSpaceOnUse"
     x1="64"
     x2="63.9991"
     y1="96"
     y2="52.364712">
    <stop
       offset="0"
       stop-color="#080808"
       id="stop6766" />
    <stop
       offset="1"
       stop-color="#232323"
       id="stop6768" />
  </linearGradient>
  <linearGradient
     id="b"
     gradientTransform="matrix(0.28394756,0,0,0.28836258,-1.290704,-0.25915)"
     gradientUnits="userSpaceOnUse"
     x1="64"
     x2="64"
     y1="88"
     y2="56">
    <stop
       offset="0"
       stop-color="#7f7f81"
       id="stop6771" />
    <stop
       offset=".44999999"
       stop-color="#b6b6b7"
       id="stop6773" />
    <stop
       offset=".67499995"
       stop-color="#f5f5f5"
       id="stop6775" />
    <stop
       offset="1"
       stop-color="#cfcfcf"
       id="stop6777" />
  </linearGradient>
  <linearGradient
     id="c"
     gradientTransform="matrix(0.22737947,0,0,0.30040476,2.381251,-0.69)"
     gradientUnits="userSpaceOnUse"
     x1="68"
     x2="68"
     y1="4"
     y2="48">
    <stop
       offset="0"
       stop-color="#fff"
       id="stop6780" />
    <stop
       offset=".54545456"
       stop-color="#ebebeb"
       id="stop6782" />
    <stop
       offset=".90909094"
       stop-color="#bababa"
       id="stop6784" />
    <stop
       offset="1"
       stop-color="#7e7e7f"
       id="stop6786" />
  </linearGradient>
  <linearGradient
     id="d"
     gradientTransform="matrix(0.24052171,0,0,0.26458333,1.590201,0.97738)"
     gradientUnits="userSpaceOnUse"
     x1="64"
     x2="64"
     y1="48"
     y2="72">
    <stop
       offset="0"
       stop-color="#6e4388"
       id="stop6789" />
    <stop
       offset=".21062189"
       stop-color="#651d8d"
       id="stop6791" />
    <stop
       offset=".346082"
       stop-color="#ac7ec6"
       id="stop6793" />
    <stop
       offset=".51274866"
       stop-color="#ca87dc"
       id="stop6795" />
    <stop
       offset="1"
       stop-color="#ebeaeb"
       id="stop6797" />
  </linearGradient>
  <linearGradient
     id="e"
     gradientUnits="userSpaceOnUse"
     x1="17.991905"
     x2="17.842594"
     y1="295.86069"
     y2="288.88287"
     gradientTransform="translate(0,-263.13332)">
    <stop
       offset="0"
       stop-color="#fefefe"
       id="stop6800" />
    <stop
       offset=".5"
       stop-color="#f7f7f7"
       id="stop6802" />
    <stop
       offset=".91002578"
       stop-color="#8c8c8c"
       id="stop6804" />
    <stop
       offset="1"
       stop-color="#666"
       id="stop6806" />
  </linearGradient>
  <linearGradient
     id="f"
     gradientTransform="matrix(0.27285534,0,0,0.17849961,-0.529165,5.79217)"
     gradientUnits="userSpaceOnUse"
     x1="52"
     x2="76"
     y1="72"
     y2="72">
    <stop
       offset="0"
       id="stop6809" />
    <stop
       offset=".66666669"
       stop-color="#a6a6a6"
       stop-opacity=".866667"
       id="stop6811" />
    <stop
       offset="1"
       stop-opacity=".737089"
       id="stop6813" />
  </linearGradient>
  <linearGradient
     id="g"
     gradientUnits="userSpaceOnUse"
     x1="17.000839"
     x2="17.000839"
     y1="275.75235"
     y2="281.04404"
     gradientTransform="translate(0,-263.13332)">
    <stop
       offset="0"
       stop-color="#baaac4"
       id="stop6816" />
    <stop
       offset="1"
       stop-color="#baaac4"
       stop-opacity="0"
       id="stop6818" />
  </linearGradient>
  <g
     id="g985"
     transform="scale(0.125)">
    <g
       id="g7262">
      <rect
         style="fill:#111012"
         id="rect6822"
         y="4.2333488"
         x="6.3499999"
         width="21.166666"
         ry="0.093038999"
         rx="0.053633999"
         height="9.0594854" />
      <rect
         style="fill:#3e3c41"
         id="rect6824"
         y="6.349987"
         x="8.4666662"
         width="16.933334"
         ry="0.073977999"
         rx="0.044496"
         height="7.2442598" />
      <rect
         style="fill:#636363;fill-opacity:0.99607801"
         id="rect6826"
         y="1.1298828e-05"
         x="10.583333"
         width="12.7"
         ry="0.083452001"
         rx="0.052561"
         height="14.832205" />
      <rect
         style="fill:#1d1d1d"
         id="rect6828"
         y="-17.910931"
         x="1.539611"
         width="30.103001"
         transform="scale(1,-1)"
         rx="2.116667"
         height="6.1574888" />
      <rect
         x="0"
         style="fill:url(#a)"
         id="rect6830"
         y="11.641674"
         width="33.866665"
         ry="0.101501"
         rx="0.064691"
         height="15.505507" />
      <rect
         style="fill:#b6b6b6"
         id="rect6832"
         y="-16.933331"
         x="1.058333"
         width="31.749998"
         transform="scale(1,-1)"
         ry="0.97736698"
         rx="2.0339921"
         height="5.2916632" />
      <rect
         style="fill:url(#b)"
         id="rect6834"
         y="14.816662"
         x="1.058333"
         width="31.749998"
         ry="0.071886003"
         rx="0.058605"
         height="10.583338" />
      <rect
         style="fill:#28232c"
         id="rect6836"
         y="11.75346"
         x="3.175"
         width="27.516665"
         ry="0.093154997"
         rx="0.061425999"
         height="5.1798692" />
      <rect
         style="fill:url(#c)"
         id="rect6838"
         y="1.0583304"
         x="11.641666"
         width="10.583332"
         ry="0.074887998"
         rx="0.04693"
         height="12.234495" />
      <path
         inkscape:connector-curvature="0"
         id="path6840"
         style="fill:url(#d);stroke:#1f1f1f;stroke-width:0.79374999;stroke-linecap:square;stroke-linejoin:round;stroke-opacity:0.92488302"
         d="M 5.3919441,11.7819 H 28.575239 c 0.0275,0 0.04964,0.0411 0.04964,0.092 v 4.35722 c 0,0.051 -0.03322,0.07 -0.04964,0.092 l -1.970778,2.64583 0.09624,1.5875 H 7.2664758 l 0.096246,-1.5875 -1.9707781,-2.64583 c -0.017928,-0.0241 -0.049642,-0.041 -0.049642,-0.092 V 11.8739 c 0,-0.051 0.02214,-0.092 0.049642,-0.092 z" />
      <path
         style="fill:#222222;fill-rule:evenodd"
         inkscape:connector-curvature="0"
         id="path6842"
         d="m 6.3499998,25.4 v 8.46667 H 27.516666 V 25.4 Z" />
      <path
         inkscape:connector-curvature="0"
         style="fill:url(#e);fill-rule:evenodd"
         id="path6844"
         d="m 7.4083331,25.4 v 7.40833 H 26.458332 l 1e-6,-7.40833 z" />
      <rect
         id="rect6846"
         y="20.108349"
         x="6.3499999"
         width="21.166662"
         ry="0.070465997"
         rx="0.054607999"
         height="5.2916708" />
      <rect
         style="fill:url(#f)"
         id="rect6848"
         y="17.99168"
         x="13.758333"
         width="6.349999"
         ry="0.044498"
         rx="0.056315001"
         height="2.1166911" />
      <rect
         style="fill:#986aae"
         id="rect6850"
         y="11.641674"
         x="9.5249996"
         width="14.816668"
         ry="0.169416"
         rx="0.074395999"
         height="4.2333331" />
      <rect
         style="opacity:0.92000002;fill:url(#g)"
         id="rect6852"
         y="11.641674"
         x="10.583333"
         width="12.7"
         ry="0.26664799"
         rx="0.081912003"
         height="7.4083271" />
      <rect
         style="fill:#c9b1d5"
         id="rect6856"
         y="11.641674"
         x="10.583333"
         width="12.7"
         ry="0.13903099"
         rx="0.068259999"
         height="3.174994" />
      <rect
         style="fill:#0c0c0c"
         id="rect6858"
         y="11.641674"
         x="11.641666"
         width="10.583333"
         ry="0.070524998"
         rx="0.068259999"
         height="2.1166601" />
      <path
         style="fill:#545156;fill-rule:evenodd"
         inkscape:connector-curvature="0"
         id="path6860"
         d="m 7.4085718,23.20237 -2.387e-4,-2.0357 H 26.458332 l 2.4e-4,2.0357 z" />
    </g>
    <g
       id="g4007"
       transform="matrix(0.33463456,0,0,0.33463456,9.6772059,3.0728212)">
      <path
         d="m 57.59375,13.574219 a 2.4257372,2.4257372 0 0 0 -2.296875,1.644531 l -13.59375,40 A 2.4257372,2.4257372 0 0 0 44,58.425781 h 6.005859 l -12.30664,36.804688 a 2.4257372,2.4257372 0 0 0 4.320312,2.111328 l 31.90625,-48 A 2.4257372,2.4257372 0 0 0 71.90625,45.574219 H 65.638672 L 82.007812,17.212891 A 2.4257372,2.4257372 0 0 0 79.90625,13.574219 Z"
         id="path3883"
         style="fill:url(#linearGradient4024);fill-opacity:1;stroke-width:1px;filter:url(#filter3891)"
         inkscape:original="M 57.59375 16 L 44 56 L 53.375 56 L 40 96 L 71.90625 48 L 61.4375 48 L 79.90625 16 L 57.59375 16 z "
         inkscape:radius="2.4254947"
         sodipodi:type="inkscape:offset"
         transform="translate(-12.9,-9.5)" />
      <path
         sodipodi:type="inkscape:offset"
         inkscape:radius="2.013669"
         inkscape:original="M 57.59375 13.59375 C 56.596504 13.58785 55.632775 14.274314 55.3125 15.21875 L 42.03125 55.53125 C 41.52367 56.97537 42.781845 58.733368 44.3125 58.71875 L 50.34375 58.71875 L 37.71875 95.25 C 37.347281 96.344876 37.895894 97.685704 38.9375 98.1875 C 39.979106 98.689296 41.375318 98.28539 42 97.3125 L 74.21875 49 C 74.695714 48.282273 74.751928 47.290207 74.34375 46.53125 C 73.935571 45.772293 73.080505 45.278994 72.21875 45.28125 L 65.875 45.28125 L 81.96875 17.1875 C 82.387158 16.465231 82.384268 15.505203 81.96875 14.78125 C 81.553264 14.057297 80.740952 13.596842 79.90625 13.59375 L 57.59375 13.59375 z "
         style="fill:url(#radialGradient5616);fill-opacity:1;stroke-width:1px"
         id="path5614"
         d="m 57.605469,11.580078 c -1.928958,-0.01141 -3.579689,1.165299 -4.199219,2.992188 a 2.0138704,2.0138704 0 0 0 -0.0059,0.01563 l -13.269532,40.27539 c -2.3e-4,6.55e-4 2.3e-4,0.0013 0,0.002 -1.020637,2.90791 1.119051,5.896623 4.201172,5.867188 h 3.185547 L 35.816406,94.591797 a 2.0138704,2.0138704 0 0 0 -0.0039,0.01172 c -0.72599,2.1398 0.19583,4.407895 2.251953,5.398434 2.056125,0.99055 4.40603,0.30601 5.630859,-1.601559 L 75.894531,50.117188 a 2.0138704,2.0138704 0 0 0 0.002,-0.002 c 0.910024,-1.369387 1.012135,-3.06554 0.220704,-4.537109 -0.791433,-1.471569 -2.2706,-2.314824 -3.904297,-2.310547 H 69.349609 L 83.710938,18.197266 c 0.808374,-1.395442 0.800006,-3.030931 0.0039,-4.417969 -0.79601,-1.386987 -2.230387,-2.193402 -3.800782,-2.199219 a 2.0138704,2.0138704 0 0 0 -0.0078,0 z"
         transform="translate(-14,-12)" />
      <path
         sodipodi:nodetypes="cccc"
         id="path3925"
         d="M 66,1.6874995 65.03125,4.59375 68.125,4.4062495 C 67.96589,2.1818625 66.969848,1.9661143 66,1.6874995 Z"
         style="fill:url(#radialGradient4028);fill-opacity:1;stroke:none;filter:url(#filter3957)"
         transform="matrix(1.4680988,0,0,1.4680988,-30.441048,-2.1503287)"
         inkscape:connector-curvature="0" />
      <path
         sodipodi:type="inkscape:offset"
         inkscape:radius="1.93622"
         inkscape:original="M 57.59375 13.5625 C 56.591057 13.5704 55.630551 14.267803 55.3125 15.21875 L 42.03125 55.53125 C 41.529196 56.982544 42.776837 58.742915 44.3125 58.75 L 50.3125 58.75 L 37.6875 95.21875 C 37.247027 96.340195 37.792721 97.75179 38.875 98.28125 C 39.957279 98.81071 41.41625 98.37981 42.03125 97.34375 L 74.25 49.03125 C 74.740697 48.303089 74.790529 47.304772 74.375 46.53125 C 73.959471 45.757727 73.096789 45.24289 72.21875 45.25 L 65.96875 45.25 L 82 17.21875 C 82.431536 16.485635 82.422741 15.519471 82 14.78125 C 81.577257 14.043029 80.756944 13.561347 79.90625 13.5625 L 57.59375 13.5625 z "
         style="fill:url(#linearGradient5612);fill-opacity:1;stroke-width:1px"
         id="path5610"
         d="m 57.578125,11.626953 c -1.890668,0.0149 -3.501895,1.185558 -4.101563,2.978516 a 1.9364137,1.9364137 0 0 0 -0.0039,0.0078 L 40.201172,54.898438 c -0.984212,2.845074 1.091091,5.77322 4.101562,5.787109 a 1.9364137,1.9364137 0 0 0 0.0098,0 h 3.28125 l -11.736328,33.900391 0.02734,-0.07422 c -0.841533,2.142544 0.0669,4.494282 2.138672,5.507811 2.071778,1.01353 4.491069,0.30175 5.671874,-1.687499 l -0.05273,0.08594 32.212891,-48.304688 c 0.915075,-1.357909 0.999342,-3.055854 0.224609,-4.498047 -0.774731,-1.442191 -2.231853,-2.314102 -3.876953,-2.300781 H 69.306641 L 83.667969,18.201172 c 0.814618,-1.383915 0.790733,-3.022441 0.01172,-4.382813 -0.778693,-1.359803 -2.190972,-2.192854 -3.773438,-2.191406 h -22.3125 a 1.9364137,1.9364137 0 0 0 -0.01563,0 z"
         transform="translate(-14,-12)" />
      <path
         sodipodi:nodetypes="cccc"
         id="path4001"
         d="M 89.78466,2.9912276 90.25,6.5603907 93.50065,4.40625 C 93.34154,2.181863 90.25,1.899823 89.78466,2.9912276 Z"
         style="fill:url(#radialGradient4032);fill-opacity:1;stroke:none;filter:url(#filter3957)"
         transform="matrix(-1.260111,0,0,-1.260111,140.39943,90.317223)"
         inkscape:connector-curvature="0" />
      <path
         style="fill:url(#radialGradient4034);fill-opacity:1;stroke:none;filter:url(#filter3957)"
         d="m 58.387959,33.337184 -0.96875,2.90625 3.09375,-0.1875 c -0.15911,-2.224387 -1.155152,-2.440135 -2.125,-2.71875 z"
         id="path3961"
         sodipodi:nodetypes="cccc"
         transform="matrix(1.4760622,0,0,1.4760622,-27.335112,-17.254127)"
         inkscape:connector-curvature="0" />
      <path
         sodipodi:type="inkscape:offset"
         inkscape:radius="1.7813225"
         inkscape:original="M 57.59375 13.5625 C 56.591057 13.5704 55.630551 14.267803 55.3125 15.21875 L 42.125 55.625 C 41.622945 57.076293 42.870587 58.836664 44.40625 58.84375 L 50.40625 58.84375 L 37.6875 95.21875 C 37.247027 96.340195 37.792721 97.75179 38.875 98.28125 C 39.957279 98.81071 41.41625 98.37981 42.03125 97.34375 L 74.5625 48.71875 C 75.053196 47.990589 75.103028 46.992273 74.6875 46.21875 C 74.271971 45.445227 73.409288 44.930391 72.53125 44.9375 L 66.28125 44.9375 L 82 17.21875 C 82.431536 16.485635 82.422741 15.519471 82 14.78125 C 81.577257 14.043029 80.756944 13.561347 79.90625 13.5625 L 57.59375 13.5625 z "
         style="fill:url(#radialGradient5608);fill-opacity:1;stroke-width:1px"
         id="path5606"
         d="m 57.580078,11.78125 c -1.819629,0.01434 -3.379893,1.14745 -3.957031,2.873047 a 1.7815006,1.7815006 0 0 0 -0.0039,0.01172 L 40.441406,55.042969 c -0.945642,2.733572 1.064546,5.568684 3.957032,5.582031 a 1.7815006,1.7815006 0 0 0 0.0078,0 h 3.490234 l -11.890625,34.005859 0.02344,-0.0625 c -0.809448,2.060857 0.06988,4.337696 2.0625,5.3125 1.992619,0.974811 4.335162,0.286041 5.470703,-1.626953 l -0.05078,0.08008 32.527343,-48.61914 C 76.920185,48.407315 77.001853,46.763698 76.255859,45.375 75.509864,43.986301 74.10131,43.143427 72.517578,43.15625 H 69.337891 L 83.535156,18.123047 v -0.002 c 0.782946,-1.331496 0.759957,-2.914571 0.0098,-4.22461 C 82.79473,12.586452 81.430116,11.779882 79.90625,11.78125 h -22.3125 a 1.7815006,1.7815006 0 0 0 -0.01367,0 z"
         transform="translate(-14,-12)" />
      <path
         sodipodi:nodetypes="cccccccc"
         id="path2974"
         d="M 26,84 39.766383,44.604246 H 30.382737 L 43.66447,3.4897423 H 65.990134 L 48.275248,35.116283 h 10.467059 z"
         style="fill:url(#radialGradient4036);fill-opacity:1;stroke-width:1px"
         inkscape:connector-curvature="0" />
      <path
         transform="matrix(-1.3780653,0,0,-1.3780653,155.36836,50.092383)"
         style="fill:url(#radialGradient4038);fill-opacity:1;stroke:none;filter:url(#filter3957)"
         d="M 91,1.6874995 90.03125,4.59375 93.125,4.4062495 C 92.96589,2.1818625 91.969848,1.9661143 91,1.6874995 Z"
         id="path3997"
         sodipodi:nodetypes="cccc"
         inkscape:connector-curvature="0" />
      <path
         style="fill:url(#radialGradient4040);fill-opacity:1;stroke-width:1px"
         d="M 26,84 39.766383,44.604246 47,40 57.907859,36 Z"
         id="path3915"
         sodipodi:nodetypes="ccccc"
         inkscape:connector-curvature="0" />
      <path
         sodipodi:nodetypes="cccccccc"
         id="path2980"
         d="M 43.59375,4 30.391383,44.604246 h 9.375 L 26,84 46,40 H 38 L 54.125,4 Z"
         style="fill:url(#radialGradient4042);fill-opacity:1;stroke-width:1px"
         inkscape:connector-curvature="0" />
      <path
         sodipodi:nodetypes="ccccccccc"
         id="path3795"
         d="M 43.675536,3.4897423 31.028164,42.90625 c 2.685462,-0.03316 5.028213,-1.500541 6.842267,-2.200893 2.307406,0.0914 6.475532,0.283699 7.664814,0.259562 4.391788,-1.103535 9.396199,-3.525877 12.925812,-5.411136 l 0.28125,-0.4375 H 48.273557 L 65.988036,3.4897423 Z"
         style="fill:url(#linearGradient4044);fill-opacity:1;stroke-width:1px"
         inkscape:connector-curvature="0" />
      <path
         id="path3799"
         d="m 43.678624,3.4897423 -0.15625,0.5 h 21.5625 L 47.367307,35.616283 h 10.46875 l -0.25,0.375 c 0.294742,-0.14921 0.58686,-0.283597 0.875,-0.4375 l 0.28125,-0.4375 H 48.273557 L 65.991124,3.4897423 Z"
         style="fill:url(#linearGradient4046);fill-opacity:1;stroke-width:1px"
         sodipodi:nodetypes="ccccccccccc"
         inkscape:connector-curvature="0" />
      <path
         sodipodi:nodetypes="cccccccccc"
         id="path3848"
         d="M 57.429807,35.116283 C 54.358691,36.744393 49.725388,38.95401 45.993824,40 l -8.05478,0.05557 c -2.024414,0.860302 -4.234266,2.211387 -6.766547,2.282222 l -0.1875,0.53125 c 2.566711,-0.03169 5.03373,-1.502422 6.874789,-2.176645 l 7.697657,0.27169 c 4.434125,-1.105398 9.344806,-3.509452 12.903614,-5.410304 l 0.28125,-0.4375 z"
         style="fill:url(#linearGradient4048);fill-opacity:1;stroke-width:1px"
         inkscape:connector-curvature="0" />
      <path
         style="fill:none;stroke:url(#linearGradient4050);stroke-width:1px;stroke-opacity:1;filter:url(#filter3911)"
         d="M 26,84 39.766383,44.604246 H 30.382737 L 43.66447,3.4897423 59,10.5 48.275248,35.116283 h 10.467059 z"
         id="path3901"
         sodipodi:nodetypes="cccccccc"
         inkscape:connector-curvature="0" />
      <path
         sodipodi:nodetypes="cccc"
         id="path3965"
         d="m 43.625,1.7812495 0.53125,2.890625 -2.53125,-1.421875 c 0.17769,-0.5642061 0.687414,-1.4701237 2,-1.46875 z"
         style="opacity:0.81188121;fill:url(#radialGradient4693);fill-opacity:1;stroke:none;filter:url(#filter3991)"
         transform="matrix(1.5030615,0,0,1.5030615,-22.367288,-2.3502404)"
         inkscape:connector-curvature="0" />
    </g>
  </g>
</svg>
