<?xml version="1.0" encoding="UTF-8" standalone="no"?>
<svg
   xmlns:dc="http://purl.org/dc/elements/1.1/"
   xmlns:cc="http://creativecommons.org/ns#"
   xmlns:rdf="http://www.w3.org/1999/02/22-rdf-syntax-ns#"
   xmlns:svg="http://www.w3.org/2000/svg"
   xmlns="http://www.w3.org/2000/svg"
   xmlns:sodipodi="http://sodipodi.sourceforge.net/DTD/sodipodi-0.dtd"
   xmlns:inkscape="http://www.inkscape.org/namespaces/inkscape"
   height="16"
   width="16"
   version="1.1"
   id="svg123"
   sodipodi:docname="sc_removetableof.svg"
   inkscape:version="0.92.4 (unknown)">
  <metadata
     id="metadata129">
    <rdf:RDF>
      <cc:Work
         rdf:about="">
        <dc:format>image/svg+xml</dc:format>
        <dc:type
           rdf:resource="http://purl.org/dc/dcmitype/StillImage" />
        <dc:title></dc:title>
      </cc:Work>
    </rdf:RDF>
  </metadata>
  <defs
     id="defs127">
    <radialGradient
       id="c-3"
       cx="-32"
       cy="9.6000004"
       gradientTransform="matrix(0.95361261,-0.95361261,-4.7680633,-4.7680633,85.057348,289.70046)"
       gradientUnits="userSpaceOnUse"
       r="5.5999999">
      <stop
         offset="0"
         stop-color="#a50606"
         id="stop38" />
      <stop
         offset="1"
         stop-color="#f20909"
         id="stop40" />
    </radialGradient>
  </defs>
  <sodipodi:namedview
     pagecolor="#ffffff"
     bordercolor="#666666"
     borderopacity="1"
     objecttolerance="10"
     gridtolerance="10"
     guidetolerance="10"
     inkscape:pageopacity="0"
     inkscape:pageshadow="2"
     inkscape:window-width="1366"
     inkscape:window-height="714"
     id="namedview125"
     showgrid="true"
     inkscape:zoom="10.429825"
     inkscape:cx="-3.9530362"
     inkscape:cy="-3.8807982"
     inkscape:window-x="0"
     inkscape:window-y="28"
     inkscape:window-maximized="1"
     inkscape:current-layer="g91">
    <inkscape:grid
       type="xygrid"
       id="grid952" />
  </sodipodi:namedview>
  <filter
     id="a">
    <feGaussianBlur
       stdDeviation="1.0394514"
       id="feGaussianBlur2" />
  </filter>
  <filter
     id="b">
    <feGaussianBlur
       stdDeviation=".50063244"
       id="feGaussianBlur5" />
  </filter>
  <radialGradient
     id="c"
     cx="102"
     cy="112.304695"
     gradientUnits="userSpaceOnUse"
     r="139.5585">
    <stop
       offset="0"
       stop-color="#00537d"
       id="stop8" />
    <stop
       offset=".0151"
       stop-color="#186389"
       id="stop10" />
    <stop
       offset=".0558"
       stop-color="#558ca8"
       id="stop12" />
    <stop
       offset=".0964"
       stop-color="#89afc3"
       id="stop14" />
    <stop
       offset=".1357"
       stop-color="#b3ccd8"
       id="stop16" />
    <stop
       offset=".1737"
       stop-color="#d4e2e9"
       id="stop18" />
    <stop
       offset=".2099"
       stop-color="#ecf2f5"
       id="stop20" />
    <stop
       offset=".2435"
       stop-color="#fafcfd"
       id="stop22" />
    <stop
       offset=".2722"
       stop-color="#fff"
       id="stop24" />
  </radialGradient>
  <radialGradient
     id="d"
     cx="102"
     cy="112.3047"
     gradientTransform="matrix(.9787234 0 0 .9818182 1.361705 1.163631)"
     gradientUnits="userSpaceOnUse"
     r="139.55859">
    <stop
       offset="0"
       stop-color="#535557"
       id="stop27" />
    <stop
       offset=".11366145"
       stop-color="#898a8c"
       id="stop29" />
    <stop
       offset=".20296688"
       stop-color="#ececec"
       id="stop31" />
    <stop
       offset=".2363"
       stop-color="#fafafa"
       id="stop33" />
    <stop
       offset=".2722"
       stop-color="#fff"
       id="stop35" />
    <stop
       offset=".5313"
       stop-color="#fafafa"
       id="stop37" />
    <stop
       offset=".8449"
       stop-color="#ebecec"
       id="stop39" />
    <stop
       offset="1"
       stop-color="#e1e2e3"
       id="stop41" />
  </radialGradient>
  <filter
     id="e"
     height="1.247155"
     width="1.247155"
     x="-.123577"
     y="-.123577">
    <feGaussianBlur
       stdDeviation="1.7720846"
       id="feGaussianBlur44" />
  </filter>
  <filter
     id="f">
    <feGaussianBlur
       stdDeviation=".90565481"
       id="feGaussianBlur47" />
  </filter>
  <linearGradient
     id="g"
     gradientUnits="userSpaceOnUse"
     x1="85.219681"
     x2="61.336319"
     y1="93.219681"
     y2="69.336319">
    <stop
       offset="0"
       id="stop50" />
    <stop
       offset="1"
       stop-color="#393b38"
       id="stop52" />
  </linearGradient>
  <filter
     id="h">
    <feGaussianBlur
       stdDeviation=".4901192"
       id="feGaussianBlur55" />
  </filter>
  <linearGradient
     id="i"
     gradientUnits="userSpaceOnUse"
     x1="96"
     x2="88.000198"
     y1="104"
     y2="96.000198">
    <stop
       offset="0"
       stop-color="#888a85"
       id="stop58" />
    <stop
       offset=".0072"
       stop-color="#8c8e89"
       id="stop60" />
    <stop
       offset=".0673"
       stop-color="#abaca9"
       id="stop62" />
    <stop
       offset=".1347"
       stop-color="#c5c6c4"
       id="stop64" />
    <stop
       offset=".2115"
       stop-color="#dbdbda"
       id="stop66" />
    <stop
       offset=".3012"
       stop-color="#ebebeb"
       id="stop68" />
    <stop
       offset=".4122"
       stop-color="#f7f7f6"
       id="stop70" />
    <stop
       offset=".5679"
       stop-color="#fdfdfd"
       id="stop72" />
    <stop
       offset="1"
       stop-color="#fff"
       id="stop74" />
  </linearGradient>
  <g
     transform="matrix(.125 0 0 .125 0 .00001)"
     id="g121">
    <path
       d="m23 9 .04082 112h61.13118c.53 0 1.039-.211 1.414-.586l32.828-32.828c.375-.375.586-.884.586-1.414v-77.172z"
       filter="url(#a)"
       opacity=".715069"
       transform="matrix(1.0416667 0 0 1.0357143 -9.958333 -3.321539)"
       id="path77" />
    <path
       d="m24.919999 10.931136v108.137934l58.676001-.0001c.53 0 1.039-.211 1.414-.586l31.484-31.765936c.375-.375.586-.884.586-1.414v-74.371898z"
       filter="url(#b)"
       opacity=".89589"
       transform="matrix(1.0416667 0 0 1.0357143 -9.958333 -3.321539)"
       id="path79" />
    <path
       d="m23 9.9655172.040816 111.0344828h61.131184c.53 0 1.039-.211 1.414-.586 13.296921-8.21061 24.14086-19.26784 32.828-32.828.375-.375.586-.884.586-1.414v-76.2064828z"
       filter="url(#a)"
       opacity=".835616"
       transform="matrix(1.0416667 0 0 1.0357143 -9.958333 -3.321539)"
       id="path81" />
    <path
       d="m16.000002 7.9999953v112.0000047h61.172c.53 0 1.039-.211 1.414-.586l32.827998-32.828005c.375-.375.586-.884.586-1.414v-77.1719997z"
       fill="url(#c)"
       id="path83" />
    <path
       d="m24.678725 15.999995c-.539276 0-.978723.440836-.978723.981818l.3 94.036367c0 .54197.439447.98182.978723.98182h51.913022c.257404 0 .509915-.10407.691957-.28767l26.129526-26.231135c.18303-.1836.28677-.435927.28677-.694145v-67.805237c0-.540982-.43847-.981818-.97872-.981818z"
       fill="url(#d)"
       id="path85" />
    <g
       transform="translate(0 8)"
       id="g109">
      <g
         fill="#a2a2a2"
         id="g93">
        <path
           d="m-96 80h48v8h-48z"
           transform="scale(-1 1)"
           id="path87" />
        <path
           d="m-104 16h56v8h-56z"
           transform="scale(-1 1)"
           id="path89" />
        <path
           d="m24 16h12v12h-12z"
           id="path91" />
      </g>
      <path
         d="m-104 48h56v8h-56z"
         fill="#06f"
         transform="scale(-1 1)"
         id="path95" />
      <path
         d="m24 48h12v12h-12z"
         fill="#06f"
         id="path97" />
      <path
         d="m24 80h12v12h-12z"
         fill="#a2a2a2"
         id="path99" />
      <g
         transform="scale(-1 1)"
         id="g107">
        <path
           d="m-96 32h48v8h-48z"
           fill="#a2a2a2"
           id="path101" />
        <path
           d="m-96 64h48v8h-48z"
           fill="#06f"
           id="path103" />
        <path
           d="m-88 96h40v8h-40z"
           fill="#a2a2a2"
           id="path105" />
      </g>
    </g>
    <g
       transform="translate(.000002 -.000005)"
       id="g119">
      <path
         d="m111.414 86.586c.25-.25-26.379-1.586-31.414-1.586-1.654 0-3 1.346-3 3 0 5.035 1.336 31.664 1.586 31.414z"
         filter="url(#e)"
         opacity=".906849"
         id="path111" />
      <path
         d="m111.414 86.586c.375-.375-21.97-.586-31.414-.586-1.103 0-2 .897-2 2 0 9.444.211 31.789.586 31.414z"
         filter="url(#f)"
         opacity=".2"
         id="path113" />
      <path
         d="m111.414 86.586c.239-.239-21.607.414-31.414.414-.553 0-1 .447-1 1 0 9.807-.653 31.653-.414 31.414z"
         fill="url(#g)"
         filter="url(#h)"
         opacity=".1"
         id="path115" />
      <path
         d="m78.586 119.414s11.914-9.914 17.414-15.414 15.414-17.414 15.414-17.414-21.164 1.414-31.414 1.414c0 10.25-1.414 31.414-1.414 31.414z"
         fill="url(#i)"
         id="path117" />
    </g>
  </g>
  <g
     transform="matrix(-0.47244094,0,0,-0.47244094,16.000004,140.35681)"
     style="stroke-width:0.26458299"
     id="g91">
    <path
       style="fill:#ffffff;fill-opacity:0.87132401;stroke-width:0.12499984"
       d="M 10.220703 7.6425781 A 1.3989914 1.3989914 0 0 0 9.2109375 8.0527344 L 8.0527344 9.2109375 A 1.3989914 1.3989914 0 0 0 8.0527344 11.189453 L 9.3847656 12.521484 L 8.0527344 13.851562 A 1.3989914 1.3989914 0 0 0 7.6660156 15.087891 L 14 15.087891 L 14 7.9257812 A 1.3989914 1.3989914 0 0 0 13.851562 8.0527344 L 12.521484 9.3847656 L 11.189453 8.0527344 A 1.3989914 1.3989914 0 0 0 10.220703 7.6425781 z "
       transform="matrix(-2.1166667,0,0,-2.1166667,33.866675,297.08858)"
       id="path87-6" />
    <path
       style="fill:url(#c-3)"
       inkscape:connector-curvature="0"
       d="m 12.275668,277.94999 -4.9116302,-4.91164 -4.91164,4.91164 L -2.2499999e-6,275.4976 4.9116378,270.58596 -2.2499999e-6,265.67432 2.4523978,263.22192 l 4.91164,4.91164 4.9116302,-4.91164 2.4524,2.4524 -4.9116402,4.91164 4.9116402,4.91164 z"
       id="path89-7" />
  </g>
</svg>
