<?xml version="1.0" encoding="UTF-8" standalone="no"?>
<svg
   xmlns:dc="http://purl.org/dc/elements/1.1/"
   xmlns:cc="http://creativecommons.org/ns#"
   xmlns:rdf="http://www.w3.org/1999/02/22-rdf-syntax-ns#"
   xmlns:svg="http://www.w3.org/2000/svg"
   xmlns="http://www.w3.org/2000/svg"
   xmlns:sodipodi="http://sodipodi.sourceforge.net/DTD/sodipodi-0.dtd"
   xmlns:inkscape="http://www.inkscape.org/namespaces/inkscape"
   height="16"
   width="16"
   version="1.1"
   id="svg106"
   sodipodi:docname="sc_ruler.svg"
   inkscape:version="0.92.4 (unknown)"
   inkscape:export-filename="/home/rizmut/Dokumen/Rizmut/Github/libreoffice-style-karasa-jaga/build/next/cmd/sc_ruler.png"
   inkscape:export-xdpi="96"
   inkscape:export-ydpi="96">
  <metadata
     id="metadata112">
    <rdf:RDF>
      <cc:Work
         rdf:about="">
        <dc:format>image/svg+xml</dc:format>
        <dc:type
           rdf:resource="http://purl.org/dc/dcmitype/StillImage" />
        <dc:title></dc:title>
      </cc:Work>
    </rdf:RDF>
  </metadata>
  <defs
     id="defs110" />
  <sodipodi:namedview
     pagecolor="#ffffff"
     bordercolor="#666666"
     borderopacity="1"
     objecttolerance="10"
     gridtolerance="10"
     guidetolerance="10"
     inkscape:pageopacity="0"
     inkscape:pageshadow="2"
     inkscape:window-width="1366"
     inkscape:window-height="714"
     id="namedview108"
     showgrid="true"
     inkscape:zoom="28.923828"
     inkscape:cx="9.2106412"
     inkscape:cy="14.823342"
     inkscape:window-x="0"
     inkscape:window-y="28"
     inkscape:window-maximized="1"
     inkscape:current-layer="g131">
    <inkscape:grid
       type="xygrid"
       id="grid114" />
  </sodipodi:namedview>
  <radialGradient
     id="a"
     cx="64"
     cy="44.604801"
     gradientTransform="matrix(0.9555659,0,0,0.6666666,2.843783,10.263469)"
     gradientUnits="userSpaceOnUse"
     r="60">
    <stop
       offset="0"
       stop-color="#75511a"
       id="stop2" />
    <stop
       offset="1"
       stop-color="#382509"
       id="stop4" />
  </radialGradient>
  <filter
     id="b">
    <feGaussianBlur
       stdDeviation="1.0394514"
       id="feGaussianBlur7" />
  </filter>
  <filter
     id="c">
    <feGaussianBlur
       stdDeviation=".50063244"
       id="feGaussianBlur10" />
  </filter>
  <radialGradient
     id="d"
     cx="102"
     cy="112.3047"
     gradientUnits="userSpaceOnUse"
     r="139.5585">
    <stop
       offset="0"
       stop-color="#00537d"
       id="stop13" />
    <stop
       offset=".0151"
       stop-color="#186389"
       id="stop15" />
    <stop
       offset=".0558"
       stop-color="#558ca8"
       id="stop17" />
    <stop
       offset=".0964"
       stop-color="#89afc3"
       id="stop19" />
    <stop
       offset=".1357"
       stop-color="#b3ccd8"
       id="stop21" />
    <stop
       offset=".1737"
       stop-color="#d4e2e9"
       id="stop23" />
    <stop
       offset=".2099"
       stop-color="#ecf2f5"
       id="stop25" />
    <stop
       offset=".2435"
       stop-color="#fafcfd"
       id="stop27" />
    <stop
       offset=".2722"
       stop-color="#fff"
       id="stop29" />
  </radialGradient>
  <radialGradient
     id="e"
     cx="102"
     cy="112.3047"
     gradientTransform="matrix(0.9787234,0,0,0.9818182,1.361704,1.163632)"
     gradientUnits="userSpaceOnUse"
     r="139.55859">
    <stop
       offset="0"
       stop-color="#535557"
       id="stop32" />
    <stop
       offset=".11366145"
       stop-color="#898a8c"
       id="stop34" />
    <stop
       offset=".20296688"
       stop-color="#ececec"
       id="stop36" />
    <stop
       offset=".2363"
       stop-color="#fafafa"
       id="stop38" />
    <stop
       offset=".2722"
       stop-color="#fff"
       id="stop40" />
    <stop
       offset=".5313"
       stop-color="#fafafa"
       id="stop42" />
    <stop
       offset=".8449"
       stop-color="#ebecec"
       id="stop44" />
    <stop
       offset="1"
       stop-color="#e1e2e3"
       id="stop46" />
  </radialGradient>
  <filter
     id="f"
     height="1.247155"
     width="1.247155"
     x="-0.123577"
     y="-0.123577">
    <feGaussianBlur
       stdDeviation="1.7720846"
       id="feGaussianBlur49" />
  </filter>
  <filter
     id="g">
    <feGaussianBlur
       stdDeviation=".90565481"
       id="feGaussianBlur52" />
  </filter>
  <linearGradient
     id="h"
     gradientUnits="userSpaceOnUse"
     x1="85.219681"
     x2="61.336319"
     y1="93.219681"
     y2="69.336319">
    <stop
       offset="0"
       id="stop55" />
    <stop
       offset="1"
       stop-color="#393b38"
       id="stop57" />
  </linearGradient>
  <filter
     id="i">
    <feGaussianBlur
       stdDeviation=".4901192"
       id="feGaussianBlur60" />
  </filter>
  <linearGradient
     id="j"
     gradientUnits="userSpaceOnUse"
     x1="96"
     x2="88.000198"
     y1="104"
     y2="96.000198">
    <stop
       offset="0"
       stop-color="#888a85"
       id="stop63" />
    <stop
       offset=".0072"
       stop-color="#8c8e89"
       id="stop65" />
    <stop
       offset=".0673"
       stop-color="#abaca9"
       id="stop67" />
    <stop
       offset=".1347"
       stop-color="#c5c6c4"
       id="stop69" />
    <stop
       offset=".2115"
       stop-color="#dbdbda"
       id="stop71" />
    <stop
       offset=".3012"
       stop-color="#ebebeb"
       id="stop73" />
    <stop
       offset=".4122"
       stop-color="#f7f7f6"
       id="stop75" />
    <stop
       offset=".5679"
       stop-color="#fdfdfd"
       id="stop77" />
    <stop
       offset="1"
       stop-color="#fff"
       id="stop79" />
  </linearGradient>
  <g
     id="g131"
     transform="matrix(0.125,0,0,0.125,0,1.3070166e-5)">
    <path
       id="path82"
       transform="matrix(1.0416667,0,0,1.0357143,-9.958333,-3.321539)"
       d="m 23,9 0.04082,112 H 84.172 c 0.53,0 1.039,-0.211 1.414,-0.586 L 118.414,87.586 C 118.789,87.211 119,86.702 119,86.172 V 9 Z"
       inkscape:connector-curvature="0"
       style="opacity:0.71506898;filter:url(#b)" />
    <path
       id="path84"
       transform="matrix(1.0416667,0,0,1.0357143,-9.958333,-3.321539)"
       d="M 24.919999,10.931136 V 119.06907 l 58.676001,-1e-4 c 0.53,0 1.039,-0.211 1.414,-0.586 l 31.484,-31.765936 c 0.375,-0.375 0.586,-0.884 0.586,-1.414 V 10.931136 Z"
       inkscape:connector-curvature="0"
       style="opacity:0.89589;filter:url(#c)" />
    <path
       id="path86"
       transform="matrix(1.0416667,0,0,1.0357143,-9.958333,-3.321539)"
       d="M 23,9.9655172 23.040816,121 H 84.172 c 0.53,0 1.039,-0.211 1.414,-0.586 13.296921,-8.21061 24.14086,-19.26784 32.828,-32.828 C 118.789,87.211 119,86.702 119,86.172 V 9.9655172 Z"
       inkscape:connector-curvature="0"
       style="opacity:0.83561599;filter:url(#b)" />
    <path
       id="path88"
       d="M 16.000002,7.999995 V 120 h 61.172 c 0.53,0 1.039,-0.211 1.414,-0.586 L 111.414,86.585995 c 0.375,-0.375 0.586,-0.884 0.586,-1.414 v -77.172 z"
       style="fill:url(#d)"
       inkscape:connector-curvature="0" />
    <path
       id="path90"
       d="m 24.678725,15.999995 c -0.539276,0 -0.978723,0.440836 -0.978723,0.981818 l 0.3,94.036367 c 0,0.54197 0.439447,0.98182 0.978723,0.98182 h 51.913022 c 0.257404,0 0.509915,-0.10407 0.691957,-0.28767 L 103.71323,85.481195 C 103.89626,85.297595 104,85.045268 104,84.78705 V 16.981813 c 0,-0.540982 -0.43847,-0.981818 -0.97872,-0.981818 z"
       style="fill:url(#e)"
       inkscape:connector-curvature="0" />
    <g
       id="g100"
       transform="translate(2e-6,-5e-6)">
      <path
         id="path92"
         d="M 111.414,86.586 C 111.664,86.336 85.035,85 80,85 c -1.654,0 -3,1.346 -3,3 0,5.035 1.336,31.664 1.586,31.414 z"
         inkscape:connector-curvature="0"
         style="opacity:0.90684904;filter:url(#f)" />
      <path
         id="path94"
         d="M 111.414,86.586 C 111.789,86.211 89.444,86 80,86 c -1.103,0 -2,0.897 -2,2 0,9.444 0.211,31.789 0.586,31.414 z"
         inkscape:connector-curvature="0"
         style="opacity:0.2;filter:url(#g)" />
      <path
         id="path96"
         d="M 111.414,86.586 C 111.653,86.347 89.807,87 80,87 c -0.553,0 -1,0.447 -1,1 0,9.807 -0.653,31.653 -0.414,31.414 z"
         style="opacity:0.1;fill:url(#h);filter:url(#i)"
         inkscape:connector-curvature="0" />
      <path
         id="path98"
         d="m 78.586,119.414 c 0,0 11.914,-9.914 17.414,-15.414 5.5,-5.5 15.414,-17.414 15.414,-17.414 0,0 -21.164,1.414 -31.414,1.414 0,10.25 -1.414,31.414 -1.414,31.414 z"
         style="fill:url(#j)"
         inkscape:connector-curvature="0" />
    </g>
    <rect
       id="rect102"
       y="40"
       width="128"
       rx="12"
       height="24"
       style="fill:url(#a)"
       x="0" />
    <path
       id="path104"
       d="m 8,48 h 112 v 8 H 8 Z"
       inkscape:connector-curvature="0"
       style="fill:#debc85" />
  </g>
</svg>
