<?xml version="1.0" encoding="UTF-8" standalone="no"?>
<svg
   xmlns:dc="http://purl.org/dc/elements/1.1/"
   xmlns:cc="http://creativecommons.org/ns#"
   xmlns:rdf="http://www.w3.org/1999/02/22-rdf-syntax-ns#"
   xmlns:svg="http://www.w3.org/2000/svg"
   xmlns="http://www.w3.org/2000/svg"
   xmlns:sodipodi="http://sodipodi.sourceforge.net/DTD/sodipodi-0.dtd"
   xmlns:inkscape="http://www.inkscape.org/namespaces/inkscape"
   enable-background="new 0 0 128 128"
   height="16"
   viewBox="0 0 16 16"
   width="16"
   version="1.1"
   id="svg74"
   sodipodi:docname="sc_renameslide.svg"
   inkscape:version="0.92.4 (unknown)"
   inkscape:export-filename="/home/rizmut/Dokumen/Rizmut/Github/libreoffice-style-karasa-jaga/build/next/cmd/sc_renameslide.png"
   inkscape:export-xdpi="96"
   inkscape:export-ydpi="96">
  <metadata
     id="metadata80">
    <rdf:RDF>
      <cc:Work
         rdf:about="">
        <dc:format>image/svg+xml</dc:format>
        <dc:type
           rdf:resource="http://purl.org/dc/dcmitype/StillImage" />
        <dc:title></dc:title>
      </cc:Work>
    </rdf:RDF>
  </metadata>
  <defs
     id="defs78" />
  <sodipodi:namedview
     pagecolor="#ffffff"
     bordercolor="#666666"
     borderopacity="1"
     objecttolerance="10"
     gridtolerance="10"
     guidetolerance="10"
     inkscape:pageopacity="0"
     inkscape:pageshadow="2"
     inkscape:window-width="1366"
     inkscape:window-height="706"
     id="namedview76"
     showgrid="true"
     inkscape:zoom="29.5"
     inkscape:cx="5.848069"
     inkscape:cy="9.9233558"
     inkscape:window-x="0"
     inkscape:window-y="0"
     inkscape:window-maximized="1"
     inkscape:current-layer="g70">
    <inkscape:grid
       type="xygrid"
       id="grid887" />
  </sodipodi:namedview>
  <filter
     id="a"
     height="1.294962"
     width="1.106002"
     x="-.053001"
     y="-.147481">
    <feGaussianBlur
       stdDeviation="1.4133574"
       id="feGaussianBlur2" />
  </filter>
  <filter
     id="b">
    <feGaussianBlur
       stdDeviation="1.9"
       id="feGaussianBlur5" />
  </filter>
  <filter
     id="c">
    <feGaussianBlur
       stdDeviation="1.1263538"
       id="feGaussianBlur8" />
  </filter>
  <linearGradient
     id="d"
     gradientUnits="userSpaceOnUse"
     x1="56"
     x2="56"
     y1="32"
     y2="88.117546">
    <stop
       offset="0"
       stop-color="#fff"
       id="stop11" />
    <stop
       offset="1"
       stop-color="#fff"
       stop-opacity="0"
       id="stop13" />
  </linearGradient>
  <linearGradient
     id="e"
     gradientUnits="userSpaceOnUse"
     x1="52"
     x2="52"
     y1="64"
     y2="68">
    <stop
       offset="0"
       id="stop16" />
    <stop
       offset="1"
       stop-opacity="0"
       id="stop18" />
  </linearGradient>
  <radialGradient
     id="f"
     cx="48"
     cy="112"
     gradientTransform="matrix(1 0 0 .75 0 28)"
     gradientUnits="userSpaceOnUse"
     r="32">
    <stop
       offset="0"
       stop-color="#ffea00"
       id="stop21" />
    <stop
       offset="1"
       stop-color="#ffa000"
       id="stop23" />
  </radialGradient>
  <radialGradient
     id="g"
     cx="100.88867"
     cy="155.99673"
     gradientTransform="matrix(4.3885832 0 0 3.8888885 -340.15832 -425.43169)"
     gradientUnits="userSpaceOnUse"
     r="40">
    <stop
       offset="0"
       stop-color="#fff"
       id="stop26" />
    <stop
       offset=".11366145"
       stop-color="#bdbebf"
       id="stop28" />
    <stop
       offset=".20296688"
       stop-color="#ececec"
       id="stop30" />
    <stop
       offset=".2363"
       stop-color="#fafafa"
       id="stop32" />
    <stop
       offset=".38818121"
       stop-color="#fff"
       id="stop34" />
    <stop
       offset=".5313"
       stop-color="#fafafa"
       id="stop36" />
    <stop
       offset=".8449"
       stop-color="#ebecec"
       id="stop38" />
    <stop
       offset="1"
       stop-color="#e1e2e3"
       id="stop40" />
  </radialGradient>
  <clipPath
     id="h">
    <path
       d="m16.947726 55.590428c-1.219674 0-2.1875.967827-2.1875 2.1875v17.0625c9.640301 2.396967 21.74907 4.159572 33.239774 4.159572s24.798898-1.259218 34.439199-3.656185l.06634-17.671084c0-1.219674-.967827-2.1875-2.1875-2.1875z"
       filter="url(#a)"
       id="path43" />
  </clipPath>
  <g
     transform="matrix(.1769168 0 0 .1769168 -.583293 -7.231604)"
     id="g72">
    <path
       d="m15.949362 52.867982c-3.884437 0-6.9999996 3.146813-6.9999996 7.03125l-.0000005 59.440618c0 3.88444 3.1155631 7 7.0000001 7h32.722452 32.328186c3.884437 0 7-3.11556 7-7v-59.440618c0-3.884437-3.115563-7.03125-7-7.03125h-9.474519v2.99375c0 .95614-.762611 1.71875-1.71875 1.71875h-5.841061c-.95614 0-1.71875-.762611-1.71875-1.71875v-2.99375z"
       style="fill:#020202;stroke:#000;stroke-width:2;stroke-linecap:round;stroke-linejoin:round;stroke-dashoffset:1.0878;filter:url(#b)"
       id="path46" />
    <path
       d="m15.574362 52.180482c-3.668031 0-6.6249996 2.956969-6.6249996 6.625v3.207856l-.0000005 57.014012c0 3.66803 2.9573301 6.5735 6.6250001 6.625l32.941622.009 32.859016-.009c3.668031-.001 6.624999-2.95697 6.625-6.625v-60.221868c0-3.668031-2.958371-6.523612-6.625-6.625h-10.249519v3.933624c0 .95614-.762611 1.71875-1.71875 1.71875h-3.933624-1.107437c-.95614 0-1.71875-.762611-1.71875-1.71875v-3.933624h-2.826188z"
       fill="#fff"
       id="path48" />
    <path
       d="m15.199362 53.180482c-2.903795 0-5.2499996 2.346204-5.2499996 5.25l-.0000005 60.971868c0 2.9038 2.3462041 5.25 5.2500001 5.25h66.550638c2.903795 0 5.249999-2.3462 5.25-5.25v-60.971868c0-2.903795-2.347473-5.164176-5.25-5.25h-9.624519v3.496124c0 1.195173-.961076 2.15625-2.15625 2.15625h-6.166061c-1.195176 0-2.15625-.961076-2.15625-2.15625v-3.496124z"
       fill="url(#g)"
       id="path50" />
    <rect
       fill="url(#f)"
       height="50.871372"
       rx="2.201577"
       width="67.828491"
       x="14.601737"
       y="63.485229"
       id="rect52" />
    <rect
       fill="url(#e)"
       filter="url(#c)"
       height="33.914246"
       rx="2.201577"
       width="67.828491"
       x="14.601737"
       y="63.485229"
       id="rect54" />
    <path
       clip-path="url(#h)"
       d="m16.947726 55.590428c-1.219674 0-2.1875.967827-2.1875 2.1875l-.06634 17.671084c9.640303 2.396967 21.81541 3.550988 33.306114 3.550988s24.798898-1.259218 34.439199-3.656185l.06634-17.671084c0-1.219674-.967827-2.1875-2.1875-2.1875z"
       fill="url(#d)"
       filter="url(#a)"
       transform="translate(0 8)"
       id="path56" />
    <path
       d="m14.47062 112.2601v1c0 1.21967.967828 2.18623 2.1875 2.1875l63.58461.0663c1.219669.001 2.1875-.96783 2.1875-2.1875v-1c0 1.21967-.96783 2.18877-2.1875 2.1875l-63.58461-.0663c-1.219672-.001-2.1875-.96783-2.1875-2.1875z"
       fill="#fff"
       id="path58" />
    <g
       stroke-width="2.670413"
       id="g70">
      <rect
         height="28.261835"
         ry="0.90841597"
         width="67.828499"
         x="3.296988"
         y="46.528145"
         id="rect60"
         style="fill:#747474" />
      <rect
         height="16.957121"
         ry="0.70654601"
         width="56.523743"
         x="8.9493647"
         y="52.180481"
         id="rect62"
         style="fill:#ffffff" />
      <path
         inkscape:connector-curvature="0"
         style="opacity:1;fill:#ffffff;fill-opacity:0.87058824;stroke:none;stroke-width:5.65237427;stroke-miterlimit:4;stroke-dasharray:none;stroke-opacity:1"
         d="m 31.558863,40.875734 v 11.304749 h 5.652374 l 0,16.957123 h -5.652374 l 0,16.957123 h 28.261872 l 0,-16.957123 H 54.16836 l 0,-16.957123 h 5.652375 V 40.875734 Z"
         id="rect889"
         sodipodi:nodetypes="ccccccccccccc" />
      <path
         d="m37.211234 40.875761 16.957124-.000028.000001 5.652346-16.957124.000028z"
         id="path64" />
      <path
         d="m37.211234 74.789999 16.957124-.000019v5.652365l-16.957124.000019z"
         id="path66" />
      <path
         d="m 48.515989,46.528108 v 28.26188 l -5.652377,-7e-6 V 46.528103 Z"
         id="path68"
         inkscape:connector-curvature="0"
         style="stroke-width:2.43774271" />
    </g>
  </g>
</svg>
