<svg height="16pt" viewBox="0 0 16 16" width="16pt" xmlns="http://www.w3.org/2000/svg" xmlns:xlink="http://www.w3.org/1999/xlink"><linearGradient id="a" gradientTransform="scale(.125 -.125)" gradientUnits="userSpaceOnUse" x1="65.3125" x2="64" y1="-127.8125" y2="0"><stop offset="0" stop-color="#7c9fcf"/><stop offset=".5" stop-color="#7c9ece"/><stop offset="1" stop-color="#7b9dcf"/></linearGradient><linearGradient id="b" gradientTransform="scale(.125 -.125)" gradientUnits="userSpaceOnUse" x1="64" x2="64" y1="-128" y2="0"><stop offset="0" stop-color="#fff"/><stop offset=".59375" stop-color="#fff"/><stop offset=".84375" stop-color="#f1f1f1"/><stop offset=".90625" stop-color="#eaeaea"/><stop offset="1" stop-color="#dfdfdf"/></linearGradient><path d="m7.972656 15.9375c-.367187-.011719-.699218-.21875-.867187-.542969l-1.574219-3.007812-3.507812.085937c-.371094.011719-.71875-.1875-.902344-.511718-.183594-.324219-.171875-.722657.027344-1.039063l1.820312-2.867187-1.828125-2.992188c-.195313-.316406-.199219-.71875-.011719-1.039062.191406-.320313.539063-.511719.914063-.496094l3.394531.140625 1.675781-3.078125c.179688-.328125.523438-.5312502.894531-.527344.375.0039062.714844.210938.886719.542969l1.574219 3.007812 3.507812-.085937c.371094-.011719.71875.1875.902344.511718.183594.324219.171875.722657-.027344 1.039063l-1.820312 2.867187 1.828125 2.992188c.195313.316406.199219.71875.011719 1.039062-.191406.320313-.539063.511719-.914063.496094l-3.394531-.140625-1.675781 3.078125c-.183594.335938-.535157.539063-.914063.527344zm0 0" fill="url(#a)"/><path d="m8 1.070312-1.976562 3.632813-4.023438-.167969 2.15625 3.527344-2.15625 3.402344 4.132812-.105469 1.867188 3.570313 1.976562-3.632813 4.023438.167969-2.15625-3.527344 2.15625-3.402344-4.132812.105469zm0 0" fill="url(#b)"/></svg>