<svg height="16" viewBox="0 0 16 16" width="16" xmlns="http://www.w3.org/2000/svg" xmlns:xlink="http://www.w3.org/1999/xlink"><linearGradient id="a" gradientUnits="userSpaceOnUse" x1="-.000075" x2="16.000075" y1="8.000032" y2="8.000032"><stop offset="0" stop-color="#7c9fcf"/><stop offset=".5" stop-color="#7c9ece"/><stop offset="1" stop-color="#7b9dcf"/></linearGradient><linearGradient id="b"><stop offset="0" stop-color="#fff"/><stop offset=".464286" stop-color="#fff"/><stop offset=".78125" stop-color="#f1f1f1"/><stop offset=".90625" stop-color="#eaeaea"/><stop offset="1" stop-color="#dfdfdf"/></linearGradient><linearGradient id="c" gradientTransform="matrix(.128201 -.00109792 .00109792 .128201 -.275142 -.134608)" gradientUnits="userSpaceOnUse" x1="63.423752" x2="64.522041" xlink:href="#b" y1="131.17645" y2="2.932292"/><linearGradient id="d" gradientUnits="userSpaceOnUse" x1="7.999865" x2="7.999865" xlink:href="#b" y1="18.000965" y2="-3.000695"/><path d="m8.027344 0c-.429688-.00390625-.808594.285156-.921875.699219l-.84375 3.046875-2.753907-1.574219c-.839843-.480469-1.78125.453125-1.304687 1.296875l1.558594 2.753906-3.058594.832032c-.933594.253906-.9375 1.582031-.003906 1.839843l3.046875.84375-1.574219 2.753907c-.480469.839843.453125 1.78125 1.296875 1.304687l2.753906-1.558594.832032 3.058594c.253906.933594 1.582031.9375 1.839843.003906l.84375-3.046875 2.753907 1.574219c.839843.480469 1.78125-.453125 1.304687-1.296875l-1.558594-2.753906 3.058594-.832032c.933594-.253906.9375-1.582031.003906-1.839843l-3.046875-.84375 1.574219-2.753907c.480469-.839843-.453125-1.78125-1.296875-1.304687l-2.753906 1.558594-.832032-3.058594c-.113281-.414063-.488281-.69921875-.917968-.703125zm0 0" fill="url(#a)"/><path d="m8.023438.953125-1.140626 4.121094c.347657-.132813.722657-.207031 1.117188-.207031.40625 0 .792969.078124 1.148438.21875zm-4.988282 2.046875 2.105469 3.722656c.320313-.714844.894531-1.285156 1.609375-1.59375zm9.964844.035156-3.722656 2.105469c.714844.320313 1.285156.894531 1.59375 1.609375zm-7.914062 3.816406-4.132813 1.125 4.121094 1.140626c-.132813-.347657-.207031-.722657-.207031-1.117188 0-.40625.078124-.792969.21875-1.148438zm5.839843.03125c.132813.347657.207031.722657.207031 1.117188 0 .40625-.078124.792969-.21875 1.148438l4.132813-1.125zm-5.796875 2.367188-2.128906 3.714844 3.722656-2.105469c-.714844-.320313-1.285156-.894531-1.59375-1.609375zm5.730469.027344c-.320313.714844-.894531 1.285156-1.609375 1.59375l3.714844 2.128906zm-4.007813 1.636718 1.125 4.132813 1.140626-4.121094c-.347657.132813-.722657.207031-1.117188.207031-.40625 0-.792969-.078124-1.148438-.21875zm0 0" fill="url(#c)"/><path d="m8 6c-1.105469 0-2 .894531-2 2s.894531 2 2 2 2-.894531 2-2-.894531-2-2-2zm0 0" fill="url(#d)"/></svg>