<?xml version="1.0" encoding="UTF-8" standalone="no"?>
<svg
   xmlns:dc="http://purl.org/dc/elements/1.1/"
   xmlns:cc="http://creativecommons.org/ns#"
   xmlns:rdf="http://www.w3.org/1999/02/22-rdf-syntax-ns#"
   xmlns:svg="http://www.w3.org/2000/svg"
   xmlns="http://www.w3.org/2000/svg"
   xmlns:xlink="http://www.w3.org/1999/xlink"
   xmlns:sodipodi="http://sodipodi.sourceforge.net/DTD/sodipodi-0.dtd"
   xmlns:inkscape="http://www.inkscape.org/namespaces/inkscape"
   enable-background="new 0 0 128 128"
   height="16"
   viewBox="0 0 16 16"
   width="16"
   version="1.1"
   id="svg2921"
   sodipodi:docname="sc_stylenewbyexample.svg"
   inkscape:version="0.92.4 (unknown)"
   inkscape:export-filename="/home/rizmut/Dokumen/Rizmut/Github/libreoffice-style-karasa-jaga/build/next/cmd/sc_stylenewbyexample.png"
   inkscape:export-xdpi="96"
   inkscape:export-ydpi="96">
  <metadata
     id="metadata2927">
    <rdf:RDF>
      <cc:Work
         rdf:about="">
        <dc:format>image/svg+xml</dc:format>
        <dc:type
           rdf:resource="http://purl.org/dc/dcmitype/StillImage" />
        <dc:title></dc:title>
      </cc:Work>
    </rdf:RDF>
  </metadata>
  <defs
     id="defs2925">
    <linearGradient
       inkscape:collect="always"
       xlink:href="#linearGradient3895"
       id="linearGradient15810"
       x1="64.150391"
       y1="94.980461"
       x2="93.701241"
       y2="74.480461"
       gradientUnits="userSpaceOnUse"
       gradientTransform="translate(1.767767,-2.4748738)" />
    <linearGradient
       id="linearGradient3895">
      <stop
         style="stop-color:#382a23;stop-opacity:1;"
         offset="0"
         id="stop3897" />
      <stop
         style="stop-color:#753919;stop-opacity:0;"
         offset="1"
         id="stop3899" />
    </linearGradient>
    <filter
       inkscape:collect="always"
       style="color-interpolation-filters:sRGB"
       id="filter15844"
       x="-0.059486199"
       width="1.1189724"
       y="-0.058129448"
       height="1.1162589">
      <feGaussianBlur
         inkscape:collect="always"
         stdDeviation="2.3063507"
         id="feGaussianBlur15846" />
    </filter>
    <radialGradient
       inkscape:collect="always"
       xlink:href="#XMLID_4_"
       id="radialGradient15800"
       gradientUnits="userSpaceOnUse"
       gradientTransform="matrix(0.97177617,0,0,0.99360916,2.8083912,-1.052321)"
       cx="30.826572"
       cy="86.85881"
       fx="30.826572"
       fy="86.85881"
       r="48.221165" />
    <radialGradient
       id="XMLID_4_"
       cx="48"
       cy="-0.2148"
       r="55.147999"
       gradientTransform="matrix(0.9792,0,0,0.9725,133.0002,20.8762)"
       gradientUnits="userSpaceOnUse">
      <stop
         offset="0"
         style="stop-color:#fff718;stop-opacity:1;"
         id="stop3082" />
      <stop
         offset="1"
         style="stop-color:#e77100;stop-opacity:1;"
         id="stop3090" />
    </radialGradient>
    <linearGradient
       inkscape:collect="always"
       xlink:href="#linearGradient3875"
       id="linearGradient15772"
       x1="-10.045347"
       y1="102.48047"
       x2="65.89698"
       y2="78.980469"
       gradientUnits="userSpaceOnUse"
       gradientTransform="matrix(0.97177617,0,0,0.97177617,2.8083912,0.71572843)" />
    <linearGradient
       id="linearGradient3875"
       inkscape:collect="always">
      <stop
         id="stop3877"
         offset="0"
         style="stop-color:#753919;stop-opacity:1;" />
      <stop
         id="stop3879"
         offset="1"
         style="stop-color:#753919;stop-opacity:0;" />
    </linearGradient>
    <radialGradient
       inkscape:collect="always"
       xlink:href="#linearGradient4056"
       id="radialGradient15804"
       gradientUnits="userSpaceOnUse"
       gradientTransform="matrix(0.97177617,0,0,0.99360916,2.8083912,-1.052321)"
       cx="45.885448"
       cy="75.050514"
       fx="45.885448"
       fy="75.050514"
       r="48.221165" />
    <linearGradient
       id="linearGradient4056"
       inkscape:collect="always">
      <stop
         id="stop4058"
         offset="0"
         style="stop-color:#31170a;stop-opacity:1" />
      <stop
         id="stop4060"
         offset="1"
         style="stop-color:#542912;stop-opacity:0;" />
    </linearGradient>
    <radialGradient
       inkscape:collect="always"
       xlink:href="#linearGradient4056"
       id="radialGradient15766"
       cx="-3.1145523"
       cy="128.35297"
       fx="-3.1145523"
       fy="128.35297"
       r="48.221165"
       gradientTransform="matrix(0.97177617,0,0,0.99360916,2.8083912,-1.052321)"
       gradientUnits="userSpaceOnUse" />
    <linearGradient
       inkscape:collect="always"
       xlink:href="#XMLID_2_"
       id="linearGradient15677"
       x1="9"
       y1="105.48047"
       x2="71.97496"
       y2="80.464272"
       gradientUnits="userSpaceOnUse"
       gradientTransform="matrix(0.97177617,0,0,0.97177617,2.8083912,0.71572843)" />
    <linearGradient
       y2="0"
       x2="28"
       y1="57.5"
       x1="28"
       gradientUnits="userSpaceOnUse"
       id="XMLID_2_">
      <stop
         id="stop12"
         style="stop-color:#FFEA00"
         offset="0" />
      <stop
         id="stop14"
         style="stop-color:#FFCC00"
         offset="1" />
    </linearGradient>
    <linearGradient
       inkscape:collect="always"
       xlink:href="#linearGradient3919"
       id="linearGradient15706"
       x1="1.5"
       y1="117.66109"
       x2="88.905159"
       y2="117.66109"
       gradientUnits="userSpaceOnUse"
       gradientTransform="matrix(0.97177617,0,0,0.97177617,2.8083912,0.71572843)" />
    <linearGradient
       id="linearGradient3919"
       gradientUnits="userSpaceOnUse"
       x1="28"
       y1="57.5"
       x2="28"
       y2="0">
      <stop
         offset="0"
         style="stop-color:#FFEA00"
         id="stop3921" />
      <stop
         offset="1"
         style="stop-color:#dea200;stop-opacity:1"
         id="stop3923" />
    </linearGradient>
    <linearGradient
       inkscape:collect="always"
       xlink:href="#linearGradient3903"
       id="linearGradient15716"
       x1="2.8142135"
       y1="124.73762"
       x2="68.147888"
       y2="62.865772"
       gradientUnits="userSpaceOnUse" />
    <linearGradient
       id="linearGradient3903"
       inkscape:collect="always">
      <stop
         id="stop3905"
         offset="0"
         style="stop-color:#ffeb4a;stop-opacity:1;" />
      <stop
         id="stop3907"
         offset="1"
         style="stop-color:#ffeb4a;stop-opacity:0;" />
    </linearGradient>
    <filter
       inkscape:collect="always"
       style="color-interpolation-filters:sRGB"
       id="filter15718"
       x="-0.018223774"
       width="1.0364475"
       y="-0.017781656"
       height="1.0355633">
      <feGaussianBlur
         inkscape:collect="always"
         stdDeviation="0.66328126"
         id="feGaussianBlur15720" />
    </filter>
    <linearGradient
       inkscape:collect="always"
       xlink:href="#XMLID_2_"
       id="linearGradient15733"
       x1="7"
       y1="59.750954"
       x2="-0.60275453"
       y2="108.25095"
       gradientUnits="userSpaceOnUse"
       gradientTransform="matrix(0.97177617,0,0,0.97177617,2.8083912,0.71572843)" />
    <linearGradient
       inkscape:collect="always"
       xlink:href="#linearGradient3711"
       id="linearGradient15746"
       x1="-1"
       y1="44.09668"
       x2="31.501953"
       y2="83.59668"
       gradientUnits="userSpaceOnUse"
       gradientTransform="matrix(0.94961145,0,0,0.94961145,2.8527206,2.7764844)" />
    <linearGradient
       id="linearGradient3711"
       gradientUnits="userSpaceOnUse"
       x1="-84.002403"
       y1="-383.9971"
       x2="-23.516129"
       y2="-383.9975"
       gradientTransform="rotate(90,-90.0007,50.0022)">
      <stop
         offset="0"
         style="stop-color:white;stop-opacity:1;"
         id="stop3713" />
      <stop
         offset="1"
         style="stop-color:white;stop-opacity:0"
         id="stop3715" />
    </linearGradient>
    <filter
       id="q"
       height="1.072142"
       width="1.071866"
       x="-0.035932999"
       y="-0.036070999"
       style="color-interpolation-filters:sRGB">
      <feGaussianBlur
         stdDeviation=".66434216"
         id="feGaussianBlur90" />
    </filter>
    <radialGradient
       id="r"
       cx="-55.685837"
       cy="-347.11612"
       gradientTransform="matrix(-0.91762954,-0.24587809,0.26650439,-0.99460792,-14.509941,-705.18366)"
       gradientUnits="userSpaceOnUse"
       r="22.14249">
      <stop
         offset="0"
         stop-color="#82c133"
         id="stop93" />
      <stop
         offset="1"
         stop-color="#72b028"
         id="stop95" />
    </radialGradient>
    <linearGradient
       id="s"
       gradientUnits="userSpaceOnUse"
       x1="328.12448"
       x2="336.98077"
       y1="120.81158"
       y2="87.759453">
      <stop
         offset="0"
         stop-color="#96ff00"
         id="stop98" />
      <stop
         offset="1"
         stop-color="#609800"
         id="stop100" />
    </linearGradient>
    <clipPath
       id="t">
      <circle
         cx="343.91208"
         cy="92.325096"
         r="36"
         transform="matrix(0.86602539,0.50000002,0.49999965,-0.86602561,0,0)"
         id="circle103" />
    </clipPath>
    <filter
       id="u">
      <feGaussianBlur
         stdDeviation="2.8805897"
         id="feGaussianBlur106" />
    </filter>
    <radialGradient
       id="v"
       cx="343.99899"
       cy="92"
       gradientTransform="matrix(0.46130197,0,0,0.46130166,-219.03541,-372.17548)"
       gradientUnits="userSpaceOnUse"
       r="36">
      <stop
         offset="0"
         stop-color="#e5ff00"
         id="stop109" />
      <stop
         offset="1"
         stop-color="#bff500"
         stop-opacity="0"
         id="stop111" />
    </radialGradient>
    <linearGradient
       id="w"
       gradientTransform="matrix(0,0.51133072,-0.51133109,0,76.138665,324.51289)"
       gradientUnits="userSpaceOnUse"
       x1="-80.00296"
       x2="-45.096584"
       y1="-131.93112"
       y2="-131.93112">
      <stop
         offset="0"
         stop-color="#fff"
         id="stop114" />
      <stop
         offset="1"
         stop-color="#fff"
         stop-opacity="0"
         id="stop116" />
    </linearGradient>
    <linearGradient
       id="x"
       gradientUnits="userSpaceOnUse"
       x1="122.00004"
       x2="122.00004"
       y1="61.999996"
       y2="9.9328432">
      <stop
         offset="0"
         stop-color="#314d00"
         stop-opacity="0"
         id="stop119" />
      <stop
         offset=".5"
         stop-color="#194d00"
         id="stop121" />
      <stop
         offset="1"
         stop-color="#2d4d00"
         stop-opacity="0"
         id="stop123" />
    </linearGradient>
    <filter
       id="y">
      <feGaussianBlur
         stdDeviation="1.04"
         id="feGaussianBlur126" />
    </filter>
  </defs>
  <sodipodi:namedview
     pagecolor="#ffffff"
     bordercolor="#666666"
     borderopacity="1"
     objecttolerance="10"
     gridtolerance="10"
     guidetolerance="10"
     inkscape:pageopacity="0"
     inkscape:pageshadow="2"
     inkscape:window-width="1366"
     inkscape:window-height="706"
     id="namedview2923"
     showgrid="true"
     inkscape:zoom="14.75"
     inkscape:cx="-7.0480877"
     inkscape:cy="10.883354"
     inkscape:window-x="0"
     inkscape:window-y="0"
     inkscape:window-maximized="1"
     inkscape:current-layer="g4873">
    <inkscape:grid
       type="xygrid"
       id="grid2744"
       spacingx="0.5"
       spacingy="0.5"
       empspacing="2" />
  </sodipodi:namedview>
  <linearGradient
     id="a"
     gradientUnits="userSpaceOnUse"
     x1="85.219681"
     x2="61.336319"
     y1="93.219681"
     y2="69.336319">
    <stop
       offset="0"
       id="stop2826" />
    <stop
       offset="1"
       stop-color="#393b38"
       id="stop2828" />
  </linearGradient>
  <linearGradient
     id="b"
     gradientUnits="userSpaceOnUse"
     x1="96"
     x2="88.000198"
     y1="104"
     y2="96.000198">
    <stop
       offset="0"
       stop-color="#888a85"
       id="stop2831" />
    <stop
       offset=".0072"
       stop-color="#8c8e89"
       id="stop2833" />
    <stop
       offset=".0673"
       stop-color="#abaca9"
       id="stop2835" />
    <stop
       offset=".1347"
       stop-color="#c5c6c4"
       id="stop2837" />
    <stop
       offset=".2115"
       stop-color="#dbdbda"
       id="stop2839" />
    <stop
       offset=".3012"
       stop-color="#ebebeb"
       id="stop2841" />
    <stop
       offset=".4122"
       stop-color="#f7f7f6"
       id="stop2843" />
    <stop
       offset=".5679"
       stop-color="#fdfdfd"
       id="stop2845" />
    <stop
       offset="1"
       stop-color="#fff"
       id="stop2847" />
  </linearGradient>
  <radialGradient
     id="c"
     cx="102"
     cy="112.3047"
     gradientTransform="matrix(0.9787234,0,0,0.9818182,1.361705,1.163636)"
     gradientUnits="userSpaceOnUse"
     r="139.55859">
    <stop
       offset="0"
       stop-color="#535557"
       id="stop2850" />
    <stop
       offset=".11366145"
       stop-color="#898a8c"
       id="stop2852" />
    <stop
       offset=".20296688"
       stop-color="#ececec"
       id="stop2854" />
    <stop
       offset=".2363"
       stop-color="#fafafa"
       id="stop2856" />
    <stop
       offset=".2722"
       stop-color="#fff"
       id="stop2858" />
    <stop
       offset=".5313"
       stop-color="#fafafa"
       id="stop2860" />
    <stop
       offset=".8449"
       stop-color="#ebecec"
       id="stop2862" />
    <stop
       offset="1"
       stop-color="#e1e2e3"
       id="stop2864" />
  </radialGradient>
  <radialGradient
     id="d"
     cx="102"
     cy="112.3047"
     gradientUnits="userSpaceOnUse"
     r="139.5585">
    <stop
       offset="0"
       stop-color="#00537d"
       id="stop2867" />
    <stop
       offset=".0151"
       stop-color="#186389"
       id="stop2869" />
    <stop
       offset=".0558"
       stop-color="#558ca8"
       id="stop2871" />
    <stop
       offset=".0964"
       stop-color="#89afc3"
       id="stop2873" />
    <stop
       offset=".1357"
       stop-color="#b3ccd8"
       id="stop2875" />
    <stop
       offset=".1737"
       stop-color="#d4e2e9"
       id="stop2877" />
    <stop
       offset=".2099"
       stop-color="#ecf2f5"
       id="stop2879" />
    <stop
       offset=".2435"
       stop-color="#fafcfd"
       id="stop2881" />
    <stop
       offset=".2722"
       stop-color="#fff"
       id="stop2883" />
  </radialGradient>
  <filter
     id="e">
    <feGaussianBlur
       stdDeviation="1.0394514"
       id="feGaussianBlur2886" />
  </filter>
  <filter
     id="f">
    <feGaussianBlur
       stdDeviation=".50063244"
       id="feGaussianBlur2889" />
  </filter>
  <filter
     id="g">
    <feGaussianBlur
       stdDeviation=".4901192"
       id="feGaussianBlur2892" />
  </filter>
  <filter
     id="h">
    <feGaussianBlur
       stdDeviation=".90565481"
       id="feGaussianBlur2895" />
  </filter>
  <filter
     id="i"
     height="1.247155"
     width="1.247155"
     x="-0.123577"
     y="-0.123577">
    <feGaussianBlur
       stdDeviation="1.7720846"
       id="feGaussianBlur2898" />
  </filter>
  <g
     id="g4873"
     transform="scale(0.125)">
    <g
       transform="translate(11.999996,4.0000001)"
       id="g3482">
      <path
         sodipodi:nodetypes="ccsssscc"
         style="opacity:0.71506898;filter:url(#e)"
         inkscape:connector-curvature="0"
         d="M 3.8000066,5.137931 3.8408228,109.41379 H 84.172 c 0.53,0 1.062846,-0.18833 1.414,-0.586 l 28.988,-32.827997 c 0.35116,-0.397671 0.586,-0.884 0.586,-1.414 V 5.137931 Z"
         transform="matrix(1.0416667,0,0,1.0357143,-9.958333,-3.321534)"
         id="path2901" />
      <path
         sodipodi:nodetypes="cccccscc"
         style="opacity:0.89589;filter:url(#f)"
         inkscape:connector-curvature="0"
         d="m 5.7200056,7.0690671 -3.8e-6,100.4137929 77.8759982,-1e-4 c 0.53,0 1.039,-0.211 1.414,-0.586 l 27.644,-31.765933 c 0.375,-0.375 0.58766,-0.884003 0.586,-1.414 V 7.0690671 Z"
         transform="matrix(1.0416667,0,0,1.0357143,-9.958333,-3.321534)"
         id="path2903" />
      <path
         sodipodi:nodetypes="ccsccscc"
         style="opacity:0.83561599;filter:url(#e)"
         inkscape:connector-curvature="0"
         d="M 3.8000066,6.1034482 3.8408188,109.41379 H 84.172 c 0.53,0 1.039,-0.211 1.414,-0.586 13.296921,-8.21061 20.30086,-19.267837 28.988,-32.827997 0.375,-0.375 0.586,-0.884 0.586,-1.414 V 6.1034482 Z"
         transform="matrix(1.0416667,0,0,1.0357143,-9.958333,-3.321534)"
         id="path2905" />
      <path
         sodipodi:nodetypes="ccsssscc"
         inkscape:connector-curvature="0"
         style="fill:url(#d)"
         d="M -3.9999918,3.9999999 -3.9999958,108 H 77.172002 c 0.53,0 1.064065,-0.18751 1.414,-0.586 L 107.414,74.586 C 107.76394,74.187507 108,73.702 108,73.172 V 3.9999999 Z"
         id="path2907" />
      <path
         sodipodi:nodetypes="sccssccssss"
         inkscape:connector-curvature="0"
         style="fill:url(#c)"
         d="m 4.6787312,12 c -0.539276,0 -0.978723,0.440836 -0.978723,0.981818 l 0.299996,86.036362 c 0,0.54197 0.439447,0.98182 0.978723,0.98182 H 76.891747 c 0.257404,0 0.509915,-0.10407 0.691957,-0.28767 L 99.713234,85.4812 C 99.896264,85.2976 100,85.045273 100,84.787055 V 12.981818 C 100,12.440836 99.561538,12 99.021288,12 Z"
         id="path2909" />
      <g
         transform="translate(-3.999998,-12)"
         id="g2919">
        <path
           style="opacity:0.90684904;filter:url(#i)"
           inkscape:connector-curvature="0"
           d="M 111.414,86.586 C 111.664,86.336 85.035,85 80,85 c -1.654,0 -3,1.346 -3,3 0,5.035 1.336,31.664 1.586,31.414 z"
           id="path2911" />
        <path
           style="opacity:0.2;filter:url(#h)"
           inkscape:connector-curvature="0"
           d="M 111.414,86.586 C 111.789,86.211 89.444,86 80,86 c -1.103,0 -2,0.897 -2,2 0,9.444 0.211,31.789 0.586,31.414 z"
           id="path2913" />
        <path
           inkscape:connector-curvature="0"
           style="opacity:0.1;fill:url(#a);filter:url(#g)"
           d="M 111.414,86.586 C 111.653,86.347 89.807,87 80,87 c -0.553,0 -1,0.447 -1,1 0,9.807 -0.653,31.653 -0.414,31.414 z"
           id="path2915" />
        <path
           inkscape:connector-curvature="0"
           style="fill:url(#b)"
           d="m 78.586,119.414 c 0,0 11.914,-9.914 17.414,-15.414 5.5,-5.5 15.414,-17.414 15.414,-17.414 0,0 -21.164,1.414 -31.414,1.414 0,10.25 -1.414,31.414 -1.414,31.414 z"
           id="path2917" />
      </g>
      <g
         id="g23586"
         transform="translate(-8.7519389,-2.9089904)">
        <path
           id="path15798"
           d="m 4.7443515,33.143064 c -1.5261642,0.0048 -3.99181946,1.243011 -3.99240826,2.769183 v 86.996743 c 5.934e-4,1.52913 2.47086736,3.9994 3.99999996,4 H 89.63811 c 2.450068,-8.9e-4 3.692983,-4.17902 1.983411,-5.93407 L 6.7353538,33.978185 C 6.2119395,33.442004 5.4936493,33.140719 4.7443515,33.143064 Z m 12.0075915,37.765926 38.753574,36 H 16.751943 Z"
           style="fill:url(#radialGradient15800);fill-opacity:1;stroke:none;stroke-width:1.20000005;stroke-miterlimit:4;stroke-dasharray:none;stroke-opacity:1"
           inkscape:connector-curvature="0"
           sodipodi:nodetypes="sccccccscccc" />
        <path
           id="path15768"
           d="m 4.7443515,33.143064 c -1.5261642,0.0048 -3.99181946,0.239754 -3.99240826,1.765926 v 86.99674 c 5.934e-4,1.52913 2.47086736,5.00266 3.99999996,5.00326 H 89.63811 c 2.450068,-8.9e-4 3.692983,-4.17902 1.983411,-5.93407 L 6.7353538,33.978185 C 6.2119395,33.442004 5.4936493,33.140719 4.7443515,33.143064 Z m 12.0075915,37.765926 38.753574,36 H 16.751943 Z"
           style="fill:url(#linearGradient15772);fill-opacity:1;stroke:none;stroke-width:1.20000005;stroke-miterlimit:4;stroke-dasharray:none;stroke-opacity:1"
           inkscape:connector-curvature="0"
           sodipodi:nodetypes="sccccccscccc" />
        <path
           id="path15802"
           d="m 4.7443515,33.143064 c -1.5261642,0.0048 -3.99181946,1.378604 -3.99240826,2.904776 v 86.99674 c 5.934e-4,1.52913 2.47086736,3.86381 3.99999996,3.86441 H 89.63811 c 2.450068,-8.9e-4 3.692983,-4.17902 1.983411,-5.93407 L 6.7353538,33.978185 C 6.2119395,33.442004 5.4936493,33.140719 4.7443515,33.143064 Z m 12.0075915,37.765926 38.753574,36 -38.897392,0.38467 z"
           style="fill:url(#radialGradient15804);fill-opacity:1;stroke:none;stroke-width:1.20000005;stroke-miterlimit:4;stroke-dasharray:none;stroke-opacity:1"
           inkscape:connector-curvature="0"
           sodipodi:nodetypes="sccccccscccc" />
        <path
           id="path15806"
           d="m 3.7599545,30.894267 c -1.5704891,0.0049 -2.8411906,1.279112 -2.84179695,2.849609 v 89.523444 c 6.1456e-4,1.57354 1.27606815,2.849 2.84960945,2.84961 h 87.351562 c 2.521216,-9.2e-4 3.800225,-3.03383 2.041016,-4.83985 L 5.8087826,31.753642 C 5.2701664,31.201889 4.5310145,30.891853 3.7599545,30.894267 Z m 11.3722945,39.373888 40.378015,36.386465 -40.874838,0.148 z"
           style="fill:url(#linearGradient15810);fill-opacity:1;stroke:none;stroke-width:1.20000005;stroke-miterlimit:4;stroke-dasharray:none;stroke-opacity:1;filter:url(#filter15844)"
           inkscape:connector-curvature="0"
           transform="matrix(0.97177617,0,0,0.97177617,2.8083912,0.71572843)"
           sodipodi:nodetypes="sccccccscccc" />
        <path
           style="fill:url(#radialGradient15766);fill-opacity:1;stroke:none;stroke-width:1.20000005;stroke-miterlimit:4;stroke-dasharray:none;stroke-opacity:1"
           d="m 4.7443515,33.143064 c -1.5261642,0.0048 -3.99181946,1.243011 -3.99240826,2.769183 v 86.996743 c 5.934e-4,1.52913 2.47086736,3.9994 3.99999996,4 H 89.63811 c 2.450068,-8.9e-4 3.692983,-4.17902 1.983411,-5.93407 L 6.7353538,33.978185 C 6.2119395,33.442004 5.4936493,33.140719 4.7443515,33.143064 Z m 6.7123425,33.381251 49.012318,45.471675 -49.108197,0.14382 z"
           id="path15755"
           inkscape:connector-curvature="0"
           sodipodi:nodetypes="sccccccscccc" />
        <path
           style="fill:url(#linearGradient15733);fill-opacity:1;fill-rule:evenodd;stroke:none;stroke-width:1px;stroke-linecap:butt;stroke-linejoin:miter;stroke-opacity:1"
           d="m 4.7519435,36.608813 v 86.300177 h 0.6624021 l 7.4487014,-16 h -0.271414 l 0.09588,-33.010595 C 9.7257457,68.476832 8.8027983,47.3926 4.7519435,36.608813 Z"
           id="path15722"
           inkscape:connector-curvature="0"
           sodipodi:nodetypes="ccccccc" />
        <path
           id="path15708"
           d="m 2,36.21875 v 89.52344 h 87.351562 z m 8.232348,27.780825 50.988826,49.394095 -51.153792,-1e-5 z"
           style="fill:none;fill-opacity:1;stroke:url(#linearGradient15716);stroke-width:2.05808711;stroke-miterlimit:4;stroke-dasharray:none;stroke-opacity:1;filter:url(#filter15718)"
           inkscape:connector-curvature="0"
           transform="matrix(0.97177617,0,0,0.97177617,2.8083912,0.71572843)"
           sodipodi:nodetypes="cccccccc" />
        <path
           style="fill:#ffffff;fill-opacity:1;stroke:none;stroke-width:1.20000005;stroke-miterlimit:4;stroke-dasharray:none;stroke-opacity:1"
           d="M 4.7519435,35.912247 V 122.90899 H 6.972301 l 0.3301734,-84 z m 7.9999995,23.751767 v 3.244976 l 49.549726,48 H 12.751943 v 2.59523 l 56,-0.007 z"
           id="path15748"
           inkscape:connector-curvature="0"
           sodipodi:nodetypes="cccccccccccc" />
        <path
           style="fill:url(#linearGradient15677);fill-opacity:1;stroke:none;stroke-width:1.20000005;stroke-miterlimit:4;stroke-dasharray:none;stroke-opacity:1"
           d="M 4.7519435,35.912247 V 122.90899 H 89.63811 Z m 7.9999995,26.996743 49.549726,48 H 12.591633 Z"
           id="rect15640"
           inkscape:connector-curvature="0"
           sodipodi:nodetypes="cccccccc" />
        <path
           style="fill:url(#linearGradient15746);fill-opacity:1;fill-rule:evenodd;stroke:none;stroke-width:1px;stroke-linecap:butt;stroke-linejoin:miter;stroke-opacity:1"
           d="M 4.7519435,35.912247 V 91.066238 L 12.751943,84.97295 V 62.90899 l 16,13.939383 5.53569,-9.939383 z"
           id="path15735"
           inkscape:connector-curvature="0"
           sodipodi:nodetypes="ccccccc" />
        <path
           style="fill:url(#linearGradient15706);fill-opacity:1;fill-rule:evenodd;stroke:none;stroke-width:1px;stroke-linecap:butt;stroke-linejoin:miter;stroke-opacity:1"
           d="M 62.301669,110.90899 H 60.751943 17.039562 L 4.7519435,122.55217 v 0.35682 H 89.01177 Z"
           id="path15695"
           inkscape:connector-curvature="0"
           sodipodi:nodetypes="ccccccc" />
      </g>
      <g
         id="g205"
         transform="matrix(1.6750985,0,0,1.6750985,-162.15016,-473.91239)">
        <ellipse
           id="ellipse189"
           transform="matrix(-0.96592586,-0.2588189,-0.25881915,0.9659258,0,0)"
           ry="22.142477"
           rx="22.14249"
           cy="255.38551"
           cx="-217.13077"
           style="fill:none;stroke-width:0.61506897" />
        <ellipse
           id="ellipse191"
           transform="matrix(-0.93421983,0.2432797,-0.25032328,-0.9079328,4.714699,17.679705)"
           ry="22.142477"
           rx="22.14249"
           cy="-331.66757"
           cx="-59.830322"
           style="fill:#292929;filter:url(#q)" />
        <ellipse
           id="ellipse193"
           transform="rotate(165.00001)"
           ry="21.035353"
           rx="21.035366"
           cy="-329.73572"
           cx="-60.347961"
           style="fill:url(#r)" />
        <circle
           id="circle195"
           clip-path="url(#t)"
           transform="matrix(-0.56440567,-0.15123195,-0.151232,0.56440527,351.70189,302.97936)"
           style="opacity:0.8;fill:none;stroke:url(#s);stroke-width:6.75138187;filter:url(#u)"
           r="36"
           cy="92"
           cx="343.99899" />
        <ellipse
           id="ellipse197"
           transform="rotate(165)"
           ry="16.606859"
           rx="16.606871"
           cy="-329.73572"
           cx="-60.347996"
           style="fill:url(#v);stroke-width:0.46130201" />
        <path
           id="path199"
           d="m 143.63359,283.60495 c -7.85231,0 -14.41363,5.54478 -15.99508,12.92708 3.15226,2.93856 9.13349,4.92155 15.99508,4.92155 6.86158,0 12.8428,-1.98299 15.99506,-4.92155 -1.58145,-7.3823 -8.14276,-12.92708 -15.99506,-12.92708 z"
           style="opacity:0.8;fill:url(#w);stroke-width:0.85210401"
           inkscape:connector-curvature="0" />
        <path
           id="path201"
           transform="matrix(1.2316998,0,0,1.2316998,-6.63385,260.53982)"
           style="fill:none;stroke:url(#x);stroke-width:4;stroke-linecap:round;stroke-linejoin:round;filter:url(#y)"
           d="m 120.01465,21.014613 v 13 H 108.8884 v 3.970777 h 11.12625 v 11.061281 h 3.97076 V 37.98539 h 11.12626 v -3.970777 h -11.12626 v -13 z"
           inkscape:connector-curvature="0" />
        <path
           id="path203"
           d="m 140.03421,285.26955 v 13.70421 h -13.7042 v 7.1987 h 13.7042 v 13.7042 h 7.1987 v -13.7042 h 13.70421 v -7.1987 h -13.70421 v -13.70421 z"
           inkscape:connector-curvature="0"
           style="fill:#ffffff;fill-rule:evenodd" />
      </g>
    </g>
  </g>
</svg>
