<svg height="16pt" viewBox="0 0 16 16" width="16pt" xmlns="http://www.w3.org/2000/svg" xmlns:xlink="http://www.w3.org/1999/xlink"><linearGradient id="a" gradientUnits="userSpaceOnUse" x1="3" x2="13" y1="8" y2="8"><stop offset="0" stop-color="#7c9fcf"/><stop offset=".5" stop-color="#7c9ece"/><stop offset="1" stop-color="#7b9dcf"/></linearGradient><linearGradient id="b" gradientUnits="userSpaceOnUse" x1="8" x2="8" y1="16" y2="0"><stop offset="0" stop-color="#fff"/><stop offset=".59375" stop-color="#fff"/><stop offset=".84375" stop-color="#f1f1f1"/><stop offset=".90625" stop-color="#eaeaea"/><stop offset="1" stop-color="#dfdfdf"/></linearGradient><g fill-rule="evenodd"><path d="m7.5-.0234375c-.386719 0-.742188.2187495-.914062.5664065l-.484376.964843-2.980468 4.964844c-.1875.316406-.195313.710938-.011719 1.03125.179687.320313.523437.519532.890625.519532h2.867188l-1.792969 2.242187-1.222657-1.832031c-.25-.378906-.714843-.542969-1.148437-.414063-.433594.132813-.726563.527344-.726563.980469v6c0 .566406.457032 1.023438 1.023438 1.023438h6c.453125 0 .847656-.292969.980469-.726563.128906-.433594-.035157-.898437-.414063-1.148437l-2.027344-1.351563 6.230469-7.121094c.277344-.316406.332031-.769531.140625-1.140625-.1875-.375-.585937-.59375-1.003906-.554687l-3.441406.320312 2.304687-2.625c.265625-.300781.328125-.730469.164063-1.097656-.167969-.367187-.53125-.6015625-.933594-.6015625zm0 0" fill="url(#a)"/><path d="m7 2-3 5h5l-4 5-2-3v6h6l-3-2 7-8-6 .558594 4-4.558594h-3.5zm0 0" fill="url(#b)"/></g></svg>