<svg height="16pt" viewBox="0 0 16 16" width="16pt" xmlns="http://www.w3.org/2000/svg" xmlns:xlink="http://www.w3.org/1999/xlink"><linearGradient id="a" gradientTransform="matrix(.126322 -.0345767 -.0345767 -.126322 -1.514053 2.366842)" gradientUnits="userSpaceOnUse" x1="7.565487" x2="114.81899" y1="-61.194038" y2="-61.194038"><stop offset="0" stop-color="#7c9fcf"/><stop offset=".5" stop-color="#7c9ece"/><stop offset="1" stop-color="#7b9dcf"/></linearGradient><linearGradient id="b" gradientTransform="matrix(.126322 -.0345767 -.0345767 -.126322 -1.514053 2.366842)" gradientUnits="userSpaceOnUse" x1="42.584549" x2="75.127121" y1="-119.57999" y2="-1.700043"><stop offset="0" stop-color="#fff"/><stop offset=".59375" stop-color="#fff"/><stop offset=".84375" stop-color="#f1f1f1"/><stop offset=".90625" stop-color="#eaeaea"/><stop offset="1" stop-color="#dfdfdf"/></linearGradient><symbol id="c" overflow="visible"><path d="m.359375-3.328125c.03125-1.1875.59375-1.78125 1.6875-1.78125.476563 0 .867187.140625 1.171875.421875.3125.28125.46875.640625.46875 1.078125 0 .636719-.367188 1.152344-1.09375 1.546875l-.71875.390625c-.3125.167969-.539062.328125-.671875.484375-.125.15625-.210937.34375-.25.5625h2.6875v.625h-3.390625c.019531-.5625.128906-.992188.328125-1.296875.195313-.300781.5625-.609375 1.09375-.921875l.671875-.359375c.457031-.269531.6875-.609375.6875-1.015625 0-.269531-.101562-.492188-.296875-.671875-.1875-.1875-.421875-.28125-.703125-.28125-.648438 0-.992188.40625-1.03125 1.21875zm0 0"/></symbol><symbol id="d" overflow="visible"><path d="m2.359375-1.21875h-2.15625v-.671875l2.3125-3.21875h.46875v3.3125h.765625v.578125h-.765625v1.21875h-.625zm0-.578125v-2.234375l-1.609375 2.234375zm0 0"/></symbol><path d="m10.386719 15.5c-.3125.08594-.644531-.03516-.832031-.300781l-.316407-.449219-.125.457031c-.089843.324219-.375.554688-.710937.566407-.335938.01562-.640625-.1875-.757813-.503907l-.1875-.515625-.238281.410156c-.171875.289063-.507812.4375-.835938.363282-.328124-.070313-.570312-.347656-.601562-.683594l-.050781-.546875-.335938.335937c-.238281.234376-.601562.289063-.898437.132813-.296875-.152344-.460938-.484375-.402344-.816406l.09375-.539063-.414062.234375c-.289063.164063-.65625.125-.902344-.101562-.246094-.226563-.320313-.589844-.179688-.894531l.230469-.496094-.457031.121094c-.324219.082031-.667969-.050782-.847656-.332032-.179688-.285156-.15625-.652344.058593-.910156l.351563-.421875-.472656-.0039c-.335938 0-.632813-.21875-.734376-.539063-.101562-.320318.019532-.667974.292969-.863287l.449219-.316406-.457031-.125c-.324219-.085938-.554688-.375-.566407-.710938-.015624-.335937.1875-.640625.503907-.757812l.515625-.1875-.410156-.238281c-.289063-.171876-.4375-.507813-.363282-.835938.074219-.328125.347656-.570312.683594-.601562l.546875-.046876-.332031-.335937c-.238282-.242187-.292969-.605469-.136719-.902344s.484375-.460937.816406-.402343l.539063.09375-.234375-.410157c-.164063-.292969-.125-.660156.101562-.90625.226563-.246093.589844-.320312.894531-.179687l.496094.230468-.121094-.457031c-.082031-.324219.050782-.667969.335938-.847656.28125-.179687.648438-.15625.90625.058594l.421875.351562.00391-.472656c0-.335937.21875-.632813.539063-.730469.320312-.101562.667968.015625.863281.289063l.316406.449219.125-.457032c.085934-.324218.374996-.550781.710934-.566406.335937-.015625.640625.1875.757812.503906l.1875.515625.238281-.410156c.171876-.289063.507813-.433594.835938-.363281.328125.074218.570312.351562.601562.683594l.04688.546874.339843-.332031c.238281-.238281.601563-.292969.898438-.136719s.460937.484376.402343.816407l-.09375.542969.414063-.238282c.289063-.164062.65625-.125.902344.105469.246093.226563.320312.585937.179687.890625l-.230468.496094.457031-.117188c.324219-.085937.667969.046875.847656.332032.179687.28125.15625.648437-.05859.90625l-.351562.421874.472656.00391c.335937 0 .632813.21875.730469.539062.101562.320313-.01563.667969-.289063.863281l-.449219.316407.457032.125c.324218.089843.554687.375.566406.710937.01563.335938-.1875.640625-.503906.757813l-.515625.1875.410156.242187c.289063.167969.4375.503906.363281.832032-.074226.328121-.347664.570309-.683602.601559l-.546874.05078.332031.335938c.238281.238281.292969.601562.136719.898437s-.484376.460938-.816407.402344l-.539062-.08984.234375.410156c.164062.289063.125.65625-.101563.902344-.230469.25-.589843.320313-.894531.179688l-.496094-.230469.117188.457031c.08594.324219-.04687.667969-.332032.847656-.28125.179688-.648437.15625-.90625-.05859l-.421874-.351563-.0039.472656c0 .347657-.234375.652344-.570312.742188zm0 0" fill="url(#a)"/><path d="m6.476562 1.207031-.011718 2.109375-1.675782-1.398437.535157 2.042969-1.984375-.917969 1.042968 1.832031-2.152343-.371094 1.484375 1.5-2.175782.195313 1.820313 1.066406-2.050781.753906 2.035156.554688-1.785156 1.261719 2.109375.011718-1.398438 1.679688 2.039063-.539063-.917969 1.984375 1.835937-1.042968-.375 2.152343 1.5-1.484375.199219 2.175782 1.0625-1.820313.757813 2.050781.554687-2.035156 1.261719 1.785156.0078-2.109375 1.679688 1.398438-.535156-2.039063 1.984375.917969-1.046875-1.835937 2.15625.375-1.484375-1.5 2.175793-.199219-1.820312-1.0625 2.050781-.753907-2.035157-.558593 1.785157-1.261719-2.109375-.007812 1.398437-1.679688-2.039062.535156.914062-1.984375-1.832031 1.046875.375-2.15625-1.5 1.484375-.199219-2.175781-1.066406 1.824219-.753906-2.054688-.554688 2.035157zm0 0" fill="url(#b)"/><g fill="#ae0f0f"><use height="100%" width="100%" x="3.84375" xlink:href="#c" y="10.613892"/><use height="100%" width="100%" x="8.398926" xlink:href="#d" y="10.613892"/></g></svg>