<svg height="16pt" viewBox="0 0 16 16" width="16pt" xmlns="http://www.w3.org/2000/svg" xmlns:xlink="http://www.w3.org/1999/xlink"><linearGradient id="a"><stop offset="0" stop-color="#7c9fcf"/><stop offset=".5" stop-color="#7c9ece"/><stop offset="1" stop-color="#7b9dcf"/></linearGradient><linearGradient id="b" gradientUnits="userSpaceOnUse" x1=".014892" x2="12.049316" xlink:href="#a" y1="13.494019" y2="13.494019"/><linearGradient id="c"><stop offset="0" stop-color="#fff"/><stop offset=".59375" stop-color="#fff"/><stop offset=".84375" stop-color="#f1f1f1"/><stop offset=".90625" stop-color="#eaeaea"/><stop offset="1" stop-color="#dfdfdf"/></linearGradient><linearGradient id="d" gradientUnits="userSpaceOnUse" x1="8" x2="8" xlink:href="#c" y1="16" y2="0"/><linearGradient id="e" gradientUnits="userSpaceOnUse" x1="1.282003" x2="14.012695" xlink:href="#a" y1="8" y2="8"/><linearGradient id="f" gradientUnits="userSpaceOnUse" x1="7" x2="7" xlink:href="#c" y1="16" y2="0"/><linearGradient id="g" gradientUnits="userSpaceOnUse" x1="3.651856" x2="15.991699" xlink:href="#a" y1="2.497984" y2="2.497984"/><linearGradient id="h" gradientUnits="userSpaceOnUse" x1="9" x2="9" xlink:href="#c" y1="16" y2="0"/><path d="m11.0625 11.003906-8.851562.011719h-.761719c-.003907 0-.003907 0-.003907 0-.335937 0-.632812.171875-.796874.324219-.164063.15625-.242188.300781-.300782.425781-.125.257813-.175781.476563-.21875.695313-.0859372.441406-.113281.84375-.113281 1.121093 0 .578125.203125 1.085938.53125 1.519531.328125.4375.832031.828126 1.507813.878907.027343.003906.050781.003906.078124.003906h.015626.003906l8.851562-.035156c.542969 0 .984375-.441407.984375-.984375v-.007813c0-.507812-.382812-.929687-.886719-.980469.035157 0-.035156-.011718-.113281-.109374-.078125-.101563-.121093-.253907-.121093-.296876 0-.011718.0625-.257812.175781-.417968.113281-.15625.242187-.175782.121093-.164063.503907-.050781.886719-.472656.886719-.980469v-.019531c0-.261719-.105469-.511719-.289062-.699219-.1875-.183593-.4375-.285156-.699219-.285156zm0 0" fill="url(#b)"/><path d="m11 14.964844v-.007813c-.613281-.066406-1.117188-.769531-1.117188-1.386719 0-.621093.566407-1.5 1.179688-1.5625v-.019531l-8.851562.011719h-.765626c-.339843 0-.445312 1.214844-.445312 1.582031 0 .628907.503906 1.367188 1.132812 1.417969h.015626zm0 0" fill="url(#d)"/><path d="m4 0c-.039062 0-.078125 0-.117188.00390625-1.074218.12890575-1.839843 1.14843775-1.882812 2.16015575v.042969l.023438 11.789063c-.023438.015625-.042969.035156-.0625.058594-.453126.152343-.734376.605468-.671876 1.078124.066407.472657.453126.835938.929688.867188h.09375.042969 9.644531c1.019531 0 2-.863281 2-1.921875l.011719-11.347656c0-.003907 0-.007813 0-.007813l-.011719-1.730468c-.003906-.550782-.449219-.992188-1-.992188zm0 0" fill="url(#e)"/><path d="m4 1c-.605469.070312-.972656.546875-1 1.207031l.023438 11.929688c0 .289062-.132813.4375-.347657.617187-.066406.132813-.144531.234375-.320312.246094h9.644531c.578125 0 1-.382812 1-.921875l.011719-11.351563-.011719-1.726562zm-1.660156 14h-.0625zm0 0" fill="url(#f)"/><path d="m4.644531 0c-.546875 0-.992187.441406-.992187.992188v.007812c0 .507812.382812.933594.890625.988281-.128907-.015625-.019531-.007812.085937.144531.105469.15625.167969.40625.167969.433594 0 .066406-.046875.238282-.121094.335938-.070312.101562-.117187.097656-.0625.089844-.523437.054687-.914062.507812-.890625 1.03125.023438.523437.449219.941406.976563.949218 3.039062.039063 6.171875.019532 9.230469.019532h.011718c.027344 0 .050782 0 .078125-.003907.65625-.050781 1.175781-.4375 1.488281-.871093.316407-.4375.484376-.945313.484376-1.484376 0-.566406-.171876-1.074218-.464844-1.554687-.296875-.476563-.765625-1.0039062-1.558594-1.0664062-.023438-.0039063-.050781-.0039063-.078125-.0039063h-.011719zm0 0" fill="url(#g)"/><path d="m4.644531.992188v.007812c.617188.0625 1.144531.949219 1.144531 1.570312 0 .617188-.460937 1.347657-1.078124 1.410157 3.027343.039062 6.15625.019531 9.21875.019531h.011718c.628906-.050781 1.058594-.738281 1.058594-1.367188 0-.628906-.480469-1.582031-1.109375-1.632812h-.011719zm0 0" fill="url(#h)"/></svg>