<svg height="16pt" viewBox="0 0 16 16" width="16pt" xmlns="http://www.w3.org/2000/svg" xmlns:xlink="http://www.w3.org/1999/xlink"><linearGradient id="a" gradientUnits="userSpaceOnUse" x1="2.353073" x2="12.677979" y1="8" y2="8"><stop offset="0" stop-color="#7c9fcf"/><stop offset=".5" stop-color="#7c9ece"/><stop offset="1" stop-color="#7b9dcf"/></linearGradient><linearGradient id="b" gradientUnits="userSpaceOnUse" x1="9" x2="9" y1="16" y2="0"><stop offset="0" stop-color="#fff"/><stop offset=".59375" stop-color="#fff"/><stop offset=".84375" stop-color="#f1f1f1"/><stop offset=".90625" stop-color="#eaeaea"/><stop offset="1" stop-color="#dfdfdf"/></linearGradient><path d="m4.667969-.0117188c-.511719 0-1.011719.0507813-1.488281.1406248-.480469.089844-.828126.507813-.828126.992188 0 .488281.347657.90625.828126.996094 2.769531.523437 4.871093 2.945312 4.871093 5.882812s-2.101562 5.359375-4.871093 5.882812c-.480469.089844-.828126.507813-.828126.996094 0 .484375.347657.902344.828126.992188.476562.089844.976562.140625 1.488281.140625 4.410156 0 8.011719-3.597657 8.011719-8.011719s-3.601563-8.0117188-8.011719-8.0117188zm0 0" fill="url(#a)"/><path d="m4.667969 1c-.445313 0-.882813.042969-1.304688.121094 3.246094.613281 5.699219 3.457031 5.699219 6.878906s-2.453125 6.265625-5.699219 6.878906c.421875.078125.859375.121094 1.304688.121094 3.863281 0 7-3.132812 7-7s-3.136719-7-7-7zm0 0" fill="url(#b)"/></svg>