<svg height="16pt" viewBox="0 0 16 16" width="16pt" xmlns="http://www.w3.org/2000/svg" xmlns:xlink="http://www.w3.org/1999/xlink"><linearGradient id="a" gradientTransform="scale(.125 -.125)" gradientUnits="userSpaceOnUse" x1=".000375" x2="127.99963" y1="-64.000359" y2="-64.000359"><stop offset="0" stop-color="#7c9fcf"/><stop offset=".5" stop-color="#7c9ece"/><stop offset="1" stop-color="#7b9dcf"/></linearGradient><linearGradient id="b" gradientTransform="scale(.125 -.125)" gradientUnits="userSpaceOnUse" x1="64" x2="64" y1="-128" y2="-8"><stop offset="0" stop-color="#fff"/><stop offset=".59375" stop-color="#fff"/><stop offset=".84375" stop-color="#f1f1f1"/><stop offset=".90625" stop-color="#eaeaea"/><stop offset="1" stop-color="#dfdfdf"/></linearGradient><path d="m7.992188 16c-.246094-.003906-.480469-.101562-.652344-.273438l-1.796875-1.808593-2.539063.011719c-.246094 0-.484375-.097657-.660156-.273438s-.273438-.410156-.273438-.660156l.007813-2.550782-1.804687-1.785156c-.1757818-.175781-.273438-.410156-.273438-.660156 0-.246094.0976562-.484375.273438-.660156l1.808593-1.796875-.011719-2.539063c0-.246094.097657-.484375.273438-.660156s.410156-.273438.660156-.273438l2.550782.007813 1.785156-1.804687c.175781-.1757818.410156-.273438.660156-.273438.246094 0 .484375.0976562.660156.273438l1.796875 1.808593 2.539063-.011719c.246094 0 .484375.097657.660156.273438s.273438.410156.273438.660156l-.007813 2.550782 1.804687 1.785156c.175782.175781.273438.410156.273438.660156 0 .246094-.097656.484375-.273438.660156l-1.808593 1.796875.011719 2.539063c0 .246094-.097657.484375-.273438.660156s-.410156.273438-.660156.273438l-2.550782-.007813-1.785156 1.804687c-.175781.175782-.417968.277344-.667968.273438zm0 0" fill="url(#a)"/><path d="m8 .929688-2.0625 2.082031-2.9375-.011719.015625 2.929688-2.085937 2.070312 2.082031 2.0625-.011719 2.9375 2.929688-.015625 2.070312 2.085937 2.0625-2.082031 2.9375.011719-.015625-2.929688 2.085937-2.070312-2.082031-2.0625.011719-2.9375-2.929688.015625zm0 0" fill="url(#b)"/></svg>