<svg height="16pt" viewBox="0 0 16 16" width="16pt" xmlns="http://www.w3.org/2000/svg" xmlns:xlink="http://www.w3.org/1999/xlink"><linearGradient id="a"><stop offset="0" stop-color="#7c9fcf"/><stop offset=".5" stop-color="#7c9ece"/><stop offset="1" stop-color="#7b9dcf"/></linearGradient><linearGradient id="b" gradientUnits="userSpaceOnUse" x1="8" x2="8" xlink:href="#a" y1="16" y2="0"/><linearGradient id="c"><stop offset="0" stop-color="#fff"/><stop offset=".59375" stop-color="#fff"/><stop offset=".84375" stop-color="#f1f1f1"/><stop offset=".90625" stop-color="#eaeaea"/><stop offset="1" stop-color="#dfdfdf"/></linearGradient><linearGradient id="d" gradientUnits="userSpaceOnUse" x1="8" x2="8" xlink:href="#c" y1="16" y2="0"/><linearGradient id="e" gradientTransform="matrix(.0883883 -.0883883 .397748 .397748 -6.849242 3.757359)" gradientUnits="userSpaceOnUse" x1="56" x2="64" xlink:href="#a" y1="24" y2="24"/><linearGradient id="f" gradientTransform="matrix(-.0883883 -.0883883 -.397748 .397748 22.849243 3.757359)" gradientUnits="userSpaceOnUse" x1="56" x2="64" xlink:href="#a" y1="24" y2="24"/><linearGradient id="g" gradientUnits="userSpaceOnUse" x1="7.999999" x2="7.999999" xlink:href="#a" y1="12.570194" y2="3.429804"/><linearGradient id="h" gradientUnits="userSpaceOnUse" x1="7.989303" x2="7.989303" xlink:href="#c" y1="12.024965" y2="3.996434"/><path d="m2 .996094c-.554688 0-1.003906.449218-1.003906 1.003906v12c0 .554688.449218 1.003906 1.003906 1.003906h12c.554688 0 1.003906-.449218 1.003906-1.003906v-12c0-.554688-.449218-1.003906-1.003906-1.003906zm0 0" fill="url(#b)"/><path d="m2 2h12v12h-12zm0 0" fill="url(#d)"/><path d="m1.28125 1.988281.707031-.707031 12.730469 12.730469-.707031.707031zm0 0" fill="url(#e)"/><path d="m14.71875 1.988281-.707031-.707031-12.730469 12.730469.707031.707031zm0 0" fill="url(#f)"/><path d="m4.574219 4c-.320313 0-.574219.253906-.574219.574219v6.851562c0 .320313.253906.574219.574219.574219h6.851562c.320313 0 .574219-.253906.574219-.574219v-6.851562c0-.320313-.253906-.574219-.574219-.574219zm0 0" fill="url(#g)"/><path d="m4.980469 5h6.019531v6.019531h-6.019531zm0 0" fill="url(#h)"/></svg>