<svg height="16pt" viewBox="0 0 16 16" width="16pt" xmlns="http://www.w3.org/2000/svg" xmlns:xlink="http://www.w3.org/1999/xlink"><linearGradient id="a" gradientUnits="userSpaceOnUse" x1="8" x2="8" y1="16" y2="0"><stop offset="0" stop-color="#7c9fcf"/><stop offset=".5" stop-color="#7c9ece"/><stop offset="1" stop-color="#7b9dcf"/></linearGradient><linearGradient id="b" gradientUnits="userSpaceOnUse" x1="9" x2="9" y1="16" y2="0"><stop offset="0" stop-color="#fff"/><stop offset=".59375" stop-color="#fff"/><stop offset=".84375" stop-color="#f1f1f1"/><stop offset=".90625" stop-color="#eaeaea"/><stop offset="1" stop-color="#dfdfdf"/></linearGradient><path d="m8 0c-4.417969 0-8 3.582031-8 8s3.582031 8 8 8 8-3.582031 8-8-3.582031-8-8-8zm0 4c2.210938 0 4 1.789062 4 4 0 .359375-.046875.703125-.136719 1.035156l-4.898437-4.898437c.332031-.089844.675781-.136719 1.035156-.136719zm-3.863281 2.964844 4.898437 4.898437c-.332031.089844-.675781.136719-1.035156.136719-2.210938 0-4-1.789062-4-4 0-.359375.046875-.703125.136719-1.035156zm0 0" fill="url(#a)"/><path d="m8 1c-3.867188 0-7 3.132812-7 7s3.132812 7 7 7 7-3.132812 7-7-3.132812-7-7-7zm0 2c2.761719 0 5 2.238281 5 5 0 1.019531-.304688 1.964844-.828125 2.757812l-6.929687-6.929687c.792968-.523437 1.738281-.828125 2.757812-.828125zm-4.171875 2.242188 6.929687 6.929687c-.792968.523437-1.738281.828125-2.757812.828125-2.761719 0-5-2.238281-5-5 0-1.019531.304688-1.964844.828125-2.757812zm0 0" fill="url(#b)"/></svg>