<svg height="16pt" viewBox="0 0 16 16" width="16pt" xmlns="http://www.w3.org/2000/svg" xmlns:xlink="http://www.w3.org/1999/xlink"><linearGradient id="a"><stop offset="0" stop-color="#7c9fcf"/><stop offset=".5" stop-color="#7c9ece"/><stop offset="1" stop-color="#7b9dcf"/></linearGradient><linearGradient id="b" gradientTransform="matrix(.0742462 -.0742462 .0742462 .0742462 -1.503515 8)" gradientUnits="userSpaceOnUse" x1="64" x2="64" xlink:href="#a" y1="128" y2="0"/><linearGradient id="c"><stop offset="0" stop-color="#fff"/><stop offset=".59375" stop-color="#fff"/><stop offset=".84375" stop-color="#f1f1f1"/><stop offset=".90625" stop-color="#eaeaea"/><stop offset="1" stop-color="#dfdfdf"/></linearGradient><linearGradient id="d" gradientTransform="matrix(.0742462 -.0742462 .0742462 .0742462 -1.503515 8)" gradientUnits="userSpaceOnUse" x1="64" x2="64" xlink:href="#c" y1="128" y2="0"/><linearGradient id="e" gradientTransform="matrix(0 -.105 .4725 0 -3.34 14.3)" gradientUnits="userSpaceOnUse" x1="56" x2="64" xlink:href="#a" y1="24" y2="24"/><linearGradient id="f" gradientTransform="matrix(-.105 0 0 .4725 14.3 -3.34)" gradientUnits="userSpaceOnUse" x1="56" x2="64" xlink:href="#a" y1="24" y2="24"/><linearGradient id="g" gradientTransform="matrix(.042415 -.042415 .042415 .042415 2.570884 8)" gradientUnits="userSpaceOnUse" x1="64" x2="64" xlink:href="#a" y1="128" y2="0"/><linearGradient id="h" gradientTransform="matrix(.0372555 -.0372555 .0372555 .0372555 3.231297 8.01271)" gradientUnits="userSpaceOnUse" x1="64" x2="64" xlink:href="#c" y1="128" y2="0"/><path d="m.277344 7.402344c-.3320315.332031-.3320315.863281 0 1.195312l7.125 7.125c.332031.332032.863281.332032 1.195312 0l7.125-7.125c.332032-.332031.332032-.863281 0-1.195312l-7.125-7.125c-.332031-.3320315-.863281-.3320315-1.195312 0zm0 0" fill="url(#b)"/><path d="m.871094 8 7.128906-7.128906 7.128906 7.128906-7.128906 7.128906zm0 0" fill="url(#d)"/><path d="m.441406 8.421875v-.84375h15.117188v.84375zm0 0" fill="url(#e)"/><path d="m8.421875.441406h-.84375v15.117188h.84375zm0 0" fill="url(#f)"/><path d="m3.585938 7.660156c-.1875.1875-.1875.492188 0 .679688l4.074218 4.074218c.1875.1875.492188.1875.679688 0l4.074218-4.074218c.1875-.1875.1875-.492188 0-.679688l-4.074218-4.074218c-.1875-.1875-.492188-.1875-.679688 0zm0 0" fill="url(#g)"/><path d="m4.421875 8.011719 3.578125-3.574219 3.578125 3.574219-3.578125 3.578125zm0 0" fill="url(#h)"/></svg>