<?xml version="1.0" encoding="UTF-8" standalone="no"?>
<svg
   xmlns:dc="http://purl.org/dc/elements/1.1/"
   xmlns:cc="http://creativecommons.org/ns#"
   xmlns:rdf="http://www.w3.org/1999/02/22-rdf-syntax-ns#"
   xmlns:svg="http://www.w3.org/2000/svg"
   xmlns="http://www.w3.org/2000/svg"
   xmlns:sodipodi="http://sodipodi.sourceforge.net/DTD/sodipodi-0.dtd"
   xmlns:inkscape="http://www.inkscape.org/namespaces/inkscape"
   height="16"
   viewBox="0 0 16 16"
   width="16"
   version="1.1"
   id="svg29"
   sodipodi:docname="sc_selecttextmode.svg"
   inkscape:version="0.92.4 (unknown)"
   inkscape:export-filename="/home/rizmut/Dokumen/Rizmut/Github/libreoffice-style-karasa-jaga/build/next/cmd/sc_selecttextmode.png"
   inkscape:export-xdpi="96"
   inkscape:export-ydpi="96">
  <metadata
     id="metadata35">
    <rdf:RDF>
      <cc:Work
         rdf:about="">
        <dc:format>image/svg+xml</dc:format>
        <dc:type
           rdf:resource="http://purl.org/dc/dcmitype/StillImage" />
        <dc:title></dc:title>
      </cc:Work>
    </rdf:RDF>
  </metadata>
  <defs
     id="defs33">
    <filter
       inkscape:collect="always"
       style="color-interpolation-filters:sRGB"
       id="filter879"
       x="-0.064217207"
       width="1.1284344"
       y="-0.056302556"
       height="1.1126051">
      <feGaussianBlur
         inkscape:collect="always"
         stdDeviation="0.22231445"
         id="feGaussianBlur881" />
    </filter>
  </defs>
  <sodipodi:namedview
     pagecolor="#ffffff"
     bordercolor="#666666"
     borderopacity="1"
     objecttolerance="10"
     gridtolerance="10"
     guidetolerance="10"
     inkscape:pageopacity="0"
     inkscape:pageshadow="2"
     inkscape:window-width="1366"
     inkscape:window-height="714"
     id="namedview31"
     showgrid="true"
     inkscape:snap-global="false"
     showguides="false"
     inkscape:zoom="59"
     inkscape:cx="-2.1460603"
     inkscape:cy="7.3624726"
     inkscape:window-x="0"
     inkscape:window-y="28"
     inkscape:window-maximized="1"
     inkscape:current-layer="svg29">
    <inkscape:grid
       type="xygrid"
       id="grid842" />
  </sodipodi:namedview>
  <linearGradient
     id="a"
     gradientUnits="userSpaceOnUse"
     x1="32.81356"
     x2="28.745761"
     y1="44.474576"
     y2="19.254237">
    <stop
       offset="0"
       stop-color="#070707"
       id="stop2" />
    <stop
       offset="1"
       stop-color="#474747"
       id="stop4" />
  </linearGradient>
  <filter
     id="b"
     color-interpolation-filters="sRGB"
     height="1.306617"
     width="1.43589"
     x="-.217945"
     y="-.153309">
    <feGaussianBlur
       stdDeviation="3.1542391"
       id="feGaussianBlur7" />
  </filter>
  <filter
     id="c"
     color-interpolation-filters="sRGB"
     height="1.038131"
     width="1.06476"
     x="-.03238"
     y="-.019066">
    <feGaussianBlur
       stdDeviation=".46367188"
       id="feGaussianBlur10" />
  </filter>
  <g
     transform="matrix(1.0139892,0,0,1.0139892,-0.99684035,-0.67673482)"
     id="g857"
     style="font-style:normal;font-weight:normal;font-size:17.94940567px;line-height:1.25;font-family:sans-serif;letter-spacing:0px;word-spacing:0px;fill:#ff0000;fill-opacity:1;stroke:none;stroke-width:0.44873515"
     aria-label="a">
    <path
       transform="matrix(0.79044766,0,0,0.79044766,1.5383911,3.0802415)"
       style="font-style:normal;font-variant:normal;font-weight:normal;font-stretch:normal;font-family:FreeSerif;-inkscape-font-specification:FreeSerif;fill:#000000;stroke-width:0.44873515;filter:url(#filter879)"
       d="m 4.3496094,5.3691406 c -1.073675,0 -2.0917353,0.2633684 -2.9414063,0.8339844 -0.86816665,0.5792753 -1.49609372,1.5145056 -1.49609372,2.5996094 0,0.6068104 0.25492711,1.1475053 0.65039062,1.5429686 0.10380729,0.103808 0.23067568,0.144806 0.33789062,0.175781 0.002367,6.84e-4 0.003506,0.0013 0.005859,0.002 -0.12048708,0.09079 -0.24099607,0.189516 -0.34960938,0.322265 -0.12630133,0.154369 -0.25117821,0.320957 -0.37695312,0.496094 -1.3638e-4,2.23e-4 2.0137e-4,0.0016 0,0.002 -0.006267,0.0083 -0.009574,0.01707 -0.015625,0.02539 9.078e-5,-1.93e-4 -8.2506e-4,0.0032 -0.001953,0.0059 -7.3031e-4,0.0017 -0.001905,0.0038 -0.001953,0.0039 -0.16288718,0.227385 -0.25272387,0.475565 -0.33789063,0.705078 l 0.0234375,-0.04101 c -0.072026,0.0939 -0.12571451,0.202073 -0.15625,0.316406 a 0.15608509,0.15608509 0 0 0 0,0.002 c -1.2359e-4,4.75e-4 -0.005875,0.04443 -0.005859,0.04492 1.87e-6,6e-5 -3.286e-5,0.0015 0,0.002 -1.909e-5,1.46e-4 7e-7,0.002 0,0.002 -2.53e-6,-7.9e-5 -4.45e-5,0.0014 0,0.002 -0.072432,0.29323 -0.11132812,0.592045 -0.11132813,0.894532 0,0.871221 0.30089288,1.732672 0.91992188,2.373047 a 0.15608509,0.15608509 0 0 0 0.005859,0.0039 0.15608509,0.15608509 0 0 0 0.009766,0.01172 c 0.001483,0.0015 0.004408,0.0025 0.005859,0.0039 3.6479e-4,3.63e-4 0.001588,-3.64e-4 0.001953,0 0.6301652,0.627233 1.4849008,0.951172 2.3632812,0.951172 0.739885,0 1.3956877,-0.304609 2.0214844,-0.673829 0.4971312,0.47504 1.1443551,0.673829 1.7480469,0.673829 0.4932826,0 0.9924775,-0.103344 1.4472656,-0.341797 l 0.00391,-0.002 c 0.00659,-0.0032 0.01302,-0.0064 0.019531,-0.0098 a 0.15608509,0.15608509 0 0 0 0.00391,-0.002 c 0.4610694,-0.253578 0.8315904,-0.60983 1.1972656,-1.017578 0.2317871,-0.258178 0.3645386,-0.597872 0.3652344,-0.945313 0,0 0,-0.002 0,-0.002 V 13.863281 C 9.6858002,13.32181 9.3586497,12.808813 8.8691406,12.578125 8.7018985,12.499308 8.5277844,12.478156 8.3574219,12.474609 V 9.6640625 c 0,-1.1437766 -0.2072088,-2.2043653 -0.8632813,-3.0332031 C 6.7549537,5.6854858 5.5631963,5.3691404 4.3496094,5.3691406 Z M 4.0585938,12.541016 v 0.0918 c -0.025427,0.01041 -0.039981,0.01318 -0.0625,0.02149 -1.484e-4,-0.0131 -2.53e-4,-0.03715 0,-0.04492 6.929e-4,-0.02128 1.286e-4,-0.0139 -0.00195,-0.0098 -0.0018,0.0036 0.047641,-0.04261 0.064453,-0.05859 z"
       id="path861" />
    <path
       style="font-style:normal;font-variant:normal;font-weight:normal;font-stretch:normal;font-family:FreeSerif;-inkscape-font-specification:FreeSerif;fill:#ffffff;stroke-width:0.35470164"
       d="m 4.9765625,7.4804688 c -0.8235986,0 -1.5999054,0.2022082 -2.2421875,0.6347656 C 2.0929951,8.5444409 1.625,9.2550143 1.625,10.039062 c 0,0.420496 0.1930334,0.831706 0.46875,1.107422 0.1225676,0.122568 0.269503,0.186467 0.4179688,0.234375 -0.1463269,0.105628 -0.2867534,0.220269 -0.4101563,0.371094 -0.093729,0.114557 -0.1912309,0.241119 -0.2890625,0.376953 -0.00113,0.0016 -0.00278,0.0023 -0.00391,0.0039 h 0.00195 c -0.00109,0.0014 -0.00282,0.0025 -0.00391,0.0039 1.406e-4,-1.97e-4 -0.00756,0.01228 -0.011719,0.01953 -1.896e-4,3.54e-4 1.332e-4,0.0017 0,0.002 -6.876e-4,0.0012 -0.00165,0.0033 -0.00195,0.0039 -6.236e-4,0.0014 -0.00183,0.0036 -0.00195,0.0039 -0.1607557,0.218279 -0.2803754,0.466097 -0.3457031,0.724609 -0.060092,0.229128 -0.089844,0.46642 -0.089844,0.707031 0,0.647552 0.2294094,1.29578 0.6835937,1.765625 a 0.16009739,0.16009739 0 0 0 0.00195,0 c 0.00355,0.0036 0.00616,0.0082 0.00977,0.01172 0.4627584,0.462759 1.1117054,0.710938 1.7636719,0.710938 0.574801,0 1.1054131,-0.239525 1.625,-0.548829 0.3619669,0.392876 0.8842519,0.548829 1.3535157,0.548829 0.3674142,0 0.7402589,-0.07814 1.0742187,-0.253907 a 0.16009739,0.16009739 0 0 0 0.00391,-0.002 c 0.00469,-0.0026 0.00903,-0.0051 0.013672,-0.0078 l 0.00195,-0.002 C 8.23132,15.630183 8.5041375,15.370536 8.7890625,15.052734 8.9463223,14.877942 9.0363658,14.643325 9.0371094,14.408203 V 14.039062 C 9.0370368,13.736872 8.8862228,13.438529 8.6425781,13.259766 8.4556081,13.122585 8.219095,13.084968 7.9882812,13.103516 V 10.71875 c 0,-0.8848912 -0.1570987,-1.6768568 -0.6464843,-2.296875 l -0.00195,-0.00195 C 6.7942173,7.7210977 5.90834,7.4804688 4.9765625,7.4804688 Z m -0.125,2.1074218 c 0,0 0.1542969,0.039063 0.1542969,0.039063 0,0 -0.1311582,0.091373 -0.1308594,0.091797 -0.00152,-0.00235 -0.0023,-0.00318 -0.00391,-0.00586 -0.00558,-0.00932 -0.011827,-0.021726 -0.011719,-0.021484 8.53e-5,1.902e-4 -0.00785,-0.025529 -0.00781,-0.025391 3.51e-5,1.381e-4 -0.00586,-0.04305 -0.00586,-0.042969 0,0 0.1601563,0.00391 0.1601563,0.00391 0,0 -0.15625,-0.03125 -0.15625,-0.03125 0,0 0.00195,-0.00781 0.00195,-0.00781 z m -0.058594,0.1679688 c 0.06126,0 0.066687,0.00307 0.087891,0.00586 0.0091,0.037627 0.021484,0.094338 0.021484,0.2050781 v 0.2070311 c -0.063943,0.02529 -0.097466,0.04007 -0.1523438,0.0625 0.023214,-0.05984 0.058594,-0.109108 0.058594,-0.183594 0,-0.1503877 -0.021178,-0.2135762 -0.039063,-0.2910152 0.010624,-2.92e-4 0.00548,-0.00586 0.023438,-0.00586 z m 0.109375,2.9667966 v 0.449219 c -0.1510624,0.07386 -0.2676398,0.112502 -0.3476563,0.123047 -0.00624,-0.03281 -0.013672,-0.06283 -0.013672,-0.150391 0,-0.09042 0.00564,-0.131094 0.023437,-0.167969 0.017797,-0.03687 0.056835,-0.08518 0.1484375,-0.164062 -0.013196,0.01136 0.014649,-0.0076 0.046875,-0.02344 0.032226,-0.01588 0.073656,-0.03441 0.1191406,-0.05469 0.00807,-0.0036 0.015275,-0.0081 0.023438,-0.01172 z m 0.2324218,0.695313 c -0.00299,0.0015 -0.00783,0.0039 -0.00781,0.0039 4.06e-5,-1.5e-5 -0.035192,0.0078 -0.035156,0.0078 0,0 2.42e-5,-0.0037 0,-0.0039 0.020495,-0.0039 0.042793,-0.0077 0.042969,-0.0078 z m -0.087891,0.0078 c 0.00233,8.26e-4 0.00656,0.0035 0.00781,0.0039 0,0 -0.00781,0 -0.00781,0 0,0 -2.75e-5,-0.0037 0,-0.0039 z m -0.5800781,0.05859 v 0.162109 c -0.045772,0 -0.057095,-0.0123 -0.066406,-0.01758 -0.00466,-0.0026 -0.00889,-0.0043 -0.013672,-0.0078 -0.0012,-8.78e-4 -0.004,-0.004 -0.00391,-0.0039 4.73e-5,3.7e-5 -0.00589,-0.0039 -0.00586,-0.0039 0,0 -0.00195,-0.002 -0.00195,-0.002 0,0 -0.00195,-0.002 -0.00195,-0.002 0,0 -0.00391,-0.0039 -0.00391,-0.0039 0,0 0.048968,-0.06081 0.097656,-0.121094 z"
       id="path855" />
  </g>
  <g
     stroke-width="15.11811"
     transform="matrix(.25 0 0 .25 0 -1)"
     id="g27">
    <path
       d="m36 10.816406a5.1837139 5.1837139 0 0 0 -5.183594 5.183594v4a5.1837139 5.1837139 0 0 0 5.183594 5.183594h2.816406v29.632812h-2.816406a5.1837139 5.1837139 0 0 0 -5.183594 5.183594v4a5.1837139 5.1837139 0 0 0 5.183594 5.183594h8a5.1837139 5.1837139 0 0 0 3.998047-1.892578 5.1837139 5.1837139 0 0 0 4.001953 1.892578h8a5.1837139 5.1837139 0 0 0 5.183594-5.183594v-4a5.1837139 5.1837139 0 0 0 -5.183594-5.183594h-2.816406v-29.632812h2.816406a5.1837139 5.1837139 0 0 0 5.183594-5.183594v-4a5.1837139 5.1837139 0 0 0 -5.183594-5.183594h-8a5.1837139 5.1837139 0 0 0 -3.998047 1.892578 5.1837139 5.1837139 0 0 0 -4.001953-1.892578z"
       fill="#1a1a1a"
       filter="url(#c)"
       opacity=".778"
       id="path21" />
    <path
       d="m36 12.007812a3.9930672 3.9930672 0 0 0 -3.992188 3.992188v4a3.9930672 3.9930672 0 0 0 3.992188 3.992188h4.007812v32.015624h-4.007812a3.9930672 3.9930672 0 0 0 -3.992188 3.992188v4a3.9930672 3.9930672 0 0 0 3.992188 3.992188h8a3.9930672 3.9930672 0 0 0 3.992188-3.992188v-.0078h.01562v.0078a3.9930672 3.9930672 0 0 0 3.992192 3.992188h8a3.9930672 3.9930672 0 0 0 3.992188-3.992188v-4a3.9930672 3.9930672 0 0 0 -3.992188-3.992188h-4.007812v-32.015624h4.007812a3.9930672 3.9930672 0 0 0 3.992188-3.992188v-4a3.9930672 3.9930672 0 0 0 -3.992188-3.992188h-8a3.9930672 3.9930672 0 0 0 -3.992188 3.992188v.0078h-.01562v-.0078a3.9930672 3.9930672 0 0 0 -3.992192-3.992188z"
       fill="#fff"
       id="path23" />
    <path
       d="m36.000001 16.00002v3.99995l7.999999.000151v-4.000101zm7.999999 4.000101v39.999949h8v-39.999949zm8 0h7.999999v-4.000101h-7.999999zm0 39.999949v3.999949h8.000003l-.000012-3.999949zm-8 0h-7.999999v3.999949h7.999999z"
       fill="#1c2d40"
       id="path25" />
  </g>
  <g
     aria-label="a"
     style="font-style:normal;font-weight:normal;font-size:17.94940567px;line-height:1.25;font-family:sans-serif;letter-spacing:0px;word-spacing:0px;fill:#000000;fill-opacity:1;stroke:none;stroke-width:0.44873515"
     id="text846"
     transform="matrix(0.80150539,0,0,0.80150539,0.96499416,2.4198021)">
    <path
       d="m 0.49185739,13.340489 q 0,-0.32309 0.0717976,-0.592331 0.0717976,-0.28719 0.25129167,-0.520532 Q 0.99444075,11.976334 1.1559854,11.77889 1.3175301,11.581447 1.6406194,11.384004 1.9637087,11.168611 2.1791015,11.042965 2.3944944,10.89937 2.8252801,10.719876 3.2740153,10.522432 3.5073575,10.432685 3.7406998,10.324989 4.2432832,10.127545 4.7458665,9.9301017 4.9792088,9.8403547 V 8.7454409 q 0,-1.4898007 -1.3641548,-1.4898007 -0.5384822,0 -0.9154197,0.2692411 -0.3769375,0.2512917 -0.3769375,0.6102798 0,0.1435953 0.035899,0.3948869 0.053848,0.2512917 0.053848,0.3230893 0,0.3051399 -0.2512917,0.5384822 -0.2333423,0.2153929 -0.5564316,0.2153929 -0.3051399,0 -0.5384821,-0.2333423 -0.2333423,-0.2333423 -0.2333423,-0.5384822 0,-0.843622 0.8615715,-1.418003 0.8795209,-0.5923304 2.1539287,-0.5923304 1.4718512,0 2.0282828,0.7179762 0.5564316,0.7000269 0.5564316,2.1539287 v 3.5001346 q 0,0.59233 0.1076964,0.825672 0.1256458,0.215393 0.4307857,0.215393 0.3769376,0 0.7897739,-0.341039 v 0.466685 q -0.4666846,0.520533 -0.8256727,0.717976 -0.3410387,0.179494 -0.7897738,0.179494 -0.5564316,0 -0.8256727,-0.30514 -0.2512917,-0.30514 -0.3230893,-1.005166 -1.5436489,1.310306 -2.6206132,1.310306 -0.8256727,0 -1.3641548,-0.538482 Q 0.49185739,14.184111 0.49185739,13.340489 Z M 4.9792088,12.873804 V 10.27114 q -1.6154465,0.592331 -2.2616251,1.148762 -0.6461786,0.556432 -0.6461786,1.346206 0,0.735925 0.3589881,1.094914 0.3589881,0.358988 0.7718244,0.358988 0.6102798,0 1.3103067,-0.412837 0.2871905,-0.161544 0.3769375,-0.341038 0.089747,-0.179494 0.089747,-0.592331 z"
       style="font-style:normal;font-variant:normal;font-weight:normal;font-stretch:normal;font-family:FreeSerif;-inkscape-font-specification:FreeSerif;stroke-width:0.44873515"
       id="path848"
       inkscape:connector-curvature="0" />
  </g>
</svg>
