<svg height="16pt" viewBox="0 0 16 16" width="16pt" xmlns="http://www.w3.org/2000/svg" xmlns:xlink="http://www.w3.org/1999/xlink"><linearGradient id="a" gradientTransform="matrix(.126024 -.0344952 -.0344952 -.126024 -1.490852 2.380072)" gradientUnits="userSpaceOnUse" x1="-.165475" x2="122.55024" y1="-61.192997" y2="-61.192997"><stop offset="0" stop-color="#7c9fcf"/><stop offset=".5" stop-color="#7c9ece"/><stop offset="1" stop-color="#7b9dcf"/></linearGradient><linearGradient id="b" gradientTransform="matrix(.126024 -.0344952 -.0344952 -.126024 -1.490852 2.380072)" gradientUnits="userSpaceOnUse" x1="43.341953" x2="74.933983" y1="-117.10874" y2="-2.171004"><stop offset="0" stop-color="#fff"/><stop offset=".59375" stop-color="#fff"/><stop offset=".84375" stop-color="#f1f1f1"/><stop offset=".90625" stop-color="#eaeaea"/><stop offset="1" stop-color="#dfdfdf"/></linearGradient><symbol id="c" overflow="visible"><path d="m1.6875-3.296875h-1.015625v-.40625c.4375-.0625.722656-.140625.859375-.234375.132812-.101562.253906-.332031.359375-.6875h.375v4.625h-.578125zm0 0"/></symbol><symbol id="d" overflow="visible"><path d="m.328125-3.03125c.03125-1.0625.539063-1.59375 1.53125-1.59375.4375 0 .789063.125 1.0625.375.28125.25.421875.578125.421875.984375 0 .574219-.328125 1.039063-.984375 1.390625l-.65625.359375c-.28125.148437-.484375.292969-.609375.4375-.117188.148437-.1875.320313-.21875.515625h2.4375v.5625h-3.09375c.03125-.507812.132812-.898438.3125-1.171875.175781-.28125.503906-.554687.984375-.828125l.609375-.34375c.414062-.238281.625-.546875.625-.921875 0-.238281-.089844-.441406-.265625-.609375-.167969-.164062-.386719-.25-.65625-.25-.574219 0-.882813.367188-.921875 1.09375zm0 0"/></symbol><path d="m10.472656 15.707031c-.453125.136719-.941406-.058593-1.171875-.472656l-.9375-1.675781-.921875 1.6875c-.222656.40625-.695312.609375-1.144531.488281-.449219-.117187-.757813-.523437-.753906-.988281l.027343-1.917969-1.640624.996094c-.398438.242187-.90625.183593-1.238282-.144531-.328125-.324219-.394531-.835938-.15625-1.234376l.980469-1.648437-1.917969.042969c-.464844.011718-.875-.296875-1-.742188-.121094-.449218.078125-.921875.480469-1.148437l1.675781-.9375-1.683594-.921875c-.410156-.222656-.613281-.695313-.492187-1.144532.117187-.445312.523437-.757812.988281-.75l1.917969.023438-.996094-1.640625c-.242187-.394531-.183593-.90625.144531-1.234375.328126-.332031.835938-.394531 1.234376-.160156l1.648437.984375-.042969-1.921875c-.011718-.464844.296875-.875.742188-.996094.449218-.125.921875.074219 1.148437.480469l.9375 1.671875.921875-1.683594c.222656-.40625.695313-.609375 1.144532-.492188.449218.117188.757812.527344.753906.992188l-.027344 1.914062 1.640625-.996093c.398437-.242188.90625-.179688 1.238281.144531.328125.328125.394532.835938.15625 1.234375l-.980468 1.648437 1.917968-.042968c.464844-.011719.875.296875 1 .746094.121094.445312-.078125.917968-.484375 1.144531l-1.671875.9375 1.683594.921875c.40625.222656.609375.695312.492188 1.144531-.117188.449219-.527344.757813-.988282.753906l-1.917968-.027343.996093 1.640624c.242188.398438.179688.90625-.144531 1.238282-.328125.328125-.835938.394531-1.234375.15625l-1.648437-.980469.042968 1.917969c.011719.457031-.285156.859375-.71875.992187zm0 0" fill="url(#a)"/><path d="m6.480469 1.222656.085937 3.746094-3.214844-1.914062 1.945313 3.199218-3.742187-.050781 3.285156 1.800781-3.265625 1.828125 3.746093-.085937-1.917968 3.214844 3.203125-1.945313-.050781 3.742187 1.800781-3.285156 1.824219 3.265625-.082032-3.746093 3.214844 1.917968-1.945312-3.203125 3.742187.050781-3.285156-1.796874 3.265625-1.828126-3.746094.085938 1.914062-3.21875-3.199218 1.945312.050781-3.742187-1.800781 3.289063zm0 0" fill="url(#b)"/><g fill="#ae1010"><use x="4.179688" xlink:href="#c" y="10.315674"/><use x="7.811035" xlink:href="#d" y="10.315674"/></g></svg>