<svg height="16pt" viewBox="0 0 16 16" width="16pt" xmlns="http://www.w3.org/2000/svg" xmlns:xlink="http://www.w3.org/1999/xlink"><linearGradient id="a"><stop offset="0" stop-color="#7c9fcf"/><stop offset=".5" stop-color="#7c9ece"/><stop offset="1" stop-color="#7b9dcf"/></linearGradient><linearGradient id="b" gradientUnits="userSpaceOnUse" x1="8" x2="8" xlink:href="#a" y1="16" y2="0"/><linearGradient id="c"><stop offset="0" stop-color="#fff"/><stop offset=".59375" stop-color="#fff"/><stop offset=".84375" stop-color="#f1f1f1"/><stop offset=".90625" stop-color="#eaeaea"/><stop offset="1" stop-color="#dfdfdf"/></linearGradient><linearGradient id="d" gradientUnits="userSpaceOnUse" x1="6" x2="6" xlink:href="#c" y1="16" y2="0"/><linearGradient id="e" gradientUnits="userSpaceOnUse" x1="5.518158" x2="15.391344" xlink:href="#a" y1="11.979044" y2="11.979044"/><linearGradient id="f" gradientUnits="userSpaceOnUse" x1="12" x2="12" xlink:href="#c" y1="16" y2="0"/><path d="m4.605469.0898438c-1.144531.0039062-2.234375.7460942-2.714844 1.7734372-.25.113281-.484375.246094-.695313.421875-1.0625.890625-1.316406 2.558594-.667968 3.761719-.222656.460937-.339844.964844-.3125 1.472656.082031 1.382813 1.265625 2.585938 2.621094 2.785157.234374.449218.570312.847656.992187 1.125h.003906c1.15625.761718 2.828125.53125 3.792969-.4375.503906.082031 1.023438.046874 1.5-.125 1.300781-.472657 2.113281-1.953126 1.914062-3.308594.363282-.351563.648438-.789063.796876-1.273438.394531-1.328125-.304688-2.863281-1.507813-3.511718-.070313-.503907-.25-.992188-.550781-1.398438v-.003906c-.828125-1.109375-2.476563-1.4609378-3.71875-.886719-.441406-.246094-.941406-.3945312-1.449219-.3945312 0 0 0 0-.003906 0zm1.394531 3.5664062c1.292969 0 2.34375 1.050781 2.34375 2.34375s-1.050781 2.34375-2.34375 2.34375-2.34375-1.050781-2.34375-2.34375 1.050781-2.34375 2.34375-2.34375zm4.027344 3.660156c-.035156.101563-.082032.230469-.105469.296875-.039063.082031-.140625.292969-.175781.375-.226563-.058593.144531-.414062.28125-.671875zm0 0" fill="url(#b)"/><path d="m4.609375 1.058594c-.9375 0-1.75.644531-1.964844 1.554687-.304687.074219-.589843.214844-.828125.414063-.855468.71875-.964844 1.996094-.25 2.851562.039063.042969.078125.085938.121094.128906-.351562.398438-.535156.921876-.503906 1.457032.0625 1.113281 1.019531 1.964844 2.136718 1.902344.058594-.003907.117188-.011719.175782-.019532.109375.523438.421875.980469.867187 1.273438.933594.613281 2.1875.355468 2.800781-.578125.03125-.050781.0625-.101563.089844-.152344.484375.226563 1.039063.25 1.539063.066406 1.050781-.382812 1.59375-1.542969 1.210937-2.589843-.023437-.058594-.042968-.113282-.070312-.164063.46875-.253906.820312-.6875.972656-1.199219.320312-1.066406-.285156-2.195312-1.355469-2.515625-.058593-.015625-.113281-.03125-.171875-.042969.074219-.527343-.058594-1.066406-.378906-1.496093-.667969-.894531-1.933594-1.082031-2.832031-.414063-.046875.035156-.089844.074219-.132813.113282-.378906-.375-.894531-.589844-1.425781-.589844zm1.433594 1.710937c1.789062 0 3.238281 1.449219 3.238281 3.238281 0 1.785157-1.449219 3.234376-3.238281 3.234376-1.785157 0-3.234375-1.449219-3.234375-3.234376 0-1.789062 1.449218-3.238281 3.234375-3.238281zm0 0" fill="url(#d)"/><g fill-rule="evenodd"><path d="m8.152344 7.734375c-.128906-.003906-.253906.011719-.339844.046875-.269531.097656-.335938.207031-.386719.253906-.050781.050782-.070312.058594-.03125.035156l-.417969.261719c-.207031.128907-.335937.351563-.355468.59375-.136719 1.832031-.261719 3.492188-.503906 5.277344-.050782.097656-.167969.316406-.292969.542969-.082031.078125-.167969.179687-.238281.367187-.011719.03125-.019532.0625-.03125.105469-.011719.039062-.039063.050781-.035157.253906 0 .097656-.035156.378906.347657.628906.1875.125.433593.136719.574218.109376.140625-.027344.214844-.074219.265625-.109376.203125-.132812.183594-.164062.207031-.195312.03125-.039062.035157-.054688.054688-.085938.03125.003907.410156-.148437.785156-.21875.410156-.074218.773438-.105468.773438-.109374.375-.03125.667968-.335938.691406-.710938.0625-.898438.082031-1.78125.046875-2.660156.5.542968.976563 1.054687 1.242187 1.449218l-.023437-.039062c.128906.214844.328125.3125.457031.351562.125.039063.207032.039063.269532.039063.132812-.003906.210937-.023437.292968-.042969.164063-.035156.320313-.089844.503906-.160156.363282-.132812.800782-.324219 1.234376-.519531.871093-.386719 1.71875-.800781 1.71875-.800781.300781-.148438.472656-.472657.421874-.804688-.050781-.332031-.3125-.589844-.640624-.640625-2.410157-.367187-3.882813-1.867187-6.21875-3.125-.105469-.058594-.242188-.085937-.371094-.09375zm0 0" fill="url(#e)"/><path d="m7.386719 8.980469c-.140625 1.878906-.269531 3.589843-.527344 5.457031 0 0-.71875 1.398438-.550781.9375.167968-.460938 2.148437-.644531 2.148437-.644531.125-1.898438.105469-3.667969-.382812-5.472657.605469 1.382813 2.292969 2.746094 3.066406 3.878907.128906.210937 3.484375-1.425781 3.484375-1.425781-2.660156-.40625-4.25-2.015626-6.464844-3.210938-.109375-.058594-.210937.125-.355468.21875zm0 0" fill="url(#f)"/></g></svg>