<svg height="16pt" viewBox="0 0 16 16" width="16pt" xmlns="http://www.w3.org/2000/svg" xmlns:xlink="http://www.w3.org/1999/xlink"><linearGradient id="a" gradientUnits="userSpaceOnUse" x1="-.006151" x2="16.006151" y1="7.831828" y2="7.831828"><stop offset="0" stop-color="#7c9fcf"/><stop offset=".5" stop-color="#7c9ece"/><stop offset="1" stop-color="#7b9dcf"/></linearGradient><linearGradient id="b" gradientUnits="userSpaceOnUse" x1="8" x2="8" y1="16" y2="0"><stop offset="0" stop-color="#fff"/><stop offset=".59375" stop-color="#fff"/><stop offset=".84375" stop-color="#f1f1f1"/><stop offset=".90625" stop-color="#eaeaea"/><stop offset="1" stop-color="#dfdfdf"/></linearGradient><g fill-rule="evenodd"><path d="m4.175781.6875c-1.101562-.011719-2.230469.4375-3.03125 1.371094 0 .003906-.003906.007812-.007812.011718-.804688.96875-1.1875002 2.152344-1.14062525 3.363282.05078125 1.1875.48046825 2.390625 1.17187525 3.625.875 1.855468 3.136719 4.339844 6.320312 5.78125l.089844.042968c.269531.125.574219.125.84375 0l.089844-.042968c3.183593-1.441406 5.445312-3.925782 6.320312-5.78125.691407-1.234375 1.121094-2.4375 1.167969-3.625.050781-1.210938-.332031-2.394532-1.136719-3.363282-.003906-.003906-.007812-.007812-.007812-.011718-.800781-.933594-1.929688-1.386719-3.03125-1.371094-1.097657.015625-2.167969.441406-3.097657 1.128906-.019531.015625-.039062.03125-.058593.046875l-.667969.578125-.667969-.578125c-.019531-.015625-.039062-.03125-.058593-.046875-.929688-.6875-2-1.113281-3.097657-1.128906zm0 0" fill="url(#a)"/><path d="m4.164062 1.695312c-.84375-.011718-1.640624.304688-2.25 1.019532-1.316406 1.589844-1.160156 3.582031.164063 5.90625.710937 1.519531 2.890625 3.972656 5.824219 5.300781l.097656.046875.097656-.046875c2.933594-1.328125 5.113282-3.78125 5.824219-5.300781 1.324219-2.324219 1.480469-4.316406.164063-5.90625-1.222657-1.429688-3.1875-1.253906-4.757813-.089844l-1.328125 1.152344-1.328125-1.152344c-.785156-.582031-1.667969-.917969-2.507813-.929688zm0 0" fill="url(#b)"/></g></svg>