<svg height="16pt" viewBox="0 0 16 16" width="16pt" xmlns="http://www.w3.org/2000/svg" xmlns:xlink="http://www.w3.org/1999/xlink"><linearGradient id="a" gradientUnits="userSpaceOnUse" x1=".605234" x2="15.394723" y1="8" y2="8"><stop offset="0" stop-color="#7c9fcf"/><stop offset=".5" stop-color="#7c9ece"/><stop offset="1" stop-color="#7b9dcf"/></linearGradient><linearGradient id="b" gradientUnits="userSpaceOnUse" x1="8" x2="8" y1="16" y2="0"><stop offset="0" stop-color="#fff"/><stop offset=".59375" stop-color="#fff"/><stop offset=".84375" stop-color="#f1f1f1"/><stop offset=".90625" stop-color="#eaeaea"/><stop offset="1" stop-color="#dfdfdf"/></linearGradient><path d="m7.996094 0c-1.503906 0-2.789063.964844-3.292969 2.296875-1.40625-.226563-2.882813.40625-3.632813 1.707031-.75 1.300782-.558593 2.894532.34375 4-.902343 1.105469-1.09375 2.699219-.339843 4 .75 1.300782 2.226562 1.933594 3.636719 1.703125.503906 1.332031 1.789062 2.292969 3.292968 2.292969s2.789063-.964844 3.292969-2.296875c1.40625.226563 2.882813-.40625 3.632813-1.707031.75-1.300782.558593-2.894532-.34375-4 .902343-1.105469 1.09375-2.699219.339843-4-.75-1.300782-2.226562-1.933594-3.636719-1.703125-.503906-1.332031-1.789062-2.292969-3.292968-2.292969zm.003906 6c1.105469 0 2 .894531 2 2s-.894531 2-2 2-2-.894531-2-2 .894531-2 2-2zm0 0" fill="url(#a)"/><path d="m7.996094 1.007812c-1.390625 0-2.519532 1.128907-2.519532 2.523438 0 .035156 0 .074219.003907.109375-.03125-.019531-.0625-.039063-.089844-.058594-1.207031-.695312-2.75-.28125-3.445313.925781-.699218 1.207032-.285156 2.746094.921876 3.445313.03125.015625.066406.035156.097656.050781-.03125.015625-.0625.03125-.09375.050782-1.207032.695312-1.621094 2.238281-.925782 3.445312.699219 1.203125 2.238282 1.617188 3.445313.921875.03125-.019531.066406-.039063.09375-.058594 0 .035157-.003906.070313-.003906.105469 0 1.394531 1.128906 2.523438 2.523437 2.523438 1.390625 0 2.519532-1.128907 2.519532-2.523438 0-.035156 0-.074219-.003907-.109375.03125.019531.0625.039063.09375.058594 1.203125.695312 2.746094.28125 3.441407-.925781.699218-1.207032.285156-2.746094-.921876-3.445313-.03125-.015625-.066406-.035156-.097656-.050781.03125-.015625.0625-.03125.09375-.050782 1.207032-.695312 1.621094-2.238281.925782-3.445312-.699219-1.203125-2.238282-1.617188-3.445313-.921875-.03125.019531-.0625.039063-.09375.058594 0-.035157.003906-.070313.003906-.105469 0-1.394531-1.128906-2.523438-2.523437-2.523438zm.003906 3.992188c1.65625 0 3 1.34375 3 3s-1.34375 3-3 3-3-1.34375-3-3 1.34375-3 3-3zm0 0" fill="url(#b)"/></svg>