<svg height="16pt" viewBox="0 0 16 16" width="16pt" xmlns="http://www.w3.org/2000/svg" xmlns:xlink="http://www.w3.org/1999/xlink"><linearGradient id="a" gradientTransform="matrix(.117462 .0427525 .0427525 -.117462 3.218601 -2.253705)" gradientUnits="userSpaceOnUse" x1="65.3125" x2="64" y1="-127.8125" y2="0"><stop offset="0" stop-color="#7c9fcf"/><stop offset=".5" stop-color="#7c9ece"/><stop offset="1" stop-color="#7b9dcf"/></linearGradient><linearGradient id="b" gradientTransform="matrix(.117462 .0427525 .0427525 -.117462 3.218601 -2.253705)" gradientUnits="userSpaceOnUse" x1="64" x2="64" y1="-128" y2="0"><stop offset="0" stop-color="#fff"/><stop offset=".59375" stop-color="#fff"/><stop offset=".84375" stop-color="#f1f1f1"/><stop offset=".90625" stop-color="#eaeaea"/><stop offset="1" stop-color="#dfdfdf"/></linearGradient><path d="m5.257812 15.449219c-.339843-.136719-.578124-.441407-.628906-.804688-.824218-3.289062-1.089844-3.234375-3.773437-4.484375-.7656252-.257812-.933594-1.265625-.292969-1.757812 2.15625-2.289063 2.082031-2.726563 1.996094-5.507813-.160156-.792969.625-1.441406 1.371094-1.136719 3.050781.964844 3.390624.675782 5.773437-1.023437.605469-.535156 1.558594-.179687 1.667969.621094.410156 3.328125 1.386718 3.820312 3.773437 4.484375.765625.257812.933594 1.265625.292969 1.757812-2.28125 1.921875-1.796875 2.542969-1.996094 5.507813.160156.792969-.625 1.441406-1.371094 1.136719-3.59375-1.167969-4.558593-.101563-5.773437 1.023437-.285156.253906-.683594.324219-1.039063.183594zm0 0" fill="url(#a)"/><path d="m10.371094 1.488281c-2.5 2.71875-3.097656 2.421875-6.824219 1.203125.273437 3.601563-.191406 3.949219-2.371094 6.511719 3.96875.890625 3.949219 1.542969 4.453125 5.308594 3.148438-2.8125 3.460938-2.582031 6.824219-1.203125-.136719-3.710938.132813-4.070313 2.371094-6.511719-3.886719-.984375-3.8125-1.703125-4.453125-5.308594zm0 0" fill="url(#b)"/></svg>