<?xml version="1.0" encoding="UTF-8" standalone="no"?>
<svg
   xmlns:dc="http://purl.org/dc/elements/1.1/"
   xmlns:cc="http://creativecommons.org/ns#"
   xmlns:rdf="http://www.w3.org/1999/02/22-rdf-syntax-ns#"
   xmlns:svg="http://www.w3.org/2000/svg"
   xmlns="http://www.w3.org/2000/svg"
   xmlns:xlink="http://www.w3.org/1999/xlink"
   xmlns:sodipodi="http://sodipodi.sourceforge.net/DTD/sodipodi-0.dtd"
   xmlns:inkscape="http://www.inkscape.org/namespaces/inkscape"
   height="16"
   width="16"
   version="1.1"
   id="svg85"
   sodipodi:docname="sc_selecttable.svg"
   inkscape:version="0.92.4 (unknown)">
  <metadata
     id="metadata91">
    <rdf:RDF>
      <cc:Work
         rdf:about="">
        <dc:format>image/svg+xml</dc:format>
        <dc:type
           rdf:resource="http://purl.org/dc/dcmitype/StillImage" />
        <dc:title></dc:title>
      </cc:Work>
    </rdf:RDF>
  </metadata>
  <defs
     id="defs89">
    <linearGradient
       inkscape:collect="always"
       xlink:href="#f"
       id="linearGradient934"
       gradientUnits="userSpaceOnUse"
       gradientTransform="matrix(1.5000376,0,0,1,11.999997,-13.334003)"
       x1="53.332001"
       y1="101.334"
       x2="53.332001"
       y2="117.3336" />
  </defs>
  <sodipodi:namedview
     pagecolor="#ffffff"
     bordercolor="#666666"
     borderopacity="1"
     objecttolerance="10"
     gridtolerance="10"
     guidetolerance="10"
     inkscape:pageopacity="0"
     inkscape:pageshadow="2"
     inkscape:window-width="1366"
     inkscape:window-height="714"
     id="namedview87"
     showgrid="true"
     inkscape:zoom="14.75"
     inkscape:cx="9.0617653"
     inkscape:cy="13.588373"
     inkscape:window-x="0"
     inkscape:window-y="28"
     inkscape:window-maximized="1"
     inkscape:current-layer="g932">
    <inkscape:grid
       type="xygrid"
       id="grid901" />
  </sodipodi:namedview>
  <linearGradient
     id="a"
     gradientTransform="matrix(1.0769499,0,0,1.3043803,2.256411,-24.351998)"
     gradientUnits="userSpaceOnUse"
     x1="46.048"
     x2="46.048"
     y1="128.01709"
     y2="16.6203">
    <stop
       offset="0"
       stop-color="#f2fdeb"
       id="stop2" />
    <stop
       offset="1"
       stop-color="#c8ffa5"
       id="stop4" />
  </linearGradient>
  <linearGradient
     id="b"
     gradientTransform="matrix(1.07695,0,0,1.3091052,-3.487181,-52.656871)"
     gradientUnits="userSpaceOnUse"
     x1="114.6638"
     x2="114.6638"
     y1="101.334"
     y2="112.0004">
    <stop
       offset="0"
       stop-color="#ddfec8"
       id="stop7" />
    <stop
       offset="1"
       stop-color="#dffecb"
       stop-opacity="0"
       id="stop9" />
  </linearGradient>
  <linearGradient
     id="c"
     gradientTransform="matrix(1.5000376,0,0,1,35.999997,-1.334509)"
     gradientUnits="userSpaceOnUse"
     x1="53.332001"
     x2="53.332001"
     xlink:href="#f"
     y1="101.334"
     y2="117.3336" />
  <linearGradient
     id="d"
     gradientTransform="matrix(1.5000376,0,0,1,11.999997,-13.334003)"
     gradientUnits="userSpaceOnUse"
     x1="53.332001"
     x2="53.332001"
     xlink:href="#f"
     y1="101.334"
     y2="117.3336" />
  <linearGradient
     id="e"
     gradientTransform="matrix(2,0,0,1.2,112,-25.599999)"
     gradientUnits="userSpaceOnUse"
     x1="8"
     x2="8"
     xlink:href="#f"
     y1="88"
     y2="108" />
  <linearGradient
     id="f">
    <stop
       offset="0"
       stop-color="#58a11e"
       stop-opacity=".988235"
       id="stop15" />
    <stop
       offset="1"
       stop-color="#59a220"
       stop-opacity="0"
       id="stop17" />
  </linearGradient>
  <linearGradient
     id="g"
     gradientUnits="userSpaceOnUse"
     x1="117.37973"
     x2="128"
     y1="-47.681248"
     y2="40">
    <stop
       offset="0"
       stop-color="#5ca524"
       id="stop20" />
    <stop
       offset="1"
       stop-color="#58a11e"
       stop-opacity=".986274"
       id="stop22" />
  </linearGradient>
  <filter
     id="h"
     height="1.306617"
     width="1.43589"
     x="-0.21794499"
     y="-0.153309"
     style="color-interpolation-filters:sRGB">
    <feGaussianBlur
       stdDeviation="3.1542391"
       id="feGaussianBlur25" />
  </filter>
  <linearGradient
     id="i"
     gradientUnits="userSpaceOnUse"
     x1="32.81356"
     x2="28.745762"
     y1="44.474575"
     y2="19.254236">
    <stop
       offset="0"
       stop-color="#070707"
       id="stop28" />
    <stop
       offset="1"
       stop-color="#474747"
       id="stop30" />
  </linearGradient>
  <g
     id="g932"
     transform="matrix(0.125,0,0,0.125,0.03125,0.03125)">
    <path
       id="path33"
       d="M 8,80 H 120 V 97.4543 H 8 Z"
       style="opacity:0.764706;fill:url(#b)"
       inkscape:connector-curvature="0" />
    <path
       id="path35"
       d="M 8,0 H 120 V 80 H 8 Z"
       style="fill:url(#a)"
       inkscape:connector-curvature="0" />
    <text
       id="text39"
       y="178.81038"
       x="552.36987">
      <tspan
         id="tspan37"
         y="195.61037"
         x="552.36987"
         style="fill:#555555" />
    </text>
    <path
       id="path41"
       d="m 17.4543,104 h 116 v 4 h -116 z"
       inkscape:connector-curvature="0"
       style="opacity:0.26291103;fill:#ffffff" />
    <path
       id="path43"
       transform="matrix(-2,0,0,1.5000375,232,-70.002993)"
       d="m 112,99.999496 h 4 V 115.9991 h -4 z"
       style="fill:url(#c)"
       inkscape:connector-curvature="0" />
    <path
       id="path45"
       transform="matrix(-2,0,0,1.5000375,264,-52.003297)"
       d="m 88,88 h 4 v 15.9996 h -4 z"
       style="fill:url(#linearGradient934)"
       inkscape:connector-curvature="0" />
    <path
       id="path47"
       d="m 120,80 h 8 v 24 h -8 z"
       style="fill:url(#e)"
       inkscape:connector-curvature="0" />
    <text
       id="text51"
       y="178.81038"
       x="284.18808">
      <tspan
         id="tspan49"
         y="195.61037"
         x="284.18808"
         style="fill:#555555" />
    </text>
    <text
       id="text55"
       y="109.87732"
       x="-10.252362">
      <tspan
         id="tspan53"
         y="126.67731"
         x="-10.252362"
         style="fill:#555555" />
    </text>
    <text
       id="text59"
       y="-63.856026"
       x="161.66467">
      <tspan
         id="tspan57"
         y="-47.056038"
         x="161.66467"
         style="fill:#555555" />
    </text>
    <path
       id="path61"
       transform="matrix(-2,0,0,1.5000375,224,-52.003297)"
       d="m 88,88 h 4 v 15.9996 h -4 z"
       style="fill:url(#d)"
       inkscape:connector-curvature="0" />
    <path
       id="path63"
       d="M 0,0 V 3.9999999 24 28 48 52 78.3125 80 h 8 32 8 32 8 32 8 V 78.3125 0 H 8 Z M 8,3.9999999 H 40 V 24 H 8 Z m 40,0 H 80 V 24 H 48 Z m 40,0 h 32 V 24 H 88 Z M 8,28 H 40 V 48 H 8 Z m 40,0 H 80 V 48 H 48 Z m 40,0 h 32 V 48 H 88 Z M 8,52 H 40 V 78.3125 H 8 Z m 40,0 H 80 V 78.3125 H 48 Z m 40,0 h 32 V 78.3125 H 88 Z"
       style="fill:url(#g)"
       inkscape:connector-curvature="0" />
    <text
       id="text67"
       y="167.74835"
       x="681.37421">
      <tspan
         id="tspan65"
         y="184.54834"
         x="681.37421"
         style="fill:#555555" />
    </text>
    <text
       id="text71"
       y="98.815292"
       x="386.93372">
      <tspan
         id="tspan69"
         y="115.61528"
         x="386.93372"
         style="fill:#555555" />
    </text>
    <text
       id="text75"
       y="245.00107"
       x="916.79553">
      <tspan
         id="tspan73"
         y="261.80106"
         x="916.79553"
         style="fill:#555555" />
    </text>
    <g
       id="g83"
       transform="matrix(1.5,0,0,1.5,36.882635,33.085685)">
      <path
         id="path77"
         d="m 22.708984,3.9453125 c -3.643939,0.037094 -6.935512,3.3597782 -6.935546,7.0039065 v 43.93164 c 4.78e-4,4.147308 4.37543,7.703362 8.435546,6.857422 l 9.992188,-2.080078 2.375,1.714844 c 1.876701,1.356544 5.885119,3.607037 8.047558,2.778906 0.01858,-0.0069 1.255573,-0.463996 2.644531,-1.242187 0.617506,-0.345969 1.597838,-0.928014 2.550781,-1.839844 0.431928,-0.413294 1.210343,-1.264146 1.753907,-2.351563 0.691831,-1.384039 -0.303632,-5.000467 -0.844433,-7.163671 -0.0036,-0.01429 -0.05031,-0.245884 -0.05859,-0.283204 l 6.132812,-4.144531 c 3.40028,-2.297728 3.941244,-7.821553 1.052735,-10.736328 l -0.002,-0.002 L 27.753906,6.0175781 C 26.439423,4.6915816 24.576013,3.9269396 22.708984,3.9453125 Z"
         inkscape:connector-curvature="0"
         style="opacity:0.76000001;filter:url(#h)" />
      <path
         id="path79"
         transform="translate(5.694915,-3.525424)"
         d="M 17.03125,7.3398438 C 14.359874,7.367036 11.949244,9.8030953 11.949219,12.474609 V 56.40625 c 3.51e-4,3.040395 3.205165,5.647504 6.18164,5.027344 l 10.800782,-2.248047 4.670087,5.587096 c 1.376447,0.994944 3.261915,1.239033 4.847657,0.63086 h 0.002 c 0.01282,-0.0048 1.149662,-0.428397 2.396484,-1.126953 0.577508,-0.32356 1.382234,-0.803021 2.171875,-1.558594 0.368036,-0.352159 0.950562,-0.988787 1.375,-1.837891 0.513582,-1.027443 -0.77469,-5.741835 -1.175947,-7.346862 -0.03825,-0.153003 -0.209942,-0.997624 -0.332031,-1.582031 l 7.173828,-4.847656 c 2.493301,-1.684843 2.890644,-5.734647 0.771484,-7.871094 L 20.730469,8.859375 C 19.76682,7.8872856 18.401924,7.3263746 17.033203,7.3398438 h -0.002 z"
         inkscape:connector-curvature="0"
         style="fill:#ffffff" />
      <path
         id="path81"
         d="m 23.737884,11.281217 v 40.419921 l 11.863281,-2.470703 c 0.263538,-0.05442 0.537815,0.0044 0.755859,0.16211 l 6.527477,6.654892 c 0.285679,-0.118453 0.599894,-0.234307 1.154297,-0.544922 0.384975,-0.215689 0.749087,-0.464247 0.9375,-0.644531 0.06051,-0.0579 0.06738,-0.07382 0.08789,-0.101562 -0.320785,-1.338154 -3.156382,-8.467393 -3.156382,-8.467393 -0.07594,-0.378615 0.08265,-0.765836 0.402343,-0.982422 l 9.074219,-6.130859 z"
         style="fill:url(#i)"
         inkscape:connector-curvature="0" />
    </g>
  </g>
</svg>
