<svg height="16pt" viewBox="0 0 16 16" width="16pt" xmlns="http://www.w3.org/2000/svg" xmlns:xlink="http://www.w3.org/1999/xlink"><linearGradient id="a" gradientUnits="userSpaceOnUse" x1=".063721" x2="15.9375" y1="7.642578" y2="7.642578"><stop offset="0" stop-color="#7c9fcf"/><stop offset=".5" stop-color="#7c9ece"/><stop offset="1" stop-color="#7b9dcf"/></linearGradient><linearGradient id="b" gradientUnits="userSpaceOnUse" x1="8" x2="8" y1="16" y2="0"><stop offset="0" stop-color="#fff"/><stop offset=".59375" stop-color="#fff"/><stop offset=".84375" stop-color="#f1f1f1"/><stop offset=".90625" stop-color="#eaeaea"/><stop offset="1" stop-color="#dfdfdf"/></linearGradient><path d="m11.363281.765625c-.421875 0-.824219.117187-1.183593.3125-.339844-.164063-.710938-.261719-1.09375-.261719-.71875 0-1.390626.316406-1.851563.835938-.089844-.007813-.175781-.023438-.265625-.023438-.003906 0-.003906 0-.003906 0-.753906 0-1.464844.289063-2.007813.78125-.074219-.003906-.144531-.027344-.214843-.027344h-.003907c-1.480469 0-2.726562 1.09375-2.929687 2.515626-1 .476562-1.691406 1.476562-1.691406 2.625 0 .351562.085937.691406.210937 1.019531-.167969.371093-.265625.773437-.265625 1.1875 0 1.601562 1.332031 2.890625 2.929688 2.921875.421874 1.042968 1.460937 1.78125 2.652343 1.78125.441407-.003906.871094-.113282 1.261719-.300782.441406.242188.9375.386719 1.453125.386719h.003906c.9375 0 1.808594-.441406 2.363281-1.164062.023438 0 .042969.007812.0625.011719h.003907c1.613281 0 2.972656-1.300782 2.972656-2.910157 0-.023437-.007813-.046875-.011719-.070312 1.242188-.339844 2.183594-1.449219 2.183594-2.789063 0-.8125-.363281-1.554687-.9375-2.09375.070312-.230468.121094-.46875.121094-.714844 0-.9375-.558594-1.75-1.363282-2.152343-.257812-1.074219-1.25-1.871094-2.394531-1.871094zm0 0" fill="url(#a)"/><path d="m11.363281 1.691406c-.445312 0-.871093.191406-1.164062.515625-.289063-.296875-.691407-.464843-1.113281-.464843-.628907 0-1.191407.371093-1.425782.933593-.222656-.078125-.457031-.117187-.695312-.121093-.660156.003906-1.28125.3125-1.664063.832031-.183593-.050781-.371093-.078125-.5625-.078125-1.128906 0-2.042969.886718-2.042969 1.980468 0 .089844.007813.179688.019532.269532-.96875.179687-1.671875 1.003906-1.671875 1.964844 0 .375.109375.746093.316406 1.066406-.238281.332031-.367187.730468-.367187 1.140625 0 1.105469.921874 2.003906 2.066406 2.003906.222656 0 .445312-.039063.65625-.109375v.011719c0 1.03125.863281 1.871093 1.929687 1.871093.476563-.003906.933594-.175781 1.289063-.484374.378906.363281.894531.570312 1.429687.570312.824219 0 1.570313-.484375 1.886719-1.230469.175781.050781.359375.074219.542969.074219 1.128906 0 2.042969-.886719 2.042969-1.980469 0-.316406-.078126-.628906-.226563-.910156.117187.019531.238281.03125.359375.03125 1.128906 0 2.042969-.886719 2.042969-1.980469 0-.78125-.476563-1.492187-1.214844-1.808594.253906-.273437.398437-.632812.398437-1-.003906-.734374-.554687-1.359374-1.300781-1.472656.003907-.042968.003907-.089844.007813-.132812 0-.824219-.691406-1.492188-1.539063-1.492188zm0 0" fill="url(#b)"/><path d="m11.363281.765625c-.421875 0-.824219.117187-1.183593.3125-.339844-.164063-.710938-.261719-1.09375-.261719-.71875 0-1.390626.316406-1.851563.835938-.089844-.007813-.175781-.023438-.265625-.023438-.003906 0-.003906 0-.003906 0-.753906 0-1.464844.289063-2.007813.78125-.074219-.003906-.144531-.027344-.214843-.027344h-.003907c-1.480469 0-2.726562 1.09375-2.929687 2.515626-1 .476562-1.691406 1.476562-1.691406 2.625 0 .351562.085937.691406.210937 1.019531-.167969.371093-.265625.773437-.265625 1.1875 0 1.601562 1.332031 2.890625 2.929688 2.921875.421874 1.042968 1.460937 1.78125 2.652343 1.78125.441407-.003906.871094-.113282 1.261719-.300782.441406.242188.9375.386719 1.453125.386719h.003906c.9375 0 1.808594-.441406 2.363281-1.164062.023438 0 .042969.007812.0625.011719h.003907c1.613281 0 2.972656-1.300782 2.972656-2.910157 0-.023437-.007813-.046875-.011719-.070312 1.242188-.339844 2.183594-1.449219 2.183594-2.789063 0-.8125-.363281-1.554687-.9375-2.09375.070312-.230468.121094-.46875.121094-.714844 0-.9375-.558594-1.75-1.363282-2.152343-.257812-1.074219-1.25-1.871094-2.394531-1.871094zm0 0" fill="url(#a)"/><path d="m11.363281 1.691406c-.445312 0-.871093.191406-1.164062.515625-.289063-.296875-.691407-.464843-1.113281-.464843-.628907 0-1.191407.371093-1.425782.933593-.222656-.078125-.457031-.117187-.695312-.121093-.660156.003906-1.28125.3125-1.664063.832031-.183593-.050781-.371093-.078125-.5625-.078125-1.128906 0-2.042969.886718-2.042969 1.980468 0 .089844.007813.179688.019532.269532-.96875.179687-1.671875 1.003906-1.671875 1.964844 0 .375.109375.746093.316406 1.066406-.238281.332031-.367187.730468-.367187 1.140625 0 1.105469.921874 2.003906 2.066406 2.003906.222656 0 .445312-.039063.65625-.109375v.011719c0 1.03125.863281 1.871093 1.929687 1.871093.476563-.003906.933594-.175781 1.289063-.484374.378906.363281.894531.570312 1.429687.570312.824219 0 1.570313-.484375 1.886719-1.230469.175781.050781.359375.074219.542969.074219 1.128906 0 2.042969-.886719 2.042969-1.980469 0-.316406-.078126-.628906-.226563-.910156.117187.019531.238281.03125.359375.03125 1.128906 0 2.042969-.886719 2.042969-1.980469 0-.78125-.476563-1.492187-1.214844-1.808594.253906-.273437.398437-.632812.398437-1-.003906-.734374-.554687-1.359374-1.300781-1.472656.003907-.042968.003907-.089844.007813-.132812 0-.824219-.691406-1.492188-1.539063-1.492188zm0 0" fill="url(#b)"/></svg>