<svg height="16pt" viewBox="0 0 16 16" width="16pt" xmlns="http://www.w3.org/2000/svg" xmlns:xlink="http://www.w3.org/1999/xlink"><linearGradient id="a"><stop offset="0" stop-color="#7c9fcf"/><stop offset=".5" stop-color="#7c9ece"/><stop offset="1" stop-color="#7b9dcf"/></linearGradient><linearGradient id="b" gradientTransform="matrix(.152299 -.00508203 .00508203 .152299 -1.965297 -.880866)" gradientUnits="userSpaceOnUse" x1="16.871439" x2="109.96104" xlink:href="#a" y1="60.428368" y2="60.428368"/><linearGradient id="c"><stop offset="0" stop-color="#fff"/><stop offset=".59375" stop-color="#fff"/><stop offset=".84375" stop-color="#f1f1f1"/><stop offset=".90625" stop-color="#eaeaea"/><stop offset="1" stop-color="#dfdfdf"/></linearGradient><linearGradient id="d" gradientTransform="matrix(.152299 -.00508203 .00508203 .152299 -1.965297 -.880866)" gradientUnits="userSpaceOnUse" x1="55.106628" x2="58.608353" xlink:href="#c" y1="112.6795" y2="7.739506"/><linearGradient id="e" gradientTransform="matrix(.115063 .0488414 .0488414 -.115063 -2.029635 12.433555)" gradientUnits="userSpaceOnUse" x1="56" x2="64" xlink:href="#a" y1="64" y2="64"/><linearGradient id="f" gradientTransform="matrix(.115063 -.0488414 -.0488414 -.115063 4.222063 18.294522)" gradientUnits="userSpaceOnUse" x1="56" x2="64" xlink:href="#a" y1="64" y2="64"/><linearGradient id="g" gradientTransform="matrix(.0488414 .115063 -.115063 .0488414 12.433556 -2.029636)" gradientUnits="userSpaceOnUse" x1="56" x2="64" xlink:href="#a" y1="64" y2="64"/><linearGradient id="h" gradientTransform="matrix(-.0488414 .115063 -.115063 -.0488414 18.294523 4.222062)" gradientUnits="userSpaceOnUse" x1="56" x2="64" xlink:href="#a" y1="64" y2="64"/><linearGradient id="i" gradientTransform="matrix(.0954408 -.00318475 .00318475 .0954408 1.755043 2.434598)" gradientUnits="userSpaceOnUse" x1="16.871439" x2="109.96104" xlink:href="#a" y1="60.428368" y2="60.428368"/><linearGradient id="j" gradientTransform="matrix(.086787 -.00289598 .00289598 .086787 2.321282 2.939218)" gradientUnits="userSpaceOnUse" x1="55.106628" x2="58.608353" xlink:href="#c" y1="112.6795" y2="7.739506"/><path d="m5.105469.0117188c-.261719 0-.511719.1054692-.695313.2890622l-4.105468 4.097657c-.183594.1875-.289063.4375-.289063.699218l-.0039062 5.796875c0 .261719.1054692.511719.2890622.695313l4.097657 4.105468c.1875.183594.4375.289063.699218.289063h5.796875c.261719 0 .511719-.101563.695313-.285156l4.105468-4.097657c.183594-.1875.289063-.4375.289063-.699218v-5.796875c0-.261719-.101563-.511719-.285156-.695313l-4.097657-4.105468c-.1875-.183594-.4375-.289063-.699218-.289063zm0 0" fill="url(#b)"/><path d="m10.894531 15-5.796875-.003906-4.097656-4.101563.003906-5.796875 4.101563-4.097656 5.796875.003906 4.097656 4.101563-.003906 5.796875zm0 0" fill="url(#d)"/><path d="m4.414062 15.167969.921876.390625 6.25-14.726563-.921876-.390625zm0 0" fill="url(#e)"/><path d="m10.664062 15.558594.921876-.390625-6.25-14.726563-.921876.390625zm0 0" fill="url(#f)"/><path d="m15.167969 4.414062.390625.921876-14.726563 6.25-.390625-.921876zm0 0" fill="url(#g)"/><path d="m15.558594 10.664062-.390625.921876-14.726563-6.25.390625-.921876zm0 0" fill="url(#h)"/><path d="m6.1875 2.996094c-.164062 0-.324219.0625-.4375.179687l-2.570312 2.566407c-.117188.117187-.183594.273437-.183594.4375v3.632812c0 .164062.0625.324219.179687.4375l2.566407 2.570312c.117187.117188.273437.183594.4375.183594h3.632812c.164062 0 .324219-.0625.4375-.179687l2.570312-2.566407c.117188-.117187.183594-.273437.183594-.4375v-3.632812c0-.164062-.0625-.324219-.179687-.4375l-2.566407-2.570312c-.117187-.117188-.273437-.183594-.4375-.183594zm0 0" fill="url(#i)"/><path d="m9.648438 11.988281h-3.300782l-2.335937-2.339843v-3.300782l2.339843-2.335937h3.300782l2.335937 2.339843v3.300782zm0 0" fill="url(#j)"/></svg>