<?xml version="1.0" encoding="UTF-8" standalone="no"?>
<svg
   xmlns:dc="http://purl.org/dc/elements/1.1/"
   xmlns:cc="http://creativecommons.org/ns#"
   xmlns:rdf="http://www.w3.org/1999/02/22-rdf-syntax-ns#"
   xmlns:svg="http://www.w3.org/2000/svg"
   xmlns="http://www.w3.org/2000/svg"
   xmlns:xlink="http://www.w3.org/1999/xlink"
   xmlns:sodipodi="http://sodipodi.sourceforge.net/DTD/sodipodi-0.dtd"
   xmlns:inkscape="http://www.inkscape.org/namespaces/inkscape"
   height="16"
   viewBox="0 0 4.2333333 4.2333335"
   width="16"
   version="1.1"
   id="svg93"
   sodipodi:docname="sc_showdetail.svg"
   inkscape:version="0.92.3 (2405546, 2018-03-11)"
   inkscape:export-filename="/home/rizmut/Dokumen/Rizmut/Github/libreoffice-style-karasa-jaga/build/next/cmd/sc_showdetail.png"
   inkscape:export-xdpi="96"
   inkscape:export-ydpi="96">
  <metadata
     id="metadata99">
    <rdf:RDF>
      <cc:Work
         rdf:about="">
        <dc:format>image/svg+xml</dc:format>
        <dc:type
           rdf:resource="http://purl.org/dc/dcmitype/StillImage" />
        <dc:title></dc:title>
      </cc:Work>
    </rdf:RDF>
  </metadata>
  <defs
     id="defs97">
    <linearGradient
       inkscape:collect="always"
       xlink:href="#f"
       id="linearGradient937"
       gradientUnits="userSpaceOnUse"
       gradientTransform="scale(1.0975951,0.9110828)"
       x1="26.091133"
       y1="14.856744"
       x2="31.500689"
       y2="14.856744" />
    <linearGradient
       inkscape:collect="always"
       xlink:href="#i"
       id="linearGradient939"
       gradientUnits="userSpaceOnUse"
       x1="88.606247"
       y1="13.510336"
       x2="91.575104"
       y2="13.510336"
       spreadMethod="reflect" />
    <linearGradient
       inkscape:collect="always"
       xlink:href="#i"
       id="linearGradient941"
       gradientUnits="userSpaceOnUse"
       x1="88.606247"
       y1="13.510336"
       x2="91.575104"
       y2="13.510336"
       spreadMethod="reflect" />
  </defs>
  <sodipodi:namedview
     pagecolor="#ffffff"
     bordercolor="#666666"
     borderopacity="1"
     objecttolerance="10"
     gridtolerance="10"
     guidetolerance="10"
     inkscape:pageopacity="0"
     inkscape:pageshadow="2"
     inkscape:window-width="1366"
     inkscape:window-height="714"
     id="namedview95"
     showgrid="true"
     inkscape:zoom="14.75"
     inkscape:cx="18.440247"
     inkscape:cy="8.6739746"
     inkscape:window-x="0"
     inkscape:window-y="28"
     inkscape:window-maximized="1"
     inkscape:current-layer="g935">
    <inkscape:grid
       type="xygrid"
       id="grid906" />
  </sodipodi:namedview>
  <radialGradient
     id="a"
     cx="84.903702"
     cy="-130.14005"
     gradientTransform="matrix(0.08147617,0.08147617,-0.08147617,0.08147617,11.283714,291.5947)"
     gradientUnits="userSpaceOnUse"
     r="57.039597"
     xlink:href="#b" />
  <linearGradient
     id="b">
    <stop
       offset="0"
       stop-color="#011701"
       id="stop3" />
    <stop
       offset=".80671918"
       stop-color="#145703"
       id="stop5" />
    <stop
       offset="1"
       stop-color="#2fa207"
       stop-opacity=".384314"
       id="stop7" />
  </linearGradient>
  <radialGradient
     id="c"
     cx="43.084476"
     cy="-121.92532"
     gradientTransform="matrix(0.0802945,0.08264095,-0.09601599,0.09328978,9.561855,292.98489)"
     gradientUnits="userSpaceOnUse"
     r="57.039597"
     xlink:href="#b" />
  <radialGradient
     id="d"
     cx="51.991096"
     cy="-78.028419"
     gradientTransform="matrix(0.07469784,0.08773236,-0.14847119,0.12641263,6.408613,294.77575)"
     gradientUnits="userSpaceOnUse"
     r="57.039597"
     xlink:href="#b" />
  <linearGradient
     id="e"
     gradientTransform="scale(1.0975951,0.9110828)"
     gradientUnits="userSpaceOnUse"
     x1="26.091133"
     x2="31.500689"
     xlink:href="#f"
     y1="14.856744"
     y2="14.856744" />
  <linearGradient
     id="f">
    <stop
       offset="0"
       stop-color="#fff"
       id="stop13" />
    <stop
       offset="1"
       stop-color="#fff"
       stop-opacity="0"
       id="stop15" />
  </linearGradient>
  <filter
     id="g"
     height="1.277481"
     width="1.279832"
     x="-0.139916"
     y="-0.138741">
    <feGaussianBlur
       stdDeviation=".28784801"
       id="feGaussianBlur18" />
  </filter>
  <linearGradient
     id="h"
     gradientUnits="userSpaceOnUse"
     x1="304.88663"
     x2="345.62039"
     y1="385.86127"
     y2="384.62384">
    <stop
       offset="0"
       stop-color="#765c44"
       id="stop21" />
    <stop
       offset="1"
       stop-color="#765c44"
       stop-opacity="0"
       id="stop23" />
  </linearGradient>
  <linearGradient
     id="i"
     gradientUnits="userSpaceOnUse"
     spreadMethod="reflect"
     x1="88.606247"
     x2="91.575104"
     y1="13.510336"
     y2="13.510336">
    <stop
       offset="0"
       stop-color="#c8ff87"
       id="stop26" />
    <stop
       offset="1"
       stop-color="#abff87"
       stop-opacity="0"
       id="stop28" />
  </linearGradient>
  <linearGradient
     id="j"
     gradientUnits="userSpaceOnUse"
     spreadMethod="reflect"
     x1="31.606251"
     x2="34.575108"
     y1="13.510336"
     y2="13.510336">
    <stop
       offset="0"
       stop-color="#fff"
       id="stop31" />
    <stop
       offset="1"
       stop-color="#790000"
       stop-opacity="0"
       id="stop33" />
  </linearGradient>
  <radialGradient
     id="k"
     cx="50.424522"
     cy="-81.945961"
     gradientTransform="matrix(0.08147617,0.08147617,-0.08147617,0.08147617,11.283714,291.5947)"
     gradientUnits="userSpaceOnUse"
     r="50.15279">
    <stop
       offset="0"
       stop-color="#7ae91e"
       stop-opacity=".996078"
       id="stop36" />
    <stop
       offset="1"
       stop-color="#62c916"
       id="stop38" />
  </radialGradient>
  <filter
     id="l"
     height="1.024"
     width="1.024"
     x="-0.012"
     y="-0.012"
     style="color-interpolation-filters:sRGB">
    <feGaussianBlur
       stdDeviation=".28192153"
       id="feGaussianBlur41" />
  </filter>
  <linearGradient
     id="m"
     gradientUnits="userSpaceOnUse"
     x1="21.405157"
     x2="24.815939"
     xlink:href="#f"
     y1="275.90701"
     y2="292.39026" />
  <g
     id="g935"
     transform="matrix(0.125,0,0,0.125,0.0055637,-9.3823243e-8)">
    <g
       id="g55"
       transform="matrix(-1,0,0,1,0,-263.13332)"
       style="fill:#404040;fill-opacity:0.83921599">
      <path
         id="path45"
         d="m -29.633333,267.36661 h 14.816667 v 2.1167 h -14.816667 z"
         inkscape:connector-curvature="0" />
      <path
         id="path47"
         d="m -29.633333,273.71661 h 8.466667 v 2.1167 h -8.466667 z"
         inkscape:connector-curvature="0" />
      <path
         id="path49"
         d="m -29.633333,280.06662 h 14.816667 v 2.1167 h -14.816667 z"
         inkscape:connector-curvature="0" />
      <path
         id="path51"
         d="m -29.633333,286.41663 h 8.466667 v 2.1167 h -8.466667 z"
         inkscape:connector-curvature="0" />
      <path
         id="path53"
         d="m -29.633333,292.76663 h 14.816667 v 2.1167 h -14.816667 z"
         inkscape:connector-curvature="0" />
    </g>
    <g
       id="g91"
       transform="matrix(0.75656863,0,0,0.75656863,-11.409227,-200.67206)">
      <rect
         id="rect57"
         y="279.22833"
         x="20.675667"
         width="5.595439"
         ry="1.514618"
         height="16.786325"
         style="fill:#145603" />
      <rect
         id="rect59"
         y="-31.866549"
         x="284.82376"
         width="5.595439"
         transform="rotate(90)"
         ry="1.081875"
         height="16.786325"
         style="fill:#145603" />
      <path
         id="path61"
         d="m 31.726028,286.21718 c 1.3e-5,-0.43826 -0.355267,-0.79354 -0.79352,-0.79352 h -5.260954 v -5.26118 c 1.3e-5,-0.43826 -0.355267,-0.79354 -0.79352,-0.79352 h -2.809278 c -0.438254,-2e-5 -0.793533,0.35526 -0.79352,0.79352 v 5.26118 h -5.260954 c -0.438256,-2e-5 -0.793533,0.35526 -0.79352,0.79352 v 2.80927 c -1.3e-5,0.43826 0.355264,0.79354 0.79352,0.79352 h 5.260954 v 5.26096 c -1.3e-5,0.43825 0.355265,0.79353 0.79352,0.79352 h 2.809278 c 0.438253,10e-6 0.793533,-0.35527 0.79352,-0.79352 v -5.26096 h 5.260954 c 0.438256,2e-5 0.793533,-0.35526 0.79352,-0.79352 z"
         inkscape:connector-curvature="0"
         style="fill:#1f5623;fill-opacity:0.90588199;stroke-width:0.26458299" />
      <path
         id="path63"
         d="m 31.726028,286.21718 c 1.3e-5,-0.43826 -0.355267,-0.79354 -0.79352,-0.79352 h -5.260954 v -5.26118 c 1.3e-5,-0.43826 -0.355267,-0.79354 -0.79352,-0.79352 h -2.809278 c -0.438254,-2e-5 -0.793533,0.35526 -0.79352,0.79352 v 5.26118 h -5.260954 c -0.438256,-2e-5 -0.793533,0.35526 -0.79352,0.79352 v 2.80927 c -1.3e-5,0.43826 0.355264,0.79354 0.79352,0.79352 h 5.260954 v 5.26096 c -1.3e-5,0.43825 0.355265,0.79353 0.79352,0.79352 h 2.809278 c 0.438253,10e-6 0.793533,-0.35527 0.79352,-0.79352 v -5.26096 h 5.260954 c 0.438256,2e-5 0.793533,-0.35526 0.79352,-0.79352 z"
         style="fill:url(#a);stroke-width:0.26458299"
         inkscape:connector-curvature="0" />
      <path
         id="path65"
         d="m 31.726028,286.21718 c 1.3e-5,-0.43826 -0.355267,-0.79354 -0.79352,-0.79352 h -5.260954 v -5.26118 c 1.3e-5,-0.43826 -0.355267,-0.79354 -0.79352,-0.79352 h -2.809278 c -0.438254,-2e-5 -0.793533,0.35526 -0.79352,0.79352 v 5.26118 h -5.260954 c -0.438256,-2e-5 -0.793533,0.35526 -0.79352,0.79352 v 2.80927 c -1.3e-5,0.43826 0.355264,0.79354 0.79352,0.79352 h 5.260954 v 5.26096 c -1.3e-5,0.43825 0.355265,0.79353 0.79352,0.79352 h 2.809278 c 0.438253,10e-6 0.793533,-0.35527 0.79352,-0.79352 v -5.26096 h 5.260954 c 0.438256,2e-5 0.793533,-0.35526 0.79352,-0.79352 z"
         inkscape:connector-curvature="0"
         style="fill:#066704;stroke-width:0.26458299" />
      <path
         id="path67"
         d="m 31.726028,286.21718 c 1.3e-5,-0.43826 -0.355267,-0.79354 -0.79352,-0.79352 h -5.260954 v -5.26118 c 1.3e-5,-0.43826 -0.355267,-0.79354 -0.79352,-0.79352 h -2.809278 c -0.438254,-2e-5 -0.793533,0.35526 -0.79352,0.79352 v 5.26118 h -5.260954 c -0.438256,-2e-5 -0.793533,0.35526 -0.79352,0.79352 v 2.80927 c -1.3e-5,0.43826 0.355264,0.79354 0.79352,0.79352 h 5.260954 v 5.26096 c -1.3e-5,0.43825 0.355265,0.79353 0.79352,0.79352 h 2.809278 c 0.438253,10e-6 0.793533,-0.35527 0.79352,-0.79352 v -5.26096 h 5.260954 c 0.438256,2e-5 0.793533,-0.35526 0.79352,-0.79352 z"
         style="fill:url(#c);stroke-width:0.26458299"
         inkscape:connector-curvature="0" />
      <path
         id="path69"
         d="m 31.726028,286.21718 c 1.3e-5,-0.43826 -0.355267,-0.79354 -0.79352,-0.79352 h -5.260954 v -5.26118 c 1.3e-5,-0.43826 -0.355267,-0.79354 -0.79352,-0.79352 h -2.809278 c -0.438254,-2e-5 -0.793533,0.35526 -0.79352,0.79352 v 5.26118 h -5.260954 c -0.438256,-2e-5 -0.793533,0.35526 -0.79352,0.79352 v 2.80927 c -1.3e-5,0.43826 0.355264,0.79354 0.79352,0.79352 h 5.260954 v 5.26096 c -1.3e-5,0.43825 0.355265,0.79353 0.79352,0.79352 h 2.809278 c 0.438253,10e-6 0.793533,-0.35527 0.79352,-0.79352 v -5.26096 h 5.260954 c 0.438256,2e-5 0.793533,-0.35526 0.79352,-0.79352 z"
         style="fill:url(#d);stroke-width:0.26458299"
         inkscape:connector-curvature="0" />
      <g
         id="g83"
         style="fill-rule:evenodd">
        <path
           id="path71"
           transform="matrix(-0.17185841,0.17185841,0.1735087,0.1735087,19.276863,278.41654)"
           d="m 31.7,16 2.875,-3.375 c -1.051205,-1.695758 -3.935136,-2.288018 -5.9375,-0.3125 l 2.8125,3.375 z"
           style="opacity:0.498127;fill:url(#linearGradient937);filter:url(#g)"
           inkscape:connector-curvature="0" />
        <path
           id="path73"
           transform="matrix(-0.17135372,-0.17135372,0.16972392,-0.16972392,25.220628,302.67117)"
           d="m 31.7,16 2.875,-3.375 c -1.051205,-1.695758 -3.935136,-2.288018 -5.9375,-0.3125 l 2.8125,3.375 z"
           style="opacity:0.79026196;fill:url(#e);filter:url(#g)"
           inkscape:connector-curvature="0" />
        <path
           id="path75"
           transform="matrix(-0.15562627,0.15562627,-0.15712069,-0.15712069,31.996947,292.15938)"
           d="m 31.7,16 2.875,-3.375 c -1.051205,-1.695758 -3.935136,-2.288018 -5.9375,-0.3125 l 2.8125,3.375 z"
           style="opacity:0.498127;fill:url(#h);filter:url(#g)"
           inkscape:connector-curvature="0" />
        <path
           id="path77"
           transform="matrix(-0.15712069,-0.15712069,0.15562627,-0.15562627,27.864827,305.04903)"
           d="m 88.7,16 2.875,-3.375 c -1.051205,-1.695758 -3.935136,-2.288018 -5.9375,-0.3125 l 2.8125,3.375 z"
           style="opacity:0.79026196;fill:url(#linearGradient939);filter:url(#g)"
           inkscape:connector-curvature="0" />
        <path
           id="path79"
           transform="matrix(-0.14288766,-0.14288766,-0.14152862,0.14152862,37.346459,288.75175)"
           d="m 31.7,16 2.875,-3.375 c -1.051205,-1.695758 -3.935136,-2.288018 -5.9375,-0.3125 l 2.8125,3.375 z"
           style="opacity:0.79026196;fill:url(#j);filter:url(#g)"
           inkscape:connector-curvature="0" />
        <path
           id="path81"
           transform="matrix(-0.14669647,-0.14669647,-0.1453012,0.1453012,39.867335,291.20135)"
           d="m 88.7,16 2.875,-3.375 c -1.051205,-1.695758 -3.935136,-2.288018 -5.9375,-0.3125 l 2.8125,3.375 z"
           style="opacity:0.79026196;fill:url(#linearGradient941);filter:url(#g)"
           inkscape:connector-curvature="0" />
      </g>
      <path
         id="path85"
         d="m 30.932507,286.21718 h -6.054474 v -6.0547 h -2.809277 v 6.0547 h -6.054474 v 2.80927 h 6.054474 v 6.05448 h 2.809277 v -6.05448 h 6.054474 z"
         style="fill:url(#k);stroke-width:0.26458299"
         inkscape:connector-curvature="0" />
      <path
         id="path87"
         transform="matrix(0.26458333,0,0,0.26458333,14.063109,278.21122)"
         d="m 40.875718,7.37492 -10.617965,-5e-6 V 30.259096 L 7.374174,30.258661 v 10.61797 h 22.882977 l 1e-6,22.882971 H 40.875118 V 40.876631 l 22.88298,-1e-5 -10e-6,-10.617956 h -22.88297 z m -0.75422,0.754216 -6.1e-4,22.129359 c -4e-5,0.41656 0.33766,0.754256 0.75422,0.754217 h 22.12876 v 9.109529 h -22.12876 c -0.41656,-4e-5 -0.75426,0.33766 -0.75422,0.75422 v 22.128761 h -9.10953 V 40.876461 c 4e-5,-0.41656 -0.337657,-0.75426 -0.754216,-0.75422 H 8.128382 v -9.109534 l 22.129362,4.36e-4 c 0.416558,3.9e-5 0.754257,-0.337657 0.754216,-0.754216 V 8.128966 Z"
         inkscape:connector-curvature="0"
         style="fill:#eef4ca;fill-opacity:0.77941165;filter:url(#l)" />
      <path
         id="path89"
         d="m 22.06882,280.16252 v 6.05441 h -6.05441 v 1.83245 a 17.312586,10.263149 0 0 0 4.708239,0.39636 17.312586,10.263149 0 0 0 10.209712,-1.99006 v -0.23875 h -6.05441 v -6.05441 z"
         style="fill:url(#m);stroke-width:0.26458299"
         inkscape:connector-curvature="0" />
    </g>
  </g>
</svg>
