<svg height="16pt" viewBox="0 0 16 16" width="16pt" xmlns="http://www.w3.org/2000/svg" xmlns:xlink="http://www.w3.org/1999/xlink"><linearGradient id="a" gradientUnits="userSpaceOnUse" x1=".025879" x2="15.974121" y1="8.001565" y2="8.001565"><stop offset="0" stop-color="#7c9fcf"/><stop offset=".5" stop-color="#7c9ece"/><stop offset="1" stop-color="#7b9dcf"/></linearGradient><linearGradient id="b" gradientUnits="userSpaceOnUse" x1="8" x2="8" y1="16" y2="0"><stop offset="0" stop-color="#fff"/><stop offset=".59375" stop-color="#fff"/><stop offset=".84375" stop-color="#f1f1f1"/><stop offset=".90625" stop-color="#eaeaea"/><stop offset="1" stop-color="#dfdfdf"/></linearGradient><path d="m6.8125.785156c-.015625 0-.03125 0-.046875 0-1.328125.046875-2.347656.203125-3.558594.445313-.25.050781-.46875.199219-.605469.417969-.132812.214843-.175781.480468-.109374.726562.230468.878906.386718 1.921875.503906 2.960938-.304688-.058594-.601563-.117188-.910156-.171876-1.082032-.191406-2.0585942.558594-2.0585942 1.640626v2.378906c0 .550781.2500002.964844.6210942 1.28125.367187.3125.96875.511718 1.550781.328125.269531-.082031.546875-.136719.820312-.207031-.117187 1.054687-.277343 2.085937-.527343 3.035156-.066407.246094-.023438.511718.109374.726562.136719.21875.355469.367188.605469.417969 1.195313.242187 2.230469.398437 3.542969.453125.4375.019531.828125-.273438.9375-.695312.324219-1.273438-.015625-2.546876-.257812-3.464844.074218-.015625.15625-.046875.1875-.046875h.777343c.035157 0 .109375.023437.167969.03125-.40625 1.386719-.203125 2.636719.007812 3.394531.117188.414062.503907.691406.933594.675781 1.390625-.058593 2.101563-.140625 3.390625-.421875.246094-.054687.460938-.207031.59375-.417968.132813-.214844.171875-.476563.109375-.71875-.234375-.914063-.390625-1.898438-.5-2.902344.25.046875.5625.101562.714844.144531.582031.171875 1.167969-.023437 1.539062-.335937.371094-.308594.621094-.726563.621094-1.277344v-2.378906c0-.558594-.246094-.96875-.617187-1.285157-.371094-.320312-.996094-.527343-1.589844-.316406-.144531.050781-.40625.109375-.65625.167969.113281-1.027344.265625-2.050782.488281-2.917969.0625-.246094.023438-.503906-.105468-.71875-.132813-.214844-.347657-.367187-.59375-.421875-1.265626-.273438-1.984376-.46875-3.445313-.523438-.433594-.019531-.824219.269532-.933594.691407-.199219.757812-.417969 2.144531.003907 3.539062-.019532.003907-.050782.015625-.058594.015625h-.78125c-.046875 0-.207032-.046875-.347656-.082031.089843-.390625.1875-.785156.273437-1.285156.121094-.695313.21875-1.40625.109375-2.101563-.074219-.445312-.453125-.777344-.90625-.78125zm0 0" fill="url(#a)"/><path d="m6.800781 1.710938c-1.277343.046874-2.222656.191406-3.410156.429687.339844 1.300781.5625 2.882813.660156 4.339844-.710937-.132813-1.414062-.277344-2.125-.402344-.53125-.09375-.972656.324219-.972656.726563v2.378906c0 .402344.457031.882812.972656.726562.699219-.21875 1.417969-.402344 2.152344-.550781-.085937 1.570313-.320313 3.097656-.6875 4.5 1.171875.234375 2.136719.382813 3.398437.433594.273438-1.070313-.15625-2.523438-.378906-3.480469-.089844-.394531.6875-.730469 1.207032-.730469h.777343c.519531 0 1.4375.261719 1.273438.628907-.625 1.394531-.417969 2.707031-.203125 3.476562 1.371094-.058594 1.972656-.128906 3.234375-.402344-.347657-1.34375-.566407-2.796875-.65625-4.296875.53125.117188 1.476562.257813 2.03125.421875.515625.152344.972656-.324218.972656-.726562v-2.378906c0-.402344-.464844-.90625-.972656-.726563-.558594.195313-1.5.355469-2.023438.484375.09375-1.457031.3125-3.035156.648438-4.34375-1.28125-.277344-1.886719-.449219-3.28125-.503906-.179688.691406-.378907 2.296875.175781 3.539062.164062.367188-.613281.710938-1.128906.710938h-.78125c-.519532 0-1.453125-.320313-1.359375-.710938.203125-.882812.628906-2.582031.476562-3.542968zm0 0" fill="url(#b)"/></svg>