<?xml version="1.0" encoding="UTF-8" standalone="no"?>
<svg
   xmlns:dc="http://purl.org/dc/elements/1.1/"
   xmlns:cc="http://creativecommons.org/ns#"
   xmlns:rdf="http://www.w3.org/1999/02/22-rdf-syntax-ns#"
   xmlns:svg="http://www.w3.org/2000/svg"
   xmlns="http://www.w3.org/2000/svg"
   xmlns:xlink="http://www.w3.org/1999/xlink"
   xmlns:sodipodi="http://sodipodi.sourceforge.net/DTD/sodipodi-0.dtd"
   xmlns:inkscape="http://www.inkscape.org/namespaces/inkscape"
   enable-background="new 0 0 128 128"
   height="16"
   viewBox="0 0 16 16"
   width="16"
   version="1.1"
   id="svg149"
   sodipodi:docname="sc_versiondialog.svg"
   inkscape:version="0.92.4 (unknown)"
   inkscape:export-filename="/home/rizmut/Dokumen/Rizmut/Github/libreoffice-style-karasa-jaga/build/next/cmd/sc_versiondialog.png"
   inkscape:export-xdpi="96"
   inkscape:export-ydpi="96">
  <metadata
     id="metadata155">
    <rdf:RDF>
      <cc:Work
         rdf:about="">
        <dc:format>image/svg+xml</dc:format>
        <dc:type
           rdf:resource="http://purl.org/dc/dcmitype/StillImage" />
        <dc:title></dc:title>
      </cc:Work>
    </rdf:RDF>
  </metadata>
  <defs
     id="defs153">
    <radialGradient
       inkscape:collect="always"
       xlink:href="#h"
       id="radialGradient1041"
       gradientUnits="userSpaceOnUse"
       cx="60.000003"
       cy="66.538"
       fx="60.000003"
       fy="66.538"
       r="17.444813" />
    <radialGradient
       inkscape:collect="always"
       xlink:href="#g"
       id="radialGradient1043"
       gradientUnits="userSpaceOnUse"
       gradientTransform="matrix(0.12234042,0,0,0.12272727,47.420216,52.645367)"
       cx="102"
       cy="112.3047"
       r="139.55859" />
    <linearGradient
       inkscape:collect="always"
       xlink:href="#c"
       id="linearGradient1045"
       gradientUnits="userSpaceOnUse"
       x1="85.219681"
       y1="93.219681"
       x2="61.336319"
       y2="69.336319" />
    <linearGradient
       inkscape:collect="always"
       xlink:href="#d"
       id="linearGradient1047"
       gradientUnits="userSpaceOnUse"
       x1="96"
       y1="104"
       x2="88.000198"
       y2="96.000198" />
    <radialGradient
       inkscape:collect="always"
       xlink:href="#h"
       id="radialGradient1071"
       gradientUnits="userSpaceOnUse"
       cx="60.000003"
       cy="66.538"
       fx="60.000003"
       fy="66.538"
       r="17.444813" />
    <radialGradient
       inkscape:collect="always"
       xlink:href="#g"
       id="radialGradient1073"
       gradientUnits="userSpaceOnUse"
       gradientTransform="matrix(0.12234042,0,0,0.12272727,47.420216,52.645367)"
       cx="102"
       cy="112.3047"
       r="139.55859" />
    <linearGradient
       inkscape:collect="always"
       xlink:href="#c"
       id="linearGradient1075"
       gradientUnits="userSpaceOnUse"
       x1="85.219681"
       y1="93.219681"
       x2="61.336319"
       y2="69.336319" />
    <linearGradient
       inkscape:collect="always"
       xlink:href="#d"
       id="linearGradient1077"
       gradientUnits="userSpaceOnUse"
       x1="96"
       y1="104"
       x2="88.000198"
       y2="96.000198" />
  </defs>
  <sodipodi:namedview
     pagecolor="#ffffff"
     bordercolor="#666666"
     borderopacity="1"
     objecttolerance="10"
     gridtolerance="10"
     guidetolerance="10"
     inkscape:pageopacity="0"
     inkscape:pageshadow="2"
     inkscape:window-width="1366"
     inkscape:window-height="706"
     id="namedview151"
     showgrid="true"
     inkscape:zoom="20.85965"
     inkscape:cx="6.5104997"
     inkscape:cy="5.5168491"
     inkscape:window-x="0"
     inkscape:window-y="0"
     inkscape:window-maximized="1"
     inkscape:current-layer="svg149">
    <inkscape:grid
       type="xygrid"
       id="grid962" />
  </sodipodi:namedview>
  <radialGradient
     id="a"
     cx="102"
     cy="112.3047"
     gradientUnits="userSpaceOnUse"
     r="139.5585"
     xlink:href="#h" />
  <radialGradient
     id="b"
     cx="102"
     cy="112.3047"
     gradientTransform="matrix(0.9787234,0,0,0.9818182,1.361705,1.163636)"
     gradientUnits="userSpaceOnUse"
     r="139.55859"
     xlink:href="#g" />
  <linearGradient
     id="c"
     gradientUnits="userSpaceOnUse"
     x1="85.219681"
     x2="61.336319"
     y1="93.219681"
     y2="69.336319">
    <stop
       offset="0"
       id="stop4" />
    <stop
       offset="1"
       stop-color="#393b38"
       id="stop6" />
  </linearGradient>
  <linearGradient
     id="d"
     gradientUnits="userSpaceOnUse"
     x1="96"
     x2="88.000198"
     y1="104"
     y2="96.000198">
    <stop
       offset="0"
       stop-color="#888a85"
       id="stop9" />
    <stop
       offset=".0072"
       stop-color="#8c8e89"
       id="stop11" />
    <stop
       offset=".0673"
       stop-color="#abaca9"
       id="stop13" />
    <stop
       offset=".1347"
       stop-color="#c5c6c4"
       id="stop15" />
    <stop
       offset=".2115"
       stop-color="#dbdbda"
       id="stop17" />
    <stop
       offset=".3012"
       stop-color="#ebebeb"
       id="stop19" />
    <stop
       offset=".4122"
       stop-color="#f7f7f6"
       id="stop21" />
    <stop
       offset=".5679"
       stop-color="#fdfdfd"
       id="stop23" />
    <stop
       offset="1"
       stop-color="#fff"
       id="stop25" />
  </linearGradient>
  <radialGradient
     id="e"
     cx="60.000003"
     cy="66.538"
     fx="60.000003"
     fy="66.538"
     gradientUnits="userSpaceOnUse"
     r="17.444813"
     xlink:href="#h" />
  <radialGradient
     id="f"
     cx="102"
     cy="112.3047"
     gradientTransform="matrix(.12234042 0 0 .12272727 47.420216 52.645367)"
     gradientUnits="userSpaceOnUse"
     r="139.55859"
     xlink:href="#g" />
  <radialGradient
     id="g"
     cx="102"
     cy="112.3047"
     gradientTransform="matrix(.9787234 0 0 .9818182 1.361705 1.163636)"
     gradientUnits="userSpaceOnUse"
     r="139.55859">
    <stop
       offset="0"
       stop-color="#535557"
       id="stop30" />
    <stop
       offset=".11366145"
       stop-color="#898a8c"
       id="stop32" />
    <stop
       offset=".20296688"
       stop-color="#ececec"
       id="stop34" />
    <stop
       offset=".2363"
       stop-color="#fafafa"
       id="stop36" />
    <stop
       offset=".2722"
       stop-color="#fff"
       id="stop38" />
    <stop
       offset=".5313"
       stop-color="#fafafa"
       id="stop40" />
    <stop
       offset=".8449"
       stop-color="#ebecec"
       id="stop42" />
    <stop
       offset="1"
       stop-color="#e1e2e3"
       id="stop44" />
  </radialGradient>
  <radialGradient
     id="h"
     cx="102"
     cy="112.3047"
     gradientUnits="userSpaceOnUse"
     r="139.5585">
    <stop
       offset="0"
       stop-color="#00537d"
       id="stop47" />
    <stop
       offset=".0151"
       stop-color="#186389"
       id="stop49" />
    <stop
       offset=".0558"
       stop-color="#558ca8"
       id="stop51" />
    <stop
       offset=".0964"
       stop-color="#89afc3"
       id="stop53" />
    <stop
       offset=".1357"
       stop-color="#b3ccd8"
       id="stop55" />
    <stop
       offset=".1737"
       stop-color="#d4e2e9"
       id="stop57" />
    <stop
       offset=".2099"
       stop-color="#ecf2f5"
       id="stop59" />
    <stop
       offset=".2435"
       stop-color="#fafcfd"
       id="stop61" />
    <stop
       offset=".2722"
       stop-color="#fff"
       id="stop63" />
  </radialGradient>
  <filter
     id="i">
    <feGaussianBlur
       stdDeviation="1.0394514"
       id="feGaussianBlur66" />
  </filter>
  <filter
     id="j">
    <feGaussianBlur
       stdDeviation=".50063244"
       id="feGaussianBlur69" />
  </filter>
  <filter
     id="k">
    <feGaussianBlur
       stdDeviation=".4901192"
       id="feGaussianBlur72" />
  </filter>
  <filter
     id="l">
    <feGaussianBlur
       stdDeviation=".90565481"
       id="feGaussianBlur75" />
  </filter>
  <filter
     id="m"
     height="1.247155"
     width="1.247155"
     x="-.123577"
     y="-.123577">
    <feGaussianBlur
       stdDeviation="1.7720846"
       id="feGaussianBlur78" />
  </filter>
  <g
     transform="translate(-50.250003,-55.499912)"
     id="g1069">
    <path
       d="M 37.62365,31.854093 38.40082,121 H 84.172 c 0.53,0 1.039,-0.211 1.414,-0.586 L 118.414,87.586 C 118.789,87.211 119,86.702 119,86.172 l -0.73635,-54.317907 z"
       transform="matrix(0.13020834,0,0,0.12946429,46.005211,52.08472)"
       id="path1049"
       inkscape:connector-curvature="0"
       style="opacity:0.71506898;fill:#656565;filter:url(#i)"
       sodipodi:nodetypes="ccsssccc" />
    <path
       d="M 38.175913,33.189901 38.400816,121 H 84.172 c 0.53,0 1.039,-0.211 1.414,-0.586 13.296921,-8.21061 24.14086,-19.26784 32.828,-32.828 0.375,-0.375 0.586,-0.884 0.586,-1.414 l -0.18409,-52.982099 z"
       transform="matrix(0.13020834,0,0,0.12946429,46.005211,52.08472)"
       id="path1051"
       inkscape:connector-curvature="0"
       style="opacity:0.83561599;fill:#484848;filter:url(#i)"
       sodipodi:nodetypes="ccsccccc" />
    <path
       d="m 40.279997,34.10355 2e-6,84.96552 43.316001,-1e-4 c 0.53,0 1.039,-0.211 1.414,-0.586 l 31.484,-31.765936 c 0.375,-0.375 0.586,-0.884 0.586,-1.414 V 34.10355 Z"
       transform="matrix(0.13020834,0,0,0.12946429,46.005211,52.08472)"
       id="path1053"
       inkscape:connector-curvature="0"
       style="opacity:0.89589;filter:url(#j)"
       sodipodi:nodetypes="cccccscc" />
    <path
       d="m 51.250003,56.499912 v 11 h 5.6465 c 0.06625,0 0.129875,-0.02638 0.17675,-0.07325 l 4.1035,-4.1035 c 0.04687,-0.04687 0.07325,-0.1105 0.07325,-0.17675 v -6.6465 z"
       id="path1055"
       inkscape:connector-curvature="0"
       style="fill:url(#radialGradient1071);stroke-width:0.125"
       sodipodi:nodetypes="ccscsscc" />
    <path
       d="m 52.334843,57.499912 c -0.06741,0 -0.12234,0.0551 -0.12234,0.122727 l 0.0375,8.754545 c 0,0.06775 0.05493,0.122728 0.122341,0.122728 h 4.489127 c 0.03218,0 0.06374,-0.01301 0.08649,-0.03596 l 3.266191,-3.278891 c 0.02288,-0.02295 0.03585,-0.05449 0.03585,-0.08677 v -5.475655 c 0,-0.06762 -0.05481,-0.122727 -0.12234,-0.122727 z"
       id="path1057"
       inkscape:connector-curvature="0"
       style="fill:url(#radialGradient1073);stroke-width:0.125"
       sodipodi:nodetypes="sccssccssss" />
    <g
       transform="matrix(0.125,0,0,0.125,47.250003,52.499912)"
       id="g1067">
      <path
         style="opacity:0.90684904;filter:url(#m)"
         inkscape:connector-curvature="0"
         d="M 111.414,86.586 C 111.664,86.336 85.035,85 80,85 c -1.654,0 -3,1.346 -3,3 0,5.035 1.336,31.664 1.586,31.414 z"
         id="path1059" />
      <path
         style="opacity:0.2;filter:url(#l)"
         inkscape:connector-curvature="0"
         d="M 111.414,86.586 C 111.789,86.211 89.444,86 80,86 c -1.103,0 -2,0.897 -2,2 0,9.444 0.211,31.789 0.586,31.414 z"
         id="path1061" />
      <path
         inkscape:connector-curvature="0"
         style="opacity:0.1;fill:url(#linearGradient1075);filter:url(#k)"
         d="M 111.414,86.586 C 111.653,86.347 89.807,87 80,87 c -0.553,0 -1,0.447 -1,1 0,9.807 -0.653,31.653 -0.414,31.414 z"
         id="path1063" />
      <path
         inkscape:connector-curvature="0"
         style="fill:url(#linearGradient1077)"
         d="m 78.586,119.414 c 0,0 11.914,-9.914 17.414,-15.414 5.5,-5.5 15.414,-17.414 15.414,-17.414 0,0 -21.164,1.414 -31.414,1.414 0,10.25 -1.414,31.414 -1.414,31.414 z"
         id="path1065" />
    </g>
  </g>
  <g
     id="g1039"
     transform="translate(-48.250003,-54.499912)">
    <path
       sodipodi:nodetypes="ccsssccc"
       style="opacity:0.71506898;fill:#656565;filter:url(#i)"
       inkscape:connector-curvature="0"
       id="path1019"
       transform="matrix(0.13020834,0,0,0.12946429,46.005211,52.08472)"
       d="M 37.62365,31.854093 38.40082,121 H 84.172 c 0.53,0 1.039,-0.211 1.414,-0.586 L 118.414,87.586 C 118.789,87.211 119,86.702 119,86.172 l -0.73635,-54.317907 z" />
    <path
       sodipodi:nodetypes="ccsccccc"
       style="opacity:0.83561599;fill:#484848;filter:url(#i)"
       inkscape:connector-curvature="0"
       id="path1021"
       transform="matrix(0.13020834,0,0,0.12946429,46.005211,52.08472)"
       d="M 38.175913,33.189901 38.400816,121 H 84.172 c 0.53,0 1.039,-0.211 1.414,-0.586 13.296921,-8.21061 24.14086,-19.26784 32.828,-32.828 0.375,-0.375 0.586,-0.884 0.586,-1.414 l -0.18409,-52.982099 z" />
    <path
       sodipodi:nodetypes="cccccscc"
       style="opacity:0.89589;filter:url(#j)"
       inkscape:connector-curvature="0"
       id="path1023"
       transform="matrix(0.13020834,0,0,0.12946429,46.005211,52.08472)"
       d="m 40.279997,34.10355 2e-6,84.96552 43.316001,-1e-4 c 0.53,0 1.039,-0.211 1.414,-0.586 l 31.484,-31.765936 c 0.375,-0.375 0.586,-0.884 0.586,-1.414 V 34.10355 Z" />
    <path
       sodipodi:nodetypes="ccscsscc"
       style="fill:url(#radialGradient1041);stroke-width:0.125"
       inkscape:connector-curvature="0"
       id="path1025"
       d="m 51.250003,56.499912 v 11 h 5.6465 c 0.06625,0 0.129875,-0.02638 0.17675,-0.07325 l 4.1035,-4.1035 c 0.04687,-0.04687 0.07325,-0.1105 0.07325,-0.17675 v -6.6465 z" />
    <path
       sodipodi:nodetypes="sccssccssss"
       style="fill:url(#radialGradient1043);stroke-width:0.125"
       inkscape:connector-curvature="0"
       id="path1027"
       d="m 52.334843,57.499912 c -0.06741,0 -0.12234,0.0551 -0.12234,0.122727 l 0.0375,8.754545 c 0,0.06775 0.05493,0.122728 0.122341,0.122728 h 4.489127 c 0.03218,0 0.06374,-0.01301 0.08649,-0.03596 l 3.266191,-3.278891 c 0.02288,-0.02295 0.03585,-0.05449 0.03585,-0.08677 v -5.475655 c 0,-0.06762 -0.05481,-0.122727 -0.12234,-0.122727 z" />
    <g
       id="g1037"
       transform="matrix(0.125,0,0,0.125,47.250003,52.499912)">
      <path
         id="path1029"
         d="M 111.414,86.586 C 111.664,86.336 85.035,85 80,85 c -1.654,0 -3,1.346 -3,3 0,5.035 1.336,31.664 1.586,31.414 z"
         inkscape:connector-curvature="0"
         style="opacity:0.90684904;filter:url(#m)" />
      <path
         id="path1031"
         d="M 111.414,86.586 C 111.789,86.211 89.444,86 80,86 c -1.103,0 -2,0.897 -2,2 0,9.444 0.211,31.789 0.586,31.414 z"
         inkscape:connector-curvature="0"
         style="opacity:0.2;filter:url(#l)" />
      <path
         id="path1033"
         d="M 111.414,86.586 C 111.653,86.347 89.807,87 80,87 c -0.553,0 -1,0.447 -1,1 0,9.807 -0.653,31.653 -0.414,31.414 z"
         style="opacity:0.1;fill:url(#linearGradient1045);filter:url(#k)"
         inkscape:connector-curvature="0" />
      <path
         id="path1035"
         d="m 78.586,119.414 c 0,0 11.914,-9.914 17.414,-15.414 5.5,-5.5 15.414,-17.414 15.414,-17.414 0,0 -21.164,1.414 -31.414,1.414 0,10.25 -1.414,31.414 -1.414,31.414 z"
         style="fill:url(#linearGradient1047)"
         inkscape:connector-curvature="0" />
    </g>
  </g>
  <g
     transform="translate(-46.250003 -52.499912)"
     id="g147">
    <path
       d="M 37.62365,31.854093 38.40082,121 84.172,121 c 0.53,0 1.039,-0.211 1.414,-0.586 L 118.414,87.586 C 118.789,87.211 119,86.702 119,86.172 l -0.73635,-54.317907 z"
       transform="matrix(0.13020834,0,0,0.12946429,46.005211,52.08472)"
       id="path115"
       inkscape:connector-curvature="0"
       style="opacity:0.71506898;fill:#656565;filter:url(#i)"
       sodipodi:nodetypes="ccsssccc" />
    <path
       d="M 38.175913,33.189901 38.400816,121 84.172,121 c 0.53,0 1.039,-0.211 1.414,-0.586 13.296921,-8.21061 24.14086,-19.26784 32.828,-32.828 0.375,-0.375 0.586,-0.884 0.586,-1.414 l -0.18409,-52.982099 z"
       transform="matrix(0.13020834,0,0,0.12946429,46.005211,52.08472)"
       id="path117"
       inkscape:connector-curvature="0"
       style="opacity:0.83561599;fill:#484848;filter:url(#i)"
       sodipodi:nodetypes="ccsccccc" />
    <path
       d="m 40.279997,34.10355 2e-6,84.96552 43.316001,-1e-4 c 0.53,0 1.039,-0.211 1.414,-0.586 l 31.484,-31.765936 c 0.375,-0.375 0.586,-0.884 0.586,-1.414 l 0,-51.199484 z"
       transform="matrix(0.13020834,0,0,0.12946429,46.005211,52.08472)"
       id="path119"
       inkscape:connector-curvature="0"
       style="opacity:0.89589;filter:url(#j)"
       sodipodi:nodetypes="cccccscc" />
    <path
       d="m 51.250003,56.499912 0,11 h 5.6465 c 0.06625,0 0.129875,-0.02638 0.17675,-0.07325 l 4.1035,-4.1035 c 0.04687,-0.04687 0.07325,-0.1105 0.07325,-0.17675 l 0,-6.6465 z"
       id="path121"
       inkscape:connector-curvature="0"
       style="fill:url(#e);stroke-width:0.125"
       sodipodi:nodetypes="ccscsscc" />
    <path
       d="m 52.334843,57.499912 c -0.06741,0 -0.12234,0.0551 -0.12234,0.122727 l 0.0375,8.754545 c 0,0.06775 0.05493,0.122728 0.122341,0.122728 h 4.489127 c 0.03218,0 0.06374,-0.01301 0.08649,-0.03596 l 3.266191,-3.278891 c 0.02288,-0.02295 0.03585,-0.05449 0.03585,-0.08677 l 0,-5.475655 c 0,-0.06762 -0.05481,-0.122727 -0.12234,-0.122727 z"
       id="path123"
       inkscape:connector-curvature="0"
       style="fill:url(#f);stroke-width:0.125"
       sodipodi:nodetypes="sccssccssss" />
    <g
       transform="matrix(.125 0 0 .125 47.250003 52.499912)"
       id="g145">
      <path
         d="m111.414 86.586c.25-.25-26.379-1.586-31.414-1.586-1.654 0-3 1.346-3 3 0 5.035 1.336 31.664 1.586 31.414z"
         filter="url(#m)"
         opacity=".906849"
         id="path137" />
      <path
         d="m111.414 86.586c.375-.375-21.97-.586-31.414-.586-1.103 0-2 .897-2 2 0 9.444.211 31.789.586 31.414z"
         filter="url(#l)"
         opacity=".2"
         id="path139" />
      <path
         d="m111.414 86.586c.239-.239-21.607.414-31.414.414-.553 0-1 .447-1 1 0 9.807-.653 31.653-.414 31.414z"
         fill="url(#c)"
         filter="url(#k)"
         opacity=".1"
         id="path141" />
      <path
         d="m78.586 119.414s11.914-9.914 17.414-15.414 15.414-17.414 15.414-17.414-21.164 1.414-31.414 1.414c0 10.25-1.414 31.414-1.414 31.414z"
         fill="url(#d)"
         id="path143" />
    </g>
  </g>
</svg>
