<?xml version="1.0" encoding="UTF-8" standalone="no"?>
<svg
   xmlns:dc="http://purl.org/dc/elements/1.1/"
   xmlns:cc="http://creativecommons.org/ns#"
   xmlns:rdf="http://www.w3.org/1999/02/22-rdf-syntax-ns#"
   xmlns:svg="http://www.w3.org/2000/svg"
   xmlns="http://www.w3.org/2000/svg"
   xmlns:sodipodi="http://sodipodi.sourceforge.net/DTD/sodipodi-0.dtd"
   xmlns:inkscape="http://www.inkscape.org/namespaces/inkscape"
   height="32"
   viewBox="0 0 8.4666665 8.466667"
   width="32"
   version="1.1"
   id="svg18"
   sodipodi:docname="italic.svg"
   inkscape:version="0.92.4 (unknown)"
   inkscape:export-filename="/home/rizmut/Dokumen/Rizmut/Github/libreoffice-style-karasa-jaga/build/next/cmd/32/ca/italic.png"
   inkscape:export-xdpi="96"
   inkscape:export-ydpi="96">
  <metadata
     id="metadata24">
    <rdf:RDF>
      <cc:Work
         rdf:about="">
        <dc:format>image/svg+xml</dc:format>
        <dc:type
           rdf:resource="http://purl.org/dc/dcmitype/StillImage" />
        <dc:title></dc:title>
      </cc:Work>
    </rdf:RDF>
  </metadata>
  <defs
     id="defs22" />
  <sodipodi:namedview
     pagecolor="#ffffff"
     bordercolor="#666666"
     borderopacity="1"
     objecttolerance="10"
     gridtolerance="10"
     guidetolerance="10"
     inkscape:pageopacity="0"
     inkscape:pageshadow="2"
     inkscape:window-width="1366"
     inkscape:window-height="714"
     id="namedview20"
     showgrid="true"
     inkscape:zoom="10.429825"
     inkscape:cx="19.756412"
     inkscape:cy="11.20001"
     inkscape:window-x="0"
     inkscape:window-y="28"
     inkscape:window-maximized="1"
     inkscape:current-layer="g34">
    <inkscape:grid
       type="xygrid"
       id="grid26" />
  </sodipodi:namedview>
  <linearGradient
     id="a"
     gradientUnits="userSpaceOnUse"
     x1="5.6766558"
     x2="27.453106"
     y1="12.6137"
     y2="12.6137">
    <stop
       offset="0"
       stop-color="#3b3e22"
       id="stop2" />
    <stop
       offset="1"
       stop-color="#454545"
       stop-opacity="0"
       id="stop4" />
  </linearGradient>
  <linearGradient
     id="b"
     gradientUnits="userSpaceOnUse"
     x1="15.800915"
     x2="16.859247"
     y1="29.337021"
     y2="4.9953499">
    <stop
       offset="0"
       stop-color="#555"
       id="stop7" />
    <stop
       offset="1"
       id="stop9" />
  </linearGradient>
  <g
     id="g34"
     transform="scale(0.25)">
    <g
       aria-label="C"
       style="font-size:35.19966888px;font-family:sans-serif;letter-spacing:0;word-spacing:0;fill:url(#b);stroke-width:0.87999201"
       id="text14">
      <path
         d="m 20.137438,4.450292 q 1.407583,0 3.444875,0.4445 2.074333,0.4445 2.407708,0.4445 1.000125,0 1.407584,-0.8149167 h 0.777875 l -1.370542,7.3712917 -0.66675,-0.111125 q -0.555625,-6.00075 -5.667375,-6.00075 -3.77825,0 -6.556375,2.8522084 -2.185459,2.2595416 -3.444875,5.4451256 -1.2223755,3.148541 -1.2223755,6.44525 0,3.593042 1.7039165,5.593292 1.703917,2.00025 4.778375,2.00025 2.259542,0 4.111626,-0.963084 1.889125,-0.963083 4.407958,-3.407833 l 0.629708,0.518583 q -2.518833,2.926292 -4.8895,4.22275 -2.370667,1.296459 -5.222875,1.296459 -4.259792,0 -6.9638336,-2.704042 -2.7040417,-2.704042 -2.7040417,-6.963834 0,-4.037541 2.0743334,-7.667625 Q 9.2842292,8.8212088 12.766146,6.6357504 16.285104,4.450292 20.137438,4.450292 Z"
         style="font-style:italic;font-size:37.04166794px;font-family:FreeSerif;fill:url(#b);stroke-width:0.87999201"
         id="path36" />
    </g>
    <path
       id="path16"
       transform="scale(0.26458334)"
       d="m 76.107422,18.994141 c -9.295669,0 -18.150023,2.616343 -26.714844,7.935547 C 40.922914,32.2488 34.154219,39.288161 29.003906,48.136719 24.128252,56.669117 21.626868,65.586126 21.455078,75.001953 A 84.565177,43.91253 0 0 0 32.8125,76.353516 c 0.14504,-8.147189 1.711618,-16.139064 4.732422,-23.919922 a 2.17338,2.17338 0 0 1 0,-0.0078 C 40.811761,44.1626 45.30708,37.03904 51.023438,31.128906 a 2.17338,2.17338 0 0 1 0.0078,0 C 58.374554,23.589783 67.301549,19.6875 77.369141,19.6875 c 6.86544,0 12.5774,2.09237 16.595703,6.347656 3.186587,3.374519 4.968992,8.282315 6.052736,13.958985 l 3.74219,-20.078125 c -1.48689,1.420114 -3.3266,2.435546 -5.529301,2.435546 -0.905571,0 -1.74672,-0.16979 -3.298828,-0.457031 -1.552112,-0.28724 -3.635118,-0.707106 -6.259766,-1.269531 a 2.17338,2.17338 0 0 1 -0.0078,0 c -5.03026,-1.097512 -9.236968,-1.630859 -12.55664,-1.630859 z"
       inkscape:connector-curvature="0"
       style="fill:url(#a)" />
  </g>
</svg>
