<?xml version="1.0" encoding="UTF-8" standalone="no"?>
<svg
   xmlns:dc="http://purl.org/dc/elements/1.1/"
   xmlns:cc="http://creativecommons.org/ns#"
   xmlns:rdf="http://www.w3.org/1999/02/22-rdf-syntax-ns#"
   xmlns:svg="http://www.w3.org/2000/svg"
   xmlns="http://www.w3.org/2000/svg"
   xmlns:xlink="http://www.w3.org/1999/xlink"
   xmlns:sodipodi="http://sodipodi.sourceforge.net/DTD/sodipodi-0.dtd"
   xmlns:inkscape="http://www.inkscape.org/namespaces/inkscape"
   height="32"
   viewBox="0 0 8.4666665 8.466667"
   width="32"
   version="1.1"
   id="svg24"
   sodipodi:docname="underlinedouble.svg"
   inkscape:version="0.92.4 (unknown)">
  <metadata
     id="metadata30">
    <rdf:RDF>
      <cc:Work
         rdf:about="">
        <dc:format>image/svg+xml</dc:format>
        <dc:type
           rdf:resource="http://purl.org/dc/dcmitype/StillImage" />
        <dc:title></dc:title>
      </cc:Work>
    </rdf:RDF>
  </metadata>
  <defs
     id="defs28">
    <linearGradient
       inkscape:collect="always"
       xlink:href="#b"
       id="linearGradient48"
       gradientUnits="userSpaceOnUse"
       x1="18.56151"
       y1="26.413498"
       x2="19.553576"
       y2="3.596029" />
    <linearGradient
       inkscape:collect="always"
       xlink:href="#b"
       id="linearGradient50"
       gradientUnits="userSpaceOnUse"
       x1="18.56151"
       y1="26.413498"
       x2="19.553576"
       y2="3.596029" />
  </defs>
  <sodipodi:namedview
     pagecolor="#ffffff"
     bordercolor="#666666"
     borderopacity="1"
     objecttolerance="10"
     gridtolerance="10"
     guidetolerance="10"
     inkscape:pageopacity="0"
     inkscape:pageshadow="2"
     inkscape:window-width="1366"
     inkscape:window-height="714"
     id="namedview26"
     showgrid="true"
     inkscape:zoom="7.375"
     inkscape:cx="21.817849"
     inkscape:cy="18.078088"
     inkscape:window-x="0"
     inkscape:window-y="28"
     inkscape:window-maximized="1"
     inkscape:current-layer="g46">
    <inkscape:grid
       type="xygrid"
       id="grid35" />
  </sodipodi:namedview>
  <linearGradient
     id="a"
     gradientTransform="matrix(0.26458334,0,0,0.23248595,0,-1.083571)"
     gradientUnits="userSpaceOnUse"
     x1="38.171875"
     x2="90.634766"
     y1="45.612305"
     y2="45.612305">
    <stop
       offset="0"
       stop-color="#3b3e22"
       id="stop2" />
    <stop
       offset="1"
       stop-color="#454545"
       stop-opacity="0"
       id="stop4" />
  </linearGradient>
  <linearGradient
     id="b"
     gradientUnits="userSpaceOnUse"
     x1="18.56151"
     x2="19.553576"
     y1="26.413498"
     y2="3.596029">
    <stop
       offset="0"
       stop-color="#555"
       id="stop7" />
    <stop
       offset="1"
       id="stop9" />
  </linearGradient>
  <g
     id="g46"
     transform="matrix(0.25,0,0,0.25,-2.1264649e-7,-2.2988091e-6)">
    <g
       id="text14"
       style="font-size:32.99557495px;font-family:sans-serif;letter-spacing:0;word-spacing:0;fill:url(#linearGradient50);stroke-width:0.82489002"
       transform="scale(1.0667997,0.93738307)"
       aria-label="S">
      <path
         id="path32"
         style="font-size:34.72223282px;font-family:FreeSerif;fill:url(#linearGradient48);stroke-width:0.82489002"
         d="m 20.161216,21.522624 q 0,-1.631945 -1.145834,-2.881946 -1.145833,-1.284722 -2.777778,-2.1875 -1.631945,-0.902779 -3.26389,-1.840279 -1.597223,-0.972222 -2.743057,-2.465278 -1.1458333,-1.493056 -1.1458333,-3.4722236 0,-2.6388897 1.7708343,-4.2708346 1.805556,-1.6666672 4.236112,-1.6666672 1.458334,0 3.159723,0.5902779 1.70139,0.590278 2.048612,0.590278 0.902778,0 1.111111,-1.1805559 h 0.729167 l 0.763889,7.3958354 H 22.036217 Q 21.202883,7.0781747 19.466771,5.6198409 17.765382,4.1615071 15.682048,4.1615071 q -1.597223,0 -2.604168,0.9027781 -1.006944,0.902778 -1.006944,2.3263896 0,1.3888893 1.180556,2.6388892 1.180556,1.250001 3.923612,2.777779 3.437501,1.840278 4.965279,3.645835 1.527778,1.770833 1.527778,3.923612 0,2.673612 -2.048611,4.51389 -2.048612,1.805556 -5.034724,1.805556 -1.736112,0 -3.541668,-0.590278 -1.770834,-0.590278 -2.1875,-0.590278 -0.381945,0 -0.659723,0.347223 -0.2777777,0.3125 -0.3124999,0.798611 H 9.1195459 L 8.077879,19.300401 h 0.7986113 q 1.2847227,3.159723 2.9861117,4.652779 1.70139,1.493056 4.027779,1.493056 1.909723,0 3.090279,-1.076389 1.180556,-1.111112 1.180556,-2.847223 z"
         inkscape:connector-curvature="0" />
    </g>
    <path
       id="path16"
       d="m 16.099793,2.9254493 c -1.635486,0 -3.025124,0.4786523 -4.242119,1.4657511 a 0.40791345,0.35842825 0 0 1 0,0.00136 c -1.178773,0.9545353 -1.758032,2.1707634 -1.758032,3.7397542 0,1.1676149 0.376404,2.1634504 1.138432,3.0359384 0.782996,0.896497 1.715647,1.634993 2.804997,2.219061 0.0025,0.0013 0.0052,0.0023 0.0078,0.0036 7.87e-4,4.22e-4 0.0013,9.34e-4 0.0021,0.0013 1.155358,0.583134 2.310967,1.15474 3.466456,1.716401 0.620091,0.301416 1.193609,0.637493 1.720825,1.007135 a 23.462712,8.8896317 0 0 0 4.180623,-0.338284 c -0.03775,-0.04025 -0.07078,-0.08122 -0.11007,-0.121239 a 0.40791345,0.35842825 0 0 1 -0.0021,-0.0019 C 22.275438,14.581566 20.54716,13.459068 18.129126,12.321604 a 0.40791345,0.35842825 0 0 1 -0.0062,-0.0036 c -1.97041,-0.964308 -3.391982,-1.841483 -4.282942,-2.6704097 -0.89148,-0.8294096 -1.370976,-1.7503268 -1.370976,-2.7199032 0,-0.9741478 0.415506,-1.8191369 1.210779,-2.4456431 0.795837,-0.6269511 1.837247,-0.9403875 3.050459,-0.9403875 1.57561,0 3.027405,0.4950428 4.298963,1.451675 1.249938,0.9225764 2.143089,2.3368171 2.752287,4.146604 H 23.98045 L 23.251811,2.9254493 h -0.15813 c -0.09161,0.2627038 -0.170098,0.5370506 -0.363285,0.717437 -0.273146,0.2550473 -0.664356,0.3895955 -1.074353,0.3895955 -0.23967,0 -0.469448,-0.057577 -0.845426,-0.1530228 C 20.434639,3.7840134 19.946804,3.6432678 19.337838,3.4576241 18.162075,3.0991921 17.08214,2.9254493 16.099793,2.9254493 Z"
       style="fill:url(#a)"
       inkscape:connector-curvature="0" />
    <g
       id="g22"
       style="fill:#0e0e0e">
      <rect
         id="rect18"
         y="27.516672"
         x="3.175"
         width="27.516666"
         ry="0.92470002"
         rx="0.47207499"
         height="2.1166739" />
      <rect
         id="rect20"
         y="31.750011"
         x="3.175"
         width="27.516666"
         ry="0.92470002"
         rx="0.47207499"
         height="2.1166739" />
    </g>
  </g>
</svg>
