<?xml version="1.0" encoding="UTF-8" standalone="no"?>
<svg
   xmlns:dc="http://purl.org/dc/elements/1.1/"
   xmlns:cc="http://creativecommons.org/ns#"
   xmlns:rdf="http://www.w3.org/1999/02/22-rdf-syntax-ns#"
   xmlns:svg="http://www.w3.org/2000/svg"
   xmlns="http://www.w3.org/2000/svg"
   xmlns:xlink="http://www.w3.org/1999/xlink"
   xmlns:sodipodi="http://sodipodi.sourceforge.net/DTD/sodipodi-0.dtd"
   xmlns:inkscape="http://www.inkscape.org/namespaces/inkscape"
   height="32"
   viewBox="0 0 8.4666665 8.466667"
   width="32"
   version="1.1"
   id="svg20"
   sodipodi:docname="underline.svg"
   inkscape:version="0.92.4 (unknown)"
   inkscape:export-filename="/home/rizmut/Dokumen/Rizmut/Github/libreoffice-style-karasa-jaga/src/next/cmd/32/ca/underline.png"
   inkscape:export-xdpi="96"
   inkscape:export-ydpi="96">
  <metadata
     id="metadata26">
    <rdf:RDF>
      <cc:Work
         rdf:about="">
        <dc:format>image/svg+xml</dc:format>
        <dc:type
           rdf:resource="http://purl.org/dc/dcmitype/StillImage" />
        <dc:title></dc:title>
      </cc:Work>
    </rdf:RDF>
  </metadata>
  <defs
     id="defs24">
    <linearGradient
       inkscape:collect="always"
       xlink:href="#b"
       id="linearGradient42"
       gradientUnits="userSpaceOnUse"
       x1="19.202757"
       y1="27.139996"
       x2="20.229094"
       y2="3.5342481" />
    <linearGradient
       inkscape:collect="always"
       xlink:href="#b"
       id="linearGradient44"
       gradientUnits="userSpaceOnUse"
       x1="19.202757"
       y1="27.139996"
       x2="20.229094"
       y2="3.5342481" />
  </defs>
  <sodipodi:namedview
     pagecolor="#ffffff"
     bordercolor="#666666"
     borderopacity="1"
     objecttolerance="10"
     gridtolerance="10"
     guidetolerance="10"
     inkscape:pageopacity="0"
     inkscape:pageshadow="2"
     inkscape:window-width="1366"
     inkscape:window-height="714"
     id="namedview22"
     showgrid="true"
     inkscape:zoom="7.375"
     inkscape:cx="20.404099"
     inkscape:cy="13.135608"
     inkscape:window-x="0"
     inkscape:window-y="28"
     inkscape:window-maximized="1"
     inkscape:current-layer="svg20">
    <inkscape:grid
       type="xygrid"
       id="grid31" />
  </sodipodi:namedview>
  <linearGradient
     id="a"
     gradientTransform="matrix(0.26458334,0,0,0.24882685,0,-1.340123)"
     gradientUnits="userSpaceOnUse"
     x1="38.171875"
     x2="90.634766"
     y1="45.612305"
     y2="45.612305">
    <stop
       offset="0"
       stop-color="#3b3e22"
       id="stop2" />
    <stop
       offset="1"
       stop-color="#454545"
       stop-opacity="0"
       id="stop4" />
  </linearGradient>
  <linearGradient
     id="b"
     gradientUnits="userSpaceOnUse"
     x1="19.202757"
     x2="20.229094"
     y1="27.139996"
     y2="3.5342481">
    <stop
       offset="0"
       stop-color="#555"
       id="stop7" />
    <stop
       offset="1"
       id="stop9" />
  </linearGradient>
  <g
     id="g40"
     transform="scale(0.25)">
    <g
       id="text14"
       style="font-size:34.13547516px;font-family:sans-serif;letter-spacing:0;word-spacing:0;fill:url(#linearGradient44);stroke-width:0.853387"
       transform="scale(1.0311756,0.96976693)"
       aria-label="S">
      <path
         id="path28"
         style="font-size:35.92178345px;font-family:FreeSerif;fill:url(#linearGradient42);stroke-width:0.853387"
         d="m 20.857727,22.080153 q 0,-1.688324 -1.185419,-2.981508 -1.185419,-1.329106 -2.873742,-2.263072 -1.688324,-0.933966 -3.376648,-1.903855 -1.652402,-1.00581 -2.837821,-2.550446 -1.1854187,-1.544637 -1.1854187,-3.5921786 0,-2.7300555 1.8320107,-4.4183794 1.867933,-1.7242456 4.382458,-1.7242456 1.508715,0 3.268882,0.6106703 1.760168,0.6106704 2.119385,0.6106704 0.933967,0 1.149497,-1.2213407 h 0.754358 l 0.790279,7.6513396 H 22.797504 Q 21.935381,7.1366914 20.139292,5.6279765 18.379124,4.1192616 16.223817,4.1192616 q -1.652402,0 -2.694134,0.9339663 -1.041731,0.9339664 -1.041731,2.4067595 0,1.4368713 1.22134,2.7300556 1.221341,1.293184 4.059162,2.873743 3.556256,1.903854 5.136815,3.771787 1.580558,1.832011 1.580558,4.059161 0,2.765978 -2.119385,4.669832 -2.119385,1.867933 -5.208658,1.867933 -1.79609,0 -3.664022,-0.61067 -1.832011,-0.610671 -2.263073,-0.610671 -0.395139,0 -0.682514,0.359218 -0.287374,0.323296 -0.323296,0.826201 H 9.4346001 L 8.3569466,19.781159 h 0.826201 q 1.3291064,3.268882 3.0892734,4.813519 1.760167,1.544637 4.166927,1.544637 1.975698,0 3.197039,-1.113575 1.22134,-1.149498 1.22134,-2.945587 z"
         inkscape:connector-curvature="0" />
    </g>
    <path
       id="path16"
       d="m 16.099793,2.950682 c -1.635486,0 -3.025124,0.5122957 -4.242119,1.5687754 a 0.40791345,0.38362135 0 0 1 0,0.00146 c -1.178773,1.0216273 -1.758032,2.3233413 -1.758032,4.0026129 0,1.2496838 0.376404,2.3155137 1.138432,3.2493277 0.782996,0.959509 1.715647,1.749913 2.804997,2.375033 0.0025,0.0014 0.0052,0.0025 0.0078,0.0039 7.87e-4,4.52e-4 0.0013,0.001 0.0021,0.0014 1.155358,0.624122 2.310967,1.235904 3.466456,1.837043 0.620091,0.322602 1.193609,0.682301 1.720825,1.077925 a 23.462712,9.5144634 0 0 0 4.180623,-0.362062 c -0.03775,-0.04308 -0.07078,-0.08693 -0.11007,-0.12976 a 0.40791345,0.38362135 0 0 1 -0.0021,-0.002 C 22.275438,15.42608 20.54716,14.224684 18.129126,13.007271 a 0.40791345,0.38362135 0 0 1 -0.0062,-0.0039 c -1.97041,-1.032087 -3.391982,-1.970917 -4.282942,-2.858107 -0.89148,-0.8877069 -1.370976,-1.8733532 -1.370976,-2.9110789 0,-1.0426184 0.415506,-1.9469999 1.210779,-2.6175417 0.795837,-0.6710181 1.837247,-1.0064852 3.050459,-1.0064852 1.57561,0 3.027405,0.5298382 4.298963,1.5537099 1.249938,0.9874221 2.143089,2.5010666 2.752287,4.4380592 H 23.98045 L 23.251811,2.950682 h -0.15813 c -0.09161,0.2811686 -0.170098,0.5747987 -0.363285,0.767864 -0.273146,0.272974 -0.664356,0.4169793 -1.074353,0.4169793 -0.23967,0 -0.469448,-0.061624 -0.845426,-0.1637785 C 20.434639,3.8695926 19.946804,3.7189543 19.337838,3.5202621 18.162075,3.1366368 17.08214,2.950682 16.099793,2.950682 Z"
       style="fill:url(#a)"
       inkscape:connector-curvature="0" />
    <rect
       id="rect18"
       y="28.574993"
       x="3.175"
       width="27.516666"
       ry="0.92470002"
       rx="0.47207499"
       height="2.1166739"
       style="fill:#0e0e0e" />
  </g>
</svg>
