<?xml version="1.0" encoding="UTF-8" standalone="no"?>
<!-- Created with Inkscape (http://www.inkscape.org/) -->

<svg
   xmlns:dc="http://purl.org/dc/elements/1.1/"
   xmlns:cc="http://creativecommons.org/ns#"
   xmlns:rdf="http://www.w3.org/1999/02/22-rdf-syntax-ns#"
   xmlns:svg="http://www.w3.org/2000/svg"
   xmlns="http://www.w3.org/2000/svg"
   xmlns:sodipodi="http://sodipodi.sourceforge.net/DTD/sodipodi-0.dtd"
   xmlns:inkscape="http://www.inkscape.org/namespaces/inkscape"
   version="1.1"
   id="svg2"
   width="24"
   height="24"
   viewBox="0 0 24 24"
   sodipodi:docname="al21825.svg"
   inkscape:version="0.92.3 (2405546, 2018-03-11)"
   inkscape:export-filename="/home/rizmut/Dokumen/Rizmut/Github/libreoffice-style-karasa-jaga/build/next/starmath/res/al21825.png"
   inkscape:export-xdpi="96"
   inkscape:export-ydpi="96">
  <metadata
     id="metadata8">
    <rdf:RDF>
      <cc:Work
         rdf:about="">
        <dc:format>image/svg+xml</dc:format>
        <dc:type
           rdf:resource="http://purl.org/dc/dcmitype/StillImage" />
        <dc:title></dc:title>
      </cc:Work>
    </rdf:RDF>
  </metadata>
  <defs
     id="defs6" />
  <sodipodi:namedview
     pagecolor="#ffffff"
     bordercolor="#666666"
     borderopacity="1"
     objecttolerance="10"
     gridtolerance="10"
     guidetolerance="10"
     inkscape:pageopacity="0"
     inkscape:pageshadow="2"
     inkscape:window-width="1366"
     inkscape:window-height="714"
     id="namedview4"
     showgrid="true"
     inkscape:zoom="26.074563"
     inkscape:cx="14.611476"
     inkscape:cy="11.593293"
     inkscape:window-x="0"
     inkscape:window-y="28"
     inkscape:window-maximized="1"
     inkscape:current-layer="svg2"
     inkscape:snap-global="true">
    <inkscape:grid
       type="xygrid"
       id="grid823" />
  </sodipodi:namedview>
  <path
     inkscape:connector-curvature="0"
     id="path1488"
     style="font-style:normal;font-variant:normal;font-weight:normal;font-stretch:normal;font-size:14.1085825px;line-height:1.25;font-family:FreeSerif;-inkscape-font-specification:FreeSerif;letter-spacing:0px;word-spacing:0px;fill:#000000;fill-opacity:1;stroke:none;stroke-width:0.32379219"
     d="m 2.0000021,11.314178 c 0.018583,-0.817654 0.153309,-1.4076652 0.40418,-1.7700352 0.250871,-0.353077 0.766551,-0.529616 1.547039,-0.529616 H 10.41812 c 0.483159,0 0.831591,-1.083624 1.045296,-1.250871 C 11.677121,7.6056998 11.851336,6.464576 12.000001,6 c 0.139373,0.464576 0.322881,1.6056998 0.536586,1.7636558 0.213705,0.167247 0.562136,1.250871 1.045295,1.250871 h 6.480837 c 0.408827,0 0.738676,0.04646 0.989547,0.139373 0.260163,0.09291 0.455285,0.246225 0.585366,0.45993 0.139373,0.213705 0.232288,0.4459932 0.278746,0.6968642 0.04646,0.260163 0.07433,0.594657 0.08362,1.003484 h -0.15331 c -0.12079,-0.483159 -0.30662,-0.817654 -0.557491,-1.003484 -0.250871,-0.176539 -0.636469,-0.264808 -1.156794,-0.264808 h -6.341461 c -0.576075,0 -0.984902,-0.08827 -1.226481,-0.2648092 -0.241579,-0.176539 -0.425087,-1.260751 -0.56446,-1.781076 -0.130081,0.520325 -0.32288,1.604537 -0.564459,1.781076 -0.241579,0.176539 -0.650407,0.2648092 -1.226482,0.2648092 H 3.8675981 c -0.520325,0 -0.905924,0.08827 -1.156795,0.264808 -0.250871,0.18583 -0.436702,0.520325 -0.557491,1.003484 z"
     sodipodi:nodetypes="ccsscccssccccccssscsssccc" />
  <path
     inkscape:connector-curvature="0"
     id="path1490"
     style="font-style:italic;font-weight:normal;font-size:14.1085825px;line-height:1.25;font-family:sans-serif;letter-spacing:0px;word-spacing:0px;fill:#000000;fill-opacity:1;stroke:none;stroke-width:0.29499468"
     d="m 13.745937,17.079093 q 0.05079,0 0.126977,-0.0381 0.07619,-0.05079 0.190466,-0.152373 0.126977,-0.101581 0.203164,-0.177768 0.07619,-0.08888 0.241256,-0.253954 0.177768,-0.177768 0.253954,-0.253954 l 0.152373,0.126977 q -0.698375,0.863445 -1.041213,1.130098 -0.342838,0.266652 -0.72377,0.266652 -0.507909,0 -0.507909,-0.520607 0,-0.317444 0.292048,-1.460238 -0.83805,1.180888 -1.358657,1.587215 -0.520607,0.406327 -1.193586,0.406327 -0.60949,0 -0.9523286,-0.368233 -0.3428385,-0.380933 -0.3428385,-1.041214 0,-0.977725 0.5460022,-1.993543 Q 10.190575,13.320563 11.041322,12.660281 11.904766,12 12.717421,12 q 0.850748,0 1.015818,0.736468 l 0.139675,-0.609491 0.03809,-0.03809 L 14.685566,12 l 0.08888,0.03809 q -0.0127,0.05079 -0.07618,0.266653 -1.130098,4.139457 -1.130098,4.609274 0,0.16507 0.177768,0.16507 z M 13.50468,13.053915 q 0,-0.355537 -0.215861,-0.5587 -0.203163,-0.215861 -0.5587,-0.215861 -0.698375,0 -1.333261,0.812654 -0.622188,0.812655 -0.939632,1.701495 -0.304744,0.876143 -0.304744,1.371354 0,0.431723 0.203162,0.698375 0.203164,0.253955 0.533305,0.253955 0.596793,0 1.218982,-0.685678 0.622188,-0.698375 1.00312,-1.650704 0.393629,-0.952329 0.393629,-1.72689 z" />
  <path
     d="m 19.745937,17.079093 q 0.05079,0 0.126977,-0.0381 0.07619,-0.05079 0.190466,-0.152373 0.126977,-0.101581 0.203164,-0.177768 0.07619,-0.08888 0.241256,-0.253954 0.177768,-0.177768 0.253954,-0.253954 l 0.152373,0.126977 q -0.698375,0.863445 -1.041213,1.130098 -0.342838,0.266652 -0.72377,0.266652 -0.507909,0 -0.507909,-0.520607 0,-0.317444 0.292048,-1.460238 -0.83805,1.180888 -1.358657,1.587215 -0.520607,0.406327 -1.193586,0.406327 -0.60949,0 -0.952329,-0.368233 -0.342838,-0.380933 -0.342838,-1.041214 0,-0.977725 0.546002,-1.993543 0.5587,-1.015815 1.409447,-1.676097 Q 17.904766,12 18.717421,12 q 0.850748,0 1.015818,0.736468 l 0.139675,-0.609491 0.03809,-0.03809 L 20.685566,12 l 0.08888,0.03809 q -0.0127,0.05079 -0.07618,0.266653 -1.130098,4.139457 -1.130098,4.609274 0,0.16507 0.177768,0.16507 z M 19.50468,13.053915 q 0,-0.355537 -0.215861,-0.5587 -0.203163,-0.215861 -0.5587,-0.215861 -0.698375,0 -1.333261,0.812654 -0.622188,0.812655 -0.939632,1.701495 -0.304744,0.876143 -0.304744,1.371354 0,0.431723 0.203162,0.698375 0.203164,0.253955 0.533305,0.253955 0.596793,0 1.218982,-0.685678 0.622188,-0.698375 1.00312,-1.650704 0.393629,-0.952329 0.393629,-1.72689 z"
     style="font-style:italic;font-weight:normal;font-size:14.1085825px;line-height:1.25;font-family:sans-serif;letter-spacing:0px;word-spacing:0px;fill:#000000;fill-opacity:1;stroke:none;stroke-width:0.29499468"
     id="path828"
     inkscape:connector-curvature="0" />
  <path
     d="m 7.745937,17.079093 q 0.05079,0 0.126977,-0.0381 0.07619,-0.05079 0.190466,-0.152373 0.126977,-0.101581 0.203164,-0.177768 0.07619,-0.08888 0.241256,-0.253954 0.177768,-0.177768 0.253954,-0.253954 l 0.152373,0.126977 q -0.698375,0.863445 -1.041213,1.130098 -0.342838,0.266652 -0.72377,0.266652 -0.507909,0 -0.507909,-0.520607 0,-0.317444 0.292048,-1.460238 -0.83805,1.180888 -1.358657,1.587215 -0.520607,0.406327 -1.193586,0.406327 -0.60949,0 -0.9523286,-0.368233 -0.3428385,-0.380933 -0.3428385,-1.041214 0,-0.977725 0.5460022,-1.993543 Q 4.190575,13.320563 5.041322,12.660281 5.904766,12 6.717421,12 7.568169,12 7.733239,12.736468 L 7.872914,12.126977 7.911004,12.088887 8.685566,12 l 0.08888,0.03809 q -0.0127,0.05079 -0.07618,0.266653 -1.130098,4.139457 -1.130098,4.609274 0,0.16507 0.177768,0.16507 z M 7.50468,13.053915 q 0,-0.355537 -0.215861,-0.5587 -0.203163,-0.215861 -0.5587,-0.215861 -0.698375,0 -1.333261,0.812654 -0.622188,0.812655 -0.939632,1.701495 -0.304744,0.876143 -0.304744,1.371354 0,0.431723 0.203162,0.698375 0.203164,0.253955 0.533305,0.253955 0.596793,0 1.218982,-0.685678 0.622188,-0.698375 1.00312,-1.650704 0.393629,-0.952329 0.393629,-1.72689 z"
     style="font-style:italic;font-weight:normal;font-size:14.1085825px;line-height:1.25;font-family:sans-serif;letter-spacing:0px;word-spacing:0px;fill:#000000;fill-opacity:1;stroke:none;stroke-width:0.29499468"
     id="path830"
     inkscape:connector-curvature="0" />
</svg>
