<?xml version="1.0" encoding="UTF-8" standalone="no"?>
<!-- Created with Inkscape (http://www.inkscape.org/) -->

<svg
   xmlns:dc="http://purl.org/dc/elements/1.1/"
   xmlns:cc="http://creativecommons.org/ns#"
   xmlns:rdf="http://www.w3.org/1999/02/22-rdf-syntax-ns#"
   xmlns:svg="http://www.w3.org/2000/svg"
   xmlns="http://www.w3.org/2000/svg"
   xmlns:sodipodi="http://sodipodi.sourceforge.net/DTD/sodipodi-0.dtd"
   xmlns:inkscape="http://www.inkscape.org/namespaces/inkscape"
   version="1.1"
   id="svg2"
   width="24"
   height="24"
   viewBox="0 0 24 24"
   sodipodi:docname="al21804.svg"
   inkscape:version="0.92.3 (2405546, 2018-03-11)"
   inkscape:export-filename="/home/rizmut/Dokumen/Rizmut/Github/libreoffice-style-karasa-jaga/build/next/starmath/res/al21804.png"
   inkscape:export-xdpi="96"
   inkscape:export-ydpi="96">
  <metadata
     id="metadata8">
    <rdf:RDF>
      <cc:Work
         rdf:about="">
        <dc:format>image/svg+xml</dc:format>
        <dc:type
           rdf:resource="http://purl.org/dc/dcmitype/StillImage" />
        <dc:title />
      </cc:Work>
    </rdf:RDF>
  </metadata>
  <defs
     id="defs6" />
  <sodipodi:namedview
     pagecolor="#ffffff"
     bordercolor="#666666"
     borderopacity="1"
     objecttolerance="10"
     gridtolerance="10"
     guidetolerance="10"
     inkscape:pageopacity="0"
     inkscape:pageshadow="2"
     inkscape:window-width="1366"
     inkscape:window-height="714"
     id="namedview4"
     showgrid="true"
     inkscape:zoom="18.4375"
     inkscape:cx="10.019354"
     inkscape:cy="9.4122395"
     inkscape:window-x="0"
     inkscape:window-y="28"
     inkscape:window-maximized="1"
     inkscape:current-layer="svg2">
    <inkscape:grid
       type="xygrid"
       id="grid823" />
  </sodipodi:namedview>
  <path
     inkscape:connector-curvature="0"
     id="path1488"
     style="font-style:normal;font-variant:normal;font-weight:normal;font-stretch:normal;font-size:14.1085825px;line-height:1.25;font-family:FreeSerif;-inkscape-font-specification:FreeSerif;letter-spacing:0px;word-spacing:0px;fill:#000000;fill-opacity:1;stroke:none;stroke-width:0.32379219"
     d="M 7.3141775,17.999999 C 6.4965236,17.981416 5.906512,17.84669 5.5441427,17.595819 5.1910649,17.344948 5.014526,16.829268 5.014526,16.04878 v -2.466899 c 0,-0.483159 -1.0836237,-0.831591 -1.2508711,-1.045296 C 3.605699,12.32288 2.464576,12.148665 2,12 2.464576,11.860627 3.605699,11.677119 3.7636549,11.463414 3.9309023,11.249709 5.014526,10.901278 5.014526,10.418119 V 7.9372821 c 0,-0.4088269 0.046458,-0.7386759 0.1393728,-0.989547 C 5.246814,6.6875726 5.4001241,6.4924506 5.6138291,6.3623693 5.827534,6.2229965 6.0598221,6.1300813 6.3106932,6.0836237 6.5708558,6.037166 6.9053506,6.0092915 7.3141775,6 V 6.1533101 C 6.8310184,6.2740998 6.4965236,6.4599303 6.3106932,6.7108014 6.1341543,6.9616724 6.0458848,7.3472705 6.0458848,7.8675957 v 2.3414633 c 0,0.576075 -0.088269,0.984902 -0.2648083,1.226481 C 5.6045376,11.677119 4.5203253,11.860627 4,12 c 0.5203253,0.130081 1.6045376,0.32288 1.7810765,0.564459 0.1765389,0.241579 0.2648083,0.650407 0.2648083,1.226482 v 2.341462 c 0,0.520325 0.088269,0.905924 0.2648084,1.156795 0.1858304,0.250871 0.5203252,0.436702 1.0034843,0.557491 z"
     sodipodi:nodetypes="ccsscccssccccccssscsssccc" />
  <path
     inkscape:connector-curvature="0"
     id="path1492"
     style="font-style:normal;font-variant:normal;font-weight:normal;font-stretch:normal;font-size:14.1085825px;line-height:1.25;font-family:FreeSerif;-inkscape-font-specification:FreeSerif;letter-spacing:0px;word-spacing:0px;fill:#000000;fill-opacity:1;stroke:none;stroke-width:0.32379219"
     d="m 16.685823,6 c 0.817653,0.018583 1.403019,0.1533097 1.756097,0.4041812 0.362369,0.2508711 0.543554,0.7665505 0.543554,1.5470382 v 2.4668996 c 0,0.483159 1.078978,0.83159 1.236934,1.045295 C 20.389655,11.677119 21.535424,11.851336 22,12 c -0.464576,0.139373 -1.610345,0.32288 -1.777592,0.536585 -0.157956,0.213705 -1.236934,0.562137 -1.236934,1.045296 v 2.480837 c 0,0.408827 -0.04646,0.738675 -0.139373,0.989546 -0.09292,0.260163 -0.246225,0.455285 -0.45993,0.585366 -0.213705,0.139373 -0.450639,0.232288 -0.710802,0.278746 -0.250871,0.04645 -0.580719,0.07433 -0.989546,0.08362 v -0.153309 c 0.483159,-0.120789 0.813007,-0.30662 0.989546,-0.557491 0.185831,-0.250871 0.278746,-0.63647 0.278746,-1.156795 v -2.341462 c 0,-0.576075 0.08827,-0.984903 0.264809,-1.226482 C 18.395463,12.322878 19.479675,12.139373 20,12 19.479675,11.869919 18.395463,11.677117 18.218924,11.435538 18.042385,11.193959 17.954115,10.785132 17.954115,10.209057 V 7.8675957 c 0,-0.5203252 -0.09292,-0.9059233 -0.278746,-1.1567943 C 17.49883,6.4599303 17.168982,6.2740998 16.685823,6.1533101 Z"
     sodipodi:nodetypes="ccsscccssccccccsscccssccc" />
  <path
     inkscape:connector-curvature="0"
     id="path1490"
     style="font-style:italic;font-weight:normal;font-size:14.1085825px;line-height:1.25;font-family:sans-serif;letter-spacing:0px;word-spacing:0px;fill:#000000;fill-opacity:1;stroke:none;stroke-width:0.32777187"
     d="m 13.907635,14.941639 q 0.05643,0 0.141086,-0.04233 0.08465,-0.05643 0.211628,-0.169303 0.141086,-0.112868 0.225738,-0.19752 0.08465,-0.09876 0.268063,-0.282171 0.19752,-0.197521 0.282171,-0.282172 l 0.169303,0.141086 q -0.775972,0.959383 -1.156903,1.255664 -0.380932,0.29628 -0.804189,0.29628 -0.564344,0 -0.564344,-0.578452 0,-0.352715 0.324498,-1.622487 -0.931167,1.312098 -1.509619,1.763573 -0.578452,0.451474 -1.326206,0.451474 -0.6772124,0 -1.0581442,-0.409148 -0.3809317,-0.423258 -0.3809317,-1.156904 0,-1.086361 0.6066691,-2.215048 0.6207776,-1.128686 1.5660528,-1.862333 0.959383,-0.7336458 1.862333,-0.7336458 0.945275,0 1.128686,0.8182978 l 0.155195,-0.677212 0.04232,-0.042326 0.860624,-0.09876 0.09876,0.042326 q -0.01411,0.056434 -0.08465,0.2962803 -1.255664,4.5993977 -1.255664,5.1214157 0,0.183411 0.19752,0.183411 z m -0.268063,-4.47242 q 0,-0.395041 -0.239846,-0.6207781 -0.225737,-0.2398459 -0.620778,-0.2398459 -0.775972,0 -1.481401,0.902949 -0.69132,0.90295 -1.044035,1.89055 -0.338606,0.973493 -0.338606,1.523727 0,0.479692 0.225737,0.775972 0.225738,0.282172 0.592561,0.282172 0.663103,0 1.354424,-0.761864 0.69132,-0.775972 1.114578,-1.834115 0.437366,-1.058144 0.437366,-1.918767 z" />
</svg>
