<?xml version="1.0" encoding="UTF-8" standalone="no"?>
<!-- Created with Inkscape (http://www.inkscape.org/) -->

<svg
   xmlns:dc="http://purl.org/dc/elements/1.1/"
   xmlns:cc="http://creativecommons.org/ns#"
   xmlns:rdf="http://www.w3.org/1999/02/22-rdf-syntax-ns#"
   xmlns:svg="http://www.w3.org/2000/svg"
   xmlns="http://www.w3.org/2000/svg"
   xmlns:sodipodi="http://sodipodi.sourceforge.net/DTD/sodipodi-0.dtd"
   xmlns:inkscape="http://www.inkscape.org/namespaces/inkscape"
   version="1.1"
   id="svg2"
   width="24"
   height="24"
   viewBox="0 0 24 24"
   sodipodi:docname="at21703.svg"
   inkscape:version="0.92.3 (2405546, 2018-03-11)"
   inkscape:export-filename="/home/rizmut/Dokumen/Rizmut/Github/libreoffice-style-karasa-jaga/build/next/starmath/res/at21703.png"
   inkscape:export-xdpi="96"
   inkscape:export-ydpi="96">
  <metadata
     id="metadata8">
    <rdf:RDF>
      <cc:Work
         rdf:about="">
        <dc:format>image/svg+xml</dc:format>
        <dc:type
           rdf:resource="http://purl.org/dc/dcmitype/StillImage" />
        <dc:title></dc:title>
      </cc:Work>
    </rdf:RDF>
  </metadata>
  <defs
     id="defs6" />
  <sodipodi:namedview
     pagecolor="#ffffff"
     bordercolor="#666666"
     borderopacity="1"
     objecttolerance="10"
     gridtolerance="10"
     guidetolerance="10"
     inkscape:pageopacity="0"
     inkscape:pageshadow="2"
     inkscape:window-width="1366"
     inkscape:window-height="714"
     id="namedview4"
     showgrid="true"
     inkscape:zoom="18.4375"
     inkscape:cx="9.5758508"
     inkscape:cy="12.966539"
     inkscape:window-x="0"
     inkscape:window-y="28"
     inkscape:window-maximized="1"
     inkscape:current-layer="g855"
     inkscape:snap-global="true">
    <inkscape:grid
       type="xygrid"
       id="grid823" />
  </sodipodi:namedview>
  <g
     id="g855"
     transform="matrix(1,0,0,-1,0,23.739368)">
    <path
       style="font-style:italic;font-variant:normal;font-weight:normal;font-stretch:normal;font-size:medium;line-height:1.25;font-family:FreeSerif;-inkscape-font-specification:'FreeSerif Italic';letter-spacing:0px;word-spacing:0px;fill:#000000;fill-opacity:1;stroke:none;stroke-width:0.51874781"
       d="M 10.380859 4.7890625 L 12.248047 8.2539062 L 13.535156 8.2539062 L 16.833984 4.7890625 L 16.128906 4.7890625 L 13.162109 6.9257812 L 11.087891 4.7890625 L 10.380859 4.7890625 z M 13.162109 9.625 C 12.27678 9.625 11.364491 9.983795 10.423828 10.703125 C 9.4969989 11.422456 8.7278047 12.334744 8.1191406 13.441406 C 7.5243097 14.548068 7.2265625 15.634056 7.2265625 16.699219 C 7.2265625 17.418549 7.413611 17.985392 7.7871094 18.400391 C 8.1606079 18.801556 8.6797527 19.003906 9.34375 19.003906 C 10.076913 19.003906 10.727757 18.782509 11.294922 18.339844 C 11.862086 17.897179 12.602628 17.032588 13.515625 15.746094 C 13.19746 16.991089 13.037109 17.785027 13.037109 18.130859 C 13.037109 18.698024 13.313856 18.982422 13.867188 18.982422 C 14.282187 18.982422 14.677283 18.837374 15.050781 18.546875 C 15.42428 18.256376 15.991123 17.639881 16.751953 16.699219 L 16.501953 16.492188 L 16.087891 16.908203 C 15.908058 17.088036 15.776359 17.225433 15.693359 17.322266 C 15.610359 17.405265 15.499661 17.502615 15.361328 17.613281 C 15.236829 17.723947 15.133781 17.805995 15.050781 17.861328 C 14.967782 17.902828 14.897127 17.923828 14.841797 17.923828 C 14.648128 17.923828 14.552734 17.834129 14.552734 17.654297 C 14.552734 17.142466 15.167276 14.632695 16.398438 10.123047 C 16.467603 9.8878819 16.509604 9.7408799 16.523438 9.6855469 L 16.378906 9.625 L 15.113281 9.7695312 L 15.050781 9.8320312 L 14.822266 10.828125 C 14.642433 10.025795 14.088938 9.625 13.162109 9.625 z M 13.183594 10.080078 C 13.570926 10.080078 13.874371 10.198428 14.095703 10.433594 C 14.330869 10.654926 14.449219 10.958371 14.449219 11.345703 C 14.449219 12.189533 14.233519 13.130474 13.804688 14.167969 C 13.389689 15.205464 12.843847 16.104404 12.166016 16.865234 C 11.488185 17.612231 10.823992 17.986328 10.173828 17.986328 C 9.8141632 17.986328 9.5240668 17.848931 9.3027344 17.572266 C 9.0814019 17.281767 8.9707031 16.900019 8.9707031 16.429688 C 8.9707031 15.89019 9.1367513 15.143949 9.46875 14.189453 C 9.8145819 13.221124 10.326075 12.293532 11.003906 11.408203 C 11.69557 10.522873 12.422764 10.080078 13.183594 10.080078 z "
       transform="matrix(1,0,0,-1,0,23.739368)"
       id="path834" />
  </g>
</svg>
