<?xml version="1.0" encoding="UTF-8" standalone="no"?>
<!-- Created with Inkscape (http://www.inkscape.org/) -->

<svg
   xmlns:dc="http://purl.org/dc/elements/1.1/"
   xmlns:cc="http://creativecommons.org/ns#"
   xmlns:rdf="http://www.w3.org/1999/02/22-rdf-syntax-ns#"
   xmlns:svg="http://www.w3.org/2000/svg"
   xmlns="http://www.w3.org/2000/svg"
   xmlns:sodipodi="http://sodipodi.sourceforge.net/DTD/sodipodi-0.dtd"
   xmlns:inkscape="http://www.inkscape.org/namespaces/inkscape"
   version="1.1"
   id="svg2"
   width="24"
   height="24"
   viewBox="0 0 24 24"
   sodipodi:docname="bi21306.svg"
   inkscape:version="0.92.3 (2405546, 2018-03-11)"
   inkscape:export-filename="/home/rizmut/Dokumen/Rizmut/Github/libreoffice-style-karasa-jaga/build/next/starmath/res/bi21306.png"
   inkscape:export-xdpi="96"
   inkscape:export-ydpi="96">
  <metadata
     id="metadata8">
    <rdf:RDF>
      <cc:Work
         rdf:about="">
        <dc:format>image/svg+xml</dc:format>
        <dc:type
           rdf:resource="http://purl.org/dc/dcmitype/StillImage" />
        <dc:title />
      </cc:Work>
    </rdf:RDF>
  </metadata>
  <defs
     id="defs6" />
  <sodipodi:namedview
     pagecolor="#ffffff"
     bordercolor="#666666"
     borderopacity="1"
     objecttolerance="10"
     gridtolerance="10"
     guidetolerance="10"
     inkscape:pageopacity="0"
     inkscape:pageshadow="2"
     inkscape:window-width="1366"
     inkscape:window-height="714"
     id="namedview4"
     showgrid="true"
     inkscape:zoom="18.4375"
     inkscape:cx="6.4020191"
     inkscape:cy="9.012744"
     inkscape:window-x="0"
     inkscape:window-y="28"
     inkscape:window-maximized="1"
     inkscape:current-layer="g855"
     inkscape:snap-global="true">
    <inkscape:grid
       type="xygrid"
       id="grid823" />
  </sodipodi:namedview>
  <g
     id="g855"
     transform="matrix(1,0,0,-1,0,23.739368)">
    <g
       aria-label="a&gt;b"
       transform="scale(1,-1)"
       style="font-style:normal;font-weight:normal;font-size:15.99759293px;line-height:1.25;font-family:sans-serif;letter-spacing:0px;word-spacing:0px;fill:#000000;fill-opacity:1;stroke:none;stroke-width:0.39993981"
       id="text907">
      <path
         d="m 6.2089467,-7.5742916 q 0.06399,0 0.1599759,-0.047993 0.095986,-0.06399 0.2399639,-0.1919711 0.159976,-0.1279807 0.2559615,-0.2239663 0.095986,-0.1119831 0.3039543,-0.3199518 0.2239663,-0.2239663 0.3199518,-0.3199519 l 0.1919711,0.1599759 q -0.8798676,1.0878364 -1.3118026,1.4237858 -0.431935,0.3359495 -0.9118628,0.3359495 -0.6399037,0 -0.6399037,-0.6559014 0,-0.3999398 0.3679447,-1.8397231 -1.0558412,1.4877761 -1.7117425,1.9996991 -0.6559013,0.5119229 -1.5037737,0.5119229 -0.7678845,0 -1.1998195,-0.4639301 -0.43193501,-0.4799278 -0.43193501,-1.3118027 0,-1.2318146 0.68789651,-2.5116224 0.7038941,-1.279807 1.7757328,-2.111682 1.0878363,-0.831875 2.1116823,-0.831875 1.0718387,0 1.2798074,0.927861 l 0.1759735,-0.767885 0.047993,-0.04799 0.9758532,-0.111983 0.1119831,0.04799 q -0.015998,0.06399 -0.095986,0.335949 -1.4237858,5.2152158 -1.4237858,5.8071267 0,0.2079687 0.2239663,0.2079687 z M 5.9049924,-12.645529 q 0,-0.447932 -0.271959,-0.703894 -0.2559615,-0.271959 -0.7038941,-0.271959 -0.8798676,0 -1.6797473,1.023846 -0.783882,1.023846 -1.1838219,2.143678 -0.3839422,1.1038336 -0.3839422,1.7277397 0,0.5439182 0.2559615,0.8798676 0.2559615,0.3199519 0.6718989,0.3199519 0.7518869,0 1.5357689,-0.86387 0.7838821,-0.8798676 1.2638099,-2.0796872 0.4959253,-1.199819 0.4959253,-2.175673 z"
         style="font-style:italic;font-variant:normal;font-weight:normal;font-stretch:normal;font-family:FreeSerif;-inkscape-font-specification:'FreeSerif Italic';letter-spacing:-0.5px;stroke-width:0.39993981"
         id="path11" />
      <path
         d="m 7.9813548,-15.173148 8.1267772,3.679446 v 1.055841 L 7.9813548,-6.7584143 V -7.910241 l 6.7189892,-3.05554 -6.7189892,-3.055541 z"
         style="font-style:normal;font-variant:normal;font-weight:normal;font-stretch:normal;font-family:FreeSerif;-inkscape-font-specification:FreeSerif"
         id="path13" />
      <path
         d="m 17.855044,-17.204843 v -0.271959 q 1.199819,-0.143978 2.447631,-0.367944 l 0.07999,0.07999 -1.663749,6.207066 q 0.847872,-1.3278 1.551766,-1.871719 0.703894,-0.543918 1.535769,-0.543918 0.79988,0 1.3278,0.543918 0.527921,0.543919 0.527921,1.375793 0,1.231815 -0.767885,2.4796273 -0.751886,1.2318147 -1.935708,2.0316943 -1.183822,0.7998796 -2.367644,0.7998796 -0.735889,0 -1.439783,-0.2879566 -0.687897,-0.3039543 -0.687897,-0.6239061 l 2.175673,-8.0147945 q 0.255961,-0.895865 0.255961,-1.103834 0,-0.271959 -0.175973,-0.335949 -0.159976,-0.07999 -0.86387,-0.09599 z m 0.719891,10.0944816 q 0.815878,0 1.551767,-0.5759133 0.751887,-0.5759134 1.199819,-1.375793 0.447933,-0.7998797 0.703894,-1.5517663 0.27196,-0.751887 0.27196,-1.19982 0,-0.639903 -0.303955,-1.007848 -0.303954,-0.367945 -0.815877,-0.367945 -0.719892,0 -1.375793,0.687897 -0.655901,0.671899 -1.071839,1.615757 -0.415937,0.9438577 -0.655901,1.8397229 -0.239964,0.8798676 -0.239964,1.3917906 0,0.5439181 0.735889,0.5439181 z"
         style="font-style:italic;font-variant:normal;font-weight:normal;font-stretch:normal;font-family:FreeSerif;-inkscape-font-specification:'FreeSerif Italic';letter-spacing:-0.5px;stroke-width:0.39993981"
         id="path15" />
    </g>
  </g>
</svg>
