<?xml version="1.0" encoding="UTF-8" standalone="no"?>
<!-- Created with Inkscape (http://www.inkscape.org/) -->

<svg
   xmlns:dc="http://purl.org/dc/elements/1.1/"
   xmlns:cc="http://creativecommons.org/ns#"
   xmlns:rdf="http://www.w3.org/1999/02/22-rdf-syntax-ns#"
   xmlns:svg="http://www.w3.org/2000/svg"
   xmlns="http://www.w3.org/2000/svg"
   xmlns:sodipodi="http://sodipodi.sourceforge.net/DTD/sodipodi-0.dtd"
   xmlns:inkscape="http://www.inkscape.org/namespaces/inkscape"
   version="1.1"
   id="svg2"
   width="24"
   height="24"
   viewBox="0 0 24 24"
   sodipodi:docname="bi21312.svg"
   inkscape:version="0.92.3 (2405546, 2018-03-11)"
   inkscape:export-filename="/home/rizmut/Dokumen/Rizmut/Github/libreoffice-style-karasa-jaga/build/next/starmath/res/bi21312.png"
   inkscape:export-xdpi="96"
   inkscape:export-ydpi="96">
  <metadata
     id="metadata8">
    <rdf:RDF>
      <cc:Work
         rdf:about="">
        <dc:format>image/svg+xml</dc:format>
        <dc:type
           rdf:resource="http://purl.org/dc/dcmitype/StillImage" />
        <dc:title></dc:title>
      </cc:Work>
    </rdf:RDF>
  </metadata>
  <defs
     id="defs6" />
  <sodipodi:namedview
     pagecolor="#ffffff"
     bordercolor="#666666"
     borderopacity="1"
     objecttolerance="10"
     gridtolerance="10"
     guidetolerance="10"
     inkscape:pageopacity="0"
     inkscape:pageshadow="2"
     inkscape:window-width="1366"
     inkscape:window-height="714"
     id="namedview4"
     showgrid="true"
     inkscape:zoom="18.4375"
     inkscape:cx="9.1274036"
     inkscape:cy="11.037507"
     inkscape:window-x="0"
     inkscape:window-y="28"
     inkscape:window-maximized="1"
     inkscape:current-layer="g855"
     inkscape:snap-global="true">
    <inkscape:grid
       type="xygrid"
       id="grid823" />
  </sodipodi:namedview>
  <g
     id="g855"
     transform="matrix(1,0,0,-1,0,23.739368)">
    <path
       inkscape:connector-curvature="0"
       id="path34"
       style="font-style:italic;font-variant:normal;font-weight:normal;font-stretch:normal;font-size:medium;line-height:1.25;font-family:FreeSerif;-inkscape-font-specification:'FreeSerif Italic';letter-spacing:-0.5px;word-spacing:0px;fill:#000000;fill-opacity:1;stroke:none;stroke-width:0.39993981"
       d="m 5.8711166,7.5742916 q 0.06399,0 0.1599759,0.047993 0.095986,0.06399 0.2399639,0.1919711 0.159976,0.1279807 0.2559615,0.2239663 0.095986,0.1119831 0.3039543,0.3199518 0.2239663,0.2239663 0.3199518,0.3199519 L 7.3428951,8.5181498 Q 6.4630275,7.4303134 6.0310925,7.094364 5.5991575,6.7584145 5.1192297,6.7584145 q -0.6399037,0 -0.6399037,0.6559014 0,0.3999398 0.3679447,1.8397231 Q 3.7914295,7.7662629 3.1355282,7.2543399 2.4796269,6.742417 1.6317545,6.742417 q -0.76788449,0 -1.19981949,0.4639301 Q 0,7.6862749 0,8.5181498 q 0,1.2318146 0.68789651,2.5116222 0.70389409,1.279807 1.77573279,2.111682 1.0878363,0.831875 2.1116823,0.831875 1.0718387,0 1.2798074,-0.927861 l 0.1759735,0.767885 0.047993,0.04799 0.9758532,0.111983 0.1119831,-0.04799 Q 7.1509238,13.861346 7.0709358,13.589387 5.64715,8.3741714 5.64715,7.7822605 q 0,-0.2079687 0.2239666,-0.2079689 z M 5.5671623,12.645529 q 0,0.447932 -0.271959,0.703894 -0.2559615,0.271959 -0.7038941,0.271959 -0.8798676,0 -1.6797473,-1.023846 Q 2.1276799,11.57369 1.72774,10.453858 1.3437978,9.3500244 1.3437978,8.7261183 q 0,-0.5439182 0.2559615,-0.8798676 0.2559615,-0.3199519 0.6718989,-0.3199519 0.7518869,0 1.5357689,0.86387 0.7838821,0.8798676 1.2638099,2.0796872 0.4959253,1.199819 0.4959253,2.175673 z" />
    <path
       inkscape:connector-curvature="0"
       id="path36"
       style="font-style:normal;font-variant:normal;font-weight:normal;font-stretch:normal;font-size:13.33333302px;line-height:1.25;font-family:FreeSerif;-inkscape-font-specification:FreeSerif;letter-spacing:0px;word-spacing:0px;fill:#000000;fill-opacity:1;stroke:none;stroke-width:0.39993981"
       d="m 15.873333,12.385057 -0.44,-0.64 Q 15.14,12.11839 14.78,12.11839 q -1.2,0 -2.12,-1.6 0.05333,-0.12 0.253333,-0.5333331 0.2,-0.4 0.333333,-0.64 Q 13.38,9.1183902 13.593333,8.7983902 13.82,8.4917236 14.086666,8.3450569 q 0.266667,-0.1466667 0.56,-0.1466667 0.573334,0 0.893334,0.32 l 0.186666,-0.2266666 q -0.573333,-0.5466667 -1.213333,-0.5466667 -0.586667,0 -1.04,0.2666667 -0.44,0.28 -0.626667,0.5333333 Q 12.66,8.8117236 12.3,9.4517235 q -0.02667,0.04 -0.04,0.066667 -0.01333,0.026667 -0.04,0.066667 -0.02667,0.04 -0.04,0.066667 Q 11.94,9.2383912 11.74,8.9583912 11.54,8.6917246 11.233333,8.3850579 10.94,8.0783912 10.58,7.9183913 q -0.36,-0.16 -0.7733333,-0.16 -0.8533333,0 -1.2666666,0.6799999 -0.4133333,0.68 -0.4133333,1.5733338 0,1 0.5466666,1.879999 0.5466667,0.893334 1.4799996,0.893334 0.853334,0 1.346667,-0.48 0.493333,-0.466667 0.973333,-1.4 0.293333,0.413333 0.466667,0.64 0.186666,0.24 0.506666,0.56 0.32,0.333333 0.666667,0.493333 0.36,0.16 0.746667,0.16 0.6,0 1.013333,-0.373334 z m -3.88,-2.36 q -0.56,1.266667 -0.96,1.72 -0.493333,0.533333 -1.0533329,0.546666 -0.6133334,0 -0.9066667,-0.493333 -0.2933333,-0.48 -0.2933333,-1.133333 0,-0.7333335 0.3466666,-1.4666668 0.36,-0.7333333 1.0000003,-0.7333333 1.026666,0 1.866666,1.5600001 z" />
    <path
       inkscape:connector-curvature="0"
       id="path38"
       style="font-style:italic;font-variant:normal;font-weight:normal;font-stretch:normal;font-size:medium;line-height:1.25;font-family:FreeSerif;-inkscape-font-specification:'FreeSerif Italic';letter-spacing:-0.5px;word-spacing:0px;fill:#000000;fill-opacity:1;stroke:none;stroke-width:0.39993981"
       d="m 18.192872,17.204843 v 0.271959 q 1.199819,0.143978 2.447631,0.367944 l 0.07999,-0.07999 -1.663749,-6.207066 q 0.847872,1.3278 1.551766,1.871719 0.703894,0.543918 1.535769,0.543918 0.79988,0 1.3278,-0.543918 Q 24,12.88549 24,12.053616 24,10.821801 23.232115,9.5739887 22.480229,8.342174 21.296407,7.5422944 20.112585,6.7424148 18.928763,6.7424148 q -0.735889,0 -1.439783,0.2879566 -0.687897,0.3039543 -0.687897,0.6239061 l 2.175673,8.0147945 q 0.255961,0.895865 0.255961,1.103834 0,0.271959 -0.175973,0.335949 -0.159976,0.07999 -0.86387,0.09599 z M 18.912763,7.1103614 q 0.815878,0 1.551767,0.5759133 0.751887,0.5759134 1.199819,1.375793 0.447933,0.7998797 0.703894,1.5517663 0.27196,0.751887 0.27196,1.19982 0,0.639903 -0.303955,1.007848 -0.303954,0.367945 -0.815877,0.367945 -0.719892,0 -1.375793,-0.687897 -0.655901,-0.671899 -1.071839,-1.615757 -0.415937,-0.9438577 -0.655901,-1.8397229 -0.239964,-0.8798676 -0.239964,-1.3917906 0,-0.5439181 0.735889,-0.5439181 z" />
  </g>
</svg>
