<?xml version="1.0" encoding="UTF-8" standalone="no"?>
<!-- Created with Inkscape (http://www.inkscape.org/) -->

<svg
   xmlns:dc="http://purl.org/dc/elements/1.1/"
   xmlns:cc="http://creativecommons.org/ns#"
   xmlns:rdf="http://www.w3.org/1999/02/22-rdf-syntax-ns#"
   xmlns:svg="http://www.w3.org/2000/svg"
   xmlns="http://www.w3.org/2000/svg"
   xmlns:xlink="http://www.w3.org/1999/xlink"
   xmlns:sodipodi="http://sodipodi.sourceforge.net/DTD/sodipodi-0.dtd"
   xmlns:inkscape="http://www.inkscape.org/namespaces/inkscape"
   version="1.1"
   id="svg2"
   width="96"
   height="96"
   viewBox="0 0 96 96"
   sodipodi:docname="dist72.svg"
   inkscape:version="0.92.3 (2405546, 2018-03-11)"
   inkscape:export-filename="/home/rizmut/Dokumen/Rizmut/Github/libreoffice-style-karasa-jaga/build/next/starmath/res/dist72.png"
   inkscape:export-xdpi="96"
   inkscape:export-ydpi="96">
  <metadata
     id="metadata8">
    <rdf:RDF>
      <cc:Work
         rdf:about="">
        <dc:format>image/svg+xml</dc:format>
        <dc:type
           rdf:resource="http://purl.org/dc/dcmitype/StillImage" />
        <dc:title></dc:title>
      </cc:Work>
    </rdf:RDF>
  </metadata>
  <defs
     id="defs6">
    <linearGradient
       id="j"
       gradientTransform="matrix(6.1304688e-5,-0.12499998,-0.12499998,-6.1304688e-5,80.99388,58.979459)"
       gradientUnits="userSpaceOnUse"
       x1="39.823921"
       x2="-288.17212"
       xlink:href="#d"
       y1="23.970575"
       y2="15.809712" />
    <linearGradient
       id="d">
      <stop
         offset="0"
         stop-color="#0968ef"
         id="stop1228" />
      <stop
         offset="1"
         stop-color="#aecffc"
         id="stop1230" />
    </linearGradient>
    <linearGradient
       inkscape:collect="always"
       xlink:href="#d"
       id="linearGradient1320"
       x1="23"
       y1="64"
       x2="22.977743"
       y2="45.001232"
       gradientUnits="userSpaceOnUse"
       gradientTransform="translate(20,11.000004)" />
    <linearGradient
       inkscape:collect="always"
       xlink:href="#d"
       id="linearGradient1766"
       gradientUnits="userSpaceOnUse"
       gradientTransform="translate(20,11.000004)"
       x1="23"
       y1="64"
       x2="22.977743"
       y2="45.001232" />
    <linearGradient
       inkscape:collect="always"
       xlink:href="#d"
       id="linearGradient1768"
       gradientUnits="userSpaceOnUse"
       gradientTransform="matrix(6.1304688e-5,-0.12499998,-0.12499998,-6.1304688e-5,80.99388,58.979459)"
       x1="39.823921"
       y1="23.970575"
       x2="-288.17212"
       y2="15.809712" />
  </defs>
  <sodipodi:namedview
     pagecolor="#ffffff"
     bordercolor="#666666"
     borderopacity="1"
     objecttolerance="10"
     gridtolerance="10"
     guidetolerance="10"
     inkscape:pageopacity="0"
     inkscape:pageshadow="2"
     inkscape:window-width="1366"
     inkscape:window-height="714"
     id="namedview4"
     showgrid="true"
     inkscape:zoom="16"
     inkscape:cx="46.095064"
     inkscape:cy="60.509613"
     inkscape:window-x="0"
     inkscape:window-y="28"
     inkscape:window-maximized="1"
     inkscape:current-layer="svg2"
     inkscape:snap-global="false">
    <inkscape:grid
       type="xygrid"
       id="grid12" />
  </sodipodi:namedview>
  <rect
     style="opacity:1;fill:#ffffff;fill-opacity:1;stroke:none;stroke-width:0.5;stroke-miterlimit:4;stroke-dasharray:none;stroke-opacity:1"
     id="rect849"
     width="96"
     height="96"
     x="0"
     y="0" />
  <path
     inkscape:connector-curvature="0"
     id="path923"
     style="font-style:normal;font-variant:normal;font-weight:normal;font-stretch:normal;font-size:14.1085825px;line-height:1.25;font-family:FreeSerif;-inkscape-font-specification:FreeSerif;letter-spacing:0px;word-spacing:0px;fill:#000000;fill-opacity:1;stroke:none;stroke-width:1.22550583"
     d="m 22,75 v 1 H 12 V 20 h 10 v 1 H 18.259508 C 17.431804,21 16.82827,21.197229 16.448906,21.591686 16.10403,21.950286 16,22.886717 16,23.711492 V 24 71.5 71.858192 C 16,73.7229 16.776539,75 18.466434,75 Z"
     sodipodi:nodetypes="ccccccscsccssc" />
  <path
     sodipodi:nodetypes="ccccccscsccssc"
     d="m 74,75 v 1 H 84 V 20 H 74 v 1 h 3.740492 c 0.827704,0 1.431238,0.197229 1.810602,0.591686 C 79.89597,21.950286 80,22.886717 80,23.711492 V 24 71.5 71.858192 C 80,73.7229 79.223461,75 77.533566,75 Z"
     style="font-style:normal;font-variant:normal;font-weight:normal;font-stretch:normal;font-size:14.1085825px;line-height:1.25;font-family:FreeSerif;-inkscape-font-specification:FreeSerif;letter-spacing:0px;word-spacing:0px;fill:#000000;fill-opacity:1;stroke:none;stroke-width:1.22550583"
     id="path1758"
     inkscape:connector-curvature="0" />
  <g
     id="g1834"
     transform="rotate(90,46.5,43.5)">
    <g
       transform="matrix(-1,0,0,1,124,-6)"
       id="g1535">
      <rect
         style="opacity:1;fill:url(#linearGradient1320);fill-opacity:1;stroke:none;stroke-width:0.5;stroke-miterlimit:4;stroke-dasharray:none;stroke-opacity:1"
         id="rect14"
         width="1"
         height="11"
         x="43"
         y="72"
         ry="0.5"
         transform="matrix(0,1,1,0,0,0)" />
      <path
         inkscape:connector-curvature="0"
         style="fill:url(#j);stroke-width:0.125"
         d="m 77.501238,43.977744 2.498528,3.001226 -0.4971,0.49661 L 78,46.5 V 50 l -1,-5e-4 -1e-4,-3.499999 -1.478466,0.974127 -0.52177,-0.497111 z"
         id="path1269"
         sodipodi:nodetypes="cccccccccc" />
    </g>
    <g
       id="g1764"
       transform="rotate(-180,62,47)">
      <rect
         transform="matrix(0,1,1,0,0,0)"
         ry="0.5"
         y="72"
         x="43"
         height="11"
         width="1"
         id="rect1760"
         style="opacity:1;fill:url(#linearGradient1766);fill-opacity:1;stroke:none;stroke-width:0.5;stroke-miterlimit:4;stroke-dasharray:none;stroke-opacity:1" />
      <path
         sodipodi:nodetypes="cccccccccc"
         id="path1762"
         d="m 77.501238,43.977744 2.498528,3.001226 -0.4971,0.49661 L 78,46.5 V 50 l -1,-5e-4 -1e-4,-3.499999 -1.478466,0.974127 -0.52177,-0.497111 z"
         style="fill:url(#linearGradient1768);stroke-width:0.125"
         inkscape:connector-curvature="0" />
    </g>
  </g>
  <g
     aria-label="a"
     style="font-style:normal;font-weight:normal;font-size:30.44765663px;line-height:1.25;font-family:sans-serif;letter-spacing:0px;word-spacing:0px;fill:#000000;fill-opacity:1;stroke:none;stroke-width:0.76119143"
     id="text1772">
    <path
       d="m 35.624131,25.222122 q 0,-0.639401 -0.365372,-1.035221 -0.334924,-0.395819 -0.822087,-0.395819 -0.91343,0 -2.100888,1.705069 -1.187459,1.674621 -2.009546,3.927747 -0.822086,2.222679 -0.822086,3.745062 0,0.700296 0.395819,1.187459 0.39582,0.456715 0.974325,0.456715 1.217907,0 2.374918,-2.009546 1.187458,-2.009545 1.765964,-4.201776 0.608953,-2.192232 0.608953,-3.37969 z m 3.988643,7.490123 0.639401,0.456715 q -2.527156,3.836405 -4.597597,3.836405 -0.852534,0 -1.461487,-0.578506 -0.578506,-0.578505 -0.578506,-1.431039 0,-0.517611 0.426268,-2.039993 -1.30925,2.161783 -2.466261,3.105661 -1.126563,0.913429 -2.527155,0.913429 -1.491935,0 -2.405365,-1.065668 -0.882982,-1.065668 -0.882982,-2.801184 0,-2.314022 1.278802,-4.81073 1.278801,-2.496708 3.227451,-4.140881 1.979098,-1.644174 3.805957,-1.644174 0.974325,0 1.491935,0.517611 0.548058,0.51761 0.761192,1.674621 l 0.548058,-1.796412 3.37969,-0.213134 -2.161784,7.185647 q -1.03522,3.501481 -1.03522,4.506253 0,0.456715 0.365371,0.456715 0.365372,0 0.79164,-0.426267 0.456714,-0.426267 1.400592,-1.705069 z"
       style="font-style:italic;font-variant:normal;font-weight:bold;font-stretch:normal;font-family:FreeSerif;-inkscape-font-specification:'FreeSerif Bold Italic';stroke-width:0.76119143"
       id="path1789" />
  </g>
  <g
     aria-label="c"
     style="font-style:normal;font-weight:normal;font-size:30.44765663px;line-height:1.25;font-family:sans-serif;letter-spacing:0px;word-spacing:0px;fill:#000000;fill-opacity:1;stroke:none;stroke-width:0.76119143"
     id="text1776">
    <path
       d="m 61.404622,23.548303 q -1.065668,0 -1.979098,1.096116 -0.882982,1.096115 -1.43104,2.618498 -0.51761,1.522383 -0.822087,2.922975 -0.274028,1.370145 -0.274028,2.131336 0,1.217906 0.608953,1.979098 0.6394,0.761191 1.613725,0.761191 0.974325,0 1.796412,-0.608953 0.822087,-0.608953 1.918203,-2.131336 l 0.852534,0.548058 q -1.339697,1.918202 -2.253127,2.679394 -1.705068,1.461487 -3.775509,1.461487 -2.070441,0 -3.37969,-1.278801 -1.278802,-1.278802 -1.278802,-3.318795 0,-3.653719 2.709842,-6.75938 2.740289,-3.105661 5.967741,-3.105661 1.491935,0 2.435812,0.761192 0.974325,0.761191 0.974325,1.979097 0,0.943878 -0.548058,1.552831 -0.51761,0.578505 -1.339697,0.578505 -0.761191,0 -1.278801,-0.456714 -0.487163,-0.456715 -0.487163,-1.126564 0,-0.456715 0.304477,-1.03522 0.334924,-0.608953 0.334924,-0.730744 0,-0.51761 -0.669848,-0.51761 z"
       style="font-style:italic;font-variant:normal;font-weight:bold;font-stretch:normal;font-family:FreeSerif;-inkscape-font-specification:'FreeSerif Bold Italic';stroke-width:0.76119143"
       id="path1786"
       inkscape:connector-curvature="0" />
  </g>
  <g
     aria-label="b"
     style="font-style:normal;font-weight:normal;font-size:30.85111427px;line-height:1.25;font-family:sans-serif;letter-spacing:0px;word-spacing:0px;fill:#000000;fill-opacity:1;stroke:none;stroke-width:0.7712779"
     id="text1780">
    <path
       d="m 27.870615,50.767445 v -0.83298 q 3.640431,-0.401065 6.417032,-0.925534 l -2.776601,10.119166 q 1.172343,-1.542556 2.128727,-2.159578 0.956385,-0.647874 2.128727,-0.647874 1.511705,0 2.468089,1.079789 0.987236,1.048938 0.987236,2.74575 0,4.134049 -3.05426,7.49682 -3.054261,3.331921 -6.818097,3.331921 -1.511704,0 -2.900004,-0.586172 -1.357449,-0.617022 -1.357449,-1.264895 0,-0.308511 0.617022,-2.49894 l 2.900005,-10.088315 q 1.203193,-4.226602 1.203193,-4.843625 0,-0.524469 -0.401064,-0.709575 -0.401065,-0.215958 -1.542556,-0.215958 z m 1.974471,19.189393 q 1.419151,0 2.714898,-1.635109 1.326598,-1.66596 2.067025,-3.825538 0.740427,-2.190429 0.740427,-3.948943 0,-2.128727 -1.357449,-2.128727 -1.048938,0 -2.067025,1.480854 -1.018087,1.480853 -1.66596,3.424473 -0.617022,1.943621 -1.018087,3.609581 -0.370213,1.635109 -0.370213,2.190429 0,0.339362 0.27766,0.586171 0.27766,0.246809 0.678724,0.246809 z"
       style="font-style:italic;font-variant:normal;font-weight:bold;font-stretch:normal;font-family:FreeSerif;-inkscape-font-specification:'FreeSerif Bold Italic';stroke-width:0.7712779"
       id="path1792" />
  </g>
  <g
     aria-label="d"
     style="font-style:normal;font-weight:normal;font-size:30.84267044px;line-height:1.25;font-family:sans-serif;letter-spacing:0px;word-spacing:0px;fill:#000000;fill-opacity:1;stroke:none;stroke-width:0.77106678"
     id="text1784">
    <path
       d="m 67.759294,66.533577 0.678539,0.493483 q -1.26455,2.035616 -2.374886,2.960896 -1.079493,0.92528 -2.220672,0.92528 -0.863595,0 -1.357077,-0.493482 -0.493483,-0.524326 -0.493483,-1.418763 0,-0.493483 0.339269,-2.066459 -1.326235,2.189829 -2.498256,3.11511 -1.172022,0.92528 -2.621627,0.92528 -1.418763,0 -2.344043,-1.079494 -0.92528,-1.110336 -0.92528,-2.77584 0,-2.344043 1.295392,-4.873142 1.295392,-2.559942 3.269323,-4.225446 2.004774,-1.696347 3.824491,-1.696347 1.202864,0 2.220673,1.017808 l 0.58601,-2.097301 q 0.863595,-3.084267 0.863595,-3.639435 0,-0.863595 -1.264549,-0.863595 h -0.647697 v -0.832752 q 3.978705,-0.308427 6.446119,-0.894438 l -3.423537,12.491282 q -1.758032,6.384433 -1.758032,6.877915 0,0.123371 0.09253,0.246742 0.123371,0.12337 0.246741,0.12337 0.740224,0 2.066459,-2.220672 z m -3.670278,-7.371398 q 0,-0.678539 -0.339269,-1.110336 -0.339269,-0.431798 -0.894437,-0.431798 -1.202865,0 -2.467414,1.912246 -1.233707,1.912246 -1.943088,4.102075 -0.678539,2.158987 -0.678539,3.331009 0,0.771066 0.339269,1.295392 0.370112,0.493482 0.925281,0.493482 1.233706,0 2.467413,-2.097301 1.233707,-2.128144 1.912246,-4.348817 0.678538,-2.220672 0.678538,-3.145952 z"
       style="font-style:italic;font-variant:normal;font-weight:bold;font-stretch:normal;font-family:FreeSerif;-inkscape-font-specification:'FreeSerif Bold Italic';stroke-width:0.77106678"
       id="path1795" />
  </g>
</svg>
