<?xml version="1.0" encoding="UTF-8" standalone="no"?>
<!-- Created with Inkscape (http://www.inkscape.org/) -->

<svg
   xmlns:dc="http://purl.org/dc/elements/1.1/"
   xmlns:cc="http://creativecommons.org/ns#"
   xmlns:rdf="http://www.w3.org/1999/02/22-rdf-syntax-ns#"
   xmlns:svg="http://www.w3.org/2000/svg"
   xmlns="http://www.w3.org/2000/svg"
   xmlns:xlink="http://www.w3.org/1999/xlink"
   xmlns:sodipodi="http://sodipodi.sourceforge.net/DTD/sodipodi-0.dtd"
   xmlns:inkscape="http://www.inkscape.org/namespaces/inkscape"
   version="1.1"
   id="svg2"
   width="96"
   height="96"
   viewBox="0 0 96 96"
   sodipodi:docname="dist51.svg"
   inkscape:version="0.92.3 (2405546, 2018-03-11)"
   inkscape:export-filename="/home/rizmut/Dokumen/Rizmut/Github/libreoffice-style-karasa-jaga/build/next/starmath/res/dist51.png"
   inkscape:export-xdpi="96"
   inkscape:export-ydpi="96">
  <metadata
     id="metadata8">
    <rdf:RDF>
      <cc:Work
         rdf:about="">
        <dc:format>image/svg+xml</dc:format>
        <dc:type
           rdf:resource="http://purl.org/dc/dcmitype/StillImage" />
        <dc:title />
      </cc:Work>
    </rdf:RDF>
  </metadata>
  <defs
     id="defs6">
    <linearGradient
       id="j"
       gradientTransform="matrix(6.1304688e-5,-0.12499998,-0.12499998,-6.1304688e-5,80.99388,58.979459)"
       gradientUnits="userSpaceOnUse"
       x1="75.827911"
       x2="-64.172081"
       xlink:href="#d"
       y1="23.989048"
       y2="23.920387" />
    <linearGradient
       id="d">
      <stop
         offset="0"
         stop-color="#0968ef"
         id="stop1228" />
      <stop
         offset="1"
         stop-color="#aecffc"
         id="stop1230" />
    </linearGradient>
    <linearGradient
       inkscape:collect="always"
       xlink:href="#d"
       id="linearGradient1320"
       x1="23"
       y1="64"
       x2="22.977743"
       y2="45.001232"
       gradientUnits="userSpaceOnUse"
       gradientTransform="translate(19.999501,7.999902)" />
    <linearGradient
       inkscape:collect="always"
       xlink:href="#d"
       id="linearGradient1766"
       gradientUnits="userSpaceOnUse"
       gradientTransform="translate(19.977744,8.001242)"
       x1="23"
       y1="64"
       x2="22.977743"
       y2="45.001232" />
    <linearGradient
       inkscape:collect="always"
       xlink:href="#d"
       id="linearGradient1768"
       gradientUnits="userSpaceOnUse"
       gradientTransform="matrix(6.1304688e-5,-0.12499998,-0.12499998,-6.1304688e-5,80.99388,58.979459)"
       x1="80.007858"
       y1="11.980377"
       x2="-71.990166"
       y2="7.9058304" />
  </defs>
  <sodipodi:namedview
     pagecolor="#ffffff"
     bordercolor="#666666"
     borderopacity="1"
     objecttolerance="10"
     gridtolerance="10"
     guidetolerance="10"
     inkscape:pageopacity="0"
     inkscape:pageshadow="2"
     inkscape:window-width="1366"
     inkscape:window-height="714"
     id="namedview4"
     showgrid="true"
     inkscape:zoom="11.313709"
     inkscape:cx="50.102893"
     inkscape:cy="46.419123"
     inkscape:window-x="0"
     inkscape:window-y="28"
     inkscape:window-maximized="1"
     inkscape:current-layer="svg2"
     inkscape:snap-global="true">
    <inkscape:grid
       type="xygrid"
       id="grid12" />
  </sodipodi:namedview>
  <rect
     style="opacity:1;fill:#ffffff;fill-opacity:1;stroke:none;stroke-width:0.5;stroke-miterlimit:4;stroke-dasharray:none;stroke-opacity:1"
     id="rect849"
     width="96"
     height="96"
     x="0"
     y="0" />
  <g
     aria-label="Σ"
     style="font-style:normal;font-weight:normal;font-size:88.54907227px;line-height:1.25;font-family:sans-serif;letter-spacing:0px;word-spacing:0px;fill:#000000;fill-opacity:1;stroke:none;stroke-width:2.213727"
     id="text45">
    <path
       d="M 62.997812,97.532738 H 14.47292 L 43.871212,68.134446 14.650018,39.001801 h 47.285205 l 1.062589,15.673186 H 61.581026 Q 60.961183,49.007846 56.533729,45.377334 52.106276,41.746822 46.262037,41.746822 H 31.739989 q -2.83357,0 -2.83357,1.593884 0,0.354196 2.036628,2.567923 2.036629,2.125177 5.135847,5.312944 3.187766,3.099217 6.198435,6.109886 3.010668,2.922119 5.755689,5.667141 2.833571,2.656472 3.364865,3.187766 L 27.666732,89.828968 h 27.007467 q 3.099217,0 4.870199,-2.213726 1.85953,-2.213727 1.85953,-5.312945 v -0.619843 h 1.593884 z"
       style="font-style:normal;font-variant:normal;font-weight:normal;font-stretch:normal;font-family:FreeSerif;-inkscape-font-specification:FreeSerif;stroke-width:2.213727"
       id="path80" />
  </g>
  <g
     id="g1834"
     transform="rotate(180,59.999381,45.011128)">
    <g
       transform="matrix(-1,0,0,1,123.99866,14.022755)"
       id="g1535">
      <rect
         style="opacity:1;fill:url(#linearGradient1320);fill-opacity:1;stroke:none;stroke-width:0.5;stroke-miterlimit:4;stroke-dasharray:none;stroke-opacity:1"
         id="rect14"
         width="0.99999928"
         height="12.999995"
         x="42.9995"
         y="66.999901"
         ry="0.5"
         transform="matrix(0,1,1,0,0,0)" />
      <path
         inkscape:connector-curvature="0"
         style="fill:url(#j);stroke-width:0.125"
         d="m 77.501238,43.977744 2.498528,3.001226 -0.4971,0.49661 L 78,46.5 l -1.02e-4,6.500001 -1,-5e-4 2e-6,-6.5 -1.478466,0.974127 -0.52177,-0.497111 z"
         id="path1269"
         sodipodi:nodetypes="cccccccccc" />
    </g>
    <g
       id="g1764"
       transform="rotate(-180,62,47)">
      <rect
         transform="matrix(0,1,1,0,0,0)"
         ry="0.5"
         y="67.001236"
         x="42.977745"
         height="12.999998"
         width="1.0000011"
         id="rect1760"
         style="opacity:1;fill:url(#linearGradient1766);fill-opacity:1;stroke:none;stroke-width:0.5;stroke-miterlimit:4;stroke-dasharray:none;stroke-opacity:1" />
      <path
         sodipodi:nodetypes="cccccccccc"
         id="path1762"
         d="m 77.501238,43.977744 2.498528,3.001226 -0.4971,0.49661 L 78,46.5 l 0.0012,6.477744 -1,-5e-4 -0.0013,-6.477743 -1.478466,0.974127 -0.52177,-0.497111 z"
         style="fill:url(#linearGradient1768);stroke-width:0.125"
         inkscape:connector-curvature="0" />
    </g>
  </g>
  <g
     aria-label="i"
     style="font-style:normal;font-weight:normal;font-size:25.85551262px;line-height:1.25;font-family:sans-serif;letter-spacing:0px;word-spacing:0px;fill:#000000;fill-opacity:1;stroke:none;stroke-width:0.64638776"
     id="text49">
    <path
       d="m 21.781912,28.060828 0.568821,0.361977 q -1.370342,2.042586 -2.275285,2.792395 -0.879087,0.723955 -2.042585,0.723955 -0.801521,0 -1.292776,-0.439544 -0.491254,-0.465399 -0.491254,-1.189353 0,-0.594677 0.336121,-1.784031 l 1.49962,-5.558935 q 0.180988,-0.775665 0.180988,-1.034221 0,-0.413688 -0.361977,-0.568821 -0.336121,-0.180988 -1.163498,-0.180988 v -0.698099 q 2.99924,-0.2327 5.222814,-0.723955 l -2.352852,8.635742 q -0.232699,0.930798 -0.232699,1.344486 0,0.155133 0.103422,0.284411 0.129277,0.103422 0.28441,0.103422 0.620533,0 1.654753,-1.551331 z M 21.213091,13.995429 q 0.723954,0 1.241065,0.51711 0.542965,0.517111 0.542965,1.241065 0,0.723954 -0.51711,1.241065 -0.51711,0.491254 -1.26692,0.491254 -0.723954,0 -1.215209,-0.51711 -0.491255,-0.51711 -0.491255,-1.26692 0,-0.672243 0.51711,-1.189354 0.517111,-0.51711 1.189354,-0.51711 z"
       style="font-style:italic;font-variant:normal;font-weight:bold;font-stretch:normal;font-family:FreeSerif;-inkscape-font-specification:'FreeSerif Bold Italic';stroke-width:0.64638776"
       id="path86" />
  </g>
  <g
     aria-label="N"
     style="font-style:normal;font-weight:normal;font-size:25.93431282px;line-height:1.25;font-family:sans-serif;letter-spacing:0px;word-spacing:0px;fill:#000000;fill-opacity:1;stroke:none;stroke-width:0.64835775"
     id="text53">
    <path
       d="m 52.805926,14.00011 9.051075,11.125821 v -7.909966 q 0,-1.374518 -0.492752,-1.893205 -0.492751,-0.54462 -1.919139,-0.674292 V 14.00011 h 5.575878 v 0.648358 q -1.270782,0.207475 -1.659796,0.596489 -0.363081,0.363081 -0.363081,1.478256 v 15.27531 H 62.27195 L 50.679313,17.890257 v 10.425594 q 0,1.374519 0.466817,1.893205 0.492752,0.492752 1.996942,0.674292 v 0.648358 h -5.887089 v -0.648358 q 1.426388,-0.18154 1.841337,-0.570555 0.440883,-0.389015 0.440883,-1.50419 V 16.515739 Q 48.604568,15.400563 48.163684,15.037483 47.722801,14.648468 47.333786,14.648468 V 14.00011 Z"
       style="font-style:normal;font-variant:normal;font-weight:bold;font-stretch:normal;font-family:FreeSerif;-inkscape-font-specification:'FreeSerif Bold';stroke-width:0.64835775"
       id="path83" />
  </g>
  <path
     style="opacity:1;fill:#000000;fill-opacity:1;stroke:none;stroke-width:0.5;stroke-miterlimit:4;stroke-dasharray:none;stroke-opacity:1"
     d="m 28,20 h 14 v 2 H 28 Z"
     id="rect55" />
  <path
     style="opacity:1;fill:#000000;fill-opacity:1;stroke:none;stroke-width:0.5;stroke-miterlimit:4;stroke-dasharray:none;stroke-opacity:1"
     d="m 28,24 h 14 v 2 H 28 Z"
     id="rect57" />
</svg>
