<?xml version="1.0" encoding="UTF-8" standalone="no"?>
<!-- Created with Inkscape (http://www.inkscape.org/) -->

<svg
   xmlns:dc="http://purl.org/dc/elements/1.1/"
   xmlns:cc="http://creativecommons.org/ns#"
   xmlns:rdf="http://www.w3.org/1999/02/22-rdf-syntax-ns#"
   xmlns:svg="http://www.w3.org/2000/svg"
   xmlns="http://www.w3.org/2000/svg"
   xmlns:xlink="http://www.w3.org/1999/xlink"
   xmlns:sodipodi="http://sodipodi.sourceforge.net/DTD/sodipodi-0.dtd"
   xmlns:inkscape="http://www.inkscape.org/namespaces/inkscape"
   version="1.1"
   id="svg2"
   width="96"
   height="96"
   viewBox="0 0 96 96"
   sodipodi:docname="dist13.svg"
   inkscape:version="0.92.3 (2405546, 2018-03-11)"
   inkscape:export-filename="/home/rizmut/Dokumen/Rizmut/Github/libreoffice-style-karasa-jaga/build/next/starmath/res/dist13.png"
   inkscape:export-xdpi="96"
   inkscape:export-ydpi="96">
  <metadata
     id="metadata8">
    <rdf:RDF>
      <cc:Work
         rdf:about="">
        <dc:format>image/svg+xml</dc:format>
        <dc:type
           rdf:resource="http://purl.org/dc/dcmitype/StillImage" />
        <dc:title></dc:title>
      </cc:Work>
    </rdf:RDF>
  </metadata>
  <defs
     id="defs6">
    <linearGradient
       id="j"
       gradientTransform="matrix(6.1304688e-5,-0.12499998,-0.12499998,-6.1304688e-5,85.99388,39.979459)"
       gradientUnits="userSpaceOnUse"
       x1="113.15723"
       x2="-4.176074"
       xlink:href="#d"
       y1="25.786163"
       y2="23.948996" />
    <linearGradient
       id="d">
      <stop
         offset="0"
         stop-color="#0968ef"
         id="stop1228" />
      <stop
         offset="1"
         stop-color="#aecffc"
         id="stop1230" />
    </linearGradient>
    <linearGradient
       inkscape:collect="always"
       xlink:href="#d"
       id="linearGradient1312"
       gradientUnits="userSpaceOnUse"
       gradientTransform="matrix(6.1304688e-5,0.12499998,-0.12499998,6.1304688e-5,85.99388,6.020541)"
       x1="113.15723"
       y1="25.786163"
       x2="-4.1720824"
       y2="23.949198" />
    <linearGradient
       inkscape:collect="always"
       xlink:href="#d"
       id="linearGradient1320"
       x1="23"
       y1="64"
       x2="23.525875"
       y2="53.999996"
       gradientUnits="userSpaceOnUse"
       gradientTransform="translate(-2.025875,16.000004)" />
    <linearGradient
       inkscape:collect="always"
       xlink:href="#d"
       id="linearGradient1322"
       x1="36"
       y1="56"
       x2="35.875"
       y2="38"
       gradientUnits="userSpaceOnUse"
       gradientTransform="translate(-12,16)" />
  </defs>
  <sodipodi:namedview
     pagecolor="#ffffff"
     bordercolor="#666666"
     borderopacity="1"
     objecttolerance="10"
     gridtolerance="10"
     guidetolerance="10"
     inkscape:pageopacity="0"
     inkscape:pageshadow="2"
     inkscape:window-width="1366"
     inkscape:window-height="714"
     id="namedview4"
     showgrid="true"
     inkscape:zoom="2"
     inkscape:cx="155.94038"
     inkscape:cy="77.527767"
     inkscape:window-x="0"
     inkscape:window-y="28"
     inkscape:window-maximized="1"
     inkscape:current-layer="svg2">
    <inkscape:grid
       type="xygrid"
       id="grid12" />
  </sodipodi:namedview>
  <rect
     style="opacity:1;fill:#ffffff;fill-opacity:1;stroke:none;stroke-width:0.5;stroke-miterlimit:4;stroke-dasharray:none;stroke-opacity:1"
     id="rect849"
     width="96"
     height="96"
     x="0"
     y="0" />
  <rect
     style="opacity:1;fill:url(#linearGradient1320);fill-opacity:1;stroke:none;stroke-width:0.5;stroke-miterlimit:4;stroke-dasharray:none;stroke-opacity:1"
     id="rect14"
     width="0.97412491"
     height="9"
     x="21"
     y="76"
     ry="0.5"
     transform="matrix(0,1,1,0,0,0)" />
  <path
     inkscape:connector-curvature="0"
     style="fill:url(#j);stroke-width:0.125"
     d="m 82.501238,24.977744 2.498528,3.001226 -0.4971,0.49661 L 83,27.5 V 32 l -1,-5e-4 -2.5e-5,-4.499999 -1.478466,0.974127 -0.52177,-0.497111 z"
     id="path1269"
     sodipodi:nodetypes="cccccccccc" />
  <rect
     style="opacity:1;fill:url(#linearGradient1322);fill-opacity:1;stroke:none;stroke-width:0.5;stroke-miterlimit:4;stroke-dasharray:none;stroke-opacity:1"
     id="rect16"
     width="1"
     height="23"
     x="24"
     y="62"
     ry="0.5"
     transform="matrix(0,1,1,0,0,0)" />
  <path
     id="path1310"
     d="M 82.501238,21.022256 84.999766,18.02103 84.502666,17.52442 83,18.5 v -4.5005 l -1,5e-4 -2.5e-5,4.500499 -1.478466,-0.974127 -0.52177,0.497111 z"
     style="fill:url(#linearGradient1312);stroke-width:0.125"
     inkscape:connector-curvature="0"
     sodipodi:nodetypes="cccccccccc" />
  <path
     style="font-style:normal;font-variant:normal;font-weight:normal;font-stretch:normal;font-size:medium;line-height:1.25;font-family:FreeSerif;-inkscape-font-specification:FreeSerif;letter-spacing:0px;word-spacing:0px;fill:#000000;fill-opacity:1;stroke:none"
     d="M 38 19 L 18.964844 59.457031 L 11.525391 46.457031 L 5.0058594 49.617188 L 5.9648438 51.65625 L 9.765625 49.777344 L 19.804688 68.257812 L 41.099609 21 L 75 21 L 75 19 L 42 19 L 40 19 L 38 19 z "
     id="path1438" />
  <g
     aria-label="2"
     style="font-style:normal;font-weight:normal;font-size:65.0821991px;line-height:1.25;font-family:sans-serif;letter-spacing:0px;word-spacing:0px;fill:#000000;fill-opacity:1;stroke:none;stroke-width:1.62705493"
     id="text1446">
    <path
       d="m 45.10534,37.952488 q 0.325411,-1.496891 0.650822,-2.603288 0.325411,-1.106398 1.366726,-3.189028 1.106397,-2.147713 2.408041,-3.514439 1.366726,-1.431808 3.709686,-2.538206 2.408041,-1.106397 5.401822,-1.106397 5.076412,0 8.525768,3.319192 3.514439,3.319192 3.514439,8.200357 0,7.354289 -8.330522,16.075303 L 51.418313,64.050449 h 15.554646 q 2.212794,0 3.254109,-0.715904 1.106398,-0.780986 2.928699,-3.579521 l 0.846069,0.325411 -3.579521,8.916261 H 45.040257 V 68.21571 L 56.624889,55.915174 q 8.460686,-8.981343 8.460686,-16.921371 0,-4.100179 -2.538206,-6.638385 -2.538206,-2.538205 -6.638384,-2.538205 -3.384275,0 -5.466905,1.887383 -2.017548,1.822302 -3.970014,6.573302 z"
       style="font-style:normal;font-variant:normal;font-weight:normal;font-stretch:normal;font-family:FreeSerif;-inkscape-font-specification:FreeSerif;stroke-width:1.62705493"
       id="path1448" />
  </g>
</svg>
