<?xml version="1.0" encoding="UTF-8" standalone="no"?>
<!-- Created with Inkscape (http://www.inkscape.org/) -->

<svg
   xmlns:dc="http://purl.org/dc/elements/1.1/"
   xmlns:cc="http://creativecommons.org/ns#"
   xmlns:rdf="http://www.w3.org/1999/02/22-rdf-syntax-ns#"
   xmlns:svg="http://www.w3.org/2000/svg"
   xmlns="http://www.w3.org/2000/svg"
   xmlns:xlink="http://www.w3.org/1999/xlink"
   xmlns:sodipodi="http://sodipodi.sourceforge.net/DTD/sodipodi-0.dtd"
   xmlns:inkscape="http://www.inkscape.org/namespaces/inkscape"
   version="1.1"
   id="svg2"
   width="96"
   height="96"
   viewBox="0 0 96 96"
   sodipodi:docname="dist82.svg"
   inkscape:version="0.92.3 (2405546, 2018-03-11)"
   inkscape:export-filename="/home/rizmut/Dokumen/Rizmut/Github/libreoffice-style-karasa-jaga/build/next/starmath/res/dist82.png"
   inkscape:export-xdpi="96"
   inkscape:export-ydpi="96">
  <metadata
     id="metadata8">
    <rdf:RDF>
      <cc:Work
         rdf:about="">
        <dc:format>image/svg+xml</dc:format>
        <dc:type
           rdf:resource="http://purl.org/dc/dcmitype/StillImage" />
        <dc:title></dc:title>
      </cc:Work>
    </rdf:RDF>
  </metadata>
  <defs
     id="defs6">
    <linearGradient
       id="j"
       gradientTransform="matrix(6.1304688e-5,-0.12499998,-0.12499998,-6.1304688e-5,80.99388,58.979459)"
       gradientUnits="userSpaceOnUse"
       x1="113.15723"
       x2="-24.176073"
       xlink:href="#d"
       y1="25.786163"
       y2="23.939186" />
    <linearGradient
       id="d">
      <stop
         offset="0"
         stop-color="#0968ef"
         id="stop1228" />
      <stop
         offset="1"
         stop-color="#aecffc"
         id="stop1230" />
    </linearGradient>
    <linearGradient
       inkscape:collect="always"
       xlink:href="#d"
       id="linearGradient1312"
       gradientUnits="userSpaceOnUse"
       gradientTransform="matrix(6.1304688e-5,0.12499998,-0.12499998,6.1304688e-5,80.99388,19.020541)"
       x1="113.15723"
       y1="25.786163"
       x2="-32.176071"
       y2="23.935263" />
    <linearGradient
       inkscape:collect="always"
       xlink:href="#d"
       id="linearGradient1320"
       x1="23"
       y1="64"
       x2="22.977743"
       y2="45.001232"
       gradientUnits="userSpaceOnUse"
       gradientTransform="translate(20,11.000004)" />
    <linearGradient
       inkscape:collect="always"
       xlink:href="#d"
       id="linearGradient1322"
       x1="36.022255"
       y1="68.001236"
       x2="36"
       y2="42.5"
       gradientUnits="userSpaceOnUse"
       gradientTransform="translate(-2,11)" />
  </defs>
  <sodipodi:namedview
     pagecolor="#ffffff"
     bordercolor="#666666"
     borderopacity="1"
     objecttolerance="10"
     gridtolerance="10"
     guidetolerance="10"
     inkscape:pageopacity="0"
     inkscape:pageshadow="2"
     inkscape:window-width="1366"
     inkscape:window-height="714"
     id="namedview4"
     showgrid="true"
     inkscape:zoom="32"
     inkscape:cx="67.143135"
     inkscape:cy="51.701654"
     inkscape:window-x="0"
     inkscape:window-y="28"
     inkscape:window-maximized="1"
     inkscape:current-layer="svg2"
     inkscape:snap-global="false">
    <inkscape:grid
       type="xygrid"
       id="grid12" />
  </sodipodi:namedview>
  <rect
     style="opacity:1;fill:#ffffff;fill-opacity:1;stroke:none;stroke-width:0.5;stroke-miterlimit:4;stroke-dasharray:none;stroke-opacity:1"
     id="rect849"
     width="96"
     height="96"
     x="0"
     y="0" />
  <g
     id="g1535"
     transform="translate(1.998762,-14.977744)">
    <rect
       transform="matrix(0,1,1,0,0,0)"
       ry="0.5"
       y="65.001236"
       x="42.977745"
       height="14.998762"
       width="1.022256"
       id="rect14"
       style="opacity:1;fill:url(#linearGradient1320);fill-opacity:1;stroke:none;stroke-width:0.5;stroke-miterlimit:4;stroke-dasharray:none;stroke-opacity:1" />
    <path
       sodipodi:nodetypes="cccccccccc"
       id="path1269"
       d="m 77.501238,43.977744 2.498528,3.001226 -0.4971,0.49661 L 78,46.5 l 0.0012,4.477744 -1,-5e-4 -0.0013,-4.477743 -1.478466,0.974127 -0.52177,-0.497111 z"
       style="fill:url(#j);stroke-width:0.125"
       inkscape:connector-curvature="0" />
  </g>
  <g
     id="g1531"
     transform="translate(2,8)">
    <rect
       transform="matrix(0,1,1,0,0,0)"
       ry="0.5"
       y="66"
       x="34"
       height="14"
       width="1"
       id="rect16"
       style="opacity:1;fill:url(#linearGradient1322);fill-opacity:1;stroke:none;stroke-width:0.5;stroke-miterlimit:4;stroke-dasharray:none;stroke-opacity:1" />
    <path
       sodipodi:nodetypes="cccccccccc"
       inkscape:connector-curvature="0"
       style="fill:url(#linearGradient1312);stroke-width:0.125"
       d="M 77.501238,34.022256 79.999766,31.02103 79.502666,30.52442 78,31.5 V 28 l -1,5e-4 -2.5e-5,3.499999 -1.478466,-0.974127 -0.52177,0.497111 z"
       id="path1310" />
  </g>
  <g
     aria-label="m"
     style="font-style:normal;font-weight:normal;font-size:84.5318222px;line-height:1.25;font-family:sans-serif;letter-spacing:0px;word-spacing:0px;fill:#000000;fill-opacity:1;stroke:none;stroke-width:2.11329556"
     id="text1599"
     transform="matrix(1.0238211,0,0,1.0238211,-0.20933693,-1.9718544)">
    <path
       d="m 63.310896,77.0294 q 1.775168,0 5.832695,-6.424419 l 1.8597,1.098914 q -3.7194,6.255355 -6.678013,8.706777 -2.958614,2.366891 -6.847078,2.366891 -5.663632,0 -5.663632,-5.325504 0,-4.226591 3.043145,-12.933369 l 3.803932,-11.073669 q 0.591723,-1.944232 0.591723,-2.535955 0,-0.676254 -0.591723,-1.183445 -0.591722,-0.591723 -1.352509,-0.591723 -3.888464,0 -9.467564,9.805692 -2.282359,3.888463 -3.550336,7.269736 -1.183446,3.381273 -4.987378,15.807451 H 29.160039 L 34.654608,64.51869 q 3.803932,-11.749923 3.803932,-13.44056 0,-0.845318 -0.507191,-1.352509 -0.422659,-0.591723 -1.098914,-0.591723 -0.845318,0 -2.451423,1.183446 -1.521572,1.098913 -2.958613,2.705018 -3.550337,4.311123 -6.339887,10.735541 -2.78955,6.339887 -6.086291,18.258874 H 8.7878703 L 14.451502,61.898203 q 2.958614,-10.397414 2.958614,-12.08805 0,-2.197828 -3.888464,-2.197828 H 12.845398 V 45.329966 Q 23.580939,44.484648 29.751762,43.047607 L 24.341726,59.86944 q 2.620486,-4.057528 4.226591,-6.255355 1.606104,-2.282359 4.057527,-5.156441 2.535955,-2.874082 4.987378,-4.14206 2.535954,-1.352509 5.156441,-1.352509 2.620486,0 4.142059,1.521573 1.521573,1.521573 1.521573,4.226591 0,3.043146 -2.197827,8.79131 5.325504,-8.368651 8.875841,-11.411796 3.550336,-3.127678 7.861459,-3.127678 2.78955,0 4.649251,1.775168 1.8597,1.690637 1.8597,4.226592 0,3.465804 -1.944232,9.044905 l -3.803932,11.242732 q -1.775169,5.240973 -1.775169,6.255355 0,0.08453 0,0.169063 0,0.08453 0,0.169064 0,0.422659 0.338128,0.845318 0.422659,0.338128 1.014382,0.338128 z"
       style="font-style:italic;font-variant:normal;font-weight:bold;font-stretch:normal;font-family:FreeSerif;-inkscape-font-specification:'FreeSerif Bold Italic';stroke-width:2.11329556"
       id="path1627"
       inkscape:connector-curvature="0" />
  </g>
  <path
     style="opacity:1;fill:#000000;fill-opacity:1;stroke:none;stroke-width:0.5;stroke-miterlimit:4;stroke-dasharray:none;stroke-opacity:1"
     d="m 34,25 a 5,5 0 0 1 -5,5 5,5 0 0 1 -5,-5 5,5 0 0 1 5,-5 5,5 0 0 1 5,5 z"
     id="path1601" />
  <path
     id="path1604"
     d="m 52,25 a 5,5 0 0 1 -5,5 5,5 0 0 1 -5,-5 5,5 0 0 1 5,-5 5,5 0 0 1 5,5 z"
     style="opacity:1;fill:#000000;fill-opacity:1;stroke:none;stroke-width:0.5;stroke-miterlimit:4;stroke-dasharray:none;stroke-opacity:1"
     inkscape:connector-curvature="0" />
  <path
     inkscape:connector-curvature="0"
     style="opacity:1;fill:#000000;fill-opacity:1;stroke:none;stroke-width:0.5;stroke-miterlimit:4;stroke-dasharray:none;stroke-opacity:1"
     d="m 68,25 a 5,5 0 0 1 -5,5 5,5 0 0 1 -5,-5 5,5 0 0 1 5,-5 5,5 0 0 1 5,5 z"
     id="path1606" />
</svg>
