<?xml version="1.0" encoding="UTF-8" standalone="no"?>
<!-- Created with Inkscape (http://www.inkscape.org/) -->

<svg
   xmlns:dc="http://purl.org/dc/elements/1.1/"
   xmlns:cc="http://creativecommons.org/ns#"
   xmlns:rdf="http://www.w3.org/1999/02/22-rdf-syntax-ns#"
   xmlns:svg="http://www.w3.org/2000/svg"
   xmlns="http://www.w3.org/2000/svg"
   xmlns:xlink="http://www.w3.org/1999/xlink"
   xmlns:sodipodi="http://sodipodi.sourceforge.net/DTD/sodipodi-0.dtd"
   xmlns:inkscape="http://www.inkscape.org/namespaces/inkscape"
   version="1.1"
   id="svg2"
   width="96"
   height="96"
   viewBox="0 0 96 96"
   sodipodi:docname="dist92.svg"
   inkscape:version="0.92.3 (2405546, 2018-03-11)"
   inkscape:export-filename="/home/rizmut/Dokumen/Rizmut/Github/libreoffice-style-karasa-jaga/build/next/starmath/res/dist92.png"
   inkscape:export-xdpi="96"
   inkscape:export-ydpi="96">
  <metadata
     id="metadata8">
    <rdf:RDF>
      <cc:Work
         rdf:about="">
        <dc:format>image/svg+xml</dc:format>
        <dc:type
           rdf:resource="http://purl.org/dc/dcmitype/StillImage" />
        <dc:title></dc:title>
      </cc:Work>
    </rdf:RDF>
  </metadata>
  <defs
     id="defs6">
    <linearGradient
       id="j"
       gradientTransform="matrix(6.1304688e-5,-0.12499998,-0.12499998,-6.1304688e-5,80.99388,58.979459)"
       gradientUnits="userSpaceOnUse"
       x1="39.823921"
       x2="-288.17212"
       xlink:href="#d"
       y1="23.970575"
       y2="15.809712" />
    <linearGradient
       id="d">
      <stop
         offset="0"
         stop-color="#0968ef"
         id="stop1228" />
      <stop
         offset="1"
         stop-color="#aecffc"
         id="stop1230" />
    </linearGradient>
    <linearGradient
       inkscape:collect="always"
       xlink:href="#d"
       id="linearGradient1312"
       gradientUnits="userSpaceOnUse"
       gradientTransform="matrix(6.1304688e-5,0.12499998,-0.12499998,6.1304688e-5,80.99388,19.020541)"
       x1="7.823925"
       y1="23.954882"
       x2="-264.17996"
       y2="31.821482" />
    <linearGradient
       inkscape:collect="always"
       xlink:href="#d"
       id="linearGradient1320"
       x1="23"
       y1="64"
       x2="22.977743"
       y2="45.001232"
       gradientUnits="userSpaceOnUse"
       gradientTransform="translate(20,11.000004)" />
    <linearGradient
       inkscape:collect="always"
       xlink:href="#d"
       id="linearGradient1322"
       x1="36"
       y1="48"
       x2="36"
       y2="-10"
       gradientUnits="userSpaceOnUse"
       gradientTransform="translate(-2,11)" />
  </defs>
  <sodipodi:namedview
     pagecolor="#ffffff"
     bordercolor="#666666"
     borderopacity="1"
     objecttolerance="10"
     gridtolerance="10"
     guidetolerance="10"
     inkscape:pageopacity="0"
     inkscape:pageshadow="2"
     inkscape:window-width="1366"
     inkscape:window-height="714"
     id="namedview4"
     showgrid="true"
     inkscape:zoom="4"
     inkscape:cx="18.317092"
     inkscape:cy="42.752634"
     inkscape:window-x="0"
     inkscape:window-y="28"
     inkscape:window-maximized="1"
     inkscape:current-layer="svg2"
     inkscape:snap-global="true">
    <inkscape:grid
       type="xygrid"
       id="grid12" />
  </sodipodi:namedview>
  <rect
     style="opacity:1;fill:#ffffff;fill-opacity:1;stroke:none;stroke-width:0.5;stroke-miterlimit:4;stroke-dasharray:none;stroke-opacity:1"
     id="rect849"
     width="96"
     height="96"
     x="0"
     y="0" />
  <g
     id="g1535"
     transform="matrix(0,-1,-1,0,96,93)">
    <rect
       transform="matrix(0,1,1,0,0,0)"
       ry="0.5"
       y="71"
       x="43"
       height="9"
       width="1"
       id="rect14"
       style="opacity:1;fill:url(#linearGradient1320);fill-opacity:1;stroke:none;stroke-width:0.5;stroke-miterlimit:4;stroke-dasharray:none;stroke-opacity:1" />
    <path
       sodipodi:nodetypes="cccccccccc"
       id="path1269"
       d="m 77.501238,43.977744 2.498528,3.001226 -0.4971,0.49661 L 78,46.5 V 53 l -1,-5e-4 -1e-4,-6.499999 -1.478466,0.974127 -0.52177,-0.497111 z"
       style="fill:url(#j);stroke-width:0.125"
       inkscape:connector-curvature="0" />
  </g>
  <g
     id="g1531"
     transform="matrix(0,-1,-1,0,92,93)">
    <rect
       transform="matrix(0,1,1,0,0,0)"
       ry="0.5"
       y="32"
       x="34"
       height="48"
       width="1"
       id="rect16"
       style="opacity:1;fill:url(#linearGradient1322);fill-opacity:1;stroke:none;stroke-width:0.5;stroke-miterlimit:4;stroke-dasharray:none;stroke-opacity:1" />
    <path
       sodipodi:nodetypes="cccccccccc"
       inkscape:connector-curvature="0"
       style="fill:url(#linearGradient1312);stroke-width:0.125"
       d="M 77.501238,34.022256 79.999766,31.02103 79.502666,30.52442 78,31.5 V 25 l -1,5e-4 -2.5e-5,6.499999 -1.478466,-0.974127 -0.52177,0.497111 z"
       id="path1310" />
  </g>
  <g
     aria-label="∇"
     style="font-style:normal;font-weight:normal;font-size:82.87275696px;line-height:1.25;font-family:sans-serif;letter-spacing:0px;word-spacing:0px;fill:#000000;fill-opacity:1;stroke:none;stroke-width:2.07181883"
     id="text1673">
    <path
       d="M 51.889217,21.998869 25.287062,79.015326 1.9998171,21.998869 Z m -5.883966,4.22651 H 12.690403 l 15.662951,37.955723 z"
       style="font-style:normal;font-variant:normal;font-weight:normal;font-stretch:normal;font-family:FreeSerif;-inkscape-font-specification:FreeSerif;stroke-width:2.07181883"
       id="path1686" />
  </g>
  <g
     aria-label="x"
     transform="scale(1.0352929,0.96591023)"
     style="font-style:normal;font-weight:normal;font-size:67.5128479px;line-height:1.25;font-family:sans-serif;letter-spacing:0px;word-spacing:0px;fill:#000000;fill-opacity:1;stroke:none;stroke-width:1.68782103"
     id="text1684">
    <path
       d="m 87.011565,43.944059 q -0.742641,0 -2.092898,-0.675129 -1.350257,-0.675128 -1.755334,-0.675128 -0.94518,0 -1.957873,0.877667 -1.012692,0.810154 -1.687821,1.687821 -0.675128,0.877667 -1.552795,2.227924 -0.810155,1.350257 -1.012693,1.620308 l 2.160411,10.532005 q 0.742641,3.578181 2.497975,3.578181 0.877667,0 1.687822,-0.675129 0.877667,-0.742641 2.835539,-3.308129 l 1.41777,0.94518 q -3.105591,4.455848 -5.468541,6.346207 -2.295437,1.89036 -4.725899,1.89036 -2.700514,0 -4.118284,-2.497975 -1.350257,-2.565489 -2.430462,-7.966516 l -1.620309,2.633001 q -2.903052,4.860925 -4.590873,6.346207 -1.687821,1.485283 -4.25331,1.485283 -1.890359,0 -3.105591,-1.080206 -1.215231,-1.147718 -1.215231,-2.903052 0,-1.552796 1.080206,-2.633001 1.080205,-1.147719 2.633001,-1.147719 1.012692,0 2.362949,0.742642 1.350257,0.675128 1.755334,0.675128 0.877667,0 1.552796,-0.540102 0.675128,-0.607616 1.687821,-2.227924 l 2.970565,-4.7259 -2.025385,-10.396978 q -0.540103,-2.497976 -1.350257,-3.510668 -0.810154,-1.012693 -2.430463,-1.012693 -0.945179,0 -2.362949,0.135025 v -1.822846 l 11.274645,-1.620309 q 1.552796,2.295437 3.038079,9.316773 4.05077,-5.603566 6.143669,-7.426413 2.160411,-1.89036 4.523361,-1.89036 1.552795,0 2.700513,1.282744 1.215232,1.215232 1.215232,2.903053 0,1.41777 -1.147719,2.497975 -1.080205,1.012693 -2.633001,1.012693 z"
       style="font-style:italic;font-variant:normal;font-weight:bold;font-stretch:normal;font-family:FreeSerif;-inkscape-font-specification:'FreeSerif Bold Italic';stroke-width:1.68782103"
       id="path1689" />
  </g>
</svg>
