<?xml version="1.0" encoding="UTF-8" standalone="no"?>
<svg
   xmlns:dc="http://purl.org/dc/elements/1.1/"
   xmlns:cc="http://creativecommons.org/ns#"
   xmlns:rdf="http://www.w3.org/1999/02/22-rdf-syntax-ns#"
   xmlns:svg="http://www.w3.org/2000/svg"
   xmlns="http://www.w3.org/2000/svg"
   xmlns:xlink="http://www.w3.org/1999/xlink"
   xmlns:sodipodi="http://sodipodi.sourceforge.net/DTD/sodipodi-0.dtd"
   xmlns:inkscape="http://www.inkscape.org/namespaces/inkscape"
   height="32"
   viewBox="0 0 8.4666665 8.4666669"
   width="32"
   version="1.1"
   id="svg70"
   sodipodi:docname="undo.svg"
   inkscape:version="0.92.4 (unknown)"
   inkscape:export-filename="/home/rizmut/Dokumen/Rizmut/Github/libreoffice-style-karasa-jaga/build/next/cmd/32/ar/undo.png"
   inkscape:export-xdpi="96"
   inkscape:export-ydpi="96">
  <metadata
     id="metadata76">
    <rdf:RDF>
      <cc:Work
         rdf:about="">
        <dc:format>image/svg+xml</dc:format>
        <dc:type
           rdf:resource="http://purl.org/dc/dcmitype/StillImage" />
        <dc:title></dc:title>
      </cc:Work>
    </rdf:RDF>
  </metadata>
  <defs
     id="defs74">
    <radialGradient
       id="i-3"
       cx="63.53083"
       cy="42.76326"
       gradientTransform="matrix(0.02788282,-4.4390733e-4,2.5764179e-4,0.01618297,2.1630714,2.7803938)"
       gradientUnits="userSpaceOnUse"
       r="58.68457">
      <stop
         offset="0"
         stop-color="#fff"
         id="stop32-6" />
      <stop
         offset="1"
         stop-color="#fff"
         stop-opacity="0"
         id="stop34-7" />
    </radialGradient>
    <radialGradient
       inkscape:collect="always"
       xlink:href="#a-5"
       id="radialGradient1639"
       cx="69.578148"
       cy="72.000839"
       fx="69.578148"
       fy="72.000839"
       r="69.09182"
       gradientTransform="matrix(1,0,0,0.73335864,0,19.198401)"
       gradientUnits="userSpaceOnUse" />
    <linearGradient
       id="a-5"
       gradientUnits="userSpaceOnUse"
       x1="7.157289"
       x2="7.186738"
       y1="63.928764"
       y2="156.35773">
      <stop
         offset="0"
         stop-color="#be9000"
         id="stop2-6" />
      <stop
         offset="1"
         stop-color="#7a5d00"
         stop-opacity="0"
         id="stop4-2"
         style="stop-color:#cb9b00;stop-opacity:1" />
    </linearGradient>
    <radialGradient
       inkscape:collect="always"
       xlink:href="#b"
       id="radialGradient1673"
       cx="53.332672"
       cy="90.18177"
       fx="53.332672"
       fy="90.18177"
       r="69.09182"
       gradientTransform="matrix(0.46315186,2.2242156e-8,-2.2242153e-8,0.4631518,28.631548,43.566131)"
       gradientUnits="userSpaceOnUse" />
    <linearGradient
       id="linearGradient1899">
      <stop
         offset="0"
         id="stop7-9" />
      <stop
         offset="1"
         stop-opacity="0"
         id="stop9-1" />
    </linearGradient>
    <radialGradient
       inkscape:collect="always"
       xlink:href="#b"
       id="radialGradient1677"
       gradientUnits="userSpaceOnUse"
       gradientTransform="matrix(0.46315186,2.2242156e-8,-2.2242153e-8,0.4631518,28.631548,43.566131)"
       cx="214.54692"
       cy="90.18177"
       fx="214.54692"
       fy="90.18177"
       r="69.09182" />
    <radialGradient
       inkscape:collect="always"
       xlink:href="#b"
       id="radialGradient1706"
       gradientUnits="userSpaceOnUse"
       gradientTransform="matrix(-0.55470019,0.83205029,-0.57261693,-0.38174462,255.21703,138.94719)"
       cx="48.146801"
       cy="371.12186"
       r="55.883793"
       fx="48.146801"
       fy="371.12186" />
    <radialGradient
       inkscape:collect="always"
       xlink:href="#i-2"
       id="radialGradient1681"
       gradientUnits="userSpaceOnUse"
       gradientTransform="matrix(0.46315186,0,0,0.27017191,28.631548,43.191624)"
       cx="93.63623"
       cy="-1.9406573"
       fx="93.63623"
       fy="-1.9406573"
       r="69.09182" />
    <radialGradient
       id="i-2"
       cx="63.53083"
       cy="42.76326"
       gradientTransform="matrix(0.56204738,-0.00894808,0.00519341,0.32620801,27.601407,34.713045)"
       gradientUnits="userSpaceOnUse"
       r="58.68457">
      <stop
         offset="0"
         stop-color="#fff"
         id="stop32-7" />
      <stop
         offset="1"
         stop-color="#fff"
         stop-opacity="0"
         id="stop34-0" />
    </radialGradient>
    <radialGradient
       id="j-9"
       cx="64.245117"
       cy="66.666397"
       gradientTransform="matrix(0.99799039,0.06336543,-0.01762177,0.27753862,1.303887,44.092977)"
       gradientUnits="userSpaceOnUse"
       r="55.883793"
       xlink:href="#b" />
    <radialGradient
       id="k-3"
       cx="79.842957"
       cy="8.71136"
       gradientTransform="matrix(-0.04309695,0.99907089,-0.27068507,-0.01167655,118.53146,-6.434667)"
       gradientUnits="userSpaceOnUse"
       r="55.883793"
       xlink:href="#b" />
    <radialGradient
       id="g-6"
       cx="61.745636"
       cy="81.787704"
       gradientTransform="matrix(0.60055947,-0.01380792,0.0138283,0.60144596,23.532724,29.771267)"
       gradientUnits="userSpaceOnUse"
       r="53.588345"
       xlink:href="#c" />
    <linearGradient
       id="linearGradient1913">
      <stop
         offset="0"
         stop-color="#eaf209"
         id="stop12-0" />
      <stop
         offset="1"
         stop-color="#c7c634"
         stop-opacity="0"
         id="stop14-6" />
    </linearGradient>
    <radialGradient
       id="h-2"
       cx="68.344757"
       cy="79.286057"
       gradientTransform="matrix(0.89273806,0.02389254,-0.01609512,0.60138957,5.936359,27.19911)"
       gradientUnits="userSpaceOnUse"
       r="53.588345">
      <stop
         offset="0"
         stop-color="#fcff0f"
         id="stop27-6" />
      <stop
         offset="1"
         stop-color="#db8900"
         id="stop29-1" />
    </radialGradient>
    <linearGradient
       id="f-8"
       gradientUnits="userSpaceOnUse"
       x1="71.809433"
       x2="72.415733"
       y1="30.338589"
       y2="76.767159">
      <stop
         offset="0"
         stop-color="#fffe63"
         id="stop21-7" />
      <stop
         offset="1"
         stop-color="#fff"
         stop-opacity="0"
         id="stop23-9" />
    </linearGradient>
    <linearGradient
       id="d-2"
       gradientUnits="userSpaceOnUse"
       x1="71.014435"
       x2="37.332672"
       xlink:href="#c"
       y1="111.32386"
       y2="21.333975"
       gradientTransform="translate(-3.285203e-6)" />
    <filter
       id="e-0"
       height="1.0530601"
       width="1.039979"
       x="-0.019989001"
       y="-0.026529999"
       style="color-interpolation-filters:sRGB">
      <feGaussianBlur
         stdDeviation=".8843393"
         id="feGaussianBlur18-2" />
    </filter>
    <filter
       id="e-0-3"
       height="1.0530601"
       width="1.039979"
       x="-0.019989001"
       y="-0.026529999"
       style="color-interpolation-filters:sRGB">
      <feGaussianBlur
         stdDeviation=".8843393"
         id="feGaussianBlur18-2-6" />
    </filter>
  </defs>
  <sodipodi:namedview
     pagecolor="#ffffff"
     bordercolor="#666666"
     borderopacity="1"
     objecttolerance="10"
     gridtolerance="10"
     guidetolerance="10"
     inkscape:pageopacity="0"
     inkscape:pageshadow="2"
     inkscape:window-width="1366"
     inkscape:window-height="714"
     id="namedview72"
     showgrid="true"
     showguides="true"
     inkscape:zoom="9.8333331"
     inkscape:cx="-5.0368355"
     inkscape:cy="11.198716"
     inkscape:window-x="0"
     inkscape:window-y="28"
     inkscape:window-maximized="1"
     inkscape:current-layer="g1622">
    <inkscape:grid
       type="xygrid"
       id="grid886" />
  </sodipodi:namedview>
  <linearGradient
     id="a"
     gradientUnits="userSpaceOnUse"
     x1="7.157289"
     x2="7.186738"
     y1="63.928764"
     y2="156.35773">
    <stop
       offset="0"
       stop-color="#be9000"
       id="stop2" />
    <stop
       offset="1"
       stop-color="#7a5d00"
       stop-opacity="0"
       id="stop4"
       style="stop-color:#cb9b00;stop-opacity:1" />
  </linearGradient>
  <linearGradient
     id="b">
    <stop
       offset="0"
       id="stop7" />
    <stop
       offset="1"
       stop-opacity="0"
       id="stop9" />
  </linearGradient>
  <linearGradient
     id="c">
    <stop
       offset="0"
       stop-color="#eaf209"
       id="stop12" />
    <stop
       offset="1"
       stop-color="#c7c634"
       stop-opacity="0"
       id="stop14" />
  </linearGradient>
  <linearGradient
     id="d"
     gradientUnits="userSpaceOnUse"
     x1="71.014435"
     x2="71.048264"
     xlink:href="#c"
     y1="111.32386"
     y2="64.538147" />
  <filter
     id="e"
     height="1.0530601"
     width="1.039979"
     x="-0.019989001"
     y="-0.026529999"
     style="color-interpolation-filters:sRGB">
    <feGaussianBlur
       stdDeviation=".8843393"
       id="feGaussianBlur18" />
  </filter>
  <linearGradient
     id="f"
     gradientUnits="userSpaceOnUse"
     x1="71.809433"
     x2="72.415733"
     y1="30.338589"
     y2="76.767159">
    <stop
       offset="0"
       stop-color="#fffe63"
       id="stop21" />
    <stop
       offset="1"
       stop-color="#fff"
       stop-opacity="0"
       id="stop23" />
  </linearGradient>
  <radialGradient
     id="g"
     cx="61.745636"
     cy="81.787704"
     gradientTransform="matrix(0.60055947,-0.01380792,0.0138283,0.60144596,23.532724,29.771267)"
     gradientUnits="userSpaceOnUse"
     r="53.588345"
     xlink:href="#c" />
  <radialGradient
     id="h"
     cx="68.344757"
     cy="79.286057"
     gradientTransform="matrix(0.89273806,0.02389254,-0.01609512,0.60138957,5.936359,27.19911)"
     gradientUnits="userSpaceOnUse"
     r="53.588345">
    <stop
       offset="0"
       stop-color="#fcff0f"
       id="stop27" />
    <stop
       offset="1"
       stop-color="#db8900"
       id="stop29" />
  </radialGradient>
  <radialGradient
     id="i"
     cx="63.53083"
     cy="42.76326"
     gradientTransform="matrix(0.56204738,-0.00894808,0.00519341,0.32620801,27.601407,34.713045)"
     gradientUnits="userSpaceOnUse"
     r="58.68457">
    <stop
       offset="0"
       stop-color="#fff"
       id="stop32" />
    <stop
       offset="1"
       stop-color="#fff"
       stop-opacity="0"
       id="stop34" />
  </radialGradient>
  <radialGradient
     id="j"
     cx="64.245117"
     cy="66.666397"
     gradientTransform="matrix(0.99799039,0.06336543,-0.01762177,0.27753862,1.303887,44.092977)"
     gradientUnits="userSpaceOnUse"
     r="55.883793"
     xlink:href="#b" />
  <radialGradient
     id="k"
     cx="79.842957"
     cy="8.71136"
     gradientTransform="matrix(-0.04309695,0.99907089,-0.27068507,-0.01167655,118.53146,-6.434667)"
     gradientUnits="userSpaceOnUse"
     r="55.883793"
     xlink:href="#b" />
  <radialGradient
     id="l"
     cx="86.40406"
     cy="355.98929"
     gradientTransform="matrix(-0.50101706,0.39536053,-0.25808676,-0.32705811,153.61276,158.00082)"
     gradientUnits="userSpaceOnUse"
     r="55.883793"
     xlink:href="#b" />
  <radialGradient
     id="m"
     cx="34.104187"
     cy="132.8271"
     gradientTransform="matrix(0.01432491,0.45357311,-0.32608676,0.0102986,90.284022,60.900467)"
     gradientUnits="userSpaceOnUse"
     r="58.68457"
     xlink:href="#b" />
  <radialGradient
     id="n"
     cx="32.629417"
     cy="-101.06063"
     gradientTransform="matrix(0.36292386,0.21526192,-0.19646542,0.33123368,88.402991,105.15478)"
     gradientUnits="userSpaceOnUse"
     r="58.68457"
     xlink:href="#b" />
  <g
     id="g1622"
     transform="matrix(-0.04960937,0,0,0.04960937,7.6729158,0.79371804)">
    <path
       inkscape:connector-curvature="0"
       style="opacity:1;fill:url(#radialGradient1639);fill-opacity:1;stroke:none"
       d="m 42.509115,16.001945 c -1.333196,0.03889 -2.605757,0.576537 -3.5625,1.50586 l -0.002,0.002 -35.5285994,34.718711 c -0.1999081,0.197864 -0.3655727,0.42755 -0.4902344,0.679687 -1.3347306,1.447903 -2.43945308,3.288335 -2.43945308,5.609375 0,2.605277 1.23792648,4.724536 2.56445308,6.302734 0.00389,0.0039 0.0078,0.0078 0.011719,0.01172 0.1138126,0.133654 0.2347378,0.262827 0.3613281,0.384766 l 0.00781,0.0078 c 0.00133,0.0013 0.00258,0.0026 0.00391,0.0039 L 38.952475,99.83073 c 1.617054,1.56632 3.980683,1.84808 5.791015,1.08203 1.810332,-0.76605 3.256194,-2.658885 3.257813,-4.910155 v -0.002 -21.318966 l 58.652997,0.279299 c -0.78586,-0.0035 -0.18142,0.01589 -0.0937,0.103515 0.0898,0.0898 0.10351,0.701408 0.10351,-0.107422 v 31.419919 10.95703 c 4.7e-4,2.91614 2.41979,5.33547 5.33594,5.33594 h 21.33398 c 2.91617,-4.5e-4 5.33547,-2.41979 5.33594,-5.33594 v -42.376949 -0.0039 c -4.9e-4,-0.260238 -0.075,-0.512702 -0.11328,-0.769531 0.0459,-0.56252 0.11239,-1.18846 0.11328,-1.945313 v -0.0039 -0.0039 C 138.66959,56.117978 125.5051,42.954103 109.39258,42.955078 h -0.002 -0.002 c -0.76085,3.37e-4 -1.38745,0.06757 -1.94922,0.113281 -0.25426,-0.038 -0.50403,-0.112325 -0.76172,-0.113281 h -0.006 l -58.670337,-0.27865 v -21.342451 -0.002 c -0.0013,-2.973423 -2.518281,-5.415731 -5.490235,-5.330078 z"
       id="path1624"
       sodipodi:nodetypes="cccccsccccccscccccccccccccccccccccccccccc" />
    <path
       inkscape:connector-curvature="0"
       id="path1663"
       d="m 42.509115,16.001945 c -1.333196,0.03889 -2.605757,0.576537 -3.5625,1.50586 l -0.002,0.002 -35.5285994,34.718711 c -0.1999081,0.197864 -0.3655727,0.42755 -0.4902344,0.679687 -1.3347306,1.447903 -2.43945308,3.288335 -2.43945308,5.609375 0,2.605277 1.23792648,4.724536 2.56445308,6.302734 0.00389,0.0039 0.0078,0.0078 0.011719,0.01172 0.1138126,0.133654 0.2347378,0.262827 0.3613281,0.384766 l 0.00781,0.0078 c 0.00133,0.0013 0.00258,0.0026 0.00391,0.0039 L 38.952475,99.83073 c 1.617054,1.56632 3.980683,1.84808 5.791015,1.08203 1.810332,-0.76605 3.256194,-2.658885 3.257813,-4.910155 v -0.002 -21.318966 l 58.652997,0.279299 c -0.78586,-0.0035 -0.18142,0.01589 -0.0937,0.103515 0.0898,0.0898 0.10351,0.701408 0.10351,-0.107422 v 31.419919 10.95703 c 4.7e-4,2.91614 2.41979,5.33547 5.33594,5.33594 h 21.33398 c 2.91617,-4.5e-4 5.33547,-2.41979 5.33594,-5.33594 v -42.376949 -0.0039 c -4.9e-4,-0.260238 -0.075,-0.512702 -0.11328,-0.769531 0.0459,-0.56252 0.11239,-1.18846 0.11328,-1.945313 v -0.0039 -0.0039 C 138.66959,56.117978 125.5051,42.954103 109.39258,42.955078 h -0.002 -0.002 c -0.76085,3.37e-4 -1.38745,0.06757 -1.94922,0.113281 -0.25426,-0.038 -0.50403,-0.112325 -0.76172,-0.113281 h -0.006 l -58.670337,-0.27865 v -21.342451 -0.002 c -0.0013,-2.973423 -2.518281,-5.415731 -5.490235,-5.330078 z"
       style="opacity:1;fill:url(#radialGradient1673);fill-opacity:1;stroke:none"
       sodipodi:nodetypes="cccccsccccccscccccccccccccccccccccccccccc" />
    <path
       inkscape:connector-curvature="0"
       style="opacity:1;fill:url(#radialGradient1677);fill-opacity:1;stroke:none"
       d="m 42.509115,16.001945 c -1.333196,0.03889 -2.605757,0.576537 -3.5625,1.50586 l -0.002,0.002 -35.5285994,34.718711 c -0.1999081,0.197864 -0.3655727,0.42755 -0.4902344,0.679687 -1.3347306,1.447903 -2.43945308,3.288335 -2.43945308,5.609375 0,2.605277 1.23792648,4.724536 2.56445308,6.302734 0.00389,0.0039 0.0078,0.0078 0.011719,0.01172 0.1138126,0.133654 0.2347378,0.262827 0.3613281,0.384766 l 0.00781,0.0078 c 0.00133,0.0013 0.00258,0.0026 0.00391,0.0039 L 38.952475,99.83073 c 1.617054,1.56632 3.980683,1.84808 5.791015,1.08203 1.810332,-0.76605 3.256194,-2.658885 3.257813,-4.910155 v -0.002 -21.318966 l 58.652997,0.279299 c -0.78586,-0.0035 -0.18142,0.01589 -0.0937,0.103515 0.0898,0.0898 0.10351,0.701408 0.10351,-0.107422 v 31.419919 10.95703 c 4.7e-4,2.91614 2.41979,5.33547 5.33594,5.33594 h 21.33398 c 2.91617,-4.5e-4 5.33547,-2.41979 5.33594,-5.33594 v -42.376949 -0.0039 c -4.9e-4,-0.260238 -0.075,-0.512702 -0.11328,-0.769531 0.0459,-0.56252 0.11239,-1.18846 0.11328,-1.945313 v -0.0039 -0.0039 C 138.66959,56.117978 125.5051,42.954103 109.39258,42.955078 h -0.002 -0.002 c -0.76085,3.37e-4 -1.38745,0.06757 -1.94922,0.113281 -0.25426,-0.038 -0.50403,-0.112325 -0.76172,-0.113281 h -0.006 l -58.670337,-0.27865 v -21.342451 -0.002 c -0.0013,-2.973423 -2.518281,-5.415731 -5.490235,-5.330078 z"
       id="path1675"
       sodipodi:nodetypes="cccccsccccccscccccccccccccccccccccccccccc" />
    <path
       sodipodi:nodetypes="ccccscccccssscccccccccccccccc"
       style="fill:#d3a036;fill-opacity:0.91372501"
       inkscape:connector-curvature="0"
       id="path1604"
       d="m 42.583974,18.541006 c -0.699198,0.02014 -1.365437,0.301691 -1.867187,0.789062 l -35.5286467,34.718758 0.09961,-0.0918 c -1.2572325,1.110484 -2.2597659,2.753485 -2.2597659,4.560547 0,1.807062 0.8516864,3.338973 1.9687499,4.667969 0.06155,0.07228 0.126735,0.141382 0.195313,0.207031 L 40.720693,98.006506 c 1.772741,1.71712 4.73846,0.462158 4.740235,-2.005859 V 72.128899 l 61.204432,0.291672 c 0.4021,0.0019 1.1306,0.287117 1.69141,0.847656 0.56081,0.56054 0.86307,1.288334 0.84765,1.689454 v 31.419269 10.95704 c 2.5e-4,1.54349 1.25144,2.79467 2.79493,2.79492 h 21.33398 c 1.54349,-2.4e-4 2.79468,-1.25143 2.79493,-2.79492 V 74.957684 c -5.1e-4,-0.267177 -0.0393,-0.532901 -0.11524,-0.789063 0.0492,-0.640352 0.11446,-1.271999 0.11524,-1.933594 v -0.0039 c -3e-4,-14.732658 -12.00367,-26.735267 -26.73634,-26.734375 h -0.002 c -0.66307,2.94e-4 -1.2959,0.06631 -1.9375,0.115234 -0.25551,-0.07574 -0.52055,-0.114542 -0.78706,-0.11524 L 45.460928,45.205723 V 21.333975 c -6.79e-4,-1.575328 -1.302297,-2.838949 -2.876954,-2.792969 z" />
    <path
       inkscape:connector-curvature="0"
       id="path1679"
       d="m 42.509115,16.001945 c -1.333196,0.03889 -2.605757,0.576537 -3.5625,1.50586 l -0.002,0.002 -35.5285994,34.718711 c -0.1999081,0.197864 -0.3655727,0.42755 -0.4902344,0.679687 -1.3347306,1.447903 -2.43945308,3.288335 -2.43945308,5.609375 0,2.605277 1.23792648,4.724536 2.56445308,6.302734 0.00389,0.0039 0.0078,0.0078 0.011719,0.01172 0.1138126,0.133654 0.2347378,0.262827 0.3613281,0.384766 l 0.00781,0.0078 c 0.00133,0.0013 0.00258,0.0026 0.00391,0.0039 L 38.952475,99.83073 c 1.617054,1.56632 3.980683,1.84808 5.791015,1.08203 1.810332,-0.76605 3.256194,-2.658885 3.257813,-4.910155 v -0.002 -21.318966 l 58.652997,0.279299 c -0.78586,-0.0035 -0.18142,0.01589 -0.0937,0.103515 0.0898,0.0898 0.10351,0.701408 0.10351,-0.107422 v 31.419919 10.95703 c 4.7e-4,2.91614 2.41979,5.33547 5.33594,5.33594 h 21.33398 c 2.91617,-4.5e-4 5.33547,-2.41979 5.33594,-5.33594 v -42.376949 -0.0039 c -4.9e-4,-0.260238 -0.075,-0.512702 -0.11328,-0.769531 0.0459,-0.56252 0.11239,-1.18846 0.11328,-1.945313 v -0.0039 -0.0039 C 138.66959,56.117978 125.5051,42.954103 109.39258,42.955078 h -0.002 -0.002 c -0.76085,3.37e-4 -1.38745,0.06757 -1.94922,0.113281 -0.25426,-0.038 -0.50403,-0.112325 -0.76172,-0.113281 h -0.006 l -58.670337,-0.27865 v -21.342451 -0.002 c -0.0013,-2.973423 -2.518281,-5.415731 -5.490235,-5.330078 z"
       style="opacity:1;fill:url(#radialGradient1681);fill-opacity:1;stroke:none"
       sodipodi:nodetypes="cccccsccccccscccccccccccccccccccccccccccc" />
    <path
       d="m 42.583974,18.541006 c -0.699198,0.02014 -1.365437,0.301691 -1.867187,0.789062 l -35.5286467,34.718758 0.09961,-0.0918 c -1.2572325,1.110484 -2.2597659,2.753485 -2.2597659,4.560547 0,1.807062 0.8516864,3.338973 1.9687499,4.667969 0.06155,0.07228 0.126735,0.141382 0.195313,0.207031 L 40.720693,98.006506 c 1.772741,1.71712 4.73846,0.462158 4.740235,-2.005859 V 72.128899 l 61.204432,0.291672 c 0.4021,0.0019 1.1306,0.287117 1.69141,0.847656 0.56081,0.56054 0.84765,1.288038 0.84765,1.689454 v 31.419269 10.95704 c 2.5e-4,1.54349 1.25144,2.79467 2.79493,2.79492 h 21.33398 c 1.54349,-2.4e-4 2.79468,-1.25143 2.79493,-2.79492 V 74.957684 c -5.1e-4,-0.267177 -0.0393,-0.532901 -0.11524,-0.789063 0.0492,-0.640352 0.11446,-1.271999 0.11524,-1.933594 v -0.0039 c -3e-4,-14.732658 -12.00367,-26.735267 -26.73634,-26.734375 h -0.002 c -0.66307,2.94e-4 -1.2959,0.06631 -1.9375,0.115234 -0.25551,-0.07574 -0.52055,-0.114542 -0.78706,-0.11524 L 45.460928,45.205723 V 21.333975 c -6.79e-4,-1.575328 -1.302297,-2.838949 -2.876954,-2.792969 z"
       id="path1704"
       inkscape:connector-curvature="0"
       style="opacity:0.5;fill:url(#radialGradient1706)"
       sodipodi:nodetypes="ccccscccccssscccccccccccccccc" />
    <path
       sodipodi:nodetypes="ccccscccccssscccccccccccccccc"
       style="opacity:0.5;fill:url(#j-9)"
       inkscape:connector-curvature="0"
       id="path1606"
       d="m 42.583974,18.541006 c -0.699198,0.02014 -1.365437,0.301691 -1.867187,0.789062 l -35.5286467,34.718758 0.09961,-0.0918 c -1.2572325,1.110484 -2.2597659,2.753485 -2.2597659,4.560547 0,1.807062 0.8516864,3.338973 1.9687499,4.667969 0.06155,0.07228 0.126735,0.141382 0.195313,0.207031 L 40.720693,98.006506 c 1.772741,1.71712 4.73846,0.462158 4.740235,-2.005859 V 72.128899 l 61.204432,0.291672 c 0.4021,0.0019 1.1306,0.287117 1.69141,0.847656 0.56081,0.56054 0.84765,1.288038 0.84765,1.689454 v 31.419269 10.95704 c 2.5e-4,1.54349 1.25144,2.79467 2.79493,2.79492 h 21.33398 c 1.54349,-2.4e-4 2.79468,-1.25143 2.79493,-2.79492 V 74.957684 c -5.1e-4,-0.267177 -0.0393,-0.532901 -0.11524,-0.789063 0.0492,-0.640352 0.11446,-1.271999 0.11524,-1.933594 v -0.0039 c -3e-4,-14.732658 -12.00367,-26.735267 -26.73634,-26.734375 h -0.002 c -0.66307,2.94e-4 -1.2959,0.06631 -1.9375,0.115234 -0.25551,-0.07574 -0.52055,-0.114542 -0.78706,-0.11524 L 45.460928,45.205723 V 21.333975 c -6.79e-4,-1.575328 -1.302297,-2.838949 -2.876954,-2.792969 z" />
    <path
       sodipodi:nodetypes="ccccscccccssscccccccccccccccc"
       style="opacity:0.5;fill:url(#k-3)"
       inkscape:connector-curvature="0"
       id="path1608"
       d="m 42.583974,18.541006 c -0.699198,0.02014 -1.365437,0.301691 -1.867187,0.789062 l -35.5286467,34.718758 0.09961,-0.0918 c -1.2572325,1.110484 -2.2597659,2.753485 -2.2597659,4.560547 0,1.807062 0.8516864,3.338973 1.9687499,4.667969 0.06155,0.07228 0.126735,0.141382 0.195313,0.207031 L 40.720693,98.006506 c 1.772741,1.71712 4.73846,0.462158 4.740235,-2.005859 V 72.128899 l 61.204432,0.291672 c 0.4021,0.0019 1.1306,0.287117 1.69141,0.847656 0.56081,0.56054 0.84765,1.288038 0.84765,1.689454 v 31.419269 10.95704 c 2.5e-4,1.54349 1.25144,2.79467 2.79493,2.79492 h 21.33398 c 1.54349,-2.4e-4 2.79468,-1.25143 2.79493,-2.79492 V 74.957684 c -5.1e-4,-0.267177 -0.0393,-0.532901 -0.11524,-0.789063 0.0492,-0.640352 0.11446,-1.271999 0.11524,-1.933594 v -0.0039 c -3e-4,-14.732658 -12.00367,-26.735267 -26.73634,-26.734375 h -0.002 c -0.66307,2.94e-4 -1.2959,0.06631 -1.9375,0.115234 -0.25551,-0.07574 -0.52055,-0.114542 -0.78706,-0.11524 L 45.460928,45.205723 V 21.333975 c -6.79e-4,-1.575328 -1.302297,-2.838949 -2.876954,-2.792969 z" />
    <path
       sodipodi:nodetypes="cccccssccccccccccc"
       style="fill:url(#g-6)"
       inkscape:connector-curvature="0"
       id="path1610"
       d="M 42.666006,21.333975 7.1373593,56.052732 c -1.751219,1.54681 -1.751219,3.25052 0,5.333985 L 42.666006,96.00065 V 69.33398 l 63.999354,0.291672 c 2.66665,0.01215 5.33399,2.665362 5.33399,5.332032 v 31.419266 10.95704 h 21.33398 V 74.957684 h -0.16406 c 0.10305,-0.896096 0.16298,-1.805081 0.16406,-2.726563 -2.7e-4,-13.222041 -10.71936,-23.940254 -23.94141,-23.939453 -0.92171,4.08e-4 -1.83018,0.05967 -2.72656,0.162109 V 48.291668 L 42.666006,48.000645 Z" />
    <path
       sodipodi:nodetypes="cccccssccccccccccc"
       style="fill:url(#h-2)"
       inkscape:connector-curvature="0"
       id="path1614"
       d="M 42.666006,21.333975 7.1373593,56.052732 c -1.751219,1.54681 -1.751219,3.25052 0,5.333985 L 42.666006,96.00065 V 69.33398 l 63.999354,0.291672 c 2.66665,0.01215 5.33399,2.665362 5.33399,5.332032 v 31.419266 10.95704 h 21.33398 V 74.957684 h -0.16406 c 0.10305,-0.896096 0.16298,-1.805081 0.16406,-2.726563 -6.5e-4,-13.563806 -10.66732,-24.230474 -23.94141,-23.939453 -0.92171,4.08e-4 -1.83018,0.05967 -2.72656,0.162109 V 48.291668 L 42.666006,48.000645 Z" />
    <path
       sodipodi:nodetypes="ccscccccc"
       style="fill:url(#f-8)"
       inkscape:connector-curvature="0"
       id="path1616"
       d="M 42.666006,21.333975 7.5475153,55.654295 C 22.797239,60.98601 48.973065,64.806978 71.972656,65.875 c 15.244993,0.707924 46.887974,2.076353 61.085284,2.713543 -1.75455,-11.493449 -11.68221,-20.297601 -23.66602,-20.296875 -0.92171,4.08e-4 -1.83018,0.05967 -2.72656,0.162109 V 48.291668 L 42.666006,48.000645 Z" />
    <path
       sodipodi:nodetypes="cccccssccccccccccc"
       style="fill:none;stroke:url(#d-2);filter:url(#e-0-3)"
       inkscape:connector-curvature="0"
       id="path1618"
       d="M 42.666002,21.333975 7.1373557,56.052732 c -1.751219,1.54681 -1.751219,3.25052 0,5.333985 L 42.666002,96.00065 V 69.33398 l 63.999358,0.291672 c 2.66665,0.01215 5.42019,2.666755 5.33399,5.332032 v 21.042968 21.333338 h 21.33398 V 74.957684 h -0.16406 c 0.10305,-0.896096 0.16298,-1.805081 0.16406,-2.726563 -2.36903,-7.596925 -5.49963,-23.2536 -23.94141,-23.939453 -0.92171,4.08e-4 -1.83018,0.05967 -2.72656,0.162109 V 48.291668 L 42.666002,47.999996 Z" />
  </g>
</svg>
