<svg enable-background="new 0 0 128 128" height="128" viewBox="0 0 128 128" width="128" xmlns="http://www.w3.org/2000/svg" xmlns:xlink="http://www.w3.org/1999/xlink"><linearGradient id="a" gradientUnits="userSpaceOnUse" x1="88.591797" x2="71.262016" y1="96.592697" y2="79.262917"><stop offset="0" stop-color="#fff"/><stop offset="1" stop-color="#555753"/></linearGradient><linearGradient id="b" gradientUnits="userSpaceOnUse" x1="85.219681" x2="61.336319" y1="93.219681" y2="69.336319"><stop offset="0"/><stop offset="1" stop-color="#393b38"/></linearGradient><linearGradient id="c" gradientUnits="userSpaceOnUse" x1="96" x2="88.0002" y1="104" y2="96.0002"><stop offset="0" stop-color="#888a85"/><stop offset=".0072" stop-color="#8c8e89"/><stop offset=".0673" stop-color="#abaca9"/><stop offset=".1347" stop-color="#c5c6c4"/><stop offset=".2115" stop-color="#dbdbda"/><stop offset=".3012" stop-color="#ebebeb"/><stop offset=".4122" stop-color="#f7f7f6"/><stop offset=".5679" stop-color="#fdfdfd"/><stop offset="1" stop-color="#fff"/></linearGradient><radialGradient id="d" cx="102" cy="112.3047" gradientTransform="matrix(.94807 0 0 .9510679 3.32352 5.274458)" gradientUnits="userSpaceOnUse" r="139.55859"><stop offset="0" stop-color="#535557"/><stop offset=".11366145" stop-color="#898a8c"/><stop offset=".20296688" stop-color="#ececec"/><stop offset=".2363" stop-color="#fafafa"/><stop offset=".2722" stop-color="#fff"/><stop offset=".5313" stop-color="#fafafa"/><stop offset=".8449" stop-color="#ebecec"/><stop offset="1" stop-color="#e1e2e3"/></radialGradient><radialGradient id="e" cx="100.8098464" cy="112.93460525694" gradientUnits="userSpaceOnUse" r="135.1875556917"><stop offset="0" stop-color="#3e3e3e"/><stop offset=".0151" stop-color="#505050"/><stop offset=".0558" stop-color="#7e7e7e"/><stop offset=".1357" stop-color="#c6c6c6"/><stop offset=".20990001" stop-color="#f1f1f1"/><stop offset=".24349999" stop-color="#fcfcfc"/><stop offset=".2722" stop-color="#fff"/></radialGradient><filter id="f"><feGaussianBlur stdDeviation="1.0394514"/></filter><filter id="g"><feGaussianBlur stdDeviation=".50063244"/></filter><filter id="h"><feGaussianBlur stdDeviation=".40750996"/></filter><filter id="i"><feGaussianBlur stdDeviation=".4901192"/></filter><filter id="j"><feGaussianBlur stdDeviation=".90565481"/></filter><filter id="k" height="1.083722" width="1.585751" x="-.292876" y="-.041861"><feGaussianBlur stdDeviation=".97625222"/></filter><linearGradient id="l" gradientUnits="userSpaceOnUse" x1="32" x2="32" y1="22.51432" y2="73.918198"><stop offset="0" stop-color="#e00000"/><stop offset="1" stop-color="#f00" stop-opacity=".407895"/></linearGradient><linearGradient id="m" gradientUnits="userSpaceOnUse" spreadMethod="reflect" x1="32" x2="32" y1="71.92112" y2="42.556587"><stop offset="0" stop-color="#e20800"/><stop offset="1" stop-color="#9c0f0f"/></linearGradient><linearGradient id="n" gradientUnits="userSpaceOnUse" spreadMethod="reflect" x1="32" x2="32" xlink:href="#o" y1="17.963892" y2="41.469219"/><linearGradient id="o"><stop offset="0" stop-color="#f9ccca"/><stop offset="1" stop-color="#f9ccca" stop-opacity="0"/></linearGradient><clipPath id="p"><path d="m33.6875 23.03125c-1.995923.021699-3.886526.055545-5.6875.09375v56.875l4-4 4 4v-56.96875c-.759566.0053-1.581338-.0079-2.3125 0z"/></clipPath><filter id="q"><feGaussianBlur stdDeviation=".32485683"/></filter><linearGradient id="r" gradientUnits="userSpaceOnUse" x1="32" x2="32" xlink:href="#o" y1="20.528635" y2="24.486135"/><path d="m23 8.9687825.040816 114.0246875h61.131184c.53 0 1.039-.211 1.414-.586l32.828-32.828001c.375-.375.586-.884.586-1.414v-79.1966865z" filter="url(#f)" opacity=".553425" transform="matrix(1.0090419 0 0 1.003276 -7.641977 .929762)"/><path d="m23 9 .04082 113.99347h61.13118c.53 0 1.039-.211 1.414-.586l32.828-32.828001c.375-.375.586-.884.586-1.414v-79.165469z" filter="url(#f)" opacity=".306849" transform="matrix(1.0090419 0 0 1.003276 -7.641977 .929762)"/><path d="m24.905735 10.673272.01426 110.189918 58.676001-.0001c.53 0 1.039-.211 1.414-.586l31.484-31.765934c.375-.375.586-.884.586-1.414l.0812-76.423884z" filter="url(#g)" opacity=".89589" transform="matrix(1.0090419 0 0 1.003276 -7.641977 .929762)"/><path d="m23 9.9655172.040816 113.0279528h61.131184c.53 0 1.039-.211 1.414-.586l32.828-32.828001c.375-.375.586-.884.586-1.414v-78.1999518z" filter="url(#f)" opacity=".306849" transform="matrix(1.0090419 0 0 1.003276 -7.641977 .929762)"/><path d="m17.488953 11.638.0144 110.55089h59.256106c.513401 0 1.006458-.20439 1.369714-.56765l31.799827-31.799829c.36326-.363255.56764-.856313.56764-1.369714l.08191-76.813697z" fill="url(#e)"/><path d="m24.066856 17.512144c-.522387 0-.94807.42703-.94807.951069l.321923 96.737247c0 .525.425684.95108.94807.95108h52.099199c.249342 0 .493944-.10082.670284-.27867l28.123238-27.221657c.17729-.17785.27778-.422273.27778-.672405l-.7-69.493672c0-.524039-.42473-.951068-.94806-.951068z" fill="url(#d)"/><g transform="matrix(1.1080161 0 0 1.1080161 -12.744784 -10.01667)"><path d="m111.414 86.586c.25-.25-26.379-1.586-31.414-1.586-1.654 0-3 1.346-3 3 0 5.035 1.336 31.664 1.586 31.414z" fill="url(#a)" filter="url(#h)" opacity=".750685"/><path d="m111.414 86.586c.375-.375-21.97-.586-31.414-.586-1.103 0-2 .897-2 2 0 9.444.211 31.789.586 31.414z" filter="url(#j)" opacity=".2"/><path d="m111.414 86.586c.239-.239-21.607.414-31.414.414-.553 0-1 .447-1 1 0 9.807-.653 31.653-.414 31.414z" fill="url(#b)" filter="url(#i)" opacity=".1"/><path d="m79.721619 119.31106 31.505501-31.505504h-31.505501z" fill="url(#c)"/></g><g transform="matrix(2.25223671095 0 0 1.67041671095 -32.9636244957 -28.4758436282)"><path d="m33.6875 26.929506c-1.995923.0217-3.886526.05554-5.6875.09375v53.976744l4-4 4 4v-54.070494c-.759566.0053-1.581338-.0079-2.3125 0z" filter="url(#k)" opacity=".772201" transform="matrix(1.1473488 0 0 1.0535988 -4.775548 -6.091506)"/><path d="m33.6875 20.53125c-1.995923.021699-3.886526.055545-5.6875.09375v56.875l4-4 4 4v-56.96875c-.759566.0053-1.581338-.0079-2.3125 0z" fill="none" stroke="url(#l)" stroke-linecap="round" stroke-linejoin="round" stroke-width="2"/><path d="m33.6875 20.03125c-1.995923.021699-3.886526.055545-5.6875.09375v56.875l4-4 4 4v-56.96875c-.759566.0053-1.581338-.0079-2.3125 0z" fill="url(#m)"/><path d="m33.6875 23.03125c-1.995923.021699-3.886526.055545-5.6875.09375v56.875l4-4 4 4v-56.96875c-.759566.0053-1.581338-.0079-2.3125 0z" style="opacity:.6139;fill:none;stroke-width:2.176927;stroke-linecap:round;stroke-linejoin:round;clip-path:url(#p);stroke:url(#n);filter:url(#q)" transform="translate(0 -3)"/><path d="m33.6875 20.53125c-1.995923.021699-3.886526.055545-5.6875.09375v5c1.800974-.03821 3.691577-.07205 5.6875-.09375.731162-.0079 1.552934.0053 2.3125 0v-5c-.759566.0053-1.581338-.0079-2.3125 0z" fill="url(#r)"/></g></svg>