<svg height="128" viewBox="0 0 33.866666 33.866668" width="128" xmlns="http://www.w3.org/2000/svg" xmlns:xlink="http://www.w3.org/1999/xlink"><linearGradient id="a" gradientUnits="userSpaceOnUse" x1="9.851783" x2="26.88537" y1="8.664302" y2="8.664302"><stop offset="0" stop-color="#3b3e22"/><stop offset="1" stop-color="#454545" stop-opacity="0"/></linearGradient><linearGradient id="b" gradientUnits="userSpaceOnUse" x1="18.278177" x2="19.438392" y1="27.120033" y2=".435067"><stop offset="0" stop-color="#555"/><stop offset="1"/></linearGradient><text style="font-size:38.588238;font-family:sans-serif;letter-spacing:0;word-spacing:0;stroke-width:.964705;fill:url(#b)" transform="scale(1.0525265 .95009484)" x="4.799371" y="26.882204"><tspan fill="url(#b)" font-family="FreeSerif" font-size="40.607559" stroke-width=".964705" x="4.799371" y="26.882204">P</tspan></text><path d="m9.8517829 1.1634675c.5978551.81753.7193361 1.7563193.7193361 3.041158v11.8447555a21.71497 14.206056 0 0 0 1.78232.115755v-1.850533a1.2899453 1.164408 0 0 1 .325045-.772046 1.2899453 1.164408 0 0 1 -.325045-.772046v-10.031429c0-.5447486.104426-1.0772598.489376-1.5756145zm12.3858081.7606771c.002.00137.0021.00432.0041.00568.0028.00194.0075.00167.01034.00362zm.104903.122473c1.627534 1.1719124 2.462382 3.0061684 2.462382 5.1681601 0 2.1124224-.75246 3.9329893-2.304252 5.1252683.597421-.205052 1.329535-.395524 1.704288-.615983.693173-.43358 1.212748-.91561 1.595251-1.463993a1.2899453 1.164408 0 0 1 .0186-.02635c.451951-.6119509.722077-1.1520249.846977-1.6030029.14447-.521631.21963-1.069334.21963-1.6479665 0-1.1506494-.293312-2.0393005-.849045-2.7817425-.581962-.7774813-1.328822-1.3421569-2.32699-1.749764a1.2899453 1.164408 0 0 1 -.010335-.0056843c-.450955-.1886413-.904568-.2568829-1.356506-.3989422z" fill="url(#a)"/><g fill="#010101" stroke-width=".264583"><rect height="2.116667" rx=".472075" ry=".607224" width="33.866668" y="31.750001"/><rect height="2.116667" rx=".472075" ry=".607224" width="33.866668" y="27.516667"/></g></svg>