<?xml version="1.0" encoding="UTF-8" standalone="no"?>
<svg
   xmlns:dc="http://purl.org/dc/elements/1.1/"
   xmlns:cc="http://creativecommons.org/ns#"
   xmlns:rdf="http://www.w3.org/1999/02/22-rdf-syntax-ns#"
   xmlns:svg="http://www.w3.org/2000/svg"
   xmlns="http://www.w3.org/2000/svg"
   xmlns:xlink="http://www.w3.org/1999/xlink"
   xmlns:sodipodi="http://sodipodi.sourceforge.net/DTD/sodipodi-0.dtd"
   xmlns:inkscape="http://www.inkscape.org/namespaces/inkscape"
   height="16"
   viewBox="0 0 4.2333333 4.2333335"
   width="16"
   version="1.1"
   id="svg24"
   sodipodi:docname="sc_underlinedouble.svg"
   inkscape:version="0.92.4 (unknown)">
  <metadata
     id="metadata30">
    <rdf:RDF>
      <cc:Work
         rdf:about="">
        <dc:format>image/svg+xml</dc:format>
        <dc:type
           rdf:resource="http://purl.org/dc/dcmitype/StillImage" />
        <dc:title></dc:title>
      </cc:Work>
    </rdf:RDF>
  </metadata>
  <defs
     id="defs28">
    <linearGradient
       inkscape:collect="always"
       xlink:href="#b"
       id="linearGradient48"
       gradientUnits="userSpaceOnUse"
       x1="18.278177"
       y1="27.120033"
       x2="19.438393"
       y2="0.435067" />
    <linearGradient
       inkscape:collect="always"
       xlink:href="#b"
       id="linearGradient50"
       gradientUnits="userSpaceOnUse"
       x1="18.278177"
       y1="27.120033"
       x2="19.438393"
       y2="0.435067" />
  </defs>
  <sodipodi:namedview
     pagecolor="#ffffff"
     bordercolor="#666666"
     borderopacity="1"
     objecttolerance="10"
     gridtolerance="10"
     guidetolerance="10"
     inkscape:pageopacity="0"
     inkscape:pageshadow="2"
     inkscape:window-width="1366"
     inkscape:window-height="706"
     id="namedview26"
     showgrid="true"
     inkscape:zoom="5.2149125"
     inkscape:cx="15.218774"
     inkscape:cy="12.792692"
     inkscape:window-x="0"
     inkscape:window-y="0"
     inkscape:window-maximized="1"
     inkscape:current-layer="g46">
    <inkscape:grid
       type="xygrid"
       id="grid35" />
  </sodipodi:namedview>
  <linearGradient
     id="a"
     gradientUnits="userSpaceOnUse"
     x1="9.8517828"
     x2="26.88537"
     y1="8.6643019"
     y2="8.6643019">
    <stop
       offset="0"
       stop-color="#3b3e22"
       id="stop2" />
    <stop
       offset="1"
       stop-color="#454545"
       stop-opacity="0"
       id="stop4" />
  </linearGradient>
  <linearGradient
     id="b"
     gradientUnits="userSpaceOnUse"
     x1="18.278177"
     x2="19.438393"
     y1="27.120033"
     y2="0.435067">
    <stop
       offset="0"
       stop-color="#555"
       id="stop7" />
    <stop
       offset="1"
       id="stop9" />
  </linearGradient>
  <g
     id="g46"
     transform="scale(0.125)">
    <g
       id="text14"
       style="font-size:38.58823776px;font-family:sans-serif;letter-spacing:0;word-spacing:0;fill:url(#linearGradient50);stroke-width:0.96470499"
       transform="scale(1.0525265,0.95009484)"
       aria-label="P">
      <path
         id="path32"
         style="font-size:40.6075592px;font-family:FreeSerif;fill:url(#linearGradient48);stroke-width:0.96470499"
         d="m 26.76806,7.3499681 q 0,1.0557965 -0.243645,2.0303779 -0.243645,0.974581 -0.974581,2.070986 -0.690329,1.096404 -1.867948,1.908555 -1.177619,0.771543 -3.207997,1.299442 -2.030378,0.527898 -4.710477,0.527898 -1.218227,0 -2.801922,-0.121823 v 7.390576 q 0,2.233416 0.690329,2.923744 0.730936,0.649721 3.126782,0.730936 v 0.771544 H 5.4084842 V 26.11066 Q 7.723115,25.907623 8.2510133,25.257902 8.8195191,24.567573 8.8195191,22.009297 V 4.4262238 q 0,-2.1928082 -0.5685058,-2.8019216 Q 7.6825075,1.0151888 5.4084842,0.77154349 V -1.373291e-7 H 16.12888 q 1.82734,0 3.532857,0.3654680373291 1.705518,0.32486047 3.370428,1.0964041 1.705517,0.7715436 2.720706,2.2740233 1.015189,1.5024797 1.015189,3.6140728 z M 12.96149,2.8831366 V 13.441102 q 1.421265,0.121823 2.314631,0.121823 7.065715,0 7.065715,-5.9693116 0,-3.126782 -1.949162,-4.5886542 -1.949163,-1.5024796 -6.050527,-1.5024796 -0.812151,0 -1.096404,0.2842529 -0.284253,0.2842529 -0.284253,1.0964041 z"
         inkscape:connector-curvature="0" />
    </g>
    <path
       id="path16"
       d="m 9.8517829,1.1634675 c 0.5978551,0.81753 0.7193361,1.7563193 0.7193361,3.041158 V 16.049381 a 21.71497,14.206056 0 0 0 1.78232,0.115755 v -1.850533 a 1.2899453,1.164408 0 0 1 0.325045,-0.772046 1.2899453,1.164408 0 0 1 -0.325045,-0.772046 V 2.739082 c 0,-0.5447486 0.104426,-1.0772598 0.489376,-1.5756145 z M 22.237591,1.9241446 c 0.002,0.00137 0.0021,0.00432 0.0041,0.00568 0.0028,0.00194 0.0075,0.00167 0.01034,0.00362 z m 0.104903,0.122473 c 1.627534,1.1719124 2.462382,3.0061684 2.462382,5.1681601 0,2.1124224 -0.75246,3.9329893 -2.304252,5.1252683 0.597421,-0.205052 1.329535,-0.395524 1.704288,-0.615983 0.693173,-0.43358 1.212748,-0.91561 1.595251,-1.463993 a 1.2899453,1.164408 0 0 1 0.0186,-0.02635 c 0.451951,-0.6119509 0.722077,-1.1520249 0.846977,-1.6030029 0.14447,-0.521631 0.21963,-1.069334 0.21963,-1.6479665 0,-1.1506494 -0.293312,-2.0393005 -0.849045,-2.7817425 -0.581962,-0.7774813 -1.328822,-1.3421569 -2.32699,-1.749764 A 1.2899453,1.164408 0 0 1 23.699,2.4455598 C 23.248045,2.2569185 22.794432,2.1886769 22.342494,2.0466176 Z"
       style="fill:url(#a)"
       inkscape:connector-curvature="0" />
    <g
       id="g22"
       style="fill:#010101;stroke-width:0.26458299">
      <rect
         id="rect18"
         y="31.750002"
         width="33.866669"
         ry="0.60722399"
         rx="0.47207499"
         height="2.116667"
         x="0" />
      <rect
         id="rect20"
         y="27.516666"
         width="33.866669"
         ry="0.60722399"
         rx="0.47207499"
         height="2.116667"
         x="0" />
    </g>
  </g>
</svg>
