<?xml version="1.0" encoding="UTF-8" standalone="no"?>
<svg
   xmlns:dc="http://purl.org/dc/elements/1.1/"
   xmlns:cc="http://creativecommons.org/ns#"
   xmlns:rdf="http://www.w3.org/1999/02/22-rdf-syntax-ns#"
   xmlns:svg="http://www.w3.org/2000/svg"
   xmlns="http://www.w3.org/2000/svg"
   xmlns:xlink="http://www.w3.org/1999/xlink"
   xmlns:sodipodi="http://sodipodi.sourceforge.net/DTD/sodipodi-0.dtd"
   xmlns:inkscape="http://www.inkscape.org/namespaces/inkscape"
   height="128"
   viewBox="0 0 33.866666 33.866668"
   width="128"
   version="1.1"
   id="svg20"
   sodipodi:docname="lc_bold.svg"
   inkscape:version="0.92.3 (unknown)"
   inkscape:export-filename="/home/rizmut/Dokumen/Rizmut/Github/libreoffice-style-karasa-jaga/build/images_karasa_jaga/cmd/tr/lc_bold.png"
   inkscape:export-xdpi="16.5"
   inkscape:export-ydpi="16.5">
  <metadata
     id="metadata26">
    <rdf:RDF>
      <cc:Work
         rdf:about="">
        <dc:format>image/svg+xml</dc:format>
        <dc:type
           rdf:resource="http://purl.org/dc/dcmitype/StillImage" />
        <dc:title></dc:title>
      </cc:Work>
    </rdf:RDF>
  </metadata>
  <defs
     id="defs24">
    <linearGradient
       inkscape:collect="always"
       xlink:href="#b"
       id="linearGradient1429"
       x1="32.591797"
       y1="46.248047"
       x2="115.99805"
       y2="46.248047"
       gradientUnits="userSpaceOnUse"
       gradientTransform="matrix(0.26458334,0,0,0.26458334,-3.0350515,0)" />
  </defs>
  <sodipodi:namedview
     pagecolor="#ffffff"
     bordercolor="#666666"
     borderopacity="1"
     objecttolerance="10"
     gridtolerance="10"
     guidetolerance="10"
     inkscape:pageopacity="0"
     inkscape:pageshadow="2"
     inkscape:window-width="1366"
     inkscape:window-height="706"
     id="namedview22"
     showgrid="false"
     inkscape:zoom="1.84375"
     inkscape:cx="52.59696"
     inkscape:cy="26.434352"
     inkscape:window-x="0"
     inkscape:window-y="0"
     inkscape:window-maximized="1"
     inkscape:current-layer="svg20" />
  <linearGradient
     id="a"
     gradientUnits="userSpaceOnUse"
     x1="18.99608880061"
     x2="20.22575014415"
     y1="294.82258903077"
     y2="266.54036534865"
     gradientTransform="matrix(0.82,0,0,0.82,-0.67523174,-212.68604)">
    <stop
       offset="0"
       stop-color="#555"
       id="stop2" />
    <stop
       offset="1"
       id="stop4" />
  </linearGradient>
  <linearGradient
     id="b"
     gradientUnits="userSpaceOnUse"
     x1="53.856667"
     x2="72.864624"
     y1="1.845663"
     y2="61.042988"
     gradientTransform="matrix(0.21695833,0,0,0.21695833,3.048,3.0518754)">
    <stop
       offset="0"
       stop-color="#3b3e22"
       id="stop7" />
    <stop
       offset="1"
       stop-color="#454545"
       stop-opacity="0"
       id="stop9" />
  </linearGradient>
  <text
     id="text14"
     y="28.861792"
     x="3.1873729"
     style="font-size:33.53633881px;font-family:sans-serif;letter-spacing:0;word-spacing:0;fill:url(#a);stroke-width:0.83840817">
    <tspan
       style="font-weight:bold;font-size:35.29129791px;font-family:FreeSerif;fill:url(#a);stroke-width:0.83840817"
       id="tspan12"
       y="28.861792"
       x="3.1873729"
       font-weight="bold"
       font-size="43.038166">K</tspan>
  </text>
  <path
     style="opacity:1;fill:url(#linearGradient1429);fill-opacity:1;stroke:none;stroke-width:0.30000001;stroke-linecap:round;stroke-linejoin:round;stroke-miterlimit:4;stroke-dasharray:none;stroke-dashoffset:0;stroke-opacity:1"
     d="M 5.588195,5.5603843 C 6.0285611,5.6769044 6.3911062,5.8451897 6.6816682,6.0978192 7.2912825,6.5826898 7.51986,7.3982934 7.51986,8.3927695 V 18.48311 a 21.668928,10.762712 0 0 0 4.603337,0.419096 v -0.345715 a 0.55582856,0.55582856 0 0 1 0.179834,-0.408244 l 0.952913,-0.882634 a 0.55582856,0.55582856 0 0 1 0.810803,0.06046 l 1.271757,1.586466 a 21.668928,10.762712 0 0 0 5.067908,-0.503328 l -3.357418,-4.160987 a 0.55582856,0.55582856 0 0 1 0.03307,-0.736389 c 3.324671,-3.41899 5.590455,-5.5703802 6.919992,-6.523633 a 0.55582856,0.55582856 0 0 1 0.0041,-0.00362 C 25.067136,6.2379975 26.31647,5.8131299 27.6561,5.5603843 h -7.357175 c 0.254187,0.044638 0.697594,0.053403 0.882634,0.1214395 0.28511,0.087507 0.556693,0.2547585 0.732772,0.5038452 0.179723,0.2542445 0.251664,0.5608828 0.251664,0.8671307 0,0.3868713 -0.127354,0.7630943 -0.345716,1.0800374 -0.207025,0.3387449 -0.546069,0.708334 -1.089855,1.25212 h 0.0021 L 13.07456,17.078028 A 0.55582856,0.55582856 0 0 1 12.123197,16.685804 V 9.1348433 c 0,-1.3025282 0.162892,-2.2515886 0.76171,-2.8556398 0.347194,-0.3646149 0.861506,-0.5728105 1.466578,-0.7188192 z"
     id="path1414"
     inkscape:connector-curvature="0" />
</svg>
