<?xml version="1.0" encoding="UTF-8" standalone="no"?>
<svg
   xmlns:dc="http://purl.org/dc/elements/1.1/"
   xmlns:cc="http://creativecommons.org/ns#"
   xmlns:rdf="http://www.w3.org/1999/02/22-rdf-syntax-ns#"
   xmlns:svg="http://www.w3.org/2000/svg"
   xmlns="http://www.w3.org/2000/svg"
   xmlns:xlink="http://www.w3.org/1999/xlink"
   xmlns:sodipodi="http://sodipodi.sourceforge.net/DTD/sodipodi-0.dtd"
   xmlns:inkscape="http://www.inkscape.org/namespaces/inkscape"
   height="128"
   viewBox="0 0 33.866666 33.866668"
   width="128"
   version="1.1"
   id="svg20"
   sodipodi:docname="sc_bold.svg"
   inkscape:version="0.92.3 (unknown)"
   inkscape:export-filename="/home/rizmut/Dokumen/Rizmut/Github/libreoffice-style-karasa-jaga/build/images_karasa_jaga/cmd/tr/sc_bold.png"
   inkscape:export-xdpi="12"
   inkscape:export-ydpi="12">
  <metadata
     id="metadata26">
    <rdf:RDF>
      <cc:Work
         rdf:about="">
        <dc:format>image/svg+xml</dc:format>
        <dc:type
           rdf:resource="http://purl.org/dc/dcmitype/StillImage" />
        <dc:title></dc:title>
      </cc:Work>
    </rdf:RDF>
  </metadata>
  <defs
     id="defs24">
    <linearGradient
       inkscape:collect="always"
       xlink:href="#b"
       id="linearGradient842"
       x1="20.011719"
       y1="42.764648"
       x2="90.634766"
       y2="42.764648"
       gradientUnits="userSpaceOnUse" />
  </defs>
  <sodipodi:namedview
     pagecolor="#ffffff"
     bordercolor="#666666"
     borderopacity="1"
     objecttolerance="10"
     gridtolerance="10"
     guidetolerance="10"
     inkscape:pageopacity="0"
     inkscape:pageshadow="2"
     inkscape:window-width="1366"
     inkscape:window-height="706"
     id="namedview22"
     showgrid="false"
     inkscape:zoom="2.6074563"
     inkscape:cx="-6.9494061"
     inkscape:cy="64.027296"
     inkscape:window-x="0"
     inkscape:window-y="0"
     inkscape:window-maximized="1"
     inkscape:current-layer="svg20"
     showguides="false"
     inkscape:guide-bbox="true">
    <sodipodi:guide
       position="33.723163,22.242939"
       orientation="0,1"
       id="guide821"
       inkscape:locked="false" />
  </sodipodi:namedview>
  <linearGradient
     id="a"
     gradientUnits="userSpaceOnUse"
     x1="18.98182359615"
     x2="20.2029811282"
     y1="294.720546641"
     y2="266.6339107115"
     gradientTransform="translate(-4.5091265,-263.09059)">
    <stop
       offset="0"
       stop-color="#555"
       id="stop2" />
    <stop
       offset="1"
       id="stop4" />
  </linearGradient>
  <linearGradient
     id="b"
     gradientUnits="userSpaceOnUse"
     x1="35.404884"
     x2="54.657333"
     y1="7.324325"
     y2="81.814293"
     gradientTransform="scale(0.26458333)">
    <stop
       offset="0"
       stop-color="#3b3e22"
       id="stop7" />
    <stop
       offset="1"
       stop-color="#454545"
       stop-opacity="0"
       id="stop9" />
  </linearGradient>
  <text
     id="text14"
     y="31.379633"
     x="0.28589633"
     style="font-size:40.61514282px;font-family:sans-serif;letter-spacing:0;word-spacing:0;fill:url(#a);stroke-width:1.015378">
    <tspan
       style="font-weight:bold;font-size:42.74053192px;font-family:FreeSerif;fill:url(#a);stroke-width:1.015378"
       id="tspan12"
       y="31.379633"
       x="0.28589633"
       font-weight="bold"
       font-size="42.740532">K</tspan>
  </text>
  <path
     style="opacity:1;fill:url(#linearGradient842);fill-opacity:1.0;stroke:none;stroke-width:1.13385832;stroke-linecap:round;stroke-linejoin:round;stroke-miterlimit:4;stroke-dasharray:none;stroke-dashoffset:0;stroke-opacity:1"
     d="M 84.751953 7.765625 C 84.818238 7.7851209 84.868876 7.8774161 84.935547 7.8984375 C 85.029256 7.932166 85.167673 7.9080926 85.261719 7.9433594 L 84.751953 7.765625 z M 20.011719 10.482422 C 20.073764 10.53068 20.077863 10.611183 20.138672 10.660156 C 20.210295 10.72138 20.295795 10.71435 20.367188 10.777344 L 20.011719 10.482422 z M 42.033203 11.744141 L 41.884766 11.900391 C 41.913328 11.870149 41.95182 11.869755 41.980469 11.839844 C 42.008932 11.810971 42.004403 11.772938 42.033203 11.744141 z M 24.470703 16.816406 C 25.409123 19.374759 25.785156 22.148119 25.785156 24.90625 L 25.785156 76.847656 A 101.96611 46.64407 0 0 0 37.115234 77.763672 L 37.115234 71.427734 A 7.4224947 7.4224947 0 0 1 38.482422 67.146484 A 7.4224947 7.4224947 0 0 1 37.115234 62.871094 L 37.115234 28.302734 C 37.115234 23.983949 37.790914 20.26827 39.234375 16.816406 L 24.470703 16.816406 z M 90.634766 26.138672 C 90.57743 26.234232 90.471923 26.305325 90.414062 26.398438 C 90.378055 26.451604 90.390238 26.529573 90.353516 26.582031 L 90.634766 26.138672 z M 61.779297 56.066406 L 54.884766 62.996094 L 66.429688 77.394531 A 101.96611 46.64407 0 0 0 77.958984 76.117188 L 61.779297 56.066406 z "
     transform="scale(0.26458334)"
     id="path827" />
</svg>
