<?xml version="1.0" encoding="UTF-8" standalone="no"?>
<svg
   xmlns:dc="http://purl.org/dc/elements/1.1/"
   xmlns:cc="http://creativecommons.org/ns#"
   xmlns:rdf="http://www.w3.org/1999/02/22-rdf-syntax-ns#"
   xmlns:svg="http://www.w3.org/2000/svg"
   xmlns="http://www.w3.org/2000/svg"
   xmlns:xlink="http://www.w3.org/1999/xlink"
   xmlns:sodipodi="http://sodipodi.sourceforge.net/DTD/sodipodi-0.dtd"
   xmlns:inkscape="http://www.inkscape.org/namespaces/inkscape"
   height="128"
   viewBox="0 0 33.866666 33.866668"
   width="128"
   version="1.1"
   id="svg20"
   sodipodi:docname="lc_italic.svg"
   inkscape:version="0.92.3 (unknown)"
   inkscape:export-filename="/home/rizmut/Dokumen/Rizmut/Github/libreoffice-style-karasa-jaga/build/images_karasa_jaga/cmd/de/lc_italic.png"
   inkscape:export-xdpi="16.5"
   inkscape:export-ydpi="16.5">
  <metadata
     id="metadata26">
    <rdf:RDF>
      <cc:Work
         rdf:about="">
        <dc:format>image/svg+xml</dc:format>
        <dc:type
           rdf:resource="http://purl.org/dc/dcmitype/StillImage" />
        <dc:title></dc:title>
      </cc:Work>
    </rdf:RDF>
  </metadata>
  <defs
     id="defs24">
    <linearGradient
       inkscape:collect="always"
       xlink:href="#b"
       id="linearGradient2113"
       x1="32.623047"
       y1="51.97168"
       x2="108.69922"
       y2="51.97168"
       gradientUnits="userSpaceOnUse" />
  </defs>
  <sodipodi:namedview
     pagecolor="#ffffff"
     bordercolor="#666666"
     borderopacity="1"
     objecttolerance="10"
     gridtolerance="10"
     guidetolerance="10"
     inkscape:pageopacity="0"
     inkscape:pageshadow="2"
     inkscape:window-width="1366"
     inkscape:window-height="706"
     id="namedview22"
     showgrid="false"
     inkscape:zoom="1.84375"
     inkscape:cx="94.393381"
     inkscape:cy="49.205635"
     inkscape:window-x="0"
     inkscape:window-y="0"
     inkscape:window-maximized="1"
     inkscape:current-layer="svg20" />
  <linearGradient
     id="a"
     gradientUnits="userSpaceOnUse"
     x1="18.99608880061"
     x2="20.22575014415"
     y1="294.82258903077"
     y2="266.54036534865"
     gradientTransform="matrix(0.82,0,0,0.82,0.45408974,-213.09189)">
    <stop
       offset="0"
       stop-color="#555"
       id="stop2" />
    <stop
       offset="1"
       id="stop4" />
  </linearGradient>
  <linearGradient
     id="b"
     gradientUnits="userSpaceOnUse"
     x1="53.856667"
     x2="72.864624"
     y1="1.845663"
     y2="61.042988"
     gradientTransform="matrix(0.21695833,0,0,0.21695833,3.048,3.0518754)">
    <stop
       offset="0"
       stop-color="#3b3e22"
       id="stop7" />
    <stop
       offset="1"
       stop-color="#454545"
       stop-opacity="0"
       id="stop9" />
  </linearGradient>
  <text
     id="text14"
     y="28.455942"
     x="4.3166943"
     style="font-size:33.53633881px;font-family:sans-serif;letter-spacing:0;word-spacing:0;fill:url(#a);stroke-width:0.83840817">
    <tspan
       style="font-style:italic;font-variant:normal;font-weight:normal;font-stretch:normal;font-size:35.29129791px;font-family:FreeSerif;-inkscape-font-specification:'FreeSerif Italic';fill:url(#a);stroke-width:0.83840817"
       id="tspan12"
       y="28.455942"
       x="4.3166943"
       font-weight="bold"
       font-size="43.038166">K</tspan>
  </text>
  <path
     style="opacity:1;fill:url(#linearGradient2113);fill-opacity:1.0;stroke:none;stroke-width:1.13385832;stroke-linecap:round;stroke-linejoin:round;stroke-miterlimit:4;stroke-dasharray:none;stroke-dashoffset:0;stroke-opacity:1"
     d="M 40.822266 21.976562 C 42.006274 22.251719 43.06834 22.549207 43.847656 22.964844 C 45.695668 23.950447 46.654297 26.012156 46.654297 28.316406 C 46.654297 30.606683 46.132301 33.46223 45.132812 37.005859 L 32.623047 81.966797 A 137.29858 35.666948 0 0 0 42.6875 81.839844 L 48.455078 60.722656 A 1.5317436 1.5317436 0 0 1 49.871094 59.601562 A 1.5317436 1.5317436 0 0 1 49.251953 57.925781 L 56.324219 32.058594 L 56.324219 32.052734 C 57.275273 28.538234 58.90469 25.78529 61.291016 24.021484 A 1.5317436 1.5317436 0 0 1 61.314453 24.005859 C 62.553764 23.128016 64.014694 22.462528 65.675781 21.976562 L 40.822266 21.976562 z M 87.830078 21.976562 C 88.489095 22.138415 89.288649 22.186332 89.822266 22.484375 C 90.89739 23.08487 91.734375 24.266639 91.734375 25.519531 C 91.734375 26.87127 91.123659 28.089176 90.169922 29.460938 C 89.216185 30.832699 87.857681 32.357817 86.080078 34.089844 C 82.523603 37.555124 77.791846 41.328671 71.876953 45.451172 L 51.607422 59.585938 A 1.5317436 1.5317436 0 0 1 50.787109 59.859375 A 1.5317436 1.5317436 0 0 1 51.251953 60.361328 L 63.234375 80.966797 A 137.29858 35.666948 0 0 0 72.958984 80.265625 L 60.339844 58.294922 A 1.5317436 1.5317436 0 0 1 60.746094 56.308594 L 100.75586 26.162109 A 1.5317436 1.5317436 0 0 1 100.76367 26.162109 C 103.49167 24.116108 106.11483 22.847669 108.69922 21.976562 L 87.830078 21.976562 z "
     transform="scale(0.26458334)"
     id="path2098" />
</svg>
