<?xml version="1.0" encoding="UTF-8" standalone="no"?>
<svg
   xmlns:dc="http://purl.org/dc/elements/1.1/"
   xmlns:cc="http://creativecommons.org/ns#"
   xmlns:rdf="http://www.w3.org/1999/02/22-rdf-syntax-ns#"
   xmlns:svg="http://www.w3.org/2000/svg"
   xmlns="http://www.w3.org/2000/svg"
   xmlns:xlink="http://www.w3.org/1999/xlink"
   xmlns:sodipodi="http://sodipodi.sourceforge.net/DTD/sodipodi-0.dtd"
   xmlns:inkscape="http://www.inkscape.org/namespaces/inkscape"
   height="32"
   viewBox="0 0 32 32"
   width="32"
   version="1.1"
   id="svg122"
   sodipodi:docname="presentation.svg"
   inkscape:version="0.92.3 (2405546, 2018-03-11)">
  <metadata
     id="metadata128">
    <rdf:RDF>
      <cc:Work
         rdf:about="">
        <dc:format>image/svg+xml</dc:format>
        <dc:type
           rdf:resource="http://purl.org/dc/dcmitype/StillImage" />
        <dc:title></dc:title>
      </cc:Work>
    </rdf:RDF>
  </metadata>
  <defs
     id="defs126">
    <linearGradient
       inkscape:collect="always"
       xlink:href="#i"
       id="linearGradient960"
       x1="43.089844"
       y1="58.340897"
       x2="85.511581"
       y2="58.340897"
       gradientUnits="userSpaceOnUse" />
    <radialGradient
       inkscape:collect="always"
       xlink:href="#i"
       id="radialGradient962"
       gradientUnits="userSpaceOnUse"
       gradientTransform="matrix(0.6667,0,0,0.7574,20.7214,14.064)"
       cx="53.1978"
       cy="59.186501"
       r="40.0294" />
  </defs>
  <sodipodi:namedview
     pagecolor="#ffffff"
     bordercolor="#666666"
     borderopacity="1"
     objecttolerance="10"
     gridtolerance="10"
     guidetolerance="10"
     inkscape:pageopacity="0"
     inkscape:pageshadow="2"
     inkscape:window-width="1366"
     inkscape:window-height="704"
     id="namedview124"
     showgrid="true"
     inkscape:zoom="14.75"
     inkscape:cx="14.020981"
     inkscape:cy="12.852902"
     inkscape:window-x="0"
     inkscape:window-y="0"
     inkscape:window-maximized="1"
     inkscape:current-layer="g120">
    <inkscape:grid
       type="xygrid"
       id="grid935" />
  </sodipodi:namedview>
  <linearGradient
     id="a">
    <stop
       offset="0"
       stop-color="#929292"
       id="stop2" />
    <stop
       offset=".2907632"
       stop-color="#bebebe"
       id="stop4" />
    <stop
       offset=".75"
       stop-color="#e2e2e2"
       id="stop6" />
    <stop
       offset="1"
       stop-color="#929292"
       id="stop8" />
  </linearGradient>
  <linearGradient
     id="b"
     gradientUnits="userSpaceOnUse"
     x1="60"
     x2="60"
     y1="-18"
     y2="-8">
    <stop
       offset="0"
       stop-color="#4d4d4d"
       id="stop11" />
    <stop
       offset=".27316919"
       stop-color="#858585"
       id="stop13" />
    <stop
       offset=".73455489"
       stop-color="#c9c9c9"
       id="stop15" />
    <stop
       offset="1"
       stop-color="#bebebe"
       id="stop17" />
  </linearGradient>
  <linearGradient
     id="c"
     gradientUnits="userSpaceOnUse"
     x1="60"
     x2="64.527114"
     xlink:href="#a"
     y1="60.106114"
     y2="60.106114" />
  <linearGradient
     id="d"
     gradientUnits="userSpaceOnUse"
     x1="40.708579"
     x2="45.062655"
     xlink:href="#a"
     y1="128.448148"
     y2="128.448148" />
  <linearGradient
     id="e"
     gradientUnits="userSpaceOnUse"
     x1="116.981638"
     x2="121.335708"
     xlink:href="#a"
     y1="29.999621"
     y2="29.999621" />
  <linearGradient
     id="f"
     gradientTransform="matrix(.97016552 0 0 .96517415 1.909405 1.477653)"
     gradientUnits="userSpaceOnUse"
     x1="57.375618"
     x2="56.834339"
     y1="38.147617"
     y2="83.073807">
    <stop
       offset="0"
       stop-color="#ededed"
       id="stop23" />
    <stop
       offset="1"
       stop-color="#fafafa"
       id="stop25" />
  </linearGradient>
  <filter
     id="g">
    <feGaussianBlur
       stdDeviation="4"
       id="feGaussianBlur28" />
  </filter>
  <radialGradient
     id="h"
     cx="64.300713"
     cy="58.340896"
     gradientUnits="userSpaceOnUse"
     r="24.011965"
     gradientTransform="matrix(0.73612143,0,0,0.73612143,16.96758,15.394912)">
    <stop
       offset="0"
       stop-color="#fff"
       id="stop31" />
    <stop
       offset=".574"
       stop-color="#fff"
       id="stop33" />
    <stop
       offset=".6842"
       stop-color="#fbfbfb"
       id="stop35" />
    <stop
       offset=".8001"
       stop-color="#eee"
       id="stop37" />
    <stop
       offset=".9"
       stop-color="#ddd"
       id="stop39" />
    <stop
       offset="1"
       stop-color="#bbb"
       id="stop41" />
  </radialGradient>
  <radialGradient
     id="i"
     cx="53.1978"
     cy="59.186501"
     gradientTransform="matrix(.6667 0 0 .7574 20.7214 14.064)"
     gradientUnits="userSpaceOnUse"
     r="40.0294">
    <stop
       offset="0"
       id="stop44" />
    <stop
       offset="1"
       stop-color="#666"
       id="stop46" />
  </radialGradient>
  <linearGradient
     id="j"
     gradientUnits="userSpaceOnUse"
     x1="43.03567"
     x2="85.565987"
     y1="47.258453"
     y2="47.258453"
     gradientTransform="matrix(0.74807542,0,0,0.74807542,16.198931,14.697507)">
    <stop
       offset="0"
       stop-color="#fff"
       id="stop49" />
    <stop
       offset=".80000001"
       stop-color="#fff"
       stop-opacity="0"
       id="stop51" />
  </linearGradient>
  <linearGradient
     id="k"
     gradientUnits="userSpaceOnUse"
     x1="56"
     x2="56"
     y1="32"
     y2="88.117546">
    <stop
       offset="0"
       stop-color="#fff"
       id="stop54" />
    <stop
       offset="1"
       stop-color="#fff"
       stop-opacity="0"
       id="stop56" />
  </linearGradient>
  <filter
     id="l"
     height="1.294962"
     width="1.106002"
     x="-.053001"
     y="-.147481">
    <feGaussianBlur
       stdDeviation="1.4133574"
       id="feGaussianBlur59" />
  </filter>
  <linearGradient
     id="m"
     gradientUnits="userSpaceOnUse"
     x1="52"
     x2="52"
     y1="64"
     y2="68">
    <stop
       offset="0"
       id="stop62" />
    <stop
       offset="1"
       stop-opacity="0"
       id="stop64" />
  </linearGradient>
  <filter
     id="n">
    <feGaussianBlur
       stdDeviation="1.1263538"
       id="feGaussianBlur67" />
  </filter>
  <radialGradient
     id="o"
     cx="48"
     cy="112"
     gradientTransform="matrix(.96238251 0 0 .70680177 20.020067 8.910141)"
     gradientUnits="userSpaceOnUse"
     r="32">
    <stop
       offset="0"
       stop-color="#ffea00"
       id="stop70" />
    <stop
       offset="1"
       stop-color="#ffa000"
       id="stop72" />
  </radialGradient>
  <clipPath
     id="p">
    <path
       d="m20.00872 56.239943c-1.219674 0-2.1875.967827-2.1875 2.1875v17.0625c9.640301 2.396967 18.688076 3.510056 30.178781 3.510056 11.490704 0 22.359706-.873145 32.000007-3.270112v-17.0625c0-1.219674-.967827-2.1875-2.1875-2.1875z"
       filter="url(#l)"
       id="path75" />
  </clipPath>
  <g
     transform="scale(.25)"
     id="g120">
    <path
       d="m60 .212226h4v119.78777h-4z"
       fill="url(#c)"
       id="path78" />
    <rect
       fill="#1a1a1a"
       height="7.963453"
       ry="1.883652"
       transform="matrix(-.99998961 .00455763 .00455763 .99998961 0 0)"
       width="8.036379"
       x="-65.4524"
       y="120.29956"
       id="rect80" />
    <path
       d="m116.98164 14.617971h4.354075v30.763298h-4.354075z"
       fill="url(#e)"
       transform="matrix(.6124485 .79051049 -.79051049 .6124485 -.0108 0)"
       id="path82" />
    <rect
       fill="#1a1a1a"
       height="7.848551"
       ry="1.883652"
       transform="matrix(.66573351 .74618958 -.74618958 .66573351 -.0108 0)"
       width="7.848551"
       x="111.85122"
       y="50.373661"
       id="rect84" />
    <path
       d="m40.849453 112.60848h4.213207v31.221321h-4.213207z"
       fill="url(#d)"
       transform="matrix(-.6124485 .79051049 .79051049 .6124485 0 0)"
       id="path86" />
    <rect
       fill="#1a1a1a"
       height="7.848551"
       ry="1.883652"
       transform="matrix(-.66573351 .74618958 .74618958 .66573351 0 0)"
       width="7.848551"
       x="28.942156"
       y="143.30255"
       id="rect88" />
    <path
       d="m4 8h120v88h-120z"
       fill="#7c7c7c"
       id="path90" />
    <path
       d="m6 20h116v74h-116z"
       fill="#fff"
       id="path92" />
    <path
       d="m4-20h120v12h-120z"
       fill="url(#b)"
       transform="scale(1 -1)"
       id="path94" />
    <path
       d="m8 20h112v72h-112z"
       fill="url(#f)"
       id="path96" />
    <g
       transform="matrix(1.7818482 0 0 1.4373052 -53.984064 -33.894325)"
       id="g106">
      <rect
         height="41.744785"
         rx="2.118759"
         ry="2.074772"
         width="58.366364"
         x="37.03125"
         y="43.062756"
         id="rect98"
         fill="url(#o)" />
      <rect
         height="32.483829"
         rx="2.201577"
         transform="matrix(.96238251 0 0 .94240252 20.020067 -17.477128)"
         width="60.647781"
         x="17.676113"
         y="64.239944"
         id="rect100"
         filter="url(#n)"
         fill="url(#m)" />
      <path
         clip-path="url(#p)"
         d="m20.00872 56.239944c-1.219674 0-2.1875.967827-2.1875 2.1875v17.0625c9.640301 2.396967 18.688076 3.510056 30.17878 3.510056s20.538486-1.113089 30.178787-3.510056v-17.0625c0-1.219674-.967827-2.1875-2.1875-2.1875z"
         transform="matrix(.96238251 0 0 .94240252 20.020067 -9.937908)"
         id="path102"
         filter="url(#l)"
         fill="url(#k)" />
      <path
         d="m35.435574 86.104692v.942401c0 1.149411.93142 2.061497 2.105212 2.061497h57.382047c1.173803 0 2.105214-.912086 2.105214-2.061497v-.942401c0 1.149415-.931411 2.061507-2.105214 2.061507h-57.382047c-1.173792 0-2.105212-.912092-2.105212-2.061507z"
         id="path104"
         fill="#fff" />
    </g>
    <g
       transform="matrix(1.1314954,0,0,1.1314954,31.244038,25.987544)"
       id="g118">
      <circle
         style="opacity:1;fill:url(#linearGradient960);fill-opacity:1;stroke:none;stroke-width:3.53514481;stroke-linecap:round;stroke-linejoin:round;stroke-miterlimit:4;stroke-dasharray:none;stroke-opacity:1"
         id="path937"
         cx="64.300713"
         cy="58.340897"
         r="21.210869" />
      <path
         d="m 46.62499,58.340895 c 0,9.746322 7.929402,17.675722 17.675724,17.675722 9.746318,0 17.675722,-7.9294 17.675722,-17.675722 0,-9.746319 -7.929404,-17.675723 -17.675722,-17.675723 -9.746322,0 -17.675724,7.929404 -17.675724,17.675723 z"
         id="path112"
         style="fill:url(#h);stroke-width:0.73612142"
         inkscape:connector-curvature="0" />
      <path
         d="M 42.688675,88.622657 V 27.37735 l 45.93398,30.622653 z"
         transform="matrix(0.46176857,0,0,0.46176857,37.518136,31.558318)"
         id="path114"
         inkscape:connector-curvature="0"
         style="fill:url(#radialGradient962)"
         sodipodi:nodetypes="cccc" />
      <path
         d="m 64.300714,58.340896 c 6.144992,0 11.733483,-1.772095 15.908094,-4.666518 -2.021501,-6.877319 -8.385842,-11.914492 -15.908094,-11.914492 -7.522598,0 -13.886943,5.037518 -15.907753,11.914492 4.173924,2.894423 9.762415,4.666518 15.907753,4.666518 z"
         id="path116"
         style="opacity:0.5;fill:url(#j);stroke-width:0.74807543"
         inkscape:connector-curvature="0" />
    </g>
  </g>
</svg>
