<?xml version="1.0" encoding="UTF-8" standalone="no"?>
<svg
   xmlns:dc="http://purl.org/dc/elements/1.1/"
   xmlns:cc="http://creativecommons.org/ns#"
   xmlns:rdf="http://www.w3.org/1999/02/22-rdf-syntax-ns#"
   xmlns:svg="http://www.w3.org/2000/svg"
   xmlns="http://www.w3.org/2000/svg"
   xmlns:xlink="http://www.w3.org/1999/xlink"
   xmlns:sodipodi="http://sodipodi.sourceforge.net/DTD/sodipodi-0.dtd"
   xmlns:inkscape="http://www.inkscape.org/namespaces/inkscape"
   height="127.74194"
   viewBox="0 0 127.74194 127.74194"
   width="127.74194"
   version="1.1"
   id="svg6697"
   sodipodi:docname="tablemodevariable.svg"
   inkscape:version="0.92.3 (unknown)">
  <metadata
     id="metadata6703">
    <rdf:RDF>
      <cc:Work
         rdf:about="">
        <dc:format>image/svg+xml</dc:format>
        <dc:type
           rdf:resource="http://purl.org/dc/dcmitype/StillImage" />
      </cc:Work>
    </rdf:RDF>
  </metadata>
  <defs
     id="defs6701" />
  <sodipodi:namedview
     pagecolor="#ffffff"
     bordercolor="#666666"
     borderopacity="1"
     objecttolerance="10"
     gridtolerance="10"
     guidetolerance="10"
     inkscape:pageopacity="0"
     inkscape:pageshadow="2"
     inkscape:window-width="1366"
     inkscape:window-height="699"
     id="namedview6699"
     showgrid="false"
     inkscape:zoom="0.92373732"
     inkscape:cx="183.88039"
     inkscape:cy="-50.077446"
     inkscape:window-x="0"
     inkscape:window-y="0"
     inkscape:window-maximized="1"
     inkscape:current-layer="svg6697" />
  <linearGradient
     id="a"
     gradientUnits="userSpaceOnUse"
     x1="120"
     x2="120"
     y1="-28.584044"
     y2="107.800615">
    <stop
       offset="0"
       stop-color="#fff"
       id="stop6666" />
    <stop
       offset="1"
       stop-color="#555"
       id="stop6668" />
  </linearGradient>
  <linearGradient
     id="b"
     gradientTransform="matrix(1.0384874 0 0 .91306627 2.461539 14.695545)"
     gradientUnits="userSpaceOnUse"
     x1="46.048"
     x2="46.048"
     y1="128.01709"
     y2="16.6203">
    <stop
       offset="0"
       stop-color="#c7cdd7"
       id="stop6671" />
    <stop
       offset="1"
       stop-color="#fff"
       id="stop6673" />
  </linearGradient>
  <linearGradient
     id="c"
     gradientTransform="matrix(.49999994 -.00024526 .00024526 .49999994 55.98066 -.260481)"
     gradientUnits="userSpaceOnUse"
     x1="37.595825"
     x2="-95.973099"
     xlink:href="#d"
     y1="37.626347"
     y2="23.957754" />
  <linearGradient
     id="d">
    <stop
       offset="0"
       stop-color="#0968ef"
       id="stop6677" />
    <stop
       offset="1"
       stop-color="#aecffc"
       id="stop6679" />
  </linearGradient>
  <linearGradient
     id="e"
     gradientUnits="userSpaceOnUse"
     x1="116"
     x2="132"
     xlink:href="#d"
     y1="13.741947"
     y2="-8.258053" />
  <linearGradient
     id="f"
     gradientTransform="matrix(-.49999994 -.00024526 -.00024526 .49999994 68.00685 -.260481)"
     gradientUnits="userSpaceOnUse"
     x1="37.595825"
     x2="-95.973099"
     xlink:href="#d"
     y1="37.626347"
     y2="23.957754" />
  <linearGradient
     id="g"
     gradientUnits="userSpaceOnUse"
     x1="4"
     x2="20"
     xlink:href="#d"
     y1="13.741947"
     y2="-8.258053" />
  <g
     id="g7266">
    <g
       id="g7250">
      <path
         d="m8 31.741943h108v76h-108z"
         fill="url(#b)"
         id="path6685" />
      <path
         d="m3.9999998 27.741946v4 16 4 16 4 16 4 15.999994 4h4 20.0000002 4 28 4 28 4 20 4v-4-15.999994-4-16-4-16-4-16-4h-4-20-4-28-4-28-4-20.0000002zm4 4h20.0000002v16h-20.0000002zm24.0000002 0h28v16h-28zm32 0h28v16h-28zm32 0h20v16h-20zm-88.0000002 20h20.0000002v16h-20.0000002zm24.0000002 0h28v16h-28zm32 0h28v16h-28zm32 0h20v16h-20zm-88.0000002 20h20.0000002v16h-20.0000002zm24.0000002 0h28v16h-28zm32 0h28v16h-28zm32 0h20v16h-20zm-88.0000002 20h20.0000002v15.999994h-20.0000002zm24.0000002 0h28v15.999994h-28zm32 0h28v15.999994h-28zm32 0h20v15.999994h-20z"
         fill="url(#a)"
         id="path6687" />
    </g>
    <g
       id="g7256">
      <path
         d="m115.98751 13.710083-12.0049-9.9941139-1.98643 1.9884097 3.90232 6.0106662-53.898501.0269.002 3.999997 53.898502-.0269-3.89651 5.913863 1.98845 2.087076z"
         fill="url(#c)"
         fill-rule="evenodd"
         id="path6689" />
      <rect
         fill="url(#e)"
         height="28"
         rx=".137769"
         ry=".535839"
         width="4"
         x="116"
         y="-.258053"
         id="rect6691" />
      <path
         d="m7.999999 13.710083 12.0049-9.9941139 1.98643 1.9884097-3.90232 6.0106662 53.898501.0269-.002 3.999997-53.898502-.0269 3.89651 5.913863-1.98845 2.087076z"
         fill="url(#f)"
         fill-rule="evenodd"
         id="path6693" />
      <rect
         fill="url(#g)"
         height="28"
         rx=".137769"
         ry=".535839"
         width="4"
         x="4"
         y="-.258053"
         id="rect6695" />
    </g>
  </g>
</svg>
