<?xml version="1.0" encoding="UTF-8" standalone="no"?>
<!-- Created with Inkscape (http://www.inkscape.org/) -->

<svg
   xmlns:i="http://ns.adobe.com/AdobeIllustrator/10.0/"
   xmlns:dc="http://purl.org/dc/elements/1.1/"
   xmlns:cc="http://creativecommons.org/ns#"
   xmlns:rdf="http://www.w3.org/1999/02/22-rdf-syntax-ns#"
   xmlns:svg="http://www.w3.org/2000/svg"
   xmlns="http://www.w3.org/2000/svg"
   xmlns:xlink="http://www.w3.org/1999/xlink"
   xmlns:sodipodi="http://sodipodi.sourceforge.net/DTD/sodipodi-0.dtd"
   xmlns:inkscape="http://www.inkscape.org/namespaces/inkscape"
   id="svg2"
   sodipodi:version="0.32"
   inkscape:version="0.92.3 (unknown)"
   width="128"
   height="128"
   version="1.0"
   sodipodi:docname="savemodified_small.svg"
   inkscape:output_extension="org.inkscape.output.svgz.inkscape"
   inkscape:export-filename="/home/rizmut/Dokumen/Rizmut/Github/libreoffice-style-karasa-jaga/build/images_karasa_jaga/res/savemodified_small.png"
   inkscape:export-xdpi="12"
   inkscape:export-ydpi="12">
  <metadata
     id="metadata7">
    <rdf:RDF>
      <cc:Work
         rdf:about="">
        <dc:format>image/svg+xml</dc:format>
        <dc:type
           rdf:resource="http://purl.org/dc/dcmitype/StillImage" />
        <dc:title></dc:title>
      </cc:Work>
      <cc:Work
         rdf:about="">
        <dc:format>image/svg+xml</dc:format>
        <dc:type
           rdf:resource="http://purl.org/dc/dcmitype/StillImage" />
      </cc:Work>
    </rdf:RDF>
  </metadata>
  <defs
     id="defs5">
    <linearGradient
       inkscape:collect="always"
       id="linearGradient28132">
      <stop
         style="stop-color:#000000;stop-opacity:1;"
         offset="0"
         id="stop28134" />
      <stop
         style="stop-color:#000000;stop-opacity:0;"
         offset="1"
         id="stop28136" />
    </linearGradient>
    <linearGradient
       id="linearGradient28077">
      <stop
         style="stop-color:#7a7a7a;stop-opacity:1;"
         offset="0"
         id="stop28079" />
      <stop
         style="stop-color:#000000;stop-opacity:0.4909091;"
         offset="1"
         id="stop28081" />
    </linearGradient>
    <linearGradient
       id="linearGradient28069">
      <stop
         style="stop-color:#868385;stop-opacity:1;"
         offset="0"
         id="stop28071" />
      <stop
         style="stop-color:#4a4949;stop-opacity:1"
         offset="1"
         id="stop28073" />
    </linearGradient>
    <linearGradient
       id="linearGradient28059">
      <stop
         style="stop-color:#ffffff;stop-opacity:1;"
         offset="0"
         id="stop28061" />
      <stop
         style="stop-color:#000000;stop-opacity:1;"
         offset="1"
         id="stop28063" />
    </linearGradient>
    <linearGradient
       inkscape:collect="always"
       id="linearGradient28049">
      <stop
         style="stop-color:#000000;stop-opacity:1;"
         offset="0"
         id="stop28051" />
      <stop
         style="stop-color:#000000;stop-opacity:0;"
         offset="1"
         id="stop28053" />
    </linearGradient>
    <linearGradient
       inkscape:collect="always"
       id="linearGradient27983">
      <stop
         style="stop-color:#000000;stop-opacity:1;"
         offset="0"
         id="stop27985" />
      <stop
         style="stop-color:#000000;stop-opacity:0;"
         offset="1"
         id="stop27987" />
    </linearGradient>
    <linearGradient
       id="linearGradient17395">
      <stop
         style="stop-color:#ffffff;stop-opacity:1;"
         offset="0"
         id="stop17397" />
      <stop
         style="stop-color:#ffffff;stop-opacity:0.80000001;"
         offset="1"
         id="stop17399" />
    </linearGradient>
    <linearGradient
       id="linearGradient17383">
      <stop
         style="stop-color:#202020;stop-opacity:1;"
         offset="0"
         id="stop17385" />
      <stop
         style="stop-color:#202020;stop-opacity:0.76363635;"
         offset="1"
         id="stop17387" />
    </linearGradient>
    <linearGradient
       inkscape:collect="always"
       id="linearGradient3275">
      <stop
         style="stop-color:#000000;stop-opacity:1;"
         offset="0"
         id="stop3277" />
      <stop
         style="stop-color:#000000;stop-opacity:0;"
         offset="1"
         id="stop3279" />
    </linearGradient>
    <linearGradient
       id="linearGradient3215">
      <stop
         style="stop-color:#8a8a8a;stop-opacity:1;"
         offset="0"
         id="stop3217" />
      <stop
         style="stop-color:#c6c6c6;stop-opacity:1;"
         offset="1"
         id="stop3219" />
    </linearGradient>
    <linearGradient
       inkscape:collect="always"
       id="linearGradient3136">
      <stop
         style="stop-color:#ffffff;stop-opacity:1;"
         offset="0"
         id="stop3138" />
      <stop
         style="stop-color:#ffffff;stop-opacity:0;"
         offset="1"
         id="stop3140" />
    </linearGradient>
    <linearGradient
       inkscape:collect="always"
       id="linearGradient3706">
      <stop
         style="stop-color:#000000;stop-opacity:1;"
         offset="0"
         id="stop3708" />
      <stop
         style="stop-color:#000000;stop-opacity:0;"
         offset="1"
         id="stop3710" />
    </linearGradient>
    <linearGradient
       inkscape:collect="always"
       id="linearGradient3468">
      <stop
         style="stop-color:#ffffff;stop-opacity:1;"
         offset="0"
         id="stop3470" />
      <stop
         style="stop-color:#ffffff;stop-opacity:0;"
         offset="1"
         id="stop3472" />
    </linearGradient>
    <linearGradient
       id="linearGradient3111">
      <stop
         style="stop-color:#ffffff;stop-opacity:1;"
         offset="0"
         id="stop3113" />
      <stop
         id="stop3603"
         offset="0.5"
         style="stop-color:#ffffff;stop-opacity:0.69818181;" />
      <stop
         style="stop-color:#ffffff;stop-opacity:0;"
         offset="1"
         id="stop3115" />
    </linearGradient>
    <linearGradient
       id="linearGradient3077">
      <stop
         style="stop-color:#d0ced9;stop-opacity:1;"
         offset="0"
         id="stop3079" />
      <stop
         id="stop3087"
         offset="0.25"
         style="stop-color:#ecf1f9;stop-opacity:1;" />
      <stop
         id="stop3085"
         offset="0.5"
         style="stop-color:#ffffff;stop-opacity:1;" />
      <stop
         style="stop-color:#c6d5e3;stop-opacity:1;"
         offset="1"
         id="stop3081" />
    </linearGradient>
    <linearGradient
       inkscape:collect="always"
       id="linearGradient3317">
      <stop
         style="stop-color:#000000;stop-opacity:1;"
         offset="0"
         id="stop3319" />
      <stop
         style="stop-color:#000000;stop-opacity:0;"
         offset="1"
         id="stop3321" />
    </linearGradient>
    <linearGradient
       id="linearGradient3174">
      <stop
         style="stop-color:#141313;stop-opacity:1"
         offset="0"
         id="stop3176" />
      <stop
         id="stop3182"
         offset="0.33497536"
         style="stop-color:#2b292a;stop-opacity:1" />
      <stop
         style="stop-color:#3f3e3e;stop-opacity:1"
         offset="0.63281107"
         id="stop3214" />
      <stop
         style="stop-color:#6b696a;stop-opacity:1;"
         offset="1"
         id="stop3178" />
    </linearGradient>
    <linearGradient
       inkscape:collect="always"
       xlink:href="#linearGradient3174"
       id="linearGradient3250"
       gradientUnits="userSpaceOnUse"
       gradientTransform="matrix(2.5599786,0,0,2.5618328,317.24891,-4847.794)"
       x1="-97.742668"
       y1="1937.9885"
       x2="-97.742668"
       y2="1895.421" />
    <clipPath
       clipPathUnits="userSpaceOnUse"
       id="clipPath3008">
      <rect
         style="opacity:0.265625;fill:none;fill-opacity:1;stroke:#000000;stroke-width:0.39999992;stroke-linecap:round;stroke-linejoin:round;stroke-miterlimit:4;stroke-dasharray:none;stroke-dashoffset:4.15;stroke-opacity:1"
         id="rect3010"
         width="78.12355"
         height="55.395592"
         x="24.680513"
         y="-68.245476"
         rx="1.133948"
         ry="1.133948" />
    </clipPath>
    <radialGradient
       inkscape:collect="always"
       xlink:href="#linearGradient3077"
       id="radialGradient3083"
       cx="100.16534"
       cy="37.468983"
       fx="100.16534"
       fy="37.468983"
       r="38"
       gradientTransform="matrix(4.8110826,7.5339956e-7,-3.1417064e-7,1.9257147,-441.90372,-88.154647)"
       gradientUnits="userSpaceOnUse" />
    <clipPath
       clipPathUnits="userSpaceOnUse"
       id="clipPath3215">
      <path
         style="opacity:1;fill:url(#linearGradient3219);fill-opacity:1;stroke:none;stroke-width:0.5;stroke-linecap:round;stroke-linejoin:round;stroke-miterlimit:4;stroke-dasharray:none;stroke-dashoffset:1.08779998;stroke-opacity:1"
         d="M 11.375,-167.68125 C 8.4215521,-167.68125 8,-167.31718 8,-164.3375 L 8,-163.55625 C 8,-166.53593 8.4215521,-166.86875 11.375,-166.86875 L 116.625,-166.86875 C 119.57845,-166.86875 120,-166.53593 120,-163.55625 L 120,-164.3375 C 120,-167.31718 119.57845,-167.68125 116.625,-167.68125 L 11.375,-167.68125 z"
         id="path3217" />
    </clipPath>
    <linearGradient
       inkscape:collect="always"
       xlink:href="#linearGradient3317"
       id="linearGradient3219"
       gradientUnits="userSpaceOnUse"
       gradientTransform="matrix(2.5599786,0,0,2.5827101,317.24891,-5063.043)"
       x1="-98.926186"
       y1="1892.9656"
       x2="-98.926186"
       y2="1897.0332" />
    <filter
       inkscape:collect="always"
       id="filter3659"
       x="-0.06900647"
       width="1.1380129"
       y="-0.12025558"
       height="1.2405112">
      <feGaussianBlur
         inkscape:collect="always"
         stdDeviation="1.9228365"
         id="feGaussianBlur3661" />
    </filter>
    <radialGradient
       inkscape:collect="always"
       xlink:href="#linearGradient3468"
       id="radialGradient3704"
       cx="84"
       cy="91.983192"
       fx="84"
       fy="91.983192"
       r="32"
       gradientTransform="matrix(1,0,0,0.6210279,0,37.87587)"
       gradientUnits="userSpaceOnUse" />
    <linearGradient
       inkscape:collect="always"
       xlink:href="#linearGradient3706"
       id="linearGradient3712"
       x1="47.608696"
       y1="104.35009"
       x2="47.608696"
       y2="176.35008"
       gradientUnits="userSpaceOnUse" />
    <linearGradient
       inkscape:collect="always"
       xlink:href="#linearGradient3136"
       id="linearGradient3142"
       x1="-37.195274"
       y1="42.336197"
       x2="-12.625"
       y2="106.7981"
       gradientUnits="userSpaceOnUse"
       gradientTransform="translate(126.8,0)" />
    <filter
       inkscape:collect="always"
       id="filter3192">
      <feGaussianBlur
         inkscape:collect="always"
         stdDeviation="0.0231875"
         id="feGaussianBlur3194" />
    </filter>
    <clipPath
       clipPathUnits="userSpaceOnUse"
       id="clipPath3199">
      <path
         style="fill:#000000;fill-opacity:0.12831858;stroke:none;stroke-width:0.5;stroke-linecap:round;stroke-linejoin:round;stroke-miterlimit:4;stroke-dasharray:none;stroke-dashoffset:4.15;stroke-opacity:1"
         d="M 18.189713,132.42089 C 16.770505,132.42089 15.627213,133.56419 15.627213,134.98339 L 15.627213,172.16667 L 87.627215,172.16667 L 87.627215,134.98339 C 87.627215,133.56419 86.483925,132.42089 85.064715,132.42089 L 18.189713,132.42089 z"
         id="path3201"
         clip-path="none"
         sodipodi:nodetypes="ccccccc" />
    </clipPath>
    <linearGradient
       inkscape:collect="always"
       xlink:href="#linearGradient3215"
       id="linearGradient3221"
       x1="52"
       y1="112"
       x2="52"
       y2="80"
       gradientUnits="userSpaceOnUse"
       gradientTransform="matrix(1,0,0,0.9968924,0,-0.2252278)" />
    <filter
       inkscape:collect="always"
       id="filter3271"
       x="-0.12384615"
       width="1.2476923"
       y="-0.092884615"
       height="1.1857692">
      <feGaussianBlur
         inkscape:collect="always"
         stdDeviation="1.2384615"
         id="feGaussianBlur3273" />
    </filter>
    <linearGradient
       inkscape:collect="always"
       xlink:href="#linearGradient3275"
       id="linearGradient3281"
       x1="68"
       y1="120"
       x2="36"
       y2="84"
       gradientUnits="userSpaceOnUse" />
    <clipPath
       clipPathUnits="userSpaceOnUse"
       id="clipPath25065">
      <path
         sodipodi:nodetypes="cccccccccccccccc"
         id="path25067"
         d="M -283.36245,66.003757 C -284.5397,66.003757 -285.48745,66.951507 -285.48745,68.128757 L -285.48745,105.94751 L -230.0812,105.94751 L -230.0812,68.128757 C -230.0812,66.951507 -231.02895,66.003757 -232.2062,66.003757 L -283.36245,66.003757 z M -277.1437,69.347507 L -263.0187,69.347507 C -262.49915,69.347507 -262.0812,69.765457 -262.0812,70.285007 L -262.0812,96.410007 C -262.0812,96.929557 -262.49915,97.347507 -263.0187,97.347507 L -277.1437,97.347507 C -277.66325,97.347507 -278.0812,96.929557 -278.0812,96.410007 L -278.0812,70.285007 C -278.0812,69.76546 -277.66325,69.347507 -277.1437,69.347507 z"
         style="opacity:1;fill:url(#linearGradient25069);fill-opacity:1;stroke:none;stroke-width:0.1;stroke-linecap:round;stroke-linejoin:round;stroke-miterlimit:4;stroke-dasharray:none;stroke-dashoffset:4.15;stroke-opacity:1" />
    </clipPath>
    <linearGradient
       inkscape:collect="always"
       xlink:href="#linearGradient3215"
       id="linearGradient25069"
       gradientUnits="userSpaceOnUse"
       gradientTransform="translate(-318.0812,-14.652496)"
       x1="52"
       y1="112"
       x2="52"
       y2="80" />
    <linearGradient
       inkscape:collect="always"
       xlink:href="#linearGradient17383"
       id="linearGradient25127"
       gradientUnits="userSpaceOnUse"
       gradientTransform="matrix(0.1674014,0,0,0.1674014,-177.23431,45.441149)"
       x1="-303.8866"
       y1="63.208507"
       x2="-188.19296"
       y2="63.208507" />
    <linearGradient
       inkscape:collect="always"
       xlink:href="#linearGradient27983"
       id="linearGradient27989"
       x1="86.693916"
       y1="100.83184"
       x2="90.051779"
       y2="100.83184"
       gradientUnits="userSpaceOnUse"
       gradientTransform="translate(1,0)" />
    <filter
       inkscape:collect="always"
       id="filter28003"
       x="-0.2548951"
       width="1.5097902"
       y="-0.022611663"
       height="1.0452233">
      <feGaussianBlur
         inkscape:collect="always"
         stdDeviation="0.35662617"
         id="feGaussianBlur28005" />
    </filter>
    <filter
       inkscape:collect="always"
       id="filter28031"
       x="-0.14666667"
       width="1.2933333"
       y="-0.10153846"
       height="1.2030769">
      <feGaussianBlur
         inkscape:collect="always"
         stdDeviation="0.55"
         id="feGaussianBlur28033" />
    </filter>
    <clipPath
       clipPathUnits="userSpaceOnUse"
       id="clipPath28041">
      <rect
         style="opacity:0.18359375;fill:#000000;fill-opacity:1;stroke:none;stroke-width:0.1;stroke-linecap:round;stroke-linejoin:round;stroke-miterlimit:4;stroke-dasharray:none;stroke-dashoffset:4.15;stroke-opacity:1"
         id="rect28043"
         width="8"
         height="12"
         x="12"
         y="12"
         rx="1.079258"
         ry="1.079258" />
    </clipPath>
    <clipPath
       clipPathUnits="userSpaceOnUse"
       id="clipPath28045">
      <rect
         style="opacity:0.18359375;fill:#000000;fill-opacity:1;stroke:none;stroke-width:0.1;stroke-linecap:round;stroke-linejoin:round;stroke-miterlimit:4;stroke-dasharray:none;stroke-dashoffset:4.15;stroke-opacity:1"
         id="rect28047"
         width="8"
         height="12"
         x="12"
         y="12"
         rx="1.079258"
         ry="1.079258" />
    </clipPath>
    <filter
       inkscape:collect="always"
       id="filter28101">
      <feGaussianBlur
         inkscape:collect="always"
         stdDeviation="0.04177847"
         id="feGaussianBlur28103" />
    </filter>
    <radialGradient
       inkscape:collect="always"
       xlink:href="#linearGradient28077"
       id="radialGradient28110"
       gradientUnits="userSpaceOnUse"
       gradientTransform="matrix(1,0,0,1.5,0,-9)"
       cx="16"
       cy="18"
       fx="16"
       fy="18"
       r="4" />
    <linearGradient
       inkscape:collect="always"
       xlink:href="#linearGradient28049"
       id="linearGradient28112"
       gradientUnits="userSpaceOnUse"
       x1="16"
       y1="1.5952783"
       x2="16"
       y2="18.75548" />
    <radialGradient
       inkscape:collect="always"
       xlink:href="#linearGradient28069"
       id="radialGradient28114"
       gradientUnits="userSpaceOnUse"
       gradientTransform="matrix(1.1062878,0,0,1.1062878,0.547091,-2.2994329)"
       cx="14"
       cy="19.699831"
       fx="14"
       fy="18.836424"
       r="2.15" />
    <linearGradient
       inkscape:collect="always"
       xlink:href="#linearGradient28059"
       id="linearGradient28116"
       gradientUnits="userSpaceOnUse"
       gradientTransform="matrix(1.1062878,0,0,1.1062878,0.547091,-2.2994329)"
       x1="11.917725"
       y1="17.560907"
       x2="11.917725"
       y2="20.038458" />
    <linearGradient
       inkscape:collect="always"
       xlink:href="#linearGradient28132"
       id="linearGradient28138"
       x1="60.25"
       y1="122.00736"
       x2="60.25"
       y2="118.5"
       gradientUnits="userSpaceOnUse"
       gradientTransform="matrix(1,0,0,1.0103538,0,-1.3128784)" />
    <linearGradient
       inkscape:collect="always"
       xlink:href="#XMLID_2_"
       id="linearGradient4706"
       gradientUnits="userSpaceOnUse"
       x1="28"
       y1="57.5"
       x2="28"
       y2="0" />
    <linearGradient
       y2="0"
       x2="28"
       y1="57.5"
       x1="28"
       gradientUnits="userSpaceOnUse"
       id="XMLID_2_">
      <stop
         id="stop12"
         style="stop-color:#FFEA00"
         offset="0" />
      <stop
         id="stop14"
         style="stop-color:#FFCC00"
         offset="1" />
    </linearGradient>
    <linearGradient
       inkscape:collect="always"
       xlink:href="#linearGradient18668"
       id="linearGradient4711"
       gradientUnits="userSpaceOnUse"
       gradientTransform="matrix(0.923077,0,0,0.923077,68.49975,-37.40521)"
       x1="-39.53125"
       y1="78"
       x2="-39.53125"
       y2="51.1875" />
    <linearGradient
       id="linearGradient18668"
       gradientUnits="userSpaceOnUse"
       x1="28"
       y1="57.5"
       x2="28"
       y2="0">
      <stop
         offset="0"
         style="stop-color:#fff8a8;stop-opacity:1;"
         id="stop18670" />
      <stop
         offset="1"
         style="stop-color:white;stop-opacity:0;"
         id="stop18672" />
    </linearGradient>
  </defs>
  <sodipodi:namedview
     inkscape:window-height="695"
     inkscape:window-width="1366"
     inkscape:pageshadow="2"
     inkscape:pageopacity="0.0"
     guidetolerance="10.0"
     gridtolerance="10.0"
     objecttolerance="10.0"
     borderopacity="1.0"
     bordercolor="#666666"
     pagecolor="#ffffff"
     id="base"
     width="128px"
     height="128px"
     showgrid="true"
     inkscape:zoom="2.4335938"
     inkscape:cx="-20.735441"
     inkscape:cy="70.214814"
     inkscape:window-x="0"
     inkscape:window-y="24"
     inkscape:current-layer="svg2"
     showguides="true"
     inkscape:guide-bbox="true"
     inkscape:window-maximized="1">
    <inkscape:grid
       type="xygrid"
       id="grid29592"
       spacingx="4"
       spacingy="4"
       empspacing="2"
       originx="0"
       originy="0" />
    <inkscape:grid
       id="GridFromPre046Settings"
       type="xygrid"
       originx="0"
       originy="0"
       spacingx="4"
       spacingy="4"
       color="#3f3fff"
       empcolor="#3f3fff"
       opacity="0.15"
       empopacity="0.38"
       empspacing="2" />
  </sodipodi:namedview>
  <g
     id="g5209">
    <path
       inkscape:connector-curvature="0"
       sodipodi:nodetypes="ccccccccc"
       id="rect2169"
       d="M 11.335342,0 C 9.5266198,0 7.9743178,1.6123041 7.9752582,3.299947 L 8,104.43244 19.640039,116 h 96.999201 c 2.95345,0 3.35982,-0.34436 3.35982,-3.29969 L 119.97432,3.299947 C 119.97432,1.5016268 118.41626,0 116.6145,0 Z"
       style="opacity:1;fill:url(#linearGradient3250);fill-opacity:1;stroke:none;stroke-width:0.5;stroke-linecap:round;stroke-linejoin:round;stroke-miterlimit:4;stroke-dasharray:none;stroke-dashoffset:1.08780003;stroke-opacity:1" />
    <path
       inkscape:connector-curvature="0"
       style="opacity:0.35;fill:none;fill-opacity:1;stroke:#000000;stroke-width:8;stroke-linecap:round;stroke-linejoin:round;stroke-miterlimit:4;stroke-dasharray:none;stroke-dashoffset:1.08780003;stroke-opacity:1"
       d="M 15.193656,4 C 13.514129,4 12.072707,5.49714 12.07358,7.064236 L 12,102.18726 21.880029,112 h 90.999201 c 2.74248,0 3.11983,-0.31977 3.11983,-3.064 L 116.07264,7.064236 C 116.07264,5.394368 114.62587,4 112.95281,4 Z"
       id="path5411"
       sodipodi:nodetypes="ccccccccc" />
    <rect
       rx="1.2994773"
       ry="1.2802259"
       y="4"
       x="24"
       height="52"
       width="80"
       id="rect3325"
       style="opacity:1;fill:url(#radialGradient3083);fill-opacity:1;stroke:none;stroke-width:2;stroke-linecap:round;stroke-linejoin:round;stroke-miterlimit:4;stroke-dasharray:none;stroke-dashoffset:1.08780003;stroke-opacity:1" />
    <path
       inkscape:connector-curvature="0"
       sodipodi:nodetypes="ccccccccccccccccc"
       transform="matrix(1,0,0,0.91653944,16.391305,-41.797544)"
       clip-path="url(#clipPath3199)"
       id="rect3626"
       d="m 16.78031,126.4375 c -1.48295,0 -2.65625,1.20455 -2.65625,2.6875 l 0.435841,39.22509 c 0,1.48295 1.173301,2.65625 2.65625,2.65625 h 0.15625 c -0.407771,-0.44637 -0.6875,-1.03176 -0.6875,-1.6875 L 16.24906,132.15625 c 0,-1.39131 1.112011,-2.53125 2.5,-2.53125 h 65.59375 c 1.387992,0 2.5,1.13994 2.5,2.53125 l 0.435841,37.16259 c 2e-6,0.65574 -0.248479,1.24113 -0.65625,1.6875 h 0.125 c 1.48295,0 2.687502,-1.1733 2.6875,-2.65625 L 88.99906,129.125 c 0,-1.48295 -1.204549,-2.6875 -2.6875,-2.6875 z"
       style="fill:url(#linearGradient3712);fill-opacity:1;stroke:none;stroke-width:0.5;stroke-linecap:round;stroke-linejoin:round;stroke-miterlimit:4;stroke-dasharray:none;stroke-dashoffset:4.1500001;stroke-opacity:1;filter:url(#filter3659)" />
    <path
       inkscape:connector-curvature="0"
       style="opacity:1;fill:#000000;fill-opacity:0.12831858;stroke:none;stroke-width:0.5;stroke-linecap:round;stroke-linejoin:round;stroke-miterlimit:4;stroke-dasharray:none;stroke-dashoffset:4.1500001;stroke-opacity:1"
       d="m 34.53687,76.00784 c -1.419208,0 -2.5625,1.14329 -2.5625,2.5625 l 0.02469,37.14624 h 72 l -0.0247,-37.14624 c 0,-1.41921 -1.14329,-2.5625 -2.5625,-2.5625 z"
       id="path3680"
       sodipodi:nodetypes="ccccccc" />
    <path
       inkscape:connector-curvature="0"
       style="opacity:0.07421875;fill:url(#radialGradient3704);fill-opacity:1;stroke:none;stroke-width:0.5;stroke-linecap:round;stroke-linejoin:round;stroke-miterlimit:4;stroke-dasharray:none;stroke-dashoffset:4.1500001;stroke-opacity:1"
       d="m 34.580078,76.0708 c -1.419208,0 -2.5625,1.1433 -2.5625,2.5625 v 37.18328 L 103.99906,115.7 V 78.51672 c 0,-1.4192 -1.14329,-2.5625 -2.5625,-2.5625 z"
       id="path3694"
       clip-path="none"
       sodipodi:nodetypes="ccccccc" />
    <path
       sodipodi:nodetypes="sscsssscsscsss"
       inkscape:connector-curvature="0"
       transform="matrix(1,0,0,1.0103538,0,-1.3128784)"
       id="rect3226"
       d="m 52.93656,80.040991 c -0.51955,0 -0.937465,0.417953 -0.9375,0.9375 v 23.062499 h -11.0625 c -0.51955,0 -0.9375,0.41795 -0.9375,0.9375 v 6.125 c 0,0.51955 0.417949,0.9375 0.9375,0.9375 h 12 10.125 c 0.51955,0 0.9375,-0.41795 0.9375,-0.9375 v -6.125 -23.999999 c 0,-0.51955 -0.417949,-0.9375 -0.9375,-0.9375 z"
       style="opacity:1;fill:url(#linearGradient3281);fill-opacity:1;stroke:none;stroke-width:0.1;stroke-linecap:round;stroke-linejoin:round;stroke-miterlimit:4;stroke-dasharray:none;stroke-dashoffset:4.1500001;stroke-opacity:1;filter:url(#filter3271)" />
    <path
       sodipodi:nodetypes="ccccccccccc"
       inkscape:connector-curvature="0"
       transform="matrix(0.9067163,0,0,1.1138304,4.475665,-12.395278)"
       id="path3128"
       d="m 112.08021,93.783789 v 6.718751 h -1.21875 -1.03125 l 4.34375,7.53125 4.34375,-7.53125 h -1.03125 -1.21875 v -6.718751 h -2.09375 z"
       style="opacity:0.453125;fill:url(#linearGradient3142);fill-opacity:1;fill-rule:evenodd;stroke:#ffffff;stroke-width:0.09888723;stroke-linecap:butt;stroke-linejoin:miter;stroke-miterlimit:4;stroke-dasharray:none;stroke-opacity:1;filter:url(#filter3192)" />
    <rect
       transform="matrix(1,0,0,1.0103538,0,-1.3128784)"
       y="81.905701"
       x="87.693916"
       height="34.20499"
       width="4.3060837"
       id="rect27981"
       style="opacity:0.296875;fill:url(#linearGradient27989);fill-opacity:1;stroke:none;stroke-width:0.1;stroke-linecap:round;stroke-linejoin:round;stroke-miterlimit:4;stroke-dasharray:none;stroke-dashoffset:4.1500001;stroke-opacity:1;filter:url(#filter28003)" />
    <path
       inkscape:connector-curvature="0"
       sodipodi:nodetypes="cccccccccccccccc"
       id="rect3196"
       d="m 34.541033,76.321631 c -1.17725,0 -2.125,0.944804 -2.125,2.118396 L 32.59281,116 H 87.99906 V 78.298781 c 0,-1.173593 -0.82275,-1.97715 -2,-1.97715 z m 6.395527,7.925238 h 14.125 c 0.519551,0 0.9375,0.416652 0.9375,0.934586 v 21.310695 c 0,0.51793 -0.41795,0.93459 -0.9375,0.93459 h -14.125 c -0.519551,0 -0.9375,-0.41666 -0.9375,-0.93459 V 85.181455 c 0,-0.517932 0.41795,-0.934586 0.9375,-0.934586 z"
       style="opacity:1;fill:url(#linearGradient3221);fill-opacity:1;stroke:none;stroke-width:0.1;stroke-linecap:round;stroke-linejoin:round;stroke-miterlimit:4;stroke-dasharray:none;stroke-dashoffset:4.1500001;stroke-opacity:1" />
    <g
       transform="matrix(1.4404859,0,0,0.9603239,-3.0477737,-5.2858298)"
       style="opacity:0.78515625"
       id="g28105">
      <rect
         ry="1.079258"
         rx="1.079258"
         y="12"
         x="12"
         height="12"
         width="8"
         id="rect28009"
         style="opacity:1;fill:none;fill-opacity:1;stroke:#000000;stroke-width:0.93187243;stroke-linecap:round;stroke-linejoin:round;stroke-miterlimit:4;stroke-dasharray:none;stroke-dashoffset:4.1500001;stroke-opacity:1;filter:url(#filter28031)"
         clip-path="url(#clipPath28045)"
         transform="matrix(0.6942102,0,0,0.6942102,4.8926363,5.5042159)" />
      <rect
         style="opacity:1;fill:url(#radialGradient28110);fill-opacity:1;stroke:url(#linearGradient28112);stroke-width:0.93187243;stroke-linecap:round;stroke-linejoin:round;stroke-miterlimit:4;stroke-dasharray:none;stroke-dashoffset:4.1500001;stroke-opacity:1;filter:url(#filter28031)"
         id="rect28039"
         width="8"
         height="12"
         x="12"
         y="12"
         rx="1.079258"
         ry="1.079258"
         clip-path="url(#clipPath28041)"
         transform="matrix(0.6942102,0,0,0.6942102,4.8926363,5.5042159)" />
      <rect
         style="opacity:1;fill:url(#radialGradient28114);fill-opacity:1;stroke:url(#linearGradient28116);stroke-width:0.30927575;stroke-linecap:round;stroke-linejoin:round;stroke-miterlimit:4;stroke-dasharray:none;stroke-dashoffset:4.1500001;stroke-opacity:1;filter:url(#filter28101)"
         id="rect28057"
         width="4.3502288"
         height="3.6759202"
         x="13.897468"
         y="18.030909"
         rx="0.45226815"
         ry="0.45226815" />
    </g>
    <path
       sodipodi:nodetypes="ccccccccc"
       inkscape:connector-curvature="0"
       id="rect6382"
       d="m 87.99906,76 v 7.71875 h 8 V 108 h 8 V 83.71875 76 h -8 z"
       style="opacity:0.35;fill:#000000;fill-opacity:1;stroke:none;stroke-width:8;stroke-linecap:round;stroke-linejoin:round;stroke-miterlimit:4;stroke-dasharray:none;stroke-dashoffset:0;stroke-opacity:1" />
    <rect
       y="80"
       x="32"
       height="7.9999962"
       width="56"
       id="rect6387"
       style="opacity:0.39901478;fill:#ffffff;fill-opacity:1;stroke:none;stroke-width:8;stroke-linecap:round;stroke-linejoin:round;stroke-miterlimit:4;stroke-dasharray:none;stroke-dashoffset:0;stroke-opacity:1" />
    <rect
       style="opacity:0.71199999;fill:#ffffff;fill-opacity:1;stroke:none;stroke-width:8;stroke-linecap:round;stroke-linejoin:round;stroke-miterlimit:4;stroke-dasharray:none;stroke-dashoffset:0;stroke-opacity:1"
       id="rect6389"
       width="56"
       height="4"
       x="32"
       y="108" />
    <rect
       y="4"
       x="24"
       height="12"
       width="80"
       id="rect6391"
       style="opacity:0.27586209;fill:#ffffff;fill-opacity:1;stroke:none;stroke-width:8;stroke-linecap:round;stroke-linejoin:round;stroke-miterlimit:4;stroke-dasharray:none;stroke-dashoffset:0;stroke-opacity:1" />
  </g>
  <g
     id="g5643"
     transform="translate(64.002523,1.4147762e-6)">
    <g
       transform="matrix(0.857143,0,0,0.857143,7.999999,7.999999)"
       id="g5633"
       i:extraneous="self"
       style="opacity:0.1;fill:none;stroke:#bf5e00;stroke-width:18.66666412;stroke-linejoin:round;stroke-miterlimit:4;stroke-dasharray:none">
      <linearGradient
         y2="0"
         x2="28"
         y1="57.5"
         x1="28"
         gradientUnits="userSpaceOnUse"
         id="linearGradient5635">
        <stop
           id="stop5637"
           style="stop-color:#FFEA00"
           offset="0" />
        <stop
           id="stop5639"
           style="stop-color:#FFCC00"
           offset="1" />
      </linearGradient>
      <polygon
         style="fill:none;stroke:#bf5e00;stroke-width:18.66666412;stroke-linejoin:round;stroke-miterlimit:4;stroke-dasharray:none"
         id="polygon5641"
         points="41.438,24.399 56,28 41.438,31.601 52.249,42 37.837,37.837 42,52.249 31.601,41.438 28,56 24.399,41.438 14,52.249 18.163,37.837 3.751,42 14.562,31.601 0,28 14.562,24.399 3.751,14 18.163,18.163 14,3.751 24.399,14.562 28,0 31.601,14.562 42,3.751 37.837,18.163 52.249,14 " />
    </g>
    <g
       style="opacity:0.15;fill:none;stroke:#bf5e00;stroke-width:13.99999809;stroke-linejoin:round;stroke-miterlimit:4;stroke-dasharray:none"
       i:extraneous="self"
       id="g5623"
       transform="matrix(0.857143,0,0,0.857143,7.999999,7.999999)">
      <linearGradient
         id="linearGradient5625"
         gradientUnits="userSpaceOnUse"
         x1="28"
         y1="57.5"
         x2="28"
         y2="0">
        <stop
           offset="0"
           style="stop-color:#FFEA00"
           id="stop5627" />
        <stop
           offset="1"
           style="stop-color:#FFCC00"
           id="stop5629" />
      </linearGradient>
      <polygon
         points="41.438,24.399 56,28 41.438,31.601 52.249,42 37.837,37.837 42,52.249 31.601,41.438 28,56 24.399,41.438 14,52.249 18.163,37.837 3.751,42 14.562,31.601 0,28 14.562,24.399 3.751,14 18.163,18.163 14,3.751 24.399,14.562 28,0 31.601,14.562 42,3.751 37.837,18.163 52.249,14 "
         id="polygon5631"
         style="fill:none;stroke:#bf5e00;stroke-width:13.99999809;stroke-linejoin:round;stroke-miterlimit:4;stroke-dasharray:none" />
    </g>
    <g
       transform="matrix(0.857143,0,0,0.857143,7.999999,7.999999)"
       id="g5613"
       i:extraneous="self"
       style="opacity:0.2;fill:none;stroke:#bf5e00;stroke-width:9.33333206;stroke-linejoin:round;stroke-miterlimit:4;stroke-dasharray:none">
      <linearGradient
         y2="0"
         x2="28"
         y1="57.5"
         x1="28"
         gradientUnits="userSpaceOnUse"
         id="linearGradient5615">
        <stop
           id="stop5617"
           style="stop-color:#FFEA00"
           offset="0" />
        <stop
           id="stop5619"
           style="stop-color:#FFCC00"
           offset="1" />
      </linearGradient>
      <polygon
         style="fill:none;stroke:#bf5e00;stroke-width:9.33333206;stroke-linejoin:round;stroke-miterlimit:4;stroke-dasharray:none"
         id="polygon5621"
         points="41.438,24.399 56,28 41.438,31.601 52.249,42 37.837,37.837 42,52.249 31.601,41.438 28,56 24.399,41.438 14,52.249 18.163,37.837 3.751,42 14.562,31.601 0,28 14.562,24.399 3.751,14 18.163,18.163 14,3.751 24.399,14.562 28,0 31.601,14.562 42,3.751 37.837,18.163 52.249,14 " />
    </g>
    <g
       style="opacity:0.25;fill:none;stroke:#bf5e00;stroke-width:4.66666603;stroke-linejoin:round;stroke-miterlimit:4;stroke-dasharray:none"
       i:extraneous="self"
       id="g4718"
       transform="matrix(0.857143,0,0,0.857143,7.999999,7.999999)">
      <linearGradient
         id="linearGradient4720"
         gradientUnits="userSpaceOnUse"
         x1="28"
         y1="57.5"
         x2="28"
         y2="0">
        <stop
           offset="0"
           style="stop-color:#FFEA00"
           id="stop4722" />
        <stop
           offset="1"
           style="stop-color:#FFCC00"
           id="stop4724" />
      </linearGradient>
      <polygon
         points="41.438,24.399 56,28 41.438,31.601 52.249,42 37.837,37.837 42,52.249 31.601,41.438 28,56 24.399,41.438 14,52.249 18.163,37.837 3.751,42 14.562,31.601 0,28 14.562,24.399 3.751,14 18.163,18.163 14,3.751 24.399,14.562 28,0 31.601,14.562 42,3.751 37.837,18.163 52.249,14 "
         id="polygon4726"
         style="fill:none;stroke:#bf5e00;stroke-width:4.66666603;stroke-linejoin:round;stroke-miterlimit:4;stroke-dasharray:none" />
    </g>
    <g
       transform="matrix(0.857143,0,0,0.857143,7.999999,7.999999)"
       id="g9"
       i:extraneous="self">
      <linearGradient
         y2="0"
         x2="28"
         y1="57.5"
         x1="28"
         gradientUnits="userSpaceOnUse"
         id="linearGradient2309">
        <stop
           id="stop2311"
           style="stop-color:#FFEA00"
           offset="0" />
        <stop
           id="stop2313"
           style="stop-color:#FFCC00"
           offset="1" />
      </linearGradient>
      <polygon
         style="fill:url(#linearGradient4706)"
         id="polygon16"
         points="41.438,24.399 56,28 41.438,31.601 52.249,42 37.837,37.837 42,52.249 31.601,41.438 28,56 24.399,41.438 14,52.249 18.163,37.837 3.751,42 14.562,31.601 0,28 14.562,24.399 3.751,14 18.163,18.163 14,3.751 24.399,14.562 28,0 31.601,14.562 42,3.751 37.837,18.163 52.249,14 " />
    </g>
    <path
       inkscape:connector-curvature="0"
       id="polygon18655"
       d="M 32.009361,9.8447961 29.153592,21.354412 20.932437,12.81595 24.220899,24.210182 12.826667,20.92172 l 8.538462,8.221155 -6.605769,1.644231 c 4.587209,2.366121 10.631485,3.807692 17.250001,3.807692 6.618516,-10e-7 12.633945,-1.441571 17.221155,-3.807692 l -6.605769,-1.644231 8.567308,-8.221155 -11.423078,3.288462 3.317308,-11.394232 -8.250001,8.538462 z"
       style="fill:url(#linearGradient4711);fill-opacity:1" />
  </g>
</svg>
