<?xml version="1.0" encoding="UTF-8" standalone="no"?>
<svg
   xmlns:dc="http://purl.org/dc/elements/1.1/"
   xmlns:cc="http://creativecommons.org/ns#"
   xmlns:rdf="http://www.w3.org/1999/02/22-rdf-syntax-ns#"
   xmlns:svg="http://www.w3.org/2000/svg"
   xmlns="http://www.w3.org/2000/svg"
   xmlns:xlink="http://www.w3.org/1999/xlink"
   xmlns:sodipodi="http://sodipodi.sourceforge.net/DTD/sodipodi-0.dtd"
   xmlns:inkscape="http://www.inkscape.org/namespaces/inkscape"
   enable-background="new 0 0 128 128"
   height="128"
   viewBox="0 0 128 128"
   width="128"
   version="1.1"
   id="svg1438"
   sodipodi:docname="templatestar.svg"
   inkscape:version="0.92.3 (unknown)"
   inkscape:export-filename="/home/rizmut/Dokumen/Rizmut/Github/libreoffice-style-karasa-jaga/build/images_karasa_jaga/res/templatestar.png"
   inkscape:export-xdpi="16.500002"
   inkscape:export-ydpi="16.500002">
  <metadata
     id="metadata1444">
    <rdf:RDF>
      <cc:Work
         rdf:about="">
        <dc:format>image/svg+xml</dc:format>
        <dc:type
           rdf:resource="http://purl.org/dc/dcmitype/StillImage" />
        <dc:title></dc:title>
      </cc:Work>
    </rdf:RDF>
  </metadata>
  <defs
     id="defs1442">
    <filter
       inkscape:collect="always"
       id="filter3505">
      <feGaussianBlur
         inkscape:collect="always"
         stdDeviation="0.4605"
         id="feGaussianBlur3507" />
    </filter>
    <linearGradient
       inkscape:collect="always"
       xlink:href="#linearGradient2956"
       id="linearGradient3147"
       gradientUnits="userSpaceOnUse"
       gradientTransform="translate(3.0000239,18)"
       x1="89.090881"
       y1="103.89701"
       x2="89.090881"
       y2="30.849478" />
    <linearGradient
       inkscape:collect="always"
       id="linearGradient2956">
      <stop
         style="stop-color:#003100;stop-opacity:1;"
         offset="0"
         id="stop2958" />
      <stop
         style="stop-color:#008c00;stop-opacity:1"
         offset="1"
         id="stop2960" />
    </linearGradient>
    <radialGradient
       inkscape:collect="always"
       xlink:href="#linearGradient2998"
       id="radialGradient3144"
       gradientUnits="userSpaceOnUse"
       gradientTransform="matrix(1.0961401,0.0879121,-0.1002304,1.2497316,4.0599573,-4.687387)"
       cx="53.633381"
       cy="51.919601"
       fx="53.633381"
       fy="51.919601"
       r="52.000004" />
    <linearGradient
       inkscape:collect="always"
       id="linearGradient2998">
      <stop
         style="stop-color:#ffffff;stop-opacity:1;"
         offset="0"
         id="stop3000" />
      <stop
         style="stop-color:#ffffff;stop-opacity:0;"
         offset="1"
         id="stop3002" />
    </linearGradient>
    <filter
       inkscape:collect="always"
       id="filter3521">
      <feBlend
         inkscape:collect="always"
         mode="lighten"
         in2="BackgroundImage"
         id="feBlend3523" />
    </filter>
    <radialGradient
       inkscape:collect="always"
       xlink:href="#linearGradient3415"
       id="radialGradient3157"
       gradientUnits="userSpaceOnUse"
       gradientTransform="matrix(1.9646726,3.4242959e-7,-1.0414508e-6,5.9752716,-167.24116,-126.14811)"
       cx="99.765625"
       cy="29.374895"
       fx="99.765625"
       fy="29.374895"
       r="3.015625" />
    <linearGradient
       inkscape:collect="always"
       id="linearGradient3415">
      <stop
         style="stop-color:#f0ff80;stop-opacity:1;"
         offset="0"
         id="stop3417" />
      <stop
         style="stop-color:#f0ff80;stop-opacity:0;"
         offset="1"
         id="stop3419" />
    </linearGradient>
    <filter
       inkscape:collect="always"
       id="filter3525"
       x="-0.18232919"
       width="1.3646584"
       y="-0.10289138"
       height="1.2057828">
      <feGaussianBlur
         inkscape:collect="always"
         stdDeviation="0.45819706"
         id="feGaussianBlur3527" />
    </filter>
    <radialGradient
       inkscape:collect="always"
       xlink:href="#linearGradient2998"
       id="radialGradient3155"
       gradientUnits="userSpaceOnUse"
       gradientTransform="matrix(1.9646726,3.4242959e-7,-1.0414508e-6,5.9752716,-96.241137,-146.14811)"
       cx="99.765625"
       cy="29.374895"
       fx="99.765625"
       fy="29.374895"
       r="3.015625" />
    <filter
       inkscape:collect="always"
       id="filter3533"
       x="-0.10382974"
       width="1.2076595"
       y="-0.18512975"
       height="1.3702595">
      <feGaussianBlur
         inkscape:collect="always"
         stdDeviation="0.45819702"
         id="feGaussianBlur3535" />
    </filter>
    <radialGradient
       inkscape:collect="always"
       xlink:href="#linearGradient2998"
       id="radialGradient3139"
       gradientUnits="userSpaceOnUse"
       gradientTransform="matrix(1.9646726,3.4242959e-7,-1.0414508e-6,5.9752716,-164.24114,-112.14811)"
       cx="99.765625"
       cy="29.374895"
       fx="99.765625"
       fy="29.374895"
       r="3.015625" />
    <filter
       inkscape:collect="always"
       id="filter3529"
       x="-0.18232919"
       width="1.3646584"
       y="-0.10289138"
       height="1.2057828">
      <feGaussianBlur
         inkscape:collect="always"
         stdDeviation="0.45819706"
         id="feGaussianBlur3531" />
    </filter>
    <radialGradient
       inkscape:collect="always"
       xlink:href="#linearGradient2998"
       id="radialGradient3153"
       gradientUnits="userSpaceOnUse"
       gradientTransform="matrix(1.9646726,3.4242959e-7,-1.0414508e-6,5.9752716,-96.241137,-146.14811)"
       cx="99.765625"
       cy="29.374895"
       fx="99.765625"
       fy="29.374895"
       r="3.015625" />
    <filter
       inkscape:collect="always"
       id="filter3541"
       x="-0.10382974"
       width="1.2076595"
       y="-0.18512975"
       height="1.3702595">
      <feGaussianBlur
         inkscape:collect="always"
         stdDeviation="0.45819702"
         id="feGaussianBlur3543" />
    </filter>
    <radialGradient
       inkscape:collect="always"
       xlink:href="#linearGradient2998"
       id="radialGradient3135"
       gradientUnits="userSpaceOnUse"
       gradientTransform="matrix(1.9646726,3.4242959e-7,-1.0414508e-6,5.9752716,-93.241137,-132.14811)"
       cx="99.765625"
       cy="29.374895"
       fx="99.765625"
       fy="29.374895"
       r="3.015625" />
    <filter
       inkscape:collect="always"
       id="filter3537"
       x="-0.18232919"
       width="1.3646584"
       y="-0.10289138"
       height="1.2057828">
      <feGaussianBlur
         inkscape:collect="always"
         stdDeviation="0.45819706"
         id="feGaussianBlur3539" />
    </filter>
    <radialGradient
       inkscape:collect="always"
       xlink:href="#linearGradient2981"
       id="radialGradient3132"
       gradientUnits="userSpaceOnUse"
       gradientTransform="matrix(0.5646619,8.5323328e-8,-1.386601e-7,0.9176397,27.424193,14.143916)"
       cx="52.791927"
       cy="95.459297"
       fx="53.15992"
       fy="87.08094"
       r="52.000004" />
    <linearGradient
       inkscape:collect="always"
       id="linearGradient2981">
      <stop
         style="stop-color:#001400;stop-opacity:1;"
         offset="0"
         id="stop2983" />
      <stop
         style="stop-color:#001400;stop-opacity:0;"
         offset="1"
         id="stop2985" />
    </linearGradient>
    <radialGradient
       inkscape:collect="always"
       xlink:href="#linearGradient2948"
       id="radialGradient3129"
       gradientUnits="userSpaceOnUse"
       gradientTransform="matrix(1.3117247,5.8470212e-8,-4.3852649e-8,0.9837933,-13.905973,15.313725)"
       cx="54.537579"
       cy="77.542084"
       fx="54.537579"
       fy="99.883759"
       r="48.000004" />
    <linearGradient
       inkscape:collect="always"
       id="linearGradient2948">
      <stop
         style="stop-color:#66f515;stop-opacity:1"
         offset="0"
         id="stop2950" />
      <stop
         style="stop-color:#002e00;stop-opacity:1"
         offset="1"
         id="stop2952" />
    </linearGradient>
    <linearGradient
       inkscape:collect="always"
       xlink:href="#linearGradient2971"
       id="linearGradient3126"
       gradientUnits="userSpaceOnUse"
       gradientTransform="translate(3,18)"
       x1="83.324677"
       y1="24.0625"
       x2="83.324677"
       y2="89.99453" />
    <linearGradient
       inkscape:collect="always"
       id="linearGradient2971">
      <stop
         style="stop-color:#bfffbf;stop-opacity:1;"
         offset="0"
         id="stop2973" />
      <stop
         style="stop-color:#bfffbf;stop-opacity:0;"
         offset="1"
         id="stop2975" />
    </linearGradient>
    <linearGradient
       inkscape:collect="always"
       xlink:href="#linearGradient3415"
       id="linearGradient3123"
       gradientUnits="userSpaceOnUse"
       gradientTransform="translate(3.0000239,14)"
       x1="71.603867"
       y1="96.884026"
       x2="71.603867"
       y2="47.378731" />
    <filter
       inkscape:collect="always"
       id="filter3423">
      <feGaussianBlur
         inkscape:collect="always"
         stdDeviation="0.425"
         id="feGaussianBlur3425" />
    </filter>
    <linearGradient
       inkscape:collect="always"
       xlink:href="#linearGradient2998"
       id="linearGradient3120"
       gradientUnits="userSpaceOnUse"
       gradientTransform="translate(3,14)"
       x1="87.533279"
       y1="74.838577"
       x2="77.137749"
       y2="46.277084" />
    <linearGradient
       inkscape:collect="always"
       xlink:href="#linearGradient2998"
       id="linearGradient3117"
       gradientUnits="userSpaceOnUse"
       gradientTransform="translate(3,18)"
       x1="83.324677"
       y1="24.0625"
       x2="83.324677"
       y2="69.837845" />
  </defs>
  <sodipodi:namedview
     pagecolor="#ffffff"
     bordercolor="#666666"
     borderopacity="1"
     objecttolerance="10"
     gridtolerance="10"
     guidetolerance="10"
     inkscape:pageopacity="0"
     inkscape:pageshadow="2"
     inkscape:window-width="1366"
     inkscape:window-height="706"
     id="namedview1440"
     showgrid="false"
     inkscape:zoom="2.7510873"
     inkscape:cx="55.376373"
     inkscape:cy="70.600801"
     inkscape:window-x="0"
     inkscape:window-y="0"
     inkscape:window-maximized="1"
     inkscape:current-layer="svg1438" />
  <linearGradient
     id="a"
     gradientUnits="userSpaceOnUse"
     x1="88.591797"
     x2="71.262016"
     y1="96.592697"
     y2="79.262917">
    <stop
       offset="0"
       stop-color="#fff"
       id="stop1340" />
    <stop
       offset="1"
       stop-color="#555753"
       id="stop1342" />
  </linearGradient>
  <linearGradient
     id="b"
     gradientUnits="userSpaceOnUse"
     x1="85.219681"
     x2="61.336319"
     y1="93.219681"
     y2="69.336319">
    <stop
       offset="0"
       id="stop1345" />
    <stop
       offset="1"
       stop-color="#393b38"
       id="stop1347" />
  </linearGradient>
  <linearGradient
     id="c"
     gradientUnits="userSpaceOnUse"
     x1="96"
     x2="88.0002"
     y1="104"
     y2="96.0002">
    <stop
       offset="0"
       stop-color="#888a85"
       id="stop1350" />
    <stop
       offset=".0072"
       stop-color="#8c8e89"
       id="stop1352" />
    <stop
       offset=".0673"
       stop-color="#abaca9"
       id="stop1354" />
    <stop
       offset=".1347"
       stop-color="#c5c6c4"
       id="stop1356" />
    <stop
       offset=".2115"
       stop-color="#dbdbda"
       id="stop1358" />
    <stop
       offset=".3012"
       stop-color="#ebebeb"
       id="stop1360" />
    <stop
       offset=".4122"
       stop-color="#f7f7f6"
       id="stop1362" />
    <stop
       offset=".5679"
       stop-color="#fdfdfd"
       id="stop1364" />
    <stop
       offset="1"
       stop-color="#fff"
       id="stop1366" />
  </linearGradient>
  <radialGradient
     id="d"
     cx="102"
     cy="112.3047"
     gradientTransform="matrix(.94807 0 0 .9510679 3.32352 5.274458)"
     gradientUnits="userSpaceOnUse"
     r="139.55859">
    <stop
       offset="0"
       stop-color="#535557"
       id="stop1369" />
    <stop
       offset=".11366145"
       stop-color="#898a8c"
       id="stop1371" />
    <stop
       offset=".20296688"
       stop-color="#ececec"
       id="stop1373" />
    <stop
       offset=".2363"
       stop-color="#fafafa"
       id="stop1375" />
    <stop
       offset=".2722"
       stop-color="#fff"
       id="stop1377" />
    <stop
       offset=".5313"
       stop-color="#fafafa"
       id="stop1379" />
    <stop
       offset=".8449"
       stop-color="#ebecec"
       id="stop1381" />
    <stop
       offset="1"
       stop-color="#e1e2e3"
       id="stop1383" />
  </radialGradient>
  <radialGradient
     id="e"
     cx="100.8098464"
     cy="112.93460525694"
     gradientUnits="userSpaceOnUse"
     r="135.1875556917">
    <stop
       offset="0"
       stop-color="#3e3e3e"
       id="stop1386" />
    <stop
       offset=".0151"
       stop-color="#505050"
       id="stop1388" />
    <stop
       offset=".0558"
       stop-color="#7e7e7e"
       id="stop1390" />
    <stop
       offset=".1357"
       stop-color="#c6c6c6"
       id="stop1392" />
    <stop
       offset=".20990001"
       stop-color="#f1f1f1"
       id="stop1394" />
    <stop
       offset=".24349999"
       stop-color="#fcfcfc"
       id="stop1396" />
    <stop
       offset=".2722"
       stop-color="#fff"
       id="stop1398" />
  </radialGradient>
  <filter
     id="f">
    <feGaussianBlur
       stdDeviation="1.0394514"
       id="feGaussianBlur1401" />
  </filter>
  <filter
     id="g">
    <feGaussianBlur
       stdDeviation=".50063244"
       id="feGaussianBlur1404" />
  </filter>
  <filter
     id="h">
    <feGaussianBlur
       stdDeviation=".40750996"
       id="feGaussianBlur1407" />
  </filter>
  <filter
     id="i">
    <feGaussianBlur
       stdDeviation=".4901192"
       id="feGaussianBlur1410" />
  </filter>
  <filter
     id="j">
    <feGaussianBlur
       stdDeviation=".90565481"
       id="feGaussianBlur1413" />
  </filter>
  <path
     d="m23 8.9687825.040816 114.0246875h61.131184c.53 0 1.039-.211 1.414-.586l32.828-32.828001c.375-.375.586-.884.586-1.414v-79.1966865z"
     filter="url(#f)"
     opacity=".553425"
     transform="matrix(1.0090419 0 0 1.003276 -7.641977 .929762)"
     id="path1416" />
  <path
     d="m23 9 .04082 113.99347h61.13118c.53 0 1.039-.211 1.414-.586l32.828-32.828001c.375-.375.586-.884.586-1.414v-79.165469z"
     filter="url(#f)"
     opacity=".306849"
     transform="matrix(1.0090419 0 0 1.003276 -7.641977 .929762)"
     id="path1418" />
  <path
     d="m24.905735 10.673272.01426 110.189918 58.676001-.0001c.53 0 1.039-.211 1.414-.586l31.484-31.765934c.375-.375.586-.884.586-1.414l.0812-76.423884z"
     filter="url(#g)"
     opacity=".89589"
     transform="matrix(1.0090419 0 0 1.003276 -7.641977 .929762)"
     id="path1420" />
  <path
     d="m23 9.9655172.040816 113.0279528h61.131184c.53 0 1.039-.211 1.414-.586l32.828-32.828001c.375-.375.586-.884.586-1.414v-78.1999518z"
     filter="url(#f)"
     opacity=".306849"
     transform="matrix(1.0090419 0 0 1.003276 -7.641977 .929762)"
     id="path1422" />
  <path
     d="m17.488953 11.638.0144 110.55089h59.256106c.513401 0 1.006458-.20439 1.369714-.56765l31.799827-31.799829c.36326-.363255.56764-.856313.56764-1.369714l.08191-76.813697z"
     fill="url(#e)"
     id="path1424" />
  <path
     d="m24.066856 17.512144c-.522387 0-.94807.42703-.94807.951069l.321923 96.737247c0 .525.425684.95108.94807.95108h52.099199c.249342 0 .493944-.10082.670284-.27867l28.123238-27.221657c.17729-.17785.27778-.422273.27778-.672405l-.7-69.493672c0-.524039-.42473-.951068-.94806-.951068z"
     fill="url(#d)"
     id="path1426" />
  <g
     transform="matrix(1.1080161 0 0 1.1080161 -12.744784 -10.01667)"
     id="g1436">
    <path
       d="m111.414 86.586c.25-.25-26.379-1.586-31.414-1.586-1.654 0-3 1.346-3 3 0 5.035 1.336 31.664 1.586 31.414z"
       fill="url(#a)"
       filter="url(#h)"
       opacity=".750685"
       id="path1428" />
    <path
       d="m111.414 86.586c.375-.375-21.97-.586-31.414-.586-1.103 0-2 .897-2 2 0 9.444.211 31.789.586 31.414z"
       filter="url(#j)"
       opacity=".2"
       id="path1430" />
    <path
       d="m111.414 86.586c.239-.239-21.607.414-31.414.414-.553 0-1 .447-1 1 0 9.807-.653 31.653-.414 31.414z"
       fill="url(#b)"
       filter="url(#i)"
       opacity=".1"
       id="path1432" />
    <path
       d="m79.721619 119.31106 31.505501-31.505504h-31.505501z"
       fill="url(#c)"
       id="path1434" />
  </g>
  <g
     id="g2545"
     transform="translate(5.8158823,9.6333455)">
    <path
       style="fill:none;stroke:#004d00;stroke-width:12;stroke-linecap:round;stroke-linejoin:round;stroke-miterlimit:4;stroke-dasharray:none;stroke-opacity:1;filter:url(#filter3505)"
       id="path3503"
       d="M 57.39399,88.154282 C 49.245991,79.803997 31.630851,61.75 31.630851,61.75 L 18.999996,74.697999 57.39399,114.05285 115,55 102.36742,42.05286 c 0,0 -35.262001,36.147423 -44.97343,46.101422 z"
       inkscape:connector-curvature="0" />
    <path
       d="M 57.39399,88.154282 C 49.245991,79.803997 31.630851,61.75 31.630851,61.75 L 18.999996,74.697999 57.39399,114.05285 115,55 102.36742,42.05286 c 0,0 -35.262001,36.147423 -44.97343,46.101422 z"
       id="path2365"
       style="fill:none;stroke:url(#linearGradient3147);stroke-width:8;stroke-linecap:round;stroke-linejoin:round;stroke-miterlimit:4;stroke-dasharray:none;stroke-opacity:1"
       inkscape:connector-curvature="0" />
    <path
       d="M 57.39399,88.154282 C 49.245991,79.803997 31.630851,61.75 31.630851,61.75 L 18.999996,74.697999 57.39399,114.05285 115,55 102.36742,42.05286 c 0,0 -35.262001,36.147423 -44.97343,46.101422 z"
       id="path3509"
       style="opacity:0.2857143;fill:none;stroke:url(#radialGradient3144);stroke-width:8;stroke-linecap:round;stroke-linejoin:round;stroke-miterlimit:4;stroke-dasharray:none;stroke-opacity:1;filter:url(#filter3521)"
       inkscape:connector-curvature="0" />
    <path
       style="opacity:0.40952382;fill:url(#radialGradient3157);fill-opacity:1;stroke:none;filter:url(#filter3525)"
       d="m 28.406226,44.03125 c -0.149888,-0.0024 -0.286582,0.01658 -0.4375,0.03125 -0.827192,0.08205 -1.59533,0.427082 -2.21875,0.96875 l 1.6875,9.6875 c 0.110915,-0.113676 0.850367,-0.848179 0.9375,-0.9375 l 0.375,0.375 3.03125,-8.34375 -0.5625,-0.5625 c -0.74135,-0.759594 -1.76329,-1.201919 -2.8125,-1.21875 z"
       id="path3455"
       transform="matrix(1,0,0,-1,29.000024,161.74979)"
       inkscape:connector-curvature="0" />
    <path
       style="opacity:0.23809521;fill:url(#radialGradient3155);fill-opacity:1;stroke:none;filter:url(#filter3533)"
       d="m 99.40625,24.03125 c -0.149888,-0.0024 -0.286582,0.01658 -0.4375,0.03125 -0.827192,0.08205 -1.59533,0.427082 -2.21875,0.96875 l 1.6875,9.6875 c 0.110915,-0.113676 0.850367,-0.848179 0.9375,-0.9375 l 0.375,0.375 3.03125,-8.34375 -0.5625,-0.5625 c -0.74135,-0.759594 -1.76329,-1.201919 -2.8125,-1.21875 z"
       transform="matrix(-0.3420202,0.9396927,0.9396927,0.3420202,27.209834,-28.203299)"
       id="path3290"
       inkscape:connector-curvature="0" />
    <path
       id="path3286"
       d="m 31.40625,58.03125 c -0.149888,-0.0024 -0.286582,0.01658 -0.4375,0.03125 -0.827192,0.08205 -1.59533,0.427082 -2.21875,0.96875 l 1.6875,9.6875 c 0.110915,-0.113676 0.850367,-0.848179 0.9375,-0.9375 l 0.375,0.375 3.03125,-8.34375 -0.5625,-0.5625 c -0.74135,-0.759594 -1.76329,-1.201919 -2.8125,-1.21875 z"
       style="opacity:0.77619048;fill:url(#radialGradient3139);fill-opacity:1;stroke:none;filter:url(#filter3529)"
       inkscape:connector-curvature="0" />
    <path
       id="path3254"
       transform="rotate(69.999999,88.187416,52.685162)"
       d="m 99.40625,24.03125 c -0.149888,-0.0024 -0.286582,0.01658 -0.4375,0.03125 -0.827192,0.08205 -1.59533,0.427082 -2.21875,0.96875 l 1.6875,9.6875 c 0.110915,-0.113676 0.850367,-0.848179 0.9375,-0.9375 l 0.375,0.375 3.03125,-8.34375 -0.5625,-0.5625 c -0.74135,-0.759594 -1.76329,-1.201919 -2.8125,-1.21875 z"
       style="opacity:0.37142861;fill:url(#radialGradient3153);fill-opacity:1;stroke:none;filter:url(#filter3541)"
       inkscape:connector-curvature="0" />
    <path
       style="opacity:0.87142855;fill:url(#radialGradient3135);fill-opacity:1;stroke:none;filter:url(#filter3537)"
       d="m 102.40625,38.03125 c -0.14989,-0.0024 -0.28658,0.01658 -0.4375,0.03125 -0.82719,0.08205 -1.59533,0.427082 -2.21875,0.96875 l 1.6875,9.6875 c 0.11092,-0.113676 0.85037,-0.848179 0.9375,-0.9375 l 0.375,0.375 3.03125,-8.34375 -0.5625,-0.5625 c -0.74135,-0.759594 -1.76329,-1.201919 -2.8125,-1.21875 z"
       id="path2989"
       inkscape:connector-curvature="0" />
    <path
       style="opacity:0.2857143;fill:none;stroke:url(#radialGradient3132);stroke-width:8;stroke-linecap:round;stroke-linejoin:round;stroke-miterlimit:4;stroke-dasharray:none;stroke-opacity:1"
       id="path2979"
       d="M 57.39399,88.154282 C 49.245991,79.803997 31.630851,61.75 31.630851,61.75 L 18.999996,74.697999 57.39399,114.05285 115,55 102.36742,42.05286 c 0,0 -35.262001,36.147423 -44.97343,46.101422 z"
       inkscape:connector-curvature="0" />
    <path
       style="fill:url(#radialGradient3129);fill-opacity:1"
       id="path24"
       d="M 57.39399,88.154282 C 49.245991,79.803997 31.630851,61.75 31.630851,61.75 L 18.999996,74.697999 57.39399,114.05285 115,55 102.36742,42.05286 c 0,0 -35.262001,36.147423 -44.97343,46.101422 z"
       inkscape:connector-curvature="0" />
    <path
       style="fill:url(#linearGradient3126);fill-opacity:1"
       d="m 102.375,42.0625 c 0,0 -35.257321,36.139751 -44.96875,46.09375 C 49.258251,79.805965 31.625,61.75 31.625,61.75 L 19,74.6875 35.46875,91.5625 c 0.188911,4.87e-4 0.373377,0 0.5625,0 17.529799,0 34.136291,-2.093139 49.03125,-5.84375 L 115,55 Z"
       id="path2964"
       inkscape:connector-curvature="0" />
    <path
       d="M 57.39399,88.154282 C 49.245991,79.803997 31.630851,61.75 31.630851,61.75 L 18.999996,74.697999 57.39399,114.05285 115,55 102.36742,42.05286 c 0,0 -35.262001,36.147423 -44.97343,46.101422 z"
       id="path3413"
       style="fill:none;stroke:url(#linearGradient3123);stroke-opacity:1;filter:url(#filter3423)"
       inkscape:connector-curvature="0" />
    <path
       style="fill:url(#linearGradient3120);fill-opacity:1"
       d="m 102.375,42.0625 c 0,0 -0.40024,0.431341 -0.40625,0.4375 l 12.1875,12.28125 -30,30.21875 c -14.927199,3.687634 -31.057257,6.218746 -48.625,6.21875 -0.126355,0 -0.250091,-10e-7 -0.375,0 l 0.3125,0.34375 c 0.188911,4.87e-4 0.373377,0 0.5625,0 17.529799,0 34.136291,-2.093139 49.03125,-5.84375 L 115,55 Z"
       id="path3427"
       sodipodi:nodetypes="ccccsccsccc"
       inkscape:connector-curvature="0" />
    <path
       style="fill:url(#linearGradient3117);fill-opacity:1"
       d="m 102.375,42.0625 c 0,0 -35.257321,36.139751 -44.96875,46.09375 C 49.258251,79.805965 31.625,61.75 31.625,61.75 L 19,74.6875 l 0.5,0.5 L 31.625,62.75 c 0,0 17.633251,18.055965 25.78125,26.40625 C 67.117679,79.202251 102.375,43.0625 102.375,43.0625 L 114.5,55.5 115,55 Z"
       id="path3444"
       inkscape:connector-curvature="0" />
  </g>
</svg>
