<svg height="24" viewBox="0 0 6.3499999 6.3500002" width="24" xmlns="http://www.w3.org/2000/svg" xmlns:xlink="http://www.w3.org/1999/xlink"><radialGradient id="a" cx="419.15976" cy="531.81116" gradientTransform="matrix(0 -.23874512 .22282879 0 -116.65107 393.48713)" gradientUnits="userSpaceOnUse" r="2.5"><stop offset="0" stop-color="#bbf10e"/><stop offset="1" stop-color="#5f9207"/></radialGradient><linearGradient id="b" gradientTransform="matrix(0 -.15916342 .15916342 0 -83.194923 360.14239)" gradientUnits="userSpaceOnUse" x1="418" x2="419.31973" y1="529" y2="533.92529"><stop offset="0" stop-color="#e0f4b8"/><stop offset="1" stop-color="#92c441" stop-opacity=".214592"/></linearGradient><linearGradient id="c" gradientUnits="userSpaceOnUse" x1="1.852083" x2="1.852083" y1="294.354159" y2="293.031239"><stop offset="0" stop-color="#033a13"/><stop offset="1" stop-color="#398c37"/></linearGradient><g fill="#555"><path d="m.79375.52918h4.7625v.264662h-4.7625z"/><path d="m.79375 1.32291h4.233334v.264648h-4.233334z"/><path d="m3.17500028 2.64583594h2.38124992v.26458575h-2.38124992z"/><path d="m3.17500028 3.43958391h1.85208358v.26458352h-1.85208358z"/><path d="m3.175 4.76249h2.38125v.264573h-2.38125z"/><path d="m3.175 5.55625h1.852084v.264555h-1.852084z"/></g><g fill-rule="evenodd" transform="matrix(0 1 1 0 -291.972898 1.322912)"><path d="m1.7068615 292.89945a.26471595.26471595 0 0 0 -.2024231.11044l-.66165164.92584a.26471595.26471595 0 0 0 .21551514.41828h1.3229676a.26471595.26471595 0 0 0 .2155151-.41828l-.661316-.92584a.26471595.26471595 0 0 0 -.2286071-.11044z" fill="url(#c)"/><path d="m1.0583334 294.08957.6614584-.92604.6614582.92604z" fill="url(#a)"/><path d="m1.0583334 294.08957.6614584-.92604v.92604z" fill="url(#b)"/></g></svg>