<?xml version="1.0" encoding="UTF-8" standalone="no"?>
<svg
   xmlns:dc="http://purl.org/dc/elements/1.1/"
   xmlns:cc="http://creativecommons.org/ns#"
   xmlns:rdf="http://www.w3.org/1999/02/22-rdf-syntax-ns#"
   xmlns:svg="http://www.w3.org/2000/svg"
   xmlns="http://www.w3.org/2000/svg"
   xmlns:xlink="http://www.w3.org/1999/xlink"
   xmlns:sodipodi="http://sodipodi.sourceforge.net/DTD/sodipodi-0.dtd"
   xmlns:inkscape="http://www.inkscape.org/namespaces/inkscape"
   height="32"
   width="32"
   version="1.1"
   id="svg99"
   sodipodi:docname="datasort.svg"
   inkscape:version="0.92.3 (2405546, 2018-03-11)"
   inkscape:export-filename="/home/rizmut/Dokumen/Rizmut/Github/libreoffice-style-karasa-jaga/build/next/cmd/32/ko/datasort.png"
   inkscape:export-xdpi="96"
   inkscape:export-ydpi="96">
  <metadata
     id="metadata105">
    <rdf:RDF>
      <cc:Work
         rdf:about="">
        <dc:format>image/svg+xml</dc:format>
        <dc:type
           rdf:resource="http://purl.org/dc/dcmitype/StillImage" />
      </cc:Work>
    </rdf:RDF>
  </metadata>
  <defs
     id="defs103" />
  <sodipodi:namedview
     pagecolor="#ffffff"
     bordercolor="#666666"
     borderopacity="1"
     objecttolerance="10"
     gridtolerance="10"
     guidetolerance="10"
     inkscape:pageopacity="0"
     inkscape:pageshadow="2"
     inkscape:window-width="1366"
     inkscape:window-height="714"
     id="namedview101"
     showgrid="true"
     inkscape:zoom="14.75"
     inkscape:cx="13.983322"
     inkscape:cy="21.577983"
     inkscape:window-x="0"
     inkscape:window-y="28"
     inkscape:window-maximized="1"
     inkscape:current-layer="g97">
    <inkscape:grid
       type="xygrid"
       id="grid912" />
  </sodipodi:namedview>
  <linearGradient
     id="a">
    <stop
       offset="0"
       stop-color="#bbd6ff"
       id="stop2" />
    <stop
       offset="1"
       stop-color="#0057ae"
       id="stop4" />
  </linearGradient>
  <linearGradient
     id="b">
    <stop
       offset="0"
       stop-color="#ececec"
       id="stop7" />
    <stop
       offset="1"
       stop-color="#8696aa"
       id="stop9" />
  </linearGradient>
  <linearGradient
     id="c">
    <stop
       offset="0"
       stop-color="#d4e2f3"
       id="stop12" />
    <stop
       offset="1"
       stop-color="#fff"
       stop-opacity="0"
       id="stop14" />
  </linearGradient>
  <linearGradient
     id="d">
    <stop
       offset="0"
       stop-color="#fff"
       id="stop17" />
    <stop
       offset="1"
       stop-color="#fff"
       stop-opacity="0"
       id="stop19" />
  </linearGradient>
  <linearGradient
     id="e"
     gradientUnits="userSpaceOnUse"
     x1="124.5"
     x2="135.74562"
     xlink:href="#d"
     y1="108.5"
     y2="-13.567197" />
  <radialGradient
     id="f"
     cx="56"
     cy="66"
     gradientTransform="matrix(.9738345 0 0 2.2398566 1.465266 -87.830542)"
     gradientUnits="userSpaceOnUse"
     r="48">
    <stop
       offset="0"
       stop-color="#fff"
       id="stop23" />
    <stop
       offset="1"
       stop-color="#fefefe"
       id="stop25" />
  </radialGradient>
  <linearGradient
     id="g"
     gradientTransform="matrix(.7142858 0 0 1 10.285714 -4)"
     gradientUnits="userSpaceOnUse"
     x1="86.50396"
     x2="86.50396"
     xlink:href="#b"
     y1="37.416798"
     y2="8.61134" />
  <linearGradient
     id="h"
     gradientTransform="matrix(.7142858 0 0 1 10.285714 36)"
     gradientUnits="userSpaceOnUse"
     x1="86.50396"
     x2="86.50396"
     xlink:href="#b"
     y1="37.416798"
     y2="8.61134" />
  <linearGradient
     id="i"
     gradientTransform="matrix(.7142858 0 0 1 10.285714 76)"
     gradientUnits="userSpaceOnUse"
     x1="86.50396"
     x2="86.50396"
     xlink:href="#b"
     y1="37.416798"
     y2="8.61134" />
  <filter
     id="j"
     color-interpolation-filters="sRGB"
     height="1.113661"
     width="1.122348"
     x="-.061174"
     y="-.056831">
    <feGaussianBlur
       stdDeviation="2.8415336"
       id="feGaussianBlur31" />
  </filter>
  <linearGradient
     id="k"
     gradientTransform="matrix(1,0,0,-1,-3.5,126)"
     gradientUnits="userSpaceOnUse"
     x1="87.231171"
     x2="114.63911"
     y1="21.712187"
     y2="124">
    <stop
       offset="0"
       stop-color="#2c72c7"
       id="stop34" />
    <stop
       offset="1"
       stop-color="#00438a"
       id="stop36" />
  </linearGradient>
  <linearGradient
     id="l"
     gradientTransform="matrix(1,0,0,-1,-3.5,126)"
     gradientUnits="userSpaceOnUse"
     x1="114.37838"
     x2="112.9539"
     xlink:href="#a"
     y1="37.786964"
     y2="127.69691" />
  <filter
     id="m">
    <feGaussianBlur
       stdDeviation=".385"
       id="feGaussianBlur40" />
  </filter>
  <linearGradient
     id="n"
     gradientTransform="matrix(1,0,0,-1,-3.5,126)"
     gradientUnits="userSpaceOnUse"
     x1="104"
     x2="104"
     xlink:href="#c"
     y1="120"
     y2="57.11084" />
  <linearGradient
     id="o"
     gradientUnits="userSpaceOnUse"
     x1="110.87838"
     x2="109.4539"
     xlink:href="#a"
     y1="39.786961"
     y2="129.69691" />
  <linearGradient
     id="p"
     gradientUnits="userSpaceOnUse"
     x1="121"
     x2="132.24562"
     xlink:href="#d"
     y1="122.5"
     y2=".432801" />
  <linearGradient
     id="q"
     gradientUnits="userSpaceOnUse"
     x1="100.5"
     x2="100.5"
     xlink:href="#c"
     y1="122"
     y2="59.11084" />
  <g
     transform="scale(.25)"
     id="g97">
    <path
       d="m4.571429 4h111.479891v120h-111.479891z"
       fill="#5a5a5a"
       filter="url(#j)"
       opacity=".62"
       transform="matrix(.92777783 0 0 1 .330159 -4)"
       id="path47" />
    <path
       d="m8 4h96v112h-96z"
       fill="#fff"
       id="path49" />
    <path
       d="m16 8h80v104h-80z"
       fill="url(#f)"
       id="path51" />
    <rect
       fill="url(#g)"
       height="20"
       opacity=".25"
       rx="3.052464"
       ry="2.543721"
       width="80"
       x="16"
       y="8"
       id="rect53" />
    <rect
       fill="url(#h)"
       height="20"
       opacity=".25"
       rx="3.052464"
       ry="2.543721"
       width="80"
       x="16"
       y="48"
       id="rect55" />
    <rect
       fill="url(#i)"
       height="20"
       opacity=".25"
       rx="3.052464"
       ry="2.543721"
       width="80"
       x="16"
       y="88"
       id="rect57" />
    <g
       fill="#4d82b8"
       transform="translate(0 32)"
       id="g71">
      <rect
         height="8"
         rx="1.486848"
         ry="1.147508"
         width="24"
         x="32"
         y="16"
         id="rect59" />
      <rect
         height="8"
         rx="2.081587"
         ry="1.147508"
         width="56"
         x="16"
         y="32"
         id="rect61" />
      <rect
         height="8"
         rx="1.486848"
         ry="1.147508"
         width="24"
         x="32"
         y="48"
         id="rect63" />
      <rect
         height="8"
         rx="1.486848"
         ry="1.147508"
         transform="rotate(90)"
         width="24"
         x="48"
         y="-60"
         id="rect65" />
      <rect
         height="8"
         rx="1.486848"
         ry="1.147508"
         transform="rotate(90)"
         width="24"
         x="48"
         y="-36"
         id="rect67" />
      <rect
         height="8"
         rx="1.486848"
         ry="1.147508"
         width="24"
         x="32"
         y="64"
         id="rect69" />
    </g>
    <g
       fill="#696969"
       transform="translate(0 -64)"
       id="g77">
      <rect
         height="8"
         rx="2.081587"
         ry="1.147508"
         width="56"
         x="16"
         y="80"
         id="rect73" />
      <rect
         height="8"
         rx=".892109"
         ry="1.147508"
         transform="rotate(90)"
         width="24"
         x="80"
         y="-72"
         id="rect75" />
    </g>
    <g
       transform="translate(-0.5,-2)"
       id="g95">
      <path
         d="M 92,8 72,26 h 16 v 12 52 12 H 72 l 20,18 20,-18 H 96 V 90 38 26 h 16 z"
         id="path79"
         inkscape:connector-curvature="0"
         style="fill:none;stroke:#ffffff;stroke-width:8;stroke-linecap:round;stroke-linejoin:round" />
      <path
         d="m 100.5,6 -20,20 h 16 v 12 52 12 h -16 l 20,20 20,-20 h -16 V 90 38 26 h 16 z"
         id="path81"
         style="fill:none;stroke:url(#k);stroke-width:8;stroke-linecap:round;stroke-linejoin:round"
         inkscape:connector-curvature="0" />
      <path
         d="m 100.5,6 -20,20 h 16 v 64 h 8 V 26 h 16 z"
         id="path83"
         style="fill:url(#l);fill-rule:evenodd"
         inkscape:connector-curvature="0" />
      <path
         d="M 104,108 84,88 h 16 V 24 h 8 v 64 h 16 z"
         transform="matrix(1,0,0,-1,-3.5,114)"
         id="path85"
         style="opacity:0.89839603;fill:none;stroke:url(#e);filter:url(#m)"
         inkscape:connector-curvature="0" />
      <path
         d="m 100.5,6 -20,20 h 16 v 35.15625 c 2.72925,-0.692534 5.40416,-1.45519 8,-2.28125 V 26 h 16 z"
         id="path87"
         style="fill:url(#n);fill-rule:evenodd"
         inkscape:connector-curvature="0" />
      <path
         d="m 100.5,122 -20,-20 h 16 V 37.999998 h 8 V 102 h 16 z"
         id="path89"
         style="fill:url(#o);fill-rule:evenodd"
         inkscape:connector-curvature="0" />
      <path
         d="m 100.5,122 -20,-20 h 16 V 37.999998 h 8 V 102 h 16 z"
         id="path91"
         style="opacity:0.89839603;fill:none;stroke:url(#p);filter:url(#m)"
         inkscape:connector-curvature="0" />
      <path
         d="m 100.5,122 -20,-20 h 16 V 66.84375 c 2.72925,0.692534 5.40416,1.45519 8,2.28125 V 102 h 16 z"
         id="path93"
         style="fill:url(#q);fill-rule:evenodd"
         inkscape:connector-curvature="0" />
    </g>
  </g>
</svg>
