<svg height="128" width="128" xmlns="http://www.w3.org/2000/svg" xmlns:xlink="http://www.w3.org/1999/xlink"><linearGradient id="a"><stop offset="0" stop-color="#1c1c1c"/><stop offset=".5" stop-color="#888"/><stop offset="1"/></linearGradient><linearGradient id="b" gradientUnits="userSpaceOnUse" x1="-192.86826546846" x2="-199.26656152752" xlink:href="#a" y1="109.4493765047" y2="-18.51654357678"/><linearGradient id="c" gradientUnits="userSpaceOnUse" x1="69.8172" x2="69.8172" xlink:href="#a" y1="104.5457" y2="-11.8163"/><path d="m54.892799 3.2812959v-2.79470843z" fill="#fff" fill-opacity=".756881"/><text style="font-weight:bold;font-size:111.468521;font-family:FreeSerif;letter-spacing:0;word-spacing:0;stroke-width:2.786845;fill:url(#b)" x="-229.8782" y="100.36"><tspan fill="url(#b)" font-family="UnDotum" font-size="120" font-weight="normal" stroke-width="2.786845" x="-229.8782" y="100.36">기</tspan></text><path d="m85.2715 5.6398v104.724l11.6362-.002v-41.8894h15.7086v-10.4724h-15.7086v-52.362zm-70.143 10.4715v10.4724h47.1258c-.245316 10.508724-1.59912 30.040032-6.221281 40.807105-5.813632 13.542546-20.131812 27.274115-40.904519 27.263495v10.4724c26.353093.01361 42.566143-15.396873 50.009799-32.736476 7.443662-17.339609 7.937446-36.559285 7.588401-48.649618v-7.629306z" fill="url(#c)" fill-rule="evenodd"/><g fill="#a4c0e4"><path d="m29.438 94.030998h69.125v1h-69.125z" transform="matrix(1.8516918 0 0 -5.8180975 -54.510103 663.44531)"/><path d="m5.8181 5.819892h5.818103v116.36201h-5.818103z"/><path d="m116.362 5.8199h5.8181v116.362h-5.8181z"/></g></svg>